<?xml version="1.0" encoding="UTF-8"?>
<svg width="238px" height="41px" viewBox="0 0 238 41" version="1.1" xmlns="http://www.w3.org/2000/svg" xmlns:xlink="http://www.w3.org/1999/xlink">
    <!-- Generator: Sketch 59.1 (86144) - https://sketch.com -->
    <title>Group 317</title>
    <desc>Created with Sketch.</desc>
    <defs>
        <polygon id="path-1" points="0.45705 0.160725 1.12875 0.160725 1.12875 1.051725 0.45705 1.051725"></polygon>
        <polygon id="path-3" points="0.45705 0.419625 1.12875 0.419625 1.12875 26.014125 0.45705 26.014125"></polygon>
        <polygon id="path-5" points="0.45705 0.080925 1.12875 0.080925 1.12875 0.971925 0.45705 0.971925"></polygon>
    </defs>
    <g id="Desktop" stroke="none" stroke-width="1" fill="none" fill-rule="evenodd">
        <g id="Homelessness-Section-3-7" transform="translate(-844.000000, -1440.000000)">
            <g id="Group-31" transform="translate(844.000000, 1440.000000)">
                <g id="Group-5" transform="translate(0.750000, 6.966375)">
                    <path d="M233.364225,13.93875 L3.291225,13.93875 C1.593225,13.93875 0.202725,12.549 0.202725,10.85025 L0.202725,5.32575 C0.202725,3.627 1.593225,2.2365 3.291225,2.2365 L233.364225,2.2365 C235.062975,2.2365 236.452725,3.627 236.452725,5.32575 L236.452725,10.85025 C236.452725,12.549 235.062975,13.93875 233.364225,13.93875" id="Fill-1" fill="#D5E8AA"></path>
                    <path d="M138.777075,16.609875 L46.622325,16.609875 C45.152325,16.609875 43.949325,15.406875 43.949325,13.937625 L43.949325,3.212625 C43.949325,1.742625 45.152325,0.539625 46.622325,0.539625 L138.777075,0.539625 C140.247075,0.539625 141.449325,1.742625 141.449325,3.212625 L141.449325,13.937625 C141.449325,15.406875 140.247075,16.609875 138.777075,16.609875" id="Fill-3" fill="#587C13"></path>
                </g>
                <text id="CLUSTER" font-family="SourceSansPro-Bold, Source Sans Pro" font-size="8.25" font-weight="bold" letter-spacing="0.00749999983" fill="#FFFFFF">
                    <tspan x="75.962775" y="15.9473197">C</tspan>
                    <tspan x="80.771775" y="15.9473197" letter-spacing="-0.297750011">L</tspan>
                    <tspan x="84.442275" y="15.9473197" letter-spacing="-0.0750000011">U</tspan>
                    <tspan x="89.771025" y="15.9473197" letter-spacing="-0.157499995">S</tspan>
                    <tspan x="94.035525" y="15.9473197">TER</tspan>
                </text>
                <text id="UNITED-STATES" font-family="SourceSansPro-Bold, Source Sans Pro" font-size="8.25" font-weight="bold" letter-spacing="0.00749999983" fill="#380A6D">
                    <tspan x="157.959525" y="15.9473197">UNITED </tspan>
                    <tspan x="187.530525" y="15.9473197" letter-spacing="-0.157499995">S</tspan>
                    <tspan x="191.795025" y="15.9473197" letter-spacing="-0.322500005">TA</tspan>
                    <tspan x="199.804275" y="15.9473197">TES</tspan>
                </text>
                <text id="Lowest-values" font-family="SourceSansPro-Regular, Source Sans Pro" font-size="9" font-weight="normal" letter-spacing="-0.111750003" fill="#7A7A7A">
                    <tspan x="0.000375" y="39.2464783">L</tspan>
                    <tspan x="4.154625" y="39.2464783" letter-spacing="-0.0397499995">ow</tspan>
                    <tspan x="15.343125" y="39.2464783" letter-spacing="-0.00374999992">est </tspan>
                    <tspan x="28.423125" y="39.2464783" letter-spacing="-0.183750004">v</tspan>
                    <tspan x="32.262375" y="39.2464783" letter-spacing="-0.00374999992">alues</tspan>
                </text>
                <text id="Highest-values" font-family="SourceSansPro-Regular, Source Sans Pro" font-size="9" font-weight="normal" letter-spacing="-0.00374999992" fill="#7A7A7A">
                    <tspan x="163.78305" y="37.7464783">Highest </tspan>
                    <tspan x="194.36205" y="37.7464783" letter-spacing="-0.183750004">v</tspan>
                    <tspan x="198.2013" y="37.7464783">alues</tspan>
                </text>
                <g id="Group-30" transform="translate(0.000000, 0.216375)">
                    <line x1="0.5823" y1="30.301725" x2="0.5823" y2="29.410725" id="Stroke-7" stroke="#AAAAAA" stroke-width="0.594" stroke-linecap="round"></line>
                    <line x1="0.5823" y1="27.514125" x2="0.5823" y2="1.919625" id="Stroke-9" stroke="#AAAAAA" stroke-width="0.594" stroke-linecap="round" stroke-dasharray="1.8960000872612,1.8960000872612"></line>
                    <line x1="0.5823" y1="0.971925" x2="0.5823" y2="0.080925" id="Stroke-11" stroke="#AAAAAA" stroke-width="0.594" stroke-linecap="round"></line>
                    <line x1="45.016875" y1="30.301725" x2="45.016875" y2="0.080475" id="Stroke-13" stroke="#AAAAAA" stroke-width="0.594" stroke-linecap="round" stroke-dasharray="1.781999945640564,1.781999945640564"></line>
                    <g id="Group-17" transform="translate(236.250000, 29.250000)">
                        <mask id="mask-2" fill="white">
                            <use xlink:href="#path-1"></use>
                        </mask>
                        <g id="Clip-16"></g>
                        <line x1="0.83205" y1="1.051725" x2="0.83205" y2="0.160725" id="Stroke-15" stroke="#AAAAAA" stroke-width="0.594" stroke-linecap="round" mask="url(#mask-2)"></line>
                    </g>
                    <g id="Group-20" transform="translate(236.250000, 1.500000)">
                        <mask id="mask-4" fill="white">
                            <use xlink:href="#path-3"></use>
                        </mask>
                        <g id="Clip-19"></g>
                        <line x1="0.83205" y1="26.014125" x2="0.83205" y2="0.419625" id="Stroke-18" stroke="#AAAAAA" stroke-width="0.594" stroke-linecap="round" stroke-dasharray="1.8960000872612,1.8960000872612" mask="url(#mask-4)"></line>
                    </g>
                    <g id="Group-23" transform="translate(236.250000, 0.000000)">
                        <mask id="mask-6" fill="white">
                            <use xlink:href="#path-5"></use>
                        </mask>
                        <g id="Clip-22"></g>
                        <line x1="0.83205" y1="0.971925" x2="0.83205" y2="0.080925" id="Stroke-21" stroke="#AAAAAA" stroke-width="0.594" stroke-linecap="round" mask="url(#mask-6)"></line>
                    </g>
                    <line x1="142.328625" y1="30.301725" x2="142.328625" y2="29.410725" id="Stroke-24" stroke="#AAAAAA" stroke-width="0.594" stroke-linecap="round"></line>
                    <line x1="142.328625" y1="27.514125" x2="142.328625" y2="1.919625" id="Stroke-26" stroke="#AAAAAA" stroke-width="0.594" stroke-linecap="round" stroke-dasharray="1.8960000872612,1.8960000872612"></line>
                    <line x1="142.328625" y1="0.971925" x2="142.328625" y2="0.080925" id="Stroke-28" stroke="#AAAAAA" stroke-width="0.594" stroke-linecap="round"></line>
                </g>
            </g>
        </g>
    </g>
</svg>