<?xml version="1.0" encoding="UTF-8"?>
<svg width="308px" height="70px" viewBox="0 0 308 70" version="1.1" xmlns="http://www.w3.org/2000/svg" xmlns:xlink="http://www.w3.org/1999/xlink">
    <!-- Generator: Sketch 59.1 (86144) - https://sketch.com -->
    <title>Group 427</title>
    <desc>Created with Sketch.</desc>
    <g id="Desktop" stroke="none" stroke-width="1" fill="none" fill-rule="evenodd">
        <g id="Homelessness-Section-3-7" transform="translate(-848.000000, -2318.000000)">
            <g id="Group-42" transform="translate(847.000000, 2313.000000)">
                <polygon id="Fill-1" fill="#E0E0E0" points="3.61225 37.461125 300.61225 37.461125 300.61225 27.711125 3.61225 27.711125"></polygon>
                <line x1="3.61255" y1="45.465575" x2="3.61255" y2="19.215575" id="Stroke-2" stroke="#D1D1D1" stroke-width="0.75" stroke-linecap="round"></line>
                <line x1="152.11255" y1="45.465575" x2="152.11255" y2="19.215575" id="Stroke-3" stroke="#D1D1D1" stroke-width="0.75" stroke-linecap="round"></line>
                <g id="Group-5" transform="translate(0.000000, 0.421125)" font-size="10.5">
                    <text id="CLUSTER-MEDIAN:-2,219" font-family="SourceSansPro-Semibold, Source Sans Pro" font-weight="500" letter-spacing="-0.0149999997" fill="#26660C">
                        <tspan x="11.926975" y="71.5948205">C</tspan>
                        <tspan x="17.959975" y="71.5948205" letter-spacing="-0.361499995">L</tspan>
                        <tspan x="22.522975" y="71.5948205" letter-spacing="-0.119999997">U</tspan>
                        <tspan x="29.175475" y="71.5948205" letter-spacing="-0.225000009">S</tspan>
                        <tspan x="34.462975" y="71.5948205">TER MEDIAN: 2,219</tspan>
                    </text>
                    <text id="0" font-family="SourceSansPro-Regular, Source Sans Pro" font-weight="normal" fill="#848484">
                        <tspan x="0.996475" y="10.8418205">0</tspan>
                    </text>
                    <text id="10K" font-family="SourceSansPro-Regular, Source Sans Pro" font-weight="normal" letter-spacing="-0.0299999993" fill="#848484">
                        <tspan x="292.024975" y="10.8418205">10K</tspan>
                    </text>
                    <text id="5K" font-family="SourceSansPro-Regular, Source Sans Pro" font-weight="normal" letter-spacing="-0.0299999993" fill="#848484">
                        <tspan x="146.788975" y="11.2198205">5K</tspan>
                    </text>
                </g>
                <line x1="33.31225" y1="45.465575" x2="33.31225" y2="19.215575" id="Stroke-6" stroke="#D1D1D1" stroke-width="0.75" stroke-linecap="round"></line>
                <g id="Group-8" transform="translate(28.000000, 1.421125)" fill="#848484" font-family="SourceSansPro-Regular, Source Sans Pro" font-size="10.5" font-weight="normal" letter-spacing="-0.0299999993">
                    <text id="1K">
                        <tspan x="0.671625" y="10.2205705">1K</tspan>
                    </text>
                </g>
                <line x1="63.0127" y1="45.465575" x2="63.0127" y2="19.215575" id="Stroke-9" stroke="#D1D1D1" stroke-width="0.75" stroke-linecap="round"></line>
                <g id="Group-11" transform="translate(57.250000, 1.421125)" fill="#848484" font-family="SourceSansPro-Regular, Source Sans Pro" font-size="10.5" font-weight="normal" letter-spacing="-0.0299999993">
                    <text id="2K">
                        <tspan x="0.6702" y="10.2205705">2K</tspan>
                    </text>
                </g>
                <line x1="92.7124" y1="45.465575" x2="92.7124" y2="19.215575" id="Stroke-12" stroke="#D1D1D1" stroke-width="0.75" stroke-linecap="round"></line>
                <g id="Group-14" transform="translate(87.250000, 1.421125)" fill="#848484" font-family="SourceSansPro-Regular, Source Sans Pro" font-size="10.5" font-weight="normal" letter-spacing="-0.0299999993">
                    <text id="3K">
                        <tspan x="0.666525" y="10.2205705">3K</tspan>
                    </text>
                </g>
                <line x1="122.41285" y1="45.465575" x2="122.41285" y2="19.215575" id="Stroke-15" stroke="#D1D1D1" stroke-width="0.75" stroke-linecap="round"></line>
                <g id="Group-17" transform="translate(116.500000, 1.421125)" fill="#848484" font-family="SourceSansPro-Regular, Source Sans Pro" font-size="10.5" font-weight="normal" letter-spacing="-0.0299999993">
                    <text id="4K">
                        <tspan x="0.6687" y="10.2205705">4K</tspan>
                    </text>
                </g>
                <line x1="181.81225" y1="45.465575" x2="181.81225" y2="19.215575" id="Stroke-18" stroke="#D1D1D1" stroke-width="0.75" stroke-linecap="round"></line>
                <g id="Group-20" transform="translate(175.750000, 1.421125)" fill="#848484" font-family="SourceSansPro-Regular, Source Sans Pro" font-size="10.5" font-weight="normal" letter-spacing="-0.0299999993">
                    <text id="6K">
                        <tspan x="0.673425" y="10.2205705">6K</tspan>
                    </text>
                </g>
                <line x1="211.5127" y1="45.465575" x2="211.5127" y2="19.215575" id="Stroke-21" stroke="#D1D1D1" stroke-width="0.75" stroke-linecap="round"></line>
                <g id="Group-23" transform="translate(205.750000, 1.421125)" fill="#848484" font-family="SourceSansPro-Regular, Source Sans Pro" font-size="10.5" font-weight="normal" letter-spacing="-0.0299999993">
                    <text id="7K">
                        <tspan x="0.2937" y="10.2205705">7K</tspan>
                    </text>
                </g>
                <line x1="241.2124" y1="45.465575" x2="241.2124" y2="19.215575" id="Stroke-24" stroke="#D1D1D1" stroke-width="0.75" stroke-linecap="round"></line>
                <g id="Group-26" transform="translate(235.000000, 1.421125)" fill="#848484" font-family="SourceSansPro-Regular, Source Sans Pro" font-size="10.5" font-weight="normal" letter-spacing="-0.0299999993">
                    <text id="8K">
                        <tspan x="0.2922" y="10.2205705">8K</tspan>
                    </text>
                </g>
                <line x1="270.91285" y1="45.465575" x2="270.91285" y2="19.215575" id="Stroke-27" stroke="#D1D1D1" stroke-width="0.75" stroke-linecap="round"></line>
                <g id="Group-29" transform="translate(265.000000, 1.421125)" fill="#848484" font-family="SourceSansPro-Regular, Source Sans Pro" font-size="10.5" font-weight="normal" letter-spacing="-0.0299999993">
                    <text id="9K">
                        <tspan x="0.676725" y="10.2205705">9K</tspan>
                    </text>
                </g>
                <line x1="66.597925" y1="63.7109" x2="66.597925" y2="47.63165" id="Stroke-30" stroke="#636363" stroke-width="1.5" stroke-linecap="round"></line>
                <g id="Group-41" transform="translate(49.000000, 21.921125)">
                    <path d="M17.597925,26.01195 C16.814175,26.7957 15.264675,27.1692 14.189175,27.19995 C15.632925,26.1252 16.892175,24.72945 17.597925,23.0397 C18.273675,24.72945 19.609425,26.0637 21.006675,27.19995 C19.855425,27.1077 18.457425,26.82645 17.597925,26.01195" id="Fill-31" fill="#636363"></path>
                    <path d="M140.828625,19.289775 L3.527625,19.289775 C1.804125,19.289775 0.394125,17.879775 0.394125,16.155525 L0.394125,5.174025 C0.394125,3.450525 1.804125,2.039775 3.527625,2.039775 L140.828625,2.039775 C142.552875,2.039775 143.962875,3.450525 143.962875,5.174025 L143.962875,16.155525 C143.962875,17.879775 142.552875,19.289775 140.828625,19.289775" id="Fill-33" fill="#D5E8AA"></path>
                    <path d="M133.316175,20.803725 L7.410675,20.803725 C4.723425,20.803725 2.524425,18.604725 2.524425,15.917475 L2.524425,5.440725 C2.524425,2.753475 4.723425,0.553725 7.410675,0.553725 L133.316175,0.553725 C136.003425,0.553725 138.202425,2.753475 138.202425,5.440725 L138.202425,15.917475 C138.202425,18.604725 136.003425,20.803725 133.316175,20.803725" id="Fill-35" fill="#587C13"></path>
                    <path d="M20.003175,9.276825 C20.003175,8.644575 20.036175,8.036325 19.996425,7.431825 C19.921425,6.297825 19.016175,5.460825 17.847675,5.395575 C16.820925,5.339325 15.776925,6.120075 15.629175,7.173825 C15.532425,7.857075 15.611175,8.565825 15.611175,9.276825 L20.003175,9.276825 Z M14.470425,15.957075 L21.124425,15.957075 L21.124425,10.423575 L14.470425,10.423575 L14.470425,15.957075 Z M21.139425,9.247575 C21.332925,9.316575 21.515175,9.357075 21.672675,9.441825 C22.070925,9.654825 22.243425,10.013325 22.244925,10.451325 C22.249425,12.291825 22.250925,14.131575 22.244175,15.972075 C22.241925,16.589325 21.774675,17.055825 21.151425,17.075325 C20.727675,17.088825 20.302425,17.079075 19.877925,17.079075 C18.129675,17.079075 16.381425,17.079825 14.633175,17.079075 C13.770675,17.079075 13.347675,16.655325 13.347675,15.792825 C13.347675,14.094075 13.367175,12.394575 13.338675,10.697325 C13.325925,9.905325 13.610175,9.424575 14.455425,9.262575 C14.455425,8.743575 14.453925,8.220825 14.456175,7.697325 C14.462175,6.055575 15.460425,4.775325 17.049675,4.368075 C18.887175,3.897075 20.902425,5.283825 21.089925,7.172325 C21.147675,7.759575 21.125175,8.353575 21.139425,8.943825 C21.141675,9.050325 21.139425,9.158325 21.139425,9.247575 L21.139425,9.247575 Z" id="Fill-37" fill="#FFFFFF"></path>
                    <path d="M17.7195,11.521725 C18.291,11.537475 18.68775,11.817225 18.84,12.240975 C19.00275,12.692475 18.86625,13.162725 18.504,13.486725 C18.4245,13.557225 18.37275,13.685475 18.35775,13.793475 C18.33225,13.965225 18.35775,14.142975 18.34725,14.317725 C18.32925,14.619975 18.0825,14.850225 17.79225,14.8487323 C17.5005,14.846475 17.26575,14.614725 17.24625,14.307975 C17.24175,14.232975 17.241,14.158725 17.244,14.082975 C17.25675,13.809225 17.24175,13.578975 16.986,13.365225 C16.6455,13.079475 16.5975,12.560475 16.78575,12.167475 C16.99425,11.732475 17.352,11.533725 17.7195,11.521725" id="Fill-39" fill="#FFFFFF"></path>
                </g>
            </g>
        </g>
    </g>
</svg>