<?xml version="1.0" encoding="UTF-8"?>
<svg width="238px" height="43px" viewBox="0 0 238 43" version="1.1" xmlns="http://www.w3.org/2000/svg" xmlns:xlink="http://www.w3.org/1999/xlink">
    <!-- Generator: Sketch 59.1 (86144) - https://sketch.com -->
    <title>Group 54</title>
    <desc>Created with Sketch.</desc>
    <g id="Desktop" stroke="none" stroke-width="1" fill="none" fill-rule="evenodd">
        <g id="Homelessness-Section-3-4" transform="translate(-869.000000, -1443.000000)">
            <g id="Group-5" transform="translate(869.458975, 1443.297300)">
                <path d="M3.834225,20.232825 C2.337975,20.232825 1.120725,19.015575 1.120725,17.519325 L1.120725,11.994825 C1.120725,10.498575 2.337975,9.280575 3.834225,9.280575 L233.907225,9.280575 C235.403475,9.280575 236.620725,10.498575 236.620725,11.994825 L236.620725,17.519325 C236.620725,19.015575 235.403475,20.232825 233.907225,20.232825 L3.834225,20.232825 Z" id="Fill-1" fill="#9D9DC6"></path>
                <path d="M233.907,8.905875 L3.834,8.905875 C2.136,8.905875 0.7455,10.296375 0.7455,11.994375 L0.7455,17.518875 C0.7455,19.218375 2.136,20.608125 3.834,20.608125 L233.907,20.608125 C235.60575,20.608125 236.9955,19.218375 236.9955,17.518875 L236.9955,11.994375 C236.9955,10.296375 235.60575,8.905875 233.907,8.905875 M233.907,9.655875 C235.197,9.655875 236.2455,10.705125 236.2455,11.994375 L236.2455,17.518875 C236.2455,18.808875 235.197,19.858125 233.907,19.858125 L3.834,19.858125 C2.54475,19.858125 1.4955,18.808875 1.4955,17.518875 L1.4955,11.994375 C1.4955,10.705125 2.54475,9.655875 3.834,9.655875 L233.907,9.655875" id="Fill-3" fill="#FFFFFF"></path>
                <path d="M139.31985,23.27895 L47.1651,23.27895 C45.6951,23.27895 44.4921,22.07595 44.4921,20.6067 L44.4921,9.8817 C44.4921,8.4117 45.6951,7.2087 47.1651,7.2087 L139.31985,7.2087 C140.78985,7.2087 141.9921,8.4117 141.9921,9.8817 L141.9921,20.6067 C141.9921,22.07595 140.78985,23.27895 139.31985,23.27895" id="Fill-5" fill="#4D4D8C"></path>
                <path d="M76.135275,15.363675 C76.135275,14.918175 76.204275,14.520675 76.340775,14.171175 C76.478775,13.822425 76.664775,13.526925 76.898775,13.284675 C77.132025,13.042425 77.404275,12.858675 77.714775,12.731925 C78.026025,12.605175 78.354525,12.542175 78.701025,12.542175 C79.036275,12.542175 79.340025,12.611925 79.613025,12.752925 C79.884525,12.892425 80.111775,13.056675 80.293275,13.243425 L79.625025,13.994175 C79.487775,13.868175 79.348275,13.768425 79.208775,13.697175 C79.067775,13.625925 78.904275,13.589925 78.717525,13.589925 C78.530025,13.589925 78.356025,13.629675 78.193275,13.709925 C78.031275,13.789425 77.889525,13.903425 77.768775,14.051925 C77.648025,14.200425 77.552775,14.381925 77.484525,14.596425 C77.415525,14.810925 77.381025,15.053175 77.381025,15.322425 C77.381025,15.878175 77.498775,16.308675 77.735775,16.613175 C77.972025,16.918425 78.288525,17.071425 78.683775,17.071425 C78.904275,17.071425 79.097025,17.027925 79.262025,16.939425 C79.427025,16.850925 79.575525,16.736175 79.707525,16.592925 L80.375775,17.327175 C80.150775,17.591175 79.893525,17.789175 79.604025,17.921175 C79.315275,18.053175 79.003275,18.119175 78.668025,18.119175 C78.321525,18.119175 77.994525,18.059925 77.686275,17.942175 C77.378025,17.823675 77.108775,17.648925 76.877775,17.417925 C76.646775,17.186925 76.464525,16.899675 76.333275,16.556175 C76.201275,16.211925 76.135275,15.815175 76.135275,15.363675" id="Fill-7" fill="#FFFFFF"></path>
                <polygon id="Fill-9" fill="#FFFFFF" points="81.27465 12.64125 82.4874 12.64125 82.4874 16.99725 84.6159 16.99725 84.6159 18.02025 81.27465 18.02025"></polygon>
                <path d="M85.2927,12.64125 L86.5137,12.64125 L86.5137,15.6525 C86.5137,16.1805 86.5932,16.54875 86.75295,16.758 C86.91195,16.96725 87.1437,17.0715 87.44595,17.0715 C87.7482,17.0715 87.9822,16.96725 88.1472,16.758 C88.3122,16.54875 88.3947,16.1805 88.3947,15.6525 L88.3947,12.64125 L89.5662,12.64125 L89.5662,15.52875 C89.5662,16.431 89.3862,17.088 89.0262,17.5005 C88.66545,17.913 88.13895,18.11925 87.44595,18.11925 C86.74695,18.11925 86.21445,17.913 85.84545,17.5005 C85.4772,17.088 85.2927,16.431 85.2927,15.52875 L85.2927,12.64125 Z" id="Fill-11" fill="#FFFFFF"></path>
                <path d="M91.158675,16.51065 C91.350675,16.67565 91.563675,16.8099 91.798425,16.9149 C92.031675,17.01915 92.261175,17.07165 92.486925,17.07165 C92.738925,17.07165 92.927925,17.02515 93.051675,16.9314 C93.175425,16.8384 93.236925,16.71165 93.236925,16.5519 C93.236925,16.46865 93.219675,16.39815 93.183675,16.3374 C93.147675,16.27665 93.095925,16.22265 93.026925,16.17615 C92.957925,16.12965 92.875425,16.08615 92.779425,16.04415 C92.683425,16.0029 92.577675,15.9579 92.461425,15.90765 L91.760925,15.6114 C91.622925,15.55665 91.489425,15.48465 91.361175,15.3969 C91.231425,15.3084 91.115175,15.20565 91.014675,15.0879 C90.912675,14.96865 90.830925,14.8314 90.770175,14.67465 C90.710175,14.5179 90.679425,14.34015 90.679425,14.1429 C90.679425,13.92315 90.726675,13.71465 90.820425,13.51965 C90.913425,13.32465 91.046175,13.15365 91.216425,13.00815 C91.386675,12.86265 91.588425,12.7479 91.822425,12.66615 C92.056425,12.58365 92.313675,12.5424 92.594175,12.5424 C92.907675,12.5424 93.216675,12.6024 93.521925,12.7239 C93.827925,12.84465 94.095675,13.0209 94.326675,13.25115 L93.707175,14.01915 C93.531675,13.88115 93.356175,13.77615 93.179175,13.70115 C93.003675,13.6269 92.807925,13.5894 92.594175,13.5894 C92.384925,13.5894 92.218425,13.63215 92.094675,13.71765 C91.970925,13.80315 91.909425,13.92315 91.909425,14.0769 C91.909425,14.15865 91.929675,14.22915 91.970925,14.2869 C92.012175,14.34465 92.069925,14.39715 92.144175,14.44365 C92.218425,14.4909 92.304675,14.5344 92.404425,14.57565 C92.503425,14.61765 92.610675,14.66265 92.726175,14.71215 L93.419175,14.99265 C93.749175,15.1239 94.008675,15.30615 94.198425,15.53715 C94.388925,15.76815 94.483425,16.0734 94.483425,16.4529 C94.483425,16.67865 94.437675,16.89165 94.346925,17.0919 C94.256175,17.2929 94.124175,17.4684 93.951675,17.6199 C93.777675,17.7714 93.564675,17.89215 93.311925,17.9829 C93.058425,18.07365 92.772675,18.1194 92.453925,18.1194 C92.101425,18.1194 91.751175,18.0549 91.401675,17.92515 C91.052175,17.79615 90.740175,17.6019 90.464925,17.34315 L91.158675,16.51065 Z" id="Fill-13" fill="#FFFFFF"></path>
                <polygon id="Fill-15" fill="#FFFFFF" points="96.36405 13.6644 94.8873 13.6644 94.8873 12.6414 99.0618 12.6414 99.0618 13.6644 97.58505 13.6644 97.58505 18.0204 96.36405 18.0204"></polygon>
                <polygon id="Fill-17" fill="#FFFFFF" points="99.985875 12.64125 103.351875 12.64125 103.351875 13.66425 101.198625 13.66425 101.198625 14.745 103.030125 14.745 103.030125 15.75975 101.198625 15.75975 101.198625 16.99725 103.434375 16.99725 103.434375 18.02025 99.985875 18.02025"></polygon>
                <path d="M105.801975,15.1161 L106.428975,15.1161 C106.747725,15.1161 106.991475,15.0486 107.159475,14.9136 C107.326725,14.77935 107.410725,14.57985 107.410725,14.31585 C107.410725,14.05185 107.326725,13.8681 107.159475,13.7631 C106.991475,13.65885 106.747725,13.60635 106.428975,13.60635 L105.801975,13.60635 L105.801975,15.1161 Z M107.501475,18.0201 L106.470225,16.08135 L105.801975,16.08135 L105.801975,18.0201 L104.589225,18.0201 L104.589225,12.6411 L106.527975,12.6411 C106.813725,12.6411 107.082225,12.66885 107.331975,12.72435 C107.582475,12.7791 107.800725,12.87135 107.988225,13.00035 C108.174975,13.12935 108.323475,13.3011 108.433725,13.5156 C108.543225,13.7301 108.598725,13.9971 108.598725,14.31585 C108.598725,14.71185 108.511725,15.0381 108.339225,15.2931 C108.165225,15.54885 107.933475,15.7401 107.641725,15.86685 L108.862725,18.0201 L107.501475,18.0201 Z" id="Fill-19" fill="#FFFFFF"></path>
                <path d="M158.358375,12.64125 L159.579375,12.64125 L159.579375,15.6525 C159.579375,16.1805 159.658125,16.54875 159.817875,16.758 C159.977625,16.96725 160.209375,17.0715 160.510875,17.0715 C160.813875,17.0715 161.047875,16.96725 161.212875,16.758 C161.377875,16.54875 161.460375,16.1805 161.460375,15.6525 L161.460375,12.64125 L162.631875,12.64125 L162.631875,15.52875 C162.631875,16.431 162.451875,17.088 162.091875,17.5005 C161.731125,17.913 161.204625,18.11925 160.510875,18.11925 C159.812625,18.11925 159.279375,17.913 158.911125,17.5005 C158.542125,17.088 158.358375,16.431 158.358375,15.52875 L158.358375,12.64125 Z" id="Fill-21" fill="#380A6D"></path>
                <path d="M163.959975,12.64125 L165.205725,12.64125 L166.607475,15.3135 L167.136225,16.5015 L167.168475,16.5015 C167.141475,16.2165 167.109975,15.897 167.073975,15.54525 C167.037975,15.19275 167.020725,14.8575 167.020725,14.53875 L167.020725,12.64125 L168.174975,12.64125 L168.174975,18.02025 L166.929975,18.02025 L165.527475,15.339 L164.999475,14.1675 L164.966475,14.1675 C164.993475,14.4645 165.025725,14.78325 165.060975,15.1245 C165.097725,15.46575 165.114975,15.79575 165.114975,16.1145 L165.114975,18.02025 L163.959975,18.02025 L163.959975,12.64125 Z" id="Fill-23" fill="#380A6D"></path>
                <polygon id="Fill-25" fill="#380A6D" points="169.528275 18.01995 170.741025 18.01995 170.741025 12.64095 169.528275 12.64095"></polygon>
                <polygon id="Fill-27" fill="#380A6D" points="173.142375 13.6644 171.665625 13.6644 171.665625 12.6414 175.840125 12.6414 175.840125 13.6644 174.363375 13.6644 174.363375 18.0204 173.142375 18.0204"></polygon>
                <polygon id="Fill-28" fill="#380A6D" points="176.76345 12.64125 180.12945 12.64125 180.12945 13.66425 177.9762 13.66425 177.9762 14.745 179.8077 14.745 179.8077 15.75975 177.9762 15.75975 177.9762 16.99725 180.21195 16.99725 180.21195 18.02025 176.76345 18.02025"></polygon>
                <path d="M182.811075,17.038725 C183.042075,17.038725 183.251325,17.007975 183.438075,16.947975 C183.624825,16.887225 183.784575,16.789725 183.916575,16.654725 C184.047825,16.520475 184.152075,16.342725 184.226325,16.122225 C184.299825,15.902475 184.337325,15.630225 184.337325,15.305475 C184.337325,14.987475 184.299825,14.718975 184.226325,14.501475 C184.152075,14.283975 184.047825,14.111475 183.916575,13.981725 C183.784575,13.852725 183.624825,13.760475 183.438075,13.705725 C183.251325,13.650225 183.042075,13.622475 182.811075,13.622475 L182.580075,13.622475 L182.580075,17.038725 L182.811075,17.038725 Z M181.367325,12.641475 L182.885325,12.641475 C183.297825,12.641475 183.669075,12.693225 183.999075,12.798225 C184.329075,12.902475 184.611825,13.062975 184.848825,13.280475 C185.085075,13.497975 185.266575,13.773975 185.392575,14.109975 C185.520075,14.445225 185.583075,14.843475 185.583075,15.305475 C185.583075,15.768225 185.520075,16.169475 185.392575,16.510725 C185.266575,16.851225 185.088075,17.133225 184.857075,17.355975 C184.626075,17.578725 184.350075,17.745225 184.027575,17.855475 C183.705825,17.964975 183.347325,18.020475 182.951325,18.020475 L181.367325,18.020475 L181.367325,12.641475 Z" id="Fill-29" fill="#380A6D"></path>
                <path d="M188.833725,16.51065 C189.025725,16.67565 189.238725,16.8099 189.472725,16.9149 C189.706725,17.01915 189.936225,17.07165 190.161975,17.07165 C190.413975,17.07165 190.602975,17.02515 190.725975,16.9314 C190.850475,16.8384 190.911975,16.71165 190.911975,16.5519 C190.911975,16.46865 190.894725,16.39815 190.857975,16.3374 C190.822725,16.27665 190.770225,16.22265 190.701225,16.17615 C190.632225,16.12965 190.550475,16.08615 190.454475,16.04415 C190.358475,16.0029 190.252725,15.9579 190.136475,15.90765 L189.435975,15.6114 C189.297975,15.55665 189.164475,15.48465 189.036225,15.3969 C188.906475,15.3084 188.790225,15.20565 188.688975,15.0879 C188.587725,14.96865 188.505975,14.8314 188.445225,14.67465 C188.385225,14.5179 188.354475,14.34015 188.354475,14.1429 C188.354475,13.92315 188.401725,13.71465 188.495475,13.51965 C188.588475,13.32465 188.721225,13.15365 188.890725,13.00815 C189.061725,12.86265 189.263475,12.7479 189.497475,12.66615 C189.731475,12.58365 189.987975,12.5424 190.269225,12.5424 C190.582725,12.5424 190.891725,12.6024 191.196225,12.7239 C191.502975,12.84465 191.770725,13.0209 192.001725,13.25115 L191.382225,14.01915 C191.206725,13.88115 191.031225,13.77615 190.854225,13.70115 C190.677975,13.6269 190.482975,13.5894 190.269225,13.5894 C190.059975,13.5894 189.893475,13.63215 189.769725,13.71765 C189.645975,13.80315 189.583725,13.92315 189.583725,14.0769 C189.583725,14.15865 189.603975,14.22915 189.645975,14.2869 C189.687225,14.34465 189.744975,14.39715 189.819225,14.44365 C189.893475,14.4909 189.979725,14.5344 190.078725,14.57565 C190.178475,14.61765 190.285725,14.66265 190.401225,14.71215 L191.094225,14.99265 C191.423475,15.1239 191.683725,15.30615 191.873475,15.53715 C192.063975,15.76815 192.158475,16.0734 192.158475,16.4529 C192.158475,16.67865 192.112725,16.89165 192.021975,17.0919 C191.931225,17.2929 191.799225,17.4684 191.625975,17.6199 C191.452725,17.7714 191.238975,17.89215 190.986975,17.9829 C190.733475,18.07365 190.447725,18.1194 190.128975,18.1194 C189.776475,18.1194 189.425475,18.0549 189.076725,17.92515 C188.726475,17.79615 188.414475,17.6019 188.139975,17.34315 L188.833725,16.51065 Z" id="Fill-30" fill="#380A6D"></path>
                <polygon id="Fill-31" fill="#380A6D" points="194.039775 13.6644 192.562275 13.6644 192.562275 12.6414 196.736775 12.6414 196.736775 13.6644 195.260025 13.6644 195.260025 18.0204 194.039775 18.0204"></polygon>
                <path d="M199.6077,15.792825 L199.4847,15.297825 C199.4067,15.027825 199.3332,14.742075 199.26195,14.439075 C199.18995,14.137575 199.1187,13.845075 199.0467,13.564575 L199.01445,13.564575 C198.94845,13.851075 198.88095,14.144325 198.81195,14.443575 C198.7437,14.743575 198.6702,15.027825 198.59295,15.297825 L198.4617,15.792825 L199.6077,15.792825 Z M199.8552,16.741575 L198.2142,16.741575 L197.88345,18.020325 L196.6467,18.020325 L198.3297,12.641325 L199.7892,12.641325 L201.4722,18.020325 L200.18595,18.020325 L199.8552,16.741575 Z" id="Fill-32" fill="#380A6D"></path>
                <polygon id="Fill-33" fill="#380A6D" points="202.8582 13.6644 201.38145 13.6644 201.38145 12.6414 205.5567 12.6414 205.5567 13.6644 204.07995 13.6644 204.07995 18.0204 202.8582 18.0204"></polygon>
                <polygon id="Fill-34" fill="#380A6D" points="206.4807 12.64125 209.84595 12.64125 209.84595 13.66425 207.6927 13.66425 207.6927 14.745 209.52495 14.745 209.52495 15.75975 207.6927 15.75975 207.6927 16.99725 209.9292 16.99725 209.9292 18.02025 206.4807 18.02025"></polygon>
                <path d="M211.4304,16.51065 C211.6224,16.67565 211.83615,16.8099 212.07015,16.9149 C212.3034,17.01915 212.53365,17.07165 212.75865,17.07165 C213.01065,17.07165 213.19965,17.02515 213.3234,16.9314 C213.44715,16.8384 213.50865,16.71165 213.50865,16.5519 C213.50865,16.46865 213.4914,16.39815 213.4554,16.3374 C213.4194,16.27665 213.36765,16.22265 213.29865,16.17615 C213.22965,16.12965 213.14715,16.08615 213.0519,16.04415 C212.95515,16.0029 212.85015,15.9579 212.7339,15.90765 L212.03265,15.6114 C211.89465,15.55665 211.76115,15.48465 211.6329,15.3969 C211.5039,15.3084 211.38765,15.20565 211.2864,15.0879 C211.1844,14.96865 211.10265,14.8314 211.0419,14.67465 C210.9819,14.5179 210.95115,14.34015 210.95115,14.1429 C210.95115,13.92315 210.9984,13.71465 211.09215,13.51965 C211.1859,13.32465 211.3179,13.15365 211.48815,13.00815 C211.65915,12.86265 211.8609,12.7479 212.09415,12.66615 C212.32815,12.58365 212.5854,12.5424 212.8659,12.5424 C213.1794,12.5424 213.4884,12.6024 213.79365,12.7239 C214.09965,12.84465 214.3674,13.0209 214.59915,13.25115 L213.9789,14.01915 C213.8034,13.88115 213.6279,13.77615 213.45165,13.70115 C213.2754,13.6269 213.07965,13.5894 212.8659,13.5894 C212.65665,13.5894 212.4909,13.63215 212.3664,13.71765 C212.2434,13.80315 212.18115,13.92315 212.18115,14.0769 C212.18115,14.15865 212.2014,14.22915 212.2434,14.2869 C212.28465,14.34465 212.34165,14.39715 212.4159,14.44365 C212.4909,14.4909 212.57715,14.5344 212.67615,14.57565 C212.77515,14.61765 212.8824,14.66265 212.9979,14.71215 L213.6909,14.99265 C214.0209,15.1239 214.28115,15.30615 214.47015,15.53715 C214.66065,15.76815 214.7559,16.0734 214.7559,16.4529 C214.7559,16.67865 214.71015,16.89165 214.6194,17.0919 C214.52865,17.2929 214.39665,17.4684 214.2234,17.6199 C214.0494,17.7714 213.8364,17.89215 213.58365,17.9829 C213.33015,18.07365 213.0444,18.1194 212.72565,18.1194 C212.3739,18.1194 212.0229,18.0549 211.6734,17.92515 C211.3239,17.79615 211.0119,17.6019 210.7374,17.34315 L211.4304,16.51065 Z" id="Fill-35" fill="#380A6D"></path>
                <polygon id="Fill-40" fill="#7A7A7A" points="0.602775 35.358075 1.349775 35.358075 1.349775 40.623825 3.932775 40.623825 3.932775 41.262075 0.602775 41.262075"></polygon>
                <path d="M5.19285,39.08385 C5.19285,39.33585 5.22285,39.5646 5.28285,39.76785 C5.34285,39.9726 5.4276,40.14735 5.53935,40.29435 C5.65035,40.4421 5.78385,40.55535 5.93985,40.63635 C6.09585,40.7181 6.26685,40.75785 6.45285,40.75785 C6.63885,40.75785 6.80985,40.7181 6.96585,40.63635 C7.12185,40.55535 7.25535,40.4421 7.36635,40.29435 C7.47735,40.14735 7.56285,39.9726 7.62285,39.76785 C7.68285,39.5646 7.71285,39.33585 7.71285,39.08385 C7.71285,38.83185 7.68285,38.60235 7.62285,38.39535 C7.56285,38.1891 7.47735,38.00985 7.36635,37.85985 C7.25535,37.70985 7.12185,37.5951 6.96585,37.51335 C6.80985,37.43235 6.63885,37.39185 6.45285,37.39185 C6.26685,37.39185 6.09585,37.43235 5.93985,37.51335 C5.78385,37.5951 5.65035,37.70985 5.53935,37.85985 C5.4276,38.00985 5.34285,38.1891 5.28285,38.39535 C5.22285,38.60235 5.19285,38.83185 5.19285,39.08385 M4.4271,39.08385 C4.4271,38.7186 4.48335,38.39235 4.59435,38.10735 C4.70535,37.82235 4.85385,37.58085 5.03985,37.38285 C5.22585,37.1856 5.44035,37.0356 5.68335,36.93285 C5.92635,36.83085 6.18285,36.7806 6.45285,36.7806 C6.72285,36.7806 6.97935,36.83085 7.22235,36.93285 C7.46535,37.0356 7.6791,37.1856 7.86585,37.38285 C8.05185,37.58085 8.20035,37.82235 8.31135,38.10735 C8.42235,38.39235 8.47785,38.7186 8.47785,39.08385 C8.47785,39.44385 8.42235,39.76635 8.31135,40.05135 C8.20035,40.33635 8.05185,40.57635 7.86585,40.77135 C7.6791,40.9671 7.46535,41.11485 7.22235,41.2176 C6.97935,41.31885 6.72285,41.36985 6.45285,41.36985 C6.18285,41.36985 5.92635,41.31885 5.68335,41.2176 C5.44035,41.11485 5.22585,40.9671 5.03985,40.77135 C4.85385,40.57635 4.70535,40.33635 4.59435,40.05135 C4.48335,39.76635 4.4271,39.44385 4.4271,39.08385" id="Fill-41" fill="#7A7A7A"></path>
                <path d="M9.027075,36.888075 L9.783075,36.888075 L10.431075,39.417075 C10.479075,39.627075 10.524075,39.831075 10.566075,40.029075 C10.607325,40.227075 10.650075,40.428075 10.692075,40.632075 L10.728075,40.632075 C10.776075,40.428075 10.824075,40.225575 10.872075,40.024575 C10.919325,39.823575 10.971075,39.621825 11.025075,39.417075 L11.699325,36.888075 L12.419325,36.888075 L13.104075,39.417075 C13.158075,39.627075 13.209825,39.831075 13.261575,40.029075 C13.312575,40.227075 13.361325,40.428075 13.410075,40.632075 L13.446075,40.632075 C13.494075,40.428075 13.539075,40.227075 13.580325,40.029075 C13.623075,39.831075 13.667325,39.627075 13.716075,39.417075 L14.355075,36.888075 L15.057075,36.888075 L13.886325,41.262075 L12.986325,41.262075 L12.356325,38.913075 C12.302325,38.703075 12.253575,38.496825 12.207825,38.292075 C12.163575,38.088825 12.113325,37.875075 12.060075,37.653825 L12.024075,37.653825 C11.976075,37.875075 11.927325,38.089575 11.880075,38.296575 C11.831325,38.503575 11.778075,38.712075 11.718075,38.922075 L11.105325,41.262075 L10.242075,41.262075 L9.027075,36.888075 Z" id="Fill-42" fill="#7A7A7A"></path>
                <path d="M18.665775,38.751375 C18.665775,38.300625 18.571275,37.957125 18.382275,37.720875 C18.193275,37.483875 17.927775,37.364625 17.585775,37.364625 C17.429775,37.364625 17.280525,37.396125 17.140275,37.459125 C16.999275,37.522125 16.871025,37.612125 16.757775,37.729875 C16.643775,37.846875 16.549275,37.990125 16.474275,38.161875 C16.399275,38.332125 16.349775,38.529375 16.325775,38.751375 L18.665775,38.751375 Z M15.605775,39.083625 C15.605775,38.724375 15.661275,38.401875 15.772275,38.116125 C15.883275,37.831125 16.029525,37.589625 16.212525,37.392375 C16.396275,37.194375 16.604775,37.042875 16.838025,36.937875 C17.072775,36.832125 17.315775,36.780375 17.567775,36.780375 C17.843025,36.780375 18.090525,36.828375 18.310275,36.923625 C18.528525,37.019625 18.712275,37.158375 18.859275,37.337625 C19.006275,37.517625 19.118775,37.734375 19.196775,37.985625 C19.274775,38.237625 19.313775,38.519625 19.313775,38.831625 C19.313775,38.993625 19.304775,39.129375 19.286775,39.236625 L16.334775,39.236625 C16.364775,39.710625 16.510275,40.085625 16.771275,40.361625 C17.032275,40.638375 17.372025,40.775625 17.792775,40.775625 C18.002775,40.775625 18.196275,40.744125 18.373275,40.681125 C18.550275,40.618125 18.719775,40.536375 18.881775,40.434375 L19.142775,40.920375 C18.950775,41.040375 18.737775,41.144625 18.503775,41.235375 C18.269775,41.325375 18.002775,41.369625 17.702775,41.369625 C17.408775,41.369625 17.134275,41.317875 16.879275,41.212125 C16.623525,41.107875 16.401525,40.957125 16.212525,40.762875 C16.024275,40.567875 15.875775,40.329375 15.767775,40.047375 C15.659775,39.765375 15.605775,39.444375 15.605775,39.083625 L15.605775,39.083625 Z" id="Fill-43" fill="#7A7A7A"></path>
                <path d="M20.2317,40.27185 C20.4237,40.42785 20.6202,40.55385 20.8212,40.64985 C21.0222,40.7466 21.2547,40.79385 21.5187,40.79385 C21.80745,40.79385 22.0227,40.72785 22.1667,40.5966 C22.3107,40.4646 22.3827,40.30185 22.3827,40.10985 C22.3827,39.9966 22.3527,39.89685 22.2927,39.8136 C22.2327,39.72885 22.1562,39.6561 22.0632,39.5931 C21.9702,39.5301 21.8637,39.4746 21.74445,39.42585 C21.6237,39.3786 21.5037,39.32985 21.3837,39.2826 C21.2277,39.22785 21.0717,39.16635 20.9157,39.0981 C20.7597,39.0291 20.6202,38.94435 20.4972,38.8461 C20.3742,38.7471 20.2737,38.63085 20.1957,38.4996 C20.1177,38.36685 20.0787,38.20785 20.0787,38.02185 C20.0787,37.8486 20.1132,37.6851 20.18295,37.5321 C20.2512,37.3791 20.3502,37.2471 20.4792,37.13535 C20.6082,37.02435 20.7657,36.9381 20.9517,36.8751 C21.1377,36.8121 21.3477,36.7806 21.5817,36.7806 C21.8577,36.7806 22.1112,36.82785 22.3422,36.92385 C22.5732,37.01985 22.7727,37.13685 22.9407,37.27485 L22.59045,37.74285 C22.4397,37.6296 22.2837,37.5366 22.12245,37.46385 C21.9597,37.39185 21.7827,37.35585 21.5907,37.35585 C21.3147,37.35585 21.1122,37.41885 20.9832,37.54485 C20.8542,37.67085 20.7897,37.8186 20.7897,37.98585 C20.7897,38.0886 20.8167,38.17635 20.87145,38.2521 C20.9247,38.32635 20.99745,38.39235 21.0867,38.44935 C21.1767,38.50635 21.2802,38.55735 21.3972,38.60235 C21.5142,38.64735 21.6357,38.69385 21.7617,38.74185 C21.9177,38.80185 22.0752,38.86485 22.2342,38.93085 C22.3932,38.9976 22.5357,39.07935 22.6617,39.17835 C22.7877,39.27735 22.8912,39.39885 22.9722,39.54285 C23.0532,39.6876 23.0937,39.86085 23.0937,40.0656 C23.0937,40.24485 23.0592,40.41285 22.9902,40.56885 C22.9212,40.72485 22.8192,40.86285 22.68495,40.98285 C22.5492,41.10285 22.3812,41.19735 22.1802,41.26635 C21.9792,41.33535 21.7497,41.36985 21.4917,41.36985 C21.1797,41.36985 20.8827,41.3136 20.6007,41.19885 C20.3187,41.08485 20.0727,40.9416 19.8627,40.76685 L20.2317,40.27185 Z" id="Fill-44" fill="#7A7A7A"></path>
                <path d="M24.2007,37.49085 L23.5527,37.49085 L23.5527,36.93285 L24.2367,36.88785 L24.3267,35.66385 L24.9477,35.66385 L24.9477,36.88785 L26.1267,36.88785 L26.1267,37.49085 L24.9477,37.49085 L24.9477,39.92085 C24.9477,40.1916 24.9972,40.39935 25.0962,40.54635 C25.1952,40.6941 25.3707,40.76685 25.6227,40.76685 C25.7007,40.76685 25.7847,40.7556 25.87395,40.73085 C25.9647,40.70685 26.0457,40.6806 26.1177,40.64985 L26.2617,41.20785 C26.1417,41.2506 26.0112,41.28735 25.8702,41.32035 C25.7292,41.35335 25.5897,41.36985 25.4517,41.36985 C25.21695,41.36985 25.0212,41.33385 24.8622,41.26185 C24.7032,41.1906 24.5742,41.0916 24.4752,40.96485 C24.3762,40.83885 24.3057,40.6866 24.2637,40.5066 C24.2217,40.32585 24.2007,40.1286 24.2007,39.9126 L24.2007,37.49085 Z" id="Fill-45" fill="#7A7A7A"></path>
                <path d="M28.2144,36.888075 L28.98015,36.888075 L29.8074,39.372825 C29.8734,39.588075 29.9409,39.804075 30.01065,40.020075 C30.0789,40.236075 30.1464,40.449075 30.2124,40.659075 L30.2484,40.659075 C30.3144,40.449075 30.3804,40.236075 30.44715,40.020075 C30.5124,39.804075 30.5784,39.588075 30.6444,39.372825 L31.4724,36.888075 L32.2014,36.888075 L30.6534,41.262075 L29.79015,41.262075 L28.2144,36.888075 Z" id="Fill-46" fill="#7A7A7A"></path>
                <path d="M33.335475,40.074075 C33.335475,40.326075 33.409725,40.506075 33.555975,40.614075 C33.702975,40.722075 33.884475,40.776075 34.101225,40.776075 C34.310475,40.776075 34.509975,40.726575 34.698975,40.627575 C34.887975,40.528575 35.087475,40.383075 35.297475,40.191075 L35.297475,38.976075 C34.931475,39.024825 34.622475,39.081075 34.370475,39.147075 C34.118475,39.213825 33.915975,39.291075 33.762975,39.381075 C33.609975,39.471075 33.500475,39.574575 33.434475,39.691575 C33.368475,39.808575 33.335475,39.936075 33.335475,40.074075 M32.606475,40.128075 C32.606475,39.648075 32.820975,39.280575 33.250725,39.025575 C33.678975,38.770575 34.361475,38.592075 35.297475,38.490075 C35.297475,38.352075 35.284725,38.217075 35.257725,38.085075 C35.229975,37.953075 35.181975,37.836075 35.112975,37.734075 C35.043975,37.632075 34.952475,37.549575 34.838475,37.486575 C34.725225,37.423575 34.577475,37.392075 34.397475,37.392075 C34.139475,37.392075 33.900975,37.440075 33.681975,37.536075 C33.462975,37.632075 33.266475,37.740075 33.093225,37.860075 L32.795475,37.347075 C32.999475,37.215075 33.248475,37.087575 33.542475,36.964575 C33.836475,36.841575 34.161225,36.780075 34.514475,36.780075 C35.048475,36.780075 35.435475,36.943575 35.675475,37.270575 C35.915475,37.597575 36.036225,38.034075 36.036225,38.580075 L36.036225,41.262075 L35.423475,41.262075 L35.360475,40.740075 L35.343225,40.740075 C35.132475,40.914075 34.906725,41.062575 34.663725,41.185575 C34.419975,41.308575 34.163475,41.370075 33.893475,41.370075 C33.521475,41.370075 33.213975,41.262075 32.971725,41.046075 C32.727975,40.830075 32.606475,40.524075 32.606475,40.128075" id="Fill-47" fill="#7A7A7A"></path>
                <path d="M37.385775,34.85415 L38.123025,34.85415 L38.123025,40.43415 C38.123025,40.55415 38.144775,40.63815 38.186025,40.68615 C38.228775,40.73415 38.276025,40.75815 38.330775,40.75815 L38.398275,40.75815 C38.419275,40.75815 38.450775,40.75215 38.492775,40.74015 L38.591025,41.29815 C38.543775,41.32215 38.486775,41.3394 38.420775,41.35215 C38.354775,41.36415 38.270775,41.37015 38.168775,41.37015 C37.886775,41.37015 37.685025,41.28615 37.565775,41.11815 C37.445775,40.95015 37.385775,40.70415 37.385775,40.38015 L37.385775,34.85415 Z" id="Fill-48" fill="#7A7A7A"></path>
                <path d="M39.572025,36.888075 L40.319025,36.888075 L40.319025,39.561075 C40.319025,39.975075 40.383525,40.273575 40.512525,40.456575 C40.642275,40.639575 40.850025,40.731075 41.138025,40.731075 C41.366775,40.731075 41.567025,40.672575 41.741775,40.555575 C41.915025,40.438575 42.107025,40.251075 42.317025,39.993075 L42.317025,36.888075 L43.055775,36.888075 L43.055775,41.262075 L42.443025,41.262075 L42.380025,40.578075 L42.353025,40.578075 C42.149775,40.818075 41.934525,41.010075 41.710275,41.154075 C41.485275,41.298075 41.219025,41.370075 40.913025,41.370075 C40.445025,41.370075 40.104525,41.226075 39.892275,40.938075 C39.679275,40.650075 39.572025,40.224075 39.572025,39.660075 L39.572025,36.888075 Z" id="Fill-49" fill="#7A7A7A"></path>
                <path d="M47.222175,38.751375 C47.222175,38.300625 47.127675,37.957125 46.938675,37.720875 C46.749675,37.483875 46.484925,37.364625 46.142925,37.364625 C45.986925,37.364625 45.837675,37.396125 45.697425,37.459125 C45.555675,37.522125 45.428175,37.612125 45.314175,37.729875 C45.200925,37.846875 45.106425,37.990125 45.030675,38.161875 C44.956425,38.332125 44.906175,38.529375 44.882925,38.751375 L47.222175,38.751375 Z M44.162175,39.083625 C44.162175,38.724375 44.217675,38.401875 44.329425,38.116125 C44.439675,37.831125 44.586675,37.589625 44.769675,37.392375 C44.953425,37.194375 45.161175,37.042875 45.395175,36.937875 C45.629175,36.832125 45.872175,36.780375 46.124175,36.780375 C46.400175,36.780375 46.647675,36.828375 46.866675,36.923625 C47.085675,37.019625 47.268675,37.158375 47.416425,37.337625 C47.562675,37.517625 47.675175,37.734375 47.753175,37.985625 C47.831175,38.237625 47.870175,38.519625 47.870175,38.831625 C47.870175,38.993625 47.861925,39.129375 47.843175,39.236625 L44.891925,39.236625 C44.921925,39.710625 45.066675,40.085625 45.328425,40.361625 C45.588675,40.638375 45.929175,40.775625 46.349175,40.775625 C46.559175,40.775625 46.752675,40.744125 46.929675,40.681125 C47.107425,40.618125 47.276175,40.536375 47.438175,40.434375 L47.699925,40.920375 C47.507175,41.040375 47.294925,41.144625 47.060175,41.235375 C46.826925,41.325375 46.559175,41.369625 46.259925,41.369625 C45.965175,41.369625 45.690675,41.317875 45.435675,41.212125 C45.180675,41.107875 44.958675,40.957125 44.769675,40.762875 C44.581425,40.567875 44.432175,40.329375 44.324925,40.047375 C44.216175,39.765375 44.162175,39.444375 44.162175,39.083625 L44.162175,39.083625 Z" id="Fill-50" fill="#7A7A7A"></path>
                <path d="M48.7881,40.27185 C48.9801,40.42785 49.1766,40.55385 49.3776,40.64985 C49.5786,40.7466 49.8111,40.79385 50.0751,40.79385 C50.36385,40.79385 50.5791,40.72785 50.7231,40.5966 C50.8671,40.4646 50.9391,40.30185 50.9391,40.10985 C50.9391,39.9966 50.9091,39.89685 50.8491,39.8136 C50.7891,39.72885 50.7126,39.6561 50.6196,39.5931 C50.5266,39.5301 50.4201,39.4746 50.30085,39.42585 C50.1801,39.3786 50.0601,39.32985 49.9401,39.2826 C49.7841,39.22785 49.6281,39.16635 49.4721,39.0981 C49.3161,39.0291 49.1766,38.94435 49.0536,38.8461 C48.9306,38.7471 48.8301,38.63085 48.7521,38.4996 C48.6741,38.36685 48.6351,38.20785 48.6351,38.02185 C48.6351,37.8486 48.6696,37.6851 48.73935,37.5321 C48.8076,37.3791 48.9066,37.2471 49.0356,37.13535 C49.1646,37.02435 49.3221,36.9381 49.5081,36.8751 C49.6941,36.8121 49.9041,36.7806 50.1381,36.7806 C50.4141,36.7806 50.6676,36.82785 50.8986,36.92385 C51.1296,37.01985 51.3291,37.13685 51.4971,37.27485 L51.14685,37.74285 C50.9961,37.6296 50.8401,37.5366 50.67885,37.46385 C50.5161,37.39185 50.3391,37.35585 50.1471,37.35585 C49.8711,37.35585 49.6686,37.41885 49.5396,37.54485 C49.4106,37.67085 49.3461,37.8186 49.3461,37.98585 C49.3461,38.0886 49.3731,38.17635 49.42785,38.2521 C49.4811,38.32635 49.55385,38.39235 49.6431,38.44935 C49.7331,38.50635 49.8366,38.55735 49.9536,38.60235 C50.0706,38.64735 50.1921,38.69385 50.3181,38.74185 C50.4741,38.80185 50.6316,38.86485 50.7906,38.93085 C50.9496,38.9976 51.0921,39.07935 51.2181,39.17835 C51.3441,39.27735 51.4476,39.39885 51.5286,39.54285 C51.6096,39.6876 51.6501,39.86085 51.6501,40.0656 C51.6501,40.24485 51.6156,40.41285 51.5466,40.56885 C51.4776,40.72485 51.3756,40.86285 51.24135,40.98285 C51.1056,41.10285 50.9376,41.19735 50.7366,41.26635 C50.5356,41.33535 50.3061,41.36985 50.0481,41.36985 C49.7361,41.36985 49.4391,41.3136 49.1571,41.19885 C48.8751,41.08485 48.6291,40.9416 48.4191,40.76685 L48.7881,40.27185 Z" id="Fill-51" fill="#7A7A7A"></path>
                <polygon id="Fill-52" fill="#7A7A7A" points="164.385525 33.858075 165.132525 33.858075 165.132525 36.333075 167.877525 36.333075 167.877525 33.858075 168.633525 33.858075 168.633525 39.762075 167.877525 39.762075 167.877525 36.981075 165.132525 36.981075 165.132525 39.762075 164.385525 39.762075"></polygon>
                <path d="M170.136525,39.7617 L170.874525,39.7617 L170.874525,35.3877 L170.136525,35.3877 L170.136525,39.7617 Z M170.514525,34.4877 C170.370525,34.4877 170.249025,34.44345 170.150025,34.35345 C170.051775,34.2627 170.001525,34.14945 170.001525,34.01145 C170.001525,33.8667 170.051775,33.75195 170.150025,33.66495 C170.249025,33.5772 170.370525,33.53445 170.514525,33.53445 C170.658525,33.53445 170.779275,33.5772 170.879025,33.66495 C170.978025,33.75195 171.026775,33.8667 171.026775,34.01145 C171.026775,34.14945 170.978025,34.2627 170.879025,34.35345 C170.779275,34.44345 170.658525,34.4877 170.514525,34.4877 L170.514525,34.4877 Z" id="Fill-53" fill="#7A7A7A"></path>
                <path d="M173.78175,37.881225 C173.90775,37.881225 174.0255,37.857225 174.13725,37.809225 C174.24825,37.761225 174.34725,37.692225 174.43425,37.602225 C174.5205,37.512225 174.588,37.402725 174.63675,37.272975 C174.68475,37.144725 174.708,36.999225 174.708,36.836475 C174.708,36.513225 174.61875,36.262725 174.43875,36.084975 C174.25875,35.908725 174.03975,35.820225 173.78175,35.820225 C173.523,35.820225 173.30475,35.908725 173.12475,36.084975 C172.94475,36.262725 172.85475,36.513225 172.85475,36.836475 C172.85475,36.999225 172.87875,37.144725 172.92675,37.272975 C172.97475,37.402725 173.04225,37.512225 173.12925,37.602225 C173.2155,37.692225 173.31525,37.761225 173.42625,37.809225 C173.53725,37.857225 173.65575,37.881225 173.78175,37.881225 M172.62075,40.500225 C172.62075,40.734225 172.734,40.920225 172.9575,41.057475 C173.18325,41.196225 173.49375,41.265225 173.88975,41.265225 C174.09975,41.265225 174.29025,41.239725 174.4605,41.188725 C174.63225,41.137725 174.777,41.071725 174.897,40.990725 C175.017,40.909725 175.11,40.815225 175.17675,40.707225 C175.24275,40.599225 175.275,40.488225 175.275,40.374225 C175.275,40.170225 175.20075,40.028475 175.05075,39.951225 C174.9,39.872475 174.68175,39.834225 174.393,39.834225 L173.63775,39.834225 C173.55375,39.834225 173.4615,39.829725 173.36325,39.820725 C173.26425,39.811725 173.16675,39.792225 173.07075,39.762225 C172.91475,39.876225 172.80075,39.995475 172.72875,40.122225 C172.65675,40.248225 172.62075,40.374225 172.62075,40.500225 M171.97275,40.599225 C171.97275,40.413225 172.029,40.236225 172.143,40.068225 C172.25775,39.899475 172.41375,39.747225 172.61175,39.609225 L172.61175,39.573225 C172.50375,39.507225 172.41225,39.415725 172.3365,39.298725 C172.26225,39.180975 172.22475,39.036225 172.22475,38.862225 C172.22475,38.676225 172.275,38.514225 172.37775,38.376225 C172.47975,38.238225 172.587,38.130225 172.70175,38.052225 L172.70175,38.016225 C172.55775,37.896225 172.42725,37.735725 172.31025,37.534725 C172.19325,37.333725 172.13475,37.101225 172.13475,36.836475 C172.13475,36.597225 172.17825,36.381225 172.26525,36.189225 C172.35225,35.997225 172.47075,35.833725 172.62075,35.698725 C172.77,35.563725 172.94625,35.459475 173.1465,35.388225 C173.34825,35.316225 173.55975,35.280225 173.78175,35.280225 C173.901,35.280225 174.01425,35.290725 174.11925,35.311725 C174.22425,35.332725 174.31875,35.358225 174.402,35.388225 L175.92375,35.388225 L175.92375,35.955225 L175.023,35.955225 C175.12575,36.057225 175.2105,36.186225 175.28025,36.342225 C175.34925,36.498225 175.38375,36.669225 175.38375,36.855225 C175.38375,37.088475 175.341,37.300725 175.25775,37.489725 C175.17375,37.677975 175.05975,37.836975 174.91575,37.966725 C174.771,38.095725 174.60225,38.196225 174.40725,38.268225 C174.2115,38.339475 174.00375,38.376225 173.78175,38.376225 C173.67375,38.376225 173.56275,38.362725 173.44875,38.334975 C173.334,38.307975 173.22675,38.271225 173.12475,38.223225 C173.0475,38.289225 172.98075,38.362725 172.92675,38.443725 C172.87275,38.523975 172.84575,38.625225 172.84575,38.744475 C172.84575,38.883225 172.899,38.997225 173.00775,39.086475 C173.11575,39.177225 173.31975,39.222225 173.61975,39.222225 L174.465,39.222225 C174.97575,39.222225 175.35825,39.303975 175.61325,39.469725 C175.86825,39.634725 175.99575,39.899475 175.99575,40.266225 C175.99575,40.470225 175.94475,40.663725 175.84275,40.846725 C175.74075,41.028975 175.59375,41.190225 175.401,41.328225 C175.209,41.465475 174.97725,41.575725 174.7035,41.656725 C174.43125,41.737725 174.12375,41.778225 173.78175,41.778225 C173.51175,41.778225 173.26575,41.752725 173.04375,41.701725 C172.82175,41.649975 172.63125,41.574225 172.47225,41.472225 C172.31325,41.369475 172.19025,41.247225 172.10325,41.103225 C172.01625,40.959225 171.97275,40.791225 171.97275,40.599225" id="Fill-54" fill="#7A7A7A"></path>
                <path d="M176.796375,33.35415 L177.533625,33.35415 L177.533625,35.10015 L177.507375,36.00015 C177.717375,35.80215 177.937125,35.63265 178.164375,35.49165 C178.392375,35.35065 178.658625,35.28015 178.965375,35.28015 C179.427375,35.28015 179.764875,35.42415 179.977875,35.71215 C180.190875,36.00015 180.297375,36.42615 180.297375,36.99015 L180.297375,39.76215 L179.560125,39.76215 L179.560125,37.0884 C179.560125,36.67515 179.494125,36.37665 179.361375,36.19365 C179.229375,36.01065 179.019375,35.91915 178.731375,35.91915 C178.503375,35.91915 178.302375,35.97615 178.128375,36.0894 C177.954375,36.20415 177.756375,36.37215 177.533625,36.59415 L177.533625,39.76215 L176.796375,39.76215 L176.796375,33.35415 Z" id="Fill-55" fill="#7A7A7A"></path>
                <path d="M184.383525,37.251375 C184.383525,36.800625 184.289025,36.457125 184.100025,36.220875 C183.911025,35.983875 183.645525,35.864625 183.304275,35.864625 C183.147525,35.864625 182.999025,35.896125 182.858775,35.959125 C182.717025,36.022125 182.588775,36.112125 182.475525,36.229875 C182.362275,36.346875 182.267025,36.490125 182.192025,36.661875 C182.117775,36.832125 182.067525,37.029375 182.044275,37.251375 L184.383525,37.251375 Z M181.323525,37.583625 C181.323525,37.224375 181.379025,36.901875 181.490775,36.616125 C181.601025,36.331125 181.748025,36.089625 181.931025,35.892375 C182.114775,35.694375 182.322525,35.542875 182.556525,35.437875 C182.790525,35.332125 183.033525,35.280375 183.285525,35.280375 C183.561525,35.280375 183.809025,35.328375 184.028025,35.423625 C184.247025,35.519625 184.430025,35.658375 184.577025,35.837625 C184.724025,36.017625 184.836525,36.234375 184.914525,36.485625 C184.992525,36.737625 185.031525,37.019625 185.031525,37.331625 C185.031525,37.493625 185.022525,37.629375 185.004525,37.736625 L182.053275,37.736625 C182.082525,38.210625 182.228025,38.585625 182.489775,38.861625 C182.750025,39.138375 183.089775,39.275625 183.510525,39.275625 C183.720525,39.275625 183.914025,39.244125 184.091025,39.181125 C184.268025,39.118125 184.437525,39.036375 184.599525,38.934375 L184.861275,39.420375 C184.668525,39.540375 184.455525,39.644625 184.221525,39.735375 C183.988275,39.825375 183.720525,39.869625 183.421275,39.869625 C183.126525,39.869625 182.852025,39.817875 182.597025,39.712125 C182.341275,39.607875 182.120025,39.457125 181.931025,39.262875 C181.742775,39.067875 181.593525,38.829375 181.486275,38.547375 C181.377525,38.265375 181.323525,37.944375 181.323525,37.583625 L181.323525,37.583625 Z" id="Fill-56" fill="#7A7A7A"></path>
                <path d="M185.94945,38.77185 C186.14145,38.92785 186.33795,39.05385 186.5382,39.14985 C186.73995,39.2466 186.9717,39.29385 187.23645,39.29385 C187.52445,39.29385 187.74045,39.22785 187.88445,39.0966 C188.0277,38.9646 188.0997,38.80185 188.0997,38.60985 C188.0997,38.4966 188.07045,38.39685 188.01045,38.3136 C187.95045,38.22885 187.87395,38.1561 187.7802,38.0931 C187.68795,38.0301 187.58145,37.9746 187.46145,37.92585 C187.3407,37.8786 187.2207,37.82985 187.1007,37.7826 C186.94545,37.72785 186.7887,37.66635 186.63345,37.5981 C186.4767,37.5291 186.33795,37.44435 186.21495,37.3461 C186.0912,37.2471 185.99145,37.13085 185.9127,36.9996 C185.83545,36.86685 185.79645,36.70785 185.79645,36.52185 C185.79645,36.3486 185.83095,36.1851 185.89995,36.0321 C185.9682,35.8791 186.06795,35.7471 186.19695,35.63535 C186.32595,35.52435 186.48345,35.4381 186.66945,35.3751 C186.8547,35.3121 187.06545,35.2806 187.29945,35.2806 C187.57545,35.2806 187.82895,35.32785 188.05995,35.42385 C188.2902,35.51985 188.49045,35.63685 188.6577,35.77485 L188.3082,36.24285 C188.1567,36.1296 188.00145,36.0366 187.83945,35.96385 C187.67745,35.89185 187.50045,35.85585 187.30845,35.85585 C187.0317,35.85585 186.82995,35.91885 186.70095,36.04485 C186.57195,36.17085 186.50745,36.3186 186.50745,36.48585 C186.50745,36.5886 186.5337,36.67635 186.58845,36.7521 C186.64245,36.82635 186.71445,36.89235 186.80445,36.94935 C186.89445,37.00635 186.99795,37.05735 187.11495,37.10235 C187.23195,37.14735 187.35345,37.19385 187.47945,37.24185 C187.63545,37.30185 187.79295,37.36485 187.95195,37.43085 C188.11095,37.4976 188.25345,37.57935 188.37945,37.67835 C188.50545,37.77735 188.60895,37.89885 188.68995,38.04285 C188.77095,38.1876 188.81145,38.36085 188.81145,38.5656 C188.81145,38.74485 188.77695,38.91285 188.70795,39.06885 C188.63895,39.22485 188.5362,39.36285 188.40195,39.48285 C188.26695,39.60285 188.0982,39.69735 187.89795,39.76635 C187.69695,39.83535 187.4667,39.86985 187.20945,39.86985 C186.89745,39.86985 186.5997,39.8136 186.31845,39.69885 C186.0357,39.58485 185.7897,39.4416 185.58045,39.26685 L185.94945,38.77185 Z" id="Fill-57" fill="#7A7A7A"></path>
                <path d="M189.9177,35.99085 L189.27045,35.99085 L189.27045,35.43285 L189.95445,35.38785 L190.0437,34.16385 L190.6647,34.16385 L190.6647,35.38785 L191.8437,35.38785 L191.8437,35.99085 L190.6647,35.99085 L190.6647,38.42085 C190.6647,38.6916 190.7142,38.89935 190.81395,39.04635 C190.9122,39.1941 191.08845,39.26685 191.3397,39.26685 C191.4177,39.26685 191.50245,39.2556 191.5917,39.23085 C191.68245,39.20685 191.76345,39.1806 191.83545,39.14985 L191.9787,39.70785 C191.8587,39.7506 191.7282,39.78735 191.58795,39.82035 C191.44695,39.85335 191.30745,39.86985 191.1687,39.86985 C190.9347,39.86985 190.73895,39.83385 190.57995,39.76185 C190.4202,39.6906 190.2912,39.5916 190.19295,39.46485 C190.0932,39.33885 190.02345,39.1866 189.9807,39.0066 C189.93945,38.82585 189.9177,38.6286 189.9177,38.4126 L189.9177,35.99085 Z" id="Fill-58" fill="#7A7A7A"></path>
                <path d="M193.93215,35.388075 L194.6979,35.388075 L195.52515,37.872825 C195.59115,38.088075 195.65865,38.304075 195.72765,38.520075 C195.7959,38.736075 195.8634,38.949075 195.93015,39.159075 L195.96615,39.159075 C196.03215,38.949075 196.09815,38.736075 196.16415,38.520075 C196.2294,38.304075 196.2954,38.088075 196.3614,37.872825 L197.19015,35.388075 L197.9184,35.388075 L196.37115,39.762075 L195.5079,39.762075 L193.93215,35.388075 Z" id="Fill-59" fill="#7A7A7A"></path>
                <path d="M199.053225,38.574075 C199.053225,38.826075 199.127475,39.006075 199.273725,39.114075 C199.419975,39.222075 199.601475,39.276075 199.818975,39.276075 C200.028225,39.276075 200.226975,39.226575 200.415975,39.127575 C200.604975,39.028575 200.805225,38.883075 201.015225,38.691075 L201.015225,37.476075 C200.649225,37.524825 200.340225,37.581075 200.088225,37.647075 C199.836225,37.713825 199.633725,37.791075 199.479975,37.881075 C199.327725,37.971075 199.218225,38.074575 199.152225,38.191575 C199.086225,38.308575 199.053225,38.436075 199.053225,38.574075 M198.324225,38.628075 C198.324225,38.148075 198.537975,37.780575 198.967725,37.525575 C199.396725,37.270575 200.079225,37.092075 201.015225,36.990075 C201.015225,36.852075 201.002475,36.717075 200.974725,36.585075 C200.947725,36.453075 200.899725,36.336075 200.830725,36.234075 C200.761725,36.132075 200.669475,36.049575 200.556225,35.986575 C200.442975,35.923575 200.295225,35.892075 200.115225,35.892075 C199.856475,35.892075 199.618725,35.940075 199.399725,36.036075 C199.180725,36.132075 198.984225,36.240075 198.810975,36.360075 L198.513225,35.847075 C198.717225,35.715075 198.966225,35.587575 199.260225,35.464575 C199.554225,35.341575 199.878975,35.280075 200.232225,35.280075 C200.766225,35.280075 201.153225,35.443575 201.393225,35.770575 C201.633225,36.097575 201.753975,36.534075 201.753975,37.080075 L201.753975,39.762075 L201.141225,39.762075 L201.078225,39.240075 L201.060975,39.240075 C200.850225,39.414075 200.624475,39.562575 200.381475,39.685575 C200.137725,39.808575 199.881225,39.870075 199.611225,39.870075 C199.239225,39.870075 198.931725,39.762075 198.689475,39.546075 C198.445725,39.330075 198.324225,39.024075 198.324225,38.628075" id="Fill-60" fill="#7A7A7A"></path>
                <path d="M203.102775,33.35415 L203.840775,33.35415 L203.840775,38.93415 C203.840775,39.05415 203.862525,39.13815 203.903775,39.18615 C203.946525,39.23415 203.993775,39.25815 204.048525,39.25815 L204.116025,39.25815 C204.137025,39.25815 204.167775,39.25215 204.210525,39.24015 L204.308775,39.79815 C204.261525,39.82215 204.204525,39.8394 204.138525,39.85215 C204.072525,39.86415 203.988525,39.87015 203.886525,39.87015 C203.603775,39.87015 203.402775,39.78615 203.282775,39.61815 C203.162775,39.45015 203.102775,39.20415 203.102775,38.88015 L203.102775,33.35415 Z" id="Fill-61" fill="#7A7A7A"></path>
                <path d="M205.289775,35.388075 L206.036775,35.388075 L206.036775,38.061075 C206.036775,38.475075 206.101275,38.773575 206.230275,38.956575 C206.360025,39.139575 206.568525,39.231075 206.855775,39.231075 C207.084525,39.231075 207.284775,39.172575 207.459525,39.055575 C207.633525,38.938575 207.825525,38.751075 208.034775,38.493075 L208.034775,35.388075 L208.773525,35.388075 L208.773525,39.762075 L208.160775,39.762075 L208.097775,39.078075 L208.071525,39.078075 C207.867525,39.318075 207.652275,39.510075 207.428025,39.654075 C207.203025,39.798075 206.937525,39.870075 206.631525,39.870075 C206.162775,39.870075 205.823025,39.726075 205.610025,39.438075 C205.397025,39.150075 205.289775,38.724075 205.289775,38.160075 L205.289775,35.388075 Z" id="Fill-62" fill="#7A7A7A"></path>
                <path d="M212.939925,37.251375 C212.939925,36.800625 212.845425,36.457125 212.656425,36.220875 C212.467425,35.983875 212.202675,35.864625 211.859925,35.864625 C211.704675,35.864625 211.554675,35.896125 211.414425,35.959125 C211.273425,36.022125 211.145925,36.112125 211.031925,36.229875 C210.917925,36.346875 210.824175,36.490125 210.748425,36.661875 C210.673425,36.832125 210.623925,37.029375 210.599925,37.251375 L212.939925,37.251375 Z M209.879925,37.583625 C209.879925,37.224375 209.935425,36.901875 210.046425,36.616125 C210.157425,36.331125 210.303675,36.089625 210.486675,35.892375 C210.670425,35.694375 210.878925,35.542875 211.112175,35.437875 C211.346925,35.332125 211.589925,35.280375 211.841925,35.280375 C212.117175,35.280375 212.364675,35.328375 212.584425,35.423625 C212.802675,35.519625 212.986425,35.658375 213.134175,35.837625 C213.280425,36.017625 213.392925,36.234375 213.470925,36.485625 C213.548925,36.737625 213.587925,37.019625 213.587925,37.331625 C213.587925,37.493625 213.579675,37.629375 213.560925,37.736625 L210.608925,37.736625 C210.639675,38.210625 210.784425,38.585625 211.045425,38.861625 C211.306425,39.138375 211.646925,39.275625 212.066925,39.275625 C212.276925,39.275625 212.470425,39.244125 212.647425,39.181125 C212.825175,39.118125 212.993925,39.036375 213.155925,38.934375 L213.416925,39.420375 C213.224925,39.540375 213.012675,39.644625 212.777925,39.735375 C212.543925,39.825375 212.276925,39.869625 211.976925,39.869625 C211.682925,39.869625 211.408425,39.817875 211.153425,39.712125 C210.898425,39.607875 210.675675,39.457125 210.486675,39.262875 C210.298425,39.067875 210.149925,38.829375 210.041925,38.547375 C209.933925,38.265375 209.879925,37.944375 209.879925,37.583625 L209.879925,37.583625 Z" id="Fill-63" fill="#7A7A7A"></path>
                <path d="M214.5066,38.77185 C214.6986,38.92785 214.8951,39.05385 215.09535,39.14985 C215.29635,39.2466 215.52885,39.29385 215.79285,39.29385 C216.0816,39.29385 216.29685,39.22785 216.4416,39.0966 C216.58485,38.9646 216.65685,38.80185 216.65685,38.60985 C216.65685,38.4966 216.62685,38.39685 216.5676,38.3136 C216.5076,38.22885 216.43035,38.1561 216.33735,38.0931 C216.24435,38.0301 216.1386,37.9746 216.0186,37.92585 C215.89785,37.8786 215.77785,37.82985 215.65785,37.7826 C215.50185,37.72785 215.34585,37.66635 215.1906,37.5981 C215.03385,37.5291 214.8951,37.44435 214.7721,37.3461 C214.64835,37.2471 214.54785,37.13085 214.46985,36.9996 C214.3926,36.86685 214.35285,36.70785 214.35285,36.52185 C214.35285,36.3486 214.3881,36.1851 214.4571,36.0321 C214.52535,35.8791 214.62435,35.7471 214.7541,35.63535 C214.8831,35.52435 215.03985,35.4381 215.22585,35.3751 C215.41185,35.3121 215.62185,35.2806 215.85585,35.2806 C216.1326,35.2806 216.3861,35.32785 216.61635,35.42385 C216.84735,35.51985 217.04685,35.63685 217.21485,35.77485 L216.8646,36.24285 C216.71385,36.1296 216.55785,36.0366 216.3966,35.96385 C216.23385,35.89185 216.05685,35.85585 215.8656,35.85585 C215.58885,35.85585 215.3871,35.91885 215.2581,36.04485 C215.12835,36.17085 215.06385,36.3186 215.06385,36.48585 C215.06385,36.5886 215.09085,36.67635 215.1456,36.7521 C215.1996,36.82635 215.2716,36.89235 215.36085,36.94935 C215.4516,37.00635 215.55435,37.05735 215.67135,37.10235 C215.78835,37.14735 215.90985,37.19385 216.03585,37.24185 C216.1926,37.30185 216.34935,37.36485 216.5091,37.43085 C216.66735,37.4976 216.80985,37.57935 216.93585,37.67835 C217.06185,37.77735 217.16535,37.89885 217.24635,38.04285 C217.3281,38.1876 217.36785,38.36085 217.36785,38.5656 C217.36785,38.74485 217.3341,38.91285 217.2651,39.06885 C217.1961,39.22485 217.09335,39.36285 216.9591,39.48285 C216.8241,39.60285 216.65535,39.69735 216.4551,39.76635 C216.25335,39.83535 216.02385,39.86985 215.7666,39.86985 C215.4546,39.86985 215.15685,39.8136 214.87485,39.69885 C214.59285,39.58485 214.34685,39.4416 214.1376,39.26685 L214.5066,38.77185 Z" id="Fill-64" fill="#7A7A7A"></path>
                <line x1="0.375" y1="30.2208" x2="0.375" y2="29.3298" id="Stroke-65" stroke="#AAAAAA" stroke-width="0.594" stroke-linecap="round"></line>
                <line x1="0.375" y1="27.4332" x2="0.375" y2="1.8387" id="Stroke-66" stroke="#AAAAAA" stroke-width="0.594" stroke-linecap="round" stroke-dasharray="1.8960000872612,1.8960000872612"></line>
                <line x1="0.375" y1="0.891" x2="0.375" y2="3.73034936e-14" id="Stroke-67" stroke="#AAAAAA" stroke-width="0.594" stroke-linecap="round"></line>
                <line x1="44.808825" y1="30.2208" x2="44.808825" y2="29.3298" id="Stroke-68" stroke="#AAAAAA" stroke-width="0.594" stroke-linecap="round"></line>
                <line x1="44.808825" y1="27.4332" x2="44.808825" y2="1.8387" id="Stroke-69" stroke="#AAAAAA" stroke-width="0.594" stroke-linecap="round" stroke-dasharray="1.8960000872612,1.8960000872612"></line>
                <line x1="44.808825" y1="0.891" x2="44.808825" y2="3.73034936e-14" id="Stroke-70" stroke="#AAAAAA" stroke-width="0.594" stroke-linecap="round"></line>
                <line x1="236.87475" y1="30.2208" x2="236.87475" y2="29.3298" id="Stroke-71" stroke="#AAAAAA" stroke-width="0.594" stroke-linecap="round"></line>
                <line x1="236.87475" y1="27.4332" x2="236.87475" y2="1.8387" id="Stroke-72" stroke="#AAAAAA" stroke-width="0.594" stroke-linecap="round" stroke-dasharray="1.8960000872612,1.8960000872612"></line>
                <line x1="236.87475" y1="0.891" x2="236.87475" y2="3.73034936e-14" id="Stroke-73" stroke="#AAAAAA" stroke-width="0.594" stroke-linecap="round"></line>
                <line x1="142.121325" y1="30.2208" x2="142.121325" y2="29.3298" id="Stroke-74" stroke="#AAAAAA" stroke-width="0.594" stroke-linecap="round"></line>
                <line x1="142.121325" y1="27.4332" x2="142.121325" y2="1.8387" id="Stroke-75" stroke="#AAAAAA" stroke-width="0.594" stroke-linecap="round" stroke-dasharray="1.8960000872612,1.8960000872612"></line>
                <line x1="142.121325" y1="0.891" x2="142.121325" y2="3.73034936e-14" id="Stroke-76" stroke="#AAAAAA" stroke-width="0.594" stroke-linecap="round"></line>
            </g>
        </g>
    </g>
</svg>