<?xml version="1.0" encoding="UTF-8"?>
<svg width="304px" height="75px" viewBox="0 0 304 75" version="1.1" xmlns="http://www.w3.org/2000/svg" xmlns:xlink="http://www.w3.org/1999/xlink">
    <!-- Generator: Sketch 59.1 (86144) - https://sketch.com -->
    <title>Group 44</title>
    <desc>Created with Sketch.</desc>
    <defs>
        <polygon id="path-1" points="0 0.381375 5.261175 0.381375 5.261175 7.5 0 7.5"></polygon>
        <polygon id="path-3" points="0 7.8691425 95.32875 7.8691425 95.32875 0.7501425 0 0.7501425"></polygon>
        <polygon id="path-5" points="0 0.5355 4.2945 0.5355 4.2945 7.485975 0 7.485975"></polygon>
        <polygon id="path-7" points="0.00015 0 8.985 0 8.985 20.2497 0.00015 20.2497"></polygon>
        <polygon id="path-9" points="0 0.375 0.749925 0.375 0.749925 26.625 0 26.625"></polygon>
        <polygon id="path-11" points="0 0.489 9.46357378 0.489 9.46357378 13.1199907 0 13.1199907"></polygon>
    </defs>
    <g id="Desktop" stroke="none" stroke-width="1" fill="none" fill-rule="evenodd">
        <g id="Homelessness-Section-3-4" transform="translate(-847.000000, -2122.000000)">
            <g id="Group-4" transform="translate(847.000000, 2122.000000)">
                <g id="Group-68" transform="translate(0.750000, 15.000000)">
                    <polygon id="Fill-1" fill="#E0E0E0" points="0.75675 19.32015 297.75675 19.32015 297.75675 9.57015 0.75675 9.57015"></polygon>
                    <line x1="0.756525" y1="27.325125" x2="0.756525" y2="0.324375" id="Stroke-2" stroke="#D1D1D1" stroke-width="0.75" stroke-linecap="round"></line>
                    <line x1="75.006525" y1="27.19545" x2="75.006525" y2="0.94545" id="Stroke-3" stroke="#D1D1D1" stroke-width="0.75" stroke-linecap="round"></line>
                    <line x1="149.256525" y1="27.325125" x2="149.256525" y2="1.075125" id="Stroke-4" stroke="#D1D1D1" stroke-width="0.75" stroke-linecap="round"></line>
                    <line x1="223.506525" y1="27.325125" x2="223.506525" y2="1.075125" id="Stroke-5" stroke="#D1D1D1" stroke-width="0.75" stroke-linecap="round"></line>
                    <text id="-" font-family="SourceSansPro-Regular, Source Sans Pro" font-size="9" font-weight="normal"></text>
                    <g id="Group-67" transform="translate(3.000000, 26.450400)">
                        <line x1="3.752175" y1="19.12005" x2="3.752175" y2="3.0408" id="Stroke-60" stroke="#636363" stroke-width="1.5" stroke-linecap="round"></line>
                        <path d="M3.752175,3.342225 C2.968425,4.125975 1.418925,4.499475 0.343425,4.530225 C1.787175,3.455475 3.046425,2.059725 3.752175,0.369975 C4.427925,2.059725 5.763675,3.393975 7.160925,4.530225 C6.009675,4.437975 4.611675,4.156725 3.752175,3.342225" id="Fill-62" fill="#636363"></path>
                    </g>
                </g>
                <g id="Group-30" transform="translate(0.000000, 66.750000)">
                    <g id="Group-3" transform="translate(0.000000, 0.369143)">
                        <mask id="mask-2" fill="white">
                            <use xlink:href="#path-1"></use>
                        </mask>
                        <g id="Clip-2"></g>
                        <path d="M-7.5e-05,3.961875 C-7.5e-05,3.401625 0.081675,2.899875 0.247425,2.455125 C0.411675,2.010375 0.637425,1.633875 0.923925,1.325625 C1.211175,1.018125 1.547175,0.784125 1.931925,0.622875 C2.317425,0.461625 2.730675,0.381375 3.171675,0.381375 C3.591675,0.381375 3.967425,0.469125 4.299675,0.643875 C4.632675,0.819375 4.907175,1.021875 5.123925,1.252875 L4.441425,2.008875 C4.266675,1.834125 4.079175,1.696125 3.880425,1.594125 C3.680175,1.492875 3.448425,1.441875 3.181425,1.441875 C2.894175,1.441875 2.633925,1.499625 2.399175,1.615125 C2.165175,1.729875 1.961925,1.894875 1.790925,2.107875 C1.618425,2.321625 1.485675,2.582625 1.391175,2.890875 C1.296675,3.198375 1.249425,3.544875 1.249425,3.930375 C1.249425,4.714125 1.419675,5.328375 1.759425,5.773125 C2.098425,6.217875 2.558925,6.439875 3.140175,6.439875 C3.448425,6.439875 3.715425,6.380625 3.943425,6.260625 C4.170675,6.142125 4.382925,5.974875 4.577925,5.757375 L5.261175,6.502875 C4.980675,6.824625 4.662675,7.071375 4.304925,7.243125 C3.948675,7.414875 3.551925,7.500375 3.118425,7.500375 C2.677425,7.500375 2.267925,7.423125 1.890675,7.269375 C1.512675,7.115625 1.183425,6.887625 0.903675,6.586875 C0.623175,6.286125 0.402675,5.914875 0.241425,5.473875 C0.080175,5.032875 -7.5e-05,4.528875 -7.5e-05,3.961875" id="Fill-1" fill="#380A6D" mask="url(#mask-2)"></path>
                    </g>
                    <polygon id="Fill-4" fill="#380A6D" points="6.194775 0.8761425 7.413525 0.8761425 7.413525 6.7141425 10.269525 6.7141425 10.269525 7.7431425 6.194775 7.7431425"></polygon>
                    <path d="M10.87785,0.8761425 L12.0966,0.8761425 L12.0966,4.8248925 C12.0966,5.1953925 12.12885,5.5088925 12.19635,5.7646425 C12.26235,6.0196425 12.3576,6.2243925 12.4791,6.3781425 C12.6021,6.5326425 12.74685,6.6421425 12.9156,6.7088925 C13.08285,6.7756425 13.27185,6.8086425 13.4826,6.8086425 C13.69185,6.8086425 13.8846,6.7756425 14.05935,6.7088925 C14.23485,6.6421425 14.38485,6.5326425 14.51085,6.3781425 C14.63685,6.2243925 14.7351,6.0196425 14.80485,5.7646425 C14.87535,5.5088925 14.9106,5.1953925 14.9106,4.8248925 L14.9106,0.8761425 L16.07535,0.8761425 L16.07535,4.7303925 C16.07535,5.2973925 16.01685,5.7781425 15.89685,6.1733925 C15.7776,6.5693925 15.6051,6.8926425 15.37785,7.1446425 C15.1491,7.3966425 14.87685,7.5803925 14.5581,7.6958925 C14.23935,7.8113925 13.88085,7.8691425 13.4826,7.8691425 C13.08285,7.8691425 12.72435,7.8113925 12.4056,7.6958925 C12.0876,7.5803925 11.81385,7.3966425 11.5866,7.1446425 C11.3601,6.8926425 11.18385,6.5693925 11.06235,6.1733925 C10.93935,5.7781425 10.87785,5.2973925 10.87785,4.7303925 L10.87785,0.8761425 Z" id="Fill-6" fill="#380A6D"></path>
                    <path d="M17.713575,6.0316425 C17.958825,6.2633925 18.238575,6.4501425 18.553575,6.5933925 C18.868575,6.7366425 19.183575,6.8086425 19.498575,6.8086425 C19.890825,6.8086425 20.188575,6.7283925 20.391075,6.5671425 C20.594325,6.4066425 20.695575,6.1928925 20.695575,5.9266425 C20.695575,5.7871425 20.668575,5.6678925 20.616825,5.5696425 C20.565075,5.4721425 20.490825,5.3866425 20.396325,5.3123925 C20.301825,5.2388925 20.190075,5.1713925 20.060325,5.1083925 C19.930575,5.0453925 19.788825,4.9823925 19.635075,4.9193925 L18.690075,4.5098925 C18.522075,4.4393925 18.355575,4.3516425 18.192075,4.2466425 C18.026325,4.1416425 17.878575,4.0156425 17.745075,3.8686425 C17.611575,3.7216425 17.505075,3.5498925 17.424825,3.3548925 C17.344575,3.1583925 17.304075,2.9341425 17.304075,2.6821425 C17.304075,2.4091425 17.361825,2.1556425 17.477325,1.9216425 C17.592825,1.6868925 17.752575,1.4821425 17.955075,1.3066425 C18.158325,1.1318925 18.401325,0.9953925 18.684825,0.8971425 C18.968325,0.7988925 19.278075,0.7501425 19.614075,0.7501425 C20.012325,0.7501425 20.397825,0.8288925 20.769075,0.9863925 C21.140325,1.1438925 21.458325,1.3561425 21.725325,1.6216425 L21.105075,2.3986425 C20.881575,2.2171425 20.649825,2.0738925 20.412825,1.9681425 C20.173575,1.8631425 19.908825,1.8106425 19.614075,1.8106425 C19.284825,1.8106425 19.022325,1.8826425 18.825825,2.0258925 C18.630825,2.1698925 18.533325,2.3671425 18.533325,2.6191425 C18.533325,2.7526425 18.562575,2.8658925 18.621825,2.9603925 C18.681075,3.0548925 18.761325,3.1396425 18.863325,3.2123925 C18.965325,3.2858925 19.082325,3.3526425 19.215075,3.4118925 C19.347825,3.4718925 19.484325,3.5296425 19.624575,3.5851425 L20.559075,3.9736425 C20.762325,4.0576425 20.947575,4.1558925 21.115575,4.2676425 C21.284325,4.3801425 21.429075,4.5098925 21.551325,4.6561425 C21.673575,4.8031425 21.770325,4.9733925 21.840075,5.1661425 C21.909825,5.3581425 21.945075,5.5801425 21.945075,5.8321425 C21.945075,6.1118925 21.888825,6.3751425 21.777075,6.6196425 C21.665325,6.8648925 21.502575,7.0801425 21.288825,7.2661425 C21.075075,7.4513925 20.817075,7.5983925 20.511825,7.7063925 C20.207325,7.8151425 19.862325,7.8691425 19.478325,7.8691425 C19.015575,7.8691425 18.570075,7.7813925 18.138825,7.6073925 C17.708325,7.4318925 17.328825,7.1828925 16.999575,6.8611425 L17.713575,6.0316425 Z" id="Fill-8" fill="#380A6D"></path>
                    <polygon id="Fill-10" fill="#380A6D" points="24.1611 1.9052175 22.1766 1.9052175 22.1766 0.8762175 27.3636 0.8762175 27.3636 1.9052175 25.37835 1.9052175 25.37835 7.7432175 24.1611 7.7432175"></polygon>
                    <polygon id="Fill-12" fill="#380A6D" points="28.2978 0.8761425 32.4348 0.8761425 32.4348 1.9051425 29.5158 1.9051425 29.5158 3.6586425 31.9833 3.6586425 31.9833 4.6876425 29.5158 4.6876425 29.5158 6.7141425 32.5398 6.7141425 32.5398 7.7431425 28.2978 7.7431425"></polygon>
                    <path d="M34.9548,4.0892925 L35.9313,4.0892925 C36.40005,4.0892925 36.75855,3.9910425 37.00755,3.7952925 C37.25505,3.5995425 37.37955,3.3055425 37.37955,2.9132925 C37.37955,2.5142925 37.25505,2.2375425 37.00755,2.0837925 C36.75855,1.9300425 36.40005,1.8535425 35.9313,1.8535425 L34.9548,1.8535425 L34.9548,4.0892925 Z M37.4853,7.7432925 L36.00405,5.0552925 L34.9548,5.0552925 L34.9548,7.7432925 L33.7368,7.7432925 L33.7368,0.8762925 L36.0573,0.8762925 C36.4143,0.8762925 36.7473,0.9115425 37.0548,0.9812925 C37.3623,1.0510425 37.62855,1.1650425 37.8528,1.3232925 C38.07705,1.4800425 38.25255,1.6885425 38.38305,1.9480425 C38.51205,2.2060425 38.5773,2.5285425 38.5773,2.9132925 C38.5773,3.4382925 38.4528,3.8620425 38.20455,4.1837925 C37.95555,4.5062925 37.62555,4.7365425 37.2123,4.8767925 L38.8503,7.7432925 L37.4853,7.7432925 Z" id="Fill-14" fill="#380A6D"></path>
                    <path d="M41.758275,0.8761425 L43.103025,0.8761425 L44.341275,4.2571425 L44.793525,5.5591425 L44.835525,5.5591425 L45.275775,4.2571425 L46.493775,0.8761425 L47.837775,0.8761425 L47.837775,7.7431425 L46.693275,7.7431425 L46.693275,4.6043925 C46.693275,4.4431425 46.699275,4.2676425 46.709775,4.0793925 C46.719525,3.8903925 46.731525,3.6991425 46.745775,3.5063925 C46.760025,3.3143925 46.777275,3.1253925 46.799025,2.9393925 C46.819275,2.7541425 46.836525,2.5808925 46.851525,2.4203925 L46.808775,2.4203925 L46.252275,3.9848925 L45.065775,7.1033925 L44.498775,7.1033925 L43.312275,3.9848925 L42.766275,2.4203925 L42.725025,2.4203925 C42.738525,2.5808925 42.754275,2.7541425 42.772275,2.9393925 C42.789525,3.1253925 42.806775,3.3143925 42.824775,3.5063925 C42.841275,3.6991425 42.855525,3.8903925 42.866775,4.0793925 C42.876525,4.2676425 42.881775,4.4431425 42.881775,4.6043925 L42.881775,7.7431425 L41.758275,7.7431425 L41.758275,0.8761425 Z" id="Fill-16" fill="#380A6D"></path>
                    <polygon id="Fill-18" fill="#380A6D" points="49.371 0.8761425 53.508 0.8761425 53.508 1.9051425 50.589 1.9051425 50.589 3.6586425 53.0565 3.6586425 53.0565 4.6876425 50.589 4.6876425 50.589 6.7141425 53.613 6.7141425 53.613 7.7431425 49.371 7.7431425"></polygon>
                    <path d="M56.563425,6.7560675 C57.263925,6.7560675 57.800175,6.5550675 58.174425,6.1523175 C58.549425,5.7503175 58.736925,5.1255675 58.736925,4.2780675 C58.736925,3.4380675 58.547925,2.8260675 58.170675,2.4405675 C57.792675,2.0558175 57.256425,1.8638175 56.563425,1.8638175 L56.027925,1.8638175 L56.027925,6.7560675 L56.563425,6.7560675 Z M54.809925,0.8760675 L56.646675,0.8760675 C57.697425,0.8760675 58.516425,1.1595675 59.105175,1.7265675 C59.692425,2.2943175 59.986425,3.1448175 59.986425,4.2780675 C59.986425,4.8450675 59.910675,5.3460675 59.761425,5.7795675 C59.609925,6.2138175 59.393175,6.5760675 59.109675,6.8663175 C58.826925,7.1573175 58.483425,7.3755675 58.080675,7.5225675 C57.677925,7.6703175 57.221175,7.7430675 56.709675,7.7430675 L54.809925,7.7430675 L54.809925,0.8760675 Z" id="Fill-20" fill="#380A6D"></path>
                    <mask id="mask-4" fill="white">
                        <use xlink:href="#path-3"></use>
                    </mask>
                    <g id="Clip-23"></g>
                    <polygon id="Fill-22" fill="#380A6D" mask="url(#mask-4)" points="61.16325 7.7431425 62.3805 7.7431425 62.3805 0.8761425 61.16325 0.8761425"></polygon>
                    <path d="M66.832725,4.9293675 L66.591225,4.0893675 C66.478725,3.7256175 66.372225,3.3513675 66.270975,2.9658675 C66.168975,2.5811175 66.069225,2.1993675 65.971725,1.8206175 L65.929725,1.8206175 C65.831475,2.2061175 65.733225,2.5893675 65.634975,2.9711175 C65.536725,3.3521175 65.432475,3.7256175 65.319975,4.0893675 L65.078475,4.9293675 L66.832725,4.9293675 Z M67.105725,5.8848675 L64.795725,5.8848675 L64.259475,7.7433675 L63.021225,7.7433675 L65.256975,0.8763675 L66.685725,0.8763675 L68.922225,7.7433675 L67.640475,7.7433675 L67.105725,5.8848675 Z" id="Fill-24" fill="#380A6D" mask="url(#mask-4)"></path>
                    <path d="M69.562425,0.8761425 L70.811925,0.8761425 L72.953175,4.7401425 L73.657425,6.2003925 L73.699425,6.2003925 C73.671675,5.8426425 73.637925,5.4593925 73.599675,5.0498925 C73.561425,4.6411425 73.541925,4.2428925 73.541925,3.8588925 L73.541925,0.8761425 L74.706675,0.8761425 L74.706675,7.7431425 L73.457175,7.7431425 L71.315925,3.8791425 L70.612425,2.4203925 L70.570425,2.4203925 C70.598175,2.7841425 70.631925,3.1658925 70.670175,3.5641425 C70.708425,3.9631425 70.727925,4.3553925 70.727925,4.7401425 L70.727925,7.7431425 L69.562425,7.7431425 L69.562425,0.8761425 Z" id="Fill-25" fill="#380A6D" mask="url(#mask-4)"></path>
                    <path d="M76.02975,7.0504425 C76.02975,6.8126925 76.10625,6.6161925 76.25625,6.4624425 C76.40625,6.3086925 76.59375,6.2314425 76.818,6.2314425 C77.04225,6.2314425 77.2275,6.3086925 77.3745,6.4624425 C77.52075,6.6161925 77.59425,6.8126925 77.59425,7.0504425 C77.59425,7.2881925 77.52075,7.4846925 77.3745,7.6384425 C77.2275,7.7921925 77.04225,7.8694425 76.818,7.8694425 C76.59375,7.8694425 76.40625,7.7921925 76.25625,7.6384425 C76.10625,7.4846925 76.02975,7.2881925 76.02975,7.0504425 M76.02975,3.4594425 C76.02975,3.2216925 76.10625,3.0251925 76.25625,2.8714425 C76.40625,2.7176925 76.59375,2.6404425 76.818,2.6404425 C77.04225,2.6404425 77.2275,2.7176925 77.3745,2.8714425 C77.52075,3.0251925 77.59425,3.2216925 77.59425,3.4594425 C77.59425,3.6971925 77.52075,3.8936925 77.3745,4.0474425 C77.2275,4.2011925 77.04225,4.2784425 76.818,4.2784425 C76.59375,4.2784425 76.40625,4.2011925 76.25625,4.0474425 C76.10625,3.8936925 76.02975,3.6971925 76.02975,3.4594425" id="Fill-26" fill="#380A6D" mask="url(#mask-4)"></path>
                    <path d="M83.12835,5.0868675 L83.12835,3.5748675 C83.12835,3.3791175 83.13285,3.1481175 83.1441,2.8818675 C83.1546,2.6156175 83.1666,2.3846175 83.1801,2.1888675 L83.13885,2.1888675 C83.0541,2.3636175 82.9671,2.5353675 82.87635,2.7033675 C82.78485,2.8713675 82.69035,3.0461175 82.5921,3.2283675 L81.37485,5.0868675 L83.12835,5.0868675 Z M85.1016,6.0213675 L84.26235,6.0213675 L84.26235,7.7433675 L83.12835,7.7433675 L83.12835,6.0213675 L80.1771,6.0213675 L80.1771,5.2023675 L82.82385,1.0653675 L84.26235,1.0653675 L84.26235,5.0868675 L85.1016,5.0868675 L85.1016,6.0213675 Z" id="Fill-27" fill="#380A6D" mask="url(#mask-4)"></path>
                    <path d="M87.85245,6.9245175 C88.0137,6.9245175 88.16295,6.8802675 88.29945,6.7932675 C88.4352,6.7055175 88.55295,6.5607675 88.65045,6.3575175 C88.7487,6.1550175 88.82595,5.8917675 88.8822,5.5692675 C88.9377,5.2482675 88.96545,4.8485175 88.96545,4.3730175 C88.96545,3.9042675 88.9377,3.5097675 88.8822,3.1910175 C88.82595,2.8737675 88.7487,2.6157675 88.65045,2.4200175 C88.55295,2.2235175 88.4352,2.0855175 88.29945,2.0045175 C88.16295,1.9250175 88.0137,1.8845175 87.85245,1.8845175 C87.6912,1.8845175 87.54345,1.9250175 87.4062,2.0045175 C87.27045,2.0855175 87.15195,2.2235175 87.0552,2.4200175 C86.95695,2.6157675 86.8797,2.8737675 86.8242,3.1910175 C86.76795,3.5097675 86.7402,3.9042675 86.7402,4.3730175 C86.7402,4.8485175 86.76795,5.2482675 86.8242,5.5692675 C86.8797,5.8917675 86.95695,6.1550175 87.0552,6.3575175 C87.15195,6.5607675 87.27045,6.7055175 87.4062,6.7932675 C87.54345,6.8802675 87.6912,6.9245175 87.85245,6.9245175 M87.85245,7.8695175 C87.15195,7.8695175 86.59995,7.5695175 86.1942,6.9710175 C85.7877,6.3732675 85.5852,5.5062675 85.5852,4.3730175 C85.5852,3.2390175 85.7877,2.3825175 86.1942,1.8057675 C86.59995,1.2282675 87.15195,0.9395175 87.85245,0.9395175 C88.55295,0.9395175 89.1057,1.2297675 89.5122,1.8110175 C89.91795,2.3922675 90.12045,3.2457675 90.12045,4.3730175 C90.12045,5.5062675 89.91795,6.3732675 89.5122,6.9710175 C89.1057,7.5695175 88.55295,7.8695175 87.85245,7.8695175" id="Fill-28" fill="#380A6D" mask="url(#mask-4)"></path>
                    <path d="M93.207975,6.9449925 C93.487725,6.9449925 93.723225,6.8362425 93.916725,6.6194925 C94.108725,6.4027425 94.205475,6.0877425 94.205475,5.6752425 C94.205475,5.2754925 94.114725,4.9784925 93.932475,4.7819925 C93.750225,4.5862425 93.491475,4.4887425 93.155475,4.4887425 C92.966475,4.4887425 92.766975,4.5464925 92.556975,4.6612425 C92.346975,4.7767425 92.147475,4.9747425 91.958475,5.2544925 C92.021475,5.8499925 92.163225,6.2804925 92.382975,6.5467425 C92.604225,6.8122425 92.878725,6.9449925 93.207975,6.9449925 L93.207975,6.9449925 Z M94.562475,2.4299925 C94.442475,2.2829925 94.287225,2.1622425 94.095225,2.0677425 C93.902475,1.9732425 93.704475,1.9267425 93.501975,1.9267425 C93.291225,1.9267425 93.093975,1.9679925 92.908725,2.0527425 C92.723475,2.1367425 92.560725,2.2739925 92.419725,2.4667425 C92.280225,2.6594925 92.166225,2.9129925 92.078475,3.2287425 C91.991475,3.5437425 91.941225,3.9314925 91.926225,4.3942425 C92.122725,4.1482425 92.352225,3.9569925 92.614725,3.8159925 C92.877225,3.6764925 93.129975,3.6067425 93.375975,3.6067425 C93.662475,3.6067425 93.927225,3.6479925 94.168725,3.7327425 C94.410225,3.8159925 94.616475,3.9442425 94.788225,4.1159925 C94.959975,4.2869925 95.092725,4.5022425 95.187225,4.7617425 C95.281725,5.0204925 95.328975,5.3249925 95.328975,5.6752425 C95.328975,6.0112425 95.272725,6.3134925 95.160975,6.5834925 C95.048475,6.8527425 94.898475,7.0822425 94.709475,7.2712425 C94.520475,7.4602425 94.297725,7.6072425 94.042725,7.7114925 C93.786225,7.8164925 93.515475,7.8689925 93.228225,7.8689925 C92.899725,7.8689925 92.588475,7.8044925 92.293725,7.6754925 C92.000475,7.5457425 91.743225,7.3477425 91.522725,7.0822425 C91.302225,6.8159925 91.126725,6.4762425 90.997725,6.0629925 C90.867975,5.6497425 90.803475,5.1637425 90.803475,4.6042425 C90.803475,3.9532425 90.876975,3.3967425 91.023975,2.9339925 C91.170225,2.4719925 91.365225,2.0939925 91.606725,1.8007425 C91.848225,1.5059925 92.126475,1.2892425 92.441475,1.1489925 C92.756475,1.0094925 93.084975,0.9389925 93.428475,0.9389925 C93.834225,0.9389925 94.182225,1.0132425 94.473225,1.1594925 C94.763475,1.3064925 95.009475,1.4857425 95.213475,1.6949925 L94.562475,2.4299925 Z" id="Fill-29" fill="#380A6D" mask="url(#mask-4)"></path>
                </g>
                <g id="Group-40" transform="translate(5.250000, 0.000000)">
                    <path d="M7.00335,37.3395 C5.1426,37.3395 3.62835,35.82525 3.62835,33.9645 L3.62835,24.2145 C3.62835,22.35375 5.1426,20.8395 7.00335,20.8395 L271.00335,20.8395 C272.8641,20.8395 274.37835,22.35375 274.37835,24.2145 L274.37835,33.9645 C274.37835,35.82525 272.8641,37.3395 271.00335,37.3395 L7.00335,37.3395 Z" id="Fill-1" fill="#9D9DC6"></path>
                    <path d="M271.00335,20.4645 L7.00335,20.4645 C4.94085,20.4645 3.25335,22.152 3.25335,24.2145 L3.25335,33.9645 C3.25335,36.027 4.94085,37.7145 7.00335,37.7145 L271.00335,37.7145 C273.06585,37.7145 274.75335,36.027 274.75335,33.9645 L274.75335,24.2145 C274.75335,22.152 273.06585,20.4645 271.00335,20.4645 M271.00335,21.2145 C272.65785,21.2145 274.00335,22.56075 274.00335,24.2145 L274.00335,33.9645 C274.00335,35.619 272.65785,36.9645 271.00335,36.9645 L7.00335,36.9645 C5.3496,36.9645 4.00335,35.619 4.00335,33.9645 L4.00335,24.2145 C4.00335,22.56075 5.3496,21.2145 7.00335,21.2145 L271.00335,21.2145" id="Fill-3" fill="#FFFFFF"></path>
                    <g id="Group-7" transform="translate(0.000000, 0.214800)">
                        <mask id="mask-6" fill="white">
                            <use xlink:href="#path-5"></use>
                        </mask>
                        <g id="Clip-6"></g>
                        <path d="M2.1525,6.792975 C2.34825,6.792975 2.52525,6.738975 2.68275,6.630225 C2.84025,6.522225 2.97675,6.353475 3.09225,6.126225 C3.20775,5.898975 3.297,5.607975 3.36,5.254725 C3.423,4.901475 3.4545,4.479225 3.4545,3.989475 C3.4545,3.498975 3.423,3.079725 3.36,2.729475 C3.297,2.379225 3.20775,2.093475 3.09225,1.872975 C2.97675,1.652475 2.84025,1.490475 2.68275,1.385475 C2.52525,1.279725 2.34825,1.227975 2.1525,1.227975 C1.95675,1.227975 1.77825,1.279725 1.617,1.385475 C1.45575,1.490475 1.3185,1.652475 1.20225,1.872975 C1.08675,2.093475 0.9975,2.379225 0.9345,2.729475 C0.8715,3.079725 0.84,3.498975 0.84,3.989475 C0.84,4.968975 0.96075,5.682225 1.20225,6.126225 C1.4445,6.570975 1.761,6.792975 2.1525,6.792975 M2.1525,7.485975 C1.47375,7.485975 0.945,7.184475 0.567,6.582975 C0.189,5.980725 0,5.116725 0,3.989475 C0,2.862225 0.189,2.004975 0.567,1.416975 C0.945,0.828975 1.47375,0.534975 2.1525,0.534975 C2.8245,0.534975 3.35025,0.828975 3.72825,1.416975 C4.1055,2.004975 4.2945,2.862225 4.2945,3.989475 C4.2945,5.116725 4.1055,5.980725 3.72825,6.582975 C3.35025,7.184475 2.8245,7.485975 2.1525,7.485975" id="Fill-5" fill="#848484" mask="url(#mask-6)"></path>
                    </g>
                    <path d="M280.82955,8.912775 C280.9983,8.912775 281.15205,8.877525 281.2923,8.807775 C281.4318,8.738025 281.5548,8.638275 281.65905,8.508525 C281.76405,8.379525 281.8458,8.225025 281.90655,8.046525 C281.9658,7.868025 281.9958,7.667025 281.9958,7.442775 C281.9958,7.001775 281.8938,6.655275 281.69055,6.403275 C281.48805,6.151275 281.1768,6.025275 280.75605,6.025275 C280.5468,6.025275 280.31655,6.093525 280.0683,6.230025 C279.82005,6.366525 279.58455,6.592275 279.3603,6.907275 C279.4158,7.565025 279.56805,8.063775 279.8163,8.403525 C280.06455,8.743275 280.40355,8.912775 280.82955,8.912775 L280.82955,8.912775 Z M282.20505,3.894525 C282.06555,3.733275 281.89905,3.605025 281.70705,3.510525 C281.51355,3.416025 281.3133,3.368775 281.1033,3.368775 C280.8723,3.368775 280.6518,3.418275 280.44105,3.515775 C280.2318,3.614025 280.0458,3.774525 279.88455,3.998775 C279.7233,4.223025 279.59505,4.515525 279.4968,4.875525 C279.39855,5.236275 279.3453,5.682525 279.3393,6.214275 C279.5493,5.955525 279.7938,5.750775 280.07355,5.600025 C280.3533,5.450025 280.63005,5.374275 280.9038,5.374275 C281.4843,5.374275 281.94855,5.546025 282.2943,5.888775 C282.64155,6.232275 282.81405,6.749775 282.81405,7.442775 C282.81405,7.765275 282.76155,8.057025 282.6573,8.319525 C282.5523,8.582775 282.4083,8.807775 282.22605,8.996775 C282.0438,9.185775 281.83455,9.333525 281.59605,9.437775 C281.3583,9.542775 281.1033,9.595275 280.82955,9.595275 C280.50105,9.595275 280.19655,9.528525 279.9168,9.396525 C279.6363,9.263025 279.3933,9.061275 279.18705,8.792025 C278.98005,8.522775 278.81655,8.186775 278.69805,7.784025 C278.57955,7.382025 278.51955,6.911025 278.51955,6.371775 C278.51955,5.699775 278.59005,5.127525 278.7303,4.655025 C278.8698,4.182525 279.0588,3.797775 279.2973,3.500025 C279.5343,3.203025 279.80655,2.986275 280.1103,2.849025 C280.4148,2.712525 280.7358,2.645025 281.07105,2.645025 C281.43555,2.645025 281.74905,2.712525 282.01155,2.849025 C282.27405,2.986275 282.4998,3.155025 282.6888,3.358275 L282.20505,3.894525 Z" id="Fill-8" fill="#848484"></path>
                    <path d="M285.42915,8.9025 C285.6249,8.9025 285.80115,8.8485 285.9594,8.73975 C286.11615,8.63175 286.2534,8.463 286.36815,8.23575 C286.48365,8.0085 286.5729,7.7175 286.6359,7.36425 C286.6989,7.011 286.73115,6.58875 286.73115,6.099 C286.73115,5.6085 286.6989,5.18925 286.6359,4.839 C286.5729,4.48875 286.48365,4.203 286.36815,3.9825 C286.2534,3.762 286.11615,3.6 285.9594,3.495 C285.80115,3.38925 285.6249,3.3375 285.42915,3.3375 C285.23265,3.3375 285.05415,3.38925 284.8929,3.495 C284.73165,3.6 284.5944,3.762 284.47815,3.9825 C284.36265,4.203 284.2734,4.48875 284.2104,4.839 C284.1474,5.18925 284.11665,5.6085 284.11665,6.099 C284.11665,7.0785 284.23665,7.79175 284.47815,8.23575 C284.7204,8.6805 285.0369,8.9025 285.42915,8.9025 M285.42915,9.5955 C284.74965,9.5955 284.22165,9.294 283.84365,8.6925 C283.46565,8.09025 283.27665,7.22625 283.27665,6.099 C283.27665,4.97175 283.46565,4.1145 283.84365,3.5265 C284.22165,2.9385 284.74965,2.6445 285.42915,2.6445 C286.10115,2.6445 286.62615,2.9385 287.00415,3.5265 C287.38215,4.1145 287.5704,4.97175 287.5704,6.099 C287.5704,7.22625 287.38215,8.09025 287.00415,8.6925 C286.62615,9.294 286.10115,9.5955 285.42915,9.5955" id="Fill-10" fill="#848484"></path>
                    <path d="M290.2272,8.9025 C290.42295,8.9025 290.59995,8.8485 290.75745,8.73975 C290.91495,8.63175 291.05145,8.463 291.16695,8.23575 C291.28245,8.0085 291.3717,7.7175 291.4347,7.36425 C291.4977,7.011 291.5292,6.58875 291.5292,6.099 C291.5292,5.6085 291.4977,5.18925 291.4347,4.839 C291.3717,4.48875 291.28245,4.203 291.16695,3.9825 C291.05145,3.762 290.91495,3.6 290.75745,3.495 C290.59995,3.38925 290.42295,3.3375 290.2272,3.3375 C290.03145,3.3375 289.85295,3.38925 289.6917,3.495 C289.53045,3.6 289.3932,3.762 289.27695,3.9825 C289.16145,4.203 289.0722,4.48875 289.0092,4.839 C288.9462,5.18925 288.9147,5.6085 288.9147,6.099 C288.9147,7.0785 289.03545,7.79175 289.27695,8.23575 C289.5192,8.6805 289.8357,8.9025 290.2272,8.9025 M290.2272,9.5955 C289.54845,9.5955 289.0197,9.294 288.6417,8.6925 C288.2637,8.09025 288.0747,7.22625 288.0747,6.099 C288.0747,4.97175 288.2637,4.1145 288.6417,3.5265 C289.0197,2.9385 289.54845,2.6445 290.2272,2.6445 C290.8992,2.6445 291.42495,2.9385 291.80295,3.5265 C292.1802,4.1145 292.3692,4.97175 292.3692,6.099 C292.3692,7.22625 292.1802,8.09025 291.80295,8.6925 C291.42495,9.294 290.8992,9.5955 290.2272,9.5955" id="Fill-12" fill="#848484"></path>
                    <polygon id="Fill-14" fill="#848484" points="293.356125 2.581725 294.227625 2.581725 294.227625 6.035475 294.259125 6.035475 297.125625 2.581725 298.113375 2.581725 295.960125 5.206725 298.448625 9.469725 297.472125 9.469725 295.414125 5.888475 294.227625 7.284975 294.227625 9.469725 293.356125 9.469725"></polygon>
                    <path d="M144.124425,6.9396 C144.326925,7.14885 144.563175,7.33485 144.832425,7.49535 C145.102425,7.6566 145.436925,7.73685 145.835175,7.73685 C146.240925,7.73685 146.573925,7.62735 146.832675,7.40685 C147.092175,7.18635 147.221175,6.8871 147.221175,6.5091 C147.221175,6.3126 147.184425,6.1326 147.110925,5.96835 C147.038175,5.80335 146.916675,5.66235 146.749425,5.5431 C146.580675,5.42385 146.360175,5.33235 146.087175,5.26935 C145.814925,5.20635 145.478175,5.17485 145.079175,5.17485 L145.079175,4.5141 C145.436925,4.5141 145.735425,4.4826 145.977675,4.4196 C146.219175,4.3566 146.414925,4.26885 146.564925,4.1571 C146.715675,4.04535 146.822925,3.91185 146.885925,3.7581 C146.948925,3.60435 146.979675,3.43935 146.979675,3.2646 C146.979675,2.93535 146.876925,2.67585 146.670675,2.48685 C146.463675,2.2986 146.181675,2.2041 145.825425,2.2041 C145.545675,2.2041 145.287675,2.2671 145.052925,2.3931 C144.818925,2.51835 144.599925,2.68335 144.396675,2.8866 L143.935425,2.33985 C144.194175,2.09535 144.479175,1.8936 144.791175,1.73685 C145.102425,1.57935 145.457175,1.5006 145.856925,1.5006 C146.150175,1.5006 146.420175,1.53885 146.664675,1.61535 C146.909925,1.69335 147.121425,1.80285 147.299925,1.94685 C147.479175,2.0901 147.616425,2.2671 147.714675,2.4771 C147.812925,2.6871 147.861675,2.92785 147.861675,3.2016 C147.861675,3.60735 147.749925,3.9396 147.525675,4.1991 C147.301425,4.45785 147.008175,4.65735 146.643675,4.7976 L146.643675,4.83885 C146.846925,4.88835 147.035925,4.9596 147.210675,5.0541 C147.386175,5.1486 147.540675,5.26785 147.672675,5.41185 C147.805425,5.5551 147.909675,5.7216 147.983175,5.9106 C148.055925,6.0996 148.092675,6.30885 148.092675,6.5406 C148.092675,6.83385 148.035675,7.10085 147.920175,7.33785 C147.803925,7.57635 147.646425,7.77735 147.446925,7.94235 C147.247425,8.1066 147.014925,8.2326 146.749425,8.32035 C146.483175,8.40735 146.195925,8.4516 145.888425,8.4516 C145.621425,8.4516 145.378425,8.4246 145.158675,8.37285 C144.937425,8.32035 144.736425,8.24985 144.554175,8.16285 C144.371925,8.0751 144.209175,7.97535 144.065925,7.86285 C143.921925,7.7511 143.795175,7.6326 143.682675,7.5066 L144.124425,6.9396 Z" id="Fill-16" fill="#848484"></path>
                    <path d="M150.8232,7.75845 C151.01895,7.75845 151.1952,7.70445 151.35345,7.5957 C151.5102,7.4877 151.64745,7.31895 151.7622,7.0917 C151.8777,6.86445 151.96695,6.57345 152.02995,6.2202 C152.09295,5.86695 152.1252,5.4447 152.1252,4.95495 C152.1252,4.46445 152.09295,4.0452 152.02995,3.69495 C151.96695,3.3447 151.8777,3.05895 151.7622,2.83845 C151.64745,2.61795 151.5102,2.45595 151.35345,2.35095 C151.1952,2.2452 151.01895,2.19345 150.8232,2.19345 C150.6267,2.19345 150.4482,2.2452 150.28695,2.35095 C150.1257,2.45595 149.98845,2.61795 149.8722,2.83845 C149.7567,3.05895 149.66745,3.3447 149.60445,3.69495 C149.54145,4.0452 149.5107,4.46445 149.5107,4.95495 C149.5107,5.93445 149.6307,6.6477 149.8722,7.0917 C150.11445,7.53645 150.43095,7.75845 150.8232,7.75845 M150.8232,8.45145 C150.1437,8.45145 149.6157,8.14995 149.2377,7.54845 C148.8597,6.9462 148.6707,6.0822 148.6707,4.95495 C148.6707,3.8277 148.8597,2.97045 149.2377,2.38245 C149.6157,1.79445 150.1437,1.50045 150.8232,1.50045 C151.4952,1.50045 152.0202,1.79445 152.3982,2.38245 C152.7762,2.97045 152.96445,3.8277 152.96445,4.95495 C152.96445,6.0822 152.7762,6.9462 152.3982,7.54845 C152.0202,8.14995 151.4952,8.45145 150.8232,8.45145" id="Fill-18" fill="#848484"></path>
                    <path d="M155.62125,7.75845 C155.817,7.75845 155.994,7.70445 156.1515,7.5957 C156.309,7.4877 156.4455,7.31895 156.561,7.0917 C156.6765,6.86445 156.76575,6.57345 156.82875,6.2202 C156.89175,5.86695 156.92325,5.4447 156.92325,4.95495 C156.92325,4.46445 156.89175,4.0452 156.82875,3.69495 C156.76575,3.3447 156.6765,3.05895 156.561,2.83845 C156.4455,2.61795 156.309,2.45595 156.1515,2.35095 C155.994,2.2452 155.817,2.19345 155.62125,2.19345 C155.4255,2.19345 155.247,2.2452 155.08575,2.35095 C154.9245,2.45595 154.78725,2.61795 154.671,2.83845 C154.5555,3.05895 154.46625,3.3447 154.40325,3.69495 C154.34025,4.0452 154.30875,4.46445 154.30875,4.95495 C154.30875,5.93445 154.4295,6.6477 154.671,7.0917 C154.91325,7.53645 155.22975,7.75845 155.62125,7.75845 M155.62125,8.45145 C154.9425,8.45145 154.41375,8.14995 154.03575,7.54845 C153.65775,6.9462 153.46875,6.0822 153.46875,4.95495 C153.46875,3.8277 153.65775,2.97045 154.03575,2.38245 C154.41375,1.79445 154.9425,1.50045 155.62125,1.50045 C156.29325,1.50045 156.819,1.79445 157.197,2.38245 C157.57425,2.97045 157.76325,3.8277 157.76325,4.95495 C157.76325,6.0822 157.57425,6.9462 157.197,7.54845 C156.819,8.14995 156.29325,8.45145 155.62125,8.45145" id="Fill-20" fill="#848484"></path>
                    <polygon id="Fill-22" fill="#848484" points="158.750175 1.437675 159.621675 1.437675 159.621675 4.891425 159.653175 4.891425 162.519675 1.437675 163.507425 1.437675 161.354175 4.062675 163.842675 8.325675 162.866175 8.325675 160.808175 4.744425 159.621675 6.140925 159.621675 8.325675 158.750175 8.325675"></polygon>
                    <path d="M217.851525,5.7846 L217.851525,3.8421 C217.851525,3.65985 217.857525,3.4446 217.867275,3.19635 C217.877775,2.9481 217.890525,2.73285 217.904025,2.5506 L217.862775,2.5506 C217.778025,2.7111 217.690275,2.8686 217.599525,3.02235 C217.508775,3.17685 217.414275,3.33435 217.316775,3.49485 L215.752275,5.7846 L217.851525,5.7846 Z M219.584775,6.4776 L218.671275,6.4776 L218.671275,8.3256 L217.851525,8.3256 L217.851525,6.4776 L214.838025,6.4776 L214.838025,5.9106 L217.705275,1.6266 L218.671275,1.6266 L218.671275,5.7846 L219.584775,5.7846 L219.584775,6.4776 Z" id="Fill-24" fill="#848484"></path>
                    <path d="M220.14105,6.9711 C220.33755,7.17435 220.5693,7.35285 220.8393,7.5066 C221.10855,7.66035 221.43855,7.73685 221.83155,7.73685 C222.03405,7.73685 222.2253,7.70085 222.4038,7.62735 C222.5823,7.5531 222.7383,7.45035 222.87105,7.3176 C223.00305,7.1841 223.1088,7.02285 223.1868,6.83385 C223.26255,6.64485 223.30155,6.4356 223.30155,6.2046 C223.30155,5.74185 223.1718,5.38185 222.9123,5.1231 C222.6543,4.8636 222.3078,4.7346 221.8743,4.7346 C221.64255,4.7346 221.44455,4.7691 221.28105,4.83885 C221.1153,4.90935 220.9323,5.01135 220.7283,5.14335 L220.26705,4.8501 L220.48755,1.6266 L223.83705,1.6266 L223.83705,2.37135 L221.24355,2.37135 L221.06505,4.3566 C221.22555,4.27185 221.3868,4.20585 221.54805,4.1571 C221.70855,4.10835 221.8908,4.08285 222.09405,4.08285 C222.38055,4.08285 222.65055,4.1256 222.90255,4.20885 C223.15455,4.2936 223.37505,4.4211 223.56405,4.59285 C223.75305,4.7646 223.90155,4.98135 224.00955,5.2431 C224.1183,5.50635 224.17305,5.81985 224.17305,6.18285 C224.17305,6.5481 224.11005,6.8691 223.98405,7.14885 C223.85805,7.42935 223.69005,7.6656 223.4793,7.85835 C223.27005,8.05035 223.03005,8.1981 222.76005,8.29935 C222.4908,8.4006 222.20955,8.4516 221.9148,8.4516 C221.65005,8.4516 221.4063,8.4246 221.1858,8.37285 C220.9653,8.32035 220.7658,8.2521 220.5873,8.1681 C220.4088,8.08335 220.2483,7.98735 220.1043,7.87935 C219.96105,7.7706 219.8328,7.6566 219.7203,7.5381 L220.14105,6.9711 Z" id="Fill-26" fill="#848484"></path>
                    <path d="M226.87125,7.75845 C227.067,7.75845 227.244,7.70445 227.4015,7.5957 C227.559,7.4877 227.6955,7.31895 227.811,7.0917 C227.9265,6.86445 228.01575,6.57345 228.07875,6.2202 C228.14175,5.86695 228.17325,5.4447 228.17325,4.95495 C228.17325,4.46445 228.14175,4.0452 228.07875,3.69495 C228.01575,3.3447 227.9265,3.05895 227.811,2.83845 C227.6955,2.61795 227.559,2.45595 227.4015,2.35095 C227.244,2.2452 227.067,2.19345 226.87125,2.19345 C226.6755,2.19345 226.497,2.2452 226.33575,2.35095 C226.1745,2.45595 226.03725,2.61795 225.921,2.83845 C225.8055,3.05895 225.71625,3.3447 225.65325,3.69495 C225.59025,4.0452 225.55875,4.46445 225.55875,4.95495 C225.55875,5.93445 225.6795,6.6477 225.921,7.0917 C226.16325,7.53645 226.47975,7.75845 226.87125,7.75845 M226.87125,8.45145 C226.1925,8.45145 225.66375,8.14995 225.28575,7.54845 C224.90775,6.9462 224.71875,6.0822 224.71875,4.95495 C224.71875,3.8277 224.90775,2.97045 225.28575,2.38245 C225.66375,1.79445 226.1925,1.50045 226.87125,1.50045 C227.54325,1.50045 228.069,1.79445 228.447,2.38245 C228.82425,2.97045 229.01325,3.8277 229.01325,4.95495 C229.01325,6.0822 228.82425,6.9462 228.447,7.54845 C228.069,8.14995 227.54325,8.45145 226.87125,8.45145" id="Fill-28" fill="#848484"></path>
                    <polygon id="Fill-30" fill="#848484" points="230.000175 1.437675 230.871675 1.437675 230.871675 4.891425 230.903175 4.891425 233.769675 1.437675 234.757425 1.437675 232.604175 4.062675 235.092675 8.325675 234.116175 8.325675 232.058175 4.744425 230.871675 6.140925 230.871675 8.325675 230.000175 8.325675"></polygon>
                    <path d="M65.489475,7.611225 L67.022475,7.611225 L67.022475,2.676225 L65.804475,2.676225 L65.804475,2.119725 C66.112725,2.064225 66.379725,1.995975 66.607725,1.914975 C66.834975,1.834725 67.039725,1.738725 67.221975,1.626975 L67.883475,1.626975 L67.883475,7.611225 L69.269475,7.611225 L69.269475,8.325225 L65.489475,8.325225 L65.489475,7.611225 Z" id="Fill-32" fill="#848484"></path>
                    <path d="M70.14105,6.9711 C70.33755,7.17435 70.5693,7.35285 70.8393,7.5066 C71.10855,7.66035 71.43855,7.73685 71.83155,7.73685 C72.03405,7.73685 72.2253,7.70085 72.4038,7.62735 C72.5823,7.5531 72.7383,7.45035 72.87105,7.3176 C73.00305,7.1841 73.1088,7.02285 73.1868,6.83385 C73.26255,6.64485 73.30155,6.4356 73.30155,6.2046 C73.30155,5.74185 73.1718,5.38185 72.9123,5.1231 C72.6543,4.8636 72.3078,4.7346 71.8743,4.7346 C71.64255,4.7346 71.44455,4.7691 71.28105,4.83885 C71.1153,4.90935 70.9323,5.01135 70.7283,5.14335 L70.26705,4.8501 L70.48755,1.6266 L73.83705,1.6266 L73.83705,2.37135 L71.24355,2.37135 L71.06505,4.3566 C71.22555,4.27185 71.3868,4.20585 71.54805,4.1571 C71.70855,4.10835 71.8908,4.08285 72.09405,4.08285 C72.38055,4.08285 72.65055,4.1256 72.90255,4.20885 C73.15455,4.2936 73.37505,4.4211 73.56405,4.59285 C73.75305,4.7646 73.90155,4.98135 74.00955,5.2431 C74.1183,5.50635 74.17305,5.81985 74.17305,6.18285 C74.17305,6.5481 74.11005,6.8691 73.98405,7.14885 C73.85805,7.42935 73.69005,7.6656 73.4793,7.85835 C73.27005,8.05035 73.03005,8.1981 72.76005,8.29935 C72.4908,8.4006 72.20955,8.4516 71.9148,8.4516 C71.65005,8.4516 71.4063,8.4246 71.1858,8.37285 C70.9653,8.32035 70.7658,8.2521 70.5873,8.1681 C70.4088,8.08335 70.2483,7.98735 70.1043,7.87935 C69.96105,7.7706 69.8328,7.6566 69.7203,7.5381 L70.14105,6.9711 Z" id="Fill-34" fill="#848484"></path>
                    <path d="M76.87125,7.75845 C77.067,7.75845 77.244,7.70445 77.4015,7.5957 C77.559,7.4877 77.6955,7.31895 77.811,7.0917 C77.9265,6.86445 78.01575,6.57345 78.07875,6.2202 C78.14175,5.86695 78.17325,5.4447 78.17325,4.95495 C78.17325,4.46445 78.14175,4.0452 78.07875,3.69495 C78.01575,3.3447 77.9265,3.05895 77.811,2.83845 C77.6955,2.61795 77.559,2.45595 77.4015,2.35095 C77.244,2.2452 77.067,2.19345 76.87125,2.19345 C76.6755,2.19345 76.497,2.2452 76.33575,2.35095 C76.1745,2.45595 76.03725,2.61795 75.921,2.83845 C75.8055,3.05895 75.71625,3.3447 75.65325,3.69495 C75.59025,4.0452 75.55875,4.46445 75.55875,4.95495 C75.55875,5.93445 75.6795,6.6477 75.921,7.0917 C76.16325,7.53645 76.47975,7.75845 76.87125,7.75845 M76.87125,8.45145 C76.1925,8.45145 75.66375,8.14995 75.28575,7.54845 C74.90775,6.9462 74.71875,6.0822 74.71875,4.95495 C74.71875,3.8277 74.90775,2.97045 75.28575,2.38245 C75.66375,1.79445 76.1925,1.50045 76.87125,1.50045 C77.54325,1.50045 78.069,1.79445 78.447,2.38245 C78.82425,2.97045 79.01325,3.8277 79.01325,4.95495 C79.01325,6.0822 78.82425,6.9462 78.447,7.54845 C78.069,8.14995 77.54325,8.45145 76.87125,8.45145" id="Fill-36" fill="#848484"></path>
                    <polygon id="Fill-38" fill="#848484" points="80.000175 1.437675 80.871675 1.437675 80.871675 4.891425 80.903175 4.891425 83.769675 1.437675 84.757425 1.437675 82.604175 4.062675 85.092675 8.325675 84.116175 8.325675 82.058175 4.744425 80.871675 6.140925 80.871675 8.325675 80.000175 8.325675"></polygon>
                </g>
                <g id="Group-3" transform="translate(2.250000, 18.750000)">
                    <mask id="mask-8" fill="white">
                        <use xlink:href="#path-7"></use>
                    </mask>
                    <g id="Clip-2"></g>
                    <path d="M6.8199,20.2497 L2.1654,20.2497 C0.9744,20.2497 0.00015,19.27545 0.00015,18.08445 L0.00015,2.1657 C0.00015,0.9747 0.9744,-0.0003 2.1654,-0.0003 L6.8199,-0.0003 C8.0109,-0.0003 8.98515,0.9747 8.98515,2.1657 L8.98515,18.08445 C8.98515,19.27545 8.0109,20.2497 6.8199,20.2497" id="Fill-1" fill="#4D4D8C" mask="url(#mask-8)"></path>
                </g>
                <g id="Group-3" transform="translate(297.750000, 15.750000)">
                    <mask id="mask-10" fill="white">
                        <use xlink:href="#path-9"></use>
                    </mask>
                    <g id="Clip-2"></g>
                    <line x1="0.374925" y1="26.625" x2="0.374925" y2="0.375" id="Stroke-1" stroke="#D1D1D1" stroke-width="0.75" stroke-linecap="round" mask="url(#mask-10)"></line>
                </g>
                <g id="Group-66" transform="translate(0.000000, 22.700400)">
                    <mask id="mask-12" fill="white">
                        <use xlink:href="#path-11"></use>
                    </mask>
                    <g id="Clip-65"></g>
                    <path d="M4.726275,7.69426836 C3.320025,7.6995 2.212275,6.57825 2.21676134,5.154 C2.221275,3.8415 3.367275,2.7225 4.712025,2.71722592 C6.068775,2.71125 7.187775,3.82725 7.202775,5.19825 C7.216275,6.537 6.073275,7.68975 4.726275,7.69426836 M8.843025,2.9715 C7.987275,1.3575 6.552525,0.58575 5.073525,0.489 C2.162775,0.489 0.046275,2.5875 0.000525,5.17425 C-0.024975,6.66975 0.569775,7.90125 1.538775,8.99175 C2.582025,10.16475 3.682275,11.29275 4.323525,12.76575 C4.392525,12.9225 4.597275,13.128 4.727025,13.11975 C4.865775,13.11225 5.015025,12.8925 5.115525,12.7365 C5.574525,12.02175 5.971275,11.262 6.479775,10.58475 C7.136775,9.71025 7.955025,8.9505 8.567775,8.049 C9.660525,6.441 9.755025,4.692 8.843025,2.9715" id="Fill-64" fill="#FFFFFF" mask="url(#mask-12)"></path>
                </g>
            </g>
        </g>
    </g>
</svg>