<?xml version="1.0" encoding="UTF-8"?>
<svg width="308px" height="70px" viewBox="0 0 308 70" version="1.1" xmlns="http://www.w3.org/2000/svg" xmlns:xlink="http://www.w3.org/1999/xlink">
    <!-- Generator: Sketch 59.1 (86144) - https://sketch.com -->
    <title>Group 436</title>
    <desc>Created with Sketch.</desc>
    <g id="Desktop" stroke="none" stroke-width="1" fill="none" fill-rule="evenodd">
        <g id="Homelessness-Section-3-6" transform="translate(-847.000000, -2324.000000)">
            <g id="Group-43" transform="translate(847.000000, 2319.000000)">
                <polygon id="Fill-1" fill="#E0E0E0" points="2.61225 37.461125 299.61225 37.461125 299.61225 27.711125 2.61225 27.711125"></polygon>
                <line x1="2.61255" y1="45.465575" x2="2.61255" y2="19.215575" id="Stroke-2" stroke="#D1D1D1" stroke-width="0.75" stroke-linecap="round"></line>
                <line x1="151.11255" y1="45.465575" x2="151.11255" y2="19.215575" id="Stroke-3" stroke="#D1D1D1" stroke-width="0.75" stroke-linecap="round"></line>
                <line x1="299.61255" y1="45.465575" x2="299.61255" y2="19.215575" id="Stroke-4" stroke="#D1D1D1" stroke-width="0.75" stroke-linecap="round"></line>
                <g id="Group-6" transform="translate(0.000000, 0.421125)" font-size="10.5">
                    <text id="CLUSTER-MEDIAN:-2,298" font-family="SourceSansPro-Semibold, Source Sans Pro" font-weight="500" letter-spacing="-0.0149999997" fill="#3F3F3F">
                        <tspan x="13.191675" y="71.5948205">C</tspan>
                        <tspan x="19.224675" y="71.5948205" letter-spacing="-0.361499995">L</tspan>
                        <tspan x="23.787675" y="71.5948205" letter-spacing="-0.119999997">U</tspan>
                        <tspan x="30.440175" y="71.5948205" letter-spacing="-0.225000009">S</tspan>
                        <tspan x="35.727675" y="71.5948205">TER MEDIAN: 2,298</tspan>
                    </text>
                    <text id="0" font-family="SourceSansPro-Regular, Source Sans Pro" font-weight="normal" fill="#848484">
                        <tspan x="0.003675" y="10.8418205">0</tspan>
                    </text>
                    <text id="10K" font-family="SourceSansPro-Regular, Source Sans Pro" font-weight="normal" letter-spacing="-0.0299999993" fill="#848484">
                        <tspan x="291.032175" y="10.8418205">10K</tspan>
                    </text>
                    <text id="5K" font-family="SourceSansPro-Regular, Source Sans Pro" font-weight="normal" letter-spacing="-0.0299999993" fill="#848484">
                        <tspan x="145.796175" y="11.2198205">5K</tspan>
                    </text>
                </g>
                <line x1="32.31225" y1="45.465575" x2="32.31225" y2="19.215575" id="Stroke-7" stroke="#D1D1D1" stroke-width="0.75" stroke-linecap="round"></line>
                <g id="Group-9" transform="translate(27.000000, 1.421125)" fill="#848484" font-family="SourceSansPro-Regular, Source Sans Pro" font-size="10.5" font-weight="normal" letter-spacing="-0.0299999993">
                    <text id="1K">
                        <tspan x="0.671625" y="10.2205705">1K</tspan>
                    </text>
                </g>
                <line x1="62.0127" y1="45.465575" x2="62.0127" y2="19.215575" id="Stroke-10" stroke="#D1D1D1" stroke-width="0.75" stroke-linecap="round"></line>
                <g id="Group-12" transform="translate(56.250000, 1.421125)" fill="#848484" font-family="SourceSansPro-Regular, Source Sans Pro" font-size="10.5" font-weight="normal" letter-spacing="-0.0299999993">
                    <text id="2K">
                        <tspan x="0.6702" y="10.2205705">2K</tspan>
                    </text>
                </g>
                <line x1="91.7124" y1="45.465575" x2="91.7124" y2="19.215575" id="Stroke-13" stroke="#D1D1D1" stroke-width="0.75" stroke-linecap="round"></line>
                <g id="Group-15" transform="translate(86.250000, 1.421125)" fill="#848484" font-family="SourceSansPro-Regular, Source Sans Pro" font-size="10.5" font-weight="normal" letter-spacing="-0.0299999993">
                    <text id="3K">
                        <tspan x="0.666525" y="10.2205705">3K</tspan>
                    </text>
                </g>
                <line x1="121.41285" y1="45.465575" x2="121.41285" y2="19.215575" id="Stroke-16" stroke="#D1D1D1" stroke-width="0.75" stroke-linecap="round"></line>
                <g id="Group-18" transform="translate(115.500000, 1.421125)" fill="#848484" font-family="SourceSansPro-Regular, Source Sans Pro" font-size="10.5" font-weight="normal" letter-spacing="-0.0299999993">
                    <text id="4K">
                        <tspan x="0.6687" y="10.2205705">4K</tspan>
                    </text>
                </g>
                <line x1="180.81225" y1="45.465575" x2="180.81225" y2="19.215575" id="Stroke-19" stroke="#D1D1D1" stroke-width="0.75" stroke-linecap="round"></line>
                <g id="Group-21" transform="translate(174.750000, 1.421125)" fill="#848484" font-family="SourceSansPro-Regular, Source Sans Pro" font-size="10.5" font-weight="normal" letter-spacing="-0.0299999993">
                    <text id="6K">
                        <tspan x="0.673425" y="10.2205705">6K</tspan>
                    </text>
                </g>
                <line x1="210.5127" y1="45.465575" x2="210.5127" y2="19.215575" id="Stroke-22" stroke="#D1D1D1" stroke-width="0.75" stroke-linecap="round"></line>
                <g id="Group-24" transform="translate(204.750000, 1.421125)" fill="#848484" font-family="SourceSansPro-Regular, Source Sans Pro" font-size="10.5" font-weight="normal" letter-spacing="-0.0299999993">
                    <text id="7K">
                        <tspan x="0.2937" y="10.2205705">7K</tspan>
                    </text>
                </g>
                <line x1="240.2124" y1="45.465575" x2="240.2124" y2="19.215575" id="Stroke-25" stroke="#D1D1D1" stroke-width="0.75" stroke-linecap="round"></line>
                <g id="Group-27" transform="translate(234.000000, 1.421125)" fill="#848484" font-family="SourceSansPro-Regular, Source Sans Pro" font-size="10.5" font-weight="normal" letter-spacing="-0.0299999993">
                    <text id="8K">
                        <tspan x="0.2922" y="10.2205705">8K</tspan>
                    </text>
                </g>
                <line x1="269.91285" y1="45.465575" x2="269.91285" y2="19.215575" id="Stroke-28" stroke="#D1D1D1" stroke-width="0.75" stroke-linecap="round"></line>
                <g id="Group-30" transform="translate(264.000000, 1.421125)" fill="#848484" font-family="SourceSansPro-Regular, Source Sans Pro" font-size="10.5" font-weight="normal" letter-spacing="-0.0299999993">
                    <text id="9K">
                        <tspan x="0.676725" y="10.2205705">9K</tspan>
                    </text>
                </g>
                <line x1="67.86255" y1="63.7109" x2="67.86255" y2="47.63165" id="Stroke-31" stroke="#636363" stroke-width="1.5" stroke-linecap="round"></line>
                <g id="Group-42" transform="translate(48.000000, 21.921125)">
                    <path d="M19.86255,26.01195 C19.0788,26.7957 17.5293,27.1692 16.4538,27.19995 C17.89755,26.1252 19.1568,24.72945 19.86255,23.0397 C20.5383,24.72945 21.87405,26.0637 23.2713,27.19995 C22.12005,27.1077 20.72205,26.82645 19.86255,26.01195" id="Fill-32" fill="#636363"></path>
                    <path d="M140.21265,19.289775 L4.1439,19.289775 C2.0814,19.289775 0.3939,17.602275 0.3939,15.539775 L0.3939,5.789775 C0.3939,3.727275 2.0814,2.039775 4.1439,2.039775 L140.21265,2.039775 C142.27515,2.039775 143.96265,3.727275 143.96265,5.789775 L143.96265,15.539775 C143.96265,17.602275 142.27515,19.289775 140.21265,19.289775" id="Fill-34" fill="#D5E8AA"></path>
                    <path d="M138.171375,20.803725 L5.635875,20.803725 C3.985875,20.803725 2.635875,19.453725 2.635875,17.803725 L2.635875,3.553725 C2.635875,1.904475 3.985875,0.553725 5.635875,0.553725 L138.171375,0.553725 C139.820625,0.553725 141.171375,1.904475 141.171375,3.553725 L141.171375,17.803725 C141.171375,19.453725 139.820625,20.803725 138.171375,20.803725" id="Fill-36" fill="#26660C"></path>
                    <path d="M22.146225,9.276825 C22.146225,8.644575 22.179225,8.036325 22.138725,7.431825 C22.064475,6.297825 21.159225,5.460825 19.990725,5.395575 C18.963975,5.339325 17.919975,6.120075 17.771475,7.173825 C17.675475,7.857075 17.754225,8.565825 17.754225,9.276825 L22.146225,9.276825 Z M16.612725,15.957075 L23.267475,15.957075 L23.267475,10.423575 L16.612725,10.423575 L16.612725,15.957075 Z M23.282475,9.247575 C23.475975,9.316575 23.657475,9.357075 23.815725,9.441825 C24.213225,9.654825 24.386475,10.013325 24.387225,10.451325 C24.391725,12.291825 24.393225,14.131575 24.387225,15.972075 C24.384975,16.589325 23.917725,17.055825 23.294475,17.075325 C22.870725,17.088825 22.445475,17.079075 22.020975,17.079075 C20.272725,17.079075 18.524475,17.079825 16.775475,17.079075 C15.912975,17.079075 15.490725,16.655325 15.490725,15.792825 C15.490725,14.094075 15.510225,12.394575 15.481725,10.697325 C15.468975,9.905325 15.753225,9.424575 16.598475,9.262575 C16.598475,8.743575 16.596975,8.220825 16.599225,7.697325 C16.605225,6.055575 17.603475,4.775325 19.192725,4.368075 C21.030225,3.897075 23.044725,5.283825 23.232225,7.172325 C23.290725,7.759575 23.268225,8.353575 23.282475,8.943825 C23.284725,9.050325 23.282475,9.158325 23.282475,9.247575 L23.282475,9.247575 Z" id="Fill-38" fill="#FFFFFF"></path>
                    <path d="M19.86255,11.521725 C20.43405,11.537475 20.83005,11.817225 20.98305,12.240975 C21.1458,12.692475 21.0093,13.162725 20.64705,13.486725 C20.56755,13.557225 20.5158,13.685475 20.5008,13.793475 C20.4753,13.965225 20.5008,14.142975 20.4903,14.317725 C20.47155,14.619975 20.22555,14.850225 19.93455,14.8487323 C19.6428,14.846475 19.4088,14.614725 19.3893,14.307975 C19.38405,14.232975 19.3833,14.158725 19.38705,14.082975 C19.3998,13.809225 19.3848,13.578975 19.12905,13.365225 C18.78855,13.079475 18.74055,12.560475 18.9288,12.167475 C19.1373,11.732475 19.49505,11.533725 19.86255,11.521725" id="Fill-40" fill="#FFFFFF"></path>
                </g>
            </g>
        </g>
    </g>
</svg>