<?xml version="1.0" encoding="UTF-8"?>
<svg width="305px" height="69px" viewBox="0 0 305 69" version="1.1" xmlns="http://www.w3.org/2000/svg" xmlns:xlink="http://www.w3.org/1999/xlink">
    <!-- Generator: Sketch 59.1 (86144) - https://sketch.com -->
    <title>Group 16</title>
    <desc>Created with Sketch.</desc>
    <g id="Desktop" stroke="none" stroke-width="1" fill="none" fill-rule="evenodd">
        <g id="Homelessness-Section-3-9" transform="translate(-841.000000, -1764.000000)">
            <g id="Group-16" transform="translate(841.000000, 1760.000000)">
                <polygon id="Fill-1" fill="#E0E0E0" points="2.7585 37.460375 299.7585 37.460375 299.7585 27.710375 2.7585 27.710375"></polygon>
                <line x1="2.758275" y1="45.464825" x2="2.758275" y2="19.214825" id="Stroke-2" stroke="#D1D1D1" stroke-width="0.75" stroke-linecap="round"></line>
                <line x1="77.008275" y1="45.335225" x2="77.008275" y2="19.085225" id="Stroke-3" stroke="#D1D1D1" stroke-width="0.75" stroke-linecap="round"></line>
                <line x1="151.258275" y1="45.464825" x2="151.258275" y2="19.214825" id="Stroke-4" stroke="#D1D1D1" stroke-width="0.75" stroke-linecap="round"></line>
                <line x1="225.508275" y1="45.464825" x2="225.508275" y2="19.214825" id="Stroke-5" stroke="#D1D1D1" stroke-width="0.75" stroke-linecap="round"></line>
                <line x1="299.758275" y1="45.464825" x2="299.758275" y2="19.214825" id="Stroke-6" stroke="#D1D1D1" stroke-width="0.75" stroke-linecap="round"></line>
                <g id="Group-15" transform="translate(0.000000, 0.421875)">
                    <path d="M267.508275,40.78835 L89.758275,40.78835 C87.695775,40.78835 86.008275,39.10085 86.008275,37.03835 L86.008275,27.28835 C86.008275,25.22585 87.695775,23.53835 89.758275,23.53835 L267.508275,23.53835 C269.570775,23.53835 271.258275,25.22585 271.258275,27.28835 L271.258275,37.03835 C271.258275,39.10085 269.570775,40.78835 267.508275,40.78835" id="Fill-7" fill="#F9D3B9"></path>
                    <path d="M165.9126,42.28835 L94.41435,42.28835 C92.7651,42.28835 91.41435,40.93835 91.41435,39.28835 L91.41435,25.03835 C91.41435,23.38835 92.7651,22.03835 94.41435,22.03835 L165.9126,22.03835 C167.5626,22.03835 168.9126,23.38835 168.9126,25.03835 L168.9126,39.28835 C168.9126,40.93835 167.5626,42.28835 165.9126,42.28835" id="Fill-9" fill="#E55C00"></path>
                    <text id="CLUSTER-MEDIAN:-$730" font-family="SourceSansPro-Semibold, Source Sans Pro" font-size="10.5" font-weight="500" letter-spacing="-0.0149999997" fill="#565656">
                        <tspan x="67.5498" y="70.0948205">C</tspan>
                        <tspan x="73.5828" y="70.0948205" letter-spacing="-0.361499995">L</tspan>
                        <tspan x="78.1458" y="70.0948205" letter-spacing="-0.119999997">U</tspan>
                        <tspan x="84.7983" y="70.0948205" letter-spacing="-0.225000009">S</tspan>
                        <tspan x="90.0858" y="70.0948205">TER MEDIAN: $730</tspan>
                    </text>
                    <text id="$1,000" font-family="SourceSansPro-Regular, Source Sans Pro" font-size="10.5" font-weight="normal" letter-spacing="-0.0299999993" fill="#848484">
                        <tspan x="137.2068" y="10.8433205">$1,000</tspan>
                    </text>
                    <text id="$0" font-family="SourceSansPro-Regular, Source Sans Pro" font-size="10.5" font-weight="normal" letter-spacing="-0.0299999993" fill="#848484">
                        <tspan x="0.0033" y="10.8433205">$0</tspan>
                    </text>
                    <text id="$2,000" font-family="SourceSansPro-Regular, Source Sans Pro" font-size="10.5" font-weight="normal" letter-spacing="-0.0299999993" fill="#848484">
                        <tspan x="276.7098" y="10.8433205">$2,000</tspan>
                    </text>
                    <line x1="117.23655" y1="61.03835" x2="117.23655" y2="47.9591" id="Stroke-12" stroke="#636363" stroke-width="1.5" stroke-linecap="round"></line>
                    <path d="M117.23655,48.260525 C116.4528,49.044275 114.9033,49.417775 113.8278,49.448525 C115.27155,48.373775 116.5308,46.978025 117.23655,45.288275 C117.9123,46.978025 119.24805,48.312275 120.6453,49.448525 C119.49405,49.356275 118.09605,49.075025 117.23655,48.260525" id="Fill-13" fill="#636363"></path>
                    <polygon id="Fill-14" fill="#FFFFFF" points="120.985875 30.896975 120.985875 27.555725 119.076375 27.555725 119.076375 28.987475 117.167625 27.077975 111.917625 32.327975 112.872375 32.327975 112.872375 37.578725 115.735875 37.578725 115.735875 33.283475 118.599375 33.283475 118.599375 37.578725 121.463625 37.578725 121.463625 32.327975 122.417625 32.327975"></polygon>
                </g>
            </g>
        </g>
    </g>
</svg>