<?xml version="1.0" encoding="UTF-8"?>
<svg width="303px" height="68px" viewBox="0 0 303 68" version="1.1" xmlns="http://www.w3.org/2000/svg" xmlns:xlink="http://www.w3.org/1999/xlink">
    <!-- Generator: Sketch 59.1 (86144) - https://sketch.com -->
    <title>Group 21</title>
    <desc>Created with Sketch.</desc>
    <g id="Desktop" stroke="none" stroke-width="1" fill="none" fill-rule="evenodd">
        <g id="Homelessness-Section-3-9" transform="translate(-845.000000, -1585.000000)">
            <g id="Group-21" transform="translate(845.000000, 1581.000000)">
                <polygon id="Fill-1" fill="#E0E0E0" points="2.58825 37.210625 299.58825 37.210625 299.58825 27.460625 2.58825 27.460625"></polygon>
                <g id="Group-3" transform="translate(0.000000, 0.421875)" font-size="10.5">
                    <text id="CLUSTER-MEDIAN:-$12,659" font-family="SourceSansPro-Semibold, Source Sans Pro" font-weight="500" letter-spacing="-0.0149999997" fill="#565656">
                        <tspan x="37.9845" y="69.3448205">C</tspan>
                        <tspan x="44.0175" y="69.3448205" letter-spacing="-0.361499995">L</tspan>
                        <tspan x="48.5805" y="69.3448205" letter-spacing="-0.119999997">U</tspan>
                        <tspan x="55.233" y="69.3448205" letter-spacing="-0.225000009">S</tspan>
                        <tspan x="60.5205" y="69.3448205">TER MEDIAN: $12,659</tspan>
                    </text>
                    <text id="$10K" font-family="SourceSansPro-Regular, Source Sans Pro" font-weight="normal" letter-spacing="-0.0299999993" fill="#848484">
                        <tspan x="68.4765" y="10.8493205">$10K</tspan>
                    </text>
                    <text id="$15K" font-family="SourceSansPro-Regular, Source Sans Pro" font-weight="normal" letter-spacing="-0.0299999993" fill="#848484">
                        <tspan x="103.914" y="10.8493205">$15K</tspan>
                    </text>
                    <text id="$5K" font-family="SourceSansPro-Regular, Source Sans Pro" font-weight="normal" letter-spacing="-0.0299999993" fill="#848484">
                        <tspan x="35.4435" y="10.8493205">$5K</tspan>
                    </text>
                    <text id="$0K" font-family="SourceSansPro-Regular, Source Sans Pro" font-weight="normal" letter-spacing="-0.0299999993" fill="#848484">
                        <tspan x="0.006" y="10.8493205">$0K</tspan>
                    </text>
                    <text id="$30K" font-family="SourceSansPro-Regular, Source Sans Pro" font-weight="normal" letter-spacing="-0.0299999993" fill="#848484">
                        <tspan x="210.2265" y="10.8493205">$30K</tspan>
                    </text>
                    <text id="$35K" font-family="SourceSansPro-Regular, Source Sans Pro" font-weight="normal" letter-spacing="-0.0299999993" fill="#848484">
                        <tspan x="245.664" y="10.8493205">$35K</tspan>
                    </text>
                    <text id="$20K" font-family="SourceSansPro-Regular, Source Sans Pro" font-weight="normal" letter-spacing="-0.0299999993" fill="#848484">
                        <tspan x="139.3515" y="10.8493205">$20K</tspan>
                    </text>
                    <text id="$25K" font-family="SourceSansPro-Regular, Source Sans Pro" font-weight="normal" letter-spacing="-0.0299999993" fill="#848484">
                        <tspan x="174.789" y="10.8493205">$25K</tspan>
                    </text>
                    <text id="$40K" font-family="SourceSansPro-Regular, Source Sans Pro" font-weight="normal" letter-spacing="-0.0299999993" fill="#848484">
                        <tspan x="281.1015" y="10.8493205">$40K</tspan>
                    </text>
                </g>
                <line x1="2.5884" y1="45.464825" x2="2.5884" y2="19.214825" id="Stroke-4" stroke="#D1D1D1" stroke-width="0.75" stroke-linecap="round"></line>
                <line x1="76.8384" y1="45.335225" x2="76.8384" y2="19.085225" id="Stroke-5" stroke="#D1D1D1" stroke-width="0.75" stroke-linecap="round"></line>
                <line x1="39.7134" y1="45.335225" x2="39.7134" y2="19.085225" id="Stroke-6" stroke="#D1D1D1" stroke-width="0.75" stroke-linecap="round"></line>
                <line x1="113.9634" y1="45.335225" x2="113.9634" y2="19.085225" id="Stroke-7" stroke="#D1D1D1" stroke-width="0.75" stroke-linecap="round"></line>
                <line x1="188.2134" y1="45.335225" x2="188.2134" y2="19.085225" id="Stroke-8" stroke="#D1D1D1" stroke-width="0.75" stroke-linecap="round"></line>
                <line x1="262.4634" y1="45.335225" x2="262.4634" y2="19.085225" id="Stroke-9" stroke="#D1D1D1" stroke-width="0.75" stroke-linecap="round"></line>
                <line x1="151.0884" y1="45.464825" x2="151.0884" y2="19.214825" id="Stroke-10" stroke="#D1D1D1" stroke-width="0.75" stroke-linecap="round"></line>
                <line x1="225.3384" y1="45.464825" x2="225.3384" y2="19.214825" id="Stroke-11" stroke="#D1D1D1" stroke-width="0.75" stroke-linecap="round"></line>
                <line x1="299.5884" y1="45.464825" x2="299.5884" y2="19.214825" id="Stroke-12" stroke="#D1D1D1" stroke-width="0.75" stroke-linecap="round"></line>
                <line x1="95.152575" y1="61.460225" x2="95.152575" y2="48.380975" id="Stroke-13" stroke="#636363" stroke-width="1.5" stroke-linecap="round"></line>
                <g id="Group-20" transform="translate(33.750000, 21.921875)">
                    <path d="M61.402575,26.760525 C60.618825,27.544275 59.069325,27.917775 57.993825,27.948525 C59.437575,26.873775 60.696825,25.478025 61.402575,23.788275 C62.078325,25.478025 63.414075,26.812275 64.811325,27.948525 C63.660075,27.856275 62.262075,27.575025 61.402575,26.760525" id="Fill-14" fill="#636363"></path>
                    <path d="M232.8384,19.28835 L4.0884,19.28835 C2.0259,19.28835 0.3384,17.60085 0.3384,15.53835 L0.3384,5.78835 C0.3384,3.72585 2.0259,2.03835 4.0884,2.03835 L232.8384,2.03835 C234.9009,2.03835 236.5884,3.72585 236.5884,5.78835 L236.5884,15.53835 C236.5884,17.60085 234.9009,19.28835 232.8384,19.28835" id="Fill-16" fill="#F9D3B9"></path>
                    <path d="M74.8806,20.78835 L54.8121,20.78835 C53.4711,20.78835 52.3731,19.69035 52.3731,18.34935 L52.3731,2.9766 C52.3731,1.6356 53.4711,0.53835 54.8121,0.53835 L74.8806,0.53835 C76.2216,0.53835 77.31885,1.6356 77.31885,2.9766 L77.31885,18.34935 C77.31885,19.69035 76.2216,20.78835 74.8806,20.78835" id="Fill-18" fill="#E55C00"></path>
                </g>
                <text id="$" font-family="SourceSansPro-Bold, Source Sans Pro" font-size="13.5" font-weight="bold" fill="#FFFFFF">
                    <tspan x="91.03785" y="32.9957299">$</tspan>
                </text>
            </g>
        </g>
    </g>
</svg>