<?xml version="1.0" encoding="UTF-8"?>
<svg width="105px" height="65px" viewBox="0 0 105 65" version="1.1" xmlns="http://www.w3.org/2000/svg" xmlns:xlink="http://www.w3.org/1999/xlink">
    <!-- Generator: Sketch 59.1 (86144) - https://sketch.com -->
    <title>Bed</title>
    <desc>Created with Sketch.</desc>
    <g id="Export-Outlined-SVG" stroke="none" stroke-width="1" fill="none" fill-rule="evenodd">
        <g id="3" transform="translate(-841.000000, -1076.000000)">
            <g id="Bed" transform="translate(842.000000, 1077.000000)">
                <path d="M22.9200736,27.0734589 C27.9205968,27.0950333 31.8698354,23.2527698 31.8601262,18.3735509 C31.8511293,13.6034065 27.9011424,9.66402185 23.1004007,9.63698027 C18.1709608,9.60948457 14.2157362,13.4973203 14.2037327,18.383263 C14.1910441,23.2221392 18.0317871,27.0517023 22.9200736,27.0734589 L22.9200736,27.0734589 Z M33.5384224,30.6018551 L31.3213716,30.6018551 C27.1057577,30.6026022 22.8886473,30.5674892 18.6737816,30.6190381 C16.5472685,30.6451861 15.1742384,32.0698792 15.112134,34.1116653 C15.0485332,36.2064946 16.4627168,37.894909 18.5817474,37.9180687 C24.843064,37.9845593 31.105877,37.9785826 37.3671935,37.921057 C39.363512,37.9023799 40.9146244,36.3379817 40.9340788,34.3582037 C40.9879525,28.7879302 40.9887007,23.2161626 40.9340788,17.645142 C40.9138762,15.6190446 39.1180875,14.0187864 37.1614261,14.0665999 C35.278841,14.111425 33.6192329,15.6623756 33.5780794,17.6264648 C33.5032549,21.2154661 33.5451566,24.8067087 33.5384224,28.3964571 C33.5376742,29.0583754 33.5384224,29.7195465 33.5384224,30.6018551 L33.5384224,30.6018551 Z M44.034059,37.5579732 C44.7501298,37.6252109 45.1728884,37.6991725 45.5963952,37.6999195 C61.9156249,37.7044021 78.2356028,37.6857249 94.5548324,37.7350649 C95.9869739,37.7402622 96.4531307,37.1112157 96.484557,35.906166 C96.5511509,33.3713031 96.7629043,30.8192571 96.5676122,28.3015772 C95.9316038,20.0888604 89.7443635,14.1749273 81.5054347,14.0867712 C69.5305171,13.9590195 57.5533548,14.0665999 45.5776891,14.024763 C44.314651,14.0202805 44.0018845,14.4857151 44.0163441,15.656399 C44.0692266,19.6824456 44.0348073,23.7107335 44.034059,27.7375272 L44.034059,37.5579732 Z M91.1712673,52.6371578 C91.1712673,55.3169554 91.1847357,57.901126 91.1660295,60.4852966 C91.1525611,62.2035945 92.0527002,62.9730931 93.6936021,62.9842994 C95.8657582,63.0014823 98.0394107,63.007459 100.211567,62.9872877 C102.267745,62.9693576 102.985312,62.2499138 102.991298,60.1789913 C103.005515,54.9732958 102.998032,49.7668532 102.998032,44.5604106 C102.997284,40.9273312 102.816957,40.7472835 99.2545611,40.7472835 C71.0105463,40.7480306 42.7672798,40.7480306 14.523265,40.7480306 L11.9051547,40.7480306 L11.9051547,38.2027084 C11.9051547,27.7293093 11.8984205,17.254416 11.9103925,6.78101684 C11.9126372,4.78629712 11.5347733,2.94995964 9.97917137,1.55365584 C8.06441169,-0.166136217 5.81144514,-0.38428534 3.54875139,0.536124657 C1.11919895,1.52451948 0.0215231199,3.57527065 0.0132924217,6.15570582 C-0.0106514274,13.5309392 0.00506172358,20.9061725 0.00506172358,28.2814059 C0.0043134783,38.8175603 0.00132049716,49.3537146 0.00805470472,59.889869 C0.00955119529,62.2895094 0.702426329,62.9745872 3.09755949,62.9880348 C4.8970894,62.9992411 6.69736755,62.9947586 8.49764571,62.989529 C11.2848594,62.9820581 11.8991688,62.3799068 11.9044065,59.6418364 C11.9096442,57.3124222 11.9051547,54.9830079 11.9051547,52.6371578 L91.1712673,52.6371578 Z" id="Fill-1" fill="#4D4D8C"></path>
                <path d="M22.9200736,27.0734589 C27.9205968,27.0950333 31.8698354,23.2527698 31.8601262,18.3735509 C31.8511293,13.6034065 27.9011424,9.66402185 23.1004007,9.63698027 C18.1709608,9.60948457 14.2157362,13.4973203 14.2037327,18.383263 C14.1910441,23.2221392 18.0317871,27.0517023 22.9200736,27.0734589 Z M33.5384224,30.6018551 L31.3213716,30.6018551 C27.1057577,30.6026022 22.8886473,30.5674892 18.6737816,30.6190381 C16.5472685,30.6451861 15.1742384,32.0698792 15.112134,34.1116653 C15.0485332,36.2064946 16.4627168,37.894909 18.5817474,37.9180687 C24.843064,37.9845593 31.105877,37.9785826 37.3671935,37.921057 C39.363512,37.9023799 40.9146244,36.3379817 40.9340788,34.3582037 C40.9879525,28.7879302 40.9887007,23.2161626 40.9340788,17.645142 C40.9138762,15.6190446 39.1180875,14.0187864 37.1614261,14.0665999 C35.278841,14.111425 33.6192329,15.6623756 33.5780794,17.6264648 C33.5032549,21.2154661 33.5451566,24.8067087 33.5384224,28.3964571 C33.5376742,29.0583754 33.5384224,29.7195465 33.5384224,30.6018551 Z M44.034059,37.5579732 C44.7501298,37.6252109 45.1728884,37.6991725 45.5963952,37.6999195 C61.9156249,37.7044021 78.2356028,37.6857249 94.5548324,37.7350649 C95.9869739,37.7402622 96.4531307,37.1112157 96.484557,35.906166 C96.5511509,33.3713031 96.7629043,30.8192571 96.5676122,28.3015772 C95.9316038,20.0888604 89.7443635,14.1749273 81.5054347,14.0867712 C69.5305171,13.9590195 57.5533548,14.0665999 45.5776891,14.024763 C44.314651,14.0202805 44.0018845,14.4857151 44.0163441,15.656399 C44.0692266,19.6824456 44.0348073,23.7107335 44.034059,27.7375272 L44.034059,37.5579732 Z M91.1712673,52.6371578 C91.1712673,55.3169554 91.1847357,57.901126 91.1660295,60.4852966 C91.1525611,62.2035945 92.0527002,62.9730931 93.6936021,62.9842994 C95.8657582,63.0014823 98.0394107,63.007459 100.211567,62.9872877 C102.267745,62.9693576 102.985312,62.2499138 102.991298,60.1789913 C103.005515,54.9732958 102.998032,49.7668532 102.998032,44.5604106 C102.997284,40.9273312 102.816957,40.7472835 99.2545611,40.7472835 C71.0105463,40.7480306 42.7672798,40.7480306 14.523265,40.7480306 L11.9051547,40.7480306 L11.9051547,38.2027084 C11.9051547,27.7293093 11.8984205,17.254416 11.9103925,6.78101684 C11.9126372,4.78629712 11.5347733,2.94995964 9.97917137,1.55365584 C8.06441169,-0.166136217 5.81144514,-0.38428534 3.54875139,0.536124657 C1.11919895,1.52451948 0.0215231199,3.57527065 0.0132924217,6.15570582 C-0.0106514274,13.5309392 0.00506172358,20.9061725 0.00506172358,28.2814059 C0.0043134783,38.8175603 0.00132049716,49.3537146 0.00805470472,59.889869 C0.00955119529,62.2895094 0.702426329,62.9745872 3.09755949,62.9880348 C4.8970894,62.9992411 6.69736755,62.9947586 8.49764571,62.989529 C11.2848594,62.9820581 11.8991688,62.3799068 11.9044065,59.6418364 C11.9096442,57.3124222 11.9051547,54.9830079 11.9051547,52.6371578 L91.1712673,52.6371578 Z" id="Stroke-3" stroke="#FFFFFF" stroke-width="0.96975"></path>
                <path d="M91.1709863,52.6371034 L11.9048469,52.6371034 C11.9048469,54.9836982 11.9093363,57.312363 11.9040986,59.6417748 C11.8988609,62.3798423 11.2845513,62.9827401 8.49733669,62.9894639 C6.69705792,62.9946935 4.89677916,62.999176 3.09724863,62.9879697 C0.702114665,62.9745222 0.00923929613,62.289445 0.00774280506,59.8898072 C0,49.3536637 0.00400157736,38.8175202 0.0047498229,28.2813767 C0.0047498229,20.9061509 -0.0102150879,13.5309252 0.0129805238,6.15569947 C0.0219594703,3.57526696 1.11888743,1.52451791 3.54844069,0.536124103 C5.8111352,-0.384284943 8.06485077,-0.166136046 9.97886286,1.55365423 C11.5344653,2.94995659 11.9123293,4.78629218 11.9100846,6.78100983 C11.8981127,17.2551452 11.9048469,27.7292807 11.9048469,38.2034161 L11.9048469,40.7479885 L14.522958,40.7479885 C42.7677306,40.7479885 71.0110067,40.7479885 99.2542828,40.7472414 C102.81668,40.7472414 102.997007,40.927289 102.997755,44.5603646 C102.998504,49.7668018 103.005238,54.973239 102.991021,60.1789291 C102.985035,62.2498495 102.267468,62.9692926 100.211289,62.9872227 C98.0391321,63.007394 95.8654788,63.0014173 93.693322,62.9849814 C92.0524195,62.973028 91.1530284,62.2042773 91.1657486,60.4852341 C91.1852029,57.9010662 91.1709863,55.3168982 91.1709863,52.6371034" id="Fill-5" fill="#365608"></path>
                <path d="M43.0171361,36.820767 L43.0171361,26.8808208 C43.0178896,22.8060931 43.0525499,18.7290971 43.0005594,14.6543694 C42.9847362,13.4695302 43.2996934,12.9984678 44.5715779,13.0030045 C56.6311229,13.0453472 68.6921749,12.936466 80.7509665,13.0657624 C89.0476019,13.1549845 95.2781785,19.1404261 95.9186417,27.451691 C96.1153016,29.9998135 95.902065,32.5834736 95.8357582,35.1489869 C95.8041118,36.3678515 95.33469,37.0052601 93.8925176,37 C77.4582322,36.9500634 61.0239469,36.9689664 44.5904151,36.9636736 C44.1639419,36.9629175 43.7382223,36.8888177 43.0171361,36.820767" id="Fill-7" fill="#365608"></path>
                <path d="M33.5247549,30.6049207 C33.5247549,29.718949 33.5240027,29.0557831 33.5247549,28.3911168 C33.5315243,24.7857149 33.4886512,21.1803129 33.5646194,17.5764113 C33.605236,15.6034177 35.2735261,14.0467783 37.1667119,14.0010168 C39.1336094,13.953755 40.9380404,15.5599068 40.9591008,17.5944158 C41.0140085,23.1885653 41.0132563,28.783465 40.9591008,34.3768643 C40.9387925,36.3656119 39.3795656,37.9357547 37.3728036,37.9545094 C31.0794839,38.0122738 24.7839077,38.0190255 18.4898358,37.9515086 C16.3597196,37.929003 14.9381379,36.2328286 15.0020715,34.1293024 C15.0645007,32.0797897 16.4447137,30.6491818 18.5823514,30.622175 C22.8192667,30.570412 27.0576863,30.6056709 31.2953537,30.6049207 L33.5247549,30.6049207 Z" id="Fill-9" fill="#365608"></path>
                <path d="M22.8859673,27 C17.9025512,26.9775402 13.9870644,23.0242113 14,18.0289497 C14.012237,12.9851005 18.0444332,8.97161568 23.0698037,9 C27.9639715,9.02791553 31.990828,13.0946153 32,18.0189237 C32.0098982,23.0558318 27.9838045,27.0222716 22.8859673,27" id="Fill-11" fill="#365608"></path>
            </g>
        </g>
    </g>
</svg>