<?xml version="1.0" encoding="UTF-8"?>
<svg width="189px" height="97px" viewBox="0 0 189 97" version="1.1" xmlns="http://www.w3.org/2000/svg" xmlns:xlink="http://www.w3.org/1999/xlink">
    <!-- Generator: Sketch 59.1 (86144) - https://sketch.com -->
    <title>Population Density</title>
    <desc>Created with Sketch.</desc>
    <g id="Export-Outlined-SVG" stroke="none" stroke-width="1" fill="none" fill-rule="evenodd">
        <g id="3" transform="translate(-548.000000, -819.000000)">
            <g id="Population-Density" transform="translate(548.000000, 819.000000)">
                <g id="Cluster-3_Population-Density">
                    <polygon id="Fill-1" fill="#365608" points="0 96.749775 187.5 96.749775 187.5 71.250525 0 71.250525"></polygon>
                    <path d="M84.392125,87.1429565 C84.7401267,87.4909583 85.1361228,87.7879553 85.580125,88.0339565 C86.0241272,88.2799578 86.5341221,88.4029565 87.110125,88.4029565 C87.7341281,88.4029565 88.241123,88.2499581 88.631125,87.9439565 C89.0211269,87.637955 89.216125,87.2149565 89.216125,86.6749565 C89.216125,86.374955 89.1621255,86.1049577 89.054125,85.8649565 C88.9461245,85.6249553 88.7631263,85.4209574 88.505125,85.2529565 C88.2471237,85.0849557 87.902125,84.955957 87.470125,84.8659565 C87.0381228,84.7759561 86.4981282,84.7309565 85.850125,84.7309565 L85.850125,83.2189565 C86.4141278,83.2189565 86.8851231,83.173957 87.263125,83.0839565 C87.6411269,82.9939561 87.9471238,82.8679574 88.181125,82.7059565 C88.4151262,82.5439557 88.5831245,82.3489577 88.685125,82.1209565 C88.7871255,81.8929554 88.838125,81.6469579 88.838125,81.3829565 C88.838125,80.9029541 88.6881265,80.5279579 88.388125,80.2579565 C88.0881235,79.9879552 87.6741276,79.8529565 87.146125,79.8529565 C86.6901227,79.8529565 86.2791268,79.9519556 85.913125,80.1499565 C85.5471232,80.3479575 85.1901267,80.6089549 84.842125,80.9329565 L83.780125,79.6549565 C84.2721275,79.2229544 84.7971222,78.8749579 85.355125,78.6109565 C85.9131278,78.3469552 86.5341216,78.2149565 87.218125,78.2149565 C87.7701278,78.2149565 88.2741227,78.2809559 88.730125,78.4129565 C89.1861273,78.5449572 89.5761234,78.7399553 89.900125,78.9979565 C90.2241266,79.2559578 90.4761241,79.5739547 90.656125,79.9519565 C90.8361259,80.3299584 90.926125,80.7589541 90.926125,81.2389565 C90.926125,81.8869598 90.7491268,82.4269544 90.395125,82.8589565 C90.0411232,83.2909587 89.5521281,83.6269553 88.928125,83.8669565 L88.928125,83.9389565 C89.6121284,84.1189574 90.1791227,84.4489541 90.629125,84.9289565 C91.0791272,85.4089589 91.304125,86.0269528 91.304125,86.7829565 C91.304125,87.3109592 91.199126,87.7789545 90.989125,88.1869565 C90.7791239,88.5949586 90.4911268,88.9399551 90.125125,89.2219565 C89.7591232,89.503958 89.3331274,89.7199558 88.847125,89.8699565 C88.3611226,90.0199573 87.8421278,90.0949565 87.290125,90.0949565 C86.3541203,90.0949565 85.5741281,89.9389581 84.950125,89.6269565 C84.3261219,89.314955 83.810127,88.9309588 83.402125,88.4749565 L84.392125,87.1429565 Z M94.767625,86.7289565 C94.767625,87.3049594 94.971623,87.7639548 95.379625,88.1059565 C95.787627,88.4479583 96.2856221,88.6189565 96.873625,88.6189565 C97.4256278,88.6189565 97.8786232,88.468958 98.232625,88.1689565 C98.5866268,87.868955 98.763625,87.4489592 98.763625,86.9089565 C98.763625,86.596955 98.6916257,86.3299577 98.547625,86.1079565 C98.4036243,85.8859554 98.2086262,85.6879574 97.962625,85.5139565 C97.7166238,85.3399557 97.4256267,85.1809573 97.089625,85.0369565 L96.3856255,84.7409567 C96.262959,84.6902901 96.1376256,84.6389568 96.009625,84.5869565 C95.6496232,84.8509579 95.3526262,85.1629547 95.118625,85.5229565 C94.8846238,85.8829583 94.767625,86.2849543 94.767625,86.7289565 Z M97.593625,83.4169565 C97.9056266,83.104955 98.1426242,82.7869582 98.304625,82.4629565 C98.4666258,82.1389549 98.547625,81.7969583 98.547625,81.4369565 C98.547625,80.932954 98.4006265,80.5159582 98.106625,80.1859565 C97.8126235,79.8559549 97.3956277,79.6909565 96.855625,79.6909565 C96.4116228,79.6909565 96.0396265,79.8259552 95.739625,80.0959565 C95.4396235,80.3659579 95.289625,80.752954 95.289625,81.2569565 C95.289625,81.544958 95.3496244,81.7969555 95.469625,82.0129565 C95.5896256,82.2289576 95.7546239,82.4179557 95.964625,82.5799565 C96.174626,82.7419574 96.4176236,82.8919559 96.693625,83.0299565 C96.9696264,83.1679572 97.2696234,83.2969559 97.593625,83.4169565 Z M92.949625,86.9449565 C92.949625,86.5849547 93.0066244,86.257958 93.120625,85.9639565 C93.2346256,85.6699551 93.387624,85.4029577 93.579625,85.1629565 C93.771626,84.9229553 93.9906238,84.7069575 94.236625,84.5149565 C94.4826262,84.3229556 94.7436236,84.1549573 95.019625,84.0109565 L95.019625,83.9389565 C94.5756228,83.626955 94.2006265,83.2549587 93.894625,82.8229565 C93.5886235,82.3909544 93.435625,81.8689596 93.435625,81.2569565 C93.435625,80.7889542 93.5226241,80.3689584 93.696625,79.9969565 C93.8706259,79.6249547 94.1106235,79.3069579 94.416625,79.0429565 C94.7226265,78.7789552 95.0886229,78.5749573 95.514625,78.4309565 C95.9406271,78.2869558 96.3996225,78.2149565 96.891625,78.2149565 C97.4076276,78.2149565 97.8726229,78.2899558 98.286625,78.4399565 C98.7006271,78.5899573 99.0546235,78.7999552 99.348625,79.0699565 C99.6426265,79.3399579 99.8676242,79.6639547 100.023625,80.0419565 C100.179626,80.4199584 100.257625,80.8429542 100.257625,81.3109565 C100.257625,81.598958 100.212625,81.8719553 100.122625,82.1299565 C100.032625,82.3879578 99.9156257,82.6279554 99.771625,82.8499565 C99.6276243,83.0719577 99.4626259,83.2759556 99.276625,83.4619565 C99.0906241,83.6479575 98.9076259,83.8069559 98.727625,83.9389565 L98.727625,84.0109565 C98.9916263,84.1549573 99.2436238,84.3199556 99.483625,84.5059565 C99.7236262,84.6919575 99.9336241,84.9049553 100.113625,85.1449565 C100.293626,85.3849577 100.437624,85.654955 100.545625,85.9549565 C100.653626,86.254958 100.707625,86.5969546 100.707625,86.9809565 C100.707625,87.4249588 100.614626,87.8359547 100.428625,88.2139565 C100.242624,88.5919584 99.9816267,88.9219551 99.645625,89.2039565 C99.3096233,89.485958 98.9016274,89.7049558 98.421625,89.8609565 C97.9416226,90.0169573 97.4136279,90.0949565 96.837625,90.0949565 C96.2736222,90.0949565 95.7546274,90.0169573 95.280625,89.8609565 C94.8066226,89.7049558 94.3986267,89.4889579 94.056625,89.2129565 C93.7146233,88.9369552 93.444626,88.6069585 93.246625,88.2229565 C93.048624,87.8389546 92.949625,87.4129589 92.949625,86.9449565 Z" id="38" fill="#FFFFFF" fill-rule="nonzero"></path>
                    <path d="M77.10165,11.951775 C77.10165,9.928275 75.9579,8.285025 73.92915,8.285025 L66.58515,8.285025 C64.72665,8.285025 63.60915,9.667275 63.43365,11.468775 C63.3954,11.621025 63.36765,11.783025 63.36765,11.951775 L62.87565,23.930775 C62.87565,24.850275 63.52365,25.592775 64.32015,25.592775 C65.1279,25.592775 65.7669,24.850275 65.7669,23.930775 L65.7669,12.800775 L66.4449,20.600025 C66.4449,20.600775 66.4449,20.601525 66.4449,20.602275 L66.4449,40.090275 C66.4449,41.049525 67.2534,41.825025 68.2389,41.749275 C69.12015,41.681775 69.7629,40.872525 69.7629,39.988275 L69.7629,24.317025 C69.91965,24.309525 70.0704,24.301275 70.23465,24.301275 C70.39665,24.301275 70.5564,24.309525 70.70415,24.317025 L70.70415,40.033275 C70.70415,40.712025 71.0739,41.372775 71.7039,41.624025 C72.8874,42.095775 74.0259,41.219775 74.0259,40.090275 L74.0259,20.602275 L74.0259,20.600025 L74.6559,13.223775 L74.6559,23.930775 C74.6559,24.850275 75.3204,25.592775 76.1259,25.592775 C76.93965,25.592775 77.6004,24.850275 77.6004,23.930775 L77.10165,11.951775 Z M67.26765,5.272275 L67.49265,5.128275 C68.0409,6.379275 69.06915,7.447275 70.24515,7.447275 C71.41515,7.447275 72.4314,6.387525 72.9894,5.154525 L73.1994,5.272275 C73.37265,5.288775 73.53315,5.144025 73.5474,4.933275 L73.66215,3.635025 C73.6764,3.450525 73.5699,3.295275 73.42965,3.257025 C73.4184,1.504275 71.9949,0.097275 70.24515,0.097275 C68.49615,0.097275 67.0779,1.504275 67.0614,3.248775 C66.90315,3.281775 66.7944,3.439275 66.81465,3.635025 L66.92715,4.933275 C66.9444,5.144025 67.1004,5.288775 67.26765,5.272275 L67.26765,5.272275 Z" id="Fill-3" fill="#D3D3D3"></path>
                    <path d="M58.1799,22.5375 L54.04365,10.9425 L53.98065,10.746 C53.62215,9.27225 52.56315,8.21175 50.9409,8.21175 L45.5454,8.21175 C43.8639,8.21175 42.78465,9.35325 42.46215,10.89975 L38.83515,22.5285 C38.6634,23.4375 39.16065,24.2865 39.9564,24.435 C40.75215,24.582 41.51415,23.9595 41.68515,23.06475 L44.50815,12.57375 L41.63115,31.62825 C41.6289,31.6425 41.6394,31.65525 41.6544,31.65525 L44.3994,31.65525 C44.4129,31.65525 44.42415,31.6665 44.42415,31.67925 L44.42415,39.975 C44.42415,40.85775 45.05715,41.67225 45.9369,41.748 C46.92015,41.8335 47.74215,41.052 47.74215,40.0845 L47.74215,31.65525 L48.6909,31.65525 L48.6909,39.97875 C48.6909,40.8615 49.32615,41.6745 50.2059,41.748 C51.19215,41.832 52.01415,41.0505 52.01415,40.0845 L52.01415,31.67925 C52.01415,31.6665 52.0254,31.65525 52.0389,31.65525 L55.24215,31.65525 C55.2564,31.65525 55.26765,31.6425 55.2654,31.6275 L52.00365,12.57675 L55.31265,23.19375 C55.5114,24.0825 56.32515,24.66225 57.11715,24.48 C57.9054,24.30075 58.3824,23.4285 58.1799,22.5375 L58.1799,22.5375 Z M51.59565,7.62075 C51.6099,7.62075 51.6204,7.6095 51.61965,7.5945 L51.37515,5.12025 L51.5154,4.85475 L51.6219,3.5595 C51.63315,3.37425 51.5319,3.21975 51.3924,3.17625 C51.38115,1.4265 49.95765,-5.32907052e-14 48.20265,-5.32907052e-14 C46.44765,-5.32907052e-14 45.02415,1.42125 45.00765,3.17325 C44.85465,3.20325 44.74065,3.36075 44.75715,3.5595 L44.8674,4.85475 L45.00165,5.12025 L44.7594,7.5945 C44.7579,7.6095 44.76915,7.62075 44.7834,7.62075 L51.59565,7.62075 Z" id="Fill-4" fill="#D3D3D3"></path>
                    <path d="M119.415525,11.951775 C119.415525,9.928275 118.271775,8.285025 116.243025,8.285025 L108.898275,8.285025 C107.040525,8.285025 105.922275,9.667275 105.747525,11.468775 C105.709275,11.621025 105.681525,11.783025 105.681525,11.951775 L105.189525,23.930775 C105.189525,24.850275 105.837525,25.592775 106.634025,25.592775 C107.441775,25.592775 108.080775,24.850275 108.080775,23.930775 L108.080775,12.800775 L108.758775,20.600025 L108.758775,20.602275 L108.758775,40.090275 C108.758775,41.049525 109.567275,41.825025 110.552775,41.749275 C111.434025,41.681775 112.076775,40.872525 112.076775,39.988275 L112.076775,24.317025 C112.233525,24.309525 112.384275,24.301275 112.548525,24.301275 C112.710525,24.301275 112.870275,24.309525 113.018025,24.317025 L113.018025,40.033275 C113.018025,40.712025 113.387775,41.372775 114.017775,41.624025 C115.201275,42.095775 116.339775,41.219775 116.339775,40.090275 L116.339775,20.602275 L116.339775,20.600025 L116.969775,13.223775 L116.969775,23.930775 C116.969775,24.850275 117.634275,25.592775 118.439775,25.592775 C119.253525,25.592775 119.914275,24.850275 119.914275,23.930775 L119.415525,11.951775 Z M109.581525,5.272275 L109.806525,5.128275 C110.354775,6.379275 111.383025,7.447275 112.559025,7.447275 C113.729025,7.447275 114.745275,6.387525 115.303275,5.154525 L115.513275,5.272275 C115.686525,5.288775 115.846275,5.144025 115.861275,4.933275 L115.975275,3.635025 C115.990275,3.450525 115.883775,3.295275 115.743525,3.257025 C115.732275,1.504275 114.308775,0.097275 112.559025,0.097275 C110.810025,0.097275 109.391775,1.504275 109.375275,3.248775 C109.217025,3.281775 109.108275,3.439275 109.128525,3.635025 L109.241025,4.933275 C109.257525,5.144025 109.414275,5.288775 109.581525,5.272275 L109.581525,5.272275 Z" id="Fill-5" fill="#D3D3D3"></path>
                    <path d="M101.9934,22.5375 L97.85715,10.9425 L97.7949,10.746 C97.43565,9.27225 96.3774,8.21175 94.7544,8.21175 L89.3589,8.21175 C87.67815,8.21175 86.5989,9.35325 86.2764,10.89975 L82.64865,22.5285 C82.47765,23.4375 82.97415,24.2865 83.7699,24.435 C84.56565,24.582 85.32765,23.9595 85.4994,23.06475 L88.3224,12.57375 L85.44465,31.62825 C85.4424,31.6425 85.45365,31.65525 85.4679,31.65525 L88.21365,31.65525 C88.22715,31.65525 88.23765,31.6665 88.23765,31.67925 L88.23765,39.975 C88.23765,40.85775 88.8714,41.67225 89.7504,41.748 C90.73365,41.8335 91.55565,41.052 91.55565,40.0845 L91.55565,31.65525 L92.5044,31.65525 L92.5044,39.97875 C92.5044,40.8615 93.1404,41.6745 94.02015,41.748 C95.00565,41.832 95.8284,41.0505 95.8284,40.0845 L95.8284,31.67925 C95.8284,31.6665 95.8389,31.65525 95.8524,31.65525 L99.05565,31.65525 C99.07065,31.65525 99.0819,31.6425 99.0789,31.6275 L95.81715,12.57675 L99.12615,23.19375 C99.3249,24.0825 100.1394,24.66225 100.93065,24.48 C101.7189,24.30075 102.1959,23.4285 101.9934,22.5375 L101.9934,22.5375 Z M95.40915,7.62075 C95.4234,7.62075 95.43465,7.6095 95.43315,7.5945 L95.1894,5.12025 L95.3289,4.85475 L95.43615,3.5595 C95.44665,3.37425 95.3454,3.21975 95.2059,3.17625 C95.19465,1.4265 93.77115,-5.32907052e-14 92.01615,-5.32907052e-14 C90.26115,-5.32907052e-14 88.83765,1.42125 88.82115,3.17325 C88.66815,3.20325 88.55415,3.36075 88.57065,3.5595 L88.6809,4.85475 L88.8159,5.12025 L88.5729,7.5945 C88.57215,7.6095 88.5834,7.62075 88.5969,7.62075 L95.40915,7.62075 Z" id="Fill-6" fill="#D3D3D3"></path>
                    <path d="M144.446775,22.5375 L140.310525,10.9425 L140.248275,10.746 C139.889025,9.27225 138.830775,8.21175 137.208525,8.21175 L131.812275,8.21175 C130.130775,8.21175 129.052275,9.35325 128.729025,10.89975 L125.102025,22.5285 C124.931025,23.4375 125.427525,24.2865 126.223275,24.435 C127.019025,24.582 127.781025,23.9595 127.952025,23.06475 L130.775025,12.57375 L127.898025,31.62825 C127.895775,31.6425 127.907025,31.65525 127.921275,31.65525 L130.667025,31.65525 C130.680525,31.65525 130.691025,31.6665 130.691025,31.67925 L130.691025,39.975 C130.691025,40.85775 131.324775,41.67225 132.203775,41.748 C133.187025,41.8335 134.009025,41.052 134.009025,40.0845 L134.009025,31.65525 L134.957775,31.65525 L134.957775,39.97875 C134.957775,40.8615 135.593025,41.6745 136.472775,41.748 C137.459025,41.832 138.281025,41.0505 138.281025,40.0845 L138.281025,31.67925 C138.281025,31.6665 138.292275,31.65525 138.305775,31.65525 L141.509025,31.65525 C141.524025,31.65525 141.534525,31.6425 141.532275,31.6275 L138.270525,12.57675 L141.579525,23.19375 C141.778275,24.0825 142.592025,24.66225 143.384025,24.48 C144.173025,24.30075 144.650025,23.4285 144.446775,22.5375 L144.446775,22.5375 Z M137.863275,7.62075 C137.876775,7.62075 137.888025,7.6095 137.886525,7.5945 L137.642775,5.12025 L137.782275,4.85475 L137.889525,3.5595 C137.900025,3.37425 137.799525,3.21975 137.659275,3.17625 C137.648025,1.4265 136.224525,-5.32907052e-14 134.469525,-5.32907052e-14 C132.714525,-5.32907052e-14 131.291025,1.42125 131.274525,3.17325 C131.121525,3.20325 131.007525,3.36075 131.024775,3.5595 L131.134275,4.85475 L131.269275,5.12025 L131.026275,7.5945 C131.024775,7.6095 131.036025,7.62075 131.051025,7.62075 L137.863275,7.62075 Z" id="Fill-7" fill="#D3D3D3"></path>
                    <path d="M65.85165,18.701775 C65.85165,16.678275 64.7079,15.035025 62.67915,15.035025 L55.33515,15.035025 C53.47665,15.035025 52.35915,16.417275 52.18365,18.218775 C52.1454,18.371025 52.11765,18.533025 52.11765,18.701775 L51.62565,30.680775 C51.62565,31.600275 52.27365,32.342775 53.07015,32.342775 C53.8779,32.342775 54.5169,31.600275 54.5169,30.680775 L54.5169,19.550775 L55.1949,27.350025 C55.1949,27.350775 55.1949,27.351525 55.1949,27.352275 L55.1949,46.840275 C55.1949,47.799525 56.0034,48.575025 56.9889,48.499275 C57.87015,48.431775 58.5129,47.622525 58.5129,46.738275 L58.5129,31.067025 C58.66965,31.059525 58.8204,31.051275 58.98465,31.051275 C59.14665,31.051275 59.3064,31.059525 59.45415,31.067025 L59.45415,46.783275 C59.45415,47.462025 59.8239,48.122775 60.4539,48.374025 C61.6374,48.845775 62.7759,47.969775 62.7759,46.840275 L62.7759,27.352275 L62.7759,27.350025 L63.4059,19.973775 L63.4059,30.680775 C63.4059,31.600275 64.0704,32.342775 64.8759,32.342775 C65.68965,32.342775 66.3504,31.600275 66.3504,30.680775 L65.85165,18.701775 Z M56.01765,12.022275 L56.24265,11.878275 C56.7909,13.129275 57.81915,14.197275 58.99515,14.197275 C60.16515,14.197275 61.1814,13.137525 61.7394,11.904525 L61.9494,12.022275 C62.12265,12.038775 62.28315,11.894025 62.2974,11.683275 L62.41215,10.385025 C62.4264,10.200525 62.3199,10.045275 62.17965,10.007025 C62.1684,8.254275 60.7449,6.847275 58.99515,6.847275 C57.24615,6.847275 55.8279,8.254275 55.8114,9.998775 C55.65315,10.031775 55.5444,10.189275 55.56465,10.385025 L55.67715,11.683275 C55.6944,11.894025 55.8504,12.038775 56.01765,12.022275 L56.01765,12.022275 Z" id="Fill-8" fill="#AAAAAA"></path>
                    <path d="M46.9299,29.2875 L42.79365,17.6925 L42.73065,17.496 C42.37215,16.02225 41.31315,14.96175 39.6909,14.96175 L34.2954,14.96175 C32.6139,14.96175 31.53465,16.10325 31.21215,17.64975 L27.58515,29.2785 C27.4134,30.1875 27.91065,31.0365 28.7064,31.185 C29.50215,31.332 30.26415,30.7095 30.43515,29.81475 L33.25815,19.32375 L30.38115,38.37825 C30.3789,38.3925 30.3894,38.40525 30.4044,38.40525 L33.1494,38.40525 C33.1629,38.40525 33.17415,38.4165 33.17415,38.42925 L33.17415,46.725 C33.17415,47.60775 33.80715,48.42225 34.6869,48.498 C35.67015,48.5835 36.49215,47.802 36.49215,46.8345 L36.49215,38.40525 L37.4409,38.40525 L37.4409,46.72875 C37.4409,47.6115 38.07615,48.4245 38.9559,48.498 C39.94215,48.582 40.76415,47.8005 40.76415,46.8345 L40.76415,38.42925 C40.76415,38.4165 40.7754,38.40525 40.7889,38.40525 L43.99215,38.40525 C44.0064,38.40525 44.01765,38.3925 44.0154,38.3775 L40.75365,19.32675 L44.06265,29.94375 C44.2614,30.8325 45.07515,31.41225 45.86715,31.23 C46.6554,31.05075 47.1324,30.1785 46.9299,29.2875 L46.9299,29.2875 Z M40.34565,14.37075 C40.3599,14.37075 40.3704,14.3595 40.36965,14.3445 L40.12515,11.87025 L40.2654,11.60475 L40.3719,10.3095 C40.38315,10.12425 40.2819,9.96975 40.1424,9.92625 C40.13115,8.1765 38.70765,6.75 36.95265,6.75 C35.19765,6.75 33.77415,8.17125 33.75765,9.92325 C33.60465,9.95325 33.49065,10.11075 33.50715,10.3095 L33.6174,11.60475 L33.75165,11.87025 L33.5094,14.3445 C33.5079,14.3595 33.51915,14.37075 33.5334,14.37075 L40.34565,14.37075 Z" id="Fill-9" fill="#AAAAAA"></path>
                    <path d="M108.165525,18.701775 C108.165525,16.678275 107.021775,15.035025 104.993025,15.035025 L97.648275,15.035025 C95.790525,15.035025 94.672275,16.417275 94.497525,18.218775 C94.459275,18.371025 94.431525,18.533025 94.431525,18.701775 L93.939525,30.680775 C93.939525,31.600275 94.587525,32.342775 95.384025,32.342775 C96.191775,32.342775 96.830775,31.600275 96.830775,30.680775 L96.830775,19.550775 L97.508775,27.350025 L97.508775,27.352275 L97.508775,46.840275 C97.508775,47.799525 98.317275,48.575025 99.302775,48.499275 C100.184025,48.431775 100.826775,47.622525 100.826775,46.738275 L100.826775,31.067025 C100.983525,31.059525 101.134275,31.051275 101.298525,31.051275 C101.460525,31.051275 101.620275,31.059525 101.768025,31.067025 L101.768025,46.783275 C101.768025,47.462025 102.137775,48.122775 102.767775,48.374025 C103.951275,48.845775 105.089775,47.969775 105.089775,46.840275 L105.089775,27.352275 L105.089775,27.350025 L105.719775,19.973775 L105.719775,30.680775 C105.719775,31.600275 106.384275,32.342775 107.189775,32.342775 C108.003525,32.342775 108.664275,31.600275 108.664275,30.680775 L108.165525,18.701775 Z M98.331525,12.022275 L98.556525,11.878275 C99.104775,13.129275 100.133025,14.197275 101.309025,14.197275 C102.479025,14.197275 103.495275,13.137525 104.053275,11.904525 L104.263275,12.022275 C104.436525,12.038775 104.596275,11.894025 104.611275,11.683275 L104.725275,10.385025 C104.740275,10.200525 104.633775,10.045275 104.493525,10.007025 C104.482275,8.254275 103.058775,6.847275 101.309025,6.847275 C99.560025,6.847275 98.141775,8.254275 98.125275,9.998775 C97.967025,10.031775 97.858275,10.189275 97.878525,10.385025 L97.991025,11.683275 C98.007525,11.894025 98.164275,12.038775 98.331525,12.022275 L98.331525,12.022275 Z" id="Fill-10" fill="#AAAAAA"></path>
                    <path d="M90.7434,29.2875 L86.60715,17.6925 L86.5449,17.496 C86.18565,16.02225 85.1274,14.96175 83.5044,14.96175 L78.1089,14.96175 C76.42815,14.96175 75.3489,16.10325 75.0264,17.64975 L71.39865,29.2785 C71.22765,30.1875 71.72415,31.0365 72.5199,31.185 C73.31565,31.332 74.07765,30.7095 74.2494,29.81475 L77.0724,19.32375 L74.19465,38.37825 C74.1924,38.3925 74.20365,38.40525 74.2179,38.40525 L76.96365,38.40525 C76.97715,38.40525 76.98765,38.4165 76.98765,38.42925 L76.98765,46.725 C76.98765,47.60775 77.6214,48.42225 78.5004,48.498 C79.48365,48.5835 80.30565,47.802 80.30565,46.8345 L80.30565,38.40525 L81.2544,38.40525 L81.2544,46.72875 C81.2544,47.6115 81.8904,48.4245 82.77015,48.498 C83.75565,48.582 84.5784,47.8005 84.5784,46.8345 L84.5784,38.42925 C84.5784,38.4165 84.5889,38.40525 84.6024,38.40525 L87.80565,38.40525 C87.82065,38.40525 87.8319,38.3925 87.8289,38.3775 L84.56715,19.32675 L87.87615,29.94375 C88.0749,30.8325 88.8894,31.41225 89.68065,31.23 C90.4689,31.05075 90.9459,30.1785 90.7434,29.2875 L90.7434,29.2875 Z M84.15915,14.37075 C84.1734,14.37075 84.18465,14.3595 84.18315,14.3445 L83.9394,11.87025 L84.0789,11.60475 L84.18615,10.3095 C84.19665,10.12425 84.0954,9.96975 83.9559,9.92625 C83.94465,8.1765 82.52115,6.75 80.76615,6.75 C79.01115,6.75 77.58765,8.17125 77.57115,9.92325 C77.41815,9.95325 77.30415,10.11075 77.32065,10.3095 L77.4309,11.60475 L77.5659,11.87025 L77.3229,14.3445 C77.32215,14.3595 77.3334,14.37075 77.3469,14.37075 L84.15915,14.37075 Z" id="Fill-11" fill="#AAAAAA"></path>
                    <path d="M152.1189,18.701775 C152.1189,16.678275 150.97515,15.035025 148.9464,15.035025 L141.6024,15.035025 C139.7439,15.035025 138.6264,16.417275 138.4509,18.218775 C138.41265,18.371025 138.3849,18.533025 138.3849,18.701775 L137.8929,30.680775 C137.8929,31.600275 138.5409,32.342775 139.33665,32.342775 C140.14515,32.342775 140.78415,31.600275 140.78415,30.680775 L140.78415,19.550775 L141.4614,27.350025 C141.46215,27.350775 141.46215,27.351525 141.46215,27.352275 L141.46215,46.840275 C141.46215,47.799525 142.2699,48.575025 143.25615,48.499275 C144.1374,48.431775 144.78015,47.622525 144.78015,46.738275 L144.78015,31.067025 C144.9369,31.059525 145.08765,31.051275 145.2519,31.051275 C145.4139,31.051275 145.57365,31.059525 145.7214,31.067025 L145.7214,46.783275 C145.7214,47.462025 146.09115,48.122775 146.72115,48.374025 C147.90465,48.845775 149.04315,47.969775 149.04315,46.840275 L149.04315,27.352275 L149.04315,27.350025 L149.67315,19.973775 L149.67315,30.680775 C149.67315,31.600275 150.33765,32.342775 151.1424,32.342775 C151.95615,32.342775 152.61765,31.600275 152.61765,30.680775 L152.1189,18.701775 Z M142.2849,12.022275 L142.50915,11.878275 C143.0589,13.129275 144.08565,14.197275 145.2624,14.197275 C146.4324,14.197275 147.44865,13.137525 148.00665,11.904525 L148.21665,12.022275 C148.38915,12.038775 148.54965,11.894025 148.56465,11.683275 L148.67865,10.385025 C148.69365,10.200525 148.5864,10.045275 148.4469,10.007025 C148.43565,8.254275 147.01215,6.847275 145.2624,6.847275 C143.5134,6.847275 142.09515,8.254275 142.07865,9.998775 C141.9204,10.031775 141.81165,10.189275 141.8319,10.385025 L141.9444,11.683275 C141.9609,11.894025 142.11765,12.038775 142.2849,12.022275 L142.2849,12.022275 Z" id="Fill-12" fill="#AAAAAA"></path>
                    <path d="M133.196775,29.2875 L129.060525,17.6925 L128.998275,17.496 C128.639025,16.02225 127.580025,14.96175 125.957775,14.96175 L120.562275,14.96175 C118.880775,14.96175 117.801525,16.10325 117.479025,17.64975 L113.852025,29.2785 C113.681025,30.1875 114.177525,31.0365 114.973275,31.185 C115.769025,31.332 116.531025,30.7095 116.702025,29.81475 L119.525025,19.32375 L116.648025,38.37825 C116.645775,38.3925 116.657025,38.40525 116.671275,38.40525 L119.417025,38.40525 C119.430525,38.40525 119.441025,38.4165 119.441025,38.42925 L119.441025,46.725 C119.441025,47.60775 120.074025,48.42225 120.953775,48.498 C121.937025,48.5835 122.759025,47.802 122.759025,46.8345 L122.759025,38.40525 L123.707775,38.40525 L123.707775,46.72875 C123.707775,47.6115 124.343775,48.4245 125.223525,48.498 C126.209025,48.582 127.031775,47.8005 127.031775,46.8345 L127.031775,38.42925 C127.031775,38.4165 127.042275,38.40525 127.055775,38.40525 L130.259025,38.40525 C130.274025,38.40525 130.284525,38.3925 130.282275,38.3775 L127.020525,19.32675 L130.329525,29.94375 C130.528275,30.8325 131.342025,31.41225 132.134025,31.23 C132.923025,31.05075 133.400025,30.1785 133.196775,29.2875 L133.196775,29.2875 Z M126.612525,14.37075 C126.626775,14.37075 126.638025,14.3595 126.636525,14.3445 L126.392775,11.87025 L126.532275,11.60475 L126.638775,10.3095 C126.650025,10.12425 126.548775,9.96975 126.409275,9.92625 C126.398025,8.1765 124.974525,6.75 123.219525,6.75 C121.464525,6.75 120.041025,8.17125 120.024525,9.92325 C119.871525,9.95325 119.757525,10.11075 119.774025,10.3095 L119.884275,11.60475 L120.019275,11.87025 L119.776275,14.3445 C119.774775,14.3595 119.786775,14.37075 119.800275,14.37075 L126.612525,14.37075 Z" id="Fill-13" fill="#AAAAAA"></path>
                    <g id="Group-16" transform="translate(1.500000, 42.858525)">
                        <polygon id="Fill-14" fill="#D8D8D8" points="1.9014 27.15675 49.6239 1.1265 137.1264 1.1265 184.8489 27.15675"></polygon>
                        <path d="M137.25,0.641625 L49.5,0.641625 L0,27.641625 L186.75,27.641625 L137.25,0.641625 Z M137.0025,1.611375 L182.9475,26.671875 L3.8025,26.671875 L49.7475,1.611375 L137.0025,1.611375 Z" id="Fill-15" fill="#FFFFFF"></path>
                    </g>
                    <path d="M54.60165,30.701775 C54.60165,28.678275 53.4579,27.035025 51.42915,27.035025 L44.08515,27.035025 C42.22665,27.035025 41.10915,28.417275 40.93365,30.218775 C40.8954,30.371025 40.86765,30.533025 40.86765,30.701775 L40.37565,42.680775 C40.37565,43.600275 41.02365,44.342775 41.82015,44.342775 C42.6279,44.342775 43.2669,43.600275 43.2669,42.680775 L43.2669,31.550775 L43.9449,39.350025 C43.9449,39.350775 43.9449,39.351525 43.9449,39.352275 L43.9449,58.840275 C43.9449,59.799525 44.7534,60.575025 45.7389,60.499275 C46.62015,60.431775 47.2629,59.622525 47.2629,58.738275 L47.2629,43.067025 C47.41965,43.059525 47.5704,43.051275 47.73465,43.051275 C47.89665,43.051275 48.0564,43.059525 48.20415,43.067025 L48.20415,58.783275 C48.20415,59.462025 48.5739,60.122775 49.2039,60.374025 C50.3874,60.845775 51.5259,59.969775 51.5259,58.840275 L51.5259,39.352275 L51.5259,39.350025 L52.1559,31.973775 L52.1559,42.680775 C52.1559,43.600275 52.8204,44.342775 53.6259,44.342775 C54.43965,44.342775 55.1004,43.600275 55.1004,42.680775 L54.60165,30.701775 Z M44.76765,24.022275 L44.99265,23.878275 C45.5409,25.129275 46.56915,26.197275 47.74515,26.197275 C48.91515,26.197275 49.9314,25.137525 50.4894,23.904525 L50.6994,24.022275 C50.87265,24.038775 51.03315,23.894025 51.0474,23.683275 L51.16215,22.385025 C51.1764,22.200525 51.0699,22.045275 50.92965,22.007025 C50.9184,20.254275 49.4949,18.847275 47.74515,18.847275 C45.99615,18.847275 44.5779,20.254275 44.5614,21.998775 C44.40315,22.031775 44.2944,22.189275 44.31465,22.385025 L44.42715,23.683275 C44.4444,23.894025 44.6004,24.038775 44.76765,24.022275 L44.76765,24.022275 Z" id="Fill-17" fill="#7C7C7C"></path>
                    <path d="M35.6799,41.2875 L31.54365,29.6925 L31.48065,29.496 C31.12215,28.02225 30.06315,26.96175 28.4409,26.96175 L23.0454,26.96175 C21.3639,26.96175 20.28465,28.10325 19.96215,29.64975 L16.33515,41.2785 C16.1634,42.1875 16.66065,43.0365 17.4564,43.185 C18.25215,43.332 19.01415,42.7095 19.18515,41.81475 L22.00815,31.32375 L19.13115,50.37825 C19.1289,50.3925 19.1394,50.40525 19.1544,50.40525 L21.8994,50.40525 C21.9129,50.40525 21.92415,50.4165 21.92415,50.42925 L21.92415,58.725 C21.92415,59.60775 22.55715,60.42225 23.4369,60.498 C24.42015,60.5835 25.24215,59.802 25.24215,58.8345 L25.24215,50.40525 L26.1909,50.40525 L26.1909,58.72875 C26.1909,59.6115 26.82615,60.4245 27.7059,60.498 C28.69215,60.582 29.51415,59.8005 29.51415,58.8345 L29.51415,50.42925 C29.51415,50.4165 29.5254,50.40525 29.5389,50.40525 L32.74215,50.40525 C32.7564,50.40525 32.76765,50.3925 32.7654,50.3775 L29.50365,31.32675 L32.81265,41.94375 C33.0114,42.8325 33.82515,43.41225 34.61715,43.23 C35.4054,43.05075 35.8824,42.1785 35.6799,41.2875 L35.6799,41.2875 Z M29.09565,26.37075 C29.1099,26.37075 29.1204,26.3595 29.11965,26.3445 L28.87515,23.87025 L29.0154,23.60475 L29.1219,22.3095 C29.13315,22.12425 29.0319,21.96975 28.8924,21.92625 C28.88115,20.1765 27.45765,18.75 25.70265,18.75 C23.94765,18.75 22.52415,20.17125 22.50765,21.92325 C22.35465,21.95325 22.24065,22.11075 22.25715,22.3095 L22.3674,23.60475 L22.50165,23.87025 L22.2594,26.3445 C22.2579,26.3595 22.26915,26.37075 22.2834,26.37075 L29.09565,26.37075 Z" id="Fill-18" fill="#7C7C7C"></path>
                    <path d="M96.915525,30.701775 C96.915525,28.678275 95.771775,27.035025 93.743025,27.035025 L86.398275,27.035025 C84.540525,27.035025 83.422275,28.417275 83.247525,30.218775 C83.209275,30.371025 83.181525,30.533025 83.181525,30.701775 L82.689525,42.680775 C82.689525,43.600275 83.337525,44.342775 84.134025,44.342775 C84.941775,44.342775 85.580775,43.600275 85.580775,42.680775 L85.580775,31.550775 L86.258775,39.350025 L86.258775,39.352275 L86.258775,58.840275 C86.258775,59.799525 87.067275,60.575025 88.052775,60.499275 C88.934025,60.431775 89.576775,59.622525 89.576775,58.738275 L89.576775,43.067025 C89.733525,43.059525 89.884275,43.051275 90.048525,43.051275 C90.210525,43.051275 90.370275,43.059525 90.518025,43.067025 L90.518025,58.783275 C90.518025,59.462025 90.887775,60.122775 91.517775,60.374025 C92.701275,60.845775 93.839775,59.969775 93.839775,58.840275 L93.839775,39.352275 L93.839775,39.350025 L94.469775,31.973775 L94.469775,42.680775 C94.469775,43.600275 95.134275,44.342775 95.939775,44.342775 C96.753525,44.342775 97.414275,43.600275 97.414275,42.680775 L96.915525,30.701775 Z M87.081525,24.022275 L87.306525,23.878275 C87.854775,25.129275 88.883025,26.197275 90.059025,26.197275 C91.229025,26.197275 92.245275,25.137525 92.803275,23.904525 L93.013275,24.022275 C93.186525,24.038775 93.346275,23.894025 93.361275,23.683275 L93.475275,22.385025 C93.490275,22.200525 93.383775,22.045275 93.243525,22.007025 C93.232275,20.254275 91.808775,18.847275 90.059025,18.847275 C88.310025,18.847275 86.891775,20.254275 86.875275,21.998775 C86.717025,22.031775 86.608275,22.189275 86.628525,22.385025 L86.741025,23.683275 C86.757525,23.894025 86.914275,24.038775 87.081525,24.022275 L87.081525,24.022275 Z" id="Fill-19" fill="#7C7C7C"></path>
                    <path d="M79.4934,41.2875 L75.35715,29.6925 L75.2949,29.496 C74.93565,28.02225 73.8774,26.96175 72.2544,26.96175 L66.8589,26.96175 C65.17815,26.96175 64.0989,28.10325 63.7764,29.64975 L60.14865,41.2785 C59.97765,42.1875 60.47415,43.0365 61.2699,43.185 C62.06565,43.332 62.82765,42.7095 62.9994,41.81475 L65.8224,31.32375 L62.94465,50.37825 C62.9424,50.3925 62.95365,50.40525 62.9679,50.40525 L65.71365,50.40525 C65.72715,50.40525 65.73765,50.4165 65.73765,50.42925 L65.73765,58.725 C65.73765,59.60775 66.3714,60.42225 67.2504,60.498 C68.23365,60.5835 69.05565,59.802 69.05565,58.8345 L69.05565,50.40525 L70.0044,50.40525 L70.0044,58.72875 C70.0044,59.6115 70.6404,60.4245 71.52015,60.498 C72.50565,60.582 73.3284,59.8005 73.3284,58.8345 L73.3284,50.42925 C73.3284,50.4165 73.3389,50.40525 73.3524,50.40525 L76.55565,50.40525 C76.57065,50.40525 76.5819,50.3925 76.5789,50.3775 L73.31715,31.32675 L76.62615,41.94375 C76.8249,42.8325 77.6394,43.41225 78.43065,43.23 C79.2189,43.05075 79.6959,42.1785 79.4934,41.2875 L79.4934,41.2875 Z M72.90915,26.37075 C72.9234,26.37075 72.93465,26.3595 72.93315,26.3445 L72.6894,23.87025 L72.8289,23.60475 L72.93615,22.3095 C72.94665,22.12425 72.8454,21.96975 72.7059,21.92625 C72.69465,20.1765 71.27115,18.75 69.51615,18.75 C67.76115,18.75 66.33765,20.17125 66.32115,21.92325 C66.16815,21.95325 66.05415,22.11075 66.07065,22.3095 L66.1809,23.60475 L66.3159,23.87025 L66.0729,26.3445 C66.07215,26.3595 66.0834,26.37075 66.0969,26.37075 L72.90915,26.37075 Z" id="Fill-20" fill="#7C7C7C"></path>
                    <path d="M140.8689,30.701775 C140.8689,28.678275 139.72515,27.035025 137.6964,27.035025 L130.3524,27.035025 C128.4939,27.035025 127.37565,28.417275 127.2009,30.218775 C127.16265,30.371025 127.1349,30.533025 127.1349,30.701775 L126.6429,42.680775 C126.6429,43.600275 127.2909,44.342775 128.0874,44.342775 C128.89515,44.342775 129.53415,43.600275 129.53415,42.680775 L129.53415,31.550775 L130.2114,39.350025 C130.21215,39.350775 130.21215,39.351525 130.21215,39.352275 L130.21215,58.840275 C130.21215,59.799525 131.0199,60.575025 132.00615,60.499275 C132.8874,60.431775 133.53015,59.622525 133.53015,58.738275 L133.53015,43.067025 C133.6869,43.059525 133.83765,43.051275 134.0019,43.051275 C134.1639,43.051275 134.32365,43.059525 134.4714,43.067025 L134.4714,58.783275 C134.4714,59.462025 134.84115,60.122775 135.47115,60.374025 C136.65465,60.845775 137.79315,59.969775 137.79315,58.840275 L137.79315,39.352275 L137.79315,39.350025 L138.42315,31.973775 L138.42315,42.680775 C138.42315,43.600275 139.08765,44.342775 139.8924,44.342775 C140.70615,44.342775 141.36765,43.600275 141.36765,42.680775 L140.8689,30.701775 Z M131.0349,24.022275 L131.25915,23.878275 C131.8089,25.129275 132.83565,26.197275 134.0124,26.197275 C135.1824,26.197275 136.19865,25.137525 136.75665,23.904525 L136.96665,24.022275 C137.13915,24.038775 137.29965,23.894025 137.31465,23.683275 L137.42865,22.385025 C137.44365,22.200525 137.3364,22.045275 137.1969,22.007025 C137.18565,20.254275 135.76215,18.847275 134.0124,18.847275 C132.2634,18.847275 130.84515,20.254275 130.82865,21.998775 C130.6704,22.031775 130.56165,22.189275 130.5819,22.385025 L130.6944,23.683275 C130.7109,23.894025 130.86765,24.038775 131.0349,24.022275 L131.0349,24.022275 Z" id="Fill-21" fill="#7C7C7C"></path>
                    <path d="M121.946775,41.2875 L117.810525,29.6925 L117.748275,29.496 C117.389025,28.02225 116.330025,26.96175 114.707775,26.96175 L109.312275,26.96175 C107.630775,26.96175 106.551525,28.10325 106.229025,29.64975 L102.602025,41.2785 C102.431025,42.1875 102.927525,43.0365 103.723275,43.185 C104.519025,43.332 105.281025,42.7095 105.452025,41.81475 L108.275025,31.32375 L105.398025,50.37825 C105.395775,50.3925 105.407025,50.40525 105.421275,50.40525 L108.167025,50.40525 C108.180525,50.40525 108.191025,50.4165 108.191025,50.42925 L108.191025,58.725 C108.191025,59.60775 108.824025,60.42225 109.703775,60.498 C110.687025,60.5835 111.509025,59.802 111.509025,58.8345 L111.509025,50.40525 L112.457775,50.40525 L112.457775,58.72875 C112.457775,59.6115 113.093775,60.4245 113.973525,60.498 C114.959025,60.582 115.781775,59.8005 115.781775,58.8345 L115.781775,50.42925 C115.781775,50.4165 115.792275,50.40525 115.805775,50.40525 L119.009025,50.40525 C119.024025,50.40525 119.035275,50.3925 119.032275,50.3775 L115.770525,31.32675 L119.079525,41.94375 C119.278275,42.8325 120.092775,43.41225 120.884025,43.23 C121.672275,43.05075 122.149275,42.1785 121.946775,41.2875 L121.946775,41.2875 Z M115.362525,26.37075 C115.376775,26.37075 115.388025,26.3595 115.386525,26.3445 L115.142775,23.87025 L115.282275,23.60475 L115.388775,22.3095 C115.400025,22.12425 115.298775,21.96975 115.159275,21.92625 C115.148025,20.1765 113.724525,18.75 111.969525,18.75 C110.214525,18.75 108.791025,20.17125 108.774525,21.92325 C108.621525,21.95325 108.507525,22.11075 108.524025,22.3095 L108.634275,23.60475 L108.769275,23.87025 L108.526275,26.3445 C108.524775,26.3595 108.536775,26.37075 108.550275,26.37075 L115.362525,26.37075 Z" id="Fill-22" fill="#7C7C7C"></path>
                    <path d="M164.26095,41.2875 L160.12395,29.6925 L160.0617,29.496 C159.7032,28.02225 158.6442,26.96175 157.02195,26.96175 L151.6257,26.96175 C149.94495,26.96175 148.8657,28.10325 148.5432,29.64975 L144.91545,41.2785 C144.74445,42.1875 145.2417,43.0365 146.0367,43.185 C146.83245,43.332 147.59445,42.7095 147.7662,41.81475 L150.5892,31.32375 L147.71145,50.37825 C147.70995,50.3925 147.72045,50.40525 147.73545,50.40525 L150.48045,50.40525 C150.49395,50.40525 150.50445,50.4165 150.50445,50.42925 L150.50445,58.725 C150.50445,59.60775 151.1382,60.42225 152.01795,60.498 C153.00045,60.5835 153.8232,59.802 153.8232,58.8345 L153.8232,50.40525 L154.77195,50.40525 L154.77195,58.72875 C154.77195,59.6115 155.4072,60.4245 156.28695,60.498 C157.2732,60.582 158.0952,59.8005 158.0952,58.8345 L158.0952,50.42925 C158.0952,50.4165 158.1057,50.40525 158.11995,50.40525 L161.32245,50.40525 C161.33745,50.40525 161.3487,50.3925 161.3457,50.3775 L158.0847,31.32675 L161.3937,41.94375 C161.5917,42.8325 162.4062,43.41225 163.1982,43.23 C163.98645,43.05075 164.46345,42.1785 164.26095,41.2875 L164.26095,41.2875 Z M157.6767,26.37075 C157.6902,26.37075 157.70145,26.3595 157.7007,26.3445 L157.4562,23.87025 L157.5957,23.60475 L157.70295,22.3095 C157.7142,22.12425 157.61295,21.96975 157.4727,21.92625 C157.4622,20.1765 156.03795,18.75 154.28295,18.75 C152.52795,18.75 151.10445,20.17125 151.0887,21.92325 C150.93495,21.95325 150.82095,22.11075 150.8382,22.3095 L150.94845,23.60475 L151.0827,23.87025 L150.8397,26.3445 C150.83895,26.3595 150.8502,26.37075 150.86445,26.37075 L157.6767,26.37075 Z" id="Fill-23" fill="#7C7C7C"></path>
                    <path d="M42.599475,36.5238 C42.599475,34.3353 41.362725,32.55855 39.168225,32.55855 L31.225725,32.55855 C29.216475,32.55855 28.007475,34.0533 27.818475,36.00255 C27.776475,36.16605 27.746475,36.34155 27.746475,36.5238 L27.214725,49.47855 C27.214725,50.4738 27.915975,51.27705 28.776225,51.27705 C29.650725,51.27705 30.341475,50.4738 30.341475,49.47855 L30.341475,37.44255 L31.074225,45.87855 L31.074225,66.9543 C31.074225,67.94505 31.870725,68.75505 32.870475,68.75505 C33.856725,68.75505 34.662975,67.94505 34.662975,66.9543 L34.662975,49.89705 C34.832475,49.88805 34.995975,49.87905 35.172975,49.87905 C35.348475,49.87905 35.521725,49.88805 35.680725,49.89705 L35.680725,66.9543 C35.680725,67.94505 36.487725,68.75505 37.476975,68.75505 C38.464725,68.75505 39.273225,67.94505 39.273225,66.9543 L39.273225,45.87855 L39.954975,37.90005 L39.954975,49.47855 C39.954975,50.4738 40.673475,51.27705 41.543475,51.27705 C42.423975,51.27705 43.138725,50.4738 43.138725,49.47855 L42.599475,36.5238 Z M31.964475,29.30055 L32.207475,29.1453 C32.801475,30.49755 33.912225,31.65255 35.184975,31.65255 C36.449475,31.65255 37.548975,30.50655 38.151975,29.17305 L38.379225,29.30055 C38.566725,29.31855 38.739975,29.1618 38.755725,28.93305 L38.879475,27.53055 C38.895225,27.32955 38.779725,27.16305 38.628225,27.12105 C38.616225,25.22655 37.077225,23.70405 35.184975,23.70405 C33.292725,23.70405 31.758975,25.22655 31.741725,27.11205 C31.569975,27.14805 31.452975,27.3183 31.474725,27.53055 L31.596225,28.93305 C31.614225,29.1618 31.783725,29.31855 31.964475,29.30055 L31.964475,29.30055 Z" id="Fill-24" fill="#565656"></path>
                    <path d="M23.758275,47.971575 L19.285275,35.432325 L19.217775,35.220075 C18.829275,33.626325 17.684025,32.480325 15.929775,32.480325 L10.094775,32.480325 C8.276025,32.480325 7.109025,33.713325 6.760275,35.386575 L2.837025,47.962575 C2.652525,48.945825 3.190275,49.863825 4.050525,50.024325 C4.910775,50.182575 5.735025,49.509825 5.920275,48.543075 L8.973525,37.197075 L5.856525,57.832575 L8.882025,57.832575 L8.882025,66.948075 C8.882025,67.941825 9.690525,68.754825 10.676025,68.754825 C11.667525,68.754825 12.470775,67.941825 12.470775,66.948075 L12.470775,57.832575 L13.496025,57.832575 L13.496025,66.948075 C13.496025,67.941825 14.300775,68.754825 15.290025,68.754825 C16.286025,68.754825 17.090775,67.941825 17.090775,66.948075 L17.090775,57.832575 L20.612025,57.832575 L17.078775,37.200075 L20.657775,48.681825 C20.872275,49.643325 21.752775,50.269575 22.609275,50.073075 C23.461275,49.878825 23.977275,48.936075 23.758275,47.971575 L23.758275,47.971575 Z M16.666275,31.840575 L16.399275,29.136075 L16.550775,28.848825 L16.666275,27.448575 C16.678275,27.248325 16.568775,27.081075 16.417275,27.033075 C16.405275,25.141575 14.866275,23.598825 12.968025,23.598825 C11.070525,23.598825 9.530775,25.135575 9.512775,27.030075 C9.347775,27.063075 9.224025,27.233325 9.242025,27.448575 L9.362025,28.848825 L9.507525,29.136075 L9.242025,31.840575 L16.666275,31.840575 Z" id="Fill-25" fill="#565656"></path>
                    <path d="M86.7378,36.5238 C86.7378,34.3353 85.50105,32.55855 83.30655,32.55855 L75.36405,32.55855 C73.3548,32.55855 72.1458,34.0533 71.9568,36.00255 C71.9148,36.16605 71.8848,36.34155 71.8848,36.5238 L71.35305,49.47855 C71.35305,50.4738 72.0543,51.27705 72.91455,51.27705 C73.78905,51.27705 74.4798,50.4738 74.4798,49.47855 L74.4798,37.44255 L75.21255,45.87855 L75.21255,66.9543 C75.21255,67.94505 76.00905,68.75505 77.00955,68.75505 C77.99505,68.75505 78.8013,67.94505 78.8013,66.9543 L78.8013,49.89705 C78.9708,49.88805 79.1343,49.87905 79.3113,49.87905 C79.4868,49.87905 79.66005,49.88805 79.81905,49.89705 L79.81905,66.9543 C79.81905,67.94505 80.62605,68.75505 81.6153,68.75505 C82.60305,68.75505 83.41155,67.94505 83.41155,66.9543 L83.41155,45.87855 L84.0933,37.90005 L84.0933,49.47855 C84.0933,50.4738 84.8118,51.27705 85.68255,51.27705 C86.5623,51.27705 87.27705,50.4738 87.27705,49.47855 L86.7378,36.5238 Z M76.1028,29.30055 L76.34655,29.1453 C76.9398,30.49755 78.05055,31.65255 79.3233,31.65255 C80.5878,31.65255 81.6873,30.50655 82.2903,29.17305 L82.51755,29.30055 C82.70505,29.31855 82.8783,29.1618 82.89405,28.93305 L83.0178,27.53055 C83.03355,27.32955 82.91805,27.16305 82.76655,27.12105 C82.75455,25.22655 81.21555,23.70405 79.3233,23.70405 C77.43105,23.70405 75.89805,25.22655 75.88005,27.11205 C75.7083,27.14805 75.5913,27.3183 75.61305,27.53055 L75.73455,28.93305 C75.75255,29.1618 75.92205,29.31855 76.1028,29.30055 L76.1028,29.30055 Z" id="Fill-26" fill="#565656"></path>
                    <path d="M67.8966,47.971575 L63.4236,35.432325 L63.3561,35.220075 C62.9676,33.626325 61.82235,32.480325 60.0681,32.480325 L54.2331,32.480325 C52.41435,32.480325 51.24735,33.713325 50.89935,35.386575 L46.9761,47.962575 C46.79085,48.945825 47.3286,49.863825 48.18885,50.024325 C49.0491,50.182575 49.87335,49.509825 50.0586,48.543075 L53.11185,37.197075 L49.99485,57.832575 L53.02035,57.832575 L53.02035,66.948075 C53.02035,67.941825 53.82885,68.754825 54.81435,68.754825 C55.80585,68.754825 56.6091,67.941825 56.6091,66.948075 L56.6091,57.832575 L57.63435,57.832575 L57.63435,66.948075 C57.63435,67.941825 58.4391,68.754825 59.42835,68.754825 C60.42435,68.754825 61.2291,67.941825 61.2291,66.948075 L61.2291,57.832575 L64.75035,57.832575 L61.2171,37.200075 L64.7961,48.681825 C65.0106,49.643325 65.8911,50.269575 66.7476,50.073075 C67.5996,49.878825 68.1156,48.936075 67.8966,47.971575 L67.8966,47.971575 Z M60.8046,31.840575 L60.5376,29.136075 L60.68985,28.848825 L60.8046,27.448575 C60.81735,27.248325 60.70785,27.081075 60.5556,27.033075 C60.54435,25.141575 59.0046,23.598825 57.1071,23.598825 C55.20885,23.598825 53.6691,25.135575 53.6511,27.030075 C53.4861,27.063075 53.3631,27.233325 53.3811,27.448575 L53.50035,28.848825 L53.64585,29.136075 L53.3811,31.840575 L60.8046,31.840575 Z" id="Fill-27" fill="#565656"></path>
                    <path d="M129.405,36.5238 C129.405,34.3353 128.16825,32.55855 125.97375,32.55855 L118.03125,32.55855 C116.022,32.55855 114.813,34.0533 114.624,36.00255 C114.582,36.16605 114.552,36.34155 114.552,36.5238 L114.02025,49.47855 C114.02025,50.4738 114.7215,51.27705 115.58175,51.27705 C116.45625,51.27705 117.147,50.4738 117.147,49.47855 L117.147,37.44255 L117.87975,45.87855 L117.87975,66.9543 C117.87975,67.94505 118.67625,68.75505 119.676,68.75505 C120.66225,68.75505 121.4685,67.94505 121.4685,66.9543 L121.4685,49.89705 C121.638,49.88805 121.8015,49.87905 121.9785,49.87905 C122.154,49.87905 122.3265,49.88805 122.48625,49.89705 L122.48625,66.9543 C122.48625,67.94505 123.29325,68.75505 124.2825,68.75505 C125.27025,68.75505 126.07875,67.94505 126.07875,66.9543 L126.07875,45.87855 L126.7605,37.90005 L126.7605,49.47855 C126.7605,50.4738 127.479,51.27705 128.349,51.27705 C129.2295,51.27705 129.945,50.4738 129.945,49.47855 L129.405,36.5238 Z M118.77,29.30055 L119.013,29.1453 C119.607,30.49755 120.71775,31.65255 121.9905,31.65255 C123.255,31.65255 124.3545,30.50655 124.9575,29.17305 L125.18475,29.30055 C125.37225,29.31855 125.5455,29.1618 125.56125,28.93305 L125.685,27.53055 C125.70075,27.32955 125.58525,27.16305 125.43375,27.12105 C125.42175,25.22655 123.88275,23.70405 121.9905,23.70405 C120.09825,23.70405 118.5645,25.22655 118.54725,27.11205 C118.3755,27.14805 118.2585,27.3183 118.28025,27.53055 L118.40175,28.93305 C118.41975,29.1618 118.58925,29.31855 118.77,29.30055 L118.77,29.30055 Z" id="Fill-28" fill="#565656"></path>
                    <path d="M110.563875,47.971575 L106.090875,35.432325 L106.023375,35.220075 C105.634875,33.626325 104.489625,32.480325 102.735375,32.480325 L96.900375,32.480325 C95.081625,32.480325 93.914625,33.713325 93.565875,35.386575 L89.642625,47.962575 C89.458125,48.945825 89.995125,49.863825 90.856125,50.024325 C91.716375,50.182575 92.540625,49.509825 92.725875,48.543075 L95.779125,37.197075 L92.662125,57.832575 L95.687625,57.832575 L95.687625,66.948075 C95.687625,67.941825 96.496125,68.754825 97.481625,68.754825 C98.473125,68.754825 99.275625,67.941825 99.275625,66.948075 L99.275625,57.832575 L100.301625,57.832575 L100.301625,66.948075 C100.301625,67.941825 101.106375,68.754825 102.095625,68.754825 C103.091625,68.754825 103.896375,67.941825 103.896375,66.948075 L103.896375,57.832575 L107.417625,57.832575 L103.884375,37.200075 L107.463375,48.681825 C107.677875,49.643325 108.558375,50.269575 109.414875,50.073075 C110.266875,49.878825 110.782875,48.936075 110.563875,47.971575 L110.563875,47.971575 Z M103.471875,31.840575 L103.204875,29.136075 L103.356375,28.848825 L103.471875,27.448575 C103.483875,27.248325 103.374375,27.081075 103.222875,27.033075 C103.210875,25.141575 101.671875,23.598825 99.773625,23.598825 C97.876125,23.598825 96.336375,25.135575 96.318375,27.030075 C96.153375,27.063075 96.029625,27.233325 96.047625,27.448575 L96.167625,28.848825 L96.313125,29.136075 L96.047625,31.840575 L103.471875,31.840575 Z" id="Fill-29" fill="#565656"></path>
                    <path d="M173.54295,36.5238 C173.54295,34.3353 172.30695,32.55855 170.11245,32.55855 L162.16995,32.55855 C160.15995,32.55855 158.9517,34.0533 158.76195,36.00255 C158.71995,36.16605 158.6907,36.34155 158.6907,36.5238 L158.1582,49.47855 C158.1582,50.4738 158.8602,51.27705 159.7197,51.27705 C160.5942,51.27705 161.28495,50.4738 161.28495,49.47855 L161.28495,37.44255 L162.01845,45.87855 L162.01845,66.9543 C162.01845,67.94505 162.81495,68.75505 163.8147,68.75505 C164.80095,68.75505 165.6072,67.94505 165.6072,66.9543 L165.6072,49.89705 C165.7767,49.88805 165.93945,49.87905 166.1172,49.87905 C166.29195,49.87905 166.4652,49.88805 166.6242,49.89705 L166.6242,66.9543 C166.6242,67.94505 167.4312,68.75505 168.4212,68.75505 C169.4082,68.75505 170.2167,67.94505 170.2167,66.9543 L170.2167,45.87855 L170.89845,37.90005 L170.89845,49.47855 C170.89845,50.4738 171.6177,51.27705 172.4877,51.27705 C173.3682,51.27705 174.08295,50.4738 174.08295,49.47855 L173.54295,36.5238 Z M162.90795,29.30055 L163.1517,29.1453 C163.7457,30.49755 164.85645,31.65255 166.12845,31.65255 C167.3937,31.65255 168.4932,30.50655 169.0962,29.17305 L169.32345,29.30055 C169.5102,29.31855 169.68345,29.1618 169.69995,28.93305 L169.82295,27.53055 C169.83945,27.32955 169.7232,27.16305 169.5717,27.12105 C169.5597,25.22655 168.0207,23.70405 166.12845,23.70405 C164.23695,23.70405 162.7032,25.22655 162.6852,27.11205 C162.5142,27.14805 162.3972,27.3183 162.41895,27.53055 L162.54045,28.93305 C162.55845,29.1618 162.7272,29.31855 162.90795,29.30055 L162.90795,29.30055 Z" id="Fill-30" fill="#565656"></path>
                    <path d="M154.702125,47.971575 L150.229125,35.432325 L150.161625,35.220075 C149.773125,33.626325 148.627875,32.480325 146.873625,32.480325 L141.038625,32.480325 C139.219875,32.480325 138.053625,33.713325 137.704875,35.386575 L133.780875,47.962575 C133.595625,48.945825 134.133375,49.863825 134.994375,50.024325 C135.854625,50.182575 136.679625,49.509825 136.864125,48.543075 L139.917375,37.197075 L136.800375,57.832575 L139.825875,57.832575 L139.825875,66.948075 C139.825875,67.941825 140.633625,68.754825 141.619875,68.754825 C142.612125,68.754825 143.413875,67.941825 143.413875,66.948075 L143.413875,57.832575 L144.439875,57.832575 L144.439875,66.948075 C144.439875,67.941825 145.244625,68.754825 146.234625,68.754825 C147.229875,68.754825 148.034625,67.941825 148.034625,66.948075 L148.034625,57.832575 L151.555875,57.832575 L148.022625,37.200075 L151.601625,48.681825 C151.816125,49.643325 152.696625,50.269575 153.553125,50.073075 C154.405125,49.878825 154.921125,48.936075 154.702125,47.971575 L154.702125,47.971575 Z M147.610125,31.840575 L147.343125,29.136075 L147.495375,28.848825 L147.610125,27.448575 C147.622875,27.248325 147.512625,27.081075 147.361875,27.033075 C147.349125,25.141575 145.810125,23.598825 143.911875,23.598825 C142.014375,23.598825 140.474625,25.135575 140.456625,27.030075 C140.291625,27.063075 140.167875,27.233325 140.186625,27.448575 L140.305875,28.848825 L140.450625,29.136075 L140.186625,31.840575 L147.610125,31.840575 Z" id="Fill-31" fill="#565656"></path>
                </g>
            </g>
        </g>
    </g>
</svg>