<?xml version="1.0" encoding="UTF-8"?>
<svg width="302px" height="71px" viewBox="0 0 302 71" version="1.1" xmlns="http://www.w3.org/2000/svg" xmlns:xlink="http://www.w3.org/1999/xlink">
    <!-- Generator: Sketch 59.1 (86144) - https://sketch.com -->
    <title>Land Area</title>
    <desc>Created with Sketch.</desc>
    <g id="Export-Outlined-SVG" stroke="none" stroke-width="1" fill="none" fill-rule="evenodd">
        <g id="3" transform="translate(-841.000000, -850.000000)">
            <g id="Land-Area" transform="translate(841.462000, 850.112000)">
                <polygon id="Fill-1" fill="#E0E0E0" points="1.538 34.888 298.538 34.888 298.538 24.888 1.538 24.888"></polygon>
                <path d="M2.1525,0.063 C2.82450336,0.063 3.34949811,0.35699706 3.7275,0.945 C4.10550189,1.53300294 4.2945,2.39049436 4.2945,3.5175 C4.2945,4.64450564 4.10550189,5.50899699 3.7275,6.111 C3.34949811,6.71300301 2.82450336,7.014 2.1525,7.014 C1.47349661,7.014 0.94500189,6.71300301 0.567,6.111 C0.18899811,5.50899699 0,4.64450564 0,3.5175 C0,2.39049436 0.18899811,1.53300294 0.567,0.945 C0.94500189,0.35699706 1.47349661,0.063 2.1525,0.063 Z M2.1525,0.756 C1.95649902,0.756 1.7780008,0.808499475 1.617,0.9135 C1.45599919,1.01850052 1.31775058,1.1812489 1.20225,1.40175 C1.08674942,1.6222511 0.997500315,1.90749825 0.9345,2.2575 C0.871499685,2.60750175 0.84,3.02749755 0.84,3.5175 C0.84,4.4975049 0.960748792,5.20974778 1.20225,5.65425 C1.44375121,6.09875222 1.76049804,6.321 2.1525,6.321 C2.34850098,6.321 2.52524921,6.26675054 2.68275,6.15825 C2.84025079,6.04974946 2.97674942,5.88175114 3.09225,5.65425 C3.20775058,5.42674886 3.29699969,5.13625177 3.36,4.78275 C3.42300031,4.42924823 3.4545,4.00750245 3.4545,3.5175 C3.4545,3.02749755 3.42300031,2.60750175 3.36,2.2575 C3.29699969,1.90749825 3.20775058,1.6222511 3.09225,1.40175 C2.97674942,1.1812489 2.84025079,1.01850052 2.68275,0.9135 C2.52524921,0.808499475 2.34850098,0.756 2.1525,0.756 Z" id="Combined-Shape" fill="#848484" fill-rule="nonzero"></path>
                <path d="M282.352,6.3315 C282.520001,6.3315 282.673999,6.29650035 282.814,6.2265 C282.954001,6.15649965 283.076499,6.05675065 283.1815,5.92725 C283.286501,5.79774935 283.36875,5.64375089 283.42825,5.46525 C283.48775,5.28674911 283.5175,5.08550112 283.5175,4.8615 C283.5175,4.4204978 283.416001,4.07400126 283.213,3.822 C283.009999,3.56999874 282.698502,3.444 282.2785,3.444 C282.068499,3.444 281.839251,3.51224932 281.59075,3.64875 C281.342249,3.78525068 281.106001,4.01099842 280.882,4.326 C280.938,4.98400329 281.090249,5.4827483 281.33875,5.82225 C281.587251,6.1617517 281.924998,6.3315 282.352,6.3315 Z M283.7275,1.3125 C283.587499,1.15149919 283.421251,1.02375047 283.22875,0.92925 C283.036249,0.834749527 282.835001,0.7875 282.625,0.7875 C282.393999,0.7875 282.173501,0.83649951 281.9635,0.9345 C281.753499,1.03250049 281.568001,1.19349888 281.407,1.4175 C281.245999,1.64150112 281.1165,1.9337482 281.0185,2.29425 C280.9205,2.6547518 280.868,3.10099734 280.861,3.633 C281.071001,3.37399871 281.315999,3.16925075 281.596,3.01875 C281.876001,2.86824925 282.152499,2.793 282.4255,2.793 C283.006503,2.793 283.470248,2.96449828 283.81675,3.3075 C284.163252,3.65050171 284.3365,4.16849653 284.3365,4.8615 C284.3365,5.18350161 284.284001,5.47574869 284.179,5.73825 C284.073999,6.00075131 283.930501,6.22649906 283.7485,6.4155 C283.566499,6.60450094 283.356501,6.75149948 283.1185,6.8565 C282.880499,6.96150052 282.625001,7.014 282.352,7.014 C282.022998,7.014 281.718501,6.94750066 281.4385,6.8145 C281.158499,6.68149933 280.915251,6.48025135 280.70875,6.21075 C280.502249,5.94124865 280.339501,5.60525201 280.2205,5.20275 C280.101499,4.80024799 280.042,4.3295027 280.042,3.7905 C280.042,3.11849664 280.111999,2.54625236 280.252,2.07375 C280.392001,1.60124764 280.580999,1.21625149 280.819,0.91875 C281.057001,0.621248513 281.328248,0.404250682 281.63275,0.26775 C281.937252,0.131249318 282.257498,0.063 282.5935,0.063 C282.957502,0.063 283.270749,0.131249318 283.53325,0.26775 C283.795751,0.404250682 284.021499,0.573998985 284.2105,0.777 L283.7275,1.3125 Z M287.341,7.014 C286.661997,7.014 286.133502,6.71300301 285.7555,6.111 C285.377498,5.50899699 285.1885,4.64450564 285.1885,3.5175 C285.1885,2.39049436 285.377498,1.53300294 285.7555,0.945 C286.133502,0.35699706 286.661997,0.063 287.341,0.063 C288.013003,0.063 288.537998,0.35699706 288.916,0.945 C289.294002,1.53300294 289.483,2.39049436 289.483,3.5175 C289.483,4.64450564 289.294002,5.50899699 288.916,6.111 C288.537998,6.71300301 288.013003,7.014 287.341,7.014 Z M287.341,6.321 C287.537001,6.321 287.713749,6.26675054 287.87125,6.15825 C288.028751,6.04974946 288.165249,5.88175114 288.28075,5.65425 C288.396251,5.42674886 288.4855,5.13625177 288.5485,4.78275 C288.6115,4.42924823 288.643,4.00750245 288.643,3.5175 C288.643,3.02749755 288.6115,2.60750175 288.5485,2.2575 C288.4855,1.90749825 288.396251,1.6222511 288.28075,1.40175 C288.165249,1.1812489 288.028751,1.01850052 287.87125,0.9135 C287.713749,0.808499475 287.537001,0.756 287.341,0.756 C287.144999,0.756 286.966501,0.808499475 286.8055,0.9135 C286.644499,1.01850052 286.506251,1.1812489 286.39075,1.40175 C286.275249,1.6222511 286.186,1.90749825 286.123,2.2575 C286.06,2.60750175 286.0285,3.02749755 286.0285,3.5175 C286.0285,4.4975049 286.149249,5.20974778 286.39075,5.65425 C286.632251,6.09875222 286.948998,6.321 287.341,6.321 Z M292.5295,7.014 C291.850497,7.014 291.322002,6.71300301 290.944,6.111 C290.565998,5.50899699 290.377,4.64450564 290.377,3.5175 C290.377,2.39049436 290.565998,1.53300294 290.944,0.945 C291.322002,0.35699706 291.850497,0.063 292.5295,0.063 C293.201503,0.063 293.726498,0.35699706 294.1045,0.945 C294.482502,1.53300294 294.6715,2.39049436 294.6715,3.5175 C294.6715,4.64450564 294.482502,5.50899699 294.1045,6.111 C293.726498,6.71300301 293.201503,7.014 292.5295,7.014 Z M292.5295,6.321 C292.725501,6.321 292.902249,6.26675054 293.05975,6.15825 C293.217251,6.04974946 293.353749,5.88175114 293.46925,5.65425 C293.584751,5.42674886 293.674,5.13625177 293.737,4.78275 C293.8,4.42924823 293.8315,4.00750245 293.8315,3.5175 C293.8315,3.02749755 293.8,2.60750175 293.737,2.2575 C293.674,1.90749825 293.584751,1.6222511 293.46925,1.40175 C293.353749,1.1812489 293.217251,1.01850052 293.05975,0.9135 C292.902249,0.808499475 292.725501,0.756 292.5295,0.756 C292.333499,0.756 292.155001,0.808499475 291.994,0.9135 C291.832999,1.01850052 291.694751,1.1812489 291.57925,1.40175 C291.463749,1.6222511 291.3745,1.90749825 291.3115,2.2575 C291.2485,2.60750175 291.217,3.02749755 291.217,3.5175 C291.217,4.4975049 291.337749,5.20974778 291.57925,5.65425 C291.820751,6.09875222 292.137498,6.321 292.5295,6.321 Z M296.0485,-5.68434189e-14 L296.92,-5.68434189e-14 L296.92,3.4545 L296.9515,3.4545 L299.818,-5.68434189e-14 L300.805,-5.68434189e-14 L298.6525,2.625 L301.141,6.888 L300.1645,6.888 L298.1065,3.3075 L296.92,4.704 L296.92,6.888 L296.0485,6.888 L296.0485,-5.68434189e-14 Z" id="600K" fill="#848484" fill-rule="nonzero"></path>
                <path d="M144.252,5.502 C144.455001,5.71200105 144.691249,5.89749919 144.96075,6.0585 C145.230251,6.2195008 145.564498,6.3 145.9635,6.3 C146.369502,6.3 146.701999,6.1897511 146.961,5.96925 C147.220001,5.7487489 147.3495,5.44950189 147.3495,5.0715 C147.3495,4.87549902 147.31275,4.69525082 147.23925,4.53075 C147.16575,4.36624918 147.045001,4.22450059 146.877,4.1055 C146.708999,3.9864994 146.488501,3.89550031 146.2155,3.8325 C145.942499,3.76949968 145.606502,3.738 145.2075,3.738 L145.2075,3.0765 C145.564502,3.0765 145.863749,3.04500031 146.10525,2.982 C146.346751,2.91899968 146.542749,2.83150056 146.69325,2.7195 C146.843751,2.60749944 146.9505,2.47450077 147.0135,2.3205 C147.0765,2.16649923 147.108,2.00200087 147.108,1.827 C147.108,1.49799835 147.004751,1.23900094 146.79825,1.05 C146.591749,0.860999055 146.310002,0.7665 145.953,0.7665 C145.672999,0.7665 145.415751,0.82949937 145.18125,0.9555 C144.946749,1.08150063 144.728001,1.24599898 144.525,1.449 L144.063,0.903 C144.322001,0.657998775 144.607248,0.456750787 144.91875,0.29925 C145.230252,0.141749212 145.585498,0.063 145.9845,0.063 C146.278501,0.063 146.547999,0.101499615 146.793,0.1785 C147.038001,0.255500385 147.249749,0.365749282 147.42825,0.50925 C147.606751,0.652750717 147.745,0.82949895 147.843,1.0395 C147.941,1.24950105 147.99,1.49099863 147.99,1.764 C147.99,2.17000203 147.878001,2.5024987 147.654,2.7615 C147.429999,3.02050129 147.136002,3.2199993 146.772,3.36 L146.772,3.402 C146.975001,3.45100024 147.163999,3.52274953 147.339,3.61725 C147.514001,3.71175047 147.667999,3.83074928 147.801,3.97425 C147.934001,4.11775072 148.03725,4.28399905 148.11075,4.473 C148.18425,4.66200094 148.221,4.87199884 148.221,5.103 C148.221,5.39700147 148.163251,5.66299881 148.04775,5.901 C147.932249,6.13900119 147.774751,6.34024918 147.57525,6.50475 C147.375749,6.66925082 147.143001,6.79524956 146.877,6.88275 C146.610999,6.97025044 146.324002,7.014 146.016,7.014 C145.749999,7.014 145.506751,6.98775026 145.28625,6.93525 C145.065749,6.88274974 144.864501,6.81275044 144.6825,6.72525 C144.500499,6.63774956 144.337751,6.53800056 144.19425,6.426 C144.050749,6.31399944 143.923001,6.19500063 143.811,6.069 L144.252,5.502 Z M151.341,7.014 C150.661997,7.014 150.133502,6.71300301 149.7555,6.111 C149.377498,5.50899699 149.1885,4.64450564 149.1885,3.5175 C149.1885,2.39049436 149.377498,1.53300294 149.7555,0.945 C150.133502,0.35699706 150.661997,0.063 151.341,0.063 C152.013003,0.063 152.537998,0.35699706 152.916,0.945 C153.294002,1.53300294 153.483,2.39049436 153.483,3.5175 C153.483,4.64450564 153.294002,5.50899699 152.916,6.111 C152.537998,6.71300301 152.013003,7.014 151.341,7.014 Z M151.341,6.321 C151.537001,6.321 151.713749,6.26675054 151.87125,6.15825 C152.028751,6.04974946 152.165249,5.88175114 152.28075,5.65425 C152.396251,5.42674886 152.4855,5.13625177 152.5485,4.78275 C152.6115,4.42924823 152.643,4.00750245 152.643,3.5175 C152.643,3.02749755 152.6115,2.60750175 152.5485,2.2575 C152.4855,1.90749825 152.396251,1.6222511 152.28075,1.40175 C152.165249,1.1812489 152.028751,1.01850052 151.87125,0.9135 C151.713749,0.808499475 151.537001,0.756 151.341,0.756 C151.144999,0.756 150.966501,0.808499475 150.8055,0.9135 C150.644499,1.01850052 150.506251,1.1812489 150.39075,1.40175 C150.275249,1.6222511 150.186,1.90749825 150.123,2.2575 C150.06,2.60750175 150.0285,3.02749755 150.0285,3.5175 C150.0285,4.4975049 150.149249,5.20974778 150.39075,5.65425 C150.632251,6.09875222 150.948998,6.321 151.341,6.321 Z M156.5295,7.014 C155.850497,7.014 155.322002,6.71300301 154.944,6.111 C154.565998,5.50899699 154.377,4.64450564 154.377,3.5175 C154.377,2.39049436 154.565998,1.53300294 154.944,0.945 C155.322002,0.35699706 155.850497,0.063 156.5295,0.063 C157.201503,0.063 157.726498,0.35699706 158.1045,0.945 C158.482502,1.53300294 158.6715,2.39049436 158.6715,3.5175 C158.6715,4.64450564 158.482502,5.50899699 158.1045,6.111 C157.726498,6.71300301 157.201503,7.014 156.5295,7.014 Z M156.5295,6.321 C156.725501,6.321 156.902249,6.26675054 157.05975,6.15825 C157.217251,6.04974946 157.353749,5.88175114 157.46925,5.65425 C157.584751,5.42674886 157.674,5.13625177 157.737,4.78275 C157.8,4.42924823 157.8315,4.00750245 157.8315,3.5175 C157.8315,3.02749755 157.8,2.60750175 157.737,2.2575 C157.674,1.90749825 157.584751,1.6222511 157.46925,1.40175 C157.353749,1.1812489 157.217251,1.01850052 157.05975,0.9135 C156.902249,0.808499475 156.725501,0.756 156.5295,0.756 C156.333499,0.756 156.155001,0.808499475 155.994,0.9135 C155.832999,1.01850052 155.694751,1.1812489 155.57925,1.40175 C155.463749,1.6222511 155.3745,1.90749825 155.3115,2.2575 C155.2485,2.60750175 155.217,3.02749755 155.217,3.5175 C155.217,4.4975049 155.337749,5.20974778 155.57925,5.65425 C155.820751,6.09875222 156.137498,6.321 156.5295,6.321 Z M160.0485,-5.68434189e-14 L160.92,-5.68434189e-14 L160.92,3.4545 L160.9515,3.4545 L163.818,-5.68434189e-14 L164.805,-5.68434189e-14 L162.6525,2.625 L165.141,6.888 L164.1645,6.888 L162.1065,3.3075 L160.92,4.704 L160.92,6.888 L160.0485,6.888 L160.0485,-5.68434189e-14 Z" id="300K" fill="#848484" fill-rule="nonzero"></path>
                <path d="M215.63,4.347 L217.73,4.347 L217.73,2.4045 C217.73,2.26799932 217.732953,2.11279723 217.738859,1.93889102 L217.762812,1.41093738 C217.768937,1.30331264 217.7755,1.20400045 217.7825,1.113 L217.7405,1.113 C217.6565,1.2740008 217.569,1.43149923 217.478,1.5855 L217.1945,2.058 L217.1945,2.058 L215.63,4.347 Z M219.4625,5.04 L218.549,5.04 L218.549,6.888 L217.73,6.888 L217.73,5.04 L214.7165,5.04 L214.7165,4.473 L217.583,0.189 L218.549,0.189 L218.549,4.347 L219.4625,4.347 L219.4625,5.04 Z M220.409,5.5335 C220.605001,5.73650101 220.837749,5.91499923 221.10725,6.069 C221.376751,6.22300077 221.707498,6.3 222.0995,6.3 C222.302501,6.3 222.493249,6.26325037 222.67175,6.18975 C222.850251,6.11624963 223.005999,6.01300066 223.139,5.88 C223.272001,5.74699933 223.377,5.58600094 223.454,5.397 C223.531,5.20799906 223.5695,4.99800115 223.5695,4.767 C223.5695,4.30499769 223.440001,3.94450129 223.181,3.6855 C222.921999,3.42649871 222.575502,3.297 222.1415,3.297 C221.910499,3.297 221.712751,3.33199965 221.54825,3.402 C221.383749,3.47200035 221.200001,3.57349934 220.997,3.7065 L220.535,3.4125 L220.7555,0.189 L224.105,0.189 L224.105,0.9345 L221.5115,0.9345 L221.333,2.919 C221.494001,2.83499958 221.654999,2.76850024 221.816,2.7195 C221.977001,2.67049975 222.158999,2.646 222.362,2.646 C222.649001,2.646 222.918499,2.68799958 223.1705,2.772 C223.422501,2.85600042 223.642999,2.98374914 223.832,3.15525 C224.021001,3.32675086 224.169749,3.54374869 224.27825,3.80625 C224.386751,4.06875131 224.441,4.38199818 224.441,4.746 C224.441,5.11000182 224.378001,5.4319986 224.252,5.712 C224.125999,5.9920014 223.958001,6.22824904 223.748,6.42075 C223.537999,6.61325096 223.298251,6.76024949 223.02875,6.86175 C222.759249,6.96325051 222.477501,7.014 222.1835,7.014 C221.917499,7.014 221.674251,6.98775026 221.45375,6.93525 C221.233249,6.88274974 221.033751,6.81450042 220.85525,6.7305 C220.676749,6.64649958 220.515751,6.55025054 220.37225,6.44175 C220.228749,6.33324946 220.101001,6.21950059 219.989,6.1005 L220.409,5.5335 Z M227.5295,7.014 C226.850497,7.014 226.322002,6.71300301 225.944,6.111 C225.565998,5.50899699 225.377,4.64450564 225.377,3.5175 C225.377,2.39049436 225.565998,1.53300294 225.944,0.945 C226.322002,0.35699706 226.850497,0.063 227.5295,0.063 C228.201503,0.063 228.726498,0.35699706 229.1045,0.945 C229.482502,1.53300294 229.6715,2.39049436 229.6715,3.5175 C229.6715,4.64450564 229.482502,5.50899699 229.1045,6.111 C228.726498,6.71300301 228.201503,7.014 227.5295,7.014 Z M227.5295,6.321 C227.725501,6.321 227.902249,6.26675054 228.05975,6.15825 C228.217251,6.04974946 228.353749,5.88175114 228.46925,5.65425 C228.584751,5.42674886 228.674,5.13625177 228.737,4.78275 C228.8,4.42924823 228.8315,4.00750245 228.8315,3.5175 C228.8315,3.02749755 228.8,2.60750175 228.737,2.2575 C228.674,1.90749825 228.584751,1.6222511 228.46925,1.40175 C228.353749,1.1812489 228.217251,1.01850052 228.05975,0.9135 C227.902249,0.808499475 227.725501,0.756 227.5295,0.756 C227.333499,0.756 227.155001,0.808499475 226.994,0.9135 C226.832999,1.01850052 226.694751,1.1812489 226.57925,1.40175 C226.463749,1.6222511 226.3745,1.90749825 226.3115,2.2575 C226.2485,2.60750175 226.217,3.02749755 226.217,3.5175 C226.217,4.4975049 226.337749,5.20974778 226.57925,5.65425 C226.820751,6.09875222 227.137498,6.321 227.5295,6.321 Z M231.0485,-5.68434189e-14 L231.92,-5.68434189e-14 L231.92,3.4545 L231.9515,3.4545 L234.818,-5.68434189e-14 L235.805,-5.68434189e-14 L233.6525,2.625 L236.141,6.888 L235.1645,6.888 L233.1065,3.3075 L231.92,4.704 L231.92,6.888 L231.0485,6.888 L231.0485,-5.68434189e-14 Z" id="450K" fill="#848484" fill-rule="nonzero"></path>
                <path d="M65.3675,6.174 L66.9005,6.174 L66.9005,1.239 L65.6825,1.239 L65.6825,0.6825 C65.9905015,0.62649972 66.2582489,0.558250402 66.48575,0.47775 C66.7132511,0.397249597 66.9179991,0.30100056 67.1,0.189 L67.7615,0.189 L67.7615,6.174 L69.1475,6.174 L69.1475,6.888 L65.3675,6.888 L65.3675,6.174 Z M70.409,5.5335 C70.605001,5.73650101 70.8377487,5.91499923 71.10725,6.069 C71.3767513,6.22300077 71.707498,6.3 72.0995,6.3 C72.302501,6.3 72.4932491,6.26325037 72.67175,6.18975 C72.8502509,6.11624963 73.0059993,6.01300066 73.139,5.88 C73.2720007,5.74699933 73.3769996,5.58600094 73.454,5.397 C73.5310004,5.20799906 73.5695,4.99800115 73.5695,4.767 C73.5695,4.30499769 73.4400013,3.94450129 73.181,3.6855 C72.9219987,3.42649871 72.5755022,3.297 72.1415,3.297 C71.9104988,3.297 71.7127508,3.33199965 71.54825,3.402 C71.3837492,3.47200035 71.200001,3.57349934 70.997,3.7065 L70.535,3.4125 L70.7555,0.189 L74.105,0.189 L74.105,0.9345 L71.5115,0.9345 L71.333,2.919 C71.4940008,2.83499958 71.6549992,2.76850024 71.816,2.7195 C71.9770008,2.67049975 72.158999,2.646 72.362,2.646 C72.6490014,2.646 72.9184987,2.68799958 73.1705,2.772 C73.4225013,2.85600042 73.6429991,2.98374914 73.832,3.15525 C74.0210009,3.32675086 74.1697495,3.54374869 74.27825,3.80625 C74.3867505,4.06875131 74.441,4.38199818 74.441,4.746 C74.441,5.11000182 74.3780006,5.4319986 74.252,5.712 C74.1259994,5.9920014 73.9580011,6.22824904 73.748,6.42075 C73.537999,6.61325096 73.2982513,6.76024949 73.02875,6.86175 C72.7592487,6.96325051 72.4775015,7.014 72.1835,7.014 C71.9174987,7.014 71.6742511,6.98775026 71.45375,6.93525 C71.2332489,6.88274974 71.0337509,6.81450042 70.85525,6.7305 C70.6767491,6.64649958 70.5157507,6.55025054 70.37225,6.44175 C70.2287493,6.33324946 70.1010006,6.21950059 69.989,6.1005 L70.409,5.5335 Z M77.5295,7.014 C76.8504966,7.014 76.3220019,6.71300301 75.944,6.111 C75.5659981,5.50899699 75.377,4.64450564 75.377,3.5175 C75.377,2.39049436 75.5659981,1.53300294 75.944,0.945 C76.3220019,0.35699706 76.8504966,0.063 77.5295,0.063 C78.2015034,0.063 78.7264981,0.35699706 79.1045,0.945 C79.4825019,1.53300294 79.6715,2.39049436 79.6715,3.5175 C79.6715,4.64450564 79.4825019,5.50899699 79.1045,6.111 C78.7264981,6.71300301 78.2015034,7.014 77.5295,7.014 Z M77.5295,6.321 C77.725501,6.321 77.9022492,6.26675054 78.05975,6.15825 C78.2172508,6.04974946 78.3537494,5.88175114 78.46925,5.65425 C78.5847506,5.42674886 78.6739997,5.13625177 78.737,4.78275 C78.8000003,4.42924823 78.8315,4.00750245 78.8315,3.5175 C78.8315,3.02749755 78.8000003,2.60750175 78.737,2.2575 C78.6739997,1.90749825 78.5847506,1.6222511 78.46925,1.40175 C78.3537494,1.1812489 78.2172508,1.01850052 78.05975,0.9135 C77.9022492,0.808499475 77.725501,0.756 77.5295,0.756 C77.333499,0.756 77.1550008,0.808499475 76.994,0.9135 C76.8329992,1.01850052 76.6947506,1.1812489 76.57925,1.40175 C76.4637494,1.6222511 76.3745003,1.90749825 76.3115,2.2575 C76.2484997,2.60750175 76.217,3.02749755 76.217,3.5175 C76.217,4.4975049 76.3377488,5.20974778 76.57925,5.65425 C76.8207512,6.09875222 77.137498,6.321 77.5295,6.321 Z M81.0485,-5.68434189e-14 L81.92,-5.68434189e-14 L81.92,3.4545 L81.9515,3.4545 L84.818,-5.68434189e-14 L85.805,-5.68434189e-14 L83.6525,2.625 L86.141,6.888 L85.1645,6.888 L83.1065,3.3075 L81.92,4.704 L81.92,6.888 L81.0485,6.888 L81.0485,-5.68434189e-14 Z" id="150K" fill="#848484" fill-rule="nonzero"></path>
                <text id="-" font-family="SourceSansPro-Regular, Source Sans Pro" font-size="9" font-weight="normal"></text>
                <path d="M12.0525,66.4755 C12.0525,65.9154972 12.1347492,65.4132522 12.29925,64.96875 C12.4637508,64.5242478 12.6894986,64.1480015 12.9765,63.84 C13.2635014,63.5319985 13.5994981,63.2975008 13.9845,63.1365 C14.3695019,62.9754992 14.7824978,62.895 15.2235,62.895 C15.6435021,62.895 16.0197483,62.9824991 16.35225,63.1575 C16.6847517,63.3325009 16.9594989,63.5354988 17.1765,63.7665 L16.494,64.5225 C16.3189991,64.3474991 16.131751,64.2092505 15.93225,64.10775 C15.732749,64.0062495 15.5000013,63.9555 15.234,63.9555 C14.9469986,63.9555 14.6862512,64.0132494 14.45175,64.12875 C14.2172488,64.2442506 14.0142509,64.4087489 13.84275,64.62225 C13.6712491,64.8357511 13.5382505,65.0964985 13.44375,65.4045 C13.3492495,65.7125015 13.302,66.0589981 13.302,66.444 C13.302,67.2280039 13.4717483,67.8422478 13.81125,68.28675 C14.1507517,68.7312522 14.6109971,68.9535 15.192,68.9535 C15.5000015,68.9535 15.7677489,68.8940006 15.99525,68.775 C16.2227511,68.6559994 16.434499,68.4880011 16.6305,68.271 L17.313,69.0165 C17.0329986,69.3385016 16.7145018,69.5852491 16.3575,69.75675 C16.0004982,69.9282509 15.6050022,70.014 15.171,70.014 C14.7299978,70.014 14.3205019,69.9370008 13.9425,69.783 C13.5644981,69.6289992 13.2355014,69.4015015 12.9555,69.1005 C12.6754986,68.7994985 12.4550008,68.4285022 12.294,67.9875 C12.1329992,67.5464978 12.0525,67.0425028 12.0525,66.4755 Z M18.4425,63.021 L19.6605,63.021 L19.6605,68.859 L22.5165,68.859 L22.5165,69.888 L18.4425,69.888 L18.4425,63.021 Z M22.974,63.021 L24.192,63.021 L24.192,66.969 C24.192,67.3400019 24.2252497,67.6532487 24.29175,67.90875 C24.3582503,68.1642513 24.4527494,68.3689992 24.57525,68.523 C24.6977506,68.6770008 24.8429992,68.7872497 25.011,68.85375 C25.1790008,68.9202503 25.367999,68.9535 25.578,68.9535 C25.7880011,68.9535 25.9804991,68.9202503 26.1555,68.85375 C26.3305009,68.7872497 26.4809994,68.6770008 26.607,68.523 C26.7330006,68.3689992 26.8309997,68.1642513 26.901,67.90875 C26.9710004,67.6532487 27.006,67.3400019 27.006,66.969 L27.006,63.021 L28.1715,63.021 L28.1715,66.8745 C28.1715,67.4415028 28.1120006,67.922748 27.993,68.31825 C27.8739994,68.713752 27.7007511,69.0374987 27.47325,69.2895 C27.2457489,69.5415013 26.9727516,69.7252494 26.65425,69.84075 C26.3357484,69.9562506 25.977002,70.014 25.578,70.014 C25.178998,70.014 24.8202516,69.9562506 24.50175,69.84075 C24.1832484,69.7252494 23.9102511,69.5415013 23.68275,69.2895 C23.4552489,69.0374987 23.2802506,68.713752 23.15775,68.31825 C23.0352494,67.922748 22.974,67.4415028 22.974,66.8745 L22.974,63.021 Z M29.8995,68.1765 C30.1445012,68.4075012 30.4244984,68.5947493 30.7395,68.73825 C31.0545016,68.8817507 31.3694984,68.9535 31.6845,68.9535 C32.076502,68.9535 32.373999,68.8730008 32.577,68.712 C32.780001,68.5509992 32.8815,68.3375013 32.8815,68.0715 C32.8815,67.9314993 32.8552503,67.8125005 32.80275,67.7145 C32.7502497,67.6164995 32.6767505,67.5307504 32.58225,67.45725 C32.4877495,67.3837496 32.3757507,67.3155003 32.24625,67.2525 L32.1126666,67.1894999 L32.1126666,67.1894999 L30.876,66.654 C30.7079992,66.5839996 30.5417508,66.4965005 30.37725,66.3915 C30.2127492,66.2864995 30.0640007,66.1605007 29.931,66.0135 C29.7979993,65.8664993 29.6912504,65.695001 29.61075,65.499 C29.5302496,65.302999 29.49,65.0790013 29.49,64.827 C29.49,64.5539986 29.5477494,64.3002512 29.66325,64.06575 C29.7787506,63.8312488 29.937999,63.6265009 30.141,63.4515 C30.344001,63.2764991 30.5872486,63.1400005 30.87075,63.042 C31.1542514,62.9439995 31.4639983,62.895 31.8,62.895 C32.199002,62.895 32.5839982,62.9737492 32.955,63.13125 C33.3260019,63.2887508 33.6444987,63.5004987 33.9105,63.7665 L33.291,64.5435 C33.0669989,64.3614991 32.8360012,64.2180005 32.598,64.113 C32.3599988,64.0079995 32.0940015,63.9555 31.8,63.9555 C31.4709984,63.9555 31.208501,64.0272493 31.0125,64.17075 C30.816499,64.3142507 30.7185,64.5119987 30.7185,64.764 C30.7185,64.8970007 30.7482497,65.0107495 30.80775,65.10525 C30.8672503,65.1997505 30.9477495,65.2837496 31.04925,65.35725 C31.1507505,65.4307504 31.2679993,65.4972497 31.401,65.55675 L31.603125,65.6446875 L31.603125,65.6446875 L32.745,66.1185 C32.948001,66.2025004 33.1334992,66.3004994 33.3015,66.4125 C33.4695008,66.5245006 33.6147494,66.6539993 33.73725,66.801 C33.8597506,66.9480007 33.9559997,67.117749 34.026,67.31025 C34.0960004,67.502751 34.131,67.7249987 34.131,67.977 C34.131,68.2570014 34.0750006,68.5194988 33.963,68.7645 C33.8509994,69.0095012 33.6882511,69.2247491 33.47475,69.41025 C33.2612489,69.5957509 33.0022515,69.7427495 32.69775,69.85125 C32.3932485,69.9597505 32.0485019,70.014 31.6635,70.014 C31.2014977,70.014 30.7552522,69.9265009 30.32475,69.7515 C29.8942479,69.5764991 29.5145017,69.3280016 29.1855,69.006 L29.8995,68.1765 Z M36.3315,64.05 L34.347,64.05 L34.347,63.021 L39.534,63.021 L39.534,64.05 L37.5495,64.05 L37.5495,69.888 L36.3315,69.888 L36.3315,64.05 Z M40.6635,63.021 L44.8005,63.021 L44.8005,64.05 L41.8815,64.05 L41.8815,65.8035 L44.349,65.8035 L44.349,66.8325 L41.8815,66.8325 L41.8815,68.859 L44.9055,68.859 L44.9055,69.888 L40.6635,69.888 L40.6635,63.021 Z M47.5155,66.234 L48.492,66.234 C48.9610023,66.234 49.3197488,66.136001 49.56825,65.94 C49.8167512,65.743999 49.941,65.450002 49.941,65.058 C49.941,64.658998 49.8167512,64.3825008 49.56825,64.2285 C49.3197488,64.0744992 48.9610023,63.9975 48.492,63.9975 L47.5155,63.9975 L47.5155,66.234 Z M50.046,69.888 L48.5655,67.2 L47.5155,67.2 L47.5155,69.888 L46.2975,69.888 L46.2975,63.021 L48.618,63.021 C48.9750018,63.021 49.3074985,63.0559996 49.6155,63.126 C49.9235015,63.1960004 50.1894989,63.3097492 50.4135,63.46725 C50.6375011,63.6247508 50.8142494,63.8329987 50.94375,64.092 C51.0732506,64.3510013 51.138,64.6729981 51.138,65.058 C51.138,65.5830026 51.0137512,66.0064984 50.76525,66.3285 C50.5167488,66.6505016 50.1860021,66.8814993 49.773,67.0215 L51.411,69.888 L50.046,69.888 Z M54.7095,63.021 L56.0535,63.021 L57.2925,66.402 L57.744,67.704 L57.786,67.704 L58.227,66.402 L59.445,63.021 L60.789,63.021 L60.789,69.888 L59.6445,69.888 L59.6445,66.7485 L59.6515,66.4078336 L59.6515,66.4078336 L59.66025,66.2235 C59.6707501,66.0344991 59.6829999,65.843751 59.697,65.65125 L59.720625,65.365125 L59.720625,65.365125 L59.802,64.5645 L59.802,64.5645 L59.76,64.5645 L59.2035,66.129 L58.017,69.2475 L57.45,69.2475 L56.2635,66.129 L55.7175,64.5645 L55.6755,64.5645 L55.77525,65.65125 L55.77525,65.65125 C55.7927501,65.843751 55.8067499,66.0344991 55.81725,66.2235 C55.8277501,66.4125009 55.833,66.5874992 55.833,66.7485 L55.833,69.888 L54.7095,69.888 L54.7095,63.021 Z M62.517,63.021 L66.654,63.021 L66.654,64.05 L63.735,64.05 L63.735,65.8035 L66.2025,65.8035 L66.2025,66.8325 L63.735,66.8325 L63.735,68.859 L66.759,68.859 L66.759,69.888 L62.517,69.888 L62.517,63.021 Z M68.151,63.021 L69.9885,63.021 C71.0385053,63.021 71.8574971,63.3044972 72.4455,63.8715 C73.0335029,64.4385028 73.3275,65.2889943 73.3275,66.423 C73.3275,66.9900028 73.2522508,67.4904978 73.10175,67.9245 C72.9512492,68.3585022 72.7342514,68.7207485 72.45075,69.01125 C72.1672486,69.3017515 71.824252,69.5204993 71.42175,69.6675 C71.019248,69.8145007 70.5625026,69.888 70.0515,69.888 L68.151,69.888 L68.151,63.021 Z M69.9045,68.901 C70.6045035,68.901 71.1417481,68.699752 71.51625,68.29725 C71.8907519,67.894748 72.078,67.2700042 72.078,66.423 C72.078,65.5829958 71.8890019,64.9705019 71.511,64.5855 C71.1329981,64.2004981 70.5975035,64.008 69.9045,64.008 L69.369,64.008 L69.369,68.901 L69.9045,68.901 Z M74.6985,63.021 L75.9165,63.021 L75.9165,69.888 L74.6985,69.888 L74.6985,63.021 Z M80.5635,67.074 L80.322,66.234 C80.2099994,65.8699982 80.1032505,65.4955019 80.00175,65.1105 L79.7025,63.966 L79.7025,63.966 L79.6605,63.966 L79.3665,65.11575 L79.3665,65.11575 C79.2684995,65.4972519 79.1635006,65.8699982 79.0515,66.234 L78.81,67.074 L80.5635,67.074 Z M80.8365,68.0295 L78.5265,68.0295 L77.991,69.888 L76.752,69.888 L78.9885,63.021 L80.4165,63.021 L82.653,69.888 L81.372,69.888 L80.8365,68.0295 Z M83.4885,63.021 L84.738,63.021 L86.88,66.885 L87.5835,68.3445 L87.6255,68.3445 L87.5625001,67.5955005 C87.5508334,67.464834 87.5385834,67.3312507 87.52575,67.19475 C87.4872498,66.785248 87.468,66.3880019 87.468,66.003 L87.468,63.021 L88.6335,63.021 L88.6335,69.888 L87.384,69.888 L85.242,66.024 L84.5385,64.5645 L84.4965,64.5645 L84.5594999,65.3158329 C84.5711666,65.4449438 84.5834166,65.5759993 84.59625,65.709 C84.6347502,66.108002 84.654,66.4999981 84.654,66.885 L84.654,69.888 L83.4885,69.888 L83.4885,63.021 Z M90.1515,65.604 C90.1515,65.3659988 90.2267492,65.1700008 90.37725,65.016 C90.5277508,64.8619992 90.7149989,64.785 90.939,64.785 C91.1630011,64.785 91.3484993,64.8619992 91.4955,65.016 C91.6425007,65.1700008 91.716,65.3659988 91.716,65.604 C91.716,65.8420012 91.6425007,66.0379992 91.4955,66.192 C91.3484993,66.3460008 91.1630011,66.423 90.939,66.423 C90.7149989,66.423 90.5277508,66.3460008 90.37725,66.192 C90.2267492,66.0379992 90.1515,65.8420012 90.1515,65.604 Z M90.1515,69.195 C90.1515,68.9569988 90.2267492,68.7610008 90.37725,68.607 C90.5277508,68.4529992 90.7149989,68.376 90.939,68.376 C91.1630011,68.376 91.3484993,68.4529992 91.4955,68.607 C91.6425007,68.7610008 91.716,68.9569988 91.716,69.195 C91.716,69.4330012 91.6425007,69.6289992 91.4955,69.783 C91.3484993,69.9370008 91.1630011,70.014 90.939,70.014 C90.7149989,70.014 90.5277508,69.9370008 90.37725,69.783 C90.2267492,69.6289992 90.1515,69.4330012 90.1515,69.195 Z M95.991,68.0505 C95.991,68.3865017 96.1099988,68.654249 96.348,68.85375 C96.5860012,69.053251 96.8764983,69.153 97.2195,69.153 C97.5415016,69.153 97.805749,69.0655009 98.01225,68.8905 C98.218751,68.7154991 98.322,68.4705016 98.322,68.1555 C98.322,67.9734991 98.2800004,67.8177506 98.196,67.68825 C98.1119996,67.5587494 97.9982507,67.4432505 97.85475,67.34175 C97.7112493,67.2402495 97.541501,67.1475004 97.3455,67.0635 L96.9348336,66.8908334 C96.8632782,66.8612779 96.790167,66.8313335 96.7155,66.801 C96.505499,66.9550008 96.3322507,67.1369989 96.19575,67.347 C96.0592493,67.557001 95.991,67.7914987 95.991,68.0505 Z M97.6395,66.1185 C97.8215009,65.9364991 97.9597495,65.7510009 98.05425,65.562 C98.1487505,65.3729991 98.196,65.173501 98.196,64.9635 C98.196,64.6694985 98.1102509,64.426251 97.93875,64.23375 C97.7672491,64.041249 97.5240016,63.945 97.209,63.945 C96.9499987,63.945 96.7330009,64.0237492 96.558,64.18125 C96.3829991,64.3387508 96.2955,64.5644985 96.2955,64.8585 C96.2955,65.0265008 96.3304997,65.1734994 96.4005,65.2995 C96.4705004,65.4255006 96.5667494,65.5357495 96.68925,65.63025 C96.8117506,65.7247505 96.9534992,65.8122496 97.1145,65.89275 C97.2755008,65.9732504 97.4504991,66.0484996 97.6395,66.1185 Z M94.9305,68.1765 C94.9305,67.966499 94.9637497,67.7757509 95.03025,67.60425 C95.0967503,67.4327491 95.1859994,67.2770007 95.298,67.137 C95.4100006,66.9969993 95.5377493,66.8710006 95.68125,66.759 C95.8247507,66.6469994 95.9769992,66.5490004 96.138,66.465 L96.138,66.423 C95.8789987,66.2409991 95.6602509,66.0240013 95.48175,65.772 C95.3032491,65.5199987 95.214,65.2155018 95.214,64.8585 C95.214,64.5854986 95.2647495,64.3405011 95.36625,64.1235 C95.4677505,63.9064989 95.6077491,63.7210008 95.78625,63.567 C95.9647509,63.4129992 96.1782488,63.2940004 96.42675,63.21 C96.6752512,63.1259996 96.9429986,63.084 97.23,63.084 C97.5310015,63.084 97.8022488,63.1277496 98.04375,63.21525 C98.2852512,63.3027504 98.4917491,63.4252492 98.66325,63.58275 C98.8347509,63.7402508 98.9659995,63.9292489 99.057,64.14975 C99.1480005,64.3702511 99.1935,64.6169986 99.1935,64.89 C99.1935,65.0580008 99.1672503,65.2172492 99.11475,65.36775 C99.0622497,65.5182508 98.9940004,65.6582494 98.91,65.78775 C98.8259996,65.9172506 98.7297505,66.0362495 98.62125,66.14475 C98.5127495,66.2532505 98.4060005,66.3459996 98.301,66.423 L98.301,66.465 C98.4550008,66.5490004 98.6019993,66.6452495 98.742,66.75375 C98.8820007,66.8622505 99.0044995,66.9864993 99.1095,67.1265 C99.2145005,67.2665007 99.2984997,67.4239991 99.3615,67.599 C99.4245003,67.7740009 99.456,67.9734989 99.456,68.1975 C99.456,68.4565013 99.4017505,68.6962489 99.29325,68.91675 C99.1847495,69.1372511 99.032501,69.3297492 98.8365,69.49425 C98.640499,69.6587508 98.4025014,69.7864995 98.1225,69.8775 C97.8424986,69.9685005 97.5345017,70.014 97.1985,70.014 C96.8694984,70.014 96.5667514,69.9685005 96.29025,69.8775 C96.0137486,69.7864995 95.775751,69.6605008 95.57625,69.4995 C95.376749,69.3384992 95.2192506,69.1460011 95.10375,68.922 C94.9882494,68.6979989 94.9305,68.4495014 94.9305,68.1765 Z M102.5595,70.014 C101.859497,70.014 101.306502,69.714753 100.9005,69.11625 C100.494498,68.517747 100.2915,67.6515057 100.2915,66.5175 C100.2915,65.3834943 100.494498,64.5277529 100.9005,63.95025 C101.306502,63.3727471 101.859497,63.084 102.5595,63.084 C103.259504,63.084 103.812498,63.3744971 104.2185,63.9555 C104.624502,64.5365029 104.8275,65.3904944 104.8275,66.5175 C104.8275,67.6515057 104.624502,68.517747 104.2185,69.11625 C103.812498,69.714753 103.259504,70.014 102.5595,70.014 Z M102.5595,69.069 C102.720501,69.069 102.869249,69.0252504 103.00575,68.93775 C103.142251,68.8502496 103.2595,68.705001 103.3575,68.502 C103.4555,68.298999 103.5325,68.0365016 103.5885,67.7145 C103.6445,67.3924984 103.6725,66.9935024 103.6725,66.5175 C103.6725,66.0484977 103.6445,65.6547516 103.5885,65.33625 C103.5325,65.0177484 103.4555,64.760501 103.3575,64.5645 C103.2595,64.368499 103.142251,64.2302504 103.00575,64.14975 C102.869249,64.0692496 102.720501,64.029 102.5595,64.029 C102.398499,64.029 102.249751,64.0692496 102.11325,64.14975 C101.976749,64.2302504 101.8595,64.368499 101.7615,64.5645 C101.6635,64.760501 101.5865,65.0177484 101.5305,65.33625 C101.4745,65.6547516 101.4465,66.0484977 101.4465,66.5175 C101.4465,66.9935024 101.4745,67.3924984 101.5305,67.7145 C101.5865,68.0365016 101.6635,68.298999 101.7615,68.502 C101.8595,68.705001 101.976749,68.8502496 102.11325,68.93775 C102.249751,69.0252504 102.398499,69.069 102.5595,69.069 Z M107.805,66.465 C107.994001,66.465 108.195249,66.4055006 108.40875,66.2865 C108.622251,66.1674994 108.819999,65.9680014 109.002,65.688 C108.939,65.0999971 108.793751,64.6730013 108.56625,64.407 C108.338749,64.1409987 108.064002,64.008 107.742,64.008 C107.468999,64.008 107.234501,64.1164989 107.0385,64.3335 C106.842499,64.5505011 106.7445,64.861998 106.7445,65.268 C106.7445,65.667002 106.837249,65.966249 107.02275,66.16575 C107.208251,66.365251 107.468998,66.465 107.805,66.465 Z M106.3875,68.523 C106.513501,68.6700007 106.672749,68.7907495 106.86525,68.88525 C107.057751,68.9797505 107.255499,69.027 107.4585,69.027 C107.668501,69.027 107.866249,68.9850004 108.05175,68.901 C108.237251,68.8169996 108.399999,68.678751 108.54,68.48625 C108.680001,68.293749 108.79375,68.0400016 108.88125,67.725 C108.96875,67.4099984 109.0195,67.0215023 109.0335,66.5595 C108.837499,66.8045012 108.606501,66.9952493 108.3405,67.13175 C108.074499,67.2682507 107.819001,67.3365 107.574,67.3365 C107.286999,67.3365 107.024501,67.2945004 106.7865,67.2105 C106.548499,67.1264996 106.343751,66.9987509 106.17225,66.82725 C106.000749,66.6557491 105.86775,66.4405013 105.77325,66.1815 C105.67875,65.9224987 105.6315,65.6180018 105.6315,65.268 C105.6315,64.9319983 105.687499,64.6292513 105.7995,64.35975 C105.911501,64.0902487 106.061999,63.8610009 106.251,63.672 C106.440001,63.4829991 106.662249,63.3377505 106.91775,63.23625 C107.173251,63.1347495 107.444499,63.084 107.7315,63.084 C108.053502,63.084 108.361499,63.1487494 108.6555,63.27825 C108.949501,63.4077506 109.206749,63.6054987 109.42725,63.8715 C109.647751,64.1375013 109.822749,64.475248 109.95225,64.88475 C110.081751,65.294252 110.1465,65.7789972 110.1465,66.339 C110.1465,66.9900033 110.074751,67.5464977 109.93125,68.0085 C109.787749,68.4705023 109.595251,68.8502485 109.35375,69.14775 C109.112249,69.4452515 108.832252,69.6639993 108.51375,69.804 C108.195248,69.9440007 107.864502,70.014 107.5215,70.014 C107.122498,70.014 106.776001,69.9405007 106.482,69.7935 C106.187999,69.6464993 105.939501,69.468001 105.7365,69.258 L106.3875,68.523 Z M112.1055,68.0505 C112.1055,68.3865017 112.224499,68.654249 112.4625,68.85375 C112.700501,69.053251 112.990998,69.153 113.334,69.153 C113.656002,69.153 113.920249,69.0655009 114.12675,68.8905 C114.333251,68.7154991 114.4365,68.4705016 114.4365,68.1555 C114.4365,67.9734991 114.3945,67.8177506 114.3105,67.68825 C114.2265,67.5587494 114.112751,67.4432505 113.96925,67.34175 C113.825749,67.2402495 113.656001,67.1475004 113.46,67.0635 L113.049334,66.8908334 C112.977778,66.8612779 112.904667,66.8313335 112.83,66.801 C112.619999,66.9550008 112.446751,67.1369989 112.31025,67.347 C112.173749,67.557001 112.1055,67.7914987 112.1055,68.0505 Z M113.754,66.1185 C113.936001,65.9364991 114.07425,65.7510009 114.16875,65.562 C114.26325,65.3729991 114.3105,65.173501 114.3105,64.9635 C114.3105,64.6694985 114.224751,64.426251 114.05325,64.23375 C113.881749,64.041249 113.638502,63.945 113.3235,63.945 C113.064499,63.945 112.847501,64.0237492 112.6725,64.18125 C112.497499,64.3387508 112.41,64.5644985 112.41,64.8585 C112.41,65.0265008 112.445,65.1734994 112.515,65.2995 C112.585,65.4255006 112.681249,65.5357495 112.80375,65.63025 C112.926251,65.7247505 113.067999,65.8122496 113.229,65.89275 C113.390001,65.9732504 113.564999,66.0484996 113.754,66.1185 Z M111.045,68.1765 C111.045,67.966499 111.07825,67.7757509 111.14475,67.60425 C111.21125,67.4327491 111.300499,67.2770007 111.4125,67.137 C111.524501,66.9969993 111.652249,66.8710006 111.79575,66.759 C111.939251,66.6469994 112.091499,66.5490004 112.2525,66.465 L112.2525,66.423 C111.993499,66.2409991 111.774751,66.0240013 111.59625,65.772 C111.417749,65.5199987 111.3285,65.2155018 111.3285,64.8585 C111.3285,64.5854986 111.379249,64.3405011 111.48075,64.1235 C111.582251,63.9064989 111.722249,63.7210008 111.90075,63.567 C112.079251,63.4129992 112.292749,63.2940004 112.54125,63.21 C112.789751,63.1259996 113.057499,63.084 113.3445,63.084 C113.645502,63.084 113.916749,63.1277496 114.15825,63.21525 C114.399751,63.3027504 114.606249,63.4252492 114.77775,63.58275 C114.949251,63.7402508 115.0805,63.9292489 115.1715,64.14975 C115.2625,64.3702511 115.308,64.6169986 115.308,64.89 C115.308,65.0580008 115.28175,65.2172492 115.22925,65.36775 C115.17675,65.5182508 115.1085,65.6582494 115.0245,65.78775 C114.9405,65.9172506 114.844251,66.0362495 114.73575,66.14475 C114.627249,66.2532505 114.520501,66.3459996 114.4155,66.423 L114.4155,66.465 C114.569501,66.5490004 114.716499,66.6452495 114.8565,66.75375 C114.996501,66.8622505 115.118999,66.9864993 115.224,67.1265 C115.329001,67.2665007 115.413,67.4239991 115.476,67.599 C115.539,67.7740009 115.5705,67.9734989 115.5705,68.1975 C115.5705,68.4565013 115.516251,68.6962489 115.40775,68.91675 C115.299249,69.1372511 115.147001,69.3297492 114.951,69.49425 C114.754999,69.6587508 114.517001,69.7864995 114.237,69.8775 C113.956999,69.9685005 113.649002,70.014 113.313,70.014 C112.983998,70.014 112.681251,69.9685005 112.40475,69.8775 C112.128249,69.7864995 111.890251,69.6605008 111.69075,69.4995 C111.491249,69.3384992 111.333751,69.1460011 111.21825,68.922 C111.102749,68.6979989 111.045,68.4495014 111.045,68.1765 Z" id="CLUSTERMEDIAN:8098" fill="#365608" fill-rule="nonzero"></path>
                <path d="M1.413,42.888 L1.413,15.888 C1.413,15.6808932 1.24510678,15.513 1.038,15.513 C0.830893219,15.513 0.663,15.6808932 0.663,15.888 L0.663,42.888 C0.663,43.0951068 0.830893219,43.263 1.038,43.263 C1.24510678,43.263 1.413,43.0951068 1.413,42.888 Z" id="Stroke-2" fill="#D1D1D1" fill-rule="nonzero"></path>
                <path d="M76.413,42.888 L76.413,16.888 C76.413,16.6808932 76.2451068,16.513 76.038,16.513 C75.8308932,16.513 75.663,16.6808932 75.663,16.888 L75.663,42.888 C75.663,43.0951068 75.8308932,43.263 76.038,43.263 C76.2451068,43.263 76.413,43.0951068 76.413,42.888 Z" id="Stroke-3" fill="#D1D1D1" fill-rule="nonzero"></path>
                <path d="M150.413,42.888 L150.413,16.888 C150.413,16.6808932 150.245107,16.513 150.038,16.513 C149.830893,16.513 149.663,16.6808932 149.663,16.888 L149.663,42.888 C149.663,43.0951068 149.830893,43.263 150.038,43.263 C150.245107,43.263 150.413,43.0951068 150.413,42.888 Z" id="Stroke-4" fill="#D1D1D1" fill-rule="nonzero"></path>
                <path d="M224.413,42.888 L224.413,16.888 C224.413,16.6808932 224.245107,16.513 224.038,16.513 C223.830893,16.513 223.663,16.6808932 223.663,16.888 L223.663,42.888 C223.663,43.0951068 223.830893,43.263 224.038,43.263 C224.245107,43.263 224.413,43.0951068 224.413,42.888 Z" id="Stroke-5" fill="#D1D1D1" fill-rule="nonzero"></path>
                <path d="M298.413,42.888 L298.413,16.888 C298.413,16.6808932 298.245107,16.513 298.038,16.513 C297.830893,16.513 297.663,16.6808932 297.663,16.888 L297.663,42.888 C297.663,43.0951068 297.830893,43.263 298.038,43.263 C298.245107,43.263 298.413,43.0951068 298.413,42.888 Z" id="Stroke-6" fill="#D1D1D1" fill-rule="nonzero"></path>
                <path d="M279.433028,38.888 L4.64297238,38.888 C2.93523757,38.888 1.538,37.5568261 1.538,35.9314783 L1.538,24.8445217 C1.538,23.2184348 2.93523757,21.888 4.64297238,21.888 L279.433028,21.888 C281.140762,21.888 282.538,23.2184348 282.538,24.8445217 L282.538,35.9314783 C282.538,37.5568261 281.140762,38.888 279.433028,38.888" id="Fill-7" fill="#D5E8AA"></path>
                <rect id="Rectangle" fill="#365608" x="9.538" y="18.888" width="26" height="22" rx="3"></rect>
                <g id="Group-19" transform="translate(10.538000, 22.888000)">
                    <line x1="4.853025" y1="38.039775" x2="4.853025" y2="21.960525" id="Stroke-13" stroke="#636363" stroke-width="1.5" stroke-linecap="round"></line>
                    <path d="M4.853025,22.26195 C4.069275,23.0457 2.519775,23.4192 1.444275,23.44995 C2.888025,22.3752 4.147275,20.9787 4.853025,19.2897 C5.528775,20.9787 6.864525,22.3137 8.261775,23.44995 C7.110525,23.3577 5.712525,23.07645 4.853025,22.26195" id="Fill-15" fill="#636363"></path>
                    <path d="M5.082975,7.86331836 C3.677475,7.86855 2.569725,6.7473 2.57421134,5.32305 C2.577975,4.01055 3.723975,2.8923 5.069475,2.88627592 C6.425475,2.8803 7.545225,3.9963 7.559475,5.3673 C7.573725,6.70605 6.429975,7.8588 5.082975,7.86331836 M9.199725,3.1413 C8.343975,1.52655 6.909975,0.7548 5.430225,0.658799799 C2.519475,0.65805 0.402975,2.75655 0.357975,5.34405 C0.331725,6.8388 0.927225,8.07105 1.896225,9.1608 C2.938725,10.3338 4.038975,11.46255 4.680975,12.9348 C4.749225,13.09155 4.953975,13.29705 5.084475,13.2888 C5.222475,13.2813 5.372475,13.06155 5.472225,12.90555 C5.931975,12.19155 6.327975,11.43105 6.836475,10.7538 C7.494225,9.8793 8.312475,9.1203 8.924475,8.2188 C10.017225,6.61005 10.111725,4.86105 9.199725,3.1413" id="Fill-17" fill="#FFFFFF"></path>
                </g>
            </g>
        </g>
    </g>
</svg>