<?xml version="1.0" encoding="UTF-8"?>
<svg width="310px" height="69px" viewBox="0 0 310 69" version="1.1" xmlns="http://www.w3.org/2000/svg" xmlns:xlink="http://www.w3.org/1999/xlink">
    <!-- Generator: Sketch 59.1 (86144) - https://sketch.com -->
    <title>Rent</title>
    <desc>Created with Sketch.</desc>
    <g id="Export-Outlined-SVG" stroke="none" stroke-width="1" fill="none" fill-rule="evenodd">
        <g id="3" transform="translate(-842.000000, -429.000000)">
            <g id="Rent" transform="translate(842.000000, 427.000000)">
                <g id="Cluster-3_Rent">
                    <polygon id="Fill-1" fill="#E0E0E0" points="2.7558 37.460375 299.7558 37.460375 299.7558 27.710375 2.7558 27.710375"></polygon>
                    <line x1="2.3723" y1="45.25" x2="2.3723" y2="19" id="Stroke-2" stroke="#D1D1D1" stroke-width="0.75" stroke-linecap="round"></line>
                    <text id="$1,000" font-family="SourceSansPro-Regular, Source Sans Pro" font-size="10.5" font-weight="normal" letter-spacing="-0.0299999993" fill="#848484">
                        <tspan x="83.9973" y="11">$1,000</tspan>
                    </text>
                    <text id="$0" font-family="SourceSansPro-Regular, Source Sans Pro" font-size="10.5" font-weight="normal" letter-spacing="-0.0299999993" fill="#848484">
                        <tspan x="0" y="11.2651955">$0</tspan>
                    </text>
                    <text id="$3,000" font-family="SourceSansPro-Regular, Source Sans Pro" font-size="10.5" font-weight="normal" letter-spacing="-0.0299999993" fill="#848484">
                        <tspan x="281.7065" y="11.2651955">$3,000</tspan>
                    </text>
                    <text id="$2,000-copy" font-family="SourceSansPro-Regular, Source Sans Pro" font-size="10.5" font-weight="normal" letter-spacing="-0.0299999993" fill="#848484">
                        <tspan x="181.9973" y="10">$2,000</tspan>
                    </text>
                    <line x1="52.3723" y1="45.25" x2="52.3723" y2="19" id="Stroke-3-Copy" stroke="#D1D1D1" stroke-width="0.75" stroke-linecap="round"></line>
                    <line x1="101.3723" y1="45.25" x2="101.3723" y2="19" id="Stroke-3" stroke="#D1D1D1" stroke-width="0.75" stroke-linecap="round"></line>
                    <line x1="151.3723" y1="45.25" x2="151.3723" y2="19" id="Stroke-4" stroke="#D1D1D1" stroke-width="0.75" stroke-linecap="round"></line>
                    <line x1="200.3723" y1="45.25" x2="200.3723" y2="19" id="Stroke-5" stroke="#D1D1D1" stroke-width="0.75" stroke-linecap="round"></line>
                    <line x1="250.3723" y1="45.25" x2="250.3723" y2="19" id="Stroke-5-Copy" stroke="#D1D1D1" stroke-width="0.75" stroke-linecap="round"></line>
                    <line x1="299.3723" y1="45.25" x2="299.3723" y2="19" id="Stroke-6" stroke="#D1D1D1" stroke-width="0.75" stroke-linecap="round"></line>
                </g>
                <path d="M42.5145,65.5875 C42.5145,65.0274972 42.5967492,64.5252522 42.76125,64.08075 C42.9257508,63.6362478 43.1514986,63.2600015 43.4385,62.952 C43.7255014,62.6439985 44.0614981,62.4095008 44.4465,62.2485 C44.8315019,62.0874992 45.2444978,62.007 45.6855,62.007 C46.1055021,62.007 46.4817483,62.0944991 46.81425,62.2695 C47.1467517,62.4445009 47.4214989,62.6474988 47.6385,62.8785 L46.956,63.6345 C46.7809991,63.4594991 46.593751,63.3212505 46.39425,63.21975 C46.194749,63.1182495 45.9620013,63.0675 45.696,63.0675 C45.4089986,63.0675 45.1482512,63.1252494 44.91375,63.24075 C44.6792488,63.3562506 44.4762509,63.5207489 44.30475,63.73425 C44.1332491,63.9477511 44.0002505,64.2084985 43.90575,64.5165 C43.8112495,64.8245015 43.764,65.1709981 43.764,65.556 C43.764,66.3400039 43.9337483,66.9542478 44.27325,67.39875 C44.6127517,67.8432522 45.0729971,68.0655 45.654,68.0655 C45.9620015,68.0655 46.2297489,68.0060006 46.45725,67.887 C46.6847511,67.7679994 46.896499,67.6000011 47.0925,67.383 L47.775,68.1285 C47.4949986,68.4505016 47.1765018,68.6972491 46.8195,68.86875 C46.4624982,69.0402509 46.0670022,69.126 45.633,69.126 C45.1919978,69.126 44.7825019,69.0490008 44.4045,68.895 C44.0264981,68.7409992 43.6975014,68.5135015 43.4175,68.2125 C43.1374986,67.9114985 42.9170008,67.5405022 42.756,67.0995 C42.5949992,66.6584978 42.5145,66.1545028 42.5145,65.5875 Z M48.9045,62.133 L50.1225,62.133 L50.1225,67.971 L52.9785,67.971 L52.9785,69 L48.9045,69 L48.9045,62.133 Z M53.436,62.133 L54.654,62.133 L54.654,66.081 C54.654,66.4520019 54.6872497,66.7652487 54.75375,67.02075 C54.8202503,67.2762513 54.9147494,67.4809992 55.03725,67.635 C55.1597506,67.7890008 55.3049992,67.8992497 55.473,67.96575 C55.6410008,68.0322503 55.829999,68.0655 56.04,68.0655 C56.2500011,68.0655 56.4424991,68.0322503 56.6175,67.96575 C56.7925009,67.8992497 56.9429994,67.7890008 57.069,67.635 C57.1950006,67.4809992 57.2929997,67.2762513 57.363,67.02075 C57.4330004,66.7652487 57.468,66.4520019 57.468,66.081 L57.468,62.133 L58.6335,62.133 L58.6335,65.9865 C58.6335,66.5535028 58.5740006,67.034748 58.455,67.43025 C58.3359994,67.825752 58.1627511,68.1494987 57.93525,68.4015 C57.7077489,68.6535013 57.4347516,68.8372494 57.11625,68.95275 C56.7977484,69.0682506 56.439002,69.126 56.04,69.126 C55.640998,69.126 55.2822516,69.0682506 54.96375,68.95275 C54.6452484,68.8372494 54.3722511,68.6535013 54.14475,68.4015 C53.9172489,68.1494987 53.7422506,67.825752 53.61975,67.43025 C53.4972494,67.034748 53.436,66.5535028 53.436,65.9865 L53.436,62.133 Z M60.3615,67.2885 C60.6065012,67.5195012 60.8864984,67.7067493 61.2015,67.85025 C61.5165016,67.9937507 61.8314984,68.0655 62.1465,68.0655 C62.538502,68.0655 62.835999,67.9850008 63.039,67.824 C63.242001,67.6629992 63.3435,67.4495013 63.3435,67.1835 C63.3435,67.0434993 63.3172503,66.9245005 63.26475,66.8265 C63.2122497,66.7284995 63.1387505,66.6427504 63.04425,66.56925 C62.9497495,66.4957496 62.8377507,66.4275003 62.70825,66.3645 L62.5746666,66.3014999 L62.5746666,66.3014999 L61.338,65.766 C61.1699992,65.6959996 61.0037508,65.6085005 60.83925,65.5035 C60.6747492,65.3984995 60.5260007,65.2725007 60.393,65.1255 C60.2599993,64.9784993 60.1532504,64.807001 60.07275,64.611 C59.9922496,64.414999 59.952,64.1910013 59.952,63.939 C59.952,63.6659986 60.0097494,63.4122512 60.12525,63.17775 C60.2407506,62.9432488 60.399999,62.7385009 60.603,62.5635 C60.806001,62.3884991 61.0492486,62.2520005 61.33275,62.154 C61.6162514,62.0559995 61.9259983,62.007 62.262,62.007 C62.661002,62.007 63.0459982,62.0857492 63.417,62.24325 C63.7880019,62.4007508 64.1064987,62.6124987 64.3725,62.8785 L63.753,63.6555 C63.5289989,63.4734991 63.2980012,63.3300005 63.06,63.225 C62.8219988,63.1199995 62.5560015,63.0675 62.262,63.0675 C61.9329984,63.0675 61.670501,63.1392493 61.4745,63.28275 C61.278499,63.4262507 61.1805,63.6239987 61.1805,63.876 C61.1805,64.0090007 61.2102497,64.1227495 61.26975,64.21725 C61.3292503,64.3117505 61.4097495,64.3957496 61.51125,64.46925 C61.6127505,64.5427504 61.7299993,64.6092497 61.863,64.66875 L62.065125,64.7566875 L62.065125,64.7566875 L63.207,65.2305 C63.410001,65.3145004 63.5954992,65.4124994 63.7635,65.5245 C63.9315008,65.6365006 64.0767494,65.7659993 64.19925,65.913 C64.3217506,66.0600007 64.4179997,66.229749 64.488,66.42225 C64.5580004,66.614751 64.593,66.8369987 64.593,67.089 C64.593,67.3690014 64.5370006,67.6314988 64.425,67.8765 C64.3129994,68.1215012 64.1502511,68.3367491 63.93675,68.52225 C63.7232489,68.7077509 63.4642515,68.8547495 63.15975,68.96325 C62.8552485,69.0717505 62.5105019,69.126 62.1255,69.126 C61.6634977,69.126 61.2172522,69.0385009 60.78675,68.8635 C60.3562479,68.6884991 59.9765017,68.4400016 59.6475,68.118 L60.3615,67.2885 Z M66.7935,63.162 L64.809,63.162 L64.809,62.133 L69.996,62.133 L69.996,63.162 L68.0115,63.162 L68.0115,69 L66.7935,69 L66.7935,63.162 Z M71.1255,62.133 L75.2625,62.133 L75.2625,63.162 L72.3435,63.162 L72.3435,64.9155 L74.811,64.9155 L74.811,65.9445 L72.3435,65.9445 L72.3435,67.971 L75.3675,67.971 L75.3675,69 L71.1255,69 L71.1255,62.133 Z M77.9775,65.346 L78.954,65.346 C79.4230023,65.346 79.7817488,65.248001 80.03025,65.052 C80.2787512,64.855999 80.403,64.562002 80.403,64.17 C80.403,63.770998 80.2787512,63.4945008 80.03025,63.3405 C79.7817488,63.1864992 79.4230023,63.1095 78.954,63.1095 L77.9775,63.1095 L77.9775,65.346 Z M80.508,69 L79.0275,66.312 L77.9775,66.312 L77.9775,69 L76.7595,69 L76.7595,62.133 L79.08,62.133 C79.4370018,62.133 79.7694985,62.1679996 80.0775,62.238 C80.3855015,62.3080003 80.6514989,62.4217492 80.8755,62.57925 C81.0995011,62.7367508 81.2762494,62.9449987 81.40575,63.204 C81.5352506,63.4630013 81.6,63.7849981 81.6,64.17 C81.6,64.6950026 81.4757512,65.1184984 81.22725,65.4405 C80.9787488,65.7625016 80.6480021,65.9934993 80.235,66.1335 L81.873,69 L80.508,69 Z M85.1715,62.133 L86.5155,62.133 L87.7545,65.514 L88.206,66.816 L88.248,66.816 L88.689,65.514 L89.907,62.133 L91.251,62.133 L91.251,69 L90.1065,69 L90.1065,65.8605 L90.1135,65.5198336 L90.1135,65.5198336 L90.12225,65.3355 C90.1327501,65.1464991 90.1449999,64.955751 90.159,64.76325 L90.182625,64.477125 L90.182625,64.477125 L90.264,63.6765 L90.264,63.6765 L90.222,63.6765 L89.6655,65.241 L88.479,68.3595 L87.912,68.3595 L86.7255,65.241 L86.1795,63.6765 L86.1375,63.6765 L86.23725,64.76325 L86.23725,64.76325 C86.2547501,64.955751 86.2687499,65.1464991 86.27925,65.3355 C86.2897501,65.5245009 86.295,65.6994992 86.295,65.8605 L86.295,69 L85.1715,69 L85.1715,62.133 Z M92.979,62.133 L97.116,62.133 L97.116,63.162 L94.197,63.162 L94.197,64.9155 L96.6645,64.9155 L96.6645,65.9445 L94.197,65.9445 L94.197,67.971 L97.221,67.971 L97.221,69 L92.979,69 L92.979,62.133 Z M98.613,62.133 L100.4505,62.133 C101.500505,62.133 102.319497,62.4164972 102.9075,62.9835 C103.495503,63.5505028 103.7895,64.4009943 103.7895,65.535 C103.7895,66.1020028 103.714251,66.6024978 103.56375,67.0365 C103.413249,67.4705022 103.196251,67.8327485 102.91275,68.12325 C102.629249,68.4137515 102.286252,68.6324993 101.88375,68.7795 C101.481248,68.9265007 101.024503,69 100.5135,69 L98.613,69 L98.613,62.133 Z M100.3665,68.013 C101.066504,68.013 101.603748,67.811752 101.97825,67.40925 C102.352752,67.006748 102.54,66.3820042 102.54,65.535 C102.54,64.6949958 102.351002,64.0825019 101.973,63.6975 C101.594998,63.3124981 101.059503,63.12 100.3665,63.12 L99.831,63.12 L99.831,68.013 L100.3665,68.013 Z M105.1605,62.133 L106.3785,62.133 L106.3785,69 L105.1605,69 L105.1605,62.133 Z M111.0255,66.186 L110.784,65.346 C110.671999,64.9819982 110.565251,64.6075019 110.46375,64.2225 L110.1645,63.078 L110.1645,63.078 L110.1225,63.078 L109.8285,64.22775 L109.8285,64.22775 C109.7305,64.6092519 109.625501,64.9819982 109.5135,65.346 L109.272,66.186 L111.0255,66.186 Z M111.2985,67.1415 L108.9885,67.1415 L108.453,69 L107.214,69 L109.4505,62.133 L110.8785,62.133 L113.115,69 L111.834,69 L111.2985,67.1415 Z M113.9505,62.133 L115.2,62.133 L117.342,65.997 L118.0455,67.4565 L118.0875,67.4565 L118.0245,66.7075005 C118.012833,66.576834 118.000583,66.4432507 117.98775,66.30675 C117.94925,65.897248 117.93,65.5000019 117.93,65.115 L117.93,62.133 L119.0955,62.133 L119.0955,69 L117.846,69 L115.704,65.136 L115.0005,63.6765 L114.9585,63.6765 L115.0215,64.4278329 C115.033167,64.5569438 115.045417,64.6879993 115.05825,64.821 C115.09675,65.220002 115.116,65.6119981 115.116,65.997 L115.116,69 L113.9505,69 L113.9505,62.133 Z M120.6135,64.716 C120.6135,64.4779988 120.688749,64.2820008 120.83925,64.128 C120.989751,63.9739992 121.176999,63.897 121.401,63.897 C121.625001,63.897 121.810499,63.9739992 121.9575,64.128 C122.104501,64.2820008 122.178,64.4779988 122.178,64.716 C122.178,64.9540012 122.104501,65.1499992 121.9575,65.304 C121.810499,65.4580008 121.625001,65.535 121.401,65.535 C121.176999,65.535 120.989751,65.4580008 120.83925,65.304 C120.688749,65.1499992 120.6135,64.9540012 120.6135,64.716 Z M120.6135,68.307 C120.6135,68.0689988 120.688749,67.8730008 120.83925,67.719 C120.989751,67.5649992 121.176999,67.488 121.401,67.488 C121.625001,67.488 121.810499,67.5649992 121.9575,67.719 C122.104501,67.8730008 122.178,68.0689988 122.178,68.307 C122.178,68.5450012 122.104501,68.7409992 121.9575,68.895 C121.810499,69.0490008 121.625001,69.126 121.401,69.126 C121.176999,69.126 120.989751,69.0490008 120.83925,68.895 C120.688749,68.7409992 120.6135,68.5450012 120.6135,68.307 Z M128.994,63.7395 C128.797999,63.5574991 128.609001,63.4192505 128.427,63.32475 C128.244999,63.2302495 128.028001,63.183 127.776,63.183 C127.488999,63.183 127.265001,63.2547493 127.104,63.39825 C126.942999,63.5417507 126.8625,63.7499986 126.8625,64.023 C126.8625,64.233001 126.932499,64.4062493 127.0725,64.54275 C127.212501,64.6792507 127.389249,64.8052494 127.60275,64.92075 C127.816251,65.0362506 128.045499,65.1517494 128.2905,65.26725 C128.535501,65.3827506 128.764749,65.5209992 128.97825,65.682 C129.191751,65.8430008 129.368499,66.0407488 129.5085,66.27525 C129.648501,66.5097512 129.7185,66.8019982 129.7185,67.152 C129.7185,67.6560025 129.578501,68.0777483 129.2985,68.41725 C129.018499,68.7567517 128.616003,68.9754995 128.091,69.0735 L128.091,70.155 L127.251,70.155 L127.251,69.105 C126.928998,69.0699998 126.605252,68.9842507 126.27975,68.84775 C125.954248,68.7112493 125.672501,68.5310011 125.4345,68.307 L125.9805,67.488 C126.225501,67.684001 126.473999,67.8414994 126.726,67.9605 C126.978001,68.0795006 127.247499,68.139 127.5345,68.139 C127.877502,68.139 128.132999,68.0602508 128.301,67.90275 C128.469001,67.7452492 128.553,67.5230014 128.553,67.236 C128.553,67.0049988 128.483001,66.8125008 128.343,66.6585 C128.202999,66.5044992 128.026251,66.3645006 127.81275,66.2385 C127.599249,66.1124994 127.370001,65.9917506 127.125,65.87625 C126.879999,65.7607494 126.650751,65.6242508 126.43725,65.46675 C126.223749,65.3092492 126.047001,65.1202511 125.907,64.89975 C125.766999,64.6792489 125.697,64.4045016 125.697,64.0755 C125.697,63.5854975 125.836999,63.1777516 126.117,62.85225 C126.397001,62.5267484 126.774998,62.3220004 127.251,62.238 L127.251,61.167 L128.091,61.167 L128.091,62.217 C128.427002,62.2590002 128.715749,62.3552492 128.95725,62.50575 C129.198751,62.6562508 129.417499,62.832999 129.6135,63.036 L128.994,63.7395 Z M132.8955,65.577 C133.084501,65.577 133.285749,65.5175006 133.49925,65.3985 C133.712751,65.2794994 133.910499,65.0800014 134.0925,64.8 C134.0295,64.2119971 133.884251,63.7850013 133.65675,63.519 C133.429249,63.2529987 133.154502,63.12 132.8325,63.12 C132.559499,63.12 132.325001,63.2284989 132.129,63.4455 C131.932999,63.6625011 131.835,63.973998 131.835,64.38 C131.835,64.779002 131.927749,65.078249 132.11325,65.27775 C132.298751,65.477251 132.559498,65.577 132.8955,65.577 Z M131.478,67.635 C131.604001,67.7820007 131.763249,67.9027495 131.95575,67.99725 C132.148251,68.0917505 132.345999,68.139 132.549,68.139 C132.759001,68.139 132.956749,68.0970004 133.14225,68.013 C133.327751,67.9289996 133.490499,67.790751 133.6305,67.59825 C133.770501,67.405749 133.88425,67.1520016 133.97175,66.837 C134.05925,66.5219984 134.11,66.1335023 134.124,65.6715 C133.927999,65.9165012 133.697001,66.1072493 133.431,66.24375 C133.164999,66.3802507 132.909501,66.4485 132.6645,66.4485 C132.377499,66.4485 132.115001,66.4065004 131.877,66.3225 C131.638999,66.2384996 131.434251,66.1107509 131.26275,65.93925 C131.091249,65.7677491 130.95825,65.5525013 130.86375,65.2935 C130.76925,65.0344987 130.722,64.7300017 130.722,64.38 C130.722,64.0439983 130.777999,63.7412513 130.89,63.47175 C131.002001,63.2022487 131.152499,62.9730009 131.3415,62.784 C131.530501,62.5949991 131.752749,62.4497505 132.00825,62.34825 C132.263751,62.2467495 132.534999,62.196 132.822,62.196 C133.144002,62.196 133.451999,62.2607494 133.746,62.39025 C134.040001,62.5197506 134.297249,62.7174987 134.51775,62.9835 C134.738251,63.2495013 134.913249,63.587248 135.04275,63.99675 C135.172251,64.406252 135.237,64.8909972 135.237,65.451 C135.237,66.1020033 135.165251,66.6584977 135.02175,67.1205 C134.878249,67.5825023 134.685751,67.9622485 134.44425,68.25975 C134.202749,68.5572515 133.922752,68.7759993 133.60425,68.916 C133.285748,69.0560007 132.955002,69.126 132.612,69.126 C132.212998,69.126 131.866501,69.0525007 131.5725,68.9055 C131.278499,68.7584993 131.030001,68.580001 130.827,68.37 L131.478,67.635 Z M136.5345,67.404 C136.737501,67.607001 136.968499,67.7802493 137.2275,67.92375 C137.486501,68.0672507 137.783998,68.139 138.12,68.139 C138.484002,68.139 138.779749,68.0497509 139.00725,67.87125 C139.234751,67.6927491 139.3485,67.4460016 139.3485,67.131 C139.3485,66.9559991 139.317,66.7985007 139.254,66.6585 C139.191,66.5184993 139.084251,66.3995005 138.93375,66.3015 C138.783249,66.2034995 138.582001,66.1282503 138.33,66.07575 C138.077999,66.0232497 137.763002,65.997 137.385,65.997 L137.385,65.115 C137.714002,65.115 137.988749,65.0887503 138.20925,65.03625 C138.429751,64.9837497 138.608249,64.9102505 138.74475,64.81575 C138.881251,64.7212495 138.97925,64.6075007 139.03875,64.4745 C139.09825,64.3414993 139.128,64.1980008 139.128,64.044 C139.128,63.7639986 139.040501,63.5452508 138.8655,63.38775 C138.690499,63.2302492 138.449002,63.1515 138.141,63.1515 C137.874999,63.1515 137.635251,63.2092494 137.42175,63.32475 C137.208249,63.4402506 137.000001,63.5924991 136.797,63.7815 L136.1775,63.036 C136.464501,62.7839987 136.770748,62.5810008 137.09625,62.427 C137.421752,62.2729992 137.783998,62.196 138.183,62.196 C138.505002,62.196 138.798999,62.2344996 139.065,62.3115 C139.331001,62.3885004 139.558499,62.5022492 139.7475,62.65275 C139.936501,62.8032508 140.083499,62.9887489 140.1885,63.20925 C140.293501,63.4297511 140.346,63.6799986 140.346,63.96 C140.346,64.3380019 140.242751,64.6529987 140.03625,64.905 C139.829749,65.1570013 139.544502,65.3529993 139.1805,65.493 L139.1805,65.535 C139.579502,65.6400005 139.910249,65.8324986 140.17275,66.1125 C140.435251,66.3925014 140.5665,66.7529978 140.5665,67.194 C140.5665,67.5020015 140.505251,67.7749988 140.38275,68.013 C140.260249,68.2510012 140.092251,68.4522492 139.87875,68.61675 C139.665249,68.7812508 139.416751,68.9072496 139.13325,68.99475 C138.849749,69.0822504 138.547002,69.126 138.225,69.126 C137.678997,69.126 137.224002,69.0350009 136.86,68.853 C136.495998,68.6709991 136.195001,68.4470013 135.957,68.181 L136.5345,67.404 Z M142.8405,69 C142.8685,68.404997 142.921,67.8607525 142.998,67.36725 C143.075,66.8737475 143.185249,66.4030022 143.32875,65.955 C143.472251,65.5069978 143.655999,65.0712521 143.88,64.64775 C144.104001,64.2242479 144.376998,63.7885022 144.699,63.3405 L141.5385,63.3405 L141.5385,62.322 L146.022,62.322 L146.022,63.057 C145.629998,63.5400024 145.313251,64.0002478 145.07175,64.43775 C144.830249,64.8752522 144.639501,65.3232477 144.4995,65.78175 C144.359499,66.2402523 144.25975,66.7284974 144.20025,67.2465 C144.14075,67.7645026 144.097,68.3489967 144.069,69 L142.8405,69 Z" id="CLUSTERMEDIAN:$937" fill="#365608" fill-rule="nonzero"></path>
                <path d="M96.25,60 L96.25,47 C96.25,46.5857864 95.9142136,46.25 95.5,46.25 C95.0857864,46.25 94.75,46.5857864 94.75,47 L94.75,60 C94.75,60.4142136 95.0857864,60.75 95.5,60.75 C95.9142136,60.75 96.25,60.4142136 96.25,60 Z" id="Stroke-12" fill="#636363" fill-rule="nonzero"></path>
                <path d="M95.5,47.857761 C94.6952695,48.6113214 93.1042904,48.9704345 92,49 C93.4823982,47.9666486 94.7753575,46.624662 95.5,45 C96.1938394,46.624662 97.5653465,47.9075176 99,49 C97.8179318,48.9113034 96.3825083,48.640887 95.5,47.857761" id="Fill-13" fill="#636363"></path>
                <path d="M229.497976,41 L63.5020243,41 C61.5759109,41 60,39.3369565 60,37.3043478 L60,27.6956522 C60,25.6630435 61.5759109,24 63.5020243,24 L229.497976,24 C231.424089,24 233,25.6630435 233,27.6956522 L233,37.3043478 C233,39.3369565 231.424089,41 229.497976,41" id="Fill-7" fill="#D5E8AA"></path>
                <path d="M183.4,43 L73.6,43 C71.62,43 70,41.6666667 70,40.037037 L70,25.962963 C70,24.3333333 71.62,23 73.6,23 L183.4,23 C185.38,23 187,24.3333333 187,25.962963 L187,40.037037 C187,41.6666667 185.38,43 183.4,43" id="Fill-9" fill="#365608"></path>
                <polygon id="Fill-14" fill="#FFFFFF" points="99.5000714 31.0005714 99.5000714 27.5004643 97.5004286 27.5004643 97.5004286 29.0002857 95.5 27 90 32.4996072 91.0002143 32.4996072 91.0002143 38 94.0000714 38 94.0000714 33.5005357 96.9999286 33.5005357 96.9999286 38 100.000571 38 100.000571 32.4996072 101 32.4996072"></polygon>
            </g>
        </g>
    </g>
</svg>