<?xml version="1.0" encoding="utf-8"?>
<!-- Generator: Adobe Illustrator 22.0.1, SVG Export Plug-In . SVG Version: 6.00 Build 0)  -->
<svg version="1.1" id="Layer_1" xmlns="http://www.w3.org/2000/svg" xmlns:xlink="http://www.w3.org/1999/xlink" x="0px" y="0px"
	 viewBox="0 0 60 30" style="enable-background:new 0 0 60 30;" xml:space="preserve">
<style type="text/css">
	.st0{fill:#0C99CE;}
</style>
<path class="st0" d="M2.7,0.6L3,0.8V1H2.7l0.2,0.3v0.3L2.6,1.6H2.2H1.9L1.7,1.5L1.4,1.4L1.3,1.3v0.3v0.3l0.1,0.2l0.1,0.3h0.1
	l0.1,0.2L1.7,3L1.8,3l0,0.3l0,0.2l0.1,0.2l0,0.2c0,0,0,0.2,0.1,0.3c0,0.1,0,0.2,0,0.3C2,4.6,2,5,2,5s0,0.2,0,0.3c0,0.1,0,0.3,0,0.3
	l0,0.4c0,0,0,0.2,0,0.3c0,0.1,0,0.3,0,0.4c0,0.1,0,0.4,0,0.4c0,0.1-0.1,0.2-0.1,0.4c0,0.2,0,0.2-0.1,0.4c0,0.3-0.1,0.4-0.1,0.4
	S1.6,8.6,1.6,8.7c0,0.1-0.1,0.5-0.1,0.5v0.2c0,0,0,0.1,0.1,0.2c0,0.1,0.1,0.4,0.1,0.4s0,0,0.1,0.2c0.1,0.2,0,0.5,0,0.5l0.1,0.2
	l0.1,0.4l-0.1,0.4l-0.1,0.3c0,0-0.1,0.3-0.1,0.4c0,0.1,0.1,0.3,0.1,0.3L2,12.7L2.1,13v0.4v0.3L2.3,14v0.2l0.2,0.3l0.2,0.1L3,14.8
	l0.1,0.2l0.1,0.4h0.1v0.1l0.2,0.3V16l0.2,0.2c0,0,0,0.1,0.1,0.2c0.1,0.1,0.2,0.1,0.2,0.1h0.1l0.1,0.4H4l0,0.2l0.1,0.2l0.1,0.2
	l0.3,0.1l0.1,0.2l0.2,0.3l0.1,0.2l0.1,0.2v0.1l0.2,0.1c0,0,0,0.1,0,0.2c0,0.1,0,0.3,0,0.4c0,0.1,0.2,0.2,0.2,0.2l0.3,0.1h0.4h0.2
	l0.2,0.2l0.2,0.2h0.2L7.1,20l0.3,0.1l0.1,0.1l0.2,0.2l0.3,0.2h0.2l0.2,0.2L8.4,21l0.1,0.3v0.3l2.4-0.2l-0.1,0.3l3.5,1.3h2.8v-0.5H19
	v0.2l0.2,0.2l0.1,0.1h0.1l0.1,0.2l0.2,0.2l0.1,0.1l0.2,0.1h0.1l0.1,0.2l0.1,0.2l0.2,0.3v0.2l0.1,0.2v0.1l0.2,0.2H21l0.1,0.2l0.2,0.1
	h0.2l0.1,0.1l0.2,0.1H22h0.2l0.2-0.2l0.1-0.2l0.2-0.4h0.3v-0.1l0.2,0.1l0.2,0l0.2,0l0.2,0l0.2,0.1V25l0.1,0.1l0.1,0h0.1l0.1,0.1
	l0.2,0.2v0.2l0.2,0.2l0.1,0.2l0.1,0.2v0.2l0.1,0.1l0.2,0.2l0.1,0.1V27l0.2,0.1l0.1,0.1v0.2v0.2h0.1v0.4l0.2,0.1v0.2l0.1,0.2l0.1,0.1
	h0.2l0.1,0.2h0.2l0.2,0.2H27h0.3l0.2,0.2h0.1h0.1v-0.1v-0.2v-0.1v-0.1l-0.1,0l0-0.1v-0.2L27.5,28c0,0,0-0.1,0-0.2
	c0.1-0.1,0-0.2,0-0.2l0.1-0.1l0.1-0.2V27l0.2-0.2l0.2-0.2l0.1-0.1l0.2-0.2l0.1-0.1l0.1,0l0.4-0.2l0.4-0.1l0.2-0.2v-0.2l0.3-0.1
	l0.1-0.1v-0.1l0.3-0.1l0.2,0l0.2-0.1H31l0.2-0.1c0,0,0.1,0,0.2,0c0.1,0,0.2,0,0.3,0c0.1,0,0.2,0,0.2,0l0.2,0.1c0,0,0.1,0,0.2,0
	c0.1,0,0.2,0,0.2,0c0.1,0,0.1,0,0.1,0l0.1,0v-0.2l0.1,0v-0.2l0.2,0.1v0.1l0.1,0.1l0.1,0.1v0.1h0.2V25h0.2v0.1v0.1v0.1v0.1l0.1,0.1
	l0.2,0.1l0.2-0.1l0.1-0.1h0.2l0.1,0.2l0.1,0v-0.1v-0.1l0.2-0.1l0.2,0.1l0.1,0.1l0.1,0l0.2-0.1l-0.2-0.2L35,25l0.1-0.1
	c0.1,0,0.1,0,0.1,0l0.1-0.1v-0.2v-0.1v-0.1v-0.1c0,0,0.1-0.1,0.2-0.1c0.1,0,0.4,0,0.4,0l0.3-0.1l0.3,0.1l0.2-0.1v-0.4h0.1V24
	l0.1,0.2l0.2,0.1l0.1-0.1l0.1,0l0.2,0h0.3H38c0,0,0.1,0,0.2,0c0.1,0,0.1,0,0.2,0c0.1,0,0.2,0,0.2,0s0.1,0,0.2,0.1
	c0.1,0,0.1,0,0.2,0.1c0.1,0,0.2,0.1,0.2,0.1l0.1,0.1l0.2,0.3l0.2-0.1l0.3-0.1l0.3,0l0.1-0.1v-0.1c0,0,0.1,0,0.2,0
	c0.1,0,0.3,0.1,0.3,0.1l0.2,0.2l0.1,0.2c0,0-0.1,0,0,0.1c0.1,0.1,0.1,0.2,0.1,0.2l0.2,0.2l0.1,0.2l0.2,0.1l0.1,0.2l0.1,0.3v0.3
	l-0.1,0.3l-0.1,0.3l0.1,0.2l0.1,0.2v0.2l0.1,0.3l0.2,0.2l0.1,0.2v0.1l0.1,0.1l0.1,0.1l0.1,0.2v0.1v0.1c0,0,0.1,0,0.2,0.1
	c0.1,0.1,0.1,0.1,0.1,0.1H43l0.1,0.1l0.1,0.2v0.3l0.1,0.1h0.2l0.2-0.1l0.2-0.1v-0.2l0.1-0.2l0.1-0.3v-0.2l0.1-0.2v-0.3v-0.2v-0.4
	l-0.2-0.2l-0.1-0.1l0-0.1L44,27.2l-0.1-0.2l-0.1-0.3l0-0.2v-0.1l0-0.1V26l-0.2-0.1l-0.1-0.2l-0.1-0.3c0,0,0-0.1-0.1-0.2
	c0-0.1-0.1-0.2-0.1-0.2l-0.2-0.4l0-0.4l-0.1-0.2L43,24l0.1-0.2l0-0.2l0-0.1c0,0-0.1-0.1-0.1-0.2c0-0.1,0-0.1,0-0.1s0.2-0.1,0.3-0.2
	c0-0.1,0-0.3,0-0.3l-0.1-0.1c0.2-0.1,0.2-0.1,0.2-0.1l0.1-0.1l0.1-0.1v-0.2c0,0-0.1-0.1,0-0.1c0.1,0,0.2,0,0.2,0l0.1-0.1l0.1-0.2
	c0.2-0.1,0,0,0.2-0.1c0.2-0.1,0.2-0.1,0.2-0.1l0.2-0.2v-0.2c0,0,0-0.1,0.1-0.1c0.1,0,0.3-0.1,0.3-0.1l0.2-0.2v-0.1l0.1-0.1l0.1-0.2
	c0,0-0.1-0.1,0-0.1c0.1,0,0.2-0.1,0.2-0.1l0.1-0.1c0,0,0.1,0,0.2,0c0.1,0,0.3,0,0.3,0v-0.2l0.2-0.1l0.1-0.1l0.2-0.1l0.1-0.1l0.2-0.1
	c0,0,0.1-0.1,0.1-0.1c0.1,0,0.2-0.1,0.2-0.1h0.3l0.2-0.1l0.1-0.2v-0.1l-0.1-0.1l0-0.1l0-0.1l0.1-0.1l0.3,0.1l0.1-0.1l0.1-0.1
	l0.1-0.1v-0.2v-0.2l-0.2,0l-0.2,0l-0.1,0l-0.3,0l0.2-0.1l0.3-0.1l0.1,0l0.2,0l0.1-0.2l-0.2-0.1l0-0.3v-0.3l-0.2,0L48,16.5l-0.1-0.2
	l0-0.1l0-0.2l0.2,0l-0.1-0.2v-0.1l0-0.2l0-0.2l0-0.1h-0.1l-0.1-0.1l0.1-0.1l0-0.2l0-0.2l-0.1-0.1v-0.2v-0.2l0.1-0.1
	c0.2,0.2,0.2,0.2,0.2,0.3c0,0.1,0,0.1,0,0.1l0,0.1L48,14.7l0.1,0.1l0.1,0.1l0.1,0l0.1,0.2l0.1,0.2c0,0,0,0.1,0,0.2
	c0,0.1-0.1,0.2-0.2,0.2c0,0.1,0,0.1,0,0.1L48.2,16l0,0.2l0.1,0.1l0.1-0.4l0.1-0.2l0.1-0.2l0.2-0.2v-0.2c0,0,0,0,0.1-0.1
	C49,15,49,15,49,15l0.2-0.2v-0.2v-0.2L49,14.3l0-0.1L48.9,14l0-0.1l-0.1-0.1l0-0.2l-0.1-0.2l0.2,0.1l0.2,0.1l0.2,0V14l0.1,0l0.2-0.3
	l0.1-0.1v-0.1l0.2-0.1v-0.1l0.2-0.1v-0.1l0.1-0.1v-0.1v-0.2c0,0,0,0,0.1-0.1c0-0.1,0-0.2,0-0.2s0.1-0.1,0-0.1c-0.1,0-0.1,0-0.1,0
	s0-0.1,0-0.2c0.1,0,0.1,0,0.1,0s0.2,0,0.3,0c0.1,0,0.3,0,0.3,0l0.2-0.1c0,0,0.1,0,0.2,0c0.1,0,0.2-0.1,0.2-0.1l0.4-0.1l0.1-0.1
	l0.1,0l0.2-0.1v-0.1h-0.2l-0.1,0c0,0-0.1,0-0.2,0c-0.1,0-0.2,0-0.2,0s-0.1,0-0.1,0c-0.1,0,0.1,0-0.1,0c-0.2,0,0-0.1-0.2,0
	C51,11.6,51,11.6,51,11.6l-0.4,0.1l-0.1,0.1l-0.1-0.1l0.2-0.2l0.3-0.2c0,0,0.1-0.1,0.3-0.1c0.1,0,0.1,0,0.2,0c0.1,0,0.2,0,0.3,0
	c0.1,0,0.2,0,0.3,0c0.1,0,0.1,0,0.2,0c0.1,0,0.1,0,0.2,0c0.1,0,0.1,0,0.2,0c0.1,0,0.2,0,0.2,0l0.2-0.1l0.1,0l0.1-0.1l0.1-0.1l0.2,0
	l0.4,0l0.2-0.1l0.1-0.2L54,10.2L54,10.1l-0.2,0.1l0.1,0.1l0.1,0.1l0,0.1l-0.1,0.1l-0.2,0l-0.1-0.1l-0.1-0.1l0-0.1l-0.1-0.1V10l0-0.1
	l-0.2-0.1c0,0-0.1,0-0.1-0.1c0-0.1,0-0.1,0-0.1l0.1-0.1l0.1-0.1l0.1-0.1l-0.1-0.1c0,0-0.1-0.1-0.1-0.1c0-0.1,0-0.2,0-0.2
	c0-0.1,0.1-0.2,0.1-0.2s0,0,0.1-0.1c0.1-0.1,0.1-0.1,0.2-0.2c0.1-0.1,0,0,0.1-0.1c0.1-0.1,0.2-0.2,0.2-0.2s0,0,0-0.1
	c0-0.1,0-0.1,0-0.1l-0.1-0.1L54,7.8l0.2,0.1l0.2,0V7.7c0,0,0.2,0,0.2,0c0.1,0,0.2-0.1,0.2-0.1s0,0,0.1-0.1c0.1,0,0.1-0.1,0.1-0.1
	c0-0.1,0-0.2,0-0.2s0,0,0-0.1c0,0,0.1-0.1,0.1-0.1c0,0,0,0,0,0S55,7,55.2,7.1c0.1,0.1,0.1,0.1,0.1,0.1l0.1,0.1l0.1,0l0.1-0.1l0.2,0
	L56,7l0.1-0.1l0.1-0.1c0,0,0.1,0,0.2,0c0.1,0,0.1,0,0.1,0s0.1-0.1,0.2-0.1c0.1,0,0.1,0,0.1,0l0.1-0.1V6.5L57,6.3l-0.1-0.2L56.7,6
	l-0.2-0.1l-0.1-0.1l0-0.2l0-0.2l-0.3-0.1l0-0.2l0-1.7L55.7,3l-0.2,0L55.5,3l-0.2,0l-0.2,0.1H55l0-0.3l-0.1,0l-0.1,0.1
	c0,0-0.1,0.1-0.1,0.2c0,0.1-0.1,0.3-0.1,0.3l-0.2,0.2l-0.2,0.3L54,4l0,0.3l-0.2,0.1l-0.1,0.2l0.1,0.2L53.7,5l-0.1,0.1l-0.1,0.1
	l0,0.1c0,0-0.2,0-0.2,0.1c0,0.1,0,0.2,0,0.2l-0.1,0.1v0.2l-0.1-0.1c0,0-0.1,0-0.2,0c-0.1,0-0.2,0.1-0.2,0.1l-0.1,0.1v0.2h-3.3
	L49,6.3l-0.1,0.1c0,0-0.1,0-0.1,0.1c0,0.1-0.1,0.1-0.1,0.2c0,0.1-0.1,0.1-0.1,0.1s0,0.2-0.1,0.2c-0.1,0-0.3,0.1-0.3,0.1s0,0-0.1,0.1
	C48.1,7.3,48,7.3,48,7.3l-0.2,0.1L48,7.5l0.1,0.1l0,0.1c0,0-0.1,0.2-0.1,0.2c0,0.1,0,0.3,0,0.3l-0.2,0.1l-0.2,0.1l-0.2,0.2h-0.2
	l-0.2,0l-0.2,0.1l-0.1,0c-0.1-0.1-0.2-0.1-0.2-0.1h-0.1c-0.1,0-0.5,0-0.5,0l-0.2,0l-0.2,0.1l-0.2,0l-0.1,0l-0.1,0.1l0.1,0.2l0.1,0.2
	l-0.1,0.2l-0.1,0.1l-0.1,0.1L45,9.6c0,0-0.2,0.1-0.2,0.1c-0.1,0-0.2,0.1-0.2,0.1L44.3,10l-0.2,0.1l-0.3,0.1c0,0-0.1,0-0.2,0.1
	c-0.1,0-0.4,0.2-0.4,0.2L43,10.7l-0.2,0.1c0,0-0.1,0-0.2,0c-0.1,0-0.2,0-0.2,0l-0.1,0.1l-0.1,0l-0.3-0.1l-0.2,0l-0.2-0.1
	c0,0,0,0-0.1-0.1c-0.1,0-0.2-0.1-0.2-0.1s-0.1-0.1-0.1-0.2c0.1,0,0.1-0.1,0.1-0.1s0,0,0-0.1c0.1-0.1,0.1-0.1,0.1-0.1l0.1-0.2
	l0.1-0.1l0.2-0.1l0.1-0.1l0-0.1l0.1-0.1L42,9.2L42,9V8.8C42,8.7,42,8.6,42,8.6V8.5l-0.1-0.3V8V7.9l0-0.2l-0.1-0.1l-0.1,0l-0.2-0.1
	c0,0-0.1,0-0.2,0.1c-0.1,0-0.1,0-0.1,0l-0.1,0.2L40.9,8L40.8,8l-0.2-0.2l0-0.2l0.1-0.1V7.6l0.2-0.1L41,7.3l0.2-0.2L41.2,7V6.8V6.6
	V6.4l-0.1-0.2l0-0.1l0.2-0.1L41.2,6l-0.1-0.1l0-0.2l-0.2-0.1l-0.3-0.1l-0.2-0.1l-0.1-0.1c0,0-0.1,0-0.2-0.1c-0.1,0-0.2-0.1-0.2-0.1
	l-0.2-0.1l-0.1,0.1l-0.2,0.2l0,0.2l0.1,0.1l-0.2,0.1l-0.2,0.1V6l0,0.1v0.1l-0.1,0.1l-0.1,0l0-0.1l0.1-0.2L39,5.9l-0.1,0.2l-0.1,0.1
	l-0.1,0c0,0-0.1,0-0.1,0.1c0,0.1,0,0.2,0,0.2l-0.2,0l0,0.3l0,0.2l-0.2,0.3l-0.1,0.1l0.1,0.2L38.1,8l0.1,0.2l0.1,0.3l0.1,0.3l0,0.3
	c0,0,0,0.2,0,0.3c0,0.1-0.1,0.4-0.1,0.4L38.2,10L38,10.3l-0.1,0.2l-0.3,0.1l-0.3-0.1c0,0-0.1-0.1-0.1-0.1c0-0.1-0.1-0.2-0.1-0.2
	L37,10.1l0-0.1V9.7l0-0.3c0,0,0-0.1,0-0.2c0-0.1,0-0.1,0-0.2c0-0.1-0.1-0.1-0.1-0.2c0-0.1,0-0.1,0-0.1l-0.1-0.2c0,0,0-0.1,0-0.1
	c0.1-0.1,0.2-0.4,0.2-0.4V8c0,0,0-0.1,0-0.2c0-0.1,0.1-0.3,0.1-0.3l0.1-0.1l0.1-0.1V7.1l0-0.2l0-0.1l0.1-0.2l0.1-0.2l0.1-0.2l0-0.2
	l0.1-0.2l-0.1,0L37.4,6l-0.1,0.2l-0.1,0.1L37,6.5l-0.2,0.2l-0.1,0V6.5l0.1-0.2L37,6.3l0.1-0.2l0.1-0.2l0.1-0.2l0.1-0.2l0.2-0.1
	L37.6,5l0.1,0.2l0.1,0l0.1-0.1L38,5l0,0.2l0.1-0.1h0.1L38.3,5l0.1-0.1l0.6,0l0.1-0.2l0.3,0.1l0.2,0.1L39.8,5l0.1-0.2h0.2h0.1l0.3,0
	l0.1-0.1l-0.1-0.2l0-0.1l0-0.2V4.1l-0.1,0l-0.2,0.1l-0.2,0l-0.1,0l-0.2,0l-0.1,0V3.9l0-0.1l-0.2,0l-0.1,0.1l-0.2,0c0,0-0.1,0-0.1,0
	c-0.1,0-0.4,0-0.4,0L38.2,4L38,4.2l-0.3,0l-0.2-0.1l-0.1,0h-0.2l-0.1-0.3L37,3.7l-0.1-0.1l-0.1,0l-0.3,0l-0.2,0l-0.1,0.2l-0.1-0.2
	l0.1-0.2l0.2-0.2L36.7,3l0.2-0.1l-0.1-0.1h-0.2l-0.2,0l-0.1,0.1L36.1,3L36,3.1l0,0.1l-0.1,0.1l-0.1,0.1l-0.2,0.2l-0.2,0.1l-0.2,0.1
	l-0.2,0l-0.2,0.2c0,0,0,0-0.1,0.1c-0.1,0-0.2,0.1-0.2,0.1l-0.2,0l-0.1,0L33.9,4V3.8l0-0.2l0-0.1l-0.2,0.1l-0.3,0.1l-0.2,0.1l-0.2,0
	h-0.3V3.7l0.2-0.1l0.1-0.1l0.3-0.2l0.2-0.1L33.5,3l0.2-0.3c0,0,0.2-0.2,0.3-0.2c0.1,0,0.4-0.1,0.4-0.1l0.4-0.2L35,2.1L35.2,2L35,2
	h-0.2l-0.1-0.1l-0.2-0.1l-0.5,0L34,1.7l-0.3,0.2l-0.1,0.1l-0.2,0l-0.1,0l-0.1-0.1l-0.1,0l-0.1-0.1l-0.1-0.1l-0.2-0.1l-0.1,0.2h-0.1
	l0-0.2l-0.2,0l0.1-0.1l-0.2-0.1h-0.2h-0.3h-0.2l0,0.1l-0.3,0l-0.1-0.2h-0.4L30.7,1h-0.3l-0.1-0.2V0.4l-0.1-0.2l-0.1-0.1L29.8,0
	l0,0.5L2.7,0.6z"/>
</svg>
