<svg id="Layer_1" data-name="Layer 1" xmlns="http://www.w3.org/2000/svg" viewBox="0 0 15 14"><defs><style>.cls-1{fill:#205493;}</style></defs><title>definition-new</title><path class="cls-1" d="M14.38,4.72l-2.3,7.59a1.83,1.83,0,0,1-1.67,1.26H2.68A2.38,2.38,0,0,1,.6,12,1.61,1.61,0,0,1,.58,11c0-.17.05-.34.06-.54s-.06-.24-.05-.34.21-.34.35-.57A6,6,0,0,0,1.56,8c.05-.16,0-.35,0-.49a2.32,2.32,0,0,1,.29-.43,5.1,5.1,0,0,0,.56-1.52c0-.18-.07-.37,0-.5s.25-.28.37-.45a4.37,4.37,0,0,0,.59-1.51c0-.15-.07-.29,0-.44s.23-.33.36-.52C4,1.6,4.09.45,5.16.76v0A2,2,0,0,1,5.58.71H12a1.16,1.16,0,0,1,1,.46,1.29,1.29,0,0,1,.15,1.09l-2.3,7.59c-.39,1.29-.61,1.58-1.67,1.58H1.81a.38.38,0,0,0-.32.12c-.07.1-.08.18,0,.36.17.49.75.59,1.21.59h7.73a.8.8,0,0,0,.76-.48l2.51-8.27a1.51,1.51,0,0,0,.05-.47,1.08,1.08,0,0,1,.49.36A1.23,1.23,0,0,1,14.38,4.72ZM4.81,6.07H9.9a.41.41,0,0,0,.35-.27l.18-.54A.19.19,0,0,0,10.24,5H5.15a.41.41,0,0,0-.35.27l-.18.54A.19.19,0,0,0,4.81,6.07ZM5.5,3.92h5.09A.41.41,0,0,0,11,3.65l.17-.53a.19.19,0,0,0-.18-.27H5.84a.41.41,0,0,0-.35.27l-.17.53A.19.19,0,0,0,5.5,3.92Z"/></svg>