<?xml version="1.0" encoding="UTF-8"?>
<svg width="303px" height="69px" viewBox="0 0 303 69" version="1.1" xmlns="http://www.w3.org/2000/svg" xmlns:xlink="http://www.w3.org/1999/xlink">
    <!-- Generator: Sketch 59.1 (86144) - https://sketch.com -->
    <title>Income</title>
    <desc>Created with Sketch.</desc>
    <g id="Export-Outlined-SVG" stroke="none" stroke-width="1" fill="none" fill-rule="evenodd">
        <g id="4" transform="translate(-838.000000, -216.000000)">
            <g id="Income" transform="translate(838.546000, 216.146000)">
                <polygon id="Fill-1" fill="#E0E0E0" points="2.454 33.854 299.454 33.854 299.454 23.854 2.454 23.854"></polygon>
                <path d="M71.444,2.352 C71.247999,2.16299905 71.0572509,2.01600052 70.87175,1.911 C70.6862491,1.80599948 70.4500014,1.7535 70.163,1.7535 C69.8409984,1.7535 69.5855009,1.84449909 69.3965,2.0265 C69.2074991,2.20850091 69.113,2.45349846 69.113,2.7615 C69.113,3.01350126 69.1847493,3.21999919 69.32825,3.381 C69.4717507,3.54200081 69.6519989,3.68374939 69.869,3.80625 C70.0860011,3.92875061 70.3222487,4.04774942 70.57775,4.16325 C70.8332513,4.27875058 71.0694989,4.41874918 71.2865,4.58325 C71.5035011,4.74775082 71.6837493,4.95074879 71.82725,5.19225 C71.9707507,5.43375121 72.0425,5.74349811 72.0425,6.1215 C72.0425,6.62550252 71.8972515,7.03849839 71.60675,7.3605 C71.3162485,7.68250161 70.9190025,7.87849965 70.415,7.9485 L70.415,9.009 L69.785,9.009 L69.785,7.9695 C69.4489983,7.93449983 69.1235016,7.84175075 68.8085,7.69125 C68.4934984,7.54074925 68.2240011,7.36400101 68,7.161 L68.399,6.5625 C68.6230011,6.75850098 68.8697487,6.92474932 69.13925,7.06125 C69.4087513,7.19775068 69.7044984,7.266 70.0265,7.266 C70.418502,7.266 70.710749,7.16800098 70.90325,6.972 C71.095751,6.77599902 71.192,6.51350165 71.192,6.1845 C71.192,5.9044986 71.1202507,5.67175093 70.97675,5.48625 C70.8332493,5.30074907 70.6530011,5.13975068 70.436,5.00325 C70.2189989,4.86674932 69.9827513,4.7390006 69.72725,4.62 C69.4717487,4.50099941 69.2355011,4.36450077 69.0185,4.2105 C68.8014989,4.05649923 68.6212507,3.8692511 68.47775,3.64875 C68.3342493,3.4282489 68.2625,3.14650172 68.2625,2.8035 C68.2625,2.33449765 68.4007486,1.94425156 68.67725,1.63275 C68.9537514,1.32124844 69.3229977,1.12700038 69.785,1.05 L69.785,1.42108547e-14 L70.415,1.42108547e-14 L70.415,1.0395 C70.7510017,1.07450018 71.0362488,1.16549927 71.27075,1.3125 C71.5052512,1.45950073 71.7169991,1.63449899 71.906,1.8375 L71.444,2.352 Z M73.472,7.14 L75.005,7.14 L75.005,2.205 L73.787,2.205 L73.787,1.6485 C74.0950015,1.59249972 74.3627489,1.5242504 74.59025,1.44375 C74.8177511,1.3632496 75.0224991,1.26700056 75.2045,1.155 L75.866,1.155 L75.866,7.14 L77.252,7.14 L77.252,7.854 L73.472,7.854 L73.472,7.14 Z M80.4455,7.98 C79.7664966,7.98 79.2380019,7.67900301 78.86,7.077 C78.4819981,6.47499699 78.293,5.61050563 78.293,4.4835 C78.293,3.35649436 78.4819981,2.49900294 78.86,1.911 C79.2380019,1.32299706 79.7664966,1.029 80.4455,1.029 C81.1175034,1.029 81.6424981,1.32299706 82.0205,1.911 C82.3985019,2.49900294 82.5875,3.35649436 82.5875,4.4835 C82.5875,5.61050563 82.3985019,6.47499699 82.0205,7.077 C81.6424981,7.67900301 81.1175034,7.98 80.4455,7.98 Z M80.4455,7.287 C80.641501,7.287 80.8182492,7.23275054 80.97575,7.12425 C81.1332508,7.01574946 81.2697494,6.84775114 81.38525,6.62025 C81.5007506,6.39274886 81.5899997,6.10225177 81.653,5.74875 C81.7160003,5.39524823 81.7475,4.97350245 81.7475,4.4835 C81.7475,3.99349755 81.7160003,3.57350175 81.653,3.2235 C81.5899997,2.87349825 81.5007506,2.5882511 81.38525,2.36775 C81.2697494,2.1472489 81.1332508,1.98450053 80.97575,1.8795 C80.8182492,1.77449947 80.641501,1.722 80.4455,1.722 C80.249499,1.722 80.0710008,1.77449947 79.91,1.8795 C79.7489992,1.98450053 79.6107506,2.1472489 79.49525,2.36775 C79.3797494,2.5882511 79.2905003,2.87349825 79.2275,3.2235 C79.1644997,3.57350175 79.133,3.99349755 79.133,4.4835 C79.133,5.4635049 79.2537488,6.17574778 79.49525,6.62025 C79.7367512,7.06475222 80.053498,7.287 80.4455,7.287 Z M83.9645,0.966 L84.836,0.966 L84.836,4.4205 L84.8675,4.4205 L87.734,0.966 L88.721,0.966 L86.5685,3.591 L89.057,7.854 L88.0805,7.854 L86.0225,4.2735 L84.836,5.67 L84.836,7.854 L83.9645,7.854 L83.9645,0.966 Z" id="$10K" fill="#848484" fill-rule="nonzero"></path>
                <path d="M107.444,2.352 C107.247999,2.16299905 107.057251,2.01600052 106.87175,1.911 C106.686249,1.80599948 106.450001,1.7535 106.163,1.7535 C105.840998,1.7535 105.585501,1.84449909 105.3965,2.0265 C105.207499,2.20850091 105.113,2.45349846 105.113,2.7615 C105.113,3.01350126 105.184749,3.21999919 105.32825,3.381 C105.471751,3.54200081 105.651999,3.68374939 105.869,3.80625 C106.086001,3.92875061 106.322249,4.04774942 106.57775,4.16325 C106.833251,4.27875058 107.069499,4.41874918 107.2865,4.58325 C107.503501,4.74775082 107.683749,4.95074879 107.82725,5.19225 C107.970751,5.43375121 108.0425,5.74349811 108.0425,6.1215 C108.0425,6.62550252 107.897251,7.03849839 107.60675,7.3605 C107.316249,7.68250161 106.919003,7.87849965 106.415,7.9485 L106.415,9.009 L105.785,9.009 L105.785,7.9695 C105.448998,7.93449983 105.123502,7.84175075 104.8085,7.69125 C104.493498,7.54074925 104.224001,7.36400101 104,7.161 L104.399,6.5625 C104.623001,6.75850098 104.869749,6.92474932 105.13925,7.06125 C105.408751,7.19775068 105.704498,7.266 106.0265,7.266 C106.418502,7.266 106.710749,7.16800098 106.90325,6.972 C107.095751,6.77599902 107.192,6.51350165 107.192,6.1845 C107.192,5.9044986 107.120251,5.67175093 106.97675,5.48625 C106.833249,5.30074907 106.653001,5.13975068 106.436,5.00325 C106.218999,4.86674932 105.982751,4.7390006 105.72725,4.62 C105.471749,4.50099941 105.235501,4.36450077 105.0185,4.2105 C104.801499,4.05649923 104.621251,3.8692511 104.47775,3.64875 C104.334249,3.4282489 104.2625,3.14650172 104.2625,2.8035 C104.2625,2.33449765 104.400749,1.94425156 104.67725,1.63275 C104.953751,1.32124844 105.322998,1.12700038 105.785,1.05 L105.785,1.42108547e-14 L106.415,1.42108547e-14 L106.415,1.0395 C106.751002,1.07450018 107.036249,1.16549927 107.27075,1.3125 C107.505251,1.45950073 107.716999,1.63449899 107.906,1.8375 L107.444,2.352 Z M109.472,7.14 L111.005,7.14 L111.005,2.205 L109.787,2.205 L109.787,1.6485 C110.095002,1.59249972 110.362749,1.5242504 110.59025,1.44375 C110.817751,1.3632496 111.022499,1.26700056 111.2045,1.155 L111.866,1.155 L111.866,7.14 L113.252,7.14 L113.252,7.854 L109.472,7.854 L109.472,7.14 Z M114.5135,6.4995 C114.709501,6.70250102 114.942249,6.88099923 115.21175,7.035 C115.481251,7.18900077 115.811998,7.266 116.204,7.266 C116.407001,7.266 116.597749,7.22925037 116.77625,7.15575 C116.954751,7.08224963 117.110499,6.97900066 117.2435,6.846 C117.376501,6.71299933 117.4815,6.55200094 117.5585,6.363 C117.6355,6.17399906 117.674,5.96400115 117.674,5.733 C117.674,5.27099769 117.544501,4.9105013 117.2855,4.6515 C117.026499,4.3924987 116.680002,4.263 116.246,4.263 C116.014999,4.263 115.817251,4.29799965 115.65275,4.368 C115.488249,4.43800035 115.304501,4.53949934 115.1015,4.6725 L114.6395,4.3785 L114.86,1.155 L118.2095,1.155 L118.2095,1.9005 L115.616,1.9005 L115.4375,3.885 C115.598501,3.80099958 115.759499,3.73450025 115.9205,3.6855 C116.081501,3.63649976 116.263499,3.612 116.4665,3.612 C116.753501,3.612 117.022999,3.65399958 117.275,3.738 C117.527001,3.82200042 117.747499,3.94974914 117.9365,4.12125 C118.125501,4.29275086 118.274249,4.50974869 118.38275,4.77225 C118.491251,5.03475131 118.5455,5.34799818 118.5455,5.712 C118.5455,6.07600182 118.482501,6.3979986 118.3565,6.678 C118.230499,6.9580014 118.062501,7.19424904 117.8525,7.38675 C117.642499,7.57925096 117.402751,7.72624949 117.13325,7.82775 C116.863749,7.92925051 116.582001,7.98 116.288,7.98 C116.021999,7.98 115.778751,7.95375026 115.55825,7.90125 C115.337749,7.84874974 115.138251,7.78050042 114.95975,7.6965 C114.781249,7.61249958 114.620251,7.51625054 114.47675,7.40775 C114.333249,7.29924946 114.205501,7.18550059 114.0935,7.0665 L114.5135,6.4995 Z M119.9645,0.966 L120.836,0.966 L120.836,4.4205 L120.8675,4.4205 L123.734,0.966 L124.721,0.966 L122.5685,3.591 L125.057,7.854 L124.0805,7.854 L122.0225,4.2735 L120.836,5.67 L120.836,7.854 L119.9645,7.854 L119.9645,0.966 Z" id="$15K" fill="#848484" fill-rule="nonzero"></path>
                <path d="M38.444,2.352 C38.247999,2.16299905 38.0572509,2.01600052 37.87175,1.911 C37.6862491,1.80599948 37.4500014,1.7535 37.163,1.7535 C36.8409984,1.7535 36.5855009,1.84449909 36.3965,2.0265 C36.2074991,2.20850091 36.113,2.45349846 36.113,2.7615 C36.113,3.01350126 36.1847493,3.21999919 36.32825,3.381 C36.4717507,3.54200081 36.6519989,3.68374939 36.869,3.80625 C37.0860011,3.92875061 37.3222487,4.04774942 37.57775,4.16325 C37.8332513,4.27875058 38.0694989,4.41874918 38.2865,4.58325 C38.5035011,4.74775082 38.6837493,4.95074879 38.82725,5.19225 C38.9707507,5.43375121 39.0425,5.74349811 39.0425,6.1215 C39.0425,6.62550252 38.8972515,7.03849839 38.60675,7.3605 C38.3162485,7.68250161 37.9190025,7.87849965 37.415,7.9485 L37.415,9.009 L36.785,9.009 L36.785,7.9695 C36.4489983,7.93449983 36.1235016,7.84175075 35.8085,7.69125 C35.4934984,7.54074925 35.2240011,7.36400101 35,7.161 L35.399,6.5625 C35.6230011,6.75850098 35.8697487,6.92474932 36.13925,7.06125 C36.4087513,7.19775068 36.7044984,7.266 37.0265,7.266 C37.418502,7.266 37.710749,7.16800098 37.90325,6.972 C38.095751,6.77599902 38.192,6.51350165 38.192,6.1845 C38.192,5.9044986 38.1202507,5.67175093 37.97675,5.48625 C37.8332493,5.30074907 37.6530011,5.13975068 37.436,5.00325 C37.2189989,4.86674932 36.9827513,4.7390006 36.72725,4.62 C36.4717487,4.50099941 36.2355011,4.36450077 36.0185,4.2105 C35.8014989,4.05649923 35.6212507,3.8692511 35.47775,3.64875 C35.3342493,3.4282489 35.2625,3.14650172 35.2625,2.8035 C35.2625,2.33449765 35.4007486,1.94425156 35.67725,1.63275 C35.9537514,1.32124844 36.3229977,1.12700038 36.785,1.05 L36.785,1.42108547e-14 L37.415,1.42108547e-14 L37.415,1.0395 C37.7510017,1.07450018 38.0362488,1.16549927 38.27075,1.3125 C38.5052512,1.45950073 38.7169991,1.63449899 38.906,1.8375 L38.444,2.352 Z M40.325,6.4995 C40.521001,6.70250102 40.7537487,6.88099923 41.02325,7.035 C41.2927513,7.18900077 41.623498,7.266 42.0155,7.266 C42.218501,7.266 42.4092491,7.22925037 42.58775,7.15575 C42.7662509,7.08224963 42.9219993,6.97900066 43.055,6.846 C43.1880007,6.71299933 43.2929996,6.55200094 43.37,6.363 C43.4470004,6.17399906 43.4855,5.96400115 43.4855,5.733 C43.4855,5.27099769 43.3560013,4.9105013 43.097,4.6515 C42.8379987,4.3924987 42.4915022,4.263 42.0575,4.263 C41.8264988,4.263 41.6287508,4.29799965 41.46425,4.368 C41.2997492,4.43800035 41.116001,4.53949934 40.913,4.6725 L40.451,4.3785 L40.6715,1.155 L44.021,1.155 L44.021,1.9005 L41.4275,1.9005 L41.249,3.885 C41.4100008,3.80099958 41.5709992,3.73450025 41.732,3.6855 C41.8930008,3.63649976 42.074999,3.612 42.278,3.612 C42.5650014,3.612 42.8344987,3.65399958 43.0865,3.738 C43.3385013,3.82200042 43.5589991,3.94974914 43.748,4.12125 C43.9370009,4.29275086 44.0857495,4.50974869 44.19425,4.77225 C44.3027505,5.03475131 44.357,5.34799818 44.357,5.712 C44.357,6.07600182 44.2940006,6.3979986 44.168,6.678 C44.0419994,6.9580014 43.8740011,7.19424904 43.664,7.38675 C43.453999,7.57925096 43.2142513,7.72624949 42.94475,7.82775 C42.6752487,7.92925051 42.3935015,7.98 42.0995,7.98 C41.8334987,7.98 41.5902511,7.95375026 41.36975,7.90125 C41.1492489,7.84874974 40.9497509,7.78050042 40.77125,7.6965 C40.5927491,7.61249958 40.4317507,7.51625054 40.28825,7.40775 C40.1447493,7.29924946 40.0170006,7.18550059 39.905,7.0665 L40.325,6.4995 Z M45.776,0.966 L46.6475,0.966 L46.6475,4.4205 L46.679,4.4205 L49.5455,0.966 L50.5325,0.966 L48.38,3.591 L50.8685,7.854 L49.892,7.854 L47.834,4.2735 L46.6475,5.67 L46.6475,7.854 L45.776,7.854 L45.776,0.966 Z" id="$5K" fill="#848484" fill-rule="nonzero"></path>
                <path d="M3.444,2.352 C3.24799902,2.16299905 3.05725093,2.01600052 2.87175,1.911 C2.68624907,1.80599948 2.45000143,1.7535 2.163,1.7535 C1.84099839,1.7535 1.58550094,1.84449909 1.3965,2.0265 C1.20749905,2.20850091 1.113,2.45349846 1.113,2.7615 C1.113,3.01350126 1.18474928,3.21999919 1.32825,3.381 C1.47175072,3.54200081 1.65199891,3.68374939 1.869,3.80625 C2.08600108,3.92875061 2.32224872,4.04774942 2.57775,4.16325 C2.83325128,4.27875058 3.06949891,4.41874918 3.2865,4.58325 C3.50350108,4.74775082 3.68374928,4.95074879 3.82725,5.19225 C3.97075072,5.43375121 4.0425,5.74349811 4.0425,6.1215 C4.0425,6.62550252 3.89725145,7.03849839 3.60675,7.3605 C3.31624855,7.68250161 2.91900252,7.87849965 2.415,7.9485 L2.415,9.009 L1.785,9.009 L1.785,7.9695 C1.44899832,7.93449983 1.12350157,7.84175075 0.8085,7.69125 C0.493498425,7.54074925 0.22400112,7.36400101 0,7.161 L0.399,6.5625 C0.62300112,6.75850098 0.869748652,6.92474932 1.13925,7.06125 C1.40875135,7.19775068 1.70449839,7.266 2.0265,7.266 C2.41850196,7.266 2.71074904,7.16800098 2.90325,6.972 C3.09575096,6.77599902 3.192,6.51350165 3.192,6.1845 C3.192,5.9044986 3.12025072,5.67175093 2.97675,5.48625 C2.83324928,5.30074907 2.65300108,5.13975068 2.436,5.00325 C2.21899891,4.86674932 1.98275128,4.7390006 1.72725,4.62 C1.47174872,4.50099941 1.23550108,4.36450077 1.0185,4.2105 C0.801498915,4.05649923 0.621250717,3.8692511 0.47775,3.64875 C0.334249282,3.4282489 0.2625,3.14650172 0.2625,2.8035 C0.2625,2.33449765 0.400748617,1.94425156 0.67725,1.63275 C0.953751382,1.32124844 1.32299769,1.12700038 1.785,1.05 L1.785,1.42108547e-14 L2.415,1.42108547e-14 L2.415,1.0395 C2.75100168,1.07450018 3.03624883,1.16549927 3.27075,1.3125 C3.50525117,1.45950073 3.71699905,1.63449899 3.906,1.8375 L3.444,2.352 Z M7.257,7.98 C6.57799661,7.98 6.04950189,7.67900301 5.6715,7.077 C5.29349811,6.47499699 5.1045,5.61050563 5.1045,4.4835 C5.1045,3.35649436 5.29349811,2.49900294 5.6715,1.911 C6.04950189,1.32299706 6.57799661,1.029 7.257,1.029 C7.92900336,1.029 8.45399811,1.32299706 8.832,1.911 C9.21000189,2.49900294 9.399,3.35649436 9.399,4.4835 C9.399,5.61050563 9.21000189,6.47499699 8.832,7.077 C8.45399811,7.67900301 7.92900336,7.98 7.257,7.98 Z M7.257,7.287 C7.45300098,7.287 7.62974921,7.23275054 7.78725,7.12425 C7.94475079,7.01574946 8.08124942,6.84775114 8.19675,6.62025 C8.31225058,6.39274886 8.40149969,6.10225177 8.4645,5.74875 C8.52750032,5.39524823 8.559,4.97350245 8.559,4.4835 C8.559,3.99349755 8.52750032,3.57350175 8.4645,3.2235 C8.40149969,2.87349825 8.31225058,2.5882511 8.19675,2.36775 C8.08124942,2.1472489 7.94475079,1.98450053 7.78725,1.8795 C7.62974921,1.77449947 7.45300098,1.722 7.257,1.722 C7.06099902,1.722 6.88250081,1.77449947 6.7215,1.8795 C6.5604992,1.98450053 6.42225058,2.1472489 6.30675,2.36775 C6.19124942,2.5882511 6.10200032,2.87349825 6.039,3.2235 C5.97599969,3.57350175 5.9445,3.99349755 5.9445,4.4835 C5.9445,5.4635049 6.06524879,6.17574778 6.30675,6.62025 C6.54825121,7.06475222 6.86499804,7.287 7.257,7.287 Z M10.776,0.966 L11.6475,0.966 L11.6475,4.4205 L11.679,4.4205 L14.5455,0.966 L15.5325,0.966 L13.38,3.591 L15.8685,7.854 L14.892,7.854 L12.834,4.2735 L11.6475,5.67 L11.6475,7.854 L10.776,7.854 L10.776,0.966 Z" id="$0K" fill="#848484" fill-rule="nonzero"></path>
                <path d="M213.444,2.352 C213.247999,2.16299905 213.057251,2.01600052 212.87175,1.911 C212.686249,1.80599948 212.450001,1.7535 212.163,1.7535 C211.840998,1.7535 211.585501,1.84449909 211.3965,2.0265 C211.207499,2.20850091 211.113,2.45349846 211.113,2.7615 C211.113,3.01350126 211.184749,3.21999919 211.32825,3.381 C211.471751,3.54200081 211.651999,3.68374939 211.869,3.80625 C212.086001,3.92875061 212.322249,4.04774942 212.57775,4.16325 C212.833251,4.27875058 213.069499,4.41874918 213.2865,4.58325 C213.503501,4.74775082 213.683749,4.95074879 213.82725,5.19225 C213.970751,5.43375121 214.0425,5.74349811 214.0425,6.1215 C214.0425,6.62550252 213.897251,7.03849839 213.60675,7.3605 C213.316249,7.68250161 212.919003,7.87849965 212.415,7.9485 L212.415,9.009 L211.785,9.009 L211.785,7.9695 C211.448998,7.93449983 211.123502,7.84175075 210.8085,7.69125 C210.493498,7.54074925 210.224001,7.36400101 210,7.161 L210.399,6.5625 C210.623001,6.75850098 210.869749,6.92474932 211.13925,7.06125 C211.408751,7.19775068 211.704498,7.266 212.0265,7.266 C212.418502,7.266 212.710749,7.16800098 212.90325,6.972 C213.095751,6.77599902 213.192,6.51350165 213.192,6.1845 C213.192,5.9044986 213.120251,5.67175093 212.97675,5.48625 C212.833249,5.30074907 212.653001,5.13975068 212.436,5.00325 C212.218999,4.86674932 211.982751,4.7390006 211.72725,4.62 C211.471749,4.50099941 211.235501,4.36450077 211.0185,4.2105 C210.801499,4.05649923 210.621251,3.8692511 210.47775,3.64875 C210.334249,3.4282489 210.2625,3.14650172 210.2625,2.8035 C210.2625,2.33449765 210.400749,1.94425156 210.67725,1.63275 C210.953751,1.32124844 211.322998,1.12700038 211.785,1.05 L211.785,1.42108547e-14 L212.415,1.42108547e-14 L212.415,1.0395 C212.751002,1.07450018 213.036249,1.16549927 213.27075,1.3125 C213.505251,1.45950073 213.716999,1.63449899 213.906,1.8375 L213.444,2.352 Z M215.3565,6.468 C215.559501,6.67800105 215.795749,6.86349919 216.06525,7.0245 C216.334751,7.1855008 216.668998,7.266 217.068,7.266 C217.474002,7.266 217.806499,7.1557511 218.0655,6.93525 C218.324501,6.7147489 218.454,6.41550189 218.454,6.0375 C218.454,5.84149902 218.41725,5.66125082 218.34375,5.49675 C218.27025,5.33224918 218.149501,5.19050059 217.9815,5.0715 C217.813499,4.95249941 217.593001,4.86150031 217.32,4.7985 C217.046999,4.73549968 216.711002,4.704 216.312,4.704 L216.312,4.0425 C216.669002,4.0425 216.968249,4.01100032 217.20975,3.948 C217.451251,3.88499969 217.647249,3.79750056 217.79775,3.6855 C217.948251,3.57349944 218.055,3.44050077 218.118,3.2865 C218.181,3.13249923 218.2125,2.96800087 218.2125,2.793 C218.2125,2.46399835 218.109251,2.20500095 217.90275,2.016 C217.696249,1.82699906 217.414502,1.7325 217.0575,1.7325 C216.777499,1.7325 216.520251,1.79549937 216.28575,1.9215 C216.051249,2.04750063 215.832501,2.21199898 215.6295,2.415 L215.1675,1.869 C215.426501,1.62399878 215.711748,1.42275079 216.02325,1.26525 C216.334752,1.10774921 216.689998,1.029 217.089,1.029 C217.383001,1.029 217.652499,1.06749961 217.8975,1.1445 C218.142501,1.22150038 218.354249,1.33174928 218.53275,1.47525 C218.711251,1.61875072 218.8495,1.79549895 218.9475,2.0055 C219.0455,2.21550105 219.0945,2.45699864 219.0945,2.73 C219.0945,3.13600203 218.982501,3.4684987 218.7585,3.7275 C218.534499,3.98650129 218.240502,4.1859993 217.8765,4.326 L217.8765,4.368 C218.079501,4.41700025 218.268499,4.48874953 218.4435,4.58325 C218.618501,4.67775047 218.772499,4.79674928 218.9055,4.94025 C219.038501,5.08375072 219.14175,5.24999906 219.21525,5.439 C219.28875,5.62800095 219.3255,5.83799885 219.3255,6.069 C219.3255,6.36300147 219.267751,6.62899881 219.15225,6.867 C219.036749,7.10500119 218.879251,7.30624918 218.67975,7.47075 C218.480249,7.63525082 218.247501,7.76124956 217.9815,7.84875 C217.715499,7.93625044 217.428502,7.98 217.1205,7.98 C216.854499,7.98 216.611251,7.95375026 216.39075,7.90125 C216.170249,7.84874974 215.969001,7.77875044 215.787,7.69125 C215.604999,7.60374956 215.442251,7.50400056 215.29875,7.392 C215.155249,7.27999944 215.027501,7.16100063 214.9155,7.035 L215.3565,6.468 Z M222.4455,7.98 C221.766497,7.98 221.238002,7.67900301 220.86,7.077 C220.481998,6.47499699 220.293,5.61050563 220.293,4.4835 C220.293,3.35649436 220.481998,2.49900294 220.86,1.911 C221.238002,1.32299706 221.766497,1.029 222.4455,1.029 C223.117503,1.029 223.642498,1.32299706 224.0205,1.911 C224.398502,2.49900294 224.5875,3.35649436 224.5875,4.4835 C224.5875,5.61050563 224.398502,6.47499699 224.0205,7.077 C223.642498,7.67900301 223.117503,7.98 222.4455,7.98 Z M222.4455,7.287 C222.641501,7.287 222.818249,7.23275054 222.97575,7.12425 C223.133251,7.01574946 223.269749,6.84775114 223.38525,6.62025 C223.500751,6.39274886 223.59,6.10225177 223.653,5.74875 C223.716,5.39524823 223.7475,4.97350245 223.7475,4.4835 C223.7475,3.99349755 223.716,3.57350175 223.653,3.2235 C223.59,2.87349825 223.500751,2.5882511 223.38525,2.36775 C223.269749,2.1472489 223.133251,1.98450053 222.97575,1.8795 C222.818249,1.77449947 222.641501,1.722 222.4455,1.722 C222.249499,1.722 222.071001,1.77449947 221.91,1.8795 C221.748999,1.98450053 221.610751,2.1472489 221.49525,2.36775 C221.379749,2.5882511 221.2905,2.87349825 221.2275,3.2235 C221.1645,3.57350175 221.133,3.99349755 221.133,4.4835 C221.133,5.4635049 221.253749,6.17574778 221.49525,6.62025 C221.736751,7.06475222 222.053498,7.287 222.4455,7.287 Z M225.9645,0.966 L226.836,0.966 L226.836,4.4205 L226.8675,4.4205 L229.734,0.966 L230.721,0.966 L228.5685,3.591 L231.057,7.854 L230.0805,7.854 L228.0225,4.2735 L226.836,5.67 L226.836,7.854 L225.9645,7.854 L225.9645,0.966 Z" id="$30K" fill="#848484" fill-rule="nonzero"></path>
                <path d="M249.444,2.352 C249.247999,2.16299905 249.057251,2.01600052 248.87175,1.911 C248.686249,1.80599948 248.450001,1.7535 248.163,1.7535 C247.840998,1.7535 247.585501,1.84449909 247.3965,2.0265 C247.207499,2.20850091 247.113,2.45349846 247.113,2.7615 C247.113,3.01350126 247.184749,3.21999919 247.32825,3.381 C247.471751,3.54200081 247.651999,3.68374939 247.869,3.80625 C248.086001,3.92875061 248.322249,4.04774942 248.57775,4.16325 C248.833251,4.27875058 249.069499,4.41874918 249.2865,4.58325 C249.503501,4.74775082 249.683749,4.95074879 249.82725,5.19225 C249.970751,5.43375121 250.0425,5.74349811 250.0425,6.1215 C250.0425,6.62550252 249.897251,7.03849839 249.60675,7.3605 C249.316249,7.68250161 248.919003,7.87849965 248.415,7.9485 L248.415,9.009 L247.785,9.009 L247.785,7.9695 C247.448998,7.93449983 247.123502,7.84175075 246.8085,7.69125 C246.493498,7.54074925 246.224001,7.36400101 246,7.161 L246.399,6.5625 C246.623001,6.75850098 246.869749,6.92474932 247.13925,7.06125 C247.408751,7.19775068 247.704498,7.266 248.0265,7.266 C248.418502,7.266 248.710749,7.16800098 248.90325,6.972 C249.095751,6.77599902 249.192,6.51350165 249.192,6.1845 C249.192,5.9044986 249.120251,5.67175093 248.97675,5.48625 C248.833249,5.30074907 248.653001,5.13975068 248.436,5.00325 C248.218999,4.86674932 247.982751,4.7390006 247.72725,4.62 C247.471749,4.50099941 247.235501,4.36450077 247.0185,4.2105 C246.801499,4.05649923 246.621251,3.8692511 246.47775,3.64875 C246.334249,3.4282489 246.2625,3.14650172 246.2625,2.8035 C246.2625,2.33449765 246.400749,1.94425156 246.67725,1.63275 C246.953751,1.32124844 247.322998,1.12700038 247.785,1.05 L247.785,1.42108547e-14 L248.415,1.42108547e-14 L248.415,1.0395 C248.751002,1.07450018 249.036249,1.16549927 249.27075,1.3125 C249.505251,1.45950073 249.716999,1.63449899 249.906,1.8375 L249.444,2.352 Z M251.3565,6.468 C251.559501,6.67800105 251.795749,6.86349919 252.06525,7.0245 C252.334751,7.1855008 252.668998,7.266 253.068,7.266 C253.474002,7.266 253.806499,7.1557511 254.0655,6.93525 C254.324501,6.7147489 254.454,6.41550189 254.454,6.0375 C254.454,5.84149902 254.41725,5.66125082 254.34375,5.49675 C254.27025,5.33224918 254.149501,5.19050059 253.9815,5.0715 C253.813499,4.95249941 253.593001,4.86150031 253.32,4.7985 C253.046999,4.73549968 252.711002,4.704 252.312,4.704 L252.312,4.0425 C252.669002,4.0425 252.968249,4.01100032 253.20975,3.948 C253.451251,3.88499969 253.647249,3.79750056 253.79775,3.6855 C253.948251,3.57349944 254.055,3.44050077 254.118,3.2865 C254.181,3.13249923 254.2125,2.96800087 254.2125,2.793 C254.2125,2.46399835 254.109251,2.20500095 253.90275,2.016 C253.696249,1.82699906 253.414502,1.7325 253.0575,1.7325 C252.777499,1.7325 252.520251,1.79549937 252.28575,1.9215 C252.051249,2.04750063 251.832501,2.21199898 251.6295,2.415 L251.1675,1.869 C251.426501,1.62399878 251.711748,1.42275079 252.02325,1.26525 C252.334752,1.10774921 252.689998,1.029 253.089,1.029 C253.383001,1.029 253.652499,1.06749961 253.8975,1.1445 C254.142501,1.22150038 254.354249,1.33174928 254.53275,1.47525 C254.711251,1.61875072 254.8495,1.79549895 254.9475,2.0055 C255.0455,2.21550105 255.0945,2.45699864 255.0945,2.73 C255.0945,3.13600203 254.982501,3.4684987 254.7585,3.7275 C254.534499,3.98650129 254.240502,4.1859993 253.8765,4.326 L253.8765,4.368 C254.079501,4.41700025 254.268499,4.48874953 254.4435,4.58325 C254.618501,4.67775047 254.772499,4.79674928 254.9055,4.94025 C255.038501,5.08375072 255.14175,5.24999906 255.21525,5.439 C255.28875,5.62800095 255.3255,5.83799885 255.3255,6.069 C255.3255,6.36300147 255.267751,6.62899881 255.15225,6.867 C255.036749,7.10500119 254.879251,7.30624918 254.67975,7.47075 C254.480249,7.63525082 254.247501,7.76124956 253.9815,7.84875 C253.715499,7.93625044 253.428502,7.98 253.1205,7.98 C252.854499,7.98 252.611251,7.95375026 252.39075,7.90125 C252.170249,7.84874974 251.969001,7.77875044 251.787,7.69125 C251.604999,7.60374956 251.442251,7.50400056 251.29875,7.392 C251.155249,7.27999944 251.027501,7.16100063 250.9155,7.035 L251.3565,6.468 Z M256.5135,6.4995 C256.709501,6.70250102 256.942249,6.88099923 257.21175,7.035 C257.481251,7.18900077 257.811998,7.266 258.204,7.266 C258.407001,7.266 258.597749,7.22925037 258.77625,7.15575 C258.954751,7.08224963 259.110499,6.97900066 259.2435,6.846 C259.376501,6.71299933 259.4815,6.55200094 259.5585,6.363 C259.6355,6.17399906 259.674,5.96400115 259.674,5.733 C259.674,5.27099769 259.544501,4.9105013 259.2855,4.6515 C259.026499,4.3924987 258.680002,4.263 258.246,4.263 C258.014999,4.263 257.817251,4.29799965 257.65275,4.368 C257.488249,4.43800035 257.304501,4.53949934 257.1015,4.6725 L256.6395,4.3785 L256.86,1.155 L260.2095,1.155 L260.2095,1.9005 L257.616,1.9005 L257.4375,3.885 C257.598501,3.80099958 257.759499,3.73450025 257.9205,3.6855 C258.081501,3.63649976 258.263499,3.612 258.4665,3.612 C258.753501,3.612 259.022999,3.65399958 259.275,3.738 C259.527001,3.82200042 259.747499,3.94974914 259.9365,4.12125 C260.125501,4.29275086 260.274249,4.50974869 260.38275,4.77225 C260.491251,5.03475131 260.5455,5.34799818 260.5455,5.712 C260.5455,6.07600182 260.482501,6.3979986 260.3565,6.678 C260.230499,6.9580014 260.062501,7.19424904 259.8525,7.38675 C259.642499,7.57925096 259.402751,7.72624949 259.13325,7.82775 C258.863749,7.92925051 258.582001,7.98 258.288,7.98 C258.021999,7.98 257.778751,7.95375026 257.55825,7.90125 C257.337749,7.84874974 257.138251,7.78050042 256.95975,7.6965 C256.781249,7.61249958 256.620251,7.51625054 256.47675,7.40775 C256.333249,7.29924946 256.205501,7.18550059 256.0935,7.0665 L256.5135,6.4995 Z M261.9645,0.966 L262.836,0.966 L262.836,4.4205 L262.8675,4.4205 L265.734,0.966 L266.721,0.966 L264.5685,3.591 L267.057,7.854 L266.0805,7.854 L264.0225,4.2735 L262.836,5.67 L262.836,7.854 L261.9645,7.854 L261.9645,0.966 Z" id="$35K" fill="#848484" fill-rule="nonzero"></path>
                <path d="M142.444,2.352 C142.247999,2.16299905 142.057251,2.01600052 141.87175,1.911 C141.686249,1.80599948 141.450001,1.7535 141.163,1.7535 C140.840998,1.7535 140.585501,1.84449909 140.3965,2.0265 C140.207499,2.20850091 140.113,2.45349846 140.113,2.7615 C140.113,3.01350126 140.184749,3.21999919 140.32825,3.381 C140.471751,3.54200081 140.651999,3.68374939 140.869,3.80625 C141.086001,3.92875061 141.322249,4.04774942 141.57775,4.16325 C141.833251,4.27875058 142.069499,4.41874918 142.2865,4.58325 C142.503501,4.74775082 142.683749,4.95074879 142.82725,5.19225 C142.970751,5.43375121 143.0425,5.74349811 143.0425,6.1215 C143.0425,6.62550252 142.897251,7.03849839 142.60675,7.3605 C142.316249,7.68250161 141.919003,7.87849965 141.415,7.9485 L141.415,9.009 L140.785,9.009 L140.785,7.9695 C140.448998,7.93449983 140.123502,7.84175075 139.8085,7.69125 C139.493498,7.54074925 139.224001,7.36400101 139,7.161 L139.399,6.5625 C139.623001,6.75850098 139.869749,6.92474932 140.13925,7.06125 C140.408751,7.19775068 140.704498,7.266 141.0265,7.266 C141.418502,7.266 141.710749,7.16800098 141.90325,6.972 C142.095751,6.77599902 142.192,6.51350165 142.192,6.1845 C142.192,5.9044986 142.120251,5.67175093 141.97675,5.48625 C141.833249,5.30074907 141.653001,5.13975068 141.436,5.00325 C141.218999,4.86674932 140.982751,4.7390006 140.72725,4.62 C140.471749,4.50099941 140.235501,4.36450077 140.0185,4.2105 C139.801499,4.05649923 139.621251,3.8692511 139.47775,3.64875 C139.334249,3.4282489 139.2625,3.14650172 139.2625,2.8035 C139.2625,2.33449765 139.400749,1.94425156 139.67725,1.63275 C139.953751,1.32124844 140.322998,1.12700038 140.785,1.05 L140.785,1.42108547e-14 L141.415,1.42108547e-14 L141.415,1.0395 C141.751002,1.07450018 142.036249,1.16549927 142.27075,1.3125 C142.505251,1.45950073 142.716999,1.63449899 142.906,1.8375 L142.444,2.352 Z M144.0625,7.854 L144.0625,7.3395 L144.90922,6.48522015 C145.083939,6.30714057 145.249699,6.13690081 145.4065,5.9745 C145.798502,5.56849797 146.127499,5.19225173 146.3935,4.84575 C146.659501,4.49924827 146.862499,4.18075145 147.0025,3.89025 C147.142501,3.59974855 147.2125,3.31800137 147.2125,3.045 C147.2125,2.65999807 147.107501,2.34500122 146.8975,2.1 C146.687499,1.85499877 146.369002,1.7325 145.942,1.7325 C145.661999,1.7325 145.403001,1.81124921 145.165,1.96875 C144.926999,2.12625079 144.710001,2.31699888 144.514,2.541 L144.0205,2.0475 C144.300501,1.73949846 144.597998,1.49275093 144.913,1.30725 C145.228002,1.12174907 145.605998,1.029 146.047,1.029 C146.670003,1.029 147.159998,1.2092482 147.517,1.56975 C147.874002,1.9302518 148.0525,2.40799703 148.0525,3.003 C148.0525,3.31800157 147.984251,3.63474841 147.84775,3.95325 C147.711249,4.27175159 147.522251,4.6007483 147.28075,4.94025 C147.039249,5.2797517 146.752252,5.63324816 146.41975,6.00075 C146.087248,6.36825184 145.721502,6.75849793 145.3225,7.1715 L145.8895,7.1295 L145.8895,7.1295 C146.085501,7.11549993 146.270999,7.1085 146.446,7.1085 L148.3885,7.1085 L148.3885,7.854 L144.0625,7.854 Z M151.4455,7.98 C150.766497,7.98 150.238002,7.67900301 149.86,7.077 C149.481998,6.47499699 149.293,5.61050563 149.293,4.4835 C149.293,3.35649436 149.481998,2.49900294 149.86,1.911 C150.238002,1.32299706 150.766497,1.029 151.4455,1.029 C152.117503,1.029 152.642498,1.32299706 153.0205,1.911 C153.398502,2.49900294 153.5875,3.35649436 153.5875,4.4835 C153.5875,5.61050563 153.398502,6.47499699 153.0205,7.077 C152.642498,7.67900301 152.117503,7.98 151.4455,7.98 Z M151.4455,7.287 C151.641501,7.287 151.818249,7.23275054 151.97575,7.12425 C152.133251,7.01574946 152.269749,6.84775114 152.38525,6.62025 C152.500751,6.39274886 152.59,6.10225177 152.653,5.74875 C152.716,5.39524823 152.7475,4.97350245 152.7475,4.4835 C152.7475,3.99349755 152.716,3.57350175 152.653,3.2235 C152.59,2.87349825 152.500751,2.5882511 152.38525,2.36775 C152.269749,2.1472489 152.133251,1.98450053 151.97575,1.8795 C151.818249,1.77449947 151.641501,1.722 151.4455,1.722 C151.249499,1.722 151.071001,1.77449947 150.91,1.8795 C150.748999,1.98450053 150.610751,2.1472489 150.49525,2.36775 C150.379749,2.5882511 150.2905,2.87349825 150.2275,3.2235 C150.1645,3.57350175 150.133,3.99349755 150.133,4.4835 C150.133,5.4635049 150.253749,6.17574778 150.49525,6.62025 C150.736751,7.06475222 151.053498,7.287 151.4455,7.287 Z M154.9645,0.966 L155.836,0.966 L155.836,4.4205 L155.8675,4.4205 L158.734,0.966 L159.721,0.966 L157.5685,3.591 L160.057,7.854 L159.0805,7.854 L157.0225,4.2735 L155.836,5.67 L155.836,7.854 L154.9645,7.854 L154.9645,0.966 Z" id="$20K" fill="#848484" fill-rule="nonzero"></path>
                <path d="M178.444,2.352 C178.247999,2.16299905 178.057251,2.01600052 177.87175,1.911 C177.686249,1.80599948 177.450001,1.7535 177.163,1.7535 C176.840998,1.7535 176.585501,1.84449909 176.3965,2.0265 C176.207499,2.20850091 176.113,2.45349846 176.113,2.7615 C176.113,3.01350126 176.184749,3.21999919 176.32825,3.381 C176.471751,3.54200081 176.651999,3.68374939 176.869,3.80625 C177.086001,3.92875061 177.322249,4.04774942 177.57775,4.16325 C177.833251,4.27875058 178.069499,4.41874918 178.2865,4.58325 C178.503501,4.74775082 178.683749,4.95074879 178.82725,5.19225 C178.970751,5.43375121 179.0425,5.74349811 179.0425,6.1215 C179.0425,6.62550252 178.897251,7.03849839 178.60675,7.3605 C178.316249,7.68250161 177.919003,7.87849965 177.415,7.9485 L177.415,9.009 L176.785,9.009 L176.785,7.9695 C176.448998,7.93449983 176.123502,7.84175075 175.8085,7.69125 C175.493498,7.54074925 175.224001,7.36400101 175,7.161 L175.399,6.5625 C175.623001,6.75850098 175.869749,6.92474932 176.13925,7.06125 C176.408751,7.19775068 176.704498,7.266 177.0265,7.266 C177.418502,7.266 177.710749,7.16800098 177.90325,6.972 C178.095751,6.77599902 178.192,6.51350165 178.192,6.1845 C178.192,5.9044986 178.120251,5.67175093 177.97675,5.48625 C177.833249,5.30074907 177.653001,5.13975068 177.436,5.00325 C177.218999,4.86674932 176.982751,4.7390006 176.72725,4.62 C176.471749,4.50099941 176.235501,4.36450077 176.0185,4.2105 C175.801499,4.05649923 175.621251,3.8692511 175.47775,3.64875 C175.334249,3.4282489 175.2625,3.14650172 175.2625,2.8035 C175.2625,2.33449765 175.400749,1.94425156 175.67725,1.63275 C175.953751,1.32124844 176.322998,1.12700038 176.785,1.05 L176.785,1.42108547e-14 L177.415,1.42108547e-14 L177.415,1.0395 C177.751002,1.07450018 178.036249,1.16549927 178.27075,1.3125 C178.505251,1.45950073 178.716999,1.63449899 178.906,1.8375 L178.444,2.352 Z M180.0625,7.854 L180.0625,7.3395 L180.90922,6.48522015 C181.083939,6.30714057 181.249699,6.13690081 181.4065,5.9745 C181.798502,5.56849797 182.127499,5.19225173 182.3935,4.84575 C182.659501,4.49924827 182.862499,4.18075145 183.0025,3.89025 C183.142501,3.59974855 183.2125,3.31800137 183.2125,3.045 C183.2125,2.65999807 183.107501,2.34500122 182.8975,2.1 C182.687499,1.85499877 182.369002,1.7325 181.942,1.7325 C181.661999,1.7325 181.403001,1.81124921 181.165,1.96875 C180.926999,2.12625079 180.710001,2.31699888 180.514,2.541 L180.0205,2.0475 C180.300501,1.73949846 180.597998,1.49275093 180.913,1.30725 C181.228002,1.12174907 181.605998,1.029 182.047,1.029 C182.670003,1.029 183.159998,1.2092482 183.517,1.56975 C183.874002,1.9302518 184.0525,2.40799703 184.0525,3.003 C184.0525,3.31800157 183.984251,3.63474841 183.84775,3.95325 C183.711249,4.27175159 183.522251,4.6007483 183.28075,4.94025 C183.039249,5.2797517 182.752252,5.63324816 182.41975,6.00075 C182.087248,6.36825184 181.721502,6.75849793 181.3225,7.1715 L181.8895,7.1295 L181.8895,7.1295 C182.085501,7.11549993 182.270999,7.1085 182.446,7.1085 L184.3885,7.1085 L184.3885,7.854 L180.0625,7.854 Z M185.5135,6.4995 C185.709501,6.70250102 185.942249,6.88099923 186.21175,7.035 C186.481251,7.18900077 186.811998,7.266 187.204,7.266 C187.407001,7.266 187.597749,7.22925037 187.77625,7.15575 C187.954751,7.08224963 188.110499,6.97900066 188.2435,6.846 C188.376501,6.71299933 188.4815,6.55200094 188.5585,6.363 C188.6355,6.17399906 188.674,5.96400115 188.674,5.733 C188.674,5.27099769 188.544501,4.9105013 188.2855,4.6515 C188.026499,4.3924987 187.680002,4.263 187.246,4.263 C187.014999,4.263 186.817251,4.29799965 186.65275,4.368 C186.488249,4.43800035 186.304501,4.53949934 186.1015,4.6725 L185.6395,4.3785 L185.86,1.155 L189.2095,1.155 L189.2095,1.9005 L186.616,1.9005 L186.4375,3.885 C186.598501,3.80099958 186.759499,3.73450025 186.9205,3.6855 C187.081501,3.63649976 187.263499,3.612 187.4665,3.612 C187.753501,3.612 188.022999,3.65399958 188.275,3.738 C188.527001,3.82200042 188.747499,3.94974914 188.9365,4.12125 C189.125501,4.29275086 189.274249,4.50974869 189.38275,4.77225 C189.491251,5.03475131 189.5455,5.34799818 189.5455,5.712 C189.5455,6.07600182 189.482501,6.3979986 189.3565,6.678 C189.230499,6.9580014 189.062501,7.19424904 188.8525,7.38675 C188.642499,7.57925096 188.402751,7.72624949 188.13325,7.82775 C187.863749,7.92925051 187.582001,7.98 187.288,7.98 C187.021999,7.98 186.778751,7.95375026 186.55825,7.90125 C186.337749,7.84874974 186.138251,7.78050042 185.95975,7.6965 C185.781249,7.61249958 185.620251,7.51625054 185.47675,7.40775 C185.333249,7.29924946 185.205501,7.18550059 185.0935,7.0665 L185.5135,6.4995 Z M190.9645,0.966 L191.836,0.966 L191.836,4.4205 L191.8675,4.4205 L194.734,0.966 L195.721,0.966 L193.5685,3.591 L196.057,7.854 L195.0805,7.854 L193.0225,4.2735 L191.836,5.67 L191.836,7.854 L190.9645,7.854 L190.9645,0.966 Z" id="$25K" fill="#848484" fill-rule="nonzero"></path>
                <path d="M284.444,2.352 C284.247999,2.16299905 284.057251,2.01600052 283.87175,1.911 C283.686249,1.80599948 283.450001,1.7535 283.163,1.7535 C282.840998,1.7535 282.585501,1.84449909 282.3965,2.0265 C282.207499,2.20850091 282.113,2.45349846 282.113,2.7615 C282.113,3.01350126 282.184749,3.21999919 282.32825,3.381 C282.471751,3.54200081 282.651999,3.68374939 282.869,3.80625 C283.086001,3.92875061 283.322249,4.04774942 283.57775,4.16325 C283.833251,4.27875058 284.069499,4.41874918 284.2865,4.58325 C284.503501,4.74775082 284.683749,4.95074879 284.82725,5.19225 C284.970751,5.43375121 285.0425,5.74349811 285.0425,6.1215 C285.0425,6.62550252 284.897251,7.03849839 284.60675,7.3605 C284.316249,7.68250161 283.919003,7.87849965 283.415,7.9485 L283.415,9.009 L282.785,9.009 L282.785,7.9695 C282.448998,7.93449983 282.123502,7.84175075 281.8085,7.69125 C281.493498,7.54074925 281.224001,7.36400101 281,7.161 L281.399,6.5625 C281.623001,6.75850098 281.869749,6.92474932 282.13925,7.06125 C282.408751,7.19775068 282.704498,7.266 283.0265,7.266 C283.418502,7.266 283.710749,7.16800098 283.90325,6.972 C284.095751,6.77599902 284.192,6.51350165 284.192,6.1845 C284.192,5.9044986 284.120251,5.67175093 283.97675,5.48625 C283.833249,5.30074907 283.653001,5.13975068 283.436,5.00325 C283.218999,4.86674932 282.982751,4.7390006 282.72725,4.62 C282.471749,4.50099941 282.235501,4.36450077 282.0185,4.2105 C281.801499,4.05649923 281.621251,3.8692511 281.47775,3.64875 C281.334249,3.4282489 281.2625,3.14650172 281.2625,2.8035 C281.2625,2.33449765 281.400749,1.94425156 281.67725,1.63275 C281.953751,1.32124844 282.322998,1.12700038 282.785,1.05 L282.785,1.42108547e-14 L283.415,1.42108547e-14 L283.415,1.0395 C283.751002,1.07450018 284.036249,1.16549927 284.27075,1.3125 C284.505251,1.45950073 284.716999,1.63449899 284.906,1.8375 L284.444,2.352 Z M286.7345,5.313 L288.8345,5.313 L288.8345,3.3705 C288.8345,3.23399932 288.837453,3.07879723 288.843359,2.90489102 L288.867312,2.37693738 C288.873437,2.26931264 288.88,2.17000045 288.887,2.079 L288.845,2.079 C288.761,2.24000081 288.6735,2.39749923 288.5825,2.5515 L288.299,3.024 L288.299,3.024 L286.7345,5.313 Z M290.567,6.006 L289.6535,6.006 L289.6535,7.854 L288.8345,7.854 L288.8345,6.006 L285.821,6.006 L285.821,5.439 L288.6875,1.155 L289.6535,1.155 L289.6535,5.313 L290.567,5.313 L290.567,6.006 Z M293.4455,7.98 C292.766497,7.98 292.238002,7.67900301 291.86,7.077 C291.481998,6.47499699 291.293,5.61050563 291.293,4.4835 C291.293,3.35649436 291.481998,2.49900294 291.86,1.911 C292.238002,1.32299706 292.766497,1.029 293.4455,1.029 C294.117503,1.029 294.642498,1.32299706 295.0205,1.911 C295.398502,2.49900294 295.5875,3.35649436 295.5875,4.4835 C295.5875,5.61050563 295.398502,6.47499699 295.0205,7.077 C294.642498,7.67900301 294.117503,7.98 293.4455,7.98 Z M293.4455,7.287 C293.641501,7.287 293.818249,7.23275054 293.97575,7.12425 C294.133251,7.01574946 294.269749,6.84775114 294.38525,6.62025 C294.500751,6.39274886 294.59,6.10225177 294.653,5.74875 C294.716,5.39524823 294.7475,4.97350245 294.7475,4.4835 C294.7475,3.99349755 294.716,3.57350175 294.653,3.2235 C294.59,2.87349825 294.500751,2.5882511 294.38525,2.36775 C294.269749,2.1472489 294.133251,1.98450053 293.97575,1.8795 C293.818249,1.77449947 293.641501,1.722 293.4455,1.722 C293.249499,1.722 293.071001,1.77449947 292.91,1.8795 C292.748999,1.98450053 292.610751,2.1472489 292.49525,2.36775 C292.379749,2.5882511 292.2905,2.87349825 292.2275,3.2235 C292.1645,3.57350175 292.133,3.99349755 292.133,4.4835 C292.133,5.4635049 292.253749,6.17574778 292.49525,6.62025 C292.736751,7.06475222 293.053498,7.287 293.4455,7.287 Z M296.9645,0.966 L297.836,0.966 L297.836,4.4205 L297.8675,4.4205 L300.734,0.966 L301.721,0.966 L299.5685,3.591 L302.057,7.854 L301.0805,7.854 L299.0225,4.2735 L297.836,5.67 L297.836,7.854 L296.9645,7.854 L296.9645,0.966 Z" id="$40K" fill="#848484" fill-rule="nonzero"></path>
                <path d="M2.329,41.854 L2.329,15.854 C2.329,15.6468932 2.16110678,15.479 1.954,15.479 C1.74689322,15.479 1.579,15.6468932 1.579,15.854 L1.579,41.854 C1.579,42.0611068 1.74689322,42.229 1.954,42.229 C2.16110678,42.229 2.329,42.0611068 2.329,41.854 Z" id="Stroke-4" fill="#D1D1D1" fill-rule="nonzero"></path>
                <path d="M76.329,41.854 L76.329,15.854 C76.329,15.6468932 76.1611068,15.479 75.954,15.479 C75.7468932,15.479 75.579,15.6468932 75.579,15.854 L75.579,41.854 C75.579,42.0611068 75.7468932,42.229 75.954,42.229 C76.1611068,42.229 76.329,42.0611068 76.329,41.854 Z" id="Stroke-5" fill="#D1D1D1" fill-rule="nonzero"></path>
                <path d="M39.329,41.854 L39.329,15.854 C39.329,15.6468932 39.1611068,15.479 38.954,15.479 C38.7468932,15.479 38.579,15.6468932 38.579,15.854 L38.579,41.854 C38.579,42.0611068 38.7468932,42.229 38.954,42.229 C39.1611068,42.229 39.329,42.0611068 39.329,41.854 Z" id="Stroke-6" fill="#D1D1D1" fill-rule="nonzero"></path>
                <path d="M113.329,41.854 L113.329,15.854 C113.329,15.6468932 113.161107,15.479 112.954,15.479 C112.746893,15.479 112.579,15.6468932 112.579,15.854 L112.579,41.854 C112.579,42.0611068 112.746893,42.229 112.954,42.229 C113.161107,42.229 113.329,42.0611068 113.329,41.854 Z" id="Stroke-7" fill="#D1D1D1" fill-rule="nonzero"></path>
                <path d="M188.329,41.854 L188.329,15.854 C188.329,15.6468932 188.161107,15.479 187.954,15.479 C187.746893,15.479 187.579,15.6468932 187.579,15.854 L187.579,41.854 C187.579,42.0611068 187.746893,42.229 187.954,42.229 C188.161107,42.229 188.329,42.0611068 188.329,41.854 Z" id="Stroke-8" fill="#D1D1D1" fill-rule="nonzero"></path>
                <path d="M262.329,41.854 L262.329,15.854 C262.329,15.6468932 262.161107,15.479 261.954,15.479 C261.746893,15.479 261.579,15.6468932 261.579,15.854 L261.579,41.854 C261.579,42.0611068 261.746893,42.229 261.954,42.229 C262.161107,42.229 262.329,42.0611068 262.329,41.854 Z" id="Stroke-9" fill="#D1D1D1" fill-rule="nonzero"></path>
                <path d="M151.329,41.854 L151.329,15.854 C151.329,15.6468932 151.161107,15.479 150.954,15.479 C150.746893,15.479 150.579,15.6468932 150.579,15.854 L150.579,41.854 C150.579,42.0611068 150.746893,42.229 150.954,42.229 C151.161107,42.229 151.329,42.0611068 151.329,41.854 Z" id="Stroke-10" fill="#D1D1D1" fill-rule="nonzero"></path>
                <path d="M225.329,41.854 L225.329,15.854 C225.329,15.6468932 225.161107,15.479 224.954,15.479 C224.746893,15.479 224.579,15.6468932 224.579,15.854 L224.579,41.854 C224.579,42.0611068 224.746893,42.229 224.954,42.229 C225.161107,42.229 225.329,42.0611068 225.329,41.854 Z" id="Stroke-11" fill="#D1D1D1" fill-rule="nonzero"></path>
                <path d="M299.329,41.854 L299.329,15.854 C299.329,15.6468932 299.161107,15.479 298.954,15.479 C298.746893,15.479 298.579,15.6468932 298.579,15.854 L298.579,41.854 C298.579,42.0611068 298.746893,42.229 298.954,42.229 C299.161107,42.229 299.329,42.0611068 299.329,41.854 Z" id="Stroke-12" fill="#D1D1D1" fill-rule="nonzero"></path>
                <path d="M280.628603,37.854 L47.2793968,37.854 C45.1754286,37.854 43.454,36.1909565 43.454,34.1583478 L43.454,24.5496522 C43.454,22.5170435 45.1754286,20.854 47.2793968,20.854 L280.628603,20.854 C282.732571,20.854 284.454,22.5170435 284.454,24.5496522 L284.454,34.1583478 C284.454,36.1909565 282.732571,37.854 280.628603,37.854" id="Fill-16" fill="#DDD0EA"></path>
                <rect id="Rectangle" fill="#2F1868" x="49.454" y="18.854" width="179" height="20" rx="3"></rect>
                <g id="Group" transform="translate(75.454000, 19.854000)">
                    <text id="CLUSTER-MEDIAN:-$17," font-family="SourceSansPro-Semibold, Source Sans Pro" font-size="10.5" font-weight="500" letter-spacing="-0.0149999997" fill="#2F1868">
                        <tspan x="0" y="46.7709656">C</tspan>
                        <tspan x="6.033" y="46.7709656" letter-spacing="-0.361499995">L</tspan>
                        <tspan x="10.596" y="46.7709656" letter-spacing="-0.119999997">U</tspan>
                        <tspan x="17.2485" y="46.7709656" letter-spacing="-0.225000009">S</tspan>
                        <tspan x="22.536" y="46.7709656">TER MEDIAN: $17,495 </tspan>
                    </text>
                    <path d="M58.13925,25.6866701 C57.3555,26.4704201 55.806,26.8439201 54.7305,26.8746701 C56.17425,25.7999201 57.4335,24.4041701 58.13925,22.7144201 C58.815,24.4041701 60.15075,25.7384201 61.548,26.8746701 C60.39675,26.7824201 58.99875,26.5011701 58.13925,25.6866701" id="Fill-14" fill="#636363"></path>
                    <text id="$" font-family="SourceSansPro-Bold, Source Sans Pro" font-size="13.5" font-weight="bold" fill="#FFFFFF">
                        <tspan x="54.024525" y="13">$</tspan>
                    </text>
                    <line x1="58.13925" y1="38.4644951" x2="58.13925" y2="25.3852451" id="Stroke-13" stroke="#636363" stroke-width="1.5" stroke-linecap="round"></line>
                </g>
            </g>
        </g>
    </g>
</svg>