<?xml version="1.0" encoding="UTF-8"?>
<svg width="253px" height="224px" viewBox="0 0 253 224" version="1.1" xmlns="http://www.w3.org/2000/svg" xmlns:xlink="http://www.w3.org/1999/xlink">
    <!-- Generator: Sketch 59.1 (86144) - https://sketch.com -->
    <title>People</title>
    <desc>Created with Sketch.</desc>
    <defs>
        <polygon id="path-1" points="0.268575 0.246 54.169575 0.246 54.169575 54.147825 0.268575 54.147825"></polygon>
        <polyline id="path-3" points="1.0815 0.495 0 158.25 194.1735 158.25 195.25425 0.495"></polyline>
        <polyline id="path-5" points="1.0815 0.495 0 158.25 194.1735 158.25 195.25425 0.495"></polyline>
        <polyline id="path-7" points="1.0815 0.495 0 158.25 194.1735 158.25 195.25425 0.495"></polyline>
        <polygon id="path-9" points="1.0815 0.495 0 158.25 194.1735 158.25 195.25425 0.495"></polygon>
        <polyline id="path-11" points="1.0815 0.495 0 158.25 194.1735 158.25 195.25425 0.495"></polyline>
        <polyline id="path-13" points="1.0815 0.495 0 158.25 194.1735 158.25 195.25425 0.495"></polyline>
    </defs>
    <g id="Export-Outlined-SVG" stroke="none" stroke-width="1" fill="none" fill-rule="evenodd">
        <g id="4" transform="translate(-254.000000, -936.000000)">
            <g id="People" transform="translate(249.000000, 936.000000)">
                <path d="M178,69 C178,80.5983703 168.597452,90 157.000375,90 C145.401798,90 136,80.5983703 136,69 C136,57.4031307 145.401798,48 157.000375,48 C168.597452,48 178,57.4031307 178,69" id="Fill-1" fill="#2F1868"></path>
                <path d="M177.499127,91 L163.607909,91 L149.384612,91 L135.493393,91 C129.771764,91 125.089003,95.8119 125,101.727089 C130.647585,104.765632 134.512115,110.850212 134.512115,117.849203 C134.512115,117.849203 135.162062,162.190637 135.493393,162.190637 L135.493393,210.10352 C135.493393,216.096659 140.218786,221 145.993518,221 C151.769746,221 156.495886,216.096659 156.495886,210.10352 C156.495886,216.096659 161.222027,221 166.996759,221 C172.772987,221 177.499127,216.096659 177.499127,210.10352 L177.499127,162.190637 C183.274607,162.190637 188,157.287296 188,151.295656 L188,101.894981 C188,95.9040906 183.274607,91 177.499127,91" id="Fill-3" fill="#2F1868"></path>
                <path d="M59,69 C59,80.5983703 49.5976198,90 38,90 C26.4023802,90 17,80.5983703 17,69 C17,57.4031307 26.4023802,48 38,48 C49.5976198,48 59,57.4031307 59,69" id="Fill-5" fill="#2F1868"></path>
                <path d="M58.5915193,117.849203 C58.5915193,109.618006 61.6861957,102.651993 69,100.416933 C68.2973114,95.1185967 63.8923981,91 58.5915193,91 L44.6778363,91 L30.4315374,91 L16.5171052,91 C10.7322853,91 6,95.9040906 6,101.894981 L6,151.295656 C6,157.287296 10.7322853,162.190637 16.5171052,162.190637 L16.5171052,210.10352 C16.5171052,216.096659 21.251638,221 27.0357088,221 C32.8212778,221 37.5543123,216.096659 37.5543123,210.10352 C37.5543123,216.096659 42.2880959,221 48.0729158,221 C53.8577357,221 58.5915193,216.096659 58.5915193,210.10352 L58.5915193,190.164865 L58.5915193,117.849203 Z" id="Fill-7" fill="#2F1868"></path>
                <path d="M122.500374,56 L104.642625,56 L86.3573746,56 L68.4996257,56 C61.074869,56 55,62.297841 55,69.9962019 L55,133.456697 C55,141.153558 61.074869,147.452149 68.4996257,147.452149 L68.4996257,209.003048 C68.4996257,216.702159 74.5744946,223 81.9992513,223 C89.4255054,223 95.5003743,216.702159 95.5003743,209.003048 C95.5003743,216.702159 101.575243,223 109.000749,223 C116.425505,223 122.500374,216.702159 122.500374,209.003048 L122.500374,147.452149 C129.925131,147.452149 136,141.153558 136,133.456697 L136,69.9962019 C136,62.297841 129.925131,56 122.500374,56" id="Fill-9" fill="#2F1868"></path>
                <g id="Group-13" transform="translate(68.000000, 0.000000)">
                    <mask id="mask-2" fill="white">
                        <use xlink:href="#path-1"></use>
                    </mask>
                    <g id="Clip-12"></g>
                    <path d="M54.169575,27.197325 C54.169575,42.081825 42.102825,54.147825 27.218325,54.147825 C12.334575,54.147825 0.268575,42.081825 0.268575,27.197325 C0.268575,12.312825 12.334575,0.245325 27.218325,0.245325 C42.102825,0.245325 54.169575,12.312825 54.169575,27.197325" id="Fill-11" fill="#2F1868" mask="url(#mask-2)"></path>
                </g>
                <path d="M252.0515,96.456 L252.0515,103.896 C252.0515,104.056001 252.0795,104.168 252.1355,104.232 C252.1915,104.296 252.2555,104.328 252.3275,104.328 L252.4175,104.328 C252.4455,104.328 252.4875,104.32 252.5435,104.304 L252.6755,105.048 C252.6115,105.08 252.5355,105.104 252.4475,105.12 C252.3595,105.136 252.247501,105.144 252.1115,105.144 C251.735498,105.144 251.467501,105.032001 251.3075,104.808 C251.147499,104.583999 251.0675,104.256002 251.0675,103.824 L251.0675,96.456 L252.0515,96.456 Z M255.779,99.024 C256.147002,99.024 256.484998,99.0879994 256.793,99.216 C257.101002,99.3440006 257.366999,99.4999991 257.591,99.684 L257.123,100.308 C256.922999,100.155999 256.715001,100.032 256.499,99.936 C256.282999,99.8399995 256.047001,99.792 255.791,99.792 C255.422998,99.792 255.153001,99.8759992 254.981,100.044 C254.808999,100.212001 254.723,100.407999 254.723,100.632 C254.723,100.768001 254.759,100.885999 254.831,100.986 C254.903,101.086 254.998999,101.174 255.119,101.25 C255.239001,101.326 255.376999,101.394 255.533,101.454 L256.019,101.64 C256.227001,101.72 256.436999,101.804 256.649,101.892 C256.861001,101.98 257.050999,102.089999 257.219,102.222 C257.387001,102.354001 257.524999,102.515999 257.633,102.708 C257.741001,102.900001 257.795,103.131999 257.795,103.404 C257.795,103.644001 257.749,103.867999 257.657,104.076 C257.565,104.284001 257.429001,104.467999 257.249,104.628 C257.068999,104.788001 256.845001,104.914 256.577,105.006 C256.308999,105.098 256.003002,105.144 255.659,105.144 C255.242998,105.144 254.847002,105.068001 254.471,104.916 C254.094998,104.763999 253.767001,104.572001 253.487,104.34 L253.979,103.68 C254.235001,103.888001 254.496999,104.055999 254.765,104.184 C255.033001,104.312001 255.342998,104.376 255.695,104.376 C256.079002,104.376 256.366999,104.288001 256.559,104.112 C256.751001,103.935999 256.847,103.720001 256.847,103.464 C256.847,103.311999 256.807,103.180001 256.727,103.068 C256.647,102.955999 256.545001,102.858 256.421,102.774 C256.296999,102.69 256.155001,102.616 255.995,102.552 L255.515,102.36 C255.306999,102.288 255.099001,102.206 254.891,102.114 C254.682999,102.022 254.497001,101.910001 254.333,101.778 C254.168999,101.645999 254.035001,101.492001 253.931,101.316 C253.826999,101.139999 253.775,100.928001 253.775,100.68 C253.775,100.447999 253.821,100.230001 253.913,100.026 C254.005,99.821999 254.136999,99.6460007 254.309,99.498 C254.481001,99.3499993 254.690999,99.2340004 254.939,99.15 C255.187001,99.0659996 255.466998,99.024 255.779,99.024 Z M239.2925,99.168 L239.2925,102.732 C239.2925,103.284003 239.378499,103.681999 239.5505,103.926 C239.722501,104.170001 240.000498,104.292 240.3845,104.292 C240.688502,104.292 240.956499,104.214001 241.1885,104.058 C241.420501,103.901999 241.676499,103.652002 241.9565,103.308 L241.9565,99.168 L242.9405,99.168 L242.9405,105 L242.1245,105 L242.0405,104.088 L242.0045,104.088 C241.732499,104.408002 241.446501,104.663999 241.1465,104.856 C240.846498,105.048001 240.492502,105.144 240.0845,105.144 C239.460497,105.144 239.006501,104.952002 238.7225,104.568 C238.438499,104.183998 238.2965,103.616004 238.2965,102.864 L238.2965,99.168 L239.2925,99.168 Z M218.207,96.456 L218.207,105 L217.391,105 L217.307,104.316 L217.271,104.316 C217.038999,104.540001 216.773001,104.733999 216.473,104.898 C216.172998,105.062001 215.851002,105.144 215.507,105.144 C214.770996,105.144 214.185002,104.880003 213.749,104.352 C213.312998,103.823997 213.095,103.072005 213.095,102.096 C213.095,101.623998 213.164999,101.198002 213.305,100.818 C213.445001,100.437998 213.630999,100.116001 213.863,99.852 C214.095,99.5879987 214.362998,99.3840007 214.667,99.24 C214.971002,99.0959993 215.290998,99.024 215.627,99.024 C215.963002,99.024 216.254999,99.0839994 216.503,99.204 C216.751001,99.3240006 217.002999,99.487999 217.259,99.696 L217.211,98.7 L217.211,96.456 L218.207,96.456 Z M236.405,96.456 L236.405,105 L235.589,105 L235.505,104.316 L235.469,104.316 C235.236999,104.540001 234.971001,104.733999 234.671,104.898 C234.370998,105.062001 234.049002,105.144 233.705,105.144 C232.968996,105.144 232.383002,104.880003 231.947,104.352 C231.510998,103.823997 231.293,103.072005 231.293,102.096 C231.293,101.623998 231.362999,101.198002 231.503,100.818 C231.643001,100.437998 231.828999,100.116001 232.061,99.852 C232.293,99.5879987 232.560998,99.3840007 232.865,99.24 C233.169002,99.0959993 233.488998,99.024 233.825,99.024 C234.161002,99.024 234.452999,99.0839994 234.701,99.204 C234.949001,99.3240006 235.200999,99.487999 235.457,99.696 L235.409,98.7 L235.409,96.456 L236.405,96.456 Z M247.172,99.024 C247.884004,99.024 248.399998,99.2419978 248.72,99.678 C249.040002,100.114002 249.2,100.695996 249.2,101.424 L249.2,105 L248.384,105 L248.3,104.304 L248.276,104.304 C247.995999,104.536001 247.694002,104.733999 247.37,104.898 C247.045998,105.062001 246.704002,105.144 246.344,105.144 C245.847998,105.144 245.438002,105.000001 245.114,104.712 C244.789998,104.423999 244.628,104.016003 244.628,103.488 C244.628,102.847997 244.913997,102.358002 245.486,102.018 C246.058003,101.677998 246.967994,101.440001 248.216,101.304 C248.216,101.119999 248.198,100.940001 248.162,100.764 C248.126,100.587999 248.062,100.432001 247.97,100.296 C247.878,100.159999 247.756001,100.05 247.604,99.966 C247.451999,99.8819996 247.256001,99.84 247.016,99.84 C246.671998,99.84 246.354001,99.9039994 246.062,100.032 C245.769999,100.160001 245.508001,100.303999 245.276,100.464 L244.88,99.78 C245.152001,99.6039991 245.483998,99.4340008 245.876,99.27 C246.268002,99.1059992 246.699998,99.024 247.172,99.024 Z M209.8355,99.024 C210.451503,99.024 210.901499,99.2159981 211.1855,99.6 C211.469501,99.9840019 211.6115,100.551996 211.6115,101.304 L211.6115,105 L210.6275,105 L210.6275,101.436 C210.6275,100.883997 210.539501,100.486001 210.3635,100.242 C210.187499,99.9979988 209.907502,99.876 209.5235,99.876 C209.219498,99.876 208.951501,99.9519992 208.7195,100.104 C208.487499,100.256001 208.223501,100.479999 207.9275,100.776 L207.9275,105 L206.9435,105 L206.9435,99.168 L207.7595,99.168 L207.8435,100.008 L207.8795,100.008 C208.159501,99.7279986 208.453498,99.4940009 208.7615,99.306 C209.069502,99.1179991 209.427498,99.024 209.8355,99.024 Z M221.1665,99.168 L221.1665,105 L220.1825,105 L220.1825,99.168 L221.1665,99.168 Z M204.968,99.168 L204.968,105 L203.984,105 L203.984,99.168 L204.968,99.168 Z M229.7375,99.168 L229.7375,105 L228.7535,105 L228.7535,99.168 L229.7375,99.168 Z M223.322,99.168 L224.426,102.48 L224.696,103.344 L224.966,104.196 L225.014,104.196 L225.278,103.344 L225.542,102.48 L226.646,99.168 L227.618,99.168 L225.554,105 L224.402,105 L222.302,99.168 L223.322,99.168 Z M248.216,101.952 C247.727998,102.016 247.316002,102.092 246.98,102.18 C246.643998,102.268 246.374001,102.371999 246.17,102.492 C245.965999,102.612001 245.82,102.749999 245.732,102.906 C245.644,103.062001 245.6,103.231999 245.6,103.416 C245.6,103.752002 245.697999,103.991999 245.894,104.136 C246.090001,104.280001 246.331999,104.352 246.62,104.352 C246.900001,104.352 247.165999,104.286001 247.418,104.154 C247.670001,104.021999 247.935999,103.828001 248.216,103.572 L248.216,101.952 Z M233.993,99.852 C233.760999,99.852 233.543001,99.9059995 233.339,100.014 C233.134999,100.122001 232.957001,100.273999 232.805,100.47 C232.652999,100.666001 232.533,100.899999 232.445,101.172 C232.357,101.444001 232.313,101.747998 232.313,102.084 C232.313,102.788004 232.452999,103.335998 232.733,103.728 C233.013001,104.120002 233.408997,104.316 233.921,104.316 C234.193001,104.316 234.448999,104.250001 234.689,104.118 C234.929001,103.985999 235.168999,103.784001 235.409,103.512 L235.409,100.464 C235.160999,100.239999 234.923001,100.082 234.695,99.99 C234.466999,99.8979995 234.233001,99.852 233.993,99.852 Z M215.795,99.852 C215.562999,99.852 215.345001,99.9059995 215.141,100.014 C214.936999,100.122001 214.759001,100.273999 214.607,100.47 C214.454999,100.666001 214.335,100.899999 214.247,101.172 C214.159,101.444001 214.115,101.747998 214.115,102.084 C214.115,102.788004 214.254999,103.335998 214.535,103.728 C214.815001,104.120002 215.210997,104.316 215.723,104.316 C215.995001,104.316 216.250999,104.250001 216.491,104.118 C216.731001,103.985999 216.970999,103.784001 217.211,103.512 L217.211,100.464 C216.962999,100.239999 216.725001,100.082 216.497,99.99 C216.268999,99.8979995 216.035001,99.852 215.795,99.852 Z M204.488,96.696 C204.680001,96.696 204.841999,96.7539994 204.974,96.87 C205.106001,96.9860006 205.172,97.139999 205.172,97.332 C205.172,97.5160009 205.106001,97.6679994 204.974,97.788 C204.841999,97.9080006 204.680001,97.968 204.488,97.968 C204.295999,97.968 204.134001,97.9080006 204.002,97.788 C203.869999,97.6679994 203.804,97.5160009 203.804,97.332 C203.804,97.139999 203.869999,96.9860006 204.002,96.87 C204.134001,96.7539994 204.295999,96.696 204.488,96.696 Z M229.2575,96.696 C229.449501,96.696 229.611499,96.7539994 229.7435,96.87 C229.875501,96.9860006 229.9415,97.139999 229.9415,97.332 C229.9415,97.5160009 229.875501,97.6679994 229.7435,97.788 C229.611499,97.9080006 229.449501,97.968 229.2575,97.968 C229.065499,97.968 228.903501,97.9080006 228.7715,97.788 C228.639499,97.6679994 228.5735,97.5160009 228.5735,97.332 C228.5735,97.139999 228.639499,96.9860006 228.7715,96.87 C228.903501,96.7539994 229.065499,96.696 229.2575,96.696 Z M220.6865,96.696 C220.878501,96.696 221.040499,96.7539994 221.1725,96.87 C221.304501,96.9860006 221.3705,97.139999 221.3705,97.332 C221.3705,97.5160009 221.304501,97.6679994 221.1725,97.788 C221.040499,97.9080006 220.878501,97.968 220.6865,97.968 C220.494499,97.968 220.332501,97.9080006 220.2005,97.788 C220.068499,97.6679994 220.0025,97.5160009 220.0025,97.332 C220.0025,97.139999 220.068499,96.9860006 220.2005,96.87 C220.332501,96.7539994 220.494499,96.696 220.6865,96.696 Z M222.383,82.984 L218.039,91.144 L217.367,91.144 L221.711,82.984 L222.383,82.984 Z M222.635,86.176 C223.171003,86.176 223.602998,86.3899979 223.931,86.818 C224.259002,87.2460021 224.423,87.855996 224.423,88.648 C224.423,89.448004 224.259002,90.0639978 223.931,90.496 C223.602998,90.9280022 223.171003,91.144 222.635,91.144 C222.090997,91.144 221.657002,90.9280022 221.333,90.496 C221.008998,90.0639978 220.847,89.448004 220.847,88.648 C220.847,87.855996 221.008998,87.2460021 221.333,86.818 C221.657002,86.3899979 222.090997,86.176 222.635,86.176 Z M230.51,85.024 C231.222004,85.024 231.737998,85.2419978 232.058,85.678 C232.378002,86.1140022 232.538,86.6959964 232.538,87.424 L232.538,91 L231.722,91 L231.638,90.304 L231.614,90.304 C231.333999,90.5360012 231.032002,90.7339992 230.708,90.898 C230.383998,91.0620008 230.042002,91.144 229.682,91.144 C229.185998,91.144 228.776002,91.0000014 228.452,90.712 C228.127998,90.4239986 227.966,90.0160026 227.966,89.488 C227.966,88.8479968 228.251997,88.3580017 228.824,88.018 C229.396003,87.6779983 230.305994,87.4400007 231.554,87.304 C231.554,87.1199991 231.536,86.9400009 231.5,86.764 C231.464,86.5879991 231.4,86.4320007 231.308,86.296 C231.216,86.1599993 231.094001,86.0500004 230.942,85.966 C230.789999,85.8819996 230.594001,85.84 230.354,85.84 C230.009998,85.84 229.692001,85.9039994 229.4,86.032 C229.107999,86.1600006 228.846001,86.3039992 228.614,86.464 L228.218,85.78 C228.490001,85.6039991 228.821998,85.4340008 229.214,85.27 C229.606002,85.1059992 230.037998,85.024 230.51,85.024 Z M240.521,85.024 C240.889002,85.024 241.218999,85.0879994 241.511,85.216 C241.803001,85.3440006 242.046999,85.5279988 242.243,85.768 C242.439001,86.0080012 242.588999,86.2959983 242.693,86.632 C242.797001,86.9680017 242.849,87.3439979 242.849,87.76 C242.849,87.9760011 242.837,88.1559993 242.813,88.3 L238.877,88.3 C238.917,88.9320032 239.110998,89.4319982 239.459,89.8 C239.807002,90.1680018 240.260997,90.352 240.821,90.352 C241.101001,90.352 241.358999,90.3100004 241.595,90.226 C241.831001,90.1419996 242.056999,90.0320007 242.273,89.896 L242.621,90.544 C242.364999,90.7040008 242.081002,90.8439994 241.769,90.964 C241.456998,91.0840006 241.101002,91.144 240.701,91.144 C240.308998,91.144 239.943002,91.0740007 239.603,90.934 C239.262998,90.7939993 238.967001,90.5940013 238.715,90.334 C238.462999,90.0739987 238.265001,89.7560019 238.121,89.38 C237.976999,89.0039981 237.905,88.5760024 237.905,88.096 C237.905,87.6159976 237.978999,87.1860019 238.127,86.806 C238.275001,86.4259981 238.470999,86.1040013 238.715,85.84 C238.959001,85.5759987 239.236998,85.3740007 239.549,85.234 C239.861002,85.0939993 240.184998,85.024 240.521,85.024 Z M236.9975,85.024 C237.229501,85.024 237.437499,85.0639996 237.6215,85.144 L237.4295,86.008 C237.3335,85.9759998 237.2455,85.9520001 237.1655,85.936 C237.0855,85.9199999 236.985501,85.912 236.8655,85.912 C236.617499,85.912 236.359501,86.011999 236.0915,86.212 C235.823499,86.412001 235.589501,86.7599975 235.3895,87.256 L235.3895,91 L234.4055,91 L234.4055,85.168 L235.2215,85.168 L235.3055,86.224 L235.3415,86.224 C235.541501,85.8559982 235.783499,85.5640011 236.0675,85.348 C236.351501,85.1319989 236.661498,85.024 236.9975,85.024 Z M213.5555,83.344 L213.5555,88.096 L214.5995,88.096 L214.5995,88.888 L213.5555,88.888 L213.5555,91 L212.6195,91 L212.6195,88.888 L209.1755,88.888 L209.1755,88.24 L212.4515,83.344 L213.5555,83.344 Z M208.46,83.344 L208.46,83.956 C208.003998,84.5320029 207.634001,85.0839974 207.35,85.612 C207.065999,86.1400026 206.840001,86.6779973 206.672,87.226 C206.503999,87.7740027 206.382,88.3539969 206.306,88.966 C206.23,89.5780031 206.176,90.2559963 206.144,91 L205.124,91 C205.156,90.2799964 205.22,89.620003 205.316,89.02 C205.412,88.419997 205.545999,87.8500027 205.718,87.31 C205.890001,86.7699973 206.109999,86.2480025 206.378,85.744 C206.646001,85.2399975 206.967998,84.7240026 207.344,84.196 L203.528,84.196 L203.528,83.344 L208.46,83.344 Z M222.635,86.788 C222.322998,86.788 222.071001,86.9419985 221.879,87.25 C221.686999,87.5580015 221.591,88.0239969 221.591,88.648 C221.591,89.2720031 221.686999,89.7419984 221.879,90.058 C222.071001,90.3740016 222.322998,90.532 222.635,90.532 C222.939002,90.532 223.186999,90.3740016 223.379,90.058 C223.571001,89.7419984 223.667,89.2720031 223.667,88.648 C223.667,88.0239969 223.571001,87.5580015 223.379,87.25 C223.186999,86.9419985 222.939002,86.788 222.635,86.788 Z M231.554,87.952 C231.065998,88.0160003 230.654002,88.0919996 230.318,88.18 C229.981998,88.2680004 229.712001,88.3719994 229.508,88.492 C229.303999,88.6120006 229.158,88.7499992 229.07,88.906 C228.982,89.0620008 228.938,89.2319991 228.938,89.416 C228.938,89.7520017 229.035999,89.9919993 229.232,90.136 C229.428001,90.2800007 229.669999,90.352 229.958,90.352 C230.238001,90.352 230.503999,90.2860007 230.756,90.154 C231.008001,90.0219993 231.273999,89.8280013 231.554,89.572 L231.554,87.952 Z M212.6795,84.4 L212.6315,84.4 C212.5355,84.5840009 212.435501,84.7639991 212.3315,84.94 L212.0075,85.48 L210.2195,88.096 L212.6195,88.096 L212.6195,85.876 C212.6195,85.7199992 212.622875,85.5426254 212.629625,85.3438755 L212.657,84.7404999 C212.664,84.6175002 212.6715,84.5040005 212.6795,84.4 Z M217.151,82.984 C217.687003,82.984 218.118998,83.1979979 218.447,83.626 C218.775002,84.0540021 218.939,84.663996 218.939,85.456 C218.939,86.256004 218.775002,86.8719978 218.447,87.304 C218.118998,87.7360022 217.687003,87.952 217.151,87.952 C216.606997,87.952 216.173002,87.7360022 215.849,87.304 C215.524998,86.8719978 215.363,86.256004 215.363,85.456 C215.363,84.663996 215.524998,84.0540021 215.849,83.626 C216.173002,83.1979979 216.606997,82.984 217.151,82.984 Z M240.545,85.804 C240.336999,85.804 240.139001,85.8459996 239.951,85.93 C239.762999,86.0140004 239.593001,86.1339992 239.441,86.29 C239.288999,86.4460008 239.163,86.6379989 239.063,86.866 C238.962999,87.0940011 238.897,87.3559985 238.865,87.652 L238.865,87.652 L241.985,87.652 C241.985,87.051997 241.859001,86.5940016 241.607,86.278 C241.354999,85.9619984 241.001002,85.804 240.545,85.804 Z M217.151,83.596 C216.838998,83.596 216.587001,83.7499985 216.395,84.058 C216.202999,84.3660015 216.107,84.8319969 216.107,85.456 C216.107,86.0800031 216.202999,86.5499984 216.395,86.866 C216.587001,87.1820016 216.838998,87.34 217.151,87.34 C217.455002,87.34 217.702999,87.1820016 217.895,86.866 C218.087001,86.5499984 218.183,86.0800031 218.183,85.456 C218.183,84.8319969 218.087001,84.3660015 217.895,84.058 C217.702999,83.7499985 217.455002,83.596 217.151,83.596 Z M251.675,62.024 C252.043002,62.024 252.380998,62.0879994 252.689,62.216 C252.997002,62.3440006 253.262999,62.4999991 253.487,62.684 L253.019,63.308 C252.818999,63.1559992 252.611001,63.0320005 252.395,62.936 C252.178999,62.8399995 251.943001,62.792 251.687,62.792 C251.318998,62.792 251.049001,62.8759992 250.877,63.044 C250.704999,63.2120008 250.619,63.4079989 250.619,63.632 C250.619,63.7680007 250.655,63.8859995 250.727,63.986 C250.799,64.0860005 250.894999,64.1739996 251.015,64.25 C251.135001,64.3260004 251.272999,64.3939997 251.429,64.454 L251.915,64.64 C252.123001,64.7200004 252.332999,64.8039996 252.545,64.892 C252.757001,64.9800004 252.946999,65.0899993 253.115,65.222 C253.283001,65.3540007 253.420999,65.515999 253.529,65.708 C253.637001,65.900001 253.691,66.1319986 253.691,66.404 C253.691,66.6440012 253.645,66.867999 253.553,67.076 C253.461,67.284001 253.325001,67.4679992 253.145,67.628 C252.964999,67.7880008 252.741001,67.9139995 252.473,68.006 C252.204999,68.0980005 251.899002,68.144 251.555,68.144 C251.138998,68.144 250.743002,68.0680008 250.367,67.916 C249.990998,67.7639992 249.663001,67.5720012 249.383,67.34 L249.875,66.68 C250.131001,66.888001 250.392999,67.0559994 250.661,67.184 C250.929001,67.3120006 251.238998,67.376 251.591,67.376 C251.975002,67.376 252.262999,67.2880009 252.455,67.112 C252.647001,66.9359991 252.743,66.7200013 252.743,66.464 C252.743,66.3119992 252.703,66.1800006 252.623,66.068 C252.543,65.9559994 252.441001,65.8580004 252.317,65.774 C252.192999,65.6899996 252.051001,65.6160003 251.891,65.552 L251.411,65.36 C251.202999,65.2879996 250.995001,65.2060005 250.787,65.114 C250.578999,65.0219995 250.393001,64.9100007 250.229,64.778 C250.064999,64.6459993 249.931001,64.4920009 249.827,64.316 C249.722999,64.1399991 249.671,63.9280012 249.671,63.68 C249.671,63.4479988 249.717,63.230001 249.809,63.026 C249.901,62.821999 250.032999,62.6460007 250.205,62.498 C250.377001,62.3499993 250.586999,62.2340004 250.835,62.15 C251.083001,62.0659996 251.362998,62.024 251.675,62.024 Z M246.2555,62.024 C246.623502,62.024 246.953499,62.0879994 247.2455,62.216 C247.537501,62.3440006 247.781499,62.5279988 247.9775,62.768 C248.173501,63.0080012 248.323499,63.2959983 248.4275,63.632 C248.531501,63.9680017 248.5835,64.3439979 248.5835,64.76 C248.5835,64.9760011 248.5715,65.1559993 248.5475,65.3 L244.6115,65.3 C244.6515,65.9320032 244.845498,66.4319982 245.1935,66.8 C245.541502,67.1680018 245.995497,67.352 246.5555,67.352 C246.835501,67.352 247.093499,67.3100004 247.3295,67.226 C247.565501,67.1419996 247.791499,67.0320007 248.0075,66.896 L248.3555,67.544 C248.099499,67.7040008 247.815502,67.8439994 247.5035,67.964 C247.191498,68.0840006 246.835502,68.144 246.4355,68.144 C246.043498,68.144 245.677502,68.0740007 245.3375,67.934 C244.997498,67.7939993 244.701501,67.5940013 244.4495,67.334 C244.197499,67.0739987 243.999501,66.7560019 243.8555,66.38 C243.711499,66.0039981 243.6395,65.5760024 243.6395,65.096 C243.6395,64.6159976 243.713499,64.1860019 243.8615,63.806 C244.009501,63.4259981 244.205499,63.1040013 244.4495,62.84 C244.693501,62.5759987 244.971498,62.3740007 245.2835,62.234 C245.595502,62.0939993 245.919498,62.024 246.2555,62.024 Z M221.234,62.024 C221.946004,62.024 222.461998,62.2419978 222.782,62.678 C223.102002,63.1140022 223.262,63.6959964 223.262,64.424 L223.262,68 L222.446,68 L222.362,67.304 L222.338,67.304 C222.057999,67.5360012 221.756002,67.7339992 221.432,67.898 C221.107998,68.0620008 220.766002,68.144 220.406,68.144 C219.909998,68.144 219.500002,68.0000014 219.176,67.712 C218.851998,67.4239986 218.69,67.0160026 218.69,66.488 C218.69,65.8479968 218.975997,65.3580017 219.548,65.018 C220.120003,64.6779983 221.029994,64.4400007 222.278,64.304 C222.278,64.1199991 222.26,63.9400009 222.224,63.764 C222.188,63.5879991 222.124,63.4320007 222.032,63.296 C221.94,63.1599993 221.818001,63.0500004 221.666,62.966 C221.513999,62.8819996 221.318001,62.84 221.078,62.84 C220.733998,62.84 220.416001,62.9039994 220.124,63.032 C219.831999,63.1600006 219.570001,63.3039992 219.338,63.464 L218.942,62.78 C219.214001,62.6039991 219.545998,62.4340008 219.938,62.27 C220.330002,62.1059992 220.761998,62.024 221.234,62.024 Z M239.0285,59.456 L239.0285,66.896 C239.0285,67.0560008 239.0565,67.1679997 239.1125,67.232 C239.1685,67.2960003 239.2325,67.328 239.3045,67.328 L239.3945,67.328 C239.4225,67.328 239.4645,67.3200001 239.5205,67.304 L239.6525,68.048 C239.5885,68.0800002 239.5125,68.1039999 239.4245,68.12 C239.3365,68.1360001 239.224501,68.144 239.0885,68.144 C238.712498,68.144 238.444501,68.0320011 238.2845,67.808 C238.124499,67.5839989 238.0445,67.2560022 238.0445,66.824 L238.0445,59.456 L239.0285,59.456 Z M242.096,62.168 L242.096,68 L241.112,68 L241.112,62.168 L242.096,62.168 Z M204.968,62.168 L204.968,68 L203.984,68 L203.984,62.168 L204.968,62.168 Z M236.069,62.168 L236.069,68 L235.085,68 L235.085,62.168 L236.069,62.168 Z M217.8185,59.312 C218.002501,59.312 218.176499,59.3299998 218.3405,59.366 C218.504501,59.4020002 218.654499,59.4479997 218.7905,59.504 L218.5745,60.26 C218.358499,60.1639995 218.138501,60.116 217.9145,60.116 C217.370497,60.116 217.0985,60.4919962 217.0985,61.244 L217.0985,62.168 L218.3345,62.168 L218.3345,62.972 L217.0985,62.972 L217.0985,68 L216.1145,68 L216.1145,62.972 L215.3225,62.972 L215.3225,62.228 L216.1145,62.168 L216.1145,61.244 C216.1145,60.643997 216.252499,60.1720017 216.5285,59.828 C216.804501,59.4839983 217.234497,59.312 217.8185,59.312 Z M209.8355,62.024 C210.451503,62.024 210.901499,62.2159981 211.1855,62.6 C211.469501,62.9840019 211.6115,63.5519962 211.6115,64.304 L211.6115,68 L210.6275,68 L210.6275,64.436 C210.6275,63.8839972 210.539501,63.4860012 210.3635,63.242 C210.187499,62.9979988 209.907502,62.876 209.5235,62.876 C209.219498,62.876 208.951501,62.9519992 208.7195,63.104 C208.487499,63.2560008 208.223501,63.4799985 207.9275,63.776 L207.9275,68 L206.9435,68 L206.9435,62.168 L207.7595,62.168 L207.8435,63.008 L207.8795,63.008 C208.159501,62.7279986 208.453498,62.4940009 208.7615,62.306 C209.069502,62.1179991 209.427498,62.024 209.8355,62.024 Z M231.4055,62.024 C232.005503,62.024 232.451499,62.2159981 232.7435,62.6 C233.035501,62.9840019 233.1815,63.5519962 233.1815,64.304 L233.1815,68 L232.1975,68 L232.1975,64.436 C232.1975,63.8839972 232.109501,63.4860012 231.9335,63.242 C231.757499,62.9979988 231.485502,62.876 231.1175,62.876 C230.677498,62.876 230.189503,63.175997 229.6535,63.776 L229.6535,68 L228.6695,68 L228.6695,64.436 C228.6695,63.8839972 228.581501,63.4860012 228.4055,63.242 C228.229499,62.9979988 227.953502,62.876 227.5775,62.876 C227.137498,62.876 226.649503,63.175997 226.1135,63.776 L226.1135,68 L225.1295,68 L225.1295,62.168 L225.9455,62.168 L226.0295,63.008 L226.0655,63.008 C226.321501,62.7279986 226.599498,62.4940009 226.8995,62.306 C227.199501,62.1179991 227.525498,62.024 227.8775,62.024 C228.325502,62.024 228.675499,62.121999 228.9275,62.318 C229.179501,62.514001 229.365499,62.7879982 229.4855,63.14 C229.789502,62.8039983 230.095498,62.534001 230.4035,62.33 C230.711502,62.125999 231.045498,62.024 231.4055,62.024 Z M222.278,64.952 C221.789998,65.0160003 221.378002,65.0919996 221.042,65.18 C220.705998,65.2680004 220.436001,65.3719994 220.232,65.492 C220.027999,65.6120006 219.882,65.7499992 219.794,65.906 C219.706,66.0620008 219.662,66.2319991 219.662,66.416 C219.662,66.7520017 219.759999,66.9919993 219.956,67.136 C220.152001,67.2800007 220.393999,67.352 220.682,67.352 C220.962001,67.352 221.227999,67.2860007 221.48,67.154 C221.732001,67.0219993 221.997999,66.8280013 222.278,66.572 L222.278,64.952 Z M246.2795,62.804 C246.071499,62.804 245.873501,62.8459996 245.6855,62.93 C245.497499,63.0140004 245.327501,63.1339992 245.1755,63.29 C245.023499,63.4460008 244.8975,63.6379989 244.7975,63.866 C244.697499,64.0940011 244.6315,64.3559985 244.5995,64.652 L247.7195,64.652 C247.7195,64.051997 247.593501,63.5940016 247.3415,63.278 C247.089499,62.9619984 246.735502,62.804 246.2795,62.804 Z M204.488,59.696 C204.680001,59.696 204.841999,59.7539994 204.974,59.87 C205.106001,59.9860006 205.172,60.139999 205.172,60.332 C205.172,60.5160009 205.106001,60.6679994 204.974,60.788 C204.841999,60.9080006 204.680001,60.968 204.488,60.968 C204.295999,60.968 204.134001,60.9080006 204.002,60.788 C203.869999,60.6679994 203.804,60.5160009 203.804,60.332 C203.804,60.139999 203.869999,59.9860006 204.002,59.87 C204.134001,59.7539994 204.295999,59.696 204.488,59.696 Z M235.589,59.696 C235.781001,59.696 235.942999,59.7539994 236.075,59.87 C236.207001,59.9860006 236.273,60.139999 236.273,60.332 C236.273,60.5160009 236.207001,60.6679994 236.075,60.788 C235.942999,60.9080006 235.781001,60.968 235.589,60.968 C235.396999,60.968 235.235001,60.9080006 235.103,60.788 C234.970999,60.6679994 234.905,60.5160009 234.905,60.332 C234.905,60.139999 234.970999,59.9860006 235.103,59.87 C235.235001,59.7539994 235.396999,59.696 235.589,59.696 Z M241.616,59.696 C241.808001,59.696 241.969999,59.7539994 242.102,59.87 C242.234001,59.9860006 242.3,60.139999 242.3,60.332 C242.3,60.5160009 242.234001,60.6679994 242.102,60.788 C241.969999,60.9080006 241.808001,60.968 241.616,60.968 C241.423999,60.968 241.262001,60.9080006 241.13,60.788 C240.997999,60.6679994 240.932,60.5160009 240.932,60.332 C240.932,60.139999 240.997999,59.9860006 241.13,59.87 C241.262001,59.7539994 241.423999,59.696 241.616,59.696 Z M222.635,49.176 C223.171003,49.176 223.602998,49.3899979 223.931,49.818 C224.259002,50.2460021 224.423,50.855996 224.423,51.648 C224.423,52.448004 224.259002,53.0639978 223.931,53.496 C223.602998,53.9280022 223.171003,54.144 222.635,54.144 C222.090997,54.144 221.657002,53.9280022 221.333,53.496 C221.008998,53.0639978 220.847,52.448004 220.847,51.648 C220.847,50.855996 221.008998,50.2460021 221.333,49.818 C221.657002,49.3899979 222.090997,49.176 222.635,49.176 Z M240.521,48.024 C240.889002,48.024 241.218999,48.0879994 241.511,48.216 C241.803001,48.3440006 242.046999,48.5279988 242.243,48.768 C242.439001,49.0080012 242.588999,49.2959983 242.693,49.632 C242.797001,49.9680017 242.849,50.3439979 242.849,50.76 C242.849,50.9760011 242.837,51.1559993 242.813,51.3 L238.877,51.3 C238.917,51.9320032 239.110998,52.4319982 239.459,52.8 C239.807002,53.1680018 240.260997,53.352 240.821,53.352 C241.101001,53.352 241.358999,53.3100004 241.595,53.226 C241.831001,53.1419996 242.056999,53.0320007 242.273,52.896 L242.621,53.544 C242.364999,53.7040008 242.081002,53.8439994 241.769,53.964 C241.456998,54.0840006 241.101002,54.144 240.701,54.144 C240.308998,54.144 239.943002,54.0740007 239.603,53.934 C239.262998,53.7939993 238.967001,53.5940013 238.715,53.334 C238.462999,53.0739987 238.265001,52.7560019 238.121,52.38 C237.976999,52.0039981 237.905,51.5760024 237.905,51.096 C237.905,50.6159976 237.978999,50.1860019 238.127,49.806 C238.275001,49.4259981 238.470999,49.1040013 238.715,48.84 C238.959001,48.5759987 239.236998,48.3740007 239.549,48.234 C239.861002,48.0939993 240.184998,48.024 240.521,48.024 Z M230.51,48.024 C231.222004,48.024 231.737998,48.2419978 232.058,48.678 C232.378002,49.1140022 232.538,49.6959964 232.538,50.424 L232.538,54 L231.722,54 L231.638,53.304 L231.614,53.304 C231.333999,53.5360012 231.032002,53.7339992 230.708,53.898 C230.383998,54.0620008 230.042002,54.144 229.682,54.144 C229.185998,54.144 228.776002,54.0000014 228.452,53.712 C228.127998,53.4239986 227.966,53.0160026 227.966,52.488 C227.966,51.8479968 228.251997,51.3580017 228.824,51.018 C229.396003,50.6779983 230.305994,50.4400007 231.554,50.304 C231.554,50.1199991 231.536,49.9400009 231.5,49.764 C231.464,49.5879991 231.4,49.4320007 231.308,49.296 C231.216,49.1599993 231.094001,49.0500004 230.942,48.966 C230.789999,48.8819996 230.594001,48.84 230.354,48.84 C230.009998,48.84 229.692001,48.9039994 229.4,49.032 C229.107999,49.1600006 228.846001,49.3039992 228.614,49.464 L228.218,48.78 C228.490001,48.6039991 228.821998,48.4340008 229.214,48.27 C229.606002,48.1059992 230.037998,48.024 230.51,48.024 Z M222.383,45.984 L218.039,54.144 L217.367,54.144 L221.711,45.984 L222.383,45.984 Z M212.4635,46.2 C212.879502,46.2 213.237498,46.2779992 213.5375,46.434 C213.837501,46.5900008 214.095499,46.7839988 214.3115,47.016 L213.7595,47.628 C213.599499,47.4439991 213.409501,47.2980005 213.1895,47.19 C212.969499,47.0819995 212.739501,47.028 212.4995,47.028 C212.235499,47.028 211.983501,47.0839994 211.7435,47.196 C211.503499,47.3080006 211.291501,47.4919987 211.1075,47.748 C210.923499,48.0040013 210.775501,48.3379979 210.6635,48.75 C210.551499,49.1620021 210.4915,49.671997 210.4835,50.28 C210.723501,49.9839985 211.003498,49.7500009 211.3235,49.578 C211.643502,49.4059991 211.959498,49.32 212.2715,49.32 C212.935503,49.32 213.465498,49.515998 213.8615,49.908 C214.257502,50.300002 214.4555,50.891996 214.4555,51.684 C214.4555,52.0520018 214.395501,52.3859985 214.2755,52.686 C214.155499,52.9860015 213.991501,53.2439989 213.7835,53.46 C213.575499,53.6760011 213.335501,53.8439994 213.0635,53.964 C212.791499,54.0840006 212.499502,54.144 212.1875,54.144 C211.811498,54.144 211.463502,54.0680008 211.1435,53.916 C210.823498,53.7639992 210.545501,53.5340015 210.3095,53.226 C210.073499,52.9179985 209.887501,52.5340023 209.7515,52.074 C209.615499,51.6139977 209.5475,51.0760031 209.5475,50.46 C209.5475,49.6919962 209.627499,49.0380027 209.7875,48.498 C209.947501,47.9579973 210.163499,47.5180017 210.4355,47.178 C210.707501,46.8379983 211.017498,46.5900008 211.3655,46.434 C211.713502,46.2779992 212.079498,46.2 212.4635,46.2 Z M205.748,46.2 C206.460004,46.2 207.019998,46.4059979 207.428,46.818 C207.836002,47.2300021 208.04,47.7759966 208.04,48.456 C208.04,48.8160018 207.962001,49.1779982 207.806,49.542 C207.649999,49.9060018 207.434001,50.2819981 207.158,50.67 C206.881999,51.0580019 206.554002,51.4619979 206.174,51.882 L205.5755,52.5314999 C205.366501,52.7544993 205.148001,52.9839988 204.92,53.22 L205.568,53.172 C205.792001,53.1559999 206.003999,53.148 206.204,53.148 L208.424,53.148 L208.424,54 L203.48,54 L203.48,53.412 L204.44768,52.4356802 C204.647359,52.2321607 204.836799,52.0376009 205.016,51.852 C205.464002,51.3879977 205.839998,50.958002 206.144,50.562 C206.448002,50.165998 206.679999,49.8020017 206.84,49.47 C207.000001,49.1379983 207.08,48.8160016 207.08,48.504 C207.08,48.0639978 206.960001,47.7040014 206.72,47.424 C206.479999,47.1439986 206.116002,47.004 205.628,47.004 C205.307998,47.004 205.012001,47.0939991 204.74,47.274 C204.467999,47.4540009 204.220001,47.6719987 203.996,47.928 L203.432,47.364 C203.752002,47.0119982 204.091998,46.7300011 204.452,46.518 C204.812002,46.3059989 205.243997,46.2 205.748,46.2 Z M236.9975,48.024 C237.229501,48.024 237.437499,48.0639996 237.6215,48.144 L237.4295,49.008 C237.3335,48.9759998 237.2455,48.9520001 237.1655,48.936 C237.0855,48.9199999 236.985501,48.912 236.8655,48.912 C236.617499,48.912 236.359501,49.011999 236.0915,49.212 C235.823499,49.412001 235.589501,49.7599975 235.3895,50.256 L235.3895,54 L234.4055,54 L234.4055,48.168 L235.2215,48.168 L235.3055,49.224 L235.3415,49.224 C235.541501,48.8559982 235.783499,48.5640011 236.0675,48.348 C236.351501,48.1319989 236.661498,48.024 236.9975,48.024 Z M222.635,49.788 C222.322998,49.788 222.071001,49.9419985 221.879,50.25 C221.686999,50.5580015 221.591,51.0239969 221.591,51.648 C221.591,52.2720031 221.686999,52.7419984 221.879,53.058 C222.071001,53.3740016 222.322998,53.532 222.635,53.532 C222.939002,53.532 223.186999,53.3740016 223.379,53.058 C223.571001,52.7419984 223.667,52.2720031 223.667,51.648 C223.667,51.0239969 223.571001,50.5580015 223.379,50.25 C223.186999,49.9419985 222.939002,49.788 222.635,49.788 Z M212.1035,50.064 C211.863499,50.064 211.601501,50.1419992 211.3175,50.298 C211.033499,50.4540008 210.763501,50.7119982 210.5075,51.072 C210.5715,51.8240038 210.745499,52.3939981 211.0295,52.782 C211.313501,53.1700019 211.699498,53.364 212.1875,53.364 C212.379501,53.364 212.555499,53.3240004 212.7155,53.244 C212.875501,53.1639996 213.015499,53.0500007 213.1355,52.902 C213.255501,52.7539993 213.3495,52.578001 213.4175,52.374 C213.4855,52.169999 213.5195,51.9400013 213.5195,51.684 C213.5195,51.1799975 213.403501,50.7840014 213.1715,50.496 C212.939499,50.2079986 212.583502,50.064 212.1035,50.064 Z M231.554,50.952 C231.065998,51.0160003 230.654002,51.0919996 230.318,51.18 C229.981998,51.2680004 229.712001,51.3719994 229.508,51.492 C229.303999,51.6120006 229.158,51.7499992 229.07,51.906 C228.982,52.0620008 228.938,52.2319991 228.938,52.416 C228.938,52.7520017 229.035999,52.9919993 229.232,53.136 C229.428001,53.2800007 229.669999,53.352 229.958,53.352 C230.238001,53.352 230.503999,53.2860007 230.756,53.154 C231.008001,53.0219993 231.273999,52.8280013 231.554,52.572 L231.554,50.952 Z M217.151,45.984 C217.687003,45.984 218.118998,46.1979979 218.447,46.626 C218.775002,47.0540021 218.939,47.663996 218.939,48.456 C218.939,49.256004 218.775002,49.8719978 218.447,50.304 C218.118998,50.7360022 217.687003,50.952 217.151,50.952 C216.606997,50.952 216.173002,50.7360022 215.849,50.304 C215.524998,49.8719978 215.363,49.256004 215.363,48.456 C215.363,47.663996 215.524998,47.0540021 215.849,46.626 C216.173002,46.1979979 216.606997,45.984 217.151,45.984 Z M240.545,48.804 C240.336999,48.804 240.139001,48.8459996 239.951,48.93 C239.762999,49.0140004 239.593001,49.1339992 239.441,49.29 C239.288999,49.4460008 239.163,49.6379989 239.063,49.866 C238.962999,50.0940011 238.897,50.3559985 238.865,50.652 L238.865,50.652 L241.985,50.652 C241.985,50.051997 241.859001,49.5940016 241.607,49.278 C241.354999,48.9619984 241.001002,48.804 240.545,48.804 Z M217.151,46.596 C216.838998,46.596 216.587001,46.7499985 216.395,47.058 C216.202999,47.3660015 216.107,47.8319969 216.107,48.456 C216.107,49.0800031 216.202999,49.5499984 216.395,49.866 C216.587001,50.1820016 216.838998,50.34 217.151,50.34 C217.455002,50.34 217.702999,50.1820016 217.895,49.866 C218.087001,49.5499984 218.183,49.0800031 218.183,48.456 C218.183,47.8319969 218.087001,47.3660015 217.895,47.058 C217.702999,46.7499985 217.455002,46.596 217.151,46.596 Z" id="Combined-Shape" fill="#3F3F3F" fill-rule="nonzero"></path>
                <g id="Group-34" transform="translate(0.000000, 75.000000)">
                    <g id="Group-18">
                        <mask id="mask-4" fill="white">
                            <use xlink:href="#path-3"></use>
                        </mask>
                        <g id="Clip-17"></g>
                        <path d="M177.623325,-5.9748 C177.623325,5.61495 168.227325,15.0102 156.638325,15.0102 C145.047825,15.0102 135.652575,5.61495 135.652575,-5.9748 C135.652575,-17.5638 145.047825,-26.96055 156.638325,-26.96055 C168.227325,-26.96055 177.623325,-17.5638 177.623325,-5.9748" id="Fill-16" fill="#7E5BA5" mask="url(#mask-4)"></path>
                    </g>
                    <g id="Group-21">
                        <mask id="mask-6" fill="white">
                            <use xlink:href="#path-5"></use>
                        </mask>
                        <g id="Clip-20"></g>
                        <path d="M177.69945,16.247625 L163.7697,16.247625 L149.50695,16.247625 L135.5772,16.247625 C129.8397,16.247625 125.14395,21.062625 125.0547,26.980875 C130.71795,30.021375 134.5932,36.109875 134.5932,43.113375 C134.5932,43.113375 135.24495,87.483375 135.5772,87.483375 L135.5772,135.427875 C135.5772,141.424875 140.3157,146.331375 146.10645,146.331375 C151.8987,146.331375 156.63795,141.424875 156.63795,135.427875 C156.63795,141.424875 161.3772,146.331375 167.16795,146.331375 C172.9602,146.331375 177.69945,141.424875 177.69945,135.427875 L177.69945,87.483375 C183.49095,87.483375 188.22945,82.576875 188.22945,76.582125 L188.22945,27.149625 C188.22945,21.154125 183.49095,16.247625 177.69945,16.247625" id="Fill-19" fill="#7E5BA5" mask="url(#mask-6)"></path>
                    </g>
                    <g id="Group-24">
                        <mask id="mask-8" fill="white">
                            <use xlink:href="#path-7"></use>
                        </mask>
                        <g id="Clip-23"></g>
                        <path d="M58.52745,-5.9748 C58.52745,5.61495 49.13145,15.0102 37.5417,15.0102 C25.95195,15.0102 16.55595,5.61495 16.55595,-5.9748 C16.55595,-17.5638 25.95195,-26.96055 37.5417,-26.96055 C49.13145,-26.96055 58.52745,-17.5638 58.52745,-5.9748" id="Fill-22" fill="#7E5BA5" mask="url(#mask-8)"></path>
                    </g>
                    <g id="Group-27">
                        <mask id="mask-10" fill="white">
                            <use xlink:href="#path-9"></use>
                        </mask>
                        <g id="Clip-26"></g>
                        <path d="M58.6029,43.113525 C58.6029,34.877775 61.70115,27.907275 69.0234,25.670775 C68.3199,20.369025 63.9099,16.247775 58.6029,16.247775 L44.67315,16.247775 L30.4104,16.247775 L16.4799,16.247775 C10.6884,16.247775 5.95065,21.154275 5.95065,27.149775 L5.95065,76.582275 C5.95065,82.577025 10.6884,87.483525 16.4799,87.483525 L16.4799,135.428025 C16.4799,141.425025 21.2199,146.331525 27.01065,146.331525 C32.8029,146.331525 37.5414,141.425025 37.5414,135.428025 C37.5414,141.425025 42.28065,146.331525 48.07215,146.331525 C53.86365,146.331525 58.6029,141.425025 58.6029,135.428025 L58.6029,115.476525 L58.6029,43.113525 Z" id="Fill-25" fill="#7E5BA5" mask="url(#mask-10)"></path>
                    </g>
                    <g id="Group-30">
                        <mask id="mask-12" fill="white">
                            <use xlink:href="#path-11"></use>
                        </mask>
                        <g id="Clip-29"></g>
                        <path d="M122.51625,-18.904275 L104.62725,-18.904275 L86.31,-18.904275 L68.421,-18.904275 C60.98325,-18.904275 54.89775,-12.604275 54.89775,-4.904025 L54.89775,58.578975 C54.89775,66.278475 60.98325,72.579225 68.421,72.579225 L68.421,134.150475 C68.421,141.852975 74.5065,148.152975 81.94425,148.152975 C89.3835,148.152975 95.469,141.852975 95.469,134.150475 C95.469,141.852975 101.5545,148.152975 108.993,148.152975 C116.43075,148.152975 122.51625,141.852975 122.51625,134.150475 L122.51625,72.579225 C129.954,72.579225 136.0395,66.278475 136.0395,58.578975 L136.0395,-4.904025 C136.0395,-12.604275 129.954,-18.904275 122.51625,-18.904275" id="Fill-28" fill="#7E5BA5" mask="url(#mask-12)"></path>
                    </g>
                    <g id="Group-33">
                        <mask id="mask-14" fill="white">
                            <use xlink:href="#path-13"></use>
                        </mask>
                        <g id="Clip-32"></g>
                        <path d="M122.419575,-47.5617 C122.419575,-32.67795 110.352825,-20.61195 95.468325,-20.61195 C80.584575,-20.61195 68.518575,-32.67795 68.518575,-47.5617 C68.518575,-62.4462 80.584575,-74.5137 95.468325,-74.5137 C110.352825,-74.5137 122.419575,-62.4462 122.419575,-47.5617" id="Fill-31" fill="#BF56B8" mask="url(#mask-14)"></path>
                    </g>
                </g>
                <g id="Group-41" transform="translate(6.000000, 74.000000)" stroke="#FFFFFF" stroke-width="1.9815">
                    <line x1="0.167025" y1="0.682125" x2="2.148525" y2="0.682125" id="Stroke-35"></line>
                    <line x1="4.108125" y1="0.682125" x2="179.491125" y2="0.682125" id="Stroke-37" stroke-dasharray="3.91949987411499,1.959749937057495"></line>
                    <line x1="180.470925" y1="0.682125" x2="182.452425" y2="0.682125" id="Stroke-39"></line>
                </g>
            </g>
        </g>
    </g>
</svg>