<?xml version="1.0" encoding="UTF-8"?>
<svg width="217px" height="119px" viewBox="0 0 217 119" version="1.1" xmlns="http://www.w3.org/2000/svg" xmlns:xlink="http://www.w3.org/1999/xlink">
    <!-- Generator: Sketch 59.1 (86144) - https://sketch.com -->
    <title>Total Population</title>
    <desc>Created with Sketch.</desc>
    <defs>
        <polygon id="path-1" points="0.00015 0.15 216.10725 0.15 216.10725 118.44135 0.00015 118.44135"></polygon>
    </defs>
    <g id="Export-Outlined-SVG" stroke="none" stroke-width="1" fill="none" fill-rule="evenodd">
        <g id="4" transform="translate(-546.000000, -1034.000000)">
            <g id="Total-Population" transform="translate(546.000000, 1034.000000)">
                <g id="Group-3">
                    <mask id="mask-2" fill="white">
                        <use xlink:href="#path-1"></use>
                    </mask>
                    <g id="Clip-2"></g>
                    <path d="M205.85865,27.96285 C205.83765,28.0311 205.8144,28.11885 205.7979,28.22235 C205.8144,28.1346 205.83765,28.0506 205.83765,27.9876 C205.8144,28.0266 205.7979,28.0506 205.77615,28.1046 C205.8144,28.0311 205.8144,27.96285 205.85865,27.9141 L205.85865,27.96285 Z M180.49065,59.8116 C180.5514,59.89935 180.5904,59.9331 180.6519,60.0021 C180.5829,59.9181 180.49065,59.8311 180.4074,59.7486 C180.4254,59.79585 180.4689,59.79585 180.49065,59.8116 L180.49065,59.8116 Z M216.0984,24.04485 L216.0984,23.8011 C216.06765,23.83485 216.03765,23.8941 216.0249,23.94285 C216.0249,23.8206 215.94165,23.7471 215.9109,23.66835 C215.78115,23.9571 215.38065,23.5176 215.71965,23.34135 C215.78115,23.32635 215.82015,23.3076 215.8644,23.2731 L215.8644,23.26785 L215.8644,23.19885 L215.8029,23.1801 L215.74215,22.9986 L215.74215,22.9401 L215.6979,22.9056 L215.6154,22.7391 L215.6154,22.6866 L215.5854,22.65135 L215.4939,22.4796 L215.4939,22.4661 L215.38065,22.4661 L215.32815,22.4316 L215.29815,22.51485 L215.1459,22.5831 L214.88865,22.5831 L214.75815,22.51485 L214.71465,22.4316 L214.6239,22.38735 L214.53165,22.2456 L214.46265,22.08435 L214.46265,22.0641 L214.3884,21.9861 L214.37865,21.91335 L214.27515,21.86385 L214.2279,21.6876 L214.2279,21.5511 L214.27515,21.3951 L214.34865,21.3756 L214.34865,21.29685 L214.3884,21.1356 L214.27515,21.0666 L214.2279,20.8956 L214.2279,20.5146 L214.27515,20.32785 L214.37865,20.2266 L214.0929,20.2266 L213.93915,20.1471 L213.88815,20.1081 L213.7359,20.1081 L213.59265,20.02485 L213.5619,19.9326 L213.46965,19.89735 L213.44865,19.8501 L213.38715,19.8501 L213.2439,19.7661 L213.13065,19.6296 L213.0789,19.5366 L213.00015,19.5021 L212.94765,19.33035 L212.9874,19.19385 L212.94765,19.0716 L212.94765,18.94485 L213.00015,18.76785 L213.0789,18.73335 L213.0474,18.66585 L213.0474,18.4116 L213.0789,18.34335 L213.0474,18.2841 L213.0474,12.43485 C213.0084,12.4056 213.00015,12.38535 212.9874,12.34635 L212.91765,12.34635 L212.7654,12.3021 L212.73015,12.2001 L212.6694,12.15135 L212.6079,12.05835 L212.5479,12.02385 L212.46465,11.85285 L212.46465,11.78985 L212.42565,11.76435 L212.3814,11.65785 L212.3034,11.6181 L212.2734,11.5641 L212.2209,11.5641 L212.06865,11.5056 L212.0259,11.3976 L211.96515,11.35335 L211.93365,11.30985 L211.8729,11.30985 L211.72965,11.22735 L211.6899,11.1381 L211.6074,11.10435 L211.5864,11.03685 L211.5249,11.03685 L211.3599,10.9671 L211.35015,10.9146 L211.2594,10.9146 L211.2594,11.06535 L211.1979,11.22735 L211.05465,11.30985 L210.6984,11.30985 L210.62415,11.2911 L210.58515,11.30985 L210.44115,11.30985 L210.39765,11.36385 L210.3189,11.3976 L210.27615,11.5056 L210.1149,11.5641 L209.7369,11.5641 L209.6844,11.6181 L209.5314,11.69685 L209.4579,11.69685 L209.4579,11.76435 L209.30565,11.82885 L209.0694,11.82885 L208.9179,11.76435 L208.88715,11.69685 L208.8219,11.69685 L208.68315,11.6181 L208.63965,11.5641 L208.5999,11.5641 L208.45665,11.5056 L208.3959,11.3241 L208.3959,11.2956 L208.3344,11.23635 C208.31265,11.2221 208.31265,11.1876 208.31265,11.1381 C208.2909,11.10435 208.2744,11.08935 208.2744,11.06535 L208.2744,10.6011 L208.21365,10.57185 L208.1394,10.47885 L207.97365,10.3806 L207.8514,10.54635 L207.73815,10.77735 L207.7299,10.7961 L207.48615,11.1876 L207.47265,11.22735 L207.2289,11.4861 L207.2289,11.5056 L207.0024,11.76435 L206.79915,12.0051 L206.5629,12.37635 L206.5329,12.4056 L206.30715,12.6651 L206.0934,13.0371 L205.87965,13.42335 L205.63215,13.81935 L205.59315,13.8576 L205.36665,14.1126 L205.17015,14.33235 L204.95715,15.67785 L204.95715,15.77985 L204.89715,15.96135 L204.75315,16.0191 L204.68415,16.0191 L204.67065,16.08885 L204.5874,16.11735 L204.57015,16.2201 L204.49665,16.22535 L204.49665,16.30785 L204.44415,16.4991 L204.28215,16.54785 L204.26115,16.54785 L204.26115,16.69935 L204.2004,16.83135 L204.2439,16.87635 C204.28215,16.8996 204.34365,16.95885 204.3654,16.99785 C204.39615,17.0916 204.3744,17.20335 204.3219,17.2866 L204.26115,17.3406 L204.26115,17.35935 L204.2004,17.5311 L204.1389,17.5506 L204.1389,17.61885 L204.0879,17.7801 L204.2004,17.8536 L204.26115,18.0246 L204.26115,18.4116 L204.2004,18.55785 L204.1179,18.61635 L204.0879,18.7146 L204.01815,18.73335 L203.95665,18.8511 L203.79165,18.9051 L203.76015,18.9051 L203.72115,18.98835 L203.6904,18.9936 L203.72115,19.0086 C203.79165,19.09635 203.79165,19.19385 203.78265,19.28685 C203.76015,19.36485 203.6904,19.3941 203.64765,19.4241 L203.6169,19.5021 L203.54715,19.5366 L203.50365,19.6296 L203.3514,19.6926 L203.29965,19.6926 L203.2599,19.7661 L203.10765,19.8501 L203.03415,19.8501 L203.03415,19.89735 L202.9419,19.9326 L202.9344,20.02485 L202.76865,20.1081 L202.74765,20.1081 L202.74765,20.1126 L202.68615,20.28435 L202.58565,20.31885 C202.58565,20.37285 202.5639,20.40135 202.52565,20.43585 L202.5639,20.4711 L202.58565,20.5536 L202.68615,20.5881 L202.7289,20.7051 L202.79865,20.7291 L202.86015,20.8956 L202.86015,21.03285 L202.79865,21.2091 L202.63365,21.2676 L202.2984,21.2676 L202.13265,21.2091 L202.13265,21.2376 L202.1559,21.29685 L202.1559,21.4191 L202.0719,21.6006 L201.97215,21.7281 L201.9504,21.75735 L201.9504,21.8151 L201.85965,21.9861 L201.7164,22.0641 L201.58065,22.0641 L201.4584,21.9861 L201.38865,21.8151 L201.38865,21.75735 L201.3144,21.7281 L201.2844,21.6006 L201.1929,21.6246 L201.17115,21.7281 L201.0099,21.8106 L200.9889,21.8106 L200.9889,21.8151 L200.92815,21.9861 L200.78415,22.0641 L200.53965,22.0641 L200.39715,21.9861 L200.3229,21.9276 L200.31315,21.9276 L200.1609,21.86385 L200.1399,21.82485 L200.1009,21.86385 L200.0274,21.91335 L200.0049,21.9861 L199.9434,22.02135 L199.9434,22.21635 L199.8834,22.38735 L199.8309,22.4121 L199.8309,22.4796 L199.74015,22.65135 L199.67865,22.6866 L199.6389,22.7691 L199.59615,22.83735 L199.59615,22.9986 C199.59615,23.1456 199.49565,23.2536 199.3914,23.2536 L198.49065,23.2536 L198.3159,23.34135 L198.2079,23.37585 L195.40515,23.37585 L195.24915,23.3076 L195.1869,23.2536 L192.5289,23.2536 L192.1929,23.34135 L192.1404,23.37585 L186.9924,23.37585 L186.91365,23.34135 L186.89265,23.37585 L186.8184,23.37585 L186.81015,23.4396 L186.6489,23.5176 L186.4524,23.5176 L186.44415,23.56185 L186.27915,23.64885 L186.27015,23.64885 L186.2184,23.70285 L186.0744,23.7666 L185.89215,23.7666 L185.86065,23.8206 L185.7864,23.85885 L185.7474,23.9571 L185.59215,24.0306 L185.4609,24.0306 L185.40015,24.08985 L185.3169,24.12885 L185.28615,24.2166 L185.17365,24.35385 C185.1339,24.39285 185.1039,24.39285 185.09115,24.41235 L185.0514,24.4761 L184.8864,24.56835 L184.84665,24.56835 C184.84665,24.6081 184.78515,24.64185 184.74315,24.66585 L184.5684,24.77835 L184.45965,24.8721 L184.1124,25.2771 L184.06815,25.3221 L183.8544,25.44435 L183.82365,25.48785 L183.82365,25.50285 L183.76365,25.6791 L183.6204,25.74735 L183.57615,25.74735 L183.5589,25.7811 L183.4539,25.99185 L183.4149,26.0556 L183.33315,26.17785 L183.2274,26.38335 L183.1194,26.5056 L182.92365,26.60835 L182.83215,26.72085 L182.65815,26.7786 L182.47515,26.7786 L182.39265,26.91585 C182.3484,26.9991 182.31015,27.05835 182.20515,27.05835 L182.0664,27.05835 L182.0664,27.2046 L182.0229,27.37635 L181.84065,27.44835 L181.5744,27.44835 L181.53015,27.5181 L181.40865,27.5676 L181.3479,27.70335 L181.2954,27.77235 L181.0824,28.0266 L180.6294,28.65285 L180.18165,29.53785 L180.18165,29.5626 L179.7204,30.3591 L179.5074,30.4566 L172.4484,30.4566 L171.54765,30.84885 L170.83365,31.24035 L171.15915,31.9146 L171.2604,32.0226 L171.32115,32.1936 L171.32115,32.8386 L171.32115,32.8686 L171.32115,32.88285 C171.36465,32.92635 171.4044,32.95185 171.4164,32.99985 C171.53865,33.01485 171.63015,33.0696 171.6699,33.15735 C171.6909,33.2061 171.6699,33.32835 171.6519,33.41985 L171.7299,33.48435 L171.79515,33.63585 L171.79515,33.89535 L171.79515,33.9636 L171.7209,34.16535 C171.79515,34.32135 171.80415,34.47735 171.63015,34.5846 C170.58615,35.42535 169.53165,36.2526 168.4704,37.07385 C166.6779,38.5071 164.26665,38.62035 162.42165,39.9111 C162.1074,40.1166 161.87265,40.44435 161.5854,40.66935 C160.8804,41.20185 160.1709,41.14785 159.33615,41.25135 C159.00465,41.3001 158.68665,41.4711 158.39115,41.5296 C157.73865,41.64135 156.77715,41.4711 156.1239,41.24085 C156.45015,40.98135 156.79815,41.1141 157.1244,40.97685 C157.45065,40.84035 157.48215,40.8546 157.00215,40.67835 C156.1929,40.36035 155.35365,40.09635 154.5264,39.8031 C154.89165,39.13785 155.2314,38.4876 155.58915,37.81785 L155.58915,37.7931 L155.58915,37.29885 L155.66265,37.1421 L155.7099,37.07385 L155.7099,36.91785 L155.77665,36.74685 L155.9364,36.6726 L155.9499,36.6726 L156.01965,36.6246 L156.1629,36.54135 L156.26265,36.54135 C156.45915,36.1791 156.67215,35.8176 156.84615,35.47035 C157.15515,34.8831 157.48215,34.8741 157.5729,35.48985 L157.6644,35.48985 C157.7994,35.14185 157.92165,34.79985 158.03415,34.45785 L158.03415,33.89535 L158.1084,33.72435 L158.16915,33.6801 L158.16915,33.63585 L158.2299,33.48435 L158.2914,33.41985 L158.2914,33.3726 L158.3124,33.2691 L158.34315,33.17085 C158.3124,33.0696 158.2689,32.94735 158.19915,32.75085 C158.16915,32.5551 158.1084,32.3256 158.0784,32.1246 C158.00415,31.69035 157.98165,31.26885 157.8819,30.84885 C157.73865,30.06135 157.73865,28.9656 157.20765,28.35435 C156.46815,27.5181 155.61015,28.3881 154.85265,28.8531 C154.50465,29.07735 153.12465,30.22785 152.79915,29.8461 C152.6634,29.6691 152.7549,29.34735 152.76915,29.1366 C152.79915,28.9656 152.82915,28.70085 152.9514,28.51035 C153.2169,28.0746 153.79065,28.27635 154.0569,27.8796 C154.20915,27.6351 154.0959,27.36135 154.20915,27.1071 C154.3824,26.74485 154.7709,26.8431 154.9749,26.53935 C155.2014,26.17785 155.2014,24.74985 155.14065,24.31935 C155.0664,23.7471 153.9129,22.4661 155.2014,22.93035 C155.19165,22.44585 154.9749,22.4661 154.85265,22.1286 C154.7919,21.91335 154.8129,21.69285 154.73115,21.5706 C154.5489,21.2376 153.8604,21.0471 153.56415,20.8956 C153.1344,20.7291 152.68665,20.6616 152.30715,20.47635 C151.9284,20.3046 151.86765,19.7271 151.3539,19.61385 C151.0359,19.5561 150.86265,19.6431 150.5664,19.52085 C150.3534,19.3941 150.1659,19.17435 149.92215,19.0761 C149.69565,19.00335 149.05215,18.87135 148.8774,19.0716 C148.59465,19.36485 148.4514,20.9781 149.07315,20.91585 C148.63365,21.26235 147.99915,21.00885 147.55065,21.4686 C147.17115,21.86385 147.3024,22.4661 147.2634,23.0331 C147.22365,23.66835 147.0504,23.04735 146.8149,23.1906 C146.67165,23.26785 146.5149,24.0111 146.4369,24.1776 C146.19615,23.85435 146.4369,23.5176 146.48415,23.1696 C146.4369,23.1696 146.4369,23.19885 146.4054,23.19885 C146.4369,22.9986 146.68815,22.0641 146.39265,22.14735 C146.3229,22.17735 146.0139,22.70535 145.93215,22.7931 C145.86165,22.9401 145.7874,23.2731 145.64865,23.34135 C145.52265,23.4396 145.43115,23.1906 145.3404,23.23785 C145.23915,23.2731 145.19565,23.42385 145.09515,23.49735 C145.0044,23.53185 144.8304,23.4741 144.78615,23.5176 C144.6039,23.7666 144.56115,24.1776 144.3864,24.4371 C144.33915,24.52485 144.14265,24.50985 144.0909,24.6081 C143.55915,25.37085 143.4894,26.7786 143.2119,27.68985 C143.05065,28.1886 143.34615,28.6176 143.39415,29.15685 C143.46765,29.82585 143.18115,30.5106 143.3334,31.1811 C143.4069,31.5681 143.6424,32.3841 144.06015,32.04135 C144.07365,32.6091 144.07365,32.92635 144.1734,33.40185 C144.2124,33.6906 144.1944,33.9936 144.2034,34.2771 C144.23415,36.33135 142.8114,38.0181 141.89265,39.6906 C142.1064,39.6906 142.4679,39.61785 142.6584,39.6906 C142.8849,39.8031 143.05065,40.1901 143.0679,40.55085 C143.05065,40.13535 142.7934,39.7551 142.37115,39.6906 C141.67965,39.61785 141.27015,40.2186 140.6349,40.35585 C140.16465,40.44435 139.4469,40.1901 139.2639,39.73485 C138.7119,38.4876 138.24165,37.56885 138.25815,36.1791 C138.3234,35.03535 138.03615,33.86085 137.9454,32.7111 C137.8929,32.15985 137.97615,31.8516 138.12015,31.33185 C138.34215,30.4476 138.36315,29.48385 138.6069,28.60335 C138.7944,27.83535 139.12065,27.25935 139.2864,26.48085 C139.43715,25.82085 139.62915,25.24335 139.87815,24.62235 C139.93815,24.4371 139.9779,24.1131 139.84665,23.8941 C140.1219,24.1131 140.6349,23.45835 140.7564,23.21385 C141.06615,22.5831 141.06615,22.27935 141.00015,21.5511 C140.8614,21.82485 140.80965,22.02135 140.61315,22.2456 C140.52165,22.33335 140.43915,22.24035 140.2869,22.38735 C140.2434,22.4796 140.25615,22.73385 140.18265,22.83735 C140.1519,22.8966 139.9779,22.9791 139.93815,23.1021 C139.83465,23.2731 139.65915,23.66835 139.83465,23.85435 C139.7949,23.81085 139.7334,23.7471 139.65165,23.7471 C139.42515,23.65935 138.91665,23.9571 138.7329,24.2601 C138.44565,24.70035 138.3939,24.98385 137.8929,25.23435 C137.7279,25.3311 137.8929,25.5621 137.5839,25.40085 C137.34915,25.2771 137.4399,25.2291 137.4399,24.97035 C137.50515,24.6711 137.67615,24.4371 137.8329,24.2166 C137.93265,24.0111 138.0594,23.53185 138.18015,23.3901 C138.25815,23.3076 138.42465,23.3901 138.50715,23.32635 C138.7329,23.08185 138.97665,22.8036 139.0989,22.4661 C139.2639,21.91335 139.62915,21.50235 139.90815,21.03285 C140.08215,20.7636 140.18265,20.4711 140.32665,20.1471 C140.25615,20.1471 140.2044,20.1126 140.16465,20.0736 C140.2434,20.1126 140.32665,20.05485 140.49165,19.9326 C140.98365,19.5366 141.0834,18.9051 141.34815,18.3186 C141.3309,18.7146 141.3789,19.09635 141.34815,19.48185 C141.5964,19.3941 141.8184,19.2321 141.97515,19.00335 C142.00515,18.96435 142.0749,18.6561 142.0884,18.6561 C141.97515,18.71985 142.92465,18.50985 142.86315,18.44085 C143.4594,18.80835 141.78765,19.5366 142.63665,19.9326 C142.8849,19.5021 142.92465,19.30185 143.27265,19.0716 C143.34615,19.0221 143.55915,18.96435 143.62065,18.9051 C143.7249,18.80835 143.7039,18.6321 143.79465,18.50985 C144.1734,17.9271 144.76515,17.9271 145.3404,18.23985 C145.31715,17.81985 146.1579,18.0441 146.4369,17.8536 C146.61015,17.6871 146.6274,17.43285 146.8629,17.3406 C147.05865,17.2371 147.43665,17.3406 147.6504,17.39385 C147.93765,17.43285 148.32465,17.57985 148.56465,17.7171 C148.8384,17.8926 149.29965,18.6321 149.6349,18.61635 C150.00465,18.6021 149.69565,17.73585 150.0654,17.59485 C150.3309,17.4921 150.92265,17.8536 151.2324,17.8536 C151.51965,17.9076 151.82415,17.9271 152.1114,17.98035 C152.27715,18.01035 152.87715,18.21585 152.92065,17.9076 C152.92065,17.9076 152.92065,17.8536 152.8989,17.8536 L152.79915,17.8536 C152.68665,17.8536 152.6244,17.81985 152.59365,17.73585 L152.49915,17.51535 L152.38965,17.39385 L152.38965,17.37435 C152.35965,17.36985 152.3379,17.3406 152.32365,17.3406 C152.3154,17.2911 152.3154,17.2866 152.3379,17.2371 L152.21565,17.18835 L152.1504,17.1351 L152.02815,17.01285 L151.9809,16.83135 L151.9809,16.7676 C151.8984,16.69935 151.84515,16.6506 151.7844,16.58235 C151.84515,16.4991 151.6719,15.84435 151.51965,15.6036 C151.51965,15.56985 151.4889,15.52035 151.4589,15.5016 L151.0359,15.5016 L150.9969,15.6426 C150.94515,15.7116 150.87465,15.76035 150.7839,15.76035 L150.4359,15.76035 L150.2799,15.67785 L149.6559,14.8656 C149.4129,14.8011 149.1654,14.7486 148.9209,14.6946 C148.49115,14.66535 148.73415,13.97535 148.9734,13.7646 C148.40715,13.72635 147.7419,13.9311 147.18915,14.0091 C146.2494,14.1621 145.28715,14.33235 144.33915,14.4891 C144.03015,14.5281 143.7249,14.7381 143.46765,14.8806 C143.2119,15.02685 143.0064,15.2961 142.7934,15.42735 C142.41465,15.6186 142.1064,15.3591 141.67965,15.17385 C141.0744,14.90985 140.43915,14.98785 139.81665,14.83635 C139.81665,14.7621 139.15965,13.81935 139.0164,13.6626 C138.46815,13.0071 137.67615,13.07535 136.8924,12.9231 C136.9404,12.86535 136.9704,12.8061 136.99215,12.7671 C136.56165,12.99735 136.09215,13.3641 135.7959,13.81935 C135.7254,13.4376 135.9309,13.0611 135.88665,12.7326 C135.86565,12.58185 135.66015,12.17085 135.64365,12.11685 C135.4914,11.98485 135.2949,11.78985 135.16065,11.68635 C135.12165,11.6421 135.2514,11.42685 135.12915,11.35335 C134.9859,11.23635 134.27265,11.76435 134.1069,11.8431 C132.9399,12.45435 131.78715,13.07535 130.6299,13.6866 C130.6299,13.6866 130.6299,13.6971 130.60815,13.6971 L130.60815,13.6866 C129.93315,14.05335 129.2499,14.4006 128.57565,14.7621 C128.2584,14.9481 127.21365,14.18085 126.8439,13.99035 C126.6219,13.8576 127.17015,13.4136 127.15215,13.16835 C127.13115,12.32235 125.28915,13.39785 124.9194,13.5546 C124.5324,13.72635 124.14465,13.95585 123.7149,14.05335 C123.19215,14.18085 122.68365,13.95585 122.1474,13.81935 C123.4494,12.6351 124.77615,11.42685 126.0684,10.2531 C126.6219,9.7641 127.0704,9.32985 127.6839,9.00135 C128.7669,8.4396 129.93315,7.9896 131.0994,7.46085 L131.0169,7.4211 L130.95615,7.3686 L130.87365,7.3686 L130.86465,7.4211 L130.7124,7.49985 L130.65165,7.49985 L130.6299,7.5591 L130.46415,7.6326 L130.3209,7.5591 L130.3029,7.49985 L130.1379,7.49985 L129.97665,7.4211 L129.9114,7.2501 L129.9114,7.1871 L129.8724,7.18185 C129.5679,7.12785 129.25965,7.0746 128.93265,6.97185 C129.23715,7.01085 129.50265,7.0311 129.80265,7.0746 L129.72915,7.0311 L129.72015,6.9276 L129.6294,6.90885 L129.58515,6.83985 L129.1674,6.83985 L129.1149,6.90885 L128.9409,6.97185 L128.0094,6.97185 L127.90965,6.90885 L127.7874,6.97185 L127.19115,6.97185 L127.0389,6.90885 L127.0179,6.8256 L126.93465,6.7716 L126.8649,6.61035 L126.8649,6.53235 L126.8124,6.5121 L126.7614,6.32235 L126.7614,6.3066 L126.72165,6.31185 L126.5604,6.31185 L126.5394,6.3801 L126.3954,6.4446 L126.3339,6.4446 L126.31215,6.5121 L126.1299,6.57585 L126.0864,6.57585 L126.05565,6.63435 L125.9124,6.70335 L125.9034,6.70335 L125.84265,6.7716 L125.76015,6.8256 L125.70765,6.90885 L125.6379,6.9276 L125.6079,7.0311 L125.44215,7.1091 L125.1684,7.1091 L125.1459,7.16685 L124.9854,7.2306 L124.1544,7.2306 L124.0014,7.16685 L123.9714,6.9966 L123.9714,6.97185 L123.6924,6.97185 L123.5409,6.90885 L123.4884,6.72735 L123.4884,6.61035 C123.4884,6.57585 123.5094,6.5511 123.5094,6.5511 L123.42765,6.5121 L123.40965,6.4446 L123.1089,6.4446 L122.97915,6.3801 L122.93565,6.31185 L122.76165,6.31185 L122.6094,6.23835 L122.5779,6.1506 L122.5089,6.1161 L122.45715,6.01785 L122.3739,5.97885 L122.3214,5.80785 L122.3214,5.6571 L122.0694,5.6571 C122.03865,5.6571 122.01765,5.63235 122.01765,5.63235 C121.97415,5.63235 121.96515,5.6571 121.93515,5.6571 L121.69065,5.6571 L121.69065,5.94585 C121.69065,6.03735 121.6254,6.1161 121.54665,6.1506 L121.52565,6.23835 L121.3599,6.31185 L121.25115,6.31185 L121.1079,6.23835 L121.06365,6.1401 L120.9729,6.1161 L120.88965,5.94585 L120.88965,5.88135 L120.85965,5.8476 L120.82065,5.75385 C120.75915,5.7201 120.6849,5.6571 120.6849,5.53485 L120.6849,5.2356 L120.62415,5.1921 L120.60315,5.13735 L119.97165,5.13735 L119.80665,5.0646 L119.7369,4.8981 L119.7369,4.6191 L119.7459,4.5846 L119.70615,4.5456 L119.6409,4.48785 L119.5014,4.48785 L119.3364,4.4136 L119.2839,4.3551 L119.2449,4.3551 L119.1099,4.27785 L119.0484,4.2081 L119.0319,4.2081 L118.86615,4.1451 L118.86615,4.1061 L118.8144,4.1451 L118.70115,4.2081 L118.3224,4.2081 L118.17015,4.1451 L118.1484,4.08585 L117.79965,4.08585 L117.76065,4.1451 L117.6174,4.2081 L117.50415,4.2081 C117.49515,4.2081 117.4734,4.20285 117.45615,4.1841 C117.4209,4.20285 117.4134,4.2081 117.3909,4.2081 L117.3519,4.2081 L117.3519,4.3656 L117.31215,4.5456 L117.1689,4.6146 L116.7684,4.6146 L116.71665,4.67835 C116.65515,4.7421 116.57265,4.76085 116.49465,4.71735 L116.4504,4.7421 L115.88115,4.7421 L115.7154,4.67835 L115.6854,4.5846 L115.61115,4.5456 L115.5414,4.3656 L115.5414,4.15935 L115.5024,4.1451 L115.47165,4.08585 L114.46665,4.08585 L114.3054,4.01235 L114.27015,3.94935 L114.1404,3.94935 L113.96565,3.8961 L113.8959,3.70935 L113.8959,3.69585 L113.60865,3.69585 L113.56515,3.74385 L113.4219,3.8181 L113.1789,3.8181 L113.03415,3.74385 L113.00415,3.69585 L112.83015,3.69585 L112.6779,3.62685 L112.64715,3.53385 C112.58715,3.49035 112.55565,3.4551 112.5429,3.39735 L112.4604,3.3531 L112.4214,3.2646 C112.33815,3.23085 112.2774,3.16185 112.2774,3.0546 L112.2774,2.2866 L112.16415,1.94535 L112.16415,1.87035 L112.16415,1.6806 L112.0509,1.46985 L112.0329,1.35285 L112.0329,1.2696 L111.95115,1.0731 L111.91215,0.9561 L111.91215,0.75585 L111.8289,0.5451 L111.80715,0.43335 L111.80715,0.39435 L111.5634,0.2421 C111.5424,0.22335 111.50265,0.19785 111.4809,0.14985 L110.95065,0.14985 L110.95065,1.87035 L110.88465,2.04135 L110.74515,2.1111 L7.29465,2.1111 C7.2639,2.2326 7.2804,2.3691 7.35465,2.59485 C7.4034,2.74635 7.6209,2.95635 7.67265,3.0396 C7.9074,3.39735 7.56765,3.3486 8.28615,3.23085 C8.0994,3.65685 8.50815,3.70935 8.5299,4.07235 C8.5299,4.15935 8.3649,4.50735 8.3259,4.5846 C8.28615,4.6491 8.4384,4.71735 8.3649,4.79535 C8.27265,4.92735 7.9689,5.00085 7.85565,5.07885 C8.03865,4.95135 8.6124,5.45085 8.75565,5.72985 C8.93865,6.1401 8.69565,6.54585 9.0834,6.95685 C9.2484,7.12785 9.43065,7.0311 9.4089,7.2501 C9.4089,7.3686 9.1134,7.4706 9.0519,7.5876 C9.0219,7.62735 8.94765,7.86735 8.93865,7.9746 C8.8869,8.0631 8.7954,8.08185 8.75565,8.2386 C8.71365,8.37135 8.8569,8.5221 8.8389,8.5761 C8.8389,8.6601 8.69565,8.83035 8.69565,8.88885 C8.7039,8.9226 8.75565,9.10935 8.75565,9.15885 C8.75565,9.13785 8.9304,9.3831 8.93865,9.4566 C8.93865,9.52485 8.75565,9.61335 8.74365,9.7101 C8.74365,9.7641 8.8389,9.8481 8.8389,9.91185 C8.8389,10.03935 8.94765,10.23885 8.94765,10.3221 C8.93865,10.6836 8.9304,10.44885 8.77365,10.74285 C8.6124,11.06535 8.3859,11.1381 8.01615,11.5146 C7.56765,11.94585 7.4544,11.89185 6.83265,12.11685 C6.86265,12.15135 6.86265,12.2001 6.86265,12.23385 C6.42315,12.2001 6.5154,11.9256 6.7284,11.6181 C6.5544,11.72085 6.40215,11.89185 6.21915,11.9556 C6.3189,11.78985 6.52365,11.68635 6.62865,11.5056 C6.7104,11.38335 6.66765,11.1876 6.7419,11.06535 C6.88065,10.7961 7.1379,10.8456 7.1379,10.41585 C7.2639,10.8456 7.05465,11.1876 7.31115,11.5356 C7.4244,10.9476 7.4769,10.77735 7.8249,10.4106 L7.8429,10.3806 C7.8249,10.4106 7.8249,10.41585 7.80315,10.41585 L7.8249,10.41585 L7.80315,10.41585 C7.75065,10.6011 7.67265,10.74285 7.6509,10.9146 C8.6739,10.6941 8.1819,9.24135 7.75065,8.60985 C7.85565,8.68335 8.3949,8.6391 8.4384,8.54085 C8.50815,8.3361 8.27265,7.9746 8.24265,7.70085 C8.03865,8.0631 7.67265,8.3016 7.4034,8.70735 C7.1979,9.0411 6.9939,9.0411 6.66765,9.3201 C6.48465,9.4911 6.30165,9.86235 6.20565,10.0866 C6.0969,10.3806 5.91015,10.3806 6.2274,10.47885 C6.42315,10.53285 6.81165,10.3071 6.9939,10.18485 C6.9159,10.25835 6.0324,10.9476 5.9934,10.58535 C5.94015,10.21935 6.21915,9.7641 6.40215,9.4806 C6.57615,9.2166 6.78915,9.07485 6.88065,8.79585 C7.0374,8.50785 6.9549,8.1456 7.1379,8.02335 C7.2204,8.3016 7.1979,8.60085 7.1199,8.83035 C7.31115,8.6391 7.49865,8.27835 7.6509,8.02335 C7.77315,7.77885 7.9554,7.86735 7.7334,7.56435 C7.4859,7.28535 7.1679,6.72735 7.3854,6.43935 C7.2804,6.53235 7.1379,7.1091 7.05465,7.14285 C6.81165,7.2501 6.0534,6.46785 6.0144,6.2526 C5.0709,6.2526 4.1904,6.5121 3.25965,6.32235 C2.13765,6.1401 1.05315,5.53485 0.00015,5.13735 C0.03915,5.8476 0.03015,6.53235 0.21315,7.2306 C0.4569,8.17935 1.05315,9.00135 1.41015,9.87285 C1.53165,10.0866 1.47165,10.33185 1.5459,10.54635 C1.66665,10.9671 1.94115,11.3346 2.0454,11.76435 C2.12865,12.12735 2.13765,12.47385 2.0454,12.8361 C2.32815,11.72085 2.68965,12.7041 3.39465,12.71385 C3.1509,12.8406 2.4414,12.94785 2.5674,13.33485 C2.4639,13.26585 2.32815,13.18785 2.2284,13.07535 C2.2674,13.18785 2.2899,13.6476 2.37165,13.7301 C2.57715,14.07285 3.2424,13.62885 3.3729,14.1621 C3.1074,14.18085 2.9244,14.35185 3.08565,14.6061 C3.04665,14.57685 2.9634,14.5431 2.9034,14.5176 C3.04665,14.66535 3.08565,14.8656 3.12015,15.0606 L3.0069,15.6186 C2.60715,16.2741 2.7204,14.79735 2.5674,14.57235 C2.47215,15.1251 2.63715,15.8091 2.43315,16.32285 C3.5469,16.54785 4.6734,16.68435 5.8104,16.84185 C5.1744,16.95885 4.53915,17.0466 3.88665,17.16885 C3.4164,17.23185 3.12015,16.87635 2.7414,16.6701 C3.08565,17.46285 2.7204,18.0441 2.8029,18.87135 C2.85015,19.2321 2.9634,19.40385 2.9634,19.8246 C2.9469,20.1126 2.87265,20.3871 2.85015,20.68635 C2.8029,20.9781 2.89365,21.2091 2.89365,21.3951 C2.89365,22.2066 2.68965,23.04735 2.5029,23.8206 C2.35065,24.41235 2.4639,25.16535 2.39415,25.82085 C2.32815,26.60835 2.2899,27.44835 2.20665,28.27635 C2.18865,28.59885 2.15865,28.88685 2.12865,29.19585 C2.0634,29.4351 2.0454,29.6556 2.0454,29.8656 C1.98465,30.43785 1.7799,30.91635 1.5459,31.46985 C1.66665,31.3281 1.75815,31.1811 1.85865,31.0431 C1.9629,31.1811 2.0634,31.3671 2.10615,31.5426 C2.0454,31.49835 1.9629,31.46985 1.90215,31.42035 C1.5459,32.09085 0.62265,33.53385 0.6924,34.2771 C0.71415,34.5111 0.8784,34.64835 0.96165,34.79985 C1.1754,35.2101 1.23615,35.16735 1.14465,35.75385 C1.0704,36.1656 1.1019,36.5751 1.1754,36.93735 C1.2879,37.5396 1.41015,38.0181 1.90215,38.42835 C2.10615,38.6046 1.98465,39.3576 1.98465,39.6366 C1.9929,40.55085 1.9929,41.4906 2.0244,42.43935 C2.0244,42.50835 2.0244,44.3421 1.94115,44.55285 C2.0634,44.38185 2.18865,44.2101 2.39415,44.24385 C2.18865,44.4786 1.8804,45.1011 1.72815,44.9331 C1.47165,45.39285 1.23615,45.96585 1.41015,46.45935 C1.5459,46.87035 2.5029,48.5091 2.82015,48.5091 L2.7414,48.5091 C2.9859,49.0521 3.6384,50.02935 3.6384,50.66985 C3.6384,50.8416 3.49515,51.0861 3.4779,51.30135 C3.39465,51.8931 3.6819,52.2501 3.84315,52.8081 C4.00815,53.42385 3.6384,53.56635 4.00815,54.09435 C4.8264,55.27785 5.66715,56.4471 6.48465,57.62985 C6.62865,57.8601 6.62865,58.04985 6.44115,58.28985 C6.8019,57.62985 7.32465,58.5441 7.6899,58.8036 C7.71165,58.75485 7.6899,58.7106 7.71165,58.68135 C7.85565,58.83735 8.69565,59.52285 8.4384,58.8861 C8.45565,58.9116 8.5299,58.92585 8.5689,58.94085 C8.46915,58.7796 8.45565,58.5831 8.4384,58.45185 C8.45565,58.5831 8.4384,57.9381 8.3859,58.0656 C8.49165,57.6891 8.5689,57.87435 8.71365,57.5466 C8.93865,57.64485 9.18315,57.89385 9.38715,57.9726 C9.7569,58.0896 9.65715,57.95685 9.96165,57.83535 C10.0659,57.80085 10.0224,57.5961 10.2054,57.5961 C10.37115,57.5961 10.57515,57.9381 10.7499,57.9726 C10.9329,58.00185 11.09715,57.95685 11.2329,57.83535 C11.1669,57.89385 11.11965,57.9726 11.06715,58.03185 C11.6724,57.8211 11.76315,57.75735 12.2949,58.2171 C12.09015,58.14885 11.7204,57.8601 11.53665,57.89385 C11.42415,57.9381 11.4759,58.0896 11.3724,58.11435 C11.2329,58.1631 11.1894,58.2171 10.88415,58.1826 C10.68015,58.1631 10.4934,58.04985 10.2579,58.04985 C10.0839,58.04985 9.90165,58.1826 9.73515,58.1826 C9.43065,58.1826 9.0609,58.00185 8.8569,58.3341 C8.49165,58.9701 9.7569,60.35385 9.93165,60.9801 C9.68715,60.7461 9.38715,60.63735 9.13515,60.41685 C9.0219,60.3051 8.8569,60.3246 8.8569,60.1251 C8.8389,60.0021 8.93865,59.4741 8.8044,59.3661 C8.30415,58.9701 8.28615,60.29085 8.31615,60.5496 C8.3649,60.9561 8.6739,61.32735 8.75565,61.73835 C8.8389,62.27085 8.75565,62.2566 9.3264,62.68185 C9.65715,62.9076 10.0839,63.15135 10.39215,63.37185 C10.4319,63.37185 10.57515,63.28935 10.65765,63.37185 C10.86315,63.56235 11.08965,64.47735 10.9329,64.80435 C10.7499,65.14185 10.57515,64.85385 10.5144,64.99035 C10.3314,65.2161 10.4319,65.4501 10.5144,65.71485 C10.57515,65.9106 10.59765,66.1746 10.65765,66.3501 C10.9329,67.1571 11.76315,67.99335 12.2949,68.64885 C12.88665,69.4161 13.43865,70.10535 14.0829,70.8201 C14.3184,71.1036 14.3184,71.2656 14.42265,71.45085 C14.5059,71.6421 14.42265,71.7261 14.62665,71.91135 C14.85315,72.1551 15.26265,72.4686 15.34065,72.7761 C15.3624,72.85035 15.2409,72.96285 15.26265,73.04535 C15.28065,73.30485 15.30165,73.5786 15.34065,73.85685 C15.3624,74.0331 15.30165,74.39535 15.34065,74.49285 C15.3624,74.6346 15.2184,74.78685 15.3849,74.8506 C15.83265,75.06135 16.32465,75.2661 16.76415,75.3291 C17.3169,75.38835 17.69565,75.45135 18.2259,75.60735 C18.6969,75.76485 19.07565,75.4716 19.5969,75.74535 C20.19315,76.02435 20.72415,76.48785 21.25515,76.8801 C21.52065,77.0901 21.86865,77.4381 22.17765,77.4816 C22.17765,77.5011 22.39065,77.3841 22.4739,77.3631 C22.6044,77.3631 23.06565,77.2566 23.1399,77.3841 C23.24865,77.6571 23.3529,78.49335 23.58765,78.6651 C23.77065,78.79635 24.03615,78.6261 24.24015,78.6261 C24.7629,78.6261 24.8979,78.96285 25.3074,79.2771 C25.6554,79.5786 26.0814,79.7751 26.41215,80.09835 C26.9439,80.5866 27.1869,80.9886 27.43515,81.72735 C27.70065,82.46985 27.9879,83.2131 28.23165,83.94735 C28.27515,84.03585 28.31415,84.0936 28.3359,84.1581 L28.6404,84.19185 L29.4804,84.19185 L29.5194,84.12285 L29.67615,84.0546 L30.7599,84.0546 L30.80865,84.0006 L30.9819,83.9166 L32.0784,83.9166 L32.1009,83.85885 L32.2614,83.7906 L33.4494,83.7906 L33.5109,83.73135 L33.67515,83.6631 L34.8594,83.6631 L34.9119,83.6001 L35.06415,83.5371 L36.23115,83.5371 L36.3129,83.46735 C36.3219,83.44785 36.3744,83.44785 36.38715,83.4231 C36.40515,83.41335 36.42615,83.3991 36.45615,83.3991 L37.5189,83.3991 C37.64415,83.3991 37.7229,83.50185 37.7229,83.6436 L37.7229,83.7606 L37.66215,83.9421 L37.61415,83.96085 L37.61415,84.03585 L37.5489,84.19185 L37.4799,84.2496 L37.48815,84.3036 L37.48815,84.4206 L37.4799,84.4416 L37.5189,84.4416 L37.66215,84.51885 L37.67565,84.56835 L37.86765,84.56835 L38.02365,84.6516 L38.0319,84.70935 L38.1984,84.70935 L38.3589,84.78885 L38.4204,84.8421 L38.55465,84.8421 L38.7069,84.89535 L38.76765,84.9786 L38.9109,84.9786 L39.06315,85.0521 L39.0939,85.08585 L39.25965,85.08585 L39.4254,85.1691 L39.46365,85.22385 L39.6084,85.22385 L39.76065,85.3011 L39.81165,85.3746 L39.95565,85.3746 L40.0989,85.43385 L40.13865,85.4976 L40.31265,85.4976 L40.45665,85.56585 L40.48665,85.62885 L40.66965,85.62885 L40.8129,85.7031 L40.85715,85.76085 L40.99965,85.76085 L41.16165,85.83435 L41.18265,85.89285 L41.36565,85.89285 L41.5089,85.9716 L41.5479,86.00985 L41.72265,86.00985 L41.85765,86.09385 L41.91015,86.1426 L41.9574,86.1426 L42.09315,86.22135 L42.16665,86.2941 L42.4104,86.2941 L42.57615,86.35335 L42.57615,86.4021 L42.7584,86.4021 L42.9324,86.4801 L42.9414,86.5401 L42.99315,86.5401 L43.1589,86.61735 L43.2069,86.68035 L43.3509,86.68035 L43.48515,86.75385 L43.5549,86.8026 L43.80315,86.8026 L43.98615,86.8671 L43.98615,86.92485 L44.02515,86.92485 L44.19015,87.00885 L44.2599,87.0621 L44.3949,87.0621 L44.5599,87.14535 L44.5989,87.2136 L44.76465,87.2136 L44.88615,87.27285 L44.93415,87.3261 L45.1089,87.3261 L45.25215,87.40485 L45.29565,87.45885 L45.33465,87.45885 L45.4869,87.52185 L45.5304,87.6051 L45.7959,87.6051 L45.9699,87.67335 L45.9789,87.7176 L46.1529,87.7176 L46.31865,87.78135 L46.31865,87.8496 L46.35765,87.8496 L46.53165,87.9186 L46.59315,87.99135 L46.7364,87.99135 L46.8924,88.0551 L46.9404,88.12785 L47.07615,88.12785 L47.2494,88.1721 L47.3019,88.2411 L47.4234,88.2411 L47.5854,88.31985 L47.6454,88.37835 L47.7894,88.37835 L47.93265,88.45635 L47.97615,88.5246 L48.1374,88.5246 L48.28065,88.56885 L48.3114,88.64685 L48.3639,88.64685 L48.5289,88.7151 L48.5679,88.7691 L48.7119,88.7691 L48.87765,88.85685 L48.91665,88.9161 L49.0689,88.9161 L49.2339,88.98435 L49.2729,89.0286 L49.42515,89.0286 C49.44765,89.0286 49.4694,89.0526 49.48665,89.08785 C49.53015,89.08785 49.5519,89.08785 49.5609,89.11635 L49.63065,89.17485 L49.7649,89.17485 L49.9389,89.24385 L49.9614,89.3121 L50.12265,89.3121 L50.2659,89.37585 L50.28765,89.43435 L50.34765,89.43435 L50.51415,89.50785 L50.5749,89.55135 L50.6964,89.55135 L50.8704,89.6391 L50.9229,89.69835 L51.04515,89.69835 L51.20565,89.77635 L51.22815,89.81085 L61.70265,89.81085 L61.70265,87.9666 L61.7769,87.78135 L61.9164,87.7176 L68.2179,87.7176 C68.2914,87.7176 68.3529,87.78135 68.40465,87.8496 L68.68815,87.8496 L68.84415,87.9186 L68.8749,88.01535 L68.9664,88.0746 L68.9964,88.14285 L69.0789,88.1721 L69.14865,88.36335 L69.14865,88.4316 L69.1794,88.45635 L69.2709,88.6281 L69.2709,88.7106 L69.30615,88.7151 L69.36615,88.89585 L69.36615,88.9161 L69.4149,88.98435 C69.4359,88.99935 69.4359,89.0286 69.4584,89.0526 C69.4749,89.0916 69.4974,89.1216 69.4974,89.1561 L69.4974,89.17485 L69.6624,89.24385 L69.7014,89.33685 L69.78465,89.37585 L69.80565,89.43435 L69.86715,89.43435 L70.0194,89.50785 L70.02765,89.55135 L70.1934,89.55135 L70.34565,89.6391 L70.4064,89.71785 L70.48065,89.77635 L70.51065,89.8446 L70.59315,89.9091 L70.6329,90.0021 L70.70715,90.02085 L70.7679,90.0996 L70.79865,90.0996 L70.9509,90.1731 L71.01165,90.3291 L71.01165,90.3636 L71.0724,90.4266 C71.0724,90.45135 71.0724,90.47085 71.09415,90.4806 L71.09415,90.5196 L71.1774,90.55935 L71.22465,90.65235 L71.2989,90.67185 L71.3379,90.75585 L71.3814,90.75585 L71.53365,90.8031 L71.5644,90.8916 L71.6469,90.9606 L71.67765,91.00935 L71.71665,91.00935 L71.89065,91.0776 L71.93415,91.24935 L71.93415,91.39035 L71.97315,91.39035 L72.11715,91.47885 L72.13965,91.57635 L72.21765,91.59585 L72.23865,91.70385 C72.3219,91.7136 72.3609,91.7481 72.38265,91.8006 L72.43515,91.8006 L72.5874,91.85985 L72.63915,92.0316 L72.63915,92.04585 L72.6699,92.04585 L72.81315,92.12985 L72.82215,92.19735 L72.89565,92.19735 L73.05765,92.26035 L73.05765,92.32035 L73.2399,92.32035 L73.40565,92.39235 L73.4364,92.4906 L73.52715,92.50635 L73.5489,92.60385 L73.61865,92.6526 L73.6704,92.75085 L73.7529,92.7846 L73.78365,92.83335 L73.9584,92.83335 C74.07915,92.83335 74.14065,92.95035 74.14065,93.09285 L74.14065,93.1611 L74.20215,93.1851 L74.2539,93.2736 L74.3364,93.3036 L74.34465,93.4056 L74.44965,93.4401 L74.51115,93.5916 L74.51115,93.64485 L74.5719,93.7086 L74.6334,93.88485 L74.6334,94.20285 C74.6754,94.24185 74.6934,94.26585 74.71515,94.30485 L74.77665,94.3641 L74.8809,94.53585 L74.8809,94.55535 L74.9199,94.6341 L74.98065,94.8051 L75.15465,94.89135 L75.20715,95.0541 L75.20715,95.1276 L75.2679,95.1516 L75.32865,95.31285 L75.32865,95.8416 L75.2679,96.0081 L75.20715,96.04635 L75.2679,96.06585 L75.32865,96.23685 L75.32865,96.4281 L75.39015,96.46785 L75.4419,96.6291 L75.4419,96.69735 L75.50265,96.7356 L75.5724,96.88785 L75.5724,96.96135 L75.5949,96.9801 L75.73815,97.11735 L75.7989,97.30335 L75.7989,97.4451 L75.8514,97.51785 L75.9729,97.63635 L76.00365,97.74885 L76.0779,97.76835 L76.14765,97.93935 L76.14765,97.9536 L76.16865,97.9536 L76.3299,98.0376 L76.3299,98.0961 L76.4949,98.0961 L76.66965,98.16885 L76.69065,98.22735 L76.7514,98.22735 L76.9044,98.3016 L76.92615,98.39835 L77.0349,98.4381 L77.08665,98.62935 L77.13015,98.6976 L77.17815,98.7606 L77.2314,98.7606 L77.37465,98.81985 L77.41815,98.92185 L77.4879,98.9511 L77.5179,99.0246 L77.60115,99.0786 L77.63115,99.14685 L77.79165,99.14685 L77.9574,99.22935 L77.97915,99.27885 L78.3879,99.27885 L78.54015,99.3486 L78.56265,99.44085 L78.6624,99.47535 L78.7059,99.5586 L78.77565,99.6111 L78.8064,99.70935 C78.8499,99.7146 78.8799,99.74385 78.8979,99.79785 L78.94965,99.79785 L79.03215,99.8316 L79.08465,99.79785 L79.1934,99.79785 L79.3584,99.87135 L79.3809,99.92985 L79.44165,99.92985 L79.5939,100.00335 L79.62465,100.0911 L79.70715,100.1451 L79.7679,100.3116 L79.7679,100.33035 L79.90365,100.33035 L80.0544,100.3986 L80.0859,100.4526 L80.2599,100.4526 C80.3289,100.4526 80.39415,100.5216 80.42565,100.58535 L80.70765,100.58535 L80.7519,100.60485 L80.7519,100.5561 L80.7909,100.3986 L80.8734,100.3461 L80.92515,100.2726 L81.0774,100.17435 L81.0774,100.15935 L81.16065,100.00335 L81.24315,99.9696 L81.2604,99.87135 L81.38715,99.7386 C81.42615,99.68085 81.4959,99.68085 81.57015,99.68085 L81.57015,99.64635 L81.57015,99.38685 L81.57015,99.3381 C81.57015,99.27885 81.54765,99.22935 81.57015,99.16185 C81.60915,99.06885 81.6699,99.01035 81.77415,99.01035 L81.80415,99.01035 L81.80415,98.9901 L81.80415,98.9511 C81.77415,98.8536 81.80415,98.7606 81.84315,98.6976 L81.8964,98.62935 L81.8964,98.4681 L81.9564,98.3016 L82.03065,98.2671 L82.03065,98.07585 L82.07865,97.90485 L82.1619,97.86585 L82.21365,97.76835 L82.28265,97.74885 L82.3269,97.63635 L82.3794,97.6161 L82.3794,97.39185 C82.3794,97.30335 82.47015,97.17135 82.57965,97.17135 L82.83615,97.17135 L82.8969,97.11735 C82.96215,97.0596 83.06265,97.02435 83.1324,97.0596 L83.1444,97.04385 L83.54115,97.04385 L83.54115,96.88785 L83.5929,96.7356 L83.7459,96.6576 L83.8194,96.6576 L83.8419,96.58935 L84.0024,96.5256 L84.10665,96.5256 L84.2589,96.58935 L84.2679,96.6576 L84.32865,96.6576 L84.37215,96.6831 C84.4419,96.6576 84.4944,96.6291 84.5334,96.6831 C84.59865,96.68685 84.63765,96.7701 84.64665,96.82335 L84.7374,96.85335 L84.7809,96.9126 L85.1079,96.9126 L85.12965,96.85335 L85.2819,96.7701 L85.4349,96.85335 L85.4559,96.9126 L86.0919,96.9126 C86.1744,96.9126 86.2134,96.96135 86.27415,97.04385 L86.6229,97.04385 L86.6619,96.9801 L86.78715,96.9126 L86.93115,96.9126 L87.03165,96.96135 L87.15315,96.9126 L87.28815,96.9801 L87.3054,97.04385 L87.37065,97.04385 L87.5319,97.11735 L87.5934,97.30335 L87.5934,97.37235 L87.64515,97.3866 L87.7149,97.54785 L87.7149,97.5771 L87.73665,97.5771 L87.87165,97.63635 L87.91065,97.71435 C87.95415,97.6896 87.99315,97.6896 88.0539,97.71435 C88.0929,97.74885 88.13715,97.80735 88.15815,97.86585 L88.2369,97.90485 L88.2894,98.07585 L88.2894,98.1396 L88.35015,98.16885 L88.38015,98.25735 L88.4634,98.3016 L88.4934,98.35935 L88.64565,98.35935 L88.81965,98.4381 L88.85115,98.5116 C88.92465,98.55585 88.9944,98.62935 88.9944,98.7276 L88.9944,98.87835 L89.00715,98.87835 L89.1819,98.9511 L89.1819,99.01035 L89.2419,99.01035 C89.32515,99.01035 89.4039,99.0891 89.4249,99.1821 L89.53815,99.22935 L89.54715,99.3186 L89.6514,99.3381 L89.6904,99.4161 L89.7204,99.4161 L89.85615,99.47535 L89.9379,99.64635 L89.9379,99.84735 L89.9994,99.87135 L90.01665,99.9696 L90.0909,100.00335 L90.1209,100.0716 L90.1824,100.0716 L90.3654,100.1451 L90.3954,100.3116 L90.3954,100.5021 L90.4479,100.5216 L90.50865,100.6926 L90.50865,101.0301 C90.5919,101.0736 90.6309,101.1336 90.6309,101.2266 L90.6309,101.2551 L90.69165,101.3226 L90.71265,101.41185 L90.81765,101.4456 L90.8649,101.61135 L90.8649,101.67585 L90.9309,101.7051 L90.97815,101.8761 L90.97815,102.0816 L91.03965,102.09135 L91.0614,102.1896 L91.1439,102.2241 L91.20465,102.3951 L91.20465,102.4731 L91.26615,102.49185 L91.3404,102.6636 L91.3404,102.73635 L91.38765,102.7566 L91.4094,102.80535 L91.44915,102.80535 L91.61415,102.89385 L91.69665,103.0656 L91.61415,103.24035 L91.5534,103.25535 L91.5534,103.37235 L91.61415,103.40685 L91.69665,103.59285 L91.69665,103.65585 L91.7184,103.66635 L91.7964,103.84785 L91.7964,104.0421 L91.8489,104.0721 L91.8579,104.13585 L91.93215,104.13585 L92.0844,104.2086 L92.12715,104.2821 L92.2059,104.33085 L92.21865,104.40435 L92.41065,104.40435 L92.53665,104.46885 L92.61465,104.6301 L92.61465,104.79585 L92.62815,104.79585 L92.7804,104.8641 L92.84115,105.0261 L92.84115,105.18735 L92.8719,105.18735 L93.02415,105.2601 L93.08565,105.42135 L93.08565,105.4896 L93.15015,105.50985 L93.1674,105.6081 L93.24165,105.64185 L93.33315,105.8136 L93.33315,106.1511 L93.36315,106.1601 L93.3939,106.2291 L93.4329,106.2291 L93.59865,106.29735 L93.6384,106.3956 L93.7209,106.4451 L93.73365,106.52235 L93.8424,106.57185 L93.9069,106.7376 L93.9069,106.7571 L93.98565,106.7721 L94.02915,106.7571 L94.1514,106.7571 L94.3164,106.82985 L94.3164,106.89885 L94.3869,106.89885 L94.5384,106.97235 L94.56915,107.06085 L94.6599,107.08485 L94.72515,107.2761 L94.72515,107.4471 L94.75665,107.47635 L94.8474,107.6526 L94.8474,108.30735 C94.8474,108.36135 94.8039,108.39585 94.8039,108.44535 L94.8039,108.47385 L94.88715,108.5331 L94.94715,108.70335 L94.94715,109.63335 L94.96065,109.63335 L95.13465,109.7106 L95.17365,109.88235 L95.17365,109.95135 L95.23515,109.9851 L95.2869,110.07285 L95.35665,110.12685 L95.41815,110.28885 L95.41815,110.34735 L95.46165,110.36685 L95.5224,110.4696 L95.5749,110.50335 L95.66565,110.67435 L95.66565,110.7336 L95.70465,110.7531 L95.7789,110.92335 L95.7789,111.0216 L95.80965,111.02685 L95.87865,111.19335 L95.87865,111.40335 L95.95215,111.4176 L96.0234,111.5886 L96.0234,111.7161 L95.97015,111.79035 L96.0234,111.84885 L96.0234,111.87735 L96.15765,111.95085 L96.23565,112.1076 L96.23565,112.39635 L96.7104,112.39635 L96.87165,112.45485 L96.89265,112.53885 L97.1889,112.53885 L97.34115,112.58685 L97.3719,112.7046 L97.4679,112.73835 L97.5069,112.8171 L97.5894,112.85535 L97.59765,112.94835 C97.6719,112.96335 97.7199,113.0121 97.74165,113.0811 L97.78065,113.04585 L98.00715,113.04585 L98.05965,113.0856 L98.1204,113.04585 L98.28615,113.1201 L98.2944,113.18835 L98.49015,113.18835 L98.6214,113.26635 L98.68215,113.33985 L98.70315,113.33985 L98.8554,113.39385 L98.88615,113.4816 L98.97765,113.51085 L99.0129,113.61885 L99.1044,113.6481 L99.1434,113.73585 L99.20415,113.7906 L99.24765,113.8386 L99.40815,113.8386 L99.4524,113.87385 C99.51315,113.8386 99.5514,113.82435 99.59115,113.87385 L99.63465,113.8386 L99.7569,113.8386 L99.90015,113.9076 L99.9699,113.98035 L100.92315,113.98035 L100.9629,113.98035 C101.0364,113.97585 101.10615,113.98035 101.1669,114.01935 C101.1669,114.01935 101.1669,113.98035 101.1879,113.98035 C101.27115,113.97585 101.37165,113.98035 101.4234,114.0486 L101.4759,114.10785 L101.49765,114.10785 L101.6589,114.19635 L101.6889,114.2691 L101.7804,114.3081 L101.80215,114.3966 L101.8854,114.44085 L101.9454,114.5136 L102.02865,114.5631 L102.03765,114.63135 L102.0894,114.63135 L102.23265,114.7101 L102.27165,114.7971 L102.3249,114.76785 L102.3459,114.76785 L102.3459,114.7341 L102.3984,114.5631 L102.55065,114.5001 L102.6204,114.5001 L102.6339,114.44085 L102.7854,114.36735 C102.55065,114.35685 102.5679,113.80935 102.4464,113.3106 C102.21165,112.41135 101.8629,111.48135 101.73315,110.57235 C101.71065,110.3316 101.73315,110.0781 101.7804,109.9071 C101.7414,110.02935 102.02865,109.6821 101.98965,109.7106 C102.0894,109.5396 102.1419,108.9576 102.20265,108.71835 C101.6589,108.98235 101.49765,108.66435 100.9629,108.6201 C101.0364,108.4296 100.9629,108.13185 100.9629,107.8626 C101.1489,108.03435 101.31015,108.36135 101.4759,108.5331 C101.4234,108.39585 102.1284,108.60135 101.80215,108.6306 C101.8854,108.6201 102.0894,108.6201 102.21165,108.47385 C102.3759,108.30735 102.49815,107.8536 102.5979,107.59335 C102.68115,107.32485 102.8679,106.97235 102.8079,106.7571 C102.8079,106.7031 102.5979,106.72335 102.55965,106.65885 C102.27165,106.0821 102.3459,106.34685 101.9064,105.9846 C102.1419,106.0476 102.5679,105.9021 102.8079,105.97035 C103.1124,106.0476 102.8679,106.29735 103.17315,106.10685 C103.43865,105.97035 103.66515,105.18735 103.7649,104.90385 C103.5819,105.0741 103.37715,104.90385 103.21665,104.6496 C103.37715,104.82135 103.5609,104.6736 103.7649,104.4921 C103.7649,104.6301 103.8474,104.74185 103.8474,104.8296 C103.93065,104.6391 103.9914,104.42385 104.10465,104.24835 C104.10465,104.42385 104.08215,104.6496 104.0349,104.8296 C104.13465,104.5566 104.31765,103.25535 104.60415,103.25535 C104.6784,103.25535 104.89215,103.66635 104.9319,103.70535 C105.1359,103.90185 104.9319,103.94085 105.29265,103.9056 C105.46665,103.8861 105.96765,103.47585 106.08015,103.37235 C105.6489,103.1181 105.32265,102.6636 105.1659,102.1311 C105.50565,102.0816 105.34065,102.33585 105.52815,102.4731 C105.9054,102.7566 106.26315,102.64935 105.9369,101.97435 C106.1409,102.0471 106.0584,102.3951 106.24065,102.4731 C106.3674,102.5076 106.5894,102.27285 106.8369,102.2241 C106.50615,103.1181 107.1204,102.4731 107.6034,102.64935 C107.3079,102.7956 106.98915,102.9471 106.7934,103.19685 C107.3244,102.9471 108.11265,102.5616 108.59565,102.14535 C108.33915,102.2766 108.0639,102.37485 107.7984,102.27285 C108.39015,102.09135 108.83865,102.0471 109.33065,101.72985 C109.91415,101.3226 110.1099,100.8636 110.51865,100.2426 C110.8059,99.7776 110.76315,100.1256 110.92815,100.0416 C111.3159,99.8316 111.66315,99.4551 111.9729,99.13335 C111.8289,99.02085 111.7374,99.06885 111.66315,98.87835 C111.66315,98.87835 111.5499,98.9616 111.5199,98.92185 C111.46815,98.81985 111.65565,98.62935 111.6114,98.55585 C111.5634,98.4681 111.3594,98.55585 111.2934,98.4576 C111.24615,98.3016 111.3984,98.17935 111.3594,98.05185 C111.2934,97.86585 111.16365,97.71435 111.1104,97.5426 C111.2934,97.5426 111.4899,97.6161 111.5634,97.80735 C111.7374,97.6701 112.0119,97.15185 112.2774,97.27335 C112.4424,97.3521 112.4604,97.6161 112.36815,97.80735 C112.0944,98.39835 111.91215,98.3211 112.39965,98.35935 C112.7169,98.35935 112.91265,98.20785 113.24865,98.3211 C112.99515,98.4381 112.14615,98.7606 112.0944,99.0891 C112.0944,99.3726 112.4604,98.8971 112.4604,98.87835 C112.74765,98.7276 113.00415,98.5896 113.29215,98.4576 C113.6184,98.3016 113.9139,98.17935 114.22215,98.0376 C114.73215,97.80735 115.1019,97.8261 115.61115,97.6806 C115.3674,97.3521 115.7154,96.6291 115.83765,96.27135 C115.7769,96.69735 115.67115,97.1616 115.67115,97.6161 C116.2164,97.2156 116.7384,97.4451 117.3519,97.2501 C117.7089,97.1616 117.23865,97.00035 117.24765,96.96135 C117.26115,96.92685 117.1254,96.88785 117.1479,96.86835 C117.1479,96.7701 117.31215,96.82335 117.33015,96.7701 C117.31215,96.82335 117.50415,96.5646 117.50415,96.5646 C117.55665,96.43785 117.54765,96.03735 117.59565,95.87535 C117.7914,95.9976 117.67815,96.1791 117.76065,96.3246 C118.23165,96.9801 119.2449,97.2501 119.89815,97.5921 C120.51165,97.9101 121.06365,98.35935 121.6689,98.3016 C121.87365,98.25735 122.13915,98.1441 122.3649,98.1306 C122.26065,98.0961 121.93515,97.76835 121.93515,97.6806 C121.87365,97.39185 121.87365,97.6806 122.0694,97.4601 C122.26065,97.27335 122.91765,97.04385 123.17115,97.0596 C123.2829,97.07835 123.8364,97.37235 123.9714,97.4601 C123.9924,97.51785 123.9804,97.7826 124.08465,97.9101 C124.20615,98.07585 125.06415,98.62935 125.2074,98.5896 C125.31165,98.5311 125.3724,98.1441 125.4339,98.0661 C125.51565,98.3016 125.25015,98.38485 125.29815,98.6631 C125.31165,98.93235 125.6589,99.0786 125.8209,99.2451 C126.2904,99.6996 126.96915,100.5216 127.5399,100.15935 C127.6839,100.0911 127.90965,99.7146 127.83615,99.5391 C128.27565,99.2601 128.85015,99.22935 129.1149,99.79785 C129.2499,100.1256 128.93265,100.5021 129.4239,100.3461 C130.0464,100.1256 129.4239,99.47535 129.97665,99.47535 C129.8424,99.2601 129.93315,99.2451 129.8424,99.0006 C129.81165,98.92185 129.97665,98.9511 129.8724,98.7906 C129.75915,98.5611 129.49365,98.62935 129.4029,98.22735 C129.6459,98.3406 130.87365,98.55585 130.68165,98.81985 C131.18265,99.16185 131.48715,99.42135 132.06165,99.70935 C131.9784,99.87135 132.14415,100.00335 132.28815,100.19385 C132.46215,100.4091 132.7359,99.79785 132.7359,100.2576 C132.7359,100.4526 132.3879,100.94685 132.31815,101.17185 C132.58365,100.9131 132.99315,100.98135 133.29765,100.8636 C133.1244,100.5561 134.01465,100.10535 133.4229,100.17435 C133.6149,100.1451 133.7064,100.0416 133.74165,99.9696 C133.5759,99.9486 133.4109,99.87135 133.2669,99.7776 C133.6149,99.47535 132.53115,99.2601 132.3879,99.1821 C132.4314,99.16185 132.51465,99.1071 132.53115,99.0891 C132.28815,99.0786 132.0219,99.06885 131.7564,99.01035 C131.78715,98.9901 131.82615,98.9901 131.85765,98.9511 C131.84865,98.7906 131.7744,98.92185 131.84865,98.7276 C131.4789,98.5311 131.2959,98.4381 131.0694,98.0961 C131.37765,98.0376 131.69115,98.00835 131.97015,97.9296 C131.9394,97.86585 131.88765,97.80735 131.8179,97.76835 C131.82615,97.76835 131.88765,97.74885 131.88765,97.74885 C131.79615,97.76835 131.48715,97.7196 131.5524,97.5771 C131.61315,97.3086 132.2439,97.37235 132.49215,97.2156 C132.4404,97.00035 132.3879,96.9951 132.51465,96.8286 C132.4494,96.82335 132.3879,96.82335 132.31815,96.82335 C132.28815,96.7701 132.3879,96.7356 132.3879,96.69735 C132.28815,96.69735 132.2664,96.69735 132.2049,96.6831 C132.57465,96.5016 132.0399,96.3741 131.9784,95.90985 C131.9619,96.2031 131.7744,96.08085 131.65215,96.27135 C131.32665,96.8001 131.5524,96.7701 131.12115,96.6831 C131.0394,96.6291 130.6299,96.5016 130.65165,96.2961 C130.66065,96.1791 131.13915,96.08085 131.2434,95.87535 C130.87365,95.7726 128.5104,96.31035 128.4489,95.6211 C128.40165,95.10735 130.01565,94.75635 130.40415,94.8966 C130.7649,95.03985 131.69115,95.55285 131.9619,95.2446 C132.28815,94.84785 132.4494,94.5501 132.9234,94.4811 C133.4229,94.38435 133.9239,94.2756 134.40315,94.30485 C135.23415,94.37385 136.09215,94.6341 136.90965,94.70685 C137.1144,94.74585 137.30115,93.47385 137.3709,93.22485 C137.40165,93.1221 137.4399,93.0096 137.49315,92.89185 C137.5449,93.1851 137.7279,93.1221 137.8329,93.4056 C137.8929,93.64485 137.7279,93.85035 137.7714,94.0266 C137.8494,94.2756 138.0594,94.20285 138.18015,94.37385 C138.25815,94.5201 138.25815,94.82385 138.4854,95.0541 C138.63765,95.2446 139.0509,95.0541 139.1814,94.86285 C139.12065,94.84785 139.08165,94.84785 139.0164,94.8441 C139.4604,94.74585 139.5384,94.5201 139.7124,94.0266 C139.62915,94.37385 139.5084,94.6341 139.42515,94.95585 C139.7334,94.8051 140.2044,94.69185 140.4519,94.37385 C140.6739,94.07535 140.53065,93.92385 140.6739,93.5916 C140.7354,93.7281 140.87865,93.83085 140.93115,93.9381 C141.27015,93.22485 141.4749,93.5916 141.6579,94.24185 C141.4749,94.1346 140.8404,94.5201 140.61315,94.60785 C141.89265,94.30485 143.2119,94.1736 144.52215,94.0266 C144.52215,94.24185 144.54315,94.1586 144.6039,94.37385 C144.43815,94.34535 144.2124,94.2756 144.06015,94.29135 C144.06015,94.29135 144.14265,94.37385 144.14265,94.34535 C143.46765,94.1046 144.1734,94.60785 144.3864,94.74585 C144.56115,94.8441 145.8534,95.74335 146.0574,95.6361 C146.26215,95.51385 145.72665,95.16585 145.6044,95.1516 C145.86165,95.0541 146.5449,94.74585 146.67165,94.91685 C146.6274,94.97985 146.2494,95.1276 146.2494,95.2056 C146.26215,95.27385 147.1809,95.92935 147.3024,96.0711 C147.0804,95.9826 146.17965,95.41635 146.3319,95.7726 C146.39265,95.90985 146.64915,96.04635 146.7624,96.13935 C146.7414,96.15885 146.68815,96.13935 146.67165,96.15885 C146.83215,96.39285 147.15915,96.43785 147.35415,96.6831 C147.43665,96.7461 147.46815,96.85335 147.5364,96.94635 C147.87615,97.51785 147.8994,97.6701 148.3899,97.4451 C148.2549,97.51785 148.1514,97.5771 147.9804,97.63635 C149.1429,97.1616 150.2919,96.6831 151.4589,96.2031 C152.0199,95.9781 152.2329,95.7726 152.70315,95.9781 C153.09465,96.13935 153.56415,96.4281 153.8514,96.7701 C154.11765,97.07835 154.17915,97.3866 154.4664,97.6806 C154.73115,97.92435 154.64865,97.86585 154.7919,98.1396 C154.8744,98.3016 154.7919,98.39835 154.9974,98.62935 C155.5404,99.16185 156.3684,99.42135 156.87615,100.00335 C157.1244,100.2576 157.75965,101.41635 157.6029,101.73885 C157.3509,101.7051 157.6029,101.91585 157.6344,102.14535 C157.6554,102.32535 157.59465,102.4341 157.59465,102.5856 C157.5639,102.9771 157.5249,103.25535 157.45065,103.60335 C157.3689,103.94085 157.1244,104.24835 157.0509,104.54085 C156.99015,104.8296 157.1244,105.12885 157.02015,105.4506 C157.00215,105.57285 156.8679,105.67635 156.8679,105.7641 C156.84615,106.1601 157.1244,106.61985 157.3299,106.97235 C157.3074,106.89885 157.28565,106.7721 157.25565,106.6986 C157.59465,107.0016 157.59465,106.7571 157.67715,106.5516 C157.86015,106.09185 157.6554,106.0476 157.3509,105.7446 C157.92165,106.0476 158.0949,106.52235 158.4519,105.8136 C158.7699,106.5516 157.75965,107.0166 157.8204,107.68635 C157.73865,107.67135 157.6344,107.67135 157.5729,107.61735 C157.6344,107.92035 157.8384,108.13185 157.94265,108.45885 C158.19915,109.41285 158.8134,110.2146 159.4569,110.92335 C159.4569,110.83185 159.35265,110.49435 159.3744,110.4456 C159.4569,110.2446 159.7014,110.12685 160.08015,110.02935 C160.0929,110.0046 159.8979,110.29785 159.8979,110.2146 C159.8979,110.2341 159.79215,110.2341 159.76215,110.29785 C159.7449,110.40135 159.84465,110.50335 159.82365,110.57685 C159.7224,111.0711 159.76215,111.62835 159.9054,112.1271 C160.31415,112.1076 160.37565,111.48135 160.84515,111.28635 C160.54965,111.55485 160.3884,111.8331 160.2009,112.2396 C160.84515,112.34235 160.8984,114.44085 161.04165,114.9006 C161.1159,114.88485 161.29815,114.76785 161.3679,114.8016 C161.7984,115.01235 162.4644,115.95135 162.8739,116.43585 C163.0689,116.6406 164.3364,117.8841 163.9359,118.01535 C163.84365,118.05435 163.52715,117.74685 163.4484,117.67335 C163.37415,117.90285 163.4049,118.1916 163.4484,118.44135 C163.6524,118.43085 163.81365,118.3476 164.03115,118.30335 C164.13165,118.30335 164.18415,118.1721 164.26665,118.1721 C164.37465,118.1721 164.50965,118.2846 164.6454,118.29435 C164.8974,118.29435 164.92815,118.2066 165.0849,118.1136 C165.3894,117.90285 165.3894,117.90285 165.7989,118.1526 C165.7374,118.08435 165.70665,118.01535 165.65565,117.96735 C165.72915,118.0011 165.90315,118.04985 166.00215,118.13685 C165.88065,117.96735 165.94215,117.90285 166.00215,117.74685 C166.2504,117.2586 166.5159,116.75835 166.72065,116.22585 C167.27415,114.75435 167.2089,113.1201 167.29065,111.55485 C167.35215,110.50335 167.27415,109.33935 166.3509,108.8601 C166.5159,108.90435 166.64715,108.98235 166.7994,109.0896 C166.3509,108.3756 166.2894,107.51535 166.00215,106.7571 C165.7374,106.0821 165.3894,105.4506 165.1329,104.74185 C164.81415,103.81335 164.5929,102.7956 164.34465,101.8266 C164.5494,101.91585 164.6454,103.16235 165.04065,102.61935 C165.1329,103.24035 165.1329,103.84785 165.18465,104.46885 C165.67665,103.0656 165.24615,102.72285 164.6919,101.6511 C164.3664,101.03535 164.0184,100.44285 163.7529,99.81285 C163.54815,99.3186 163.36515,98.81985 163.1784,98.3016 C162.91215,97.5231 162.7299,96.68685 162.5259,95.87535 C162.3294,95.10735 161.91165,94.20285 161.89065,93.4056 C161.8599,92.72985 161.67765,91.59585 161.93415,90.99435 C162.03315,90.75585 162.11715,90.5196 162.23865,90.7896 C163.2219,90.3096 162.41265,90.24135 161.9649,89.92785 C162.00315,89.95785 162.2604,90.07035 162.2994,90.0411 C162.42165,89.91435 162.44265,89.71785 162.5469,89.60535 C162.69915,89.4396 162.9354,89.33685 163.07865,89.1606 C162.97365,89.24385 162.8214,89.24385 162.69015,89.3121 C162.75165,88.9161 162.9354,88.3971 162.7299,88.08885 C162.8739,88.10385 163.13865,88.28535 163.2744,88.2306 C163.5084,88.1721 163.81365,87.43935 163.90515,87.24885 C164.1399,86.90085 164.98815,86.2071 164.95815,85.8591 C164.92815,85.73685 164.73615,85.77585 164.73615,85.76085 C164.5494,85.3746 164.3889,84.89535 164.3364,84.47535 C164.4279,84.49485 164.5494,84.60285 164.5929,84.6516 C164.26665,85.45335 165.3069,84.38235 165.02415,85.2576 C165.0849,85.2576 165.09315,85.22385 165.1329,85.22385 C165.1329,85.24335 165.09315,85.34085 165.1014,85.3746 C165.36765,85.39935 165.90315,85.47285 165.90315,85.07235 C165.88065,85.11585 165.8199,85.1691 165.7764,85.2036 C165.90315,84.59235 165.3279,84.7536 165.00165,84.5346 C165.1629,84.56835 165.4104,84.47535 165.53265,84.47535 C165.6369,84.46035 165.66765,84.6516 165.7989,84.63585 C166.0329,84.60285 166.3119,84.2496 166.5159,84.0936 C166.63815,84.0006 167.17815,84.01485 167.3124,84.0006 C167.4354,83.97135 167.4654,83.9031 167.51715,83.7906 L167.51715,83.96085 C167.59965,83.6436 167.6994,83.31135 167.7219,82.9836 C168.0924,83.35035 167.91765,83.4231 168.3354,83.31135 C168.79665,83.19435 169.18365,82.53435 169.5849,82.2846 C169.8279,82.0986 170.7504,81.74535 170.40315,81.28185 C170.2374,81.0366 170.0244,80.90535 170.2374,80.58135 C170.44215,80.74785 170.5164,81.01185 170.5464,81.28185 C170.7504,80.45985 170.8734,80.0391 171.4164,79.4331 C171.8349,78.9921 172.33515,78.6156 172.77465,78.2046 C173.1354,77.8971 174.12765,78.10785 174.57615,78.0876 C175.3119,78.0876 175.18965,77.3451 175.1679,76.7136 C175.3119,77.0901 175.2729,77.4516 175.3119,77.8776 C175.3644,77.67735 175.3944,77.4381 175.4334,77.2281 C175.6989,76.44885 176.52165,75.9066 177.0924,75.35385 C176.8479,75.5106 176.6439,75.6816 176.3949,75.7986 C176.59965,75.5106 177.67515,75.06135 177.18315,74.8551 C177.46215,74.5911 177.2439,74.3421 177.1344,74.0331 C177.2139,74.0631 177.3789,74.2686 177.3399,74.2686 C177.49215,74.2686 178.0314,73.97985 178.20615,74.0331 C178.5669,74.0976 178.20615,74.30235 178.6809,74.2686 C179.0154,74.2536 179.4159,73.99935 179.77215,73.8771 C180.2124,73.73985 181.1049,73.5786 181.3869,73.11885 C181.6569,72.74235 180.9384,73.10385 180.8259,73.1481 C181.12215,72.5031 180.5214,73.0611 180.35565,73.10835 C180.2814,73.11885 180.2124,72.92835 180.0819,72.96285 C179.9379,72.96285 179.79465,73.2171 179.6289,73.25085 C179.12865,73.2906 178.6809,72.5661 178.4934,72.1056 C178.8024,72.5031 179.0154,72.71835 179.4849,72.5661 C179.9769,72.4146 181.11315,71.87685 180.5214,71.3781 C179.8734,70.81485 179.0364,71.0406 178.5759,70.3311 C179.1204,70.7181 179.7204,70.78635 180.3249,70.9086 C180.2814,70.71285 180.24315,70.3311 180.35565,70.19835 C180.49065,70.07235 180.3774,70.51185 180.3249,70.43835 C180.4254,70.6251 180.49065,70.74735 180.56865,70.82985 C180.79515,70.67385 181.0824,70.51185 181.02165,70.9086 C181.84065,70.9086 183.8544,70.19835 183.5589,68.92785 C183.4239,68.49735 183.2109,68.38035 182.80215,68.4771 C182.40915,68.55135 182.47515,69.36285 182.3484,69.72885 C182.2659,69.4071 182.16615,68.74185 182.40915,68.39385 C182.40915,68.3601 182.34015,68.39385 182.34015,68.39385 C182.47515,68.0526 182.0229,67.99335 181.8174,68.06685 C181.63515,68.1306 181.59165,68.38035 181.43115,68.4141 C181.3269,68.4291 181.19565,68.3466 181.0389,68.3601 C181.0824,68.03235 180.1209,68.39385 179.79465,68.3211 C180.04665,68.00385 179.7504,67.8711 179.68965,67.51335 C179.6724,67.3281 179.8734,66.2481 179.9379,66.5901 C179.99865,66.7911 179.8119,66.81435 179.79465,67.0146 C179.79465,68.1306 180.4689,68.06685 181.31715,67.55235 C181.1049,67.4841 180.9174,67.31385 180.8049,67.07385 C181.0824,67.3086 181.3479,67.4796 181.73565,67.51335 C181.6044,67.38285 181.5129,67.22985 181.44765,67.04985 C181.6569,67.33335 181.93965,67.33335 182.2659,67.24485 C182.0964,67.04985 181.7964,66.7266 181.75665,66.50235 C181.93965,66.7266 182.47515,67.1721 182.81865,67.22985 C182.62665,67.06935 182.63565,66.7911 182.55315,66.5316 C182.81865,66.7911 182.92365,67.4406 183.31065,67.67085 C183.02415,66.7911 182.59665,66.2136 182.39265,65.3856 C182.7579,65.4501 182.65815,64.9221 182.74065,64.58985 C182.92365,65.00985 182.9844,65.52885 183.1494,65.95935 C183.0669,65.41635 182.84115,63.9051 182.47515,63.59685 C182.39265,63.54735 181.98315,63.6456 181.84065,63.57735 C181.43115,63.38535 181.5129,63.5286 181.3269,63.59685 C181.41765,63.56235 181.3269,63.74835 181.2954,63.7671 C181.12215,63.86535 180.73365,63.8556 180.5304,63.8706 C180.93015,63.59685 180.18165,62.6331 179.95515,62.31585 C180.18165,62.46135 180.3774,62.67135 180.5214,62.8431 C180.75615,63.17535 180.93015,63.49935 181.23465,63.2001 C181.23465,62.67135 181.1649,62.27085 180.8559,61.9236 C180.8559,61.9101 180.8349,61.9101 180.8259,61.8846 C180.8349,61.89435 180.8559,61.9101 180.8784,61.9236 C180.8349,61.89435 180.8049,61.8756 180.7734,61.84035 C180.73365,61.81185 180.70365,61.7961 180.6909,61.76235 C180.90015,61.9101 181.0389,61.96785 181.0824,61.73835 C181.3869,61.73835 181.43115,61.72335 181.5744,61.50285 C181.84065,60.9021 181.12215,60.49635 180.7734,60.1251 C180.73365,60.0951 180.6909,60.05535 180.6519,60.0216 C180.7734,59.52285 180.73365,60.0366 180.8559,60.0366 C180.93015,60.0366 180.9384,60.0951 180.97815,60.0951 C181.19565,60.08985 181.43115,59.4831 181.4919,59.2146 C181.63515,58.7106 181.63515,58.9701 181.3869,58.6626 C181.0824,58.28985 180.2124,57.8601 179.83365,57.6891 C179.56815,57.5961 179.15865,57.5121 178.9149,57.30735 C178.77165,57.16935 178.62765,56.85735 178.4934,56.65185 C178.3194,56.39235 178.36215,56.65185 178.18815,56.63685 C178.0314,56.62185 177.8574,56.79285 177.66615,56.6706 C177.62265,56.63685 177.5529,56.6706 177.50115,56.65185 C177.87915,55.7376 178.6809,54.94935 178.5144,53.9226 C178.8024,54.64185 178.2969,55.26285 178.0314,55.9281 C177.9099,56.1381 177.7494,56.41185 177.9534,56.53035 C178.18815,56.65185 178.2969,56.3286 178.2879,56.1531 C178.39365,56.41185 178.5669,56.3046 178.63665,56.0706 C178.7274,56.23635 178.84965,56.7741 179.05515,56.84235 C179.1984,56.8911 179.3424,56.5146 179.4339,56.5641 C179.6724,56.74935 179.8944,56.95035 180.1209,57.1356 C180.5214,57.4581 180.9174,57.78735 181.3269,58.0656 C181.24365,57.8601 181.17465,57.5466 181.11315,57.32685 C181.0824,57.2391 181.1049,56.8911 181.0824,56.87685 C181.02165,56.79285 180.8559,56.94585 180.75615,56.85735 C180.18165,56.3286 180.00765,56.0211 179.95515,55.07235 C180.04665,55.9431 180.2124,56.19285 181.0824,56.53035 C180.93015,56.09985 180.6519,55.9281 180.5829,55.46835 C180.5514,55.2186 180.56865,54.90135 180.6219,54.6471 C180.8349,53.67285 180.8259,53.86485 180.3864,53.07585 C180.5214,53.2476 180.6519,53.44785 180.8559,53.44785 C180.6294,53.02335 180.3774,52.61685 180.2124,52.16685 C180.6294,52.1961 180.7734,51.77085 181.12215,51.49185 C181.31715,51.34035 181.2954,51.5901 181.5219,51.28185 C181.6569,51.06735 181.69665,51.13035 181.6569,51.34035 C182.0229,51.0861 182.37915,50.7681 182.74065,50.4651 C183.49815,50.7246 182.74065,50.74335 182.9844,51.0861 C182.8719,51.0861 182.47515,51.2376 182.47515,51.39435 C182.4324,51.60435 182.92365,51.53085 183.10665,51.60435 C182.59665,51.68835 182.13615,51.51135 181.84065,51.9276 C181.69665,52.1526 181.63515,52.45485 181.5219,52.6806 C181.75665,52.7541 182.0229,52.7346 182.2569,52.76835 C182.0664,52.91985 182.0229,53.1546 181.9089,53.38935 C181.84065,53.59035 181.36965,53.1741 181.31715,53.3946 C181.24365,53.62935 181.19565,53.9226 181.17465,54.1821 C181.19565,54.02085 181.3869,53.7276 181.5219,53.76135 C181.63515,53.76135 182.1054,54.34335 182.0664,54.49035 C182.0664,54.6216 181.69665,54.7251 181.6044,54.7596 C181.85715,55.1796 182.13615,55.2186 182.61465,55.41435 C182.39265,55.63935 182.2659,55.44885 182.0664,55.41435 C181.75665,55.39485 181.89165,55.2186 181.5129,55.5021 C181.2654,55.6941 181.7964,55.63935 181.84065,55.6101 C181.73565,55.77135 181.24365,55.9176 181.3269,56.1186 C181.44765,56.34885 181.5744,56.5776 181.69665,56.8086 C181.69665,56.7351 181.69665,56.5491 181.6569,56.4471 C182.0229,56.63685 182.4924,57.7521 182.4324,56.74935 C182.47515,56.8911 182.59665,57.00885 182.65815,57.1461 C182.71815,56.87685 182.84115,56.62185 183.08865,56.4471 C183.05865,56.6706 183.2109,56.95035 183.1494,57.17985 C183.10665,57.3516 182.83215,57.5466 182.74965,57.7521 C182.92365,57.49785 183.10665,57.95685 183.4539,57.87435 C183.31065,58.04985 182.84115,58.5351 183.02415,58.6971 C182.9454,58.6221 183.8334,58.5351 183.8334,58.5351 C183.2934,59.59635 182.71815,60.50985 182.4924,61.70385 C182.44065,61.97835 182.5149,62.6136 182.92365,62.39835 C183.1194,62.29485 182.9934,61.6056 183.12765,61.36185 C183.31065,61.0191 183.76365,60.94635 183.9549,60.5886 C184.02915,60.4521 183.98565,60.3051 184.06815,60.0951 C184.1424,59.79585 184.28565,59.52285 184.4379,59.2341 C184.6329,58.7406 184.84665,58.2606 185.09115,57.80085 C185.2959,57.3516 185.6259,56.3781 185.9919,56.1381 C185.96865,56.3286 185.9619,56.53035 185.9919,56.7351 C186.0954,56.27535 186.0954,55.79535 185.9919,55.3461 C185.95215,55.54635 185.67315,55.54635 185.48265,55.44885 C185.7654,55.31235 185.86065,54.7791 185.95215,54.4551 C184.96065,54.04035 184.68165,52.3671 184.2729,51.39435 C184.1424,51.13035 183.9069,50.8521 183.96765,50.4651 C184.1889,49.51635 185.37765,48.9486 186.0129,48.5091 L185.95215,48.5091 C186.0129,48.48885 186.0954,48.47535 186.13515,48.44985 C185.59215,48.88485 184.76415,49.3116 184.4469,49.96635 C183.8634,51.1101 184.78515,51.5406 185.48265,52.2306 C185.82615,52.55835 186.58365,52.3671 186.66615,52.83135 C186.7104,53.08635 186.4224,53.53635 186.44415,53.84985 C186.6489,53.7666 187.52865,53.1651 187.2189,52.87635 C187.46715,52.78785 187.62765,52.3671 187.8114,52.1526 C187.74165,52.1331 187.68015,52.0836 187.6494,52.0836 C187.8114,51.90735 188.7939,51.68835 188.24115,51.4731 C188.4459,51.28185 188.73315,51.13035 188.8989,50.8761 C188.9379,50.8221 189.06015,50.4501 189.18615,50.26935 C189.4989,49.88385 189.2859,49.94685 189.3474,49.61385 C189.3864,49.44735 189.4989,49.34535 189.5304,49.2081 C189.6339,48.9096 189.6339,48.5871 189.80865,48.24435 C189.90765,48.69435 189.6339,49.1301 189.70365,49.6236 C189.86115,48.8466 189.8469,48.1461 190.0344,47.4426 C190.1259,47.08035 190.2174,46.71435 190.0644,46.49385 C189.8469,46.2681 189.06015,46.43085 188.97765,46.1661 C188.8989,45.85335 189.87765,45.01185 190.00365,44.57235 C190.0434,44.4831 190.0434,44.3556 190.0644,44.24385 L190.0644,44.42535 C190.3479,43.59435 190.30965,43.1586 190.2039,42.2541 C190.18665,42.17985 190.2039,42.12135 190.18665,42.06285 L190.18665,42.17985 L190.18665,42.00435 L190.18665,42.06285 C190.2039,42.4491 190.2699,42.83535 190.30965,43.23135 C190.37865,43.8486 190.0434,44.32185 190.0434,44.9331 C189.9819,45.0801 189.90765,45.23685 189.86115,45.3096 C190.1259,45.3351 190.37865,45.3351 190.63515,45.3096 L190.80915,45.3096 C191.27115,45.27585 191.73165,45.23685 192.1929,45.1836 C192.35415,45.1191 192.5199,45.0801 192.68115,45.03135 C192.8454,44.9976 193.0284,44.9436 193.2159,44.9331 C193.4994,44.8551 194.0649,44.7876 194.33865,44.7036 C194.5044,44.6211 194.6484,44.55285 194.8089,44.4936 C194.85165,44.4936 194.8824,44.4831 194.8914,44.4786 C195.07365,44.42535 195.24915,44.4786 195.46665,44.39535 C195.5574,44.3421 195.6099,44.32185 195.6264,44.22435 C195.70965,44.16585 195.78315,44.16585 195.8319,44.15085 C195.88365,44.15085 195.93615,44.16585 195.96615,44.16585 C196.1409,44.08785 196.32315,44.01885 196.5189,43.92135 C196.98015,43.67685 197.48115,43.4226 197.9814,43.19235 C197.2629,43.24635 196.5714,43.3446 195.8529,43.3446 C196.01865,43.1586 196.20165,42.88485 196.54965,42.71385 C195.6879,42.86985 194.8824,43.30035 194.0649,43.59435 C193.64265,43.69635 193.2939,43.65735 192.8679,43.78485 C192.47565,43.89135 191.1699,43.5201 191.29215,44.4156 C191.2179,44.24385 191.1789,44.2101 191.12715,44.2101 C191.08815,44.16585 191.0349,44.2101 191.0049,44.3421 C190.98315,44.3421 190.98315,44.3421 190.9614,44.3556 C190.88265,44.38185 190.86165,44.4786 190.77915,44.5176 C190.62615,44.52735 190.41315,44.4786 190.2864,44.57235 C190.2039,44.6211 190.1259,44.77185 190.0434,44.9331 C190.08315,44.79135 190.18665,44.55285 190.2699,44.4936 C190.37865,44.42535 190.4739,44.42535 190.5744,44.42535 C190.88265,44.39535 190.62615,44.32185 190.6794,44.24385 C191.0049,43.9551 191.20965,43.5546 191.5794,43.3446 C192.4149,42.90435 193.23315,42.43935 194.0949,42.0231 C194.57415,42.29235 195.6879,41.7501 196.28415,41.81835 C197.2944,41.9061 198.36915,42.0231 199.35165,41.66235 C199.76115,41.5101 199.73115,39.77385 199.76115,39.4416 C199.97415,40.1316 200.4054,39.8031 200.8059,39.5976 C200.50965,40.1901 200.50965,40.28835 200.75265,40.9521 C201.15465,40.6596 201.85965,39.85635 202.35915,39.8031 C202.62465,39.77385 202.6554,39.85635 202.54215,40.03335 C203.10765,40.1166 204.9969,40.39485 205.2444,39.9111 C205.3059,39.77385 205.22265,39.30885 205.20165,39.17235 C205.14015,38.8101 204.91815,38.2776 204.5874,38.1606 C204.5784,38.1606 203.95665,38.0046 204.03465,38.1606 C204.17865,38.3316 204.3744,38.09085 204.48765,38.20935 C204.67065,38.3556 204.6099,38.51685 204.70065,38.70285 C205.06215,39.4071 205.01865,39.5781 204.26115,39.7686 C203.9739,39.8376 203.5569,39.94035 203.21715,39.6861 C202.89015,39.4071 202.89015,38.7171 202.74765,38.3556 C202.58565,38.0676 202.3989,37.51935 202.19415,37.3236 C201.6549,36.7656 201.58065,37.63635 201.0804,36.63435 C201.39765,36.54135 201.62415,35.90085 201.9504,35.6751 C202.2159,35.5041 203.0559,35.3571 202.63365,34.98585 C202.54215,35.3571 202.35915,35.2356 202.2159,35.03535 C201.7464,34.38885 201.9504,33.32835 202.3989,32.78985 C203.0124,32.0226 204.01815,31.13235 204.27015,30.1296 C204.45765,29.3661 204.48765,29.3661 205.01865,28.9416 C205.00965,28.9656 204.9879,29.04285 204.95715,29.07735 C205.5099,28.88685 205.4799,28.88685 205.8144,29.5236 C205.7364,29.20485 205.66215,28.7361 205.7364,28.33935 C205.7364,28.3881 205.7364,28.4271 205.75365,28.5006 C205.75365,28.4271 205.77615,28.35885 205.77615,28.2906 C205.75365,28.6821 205.8144,29.04285 206.0199,29.3961 C206.13315,29.0046 206.1849,28.5441 206.35065,28.1886 C206.35065,28.1886 206.38065,28.1886 206.38065,28.18335 C206.2464,28.5006 206.27715,28.9071 206.57265,29.1126 C206.6244,28.9071 206.6244,28.7361 206.63715,28.5441 C206.63715,28.5651 206.65515,28.58385 206.65515,28.60335 L206.65515,28.5441 C206.65515,28.59885 206.6769,28.60335 206.7069,28.60335 C207.06315,28.5351 207.1464,28.2276 207.4119,27.9141 C207.3909,28.0851 207.4119,28.11885 207.3909,28.27635 C207.78165,28.27635 208.4124,28.27635 208.53915,27.75285 C208.1394,27.75285 209.0094,26.38335 209.10915,26.2071 C209.17065,26.0556 209.7144,24.8721 209.6844,25.50285 C209.6844,25.6596 209.5179,25.9236 209.4579,26.0406 C209.5314,25.9866 209.6844,25.9866 209.7834,25.94685 C209.66265,26.12385 209.4579,26.29035 209.42715,26.53935 C209.6844,26.3496 210.27615,26.82735 210.56265,26.9496 C210.44115,26.50035 210.56265,25.9626 210.8889,25.68435 C211.09365,25.50285 211.78965,25.37085 211.78965,25.6941 C212.18265,25.58085 212.06865,26.0946 212.28165,26.4171 C212.42565,26.1831 212.46465,25.8846 212.6079,25.6401 C212.6694,25.82085 212.75115,25.9866 212.87415,26.1096 C212.91765,25.77735 213.12165,25.39035 213.3129,25.10685 C213.7134,25.4046 214.36665,24.5436 214.85865,24.62235 C215.1159,24.66585 215.1459,25.0431 215.3724,24.8271 C215.6154,24.62235 215.90265,24.41235 216.1074,24.14835 L216.0984,24.04485 Z" id="Fill-1" fill="#B7B7B7" mask="url(#mask-2)"></path>
                </g>
                <path d="M42,80.9996115 C42,84.8661819 38.866008,88 35,88 C31.133992,88 28,84.8661819 28,80.9996115 C28,77.1338181 31.133992,74 35,74 C38.866008,74 42,77.1338181 42,80.9996115" id="Fill-4" fill="#2F1868" opacity="0.752743676"></path>
                <path d="M146,40 C146,43.866008 142.866008,47 139,47 C135.133992,47 132,43.866008 132,40 C132,36.133992 135.133992,33 139,33 C142.866008,33 146,36.133992 146,40" id="Fill-6" fill="#2F1868" opacity="0.752743676"></path>
                <path d="M117,82 C117,85.866008 113.866008,89 110,89 C106.133992,89 103,85.866008 103,82 C103,78.133992 106.133992,75 110,75 C113.866008,75 117,78.133992 117,82" id="Fill-8" fill="#2F1868" opacity="0.752743676"></path>
                <path d="M149,42 C149,45.866008 145.866008,49 142,49 C138.133992,49 135,45.866008 135,42 C135,38.133992 138.133992,35 142,35 C145.866008,35 149,38.133992 149,42" id="Fill-10" fill="#2F1868" opacity="0.752743676"></path>
                <path d="M174,64 C174,67.866008 170.866008,71 167,71 C163.134769,71 160,67.866008 160,64 C160,60.1332149 163.134769,57 167,57 C170.866008,57 174,60.1332149 174,64" id="Fill-12" fill="#2F1868" opacity="0.752743676"></path>
                <path d="M126,26 C126,29.866008 122.866008,33 119,33 C115.134769,33 112,29.866008 112,26 C112,22.1332149 115.134769,19 119,19 C122.866008,19 126,22.1332149 126,26" id="Fill-14" fill="#2F1868" opacity="0.752743676"></path>
                <path d="M59,79 C59,82.866008 55.866008,86 52,86 C48.133992,86 45,82.866008 45,79 C45,75.1332149 48.133992,72 52,72 C55.866008,72 59,75.1332149 59,79" id="Fill-16" fill="#2F1868" opacity="0.752743676"></path>
                <path d="M170,46 C170,49.866008 166.866008,53 163,53 C159.133992,53 156,49.866008 156,46 C156,42.1332149 159.133992,39 163,39 C166.866008,39 170,42.1332149 170,46" id="Fill-18" fill="#2F1868" opacity="0.752743676"></path>
                <path d="M124,44 C124,47.866008 120.866008,51 117,51 C113.133992,51 110,47.866008 110,44 C110,40.1332149 113.133992,37 117,37 C120.866008,37 124,40.1332149 124,44" id="Fill-20" fill="#2F1868" opacity="0.752743676"></path>
                <path d="M160,40 C160,43.866008 156.866008,47 153,47 C149.134769,47 146,43.866008 146,40 C146,36.1332149 149.134769,33 153,33 C156.866008,33 160,36.1332149 160,40" id="Fill-22" fill="#2F1868" opacity="0.752743676"></path>
                <path d="M119,94.9996115 C119,98.8661819 115.866182,102 111.999611,102 C108.134595,102 105,98.8661819 105,94.9996115 C105,91.1338181 108.134595,88 111.999611,88 C115.866182,88 119,91.1338181 119,94.9996115" id="Fill-24" fill="#2F1868" opacity="0.752743676"></path>
                <path d="M141,55.9996115 C141,59.8661819 137.866182,63 133.999611,63 C130.134595,63 127,59.8661819 127,55.9996115 C127,52.1338181 130.134595,49 133.999611,49 C137.866182,49 141,52.1338181 141,55.9996115" id="Fill-26" fill="#2F1868" opacity="0.752743676"></path>
                <path d="M162,48.9996115 C162,52.8661819 158.866182,56 154.999611,56 C151.134595,56 148,52.8661819 148,48.9996115 C148,45.1338181 151.134595,42 154.999611,42 C158.866182,42 162,45.1338181 162,48.9996115" id="Fill-28" fill="#2F1868" opacity="0.752743676"></path>
                <path d="M162,56.9996115 C162,60.8661819 158.866182,64 154.999611,64 C151.134595,64 148,60.8661819 148,56.9996115 C148,53.1338181 151.134595,50 154.999611,50 C158.866182,50 162,53.1338181 162,56.9996115" id="Fill-30" fill="#2F1868" opacity="0.752743676"></path>
                <path d="M180,68 C180,71.8667851 176.866182,75 173.000389,75 C169.134595,75 166,71.8667851 166,68 C166,64.133992 169.134595,61 173.000389,61 C176.866182,61 180,64.133992 180,68" id="Fill-32" fill="#2F1868" opacity="0.752743676"></path>
                <path d="M163,79 C163,82.8667851 159.866182,86 156.000389,86 C152.134595,86 149,82.8667851 149,79 C149,75.133992 152.134595,72 156.000389,72 C159.866182,72 163,75.133992 163,79" id="Fill-32-Copy" fill="#2F1868" opacity="0.752743676"></path>
                <path d="M191,67 C191,70.8667851 187.866182,74 184.000389,74 C180.134595,74 177,70.8667851 177,67 C177,63.133992 180.134595,60 184.000389,60 C187.866182,60 191,63.133992 191,67" id="Fill-32-Copy-2" fill="#2F1868" opacity="0.752743676"></path>
                <path d="M196,64 C196,67.8667851 192.866182,71 189.000389,71 C185.134595,71 182,67.8667851 182,64 C182,60.133992 185.134595,57 189.000389,57 C192.866182,57 196,60.133992 196,64" id="Fill-32-Copy-3" fill="#2F1868" opacity="0.752743676"></path>
                <path d="M190,53 C190,56.8667851 186.866182,60 183.000389,60 C179.134595,60 176,56.8667851 176,53 C176,49.133992 179.134595,46 183.000389,46 C186.866182,46 190,49.133992 190,53" id="Fill-32-Copy-4" fill="#2F1868" opacity="0.752743676"></path>
                <path d="M194,50 C194,53.8667851 190.866182,57 187.000389,57 C183.134595,57 180,53.8667851 180,50 C180,46.133992 183.134595,43 187.000389,43 C190.866182,43 194,46.133992 194,50" id="Fill-32-Copy-5" fill="#2F1868" opacity="0.752743676"></path>
                <path d="M195,47 C195,50.8667851 191.866182,54 188.000389,54 C184.134595,54 181,50.8667851 181,47 C181,43.133992 184.134595,40 188.000389,40 C191.866182,40 195,43.133992 195,47" id="Fill-32-Copy-6" fill="#2F1868" opacity="0.752743676"></path>
                <path d="M198,42 C198,45.8667851 194.866182,49 191.000389,49 C187.134595,49 184,45.8667851 184,42 C184,38.133992 187.134595,35 191.000389,35 C194.866182,35 198,38.133992 198,42" id="Fill-32-Copy-7" fill="#2F1868" opacity="0.752743676"></path>
                <path d="M185,51 C185,54.8667851 181.866182,58 178.000389,58 C174.134595,58 171,54.8667851 171,51 C171,47.133992 174.134595,44 178.000389,44 C181.866182,44 185,47.133992 185,51" id="Fill-32-Copy-8" fill="#2F1868" opacity="0.752743676"></path>
                <path d="M41.0145,57.124 C41.5075025,57.6170025 42.0684969,58.0377483 42.6975,58.38625 C43.3265031,58.7347517 44.0489959,58.909 44.865,58.909 C45.7490044,58.909 46.4672472,58.6922522 47.01975,58.25875 C47.5722528,57.8252478 47.8485,57.2260038 47.8485,56.461 C47.8485,56.0359979 47.7720008,55.6535017 47.619,55.3135 C47.4659992,54.9734983 47.2067518,54.6845012 46.84125,54.4465 C46.4757482,54.2084988 45.9870031,54.0257506 45.375,53.89825 C44.7629969,53.7707494 43.9980046,53.707 43.08,53.707 L43.08,51.565 C43.879004,51.565 44.5462473,51.5012506 45.08175,51.37375 C45.6172527,51.2462494 46.0507483,51.0677511 46.38225,50.83825 C46.7137517,50.6087489 46.9517493,50.3325016 47.09625,50.0095 C47.2407507,49.6864984 47.313,49.3380019 47.313,48.964 C47.313,48.2839966 47.1005021,47.7527519 46.6755,47.37025 C46.2504979,46.9877481 45.6640037,46.7965 44.916,46.7965 C44.2699968,46.7965 43.6877526,46.9367486 43.16925,47.21725 C42.6507474,47.4977514 42.1450025,47.8674977 41.652,48.3265 L40.1475,46.516 C40.8445035,45.9039969 41.588246,45.4110019 42.37875,45.037 C43.169254,44.6629981 44.0489952,44.476 45.018,44.476 C45.8000039,44.476 46.5139968,44.5694991 47.16,44.7565 C47.8060032,44.9435009 48.3584977,45.2197482 48.8175,45.58525 C49.2765023,45.9507518 49.6334987,46.4012473 49.8885,46.93675 C50.1435013,47.4722527 50.271,48.0799966 50.271,48.76 C50.271,49.6780046 50.0202525,50.4429969 49.51875,51.055 C49.0172475,51.6670031 48.3245044,52.1429983 47.4405,52.483 L47.4405,52.585 C48.4095048,52.8400013 49.2127468,53.3074966 49.85025,53.9875 C50.4877532,54.6675034 50.8065,55.5429946 50.8065,56.614 C50.8065,57.3620037 50.6577515,58.0249971 50.36025,58.603 C50.0627485,59.1810029 49.6547526,59.669748 49.13625,60.06925 C48.6177474,60.468752 48.0142534,60.7747489 47.32575,60.98725 C46.6372466,61.1997511 45.9020039,61.306 45.12,61.306 C43.7939934,61.306 42.6890044,61.0850022 41.805,60.643 C40.9209956,60.2009978 40.1900029,59.6570032 39.612,59.011 L41.0145,57.124 Z M53.058,61 L53.058,59.2915 L54.4420264,57.9394788 C55.0311272,57.3593984 55.5855331,56.8070741 56.10525,56.2825 C57.0147545,55.3644954 57.7882468,54.5145039 58.42575,53.7325 C59.0632532,52.9504961 59.5519983,52.2195034 59.892,51.5395 C60.2320017,50.8594966 60.402,50.2135031 60.402,49.6015 C60.402,48.7344957 60.1725023,48.0502525 59.7135,47.54875 C59.2544977,47.0472475 58.5915043,46.7965 57.7245,46.7965 C57.0954969,46.7965 56.5217526,46.9749982 56.00325,47.332 C55.4847474,47.6890018 55.0045022,48.1139975 54.5625,48.607 L52.9305,46.975 C53.6785037,46.175996 54.447746,45.5597522 55.23825,45.12625 C56.028754,44.6927478 56.9849944,44.476 58.107,44.476 C58.8890039,44.476 59.5944969,44.5949988 60.2235,44.833 C60.8525031,45.0710012 61.3879978,45.4067478 61.83,45.84025 C62.2720022,46.2737522 62.6162488,46.7964969 62.86275,47.4085 C63.1092512,48.0205031 63.2325,48.7004963 63.2325,49.4485 C63.2325,50.1625036 63.0752516,50.8892463 62.76075,51.62875 C62.4462484,52.3682537 62.0212527,53.1162462 61.48575,53.87275 C60.9502473,54.6292538 60.3255036,55.406996 59.6115,56.206 C58.8974964,57.005004 58.141004,57.8294957 57.342,58.6795 L58.719,58.56475 C59.2120025,58.5222498 59.653998,58.501 60.045,58.501 L64.023,58.501 L64.023,61 L53.058,61 Z M66.3765,64.0345 C67.1925041,63.7114984 67.8257477,63.2780027 68.27625,62.734 C68.7267523,62.1899973 68.952,61.5950032 68.952,60.949 L68.7225,60.949 C68.2294975,60.949 67.7917519,60.7917516 67.40925,60.47725 C67.0267481,60.1627484 66.8355,59.7165029 66.8355,59.1385 C66.8355,58.5944973 67.0267481,58.1567517 67.40925,57.82525 C67.7917519,57.4937483 68.2549973,57.328 68.799,57.328 C69.4960035,57.328 70.0357481,57.5914974 70.41825,58.1185 C70.8007519,58.6455026 70.992,59.3849952 70.992,60.337 C70.992,61.5950063 70.6477534,62.6829954 69.95925,63.601 C69.2707466,64.5190046 68.2890064,65.1989978 67.014,65.641 L66.3765,64.0345 Z M76.482,61 C76.5500003,59.5549928 76.6774991,58.233256 76.8645,57.03475 C77.0515009,55.836244 77.3192483,54.6930054 77.66775,53.605 C78.0162517,52.5169946 78.4624973,51.4587551 79.0065,50.43025 C79.5505027,49.4017449 80.2134961,48.3435054 80.9955,47.2555 L73.32,47.2555 L73.32,44.782 L84.2085,44.782 L84.2085,46.567 C83.2564952,47.7400059 82.4872529,48.8577447 81.90075,49.92025 C81.3142471,50.9827553 80.8510017,52.0707444 80.511,53.18425 C80.1709983,54.2977556 79.9287507,55.4834937 79.78425,56.7415 C79.6397493,57.9995063 79.5335003,59.4189921 79.4655,61 L76.482,61 Z M87.174,58.603 L90.795,58.603 L90.795,47.944 L87.8115,47.944 L87.8115,46.108 C88.6275041,45.9549992 89.3287471,45.7722511 89.91525,45.55975 C90.5017529,45.3472489 91.0499974,45.0880015 91.56,44.782 L93.753,44.782 L93.753,58.603 L96.9405,58.603 L96.9405,61 L87.174,61 L87.174,58.603 Z M100.3395,57.175 C100.832502,57.6340023 101.384997,58.0377483 101.997,58.38625 C102.609003,58.7347517 103.322996,58.909 104.139,58.909 C105.057005,58.909 105.809247,58.6370027 106.39575,58.093 C106.982253,57.5489973 107.2755,56.7840049 107.2755,55.798 C107.2755,54.8289952 107.003503,54.0810026 106.4595,53.554 C105.915497,53.0269974 105.193005,52.7635 104.292,52.7635 C103.764997,52.7635 103.323002,52.8357493 102.966,52.98025 C102.608998,53.1247507 102.184002,53.3584984 101.691,53.6815 L100.2885,52.789 L100.773,44.782 L109.443,44.782 L109.443,47.2555 L103.323,47.2555 L102.9915,51.1825 C103.331502,51.0124991 103.667248,50.8807505 103.99875,50.78725 C104.330252,50.6937495 104.708498,50.647 105.1335,50.647 C105.830503,50.647 106.489247,50.748999 107.10975,50.953 C107.730253,51.157001 108.269998,51.4672479 108.729,51.88375 C109.188002,52.3002521 109.553499,52.8272468 109.8255,53.46475 C110.097501,54.1022532 110.2335,54.8544957 110.2335,55.7215 C110.2335,56.6055044 110.076252,57.3959965 109.76175,58.093 C109.447248,58.7900035 109.026503,59.3764976 108.4995,59.8525 C107.972497,60.3285024 107.364753,60.6897488 106.67625,60.93625 C105.987747,61.1827512 105.269504,61.306 104.5215,61.306 C103.212493,61.306 102.111754,61.0807523 101.21925,60.63025 C100.326746,60.1797477 99.583003,59.657003 98.988,59.062 L100.3395,57.175 Z M112.6635,64.0345 C113.479504,63.7114984 114.112748,63.2780027 114.56325,62.734 C115.013752,62.1899973 115.239,61.5950032 115.239,60.949 L115.0095,60.949 C114.516498,60.949 114.078752,60.7917516 113.69625,60.47725 C113.313748,60.1627484 113.1225,59.7165029 113.1225,59.1385 C113.1225,58.5944973 113.313748,58.1567517 113.69625,57.82525 C114.078752,57.4937483 114.541997,57.328 115.086,57.328 C115.783003,57.328 116.322748,57.5914974 116.70525,58.1185 C117.087752,58.6455026 117.279,59.3849952 117.279,60.337 C117.279,61.5950063 116.934753,62.6829954 116.24625,63.601 C115.557747,64.5190046 114.576006,65.1989978 113.301,65.641 L112.6635,64.0345 Z M122.769,61 C122.837,59.5549928 122.964499,58.233256 123.1515,57.03475 C123.338501,55.836244 123.606248,54.6930054 123.95475,53.605 C124.303252,52.5169946 124.749497,51.4587551 125.2935,50.43025 C125.837503,49.4017449 126.500496,48.3435054 127.2825,47.2555 L119.607,47.2555 L119.607,44.782 L130.4955,44.782 L130.4955,46.567 C129.543495,47.7400059 128.774253,48.8577447 128.18775,49.92025 C127.601247,50.9827553 127.138002,52.0707444 126.798,53.18425 C126.457998,54.2977556 126.215751,55.4834937 126.07125,56.7415 C125.926749,57.9995063 125.8205,59.4189921 125.7525,61 L122.769,61 Z M135.195,56.5375 C135.195,57.3535041 135.483997,58.0037476 136.062,58.48825 C136.640003,58.9727524 137.345496,59.215 138.1785,59.215 C138.960504,59.215 139.602247,59.0025021 140.10375,58.5775 C140.605253,58.1524979 140.856,57.5575038 140.856,56.7925 C140.856,56.3504978 140.754001,55.9722516 140.55,55.65775 C140.345999,55.3432484 140.069752,55.0627512 139.72125,54.81625 C139.372748,54.5697488 138.960502,54.344501 138.4845,54.1405 C138.008498,53.936499 137.498503,53.7240011 136.9545,53.503 C136.444497,53.8770019 136.023752,54.3189975 135.69225,54.829 C135.360748,55.3390026 135.195,55.9084969 135.195,56.5375 Z M139.1985,51.8455 C139.640502,51.4034978 139.976249,50.9530023 140.20575,50.494 C140.435251,50.0349977 140.55,49.5505025 140.55,49.0405 C140.55,48.3264964 140.341752,47.7357523 139.92525,47.26825 C139.508748,46.8007477 138.918004,46.567 138.153,46.567 C137.523997,46.567 136.997002,46.7582481 136.572,47.14075 C136.146998,47.5232519 135.9345,48.0714964 135.9345,48.7855 C135.9345,49.193502 136.019499,49.5504985 136.1895,49.8565 C136.359501,50.1625015 136.593249,50.4302489 136.89075,50.65975 C137.188251,50.8892511 137.532498,51.101749 137.9235,51.29725 C138.314502,51.492751 138.739498,51.6754991 139.1985,51.8455 Z M132.6195,56.8435 C132.6195,56.3334975 132.700249,55.8702521 132.86175,55.45375 C133.023251,55.0372479 133.239999,54.6590017 133.512,54.319 C133.784001,53.9789983 134.094248,53.6730014 134.44275,53.401 C134.791252,53.1289986 135.160998,52.891001 135.552,52.687 L135.552,52.585 C134.922997,52.1429978 134.391752,51.6160031 133.95825,51.004 C133.524748,50.3919969 133.308,49.6525043 133.308,48.7855 C133.308,48.1224967 133.431249,47.5275026 133.67775,47.0005 C133.924251,46.4734974 134.264248,46.0230019 134.69775,45.649 C135.131252,45.2749981 135.649747,44.986001 136.25325,44.782 C136.856753,44.577999 137.506997,44.476 138.204,44.476 C138.935004,44.476 139.593747,44.5822489 140.18025,44.79475 C140.766753,45.0072511 141.268248,45.3047481 141.68475,45.68725 C142.101252,46.0697519 142.419999,46.5287473 142.641,47.06425 C142.862001,47.5997527 142.9725,48.1989967 142.9725,48.862 C142.9725,49.270002 142.908751,49.6567482 142.78125,50.02225 C142.653749,50.3877518 142.488001,50.7277484 142.284,51.04225 C142.079999,51.3567516 141.846251,51.6457487 141.58275,51.90925 C141.319249,52.1727513 141.060001,52.3979991 140.805,52.585 L140.805,52.687 C141.179002,52.891001 141.535998,53.1247487 141.876,53.38825 C142.216002,53.6517513 142.513499,53.9534983 142.7685,54.2935 C143.023501,54.6335017 143.227499,55.0159979 143.3805,55.441 C143.533501,55.8660021 143.61,56.3504973 143.61,56.8945 C143.61,57.5235031 143.478251,58.1057473 143.21475,58.64125 C142.951249,59.1767527 142.581502,59.644248 142.1055,60.04375 C141.629498,60.443252 141.051503,60.7534989 140.3715,60.9745 C139.691497,61.1955011 138.943504,61.306 138.1275,61.306 C137.328496,61.306 136.593253,61.1955011 135.92175,60.9745 C135.250247,60.7534989 134.672252,60.447502 134.18775,60.0565 C133.703248,59.665498 133.320751,59.1980027 133.04025,58.654 C132.759749,58.1099973 132.6195,57.5065033 132.6195,56.8435 Z M152.2875,54.5485 L152.2875,50.8765 L152.29362,50.2644999 C152.2977,50.0469004 152.30382,49.8157012 152.31198,49.570901 L152.32575,49.1935 C152.35125,48.5474968 152.381,47.9865024 152.415,47.5105 L152.313,47.5105 C152.108999,47.9355021 151.896501,48.351998 151.6755,48.76 L150.987,50.035 L150.987,50.035 L148.029,54.5485 L152.2875,54.5485 Z M157.0815,56.818 L155.0415,56.818 L155.0415,61 L152.2875,61 L152.2875,56.818 L145.122,56.818 L145.122,54.829 L151.548,44.782 L155.0415,44.782 L155.0415,54.5485 L157.0815,54.5485 L157.0815,56.818 Z" id="32,715,784" fill="#FFFFFF" fill-rule="nonzero"></path>
            </g>
        </g>
    </g>
</svg>