<?xml version="1.0" encoding="utf-8"?>
<!-- Generator: Adobe Illustrator 22.1.0, SVG Export Plug-In . SVG Version: 6.00 Build 0)  -->
<svg version="1.1" id="Layer_1" xmlns="http://www.w3.org/2000/svg" xmlns:xlink="http://www.w3.org/1999/xlink" x="0px" y="0px"
	 viewBox="0 0 12.2 16.2" style="enable-background:new 0 0 12.2 16.2;" xml:space="preserve">
<style type="text/css">
	.st0{fill:#00796B;}
</style>
<path class="st0" d="M6.1,15.3c-2.8,0-5.9-0.7-5.9-2.1c0-1.1,1.7-1.7,3.1-1.9c0.3-0.1,0.6,0.1,0.6,0.4s-0.1,0.6-0.4,0.6
	c-1.7,0.3-2.2,0.8-2.2,0.9c0.1,0.3,1.7,1.1,4.8,1.1s4.7-0.8,4.8-1.1c0-0.1-0.5-0.6-2.2-0.9c-0.3-0.1-0.5-0.3-0.4-0.6
	s0.3-0.5,0.6-0.4c1.4,0.2,3.1,0.8,3.1,1.9C12,14.6,8.9,15.3,6.1,15.3z M8.7,8.9c0,0.3-0.2,0.5-0.5,0.5H7.7v3.2
	c0,0.3-0.2,0.5-0.5,0.5H5c-0.3,0-0.5-0.2-0.5-0.5V9.4H3.9c-0.3,0-0.5-0.2-0.5-0.5V5.7c0-0.6,0.5-1.1,1.1-1.1h3.2
	c0.6,0,1.1,0.5,1.1,1.1V8.9z M6.1,4.3c-1,0-1.9-0.8-1.9-1.9S5,0.6,6.1,0.6s1.9,0.8,1.9,1.9S7.1,4.3,6.1,4.3z"/>
</svg>
