<?xml version="1.0" encoding="UTF-8"?>
<svg width="308px" height="70px" viewBox="0 0 308 70" version="1.1" xmlns="http://www.w3.org/2000/svg" xmlns:xlink="http://www.w3.org/1999/xlink">
    <!-- Generator: Sketch 59.1 (86144) - https://sketch.com -->
    <title>Group 492</title>
    <desc>Created with Sketch.</desc>
    <g id="Desktop" stroke="none" stroke-width="1" fill="none" fill-rule="evenodd">
        <g id="Homelessness-Section-3-2" transform="translate(-845.000000, -2319.000000)">
            <g id="Group-49" transform="translate(845.000000, 2314.000000)">
                <polygon id="Fill-1" fill="#E0E0E0" points="2.60025 37.494125 299.60025 37.494125 299.60025 27.744125 2.60025 27.744125"></polygon>
                <line x1="2.6001" y1="45.44435" x2="2.6001" y2="19.19435" id="Stroke-2" stroke="#D1D1D1" stroke-width="0.75" stroke-linecap="round"></line>
                <line x1="151.1001" y1="45.44435" x2="151.1001" y2="19.19435" id="Stroke-3" stroke="#D1D1D1" stroke-width="0.75" stroke-linecap="round"></line>
                <line x1="299.6001" y1="45.44435" x2="299.6001" y2="19.19435" id="Stroke-4" stroke="#D1D1D1" stroke-width="0.75" stroke-linecap="round"></line>
                <g id="Group-12" transform="translate(0.000000, 0.421125)" font-family="SourceSansPro-Semibold, Source Sans Pro" font-size="10.5" font-weight="500">
                    <text id="CLUSTER-MEDIAN:-3,019" fill="#2F1868">
                        <tspan x="38.367525" y="71.5948205">C</tspan>
                        <tspan x="44.415525" y="71.5948205" letter-spacing="-0.346500009">L</tspan>
                        <tspan x="48.993525" y="71.5948205" letter-spacing="-0.105">U</tspan>
                        <tspan x="55.661025" y="71.5948205" letter-spacing="-0.210000001">S</tspan>
                        <tspan x="60.963525" y="71.5948205">TER MEDIAN: 3,019</tspan>
                    </text>
                    <g id="Group-7" fill="#848484">
                        <text id="0">
                            <tspan x="-0.000375" y="10.8455705">0</tspan>
                        </text>
                    </g>
                    <g id="Group-9" transform="translate(291.000000, 0.000000)" fill="#848484">
                        <text id="10K">
                            <tspan x="0.030375" y="10.8455705">10K</tspan>
                        </text>
                    </g>
                    <g id="Group-11" transform="translate(145.500000, 1.000000)" fill="#848484">
                        <text id="5K">
                            <tspan x="0.298125" y="10.2205705">5K</tspan>
                        </text>
                    </g>
                </g>
                <line x1="32.2998" y1="45.44435" x2="32.2998" y2="19.19435" id="Stroke-13" stroke="#D1D1D1" stroke-width="0.75" stroke-linecap="round"></line>
                <g id="Group-15" transform="translate(27.000000, 1.421125)" fill="#848484" font-family="SourceSansPro-Semibold, Source Sans Pro" font-size="10.5" font-weight="500">
                    <text id="1K">
                        <tspan x="0.670875" y="10.2205705">1K</tspan>
                    </text>
                </g>
                <line x1="62.00025" y1="45.44435" x2="62.00025" y2="19.19435" id="Stroke-16" stroke="#D1D1D1" stroke-width="0.75" stroke-linecap="round"></line>
                <g id="Group-18" transform="translate(56.250000, 1.421125)" fill="#848484" font-family="SourceSansPro-Semibold, Source Sans Pro" font-size="10.5" font-weight="500">
                    <text id="2K">
                        <tspan x="0.66945" y="10.2205705">2K</tspan>
                    </text>
                </g>
                <line x1="91.69995" y1="45.44435" x2="91.69995" y2="19.19435" id="Stroke-19" stroke="#D1D1D1" stroke-width="0.75" stroke-linecap="round"></line>
                <g id="Group-21" transform="translate(86.250000, 1.421125)" fill="#848484" font-family="SourceSansPro-Semibold, Source Sans Pro" font-size="10.5" font-weight="500">
                    <text id="3K">
                        <tspan x="0.665775" y="10.2205705">3K</tspan>
                    </text>
                </g>
                <line x1="121.4004" y1="45.44435" x2="121.4004" y2="19.19435" id="Stroke-22" stroke="#D1D1D1" stroke-width="0.75" stroke-linecap="round"></line>
                <g id="Group-24" transform="translate(115.500000, 1.421125)" fill="#848484" font-family="SourceSansPro-Semibold, Source Sans Pro" font-size="10.5" font-weight="500">
                    <text id="4K">
                        <tspan x="0.66795" y="10.2205705">4K</tspan>
                    </text>
                </g>
                <line x1="180.7998" y1="45.44435" x2="180.7998" y2="19.19435" id="Stroke-25" stroke="#D1D1D1" stroke-width="0.75" stroke-linecap="round"></line>
                <g id="Group-27" transform="translate(174.750000, 1.421125)" fill="#848484" font-family="SourceSansPro-Semibold, Source Sans Pro" font-size="10.5" font-weight="500">
                    <text id="6K">
                        <tspan x="0.673125" y="10.2205705">6K</tspan>
                    </text>
                </g>
                <line x1="210.50025" y1="45.44435" x2="210.50025" y2="19.19435" id="Stroke-28" stroke="#D1D1D1" stroke-width="0.75" stroke-linecap="round"></line>
                <g id="Group-30" transform="translate(204.750000, 1.421125)" fill="#848484" font-family="SourceSansPro-Semibold, Source Sans Pro" font-size="10.5" font-weight="500">
                    <text id="7K">
                        <tspan x="0.29295" y="10.2205705">7K</tspan>
                    </text>
                </g>
                <line x1="240.19995" y1="45.44435" x2="240.19995" y2="19.19435" id="Stroke-31" stroke="#D1D1D1" stroke-width="0.75" stroke-linecap="round"></line>
                <g id="Group-33" transform="translate(234.000000, 1.421125)" fill="#848484" font-family="SourceSansPro-Semibold, Source Sans Pro" font-size="10.5" font-weight="500">
                    <text id="8K">
                        <tspan x="0.291525" y="10.2205705">8K</tspan>
                    </text>
                </g>
                <line x1="269.9004" y1="45.44435" x2="269.9004" y2="19.19435" id="Stroke-34" stroke="#D1D1D1" stroke-width="0.75" stroke-linecap="round"></line>
                <g id="Group-36" transform="translate(264.000000, 1.421125)" fill="#848484" font-family="SourceSansPro-Semibold, Source Sans Pro" font-size="10.5" font-weight="500">
                    <text id="9K">
                        <tspan x="0.67605" y="10.2205705">9K</tspan>
                    </text>
                </g>
                <line x1="93.3501" y1="63.7439" x2="93.3501" y2="47.6189" id="Stroke-37" stroke="#636363" stroke-width="1.5" stroke-linecap="round"></line>
                <g id="Group-48" transform="translate(48.000000, 21.921125)">
                    <path d="M45.3501,25.998075 C44.6001,26.748075 43.0251,27.123075 41.9751,27.198075 C43.4001,26.148075 44.6751,24.723075 45.3501,23.073075 C46.0251,24.798075 47.3751,26.073075 48.7251,27.198075 C47.6001,27.123075 46.2501,26.823075 45.3501,25.998075" id="Fill-38" fill="#636363"></path>
                    <path d="M140.82495,19.322775 L3.49995,19.322775 C1.7757,19.322775 0.34995,17.898525 0.34995,16.173525 L0.34995,5.222775 C0.34995,3.497775 1.7757,2.072775 3.49995,2.072775 L140.82495,2.072775 C142.54995,2.072775 143.97495,3.497775 143.97495,5.222775 L143.97495,16.173525 C143.97495,17.898525 142.54995,19.322775 140.82495,19.322775" id="Fill-40" fill="#DDD0EA"></path>
                    <path d="M132.87525,20.822775 L12.87525,20.822775 C10.25025,20.822775 8.07525,18.648525 8.07525,16.023525 L8.07525,5.298525 C8.07525,2.673525 10.25025,0.497775 12.87525,0.497775 L132.87525,0.497775 C135.50025,0.497775 137.6745,2.673525 137.6745,5.298525 L137.6745,16.023525 C137.6745,18.648525 135.50025,20.822775 132.87525,20.822775" id="Fill-42" fill="#2F1868"></path>
                    <path d="M47.75025,9.273225 L47.75025,7.398225 C47.6745,6.273225 46.77525,5.447475 45.57525,5.373225 C44.52525,5.298225 43.47525,6.123225 43.32525,7.173225 C43.25025,7.848225 43.32525,8.598225 43.32525,9.273225 L47.75025,9.273225 Z M42.20025,15.947475 L48.87525,15.947475 L48.87525,10.398225 L42.20025,10.398225 L42.20025,15.947475 Z M48.87525,9.273225 C49.10025,9.348225 49.25025,9.348225 49.40025,9.498225 C49.77525,9.723225 50.00025,10.098225 50.00025,10.473225 L50.00025,16.023225 C50.00025,16.623225 49.5495,17.072475 48.87525,17.148225 L47.60025,17.148225 L42.35025,17.148225 C41.52525,17.148225 41.07525,16.697475 41.07525,15.873225 L41.07525,10.773225 C41.07525,9.947475 41.37525,9.498225 42.20025,9.348225 L42.20025,7.773225 C42.20025,6.123225 43.1745,4.848225 44.82525,4.473225 C46.70025,4.023225 48.65025,5.373225 48.87525,7.248225 C48.95025,7.848225 48.87525,8.447475 48.95025,9.048225 C48.87525,9.048225 48.87525,9.123225 48.87525,9.273225 L48.87525,9.273225 Z" id="Fill-44" fill="#FFFFFF"></path>
                    <path d="M45.50025,11.523225 C46.10025,11.523225 46.47525,11.822475 46.62525,12.273225 C46.77525,12.723225 46.62525,13.173225 46.32525,13.548225 C46.25025,13.623225 46.1745,13.773225 46.1745,13.848225 L46.1745,14.373225 C46.1745,14.673225 45.87525,14.898225 45.65025,14.898225 C45.35025,14.898225 45.12525,14.672475 45.12525,14.373225 L45.12525,14.148225 C45.12525,13.848225 45.12525,13.623225 44.90025,13.398225 C44.52525,13.098225 44.52525,12.572475 44.6745,12.197475 C44.75025,11.748225 45.12525,11.523225 45.50025,11.523225" id="Fill-46" fill="#FFFFFF"></path>
                </g>
            </g>
        </g>
    </g>
</svg>