<?xml version="1.0" encoding="UTF-8"?>
<svg width="304px" height="68px" viewBox="0 0 304 68" version="1.1" xmlns="http://www.w3.org/2000/svg" xmlns:xlink="http://www.w3.org/1999/xlink">
    <!-- Generator: Sketch 59.1 (86144) - https://sketch.com -->
    <title>Group 402</title>
    <desc>Created with Sketch.</desc>
    <g id="Desktop" stroke="none" stroke-width="1" fill="none" fill-rule="evenodd">
        <g id="Homelessness-Section-3-2" transform="translate(-844.000000, -1589.000000)">
            <g id="Group-40" transform="translate(844.000000, 1585.000000)">
                <polygon id="Fill-1" fill="#E0E0E0" points="2.577 37.210625 299.577 37.210625 299.577 27.460625 2.577 27.460625"></polygon>
                <g id="Group-21" transform="translate(0.000000, 0.421875)" font-family="SourceSansPro-Semibold, Source Sans Pro" font-size="10.5" font-weight="500">
                    <text id="CLUSTER-MEDIAN:-$15,364-" fill="#2F1868">
                        <tspan x="57.1824" y="69.3448205">C</tspan>
                        <tspan x="63.2304" y="69.3448205" letter-spacing="-0.346500009">L</tspan>
                        <tspan x="67.8084" y="69.3448205" letter-spacing="-0.105">U</tspan>
                        <tspan x="74.4759" y="69.3448205" letter-spacing="-0.210000001">S</tspan>
                        <tspan x="79.7784" y="69.3448205">TER MEDIAN: $15,364 </tspan>
                    </text>
                    <g id="Group-4" transform="translate(68.250000, 0.000000)" fill="#848484">
                        <text id="$10K">
                            <tspan x="0.225975" y="10.8448205">$10K</tspan>
                        </text>
                    </g>
                    <g id="Group-6" transform="translate(103.500000, 0.000000)" fill="#848484">
                        <text id="$15K">
                            <tspan x="0.413475" y="10.8448205">$15K</tspan>
                        </text>
                    </g>
                    <g id="Group-8" transform="translate(35.250000, 0.000000)" fill="#848484">
                        <text id="$5K">
                            <tspan x="0.187875" y="10.8448205">$5K</tspan>
                        </text>
                    </g>
                    <g id="Group-10" fill="#848484">
                        <text id="$0K">
                            <tspan x="0.000375" y="10.8448205">$0K</tspan>
                        </text>
                    </g>
                    <g id="Group-12" transform="translate(210.000000, 0.000000)" fill="#848484">
                        <text id="$30K">
                            <tspan x="0.225975" y="10.8448205">$30K</tspan>
                        </text>
                    </g>
                    <g id="Group-14" transform="translate(245.250000, 0.000000)" fill="#848484">
                        <text id="$35K">
                            <tspan x="0.413475" y="10.8448205">$35K</tspan>
                        </text>
                    </g>
                    <g id="Group-16" transform="translate(138.750000, 0.000000)" fill="#848484">
                        <text id="$20K">
                            <tspan x="0.600975" y="10.8448205">$20K</tspan>
                        </text>
                    </g>
                    <g id="Group-18" transform="translate(174.750000, 0.000000)" fill="#848484">
                        <text id="$25K">
                            <tspan x="0.038475" y="10.8448205">$25K</tspan>
                        </text>
                    </g>
                    <g id="Group-20" transform="translate(280.500000, 0.000000)" fill="#848484">
                        <text id="$40K">
                            <tspan x="0.600975" y="10.8448205">$40K</tspan>
                        </text>
                    </g>
                </g>
                <line x1="2.576625" y1="45.460475" x2="2.576625" y2="19.210475" id="Stroke-22" stroke="#D1D1D1" stroke-width="0.75" stroke-linecap="round"></line>
                <line x1="76.826625" y1="45.310325" x2="76.826625" y2="19.060325" id="Stroke-23" stroke="#D1D1D1" stroke-width="0.75" stroke-linecap="round"></line>
                <line x1="39.701625" y1="45.310325" x2="39.701625" y2="19.060325" id="Stroke-24" stroke="#D1D1D1" stroke-width="0.75" stroke-linecap="round"></line>
                <line x1="113.951625" y1="45.310325" x2="113.951625" y2="19.060325" id="Stroke-25" stroke="#D1D1D1" stroke-width="0.75" stroke-linecap="round"></line>
                <line x1="188.201625" y1="45.310325" x2="188.201625" y2="19.060325" id="Stroke-26" stroke="#D1D1D1" stroke-width="0.75" stroke-linecap="round"></line>
                <line x1="262.451625" y1="45.310325" x2="262.451625" y2="19.060325" id="Stroke-27" stroke="#D1D1D1" stroke-width="0.75" stroke-linecap="round"></line>
                <line x1="151.076625" y1="45.460475" x2="151.076625" y2="19.210475" id="Stroke-28" stroke="#D1D1D1" stroke-width="0.75" stroke-linecap="round"></line>
                <line x1="225.326625" y1="45.460475" x2="225.326625" y2="19.210475" id="Stroke-29" stroke="#D1D1D1" stroke-width="0.75" stroke-linecap="round"></line>
                <line x1="299.576625" y1="45.460475" x2="299.576625" y2="19.210475" id="Stroke-30" stroke="#D1D1D1" stroke-width="0.75" stroke-linecap="round"></line>
                <line x1="115.67655" y1="61.435325" x2="115.67655" y2="48.385325" id="Stroke-31" stroke="#636363" stroke-width="1.5" stroke-linecap="round"></line>
                <g id="Group-39" transform="translate(33.750000, 19.671875)">
                    <path d="M81.92655,29.01345 C81.17655,29.76345 79.60155,30.13845 78.55155,30.21345 C79.97655,29.16345 81.2523,27.73845 81.92655,26.08845 C82.60155,27.81345 83.95155,29.08845 85.30155,30.21345 C84.17655,30.13845 82.7523,29.83845 81.92655,29.01345" id="Fill-32" fill="#636363"></path>
                    <path d="M232.826625,21.51345 L4.076625,21.51345 C1.976625,21.51345 0.326625,19.86345 0.326625,17.76345 L0.326625,8.01345 C0.326625,5.91345 1.976625,4.26345 4.076625,4.26345 L232.826625,4.26345 C234.926625,4.26345 236.576625,5.91345 236.576625,8.01345 L236.576625,17.76345 C236.576625,19.86345 234.926625,21.51345 232.826625,21.51345" id="Fill-34" fill="#DDD0EA"></path>
                    <path d="M103.976775,23.01345 L75.851775,23.01345 C74.276025,23.01345 73.001775,21.73845 73.001775,20.16345 L73.001775,5.61345 C73.001775,4.03845 74.276025,2.76345 75.851775,2.76345 L103.976775,2.76345 C105.551775,2.76345 106.826775,4.03845 106.826775,5.61345 L106.826775,20.16345 C106.826775,21.73845 105.551775,23.01345 103.976775,23.01345" id="Fill-36" fill="#2F1868"></path>
                    <text id="$" font-family="SourceSansPro-Semibold, Source Sans Pro" font-size="13.5" font-weight="500" fill="#FFFFFF">
                        <tspan x="77.7876" y="13.3238549">$</tspan>
                    </text>
                </g>
            </g>
        </g>
    </g>
</svg>