<?xml version="1.0" encoding="UTF-8"?>
<svg width="104px" height="64px" viewBox="0 0 104 64" version="1.1" xmlns="http://www.w3.org/2000/svg" xmlns:xlink="http://www.w3.org/1999/xlink">
    <!-- Generator: Sketch 59.1 (86144) - https://sketch.com -->
    <title>Bed</title>
    <desc>Created with Sketch.</desc>
    <defs>
        <polygon id="path-1" points="0 0.504359221 103.24125 0.504359221 103.24125 63.75 0 63.75"></polygon>
    </defs>
    <g id="Export-Outlined-SVG" stroke="none" stroke-width="1" fill="none" fill-rule="evenodd">
        <g id="2" transform="translate(-838.000000, -1077.000000)">
            <g id="Bed" transform="translate(838.000000, 1077.000000)">
                <g id="Group-3">
                    <mask id="mask-2" fill="white">
                        <use xlink:href="#path-1"></use>
                    </mask>
                    <g id="Clip-2"></g>
                    <path d="M22.973625,27.6834165 C27.985875,27.705075 31.944375,23.847825 31.934643,18.949575 C31.925625,14.160825 27.966375,10.206075 23.154375,10.1789279 C18.213375,10.151325 14.248875,14.054325 14.2368434,18.959325 C14.224125,23.817075 18.073875,27.661575 22.973625,27.6834165 L22.973625,27.6834165 Z M33.616875,31.225575 L31.394625,31.225575 C27.169125,31.226325 22.942125,31.191075 18.717375,31.242825 C16.585875,31.269075 15.209625,32.699325 15.147375,34.749075 C15.083625,36.852075 16.501125,38.547075 18.625125,38.570325 C24.901125,38.637075 31.178625,38.631075 37.454625,38.573325 C39.455625,38.554575 41.010375,36.984075 41.029875,34.996575 C41.083875,29.404575 41.084625,23.811075 41.029875,18.218325 C41.009625,16.184325 39.209625,14.577825 37.248375,14.625825 C35.361375,14.670825 33.697875,16.227825 33.656625,18.199575 C33.581625,21.802575 33.623625,25.407825 33.616875,29.011575 C33.616125,29.676075 33.616875,30.339825 33.616875,31.225575 L33.616875,31.225575 Z M44.137125,38.208825 C44.854875,38.276325 45.278625,38.350575 45.703125,38.351325 C62.060625,38.355825 78.418875,38.337075 94.776375,38.3866075 C96.211875,38.391825 96.679125,37.760325 96.710625,36.550575 C96.777375,34.005825 96.989625,31.443825 96.793875,28.916325 C96.156375,20.671575 89.954625,14.734575 81.696375,14.646075 C69.693375,14.517825 57.688125,14.625825 45.684375,14.583825 C44.418375,14.579325 44.104875,15.046575 44.1193685,16.221825 C44.172375,20.263575 44.137875,24.307575 44.137125,28.350075 L44.137125,38.208825 Z M91.384875,53.346825 C91.384875,56.037075 91.398375,58.631325 91.379625,61.225575 C91.366125,62.950575 92.268375,63.723075 93.913125,63.734325 C96.090375,63.751575 98.269125,63.757575 100.446375,63.737325 C102.507375,63.719325 103.226625,62.997075 103.232625,60.918075 C103.246875,55.692075 103.239375,50.465325 103.239375,45.238575 C103.238625,41.591325 103.057875,41.410575 99.487125,41.410575 C71.176875,41.411325 42.867375,41.411325 14.557125,41.411325 L11.932875,41.411325 L11.932875,38.856075 C11.932875,28.341825 11.926125,17.826075 11.938125,7.311825 C11.940375,5.309325 11.561625,3.465825 10.002375,2.064075 C8.083125,0.337575 5.824875,0.118575 3.556875,1.042575 C1.121625,2.034825 0.021375,4.093575 0.013125,6.684075 C-0.010875,14.088075 0.004875,21.492075 0.004875,28.896075 C0.004125,39.473325 0.001125,50.050575 0.007875,60.627825 C0.009375,63.036825 0.703875,63.724575 3.104625,63.738075 C4.908375,63.749325 6.712875,63.744825 8.517375,63.739575 C11.311125,63.732075 11.926875,63.127575 11.932125,60.378825 C11.937375,58.040325 11.932875,55.701825 11.932875,53.346825 L91.384875,53.346825 Z" id="Fill-1" fill="#280C60" mask="url(#mask-2)"></path>
                </g>
                <path d="M91.1709863,53.6371034 L11.9048469,53.6371034 C11.9048469,55.9836982 11.9093363,58.312363 11.9040986,60.6417748 C11.8988609,63.3798423 11.2845513,63.9827401 8.49733669,63.9894639 C6.69705792,63.9946935 4.89677916,63.999176 3.09724863,63.9879697 C0.702114665,63.9745222 0.00923929613,63.289445 0.00774280506,60.8898072 C0,50.3536637 0.00400157736,39.8175202 0.0047498229,29.2813767 C0.0047498229,21.9061509 -0.0102150879,14.5309252 0.0129805238,7.15569947 C0.0219594703,4.57526696 1.11888743,2.52451791 3.54844069,1.5361241 C5.8111352,0.615715057 8.06485077,0.833863954 9.97886286,2.55365423 C11.5344653,3.94995659 11.9123293,5.78629218 11.9100846,7.78100983 C11.8981127,18.2551452 11.9048469,28.7292807 11.9048469,39.2034161 L11.9048469,41.7479885 L14.522958,41.7479885 C42.7677306,41.7479885 71.0110067,41.7479885 99.2542828,41.7472414 C102.81668,41.7472414 102.997007,41.927289 102.997755,45.5603646 C102.998504,50.7668018 103.005238,55.973239 102.991021,61.1789291 C102.985035,63.2498495 102.267468,63.9692926 100.211289,63.9872227 C98.0391321,64.007394 95.8654788,64.0014173 93.693322,63.9849814 C92.0524195,63.973028 91.1530284,63.2042773 91.1657486,61.4852341 C91.1852029,58.9010662 91.1709863,56.3168982 91.1709863,53.6371034" id="Fill-4" fill="#280C60"></path>
                <path d="M44.017136,38.820767 L44.017136,28.8808208 C44.0178895,24.8060931 44.0525498,20.7290971 44.0005594,16.6543694 C43.9847362,15.4695302 44.2996926,14.9984678 45.5715737,15.0030045 C57.6310859,15.0453472 69.6921052,14.936466 81.750864,15.0657624 C90.0474769,15.1549845 96.2780366,21.1404261 96.918498,29.451691 C97.1151574,31.9998135 96.9026748,34.5834736 96.8356148,37.1489869 C96.8039684,38.3678515 96.3345479,39.0052601 94.8923794,39 C78.4581387,38.9500634 62.023898,38.9689664 45.5904108,38.9636736 C45.1639388,38.9629175 44.7382203,38.8888177 44.017136,38.820767" id="Fill-7" fill="#280C60"></path>
                <path d="M33.5247549,31.6049207 C33.5247549,30.718949 33.5240027,30.0557831 33.5247549,29.3911168 C33.5315243,25.7857149 33.4886512,22.1803129 33.5646194,18.5764113 C33.605236,16.6034177 35.2735261,15.0467783 37.1667119,15.0010168 C39.1336094,14.953755 40.9380404,16.5599068 40.9591008,18.5944158 C41.0140085,24.1885653 41.0132563,29.783465 40.9591008,35.3768643 C40.9387925,37.3656119 39.3795656,38.9357547 37.3728036,38.9545094 C31.0794839,39.0122738 24.7839077,39.0190255 18.4898358,38.9515086 C16.3597196,38.929003 14.9381379,37.2328286 15.0020715,35.1293024 C15.0645007,33.0797897 16.4447137,31.6491818 18.5823514,31.622175 C22.8192667,31.570412 27.0576863,31.6056709 31.2953537,31.6049207 L33.5247549,31.6049207 Z" id="Fill-9" fill="#280C60"></path>
                <path d="M22.8859673,28 C17.9025512,27.9775402 13.9870644,24.0242113 14,19.0289497 C14.012237,13.9851005 18.0444332,9.97161568 23.0698037,10 C27.9639715,10.0279155 31.990828,14.0946153 32,19.0189237 C32.0098982,24.0558318 27.9838045,28.0222716 22.8859673,28" id="Fill-11" fill="#280C60"></path>
            </g>
        </g>
    </g>
</svg>