<?xml version="1.0" encoding="UTF-8"?>
<svg width="188px" height="97px" viewBox="0 0 188 97" version="1.1" xmlns="http://www.w3.org/2000/svg" xmlns:xlink="http://www.w3.org/1999/xlink">
    <!-- Generator: Sketch 59.1 (86144) - https://sketch.com -->
    <title>Population Density</title>
    <desc>Created with Sketch.</desc>
    <defs>
        <polygon id="path-1" points="0.571494331 0.6975 19.9788153 0.6975 19.9788153 42.4030976 0.571494331 42.4030976"></polygon>
        <polygon id="path-3" points="0.121419331 0.6975 19.5525531 0.6975 19.5525531 42.4030976 0.121419331 42.4030976"></polygon>
        <polygon id="path-5" points="0.57115148 0.6975 20.0025571 0.6975 20.0025571 42.4030976 0.57115148 42.4030976"></polygon>
    </defs>
    <g id="Export-Outlined-SVG" stroke="none" stroke-width="1" fill="none" fill-rule="evenodd">
        <g id="2" transform="translate(-548.000000, -818.000000)">
            <g id="Population-Density" transform="translate(548.000000, 818.000000)">
                <polygon id="Fill-1" fill="#280C60" points="0 97 188 97 188 71 0 71"></polygon>
                <g id="Group-63">
                    <text id="671" font-family="SourceSansPro-Semibold, Source Sans Pro" font-size="18" font-weight="500" fill="#FFFFFF">
                        <tspan x="77.5" y="90.9475">671</tspan>
                    </text>
                    <path d="M75.59985,12.622575 C75.59985,10.597575 74.47485,8.947575 72.44985,8.947575 L65.09985,8.947575 C63.22485,8.947575 62.09985,10.297575 61.94985,12.097575 C61.87485,12.247575 61.87485,12.397575 61.87485,12.547575 L61.34985,24.547575 C61.34985,25.447575 62.02485,26.197575 62.77485,26.197575 C63.59985,26.197575 64.19985,25.447575 64.19985,24.547575 L64.19985,13.447575 L64.87485,21.247575 L64.87485,40.747575 C64.87485,41.722575 65.69985,42.472575 66.67485,42.397575 C67.57485,42.322575 68.17485,41.497575 68.17485,40.672575 L68.17485,24.997575 L68.62485,24.997575 L69.07485,24.997575 L69.07485,40.747575 C69.07485,41.422575 69.44985,42.097575 70.04985,42.322575 C71.24985,42.772575 72.37485,41.947575 72.37485,40.822575 L72.37485,21.322575 L72.97485,13.972575 L72.97485,24.697575 C72.97485,25.597575 73.64985,26.347575 74.47485,26.347575 C75.29985,26.347575 75.97485,25.597575 75.97485,24.697575 L75.59985,12.622575 Z M65.77485,5.947575 L65.99985,5.797575 C66.52485,7.072575 67.57485,8.122575 68.77485,8.122575 C69.97485,8.122575 70.94985,7.072575 71.54985,5.797575 L71.77485,5.947575 C71.92485,5.947575 72.07485,5.797575 72.14985,5.572575 L72.29985,4.297575 C72.29985,4.147575 72.22485,3.922575 72.07485,3.922575 C72.07485,2.197575 70.64985,0.772575 68.92485,0.772575 C67.19985,0.772575 65.77485,2.197575 65.77485,3.922575 C65.62485,3.922575 65.47485,4.147575 65.54985,4.297575 L65.62485,5.572575 C65.47485,5.797575 65.62485,5.947575 65.77485,5.947575 L65.77485,5.947575 Z" id="Fill-3" fill="#D3D3D3"></path>
                    <g id="Group-7" transform="translate(36.750000, 0.000000)">
                        <mask id="mask-2" fill="white">
                            <use xlink:href="#path-1"></use>
                        </mask>
                        <g id="Clip-6"></g>
                        <path d="M19.950075,23.197275 L15.825075,11.572275 L15.750075,11.347275 C15.375075,9.847275 14.325075,8.798025 12.675075,8.798025 L7.275075,8.798025 C5.625075,8.798025 4.500075,9.923025 4.200075,11.497275 L0.600075,23.122275 C0.450075,24.023025 0.900075,24.847275 1.725075,24.997275 C2.550075,25.148025 3.300075,24.548025 3.450075,23.648025 L6.300075,13.148025 L3.450075,32.197275 L6.225075,32.197275 L6.225075,40.523025 C6.225075,41.423025 6.825075,42.247275 7.725075,42.322275 C8.700075,42.398025 9.525075,41.648025 9.525075,40.673025 L9.525075,32.273025 L10.500075,32.273025 L10.500075,40.597275 C10.500075,41.497275 11.100075,42.322275 12.000075,42.398025 C12.975075,42.472275 13.800075,41.722275 13.800075,40.747275 L13.800075,32.347275 L17.025075,32.347275 L13.800075,13.298025 L17.100075,23.947275 C17.325075,24.847275 18.150075,25.447275 18.900075,25.222275 C19.650075,24.923025 20.100075,24.097275 19.950075,23.197275 L19.950075,23.197275 Z M13.350075,8.273025 L13.350075,8.273025 L13.125075,5.798025 L13.275075,5.497275 L13.350075,4.222275 C13.350075,4.072275 13.275075,3.847275 13.125075,3.847275 C13.125075,2.122275 11.700075,0.697275 9.900075,0.697275 C8.175075,0.697275 6.750075,2.122275 6.675075,3.847275 C6.525075,3.847275 6.375075,4.072275 6.450075,4.222275 L6.525075,5.497275 L6.675075,5.798025 L6.450075,8.273025 L13.350075,8.273025 Z" id="Fill-5" fill="#D3D3D3" mask="url(#mask-2)"></path>
                    </g>
                    <path d="M117.90015,12.622575 C117.90015,10.597575 116.77515,8.947575 114.75015,8.947575 L107.40015,8.947575 C105.52515,8.947575 104.40015,10.297575 104.25015,12.097575 C104.17515,12.247575 104.17515,12.397575 104.17515,12.547575 L103.65015,24.547575 C103.65015,25.447575 104.32515,26.197575 105.07515,26.197575 C105.90015,26.197575 106.50015,25.447575 106.50015,24.547575 L106.50015,13.447575 L107.17515,21.247575 L107.17515,40.747575 C107.17515,41.722575 108.00015,42.472575 108.97515,42.397575 C109.87515,42.322575 110.47515,41.497575 110.47515,40.672575 L110.47515,24.997575 L110.92515,24.997575 L111.37515,24.997575 L111.37515,40.747575 C111.37515,41.422575 111.75015,42.097575 112.35015,42.322575 C113.55015,42.772575 114.67515,41.947575 114.67515,40.822575 L114.67515,21.322575 L115.27515,13.972575 L115.27515,24.697575 C115.27515,25.597575 115.95015,26.347575 116.77515,26.347575 C117.60015,26.347575 118.27515,25.597575 118.27515,24.697575 L117.90015,12.622575 Z M108.07515,5.947575 L108.30015,5.797575 C108.82515,7.072575 109.87515,8.122575 111.07515,8.122575 C112.27515,8.122575 113.25015,7.072575 113.85015,5.797575 L114.07515,5.947575 C114.22515,5.947575 114.37515,5.797575 114.45015,5.572575 L114.60015,4.297575 C114.60015,4.147575 114.52515,3.922575 114.37515,3.922575 C114.37515,2.197575 112.95015,0.772575 111.22515,0.772575 C109.50015,0.772575 108.07515,2.197575 108.07515,3.922575 C107.92515,3.922575 107.77515,4.147575 107.85015,4.297575 L107.92515,5.572575 C107.77515,5.797575 107.92515,5.947575 108.07515,5.947575 L108.07515,5.947575 Z" id="Fill-8" fill="#D3D3D3"></path>
                    <g id="Group-12" transform="translate(81.000000, 0.000000)">
                        <mask id="mask-4" fill="white">
                            <use xlink:href="#path-3"></use>
                        </mask>
                        <g id="Clip-11"></g>
                        <path d="M19.5,23.197275 L15.375,11.572275 L15.3,11.347275 C14.925,9.847275 13.875,8.798025 12.225,8.798025 L6.825,8.798025 C5.175,8.798025 4.05,9.923025 3.75,11.497275 L0.15,23.122275 C6.24500451e-16,24.023025 0.45,24.847275 1.275,24.997275 C2.1,25.148025 2.85,24.548025 3,23.648025 L5.85,13.148025 L3,32.197275 L5.775,32.197275 L5.775,40.523025 C5.775,41.423025 6.375,42.247275 7.275,42.322275 C8.25,42.398025 9.075,41.648025 9.075,40.673025 L9.075,32.273025 L10.05,32.273025 L10.05,40.597275 C10.05,41.497275 10.65,42.322275 11.55,42.398025 C12.525,42.472275 13.35,41.722275 13.35,40.747275 L13.35,32.347275 L16.575,32.347275 L13.35,13.298025 L16.65,23.947275 C16.875,24.847275 17.7,25.447275 18.45,25.222275 C19.2,24.923025 19.725,24.097275 19.5,23.197275 L19.5,23.197275 Z M12.9,8.273025 L12.9,8.273025 L12.675,5.798025 L12.825,5.497275 L12.9,4.222275 C12.9,4.072275 12.825,3.847275 12.675,3.847275 C12.675,2.122275 11.25,0.697275 9.45,0.697275 C7.725,0.697275 6.3,2.122275 6.225,3.847275 C6.075,3.847275 5.925,4.072275 6,4.222275 L6.075,5.497275 L6.225,5.798025 L6,8.273025 L12.9,8.273025 Z" id="Fill-10" fill="#D3D3D3" mask="url(#mask-4)"></path>
                    </g>
                    <g id="Group-15" transform="translate(123.000000, 0.000000)">
                        <mask id="mask-6" fill="white">
                            <use xlink:href="#path-5"></use>
                        </mask>
                        <g id="Clip-14"></g>
                        <path d="M19.9497,23.197275 L15.8247,11.572275 L15.7497,11.347275 C15.3747,9.847275 14.3247,8.798025 12.67545,8.798025 L7.27545,8.798025 C5.6247,8.798025 4.4997,9.923025 4.1997,11.497275 L0.5997,23.122275 C0.4497,24.023025 0.90045,24.847275 1.7247,24.997275 C2.5497,25.148025 3.2997,24.548025 3.4497,23.648025 L6.2997,13.148025 L3.4497,32.197275 L6.2247,32.197275 L6.2247,40.523025 C6.2247,41.423025 6.8247,42.247275 7.7247,42.322275 C8.6997,42.398025 9.52545,41.648025 9.52545,40.673025 L9.52545,32.273025 L10.4997,32.273025 L10.4997,40.597275 C10.4997,41.497275 11.0997,42.322275 11.9997,42.398025 C12.9747,42.472275 13.80045,41.722275 13.80045,40.747275 L13.80045,32.347275 L17.02545,32.347275 L13.80045,13.298025 L17.0997,23.947275 C17.3247,24.847275 18.15045,25.447275 18.90045,25.222275 C19.65045,24.923025 20.17545,24.097275 19.9497,23.197275 L19.9497,23.197275 Z M13.3497,8.273025 C13.3497,8.273025 13.42545,8.273025 13.3497,8.273025 L13.1247,5.798025 L13.27545,5.497275 L13.3497,4.222275 C13.3497,4.072275 13.27545,3.847275 13.1247,3.847275 C13.1247,2.122275 11.6997,0.697275 9.90045,0.697275 C8.1747,0.697275 6.7497,2.122275 6.6747,3.847275 C6.52545,3.847275 6.3747,4.072275 6.4497,4.222275 L6.52545,5.497275 L6.6747,5.798025 L6.4497,8.273025 L13.3497,8.273025 Z" id="Fill-13" fill="#D3D3D3" mask="url(#mask-6)"></path>
                    </g>
                    <path d="M64.34985,19.372575 C64.34985,17.347575 63.22485,15.697575 61.19985,15.697575 L53.84985,15.697575 C51.97485,15.697575 50.84985,17.047575 50.69985,18.847575 C50.62485,18.997575 50.62485,19.147575 50.62485,19.297575 L50.09985,31.297575 C50.09985,32.197575 50.77485,32.947575 51.52485,32.947575 C52.34985,32.947575 52.94985,32.197575 52.94985,31.297575 L52.94985,20.197575 L53.62485,27.997575 L53.62485,47.497575 C53.62485,48.472575 54.44985,49.222575 55.42485,49.147575 C56.32485,49.072575 56.92485,48.247575 56.92485,47.422575 L56.92485,31.747575 L57.37485,31.747575 L57.82485,31.747575 L57.82485,47.497575 C57.82485,48.172575 58.19985,48.847575 58.79985,49.072575 C59.99985,49.522575 61.12485,48.697575 61.12485,47.572575 L61.12485,28.072575 L61.72485,20.722575 L61.72485,31.447575 C61.72485,32.347575 62.39985,33.097575 63.22485,33.097575 C64.04985,33.097575 64.72485,32.347575 64.72485,31.447575 L64.34985,19.372575 Z M54.52485,12.697575 L54.74985,12.547575 C55.27485,13.822575 56.32485,14.872575 57.52485,14.872575 C58.72485,14.872575 59.69985,13.822575 60.29985,12.547575 L60.52485,12.697575 C60.67485,12.697575 60.82485,12.547575 60.89985,12.322575 L61.04985,11.047575 C61.04985,10.897575 60.97485,10.672575 60.82485,10.672575 C60.82485,8.947575 59.39985,7.522575 57.67485,7.522575 C55.94985,7.522575 54.52485,8.947575 54.52485,10.672575 C54.37485,10.672575 54.22485,10.897575 54.29985,11.047575 L54.37485,12.322575 C54.22485,12.547575 54.37485,12.697575 54.52485,12.697575 L54.52485,12.697575 Z" id="Fill-16" fill="#AAAAAA"></path>
                    <path d="M45.450075,29.947275 L41.325075,18.322275 L41.250075,18.097275 C40.875075,16.597275 39.825075,15.548025 38.175075,15.548025 L32.775075,15.548025 C31.125075,15.548025 30.000075,16.673025 29.700075,18.247275 L26.100075,29.872275 C25.950075,30.773025 26.400075,31.597275 27.225075,31.747275 C28.050075,31.898025 28.800075,31.298025 28.950075,30.398025 L31.800075,19.898025 L28.950075,38.947275 L31.725075,38.947275 L31.725075,47.273025 C31.725075,48.173025 32.325075,48.997275 33.225075,49.072275 C34.200075,49.148025 35.025075,48.398025 35.025075,47.423025 L35.025075,39.023025 L36.000075,39.023025 L36.000075,47.347275 C36.000075,48.247275 36.600075,49.072275 37.500075,49.148025 C38.475075,49.222275 39.300075,48.472275 39.300075,47.497275 L39.300075,39.097275 L42.525075,39.097275 L39.300075,20.048025 L42.600075,30.697275 C42.825075,31.597275 43.650075,32.197275 44.400075,31.972275 C45.150075,31.673025 45.600075,30.847275 45.450075,29.947275 L45.450075,29.947275 Z M38.850075,15.023025 L38.850075,15.023025 L38.625075,12.548025 L38.775075,12.247275 L38.850075,10.972275 C38.850075,10.822275 38.775075,10.597275 38.625075,10.597275 C38.625075,8.872275 37.200075,7.447275 35.400075,7.447275 C33.675075,7.447275 32.250075,8.872275 32.175075,10.597275 C32.025075,10.597275 31.875075,10.822275 31.950075,10.972275 L32.025075,12.247275 L32.175075,12.548025 L31.950075,15.023025 L38.850075,15.023025 Z" id="Fill-18" fill="#AAAAAA"></path>
                    <path d="M106.65015,19.372575 C106.65015,17.347575 105.52515,15.697575 103.50015,15.697575 L96.15015,15.697575 C94.27515,15.697575 93.15015,17.047575 93.00015,18.847575 C92.92515,18.997575 92.92515,19.147575 92.92515,19.297575 L92.40015,31.297575 C92.40015,32.197575 93.07515,32.947575 93.82515,32.947575 C94.65015,32.947575 95.25015,32.197575 95.25015,31.297575 L95.25015,20.197575 L95.92515,27.997575 L95.92515,47.497575 C95.92515,48.472575 96.75015,49.222575 97.72515,49.147575 C98.62515,49.072575 99.22515,48.247575 99.22515,47.422575 L99.22515,31.747575 L99.67515,31.747575 L100.12515,31.747575 L100.12515,47.497575 C100.12515,48.172575 100.50015,48.847575 101.10015,49.072575 C102.30015,49.522575 103.42515,48.697575 103.42515,47.572575 L103.42515,28.072575 L104.02515,20.722575 L104.02515,31.447575 C104.02515,32.347575 104.70015,33.097575 105.52515,33.097575 C106.35015,33.097575 107.02515,32.347575 107.02515,31.447575 L106.65015,19.372575 Z M96.82515,12.697575 L97.05015,12.547575 C97.57515,13.822575 98.62515,14.872575 99.82515,14.872575 C101.02515,14.872575 102.00015,13.822575 102.60015,12.547575 L102.82515,12.697575 C102.97515,12.697575 103.12515,12.547575 103.20015,12.322575 L103.35015,11.047575 C103.35015,10.897575 103.27515,10.672575 103.12515,10.672575 C103.12515,8.947575 101.70015,7.522575 99.97515,7.522575 C98.25015,7.522575 96.82515,8.947575 96.82515,10.672575 C96.67515,10.672575 96.52515,10.897575 96.60015,11.047575 L96.67515,12.322575 C96.52515,12.547575 96.67515,12.697575 96.82515,12.697575 L96.82515,12.697575 Z" id="Fill-20" fill="#AAAAAA"></path>
                    <path d="M89.25,29.947275 L85.125,18.322275 L85.05,18.097275 C84.675,16.597275 83.625,15.548025 81.975,15.548025 L76.575,15.548025 C74.925,15.548025 73.8,16.673025 73.5,18.247275 L69.9,29.872275 C69.75,30.773025 70.2,31.597275 71.025,31.747275 C71.85,31.898025 72.6,31.298025 72.75,30.398025 L75.6,19.898025 L72.75,38.947275 L75.525,38.947275 L75.525,47.273025 C75.525,48.173025 76.125,48.997275 77.025,49.072275 C78,49.148025 78.825,48.398025 78.825,47.423025 L78.825,39.023025 L79.8,39.023025 L79.8,47.347275 C79.8,48.247275 80.4,49.072275 81.3,49.148025 C82.275,49.222275 83.1,48.472275 83.1,47.497275 L83.1,39.097275 L86.325,39.097275 L83.1,20.048025 L86.4,30.697275 C86.625,31.597275 87.45,32.197275 88.2,31.972275 C88.95,31.673025 89.475,30.847275 89.25,29.947275 L89.25,29.947275 Z M82.65,15.023025 L82.65,15.023025 L82.425,12.548025 L82.575,12.247275 L82.65,10.972275 C82.65,10.822275 82.575,10.597275 82.425,10.597275 C82.425,8.872275 81,7.447275 79.2,7.447275 C77.475,7.447275 76.05,8.872275 75.975,10.597275 C75.825,10.597275 75.675,10.822275 75.75,10.972275 L75.825,12.247275 L75.975,12.548025 L75.75,15.023025 L82.65,15.023025 Z" id="Fill-22" fill="#AAAAAA"></path>
                    <path d="M150.59985,19.372575 C150.59985,17.347575 149.47485,15.697575 147.44985,15.697575 L140.09985,15.697575 C138.22485,15.697575 137.09985,17.047575 136.94985,18.847575 C136.87485,18.997575 136.87485,19.147575 136.87485,19.297575 L136.34985,31.297575 C136.34985,32.197575 137.02485,32.947575 137.77485,32.947575 C138.59985,32.947575 139.19985,32.197575 139.19985,31.297575 L139.19985,20.197575 L139.87485,27.997575 L139.87485,47.497575 C139.87485,48.472575 140.69985,49.222575 141.6756,49.147575 C142.57485,49.072575 143.1756,48.247575 143.1756,47.422575 L143.1756,31.747575 L143.62485,31.747575 L144.07485,31.747575 L144.07485,47.497575 C144.07485,48.172575 144.44985,48.847575 145.0506,49.072575 C146.24985,49.522575 147.37485,48.697575 147.37485,47.572575 L147.37485,28.072575 L147.97485,20.722575 L147.97485,31.447575 C147.97485,32.347575 148.64985,33.097575 149.47485,33.097575 C150.3006,33.097575 150.97485,32.347575 150.97485,31.447575 L150.59985,19.372575 Z M140.77485,12.697575 L140.99985,12.547575 C141.52485,13.822575 142.57485,14.872575 143.77485,14.872575 C144.97485,14.872575 145.94985,13.822575 146.5506,12.547575 L146.77485,12.697575 C146.9256,12.697575 147.07485,12.547575 147.14985,12.322575 L147.3006,11.047575 C147.3006,10.897575 147.22485,10.672575 147.07485,10.672575 C147.07485,8.947575 145.64985,7.522575 143.9256,7.522575 C142.19985,7.522575 140.77485,8.947575 140.77485,10.672575 C140.62485,10.672575 140.47485,10.897575 140.5506,11.047575 L140.62485,12.322575 C140.47485,12.547575 140.62485,12.697575 140.77485,12.697575 L140.77485,12.697575 Z" id="Fill-24" fill="#AAAAAA"></path>
                    <path d="M131.700075,29.947275 L127.575075,18.322275 L127.500075,18.097275 C127.125075,16.597275 126.075075,15.548025 124.425075,15.548025 L119.025075,15.548025 C117.375075,15.548025 116.250075,16.673025 115.950075,18.247275 L112.350075,29.872275 C112.200075,30.773025 112.650075,31.597275 113.475075,31.747275 C114.300075,31.898025 115.050075,31.298025 115.200075,30.398025 L118.050075,19.898025 L115.200075,38.947275 L117.975075,38.947275 L117.975075,47.273025 C117.975075,48.173025 118.575075,48.997275 119.475075,49.072275 C120.450075,49.148025 121.275075,48.398025 121.275075,47.423025 L121.275075,39.023025 L122.250075,39.023025 L122.250075,47.347275 C122.250075,48.247275 122.850075,49.072275 123.750075,49.148025 C124.725075,49.222275 125.550075,48.472275 125.550075,47.497275 L125.550075,39.097275 L128.775075,39.097275 L125.550075,20.048025 L128.850075,30.697275 C129.075075,31.597275 129.900075,32.197275 130.650075,31.972275 C131.400075,31.673025 131.925075,30.847275 131.700075,29.947275 L131.700075,29.947275 Z M125.100075,15.023025 C125.100075,15.023025 125.175075,15.023025 125.100075,15.023025 L124.875075,12.548025 L125.025075,12.247275 L125.100075,10.972275 C125.100075,10.822275 125.025075,10.597275 124.875075,10.597275 C124.875075,8.872275 123.450075,7.447275 121.650075,7.447275 C119.925075,7.447275 118.500075,8.872275 118.425075,10.597275 C118.275075,10.597275 118.125075,10.822275 118.200075,10.972275 L118.275075,12.247275 L118.425075,12.548025 L118.200075,15.023025 L125.100075,15.023025 Z" id="Fill-26" fill="#AAAAAA"></path>
                    <g id="Group-32" transform="translate(0.000000, 43.500000)">
                        <polygon id="Fill-28" fill="#D8D8D8" points="1.875 27.172875 49.65 1.147875 137.1 1.147875 184.875 27.172875"></polygon>
                        <path d="M137.25,0.622575 L49.5,0.622575 L0,27.622575 L186.75,27.622575 L137.25,0.622575 Z M137.025,1.597575 L183,26.647575 L3.825,26.647575 L49.8,1.597575 L137.025,1.597575 Z" id="Fill-30" fill="#FFFFFF"></path>
                    </g>
                    <path d="M53.09985,31.372575 C53.09985,29.347575 51.97485,27.697575 49.94985,27.697575 L42.59985,27.697575 C40.72485,27.697575 39.59985,29.047575 39.44985,30.847575 C39.37485,30.997575 39.37485,31.147575 39.37485,31.297575 L38.84985,43.297575 C38.84985,44.197575 39.52485,44.947575 40.27485,44.947575 C41.09985,44.947575 41.69985,44.197575 41.69985,43.297575 L41.69985,32.197575 L42.37485,39.997575 L42.37485,59.497575 C42.37485,60.472575 43.19985,61.222575 44.17485,61.147575 C45.07485,61.072575 45.67485,60.247575 45.67485,59.422575 L45.67485,43.747575 L46.12485,43.747575 L46.57485,43.747575 L46.57485,59.497575 C46.57485,60.172575 46.94985,60.847575 47.54985,61.072575 C48.74985,61.522575 49.87485,60.697575 49.87485,59.572575 L49.87485,40.072575 L50.47485,32.722575 L50.47485,43.447575 C50.47485,44.347575 51.14985,45.097575 51.97485,45.097575 C52.79985,45.097575 53.47485,44.347575 53.47485,43.447575 L53.09985,31.372575 Z M43.27485,24.697575 L43.49985,24.547575 C44.02485,25.822575 45.07485,26.872575 46.27485,26.872575 C47.47485,26.872575 48.44985,25.822575 49.04985,24.547575 L49.27485,24.697575 C49.42485,24.697575 49.57485,24.547575 49.64985,24.322575 L49.79985,23.047575 C49.79985,22.897575 49.72485,22.672575 49.57485,22.672575 C49.57485,20.947575 48.14985,19.522575 46.42485,19.522575 C44.69985,19.522575 43.27485,20.947575 43.27485,22.672575 C43.12485,22.672575 42.97485,22.897575 43.04985,23.047575 L43.12485,24.322575 C42.97485,24.547575 43.12485,24.697575 43.27485,24.697575 L43.27485,24.697575 Z" id="Fill-33" fill="#7C7C7C"></path>
                    <path d="M34.200075,41.947275 L30.075075,30.322275 L30.000075,30.097275 C29.625075,28.597275 28.575075,27.548025 26.925075,27.548025 L21.525075,27.548025 C19.875075,27.548025 18.750075,28.673025 18.450075,30.247275 L14.850075,41.872275 C14.700075,42.773025 15.150075,43.597275 15.975075,43.747275 C16.800075,43.898025 17.550075,43.298025 17.700075,42.398025 L20.550075,31.898025 L17.700075,50.947275 L20.475075,50.947275 L20.475075,59.273025 C20.475075,60.173025 21.075075,60.997275 21.975075,61.072275 C22.950075,61.148025 23.775075,60.398025 23.775075,59.423025 L23.775075,51.023025 L24.750075,51.023025 L24.750075,59.347275 C24.750075,60.247275 25.350075,61.072275 26.250075,61.148025 C27.225075,61.222275 28.050075,60.472275 28.050075,59.497275 L28.050075,51.097275 L31.275075,51.097275 L28.050075,32.048025 L31.350075,42.698025 C31.575075,43.597275 32.400075,44.197275 33.150075,43.972275 C33.900075,43.673025 34.350075,42.847275 34.200075,41.947275 L34.200075,41.947275 Z M27.600075,27.023025 L27.600075,27.023025 L27.375075,24.548025 L27.525075,24.247275 L27.600075,22.972275 C27.600075,22.822275 27.525075,22.597275 27.375075,22.597275 C27.375075,20.872275 25.950075,19.447275 24.150075,19.447275 C22.425075,19.447275 21.000075,20.872275 20.925075,22.597275 C20.775075,22.597275 20.625075,22.822275 20.700075,22.972275 L20.775075,24.247275 L20.925075,24.548025 L20.700075,27.023025 L27.600075,27.023025 Z" id="Fill-35" fill="#7C7C7C"></path>
                    <path d="M95.40015,31.372575 C95.40015,29.347575 94.27515,27.697575 92.25015,27.697575 L84.90015,27.697575 C83.02515,27.697575 81.90015,29.047575 81.75015,30.847575 C81.67515,30.997575 81.67515,31.147575 81.67515,31.297575 L81.15015,43.297575 C81.15015,44.197575 81.82515,44.947575 82.57515,44.947575 C83.40015,44.947575 84.00015,44.197575 84.00015,43.297575 L84.00015,32.197575 L84.67515,39.997575 L84.67515,59.497575 C84.67515,60.472575 85.50015,61.222575 86.47515,61.147575 C87.37515,61.072575 87.97515,60.247575 87.97515,59.422575 L87.97515,43.747575 L88.42515,43.747575 L88.87515,43.747575 L88.87515,59.497575 C88.87515,60.172575 89.25015,60.847575 89.85015,61.072575 C91.05015,61.522575 92.17515,60.697575 92.17515,59.572575 L92.17515,40.072575 L92.77515,32.722575 L92.77515,43.447575 C92.77515,44.347575 93.45015,45.097575 94.27515,45.097575 C95.10015,45.097575 95.77515,44.347575 95.77515,43.447575 L95.40015,31.372575 Z M85.57515,24.697575 L85.80015,24.547575 C86.32515,25.822575 87.37515,26.872575 88.57515,26.872575 C89.77515,26.872575 90.75015,25.822575 91.35015,24.547575 L91.57515,24.697575 C91.72515,24.697575 91.87515,24.547575 91.95015,24.322575 L92.10015,23.047575 C92.10015,22.897575 92.02515,22.672575 91.87515,22.672575 C91.87515,20.947575 90.45015,19.522575 88.72515,19.522575 C87.00015,19.522575 85.57515,20.947575 85.57515,22.672575 C85.42515,22.672575 85.27515,22.897575 85.35015,23.047575 L85.42515,24.322575 C85.27515,24.547575 85.42515,24.697575 85.57515,24.697575 L85.57515,24.697575 Z" id="Fill-37" fill="#7C7C7C"></path>
                    <path d="M78,41.947275 L73.875,30.322275 L73.8,30.097275 C73.425,28.597275 72.375,27.548025 70.725,27.548025 L65.325,27.548025 C63.675,27.548025 62.55,28.673025 62.25,30.247275 L58.65,41.872275 C58.5,42.773025 58.95,43.597275 59.775,43.747275 C60.6,43.898025 61.35,43.298025 61.5,42.398025 L64.35,31.898025 L61.5,50.947275 L64.275,50.947275 L64.275,59.273025 C64.275,60.173025 64.875,60.997275 65.775,61.072275 C66.75,61.148025 67.575,60.398025 67.575,59.423025 L67.575,51.023025 L68.55,51.023025 L68.55,59.347275 C68.55,60.247275 69.15,61.072275 70.05,61.148025 C71.025,61.222275 71.85,60.472275 71.85,59.497275 L71.85,51.097275 L75.075,51.097275 L71.85,32.048025 L75.15,42.698025 C75.375,43.597275 76.2,44.197275 76.95,43.972275 C77.7,43.673025 78.225,42.847275 78,41.947275 L78,41.947275 Z M71.4,27.023025 L71.4,27.023025 L71.175,24.548025 L71.325,24.247275 L71.4,22.972275 C71.4,22.822275 71.325,22.597275 71.175,22.597275 C71.175,20.872275 69.75,19.447275 67.95,19.447275 C66.225,19.447275 64.8,20.872275 64.725,22.597275 C64.575,22.597275 64.425,22.822275 64.5,22.972275 L64.575,24.247275 L64.725,24.548025 L64.5,27.023025 L71.4,27.023025 Z" id="Fill-39" fill="#7C7C7C"></path>
                    <path d="M139.34985,31.372575 C139.34985,29.347575 138.22485,27.697575 136.19985,27.697575 L128.84985,27.697575 C126.97485,27.697575 125.84985,29.047575 125.69985,30.847575 C125.62485,30.997575 125.62485,31.147575 125.62485,31.297575 L125.09985,43.297575 C125.09985,44.197575 125.77485,44.947575 126.52485,44.947575 C127.34985,44.947575 127.94985,44.197575 127.94985,43.297575 L127.94985,32.197575 L128.62485,39.997575 L128.62485,59.497575 C128.62485,60.472575 129.44985,61.222575 130.42485,61.147575 C131.32485,61.072575 131.92485,60.247575 131.92485,59.422575 L131.92485,43.747575 L132.37485,43.747575 L132.82485,43.747575 L132.82485,59.497575 C132.82485,60.172575 133.19985,60.847575 133.79985,61.072575 C134.99985,61.522575 136.12485,60.697575 136.12485,59.572575 L136.12485,40.072575 L136.72485,32.722575 L136.72485,43.447575 C136.72485,44.347575 137.39985,45.097575 138.22485,45.097575 C139.0506,45.097575 139.72485,44.347575 139.72485,43.447575 L139.34985,31.372575 Z M129.52485,24.697575 L129.74985,24.547575 C130.27485,25.822575 131.32485,26.872575 132.52485,26.872575 C133.72485,26.872575 134.69985,25.822575 135.3006,24.547575 L135.52485,24.697575 C135.6756,24.697575 135.82485,24.547575 135.89985,24.322575 L136.0506,23.047575 C136.0506,22.897575 135.97485,22.672575 135.82485,22.672575 C135.82485,20.947575 134.39985,19.522575 132.67485,19.522575 C130.94985,19.522575 129.52485,20.947575 129.52485,22.672575 C129.37485,22.672575 129.22485,22.897575 129.29985,23.047575 L129.37485,24.322575 C129.22485,24.547575 129.37485,24.697575 129.52485,24.697575 L129.52485,24.697575 Z" id="Fill-41" fill="#7C7C7C"></path>
                    <path d="M120.450075,41.947275 L116.325075,30.322275 L116.250075,30.097275 C115.875075,28.597275 114.825075,27.548025 113.175075,27.548025 L107.775075,27.548025 C106.125075,27.548025 105.000075,28.673025 104.700075,30.247275 L101.100075,41.872275 C100.950075,42.773025 101.400075,43.597275 102.225075,43.747275 C103.050075,43.898025 103.800075,43.298025 103.950075,42.398025 L106.800075,31.898025 L103.950075,50.947275 L106.725075,50.947275 L106.725075,59.273025 C106.725075,60.173025 107.325075,60.997275 108.225075,61.072275 C109.200075,61.148025 110.025075,60.398025 110.025075,59.423025 L110.025075,51.023025 L111.000075,51.023025 L111.000075,59.347275 C111.000075,60.247275 111.600075,61.072275 112.500075,61.148025 C113.475075,61.222275 114.300075,60.472275 114.300075,59.497275 L114.300075,51.097275 L117.525075,51.097275 L114.300075,32.048025 L117.600075,42.698025 C117.825075,43.597275 118.650075,44.197275 119.400075,43.972275 C120.150075,43.673025 120.675075,42.847275 120.450075,41.947275 L120.450075,41.947275 Z M113.850075,27.023025 C113.850075,27.023025 113.925075,27.023025 113.850075,27.023025 L113.625075,24.548025 L113.775075,24.247275 L113.850075,22.972275 C113.850075,22.822275 113.775075,22.597275 113.625075,22.597275 C113.625075,20.872275 112.200075,19.447275 110.400075,19.447275 C108.675075,19.447275 107.250075,20.872275 107.175075,22.597275 C107.025075,22.597275 106.875075,22.822275 106.950075,22.972275 L107.025075,24.247275 L107.175075,24.548025 L106.950075,27.023025 L113.850075,27.023025 Z" id="Fill-43" fill="#7C7C7C"></path>
                    <path d="M162.75,41.947275 L158.625,30.322275 L158.55,30.097275 C158.175,28.597275 157.125,27.548025 155.475,27.548025 L150.075,27.548025 C148.425,27.548025 147.3,28.673025 147,30.247275 L143.4,41.872275 C143.25,42.773025 143.7,43.597275 144.525,43.747275 C145.35,43.898025 146.1,43.298025 146.25,42.398025 L149.1,31.898025 L146.25,50.947275 L149.025,50.947275 L149.025,59.273025 C149.025,60.173025 149.625,60.997275 150.525,61.072275 C151.5,61.148025 152.325,60.398025 152.325,59.423025 L152.325,51.023025 L153.3,51.023025 L153.3,59.347275 C153.3,60.247275 153.9,61.072275 154.8,61.148025 C155.775,61.222275 156.6,60.472275 156.6,59.497275 L156.6,51.097275 L159.825,51.097275 L156.6,32.048025 L159.9,42.698025 C160.125,43.597275 160.95075,44.197275 161.70075,43.972275 C162.45,43.673025 162.975,42.847275 162.75,41.947275 L162.75,41.947275 Z M156.15,27.023025 C156.225,27.023025 156.225,27.023025 156.15,27.023025 L155.925,24.548025 L156.075,24.247275 L156.15,22.972275 C156.15,22.822275 156.075,22.597275 155.925,22.597275 C155.925,20.872275 154.5,19.447275 152.7,19.447275 C150.975,19.447275 149.55,20.872275 149.475,22.597275 C149.325,22.597275 149.175,22.822275 149.25,22.972275 L149.325,24.247275 L149.475,24.548025 L149.25,27.023025 L156.15,27.023025 Z" id="Fill-45" fill="#7C7C7C"></path>
                    <path d="M41.09985,37.147725 C41.09985,34.972725 39.89985,33.172725 37.64985,33.172725 L29.69985,33.172725 C27.67485,33.172725 26.47485,34.672725 26.32485,36.622725 C26.24985,36.772725 26.24985,36.997725 26.24985,37.147725 L25.72485,50.122725 C25.72485,51.097725 26.39985,51.922725 27.29985,51.922725 C28.19985,51.922725 28.87485,51.097725 28.87485,50.122725 L28.87485,38.122725 L29.62485,46.522725 L29.62485,67.597725 C29.62485,68.571975 30.44985,69.397725 31.42485,69.397725 C32.39985,69.397725 33.22485,68.571975 33.22485,67.597725 L33.22485,50.571975 L33.74985,50.571975 L34.27485,50.571975 L34.27485,67.597725 C34.27485,68.571975 35.09985,69.397725 36.07485,69.397725 C37.04985,69.397725 37.87485,68.571975 37.87485,67.597725 L37.87485,46.522725 L38.54985,38.571975 L38.54985,50.122725 C38.54985,51.097725 39.29985,51.922725 40.12485,51.922725 C41.02485,51.922725 41.69985,51.097725 41.69985,50.122725 L41.09985,37.147725 Z M30.44985,29.946975 L30.67485,29.797725 C31.27485,31.147725 32.39985,32.272725 33.67485,32.272725 C34.94985,32.272725 36.07485,31.147725 36.67485,29.797725 L36.89985,29.946975 C37.04985,29.946975 37.27485,29.797725 37.27485,29.571975 L37.42485,28.147725 C37.42485,27.922725 37.34985,27.772725 37.19985,27.772725 C37.19985,25.897725 35.62485,24.321975 33.74985,24.321975 C31.87485,24.321975 30.29985,25.821975 30.29985,27.696975 C30.14985,27.696975 29.99985,27.922725 29.99985,28.147725 L30.14985,29.571975 C30.14985,29.797725 30.29985,29.946975 30.44985,29.946975 L30.44985,29.946975 Z" id="Fill-47" fill="#565656"></path>
                    <path d="M22.27515,48.622575 L17.77515,36.097575 L17.70015,35.872575 C17.32515,34.297575 16.20015,33.097575 14.40015,33.097575 L8.55015,33.097575 C6.75015,33.097575 5.55015,34.297575 5.25015,36.022575 L1.35015,48.622575 C1.20015,49.597575 1.72515,50.497575 2.55015,50.647575 C3.37515,50.797575 4.20015,50.122575 4.42515,49.147575 L7.50015,37.822575 L4.35015,58.447575 L7.35015,58.447575 L7.35015,67.597575 C7.35015,68.572575 8.17515,69.397575 9.15015,69.397575 C10.12515,69.397575 10.95015,68.572575 10.95015,67.597575 L10.95015,58.447575 L12.00015,58.447575 L12.00015,67.597575 C12.00015,68.572575 12.82515,69.397575 13.80015,69.397575 C14.77515,69.397575 15.60015,68.572575 15.60015,67.597575 L15.60015,58.447575 L19.12515,58.447575 L15.60015,37.822575 L19.20015,49.297575 C19.42515,50.272575 20.32515,50.872575 21.15015,50.722575 C21.97515,50.497575 22.50015,49.597575 22.27515,48.622575 L22.27515,48.622575 Z M15.15015,32.497575 L14.85015,29.797575 L15.00015,29.497575 L15.15015,28.072575 C15.15015,27.847575 15.07515,27.697575 14.92515,27.622575 C14.92515,25.747575 13.35015,24.172575 11.47515,24.172575 C9.60015,24.172575 8.02515,25.672575 8.02515,27.622575 C7.87515,27.622575 7.72515,27.847575 7.72515,28.072575 L7.87515,29.497575 L8.02515,29.797575 L7.72515,32.497575 L15.15015,32.497575 Z" id="Fill-49" fill="#565656"></path>
                    <path d="M85.27515,37.147725 C85.27515,34.972725 84.07515,33.172725 81.82515,33.172725 L73.87515,33.172725 C71.85015,33.172725 70.65015,34.672725 70.50015,36.622725 C70.42515,36.772725 70.42515,36.997725 70.42515,37.147725 L69.90015,50.122725 C69.90015,51.097725 70.57515,51.922725 71.47515,51.922725 C72.37515,51.922725 73.05015,51.097725 73.05015,50.122725 L73.05015,38.122725 L73.80015,46.522725 L73.80015,67.597725 C73.80015,68.571975 74.62515,69.397725 75.60015,69.397725 C76.57515,69.397725 77.40015,68.571975 77.40015,67.597725 L77.40015,50.571975 L77.92515,50.571975 L78.45015,50.571975 L78.45015,67.597725 C78.45015,68.571975 79.27515,69.397725 80.25015,69.397725 C81.22515,69.397725 82.05015,68.571975 82.05015,67.597725 L82.05015,46.522725 L82.72515,38.571975 L82.72515,50.122725 C82.72515,51.097725 83.47515,51.922725 84.30015,51.922725 C85.20015,51.922725 85.87515,51.097725 85.87515,50.122725 L85.27515,37.147725 Z M74.62515,29.946975 L74.85015,29.797725 C75.45015,31.147725 76.57515,32.272725 77.85015,32.272725 C79.12515,32.272725 80.25015,31.147725 80.85015,29.797725 L81.07515,29.946975 C81.22515,29.946975 81.45015,29.797725 81.45015,29.571975 L81.60015,28.147725 C81.60015,27.922725 81.52515,27.772725 81.37515,27.772725 C81.37515,25.897725 79.80015,24.321975 77.92515,24.321975 C76.05015,24.321975 74.47515,25.821975 74.47515,27.696975 C74.32515,27.696975 74.17515,27.922725 74.17515,28.147725 L74.32515,29.571975 C74.25015,29.797725 74.40015,29.946975 74.62515,29.946975 L74.62515,29.946975 Z" id="Fill-51" fill="#565656"></path>
                    <path d="M66.375,48.622575 L61.875,36.097575 L61.8,35.872575 C61.425,34.297575 60.3,33.097575 58.5,33.097575 L52.65,33.097575 C50.85,33.097575 49.65,34.297575 49.35,36.022575 L45.45,48.622575 C45.3,49.597575 45.825,50.497575 46.65,50.647575 C47.475,50.797575 48.3,50.122575 48.525,49.147575 L51.6,37.822575 L48.45,58.447575 L51.45,58.447575 L51.45,67.597575 C51.45,68.572575 52.275,69.397575 53.25,69.397575 C54.225,69.397575 55.05,68.572575 55.05,67.597575 L55.05,58.447575 L56.1,58.447575 L56.1,67.597575 C56.1,68.572575 56.925,69.397575 57.9,69.397575 C58.875,69.397575 59.7,68.572575 59.7,67.597575 L59.7,58.447575 L63.225,58.447575 L59.7,37.822575 L63.3,49.297575 C63.525,50.272575 64.425,50.872575 65.25,50.722575 C66.075,50.497575 66.6,49.597575 66.375,48.622575 L66.375,48.622575 Z M59.325,32.497575 L59.025,29.797575 L59.175,29.497575 L59.325,28.072575 C59.325,27.847575 59.25,27.697575 59.1,27.622575 C59.1,25.747575 57.525,24.172575 55.65,24.172575 C53.775,24.172575 52.2,25.672575 52.2,27.622575 C52.05,27.622575 51.9,27.847575 51.9,28.072575 L52.05,29.497575 L52.2,29.797575 L51.9,32.497575 L59.325,32.497575 Z" id="Fill-53" fill="#565656"></path>
                    <path d="M127.875,37.147725 C127.875,34.972725 126.675,33.172725 124.425,33.172725 L116.475,33.172725 C114.45,33.172725 113.25,34.672725 113.1,36.622725 C113.025,36.772725 113.025,36.997725 113.025,37.147725 L112.5,50.122725 C112.5,51.097725 113.175,51.922725 114.075,51.922725 C114.975,51.922725 115.65,51.097725 115.65,50.122725 L115.65,38.122725 L116.4,46.522725 L116.4,67.597725 C116.4,68.571975 117.225,69.397725 118.2,69.397725 C119.175,69.397725 120,68.571975 120,67.597725 L120,50.571975 L120.525,50.571975 L121.05,50.571975 L121.05,67.597725 C121.05,68.571975 121.875,69.397725 122.85,69.397725 C123.825,69.397725 124.65,68.571975 124.65,67.597725 L124.65,46.522725 L125.325,38.571975 L125.325,50.122725 C125.325,51.097725 126.075,51.922725 126.9,51.922725 C127.8,51.922725 128.475,51.097725 128.475,50.122725 L127.875,37.147725 Z M117.3,29.946975 L117.525,29.797725 C118.125,31.147725 119.25,32.272725 120.525,32.272725 C121.8,32.272725 122.925,31.147725 123.525,29.797725 L123.75,29.946975 C123.9,29.946975 124.125,29.797725 124.125,29.571975 L124.275,28.147725 C124.275,27.922725 124.2,27.772725 124.05,27.772725 C124.05,25.897725 122.475,24.321975 120.6,24.321975 C118.725,24.321975 117.15,25.821975 117.15,27.696975 C117,27.696975 116.85,27.922725 116.85,28.147725 L117,29.571975 C116.925,29.797725 117.075,29.946975 117.3,29.946975 L117.3,29.946975 Z" id="Fill-55" fill="#565656"></path>
                    <path d="M109.049925,48.622575 L104.549925,36.097575 L104.474925,35.872575 C104.099925,34.297575 102.974925,33.097575 101.174925,33.097575 L95.324925,33.097575 C93.524925,33.097575 92.324925,34.297575 92.024925,36.022575 L88.124925,48.622575 C87.974925,49.597575 88.499925,50.497575 89.324925,50.647575 C90.149925,50.797575 90.974925,50.122575 91.199925,49.147575 L94.274925,37.822575 L91.124925,58.447575 L94.124925,58.447575 L94.124925,67.597575 C94.124925,68.572575 94.949925,69.397575 95.924925,69.397575 C96.899925,69.397575 97.724925,68.572575 97.724925,67.597575 L97.724925,58.447575 L98.774925,58.447575 L98.774925,67.597575 C98.774925,68.572575 99.599925,69.397575 100.574925,69.397575 C101.549925,69.397575 102.374925,68.572575 102.374925,67.597575 L102.374925,58.447575 L105.899925,58.447575 L102.374925,37.822575 L105.974925,49.297575 C106.199925,50.272575 107.099925,50.872575 107.924925,50.722575 C108.749925,50.497575 109.274925,49.597575 109.049925,48.622575 L109.049925,48.622575 Z M101.999925,32.497575 L101.699925,29.797575 L101.849925,29.497575 L101.999925,28.072575 C101.999925,27.847575 101.924925,27.697575 101.774925,27.622575 C101.774925,25.747575 100.199925,24.172575 98.324925,24.172575 C96.449925,24.172575 94.874925,25.672575 94.874925,27.622575 C94.724925,27.622575 94.574925,27.847575 94.574925,28.072575 L94.724925,29.497575 L94.874925,29.797575 L94.574925,32.497575 L101.999925,32.497575 Z" id="Fill-57" fill="#565656"></path>
                    <path d="M172.0503,37.147725 C172.0503,34.972725 170.84955,33.172725 168.59955,33.172725 L160.6503,33.172725 C158.6253,33.172725 157.4253,34.672725 157.2753,36.622725 C157.19955,36.772725 157.19955,36.997725 157.19955,37.147725 L156.6753,50.122725 C156.6753,51.097725 157.34955,51.922725 158.2503,51.922725 C159.1503,51.922725 159.82455,51.097725 159.82455,50.122725 L159.82455,38.122725 L160.57455,46.522725 L160.57455,67.597725 C160.57455,68.571975 161.4003,69.397725 162.3753,69.397725 C163.34955,69.397725 164.1753,68.571975 164.1753,67.597725 L164.1753,50.571975 L164.69955,50.571975 L165.22455,50.571975 L165.22455,67.597725 C165.22455,68.571975 166.0503,69.397725 167.0253,69.397725 C168.0003,69.397725 168.8253,68.571975 168.8253,67.597725 L168.8253,46.522725 L169.5003,38.571975 L169.5003,50.122725 C169.5003,51.097725 170.2503,51.922725 171.0753,51.922725 C171.97455,51.922725 172.6503,51.097725 172.6503,50.122725 L172.0503,37.147725 Z M161.4003,29.946975 L161.6253,29.797725 C162.22455,31.147725 163.34955,32.272725 164.6253,32.272725 C165.9003,32.272725 167.0253,31.147725 167.6253,29.797725 L167.84955,29.946975 C168.0003,29.946975 168.22455,29.797725 168.22455,29.571975 L168.3753,28.147725 C168.3753,27.922725 168.3003,27.772725 168.1503,27.772725 C168.1503,25.897725 166.57455,24.321975 164.69955,24.321975 C162.82455,24.321975 161.2503,25.821975 161.2503,27.696975 C161.09955,27.696975 160.94955,27.922725 160.94955,28.147725 L161.09955,29.571975 C161.0253,29.797725 161.2503,29.946975 161.4003,29.946975 L161.4003,29.946975 Z" id="Fill-59" fill="#565656"></path>
                    <path d="M153.22485,48.622575 L148.72485,36.097575 L148.64985,35.872575 C148.27485,34.297575 147.14985,33.097575 145.34985,33.097575 L139.49985,33.097575 C137.69985,33.097575 136.49985,34.297575 136.19985,36.022575 L132.29985,48.622575 C132.14985,49.597575 132.67485,50.497575 133.49985,50.647575 C134.32485,50.797575 135.14985,50.122575 135.37485,49.147575 L138.44985,37.822575 L135.3006,58.447575 L138.3006,58.447575 L138.3006,67.597575 C138.3006,68.572575 139.12485,69.397575 140.09985,69.397575 C141.07485,69.397575 141.89985,68.572575 141.89985,67.597575 L141.89985,58.447575 L142.94985,58.447575 L142.94985,67.597575 C142.94985,68.572575 143.77485,69.397575 144.74985,69.397575 C145.72485,69.397575 146.5506,68.572575 146.5506,67.597575 L146.5506,58.447575 L150.07485,58.447575 L146.5506,37.822575 L150.14985,49.297575 C150.37485,50.272575 151.27485,50.872575 152.09985,50.722575 C152.9256,50.497575 153.44985,49.597575 153.22485,48.622575 L153.22485,48.622575 Z M146.09985,32.497575 L145.8006,29.797575 L145.94985,29.497575 L146.09985,28.072575 C146.09985,27.847575 146.02485,27.697575 145.87485,27.622575 C145.87485,25.747575 144.3006,24.172575 142.4256,24.172575 C140.5506,24.172575 138.97485,25.672575 138.97485,27.622575 C138.82485,27.622575 138.6756,27.847575 138.6756,28.072575 L138.82485,29.497575 L138.97485,29.797575 L138.6756,32.497575 L146.09985,32.497575 Z" id="Fill-61" fill="#565656"></path>
                </g>
            </g>
        </g>
    </g>
</svg>