<?xml version="1.0" encoding="UTF-8"?>
<svg width="303px" height="68px" viewBox="0 0 303 68" version="1.1" xmlns="http://www.w3.org/2000/svg" xmlns:xlink="http://www.w3.org/1999/xlink">
    <!-- Generator: Sketch 59.1 (86144) - https://sketch.com -->
    <title>Income 2</title>
    <desc>Created with Sketch.</desc>
    <g id="Export-Outlined-SVG" stroke="none" stroke-width="1" fill="none" fill-rule="evenodd">
        <g id="2" transform="translate(-840.000000, -217.000000)">
            <g id="Income-2" transform="translate(840.000000, 214.000000)">
                <g id="Income">
                    <polygon id="Fill-1" fill="#E0E0E0" points="3 37 300 37 300 27 3 27"></polygon>
                    <path d="M57.5145,65.5875 C57.5145,65.0274972 57.5967492,64.5252522 57.76125,64.08075 C57.9257508,63.6362478 58.1514986,63.2600015 58.4385,62.952 C58.7255014,62.6439985 59.0614981,62.4095008 59.4465,62.2485 C59.8315019,62.0874992 60.2444978,62.007 60.6855,62.007 C61.1055021,62.007 61.4817483,62.0944991 61.81425,62.2695 C62.1467517,62.4445009 62.4214989,62.6474988 62.6385,62.8785 L61.956,63.6345 C61.7809991,63.4594991 61.593751,63.3212505 61.39425,63.21975 C61.194749,63.1182495 60.9620013,63.0675 60.696,63.0675 C60.4089986,63.0675 60.1482512,63.1252494 59.91375,63.24075 C59.6792488,63.3562506 59.4762509,63.5207489 59.30475,63.73425 C59.1332491,63.9477511 59.0002505,64.2084985 58.90575,64.5165 C58.8112495,64.8245015 58.764,65.1709981 58.764,65.556 C58.764,66.3400039 58.9337483,66.9542478 59.27325,67.39875 C59.6127517,67.8432522 60.0729971,68.0655 60.654,68.0655 C60.9620015,68.0655 61.2297489,68.0060006 61.45725,67.887 C61.6847511,67.7679994 61.896499,67.6000011 62.0925,67.383 L62.775,68.1285 C62.4949986,68.4505016 62.1765018,68.6972491 61.8195,68.86875 C61.4624982,69.0402509 61.0670022,69.126 60.633,69.126 C60.1919978,69.126 59.7825019,69.0490008 59.4045,68.895 C59.0264981,68.7409992 58.6975014,68.5135015 58.4175,68.2125 C58.1374986,67.9114985 57.9170008,67.5405022 57.756,67.0995 C57.5949992,66.6584978 57.5145,66.1545028 57.5145,65.5875 Z M63.9195,62.133 L65.1375,62.133 L65.1375,67.971 L67.9935,67.971 L67.9935,69 L63.9195,69 L63.9195,62.133 Z M68.466,62.133 L69.684,62.133 L69.684,66.081 C69.684,66.4520019 69.7172497,66.7652487 69.78375,67.02075 C69.8502503,67.2762513 69.9447494,67.4809992 70.06725,67.635 C70.1897506,67.7890008 70.3349992,67.8992497 70.503,67.96575 C70.6710008,68.0322503 70.8599989,68.0655 71.07,68.0655 C71.280001,68.0655 71.4724991,68.0322503 71.6475,67.96575 C71.8225009,67.8992497 71.9729994,67.7890008 72.099,67.635 C72.2250006,67.4809992 72.3229996,67.2762513 72.393,67.02075 C72.4630003,66.7652487 72.498,66.4520019 72.498,66.081 L72.498,62.133 L73.6635,62.133 L73.6635,65.9865 C73.6635,66.5535028 73.6040006,67.034748 73.485,67.43025 C73.3659994,67.825752 73.1927511,68.1494987 72.96525,68.4015 C72.7377489,68.6535013 72.4647516,68.8372494 72.14625,68.95275 C71.8277484,69.0682506 71.469002,69.126 71.07,69.126 C70.670998,69.126 70.3122516,69.0682506 69.99375,68.95275 C69.6752484,68.8372494 69.4022511,68.6535013 69.17475,68.4015 C68.9472489,68.1494987 68.7722506,67.825752 68.64975,67.43025 C68.5272494,67.034748 68.466,66.5535028 68.466,65.9865 L68.466,62.133 Z M75.4065,67.2885 C75.6515012,67.5195012 75.9314984,67.7067493 76.2465,67.85025 C76.5615016,67.9937507 76.8764984,68.0655 77.1915,68.0655 C77.583502,68.0655 77.880999,67.9850008 78.084,67.824 C78.287001,67.6629992 78.3885,67.4495013 78.3885,67.1835 C78.3885,67.0434993 78.3622503,66.9245005 78.30975,66.8265 C78.2572497,66.7284995 78.1837505,66.6427504 78.08925,66.56925 C77.9947495,66.4957496 77.8827506,66.4275003 77.75325,66.3645 C77.6237493,66.3014997 77.4820008,66.2385003 77.328,66.1755 L76.383,65.766 C76.2149992,65.6959996 76.0487508,65.6085005 75.88425,65.5035 C75.7197492,65.3984995 75.5710007,65.2725007 75.438,65.1255 C75.3049993,64.9784993 75.1982504,64.807001 75.11775,64.611 C75.0372496,64.414999 74.997,64.1910013 74.997,63.939 C74.997,63.6659986 75.0547494,63.4122512 75.17025,63.17775 C75.2857506,62.9432488 75.444999,62.7385009 75.648,62.5635 C75.851001,62.3884991 76.0942486,62.2520005 76.37775,62.154 C76.6612514,62.0559995 76.9709983,62.007 77.307,62.007 C77.706002,62.007 78.0909981,62.0857492 78.462,62.24325 C78.8330018,62.4007508 79.1514987,62.6124987 79.4175,62.8785 L78.798,63.6555 C78.5739989,63.4734991 78.3430012,63.3300005 78.105,63.225 C77.8669988,63.1199995 77.6010015,63.0675 77.307,63.0675 C76.9779983,63.0675 76.715501,63.1392493 76.5195,63.28275 C76.323499,63.4262507 76.2255,63.6239987 76.2255,63.876 C76.2255,64.0090007 76.2552497,64.1227495 76.31475,64.21725 C76.3742503,64.3117505 76.4547495,64.3957496 76.55625,64.46925 C76.6577505,64.5427504 76.7749993,64.6092497 76.908,64.66875 L77.110125,64.7566875 L77.110125,64.7566875 L78.252,65.2305 C78.455001,65.3145004 78.6404992,65.4124994 78.8085,65.5245 C78.9765008,65.6365006 79.1217494,65.7659993 79.24425,65.913 C79.3667506,66.0600007 79.4629996,66.229749 79.533,66.42225 C79.6030003,66.614751 79.638,66.8369987 79.638,67.089 C79.638,67.3690014 79.5820006,67.6314988 79.47,67.8765 C79.3579994,68.1215012 79.1952511,68.3367491 78.98175,68.52225 C78.7682489,68.7077509 78.5092515,68.8547495 78.20475,68.96325 C77.9002485,69.0717505 77.5555019,69.126 77.1705,69.126 C76.7084977,69.126 76.2622521,69.0385009 75.83175,68.8635 C75.4012478,68.6884991 75.0215016,68.4400016 74.6925,68.118 L75.4065,67.2885 Z M81.8535,63.162 L79.869,63.162 L79.869,62.133 L85.056,62.133 L85.056,63.162 L83.0715,63.162 L83.0715,69 L81.8535,69 L81.8535,63.162 Z M86.2005,62.133 L90.3375,62.133 L90.3375,63.162 L87.4185,63.162 L87.4185,64.9155 L89.886,64.9155 L89.886,65.9445 L87.4185,65.9445 L87.4185,67.971 L90.4425,67.971 L90.4425,69 L86.2005,69 L86.2005,62.133 Z M93.0675,65.346 L94.044,65.346 C94.5130023,65.346 94.8717487,65.248001 95.12025,65.052 C95.3687512,64.855999 95.493,64.562002 95.493,64.17 C95.493,63.770998 95.3687512,63.4945008 95.12025,63.3405 C94.8717487,63.1864992 94.5130023,63.1095 94.044,63.1095 L93.0675,63.1095 L93.0675,65.346 Z M95.598,69 L94.1175,66.312 L93.0675,66.312 L93.0675,69 L91.8495,69 L91.8495,62.133 L94.17,62.133 C94.5270018,62.133 94.8594984,62.1679997 95.1675,62.238 C95.4755015,62.3080003 95.7414989,62.4217492 95.9655,62.57925 C96.1895011,62.7367508 96.3662493,62.9449987 96.49575,63.204 C96.6252506,63.4630013 96.69,63.7849981 96.69,64.17 C96.69,64.6950026 96.5657512,65.1184984 96.31725,65.4405 C96.0687487,65.7625016 95.7380021,65.9934993 95.325,66.1335 L96.963,69 L95.598,69 Z M100.2915,62.133 L101.6355,62.133 L102.8745,65.514 L103.326,66.816 L103.368,66.816 L103.809,65.514 L105.027,62.133 L106.371,62.133 L106.371,69 L105.2265,69 L105.2265,65.8605 L105.2335,65.5198336 L105.2335,65.5198336 L105.24225,65.3355 C105.25275,65.1464991 105.265,64.955751 105.279,64.76325 L105.302625,64.477125 L105.302625,64.477125 L105.368833,63.8415835 C105.374278,63.7851947 105.379333,63.7301669 105.384,63.6765 L105.342,63.6765 L104.7855,65.241 L103.599,68.3595 L103.032,68.3595 L101.8455,65.241 L101.2995,63.6765 L101.2575,63.6765 L101.35725,64.76325 L101.35725,64.76325 C101.37475,64.955751 101.38875,65.1464991 101.39925,65.3355 C101.40625,65.4615006 101.410917,65.5812778 101.41325,65.6948332 L101.415,69 L100.2915,69 L100.2915,62.133 Z M108.114,62.133 L112.251,62.133 L112.251,63.162 L109.332,63.162 L109.332,64.9155 L111.7995,64.9155 L111.7995,65.9445 L109.332,65.9445 L109.332,67.971 L112.356,67.971 L112.356,69 L108.114,69 L108.114,62.133 Z M113.763,62.133 L115.6005,62.133 C116.650505,62.133 117.469497,62.4164972 118.0575,62.9835 C118.645503,63.5505028 118.9395,64.4009943 118.9395,65.535 C118.9395,66.1020028 118.864251,66.6024978 118.71375,67.0365 C118.563249,67.4705022 118.346251,67.8327485 118.06275,68.12325 C117.779249,68.4137515 117.436252,68.6324993 117.03375,68.7795 C116.631248,68.9265007 116.174503,69 115.6635,69 L113.763,69 L113.763,62.133 Z M115.5165,68.013 C116.216503,68.013 116.753748,67.811752 117.12825,67.40925 C117.502752,67.006748 117.69,66.3820042 117.69,65.535 C117.69,64.6949958 117.501002,64.0825019 117.123,63.6975 C116.744998,63.3124981 116.209503,63.12 115.5165,63.12 L114.981,63.12 L114.981,68.013 L115.5165,68.013 Z M120.3255,62.133 L121.5435,62.133 L121.5435,69 L120.3255,69 L120.3255,62.133 Z M126.2055,66.186 L125.964,65.346 C125.851999,64.9819982 125.74525,64.6075019 125.64375,64.2225 L125.3445,63.078 L125.3445,63.078 L125.3025,63.078 L125.0085,64.22775 L125.0085,64.22775 C124.910499,64.6092519 124.805501,64.9819982 124.6935,65.346 L124.452,66.186 L126.2055,66.186 Z M126.4785,67.1415 L124.1685,67.1415 L123.633,69 L122.394,69 L124.6305,62.133 L126.0585,62.133 L128.295,69 L127.014,69 L126.4785,67.1415 Z M129.1455,62.133 L130.395,62.133 L132.537,65.997 L133.2405,67.4565 L133.2825,67.4565 L133.2195,66.7075005 C133.207833,66.576834 133.195583,66.4432507 133.18275,66.30675 C133.14425,65.897248 133.125,65.5000019 133.125,65.115 L133.125,62.133 L134.2905,62.133 L134.2905,69 L133.041,69 L130.899,65.136 L130.1955,63.6765 L130.1535,63.6765 L130.2165,64.4278329 C130.228167,64.5569438 130.240417,64.6879993 130.25325,64.821 C130.29175,65.220002 130.311,65.6119981 130.311,65.997 L130.311,69 L129.1455,69 L129.1455,62.133 Z M135.8235,64.716 C135.8235,64.4779988 135.898749,64.2820008 136.04925,64.128 C136.199751,63.9739992 136.386999,63.897 136.611,63.897 C136.835001,63.897 137.020499,63.9739992 137.1675,64.128 C137.314501,64.2820008 137.388,64.4779988 137.388,64.716 C137.388,64.9540012 137.314501,65.1499992 137.1675,65.304 C137.020499,65.4580008 136.835001,65.535 136.611,65.535 C136.386999,65.535 136.199751,65.4580008 136.04925,65.304 C135.898749,65.1499992 135.8235,64.9540012 135.8235,64.716 Z M135.8235,68.307 C135.8235,68.0689988 135.898749,67.8730008 136.04925,67.719 C136.199751,67.5649992 136.386999,67.488 136.611,67.488 C136.835001,67.488 137.020499,67.5649992 137.1675,67.719 C137.314501,67.8730008 137.388,68.0689988 137.388,68.307 C137.388,68.5450012 137.314501,68.7409992 137.1675,68.895 C137.020499,69.0490008 136.835001,69.126 136.611,69.126 C136.386999,69.126 136.199751,69.0490008 136.04925,68.895 C135.898749,68.7409992 135.8235,68.5450012 135.8235,68.307 Z M144.234,63.7395 C144.037999,63.5574991 143.849001,63.4192505 143.667,63.32475 C143.484999,63.2302495 143.268001,63.183 143.016,63.183 C142.728999,63.183 142.505001,63.2547493 142.344,63.39825 C142.182999,63.5417507 142.1025,63.7499986 142.1025,64.023 C142.1025,64.233001 142.172499,64.4062493 142.3125,64.54275 C142.452501,64.6792507 142.629249,64.8052494 142.84275,64.92075 C143.056251,65.0362506 143.285499,65.1517494 143.5305,65.26725 C143.775501,65.3827506 144.004749,65.5209992 144.21825,65.682 C144.431751,65.8430008 144.608499,66.0407488 144.7485,66.27525 C144.888501,66.5097512 144.9585,66.8019982 144.9585,67.152 C144.9585,67.6560025 144.818501,68.0777483 144.5385,68.41725 C144.258499,68.7567517 143.856003,68.9754995 143.331,69.0735 L143.331,70.155 L142.491,70.155 L142.491,69.105 C142.168998,69.0699998 141.845252,68.9842507 141.51975,68.84775 C141.194248,68.7112493 140.912501,68.5310011 140.6745,68.307 L141.2205,67.488 C141.465501,67.684001 141.713999,67.8414994 141.966,67.9605 C142.218001,68.0795006 142.487499,68.139 142.7745,68.139 C143.117502,68.139 143.372999,68.0602508 143.541,67.90275 C143.709001,67.7452492 143.793,67.5230014 143.793,67.236 C143.793,67.0049988 143.723001,66.8125008 143.583,66.6585 C143.442999,66.5044992 143.266251,66.3645006 143.05275,66.2385 C142.839249,66.1124994 142.610001,65.9917506 142.365,65.87625 C142.119999,65.7607494 141.890751,65.6242508 141.67725,65.46675 C141.463749,65.3092492 141.287001,65.1202511 141.147,64.89975 C141.006999,64.6792489 140.937,64.4045016 140.937,64.0755 C140.937,63.5854976 141.076999,63.1777516 141.357,62.85225 C141.637001,62.5267484 142.014998,62.3220004 142.491,62.238 L142.491,61.167 L143.331,61.167 L143.331,62.217 C143.667002,62.2590002 143.955749,62.3552492 144.19725,62.50575 C144.438751,62.6562508 144.657499,62.832999 144.8535,63.036 L144.234,63.7395 Z M146.3655,68.013 L147.8565,68.013 L147.8565,63.624 L146.628,63.624 L146.628,62.868 C146.964002,62.8049997 147.252749,62.7297504 147.49425,62.64225 C147.735751,62.5547496 147.961499,62.4480006 148.1715,62.322 L149.0745,62.322 L149.0745,68.013 L150.387,68.013 L150.387,69 L146.3655,69 L146.3655,68.013 Z M151.7835,67.425 C151.986501,67.6140009 152.213999,67.7802493 152.466,67.92375 C152.718001,68.0672507 153.011998,68.139 153.348,68.139 C153.726002,68.139 154.035749,68.0270011 154.27725,67.803 C154.518751,67.5789989 154.6395,67.264002 154.6395,66.858 C154.6395,66.458998 154.527501,66.1510011 154.3035,65.934 C154.079499,65.7169989 153.782002,65.6085 153.411,65.6085 C153.193999,65.6085 153.012001,65.6382497 152.865,65.69775 C152.717999,65.7572503 152.543001,65.8534993 152.34,65.9865 L151.7625,65.619 L151.962,62.322 L155.532,62.322 L155.532,63.3405 L153.012,63.3405 L152.8755,64.9575 C153.015501,64.8874996 153.153749,64.8332502 153.29025,64.79475 C153.426751,64.7562498 153.582499,64.737 153.7575,64.737 C154.044501,64.737 154.315749,64.7789996 154.57125,64.863 C154.826751,64.9470004 155.048999,65.0747491 155.238,65.24625 C155.427001,65.4177509 155.577499,65.6347487 155.6895,65.89725 C155.801501,66.1597513 155.8575,66.4694982 155.8575,66.8265 C155.8575,67.1905018 155.792751,67.5159986 155.66325,67.803 C155.533749,68.0900014 155.360501,68.331499 155.1435,68.5275 C154.926499,68.723501 154.676251,68.8722495 154.39275,68.97375 C154.109249,69.0752505 153.813502,69.126 153.5055,69.126 C152.966497,69.126 152.513252,69.0332509 152.14575,68.84775 C151.778248,68.6622491 151.472001,68.4470012 151.227,68.202 L151.7835,67.425 Z M156.855,70.2495 C157.191002,70.1164993 157.451749,69.9380011 157.63725,69.714 C157.822751,69.4899989 157.9155,69.2450013 157.9155,68.979 L157.821,68.979 C157.617999,68.979 157.437751,68.9142506 157.28025,68.78475 C157.122749,68.6552494 157.044,68.4715012 157.044,68.2335 C157.044,68.0094989 157.122749,67.8292507 157.28025,67.69275 C157.437751,67.5562493 157.628499,67.488 157.8525,67.488 C158.139501,67.488 158.361749,67.5964989 158.51925,67.8135 C158.676751,68.0305011 158.7555,68.334998 158.7555,68.727 C158.7555,69.2450026 158.613751,69.6929981 158.33025,70.071 C158.046749,70.4490019 157.642503,70.7289991 157.1175,70.911 L156.855,70.2495 Z M159.648,69 L159.648,68.2965 L160.1814,67.7756996 C160.4376,67.5237001 160.678049,67.2843011 160.90275,67.0575 C161.277252,66.6794981 161.595749,66.3295016 161.85825,66.0075 C162.120751,65.6854984 162.321999,65.3845014 162.462,65.1045 C162.602001,64.8244986 162.672,64.5585013 162.672,64.3065 C162.672,63.9494982 162.577501,63.667751 162.3885,63.46125 C162.199499,63.254749 161.926502,63.1515 161.5695,63.1515 C161.310499,63.1515 161.074251,63.2249993 160.86075,63.372 C160.647249,63.5190007 160.449501,63.693999 160.2675,63.897 L159.5955,63.225 C159.903502,62.8959984 160.220248,62.6422509 160.54575,62.46375 C160.871252,62.2852491 161.264998,62.196 161.727,62.196 C162.049002,62.196 162.339499,62.2449995 162.5985,62.343 C162.857501,62.4410005 163.077999,62.5792491 163.26,62.75775 C163.442001,62.9362509 163.583749,63.1514987 163.68525,63.4035 C163.78675,63.6555013 163.8375,63.9354985 163.8375,64.2435 C163.8375,64.5375015 163.772751,64.8367485 163.64325,65.14125 C163.513749,65.4457515 163.338751,65.7537484 163.11825,66.06525 C162.897749,66.3767516 162.640501,66.6969984 162.3465,67.026 C162.052499,67.3550016 161.741002,67.6944982 161.412,68.0445 L161.979,67.99725 C162.182001,67.9797499 162.363999,67.971 162.525,67.971 L164.163,67.971 L164.163,69 L159.648,69 Z M165.4125,68.013 L166.9035,68.013 L166.9035,63.624 L165.675,63.624 L165.675,62.868 C166.011002,62.8049997 166.299749,62.7297504 166.54125,62.64225 C166.782751,62.5547496 167.008499,62.4480006 167.2185,62.322 L168.1215,62.322 L168.1215,68.013 L169.434,68.013 L169.434,69 L165.4125,69 L165.4125,68.013 Z M170.8515,67.404 C171.054501,67.607001 171.285499,67.7802493 171.5445,67.92375 C171.803501,68.0672507 172.100998,68.139 172.437,68.139 C172.801002,68.139 173.096749,68.0497509 173.32425,67.87125 C173.551751,67.6927491 173.6655,67.4460016 173.6655,67.131 C173.6655,66.9559991 173.634,66.7985007 173.571,66.6585 C173.508,66.5184993 173.401251,66.3995005 173.25075,66.3015 C173.100249,66.2034995 172.899001,66.1282503 172.647,66.07575 C172.394999,66.0232497 172.080002,65.997 171.702,65.997 L171.702,65.115 C172.031002,65.115 172.305749,65.0887503 172.52625,65.03625 C172.746751,64.9837497 172.925249,64.9102505 173.06175,64.81575 C173.198251,64.7212495 173.29625,64.6075007 173.35575,64.4745 C173.41525,64.3414993 173.445,64.1980008 173.445,64.044 C173.445,63.7639986 173.357501,63.5452508 173.1825,63.38775 C173.007499,63.2302492 172.766002,63.1515 172.458,63.1515 C172.191999,63.1515 171.952251,63.2092494 171.73875,63.32475 C171.525249,63.4402506 171.317001,63.5924991 171.114,63.7815 L170.4945,63.036 C170.781501,62.7839987 171.087748,62.5810008 171.41325,62.427 C171.738752,62.2729992 172.100998,62.196 172.5,62.196 C172.822002,62.196 173.115999,62.2344996 173.382,62.3115 C173.648001,62.3885004 173.875499,62.5022492 174.0645,62.65275 C174.253501,62.8032508 174.400499,62.9887489 174.5055,63.20925 C174.610501,63.4297511 174.663,63.6799986 174.663,63.96 C174.663,64.3380019 174.559751,64.6529987 174.35325,64.905 C174.146749,65.1570013 173.861502,65.3529993 173.4975,65.493 L173.4975,65.535 C173.896502,65.6400005 174.227249,65.8324986 174.48975,66.1125 C174.752251,66.3925014 174.8835,66.7529978 174.8835,67.194 C174.8835,67.5020015 174.822251,67.7749988 174.69975,68.013 C174.577249,68.2510012 174.409251,68.4522492 174.19575,68.61675 C173.982249,68.7812508 173.733751,68.9072496 173.45025,68.99475 C173.166749,69.0822504 172.864002,69.126 172.542,69.126 C171.995997,69.126 171.541002,69.0350009 171.177,68.853 C170.812998,68.6709991 170.512001,68.4470013 170.274,68.181 L170.8515,67.404 Z" id="CLUSTERMEDIAN:$15,213" fill="#380A6D" fill-rule="nonzero"></path>
                    <g id="Group-4" transform="translate(68.000000, 0.000000)" fill="#848484" font-family="SourceSansPro-Semibold, Source Sans Pro" font-size="10.5" font-weight="500">
                        <text id="$10K">
                            <tspan x="0.225975" y="10.8448205">$10K</tspan>
                        </text>
                    </g>
                    <g id="Group-6" transform="translate(103.000000, 0.000000)" fill="#848484" font-family="SourceSansPro-Semibold, Source Sans Pro" font-size="10.5" font-weight="500">
                        <text id="$15K">
                            <tspan x="0.413475" y="10.8448205">$15K</tspan>
                        </text>
                    </g>
                    <g id="Group-8" transform="translate(35.000000, 0.000000)" fill="#848484" font-family="SourceSansPro-Semibold, Source Sans Pro" font-size="10.5" font-weight="500">
                        <text id="$5K">
                            <tspan x="0.187875" y="10.8448205">$5K</tspan>
                        </text>
                    </g>
                    <g id="Group-10" fill="#848484" font-family="SourceSansPro-Semibold, Source Sans Pro" font-size="10.5" font-weight="500">
                        <text id="$0K">
                            <tspan x="0.000375" y="10.8448205">$0K</tspan>
                        </text>
                    </g>
                    <g id="Group-12" transform="translate(210.000000, 0.000000)" fill="#848484" font-family="SourceSansPro-Semibold, Source Sans Pro" font-size="10.5" font-weight="500">
                        <text id="$30K">
                            <tspan x="0.225975" y="10.8448205">$30K</tspan>
                        </text>
                    </g>
                    <g id="Group-14" transform="translate(245.000000, 0.000000)" fill="#848484" font-family="SourceSansPro-Semibold, Source Sans Pro" font-size="10.5" font-weight="500">
                        <text id="$35K">
                            <tspan x="0.413475" y="10.8448205">$35K</tspan>
                        </text>
                    </g>
                    <g id="Group-16" transform="translate(139.000000, 0.000000)" fill="#848484" font-family="SourceSansPro-Semibold, Source Sans Pro" font-size="10.5" font-weight="500">
                        <text id="$20K">
                            <tspan x="0.600975" y="10.8448205">$20K</tspan>
                        </text>
                    </g>
                    <g id="Group-18" transform="translate(175.000000, 0.000000)" fill="#848484" font-family="SourceSansPro-Semibold, Source Sans Pro" font-size="10.5" font-weight="500">
                        <text id="$25K">
                            <tspan x="0.038475" y="10.8448205">$25K</tspan>
                        </text>
                    </g>
                    <g id="Group-20" transform="translate(280.000000, 0.000000)" fill="#848484" font-family="SourceSansPro-Semibold, Source Sans Pro" font-size="10.5" font-weight="500">
                        <text id="$40K">
                            <tspan x="0.600975" y="10.8448205">$40K</tspan>
                        </text>
                    </g>
                    <path d="M115.5,47.8363636 C114.722222,48.5636364 113.088889,48.9272727 112,49 C113.477778,47.9818182 114.800778,46.6 115.5,45 C116.2,46.6727273 117.6,47.9090909 119,49 C117.833333,48.9272727 116.356333,48.6363636 115.5,47.8363636" id="Fill-32" fill="#636363"></path>
                    <path d="M2.875,45 L2.875,19 C2.875,18.7928932 2.70710678,18.625 2.5,18.625 C2.29289322,18.625 2.125,18.7928932 2.125,19 L2.125,45 C2.125,45.2071068 2.29289322,45.375 2.5,45.375 C2.70710678,45.375 2.875,45.2071068 2.875,45 Z" id="Stroke-22" fill="#D1D1D1" fill-rule="nonzero"></path>
                    <path d="M76.875,45 L76.875,19 C76.875,18.7928932 76.7071068,18.625 76.5,18.625 C76.2928932,18.625 76.125,18.7928932 76.125,19 L76.125,45 C76.125,45.2071068 76.2928932,45.375 76.5,45.375 C76.7071068,45.375 76.875,45.2071068 76.875,45 Z" id="Stroke-23" fill="#D1D1D1" fill-rule="nonzero"></path>
                    <path d="M39.875,45 L39.875,19 C39.875,18.7928932 39.7071068,18.625 39.5,18.625 C39.2928932,18.625 39.125,18.7928932 39.125,19 L39.125,45 C39.125,45.2071068 39.2928932,45.375 39.5,45.375 C39.7071068,45.375 39.875,45.2071068 39.875,45 Z" id="Stroke-24" fill="#D1D1D1" fill-rule="nonzero"></path>
                    <path d="M113.875,45 L113.875,19 C113.875,18.7928932 113.707107,18.625 113.5,18.625 C113.292893,18.625 113.125,18.7928932 113.125,19 L113.125,45 C113.125,45.2071068 113.292893,45.375 113.5,45.375 C113.707107,45.375 113.875,45.2071068 113.875,45 Z" id="Stroke-25" fill="#D1D1D1" fill-rule="nonzero"></path>
                    <path d="M188.875,45 L188.875,19 C188.875,18.7928932 188.707107,18.625 188.5,18.625 C188.292893,18.625 188.125,18.7928932 188.125,19 L188.125,45 C188.125,45.2071068 188.292893,45.375 188.5,45.375 C188.707107,45.375 188.875,45.2071068 188.875,45 Z" id="Stroke-26" fill="#D1D1D1" fill-rule="nonzero"></path>
                    <path d="M262.875,45 L262.875,19 C262.875,18.7928932 262.707107,18.625 262.5,18.625 C262.292893,18.625 262.125,18.7928932 262.125,19 L262.125,45 C262.125,45.2071068 262.292893,45.375 262.5,45.375 C262.707107,45.375 262.875,45.2071068 262.875,45 Z" id="Stroke-27" fill="#D1D1D1" fill-rule="nonzero"></path>
                    <path d="M151.875,45 L151.875,19 C151.875,18.7928932 151.707107,18.625 151.5,18.625 C151.292893,18.625 151.125,18.7928932 151.125,19 L151.125,45 C151.125,45.2071068 151.292893,45.375 151.5,45.375 C151.707107,45.375 151.875,45.2071068 151.875,45 Z" id="Stroke-28" fill="#D1D1D1" fill-rule="nonzero"></path>
                    <path d="M225.875,45 L225.875,19 C225.875,18.7928932 225.707107,18.625 225.5,18.625 C225.292893,18.625 225.125,18.7928932 225.125,19 L225.125,45 C225.125,45.2071068 225.292893,45.375 225.5,45.375 C225.707107,45.375 225.875,45.2071068 225.875,45 Z" id="Stroke-29" fill="#D1D1D1" fill-rule="nonzero"></path>
                    <path d="M299.875,45 L299.875,19 C299.875,18.7928932 299.707107,18.625 299.5,18.625 C299.292893,18.625 299.125,18.7928932 299.125,19 L299.125,45 C299.125,45.2071068 299.292893,45.375 299.5,45.375 C299.707107,45.375 299.875,45.2071068 299.875,45 Z" id="Stroke-30" fill="#D1D1D1" fill-rule="nonzero"></path>
                    <path d="M116.25,61 L116.25,48 C116.25,47.5857864 115.914214,47.25 115.5,47.25 C115.085786,47.25 114.75,47.5857864 114.75,48 L114.75,61 C114.75,61.4142136 115.085786,61.75 115.5,61.75 C115.914214,61.75 116.25,61.4142136 116.25,61 Z" id="Stroke-31" fill="#636363" fill-rule="nonzero"></path>
                    <path d="M283.15873,41 L48.8412698,41 C46.6901587,41 45,39.373913 45,37.3043478 L45,27.6956522 C45,25.626087 46.6901587,24 48.8412698,24 L283.15873,24 C285.309841,24 287,25.626087 287,27.6956522 L287,37.3043478 C287,39.373913 285.309841,41 283.15873,41" id="Fill-34" fill="#A7A7D8"></path>
                    <path d="M215.097561,42 L77.902439,42 C70.2158537,42 64,40.7407407 64,39.1851852 L64,24.8148148 C64,23.2592593 70.2158537,22 77.902439,22 L215.097561,22 C222.780488,22 229,23.2592593 229,24.8148148 L229,39.1851852 C229,40.7407407 222.780488,42 215.097561,42" id="Fill-36" fill="#280C60"></path>
                    <path d="M118.184,30.2365 C117.931999,30.0024988 117.689001,29.8247506 117.455,29.70325 C117.220999,29.5817494 116.942002,29.521 116.618,29.521 C116.248998,29.521 115.961001,29.6132491 115.754,29.79775 C115.546999,29.9822509 115.4435,30.2499982 115.4435,30.601 C115.4435,30.8710013 115.533499,31.0937491 115.7135,31.26925 C115.893501,31.4447509 116.120749,31.6067493 116.39525,31.75525 C116.669751,31.9037507 116.964498,32.0522493 117.2795,32.20075 C117.594502,32.3492507 117.889249,32.526999 118.16375,32.734 C118.438251,32.941001 118.665499,33.1952485 118.8455,33.49675 C119.025501,33.7982515 119.1155,34.1739977 119.1155,34.624 C119.1155,35.2720032 118.935502,35.8142478 118.5755,36.25075 C118.215498,36.6872522 117.698003,36.9684994 117.023,37.0945 L117.023,38.485 L115.943,38.485 L115.943,37.135 C115.528998,37.0899998 115.112752,36.9797509 114.69425,36.80425 C114.275748,36.6287491 113.913502,36.3970014 113.6075,36.109 L114.3095,35.056 C114.624502,35.3080013 114.943998,35.5104992 115.268,35.6635 C115.592002,35.8165008 115.938498,35.893 116.3075,35.893 C116.748502,35.893 117.076999,35.791751 117.293,35.58925 C117.509001,35.386749 117.617,35.1010018 117.617,34.732 C117.617,34.4349985 117.527001,34.187501 117.347,33.9895 C117.166999,33.791499 116.939751,33.6115008 116.66525,33.4495 C116.482249,33.3414995 116.29025,33.2365 116.08925,33.1345001 L115.781,32.98375 C115.465998,32.8352493 115.171251,32.659751 114.89675,32.45725 C114.622249,32.254749 114.395001,32.0117514 114.215,31.72825 C114.034999,31.4447486 113.945,31.0915021 113.945,30.6685 C113.945,30.0384968 114.124998,29.5142521 114.485,29.09575 C114.845002,28.6772479 115.330997,28.4140005 115.943,28.306 L115.943,26.929 L117.023,26.929 L117.023,28.279 C117.455002,28.3330003 117.826248,28.456749 118.13675,28.65025 C118.447252,28.843751 118.728499,29.0709987 118.9805,29.332 L118.184,30.2365 Z" id="$" fill="#FFFFFF" fill-rule="nonzero"></path>
                </g>
            </g>
        </g>
    </g>
</svg>