<?xml version="1.0" encoding="UTF-8"?>
<svg width="237px" height="41px" viewBox="0 0 237 41" version="1.1" xmlns="http://www.w3.org/2000/svg" xmlns:xlink="http://www.w3.org/1999/xlink">
    <!-- Generator: Sketch 59.1 (86144) - https://sketch.com -->
    <title>Key</title>
    <desc>Created with Sketch.</desc>
    <defs>
        <polygon id="path-1" points="0.060075 0.192675 0.732 0.192675 0.732 1.017675 0.060075 1.017675"></polygon>
        <polygon id="path-3" points="0.060075 0.417525 0.732 0.417525 0.732 25.992525 0.060075 25.992525"></polygon>
    </defs>
    <g id="Export-Outlined-SVG" stroke="none" stroke-width="1" fill="none" fill-rule="evenodd">
        <g id="2" transform="translate(-842.000000, -40.000000)">
            <g id="Key" transform="translate(842.203000, 40.703000)">
                <path d="M233.725254,21.297 L3.86799683,21.297 C2.14482222,21.297 0.797,19.8354615 0.797,18.1431538 L0.797,12.4508462 C0.797,10.6816154 2.22049206,9.297 3.86799683,9.297 L233.725254,9.297 C235.448429,9.297 236.797,10.7585385 236.797,12.4508462 L236.797,18.1431538 C236.797,19.9123846 235.372759,21.297 233.725254,21.297" id="Fill-1" fill="#A7A7D8"></path>
                <path d="M139.084507,23.297 L46.5094926,23.297 C45.0029707,23.297 43.797,22.1063023 43.797,20.6179302 L43.797,9.97606977 C43.797,8.48769767 45.0029707,7.297 46.5094926,7.297 L139.084507,7.297 C140.591029,7.297 141.797,8.48769767 141.797,9.97606977 L141.797,20.6179302 C141.720921,22.1063023 140.515703,23.297 139.084507,23.297" id="Fill-3" fill="#280C60"></path>
                <path d="M76.1765,15.6405 C76.1765,15.1949978 76.2452493,14.7976267 76.38275,14.448375 C76.5202507,14.0991233 76.7058738,13.8035012 76.939625,13.5615 C77.1733762,13.3194988 77.4456234,13.1352506 77.756375,13.00875 C78.0671266,12.8822494 78.3957483,12.819 78.74225,12.819 C79.0777517,12.819 79.3816236,12.8891243 79.653875,13.029375 C79.9261264,13.1696257 80.1529991,13.3332491 80.3345,13.52025 L79.66625,14.271 C79.5287493,14.1444994 79.3898757,14.0455004 79.249625,13.974 C79.1093743,13.9024996 78.9457509,13.86675 78.75875,13.86675 C78.5717491,13.86675 78.3971258,13.9066246 78.234875,13.986375 C78.0726242,14.0661254 77.9310006,14.1802493 77.81,14.32875 C77.6889994,14.4772507 77.5941253,14.6587489 77.525375,14.87325 C77.4566247,15.0877511 77.42225,15.3297487 77.42225,15.59925 C77.42225,16.1547528 77.5404988,16.5851235 77.777,16.890375 C78.0135012,17.1956265 78.329748,17.34825 78.72575,17.34825 C78.9457511,17.34825 79.1382492,17.3042504 79.30325,17.21625 C79.4682508,17.1282496 79.6167493,17.0127507 79.74875,16.86975 L80.417,17.604 C80.1914989,17.8680013 79.9343764,18.0659993 79.645625,18.198 C79.3568736,18.3300007 79.0447517,18.396 78.70925,18.396 C78.3627483,18.396 78.0355015,18.3368756 77.7275,18.218625 C77.4194985,18.1003744 77.1500012,17.9257512 76.919,17.69475 C76.6879988,17.4637488 76.5065007,17.1763767 76.3745,16.832625 C76.2424993,16.4888733 76.1765,16.0915023 76.1765,15.6405 Z M81.23375,12.918 L82.4465,12.918 L82.4465,17.274 L84.575,17.274 L84.575,18.297 L81.23375,18.297 L81.23375,12.918 Z M84.86375,12.918 L86.08475,12.918 L86.08475,15.92925 C86.08475,16.4572526 86.1644992,16.825749 86.324,17.03475 C86.4835008,17.243751 86.7144985,17.34825 87.017,17.34825 C87.3195015,17.34825 87.5532492,17.243751 87.71825,17.03475 C87.8832508,16.825749 87.96575,16.4572526 87.96575,15.92925 L87.96575,12.918 L89.13725,12.918 L89.13725,15.8055 C89.13725,16.7075045 88.9571268,17.3647479 88.596875,17.77725 C88.2366232,18.1897521 87.7100035,18.396 87.017,18.396 C86.3184965,18.396 85.7850018,18.1897521 85.4165,17.77725 C85.0479982,17.3647479 84.86375,16.7075045 84.86375,15.8055 L84.86375,12.918 Z M90.5645,16.78725 C90.757001,16.9522508 90.9701238,17.0869995 91.203875,17.1915 C91.4376262,17.2960005 91.6672489,17.34825 91.89275,17.34825 C92.1457513,17.34825 92.3341244,17.3015005 92.457875,17.208 C92.5816256,17.1144995 92.6435,16.9880008 92.6435,16.8285 C92.6435,16.7459996 92.6256252,16.6745003 92.589875,16.614 C92.5541248,16.5534997 92.5018753,16.4998752 92.433125,16.453125 C92.3643747,16.4063748 92.2818755,16.3623752 92.185625,16.321125 L91.16675,15.888 C91.0292493,15.8329997 90.8958756,15.7615004 90.766625,15.6735 C90.6373744,15.5854996 90.5218755,15.4823756 90.420125,15.364125 C90.3183745,15.2458744 90.2372503,15.1083758 90.17675,14.951625 C90.1162497,14.7948742 90.086,14.617501 90.086,14.4195 C90.086,14.1994989 90.1327495,13.991876 90.22625,13.796625 C90.3197505,13.601374 90.4517491,13.4308757 90.62225,13.285125 C90.7927508,13.1393743 90.9948738,13.0252504 91.228625,12.94275 C91.4623762,12.8602496 91.7194986,12.819 92,12.819 C92.3135016,12.819 92.6228735,12.8794994 92.928125,13.0005 C93.2333765,13.1215006 93.5014988,13.2974988 93.7325,13.5285 L93.11375,14.29575 C92.9377491,14.1582493 92.7617509,14.0523754 92.58575,13.978125 C92.4097491,13.9038746 92.2145011,13.86675 92,13.86675 C91.790999,13.86675 91.6246256,13.9093746 91.500875,13.994625 C91.3771244,14.0798754 91.31525,14.1994992 91.31525,14.3535 C91.31525,14.4360004 91.3358748,14.5061247 91.377125,14.563875 C91.4183752,14.6216253 91.4761246,14.6738748 91.550375,14.720625 C91.5998752,14.7517918 91.6548749,14.7817361 91.7153749,14.8104583 L92.132,14.98875 L92.132,14.98875 L92.825,15.26925 C93.1550016,15.4012507 93.414874,15.5827488 93.604625,15.81375 C93.7943759,16.0447512 93.88925,16.3499981 93.88925,16.7295 C93.88925,16.9550011 93.8438755,17.168124 93.753125,17.368875 C93.6623745,17.569626 93.5303759,17.7456242 93.357125,17.896875 C93.1838741,18.0481258 92.9707513,18.1691245 92.71775,18.259875 C92.4647487,18.3506255 92.1787516,18.396 91.85975,18.396 C91.5077482,18.396 91.1571267,18.3313756 90.807875,18.202125 C90.4586233,18.0728744 90.1465014,17.8790013 89.8715,17.6205 L90.5645,16.78725 Z M95.52275,13.941 L94.046,13.941 L94.046,12.918 L98.2205,12.918 L98.2205,13.941 L96.74375,13.941 L96.74375,18.297 L95.52275,18.297 L95.52275,13.941 Z M99.062,12.918 L102.428,12.918 L102.428,13.941 L100.27475,13.941 L100.27475,15.02175 L102.10625,15.02175 L102.10625,16.0365 L100.27475,16.0365 L100.27475,17.274 L102.5105,17.274 L102.5105,18.297 L99.062,18.297 L99.062,12.918 Z M104.79575,15.393 L105.42275,15.393 C105.741752,15.393 105.985124,15.3256257 106.152875,15.190875 C106.320626,15.0561243 106.4045,14.8567513 106.4045,14.59275 C106.4045,14.3287487 106.320626,14.1445005 106.152875,14.04 C105.985124,13.9354995 105.741752,13.88325 105.42275,13.88325 L104.79575,13.88325 L104.79575,15.393 Z M106.49525,18.297 L105.464,16.35825 L104.79575,16.35825 L104.79575,18.297 L103.583,18.297 L103.583,12.918 L105.52175,12.918 C105.807751,12.918 106.075874,12.9454997 106.326125,13.0005 C106.576376,13.0555003 106.794999,13.1476244 106.982,13.276875 C107.169001,13.4061256 107.317499,13.5779989 107.4275,13.7925 C107.537501,14.0070011 107.5925,14.2737484 107.5925,14.59275 C107.5925,14.988752 107.505876,15.3146237 107.332625,15.570375 C107.159374,15.8261263 106.927001,16.0172494 106.6355,16.14375 L107.8565,18.297 L106.49525,18.297 Z" id="CLUSTER" fill="#FFFFFF" fill-rule="nonzero"></path>
                <path d="M157.39925,12.918 L158.62025,12.918 L158.62025,15.92925 C158.62025,16.4572526 158.699999,16.825749 158.8595,17.03475 C159.019001,17.243751 159.249998,17.34825 159.5525,17.34825 C159.855002,17.34825 160.088749,17.243751 160.25375,17.03475 C160.418751,16.825749 160.50125,16.4572526 160.50125,15.92925 L160.50125,12.918 L161.67275,12.918 L161.67275,15.8055 C161.67275,16.7075045 161.492627,17.3647479 161.132375,17.77725 C160.772123,18.1897521 160.245503,18.396 159.5525,18.396 C158.853997,18.396 158.320502,18.1897521 157.952,17.77725 C157.583498,17.3647479 157.39925,16.7075045 157.39925,15.8055 L157.39925,12.918 Z M162.9185,12.918 L164.16425,12.918 L165.56675,15.591 L166.09475,16.779 L166.12775,16.779 L166.032875,15.822 L166.032875,15.822 C165.997125,15.4699982 165.97925,15.1345016 165.97925,14.8155 L165.97925,12.918 L167.13425,12.918 L167.13425,18.297 L165.8885,18.297 L164.486,15.61575 L163.958,14.44425 L163.925,14.44425 L164.019875,15.40125 L164.019875,15.40125 C164.055625,15.7422517 164.0735,16.0722484 164.0735,16.39125 L164.0735,18.297 L162.9185,18.297 L162.9185,12.918 Z M168.40475,12.918 L169.6175,12.918 L169.6175,18.297 L168.40475,18.297 L168.40475,12.918 Z M171.93575,13.941 L170.459,13.941 L170.459,12.918 L174.6335,12.918 L174.6335,13.941 L173.15675,13.941 L173.15675,18.297 L171.93575,18.297 L171.93575,13.941 Z M175.475,12.918 L178.841,12.918 L178.841,13.941 L176.68775,13.941 L176.68775,15.02175 L178.51925,15.02175 L178.51925,16.0365 L176.68775,16.0365 L176.68775,17.274 L178.9235,17.274 L178.9235,18.297 L175.475,18.297 L175.475,12.918 Z M179.996,12.918 L181.514,12.918 C181.926502,12.918 182.297748,12.9702495 182.62775,13.07475 C182.957752,13.1792505 183.240999,13.3401239 183.4775,13.557375 C183.714001,13.7746261 183.895499,14.0509983 184.022,14.3865 C184.148501,14.7220017 184.21175,15.1207477 184.21175,15.58275 C184.21175,16.0447523 184.148501,16.4462483 184.022,16.78725 C183.895499,17.1282517 183.716751,17.4101239 183.48575,17.632875 C183.254749,17.8556261 182.978377,18.0219994 182.656625,18.132 C182.334873,18.2420006 181.976002,18.297 181.58,18.297 L179.996,18.297 L179.996,12.918 Z M181.43975,17.31525 C181.670751,17.31525 181.879749,17.2850003 182.06675,17.2245 C182.253751,17.1639997 182.413249,17.0663757 182.54525,16.931625 C182.677251,16.7968743 182.780375,16.6195011 182.854625,16.3995 C182.928875,16.1794989 182.966,15.9072516 182.966,15.58275 C182.966,15.2637484 182.928875,14.9956261 182.854625,14.778375 C182.780375,14.5611239 182.677251,14.3878756 182.54525,14.258625 C182.413249,14.1293744 182.253751,14.0372503 182.06675,13.98225 C181.879749,13.9272497 181.670751,13.89975 181.43975,13.89975 L181.20875,13.89975 L181.20875,17.31525 L181.43975,17.31525 Z M187.29725,16.78725 C187.489751,16.9522508 187.702874,17.0869995 187.936625,17.1915 C188.170376,17.2960005 188.399999,17.34825 188.6255,17.34825 C188.878501,17.34825 189.066874,17.3015005 189.190625,17.208 C189.314376,17.1144995 189.37625,16.9880008 189.37625,16.8285 C189.37625,16.7459996 189.358375,16.6745003 189.322625,16.614 C189.286875,16.5534997 189.234625,16.4998752 189.165875,16.453125 C189.097125,16.4063748 189.014625,16.3623752 188.918375,16.321125 L187.8995,15.888 C187.761999,15.8329997 187.628626,15.7615004 187.499375,15.6735 C187.370124,15.5854996 187.254626,15.4823756 187.152875,15.364125 C187.051124,15.2458744 186.97,15.1083758 186.9095,14.951625 C186.849,14.7948742 186.81875,14.617501 186.81875,14.4195 C186.81875,14.1994989 186.8655,13.991876 186.959,13.796625 C187.0525,13.601374 187.184499,13.4308757 187.355,13.285125 C187.525501,13.1393743 187.727624,13.0252504 187.961375,12.94275 C188.195126,12.8602496 188.452249,12.819 188.73275,12.819 C189.046252,12.819 189.355623,12.8794994 189.660875,13.0005 C189.966127,13.1215006 190.234249,13.2974988 190.46525,13.5285 L189.8465,14.29575 C189.670499,14.1582493 189.494501,14.0523754 189.3185,13.978125 C189.142499,13.9038746 188.947251,13.86675 188.73275,13.86675 C188.523749,13.86675 188.357376,13.9093746 188.233625,13.994625 C188.109874,14.0798754 188.048,14.1994992 188.048,14.3535 C188.048,14.4360004 188.068625,14.5061247 188.109875,14.563875 C188.151125,14.6216253 188.208875,14.6738748 188.283125,14.720625 C188.332625,14.7517918 188.387625,14.7817361 188.448125,14.8104583 L188.86475,14.98875 L188.86475,14.98875 L189.55775,15.26925 C189.887752,15.4012507 190.147624,15.5827488 190.337375,15.81375 C190.527126,16.0447512 190.622,16.3499981 190.622,16.7295 C190.622,16.9550011 190.576625,17.168124 190.485875,17.368875 C190.395125,17.569626 190.263126,17.7456242 190.089875,17.896875 C189.916624,18.0481258 189.703501,18.1691245 189.4505,18.259875 C189.197499,18.3506255 188.911502,18.396 188.5925,18.396 C188.240498,18.396 187.889877,18.3313756 187.540625,18.202125 C187.191373,18.0728744 186.879251,17.8790013 186.60425,17.6205 L187.29725,16.78725 Z M192.254675,13.941 L190.777925,13.941 L190.777925,12.918 L194.952425,12.918 L194.952425,13.941 L193.475675,13.941 L193.475675,18.297 L192.254675,18.297 L192.254675,13.941 Z M197.41175,16.0695 L197.288,15.5745 C197.236666,15.3948324 197.186556,15.2078334 197.137667,15.0135004 L197.06525,14.7165 C196.99375,14.4139985 196.92225,14.1225014 196.85075,13.842 L196.81775,13.842 L196.615625,14.720625 L196.615625,14.720625 C196.569791,14.9204593 196.522125,15.1135695 196.472625,15.2999581 L196.265,16.0695 L197.41175,16.0695 Z M197.65925,17.01825 L196.0175,17.01825 L195.6875,18.297 L194.45,18.297 L196.133,12.918 L197.59325,12.918 L199.27625,18.297 L197.98925,18.297 L197.65925,17.01825 Z M200.24975,13.941 L198.773,13.941 L198.773,12.918 L202.9475,12.918 L202.9475,13.941 L201.47075,13.941 L201.47075,18.297 L200.24975,18.297 L200.24975,13.941 Z M203.789,12.918 L207.155,12.918 L207.155,13.941 L205.00175,13.941 L205.00175,15.02175 L206.83325,15.02175 L206.83325,16.0365 L205.00175,16.0365 L205.00175,17.274 L207.2375,17.274 L207.2375,18.297 L203.789,18.297 L203.789,12.918 Z M208.6565,16.78725 C208.849001,16.9522508 209.062124,17.0869995 209.295875,17.1915 C209.529626,17.2960005 209.759249,17.34825 209.98475,17.34825 C210.237751,17.34825 210.426124,17.3015005 210.549875,17.208 C210.673626,17.1144995 210.7355,16.9880008 210.7355,16.8285 C210.7355,16.7459996 210.717625,16.6745003 210.681875,16.614 C210.646125,16.5534997 210.593875,16.4998752 210.525125,16.453125 C210.456375,16.4063748 210.373875,16.3623752 210.277625,16.321125 L209.25875,15.888 C209.121249,15.8329997 208.987876,15.7615004 208.858625,15.6735 C208.729374,15.5854996 208.613876,15.4823756 208.512125,15.364125 C208.410374,15.2458744 208.32925,15.1083758 208.26875,14.951625 C208.20825,14.7948742 208.178,14.617501 208.178,14.4195 C208.178,14.1994989 208.22475,13.991876 208.31825,13.796625 C208.41175,13.601374 208.543749,13.4308757 208.71425,13.285125 C208.884751,13.1393743 209.086874,13.0252504 209.320625,12.94275 C209.554376,12.8602496 209.811499,12.819 210.092,12.819 C210.405502,12.819 210.714873,12.8794994 211.020125,13.0005 C211.325377,13.1215006 211.593499,13.2974988 211.8245,13.5285 L211.20575,14.29575 C211.029749,14.1582493 210.853751,14.0523754 210.67775,13.978125 C210.501749,13.9038746 210.306501,13.86675 210.092,13.86675 C209.882999,13.86675 209.716626,13.9093746 209.592875,13.994625 C209.469124,14.0798754 209.40725,14.1994992 209.40725,14.3535 C209.40725,14.4360004 209.427875,14.5061247 209.469125,14.563875 C209.510375,14.6216253 209.568125,14.6738748 209.642375,14.720625 C209.691875,14.7517918 209.746875,14.7817361 209.807375,14.8104583 L210.224,14.98875 L210.224,14.98875 L210.917,15.26925 C211.247002,15.4012507 211.506874,15.5827488 211.696625,15.81375 C211.886376,16.0447512 211.98125,16.3499981 211.98125,16.7295 C211.98125,16.9550011 211.935875,17.168124 211.845125,17.368875 C211.754375,17.569626 211.622376,17.7456242 211.449125,17.896875 C211.275874,18.0481258 211.062751,18.1691245 210.80975,18.259875 C210.556749,18.3506255 210.270752,18.396 209.95175,18.396 C209.599748,18.396 209.249127,18.3313756 208.899875,18.202125 C208.550623,18.0728744 208.238501,17.8790013 207.9635,17.6205 L208.6565,16.78725 Z" id="UNITEDSTATES" fill="#380A6D" fill-rule="nonzero"></path>
                <path d="M0.49,33.429 L1.813,33.429 L1.813,38.181 L4.135,38.181 L4.135,39.297 L0.49,39.297 L0.49,33.429 Z M4.549,37.065 C4.549,36.6929981 4.6089994,36.3615015 4.729,36.0705 C4.8490006,35.7794985 5.009499,35.535001 5.2105,35.337 C5.41150101,35.138999 5.64399868,34.9875005 5.908,34.8825 C6.17200132,34.7774995 6.44499859,34.725 6.727,34.725 C7.00900141,34.725 7.2804987,34.7774995 7.5415,34.8825 C7.80250131,34.9875005 8.033499,35.138999 8.2345,35.337 C8.43550101,35.535001 8.5959994,35.7794985 8.716,36.0705 C8.8360006,36.3615015 8.896,36.6929981 8.896,37.065 C8.896,37.4370019 8.8360006,37.7684985 8.716,38.0595 C8.5959994,38.3505015 8.43550101,38.594999 8.2345,38.793 C8.033499,38.991001 7.80250131,39.1424995 7.5415,39.2475 C7.2804987,39.3525005 7.00900141,39.405 6.727,39.405 C6.44499859,39.405 6.17200132,39.3525005 5.908,39.2475 C5.64399868,39.1424995 5.41150101,38.991001 5.2105,38.793 C5.009499,38.594999 4.8490006,38.3505015 4.729,38.0595 C4.6089994,37.7684985 4.549,37.4370019 4.549,37.065 Z M5.908,37.065 C5.908,37.4550019 5.97549933,37.7639989 6.1105,37.992 C6.24550068,38.2200011 6.45099862,38.334 6.727,38.334 C6.99700135,38.334 7.20099931,38.2200011 7.339,37.992 C7.47700069,37.7639989 7.546,37.4550019 7.546,37.065 C7.546,36.674998 7.47700069,36.3660011 7.339,36.138 C7.20099931,35.9099989 6.99700135,35.796 6.727,35.796 C6.45099862,35.796 6.24550068,35.9099989 6.1105,36.138 C5.97549933,36.3660011 5.908,36.674998 5.908,37.065 Z M9.328,34.833 L10.642,34.833 L11.074,36.903 L11.173,37.56 L11.173,37.56 C11.2030002,37.7760011 11.2359998,37.9979989 11.272,38.226 L11.308,38.226 L11.4295,37.551 L11.4295,37.551 L11.493625,37.2225 L11.493625,37.2225 L12.064,34.833 L13.207,34.833 L13.711,36.903 C13.7650003,37.1250011 13.8129998,37.3439989 13.855,37.56 C13.8970002,37.7760011 13.9419998,37.9979989 13.99,38.226 L14.026,38.226 L14.083375,37.8885 L14.083375,37.8885 L14.1295,37.56 C14.1565001,37.3439989 14.1909998,37.1250011 14.233,36.903 L14.656,34.833 L15.88,34.833 L14.809,39.297 L13.261,39.297 L12.856,37.515 L12.7885,37.2 L12.7885,37.2 L12.73,36.885 C12.6939998,36.674999 12.6550002,36.4500012 12.613,36.21 L12.577,36.21 L12.4645,36.885 C12.4314998,37.095001 12.3940002,37.3049989 12.352,37.515 L11.956,39.297 L10.444,39.297 L9.328,34.833 Z M16.312,37.065 C16.312,36.7049982 16.3719994,36.3795015 16.492,36.0885 C16.6120006,35.7974985 16.769499,35.551501 16.9645,35.3505 C17.159501,35.149499 17.3829987,34.9950005 17.635,34.887 C17.8870013,34.7789995 18.1479987,34.725 18.418,34.725 C18.7360016,34.725 19.0134988,34.7789995 19.2505,34.887 C19.4875012,34.9950005 19.6854992,35.144999 19.8445,35.337 C20.0035008,35.529001 20.1219996,35.7554987 20.2,36.0165 C20.2780004,36.2775013 20.317,36.5609985 20.317,36.867 C20.317,36.9870006 20.3110001,37.0964995 20.299,37.1955 L20.275,37.3635 C20.271,37.3864999 20.267,37.4069999 20.263,37.425 L17.59,37.425 C17.6500003,37.7670017 17.783499,38.0144992 17.9905,38.1675 C18.197501,38.3205008 18.4509985,38.397 18.751,38.397 C19.0690016,38.397 19.3899984,38.298001 19.714,38.1 L20.155,38.901 C19.9269989,39.0570008 19.6735014,39.1799995 19.3945,39.27 C19.1154986,39.3600005 18.8410014,39.405 18.571,39.405 C18.2529984,39.405 17.9560014,39.3525005 17.68,39.2475 C17.4039986,39.1424995 17.164001,38.989501 16.96,38.7885 C16.755999,38.587499 16.5970006,38.3430014 16.483,38.055 C16.3689994,37.7669986 16.312,37.4370019 16.312,37.065 Z M19.192,36.606 C19.192,36.3479987 19.1350006,36.1380008 19.021,35.976 C18.9069994,35.8139992 18.7150014,35.733 18.445,35.733 C18.234999,35.733 18.0505008,35.8034993 17.8915,35.9445 C17.7324992,36.0855007 17.6290002,36.3059985 17.581,36.606 L19.192,36.606 Z M21.433,37.956 C21.637001,38.1120008 21.8319991,38.2289996 22.018,38.307 C22.2040009,38.3850004 22.392999,38.424 22.585,38.424 C22.783001,38.424 22.9269996,38.3910003 23.017,38.325 C23.1070005,38.2589997 23.152,38.1660006 23.152,38.046 C23.152,37.9739996 23.1265003,37.9095003 23.0755,37.8525 C23.0244997,37.7954997 22.9555004,37.7430002 22.8685,37.695 C22.8104997,37.6629998 22.7478334,37.633 22.6805001,37.605 L22.576,37.5645 C22.4679995,37.5254998 22.3570006,37.4820002 22.243,37.434 C22.1049993,37.3799997 21.9670007,37.3170004 21.829,37.245 C21.6909993,37.1729996 21.5650006,37.0845005 21.451,36.9795 C21.3369994,36.8744995 21.2440004,36.7515007 21.172,36.6105 C21.0999996,36.4694993 21.064,36.3060009 21.064,36.12 C21.064,35.915999 21.1044996,35.7270009 21.1855,35.553 C21.2665004,35.3789991 21.3819993,35.2320006 21.532,35.112 C21.6820008,34.9919994 21.861999,34.8975003 22.072,34.8285 C22.2820011,34.7594997 22.5159987,34.725 22.774,34.725 C23.1160017,34.725 23.4159987,34.7834994 23.674,34.9005 C23.9320013,35.0175006 24.156999,35.1479993 24.349,35.292 L23.755,36.084 C23.5929992,35.9639994 23.4340008,35.8710003 23.278,35.805 C23.1219992,35.7389997 22.9660008,35.706 22.81,35.706 C22.4739983,35.706 22.306,35.8229988 22.306,36.057 C22.306,36.1290004 22.3299998,36.1904997 22.378,36.2415 C22.4260002,36.2925003 22.4904996,36.3389998 22.5715,36.381 C22.6255003,36.4090001 22.6848333,36.4363333 22.7494999,36.463 L23.179,36.624 L23.179,36.624 C23.3230007,36.6780003 23.4654993,36.7394997 23.6065,36.8085 C23.7475007,36.8775003 23.8764994,36.9629995 23.9935,37.065 C24.1105006,37.1670005 24.2049996,37.2914993 24.277,37.4385 C24.3490004,37.5855007 24.385,37.760999 24.385,37.965 C24.385,38.169001 24.3460004,38.3579991 24.268,38.532 C24.1899996,38.7060009 24.0730008,38.8574994 23.917,38.9865 C23.7609992,39.1155006 23.5690011,39.2174996 23.341,39.2925 C23.1129989,39.3675004 22.8490015,39.405 22.549,39.405 C22.2549985,39.405 21.9535015,39.3480006 21.6445,39.234 C21.3354985,39.1199994 21.0670011,38.9700009 20.839,38.784 L21.433,37.956 Z M25.402,35.868 L24.79,35.868 L24.79,34.887 L25.474,34.833 L25.627,33.645 L26.725,33.645 L26.725,34.833 L27.796,34.833 L27.796,35.868 L26.725,35.868 L26.725,37.659 C26.725,37.9110013 26.7774995,38.0924994 26.8825,38.2035 C26.9875005,38.3145006 27.1269991,38.37 27.301,38.37 C27.3730004,38.37 27.4464996,38.3610001 27.5215,38.343 C27.5965004,38.3249999 27.6639997,38.3040001 27.724,38.28 L27.931,39.243 C27.8109994,39.2790002 27.6700008,39.3149998 27.508,39.351 C27.3459992,39.3870002 27.1570011,39.405 26.941,39.405 C26.6649986,39.405 26.429501,39.3630004 26.2345,39.279 C26.039499,39.1949996 25.8805006,39.0780008 25.7575,38.928 C25.6344994,38.7779992 25.5445003,38.5965011 25.4875,38.3835 C25.4304997,38.1704989 25.402,37.9350013 25.402,37.677 L25.402,35.868 Z M30.064,34.833 L31.396,34.833 L31.972,36.939 L32.1475,37.6185 L32.1475,37.6185 L32.323,38.316 L32.323,38.316 L32.359,38.316 L32.5255,37.6185 L32.5255,37.6185 C32.5825003,37.3874988 32.6409997,37.1610011 32.701,36.939 L33.286,34.833 L34.555,34.833 L33.097,39.297 L31.567,39.297 L30.064,34.833 Z M34.726,38.055 C34.726,37.5869977 34.923998,37.2210013 35.32,36.957 C35.716002,36.6929987 36.3549956,36.5160004 37.237,36.426 C37.2249999,36.227999 37.1650005,36.0705006 37.057,35.9535 C36.9489995,35.8364994 36.7750012,35.778 36.535,35.778 C36.342999,35.778 36.151001,35.8139996 35.959,35.886 C35.766999,35.9580004 35.5630011,36.0569994 35.347,36.183 L34.879,35.31 C35.1670014,35.1359991 35.4684984,34.9950005 35.7835,34.887 C36.0985016,34.7789995 36.4329982,34.725 36.787,34.725 C37.3630029,34.725 37.8024985,34.8884984 38.1055,35.2155 C38.4085015,35.5425016 38.56,36.0509965 38.56,36.741 L38.56,39.297 L37.48,39.297 L37.381,38.838 L37.354,38.838 C37.161999,39.0060008 36.9595011,39.1424995 36.7465,39.2475 C36.5334989,39.3525005 36.3010013,39.405 36.049,39.405 C35.844999,39.405 35.6620008,39.3705003 35.5,39.3015 C35.3379992,39.2324997 35.2000006,39.1365006 35.086,39.0135 C34.9719994,38.8904994 34.8835003,38.7480008 34.8205,38.586 C34.7574997,38.4239992 34.726,38.247001 34.726,38.055 Z M35.986,37.956 C35.986,38.1000007 36.0324995,38.2064997 36.1255,38.2755 C36.2185005,38.3445003 36.3429992,38.379 36.499,38.379 C36.6550008,38.379 36.7869995,38.3460003 36.895,38.28 C37.0030005,38.2139997 37.1169994,38.1210006 37.237,38.001 L37.237,37.218 C36.7629976,37.2840003 36.4360009,37.3799994 36.256,37.506 C36.0759991,37.6320006 35.986,37.7819991 35.986,37.956 Z M39.694,32.988 L41.017,32.988 L41.017,37.965 C41.017,38.1030007 41.0424998,38.1989997 41.0935,38.253 C41.1445003,38.3070003 41.1969997,38.334 41.251,38.334 L41.3275,38.334 C41.3485001,38.334 41.3769998,38.3280001 41.413,38.316 L41.575,39.297 C41.5029996,39.3270002 41.4115006,39.3524999 41.3005,39.3735 C41.1894995,39.3945001 41.0590008,39.405 40.909,39.405 C40.6809989,39.405 40.4890008,39.3690004 40.333,39.297 C40.1769992,39.2249996 40.0525005,39.1245006 39.9595,38.9955 C39.8664995,38.8664994 39.7990002,38.7105009 39.757,38.5275 C39.7149998,38.3444991 39.694,38.1390011 39.694,37.911 L39.694,32.988 Z M42.223,34.833 L43.546,34.833 L43.546,37.434 C43.546,37.7580016 43.5909996,37.9799994 43.681,38.1 C43.7710005,38.2200006 43.911999,38.28 44.104,38.28 C44.2720008,38.28 44.4129994,38.2410004 44.527,38.163 C44.6410006,38.0849996 44.7639993,37.9590009 44.896,37.785 L44.896,34.833 L46.219,34.833 L46.219,39.297 L45.139,39.297 L45.04,38.676 L45.013,38.676 C44.820999,38.9040011 44.6155011,39.0824994 44.3965,39.2115 C44.1774989,39.3405006 43.9150015,39.405 43.609,39.405 C43.1229976,39.405 42.7705011,39.2460016 42.5515,38.928 C42.3324989,38.6099984 42.223,38.1690028 42.223,37.605 L42.223,34.833 Z M47.119,37.065 C47.119,36.7049982 47.1789994,36.3795015 47.299,36.0885 C47.4190006,35.7974985 47.576499,35.551501 47.7715,35.3505 C47.966501,35.149499 48.1899987,34.9950005 48.442,34.887 C48.6940013,34.7789995 48.9549987,34.725 49.225,34.725 C49.5430016,34.725 49.8204988,34.7789995 50.0575,34.887 C50.2945012,34.9950005 50.4924992,35.144999 50.6515,35.337 C50.8105008,35.529001 50.9289996,35.7554987 51.007,36.0165 C51.0850004,36.2775013 51.124,36.5609985 51.124,36.867 C51.124,36.9870006 51.1180001,37.0964995 51.106,37.1955 L51.082,37.3635 C51.078,37.3864999 51.074,37.4069999 51.07,37.425 L48.397,37.425 C48.4570003,37.7670017 48.590499,38.0144992 48.7975,38.1675 C49.004501,38.3205008 49.2579985,38.397 49.558,38.397 C49.8760016,38.397 50.1969984,38.298001 50.521,38.1 L50.962,38.901 C50.7339989,39.0570008 50.4805014,39.1799995 50.2015,39.27 C49.9224986,39.3600005 49.6480014,39.405 49.378,39.405 C49.0599984,39.405 48.7630014,39.3525005 48.487,39.2475 C48.2109986,39.1424995 47.971001,38.989501 47.767,38.7885 C47.562999,38.587499 47.4040006,38.3430014 47.29,38.055 C47.1759994,37.7669986 47.119,37.4370019 47.119,37.065 Z M49.999,36.606 C49.999,36.3479987 49.9420006,36.1380008 49.828,35.976 C49.7139994,35.8139992 49.5220014,35.733 49.252,35.733 C49.041999,35.733 48.8575008,35.8034993 48.6985,35.9445 C48.5394992,36.0855007 48.4360002,36.3059985 48.388,36.606 L49.999,36.606 Z M52.24,37.956 C52.444001,38.1120008 52.6389991,38.2289996 52.825,38.307 C53.0110009,38.3850004 53.199999,38.424 53.392,38.424 C53.590001,38.424 53.7339996,38.3910003 53.824,38.325 C53.9140005,38.2589997 53.959,38.1660006 53.959,38.046 C53.959,37.9739996 53.9335003,37.9095003 53.8825,37.8525 C53.8314998,37.7954997 53.7625004,37.7430002 53.6755,37.695 C53.6174997,37.6629998 53.5548334,37.633 53.4875002,37.605 L53.383,37.5645 C53.2749995,37.5254998 53.1640006,37.4820002 53.05,37.434 C52.9119993,37.3799997 52.7740007,37.3170004 52.636,37.245 C52.4979993,37.1729996 52.3720006,37.0845005 52.258,36.9795 C52.1439994,36.8744995 52.0510004,36.7515007 51.979,36.6105 C51.9069996,36.4694993 51.871,36.3060009 51.871,36.12 C51.871,35.915999 51.9114996,35.7270009 51.9925,35.553 C52.0735004,35.3789991 52.1889993,35.2320006 52.339,35.112 C52.4890008,34.9919994 52.668999,34.8975003 52.879,34.8285 C53.0890011,34.7594997 53.3229987,34.725 53.581,34.725 C53.9230017,34.725 54.2229987,34.7834994 54.481,34.9005 C54.7390013,35.0175006 54.963999,35.1479993 55.156,35.292 L54.562,36.084 C54.3999992,35.9639994 54.2410008,35.8710003 54.085,35.805 C53.9289992,35.7389997 53.7730008,35.706 53.617,35.706 C53.2809983,35.706 53.113,35.8229988 53.113,36.057 C53.113,36.1290004 53.1369998,36.1904997 53.185,36.2415 C53.2330002,36.2925003 53.2974996,36.3389998 53.3785,36.381 C53.4325003,36.4090001 53.4918333,36.4363333 53.5564999,36.463 L53.986,36.624 L53.986,36.624 C54.1300007,36.6780003 54.2724993,36.7394997 54.4135,36.8085 C54.5545007,36.8775003 54.6834994,36.9629995 54.8005,37.065 C54.9175006,37.1670005 55.0119996,37.2914993 55.084,37.4385 C55.1560004,37.5855007 55.192,37.760999 55.192,37.965 C55.192,38.169001 55.1530004,38.3579991 55.075,38.532 C54.9969996,38.7060009 54.8800008,38.8574994 54.724,38.9865 C54.5679992,39.1155006 54.3760011,39.2174996 54.148,39.2925 C53.9199989,39.3675004 53.6560015,39.405 53.356,39.405 C53.0619985,39.405 52.7605016,39.3480006 52.4515,39.234 C52.1424985,39.1199994 51.8740011,38.9700009 51.646,38.784 L52.24,37.956 Z" id="Lowestvalues" fill="#7A7A7A" fill-rule="nonzero"></path>
                <path d="M164.49,32.429 L165.813,32.429 L165.813,34.688 L167.838,34.688 L167.838,32.429 L169.17,32.429 L169.17,38.297 L167.838,38.297 L167.838,35.849 L165.813,35.849 L165.813,38.297 L164.49,38.297 L164.49,32.429 Z M171.105,33.176 C170.882999,33.176 170.700001,33.1115006 170.556,32.9825 C170.411999,32.8534994 170.34,32.687001 170.34,32.483 C170.34,32.278999 170.411999,32.1140006 170.556,31.988 C170.700001,31.8619994 170.882999,31.799 171.105,31.799 C171.333001,31.799 171.517499,31.8619994 171.6585,31.988 C171.799501,32.1140006 171.87,32.278999 171.87,32.483 C171.87,32.687001 171.799501,32.8534994 171.6585,32.9825 C171.517499,33.1115006 171.333001,33.176 171.105,33.176 Z M170.448,33.833 L171.771,33.833 L171.771,38.297 L170.448,38.297 L170.448,33.833 Z M173.742,38.855 C173.742,39.0230008 173.831999,39.1504996 174.012,39.2375 C174.192001,39.3245004 174.431999,39.368 174.732,39.368 C175.032002,39.368 175.277999,39.3155005 175.47,39.2105 C175.662001,39.1054995 175.758,38.9750008 175.758,38.819 C175.758,38.6809993 175.699501,38.5880002 175.5825,38.54 C175.465499,38.4919998 175.296001,38.468 175.074,38.468 L174.615,38.468 C174.458999,38.468 174.333,38.4635 174.237,38.4545 C174.141,38.4455 174.057,38.4320001 173.985,38.414 C173.822999,38.5580007 173.742,38.7049993 173.742,38.855 Z M172.653,39.062 C172.653,38.7019982 172.865998,38.4020012 173.292,38.162 L173.292,38.126 C173.171999,38.0479996 173.073,37.9490006 172.995,37.829 C172.917,37.7089994 172.878,37.5560009 172.878,37.37 C172.878,37.2079992 172.926,37.0535007 173.022,36.9065 C173.118,36.7594993 173.237999,36.6350005 173.382,36.533 L173.382,36.497 C173.225999,36.3889995 173.086501,36.234501 172.9635,36.0335 C172.840499,35.832499 172.779,35.6000013 172.779,35.336 C172.779,35.0659987 172.829999,34.830501 172.932,34.6295 C173.034001,34.428499 173.170499,34.2605007 173.3415,34.1255 C173.512501,33.9904993 173.708999,33.8900003 173.931,33.824 C174.153,33.7579997 174.383999,33.725 174.624,33.725 C174.888001,33.725 175.118999,33.7609996 175.317,33.833 L176.946,33.833 L176.946,34.796 L176.235,34.796 C176.277,34.8620003 176.3115,34.9459995 176.3385,35.048 C176.3655,35.1500005 176.379,35.2609994 176.379,35.381 C176.379,35.6390013 176.334,35.8624991 176.244,36.0515 C176.154,36.2405009 176.029501,36.3964994 175.8705,36.5195 C175.711499,36.6425006 175.525501,36.7339997 175.3125,36.794 C175.099499,36.8540003 174.870001,36.884 174.624,36.884 C174.449999,36.884 174.270001,36.8540003 174.084,36.794 C174.024,36.8420002 173.982,36.8899998 173.958,36.938 C173.934,36.9860002 173.922,37.0489996 173.922,37.127 C173.922,37.2410006 173.9715,37.3249997 174.0705,37.379 C174.1695,37.4330003 174.344999,37.46 174.597,37.46 L175.317,37.46 C175.869003,37.46 176.290499,37.5484991 176.5815,37.7255 C176.872501,37.9025009 177.018,38.191998 177.018,38.594 C177.018,38.8280012 176.959501,39.042499 176.8425,39.2375 C176.725499,39.432501 176.559001,39.6004993 176.343,39.7415 C176.126999,39.8825007 175.866002,39.9934996 175.56,40.0745 C175.253998,40.1555004 174.909002,40.196 174.525,40.196 C174.260999,40.196 174.016501,40.1735002 173.7915,40.1285 C173.566499,40.0834998 173.368501,40.0160004 173.1975,39.926 C173.026499,39.8359996 172.893,39.7190007 172.797,39.575 C172.701,39.4309993 172.653,39.260001 172.653,39.062 Z M174.624,36.083 C174.798001,36.083 174.943499,36.0215006 175.0605,35.8985 C175.177501,35.7754994 175.236,35.5880013 175.236,35.336 C175.236,35.1019988 175.177501,34.9235006 175.0605,34.8005 C174.943499,34.6774994 174.798001,34.616 174.624,34.616 C174.449999,34.616 174.304501,34.6759994 174.1875,34.796 C174.070499,34.9160006 174.012,35.0959988 174.012,35.336 C174.012,35.5880013 174.070499,35.7754994 174.1875,35.8985 C174.304501,36.0215006 174.449999,36.083 174.624,36.083 Z M177.738,31.988 L179.061,31.988 L179.061,33.536 L178.998,34.337 C179.166001,34.1869993 179.360999,34.0475006 179.583,33.9185 C179.805001,33.7894994 180.068998,33.725 180.375,33.725 C180.861002,33.725 181.213499,33.8839984 181.4325,34.202 C181.651501,34.5200016 181.761,34.9609972 181.761,35.525 L181.761,38.297 L180.438,38.297 L180.438,35.696 C180.438,35.3719984 180.3945,35.1500006 180.3075,35.03 C180.2205,34.9099994 180.081001,34.85 179.889,34.85 C179.720999,34.85 179.577001,34.8874996 179.457,34.9625 C179.336999,35.0375004 179.205001,35.1439993 179.061,35.282 L179.061,38.297 L177.738,38.297 L177.738,31.988 Z M182.616,36.065 C182.616,35.7049982 182.675999,35.3795015 182.796,35.0885 C182.916001,34.7974985 183.073499,34.551501 183.2685,34.3505 C183.463501,34.149499 183.686999,33.9950005 183.939,33.887 C184.191001,33.7789995 184.451999,33.725 184.722,33.725 C185.040002,33.725 185.317499,33.7789995 185.5545,33.887 C185.791501,33.9950005 185.989499,34.144999 186.1485,34.337 C186.307501,34.529001 186.426,34.7554987 186.504,35.0165 C186.582,35.2775013 186.621,35.5609985 186.621,35.867 C186.621,35.9870006 186.615,36.0964995 186.603,36.1955 L186.579,36.3635 C186.575,36.3864999 186.571,36.4069999 186.567,36.425 L183.894,36.425 C183.954,36.7670017 184.087499,37.0144992 184.2945,37.1675 C184.501501,37.3205008 184.754999,37.397 185.055,37.397 C185.373002,37.397 185.693998,37.298001 186.018,37.1 L186.459,37.901 C186.230999,38.0570008 185.977501,38.1799995 185.6985,38.27 C185.419499,38.3600005 185.145001,38.405 184.875,38.405 C184.556998,38.405 184.260001,38.3525005 183.984,38.2475 C183.707999,38.1424995 183.468001,37.989501 183.264,37.7885 C183.059999,37.587499 182.901001,37.3430014 182.787,37.055 C182.672999,36.7669986 182.616,36.4370019 182.616,36.065 Z M185.496,35.606 C185.496,35.3479987 185.439001,35.1380008 185.325,34.976 C185.210999,34.8139992 185.019001,34.733 184.749,34.733 C184.538999,34.733 184.354501,34.8034993 184.1955,34.9445 C184.036499,35.0855007 183.933,35.3059985 183.885,35.606 L185.496,35.606 Z M187.737,36.956 C187.941001,37.1120008 188.135999,37.2289996 188.322,37.307 C188.508001,37.3850004 188.696999,37.424 188.889,37.424 C189.087001,37.424 189.231,37.3910003 189.321,37.325 C189.411,37.2589997 189.456,37.1660006 189.456,37.046 C189.456,36.9739996 189.4305,36.9095003 189.3795,36.8525 C189.3285,36.7954997 189.2595,36.7430002 189.1725,36.695 C189.1145,36.6629998 189.051833,36.633 188.9845,36.605 L188.88,36.5645 C188.771999,36.5254998 188.661001,36.4820002 188.547,36.434 C188.408999,36.3799997 188.271001,36.3170004 188.133,36.245 C187.994999,36.1729996 187.869001,36.0845005 187.755,35.9795 C187.640999,35.8744995 187.548,35.7515007 187.476,35.6105 C187.404,35.4694993 187.368,35.3060009 187.368,35.12 C187.368,34.915999 187.4085,34.7270009 187.4895,34.553 C187.5705,34.3789991 187.685999,34.2320006 187.836,34.112 C187.986001,33.9919994 188.165999,33.8975003 188.376,33.8285 C188.586001,33.7594997 188.819999,33.725 189.078,33.725 C189.420002,33.725 189.719999,33.7834994 189.978,33.9005 C190.236001,34.0175006 190.460999,34.1479993 190.653,34.292 L190.059,35.084 C189.896999,34.9639994 189.738001,34.8710003 189.582,34.805 C189.425999,34.7389997 189.270001,34.706 189.114,34.706 C188.777998,34.706 188.61,34.8229988 188.61,35.057 C188.61,35.1290004 188.634,35.1904997 188.682,35.2415 C188.73,35.2925003 188.7945,35.3389998 188.8755,35.381 C188.9295,35.4090001 188.988833,35.4363333 189.0535,35.463 L189.483,35.624 L189.483,35.624 C189.627001,35.6780003 189.769499,35.7394997 189.9105,35.8085 C190.051501,35.8775003 190.180499,35.9629995 190.2975,36.065 C190.414501,36.1670005 190.509,36.2914993 190.581,36.4385 C190.653,36.5855007 190.689,36.760999 190.689,36.965 C190.689,37.169001 190.65,37.3579991 190.572,37.532 C190.494,37.7060009 190.377001,37.8574994 190.221,37.9865 C190.064999,38.1155006 189.873001,38.2174996 189.645,38.2925 C189.416999,38.3675004 189.153002,38.405 188.853,38.405 C188.558999,38.405 188.257502,38.3480006 187.9485,38.234 C187.639498,38.1199994 187.371001,37.9700009 187.143,37.784 L187.737,36.956 Z M191.706,34.868 L191.094,34.868 L191.094,33.887 L191.778,33.833 L191.931,32.645 L193.029,32.645 L193.029,33.833 L194.1,33.833 L194.1,34.868 L193.029,34.868 L193.029,36.659 C193.029,36.9110013 193.081499,37.0924994 193.1865,37.2035 C193.291501,37.3145006 193.430999,37.37 193.605,37.37 C193.677,37.37 193.7505,37.3610001 193.8255,37.343 C193.9005,37.3249999 193.968,37.3040001 194.028,37.28 L194.235,38.243 C194.114999,38.2790002 193.974001,38.3149998 193.812,38.351 C193.649999,38.3870002 193.461001,38.405 193.245,38.405 C192.968999,38.405 192.733501,38.3630004 192.5385,38.279 C192.343499,38.1949996 192.184501,38.0780008 192.0615,37.928 C191.938499,37.7779993 191.8485,37.5965011 191.7915,37.3835 C191.7345,37.1704989 191.706,36.9350013 191.706,36.677 L191.706,34.868 Z M196.368,33.833 L197.7,33.833 L198.276,35.939 L198.4515,36.6185 L198.4515,36.6185 L198.627,37.316 L198.627,37.316 L198.663,37.316 L198.8295,36.6185 L198.8295,36.6185 C198.8865,36.3874988 198.945,36.1610011 199.005,35.939 L199.59,33.833 L200.859,33.833 L199.401,38.297 L197.871,38.297 L196.368,33.833 Z M201.0291,37.055 C201.0291,36.5869977 201.227098,36.2210013 201.6231,35.957 C202.019102,35.6929987 202.658096,35.5160004 203.5401,35.426 C203.5281,35.227999 203.468101,35.0705006 203.3601,34.9535 C203.252099,34.8364994 203.078101,34.778 202.8381,34.778 C202.646099,34.778 202.454101,34.8139996 202.2621,34.886 C202.070099,34.9580004 201.866101,35.0569994 201.6501,35.183 L201.1821,34.31 C201.470101,34.1359991 201.771598,33.9950005 202.0866,33.887 C202.401602,33.7789995 202.736098,33.725 203.0901,33.725 C203.666103,33.725 204.105598,33.8884984 204.4086,34.2155 C204.711602,34.5425016 204.8631,35.0509966 204.8631,35.741 L204.8631,38.297 L203.7831,38.297 L203.6841,37.838 L203.6571,37.838 C203.465099,38.0060008 203.262601,38.1424995 203.0496,38.2475 C202.836599,38.3525005 202.604101,38.405 202.3521,38.405 C202.148099,38.405 201.965101,38.3705003 201.8031,38.3015 C201.641099,38.2324997 201.503101,38.1365006 201.3891,38.0135 C201.275099,37.8904994 201.1866,37.7480008 201.1236,37.586 C201.0606,37.4239992 201.0291,37.247001 201.0291,37.055 Z M202.2891,36.956 C202.2891,37.1000007 202.3356,37.2064997 202.4286,37.2755 C202.5216,37.3445003 202.646099,37.379 202.8021,37.379 C202.958101,37.379 203.090099,37.3460003 203.1981,37.28 C203.306101,37.2139997 203.420099,37.1210006 203.5401,37.001 L203.5401,36.218 C203.066098,36.2840003 202.739101,36.3799994 202.5591,36.506 C202.379099,36.6320006 202.2891,36.7819991 202.2891,36.956 Z M205.9971,31.988 L207.3201,31.988 L207.3201,36.965 C207.3201,37.1030007 207.3456,37.1989997 207.3966,37.253 C207.4476,37.3070003 207.5001,37.334 207.5541,37.334 L207.6306,37.334 C207.6516,37.334 207.6801,37.3280001 207.7161,37.316 L207.8781,38.297 C207.8061,38.3270002 207.714601,38.3524999 207.6036,38.3735 C207.492599,38.3945001 207.362101,38.405 207.2121,38.405 C206.984099,38.405 206.792101,38.3690004 206.6361,38.297 C206.480099,38.2249996 206.3556,38.1245006 206.2626,37.9955 C206.1696,37.8664994 206.1021,37.7105009 206.0601,37.5275 C206.0181,37.3444991 205.9971,37.1390011 205.9971,36.911 L205.9971,31.988 Z M208.5261,33.833 L209.8491,33.833 L209.8491,36.434 C209.8491,36.7580016 209.8941,36.9799994 209.9841,37.1 C210.0741,37.2200006 210.215099,37.28 210.4071,37.28 C210.575101,37.28 210.716099,37.2410004 210.8301,37.163 C210.944101,37.0849996 211.067099,36.9590009 211.1991,36.785 L211.1991,33.833 L212.5221,33.833 L212.5221,38.297 L211.4421,38.297 L211.3431,37.676 L211.3161,37.676 C211.124099,37.9040011 210.918601,38.0824994 210.6996,38.2115 C210.480599,38.3405006 210.218102,38.405 209.9121,38.405 C209.426098,38.405 209.073601,38.2460016 208.8546,37.928 C208.635599,37.6099984 208.5261,37.1690028 208.5261,36.605 L208.5261,33.833 Z M213.4221,36.065 C213.4221,35.7049982 213.482099,35.3795015 213.6021,35.0885 C213.722101,34.7974985 213.879599,34.551501 214.0746,34.3505 C214.269601,34.149499 214.493099,33.9950005 214.7451,33.887 C214.997101,33.7789995 215.258099,33.725 215.5281,33.725 C215.846102,33.725 216.123599,33.7789995 216.3606,33.887 C216.597601,33.9950005 216.795599,34.144999 216.9546,34.337 C217.113601,34.529001 217.2321,34.7554987 217.3101,35.0165 C217.3881,35.2775013 217.4271,35.5609985 217.4271,35.867 C217.4271,35.9870006 217.4211,36.0964995 217.4091,36.1955 L217.3851,36.3635 C217.3811,36.3864999 217.3771,36.4069999 217.3731,36.425 L214.7001,36.425 C214.7601,36.7670017 214.893599,37.0144992 215.1006,37.1675 C215.307601,37.3205008 215.561098,37.397 215.8611,37.397 C216.179102,37.397 216.500098,37.298001 216.8241,37.1 L217.2651,37.901 C217.037099,38.0570008 216.783601,38.1799995 216.5046,38.27 C216.225599,38.3600005 215.951101,38.405 215.6811,38.405 C215.363098,38.405 215.066101,38.3525005 214.7901,38.2475 C214.514099,38.1424995 214.274101,37.989501 214.0701,37.7885 C213.866099,37.587499 213.707101,37.3430014 213.5931,37.055 C213.479099,36.7669986 213.4221,36.4370019 213.4221,36.065 Z M216.3021,35.606 C216.3021,35.3479987 216.245101,35.1380008 216.1311,34.976 C216.017099,34.8139992 215.825101,34.733 215.5551,34.733 C215.345099,34.733 215.160601,34.8034993 215.0016,34.9445 C214.842599,35.0855007 214.7391,35.3059985 214.6911,35.606 L216.3021,35.606 Z M218.5431,36.956 C218.747101,37.1120008 218.942099,37.2289996 219.1281,37.307 C219.314101,37.3850004 219.503099,37.424 219.6951,37.424 C219.893101,37.424 220.0371,37.3910003 220.1271,37.325 C220.2171,37.2589997 220.2621,37.1660006 220.2621,37.046 C220.2621,36.9739996 220.2366,36.9095003 220.1856,36.8525 C220.1346,36.7954997 220.0656,36.7430002 219.9786,36.695 C219.9206,36.6629998 219.857933,36.633 219.7906,36.605 L219.6861,36.5645 C219.578099,36.5254998 219.467101,36.4820002 219.3531,36.434 C219.215099,36.3799997 219.077101,36.3170004 218.9391,36.245 C218.801099,36.1729996 218.675101,36.0845005 218.5611,35.9795 C218.447099,35.8744995 218.3541,35.7515007 218.2821,35.6105 C218.2101,35.4694993 218.1741,35.3060009 218.1741,35.12 C218.1741,34.915999 218.2146,34.7270009 218.2956,34.553 C218.3766,34.3789991 218.492099,34.2320006 218.6421,34.112 C218.792101,33.9919994 218.972099,33.8975003 219.1821,33.8285 C219.392101,33.7594997 219.626099,33.725 219.8841,33.725 C220.226102,33.725 220.526099,33.7834994 220.7841,33.9005 C221.042101,34.0175006 221.267099,34.1479993 221.4591,34.292 L220.8651,35.084 C220.703099,34.9639994 220.544101,34.8710003 220.3881,34.805 C220.232099,34.7389997 220.076101,34.706 219.9201,34.706 C219.584098,34.706 219.4161,34.8229988 219.4161,35.057 C219.4161,35.1290004 219.4401,35.1904997 219.4881,35.2415 C219.5361,35.2925003 219.6006,35.3389998 219.6816,35.381 C219.7356,35.4090001 219.794933,35.4363333 219.8596,35.463 L220.2891,35.624 L220.2891,35.624 C220.433101,35.6780003 220.575599,35.7394997 220.7166,35.8085 C220.857601,35.8775003 220.986599,35.9629995 221.1036,36.065 C221.220601,36.1670005 221.3151,36.2914993 221.3871,36.4385 C221.4591,36.5855007 221.4951,36.760999 221.4951,36.965 C221.4951,37.169001 221.4561,37.3579991 221.3781,37.532 C221.3001,37.7060009 221.183101,37.8574994 221.0271,37.9865 C220.871099,38.1155006 220.679101,38.2174996 220.4511,38.2925 C220.223099,38.3675004 219.959101,38.405 219.6591,38.405 C219.365099,38.405 219.063602,38.3480006 218.7546,38.234 C218.445598,38.1199994 218.177101,37.9700009 217.9491,37.784 L218.5431,36.956 Z" id="Highestvalues" fill="#7A7A7A" fill-rule="nonzero"></path>
                <path d="M0.594,31.297 L0.594,30.297 C0.594,30.1329714 0.461028571,30 0.297,30 C0.132971429,30 0,30.1329714 0,30.297 L0,31.297 C0,31.4610286 0.132971429,31.594 0.297,31.594 C0.461028571,31.594 0.594,31.4610286 0.594,31.297 Z" id="Stroke-10" fill="#AAAAAA" fill-rule="nonzero"></path>
                <path d="M0.594,28.297 L0.594,26.4009999 C0.594,26.2369713 0.461028571,26.1039999 0.297,26.1039999 C0.132971429,26.1039999 0,26.2369713 0,26.4009999 L0,28.297 C0,28.4610286 0.132971429,28.594 0.297,28.594 C0.461028571,28.594 0.594,28.4610286 0.594,28.297 Z M0.594,24.5049997 L0.594,22.6089996 C0.594,22.444971 0.461028571,22.3119996 0.297,22.3119996 C0.132971429,22.3119996 0,22.444971 0,22.6089996 L0,24.5049997 C0,24.6690283 0.132971429,24.8019997 0.297,24.8019997 C0.461028571,24.8019997 0.594,24.6690283 0.594,24.5049997 Z M0.594,20.7129994 L0.594,18.8169993 C0.594,18.6529707 0.461028571,18.5199993 0.297,18.5199993 C0.132971429,18.5199993 0,18.6529707 0,18.8169993 L0,20.7129994 C0,20.877028 0.132971429,21.0099994 0.297,21.0099994 C0.461028571,21.0099994 0.594,20.877028 0.594,20.7129994 Z M0.594,16.9209991 L0.594,15.024999 C0.594,14.8609704 0.461028571,14.727999 0.297,14.727999 C0.132971429,14.727999 0,14.8609704 0,15.024999 L0,16.9209991 C0,17.0850277 0.132971429,17.2179991 0.297,17.2179991 C0.461028571,17.2179991 0.594,17.0850277 0.594,16.9209991 Z M0.594,13.1289988 L0.594,11.2329987 C0.594,11.0689701 0.461028571,10.9359987 0.297,10.9359987 C0.132971429,10.9359987 0,11.0689701 0,11.2329987 L0,13.1289988 C0,13.2930274 0.132971429,13.4259988 0.297,13.4259988 C0.461028571,13.4259988 0.594,13.2930274 0.594,13.1289988 Z M0.594,9.33699853 L0.594,7.44099838 C0.594,7.27696981 0.461028571,7.14399838 0.297,7.14399838 C0.132971429,7.14399838 0,7.27696981 0,7.44099838 L0,9.33699853 C0,9.5010271 0.132971429,9.63399853 0.297,9.63399853 C0.461028571,9.63399853 0.594,9.5010271 0.594,9.33699853 Z M0.594,5.54499824 L0.594,3.64899809 C0.594,3.48496952 0.461028571,3.35199809 0.297,3.35199809 C0.132971429,3.35199809 0,3.48496952 0,3.64899809 L0,5.54499824 C0,5.70902681 0.132971429,5.84199824 0.297,5.84199824 C0.461028571,5.84199824 0.594,5.70902681 0.594,5.54499824 Z" id="Stroke-12" fill="#AAAAAA" fill-rule="nonzero"></path>
                <path d="M44.594,30.297 L44.594,28.5150001 C44.594,28.3509715 44.4610286,28.2180001 44.297,28.2180001 C44.1329714,28.2180001 44,28.3509715 44,28.5150001 L44,30.297 C44,30.4610286 44.1329714,30.594 44.297,30.594 C44.4610286,30.594 44.594,30.4610286 44.594,30.297 Z M44.594,26.7330001 L44.594,24.9510002 C44.594,24.7869716 44.4610286,24.6540002 44.297,24.6540002 C44.1329714,24.6540002 44,24.7869716 44,24.9510002 L44,26.7330001 C44,26.8970287 44.1329714,27.0300001 44.297,27.0300001 C44.4610286,27.0300001 44.594,26.8970287 44.594,26.7330001 Z M44.594,23.1690002 L44.594,21.3870003 C44.594,21.2229717 44.4610286,21.0900003 44.297,21.0900003 C44.1329714,21.0900003 44,21.2229717 44,21.3870003 L44,23.1690002 C44,23.3330288 44.1329714,23.4660002 44.297,23.4660002 C44.4610286,23.4660002 44.594,23.3330288 44.594,23.1690002 Z M44.594,19.6050003 L44.594,17.8230004 C44.594,17.6589718 44.4610286,17.5260004 44.297,17.5260004 C44.1329714,17.5260004 44,17.6589718 44,17.8230004 L44,19.6050003 C44,19.7690289 44.1329714,19.9020003 44.297,19.9020003 C44.4610286,19.9020003 44.594,19.7690289 44.594,19.6050003 Z M44.594,16.0410004 L44.594,14.2590005 C44.594,14.0949719 44.4610286,13.9620005 44.297,13.9620005 C44.1329714,13.9620005 44,14.0949719 44,14.2590005 L44,16.0410004 C44,16.205029 44.1329714,16.3380004 44.297,16.3380004 C44.4610286,16.3380004 44.594,16.205029 44.594,16.0410004 Z M44.594,12.4770005 L44.594,10.6950006 C44.594,10.530972 44.4610286,10.3980006 44.297,10.3980006 C44.1329714,10.3980006 44,10.530972 44,10.6950006 L44,12.4770005 C44,12.6410291 44.1329714,12.7740005 44.297,12.7740005 C44.4610286,12.7740005 44.594,12.6410291 44.594,12.4770005 Z M44.594,8.91300065 L44.594,7.13100071 C44.594,6.96697214 44.4610286,6.83400071 44.297,6.83400071 C44.1329714,6.83400071 44,6.96697214 44,7.13100071 L44,8.91300065 C44,9.07702922 44.1329714,9.21000065 44.297,9.21000065 C44.4610286,9.21000065 44.594,9.07702922 44.594,8.91300065 Z M44.594,5.34900076 L44.594,3.56700082 C44.594,3.40297224 44.4610286,3.27000082 44.297,3.27000082 C44.1329714,3.27000082 44,3.40297224 44,3.56700082 L44,5.34900076 C44,5.51302933 44.1329714,5.64600076 44.297,5.64600076 C44.4610286,5.64600076 44.594,5.51302933 44.594,5.34900076 Z M44.594,1.78500087 L44.594,0.297 C44.594,0.132971429 44.4610286,0 44.297,0 C44.1329714,0 44,0.132971429 44,0.297 L44,1.78500087 C44,1.94902944 44.1329714,2.08200087 44.297,2.08200087 C44.4610286,2.08200087 44.594,1.94902944 44.594,1.78500087 Z" id="Stroke-16" fill="#AAAAAA" fill-rule="nonzero"></path>
                <g id="Group-20" transform="translate(235.797000, 29.297000)">
                    <mask id="mask-2" fill="white">
                        <use xlink:href="#path-1"></use>
                    </mask>
                    <g id="Clip-19"></g>
                    <line x1="0.435075" y1="1.017675" x2="0.435075" y2="0.192675" id="Stroke-18" stroke="#AAAAAA" stroke-width="0.594" stroke-linecap="round" mask="url(#mask-2)"></line>
                </g>
                <g id="Group-23" transform="translate(235.797000, 2.297000)">
                    <mask id="mask-4" fill="white">
                        <use xlink:href="#path-3"></use>
                    </mask>
                    <g id="Clip-22"></g>
                    <line x1="0.435075" y1="25.992525" x2="0.435075" y2="0.417525" id="Stroke-21" stroke="#AAAAAA" stroke-width="0.594" stroke-linecap="round" stroke-dasharray="1.8960000872612,1.8960000872612" mask="url(#mask-4)"></line>
                </g>
                <path d="M142.594,31.297 L142.594,30.297 C142.594,30.1329714 142.461029,30 142.297,30 C142.132971,30 142,30.1329714 142,30.297 L142,31.297 C142,31.4610286 142.132971,31.594 142.297,31.594 C142.461029,31.594 142.594,31.4610286 142.594,31.297 Z" id="Stroke-27" fill="#AAAAAA" fill-rule="nonzero"></path>
                <path d="M142.594,28.297 L142.594,26.4009999 C142.594,26.2369713 142.461029,26.1039999 142.297,26.1039999 C142.132971,26.1039999 142,26.2369713 142,26.4009999 L142,28.297 C142,28.4610286 142.132971,28.594 142.297,28.594 C142.461029,28.594 142.594,28.4610286 142.594,28.297 Z M142.594,24.5049997 L142.594,22.6089996 C142.594,22.444971 142.461029,22.3119996 142.297,22.3119996 C142.132971,22.3119996 142,22.444971 142,22.6089996 L142,24.5049997 C142,24.6690283 142.132971,24.8019997 142.297,24.8019997 C142.461029,24.8019997 142.594,24.6690283 142.594,24.5049997 Z M142.594,20.7129994 L142.594,18.8169993 C142.594,18.6529707 142.461029,18.5199993 142.297,18.5199993 C142.132971,18.5199993 142,18.6529707 142,18.8169993 L142,20.7129994 C142,20.877028 142.132971,21.0099994 142.297,21.0099994 C142.461029,21.0099994 142.594,20.877028 142.594,20.7129994 Z M142.594,16.9209991 L142.594,15.024999 C142.594,14.8609704 142.461029,14.727999 142.297,14.727999 C142.132971,14.727999 142,14.8609704 142,15.024999 L142,16.9209991 C142,17.0850277 142.132971,17.2179991 142.297,17.2179991 C142.461029,17.2179991 142.594,17.0850277 142.594,16.9209991 Z M142.594,13.1289988 L142.594,11.2329987 C142.594,11.0689701 142.461029,10.9359987 142.297,10.9359987 C142.132971,10.9359987 142,11.0689701 142,11.2329987 L142,13.1289988 C142,13.2930274 142.132971,13.4259988 142.297,13.4259988 C142.461029,13.4259988 142.594,13.2930274 142.594,13.1289988 Z M142.594,9.33699853 L142.594,7.44099838 C142.594,7.27696981 142.461029,7.14399838 142.297,7.14399838 C142.132971,7.14399838 142,7.27696981 142,7.44099838 L142,9.33699853 C142,9.5010271 142.132971,9.63399853 142.297,9.63399853 C142.461029,9.63399853 142.594,9.5010271 142.594,9.33699853 Z M142.594,5.54499824 L142.594,3.64899809 C142.594,3.48496952 142.461029,3.35199809 142.297,3.35199809 C142.132971,3.35199809 142,3.48496952 142,3.64899809 L142,5.54499824 C142,5.70902681 142.132971,5.84199824 142.297,5.84199824 C142.461029,5.84199824 142.594,5.70902681 142.594,5.54499824 Z" id="Stroke-29" fill="#AAAAAA" fill-rule="nonzero"></path>
            </g>
        </g>
    </g>
</svg>