<?xml version="1.0" encoding="UTF-8"?>
<svg width="301px" height="71px" viewBox="0 0 301 71" version="1.1" xmlns="http://www.w3.org/2000/svg" xmlns:xlink="http://www.w3.org/1999/xlink">
    <!-- Generator: Sketch 59.1 (86144) - https://sketch.com -->
    <title>Land Area</title>
    <desc>Created with Sketch.</desc>
    <g id="Export-Outlined-SVG" stroke="none" stroke-width="1" fill="none" fill-rule="evenodd">
        <g id="2" transform="translate(-839.000000, -852.000000)">
            <g id="Land-Area" transform="translate(839.125000, 852.112000)">
                <polygon id="Fill-1" fill="#E0E0E0" points="0.875 34.888 297.875 34.888 297.875 24.888 0.875 24.888"></polygon>
                <path d="M4.3895,65.4755 C4.3895,64.9154972 4.47174918,64.4132522 4.63625,63.96875 C4.80075082,63.5242478 5.02649857,63.1480015 5.3135,62.84 C5.60050144,62.5319985 5.93649808,62.2975008 6.3215,62.1365 C6.70650193,61.9754992 7.1194978,61.895 7.5605,61.895 C7.9805021,61.895 8.35674834,61.9824991 8.68925,62.1575 C9.02175166,62.3325009 9.29649892,62.5354988 9.5135,62.7665 L8.831,63.5225 C8.65599913,63.3474991 8.468751,63.2092505 8.26925,63.10775 C8.069749,63.0062495 7.83700133,62.9555 7.571,62.9555 C7.28399857,62.9555 7.02325117,63.0132494 6.78875,63.12875 C6.55424883,63.2442506 6.35125086,63.4087489 6.17975,63.62225 C6.00824914,63.8357511 5.87525047,64.0964985 5.78075,64.4045 C5.68624953,64.7125015 5.639,65.0589981 5.639,65.444 C5.639,66.2280039 5.8087483,66.8422478 6.14825,67.28675 C6.4877517,67.7312522 6.9479971,67.9535 7.529,67.9535 C7.83700154,67.9535 8.10474886,67.8940006 8.33225,67.775 C8.55975114,67.6559994 8.77149902,67.4880011 8.9675,67.271 L9.65,68.0165 C9.3699986,68.3385016 9.05150179,68.5852491 8.6945,68.75675 C8.33749822,68.9282509 7.94200217,69.014 7.508,69.014 C7.0669978,69.014 6.65750189,68.9370008 6.2795,68.783 C5.90149811,68.6289992 5.5725014,68.4015015 5.2925,68.1005 C5.0124986,67.7994985 4.79200081,67.4285022 4.631,66.9875 C4.4699992,66.5464978 4.3895,66.0425028 4.3895,65.4755 Z M10.7795,62.021 L11.9975,62.021 L11.9975,67.859 L14.8535,67.859 L14.8535,68.888 L10.7795,68.888 L10.7795,62.021 Z M15.311,62.021 L16.529,62.021 L16.529,65.969 C16.529,66.3400019 16.5622497,66.6532487 16.62875,66.90875 C16.6952503,67.1642513 16.7897494,67.3689992 16.91225,67.523 C17.0347506,67.6770008 17.1799992,67.7872497 17.348,67.85375 C17.5160008,67.9202503 17.704999,67.9535 17.915,67.9535 C18.1250011,67.9535 18.3174991,67.9202503 18.4925,67.85375 C18.6675009,67.7872497 18.8179994,67.6770008 18.944,67.523 C19.0700006,67.3689992 19.1679997,67.1642513 19.238,66.90875 C19.3080004,66.6532487 19.343,66.3400019 19.343,65.969 L19.343,62.021 L20.5085,62.021 L20.5085,65.8745 C20.5085,66.4415028 20.4490006,66.922748 20.33,67.31825 C20.2109994,67.713752 20.0377511,68.0374987 19.81025,68.2895 C19.5827489,68.5415013 19.3097516,68.7252494 18.99125,68.84075 C18.6727484,68.9562506 18.314002,69.014 17.915,69.014 C17.515998,69.014 17.1572516,68.9562506 16.83875,68.84075 C16.5202484,68.7252494 16.2472511,68.5415013 16.01975,68.2895 C15.7922489,68.0374987 15.6172506,67.713752 15.49475,67.31825 C15.3722494,66.922748 15.311,66.4415028 15.311,65.8745 L15.311,62.021 Z M22.2365,67.1765 C22.4815012,67.4075012 22.7614984,67.5947493 23.0765,67.73825 C23.3915016,67.8817507 23.7064984,67.9535 24.0215,67.9535 C24.413502,67.9535 24.710999,67.8730008 24.914,67.712 C25.117001,67.5509992 25.2185,67.3375013 25.2185,67.0715 C25.2185,66.9314993 25.1922503,66.8125005 25.13975,66.7145 C25.0872497,66.6164995 25.0137505,66.5307504 24.91925,66.45725 C24.8247495,66.3837496 24.7127507,66.3155003 24.58325,66.2525 L24.4496666,66.1894999 L24.4496666,66.1894999 L23.213,65.654 C23.0449992,65.5839997 22.8787508,65.4965005 22.71425,65.3915 C22.5497492,65.2864995 22.4010007,65.1605007 22.268,65.0135 C22.1349993,64.8664993 22.0282504,64.695001 21.94775,64.499 C21.8672496,64.302999 21.827,64.0790013 21.827,63.827 C21.827,63.5539986 21.8847494,63.3002512 22.00025,63.06575 C22.1157506,62.8312488 22.274999,62.6265009 22.478,62.4515 C22.681001,62.2764991 22.9242486,62.1400005 23.20775,62.042 C23.4912514,61.9439995 23.8009983,61.895 24.137,61.895 C24.536002,61.895 24.9209982,61.9737492 25.292,62.13125 C25.6630019,62.2887508 25.9814987,62.5004987 26.2475,62.7665 L25.628,63.5435 C25.4039989,63.3614991 25.1730012,63.2180005 24.935,63.113 C24.6969988,63.0079995 24.4310015,62.9555 24.137,62.9555 C23.8079984,62.9555 23.545501,63.0272493 23.3495,63.17075 C23.153499,63.3142507 23.0555,63.5119987 23.0555,63.764 C23.0555,63.8970007 23.0852497,64.0107495 23.14475,64.10525 C23.2042503,64.1997505 23.2847495,64.2837496 23.38625,64.35725 C23.4877505,64.4307504 23.6049993,64.4972497 23.738,64.55675 L23.940125,64.6446875 L23.940125,64.6446875 L25.082,65.1185 C25.285001,65.2025004 25.4704992,65.3004994 25.6385,65.4125 C25.8065008,65.5245006 25.9517494,65.6539993 26.07425,65.801 C26.1967506,65.9480007 26.2929997,66.117749 26.363,66.31025 C26.4330004,66.502751 26.468,66.7249987 26.468,66.977 C26.468,67.2570014 26.4120006,67.5194988 26.3,67.7645 C26.1879994,68.0095012 26.0252511,68.2247491 25.81175,68.41025 C25.5982489,68.5957509 25.3392515,68.7427495 25.03475,68.85125 C24.7302485,68.9597505 24.3855019,69.014 24.0005,69.014 C23.5384977,69.014 23.0922522,68.9265009 22.66175,68.7515 C22.2312479,68.5764991 21.8515017,68.3280016 21.5225,68.006 L22.2365,67.1765 Z M28.6685,63.05 L26.684,63.05 L26.684,62.021 L31.871,62.021 L31.871,63.05 L29.8865,63.05 L29.8865,68.888 L28.6685,68.888 L28.6685,63.05 Z M33.0005,62.021 L37.1375,62.021 L37.1375,63.05 L34.2185,63.05 L34.2185,64.8035 L36.686,64.8035 L36.686,65.8325 L34.2185,65.8325 L34.2185,67.859 L37.2425,67.859 L37.2425,68.888 L33.0005,68.888 L33.0005,62.021 Z M39.8525,65.234 L40.829,65.234 C41.2980023,65.234 41.6567488,65.136001 41.90525,64.94 C42.1537512,64.743999 42.278,64.450002 42.278,64.058 C42.278,63.658998 42.1537512,63.3825008 41.90525,63.2285 C41.6567488,63.0744992 41.2980023,62.9975 40.829,62.9975 L39.8525,62.9975 L39.8525,65.234 Z M42.383,68.888 L40.9025,66.2 L39.8525,66.2 L39.8525,68.888 L38.6345,68.888 L38.6345,62.021 L40.955,62.021 C41.3120018,62.021 41.6444985,62.0559996 41.9525,62.126 C42.2605015,62.1960004 42.5264989,62.3097492 42.7505,62.46725 C42.9745011,62.6247508 43.1512494,62.8329987 43.28075,63.092 C43.4102506,63.3510013 43.475,63.6729981 43.475,64.058 C43.475,64.5830026 43.3507512,65.0064984 43.10225,65.3285 C42.8537488,65.6505016 42.5230021,65.8814993 42.11,66.0215 L43.748,68.888 L42.383,68.888 Z M47.0465,62.021 L48.3905,62.021 L49.6295,65.402 L50.081,66.704 L50.123,66.704 L50.564,65.402 L51.782,62.021 L53.126,62.021 L53.126,68.888 L51.9815,68.888 L51.9815,65.7485 L51.9885,65.4078336 L51.9885,65.4078336 L51.99725,65.2235 C52.0077501,65.0344991 52.0199999,64.843751 52.034,64.65125 L52.057625,64.365125 L52.057625,64.365125 L52.139,63.5645 L52.139,63.5645 L52.097,63.5645 L51.5405,65.129 L50.354,68.2475 L49.787,68.2475 L48.6005,65.129 L48.0545,63.5645 L48.0125,63.5645 L48.11225,64.65125 L48.11225,64.65125 C48.1297501,64.843751 48.1437499,65.0344991 48.15425,65.2235 C48.1647501,65.4125009 48.17,65.5874992 48.17,65.7485 L48.17,68.888 L47.0465,68.888 L47.0465,62.021 Z M54.854,62.021 L58.991,62.021 L58.991,63.05 L56.072,63.05 L56.072,64.8035 L58.5395,64.8035 L58.5395,65.8325 L56.072,65.8325 L56.072,67.859 L59.096,67.859 L59.096,68.888 L54.854,68.888 L54.854,62.021 Z M60.488,62.021 L62.3255,62.021 C63.3755053,62.021 64.1944971,62.3044972 64.7825,62.8715 C65.3705029,63.4385028 65.6645,64.2889943 65.6645,65.423 C65.6645,65.9900028 65.5892508,66.4904978 65.43875,66.9245 C65.2882492,67.3585022 65.0712514,67.7207485 64.78775,68.01125 C64.5042486,68.3017515 64.161252,68.5204993 63.75875,68.6675 C63.356248,68.8145007 62.8995026,68.888 62.3885,68.888 L60.488,68.888 L60.488,62.021 Z M62.2415,67.901 C62.9415035,67.901 63.4787481,67.699752 63.85325,67.29725 C64.2277519,66.894748 64.415,66.2700042 64.415,65.423 C64.415,64.5829958 64.2260019,63.9705019 63.848,63.5855 C63.4699981,63.2004981 62.9345035,63.008 62.2415,63.008 L61.706,63.008 L61.706,67.901 L62.2415,67.901 Z M67.0355,62.021 L68.2535,62.021 L68.2535,68.888 L67.0355,68.888 L67.0355,62.021 Z M72.9005,66.074 L72.659,65.234 C72.5469994,64.8699982 72.4402505,64.4955019 72.33875,64.1105 L72.0395,62.966 L72.0395,62.966 L71.9975,62.966 L71.7035,64.11575 L71.7035,64.11575 C71.6054995,64.4972519 71.5005006,64.8699982 71.3885,65.234 L71.147,66.074 L72.9005,66.074 Z M73.1735,67.0295 L70.8635,67.0295 L70.328,68.888 L69.089,68.888 L71.3255,62.021 L72.7535,62.021 L74.99,68.888 L73.709,68.888 L73.1735,67.0295 Z M75.8255,62.021 L77.075,62.021 L79.217,65.885 L79.9205,67.3445 L79.9625,67.3445 L79.8995001,66.5955005 C79.8878334,66.464834 79.8755834,66.3312507 79.86275,66.19475 C79.8242498,65.785248 79.805,65.3880019 79.805,65.003 L79.805,62.021 L80.9705,62.021 L80.9705,68.888 L79.721,68.888 L77.579,65.024 L76.8755,63.5645 L76.8335,63.5645 L76.8964999,64.3158329 C76.9081666,64.4449438 76.9204166,64.5759993 76.93325,64.709 C76.9717502,65.108002 76.991,65.4999981 76.991,65.885 L76.991,68.888 L75.8255,68.888 L75.8255,62.021 Z M82.4885,64.604 C82.4885,64.3659988 82.5637492,64.1700008 82.71425,64.016 C82.8647508,63.8619992 83.0519989,63.785 83.276,63.785 C83.5000011,63.785 83.6854993,63.8619992 83.8325,64.016 C83.9795007,64.1700008 84.053,64.3659988 84.053,64.604 C84.053,64.8420012 83.9795007,65.0379992 83.8325,65.192 C83.6854993,65.3460008 83.5000011,65.423 83.276,65.423 C83.0519989,65.423 82.8647508,65.3460008 82.71425,65.192 C82.5637492,65.0379992 82.4885,64.8420012 82.4885,64.604 Z M82.4885,68.195 C82.4885,67.9569988 82.5637492,67.7610008 82.71425,67.607 C82.8647508,67.4529992 83.0519989,67.376 83.276,67.376 C83.5000011,67.376 83.6854993,67.4529992 83.8325,67.607 C83.9795007,67.7610008 84.053,67.9569988 84.053,68.195 C84.053,68.4330012 83.9795007,68.6289992 83.8325,68.783 C83.6854993,68.9370008 83.5000011,69.014 83.276,69.014 C83.0519989,69.014 82.8647508,68.9370008 82.71425,68.783 C82.5637492,68.6289992 82.4885,68.4330012 82.4885,68.195 Z M87.614,67.901 L89.105,67.901 L89.105,63.512 L87.8765,63.512 L87.8765,62.756 C88.2125017,62.6929997 88.5012488,62.6177504 88.74275,62.53025 C88.9842512,62.4427496 89.209999,62.3360006 89.42,62.21 L90.323,62.21 L90.323,67.901 L91.6355,67.901 L91.6355,68.888 L87.614,68.888 L87.614,67.901 Z M92.702,70.1375 C93.0380017,70.0044993 93.2987491,69.8260011 93.48425,69.602 C93.6697509,69.3779989 93.7625,69.1330013 93.7625,68.867 L93.668,68.867 C93.464999,68.867 93.2847508,68.8022506 93.12725,68.67275 C92.9697492,68.5432494 92.891,68.3595012 92.891,68.1215 C92.891,67.8974989 92.9697492,67.7172507 93.12725,67.58075 C93.2847508,67.4442493 93.4754989,67.376 93.6995,67.376 C93.9865014,67.376 94.2087492,67.4844989 94.36625,67.7015 C94.5237508,67.9185011 94.6025,68.222998 94.6025,68.615 C94.6025,69.1330026 94.4607514,69.5809981 94.17725,69.959 C93.8937486,70.3370019 93.4895026,70.6169991 92.9645,70.799 L92.702,70.1375 Z M95.48,68.888 L95.48,68.1845 L96.2643499,67.4159002 C96.4281495,67.2535005 96.5849493,67.0967008 96.73475,66.9455 C97.1092519,66.5674981 97.4277487,66.2175016 97.69025,65.8955 C97.9527513,65.5734984 98.1539993,65.2725014 98.294,64.9925 C98.4340007,64.7124986 98.504,64.4465013 98.504,64.1945 C98.504,63.8374982 98.4095009,63.555751 98.2205,63.34925 C98.0314991,63.142749 97.7585018,63.0395 97.4015,63.0395 C97.1424987,63.0395 96.9062511,63.1129993 96.69275,63.26 C96.4792489,63.4070007 96.2815009,63.581999 96.0995,63.785 L95.4275,63.113 C95.7355015,62.7839984 96.0522484,62.5302509 96.37775,62.35175 C96.7032516,62.1732491 97.0969977,62.084 97.559,62.084 C97.8810016,62.084 98.1714987,62.1329995 98.4305,62.231 C98.6895013,62.3290005 98.9099991,62.4672491 99.092,62.64575 C99.2740009,62.8242509 99.4157495,63.0394987 99.51725,63.2915 C99.6187505,63.5435013 99.6695,63.8234985 99.6695,64.1315 C99.6695,64.4255015 99.6047507,64.7247485 99.47525,65.02925 C99.3457494,65.3337515 99.1707511,65.6417484 98.95025,65.95325 C98.7297489,66.2647516 98.4725015,66.5849984 98.1785,66.914 C97.8844985,67.2430016 97.5730016,67.5824983 97.244,67.9325 L97.811,67.88525 C98.014001,67.8677499 98.1959992,67.859 98.357,67.859 L99.995,67.859 L99.995,68.888 L95.48,68.888 Z M103.0145,65.465 C103.203501,65.465 103.404749,65.4055006 103.61825,65.2865 C103.831751,65.1674994 104.029499,64.9680014 104.2115,64.688 C104.1485,64.0999971 104.003251,63.6730013 103.77575,63.407 C103.548249,63.1409987 103.273502,63.008 102.9515,63.008 C102.678499,63.008 102.444001,63.1164989 102.248,63.3335 C102.051999,63.5505011 101.954,63.861998 101.954,64.268 C101.954,64.667002 102.046749,64.966249 102.23225,65.16575 C102.417751,65.365251 102.678498,65.465 103.0145,65.465 Z M101.597,67.523 C101.723001,67.6700007 101.882249,67.7907495 102.07475,67.88525 C102.267251,67.9797505 102.464999,68.027 102.668,68.027 C102.878001,68.027 103.075749,67.9850004 103.26125,67.901 C103.446751,67.8169996 103.609499,67.678751 103.7495,67.48625 C103.889501,67.293749 104.00325,67.0400016 104.09075,66.725 C104.17825,66.4099984 104.229,66.0215023 104.243,65.5595 C104.046999,65.8045012 103.816001,65.9952493 103.55,66.13175 C103.283999,66.2682507 103.028501,66.3365 102.7835,66.3365 C102.496499,66.3365 102.234001,66.2945004 101.996,66.2105 C101.757999,66.1264996 101.553251,65.9987509 101.38175,65.82725 C101.210249,65.6557491 101.07725,65.4405013 100.98275,65.1815 C100.88825,64.9224987 100.841,64.6180018 100.841,64.268 C100.841,63.9319983 100.896999,63.6292513 101.009,63.35975 C101.121001,63.0902487 101.271499,62.8610009 101.4605,62.672 C101.649501,62.4829991 101.871749,62.3377505 102.12725,62.23625 C102.382751,62.1347495 102.653999,62.084 102.941,62.084 C103.263002,62.084 103.570999,62.1487494 103.865,62.27825 C104.159001,62.4077506 104.416249,62.6054987 104.63675,62.8715 C104.857251,63.1375013 105.032249,63.475248 105.16175,63.88475 C105.291251,64.294252 105.356,64.7789972 105.356,65.339 C105.356,65.9900033 105.284251,66.5464977 105.14075,67.0085 C104.997249,67.4705023 104.804751,67.8502485 104.56325,68.14775 C104.321749,68.4452515 104.041752,68.6639993 103.72325,68.804 C103.404748,68.9440007 103.074002,69.014 102.731,69.014 C102.331998,69.014 101.985501,68.9405007 101.6915,68.7935 C101.397499,68.6464993 101.149001,68.468001 100.946,68.258 L101.597,67.523 Z M108.386,65.465 C108.575001,65.465 108.776249,65.4055006 108.98975,65.2865 C109.203251,65.1674994 109.400999,64.9680014 109.583,64.688 C109.52,64.0999971 109.374751,63.6730013 109.14725,63.407 C108.919749,63.1409987 108.645002,63.008 108.323,63.008 C108.049999,63.008 107.815501,63.1164989 107.6195,63.3335 C107.423499,63.5505011 107.3255,63.861998 107.3255,64.268 C107.3255,64.667002 107.418249,64.966249 107.60375,65.16575 C107.789251,65.365251 108.049998,65.465 108.386,65.465 Z M106.9685,67.523 C107.094501,67.6700007 107.253749,67.7907495 107.44625,67.88525 C107.638751,67.9797505 107.836499,68.027 108.0395,68.027 C108.249501,68.027 108.447249,67.9850004 108.63275,67.901 C108.818251,67.8169996 108.980999,67.678751 109.121,67.48625 C109.261001,67.293749 109.37475,67.0400016 109.46225,66.725 C109.54975,66.4099984 109.6005,66.0215023 109.6145,65.5595 C109.418499,65.8045012 109.187501,65.9952493 108.9215,66.13175 C108.655499,66.2682507 108.400001,66.3365 108.155,66.3365 C107.867999,66.3365 107.605501,66.2945004 107.3675,66.2105 C107.129499,66.1264996 106.924751,65.9987509 106.75325,65.82725 C106.581749,65.6557491 106.44875,65.4405013 106.35425,65.1815 C106.25975,64.9224987 106.2125,64.6180018 106.2125,64.268 C106.2125,63.9319983 106.268499,63.6292513 106.3805,63.35975 C106.492501,63.0902487 106.642999,62.8610009 106.832,62.672 C107.021001,62.4829991 107.243249,62.3377505 107.49875,62.23625 C107.754251,62.1347495 108.025499,62.084 108.3125,62.084 C108.634502,62.084 108.942499,62.1487494 109.2365,62.27825 C109.530501,62.4077506 109.787749,62.6054987 110.00825,62.8715 C110.228751,63.1375013 110.403749,63.475248 110.53325,63.88475 C110.662751,64.294252 110.7275,64.7789972 110.7275,65.339 C110.7275,65.9900033 110.655751,66.5464977 110.51225,67.0085 C110.368749,67.4705023 110.176251,67.8502485 109.93475,68.14775 C109.693249,68.4452515 109.413252,68.6639993 109.09475,68.804 C108.776248,68.9440007 108.445502,69.014 108.1025,69.014 C107.703498,69.014 107.357001,68.9405007 107.063,68.7935 C106.768999,68.6464993 106.520501,68.468001 106.3175,68.258 L106.9685,67.523 Z" id="CLUSTERMEDIAN:1,299" fill="#380A6D" fill-rule="nonzero"></path>
                <path d="M2.4895,2.063 C3.16150336,2.063 3.68649811,2.35699706 4.0645,2.945 C4.44250189,3.53300294 4.6315,4.39049436 4.6315,5.5175 C4.6315,6.64450564 4.44250189,7.50899699 4.0645,8.111 C3.68649811,8.71300301 3.16150336,9.014 2.4895,9.014 C1.8104966,9.014 1.28200189,8.71300301 0.904,8.111 C0.52599811,7.50899699 0.337,6.64450564 0.337,5.5175 C0.337,4.39049436 0.52599811,3.53300294 0.904,2.945 C1.28200189,2.35699706 1.8104966,2.063 2.4895,2.063 Z M2.4895,2.756 C2.29349902,2.756 2.1150008,2.80849948 1.954,2.9135 C1.79299919,3.01850052 1.65475058,3.1812489 1.53925,3.40175 C1.42374942,3.6222511 1.33450031,3.90749825 1.2715,4.2575 C1.20849968,4.60750175 1.177,5.02749755 1.177,5.5175 C1.177,6.4975049 1.29774879,7.20974778 1.53925,7.65425 C1.78075121,8.09875222 2.09749804,8.321 2.4895,8.321 C2.68550098,8.321 2.86224921,8.26675054 3.01975,8.15825 C3.17725079,8.04974946 3.31374942,7.88175114 3.42925,7.65425 C3.54475058,7.42674886 3.63399968,7.13625177 3.697,6.78275 C3.76000031,6.42924823 3.7915,6.00750245 3.7915,5.5175 C3.7915,5.02749755 3.76000031,4.60750175 3.697,4.2575 C3.63399968,3.90749825 3.54475058,3.6222511 3.42925,3.40175 C3.31374942,3.1812489 3.17725079,3.01850052 3.01975,2.9135 C2.86224921,2.80849948 2.68550098,2.756 2.4895,2.756 Z" id="Combined-Shape" fill="#848484" fill-rule="nonzero"></path>
                <path d="M281.689,6.3315 C281.857001,6.3315 282.010999,6.29650035 282.151,6.2265 C282.291001,6.15649965 282.413499,6.05675065 282.5185,5.92725 C282.623501,5.79774935 282.70575,5.64375089 282.76525,5.46525 C282.82475,5.28674911 282.8545,5.08550112 282.8545,4.8615 C282.8545,4.42049779 282.753001,4.07400126 282.55,3.822 C282.346999,3.56999874 282.035502,3.444 281.6155,3.444 C281.405499,3.444 281.176251,3.51224932 280.92775,3.64875 C280.679249,3.78525068 280.443001,4.01099842 280.219,4.326 C280.275,4.98400329 280.427249,5.4827483 280.67575,5.82225 C280.924251,6.1617517 281.261998,6.3315 281.689,6.3315 Z M283.0645,1.3125 C282.924499,1.15149919 282.758251,1.02375047 282.56575,0.92925 C282.373249,0.834749527 282.172001,0.7875 281.962,0.7875 C281.730999,0.7875 281.510501,0.83649951 281.3005,0.9345 C281.090499,1.03250049 280.905001,1.19349888 280.744,1.4175 C280.582999,1.64150112 280.4535,1.9337482 280.3555,2.29425 C280.2575,2.6547518 280.205,3.10099734 280.198,3.633 C280.408001,3.3739987 280.652999,3.16925075 280.933,3.01875 C281.213001,2.86824925 281.489499,2.793 281.7625,2.793 C282.343503,2.793 282.807248,2.96449828 283.15375,3.3075 C283.500252,3.65050171 283.6735,4.16849653 283.6735,4.8615 C283.6735,5.18350161 283.621001,5.47574869 283.516,5.73825 C283.410999,6.00075131 283.267501,6.22649905 283.0855,6.4155 C282.903499,6.60450094 282.693501,6.75149947 282.4555,6.8565 C282.217499,6.96150052 281.962001,7.014 281.689,7.014 C281.359998,7.014 281.055501,6.94750066 280.7755,6.8145 C280.495499,6.68149933 280.252251,6.48025135 280.04575,6.21075 C279.839249,5.94124865 279.676501,5.60525201 279.5575,5.20275 C279.438499,4.80024799 279.379,4.32950269 279.379,3.7905 C279.379,3.11849664 279.448999,2.54625236 279.589,2.07375 C279.729001,1.60124764 279.917999,1.21625149 280.156,0.91875 C280.394001,0.621248512 280.665248,0.404250682 280.96975,0.26775 C281.274252,0.131249317 281.594498,0.063 281.9305,0.063 C282.294502,0.063 282.607749,0.131249317 282.87025,0.26775 C283.132751,0.404250682 283.358499,0.573998985 283.5475,0.777 L283.0645,1.3125 Z M286.678,7.014 C285.998997,7.014 285.470502,6.71300301 285.0925,6.111 C284.714498,5.50899699 284.5255,4.64450563 284.5255,3.5175 C284.5255,2.39049436 284.714498,1.53300294 285.0925,0.945 C285.470502,0.35699706 285.998997,0.063 286.678,0.063 C287.350003,0.063 287.874998,0.35699706 288.253,0.945 C288.631002,1.53300294 288.82,2.39049436 288.82,3.5175 C288.82,4.64450563 288.631002,5.50899699 288.253,6.111 C287.874998,6.71300301 287.350003,7.014 286.678,7.014 Z M286.678,6.321 C286.874001,6.321 287.050749,6.26675054 287.20825,6.15825 C287.365751,6.04974946 287.502249,5.88175114 287.61775,5.65425 C287.733251,5.42674886 287.8225,5.13625177 287.8855,4.78275 C287.9485,4.42924823 287.98,4.00750245 287.98,3.5175 C287.98,3.02749755 287.9485,2.60750175 287.8855,2.2575 C287.8225,1.90749825 287.733251,1.6222511 287.61775,1.40175 C287.502249,1.1812489 287.365751,1.01850052 287.20825,0.9135 C287.050749,0.808499475 286.874001,0.756 286.678,0.756 C286.481999,0.756 286.303501,0.808499475 286.1425,0.9135 C285.981499,1.01850052 285.843251,1.1812489 285.72775,1.40175 C285.612249,1.6222511 285.523,1.90749825 285.46,2.2575 C285.397,2.60750175 285.3655,3.02749755 285.3655,3.5175 C285.3655,4.4975049 285.486249,5.20974778 285.72775,5.65425 C285.969251,6.09875222 286.285998,6.321 286.678,6.321 Z M291.8665,7.014 C291.187497,7.014 290.659002,6.71300301 290.281,6.111 C289.902998,5.50899699 289.714,4.64450563 289.714,3.5175 C289.714,2.39049436 289.902998,1.53300294 290.281,0.945 C290.659002,0.35699706 291.187497,0.063 291.8665,0.063 C292.538503,0.063 293.063498,0.35699706 293.4415,0.945 C293.819502,1.53300294 294.0085,2.39049436 294.0085,3.5175 C294.0085,4.64450563 293.819502,5.50899699 293.4415,6.111 C293.063498,6.71300301 292.538503,7.014 291.8665,7.014 Z M291.8665,6.321 C292.062501,6.321 292.239249,6.26675054 292.39675,6.15825 C292.554251,6.04974946 292.690749,5.88175114 292.80625,5.65425 C292.921751,5.42674886 293.011,5.13625177 293.074,4.78275 C293.137,4.42924823 293.1685,4.00750245 293.1685,3.5175 C293.1685,3.02749755 293.137,2.60750175 293.074,2.2575 C293.011,1.90749825 292.921751,1.6222511 292.80625,1.40175 C292.690749,1.1812489 292.554251,1.01850052 292.39675,0.9135 C292.239249,0.808499475 292.062501,0.756 291.8665,0.756 C291.670499,0.756 291.492001,0.808499475 291.331,0.9135 C291.169999,1.01850052 291.031751,1.1812489 290.91625,1.40175 C290.800749,1.6222511 290.7115,1.90749825 290.6485,2.2575 C290.5855,2.60750175 290.554,3.02749755 290.554,3.5175 C290.554,4.4975049 290.674749,5.20974778 290.91625,5.65425 C291.157751,6.09875222 291.474498,6.321 291.8665,6.321 Z M295.3855,-1.13686838e-13 L296.257,-1.13686838e-13 L296.257,3.4545 L296.2885,3.4545 L299.155,-1.13686838e-13 L300.142,-1.13686838e-13 L297.9895,2.625 L300.478,6.888 L299.5015,6.888 L297.4435,3.3075 L296.257,4.704 L296.257,6.888 L295.3855,6.888 L295.3855,-1.13686838e-13 Z" id="600K" fill="#848484" fill-rule="nonzero"></path>
                <path d="M143.589,5.502 C143.792001,5.71200105 144.028249,5.89749919 144.29775,6.0585 C144.567251,6.2195008 144.901498,6.3 145.3005,6.3 C145.706502,6.3 146.038999,6.1897511 146.298,5.96925 C146.557001,5.7487489 146.6865,5.44950189 146.6865,5.0715 C146.6865,4.87549902 146.64975,4.69525082 146.57625,4.53075 C146.50275,4.36624918 146.382001,4.22450059 146.214,4.1055 C146.045999,3.9864994 145.825501,3.89550031 145.5525,3.8325 C145.279499,3.76949968 144.943502,3.738 144.5445,3.738 L144.5445,3.0765 C144.901502,3.0765 145.200749,3.04500031 145.44225,2.982 C145.683751,2.91899968 145.879749,2.83150056 146.03025,2.7195 C146.180751,2.60749944 146.2875,2.47450077 146.3505,2.3205 C146.4135,2.16649923 146.445,2.00200087 146.445,1.827 C146.445,1.49799835 146.341751,1.23900094 146.13525,1.05 C145.928749,0.860999055 145.647002,0.7665 145.29,0.7665 C145.009999,0.7665 144.752751,0.82949937 144.51825,0.9555 C144.283749,1.08150063 144.065001,1.24599898 143.862,1.449 L143.4,0.903 C143.659001,0.657998775 143.944248,0.456750787 144.25575,0.29925 C144.567252,0.141749212 144.922498,0.063 145.3215,0.063 C145.615501,0.063 145.884999,0.101499615 146.13,0.1785 C146.375001,0.255500385 146.586749,0.365749282 146.76525,0.50925 C146.943751,0.652750717 147.082,0.82949895 147.18,1.0395 C147.278,1.24950105 147.327,1.49099863 147.327,1.764 C147.327,2.17000203 147.215001,2.5024987 146.991,2.7615 C146.766999,3.02050129 146.473002,3.2199993 146.109,3.36 L146.109,3.402 C146.312001,3.45100024 146.500999,3.52274953 146.676,3.61725 C146.851001,3.71175047 147.004999,3.83074928 147.138,3.97425 C147.271001,4.11775072 147.37425,4.28399905 147.44775,4.473 C147.52125,4.66200094 147.558,4.87199884 147.558,5.103 C147.558,5.39700147 147.500251,5.66299881 147.38475,5.901 C147.269249,6.13900119 147.111751,6.34024918 146.91225,6.50475 C146.712749,6.66925082 146.480001,6.79524956 146.214,6.88275 C145.947999,6.97025044 145.661002,7.014 145.353,7.014 C145.086999,7.014 144.843751,6.98775026 144.62325,6.93525 C144.402749,6.88274974 144.201501,6.81275044 144.0195,6.72525 C143.837499,6.63774956 143.674751,6.53800056 143.53125,6.426 C143.387749,6.31399944 143.260001,6.19500063 143.148,6.069 L143.589,5.502 Z M150.678,7.014 C149.998997,7.014 149.470502,6.71300301 149.0925,6.111 C148.714498,5.50899699 148.5255,4.64450563 148.5255,3.5175 C148.5255,2.39049436 148.714498,1.53300294 149.0925,0.945 C149.470502,0.35699706 149.998997,0.063 150.678,0.063 C151.350003,0.063 151.874998,0.35699706 152.253,0.945 C152.631002,1.53300294 152.82,2.39049436 152.82,3.5175 C152.82,4.64450563 152.631002,5.50899699 152.253,6.111 C151.874998,6.71300301 151.350003,7.014 150.678,7.014 Z M150.678,6.321 C150.874001,6.321 151.050749,6.26675054 151.20825,6.15825 C151.365751,6.04974946 151.502249,5.88175114 151.61775,5.65425 C151.733251,5.42674886 151.8225,5.13625177 151.8855,4.78275 C151.9485,4.42924823 151.98,4.00750245 151.98,3.5175 C151.98,3.02749755 151.9485,2.60750175 151.8855,2.2575 C151.8225,1.90749825 151.733251,1.6222511 151.61775,1.40175 C151.502249,1.1812489 151.365751,1.01850052 151.20825,0.9135 C151.050749,0.808499475 150.874001,0.756 150.678,0.756 C150.481999,0.756 150.303501,0.808499475 150.1425,0.9135 C149.981499,1.01850052 149.843251,1.1812489 149.72775,1.40175 C149.612249,1.6222511 149.523,1.90749825 149.46,2.2575 C149.397,2.60750175 149.3655,3.02749755 149.3655,3.5175 C149.3655,4.4975049 149.486249,5.20974778 149.72775,5.65425 C149.969251,6.09875222 150.285998,6.321 150.678,6.321 Z M155.8665,7.014 C155.187497,7.014 154.659002,6.71300301 154.281,6.111 C153.902998,5.50899699 153.714,4.64450563 153.714,3.5175 C153.714,2.39049436 153.902998,1.53300294 154.281,0.945 C154.659002,0.35699706 155.187497,0.063 155.8665,0.063 C156.538503,0.063 157.063498,0.35699706 157.4415,0.945 C157.819502,1.53300294 158.0085,2.39049436 158.0085,3.5175 C158.0085,4.64450563 157.819502,5.50899699 157.4415,6.111 C157.063498,6.71300301 156.538503,7.014 155.8665,7.014 Z M155.8665,6.321 C156.062501,6.321 156.239249,6.26675054 156.39675,6.15825 C156.554251,6.04974946 156.690749,5.88175114 156.80625,5.65425 C156.921751,5.42674886 157.011,5.13625177 157.074,4.78275 C157.137,4.42924823 157.1685,4.00750245 157.1685,3.5175 C157.1685,3.02749755 157.137,2.60750175 157.074,2.2575 C157.011,1.90749825 156.921751,1.6222511 156.80625,1.40175 C156.690749,1.1812489 156.554251,1.01850052 156.39675,0.9135 C156.239249,0.808499475 156.062501,0.756 155.8665,0.756 C155.670499,0.756 155.492001,0.808499475 155.331,0.9135 C155.169999,1.01850052 155.031751,1.1812489 154.91625,1.40175 C154.800749,1.6222511 154.7115,1.90749825 154.6485,2.2575 C154.5855,2.60750175 154.554,3.02749755 154.554,3.5175 C154.554,4.4975049 154.674749,5.20974778 154.91625,5.65425 C155.157751,6.09875222 155.474498,6.321 155.8665,6.321 Z M159.3855,-1.13686838e-13 L160.257,-1.13686838e-13 L160.257,3.4545 L160.2885,3.4545 L163.155,-1.13686838e-13 L164.142,-1.13686838e-13 L161.9895,2.625 L164.478,6.888 L163.5015,6.888 L161.4435,3.3075 L160.257,4.704 L160.257,6.888 L159.3855,6.888 L159.3855,-1.13686838e-13 Z" id="300K" fill="#848484" fill-rule="nonzero"></path>
                <path d="M215.967,4.347 L218.067,4.347 L218.067,2.4045 C218.067,2.26799932 218.069953,2.11279723 218.075859,1.93889102 L218.099812,1.41093738 C218.105937,1.30331264 218.1125,1.20400045 218.1195,1.113 L218.0775,1.113 C217.9935,1.2740008 217.906,1.43149923 217.815,1.5855 L217.5315,2.058 L217.5315,2.058 L215.967,4.347 Z M219.7995,5.04 L218.886,5.04 L218.886,6.888 L218.067,6.888 L218.067,5.04 L215.0535,5.04 L215.0535,4.473 L217.92,0.189 L218.886,0.189 L218.886,4.347 L219.7995,4.347 L219.7995,5.04 Z M220.746,5.5335 C220.942001,5.73650101 221.174749,5.91499923 221.44425,6.069 C221.713751,6.22300077 222.044498,6.3 222.4365,6.3 C222.639501,6.3 222.830249,6.26325037 223.00875,6.18975 C223.187251,6.11624963 223.342999,6.01300066 223.476,5.88 C223.609001,5.74699933 223.714,5.58600094 223.791,5.397 C223.868,5.20799905 223.9065,4.99800115 223.9065,4.767 C223.9065,4.30499769 223.777001,3.94450129 223.518,3.6855 C223.258999,3.4264987 222.912502,3.297 222.4785,3.297 C222.247499,3.297 222.049751,3.33199965 221.88525,3.402 C221.720749,3.47200035 221.537001,3.57349933 221.334,3.7065 L220.872,3.4125 L221.0925,0.189 L224.442,0.189 L224.442,0.9345 L221.8485,0.9345 L221.67,2.919 C221.831001,2.83499958 221.991999,2.76850024 222.153,2.7195 C222.314001,2.67049975 222.495999,2.646 222.699,2.646 C222.986001,2.646 223.255499,2.68799958 223.5075,2.772 C223.759501,2.85600042 223.979999,2.98374914 224.169,3.15525 C224.358001,3.32675086 224.506749,3.54374869 224.61525,3.80625 C224.723751,4.06875131 224.778,4.38199818 224.778,4.746 C224.778,5.11000182 224.715001,5.4319986 224.589,5.712 C224.462999,5.9920014 224.295001,6.22824904 224.085,6.42075 C223.874999,6.61325096 223.635251,6.76024949 223.36575,6.86175 C223.096249,6.96325051 222.814501,7.014 222.5205,7.014 C222.254499,7.014 222.011251,6.98775026 221.79075,6.93525 C221.570249,6.88274974 221.370751,6.81450042 221.19225,6.7305 C221.013749,6.64649958 220.852751,6.55025054 220.70925,6.44175 C220.565749,6.33324946 220.438001,6.21950059 220.326,6.1005 L220.746,5.5335 Z M227.8665,7.014 C227.187497,7.014 226.659002,6.71300301 226.281,6.111 C225.902998,5.50899699 225.714,4.64450563 225.714,3.5175 C225.714,2.39049436 225.902998,1.53300294 226.281,0.945 C226.659002,0.35699706 227.187497,0.063 227.8665,0.063 C228.538503,0.063 229.063498,0.35699706 229.4415,0.945 C229.819502,1.53300294 230.0085,2.39049436 230.0085,3.5175 C230.0085,4.64450563 229.819502,5.50899699 229.4415,6.111 C229.063498,6.71300301 228.538503,7.014 227.8665,7.014 Z M227.8665,6.321 C228.062501,6.321 228.239249,6.26675054 228.39675,6.15825 C228.554251,6.04974946 228.690749,5.88175114 228.80625,5.65425 C228.921751,5.42674886 229.011,5.13625177 229.074,4.78275 C229.137,4.42924823 229.1685,4.00750245 229.1685,3.5175 C229.1685,3.02749755 229.137,2.60750175 229.074,2.2575 C229.011,1.90749825 228.921751,1.6222511 228.80625,1.40175 C228.690749,1.1812489 228.554251,1.01850052 228.39675,0.9135 C228.239249,0.808499475 228.062501,0.756 227.8665,0.756 C227.670499,0.756 227.492001,0.808499475 227.331,0.9135 C227.169999,1.01850052 227.031751,1.1812489 226.91625,1.40175 C226.800749,1.6222511 226.7115,1.90749825 226.6485,2.2575 C226.5855,2.60750175 226.554,3.02749755 226.554,3.5175 C226.554,4.4975049 226.674749,5.20974778 226.91625,5.65425 C227.157751,6.09875222 227.474498,6.321 227.8665,6.321 Z M231.3855,-1.13686838e-13 L232.257,-1.13686838e-13 L232.257,3.4545 L232.2885,3.4545 L235.155,-1.13686838e-13 L236.142,-1.13686838e-13 L233.9895,2.625 L236.478,6.888 L235.5015,6.888 L233.4435,3.3075 L232.257,4.704 L232.257,6.888 L231.3855,6.888 L231.3855,-1.13686838e-13 Z" id="450K" fill="#848484" fill-rule="nonzero"></path>
                <path d="M65.7045,6.174 L67.2375,6.174 L67.2375,1.239 L66.0195,1.239 L66.0195,0.6825 C66.3275015,0.62649972 66.5952489,0.558250402 66.82275,0.47775 C67.0502511,0.397249597 67.2549991,0.30100056 67.437,0.189 L68.0985,0.189 L68.0985,6.174 L69.4845,6.174 L69.4845,6.888 L65.7045,6.888 L65.7045,6.174 Z M70.746,5.5335 C70.942001,5.73650101 71.1747487,5.91499923 71.44425,6.069 C71.7137513,6.22300077 72.044498,6.3 72.4365,6.3 C72.639501,6.3 72.8302491,6.26325037 73.00875,6.18975 C73.1872509,6.11624963 73.3429993,6.01300066 73.476,5.88 C73.6090007,5.74699933 73.7139996,5.58600094 73.791,5.397 C73.8680004,5.20799905 73.9065,4.99800115 73.9065,4.767 C73.9065,4.30499769 73.7770013,3.94450129 73.518,3.6855 C73.2589987,3.4264987 72.9125022,3.297 72.4785,3.297 C72.2474988,3.297 72.0497508,3.33199965 71.88525,3.402 C71.7207492,3.47200035 71.537001,3.57349933 71.334,3.7065 L70.872,3.4125 L71.0925,0.189 L74.442,0.189 L74.442,0.9345 L71.8485,0.9345 L71.67,2.919 C71.8310008,2.83499958 71.9919992,2.76850024 72.153,2.7195 C72.3140008,2.67049975 72.495999,2.646 72.699,2.646 C72.9860014,2.646 73.2554987,2.68799958 73.5075,2.772 C73.7595013,2.85600042 73.9799991,2.98374914 74.169,3.15525 C74.3580009,3.32675086 74.5067495,3.54374869 74.61525,3.80625 C74.7237505,4.06875131 74.778,4.38199818 74.778,4.746 C74.778,5.11000182 74.7150006,5.4319986 74.589,5.712 C74.4629994,5.9920014 74.2950011,6.22824904 74.085,6.42075 C73.874999,6.61325096 73.6352513,6.76024949 73.36575,6.86175 C73.0962487,6.96325051 72.8145015,7.014 72.5205,7.014 C72.2544987,7.014 72.0112511,6.98775026 71.79075,6.93525 C71.5702489,6.88274974 71.3707509,6.81450042 71.19225,6.7305 C71.0137491,6.64649958 70.8527507,6.55025054 70.70925,6.44175 C70.5657493,6.33324946 70.4380006,6.21950059 70.326,6.1005 L70.746,5.5335 Z M77.8665,7.014 C77.1874966,7.014 76.6590019,6.71300301 76.281,6.111 C75.9029981,5.50899699 75.714,4.64450563 75.714,3.5175 C75.714,2.39049436 75.9029981,1.53300294 76.281,0.945 C76.6590019,0.35699706 77.1874966,0.063 77.8665,0.063 C78.5385034,0.063 79.0634981,0.35699706 79.4415,0.945 C79.8195019,1.53300294 80.0085,2.39049436 80.0085,3.5175 C80.0085,4.64450563 79.8195019,5.50899699 79.4415,6.111 C79.0634981,6.71300301 78.5385034,7.014 77.8665,7.014 Z M77.8665,6.321 C78.062501,6.321 78.2392492,6.26675054 78.39675,6.15825 C78.5542508,6.04974946 78.6907494,5.88175114 78.80625,5.65425 C78.9217506,5.42674886 79.0109997,5.13625177 79.074,4.78275 C79.1370003,4.42924823 79.1685,4.00750245 79.1685,3.5175 C79.1685,3.02749755 79.1370003,2.60750175 79.074,2.2575 C79.0109997,1.90749825 78.9217506,1.6222511 78.80625,1.40175 C78.6907494,1.1812489 78.5542508,1.01850052 78.39675,0.9135 C78.2392492,0.808499475 78.062501,0.756 77.8665,0.756 C77.670499,0.756 77.4920008,0.808499475 77.331,0.9135 C77.1699992,1.01850052 77.0317506,1.1812489 76.91625,1.40175 C76.8007494,1.6222511 76.7115003,1.90749825 76.6485,2.2575 C76.5854997,2.60750175 76.554,3.02749755 76.554,3.5175 C76.554,4.4975049 76.6747488,5.20974778 76.91625,5.65425 C77.1577512,6.09875222 77.474498,6.321 77.8665,6.321 Z M81.3855,-1.13686838e-13 L82.257,-1.13686838e-13 L82.257,3.4545 L82.2885,3.4545 L85.155,-1.13686838e-13 L86.142,-1.13686838e-13 L83.9895,2.625 L86.478,6.888 L85.5015,6.888 L83.4435,3.3075 L82.257,4.704 L82.257,6.888 L81.3855,6.888 L81.3855,-1.13686838e-13 Z" id="150K" fill="#848484" fill-rule="nonzero"></path>
                <path d="M1.75,41.888 L1.75,15.888 C1.75,15.6808932 1.58210678,15.513 1.375,15.513 C1.16789322,15.513 1,15.6808932 1,15.888 L1,41.888 C1,42.0951068 1.16789322,42.263 1.375,42.263 C1.58210678,42.263 1.75,42.0951068 1.75,41.888 Z" id="Stroke-2" fill="#D1D1D1" fill-rule="nonzero"></path>
                <path d="M75.75,41.888 L75.75,15.888 C75.75,15.6808932 75.5821068,15.513 75.375,15.513 C75.1678932,15.513 75,15.6808932 75,15.888 L75,41.888 C75,42.0951068 75.1678932,42.263 75.375,42.263 C75.5821068,42.263 75.75,42.0951068 75.75,41.888 Z" id="Stroke-3" fill="#D1D1D1" fill-rule="nonzero"></path>
                <path d="M149.75,42.888 L149.75,16.888 C149.75,16.6808932 149.582107,16.513 149.375,16.513 C149.167893,16.513 149,16.6808932 149,16.888 L149,42.888 C149,43.0951068 149.167893,43.263 149.375,43.263 C149.582107,43.263 149.75,43.0951068 149.75,42.888 Z" id="Stroke-4" fill="#D1D1D1" fill-rule="nonzero"></path>
                <path d="M224.75,42.888 L224.75,16.888 C224.75,16.6808932 224.582107,16.513 224.375,16.513 C224.167893,16.513 224,16.6808932 224,16.888 L224,42.888 C224,43.0951068 224.167893,43.263 224.375,43.263 C224.582107,43.263 224.75,43.0951068 224.75,42.888 Z" id="Stroke-5" fill="#D1D1D1" fill-rule="nonzero"></path>
                <path d="M298.75,42.888 L298.75,16.888 C298.75,16.6808932 298.582107,16.513 298.375,16.513 C298.167893,16.513 298,16.6808932 298,16.888 L298,42.888 C298,43.0951068 298.167893,43.263 298.375,43.263 C298.582107,43.263 298.75,43.0951068 298.75,42.888 Z" id="Stroke-6" fill="#D1D1D1" fill-rule="nonzero"></path>
                <path d="M277.993785,37.888 L4.75621547,37.888 C2.62154696,37.888 0.875,36.2249565 0.875,34.1923478 L0.875,24.5836522 C0.875,22.5510435 2.62154696,20.888 4.75621547,20.888 L277.993785,20.888 C280.128453,20.888 281.875,22.5510435 281.875,24.5836522 L281.875,34.1923478 C281.875,36.2249565 280.128453,37.888 277.993785,37.888" id="Fill-7" fill="#A7A7D8"></path>
                <path d="M12.1358696,38.888 L5.61413043,38.888 C4.6576087,38.888 3.875,37.5539259 3.875,35.925037 L3.875,21.850963 C3.875,20.2213333 4.6576087,18.888 5.61413043,18.888 L12.1358696,18.888 C13.0923913,18.888 13.875,20.2213333 13.875,21.850963 L13.875,35.925037 C13.875,37.5539259 13.0923913,38.888 12.1358696,38.888" id="Fill-9" fill="#280C60"></path>
                <g id="Group-19" transform="translate(2.875000, 21.888000)">
                    <line x1="4.858875" y1="38.039775" x2="4.858875" y2="21.960525" id="Stroke-13" stroke="#636363" stroke-width="1.5" stroke-linecap="round"></line>
                    <path d="M4.858875,22.26195 C4.075125,23.0457 2.525625,23.4192 1.450125,23.44995 C2.893875,22.3752 4.153125,20.9787 4.858875,19.2897 C5.534625,20.9787 6.870375,22.3137 8.267625,23.44995 C7.116375,23.3577 5.718375,23.07645 4.858875,22.26195" id="Fill-15" fill="#636363"></path>
                    <path d="M5.085225,7.86331836 C3.678975,7.86855 2.571225,6.7473 2.57571134,5.32305 C2.580225,4.01055 3.726225,2.8923 5.070975,2.88627592 C6.427725,2.8803 7.546725,3.9963 7.561725,5.3673 C7.575225,6.70605 6.432225,7.8588 5.085225,7.86331836 M9.201975,3.1413 C8.346225,1.52655 6.911475,0.7548 5.432475,0.658799799 C2.521725,0.65805 0.405225,2.75655 0.359475,5.34405 C0.333975,6.8388 0.928725,8.07105 1.897725,9.1608 C2.940975,10.3338 4.041225,11.46255 4.682475,12.9348 C4.751475,13.09155 4.956225,13.29705 5.085975,13.2888 C5.224725,13.2813 5.373975,13.06155 5.474475,12.90555 C5.933475,12.19155 6.330225,11.43105 6.838725,10.7538 C7.495725,9.8793 8.313975,9.1203 8.926725,8.2188 C10.019475,6.61005 10.113975,4.86105 9.201975,3.1413" id="Fill-17" fill="#FFFFFF"></path>
                </g>
            </g>
        </g>
    </g>
</svg>