<?xml version="1.0" encoding="UTF-8"?>
<svg width="247px" height="224px" viewBox="0 0 247 224" version="1.1" xmlns="http://www.w3.org/2000/svg" xmlns:xlink="http://www.w3.org/1999/xlink">
    <!-- Generator: Sketch 59.1 (86144) - https://sketch.com -->
    <title>People</title>
    <desc>Created with Sketch.</desc>
    <defs>
        <polyline id="path-1" points="1.0815 0.74025 0 142.5 194.1735 142.5 195.25425 0.74025"></polyline>
        <polyline id="path-3" points="1.0815 0.74025 0 142.5 194.1735 142.5 195.25425 0.74025"></polyline>
        <polyline id="path-5" points="1.0815 0.74025 0 142.5 194.1735 142.5 195.25425 0.74025"></polyline>
        <polygon id="path-7" points="1.0815 0.74025 0 142.5 194.1735 142.5 195.25425 0.74025"></polygon>
        <polyline id="path-9" points="1.0815 0.74025 0 142.5 194.1735 142.5 195.25425 0.74025"></polyline>
        <polyline id="path-11" points="1.0815 0.74025 0 142.5 194.1735 142.5 195.25425 0.74025"></polyline>
    </defs>
    <g id="Export-Outlined-SVG" stroke="none" stroke-width="1" fill="none" fill-rule="evenodd">
        <g id="2" transform="translate(-249.000000, -937.000000)">
            <g id="People" transform="translate(244.000000, 937.000000)">
                <path d="M178,69 C178,80.5983703 168.597452,90 157.000375,90 C145.401798,90 136,80.5983703 136,69 C136,57.4031307 145.401798,48 157.000375,48 C168.597452,48 178,57.4031307 178,69" id="Fill-1" fill="#280C60"></path>
                <path d="M177.499127,91 L163.607909,91 L149.384612,91 L135.493393,91 C129.771764,91 125.089003,95.8119 125,101.727089 C130.647585,104.765632 134.512115,110.850212 134.512115,117.849203 C134.512115,117.849203 135.162062,162.190637 135.493393,162.190637 L135.493393,210.10352 C135.493393,216.096659 140.218786,221 145.993518,221 C151.769746,221 156.495886,216.096659 156.495886,210.10352 C156.495886,216.096659 161.222027,221 166.996759,221 C172.772987,221 177.499127,216.096659 177.499127,210.10352 L177.499127,162.190637 C183.274607,162.190637 188,157.287296 188,151.295656 L188,101.894981 C188,95.9040906 183.274607,91 177.499127,91" id="Fill-3" fill="#280C60"></path>
                <path d="M59,69 C59,80.5983703 49.5976198,90 38,90 C26.4023802,90 17,80.5983703 17,69 C17,57.4031307 26.4023802,48 38,48 C49.5976198,48 59,57.4031307 59,69" id="Fill-5" fill="#280C60"></path>
                <path d="M58.5915193,117.849203 C58.5915193,109.618006 61.6861957,102.651993 69,100.416933 C68.2973114,95.1185967 63.8923981,91 58.5915193,91 L44.6778363,91 L30.4315374,91 L16.5171052,91 C10.7322853,91 6,95.9040906 6,101.894981 L6,151.295656 C6,157.287296 10.7322853,162.190637 16.5171052,162.190637 L16.5171052,210.10352 C16.5171052,216.096659 21.251638,221 27.0357088,221 C32.8212778,221 37.5543123,216.096659 37.5543123,210.10352 C37.5543123,216.096659 42.2880959,221 48.0729158,221 C53.8577357,221 58.5915193,216.096659 58.5915193,210.10352 L58.5915193,190.164865 L58.5915193,117.849203 Z" id="Fill-7" fill="#280C60"></path>
                <path d="M122.500374,56 L104.642625,56 L86.3573746,56 L68.4996257,56 C61.074869,56 55,62.297841 55,69.9962019 L55,133.456697 C55,141.153558 61.074869,147.452149 68.4996257,147.452149 L68.4996257,209.003048 C68.4996257,216.702159 74.5744946,223 81.9992513,223 C89.4255054,223 95.5003743,216.702159 95.5003743,209.003048 C95.5003743,216.702159 101.575243,223 109.000749,223 C116.425505,223 122.500374,216.702159 122.500374,209.003048 L122.500374,147.452149 C129.925131,147.452149 136,141.153558 136,133.456697 L136,69.9962019 C136,62.297841 129.925131,56 122.500374,56" id="Fill-9" fill="#280C60"></path>
                <g id="Group-13" transform="translate(68.000000, 0.000000)" fill="#2F1868">
                    <path d="M54.169575,27.197325 C54.169575,42.081825 42.102825,54.147825 27.218325,54.147825 C12.334575,54.147825 0.268575,42.081825 0.268575,27.197325 C0.268575,12.312825 12.334575,0.245325 27.218325,0.245325 C42.102825,0.245325 54.169575,12.312825 54.169575,27.197325" id="Fill-11"></path>
                </g>
                <g id="Group-73" transform="translate(0.000000, 91.000000)">
                    <g id="Group-57">
                        <mask id="mask-2" fill="white">
                            <use xlink:href="#path-1"></use>
                        </mask>
                        <g id="Clip-56"></g>
                        <path d="M177.623325,-21.7248 C177.623325,-10.13505 168.227325,-0.7398 156.638325,-0.7398 C145.047825,-0.7398 135.652575,-10.13505 135.652575,-21.7248 C135.652575,-33.3138 145.047825,-42.71055 156.638325,-42.71055 C168.227325,-42.71055 177.623325,-33.3138 177.623325,-21.7248" id="Fill-55" fill="#BF56B8" mask="url(#mask-2)"></path>
                    </g>
                    <g id="Group-60">
                        <mask id="mask-4" fill="white">
                            <use xlink:href="#path-3"></use>
                        </mask>
                        <g id="Clip-59"></g>
                        <path d="M177.69945,0.872625 L163.7697,0.872625 L149.50695,0.872625 L135.5772,0.872625 C129.8397,0.872625 125.14395,5.687625 125.0547,11.605875 C130.71795,14.646375 134.5932,20.734875 134.5932,27.738375 C134.5932,27.738375 135.24495,72.108375 135.5772,72.108375 L135.5772,120.052875 C135.5772,126.049875 140.3157,130.956375 146.10645,130.956375 C151.8987,130.956375 156.63795,126.049875 156.63795,120.052875 C156.63795,126.049875 161.3772,130.956375 167.16795,130.956375 C172.9602,130.956375 177.69945,126.049875 177.69945,120.052875 L177.69945,72.108375 C183.49095,72.108375 188.22945,67.201875 188.22945,61.207125 L188.22945,11.774625 C188.22945,5.779125 183.49095,0.872625 177.69945,0.872625" id="Fill-58" fill="#462E82" mask="url(#mask-4)"></path>
                    </g>
                    <g id="Group-63">
                        <mask id="mask-6" fill="white">
                            <use xlink:href="#path-5"></use>
                        </mask>
                        <g id="Clip-62"></g>
                        <path d="M58.52745,-21.7248 C58.52745,-10.13505 49.13145,-0.7398 37.5417,-0.7398 C25.95195,-0.7398 16.55595,-10.13505 16.55595,-21.7248 C16.55595,-33.3138 25.95195,-42.71055 37.5417,-42.71055 C49.13145,-42.71055 58.52745,-33.3138 58.52745,-21.7248" id="Fill-61" fill="#BF56B8" mask="url(#mask-6)"></path>
                    </g>
                    <g id="Group-66">
                        <mask id="mask-8" fill="white">
                            <use xlink:href="#path-7"></use>
                        </mask>
                        <g id="Clip-65"></g>
                        <path d="M58.6029,27.738525 C58.6029,19.502775 61.70115,12.532275 69.0234,10.295775 C68.3199,4.994025 63.9099,0.872775 58.6029,0.872775 L44.67315,0.872775 L30.4104,0.872775 L16.4799,0.872775 C10.6884,0.872775 5.95065,5.779275 5.95065,11.774775 L5.95065,61.207275 C5.95065,67.202025 10.6884,72.108525 16.4799,72.108525 L16.4799,120.053025 C16.4799,126.050025 21.2199,130.956525 27.01065,130.956525 C32.8029,130.956525 37.5414,126.050025 37.5414,120.053025 C37.5414,126.050025 42.28065,130.956525 48.07215,130.956525 C53.86365,130.956525 58.6029,126.050025 58.6029,120.053025 L58.6029,100.101525 L58.6029,27.738525 Z" id="Fill-64" fill="#462E82" mask="url(#mask-8)"></path>
                    </g>
                    <g id="Group-69">
                        <mask id="mask-10" fill="white">
                            <use xlink:href="#path-9"></use>
                        </mask>
                        <g id="Clip-68"></g>
                        <path d="M122.51625,-34.654275 L104.62725,-34.654275 L86.31,-34.654275 L68.421,-34.654275 C60.98325,-34.654275 54.89775,-28.354275 54.89775,-20.654025 L54.89775,42.828975 C54.89775,50.528475 60.98325,56.829225 68.421,56.829225 L68.421,118.400475 C68.421,126.102975 74.5065,132.402975 81.94425,132.402975 C89.3835,132.402975 95.469,126.102975 95.469,118.400475 C95.469,126.102975 101.5545,132.402975 108.993,132.402975 C116.43075,132.402975 122.51625,126.102975 122.51625,118.400475 L122.51625,56.829225 C129.954,56.829225 136.0395,50.528475 136.0395,42.828975 L136.0395,-20.654025 C136.0395,-28.354275 129.954,-34.654275 122.51625,-34.654275" id="Fill-67" fill="#462E82" mask="url(#mask-10)"></path>
                    </g>
                    <g id="Group-72">
                        <mask id="mask-12" fill="white">
                            <use xlink:href="#path-11"></use>
                        </mask>
                        <g id="Clip-71"></g>
                        <path d="M122.419575,-63.3117 C122.419575,-48.42795 110.352825,-36.36195 95.468325,-36.36195 C80.584575,-36.36195 68.518575,-48.42795 68.518575,-63.3117 C68.518575,-78.1962 80.584575,-90.2637 95.468325,-90.2637 C110.352825,-90.2637 122.419575,-78.1962 122.419575,-63.3117" id="Fill-70" fill="#BF56B8" mask="url(#mask-12)"></path>
                    </g>
                </g>
                <path d="M200.492,102.2 C200.908002,102.2 201.265999,102.277999 201.566,102.434 C201.866002,102.590001 202.123999,102.783999 202.34,103.016 L201.788,103.628 C201.627999,103.443999 201.438001,103.298001 201.218,103.19 C200.997999,103.081999 200.768001,103.028 200.528,103.028 C200.263999,103.028 200.012001,103.083999 199.772,103.196 C199.531999,103.308001 199.320001,103.491999 199.136,103.748 C198.951999,104.004001 198.804001,104.337998 198.692,104.75 C198.579999,105.162002 198.52,105.671997 198.512,106.28 C198.752001,105.983999 199.031998,105.750001 199.352,105.578 C199.672002,105.405999 199.987998,105.32 200.3,105.32 C200.964003,105.32 201.493998,105.515998 201.89,105.908 C202.286002,106.300002 202.484,106.891996 202.484,107.684 C202.484,108.052002 202.424001,108.385998 202.304,108.686 C202.183999,108.986001 202.020001,109.243999 201.812,109.46 C201.603999,109.676001 201.364001,109.843999 201.092,109.964 C200.819999,110.084001 200.528002,110.144 200.216,110.144 C199.839998,110.144 199.492002,110.068001 199.172,109.916 C198.851998,109.763999 198.574001,109.534002 198.338,109.226 C198.101999,108.917998 197.916001,108.534002 197.78,108.074 C197.643999,107.613998 197.576,107.076003 197.576,106.46 C197.576,105.691996 197.655999,105.038003 197.816,104.498 C197.976001,103.957997 198.191999,103.518002 198.464,103.178 C198.736001,102.837998 199.045998,102.590001 199.394,102.434 C199.742002,102.277999 200.107998,102.2 200.492,102.2 Z M206.4635,102.2 C206.879502,102.2 207.237498,102.277999 207.5375,102.434 C207.837501,102.590001 208.095499,102.783999 208.3115,103.016 L207.7595,103.628 C207.599499,103.443999 207.409501,103.298001 207.1895,103.19 C206.969499,103.081999 206.739501,103.028 206.4995,103.028 C206.235499,103.028 205.983501,103.083999 205.7435,103.196 C205.503499,103.308001 205.291501,103.491999 205.1075,103.748 C204.923499,104.004001 204.775501,104.337998 204.6635,104.75 C204.551499,105.162002 204.4915,105.671997 204.4835,106.28 C204.723501,105.983999 205.003498,105.750001 205.3235,105.578 C205.643502,105.405999 205.959498,105.32 206.2715,105.32 C206.935503,105.32 207.465498,105.515998 207.8615,105.908 C208.257502,106.300002 208.4555,106.891996 208.4555,107.684 C208.4555,108.052002 208.395501,108.385998 208.2755,108.686 C208.155499,108.986001 207.991501,109.243999 207.7835,109.46 C207.575499,109.676001 207.335501,109.843999 207.0635,109.964 C206.791499,110.084001 206.499502,110.144 206.1875,110.144 C205.811498,110.144 205.463502,110.068001 205.1435,109.916 C204.823498,109.763999 204.545501,109.534002 204.3095,109.226 C204.073499,108.917998 203.887501,108.534002 203.7515,108.074 C203.615499,107.613998 203.5475,107.076003 203.5475,106.46 C203.5475,105.691996 203.627499,105.038003 203.7875,104.498 C203.947501,103.957997 204.163499,103.518002 204.4355,103.178 C204.707501,102.837998 205.017498,102.590001 205.3655,102.434 C205.713502,102.277999 206.079498,102.2 206.4635,102.2 Z M216.383,101.984 L212.039,110.144 L211.367,110.144 L215.711,101.984 L216.383,101.984 Z M216.635,105.176 C217.171003,105.176 217.602998,105.389998 217.931,105.818 C218.259002,106.246002 218.423,106.855996 218.423,107.648 C218.423,108.448004 218.259002,109.063998 217.931,109.496 C217.602998,109.928002 217.171003,110.144 216.635,110.144 C216.090997,110.144 215.657002,109.928002 215.333,109.496 C215.008998,109.063998 214.847,108.448004 214.847,107.648 C214.847,106.855996 215.008998,106.246002 215.333,105.818 C215.657002,105.389998 216.090997,105.176 216.635,105.176 Z M224.51,104.024 C225.222004,104.024 225.737998,104.241998 226.058,104.678 C226.378002,105.114002 226.538,105.695996 226.538,106.424 L226.538,110 L225.722,110 L225.638,109.304 L225.614,109.304 C225.333999,109.536001 225.032002,109.733999 224.708,109.898 C224.383998,110.062001 224.042002,110.144 223.682,110.144 C223.185998,110.144 222.776002,110.000001 222.452,109.712 C222.127998,109.423999 221.966,109.016003 221.966,108.488 C221.966,107.847997 222.251997,107.358002 222.824,107.018 C223.396003,106.677998 224.305994,106.440001 225.554,106.304 C225.554,106.119999 225.536,105.940001 225.5,105.764 C225.464,105.587999 225.4,105.432001 225.308,105.296 C225.216,105.159999 225.094001,105.05 224.942,104.966 C224.789999,104.882 224.594001,104.84 224.354,104.84 C224.009998,104.84 223.692001,104.903999 223.4,105.032 C223.107999,105.160001 222.846001,105.303999 222.614,105.464 L222.218,104.78 C222.490001,104.603999 222.821998,104.434001 223.214,104.27 C223.606002,104.105999 224.037998,104.024 224.51,104.024 Z M234.521,104.024 C234.889002,104.024 235.218999,104.087999 235.511,104.216 C235.803001,104.344001 236.046999,104.527999 236.243,104.768 C236.439001,105.008001 236.588999,105.295998 236.693,105.632 C236.797001,105.968002 236.849,106.343998 236.849,106.76 C236.849,106.976001 236.837,107.155999 236.813,107.3 L232.877,107.3 C232.917,107.932003 233.110998,108.431998 233.459,108.8 C233.807002,109.168002 234.260997,109.352 234.821,109.352 C235.101001,109.352 235.358999,109.31 235.595,109.226 C235.831001,109.142 236.056999,109.032001 236.273,108.896 L236.621,109.544 C236.364999,109.704001 236.081002,109.843999 235.769,109.964 C235.456998,110.084001 235.101002,110.144 234.701,110.144 C234.308998,110.144 233.943002,110.074001 233.603,109.934 C233.262998,109.793999 232.967001,109.594001 232.715,109.334 C232.462999,109.073999 232.265001,108.756002 232.121,108.38 C231.976999,108.003998 231.905,107.576002 231.905,107.096 C231.905,106.615998 231.978999,106.186002 232.127,105.806 C232.275001,105.425998 232.470999,105.104001 232.715,104.84 C232.959001,104.575999 233.236998,104.374001 233.549,104.234 C233.861002,104.093999 234.184998,104.024 234.521,104.024 Z M230.9975,104.024 C231.229501,104.024 231.437499,104.064 231.6215,104.144 L231.4295,105.008 C231.3335,104.976 231.2455,104.952 231.1655,104.936 C231.0855,104.92 230.985501,104.912 230.8655,104.912 C230.617499,104.912 230.359501,105.011999 230.0915,105.212 C229.823499,105.412001 229.589501,105.759998 229.3895,106.256 L229.3895,110 L228.4055,110 L228.4055,104.168 L229.2215,104.168 L229.3055,105.224 L229.3415,105.224 C229.541501,104.855998 229.783499,104.564001 230.0675,104.348 C230.351501,104.131999 230.661498,104.024 230.9975,104.024 Z M216.635,105.788 C216.322998,105.788 216.071001,105.941998 215.879,106.25 C215.686999,106.558002 215.591,107.023997 215.591,107.648 C215.591,108.272003 215.686999,108.741998 215.879,109.058 C216.071001,109.374002 216.322998,109.532 216.635,109.532 C216.939002,109.532 217.186999,109.374002 217.379,109.058 C217.571001,108.741998 217.667,108.272003 217.667,107.648 C217.667,107.023997 217.571001,106.558002 217.379,106.25 C217.186999,105.941998 216.939002,105.788 216.635,105.788 Z M200.132,106.064 C199.891999,106.064 199.630001,106.141999 199.346,106.298 C199.061999,106.454001 198.792001,106.711998 198.536,107.072 C198.6,107.824004 198.773999,108.393998 199.058,108.782 C199.342001,109.170002 199.727998,109.364 200.216,109.364 C200.408001,109.364 200.583999,109.324 200.744,109.244 C200.904001,109.164 201.043999,109.050001 201.164,108.902 C201.284001,108.753999 201.378,108.578001 201.446,108.374 C201.514,108.169999 201.548,107.940001 201.548,107.684 C201.548,107.179997 201.432001,106.784001 201.2,106.496 C200.967999,106.207999 200.612002,106.064 200.132,106.064 Z M206.1035,106.064 C205.863499,106.064 205.601501,106.141999 205.3175,106.298 C205.033499,106.454001 204.763501,106.711998 204.5075,107.072 C204.5715,107.824004 204.745499,108.393998 205.0295,108.782 C205.313501,109.170002 205.699498,109.364 206.1875,109.364 C206.379501,109.364 206.555499,109.324 206.7155,109.244 C206.875501,109.164 207.015499,109.050001 207.1355,108.902 C207.255501,108.753999 207.3495,108.578001 207.4175,108.374 C207.4855,108.169999 207.5195,107.940001 207.5195,107.684 C207.5195,107.179997 207.403501,106.784001 207.1715,106.496 C206.939499,106.207999 206.583502,106.064 206.1035,106.064 Z M225.554,106.952 C225.065998,107.016 224.654002,107.092 224.318,107.18 C223.981998,107.268 223.712001,107.371999 223.508,107.492 C223.303999,107.612001 223.158,107.749999 223.07,107.906 C222.982,108.062001 222.938,108.231999 222.938,108.416 C222.938,108.752002 223.035999,108.991999 223.232,109.136 C223.428001,109.280001 223.669999,109.352 223.958,109.352 C224.238001,109.352 224.503999,109.286001 224.756,109.154 C225.008001,109.021999 225.273999,108.828001 225.554,108.572 L225.554,106.952 Z M211.151,101.984 C211.687003,101.984 212.118998,102.197998 212.447,102.626 C212.775002,103.054002 212.939,103.663996 212.939,104.456 C212.939,105.256004 212.775002,105.871998 212.447,106.304 C212.118998,106.736002 211.687003,106.952 211.151,106.952 C210.606997,106.952 210.173002,106.736002 209.849,106.304 C209.524998,105.871998 209.363,105.256004 209.363,104.456 C209.363,103.663996 209.524998,103.054002 209.849,102.626 C210.173002,102.197998 210.606997,101.984 211.151,101.984 Z M234.545,104.804 C234.336999,104.804 234.139001,104.846 233.951,104.93 C233.762999,105.014 233.593001,105.133999 233.441,105.29 C233.288999,105.446001 233.163,105.637999 233.063,105.866 C232.962999,106.094001 232.897,106.355999 232.865,106.652 L232.865,106.652 L235.985,106.652 C235.985,106.051997 235.859001,105.594002 235.607,105.278 C235.354999,104.961998 235.001002,104.804 234.545,104.804 Z M211.151,102.596 C210.838998,102.596 210.587001,102.749998 210.395,103.058 C210.202999,103.366002 210.107,103.831997 210.107,104.456 C210.107,105.080003 210.202999,105.549998 210.395,105.866 C210.587001,106.182002 210.838998,106.34 211.151,106.34 C211.455002,106.34 211.702999,106.182002 211.895,105.866 C212.087001,105.549998 212.183,105.080003 212.183,104.456 C212.183,103.831997 212.087001,103.366002 211.895,103.058 C211.702999,102.749998 211.455002,102.596 211.151,102.596 Z M216.383,64.984 L212.039,73.144 L211.367,73.144 L215.711,64.984 L216.383,64.984 Z M216.635,68.176 C217.171003,68.176 217.602998,68.3899979 217.931,68.818 C218.259002,69.2460021 218.423,69.855996 218.423,70.648 C218.423,71.448004 218.259002,72.0639978 217.931,72.496 C217.602998,72.9280022 217.171003,73.144 216.635,73.144 C216.090997,73.144 215.657002,72.9280022 215.333,72.496 C215.008998,72.0639978 214.847,71.448004 214.847,70.648 C214.847,69.855996 215.008998,69.2460021 215.333,68.818 C215.657002,68.3899979 216.090997,68.176 216.635,68.176 Z M224.51,67.024 C225.222004,67.024 225.737998,67.2419978 226.058,67.678 C226.378002,68.1140022 226.538,68.6959964 226.538,69.424 L226.538,73 L225.722,73 L225.638,72.304 L225.614,72.304 C225.333999,72.5360012 225.032002,72.7339992 224.708,72.898 C224.383998,73.0620008 224.042002,73.144 223.682,73.144 C223.185998,73.144 222.776002,73.0000014 222.452,72.712 C222.127998,72.4239986 221.966,72.0160026 221.966,71.488 C221.966,70.8479968 222.251997,70.3580017 222.824,70.018 C223.396003,69.6779983 224.305994,69.4400007 225.554,69.304 C225.554,69.1199991 225.536,68.9400009 225.5,68.764 C225.464,68.5879991 225.4,68.4320007 225.308,68.296 C225.216,68.1599993 225.094001,68.0500004 224.942,67.966 C224.789999,67.8819996 224.594001,67.84 224.354,67.84 C224.009998,67.84 223.692001,67.9039994 223.4,68.032 C223.107999,68.1600006 222.846001,68.3039992 222.614,68.464 L222.218,67.78 C222.490001,67.6039991 222.821998,67.4340008 223.214,67.27 C223.606002,67.1059992 224.037998,67.024 224.51,67.024 Z M234.521,67.024 C234.889002,67.024 235.218999,67.0879994 235.511,67.216 C235.803001,67.3440006 236.046999,67.5279988 236.243,67.768 C236.439001,68.0080012 236.588999,68.2959983 236.693,68.632 C236.797001,68.9680017 236.849,69.3439979 236.849,69.76 C236.849,69.9760011 236.837,70.1559993 236.813,70.3 L232.877,70.3 C232.917,70.9320032 233.110998,71.4319982 233.459,71.8 C233.807002,72.1680018 234.260997,72.352 234.821,72.352 C235.101001,72.352 235.358999,72.3100004 235.595,72.226 C235.831001,72.1419996 236.056999,72.0320007 236.273,71.896 L236.621,72.544 C236.364999,72.7040008 236.081002,72.8439994 235.769,72.964 C235.456998,73.0840006 235.101002,73.144 234.701,73.144 C234.308998,73.144 233.943002,73.0740007 233.603,72.934 C233.262998,72.7939993 232.967001,72.5940013 232.715,72.334 C232.462999,72.0739987 232.265001,71.7560019 232.121,71.38 C231.976999,71.0039981 231.905,70.5760024 231.905,70.096 C231.905,69.6159976 231.978999,69.1860019 232.127,68.806 C232.275001,68.4259981 232.470999,68.1040013 232.715,67.84 C232.959001,67.5759987 233.236998,67.3740007 233.549,67.234 C233.861002,67.0939993 234.184998,67.024 234.521,67.024 Z M199.796,65.2 C200.132002,65.2 200.439999,65.2439996 200.72,65.332 C201.000001,65.4200004 201.241999,65.5459992 201.446,65.71 C201.650001,65.8740008 201.807999,66.0759988 201.92,66.316 C202.032001,66.5560012 202.088,66.8319984 202.088,67.144 C202.088,67.6080023 201.960001,67.9879985 201.704,68.284 C201.447999,68.5800015 201.112002,68.8079992 200.696,68.968 L200.696,69.016 C200.928001,69.0720003 201.143999,69.1539995 201.344,69.262 C201.544001,69.3700005 201.719999,69.5059992 201.872,69.67 C202.024001,69.8340008 202.142,70.0239989 202.226,70.24 C202.31,70.4560011 202.352,70.6959987 202.352,70.96 C202.352,71.2960017 202.286001,71.5999986 202.154,71.872 C202.021999,72.1440014 201.842001,72.3739991 201.614,72.562 C201.385999,72.7500009 201.120002,72.8939995 200.816,72.994 C200.511998,73.0940005 200.184002,73.144 199.832,73.144 C199.527998,73.144 199.250001,73.1140003 198.998,73.054 C198.745999,72.9939997 198.516001,72.9140005 198.308,72.814 C198.099999,72.7139995 197.914001,72.6000006 197.75,72.472 C197.585999,72.3439994 197.440001,72.2080007 197.312,72.064 L197.816,71.416 C198.048001,71.6560012 198.317998,71.8679991 198.626,72.052 C198.934002,72.2360009 199.315998,72.328 199.772,72.328 C200.236002,72.328 200.615999,72.2020013 200.912,71.95 C201.208001,71.6979987 201.356,71.3560022 201.356,70.924 C201.356,70.7 201.314,70.4940009 201.23,70.306 C201.146,70.1179991 201.008001,69.9560007 200.816,69.82 C200.623999,69.6839993 200.372002,69.5800004 200.06,69.508 C199.747998,69.4359996 199.364002,69.4 198.908,69.4 L198.908,68.644 C199.316002,68.644 199.657999,68.6080004 199.934,68.536 C200.210001,68.4639996 200.433999,68.3640006 200.606,68.236 C200.778001,68.1079994 200.9,67.9560009 200.972,67.78 C201.044,67.6039991 201.08,67.416001 201.08,67.216 C201.08,66.8399981 200.962001,66.5440011 200.726,66.328 C200.489999,66.1119989 200.168002,66.004 199.76,66.004 C199.439998,66.004 199.146001,66.0759993 198.878,66.22 C198.609999,66.3640007 198.360001,66.5519988 198.128,66.784 L197.6,66.16 C197.896001,65.8799986 198.221998,65.6500009 198.578,65.47 C198.934002,65.2899991 199.339998,65.2 199.796,65.2 Z M207.5555,65.344 L207.5555,70.096 L208.5995,70.096 L208.5995,70.888 L207.5555,70.888 L207.5555,73 L206.6195,73 L206.6195,70.888 L203.1755,70.888 L203.1755,70.24 L206.4515,65.344 L207.5555,65.344 Z M230.9975,67.024 C231.229501,67.024 231.437499,67.0639996 231.6215,67.144 L231.4295,68.008 C231.3335,67.9759998 231.2455,67.9520001 231.1655,67.936 C231.0855,67.9199999 230.985501,67.912 230.8655,67.912 C230.617499,67.912 230.359501,68.011999 230.0915,68.212 C229.823499,68.412001 229.589501,68.7599975 229.3895,69.256 L229.3895,73 L228.4055,73 L228.4055,67.168 L229.2215,67.168 L229.3055,68.224 L229.3415,68.224 C229.541501,67.8559982 229.783499,67.5640011 230.0675,67.348 C230.351501,67.1319989 230.661498,67.024 230.9975,67.024 Z M216.635,68.788 C216.322998,68.788 216.071001,68.9419985 215.879,69.25 C215.686999,69.5580015 215.591,70.0239969 215.591,70.648 C215.591,71.2720031 215.686999,71.7419984 215.879,72.058 C216.071001,72.3740016 216.322998,72.532 216.635,72.532 C216.939002,72.532 217.186999,72.3740016 217.379,72.058 C217.571001,71.7419984 217.667,71.2720031 217.667,70.648 C217.667,70.0239969 217.571001,69.5580015 217.379,69.25 C217.186999,68.9419985 216.939002,68.788 216.635,68.788 Z M225.554,69.952 C225.065998,70.0160003 224.654002,70.0919996 224.318,70.18 C223.981998,70.2680004 223.712001,70.3719994 223.508,70.492 C223.303999,70.6120006 223.158,70.7499992 223.07,70.906 C222.982,71.0620008 222.938,71.2319991 222.938,71.416 C222.938,71.7520017 223.035999,71.9919993 223.232,72.136 C223.428001,72.2800007 223.669999,72.352 223.958,72.352 C224.238001,72.352 224.503999,72.2860007 224.756,72.154 C225.008001,72.0219993 225.273999,71.8280013 225.554,71.572 L225.554,69.952 Z M206.6795,66.4 L206.6315,66.4 C206.5355,66.5840009 206.435501,66.7639991 206.3315,66.94 L206.0075,67.48 L204.2195,70.096 L206.6195,70.096 L206.6195,67.876 C206.6195,67.7199992 206.622875,67.5426254 206.629625,67.3438755 L206.657,66.7404999 C206.664,66.6175002 206.6715,66.5040005 206.6795,66.4 Z M211.151,64.984 C211.687003,64.984 212.118998,65.1979979 212.447,65.626 C212.775002,66.0540021 212.939,66.663996 212.939,67.456 C212.939,68.256004 212.775002,68.8719978 212.447,69.304 C212.118998,69.7360022 211.687003,69.952 211.151,69.952 C210.606997,69.952 210.173002,69.7360022 209.849,69.304 C209.524998,68.8719978 209.363,68.256004 209.363,67.456 C209.363,66.663996 209.524998,66.0540021 209.849,65.626 C210.173002,65.1979979 210.606997,64.984 211.151,64.984 Z M234.545,67.804 C234.336999,67.804 234.139001,67.8459996 233.951,67.93 C233.762999,68.0140004 233.593001,68.1339992 233.441,68.29 C233.288999,68.4460008 233.163,68.6379989 233.063,68.866 C232.962999,69.0940011 232.897,69.3559985 232.865,69.652 L232.865,69.652 L235.985,69.652 C235.985,69.051997 235.859001,68.5940016 235.607,68.278 C235.354999,67.9619984 235.001002,67.804 234.545,67.804 Z M211.151,65.596 C210.838998,65.596 210.587001,65.7499985 210.395,66.058 C210.202999,66.3660015 210.107,66.8319969 210.107,67.456 C210.107,68.0800031 210.202999,68.5499984 210.395,68.866 C210.587001,69.1820016 210.838998,69.34 211.151,69.34 C211.455002,69.34 211.702999,69.1820016 211.895,68.866 C212.087001,68.5499984 212.183,68.0800031 212.183,67.456 C212.183,66.8319969 212.087001,66.3660015 211.895,66.058 C211.702999,65.7499985 211.455002,65.596 211.151,65.596 Z" id="Combined-Shape" fill="#3F3F3F" fill-rule="nonzero"></path>
                <path d="M198.488,115.968 C198.295999,115.968 198.134001,115.908001 198.002,115.788 C197.869999,115.667999 197.804,115.516001 197.804,115.332 C197.804,115.139999 197.869999,114.986001 198.002,114.87 C198.134001,114.753999 198.295999,114.696 198.488,114.696 C198.680001,114.696 198.841999,114.753999 198.974,114.87 C199.106001,114.986001 199.172,115.139999 199.172,115.332 C199.172,115.516001 199.106001,115.667999 198.974,115.788 C198.841999,115.908001 198.680001,115.968 198.488,115.968 Z M197.984,117.168 L198.968,117.168 L198.968,123 L197.984,123 L197.984,117.168 Z M200.9435,117.168 L201.7595,117.168 L201.8435,118.008 L201.8795,118.008 C202.159501,117.727999 202.453498,117.494001 202.7615,117.306 C203.069502,117.117999 203.427498,117.024 203.8355,117.024 C204.451503,117.024 204.901499,117.215998 205.1855,117.6 C205.469501,117.984002 205.6115,118.551996 205.6115,119.304 L205.6115,123 L204.6275,123 L204.6275,119.436 C204.6275,118.883997 204.539501,118.486001 204.3635,118.242 C204.187499,117.997999 203.907502,117.876 203.5235,117.876 C203.219498,117.876 202.951501,117.951999 202.7195,118.104 C202.487499,118.256001 202.223501,118.479999 201.9275,118.776 L201.9275,123 L200.9435,123 L200.9435,117.168 Z M207.095,120.096 C207.095,119.623998 207.164999,119.198002 207.305,118.818 C207.445001,118.437998 207.630999,118.116001 207.863,117.852 C208.095,117.587999 208.362998,117.384001 208.667,117.24 C208.971002,117.095999 209.290998,117.024 209.627,117.024 C209.963002,117.024 210.254999,117.083999 210.503,117.204 C210.751001,117.324001 211.002999,117.487999 211.259,117.696 L211.211,116.7 L211.211,114.456 L212.207,114.456 L212.207,123 L211.391,123 L211.307,122.316 L211.271,122.316 C211.038999,122.540001 210.773001,122.733999 210.473,122.898 C210.172998,123.062001 209.851002,123.144 209.507,123.144 C208.770996,123.144 208.185002,122.880003 207.749,122.352 C207.312998,121.823997 207.095,121.072005 207.095,120.096 Z M208.115,120.084 C208.115,120.788004 208.254999,121.335998 208.535,121.728 C208.815001,122.120002 209.210997,122.316 209.723,122.316 C209.995001,122.316 210.250999,122.250001 210.491,122.118 C210.731001,121.985999 210.970999,121.784001 211.211,121.512 L211.211,118.464 C210.962999,118.239999 210.725001,118.082 210.497,117.99 C210.268999,117.898 210.035001,117.852 209.795,117.852 C209.562999,117.852 209.345001,117.905999 209.141,118.014 C208.936999,118.122001 208.759001,118.273999 208.607,118.47 C208.454999,118.666001 208.335,118.899999 208.247,119.172 C208.159,119.444001 208.115,119.747998 208.115,120.084 Z M214.6865,115.968 C214.494499,115.968 214.332501,115.908001 214.2005,115.788 C214.068499,115.667999 214.0025,115.516001 214.0025,115.332 C214.0025,115.139999 214.068499,114.986001 214.2005,114.87 C214.332501,114.753999 214.494499,114.696 214.6865,114.696 C214.878501,114.696 215.040499,114.753999 215.1725,114.87 C215.304501,114.986001 215.3705,115.139999 215.3705,115.332 C215.3705,115.516001 215.304501,115.667999 215.1725,115.788 C215.040499,115.908001 214.878501,115.968 214.6865,115.968 Z M214.1825,117.168 L215.1665,117.168 L215.1665,123 L214.1825,123 L214.1825,117.168 Z M216.302,117.168 L217.322,117.168 L218.426,120.48 L218.696,121.344 L218.696,121.344 L218.966,122.196 L218.966,122.196 L219.014,122.196 L219.278,121.344 L219.278,121.344 L219.542,120.48 L220.646,117.168 L221.618,117.168 L219.554,123 L218.402,123 L216.302,117.168 Z M223.2575,115.968 C223.065499,115.968 222.903501,115.908001 222.7715,115.788 C222.639499,115.667999 222.5735,115.516001 222.5735,115.332 C222.5735,115.139999 222.639499,114.986001 222.7715,114.87 C222.903501,114.753999 223.065499,114.696 223.2575,114.696 C223.449501,114.696 223.611499,114.753999 223.7435,114.87 C223.875501,114.986001 223.9415,115.139999 223.9415,115.332 C223.9415,115.516001 223.875501,115.667999 223.7435,115.788 C223.611499,115.908001 223.449501,115.968 223.2575,115.968 Z M222.7535,117.168 L223.7375,117.168 L223.7375,123 L222.7535,123 L222.7535,117.168 Z M225.293,120.096 C225.293,119.623998 225.362999,119.198002 225.503,118.818 C225.643001,118.437998 225.828999,118.116001 226.061,117.852 C226.293,117.587999 226.560998,117.384001 226.865,117.24 C227.169002,117.095999 227.488998,117.024 227.825,117.024 C228.161002,117.024 228.452999,117.083999 228.701,117.204 C228.949001,117.324001 229.200999,117.487999 229.457,117.696 L229.409,116.7 L229.409,114.456 L230.405,114.456 L230.405,123 L229.589,123 L229.505,122.316 L229.469,122.316 C229.236999,122.540001 228.971001,122.733999 228.671,122.898 C228.370998,123.062001 228.049002,123.144 227.705,123.144 C226.968996,123.144 226.383002,122.880003 225.947,122.352 C225.510998,121.823997 225.293,121.072005 225.293,120.096 Z M226.313,120.084 C226.313,120.788004 226.452999,121.335998 226.733,121.728 C227.013001,122.120002 227.408997,122.316 227.921,122.316 C228.193001,122.316 228.448999,122.250001 228.689,122.118 C228.929001,121.985999 229.168999,121.784001 229.409,121.512 L229.409,118.464 C229.160999,118.239999 228.923001,118.082 228.695,117.99 C228.466999,117.898 228.233001,117.852 227.993,117.852 C227.760999,117.852 227.543001,117.905999 227.339,118.014 C227.134999,118.122001 226.957001,118.273999 226.805,118.47 C226.652999,118.666001 226.533,118.899999 226.445,119.172 C226.357,119.444001 226.313,119.747998 226.313,120.084 Z M232.2965,117.168 L233.2925,117.168 L233.2925,120.732 C233.2925,121.284003 233.378499,121.681999 233.5505,121.926 C233.722501,122.170001 234.000498,122.292 234.3845,122.292 C234.688502,122.292 234.956499,122.214001 235.1885,122.058 C235.420501,121.901999 235.676499,121.652002 235.9565,121.308 L235.9565,117.168 L236.9405,117.168 L236.9405,123 L236.1245,123 L236.0405,122.088 L236.0045,122.088 C235.732499,122.408002 235.446501,122.663999 235.1465,122.856 C234.846498,123.048001 234.492502,123.144 234.0845,123.144 C233.460497,123.144 233.006501,122.952002 232.7225,122.568 C232.438499,122.183998 232.2965,121.616004 232.2965,120.864 L232.2965,117.168 Z M238.628,121.488 C238.628,120.847997 238.913997,120.358002 239.486,120.018 C240.058003,119.677998 240.967994,119.440001 242.216,119.304 C242.216,119.119999 242.198,118.940001 242.162,118.764 C242.126,118.587999 242.062,118.432001 241.97,118.296 C241.878,118.159999 241.756001,118.05 241.604,117.966 C241.451999,117.882 241.256001,117.84 241.016,117.84 C240.671998,117.84 240.354001,117.903999 240.062,118.032 C239.769999,118.160001 239.508001,118.303999 239.276,118.464 L238.88,117.78 C239.152001,117.603999 239.483998,117.434001 239.876,117.27 C240.268002,117.105999 240.699998,117.024 241.172,117.024 C241.884004,117.024 242.399998,117.241998 242.72,117.678 C243.040002,118.114002 243.2,118.695996 243.2,119.424 L243.2,123 L242.384,123 L242.3,122.304 L242.276,122.304 C241.995999,122.536001 241.694002,122.733999 241.37,122.898 C241.045998,123.062001 240.704002,123.144 240.344,123.144 C239.847998,123.144 239.438002,123.000001 239.114,122.712 C238.789998,122.423999 238.628,122.016003 238.628,121.488 Z M239.6,121.416 C239.6,121.752002 239.697999,121.991999 239.894,122.136 C240.090001,122.280001 240.331999,122.352 240.62,122.352 C240.900001,122.352 241.165999,122.286001 241.418,122.154 C241.670001,122.021999 241.935999,121.828001 242.216,121.572 L242.216,119.952 C241.727998,120.016 241.316002,120.092 240.98,120.18 C240.643998,120.268 240.374001,120.371999 240.17,120.492 C239.965999,120.612001 239.82,120.749999 239.732,120.906 C239.644,121.062001 239.6,121.231999 239.6,121.416 Z M245.0675,114.456 L246.0515,114.456 L246.0515,121.896 C246.0515,122.056001 246.0795,122.168 246.1355,122.232 C246.1915,122.296 246.2555,122.328 246.3275,122.328 L246.4175,122.328 C246.4455,122.328 246.4875,122.32 246.5435,122.304 L246.6755,123.048 C246.6115,123.08 246.5355,123.104 246.4475,123.12 C246.3595,123.136 246.247501,123.144 246.1115,123.144 C245.735498,123.144 245.467501,123.032001 245.3075,122.808 C245.147499,122.583999 245.0675,122.256002 245.0675,121.824 L245.0675,114.456 Z M247.979,121.68 C248.235001,121.888001 248.496999,122.055999 248.765,122.184 C249.033001,122.312001 249.342998,122.376 249.695,122.376 C250.079002,122.376 250.366999,122.288001 250.559,122.112 C250.751001,121.935999 250.847,121.720001 250.847,121.464 C250.847,121.311999 250.807,121.180001 250.727,121.068 C250.647,120.955999 250.545001,120.858 250.421,120.774 C250.296999,120.69 250.155001,120.616 249.995,120.552 L249.515,120.36 C249.306999,120.288 249.099001,120.206 248.891,120.114 C248.682999,120.022 248.497001,119.910001 248.333,119.778 C248.168999,119.645999 248.035001,119.492001 247.931,119.316 C247.826999,119.139999 247.775,118.928001 247.775,118.68 C247.775,118.447999 247.821,118.230001 247.913,118.026 C248.005,117.821999 248.136999,117.646001 248.309,117.498 C248.481001,117.349999 248.690999,117.234 248.939,117.15 C249.187001,117.066 249.466998,117.024 249.779,117.024 C250.147002,117.024 250.484998,117.087999 250.793,117.216 C251.101002,117.344001 251.366999,117.499999 251.591,117.684 L251.123,118.308 C250.922999,118.155999 250.715001,118.032 250.499,117.936 C250.282999,117.84 250.047001,117.792 249.791,117.792 C249.422998,117.792 249.153001,117.875999 248.981,118.044 C248.808999,118.212001 248.723,118.407999 248.723,118.632 C248.723,118.768001 248.759,118.886 248.831,118.986 C248.903,119.086 248.998999,119.174 249.119,119.25 C249.239001,119.326 249.376999,119.394 249.533,119.454 L250.019,119.64 C250.227001,119.72 250.436999,119.804 250.649,119.892 C250.861001,119.98 251.050999,120.089999 251.219,120.222 C251.387001,120.354001 251.524999,120.515999 251.633,120.708 C251.741001,120.900001 251.795,121.131999 251.795,121.404 C251.795,121.644001 251.749,121.867999 251.657,122.076 C251.565,122.284001 251.429001,122.467999 251.249,122.628 C251.068999,122.788001 250.845001,122.914 250.577,123.006 C250.308999,123.098 250.003002,123.144 249.659,123.144 C249.242998,123.144 248.847002,123.068001 248.471,122.916 C248.094998,122.763999 247.767001,122.572001 247.487,122.34 L247.979,121.68 Z" id="individuals" fill="#3F3F3F" fill-rule="nonzero"></path>
                <path d="M198.488,80.968 C198.295999,80.968 198.134001,80.9080006 198.002,80.788 C197.869999,80.6679994 197.804,80.5160009 197.804,80.332 C197.804,80.139999 197.869999,79.9860006 198.002,79.87 C198.134001,79.7539994 198.295999,79.696 198.488,79.696 C198.680001,79.696 198.841999,79.7539994 198.974,79.87 C199.106001,79.9860006 199.172,80.139999 199.172,80.332 C199.172,80.5160009 199.106001,80.6679994 198.974,80.788 C198.841999,80.9080006 198.680001,80.968 198.488,80.968 Z M197.984,82.168 L198.968,82.168 L198.968,88 L197.984,88 L197.984,82.168 Z M200.9435,82.168 L201.7595,82.168 L201.8435,83.008 L201.8795,83.008 C202.159501,82.7279986 202.453498,82.4940009 202.7615,82.306 C203.069502,82.1179991 203.427498,82.024 203.8355,82.024 C204.451503,82.024 204.901499,82.2159981 205.1855,82.6 C205.469501,82.9840019 205.6115,83.5519962 205.6115,84.304 L205.6115,88 L204.6275,88 L204.6275,84.436 C204.6275,83.8839972 204.539501,83.4860012 204.3635,83.242 C204.187499,82.9979988 203.907502,82.876 203.5235,82.876 C203.219498,82.876 202.951501,82.9519992 202.7195,83.104 C202.487499,83.2560008 202.223501,83.4799985 201.9275,83.776 L201.9275,88 L200.9435,88 L200.9435,82.168 Z M212.5745,80.26 C212.358499,80.1639995 212.138501,80.116 211.9145,80.116 C211.370497,80.116 211.0985,80.4919962 211.0985,81.244 L211.0985,82.168 L212.3345,82.168 L212.3345,82.972 L211.0985,82.972 L211.0985,88 L210.1145,88 L210.1145,82.972 L209.3225,82.972 L209.3225,82.228 L210.1145,82.168 L210.1145,81.244 C210.1145,80.643997 210.252499,80.1720017 210.5285,79.828 C210.804501,79.4839983 211.234497,79.312 211.8185,79.312 C212.002501,79.312 212.176499,79.3299998 212.3405,79.366 C212.504501,79.4020002 212.654499,79.4479997 212.7905,79.504 L212.5745,80.26 Z M212.69,86.488 C212.69,85.8479968 212.975997,85.3580017 213.548,85.018 C214.120003,84.6779983 215.029994,84.4400007 216.278,84.304 C216.278,84.1199991 216.26,83.9400009 216.224,83.764 C216.188,83.5879991 216.124,83.4320007 216.032,83.296 C215.94,83.1599993 215.818001,83.0500004 215.666,82.966 C215.513999,82.8819996 215.318001,82.84 215.078,82.84 C214.733998,82.84 214.416001,82.9039994 214.124,83.032 C213.831999,83.1600006 213.570001,83.3039992 213.338,83.464 L212.942,82.78 C213.214001,82.6039991 213.545998,82.4340008 213.938,82.27 C214.330002,82.1059992 214.761998,82.024 215.234,82.024 C215.946004,82.024 216.461998,82.2419978 216.782,82.678 C217.102002,83.1140022 217.262,83.6959964 217.262,84.424 L217.262,88 L216.446,88 L216.362,87.304 L216.338,87.304 C216.057999,87.5360012 215.756002,87.7339992 215.432,87.898 C215.107998,88.0620008 214.766002,88.144 214.406,88.144 C213.909998,88.144 213.500002,88.0000014 213.176,87.712 C212.851998,87.4239986 212.69,87.0160026 212.69,86.488 Z M213.662,86.416 C213.662,86.7520017 213.759999,86.9919993 213.956,87.136 C214.152001,87.2800007 214.393999,87.352 214.682,87.352 C214.962001,87.352 215.227999,87.2860007 215.48,87.154 C215.732001,87.0219993 215.997999,86.8280013 216.278,86.572 L216.278,84.952 C215.789998,85.0160003 215.378002,85.0919996 215.042,85.18 C214.705998,85.2680004 214.436001,85.3719994 214.232,85.492 C214.027999,85.6120006 213.882,85.7499992 213.794,85.906 C213.706,86.0620008 213.662,86.2319991 213.662,86.416 Z M219.1295,82.168 L219.9455,82.168 L220.0295,83.008 L220.0655,83.008 C220.321501,82.7279986 220.599498,82.4940009 220.8995,82.306 C221.199501,82.1179991 221.525498,82.024 221.8775,82.024 C222.325502,82.024 222.675499,82.121999 222.9275,82.318 C223.179501,82.514001 223.365499,82.7879982 223.4855,83.14 C223.789502,82.8039983 224.095498,82.534001 224.4035,82.33 C224.711502,82.125999 225.045498,82.024 225.4055,82.024 C226.005503,82.024 226.451499,82.2159981 226.7435,82.6 C227.035501,82.9840019 227.1815,83.5519962 227.1815,84.304 L227.1815,88 L226.1975,88 L226.1975,84.436 C226.1975,83.8839972 226.109501,83.4860012 225.9335,83.242 C225.757499,82.9979988 225.485502,82.876 225.1175,82.876 C224.677498,82.876 224.189503,83.175997 223.6535,83.776 L223.6535,88 L222.6695,88 L222.6695,84.436 C222.6695,83.8839972 222.581501,83.4860012 222.4055,83.242 C222.229499,82.9979988 221.953502,82.876 221.5775,82.876 C221.137498,82.876 220.649503,83.175997 220.1135,83.776 L220.1135,88 L219.1295,88 L219.1295,82.168 Z M229.589,80.968 C229.396999,80.968 229.235001,80.9080006 229.103,80.788 C228.970999,80.6679994 228.905,80.5160009 228.905,80.332 C228.905,80.139999 228.970999,79.9860006 229.103,79.87 C229.235001,79.7539994 229.396999,79.696 229.589,79.696 C229.781001,79.696 229.942999,79.7539994 230.075,79.87 C230.207001,79.9860006 230.273,80.139999 230.273,80.332 C230.273,80.5160009 230.207001,80.6679994 230.075,80.788 C229.942999,80.9080006 229.781001,80.968 229.589,80.968 Z M229.085,82.168 L230.069,82.168 L230.069,88 L229.085,88 L229.085,82.168 Z M232.0445,79.456 L233.0285,79.456 L233.0285,86.896 C233.0285,87.0560008 233.0565,87.1679997 233.1125,87.232 C233.1685,87.2960003 233.2325,87.328 233.3045,87.328 L233.3945,87.328 C233.4225,87.328 233.4645,87.3200001 233.5205,87.304 L233.6525,88.048 C233.5885,88.0800002 233.5125,88.1039999 233.4245,88.12 C233.3365,88.1360001 233.224501,88.144 233.0885,88.144 C232.712498,88.144 232.444501,88.0320011 232.2845,87.808 C232.124499,87.5839989 232.0445,87.2560022 232.0445,86.824 L232.0445,79.456 Z M235.616,80.968 C235.423999,80.968 235.262001,80.9080006 235.13,80.788 C234.997999,80.6679994 234.932,80.5160009 234.932,80.332 C234.932,80.139999 234.997999,79.9860006 235.13,79.87 C235.262001,79.7539994 235.423999,79.696 235.616,79.696 C235.808001,79.696 235.969999,79.7539994 236.102,79.87 C236.234001,79.9860006 236.3,80.139999 236.3,80.332 C236.3,80.5160009 236.234001,80.6679994 236.102,80.788 C235.969999,80.9080006 235.808001,80.968 235.616,80.968 Z M235.112,82.168 L236.096,82.168 L236.096,88 L235.112,88 L235.112,82.168 Z M237.6395,85.096 C237.6395,84.6159976 237.713499,84.1860019 237.8615,83.806 C238.009501,83.4259981 238.205499,83.1040013 238.4495,82.84 C238.693501,82.5759987 238.971498,82.3740007 239.2835,82.234 C239.595502,82.0939993 239.919498,82.024 240.2555,82.024 C240.623502,82.024 240.953499,82.0879994 241.2455,82.216 C241.537501,82.3440006 241.781499,82.5279988 241.9775,82.768 C242.173501,83.0080012 242.323499,83.2959983 242.4275,83.632 C242.531501,83.9680017 242.5835,84.3439979 242.5835,84.76 C242.5835,84.9760011 242.5715,85.1559993 242.5475,85.3 L238.6115,85.3 C238.6515,85.9320032 238.845498,86.4319982 239.1935,86.8 C239.541502,87.1680018 239.995497,87.352 240.5555,87.352 C240.835501,87.352 241.093499,87.3100004 241.3295,87.226 C241.565501,87.1419996 241.791499,87.0320007 242.0075,86.896 L242.3555,87.544 C242.099499,87.7040008 241.815502,87.8439994 241.5035,87.964 C241.191498,88.0840006 240.835502,88.144 240.4355,88.144 C240.043498,88.144 239.677502,88.0740007 239.3375,87.934 C238.997498,87.7939993 238.701501,87.5940013 238.4495,87.334 C238.197499,87.0739987 237.999501,86.7560019 237.8555,86.38 C237.711499,86.0039981 237.6395,85.5760024 237.6395,85.096 Z M241.7195,84.652 C241.7195,84.051997 241.593501,83.5940016 241.3415,83.278 C241.089499,82.9619984 240.735502,82.804 240.2795,82.804 C240.071499,82.804 239.873501,82.8459996 239.6855,82.93 C239.497499,83.0140004 239.327501,83.1339992 239.1755,83.29 C239.023499,83.4460008 238.8975,83.6379989 238.7975,83.866 C238.697499,84.0940011 238.6315,84.3559985 238.5995,84.652 L241.7195,84.652 Z M243.875,86.68 C244.131001,86.888001 244.392999,87.0559994 244.661,87.184 C244.929001,87.3120006 245.238998,87.376 245.591,87.376 C245.975002,87.376 246.262999,87.2880009 246.455,87.112 C246.647001,86.9359991 246.743,86.7200013 246.743,86.464 C246.743,86.3119992 246.703,86.1800006 246.623,86.068 C246.543,85.9559994 246.441001,85.8580004 246.317,85.774 C246.192999,85.6899996 246.051001,85.6160003 245.891,85.552 L245.411,85.36 C245.202999,85.2879996 244.995001,85.2060005 244.787,85.114 C244.578999,85.0219995 244.393001,84.9100007 244.229,84.778 C244.064999,84.6459993 243.931001,84.4920009 243.827,84.316 C243.722999,84.1399991 243.671,83.9280012 243.671,83.68 C243.671,83.4479988 243.717,83.230001 243.809,83.026 C243.901,82.821999 244.032999,82.6460007 244.205,82.498 C244.377001,82.3499993 244.586999,82.2340004 244.835,82.15 C245.083001,82.0659996 245.362998,82.024 245.675,82.024 C246.043002,82.024 246.380998,82.0879994 246.689,82.216 C246.997002,82.3440006 247.262999,82.4999991 247.487,82.684 L247.019,83.308 C246.818999,83.1559992 246.611001,83.0320005 246.395,82.936 C246.178999,82.8399995 245.943001,82.792 245.687,82.792 C245.318998,82.792 245.049001,82.8759992 244.877,83.044 C244.704999,83.2120008 244.619,83.4079989 244.619,83.632 C244.619,83.7680007 244.655,83.8859995 244.727,83.986 C244.799,84.0860005 244.894999,84.1739996 245.015,84.25 C245.135001,84.3260004 245.272999,84.3939997 245.429,84.454 L245.915,84.64 C246.123001,84.7200004 246.332999,84.8039996 246.545,84.892 C246.757001,84.9800004 246.946999,85.0899993 247.115,85.222 C247.283001,85.3540007 247.420999,85.515999 247.529,85.708 C247.637001,85.900001 247.691,86.1319986 247.691,86.404 C247.691,86.6440012 247.645,86.867999 247.553,87.076 C247.461,87.284001 247.325001,87.4679992 247.145,87.628 C246.964999,87.7880008 246.741001,87.9139995 246.473,88.006 C246.204999,88.0980005 245.899002,88.144 245.555,88.144 C245.138998,88.144 244.743002,88.0680008 244.367,87.916 C243.990998,87.7639992 243.663001,87.5720012 243.383,87.34 L243.875,86.68 Z" id="infamilies" fill="#3F3F3F" fill-rule="nonzero"></path>
                <g id="Group-80" transform="translate(6.000000, 92.000000)" stroke="#FFFFFF" stroke-width="1.9815">
                    <line x1="0.167025" y1="0.69825" x2="2.148525" y2="0.69825" id="Stroke-74"></line>
                    <line x1="4.108125" y1="0.69825" x2="179.491125" y2="0.69825" id="Stroke-76" stroke-dasharray="3.91949987411499,1.959749937057495"></line>
                    <line x1="180.470925" y1="0.69825" x2="182.452425" y2="0.69825" id="Stroke-78"></line>
                </g>
            </g>
        </g>
    </g>
</svg>