<?xml version="1.0" encoding="UTF-8"?>
<svg width="217px" height="119px" viewBox="0 0 217 119" version="1.1" xmlns="http://www.w3.org/2000/svg" xmlns:xlink="http://www.w3.org/1999/xlink">
    <!-- Generator: Sketch 59.1 (86144) - https://sketch.com -->
    <title>Total Population</title>
    <desc>Created with Sketch.</desc>
    <defs>
        <polygon id="path-1" points="0 0.45075 216.59985 0.45075 216.59985 118.19475 0 118.19475"></polygon>
    </defs>
    <g id="Export-Outlined-SVG" stroke="none" stroke-width="1" fill="none" fill-rule="evenodd">
        <g id="2" transform="translate(-548.000000, -1036.000000)">
            <g id="Total-Population" transform="translate(548.000000, 1036.000000)">
                <g id="Group-3">
                    <mask id="mask-2" fill="white">
                        <use xlink:href="#path-1"></use>
                    </mask>
                    <g id="Clip-2"></g>
                    <path d="M206.32485,28.5 C206.32485,28.575 206.24985,28.65 206.24985,28.725 C206.32485,28.65 206.32485,28.575 206.32485,28.5 C206.24985,28.575 206.24985,28.575 206.24985,28.65 C206.32485,28.575 206.32485,28.5 206.32485,28.5 C206.32485,28.425 206.32485,28.5 206.32485,28.5 L206.32485,28.5 Z M180.97485,60.375 C181.04985,60.45 181.04985,60.525 181.12485,60.6 C181.04985,60.525 180.97485,60.45 180.97485,60.375 L180.97485,60.375 Z M216.59985,24.6 L216.59985,24.375 C216.59985,24.375 216.5256,24.45 216.5256,24.525 C216.5256,24.375 216.44985,24.3 216.37485,24.225 C216.22485,24.525 215.84985,24.075 216.1506,23.925 C216.22485,23.925 216.22485,23.925 216.29985,23.85 L216.29985,23.775 L216.22485,23.775 L216.1506,23.625 L216.1506,23.55 L216.07485,23.55 L215.99985,23.4 L215.99985,23.325 L215.9256,23.175 L215.84985,23.175 L215.7756,23.175 L215.7756,23.25 L215.62485,23.325 L215.4006,23.325 L215.24985,23.25 L215.17485,23.175 L215.09985,23.1 L215.0256,22.95075 L214.94985,22.8 L214.87485,22.72575 L214.87485,22.65 L214.8006,22.57575 L214.72485,22.425 L214.72485,22.275 L214.8006,22.125 L214.87485,22.125 L214.87485,22.05 L214.94985,21.9 L214.79985,21.82575 L214.72485,21.675 L214.72485,21.3 L214.79985,21.15075 L214.87485,21.07575 L214.57485,21.07575 L214.42485,21.00075 L214.34985,20.925 L214.19985,20.925 L214.04985,20.85075 L214.04985,20.77575 L213.97485,20.77575 L213.97485,20.70075 L213.9006,20.70075 L213.74985,20.62575 L213.59985,20.47575 L213.5256,20.40075 L213.44985,20.40075 L213.37485,20.25075 L213.44985,20.10075 L213.37485,19.9515 L213.37485,19.80075 L213.44985,19.65075 L213.5256,19.65075 L213.5256,19.5765 L213.5256,19.35075 L213.5256,19.27575 L213.5256,19.2015 L213.5256,13.35075 C213.44985,13.35075 213.44985,13.27575 213.44985,13.27575 L213.37485,13.27575 L213.22485,13.2015 L213.22485,13.12575 L213.1506,13.05075 L213.07485,12.97575 L212.99985,12.97575 L212.9256,12.8265 L212.9256,12.75075 L212.84985,12.75075 L212.7756,12.67575 L212.69985,12.6015 L212.69985,12.52575 L212.62485,12.52575 L212.47485,12.4515 L212.4006,12.3765 L212.32485,12.30075 L212.32485,12.2265 L212.24985,12.2265 L212.09985,12.15075 L212.0256,12.0765 L211.94985,12.0765 L211.94985,12.0015 L211.87485,12.0015 L211.72485,11.92575 L211.72485,11.8515 L211.6506,11.8515 L211.6506,12.0015 L211.57485,12.15075 L211.4256,12.2265 L211.0506,12.2265 L210.97485,12.2265 L210.9006,12.2265 L210.74985,12.2265 L210.6756,12.30075 L210.59985,12.30075 L210.5256,12.3765 L210.37485,12.4515 L209.99985,12.4515 L209.92485,12.52575 L209.7756,12.6015 L209.69985,12.6015 L209.69985,12.67575 L209.54985,12.75075 L209.32485,12.75075 L209.17485,12.67575 L209.17485,12.6015 L209.09985,12.6015 L208.94985,12.52575 L208.87485,12.4515 L209.09985,12.4515 L208.94985,12.3765 L208.87485,12.2265 L208.79985,12.15075 L208.79985,12.0765 L208.72485,12.0015 L208.72485,11.55075 L208.6506,11.55075 L208.57485,11.4765 L208.42485,11.40075 L208.2756,11.55075 L208.12485,11.77575 L207.9006,12.15075 L207.9006,12.2265 L207.67485,12.4515 L207.44985,12.67575 L207.22485,12.9015 L206.99985,13.2765 L206.7756,13.5015 L206.5506,13.8765 L206.32485,14.2515 L206.09985,14.6265 L206.0256,14.7015 L205.8006,14.9265 L205.57485,15.1515 L205.34985,16.5015 L205.34985,16.5765 L205.2756,16.7265 L205.12485,16.8015 L205.0506,16.8015 L205.0506,16.8765 L204.97485,16.8765 L204.97485,16.9515 L204.9006,16.9515 L204.9006,17.0265 L204.8256,17.2515 L204.6756,17.3265 L204.6756,17.4765 L204.59985,17.6265 L204.6756,17.7015 C204.74985,17.7015 204.74985,17.77575 204.8256,17.8515 C204.8256,17.92575 204.8256,18.0765 204.74985,18.15075 L204.6756,18.2265 L204.59985,18.3765 L204.5256,18.3765 L204.5256,18.4515 L204.4506,18.6015 L204.59985,18.67575 L204.6756,18.8265 L204.6756,19.2015 L204.59985,19.3515 L204.5256,19.42575 L204.5256,19.50075 L204.4506,19.50075 L204.37485,19.65075 L204.2256,19.72575 L204.1506,19.80075 C204.2256,19.87575 204.2256,19.9515 204.2256,20.10075 C204.2256,20.17575 204.1506,20.17575 204.0756,20.25075 L204.0756,20.3265 L203.99985,20.3265 L203.9256,20.40075 L203.7756,20.47575 L203.7006,20.47575 L203.62485,20.55075 L203.4756,20.62575 L203.4006,20.62575 L203.4006,20.7015 L203.3256,20.7015 L203.3256,20.77575 L203.1756,20.85075 L203.1006,21.00075 L203.0256,21.00075 C203.0256,21.07575 203.0256,21.07575 202.9506,21.15075 L203.0256,21.15075 L203.0256,21.22575 L203.1006,21.22575 L203.1756,21.37575 L203.24985,21.37575 L203.3256,21.52575 L203.3256,21.675 L203.24985,21.82575 L203.1006,21.90075 L202.8006,21.90075 L202.6506,21.82575 L202.6506,21.90075 L202.6506,22.05 L202.5756,22.20075 L202.49985,22.35075 L202.49985,22.425 L202.4256,22.57575 L202.2756,22.65 L202.12485,22.65 L201.9756,22.57575 L201.9006,22.425 L201.9006,22.35075 L201.8256,22.35075 L201.8256,22.20075 L201.7506,22.20075 L201.7506,22.275 L201.6006,22.35075 L201.5256,22.5 L201.3756,22.57575 L201.1506,22.57575 L201.0006,22.5 L200.9256,22.425 L200.7756,22.35075 L200.7756,22.275 L200.7006,22.35075 L200.6256,22.425 L200.6256,22.5 L200.5506,22.5 L200.5506,22.72575 L200.4756,22.875 L200.4006,22.875 L200.4006,22.95075 L200.3256,23.10075 L200.2506,23.10075 L200.1756,23.175 L200.1006,23.25 L200.1006,23.4 C200.1006,23.55 200.02635,23.625 199.8756,23.625 L198.9756,23.625 L198.8256,23.70075 L198.7506,23.70075 L195.9756,23.70075 L195.8256,23.625 L195.7506,23.55 L193.1256,23.55 L192.8256,23.625 L192.7506,23.625 L187.5756,23.625 L187.5006,23.625 L187.4256,23.625 L187.4256,23.70075 L187.27635,23.775 L187.0506,23.775 L187.0506,23.85075 L186.90135,23.925 L186.8256,24 L186.6756,24.07575 L186.52635,24.07575 L186.52635,24.15 L186.4506,24.225 L186.3756,24.3 L186.2256,24.375 L186.0756,24.375 L186.0006,24.45 L185.9256,24.525 L185.9256,24.6 L185.77635,24.75 L185.7006,24.825 L185.6256,24.9 L185.4756,24.975 L185.40135,24.975 C185.40135,25.05 185.3256,25.05 185.3256,25.05 L185.17635,25.125 L185.1006,25.2 L184.7256,25.575 L184.65135,25.65 L184.42635,25.79925 L184.42635,25.875 L184.3506,26.02425 L184.2006,26.1 L184.1256,26.1 L184.05135,26.325 L183.9756,26.39925 L183.90135,26.54925 L183.8256,26.77425 L183.7506,26.92425 L183.52635,27 L183.45135,27.075 L183.30135,27.14925 L183.15135,27.14925 L183.07635,27.29925 C183.0006,27.375 183.0006,27.45 182.92635,27.45 L182.77635,27.45 L182.77635,27.6 L182.70135,27.74925 L182.55135,27.825 L182.09985,27.825 L182.0256,27.89925 L181.87485,27.97425 L181.79985,28.12425 L181.72485,28.2 L181.49985,28.42425 L181.04985,29.02425 L180.59985,29.92425 L180.1506,30.74925 L179.9256,30.825 L172.87485,30.825 L171.97485,31.2 L171.22485,31.575 L171.5256,32.24925 L171.59985,32.325 L171.67485,32.47425 L171.67485,33.14925 C171.74985,33.22425 171.74985,33.22425 171.74985,33.29925 C171.9006,33.29925 171.97485,33.37425 171.97485,33.45 L171.97485,33.74925 L172.04985,33.825 L172.12485,33.97425 L172.12485,34.2 L172.12485,34.27425 L172.04985,34.49925 C172.12485,34.64925 172.12485,34.79925 171.97485,34.95 C170.92485,35.77425 169.87485,36.59925 168.82485,37.42425 C167.0256,38.84925 164.62485,38.99925 162.74985,40.27425 C162.44985,40.49925 162.22485,40.79925 161.92485,41.02425 C161.24985,41.54925 160.49985,41.47425 159.67485,41.62425 C159.37485,41.7 158.99985,41.84925 158.69985,41.92425 C158.0256,41.99925 157.04985,41.84925 156.44985,41.62425 C156.74985,41.39925 157.12485,41.47425 157.42485,41.325 C157.72485,41.17425 157.79985,41.17425 157.2756,41.02425 C156.44985,40.72425 155.62485,40.42425 154.79985,40.12425 C155.17485,39.45 155.47485,38.77425 155.84985,38.17425 L155.84985,37.64925 L155.92485,37.49925 L155.99985,37.42425 L155.99985,37.27425 L156.07485,37.125 L156.22485,37.04925 L156.29985,36.975 L156.44985,36.89925 L156.5256,36.89925 C156.74985,36.52425 156.9006,36.14925 157.12485,35.85 C157.42485,35.25 157.72485,35.25 157.87485,35.85 L157.94985,35.85 C158.09985,35.475 158.17485,35.17425 158.32485,34.79925 L158.32485,34.2 L158.4006,34.04925 L158.47485,33.975 L158.47485,33.89925 L158.54985,33.75 L158.62485,33.67425 L158.62485,33.6 L158.62485,33.52425 L158.62485,33.45 C158.62485,33.375 158.54985,33.225 158.47485,33 C158.47485,32.77425 158.4006,32.54925 158.32485,32.39925 C158.24985,31.95 158.24985,31.575 158.09985,31.125 C157.94985,30.375 157.94985,29.25 157.42485,28.64925 C156.67485,27.825 155.84985,28.64925 155.09985,29.17425 C154.72485,29.39925 153.37485,30.52425 153.07485,30.14925 C152.92485,30 152.99985,29.625 153.07485,29.475 C153.07485,29.325 153.14985,29.02425 153.22485,28.875 C153.5256,28.42425 154.04985,28.64925 154.34985,28.27425 C154.49985,28.04925 154.42485,27.75 154.49985,27.52425 C154.6506,27.14925 155.0256,27.225 155.24985,26.92425 C155.47485,26.54925 155.47485,25.125 155.4006,24.67425 C155.32485,24.075 154.19985,22.79925 155.47485,23.25 C155.47485,22.79925 155.24985,22.79925 155.09985,22.42425 C155.0256,22.2 155.0256,21.975 154.94985,21.89925 C154.79985,21.6 154.04985,21.375 153.74985,21.225 C153.29985,21.075 152.84985,21 152.47485,20.77425 C152.09985,20.625 152.0256,20.02425 151.49985,19.95 C151.19985,19.875 150.97485,19.95 150.67485,19.875 C150.44985,19.725 150.29985,19.5 149.99985,19.42425 C149.7756,19.35 149.09985,19.2 148.94985,19.42425 C148.64985,19.725 148.49985,21.29925 149.17485,21.29925 C148.72485,21.67425 148.12485,21.375 147.67485,21.825 C147.29985,22.2 147.44985,22.79925 147.37485,23.39925 C147.29985,24 147.14985,23.39925 146.92485,23.54925 C146.77485,23.625 146.62485,24.375 146.54985,24.52425 C146.32485,24.225 146.54985,23.85 146.62485,23.54925 L146.54985,23.54925 C146.54985,23.325 146.84985,22.42425 146.54985,22.5 C146.47485,22.5 146.17485,23.02425 146.09985,23.17425 C146.0256,23.325 145.94985,23.625 145.79985,23.7 C145.64985,23.77425 145.57485,23.54925 145.49985,23.625 C145.42485,23.625 145.34985,23.77425 145.27485,23.85 L144.97485,23.85 C144.82485,24.075 144.74985,24.52425 144.59985,24.75 C144.52485,24.825 144.37485,24.825 144.29985,24.89925 C143.77485,25.64925 143.69985,27.075 143.39985,27.975 C143.24985,28.49925 143.54985,28.87425 143.54985,29.475 C143.62485,30.14925 143.32485,30.825 143.47485,31.49925 C143.54985,31.87425 143.77485,32.7 144.22485,32.325 C144.22485,32.92425 144.22485,33.22425 144.37485,33.67425 C144.44985,33.975 144.37485,34.27425 144.37485,34.575 C144.37485,36.59925 142.94985,38.325 142.04985,39.97425 C142.27485,39.97425 142.64985,39.89925 142.79985,39.97425 C143.02485,40.04925 143.17485,40.49925 143.17485,40.79925 C143.17485,40.34925 142.87485,39.97425 142.49985,39.97425 C141.82485,39.89925 141.37485,40.49925 140.77485,40.64925 C140.32485,40.72425 139.57485,40.49925 139.42485,40.04925 C138.89985,38.77425 138.37485,37.87425 138.44985,36.52425 C138.52485,35.39925 138.22485,34.2 138.14985,33.075 C138.07485,32.54925 138.14985,32.24925 138.29985,31.72425 C138.52485,30.825 138.52485,29.84925 138.82485,29.02425 C138.97485,28.27425 139.34985,27.67425 139.49985,26.92425 C139.64985,26.24925 139.87485,25.64925 140.09985,25.04925 C140.17485,24.89925 140.17485,24.52425 140.09985,24.29925 C140.39985,24.52425 140.92485,23.84925 140.99985,23.62425 C141.29985,23.02425 141.29985,22.72425 141.22485,21.97425 C141.07485,22.27425 140.99985,22.42425 140.84985,22.64925 C140.77485,22.72425 140.69985,22.64925 140.54985,22.79925 C140.47485,22.87425 140.54985,23.17425 140.47485,23.24925 C140.47485,23.325 140.24985,23.39925 140.24985,23.54925 C140.17485,23.7 139.94985,24.14925 140.17485,24.29925 C140.09985,24.22425 140.09985,24.22425 140.02485,24.22425 C139.79985,24.14925 139.27485,24.45 139.12485,24.74925 C138.82485,25.2 138.74985,25.49925 138.29985,25.72425 C138.14985,25.79925 138.29985,26.02425 137.99985,25.87425 C137.77485,25.72425 137.84985,25.72425 137.84985,25.42425 C137.92485,25.12425 138.07485,24.89925 138.22485,24.67425 C138.29985,24.45 138.44985,23.99925 138.59985,23.84925 C138.67485,23.77425 138.82485,23.84925 138.89985,23.77425 C139.12485,23.54925 139.34985,23.24925 139.49985,22.95 C139.64985,22.42425 140.02485,21.97425 140.32485,21.52425 C140.47485,21.22425 140.62485,20.99925 140.77485,20.62425 C140.69985,20.62425 140.62485,20.62425 140.62485,20.54925 C140.69985,20.62425 140.77485,20.54925 140.92485,20.39925 C141.44985,20.02425 141.52485,19.35 141.74985,18.75 L141.74985,19.95 C141.97485,19.875 142.19985,19.725 142.34985,19.5 C142.34985,19.42425 142.42485,19.125 142.49985,19.125 C142.34985,19.2 143.32485,18.975 143.24985,18.89925 C143.84985,19.27425 142.19985,20.02425 143.02485,20.39925 C143.24985,19.95 143.32485,19.79925 143.62485,19.575 C143.69985,19.5 143.92485,19.5 143.99985,19.42425 C144.07485,19.35 144.07485,19.125 144.14985,19.04925 C144.52485,18.45 145.12485,18.45 145.72485,18.75 C145.72485,18.29925 146.54985,18.52425 146.84985,18.375 C146.99985,18.225 147.07485,17.92425 147.29985,17.85 C147.52485,17.77425 147.89985,17.85 148.04985,17.92425 C148.34985,18 148.72485,18.075 148.94985,18.225 C149.24985,18.375 149.69985,19.125 149.99985,19.125 C150.37485,19.125 150.07485,18.225 150.44985,18.075 C150.74985,18 151.27485,18.29925 151.64985,18.29925 C151.94985,18.375 152.24985,18.375 152.54985,18.45 C152.69985,18.45 153.29985,18.67425 153.37485,18.375 L153.37485,18.29925 L153.29985,18.29925 C153.14985,18.29925 153.14985,18.29925 153.07485,18.14925 L152.99985,17.92425 L152.92485,17.77425 L152.84985,17.77425 L152.84985,17.7 L152.69985,17.625 L152.62485,17.54925 L152.47485,17.39925 L152.4006,17.25 L152.4006,17.17425 C152.32485,17.1 152.24985,17.025 152.17485,17.025 C152.24985,16.95 152.0256,16.275 151.87485,16.04925 C151.87485,16.04925 151.87485,15.975 151.79985,15.975 L151.34985,15.975 L151.2756,16.125 C151.19985,16.2 151.12485,16.27425 151.04985,16.27425 L150.67485,16.27425 L150.5256,16.2 L149.92485,15.375 C149.69985,15.29925 149.4006,15.225 149.17485,15.225 C148.72485,15.225 149.0256,14.475 149.24985,14.325 C148.6506,14.25 148.04985,14.475 147.44985,14.55 C146.47485,14.7 145.57485,14.85 144.59985,15 C144.29985,15.075 143.99985,15.225 143.69985,15.375 C143.47485,15.525 143.24985,15.825 143.02485,15.9 C142.64985,16.125 142.34985,15.825 141.89985,15.67425 C141.29985,15.375 140.62485,15.525 140.02485,15.29925 C140.02485,15.225 139.34985,14.25 139.19985,14.1 C138.67485,13.42425 137.84985,13.5 137.09985,13.35 C137.17485,13.275 137.17485,13.2 137.17485,13.2 C136.72485,13.425 136.27485,13.8 135.97485,14.25 C135.89985,13.875 136.12485,13.5 136.04985,13.2 C136.04985,13.05 135.82485,12.675 135.82485,12.6 C135.67485,12.45 135.44985,12.29925 135.37485,12.15 C135.29985,12.075 135.44985,11.92425 135.37485,11.85 C135.22485,11.7 134.54985,12.225 134.32485,12.375 C133.12485,12.975 131.99985,13.575 130.87485,14.25 C130.19985,14.625 129.52485,15 128.84985,15.29925 C128.54985,15.45 127.49985,14.7 127.12485,14.54925 C126.89985,14.4 127.42485,13.95 127.42485,13.725 C127.42485,12.9 125.54985,13.95 125.17485,14.1 C124.79985,14.25 124.42485,14.475 123.97485,14.625 C123.44985,14.77425 122.92485,14.54925 122.39985,14.39925 C123.67485,13.2 125.02485,12 126.29985,10.79925 C126.82485,10.27425 127.27485,9.89925 127.94985,9.52425 C128.99985,9 130.19985,8.54925 131.39985,7.95 L131.32485,7.875 L131.24985,7.79925 L131.17485,7.79925 L131.17485,7.875 L131.0256,7.95 L130.94985,7.95 L130.94985,8.02425 L130.79985,8.1 L130.6506,8.02425 L130.6506,7.95 L130.49985,7.95 L130.34985,7.875 L130.2756,7.725 L130.2756,7.65 L130.19985,7.65 C129.9006,7.575 129.59985,7.575 129.22485,7.42425 C129.5256,7.5 129.82485,7.5 130.12485,7.5 L130.04985,7.42425 L130.04985,7.35 L129.97485,7.35 L129.9006,7.275 L129.44985,7.275 L129.37485,7.35 L129.2256,7.42425 L128.32485,7.42425 L128.24985,7.35 L128.1006,7.42425 L127.49985,7.42425 L127.3506,7.35 L127.3506,7.275 L127.2756,7.2 L127.19985,7.05 L127.19985,6.975 L127.12485,6.975 L127.0506,6.75 L126.9756,6.75 L126.82485,6.75 L126.82485,6.825 L126.6756,6.9 L126.59985,6.9 L126.59985,6.975 L126.44985,7.04925 L126.59985,7.04925 L126.59985,7.125 L126.44985,7.2 L126.37485,7.27425 L126.29985,7.35 L126.22485,7.42425 L126.14985,7.42425 L126.14985,7.5 L125.99985,7.575 L125.69985,7.575 L125.69985,7.64925 L125.54985,7.725 L124.72485,7.725 L124.57485,7.64925 L124.57485,7.5 L124.27485,7.5 L124.12485,7.42425 L124.04985,7.27425 L124.04985,7.125 L124.04985,7.04925 L123.97485,6.975 L123.97485,6.9 L123.59985,6.9 L123.44985,6.825 L123.37485,6.75 L123.22485,6.75 L123.07485,6.675 L123.07485,6.6 L122.99985,6.6 L122.92485,6.525 L122.84985,6.45 L122.77485,6.3 L122.77485,6.15 L122.54985,6.15 L122.47485,6.15 L122.4006,6.15 L122.17485,6.15 L122.17485,6.45 C122.17485,6.525 122.09985,6.6 122.0256,6.675 L122.0256,6.75 L121.87485,6.825 L121.79985,6.825 L121.6506,6.75 L121.57485,6.675 L121.49985,6.675 L121.42485,6.525 L121.42485,6.45075 L121.34985,6.375 C121.2756,6.375 121.19985,6.3 121.19985,6.15 L121.19985,5.85 L121.12485,5.775 L121.12485,5.70075 L120.5256,5.70075 L120.37485,5.625 L120.29985,5.47575 L120.29985,5.175 L120.2256,5.10075 L120.1506,5.025 L119.99985,5.025 L119.8506,4.95075 L119.7756,4.875 L119.69985,4.875 L119.5506,4.8 L119.4756,4.72575 L119.32485,4.65 L119.32485,4.57575 L119.24985,4.65 L119.1006,4.72575 L118.7256,4.72575 L118.57485,4.65 L118.57485,4.57575 L118.19985,4.57575 L118.12485,4.65 L117.9756,4.72575 L117.82485,4.72575 L117.74985,4.72575 L117.6756,4.72575 L117.59985,4.72575 L117.59985,4.875 L117.52485,5.025 L117.37485,5.10075 L116.99985,5.10075 L116.92485,5.175 C116.84985,5.25 116.77485,5.25 116.69985,5.25 L116.62485,5.25 L116.02485,5.25 L115.87485,5.175 L115.87485,5.10075 L115.79985,5.025 L115.72485,4.875 L115.72485,4.65 L115.6506,4.65 L115.6506,4.57575 L114.67485,4.57575 L114.5256,4.5 L114.5256,4.425 L114.59985,4.425 L114.44985,4.35075 L114.37485,4.20075 L114.07485,4.20075 L113.99985,4.275 L113.84985,4.35075 L113.62485,4.35075 L113.47485,4.275 L113.47485,4.20075 L113.32485,4.20075 L113.17485,4.125 L113.17485,4.05 C113.09985,3.97575 113.09985,3.97575 113.09985,3.9 L113.0256,3.82575 L112.94985,3.75075 C112.87485,3.75075 112.79985,3.675 112.79985,3.525 L112.79985,2.775 L112.6506,2.4 L112.6506,2.32575 L112.6506,2.10075 L112.49985,1.875 L112.49985,1.72575 L112.49985,1.65 L112.42485,1.425 L112.34985,1.275 L112.34985,1.05 L112.2756,0.82575 L112.2756,0.75 L112.2756,0.675 L112.04985,0.525 L111.97485,0.45075 L111.44985,0.45075 L111.44985,2.175 L111.37485,2.32575 L111.22485,2.4 L7.79985,2.4 C7.79985,2.55 7.79985,2.62575 7.87485,2.85075 C7.94985,3 8.17485,3.22575 8.17485,3.3 C8.39985,3.675 8.09985,3.60075 8.77485,3.525 C8.62485,3.97575 8.99985,3.97575 8.99985,4.35075 C8.99985,4.425 8.84985,4.8 8.77485,4.875 C8.69985,4.95075 8.92485,5.025 8.84985,5.10075 C8.77485,5.25 8.47485,5.32575 8.32485,5.4 C8.47485,5.25075 9.07485,5.775 9.22485,6.07575 C9.37485,6.45075 9.14985,6.9 9.52485,7.275 C9.67485,7.425 9.89985,7.35075 9.82485,7.57575 C9.82485,7.72575 9.52485,7.8 9.44985,7.95075 C9.44985,8.025 9.37485,8.25075 9.29985,8.32575 C9.22485,8.4 9.14985,8.4 9.14985,8.62575 C9.07485,8.775 9.22485,8.925 9.22485,9.00075 C9.22485,9.07575 9.07485,9.22575 9.07485,9.3 C9.07485,9.3 9.14985,9.52575 9.14985,9.60075 C9.14985,9.60075 9.29985,9.82575 9.29985,9.90075 C9.29985,9.97575 9.14985,10.05 9.07485,10.12575 C9.07485,10.20075 9.14985,10.27575 9.14985,10.35075 C9.14985,10.50075 9.22485,10.65075 9.22485,10.72575 C9.22485,11.10075 9.22485,10.87575 9.07485,11.175 C8.92485,11.47575 8.69985,11.55 8.32485,11.925 C7.87485,12.37575 7.79985,12.3 7.12485,12.52575 L7.12485,12.675 C6.67485,12.675 6.74985,12.37575 6.97485,12.07575 C6.82485,12.15075 6.67485,12.37575 6.44985,12.37575 C6.52485,12.22575 6.74985,12.07575 6.82485,11.925 C6.89985,11.77575 6.89985,11.62575 6.97485,11.47575 C7.12485,11.175 7.34985,11.25075 7.34985,10.8 C7.49985,11.25075 7.27485,11.55 7.49985,11.925 C7.64985,11.32575 7.64985,11.175 8.02485,10.8 L7.94985,10.8 C7.87485,10.95075 7.79985,11.10075 7.79985,11.32575 C8.84985,11.10075 8.32485,9.675 7.87485,9.00075 C7.94985,9.07575 8.54985,9.00075 8.54985,8.925 C8.62485,8.70075 8.39985,8.32575 8.32485,8.10075 C8.09985,8.47575 7.72485,8.70075 7.49985,9.07575 C7.27485,9.37575 7.12485,9.37575 6.74985,9.675 C6.59985,9.82575 6.37485,10.20075 6.29985,10.425 C6.22485,10.72575 5.99985,10.72575 6.29985,10.8 C6.52485,10.87575 6.89985,10.65075 7.04985,10.50075 C6.97485,10.57575 6.07485,11.25075 6.07485,10.87575 C5.99985,10.50075 6.29985,10.05 6.44985,9.75075 C6.59985,9.45075 6.82485,9.37575 6.89985,9.07575 C7.04985,8.77575 6.97485,8.40075 7.12485,8.32575 C7.19985,8.62575 7.19985,8.925 7.12485,9.15075 C7.34985,8.925 7.49985,8.62575 7.64985,8.32575 C7.79985,8.10075 7.94985,8.175 7.72485,7.87575 C7.49985,7.57575 7.12485,7.05 7.34985,6.75075 C7.27485,6.82575 7.12485,7.425 7.04985,7.425 C6.82485,7.50075 6.07485,6.75075 5.99985,6.52575 C5.02485,6.52575 4.19985,6.75075 3.22485,6.60075 C2.09985,6.45075 1.04985,5.85075 -0.00015,5.40075 C0.07485,6.07575 -0.00015,6.82575 0.22485,7.50075 C0.44985,8.47575 1.04985,9.30075 1.42485,10.12575 C1.57485,10.35075 1.49985,10.57575 1.57485,10.80075 C1.72485,11.25075 1.94985,11.62575 2.09985,12.00075 C2.17485,12.37575 2.17485,12.67575 2.09985,13.05075 C2.39985,11.92575 2.77485,12.90075 3.44985,12.90075 C3.22485,13.05075 2.47485,13.12575 2.62485,13.50075 C2.54985,13.42575 2.39985,13.35075 2.24985,13.27575 C2.32485,13.35075 2.32485,13.87575 2.39985,13.9515 C2.62485,14.3265 3.29985,13.87575 3.37485,14.40075 C3.07485,14.40075 2.92485,14.62575 3.07485,14.85075 C2.99985,14.85075 2.92485,14.77575 2.92485,14.77575 C3.07485,14.92575 3.07485,15.15075 3.14985,15.30075 L2.99985,15.82575 C2.62485,16.50075 2.69985,15.00075 2.54985,14.77575 C2.47485,15.3 2.62485,15.97575 2.39985,16.50075 C3.52485,16.72575 4.64985,16.87575 5.77485,17.02575 C5.17485,17.175 4.49985,17.25075 3.82485,17.32575 C3.37485,17.40075 3.07485,17.02575 2.69985,16.80075 C3.07485,17.62575 2.69985,18.15075 2.77485,18.97575 C2.84985,19.35075 2.92485,19.50075 2.92485,19.9515 C2.92485,20.25075 2.84985,20.55075 2.77485,20.77575 C2.69985,21.0765 2.84985,21.30075 2.84985,21.4515 C2.84985,22.27575 2.62485,23.10075 2.47485,23.85075 C2.32485,24.4515 2.39985,25.2015 2.39985,25.87575 C2.32485,26.70075 2.32485,27.52575 2.24985,28.35075 C2.24985,28.65075 2.17485,28.9515 2.17485,29.25075 C2.09985,29.47575 2.09985,29.70075 2.09985,29.92575 C2.02485,30.52575 1.79985,30.97575 1.57485,31.50075 C1.72485,31.35075 1.79985,31.20075 1.87485,31.05075 C1.94985,31.20075 2.09985,31.35075 2.09985,31.57575 C2.02485,31.50075 1.94985,31.50075 1.87485,31.42575 C1.49985,32.10075 0.59985,33.52575 0.67485,34.27575 C0.67485,34.50075 0.82485,34.65075 0.97485,34.80075 C1.19985,35.17575 1.27485,35.17575 1.12485,35.77575 C1.04985,36.15075 1.04985,36.60075 1.12485,36.97575 C1.19985,37.5765 1.34985,38.02575 1.87485,38.47575 C2.09985,38.62575 1.94985,39.37575 1.94985,39.67575 C1.94985,40.57575 1.94985,41.55075 2.02485,42.45075 C2.02485,42.52575 2.02485,44.32575 1.94985,44.55075 C2.09985,44.40075 2.17485,44.17575 2.39985,44.25075 C2.17485,44.47575 1.87485,45.07575 1.72485,44.92575 C1.49985,45.37575 1.19985,45.97575 1.42485,46.42575 C1.57485,46.80075 2.54985,48.45075 2.84985,48.45075 L2.77485,48.45075 C2.99985,48.97575 3.67485,49.95075 3.67485,50.62575 C3.67485,50.77575 3.52485,51.07575 3.52485,51.22575 C3.44985,51.8265 3.74985,52.2015 3.89985,52.72575 C4.04985,53.3265 3.67485,53.47575 4.04985,54.00075 C4.87485,55.20075 5.69985,56.32575 6.52485,57.52575 C6.67485,57.75075 6.67485,57.97575 6.44985,58.20075 C6.82485,57.52575 7.34985,58.42575 7.72485,58.72575 L7.72485,58.57575 C7.87485,58.72575 8.69985,59.40075 8.47485,58.80075 C8.47485,58.80075 8.54985,58.87575 8.62485,58.87575 C8.54985,58.72575 8.47485,58.50075 8.47485,58.35075 C8.47485,58.50075 8.47485,57.8265 8.39985,57.97575 C8.47485,57.60075 8.54985,57.75075 8.69985,57.4515 C8.92485,57.52575 9.14985,57.8265 9.37485,57.90075 C9.74985,58.05075 9.67485,57.90075 9.97485,57.75075 C10.04985,57.75075 10.04985,57.52575 10.19985,57.52575 C10.34985,57.52575 10.57485,57.90075 10.72485,57.90075 C10.87485,57.90075 11.09985,57.90075 11.17485,57.75075 C11.09985,57.8265 11.02485,57.90075 11.02485,57.97575 C11.62485,57.75075 11.69985,57.67575 12.22485,58.12575 C11.99985,58.05075 11.62485,57.75075 11.47485,57.8265 C11.39985,57.90075 11.39985,58.05075 11.32485,58.05075 C11.17485,58.12575 11.17485,58.12575 10.79985,58.12575 C10.57485,58.12575 10.42485,57.97575 10.19985,57.97575 C10.04985,57.97575 9.82485,58.12575 9.67485,58.12575 C9.37485,58.12575 8.99985,57.97575 8.77485,58.27575 C8.39985,58.87575 9.67485,60.30075 9.82485,60.90075 C9.59985,60.67575 9.29985,60.52575 8.99985,60.30075 C8.84985,60.22575 8.69985,60.22575 8.69985,60.00075 C8.69985,59.85075 8.77485,59.32575 8.62485,59.25075 C8.09985,58.87575 8.09985,60.15075 8.09985,60.45075 C8.17485,60.82575 8.47485,61.20075 8.54985,61.65075 C8.62485,62.175 8.54985,62.175 9.14985,62.62575 C9.44985,62.85075 9.89985,63.07575 10.19985,63.30075 C10.27485,63.30075 10.34985,63.22575 10.49985,63.30075 C10.72485,63.52575 10.94985,64.42575 10.79985,64.72575 C10.64985,65.02575 10.42485,64.80075 10.34985,64.87575 C10.19985,65.10075 10.27485,65.32575 10.34985,65.62575 C10.42485,65.85075 10.42485,66.07575 10.49985,66.22575 C10.79985,67.05075 11.62485,67.87575 12.14985,68.55075 C12.74985,69.30075 13.27485,69.97575 13.94985,70.72575 C14.17485,71.02575 14.17485,71.17575 14.32485,71.3265 C14.39985,71.55075 14.32485,71.62575 14.54985,71.77575 C14.77485,72.00075 15.14985,72.30075 15.29985,72.67575 C15.29985,72.75075 15.22485,72.82575 15.22485,72.97575 C15.22485,73.2015 15.29985,73.50075 15.29985,73.80075 C15.29985,73.95075 15.22485,74.32575 15.29985,74.40075 C15.29985,74.55075 15.14985,74.7015 15.37485,74.77575 C15.82485,75.00075 16.34985,75.22575 16.72485,75.22575 C17.24985,75.30075 17.62485,75.37575 18.14985,75.52575 C18.59985,75.67575 18.97485,75.37575 19.49985,75.67575 C20.09985,75.97575 20.62485,76.42575 21.14985,76.80075 C21.44985,77.02575 21.74985,77.32575 22.04985,77.40075 C22.04985,77.40075 22.27485,77.3265 22.34985,77.25075 C22.49985,77.25075 22.94985,77.17575 23.02485,77.25075 C23.09985,77.55075 23.24985,78.37575 23.47485,78.52575 C23.62485,78.67575 23.92485,78.4515 24.14985,78.4515 C24.67485,78.4515 24.82485,78.75075 25.19985,79.12575 C25.57485,79.42575 25.94985,79.65075 26.32485,79.9515 C26.84985,80.47575 27.07485,80.85075 27.37485,81.60075 C27.67485,82.35075 27.89985,83.10075 28.19985,83.85075 C28.27485,83.92575 28.27485,84.00075 28.27485,84.0765 L28.57485,84.0765 L29.39985,84.0765 L29.47485,84.00075 L29.62485,83.92575 L30.67485,83.92575 L30.74985,83.85075 L30.89985,83.77575 L32.02485,83.77575 L32.02485,83.7015 L32.17485,83.62575 L33.37485,83.62575 L33.44985,83.55075 L33.59985,83.47575 L34.79985,83.47575 L34.87485,83.40075 L35.02485,83.3265 L36.22485,83.3265 L36.29985,83.25075 C36.29985,83.25075 36.37485,83.25075 36.37485,83.17575 L36.44985,83.17575 L37.49985,83.17575 C37.64985,83.17575 37.72485,83.25075 37.72485,83.40075 L37.72485,83.55075 L37.64985,83.7015 L37.57485,83.7015 L37.57485,83.77575 L37.49985,83.92575 L37.42485,84.00075 L37.42485,84.0765 L37.42485,84.22575 L37.49985,84.22575 L37.64985,84.30075 L37.64985,84.37575 L37.87485,84.37575 L38.02485,84.4515 L38.02485,84.52575 L38.17485,84.52575 L38.32485,84.60075 L38.39985,84.67575 L38.54985,84.67575 L38.69985,84.75075 L38.77485,84.82575 L38.92485,84.82575 L39.07485,84.90075 L39.22485,84.90075 L39.37485,84.97575 L39.44985,85.05 L39.59985,85.05 L39.74985,85.12575 L39.82485,85.20075 L39.97485,85.20075 L40.12485,85.27575 L40.19985,85.35075 L40.34985,85.35075 L40.49985,85.425 L40.49985,85.50075 L40.64985,85.50075 L40.79985,85.57575 L40.87485,85.65075 L41.0256,85.65075 L41.17485,85.72575 L41.17485,85.8 L41.32485,85.8 L41.47485,85.87575 L41.54985,85.95075 L41.69985,85.95075 L41.84985,86.025 L41.92485,86.10075 L41.99985,86.10075 L42.1506,86.175 L42.22485,86.25 L42.44985,86.25 L42.59985,86.32575 L42.59985,86.4 L42.74985,86.4 L42.9006,86.47575 L42.9006,86.55 L42.9756,86.55 L43.12485,86.625 L43.19985,86.70075 L43.3506,86.70075 L43.49985,86.775 L43.57485,86.85075 L43.79985,86.85075 L43.94985,86.925 L43.94985,87 L44.0256,87 L44.1756,87.07575 L44.24985,87.15 L44.4006,87.15 L44.5506,87.225 L44.62485,87.3 L44.7756,87.3 L44.9256,87.375 L44.99985,87.45 L45.1506,87.45 L45.3006,87.525 L45.37485,87.6 L45.44985,87.6 L45.6006,87.675 L45.6756,87.75 L45.9756,87.75 L46.1256,87.825 L46.1256,87.9 L46.2756,87.9 L46.4256,87.975 L46.4256,88.05 L46.5006,88.05 L46.6506,88.125 L46.7256,88.2 L46.8756,88.2 L47.0256,88.275 L47.1006,88.35 L47.2506,88.35 L47.4006,88.42425 L47.4756,88.5 L47.6256,88.5 L47.7756,88.575 L47.8506,88.64925 L48.0006,88.64925 L48.1506,88.725 L48.2256,88.79925 L48.3756,88.79925 L48.5256,88.875 L48.5256,88.95 L48.6006,88.95 L48.7506,89.02425 L48.8256,89.1 L48.9756,89.1 L49.1256,89.17425 L49.2006,89.25 L49.3506,89.25 L49.5006,89.325 L49.5756,89.39925 L49.7256,89.39925 C49.7256,89.39925 49.8006,89.39925 49.8006,89.475 L49.8756,89.475 L49.9506,89.54925 L50.1006,89.54925 L50.2506,89.62425 L50.2506,89.7 L50.4006,89.7 L50.5506,89.77425 L50.5506,89.84925 L50.6256,89.84925 L50.7756,89.92425 L50.8506,89.99925 L51.0006,89.99925 L51.1506,90.075 L51.2256,90.14925 L51.3756,90.14925 L51.5256,90.22425 L62.0256,90.22425 L62.0256,88.34925 L62.1006,88.2 L62.2506,88.12425 L68.5506,88.12425 C68.6256,88.12425 68.7006,88.2 68.7006,88.27425 L69.0006,88.27425 L69.1506,88.34925 L69.1506,88.42425 L69.2256,88.49925 L69.2256,88.575 L69.3006,88.575 L69.3756,88.79925 L69.3756,88.87425 L69.4506,89.02425 L69.4506,89.09925 L69.5256,89.24925 L69.6006,89.32425 C69.6006,89.32425 69.6006,89.39925 69.6756,89.39925 C69.6756,89.47425 69.7506,89.47425 69.7506,89.47425 L69.9006,89.5485 L69.9756,89.62425 L70.0506,89.69925 L70.0506,89.77425 L70.1256,89.77425 L70.2756,89.84925 L70.2756,89.9235 L70.4256,89.9235 L70.5756,89.99925 L70.6506,90.07425 L70.7256,90.14925 L70.7256,90.22425 L70.8006,90.2985 L70.8756,90.37425 L70.9506,90.37425 L71.0256,90.44925 L71.1756,90.5235 L71.2506,90.6735 L71.3256,90.7485 L71.3256,90.82425 L71.3256,90.8985 L71.4006,90.97425 L71.4756,91.0485 L71.5506,91.0485 L71.62485,91.1235 L71.69985,91.1235 L71.8506,91.19925 L71.8506,91.2735 L71.9256,91.34925 L71.9256,91.4235 L71.99985,91.4235 L72.1506,91.4985 L72.2256,91.6485 L72.2256,91.7985 L72.3006,91.7985 L72.44985,91.8735 L72.44985,91.9485 L72.5256,91.9485 L72.5256,92.0235 C72.6006,92.0235 72.6756,92.0985 72.6756,92.0985 L72.74985,92.0985 L72.9006,92.1735 L72.9756,92.3235 L73.12485,92.3985 L73.12485,92.4735 L73.19985,92.4735 L73.3506,92.5485 L73.3506,92.6235 L73.49985,92.6235 L73.6506,92.6985 L73.6506,92.7735 L73.7256,92.7735 L73.7256,92.8485 L73.79985,92.92275 L73.87485,92.9985 L73.94985,92.9985 L73.94985,93.0735 L74.09985,93.0735 C74.24985,93.0735 74.24985,93.2235 74.24985,93.29775 L74.24985,93.3735 L74.32485,93.3735 L74.4006,93.4485 L74.47485,93.4485 L74.47485,93.52275 L74.54985,93.52275 L74.62485,93.67275 L74.62485,93.7485 L74.69985,93.8235 L74.77485,93.9735 L74.77485,94.27275 L74.84985,94.3485 L74.92485,94.42275 L74.99985,94.5735 L75.07485,94.64775 L75.14985,94.79775 L75.29985,94.87275 L75.37485,95.02275 L75.37485,95.09775 L75.44985,95.09775 L75.52485,95.24775 L75.52485,95.77275 L75.44985,95.92275 L75.37485,95.99775 L75.44985,95.99775 L75.52485,96.14775 L75.52485,96.37275 L75.59985,96.4485 L75.67485,96.59775 L75.67485,96.67275 L75.74985,96.74775 L75.82485,96.89775 L75.82485,96.97275 L75.97485,97.12275 L76.04985,97.27275 L76.04985,97.422 L76.12485,97.49775 L76.27485,97.64775 L76.27485,97.72275 L76.34985,97.72275 L76.42485,97.87275 L76.57485,97.94775 L76.57485,98.022 L76.72485,98.022 L76.87485,98.09775 L76.87485,98.172 L76.94985,98.172 L77.09985,98.247 L77.09985,98.32275 L77.17485,98.397 L77.24985,98.622 L77.32485,98.69775 L77.39985,98.772 L77.47485,98.772 L77.62485,98.84775 L77.69985,98.922 L77.77485,98.922 L77.77485,98.997 L77.84985,99.07275 L77.84985,99.147 L77.99985,99.147 L78.14985,99.22275 L78.14985,99.297 L78.52485,99.297 L78.67485,99.372 L78.67485,99.44775 L78.74985,99.44775 L78.82485,99.522 L78.89985,99.597 L78.89985,99.672 C78.97485,99.672 78.97485,99.672 78.97485,99.747 L79.04985,99.747 L79.1241,99.747 L79.19985,99.747 L79.27485,99.747 L79.42485,99.822 L79.42485,99.897 L79.4991,99.897 L79.64985,99.972 L79.64985,100.047 L79.72485,100.122 L79.79985,100.272 L79.94985,100.272 L80.09985,100.347 L80.09985,100.422 L80.2491,100.422 C80.32485,100.422 80.39985,100.497 80.39985,100.572 L80.69985,100.572 L80.77485,100.572 L80.77485,100.497 L80.84985,100.347 L80.92485,100.272 L80.9991,100.197 L81.14985,100.122 L81.22485,99.972 L81.2991,99.972 L81.2991,99.897 L81.44985,99.747 C81.52485,99.672 81.52485,99.672 81.59985,99.672 L81.59985,99.447 L81.59985,99.372 L81.59985,99.222 C81.6741,99.147 81.6741,99.07275 81.82485,99.07275 L81.82485,98.997 C81.82485,98.922 81.82485,98.772 81.89985,98.772 L81.9741,98.69775 L81.9741,98.547 L82.0491,98.397 L82.1241,98.397 L82.1241,98.172 L82.19985,98.022 L82.27485,97.94775 L82.3491,97.872 L82.4241,97.872 L82.4991,97.797 L82.5741,97.797 L82.5741,97.57275 C82.5741,97.497 82.6491,97.34775 82.7991,97.34775 L83.0241,97.34775 L83.0991,97.272 C83.1741,97.19775 83.2491,97.19775 83.3241,97.19775 L83.6991,97.19775 L83.6991,97.047 L83.7741,96.897 L83.9241,96.82275 L83.9991,96.82275 L83.9991,96.747 L84.1491,96.672 L84.2241,96.672 L84.3741,96.747 L84.3741,96.82275 L84.4491,96.82275 L84.5241,96.82275 C84.5991,96.82275 84.6741,96.747 84.6741,96.82275 C84.7491,96.82275 84.7491,96.897 84.8241,96.97275 L84.8991,96.97275 L84.9741,97.047 L85.2741,97.047 L85.2741,96.97275 L85.4241,96.897 L85.5741,96.97275 L85.5741,97.047 L86.1741,97.047 C86.2491,97.047 86.3241,97.122 86.3241,97.19775 L86.6991,97.19775 L86.7741,97.122 L86.9241,97.047 L87.0741,97.047 L87.1491,97.122 L87.2991,97.047 L87.4491,97.122 L87.4491,97.19775 L87.5241,97.19775 L87.6741,97.272 L87.7491,97.422 L87.7491,97.497 L87.8241,97.497 L87.8991,97.647 L88.0491,97.722 L88.1241,97.797 L88.2741,97.797 C88.3491,97.797 88.3491,97.872 88.3491,97.947 L88.4241,98.022 L88.4991,98.172 L88.4991,98.247 L88.5741,98.247 L88.5741,98.322 L88.6491,98.397 L88.6491,98.472 L88.7991,98.472 L88.9491,98.547 L88.9491,98.622 C89.0241,98.697 89.0991,98.772 89.0991,98.847 L89.0991,98.997 L89.2491,99.072 L89.2491,99.147 L89.3241,99.147 C89.3991,99.147 89.4741,99.222 89.4741,99.297 L89.6241,99.372 L89.6241,99.447 L89.6991,99.447 L89.7741,99.52125 L89.9241,99.597 L89.9991,99.747 L89.9991,99.972 L90.0741,99.972 L90.0741,100.047 L90.1491,100.047 L90.1491,100.122 L90.2241,100.122 L90.3741,100.197 L90.3741,100.347 L90.3741,100.572 L90.4491,100.572 L90.5241,100.722 L90.5241,101.02125 C90.5991,101.097 90.6741,101.097 90.6741,101.247 L90.7491,101.322 L90.7491,101.39625 L90.8241,101.39625 L90.8991,101.547 L90.8991,101.622 L90.9741,101.622 L91.0491,101.77125 L91.0491,101.997 L91.12335,101.997 L91.12335,102.072 L91.1991,102.072 L91.2741,102.222 L91.2741,102.297 L91.3491,102.297 L91.4241,102.447 L91.4241,102.52125 L91.49835,102.52125 L91.49835,102.59625 L91.5741,102.59625 L91.7241,102.672 L91.79835,102.822 L91.7241,102.97125 L91.6491,102.97125 L91.6491,103.12125 L91.7241,103.12125 L91.79835,103.27125 L91.79835,103.34625 L91.87335,103.49625 L91.87335,103.72125 L91.9491,103.72125 L91.9491,103.797 L92.0241,103.797 L92.17335,103.87125 L92.24835,103.94625 L92.3241,104.02125 L92.3241,104.09625 L92.54835,104.09625 L92.6991,104.17125 L92.7741,104.32125 L92.7741,104.47125 L92.92335,104.54625 L92.99835,104.69625 L92.99835,104.84625 L93.1491,104.92125 L93.22335,105.07125 L93.22335,105.1455 L93.29835,105.1455 L93.29835,105.22125 L93.37335,105.22125 L93.44835,105.3705 L93.44835,105.7455 L93.44835,105.82125 L93.52335,105.82125 L93.67335,105.8955 L93.74835,105.97125 L93.82335,106.04625 L93.82335,106.1205 L93.89835,106.19625 L93.97335,106.34625 L94.04835,106.34625 L94.12335,106.34625 L94.27335,106.34625 L94.42335,106.42125 L94.42335,106.4955 L94.49835,106.4955 L94.64835,106.57125 L94.64835,106.6455 L94.72335,106.6455 L94.79835,106.8705 L94.79835,107.0205 L94.87335,107.17125 L94.87335,107.8455 C94.87335,107.92125 94.79835,107.92125 94.79835,107.9955 L94.87335,108.0705 L94.94835,108.2205 L94.94835,109.1205 L95.09835,109.1955 L95.17335,109.3455 L95.17335,109.42125 L95.24835,109.42125 L95.32335,109.4955 L95.39835,109.5705 L95.47335,109.7205 L95.47335,109.7955 L95.54835,109.7955 L95.62335,109.8705 L95.69835,109.8705 L95.77335,110.01975 L95.77335,110.0955 L95.84835,110.0955 L95.92335,110.2455 L95.92335,110.3205 L95.99835,110.4705 L95.99835,110.6955 L96.07335,110.6955 L96.14835,110.8455 L96.14835,110.9955 L96.07335,111.0705 L96.14835,111.14475 L96.29835,111.2205 L96.3726,111.36975 L96.3726,111.6705 L96.82335,111.6705 L96.97335,111.74475 L96.97335,111.8205 L97.27335,111.8205 L97.42335,111.89475 L97.42335,112.0455 L97.4976,112.0455 L97.57335,112.11975 L97.64835,112.1955 L97.64835,112.26975 C97.72335,112.26975 97.79835,112.34475 97.79835,112.4205 L97.8726,112.4205 L98.09835,112.4205 L98.17335,112.49475 L98.2476,112.4205 L98.39835,112.49475 L98.39835,112.5705 L98.6226,112.5705 L98.77335,112.64475 L98.84835,112.71975 L98.9976,112.7955 L98.9976,112.86975 L99.07335,112.86975 L99.07335,112.94475 L99.14835,112.94475 L99.2226,113.01975 L99.2976,113.09475 L99.3726,113.16975 L99.52335,113.16975 L99.5976,113.16975 C99.6726,113.16975 99.6726,113.09475 99.7476,113.16975 L99.82335,113.16975 L99.9726,113.16975 L100.1226,113.24475 L100.19835,113.31975 L101.1726,113.31975 L101.2476,113.31975 C101.32335,113.31975 101.39835,113.31975 101.4726,113.39475 L101.4726,113.31975 C101.5476,113.31975 101.6226,113.31975 101.69835,113.39475 L101.7726,113.46975 L101.9226,113.54475 L101.9226,113.61975 L101.9976,113.69475 L101.9976,113.76975 L102.0726,113.84475 L102.1476,113.91975 L102.2226,113.99475 L102.2226,114.06975 L102.2976,114.06975 L102.4476,114.144 L102.5226,114.21975 L102.5976,114.21975 L102.6726,114.06975 L102.8226,113.99475 L102.8976,113.99475 L102.8976,113.91975 L103.0476,113.84475 C102.8226,113.84475 102.8226,113.31975 102.6726,112.79475 C102.4476,111.89475 102.0726,110.99475 101.9226,110.01975 C101.9226,109.79475 101.9226,109.49475 101.9976,109.34475 C101.9226,109.49475 102.2226,109.11975 102.2226,109.11975 C102.2976,108.96975 102.3726,108.36975 102.4476,108.144 C101.9226,108.44475 101.7726,108.06975 101.1726,108.06975 C101.2476,107.84475 101.1726,107.54475 101.1726,107.31975 C101.3226,107.46975 101.5476,107.84475 101.6976,107.99475 C101.6226,107.84475 102.3726,108.06975 101.9976,108.06975 C102.0726,108.06975 102.2976,108.06975 102.3726,107.91975 C102.5226,107.76975 102.6726,107.31975 102.7476,107.01975 C102.8226,106.71975 103.0476,106.41975 102.9726,106.19475 C102.9726,106.11975 102.7476,106.19475 102.7476,106.11975 C102.4476,105.51975 102.5226,105.81975 102.0726,105.44475 C102.2976,105.51975 102.7476,105.36975 102.9726,105.44475 C103.2726,105.51975 103.0476,105.74475 103.3476,105.59475 C103.6476,105.44475 103.8726,104.69475 103.9476,104.39475 C103.7976,104.54475 103.5726,104.39475 103.4226,104.16975 C103.5726,104.31975 103.7976,104.16975 103.9476,104.01975 C103.9476,104.16975 104.0226,104.24475 104.0226,104.39475 C104.0976,104.16975 104.1726,104.01975 104.2476,103.79475 C104.2476,103.94475 104.2476,104.16975 104.1726,104.39475 C104.2476,104.09475 104.4726,102.81975 104.7726,102.81975 C104.8476,102.81975 105.0726,103.19475 105.0726,103.26975 C105.2976,103.49475 105.0726,103.49475 105.4476,103.49475 C105.5976,103.49475 106.1226,103.04475 106.2726,102.96975 C105.8226,102.74475 105.5226,102.29475 105.3726,101.69475 C105.7476,101.61975 105.5226,101.91975 105.7476,102.06975 C106.1226,102.36975 106.4976,102.21975 106.1226,101.54475 C106.3476,101.61975 106.2726,101.99475 106.4226,102.06975 C106.5726,102.06975 106.7976,101.84475 107.0226,101.84475 C106.7226,102.74475 107.3226,102.06975 107.7726,102.29475 C107.4726,102.44475 107.1726,102.59475 106.9476,102.81975 C107.4726,102.59475 108.2976,102.21975 108.7476,101.76975 C108.5226,101.91975 108.2226,101.99475 107.9226,101.91975 C108.5226,101.76975 108.9726,101.69475 109.4226,101.39475 C110.0226,101.01975 110.1726,100.49475 110.6226,99.89475 C110.9226,99.44475 110.8476,99.74475 110.9976,99.66975 C111.3726,99.44475 111.7476,99.06975 112.0476,98.76975 C111.8976,98.69475 111.8226,98.69475 111.7476,98.54475 L111.5976,98.61975 C111.5226,98.54475 111.7476,98.31975 111.6726,98.24475 C111.5976,98.16975 111.4476,98.24475 111.3726,98.16975 C111.2976,98.01975 111.4476,97.86975 111.4476,97.79475 C111.3726,97.64475 111.2226,97.41975 111.2226,97.26975 C111.3726,97.26975 111.5976,97.34475 111.6726,97.56975 C111.8226,97.41975 112.1226,96.89475 112.4226,97.04475 C112.5726,97.11975 112.5726,97.41975 112.4976,97.56975 C112.1976,98.16975 112.0476,98.09475 112.4976,98.09475 C112.7976,98.09475 113.0226,97.94475 113.3226,98.01975 C113.0976,98.16975 112.1976,98.46975 112.1976,98.76975 C112.1976,99.06975 112.5726,98.54475 112.5726,98.54475 C112.8726,98.39475 113.0976,98.24475 113.3976,98.09475 C113.6976,97.94475 113.9976,97.79475 114.2976,97.64475 C114.8226,97.41975 115.1976,97.41975 115.7226,97.26975 C115.4976,96.96975 115.7976,96.21975 115.9476,95.84475 C115.8726,96.29475 115.7976,96.74475 115.7976,97.19475 C116.3226,96.81975 116.8476,97.04475 117.4476,96.81975 C117.8226,96.74475 117.2976,96.59475 117.3726,96.51975 C117.3726,96.51975 117.2226,96.44475 117.2976,96.44475 C117.2976,96.36975 117.4476,96.36975 117.4476,96.36975 C117.4476,96.44475 117.5976,96.14475 117.5976,96.14475 C117.6726,95.99475 117.6726,95.61975 117.6726,95.46975 C117.8976,95.61975 117.7476,95.76975 117.8226,95.91975 C118.2726,96.59475 119.3226,96.81975 119.9226,97.19475 C120.5226,97.49475 121.1226,97.94475 121.7226,97.86975 C121.9476,97.79475 122.1726,97.71975 122.3976,97.71975 C122.3226,97.71975 121.9476,97.34475 121.9476,97.26975 C121.8726,96.96975 121.8726,97.26975 122.0976,97.04475 C122.3226,96.89475 122.9226,96.59475 123.2226,96.66975 C123.2976,96.66975 123.8976,96.96975 124.0476,97.04475 C124.0476,97.11975 124.0476,97.34475 124.1976,97.49475 C124.3476,97.644 125.1726,98.24475 125.3226,98.16975 C125.3976,98.09475 125.4726,97.71975 125.5476,97.64475 C125.6226,97.86975 125.3976,97.94475 125.3976,98.24475 C125.3976,98.54475 125.7726,98.69475 125.9226,98.84475 C126.3726,99.29475 127.0476,100.11975 127.6476,99.74475 C127.7976,99.66975 128.0226,99.29475 127.9476,99.14475 C128.3976,98.84475 128.9976,98.84475 129.2226,99.36975 C129.3726,99.66975 129.0726,100.04475 129.5226,99.89475 C130.1226,99.66975 129.5226,98.99475 130.0476,98.99475 C129.8976,98.76975 129.9726,98.76975 129.8976,98.54475 C129.8976,98.46975 130.0476,98.46975 129.8976,98.31975 C129.7476,98.09475 129.5226,98.16975 129.4476,97.71975 C129.6726,97.86975 130.9476,98.01975 130.7226,98.31975 C131.2476,98.69475 131.5476,98.91975 132.0726,99.21975 C131.9976,99.36975 132.1476,99.51975 132.2976,99.66975 C132.4476,99.89475 132.7476,99.29475 132.7476,99.74475 C132.7476,99.96975 132.3726,100.41975 132.2976,100.644 C132.5976,100.41975 132.9726,100.41975 133.2726,100.34475 C133.1226,100.04475 134.0226,99.59475 133.4226,99.66975 C133.6476,99.66975 133.7226,99.519 133.7226,99.44475 C133.5726,99.44475 133.4226,99.369 133.2726,99.21975 C133.6476,98.91975 132.5226,98.69475 132.3726,98.619 C132.4476,98.619 132.5226,98.54475 132.5226,98.54475 C132.2976,98.54475 131.9976,98.54475 131.7726,98.46975 C131.7726,98.46975 131.8476,98.46975 131.8476,98.394 C131.8476,98.244 131.7726,98.394 131.8476,98.16975 C131.4726,97.94475 131.3226,97.869 131.0976,97.56975 C131.3976,97.494 131.6976,97.494 131.9976,97.41975 C131.9976,97.34475 131.9226,97.269 131.8476,97.269 L131.9226,97.269 C131.8476,97.269 131.5476,97.269 131.6226,97.119 C131.6976,96.81975 132.2976,96.894 132.5976,96.744 C132.5226,96.519 132.5226,96.519 132.5976,96.369 L132.3726,96.369 C132.3726,96.29475 132.4476,96.29475 132.4476,96.21975 L132.2976,96.21975 C132.6726,96.06975 132.1476,95.91975 132.0726,95.46975 C132.0726,95.769 131.8476,95.619 131.7726,95.84475 C131.4726,96.369 131.6976,96.369 131.2476,96.21975 C131.1726,96.144 130.7226,96.06975 130.7976,95.84475 C130.7976,95.69475 131.3226,95.619 131.3976,95.394 C131.0226,95.31975 128.6976,95.84475 128.6226,95.16975 C128.5476,94.644 130.1976,94.269 130.5726,94.41975 C130.9476,94.56975 131.8476,95.09475 132.1476,94.79475 C132.4476,94.41975 132.6726,94.119 133.1226,94.04475 C133.6476,93.96975 134.0976,93.81975 134.6226,93.894 C135.4476,93.96975 136.3476,94.19475 137.0976,94.269 C137.3226,94.34475 137.4726,93.06975 137.5476,92.769 C137.5476,92.69475 137.6226,92.54475 137.6976,92.46975 C137.7726,92.769 137.9226,92.69475 138.0726,92.994 C138.1476,93.21975 137.9976,93.44475 137.9976,93.59475 C138.0726,93.81975 138.2976,93.744 138.3726,93.96975 C138.4476,94.119 138.4476,94.41975 138.6726,94.644 C138.8226,94.86975 139.2726,94.644 139.3476,94.41975 L139.1976,94.41975 C139.6476,94.34475 139.7226,94.119 139.8726,93.59475 C139.7976,93.96975 139.6476,94.19475 139.5726,94.494 C139.8726,94.34475 140.3226,94.19475 140.6226,93.894 C140.8476,93.59475 140.6976,93.44475 140.8476,93.144 C140.9226,93.29475 141.0726,93.369 141.0726,93.519 C141.4476,92.769 141.5976,93.144 141.8226,93.81975 C141.6726,93.744 140.9976,94.119 140.7726,94.19475 C142.0476,93.894 143.3976,93.744 144.6726,93.59475 C144.6726,93.81975 144.6726,93.744 144.7476,93.96975 C144.5976,93.96975 144.3726,93.894 144.2226,93.894 L144.2976,93.96975 C143.6226,93.744 144.2976,94.269 144.5226,94.34475 C144.6726,94.41975 146.0226,95.31975 146.1726,95.244 C146.3976,95.09475 145.8726,94.79475 145.7226,94.79475 C145.9476,94.71975 146.6976,94.41975 146.7726,94.56975 C146.6976,94.644 146.3226,94.79475 146.3226,94.869 C146.3226,94.94475 147.2226,95.619 147.3726,95.769 C147.1476,95.69475 146.2476,95.09475 146.3976,95.46975 C146.4726,95.619 146.6976,95.769 146.8476,95.84475 L146.7726,95.84475 C146.9226,96.06975 147.2976,96.144 147.4476,96.369 C147.5226,96.44475 147.5976,96.519 147.5976,96.66975 C147.9726,97.269 147.9726,97.41975 148.4226,97.19475 C148.2726,97.269 148.1976,97.344 148.0476,97.41975 C149.1726,96.96975 150.3726,96.44475 151.4976,95.994 C152.0226,95.769 152.2476,95.54475 152.7726,95.769 C153.1476,95.91975 153.5976,96.219 153.8976,96.594 C154.1976,96.894 154.1976,97.19475 154.4976,97.494 C154.7976,97.719 154.6476,97.644 154.7976,97.944 C154.8726,98.094 154.7976,98.16975 155.0226,98.469 C155.5476,98.994 156.3726,99.29475 156.8976,99.819 C157.1226,100.04475 157.7976,101.244 157.6476,101.54475 C157.4226,101.54475 157.6476,101.694 157.6476,101.91975 C157.6476,102.069 157.5726,102.219 157.5726,102.369 C157.5726,102.744 157.4976,103.04475 157.4226,103.41975 C157.3476,103.79475 157.1226,104.094 157.0476,104.394 C156.9726,104.69475 157.1226,104.994 157.0476,105.29475 C157.0476,105.444 156.8976,105.519 156.8976,105.594 C156.8976,105.969 157.1226,106.41975 157.3476,106.79475 C157.3476,106.719 157.2726,106.569 157.2726,106.494 C157.6476,106.79475 157.6476,106.569 157.7226,106.344 C157.8726,105.894 157.7226,105.81975 157.4226,105.519 C158.0226,105.81975 158.1726,106.269 158.5476,105.594 C158.8476,106.344 157.8726,106.79475 157.9476,107.469 C157.8726,107.469 157.7976,107.469 157.7226,107.394 C157.7976,107.69475 158.0226,107.91975 158.0976,108.219 C158.3226,109.19475 158.9976,109.94475 159.5976,110.69475 C159.5976,110.619 159.5226,110.244 159.5226,110.244 C159.5976,110.019 159.8226,109.94475 160.1976,109.79475 C160.1976,109.79475 160.0476,110.09475 160.0476,109.94475 C160.0476,109.94475 159.9726,109.94475 159.8976,110.019 C159.8976,110.094 159.9726,110.244 159.9726,110.31975 C159.8976,110.844 159.8976,111.369 160.0476,111.894 C160.4226,111.894 160.4976,111.219 161.0226,111.06975 C160.7226,111.369 160.5726,111.594 160.3476,112.04475 C161.0226,112.119 161.0226,114.21975 161.1726,114.66975 C161.2476,114.66975 161.3976,114.519 161.4726,114.59475 C161.9226,114.81975 162.5976,115.71975 162.9726,116.244 C163.1976,116.46975 164.4726,117.66975 164.0226,117.81975 C163.9476,117.894 163.6476,117.519 163.4976,117.44475 C163.4226,117.66975 163.4226,117.969 163.4976,118.19475 C163.7226,118.19475 163.8726,118.119 164.0976,118.04475 C164.1726,118.04475 164.2476,117.894 164.3226,117.894 C164.3976,117.894 164.5476,117.96975 164.6976,118.04475 C164.9226,118.04475 164.9976,117.96975 165.1476,117.894 C165.4476,117.66975 165.4476,117.66975 165.8976,117.96975 C165.8226,117.894 165.8226,117.81975 165.7476,117.81975 C165.8226,117.81975 165.9726,117.894 166.1226,117.96975 C165.9726,117.81975 166.0476,117.744 166.1226,117.59475 C166.3476,117.06975 166.6476,116.619 166.8726,116.09475 C167.3976,114.59475 167.3976,113.019 167.4726,111.44475 C167.5476,110.394 167.4726,109.19475 166.4976,108.744 C166.6476,108.81975 166.7976,108.894 166.9476,108.96975 C166.4976,108.21975 166.4226,107.394 166.1226,106.644 C165.8226,105.96975 165.5226,105.369 165.2226,104.619 C164.9226,103.71975 164.6976,102.66975 164.3976,101.69475 C164.6226,101.769 164.6976,103.04475 165.0726,102.519 C165.1476,103.119 165.1476,103.71975 165.2226,104.394 C165.7476,102.96975 165.2976,102.66975 164.6976,101.54475 C164.3976,100.94475 164.0226,100.34475 163.7226,99.66975 C163.4976,99.144 163.3476,98.69475 163.1226,98.16975 C162.8226,97.41975 162.6726,96.519 162.4476,95.769 C162.2226,95.019 161.8476,94.119 161.8476,93.29475 C161.8476,92.619 161.6226,91.494 161.9226,90.894 C161.9976,90.66975 162.0726,90.44475 162.2226,90.66975 C163.1976,90.21975 162.3726,90.144 161.9226,89.84475 C161.9976,89.84475 162.2226,89.994 162.2226,89.994 C162.3726,89.84475 162.3726,89.69475 162.4476,89.54475 C162.5976,89.394 162.8226,89.244 162.9726,89.09475 C162.8976,89.16975 162.7476,89.16975 162.5976,89.244 C162.6726,88.869 162.8226,88.34475 162.6726,88.04475 C162.8226,88.04475 163.0476,88.269 163.1976,88.19475 C163.4226,88.119 163.7226,87.369 163.7976,87.21975 C164.0226,86.84475 164.8476,86.16975 164.8476,85.79475 C164.8476,85.644 164.6226,85.71975 164.6226,85.71975 C164.4726,85.34475 164.2476,84.81975 164.2476,84.44475 C164.3226,84.44475 164.4726,84.59475 164.4726,84.59475 C164.1726,85.41975 165.2226,84.29475 164.9226,85.19475 L164.9976,85.19475 C164.9976,85.19475 164.9226,85.34475 164.9976,85.34475 C165.2976,85.34475 165.8226,85.41975 165.8226,85.04475 C165.8226,85.119 165.7476,85.119 165.6726,85.19475 C165.8226,84.594 165.2226,84.744 164.9226,84.519 C165.0726,84.519 165.2976,84.44475 165.4476,84.44475 C165.5226,84.44475 165.5976,84.594 165.7476,84.594 C165.9726,84.594 166.2726,84.219 166.4976,84.06975 C166.6476,83.994 167.1726,83.994 167.3226,83.994 C167.4726,83.994 167.4726,83.91975 167.5476,83.769 L167.5476,83.91975 C167.62185,83.619 167.6976,83.244 167.7726,82.944 C168.1476,83.319 167.99685,83.394 168.37185,83.244 C168.8226,83.094 169.1976,82.494 169.6476,82.194 C169.87185,82.04475 170.8476,81.66975 170.4726,81.219 C170.3226,80.994 170.0976,80.844 170.3226,80.54475 C170.5476,80.694 170.62185,80.994 170.62185,81.219 C170.8476,80.394 170.9226,79.944 171.5226,79.344 C171.9726,78.894 172.4226,78.519 172.87185,78.144 C173.24685,77.844 174.2226,78.069 174.6726,77.994 C175.4226,77.994 175.2726,77.244 175.2726,76.644 C175.4226,77.019 175.3476,77.394 175.4226,77.844 C175.49685,77.619 175.49685,77.394 175.5726,77.16975 C175.8726,76.41975 176.6976,75.819 177.2226,75.29475 C176.9976,75.444 176.7726,75.594 176.5476,75.744 C176.7726,75.444 177.8226,74.994 177.37185,74.769 C177.6726,74.469 177.4476,74.244 177.2976,73.944 C177.37185,73.944 177.5226,74.16975 177.5226,74.16975 C177.6726,74.16975 178.1976,73.869 178.4226,73.944 C178.7976,74.019 178.4226,74.244 178.87185,74.16975 C179.1726,74.16975 179.62185,73.869 179.99685,73.79475 C180.4476,73.644 181.3476,73.494 181.6476,73.04475 C181.9476,72.66975 181.1976,73.04475 181.12185,73.04475 C181.4226,72.369 180.8226,72.969 180.6726,72.969 C180.5976,72.969 180.5226,72.819 180.37185,72.819 C180.2226,72.819 180.0726,73.04475 179.9226,73.119 C179.3976,73.194 178.9476,72.444 178.7976,71.994 C179.0976,72.369 179.3226,72.594 179.7726,72.444 C180.2976,72.29475 181.4226,71.769 180.8226,71.244 C180.1476,70.644 179.3226,70.869 178.8726,70.194 C179.3976,70.569 179.9976,70.644 180.5976,70.79475 C180.5226,70.569 180.5226,70.194 180.5976,70.119 C180.7476,69.969 180.5976,70.41975 180.5976,70.344 C180.6726,70.494 180.7476,70.644 180.8226,70.719 C181.0476,70.56975 181.3476,70.41975 181.2726,70.79475 C182.0976,70.79475 184.12185,70.119 183.8226,68.844 C183.6726,68.394 183.4476,68.31975 183.0726,68.394 C182.6976,68.469 182.7726,69.29475 182.6226,69.66975 C182.5476,69.369 182.4726,68.694 182.6976,68.319 L182.6226,68.319 C182.7726,67.944 182.3226,67.944 182.0976,68.019 C181.9476,68.094 181.8726,68.319 181.7226,68.394 C181.6476,68.394 181.4976,68.319 181.3476,68.319 C181.4226,68.019 180.4476,68.319 180.0726,68.244 C180.2976,67.944 179.9976,67.79475 179.9976,67.41975 C179.9976,67.269 180.1476,66.144 180.2226,66.519 C180.2976,66.744 180.0726,66.744 180.0726,66.969 C180.0726,68.094 180.7476,68.019 181.5726,67.494 C181.3476,67.41975 181.1976,67.269 181.0476,67.04475 C181.3476,67.269 181.5726,67.41975 181.9476,67.494 C181.7976,67.344 181.7226,67.194 181.6476,67.04475 C181.87185,67.344 182.1726,67.344 182.4726,67.269 C182.3226,67.04475 182.0226,66.744 181.9476,66.519 C182.0976,66.744 182.6976,67.19475 182.99685,67.269 C182.7726,67.119 182.8476,66.81975 182.6976,66.594 C182.99685,66.81975 183.0726,67.494 183.4476,67.719 C183.1476,66.81975 182.6976,66.29475 182.5476,65.469 C182.9226,65.54475 182.8476,65.019 182.9226,64.644 C183.0726,65.094 183.1476,65.619 183.2976,65.994 C183.2226,65.46975 182.99685,63.96975 182.62185,63.59475 C182.5476,63.519 182.0976,63.66975 182.0226,63.59475 C181.6476,63.369 181.7226,63.519 181.49685,63.59475 C181.5726,63.59475 181.49685,63.744 181.49685,63.744 C181.3476,63.81975 180.9726,63.81975 180.74685,63.81975 C181.12185,63.519 180.37185,62.54475 180.1476,62.244 C180.37185,62.394 180.5976,62.619 180.74685,62.769 C180.9726,63.06975 181.12185,63.44475 181.49685,63.144 C181.49685,62.619 181.4226,62.244 181.12185,61.869 L181.12185,61.79475 L181.1976,61.869 C181.12185,61.869 181.12185,61.79475 181.12185,61.79475 C181.0476,61.79475 181.0476,61.71975 181.0476,61.71975 C181.2726,61.869 181.4226,61.94475 181.4226,61.71975 C181.7226,61.71975 181.7976,61.71975 181.9476,61.494 C182.24685,60.894 181.49685,60.519 181.12185,60.144 C181.0476,60.144 181.0476,60.06975 180.9726,60.06975 C181.12185,59.54475 181.0476,60.06975 181.1976,60.06975 C181.2726,60.06975 181.2726,60.144 181.3476,60.144 C181.5726,60.144 181.7976,59.54475 181.87185,59.244 C182.0226,58.71975 182.0226,59.019 181.7976,58.71975 C181.49685,58.34475 180.5976,57.894 180.2226,57.744 C179.9226,57.66975 179.5476,57.59475 179.3226,57.369 C179.1726,57.21975 179.0226,56.91975 178.8726,56.69475 C178.7226,56.469 178.7226,56.69475 178.5726,56.69475 C178.4226,56.69475 178.2726,56.844 178.0476,56.69475 L177.8976,56.69475 C178.2726,55.79475 179.0976,54.969 178.9476,53.994 C179.2476,54.744 178.7226,55.34475 178.4976,56.019 C178.3476,56.244 178.1976,56.469 178.4226,56.619 C178.6476,56.769 178.7976,56.394 178.7226,56.244 C178.7976,56.46975 179.0226,56.394 179.0976,56.16975 C179.1726,56.31975 179.3226,56.84475 179.5476,56.91975 C179.6976,56.994 179.8476,56.619 179.9226,56.619 C180.1476,56.769 180.3726,56.994 180.5976,57.21975 C180.9726,57.519 181.4226,57.894 181.7976,58.119 C181.7226,57.894 181.6476,57.59475 181.5726,57.369 L181.5726,56.91975 C181.4976,56.84475 181.3476,56.994 181.2726,56.91975 C180.6726,56.394 180.5226,56.09475 180.4476,55.119 C180.5226,56.019 180.6726,56.244 181.5726,56.54475 C181.4226,56.09475 181.1226,55.94475 181.0476,55.494 C181.0476,55.269 181.0476,54.894 181.1226,54.66975 C181.3476,53.69475 181.3476,53.91975 180.8976,53.09475 C181.0476,53.244 181.1976,53.46975 181.3476,53.46975 C181.1226,53.019 180.8976,52.644 180.6726,52.19475 C181.12185,52.19475 181.1976,51.81975 181.5726,51.519 C181.7976,51.369 181.7226,51.59475 181.9476,51.29475 C182.0976,51.06975 182.0976,51.144 182.0976,51.369 C182.4726,51.144 182.8476,50.769 183.1476,50.46975 C183.8976,50.69475 183.1476,50.769 183.3726,51.06975 C183.2226,51.06975 182.8476,51.21975 182.8476,51.369 C182.7726,51.59475 183.2976,51.519 183.4476,51.59475 C182.9226,51.66975 182.4726,51.519 182.1726,51.894 C182.0226,52.119 181.9476,52.41975 181.87185,52.644 C182.0976,52.71975 182.3976,52.71975 182.62185,52.71975 C182.3976,52.869 182.3976,53.09475 182.24685,53.31975 C182.1726,53.54475 181.7226,53.09475 181.6476,53.31975 C181.5726,53.54475 181.49685,53.84475 181.49685,54.06975 C181.49685,53.91975 181.7226,53.619 181.87185,53.619 C182.0226,53.619 182.4726,54.21975 182.3976,54.369 C182.3976,54.519 182.0226,54.59475 181.9476,54.66975 C182.1726,55.119 182.4726,55.119 182.9226,55.34475 C182.6976,55.56975 182.5476,55.34475 182.3976,55.34475 C182.0976,55.34475 182.24685,55.119 181.87185,55.41975 C181.6476,55.644 182.1726,55.56975 182.1726,55.494 C182.0976,55.644 181.5726,55.79475 181.6476,56.019 C181.7976,56.244 181.87185,56.46975 182.0226,56.69475 C182.0226,56.619 182.0226,56.46975 181.9476,56.31975 C182.3226,56.54475 182.7726,57.59475 182.6976,56.619 C182.7726,56.769 182.8476,56.84475 182.9226,56.994 C182.99685,56.69475 183.0726,56.46975 183.37185,56.31975 C183.37185,56.54475 183.5226,56.84475 183.4476,57.06975 C183.37185,57.21975 183.1476,57.44475 183.0726,57.66975 C183.2226,57.44475 183.4476,57.894 183.74685,57.81975 C183.5976,57.96975 183.1476,58.494 183.2976,58.644 C183.2226,58.56975 184.12185,58.494 184.12185,58.494 C183.5976,59.54475 182.99685,60.44475 182.7726,61.644 C182.6976,61.94475 182.7726,62.54475 183.2226,62.31975 C183.4476,62.244 183.2976,61.494 183.4476,61.269 C183.5976,60.894 184.0476,60.81975 184.2726,60.519 C184.3476,60.369 184.2726,60.21975 184.4226,59.994 C184.49685,59.69475 184.6476,59.394 184.7976,59.16975 C185.0226,58.644 185.1726,58.19475 185.4726,57.744 C185.6976,57.29475 185.99685,56.31975 186.37185,56.09475 L186.37185,56.69475 C186.4476,56.24475 186.4476,55.71975 186.37185,55.269 C186.2976,55.49475 186.0726,55.49475 185.8476,55.34475 C186.1476,55.19475 186.2226,54.66975 186.2976,54.369 C185.3226,53.91975 185.0226,52.269 184.6476,51.29475 C184.49685,50.994 184.2726,50.769 184.3476,50.394 C184.5726,49.41975 185.7726,48.894 186.37185,48.44475 L186.2976,48.44475 C186.37185,48.44475 186.4476,48.44475 186.4476,48.36975 C185.9226,48.81975 185.0976,49.19475 184.7226,49.86975 C184.12185,50.99475 185.0976,51.44475 185.7726,52.11975 C186.1476,52.41975 186.8976,52.269 186.9726,52.71975 C187.0476,52.94475 186.74685,53.39475 186.74685,53.76975 C186.9726,53.69475 187.7976,53.09475 187.49685,52.79475 C187.7226,52.71975 187.87185,52.26975 188.0976,52.04475 C188.0226,52.04475 187.9476,51.96975 187.9476,51.96975 C188.0976,51.81975 189.0726,51.59475 188.5476,51.36975 C188.7726,51.144 189.0726,50.99475 189.2226,50.769 C189.2976,50.69475 189.37185,50.31975 189.5226,50.16975 C189.8226,49.79475 189.5976,49.869 189.6726,49.494 C189.74685,49.34475 189.8226,49.19475 189.8226,49.119 C189.8976,48.81975 189.8976,48.519 190.1226,48.144 C190.1976,48.59475 189.9726,49.04475 190.0476,49.494 C190.1976,48.744 190.1976,47.994 190.3476,47.31975 C190.4226,46.94475 190.4976,46.56975 190.3476,46.34475 C190.1226,46.119 189.3726,46.269 189.2976,46.04475 C189.2226,45.744 190.1976,44.91975 190.3476,44.46975 C190.4226,44.394 190.4226,44.244 190.4226,44.16975 L190.4226,44.31975 C190.7226,43.494 190.6476,43.04475 190.5726,42.144 L190.5726,41.91975 L190.5726,42.06975 L190.5726,41.91975 L190.5726,41.994 C190.5726,42.369 190.6476,42.744 190.7226,43.19475 C190.7976,43.79475 190.4226,44.31975 190.4226,44.91975 C190.3476,45.06975 190.2726,45.21975 190.2726,45.29475 L191.0226,45.29475 L191.1726,45.29475 C191.6226,45.29475 192.0726,45.21975 192.5226,45.144 C192.6726,45.06975 192.8226,45.06975 193.0476,44.994 C193.1976,44.994 193.4226,44.91975 193.5726,44.91975 C193.8726,44.84475 194.3976,44.769 194.6976,44.69475 C194.8476,44.619 194.9976,44.54475 195.1476,44.46975 L195.2226,44.46975 C195.3726,44.394 195.5976,44.46975 195.8226,44.394 C195.8976,44.31975 195.9726,44.31975 195.9726,44.244 C196.0476,44.16975 196.1226,44.16975 196.1976,44.16975 L196.3476,44.16975 C196.4976,44.09475 196.7226,44.019 196.8726,43.94475 C197.3226,43.71975 197.8476,43.41975 198.3726,43.19475 C197.6226,43.269 196.9476,43.34475 196.2726,43.34475 C196.4226,43.19475 196.6476,42.894 196.9476,42.744 C196.1226,42.894 195.2976,43.34475 194.4726,43.644 C194.0226,43.719 193.7226,43.719 193.2726,43.869 C192.8976,43.94475 191.5476,43.56975 191.6976,44.46975 C191.6226,44.31975 191.5476,44.244 191.5476,44.244 C191.4726,44.16975 191.4726,44.244 191.3976,44.394 L191.3226,44.394 C191.2476,44.394 191.2476,44.54475 191.1726,44.54475 C191.0226,44.54475 190.7976,44.469 190.6476,44.619 C190.5726,44.694 190.4976,44.844 190.4226,44.994 C190.4976,44.844 190.5726,44.619 190.6476,44.54475 C190.7226,44.469 190.8726,44.469 190.9476,44.469 C191.2476,44.469 191.0226,44.394 191.0226,44.31975 C191.3226,44.019 191.5476,43.644 191.9226,43.41975 C192.7476,42.96975 193.5726,42.519 194.4726,42.06975 C194.9226,42.369 196.0476,41.769 196.6476,41.844 C197.6226,41.91975 198.7476,42.06975 199.7226,41.69475 C200.0976,41.54475 200.0976,39.81975 200.0976,39.44475 C200.3226,40.119 200.7726,39.81975 201.1476,39.594 C200.8476,40.19475 200.8476,40.269 201.0726,40.94475 C201.4476,40.644 202.1976,39.81975 202.6476,39.81975 C202.9476,39.81975 202.9476,39.894 202.7976,40.04475 C203.3976,40.119 205.2726,40.41975 205.4976,39.894 C205.5726,39.744 205.4976,39.29475 205.4226,39.144 C205.3476,38.769 205.1226,38.244 204.8226,38.09475 C204.8226,38.09475 204.2226,37.94475 204.2976,38.09475 C204.4476,38.244 204.6726,38.019 204.7476,38.16975 C204.8976,38.31975 204.8976,38.46975 204.9726,38.69475 C205.3476,39.369 205.2726,39.594 204.5226,39.744 C204.2226,39.81975 203.8476,39.894 203.4726,39.66975 C203.1726,39.369 203.1726,38.69475 203.0226,38.31975 C202.8726,38.019 202.6476,37.494 202.4976,37.269 C201.9726,36.744 201.8976,37.56975 201.3726,36.594 C201.6726,36.519 201.8976,35.844 202.2726,35.619 C202.5726,35.469 203.3976,35.319 202.9476,34.944 C202.8726,35.319 202.6476,35.16975 202.4976,35.019 C202.0476,34.344 202.1976,33.29475 202.6476,32.769 C203.2476,32.019 204.2976,31.119 204.5226,30.144 C204.6726,29.394 204.7476,29.394 205.2726,28.944 C205.2726,28.944 205.2726,29.019 205.1976,29.094 C205.7226,28.869 205.7226,28.869 206.0226,29.54475 C205.9476,29.244 205.8726,28.79475 205.9476,28.344 L205.9476,28.494 L205.9476,28.269 C205.9476,28.644 206.0226,29.019 206.1726,29.394 C206.3226,29.019 206.3226,28.569 206.4726,28.194 C206.3226,28.494 206.39835,28.944 206.6976,29.094 C206.7726,28.869 206.7726,28.719 206.7726,28.494 L206.7726,28.569 L206.7726,28.494 C206.7726,28.569 206.7726,28.569 206.8476,28.569 C207.2226,28.494 207.2976,28.194 207.5226,27.894 L207.5226,28.269 C207.8976,28.269 208.5726,28.269 208.6476,27.744 C208.2726,27.744 209.0976,26.394 209.2476,26.16975 C209.3226,26.019 209.8476,24.819 209.8476,25.494 C209.8476,25.644 209.6976,25.944 209.6226,26.019 C209.6976,25.944 209.8476,25.944 209.9226,25.944 C209.7726,26.094 209.6226,26.319 209.5476,26.54475 C209.7726,26.319 210.3726,26.844 210.6726,26.91975 C210.5226,26.469 210.6726,25.944 210.9726,25.644 C211.1976,25.494 211.8726,25.344 211.8726,25.644 C212.2476,25.494 212.1726,26.019 212.39835,26.394 C212.5476,26.16975 212.5476,25.869 212.6976,25.644 C212.77335,25.79475 212.8476,26.019 212.9976,26.094 C213.0726,25.79475 213.2226,25.344 213.4476,25.119 C213.8226,25.41975 214.4976,24.519 215.02335,24.66975 C215.2476,24.744 215.3226,25.119 215.5476,24.894 C215.77335,24.66975 216.0726,24.444 216.2976,24.219 L216.59985,24.6 Z" id="Fill-1" fill="#B7B7B7" mask="url(#mask-2)"></path>
                </g>
                <g id="Group" transform="translate(0.000000, 6.000000)" fill="#280C60" opacity="0.746651786">
                    <path d="M10.75,43 C14.47825,43 17.5,46.02175 17.5,49.75 C17.5,53.47825 14.47825,56.5 10.75,56.5 C7.0225,56.5 4,53.47825 4,49.75 C4,46.02175 7.0225,43 10.75,43" id="Fill-4"></path>
                    <path d="M6.75,0 C10.47825,0 13.5,3.02175 13.5,6.75 C13.5,10.47825 10.47825,13.5 6.75,13.5 C3.0225,13.5 0,10.47825 0,6.75 C0,3.02175 3.0225,0 6.75,0" id="Fill-4-Copy"></path>
                    <path d="M71.75,70 C75.47825,70 78.5,73.02175 78.5,76.75 C78.5,80.47825 75.47825,83.5 71.75,83.5 C68.0225,83.5 65,80.47825 65,76.75 C65,73.02175 68.0225,70 71.75,70" id="Fill-4-Copy-2"></path>
                    <path d="M107.75,27 C111.47825,27 114.5,30.02175 114.5,33.75 C114.5,37.47825 111.47825,40.5 107.75,40.5 C104.0225,40.5 101,37.47825 101,33.75 C101,30.02175 104.0225,27 107.75,27" id="Fill-4-Copy-3"></path>
                    <path d="M117.75,7 C121.47825,7 124.5,10.02175 124.5,13.75 C124.5,17.47825 121.47825,20.5 117.75,20.5 C114.0225,20.5 111,17.47825 111,13.75 C111,10.02175 114.0225,7 117.75,7" id="Fill-4-Copy-4"></path>
                    <path d="M149.75,16 C153.47825,16 156.5,19.02175 156.5,22.75 C156.5,26.47825 153.47825,29.5 149.75,29.5 C146.0225,29.5 143,26.47825 143,22.75 C143,19.02175 146.0225,16 149.75,16" id="Fill-4-Copy-5"></path>
                    <path d="M139.75,23 C143.47825,23 146.5,26.02175 146.5,29.75 C146.5,33.47825 143.47825,36.5 139.75,36.5 C136.0225,36.5 133,33.47825 133,29.75 C133,26.02175 136.0225,23 139.75,23" id="Fill-4-Copy-6"></path>
                    <path d="M183.75,43 C187.47825,43 190.5,46.02175 190.5,49.75 C190.5,53.47825 187.47825,56.5 183.75,56.5 C180.0225,56.5 177,53.47825 177,49.75 C177,46.02175 180.0225,43 183.75,43" id="Fill-4-Copy-7"></path>
                    <path d="M190.75,38 C194.47825,38 197.5,41.02175 197.5,44.75 C197.5,48.47825 194.47825,51.5 190.75,51.5 C187.0225,51.5 184,48.47825 184,44.75 C184,41.02175 187.0225,38 190.75,38" id="Fill-4-Copy-8"></path>
                    <path d="M190.75,34 C194.47825,34 197.5,37.02175 197.5,40.75 C197.5,44.47825 194.47825,47.5 190.75,47.5 C187.0225,47.5 184,44.47825 184,40.75 C184,37.02175 187.0225,34 190.75,34" id="Fill-4-Copy-9"></path>
                    <path d="M166.75,83 C170.47825,83 173.5,86.02175 173.5,89.75 C173.5,93.47825 170.47825,96.5 166.75,96.5 C163.0225,96.5 160,93.47825 160,89.75 C160,86.02175 163.0225,83 166.75,83" id="Fill-4-Copy-10"></path>
                    <path d="M168.75,94 C172.47825,94 175.5,97.02175 175.5,100.75 C175.5,104.47825 172.47825,107.5 168.75,107.5 C165.0225,107.5 162,104.47825 162,100.75 C162,97.02175 165.0225,94 168.75,94" id="Fill-4-Copy-11"></path>
                    <path d="M163.75,77 C167.47825,77 170.5,80.02175 170.5,83.75 C170.5,87.47825 167.47825,90.5 163.75,90.5 C160.0225,90.5 157,87.47825 157,83.75 C157,80.02175 160.0225,77 163.75,77" id="Fill-4-Copy-12"></path>
                    <path d="M159.75,87 C163.47825,87 166.5,90.02175 166.5,93.75 C166.5,97.47825 163.47825,100.5 159.75,100.5 C156.0225,100.5 153,97.47825 153,93.75 C153,90.02175 156.0225,87 159.75,87" id="Fill-4-Copy-13"></path>
                    <path d="M160.75,94 C164.47825,94 167.5,97.02175 167.5,100.75 C167.5,104.47825 164.47825,107.5 160.75,107.5 C157.0225,107.5 154,104.47825 154,100.75 C154,97.02175 157.0225,94 160.75,94" id="Fill-4-Copy-14"></path>
                </g>
                <path d="M38.887,60.603 L42.508,60.603 L42.508,49.944 L39.5245,49.944 L39.5245,48.108 C40.3405041,47.9549992 41.0417471,47.7722511 41.62825,47.55975 C42.2147529,47.3472489 42.7629975,47.0880015 43.273,46.782 L45.466,46.782 L45.466,60.603 L48.6535,60.603 L48.6535,63 L38.887,63 L38.887,60.603 Z M52.096,59.124 C52.5890025,59.6170025 53.1499969,60.0377483 53.779,60.38625 C54.4080031,60.7347517 55.1304959,60.909 55.9465,60.909 C56.8305044,60.909 57.5487472,60.6922522 58.10125,60.25875 C58.6537528,59.8252478 58.93,59.2260038 58.93,58.461 C58.93,58.0359979 58.8535008,57.6535017 58.7005,57.3135 C58.5474992,56.9734983 58.2882518,56.6845012 57.92275,56.4465 C57.5572482,56.2084988 57.0685031,56.0257506 56.4565,55.89825 C55.8444969,55.7707494 55.0795046,55.707 54.1615,55.707 L54.1615,53.565 C54.960504,53.565 55.6277473,53.5012506 56.16325,53.37375 C56.6987527,53.2462494 57.1322483,53.0677511 57.46375,52.83825 C57.7952517,52.6087489 58.0332493,52.3325016 58.17775,52.0095 C58.3222507,51.6864984 58.3945,51.3380019 58.3945,50.964 C58.3945,50.2839966 58.1820021,49.7527519 57.757,49.37025 C57.3319979,48.9877481 56.7455037,48.7965 55.9975,48.7965 C55.3514968,48.7965 54.7692526,48.9367486 54.25075,49.21725 C53.7322474,49.4977514 53.2265025,49.8674977 52.7335,50.3265 L51.229,48.516 C51.9260035,47.9039969 52.669746,47.4110019 53.46025,47.037 C54.250754,46.6629981 55.1304952,46.476 56.0995,46.476 C56.8815039,46.476 57.5954968,46.5694991 58.2415,46.7565 C58.8875032,46.9435009 59.4399977,47.2197482 59.899,47.58525 C60.3580023,47.9507518 60.7149987,48.4012473 60.97,48.93675 C61.2250013,49.4722527 61.3525,50.0799966 61.3525,50.76 C61.3525,51.6780046 61.1017525,52.4429969 60.60025,53.055 C60.0987475,53.6670031 59.4060044,54.1429983 58.522,54.483 L58.522,54.585 C59.4910048,54.8400013 60.2942468,55.3074966 60.93175,55.9875 C61.5692532,56.6675034 61.888,57.5429946 61.888,58.614 C61.888,59.3620037 61.7392515,60.0249971 61.44175,60.603 C61.1442485,61.1810029 60.7362526,61.669748 60.21775,62.06925 C59.6992474,62.468752 59.0957534,62.7747489 58.40725,62.98725 C57.7187466,63.1997511 56.9835039,63.306 56.2015,63.306 C54.8754934,63.306 53.7705044,63.0850022 52.8865,62.643 C52.0024956,62.2009978 51.2715029,61.6570032 50.6935,61.011 L52.096,59.124 Z M64.3615,66.0345 C65.1775041,65.7114984 65.8107477,65.2780027 66.26125,64.734 C66.7117523,64.1899973 66.937,63.5950032 66.937,62.949 L66.7075,62.949 C66.2144975,62.949 65.7767519,62.7917516 65.39425,62.47725 C65.0117481,62.1627484 64.8205,61.7165029 64.8205,61.1385 C64.8205,60.5944973 65.0117481,60.1567517 65.39425,59.82525 C65.7767519,59.4937483 66.2399973,59.328 66.784,59.328 C67.4810035,59.328 68.0207481,59.5914974 68.40325,60.1185 C68.7857519,60.6455026 68.977,61.3849952 68.977,62.337 C68.977,63.5950063 68.6327534,64.6829954 67.94425,65.601 C67.2557466,66.5190046 66.2740064,67.1989978 64.999,67.641 L64.3615,66.0345 Z M72.0625,60.603 L75.6835,60.603 L75.6835,49.944 L72.7,49.944 L72.7,48.108 C73.5160041,47.9549992 74.2172471,47.7722511 74.80375,47.55975 C75.3902529,47.3472489 75.9384975,47.0880015 76.4485,46.782 L78.6415,46.782 L78.6415,60.603 L81.829,60.603 L81.829,63 L72.0625,63 L72.0625,60.603 Z M86.878,58.5375 C86.878,59.3535041 87.1669971,60.0037476 87.745,60.48825 C88.3230029,60.9727524 89.0284958,61.215 89.8615,61.215 C90.6435039,61.215 91.2852475,61.0025021 91.78675,60.5775 C92.2882525,60.1524979 92.539,59.5575038 92.539,58.7925 C92.539,58.3504978 92.437001,57.9722516 92.233,57.65775 C92.028999,57.3432484 91.7527517,57.0627512 91.40425,56.81625 C91.0557483,56.5697488 90.6435024,56.344501 90.1675,56.1405 C89.6914976,55.936499 89.1815027,55.7240011 88.6375,55.503 C88.1274975,55.8770019 87.7067517,56.3189975 87.37525,56.829 C87.0437483,57.3390026 86.878,57.9084969 86.878,58.5375 Z M90.8815,53.8455 C91.3235022,53.4034978 91.6592489,52.9530023 91.88875,52.494 C92.1182511,52.0349977 92.233,51.5505025 92.233,51.0405 C92.233,50.3264964 92.0247521,49.7357523 91.60825,49.26825 C91.1917479,48.8007477 90.6010038,48.567 89.836,48.567 C89.2069969,48.567 88.6800021,48.7582481 88.255,49.14075 C87.8299979,49.5232519 87.6175,50.0714964 87.6175,50.7855 C87.6175,51.193502 87.7024992,51.5504985 87.8725,51.8565 C88.0425009,52.1625015 88.2762485,52.4302489 88.57375,52.65975 C88.8712515,52.8892511 89.215498,53.101749 89.6065,53.29725 C89.997502,53.492751 90.4224977,53.6754991 90.8815,53.8455 Z M84.3025,58.8435 C84.3025,58.3334975 84.3832492,57.8702521 84.54475,57.45375 C84.7062508,57.0372479 84.9229986,56.6590017 85.195,56.319 C85.4670014,55.9789983 85.7772483,55.6730014 86.12575,55.401 C86.4742517,55.1289986 86.843998,54.891001 87.235,54.687 L87.235,54.585 C86.6059969,54.1429978 86.0747522,53.6160031 85.64125,53.004 C85.2077478,52.3919969 84.991,51.6525043 84.991,50.7855 C84.991,50.1224967 85.1142488,49.5275026 85.36075,49.0005 C85.6072512,48.4734974 85.9472478,48.0230019 86.38075,47.649 C86.8142522,47.2749981 87.332747,46.986001 87.93625,46.782 C88.539753,46.577999 89.1899965,46.476 89.887,46.476 C90.6180037,46.476 91.2767471,46.5822489 91.86325,46.79475 C92.4497529,47.0072511 92.9512479,47.3047481 93.36775,47.68725 C93.7842521,48.0697519 94.1029989,48.5287473 94.324,49.06425 C94.5450011,49.5997527 94.6555,50.1989967 94.6555,50.862 C94.6555,51.270002 94.5917506,51.6567482 94.46425,52.02225 C94.3367494,52.3877518 94.171001,52.7277484 93.967,53.04225 C93.762999,53.3567516 93.5292513,53.6457487 93.26575,53.90925 C93.0022487,54.1727513 92.7430013,54.3979991 92.488,54.585 L92.488,54.687 C92.8620019,54.891001 93.2189983,55.1247487 93.559,55.38825 C93.8990017,55.6517513 94.1964987,55.9534983 94.4515,56.2935 C94.7065013,56.6335017 94.9104992,57.0159979 95.0635,57.441 C95.2165008,57.8660021 95.293,58.3504973 95.293,58.8945 C95.293,59.5235031 95.1612513,60.1057473 94.89775,60.64125 C94.6342487,61.1767527 94.2645024,61.644248 93.7885,62.04375 C93.3124976,62.443252 92.7345034,62.7534989 92.0545,62.9745 C91.3744966,63.1955011 90.6265041,63.306 89.8105,63.306 C89.011496,63.306 88.2762534,63.1955011 87.60475,62.9745 C86.9332466,62.7534989 86.3552524,62.447502 85.87075,62.0565 C85.3862476,61.665498 85.0037514,61.1980027 84.72325,60.654 C84.4427486,60.1099973 84.3025,59.5065033 84.3025,58.8435 Z M99.7045,56.5485 L103.963,56.5485 L103.963,52.8765 C103.963,52.4004976 103.97575,51.8395032 104.00125,51.1935 L104.03389,50.4590993 C104.05123,50.1123 104.0701,49.7961014 104.0905,49.5105 L103.9885,49.5105 C103.784499,49.9355021 103.572001,50.351998 103.351,50.76 L102.6625,52.035 L102.6625,52.035 L99.7045,56.5485 Z M108.757,58.818 L106.717,58.818 L106.717,63 L103.963,63 L103.963,58.818 L96.7975,58.818 L96.7975,56.829 L103.2235,46.782 L106.717,46.782 L106.717,56.5485 L108.757,56.5485 L108.757,58.818 Z M110.6185,66.0345 C111.434504,65.7114984 112.067748,65.2780027 112.51825,64.734 C112.968752,64.1899973 113.194,63.5950032 113.194,62.949 L112.9645,62.949 C112.471498,62.949 112.033752,62.7917516 111.65125,62.47725 C111.268748,62.1627484 111.0775,61.7165029 111.0775,61.1385 C111.0775,60.5944973 111.268748,60.1567517 111.65125,59.82525 C112.033752,59.4937483 112.496997,59.328 113.041,59.328 C113.738003,59.328 114.277748,59.5914974 114.66025,60.1185 C115.042752,60.6455026 115.234,61.3849952 115.234,62.337 C115.234,63.5950063 114.889753,64.6829954 114.20125,65.601 C113.512747,66.5190046 112.531006,67.1989978 111.256,67.641 L110.6185,66.0345 Z M122.6545,54.687 C123.113502,54.687 123.602247,54.5425014 124.12075,54.2535 C124.639253,53.9644986 125.119498,53.4800034 125.5615,52.8 C125.408499,51.3719929 125.055753,50.3350032 124.50325,49.689 C123.950747,49.0429968 123.283504,48.72 122.5015,48.72 C121.838497,48.72 121.269002,48.9834974 120.793,49.5105 C120.316998,50.0375026 120.079,50.7939951 120.079,51.78 C120.079,52.7490048 120.304248,53.4757476 120.75475,53.96025 C121.205252,54.4447524 121.838496,54.687 122.6545,54.687 Z M119.212,59.685 C119.518002,60.0420018 119.904748,60.3352489 120.37225,60.56475 C120.839752,60.7942511 121.319998,60.909 121.813,60.909 C122.323003,60.909 122.803248,60.807001 123.25375,60.603 C123.704252,60.398999 124.099498,60.0632523 124.4395,59.59575 C124.779502,59.1282477 125.055749,58.5120038 125.26825,57.747 C125.480751,56.9819962 125.604,56.0385056 125.638,54.9165 C125.161998,55.511503 124.601003,55.9747483 123.955,56.30625 C123.308997,56.6377517 122.688503,56.8035 122.0935,56.8035 C121.396497,56.8035 120.759003,56.701501 120.181,56.4975 C119.602997,56.293499 119.105752,55.9832521 118.68925,55.56675 C118.272748,55.1502479 117.949751,54.6275031 117.72025,53.9985 C117.490749,53.3694969 117.376,52.6300042 117.376,51.78 C117.376,50.9639959 117.511999,50.2287533 117.784,49.57425 C118.056001,48.9197467 118.421498,48.3630023 118.8805,47.904 C119.339502,47.4449977 119.879247,47.0922512 120.49975,46.84575 C121.120253,46.5992488 121.778997,46.476 122.476,46.476 C123.258004,46.476 124.005996,46.6332484 124.72,46.94775 C125.434004,47.2622516 126.058747,47.7424968 126.59425,48.3885 C127.129753,49.0345032 127.554748,49.854745 127.86925,50.84925 C128.183752,51.843755 128.341,53.0209932 128.341,54.381 C128.341,55.9620079 128.166752,57.3134944 127.81825,58.4355 C127.469748,59.5575056 127.002253,60.4797464 126.41575,61.20225 C125.829247,61.9247536 125.149254,62.4559983 124.37575,62.796 C123.602246,63.1360017 122.799004,63.306 121.966,63.306 C120.996995,63.306 120.155504,63.1275018 119.4415,62.7705 C118.727496,62.4134982 118.124002,61.9800026 117.631,61.47 L119.212,59.685 Z M131.5285,59.124 C132.021502,59.6170025 132.582497,60.0377483 133.2115,60.38625 C133.840503,60.7347517 134.562996,60.909 135.379,60.909 C136.263004,60.909 136.981247,60.6922522 137.53375,60.25875 C138.086253,59.8252478 138.3625,59.2260038 138.3625,58.461 C138.3625,58.0359979 138.286001,57.6535017 138.133,57.3135 C137.979999,56.9734983 137.720752,56.6845012 137.35525,56.4465 C136.989748,56.2084988 136.501003,56.0257506 135.889,55.89825 C135.276997,55.7707494 134.512005,55.707 133.594,55.707 L133.594,53.565 C134.393004,53.565 135.060247,53.5012506 135.59575,53.37375 C136.131253,53.2462494 136.564748,53.0677511 136.89625,52.83825 C137.227752,52.6087489 137.465749,52.3325016 137.61025,52.0095 C137.754751,51.6864984 137.827,51.3380019 137.827,50.964 C137.827,50.2839966 137.614502,49.7527519 137.1895,49.37025 C136.764498,48.9877481 136.178004,48.7965 135.43,48.7965 C134.783997,48.7965 134.201753,48.9367486 133.68325,49.21725 C133.164747,49.4977514 132.659002,49.8674977 132.166,50.3265 L130.6615,48.516 C131.358503,47.9039969 132.102246,47.4110019 132.89275,47.037 C133.683254,46.6629981 134.562995,46.476 135.532,46.476 C136.314004,46.476 137.027997,46.5694991 137.674,46.7565 C138.320003,46.9435009 138.872498,47.2197482 139.3315,47.58525 C139.790502,47.9507518 140.147499,48.4012473 140.4025,48.93675 C140.657501,49.4722527 140.785,50.0799966 140.785,50.76 C140.785,51.6780046 140.534253,52.4429969 140.03275,53.055 C139.531247,53.6670031 138.838504,54.1429983 137.9545,54.483 L137.9545,54.585 C138.923505,54.8400013 139.726747,55.3074966 140.36425,55.9875 C141.001753,56.6675034 141.3205,57.5429946 141.3205,58.614 C141.3205,59.3620037 141.171751,60.0249971 140.87425,60.603 C140.576749,61.1810029 140.168753,61.669748 139.65025,62.06925 C139.131747,62.468752 138.528253,62.7747489 137.83975,62.98725 C137.151247,63.1997511 136.416004,63.306 135.634,63.306 C134.307993,63.306 133.203004,63.0850022 132.319,62.643 C131.434996,62.2009978 130.704003,61.6570032 130.126,61.011 L131.5285,59.124 Z M144.4825,60.603 L148.1035,60.603 L148.1035,49.944 L145.12,49.944 L145.12,48.108 C145.936004,47.9549992 146.637247,47.7722511 147.22375,47.55975 C147.810253,47.3472489 148.358497,47.0880015 148.8685,46.782 L151.0615,46.782 L151.0615,60.603 L154.249,60.603 L154.249,63 L144.4825,63 L144.4825,60.603 Z" id="13,184,931" fill="#FFFFFF" fill-rule="nonzero"></path>
            </g>
        </g>
    </g>
</svg>