<?xml version="1.0" encoding="utf-8"?>
<!-- Generator: Adobe Illustrator 22.0.1, SVG Export Plug-In . SVG Version: 6.00 Build 0)  -->
<svg version="1.1" id="Layer_1" xmlns="http://www.w3.org/2000/svg" xmlns:xlink="http://www.w3.org/1999/xlink" x="0px" y="0px"
	 viewBox="0 0 40 40" style="enable-background:new 0 0 40 40;" xml:space="preserve">
<style type="text/css">
	.st0{clip-path:url(#SVGID_2_);}
	.st1{clip-path:url(#SVGID_4_);enable-background:new    ;}
	.st2{clip-path:url(#SVGID_6_);}
	.st3{clip-path:url(#SVGID_8_);}
	.st4{clip-path:url(#SVGID_10_);fill:#5B616B;}
</style>
<g>
	<defs>
		<rect id="SVGID_1_" x="-622" y="305" width="23" height="23"/>
	</defs>
	<clipPath id="SVGID_2_">
		<use xlink:href="#SVGID_1_"  style="overflow:visible;"/>
	</clipPath>
	<g class="st0">
		<defs>
			<rect id="SVGID_3_" x="-700" y="-2576" width="1440" height="5192"/>
		</defs>
		<clipPath id="SVGID_4_">
			<use xlink:href="#SVGID_3_"  style="overflow:visible;"/>
		</clipPath>
		<g class="st1">
			<g>
				<defs>
					<rect id="SVGID_5_" x="-623" y="304" width="25" height="25"/>
				</defs>
				<clipPath id="SVGID_6_">
					<use xlink:href="#SVGID_5_"  style="overflow:visible;"/>
				</clipPath>
				<g class="st2">
					<defs>
						<path id="SVGID_7_" d="M-612.4,323.7c-0.8,0-1.4-0.5-0.8-2.6l0.9-3.8c0.2-0.6,0.2-0.8,0-0.8c-0.2,0-1.3,0.4-1.9,0.8l-0.4-0.7
							c1.9-1.6,4.2-2.6,5.1-2.6c0.8,0,0.9,0.9,0.5,2.4l-1,4c-0.2,0.7-0.1,0.9,0.1,0.9c0.2,0,1-0.3,1.8-0.9l0.5,0.6
							C-609.5,323-611.6,323.7-612.4,323.7 M-609.4,308.8c1.2,0,1.5,0.7,1.5,1.5c0,1-0.8,1.9-2.1,1.9c-1.1,0-1.6-0.6-1.6-1.5
							C-611.6,309.9-610.9,308.8-609.4,308.8 M-610.7,305c-6.4,0.1-11.4,5.3-11.3,11.7c0.1,6.3,5.3,11.4,11.7,11.3
							c6.3-0.1,11.4-5.3,11.3-11.7C-599.1,310-604.3,304.9-610.7,305"/>
					</defs>
					<clipPath id="SVGID_8_">
						<use xlink:href="#SVGID_7_"  style="overflow:visible;"/>
					</clipPath>
					<g class="st3">
						<defs>
							<rect id="SVGID_9_" x="-622" y="305" width="23" height="23"/>
						</defs>
						<clipPath id="SVGID_10_">
							<use xlink:href="#SVGID_9_"  style="overflow:visible;"/>
						</clipPath>
						<rect x="-627" y="300" class="st4" width="33" height="33"/>
					</g>
				</g>
			</g>
		</g>
	</g>
</g>
<g>
	<path d="M16.8,32.2c-1.4,0-2.3-0.8-1.4-4.4l1.6-6.4c0.3-1,0.3-1.4,0-1.4c-0.4,0-2.2,0.7-3.2,1.4l-0.7-1.1c3.3-2.8,7.1-4.4,8.7-4.4
		c1.4,0,1.6,1.6,0.9,4.1l-1.8,6.7c-0.3,1.2-0.2,1.6,0.1,1.6c0.4,0,1.7-0.5,3-1.5l0.8,1C21.7,31,18.2,32.2,16.8,32.2z M21.9,7
		c2,0,2.6,1.2,2.6,2.5c0,1.6-1.3,3.2-3.6,3.2c-1.9,0-2.8-0.9-2.7-2.5C18.2,8.8,19.3,7,21.9,7z M19.7,0.5C9,0.6,0.4,9.5,0.5,20.3
		c0.1,10.8,9,19.4,19.8,19.2c10.8-0.1,19.4-9,19.2-19.8C39.4,9,30.5,0.4,19.7,0.5z"/>
</g>
</svg>
