<?xml version="1.0" encoding="utf-8"?>
<!-- Generator: Adobe Illustrator 22.0.1, SVG Export Plug-In . SVG Version: 6.00 Build 0)  -->
<svg version="1.1" id="Layer_1" xmlns="http://www.w3.org/2000/svg" xmlns:xlink="http://www.w3.org/1999/xlink" x="0px" y="0px"
	 viewBox="0 0 364 77.5" style="enable-background:new 0 0 364 77.5;" xml:space="preserve">
<style type="text/css">
	.st0{fill:#212F64;}
	.st1{fill:#ACACAC;}
	.st2{fill:#46A762;}
	.st3{fill:none;}
	.st4{enable-background:new    ;}
	.st5{fill:#FFFFFF;}
	.st6{fill:#CC2128;}
</style>
<g>
	<path class="st0" d="M132.2,34.6h10.3c12.7,0,19.5,6,19.5,16.7c0,10.8-6.8,17.1-19.3,17.1h-10.6V34.6H132.2z M142.2,64.9
		c9.7,0,14.5-5,14.5-13.6c0-8.5-4.8-13.2-14.5-13.2h-4.7v26.8H142.2z"/>
	<path class="st0" d="M189.1,58.1H174l-4,10.3h-5.4l14-33.8h5.9l14,33.8H193L189.1,58.1z M187.8,54.6l-2-5.2
		c-1.4-3.8-2.8-7.5-4.1-11.4h-0.3c-1.3,3.9-2.6,7.6-4.1,11.4l-2,5.2H187.8z"/>
	<path class="st0" d="M210.3,38.2h-12.5v-3.6h30.3v3.6h-12.5v30.2h-5.2V38.2H210.3z"/>
	<path class="st0" d="M251.6,58.1h-15.1l-4,10.3h-5.4l14-33.8h5.9l14,33.8h-5.5L251.6,58.1z M250.2,54.6l-2-5.2
		c-1.4-3.8-2.8-7.5-4.1-11.4h-0.3c-1.3,3.9-2.6,7.6-4.1,11.4l-2,5.2H250.2z"/>
	<path class="st1" d="M266.6,34.6h5.3v30.1h18v3.7h-23.3V34.6z"/>
	<path class="st1" d="M319.5,58.1h-15.1l-4,10.3H295l14-33.8h5.9l14,33.8h-5.5L319.5,58.1z M318.2,54.6l-2-5.2
		c-1.4-3.8-2.8-7.5-4.1-11.4h-0.3c-1.3,3.9-2.6,7.6-4.1,11.4l-2,5.2H318.2z"/>
	<path class="st1" d="M333.8,34.6h12.3c8.4,0,14.2,2.3,14.2,8.2c0,3.3-2.3,6.3-7.2,7.4v0.2c6,0.8,9.6,3.5,9.6,8.1
		c0,6.6-6.4,9.9-15.6,9.9h-13.2L333.8,34.6L333.8,34.6z M345.2,49c7,0,10-2.1,10-5.8s-3.3-5.2-9.7-5.2h-6.4v11H345.2z M346.3,65
		c7.1,0,11.2-2.1,11.2-6.7c0-4.2-4-6.1-11.2-6.1h-7.2V65H346.3z"/>
</g>
<g>
	<rect x="110.3" y="25.8" class="st0" width="2.1" height="49.5"/>
</g>
<g>
	<path class="st2" d="M362.4,25.5c0,2.2-1.8,4-4,4h-57.4c-2.2,0-4-1.8-4-4V5c0-2.2,1.8-4,4-4h57.4c2.2,0,4,1.8,4,4V25.5z"/>
</g>
<g>
	<rect x="305.8" y="8.2" class="st3" width="47.6" height="16.8"/>
</g>
<g class="st4">
	<path class="st5" d="M307.5,9.3h3.8c2.6,0,4.5,0.9,4.5,3.2c0,1.3-0.7,2.4-2.3,2.8v0.1c1.9,0.3,3,1.3,3,3.1c0,2.5-2,3.8-4.9,3.8
		h-4.1V9.3z M311.1,14.8c2.2,0,3.1-0.8,3.1-2.2c0-1.4-1-2-3-2h-2v4.2H311.1z M311.4,20.9c2.2,0,3.5-0.8,3.5-2.6
		c0-1.6-1.2-2.3-3.5-2.3h-2.2v4.9H311.4z"/>
	<path class="st5" d="M321,9.3h7.4v1.4h-5.8v4.1h4.9v1.4h-4.9v4.7h6v1.4H321V9.3z"/>
	<path class="st5" d="M335.9,10.7H332V9.3h9.5v1.4h-3.9v11.5h-1.6V10.7z"/>
	<path class="st5" d="M350.7,18.3H346l-1.2,3.9h-1.7l4.4-12.9h1.9l4.4,12.9H352L350.7,18.3z M350.3,17l-0.6-2
		c-0.5-1.4-0.9-2.9-1.3-4.4h-0.1c-0.4,1.5-0.8,2.9-1.3,4.4l-0.6,2H350.3z"/>
</g>
<g>
	<g>
		<rect x="36.8" y="27.7" class="st6" width="34.3" height="3.6"/>
		<rect x="36.8" y="34.5" class="st6" width="53.9" height="3.6"/>
		<rect x="36.8" y="41.4" class="st6" width="47.4" height="3.6"/>
		<rect x="36.8" y="48.2" class="st6" width="40.9" height="3.6"/>
		<rect x="2.7" y="55.1" class="st6" width="81.4" height="3.6"/>
		<rect x="2.7" y="61.9" class="st6" width="87.9" height="3.6"/>
		<rect x="2.7" y="68.8" class="st6" width="74.9" height="3.6"/>
	</g>
	<g>
		<g>
			<g>
				<rect x="2.7" y="27.7" class="st0" width="3.5" height="24.1"/>
				<rect x="9.5" y="34.5" class="st0" width="3.5" height="17.2"/>
				<rect x="16.4" y="29.1" class="st0" width="3.5" height="22.7"/>
				<rect x="23.2" y="31.3" class="st0" width="3.5" height="20.5"/>
				<rect x="30" y="27.7" class="st0" width="3.5" height="24.1"/>
			</g>
		</g>
	</g>
</g>
</svg>
