<?xml version="1.0" encoding="UTF-8"?>
<svg width="301px" height="69px" viewBox="0 0 301 69" version="1.1" xmlns="http://www.w3.org/2000/svg" xmlns:xlink="http://www.w3.org/1999/xlink">
    <!-- Generator: Sketch 59.1 (86144) - https://sketch.com -->
    <title>Group 834</title>
    <desc>Created with Sketch.</desc>
    <defs>
        <polygon id="path-1" points="0 69 300.987 69 300.987 0.735 0 0.735"></polygon>
    </defs>
    <g id="Desktop" stroke="none" stroke-width="1" fill="none" fill-rule="evenodd">
        <g id="Homelessness-Section-3-4" transform="translate(-844.000000, -1590.000000)">
            <g id="Group-83" transform="translate(844.000000, 1590.000000)">
                <polygon id="Fill-1" fill="#E0E0E0" points="2.04225 31.348875 299.04225 31.348875 299.04225 21.598875 2.04225 21.598875"></polygon>
                <g id="Group-82" transform="translate(0.000000, 0.014625)">
                    <path d="M1.790775,63.676725 C1.790775,63.116475 1.872525,62.614725 2.037525,62.169975 C2.201775,61.725225 2.427525,61.348725 2.714025,61.040475 C3.001275,60.732975 3.338025,60.498975 3.722775,60.337725 C4.107525,60.176475 4.520775,60.096225 4.961775,60.096225 C5.381775,60.096225 5.757525,60.183975 6.089775,60.358725 C6.422775,60.534225 6.697275,60.736725 6.914775,60.967725 L6.232275,61.723725 C6.056775,61.548975 5.869275,61.410975 5.670525,61.308975 C5.470275,61.207725 5.238525,61.156725 4.972275,61.156725 C4.685025,61.156725 4.424775,61.214475 4.189275,61.329975 C3.955275,61.444725 3.752025,61.609725 3.581025,61.822725 C3.409275,62.036475 3.275775,62.297475 3.181275,62.605725 C3.087525,62.913225 3.040275,63.259725 3.040275,63.645225 C3.040275,64.428975 3.209775,65.043225 3.549525,65.487975 C3.888525,65.932725 4.349025,66.154725 4.930275,66.154725 C5.238525,66.154725 5.505525,66.095475 5.733525,65.975475 C5.960775,65.856975 6.173025,65.689725 6.368775,65.472225 L7.051275,66.217725 C6.771525,66.539475 6.452775,66.786225 6.095025,66.957975 C5.738775,67.129725 5.342775,67.215225 4.909275,67.215225 C4.467525,67.215225 4.058025,67.137975 3.680775,66.984225 C3.302775,66.830475 2.973525,66.602475 2.693775,66.301725 C2.413275,66.000975 2.192775,65.629725 2.031525,65.188725 C1.870275,64.747725 1.790775,64.243725 1.790775,63.676725" id="Fill-2" fill="#380A6D"></path>
                    <polygon id="Fill-4" fill="#380A6D" points="7.985625 60.221925 9.203625 60.221925 9.203625 66.059925 12.059625 66.059925 12.059625 67.088925 7.985625 67.088925"></polygon>
                    <path d="M12.6687,60.221925 L13.8867,60.221925 L13.8867,64.170675 C13.8867,64.541175 13.9197,64.854675 13.98645,65.110425 C14.0532,65.365425 14.1477,65.570175 14.26995,65.723925 C14.3922,65.878425 14.53695,65.987925 14.7057,66.054675 C14.87295,66.121425 15.06195,66.154425 15.2727,66.154425 C15.4827,66.154425 15.6747,66.121425 15.84945,66.054675 C16.02495,65.987925 16.1757,65.878425 16.3017,65.723925 C16.4277,65.570175 16.52595,65.365425 16.59495,65.110425 C16.66545,64.854675 16.7007,64.541175 16.7007,64.170675 L16.7007,60.221925 L17.8662,60.221925 L17.8662,64.076175 C17.8662,64.643175 17.80695,65.123925 17.68695,65.519175 C17.56845,65.915175 17.3952,66.238425 17.16795,66.490425 C16.93995,66.742425 16.66695,66.926175 16.3482,67.041675 C16.02945,67.157175 15.6717,67.214925 15.2727,67.214925 C14.87295,67.214925 14.51445,67.157175 14.19645,67.041675 C13.8777,66.926175 13.6047,66.742425 13.3767,66.490425 C13.1502,66.238425 12.9747,65.915175 12.85245,65.519175 C12.72945,65.123925 12.6687,64.643175 12.6687,64.076175 L12.6687,60.221925 Z" id="Fill-6" fill="#380A6D"></path>
                    <path d="M19.503675,65.377425 C19.748925,65.609175 20.028675,65.795925 20.343675,65.939175 C20.658675,66.082425 20.973675,66.154425 21.288675,66.154425 C21.680925,66.154425 21.978675,66.074175 22.181175,65.912925 C22.384425,65.752425 22.486425,65.538675 22.486425,65.272425 C22.486425,65.132925 22.459425,65.013675 22.406925,64.915425 C22.355175,64.817925 22.280925,64.732425 22.186425,64.658175 C22.091925,64.584675 21.980175,64.517175 21.850425,64.454175 C21.721425,64.391175 21.579675,64.328175 21.425925,64.265175 L20.480925,63.855675 C20.312175,63.785175 20.145675,63.697425 19.982175,63.592425 C19.817175,63.487425 19.668675,63.361425 19.535175,63.214425 C19.402425,63.067425 19.295925,62.895675 19.214925,62.700675 C19.134675,62.504175 19.094175,62.279925 19.094175,62.027925 C19.094175,61.754925 19.151925,61.501425 19.268175,61.267425 C19.383675,61.032675 19.542675,60.827925 19.745175,60.652425 C19.948425,60.477675 20.191425,60.341175 20.474925,60.242925 C20.759175,60.144675 21.068175,60.095925 21.404175,60.095925 C21.803175,60.095925 22.187925,60.174675 22.559175,60.332175 C22.930425,60.489675 23.248425,60.701925 23.515425,60.967425 L22.895175,61.744425 C22.671675,61.562925 22.440675,61.419675 22.202925,61.313925 C21.964425,61.208925 21.698925,61.156425 21.404175,61.156425 C21.075675,61.156425 20.812425,61.228425 20.616675,61.371675 C20.420925,61.515675 20.323425,61.712925 20.323425,61.964925 C20.323425,62.098425 20.352675,62.211675 20.411925,62.306175 C20.471925,62.400675 20.552175,62.485425 20.653425,62.558175 C20.755425,62.631675 20.872425,62.698425 21.005175,62.757675 C21.138675,62.817675 21.274425,62.875425 21.415425,62.930925 L22.349175,63.319425 C22.552425,63.403425 22.737675,63.501675 22.905675,63.613425 C23.074425,63.725925 23.219175,63.855675 23.341425,64.001925 C23.463675,64.148925 23.560425,64.319175 23.630175,64.511925 C23.700675,64.703925 23.735925,64.925925 23.735925,65.177925 C23.735925,65.457675 23.678925,65.720925 23.567175,65.965425 C23.455425,66.210675 23.292675,66.425925 23.079675,66.611925 C22.865175,66.797175 22.607175,66.944175 22.301925,67.052175 C21.997425,67.160925 21.652425,67.214925 21.268425,67.214925 C20.805675,67.214925 20.360175,67.127175 19.928925,66.953175 C19.498425,66.777675 19.118925,66.528675 18.790425,66.206925 L19.503675,65.377425 Z" id="Fill-8" fill="#380A6D"></path>
                    <polygon id="Fill-10" fill="#380A6D" points="25.9512 61.251 23.9667 61.251 23.9667 60.222 29.1537 60.222 29.1537 61.251 27.1692 61.251 27.1692 67.089 25.9512 67.089"></polygon>
                    <polygon id="Fill-12" fill="#380A6D" points="30.0879 60.221925 34.22565 60.221925 34.22565 61.250925 31.3059 61.250925 31.3059 63.004425 33.7734 63.004425 33.7734 64.033425 31.3059 64.033425 31.3059 66.059925 34.3299 66.059925 34.3299 67.088925 30.0879 67.088925"></polygon>
                    <path d="M36.7449,63.435075 L37.7214,63.435075 C38.1909,63.435075 38.54865,63.336825 38.79765,63.141075 C39.0459,62.945325 39.1704,62.651325 39.1704,62.259075 C39.1704,61.860075 39.0459,61.583325 38.79765,61.429575 C38.54865,61.275825 38.1909,61.199325 37.7214,61.199325 L36.7449,61.199325 L36.7449,63.435075 Z M39.2754,67.089075 L37.7949,64.401075 L36.7449,64.401075 L36.7449,67.089075 L35.5269,67.089075 L35.5269,60.222075 L37.8474,60.222075 C38.2044,60.222075 38.5374,60.257325 38.8449,60.327075 C39.15315,60.396825 39.41865,60.510825 39.6429,60.669075 C39.86715,60.825825 40.0434,61.034325 40.17315,61.293825 C40.3029,61.551825 40.3674,61.874325 40.3674,62.259075 C40.3674,62.784075 40.2429,63.207825 39.99465,63.529575 C39.7464,63.852075 39.41565,64.082325 39.0024,64.222575 L40.6404,67.089075 L39.2754,67.089075 Z" id="Fill-14" fill="#380A6D"></path>
                    <path d="M43.54905,60.221925 L44.89305,60.221925 L46.1313,63.602925 L46.58355,64.904925 L46.62555,64.904925 L47.0658,63.602925 L48.2838,60.221925 L49.6278,60.221925 L49.6278,67.088925 L48.48405,67.088925 L48.48405,63.950175 C48.48405,63.788925 48.4893,63.613425 48.4998,63.425175 C48.50955,63.236175 48.5223,63.044925 48.5358,62.852175 C48.55005,62.660175 48.5673,62.471175 48.58905,62.285175 C48.61005,62.099925 48.6273,61.926675 48.64155,61.766175 L48.5988,61.766175 L48.0423,63.330675 L46.8558,66.449175 L46.2888,66.449175 L45.1023,63.330675 L44.55705,61.766175 L44.51505,61.766175 C44.5293,61.926675 44.5443,62.099925 44.5623,62.285175 C44.57955,62.471175 44.5968,62.660175 44.6148,62.852175 C44.6313,63.044925 44.6463,63.236175 44.6568,63.425175 C44.66655,63.613425 44.67255,63.788925 44.67255,63.950175 L44.67255,67.088925 L43.54905,67.088925 L43.54905,60.221925 Z" id="Fill-16" fill="#380A6D"></path>
                    <polygon id="Fill-18" fill="#380A6D" points="51.1611 60.221925 55.29885 60.221925 55.29885 61.250925 52.3791 61.250925 52.3791 63.004425 54.8466 63.004425 54.8466 64.033425 52.3791 64.033425 52.3791 66.059925 55.4031 66.059925 55.4031 67.088925 51.1611 67.088925"></polygon>
                    <path d="M58.353525,66.101775 C59.054025,66.101775 59.590275,65.900775 59.965275,65.498025 C60.339525,65.096025 60.527025,64.471275 60.527025,63.623775 C60.527025,62.783775 60.338025,62.171775 59.960775,61.786275 C59.582775,61.401525 59.046525,61.209525 58.353525,61.209525 L57.818025,61.209525 L57.818025,66.101775 L58.353525,66.101775 Z M56.600025,60.221775 L58.437525,60.221775 C59.488275,60.221775 60.306525,60.505275 60.895275,61.072275 C61.482525,61.640025 61.776525,62.490525 61.776525,63.623775 C61.776525,64.190775 61.701525,64.691775 61.551525,65.125275 C61.400025,65.559525 61.183275,65.921775 60.900525,66.212025 C60.617025,66.503025 60.273525,66.721275 59.870775,66.868275 C59.468025,67.016025 59.011275,67.088775 58.500525,67.088775 L56.600025,67.088775 L56.600025,60.221775 Z" id="Fill-20" fill="#380A6D"></path>
                    <mask id="mask-2" fill="white">
                        <use xlink:href="#path-1"></use>
                    </mask>
                    <g id="Clip-23"></g>
                    <polygon id="Fill-22" fill="#380A6D" mask="url(#mask-2)" points="62.9535 67.089 64.1715 67.089 64.1715 60.222 62.9535 60.222"></polygon>
                    <path d="M68.622825,64.27515 L68.381325,63.43515 C68.268825,63.0714 68.163075,62.69715 68.061075,62.31165 C67.959075,61.9269 67.859325,61.54515 67.761825,61.1664 L67.719825,61.1664 C67.621575,61.5519 67.523325,61.93515 67.425825,62.3169 C67.327575,62.6979 67.222575,63.0714 67.110825,63.43515 L66.869325,64.27515 L68.622825,64.27515 Z M68.895825,65.23065 L66.585825,65.23065 L66.050325,67.08915 L64.811325,67.08915 L67.047825,60.22215 L68.475825,60.22215 L70.712325,67.08915 L69.431325,67.08915 L68.895825,65.23065 Z" id="Fill-24" fill="#380A6D" mask="url(#mask-2)"></path>
                    <path d="M71.352525,60.221925 L72.602025,60.221925 L74.744025,64.085925 L75.447525,65.546175 L75.490275,65.546175 C75.461775,65.188425 75.428775,64.805175 75.389775,64.395675 C75.351525,63.986925 75.332025,63.588675 75.332025,63.204675 L75.332025,60.221925 L76.497525,60.221925 L76.497525,67.088925 L75.248025,67.088925 L73.106025,63.224925 L72.402525,61.766175 L72.360525,61.766175 C72.388275,62.129925 72.422025,62.511675 72.461025,62.909925 C72.498525,63.308925 72.518025,63.701175 72.518025,64.085925 L72.518025,67.088925 L71.352525,67.088925 L71.352525,60.221925 Z" id="Fill-25" fill="#380A6D" mask="url(#mask-2)"></path>
                    <path d="M77.820525,66.396225 C77.820525,66.158475 77.896275,65.961975 78.046275,65.808225 C78.197025,65.654475 78.383775,65.577225 78.608025,65.577225 C78.832275,65.577225 79.017525,65.654475 79.164525,65.808225 C79.311525,65.961975 79.385025,66.158475 79.385025,66.396225 C79.385025,66.633975 79.311525,66.830475 79.164525,66.984225 C79.017525,67.137975 78.832275,67.215225 78.608025,67.215225 C78.383775,67.215225 78.197025,67.137975 78.046275,66.984225 C77.896275,66.830475 77.820525,66.633975 77.820525,66.396225 M77.820525,62.805225 C77.820525,62.567475 77.896275,62.370975 78.046275,62.217225 C78.197025,62.063475 78.383775,61.986225 78.608025,61.986225 C78.832275,61.986225 79.017525,62.063475 79.164525,62.217225 C79.311525,62.370975 79.385025,62.567475 79.385025,62.805225 C79.385025,63.042975 79.311525,63.239475 79.164525,63.393225 C79.017525,63.546975 78.832275,63.624225 78.608025,63.624225 C78.383775,63.624225 78.197025,63.546975 78.046275,63.393225 C77.896275,63.239475 77.820525,63.042975 77.820525,62.805225" id="Fill-26" fill="#380A6D" mask="url(#mask-2)"></path>
                    <path d="M85.810575,61.828875 C85.614825,61.646625 85.425825,61.507875 85.243575,61.413375 C85.061325,61.318875 84.844575,61.272375 84.592575,61.272375 C84.305325,61.272375 84.081825,61.344375 83.920575,61.487625 C83.760075,61.630875 83.679075,61.839375 83.679075,62.112375 C83.679075,62.321625 83.748825,62.495625 83.889075,62.631375 C84.029325,62.768625 84.205575,62.894625 84.420075,63.009375 C84.633075,63.125625 84.861825,63.241125 85.107825,63.356625 C85.352325,63.471375 85.581075,63.610125 85.794825,63.771375 C86.008575,63.932625 86.184825,64.129875 86.325825,64.364625 C86.465325,64.598625 86.535075,64.891125 86.535075,65.241375 C86.535075,65.745375 86.394825,66.166875 86.115075,66.505875 C85.835325,66.845625 85.432575,67.064625 84.907575,67.162125 L84.907575,68.244375 L84.067575,68.244375 L84.067575,67.193625 C83.745825,67.158375 83.421825,67.072875 83.096325,66.937125 C82.770825,66.800625 82.488825,66.620625 82.251075,66.396375 L82.797075,65.577375 C83.042325,65.773125 83.291325,65.930625 83.543325,66.049875 C83.794575,66.168375 84.064575,66.227625 84.351825,66.227625 C84.694575,66.227625 84.950325,66.149625 85.117575,65.992125 C85.285575,65.834625 85.369575,65.612625 85.369575,65.325375 C85.369575,65.094375 85.299825,64.901625 85.159575,64.747875 C85.019325,64.594125 84.843075,64.453875 84.629325,64.327875 C84.416325,64.201875 84.186825,64.081125 83.941575,63.965625 C83.697075,63.849375 83.467575,63.713625 83.253825,63.556125 C83.040825,63.398625 82.863825,63.209625 82.723575,62.989125 C82.583325,62.768625 82.513575,62.494125 82.513575,62.164125 C82.513575,61.675125 82.653825,61.267125 82.933575,60.940875 C83.213325,60.616125 83.591325,60.410625 84.067575,60.327375 L84.067575,59.255625 L84.907575,59.255625 L84.907575,60.306375 C85.243575,60.347625 85.532325,60.444375 85.773825,60.594375 C86.015325,60.745875 86.233575,60.922125 86.430075,61.125375 L85.810575,61.828875 Z" id="Fill-27" fill="#380A6D" mask="url(#mask-2)"></path>
                    <path d="M89.5173,63.665775 C89.7063,63.665775 89.9073,63.606525 90.12105,63.488025 C90.33405,63.368775 90.53205,63.169275 90.7143,62.889525 C90.6513,62.301525 90.5058,61.874025 90.27855,61.608525 C90.05055,61.342275 89.77605,61.209525 89.4543,61.209525 C89.1813,61.209525 88.94655,61.317525 88.7508,61.534275 C88.55505,61.751775 88.4568,62.063025 88.4568,62.468775 C88.4568,62.868525 88.54905,63.167775 88.73505,63.367275 C88.9203,63.566025 89.1813,63.665775 89.5173,63.665775 L89.5173,63.665775 Z M88.09905,65.723775 C88.22505,65.870775 88.3848,65.992275 88.57755,66.086775 C88.76955,66.181275 88.96755,66.227775 89.1708,66.227775 C89.38005,66.227775 89.57805,66.185775 89.76405,66.101775 C89.9493,66.018525 90.11205,65.879775 90.25155,65.687025 C90.3918,65.494275 90.5058,65.241525 90.59355,64.926525 C90.6813,64.611525 90.73155,64.222275 90.7458,63.760275 C90.5493,64.005525 90.3183,64.196025 90.0528,64.333275 C89.78655,64.469025 89.53155,64.537275 89.28555,64.537275 C88.99905,64.537275 88.73655,64.495275 88.4988,64.411275 C88.2603,64.328025 88.0563,64.199775 87.8838,64.028025 C87.7128,63.857025 87.58005,63.641775 87.48555,63.382275 C87.39105,63.123525 87.3438,62.819025 87.3438,62.468775 C87.3438,62.132775 87.40005,61.830525 87.5118,61.560525 C87.62355,61.291275 87.7743,61.061775 87.9633,60.872775 C88.1523,60.683775 88.3743,60.539025 88.6293,60.437025 C88.88505,60.336525 89.15655,60.284775 89.44305,60.284775 C89.76555,60.284775 90.0738,60.350025 90.3678,60.479025 C90.66105,60.608775 90.91905,60.806025 91.13955,61.072275 C91.36005,61.338525 91.53405,61.676775 91.6638,62.086275 C91.79355,62.495025 91.8588,62.980275 91.8588,63.539775 C91.8588,64.190775 91.7868,64.747275 91.64355,65.210025 C91.5003,65.672025 91.30755,66.051525 91.0653,66.348525 C90.82455,66.647025 90.54405,66.865275 90.2253,67.004775 C89.9073,67.145025 89.57655,67.214775 89.2338,67.214775 C88.8348,67.214775 88.4883,67.142025 88.19355,66.994275 C87.9003,66.847275 87.65205,66.669525 87.4488,66.459525 L88.09905,65.723775 Z" id="Fill-28" fill="#380A6D" mask="url(#mask-2)"></path>
                    <path d="M92.625,68.33865 C92.961,68.20515 93.222,68.0274 93.40725,67.80315 C93.5925,67.5789 93.6855,67.33365 93.6855,67.06815 L93.591,67.06815 C93.3885,67.06815 93.20775,67.00365 93.05025,66.8739 C92.89275,66.74415 92.814,66.5604 92.814,66.32265 C92.814,66.09915 92.89275,65.9184 93.05025,65.7819 C93.20775,65.6454 93.39825,65.57715 93.6225,65.57715 C93.90975,65.57715 94.13175,65.6859 94.28925,65.90265 C94.44675,66.1194 94.5255,66.4239 94.5255,66.81615 C94.5255,67.33365 94.38375,67.78215 94.10025,68.16015 C93.81675,68.53815 93.4125,68.81865 92.8875,69.00015 L92.625,68.33865 Z" id="Fill-29" fill="#380A6D" mask="url(#mask-2)"></path>
                    <path d="M96.7302,65.45655 C96.80745,64.96305 96.9177,64.49205 97.06095,64.0443 C97.20495,63.59655 97.38795,63.16005 97.6122,62.73705 C97.83645,62.31405 98.10945,61.8783 98.43195,61.4298 L95.27145,61.4298 L95.27145,60.41055 L99.7542,60.41055 L99.7542,61.1463 C99.3627,61.62855 99.04545,62.0898 98.8047,62.52705 C98.56245,62.9643 98.3712,63.41205 98.2317,63.87105 C98.09145,64.3293 97.99245,64.81755 97.9332,65.3358 C97.87245,65.8533 97.8297,66.4383 97.80195,67.0893 L96.5727,67.0893 C96.60045,66.49455 96.65295,65.95005 96.7302,65.45655" id="Fill-30" fill="#380A6D" mask="url(#mask-2)"></path>
                    <path d="M100.814925,65.49315 C101.018175,65.6964 101.248425,65.86965 101.507925,66.0129 C101.766675,66.1569 102.064425,66.2274 102.400425,66.2274 C102.764175,66.2274 103.059675,66.1389 103.287675,65.9604 C103.514925,65.7819 103.628925,65.53515 103.628925,65.22015 C103.628925,65.04465 103.597425,64.88715 103.534425,64.74765 C103.471425,64.6074 103.364175,64.4889 103.214175,64.39065 C103.063425,64.2924 102.861675,64.2174 102.610425,64.1649 C102.358425,64.1124 102.043425,64.08615 101.665425,64.08615 L101.665425,63.20415 C101.993925,63.20415 102.268425,63.1779 102.488925,63.1254 C102.709425,63.07215 102.888675,62.9994 103.025175,62.9049 C103.161675,62.8104 103.259925,62.6964 103.319175,62.56365 C103.378425,62.4309 103.408425,62.28765 103.408425,62.13315 C103.408425,61.85265 103.320675,61.63365 103.145175,61.4769 C102.970425,61.3194 102.729675,61.24065 102.421425,61.24065 C102.155175,61.24065 101.915925,61.2984 101.702175,61.4139 C101.488425,61.5294 101.279925,61.68165 101.077425,61.87065 L100.457175,61.12515 C100.744425,60.87315 101.050425,60.6699 101.376675,60.51615 C101.702175,60.3624 102.064425,60.28515 102.463425,60.28515 C102.785175,60.28515 103.079175,60.3234 103.345425,60.40065 C103.611675,60.4779 103.838925,60.59115 104.027925,60.7419 C104.216925,60.89265 104.363175,61.0779 104.468925,61.2984 C104.573925,61.5189 104.626425,61.7694 104.626425,62.04915 C104.626425,62.42715 104.522925,62.74215 104.316675,62.99415 C104.110425,63.24615 103.824675,63.44265 103.460175,63.58215 L103.460175,63.62415 C103.859925,63.7284 104.190675,63.92115 104.453175,64.20165 C104.715675,64.4814 104.846925,64.84215 104.846925,65.28315 C104.846925,65.5914 104.785425,65.8644 104.663175,66.10215 C104.540925,66.3399 104.372175,66.5409 104.159175,66.7059 C103.945425,66.87015 103.697175,66.99615 103.413675,67.0839 C103.130175,67.1709 102.827175,67.21515 102.505425,67.21515 C101.958675,67.21515 101.504175,67.1244 101.140425,66.94215 C100.775925,66.7599 100.475175,66.5364 100.236675,66.27015 L100.814925,65.49315 Z" id="Fill-31" fill="#380A6D" mask="url(#mask-2)"></path>
                    <path d="M108.30105,64.43265 L108.30105,62.92065 C108.30105,62.7249 108.3063,62.4939 108.3168,62.22765 C108.3273,61.9614 108.34005,61.7304 108.35355,61.53465 L108.3123,61.53465 C108.22755,61.7094 108.1398,61.88115 108.04905,62.04915 C107.9583,62.21715 107.8638,62.3919 107.76555,62.57415 L106.54755,64.43265 L108.30105,64.43265 Z M110.27505,65.36715 L109.4358,65.36715 L109.4358,67.08915 L108.30105,67.08915 L108.30105,65.36715 L105.35055,65.36715 L105.35055,64.54815 L107.99655,60.41115 L109.4358,60.41115 L109.4358,64.43265 L110.27505,64.43265 L110.27505,65.36715 Z" id="Fill-32" fill="#380A6D" mask="url(#mask-2)"></path>
                    <path d="M71.91945,3.08715 C71.72295,2.89815 71.53245,2.75115 71.3472,2.64615 C71.16195,2.5404 70.9257,2.48865 70.63845,2.48865 C70.3167,2.48865 70.0602,2.5794 69.87195,2.76165 C69.68295,2.9439 69.5892,3.18915 69.5892,3.49665 C69.5892,3.74865 69.66045,3.9549 69.80445,4.11615 C69.9477,4.2774 70.1277,4.4184 70.34445,4.54065 C70.5612,4.6644 70.79745,4.7829 71.05395,4.8984 C71.30895,5.0139 71.5452,5.15415 71.76195,5.3184 C71.97945,5.48265 72.15945,5.6859 72.30345,5.9274 C72.44595,6.1689 72.5187,6.4779 72.5187,6.85665 C72.5187,7.36065 72.37245,7.7739 72.0822,8.09565 C71.79195,8.4174 71.3952,8.61315 70.8912,8.68365 L70.8912,9.74415 L70.26045,9.74415 L70.26045,8.70465 C69.92445,8.6694 69.59895,8.5764 69.28395,8.4264 C68.96895,8.27565 68.6997,8.0994 68.47545,7.89615 L68.8737,7.29765 C69.09795,7.4934 69.34545,7.6599 69.61545,7.7964 C69.88395,7.9329 70.1802,8.00115 70.50195,8.00115 C70.8942,8.00115 71.18595,7.9029 71.3787,7.70715 C71.5707,7.51065 71.66745,7.2489 71.66745,6.91965 C71.66745,6.63915 71.59545,6.4074 71.4522,6.2214 C71.30895,6.03615 71.1282,5.8749 70.91145,5.7384 C70.6947,5.6019 70.45845,5.4744 70.2027,5.35515 C69.9477,5.2359 69.7107,5.10015 69.49395,4.94565 C69.2772,4.79115 69.09645,4.60365 68.9532,4.3839 C68.80995,4.1634 68.73795,3.88215 68.73795,3.53865 C68.73795,3.0699 68.87595,2.67915 69.1527,2.3679 C69.42945,2.05665 69.79845,1.8624 70.26045,1.78515 L70.26045,0.73515 L70.8912,0.73515 L70.8912,1.77465 C71.22645,1.8099 71.5122,1.90065 71.74695,2.04765 C71.98095,2.19465 72.19245,2.3694 72.38145,2.5719 L71.91945,3.08715 Z" id="Fill-33" fill="#848484" mask="url(#mask-2)"></path>
                    <path d="M73.55715,7.875 L75.0909,7.875 L75.0909,2.94 L73.87215,2.94 L73.87215,2.3835 C74.1804,2.328 74.4474,2.25975 74.67615,2.17875 C74.9034,2.0985 75.10815,2.0025 75.2904,1.89075 L75.95115,1.89075 L75.95115,7.875 L77.3379,7.875 L77.3379,8.589 L73.55715,8.589 L73.55715,7.875 Z" id="Fill-34" fill="#848484" mask="url(#mask-2)"></path>
                    <path d="M80.140875,8.022225 C80.336625,8.022225 80.513625,7.968225 80.671125,7.859475 C80.828625,7.751475 80.965125,7.582725 81.080625,7.355475 C81.196125,7.128225 81.285375,6.837225 81.348375,6.483975 C81.411375,6.130725 81.442875,5.708475 81.442875,5.218725 C81.442875,4.728225 81.411375,4.308975 81.348375,3.958725 C81.285375,3.608475 81.196125,3.322725 81.080625,3.102225 C80.965125,2.881725 80.828625,2.719725 80.671125,2.614725 C80.513625,2.508975 80.336625,2.457225 80.140875,2.457225 C79.945125,2.457225 79.766625,2.508975 79.605375,2.614725 C79.444125,2.719725 79.306875,2.881725 79.190625,3.102225 C79.075125,3.322725 78.985875,3.608475 78.922875,3.958725 C78.859875,4.308975 78.828375,4.728225 78.828375,5.218725 C78.828375,6.198225 78.949125,6.911475 79.190625,7.355475 C79.432875,7.800225 79.749375,8.022225 80.140875,8.022225 M80.140875,8.715225 C79.462125,8.715225 78.933375,8.413725 78.555375,7.812225 C78.177375,7.209975 77.988375,6.345975 77.988375,5.218725 C77.988375,4.091475 78.177375,3.234225 78.555375,2.646225 C78.933375,2.058225 79.462125,1.764225 80.140875,1.764225 C80.812875,1.764225 81.338625,2.058225 81.716625,2.646225 C82.093875,3.234225 82.282875,4.091475 82.282875,5.218725 C82.282875,6.345975 82.093875,7.209975 81.716625,7.812225 C81.338625,8.413725 80.812875,8.715225 80.140875,8.715225" id="Fill-35" fill="#848484" mask="url(#mask-2)"></path>
                    <polygon id="Fill-36" fill="#848484" mask="url(#mask-2)" points="83.2698 1.70145 84.1413 1.70145 84.1413 5.1552 84.1728 5.1552 87.0393 1.70145 88.02705 1.70145 85.8738 4.32645 88.3623 8.58945 87.3858 8.58945 85.3278 5.0082 84.1413 6.4047 84.1413 8.58945 83.2698 8.58945"></polygon>
                    <path d="M107.35695,3.08715 C107.16045,2.89815 106.96995,2.75115 106.7847,2.64615 C106.59945,2.5404 106.3632,2.48865 106.07595,2.48865 C105.7542,2.48865 105.4977,2.5794 105.30945,2.76165 C105.12045,2.9439 105.0267,3.18915 105.0267,3.49665 C105.0267,3.74865 105.09795,3.9549 105.24195,4.11615 C105.3852,4.2774 105.5652,4.4184 105.78195,4.54065 C105.9987,4.6644 106.23495,4.7829 106.49145,4.8984 C106.74645,5.0139 106.9827,5.15415 107.19945,5.3184 C107.41695,5.48265 107.59695,5.6859 107.74095,5.9274 C107.88345,6.1689 107.9562,6.4779 107.9562,6.85665 C107.9562,7.36065 107.80995,7.7739 107.5197,8.09565 C107.22945,8.4174 106.8327,8.61315 106.3287,8.68365 L106.3287,9.74415 L105.69795,9.74415 L105.69795,8.70465 C105.36195,8.6694 105.03645,8.5764 104.72145,8.4264 C104.40645,8.27565 104.1372,8.0994 103.91295,7.89615 L104.3112,7.29765 C104.53545,7.4934 104.78295,7.6599 105.05295,7.7964 C105.32145,7.9329 105.6177,8.00115 105.93945,8.00115 C106.3317,8.00115 106.62345,7.9029 106.8162,7.70715 C107.0082,7.51065 107.10495,7.2489 107.10495,6.91965 C107.10495,6.63915 107.03295,6.4074 106.8897,6.2214 C106.74645,6.03615 106.5657,5.8749 106.34895,5.7384 C106.1322,5.6019 105.89595,5.4744 105.6402,5.35515 C105.3852,5.2359 105.1482,5.10015 104.93145,4.94565 C104.7147,4.79115 104.53395,4.60365 104.3907,4.3839 C104.24745,4.1634 104.17545,3.88215 104.17545,3.53865 C104.17545,3.0699 104.31345,2.67915 104.5902,2.3679 C104.86695,2.05665 105.23595,1.8624 105.69795,1.78515 L105.69795,0.73515 L106.3287,0.73515 L106.3287,1.77465 C106.66395,1.8099 106.9497,1.90065 107.18445,2.04765 C107.41845,2.19465 107.62995,2.3694 107.81895,2.5719 L107.35695,3.08715 Z" id="Fill-37" fill="#848484" mask="url(#mask-2)"></path>
                    <path d="M108.99465,7.875 L110.5284,7.875 L110.5284,2.94 L109.30965,2.94 L109.30965,2.3835 C109.6179,2.328 109.8849,2.25975 110.11365,2.17875 C110.3409,2.0985 110.54565,2.0025 110.7279,1.89075 L111.38865,1.89075 L111.38865,7.875 L112.7754,7.875 L112.7754,8.589 L108.99465,8.589 L108.99465,7.875 Z" id="Fill-38" fill="#848484" mask="url(#mask-2)"></path>
                    <path d="M113.646975,7.234875 C113.842725,7.438125 114.074475,7.616625 114.344475,7.770375 C114.613725,7.924125 114.944475,8.000625 115.337475,8.000625 C115.539225,8.000625 115.730475,7.964625 115.908975,7.891125 C116.087475,7.816875 116.243475,7.714125 116.376225,7.581375 C116.508975,7.447875 116.614725,7.286625 116.691975,7.097625 C116.768475,6.908625 116.806725,6.699375 116.806725,6.468375 C116.806725,6.005625 116.677725,5.645625 116.418225,5.386875 C116.159475,5.127375 115.813725,4.998375 115.379475,4.998375 C115.148475,4.998375 114.949725,5.032875 114.786225,5.102625 C114.621225,5.173125 114.437475,5.275125 114.234225,5.407125 L113.772975,5.113875 L113.992725,1.890375 L117.342975,1.890375 L117.342975,2.635125 L114.748725,2.635125 L114.570225,4.620375 C114.730725,4.535625 114.891975,4.469625 115.053225,4.420875 C115.214475,4.372125 115.395975,4.346625 115.599975,4.346625 C115.886475,4.346625 116.156475,4.389375 116.408475,4.472625 C116.660475,4.557375 116.880975,4.684875 117.069225,4.856625 C117.258225,5.028375 117.407475,5.245125 117.515475,5.506875 C117.624225,5.770125 117.678225,6.083625 117.678225,6.446625 C117.678225,6.811875 117.615225,7.132875 117.489225,7.412625 C117.363225,7.693125 117.195225,7.929375 116.985225,8.122125 C116.775975,8.314125 116.535975,8.461875 116.265975,8.563125 C115.996725,8.664375 115.715475,8.715375 115.420725,8.715375 C115.155225,8.715375 114.912225,8.688375 114.691725,8.636625 C114.470475,8.584125 114.270975,8.515875 114.092475,8.431875 C113.913975,8.347125 113.753475,8.251125 113.609475,8.143125 C113.466225,8.034375 113.337975,7.920375 113.226225,7.801875 L113.646975,7.234875 Z" id="Fill-39" fill="#848484" mask="url(#mask-2)"></path>
                    <polygon id="Fill-40" fill="#848484" mask="url(#mask-2)" points="118.7073 1.70145 119.5788 1.70145 119.5788 5.1552 119.6103 5.1552 122.4768 1.70145 123.46455 1.70145 121.3113 4.32645 123.7998 8.58945 122.8233 8.58945 120.7653 5.0082 119.5788 6.4047 119.5788 8.58945 118.7073 8.58945"></polygon>
                    <path d="M38.88135,3.08715 C38.68485,2.89815 38.49435,2.75115 38.3091,2.64615 C38.12385,2.5404 37.8876,2.48865 37.60035,2.48865 C37.2786,2.48865 37.0221,2.5794 36.83385,2.76165 C36.64485,2.9439 36.5511,3.18915 36.5511,3.49665 C36.5511,3.74865 36.62235,3.9549 36.76635,4.11615 C36.9096,4.2774 37.0896,4.4184 37.30635,4.54065 C37.5231,4.6644 37.75935,4.7829 38.01585,4.8984 C38.27085,5.0139 38.5071,5.15415 38.72385,5.3184 C38.94135,5.48265 39.12135,5.6859 39.26535,5.9274 C39.40785,6.1689 39.4806,6.4779 39.4806,6.85665 C39.4806,7.36065 39.33435,7.7739 39.0441,8.09565 C38.75385,8.4174 38.3571,8.61315 37.8531,8.68365 L37.8531,9.74415 L37.22235,9.74415 L37.22235,8.70465 C36.88635,8.6694 36.56085,8.5764 36.24585,8.4264 C35.93085,8.27565 35.6616,8.0994 35.43735,7.89615 L35.8356,7.29765 C36.05985,7.4934 36.30735,7.6599 36.57735,7.7964 C36.84585,7.9329 37.1421,8.00115 37.46385,8.00115 C37.8561,8.00115 38.14785,7.9029 38.3406,7.70715 C38.5326,7.51065 38.62935,7.2489 38.62935,6.91965 C38.62935,6.63915 38.55735,6.4074 38.4141,6.2214 C38.27085,6.03615 38.0901,5.8749 37.87335,5.7384 C37.6566,5.6019 37.42035,5.4744 37.1646,5.35515 C36.9096,5.2359 36.6726,5.10015 36.45585,4.94565 C36.2391,4.79115 36.05835,4.60365 35.9151,4.3839 C35.77185,4.1634 35.69985,3.88215 35.69985,3.53865 C35.69985,3.0699 35.83785,2.67915 36.1146,2.3679 C36.39135,2.05665 36.76035,1.8624 37.22235,1.78515 L37.22235,0.73515 L37.8531,0.73515 L37.8531,1.77465 C38.18835,1.8099 38.4741,1.90065 38.70885,2.04765 C38.94285,2.19465 39.15435,2.3694 39.34335,2.5719 L38.88135,3.08715 Z" id="Fill-41" fill="#848484" mask="url(#mask-2)"></path>
                    <path d="M40.372575,7.234875 C40.569075,7.438125 40.800825,7.616625 41.070825,7.770375 C41.340075,7.924125 41.670075,8.000625 42.063075,8.000625 C42.265575,8.000625 42.456825,7.964625 42.635325,7.891125 C42.813825,7.816875 42.969825,7.714125 43.102575,7.581375 C43.234575,7.447875 43.340325,7.286625 43.418325,7.097625 C43.494075,6.908625 43.533075,6.699375 43.533075,6.468375 C43.533075,6.005625 43.403325,5.645625 43.143825,5.386875 C42.885825,5.127375 42.539325,4.998375 42.105825,4.998375 C41.874075,4.998375 41.676075,5.032875 41.512575,5.102625 C41.346825,5.173125 41.163825,5.275125 40.959825,5.407125 L40.498575,5.113875 L40.719075,1.890375 L44.068575,1.890375 L44.068575,2.635125 L41.475075,2.635125 L41.296575,4.620375 C41.457075,4.535625 41.618325,4.469625 41.779575,4.420875 C41.940075,4.372125 42.122325,4.346625 42.325575,4.346625 C42.612075,4.346625 42.882075,4.389375 43.134075,4.472625 C43.386075,4.557375 43.606575,4.684875 43.795575,4.856625 C43.984575,5.028375 44.133075,5.245125 44.241075,5.506875 C44.349825,5.770125 44.404575,6.083625 44.404575,6.446625 C44.404575,6.811875 44.341575,7.132875 44.215575,7.412625 C44.089575,7.693125 43.921575,7.929375 43.710825,8.122125 C43.501575,8.314125 43.261575,8.461875 42.991575,8.563125 C42.722325,8.664375 42.441075,8.715375 42.146325,8.715375 C41.881575,8.715375 41.637825,8.688375 41.417325,8.636625 C41.196825,8.584125 40.997325,8.515875 40.818825,8.431875 C40.640325,8.347125 40.479825,8.251125 40.335825,8.143125 C40.192575,8.034375 40.064325,7.920375 39.951825,7.801875 L40.372575,7.234875 Z" id="Fill-42" fill="#848484" mask="url(#mask-2)"></path>
                    <polygon id="Fill-43" fill="#848484" mask="url(#mask-2)" points="45.433575 1.70145 46.305075 1.70145 46.305075 5.1552 46.335825 5.1552 49.202325 1.70145 50.190075 1.70145 48.037575 4.32645 50.525325 8.58945 49.549575 8.58945 47.491575 5.0082 46.305075 6.4047 46.305075 8.58945 45.433575 8.58945"></polygon>
                    <path d="M3.44385,3.08715 C3.24735,2.89815 3.05685,2.75115 2.8716,2.64615 C2.68635,2.5404 2.4501,2.48865 2.16285,2.48865 C1.8411,2.48865 1.5846,2.5794 1.39635,2.76165 C1.20735,2.9439 1.1136,3.18915 1.1136,3.49665 C1.1136,3.74865 1.18485,3.9549 1.32885,4.11615 C1.4721,4.2774 1.6521,4.4184 1.86885,4.54065 C2.0856,4.6644 2.32185,4.7829 2.57835,4.8984 C2.83335,5.0139 3.0696,5.15415 3.28635,5.3184 C3.50385,5.48265 3.68385,5.6859 3.82785,5.9274 C3.97035,6.1689 4.0431,6.4779 4.0431,6.85665 C4.0431,7.36065 3.89685,7.7739 3.6066,8.09565 C3.31635,8.4174 2.9196,8.61315 2.4156,8.68365 L2.4156,9.74415 L1.78485,9.74415 L1.78485,8.70465 C1.44885,8.6694 1.12335,8.5764 0.80835,8.4264 C0.49335,8.27565 0.2241,8.0994 -0.00015,7.89615 L0.3981,7.29765 C0.62235,7.4934 0.86985,7.6599 1.13985,7.7964 C1.40835,7.9329 1.7046,8.00115 2.02635,8.00115 C2.4186,8.00115 2.71035,7.9029 2.9031,7.70715 C3.0951,7.51065 3.19185,7.2489 3.19185,6.91965 C3.19185,6.63915 3.11985,6.4074 2.9766,6.2214 C2.83335,6.03615 2.6526,5.8749 2.43585,5.7384 C2.2191,5.6019 1.98285,5.4744 1.7271,5.35515 C1.4721,5.2359 1.2351,5.10015 1.01835,4.94565 C0.8016,4.79115 0.62085,4.60365 0.4776,4.3839 C0.33435,4.1634 0.26235,3.88215 0.26235,3.53865 C0.26235,3.0699 0.40035,2.67915 0.6771,2.3679 C0.95385,2.05665 1.32285,1.8624 1.78485,1.78515 L1.78485,0.73515 L2.4156,0.73515 L2.4156,1.77465 C2.75085,1.8099 3.0366,1.90065 3.27135,2.04765 C3.50535,2.19465 3.71685,2.3694 3.90585,2.5719 L3.44385,3.08715 Z" id="Fill-44" fill="#848484" mask="url(#mask-2)"></path>
                    <path d="M6.86715,8.022225 C7.0629,8.022225 7.23915,7.968225 7.3974,7.859475 C7.55415,7.751475 7.6914,7.582725 7.80615,7.355475 C7.92165,7.128225 8.0109,6.837225 8.0739,6.483975 C8.1369,6.130725 8.16915,5.708475 8.16915,5.218725 C8.16915,4.728225 8.1369,4.308975 8.0739,3.958725 C8.0109,3.608475 7.92165,3.322725 7.80615,3.102225 C7.6914,2.881725 7.55415,2.719725 7.3974,2.614725 C7.23915,2.508975 7.0629,2.457225 6.86715,2.457225 C6.67065,2.457225 6.49215,2.508975 6.3309,2.614725 C6.16965,2.719725 6.0324,2.881725 5.91615,3.102225 C5.80065,3.322725 5.7114,3.608475 5.6484,3.958725 C5.5854,4.308975 5.55465,4.728225 5.55465,5.218725 C5.55465,6.198225 5.67465,6.911475 5.91615,7.355475 C6.1584,7.800225 6.4749,8.022225 6.86715,8.022225 M6.86715,8.715225 C6.18765,8.715225 5.65965,8.413725 5.28165,7.812225 C4.90365,7.209975 4.71465,6.345975 4.71465,5.218725 C4.71465,4.091475 4.90365,3.234225 5.28165,2.646225 C5.65965,2.058225 6.18765,1.764225 6.86715,1.764225 C7.53915,1.764225 8.06415,2.058225 8.44215,2.646225 C8.82015,3.234225 9.0084,4.091475 9.0084,5.218725 C9.0084,6.345975 8.82015,7.209975 8.44215,7.812225 C8.06415,8.413725 7.53915,8.715225 6.86715,8.715225" id="Fill-45" fill="#848484" mask="url(#mask-2)"></path>
                    <polygon id="Fill-46" fill="#848484" mask="url(#mask-2)" points="9.996075 1.70145 10.867575 1.70145 10.867575 5.1552 10.898325 5.1552 13.764825 1.70145 14.752575 1.70145 12.600075 4.32645 15.087825 8.58945 14.112075 8.58945 12.054075 5.0082 10.867575 6.4047 10.867575 8.58945 9.996075 8.58945"></polygon>
                    <path d="M213.66945,3.08715 C213.47295,2.89815 213.28245,2.75115 213.0972,2.64615 C212.91195,2.5404 212.6757,2.48865 212.38845,2.48865 C212.0667,2.48865 211.8102,2.5794 211.62195,2.76165 C211.43295,2.9439 211.3392,3.18915 211.3392,3.49665 C211.3392,3.74865 211.41045,3.9549 211.55445,4.11615 C211.6977,4.2774 211.8777,4.4184 212.09445,4.54065 C212.3112,4.6644 212.54745,4.7829 212.80395,4.8984 C213.05895,5.0139 213.2952,5.15415 213.51195,5.3184 C213.72945,5.48265 213.90945,5.6859 214.05345,5.9274 C214.19595,6.1689 214.2687,6.4779 214.2687,6.85665 C214.2687,7.36065 214.12245,7.7739 213.8322,8.09565 C213.54195,8.4174 213.1452,8.61315 212.6412,8.68365 L212.6412,9.74415 L212.01045,9.74415 L212.01045,8.70465 C211.67445,8.6694 211.34895,8.5764 211.03395,8.4264 C210.71895,8.27565 210.4497,8.0994 210.22545,7.89615 L210.6237,7.29765 C210.84795,7.4934 211.09545,7.6599 211.36545,7.7964 C211.63395,7.9329 211.9302,8.00115 212.25195,8.00115 C212.6442,8.00115 212.93595,7.9029 213.1287,7.70715 C213.3207,7.51065 213.41745,7.2489 213.41745,6.91965 C213.41745,6.63915 213.34545,6.4074 213.2022,6.2214 C213.05895,6.03615 212.8782,5.8749 212.66145,5.7384 C212.4447,5.6019 212.20845,5.4744 211.9527,5.35515 C211.6977,5.2359 211.4607,5.10015 211.24395,4.94565 C211.0272,4.79115 210.84645,4.60365 210.7032,4.3839 C210.55995,4.1634 210.48795,3.88215 210.48795,3.53865 C210.48795,3.0699 210.62595,2.67915 210.9027,2.3679 C211.17945,2.05665 211.54845,1.8624 212.01045,1.78515 L212.01045,0.73515 L212.6412,0.73515 L212.6412,1.77465 C212.97645,1.8099 213.2622,1.90065 213.49695,2.04765 C213.73095,2.19465 213.94245,2.3694 214.13145,2.5719 L213.66945,3.08715 Z" id="Fill-47" fill="#848484" mask="url(#mask-2)"></path>
                    <path d="M215.192175,7.203375 C215.395425,7.412625 215.630925,7.598625 215.900175,7.759125 C216.170175,7.920375 216.504675,8.000625 216.903675,8.000625 C217.309425,8.000625 217.642425,7.891125 217.901175,7.670625 C218.159925,7.450125 218.289675,7.150875 218.289675,6.772875 C218.289675,6.576375 218.252925,6.396375 218.179425,6.232125 C218.105925,6.067125 217.985175,5.926125 217.817175,5.806875 C217.649175,5.687625 217.427925,5.596125 217.155675,5.533125 C216.882675,5.470125 216.546675,5.438625 216.147675,5.438625 L216.147675,4.777875 C216.504675,4.777875 216.803925,4.746375 217.045425,4.683375 C217.286925,4.620375 217.482675,4.532625 217.633425,4.420875 C217.784175,4.309125 217.890675,4.175625 217.953675,4.021875 C218.016675,3.868125 218.048175,3.703125 218.048175,3.528375 C218.048175,3.199125 217.944675,2.939625 217.739175,2.750625 C217.532175,2.562375 217.249425,2.467875 216.893925,2.467875 C216.613425,2.467875 216.356175,2.530875 216.121425,2.656875 C215.887425,2.782125 215.667675,2.947125 215.465175,3.150375 L215.003175,2.603625 C215.261925,2.359125 215.547675,2.157375 215.858925,2.000625 C216.170175,1.843125 216.525675,1.764375 216.924675,1.764375 C217.218675,1.764375 217.488675,1.802625 217.733175,1.879125 C217.977675,1.957125 218.189925,2.066625 218.368425,2.210625 C218.546925,2.353875 218.684925,2.530875 218.783175,2.740875 C218.881425,2.950875 218.929425,3.191625 218.929425,3.465375 C218.929425,3.871125 218.818425,4.203375 218.594175,4.462875 C218.369925,4.721625 218.075925,4.921125 217.712175,5.061375 L217.712175,5.102625 C217.914675,5.152125 218.103675,5.223375 218.279175,5.317875 C218.453925,5.412375 218.608425,5.531625 218.740425,5.675625 C218.873925,5.818875 218.977425,5.985375 219.051675,6.174375 C219.124425,6.363375 219.161175,6.572625 219.161175,6.804375 C219.161175,7.097625 219.103425,7.364625 218.988675,7.601625 C218.872425,7.840125 218.714175,8.041125 218.515425,8.206125 C218.315925,8.370375 218.082675,8.496375 217.817175,8.584125 C217.551675,8.671125 217.264425,8.715375 216.956925,8.715375 C216.689925,8.715375 216.446925,8.688375 216.226425,8.636625 C216.005925,8.584125 215.804175,8.513625 215.621925,8.426625 C215.440425,8.338875 215.277675,8.239125 215.134425,8.126625 C214.990425,8.014875 214.863675,7.896375 214.750425,7.770375 L215.192175,7.203375 Z" id="Fill-48" fill="#848484" mask="url(#mask-2)"></path>
                    <path d="M221.890875,8.022225 C222.086625,8.022225 222.263625,7.968225 222.421125,7.859475 C222.578625,7.751475 222.715125,7.582725 222.830625,7.355475 C222.946125,7.128225 223.035375,6.837225 223.098375,6.483975 C223.161375,6.130725 223.192875,5.708475 223.192875,5.218725 C223.192875,4.728225 223.161375,4.308975 223.098375,3.958725 C223.035375,3.608475 222.946125,3.322725 222.830625,3.102225 C222.715125,2.881725 222.578625,2.719725 222.421125,2.614725 C222.263625,2.508975 222.086625,2.457225 221.890875,2.457225 C221.695125,2.457225 221.516625,2.508975 221.355375,2.614725 C221.194125,2.719725 221.056875,2.881725 220.940625,3.102225 C220.825125,3.322725 220.735875,3.608475 220.672875,3.958725 C220.609875,4.308975 220.578375,4.728225 220.578375,5.218725 C220.578375,6.198225 220.699125,6.911475 220.940625,7.355475 C221.182875,7.800225 221.499375,8.022225 221.890875,8.022225 M221.890875,8.715225 C221.212125,8.715225 220.683375,8.413725 220.305375,7.812225 C219.927375,7.209975 219.738375,6.345975 219.738375,5.218725 C219.738375,4.091475 219.927375,3.234225 220.305375,2.646225 C220.683375,2.058225 221.212125,1.764225 221.890875,1.764225 C222.562875,1.764225 223.088625,2.058225 223.466625,2.646225 C223.843875,3.234225 224.032875,4.091475 224.032875,5.218725 C224.032875,6.345975 223.843875,7.209975 223.466625,7.812225 C223.088625,8.413725 222.562875,8.715225 221.890875,8.715225" id="Fill-49" fill="#848484" mask="url(#mask-2)"></path>
                    <polygon id="Fill-50" fill="#848484" mask="url(#mask-2)" points="225.0198 1.70145 225.8913 1.70145 225.8913 5.1552 225.9228 5.1552 228.7893 1.70145 229.77705 1.70145 227.6238 4.32645 230.1123 8.58945 229.1358 8.58945 227.0778 5.0082 225.8913 6.4047 225.8913 8.58945 225.0198 8.58945"></polygon>
                    <path d="M249.10695,3.08715 C248.91045,2.89815 248.71995,2.75115 248.5347,2.64615 C248.34945,2.5404 248.1132,2.48865 247.82595,2.48865 C247.5042,2.48865 247.2477,2.5794 247.05945,2.76165 C246.87045,2.9439 246.7767,3.18915 246.7767,3.49665 C246.7767,3.74865 246.84795,3.9549 246.99195,4.11615 C247.1352,4.2774 247.3152,4.4184 247.53195,4.54065 C247.7487,4.6644 247.98495,4.7829 248.24145,4.8984 C248.49645,5.0139 248.7327,5.15415 248.94945,5.3184 C249.16695,5.48265 249.34695,5.6859 249.49095,5.9274 C249.63345,6.1689 249.7062,6.4779 249.7062,6.85665 C249.7062,7.36065 249.55995,7.7739 249.2697,8.09565 C248.97945,8.4174 248.5827,8.61315 248.0787,8.68365 L248.0787,9.74415 L247.44795,9.74415 L247.44795,8.70465 C247.11195,8.6694 246.78645,8.5764 246.47145,8.4264 C246.15645,8.27565 245.8872,8.0994 245.66295,7.89615 L246.0612,7.29765 C246.28545,7.4934 246.53295,7.6599 246.80295,7.7964 C247.07145,7.9329 247.3677,8.00115 247.68945,8.00115 C248.0817,8.00115 248.37345,7.9029 248.5662,7.70715 C248.7582,7.51065 248.85495,7.2489 248.85495,6.91965 C248.85495,6.63915 248.78295,6.4074 248.6397,6.2214 C248.49645,6.03615 248.3157,5.8749 248.09895,5.7384 C247.8822,5.6019 247.64595,5.4744 247.3902,5.35515 C247.1352,5.2359 246.8982,5.10015 246.68145,4.94565 C246.4647,4.79115 246.28395,4.60365 246.1407,4.3839 C245.99745,4.1634 245.92545,3.88215 245.92545,3.53865 C245.92545,3.0699 246.06345,2.67915 246.3402,2.3679 C246.61695,2.05665 246.98595,1.8624 247.44795,1.78515 L247.44795,0.73515 L248.0787,0.73515 L248.0787,1.77465 C248.41395,1.8099 248.6997,1.90065 248.93445,2.04765 C249.16845,2.19465 249.37995,2.3694 249.56895,2.5719 L249.10695,3.08715 Z" id="Fill-51" fill="#848484" mask="url(#mask-2)"></path>
                    <path d="M250.629675,7.203375 C250.832925,7.412625 251.068425,7.598625 251.337675,7.759125 C251.607675,7.920375 251.942175,8.000625 252.341175,8.000625 C252.746925,8.000625 253.079925,7.891125 253.338675,7.670625 C253.597425,7.450125 253.727175,7.150875 253.727175,6.772875 C253.727175,6.576375 253.690425,6.396375 253.616925,6.232125 C253.543425,6.067125 253.422675,5.926125 253.254675,5.806875 C253.086675,5.687625 252.865425,5.596125 252.593175,5.533125 C252.320175,5.470125 251.984175,5.438625 251.585175,5.438625 L251.585175,4.777875 C251.942175,4.777875 252.241425,4.746375 252.482925,4.683375 C252.724425,4.620375 252.920175,4.532625 253.070925,4.420875 C253.221675,4.309125 253.328175,4.175625 253.391175,4.021875 C253.454175,3.868125 253.485675,3.703125 253.485675,3.528375 C253.485675,3.199125 253.382175,2.939625 253.176675,2.750625 C252.969675,2.562375 252.686925,2.467875 252.331425,2.467875 C252.050925,2.467875 251.793675,2.530875 251.558925,2.656875 C251.324925,2.782125 251.105175,2.947125 250.902675,3.150375 L250.440675,2.603625 C250.699425,2.359125 250.985175,2.157375 251.296425,2.000625 C251.607675,1.843125 251.963175,1.764375 252.362175,1.764375 C252.656175,1.764375 252.926175,1.802625 253.170675,1.879125 C253.415175,1.957125 253.627425,2.066625 253.805925,2.210625 C253.984425,2.353875 254.122425,2.530875 254.220675,2.740875 C254.318925,2.950875 254.366925,3.191625 254.366925,3.465375 C254.366925,3.871125 254.255925,4.203375 254.031675,4.462875 C253.807425,4.721625 253.513425,4.921125 253.149675,5.061375 L253.149675,5.102625 C253.352175,5.152125 253.541175,5.223375 253.716675,5.317875 C253.891425,5.412375 254.045925,5.531625 254.177925,5.675625 C254.311425,5.818875 254.414925,5.985375 254.489175,6.174375 C254.561925,6.363375 254.598675,6.572625 254.598675,6.804375 C254.598675,7.097625 254.540925,7.364625 254.426175,7.601625 C254.309925,7.840125 254.151675,8.041125 253.952925,8.206125 C253.753425,8.370375 253.520175,8.496375 253.254675,8.584125 C252.989175,8.671125 252.701925,8.715375 252.394425,8.715375 C252.127425,8.715375 251.884425,8.688375 251.663925,8.636625 C251.443425,8.584125 251.241675,8.513625 251.059425,8.426625 C250.877925,8.338875 250.715175,8.239125 250.571925,8.126625 C250.427925,8.014875 250.301175,7.896375 250.187925,7.770375 L250.629675,7.203375 Z" id="Fill-52" fill="#848484" mask="url(#mask-2)"></path>
                    <path d="M255.396975,7.234875 C255.592725,7.438125 255.824475,7.616625 256.094475,7.770375 C256.363725,7.924125 256.694475,8.000625 257.087475,8.000625 C257.289225,8.000625 257.480475,7.964625 257.658975,7.891125 C257.837475,7.816875 257.993475,7.714125 258.126225,7.581375 C258.258975,7.447875 258.364725,7.286625 258.441975,7.097625 C258.518475,6.908625 258.556725,6.699375 258.556725,6.468375 C258.556725,6.005625 258.427725,5.645625 258.168225,5.386875 C257.909475,5.127375 257.563725,4.998375 257.129475,4.998375 C256.898475,4.998375 256.699725,5.032875 256.536225,5.102625 C256.371225,5.173125 256.187475,5.275125 255.984225,5.407125 L255.522975,5.113875 L255.742725,1.890375 L259.092975,1.890375 L259.092975,2.635125 L256.498725,2.635125 L256.320225,4.620375 C256.480725,4.535625 256.641975,4.469625 256.803225,4.420875 C256.964475,4.372125 257.145975,4.346625 257.349975,4.346625 C257.636475,4.346625 257.906475,4.389375 258.158475,4.472625 C258.410475,4.557375 258.630975,4.684875 258.819225,4.856625 C259.008225,5.028375 259.157475,5.245125 259.265475,5.506875 C259.374225,5.770125 259.428225,6.083625 259.428225,6.446625 C259.428225,6.811875 259.365225,7.132875 259.239225,7.412625 C259.113225,7.693125 258.945225,7.929375 258.735225,8.122125 C258.525975,8.314125 258.285975,8.461875 258.015975,8.563125 C257.746725,8.664375 257.465475,8.715375 257.170725,8.715375 C256.905225,8.715375 256.662225,8.688375 256.441725,8.636625 C256.220475,8.584125 256.020975,8.515875 255.842475,8.431875 C255.663975,8.347125 255.503475,8.251125 255.359475,8.143125 C255.216225,8.034375 255.087975,7.920375 254.976225,7.801875 L255.396975,7.234875 Z" id="Fill-53" fill="#848484" mask="url(#mask-2)"></path>
                    <polygon id="Fill-54" fill="#848484" mask="url(#mask-2)" points="260.4573 1.70145 261.3288 1.70145 261.3288 5.1552 261.3603 5.1552 264.2268 1.70145 265.21455 1.70145 263.0613 4.32645 265.5498 8.58945 264.5733 8.58945 262.5153 5.0082 261.3288 6.4047 261.3288 8.58945 260.4573 8.58945"></polygon>
                    <path d="M142.79445,3.08715 C142.59795,2.89815 142.40745,2.75115 142.2222,2.64615 C142.03695,2.5404 141.8007,2.48865 141.51345,2.48865 C141.1917,2.48865 140.9352,2.5794 140.74695,2.76165 C140.55795,2.9439 140.4642,3.18915 140.4642,3.49665 C140.4642,3.74865 140.53545,3.9549 140.67945,4.11615 C140.8227,4.2774 141.0027,4.4184 141.21945,4.54065 C141.4362,4.6644 141.67245,4.7829 141.92895,4.8984 C142.18395,5.0139 142.4202,5.15415 142.63695,5.3184 C142.85445,5.48265 143.03445,5.6859 143.17845,5.9274 C143.32095,6.1689 143.3937,6.4779 143.3937,6.85665 C143.3937,7.36065 143.24745,7.7739 142.9572,8.09565 C142.66695,8.4174 142.2702,8.61315 141.7662,8.68365 L141.7662,9.74415 L141.13545,9.74415 L141.13545,8.70465 C140.79945,8.6694 140.47395,8.5764 140.15895,8.4264 C139.84395,8.27565 139.5747,8.0994 139.35045,7.89615 L139.7487,7.29765 C139.97295,7.4934 140.22045,7.6599 140.49045,7.7964 C140.75895,7.9329 141.0552,8.00115 141.37695,8.00115 C141.7692,8.00115 142.06095,7.9029 142.2537,7.70715 C142.4457,7.51065 142.54245,7.2489 142.54245,6.91965 C142.54245,6.63915 142.47045,6.4074 142.3272,6.2214 C142.18395,6.03615 142.0032,5.8749 141.78645,5.7384 C141.5697,5.6019 141.33345,5.4744 141.0777,5.35515 C140.8227,5.2359 140.5857,5.10015 140.36895,4.94565 C140.1522,4.79115 139.97145,4.60365 139.8282,4.3839 C139.68495,4.1634 139.61295,3.88215 139.61295,3.53865 C139.61295,3.0699 139.75095,2.67915 140.0277,2.3679 C140.30445,2.05665 140.67345,1.8624 141.13545,1.78515 L141.13545,0.73515 L141.7662,0.73515 L141.7662,1.77465 C142.10145,1.8099 142.3872,1.90065 142.62195,2.04765 C142.85595,2.19465 143.06745,2.3694 143.25645,2.5719 L142.79445,3.08715 Z" id="Fill-55" fill="#848484" mask="url(#mask-2)"></path>
                    <path d="M144.0234,8.07495 C144.5274,7.5702 144.97515,7.1157 145.36665,6.70995 C145.7589,6.3042 146.0874,5.9277 146.35365,5.5812 C146.6199,5.2347 146.8224,4.91595 146.9634,4.62495 C147.10215,4.33545 147.17265,4.05345 147.17265,3.7797 C147.17265,3.3957 147.0684,3.0807 146.85765,2.83545 C146.6484,2.5902 146.3289,2.4672 145.9029,2.4672 C145.6224,2.4672 145.36365,2.5467 145.12515,2.7042 C144.8874,2.8617 144.67065,3.0522 144.4749,3.27645 L143.98065,2.7822 C144.2604,2.4747 144.55815,2.22795 144.87315,2.0427 C145.18815,1.8567 145.5669,1.76445 146.0079,1.76445 C146.63115,1.76445 147.12015,1.94445 147.47715,2.3052 C147.8349,2.6652 148.01265,3.1437 148.01265,3.73845 C148.01265,4.05345 147.94515,4.36995 147.80865,4.68795 C147.6714,5.0067 147.4824,5.33595 147.24165,5.6757 C147.00015,6.0147 146.7129,6.3687 146.38065,6.7362 C146.04765,7.10295 145.68165,7.4937 145.2834,7.9062 C145.4649,7.8927 145.6539,7.87845 145.8504,7.86495 C146.04615,7.8507 146.23065,7.8432 146.4069,7.8432 L148.3494,7.8432 L148.3494,8.58945 L144.0234,8.58945 L144.0234,8.07495 Z" id="Fill-56" fill="#848484" mask="url(#mask-2)"></path>
                    <path d="M151.015875,8.022225 C151.211625,8.022225 151.388625,7.968225 151.546125,7.859475 C151.703625,7.751475 151.840125,7.582725 151.955625,7.355475 C152.071125,7.128225 152.160375,6.837225 152.223375,6.483975 C152.286375,6.130725 152.317875,5.708475 152.317875,5.218725 C152.317875,4.728225 152.286375,4.308975 152.223375,3.958725 C152.160375,3.608475 152.071125,3.322725 151.955625,3.102225 C151.840125,2.881725 151.703625,2.719725 151.546125,2.614725 C151.388625,2.508975 151.211625,2.457225 151.015875,2.457225 C150.820125,2.457225 150.641625,2.508975 150.480375,2.614725 C150.319125,2.719725 150.181875,2.881725 150.065625,3.102225 C149.950125,3.322725 149.860875,3.608475 149.797875,3.958725 C149.734875,4.308975 149.703375,4.728225 149.703375,5.218725 C149.703375,6.198225 149.824125,6.911475 150.065625,7.355475 C150.307875,7.800225 150.624375,8.022225 151.015875,8.022225 M151.015875,8.715225 C150.337125,8.715225 149.808375,8.413725 149.430375,7.812225 C149.052375,7.209975 148.863375,6.345975 148.863375,5.218725 C148.863375,4.091475 149.052375,3.234225 149.430375,2.646225 C149.808375,2.058225 150.337125,1.764225 151.015875,1.764225 C151.687875,1.764225 152.213625,2.058225 152.591625,2.646225 C152.968875,3.234225 153.157875,4.091475 153.157875,5.218725 C153.157875,6.345975 152.968875,7.209975 152.591625,7.812225 C152.213625,8.413725 151.687875,8.715225 151.015875,8.715225" id="Fill-57" fill="#848484" mask="url(#mask-2)"></path>
                    <polygon id="Fill-58" fill="#848484" mask="url(#mask-2)" points="154.1448 1.70145 155.0163 1.70145 155.0163 5.1552 155.0478 5.1552 157.9143 1.70145 158.90205 1.70145 156.7488 4.32645 159.2373 8.58945 158.2608 8.58945 156.2028 5.0082 155.0163 6.4047 155.0163 8.58945 154.1448 8.58945"></polygon>
                    <path d="M178.23195,3.08715 C178.03545,2.89815 177.84495,2.75115 177.6597,2.64615 C177.47445,2.5404 177.2382,2.48865 176.95095,2.48865 C176.6292,2.48865 176.3727,2.5794 176.18445,2.76165 C175.99545,2.9439 175.9017,3.18915 175.9017,3.49665 C175.9017,3.74865 175.97295,3.9549 176.11695,4.11615 C176.2602,4.2774 176.4402,4.4184 176.65695,4.54065 C176.8737,4.6644 177.10995,4.7829 177.36645,4.8984 C177.62145,5.0139 177.8577,5.15415 178.07445,5.3184 C178.29195,5.48265 178.47195,5.6859 178.61595,5.9274 C178.75845,6.1689 178.8312,6.4779 178.8312,6.85665 C178.8312,7.36065 178.68495,7.7739 178.3947,8.09565 C178.10445,8.4174 177.7077,8.61315 177.2037,8.68365 L177.2037,9.74415 L176.57295,9.74415 L176.57295,8.70465 C176.23695,8.6694 175.91145,8.5764 175.59645,8.4264 C175.28145,8.27565 175.0122,8.0994 174.78795,7.89615 L175.1862,7.29765 C175.41045,7.4934 175.65795,7.6599 175.92795,7.7964 C176.19645,7.9329 176.4927,8.00115 176.81445,8.00115 C177.2067,8.00115 177.49845,7.9029 177.6912,7.70715 C177.8832,7.51065 177.97995,7.2489 177.97995,6.91965 C177.97995,6.63915 177.90795,6.4074 177.7647,6.2214 C177.62145,6.03615 177.4407,5.8749 177.22395,5.7384 C177.0072,5.6019 176.77095,5.4744 176.5152,5.35515 C176.2602,5.2359 176.0232,5.10015 175.80645,4.94565 C175.5897,4.79115 175.40895,4.60365 175.2657,4.3839 C175.12245,4.1634 175.05045,3.88215 175.05045,3.53865 C175.05045,3.0699 175.18845,2.67915 175.4652,2.3679 C175.74195,2.05665 176.11095,1.8624 176.57295,1.78515 L176.57295,0.73515 L177.2037,0.73515 L177.2037,1.77465 C177.53895,1.8099 177.8247,1.90065 178.05945,2.04765 C178.29345,2.19465 178.50495,2.3694 178.69395,2.5719 L178.23195,3.08715 Z" id="Fill-59" fill="#848484" mask="url(#mask-2)"></path>
                    <path d="M179.4609,8.07495 C179.9649,7.5702 180.41265,7.1157 180.80415,6.70995 C181.1964,6.3042 181.5249,5.9277 181.79115,5.5812 C182.0574,5.2347 182.2599,4.91595 182.4009,4.62495 C182.53965,4.33545 182.61015,4.05345 182.61015,3.7797 C182.61015,3.3957 182.5059,3.0807 182.29515,2.83545 C182.0859,2.5902 181.7664,2.4672 181.3404,2.4672 C181.0599,2.4672 180.80115,2.5467 180.56265,2.7042 C180.3249,2.8617 180.10815,3.0522 179.9124,3.27645 L179.41815,2.7822 C179.6979,2.4747 179.99565,2.22795 180.31065,2.0427 C180.62565,1.8567 181.0044,1.76445 181.4454,1.76445 C182.06865,1.76445 182.55765,1.94445 182.91465,2.3052 C183.2724,2.6652 183.45015,3.1437 183.45015,3.73845 C183.45015,4.05345 183.38265,4.36995 183.24615,4.68795 C183.1089,5.0067 182.9199,5.33595 182.67915,5.6757 C182.43765,6.0147 182.1504,6.3687 181.81815,6.7362 C181.48515,7.10295 181.11915,7.4937 180.7209,7.9062 C180.9024,7.8927 181.0914,7.87845 181.2879,7.86495 C181.48365,7.8507 181.66815,7.8432 181.8444,7.8432 L183.7869,7.8432 L183.7869,8.58945 L179.4609,8.58945 L179.4609,8.07495 Z" id="Fill-60" fill="#848484" mask="url(#mask-2)"></path>
                    <path d="M184.521975,7.234875 C184.717725,7.438125 184.949475,7.616625 185.219475,7.770375 C185.488725,7.924125 185.819475,8.000625 186.212475,8.000625 C186.414225,8.000625 186.605475,7.964625 186.783975,7.891125 C186.962475,7.816875 187.118475,7.714125 187.251225,7.581375 C187.383975,7.447875 187.489725,7.286625 187.566975,7.097625 C187.643475,6.908625 187.681725,6.699375 187.681725,6.468375 C187.681725,6.005625 187.552725,5.645625 187.293225,5.386875 C187.034475,5.127375 186.688725,4.998375 186.254475,4.998375 C186.023475,4.998375 185.824725,5.032875 185.661225,5.102625 C185.496225,5.173125 185.312475,5.275125 185.109225,5.407125 L184.647975,5.113875 L184.867725,1.890375 L188.217975,1.890375 L188.217975,2.635125 L185.623725,2.635125 L185.445225,4.620375 C185.605725,4.535625 185.766975,4.469625 185.928225,4.420875 C186.089475,4.372125 186.270975,4.346625 186.474975,4.346625 C186.761475,4.346625 187.031475,4.389375 187.283475,4.472625 C187.535475,4.557375 187.755975,4.684875 187.944225,4.856625 C188.133225,5.028375 188.282475,5.245125 188.390475,5.506875 C188.499225,5.770125 188.553225,6.083625 188.553225,6.446625 C188.553225,6.811875 188.490225,7.132875 188.364225,7.412625 C188.238225,7.693125 188.070225,7.929375 187.860225,8.122125 C187.650975,8.314125 187.410975,8.461875 187.140975,8.563125 C186.871725,8.664375 186.590475,8.715375 186.295725,8.715375 C186.030225,8.715375 185.787225,8.688375 185.566725,8.636625 C185.345475,8.584125 185.145975,8.515875 184.967475,8.431875 C184.788975,8.347125 184.628475,8.251125 184.484475,8.143125 C184.341225,8.034375 184.212975,7.920375 184.101225,7.801875 L184.521975,7.234875 Z" id="Fill-61" fill="#848484" mask="url(#mask-2)"></path>
                    <polygon id="Fill-62" fill="#848484" mask="url(#mask-2)" points="189.5823 1.70145 190.4538 1.70145 190.4538 5.1552 190.4853 5.1552 193.3518 1.70145 194.33955 1.70145 192.1863 4.32645 194.6748 8.58945 193.6983 8.58945 191.6403 5.0082 190.4538 6.4047 190.4538 8.58945 189.5823 8.58945"></polygon>
                    <path d="M284.54445,3.08715 C284.34795,2.89815 284.15745,2.75115 283.9722,2.64615 C283.78695,2.5404 283.5507,2.48865 283.26345,2.48865 C282.9417,2.48865 282.6852,2.5794 282.49695,2.76165 C282.30795,2.9439 282.2142,3.18915 282.2142,3.49665 C282.2142,3.74865 282.28545,3.9549 282.42945,4.11615 C282.5727,4.2774 282.7527,4.4184 282.96945,4.54065 C283.1862,4.6644 283.42245,4.7829 283.67895,4.8984 C283.93395,5.0139 284.1702,5.15415 284.38695,5.3184 C284.60445,5.48265 284.78445,5.6859 284.92845,5.9274 C285.07095,6.1689 285.1437,6.4779 285.1437,6.85665 C285.1437,7.36065 284.99745,7.7739 284.7072,8.09565 C284.41695,8.4174 284.0202,8.61315 283.5162,8.68365 L283.5162,9.74415 L282.88545,9.74415 L282.88545,8.70465 C282.54945,8.6694 282.22395,8.5764 281.90895,8.4264 C281.59395,8.27565 281.3247,8.0994 281.10045,7.89615 L281.4987,7.29765 C281.72295,7.4934 281.97045,7.6599 282.24045,7.7964 C282.50895,7.9329 282.8052,8.00115 283.12695,8.00115 C283.5192,8.00115 283.81095,7.9029 284.0037,7.70715 C284.1957,7.51065 284.29245,7.2489 284.29245,6.91965 C284.29245,6.63915 284.22045,6.4074 284.0772,6.2214 C283.93395,6.03615 283.7532,5.8749 283.53645,5.7384 C283.3197,5.6019 283.08345,5.4744 282.8277,5.35515 C282.5727,5.2359 282.3357,5.10015 282.11895,4.94565 C281.9022,4.79115 281.72145,4.60365 281.5782,4.3839 C281.43495,4.1634 281.36295,3.88215 281.36295,3.53865 C281.36295,3.0699 281.50095,2.67915 281.7777,2.3679 C282.05445,2.05665 282.42345,1.8624 282.88545,1.78515 L282.88545,0.73515 L283.5162,0.73515 L283.5162,1.77465 C283.85145,1.8099 284.1372,1.90065 284.37195,2.04765 C284.60595,2.19465 284.81745,2.3694 285.00645,2.5719 L284.54445,3.08715 Z" id="Fill-63" fill="#848484" mask="url(#mask-2)"></path>
                    <path d="M288.54495,6.048375 L288.54495,4.105875 C288.54495,3.923625 288.55095,3.708375 288.5607,3.460125 C288.5712,3.211875 288.5832,2.996625 288.59745,2.814375 L288.55545,2.814375 C288.47145,2.974875 288.3837,3.132375 288.29295,3.286125 C288.2022,3.440625 288.10695,3.598125 288.00945,3.758625 L286.44495,6.048375 L288.54495,6.048375 Z M290.2782,6.741375 L289.36395,6.741375 L289.36395,8.589375 L288.54495,8.589375 L288.54495,6.741375 L285.53145,6.741375 L285.53145,6.174375 L288.3987,1.890375 L289.36395,1.890375 L289.36395,6.048375 L290.2782,6.048375 L290.2782,6.741375 Z" id="Fill-64" fill="#848484" mask="url(#mask-2)"></path>
                    <path d="M292.765875,8.022225 C292.961625,8.022225 293.138625,7.968225 293.296125,7.859475 C293.453625,7.751475 293.590125,7.582725 293.705625,7.355475 C293.821125,7.128225 293.910375,6.837225 293.973375,6.483975 C294.036375,6.130725 294.067875,5.708475 294.067875,5.218725 C294.067875,4.728225 294.036375,4.308975 293.973375,3.958725 C293.910375,3.608475 293.821125,3.322725 293.705625,3.102225 C293.590125,2.881725 293.453625,2.719725 293.296125,2.614725 C293.138625,2.508975 292.961625,2.457225 292.765875,2.457225 C292.570125,2.457225 292.391625,2.508975 292.230375,2.614725 C292.069125,2.719725 291.931875,2.881725 291.815625,3.102225 C291.700125,3.322725 291.610875,3.608475 291.547875,3.958725 C291.484875,4.308975 291.453375,4.728225 291.453375,5.218725 C291.453375,6.198225 291.574125,6.911475 291.815625,7.355475 C292.057875,7.800225 292.374375,8.022225 292.765875,8.022225 M292.765875,8.715225 C292.087125,8.715225 291.558375,8.413725 291.180375,7.812225 C290.802375,7.209975 290.613375,6.345975 290.613375,5.218725 C290.613375,4.091475 290.802375,3.234225 291.180375,2.646225 C291.558375,2.058225 292.087125,1.764225 292.765875,1.764225 C293.437875,1.764225 293.963625,2.058225 294.341625,2.646225 C294.718875,3.234225 294.907875,4.091475 294.907875,5.218725 C294.907875,6.345975 294.718875,7.209975 294.341625,7.812225 C293.963625,8.413725 293.437875,8.715225 292.765875,8.715225" id="Fill-65" fill="#848484" mask="url(#mask-2)"></path>
                    <polygon id="Fill-66" fill="#848484" mask="url(#mask-2)" points="295.8948 1.70145 296.7663 1.70145 296.7663 5.1552 296.7978 5.1552 299.6643 1.70145 300.65205 1.70145 298.4988 4.32645 300.9873 8.58945 300.0108 8.58945 297.9528 5.0082 296.7663 6.4047 296.7663 8.58945 295.8948 8.58945"></polygon>
                    <line x1="2.042025" y1="39.5889" x2="2.042025" y2="13.3389" id="Stroke-67" stroke="#D1D1D1" stroke-width="0.75" stroke-linecap="round" mask="url(#mask-2)"></line>
                    <line x1="76.292025" y1="39.459225" x2="76.292025" y2="13.209225" id="Stroke-68" stroke="#D1D1D1" stroke-width="0.75" stroke-linecap="round" mask="url(#mask-2)"></line>
                    <line x1="39.167025" y1="39.459225" x2="39.167025" y2="13.209225" id="Stroke-69" stroke="#D1D1D1" stroke-width="0.75" stroke-linecap="round" mask="url(#mask-2)"></line>
                    <line x1="113.417025" y1="39.459225" x2="113.417025" y2="13.209225" id="Stroke-70" stroke="#D1D1D1" stroke-width="0.75" stroke-linecap="round" mask="url(#mask-2)"></line>
                    <line x1="187.667025" y1="39.459225" x2="187.667025" y2="13.209225" id="Stroke-71" stroke="#D1D1D1" stroke-width="0.75" stroke-linecap="round" mask="url(#mask-2)"></line>
                    <line x1="261.917025" y1="39.459225" x2="261.917025" y2="13.209225" id="Stroke-72" stroke="#D1D1D1" stroke-width="0.75" stroke-linecap="round" mask="url(#mask-2)"></line>
                    <line x1="150.542025" y1="39.5889" x2="150.542025" y2="13.3389" id="Stroke-73" stroke="#D1D1D1" stroke-width="0.75" stroke-linecap="round" mask="url(#mask-2)"></line>
                    <line x1="224.792025" y1="39.5889" x2="224.792025" y2="13.3389" id="Stroke-74" stroke="#D1D1D1" stroke-width="0.75" stroke-linecap="round" mask="url(#mask-2)"></line>
                    <line x1="299.042025" y1="39.5889" x2="299.042025" y2="13.3389" id="Stroke-75" stroke="#D1D1D1" stroke-width="0.75" stroke-linecap="round" mask="url(#mask-2)"></line>
                    <line x1="69.797625" y1="55.584225" x2="69.797625" y2="42.504975" id="Stroke-76" stroke="#636363" stroke-width="1.5" stroke-linecap="round" mask="url(#mask-2)"></line>
                    <path d="M69.797625,42.8064 C69.013875,43.59015 67.464375,43.96365 66.388875,43.9944 C67.832625,42.91965 69.091875,41.5239 69.797625,39.83415 C70.473375,41.5239 71.809125,42.85815 73.206375,43.9944 C72.055125,43.90215 70.657125,43.6209 69.797625,42.8064" id="Fill-77" fill="#636363" mask="url(#mask-2)"></path>
                    <path d="M37.292025,34.959225 C35.431275,34.959225 33.917025,33.444975 33.917025,31.584225 L33.917025,21.834225 C33.917025,19.973475 35.431275,18.459225 37.292025,18.459225 L266.042025,18.459225 C267.902775,18.459225 269.417025,19.973475 269.417025,21.834225 L269.417025,31.584225 C269.417025,33.444975 267.902775,34.959225 266.042025,34.959225 L37.292025,34.959225 Z" id="Fill-78" fill="#9D9DC6" mask="url(#mask-2)"></path>
                    <path d="M266.042025,18.084225 L37.292025,18.084225 C35.229525,18.084225 33.542025,19.771725 33.542025,21.834225 L33.542025,31.584225 C33.542025,33.646725 35.229525,35.334225 37.292025,35.334225 L266.042025,35.334225 C268.104525,35.334225 269.792025,33.646725 269.792025,31.584225 L269.792025,21.834225 C269.792025,19.771725 268.104525,18.084225 266.042025,18.084225 M266.042025,18.834225 C267.695775,18.834225 269.042025,20.180475 269.042025,21.834225 L269.042025,31.584225 C269.042025,33.238725 267.695775,34.584225 266.042025,34.584225 L37.292025,34.584225 C35.637525,34.584225 34.292025,33.238725 34.292025,31.584225 L34.292025,21.834225 C34.292025,20.180475 35.637525,18.834225 37.292025,18.834225 L266.042025,18.834225" id="Fill-79" fill="#FFFFFF" mask="url(#mask-2)"></path>
                    <path d="M83.4756,36.834225 L39.7671,36.834225 C38.11635,36.834225 36.7671,35.484225 36.7671,33.834225 L36.7671,19.584225 C36.7671,17.934225 38.11635,16.584225 39.7671,16.584225 L83.4756,16.584225 C85.1256,16.584225 86.4756,17.934225 86.4756,19.584225 L86.4756,33.834225 C86.4756,35.484225 85.1256,36.834225 83.4756,36.834225" id="Fill-80" fill="#4D4D8C" mask="url(#mask-2)"></path>
                    <path d="M72.09225,25.38645 C71.85,25.1607 71.61525,24.9927 71.39025,24.87945 C71.166,24.7677 70.90875,24.71145 70.62075,24.71145 C70.29675,24.71145 70.04925,24.7782 69.879,24.9132 C69.70725,25.04895 69.62175,25.26945 69.62175,25.57545 C69.62175,25.7907 69.7095,25.97295 69.88575,26.12145 C70.0605,26.2707 70.281,26.4117 70.5465,26.54745 C70.812,26.68245 71.0985,26.82195 71.40375,26.9652 C71.70975,27.10995 71.9955,27.2847 72.26175,27.49245 C72.5265,27.69945 72.747,27.9492 72.9225,28.2417 C73.09875,28.53345 73.18575,28.89645 73.18575,29.32845 C73.18575,29.9757 73.011,30.53145 72.66,30.9957 C72.30825,31.4592 71.78175,31.76745 71.07975,31.92045 L71.07975,33.32445 L69.77025,33.32445 L69.77025,31.9737 C69.37425,31.92945 68.958,31.81845 68.5215,31.6437 C68.085,31.46745 67.70925,31.23645 67.39425,30.9477 L68.259,29.61195 C68.601,29.8722 68.9265,30.0687 69.237,30.1992 C69.5475,30.3297 69.86475,30.39495 70.1895,30.39495 C70.5675,30.39495 70.8435,30.31845 71.019,30.1647 C71.19525,30.01245 71.283,29.7777 71.283,29.46345 C71.283,29.22945 71.19525,29.0307 71.019,28.86945 C70.8435,28.70745 70.623,28.5522 70.3575,28.40295 C70.092,28.25445 69.80625,28.1067 69.50025,27.9582 C69.195,27.80895 68.9085,27.63195 68.643,27.42495 C68.3775,27.2172 68.15775,26.9742 67.98225,26.6952 C67.806,26.41695 67.71825,26.07495 67.71825,25.66995 C67.71825,25.0032 67.9005,24.4527 68.265,24.0162 C68.63025,23.5797 69.13125,23.29845 69.77025,23.17245 L69.77025,21.7812 L71.07975,21.7812 L71.07975,23.14545 C71.5125,23.20845 71.88975,23.33895 72.21375,23.5362 C72.5385,23.73495 72.83025,23.9727 73.09125,24.2517 L72.09225,25.38645 Z" id="Fill-81" fill="#FFFFFF" mask="url(#mask-2)"></path>
                </g>
            </g>
        </g>
    </g>
</svg>