<?xml version="1.0" encoding="UTF-8"?>
<svg width="305px" height="69px" viewBox="0 0 305 69" version="1.1" xmlns="http://www.w3.org/2000/svg" xmlns:xlink="http://www.w3.org/1999/xlink">
    <!-- Generator: Sketch 59.1 (86144) - https://sketch.com -->
    <title>Group 165</title>
    <desc>Created with Sketch.</desc>
    <g id="Desktop" stroke="none" stroke-width="1" fill="none" fill-rule="evenodd">
        <g id="Homelessness-Section-3-5" transform="translate(-841.000000, -1762.000000)">
            <g id="Group-16" transform="translate(841.000000, 1758.000000)">
                <polygon id="Fill-1" fill="#E0E0E0" points="2.7585 37.460375 299.7585 37.460375 299.7585 27.710375 2.7585 27.710375"></polygon>
                <line x1="2.758275" y1="45.464825" x2="2.758275" y2="19.214825" id="Stroke-2" stroke="#D1D1D1" stroke-width="0.75" stroke-linecap="round"></line>
                <line x1="77.008275" y1="45.335225" x2="77.008275" y2="19.085225" id="Stroke-3" stroke="#D1D1D1" stroke-width="0.75" stroke-linecap="round"></line>
                <line x1="151.258275" y1="45.464825" x2="151.258275" y2="19.214825" id="Stroke-4" stroke="#D1D1D1" stroke-width="0.75" stroke-linecap="round"></line>
                <line x1="225.508275" y1="45.464825" x2="225.508275" y2="19.214825" id="Stroke-5" stroke="#D1D1D1" stroke-width="0.75" stroke-linecap="round"></line>
                <line x1="299.758275" y1="45.464825" x2="299.758275" y2="19.214825" id="Stroke-6" stroke="#D1D1D1" stroke-width="0.75" stroke-linecap="round"></line>
                <g id="Group-15" transform="translate(0.000000, 0.421875)">
                    <path d="M267.508275,40.78835 L89.758275,40.78835 C87.695775,40.78835 86.008275,39.10085 86.008275,37.03835 L86.008275,27.28835 C86.008275,25.22585 87.695775,23.53835 89.758275,23.53835 L267.508275,23.53835 C269.570775,23.53835 271.258275,25.22585 271.258275,27.28835 L271.258275,37.03835 C271.258275,39.10085 269.570775,40.78835 267.508275,40.78835" id="Fill-7" fill="#B4B4D6"></path>
                    <path d="M253.377675,42.28835 L143.870925,42.28835 C141.564675,42.28835 139.677675,40.40135 139.677675,38.0951 L139.677675,26.2316 C139.677675,23.92535 141.564675,22.03835 143.870925,22.03835 L253.377675,22.03835 C255.683925,22.03835 257.570925,23.92535 257.570925,26.2316 L257.570925,38.0951 C257.570925,40.40135 255.683925,42.28835 253.377675,42.28835" id="Fill-9" fill="#5E5E96"></path>
                    <text id="CLUSTER-MEDIAN:-$1,337" font-family="SourceSansPro-Semibold, Source Sans Pro" font-size="10.5" font-weight="500" letter-spacing="-0.0149999997" fill="#380A6D">
                        <tspan x="131.89455" y="70.0948205">C</tspan>
                        <tspan x="137.92755" y="70.0948205" letter-spacing="-0.361499995">L</tspan>
                        <tspan x="142.49055" y="70.0948205" letter-spacing="-0.119999997">U</tspan>
                        <tspan x="149.14305" y="70.0948205" letter-spacing="-0.225000009">S</tspan>
                        <tspan x="154.43055" y="70.0948205">TER MEDIAN: $1,337</tspan>
                    </text>
                    <text id="$1,000" font-family="SourceSansPro-Regular, Source Sans Pro" font-size="10.5" font-weight="normal" letter-spacing="-0.0299999993" fill="#848484">
                        <tspan x="137.20755" y="10.8433205">$1,000</tspan>
                    </text>
                    <text id="$0" font-family="SourceSansPro-Regular, Source Sans Pro" font-size="10.5" font-weight="normal" letter-spacing="-0.0299999993" fill="#848484">
                        <tspan x="0.00405" y="10.8433205">$0</tspan>
                    </text>
                    <text id="$2,000" font-family="SourceSansPro-Regular, Source Sans Pro" font-size="10.5" font-weight="normal" letter-spacing="-0.0299999993" fill="#848484">
                        <tspan x="276.71055" y="10.8433205">$2,000</tspan>
                    </text>
                    <line x1="185.508525" y1="61.03835" x2="185.508525" y2="47.9591" id="Stroke-12" stroke="#636363" stroke-width="1.5" stroke-linecap="round"></line>
                    <path d="M185.508525,48.260525 C184.724775,49.044275 183.175275,49.417775 182.099775,49.448525 C183.543525,48.373775 184.802775,46.978025 185.508525,45.288275 C186.184275,46.978025 187.520025,48.312275 188.917275,49.448525 C187.766025,49.356275 186.368025,49.075025 185.508525,48.260525" id="Fill-13" fill="#636363"></path>
                    <polygon id="Fill-14" fill="#FFFFFF" points="190.007775 30.146225 190.007775 26.804975 188.099025 26.804975 188.099025 28.236725 186.189525 26.327225 180.939525 31.577225 181.894275 31.577225 181.894275 36.827975 184.758525 36.827975 184.758525 32.532725 187.621275 32.532725 187.621275 36.827975 190.485525 36.827975 190.485525 31.577225 191.439525 31.577225"></polygon>
                </g>
            </g>
        </g>
    </g>
</svg>