<?xml version="1.0" encoding="UTF-8"?>
<svg width="189px" height="98px" viewBox="0 0 189 98" version="1.1" xmlns="http://www.w3.org/2000/svg" xmlns:xlink="http://www.w3.org/1999/xlink">
    <!-- Generator: Sketch 59.1 (86144) - https://sketch.com -->
    <title>Group 335</title>
    <desc>Created with Sketch.</desc>
    <defs>
        <polygon id="path-1" points="0.4845 0.2655 188.7345 0.2655 188.7345 97.0155 0.4845 97.0155"></polygon>
    </defs>
    <g id="Desktop" stroke="none" stroke-width="1" fill="none" fill-rule="evenodd">
        <g id="Homelessness-Section-3-5" transform="translate(-548.000000, -2222.000000)">
            <g id="Group-33" transform="translate(548.000000, 2222.000000)">
                <polygon id="Fill-1" fill="#5E5E96" points="0.4845 97.5 187.9845 97.5 187.9845 72 0.4845 72"></polygon>
                <g id="Group-32" transform="translate(0.000000, 0.484500)">
                    <mask id="mask-2" fill="white">
                        <use xlink:href="#path-1"></use>
                    </mask>
                    <g id="Clip-3"></g>
                    <polygon id="Stroke-2" stroke="#FFFFFF" stroke-width="0.96975" mask="url(#mask-2)" points="0.4845 97.0155 187.9845 97.0155 187.9845 71.5155 0.4845 71.5155"></polygon>
                    <text id="1,059" mask="url(#mask-2)" font-family="SourceSansPro-Semibold, Source Sans Pro" font-size="18" font-weight="500" letter-spacing="0.00749999983" fill="#FFFFFF">
                        <tspan x="68.200575" y="86.1440065">1,059</tspan>
                    </text>
                    <path d="M77.586525,12.216825 C77.586525,10.193325 76.442775,8.550075 74.414025,8.550075 L67.070025,8.550075 C65.211525,8.550075 64.094025,9.932325 63.918525,11.733825 C63.880275,11.886075 63.852525,12.048075 63.852525,12.216825 L63.360525,24.195825 C63.360525,25.115325 64.008525,25.857825 64.805025,25.857825 C65.612775,25.857825 66.251775,25.115325 66.251775,24.195825 L66.251775,13.065825 L66.929775,20.865075 C66.929775,20.865825 66.929775,20.866575 66.929775,20.867325 L66.929775,40.355325 C66.929775,41.314575 67.738275,42.090075 68.723775,42.014325 C69.605025,41.946825 70.247775,41.137575 70.247775,40.253325 L70.247775,24.582075 C70.404525,24.574575 70.555275,24.566325 70.719525,24.566325 C70.881525,24.566325 71.041275,24.574575 71.189025,24.582075 L71.189025,40.298325 C71.189025,40.977075 71.558775,41.637825 72.188775,41.889075 C73.372275,42.360825 74.510775,41.484825 74.510775,40.355325 L74.510775,20.867325 L74.510775,20.865075 L75.140775,13.488825 L75.140775,24.195825 C75.140775,25.115325 75.805275,25.857825 76.610775,25.857825 C77.424525,25.857825 78.085275,25.115325 78.085275,24.195825 L77.586525,12.216825 Z M67.752525,5.537325 L67.977525,5.393325 C68.525775,6.644325 69.554025,7.712325 70.730025,7.712325 C71.900025,7.712325 72.916275,6.652575 73.474275,5.419575 L73.684275,5.537325 C73.857525,5.553825 74.018025,5.409075 74.032275,5.198325 L74.147025,3.900075 C74.161275,3.715575 74.054775,3.560325 73.914525,3.522075 C73.903275,1.769325 72.479775,0.362325 70.730025,0.362325 C68.981025,0.362325 67.562775,1.769325 67.546275,3.513825 C67.388025,3.546825 67.279275,3.704325 67.299525,3.900075 L67.412025,5.198325 C67.429275,5.409075 67.585275,5.553825 67.752525,5.537325 L67.752525,5.537325 Z" id="Fill-4" fill="#D3D3D3" mask="url(#mask-2)"></path>
                    <path d="M58.664775,22.802475 L54.528525,11.207475 L54.465525,11.010975 C54.107025,9.537225 53.048025,8.476725 51.425775,8.476725 L46.030275,8.476725 C44.348775,8.476725 43.269525,9.618225 42.947025,11.164725 L39.320025,22.793475 C39.148275,23.702475 39.645525,24.551475 40.441275,24.699975 C41.237025,24.846975 41.999025,24.224475 42.170025,23.329725 L44.993025,12.838725 L42.116025,31.893225 C42.113775,31.907475 42.124275,31.920225 42.139275,31.920225 L44.884275,31.920225 C44.897775,31.920225 44.909025,31.931475 44.909025,31.944225 L44.909025,40.239975 C44.909025,41.122725 45.542025,41.937225 46.421775,42.012975 C47.405025,42.098475 48.227025,41.316975 48.227025,40.349475 L48.227025,31.920225 L49.175775,31.920225 L49.175775,40.243725 C49.175775,41.126475 49.811025,41.939475 50.690775,42.012975 C51.677025,42.096975 52.499025,41.315475 52.499025,40.349475 L52.499025,31.944225 C52.499025,31.931475 52.510275,31.920225 52.523775,31.920225 L55.727025,31.920225 C55.741275,31.920225 55.752525,31.907475 55.750275,31.892475 L52.488525,12.841725 L55.797525,23.458725 C55.996275,24.347475 56.810025,24.927225 57.602025,24.744975 C58.390275,24.565725 58.867275,23.693475 58.664775,22.802475 L58.664775,22.802475 Z M52.080525,7.885725 C52.094775,7.885725 52.105275,7.874475 52.104525,7.859475 L51.860025,5.385225 L52.000275,5.119725 L52.106775,3.824475 C52.118025,3.639225 52.016775,3.484725 51.877275,3.441225 C51.866025,1.691475 50.442525,0.264975 48.687525,0.264975 C46.932525,0.264975 45.509025,1.686225 45.492525,3.438225 C45.339525,3.468225 45.225525,3.625725 45.242025,3.824475 L45.352275,5.119725 L45.486525,5.385225 L45.244275,7.859475 C45.242775,7.874475 45.254025,7.885725 45.268275,7.885725 L52.080525,7.885725 Z" id="Fill-5" fill="#D3D3D3" mask="url(#mask-2)"></path>
                    <path d="M119.9004,12.216825 C119.9004,10.193325 118.75665,8.550075 116.7279,8.550075 L109.38315,8.550075 C107.5254,8.550075 106.40715,9.932325 106.2324,11.733825 C106.19415,11.886075 106.1664,12.048075 106.1664,12.216825 L105.6744,24.195825 C105.6744,25.115325 106.3224,25.857825 107.1189,25.857825 C107.92665,25.857825 108.56565,25.115325 108.56565,24.195825 L108.56565,13.065825 L109.24365,20.865075 L109.24365,20.867325 L109.24365,40.355325 C109.24365,41.314575 110.05215,42.090075 111.03765,42.014325 C111.9189,41.946825 112.56165,41.137575 112.56165,40.253325 L112.56165,24.582075 C112.7184,24.574575 112.86915,24.566325 113.0334,24.566325 C113.1954,24.566325 113.35515,24.574575 113.5029,24.582075 L113.5029,40.298325 C113.5029,40.977075 113.87265,41.637825 114.50265,41.889075 C115.68615,42.360825 116.82465,41.484825 116.82465,40.355325 L116.82465,20.867325 L116.82465,20.865075 L117.45465,13.488825 L117.45465,24.195825 C117.45465,25.115325 118.11915,25.857825 118.92465,25.857825 C119.7384,25.857825 120.39915,25.115325 120.39915,24.195825 L119.9004,12.216825 Z M110.0664,5.537325 L110.2914,5.393325 C110.83965,6.644325 111.8679,7.712325 113.0439,7.712325 C114.2139,7.712325 115.23015,6.652575 115.78815,5.419575 L115.99815,5.537325 C116.1714,5.553825 116.33115,5.409075 116.34615,5.198325 L116.46015,3.900075 C116.47515,3.715575 116.36865,3.560325 116.2284,3.522075 C116.21715,1.769325 114.79365,0.362325 113.0439,0.362325 C111.2949,0.362325 109.87665,1.769325 109.86015,3.513825 C109.7019,3.546825 109.59315,3.704325 109.6134,3.900075 L109.7259,5.198325 C109.7424,5.409075 109.89915,5.553825 110.0664,5.537325 L110.0664,5.537325 Z" id="Fill-6" fill="#D3D3D3" mask="url(#mask-2)"></path>
                    <path d="M102.478275,22.802475 L98.342025,11.207475 L98.279775,11.010975 C97.920525,9.537225 96.862275,8.476725 95.239275,8.476725 L89.843775,8.476725 C88.163025,8.476725 87.083775,9.618225 86.761275,11.164725 L83.133525,22.793475 C82.962525,23.702475 83.459025,24.551475 84.254775,24.699975 C85.050525,24.846975 85.812525,24.224475 85.984275,23.329725 L88.807275,12.838725 L85.929525,31.893225 C85.927275,31.907475 85.938525,31.920225 85.952775,31.920225 L88.698525,31.920225 C88.712025,31.920225 88.722525,31.931475 88.722525,31.944225 L88.722525,40.239975 C88.722525,41.122725 89.356275,41.937225 90.235275,42.012975 C91.218525,42.098475 92.040525,41.316975 92.040525,40.349475 L92.040525,31.920225 L92.989275,31.920225 L92.989275,40.243725 C92.989275,41.126475 93.625275,41.939475 94.505025,42.012975 C95.490525,42.096975 96.313275,41.315475 96.313275,40.349475 L96.313275,31.944225 C96.313275,31.931475 96.323775,31.920225 96.337275,31.920225 L99.540525,31.920225 C99.555525,31.920225 99.566775,31.907475 99.563775,31.892475 L96.302025,12.841725 L99.611025,23.458725 C99.809775,24.347475 100.624275,24.927225 101.415525,24.744975 C102.203775,24.565725 102.680775,23.693475 102.478275,22.802475 L102.478275,22.802475 Z M95.894025,7.885725 C95.908275,7.885725 95.919525,7.874475 95.918025,7.859475 L95.674275,5.385225 L95.813775,5.119725 L95.921025,3.824475 C95.931525,3.639225 95.830275,3.484725 95.690775,3.441225 C95.679525,1.691475 94.256025,0.264975 92.501025,0.264975 C90.746025,0.264975 89.322525,1.686225 89.306025,3.438225 C89.153025,3.468225 89.039025,3.625725 89.055525,3.824475 L89.165775,5.119725 L89.300775,5.385225 L89.057775,7.859475 C89.057025,7.874475 89.068275,7.885725 89.081775,7.885725 L95.894025,7.885725 Z" id="Fill-7" fill="#D3D3D3" mask="url(#mask-2)"></path>
                    <path d="M144.93165,22.802475 L140.7954,11.207475 L140.73315,11.010975 C140.3739,9.537225 139.31565,8.476725 137.6934,8.476725 L132.29715,8.476725 C130.61565,8.476725 129.53715,9.618225 129.2139,11.164725 L125.5869,22.793475 C125.4159,23.702475 125.9124,24.551475 126.70815,24.699975 C127.5039,24.846975 128.2659,24.224475 128.4369,23.329725 L131.2599,12.838725 L128.3829,31.893225 C128.38065,31.907475 128.3919,31.920225 128.40615,31.920225 L131.1519,31.920225 C131.1654,31.920225 131.1759,31.931475 131.1759,31.944225 L131.1759,40.239975 C131.1759,41.122725 131.80965,41.937225 132.68865,42.012975 C133.6719,42.098475 134.4939,41.316975 134.4939,40.349475 L134.4939,31.920225 L135.44265,31.920225 L135.44265,40.243725 C135.44265,41.126475 136.0779,41.939475 136.95765,42.012975 C137.9439,42.096975 138.7659,41.315475 138.7659,40.349475 L138.7659,31.944225 C138.7659,31.931475 138.77715,31.920225 138.79065,31.920225 L141.9939,31.920225 C142.0089,31.920225 142.0194,31.907475 142.01715,31.892475 L138.7554,12.841725 L142.0644,23.458725 C142.26315,24.347475 143.0769,24.927225 143.8689,24.744975 C144.6579,24.565725 145.1349,23.693475 144.93165,22.802475 L144.93165,22.802475 Z M138.34815,7.885725 C138.36165,7.885725 138.3729,7.874475 138.3714,7.859475 L138.12765,5.385225 L138.26715,5.119725 L138.3744,3.824475 C138.3849,3.639225 138.2844,3.484725 138.14415,3.441225 C138.1329,1.691475 136.7094,0.264975 134.9544,0.264975 C133.1994,0.264975 131.7759,1.686225 131.7594,3.438225 C131.6064,3.468225 131.4924,3.625725 131.50965,3.824475 L131.61915,5.119725 L131.75415,5.385225 L131.51115,7.859475 C131.50965,7.874475 131.5209,7.885725 131.5359,7.885725 L138.34815,7.885725 Z" id="Fill-8" fill="#D3D3D3" mask="url(#mask-2)"></path>
                    <path d="M66.336525,18.966825 C66.336525,16.943325 65.192775,15.300075 63.164025,15.300075 L55.820025,15.300075 C53.961525,15.300075 52.844025,16.682325 52.668525,18.483825 C52.630275,18.636075 52.602525,18.798075 52.602525,18.966825 L52.110525,30.945825 C52.110525,31.865325 52.758525,32.607825 53.555025,32.607825 C54.362775,32.607825 55.001775,31.865325 55.001775,30.945825 L55.001775,19.815825 L55.679775,27.615075 C55.679775,27.615825 55.679775,27.616575 55.679775,27.617325 L55.679775,47.105325 C55.679775,48.064575 56.488275,48.840075 57.473775,48.764325 C58.355025,48.696825 58.997775,47.887575 58.997775,47.003325 L58.997775,31.332075 C59.154525,31.324575 59.305275,31.316325 59.469525,31.316325 C59.631525,31.316325 59.791275,31.324575 59.939025,31.332075 L59.939025,47.048325 C59.939025,47.727075 60.308775,48.387825 60.938775,48.639075 C62.122275,49.110825 63.260775,48.234825 63.260775,47.105325 L63.260775,27.617325 L63.260775,27.615075 L63.890775,20.238825 L63.890775,30.945825 C63.890775,31.865325 64.555275,32.607825 65.360775,32.607825 C66.174525,32.607825 66.835275,31.865325 66.835275,30.945825 L66.336525,18.966825 Z M56.502525,12.287325 L56.727525,12.143325 C57.275775,13.394325 58.304025,14.462325 59.480025,14.462325 C60.650025,14.462325 61.666275,13.402575 62.224275,12.169575 L62.434275,12.287325 C62.607525,12.303825 62.768025,12.159075 62.782275,11.948325 L62.897025,10.650075 C62.911275,10.465575 62.804775,10.310325 62.664525,10.272075 C62.653275,8.519325 61.229775,7.112325 59.480025,7.112325 C57.731025,7.112325 56.312775,8.519325 56.296275,10.263825 C56.138025,10.296825 56.029275,10.454325 56.049525,10.650075 L56.162025,11.948325 C56.179275,12.159075 56.335275,12.303825 56.502525,12.287325 L56.502525,12.287325 Z" id="Fill-9" fill="#AAAAAA" mask="url(#mask-2)"></path>
                    <path d="M47.414775,29.552475 L43.278525,17.957475 L43.215525,17.760975 C42.857025,16.287225 41.798025,15.226725 40.175775,15.226725 L34.780275,15.226725 C33.098775,15.226725 32.019525,16.368225 31.697025,17.914725 L28.070025,29.543475 C27.898275,30.452475 28.395525,31.301475 29.191275,31.449975 C29.987025,31.596975 30.749025,30.974475 30.920025,30.079725 L33.743025,19.588725 L30.866025,38.643225 C30.863775,38.657475 30.874275,38.670225 30.889275,38.670225 L33.634275,38.670225 C33.647775,38.670225 33.659025,38.681475 33.659025,38.694225 L33.659025,46.989975 C33.659025,47.872725 34.292025,48.687225 35.171775,48.762975 C36.155025,48.848475 36.977025,48.066975 36.977025,47.099475 L36.977025,38.670225 L37.925775,38.670225 L37.925775,46.993725 C37.925775,47.876475 38.561025,48.689475 39.440775,48.762975 C40.427025,48.846975 41.249025,48.065475 41.249025,47.099475 L41.249025,38.694225 C41.249025,38.681475 41.260275,38.670225 41.273775,38.670225 L44.477025,38.670225 C44.491275,38.670225 44.502525,38.657475 44.500275,38.642475 L41.238525,19.591725 L44.547525,30.208725 C44.746275,31.097475 45.560025,31.677225 46.352025,31.494975 C47.140275,31.315725 47.617275,30.443475 47.414775,29.552475 L47.414775,29.552475 Z M40.830525,14.635725 C40.844775,14.635725 40.855275,14.624475 40.854525,14.609475 L40.610025,12.135225 L40.750275,11.869725 L40.856775,10.574475 C40.868025,10.389225 40.766775,10.234725 40.627275,10.191225 C40.616025,8.441475 39.192525,7.014975 37.437525,7.014975 C35.682525,7.014975 34.259025,8.436225 34.242525,10.188225 C34.089525,10.218225 33.975525,10.375725 33.992025,10.574475 L34.102275,11.869725 L34.236525,12.135225 L33.994275,14.609475 C33.992775,14.624475 34.004025,14.635725 34.018275,14.635725 L40.830525,14.635725 Z" id="Fill-10" fill="#AAAAAA" mask="url(#mask-2)"></path>
                    <path d="M108.6504,18.966825 C108.6504,16.943325 107.50665,15.300075 105.4779,15.300075 L98.13315,15.300075 C96.2754,15.300075 95.15715,16.682325 94.9824,18.483825 C94.94415,18.636075 94.9164,18.798075 94.9164,18.966825 L94.4244,30.945825 C94.4244,31.865325 95.0724,32.607825 95.8689,32.607825 C96.67665,32.607825 97.31565,31.865325 97.31565,30.945825 L97.31565,19.815825 L97.99365,27.615075 L97.99365,27.617325 L97.99365,47.105325 C97.99365,48.064575 98.80215,48.840075 99.78765,48.764325 C100.6689,48.696825 101.31165,47.887575 101.31165,47.003325 L101.31165,31.332075 C101.4684,31.324575 101.61915,31.316325 101.7834,31.316325 C101.9454,31.316325 102.10515,31.324575 102.2529,31.332075 L102.2529,47.048325 C102.2529,47.727075 102.62265,48.387825 103.25265,48.639075 C104.43615,49.110825 105.57465,48.234825 105.57465,47.105325 L105.57465,27.617325 L105.57465,27.615075 L106.20465,20.238825 L106.20465,30.945825 C106.20465,31.865325 106.86915,32.607825 107.67465,32.607825 C108.4884,32.607825 109.14915,31.865325 109.14915,30.945825 L108.6504,18.966825 Z M98.8164,12.287325 L99.0414,12.143325 C99.58965,13.394325 100.6179,14.462325 101.7939,14.462325 C102.9639,14.462325 103.98015,13.402575 104.53815,12.169575 L104.74815,12.287325 C104.9214,12.303825 105.08115,12.159075 105.09615,11.948325 L105.21015,10.650075 C105.22515,10.465575 105.11865,10.310325 104.9784,10.272075 C104.96715,8.519325 103.54365,7.112325 101.7939,7.112325 C100.0449,7.112325 98.62665,8.519325 98.61015,10.263825 C98.4519,10.296825 98.34315,10.454325 98.3634,10.650075 L98.4759,11.948325 C98.4924,12.159075 98.64915,12.303825 98.8164,12.287325 L98.8164,12.287325 Z" id="Fill-11" fill="#AAAAAA" mask="url(#mask-2)"></path>
                    <path d="M91.228275,29.552475 L87.092025,17.957475 L87.029775,17.760975 C86.670525,16.287225 85.612275,15.226725 83.989275,15.226725 L78.593775,15.226725 C76.913025,15.226725 75.833775,16.368225 75.511275,17.914725 L71.883525,29.543475 C71.712525,30.452475 72.209025,31.301475 73.004775,31.449975 C73.800525,31.596975 74.562525,30.974475 74.734275,30.079725 L77.557275,19.588725 L74.679525,38.643225 C74.677275,38.657475 74.688525,38.670225 74.702775,38.670225 L77.448525,38.670225 C77.462025,38.670225 77.472525,38.681475 77.472525,38.694225 L77.472525,46.989975 C77.472525,47.872725 78.106275,48.687225 78.985275,48.762975 C79.968525,48.848475 80.790525,48.066975 80.790525,47.099475 L80.790525,38.670225 L81.739275,38.670225 L81.739275,46.993725 C81.739275,47.876475 82.375275,48.689475 83.255025,48.762975 C84.240525,48.846975 85.063275,48.065475 85.063275,47.099475 L85.063275,38.694225 C85.063275,38.681475 85.073775,38.670225 85.087275,38.670225 L88.290525,38.670225 C88.305525,38.670225 88.316775,38.657475 88.313775,38.642475 L85.052025,19.591725 L88.361025,30.208725 C88.559775,31.097475 89.374275,31.677225 90.165525,31.494975 C90.953775,31.315725 91.430775,30.443475 91.228275,29.552475 L91.228275,29.552475 Z M84.644025,14.635725 C84.658275,14.635725 84.669525,14.624475 84.668025,14.609475 L84.424275,12.135225 L84.563775,11.869725 L84.671025,10.574475 C84.681525,10.389225 84.580275,10.234725 84.440775,10.191225 C84.429525,8.441475 83.006025,7.014975 81.251025,7.014975 C79.496025,7.014975 78.072525,8.436225 78.056025,10.188225 C77.903025,10.218225 77.789025,10.375725 77.805525,10.574475 L77.915775,11.869725 L78.050775,12.135225 L77.807775,14.609475 C77.807025,14.624475 77.818275,14.635725 77.831775,14.635725 L84.644025,14.635725 Z" id="Fill-12" fill="#AAAAAA" mask="url(#mask-2)"></path>
                    <path d="M152.603775,18.966825 C152.603775,16.943325 151.460025,15.300075 149.431275,15.300075 L142.087275,15.300075 C140.228775,15.300075 139.111275,16.682325 138.935775,18.483825 C138.897525,18.636075 138.869775,18.798075 138.869775,18.966825 L138.377775,30.945825 C138.377775,31.865325 139.025775,32.607825 139.821525,32.607825 C140.630025,32.607825 141.269025,31.865325 141.269025,30.945825 L141.269025,19.815825 L141.946275,27.615075 C141.947025,27.615825 141.947025,27.616575 141.947025,27.617325 L141.947025,47.105325 C141.947025,48.064575 142.754775,48.840075 143.741025,48.764325 C144.622275,48.696825 145.265025,47.887575 145.265025,47.003325 L145.265025,31.332075 C145.421775,31.324575 145.572525,31.316325 145.736775,31.316325 C145.898775,31.316325 146.058525,31.324575 146.206275,31.332075 L146.206275,47.048325 C146.206275,47.727075 146.576025,48.387825 147.206025,48.639075 C148.389525,49.110825 149.528025,48.234825 149.528025,47.105325 L149.528025,27.617325 L149.528025,27.615075 L150.158025,20.238825 L150.158025,30.945825 C150.158025,31.865325 150.822525,32.607825 151.627275,32.607825 C152.441025,32.607825 153.102525,31.865325 153.102525,30.945825 L152.603775,18.966825 Z M142.769775,12.287325 L142.994025,12.143325 C143.543775,13.394325 144.570525,14.462325 145.747275,14.462325 C146.917275,14.462325 147.933525,13.402575 148.491525,12.169575 L148.701525,12.287325 C148.874025,12.303825 149.034525,12.159075 149.049525,11.948325 L149.163525,10.650075 C149.178525,10.465575 149.071275,10.310325 148.931775,10.272075 C148.920525,8.519325 147.497025,7.112325 145.747275,7.112325 C143.998275,7.112325 142.580025,8.519325 142.563525,10.263825 C142.405275,10.296825 142.296525,10.454325 142.316775,10.650075 L142.429275,11.948325 C142.445775,12.159075 142.602525,12.303825 142.769775,12.287325 L142.769775,12.287325 Z" id="Fill-13" fill="#AAAAAA" mask="url(#mask-2)"></path>
                    <path d="M133.68165,29.552475 L129.5454,17.957475 L129.48315,17.760975 C129.1239,16.287225 128.0649,15.226725 126.44265,15.226725 L121.04715,15.226725 C119.36565,15.226725 118.2864,16.368225 117.9639,17.914725 L114.3369,29.543475 C114.1659,30.452475 114.6624,31.301475 115.45815,31.449975 C116.2539,31.596975 117.0159,30.974475 117.1869,30.079725 L120.0099,19.588725 L117.1329,38.643225 C117.13065,38.657475 117.1419,38.670225 117.15615,38.670225 L119.9019,38.670225 C119.9154,38.670225 119.9259,38.681475 119.9259,38.694225 L119.9259,46.989975 C119.9259,47.872725 120.5589,48.687225 121.43865,48.762975 C122.4219,48.848475 123.2439,48.066975 123.2439,47.099475 L123.2439,38.670225 L124.19265,38.670225 L124.19265,46.993725 C124.19265,47.876475 124.82865,48.689475 125.7084,48.762975 C126.6939,48.846975 127.51665,48.065475 127.51665,47.099475 L127.51665,38.694225 C127.51665,38.681475 127.52715,38.670225 127.54065,38.670225 L130.7439,38.670225 C130.7589,38.670225 130.7694,38.657475 130.76715,38.642475 L127.5054,19.591725 L130.8144,30.208725 C131.01315,31.097475 131.8269,31.677225 132.6189,31.494975 C133.4079,31.315725 133.8849,30.443475 133.68165,29.552475 L133.68165,29.552475 Z M127.0974,14.635725 C127.11165,14.635725 127.1229,14.624475 127.1214,14.609475 L126.87765,12.135225 L127.01715,11.869725 L127.12365,10.574475 C127.1349,10.389225 127.03365,10.234725 126.89415,10.191225 C126.8829,8.441475 125.4594,7.014975 123.7044,7.014975 C121.9494,7.014975 120.5259,8.436225 120.5094,10.188225 C120.3564,10.218225 120.2424,10.375725 120.2589,10.574475 L120.36915,11.869725 L120.50415,12.135225 L120.26115,14.609475 C120.25965,14.624475 120.27165,14.635725 120.28515,14.635725 L127.0974,14.635725 Z" id="Fill-14" fill="#AAAAAA" mask="url(#mask-2)"></path>
                    <polygon id="Fill-15" fill="#9D9DC6" mask="url(#mask-2)" points="3.8862 70.28025 51.6087 44.25 139.1112 44.25 186.8337 70.28025"></polygon>
                    <path d="M139.234875,43.765125 L51.484875,43.765125 L1.984875,70.765125 L188.734875,70.765125 L139.234875,43.765125 Z M138.987375,44.734875 L184.932375,69.795375 L5.787375,69.795375 L51.732375,44.734875 L138.987375,44.734875 Z" id="Fill-16" fill="#FFFFFF" mask="url(#mask-2)"></path>
                    <path d="M55.086525,30.966825 C55.086525,28.943325 53.942775,27.300075 51.914025,27.300075 L44.570025,27.300075 C42.711525,27.300075 41.594025,28.682325 41.418525,30.483825 C41.380275,30.636075 41.352525,30.798075 41.352525,30.966825 L40.860525,42.945825 C40.860525,43.865325 41.508525,44.607825 42.305025,44.607825 C43.112775,44.607825 43.751775,43.865325 43.751775,42.945825 L43.751775,31.815825 L44.429775,39.615075 C44.429775,39.615825 44.429775,39.616575 44.429775,39.617325 L44.429775,59.105325 C44.429775,60.064575 45.238275,60.840075 46.223775,60.764325 C47.105025,60.696825 47.747775,59.887575 47.747775,59.003325 L47.747775,43.332075 C47.904525,43.324575 48.055275,43.316325 48.219525,43.316325 C48.381525,43.316325 48.541275,43.324575 48.689025,43.332075 L48.689025,59.048325 C48.689025,59.727075 49.058775,60.387825 49.688775,60.639075 C50.872275,61.110825 52.010775,60.234825 52.010775,59.105325 L52.010775,39.617325 L52.010775,39.615075 L52.640775,32.238825 L52.640775,42.945825 C52.640775,43.865325 53.305275,44.607825 54.110775,44.607825 C54.924525,44.607825 55.585275,43.865325 55.585275,42.945825 L55.086525,30.966825 Z M45.252525,24.287325 L45.477525,24.143325 C46.025775,25.394325 47.054025,26.462325 48.230025,26.462325 C49.400025,26.462325 50.416275,25.402575 50.974275,24.169575 L51.184275,24.287325 C51.357525,24.303825 51.518025,24.159075 51.532275,23.948325 L51.647025,22.650075 C51.661275,22.465575 51.554775,22.310325 51.414525,22.272075 C51.403275,20.519325 49.979775,19.112325 48.230025,19.112325 C46.481025,19.112325 45.062775,20.519325 45.046275,22.263825 C44.888025,22.296825 44.779275,22.454325 44.799525,22.650075 L44.912025,23.948325 C44.929275,24.159075 45.085275,24.303825 45.252525,24.287325 L45.252525,24.287325 Z" id="Fill-17" fill="#7C7C7C" mask="url(#mask-2)"></path>
                    <path d="M36.164775,41.552475 L32.028525,29.957475 L31.965525,29.760975 C31.607025,28.287225 30.548025,27.226725 28.925775,27.226725 L23.530275,27.226725 C21.848775,27.226725 20.769525,28.368225 20.447025,29.914725 L16.820025,41.543475 C16.648275,42.452475 17.145525,43.301475 17.941275,43.449975 C18.737025,43.596975 19.499025,42.974475 19.670025,42.079725 L22.493025,31.588725 L19.616025,50.643225 C19.613775,50.657475 19.624275,50.670225 19.639275,50.670225 L22.384275,50.670225 C22.397775,50.670225 22.409025,50.681475 22.409025,50.694225 L22.409025,58.989975 C22.409025,59.872725 23.042025,60.687225 23.921775,60.762975 C24.905025,60.848475 25.727025,60.066975 25.727025,59.099475 L25.727025,50.670225 L26.675775,50.670225 L26.675775,58.993725 C26.675775,59.876475 27.311025,60.689475 28.190775,60.762975 C29.177025,60.846975 29.999025,60.065475 29.999025,59.099475 L29.999025,50.694225 C29.999025,50.681475 30.010275,50.670225 30.023775,50.670225 L33.227025,50.670225 C33.241275,50.670225 33.252525,50.657475 33.250275,50.642475 L29.988525,31.591725 L33.297525,42.208725 C33.496275,43.097475 34.310025,43.677225 35.102025,43.494975 C35.890275,43.315725 36.367275,42.443475 36.164775,41.552475 L36.164775,41.552475 Z M29.580525,26.635725 C29.594775,26.635725 29.605275,26.624475 29.604525,26.609475 L29.360025,24.135225 L29.500275,23.869725 L29.606775,22.574475 C29.618025,22.389225 29.516775,22.234725 29.377275,22.191225 C29.366025,20.441475 27.942525,19.014975 26.187525,19.014975 C24.432525,19.014975 23.009025,20.436225 22.992525,22.188225 C22.839525,22.218225 22.725525,22.375725 22.742025,22.574475 L22.852275,23.869725 L22.986525,24.135225 L22.744275,26.609475 C22.742775,26.624475 22.754025,26.635725 22.768275,26.635725 L29.580525,26.635725 Z" id="Fill-18" fill="#7C7C7C" mask="url(#mask-2)"></path>
                    <path d="M97.4004,30.966825 C97.4004,28.943325 96.25665,27.300075 94.2279,27.300075 L86.88315,27.300075 C85.0254,27.300075 83.90715,28.682325 83.7324,30.483825 C83.69415,30.636075 83.6664,30.798075 83.6664,30.966825 L83.1744,42.945825 C83.1744,43.865325 83.8224,44.607825 84.6189,44.607825 C85.42665,44.607825 86.06565,43.865325 86.06565,42.945825 L86.06565,31.815825 L86.74365,39.615075 L86.74365,39.617325 L86.74365,59.105325 C86.74365,60.064575 87.55215,60.840075 88.53765,60.764325 C89.4189,60.696825 90.06165,59.887575 90.06165,59.003325 L90.06165,43.332075 C90.2184,43.324575 90.36915,43.316325 90.5334,43.316325 C90.6954,43.316325 90.85515,43.324575 91.0029,43.332075 L91.0029,59.048325 C91.0029,59.727075 91.37265,60.387825 92.00265,60.639075 C93.18615,61.110825 94.32465,60.234825 94.32465,59.105325 L94.32465,39.617325 L94.32465,39.615075 L94.95465,32.238825 L94.95465,42.945825 C94.95465,43.865325 95.61915,44.607825 96.42465,44.607825 C97.2384,44.607825 97.89915,43.865325 97.89915,42.945825 L97.4004,30.966825 Z M87.5664,24.287325 L87.7914,24.143325 C88.33965,25.394325 89.3679,26.462325 90.5439,26.462325 C91.7139,26.462325 92.73015,25.402575 93.28815,24.169575 L93.49815,24.287325 C93.6714,24.303825 93.83115,24.159075 93.84615,23.948325 L93.96015,22.650075 C93.97515,22.465575 93.86865,22.310325 93.7284,22.272075 C93.71715,20.519325 92.29365,19.112325 90.5439,19.112325 C88.7949,19.112325 87.37665,20.519325 87.36015,22.263825 C87.2019,22.296825 87.09315,22.454325 87.1134,22.650075 L87.2259,23.948325 C87.2424,24.159075 87.39915,24.303825 87.5664,24.287325 L87.5664,24.287325 Z" id="Fill-19" fill="#7C7C7C" mask="url(#mask-2)"></path>
                    <path d="M79.978275,41.552475 L75.842025,29.957475 L75.779775,29.760975 C75.420525,28.287225 74.362275,27.226725 72.739275,27.226725 L67.343775,27.226725 C65.663025,27.226725 64.583775,28.368225 64.261275,29.914725 L60.633525,41.543475 C60.462525,42.452475 60.959025,43.301475 61.754775,43.449975 C62.550525,43.596975 63.312525,42.974475 63.484275,42.079725 L66.307275,31.588725 L63.429525,50.643225 C63.427275,50.657475 63.438525,50.670225 63.452775,50.670225 L66.198525,50.670225 C66.212025,50.670225 66.222525,50.681475 66.222525,50.694225 L66.222525,58.989975 C66.222525,59.872725 66.856275,60.687225 67.735275,60.762975 C68.718525,60.848475 69.540525,60.066975 69.540525,59.099475 L69.540525,50.670225 L70.489275,50.670225 L70.489275,58.993725 C70.489275,59.876475 71.125275,60.689475 72.005025,60.762975 C72.990525,60.846975 73.813275,60.065475 73.813275,59.099475 L73.813275,50.694225 C73.813275,50.681475 73.823775,50.670225 73.837275,50.670225 L77.040525,50.670225 C77.055525,50.670225 77.066775,50.657475 77.063775,50.642475 L73.802025,31.591725 L77.111025,42.208725 C77.309775,43.097475 78.124275,43.677225 78.915525,43.494975 C79.703775,43.315725 80.180775,42.443475 79.978275,41.552475 L79.978275,41.552475 Z M73.394025,26.635725 C73.408275,26.635725 73.419525,26.624475 73.418025,26.609475 L73.174275,24.135225 L73.313775,23.869725 L73.421025,22.574475 C73.431525,22.389225 73.330275,22.234725 73.190775,22.191225 C73.179525,20.441475 71.756025,19.014975 70.001025,19.014975 C68.246025,19.014975 66.822525,20.436225 66.806025,22.188225 C66.653025,22.218225 66.539025,22.375725 66.555525,22.574475 L66.665775,23.869725 L66.800775,24.135225 L66.557775,26.609475 C66.557025,26.624475 66.568275,26.635725 66.581775,26.635725 L73.394025,26.635725 Z" id="Fill-20" fill="#7C7C7C" mask="url(#mask-2)"></path>
                    <path d="M141.353775,30.966825 C141.353775,28.943325 140.210025,27.300075 138.181275,27.300075 L130.837275,27.300075 C128.978775,27.300075 127.860525,28.682325 127.685775,30.483825 C127.647525,30.636075 127.619775,30.798075 127.619775,30.966825 L127.127775,42.945825 C127.127775,43.865325 127.775775,44.607825 128.572275,44.607825 C129.380025,44.607825 130.019025,43.865325 130.019025,42.945825 L130.019025,31.815825 L130.696275,39.615075 C130.697025,39.615825 130.697025,39.616575 130.697025,39.617325 L130.697025,59.105325 C130.697025,60.064575 131.504775,60.840075 132.491025,60.764325 C133.372275,60.696825 134.015025,59.887575 134.015025,59.003325 L134.015025,43.332075 C134.171775,43.324575 134.322525,43.316325 134.486775,43.316325 C134.648775,43.316325 134.808525,43.324575 134.956275,43.332075 L134.956275,59.048325 C134.956275,59.727075 135.326025,60.387825 135.956025,60.639075 C137.139525,61.110825 138.278025,60.234825 138.278025,59.105325 L138.278025,39.617325 L138.278025,39.615075 L138.908025,32.238825 L138.908025,42.945825 C138.908025,43.865325 139.572525,44.607825 140.377275,44.607825 C141.191025,44.607825 141.852525,43.865325 141.852525,42.945825 L141.353775,30.966825 Z M131.519775,24.287325 L131.744025,24.143325 C132.293775,25.394325 133.320525,26.462325 134.497275,26.462325 C135.667275,26.462325 136.683525,25.402575 137.241525,24.169575 L137.451525,24.287325 C137.624025,24.303825 137.784525,24.159075 137.799525,23.948325 L137.913525,22.650075 C137.928525,22.465575 137.821275,22.310325 137.681775,22.272075 C137.670525,20.519325 136.247025,19.112325 134.497275,19.112325 C132.748275,19.112325 131.330025,20.519325 131.313525,22.263825 C131.155275,22.296825 131.046525,22.454325 131.066775,22.650075 L131.179275,23.948325 C131.195775,24.159075 131.352525,24.303825 131.519775,24.287325 L131.519775,24.287325 Z" id="Fill-21" fill="#7C7C7C" mask="url(#mask-2)"></path>
                    <path d="M122.43165,41.552475 L118.2954,29.957475 L118.23315,29.760975 C117.8739,28.287225 116.8149,27.226725 115.19265,27.226725 L109.79715,27.226725 C108.11565,27.226725 107.0364,28.368225 106.7139,29.914725 L103.0869,41.543475 C102.9159,42.452475 103.4124,43.301475 104.20815,43.449975 C105.0039,43.596975 105.7659,42.974475 105.9369,42.079725 L108.7599,31.588725 L105.8829,50.643225 C105.88065,50.657475 105.8919,50.670225 105.90615,50.670225 L108.6519,50.670225 C108.6654,50.670225 108.6759,50.681475 108.6759,50.694225 L108.6759,58.989975 C108.6759,59.872725 109.3089,60.687225 110.18865,60.762975 C111.1719,60.848475 111.9939,60.066975 111.9939,59.099475 L111.9939,50.670225 L112.94265,50.670225 L112.94265,58.993725 C112.94265,59.876475 113.57865,60.689475 114.4584,60.762975 C115.4439,60.846975 116.26665,60.065475 116.26665,59.099475 L116.26665,50.694225 C116.26665,50.681475 116.27715,50.670225 116.29065,50.670225 L119.4939,50.670225 C119.5089,50.670225 119.52015,50.657475 119.51715,50.642475 L116.2554,31.591725 L119.5644,42.208725 C119.76315,43.097475 120.57765,43.677225 121.3689,43.494975 C122.15715,43.315725 122.63415,42.443475 122.43165,41.552475 L122.43165,41.552475 Z M115.8474,26.635725 C115.86165,26.635725 115.8729,26.624475 115.8714,26.609475 L115.62765,24.135225 L115.76715,23.869725 L115.87365,22.574475 C115.8849,22.389225 115.78365,22.234725 115.64415,22.191225 C115.6329,20.441475 114.2094,19.014975 112.4544,19.014975 C110.6994,19.014975 109.2759,20.436225 109.2594,22.188225 C109.1064,22.218225 108.9924,22.375725 109.0089,22.574475 L109.11915,23.869725 L109.25415,24.135225 L109.01115,26.609475 C109.00965,26.624475 109.02165,26.635725 109.03515,26.635725 L115.8474,26.635725 Z" id="Fill-22" fill="#7C7C7C" mask="url(#mask-2)"></path>
                    <path d="M164.745825,41.552475 L160.608825,29.957475 L160.546575,29.760975 C160.188075,28.287225 159.129075,27.226725 157.506825,27.226725 L152.110575,27.226725 C150.429825,27.226725 149.350575,28.368225 149.028075,29.914725 L145.400325,41.543475 C145.229325,42.452475 145.726575,43.301475 146.521575,43.449975 C147.317325,43.596975 148.079325,42.974475 148.251075,42.079725 L151.074075,31.588725 L148.196325,50.643225 C148.194825,50.657475 148.205325,50.670225 148.220325,50.670225 L150.965325,50.670225 C150.978825,50.670225 150.989325,50.681475 150.989325,50.694225 L150.989325,58.989975 C150.989325,59.872725 151.623075,60.687225 152.502825,60.762975 C153.485325,60.848475 154.308075,60.066975 154.308075,59.099475 L154.308075,50.670225 L155.256825,50.670225 L155.256825,58.993725 C155.256825,59.876475 155.892075,60.689475 156.771825,60.762975 C157.758075,60.846975 158.580075,60.065475 158.580075,59.099475 L158.580075,50.694225 C158.580075,50.681475 158.590575,50.670225 158.604825,50.670225 L161.807325,50.670225 C161.822325,50.670225 161.833575,50.657475 161.830575,50.642475 L158.569575,31.591725 L161.878575,42.208725 C162.076575,43.097475 162.891075,43.677225 163.683075,43.494975 C164.471325,43.315725 164.948325,42.443475 164.745825,41.552475 L164.745825,41.552475 Z M158.161575,26.635725 C158.175075,26.635725 158.186325,26.624475 158.185575,26.609475 L157.941075,24.135225 L158.080575,23.869725 L158.187825,22.574475 C158.199075,22.389225 158.097825,22.234725 157.957575,22.191225 C157.947075,20.441475 156.522825,19.014975 154.767825,19.014975 C153.012825,19.014975 151.589325,20.436225 151.573575,22.188225 C151.419825,22.218225 151.305825,22.375725 151.323075,22.574475 L151.433325,23.869725 L151.567575,24.135225 L151.324575,26.609475 C151.323825,26.624475 151.335075,26.635725 151.349325,26.635725 L158.161575,26.635725 Z" id="Fill-23" fill="#7C7C7C" mask="url(#mask-2)"></path>
                    <path d="M43.08435,36.78885 C43.08435,34.60035 41.8476,32.8236 39.6531,32.8236 L31.7106,32.8236 C29.70135,32.8236 28.49235,34.31835 28.30335,36.2676 C28.26135,36.4311 28.23135,36.6066 28.23135,36.78885 L27.6996,49.7436 C27.6996,50.73885 28.40085,51.5421 29.2611,51.5421 C30.1356,51.5421 30.82635,50.73885 30.82635,49.7436 L30.82635,37.7076 L31.5591,46.1436 L31.5591,67.21935 C31.5591,68.2101 32.3556,69.0201 33.35535,69.0201 C34.3416,69.0201 35.14785,68.2101 35.14785,67.21935 L35.14785,50.1621 C35.31735,50.1531 35.48085,50.1441 35.65785,50.1441 C35.83335,50.1441 36.0066,50.1531 36.1656,50.1621 L36.1656,67.21935 C36.1656,68.2101 36.9726,69.0201 37.96185,69.0201 C38.9496,69.0201 39.7581,68.2101 39.7581,67.21935 L39.7581,46.1436 L40.43985,38.1651 L40.43985,49.7436 C40.43985,50.73885 41.15835,51.5421 42.02835,51.5421 C42.90885,51.5421 43.6236,50.73885 43.6236,49.7436 L43.08435,36.78885 Z M32.44935,29.5656 L32.69235,29.41035 C33.28635,30.7626 34.3971,31.9176 35.66985,31.9176 C36.93435,31.9176 38.03385,30.7716 38.63685,29.4381 L38.8641,29.5656 C39.0516,29.5836 39.22485,29.42685 39.2406,29.1981 L39.36435,27.7956 C39.3801,27.5946 39.2646,27.4281 39.1131,27.3861 C39.1011,25.4916 37.5621,23.9691 35.66985,23.9691 C33.7776,23.9691 32.24385,25.4916 32.2266,27.3771 C32.05485,27.4131 31.93785,27.58335 31.9596,27.7956 L32.0811,29.1981 C32.0991,29.42685 32.2686,29.5836 32.44935,29.5656 L32.44935,29.5656 Z" id="Fill-24" fill="#565656" mask="url(#mask-2)"></path>
                    <path d="M24.24315,48.23655 L19.77015,35.6973 L19.70265,35.48505 C19.31415,33.8913 18.1689,32.7453 16.41465,32.7453 L10.57965,32.7453 C8.7609,32.7453 7.5939,33.9783 7.24515,35.65155 L3.3219,48.22755 C3.1374,49.2108 3.67515,50.1288 4.5354,50.2893 C5.39565,50.44755 6.2199,49.7748 6.40515,48.80805 L9.4584,37.46205 L6.3414,58.09755 L9.3669,58.09755 L9.3669,67.21305 C9.3669,68.2068 10.1754,69.0198 11.1609,69.0198 C12.1524,69.0198 12.95565,68.2068 12.95565,67.21305 L12.95565,58.09755 L13.9809,58.09755 L13.9809,67.21305 C13.9809,68.2068 14.78565,69.0198 15.7749,69.0198 C16.7709,69.0198 17.57565,68.2068 17.57565,67.21305 L17.57565,58.09755 L21.0969,58.09755 L17.56365,37.46505 L21.14265,48.9468 C21.35715,49.9083 22.23765,50.53455 23.09415,50.33805 C23.94615,50.1438 24.46215,49.20105 24.24315,48.23655 L24.24315,48.23655 Z M17.15115,32.10555 L16.88415,29.40105 L17.03565,29.1138 L17.15115,27.71355 C17.16315,27.5133 17.05365,27.34605 16.90215,27.29805 C16.89015,25.40655 15.35115,23.8638 13.4529,23.8638 C11.5554,23.8638 10.01565,25.40055 9.99765,27.29505 C9.83265,27.32805 9.7089,27.4983 9.7269,27.71355 L9.8469,29.1138 L9.9924,29.40105 L9.7269,32.10555 L17.15115,32.10555 Z" id="Fill-25" fill="#565656" mask="url(#mask-2)"></path>
                    <path d="M87.222675,36.78885 C87.222675,34.60035 85.985925,32.8236 83.791425,32.8236 L75.848925,32.8236 C73.839675,32.8236 72.630675,34.31835 72.441675,36.2676 C72.399675,36.4311 72.369675,36.6066 72.369675,36.78885 L71.837925,49.7436 C71.837925,50.73885 72.539175,51.5421 73.399425,51.5421 C74.273925,51.5421 74.964675,50.73885 74.964675,49.7436 L74.964675,37.7076 L75.697425,46.1436 L75.697425,67.21935 C75.697425,68.2101 76.493925,69.0201 77.494425,69.0201 C78.479925,69.0201 79.286175,68.2101 79.286175,67.21935 L79.286175,50.1621 C79.455675,50.1531 79.619175,50.1441 79.796175,50.1441 C79.971675,50.1441 80.144925,50.1531 80.303925,50.1621 L80.303925,67.21935 C80.303925,68.2101 81.110925,69.0201 82.100175,69.0201 C83.087925,69.0201 83.896425,68.2101 83.896425,67.21935 L83.896425,46.1436 L84.578175,38.1651 L84.578175,49.7436 C84.578175,50.73885 85.296675,51.5421 86.167425,51.5421 C87.047175,51.5421 87.761925,50.73885 87.761925,49.7436 L87.222675,36.78885 Z M76.587675,29.5656 L76.831425,29.41035 C77.424675,30.7626 78.535425,31.9176 79.808175,31.9176 C81.072675,31.9176 82.172175,30.7716 82.775175,29.4381 L83.002425,29.5656 C83.189925,29.5836 83.363175,29.42685 83.378925,29.1981 L83.502675,27.7956 C83.518425,27.5946 83.402925,27.4281 83.251425,27.3861 C83.239425,25.4916 81.700425,23.9691 79.808175,23.9691 C77.915925,23.9691 76.382925,25.4916 76.364925,27.3771 C76.193175,27.4131 76.076175,27.58335 76.097925,27.7956 L76.219425,29.1981 C76.237425,29.42685 76.406925,29.5836 76.587675,29.5656 L76.587675,29.5656 Z" id="Fill-26" fill="#565656" mask="url(#mask-2)"></path>
                    <path d="M68.381475,48.23655 L63.908475,35.6973 L63.840975,35.48505 C63.452475,33.8913 62.307225,32.7453 60.552975,32.7453 L54.717975,32.7453 C52.899225,32.7453 51.732225,33.9783 51.384225,35.65155 L47.460975,48.22755 C47.275725,49.2108 47.813475,50.1288 48.673725,50.2893 C49.533975,50.44755 50.358225,49.7748 50.543475,48.80805 L53.596725,37.46205 L50.479725,58.09755 L53.505225,58.09755 L53.505225,67.21305 C53.505225,68.2068 54.313725,69.0198 55.299225,69.0198 C56.290725,69.0198 57.093975,68.2068 57.093975,67.21305 L57.093975,58.09755 L58.119225,58.09755 L58.119225,67.21305 C58.119225,68.2068 58.923975,69.0198 59.913225,69.0198 C60.909225,69.0198 61.713975,68.2068 61.713975,67.21305 L61.713975,58.09755 L65.235225,58.09755 L61.701975,37.46505 L65.280975,48.9468 C65.495475,49.9083 66.375975,50.53455 67.232475,50.33805 C68.084475,50.1438 68.600475,49.20105 68.381475,48.23655 L68.381475,48.23655 Z M61.289475,32.10555 L61.022475,29.40105 L61.174725,29.1138 L61.289475,27.71355 C61.302225,27.5133 61.192725,27.34605 61.040475,27.29805 C61.029225,25.40655 59.489475,23.8638 57.591975,23.8638 C55.693725,23.8638 54.153975,25.40055 54.135975,27.29505 C53.970975,27.32805 53.847975,27.4983 53.865975,27.71355 L53.985225,29.1138 L54.130725,29.40105 L53.865975,32.10555 L61.289475,32.10555 Z" id="Fill-27" fill="#565656" mask="url(#mask-2)"></path>
                    <path d="M129.889875,36.78885 C129.889875,34.60035 128.653125,32.8236 126.458625,32.8236 L118.516125,32.8236 C116.506875,32.8236 115.297875,34.31835 115.108875,36.2676 C115.066875,36.4311 115.036875,36.6066 115.036875,36.78885 L114.505125,49.7436 C114.505125,50.73885 115.206375,51.5421 116.066625,51.5421 C116.941125,51.5421 117.631875,50.73885 117.631875,49.7436 L117.631875,37.7076 L118.364625,46.1436 L118.364625,67.21935 C118.364625,68.2101 119.161125,69.0201 120.160875,69.0201 C121.147125,69.0201 121.953375,68.2101 121.953375,67.21935 L121.953375,50.1621 C122.122875,50.1531 122.286375,50.1441 122.463375,50.1441 C122.638875,50.1441 122.811375,50.1531 122.971125,50.1621 L122.971125,67.21935 C122.971125,68.2101 123.778125,69.0201 124.767375,69.0201 C125.755125,69.0201 126.563625,68.2101 126.563625,67.21935 L126.563625,46.1436 L127.245375,38.1651 L127.245375,49.7436 C127.245375,50.73885 127.963875,51.5421 128.833875,51.5421 C129.714375,51.5421 130.429875,50.73885 130.429875,49.7436 L129.889875,36.78885 Z M119.254875,29.5656 L119.497875,29.41035 C120.091875,30.7626 121.202625,31.9176 122.475375,31.9176 C123.739875,31.9176 124.839375,30.7716 125.442375,29.4381 L125.669625,29.5656 C125.857125,29.5836 126.030375,29.42685 126.046125,29.1981 L126.169875,27.7956 C126.185625,27.5946 126.070125,27.4281 125.918625,27.3861 C125.906625,25.4916 124.367625,23.9691 122.475375,23.9691 C120.583125,23.9691 119.049375,25.4916 119.032125,27.3771 C118.860375,27.4131 118.743375,27.58335 118.765125,27.7956 L118.886625,29.1981 C118.904625,29.42685 119.074125,29.5836 119.254875,29.5656 L119.254875,29.5656 Z" id="Fill-28" fill="#565656" mask="url(#mask-2)"></path>
                    <path d="M111.048675,48.23655 L106.575675,35.6973 L106.508175,35.48505 C106.119675,33.8913 104.974425,32.7453 103.220175,32.7453 L97.385175,32.7453 C95.566425,32.7453 94.399425,33.9783 94.050675,35.65155 L90.127425,48.22755 C89.942925,49.2108 90.479925,50.1288 91.340925,50.2893 C92.201175,50.44755 93.025425,49.7748 93.210675,48.80805 L96.263925,37.46205 L93.146925,58.09755 L96.172425,58.09755 L96.172425,67.21305 C96.172425,68.2068 96.980925,69.0198 97.966425,69.0198 C98.957925,69.0198 99.760425,68.2068 99.760425,67.21305 L99.760425,58.09755 L100.786425,58.09755 L100.786425,67.21305 C100.786425,68.2068 101.591175,69.0198 102.580425,69.0198 C103.576425,69.0198 104.381175,68.2068 104.381175,67.21305 L104.381175,58.09755 L107.902425,58.09755 L104.369175,37.46505 L107.948175,48.9468 C108.162675,49.9083 109.043175,50.53455 109.899675,50.33805 C110.751675,50.1438 111.267675,49.20105 111.048675,48.23655 L111.048675,48.23655 Z M103.956675,32.10555 L103.689675,29.40105 L103.841175,29.1138 L103.956675,27.71355 C103.968675,27.5133 103.859175,27.34605 103.707675,27.29805 C103.695675,25.40655 102.156675,23.8638 100.258425,23.8638 C98.360925,23.8638 96.821175,25.40055 96.803175,27.29505 C96.638175,27.32805 96.514425,27.4983 96.532425,27.71355 L96.652425,29.1138 L96.797925,29.40105 L96.532425,32.10555 L103.956675,32.10555 Z" id="Fill-29" fill="#565656" mask="url(#mask-2)"></path>
                    <path d="M174.027825,36.78885 C174.027825,34.60035 172.791825,32.8236 170.597325,32.8236 L162.654825,32.8236 C160.644825,32.8236 159.436575,34.31835 159.246825,36.2676 C159.204825,36.4311 159.175575,36.6066 159.175575,36.78885 L158.643075,49.7436 C158.643075,50.73885 159.345075,51.5421 160.204575,51.5421 C161.079075,51.5421 161.769825,50.73885 161.769825,49.7436 L161.769825,37.7076 L162.503325,46.1436 L162.503325,67.21935 C162.503325,68.2101 163.299825,69.0201 164.299575,69.0201 C165.285825,69.0201 166.092075,68.2101 166.092075,67.21935 L166.092075,50.1621 C166.261575,50.1531 166.424325,50.1441 166.602075,50.1441 C166.776825,50.1441 166.950075,50.1531 167.109075,50.1621 L167.109075,67.21935 C167.109075,68.2101 167.916075,69.0201 168.906075,69.0201 C169.893075,69.0201 170.701575,68.2101 170.701575,67.21935 L170.701575,46.1436 L171.383325,38.1651 L171.383325,49.7436 C171.383325,50.73885 172.102575,51.5421 172.972575,51.5421 C173.853075,51.5421 174.567825,50.73885 174.567825,49.7436 L174.027825,36.78885 Z M163.392825,29.5656 L163.636575,29.41035 C164.230575,30.7626 165.341325,31.9176 166.613325,31.9176 C167.878575,31.9176 168.978075,30.7716 169.581075,29.4381 L169.808325,29.5656 C169.995075,29.5836 170.168325,29.42685 170.184825,29.1981 L170.307825,27.7956 C170.324325,27.5946 170.208075,27.4281 170.056575,27.3861 C170.044575,25.4916 168.505575,23.9691 166.613325,23.9691 C164.721825,23.9691 163.188075,25.4916 163.170075,27.3771 C162.999075,27.4131 162.882075,27.58335 162.903825,27.7956 L163.025325,29.1981 C163.043325,29.42685 163.212075,29.5836 163.392825,29.5656 L163.392825,29.5656 Z" id="Fill-30" fill="#565656" mask="url(#mask-2)"></path>
                    <path d="M155.187,48.23655 L150.714,35.6973 L150.6465,35.48505 C150.258,33.8913 149.11275,32.7453 147.3585,32.7453 L141.5235,32.7453 C139.70475,32.7453 138.5385,33.9783 138.18975,35.65155 L134.26575,48.22755 C134.0805,49.2108 134.61825,50.1288 135.47925,50.2893 C136.3395,50.44755 137.1645,49.7748 137.349,48.80805 L140.40225,37.46205 L137.28525,58.09755 L140.31075,58.09755 L140.31075,67.21305 C140.31075,68.2068 141.1185,69.0198 142.10475,69.0198 C143.097,69.0198 143.89875,68.2068 143.89875,67.21305 L143.89875,58.09755 L144.92475,58.09755 L144.92475,67.21305 C144.92475,68.2068 145.7295,69.0198 146.7195,69.0198 C147.71475,69.0198 148.5195,68.2068 148.5195,67.21305 L148.5195,58.09755 L152.04075,58.09755 L148.5075,37.46505 L152.0865,48.9468 C152.301,49.9083 153.1815,50.53455 154.038,50.33805 C154.89,50.1438 155.406,49.20105 155.187,48.23655 L155.187,48.23655 Z M148.095,32.10555 L147.828,29.40105 L147.98025,29.1138 L148.095,27.71355 C148.10775,27.5133 147.9975,27.34605 147.84675,27.29805 C147.834,25.40655 146.295,23.8638 144.39675,23.8638 C142.49925,23.8638 140.9595,25.40055 140.9415,27.29505 C140.7765,27.32805 140.65275,27.4983 140.6715,27.71355 L140.79075,29.1138 L140.9355,29.40105 L140.6715,32.10555 L148.095,32.10555 Z" id="Fill-31" fill="#565656" mask="url(#mask-2)"></path>
                </g>
            </g>
        </g>
    </g>
</svg>