<?xml version="1.0" encoding="UTF-8"?>
<svg width="220px" height="129px" viewBox="0 0 220 129" version="1.1" xmlns="http://www.w3.org/2000/svg" xmlns:xlink="http://www.w3.org/1999/xlink">
    <!-- Generator: Sketch 59.1 (86144) - https://sketch.com -->
    <title>Group 75</title>
    <desc>Created with Sketch.</desc>
    <defs>
        <polygon id="path-1" points="0.44445 0.62775 13.95645 0.62775 13.95645 14.1393 0.44445 14.1393"></polygon>
        <polygon id="path-3" points="0 0.0729 13.51185 0.0729 13.51185 13.5849 0 13.5849"></polygon>
    </defs>
    <g id="Desktop" stroke="none" stroke-width="1" fill="none" fill-rule="evenodd">
        <g id="Homelessness-Section-3-9" transform="translate(-548.000000, -2468.000000)">
            <g id="Group-75" transform="translate(548.000000, 2468.000000)">
                <path d="M12.720375,98.4063 L11.986875,98.24355 L10.429125,99.34305 L9.625875,99.62355 L8.782875,100.7748 L8.579625,101.91555 L7.596375,102.9108 L6.137625,102.9858 L5.639625,104.26455 L6.801375,104.9823 L7.560375,105.8733 L8.136375,106.9263 L9.141375,107.72655 L9.730875,108.85005 L8.247375,108.9168 L8.356875,107.9148 L7.597875,107.9148 L5.741625,108.91455 L4.529625,109.7973 L5.608125,110.98455 L5.957625,111.76905 L7.198125,112.24155 L8.335125,112.03155 L9.018375,112.47405 L9.295125,112.0083 L10.118625,111.6138 L10.414125,111.6018 L9.877125,112.2543 L10.374375,112.62255 L10.510125,113.3883 L9.958875,113.8938 L9.361125,113.7348 L8.715375,114.5928 L8.194875,114.32505 L7.462875,114.47205 L7.162875,115.4193 L6.509625,116.38155 L6.172875,117.43155 L6.808125,118.1613 L6.812625,119.1123 L7.388625,119.5188 L8.107875,120.3168 L9.162375,120.00855 L9.619125,120.50955 L9.479625,121.06305 L9.556875,122.0868 L10.159125,122.08905 L10.903875,121.51155 L11.245125,122.3853 L11.482125,121.77705 L11.986125,122.5278 L12.436125,121.94955 L12.673875,122.19255 L13.453125,121.79805 L13.136625,122.5023 L12.993375,123.65055 L12.418875,124.1613 L12.229875,124.4658 L11.118375,125.3388 L10.723125,125.92455 L9.727875,126.0858 L8.863125,126.87555 L8.060625,127.3188 L7.115625,128.01705 L7.309875,128.37255 L8.764875,127.95555 L9.457125,127.4793 L10.277625,126.99855 L11.008875,126.61305 L11.569875,126.7248 L12.569625,126.0783 L12.824625,125.39655 L14.092875,124.63305 L14.292375,123.9738 L15.081375,123.52605 L15.953625,122.8878 L16.773375,121.7058 L16.189125,120.95055 L17.302875,119.86155 L17.864625,118.7643 L18.806625,117.91455 L18.942375,118.1718 L18.118875,118.6623 L17.742375,120.3093 L17.874375,121.36605 L18.869625,120.9918 L19.594125,120.45105 L20.509875,120.1203 L21.031125,119.99955 L20.863125,118.8543 L21.659625,118.5453 L22.600125,119.2308 L24.215625,119.98905 L25.339875,119.84955 L26.739375,120.4188 L27.499125,120.7173 L29.161125,122.33655 L30.133125,122.79405 L31.445625,122.8383 L32.169375,122.9313 L32.589375,124.30605 L33.637125,125.5113 L33.868125,126.78405 L34.600875,127.25055 L35.107875,127.8558 L35.635125,127.06155 L35.611875,126.0903 L34.216875,125.1528 L33.399375,123.4743 L32.893125,122.3793 L32.139375,121.66005 L31.603875,121.03005 L31.132875,120.1248 L30.241875,120.6903 L29.506875,121.5093 L28.843125,120.55155 L28.277625,119.84805 L27.466125,119.37855 L26.709375,119.3238 L26.717625,101.11455 L25.796625,100.77255 L24.535125,100.04205 L23.452875,100.4283 L22.861875,100.13655 L21.289875,99.9048 L19.564875,99.1368 L18.734625,99.3798 L17.581875,98.99505 L17.631375,98.4153 L16.135125,98.2548 L15.826875,98.6643 L15.288375,97.6368 L13.975125,97.0668 L12.720375,98.4063 Z M1.594875,114.12105 L1.849875,114.3303 L2.557875,114.2253 L2.851125,114.53205 L3.511125,114.9498 L4.195125,114.5283 L4.297875,114.22305 L3.423375,113.96055 L2.743875,113.46255 L2.238375,113.65005 L1.654125,113.2428 L1.594875,114.12105 Z M5.034375,119.5218 L5.643375,120.0663 L6.212625,120.3888 L6.802125,120.0918 L6.710625,119.35455 L5.987625,119.18805 L5.034375,119.5218 Z M16.236375,123.2553 L15.459375,123.8238 L15.598875,124.60155 L16.082625,125.04555 L16.947375,124.4418 L17.707125,123.6738 L17.303625,123.1203 L16.705875,123.00405 L16.236375,123.2553 Z" id="Fill-1" fill="#B7B7B7"></path>
                <g id="Group-74" transform="translate(0.000000, 0.122250)">
                    <path d="M208.944,28.8477 C208.923,28.91595 208.89975,29.0037 208.88325,29.1072 C208.89975,29.01945 208.923,28.93545 208.923,28.87245 C208.89975,28.91145 208.88325,28.93545 208.8615,28.98945 C208.89975,28.91595 208.89975,28.8477 208.944,28.79895 L208.944,28.8477 Z M183.576,60.69645 C183.63675,60.7842 183.67575,60.81795 183.73725,60.88695 C183.66825,60.80295 183.576,60.71595 183.49275,60.63345 C183.51075,60.6807 183.55425,60.6807 183.576,60.69645 L183.576,60.69645 Z M219.18375,24.9297 L219.18375,24.68595 C219.153,24.7197 219.123,24.77895 219.11025,24.8277 C219.11025,24.70545 219.027,24.63195 218.99625,24.5532 C218.8665,24.84195 218.466,24.40245 218.805,24.2262 C218.8665,24.2112 218.9055,24.19245 218.94975,24.15795 L218.94975,24.1527 L218.94975,24.0837 L218.88825,24.06495 L218.8275,23.88345 L218.8275,23.82495 L218.78325,23.79045 L218.70075,23.62395 L218.70075,23.57145 L218.67075,23.5362 L218.57925,23.36445 L218.57925,23.35095 L218.466,23.35095 L218.4135,23.31645 L218.3835,23.3997 L218.23125,23.46795 L217.974,23.46795 L217.8435,23.3997 L217.8,23.31645 L217.70925,23.2722 L217.617,23.13045 L217.548,22.9692 L217.548,22.94895 L217.47375,22.87095 L217.464,22.7982 L217.3605,22.7487 L217.31325,22.57245 L217.31325,22.43595 L217.3605,22.27995 L217.434,22.26045 L217.434,22.1817 L217.47375,22.02045 L217.3605,21.95145 L217.31325,21.78045 L217.31325,21.39945 L217.3605,21.2127 L217.464,21.11145 L217.17825,21.11145 L217.0245,21.03195 L216.9735,20.99295 L216.82125,20.99295 L216.678,20.9097 L216.64725,20.81745 L216.555,20.7822 L216.534,20.73495 L216.4725,20.73495 L216.32925,20.65095 L216.216,20.51445 L216.16425,20.42145 L216.0855,20.38695 L216.033,20.2152 L216.07275,20.0787 L216.033,19.95645 L216.033,19.8297 L216.0855,19.6527 L216.16425,19.6182 L216.13275,19.5507 L216.13275,19.29645 L216.16425,19.2282 L216.13275,19.16895 L216.13275,13.3197 C216.09375,13.29045 216.0855,13.2702 216.07275,13.2312 L216.003,13.2312 L215.85075,13.18695 L215.8155,13.08495 L215.75475,13.0362 L215.69325,12.9432 L215.63325,12.9087 L215.55,12.7377 L215.55,12.6747 L215.511,12.6492 L215.46675,12.5427 L215.38875,12.50295 L215.35875,12.44895 L215.30625,12.44895 L215.154,12.39045 L215.11125,12.28245 L215.0505,12.2382 L215.019,12.1947 L214.95825,12.1947 L214.815,12.1122 L214.77525,12.02295 L214.69275,11.9892 L214.67175,11.9217 L214.61025,11.9217 L214.44525,11.85195 L214.4355,11.79945 L214.34475,11.79945 L214.34475,11.9502 L214.28325,12.1122 L214.14,12.1947 L213.78375,12.1947 L213.7095,12.17595 L213.6705,12.1947 L213.5265,12.1947 L213.483,12.2487 L213.40425,12.28245 L213.3615,12.39045 L213.20025,12.44895 L212.82225,12.44895 L212.76975,12.50295 L212.61675,12.5817 L212.54325,12.5817 L212.54325,12.6492 L212.391,12.7137 L212.15475,12.7137 L212.00325,12.6492 L211.9725,12.5817 L211.90725,12.5817 L211.7685,12.50295 L211.725,12.44895 L211.68525,12.44895 L211.542,12.39045 L211.48125,12.20895 L211.48125,12.18045 L211.41975,12.1212 C211.398,12.10695 211.398,12.07245 211.398,12.02295 C211.37625,11.9892 211.35975,11.9742 211.35975,11.9502 L211.35975,11.48595 L211.299,11.4567 L211.22475,11.3637 L211.059,11.26545 L210.93675,11.4312 L210.8235,11.6622 L210.81525,11.68095 L210.5715,12.07245 L210.558,12.1122 L210.31425,12.37095 L210.31425,12.39045 L210.08775,12.6492 L209.8845,12.88995 L209.64825,13.2612 L209.61825,13.29045 L209.3925,13.54995 L209.17875,13.92195 L208.965,14.3082 L208.7175,14.7042 L208.6785,14.74245 L208.452,14.99745 L208.2555,15.2172 L208.0425,16.5627 L208.0425,16.6647 L207.9825,16.8462 L207.8385,16.90395 L207.7695,16.90395 L207.756,16.9737 L207.67275,17.0022 L207.6555,17.10495 L207.582,17.1102 L207.582,17.1927 L207.5295,17.38395 L207.3675,17.4327 L207.3465,17.4327 L207.3465,17.5842 L207.28575,17.7162 L207.32925,17.7612 C207.3675,17.78445 207.429,17.8437 207.45075,17.8827 C207.4815,17.97645 207.45975,18.0882 207.40725,18.17145 L207.3465,18.22545 L207.3465,18.2442 L207.28575,18.41595 L207.22425,18.43545 L207.22425,18.5037 L207.17325,18.66495 L207.28575,18.73845 L207.3465,18.90945 L207.3465,19.29645 L207.28575,19.4427 L207.20325,19.5012 L207.17325,19.59945 L207.1035,19.6182 L207.042,19.73595 L206.877,19.78995 L206.8455,19.78995 L206.8065,19.8732 L206.77575,19.87845 L206.8065,19.89345 C206.877,19.9812 206.877,20.0787 206.868,20.1717 C206.8455,20.2497 206.77575,20.27895 206.733,20.30895 L206.70225,20.38695 L206.6325,20.42145 L206.589,20.51445 L206.43675,20.57745 L206.385,20.57745 L206.34525,20.65095 L206.193,20.73495 L206.1195,20.73495 L206.1195,20.7822 L206.02725,20.81745 L206.01975,20.9097 L205.854,20.99295 L205.833,20.99295 L205.833,20.99745 L205.7715,21.1692 L205.671,21.2037 C205.671,21.2577 205.64925,21.2862 205.611,21.3207 L205.64925,21.35595 L205.671,21.43845 L205.7715,21.47295 L205.81425,21.58995 L205.884,21.61395 L205.9455,21.78045 L205.9455,21.9177 L205.884,22.09395 L205.719,22.15245 L205.38375,22.15245 L205.218,22.09395 L205.218,22.12245 L205.24125,22.1817 L205.24125,22.30395 L205.15725,22.48545 L205.0575,22.61295 L205.03575,22.6422 L205.03575,22.69995 L204.945,22.87095 L204.80175,22.94895 L204.666,22.94895 L204.54375,22.87095 L204.474,22.69995 L204.474,22.6422 L204.39975,22.61295 L204.36975,22.48545 L204.27825,22.50945 L204.2565,22.61295 L204.09525,22.69545 L204.07425,22.69545 L204.07425,22.69995 L204.0135,22.87095 L203.8695,22.94895 L203.625,22.94895 L203.4825,22.87095 L203.40825,22.81245 L203.3985,22.81245 L203.24625,22.7487 L203.22525,22.7097 L203.18625,22.7487 L203.11275,22.7982 L203.09025,22.87095 L203.02875,22.9062 L203.02875,23.1012 L202.96875,23.2722 L202.91625,23.29695 L202.91625,23.36445 L202.8255,23.5362 L202.764,23.57145 L202.72425,23.65395 L202.6815,23.7222 L202.6815,23.88345 C202.6815,24.03045 202.581,24.13845 202.47675,24.13845 L201.576,24.13845 L201.40125,24.2262 L201.29325,24.2607 L198.4905,24.2607 L198.3345,24.19245 L198.27225,24.13845 L195.61425,24.13845 L195.27825,24.2262 L195.22575,24.2607 L190.07775,24.2607 L189.999,24.2262 L189.978,24.2607 L189.90375,24.2607 L189.8955,24.32445 L189.73425,24.40245 L189.53775,24.40245 L189.5295,24.4467 L189.3645,24.5337 L189.3555,24.5337 L189.30375,24.5877 L189.15975,24.65145 L188.9775,24.65145 L188.946,24.70545 L188.87175,24.7437 L188.83275,24.84195 L188.6775,24.91545 L188.54625,24.91545 L188.4855,24.9747 L188.40225,25.0137 L188.3715,25.10145 L188.259,25.2387 C188.21925,25.2777 188.18925,25.2777 188.1765,25.2972 L188.13675,25.36095 L187.97175,25.4532 L187.932,25.4532 C187.932,25.49295 187.8705,25.5267 187.8285,25.5507 L187.65375,25.6632 L187.545,25.75695 L187.19775,26.16195 L187.1535,26.20695 L186.93975,26.3292 L186.909,26.3727 L186.909,26.3877 L186.849,26.56395 L186.70575,26.6322 L186.6615,26.6322 L186.64425,26.66595 L186.53925,26.8767 L186.50025,26.94045 L186.4185,27.0627 L186.31275,27.2682 L186.20475,27.39045 L186.009,27.4932 L185.9175,27.6057 L185.7435,27.66345 L185.5605,27.66345 L185.478,27.8007 C185.43375,27.88395 185.3955,27.9432 185.2905,27.9432 L185.15175,27.9432 L185.15175,28.08945 L185.10825,28.2612 L184.926,28.3332 L184.65975,28.3332 L184.61625,28.40295 L184.494,28.45245 L184.43325,28.5882 L184.38075,28.6572 L184.16775,28.91145 L183.71475,29.5377 L183.267,30.4227 L183.267,30.44745 L182.80575,31.24395 L182.59275,31.34145 L175.53375,31.34145 L174.633,31.7337 L173.919,32.1252 L174.2445,32.79945 L174.34575,32.90745 L174.4065,33.07845 L174.4065,33.72345 L174.4065,33.75345 L174.4065,33.7677 C174.45,33.8112 174.48975,33.8367 174.50175,33.8847 C174.624,33.8997 174.7155,33.95445 174.75525,34.0422 C174.77625,34.09095 174.75525,34.2132 174.73725,34.3047 L174.81525,34.3692 L174.8805,34.5207 L174.8805,34.7802 L174.8805,34.84845 L174.80625,35.0502 C174.8805,35.2062 174.8895,35.3622 174.7155,35.46945 C173.6715,36.3102 172.617,37.13745 171.55575,37.9587 C169.76325,39.39195 167.352,39.5052 165.507,40.79595 C165.19275,41.00145 164.958,41.3292 164.67075,41.5542 C163.96575,42.0867 163.25625,42.0327 162.4215,42.1362 C162.09,42.18495 161.77275,42.35595 161.4765,42.41445 C160.824,42.5262 159.8625,42.35595 159.20925,42.1257 C159.5355,41.8662 159.8835,41.99895 160.20975,41.8617 C160.536,41.7252 160.5675,41.73945 160.0875,41.5632 C159.27825,41.2452 158.439,40.9812 157.61175,40.68795 C157.977,40.0227 158.31675,39.37245 158.6745,38.7027 L158.6745,38.67795 L158.6745,38.1837 L158.748,38.02695 L158.79525,37.9587 L158.79525,37.8027 L158.862,37.6317 L159.0225,37.55745 L159.03525,37.55745 L159.105,37.50945 L159.24825,37.4262 L159.348,37.4262 C159.5445,37.06395 159.7575,36.70245 159.9315,36.3552 C160.2405,35.76795 160.5675,35.75895 160.65825,36.3747 L160.74975,36.3747 C160.88475,36.0267 161.007,35.6847 161.1195,35.3427 L161.1195,34.7802 L161.19375,34.6092 L161.2545,34.56495 L161.2545,34.5207 L161.31525,34.3692 L161.37675,34.3047 L161.37675,34.25745 L161.39775,34.15395 L161.4285,34.0557 C161.39775,33.95445 161.35425,33.83145 161.2845,33.6357 C161.2545,33.43995 161.19375,33.21045 161.16375,33.00945 C161.0895,32.5752 161.067,32.1537 160.96725,31.7337 C160.824,30.9462 160.824,29.85045 160.293,29.2392 C159.5535,28.40295 158.6955,29.27295 157.938,29.73795 C157.59,29.9622 156.21,31.1127 155.8845,30.73095 C155.74875,30.55395 155.84025,30.2322 155.8545,30.02145 C155.8845,29.85045 155.9145,29.5857 156.03675,29.3952 C156.30225,28.95945 156.876,29.1612 157.14225,28.76445 C157.2945,28.51995 157.18125,28.2462 157.2945,27.99195 C157.46775,27.6297 157.85625,27.72795 158.06025,27.4242 C158.28675,27.0627 158.28675,25.6347 158.226,25.2042 C158.15175,24.63195 156.99825,23.35095 158.28675,23.8152 C158.277,23.3307 158.06025,23.35095 157.938,23.01345 C157.87725,22.7982 157.89825,22.5777 157.8165,22.45545 C157.63425,22.12245 156.94575,21.93195 156.6495,21.78045 C156.21975,21.61395 155.772,21.54645 155.3925,21.3612 C155.01375,21.18945 154.953,20.61195 154.43925,20.4987 C154.12125,20.44095 153.948,20.52795 153.65175,20.4057 C153.43875,20.27895 153.25125,20.0592 153.0075,19.96095 C152.781,19.8882 152.1375,19.7562 151.96275,19.95645 C151.68,20.2497 151.53675,21.86295 152.1585,21.8007 C151.719,22.1472 151.0845,21.8937 150.636,22.35345 C150.2565,22.7487 150.38775,23.35095 150.34875,23.91795 C150.309,24.5532 150.13575,23.9322 149.90025,24.07545 C149.757,24.1527 149.60025,24.89595 149.52225,25.06245 C149.2815,24.7392 149.52225,24.40245 149.5695,24.05445 C149.52225,24.05445 149.52225,24.0837 149.4915,24.0837 C149.52225,23.88345 149.7735,22.94895 149.478,23.0322 C149.40825,23.0622 149.09925,23.5902 149.0175,23.67795 C148.947,23.82495 148.87275,24.15795 148.734,24.2262 C148.608,24.32445 148.5165,24.07545 148.42575,24.1227 C148.3245,24.15795 148.281,24.3087 148.1805,24.3822 C148.08975,24.4167 147.91575,24.35895 147.8715,24.40245 C147.68925,24.65145 147.6465,25.06245 147.47175,25.32195 C147.4245,25.4097 147.228,25.3947 147.17625,25.49295 C146.6445,26.2557 146.57475,27.66345 146.29725,28.5747 C146.136,29.07345 146.4315,29.50245 146.4795,30.0417 C146.55375,30.7107 146.2665,31.39545 146.41875,32.06595 C146.49225,32.45295 146.72775,33.26895 147.1455,32.9262 C147.159,33.49395 147.159,33.8112 147.25875,34.2867 C147.29775,34.57545 147.27975,34.87845 147.28875,35.16195 C147.3195,37.2162 145.89675,38.90295 144.978,40.57545 C145.19175,40.57545 145.55325,40.5027 145.74375,40.57545 C145.97025,40.68795 146.136,41.07495 146.15325,41.4357 C146.136,41.0202 145.87875,40.63995 145.4565,40.57545 C144.765,40.5027 144.3555,41.10345 143.72025,41.2407 C143.25,41.3292 142.53225,41.07495 142.34925,40.6197 C141.79725,39.37245 141.327,38.4537 141.3435,37.06395 C141.40875,35.9202 141.1215,34.7457 141.03075,33.59595 C140.97825,33.0447 141.0615,32.73645 141.2055,32.2167 C141.4275,31.33245 141.4485,30.3687 141.69225,29.4882 C141.87975,28.7202 142.206,28.1442 142.37175,27.3657 C142.5225,26.7057 142.7145,26.1282 142.9635,25.5072 C143.0235,25.32195 143.06325,24.99795 142.932,24.77895 C143.20725,24.99795 143.72025,24.3432 143.84175,24.0987 C144.1515,23.46795 144.1515,23.1642 144.0855,22.43595 C143.94675,22.7097 143.895,22.9062 143.6985,23.13045 C143.607,23.2182 143.5245,23.1252 143.37225,23.2722 C143.32875,23.36445 143.3415,23.6187 143.268,23.7222 C143.23725,23.78145 143.06325,23.86395 143.0235,23.98695 C142.92,24.15795 142.7445,24.5532 142.92,24.7392 C142.88025,24.6957 142.81875,24.63195 142.737,24.63195 C142.5105,24.5442 142.002,24.84195 141.81825,25.14495 C141.531,25.5852 141.47925,25.8687 140.97825,26.1192 C140.81325,26.21595 140.97825,26.44695 140.66925,26.2857 C140.4345,26.16195 140.52525,26.11395 140.52525,25.8552 C140.5905,25.55595 140.7615,25.32195 140.91825,25.10145 C141.018,24.89595 141.14475,24.4167 141.2655,24.27495 C141.3435,24.19245 141.51,24.27495 141.5925,24.2112 C141.81825,23.9667 142.062,23.68845 142.18425,23.35095 C142.34925,22.7982 142.7145,22.3872 142.9935,21.9177 C143.1675,21.64845 143.268,21.35595 143.412,21.03195 C143.3415,21.03195 143.28975,20.99745 143.25,20.95845 C143.32875,20.99745 143.412,20.9397 143.577,20.81745 C144.069,20.42145 144.16875,19.78995 144.4335,19.20345 C144.41625,19.59945 144.46425,19.9812 144.4335,20.3667 C144.68175,20.27895 144.90375,20.11695 145.0605,19.8882 C145.0905,19.8492 145.16025,19.54095 145.17375,19.54095 C145.0605,19.6047 146.01,19.3947 145.9485,19.3257 C146.54475,19.6932 144.873,20.42145 145.722,20.81745 C145.97025,20.38695 146.01,20.1867 146.358,19.95645 C146.4315,19.90695 146.6445,19.8492 146.706,19.78995 C146.81025,19.6932 146.78925,19.51695 146.88,19.3947 C147.25875,18.81195 147.8505,18.81195 148.42575,19.1247 C148.4025,18.7047 149.24325,18.92895 149.52225,18.73845 C149.6955,18.57195 149.71275,18.3177 149.94825,18.22545 C150.144,18.12195 150.52275,18.22545 150.73575,18.2787 C151.023,18.3177 151.41,18.4647 151.65,18.60195 C151.92375,18.77745 152.385,19.51695 152.72025,19.5012 C153.09,19.48695 152.781,18.6207 153.15075,18.4797 C153.41625,18.37695 154.008,18.73845 154.31775,18.73845 C154.605,18.79245 154.9095,18.81195 155.19675,18.8652 C155.3625,18.8952 155.9625,19.1007 156.006,18.79245 C156.006,18.79245 156.006,18.73845 155.98425,18.73845 L155.8845,18.73845 C155.772,18.73845 155.70975,18.7047 155.679,18.6207 L155.5845,18.4002 L155.475,18.2787 L155.475,18.2592 C155.445,18.2547 155.42325,18.22545 155.409,18.22545 C155.40075,18.17595 155.40075,18.17145 155.42325,18.12195 L155.301,18.0732 L155.23575,18.01995 L155.1135,17.8977 L155.06625,17.7162 L155.06625,17.65245 C154.98375,17.5842 154.9305,17.53545 154.86975,17.4672 C154.9305,17.38395 154.75725,16.7292 154.605,16.48845 C154.605,16.4547 154.57425,16.4052 154.54425,16.38645 L154.12125,16.38645 L154.08225,16.52745 C154.0305,16.59645 153.96,16.6452 153.86925,16.6452 L153.52125,16.6452 L153.36525,16.5627 L152.74125,15.75045 C152.49825,15.68595 152.25075,15.63345 152.00625,15.57945 C151.5765,15.5502 151.8195,14.8602 152.05875,14.64945 C151.4925,14.6112 150.82725,14.81595 150.2745,14.89395 C149.33475,15.04695 148.3725,15.2172 147.4245,15.37395 C147.1155,15.41295 146.81025,15.62295 146.55375,15.76545 C146.29725,15.9117 146.09175,16.18095 145.87875,16.3122 C145.5,16.50345 145.19175,16.24395 144.765,16.0587 C144.15975,15.7947 143.5245,15.8727 142.902,15.7212 C142.902,15.64695 142.245,14.7042 142.10175,14.54745 C141.5535,13.89195 140.7615,13.9602 139.97775,13.80795 C140.02575,13.7502 140.05575,13.69095 140.0775,13.65195 C139.647,13.8822 139.1775,14.24895 138.88125,14.7042 C138.81075,14.32245 139.01625,13.94595 138.972,13.61745 C138.951,13.4667 138.7455,13.0557 138.729,13.0017 C138.57675,12.8697 138.38025,12.6747 138.246,12.5712 C138.207,12.52695 138.33675,12.3117 138.2145,12.2382 C138.07125,12.1212 137.358,12.6492 137.19225,12.72795 C136.02525,13.3392 134.8725,13.9602 133.71525,14.57145 C133.71525,14.57145 133.71525,14.58195 133.6935,14.58195 L133.6935,14.57145 C133.0185,14.9382 132.33525,15.28545 131.661,15.64695 C131.34375,15.83295 130.299,15.0657 129.92925,14.8752 C129.70725,14.74245 130.2555,14.29845 130.2375,14.0532 C130.2165,13.2072 128.3745,14.2827 128.00475,14.43945 C127.61775,14.6112 127.23,14.8407 126.80025,14.9382 C126.2775,15.0657 125.769,14.8407 125.23275,14.7042 C126.53475,13.51995 127.8615,12.3117 129.15375,11.13795 C129.70725,10.64895 130.15575,10.2147 130.76925,9.8862 C131.85225,9.32445 133.0185,8.87445 134.18475,8.3457 L134.10225,8.30595 L134.0415,8.25345 L133.959,8.25345 L133.95,8.30595 L133.79775,8.3847 L133.737,8.3847 L133.71525,8.44395 L133.5495,8.51745 L133.40625,8.44395 L133.38825,8.3847 L133.22325,8.3847 L133.062,8.30595 L132.99675,8.13495 L132.99675,8.07195 L132.95775,8.0667 C132.65325,8.0127 132.345,7.95945 132.018,7.8567 C132.3225,7.8957 132.588,7.91595 132.888,7.95945 L132.8145,7.91595 L132.8055,7.81245 L132.71475,7.7937 L132.6705,7.7247 L132.25275,7.7247 L132.20025,7.7937 L132.02625,7.8567 L131.09475,7.8567 L130.995,7.7937 L130.87275,7.8567 L130.2765,7.8567 L130.12425,7.7937 L130.10325,7.71045 L130.02,7.65645 L129.95025,7.4952 L129.95025,7.4172 L129.89775,7.39695 L129.84675,7.2072 L129.84675,7.19145 L129.807,7.1967 L129.64575,7.1967 L129.62475,7.26495 L129.48075,7.32945 L129.41925,7.32945 L129.3975,7.39695 L129.21525,7.4607 L129.17175,7.4607 L129.141,7.5192 L128.99775,7.5882 L128.98875,7.5882 L128.92875,7.65645 L128.8455,7.71045 L128.793,7.7937 L128.72325,7.81245 L128.69325,7.91595 L128.5275,7.99395 L128.25375,7.99395 L128.23125,8.0517 L128.07075,8.11545 L127.23975,8.11545 L127.08675,8.0517 L127.05675,7.88145 L127.05675,7.8567 L126.77775,7.8567 L126.62625,7.7937 L126.57375,7.6122 L126.57375,7.4952 C126.57375,7.4607 126.59475,7.43595 126.59475,7.43595 L126.513,7.39695 L126.495,7.32945 L126.19425,7.32945 L126.0645,7.26495 L126.021,7.1967 L125.847,7.1967 L125.69475,7.1232 L125.66325,7.03545 L125.59425,7.00095 L125.5425,6.9027 L125.45925,6.8637 L125.40675,6.6927 L125.40675,6.54195 L125.15475,6.54195 C125.124,6.54195 125.103,6.5172 125.103,6.5172 C125.0595,6.5172 125.0505,6.54195 125.0205,6.54195 L124.776,6.54195 L124.776,6.8307 C124.776,6.9222 124.71075,7.00095 124.632,7.03545 L124.611,7.1232 L124.44525,7.1967 L124.3365,7.1967 L124.19325,7.1232 L124.149,7.02495 L124.05825,7.00095 L123.97575,6.8307 L123.97575,6.7662 L123.945,6.73245 L123.906,6.6387 C123.8445,6.60495 123.77025,6.54195 123.77025,6.4197 L123.77025,6.12045 L123.71025,6.07695 L123.6885,6.0222 L123.057,6.0222 L122.892,5.94945 L122.82225,5.78295 L122.82225,5.50395 L122.83125,5.46945 L122.7915,5.43045 L122.72625,5.3727 L122.58675,5.3727 L122.42175,5.29845 L122.36925,5.23995 L122.33025,5.23995 L122.19525,5.1627 L122.13375,5.09295 L122.11725,5.09295 L121.9515,5.02995 L121.9515,4.99095 L121.89975,5.02995 L121.7865,5.09295 L121.40775,5.09295 L121.2555,5.02995 L121.23375,4.9707 L120.885,4.9707 L120.846,5.02995 L120.70275,5.09295 L120.5895,5.09295 C120.5805,5.09295 120.55875,5.0877 120.5415,5.06895 C120.507,5.0877 120.49875,5.09295 120.47625,5.09295 L120.43725,5.09295 L120.43725,5.25045 L120.3975,5.43045 L120.25425,5.49945 L119.85375,5.49945 L119.802,5.5632 C119.74125,5.62695 119.658,5.6457 119.58,5.6022 L119.53575,5.62695 L118.9665,5.62695 L118.80075,5.5632 L118.77075,5.46945 L118.6965,5.43045 L118.62675,5.25045 L118.62675,5.0442 L118.58775,5.02995 L118.557,4.9707 L117.552,4.9707 L117.39075,4.8972 L117.3555,4.8342 L117.22575,4.8342 L117.051,4.78095 L116.98125,4.5942 L116.98125,4.5807 L116.69475,4.5807 L116.6505,4.6287 L116.50725,4.70295 L116.26425,4.70295 L116.1195,4.6287 L116.0895,4.5807 L115.9155,4.5807 L115.76325,4.5117 L115.7325,4.4187 C115.6725,4.3752 115.641,4.33995 115.62825,4.2822 L115.54575,4.23795 L115.50675,4.14945 C115.4235,4.1157 115.36275,4.0467 115.36275,3.93945 L115.36275,3.17145 L115.2495,2.8302 L115.2495,2.7552 L115.2495,2.56545 L115.13625,2.3547 L115.11825,2.2377 L115.11825,2.15445 L115.0365,1.95795 L114.9975,1.84095 L114.9975,1.6407 L114.91425,1.42995 L114.8925,1.3182 L114.8925,1.2792 L114.64875,1.12695 C114.62775,1.1082 114.588,1.0827 114.56625,1.0347 L114.036,1.0347 L114.036,2.7552 L113.97,2.9262 L113.8305,2.99595 L10.38,2.99595 C10.34925,3.11745 10.36575,3.25395 10.44,3.4797 C10.48875,3.6312 10.70625,3.8412 10.758,3.92445 C10.99275,4.2822 10.653,4.23345 11.3715,4.1157 C11.18475,4.5417 11.5935,4.5942 11.61525,4.9572 C11.61525,5.0442 11.45025,5.3922 11.41125,5.46945 C11.3715,5.53395 11.52375,5.6022 11.45025,5.6802 C11.358,5.8122 11.05425,5.8857 10.941,5.9637 C11.124,5.8362 11.69775,6.3357 11.841,6.6147 C12.024,7.02495 11.781,7.4307 12.16875,7.8417 C12.33375,8.0127 12.516,7.91595 12.49425,8.13495 C12.49425,8.25345 12.19875,8.35545 12.13725,8.47245 C12.10725,8.5122 12.033,8.7522 12.024,8.85945 C11.97225,8.94795 11.88075,8.9667 11.841,9.12345 C11.799,9.2562 11.94225,9.40695 11.92425,9.46095 C11.92425,9.54495 11.781,9.7152 11.781,9.7737 C11.78925,9.80745 11.841,9.9942 11.841,10.0437 C11.841,10.0227 12.01575,10.26795 12.024,10.34145 C12.024,10.4097 11.841,10.4982 11.829,10.59495 C11.829,10.64895 11.92425,10.73295 11.92425,10.7967 C11.92425,10.9242 12.033,11.1237 12.033,11.20695 C12.024,11.56845 12.01575,11.3337 11.859,11.6277 C11.69775,11.9502 11.47125,12.02295 11.1015,12.39945 C10.653,12.8307 10.53975,12.7767 9.918,13.0017 C9.948,13.0362 9.948,13.08495 9.948,13.1187 C9.5085,13.08495 9.60075,12.81045 9.81375,12.50295 C9.63975,12.6057 9.4875,12.7767 9.3045,12.84045 C9.40425,12.6747 9.609,12.5712 9.714,12.39045 C9.79575,12.2682 9.753,12.07245 9.82725,11.9502 C9.966,11.68095 10.22325,11.73045 10.22325,11.3007 C10.34925,11.73045 10.14,12.07245 10.3965,12.42045 C10.50975,11.83245 10.56225,11.6622 10.91025,11.29545 L10.92825,11.26545 C10.91025,11.29545 10.91025,11.3007 10.8885,11.3007 L10.91025,11.3007 L10.8885,11.3007 C10.836,11.48595 10.758,11.6277 10.73625,11.79945 C11.75925,11.57895 11.26725,10.1262 10.836,9.4947 C10.941,9.5682 11.48025,9.52395 11.52375,9.4257 C11.5935,9.22095 11.358,8.85945 11.328,8.5857 C11.124,8.94795 10.758,9.18645 10.48875,9.5922 C10.28325,9.92595 10.07925,9.92595 9.753,10.20495 C9.57,10.37595 9.387,10.7472 9.291,10.97145 C9.18225,11.26545 8.9955,11.26545 9.31275,11.3637 C9.5085,11.4177 9.897,11.19195 10.07925,11.0697 C10.00125,11.1432 9.11775,11.83245 9.07875,11.4702 C9.0255,11.1042 9.3045,10.64895 9.4875,10.36545 C9.6615,10.10145 9.8745,9.9597 9.966,9.6807 C10.12275,9.3927 10.04025,9.03045 10.22325,8.9082 C10.30575,9.18645 10.28325,9.4857 10.20525,9.7152 C10.3965,9.52395 10.584,9.1632 10.73625,8.9082 C10.8585,8.6637 11.04075,8.7522 10.81875,8.4492 C10.57125,8.1702 10.25325,7.6122 10.47075,7.3242 C10.36575,7.4172 10.22325,7.99395 10.14,8.0277 C9.897,8.13495 9.13875,7.3527 9.09975,7.13745 C8.15625,7.13745 7.27575,7.39695 6.345,7.2072 C5.223,7.02495 4.1385,6.4197 3.0855,6.0222 C3.1245,6.73245 3.1155,7.4172 3.2985,8.11545 C3.54225,9.0642 4.1385,9.8862 4.4955,10.7577 C4.617,10.97145 4.557,11.2167 4.63125,11.4312 C4.752,11.85195 5.0265,12.21945 5.13075,12.6492 C5.214,13.0122 5.223,13.3587 5.13075,13.72095 C5.4135,12.6057 5.775,13.58895 6.48,13.5987 C6.23625,13.72545 5.52675,13.8327 5.65275,14.2197 C5.54925,14.1507 5.4135,14.0727 5.31375,13.9602 C5.35275,14.0727 5.37525,14.53245 5.457,14.61495 C5.6625,14.9577 6.32775,14.5137 6.45825,15.04695 C6.19275,15.0657 6.00975,15.2367 6.171,15.49095 C6.132,15.4617 6.04875,15.42795 5.98875,15.40245 C6.132,15.5502 6.171,15.75045 6.2055,15.94545 L6.09225,16.50345 C5.6925,17.15895 5.80575,15.6822 5.65275,15.4572 C5.5575,16.00995 5.7225,16.69395 5.5185,17.2077 C6.63225,17.4327 7.75875,17.5692 8.89575,17.7267 C8.25975,17.8437 7.6245,17.93145 6.972,18.0537 C6.50175,18.1167 6.2055,17.7612 5.82675,17.55495 C6.171,18.3477 5.80575,18.92895 5.88825,19.7562 C5.9355,20.11695 6.04875,20.2887 6.04875,20.70945 C6.03225,20.99745 5.958,21.27195 5.9355,21.5712 C5.88825,21.86295 5.979,22.09395 5.979,22.27995 C5.979,23.09145 5.775,23.9322 5.58825,24.70545 C5.436,25.2972 5.54925,26.0502 5.4795,26.7057 C5.4135,27.4932 5.37525,28.3332 5.292,29.1612 C5.274,29.4837 5.244,29.7717 5.214,30.0807 C5.14875,30.31995 5.13075,30.54045 5.13075,30.75045 C5.07,31.3227 4.86525,31.8012 4.63125,32.3547 C4.752,32.21295 4.8435,32.06595 4.944,31.92795 C5.04825,32.06595 5.14875,32.25195 5.1915,32.42745 C5.13075,32.3832 5.04825,32.3547 4.9875,32.3052 C4.63125,32.9757 3.708,34.4187 3.77775,35.16195 C3.7995,35.39595 3.96375,35.5332 4.047,35.6847 C4.26075,36.09495 4.3215,36.0522 4.23,36.6387 C4.15575,37.05045 4.18725,37.45995 4.26075,37.8222 C4.37325,38.42445 4.4955,38.90295 4.9875,39.3132 C5.1915,39.48945 5.07,40.24245 5.07,40.52145 C5.07825,41.4357 5.07825,42.37545 5.10975,43.3242 C5.10975,43.3932 5.10975,45.22695 5.0265,45.4377 C5.14875,45.2667 5.274,45.09495 5.4795,45.1287 C5.274,45.3627 4.96575,45.98595 4.8135,45.81795 C4.557,46.2777 4.3215,46.8507 4.4955,47.3442 C4.63125,47.7552 5.58825,49.39395 5.9055,49.39395 L5.82675,49.39395 C6.07125,49.93695 6.72375,50.9142 6.72375,51.5547 C6.72375,51.72645 6.5805,51.97095 6.56325,52.1862 C6.48,52.77795 6.76725,53.13495 6.9285,53.69295 C7.0935,54.3087 6.72375,54.4512 7.0935,54.9792 C7.91175,56.1627 8.7525,57.33195 9.57,58.5147 C9.714,58.74495 9.714,58.9347 9.5265,59.1747 C9.88725,58.5147 10.41,59.42895 10.77525,59.68845 C10.797,59.6397 10.77525,59.59545 10.797,59.5662 C10.941,59.7222 11.781,60.4077 11.52375,59.77095 C11.541,59.79645 11.61525,59.8107 11.65425,59.8257 C11.5545,59.66445 11.541,59.46795 11.52375,59.3367 C11.541,59.46795 11.52375,58.82295 11.47125,58.95045 C11.577,58.57395 11.65425,58.7592 11.799,58.43145 C12.024,58.5297 12.2685,58.7787 12.4725,58.85745 C12.84225,58.97445 12.7425,58.8417 13.047,58.7202 C13.15125,58.6857 13.10775,58.48095 13.29075,58.48095 C13.4565,58.48095 13.6605,58.82295 13.83525,58.85745 C14.01825,58.8867 14.1825,58.8417 14.31825,58.7202 C14.25225,58.7787 14.205,58.85745 14.1525,58.9167 C14.75775,58.70595 14.8485,58.6422 15.38025,59.10195 C15.1755,59.0337 14.80575,58.74495 14.622,58.7787 C14.5095,58.82295 14.56125,58.97445 14.45775,58.9992 C14.31825,59.04795 14.27475,59.10195 13.9695,59.06745 C13.7655,59.04795 13.57875,58.9347 13.34325,58.9347 C13.16925,58.9347 12.987,59.06745 12.8205,59.06745 C12.516,59.06745 12.14625,58.8867 11.94225,59.21895 C11.577,59.85495 12.84225,61.2387 13.017,61.86495 C12.7725,61.63095 12.4725,61.5222 12.2205,61.3017 C12.10725,61.18995 11.94225,61.20945 11.94225,61.00995 C11.92425,60.88695 12.024,60.35895 11.88975,60.25095 C11.3895,59.85495 11.3715,61.1757 11.4015,61.43445 C11.45025,61.84095 11.75925,62.2122 11.841,62.6232 C11.92425,63.1557 11.841,63.14145 12.41175,63.5667 C12.7425,63.79245 13.16925,64.0362 13.4775,64.2567 C13.51725,64.2567 13.6605,64.1742 13.743,64.2567 C13.9485,64.4472 14.175,65.3622 14.01825,65.6892 C13.83525,66.0267 13.6605,65.73795 13.59975,65.8752 C13.41675,66.10095 13.51725,66.33495 13.59975,66.5997 C13.6605,66.79545 13.683,67.05945 13.743,67.23495 C14.01825,68.04195 14.8485,68.8782 15.38025,69.5337 C15.972,70.30095 16.524,70.9902 17.16825,71.70495 C17.40375,71.9877 17.40375,72.15045 17.508,72.3357 C17.59125,72.52695 17.508,72.61095 17.712,72.7962 C17.9385,73.03995 18.348,73.35345 18.426,73.66095 C18.44775,73.7352 18.32625,73.8477 18.348,73.9302 C18.366,74.1897 18.387,74.46345 18.426,74.7417 C18.44775,74.91795 18.387,75.2802 18.426,75.3777 C18.44775,75.51945 18.30375,75.6717 18.47025,75.73545 C18.918,75.9462 19.41,76.15095 19.8495,76.21395 C20.40225,76.2732 20.781,76.3362 21.31125,76.4922 C21.78225,76.6497 22.161,76.35645 22.68225,76.6302 C23.2785,76.9092 23.8095,77.3727 24.3405,77.76495 C24.606,77.97495 24.954,78.32295 25.263,78.36645 C25.263,78.38595 25.476,78.26895 25.55925,78.24795 C25.68975,78.24795 26.151,78.14145 26.22525,78.26895 C26.334,78.54195 26.43825,79.3782 26.673,79.54995 C26.856,79.6812 27.1215,79.51095 27.3255,79.51095 C27.84825,79.51095 27.98325,79.8477 28.39275,80.16195 C28.74075,80.46345 29.16675,80.65995 29.4975,80.9832 C30.02925,81.47145 30.27225,81.87345 30.5205,82.6122 C30.786,83.3547 31.07325,84.09795 31.317,84.8322 C31.3605,84.9207 31.3995,84.97845 31.42125,85.04295 L31.72575,85.0767 L32.56575,85.0767 L32.60475,85.0077 L32.7615,84.93945 L33.84525,84.93945 L33.894,84.88545 L34.06725,84.80145 L35.16375,84.80145 L35.18625,84.7437 L35.34675,84.67545 L36.53475,84.67545 L36.59625,84.6162 L36.7605,84.54795 L37.94475,84.54795 L37.99725,84.48495 L38.1495,84.42195 L39.3165,84.42195 L39.39825,84.3522 C39.40725,84.3327 39.45975,84.3327 39.4725,84.30795 C39.4905,84.2982 39.5115,84.28395 39.5415,84.28395 L40.60425,84.28395 C40.7295,84.28395 40.80825,84.3867 40.80825,84.52845 L40.80825,84.64545 L40.7475,84.82695 L40.6995,84.8457 L40.6995,84.9207 L40.63425,85.0767 L40.56525,85.13445 L40.5735,85.18845 L40.5735,85.30545 L40.56525,85.32645 L40.60425,85.32645 L40.7475,85.4037 L40.761,85.4532 L40.953,85.4532 L41.109,85.53645 L41.11725,85.5942 L41.28375,85.5942 L41.44425,85.6737 L41.50575,85.72695 L41.64,85.72695 L41.79225,85.7802 L41.853,85.86345 L41.99625,85.86345 L42.1485,85.93695 L42.17925,85.9707 L42.345,85.9707 L42.51075,86.05395 L42.549,86.1087 L42.69375,86.1087 L42.846,86.18595 L42.89775,86.25945 L43.041,86.25945 L43.18425,86.3187 L43.224,86.38245 L43.398,86.38245 L43.542,86.4507 L43.572,86.5137 L43.755,86.5137 L43.89825,86.58795 L43.9425,86.6457 L44.085,86.6457 L44.247,86.7192 L44.268,86.7777 L44.451,86.7777 L44.59425,86.85645 L44.63325,86.8947 L44.808,86.8947 L44.943,86.9787 L44.9955,87.02745 L45.04275,87.02745 L45.1785,87.1062 L45.252,87.17895 L45.49575,87.17895 L45.6615,87.2382 L45.6615,87.28695 L45.84375,87.28695 L46.01775,87.36495 L46.02675,87.42495 L46.0785,87.42495 L46.24425,87.5022 L46.29225,87.5652 L46.43625,87.5652 L46.5705,87.6387 L46.64025,87.68745 L46.8885,87.68745 L47.0715,87.75195 L47.0715,87.8097 L47.1105,87.8097 L47.2755,87.8937 L47.34525,87.94695 L47.48025,87.94695 L47.64525,88.0302 L47.68425,88.09845 L47.85075,88.09845 L47.9715,88.1577 L48.0195,88.21095 L48.19425,88.21095 L48.3375,88.2897 L48.381,88.3437 L48.42,88.3437 L48.57225,88.4067 L48.6165,88.48995 L48.882,88.48995 L49.05525,88.5582 L49.06425,88.60245 L49.23825,88.60245 L49.404,88.6662 L49.404,88.73445 L49.443,88.73445 L49.617,88.80345 L49.6785,88.8762 L49.82175,88.8762 L49.97775,88.93995 L50.02575,89.0127 L50.1615,89.0127 L50.33475,89.05695 L50.38725,89.12595 L50.50875,89.12595 L50.67075,89.2047 L50.73075,89.2632 L50.87475,89.2632 L51.018,89.3412 L51.0615,89.40945 L51.22275,89.40945 L51.366,89.4537 L51.39675,89.5317 L51.44925,89.5317 L51.61425,89.59995 L51.65325,89.65395 L51.79725,89.65395 L51.963,89.7417 L52.002,89.80095 L52.15425,89.80095 L52.31925,89.8692 L52.35825,89.91345 L52.5105,89.91345 C52.533,89.91345 52.55475,89.93745 52.572,89.9727 C52.6155,89.9727 52.63725,89.9727 52.64625,90.0012 L52.716,90.0597 L52.851,90.0597 L53.02425,90.1287 L53.04675,90.19695 L53.208,90.19695 L53.35125,90.2607 L53.373,90.3192 L53.433,90.3192 L53.5995,90.3927 L53.66025,90.4362 L53.78175,90.4362 L53.95575,90.52395 L54.00825,90.5832 L54.1305,90.5832 L54.291,90.6612 L54.3135,90.6957 L64.788,90.6957 L64.788,88.85145 L64.86225,88.6662 L65.00175,88.60245 L71.30325,88.60245 C71.37675,88.60245 71.43825,88.6662 71.49,88.73445 L71.7735,88.73445 L71.9295,88.80345 L71.96025,88.9002 L72.05175,88.95945 L72.08175,89.0277 L72.16425,89.05695 L72.234,89.2482 L72.234,89.31645 L72.26475,89.3412 L72.35625,89.51295 L72.35625,89.59545 L72.3915,89.59995 L72.4515,89.7807 L72.4515,89.80095 L72.50025,89.8692 C72.52125,89.8842 72.52125,89.91345 72.54375,89.93745 C72.56025,89.97645 72.58275,90.00645 72.58275,90.04095 L72.58275,90.0597 L72.74775,90.1287 L72.78675,90.2217 L72.87,90.2607 L72.891,90.3192 L72.9525,90.3192 L73.10475,90.3927 L73.113,90.4362 L73.27875,90.4362 L73.431,90.52395 L73.49175,90.6027 L73.566,90.6612 L73.596,90.72945 L73.6785,90.79395 L73.71825,90.88695 L73.7925,90.9057 L73.85325,90.98445 L73.884,90.98445 L74.03625,91.05795 L74.097,91.21395 L74.097,91.24845 L74.15775,91.31145 C74.15775,91.3362 74.15775,91.3557 74.1795,91.36545 L74.1795,91.40445 L74.26275,91.4442 L74.31,91.5372 L74.38425,91.5567 L74.42325,91.6407 L74.46675,91.6407 L74.619,91.68795 L74.64975,91.77645 L74.73225,91.84545 L74.763,91.8942 L74.802,91.8942 L74.976,91.96245 L75.0195,92.1342 L75.0195,92.2752 L75.0585,92.2752 L75.2025,92.3637 L75.225,92.4612 L75.303,92.4807 L75.324,92.5887 C75.40725,92.59845 75.44625,92.63295 75.468,92.68545 L75.5205,92.68545 L75.67275,92.7447 L75.7245,92.91645 L75.7245,92.9307 L75.75525,92.9307 L75.8985,93.0147 L75.9075,93.0822 L75.981,93.0822 L76.143,93.1452 L76.143,93.2052 L76.32525,93.2052 L76.491,93.2772 L76.52175,93.37545 L76.6125,93.3912 L76.63425,93.4887 L76.704,93.53745 L76.75575,93.6357 L76.83825,93.66945 L76.869,93.7182 L77.04375,93.7182 C77.1645,93.7182 77.226,93.8352 77.226,93.9777 L77.226,94.04595 L77.2875,94.06995 L77.33925,94.15845 L77.42175,94.18845 L77.43,94.29045 L77.535,94.32495 L77.5965,94.47645 L77.5965,94.5297 L77.65725,94.59345 L77.71875,94.7697 L77.71875,95.0877 C77.76075,95.1267 77.77875,95.1507 77.8005,95.1897 L77.862,95.24895 L77.96625,95.4207 L77.96625,95.4402 L78.00525,95.51895 L78.066,95.68995 L78.24,95.7762 L78.2925,95.93895 L78.2925,96.01245 L78.35325,96.03645 L78.414,96.1977 L78.414,96.72645 L78.35325,96.89295 L78.2925,96.9312 L78.35325,96.9507 L78.414,97.1217 L78.414,97.31295 L78.4755,97.3527 L78.52725,97.51395 L78.52725,97.5822 L78.588,97.62045 L78.65775,97.7727 L78.65775,97.8462 L78.68025,97.86495 L78.8235,98.0022 L78.88425,98.1882 L78.88425,98.32995 L78.93675,98.4027 L79.05825,98.5212 L79.089,98.6337 L79.16325,98.6532 L79.233,98.8242 L79.233,98.83845 L79.254,98.83845 L79.41525,98.92245 L79.41525,98.98095 L79.58025,98.98095 L79.755,99.0537 L79.776,99.1122 L79.83675,99.1122 L79.98975,99.18645 L80.0115,99.2832 L80.12025,99.32295 L80.172,99.5142 L80.2155,99.58245 L80.2635,99.64545 L80.31675,99.64545 L80.46,99.7047 L80.5035,99.8067 L80.57325,99.83595 L80.60325,99.90945 L80.6865,99.96345 L80.7165,100.0317 L80.877,100.0317 L81.04275,100.1142 L81.0645,100.1637 L81.47325,100.1637 L81.6255,100.23345 L81.648,100.3257 L81.74775,100.3602 L81.79125,100.44345 L81.861,100.49595 L81.89175,100.5942 C81.93525,100.59945 81.96525,100.6287 81.98325,100.6827 L82.035,100.6827 L82.1175,100.71645 L82.17,100.6827 L82.27875,100.6827 L82.4445,100.7562 L82.46625,100.8147 L82.527,100.8147 L82.67925,100.8882 L82.71,100.97595 L82.7925,101.02995 L82.85325,101.19645 L82.85325,101.2152 L82.989,101.2152 L83.13975,101.28345 L83.17125,101.33745 L83.34525,101.33745 C83.41425,101.33745 83.4795,101.40645 83.511,101.4702 L83.793,101.4702 L83.83725,101.4897 L83.83725,101.44095 L83.87625,101.28345 L83.95875,101.23095 L84.0105,101.15745 L84.1635,101.0592 L84.1635,101.0442 L84.246,100.8882 L84.3285,100.85445 L84.34575,100.7562 L84.4725,100.62345 C84.5115,100.5657 84.58125,100.5657 84.6555,100.5657 L84.6555,100.5312 L84.6555,100.2717 L84.6555,100.22295 C84.6555,100.1637 84.633,100.1142 84.6555,100.0467 C84.6945,99.9537 84.75525,99.8952 84.8595,99.8952 L84.8895,99.8952 L84.8895,99.87495 L84.8895,99.83595 C84.8595,99.73845 84.8895,99.64545 84.9285,99.58245 L84.98175,99.5142 L84.98175,99.35295 L85.04175,99.18645 L85.116,99.15195 L85.116,98.9607 L85.164,98.7897 L85.24725,98.7507 L85.299,98.6532 L85.368,98.6337 L85.41225,98.5212 L85.46475,98.50095 L85.46475,98.2767 C85.46475,98.1882 85.5555,98.0562 85.665,98.0562 L85.9215,98.0562 L85.98225,98.0022 C86.0475,97.94445 86.148,97.9092 86.21775,97.94445 L86.22975,97.9287 L86.6265,97.9287 L86.6265,97.7727 L86.679,97.62045 L86.83125,97.54245 L86.90475,97.54245 L86.92725,97.4742 L87.08775,97.41045 L87.192,97.41045 L87.34425,97.4742 L87.35325,97.54245 L87.414,97.54245 L87.4575,97.56795 C87.52725,97.54245 87.57975,97.51395 87.61875,97.56795 C87.684,97.5717 87.723,97.65495 87.732,97.7082 L87.82275,97.7382 L87.86625,97.79745 L88.19325,97.79745 L88.215,97.7382 L88.36725,97.65495 L88.52025,97.7382 L88.54125,97.79745 L89.17725,97.79745 C89.25975,97.79745 89.29875,97.8462 89.3595,97.9287 L89.70825,97.9287 L89.74725,97.86495 L89.8725,97.79745 L90.0165,97.79745 L90.117,97.8462 L90.2385,97.79745 L90.3735,97.86495 L90.39075,97.9287 L90.456,97.9287 L90.61725,98.0022 L90.67875,98.1882 L90.67875,98.2572 L90.7305,98.27145 L90.80025,98.4327 L90.80025,98.46195 L90.822,98.46195 L90.957,98.5212 L90.996,98.5992 C91.0395,98.57445 91.0785,98.57445 91.13925,98.5992 C91.179,98.6337 91.2225,98.6922 91.2435,98.7507 L91.32225,98.7897 L91.37475,98.9607 L91.37475,99.02445 L91.4355,99.0537 L91.4655,99.1422 L91.54875,99.18645 L91.57875,99.2442 L91.731,99.2442 L91.905,99.32295 L91.9365,99.39645 C92.01,99.4407 92.07975,99.5142 92.07975,99.61245 L92.07975,99.7632 L92.0925,99.7632 L92.26725,99.83595 L92.26725,99.8952 L92.32725,99.8952 C92.4105,99.8952 92.48925,99.97395 92.51025,100.06695 L92.6235,100.1142 L92.6325,100.20345 L92.73675,100.22295 L92.77575,100.30095 L92.80575,100.30095 L92.9415,100.3602 L93.02325,100.5312 L93.02325,100.7322 L93.08475,100.7562 L93.102,100.85445 L93.17625,100.8882 L93.20625,100.95645 L93.26775,100.95645 L93.45075,101.02995 L93.48075,101.19645 L93.48075,101.38695 L93.53325,101.40645 L93.594,101.57745 L93.594,101.91495 C93.67725,101.95845 93.71625,102.01845 93.71625,102.11145 L93.71625,102.13995 L93.777,102.20745 L93.798,102.2967 L93.903,102.33045 L93.95025,102.4962 L93.95025,102.5607 L94.01625,102.58995 L94.0635,102.76095 L94.0635,102.96645 L94.125,102.9762 L94.14675,103.07445 L94.22925,103.10895 L94.29,103.27995 L94.29,103.35795 L94.3515,103.3767 L94.42575,103.54845 L94.42575,103.6212 L94.473,103.64145 L94.49475,103.6902 L94.5345,103.6902 L94.6995,103.7787 L94.782,103.95045 L94.6995,104.1252 L94.63875,104.1402 L94.63875,104.2572 L94.6995,104.2917 L94.782,104.4777 L94.782,104.5407 L94.80375,104.5512 L94.88175,104.7327 L94.88175,104.92695 L94.93425,104.95695 L94.94325,105.0207 L95.0175,105.0207 L95.16975,105.09345 L95.2125,105.16695 L95.29125,105.2157 L95.304,105.2892 L95.496,105.2892 L95.622,105.3537 L95.7,105.51495 L95.7,105.6807 L95.7135,105.6807 L95.86575,105.74895 L95.9265,105.91095 L95.9265,106.0722 L95.95725,106.0722 L96.1095,106.14495 L96.171,106.3062 L96.171,106.37445 L96.2355,106.3947 L96.25275,106.49295 L96.327,106.5267 L96.4185,106.69845 L96.4185,107.03595 L96.4485,107.04495 L96.47925,107.11395 L96.51825,107.11395 L96.684,107.1822 L96.72375,107.28045 L96.80625,107.32995 L96.819,107.4072 L96.92775,107.4567 L96.99225,107.62245 L96.99225,107.64195 L97.071,107.65695 L97.1145,107.64195 L97.23675,107.64195 L97.40175,107.7147 L97.40175,107.7837 L97.47225,107.7837 L97.62375,107.8572 L97.6545,107.9457 L97.74525,107.9697 L97.8105,108.16095 L97.8105,108.33195 L97.842,108.3612 L97.93275,108.53745 L97.93275,109.1922 C97.93275,109.2462 97.88925,109.2807 97.88925,109.3302 L97.88925,109.3587 L97.9725,109.41795 L98.0325,109.5882 L98.0325,110.5182 L98.046,110.5182 L98.22,110.59545 L98.259,110.7672 L98.259,110.8362 L98.3205,110.86995 L98.37225,110.9577 L98.442,111.0117 L98.5035,111.1737 L98.5035,111.2322 L98.547,111.2517 L98.60775,111.35445 L98.66025,111.3882 L98.751,111.5592 L98.751,111.61845 L98.79,111.63795 L98.86425,111.8082 L98.86425,111.90645 L98.895,111.9117 L98.964,112.0782 L98.964,112.2882 L99.03825,112.30245 L99.10875,112.47345 L99.10875,112.60095 L99.0555,112.6752 L99.10875,112.7337 L99.10875,112.7622 L99.243,112.8357 L99.321,112.99245 L99.321,113.2812 L99.79575,113.2812 L99.957,113.3397 L99.978,113.4237 L100.27425,113.4237 L100.4265,113.4717 L100.45725,113.58945 L100.55325,113.6232 L100.59225,113.70195 L100.67475,113.7402 L100.683,113.8332 C100.75725,113.8482 100.80525,113.89695 100.827,113.96595 L100.866,113.9307 L101.0925,113.9307 L101.145,113.97045 L101.20575,113.9307 L101.3715,114.00495 L101.37975,114.0732 L101.5755,114.0732 L101.70675,114.1512 L101.7675,114.2247 L101.7885,114.2247 L101.94075,114.2787 L101.9715,114.36645 L102.063,114.3957 L102.09825,114.5037 L102.18975,114.53295 L102.22875,114.6207 L102.2895,114.67545 L102.333,114.72345 L102.4935,114.72345 L102.53775,114.7587 C102.5985,114.72345 102.63675,114.7092 102.6765,114.7587 L102.72,114.72345 L102.84225,114.72345 L102.9855,114.79245 L103.05525,114.8652 L104.0085,114.8652 L104.04825,114.8652 C104.12175,114.8607 104.1915,114.8652 104.25225,114.9042 C104.25225,114.9042 104.25225,114.8652 104.27325,114.8652 C104.3565,114.8607 104.457,114.8652 104.50875,114.93345 L104.56125,114.9927 L104.583,114.9927 L104.74425,115.0812 L104.77425,115.15395 L104.86575,115.19295 L104.8875,115.28145 L104.97075,115.3257 L105.03075,115.39845 L105.114,115.44795 L105.123,115.5162 L105.17475,115.5162 L105.318,115.59495 L105.357,115.68195 L105.41025,115.6527 L105.43125,115.6527 L105.43125,115.61895 L105.48375,115.44795 L105.636,115.38495 L105.70575,115.38495 L105.71925,115.3257 L105.87075,115.2522 C105.636,115.2417 105.65325,114.6942 105.53175,114.19545 C105.297,113.2962 104.94825,112.3662 104.8185,111.4572 C104.796,111.21645 104.8185,110.96295 104.86575,110.79195 C104.82675,110.9142 105.114,110.56695 105.075,110.59545 C105.17475,110.42445 105.22725,109.84245 105.288,109.6032 C104.74425,109.8672 104.583,109.5492 104.04825,109.50495 C104.12175,109.31445 104.04825,109.0167 104.04825,108.74745 C104.23425,108.9192 104.3955,109.2462 104.56125,109.41795 C104.50875,109.2807 105.21375,109.4862 104.8875,109.51545 C104.97075,109.50495 105.17475,109.50495 105.297,109.3587 C105.46125,109.1922 105.5835,108.73845 105.68325,108.4782 C105.7665,108.2097 105.95325,107.8572 105.89325,107.64195 C105.89325,107.58795 105.68325,107.6082 105.645,107.5437 C105.357,106.96695 105.43125,107.2317 104.99175,106.86945 C105.22725,106.93245 105.65325,106.78695 105.89325,106.8552 C106.19775,106.93245 105.95325,107.1822 106.2585,106.9917 C106.524,106.8552 106.7505,106.0722 106.85025,105.7887 C106.66725,105.95895 106.4625,105.7887 106.302,105.53445 C106.4625,105.7062 106.64625,105.55845 106.85025,105.37695 C106.85025,105.51495 106.93275,105.6267 106.93275,105.71445 C107.016,105.52395 107.07675,105.3087 107.19,105.1332 C107.19,105.3087 107.1675,105.53445 107.12025,105.71445 C107.22,105.44145 107.403,104.1402 107.6895,104.1402 C107.76375,104.1402 107.9775,104.5512 108.01725,104.5902 C108.22125,104.7867 108.01725,104.8257 108.378,104.79045 C108.552,104.77095 109.053,104.3607 109.1655,104.2572 C108.73425,104.00295 108.408,103.54845 108.25125,103.01595 C108.591,102.96645 108.426,103.2207 108.6135,103.35795 C108.9915,103.64145 109.3485,103.5342 109.02225,102.8592 C109.22625,102.93195 109.14375,103.27995 109.326,103.35795 C109.45275,103.39245 109.67475,103.1577 109.92225,103.10895 C109.5915,104.00295 110.20575,103.35795 110.68875,103.5342 C110.39325,103.68045 110.0745,103.83195 109.87875,104.0817 C110.40975,103.83195 111.198,103.44645 111.681,103.0302 C111.4245,103.16145 111.14925,103.2597 110.88375,103.1577 C111.4755,102.9762 111.924,102.93195 112.416,102.6147 C112.9995,102.20745 113.19525,101.74845 113.604,101.12745 C113.89125,100.66245 113.8485,101.01045 114.0135,100.92645 C114.40125,100.71645 114.7485,100.33995 115.05825,100.0182 C114.91425,99.9057 114.82275,99.9537 114.7485,99.7632 C114.7485,99.7632 114.63525,99.84645 114.60525,99.8067 C114.5535,99.7047 114.741,99.5142 114.69675,99.4407 C114.64875,99.35295 114.44475,99.4407 114.37875,99.34245 C114.3315,99.18645 114.48375,99.0642 114.44475,98.9367 C114.37875,98.7507 114.249,98.5992 114.19575,98.42745 C114.37875,98.42745 114.57525,98.50095 114.64875,98.6922 C114.82275,98.55495 115.09725,98.0367 115.36275,98.1582 C115.52775,98.23695 115.54575,98.50095 115.4535,98.6922 C115.17975,99.2832 114.9975,99.20595 115.485,99.2442 C115.80225,99.2442 115.998,99.0927 116.334,99.20595 C116.0805,99.32295 115.2315,99.64545 115.17975,99.97395 C115.17975,100.25745 115.54575,99.78195 115.54575,99.7632 C115.833,99.61245 116.0895,99.47445 116.3775,99.34245 C116.70375,99.18645 116.99925,99.0642 117.3075,98.92245 C117.8175,98.6922 118.18725,98.71095 118.6965,98.56545 C118.45275,98.23695 118.80075,97.51395 118.923,97.1562 C118.86225,97.5822 118.75725,98.04645 118.75725,98.50095 C119.30175,98.10045 119.82375,98.32995 120.43725,98.13495 C120.79425,98.04645 120.324,97.8852 120.333,97.8462 C120.3465,97.8117 120.21075,97.7727 120.23325,97.7532 C120.23325,97.65495 120.3975,97.7082 120.4155,97.65495 C120.3975,97.7082 120.5895,97.44945 120.5895,97.44945 C120.642,97.3227 120.633,96.9222 120.681,96.7602 C120.87675,96.88245 120.7635,97.06395 120.846,97.20945 C121.317,97.86495 122.33025,98.13495 122.9835,98.47695 C123.597,98.79495 124.149,99.2442 124.75425,99.18645 C124.959,99.1422 125.2245,99.02895 125.45025,99.01545 C125.346,98.98095 125.0205,98.6532 125.0205,98.56545 C124.959,98.2767 124.959,98.56545 125.15475,98.34495 C125.346,98.1582 126.003,97.9287 126.2565,97.94445 C126.36825,97.9632 126.92175,98.2572 127.05675,98.34495 C127.07775,98.4027 127.06575,98.66745 127.17,98.79495 C127.2915,98.9607 128.1495,99.5142 128.29275,99.47445 C128.397,99.41595 128.45775,99.02895 128.51925,98.95095 C128.601,99.18645 128.3355,99.2697 128.3835,99.54795 C128.397,99.8172 128.74425,99.96345 128.90625,100.12995 C129.37575,100.58445 130.0545,101.40645 130.62525,101.0442 C130.76925,100.97595 130.995,100.59945 130.9215,100.42395 C131.361,100.14495 131.9355,100.1142 132.20025,100.6827 C132.33525,101.01045 132.018,101.38695 132.50925,101.23095 C133.13175,101.01045 132.50925,100.3602 133.062,100.3602 C132.92775,100.14495 133.0185,100.12995 132.92775,99.88545 C132.89775,99.8067 133.062,99.83595 132.95775,99.67545 C132.8445,99.44595 132.579,99.5142 132.48825,99.1122 C132.73125,99.22545 133.959,99.4407 133.767,99.7047 C134.268,100.0467 134.5725,100.3062 135.147,100.5942 C135.06375,100.7562 135.2295,100.8882 135.3735,101.0787 C135.5475,101.29395 135.82125,100.6827 135.82125,101.14245 C135.82125,101.33745 135.47325,101.8317 135.4035,102.0567 C135.669,101.79795 136.0785,101.8662 136.383,101.74845 C136.20975,101.44095 137.10075,100.9902 136.50825,101.0592 C136.70025,101.02995 136.79175,100.92645 136.827,100.85445 C136.66125,100.83345 136.49625,100.7562 136.35225,100.66245 C136.70025,100.3602 135.6165,100.14495 135.47325,100.06695 C135.51675,100.0467 135.6,99.99195 135.6165,99.97395 C135.3735,99.96345 135.10725,99.9537 134.84175,99.8952 C134.8725,99.87495 134.9115,99.87495 134.943,99.83595 C134.934,99.67545 134.85975,99.8067 134.934,99.61245 C134.56425,99.41595 134.38125,99.32295 134.15475,98.98095 C134.463,98.92245 134.7765,98.8932 135.0555,98.81445 C135.02475,98.7507 134.973,98.6922 134.90325,98.6532 C134.9115,98.6532 134.973,98.6337 134.973,98.6337 C134.8815,98.6532 134.5725,98.60445 134.63775,98.46195 C134.6985,98.19345 135.32925,98.2572 135.5775,98.10045 C135.52575,97.8852 135.47325,97.87995 135.6,97.71345 C135.53475,97.7082 135.47325,97.7082 135.4035,97.7082 C135.3735,97.65495 135.47325,97.62045 135.47325,97.5822 C135.3735,97.5822 135.35175,97.5822 135.29025,97.56795 C135.66,97.38645 135.12525,97.25895 135.06375,96.7947 C135.04725,97.08795 134.85975,96.9657 134.7375,97.1562 C134.412,97.68495 134.63775,97.65495 134.2065,97.56795 C134.12475,97.51395 133.71525,97.38645 133.737,97.18095 C133.746,97.06395 134.2245,96.9657 134.32875,96.7602 C133.959,96.65745 131.59575,97.1952 131.53425,96.50595 C131.487,95.9922 133.101,95.6412 133.4895,95.78145 C133.85025,95.9247 134.7765,96.4377 135.04725,96.12945 C135.3735,95.7327 135.53475,95.43495 136.00875,95.36595 C136.50825,95.2692 137.00925,95.16045 137.4885,95.1897 C138.3195,95.2587 139.1775,95.51895 139.995,95.5917 C140.19975,95.6307 140.3865,94.3587 140.45625,94.1097 C140.487,94.00695 140.52525,93.89445 140.5785,93.7767 C140.63025,94.06995 140.81325,94.00695 140.91825,94.29045 C140.97825,94.5297 140.81325,94.7352 140.85675,94.91145 C140.93475,95.16045 141.14475,95.0877 141.2655,95.2587 C141.3435,95.40495 141.3435,95.7087 141.57075,95.93895 C141.723,96.12945 142.13625,95.93895 142.26675,95.7477 C142.206,95.7327 142.167,95.7327 142.10175,95.72895 C142.54575,95.6307 142.62375,95.40495 142.79775,94.91145 C142.7145,95.2587 142.59375,95.51895 142.5105,95.8407 C142.81875,95.68995 143.28975,95.5767 143.53725,95.2587 C143.75925,94.9602 143.616,94.8087 143.75925,94.47645 C143.82075,94.61295 143.964,94.7157 144.0165,94.82295 C144.3555,94.1097 144.56025,94.47645 144.74325,95.1267 C144.56025,95.01945 143.92575,95.40495 143.6985,95.4927 C144.978,95.1897 146.29725,95.05845 147.6075,94.91145 C147.6075,95.1267 147.6285,95.04345 147.68925,95.2587 C147.5235,95.2302 147.29775,95.16045 147.1455,95.1762 C147.1455,95.1762 147.228,95.2587 147.228,95.2302 C146.55375,94.98945 147.25875,95.4927 147.47175,95.6307 C147.6465,95.72895 148.93875,96.6282 149.14275,96.52095 C149.3475,96.3987 148.812,96.0507 148.68975,96.03645 C148.947,95.93895 149.63025,95.6307 149.757,95.8017 C149.71275,95.8647 149.33475,96.01245 149.33475,96.09045 C149.3475,96.1587 150.26625,96.8142 150.38775,96.95595 C150.16575,96.86745 149.265,96.3012 149.41725,96.65745 C149.478,96.7947 149.7345,96.9312 149.84775,97.0242 C149.82675,97.0437 149.7735,97.0242 149.757,97.0437 C149.9175,97.2777 150.2445,97.3227 150.4395,97.56795 C150.52275,97.63095 150.5535,97.7382 150.62175,97.8312 C150.9615,98.4027 150.98475,98.55495 151.47525,98.32995 C151.34025,98.4027 151.23675,98.46195 151.06575,98.5212 C152.22825,98.04645 153.37725,97.56795 154.54425,97.08795 C155.10525,96.86295 155.31825,96.65745 155.7885,96.86295 C156.18,97.0242 156.6495,97.31295 156.93675,97.65495 C157.203,97.9632 157.2645,98.27145 157.55175,98.56545 C157.8165,98.8092 157.734,98.7507 157.87725,99.02445 C157.95975,99.18645 157.87725,99.2832 158.08275,99.5142 C158.62575,100.0467 159.45375,100.3062 159.9615,100.8882 C160.20975,101.14245 160.845,102.3012 160.68825,102.6237 C160.43625,102.58995 160.68825,102.8007 160.71975,103.0302 C160.7415,103.2102 160.68,103.31895 160.68,103.47045 C160.64925,103.86195 160.61025,104.1402 160.536,104.4882 C160.45425,104.8257 160.20975,105.1332 160.13625,105.4257 C160.0755,105.71445 160.20975,106.0137 160.1055,106.33545 C160.0875,106.4577 159.95325,106.5612 159.95325,106.64895 C159.9315,107.04495 160.20975,107.5047 160.41525,107.8572 C160.39275,107.7837 160.371,107.65695 160.341,107.58345 C160.68,107.88645 160.68,107.64195 160.7625,107.43645 C160.9455,106.9767 160.7415,106.93245 160.43625,106.62945 C161.007,106.93245 161.18025,107.4072 161.53725,106.69845 C161.85525,107.43645 160.845,107.90145 160.90575,108.5712 C160.824,108.5562 160.71975,108.5562 160.65825,108.5022 C160.71975,108.8052 160.92375,109.0167 161.028,109.3437 C161.2845,110.2977 161.89875,111.09945 162.54225,111.8082 C162.54225,111.7167 162.438,111.3792 162.45975,111.33045 C162.54225,111.12945 162.78675,111.0117 163.1655,110.9142 C163.17825,110.88945 162.98325,111.1827 162.98325,111.09945 C162.98325,111.11895 162.8775,111.11895 162.8475,111.1827 C162.83025,111.2862 162.93,111.3882 162.909,111.4617 C162.80775,111.95595 162.8475,112.5132 162.99075,113.01195 C163.3995,112.99245 163.461,112.3662 163.9305,112.1712 C163.635,112.4397 163.47375,112.71795 163.28625,113.12445 C163.9305,113.2272 163.98375,115.3257 164.127,115.78545 C164.20125,115.7697 164.3835,115.6527 164.45325,115.68645 C164.88375,115.8972 165.54975,116.8362 165.95925,117.3207 C166.15425,117.52545 167.42175,118.76895 167.02125,118.9002 C166.929,118.9392 166.6125,118.6317 166.53375,118.5582 C166.46025,118.7877 166.49025,119.07645 166.53375,119.3262 C166.73775,119.3157 166.899,119.23245 167.1165,119.1882 C167.217,119.1882 167.2695,119.05695 167.352,119.05695 C167.46,119.05695 167.595,119.16945 167.73075,119.1792 C167.98275,119.1792 168.0135,119.09145 168.17025,118.99845 C168.47475,118.7877 168.47475,118.7877 168.88425,119.03745 C168.82275,118.9692 168.792,118.9002 168.741,118.8522 C168.8145,118.88595 168.9885,118.9347 169.0875,119.0217 C168.966,118.8522 169.0275,118.7877 169.0875,118.6317 C169.33575,118.14345 169.60125,117.6432 169.806,117.1107 C170.3595,115.6392 170.29425,114.00495 170.376,112.4397 C170.4375,111.3882 170.3595,110.2242 169.43625,109.74495 C169.60125,109.7892 169.7325,109.8672 169.88475,109.97445 C169.43625,109.26045 169.37475,108.4002 169.0875,107.64195 C168.82275,106.96695 168.47475,106.33545 168.21825,105.6267 C167.8995,104.6982 167.67825,103.68045 167.43,102.71145 C167.63475,102.8007 167.73075,104.0472 168.126,103.5042 C168.21825,104.1252 168.21825,104.7327 168.27,105.3537 C168.762,103.95045 168.3315,103.6077 167.77725,102.53595 C167.45175,101.9202 167.10375,101.3277 166.83825,100.6977 C166.6335,100.20345 166.4505,99.7047 166.26375,99.18645 C165.9975,98.40795 165.81525,97.5717 165.61125,96.7602 C165.41475,95.9922 164.997,95.0877 164.976,94.29045 C164.94525,93.6147 164.763,92.4807 165.0195,91.8792 C165.1185,91.6407 165.2025,91.40445 165.324,91.67445 C166.30725,91.19445 165.498,91.1262 165.05025,90.8127 C165.0885,90.8427 165.34575,90.9552 165.38475,90.92595 C165.507,90.7992 165.528,90.6027 165.63225,90.4902 C165.7845,90.32445 166.02075,90.2217 166.164,90.04545 C166.059,90.1287 165.90675,90.1287 165.7755,90.19695 C165.837,89.80095 166.02075,89.28195 165.81525,88.9737 C165.95925,88.9887 166.224,89.1702 166.35975,89.11545 C166.59375,89.05695 166.899,88.3242 166.99125,88.1337 C167.22525,87.7857 168.0735,87.09195 168.0435,86.74395 C168.0135,86.6217 167.8215,86.6607 167.8215,86.6457 C167.63475,86.25945 167.47425,85.7802 167.42175,85.3602 C167.51325,85.3797 167.63475,85.4877 167.67825,85.53645 C167.352,86.3382 168.39225,85.2672 168.1095,86.14245 C168.17025,86.14245 168.1785,86.1087 168.21825,86.1087 C168.21825,86.1282 168.1785,86.2257 168.18675,86.25945 C168.453,86.2842 168.9885,86.3577 168.9885,85.9572 C168.966,86.0007 168.90525,86.05395 168.86175,86.08845 C168.9885,85.4772 168.41325,85.63845 168.087,85.41945 C168.24825,85.4532 168.49575,85.3602 168.618,85.3602 C168.72225,85.3452 168.753,85.53645 168.88425,85.5207 C169.11825,85.4877 169.39725,85.13445 169.60125,84.97845 C169.7235,84.88545 170.2635,84.8997 170.39775,84.88545 C170.52075,84.8562 170.55075,84.78795 170.6025,84.67545 L170.6025,84.8457 C170.685,84.52845 170.78475,84.1962 170.80725,83.86845 C171.17775,84.2352 171.003,84.30795 171.42075,84.1962 C171.882,84.0792 172.269,83.4192 172.67025,83.16945 C172.91325,82.98345 173.83575,82.6302 173.4885,82.1667 C173.32275,81.92145 173.10975,81.7902 173.32275,81.4662 C173.5275,81.6327 173.60175,81.8967 173.63175,82.1667 C173.83575,81.3447 173.95875,80.92395 174.50175,80.31795 C174.92025,79.87695 175.4205,79.50045 175.86,79.08945 C176.22075,78.78195 177.213,78.9927 177.6615,78.97245 C178.39725,78.97245 178.275,78.22995 178.25325,77.59845 C178.39725,77.97495 178.35825,78.33645 178.39725,78.76245 C178.44975,78.5622 178.47975,78.32295 178.51875,78.11295 C178.78425,77.3337 179.607,76.79145 180.17775,76.2387 C179.93325,76.39545 179.72925,76.56645 179.48025,76.68345 C179.685,76.39545 180.7605,75.9462 180.2685,75.73995 C180.5475,75.47595 180.32925,75.22695 180.21975,74.91795 C180.29925,74.94795 180.46425,75.15345 180.42525,75.15345 C180.5775,75.15345 181.11675,74.8647 181.2915,74.91795 C181.65225,74.98245 181.2915,75.1872 181.76625,75.15345 C182.10075,75.13845 182.50125,74.8842 182.8575,74.76195 C183.29775,74.6247 184.19025,74.46345 184.47225,74.0037 C184.74225,73.6272 184.02375,73.98795 183.91125,74.03295 C184.2075,73.38795 183.60675,73.94595 183.441,73.9932 C183.36675,74.0037 183.29775,73.8132 183.16725,73.8477 C183.02325,73.8477 182.88,74.10195 182.71425,74.1357 C182.214,74.17545 181.76625,73.45095 181.57875,72.99045 C181.88775,73.38795 182.10075,73.6032 182.57025,73.45095 C183.06225,73.29945 184.1985,72.7617 183.60675,72.26295 C182.95875,71.6997 182.12175,71.92545 181.66125,71.21595 C182.20575,71.60295 182.80575,71.6712 183.41025,71.79345 C183.36675,71.5977 183.3285,71.21595 183.441,71.0832 C183.576,70.95645 183.46275,71.3967 183.41025,71.3232 C183.51075,71.50995 183.576,71.6322 183.654,71.7147 C183.8805,71.5587 184.16775,71.3967 184.107,71.79345 C184.926,71.79345 186.93975,71.0832 186.64425,69.8127 C186.50925,69.3822 186.29625,69.2652 185.8875,69.36195 C185.4945,69.4362 185.5605,70.2477 185.43375,70.6137 C185.35125,70.29195 185.2515,69.6267 185.4945,69.2787 C185.4945,69.24495 185.4255,69.2787 185.4255,69.2787 C185.5605,68.93745 185.10825,68.8782 184.90275,68.9517 C184.7205,69.01545 184.677,69.2652 184.5165,69.29895 C184.41225,69.31395 184.281,69.23145 184.12425,69.24495 C184.16775,68.9172 183.20625,69.2787 182.88,69.20595 C183.132,68.8887 182.83575,68.75595 182.775,68.3982 C182.75775,68.21295 182.95875,67.13295 183.02325,67.47495 C183.084,67.6752 182.89725,67.6992 182.88,67.89945 C182.88,69.01545 183.55425,68.9517 184.4025,68.4372 C184.19025,68.36895 184.00275,68.1987 183.89025,67.9587 C184.16775,68.19345 184.43325,68.36445 184.821,68.3982 C184.68975,68.2677 184.59825,68.1147 184.533,67.9347 C184.74225,68.2182 185.025,68.2182 185.35125,68.1297 C185.18175,67.9347 184.88175,67.61145 184.842,67.3872 C185.025,67.61145 185.5605,68.05695 185.904,68.1147 C185.712,67.9542 185.721,67.6752 185.6385,67.41645 C185.904,67.6752 186.009,68.32545 186.396,68.5557 C186.1095,67.6752 185.682,67.09845 185.478,66.27045 C185.84325,66.33495 185.7435,65.80695 185.826,65.4747 C186.009,65.89395 186.06975,66.4137 186.23475,66.8442 C186.15225,66.30045 185.9265,64.78995 185.5605,64.4817 C185.478,64.4322 185.0685,64.53045 184.926,64.4622 C184.5165,64.2702 184.59825,64.41345 184.41225,64.4817 C184.503,64.4472 184.41225,64.6332 184.38075,64.65195 C184.2075,64.7502 183.819,64.74045 183.61575,64.75545 C184.0155,64.4817 183.267,63.51795 183.0405,63.2007 C183.267,63.3462 183.46275,63.5562 183.60675,63.72795 C183.8415,64.0602 184.0155,64.3842 184.32,64.08495 C184.32,63.5562 184.25025,63.1557 183.94125,62.80845 C183.94125,62.79495 183.92025,62.79495 183.91125,62.76945 C183.92025,62.7792 183.94125,62.79495 183.96375,62.80845 C183.92025,62.7792 183.89025,62.76045 183.85875,62.7252 C183.819,62.6967 183.789,62.68095 183.77625,62.6472 C183.9855,62.79495 184.12425,62.8527 184.16775,62.6232 C184.47225,62.6232 184.5165,62.6082 184.65975,62.3877 C184.926,61.78695 184.2075,61.3812 183.85875,61.00995 C183.819,60.97995 183.77625,60.9402 183.73725,60.90645 C183.85875,60.4077 183.819,60.92145 183.94125,60.92145 C184.0155,60.92145 184.02375,60.97995 184.0635,60.97995 C184.281,60.9747 184.5165,60.36795 184.57725,60.09945 C184.7205,59.59545 184.7205,59.85495 184.47225,59.54745 C184.16775,59.1747 183.29775,58.74495 182.919,58.57395 C182.6535,58.48095 182.244,58.39695 182.00025,58.1922 C181.857,58.0542 181.713,57.7422 181.57875,57.5367 C181.40475,57.2772 181.4475,57.5367 181.2735,57.5217 C181.11675,57.5067 180.94275,57.6777 180.7515,57.55545 C180.708,57.5217 180.63825,57.55545 180.5865,57.5367 C180.9645,56.62245 181.76625,55.8342 181.59975,54.80745 C181.88775,55.5267 181.38225,56.1477 181.11675,56.81295 C180.99525,57.02295 180.83475,57.2967 181.03875,57.4152 C181.2735,57.5367 181.38225,57.21345 181.37325,57.03795 C181.479,57.2967 181.65225,57.18945 181.722,56.95545 C181.81275,57.1212 181.935,57.65895 182.1405,57.7272 C182.28375,57.77595 182.42775,57.39945 182.51925,57.44895 C182.75775,57.6342 182.97975,57.8352 183.20625,58.02045 C183.60675,58.34295 184.00275,58.6722 184.41225,58.95045 C184.329,58.74495 184.26,58.43145 184.1985,58.2117 C184.16775,58.12395 184.19025,57.77595 184.16775,57.7617 C184.107,57.6777 183.94125,57.8307 183.8415,57.7422 C183.267,57.21345 183.093,56.90595 183.0405,55.9572 C183.132,56.82795 183.29775,57.0777 184.16775,57.4152 C184.0155,56.9847 183.73725,56.81295 183.66825,56.3532 C183.63675,56.10345 183.654,55.7862 183.70725,55.53195 C183.92025,54.5577 183.91125,54.7497 183.47175,53.9607 C183.60675,54.13245 183.73725,54.3327 183.94125,54.3327 C183.71475,53.9082 183.46275,53.5017 183.29775,53.0517 C183.71475,53.08095 183.85875,52.6557 184.2075,52.3767 C184.4025,52.2252 184.38075,52.47495 184.60725,52.1667 C184.74225,51.9522 184.782,52.0152 184.74225,52.2252 C185.10825,51.97095 185.4645,51.65295 185.826,51.34995 C186.5835,51.60945 185.826,51.6282 186.06975,51.97095 C185.95725,51.97095 185.5605,52.12245 185.5605,52.2792 C185.51775,52.4892 186.009,52.4157 186.192,52.4892 C185.682,52.5732 185.2215,52.3962 184.926,52.81245 C184.782,53.03745 184.7205,53.3397 184.60725,53.56545 C184.842,53.63895 185.10825,53.61945 185.34225,53.6532 C185.15175,53.8047 185.10825,54.03945 184.99425,54.2742 C184.926,54.4752 184.455,54.05895 184.4025,54.27945 C184.329,54.5142 184.281,54.80745 184.26,55.06695 C184.281,54.9057 184.47225,54.61245 184.60725,54.6462 C184.7205,54.6462 185.19075,55.2282 185.15175,55.3752 C185.15175,55.50645 184.782,55.60995 184.68975,55.64445 C184.9425,56.06445 185.2215,56.10345 185.7,56.2992 C185.478,56.5242 185.35125,56.3337 185.15175,56.2992 C184.842,56.2797 184.977,56.10345 184.59825,56.38695 C184.35075,56.57895 184.88175,56.5242 184.926,56.49495 C184.821,56.6562 184.329,56.80245 184.41225,57.00345 C184.533,57.2337 184.65975,57.46245 184.782,57.69345 C184.782,57.61995 184.782,57.43395 184.74225,57.33195 C185.10825,57.5217 185.57775,58.63695 185.51775,57.6342 C185.5605,57.77595 185.682,57.8937 185.7435,58.03095 C185.8035,57.7617 185.9265,57.5067 186.174,57.33195 C186.144,57.55545 186.29625,57.8352 186.23475,58.0647 C186.192,58.23645 185.9175,58.43145 185.835,58.63695 C186.009,58.3827 186.192,58.8417 186.53925,58.7592 C186.396,58.9347 185.9265,59.41995 186.1095,59.58195 C186.03075,59.50695 186.91875,59.41995 186.91875,59.41995 C186.37875,60.4812 185.8035,61.3947 185.57775,62.5887 C185.526,62.8632 185.60025,63.49845 186.009,63.2832 C186.20475,63.1797 186.07875,62.49045 186.213,62.2467 C186.396,61.90395 186.849,61.8312 187.04025,61.47345 C187.1145,61.33695 187.071,61.18995 187.1535,60.97995 C187.22775,60.6807 187.371,60.4077 187.52325,60.11895 C187.71825,59.62545 187.932,59.14545 188.1765,58.6857 C188.38125,58.23645 188.71125,57.26295 189.07725,57.02295 C189.054,57.21345 189.04725,57.4152 189.07725,57.61995 C189.18075,57.1602 189.18075,56.6802 189.07725,56.23095 C189.0375,56.4312 188.7585,56.4312 188.568,56.3337 C188.85075,56.1972 188.946,55.66395 189.0375,55.33995 C188.046,54.9252 187.767,53.25195 187.35825,52.2792 C187.22775,52.0152 186.99225,51.73695 187.053,51.34995 C187.27425,50.4012 188.463,49.83345 189.09825,49.39395 L189.0375,49.39395 C189.09825,49.3737 189.18075,49.3602 189.2205,49.3347 C188.6775,49.7697 187.8495,50.19645 187.53225,50.8512 C186.94875,51.99495 187.8705,52.42545 188.568,53.11545 C188.9115,53.4432 189.669,53.25195 189.7515,53.7162 C189.79575,53.9712 189.50775,54.4212 189.5295,54.7347 C189.73425,54.65145 190.614,54.04995 190.30425,53.7612 C190.5525,53.6727 190.713,53.25195 190.89675,53.03745 C190.827,53.01795 190.7655,52.96845 190.73475,52.96845 C190.89675,52.7922 191.87925,52.5732 191.3265,52.35795 C191.53125,52.1667 191.8185,52.0152 191.98425,51.76095 C192.02325,51.70695 192.1455,51.33495 192.2715,51.1542 C192.58425,50.7687 192.37125,50.8317 192.43275,50.4987 C192.47175,50.3322 192.58425,50.2302 192.61575,50.09295 C192.71925,49.79445 192.71925,49.47195 192.894,49.1292 C192.993,49.5792 192.71925,50.01495 192.789,50.50845 C192.9465,49.73145 192.93225,49.03095 193.11975,48.32745 C193.21125,47.9652 193.30275,47.5992 193.14975,47.3787 C192.93225,47.15295 192.1455,47.3157 192.063,47.05095 C191.98425,46.7382 192.963,45.8967 193.089,45.45645 C193.12875,45.36795 193.12875,45.24045 193.14975,45.1287 L193.14975,45.3102 C193.43325,44.4792 193.395,44.04345 193.28925,43.13895 C193.272,43.0647 193.28925,43.0062 193.272,42.9477 L193.272,43.0647 L193.272,42.8892 L193.272,42.9477 C193.28925,43.33395 193.35525,43.7202 193.395,44.1162 C193.464,44.73345 193.12875,45.2067 193.12875,45.81795 C193.06725,45.96495 192.993,46.1217 192.9465,46.19445 C193.21125,46.21995 193.464,46.21995 193.7205,46.19445 L193.8945,46.19445 C194.3565,46.1607 194.817,46.1217 195.27825,46.06845 C195.4395,46.00395 195.60525,45.96495 195.7665,45.9162 C195.93075,45.88245 196.11375,45.82845 196.30125,45.81795 C196.58475,45.73995 197.15025,45.67245 197.424,45.58845 C197.58975,45.50595 197.73375,45.4377 197.89425,45.37845 C197.937,45.37845 197.96775,45.36795 197.97675,45.3627 C198.159,45.3102 198.3345,45.3627 198.552,45.2802 C198.64275,45.22695 198.69525,45.2067 198.71175,45.1092 C198.795,45.0507 198.8685,45.0507 198.91725,45.0357 C198.969,45.0357 199.0215,45.0507 199.0515,45.0507 C199.22625,44.9727 199.4085,44.9037 199.60425,44.8062 C200.0655,44.5617 200.5665,44.30745 201.06675,44.0772 C200.34825,44.1312 199.65675,44.22945 198.93825,44.22945 C199.104,44.04345 199.287,43.7697 199.635,43.5987 C198.77325,43.7547 197.96775,44.1852 197.15025,44.4792 C196.728,44.5812 196.37925,44.5422 195.95325,44.6697 C195.561,44.7762 194.25525,44.40495 194.3775,45.30045 C194.30325,45.1287 194.26425,45.09495 194.2125,45.09495 C194.1735,45.0507 194.12025,45.09495 194.09025,45.22695 C194.0685,45.22695 194.0685,45.22695 194.04675,45.24045 C193.968,45.2667 193.947,45.3627 193.8645,45.40245 C193.7115,45.4122 193.4985,45.3627 193.37175,45.45645 C193.28925,45.50595 193.21125,45.6567 193.12875,45.81795 C193.1685,45.6762 193.272,45.4377 193.35525,45.37845 C193.464,45.3102 193.55925,45.3102 193.65975,45.3102 C193.968,45.2802 193.7115,45.2067 193.76475,45.1287 C194.09025,44.83995 194.295,44.43945 194.66475,44.22945 C195.50025,43.7892 196.3185,43.3242 197.18025,42.90795 C197.6595,43.1772 198.77325,42.63495 199.3695,42.7032 C200.37975,42.79095 201.4545,42.90795 202.437,42.5472 C202.8465,42.39495 202.8165,40.6587 202.8465,40.32645 C203.0595,41.01645 203.49075,40.68795 203.89125,40.48245 C203.595,41.07495 203.595,41.1732 203.838,41.83695 C204.24,41.54445 204.945,40.7412 205.4445,40.68795 C205.71,40.6587 205.74075,40.7412 205.6275,40.9182 C206.193,41.00145 208.08225,41.2797 208.32975,40.79595 C208.39125,40.6587 208.308,40.1937 208.287,40.0572 C208.2255,39.69495 208.0035,39.16245 207.67275,39.04545 C207.66375,39.04545 207.042,38.88945 207.12,39.04545 C207.264,39.21645 207.45975,38.9757 207.573,39.0942 C207.756,39.24045 207.69525,39.4017 207.786,39.5877 C208.1475,40.29195 208.104,40.46295 207.3465,40.65345 C207.05925,40.72245 206.64225,40.8252 206.3025,40.57095 C205.9755,40.29195 205.9755,39.60195 205.833,39.24045 C205.671,38.95245 205.48425,38.4042 205.2795,38.20845 C204.74025,37.65045 204.666,38.5212 204.16575,37.5192 C204.483,37.4262 204.7095,36.7857 205.03575,36.55995 C205.30125,36.38895 206.14125,36.24195 205.719,35.8707 C205.6275,36.24195 205.4445,36.12045 205.30125,35.9202 C204.83175,35.2737 205.03575,34.2132 205.48425,33.6747 C206.09775,32.90745 207.1035,32.0172 207.3555,31.01445 C207.543,30.25095 207.573,30.25095 208.104,29.82645 C208.095,29.85045 208.07325,29.9277 208.0425,29.9622 C208.59525,29.7717 208.56525,29.7717 208.89975,30.40845 C208.82175,30.0897 208.7475,29.62095 208.82175,29.2242 C208.82175,29.27295 208.82175,29.31195 208.839,29.38545 C208.839,29.31195 208.8615,29.2437 208.8615,29.17545 C208.839,29.56695 208.89975,29.9277 209.10525,30.28095 C209.2185,29.88945 209.27025,29.42895 209.436,29.07345 C209.436,29.07345 209.466,29.07345 209.466,29.0682 C209.33175,29.38545 209.3625,29.79195 209.658,29.99745 C209.70975,29.79195 209.70975,29.62095 209.7225,29.42895 C209.7225,29.44995 209.7405,29.4687 209.7405,29.4882 L209.7405,29.42895 C209.7405,29.4837 209.76225,29.4882 209.79225,29.4882 C210.1485,29.41995 210.23175,29.11245 210.49725,28.79895 C210.47625,28.96995 210.49725,29.0037 210.47625,29.1612 C210.867,29.1612 211.49775,29.1612 211.6245,28.6377 C211.22475,28.6377 212.09475,27.2682 212.1945,27.09195 C212.256,26.94045 212.79975,25.75695 212.76975,26.3877 C212.76975,26.54445 212.60325,26.80845 212.54325,26.92545 C212.61675,26.87145 212.76975,26.87145 212.86875,26.8317 C212.748,27.0087 212.54325,27.1752 212.5125,27.4242 C212.76975,27.23445 213.3615,27.7122 213.648,27.83445 C213.5265,27.3852 213.648,26.84745 213.97425,26.5692 C214.179,26.3877 214.875,26.2557 214.875,26.57895 C215.268,26.4657 215.154,26.97945 215.367,27.30195 C215.511,27.06795 215.55,26.76945 215.69325,26.52495 C215.75475,26.7057 215.8365,26.87145 215.9595,26.99445 C216.003,26.6622 216.207,26.2752 216.39825,25.9917 C216.79875,26.28945 217.452,25.42845 217.944,25.5072 C218.20125,25.5507 218.23125,25.92795 218.45775,25.71195 C218.70075,25.5072 218.988,25.2972 219.19275,25.0332 L219.18375,24.9297 Z" id="Fill-2" fill="#B7B7B7"></path>
                    <path d="M107.947425,97.986075 C107.947425,101.717325 104.922675,104.742075 101.191425,104.742075 C97.460175,104.742075 94.435425,101.717325 94.435425,97.986075 C94.435425,94.254075 97.460175,91.230075 101.191425,91.230075 C104.922675,91.230075 107.947425,94.254075 107.947425,97.986075" id="Fill-4" fill="#F9D3B9" opacity="0.657714844"></path>
                    <path d="M110.697675,83.235825 C110.697675,86.967825 107.672925,89.991825 103.941675,89.991825 C100.210425,89.991825 97.185675,86.967825 97.185675,83.235825 C97.185675,79.504575 100.210425,76.479825 103.941675,76.479825 C107.672925,76.479825 110.697675,79.504575 110.697675,83.235825" id="Fill-6" fill="#F9D3B9" opacity="0.657714844"></path>
                    <path d="M114.7161,80.78295 C114.7161,84.5142 111.69135,87.53895 107.9601,87.53895 C104.22885,87.53895 101.2041,84.5142 101.2041,80.78295 C101.2041,77.05095 104.22885,74.02695 107.9601,74.02695 C111.69135,74.02695 114.7161,77.05095 114.7161,80.78295" id="Fill-8" fill="#F9D3B9" opacity="0.657714844"></path>
                    <path d="M107.88225,62.661375 C107.88225,66.393375 104.8575,69.418125 101.12625,69.418125 C97.395,69.418125 94.37025,66.393375 94.37025,62.661375 C94.37025,58.930125 97.395,55.905375 101.12625,55.905375 C104.8575,55.905375 107.88225,58.930125 107.88225,62.661375" id="Fill-10" fill="#F9D3B9" opacity="0.657714844"></path>
                    <path d="M25.4298,109.587675 C25.4298,113.318925 22.40505,116.343675 18.6738,116.343675 C14.94255,116.343675 11.9178,113.318925 11.9178,109.587675 C11.9178,105.855675 14.94255,102.831675 18.6738,102.831675 C22.40505,102.831675 25.4298,105.855675 25.4298,109.587675" id="Fill-12" fill="#F9D3B9" opacity="0.657714844"></path>
                    <path d="M32.74455,77.0784 C32.74455,80.8104 29.7198,83.83515 25.98855,83.83515 C22.2573,83.83515 19.23255,80.8104 19.23255,77.0784 C19.23255,73.34715 22.2573,70.3224 25.98855,70.3224 C29.7198,70.3224 32.74455,73.34715 32.74455,77.0784" id="Fill-14" fill="#F9D3B9" opacity="0.657714844"></path>
                    <path d="M35.2443,57.828825 C35.2443,61.560075 32.21955,64.584825 28.4883,64.584825 C24.75705,64.584825 21.7323,61.560075 21.7323,57.828825 C21.7323,54.096825 24.75705,51.072825 28.4883,51.072825 C32.21955,51.072825 35.2443,54.096825 35.2443,57.828825" id="Fill-16" fill="#F9D3B9" opacity="0.657714844"></path>
                    <path d="M165.65055,89.523 C165.65055,93.255 162.6258,96.279 158.89455,96.279 C155.16405,96.279 152.13855,93.255 152.13855,89.523 C152.13855,85.79175 155.16405,82.767 158.89455,82.767 C162.6258,82.767 165.65055,85.79175 165.65055,89.523" id="Fill-18" fill="#F9D3B9" opacity="0.657714844"></path>
                    <path d="M155.964975,46.587675 C155.964975,50.318925 152.940225,53.343675 149.208975,53.343675 C145.478475,53.343675 142.452975,50.318925 142.452975,46.587675 C142.452975,42.855675 145.478475,39.831675 149.208975,39.831675 C152.940225,39.831675 155.964975,42.855675 155.964975,46.587675" id="Fill-20" fill="#F9D3B9" opacity="0.657714844"></path>
                    <path d="M160.464975,31.0779 C160.464975,34.80915 157.440225,37.8339 153.708975,37.8339 C149.978475,37.8339 146.952975,34.80915 146.952975,31.0779 C146.952975,27.3459 149.978475,24.3219 153.708975,24.3219 C157.440225,24.3219 160.464975,27.3459 160.464975,31.0779" id="Fill-22" fill="#F9D3B9" opacity="0.657714844"></path>
                    <path d="M136.95645,41.1333 C136.95645,44.8653 133.9317,47.8893 130.20045,47.8893 C126.4692,47.8893 123.44445,44.8653 123.44445,41.1333 C123.44445,37.40205 126.4692,34.3773 130.20045,34.3773 C133.9317,34.3773 136.95645,37.40205 136.95645,41.1333" id="Fill-24" fill="#F9D3B9" opacity="0.657714844"></path>
                    <g id="Group-28" opacity="0.657714844" transform="translate(110.250000, 0.000000)">
                        <mask id="mask-2" fill="white">
                            <use xlink:href="#path-1"></use>
                        </mask>
                        <g id="Clip-27"></g>
                        <path d="M13.95645,7.3833 C13.95645,11.1153 10.9317,14.1393 7.20045,14.1393 C3.4692,14.1393 0.44445,11.1153 0.44445,7.3833 C0.44445,3.65205 3.4692,0.6273 7.20045,0.6273 C10.9317,0.6273 13.95645,3.65205 13.95645,7.3833" id="Fill-26" fill="#F9D3B9" mask="url(#mask-2)"></path>
                    </g>
                    <path d="M133.706325,9.88305 C133.706325,13.61505 130.681575,16.6398 126.950325,16.6398 C123.219075,16.6398 120.194325,13.61505 120.194325,9.88305 C120.194325,6.1518 123.219075,3.12705 126.950325,3.12705 C130.681575,3.12705 133.706325,6.1518 133.706325,9.88305" id="Fill-29" fill="#F9D3B9" opacity="0.657714844"></path>
                    <path d="M127.95645,17.38305 C127.95645,21.11505 124.9317,24.1398 121.20045,24.1398 C117.4692,24.1398 114.44445,21.11505 114.44445,17.38305 C114.44445,13.6518 117.4692,10.62705 121.20045,10.62705 C124.9317,10.62705 127.95645,13.6518 127.95645,17.38305" id="Fill-31" fill="#F9D3B9" opacity="0.657714844"></path>
                    <path d="M145.816575,46.337175 C145.816575,50.069175 142.791825,53.093925 139.060575,53.093925 C135.329325,53.093925 132.304575,50.069175 132.304575,46.337175 C132.304575,42.605925 135.329325,39.581175 139.060575,39.581175 C142.791825,39.581175 145.816575,42.605925 145.816575,46.337175" id="Fill-33" fill="#F9D3B9" opacity="0.657714844"></path>
                    <path d="M148.0578,41.328825 C148.0578,45.060075 145.03305,48.084825 141.3018,48.084825 C137.57055,48.084825 134.5458,45.060075 134.5458,41.328825 C134.5458,37.596825 137.57055,34.572825 141.3018,34.572825 C145.03305,34.572825 148.0578,37.596825 148.0578,41.328825" id="Fill-35" fill="#F9D3B9" opacity="0.657714844"></path>
                    <path d="M145.3815,42.32865 C145.3815,46.06065 142.35675,49.08465 138.6255,49.08465 C134.89425,49.08465 131.86875,46.06065 131.86875,42.32865 C131.86875,38.5974 134.89425,35.57265 138.6255,35.57265 C142.35675,35.57265 145.3815,38.5974 145.3815,42.32865" id="Fill-37" fill="#F9D3B9" opacity="0.657714844"></path>
                    <path d="M136.95645,55.77225 C136.95645,59.5035 133.9317,62.52825 130.20045,62.52825 C126.4692,62.52825 123.44445,59.5035 123.44445,55.77225 C123.44445,52.04025 126.4692,49.01625 130.20045,49.01625 C133.9317,49.01625 136.95645,52.04025 136.95645,55.77225" id="Fill-39" fill="#F9D3B9" opacity="0.657714844"></path>
                    <path d="M78.34515,12.9036 C78.34515,16.6356 75.3204,19.6596 71.58915,19.6596 C67.8579,19.6596 64.83315,16.6356 64.83315,12.9036 C64.83315,9.17235 67.8579,6.1476 71.58915,6.1476 C75.3204,6.1476 78.34515,9.17235 78.34515,12.9036" id="Fill-41" fill="#F9D3B9" opacity="0.657714844"></path>
                    <path d="M98.8449,10.6536 C98.8449,14.3856 95.82015,17.4096 92.0889,17.4096 C88.35765,17.4096 85.3329,14.3856 85.3329,10.6536 C85.3329,6.92235 88.35765,3.8976 92.0889,3.8976 C95.82015,3.8976 98.8449,6.92235 98.8449,10.6536" id="Fill-43" fill="#F9D3B9" opacity="0.657714844"></path>
                    <path d="M107.8449,50.654025 C107.8449,54.385275 104.82015,57.410025 101.0889,57.410025 C97.35765,57.410025 94.3329,54.385275 94.3329,50.654025 C94.3329,46.922025 97.35765,43.897275 101.0889,43.897275 C104.82015,43.897275 107.8449,46.922025 107.8449,50.654025" id="Fill-45" fill="#F9D3B9" opacity="0.657714844"></path>
                    <path d="M98.8449,21.78345 C98.8449,25.51545 95.82015,28.53945 92.0889,28.53945 C88.35765,28.53945 85.3329,25.51545 85.3329,21.78345 C85.3329,18.0522 88.35765,15.02745 92.0889,15.02745 C95.82015,15.02745 98.8449,18.0522 98.8449,21.78345" id="Fill-47" fill="#F9D3B9" opacity="0.657714844"></path>
                    <path d="M169.464975,49.337175 C169.464975,53.069175 166.440225,56.093925 162.708975,56.093925 C158.978475,56.093925 155.952975,53.069175 155.952975,49.337175 C155.952975,45.605925 158.978475,42.581175 162.708975,42.581175 C166.440225,42.581175 169.464975,45.605925 169.464975,49.337175" id="Fill-49" fill="#F9D3B9" opacity="0.657714844"></path>
                    <path d="M191.9379,43.392825 C191.9379,47.124825 188.91315,50.149575 185.1819,50.149575 C181.45065,50.149575 178.42515,47.124825 178.42515,43.392825 C178.42515,39.661575 181.45065,36.636825 185.1819,36.636825 C188.91315,36.636825 191.9379,39.661575 191.9379,43.392825" id="Fill-51" fill="#F9D3B9" opacity="0.657714844"></path>
                    <path d="M186.7992,36.541725 C186.7992,40.272975 183.77445,43.297725 180.0432,43.297725 C176.31195,43.297725 173.28645,40.272975 173.28645,36.541725 C173.28645,32.809725 176.31195,29.785725 180.0432,29.785725 C183.77445,29.785725 186.7992,32.809725 186.7992,36.541725" id="Fill-53" fill="#F9D3B9" opacity="0.657714844"></path>
                    <path d="M183.43815,43.392825 C183.43815,47.124825 180.4134,50.149575 176.6814,50.149575 C172.9509,50.149575 169.9254,47.124825 169.9254,43.392825 C169.9254,39.661575 172.9509,36.636825 176.6814,36.636825 C180.4134,36.636825 183.43815,39.661575 183.43815,43.392825" id="Fill-55" fill="#F9D3B9" opacity="0.657714844"></path>
                    <path d="M200.382,57.606225 C200.382,61.337475 197.35725,64.362225 193.626,64.362225 C189.8955,64.362225 186.87,61.337475 186.87,57.606225 C186.87,53.874225 189.8955,50.850225 193.626,50.850225 C197.35725,50.850225 200.382,53.874225 200.382,57.606225" id="Fill-57" fill="#F9D3B9" opacity="0.657714844"></path>
                    <path d="M218.5863,21.3645 C218.5863,25.0965 215.56155,28.12125 211.8303,28.12125 C208.09905,28.12125 205.07355,25.0965 205.07355,21.3645 C205.07355,17.63325 208.09905,14.6085 211.8303,14.6085 C215.56155,14.6085 218.5863,17.63325 218.5863,21.3645" id="Fill-59" fill="#F9D3B9" opacity="0.657714844"></path>
                    <path d="M209.5863,25.365 C209.5863,29.09625 206.56155,32.121 202.8303,32.121 C199.09905,32.121 196.07355,29.09625 196.07355,25.365 C196.07355,21.633 199.09905,18.609 202.8303,18.609 C206.56155,18.609 209.5863,21.633 209.5863,25.365" id="Fill-61" fill="#F9D3B9" opacity="0.657714844"></path>
                    <path d="M74.179125,64.236075 C74.179125,67.967325 71.154375,70.992075 67.423125,70.992075 C63.691875,70.992075 60.667125,67.967325 60.667125,64.236075 C60.667125,60.504075 63.691875,57.480075 67.423125,57.480075 C71.154375,57.480075 74.179125,60.504075 74.179125,64.236075" id="Fill-63" fill="#F9D3B9" opacity="0.657714844"></path>
                    <g id="Group-67" opacity="0.657714844" transform="translate(0.000000, 18.000000)">
                        <mask id="mask-4" fill="white">
                            <use xlink:href="#path-3"></use>
                        </mask>
                        <g id="Clip-66"></g>
                        <path d="M13.51185,6.8289 C13.51185,10.56015 10.4871,13.5849 6.75585,13.5849 C3.0246,13.5849 -0.00015,10.56015 -0.00015,6.8289 C-0.00015,3.0969 3.0246,0.0729 6.75585,0.0729 C10.4871,0.0729 13.51185,3.0969 13.51185,6.8289" id="Fill-65" fill="#F9D3B9" mask="url(#mask-4)"></path>
                    </g>
                    <path d="M23.466225,24.8289 C23.466225,28.56015 20.441475,31.5849 16.710225,31.5849 C12.978975,31.5849 9.954225,28.56015 9.954225,24.8289 C9.954225,21.0969 12.978975,18.0729 16.710225,18.0729 C20.441475,18.0729 23.466225,21.0969 23.466225,24.8289" id="Fill-68" fill="#F9D3B9" opacity="0.657714844"></path>
                    <path d="M34.94655,25.198725 C34.94655,28.930725 31.9218,31.954725 28.19055,31.954725 C24.4593,31.954725 21.43455,28.930725 21.43455,25.198725 C21.43455,21.467475 24.4593,18.442725 28.19055,18.442725 C31.9218,18.442725 34.94655,21.467475 34.94655,25.198725" id="Fill-70" fill="#F9D3B9" opacity="0.657714844"></path>
                    <path d="M16.299075,9.59745 C16.299075,13.3287 13.274325,16.35345 9.543075,16.35345 C5.811825,16.35345 2.787075,13.3287 2.787075,9.59745 C2.787075,5.86545 5.811825,2.84145 9.543075,2.84145 C13.274325,2.84145 16.299075,5.86545 16.299075,9.59745" id="Fill-72" fill="#F9D3B9" opacity="0.657714844"></path>
                </g>
                <text id="63,067,480" font-family="SourceSansPro-Semibold, Source Sans Pro" font-size="25.5" font-weight="500" letter-spacing="0.00749999983" fill="#FFFFFF">
                    <tspan x="39.690675" y="62.9347676">63,067,480</tspan>
                </text>
            </g>
        </g>
    </g>
</svg>