<?xml version="1.0" encoding="UTF-8"?>
<svg width="551px" height="519px" viewBox="0 0 551 519" version="1.1" xmlns="http://www.w3.org/2000/svg" xmlns:xlink="http://www.w3.org/1999/xlink">
    <!-- Generator: Sketch 59.1 (86144) - https://sketch.com -->
    <title>Group 84</title>
    <desc>Created with Sketch.</desc>
    <defs>
        <polygon id="path-1" points="0 567.75 558.75675 567.75 558.75675 0.1755 0 0.1755"></polygon>
    </defs>
    <g id="Desktop" stroke="none" stroke-width="1" fill="none" fill-rule="evenodd">
        <g id="Homelessness-Section-3-9" transform="translate(-254.000000, -1513.000000)">
            <g id="Group-84" transform="translate(253.000000, 1480.000000)">
                <g id="Group-42" transform="translate(0.000000, 0.574500)">
                    <path d="M234.568725,385.93875 L368.856225,442.94025 C368.257725,444.3495 367.431975,446.20425 366.785475,447.59175 L234.568725,385.93875 Z" id="Fill-1" fill="#F9D3B9"></path>
                    <path d="M234.568725,385.93875 L368.856225,442.94025 C368.257725,444.3495 367.431975,446.20425 366.785475,447.59175 L234.568725,385.93875 Z" id="Stroke-3" stroke="#FFFFFF" stroke-width="1.5"></path>
                    <path d="M234.568725,385.93875 L375.482475,423.69675 C373.647225,430.545 371.626725,436.41375 368.856225,442.94025 L234.568725,385.93875 Z" id="Fill-5" fill="#F9D3B9"></path>
                    <path d="M234.568725,385.93875 L375.482475,423.69675 C373.647225,430.545 371.626725,436.41375 368.856225,442.94025 L234.568725,385.93875 Z" id="Stroke-7" stroke="#FFFFFF" stroke-width="1.5"></path>
                    <path d="M234.568725,385.93875 L380.097975,375.76275 C381.243975,392.1585 379.736475,407.82 375.482475,423.69675 L234.568725,385.93875 Z" id="Fill-9" fill="#F9D3B9"></path>
                    <path d="M234.568725,385.93875 L380.097975,375.76275 C381.243975,392.1585 379.736475,407.82 375.482475,423.69675 L234.568725,385.93875 Z" id="Stroke-11" stroke="#FFFFFF" stroke-width="1.5"></path>
                    <path d="M234.568725,385.93875 L349.527225,296.12325 C368.624475,320.56725 377.934225,344.8185 380.097975,375.76275 L234.568725,385.93875 Z" id="Fill-13" fill="#F9D3B9"></path>
                    <path d="M234.568725,385.93875 L349.527225,296.12325 C368.624475,320.56725 377.934225,344.8185 380.097975,375.76275 L234.568725,385.93875 Z" id="Stroke-15" stroke="#FFFFFF" stroke-width="1.5"></path>
                    <path d="M234.568725,385.93875 L237.114975,240.0765 C282.226725,240.864 321.749475,260.56875 349.527225,296.12325 L234.568725,385.93875 Z" id="Fill-17" fill="#F9D3B9"></path>
                    <path d="M234.568725,385.93875 L237.114975,240.0765 C282.226725,240.864 321.749475,260.56875 349.527225,296.12325 L234.568725,385.93875 Z" id="Stroke-19" stroke="#FFFFFF" stroke-width="1.5"></path>
                    <path d="M234.568725,385.93875 L112.219725,306.4845 C140.391975,263.10375 185.396475,239.1735 237.114975,240.0765 L234.568725,385.93875 Z" id="Fill-21" fill="#F9D3B9"></path>
                    <path d="M234.568725,385.93875 L112.219725,306.4845 C140.391975,263.10375 185.396475,239.1735 237.114975,240.0765 L234.568725,385.93875 Z" id="Stroke-23" stroke="#FFFFFF" stroke-width="1.5"></path>
                    <path d="M234.568725,385.93875 L122.814975,479.71125 C80.709975,429.53325 76.544475,361.4205 112.219725,306.4845 L234.568725,385.93875 Z" id="Fill-25" fill="#F9D3B9"></path>
                    <path d="M234.568725,385.93875 L122.814975,479.71125 C80.709975,429.53325 76.544475,361.4205 112.219725,306.4845 L234.568725,385.93875 Z" id="Stroke-27" stroke="#FFFFFF" stroke-width="1.5"></path>
                    <path d="M234.568725,385.93875 L366.785475,447.59175 C332.734725,520.6125 245.936475,552.20475 172.914975,518.15475 C152.031225,508.41675 137.626725,497.36325 122.814975,479.71125 L234.568725,385.93875 Z" id="Fill-29" fill="#F9D3B9"></path>
                    <path d="M234.568725,385.93875 L366.785475,447.59175 C332.734725,520.6125 245.936475,552.20475 172.914975,518.15475 C152.031225,508.41675 137.626725,497.36325 122.814975,479.71125 L234.568725,385.93875 Z" id="Stroke-31" stroke="#FFFFFF" stroke-width="1.5"></path>
                    <path d="M101.997075,125.46975 L18.813075,86.6805 C34.237575,53.60325 65.499825,33.687 101.997075,33.687 L101.997075,125.46975 Z" id="Fill-33" fill="#F9D3B9"></path>
                    <path d="M101.997075,125.46975 L18.813075,86.6805 C34.237575,53.60325 65.499825,33.687 101.997075,33.687 L101.997075,125.46975 Z" id="Stroke-35" stroke="#FFFFFF" stroke-width="1.5"></path>
                    <path d="M101.997075,125.46975 L101.997075,33.687 C152.687325,33.687 193.779825,74.7795 193.779825,125.46975 C193.779825,176.16 152.687325,217.25325 101.997075,217.25325 C51.306825,217.25325 10.214325,176.16 10.214325,125.46975 C10.214325,111.276 12.814575,99.5445 18.813075,86.6805 L101.997075,125.46975 Z" id="Fill-37" fill="#E55C00"></path>
                    <path d="M101.997075,125.46975 L101.997075,33.687 C152.687325,33.687 193.779825,74.7795 193.779825,125.46975 C193.779825,176.16 152.687325,217.25325 101.997075,217.25325 C51.306825,217.25325 10.214325,176.16 10.214325,125.46975 C10.214325,111.276 12.814575,99.5445 18.813075,86.6805 L101.997075,125.46975 Z" id="Stroke-39" stroke="#FFFFFF" stroke-width="1.5"></path>
                    <mask id="mask-2" fill="white">
                        <use xlink:href="#path-1"></use>
                    </mask>
                    <g id="Clip-41"></g>
                </g>
                <text id="$7,936,431" font-family="SourceSansPro-Semibold, Source Sans Pro" font-size="12" font-weight="500" letter-spacing="-0.00374999992" fill="#3F3F3F">
                    <tspan x="3" y="239.574363">$7,936,431</tspan>
                </text>
                <text id="Transitional-" font-family="SourceSansPro-Regular, Source Sans Pro" font-size="11.25" font-weight="normal" letter-spacing="-0.510000005" fill="#3F3F3F">
                    <tspan x="3" y="253.017104">T</tspan>
                    <tspan x="8.00249999" y="253.017104" letter-spacing="-0.273750007">r</tspan>
                    <tspan x="11.35125" y="253.017104" letter-spacing="0.00749999983">ansitional </tspan>
                </text>
                <text id="Transitional-" font-family="SourceSansPro-Regular, Source Sans Pro" font-size="12" font-weight="normal" letter-spacing="-0.555749997" fill="#3F3F3F">
                    <tspan x="62.71365" y="253.074363">T</tspan>
                    <tspan x="68.0379" y="253.074363" letter-spacing="-0.303750001">r</tspan>
                    <tspan x="71.59815" y="253.074363" letter-spacing="-0.00374999992">ansitional </tspan>
                </text>
                <text id="Living-for-Homeless-" font-family="SourceSansPro-Regular, Source Sans Pro" font-size="12" font-weight="normal" letter-spacing="-0.00374999992" fill="#3F3F3F">
                    <tspan x="3.00165" y="266.574363">Living </tspan>
                    <tspan x="35.3514" y="266.574363" letter-spacing="-0.123750005">f</tspan>
                    <tspan x="38.61165" y="266.574363">or Homeless </tspan>
                </text>
                <text id="Youth" font-family="SourceSansPro-Regular, Source Sans Pro" font-size="12" font-weight="normal" letter-spacing="-0.49575001" fill="#3F3F3F">
                    <tspan x="3.00165" y="280.074363">Y</tspan>
                    <tspan x="7.72589999" y="280.074363" letter-spacing="-0.00374999992">outh</tspan>
                </text>
                <text id="$6,267,267-" font-family="SourceSansPro-Semibold, Source Sans Pro" font-size="12" font-weight="500" letter-spacing="-0.00374999992" fill="#3F3F3F">
                    <tspan x="222.76965" y="95.8503627">$6,267,267 </tspan>
                </text>
                <text id="Basic-Center-Grant" font-family="SourceSansPro-Regular, Source Sans Pro" font-size="11.25" font-weight="normal" letter-spacing="-0.00374999992" fill="#3F3F3F">
                    <tspan x="222.76425" y="109.295429">Basic Cen</tspan>
                    <tspan x="268.14675" y="109.295429" letter-spacing="-0.116250001">t</tspan>
                    <tspan x="271.7205" y="109.295429">er G</tspan>
                    <tspan x="290.403" y="109.295429" letter-spacing="-0.284999996">r</tspan>
                    <tspan x="293.7405" y="109.295429">ant</tspan>
                </text>
                <text id="$5,471,426--" font-family="SourceSansPro-Semibold, Source Sans Pro" font-size="12" font-weight="500" letter-spacing="-0.00374999992" fill="#3F3F3F">
                    <tspan x="294.01065" y="148.680813">$5,471,426  </tspan>
                </text>
                <text id="Transitional-Housing-Assistance-for-Victims-of-" font-family="SourceSansPro-Regular, Source Sans Pro" font-size="11.25" font-weight="normal" letter-spacing="-0.510000005" fill="#3F3F3F">
                    <tspan x="294.01065" y="162.123554">T</tspan>
                    <tspan x="299.01315" y="162.123554" letter-spacing="-0.273750007">r</tspan>
                    <tspan x="302.3619" y="162.123554" letter-spacing="0.00749999983">ansitional Housing Assis</tspan>
                    <tspan x="415.81815" y="162.123554" letter-spacing="-0.193875007">t</tspan>
                    <tspan x="419.224275" y="162.123554" letter-spacing="0.00749999983">an</tspan>
                    <tspan x="431.153025" y="162.123554" letter-spacing="-0.228750005">c</tspan>
                    <tspan x="435.818025" y="162.123554" letter-spacing="0.00749999983">e </tspan>
                    <tspan x="443.685525" y="162.123554" letter-spacing="-0.103875004">f</tspan>
                    <tspan x="446.75415" y="162.123554" letter-spacing="0.00749999983">or </tspan>
                    <tspan x="459.0504" y="162.123554" letter-spacing="-0.0262500001">V</tspan>
                    <tspan x="464.78415" y="162.123554" letter-spacing="0.00749999983">ictims of </tspan>
                </text>
                <text id="Domestic-Violence,-Dating-Violence,-Stalking,-or-" font-family="SourceSansPro-Regular, Source Sans Pro" font-size="11.25" font-weight="normal" letter-spacing="0.00749999983" fill="#3F3F3F">
                    <tspan x="294.01065" y="175.623554">Domestic </tspan>
                    <tspan x="340.6869" y="175.623554" letter-spacing="-0.0262500001">V</tspan>
                    <tspan x="346.42065" y="175.623554">iolen</tspan>
                    <tspan x="369.92565" y="175.623554" letter-spacing="-0.228750005">c</tspan>
                    <tspan x="374.59065" y="175.623554">e, Dating </tspan>
                    <tspan x="418.6644" y="175.623554" letter-spacing="-0.0262500001">V</tspan>
                    <tspan x="424.39815" y="175.623554">iolen</tspan>
                    <tspan x="447.90315" y="175.623554" letter-spacing="-0.228750005">c</tspan>
                    <tspan x="452.56815" y="175.623554">e, S</tspan>
                    <tspan x="469.2594" y="175.623554" letter-spacing="-0.193875007">t</tspan>
                    <tspan x="472.665525" y="175.623554">alking, or </tspan>
                </text>
                <text id="Sexual-Assault" font-family="SourceSansPro-Regular, Source Sans Pro" font-size="11.25" font-weight="normal" letter-spacing="0.00749999983" fill="#3F3F3F">
                    <tspan x="294.01065" y="189.123554">S</tspan>
                    <tspan x="300.02565" y="189.123554" letter-spacing="-0.0712499991">e</tspan>
                    <tspan x="305.45565" y="189.123554">xual Assault</tspan>
                </text>
                <text id="$3,760,994--" font-family="SourceSansPro-Semibold, Source Sans Pro" font-size="12" font-weight="500" letter-spacing="-0.00374999992" fill="#3F3F3F">
                    <tspan x="414.01575" y="217.154913">$3,760,994  </tspan>
                </text>
                <text id="VA-Supportive-Services-for-" font-family="SourceSansPro-Regular, Source Sans Pro" font-size="11.25" font-weight="normal" letter-spacing="-0.150000002" fill="#3F3F3F">
                    <tspan x="414.01575" y="230.597654">V</tspan>
                    <tspan x="419.502" y="230.597654" letter-spacing="0.00749999983">A Supporti</tspan>
                    <tspan x="469.15575" y="230.597654" letter-spacing="-0.0375000006">v</tspan>
                    <tspan x="474.327" y="230.597654" letter-spacing="0.00749999983">e Se</tspan>
                    <tspan x="493.797" y="230.597654" letter-spacing="0.22124999">r</tspan>
                    <tspan x="498.13575" y="230.597654" letter-spacing="0.00749999983">vi</tspan>
                    <tspan x="506.172" y="230.597654" letter-spacing="-0.228750005">c</tspan>
                    <tspan x="510.837" y="230.597654" letter-spacing="0.00749999983">es </tspan>
                    <tspan x="523.42575" y="230.597654" letter-spacing="-0.105">f</tspan>
                    <tspan x="526.49325" y="230.597654" letter-spacing="0.00749999983">or </tspan>
                </text>
                <text id="Veteran-Families-Program" font-family="SourceSansPro-Regular, Source Sans Pro" font-size="11.25" font-weight="normal" letter-spacing="-0.161250003" fill="#3F3F3F">
                    <tspan x="414.01575" y="244.097654">V</tspan>
                    <tspan x="419.4795" y="244.097654" letter-spacing="-0.150000002">e</tspan>
                    <tspan x="424.752" y="244.097654" letter-spacing="-0.105">t</tspan>
                    <tspan x="428.337" y="244.097654" letter-spacing="0.00749999983">e</tspan>
                    <tspan x="433.9245" y="244.097654" letter-spacing="-0.273750007">r</tspan>
                    <tspan x="437.27325" y="244.097654" letter-spacing="0.00749999983">an </tspan>
                    <tspan x="451.482" y="244.097654" letter-spacing="-0.375">F</tspan>
                    <tspan x="456.282" y="244.097654" letter-spacing="0.00749999983">amilies P</tspan>
                    <tspan x="498.88575" y="244.097654" letter-spacing="-0.105">r</tspan>
                    <tspan x="502.572" y="244.097654" letter-spacing="0.00749999983">og</tspan>
                    <tspan x="514.3545" y="244.097654" letter-spacing="-0.273750007">r</tspan>
                    <tspan x="517.70325" y="244.097654" letter-spacing="0.00749999983">am</tspan>
                </text>
                <text id="$12,551,342-" font-family="SourceSansPro-Semibold, Source Sans Pro" font-size="12" font-weight="500" letter-spacing="-0.00374999992" fill="#505050">
                    <tspan x="1.5" y="521.107113">$12,551,342 </tspan>
                </text>
                <text id="VA-Homeless-Providers-Grant-" font-family="SourceSansPro-Regular, Source Sans Pro" font-size="11.25" font-weight="normal" letter-spacing="-0.150000002" fill="#505050">
                    <tspan x="1.5" y="534.549854">V</tspan>
                    <tspan x="6.98625" y="534.549854" letter-spacing="0.00749999983">A Homeless P</tspan>
                    <tspan x="70.43625" y="534.549854" letter-spacing="-0.105">r</tspan>
                    <tspan x="74.1225" y="534.549854" letter-spacing="-0.0375000006">o</tspan>
                    <tspan x="80.1375" y="534.549854" letter-spacing="0.00749999983">vide</tspan>
                    <tspan x="100.0125" y="534.549854" letter-spacing="-0.105">r</tspan>
                    <tspan x="103.69875" y="534.549854" letter-spacing="0.00749999983">s G</tspan>
                    <tspan x="117.64875" y="534.549854" letter-spacing="-0.274874993">r</tspan>
                    <tspan x="120.996375" y="534.549854" letter-spacing="0.00749999983">ant </tspan>
                </text>
                <text id="and-Per-Diem-Program-" font-family="SourceSansPro-Regular, Source Sans Pro" font-size="11.25" font-weight="normal" letter-spacing="0.00749999983" fill="#505050">
                    <tspan x="1.5" y="548.049854">and </tspan>
                    <tspan x="21.96" y="548.049854" letter-spacing="-0.262499996">P</tspan>
                    <tspan x="27.9075" y="548.049854">er Diem P</tspan>
                    <tspan x="73.07625" y="548.049854" letter-spacing="-0.105">r</tspan>
                    <tspan x="76.7625" y="548.049854">og</tspan>
                    <tspan x="88.545" y="548.049854" letter-spacing="-0.273750007">r</tspan>
                    <tspan x="91.89375" y="548.049854">am </tspan>
                </text>
                <text id="$1,998,490----" font-family="SourceSansPro-Semibold, Source Sans Pro" font-size="12" font-weight="500" letter-spacing="-0.00374999992" fill="#3F3F3F">
                    <tspan x="415.51575" y="288.655413">$1,998,490    </tspan>
                </text>
                <text id="Education-and-Prevention-" font-family="SourceSansPro-Regular, Source Sans Pro" font-size="11.25" font-weight="normal" letter-spacing="0.00749999983" fill="#3F3F3F">
                    <tspan x="415.51575" y="302.098154">Edu</tspan>
                    <tspan x="433.83075" y="302.098154" letter-spacing="-0.105">c</tspan>
                    <tspan x="438.74325" y="302.098154">ation and P</tspan>
                    <tspan x="492.5895" y="302.098154" letter-spacing="-0.105">r</tspan>
                    <tspan x="496.27575" y="302.098154" letter-spacing="0.0637500007">e</tspan>
                    <tspan x="501.97575" y="302.098154" letter-spacing="-0.0375000006">v</tspan>
                    <tspan x="507.147" y="302.098154">ention </tspan>
                </text>
                <text id="Grants-to-Reduce-Sexual-" font-family="SourceSansPro-Regular, Source Sans Pro" font-size="11.25" font-weight="normal" letter-spacing="0.00749999983" fill="#3F3F3F">
                    <tspan x="415.51575" y="315.598154">G</tspan>
                    <tspan x="422.4645" y="315.598154" letter-spacing="-0.273750007">r</tspan>
                    <tspan x="425.81325" y="315.598154">ants </tspan>
                    <tspan x="448.55325" y="315.598154" letter-spacing="-0.103875004">t</tspan>
                    <tspan x="452.139375" y="315.598154">o </tspan>
                    <tspan x="460.524375" y="315.598154" letter-spacing="-0.105">R</tspan>
                    <tspan x="466.843125" y="315.598154">edu</tspan>
                    <tspan x="484.809375" y="315.598154" letter-spacing="-0.228750005">c</tspan>
                    <tspan x="489.474375" y="315.598154">e S</tspan>
                    <tspan x="503.356875" y="315.598154" letter-spacing="-0.0712499991">e</tspan>
                    <tspan x="508.786875" y="315.598154">xual </tspan>
                </text>
                <text id="Abuse-of-Runaway,-Homeless-" font-family="SourceSansPro-Regular, Source Sans Pro" font-size="11.25" font-weight="normal" letter-spacing="0.00749999983" fill="#3F3F3F">
                    <tspan x="415.51575" y="329.098154">Abuse of Runa</tspan>
                    <tspan x="482.88825" y="329.098154" letter-spacing="-0.105">w</tspan>
                    <tspan x="490.74825" y="329.098154">a</tspan>
                    <tspan x="496.51575" y="329.098154" letter-spacing="-0.386249989">y</tspan>
                    <tspan x="500.9895" y="329.098154">, Homeless </tspan>
                </text>
                <text id="and-Street-Youth" font-family="SourceSansPro-Regular, Source Sans Pro" font-size="11.25" font-weight="normal" letter-spacing="0.00749999983" fill="#3F3F3F">
                    <tspan x="415.51575" y="342.598154">and St</tspan>
                    <tspan x="445.80075" y="342.598154" letter-spacing="-0.106124997">r</tspan>
                    <tspan x="449.485875" y="342.598154">e</tspan>
                    <tspan x="455.073375" y="342.598154" letter-spacing="-0.148875006">e</tspan>
                    <tspan x="460.347" y="342.598154">t </tspan>
                    <tspan x="466.437" y="342.598154" letter-spacing="-0.452625006">Y</tspan>
                    <tspan x="470.878125" y="342.598154">outh</tspan>
                </text>
                <text id="$865,867-----" font-family="SourceSansPro-Semibold, Source Sans Pro" font-size="12" font-weight="500" letter-spacing="-0.00374999992" fill="#3F3F3F">
                    <tspan x="415.515375" y="386.171538">$865,867     </tspan>
                </text>
                <text id="Homeless-Veterans’-" font-family="SourceSansPro-Regular, Source Sans Pro" font-size="11.25" font-weight="normal" letter-spacing="0.00749999983" fill="#3F3F3F">
                    <tspan x="415.515375" y="399.614279">Homeless </tspan>
                    <tspan x="464.070375" y="399.614279" letter-spacing="-0.161250003">V</tspan>
                    <tspan x="469.534125" y="399.614279" letter-spacing="-0.151124999">e</tspan>
                    <tspan x="474.8055" y="399.614279" letter-spacing="-0.103875004">t</tspan>
                    <tspan x="478.391625" y="399.614279">e</tspan>
                    <tspan x="483.979125" y="399.614279" letter-spacing="-0.273750007">r</tspan>
                    <tspan x="487.327875" y="399.614279">an</tspan>
                    <tspan x="499.256625" y="399.614279" letter-spacing="-0.117374998">s</tspan>
                    <tspan x="503.72925" y="399.614279">’ </tspan>
                </text>
                <text id="Reintegration-Program" font-family="SourceSansPro-Regular, Source Sans Pro" font-size="11.25" font-weight="normal" letter-spacing="-0.105" fill="#3F3F3F">
                    <tspan x="415.515375" y="413.114279">R</tspan>
                    <tspan x="421.834125" y="413.114279" letter-spacing="0.00749999983">ein</tspan>
                    <tspan x="436.357875" y="413.114279">te</tspan>
                    <tspan x="445.305375" y="413.114279" letter-spacing="0.00749999983">g</tspan>
                    <tspan x="450.982875" y="413.114279" letter-spacing="-0.273750007">r</tspan>
                    <tspan x="454.331625" y="413.114279" letter-spacing="0.00749999983">ation P</tspan>
                    <tspan x="487.717875" y="413.114279">r</tspan>
                    <tspan x="491.404125" y="413.114279" letter-spacing="0.00749999983">og</tspan>
                    <tspan x="503.186625" y="413.114279" letter-spacing="-0.274874993">r</tspan>
                    <tspan x="506.53425" y="413.114279" letter-spacing="0.00749999983">am</tspan>
                </text>
                <text id="$187,500" font-family="SourceSansPro-Semibold, Source Sans Pro" font-size="12" font-weight="500" letter-spacing="-0.00374999992" fill="#3F3F3F">
                    <tspan x="415.515375" y="442.412763">$187,500</tspan>
                </text>
                <text id="Demonstration-Grants-for-" font-family="SourceSansPro-Regular, Source Sans Pro" font-size="11.25" font-weight="normal" letter-spacing="0.00749999983" fill="#3F3F3F">
                    <tspan x="415.515375" y="455.855504">Demonst</tspan>
                    <tspan x="458.160375" y="455.855504" letter-spacing="-0.273750007">r</tspan>
                    <tspan x="461.509125" y="455.855504">ation G</tspan>
                    <tspan x="495.356625" y="455.855504" letter-spacing="-0.273750007">r</tspan>
                    <tspan x="498.705375" y="455.855504">ants </tspan>
                    <tspan x="521.445375" y="455.855504" letter-spacing="-0.105">f</tspan>
                    <tspan x="524.512875" y="455.855504">or </tspan>
                </text>
                <text id="Domestic-Victims-of-Human" font-family="SourceSansPro-Regular, Source Sans Pro" font-size="11.25" font-weight="normal" letter-spacing="0.00749999983" fill="#3F3F3F">
                    <tspan x="415.515375" y="469.355504">Domestic </tspan>
                    <tspan x="462.191625" y="469.355504" letter-spacing="-0.0262500001">V</tspan>
                    <tspan x="467.925375" y="469.355504">ictims of Human</tspan>
                </text>
                <text id="Traﬀicking-" font-family="SourceSansPro-Regular, Source Sans Pro" font-size="11.25" font-weight="normal" letter-spacing="-0.510000005" fill="#3F3F3F">
                    <tspan x="415.515375" y="482.855504">T</tspan>
                    <tspan x="420.517875" y="482.855504" letter-spacing="-0.273750007">r</tspan>
                    <tspan x="423.866625" y="482.855504" letter-spacing="0.00749999983">aﬀicking </tspan>
                </text>
                <text id="----" font-family="SourceSansPro-Semibold, Source Sans Pro" font-size="12" font-weight="500"></text>
                <path d="M111.94665,401.9322 C104.2299,334.28295 152.8149,273.1872 220.46415,265.47045 C288.1134,257.7537 349.2099,306.3387 356.92665,373.98795 C364.64265,441.63645 316.05765,502.73295 248.40915,510.4497 C180.75915,518.16645 119.6634,469.58145 111.94665,401.9322" id="Fill-43" fill="#FFFFFF"></path>
                <text id="24%" font-family="SourceSansPro-Light, Source Sans Pro" font-size="42" font-weight="300" letter-spacing="-0.0224999995" fill="#3F3F3F">
                    <tspan x="207.981825" y="377.995807">24%</tspan>
                </text>
                <g id="Group-73" transform="translate(39.000000, 120.574500)">
                    <line x1="185.25735" y1="132.7881" x2="185.62485" y2="0.2166" id="Stroke-45" stroke="#808080" stroke-width="0.75"></line>
                    <path d="M188.077512,132.65475 C188.07375,134.21175 186.807,135.471 185.25,135.466512 C183.693,135.46275 182.43375,134.19675 182.437492,132.639 C182.442,131.082 183.70875,129.8235 185.26575,129.826495 C186.82275,129.831 188.082,131.09775 188.077512,132.65475" id="Fill-47" fill="#808080"></path>
                    <line x1="257.99925" y1="146.791275" x2="257.99925" y2="81.251775" id="Stroke-49" stroke="#808080" stroke-width="0.75"></line>
                    <path d="M260.8191,146.6499 C260.8191,148.2069 259.5561,149.4699 257.9991,149.4699 C256.4421,149.4699 255.1791,148.2069 255.1791,146.6499 C255.1791,145.0929 256.4421,143.8299 257.9991,143.8299 C259.5561,143.8299 260.8191,145.0929 260.8191,146.6499" id="Fill-51" fill="#808080"></path>
                    <line x1="320.9253" y1="321.216825" x2="369.75705" y2="321.216825" id="Stroke-53" stroke="#808080" stroke-width="0.75"></line>
                    <path d="M321.0663,324.0366 C319.5093,324.0366 318.2463,322.7736 318.2463,321.2166 C318.2463,319.6596 319.5093,318.3966 321.0663,318.3966 C322.6233,318.3966 323.8863,319.6596 323.8863,321.2166 C323.8863,322.7736 322.6233,324.0366 321.0663,324.0366" id="Fill-55" fill="#808080"></path>
                    <polyline id="Stroke-57" stroke="#808080" stroke-width="0.75" points="329.93115 281.466825 359.2614 281.466825 359.2614 264.965325 369.75765 264.965325"></polyline>
                    <path d="M330.07215,284.2866 C328.51515,284.2866 327.25215,283.0236 327.25215,281.4666 C327.25215,279.9096 328.51515,278.6466 330.07215,278.6466 C331.62915,278.6466 332.89215,279.9096 332.89215,281.4666 C332.89215,283.0236 331.62915,284.2866 330.07215,284.2866" id="Fill-59" fill="#808080"></path>
                    <polyline id="Stroke-61" stroke="#808080" stroke-width="0.75" points="324.672375 220.71825 350.249625 220.71825 350.249625 96.21675 369.757125 96.21675"></polyline>
                    <path d="M324.813375,223.5381 C323.256375,223.5381 321.993375,222.2751 321.993375,220.7181 C321.993375,219.1611 323.256375,217.8981 324.813375,217.8981 C326.370375,217.8981 327.633375,219.1611 327.633375,220.7181 C327.633375,222.2751 326.370375,223.5381 324.813375,223.5381" id="Fill-63" fill="#808080"></path>
                    <line x1="195.321525" y1="401.43015" x2="34.499775" y2="399.2169" id="Stroke-65" stroke="#808080" stroke-width="0.75"></line>
                    <path d="M195.219375,398.608125 C196.776375,398.629875 198.021375,399.909375 198.000375,401.467125 C197.978625,403.024125 196.698375,404.269125 195.141375,404.248125 C193.584375,404.225625 192.339375,402.946125 192.360375,401.389125 C192.382125,399.832125 193.662375,398.587125 195.219375,398.608125" id="Fill-67" fill="#808080"></path>
                    <line x1="71.320275" y1="210.159675" x2="-0.000225" y2="159.216675" id="Stroke-69" stroke="#808080" stroke-width="0.75"></line>
                    <path d="M72.8445,207.782925 C74.11125,208.688175 74.40525,210.449925 73.5,211.716675 C72.59475,212.984175 70.83375,213.277425 69.56625,212.372175 C68.2995,211.466925 68.0055,209.705175 68.91075,208.438425 C69.816,207.171675 71.57775,206.878425 72.8445,207.782925" id="Fill-71" fill="#808080"></path>
                </g>
                <text id="-$39,039,317" font-family="SourceSansPro-Bold, Source Sans Pro" font-size="10.5" font-weight="bold" letter-spacing="0.00749999983" fill="#3F3F3F">
                    <tspan x="210.5757" y="419.697145"> $39,039,317</tspan>
                </text>
                <polygon id="Fill-74" fill="#F9D3B9" points="188.38575 409.46625 198.13575 409.46625 198.13575 399.71625 188.38575 399.71625"></polygon>
                <text id="Other-Programs" font-family="SourceSansPro-Bold, Source Sans Pro" font-size="10.5" font-weight="bold" letter-spacing="0.00749999983" fill="#3F3F3F">
                    <tspan x="203.81835" y="403.936945">Other P</tspan>
                    <tspan x="239.23485" y="403.936945" letter-spacing="-0.0974999964">r</tspan>
                    <tspan x="243.21135" y="403.936945">og</tspan>
                    <tspan x="254.66085" y="403.936945" letter-spacing="-0.296999998">r</tspan>
                    <tspan x="258.23835" y="403.936945">ams</tspan>
                </text>
                <path d="M169.307775,127.7376 C169.307775,165.7851 138.464025,196.62885 100.416525,196.62885 C62.369025,196.62885 31.526025,165.7851 31.526025,127.7376 C31.526025,89.69085 62.369025,58.8471 100.416525,58.8471 C138.464025,58.8471 169.307775,89.69085 169.307775,127.7376" id="Fill-76" fill="#FFFFFF"></path>
                <text id="Continuum-of-Care" font-family="SourceSansPro-Bold, Source Sans Pro" font-size="10.5" font-weight="bold" letter-spacing="0.00749999983" fill="#3F3F3F">
                    <tspan x="65.0757" y="145.154695">Continuum </tspan>
                    <tspan x="119.1312" y="145.154695" letter-spacing="-0.044999999">o</tspan>
                    <tspan x="124.8612" y="145.154695">f Ca</tspan>
                    <tspan x="142.3737" y="145.154695" letter-spacing="-0.096450001">r</tspan>
                    <tspan x="146.35125" y="145.154695">e</tspan>
                </text>
                <line x1="100.812375" y1="57.416325" x2="334.499625" y2="279.041325" id="Stroke-78" stroke="#26660C" stroke-width="0.5"></line>
                <text id="-$122,321,006" font-family="SourceSansPro-Bold, Source Sans Pro" font-size="10.5" font-weight="bold" letter-spacing="0.00749999983" fill="#3F3F3F">
                    <tspan x="71.9982" y="160.34437"> $122,321,006</tspan>
                </text>
                <text id="76%" font-family="SourceSansPro-Light, Source Sans Pro" font-size="42" font-weight="300" letter-spacing="-0.0224999995" fill="#3F3F3F">
                    <tspan x="69.2388" y="117.752407">76%</tspan>
                </text>
                <g id="Group-83" transform="translate(38.250000, 95.074500)">
                    <polygon id="Fill-80" fill="#E55C00" points="11.907 54.7545 21.657 54.7545 21.657 45.0045 11.907 45.0045"></polygon>
                    <line x1="52.251675" y1="312.466575" x2="0.187425" y2="0.216825" id="Stroke-82" stroke="#26660C" stroke-width="0.5"></line>
                </g>
            </g>
        </g>
    </g>
</svg>