<?xml version="1.0" encoding="UTF-8"?>
<svg width="301px" height="79px" viewBox="0 0 301 79" version="1.1" xmlns="http://www.w3.org/2000/svg" xmlns:xlink="http://www.w3.org/1999/xlink">
    <!-- Generator: Sketch 59.1 (86144) - https://sketch.com -->
    <title>Group 20</title>
    <desc>Created with Sketch.</desc>
    <defs>
        <polygon id="path-1" points="0 82.5 300.054 82.5 300.054 0.32325 0 0.32325"></polygon>
    </defs>
    <g id="Desktop" stroke="none" stroke-width="1" fill="none" fill-rule="evenodd">
        <g id="Homelessness-Section-3-9" transform="translate(-843.000000, -2119.000000)">
            <g id="Group-20" transform="translate(843.000000, 2119.000000)">
                <polygon id="Fill-1" fill="#E0E0E0" points="1.85925 41.46675 298.85925 41.46675 298.85925 31.71675 1.85925 31.71675"></polygon>
                <line x1="1.858875" y1="41.9646" x2="1.858875" y2="15.7146" id="Stroke-2" stroke="#D1D1D1" stroke-width="0.75" stroke-linecap="round"></line>
                <line x1="76.108875" y1="49.341525" x2="76.108875" y2="23.091525" id="Stroke-3" stroke="#D1D1D1" stroke-width="0.75" stroke-linecap="round"></line>
                <line x1="150.358875" y1="49.47045" x2="150.358875" y2="23.22045" id="Stroke-4" stroke="#D1D1D1" stroke-width="0.75" stroke-linecap="round"></line>
                <line x1="224.608875" y1="49.47045" x2="224.608875" y2="23.22045" id="Stroke-5" stroke="#D1D1D1" stroke-width="0.75" stroke-linecap="round"></line>
                <line x1="298.858875" y1="49.47045" x2="298.858875" y2="23.22045" id="Stroke-6" stroke="#D1D1D1" stroke-width="0.75" stroke-linecap="round"></line>
                <g id="Group-12" transform="translate(0.000000, 0.426750)">
                    <path d="M273.358875,44.789775 L7.858875,44.789775 C6.208875,44.789775 4.858875,43.439025 4.858875,41.789775 L4.858875,30.539775 C4.858875,28.889775 6.208875,27.539775 7.858875,27.539775 L273.358875,27.539775 C275.008875,27.539775 276.358875,28.889775 276.358875,30.539775 L276.358875,41.789775 C276.358875,43.439025 275.008875,44.789775 273.358875,44.789775" id="Fill-7" fill="#F9D3B9"></path>
                    <path d="M101.08815,46.2861 L11.33565,46.2861 C9.68565,46.2861 8.33565,44.9361 8.33565,43.2861 L8.33565,29.0361 C8.33565,27.3861 9.68565,26.0361 11.33565,26.0361 L101.08815,26.0361 C102.7374,26.0361 104.08815,27.3861 104.08815,29.0361 L104.08815,43.2861 C104.08815,44.9361 102.7374,46.2861 101.08815,46.2861" id="Fill-9" fill="#E55C00"></path>
                    <mask id="mask-2" fill="white">
                        <use xlink:href="#path-1"></use>
                    </mask>
                    <g id="Clip-11"></g>
                    <text id="CLUSTER-MEDIAN:-33,136" mask="url(#mask-2)" font-family="SourceSansPro-Semibold, Source Sans Pro" font-size="10.5" font-weight="500" letter-spacing="-0.0149999997" fill="#565656">
                        <tspan x="9.217875" y="75.5948205">C</tspan>
                        <tspan x="15.250875" y="75.5948205" letter-spacing="-0.361499995">L</tspan>
                        <tspan x="19.813875" y="75.5948205" letter-spacing="-0.119999997">U</tspan>
                        <tspan x="26.466375" y="75.5948205" letter-spacing="-0.225000009">S</tspan>
                        <tspan x="31.753875" y="75.5948205">TER MEDIAN: 33,136</tspan>
                    </text>
                    <text id="0" mask="url(#mask-2)" font-family="SourceSansPro-Regular, Source Sans Pro" font-size="10.5" font-weight="normal" fill="#848484">
                        <tspan x="-0.001125" y="5.84332048">0</tspan>
                    </text>
                </g>
                <text id="600K" font-family="SourceSansPro-Regular, Source Sans Pro" font-size="10.5" font-weight="normal" letter-spacing="-0.0299999993" fill="#848484">
                    <tspan x="279.62145" y="13.7723205">600K</tspan>
                </text>
                <text id="300K" font-family="SourceSansPro-Regular, Source Sans Pro" font-size="10.5" font-weight="normal" letter-spacing="-0.0299999993" fill="#848484">
                    <tspan x="143.86695" y="13.7723205">300K</tspan>
                </text>
                <text id="450K" font-family="SourceSansPro-Regular, Source Sans Pro" font-size="10.5" font-weight="normal" letter-spacing="-0.0299999993" fill="#848484">
                    <tspan x="215.11995" y="13.7723205">450K</tspan>
                </text>
                <text id="150K" font-family="SourceSansPro-Regular, Source Sans Pro" font-size="10.5" font-weight="normal" letter-spacing="-0.0299999993" fill="#848484">
                    <tspan x="65.11695" y="13.7723205">150K</tspan>
                </text>
                <text id="-" font-family="SourceSansPro-Regular, Source Sans Pro" font-size="9" font-weight="normal"></text>
                <g id="Group-19" transform="translate(14.250000, 29.676750)">
                    <line x1="5.3577" y1="38.039775" x2="5.3577" y2="21.960525" id="Stroke-13" stroke="#636363" stroke-width="1.5" stroke-linecap="round"></line>
                    <path d="M5.3577,22.26195 C4.57395,23.0457 3.02445,23.4192 1.94895,23.44995 C3.3927,22.3752 4.65195,20.9787 5.3577,19.2897 C6.03345,20.9787 7.3692,22.3137 8.76645,23.44995 C7.6152,23.3577 6.2172,23.07645 5.3577,22.26195" id="Fill-15" fill="#636363"></path>
                    <path d="M4.833225,7.86331836 C3.426975,7.86855 2.319225,6.7473 2.32371134,5.32305 C2.328225,4.01055 3.474225,2.8923 4.818975,2.88627592 C6.175725,2.8803 7.294725,3.9963 7.309725,5.3673 C7.323225,6.70605 6.180225,7.8588 4.833225,7.86331836 M8.949975,3.1413 C8.094225,1.52655 6.660225,0.7548 5.180475,0.658799799 C2.269725,0.65805 0.153225,2.75655 0.107475,5.34405 C0.081975,6.8388 0.676725,8.07105 1.646475,9.1608 C2.688975,10.3338 3.789225,11.46255 4.430475,12.9348 C4.499475,13.09155 4.704225,13.29705 4.833975,13.2888 C4.972725,13.2813 5.121975,13.06155 5.222475,12.90555 C5.681475,12.19155 6.078225,11.43105 6.586725,10.7538 C7.243725,9.8793 8.061975,9.1203 8.674725,8.2188 C9.767475,6.61005 9.861975,4.86105 8.949975,3.1413" id="Fill-17" fill="#FFFFFF"></path>
                </g>
            </g>
        </g>
    </g>
</svg>