<?xml version="1.0" encoding="UTF-8"?>
<svg width="301px" height="69px" viewBox="0 0 301 69" version="1.1" xmlns="http://www.w3.org/2000/svg" xmlns:xlink="http://www.w3.org/1999/xlink">
    <!-- Generator: Sketch 59.1 (86144) - https://sketch.com -->
    <title>Group 828</title>
    <desc>Created with Sketch.</desc>
    <defs>
        <polygon id="path-1" points="0 69 300.987 69 300.987 0.735 0 0.735"></polygon>
    </defs>
    <g id="Desktop" stroke="none" stroke-width="1" fill="none" fill-rule="evenodd">
        <g id="Homelessness-Section-3-8" transform="translate(-845.000000, -1591.000000)">
            <g id="Group-82" transform="translate(845.000000, 1591.000000)">
                <polygon id="Fill-1" fill="#E0E0E0" points="2.04225 31.348875 299.04225 31.348875 299.04225 21.598875 2.04225 21.598875"></polygon>
                <g id="Group-81" transform="translate(0.000000, 0.014625)">
                    <path d="M22.953375,63.676725 C22.953375,63.116475 23.035125,62.614725 23.200125,62.169975 C23.364375,61.725225 23.590125,61.348725 23.876625,61.040475 C24.163875,60.732975 24.500625,60.498975 24.885375,60.337725 C25.270125,60.176475 25.683375,60.096225 26.124375,60.096225 C26.544375,60.096225 26.920125,60.183975 27.252375,60.358725 C27.585375,60.534225 27.859875,60.736725 28.077375,60.967725 L27.394875,61.723725 C27.219375,61.548975 27.031875,61.410975 26.833125,61.308975 C26.632875,61.207725 26.401125,61.156725 26.134875,61.156725 C25.847625,61.156725 25.587375,61.214475 25.351875,61.329975 C25.117875,61.444725 24.914625,61.609725 24.743625,61.822725 C24.571875,62.036475 24.438375,62.297475 24.343875,62.605725 C24.250125,62.913225 24.202875,63.259725 24.202875,63.645225 C24.202875,64.428975 24.372375,65.043225 24.712125,65.487975 C25.051125,65.932725 25.511625,66.154725 26.092875,66.154725 C26.401125,66.154725 26.668125,66.095475 26.896125,65.975475 C27.123375,65.856975 27.335625,65.689725 27.531375,65.472225 L28.213875,66.217725 C27.934125,66.539475 27.615375,66.786225 27.257625,66.957975 C26.901375,67.129725 26.505375,67.215225 26.071875,67.215225 C25.630125,67.215225 25.220625,67.137975 24.843375,66.984225 C24.465375,66.830475 24.136125,66.602475 23.856375,66.301725 C23.575875,66.000975 23.355375,65.629725 23.194125,65.188725 C23.032875,64.747725 22.953375,64.243725 22.953375,63.676725" id="Fill-2" fill="#3F3F3F"></path>
                    <polygon id="Fill-4" fill="#3F3F3F" points="29.148225 60.221925 30.366225 60.221925 30.366225 66.059925 33.222225 66.059925 33.222225 67.088925 29.148225 67.088925"></polygon>
                    <path d="M33.8313,60.221925 L35.0493,60.221925 L35.0493,64.170675 C35.0493,64.541175 35.0823,64.854675 35.14905,65.110425 C35.2158,65.365425 35.3103,65.570175 35.43255,65.723925 C35.5548,65.878425 35.69955,65.987925 35.8683,66.054675 C36.03555,66.121425 36.22455,66.154425 36.4353,66.154425 C36.6453,66.154425 36.8373,66.121425 37.01205,66.054675 C37.18755,65.987925 37.3383,65.878425 37.4643,65.723925 C37.5903,65.570175 37.68855,65.365425 37.75755,65.110425 C37.82805,64.854675 37.8633,64.541175 37.8633,64.170675 L37.8633,60.221925 L39.0288,60.221925 L39.0288,64.076175 C39.0288,64.643175 38.96955,65.123925 38.84955,65.519175 C38.73105,65.915175 38.5578,66.238425 38.33055,66.490425 C38.10255,66.742425 37.82955,66.926175 37.5108,67.041675 C37.19205,67.157175 36.8343,67.214925 36.4353,67.214925 C36.03555,67.214925 35.67705,67.157175 35.35905,67.041675 C35.0403,66.926175 34.7673,66.742425 34.5393,66.490425 C34.3128,66.238425 34.1373,65.915175 34.01505,65.519175 C33.89205,65.123925 33.8313,64.643175 33.8313,64.076175 L33.8313,60.221925 Z" id="Fill-6" fill="#3F3F3F"></path>
                    <path d="M40.666275,65.377425 C40.911525,65.609175 41.191275,65.795925 41.506275,65.939175 C41.821275,66.082425 42.136275,66.154425 42.451275,66.154425 C42.843525,66.154425 43.141275,66.074175 43.343775,65.912925 C43.547025,65.752425 43.649025,65.538675 43.649025,65.272425 C43.649025,65.132925 43.622025,65.013675 43.569525,64.915425 C43.517775,64.817925 43.443525,64.732425 43.349025,64.658175 C43.254525,64.584675 43.142775,64.517175 43.013025,64.454175 C42.884025,64.391175 42.742275,64.328175 42.588525,64.265175 L41.643525,63.855675 C41.474775,63.785175 41.308275,63.697425 41.144775,63.592425 C40.979775,63.487425 40.831275,63.361425 40.697775,63.214425 C40.565025,63.067425 40.458525,62.895675 40.377525,62.700675 C40.297275,62.504175 40.256775,62.279925 40.256775,62.027925 C40.256775,61.754925 40.314525,61.501425 40.430775,61.267425 C40.546275,61.032675 40.705275,60.827925 40.907775,60.652425 C41.111025,60.477675 41.354025,60.341175 41.637525,60.242925 C41.921775,60.144675 42.230775,60.095925 42.566775,60.095925 C42.965775,60.095925 43.350525,60.174675 43.721775,60.332175 C44.093025,60.489675 44.411025,60.701925 44.678025,60.967425 L44.057775,61.744425 C43.834275,61.562925 43.603275,61.419675 43.365525,61.313925 C43.127025,61.208925 42.861525,61.156425 42.566775,61.156425 C42.238275,61.156425 41.975025,61.228425 41.779275,61.371675 C41.583525,61.515675 41.486025,61.712925 41.486025,61.964925 C41.486025,62.098425 41.515275,62.211675 41.574525,62.306175 C41.634525,62.400675 41.714775,62.485425 41.816025,62.558175 C41.918025,62.631675 42.035025,62.698425 42.167775,62.757675 C42.301275,62.817675 42.437025,62.875425 42.578025,62.930925 L43.511775,63.319425 C43.715025,63.403425 43.900275,63.501675 44.068275,63.613425 C44.237025,63.725925 44.381775,63.855675 44.504025,64.001925 C44.626275,64.148925 44.723025,64.319175 44.792775,64.511925 C44.863275,64.703925 44.898525,64.925925 44.898525,65.177925 C44.898525,65.457675 44.841525,65.720925 44.729775,65.965425 C44.618025,66.210675 44.455275,66.425925 44.242275,66.611925 C44.027775,66.797175 43.769775,66.944175 43.464525,67.052175 C43.160025,67.160925 42.815025,67.214925 42.431025,67.214925 C41.968275,67.214925 41.522775,67.127175 41.091525,66.953175 C40.661025,66.777675 40.281525,66.528675 39.953025,66.206925 L40.666275,65.377425 Z" id="Fill-8" fill="#3F3F3F"></path>
                    <polygon id="Fill-10" fill="#3F3F3F" points="47.1138 61.251 45.1293 61.251 45.1293 60.222 50.3163 60.222 50.3163 61.251 48.3318 61.251 48.3318 67.089 47.1138 67.089"></polygon>
                    <polygon id="Fill-12" fill="#3F3F3F" points="51.2505 60.221925 55.38825 60.221925 55.38825 61.250925 52.4685 61.250925 52.4685 63.004425 54.936 63.004425 54.936 64.033425 52.4685 64.033425 52.4685 66.059925 55.4925 66.059925 55.4925 67.088925 51.2505 67.088925"></polygon>
                    <path d="M57.9075,63.435075 L58.884,63.435075 C59.3535,63.435075 59.71125,63.336825 59.96025,63.141075 C60.2085,62.945325 60.333,62.651325 60.333,62.259075 C60.333,61.860075 60.2085,61.583325 59.96025,61.429575 C59.71125,61.275825 59.3535,61.199325 58.884,61.199325 L57.9075,61.199325 L57.9075,63.435075 Z M60.438,67.089075 L58.9575,64.401075 L57.9075,64.401075 L57.9075,67.089075 L56.6895,67.089075 L56.6895,60.222075 L59.01,60.222075 C59.367,60.222075 59.7,60.257325 60.0075,60.327075 C60.31575,60.396825 60.58125,60.510825 60.8055,60.669075 C61.02975,60.825825 61.206,61.034325 61.33575,61.293825 C61.4655,61.551825 61.53,61.874325 61.53,62.259075 C61.53,62.784075 61.4055,63.207825 61.15725,63.529575 C60.909,63.852075 60.57825,64.082325 60.165,64.222575 L61.803,67.089075 L60.438,67.089075 Z" id="Fill-14" fill="#3F3F3F"></path>
                    <path d="M64.71165,60.221925 L66.05565,60.221925 L67.2939,63.602925 L67.74615,64.904925 L67.78815,64.904925 L68.2284,63.602925 L69.4464,60.221925 L70.7904,60.221925 L70.7904,67.088925 L69.64665,67.088925 L69.64665,63.950175 C69.64665,63.788925 69.6519,63.613425 69.6624,63.425175 C69.67215,63.236175 69.6849,63.044925 69.6984,62.852175 C69.71265,62.660175 69.7299,62.471175 69.75165,62.285175 C69.77265,62.099925 69.7899,61.926675 69.80415,61.766175 L69.7614,61.766175 L69.2049,63.330675 L68.0184,66.449175 L67.4514,66.449175 L66.2649,63.330675 L65.71965,61.766175 L65.67765,61.766175 C65.6919,61.926675 65.7069,62.099925 65.7249,62.285175 C65.74215,62.471175 65.7594,62.660175 65.7774,62.852175 C65.7939,63.044925 65.8089,63.236175 65.8194,63.425175 C65.82915,63.613425 65.83515,63.788925 65.83515,63.950175 L65.83515,67.088925 L64.71165,67.088925 L64.71165,60.221925 Z" id="Fill-16" fill="#3F3F3F"></path>
                    <polygon id="Fill-18" fill="#3F3F3F" points="72.3237 60.221925 76.46145 60.221925 76.46145 61.250925 73.5417 61.250925 73.5417 63.004425 76.0092 63.004425 76.0092 64.033425 73.5417 64.033425 73.5417 66.059925 76.5657 66.059925 76.5657 67.088925 72.3237 67.088925"></polygon>
                    <path d="M79.516125,66.101775 C80.216625,66.101775 80.752875,65.900775 81.127875,65.498025 C81.502125,65.096025 81.689625,64.471275 81.689625,63.623775 C81.689625,62.783775 81.500625,62.171775 81.123375,61.786275 C80.745375,61.401525 80.209125,61.209525 79.516125,61.209525 L78.980625,61.209525 L78.980625,66.101775 L79.516125,66.101775 Z M77.762625,60.221775 L79.600125,60.221775 C80.650875,60.221775 81.469125,60.505275 82.057875,61.072275 C82.645125,61.640025 82.939125,62.490525 82.939125,63.623775 C82.939125,64.190775 82.864125,64.691775 82.714125,65.125275 C82.562625,65.559525 82.345875,65.921775 82.063125,66.212025 C81.779625,66.503025 81.436125,66.721275 81.033375,66.868275 C80.630625,67.016025 80.173875,67.088775 79.663125,67.088775 L77.762625,67.088775 L77.762625,60.221775 Z" id="Fill-20" fill="#3F3F3F"></path>
                    <mask id="mask-2" fill="white">
                        <use xlink:href="#path-1"></use>
                    </mask>
                    <g id="Clip-23"></g>
                    <polygon id="Fill-22" fill="#3F3F3F" mask="url(#mask-2)" points="84.1155 67.089 85.3335 67.089 85.3335 60.222 84.1155 60.222"></polygon>
                    <path d="M89.785425,64.27515 L89.543925,63.43515 C89.431425,63.0714 89.325675,62.69715 89.223675,62.31165 C89.121675,61.9269 89.021925,61.54515 88.924425,61.1664 L88.882425,61.1664 C88.784175,61.5519 88.685925,61.93515 88.588425,62.3169 C88.490175,62.6979 88.385175,63.0714 88.273425,63.43515 L88.031925,64.27515 L89.785425,64.27515 Z M90.058425,65.23065 L87.748425,65.23065 L87.212925,67.08915 L85.973925,67.08915 L88.210425,60.22215 L89.638425,60.22215 L91.874925,67.08915 L90.593925,67.08915 L90.058425,65.23065 Z" id="Fill-24" fill="#3F3F3F" mask="url(#mask-2)"></path>
                    <path d="M92.515125,60.221925 L93.764625,60.221925 L95.906625,64.085925 L96.610125,65.546175 L96.652875,65.546175 C96.624375,65.188425 96.591375,64.805175 96.552375,64.395675 C96.514125,63.986925 96.494625,63.588675 96.494625,63.204675 L96.494625,60.221925 L97.660125,60.221925 L97.660125,67.088925 L96.410625,67.088925 L94.268625,63.224925 L93.565125,61.766175 L93.523125,61.766175 C93.550875,62.129925 93.584625,62.511675 93.623625,62.909925 C93.661125,63.308925 93.680625,63.701175 93.680625,64.085925 L93.680625,67.088925 L92.515125,67.088925 L92.515125,60.221925 Z" id="Fill-25" fill="#3F3F3F" mask="url(#mask-2)"></path>
                    <path d="M98.983125,66.396225 C98.983125,66.158475 99.058875,65.961975 99.208875,65.808225 C99.359625,65.654475 99.546375,65.577225 99.770625,65.577225 C99.994875,65.577225 100.180125,65.654475 100.327125,65.808225 C100.474125,65.961975 100.547625,66.158475 100.547625,66.396225 C100.547625,66.633975 100.474125,66.830475 100.327125,66.984225 C100.180125,67.137975 99.994875,67.215225 99.770625,67.215225 C99.546375,67.215225 99.359625,67.137975 99.208875,66.984225 C99.058875,66.830475 98.983125,66.633975 98.983125,66.396225 M98.983125,62.805225 C98.983125,62.567475 99.058875,62.370975 99.208875,62.217225 C99.359625,62.063475 99.546375,61.986225 99.770625,61.986225 C99.994875,61.986225 100.180125,62.063475 100.327125,62.217225 C100.474125,62.370975 100.547625,62.567475 100.547625,62.805225 C100.547625,63.042975 100.474125,63.239475 100.327125,63.393225 C100.180125,63.546975 99.994875,63.624225 99.770625,63.624225 C99.546375,63.624225 99.359625,63.546975 99.208875,63.393225 C99.058875,63.239475 98.983125,63.042975 98.983125,62.805225" id="Fill-26" fill="#3F3F3F" mask="url(#mask-2)"></path>
                    <path d="M106.973175,61.828875 C106.777425,61.646625 106.588425,61.507875 106.406175,61.413375 C106.223925,61.318875 106.007175,61.272375 105.755175,61.272375 C105.467925,61.272375 105.244425,61.344375 105.083175,61.487625 C104.922675,61.630875 104.841675,61.839375 104.841675,62.112375 C104.841675,62.321625 104.911425,62.495625 105.051675,62.631375 C105.191925,62.768625 105.368175,62.894625 105.582675,63.009375 C105.795675,63.125625 106.024425,63.241125 106.270425,63.356625 C106.514925,63.471375 106.743675,63.610125 106.957425,63.771375 C107.171175,63.932625 107.347425,64.129875 107.488425,64.364625 C107.627925,64.598625 107.697675,64.891125 107.697675,65.241375 C107.697675,65.745375 107.557425,66.166875 107.277675,66.505875 C106.997925,66.845625 106.595175,67.064625 106.070175,67.162125 L106.070175,68.244375 L105.230175,68.244375 L105.230175,67.193625 C104.908425,67.158375 104.584425,67.072875 104.258925,66.937125 C103.933425,66.800625 103.651425,66.620625 103.413675,66.396375 L103.959675,65.577375 C104.204925,65.773125 104.453925,65.930625 104.705925,66.049875 C104.957175,66.168375 105.227175,66.227625 105.514425,66.227625 C105.857175,66.227625 106.112925,66.149625 106.280175,65.992125 C106.448175,65.834625 106.532175,65.612625 106.532175,65.325375 C106.532175,65.094375 106.462425,64.901625 106.322175,64.747875 C106.181925,64.594125 106.005675,64.453875 105.791925,64.327875 C105.578925,64.201875 105.349425,64.081125 105.104175,63.965625 C104.859675,63.849375 104.630175,63.713625 104.416425,63.556125 C104.203425,63.398625 104.026425,63.209625 103.886175,62.989125 C103.745925,62.768625 103.676175,62.494125 103.676175,62.164125 C103.676175,61.675125 103.816425,61.267125 104.096175,60.940875 C104.375925,60.616125 104.753925,60.410625 105.230175,60.327375 L105.230175,59.255625 L106.070175,59.255625 L106.070175,60.306375 C106.406175,60.347625 106.694925,60.444375 106.936425,60.594375 C107.177925,60.745875 107.396175,60.922125 107.592675,61.125375 L106.973175,61.828875 Z" id="Fill-27" fill="#3F3F3F" mask="url(#mask-2)"></path>
                    <path d="M108.89505,66.101775 L110.3853,66.101775 L110.3853,61.712775 L109.15755,61.712775 L109.15755,60.957525 C109.49355,60.894525 109.7823,60.818775 110.0238,60.731775 C110.26455,60.644025 110.49105,60.536775 110.7003,60.410775 L111.6033,60.410775 L111.6033,66.101775 L112.9158,66.101775 L112.9158,67.088775 L108.89505,67.088775 L108.89505,66.101775 Z" id="Fill-28" fill="#3F3F3F" mask="url(#mask-2)"></path>
                    <path d="M115.98195,66.2703 C116.1432,66.2703 116.2917,66.22605 116.42895,66.13905 C116.5647,66.0513 116.68245,65.90655 116.77995,65.7033 C116.8782,65.5008 116.95545,65.23755 117.01095,64.91505 C117.0672,64.59405 117.09495,64.1943 117.09495,63.7188 C117.09495,63.25005 117.0672,62.85555 117.01095,62.5368 C116.95545,62.21955 116.8782,61.96155 116.77995,61.7658 C116.68245,61.5693 116.5647,61.4313 116.42895,61.3503 C116.2917,61.2708 116.1432,61.2303 115.98195,61.2303 C115.8207,61.2303 115.6722,61.2708 115.5357,61.3503 C115.39995,61.4313 115.28145,61.5693 115.1847,61.7658 C115.08645,61.96155 115.0092,62.21955 114.95295,62.5368 C114.89745,62.85555 114.8697,63.25005 114.8697,63.7188 C114.8697,64.1943 114.89745,64.59405 114.95295,64.91505 C115.0092,65.23755 115.08645,65.5008 115.1847,65.7033 C115.28145,65.90655 115.39995,66.0513 115.5357,66.13905 C115.6722,66.22605 115.8207,66.2703 115.98195,66.2703 M115.98195,67.2153 C115.28145,67.2153 114.7287,66.9153 114.32295,66.3168 C113.9172,65.71905 113.7147,64.85205 113.7147,63.7188 C113.7147,62.5848 113.9172,61.7283 114.32295,61.15155 C114.7287,60.57405 115.28145,60.2853 115.98195,60.2853 C116.68245,60.2853 117.2352,60.57555 117.64095,61.1568 C118.04745,61.73805 118.24995,62.59155 118.24995,63.7188 C118.24995,64.85205 118.04745,65.71905 117.64095,66.3168 C117.2352,66.9153 116.68245,67.2153 115.98195,67.2153" id="Fill-29" fill="#3F3F3F" mask="url(#mask-2)"></path>
                    <path d="M118.964325,68.33865 C119.299575,68.20515 119.560575,68.0274 119.746575,67.80315 C119.931825,67.5789 120.024075,67.33365 120.024075,67.06815 L119.929575,67.06815 C119.727075,67.06815 119.546325,67.00365 119.388825,66.8739 C119.231325,66.74415 119.153325,66.5604 119.153325,66.32265 C119.153325,66.09915 119.231325,65.9184 119.388825,65.7819 C119.546325,65.6454 119.736825,65.57715 119.961075,65.57715 C120.248325,65.57715 120.471075,65.6859 120.628575,65.90265 C120.786075,66.1194 120.864075,66.4239 120.864075,66.81615 C120.864075,67.33365 120.723075,67.78215 120.439575,68.16015 C120.156075,68.53815 119.751825,68.81865 119.226825,69.00015 L118.964325,68.33865 Z" id="Fill-30" fill="#3F3F3F" mask="url(#mask-2)"></path>
                    <path d="M124.2876,64.43265 L124.2876,62.92065 C124.2876,62.7249 124.29285,62.4939 124.30335,62.22765 C124.31385,61.9614 124.32585,61.7304 124.33935,61.53465 L124.2981,61.53465 C124.21335,61.7094 124.12635,61.88115 124.0356,62.04915 C123.9441,62.21715 123.8496,62.3919 123.7521,62.57415 L122.5341,64.43265 L124.2876,64.43265 Z M126.2616,65.36715 L125.4216,65.36715 L125.4216,67.08915 L124.2876,67.08915 L124.2876,65.36715 L121.33635,65.36715 L121.33635,64.54815 L123.9831,60.41115 L125.4216,60.41115 L125.4216,64.43265 L126.2616,64.43265 L126.2616,65.36715 Z" id="Fill-31" fill="#3F3F3F" mask="url(#mask-2)"></path>
                    <path d="M127.101525,66.101775 L128.591775,66.101775 L128.591775,61.712775 L127.364025,61.712775 L127.364025,60.957525 C127.700025,60.894525 127.988775,60.818775 128.230275,60.731775 C128.471025,60.644025 128.697525,60.536775 128.906775,60.410775 L129.809775,60.410775 L129.809775,66.101775 L131.122275,66.101775 L131.122275,67.088775 L127.101525,67.088775 L127.101525,66.101775 Z" id="Fill-32" fill="#3F3F3F" mask="url(#mask-2)"></path>
                    <path d="M134.1885,66.2703 C134.34975,66.2703 134.49825,66.22605 134.6355,66.13905 C134.77125,66.0513 134.889,65.90655 134.9865,65.7033 C135.08475,65.5008 135.162,65.23755 135.2175,64.91505 C135.27375,64.59405 135.3015,64.1943 135.3015,63.7188 C135.3015,63.25005 135.27375,62.85555 135.2175,62.5368 C135.162,62.21955 135.08475,61.96155 134.9865,61.7658 C134.889,61.5693 134.77125,61.4313 134.6355,61.3503 C134.49825,61.2708 134.34975,61.2303 134.1885,61.2303 C134.02725,61.2303 133.87875,61.2708 133.74225,61.3503 C133.6065,61.4313 133.488,61.5693 133.39125,61.7658 C133.293,61.96155 133.21575,62.21955 133.1595,62.5368 C133.104,62.85555 133.07625,63.25005 133.07625,63.7188 C133.07625,64.1943 133.104,64.59405 133.1595,64.91505 C133.21575,65.23755 133.293,65.5008 133.39125,65.7033 C133.488,65.90655 133.6065,66.0513 133.74225,66.13905 C133.87875,66.22605 134.02725,66.2703 134.1885,66.2703 M134.1885,67.2153 C133.488,67.2153 132.93525,66.9153 132.5295,66.3168 C132.12375,65.71905 131.92125,64.85205 131.92125,63.7188 C131.92125,62.5848 132.12375,61.7283 132.5295,61.15155 C132.93525,60.57405 133.488,60.2853 134.1885,60.2853 C134.889,60.2853 135.44175,60.57555 135.8475,61.1568 C136.254,61.73805 136.4565,62.59155 136.4565,63.7188 C136.4565,64.85205 136.254,65.71905 135.8475,66.3168 C135.44175,66.9153 134.889,67.2153 134.1885,67.2153" id="Fill-33" fill="#3F3F3F" mask="url(#mask-2)"></path>
                    <path d="M71.91945,3.08715 C71.72295,2.89815 71.53245,2.75115 71.3472,2.64615 C71.16195,2.5404 70.9257,2.48865 70.63845,2.48865 C70.3167,2.48865 70.0602,2.5794 69.87195,2.76165 C69.68295,2.9439 69.5892,3.18915 69.5892,3.49665 C69.5892,3.74865 69.66045,3.9549 69.80445,4.11615 C69.9477,4.2774 70.1277,4.4184 70.34445,4.54065 C70.5612,4.6644 70.79745,4.7829 71.05395,4.8984 C71.30895,5.0139 71.5452,5.15415 71.76195,5.3184 C71.97945,5.48265 72.15945,5.6859 72.30345,5.9274 C72.44595,6.1689 72.5187,6.4779 72.5187,6.85665 C72.5187,7.36065 72.37245,7.7739 72.0822,8.09565 C71.79195,8.4174 71.3952,8.61315 70.8912,8.68365 L70.8912,9.74415 L70.26045,9.74415 L70.26045,8.70465 C69.92445,8.6694 69.59895,8.5764 69.28395,8.4264 C68.96895,8.27565 68.6997,8.0994 68.47545,7.89615 L68.8737,7.29765 C69.09795,7.4934 69.34545,7.6599 69.61545,7.7964 C69.88395,7.9329 70.1802,8.00115 70.50195,8.00115 C70.8942,8.00115 71.18595,7.9029 71.3787,7.70715 C71.5707,7.51065 71.66745,7.2489 71.66745,6.91965 C71.66745,6.63915 71.59545,6.4074 71.4522,6.2214 C71.30895,6.03615 71.1282,5.8749 70.91145,5.7384 C70.6947,5.6019 70.45845,5.4744 70.2027,5.35515 C69.9477,5.2359 69.7107,5.10015 69.49395,4.94565 C69.2772,4.79115 69.09645,4.60365 68.9532,4.3839 C68.80995,4.1634 68.73795,3.88215 68.73795,3.53865 C68.73795,3.0699 68.87595,2.67915 69.1527,2.3679 C69.42945,2.05665 69.79845,1.8624 70.26045,1.78515 L70.26045,0.73515 L70.8912,0.73515 L70.8912,1.77465 C71.22645,1.8099 71.5122,1.90065 71.74695,2.04765 C71.98095,2.19465 72.19245,2.3694 72.38145,2.5719 L71.91945,3.08715 Z" id="Fill-34" fill="#848484" mask="url(#mask-2)"></path>
                    <path d="M73.55715,7.875 L75.0909,7.875 L75.0909,2.94 L73.87215,2.94 L73.87215,2.3835 C74.1804,2.328 74.4474,2.25975 74.67615,2.17875 C74.9034,2.0985 75.10815,2.0025 75.2904,1.89075 L75.95115,1.89075 L75.95115,7.875 L77.3379,7.875 L77.3379,8.589 L73.55715,8.589 L73.55715,7.875 Z" id="Fill-35" fill="#848484" mask="url(#mask-2)"></path>
                    <path d="M80.140875,8.022225 C80.336625,8.022225 80.513625,7.968225 80.671125,7.859475 C80.828625,7.751475 80.965125,7.582725 81.080625,7.355475 C81.196125,7.128225 81.285375,6.837225 81.348375,6.483975 C81.411375,6.130725 81.442875,5.708475 81.442875,5.218725 C81.442875,4.728225 81.411375,4.308975 81.348375,3.958725 C81.285375,3.608475 81.196125,3.322725 81.080625,3.102225 C80.965125,2.881725 80.828625,2.719725 80.671125,2.614725 C80.513625,2.508975 80.336625,2.457225 80.140875,2.457225 C79.945125,2.457225 79.766625,2.508975 79.605375,2.614725 C79.444125,2.719725 79.306875,2.881725 79.190625,3.102225 C79.075125,3.322725 78.985875,3.608475 78.922875,3.958725 C78.859875,4.308975 78.828375,4.728225 78.828375,5.218725 C78.828375,6.198225 78.949125,6.911475 79.190625,7.355475 C79.432875,7.800225 79.749375,8.022225 80.140875,8.022225 M80.140875,8.715225 C79.462125,8.715225 78.933375,8.413725 78.555375,7.812225 C78.177375,7.209975 77.988375,6.345975 77.988375,5.218725 C77.988375,4.091475 78.177375,3.234225 78.555375,2.646225 C78.933375,2.058225 79.462125,1.764225 80.140875,1.764225 C80.812875,1.764225 81.338625,2.058225 81.716625,2.646225 C82.093875,3.234225 82.282875,4.091475 82.282875,5.218725 C82.282875,6.345975 82.093875,7.209975 81.716625,7.812225 C81.338625,8.413725 80.812875,8.715225 80.140875,8.715225" id="Fill-36" fill="#848484" mask="url(#mask-2)"></path>
                    <polygon id="Fill-37" fill="#848484" mask="url(#mask-2)" points="83.2698 1.70145 84.1413 1.70145 84.1413 5.1552 84.1728 5.1552 87.0393 1.70145 88.02705 1.70145 85.8738 4.32645 88.3623 8.58945 87.3858 8.58945 85.3278 5.0082 84.1413 6.4047 84.1413 8.58945 83.2698 8.58945"></polygon>
                    <path d="M107.35695,3.08715 C107.16045,2.89815 106.96995,2.75115 106.7847,2.64615 C106.59945,2.5404 106.3632,2.48865 106.07595,2.48865 C105.7542,2.48865 105.4977,2.5794 105.30945,2.76165 C105.12045,2.9439 105.0267,3.18915 105.0267,3.49665 C105.0267,3.74865 105.09795,3.9549 105.24195,4.11615 C105.3852,4.2774 105.5652,4.4184 105.78195,4.54065 C105.9987,4.6644 106.23495,4.7829 106.49145,4.8984 C106.74645,5.0139 106.9827,5.15415 107.19945,5.3184 C107.41695,5.48265 107.59695,5.6859 107.74095,5.9274 C107.88345,6.1689 107.9562,6.4779 107.9562,6.85665 C107.9562,7.36065 107.80995,7.7739 107.5197,8.09565 C107.22945,8.4174 106.8327,8.61315 106.3287,8.68365 L106.3287,9.74415 L105.69795,9.74415 L105.69795,8.70465 C105.36195,8.6694 105.03645,8.5764 104.72145,8.4264 C104.40645,8.27565 104.1372,8.0994 103.91295,7.89615 L104.3112,7.29765 C104.53545,7.4934 104.78295,7.6599 105.05295,7.7964 C105.32145,7.9329 105.6177,8.00115 105.93945,8.00115 C106.3317,8.00115 106.62345,7.9029 106.8162,7.70715 C107.0082,7.51065 107.10495,7.2489 107.10495,6.91965 C107.10495,6.63915 107.03295,6.4074 106.8897,6.2214 C106.74645,6.03615 106.5657,5.8749 106.34895,5.7384 C106.1322,5.6019 105.89595,5.4744 105.6402,5.35515 C105.3852,5.2359 105.1482,5.10015 104.93145,4.94565 C104.7147,4.79115 104.53395,4.60365 104.3907,4.3839 C104.24745,4.1634 104.17545,3.88215 104.17545,3.53865 C104.17545,3.0699 104.31345,2.67915 104.5902,2.3679 C104.86695,2.05665 105.23595,1.8624 105.69795,1.78515 L105.69795,0.73515 L106.3287,0.73515 L106.3287,1.77465 C106.66395,1.8099 106.9497,1.90065 107.18445,2.04765 C107.41845,2.19465 107.62995,2.3694 107.81895,2.5719 L107.35695,3.08715 Z" id="Fill-38" fill="#848484" mask="url(#mask-2)"></path>
                    <path d="M108.99465,7.875 L110.5284,7.875 L110.5284,2.94 L109.30965,2.94 L109.30965,2.3835 C109.6179,2.328 109.8849,2.25975 110.11365,2.17875 C110.3409,2.0985 110.54565,2.0025 110.7279,1.89075 L111.38865,1.89075 L111.38865,7.875 L112.7754,7.875 L112.7754,8.589 L108.99465,8.589 L108.99465,7.875 Z" id="Fill-39" fill="#848484" mask="url(#mask-2)"></path>
                    <path d="M113.646975,7.234875 C113.842725,7.438125 114.074475,7.616625 114.344475,7.770375 C114.613725,7.924125 114.944475,8.000625 115.337475,8.000625 C115.539225,8.000625 115.730475,7.964625 115.908975,7.891125 C116.087475,7.816875 116.243475,7.714125 116.376225,7.581375 C116.508975,7.447875 116.614725,7.286625 116.691975,7.097625 C116.768475,6.908625 116.806725,6.699375 116.806725,6.468375 C116.806725,6.005625 116.677725,5.645625 116.418225,5.386875 C116.159475,5.127375 115.813725,4.998375 115.379475,4.998375 C115.148475,4.998375 114.949725,5.032875 114.786225,5.102625 C114.621225,5.173125 114.437475,5.275125 114.234225,5.407125 L113.772975,5.113875 L113.992725,1.890375 L117.342975,1.890375 L117.342975,2.635125 L114.748725,2.635125 L114.570225,4.620375 C114.730725,4.535625 114.891975,4.469625 115.053225,4.420875 C115.214475,4.372125 115.395975,4.346625 115.599975,4.346625 C115.886475,4.346625 116.156475,4.389375 116.408475,4.472625 C116.660475,4.557375 116.880975,4.684875 117.069225,4.856625 C117.258225,5.028375 117.407475,5.245125 117.515475,5.506875 C117.624225,5.770125 117.678225,6.083625 117.678225,6.446625 C117.678225,6.811875 117.615225,7.132875 117.489225,7.412625 C117.363225,7.693125 117.195225,7.929375 116.985225,8.122125 C116.775975,8.314125 116.535975,8.461875 116.265975,8.563125 C115.996725,8.664375 115.715475,8.715375 115.420725,8.715375 C115.155225,8.715375 114.912225,8.688375 114.691725,8.636625 C114.470475,8.584125 114.270975,8.515875 114.092475,8.431875 C113.913975,8.347125 113.753475,8.251125 113.609475,8.143125 C113.466225,8.034375 113.337975,7.920375 113.226225,7.801875 L113.646975,7.234875 Z" id="Fill-40" fill="#848484" mask="url(#mask-2)"></path>
                    <polygon id="Fill-41" fill="#848484" mask="url(#mask-2)" points="118.7073 1.70145 119.5788 1.70145 119.5788 5.1552 119.6103 5.1552 122.4768 1.70145 123.46455 1.70145 121.3113 4.32645 123.7998 8.58945 122.8233 8.58945 120.7653 5.0082 119.5788 6.4047 119.5788 8.58945 118.7073 8.58945"></polygon>
                    <path d="M38.88135,3.08715 C38.68485,2.89815 38.49435,2.75115 38.3091,2.64615 C38.12385,2.5404 37.8876,2.48865 37.60035,2.48865 C37.2786,2.48865 37.0221,2.5794 36.83385,2.76165 C36.64485,2.9439 36.5511,3.18915 36.5511,3.49665 C36.5511,3.74865 36.62235,3.9549 36.76635,4.11615 C36.9096,4.2774 37.0896,4.4184 37.30635,4.54065 C37.5231,4.6644 37.75935,4.7829 38.01585,4.8984 C38.27085,5.0139 38.5071,5.15415 38.72385,5.3184 C38.94135,5.48265 39.12135,5.6859 39.26535,5.9274 C39.40785,6.1689 39.4806,6.4779 39.4806,6.85665 C39.4806,7.36065 39.33435,7.7739 39.0441,8.09565 C38.75385,8.4174 38.3571,8.61315 37.8531,8.68365 L37.8531,9.74415 L37.22235,9.74415 L37.22235,8.70465 C36.88635,8.6694 36.56085,8.5764 36.24585,8.4264 C35.93085,8.27565 35.6616,8.0994 35.43735,7.89615 L35.8356,7.29765 C36.05985,7.4934 36.30735,7.6599 36.57735,7.7964 C36.84585,7.9329 37.1421,8.00115 37.46385,8.00115 C37.8561,8.00115 38.14785,7.9029 38.3406,7.70715 C38.5326,7.51065 38.62935,7.2489 38.62935,6.91965 C38.62935,6.63915 38.55735,6.4074 38.4141,6.2214 C38.27085,6.03615 38.0901,5.8749 37.87335,5.7384 C37.6566,5.6019 37.42035,5.4744 37.1646,5.35515 C36.9096,5.2359 36.6726,5.10015 36.45585,4.94565 C36.2391,4.79115 36.05835,4.60365 35.9151,4.3839 C35.77185,4.1634 35.69985,3.88215 35.69985,3.53865 C35.69985,3.0699 35.83785,2.67915 36.1146,2.3679 C36.39135,2.05665 36.76035,1.8624 37.22235,1.78515 L37.22235,0.73515 L37.8531,0.73515 L37.8531,1.77465 C38.18835,1.8099 38.4741,1.90065 38.70885,2.04765 C38.94285,2.19465 39.15435,2.3694 39.34335,2.5719 L38.88135,3.08715 Z" id="Fill-42" fill="#848484" mask="url(#mask-2)"></path>
                    <path d="M40.372575,7.234875 C40.569075,7.438125 40.800825,7.616625 41.070825,7.770375 C41.340075,7.924125 41.670075,8.000625 42.063075,8.000625 C42.265575,8.000625 42.456825,7.964625 42.635325,7.891125 C42.813825,7.816875 42.969825,7.714125 43.102575,7.581375 C43.234575,7.447875 43.340325,7.286625 43.418325,7.097625 C43.494075,6.908625 43.533075,6.699375 43.533075,6.468375 C43.533075,6.005625 43.403325,5.645625 43.143825,5.386875 C42.885825,5.127375 42.539325,4.998375 42.105825,4.998375 C41.874075,4.998375 41.676075,5.032875 41.512575,5.102625 C41.346825,5.173125 41.163825,5.275125 40.959825,5.407125 L40.498575,5.113875 L40.719075,1.890375 L44.068575,1.890375 L44.068575,2.635125 L41.475075,2.635125 L41.296575,4.620375 C41.457075,4.535625 41.618325,4.469625 41.779575,4.420875 C41.940075,4.372125 42.122325,4.346625 42.325575,4.346625 C42.612075,4.346625 42.882075,4.389375 43.134075,4.472625 C43.386075,4.557375 43.606575,4.684875 43.795575,4.856625 C43.984575,5.028375 44.133075,5.245125 44.241075,5.506875 C44.349825,5.770125 44.404575,6.083625 44.404575,6.446625 C44.404575,6.811875 44.341575,7.132875 44.215575,7.412625 C44.089575,7.693125 43.921575,7.929375 43.710825,8.122125 C43.501575,8.314125 43.261575,8.461875 42.991575,8.563125 C42.722325,8.664375 42.441075,8.715375 42.146325,8.715375 C41.881575,8.715375 41.637825,8.688375 41.417325,8.636625 C41.196825,8.584125 40.997325,8.515875 40.818825,8.431875 C40.640325,8.347125 40.479825,8.251125 40.335825,8.143125 C40.192575,8.034375 40.064325,7.920375 39.951825,7.801875 L40.372575,7.234875 Z" id="Fill-43" fill="#848484" mask="url(#mask-2)"></path>
                    <polygon id="Fill-44" fill="#848484" mask="url(#mask-2)" points="45.433575 1.70145 46.305075 1.70145 46.305075 5.1552 46.335825 5.1552 49.202325 1.70145 50.190075 1.70145 48.037575 4.32645 50.525325 8.58945 49.549575 8.58945 47.491575 5.0082 46.305075 6.4047 46.305075 8.58945 45.433575 8.58945"></polygon>
                    <path d="M3.44385,3.08715 C3.24735,2.89815 3.05685,2.75115 2.8716,2.64615 C2.68635,2.5404 2.4501,2.48865 2.16285,2.48865 C1.8411,2.48865 1.5846,2.5794 1.39635,2.76165 C1.20735,2.9439 1.1136,3.18915 1.1136,3.49665 C1.1136,3.74865 1.18485,3.9549 1.32885,4.11615 C1.4721,4.2774 1.6521,4.4184 1.86885,4.54065 C2.0856,4.6644 2.32185,4.7829 2.57835,4.8984 C2.83335,5.0139 3.0696,5.15415 3.28635,5.3184 C3.50385,5.48265 3.68385,5.6859 3.82785,5.9274 C3.97035,6.1689 4.0431,6.4779 4.0431,6.85665 C4.0431,7.36065 3.89685,7.7739 3.6066,8.09565 C3.31635,8.4174 2.9196,8.61315 2.4156,8.68365 L2.4156,9.74415 L1.78485,9.74415 L1.78485,8.70465 C1.44885,8.6694 1.12335,8.5764 0.80835,8.4264 C0.49335,8.27565 0.2241,8.0994 -0.00015,7.89615 L0.3981,7.29765 C0.62235,7.4934 0.86985,7.6599 1.13985,7.7964 C1.40835,7.9329 1.7046,8.00115 2.02635,8.00115 C2.4186,8.00115 2.71035,7.9029 2.9031,7.70715 C3.0951,7.51065 3.19185,7.2489 3.19185,6.91965 C3.19185,6.63915 3.11985,6.4074 2.9766,6.2214 C2.83335,6.03615 2.6526,5.8749 2.43585,5.7384 C2.2191,5.6019 1.98285,5.4744 1.7271,5.35515 C1.4721,5.2359 1.2351,5.10015 1.01835,4.94565 C0.8016,4.79115 0.62085,4.60365 0.4776,4.3839 C0.33435,4.1634 0.26235,3.88215 0.26235,3.53865 C0.26235,3.0699 0.40035,2.67915 0.6771,2.3679 C0.95385,2.05665 1.32285,1.8624 1.78485,1.78515 L1.78485,0.73515 L2.4156,0.73515 L2.4156,1.77465 C2.75085,1.8099 3.0366,1.90065 3.27135,2.04765 C3.50535,2.19465 3.71685,2.3694 3.90585,2.5719 L3.44385,3.08715 Z" id="Fill-45" fill="#848484" mask="url(#mask-2)"></path>
                    <path d="M6.86715,8.022225 C7.0629,8.022225 7.23915,7.968225 7.3974,7.859475 C7.55415,7.751475 7.6914,7.582725 7.80615,7.355475 C7.92165,7.128225 8.0109,6.837225 8.0739,6.483975 C8.1369,6.130725 8.16915,5.708475 8.16915,5.218725 C8.16915,4.728225 8.1369,4.308975 8.0739,3.958725 C8.0109,3.608475 7.92165,3.322725 7.80615,3.102225 C7.6914,2.881725 7.55415,2.719725 7.3974,2.614725 C7.23915,2.508975 7.0629,2.457225 6.86715,2.457225 C6.67065,2.457225 6.49215,2.508975 6.3309,2.614725 C6.16965,2.719725 6.0324,2.881725 5.91615,3.102225 C5.80065,3.322725 5.7114,3.608475 5.6484,3.958725 C5.5854,4.308975 5.55465,4.728225 5.55465,5.218725 C5.55465,6.198225 5.67465,6.911475 5.91615,7.355475 C6.1584,7.800225 6.4749,8.022225 6.86715,8.022225 M6.86715,8.715225 C6.18765,8.715225 5.65965,8.413725 5.28165,7.812225 C4.90365,7.209975 4.71465,6.345975 4.71465,5.218725 C4.71465,4.091475 4.90365,3.234225 5.28165,2.646225 C5.65965,2.058225 6.18765,1.764225 6.86715,1.764225 C7.53915,1.764225 8.06415,2.058225 8.44215,2.646225 C8.82015,3.234225 9.0084,4.091475 9.0084,5.218725 C9.0084,6.345975 8.82015,7.209975 8.44215,7.812225 C8.06415,8.413725 7.53915,8.715225 6.86715,8.715225" id="Fill-46" fill="#848484" mask="url(#mask-2)"></path>
                    <polygon id="Fill-47" fill="#848484" mask="url(#mask-2)" points="9.996075 1.70145 10.867575 1.70145 10.867575 5.1552 10.898325 5.1552 13.764825 1.70145 14.752575 1.70145 12.600075 4.32645 15.087825 8.58945 14.112075 8.58945 12.054075 5.0082 10.867575 6.4047 10.867575 8.58945 9.996075 8.58945"></polygon>
                    <path d="M213.66945,3.08715 C213.47295,2.89815 213.28245,2.75115 213.0972,2.64615 C212.91195,2.5404 212.6757,2.48865 212.38845,2.48865 C212.0667,2.48865 211.8102,2.5794 211.62195,2.76165 C211.43295,2.9439 211.3392,3.18915 211.3392,3.49665 C211.3392,3.74865 211.41045,3.9549 211.55445,4.11615 C211.6977,4.2774 211.8777,4.4184 212.09445,4.54065 C212.3112,4.6644 212.54745,4.7829 212.80395,4.8984 C213.05895,5.0139 213.2952,5.15415 213.51195,5.3184 C213.72945,5.48265 213.90945,5.6859 214.05345,5.9274 C214.19595,6.1689 214.2687,6.4779 214.2687,6.85665 C214.2687,7.36065 214.12245,7.7739 213.8322,8.09565 C213.54195,8.4174 213.1452,8.61315 212.6412,8.68365 L212.6412,9.74415 L212.01045,9.74415 L212.01045,8.70465 C211.67445,8.6694 211.34895,8.5764 211.03395,8.4264 C210.71895,8.27565 210.4497,8.0994 210.22545,7.89615 L210.6237,7.29765 C210.84795,7.4934 211.09545,7.6599 211.36545,7.7964 C211.63395,7.9329 211.9302,8.00115 212.25195,8.00115 C212.6442,8.00115 212.93595,7.9029 213.1287,7.70715 C213.3207,7.51065 213.41745,7.2489 213.41745,6.91965 C213.41745,6.63915 213.34545,6.4074 213.2022,6.2214 C213.05895,6.03615 212.8782,5.8749 212.66145,5.7384 C212.4447,5.6019 212.20845,5.4744 211.9527,5.35515 C211.6977,5.2359 211.4607,5.10015 211.24395,4.94565 C211.0272,4.79115 210.84645,4.60365 210.7032,4.3839 C210.55995,4.1634 210.48795,3.88215 210.48795,3.53865 C210.48795,3.0699 210.62595,2.67915 210.9027,2.3679 C211.17945,2.05665 211.54845,1.8624 212.01045,1.78515 L212.01045,0.73515 L212.6412,0.73515 L212.6412,1.77465 C212.97645,1.8099 213.2622,1.90065 213.49695,2.04765 C213.73095,2.19465 213.94245,2.3694 214.13145,2.5719 L213.66945,3.08715 Z" id="Fill-48" fill="#848484" mask="url(#mask-2)"></path>
                    <path d="M215.192175,7.203375 C215.395425,7.412625 215.630925,7.598625 215.900175,7.759125 C216.170175,7.920375 216.504675,8.000625 216.903675,8.000625 C217.309425,8.000625 217.642425,7.891125 217.901175,7.670625 C218.159925,7.450125 218.289675,7.150875 218.289675,6.772875 C218.289675,6.576375 218.252925,6.396375 218.179425,6.232125 C218.105925,6.067125 217.985175,5.926125 217.817175,5.806875 C217.649175,5.687625 217.427925,5.596125 217.155675,5.533125 C216.882675,5.470125 216.546675,5.438625 216.147675,5.438625 L216.147675,4.777875 C216.504675,4.777875 216.803925,4.746375 217.045425,4.683375 C217.286925,4.620375 217.482675,4.532625 217.633425,4.420875 C217.784175,4.309125 217.890675,4.175625 217.953675,4.021875 C218.016675,3.868125 218.048175,3.703125 218.048175,3.528375 C218.048175,3.199125 217.944675,2.939625 217.739175,2.750625 C217.532175,2.562375 217.249425,2.467875 216.893925,2.467875 C216.613425,2.467875 216.356175,2.530875 216.121425,2.656875 C215.887425,2.782125 215.667675,2.947125 215.465175,3.150375 L215.003175,2.603625 C215.261925,2.359125 215.547675,2.157375 215.858925,2.000625 C216.170175,1.843125 216.525675,1.764375 216.924675,1.764375 C217.218675,1.764375 217.488675,1.802625 217.733175,1.879125 C217.977675,1.957125 218.189925,2.066625 218.368425,2.210625 C218.546925,2.353875 218.684925,2.530875 218.783175,2.740875 C218.881425,2.950875 218.929425,3.191625 218.929425,3.465375 C218.929425,3.871125 218.818425,4.203375 218.594175,4.462875 C218.369925,4.721625 218.075925,4.921125 217.712175,5.061375 L217.712175,5.102625 C217.914675,5.152125 218.103675,5.223375 218.279175,5.317875 C218.453925,5.412375 218.608425,5.531625 218.740425,5.675625 C218.873925,5.818875 218.977425,5.985375 219.051675,6.174375 C219.124425,6.363375 219.161175,6.572625 219.161175,6.804375 C219.161175,7.097625 219.103425,7.364625 218.988675,7.601625 C218.872425,7.840125 218.714175,8.041125 218.515425,8.206125 C218.315925,8.370375 218.082675,8.496375 217.817175,8.584125 C217.551675,8.671125 217.264425,8.715375 216.956925,8.715375 C216.689925,8.715375 216.446925,8.688375 216.226425,8.636625 C216.005925,8.584125 215.804175,8.513625 215.621925,8.426625 C215.440425,8.338875 215.277675,8.239125 215.134425,8.126625 C214.990425,8.014875 214.863675,7.896375 214.750425,7.770375 L215.192175,7.203375 Z" id="Fill-49" fill="#848484" mask="url(#mask-2)"></path>
                    <path d="M221.890875,8.022225 C222.086625,8.022225 222.263625,7.968225 222.421125,7.859475 C222.578625,7.751475 222.715125,7.582725 222.830625,7.355475 C222.946125,7.128225 223.035375,6.837225 223.098375,6.483975 C223.161375,6.130725 223.192875,5.708475 223.192875,5.218725 C223.192875,4.728225 223.161375,4.308975 223.098375,3.958725 C223.035375,3.608475 222.946125,3.322725 222.830625,3.102225 C222.715125,2.881725 222.578625,2.719725 222.421125,2.614725 C222.263625,2.508975 222.086625,2.457225 221.890875,2.457225 C221.695125,2.457225 221.516625,2.508975 221.355375,2.614725 C221.194125,2.719725 221.056875,2.881725 220.940625,3.102225 C220.825125,3.322725 220.735875,3.608475 220.672875,3.958725 C220.609875,4.308975 220.578375,4.728225 220.578375,5.218725 C220.578375,6.198225 220.699125,6.911475 220.940625,7.355475 C221.182875,7.800225 221.499375,8.022225 221.890875,8.022225 M221.890875,8.715225 C221.212125,8.715225 220.683375,8.413725 220.305375,7.812225 C219.927375,7.209975 219.738375,6.345975 219.738375,5.218725 C219.738375,4.091475 219.927375,3.234225 220.305375,2.646225 C220.683375,2.058225 221.212125,1.764225 221.890875,1.764225 C222.562875,1.764225 223.088625,2.058225 223.466625,2.646225 C223.843875,3.234225 224.032875,4.091475 224.032875,5.218725 C224.032875,6.345975 223.843875,7.209975 223.466625,7.812225 C223.088625,8.413725 222.562875,8.715225 221.890875,8.715225" id="Fill-50" fill="#848484" mask="url(#mask-2)"></path>
                    <polygon id="Fill-51" fill="#848484" mask="url(#mask-2)" points="225.0198 1.70145 225.8913 1.70145 225.8913 5.1552 225.9228 5.1552 228.7893 1.70145 229.77705 1.70145 227.6238 4.32645 230.1123 8.58945 229.1358 8.58945 227.0778 5.0082 225.8913 6.4047 225.8913 8.58945 225.0198 8.58945"></polygon>
                    <path d="M249.10695,3.08715 C248.91045,2.89815 248.71995,2.75115 248.5347,2.64615 C248.34945,2.5404 248.1132,2.48865 247.82595,2.48865 C247.5042,2.48865 247.2477,2.5794 247.05945,2.76165 C246.87045,2.9439 246.7767,3.18915 246.7767,3.49665 C246.7767,3.74865 246.84795,3.9549 246.99195,4.11615 C247.1352,4.2774 247.3152,4.4184 247.53195,4.54065 C247.7487,4.6644 247.98495,4.7829 248.24145,4.8984 C248.49645,5.0139 248.7327,5.15415 248.94945,5.3184 C249.16695,5.48265 249.34695,5.6859 249.49095,5.9274 C249.63345,6.1689 249.7062,6.4779 249.7062,6.85665 C249.7062,7.36065 249.55995,7.7739 249.2697,8.09565 C248.97945,8.4174 248.5827,8.61315 248.0787,8.68365 L248.0787,9.74415 L247.44795,9.74415 L247.44795,8.70465 C247.11195,8.6694 246.78645,8.5764 246.47145,8.4264 C246.15645,8.27565 245.8872,8.0994 245.66295,7.89615 L246.0612,7.29765 C246.28545,7.4934 246.53295,7.6599 246.80295,7.7964 C247.07145,7.9329 247.3677,8.00115 247.68945,8.00115 C248.0817,8.00115 248.37345,7.9029 248.5662,7.70715 C248.7582,7.51065 248.85495,7.2489 248.85495,6.91965 C248.85495,6.63915 248.78295,6.4074 248.6397,6.2214 C248.49645,6.03615 248.3157,5.8749 248.09895,5.7384 C247.8822,5.6019 247.64595,5.4744 247.3902,5.35515 C247.1352,5.2359 246.8982,5.10015 246.68145,4.94565 C246.4647,4.79115 246.28395,4.60365 246.1407,4.3839 C245.99745,4.1634 245.92545,3.88215 245.92545,3.53865 C245.92545,3.0699 246.06345,2.67915 246.3402,2.3679 C246.61695,2.05665 246.98595,1.8624 247.44795,1.78515 L247.44795,0.73515 L248.0787,0.73515 L248.0787,1.77465 C248.41395,1.8099 248.6997,1.90065 248.93445,2.04765 C249.16845,2.19465 249.37995,2.3694 249.56895,2.5719 L249.10695,3.08715 Z" id="Fill-52" fill="#848484" mask="url(#mask-2)"></path>
                    <path d="M250.629675,7.203375 C250.832925,7.412625 251.068425,7.598625 251.337675,7.759125 C251.607675,7.920375 251.942175,8.000625 252.341175,8.000625 C252.746925,8.000625 253.079925,7.891125 253.338675,7.670625 C253.597425,7.450125 253.727175,7.150875 253.727175,6.772875 C253.727175,6.576375 253.690425,6.396375 253.616925,6.232125 C253.543425,6.067125 253.422675,5.926125 253.254675,5.806875 C253.086675,5.687625 252.865425,5.596125 252.593175,5.533125 C252.320175,5.470125 251.984175,5.438625 251.585175,5.438625 L251.585175,4.777875 C251.942175,4.777875 252.241425,4.746375 252.482925,4.683375 C252.724425,4.620375 252.920175,4.532625 253.070925,4.420875 C253.221675,4.309125 253.328175,4.175625 253.391175,4.021875 C253.454175,3.868125 253.485675,3.703125 253.485675,3.528375 C253.485675,3.199125 253.382175,2.939625 253.176675,2.750625 C252.969675,2.562375 252.686925,2.467875 252.331425,2.467875 C252.050925,2.467875 251.793675,2.530875 251.558925,2.656875 C251.324925,2.782125 251.105175,2.947125 250.902675,3.150375 L250.440675,2.603625 C250.699425,2.359125 250.985175,2.157375 251.296425,2.000625 C251.607675,1.843125 251.963175,1.764375 252.362175,1.764375 C252.656175,1.764375 252.926175,1.802625 253.170675,1.879125 C253.415175,1.957125 253.627425,2.066625 253.805925,2.210625 C253.984425,2.353875 254.122425,2.530875 254.220675,2.740875 C254.318925,2.950875 254.366925,3.191625 254.366925,3.465375 C254.366925,3.871125 254.255925,4.203375 254.031675,4.462875 C253.807425,4.721625 253.513425,4.921125 253.149675,5.061375 L253.149675,5.102625 C253.352175,5.152125 253.541175,5.223375 253.716675,5.317875 C253.891425,5.412375 254.045925,5.531625 254.177925,5.675625 C254.311425,5.818875 254.414925,5.985375 254.489175,6.174375 C254.561925,6.363375 254.598675,6.572625 254.598675,6.804375 C254.598675,7.097625 254.540925,7.364625 254.426175,7.601625 C254.309925,7.840125 254.151675,8.041125 253.952925,8.206125 C253.753425,8.370375 253.520175,8.496375 253.254675,8.584125 C252.989175,8.671125 252.701925,8.715375 252.394425,8.715375 C252.127425,8.715375 251.884425,8.688375 251.663925,8.636625 C251.443425,8.584125 251.241675,8.513625 251.059425,8.426625 C250.877925,8.338875 250.715175,8.239125 250.571925,8.126625 C250.427925,8.014875 250.301175,7.896375 250.187925,7.770375 L250.629675,7.203375 Z" id="Fill-53" fill="#848484" mask="url(#mask-2)"></path>
                    <path d="M255.396975,7.234875 C255.592725,7.438125 255.824475,7.616625 256.094475,7.770375 C256.363725,7.924125 256.694475,8.000625 257.087475,8.000625 C257.289225,8.000625 257.480475,7.964625 257.658975,7.891125 C257.837475,7.816875 257.993475,7.714125 258.126225,7.581375 C258.258975,7.447875 258.364725,7.286625 258.441975,7.097625 C258.518475,6.908625 258.556725,6.699375 258.556725,6.468375 C258.556725,6.005625 258.427725,5.645625 258.168225,5.386875 C257.909475,5.127375 257.563725,4.998375 257.129475,4.998375 C256.898475,4.998375 256.699725,5.032875 256.536225,5.102625 C256.371225,5.173125 256.187475,5.275125 255.984225,5.407125 L255.522975,5.113875 L255.742725,1.890375 L259.092975,1.890375 L259.092975,2.635125 L256.498725,2.635125 L256.320225,4.620375 C256.480725,4.535625 256.641975,4.469625 256.803225,4.420875 C256.964475,4.372125 257.145975,4.346625 257.349975,4.346625 C257.636475,4.346625 257.906475,4.389375 258.158475,4.472625 C258.410475,4.557375 258.630975,4.684875 258.819225,4.856625 C259.008225,5.028375 259.157475,5.245125 259.265475,5.506875 C259.374225,5.770125 259.428225,6.083625 259.428225,6.446625 C259.428225,6.811875 259.365225,7.132875 259.239225,7.412625 C259.113225,7.693125 258.945225,7.929375 258.735225,8.122125 C258.525975,8.314125 258.285975,8.461875 258.015975,8.563125 C257.746725,8.664375 257.465475,8.715375 257.170725,8.715375 C256.905225,8.715375 256.662225,8.688375 256.441725,8.636625 C256.220475,8.584125 256.020975,8.515875 255.842475,8.431875 C255.663975,8.347125 255.503475,8.251125 255.359475,8.143125 C255.216225,8.034375 255.087975,7.920375 254.976225,7.801875 L255.396975,7.234875 Z" id="Fill-54" fill="#848484" mask="url(#mask-2)"></path>
                    <polygon id="Fill-55" fill="#848484" mask="url(#mask-2)" points="260.4573 1.70145 261.3288 1.70145 261.3288 5.1552 261.3603 5.1552 264.2268 1.70145 265.21455 1.70145 263.0613 4.32645 265.5498 8.58945 264.5733 8.58945 262.5153 5.0082 261.3288 6.4047 261.3288 8.58945 260.4573 8.58945"></polygon>
                    <path d="M142.79445,3.08715 C142.59795,2.89815 142.40745,2.75115 142.2222,2.64615 C142.03695,2.5404 141.8007,2.48865 141.51345,2.48865 C141.1917,2.48865 140.9352,2.5794 140.74695,2.76165 C140.55795,2.9439 140.4642,3.18915 140.4642,3.49665 C140.4642,3.74865 140.53545,3.9549 140.67945,4.11615 C140.8227,4.2774 141.0027,4.4184 141.21945,4.54065 C141.4362,4.6644 141.67245,4.7829 141.92895,4.8984 C142.18395,5.0139 142.4202,5.15415 142.63695,5.3184 C142.85445,5.48265 143.03445,5.6859 143.17845,5.9274 C143.32095,6.1689 143.3937,6.4779 143.3937,6.85665 C143.3937,7.36065 143.24745,7.7739 142.9572,8.09565 C142.66695,8.4174 142.2702,8.61315 141.7662,8.68365 L141.7662,9.74415 L141.13545,9.74415 L141.13545,8.70465 C140.79945,8.6694 140.47395,8.5764 140.15895,8.4264 C139.84395,8.27565 139.5747,8.0994 139.35045,7.89615 L139.7487,7.29765 C139.97295,7.4934 140.22045,7.6599 140.49045,7.7964 C140.75895,7.9329 141.0552,8.00115 141.37695,8.00115 C141.7692,8.00115 142.06095,7.9029 142.2537,7.70715 C142.4457,7.51065 142.54245,7.2489 142.54245,6.91965 C142.54245,6.63915 142.47045,6.4074 142.3272,6.2214 C142.18395,6.03615 142.0032,5.8749 141.78645,5.7384 C141.5697,5.6019 141.33345,5.4744 141.0777,5.35515 C140.8227,5.2359 140.5857,5.10015 140.36895,4.94565 C140.1522,4.79115 139.97145,4.60365 139.8282,4.3839 C139.68495,4.1634 139.61295,3.88215 139.61295,3.53865 C139.61295,3.0699 139.75095,2.67915 140.0277,2.3679 C140.30445,2.05665 140.67345,1.8624 141.13545,1.78515 L141.13545,0.73515 L141.7662,0.73515 L141.7662,1.77465 C142.10145,1.8099 142.3872,1.90065 142.62195,2.04765 C142.85595,2.19465 143.06745,2.3694 143.25645,2.5719 L142.79445,3.08715 Z" id="Fill-56" fill="#848484" mask="url(#mask-2)"></path>
                    <path d="M144.0234,8.07495 C144.5274,7.5702 144.97515,7.1157 145.36665,6.70995 C145.7589,6.3042 146.0874,5.9277 146.35365,5.5812 C146.6199,5.2347 146.8224,4.91595 146.9634,4.62495 C147.10215,4.33545 147.17265,4.05345 147.17265,3.7797 C147.17265,3.3957 147.0684,3.0807 146.85765,2.83545 C146.6484,2.5902 146.3289,2.4672 145.9029,2.4672 C145.6224,2.4672 145.36365,2.5467 145.12515,2.7042 C144.8874,2.8617 144.67065,3.0522 144.4749,3.27645 L143.98065,2.7822 C144.2604,2.4747 144.55815,2.22795 144.87315,2.0427 C145.18815,1.8567 145.5669,1.76445 146.0079,1.76445 C146.63115,1.76445 147.12015,1.94445 147.47715,2.3052 C147.8349,2.6652 148.01265,3.1437 148.01265,3.73845 C148.01265,4.05345 147.94515,4.36995 147.80865,4.68795 C147.6714,5.0067 147.4824,5.33595 147.24165,5.6757 C147.00015,6.0147 146.7129,6.3687 146.38065,6.7362 C146.04765,7.10295 145.68165,7.4937 145.2834,7.9062 C145.4649,7.8927 145.6539,7.87845 145.8504,7.86495 C146.04615,7.8507 146.23065,7.8432 146.4069,7.8432 L148.3494,7.8432 L148.3494,8.58945 L144.0234,8.58945 L144.0234,8.07495 Z" id="Fill-57" fill="#848484" mask="url(#mask-2)"></path>
                    <path d="M151.015875,8.022225 C151.211625,8.022225 151.388625,7.968225 151.546125,7.859475 C151.703625,7.751475 151.840125,7.582725 151.955625,7.355475 C152.071125,7.128225 152.160375,6.837225 152.223375,6.483975 C152.286375,6.130725 152.317875,5.708475 152.317875,5.218725 C152.317875,4.728225 152.286375,4.308975 152.223375,3.958725 C152.160375,3.608475 152.071125,3.322725 151.955625,3.102225 C151.840125,2.881725 151.703625,2.719725 151.546125,2.614725 C151.388625,2.508975 151.211625,2.457225 151.015875,2.457225 C150.820125,2.457225 150.641625,2.508975 150.480375,2.614725 C150.319125,2.719725 150.181875,2.881725 150.065625,3.102225 C149.950125,3.322725 149.860875,3.608475 149.797875,3.958725 C149.734875,4.308975 149.703375,4.728225 149.703375,5.218725 C149.703375,6.198225 149.824125,6.911475 150.065625,7.355475 C150.307875,7.800225 150.624375,8.022225 151.015875,8.022225 M151.015875,8.715225 C150.337125,8.715225 149.808375,8.413725 149.430375,7.812225 C149.052375,7.209975 148.863375,6.345975 148.863375,5.218725 C148.863375,4.091475 149.052375,3.234225 149.430375,2.646225 C149.808375,2.058225 150.337125,1.764225 151.015875,1.764225 C151.687875,1.764225 152.213625,2.058225 152.591625,2.646225 C152.968875,3.234225 153.157875,4.091475 153.157875,5.218725 C153.157875,6.345975 152.968875,7.209975 152.591625,7.812225 C152.213625,8.413725 151.687875,8.715225 151.015875,8.715225" id="Fill-58" fill="#848484" mask="url(#mask-2)"></path>
                    <polygon id="Fill-59" fill="#848484" mask="url(#mask-2)" points="154.1448 1.70145 155.0163 1.70145 155.0163 5.1552 155.0478 5.1552 157.9143 1.70145 158.90205 1.70145 156.7488 4.32645 159.2373 8.58945 158.2608 8.58945 156.2028 5.0082 155.0163 6.4047 155.0163 8.58945 154.1448 8.58945"></polygon>
                    <path d="M178.23195,3.08715 C178.03545,2.89815 177.84495,2.75115 177.6597,2.64615 C177.47445,2.5404 177.2382,2.48865 176.95095,2.48865 C176.6292,2.48865 176.3727,2.5794 176.18445,2.76165 C175.99545,2.9439 175.9017,3.18915 175.9017,3.49665 C175.9017,3.74865 175.97295,3.9549 176.11695,4.11615 C176.2602,4.2774 176.4402,4.4184 176.65695,4.54065 C176.8737,4.6644 177.10995,4.7829 177.36645,4.8984 C177.62145,5.0139 177.8577,5.15415 178.07445,5.3184 C178.29195,5.48265 178.47195,5.6859 178.61595,5.9274 C178.75845,6.1689 178.8312,6.4779 178.8312,6.85665 C178.8312,7.36065 178.68495,7.7739 178.3947,8.09565 C178.10445,8.4174 177.7077,8.61315 177.2037,8.68365 L177.2037,9.74415 L176.57295,9.74415 L176.57295,8.70465 C176.23695,8.6694 175.91145,8.5764 175.59645,8.4264 C175.28145,8.27565 175.0122,8.0994 174.78795,7.89615 L175.1862,7.29765 C175.41045,7.4934 175.65795,7.6599 175.92795,7.7964 C176.19645,7.9329 176.4927,8.00115 176.81445,8.00115 C177.2067,8.00115 177.49845,7.9029 177.6912,7.70715 C177.8832,7.51065 177.97995,7.2489 177.97995,6.91965 C177.97995,6.63915 177.90795,6.4074 177.7647,6.2214 C177.62145,6.03615 177.4407,5.8749 177.22395,5.7384 C177.0072,5.6019 176.77095,5.4744 176.5152,5.35515 C176.2602,5.2359 176.0232,5.10015 175.80645,4.94565 C175.5897,4.79115 175.40895,4.60365 175.2657,4.3839 C175.12245,4.1634 175.05045,3.88215 175.05045,3.53865 C175.05045,3.0699 175.18845,2.67915 175.4652,2.3679 C175.74195,2.05665 176.11095,1.8624 176.57295,1.78515 L176.57295,0.73515 L177.2037,0.73515 L177.2037,1.77465 C177.53895,1.8099 177.8247,1.90065 178.05945,2.04765 C178.29345,2.19465 178.50495,2.3694 178.69395,2.5719 L178.23195,3.08715 Z" id="Fill-60" fill="#848484" mask="url(#mask-2)"></path>
                    <path d="M179.4609,8.07495 C179.9649,7.5702 180.41265,7.1157 180.80415,6.70995 C181.1964,6.3042 181.5249,5.9277 181.79115,5.5812 C182.0574,5.2347 182.2599,4.91595 182.4009,4.62495 C182.53965,4.33545 182.61015,4.05345 182.61015,3.7797 C182.61015,3.3957 182.5059,3.0807 182.29515,2.83545 C182.0859,2.5902 181.7664,2.4672 181.3404,2.4672 C181.0599,2.4672 180.80115,2.5467 180.56265,2.7042 C180.3249,2.8617 180.10815,3.0522 179.9124,3.27645 L179.41815,2.7822 C179.6979,2.4747 179.99565,2.22795 180.31065,2.0427 C180.62565,1.8567 181.0044,1.76445 181.4454,1.76445 C182.06865,1.76445 182.55765,1.94445 182.91465,2.3052 C183.2724,2.6652 183.45015,3.1437 183.45015,3.73845 C183.45015,4.05345 183.38265,4.36995 183.24615,4.68795 C183.1089,5.0067 182.9199,5.33595 182.67915,5.6757 C182.43765,6.0147 182.1504,6.3687 181.81815,6.7362 C181.48515,7.10295 181.11915,7.4937 180.7209,7.9062 C180.9024,7.8927 181.0914,7.87845 181.2879,7.86495 C181.48365,7.8507 181.66815,7.8432 181.8444,7.8432 L183.7869,7.8432 L183.7869,8.58945 L179.4609,8.58945 L179.4609,8.07495 Z" id="Fill-61" fill="#848484" mask="url(#mask-2)"></path>
                    <path d="M184.521975,7.234875 C184.717725,7.438125 184.949475,7.616625 185.219475,7.770375 C185.488725,7.924125 185.819475,8.000625 186.212475,8.000625 C186.414225,8.000625 186.605475,7.964625 186.783975,7.891125 C186.962475,7.816875 187.118475,7.714125 187.251225,7.581375 C187.383975,7.447875 187.489725,7.286625 187.566975,7.097625 C187.643475,6.908625 187.681725,6.699375 187.681725,6.468375 C187.681725,6.005625 187.552725,5.645625 187.293225,5.386875 C187.034475,5.127375 186.688725,4.998375 186.254475,4.998375 C186.023475,4.998375 185.824725,5.032875 185.661225,5.102625 C185.496225,5.173125 185.312475,5.275125 185.109225,5.407125 L184.647975,5.113875 L184.867725,1.890375 L188.217975,1.890375 L188.217975,2.635125 L185.623725,2.635125 L185.445225,4.620375 C185.605725,4.535625 185.766975,4.469625 185.928225,4.420875 C186.089475,4.372125 186.270975,4.346625 186.474975,4.346625 C186.761475,4.346625 187.031475,4.389375 187.283475,4.472625 C187.535475,4.557375 187.755975,4.684875 187.944225,4.856625 C188.133225,5.028375 188.282475,5.245125 188.390475,5.506875 C188.499225,5.770125 188.553225,6.083625 188.553225,6.446625 C188.553225,6.811875 188.490225,7.132875 188.364225,7.412625 C188.238225,7.693125 188.070225,7.929375 187.860225,8.122125 C187.650975,8.314125 187.410975,8.461875 187.140975,8.563125 C186.871725,8.664375 186.590475,8.715375 186.295725,8.715375 C186.030225,8.715375 185.787225,8.688375 185.566725,8.636625 C185.345475,8.584125 185.145975,8.515875 184.967475,8.431875 C184.788975,8.347125 184.628475,8.251125 184.484475,8.143125 C184.341225,8.034375 184.212975,7.920375 184.101225,7.801875 L184.521975,7.234875 Z" id="Fill-62" fill="#848484" mask="url(#mask-2)"></path>
                    <polygon id="Fill-63" fill="#848484" mask="url(#mask-2)" points="189.5823 1.70145 190.4538 1.70145 190.4538 5.1552 190.4853 5.1552 193.3518 1.70145 194.33955 1.70145 192.1863 4.32645 194.6748 8.58945 193.6983 8.58945 191.6403 5.0082 190.4538 6.4047 190.4538 8.58945 189.5823 8.58945"></polygon>
                    <path d="M284.54445,3.08715 C284.34795,2.89815 284.15745,2.75115 283.9722,2.64615 C283.78695,2.5404 283.5507,2.48865 283.26345,2.48865 C282.9417,2.48865 282.6852,2.5794 282.49695,2.76165 C282.30795,2.9439 282.2142,3.18915 282.2142,3.49665 C282.2142,3.74865 282.28545,3.9549 282.42945,4.11615 C282.5727,4.2774 282.7527,4.4184 282.96945,4.54065 C283.1862,4.6644 283.42245,4.7829 283.67895,4.8984 C283.93395,5.0139 284.1702,5.15415 284.38695,5.3184 C284.60445,5.48265 284.78445,5.6859 284.92845,5.9274 C285.07095,6.1689 285.1437,6.4779 285.1437,6.85665 C285.1437,7.36065 284.99745,7.7739 284.7072,8.09565 C284.41695,8.4174 284.0202,8.61315 283.5162,8.68365 L283.5162,9.74415 L282.88545,9.74415 L282.88545,8.70465 C282.54945,8.6694 282.22395,8.5764 281.90895,8.4264 C281.59395,8.27565 281.3247,8.0994 281.10045,7.89615 L281.4987,7.29765 C281.72295,7.4934 281.97045,7.6599 282.24045,7.7964 C282.50895,7.9329 282.8052,8.00115 283.12695,8.00115 C283.5192,8.00115 283.81095,7.9029 284.0037,7.70715 C284.1957,7.51065 284.29245,7.2489 284.29245,6.91965 C284.29245,6.63915 284.22045,6.4074 284.0772,6.2214 C283.93395,6.03615 283.7532,5.8749 283.53645,5.7384 C283.3197,5.6019 283.08345,5.4744 282.8277,5.35515 C282.5727,5.2359 282.3357,5.10015 282.11895,4.94565 C281.9022,4.79115 281.72145,4.60365 281.5782,4.3839 C281.43495,4.1634 281.36295,3.88215 281.36295,3.53865 C281.36295,3.0699 281.50095,2.67915 281.7777,2.3679 C282.05445,2.05665 282.42345,1.8624 282.88545,1.78515 L282.88545,0.73515 L283.5162,0.73515 L283.5162,1.77465 C283.85145,1.8099 284.1372,1.90065 284.37195,2.04765 C284.60595,2.19465 284.81745,2.3694 285.00645,2.5719 L284.54445,3.08715 Z" id="Fill-64" fill="#848484" mask="url(#mask-2)"></path>
                    <path d="M288.54495,6.048375 L288.54495,4.105875 C288.54495,3.923625 288.55095,3.708375 288.5607,3.460125 C288.5712,3.211875 288.5832,2.996625 288.59745,2.814375 L288.55545,2.814375 C288.47145,2.974875 288.3837,3.132375 288.29295,3.286125 C288.2022,3.440625 288.10695,3.598125 288.00945,3.758625 L286.44495,6.048375 L288.54495,6.048375 Z M290.2782,6.741375 L289.36395,6.741375 L289.36395,8.589375 L288.54495,8.589375 L288.54495,6.741375 L285.53145,6.741375 L285.53145,6.174375 L288.3987,1.890375 L289.36395,1.890375 L289.36395,6.048375 L290.2782,6.048375 L290.2782,6.741375 Z" id="Fill-65" fill="#848484" mask="url(#mask-2)"></path>
                    <path d="M292.765875,8.022225 C292.961625,8.022225 293.138625,7.968225 293.296125,7.859475 C293.453625,7.751475 293.590125,7.582725 293.705625,7.355475 C293.821125,7.128225 293.910375,6.837225 293.973375,6.483975 C294.036375,6.130725 294.067875,5.708475 294.067875,5.218725 C294.067875,4.728225 294.036375,4.308975 293.973375,3.958725 C293.910375,3.608475 293.821125,3.322725 293.705625,3.102225 C293.590125,2.881725 293.453625,2.719725 293.296125,2.614725 C293.138625,2.508975 292.961625,2.457225 292.765875,2.457225 C292.570125,2.457225 292.391625,2.508975 292.230375,2.614725 C292.069125,2.719725 291.931875,2.881725 291.815625,3.102225 C291.700125,3.322725 291.610875,3.608475 291.547875,3.958725 C291.484875,4.308975 291.453375,4.728225 291.453375,5.218725 C291.453375,6.198225 291.574125,6.911475 291.815625,7.355475 C292.057875,7.800225 292.374375,8.022225 292.765875,8.022225 M292.765875,8.715225 C292.087125,8.715225 291.558375,8.413725 291.180375,7.812225 C290.802375,7.209975 290.613375,6.345975 290.613375,5.218725 C290.613375,4.091475 290.802375,3.234225 291.180375,2.646225 C291.558375,2.058225 292.087125,1.764225 292.765875,1.764225 C293.437875,1.764225 293.963625,2.058225 294.341625,2.646225 C294.718875,3.234225 294.907875,4.091475 294.907875,5.218725 C294.907875,6.345975 294.718875,7.209975 294.341625,7.812225 C293.963625,8.413725 293.437875,8.715225 292.765875,8.715225" id="Fill-66" fill="#848484" mask="url(#mask-2)"></path>
                    <polygon id="Fill-67" fill="#848484" mask="url(#mask-2)" points="295.8948 1.70145 296.7663 1.70145 296.7663 5.1552 296.7978 5.1552 299.6643 1.70145 300.65205 1.70145 298.4988 4.32645 300.9873 8.58945 300.0108 8.58945 297.9528 5.0082 296.7663 6.4047 296.7663 8.58945 295.8948 8.58945"></polygon>
                    <line x1="2.042025" y1="39.5889" x2="2.042025" y2="13.3389" id="Stroke-68" stroke="#D1D1D1" stroke-width="0.75" stroke-linecap="round" mask="url(#mask-2)"></line>
                    <line x1="76.292025" y1="39.459225" x2="76.292025" y2="13.209225" id="Stroke-69" stroke="#D1D1D1" stroke-width="0.75" stroke-linecap="round" mask="url(#mask-2)"></line>
                    <line x1="39.167025" y1="39.459225" x2="39.167025" y2="13.209225" id="Stroke-70" stroke="#D1D1D1" stroke-width="0.75" stroke-linecap="round" mask="url(#mask-2)"></line>
                    <line x1="113.417025" y1="39.459225" x2="113.417025" y2="13.209225" id="Stroke-71" stroke="#D1D1D1" stroke-width="0.75" stroke-linecap="round" mask="url(#mask-2)"></line>
                    <line x1="187.667025" y1="39.459225" x2="187.667025" y2="13.209225" id="Stroke-72" stroke="#D1D1D1" stroke-width="0.75" stroke-linecap="round" mask="url(#mask-2)"></line>
                    <line x1="261.917025" y1="39.459225" x2="261.917025" y2="13.209225" id="Stroke-73" stroke="#D1D1D1" stroke-width="0.75" stroke-linecap="round" mask="url(#mask-2)"></line>
                    <line x1="150.542025" y1="39.5889" x2="150.542025" y2="13.3389" id="Stroke-74" stroke="#D1D1D1" stroke-width="0.75" stroke-linecap="round" mask="url(#mask-2)"></line>
                    <line x1="224.792025" y1="39.5889" x2="224.792025" y2="13.3389" id="Stroke-75" stroke="#D1D1D1" stroke-width="0.75" stroke-linecap="round" mask="url(#mask-2)"></line>
                    <line x1="299.042025" y1="39.5889" x2="299.042025" y2="13.3389" id="Stroke-76" stroke="#D1D1D1" stroke-width="0.75" stroke-linecap="round" mask="url(#mask-2)"></line>
                    <line x1="79.60695" y1="55.584225" x2="79.60695" y2="42.504975" id="Stroke-77" stroke="#636363" stroke-width="1.5" stroke-linecap="round" mask="url(#mask-2)"></line>
                    <path d="M79.60695,42.8064 C78.8232,43.59015 77.2737,43.96365 76.1982,43.9944 C77.64195,42.91965 78.9012,41.5239 79.60695,39.83415 C80.2827,41.5239 81.61845,42.85815 83.0157,43.9944 C81.86445,43.90215 80.46645,43.6209 79.60695,42.8064" id="Fill-78" fill="#636363" mask="url(#mask-2)"></path>
                    <path d="M266.042025,35.334225 L37.292025,35.334225 C35.229525,35.334225 33.542025,33.646725 33.542025,31.584225 L33.542025,21.834225 C33.542025,19.771725 35.229525,18.084225 37.292025,18.084225 L266.042025,18.084225 C268.104525,18.084225 269.792025,19.771725 269.792025,21.834225 L269.792025,31.584225 C269.792025,33.646725 268.104525,35.334225 266.042025,35.334225" id="Fill-79" fill="#D5E8AA" mask="url(#mask-2)"></path>
                    <path d="M81.508275,36.834225 L49.751025,36.834225 C48.101025,36.834225 46.751025,35.484225 46.751025,33.834225 L46.751025,19.584225 C46.751025,17.934225 48.101025,16.584225 49.751025,16.584225 L81.508275,16.584225 C83.158275,16.584225 84.508275,17.934225 84.508275,19.584225 L84.508275,33.834225 C84.508275,35.484225 83.158275,36.834225 81.508275,36.834225" id="Fill-80" fill="#789E25" mask="url(#mask-2)"></path>
                </g>
                <text id="$" font-family="SourceSansPro-Bold, Source Sans Pro" font-size="13.5" font-weight="bold" fill="#FFFFFF">
                    <tspan x="76.242525" y="27.1343549">$</tspan>
                </text>
            </g>
        </g>
    </g>
</svg>