<?xml version="1.0" encoding="UTF-8"?>
<svg width="104px" height="64px" viewBox="0 0 104 64" version="1.1" xmlns="http://www.w3.org/2000/svg" xmlns:xlink="http://www.w3.org/1999/xlink">
    <!-- Generator: Sketch 59.1 (86144) - https://sketch.com -->
    <title>Group 138</title>
    <desc>Created with Sketch.</desc>
    <defs>
        <polygon id="path-1" points="0 0.504359221 103.24125 0.504359221 103.24125 63.75 0 63.75"></polygon>
        <polygon id="path-3" points="3.9039873e-05 0.504209221 103.24125 0.504209221 103.24125 63.75 3.9039873e-05 63.75"></polygon>
    </defs>
    <g id="Desktop" stroke="none" stroke-width="1" fill="none" fill-rule="evenodd">
        <g id="Homelessness-Section-3-8" transform="translate(-841.000000, -2517.000000)">
            <g id="Group-13" transform="translate(841.000000, 2517.000000)">
                <g id="Group-3" transform="translate(0.000000, 0.245625)">
                    <mask id="mask-2" fill="white">
                        <use xlink:href="#path-1"></use>
                    </mask>
                    <g id="Clip-2"></g>
                    <path d="M22.973625,27.6834165 C27.985875,27.705075 31.944375,23.847825 31.934643,18.949575 C31.925625,14.160825 27.966375,10.206075 23.154375,10.1789279 C18.213375,10.151325 14.248875,14.054325 14.2368434,18.959325 C14.224125,23.817075 18.073875,27.661575 22.973625,27.6834165 L22.973625,27.6834165 Z M33.616875,31.225575 L31.394625,31.225575 C27.169125,31.226325 22.942125,31.191075 18.717375,31.242825 C16.585875,31.269075 15.209625,32.699325 15.147375,34.749075 C15.083625,36.852075 16.501125,38.547075 18.625125,38.570325 C24.901125,38.637075 31.178625,38.631075 37.454625,38.573325 C39.455625,38.554575 41.010375,36.984075 41.029875,34.996575 C41.083875,29.404575 41.084625,23.811075 41.029875,18.218325 C41.009625,16.184325 39.209625,14.577825 37.248375,14.625825 C35.361375,14.670825 33.697875,16.227825 33.656625,18.199575 C33.581625,21.802575 33.623625,25.407825 33.616875,29.011575 C33.616125,29.676075 33.616875,30.339825 33.616875,31.225575 L33.616875,31.225575 Z M44.137125,38.208825 C44.854875,38.276325 45.278625,38.350575 45.703125,38.351325 C62.060625,38.355825 78.418875,38.337075 94.776375,38.3866075 C96.211875,38.391825 96.679125,37.760325 96.710625,36.550575 C96.777375,34.005825 96.989625,31.443825 96.793875,28.916325 C96.156375,20.671575 89.954625,14.734575 81.696375,14.646075 C69.693375,14.517825 57.688125,14.625825 45.684375,14.583825 C44.418375,14.579325 44.104875,15.046575 44.1193685,16.221825 C44.172375,20.263575 44.137875,24.307575 44.137125,28.350075 L44.137125,38.208825 Z M91.384875,53.346825 C91.384875,56.037075 91.398375,58.631325 91.379625,61.225575 C91.366125,62.950575 92.268375,63.723075 93.913125,63.734325 C96.090375,63.751575 98.269125,63.757575 100.446375,63.737325 C102.507375,63.719325 103.226625,62.997075 103.232625,60.918075 C103.246875,55.692075 103.239375,50.465325 103.239375,45.238575 C103.238625,41.591325 103.057875,41.410575 99.487125,41.410575 C71.176875,41.411325 42.867375,41.411325 14.557125,41.411325 L11.932875,41.411325 L11.932875,38.856075 C11.932875,28.341825 11.926125,17.826075 11.938125,7.311825 C11.940375,5.309325 11.561625,3.465825 10.002375,2.064075 C8.083125,0.337575 5.824875,0.118575 3.556875,1.042575 C1.121625,2.034825 0.021375,4.093575 0.013125,6.684075 C-0.010875,14.088075 0.004875,21.492075 0.004875,28.896075 C0.004125,39.473325 0.001125,50.050575 0.007875,60.627825 C0.009375,63.036825 0.703875,63.724575 3.104625,63.738075 C4.908375,63.749325 6.712875,63.744825 8.517375,63.739575 C11.311125,63.732075 11.926875,63.127575 11.932125,60.378825 C11.937375,58.040325 11.932875,55.701825 11.932875,53.346825 L91.384875,53.346825 Z" id="Fill-1" fill="#8C007C" mask="url(#mask-2)"></path>
                </g>
                <g id="Group-6" transform="translate(0.000000, 0.245625)">
                    <mask id="mask-4" fill="white">
                        <use xlink:href="#path-3"></use>
                    </mask>
                    <g id="Clip-5"></g>
                    <path d="M91.3848,53.346675 L11.9328,53.346675 C11.9328,55.702425 11.9373,58.040175 11.93205,60.378675 C11.9268,63.127425 11.31105,63.732675 8.5173,63.739425 C6.7128,63.744675 4.9083,63.749175 3.10455,63.737925 C0.7038,63.724425 0.0093,63.036675 0.0078,60.627675 C3.9039873e-05,50.050425 0.00405,39.473175 0.0048,28.895925 C0.0048,21.491925 -0.0102,14.087925 0.01305,6.683925 C0.02205,4.093425 1.12155,2.034675 3.5568,1.042425 C5.8248,0.118425 8.0838,0.337425 10.0023,2.063925 C11.56155,3.465675 11.9403,5.309175 11.93805,7.311675 C11.92605,17.826675 11.9328,28.341675 11.9328,38.856675 L11.9328,41.411175 L14.55705,41.411175 C42.86805,41.411175 71.17755,41.411175 99.48705,41.410425 C103.0578,41.410425 103.23855,41.591175 103.2393,45.238425 C103.24005,50.465175 103.2468,55.691925 103.23255,60.917925 C103.22655,62.996925 102.5073,63.719175 100.4463,63.737175 C98.26905,63.757425 96.0903,63.751425 93.91305,63.734925 C92.2683,63.722925 91.3668,62.951175 91.37955,61.225425 C91.39905,58.631175 91.3848,56.036925 91.3848,53.346675" id="Fill-4" fill="#789E25" mask="url(#mask-4)"></path>
                </g>
                <path d="M44.136975,38.4546 L44.136975,28.5951 C44.137725,24.55335 44.172225,20.50935 44.120475,16.4676 C44.104725,15.29235 44.418225,14.8251 45.684225,14.8296 C57.687975,14.8716 69.693225,14.7636 81.696225,14.89185 C89.954475,14.98035 96.156225,20.91735 96.793725,29.16135 C96.989475,31.68885 96.777975,34.2516 96.711225,36.79635 C96.679725,38.00535 96.212475,38.6376 94.776975,38.6323824 C78.418725,38.58285 62.060475,38.6016 45.702975,38.59635 C45.278475,38.5956 44.854725,38.5221 44.136975,38.4546" id="Fill-7" fill="#789E25"></path>
                <path d="M33.61725,31.470975 C33.61725,30.585225 33.6165,29.922225 33.61725,29.257725 C33.624,25.653225 33.58125,22.048725 33.657,18.445725 C33.6975,16.473225 35.361,14.916975 37.24875,14.871225 C39.21,14.823975 41.00925,16.429725 41.03025,18.463725 C41.085,24.056475 41.08425,29.649975 41.03025,35.241975 C41.01,37.230225 39.45525,38.799975 37.45425,38.818725 C31.179,38.876475 24.9015,38.883225 18.6255,38.815725 C16.5015,38.793225 15.084,37.097475 15.14775,34.994475 C15.21,32.945475 16.58625,31.515225 18.71775,31.488225 C22.9425,31.436475 27.16875,31.471725 31.39425,31.470975 L33.61725,31.470975 Z" id="Fill-9" fill="#789E25"></path>
                <path d="M22.973625,27.9290415 C18.073875,27.9072 14.224125,24.0627 14.2368434,19.20495 C14.248875,14.29995 18.213375,10.39695 23.154375,10.4245529 C27.966375,10.4517 31.925625,14.40645 31.934643,19.1952 C31.944375,24.09345 27.985875,27.9507 22.973625,27.9290415" id="Fill-11" fill="#789E25"></path>
            </g>
        </g>
    </g>
</svg>