<?xml version="1.0" encoding="UTF-8"?>
<svg width="237px" height="43px" viewBox="0 0 237 43" version="1.1" xmlns="http://www.w3.org/2000/svg" xmlns:xlink="http://www.w3.org/1999/xlink">
    <!-- Generator: Sketch 59.1 (86144) - https://sketch.com -->
    <title>Group 688</title>
    <desc>Created with Sketch.</desc>
    <defs>
        <polygon id="path-1" points="0 42.07575 236.91825 42.07575 236.91825 0 0 0"></polygon>
    </defs>
    <g id="Desktop" stroke="none" stroke-width="1" fill="none" fill-rule="evenodd">
        <g id="Homelessness-Section-3-8" transform="translate(-843.000000, -1441.000000)">
            <g id="Group-68" transform="translate(843.000000, 1441.000000)">
                <path d="M233.8293,20.905125 L3.7563,20.905125 C2.0583,20.905125 0.6678,19.515375 0.6678,17.816625 L0.6678,12.292125 C0.6678,10.593375 2.0583,9.202875 3.7563,9.202875 L233.8293,9.202875 C235.52805,9.202875 236.9178,10.593375 236.9178,12.292125 L236.9178,17.816625 C236.9178,19.515375 235.52805,20.905125 233.8293,20.905125" id="Fill-1" fill="#D5E8AA"></path>
                <path d="M139.24215,23.57625 L47.0874,23.57625 C45.6174,23.57625 44.4144,22.37325 44.4144,20.904 L44.4144,10.179 C44.4144,8.709 45.6174,7.506 47.0874,7.506 L139.24215,7.506 C140.71215,7.506 141.9144,8.709 141.9144,10.179 L141.9144,20.904 C141.9144,22.37325 140.71215,23.57625 139.24215,23.57625" id="Fill-3" fill="#789E25"></path>
                <path d="M76.057575,15.660975 C76.057575,15.215475 76.126575,14.817975 76.263075,14.468475 C76.401075,14.119725 76.587075,13.824225 76.821075,13.581975 C77.054325,13.339725 77.326575,13.155975 77.637075,13.029225 C77.948325,12.902475 78.276825,12.839475 78.623325,12.839475 C78.958575,12.839475 79.262325,12.909225 79.535325,13.050225 C79.806825,13.189725 80.034075,13.353975 80.215575,13.540725 L79.547325,14.291475 C79.410075,14.165475 79.270575,14.065725 79.131075,13.994475 C78.990075,13.923225 78.826575,13.887225 78.639825,13.887225 C78.452325,13.887225 78.278325,13.926975 78.115575,14.007225 C77.953575,14.086725 77.811825,14.200725 77.691075,14.349225 C77.570325,14.497725 77.475075,14.679225 77.406825,14.893725 C77.337825,15.108225 77.303325,15.350475 77.303325,15.619725 C77.303325,16.175475 77.421075,16.605975 77.658075,16.910475 C77.894325,17.215725 78.210825,17.368725 78.606075,17.368725 C78.826575,17.368725 79.019325,17.325225 79.184325,17.236725 C79.349325,17.148225 79.497825,17.033475 79.629825,16.890225 L80.298075,17.624475 C80.073075,17.888475 79.815825,18.086475 79.526325,18.218475 C79.237575,18.350475 78.925575,18.416475 78.590325,18.416475 C78.243825,18.416475 77.916825,18.357225 77.608575,18.239475 C77.300325,18.120975 77.031075,17.946225 76.800075,17.715225 C76.569075,17.484225 76.386825,17.196975 76.255575,16.853475 C76.123575,16.509225 76.057575,16.112475 76.057575,15.660975" id="Fill-5" fill="#FFFFFF"></path>
                <polygon id="Fill-7" fill="#FFFFFF" points="81.19695 12.93855 82.4097 12.93855 82.4097 17.29455 84.5382 17.29455 84.5382 18.31755 81.19695 18.31755"></polygon>
                <path d="M85.215075,12.93855 L86.436075,12.93855 L86.436075,15.9498 C86.436075,16.4778 86.515575,16.84605 86.675325,17.0553 C86.834325,17.26455 87.066075,17.3688 87.368325,17.3688 C87.670575,17.3688 87.904575,17.26455 88.069575,17.0553 C88.234575,16.84605 88.317075,16.4778 88.317075,15.9498 L88.317075,12.93855 L89.488575,12.93855 L89.488575,15.82605 C89.488575,16.7283 89.308575,17.3853 88.948575,17.7978 C88.587825,18.2103 88.061325,18.41655 87.368325,18.41655 C86.669325,18.41655 86.136825,18.2103 85.767825,17.7978 C85.399575,17.3853 85.215075,16.7283 85.215075,15.82605 L85.215075,12.93855 Z" id="Fill-9" fill="#FFFFFF"></path>
                <path d="M91.08105,16.80795 C91.27305,16.97295 91.48605,17.1072 91.7208,17.2122 C91.95405,17.31645 92.18355,17.36895 92.4093,17.36895 C92.6613,17.36895 92.8503,17.32245 92.97405,17.2287 C93.0978,17.1357 93.1593,17.00895 93.1593,16.8492 C93.1593,16.76595 93.14205,16.69545 93.10605,16.6347 C93.07005,16.57395 93.0183,16.51995 92.9493,16.47345 C92.8803,16.42695 92.7978,16.38345 92.7018,16.34145 C92.6058,16.3002 92.50005,16.2552 92.3838,16.20495 L91.6833,15.9087 C91.5453,15.85395 91.4118,15.78195 91.28355,15.6942 C91.1538,15.6057 91.03755,15.50295 90.93705,15.3852 C90.83505,15.26595 90.7533,15.1287 90.69255,14.97195 C90.63255,14.8152 90.6018,14.63745 90.6018,14.4402 C90.6018,14.22045 90.64905,14.01195 90.7428,13.81695 C90.8358,13.62195 90.96855,13.45095 91.1388,13.30545 C91.30905,13.15995 91.5108,13.0452 91.7448,12.96345 C91.9788,12.88095 92.23605,12.8397 92.51655,12.8397 C92.83005,12.8397 93.13905,12.8997 93.4443,13.0212 C93.7503,13.14195 94.01805,13.3182 94.24905,13.54845 L93.62955,14.31645 C93.45405,14.17845 93.27855,14.07345 93.10155,13.99845 C92.92605,13.9242 92.7303,13.8867 92.51655,13.8867 C92.3073,13.8867 92.1408,13.92945 92.01705,14.01495 C91.8933,14.10045 91.8318,14.22045 91.8318,14.3742 C91.8318,14.45595 91.85205,14.52645 91.8933,14.5842 C91.93455,14.64195 91.9923,14.69445 92.06655,14.74095 C92.1408,14.7882 92.22705,14.8317 92.3268,14.87295 C92.4258,14.91495 92.53305,14.95995 92.64855,15.00945 L93.34155,15.28995 C93.67155,15.4212 93.93105,15.60345 94.1208,15.83445 C94.3113,16.06545 94.4058,16.3707 94.4058,16.7502 C94.4058,16.97595 94.36005,17.18895 94.2693,17.3892 C94.17855,17.5902 94.04655,17.7657 93.87405,17.9172 C93.70005,18.0687 93.48705,18.18945 93.2343,18.2802 C92.9808,18.37095 92.69505,18.4167 92.3763,18.4167 C92.0238,18.4167 91.67355,18.3522 91.32405,18.22245 C90.97455,18.09345 90.66255,17.8992 90.3873,17.64045 L91.08105,16.80795 Z" id="Fill-11" fill="#FFFFFF"></path>
                <polygon id="Fill-13" fill="#FFFFFF" points="96.28635 13.9617 94.8096 13.9617 94.8096 12.9387 98.9841 12.9387 98.9841 13.9617 97.50735 13.9617 97.50735 18.3177 96.28635 18.3177"></polygon>
                <polygon id="Fill-15" fill="#FFFFFF" points="99.908175 12.93855 103.274175 12.93855 103.274175 13.96155 101.120925 13.96155 101.120925 15.0423 102.952425 15.0423 102.952425 16.05705 101.120925 16.05705 101.120925 17.29455 103.356675 17.29455 103.356675 18.31755 99.908175 18.31755"></polygon>
                <path d="M105.72435,15.4134 L106.35135,15.4134 C106.6701,15.4134 106.91385,15.3459 107.08185,15.2109 C107.2491,15.07665 107.3331,14.87715 107.3331,14.61315 C107.3331,14.34915 107.2491,14.1654 107.08185,14.0604 C106.91385,13.95615 106.6701,13.90365 106.35135,13.90365 L105.72435,13.90365 L105.72435,15.4134 Z M107.42385,18.3174 L106.3926,16.37865 L105.72435,16.37865 L105.72435,18.3174 L104.5116,18.3174 L104.5116,12.9384 L106.45035,12.9384 C106.7361,12.9384 107.0046,12.96615 107.25435,13.02165 C107.50485,13.0764 107.7231,13.16865 107.9106,13.29765 C108.09735,13.42665 108.24585,13.5984 108.3561,13.8129 C108.4656,14.0274 108.5211,14.2944 108.5211,14.61315 C108.5211,15.00915 108.4341,15.3354 108.2616,15.5904 C108.0876,15.84615 107.85585,16.0374 107.5641,16.16415 L108.7851,18.3174 L107.42385,18.3174 Z" id="Fill-17" fill="#FFFFFF"></path>
                <path d="M158.28075,12.93855 L159.50175,12.93855 L159.50175,15.9498 C159.50175,16.4778 159.5805,16.84605 159.74025,17.0553 C159.9,17.26455 160.13175,17.3688 160.43325,17.3688 C160.73625,17.3688 160.97025,17.26455 161.13525,17.0553 C161.30025,16.84605 161.38275,16.4778 161.38275,15.9498 L161.38275,12.93855 L162.55425,12.93855 L162.55425,15.82605 C162.55425,16.7283 162.37425,17.3853 162.01425,17.7978 C161.6535,18.2103 161.127,18.41655 160.43325,18.41655 C159.735,18.41655 159.20175,18.2103 158.8335,17.7978 C158.4645,17.3853 158.28075,16.7283 158.28075,15.82605 L158.28075,12.93855 Z" id="Fill-19" fill="#380A6D"></path>
                <path d="M163.882275,12.93855 L165.128025,12.93855 L166.529775,15.6108 L167.058525,16.7988 L167.090775,16.7988 C167.063775,16.5138 167.032275,16.1943 166.996275,15.84255 C166.960275,15.49005 166.943025,15.1548 166.943025,14.83605 L166.943025,12.93855 L168.097275,12.93855 L168.097275,18.31755 L166.852275,18.31755 L165.449775,15.6363 L164.921775,14.4648 L164.888775,14.4648 C164.915775,14.7618 164.948025,15.08055 164.983275,15.4218 C165.020025,15.76305 165.037275,16.09305 165.037275,16.4118 L165.037275,18.31755 L163.882275,18.31755 L163.882275,12.93855 Z" id="Fill-21" fill="#380A6D"></path>
                <mask id="mask-2" fill="white">
                    <use xlink:href="#path-1"></use>
                </mask>
                <g id="Clip-24"></g>
                <polygon id="Fill-23" fill="#380A6D" mask="url(#mask-2)" points="169.45125 18.31725 170.664 18.31725 170.664 12.93825 169.45125 12.93825"></polygon>
                <polygon id="Fill-25" fill="#380A6D" mask="url(#mask-2)" points="173.064675 13.9617 171.587925 13.9617 171.587925 12.9387 175.762425 12.9387 175.762425 13.9617 174.285675 13.9617 174.285675 18.3177 173.064675 18.3177"></polygon>
                <polygon id="Fill-26" fill="#380A6D" mask="url(#mask-2)" points="176.68575 12.93855 180.05175 12.93855 180.05175 13.96155 177.8985 13.96155 177.8985 15.0423 179.73 15.0423 179.73 16.05705 177.8985 16.05705 177.8985 17.29455 180.13425 17.29455 180.13425 18.31755 176.68575 18.31755"></polygon>
                <path d="M182.733375,17.336025 C182.964375,17.336025 183.173625,17.305275 183.360375,17.245275 C183.547125,17.184525 183.706875,17.087025 183.838875,16.952025 C183.970125,16.817775 184.074375,16.640025 184.148625,16.419525 C184.222125,16.199775 184.259625,15.927525 184.259625,15.602775 C184.259625,15.284775 184.222125,15.016275 184.148625,14.798775 C184.074375,14.581275 183.970125,14.408775 183.838875,14.279025 C183.706875,14.150025 183.547125,14.057775 183.360375,14.003025 C183.173625,13.947525 182.964375,13.919775 182.733375,13.919775 L182.502375,13.919775 L182.502375,17.336025 L182.733375,17.336025 Z M181.289625,12.938775 L182.807625,12.938775 C183.220125,12.938775 183.591375,12.990525 183.921375,13.095525 C184.251375,13.199775 184.534125,13.360275 184.771125,13.577775 C185.007375,13.795275 185.188875,14.071275 185.314875,14.407275 C185.442375,14.742525 185.505375,15.140775 185.505375,15.602775 C185.505375,16.065525 185.442375,16.466775 185.314875,16.808025 C185.188875,17.148525 185.010375,17.430525 184.779375,17.653275 C184.548375,17.876025 184.272375,18.042525 183.949875,18.152775 C183.628125,18.262275 183.269625,18.317775 182.873625,18.317775 L181.289625,18.317775 L181.289625,12.938775 Z" id="Fill-27" fill="#380A6D" mask="url(#mask-2)"></path>
                <path d="M188.7561,16.80795 C188.9481,16.97295 189.1611,17.1072 189.3951,17.2122 C189.6291,17.31645 189.8586,17.36895 190.08435,17.36895 C190.33635,17.36895 190.52535,17.32245 190.64835,17.2287 C190.77285,17.1357 190.83435,17.00895 190.83435,16.8492 C190.83435,16.76595 190.8171,16.69545 190.78035,16.6347 C190.7451,16.57395 190.6926,16.51995 190.6236,16.47345 C190.5546,16.42695 190.47285,16.38345 190.37685,16.34145 C190.28085,16.3002 190.1751,16.2552 190.05885,16.20495 L189.35835,15.9087 C189.22035,15.85395 189.08685,15.78195 188.9586,15.6942 C188.82885,15.6057 188.7126,15.50295 188.61135,15.3852 C188.5101,15.26595 188.42835,15.1287 188.3676,14.97195 C188.3076,14.8152 188.27685,14.63745 188.27685,14.4402 C188.27685,14.22045 188.3241,14.01195 188.41785,13.81695 C188.51085,13.62195 188.6436,13.45095 188.8131,13.30545 C188.9841,13.15995 189.18585,13.0452 189.41985,12.96345 C189.65385,12.88095 189.91035,12.8397 190.1916,12.8397 C190.5051,12.8397 190.8141,12.8997 191.1186,13.0212 C191.42535,13.14195 191.6931,13.3182 191.9241,13.54845 L191.3046,14.31645 C191.1291,14.17845 190.9536,14.07345 190.7766,13.99845 C190.60035,13.9242 190.40535,13.8867 190.1916,13.8867 C189.98235,13.8867 189.81585,13.92945 189.6921,14.01495 C189.56835,14.10045 189.5061,14.22045 189.5061,14.3742 C189.5061,14.45595 189.52635,14.52645 189.56835,14.5842 C189.6096,14.64195 189.66735,14.69445 189.7416,14.74095 C189.81585,14.7882 189.9021,14.8317 190.0011,14.87295 C190.10085,14.91495 190.2081,14.95995 190.3236,15.00945 L191.0166,15.28995 C191.34585,15.4212 191.6061,15.60345 191.79585,15.83445 C191.98635,16.06545 192.08085,16.3707 192.08085,16.7502 C192.08085,16.97595 192.0351,17.18895 191.94435,17.3892 C191.8536,17.5902 191.7216,17.7657 191.54835,17.9172 C191.3751,18.0687 191.16135,18.18945 190.90935,18.2802 C190.65585,18.37095 190.3701,18.4167 190.05135,18.4167 C189.69885,18.4167 189.34785,18.3522 188.9991,18.22245 C188.64885,18.09345 188.33685,17.8992 188.06235,17.64045 L188.7561,16.80795 Z" id="Fill-28" fill="#380A6D" mask="url(#mask-2)"></path>
                <polygon id="Fill-29" fill="#380A6D" mask="url(#mask-2)" points="193.962075 13.9617 192.484575 13.9617 192.484575 12.9387 196.659075 12.9387 196.659075 13.9617 195.182325 13.9617 195.182325 18.3177 193.962075 18.3177"></polygon>
                <path d="M199.53,16.090125 L199.407,15.595125 C199.329,15.325125 199.2555,15.039375 199.18425,14.736375 C199.11225,14.434875 199.041,14.142375 198.969,13.861875 L198.93675,13.861875 C198.87075,14.148375 198.80325,14.441625 198.73425,14.740875 C198.666,15.040875 198.5925,15.325125 198.51525,15.595125 L198.384,16.090125 L199.53,16.090125 Z M199.7775,17.038875 L198.1365,17.038875 L197.80575,18.317625 L196.569,18.317625 L198.252,12.938625 L199.7115,12.938625 L201.3945,18.317625 L200.10825,18.317625 L199.7775,17.038875 Z" id="Fill-30" fill="#380A6D" mask="url(#mask-2)"></path>
                <polygon id="Fill-31" fill="#380A6D" mask="url(#mask-2)" points="202.7805 13.9617 201.30375 13.9617 201.30375 12.9387 205.479 12.9387 205.479 13.9617 204.00225 13.9617 204.00225 18.3177 202.7805 18.3177"></polygon>
                <polygon id="Fill-32" fill="#380A6D" mask="url(#mask-2)" points="206.403 12.93855 209.76825 12.93855 209.76825 13.96155 207.615 13.96155 207.615 15.0423 209.44725 15.0423 209.44725 16.05705 207.615 16.05705 207.615 17.29455 209.8515 17.29455 209.8515 18.31755 206.403 18.31755"></polygon>
                <path d="M211.3527,16.80795 C211.5447,16.97295 211.75845,17.1072 211.99245,17.2122 C212.2257,17.31645 212.45595,17.36895 212.68095,17.36895 C212.93295,17.36895 213.12195,17.32245 213.2457,17.2287 C213.36945,17.1357 213.43095,17.00895 213.43095,16.8492 C213.43095,16.76595 213.4137,16.69545 213.3777,16.6347 C213.3417,16.57395 213.28995,16.51995 213.22095,16.47345 C213.15195,16.42695 213.06945,16.38345 212.9742,16.34145 C212.87745,16.3002 212.77245,16.2552 212.6562,16.20495 L211.95495,15.9087 C211.81695,15.85395 211.68345,15.78195 211.5552,15.6942 C211.4262,15.6057 211.30995,15.50295 211.2087,15.3852 C211.1067,15.26595 211.02495,15.1287 210.9642,14.97195 C210.9042,14.8152 210.87345,14.63745 210.87345,14.4402 C210.87345,14.22045 210.9207,14.01195 211.01445,13.81695 C211.1082,13.62195 211.2402,13.45095 211.41045,13.30545 C211.58145,13.15995 211.7832,13.0452 212.01645,12.96345 C212.25045,12.88095 212.5077,12.8397 212.7882,12.8397 C213.1017,12.8397 213.4107,12.8997 213.71595,13.0212 C214.02195,13.14195 214.2897,13.3182 214.52145,13.54845 L213.9012,14.31645 C213.7257,14.17845 213.5502,14.07345 213.37395,13.99845 C213.1977,13.9242 213.00195,13.8867 212.7882,13.8867 C212.57895,13.8867 212.4132,13.92945 212.2887,14.01495 C212.1657,14.10045 212.10345,14.22045 212.10345,14.3742 C212.10345,14.45595 212.1237,14.52645 212.1657,14.5842 C212.20695,14.64195 212.26395,14.69445 212.3382,14.74095 C212.4132,14.7882 212.49945,14.8317 212.59845,14.87295 C212.69745,14.91495 212.8047,14.95995 212.9202,15.00945 L213.6132,15.28995 C213.9432,15.4212 214.20345,15.60345 214.39245,15.83445 C214.58295,16.06545 214.6782,16.3707 214.6782,16.7502 C214.6782,16.97595 214.63245,17.18895 214.5417,17.3892 C214.45095,17.5902 214.31895,17.7657 214.1457,17.9172 C213.9717,18.0687 213.7587,18.18945 213.50595,18.2802 C213.25245,18.37095 212.9667,18.4167 212.64795,18.4167 C212.2962,18.4167 211.9452,18.3522 211.5957,18.22245 C211.2462,18.09345 210.9342,17.8992 210.6597,17.64045 L211.3527,16.80795 Z" id="Fill-33" fill="#380A6D" mask="url(#mask-2)"></path>
                <polygon id="Fill-34" fill="#7A7A7A" mask="url(#mask-2)" points="0.525075 35.655375 1.272075 35.655375 1.272075 40.921125 3.855075 40.921125 3.855075 41.559375 0.525075 41.559375"></polygon>
                <path d="M5.115225,39.38115 C5.115225,39.63315 5.145225,39.8619 5.205225,40.06515 C5.265225,40.2699 5.349975,40.44465 5.461725,40.59165 C5.572725,40.7394 5.706225,40.85265 5.862225,40.93365 C6.018225,41.0154 6.189225,41.05515 6.375225,41.05515 C6.561225,41.05515 6.732225,41.0154 6.888225,40.93365 C7.044225,40.85265 7.177725,40.7394 7.288725,40.59165 C7.399725,40.44465 7.485225,40.2699 7.545225,40.06515 C7.605225,39.8619 7.635225,39.63315 7.635225,39.38115 C7.635225,39.12915 7.605225,38.89965 7.545225,38.69265 C7.485225,38.4864 7.399725,38.30715 7.288725,38.15715 C7.177725,38.00715 7.044225,37.8924 6.888225,37.81065 C6.732225,37.72965 6.561225,37.68915 6.375225,37.68915 C6.189225,37.68915 6.018225,37.72965 5.862225,37.81065 C5.706225,37.8924 5.572725,38.00715 5.461725,38.15715 C5.349975,38.30715 5.265225,38.4864 5.205225,38.69265 C5.145225,38.89965 5.115225,39.12915 5.115225,39.38115 M4.349475,39.38115 C4.349475,39.0159 4.405725,38.68965 4.516725,38.40465 C4.627725,38.11965 4.776225,37.87815 4.962225,37.68015 C5.148225,37.4829 5.362725,37.3329 5.605725,37.23015 C5.848725,37.12815 6.105225,37.0779 6.375225,37.0779 C6.645225,37.0779 6.901725,37.12815 7.144725,37.23015 C7.387725,37.3329 7.601475,37.4829 7.788225,37.68015 C7.974225,37.87815 8.122725,38.11965 8.233725,38.40465 C8.344725,38.68965 8.400225,39.0159 8.400225,39.38115 C8.400225,39.74115 8.344725,40.06365 8.233725,40.34865 C8.122725,40.63365 7.974225,40.87365 7.788225,41.06865 C7.601475,41.2644 7.387725,41.41215 7.144725,41.5149 C6.901725,41.61615 6.645225,41.66715 6.375225,41.66715 C6.105225,41.66715 5.848725,41.61615 5.605725,41.5149 C5.362725,41.41215 5.148225,41.2644 4.962225,41.06865 C4.776225,40.87365 4.627725,40.63365 4.516725,40.34865 C4.405725,40.06365 4.349475,39.74115 4.349475,39.38115" id="Fill-35" fill="#7A7A7A" mask="url(#mask-2)"></path>
                <path d="M8.94945,37.185375 L9.70545,37.185375 L10.35345,39.714375 C10.40145,39.924375 10.44645,40.128375 10.48845,40.326375 C10.5297,40.524375 10.57245,40.725375 10.61445,40.929375 L10.65045,40.929375 C10.69845,40.725375 10.74645,40.522875 10.79445,40.321875 C10.8417,40.120875 10.89345,39.919125 10.94745,39.714375 L11.6217,37.185375 L12.3417,37.185375 L13.02645,39.714375 C13.08045,39.924375 13.1322,40.128375 13.18395,40.326375 C13.23495,40.524375 13.2837,40.725375 13.33245,40.929375 L13.36845,40.929375 C13.41645,40.725375 13.46145,40.524375 13.5027,40.326375 C13.54545,40.128375 13.5897,39.924375 13.63845,39.714375 L14.27745,37.185375 L14.97945,37.185375 L13.8087,41.559375 L12.9087,41.559375 L12.2787,39.210375 C12.2247,39.000375 12.17595,38.794125 12.1302,38.589375 C12.08595,38.386125 12.0357,38.172375 11.98245,37.951125 L11.94645,37.951125 C11.89845,38.172375 11.8497,38.386875 11.80245,38.593875 C11.7537,38.800875 11.70045,39.009375 11.64045,39.219375 L11.0277,41.559375 L10.16445,41.559375 L8.94945,37.185375 Z" id="Fill-36" fill="#7A7A7A" mask="url(#mask-2)"></path>
                <path d="M18.588075,39.048675 C18.588075,38.597925 18.493575,38.254425 18.304575,38.018175 C18.115575,37.781175 17.850075,37.661925 17.508075,37.661925 C17.352075,37.661925 17.202825,37.693425 17.062575,37.756425 C16.921575,37.819425 16.793325,37.909425 16.680075,38.027175 C16.566075,38.144175 16.471575,38.287425 16.396575,38.459175 C16.321575,38.629425 16.272075,38.826675 16.248075,39.048675 L18.588075,39.048675 Z M15.528075,39.380925 C15.528075,39.021675 15.583575,38.699175 15.694575,38.413425 C15.805575,38.128425 15.951825,37.886925 16.134825,37.689675 C16.318575,37.491675 16.527075,37.340175 16.760325,37.235175 C16.995075,37.129425 17.238075,37.077675 17.490075,37.077675 C17.765325,37.077675 18.012825,37.125675 18.232575,37.220925 C18.450825,37.316925 18.634575,37.455675 18.781575,37.634925 C18.928575,37.814925 19.041075,38.031675 19.119075,38.282925 C19.197075,38.534925 19.236075,38.816925 19.236075,39.128925 C19.236075,39.290925 19.227075,39.426675 19.209075,39.533925 L16.257075,39.533925 C16.287075,40.007925 16.432575,40.382925 16.693575,40.658925 C16.954575,40.935675 17.294325,41.072925 17.715075,41.072925 C17.925075,41.072925 18.118575,41.041425 18.295575,40.978425 C18.472575,40.915425 18.642075,40.833675 18.804075,40.731675 L19.065075,41.217675 C18.873075,41.337675 18.660075,41.441925 18.426075,41.532675 C18.192075,41.622675 17.925075,41.666925 17.625075,41.666925 C17.331075,41.666925 17.056575,41.615175 16.801575,41.509425 C16.545825,41.405175 16.323825,41.254425 16.134825,41.060175 C15.946575,40.865175 15.798075,40.626675 15.690075,40.344675 C15.582075,40.062675 15.528075,39.741675 15.528075,39.380925 L15.528075,39.380925 Z" id="Fill-37" fill="#7A7A7A" mask="url(#mask-2)"></path>
                <path d="M20.154,40.56915 C20.346,40.72515 20.5425,40.85115 20.7435,40.94715 C20.9445,41.0439 21.177,41.09115 21.441,41.09115 C21.72975,41.09115 21.945,41.02515 22.089,40.8939 C22.233,40.7619 22.305,40.59915 22.305,40.40715 C22.305,40.2939 22.275,40.19415 22.215,40.1109 C22.155,40.02615 22.0785,39.9534 21.9855,39.8904 C21.8925,39.8274 21.786,39.7719 21.66675,39.72315 C21.546,39.6759 21.426,39.62715 21.306,39.5799 C21.15,39.52515 20.994,39.46365 20.838,39.3954 C20.682,39.3264 20.5425,39.24165 20.4195,39.1434 C20.2965,39.0444 20.196,38.92815 20.118,38.7969 C20.04,38.66415 20.001,38.50515 20.001,38.31915 C20.001,38.1459 20.0355,37.9824 20.10525,37.8294 C20.1735,37.6764 20.2725,37.5444 20.4015,37.43265 C20.5305,37.32165 20.688,37.2354 20.874,37.1724 C21.06,37.1094 21.27,37.0779 21.504,37.0779 C21.78,37.0779 22.0335,37.12515 22.2645,37.22115 C22.4955,37.31715 22.695,37.43415 22.863,37.57215 L22.51275,38.04015 C22.362,37.9269 22.206,37.8339 22.04475,37.76115 C21.882,37.68915 21.705,37.65315 21.513,37.65315 C21.237,37.65315 21.0345,37.71615 20.9055,37.84215 C20.7765,37.96815 20.712,38.1159 20.712,38.28315 C20.712,38.3859 20.739,38.47365 20.79375,38.5494 C20.847,38.62365 20.91975,38.68965 21.009,38.74665 C21.099,38.80365 21.2025,38.85465 21.3195,38.89965 C21.4365,38.94465 21.558,38.99115 21.684,39.03915 C21.84,39.09915 21.9975,39.16215 22.1565,39.22815 C22.3155,39.2949 22.458,39.37665 22.584,39.47565 C22.71,39.57465 22.8135,39.69615 22.8945,39.84015 C22.9755,39.9849 23.016,40.15815 23.016,40.3629 C23.016,40.54215 22.9815,40.71015 22.9125,40.86615 C22.8435,41.02215 22.7415,41.16015 22.60725,41.28015 C22.4715,41.40015 22.3035,41.49465 22.1025,41.56365 C21.9015,41.63265 21.672,41.66715 21.414,41.66715 C21.102,41.66715 20.805,41.6109 20.523,41.49615 C20.241,41.38215 19.995,41.2389 19.785,41.06415 L20.154,40.56915 Z" id="Fill-38" fill="#7A7A7A" mask="url(#mask-2)"></path>
                <path d="M24.123,37.78815 L23.475,37.78815 L23.475,37.23015 L24.159,37.18515 L24.249,35.96115 L24.87,35.96115 L24.87,37.18515 L26.049,37.18515 L26.049,37.78815 L24.87,37.78815 L24.87,40.21815 C24.87,40.4889 24.9195,40.69665 25.0185,40.84365 C25.1175,40.9914 25.293,41.06415 25.545,41.06415 C25.623,41.06415 25.707,41.0529 25.79625,41.02815 C25.887,41.00415 25.968,40.9779 26.04,40.94715 L26.184,41.50515 C26.064,41.5479 25.9335,41.58465 25.7925,41.61765 C25.6515,41.65065 25.512,41.66715 25.374,41.66715 C25.13925,41.66715 24.9435,41.63115 24.7845,41.55915 C24.6255,41.4879 24.4965,41.3889 24.3975,41.26215 C24.2985,41.13615 24.228,40.9839 24.186,40.8039 C24.144,40.62315 24.123,40.4259 24.123,40.2099 L24.123,37.78815 Z" id="Fill-39" fill="#7A7A7A" mask="url(#mask-2)"></path>
                <path d="M28.1367,37.185375 L28.90245,37.185375 L29.7297,39.670125 C29.7957,39.885375 29.8632,40.101375 29.93295,40.317375 C30.0012,40.533375 30.0687,40.746375 30.1347,40.956375 L30.1707,40.956375 C30.2367,40.746375 30.3027,40.533375 30.36945,40.317375 C30.4347,40.101375 30.5007,39.885375 30.5667,39.670125 L31.3947,37.185375 L32.1237,37.185375 L30.5757,41.559375 L29.71245,41.559375 L28.1367,37.185375 Z" id="Fill-40" fill="#7A7A7A" mask="url(#mask-2)"></path>
                <path d="M33.257775,40.371375 C33.257775,40.623375 33.332025,40.803375 33.478275,40.911375 C33.625275,41.019375 33.806775,41.073375 34.023525,41.073375 C34.232775,41.073375 34.432275,41.023875 34.621275,40.924875 C34.810275,40.825875 35.009775,40.680375 35.219775,40.488375 L35.219775,39.273375 C34.853775,39.322125 34.544775,39.378375 34.292775,39.444375 C34.040775,39.511125 33.838275,39.588375 33.685275,39.678375 C33.532275,39.768375 33.422775,39.871875 33.356775,39.988875 C33.290775,40.105875 33.257775,40.233375 33.257775,40.371375 M32.528775,40.425375 C32.528775,39.945375 32.743275,39.577875 33.173025,39.322875 C33.601275,39.067875 34.283775,38.889375 35.219775,38.787375 C35.219775,38.649375 35.207025,38.514375 35.180025,38.382375 C35.152275,38.250375 35.104275,38.133375 35.035275,38.031375 C34.966275,37.929375 34.874775,37.846875 34.760775,37.783875 C34.647525,37.720875 34.499775,37.689375 34.319775,37.689375 C34.061775,37.689375 33.823275,37.737375 33.604275,37.833375 C33.385275,37.929375 33.188775,38.037375 33.015525,38.157375 L32.717775,37.644375 C32.921775,37.512375 33.170775,37.384875 33.464775,37.261875 C33.758775,37.138875 34.083525,37.077375 34.436775,37.077375 C34.970775,37.077375 35.357775,37.240875 35.597775,37.567875 C35.837775,37.894875 35.958525,38.331375 35.958525,38.877375 L35.958525,41.559375 L35.345775,41.559375 L35.282775,41.037375 L35.265525,41.037375 C35.054775,41.211375 34.829025,41.359875 34.586025,41.482875 C34.342275,41.605875 34.085775,41.667375 33.815775,41.667375 C33.443775,41.667375 33.136275,41.559375 32.894025,41.343375 C32.650275,41.127375 32.528775,40.821375 32.528775,40.425375" id="Fill-41" fill="#7A7A7A" mask="url(#mask-2)"></path>
                <path d="M37.308075,35.15145 L38.045325,35.15145 L38.045325,40.73145 C38.045325,40.85145 38.067075,40.93545 38.108325,40.98345 C38.151075,41.03145 38.198325,41.05545 38.253075,41.05545 L38.320575,41.05545 C38.341575,41.05545 38.373075,41.04945 38.415075,41.03745 L38.513325,41.59545 C38.466075,41.61945 38.409075,41.6367 38.343075,41.64945 C38.277075,41.66145 38.193075,41.66745 38.091075,41.66745 C37.809075,41.66745 37.607325,41.58345 37.488075,41.41545 C37.368075,41.24745 37.308075,41.00145 37.308075,40.67745 L37.308075,35.15145 Z" id="Fill-42" fill="#7A7A7A" mask="url(#mask-2)"></path>
                <path d="M39.494325,37.185375 L40.241325,37.185375 L40.241325,39.858375 C40.241325,40.272375 40.305825,40.570875 40.434825,40.753875 C40.564575,40.936875 40.772325,41.028375 41.060325,41.028375 C41.289075,41.028375 41.489325,40.969875 41.664075,40.852875 C41.837325,40.735875 42.029325,40.548375 42.239325,40.290375 L42.239325,37.185375 L42.978075,37.185375 L42.978075,41.559375 L42.365325,41.559375 L42.302325,40.875375 L42.275325,40.875375 C42.072075,41.115375 41.856825,41.307375 41.632575,41.451375 C41.407575,41.595375 41.141325,41.667375 40.835325,41.667375 C40.367325,41.667375 40.026825,41.523375 39.814575,41.235375 C39.601575,40.947375 39.494325,40.521375 39.494325,39.957375 L39.494325,37.185375 Z" id="Fill-43" fill="#7A7A7A" mask="url(#mask-2)"></path>
                <path d="M47.144475,39.048675 C47.144475,38.597925 47.049975,38.254425 46.860975,38.018175 C46.671975,37.781175 46.407225,37.661925 46.065225,37.661925 C45.909225,37.661925 45.759975,37.693425 45.619725,37.756425 C45.477975,37.819425 45.350475,37.909425 45.236475,38.027175 C45.123225,38.144175 45.028725,38.287425 44.952975,38.459175 C44.878725,38.629425 44.828475,38.826675 44.805225,39.048675 L47.144475,39.048675 Z M44.084475,39.380925 C44.084475,39.021675 44.139975,38.699175 44.251725,38.413425 C44.361975,38.128425 44.508975,37.886925 44.691975,37.689675 C44.875725,37.491675 45.083475,37.340175 45.317475,37.235175 C45.551475,37.129425 45.794475,37.077675 46.046475,37.077675 C46.322475,37.077675 46.569975,37.125675 46.788975,37.220925 C47.007975,37.316925 47.190975,37.455675 47.338725,37.634925 C47.484975,37.814925 47.597475,38.031675 47.675475,38.282925 C47.753475,38.534925 47.792475,38.816925 47.792475,39.128925 C47.792475,39.290925 47.784225,39.426675 47.765475,39.533925 L44.814225,39.533925 C44.844225,40.007925 44.988975,40.382925 45.250725,40.658925 C45.510975,40.935675 45.851475,41.072925 46.271475,41.072925 C46.481475,41.072925 46.674975,41.041425 46.851975,40.978425 C47.029725,40.915425 47.198475,40.833675 47.360475,40.731675 L47.622225,41.217675 C47.429475,41.337675 47.217225,41.441925 46.982475,41.532675 C46.749225,41.622675 46.481475,41.666925 46.182225,41.666925 C45.887475,41.666925 45.612975,41.615175 45.357975,41.509425 C45.102975,41.405175 44.880975,41.254425 44.691975,41.060175 C44.503725,40.865175 44.354475,40.626675 44.247225,40.344675 C44.138475,40.062675 44.084475,39.741675 44.084475,39.380925 L44.084475,39.380925 Z" id="Fill-44" fill="#7A7A7A" mask="url(#mask-2)"></path>
                <path d="M48.7104,40.56915 C48.9024,40.72515 49.0989,40.85115 49.2999,40.94715 C49.5009,41.0439 49.7334,41.09115 49.9974,41.09115 C50.28615,41.09115 50.5014,41.02515 50.6454,40.8939 C50.7894,40.7619 50.8614,40.59915 50.8614,40.40715 C50.8614,40.2939 50.8314,40.19415 50.7714,40.1109 C50.7114,40.02615 50.6349,39.9534 50.5419,39.8904 C50.4489,39.8274 50.3424,39.7719 50.22315,39.72315 C50.1024,39.6759 49.9824,39.62715 49.8624,39.5799 C49.7064,39.52515 49.5504,39.46365 49.3944,39.3954 C49.2384,39.3264 49.0989,39.24165 48.9759,39.1434 C48.8529,39.0444 48.7524,38.92815 48.6744,38.7969 C48.5964,38.66415 48.5574,38.50515 48.5574,38.31915 C48.5574,38.1459 48.5919,37.9824 48.66165,37.8294 C48.7299,37.6764 48.8289,37.5444 48.9579,37.43265 C49.0869,37.32165 49.2444,37.2354 49.4304,37.1724 C49.6164,37.1094 49.8264,37.0779 50.0604,37.0779 C50.3364,37.0779 50.5899,37.12515 50.8209,37.22115 C51.0519,37.31715 51.2514,37.43415 51.4194,37.57215 L51.06915,38.04015 C50.9184,37.9269 50.7624,37.8339 50.60115,37.76115 C50.4384,37.68915 50.2614,37.65315 50.0694,37.65315 C49.7934,37.65315 49.5909,37.71615 49.4619,37.84215 C49.3329,37.96815 49.2684,38.1159 49.2684,38.28315 C49.2684,38.3859 49.2954,38.47365 49.35015,38.5494 C49.4034,38.62365 49.47615,38.68965 49.5654,38.74665 C49.6554,38.80365 49.7589,38.85465 49.8759,38.89965 C49.9929,38.94465 50.1144,38.99115 50.2404,39.03915 C50.3964,39.09915 50.5539,39.16215 50.7129,39.22815 C50.8719,39.2949 51.0144,39.37665 51.1404,39.47565 C51.2664,39.57465 51.3699,39.69615 51.4509,39.84015 C51.5319,39.9849 51.5724,40.15815 51.5724,40.3629 C51.5724,40.54215 51.5379,40.71015 51.4689,40.86615 C51.3999,41.02215 51.2979,41.16015 51.16365,41.28015 C51.0279,41.40015 50.8599,41.49465 50.6589,41.56365 C50.4579,41.63265 50.2284,41.66715 49.9704,41.66715 C49.6584,41.66715 49.3614,41.6109 49.0794,41.49615 C48.7974,41.38215 48.5514,41.2389 48.3414,41.06415 L48.7104,40.56915 Z" id="Fill-45" fill="#7A7A7A" mask="url(#mask-2)"></path>
                <polygon id="Fill-46" fill="#7A7A7A" mask="url(#mask-2)" points="164.307825 34.155375 165.054825 34.155375 165.054825 36.630375 167.799825 36.630375 167.799825 34.155375 168.555825 34.155375 168.555825 40.059375 167.799825 40.059375 167.799825 37.278375 165.054825 37.278375 165.054825 40.059375 164.307825 40.059375"></polygon>
                <path d="M170.05875,40.059 L170.79675,40.059 L170.79675,35.685 L170.05875,35.685 L170.05875,40.059 Z M170.43675,34.785 C170.2935,34.785 170.17125,34.74075 170.07225,34.65075 C169.974,34.56 169.92375,34.44675 169.92375,34.30875 C169.92375,34.164 169.974,34.04925 170.07225,33.96225 C170.17125,33.8745 170.2935,33.83175 170.43675,33.83175 C170.58075,33.83175 170.7015,33.8745 170.80125,33.96225 C170.90025,34.04925 170.94975,34.164 170.94975,34.30875 C170.94975,34.44675 170.90025,34.56 170.80125,34.65075 C170.7015,34.74075 170.58075,34.785 170.43675,34.785 L170.43675,34.785 Z" id="Fill-47" fill="#7A7A7A" mask="url(#mask-2)"></path>
                <path d="M173.70405,38.178525 C173.83005,38.178525 173.9478,38.154525 174.05955,38.106525 C174.17055,38.058525 174.26955,37.989525 174.35655,37.899525 C174.4428,37.809525 174.5103,37.700025 174.55905,37.570275 C174.60705,37.442025 174.6303,37.296525 174.6303,37.133775 C174.6303,36.810525 174.54105,36.560025 174.36105,36.382275 C174.18105,36.206025 173.96205,36.117525 173.70405,36.117525 C173.4453,36.117525 173.22705,36.206025 173.04705,36.382275 C172.86705,36.560025 172.77705,36.810525 172.77705,37.133775 C172.77705,37.296525 172.80105,37.442025 172.84905,37.570275 C172.89705,37.700025 172.96455,37.809525 173.05155,37.899525 C173.1378,37.989525 173.23755,38.058525 173.34855,38.106525 C173.45955,38.154525 173.57805,38.178525 173.70405,38.178525 M172.54305,40.797525 C172.54305,41.031525 172.6563,41.217525 172.8798,41.354775 C173.10555,41.493525 173.41605,41.562525 173.81205,41.562525 C174.02205,41.562525 174.21255,41.537025 174.3828,41.486025 C174.55455,41.435025 174.6993,41.369025 174.8193,41.288025 C174.9393,41.207025 175.0323,41.112525 175.09905,41.004525 C175.16505,40.896525 175.1973,40.785525 175.1973,40.671525 C175.1973,40.467525 175.12305,40.325775 174.97305,40.248525 C174.8223,40.169775 174.60405,40.131525 174.3153,40.131525 L173.56005,40.131525 C173.47605,40.131525 173.3838,40.127025 173.28555,40.118025 C173.18655,40.109025 173.08905,40.089525 172.99305,40.059525 C172.83705,40.173525 172.72305,40.292775 172.65105,40.419525 C172.57905,40.545525 172.54305,40.671525 172.54305,40.797525 M171.89505,40.896525 C171.89505,40.710525 171.9513,40.533525 172.0653,40.365525 C172.18005,40.196775 172.33605,40.044525 172.53405,39.906525 L172.53405,39.870525 C172.42605,39.804525 172.33455,39.713025 172.2588,39.596025 C172.18455,39.478275 172.14705,39.333525 172.14705,39.159525 C172.14705,38.973525 172.1973,38.811525 172.30005,38.673525 C172.40205,38.535525 172.5093,38.427525 172.62405,38.349525 L172.62405,38.313525 C172.48005,38.193525 172.34955,38.033025 172.23255,37.832025 C172.11555,37.631025 172.05705,37.398525 172.05705,37.133775 C172.05705,36.894525 172.10055,36.678525 172.18755,36.486525 C172.27455,36.294525 172.39305,36.131025 172.54305,35.996025 C172.6923,35.861025 172.86855,35.756775 173.0688,35.685525 C173.27055,35.613525 173.48205,35.577525 173.70405,35.577525 C173.8233,35.577525 173.93655,35.588025 174.04155,35.609025 C174.14655,35.630025 174.24105,35.655525 174.3243,35.685525 L175.84605,35.685525 L175.84605,36.252525 L174.9453,36.252525 C175.04805,36.354525 175.1328,36.483525 175.20255,36.639525 C175.27155,36.795525 175.30605,36.966525 175.30605,37.152525 C175.30605,37.385775 175.2633,37.598025 175.18005,37.787025 C175.09605,37.975275 174.98205,38.134275 174.83805,38.264025 C174.6933,38.393025 174.52455,38.493525 174.32955,38.565525 C174.1338,38.636775 173.92605,38.673525 173.70405,38.673525 C173.59605,38.673525 173.48505,38.660025 173.37105,38.632275 C173.2563,38.605275 173.14905,38.568525 173.04705,38.520525 C172.9698,38.586525 172.90305,38.660025 172.84905,38.741025 C172.79505,38.821275 172.76805,38.922525 172.76805,39.041775 C172.76805,39.180525 172.8213,39.294525 172.93005,39.383775 C173.03805,39.474525 173.24205,39.519525 173.54205,39.519525 L174.3873,39.519525 C174.89805,39.519525 175.28055,39.601275 175.53555,39.767025 C175.79055,39.932025 175.91805,40.196775 175.91805,40.563525 C175.91805,40.767525 175.86705,40.961025 175.76505,41.144025 C175.66305,41.326275 175.51605,41.487525 175.3233,41.625525 C175.1313,41.762775 174.89955,41.873025 174.6258,41.954025 C174.35355,42.035025 174.04605,42.075525 173.70405,42.075525 C173.43405,42.075525 173.18805,42.050025 172.96605,41.999025 C172.74405,41.947275 172.55355,41.871525 172.39455,41.769525 C172.23555,41.666775 172.11255,41.544525 172.02555,41.400525 C171.93855,41.256525 171.89505,41.088525 171.89505,40.896525" id="Fill-48" fill="#7A7A7A" mask="url(#mask-2)"></path>
                <path d="M176.71875,33.65145 L177.456,33.65145 L177.456,35.39745 L177.42975,36.29745 C177.63975,36.09945 177.8595,35.92995 178.08675,35.78895 C178.31475,35.64795 178.581,35.57745 178.88775,35.57745 C179.34975,35.57745 179.68725,35.72145 179.90025,36.00945 C180.11325,36.29745 180.21975,36.72345 180.21975,37.28745 L180.21975,40.05945 L179.4825,40.05945 L179.4825,37.3857 C179.4825,36.97245 179.4165,36.67395 179.28375,36.49095 C179.15175,36.30795 178.94175,36.21645 178.65375,36.21645 C178.42575,36.21645 178.22475,36.27345 178.05075,36.3867 C177.87675,36.50145 177.67875,36.66945 177.456,36.89145 L177.456,40.05945 L176.71875,40.05945 L176.71875,33.65145 Z" id="Fill-49" fill="#7A7A7A" mask="url(#mask-2)"></path>
                <path d="M184.3059,37.548675 C184.3059,37.097925 184.2114,36.754425 184.0224,36.518175 C183.8334,36.281175 183.5679,36.161925 183.22665,36.161925 C183.0699,36.161925 182.9214,36.193425 182.78115,36.256425 C182.6394,36.319425 182.51115,36.409425 182.3979,36.527175 C182.28465,36.644175 182.1894,36.787425 182.1144,36.959175 C182.04015,37.129425 181.9899,37.326675 181.96665,37.548675 L184.3059,37.548675 Z M181.2459,37.880925 C181.2459,37.521675 181.3014,37.199175 181.41315,36.913425 C181.5234,36.628425 181.6704,36.386925 181.8534,36.189675 C182.03715,35.991675 182.2449,35.840175 182.4789,35.735175 C182.7129,35.629425 182.9559,35.577675 183.2079,35.577675 C183.4839,35.577675 183.7314,35.625675 183.9504,35.720925 C184.1694,35.816925 184.3524,35.955675 184.4994,36.134925 C184.6464,36.314925 184.7589,36.531675 184.8369,36.782925 C184.9149,37.034925 184.9539,37.316925 184.9539,37.628925 C184.9539,37.790925 184.9449,37.926675 184.9269,38.033925 L181.97565,38.033925 C182.0049,38.507925 182.1504,38.882925 182.41215,39.158925 C182.6724,39.435675 183.01215,39.572925 183.4329,39.572925 C183.6429,39.572925 183.8364,39.541425 184.0134,39.478425 C184.1904,39.415425 184.3599,39.333675 184.5219,39.231675 L184.78365,39.717675 C184.5909,39.837675 184.3779,39.941925 184.1439,40.032675 C183.91065,40.122675 183.6429,40.166925 183.34365,40.166925 C183.0489,40.166925 182.7744,40.115175 182.5194,40.009425 C182.26365,39.905175 182.0424,39.754425 181.8534,39.560175 C181.66515,39.365175 181.5159,39.126675 181.40865,38.844675 C181.2999,38.562675 181.2459,38.241675 181.2459,37.880925 L181.2459,37.880925 Z" id="Fill-50" fill="#7A7A7A" mask="url(#mask-2)"></path>
                <path d="M185.871825,39.06915 C186.063825,39.22515 186.260325,39.35115 186.460575,39.44715 C186.662325,39.5439 186.894075,39.59115 187.158825,39.59115 C187.446825,39.59115 187.662825,39.52515 187.806825,39.3939 C187.950075,39.2619 188.022075,39.09915 188.022075,38.90715 C188.022075,38.7939 187.992825,38.69415 187.932825,38.6109 C187.872825,38.52615 187.796325,38.4534 187.702575,38.3904 C187.610325,38.3274 187.503825,38.2719 187.383825,38.22315 C187.263075,38.1759 187.143075,38.12715 187.023075,38.0799 C186.867825,38.02515 186.711075,37.96365 186.555825,37.8954 C186.399075,37.8264 186.260325,37.74165 186.137325,37.6434 C186.013575,37.5444 185.913825,37.42815 185.835075,37.2969 C185.757825,37.16415 185.718825,37.00515 185.718825,36.81915 C185.718825,36.6459 185.753325,36.4824 185.822325,36.3294 C185.890575,36.1764 185.990325,36.0444 186.119325,35.93265 C186.248325,35.82165 186.405825,35.7354 186.591825,35.6724 C186.777075,35.6094 186.987825,35.5779 187.221825,35.5779 C187.497825,35.5779 187.751325,35.62515 187.982325,35.72115 C188.212575,35.81715 188.412825,35.93415 188.580075,36.07215 L188.230575,36.54015 C188.079075,36.4269 187.923825,36.3339 187.761825,36.26115 C187.599825,36.18915 187.422825,36.15315 187.230825,36.15315 C186.954075,36.15315 186.752325,36.21615 186.623325,36.34215 C186.494325,36.46815 186.429825,36.6159 186.429825,36.78315 C186.429825,36.8859 186.456075,36.97365 186.510825,37.0494 C186.564825,37.12365 186.636825,37.18965 186.726825,37.24665 C186.816825,37.30365 186.920325,37.35465 187.037325,37.39965 C187.154325,37.44465 187.275825,37.49115 187.401825,37.53915 C187.557825,37.59915 187.715325,37.66215 187.874325,37.72815 C188.033325,37.7949 188.175825,37.87665 188.301825,37.97565 C188.427825,38.07465 188.531325,38.19615 188.612325,38.34015 C188.693325,38.4849 188.733825,38.65815 188.733825,38.8629 C188.733825,39.04215 188.699325,39.21015 188.630325,39.36615 C188.561325,39.52215 188.458575,39.66015 188.324325,39.78015 C188.189325,39.90015 188.020575,39.99465 187.820325,40.06365 C187.619325,40.13265 187.389075,40.16715 187.131825,40.16715 C186.819825,40.16715 186.522075,40.1109 186.240825,39.99615 C185.958075,39.88215 185.712075,39.7389 185.502825,39.56415 L185.871825,39.06915 Z" id="Fill-51" fill="#7A7A7A" mask="url(#mask-2)"></path>
                <path d="M189.840075,36.28815 L189.192825,36.28815 L189.192825,35.73015 L189.876825,35.68515 L189.966075,34.46115 L190.587075,34.46115 L190.587075,35.68515 L191.766075,35.68515 L191.766075,36.28815 L190.587075,36.28815 L190.587075,38.71815 C190.587075,38.9889 190.636575,39.19665 190.736325,39.34365 C190.834575,39.4914 191.010825,39.56415 191.262075,39.56415 C191.340075,39.56415 191.424825,39.5529 191.514075,39.52815 C191.604825,39.50415 191.685825,39.4779 191.757825,39.44715 L191.901075,40.00515 C191.781075,40.0479 191.650575,40.08465 191.510325,40.11765 C191.369325,40.15065 191.229825,40.16715 191.091075,40.16715 C190.857075,40.16715 190.661325,40.13115 190.502325,40.05915 C190.342575,39.9879 190.213575,39.8889 190.115325,39.76215 C190.015575,39.63615 189.945825,39.4839 189.903075,39.3039 C189.861825,39.12315 189.840075,38.9259 189.840075,38.7099 L189.840075,36.28815 Z" id="Fill-52" fill="#7A7A7A" mask="url(#mask-2)"></path>
                <path d="M193.85445,35.685375 L194.6202,35.685375 L195.44745,38.170125 C195.51345,38.385375 195.58095,38.601375 195.64995,38.817375 C195.7182,39.033375 195.7857,39.246375 195.85245,39.456375 L195.88845,39.456375 C195.95445,39.246375 196.02045,39.033375 196.08645,38.817375 C196.1517,38.601375 196.2177,38.385375 196.2837,38.170125 L197.11245,35.685375 L197.8407,35.685375 L196.29345,40.059375 L195.4302,40.059375 L193.85445,35.685375 Z" id="Fill-53" fill="#7A7A7A" mask="url(#mask-2)"></path>
                <path d="M198.975525,38.871375 C198.975525,39.123375 199.049775,39.303375 199.196025,39.411375 C199.342275,39.519375 199.523775,39.573375 199.741275,39.573375 C199.950525,39.573375 200.149275,39.523875 200.338275,39.424875 C200.527275,39.325875 200.727525,39.180375 200.937525,38.988375 L200.937525,37.773375 C200.571525,37.822125 200.262525,37.878375 200.010525,37.944375 C199.758525,38.011125 199.556025,38.088375 199.402275,38.178375 C199.250025,38.268375 199.140525,38.371875 199.074525,38.488875 C199.008525,38.605875 198.975525,38.733375 198.975525,38.871375 M198.246525,38.925375 C198.246525,38.445375 198.460275,38.077875 198.890025,37.822875 C199.319025,37.567875 200.001525,37.389375 200.937525,37.287375 C200.937525,37.149375 200.924775,37.014375 200.897025,36.882375 C200.870025,36.750375 200.822025,36.633375 200.753025,36.531375 C200.684025,36.429375 200.591775,36.346875 200.478525,36.283875 C200.365275,36.220875 200.217525,36.189375 200.037525,36.189375 C199.778775,36.189375 199.541025,36.237375 199.322025,36.333375 C199.103025,36.429375 198.906525,36.537375 198.733275,36.657375 L198.435525,36.144375 C198.639525,36.012375 198.888525,35.884875 199.182525,35.761875 C199.476525,35.638875 199.801275,35.577375 200.154525,35.577375 C200.688525,35.577375 201.075525,35.740875 201.315525,36.067875 C201.555525,36.394875 201.676275,36.831375 201.676275,37.377375 L201.676275,40.059375 L201.063525,40.059375 L201.000525,39.537375 L200.983275,39.537375 C200.772525,39.711375 200.546775,39.859875 200.303775,39.982875 C200.060025,40.105875 199.803525,40.167375 199.533525,40.167375 C199.161525,40.167375 198.854025,40.059375 198.611775,39.843375 C198.368025,39.627375 198.246525,39.321375 198.246525,38.925375" id="Fill-54" fill="#7A7A7A" mask="url(#mask-2)"></path>
                <path d="M203.025075,33.65145 L203.763075,33.65145 L203.763075,39.23145 C203.763075,39.35145 203.784825,39.43545 203.826075,39.48345 C203.868825,39.53145 203.916075,39.55545 203.970825,39.55545 L204.038325,39.55545 C204.059325,39.55545 204.090075,39.54945 204.132825,39.53745 L204.231075,40.09545 C204.183825,40.11945 204.126825,40.1367 204.060825,40.14945 C203.994825,40.16145 203.910825,40.16745 203.808825,40.16745 C203.526075,40.16745 203.325075,40.08345 203.205075,39.91545 C203.085075,39.74745 203.025075,39.50145 203.025075,39.17745 L203.025075,33.65145 Z" id="Fill-55" fill="#7A7A7A" mask="url(#mask-2)"></path>
                <path d="M205.212075,35.685375 L205.959075,35.685375 L205.959075,38.358375 C205.959075,38.772375 206.023575,39.070875 206.152575,39.253875 C206.282325,39.436875 206.490825,39.528375 206.778075,39.528375 C207.006825,39.528375 207.207075,39.469875 207.381825,39.352875 C207.555825,39.235875 207.747825,39.048375 207.957075,38.790375 L207.957075,35.685375 L208.695825,35.685375 L208.695825,40.059375 L208.083075,40.059375 L208.020075,39.375375 L207.993825,39.375375 C207.789825,39.615375 207.574575,39.807375 207.350325,39.951375 C207.125325,40.095375 206.859825,40.167375 206.553825,40.167375 C206.085075,40.167375 205.745325,40.023375 205.532325,39.735375 C205.319325,39.447375 205.212075,39.021375 205.212075,38.457375 L205.212075,35.685375 Z" id="Fill-56" fill="#7A7A7A" mask="url(#mask-2)"></path>
                <path d="M212.862225,37.548675 C212.862225,37.097925 212.767725,36.754425 212.578725,36.518175 C212.389725,36.281175 212.124975,36.161925 211.782225,36.161925 C211.626975,36.161925 211.476975,36.193425 211.336725,36.256425 C211.195725,36.319425 211.068225,36.409425 210.954225,36.527175 C210.840225,36.644175 210.746475,36.787425 210.670725,36.959175 C210.595725,37.129425 210.546225,37.326675 210.522225,37.548675 L212.862225,37.548675 Z M209.802225,37.880925 C209.802225,37.521675 209.857725,37.199175 209.968725,36.913425 C210.079725,36.628425 210.225975,36.386925 210.408975,36.189675 C210.592725,35.991675 210.801225,35.840175 211.034475,35.735175 C211.269225,35.629425 211.512225,35.577675 211.764225,35.577675 C212.039475,35.577675 212.286975,35.625675 212.506725,35.720925 C212.724975,35.816925 212.908725,35.955675 213.056475,36.134925 C213.202725,36.314925 213.315225,36.531675 213.393225,36.782925 C213.471225,37.034925 213.510225,37.316925 213.510225,37.628925 C213.510225,37.790925 213.501975,37.926675 213.483225,38.033925 L210.531225,38.033925 C210.561975,38.507925 210.706725,38.882925 210.967725,39.158925 C211.228725,39.435675 211.569225,39.572925 211.989225,39.572925 C212.199225,39.572925 212.392725,39.541425 212.569725,39.478425 C212.747475,39.415425 212.916225,39.333675 213.078225,39.231675 L213.339225,39.717675 C213.147225,39.837675 212.934975,39.941925 212.700225,40.032675 C212.466225,40.122675 212.199225,40.166925 211.899225,40.166925 C211.605225,40.166925 211.330725,40.115175 211.075725,40.009425 C210.820725,39.905175 210.597975,39.754425 210.408975,39.560175 C210.220725,39.365175 210.072225,39.126675 209.964225,38.844675 C209.856225,38.562675 209.802225,38.241675 209.802225,37.880925 L209.802225,37.880925 Z" id="Fill-57" fill="#7A7A7A" mask="url(#mask-2)"></path>
                <path d="M214.4289,39.06915 C214.6209,39.22515 214.8174,39.35115 215.01765,39.44715 C215.21865,39.5439 215.45115,39.59115 215.71515,39.59115 C216.0039,39.59115 216.21915,39.52515 216.3639,39.3939 C216.50715,39.2619 216.57915,39.09915 216.57915,38.90715 C216.57915,38.7939 216.54915,38.69415 216.4899,38.6109 C216.4299,38.52615 216.35265,38.4534 216.25965,38.3904 C216.16665,38.3274 216.0609,38.2719 215.9409,38.22315 C215.82015,38.1759 215.70015,38.12715 215.58015,38.0799 C215.42415,38.02515 215.26815,37.96365 215.1129,37.8954 C214.95615,37.8264 214.8174,37.74165 214.6944,37.6434 C214.57065,37.5444 214.47015,37.42815 214.39215,37.2969 C214.3149,37.16415 214.27515,37.00515 214.27515,36.81915 C214.27515,36.6459 214.3104,36.4824 214.3794,36.3294 C214.44765,36.1764 214.54665,36.0444 214.6764,35.93265 C214.8054,35.82165 214.96215,35.7354 215.14815,35.6724 C215.33415,35.6094 215.54415,35.5779 215.77815,35.5779 C216.0549,35.5779 216.3084,35.62515 216.53865,35.72115 C216.76965,35.81715 216.96915,35.93415 217.13715,36.07215 L216.7869,36.54015 C216.63615,36.4269 216.48015,36.3339 216.3189,36.26115 C216.15615,36.18915 215.97915,36.15315 215.7879,36.15315 C215.51115,36.15315 215.3094,36.21615 215.1804,36.34215 C215.05065,36.46815 214.98615,36.6159 214.98615,36.78315 C214.98615,36.8859 215.01315,36.97365 215.0679,37.0494 C215.1219,37.12365 215.1939,37.18965 215.28315,37.24665 C215.3739,37.30365 215.47665,37.35465 215.59365,37.39965 C215.71065,37.44465 215.83215,37.49115 215.95815,37.53915 C216.1149,37.59915 216.27165,37.66215 216.4314,37.72815 C216.58965,37.7949 216.73215,37.87665 216.85815,37.97565 C216.98415,38.07465 217.08765,38.19615 217.16865,38.34015 C217.2504,38.4849 217.29015,38.65815 217.29015,38.8629 C217.29015,39.04215 217.2564,39.21015 217.1874,39.36615 C217.1184,39.52215 217.01565,39.66015 216.8814,39.78015 C216.7464,39.90015 216.57765,39.99465 216.3774,40.06365 C216.17565,40.13265 215.94615,40.16715 215.6889,40.16715 C215.3769,40.16715 215.07915,40.1109 214.79715,39.99615 C214.51515,39.88215 214.26915,39.7389 214.0599,39.56415 L214.4289,39.06915 Z" id="Fill-58" fill="#7A7A7A" mask="url(#mask-2)"></path>
                <line x1="0.2973" y1="30.5181" x2="0.2973" y2="29.6271" id="Stroke-59" stroke="#AAAAAA" stroke-width="0.594" stroke-linecap="round" mask="url(#mask-2)"></line>
                <line x1="0.2973" y1="27.7305" x2="0.2973" y2="2.136" id="Stroke-60" stroke="#AAAAAA" stroke-width="0.594" stroke-linecap="round" stroke-dasharray="1.8960000872612,1.8960000872612" mask="url(#mask-2)"></line>
                <line x1="0.2973" y1="1.1883" x2="0.2973" y2="0.2973" id="Stroke-61" stroke="#AAAAAA" stroke-width="0.594" stroke-linecap="round" mask="url(#mask-2)"></line>
                <line x1="44.7312" y1="30.5181" x2="44.7312" y2="29.6271" id="Stroke-62" stroke="#AAAAAA" stroke-width="0.594" stroke-linecap="round" mask="url(#mask-2)"></line>
                <line x1="44.7312" y1="27.7305" x2="44.7312" y2="2.136" id="Stroke-63" stroke="#AAAAAA" stroke-width="0.594" stroke-linecap="round" stroke-dasharray="1.8960000872612,1.8960000872612" mask="url(#mask-2)"></line>
                <line x1="44.7312" y1="1.1883" x2="44.7312" y2="0.2973" id="Stroke-64" stroke="#AAAAAA" stroke-width="0.594" stroke-linecap="round" mask="url(#mask-2)"></line>
                <line x1="142.0437" y1="30.5181" x2="142.0437" y2="29.6271" id="Stroke-65" stroke="#AAAAAA" stroke-width="0.594" stroke-linecap="round" mask="url(#mask-2)"></line>
                <line x1="142.0437" y1="27.7305" x2="142.0437" y2="2.136" id="Stroke-66" stroke="#AAAAAA" stroke-width="0.594" stroke-linecap="round" stroke-dasharray="1.8960000872612,1.8960000872612" mask="url(#mask-2)"></line>
                <line x1="142.0437" y1="1.1883" x2="142.0437" y2="0.2973" id="Stroke-67" stroke="#AAAAAA" stroke-width="0.594" stroke-linecap="round" mask="url(#mask-2)"></line>
            </g>
        </g>
    </g>
</svg>