<?xml version="1.0" encoding="UTF-8"?>
<svg width="303px" height="69px" viewBox="0 0 303 69" version="1.1" xmlns="http://www.w3.org/2000/svg" xmlns:xlink="http://www.w3.org/1999/xlink">
    <!-- Generator: Sketch 59.1 (86144) - https://sketch.com -->
    <title>Group 578</title>
    <desc>Created with Sketch.</desc>
    <defs>
        <polygon id="path-1" points="0 69 302.3025 69 302.3025 0.741 0 0.741"></polygon>
    </defs>
    <g id="Desktop" stroke="none" stroke-width="1" fill="none" fill-rule="evenodd">
        <g id="Homelessness-Section-3-8" transform="translate(-846.000000, -1763.000000)">
            <g id="Group-57" transform="translate(846.000000, 1763.000000)">
                <polygon id="Fill-1" fill="#E0E0E0" points="2.21175 31.598775 299.21175 31.598775 299.21175 21.848775 2.21175 21.848775"></polygon>
                <line x1="2.2119" y1="39.603525" x2="2.2119" y2="13.353525" id="Stroke-2" stroke="#D1D1D1" stroke-width="0.75" stroke-linecap="round"></line>
                <line x1="76.4619" y1="39.47385" x2="76.4619" y2="13.22385" id="Stroke-3" stroke="#D1D1D1" stroke-width="0.75" stroke-linecap="round"></line>
                <line x1="150.7119" y1="39.603525" x2="150.7119" y2="13.353525" id="Stroke-4" stroke="#D1D1D1" stroke-width="0.75" stroke-linecap="round"></line>
                <line x1="224.9619" y1="39.603525" x2="224.9619" y2="13.353525" id="Stroke-5" stroke="#D1D1D1" stroke-width="0.75" stroke-linecap="round"></line>
                <g id="Group-56" transform="translate(0.000000, 0.008775)">
                    <path d="M266.9619,35.340075 L89.2119,35.340075 C87.1494,35.340075 85.4619,33.652575 85.4619,31.590075 L85.4619,21.840075 C85.4619,19.777575 87.1494,18.090075 89.2119,18.090075 L266.9619,18.090075 C269.0244,18.090075 270.7119,19.777575 270.7119,21.840075 L270.7119,31.590075 C270.7119,33.652575 269.0244,35.340075 266.9619,35.340075" id="Fill-6" fill="#D5E8AA"></path>
                    <path d="M153.645975,36.840075 L91.584225,36.840075 C89.826975,36.840075 88.389225,35.402325 88.389225,33.645075 L88.389225,19.785075 C88.389225,18.027825 89.826975,16.590075 91.584225,16.590075 L153.645975,16.590075 C155.403225,16.590075 156.840975,18.027825 156.840975,19.785075 L156.840975,33.645075 C156.840975,35.402325 155.403225,36.840075 153.645975,36.840075" id="Fill-8" fill="#789E25"></path>
                    <path d="M83.289525,64.43265 C83.289525,63.8724 83.371275,63.37065 83.536275,62.9259 C83.700525,62.48115 83.926275,62.10465 84.212775,61.7964 C84.500025,61.4889 84.836775,61.2549 85.221525,61.09365 C85.606275,60.9324 86.019525,60.85215 86.460525,60.85215 C86.880525,60.85215 87.256275,60.9399 87.588525,61.11465 C87.921525,61.29015 88.196025,61.49265 88.413525,61.72365 L87.731025,62.47965 C87.555525,62.3049 87.368025,62.1669 87.169275,62.0649 C86.969025,61.96365 86.737275,61.91265 86.471025,61.91265 C86.183775,61.91265 85.923525,61.9704 85.688025,62.0859 C85.454025,62.20065 85.250775,62.36565 85.079775,62.57865 C84.908025,62.7924 84.774525,63.0534 84.680025,63.36165 C84.586275,63.66915 84.539025,64.01565 84.539025,64.40115 C84.539025,65.1849 84.708525,65.79915 85.048275,66.2439 C85.387275,66.68865 85.847775,66.91065 86.429025,66.91065 C86.737275,66.91065 87.004275,66.8514 87.232275,66.7314 C87.459525,66.6129 87.671775,66.44565 87.867525,66.22815 L88.550025,66.97365 C88.270275,67.2954 87.951525,67.54215 87.593775,67.7139 C87.237525,67.88565 86.841525,67.97115 86.408025,67.97115 C85.966275,67.97115 85.556775,67.8939 85.179525,67.74015 C84.801525,67.5864 84.472275,67.3584 84.192525,67.05765 C83.912025,66.7569 83.691525,66.38565 83.530275,65.94465 C83.369025,65.50365 83.289525,64.99965 83.289525,64.43265" id="Fill-10" fill="#3F3F3F"></path>
                    <polygon id="Fill-12" fill="#3F3F3F" points="89.484375 60.977775 90.702375 60.977775 90.702375 66.815775 93.558375 66.815775 93.558375 67.844775 89.484375 67.844775"></polygon>
                    <path d="M94.16745,60.977775 L95.38545,60.977775 L95.38545,64.926525 C95.38545,65.297025 95.41845,65.610525 95.4852,65.866275 C95.55195,66.121275 95.64645,66.326025 95.7687,66.479775 C95.89095,66.634275 96.0357,66.743775 96.20445,66.810525 C96.3717,66.877275 96.5607,66.910275 96.77145,66.910275 C96.98145,66.910275 97.17345,66.877275 97.3482,66.810525 C97.5237,66.743775 97.67445,66.634275 97.80045,66.479775 C97.92645,66.326025 98.0247,66.121275 98.0937,65.866275 C98.1642,65.610525 98.19945,65.297025 98.19945,64.926525 L98.19945,60.977775 L99.36495,60.977775 L99.36495,64.832025 C99.36495,65.399025 99.3057,65.879775 99.1857,66.275025 C99.0672,66.671025 98.89395,66.994275 98.6667,67.246275 C98.4387,67.498275 98.1657,67.682025 97.84695,67.797525 C97.5282,67.913025 97.17045,67.970775 96.77145,67.970775 C96.3717,67.970775 96.0132,67.913025 95.6952,67.797525 C95.37645,67.682025 95.10345,67.498275 94.87545,67.246275 C94.64895,66.994275 94.47345,66.671025 94.3512,66.275025 C94.2282,65.879775 94.16745,65.399025 94.16745,64.832025 L94.16745,60.977775 Z" id="Fill-14" fill="#3F3F3F"></path>
                    <path d="M101.002425,66.133275 C101.247675,66.365025 101.527425,66.551775 101.842425,66.695025 C102.157425,66.838275 102.472425,66.910275 102.787425,66.910275 C103.179675,66.910275 103.477425,66.830025 103.679925,66.668775 C103.883175,66.508275 103.985175,66.294525 103.985175,66.028275 C103.985175,65.888775 103.958175,65.769525 103.905675,65.671275 C103.853925,65.573775 103.779675,65.488275 103.685175,65.414025 C103.590675,65.340525 103.478925,65.273025 103.349175,65.210025 C103.220175,65.147025 103.078425,65.084025 102.924675,65.021025 L101.979675,64.611525 C101.810925,64.541025 101.644425,64.453275 101.480925,64.348275 C101.315925,64.243275 101.167425,64.117275 101.033925,63.970275 C100.901175,63.823275 100.794675,63.651525 100.713675,63.456525 C100.633425,63.260025 100.592925,63.035775 100.592925,62.783775 C100.592925,62.510775 100.650675,62.257275 100.766925,62.023275 C100.882425,61.788525 101.041425,61.583775 101.243925,61.408275 C101.447175,61.233525 101.690175,61.097025 101.973675,60.998775 C102.257925,60.900525 102.566925,60.851775 102.902925,60.851775 C103.301925,60.851775 103.686675,60.930525 104.057925,61.088025 C104.429175,61.245525 104.747175,61.457775 105.014175,61.723275 L104.393925,62.500275 C104.170425,62.318775 103.939425,62.175525 103.701675,62.069775 C103.463175,61.964775 103.197675,61.912275 102.902925,61.912275 C102.574425,61.912275 102.311175,61.984275 102.115425,62.127525 C101.919675,62.271525 101.822175,62.468775 101.822175,62.720775 C101.822175,62.854275 101.851425,62.967525 101.910675,63.062025 C101.970675,63.156525 102.050925,63.241275 102.152175,63.314025 C102.254175,63.387525 102.371175,63.454275 102.503925,63.513525 C102.637425,63.573525 102.773175,63.631275 102.914175,63.686775 L103.847925,64.075275 C104.051175,64.159275 104.236425,64.257525 104.404425,64.369275 C104.573175,64.481775 104.717925,64.611525 104.840175,64.757775 C104.962425,64.904775 105.059175,65.075025 105.128925,65.267775 C105.199425,65.459775 105.234675,65.681775 105.234675,65.933775 C105.234675,66.213525 105.177675,66.476775 105.065925,66.721275 C104.954175,66.966525 104.791425,67.181775 104.578425,67.367775 C104.363925,67.553025 104.105925,67.700025 103.800675,67.808025 C103.496175,67.916775 103.151175,67.970775 102.767175,67.970775 C102.304425,67.970775 101.858925,67.883025 101.427675,67.709025 C100.997175,67.533525 100.617675,67.284525 100.289175,66.962775 L101.002425,66.133275 Z" id="Fill-16" fill="#3F3F3F"></path>
                    <polygon id="Fill-18" fill="#3F3F3F" points="107.44995 62.00685 105.46545 62.00685 105.46545 60.97785 110.65245 60.97785 110.65245 62.00685 108.66795 62.00685 108.66795 67.84485 107.44995 67.84485"></polygon>
                    <polygon id="Fill-20" fill="#3F3F3F" points="111.58665 60.977775 115.7244 60.977775 115.7244 62.006775 112.80465 62.006775 112.80465 63.760275 115.27215 63.760275 115.27215 64.789275 112.80465 64.789275 112.80465 66.815775 115.82865 66.815775 115.82865 67.844775 111.58665 67.844775"></polygon>
                    <path d="M118.24365,64.190925 L119.22015,64.190925 C119.68965,64.190925 120.0474,64.092675 120.2964,63.896925 C120.54465,63.701175 120.66915,63.407175 120.66915,63.014925 C120.66915,62.615925 120.54465,62.339175 120.2964,62.185425 C120.0474,62.031675 119.68965,61.955175 119.22015,61.955175 L118.24365,61.955175 L118.24365,64.190925 Z M120.77415,67.844925 L119.29365,65.156925 L118.24365,65.156925 L118.24365,67.844925 L117.02565,67.844925 L117.02565,60.977925 L119.34615,60.977925 C119.70315,60.977925 120.03615,61.013175 120.34365,61.082925 C120.6519,61.152675 120.9174,61.266675 121.14165,61.424925 C121.3659,61.581675 121.54215,61.790175 121.6719,62.049675 C121.80165,62.307675 121.86615,62.630175 121.86615,63.014925 C121.86615,63.539925 121.74165,63.963675 121.4934,64.285425 C121.24515,64.607925 120.9144,64.838175 120.50115,64.978425 L122.13915,67.844925 L120.77415,67.844925 Z" id="Fill-22" fill="#3F3F3F"></path>
                    <path d="M125.047875,60.977775 L126.391875,60.977775 L127.630125,64.358775 L128.082375,65.660775 L128.124375,65.660775 L128.564625,64.358775 L129.782625,60.977775 L131.126625,60.977775 L131.126625,67.844775 L129.982875,67.844775 L129.982875,64.706025 C129.982875,64.544775 129.988125,64.369275 129.998625,64.181025 C130.008375,63.992025 130.021125,63.800775 130.034625,63.608025 C130.048875,63.416025 130.066125,63.227025 130.087875,63.041025 C130.108875,62.855775 130.126125,62.682525 130.140375,62.522025 L130.097625,62.522025 L129.541125,64.086525 L128.354625,67.205025 L127.787625,67.205025 L126.601125,64.086525 L126.055875,62.522025 L126.013875,62.522025 C126.028125,62.682525 126.043125,62.855775 126.061125,63.041025 C126.078375,63.227025 126.095625,63.416025 126.113625,63.608025 C126.130125,63.800775 126.145125,63.992025 126.155625,64.181025 C126.165375,64.369275 126.171375,64.544775 126.171375,64.706025 L126.171375,67.844775 L125.047875,67.844775 L125.047875,60.977775 Z" id="Fill-24" fill="#3F3F3F"></path>
                    <polygon id="Fill-26" fill="#3F3F3F" points="132.659925 60.977775 136.797675 60.977775 136.797675 62.006775 133.877925 62.006775 133.877925 63.760275 136.345425 63.760275 136.345425 64.789275 133.877925 64.789275 133.877925 66.815775 136.901925 66.815775 136.901925 67.844775 132.659925 67.844775"></polygon>
                    <path d="M139.852275,66.8577 C140.552775,66.8577 141.089025,66.6567 141.464025,66.25395 C141.838275,65.85195 142.025775,65.2272 142.025775,64.3797 C142.025775,63.5397 141.836775,62.9277 141.459525,62.5422 C141.081525,62.15745 140.545275,61.96545 139.852275,61.96545 L139.316775,61.96545 L139.316775,66.8577 L139.852275,66.8577 Z M138.098775,60.9777 L139.936275,60.9777 C140.987025,60.9777 141.805275,61.2612 142.394025,61.8282 C142.981275,62.39595 143.275275,63.24645 143.275275,64.3797 C143.275275,64.9467 143.200275,65.4477 143.050275,65.8812 C142.898775,66.31545 142.682025,66.6777 142.399275,66.96795 C142.115775,67.25895 141.772275,67.4772 141.369525,67.6242 C140.966775,67.77195 140.510025,67.8447 139.999275,67.8447 L138.098775,67.8447 L138.098775,60.9777 Z" id="Fill-28" fill="#3F3F3F"></path>
                    <mask id="mask-2" fill="white">
                        <use xlink:href="#path-1"></use>
                    </mask>
                    <g id="Clip-31"></g>
                    <polygon id="Fill-30" fill="#3F3F3F" mask="url(#mask-2)" points="144.45225 67.845 145.67025 67.845 145.67025 60.978 144.45225 60.978"></polygon>
                    <path d="M150.121575,65.031 L149.880075,64.191 C149.767575,63.82725 149.661825,63.453 149.559825,63.0675 C149.457825,62.68275 149.358075,62.301 149.260575,61.92225 L149.218575,61.92225 C149.120325,62.30775 149.022075,62.691 148.924575,63.07275 C148.826325,63.45375 148.721325,63.82725 148.609575,64.191 L148.368075,65.031 L150.121575,65.031 Z M150.394575,65.9865 L148.084575,65.9865 L147.549075,67.845 L146.310075,67.845 L148.546575,60.978 L149.974575,60.978 L152.211075,67.845 L150.930075,67.845 L150.394575,65.9865 Z" id="Fill-32" fill="#3F3F3F" mask="url(#mask-2)"></path>
                    <path d="M152.85135,60.977775 L154.10085,60.977775 L156.24285,64.841775 L156.94635,66.302025 L156.9891,66.302025 C156.9606,65.944275 156.9276,65.561025 156.8886,65.151525 C156.85035,64.742775 156.83085,64.344525 156.83085,63.960525 L156.83085,60.977775 L157.99635,60.977775 L157.99635,67.844775 L156.74685,67.844775 L154.60485,63.980775 L153.90135,62.522025 L153.85935,62.522025 C153.8871,62.885775 153.92085,63.267525 153.95985,63.665775 C153.99735,64.064775 154.01685,64.457025 154.01685,64.841775 L154.01685,67.844775 L152.85135,67.844775 L152.85135,60.977775 Z" id="Fill-33" fill="#3F3F3F" mask="url(#mask-2)"></path>
                    <path d="M159.31935,67.152075 C159.31935,66.914325 159.3951,66.717825 159.5451,66.564075 C159.69585,66.410325 159.8826,66.333075 160.10685,66.333075 C160.3311,66.333075 160.51635,66.410325 160.66335,66.564075 C160.81035,66.717825 160.88385,66.914325 160.88385,67.152075 C160.88385,67.389825 160.81035,67.586325 160.66335,67.740075 C160.51635,67.893825 160.3311,67.971075 160.10685,67.971075 C159.8826,67.971075 159.69585,67.893825 159.5451,67.740075 C159.3951,67.586325 159.31935,67.389825 159.31935,67.152075 M159.31935,63.561075 C159.31935,63.323325 159.3951,63.126825 159.5451,62.973075 C159.69585,62.819325 159.8826,62.742075 160.10685,62.742075 C160.3311,62.742075 160.51635,62.819325 160.66335,62.973075 C160.81035,63.126825 160.88385,63.323325 160.88385,63.561075 C160.88385,63.798825 160.81035,63.995325 160.66335,64.149075 C160.51635,64.302825 160.3311,64.380075 160.10685,64.380075 C159.8826,64.380075 159.69585,64.302825 159.5451,64.149075 C159.3951,63.995325 159.31935,63.798825 159.31935,63.561075" id="Fill-34" fill="#3F3F3F" mask="url(#mask-2)"></path>
                    <path d="M167.309325,62.584725 C167.113575,62.402475 166.924575,62.263725 166.742325,62.169225 C166.560075,62.074725 166.343325,62.028225 166.091325,62.028225 C165.804075,62.028225 165.580575,62.100225 165.419325,62.243475 C165.258825,62.386725 165.177825,62.595225 165.177825,62.868225 C165.177825,63.077475 165.247575,63.251475 165.387825,63.387225 C165.528075,63.524475 165.704325,63.650475 165.918825,63.765225 C166.131825,63.881475 166.360575,63.996975 166.606575,64.112475 C166.851075,64.227225 167.079825,64.365975 167.293575,64.527225 C167.507325,64.688475 167.683575,64.885725 167.824575,65.120475 C167.964075,65.354475 168.033825,65.646975 168.033825,65.997225 C168.033825,66.501225 167.893575,66.922725 167.613825,67.261725 C167.334075,67.601475 166.931325,67.820475 166.406325,67.917975 L166.406325,69.000225 L165.566325,69.000225 L165.566325,67.949475 C165.244575,67.914225 164.920575,67.828725 164.595075,67.692975 C164.269575,67.556475 163.987575,67.376475 163.749825,67.152225 L164.295825,66.333225 C164.541075,66.528975 164.790075,66.686475 165.042075,66.805725 C165.293325,66.924225 165.563325,66.983475 165.850575,66.983475 C166.193325,66.983475 166.449075,66.905475 166.616325,66.747975 C166.784325,66.590475 166.868325,66.368475 166.868325,66.081225 C166.868325,65.850225 166.798575,65.657475 166.658325,65.503725 C166.518075,65.349975 166.341825,65.209725 166.128075,65.083725 C165.915075,64.957725 165.685575,64.836975 165.440325,64.721475 C165.195825,64.605225 164.966325,64.469475 164.752575,64.311975 C164.539575,64.154475 164.362575,63.965475 164.222325,63.744975 C164.082075,63.524475 164.012325,63.249975 164.012325,62.919975 C164.012325,62.430975 164.152575,62.022975 164.432325,61.696725 C164.712075,61.371975 165.090075,61.166475 165.566325,61.083225 L165.566325,60.011475 L166.406325,60.011475 L166.406325,61.062225 C166.742325,61.103475 167.031075,61.200225 167.272575,61.350225 C167.514075,61.501725 167.732325,61.677975 167.928825,61.881225 L167.309325,62.584725 Z" id="Fill-35" fill="#3F3F3F" mask="url(#mask-2)"></path>
                    <path d="M170.37525,66.2124 C170.4525,65.7189 170.56275,65.2479 170.706,64.80015 C170.85,64.3524 171.033,63.9159 171.25725,63.4929 C171.4815,63.0699 171.7545,62.63415 172.077,62.18565 L168.9165,62.18565 L168.9165,61.1664 L173.39925,61.1664 L173.39925,61.90215 C173.00775,62.3844 172.6905,62.84565 172.44975,63.2829 C172.2075,63.72015 172.01625,64.1679 171.87675,64.6269 C171.7365,65.08515 171.6375,65.5734 171.57825,66.09165 C171.5175,66.60915 171.47475,67.19415 171.447,67.84515 L170.21775,67.84515 C170.2455,67.2504 170.298,66.7059 170.37525,66.2124" id="Fill-36" fill="#3F3F3F" mask="url(#mask-2)"></path>
                    <path d="M176.77005,64.0752 C176.95155,63.8937 177.0903,63.70845 177.1848,63.51945 C177.2793,63.33045 177.32655,63.1302 177.32655,62.9202 C177.32655,62.6262 177.2403,62.3832 177.06855,62.19045 C176.89755,61.9977 176.65455,61.90245 176.33955,61.90245 C176.08005,61.90245 175.8633,61.98045 175.68855,62.13795 C175.51305,62.29545 175.42605,62.52195 175.42605,62.8152 C175.42605,62.9832 175.46055,63.1302 175.53105,63.2562 C175.60005,63.3822 175.6968,63.4932 175.81905,63.5877 C175.94205,63.6822 176.0838,63.7692 176.24505,63.84945 C176.4063,63.93045 176.58105,64.00545 176.77005,64.0752 M175.12155,66.0072 C175.12155,66.3432 175.24005,66.6117 175.4778,66.81045 C175.7163,67.00995 176.00655,67.1097 176.3493,67.1097 C176.6718,67.1097 176.93655,67.0227 177.1428,66.8472 C177.3483,66.67245 177.45255,66.42795 177.45255,66.11295 C177.45255,65.9307 177.41055,65.77545 177.32655,65.6457 C177.24255,65.51595 177.12855,65.40045 176.9853,65.2992 C176.84205,65.1972 176.6718,65.1042 176.4753,65.02095 C176.2803,64.9362 176.06955,64.8492 175.84605,64.7577 C175.6353,64.9122 175.4628,65.0937 175.3263,65.30445 C175.1898,65.5137 175.12155,65.74845 175.12155,66.0072 M174.06105,66.1332 C174.06105,65.92395 174.09405,65.7327 174.1608,65.56095 C174.2268,65.38995 174.3168,65.23395 174.42855,65.0937 C174.5403,64.9542 174.6678,64.8282 174.8118,64.7157 C174.95505,64.60395 175.1073,64.5057 175.26855,64.4217 L175.26855,64.3797 C175.00905,64.1982 174.79005,63.9807 174.6123,63.7287 C174.4338,63.4767 174.34455,63.1722 174.34455,62.8152 C174.34455,62.5422 174.3948,62.2977 174.4968,62.08095 C174.59805,61.86345 174.7383,61.6782 174.91605,61.52445 C175.0953,61.3707 175.30905,61.2507 175.5573,61.1667 C175.80555,61.08345 176.0733,61.0407 176.36055,61.0407 C176.66055,61.0407 176.9328,61.08495 177.1743,61.17195 C177.41505,61.2597 177.62205,61.38195 177.79305,61.53945 C177.96555,61.69695 178.0968,61.88595 178.18755,62.10645 C178.2783,62.32695 178.3233,62.5737 178.3233,62.8467 C178.3233,63.0147 178.2978,63.17445 178.2453,63.32445 C178.19205,63.4752 178.12455,63.61545 178.0398,63.7452 C177.95655,63.8742 177.8598,63.99345 177.7518,64.10145 C177.64305,64.21095 177.5358,64.3032 177.43155,64.3797 L177.43155,64.4217 C177.5853,64.5057 177.7323,64.60245 177.87255,64.7112 C178.01205,64.8192 178.1343,64.9437 178.24005,65.08395 C178.34505,65.22345 178.42905,65.38095 178.49205,65.55645 C178.55505,65.7312 178.58655,65.9307 178.58655,66.1542 C178.58655,66.4137 178.53255,66.6537 178.4238,66.87345 C178.31505,67.09395 178.16205,67.2867 177.96705,67.45095 C177.77055,67.61595 177.5328,67.7442 177.25305,67.83495 C176.9733,67.9257 176.6643,67.9707 176.32905,67.9707 C175.9998,67.9707 175.6968,67.9257 175.4208,67.83495 C175.14405,67.7442 174.9063,67.6182 174.7068,67.45695 C174.50655,67.2957 174.34905,67.10295 174.2343,66.8787 C174.1188,66.65445 174.06105,66.4062 174.06105,66.1332" id="Fill-37" fill="#3F3F3F" mask="url(#mask-2)"></path>
                    <path d="M179.615475,66.2703 C179.818725,66.4593 180.045225,66.6258 180.297225,66.76905 C180.549975,66.9123 180.843975,66.98355 181.179975,66.98355 C181.557975,66.98355 181.867725,66.87255 182.108475,66.6483 C182.349975,66.42405 182.471475,66.10905 182.471475,65.70255 C182.471475,65.3043 182.358975,64.99605 182.134725,64.7793 C181.911225,64.56255 181.613475,64.45305 181.242975,64.45305 C181.025475,64.45305 180.843975,64.48305 180.696225,64.5423 C180.549975,64.6023 180.375225,64.6983 180.171225,64.8318 L179.594475,64.4643 L179.793225,61.16655 L183.363975,61.16655 L183.363975,62.1858 L180.843975,62.1858 L180.707475,63.8028 C180.847725,63.7323 180.984975,63.6783 181.122225,63.6393 C181.257975,63.60105 181.413975,63.5823 181.589475,63.5823 C181.876725,63.5823 182.147475,63.6243 182.403225,63.7083 C182.658975,63.79155 182.880975,63.9198 183.069225,64.09155 C183.258225,64.26255 183.409725,64.4793 183.521475,64.74255 C183.632475,65.00505 183.689475,65.3148 183.689475,65.67105 C183.689475,66.0363 183.624975,66.36105 183.495225,66.6483 C183.365475,66.93555 183.192225,67.1763 182.974725,67.3728 C182.757975,67.56855 182.507475,67.7178 182.224725,67.8183 C181.941225,67.9203 181.644975,67.9713 181.337475,67.9713 C180.798225,67.9713 180.345225,67.8783 179.976975,67.6923 C179.609475,67.50705 179.303475,67.2918 179.058975,67.04655 L179.615475,66.2703 Z" id="Fill-38" fill="#3F3F3F" mask="url(#mask-2)"></path>
                    <path d="M140.6484,3.093 C140.4519,2.904 140.2614,2.757 140.07615,2.652 C139.8909,2.54625 139.65465,2.4945 139.3674,2.4945 C139.04565,2.4945 138.78915,2.58525 138.6009,2.7675 C138.4119,2.94975 138.31815,3.195 138.31815,3.5025 C138.31815,3.7545 138.3894,3.96075 138.5334,4.122 C138.67665,4.28325 138.85665,4.42425 139.0734,4.5465 C139.29015,4.67025 139.5264,4.78875 139.7829,4.90425 C140.0379,5.01975 140.27415,5.16 140.4909,5.32425 C140.7084,5.4885 140.8884,5.69175 141.0324,5.93325 C141.1749,6.17475 141.24765,6.48375 141.24765,6.8625 C141.24765,7.3665 141.1014,7.77975 140.81115,8.1015 C140.5209,8.42325 140.12415,8.619 139.62015,8.6895 L139.62015,9.75 L138.9894,9.75 L138.9894,8.7105 C138.6534,8.67525 138.3279,8.58225 138.0129,8.43225 C137.6979,8.2815 137.42865,8.10525 137.2044,7.902 L137.60265,7.3035 C137.8269,7.49925 138.0744,7.66575 138.3444,7.80225 C138.6129,7.93875 138.90915,8.007 139.2309,8.007 C139.62315,8.007 139.9149,7.90875 140.10765,7.713 C140.29965,7.5165 140.3964,7.25475 140.3964,6.9255 C140.3964,6.645 140.3244,6.41325 140.18115,6.22725 C140.0379,6.042 139.85715,5.88075 139.6404,5.74425 C139.42365,5.60775 139.1874,5.48025 138.93165,5.361 C138.67665,5.24175 138.43965,5.106 138.2229,4.9515 C138.00615,4.797 137.8254,4.6095 137.68215,4.38975 C137.5389,4.16925 137.4669,3.888 137.4669,3.5445 C137.4669,3.07575 137.6049,2.685 137.88165,2.37375 C138.1584,2.0625 138.5274,1.86825 138.9894,1.791 L138.9894,0.741 L139.62015,0.741 L139.62015,1.7805 C139.9554,1.81575 140.24115,1.9065 140.4759,2.0535 C140.7099,2.2005 140.9214,2.37525 141.1104,2.57775 L140.6484,3.093 Z" id="Fill-39" fill="#848484" mask="url(#mask-2)"></path>
                    <path d="M142.2861,7.88085 L143.81985,7.88085 L143.81985,2.94585 L142.6011,2.94585 L142.6011,2.38935 C142.90935,2.33385 143.17635,2.2656 143.4051,2.1846 C143.63235,2.10435 143.8371,2.00835 144.01935,1.8966 L144.6801,1.8966 L144.6801,7.88085 L146.06685,7.88085 L146.06685,8.59485 L142.2861,8.59485 L142.2861,7.88085 Z" id="Fill-40" fill="#848484" mask="url(#mask-2)"></path>
                    <path d="M146.7495,9.876 C147.04275,9.7425 147.27375,9.56775 147.4425,9.351 C147.60975,9.13425 147.6945,8.88225 147.6945,8.595 C147.67275,8.60175 147.63825,8.6055 147.58875,8.6055 C147.4215,8.6055 147.27525,8.5545 147.153,8.45325 C147.03075,8.352 146.96925,8.2035 146.96925,8.007 C146.96925,7.818 147.03225,7.6695 147.15825,7.56075 C147.28425,7.45275 147.435,7.398 147.60975,7.398 C147.83325,7.398 148.011,7.48875 148.14,7.671 C148.26975,7.85325 148.33425,8.1015 148.33425,8.4165 C148.33425,8.871 148.21125,9.267 147.96675,9.603 C147.72225,9.939 147.38625,10.19775 146.95875,10.38 L146.7495,9.876 Z" id="Fill-41" fill="#848484" mask="url(#mask-2)"></path>
                    <path d="M151.064175,8.028075 C151.259925,8.028075 151.436925,7.974075 151.594425,7.865325 C151.751925,7.757325 151.888425,7.588575 152.003925,7.361325 C152.119425,7.134075 152.208675,6.843075 152.271675,6.489825 C152.334675,6.136575 152.366175,5.714325 152.366175,5.224575 C152.366175,4.734075 152.334675,4.314825 152.271675,3.964575 C152.208675,3.614325 152.119425,3.328575 152.003925,3.108075 C151.888425,2.887575 151.751925,2.725575 151.594425,2.620575 C151.436925,2.514825 151.259925,2.463075 151.064175,2.463075 C150.868425,2.463075 150.689925,2.514825 150.528675,2.620575 C150.367425,2.725575 150.230175,2.887575 150.113925,3.108075 C149.998425,3.328575 149.909175,3.614325 149.846175,3.964575 C149.783175,4.314825 149.751675,4.734075 149.751675,5.224575 C149.751675,6.204075 149.872425,6.917325 150.113925,7.361325 C150.356175,7.806075 150.672675,8.028075 151.064175,8.028075 M151.064175,8.721075 C150.385425,8.721075 149.856675,8.419575 149.478675,7.818075 C149.100675,7.215825 148.911675,6.351825 148.911675,5.224575 C148.911675,4.097325 149.100675,3.240075 149.478675,2.652075 C149.856675,2.064075 150.385425,1.770075 151.064175,1.770075 C151.736175,1.770075 152.261925,2.064075 152.639925,2.652075 C153.017175,3.240075 153.206175,4.097325 153.206175,5.224575 C153.206175,6.351825 153.017175,7.215825 152.639925,7.818075 C152.261925,8.419575 151.736175,8.721075 151.064175,8.721075" id="Fill-42" fill="#848484" mask="url(#mask-2)"></path>
                    <path d="M155.8623,8.028075 C156.0588,8.028075 156.2358,7.974075 156.39255,7.865325 C156.5508,7.757325 156.6873,7.588575 156.8028,7.361325 C156.9183,7.134075 157.00755,6.843075 157.07055,6.489825 C157.13355,6.136575 157.1643,5.714325 157.1643,5.224575 C157.1643,4.734075 157.13355,4.314825 157.07055,3.964575 C157.00755,3.614325 156.9183,3.328575 156.8028,3.108075 C156.6873,2.887575 156.5508,2.725575 156.39255,2.620575 C156.2358,2.514825 156.0588,2.463075 155.8623,2.463075 C155.66655,2.463075 155.4888,2.514825 155.32755,2.620575 C155.1663,2.725575 155.0283,2.887575 154.9128,3.108075 C154.7973,3.328575 154.70805,3.614325 154.64505,3.964575 C154.58205,4.314825 154.5498,4.734075 154.5498,5.224575 C154.5498,6.204075 154.6713,6.917325 154.9128,7.361325 C155.1543,7.806075 155.47155,8.028075 155.8623,8.028075 M155.8623,8.721075 C155.1843,8.721075 154.65555,8.419575 154.27755,7.818075 C153.89955,7.215825 153.71055,6.351825 153.71055,5.224575 C153.71055,4.097325 153.89955,3.240075 154.27755,2.652075 C154.65555,2.064075 155.1843,1.770075 155.8623,1.770075 C156.5343,1.770075 157.06005,2.064075 157.43805,2.652075 C157.8153,3.240075 158.0043,4.097325 158.0043,5.224575 C158.0043,6.351825 157.8153,7.215825 157.43805,7.818075 C157.06005,8.419575 156.5343,8.721075 155.8623,8.721075" id="Fill-43" fill="#848484" mask="url(#mask-2)"></path>
                    <path d="M160.6611,8.028075 C160.8576,8.028075 161.03385,7.974075 161.19135,7.865325 C161.34885,7.757325 161.4861,7.588575 161.60085,7.361325 C161.71635,7.134075 161.8056,6.843075 161.8686,6.489825 C161.9316,6.136575 161.9631,5.714325 161.9631,5.224575 C161.9631,4.734075 161.9316,4.314825 161.8686,3.964575 C161.8056,3.614325 161.71635,3.328575 161.60085,3.108075 C161.4861,2.887575 161.34885,2.725575 161.19135,2.620575 C161.03385,2.514825 160.8576,2.463075 160.6611,2.463075 C160.4646,2.463075 160.28685,2.514825 160.1256,2.620575 C159.96435,2.725575 159.82635,2.887575 159.71085,3.108075 C159.59535,3.328575 159.5061,3.614325 159.4431,3.964575 C159.3801,4.314825 159.3486,4.734075 159.3486,5.224575 C159.3486,6.204075 159.46935,6.917325 159.71085,7.361325 C159.95235,7.806075 160.2696,8.028075 160.6611,8.028075 M160.6611,8.721075 C159.98235,8.721075 159.45435,8.419575 159.07635,7.818075 C158.69835,7.215825 158.50935,6.351825 158.50935,5.224575 C158.50935,4.097325 158.69835,3.240075 159.07635,2.652075 C159.45435,2.064075 159.98235,1.770075 160.6611,1.770075 C161.3331,1.770075 161.8581,2.064075 162.2361,2.652075 C162.6141,3.240075 162.80235,4.097325 162.80235,5.224575 C162.80235,6.351825 162.6141,7.215825 162.2361,7.818075 C161.8581,8.419575 161.3331,8.721075 160.6611,8.721075" id="Fill-44" fill="#848484" mask="url(#mask-2)"></path>
                    <path d="M3.44385,3.093 C3.24735,2.904 3.05685,2.757 2.87085,2.652 C2.6856,2.54625 2.44935,2.4945 2.1621,2.4945 C1.84035,2.4945 1.5846,2.58525 1.39635,2.7675 C1.20735,2.94975 1.11285,3.195 1.11285,3.5025 C1.11285,3.7545 1.1841,3.96075 1.3281,4.122 C1.47135,4.28325 1.65135,4.42425 1.86885,4.5465 C2.0856,4.67025 2.32185,4.78875 2.5776,4.90425 C2.83335,5.01975 3.06885,5.16 3.2856,5.32425 C3.5031,5.4885 3.6831,5.69175 3.8271,5.93325 C3.9696,6.17475 4.04235,6.48375 4.04235,6.8625 C4.04235,7.3665 3.89685,7.77975 3.6066,8.1015 C3.3156,8.42325 2.91885,8.619 2.41485,8.6895 L2.41485,9.75 L1.7841,9.75 L1.7841,8.7105 C1.44885,8.67525 1.12335,8.58225 0.80835,8.43225 C0.49335,8.2815 0.22335,8.10525 -0.00015,7.902 L0.3981,7.3035 C0.62235,7.49925 0.8691,7.66575 1.1391,7.80225 C1.4076,7.93875 1.70385,8.007 2.0256,8.007 C2.4186,8.007 2.7096,7.90875 2.9031,7.713 C3.0951,7.5165 3.19185,7.25475 3.19185,6.9255 C3.19185,6.645 3.11985,6.41325 2.9766,6.22725 C2.83335,6.042 2.6526,5.88075 2.43585,5.74425 C2.21835,5.60775 1.9821,5.48025 1.7271,5.361 C1.47135,5.24175 1.2351,5.106 1.01835,4.9515 C0.8016,4.797 0.62085,4.6095 0.4776,4.38975 C0.33435,4.16925 0.26235,3.888 0.26235,3.5445 C0.26235,3.07575 0.3996,2.685 0.6771,2.37375 C0.95385,2.0625 1.32285,1.86825 1.7841,1.791 L1.7841,0.741 L2.41485,0.741 L2.41485,1.7805 C2.75085,1.81575 3.03585,1.9065 3.2706,2.0535 C3.5046,2.2005 3.7161,2.37525 3.9051,2.57775 L3.44385,3.093 Z" id="Fill-45" fill="#848484" mask="url(#mask-2)"></path>
                    <path d="M6.866475,8.028075 C7.062225,8.028075 7.239225,7.974075 7.396725,7.865325 C7.554225,7.757325 7.690725,7.588575 7.806225,7.361325 C7.921725,7.134075 8.010975,6.843075 8.073975,6.489825 C8.136975,6.136575 8.168475,5.714325 8.168475,5.224575 C8.168475,4.734075 8.136975,4.314825 8.073975,3.964575 C8.010975,3.614325 7.921725,3.328575 7.806225,3.108075 C7.690725,2.887575 7.554225,2.725575 7.396725,2.620575 C7.239225,2.514825 7.062225,2.463075 6.866475,2.463075 C6.670725,2.463075 6.492225,2.514825 6.330975,2.620575 C6.169725,2.725575 6.032475,2.887575 5.916225,3.108075 C5.800725,3.328575 5.711475,3.614325 5.648475,3.964575 C5.585475,4.314825 5.553975,4.734075 5.553975,5.224575 C5.553975,6.204075 5.674725,6.917325 5.916225,7.361325 C6.158475,7.806075 6.474975,8.028075 6.866475,8.028075 M6.866475,8.721075 C6.187725,8.721075 5.658975,8.419575 5.280975,7.818075 C4.902975,7.215825 4.713975,6.351825 4.713975,5.224575 C4.713975,4.097325 4.902975,3.240075 5.280975,2.652075 C5.658975,2.064075 6.187725,1.770075 6.866475,1.770075 C7.538475,1.770075 8.064225,2.064075 8.442225,2.652075 C8.819475,3.240075 9.008475,4.097325 9.008475,5.224575 C9.008475,6.351825 8.819475,7.215825 8.442225,7.818075 C8.064225,8.419575 7.538475,8.721075 6.866475,8.721075" id="Fill-46" fill="#848484" mask="url(#mask-2)"></path>
                    <path d="M280.1484,3.093 C279.9519,2.904 279.7614,2.757 279.57615,2.652 C279.3909,2.54625 279.15465,2.4945 278.8674,2.4945 C278.54565,2.4945 278.28915,2.58525 278.1009,2.7675 C277.9119,2.94975 277.81815,3.195 277.81815,3.5025 C277.81815,3.7545 277.8894,3.96075 278.0334,4.122 C278.17665,4.28325 278.35665,4.42425 278.5734,4.5465 C278.79015,4.67025 279.0264,4.78875 279.2829,4.90425 C279.5379,5.01975 279.77415,5.16 279.9909,5.32425 C280.2084,5.4885 280.3884,5.69175 280.5324,5.93325 C280.6749,6.17475 280.74765,6.48375 280.74765,6.8625 C280.74765,7.3665 280.6014,7.77975 280.31115,8.1015 C280.0209,8.42325 279.62415,8.619 279.12015,8.6895 L279.12015,9.75 L278.4894,9.75 L278.4894,8.7105 C278.1534,8.67525 277.8279,8.58225 277.5129,8.43225 C277.1979,8.2815 276.92865,8.10525 276.7044,7.902 L277.10265,7.3035 C277.3269,7.49925 277.5744,7.66575 277.8444,7.80225 C278.1129,7.93875 278.40915,8.007 278.7309,8.007 C279.12315,8.007 279.4149,7.90875 279.60765,7.713 C279.79965,7.5165 279.8964,7.25475 279.8964,6.9255 C279.8964,6.645 279.8244,6.41325 279.68115,6.22725 C279.5379,6.042 279.35715,5.88075 279.1404,5.74425 C278.92365,5.60775 278.6874,5.48025 278.43165,5.361 C278.17665,5.24175 277.93965,5.106 277.7229,4.9515 C277.50615,4.797 277.3254,4.6095 277.18215,4.38975 C277.0389,4.16925 276.9669,3.888 276.9669,3.5445 C276.9669,3.07575 277.1049,2.685 277.38165,2.37375 C277.6584,2.0625 278.0274,1.86825 278.4894,1.791 L278.4894,0.741 L279.12015,0.741 L279.12015,1.7805 C279.4554,1.81575 279.74115,1.9065 279.9759,2.0535 C280.2099,2.2005 280.4214,2.37525 280.6104,2.57775 L280.1484,3.093 Z" id="Fill-47" fill="#848484" mask="url(#mask-2)"></path>
                    <path d="M281.377425,8.0808 C281.881425,7.57605 282.329175,7.12155 282.720675,6.7158 C283.112925,6.31005 283.441425,5.93355 283.707675,5.58705 C283.973925,5.24055 284.176425,4.9218 284.317425,4.6308 C284.456175,4.3413 284.526675,4.0593 284.526675,3.78555 C284.526675,3.40155 284.422425,3.08655 284.211675,2.8413 C284.002425,2.59605 283.682925,2.47305 283.256925,2.47305 C282.976425,2.47305 282.717675,2.55255 282.479175,2.71005 C282.241425,2.86755 282.024675,3.05805 281.828925,3.2823 L281.334675,2.78805 C281.614425,2.48055 281.912175,2.2338 282.227175,2.04855 C282.542175,1.86255 282.920925,1.7703 283.361925,1.7703 C283.985175,1.7703 284.474175,1.9503 284.831175,2.31105 C285.188925,2.67105 285.366675,3.14955 285.366675,3.7443 C285.366675,4.0593 285.299175,4.3758 285.162675,4.6938 C285.025425,5.01255 284.836425,5.3418 284.595675,5.68155 C284.354175,6.02055 284.066925,6.37455 283.734675,6.74205 C283.401675,7.1088 283.035675,7.49955 282.637425,7.91205 C282.818925,7.89855 283.007925,7.8843 283.204425,7.8708 C283.400175,7.85655 283.584675,7.84905 283.760925,7.84905 L285.703425,7.84905 L285.703425,8.5953 L281.377425,8.5953 L281.377425,8.0808 Z" id="Fill-48" fill="#848484" mask="url(#mask-2)"></path>
                    <path d="M286.2495,9.876 C286.54275,9.7425 286.77375,9.56775 286.9425,9.351 C287.10975,9.13425 287.1945,8.88225 287.1945,8.595 C287.17275,8.60175 287.13825,8.6055 287.08875,8.6055 C286.9215,8.6055 286.77525,8.5545 286.653,8.45325 C286.53075,8.352 286.46925,8.2035 286.46925,8.007 C286.46925,7.818 286.53225,7.6695 286.65825,7.56075 C286.78425,7.45275 286.935,7.398 287.10975,7.398 C287.33325,7.398 287.511,7.48875 287.64,7.671 C287.76975,7.85325 287.83425,8.1015 287.83425,8.4165 C287.83425,8.871 287.71125,9.267 287.46675,9.603 C287.22225,9.939 286.88625,10.19775 286.45875,10.38 L286.2495,9.876 Z" id="Fill-49" fill="#848484" mask="url(#mask-2)"></path>
                    <path d="M290.564175,8.028075 C290.759925,8.028075 290.936925,7.974075 291.094425,7.865325 C291.251925,7.757325 291.388425,7.588575 291.503925,7.361325 C291.619425,7.134075 291.708675,6.843075 291.771675,6.489825 C291.834675,6.136575 291.866175,5.714325 291.866175,5.224575 C291.866175,4.734075 291.834675,4.314825 291.771675,3.964575 C291.708675,3.614325 291.619425,3.328575 291.503925,3.108075 C291.388425,2.887575 291.251925,2.725575 291.094425,2.620575 C290.936925,2.514825 290.759925,2.463075 290.564175,2.463075 C290.368425,2.463075 290.189925,2.514825 290.028675,2.620575 C289.867425,2.725575 289.730175,2.887575 289.613925,3.108075 C289.498425,3.328575 289.409175,3.614325 289.346175,3.964575 C289.283175,4.314825 289.251675,4.734075 289.251675,5.224575 C289.251675,6.204075 289.372425,6.917325 289.613925,7.361325 C289.856175,7.806075 290.172675,8.028075 290.564175,8.028075 M290.564175,8.721075 C289.885425,8.721075 289.356675,8.419575 288.978675,7.818075 C288.600675,7.215825 288.411675,6.351825 288.411675,5.224575 C288.411675,4.097325 288.600675,3.240075 288.978675,2.652075 C289.356675,2.064075 289.885425,1.770075 290.564175,1.770075 C291.236175,1.770075 291.761925,2.064075 292.139925,2.652075 C292.517175,3.240075 292.706175,4.097325 292.706175,5.224575 C292.706175,6.351825 292.517175,7.215825 292.139925,7.818075 C291.761925,8.419575 291.236175,8.721075 290.564175,8.721075" id="Fill-50" fill="#848484" mask="url(#mask-2)"></path>
                    <path d="M295.3623,8.028075 C295.5588,8.028075 295.7358,7.974075 295.89255,7.865325 C296.0508,7.757325 296.1873,7.588575 296.3028,7.361325 C296.4183,7.134075 296.50755,6.843075 296.57055,6.489825 C296.63355,6.136575 296.6643,5.714325 296.6643,5.224575 C296.6643,4.734075 296.63355,4.314825 296.57055,3.964575 C296.50755,3.614325 296.4183,3.328575 296.3028,3.108075 C296.1873,2.887575 296.0508,2.725575 295.89255,2.620575 C295.7358,2.514825 295.5588,2.463075 295.3623,2.463075 C295.16655,2.463075 294.9888,2.514825 294.82755,2.620575 C294.6663,2.725575 294.5283,2.887575 294.4128,3.108075 C294.2973,3.328575 294.20805,3.614325 294.14505,3.964575 C294.08205,4.314825 294.0498,4.734075 294.0498,5.224575 C294.0498,6.204075 294.1713,6.917325 294.4128,7.361325 C294.6543,7.806075 294.97155,8.028075 295.3623,8.028075 M295.3623,8.721075 C294.6843,8.721075 294.15555,8.419575 293.77755,7.818075 C293.39955,7.215825 293.21055,6.351825 293.21055,5.224575 C293.21055,4.097325 293.39955,3.240075 293.77755,2.652075 C294.15555,2.064075 294.6843,1.770075 295.3623,1.770075 C296.0343,1.770075 296.56005,2.064075 296.93805,2.652075 C297.3153,3.240075 297.5043,4.097325 297.5043,5.224575 C297.5043,6.351825 297.3153,7.215825 296.93805,7.818075 C296.56005,8.419575 296.0343,8.721075 295.3623,8.721075" id="Fill-51" fill="#848484" mask="url(#mask-2)"></path>
                    <path d="M300.1611,8.028075 C300.3576,8.028075 300.53385,7.974075 300.69135,7.865325 C300.84885,7.757325 300.9861,7.588575 301.10085,7.361325 C301.21635,7.134075 301.3056,6.843075 301.3686,6.489825 C301.4316,6.136575 301.4631,5.714325 301.4631,5.224575 C301.4631,4.734075 301.4316,4.314825 301.3686,3.964575 C301.3056,3.614325 301.21635,3.328575 301.10085,3.108075 C300.9861,2.887575 300.84885,2.725575 300.69135,2.620575 C300.53385,2.514825 300.3576,2.463075 300.1611,2.463075 C299.9646,2.463075 299.78685,2.514825 299.6256,2.620575 C299.46435,2.725575 299.32635,2.887575 299.21085,3.108075 C299.09535,3.328575 299.0061,3.614325 298.9431,3.964575 C298.8801,4.314825 298.8486,4.734075 298.8486,5.224575 C298.8486,6.204075 298.96935,6.917325 299.21085,7.361325 C299.45235,7.806075 299.7696,8.028075 300.1611,8.028075 M300.1611,8.721075 C299.48235,8.721075 298.95435,8.419575 298.57635,7.818075 C298.19835,7.215825 298.00935,6.351825 298.00935,5.224575 C298.00935,4.097325 298.19835,3.240075 298.57635,2.652075 C298.95435,2.064075 299.48235,1.770075 300.1611,1.770075 C300.8331,1.770075 301.3581,2.064075 301.7361,2.652075 C302.1141,3.240075 302.30235,4.097325 302.30235,5.224575 C302.30235,6.351825 302.1141,7.215825 301.7361,7.818075 C301.3581,8.419575 300.8331,8.721075 300.1611,8.721075" id="Fill-52" fill="#848484" mask="url(#mask-2)"></path>
                    <line x1="132.46215" y1="55.590075" x2="132.46215" y2="42.510825" id="Stroke-53" stroke="#636363" stroke-width="1.5" stroke-linecap="round" mask="url(#mask-2)"></line>
                    <path d="M132.46215,42.81225 C131.6784,43.596 130.1289,43.9695 129.0534,44.00025 C130.49715,42.9255 131.7564,41.52975 132.46215,39.84 C133.1379,41.52975 134.47365,42.864 135.8709,44.00025 C134.71965,43.908 133.32165,43.62675 132.46215,42.81225" id="Fill-54" fill="#636363" mask="url(#mask-2)"></path>
                    <polygon id="Fill-55" fill="#FFFFFF" mask="url(#mask-2)" points="136.77975 25.251 136.77975 21.9105 134.871 21.9105 134.871 23.3415 132.9615 21.43275 127.7115 26.682 128.66625 26.682 128.66625 31.93275 131.5305 31.93275 131.5305 27.6375 134.39325 27.6375 134.39325 31.93275 137.2575 31.93275 137.2575 26.682 138.2115 26.682"></polygon>
                </g>
            </g>
        </g>
    </g>
</svg>