<?xml version="1.0" encoding="utf-8"?>
<!-- Generator: Adobe Illustrator 22.1.0, SVG Export Plug-In . SVG Version: 6.00 Build 0)  -->
<svg version="1.1" id="Layer_1" xmlns="http://www.w3.org/2000/svg" xmlns:xlink="http://www.w3.org/1999/xlink" x="0px" y="0px"
	 viewBox="0 0 1258 1400" style="enable-background:new 0 0 1258 1400;" xml:space="preserve">
<style type="text/css">
	.st0{fill:#9D9DC6;}
	.st1{fill:#FFFFFF;}
	.st2{fill:#4D4D8C;stroke:#FFFFFF;stroke-width:1.2929;stroke-miterlimit:10;}
	.st3{fill:#E0E0E0;}
	.st4{fill:none;stroke:#D1D1D1;stroke-linecap:round;stroke-miterlimit:10;}
	.st5{fill:#212121;}
	.st6{font-family:'SourceSansPro-Semibold';}
	.st7{font-size:20px;}
	.st8{font-family:'SourceSansPro-Light';}
	.st9{font-size:16px;}
	.st10{font-size:22px;}
	.st11{fill:#4D4D8C;}
	.st12{font-family:'SourceSansPro-Regular';}
	.st13{font-size:36px;}
	.st14{fill:#510884;}
	.st15{fill:#3F3F3F;}
	.st16{font-size:56px;}
	.st17{fill:#380A6D;}
	.st18{font-size:14px;}
	.st19{fill:#848484;}
	.st20{clip-path:url(#SVGID_2_);}
	.st21{fill:#8888D8;}
	.st22{fill:#636393;stroke:#FFFFFF;stroke-width:1.2929;stroke-miterlimit:10;}
	.st23{fill:#BF56B8;}
	.st24{fill:none;}
	.st25{font-size:24px;}
	.st26{fill:#353535;}
	.st27{font-size:50px;}
	.st28{font-size:12px;}
	.st29{fill:none;stroke:#636363;stroke-width:2;stroke-linecap:round;stroke-miterlimit:10;}
	.st30{fill:#636363;}
	.st31{fill:#B7B7B7;}
	.st32{fill:#D3D3D3;}
	.st33{fill:#AAAAAA;}
	.st34{fill:#7C7C7C;}
	.st35{fill:#565656;}
	.st36{font-family:'SourceSansPro-Bold';}
	.st37{font-size:18px;}
	.st38{font-size:11px;}
	.st39{fill:#7A7A7A;}
	.st40{fill:none;stroke:#AAAAAA;stroke-width:0.7921;stroke-linecap:round;stroke-miterlimit:10;}
	.st41{fill:none;stroke:#AAAAAA;stroke-width:0.7921;stroke-linecap:round;stroke-miterlimit:10;stroke-dasharray:2.5279,2.5279;}
	.st42{fill:none;stroke:#AAAAAA;stroke-width:0.7921;stroke-linecap:round;stroke-miterlimit:10;stroke-dasharray:2.3764,2.3764;}
	.st43{font-size:15px;}
	.st44{font-size:34px;}
	.st45{fill:none;stroke:#FFFFFF;stroke-width:2.6418;stroke-miterlimit:10;}
	.st46{fill:none;stroke:#FFFFFF;stroke-width:2.6418;stroke-miterlimit:10;stroke-dasharray:5.2256,2.6128;}
	.st47{opacity:0.15;fill:none;stroke:#68095F;stroke-miterlimit:10;enable-background:new    ;}
	.st48{fill:none;stroke:#808080;stroke-miterlimit:10;}
	.st49{fill:#808080;}
</style>
<g>
	<g>
		<g>
			<g>
				<g>
					<path class="st0" d="M26,234.2c4.2-28.6,18.5-54.8,40.2-73.7c21.8-18.9,49.7-29.4,78.6-29.6v120L26,234.2z"/>
					<path class="st1" d="M144.2,131.5v118.6L26.7,233.6c4.3-28.2,18.4-54,39.9-72.7C88.2,142.2,115.7,131.8,144.2,131.5
						 M145.5,130.2c-60.6,0-111.8,44.5-120.2,104.5l120.2,16.9V130.2L145.5,130.2z"/>
				</g>
			</g>
		</g>
		<g>
			<g>
				<path class="st2" d="M145.5,251.6V130.2c67.1,0,121.4,54.4,121.4,121.4S212.5,373,145.5,373S24.1,318.6,24.1,251.6
					c0-6.4,0.3-10.5,1.2-16.9L145.5,251.6z"/>
			</g>
		</g>
	</g>
</g>
<g>
	<g>
		<g>
			<g>
				<g>
					<path class="st0" d="M338.4,616.1L437,780.2c-5.6,3.3-11.8,6.6-17.7,9.4L338.4,616.1z"/>
					<path class="st1" d="M344.2,627l92,153c-5.2,3.1-11,6.2-16.5,8.8L344.2,627 M332.6,605.2L419,790.5c6.2-2.9,13-6.5,18.9-10
						L332.6,605.2L332.6,605.2z"/>
				</g>
			</g>
		</g>
		<g>
			<g>
				<g>
					<path class="st0" d="M336.9,611.2l128.9,148.2c-8.7,7.6-17.8,14.1-27.7,20.1L336.9,611.2z"/>
					<path class="st1" d="M341.3,617.2l123.6,142.2c-8.4,7.2-17.1,13.5-26.6,19.3L341.3,617.2 M332.6,605.2l105.3,175.3
						c10.3-6.2,19.8-13.1,28.8-21L332.6,605.2L332.6,605.2z"/>
				</g>
			</g>
		</g>
		<g>
			<g>
				<g>
					<path class="st0" d="M335.6,607.7l173.2,100c-12.1,20.8-23.9,35.1-42,50.9L335.6,607.7z"/>
					<path class="st1" d="M338.6,610.1l169.3,97.7c-11.8,20.2-23.5,34.4-41,49.8L338.6,610.1 M332.6,605.2l134.2,154.3
						c18.6-16.2,30.6-30.8,42.9-52.1L332.6,605.2L332.6,605.2z"/>
				</g>
			</g>
		</g>
		<g>
			<g>
				<g>
					<path class="st0" d="M333.9,605.2l179-95.2c16.7,31.6,24.9,64.9,24.3,98.7c-0.6,33.9-9.9,66.8-27.7,97.8L333.9,605.2z"/>
					<path class="st1" d="M512.6,510.9c16.5,31.4,24.5,64.3,23.9,97.8s-9.8,66.1-27.3,96.9l-174-100.4L512.6,510.9 M513.1,509.1
						l-180.6,96l177.2,102.3C546,644.5,547.2,573.3,513.1,509.1L513.1,509.1z"/>
				</g>
			</g>
		</g>
		<g>
			<g>
				<g>
					<path class="st0" d="M333.2,401.3c37.8,0.1,74.1,9.9,104.8,28.4s56.4,45.8,74.3,79.2l-179.1,95.2L333.2,401.3L333.2,401.3z"/>
					<path class="st1" d="M333.8,401.9c18.7,0.1,36.9,2.5,54.3,7.2c17.5,4.8,34.2,11.8,49.5,21.1c15.3,9.2,29.4,20.6,41.8,33.9
						c12.3,13.1,23,28.1,31.9,44.5L333.8,603V401.9 M332.6,400.6v204.5l180.6-96C476.6,440.4,410.4,400.6,332.6,400.6L332.6,400.6z"
						/>
				</g>
			</g>
		</g>
		<g>
			<g>
				<g>
					<path class="st0" d="M138.9,541.5c27.9-85,103.6-140,193-140.3v203L138.9,541.5z"/>
					<path class="st1" d="M331.3,401.9v201.5l-191.6-62.2c13.7-41.3,38.9-76.1,73-100.9S287.8,402.2,331.3,401.9 M332.6,400.6
						c-90.1,0-166.7,55.6-194.5,141.3l194.5,63.2V400.6L332.6,400.6z"/>
				</g>
			</g>
		</g>
		<g>
			<g>
				<g>
					<path class="st0" d="M332.7,809.1c-38.3,0-75.7-10.7-108.3-31.1c-33.4-20.9-59.9-50.8-76.6-86.7
						c-22.7-48.8-25.8-97.4-9.3-148.5l193.6,62.9l86,184.5C391,802.7,362.3,809.1,332.7,809.1z"/>
					<path class="st1" d="M138.9,543.6l192.7,62.6l85.6,183.7c-26.8,12.3-55.2,18.5-84.5,18.5c-38.2,0-75.5-10.7-107.9-31
						c-33.3-20.8-59.7-50.7-76.4-86.4C125.8,642.6,122.7,594.4,138.9,543.6 M138,542c-16.8,51.7-13.8,100.4,9.2,149.6
						c34.7,74.4,108.5,118.1,185.5,118.1c28.9,0,58.3-6.2,86.3-19.2l-86.4-185.4L138,542L138,542z"/>
				</g>
			</g>
		</g>
	</g>
</g>
<g>
	<circle class="st1" cx="145.9" cy="251.4" r="91.9"/>
</g>
<g>
	<rect x="834" y="410.1" class="st3" width="396" height="13"/>
</g>
<g>
	<rect x="834" y="190.8" class="st3" width="396" height="13"/>
</g>
<line class="st4" x1="834" y1="433.8" x2="834" y2="398.8"/>
<line class="st4" x1="933" y1="433.6" x2="933" y2="398.6"/>
<line class="st4" x1="1032" y1="433.8" x2="1032" y2="398.8"/>
<line class="st4" x1="1131" y1="433.8" x2="1131" y2="398.8"/>
<line class="st4" x1="1230" y1="433.8" x2="1230" y2="398.8"/>
<g>
	<path class="st0" d="M1187,428.1H950c-2.8,0-5-2.2-5-5v-13c0-2.8,2.2-5,5-5h237c2.8,0,5,2.2,5,5v13
		C1192,425.9,1189.8,428.1,1187,428.1z"/>
</g>
<path class="st2" d="M1018,430.1h-63.9c-2.1,0-3.8-1.7-3.8-3.8v-19.5c0-2.1,1.7-3.8,3.8-3.8h63.9c2.1,0,3.8,1.7,3.8,3.8v19.6
	C1021.8,428.4,1020.1,430.1,1018,430.1z"/>
<g>
	<rect x="834" y="639.1" class="st3" width="396" height="13"/>
</g>
<line class="st4" x1="834" y1="662.8" x2="834" y2="627.8"/>
<line class="st4" x1="933" y1="662.6" x2="933" y2="627.6"/>
<line class="st4" x1="1032" y1="662.8" x2="1032" y2="627.8"/>
<line class="st4" x1="1131" y1="662.8" x2="1131" y2="627.8"/>
<line class="st4" x1="1230" y1="662.8" x2="1230" y2="627.8"/>
<g>
	<path class="st0" d="M1223,657.1H943c-2.8,0-5-2.2-5-5v-13c0-2.8,2.2-5,5-5h280c2.8,0,5,2.2,5,5v13
		C1228,654.9,1225.8,657.1,1223,657.1z"/>
</g>
<path class="st2" d="M1006.8,659.1h-46.1c-1.5,0-2.7-1.2-2.7-2.7v-21.7c0-1.5,1.2-2.7,2.7-2.7h46.1c1.5,0,2.7,1.2,2.7,2.7v21.7
	C1009.5,657.9,1008.3,659.1,1006.8,659.1z"/>
<g>
	<rect x="834" y="1086.2" class="st3" width="396" height="13"/>
</g>
<line class="st4" x1="834" y1="1109.8" x2="834" y2="1074.8"/>
<line class="st4" x1="1032" y1="1109.8" x2="1032" y2="1074.8"/>
<line class="st4" x1="1230" y1="1109.8" x2="1230" y2="1074.8"/>
<g>
	<rect x="834" y="856.2" class="st3" width="396" height="13"/>
</g>
<line class="st4" x1="834" y1="869.8" x2="834" y2="834.8"/>
<line class="st4" x1="933" y1="879.7" x2="933" y2="844.7"/>
<line class="st4" x1="1032" y1="879.8" x2="1032" y2="844.8"/>
<line class="st4" x1="1131" y1="879.8" x2="1131" y2="844.8"/>
<line class="st4" x1="1230" y1="879.8" x2="1230" y2="844.8"/>
<g>
	<path class="st0" d="M1195,874.2H843c-2.8,0-5-2.2-5-5v-13c0-2.8,2.2-5,5-5h352c2.8,0,5,2.2,5,5v13
		C1200,871.9,1197.8,874.2,1195,874.2z"/>
</g>
<path class="st2" d="M845.6,876.2h-3.3c-2.2,0-4-1.8-4-4v-19c0-2.2,1.8-4,4-4h3.3c2.2,0,4,1.8,4,4v19
	C849.6,874.4,847.8,876.2,845.6,876.2z"/>
<rect x="446" y="1065.1" class="st2" width="250" height="34"/>
<g>
	<text transform="matrix(1 0 0 1 431.0156 1181.8478)" class="st5 st6 st7">Total Population </text>
	<text transform="matrix(1 0 0 1 431.0156 1201.8478)" class="st5 st8 st9">Total population in this cluster</text>
</g>
<text transform="matrix(1 0 0 1 12.0156 924.8478)" class="st5 st6 st10">Number of People Experiencing </text>
<text transform="matrix(1 0 0 1 12.0156 946.8478)" class="st5 st6 st10">Homelessness</text>
<text transform="matrix(1 0 0 1 12.0156 966.8478)" class="st5 st8 st9">People experiencing homelssness on a single night </text>
<text transform="matrix(1 0 0 1 12.0156 986.8478)" class="st5 st8 st9">in Janurary in this cluster</text>
<text transform="matrix(1 0 0 1 11.0156 37.8478)" class="st11 st12 st13">Facts about Cluster 4</text>
<text transform="matrix(1 0 0 1 829.0156 327.8558)" class="st5 st6 st10">Rent</text>
<text transform="matrix(1 0 0 1 829.0156 347.8558)" class="st5 st8 st9">Range of median gross rents for areas within this cluster</text>
<text transform="matrix(1 0 0 1 838.0156 1221.8478)" class="st5 st6 st7">Beds Available</text>
<text transform="matrix(1 0 0 1 838.0156 1241.8478)" class="st5 st8 st9">Total sheltered and permanent beds available within this cluster</text>
<g>
	<g>
		<path class="st2" d="M245.8,1162.5c0,15.5-12.5,28-28,28s-28-12.5-28-28s12.5-28,28-28S245.8,1147.1,245.8,1162.5z"/>
		<g>
			<path class="st14" d="M245.9,1192.6h-18.6h-19h-18.6c-7.6,0-13.9,6.4-14,14.3c7.6,4.1,12.7,12.2,12.7,21.5c0,0,0.9,59.2,1.3,59.2
				v63.9c0,8,6.3,14.5,14,14.5s14-6.5,14-14.5c0,8,6.3,14.5,14,14.5s14-6.5,14-14.5v-63.9c7.7,0,14-6.5,14-14.5v-65.9
				C260,1199.2,253.7,1192.6,245.9,1192.6z"/>
		</g>
	</g>
	<g>
		<ellipse class="st2" cx="59.1" cy="1162.5" rx="28" ry="28"/>
		<g>
			<path class="st14" d="M87.1,1228.5c0-11,4.1-20.3,13.9-23.3c-0.9-7.1-6.8-12.6-13.9-12.6H68.5h-19H31c-7.7,0-14,6.5-14,14.5v65.9
				c0,8,6.3,14.5,14,14.5v63.9c0,8,6.3,14.5,14,14.5s14-6.5,14-14.5c0,8,6.3,14.5,14,14.5s14-6.5,14-14.5v-26.6v-96.3H87.1z"/>
		</g>
	</g>
	<path class="st2" d="M172.4,1145.3h-23.9h-24.4h-23.9c-9.9,0-18,8.4-18,18.7v84.6c0,10.3,8.1,18.7,18,18.7v82.1
		c0,10.3,8.1,18.7,18,18.7s18-8.4,18-18.7c0,10.3,8.1,18.7,18,18.7s18-8.4,18-18.7v-82.1c9.9,0,18-8.4,18-18.7V1164
		C190.4,1153.7,182.3,1145.3,172.4,1145.3z"/>
	<path class="st2" d="M172.2,1107.1c0,19.8-16.1,35.9-35.9,35.9s-35.9-16.1-35.9-35.9s16.1-35.9,35.9-35.9
		C156.1,1071.1,172.2,1087.2,172.2,1107.1z"/>
</g>
<text transform="matrix(1 0 0 1 273.9751 1222.6012)" class="st15 st12 st9">71% are</text>
<text transform="matrix(1 0 0 1 273.9751 1240.6012)" class="st15 st12 st9">individuals</text>
<text transform="matrix(1 0 0 1 273.9751 1156.0978)" class="st15 st12 st9">29% are</text>
<text transform="matrix(1 0 0 1 273.9751 1174.0978)" class="st15 st12 st9">in families</text>
<g>
	<text transform="matrix(1 0 0 1 13.8844 1047.8478)" class="st15 st8 st16">19,621 people </text>
</g>
<text transform="matrix(1 0 0 1 829.0156 548.8589)" class="st5 st6 st10">Rent as Percent of Income</text>
<text transform="matrix(1 0 0 1 829.0156 568.8589)" class="st5 st8 st9">Range of 20th percentile incomes to annualized rents for areas  </text>
<text transform="matrix(1 0 0 1 829.0156 588.8589)" class="st5 st8 st9">within this cluster</text>
<text transform="matrix(1 0 0 1 829.0156 109.8558)" class="st5 st6 st10">Income</text>
<text transform="matrix(1 0 0 1 829.0156 129.8558)" class="st5 st8 st9">Range of 20th percentile incomes for areas within this cluster</text>
<text transform="matrix(1 0 0 1 861.7709 251.5228)" class="st17 st6 st18">CLUSTER MEDIAN: $10,222</text>
<text transform="matrix(1 0 0 1 921.8657 173.5228)" class="st19 st12 st18">$10K</text>
<text transform="matrix(1 0 0 1 969.1157 173.5228)" class="st19 st12 st18">$15K</text>
<text transform="matrix(1 0 0 1 877.8149 173.5228)" class="st19 st12 st18">$5K</text>
<text transform="matrix(1 0 0 1 830.5649 173.5228)" class="st19 st12 st18">$0K</text>
<text transform="matrix(1 0 0 1 1110.8657 173.5228)" class="st19 st12 st18">$30K</text>
<text transform="matrix(1 0 0 1 1158.1157 173.5228)" class="st19 st12 st18">$35K</text>
<text transform="matrix(1 0 0 1 1016.3657 173.5228)" class="st19 st12 st18">$20K</text>
<text transform="matrix(1 0 0 1 1063.6157 173.5228)" class="st19 st12 st18">$25K</text>
<text transform="matrix(1 0 0 1 1205.3657 173.5228)" class="st19 st12 st18">$40K</text>
<line class="st4" x1="834" y1="214.8" x2="834" y2="179.8"/>
<line class="st4" x1="933" y1="214.6" x2="933" y2="179.6"/>
<line class="st4" x1="883.5" y1="214.6" x2="883.5" y2="179.6"/>
<line class="st4" x1="982.5" y1="214.6" x2="982.5" y2="179.6"/>
<line class="st4" x1="1081.5" y1="214.6" x2="1081.5" y2="179.6"/>
<line class="st4" x1="1180.5" y1="214.6" x2="1180.5" y2="179.6"/>
<line class="st4" x1="1032" y1="214.8" x2="1032" y2="179.8"/>
<line class="st4" x1="1131" y1="214.8" x2="1131" y2="179.8"/>
<line class="st4" x1="1230" y1="214.8" x2="1230" y2="179.8"/>
<g>
	<g>
		<defs>
			<polygon id="SVGID_1_" points="267.9,1381.8 9,1381.8 10.4,1182.8 269.3,1182.8 			"/>
		</defs>
		<clipPath id="SVGID_2_">
			<use xlink:href="#SVGID_1_"  style="overflow:visible;"/>
		</clipPath>
		<g class="st20">
			<g>
				<g>
					<path class="st21" d="M217.9,1190.2c-15.1,0-27.3-12.3-27.3-27.3s12.3-27.3,27.3-27.3c15.1,0,27.3,12.3,27.3,27.3
						S232.9,1190.2,217.9,1190.2z"/>
					<g>
						<path class="st1" d="M217.9,1136.1c14.7,0,26.7,12,26.7,26.7s-12,26.7-26.7,26.7s-26.7-12-26.7-26.7
							C191.2,1148.1,203.1,1136.1,217.9,1136.1 M217.9,1134.9c-15.5,0-28,12.5-28,28s12.5,28,28,28s28-12.5,28-28
							C245.8,1147.4,233.3,1134.9,217.9,1134.9L217.9,1134.9z"/>
					</g>
				</g>
				<path class="st22" d="M245.9,1193h-18.6h-19h-18.6c-7.6,0-13.9,6.4-14,14.3c7.6,4.1,12.7,12.2,12.7,21.5c0,0,0.9,59.2,1.3,59.2
					v63.9c0,8,6.3,14.5,14,14.5s14-6.5,14-14.5c0,8,6.3,14.5,14,14.5s14-6.5,14-14.5V1288c7.7,0,14-6.5,14-14.5v-65.9
					C260,1199.5,253.7,1193,245.9,1193z"/>
			</g>
			<g>
				<g>
					<path class="st21" d="M59.1,1190.2c-15.1,0-27.3-12.3-27.3-27.3s12.3-27.3,27.3-27.3c15.1,0,27.3,12.3,27.3,27.3
						S74.1,1190.2,59.1,1190.2z"/>
					<g>
						<path class="st1" d="M59.1,1136.1c14.7,0,26.7,12,26.7,26.7s-12,26.7-26.7,26.7s-26.7-12-26.7-26.7
							C32.4,1148.1,44.3,1136.1,59.1,1136.1 M59.1,1134.9c-15.5,0-28,12.5-28,28s12.5,28,28,28s28-12.5,28-28
							C87,1147.4,74.5,1134.9,59.1,1134.9L59.1,1134.9z"/>
					</g>
				</g>
				<path class="st22" d="M87.1,1228.8c0-11,4.1-20.3,13.9-23.3c-0.9-7.1-6.8-12.6-13.9-12.6H68.5h-19H31c-7.7,0-14,6.5-14,14.5
					v65.9c0,8,6.3,14.5,14,14.5v63.9c0,8,6.3,14.5,14,14.5s14-6.5,14-14.5c0,8,6.3,14.5,14,14.5s14-6.5,14-14.5v-26.6v-96.3H87.1z"
					/>
			</g>
			<path class="st22" d="M172.4,1145.6h-23.9h-24.4h-23.9c-9.9,0-18,8.4-18,18.7v84.6c0,10.3,8.1,18.7,18,18.7v82.1
				c0,10.3,8.1,18.7,18,18.7s18-8.4,18-18.7c0,10.3,8.1,18.7,18,18.7s18-8.4,18-18.7v-82.1c9.9,0,18-8.4,18-18.7v-84.6
				C190.4,1154,182.3,1145.6,172.4,1145.6z"/>
			<g>
				<path class="st23" d="M172.2,1107.4c0,19.8-16.1,35.9-35.9,35.9s-35.9-16.1-35.9-35.9s16.1-35.9,35.9-35.9
					C156.1,1071.4,172.2,1087.5,172.2,1107.4z"/>
			</g>
		</g>
	</g>
</g>
<g>
	<polygon class="st24" points="533,137.8 14,137.8 13,86.8 532,86.8 	"/>
	<text transform="matrix(1 0 0 1 13.3198 102.38)" class="st5 st6 st10">Federal Spending on Homelessness</text>
</g>
<g>
	<path class="st2" d="M961.9,1341.3c0,3.6,0,7,0,10.5c0,2.3,1.2,3.3,3.4,3.3c2.9,0,5.8,0,8.7,0c2.7,0,3.7-1,3.7-3.8
		c0-7,0-13.9,0-20.9c0-4.9-0.2-5.1-5-5.1c-37.7,0-75.5,0-113.2,0c-1.1,0-2.2,0-3.5,0c0-1.4,0-2.4,0-3.4c0-14,0-28,0-42.1
		c0-2.7-0.5-5.1-2.6-7c-2.6-2.3-5.6-2.6-8.6-1.4c-3.2,1.3-4.7,4.1-4.7,7.5c0,9.9,0,19.7,0,29.6c0,14.1,0,28.2,0,42.3
		c0,3.2,0.9,4.1,4.1,4.1c2.4,0,4.8,0,7.2,0c3.7,0,4.5-0.8,4.6-4.5c0-3.1,0-6.2,0-9.4C891.4,1341.3,926.4,1341.3,961.9,1341.3z
		 M898.9,1321.1c1,0.1,1.5,0.2,2.1,0.2c21.8,0,43.6,0,65.4,0c1.9,0,2.5-0.8,2.6-2.4c0.1-3.4,0.4-6.8,0.1-10.2
		c-0.8-11-9.1-18.9-20.1-19c-16-0.2-32,0-48-0.1c-1.7,0-2.1,0.6-2.1,2.2c0.1,5.4,0,10.8,0,16.2
		C898.9,1312.2,898.9,1316.5,898.9,1321.1z M884.8,1311.8c-1.2,0-2.1,0-3,0c-5.6,0-11.3,0-16.9,0c-2.8,0-4.7,1.9-4.8,4.7
		c-0.1,2.8,1.8,5.1,4.6,5.1c8.4,0.1,16.7,0.1,25.1,0c2.7,0,4.7-2.1,4.8-4.8c0.1-7.5,0.1-14.9,0-22.4c0-2.7-2.4-4.9-5-4.8
		c-2.5,0.1-4.7,2.1-4.8,4.8c-0.1,4.8,0,9.6-0.1,14.4C884.8,1309.7,884.8,1310.6,884.8,1311.8z M870.6,1307c6.7,0,12-5.1,11.9-11.6
		c0-6.4-5.3-11.7-11.7-11.7c-6.6,0-11.9,5.2-11.9,11.7C859,1301.9,864.1,1307,870.6,1307z"/>
	<path class="st2" d="M961.9,1341.3c-35.4,0-70.5,0-105.9,0c0,3.1,0,6.3,0,9.4c0,3.7-0.8,4.5-4.6,4.5c-2.4,0-4.8,0-7.2,0
		c-3.2,0-4.1-0.9-4.1-4.1c0-14.1,0-28.2,0-42.3c0-9.9,0-19.7,0-29.6c0-3.5,1.5-6.2,4.7-7.5c3-1.2,6-0.9,8.6,1.4
		c2.1,1.9,2.6,4.3,2.6,7c0,14,0,28,0,42.1c0,1,0,2,0,3.4c1.3,0,2.4,0,3.5,0c37.7,0,75.5,0,113.2,0c4.8,0,5,0.2,5,5.1
		c0,7,0,13.9,0,20.9c0,2.8-1,3.7-3.7,3.8c-2.9,0-5.8,0-8.7,0c-2.2,0-3.4-1-3.4-3.3C961.9,1348.3,961.9,1344.8,961.9,1341.3z"/>
	<path class="st2" d="M898.9,1321.1c0-4.5,0-8.8,0-13.1c0-5.4,0-10.8,0-16.2c0-1.6,0.4-2.2,2.1-2.2c16,0.1,32-0.1,48,0.1
		c11,0.1,19.3,8,20.1,19c0.3,3.4,0,6.8-0.1,10.2c0,1.6-0.7,2.5-2.6,2.4c-21.8-0.1-43.6,0-65.4,0
		C900.4,1321.3,899.8,1321.2,898.9,1321.1z"/>
	<path class="st2" d="M884.8,1311.8c0-1.2,0-2.1,0-3c0-4.8,0-9.6,0.1-14.4c0.1-2.6,2.3-4.7,4.8-4.8c2.6-0.1,5,2.1,5,4.8
		c0.1,7.5,0.1,14.9,0,22.4c0,2.7-2.1,4.7-4.8,4.8c-8.4,0.1-16.7,0.1-25.1,0c-2.8,0-4.7-2.3-4.6-5.1c0.1-2.7,1.9-4.6,4.8-4.7
		c5.6-0.1,11.3,0,16.9,0C882.8,1311.8,883.7,1311.8,884.8,1311.8z"/>
	<path class="st2" d="M870.6,1307c-6.5,0-11.7-5.2-11.6-11.6c0-6.5,5.3-11.7,11.9-11.7c6.4,0,11.7,5.3,11.7,11.7
		C882.6,1301.9,877.3,1307.1,870.6,1307z"/>
</g>
<g>
	<text transform="matrix(1 0 0 1 552.2751 1090.8478)" class="st1 st6 st25">52</text>
</g>
<g>
	<text transform="matrix(1 0 0 1 431.0156 925.8478)" class="st5 st6 st10">Population Density</text>
	<text transform="matrix(1 0 0 1 431.0156 945.8478)" class="st5 st8 st9">Number of people per square mile in this cluster</text>
</g>
<text transform="matrix(1 0 0 1 996.6825 1350.9062)" class="st26 st8 st27">16,782 beds</text>
<text transform="matrix(1 0 0 1 829.0156 773.8757)" class="st5 st6 st10">Land Area</text>
<text transform="matrix(1 0 0 1 829.0156 793.8757)" class="st5 st8 st9">Range of land area in square miles for areas within this cluster</text>
<g>
	<text transform="matrix(1 0 0 1 833.721 919.5411)" class="st17 st6 st18">CLUSTER MEDIAN: 16,128</text>
</g>
<text transform="matrix(1 0 0 1 831.5366 826.5343)" class="st19 st12 st18">0</text>
<text transform="matrix(1 0 0 1 1204.3657 836.5423)" class="st19 st12 st18">600K</text>
<text transform="matrix(1 0 0 1 1023.3657 836.5423)" class="st19 st12 st18">300K</text>
<text transform="matrix(1 0 0 1 1118.3657 836.5423)" class="st19 st12 st18">450K</text>
<text transform="matrix(1 0 0 1 918.3657 836.5423)" class="st19 st12 st18">150K</text>
<g>
	<text transform="matrix(1 0 0 1 922.4621 699.5259)" class="st17 st6 st18">CLUSTER MEDIAN: 81%</text>
</g>
<text transform="matrix(1 0 0 1 831.0488 621.5259)" class="st19 st12 st18">0%</text>
<text transform="matrix(1 0 0 1 924.8496 621.5259)" class="st19 st12 st18">50%</text>
<text transform="matrix(1 0 0 1 1119.6509 621.5259)" class="st19 st12 st18">150%</text>
<text transform="matrix(1 0 0 1 1016.6509 621.5259)" class="st19 st12 st18">100%</text>
<text transform="matrix(1 0 0 1 1205.6509 621.5259)" class="st19 st12 st18">200%</text>
<text transform="matrix(1 0 0 1 922.3258 471.5228)" class="st17 st6 st18">CLUSTER MEDIAN: $703</text>
<text transform="matrix(1 0 0 1 1013.2778 392.5228)" class="st19 st12 st18">$1,000</text>
<text transform="matrix(1 0 0 1 830.338 392.5228)" class="st19 st12 st18">$0</text>
<text transform="matrix(1 0 0 1 1199.2778 392.5228)" class="st19 st12 st18">$2,000</text>
<text transform="matrix(1 0 0 1 829.0156 997.8778)" class="st5 st6 st10">Property Crime Rate</text>
<text transform="matrix(1 0 0 1 829.0156 1017.8778)" class="st5 st8 st9">Range of property crime incidents per 100K people for areas  </text>
<text transform="matrix(1 0 0 1 829.0156 1037.8778)" class="st5 st8 st9">within this cluster</text>
<g>
	<text transform="matrix(1 0 0 1 882.6802 1149.5431)" class="st17 st6 st18">CLUSTER MEDIAN: 3,542</text>
</g>
<text transform="matrix(1 0 0 1 830.5327 1068.5448)" class="st19 st12 st18">0</text>
<text transform="matrix(1 0 0 1 1218.5737 1068.5448)" class="st19 st12 st18">10K</text>
<text transform="matrix(1 0 0 1 1024.9304 1069.0448)" class="st19 st12 st18">5K</text>
<line class="st4" x1="873.6" y1="1109.8" x2="873.6" y2="1074.8"/>
<text transform="matrix(1 0 0 1 867.428 1069.0448)" class="st19 st12 st18">1K</text>
<line class="st4" x1="913.2" y1="1109.8" x2="913.2" y2="1074.8"/>
<text transform="matrix(1 0 0 1 906.4256 1069.0448)" class="st19 st12 st18">2K</text>
<line class="st4" x1="952.8" y1="1109.8" x2="952.8" y2="1074.8"/>
<text transform="matrix(1 0 0 1 946.4209 1069.0448)" class="st19 st12 st18">3K</text>
<line class="st4" x1="992.4" y1="1109.8" x2="992.4" y2="1074.8"/>
<text transform="matrix(1 0 0 1 985.4241 1069.0448)" class="st19 st12 st18">4K</text>
<line class="st4" x1="1071.6" y1="1109.8" x2="1071.6" y2="1074.8"/>
<text transform="matrix(1 0 0 1 1064.4304 1069.0448)" class="st19 st12 st18">6K</text>
<line class="st4" x1="1111.2" y1="1109.8" x2="1111.2" y2="1074.8"/>
<text transform="matrix(1 0 0 1 1103.9241 1069.0448)" class="st19 st12 st18">7K</text>
<line class="st4" x1="1150.8" y1="1109.8" x2="1150.8" y2="1074.8"/>
<text transform="matrix(1 0 0 1 1142.9216 1069.0448)" class="st19 st12 st18">8K</text>
<line class="st4" x1="1190.4" y1="1109.8" x2="1190.4" y2="1074.8"/>
<text transform="matrix(1 0 0 1 1183.4343 1069.0448)" class="st19 st12 st18">9K</text>
<text transform="matrix(1 0 0 1 1209.0156 900.2032)" class="st12 st28"> </text>
<g>
	<g>
		<line class="st29" x1="989.5" y1="683.3" x2="989.5" y2="665.9"/>
		<g>
			<path class="st30" d="M989.5,666.3c-1,1-3.1,1.5-4.5,1.6c1.9-1.4,3.6-3.3,4.5-5.5c0.9,2.3,2.7,4,4.5,5.5
				C992.5,667.7,990.7,667.4,989.5,666.3z"/>
		</g>
	</g>
</g>
<g>
	<g>
		<line class="st29" x1="842" y1="904.2" x2="842" y2="882.7"/>
		<g>
			<path class="st30" d="M842,883.1c-1,1-3.1,1.5-4.5,1.6c1.9-1.4,3.6-3.3,4.5-5.5c0.9,2.3,2.7,4,4.5,5.5
				C845,884.6,843.1,884.2,842,883.1z"/>
		</g>
	</g>
</g>
<g>
	<g>
		<line class="st29" x1="956" y1="1134.2" x2="956" y2="1112.7"/>
		<g>
			<path class="st30" d="M956,1113.1c-1,1-3.1,1.5-4.5,1.6c1.9-1.4,3.6-3.3,4.5-5.5c0.9,2.3,2.7,4,4.5,5.5
				C959,1114.6,957.1,1114.2,956,1113.1z"/>
		</g>
	</g>
</g>
<g>
	<g>
		<line class="st29" x1="938.4" y1="236.1" x2="938.4" y2="218.7"/>
		<g>
			<path class="st30" d="M938.4,219.1c-1,1-3.1,1.5-4.5,1.6c1.9-1.4,3.6-3.3,4.5-5.5c0.9,2.3,2.7,4,4.5,5.5
				C941.4,220.6,939.6,220.2,938.4,219.1z"/>
		</g>
	</g>
</g>
<g>
	<g>
		<line class="st29" x1="989" y1="455.1" x2="989" y2="437.7"/>
		<g>
			<path class="st30" d="M989,438.1c-1,1-3.1,1.5-4.5,1.6c1.9-1.4,3.6-3.3,4.5-5.5c0.9,2.3,2.7,4,4.5,5.5
				C992,439.6,990.1,439.2,989,438.1z"/>
		</g>
	</g>
</g>
<g>
	<g>
		<path class="st31" d="M723,1254.9v-0.3c0,0-0.1,0.1-0.1,0.2c0-0.2-0.1-0.3-0.2-0.4c-0.2,0.4-0.7-0.2-0.3-0.4c0.1,0,0.1,0,0.2-0.1
			l0,0v-0.1h-0.1l-0.1-0.2v-0.1h-0.1l-0.1-0.2v-0.1l0,0l-0.1-0.2l0,0H722h-0.1v0.1l-0.2,0.1h-0.3l-0.2-0.1l-0.1-0.1l-0.1-0.1
			l-0.1-0.2l-0.1-0.2l0,0l-0.1-0.1v-0.1l-0.1-0.1l-0.1-0.2v-0.2l0.1-0.2h0.1v-0.1l0.1-0.2l-0.2-0.1l-0.1-0.2v-0.5l0.1-0.2l0.1-0.1
			h-0.4l-0.2-0.1l-0.1-0.1h-0.2l-0.2-0.1v-0.1h-0.1v-0.1h-0.1l-0.2-0.1l-0.2-0.2l-0.1-0.1h-0.1l-0.1-0.2l0.1-0.2l-0.1-0.2v-0.2
			l0.1-0.2h0.1v-0.1v-0.3v-0.1v-0.1v-7.8c-0.1,0-0.1-0.1-0.1-0.1h-0.1l-0.2-0.1v-0.1l-0.1-0.1l-0.1-0.1h-0.1l-0.1-0.2v-0.1H718
			l-0.1-0.1l-0.1-0.1v-0.1h-0.1l-0.2-0.1l-0.1-0.1l-0.1-0.1v-0.1h-0.1l-0.2-0.1l-0.1-0.1h-0.1v-0.1h-0.1l-0.2-0.1v-0.1h-0.1v0.2
			l-0.1,0.2l-0.2,0.1h-0.5h-0.1h-0.1h-0.2l-0.1,0.1H715l-0.1,0.1l-0.2,0.1h-0.5l-0.1,0.1l-0.2,0.1h-0.1v0.1l-0.2,0.1h-0.3l-0.2-0.1
			v-0.1H713l-0.2-0.1l-0.1-0.1h0.3l-0.2-0.1l-0.1-0.2l0,0l-0.1-0.1v-0.1l-0.1-0.1v-0.6h-0.1l-0.1-0.1l-0.2-0.1l-0.2,0.2l-0.2,0.3
			l0,0l-0.3,0.5v0.1l-0.3,0.3l0,0l-0.3,0.3l-0.3,0.3l-0.3,0.5l0,0l-0.3,0.3l-0.3,0.5l-0.3,0.5l-0.3,0.5l-0.1,0.1l-0.3,0.3l-0.3,0.3
			l-0.3,1.8v0.1l-0.1,0.2l-0.2,0.1h-0.1v0.1h-0.1v0.1h-0.1v0.1l-0.1,0.3l-0.2,0.1l0,0v0.2l-0.1,0.2l0.1,0.1c0.1,0,0.1,0.1,0.2,0.2
			c0,0.1,0,0.3-0.1,0.4l-0.1,0.1l0,0l-0.1,0.2h-0.1v0.1l-0.1,0.2l0.2,0.1l0.1,0.2v0.5l-0.1,0.2l-0.1,0.1v0.1h-0.1l-0.1,0.2l-0.2,0.1
			l0,0l-0.1,0.1l0,0l0,0c0.1,0.1,0.1,0.2,0.1,0.4c0,0.1-0.1,0.1-0.2,0.2v0.1h-0.1l-0.1,0.1l-0.2,0.1h-0.1l-0.1,0.1l-0.2,0.1h-0.1
			v0.1h-0.1v0.1l-0.2,0.1l0,0l0,0l-0.1,0.2h-0.1c0,0.1,0,0.1-0.1,0.2l0,0h0.1v0.1h0.1l0.1,0.2h0.1l0.1,0.2v0.2l-0.1,0.2l-0.2,0.1
			h-0.4l-0.2-0.1l0,0v0.1v0.2l-0.1,0.2l-0.1,0.2l0,0v0.1l-0.1,0.2l-0.2,0.1h-0.2l-0.2-0.1l-0.1-0.2v-0.1h-0.1v-0.2h-0.1v0.1
			l-0.2,0.1l0,0l0,0l-0.1,0.2l-0.2,0.1h-0.3l-0.2-0.1l-0.1-0.1l0,0l-0.2-0.1v-0.1l-0.1,0.1l-0.1,0.1v0.1h-0.1v0.3l-0.1,0.2h-0.1v0.1
			l-0.1,0.2h-0.1l-0.1,0.1l-0.1,0.1v0.2c0,0.2-0.1,0.3-0.3,0.3h-1.2l-0.2,0.1h-0.1h-3.7l-0.2-0.1l-0.1-0.1h-3.5l-0.4,0.1h-0.1h-6.9
			h-0.1l0,0h-0.1v0.1l-0.2,0.1h-0.3v0.1l-0.2,0.1l0,0l-0.1,0.1l-0.2,0.1h-0.2v0.1l-0.1,0.1l-0.1,0.1l-0.2,0.1h-0.2l-0.1,0.1
			l-0.1,0.1v0.1l-0.2,0.2c-0.1,0.1-0.1,0.1-0.1,0.1l-0.1,0.1l-0.2,0.1h-0.1c0,0.1-0.1,0.1-0.1,0.1l-0.2,0.1l-0.1,0.1l-0.5,0.5
			l-0.1,0.1l-0.3,0.2v0.1l0,0l-0.1,0.2l-0.2,0.1h-0.1l0,0l-0.1,0.3l-0.1,0.1l-0.1,0.2l-0.1,0.3l-0.1,0.2l-0.3,0.1l-0.1,0.1l-0.2,0.1
			h-0.2l-0.1,0.2c-0.1,0.1-0.1,0.2-0.2,0.2h-0.2v0.2l-0.1,0.2l-0.2,0.1H677l-0.1,0.1l-0.2,0.1l-0.1,0.2l-0.1,0.1l-0.3,0.3l-0.6,0.8
			l-0.6,1.2l0,0l-0.6,1.1l-0.3,0.1h-9.4l-1.2,0.5l-1,0.5l0.4,0.9l0.1,0.1l0.1,0.2v0.9l0,0l0,0l0,0c0.1,0.1,0.1,0.1,0.1,0.2
			c0.2,0,0.3,0.1,0.3,0.2s0,0.2,0,0.4l0.1,0.1l0.1,0.2v0.3v0.1l-0.1,0.3c0.1,0.2,0.1,0.4-0.1,0.6c-1.4,1.1-2.8,2.2-4.2,3.3
			c-2.4,1.9-5.6,2.1-8.1,3.8c-0.4,0.3-0.7,0.7-1.1,1c-0.9,0.7-1.9,0.6-3,0.8c-0.4,0.1-0.9,0.3-1.3,0.4c-0.9,0.1-2.2-0.1-3-0.4
			c0.4-0.3,0.9-0.2,1.3-0.4c0.4-0.2,0.5-0.2-0.2-0.4c-1.1-0.4-2.2-0.8-3.3-1.2c0.5-0.9,0.9-1.8,1.4-2.6l0,0v-0.7l0.1-0.2l0.1-0.1
			v-0.2l0.1-0.2l0.2-0.1l0,0l0.1-0.1l0.2-0.1h0.1c0.3-0.5,0.5-1,0.8-1.4c0.4-0.8,0.8-0.8,1,0h0.1c0.2-0.5,0.3-0.9,0.5-1.4v-0.8
			l0.1-0.2l0.1-0.1v-0.1l0.1-0.2l0.1-0.1v-0.1v-0.1v-0.1c0-0.1-0.1-0.3-0.2-0.6c0-0.3-0.1-0.6-0.2-0.8c-0.1-0.6-0.1-1.1-0.3-1.7
			c-0.2-1-0.2-2.5-0.9-3.3c-1-1.1-2.1,0-3.1,0.7c-0.5,0.3-2.3,1.8-2.7,1.3c-0.2-0.2-0.1-0.7,0-0.9c0-0.2,0.1-0.6,0.2-0.8
			c0.4-0.6,1.1-0.3,1.5-0.8c0.2-0.3,0.1-0.7,0.2-1c0.2-0.5,0.7-0.4,1-0.8c0.3-0.5,0.3-2.4,0.2-3c-0.1-0.8-1.6-2.5,0.1-1.9
			c0-0.6-0.3-0.6-0.5-1.1c-0.1-0.3-0.1-0.6-0.2-0.7c-0.2-0.4-1.2-0.7-1.6-0.9c-0.6-0.2-1.2-0.3-1.7-0.6c-0.5-0.2-0.6-1-1.3-1.1
			c-0.4-0.1-0.7,0-1.1-0.1c-0.3-0.2-0.5-0.5-0.9-0.6c-0.3-0.1-1.2-0.3-1.4,0c-0.4,0.4-0.6,2.5,0.3,2.5c-0.6,0.5-1.4,0.1-2,0.7
			c-0.5,0.5-0.3,1.3-0.4,2.1c-0.1,0.8-0.3,0-0.6,0.2c-0.2,0.1-0.4,1.1-0.5,1.3c-0.3-0.4,0-0.9,0.1-1.3c-0.1,0-0.1,0-0.1,0
			c0-0.3,0.4-1.5,0-1.4c-0.1,0-0.5,0.7-0.6,0.9c-0.1,0.2-0.2,0.6-0.4,0.7s-0.3-0.2-0.4-0.1c-0.1,0-0.2,0.2-0.3,0.3
			c-0.1,0-0.4,0-0.4,0c-0.2,0.3-0.3,0.9-0.5,1.2c-0.1,0.1-0.3,0.1-0.4,0.2c-0.7,1-0.8,2.9-1.2,4.1c-0.2,0.7,0.2,1.2,0.2,2
			c0.1,0.9-0.3,1.8-0.1,2.7c0.1,0.5,0.4,1.6,1,1.1c0,0.8,0,1.2,0.2,1.8c0.1,0.4,0,0.8,0,1.2c0,2.7-1.9,5-3.1,7.2c0.3,0,0.8-0.1,1,0
			c0.3,0.1,0.5,0.7,0.5,1.1c0-0.6-0.4-1.1-0.9-1.1c-0.9-0.1-1.5,0.7-2.3,0.9c-0.6,0.1-1.6-0.2-1.8-0.8c-0.7-1.7-1.4-2.9-1.3-4.7
			c0.1-1.5-0.3-3.1-0.4-4.6c-0.1-0.7,0-1.1,0.2-1.8c0.3-1.2,0.3-2.5,0.7-3.6c0.2-1,0.7-1.8,0.9-2.8c0.2-0.9,0.5-1.7,0.8-2.5
			c0.1-0.2,0.1-0.7,0-1c0.4,0.3,1.1-0.6,1.2-0.9c0.4-0.8,0.4-1.2,0.3-2.2c-0.2,0.4-0.3,0.6-0.5,0.9c-0.1,0.1-0.2,0-0.4,0.2
			c-0.1,0.1,0,0.5-0.1,0.6c0,0.1-0.3,0.2-0.3,0.4c-0.1,0.2-0.4,0.8-0.1,1c-0.1-0.1-0.1-0.1-0.2-0.1c-0.3-0.1-1,0.3-1.2,0.7
			c-0.4,0.6-0.5,1-1.1,1.3c-0.2,0.1,0,0.4-0.4,0.2c-0.3-0.2-0.2-0.2-0.2-0.6c0.1-0.4,0.3-0.7,0.5-1c0.1-0.3,0.3-0.9,0.5-1.1
			c0.1-0.1,0.3,0,0.4-0.1c0.3-0.3,0.6-0.7,0.8-1.1c0.2-0.7,0.7-1.3,1.1-1.9c0.2-0.4,0.4-0.7,0.6-1.2c-0.1,0-0.2,0-0.2-0.1
			c0.1,0.1,0.2,0,0.4-0.2c0.7-0.5,0.8-1.4,1.1-2.2c0,0.5,0,1,0,1.6c0.3-0.1,0.6-0.3,0.8-0.6c0-0.1,0.1-0.5,0.2-0.5
			c-0.2,0.1,1.1-0.2,1-0.3c0.8,0.5-1.4,1.5-0.3,2c0.3-0.6,0.4-0.8,0.8-1.1c0.1-0.1,0.4-0.1,0.5-0.2s0.1-0.4,0.2-0.5
			c0.5-0.8,1.3-0.8,2.1-0.4c0-0.6,1.1-0.3,1.5-0.5c0.2-0.2,0.3-0.6,0.6-0.7s0.8,0,1,0.1c0.4,0.1,0.9,0.2,1.2,0.4
			c0.4,0.2,1,1.2,1.4,1.2c0.5,0,0.1-1.2,0.6-1.4c0.4-0.1,1.1,0.3,1.6,0.3c0.4,0.1,0.8,0.1,1.2,0.2c0.2,0,1,0.3,1.1-0.1v-0.1l0,0
			h-0.1c-0.2,0-0.2,0-0.3-0.2l-0.1-0.3l-0.1-0.2l0,0H638c0-0.1,0-0.1,0-0.1l-0.2-0.1l-0.1-0.1l-0.2-0.2l-0.1-0.2v-0.1
			c-0.1-0.1-0.2-0.2-0.3-0.2c0.1-0.1-0.2-1-0.4-1.3c0,0,0-0.1-0.1-0.1H636l-0.1,0.2c-0.1,0.1-0.2,0.2-0.3,0.2h-0.5l-0.2-0.1
			l-0.8-1.1c-0.3-0.1-0.7-0.2-1-0.2c-0.6,0-0.2-1,0.1-1.2c-0.8-0.1-1.6,0.2-2.4,0.3c-1.3,0.2-2.5,0.4-3.8,0.6
			c-0.4,0.1-0.8,0.3-1.2,0.5c-0.3,0.2-0.6,0.6-0.9,0.7c-0.5,0.3-0.9-0.1-1.5-0.3c-0.8-0.4-1.7-0.2-2.5-0.5c0-0.1-0.9-1.4-1.1-1.6
			c-0.7-0.9-1.8-0.8-2.8-1c0.1-0.1,0.1-0.2,0.1-0.2c-0.6,0.3-1.2,0.8-1.6,1.4c-0.1-0.5,0.2-1,0.1-1.4c0-0.2-0.3-0.7-0.3-0.8
			c-0.2-0.2-0.5-0.4-0.6-0.6c-0.1-0.1,0.1-0.3,0-0.4c-0.2-0.2-1.1,0.5-1.4,0.7c-1.6,0.8-3.1,1.6-4.6,2.5l0,0l0,0
			c-0.9,0.5-1.8,1-2.7,1.4c-0.4,0.2-1.8-0.8-2.3-1c-0.3-0.2,0.4-0.8,0.4-1.1c0-1.1-2.5,0.3-3,0.5s-1,0.5-1.6,0.7
			c-0.7,0.2-1.4-0.1-2.1-0.3c1.7-1.6,3.5-3.2,5.2-4.8c0.7-0.7,1.3-1.2,2.2-1.7c1.4-0.7,3-1.3,4.6-2.1l-0.1-0.1l-0.1-0.1h-0.1v0.1
			l-0.2,0.1h-0.1v0.1l-0.2,0.1l-0.2-0.1v-0.1h-0.2l-0.2-0.1l-0.1-0.2v-0.1h-0.1c-0.4-0.1-0.8-0.1-1.3-0.3c0.4,0.1,0.8,0.1,1.2,0.1
			l-0.1-0.1v-0.1h-0.1l-0.1-0.1h-0.6l-0.1,0.1l-0.2,0.1h-1.2l-0.1-0.1l-0.2,0.1h-0.8l-0.2-0.1v-0.1l-0.1-0.1l-0.1-0.2v-0.1h-0.1
			l-0.1-0.3l0,0h-0.1h-0.2v0.1l-0.2,0.1H603v0.1l-0.2,0.1h0.2v0.1l-0.2,0.1l0,0l-0.1,0.1l-0.1,0.1l-0.1,0.1h-0.1v0.1l-0.2,0.1h-0.4
			v0.1l-0.2,0.1h-1.1l-0.2-0.1v-0.2l0,0h-0.4l-0.2-0.1l-0.1-0.2v-0.2v-0.1l-0.1-0.1v-0.1H599l-0.2-0.1l-0.1-0.1h-0.2l-0.2-0.1v-0.1
			h-0.1l-0.1-0.1l-0.1-0.1l-0.1-0.2v-0.2h-0.3h-0.1c-0.1,0-0.1,0-0.1,0h-0.3v0.4c0,0.1-0.1,0.2-0.2,0.3v0.1l-0.2,0.1h-0.1l-0.2-0.1
			l-0.1-0.1h-0.1l-0.1-0.2v-0.1l0,0l-0.1-0.1c-0.1,0-0.2-0.1-0.2-0.3v-0.4l-0.1-0.1v-0.1h-0.8l-0.2-0.1l-0.1-0.2v-0.4l0,0l-0.1-0.1
			l-0.1-0.1h-0.2l-0.2-0.1l-0.1-0.1h-0.1l-0.2-0.1l-0.1-0.1l0,0l-0.2-0.1v-0.1l-0.1,0.1l-0.2,0.1h-0.5l-0.2-0.1v-0.1h-0.5l-0.1,0.1
			l-0.2,0.1h-0.2c0,0,0,0-0.1,0h-0.1H591v0.2l-0.1,0.2l-0.2,0.1h-0.5l-0.1,0.1c-0.1,0.1-0.2,0.1-0.3,0.1h-0.1h-0.8l-0.2-0.1v-0.1
			l-0.1-0.1l-0.1-0.2v-0.3h-0.1v-0.1h-1.3l-0.2-0.1v-0.1h0.1l-0.2-0.1l-0.1-0.2l0,0h-0.4l-0.1,0.1l-0.2,0.1h-0.3l-0.2-0.1v-0.1h-0.2
			l-0.2-0.1v-0.1c-0.1-0.1-0.1-0.1-0.1-0.2l-0.1-0.1l-0.1-0.1c-0.1,0-0.2-0.1-0.2-0.3v-1l-0.2-0.5v-0.1v-0.3l-0.2-0.3v-0.2v-0.1
			l-0.1-0.3l-0.1-0.2v-0.3l-0.1-0.3v-0.1v-0.1l-0.3-0.2l-0.1-0.1h-0.7v2.3l-0.1,0.2l-0.2,0.1H444.6c0,0.2,0,0.3,0.1,0.6
			c0.1,0.2,0.4,0.5,0.4,0.6c0.3,0.5-0.1,0.4,0.8,0.3c-0.2,0.6,0.3,0.6,0.3,1.1c0,0.1-0.2,0.6-0.3,0.7s0.2,0.2,0.1,0.3
			c-0.1,0.2-0.5,0.3-0.7,0.4c0.2-0.2,1,0.5,1.2,0.9c0.2,0.5-0.1,1.1,0.4,1.6c0.2,0.2,0.5,0.1,0.4,0.4c0,0.2-0.4,0.3-0.5,0.5
			c0,0.1-0.1,0.4-0.2,0.5c-0.1,0.1-0.2,0.1-0.2,0.4c-0.1,0.2,0.1,0.4,0.1,0.5s-0.2,0.3-0.2,0.4c0,0,0.1,0.3,0.1,0.4
			c0,0,0.2,0.3,0.2,0.4s-0.2,0.2-0.3,0.3c0,0.1,0.1,0.2,0.1,0.3c0,0.2,0.1,0.4,0.1,0.5c0,0.5,0,0.2-0.2,0.6s-0.5,0.5-1,1
			c-0.6,0.6-0.7,0.5-1.6,0.8c0,0,0,0.1,0,0.2c-0.6,0-0.5-0.4-0.2-0.8c-0.2,0.1-0.4,0.4-0.7,0.4c0.1-0.2,0.4-0.4,0.5-0.6
			s0.1-0.4,0.2-0.6c0.2-0.4,0.5-0.3,0.5-0.9c0.2,0.6-0.1,1,0.2,1.5c0.2-0.8,0.2-1,0.7-1.5l0,0c0,0,0,0-0.1,0l0,0l0,0l0,0
			c-0.1,0.2-0.2,0.4-0.2,0.7c1.4-0.3,0.7-2.2,0.1-3.1c0.1,0.1,0.9,0,0.9-0.1c0.1-0.3-0.2-0.8-0.3-1.1c-0.3,0.5-0.8,0.8-1.1,1.3
			c-0.3,0.4-0.5,0.4-1,0.8c-0.2,0.2-0.5,0.7-0.6,1c-0.1,0.4-0.4,0.4,0,0.5c0.3,0.1,0.8-0.2,1-0.4c-0.1,0.1-1.3,1-1.3,0.5
			c-0.1-0.5,0.3-1.1,0.5-1.5s0.5-0.5,0.6-0.9c0.2-0.4,0.1-0.9,0.3-1c0.1,0.4,0.1,0.8,0,1.1c0.3-0.3,0.5-0.7,0.7-1.1
			c0.2-0.3,0.4-0.2,0.1-0.6c-0.3-0.4-0.8-1.1-0.5-1.5c-0.1,0.1-0.3,0.9-0.4,0.9c-0.3,0.1-1.3-0.9-1.4-1.2c-1.3,0-2.4,0.3-3.7,0.1
			c-1.5-0.2-2.9-1-4.3-1.6c0.1,0.9,0,1.9,0.3,2.8c0.3,1.3,1.1,2.4,1.6,3.5c0.2,0.3,0.1,0.6,0.2,0.9c0.2,0.6,0.5,1.1,0.7,1.6
			c0.1,0.5,0.1,0.9,0,1.4c0.4-1.5,0.9-0.2,1.8-0.2c-0.3,0.2-1.3,0.3-1.1,0.8c-0.1-0.1-0.3-0.2-0.5-0.3c0.1,0.1,0.1,0.8,0.2,0.9
			c0.3,0.5,1.2-0.1,1.3,0.6c-0.4,0-0.6,0.3-0.4,0.6c-0.1,0-0.2-0.1-0.2-0.1c0.2,0.2,0.2,0.5,0.3,0.7l-0.2,0.7
			c-0.5,0.9-0.4-1.1-0.6-1.4c-0.1,0.7,0.1,1.6-0.2,2.3c1.5,0.3,3,0.5,4.5,0.7c-0.8,0.2-1.7,0.3-2.6,0.4c-0.6,0.1-1-0.4-1.5-0.7
			c0.5,1.1,0,1.8,0.1,2.9c0.1,0.5,0.2,0.7,0.2,1.3c0,0.4-0.1,0.8-0.2,1.1c-0.1,0.4,0.1,0.7,0.1,0.9c0,1.1-0.3,2.2-0.5,3.2
			c-0.2,0.8-0.1,1.8-0.1,2.7c-0.1,1.1-0.1,2.2-0.2,3.3c0,0.4-0.1,0.8-0.1,1.2c-0.1,0.3-0.1,0.6-0.1,0.9c-0.1,0.8-0.4,1.4-0.7,2.1
			c0.2-0.2,0.3-0.4,0.4-0.6c0.1,0.2,0.3,0.4,0.3,0.7c-0.1-0.1-0.2-0.1-0.3-0.2c-0.5,0.9-1.7,2.8-1.6,3.8c0,0.3,0.2,0.5,0.4,0.7
			c0.3,0.5,0.4,0.5,0.2,1.3c-0.1,0.5-0.1,1.1,0,1.6c0.1,0.8,0.3,1.4,1,2c0.3,0.2,0.1,1.2,0.1,1.6c0,1.2,0,2.5,0.1,3.7
			c0,0.1,0,2.5-0.1,2.8c0.2-0.2,0.3-0.5,0.6-0.4c-0.3,0.3-0.7,1.1-0.9,0.9c-0.3,0.6-0.7,1.4-0.4,2c0.2,0.5,1.5,2.7,1.9,2.7h-0.1
			c0.3,0.7,1.2,2,1.2,2.9c0,0.2-0.2,0.6-0.2,0.8c-0.1,0.8,0.3,1.3,0.5,2c0.2,0.8-0.3,1,0.2,1.7c1.1,1.6,2.2,3.1,3.3,4.7
			c0.2,0.3,0.2,0.6-0.1,0.9c0.5-0.9,1.2,0.3,1.7,0.7c0-0.1,0-0.1,0-0.2c0.2,0.2,1.3,1.1,1,0.3c0,0,0.1,0.1,0.2,0.1
			c-0.1-0.2-0.2-0.5-0.2-0.7c0,0.2,0-0.7-0.1-0.5c0.1-0.5,0.2-0.3,0.4-0.7c0.3,0.1,0.6,0.5,0.9,0.6c0.5,0.2,0.4,0,0.8-0.2
			c0.1,0,0.1-0.3,0.3-0.3s0.5,0.5,0.7,0.5s0.5,0,0.6-0.2c-0.1,0.1-0.2,0.2-0.2,0.3c0.8-0.3,0.9-0.4,1.6,0.2c-0.3-0.1-0.8-0.5-1-0.4
			c-0.1,0.1-0.1,0.3-0.2,0.3c-0.2,0.1-0.2,0.1-0.7,0.1c-0.3,0-0.5-0.2-0.8-0.2c-0.2,0-0.5,0.2-0.7,0.2c-0.4,0-0.9-0.2-1.2,0.2
			c-0.5,0.8,1.2,2.7,1.4,3.5c-0.3-0.3-0.7-0.5-1.1-0.8c-0.2-0.1-0.4-0.1-0.4-0.4c0-0.2,0.1-0.9-0.1-1c-0.7-0.5-0.7,1.2-0.7,1.6
			c0.1,0.5,0.5,1,0.6,1.6c0.1,0.7,0,0.7,0.8,1.3c0.4,0.3,1,0.6,1.4,0.9c0.1,0,0.2-0.1,0.4,0c0.3,0.3,0.6,1.5,0.4,1.9
			c-0.2,0.4-0.5,0.1-0.6,0.2c-0.2,0.3-0.1,0.6,0,1c0.1,0.3,0.1,0.6,0.2,0.8c0.4,1.1,1.5,2.2,2.2,3.1c0.8,1,1.5,1.9,2.4,2.9
			c0.3,0.4,0.3,0.6,0.5,0.8c0.1,0.3,0,0.4,0.3,0.6c0.3,0.3,0.8,0.7,1,1.2c0,0.1-0.1,0.2-0.1,0.4c0,0.3,0.1,0.7,0.1,1.1
			c0,0.2-0.1,0.7,0,0.8c0,0.2-0.2,0.4,0.1,0.5c0.6,0.3,1.3,0.6,1.8,0.6c0.7,0.1,1.2,0.2,1.9,0.4c0.6,0.2,1.1-0.2,1.8,0.2
			c0.8,0.4,1.5,1,2.2,1.5c0.4,0.3,0.8,0.7,1.2,0.8c0,0,0.3-0.1,0.4-0.2c0.2,0,0.8-0.1,0.9,0c0.1,0.4,0.3,1.5,0.6,1.7
			c0.2,0.2,0.6-0.1,0.9-0.1c0.7,0,0.9,0.4,1.4,0.9c0.5,0.4,1,0.7,1.5,1.1c0.7,0.7,1,1.2,1.4,2.2s0.7,2,1.1,3
			c0.1,0.1,0.1,0.2,0.1,0.3h0.4h1.1l0.1-0.1l0.2-0.1h1.4l0.1-0.1l0.2-0.1h1.5v-0.1l0.2-0.1h1.6l0.1-0.1l0.2-0.1h1.6l0.1-0.1l0.2-0.1
			h1.6l0.1-0.1l0,0c0,0,0.1,0,0.1-0.1h0.1h1.4c0.2,0,0.3,0.1,0.3,0.3v0.2l-0.1,0.2h-0.1v0.1l-0.1,0.2l-0.1,0.1v0.1v0.2l0,0h0.1
			l0.2,0.1v0.1h0.3l0.2,0.1v0.1h0.2l0.2,0.1l0.1,0.1h0.2l0.2,0.1l0.1,0.1h0.2l0.2,0.1l0,0h0.2l0.2,0.1l0.1,0.1h0.2l0.2,0.1l0.1,0.1
			h0.2l0.2,0.1l0.1,0.1h0.2l0.2,0.1v0.1h0.2l0.2,0.1l0.1,0.1h0.2l0.2,0.1v0.1h0.2l0.2,0.1l0.1,0.1h0.2l0.2,0.1l0.1,0.1h0.1l0.2,0.1
			l0.1,0.1h0.3l0.2,0.1v0.1h0.2l0.2,0.1v0.1h0.1l0.2,0.1l0.1,0.1h0.2l0.2,0.1l0.1,0.1h0.3l0.2,0.1v0.1h0.1l0.2,0.1l0.1,0.1h0.2
			l0.2,0.1l0.1,0.1h0.2l0.2,0.1l0.1,0.1h0.2l0.2,0.1l0.1,0.1h0.1l0.2,0.1l0.1,0.1h0.4l0.2,0.1v0.1h0.2l0.2,0.1v0.1h0.1l0.2,0.1
			l0.1,0.1h0.2l0.2,0.1l0.1,0.1h0.2l0.2,0.1l0.1,0.1h0.2l0.2,0.1l0.1,0.1h0.2l0.2,0.1l0.1,0.1h0.2l0.2,0.1v0.1h0.1l0.2,0.1l0.1,0.1
			h0.2l0.2,0.1l0.1,0.1h0.2l0.2,0.1l0.1,0.1h0.2l0,0c0,0,0.1,0,0.1,0.1c0.1,0,0.1,0,0.1,0l0,0l0.1,0.1h0.2l0.2,0.1v0.1h0.2l0.2,0.1
			v0.1h0.1l0.2,0.1l0.1,0.1h0.2l0.2,0.1l0.1,0.1h0.2l0.2,0.1l0,0h14v-2.5l0.1-0.2l0.2-0.1h8.4c0.1,0,0.2,0.1,0.2,0.2h0.4l0.2,0.1
			v0.1l0.1,0.1v0.1h0.1l0.1,0.3v0.1l0,0l0.1,0.2v0.1l0,0l0.1,0.2l0,0l0.1,0.1l0,0c0,0,0,0.1,0.1,0.1c0,0.1,0.1,0.1,0.1,0.1l0,0l0,0
			l0.2,0.1l0.1,0.1l0.1,0.1v0.1h0.1l0.2,0.1v0.1h0.2l0.2,0.1l0.1,0.1l0.1,0.1v0.1l0.1,0.1l0.1,0.1h0.1l0.1,0.1l0,0l0.2,0.1l0.1,0.2
			l0,0l0.1,0.1l0,0v0.1c0,0,0,0,0,0.1l0.1,0.1l0.1,0.1h0.1l0.1,0.1h0.1l0.2,0.1v0.1l0.1,0.1v0.1h0.1l0.2,0.1l0.1,0.2v0.2h0.1
			l0.2,0.1v0.1h0.1v0.1c0.1,0,0.2,0.1,0.2,0.1h0.1l0.2,0.1l0.1,0.2l0,0l0,0l0.2,0.1v0.1h0.1l0.2,0.1v0.1h0.2l0.2,0.1v0.1h0.1v0.1
			l0.1,0.1l0.1,0.1h0.1v0.1h0.2c0.2,0,0.2,0.2,0.2,0.3v0.1h0.1l0.1,0.1h0.1v0.1h0.1l0.1,0.2v0.1l0.1,0.1l0.1,0.2v0.4
			c0.1,0.1,0.1,0.1,0.1,0.1l0.1,0.1l0.1,0.2l0,0l0.1,0.1l0.1,0.2l0,0l0,0l0.2,0.1l0.1,0.2v0.1h0.1l0.1,0.2v0.7l-0.1,0.2l-0.1,0.1
			h0.1l0.1,0.2v0.3l0.1,0.1l0.1,0.2v0.1l0.1,0.1l0.1,0.2v0.1l0,0l0.2,0.2l0.1,0.2v0.2l0.1,0.1l0,0l0,0l0.2,0.2v0.1h0.1l0.1,0.2l0,0
			l0,0l0.2,0.1v0.1h0.2l0.2,0.1v0.1h0.1l0.2,0.1v0.1l0.1,0.1l0.1,0.3l0,0l0.1,0.1l0.1,0.1h0.1l0.2,0.1l0.1,0.1h0.1v0.1l0.1,0.1v0.1
			h0.2l0.2,0.1v0.1h0.5l0.2,0.1v0.1h0.1l0.1,0.1l0.1,0.1v0.1c0.1,0,0.1,0,0.1,0.1h0.1h0.1h0.1h0.1l0.2,0.1v0.1h0.1l0.2,0.1v0.1
			l0.1,0.1l0.1,0.2l0,0h0.2l0.2,0.1v0.1h0.2c0.1,0,0.2,0.1,0.2,0.2h0.4h0.1v-0.1l0.1-0.2l0.1-0.1l0.1-0.1l0.2-0.1l0,0l0,0l0.1-0.2
			h0.1v-0.1l0.2-0.2c0.1-0.1,0.1-0.1,0.2-0.1l0,0v-0.3v-0.1c0-0.1,0-0.1,0-0.2c0.1-0.1,0.1-0.2,0.3-0.2l0,0l0,0v-0.1
			c0-0.1,0-0.3,0.1-0.3l0.1-0.1v-0.2l0.1-0.2h0.1v-0.3l0.1-0.2l0.1-0.1l0.1-0.1h0.1l0.1-0.1h0.1v-0.3c0-0.1,0.1-0.3,0.3-0.3h0.3
			l0.1-0.1c0.1-0.1,0.2-0.1,0.3-0.1l0,0h0.5v-0.2l0.1-0.2l0.2-0.1h0.1v-0.1l0.2-0.1h0.1l0.2,0.1v0.1h0.1h0.1c0.1,0,0.2-0.1,0.2,0
			c0.1,0,0.1,0.1,0.2,0.2h0.1l0.1,0.1h0.4v-0.1l0.2-0.1l0.2,0.1v0.1h0.8c0.1,0,0.2,0.1,0.2,0.2h0.5l0.1-0.1l0.2-0.1h0.2l0.1,0.1
			l0.2-0.1l0.2,0.1v0.1h0.1l0.2,0.1l0.1,0.2v0.1h0.1l0.1,0.2l0,0l0,0l0.2,0.1l0.1,0.1c0.1,0,0.1,0,0.2,0c0.1,0,0.1,0.1,0.1,0.2
			l0.1,0.1l0.1,0.2v0.1h0.1v0.1l0.1,0.1v0.1h0.2l0.2,0.1v0.1c0.1,0.1,0.2,0.2,0.2,0.3v0.2l0,0l0.2,0.1v0.1h0.1
			c0.1,0,0.2,0.1,0.2,0.2l0.2,0.1v0.1h0.1l0.1,0.1l0,0l0.2,0.1l0.1,0.2v0.3h0.1v0.1h0.1v0.1h0.1l0.2,0.1v0.2v0.3h0.1l0.1,0.2v0.4
			c0.1,0.1,0.2,0.1,0.2,0.3l0,0l0.1,0.1v0.1h0.1l0.1,0.2v0.1h0.1l0.1,0.2v0.3h0.1v0.1h0.1l0.1,0.2v0.1h0.1l0.1,0.2v0.1h0.1v0.1h0.1
			l0.2,0.1l0.1,0.2l-0.1,0.2h-0.1v0.2h0.1l0.1,0.2v0.1l0,0l0.1,0.2v0.3h0.1v0.1h0.1l0.2,0.1l0.1,0.1l0.1,0.1v0.1h0.3l0.2,0.1
			l0.1,0.2v0.2l0,0l0.2,0.1l0.1,0.2v0.2l0,0l0.2,0.1l0.1,0.2v0.1h0.1v0.1h0.1l0.1,0.2v0.5l0,0v0.1h0.1l0.2,0.1l0.1,0.1l0.1,0.1v0.1
			l0.1,0.1l0.1,0.2l0,0l0,0h0.1h0.1h0.2l0.2,0.1v0.1h0.1l0.2,0.1v0.1h0.1l0.1,0.3v0.2l0,0l0.1,0.2v0.9c0,0.1-0.1,0.1-0.1,0.2l0,0
			l0.1,0.1l0.1,0.2v1.2l0,0l0.2,0.1l0.1,0.2v0.1h0.1l0.1,0.1l0.1,0.1l0.1,0.2v0.1h0.1l0.1,0.1h0.1l0.1,0.2v0.1h0.1l0.1,0.2v0.1l0,0
			l0.1,0.2v0.3h0.1l0.1,0.2v0.2l-0.1,0.1l0.1,0.1l0,0l0,0l0.2,0.1l0.1,0.2v0.4h0.6l0.2,0.1v0.1h0.4l0.2,0.1v0.2h0.1l0.1,0.1l0.1,0.1
			v0.1c0.1,0,0.2,0.1,0.2,0.2h0.1h0.3l0.1,0.1l0.1-0.1l0.2,0.1v0.1h0.3l0.2,0.1l0.1,0.1l0,0l0.2,0.1v0.1h0.1v0.1h0.1l0.1,0.1
			l0.1,0.1l0.1,0.1h0.2h0.1c0.1,0,0.1-0.1,0.2,0h0.1h0.2l0.2,0.1l0.1,0.1h1.3h0.1c0.1,0,0.2,0,0.3,0.1v-0.1c0.1,0,0.2,0,0.3,0.1
			l0.1,0.1l0,0l0.2,0.1v0.1l0.1,0.1v0.1l0.1,0.1l0.1,0.1l0.1,0.1v0.1h0.1l0.2,0.1l0.1,0.1h0.1l0,0l0,0l0.1-0.2l0.2-0.1h0.1v-0.1
			l0.2-0.1c-0.3,0-0.3-0.7-0.5-1.4c-0.3-1.2-0.8-2.4-1-3.7c0-0.3,0-0.7,0.1-0.9c-0.1,0.2,0.3-0.3,0.3-0.3c0.1-0.2,0.2-1,0.3-1.3
			c-0.7,0.4-0.9-0.1-1.7-0.1c0.1-0.3,0-0.7,0-1c0.2,0.2,0.5,0.7,0.7,0.9c-0.1-0.2,0.9,0.1,0.4,0.1c0.1,0,0.4,0,0.5-0.2
			c0.2-0.2,0.4-0.8,0.5-1.2c0.1-0.4,0.4-0.8,0.3-1.1c0-0.1-0.3,0-0.3-0.1c-0.4-0.8-0.3-0.4-0.9-0.9c0.3,0.1,0.9-0.1,1.2,0
			c0.4,0.1,0.1,0.4,0.5,0.2c0.4-0.2,0.7-1.2,0.8-1.6c-0.2,0.2-0.5,0-0.7-0.3c0.2,0.2,0.5,0,0.7-0.2c0,0.2,0.1,0.3,0.1,0.5
			c0.1-0.3,0.2-0.5,0.3-0.8c0,0.2,0,0.5-0.1,0.8c0.1-0.4,0.4-2.1,0.8-2.1c0.1,0,0.4,0.5,0.4,0.6c0.3,0.3,0,0.3,0.5,0.3
			c0.2,0,0.9-0.6,1.1-0.7c-0.6-0.3-1-0.9-1.2-1.7c0.5-0.1,0.2,0.3,0.5,0.5c0.5,0.4,1,0.2,0.5-0.7c0.3,0.1,0.2,0.6,0.4,0.7
			c0.2,0,0.5-0.3,0.8-0.3c-0.4,1.2,0.4,0.3,1,0.6c-0.4,0.2-0.8,0.4-1.1,0.7c0.7-0.3,1.8-0.8,2.4-1.4c-0.3,0.2-0.7,0.3-1.1,0.2
			c0.8-0.2,1.4-0.3,2-0.7c0.8-0.5,1-1.2,1.6-2c0.4-0.6,0.3-0.2,0.5-0.3c0.5-0.3,1-0.8,1.4-1.2c-0.2-0.1-0.3-0.1-0.4-0.3l-0.2,0.1
			c-0.1-0.1,0.2-0.4,0.1-0.5c-0.1-0.1-0.3,0-0.4-0.1c-0.1-0.2,0.1-0.4,0.1-0.5c-0.1-0.2-0.3-0.5-0.3-0.7c0.2,0,0.5,0.1,0.6,0.4
			c0.2-0.2,0.6-0.9,1-0.7c0.2,0.1,0.2,0.5,0.1,0.7c-0.4,0.8-0.6,0.7,0,0.7c0.4,0,0.7-0.2,1.1-0.1c-0.3,0.2-1.5,0.6-1.5,1
			s0.5-0.3,0.5-0.3c0.4-0.2,0.7-0.4,1.1-0.6c0.4-0.2,0.8-0.4,1.2-0.6c0.7-0.3,1.2-0.3,1.9-0.5c-0.3-0.4,0.1-1.4,0.3-1.9
			c-0.1,0.6-0.2,1.2-0.2,1.8c0.7-0.5,1.4-0.2,2.2-0.5c0.5-0.1-0.2-0.3-0.1-0.4c0,0-0.2-0.1-0.1-0.1c0-0.1,0.2-0.1,0.2-0.1
			c0,0.1,0.2-0.3,0.2-0.3c0.1-0.2,0.1-0.7,0.1-0.9c0.3,0.2,0.1,0.4,0.2,0.6c0.6,0.9,2,1.2,2.8,1.7c0.8,0.4,1.6,1,2.4,0.9
			c0.3-0.1,0.6-0.2,0.9-0.2c-0.1,0-0.6-0.5-0.6-0.6c-0.1-0.4-0.1,0,0.2-0.3c0.3-0.2,1.1-0.6,1.5-0.5c0.1,0,0.9,0.4,1.1,0.5
			c0,0.1,0,0.4,0.2,0.6s1.3,1,1.5,0.9c0.1-0.1,0.2-0.6,0.3-0.7c0.1,0.3-0.2,0.4-0.2,0.8s0.5,0.6,0.7,0.8c0.6,0.6,1.5,1.7,2.3,1.2
			c0.2-0.1,0.5-0.6,0.4-0.8c0.6-0.4,1.4-0.4,1.7,0.3c0.2,0.4-0.2,0.9,0.4,0.7c0.8-0.3,0-1.2,0.7-1.2c-0.2-0.3-0.1-0.3-0.2-0.6
			c0-0.1,0.2-0.1,0-0.3c-0.2-0.3-0.5-0.2-0.6-0.8c0.3,0.2,2,0.4,1.7,0.8c0.7,0.5,1.1,0.8,1.8,1.2c-0.1,0.2,0.1,0.4,0.3,0.6
			c0.2,0.3,0.6-0.5,0.6,0.1c0,0.3-0.5,0.9-0.6,1.2c0.4-0.3,0.9-0.3,1.3-0.4c-0.2-0.4,1-1,0.2-0.9c0.3,0,0.4-0.2,0.4-0.3
			c-0.2,0-0.4-0.1-0.6-0.3c0.5-0.4-1-0.7-1.2-0.8c0.1,0,0.2-0.1,0.2-0.1c-0.3,0-0.7,0-1-0.1c0,0,0.1,0,0.1-0.1c0-0.2-0.1,0,0-0.3
			c-0.5-0.3-0.7-0.4-1-0.8c0.4-0.1,0.8-0.1,1.2-0.2c0-0.1-0.1-0.2-0.2-0.2h0.1c-0.1,0-0.5,0-0.4-0.2c0.1-0.4,0.9-0.3,1.3-0.5
			c-0.1-0.3-0.1-0.3,0-0.5c-0.1,0-0.2,0-0.3,0c0-0.1,0.1-0.1,0.1-0.2c-0.1,0-0.2,0-0.2,0c0.5-0.2-0.2-0.4-0.3-1
			c0,0.4-0.3,0.2-0.4,0.5c-0.4,0.7-0.1,0.7-0.7,0.5c-0.1-0.1-0.7-0.2-0.6-0.5c0-0.2,0.7-0.3,0.8-0.6c-0.5-0.1-3.6,0.6-3.7-0.3
			c-0.1-0.7,2.1-1.2,2.6-1s1.7,0.9,2.1,0.5c0.4-0.5,0.7-0.9,1.3-1c0.7-0.1,1.3-0.3,2-0.2c1.1,0.1,2.3,0.4,3.3,0.5
			c0.3,0.1,0.5-1.6,0.6-2c0-0.1,0.1-0.3,0.2-0.4c0.1,0.4,0.3,0.3,0.5,0.7c0.1,0.3-0.1,0.6-0.1,0.8c0.1,0.3,0.4,0.2,0.5,0.5
			c0.1,0.2,0.1,0.6,0.4,0.9c0.2,0.3,0.8,0,0.9-0.3c-0.1,0-0.1,0-0.2,0c0.6-0.1,0.7-0.4,0.9-1.1c-0.1,0.5-0.3,0.8-0.4,1.2
			c0.4-0.2,1-0.4,1.4-0.8c0.3-0.4,0.1-0.6,0.3-1c0.1,0.2,0.3,0.3,0.3,0.5c0.5-1,0.7-0.5,1,0.4c-0.2-0.1-1.1,0.4-1.4,0.5
			c1.7-0.4,3.5-0.6,5.2-0.8c0,0.3,0,0.2,0.1,0.5c-0.2,0-0.5-0.1-0.7-0.1l0.1,0.1c-0.9-0.3,0,0.4,0.3,0.5c0.2,0.1,2,1.3,2.2,1.2
			c0.3-0.2-0.4-0.6-0.6-0.6c0.3-0.1,1.3-0.5,1.4-0.3c-0.1,0.1-0.6,0.3-0.6,0.4s1.2,1,1.4,1.2c-0.3-0.1-1.5-0.9-1.3-0.4
			c0.1,0.2,0.4,0.4,0.6,0.5h-0.1c0.2,0.3,0.7,0.4,0.9,0.7c0.1,0.1,0.2,0.2,0.2,0.4c0.5,0.8,0.5,1,1.1,0.7c-0.2,0.1-0.3,0.2-0.5,0.3
			c1.5-0.6,3.1-1.3,4.6-1.9c0.7-0.3,1-0.6,1.7-0.3c0.5,0.2,1.1,0.6,1.5,1.1c0.4,0.4,0.4,0.8,0.8,1.2c0.4,0.3,0.2,0.2,0.4,0.6
			c0.1,0.2,0,0.3,0.3,0.7c0.7,0.7,1.8,1.1,2.5,1.8c0.3,0.3,1.2,1.9,1,2.3c-0.3,0,0,0.2,0,0.5c0,0.2-0.1,0.4-0.1,0.6
			c0,0.5-0.1,0.9-0.2,1.4c-0.1,0.5-0.4,0.9-0.5,1.3s0.1,0.8,0,1.2c0,0.2-0.2,0.3-0.2,0.4c0,0.5,0.3,1.1,0.6,1.6
			c0-0.1-0.1-0.3-0.1-0.4c0.5,0.4,0.5,0.1,0.6-0.2c0.2-0.6,0-0.7-0.4-1.1c0.8,0.4,1,1,1.5,0.1c0.4,1-0.9,1.6-0.8,2.5
			c-0.1,0-0.2,0-0.3-0.1c0.1,0.4,0.4,0.7,0.5,1.1c0.3,1.3,1.2,2.3,2,3.3c0-0.1-0.1-0.6-0.1-0.6c0.1-0.3,0.4-0.4,0.9-0.6
			c0,0-0.2,0.4-0.2,0.2c0,0-0.1,0-0.2,0.1c0,0.1,0.1,0.3,0.1,0.4c-0.1,0.7-0.1,1.4,0.1,2.1c0.5,0,0.6-0.9,1.3-1.1
			c-0.4,0.4-0.6,0.7-0.9,1.3c0.9,0.1,0.9,2.9,1.1,3.5c0.1,0,0.3-0.2,0.4-0.1c0.6,0.3,1.5,1.5,2,2.2c0.3,0.3,2,1.9,1.4,2.1
			c-0.1,0.1-0.5-0.4-0.7-0.5c-0.1,0.3-0.1,0.7,0,1c0.3,0,0.5-0.1,0.8-0.2c0.1,0,0.2-0.2,0.3-0.2s0.3,0.1,0.5,0.2
			c0.3,0,0.4-0.1,0.6-0.2c0.4-0.3,0.4-0.3,1,0.1c-0.1-0.1-0.1-0.2-0.2-0.2c0.1,0,0.3,0.1,0.5,0.2c-0.2-0.2-0.1-0.3,0-0.5
			c0.3-0.7,0.7-1.3,1-2c0.7-2,0.7-4.1,0.8-6.2c0.1-1.4,0-3-1.3-3.6c0.2,0.1,0.4,0.2,0.6,0.3c-0.6-1-0.7-2.1-1.1-3.1
			c-0.4-0.9-0.8-1.7-1.2-2.7c-0.4-1.2-0.7-2.6-1.1-3.9c0.3,0.1,0.4,1.8,0.9,1.1c0.1,0.8,0.1,1.6,0.2,2.5c0.7-1.9,0.1-2.3-0.7-3.8
			c-0.4-0.8-0.9-1.6-1.3-2.5c-0.3-0.7-0.5-1.3-0.8-2c-0.4-1-0.6-2.2-0.9-3.2c-0.3-1-0.8-2.2-0.8-3.3c0-0.9-0.3-2.4,0.1-3.2
			c0.1-0.3,0.2-0.6,0.4-0.3c1.3-0.6,0.2-0.7-0.4-1.1c0.1,0,0.4,0.2,0.4,0.2c0.2-0.2,0.2-0.4,0.3-0.6c0.2-0.2,0.5-0.4,0.7-0.6
			c-0.1,0.1-0.3,0.1-0.5,0.2c0.1-0.5,0.3-1.2,0.1-1.6c0.2,0,0.5,0.3,0.7,0.2c0.3-0.1,0.7-1.1,0.8-1.3c0.3-0.5,1.4-1.4,1.4-1.9
			c0-0.2-0.3-0.1-0.3-0.1c-0.2-0.5-0.5-1.2-0.5-1.7c0.1,0,0.3,0.2,0.3,0.2c-0.4,1.1,1-0.4,0.6,0.8c0.1,0,0.1,0,0.1,0s-0.1,0.2,0,0.2
			c0.4,0,1.1,0.1,1.1-0.4c0,0.1-0.1,0.1-0.2,0.2c0.2-0.8-0.6-0.6-1-0.9c0.2,0,0.5-0.1,0.7-0.1c0.1,0,0.2,0.2,0.4,0.2
			c0.3,0,0.7-0.5,1-0.7c0.2-0.1,0.9-0.1,1.1-0.1c0.2,0,0.2-0.1,0.3-0.3v0.2c0.1-0.4,0.2-0.9,0.3-1.3c0.5,0.5,0.3,0.6,0.8,0.4
			c0.6-0.2,1.1-1,1.7-1.4c0.3-0.2,1.6-0.7,1.1-1.3c-0.2-0.3-0.5-0.5-0.2-0.9c0.3,0.2,0.4,0.6,0.4,0.9c0.3-1.1,0.4-1.7,1.2-2.5
			c0.6-0.6,1.2-1.1,1.8-1.6c0.5-0.4,1.8-0.1,2.4-0.2c1,0,0.8-1,0.8-1.8c0.2,0.5,0.1,1,0.2,1.6c0.1-0.3,0.1-0.6,0.2-0.9
			c0.4-1,1.5-1.8,2.2-2.5c-0.3,0.2-0.6,0.4-0.9,0.6c0.3-0.4,1.7-1,1.1-1.3c0.4-0.4,0.1-0.7-0.1-1.1c0.1,0,0.3,0.3,0.3,0.3
			c0.2,0,0.9-0.4,1.2-0.3c0.5,0.1,0,0.4,0.6,0.3c0.4,0,1-0.4,1.5-0.5c0.6-0.2,1.8-0.4,2.2-1c0.4-0.5-0.6,0-0.7,0
			c0.4-0.9-0.4-0.1-0.6-0.1c-0.1,0-0.2-0.2-0.4-0.2s-0.4,0.3-0.6,0.4c-0.7,0.1-1.3-0.9-1.5-1.5c0.4,0.5,0.7,0.8,1.3,0.6
			c0.7-0.2,2.2-0.9,1.4-1.6c-0.9-0.8-2-0.5-2.6-1.4c0.7,0.5,1.5,0.6,2.3,0.8c-0.1-0.3-0.1-0.8,0-0.9c0.2-0.2,0,0.4,0,0.3
			c0.1,0.2,0.2,0.4,0.3,0.5c0.3-0.2,0.7-0.4,0.6,0.1c1.1,0,3.8-0.9,3.4-2.6c-0.2-0.6-0.5-0.7-1-0.6s-0.4,1.2-0.6,1.7
			c-0.1-0.4-0.2-1.3,0.1-1.8h-0.1c0.2-0.5-0.4-0.5-0.7-0.4c-0.2,0.1-0.3,0.4-0.5,0.5c-0.1,0-0.3-0.1-0.5-0.1c0.1-0.4-1.2,0-1.7-0.1
			c0.3-0.4-0.1-0.6-0.1-1.1c0-0.2,0.2-1.7,0.3-1.2c0.1,0.3-0.2,0.3-0.2,0.6c0,1.5,0.9,1.4,2,0.7c-0.3-0.1-0.5-0.3-0.7-0.6
			c0.4,0.3,0.7,0.5,1.2,0.6c-0.2-0.2-0.3-0.4-0.4-0.6c0.3,0.4,0.7,0.4,1.1,0.3c-0.2-0.3-0.6-0.7-0.7-1c0.2,0.3,1,0.9,1.4,1
			c-0.3-0.2-0.2-0.6-0.4-0.9c0.4,0.3,0.5,1.2,1,1.5c-0.4-1.2-1-1.9-1.2-3c0.5,0.1,0.4-0.6,0.5-1.1c0.2,0.6,0.3,1.3,0.5,1.8
			c-0.1-0.7-0.4-2.7-0.9-3.2c-0.1-0.1-0.7,0.1-0.8,0c-0.5-0.3-0.4-0.1-0.7,0c0.1,0,0,0.2,0,0.2c-0.2,0.1-0.7,0.1-1,0.1
			c0.5-0.4-0.5-1.7-0.8-2.1c0.3,0.2,0.6,0.5,0.8,0.7c0.3,0.4,0.5,0.9,1,0.5c0-0.7-0.1-1.2-0.5-1.7c0,0,0,0,0-0.1c0,0,0,0,0.1,0.1
			c-0.1,0-0.1-0.1-0.1-0.1c-0.1,0-0.1-0.1-0.1-0.1c0.3,0.2,0.5,0.3,0.5,0c0.4,0,0.5,0,0.7-0.3c0.4-0.8-0.6-1.3-1.1-1.8
			c-0.1,0-0.1-0.1-0.2-0.1c0.2-0.7,0.1,0,0.3,0c0.1,0,0.1,0.1,0.2,0.1c0.3,0,0.6-0.8,0.7-1.2c0.2-0.7,0.2-0.3-0.1-0.7
			c-0.4-0.5-1.6-1.1-2.1-1.3c-0.4-0.1-0.9-0.2-1.2-0.5c-0.2-0.2-0.4-0.6-0.6-0.9c-0.2-0.3-0.2,0-0.4,0s-0.4,0.2-0.7,0
			c-0.1,0-0.2,0-0.2,0c0.5-1.2,1.6-2.3,1.4-3.6c0.4,1-0.3,1.8-0.6,2.7c-0.2,0.3-0.4,0.6-0.1,0.8c0.3,0.2,0.5-0.3,0.4-0.5
			c0.1,0.3,0.4,0.2,0.5-0.1c0.1,0.2,0.3,0.9,0.6,1c0.2,0.1,0.4-0.4,0.5-0.4c0.3,0.2,0.6,0.5,0.9,0.8c0.5,0.4,1.1,0.9,1.6,1.2
			c-0.1-0.3-0.2-0.7-0.3-1c0-0.1,0-0.6,0-0.6c-0.1-0.1-0.3,0.1-0.4,0c-0.8-0.7-1-1.1-1.1-2.4c0.1,1.2,0.3,1.5,1.5,1.9
			c-0.2-0.6-0.6-0.8-0.7-1.4c0-0.3,0-0.8,0.1-1.1c0.3-1.3,0.3-1-0.3-2.1c0.2,0.2,0.4,0.5,0.6,0.5c-0.3-0.6-0.6-1.1-0.9-1.7
			c0.6,0,0.7-0.5,1.2-0.9c0.3-0.2,0.2,0.1,0.5-0.3c0.2-0.3,0.2-0.2,0.2,0.1c0.5-0.3,1-0.8,1.4-1.2c1,0.3,0,0.4,0.3,0.8
			c-0.2,0-0.7,0.2-0.7,0.4c-0.1,0.3,0.6,0.2,0.8,0.3c-0.7,0.1-1.3-0.1-1.7,0.4c-0.2,0.3-0.3,0.7-0.4,1c0.3,0.1,0.7,0.1,1,0.1
			c-0.3,0.2-0.3,0.5-0.5,0.8c-0.1,0.3-0.7-0.3-0.8,0s-0.2,0.7-0.2,1c0-0.2,0.3-0.6,0.5-0.6s0.8,0.8,0.7,1c0,0.2-0.5,0.3-0.6,0.4
			c0.3,0.6,0.7,0.6,1.3,0.9c-0.3,0.3-0.5,0-0.7,0c-0.4,0-0.2-0.3-0.7,0.1c-0.3,0.3,0.4,0.2,0.4,0.1c-0.1,0.2-0.8,0.4-0.7,0.7
			c0.2,0.3,0.3,0.6,0.5,0.9c0-0.1,0-0.3-0.1-0.5c0.5,0.3,1.1,1.7,1,0.4c0.1,0.2,0.2,0.3,0.3,0.5c0.1-0.4,0.2-0.7,0.6-0.9
			c0,0.3,0.2,0.7,0.1,1c-0.1,0.2-0.4,0.5-0.5,0.8c0.2-0.3,0.5,0.3,0.9,0.2c-0.2,0.2-0.8,0.9-0.6,1.1c-0.1-0.1,1.1-0.2,1.1-0.2
			c-0.7,1.4-1.5,2.6-1.8,4.2c-0.1,0.4,0,1.2,0.6,0.9c0.3-0.1,0.1-1.1,0.3-1.4c0.2-0.5,0.8-0.6,1.1-1c0.1-0.2,0-0.4,0.2-0.7
			c0.1-0.4,0.3-0.8,0.5-1.1c0.3-0.7,0.5-1.3,0.9-1.9c0.3-0.6,0.7-1.9,1.2-2.2c0,0.3,0,0.5,0,0.8c0.1-0.6,0.1-1.3,0-1.9
			c-0.1,0.3-0.4,0.3-0.7,0.1c0.4-0.2,0.5-0.9,0.6-1.3c-1.3-0.6-1.7-2.8-2.2-4.1c-0.2-0.4-0.5-0.7-0.4-1.2c0.3-1.3,1.9-2,2.7-2.6
			h-0.1c0.1,0,0.2,0,0.2-0.1c-0.7,0.6-1.8,1.1-2.3,2c-0.8,1.5,0.5,2.1,1.4,3c0.5,0.4,1.5,0.2,1.6,0.8c0.1,0.3-0.3,0.9-0.3,1.4
			c0.3-0.1,1.4-0.9,1-1.3c0.3-0.1,0.5-0.7,0.8-1c-0.1,0-0.2-0.1-0.2-0.1c0.2-0.2,1.5-0.5,0.8-0.8c0.3-0.3,0.7-0.5,0.9-0.8
			c0.1-0.1,0.2-0.6,0.4-0.8c0.4-0.5,0.1-0.4,0.2-0.9c0.1-0.2,0.2-0.4,0.2-0.5c0.1-0.4,0.1-0.8,0.4-1.3c0.1,0.6-0.2,1.2-0.1,1.8
			c0.2-1,0.2-2,0.4-2.9c0.1-0.5,0.2-1,0-1.3c-0.3-0.3-1.3-0.1-1.4-0.4c-0.1-0.4,1.2-1.5,1.4-2.1c0.1-0.1,0.1-0.3,0.1-0.4
			c0,0.1,0,0.2,0,0.2c0.4-1.1,0.3-1.7,0.2-2.9c0-0.1,0-0.2,0-0.3c0,0,0,0.1,0,0.2c0-0.1,0-0.2,0-0.2s0,0,0,0.1c0,0.5,0.1,1,0.2,1.6
			c0.1,0.8-0.4,1.5-0.4,2.3c-0.1,0.2-0.2,0.4-0.2,0.5c0.4,0,0.7,0,1,0c0.1,0,0.2,0,0.2,0c0.6,0,1.2-0.1,1.8-0.2
			c0.2-0.1,0.4-0.1,0.7-0.2c0.2,0,0.5-0.1,0.7-0.1c0.4-0.1,1.1-0.2,1.5-0.3c0.2-0.1,0.4-0.2,0.6-0.3c0.1,0,0.1,0,0.1,0
			c0.2-0.1,0.5,0,0.8-0.1c0.1-0.1,0.2-0.1,0.2-0.2c0.1-0.1,0.2-0.1,0.3-0.1s0.1,0,0.2,0c0.2-0.1,0.5-0.2,0.7-0.3
			c0.6-0.3,1.3-0.7,2-1c-1,0.1-1.9,0.2-2.8,0.2c0.2-0.2,0.5-0.6,0.9-0.8c-1.1,0.2-2.2,0.8-3.3,1.2c-0.6,0.1-1,0.1-1.6,0.3
			c-0.5,0.1-2.3-0.4-2.1,0.8c-0.1-0.2-0.2-0.3-0.2-0.3c-0.1-0.1-0.1,0-0.2,0.2c0,0,0,0-0.1,0s-0.1,0.2-0.2,0.2
			c-0.2,0-0.5-0.1-0.7,0.1c-0.1,0.1-0.2,0.3-0.3,0.5c0.1-0.2,0.2-0.5,0.3-0.6s0.3-0.1,0.4-0.1c0.4,0,0.1-0.1,0.1-0.2
			c0.4-0.4,0.7-0.9,1.2-1.2c1.1-0.6,2.2-1.2,3.4-1.8c0.6,0.4,2.1-0.4,2.9-0.3c1.3,0.1,2.8,0.3,4.1-0.2c0.5-0.2,0.5-2.5,0.5-3
			c0.3,0.9,0.9,0.5,1.4,0.2c-0.4,0.8-0.4,0.9-0.1,1.8c0.5-0.4,1.5-1.5,2.1-1.5c0.4,0,0.4,0.1,0.2,0.3c0.8,0.1,3.3,0.5,3.6-0.2
			c0.1-0.2,0-0.8-0.1-1c-0.1-0.5-0.4-1.2-0.8-1.4c0,0-0.8-0.2-0.7,0c0.2,0.2,0.5-0.1,0.6,0.1c0.2,0.2,0.2,0.4,0.3,0.7
			c0.5,0.9,0.4,1.2-0.6,1.4c-0.4,0.1-0.9,0.2-1.4-0.1c-0.4-0.4-0.4-1.3-0.6-1.8c-0.2-0.4-0.5-1.1-0.7-1.4c-0.7-0.7-0.8,0.4-1.5-0.9
			c0.4-0.1,0.7-1,1.2-1.3c0.4-0.2,1.5-0.4,0.9-0.9c-0.1,0.5-0.4,0.3-0.6,0.1c-0.6-0.9-0.4-2.3,0.2-3c0.8-1,2.2-2.2,2.5-3.5
			c0.2-1,0.3-1,1-1.6c0,0,0,0.1-0.1,0.2c0.7-0.3,0.7-0.3,1.1,0.6c-0.1-0.4-0.2-1-0.1-1.6c0,0.1,0,0.1,0,0.2c0-0.1,0-0.2,0-0.3
			c0,0.5,0.1,1,0.3,1.5c0.2-0.5,0.2-1.1,0.4-1.6l0,0c-0.2,0.4-0.1,1,0.3,1.2c0.1-0.3,0.1-0.5,0.1-0.8v0.1v-0.1c0,0.1,0,0.1,0.1,0.1
			c0.5-0.1,0.6-0.5,0.9-0.9c0,0.2,0,0.3,0,0.5c0.5,0,1.4,0,1.5-0.7c-0.5,0,0.6-1.8,0.8-2.1c0.1-0.2,0.8-1.8,0.8-0.9
			c0,0.2-0.2,0.6-0.3,0.7c0.1-0.1,0.3-0.1,0.4-0.1c-0.2,0.2-0.4,0.5-0.5,0.8c0.3-0.3,1.1,0.4,1.5,0.5c-0.2-0.6,0-1.3,0.4-1.7
			c0.3-0.2,1.2-0.4,1.2,0c0.5-0.2,0.4,0.5,0.7,1c0.2-0.3,0.2-0.7,0.4-1c0.1,0.2,0.2,0.5,0.4,0.6c0.1-0.4,0.3-1,0.6-1.3
			c0.5,0.4,1.4-0.8,2.1-0.6c0.3,0.1,0.4,0.6,0.7,0.3c0.3-0.3,0.7-0.6,1-0.9L723,1254.9z M675.5,1302.6c0.1,0.1,0.1,0.2,0.2,0.3
			C675.6,1302.8,675.5,1302.7,675.5,1302.6L675.5,1302.6z M709.3,1260.1c0,0.1-0.1,0.2-0.1,0.3
			C709.3,1260.3,709.3,1260.2,709.3,1260.1c-0.1,0.1-0.1,0.1-0.1,0.2C709.3,1260.2,709.3,1260.1,709.3,1260.1
			C709.3,1260,709.3,1260.1,709.3,1260.1z"/>
	</g>
</g>
<circle class="st2" cx="498.4" cy="1328.8" r="9"/>
<circle class="st2" cx="505.7" cy="1339.1" r="9"/>
<circle class="st2" cx="438.2" cy="1267.4" r="9"/>
<circle class="st2" cx="525.1" cy="1329.8" r="9"/>
<circle class="st2" cx="603.8" cy="1331.3" r="9"/>
<circle class="st2" cx="579.8" cy="1331.8" r="9"/>
<circle class="st2" cx="597.1" cy="1333.8" r="9"/>
<circle class="st2" cx="579.8" cy="1323.3" r="9"/>
<circle class="st2" cx="579.8" cy="1313.8" r="9"/>
<circle class="st2" cx="604.1" cy="1351.5" r="9"/>
<circle class="st2" cx="618.8" cy="1333.5" r="9"/>
<circle class="st2" cx="655.1" cy="1299" r="9"/>
<circle class="st2" cx="620.1" cy="1275" r="9"/>
<circle class="st2" cx="633.6" cy="1337" r="9"/>
<circle class="st2" cx="666.2" cy="1316.9" r="9"/>
<circle class="st2" cx="670.8" cy="1315.6" r="9"/>
<circle class="st2" cx="668.7" cy="1304.4" r="9"/>
<circle class="st2" cx="668.3" cy="1325.9" r="9"/>
<circle class="st2" cx="650.5" cy="1351.6" r="9"/>
<circle class="st2" cx="640" cy="1300.4" r="9"/>
<g>
	<g>
		<g>
			<path class="st32" d="M535.7,977.2l0.3-0.2c0.7,1.7,2.1,3.1,3.7,3.1c1.6,0,2.9-1.4,3.7-3.1l0.3,0.2c0.2,0,0.4-0.2,0.5-0.5
				l0.2-1.7c0-0.2-0.1-0.5-0.3-0.5c0-2.3-1.9-4.2-4.2-4.2s-4.2,1.9-4.2,4.2c-0.2,0-0.4,0.3-0.3,0.5l0.1,1.7
				C535.3,977,535.5,977.2,535.7,977.2z M548.8,986.1c0-2.7-1.5-4.9-4.2-4.9h-9.8c-2.5,0-4,1.8-4.2,4.2c-0.1,0.2-0.1,0.4-0.1,0.6
				l-0.7,16c0,1.2,0.9,2.2,1.9,2.2c1.1,0,1.9-1,1.9-2.2v-14.8l0.9,10.4l0,0v26c0,1.3,1.1,2.3,2.4,2.2c1.2-0.1,2-1.2,2-2.3v-20.9
				c0.2,0,0.4,0,0.6,0c0.2,0,0.4,0,0.6,0v21c0,0.9,0.5,1.8,1.3,2.1c1.6,0.6,3.1-0.5,3.1-2v-26l0,0l0.8-9.8v14.3c0,1.2,0.9,2.2,2,2.2
				s2-1,2-2.2L548.8,986.1z"/>
		</g>
	</g>
	<g>
		<g>
			<path class="st32" d="M514.8,980.3L514.8,980.3l-0.3-3.3l0.2-0.4l0.1-1.7c0-0.2-0.1-0.5-0.3-0.5c0-2.3-1.9-4.2-4.3-4.2
				c-2.3,0-4.2,1.9-4.3,4.2c-0.2,0-0.4,0.3-0.3,0.5l0.1,1.7l0.2,0.4l-0.3,3.3l0,0H514.8z M523.6,1000.2l-5.5-15.5l-0.1-0.3
				c-0.5-2-1.9-3.4-4.1-3.4h-7.2c-2.2,0-3.7,1.5-4.1,3.6l-4.8,15.5c-0.2,1.2,0.4,2.3,1.5,2.5c1.1,0.2,2.1-0.6,2.3-1.8l3.8-14
				l-3.8,25.4l0,0h3.7l0,0v11.1c0,1.2,0.8,2.3,2,2.4c1.3,0.1,2.4-0.9,2.4-2.2v-11.2h1.3v11.1c0,1.2,0.8,2.3,2,2.4
				c1.3,0.1,2.4-0.9,2.4-2.2v-11.2l0,0h4.3l0,0l-4.3-25.4l4.4,14.2c0.3,1.2,1.4,2,2.4,1.7C523.2,1002.5,523.8,1001.4,523.6,1000.2z"
				/>
		</g>
	</g>
	<g>
		<g>
			<path class="st32" d="M592.1,977.2l0.3-0.2c0.7,1.7,2.1,3.1,3.7,3.1c1.6,0,2.9-1.4,3.7-3.1l0.3,0.2c0.2,0,0.4-0.2,0.5-0.5
				l0.2-1.7c0-0.2-0.1-0.5-0.3-0.5c0-2.3-1.9-4.2-4.2-4.2s-4.2,1.9-4.2,4.2c-0.2,0-0.4,0.3-0.3,0.5l0.1,1.7
				C591.7,977,591.9,977.2,592.1,977.2z M605.2,986.1c0-2.7-1.5-4.9-4.2-4.9h-9.8c-2.5,0-4,1.8-4.2,4.2c-0.1,0.2-0.1,0.4-0.1,0.6
				l-0.7,16c0,1.2,0.9,2.2,1.9,2.2c1.1,0,1.9-1,1.9-2.2v-14.8l0.9,10.4l0,0v26c0,1.3,1.1,2.3,2.4,2.2c1.2-0.1,2-1.2,2-2.3v-20.9
				c0.2,0,0.4,0,0.6,0c0.2,0,0.4,0,0.6,0v21c0,0.9,0.5,1.8,1.3,2.1c1.6,0.6,3.1-0.5,3.1-2v-26l0,0l0.8-9.8v14.3c0,1.2,0.9,2.2,2,2.2
				s2-1,2-2.2L605.2,986.1z"/>
		</g>
	</g>
	<g>
		<g>
			<path class="st32" d="M573.2,980.3L573.2,980.3l-0.3-3.3l0.2-0.4l0.1-1.7c0-0.2-0.1-0.5-0.3-0.5c0-2.3-1.9-4.2-4.3-4.2
				c-2.3,0-4.2,1.9-4.3,4.2c-0.2,0-0.4,0.3-0.3,0.5l0.1,1.7l0.2,0.4l-0.3,3.3l0,0H573.2z M582,1000.2l-5.5-15.5l-0.1-0.3
				c-0.5-2-1.9-3.4-4.1-3.4h-7.2c-2.2,0-3.7,1.5-4.1,3.6l-4.8,15.5c-0.2,1.2,0.4,2.3,1.5,2.5c1.1,0.2,2.1-0.6,2.3-1.8l3.8-14
				l-3.8,25.4l0,0h3.7l0,0v11.1c0,1.2,0.8,2.3,2,2.4c1.3,0.1,2.4-0.9,2.4-2.2v-11.2h1.3v11.1c0,1.2,0.8,2.3,2,2.4
				c1.3,0.1,2.4-0.9,2.4-2.2v-11.2l0,0h4.3l0,0l-4.3-25.4l4.4,14.2c0.3,1.2,1.4,2,2.4,1.7C581.6,1002.5,582.3,1001.4,582,1000.2z"/>
		</g>
	</g>
	<g>
		<g>
			<path class="st32" d="M629.8,980.3C629.8,980.3,629.9,980.3,629.8,980.3l-0.3-3.3l0.2-0.4l0.1-1.7c0-0.2-0.1-0.5-0.3-0.5
				c0-2.3-1.9-4.2-4.3-4.2c-2.3,0-4.2,1.9-4.3,4.2c-0.2,0-0.4,0.3-0.3,0.5l0.1,1.7l0.2,0.4l-0.3,3.3l0,0H629.8z M638.6,1000.2
				l-5.5-15.5l-0.1-0.3c-0.5-2-1.9-3.4-4.1-3.4h-7.2c-2.2,0-3.7,1.5-4.1,3.6l-4.8,15.5c-0.2,1.2,0.4,2.3,1.5,2.5
				c1.1,0.2,2.1-0.6,2.3-1.8l3.8-14l-3.8,25.4l0,0h3.7l0,0v11.1c0,1.2,0.8,2.3,2,2.4c1.3,0.1,2.4-0.9,2.4-2.2v-11.2h1.3v11.1
				c0,1.2,0.8,2.3,2,2.4c1.3,0.1,2.4-0.9,2.4-2.2v-11.2l0,0h4.3l0,0l-4.3-25.4l4.4,14.2c0.3,1.2,1.4,2,2.4,1.7
				C638.2,1002.5,638.9,1001.4,638.6,1000.2z"/>
		</g>
	</g>
</g>
<g>
	<g>
		<path class="st33" d="M520.7,986.2l0.3-0.2c0.7,1.7,2.1,3.1,3.7,3.1c1.6,0,2.9-1.4,3.7-3.1l0.3,0.2c0.2,0,0.4-0.2,0.5-0.5l0.2-1.7
			c0-0.2-0.1-0.5-0.3-0.5c0-2.3-1.9-4.2-4.2-4.2s-4.2,1.9-4.2,4.2c-0.2,0-0.4,0.3-0.3,0.5l0.1,1.7
			C520.3,986,520.5,986.2,520.7,986.2z M533.8,995.1c0-2.7-1.5-4.9-4.2-4.9h-9.8c-2.5,0-4,1.8-4.2,4.2c-0.1,0.2-0.1,0.4-0.1,0.6
			l-0.7,16c0,1.2,0.9,2.2,1.9,2.2c1.1,0,1.9-1,1.9-2.2v-14.8l0.9,10.4l0,0v26c0,1.3,1.1,2.3,2.4,2.2c1.2-0.1,2-1.2,2-2.3v-20.9
			c0.2,0,0.4,0,0.6,0c0.2,0,0.4,0,0.6,0v21c0,0.9,0.5,1.8,1.3,2.1c1.6,0.6,3.1-0.5,3.1-2v-26l0,0l0.8-9.8v14.3c0,1.2,0.9,2.2,2,2.2
			s2-1,2-2.2L533.8,995.1z"/>
	</g>
</g>
<g>
	<g>
		<path class="st33" d="M499.8,989.3L499.8,989.3l-0.3-3.3l0.2-0.4l0.1-1.7c0-0.2-0.1-0.5-0.3-0.5c0-2.3-1.9-4.2-4.3-4.2
			c-2.3,0-4.2,1.9-4.3,4.2c-0.2,0-0.4,0.3-0.3,0.5l0.1,1.7l0.2,0.4l-0.3,3.3l0,0H499.8z M508.6,1009.2l-5.5-15.5l-0.1-0.3
			c-0.5-2-1.9-3.4-4.1-3.4h-7.2c-2.2,0-3.7,1.5-4.1,3.6l-4.8,15.5c-0.2,1.2,0.4,2.3,1.5,2.5s2.1-0.6,2.3-1.8l3.8-14l-3.8,25.4l0,0
			h3.7l0,0v11.1c0,1.2,0.8,2.3,2,2.4c1.3,0.1,2.4-0.9,2.4-2.2v-11.2h1.3v11.1c0,1.2,0.8,2.3,2,2.4c1.3,0.1,2.4-0.9,2.4-2.2v-11.2
			l0,0h4.3l0,0l-4.3-25.4l4.4,14.2c0.3,1.2,1.4,2,2.4,1.7C508.2,1011.5,508.8,1010.4,508.6,1009.2z"/>
	</g>
</g>
<g>
	<g>
		<path class="st33" d="M577.1,986.2l0.3-0.2c0.7,1.7,2.1,3.1,3.7,3.1c1.6,0,2.9-1.4,3.7-3.1l0.3,0.2c0.2,0,0.4-0.2,0.5-0.5l0.2-1.7
			c0-0.2-0.1-0.5-0.3-0.5c0-2.3-1.9-4.2-4.2-4.2s-4.2,1.9-4.2,4.2c-0.2,0-0.4,0.3-0.3,0.5l0.1,1.7
			C576.7,986,576.9,986.2,577.1,986.2z M590.2,995.1c0-2.7-1.5-4.9-4.2-4.9h-9.8c-2.5,0-4,1.8-4.2,4.2c-0.1,0.2-0.1,0.4-0.1,0.6
			l-0.7,16c0,1.2,0.9,2.2,1.9,2.2c1.1,0,1.9-1,1.9-2.2v-14.8l0.9,10.4l0,0v26c0,1.3,1.1,2.3,2.4,2.2c1.2-0.1,2-1.2,2-2.3v-20.9
			c0.2,0,0.4,0,0.6,0c0.2,0,0.4,0,0.6,0v21c0,0.9,0.5,1.8,1.3,2.1c1.6,0.6,3.1-0.5,3.1-2v-26l0,0l0.8-9.8v14.3c0,1.2,0.9,2.2,2,2.2
			s2-1,2-2.2L590.2,995.1z"/>
	</g>
</g>
<g>
	<g>
		<path class="st33" d="M558.2,989.3L558.2,989.3l-0.3-3.3l0.2-0.4l0.1-1.7c0-0.2-0.1-0.5-0.3-0.5c0-2.3-1.9-4.2-4.3-4.2
			c-2.3,0-4.2,1.9-4.3,4.2c-0.2,0-0.4,0.3-0.3,0.5l0.1,1.7l0.2,0.4l-0.3,3.3l0,0H558.2z M567,1009.2l-5.5-15.5l-0.1-0.3
			c-0.5-2-1.9-3.4-4.1-3.4h-7.2c-2.2,0-3.7,1.5-4.1,3.6l-4.8,15.5c-0.2,1.2,0.4,2.3,1.5,2.5s2.1-0.6,2.3-1.8l3.8-14l-3.8,25.4l0,0
			h3.7l0,0v11.1c0,1.2,0.8,2.3,2,2.4c1.3,0.1,2.4-0.9,2.4-2.2v-11.2h1.3v11.1c0,1.2,0.8,2.3,2,2.4c1.3,0.1,2.4-0.9,2.4-2.2v-11.2
			l0,0h4.3l0,0l-4.3-25.4l4.4,14.2c0.3,1.2,1.4,2,2.4,1.7C566.6,1011.5,567.3,1010.4,567,1009.2z"/>
	</g>
</g>
<g>
	<g>
		<path class="st33" d="M635.7,986.2l0.3-0.2c0.7,1.7,2.1,3.1,3.7,3.1c1.6,0,2.9-1.4,3.7-3.1l0.3,0.2c0.2,0,0.4-0.2,0.5-0.5l0.2-1.7
			c0-0.2-0.1-0.5-0.3-0.5c0-2.3-1.9-4.2-4.2-4.2s-4.2,1.9-4.2,4.2c-0.2,0-0.4,0.3-0.3,0.5l0.1,1.7
			C635.3,986,635.5,986.2,635.7,986.2z M648.8,995.1c0-2.7-1.5-4.9-4.2-4.9h-9.8c-2.5,0-4,1.8-4.2,4.2c-0.1,0.2-0.1,0.4-0.1,0.6
			l-0.7,16c0,1.2,0.9,2.2,1.9,2.2c1.1,0,1.9-1,1.9-2.2v-14.8l0.9,10.4l0,0v26c0,1.3,1.1,2.3,2.4,2.2c1.2-0.1,2-1.2,2-2.3v-20.9
			c0.2,0,0.4,0,0.6,0c0.2,0,0.4,0,0.6,0v21c0,0.9,0.5,1.8,1.3,2.1c1.6,0.6,3.1-0.5,3.1-2v-26l0,0l0.8-9.8v14.3c0,1.2,0.9,2.2,2,2.2
			s2-1,2-2.2L648.8,995.1z"/>
	</g>
</g>
<g>
	<g>
		<path class="st33" d="M614.8,989.3C614.8,989.3,614.9,989.3,614.8,989.3l-0.3-3.3l0.2-0.4l0.1-1.7c0-0.2-0.1-0.5-0.3-0.5
			c0-2.3-1.9-4.2-4.3-4.2c-2.3,0-4.2,1.9-4.3,4.2c-0.2,0-0.4,0.3-0.3,0.5l0.1,1.7l0.2,0.4l-0.3,3.3l0,0H614.8z M623.6,1009.2
			l-5.5-15.5l-0.1-0.3c-0.5-2-1.9-3.4-4.1-3.4h-7.2c-2.2,0-3.7,1.5-4.1,3.6l-4.8,15.5c-0.2,1.2,0.4,2.3,1.5,2.5s2.1-0.6,2.3-1.8
			l3.8-14l-3.8,25.4l0,0h3.7l0,0v11.1c0,1.2,0.8,2.3,2,2.4c1.3,0.1,2.4-0.9,2.4-2.2v-11.2h1.3v11.1c0,1.2,0.8,2.3,2,2.4
			c1.3,0.1,2.4-0.9,2.4-2.2v-11.2l0,0h4.3l0,0l-4.3-25.4l4.4,14.2c0.3,1.2,1.4,2,2.4,1.7C623.2,1011.5,623.9,1010.4,623.6,1009.2z"
			/>
	</g>
</g>
<g>
	<polygon class="st0" points="450.5,1063.5 514.2,1028.8 630.8,1028.8 694.5,1063.5 	"/>
	<g>
		<path class="st1" d="M630.7,1029.4l61.3,33.4H453.1l61.3-33.4H630.7 M631,1028.1H514l-66,36h249L631,1028.1L631,1028.1z"/>
	</g>
</g>
<g>
	<g>
		<path class="st34" d="M505.7,1002.2l0.3-0.2c0.7,1.7,2.1,3.1,3.7,3.1c1.6,0,2.9-1.4,3.7-3.1l0.3,0.2c0.2,0,0.4-0.2,0.5-0.5
			l0.2-1.7c0-0.2-0.1-0.5-0.3-0.5c0-2.3-1.9-4.2-4.2-4.2s-4.2,1.9-4.2,4.2c-0.2,0-0.4,0.3-0.3,0.5l0.1,1.7
			C505.3,1002,505.5,1002.2,505.7,1002.2z M518.8,1011.1c0-2.7-1.5-4.9-4.2-4.9h-9.8c-2.5,0-4,1.8-4.2,4.2c-0.1,0.2-0.1,0.4-0.1,0.6
			l-0.7,16c0,1.2,0.9,2.2,1.9,2.2c1.1,0,1.9-1,1.9-2.2v-14.8l0.9,10.4l0,0v26c0,1.3,1.1,2.3,2.4,2.2c1.2-0.1,2-1.2,2-2.3v-20.9
			c0.2,0,0.4,0,0.6,0c0.2,0,0.4,0,0.6,0v21c0,0.9,0.5,1.8,1.3,2.1c1.6,0.6,3.1-0.5,3.1-2v-26l0,0l0.8-9.8v14.3c0,1.2,0.9,2.2,2,2.2
			s2-1,2-2.2L518.8,1011.1z"/>
	</g>
</g>
<g>
	<g>
		<path class="st34" d="M484.8,1005.3L484.8,1005.3l-0.3-3.3l0.2-0.4l0.1-1.7c0-0.2-0.1-0.5-0.3-0.5c0-2.3-1.9-4.2-4.3-4.2
			c-2.3,0-4.2,1.9-4.3,4.2c-0.2,0-0.4,0.3-0.3,0.5l0.1,1.7l0.2,0.4l-0.3,3.3l0,0H484.8z M493.6,1025.2l-5.5-15.5l-0.1-0.3
			c-0.5-2-1.9-3.4-4.1-3.4h-7.2c-2.2,0-3.7,1.5-4.1,3.6l-4.8,15.5c-0.2,1.2,0.4,2.3,1.5,2.5s2.1-0.6,2.3-1.8l3.8-14l-3.8,25.4l0,0
			h3.7l0,0v11.1c0,1.2,0.8,2.3,2,2.4c1.3,0.1,2.4-0.9,2.4-2.2v-11.2h1.3v11.1c0,1.2,0.8,2.3,2,2.4c1.3,0.1,2.4-0.9,2.4-2.2v-11.2
			l0,0h4.3l0,0l-4.3-25.4l4.4,14.2c0.3,1.2,1.4,2,2.4,1.7C493.2,1027.5,493.8,1026.4,493.6,1025.2z"/>
	</g>
</g>
<g>
	<g>
		<path class="st34" d="M562.1,1002.2l0.3-0.2c0.7,1.7,2.1,3.1,3.7,3.1c1.6,0,2.9-1.4,3.7-3.1l0.3,0.2c0.2,0,0.4-0.2,0.5-0.5
			l0.2-1.7c0-0.2-0.1-0.5-0.3-0.5c0-2.3-1.9-4.2-4.2-4.2s-4.2,1.9-4.2,4.2c-0.2,0-0.4,0.3-0.3,0.5l0.1,1.7
			C561.7,1002,561.9,1002.2,562.1,1002.2z M575.2,1011.1c0-2.7-1.5-4.9-4.2-4.9h-9.8c-2.5,0-4,1.8-4.2,4.2c-0.1,0.2-0.1,0.4-0.1,0.6
			l-0.7,16c0,1.2,0.9,2.2,1.9,2.2c1.1,0,1.9-1,1.9-2.2v-14.8l0.9,10.4l0,0v26c0,1.3,1.1,2.3,2.4,2.2c1.2-0.1,2-1.2,2-2.3v-20.9
			c0.2,0,0.4,0,0.6,0c0.2,0,0.4,0,0.6,0v21c0,0.9,0.5,1.8,1.3,2.1c1.6,0.6,3.1-0.5,3.1-2v-26l0,0l0.8-9.8v14.3c0,1.2,0.9,2.2,2,2.2
			s2-1,2-2.2L575.2,1011.1z"/>
	</g>
</g>
<g>
	<g>
		<path class="st34" d="M543.2,1005.3L543.2,1005.3l-0.3-3.3l0.2-0.4l0.1-1.7c0-0.2-0.1-0.5-0.3-0.5c0-2.3-1.9-4.2-4.3-4.2
			c-2.3,0-4.2,1.9-4.3,4.2c-0.2,0-0.4,0.3-0.3,0.5l0.1,1.7l0.2,0.4l-0.3,3.3l0,0H543.2z M552,1025.2l-5.5-15.5l-0.1-0.3
			c-0.5-2-1.9-3.4-4.1-3.4h-7.2c-2.2,0-3.7,1.5-4.1,3.6l-4.8,15.5c-0.2,1.2,0.4,2.3,1.5,2.5s2.1-0.6,2.3-1.8l3.8-14l-3.8,25.4l0,0
			h3.7l0,0v11.1c0,1.2,0.8,2.3,2,2.4c1.3,0.1,2.4-0.9,2.4-2.2v-11.2h1.3v11.1c0,1.2,0.8,2.3,2,2.4c1.3,0.1,2.4-0.9,2.4-2.2v-11.2
			l0,0h4.3l0,0l-4.3-25.4l4.4,14.2c0.3,1.2,1.4,2,2.4,1.7C551.6,1027.5,552.3,1026.4,552,1025.2z"/>
	</g>
</g>
<g>
	<g>
		<path class="st34" d="M620.7,1002.2l0.3-0.2c0.7,1.7,2.1,3.1,3.7,3.1c1.6,0,2.9-1.4,3.7-3.1l0.3,0.2c0.2,0,0.4-0.2,0.5-0.5
			l0.2-1.7c0-0.2-0.1-0.5-0.3-0.5c0-2.3-1.9-4.2-4.2-4.2s-4.2,1.9-4.2,4.2c-0.2,0-0.4,0.3-0.3,0.5l0.1,1.7
			C620.3,1002,620.5,1002.2,620.7,1002.2z M633.8,1011.1c0-2.7-1.5-4.9-4.2-4.9h-9.8c-2.5,0-4,1.8-4.2,4.2c-0.1,0.2-0.1,0.4-0.1,0.6
			l-0.7,16c0,1.2,0.9,2.2,1.9,2.2c1.1,0,1.9-1,1.9-2.2v-14.8l0.9,10.4l0,0v26c0,1.3,1.1,2.3,2.4,2.2c1.2-0.1,2-1.2,2-2.3v-20.9
			c0.2,0,0.4,0,0.6,0c0.2,0,0.4,0,0.6,0v21c0,0.9,0.5,1.8,1.3,2.1c1.6,0.6,3.1-0.5,3.1-2v-26l0,0l0.8-9.8v14.3c0,1.2,0.9,2.2,2,2.2
			s2-1,2-2.2L633.8,1011.1z"/>
	</g>
</g>
<g>
	<g>
		<path class="st34" d="M599.8,1005.3C599.8,1005.3,599.9,1005.3,599.8,1005.3l-0.3-3.3l0.2-0.4l0.1-1.7c0-0.2-0.1-0.5-0.3-0.5
			c0-2.3-1.9-4.2-4.3-4.2c-2.3,0-4.2,1.9-4.3,4.2c-0.2,0-0.4,0.3-0.3,0.5l0.1,1.7l0.2,0.4l-0.3,3.3l0,0H599.8z M608.6,1025.2
			l-5.5-15.5l-0.1-0.3c-0.5-2-1.9-3.4-4.1-3.4h-7.2c-2.2,0-3.7,1.5-4.1,3.6l-4.8,15.5c-0.2,1.2,0.4,2.3,1.5,2.5s2.1-0.6,2.3-1.8
			l3.8-14l-3.8,25.4l0,0h3.7l0,0v11.1c0,1.2,0.8,2.3,2,2.4c1.3,0.1,2.4-0.9,2.4-2.2v-11.2h1.3v11.1c0,1.2,0.8,2.3,2,2.4
			c1.3,0.1,2.4-0.9,2.4-2.2v-11.2l0,0h4.3l0,0l-4.3-25.4l4.4,14.2c0.3,1.2,1.4,2,2.4,1.7C608.2,1027.5,608.9,1026.4,608.6,1025.2z"
			/>
	</g>
</g>
<g>
	<g>
		<path class="st34" d="M656.2,1005.3C656.3,1005.3,656.3,1005.3,656.2,1005.3l-0.3-3.3l0.2-0.4l0.1-1.7c0-0.2-0.1-0.5-0.3-0.5
			c0-2.3-1.9-4.2-4.3-4.2c-2.3,0-4.2,1.9-4.3,4.2c-0.2,0-0.4,0.3-0.3,0.5l0.1,1.7l0.2,0.4l-0.3,3.3l0,0H656.2z M665,1025.2
			l-5.5-15.5l-0.1-0.3c-0.5-2-1.9-3.4-4.1-3.4h-7.2c-2.2,0-3.7,1.5-4.1,3.6l-4.8,15.5c-0.2,1.2,0.4,2.3,1.5,2.5s2.1-0.6,2.3-1.8
			l3.8-14l-3.8,25.4l0,0h3.7l0,0v11.1c0,1.2,0.8,2.3,2,2.4c1.3,0.1,2.4-0.9,2.4-2.2v-11.2h1.3v11.1c0,1.2,0.8,2.3,2,2.4
			c1.3,0.1,2.4-0.9,2.4-2.2v-11.2l0,0h4.3l0,0l-4.3-25.4l4.4,14.2c0.3,1.2,1.4,2,2.4,1.7C664.6,1027.5,665.3,1026.4,665,1025.2z"/>
	</g>
</g>
<g>
	<g>
		<g>
			<g>
				<path class="st35" d="M488.6,1009.2l0.3-0.2c0.8,1.8,2.3,3.3,4,3.3s3.2-1.5,4-3.3l0.3,0.2c0.2,0,0.5-0.2,0.5-0.5l0.2-1.9
					c0-0.3-0.1-0.5-0.3-0.5c0-2.5-2.1-4.6-4.6-4.6s-4.6,2-4.6,4.5c-0.2,0-0.4,0.3-0.4,0.6l0.2,1.9
					C488.2,1009,488.4,1009.2,488.6,1009.2z M502.8,1018.8c0-2.9-1.6-5.3-4.6-5.3h-10.6c-2.7,0-4.3,2-4.5,4.6
					c-0.1,0.2-0.1,0.5-0.1,0.7l-0.7,17.3c0,1.3,0.9,2.4,2.1,2.4c1.2,0,2.1-1.1,2.1-2.4v-16l1,11.2v28.1c0,1.3,1.1,2.4,2.4,2.4
					c1.3,0,2.4-1.1,2.4-2.4v-22.7c0.2,0,0.4,0,0.7,0c0.2,0,0.5,0,0.7,0v22.7c0,1.3,1.1,2.4,2.4,2.4c1.3,0,2.4-1.1,2.4-2.4v-28.1
					l0.9-10.6v15.4c0,1.3,1,2.4,2.1,2.4c1.2,0,2.1-1.1,2.1-2.4L502.8,1018.8z"/>
			</g>
		</g>
		<g>
			<g>
				<path class="st35" d="M468.2,1012.6l-0.4-3.6l0.2-0.4l0.2-1.9c0-0.3-0.1-0.5-0.3-0.6c0-2.5-2.1-4.6-4.6-4.6s-4.6,2-4.6,4.6
					c-0.2,0-0.4,0.3-0.4,0.6l0.2,1.9l0.2,0.4l-0.4,3.6H468.2z M477.7,1034.1l-6-16.7l-0.1-0.3c-0.5-2.1-2-3.7-4.4-3.7h-7.8
					c-2.4,0-4,1.6-4.4,3.9l-5.2,16.8c-0.2,1.3,0.5,2.5,1.6,2.7s2.2-0.7,2.5-2l4.1-15.1l-4.2,27.5h4v12.2c0,1.3,1.1,2.4,2.4,2.4
					c1.3,0,2.4-1.1,2.4-2.4v-12.2h1.4v12.2c0,1.3,1.1,2.4,2.4,2.4c1.3,0,2.4-1.1,2.4-2.4v-12.2h4.7l-4.7-27.5l4.8,15.3
					c0.3,1.3,1.5,2.1,2.6,1.9C477.3,1036.6,478,1035.4,477.7,1034.1z"/>
			</g>
		</g>
	</g>
	<g>
		<g>
			<g>
				<path class="st35" d="M547.5,1009.2l0.3-0.2c0.8,1.8,2.3,3.3,4,3.3s3.2-1.5,4-3.3l0.3,0.2c0.2,0,0.5-0.2,0.5-0.5l0.2-1.9
					c0-0.3-0.1-0.5-0.3-0.5c0-2.5-2.1-4.6-4.6-4.6s-4.6,2-4.6,4.5c-0.2,0-0.4,0.3-0.4,0.6l0.2,1.9
					C547,1009,547.2,1009.2,547.5,1009.2z M561.7,1018.8c0-2.9-1.6-5.3-4.6-5.3h-10.6c-2.7,0-4.3,2-4.5,4.6
					c-0.1,0.2-0.1,0.5-0.1,0.7l-0.7,17.3c0,1.3,0.9,2.4,2.1,2.4c1.2,0,2.1-1.1,2.1-2.4v-16l1,11.2v28.1c0,1.3,1.1,2.4,2.4,2.4
					c1.3,0,2.4-1.1,2.4-2.4v-22.7c0.2,0,0.4,0,0.7,0c0.2,0,0.5,0,0.7,0v22.7c0,1.3,1.1,2.4,2.4,2.4c1.3,0,2.4-1.1,2.4-2.4v-28.1
					l0.9-10.6v15.4c0,1.3,1,2.4,2.1,2.4c1.2,0,2.1-1.1,2.1-2.4L561.7,1018.8z"/>
			</g>
		</g>
		<g>
			<g>
				<path class="st35" d="M527.1,1012.6l-0.4-3.6l0.2-0.4l0.2-1.9c0-0.3-0.1-0.5-0.3-0.6c0-2.5-2.1-4.6-4.6-4.6s-4.6,2-4.6,4.6
					c-0.2,0-0.4,0.3-0.4,0.6l0.2,1.9l0.2,0.4l-0.4,3.6H527.1z M536.5,1034.1l-6-16.7l-0.1-0.3c-0.5-2.1-2-3.7-4.4-3.7h-7.8
					c-2.4,0-4,1.6-4.4,3.9l-5.2,16.8c-0.2,1.3,0.5,2.5,1.6,2.7s2.2-0.7,2.5-2l4.1-15.1l-4.2,27.5h4v12.2c0,1.3,1.1,2.4,2.4,2.4
					c1.3,0,2.4-1.1,2.4-2.4v-12.2h1.4v12.2c0,1.3,1.1,2.4,2.4,2.4c1.3,0,2.4-1.1,2.4-2.4v-12.2h4.7l-4.7-27.5l4.8,15.3
					c0.3,1.3,1.5,2.1,2.6,1.9C536.1,1036.6,536.8,1035.4,536.5,1034.1z"/>
			</g>
		</g>
	</g>
	<g>
		<g>
			<g>
				<path class="st35" d="M604.4,1009.2l0.3-0.2c0.8,1.8,2.3,3.3,4,3.3s3.2-1.5,4-3.3l0.3,0.2c0.2,0,0.5-0.2,0.5-0.5l0.2-1.9
					c0-0.3-0.1-0.5-0.3-0.5c0-2.5-2.1-4.6-4.6-4.6s-4.6,2-4.6,4.5c-0.2,0-0.4,0.3-0.4,0.6l0.2,1.9
					C603.9,1009,604.1,1009.2,604.4,1009.2z M618.5,1018.8c0-2.9-1.6-5.3-4.6-5.3h-10.6c-2.7,0-4.3,2-4.5,4.6
					c-0.1,0.2-0.1,0.5-0.1,0.7l-0.7,17.3c0,1.3,0.9,2.4,2.1,2.4c1.2,0,2.1-1.1,2.1-2.4v-16l1,11.2v28.1c0,1.3,1.1,2.4,2.4,2.4
					c1.3,0,2.4-1.1,2.4-2.4v-22.7c0.2,0,0.4,0,0.7,0c0.2,0,0.5,0,0.7,0v22.7c0,1.3,1.1,2.4,2.4,2.4c1.3,0,2.4-1.1,2.4-2.4v-28.1
					l0.9-10.6v15.4c0,1.3,1,2.4,2.1,2.4c1.2,0,2.1-1.1,2.1-2.4L618.5,1018.8z"/>
			</g>
		</g>
		<g>
			<g>
				<path class="st35" d="M584,1012.6l-0.4-3.6l0.2-0.4l0.2-1.9c0-0.3-0.1-0.5-0.3-0.6c0-2.5-2.1-4.6-4.6-4.6s-4.6,2-4.6,4.6
					c-0.2,0-0.4,0.3-0.4,0.6l0.2,1.9l0.2,0.4l-0.4,3.6H584z M593.4,1034.1l-6-16.7l-0.1-0.3c-0.5-2.1-2-3.7-4.4-3.7h-7.8
					c-2.4,0-4,1.6-4.4,3.9l-5.2,16.8c-0.2,1.3,0.5,2.5,1.6,2.7s2.2-0.7,2.5-2l4.1-15.1l-4.2,27.5h4v12.2c0,1.3,1.1,2.4,2.4,2.4
					c1.3,0,2.4-1.1,2.4-2.4v-12.2h1.4v12.2c0,1.3,1.1,2.4,2.4,2.4c1.3,0,2.4-1.1,2.4-2.4v-12.2h4.7l-4.7-27.5l4.8,15.3
					c0.3,1.3,1.5,2.1,2.6,1.9C593,1036.6,593.7,1035.4,593.4,1034.1z"/>
			</g>
		</g>
	</g>
	<g>
		<g>
			<g>
				<path class="st35" d="M663.2,1009.2l0.3-0.2c0.8,1.8,2.3,3.3,4,3.3s3.2-1.5,4-3.3l0.3,0.2c0.2,0,0.5-0.2,0.5-0.5l0.2-1.9
					c0-0.3-0.1-0.5-0.3-0.5c0-2.5-2.1-4.6-4.6-4.6s-4.6,2-4.6,4.5c-0.2,0-0.4,0.3-0.4,0.6l0.2,1.9
					C662.7,1009,663,1009.2,663.2,1009.2z M677.4,1018.8c0-2.9-1.6-5.3-4.6-5.3h-10.6c-2.7,0-4.3,2-4.5,4.6
					c-0.1,0.2-0.1,0.5-0.1,0.7l-0.7,17.3c0,1.3,0.9,2.4,2.1,2.4c1.2,0,2.1-1.1,2.1-2.4v-16l1,11.2v28.1c0,1.3,1.1,2.4,2.4,2.4
					c1.3,0,2.4-1.1,2.4-2.4v-22.7c0.2,0,0.4,0,0.7,0c0.2,0,0.5,0,0.7,0v22.7c0,1.3,1.1,2.4,2.4,2.4c1.3,0,2.4-1.1,2.4-2.4v-28.1
					l0.9-10.6v15.4c0,1.3,1,2.4,2.1,2.4c1.2,0,2.1-1.1,2.1-2.4L677.4,1018.8z"/>
			</g>
		</g>
		<g>
			<g>
				<path class="st35" d="M642.8,1012.6l-0.4-3.6l0.2-0.4l0.2-1.9c0-0.3-0.1-0.5-0.3-0.6c0-2.5-2.1-4.6-4.6-4.6s-4.6,2-4.6,4.6
					c-0.2,0-0.4,0.3-0.4,0.6l0.2,1.9l0.2,0.4l-0.4,3.6H642.8z M652.3,1034.1l-6-16.7l-0.1-0.3c-0.5-2.1-2-3.7-4.4-3.7H634
					c-2.4,0-4,1.6-4.4,3.9l-5.2,16.8c-0.2,1.3,0.5,2.5,1.6,2.7s2.2-0.7,2.5-2l4.1-15.1l-4.2,27.5h4v12.2c0,1.3,1.1,2.4,2.4,2.4
					c1.3,0,2.4-1.1,2.4-2.4v-12.2h1.4v12.2c0,1.3,1.1,2.4,2.4,2.4c1.3,0,2.4-1.1,2.4-2.4v-12.2h4.7l-4.7-27.5l4.8,15.3
					c0.3,1.3,1.5,2.1,2.6,1.9C651.9,1036.6,652.6,1035.4,652.3,1034.1z"/>
			</g>
		</g>
	</g>
</g>
<text transform="matrix(1 0 0 1 984.1792 651.5251)" class="st1 st36 st37">%</text>
<g>
	<polygon class="st1" points="994.8,414.7 994.8,410.2 992.2,410.2 992.2,412.1 989.7,409.6 982.7,416.6 983.9,416.6 983.9,423.6 
		987.8,423.6 987.8,417.9 991.6,417.9 991.6,423.6 995.4,423.6 995.4,416.6 996.7,416.6 	"/>
</g>
<path class="st1" d="M846.8,857.6c-1.1-2.2-3.1-3.2-5-3.3c-3.9,0-6.7,2.8-6.8,6.2c0,2,0.8,3.6,2.1,5.1c1.4,1.6,2.9,3.1,3.7,5
	c0.1,0.2,0.4,0.5,0.5,0.5c0.2,0,0.4-0.3,0.5-0.5c0.6-1,1.1-2,1.8-2.9c0.9-1.2,2-2.2,2.8-3.4C847.9,862.2,848,859.9,846.8,857.6z
	 M841.3,863.9c-1.9,0-3.4-1.5-3.3-3.4c0-1.7,1.5-3.2,3.3-3.2s3.3,1.5,3.3,3.3C844.6,862.4,843.1,863.9,841.3,863.9z"/>
<g>
	<path class="st0" d="M1186,209.1H881c-2.8,0-5-2.2-5-5v-13c0-2.8,2.2-5,5-5h305c2.8,0,5,2.2,5,5v13
		C1191,206.9,1188.8,209.1,1186,209.1z"/>
</g>
<path class="st2" d="M953.5,211.1h-37.4c-2.1,0-3.8-1.7-3.8-3.8v-19.4c0-2.1,1.7-3.8,3.8-3.8h37.4c2.1,0,3.8,1.7,3.8,3.8v19.5
	C957.3,209.4,955.6,211.1,953.5,211.1z"/>
<g>
	<path class="st0" d="M1175.9,29.9H869.1c-2.3,0-4.1-1.9-4.1-4.1v-7.4c0-2.3,1.9-4.1,4.1-4.1h306.8c2.3,0,4.1,1.9,4.1,4.1v7.4
		C1180,28.1,1178.1,29.9,1175.9,29.9z"/>
</g>
<path class="st2" d="M1049.8,33.5H926.9c-2,0-3.6-1.6-3.6-3.6V15.6c0-2,1.6-3.6,3.6-3.6h122.9c2,0,3.6,1.6,3.6,3.6v14.3
	C1053.3,31.9,1051.7,33.5,1049.8,33.5z"/>
<text transform="matrix(1 0 0 1 932.9496 203.5228)" class="st1 st36 st37">$</text>
<text transform="matrix(1 0 0 1 964.6521 26.5276)" class="st1 st36 st38">CLUSTER</text>
<text transform="matrix(1 0 0 1 1073.8042 26.5276)" class="st17 st36 st38">UNITED STATES</text>
<text transform="matrix(1 0 0 1 829.2198 26.5276)" class="st5 st36 st38">KEY:</text>
<text transform="matrix(1 0 0 1 863.4969 57.5171)" class="st39 st12 st28">Lowest values</text>
<text transform="matrix(1 0 0 1 1081.9937 55.5171)" class="st39 st12 st28">Highest values</text>
<g>
	<g>
		<line class="st40" x1="864.5" y1="42.7" x2="864.5" y2="41.6"/>
		<line class="st41" x1="864.5" y1="39" x2="864.5" y2="4.9"/>
		<line class="st40" x1="864.5" y1="3.6" x2="864.5" y2="2.5"/>
	</g>
</g>
<line class="st42" x1="923.7" y1="42.7" x2="923.7" y2="2.5"/>
<g>
	<g>
		<line class="st40" x1="1179.8" y1="42.7" x2="1179.8" y2="41.6"/>
		<line class="st41" x1="1179.8" y1="39" x2="1179.8" y2="4.9"/>
		<line class="st40" x1="1179.8" y1="3.6" x2="1179.8" y2="2.5"/>
	</g>
</g>
<g>
	<g>
		<line class="st40" x1="1053.5" y1="42.7" x2="1053.5" y2="41.6"/>
		<line class="st41" x1="1053.5" y1="39" x2="1053.5" y2="4.9"/>
		<line class="st40" x1="1053.5" y1="3.6" x2="1053.5" y2="2.5"/>
	</g>
</g>
<rect x="310" y="165.2" class="st24" width="355" height="56.9"/>
<text transform="matrix(1 0 0 1 310.0156 176.5839)" class="st15 st6 st9">$3,131,837  </text>
<text transform="matrix(1 0 0 1 310.0156 194.5839)" class="st15 st12 st43">Transitional Living for Homeless Youth</text>
<rect x="575" y="622.7" class="st24" width="197" height="109.4"/>
<text transform="matrix(1 0 0 1 575.0299 634.0447)" class="st15 st6 st9">$856,588  </text>
<text transform="matrix(1 0 0 1 575.0299 652.0447)" class="st15 st12 st43">Education and Prevention </text>
<text transform="matrix(1 0 0 1 575.0299 670.0447)" class="st15 st12 st43">Grants to Reduce Sexual </text>
<text transform="matrix(1 0 0 1 575.0299 688.0447)" class="st15 st12 st43">Abuse of Runaway, Homeless </text>
<text transform="matrix(1 0 0 1 575.0299 706.0447)" class="st15 st12 st43">and Street Youth</text>
<rect x="573" y="362.7" class="st24" width="186" height="106.4"/>
<text transform="matrix(1 0 0 1 573.0299 374.0479)" class="st15 st6 st9">$2,522,774  </text>
<text transform="matrix(1 0 0 1 573.0299 392.0479)" class="st15 st12 st43">Basic Center Grant</text>
<rect x="573" y="734.4" class="st24" width="182" height="89.4"/>
<text transform="matrix(1 0 0 1 573.0299 745.7169)" class="st15 st6 st9">$418,895 </text>
<text transform="matrix(1 0 0 1 573.0299 763.7169)" class="st15 st12 st43">Homeless Veterans  </text>
<text transform="matrix(1 0 0 1 573.0299 781.7169)" class="st15 st12 st43">Reintegration Program</text>
<rect x="15" y="786.7" class="st24" width="194" height="67.4"/>
<text transform="matrix(1 0 0 1 15.0157 798.0415)" class="st15 st6 st9">$5,809,017 </text>
<text transform="matrix(1 0 0 1 15.0157 816.0415)" class="st15 st12 st43">VA Homeless Providers Grant </text>
<text transform="matrix(1 0 0 1 15.0157 834.0415)" class="st15 st12 st43">and Per Diem Program </text>
<g>
	<path class="st0" d="M1082.3,1104.2H899.2c-2.3,0-4.2-1.9-4.2-4.2v-14.6c0-2.3,1.9-4.2,4.2-4.2h183.1c2.3,0,4.2,1.9,4.2,4.2v14.6
		C1086.5,1102.3,1084.6,1104.2,1082.3,1104.2z"/>
</g>
<path class="st2" d="M969.5,1106.2h-60.2c-2.2,0-4-1.8-4-4v-19c0-2.2,1.8-4,4-4h60.2c2.2,0,4,1.8,4,4v19
	C973.5,1104.4,971.7,1106.2,969.5,1106.2z"/>
<g>
	<path class="st1" d="M961.6,1090.8c0.3,0.1,0.5,0.1,0.7,0.3c0.5,0.3,0.8,0.8,0.8,1.3c0,2.5,0,4.9,0,7.4c0,0.8-0.6,1.4-1.5,1.5
		c-0.6,0-1.1,0-1.7,0c-2.3,0-4.7,0-7,0c-1.1,0-1.7-0.6-1.7-1.7c0-2.3,0-4.5,0-6.8c0-1.1,0.4-1.7,1.5-1.9c0-0.7,0-1.4,0-2.1
		c0-2.2,1.3-3.9,3.5-4.4c2.5-0.6,5.1,1.2,5.4,3.7c0.1,0.8,0,1.6,0.1,2.4C961.6,1090.5,961.6,1090.6,961.6,1090.8z M952.7,1099.7
		c3,0,5.9,0,8.9,0c0-2.5,0-4.9,0-7.4c-3,0-5.9,0-8.9,0C952.7,1094.8,952.7,1097.2,952.7,1099.7z M960.1,1090.8c0-0.8,0-1.7,0-2.5
		c-0.1-1.5-1.3-2.6-2.9-2.7c-1.4-0.1-2.8,1-3,2.4c-0.1,0.9,0,1.9,0,2.8C956.1,1090.8,958.1,1090.8,960.1,1090.8z"/>
	<path class="st1" d="M957,1093.8c0.8,0,1.3,0.4,1.5,1s0,1.2-0.4,1.7c-0.1,0.1-0.2,0.3-0.2,0.4c0,0.2,0,0.5,0,0.7
		c0,0.4-0.4,0.7-0.7,0.7c-0.4,0-0.7-0.3-0.7-0.7c0-0.1,0-0.2,0-0.3c0-0.4,0-0.7-0.3-1c-0.5-0.4-0.5-1.1-0.3-1.6
		C956,1094.1,956.5,1093.8,957,1093.8z"/>
</g>
<text transform="matrix(1 0 0 1 483.6797 1314.8478)" class="st1 st6 st44">26,761,485</text>
<g>
	<g>
		<line class="st45" x1="17.2" y1="1180.7" x2="19.9" y2="1180.7"/>
		<line class="st46" x1="22.5" y1="1180.7" x2="256.3" y2="1180.7"/>
		<line class="st45" x1="257.6" y1="1180.7" x2="260.3" y2="1180.7"/>
	</g>
</g>
<line class="st47" x1="128" y1="621.1" x2="54.5" y2="236.6"/>
<text transform="matrix(1 0 0 1 112.0156 302.1776)" class="st15 st36 st18"> $53,796,273</text>
<text transform="matrix(1 0 0 1 84.4687 255.8477)" class="st15 st8 st16">77.4%</text>
<rect x="79.9" y="269.8" class="st2" width="13" height="13"/>
<g>
	<text transform="matrix(1 0 0 1 99.7832 280.924)" class="st15 st36 st18">Continuum of Care</text>
</g>
<rect x="448" y="217.7" class="st24" width="319" height="93.4"/>
<text transform="matrix(1 0 0 1 448.0275 229.0647)" class="st15 st6 st9">$2,704,467   </text>
<text transform="matrix(1 0 0 1 448.0275 247.0647)" class="st15 st12 st43">Transitional Housing Assistance for Victims  </text>
<text transform="matrix(1 0 0 1 448.0275 265.0647)" class="st15 st12 st43">of Domestic Violence, Dating Violence, Stalking,  </text>
<text transform="matrix(1 0 0 1 448.0275 283.0647)" class="st15 st12 st43">or Sexual Assault</text>
<line class="st47" x1="143" y1="159.1" x2="447" y2="435.1"/>
<g>
	<circle class="st1" cx="328.6" cy="604.4" r="164.4"/>
</g>
<text transform="matrix(1 0 0 1 270.46 605.8422)" class="st15 st8 st16">22.6%</text>
<g>
	<g>
		<line class="st48" x1="315" y1="417.9" x2="315.5" y2="206.1"/>
		<g>
			<path class="st49" d="M318.8,417.7c0,2.1-1.7,3.8-3.8,3.8c-2.1,0-3.8-1.7-3.8-3.8s1.7-3.8,3.8-3.8
				C317.1,413.9,318.8,415.6,318.8,417.7z"/>
		</g>
	</g>
</g>
<g>
	<g>
		<line class="st48" x1="456" y1="463.9" x2="456" y2="296.2"/>
		<g>
			<circle class="st49" cx="456" cy="463.7" r="3.8"/>
		</g>
	</g>
</g>
<g>
	<g>
		<polyline class="st48" points="518.9,555.7 549,555.1 549,370.2 566,370.2 		"/>
		<g>
			<path class="st49" d="M519.2,559.5c-2.1,0-3.8-1.6-3.8-3.7c0-2.1,1.6-3.8,3.7-3.8c2.1,0,3.8,1.6,3.8,3.7
				C522.9,557.7,521.2,559.4,519.2,559.5z"/>
		</g>
	</g>
</g>
<g>
	<g>
		<polyline class="st48" points="475.9,724.1 545,724.1 545,654.1 562,654.1 		"/>
		<g>
			<path class="st49" d="M476.1,727.9c-2.1,0-3.8-1.7-3.8-3.8s1.7-3.8,3.8-3.8s3.8,1.7,3.8,3.8S478.2,727.9,476.1,727.9z"/>
		</g>
	</g>
</g>
<g>
	<g>
		<polyline class="st48" points="420.9,770.1 544,770.1 544,813.1 562,813.1 		"/>
		<g>
			<path class="st49" d="M421.1,773.9c-2.1,0-3.8-1.7-3.8-3.8s1.7-3.8,3.8-3.8c2.1,0,3.8,1.7,3.8,3.8S423.2,773.9,421.1,773.9z"/>
		</g>
	</g>
</g>
<g>
	<g>
		<line class="st48" x1="443.9" y1="754.1" x2="560" y2="754.1"/>
		<g>
			<path class="st49" d="M444.1,757.9c-2.1,0-3.8-1.7-3.8-3.8s1.7-3.8,3.8-3.8s3.8,1.7,3.8,3.8S446.2,757.9,444.1,757.9z"/>
		</g>
	</g>
</g>
<rect x="573" y="808.4" class="st24" width="182" height="89.4"/>
<text transform="matrix(1 0 0 1 573.0299 819.7217)" class="st15 st6 st9">$242,898 </text>
<text transform="matrix(1 0 0 1 573.0299 837.7217)" class="st15 st12 st43">Demonstration Grants for </text>
<text transform="matrix(1 0 0 1 573.0299 855.7217)" class="st15 st12 st43">Domestic Victims of Human </text>
<text transform="matrix(1 0 0 1 573.0299 873.7217)" class="st15 st12 st43">Trafficking</text>
<g>
	<g>
		<line class="st48" x1="191.1" y1="729.2" x2="105" y2="791.1"/>
		<g>
			<path class="st49" d="M188.8,726.3c1.7-1.2,4-0.8,5.2,0.9s0.8,4-0.9,5.2c-1.7,1.2-4,0.8-5.2-0.9
				C186.7,729.8,187.1,727.5,188.8,726.3z"/>
		</g>
	</g>
</g>
<g>
	<text transform="matrix(1 0 0 1 294.784 648.9829)" class="st15 st36 st18"> $15,686,476</text>
</g>
<g>
	<rect x="265.8" y="619.7" class="st0" width="11.7" height="11.7"/>
	<g>
		<path class="st1" d="M276.9,620.3v10.4h-10.4v-10.4H276.9 M278.2,619h-13v13h13V619L278.2,619z"/>
	</g>
</g>
<g>
	<text transform="matrix(1 0 0 1 285.7745 628.9702)" class="st15 st36 st18">Other Programs</text>
</g>
</svg>
