<?xml version="1.0" encoding="utf-8"?>
<!-- Generator: Adobe Illustrator 22.1.0, SVG Export Plug-In . SVG Version: 6.00 Build 0)  -->
<svg version="1.1" id="Layer_1" xmlns="http://www.w3.org/2000/svg" xmlns:xlink="http://www.w3.org/1999/xlink" x="0px" y="0px"
	 viewBox="0 0 1255 1400" style="enable-background:new 0 0 1255 1400;" xml:space="preserve">
<style type="text/css">
	.st0{fill:#D1E5C1;}
	.st1{fill:#FFFFFF;}
	.st2{fill:#E0E0E0;}
	.st3{fill:none;stroke:#D1D1D1;stroke-linecap:round;stroke-miterlimit:10;}
	.st4{fill:#26660C;}
	.st5{fill:#212121;}
	.st6{font-family:'SourceSansPro-Semibold';}
	.st7{font-size:20px;}
	.st8{font-family:'SourceSansPro-Light';}
	.st9{font-size:16px;}
	.st10{font-size:22px;}
	.st11{font-family:'SourceSansPro-Regular';}
	.st12{font-size:36px;}
	.st13{fill:#3F3F3F;}
	.st14{font-size:56px;}
	.st15{font-size:14px;}
	.st16{fill:#848484;}
	.st17{clip-path:url(#SVGID_2_);}
	.st18{fill:#B4B4D6;}
	.st19{fill:#428424;}
	.st20{fill:#BF56B8;}
	.st21{fill:none;}
	.st22{fill:#4D4D8C;stroke:#FFFFFF;stroke-width:1.2929;stroke-miterlimit:10;}
	.st23{font-size:24px;}
	.st24{fill:#353535;}
	.st25{font-size:50px;}
	.st26{font-size:12px;}
	.st27{fill:none;stroke:#636363;stroke-width:2;stroke-linecap:round;stroke-miterlimit:10;}
	.st28{fill:#636363;}
	.st29{fill:#B7B7B7;}
	.st30{opacity:0.6;fill:#26660C;enable-background:new    ;}
	.st31{fill:#D3D3D3;}
	.st32{fill:#AAAAAA;}
	.st33{opacity:0.1;}
	.st34{fill:#7C7C7C;}
	.st35{fill:#565656;}
	.st36{font-family:'SourceSansPro-Bold';}
	.st37{font-size:18px;}
	.st38{font-size:11px;}
	.st39{fill:#380A6D;}
	.st40{fill:#7A7A7A;}
	.st41{fill:none;stroke:#AAAAAA;stroke-width:0.7921;stroke-linecap:round;stroke-miterlimit:10;}
	.st42{fill:none;stroke:#AAAAAA;stroke-width:0.7921;stroke-linecap:round;stroke-miterlimit:10;stroke-dasharray:2.5279,2.5279;}
	.st43{fill:none;stroke:#AAAAAA;stroke-width:0.7921;stroke-linecap:round;stroke-miterlimit:10;stroke-dasharray:2.3764,2.3764;}
	.st44{font-size:15px;}
	.st45{font-size:34px;}
	.st46{fill:none;stroke:#FFFFFF;stroke-width:2.6418;stroke-miterlimit:10;}
	.st47{fill:none;stroke:#FFFFFF;stroke-width:2.6418;stroke-miterlimit:10;stroke-dasharray:5.2256,2.6128;}
	.st48{fill:none;stroke:#808080;stroke-miterlimit:10;}
	.st49{fill:#808080;}
	.st50{opacity:0.25;fill:none;stroke:#26660C;stroke-width:0.5;stroke-miterlimit:10;enable-background:new    ;}
</style>
<g id="Layer_1_1_">
	<g>
		<g>
			<g>
				<g>
					<g>
						<path class="st0" d="M332.7,601.4l196.9-13.8c1,14.9,0.3,29.9-1.9,44.7L332.7,601.4z"/>
						<path class="st1" d="M529.2,588.2c0.9,14.5,0.3,29.2-1.9,43.5l-190.2-30.1L529.2,588.2 M530.1,587.1l-201.8,14.1l199.8,31.6
							C530.5,617.8,531.2,602.4,530.1,587.1L530.1,587.1z"/>
					</g>
				</g>
			</g>
			<g>
				<g>
					<g>
						<path class="st0" d="M519.3,536c5.7,16.8,9,32.9,10.3,50.7l-197.5,13.8L519.3,536z"/>
						<path class="st1" d="M519,536.6c5.6,16.4,8.8,32.2,10.1,49.6l-193.2,13.5L519,536.6 M519.6,535.4l-191.3,65.9l201.8-14.1
							C528.9,569,525.5,552.6,519.6,535.4L519.6,535.4z"/>
					</g>
				</g>
			</g>
			<g>
				<g>
					<g>
						<path class="st0" d="M478.6,466.6c19,21.1,31.1,41.7,40.3,68.5L330.4,600L478.6,466.6z"/>
						<path class="st1" d="M478.6,467.3c18.6,20.8,30.6,41.1,39.7,67.5l-185.7,63.9L478.6,467.3 M478.7,465.9L328.3,601.2
							l191.3-65.9C510.2,508,498,487.4,478.7,465.9L478.7,465.9z"/>
					</g>
				</g>
			</g>
			<g>
				<g>
					<g>
						<path class="st0" d="M401.1,413c30.5,11.8,54.9,28.6,76.9,52.8L329.5,599.5L401.1,413z"/>
						<path class="st1" d="M401.4,413.7c30,11.7,54.2,28.3,75.9,52.1L330.8,597.7L401.4,413.7 M400.8,412.4l-72.5,188.9l150.3-135.4
							C456.5,441.3,431.7,424.2,400.8,412.4L400.8,412.4z"/>
					</g>
				</g>
			</g>
			<g>
				<g>
					<g>
						<path class="st0" d="M246.7,416.7c26.7-11.8,54.1-17.8,81.2-17.8c23.9,0,48.2,4.6,72.3,13.8L328.3,600L246.7,416.7z"/>
						<path class="st1" d="M327.9,399.3c23.7,0,47.8,4.6,71.6,13.6l-71.3,185.7l-80.9-181.7C273.9,405.2,301,399.3,327.9,399.3
							L327.9,399.3 M327.9,398.3c-27.5,0-54.8,6-81.9,18.1l82.3,184.8l72.5-188.9C376.5,403,352.1,398.3,327.9,398.3L327.9,398.3z"
							/>
					</g>
				</g>
			</g>
			<g>
				<g>
					<g>
						<path class="st0" d="M328.6,803.1c-10.6,0-21.3-0.8-31.8-2.5c-109.9-17.4-185.2-121-167.8-230.9
							c11.2-70.6,51.6-123.4,116.8-152.6L328,601.7l199.6,31.6c-7.7,47.6-32.1,90.8-68.8,121.9C422.3,786.1,376.1,803.1,328.6,803.1
							z"/>
						<path class="st1" d="M245.5,417.7l81.9,183.9l0.2,0.5l0.5,0.1L527,633.7c-3.9,23.9-11.9,46.5-23.8,67.4
							c-11.7,20.4-26.7,38.5-44.7,53.7c-36.4,30.8-82.5,47.7-129.9,47.7c-10.6,0-21.2-0.8-31.7-2.5c-26.8-4.3-52-13.6-74.9-27.9
							c-22.1-13.8-41.1-31.5-56.5-52.6c-15.4-21.2-26.3-44.7-32.6-69.9c-6.5-26.2-7.6-53-3.4-79.9
							C140.6,499.4,180.7,446.9,245.5,417.7 M246,416.4c-65.5,29.2-106.3,82.3-117.5,153.2C111,680,186.3,783.6,296.7,801.1
							c10.7,1.7,21.4,2.5,31.9,2.5c97.8,0,183.8-71.1,199.6-170.7l-199.8-31.6L246,416.4L246,416.4z"/>
					</g>
				</g>
			</g>
		</g>
	</g>
	<g>
		<rect x="834" y="406.5" class="st2" width="396" height="13"/>
	</g>
	<g>
		<rect x="834" y="187.2" class="st2" width="396" height="13"/>
	</g>
	<line class="st3" x1="834" y1="430.2" x2="834" y2="395.2"/>
	<line class="st3" x1="933" y1="430" x2="933" y2="395"/>
	<line class="st3" x1="1032" y1="430.2" x2="1032" y2="395.2"/>
	<line class="st3" x1="1131" y1="430.2" x2="1131" y2="395.2"/>
	<line class="st3" x1="1230" y1="430.2" x2="1230" y2="395.2"/>
	<g>
		<path class="st0" d="M1187,424.5H950c-2.8,0-5-2.2-5-5v-13c0-2.8,2.2-5,5-5h237c2.8,0,5,2.2,5,5v13
			C1192,422.3,1189.8,424.5,1187,424.5z"/>
	</g>
	<path class="st4" d="M1128.8,426.5h-107.4c-2.7,0-4.8-2.2-4.8-4.8v-17.4c0-2.7,2.2-4.8,4.8-4.8h107.4c2.7,0,4.8,2.2,4.8,4.8v17.4
		C1133.6,424.4,1131.4,426.5,1128.8,426.5z"/>
	<g>
		<rect x="834" y="635.5" class="st2" width="396" height="13"/>
	</g>
	<line class="st3" x1="834" y1="659.2" x2="834" y2="624.2"/>
	<line class="st3" x1="933" y1="659" x2="933" y2="624"/>
	<line class="st3" x1="1032" y1="659.2" x2="1032" y2="624.2"/>
	<line class="st3" x1="1131" y1="659.2" x2="1131" y2="624.2"/>
	<line class="st3" x1="1230" y1="659.2" x2="1230" y2="624.2"/>
	<g>
		<path class="st0" d="M1223,653.5H943c-2.8,0-5-2.2-5-5v-13c0-2.8,2.2-5,5-5h280c2.8,0,5,2.2,5,5v13
			C1228,651.3,1225.8,653.5,1223,653.5z"/>
	</g>
	<path class="st4" d="M1039,655.5h-82.9c-2.2,0-4-1.8-4-4v-19c0-2.2,1.8-4,4-4h82.9c2.2,0,4,1.8,4,4v19
		C1043,653.7,1041.2,655.5,1039,655.5z"/>
	<g>
		<rect x="834" y="1082.6" class="st2" width="396" height="13"/>
	</g>
	<line class="st3" x1="834" y1="1106.2" x2="834" y2="1071.2"/>
	<line class="st3" x1="1032" y1="1106.2" x2="1032" y2="1071.2"/>
	<line class="st3" x1="1230" y1="1106.2" x2="1230" y2="1071.2"/>
	<g>
		<rect x="834" y="852.6" class="st2" width="396" height="13"/>
	</g>
	<line class="st3" x1="834" y1="866.2" x2="834" y2="831.2"/>
	<line class="st3" x1="933" y1="876.1" x2="933" y2="841.1"/>
	<line class="st3" x1="1032" y1="876.2" x2="1032" y2="841.2"/>
	<line class="st3" x1="1131" y1="876.2" x2="1131" y2="841.2"/>
	<line class="st3" x1="1230" y1="876.2" x2="1230" y2="841.2"/>
	<g>
		<path class="st0" d="M1195,870.6H843c-2.8,0-5-2.2-5-5v-13c0-2.8,2.2-5,5-5h352c2.8,0,5,2.2,5,5v13
			C1200,868.3,1197.8,870.6,1195,870.6z"/>
	</g>
	<path class="st4" d="M842.9,872.6h-0.7c-2.2,0-4-1.8-4-4v-19c0-2.2,1.8-4,4-4h0.7c2.2,0,4,1.8,4,4v19
		C846.9,870.8,845.1,872.6,842.9,872.6z"/>
	<rect x="446" y="1061.5" class="st4" width="250" height="34"/>
	<g>
		<text transform="matrix(1 0 0 1 431.0156 1178.1979)" class="st5 st6 st7">Total Population </text>
		<text transform="matrix(1 0 0 1 431.0156 1198.1979)" class="st5 st8 st9">Total population in this cluster</text>
	</g>
	<text transform="matrix(1 0 0 1 12.0156 921.1978)" class="st5 st6 st10">Number of People Experiencing </text>
	<text transform="matrix(1 0 0 1 12.0156 943.1978)" class="st5 st6 st10">Homelessness</text>
	<text transform="matrix(1 0 0 1 12.0156 963.1978)" class="st5 st8 st9">People experiencing homelssness on a single night </text>
	<text transform="matrix(1 0 0 1 12.0156 983.1978)" class="st5 st8 st9">in Janurary in this cluster</text>
	<text transform="matrix(1 0 0 1 11.0156 34.1979)" class="st4 st11 st12">Facts about Cluster 6</text>
	<text transform="matrix(1 0 0 1 829.0156 324.2059)" class="st5 st6 st10">Rent</text>
	<text transform="matrix(1 0 0 1 829.0156 344.2059)" class="st5 st8 st9">Range of median gross rents for areas within this cluster</text>
	<text transform="matrix(1 0 0 1 838.0156 1218.1979)" class="st5 st6 st7">Beds Available</text>
	<text transform="matrix(1 0 0 1 838.0156 1238.1979)" class="st5 st8 st9">Total sheltered and permanent beds available within this cluster</text>
	<g>
		<g>
			<path class="st4" d="M245.8,1158.9c0,15.5-12.5,28-28,28s-28-12.5-28-28s12.5-28,28-28S245.8,1143.5,245.8,1158.9z"/>
			<path class="st4" d="M245.9,1189h-18.6h-19h-18.6c-7.6,0-13.9,6.4-14,14.3c7.6,4.1,12.7,12.2,12.7,21.5c0,0,0.9,59.2,1.3,59.2
				v63.9c0,8,6.3,14.5,14,14.5s14-6.5,14-14.5c0,8,6.3,14.5,14,14.5s14-6.5,14-14.5V1284c7.7,0,14-6.5,14-14.5v-65.9
				C260,1195.6,253.7,1189,245.9,1189z"/>
		</g>
		<g>
			<ellipse class="st4" cx="59.1" cy="1158.8" rx="28" ry="28"/>
			<path class="st4" d="M87.1,1224.9c0-11,4.1-20.3,13.9-23.3c-0.9-7.1-6.8-12.6-13.9-12.6H68.5h-19H31c-7.7,0-14,6.5-14,14.5v65.9
				c0,8,6.3,14.5,14,14.5v63.9c0,8,6.3,14.5,14,14.5s14-6.5,14-14.5c0,8,6.3,14.5,14,14.5s14-6.5,14-14.5v-26.6v-96.3H87.1z"/>
		</g>
		<path class="st4" d="M172.4,1141.7h-23.9h-24.4h-23.9c-9.9,0-18,8.4-18,18.7v84.6c0,10.3,8.1,18.7,18,18.7v82.1
			c0,10.3,8.1,18.7,18,18.7s18-8.4,18-18.7c0,10.3,8.1,18.7,18,18.7s18-8.4,18-18.7v-82.1c9.9,0,18-8.4,18-18.7v-84.6
			C190.4,1150.1,182.3,1141.7,172.4,1141.7z"/>
		<path class="st4" d="M172.2,1103.5c0,19.8-16.1,35.9-35.9,35.9s-35.9-16.1-35.9-35.9s16.1-35.9,35.9-35.9
			C156.1,1067.5,172.2,1083.6,172.2,1103.5z"/>
	</g>
	<text transform="matrix(1 0 0 1 273.9751 1218.9513)" class="st13 st11 st9">73% are</text>
	<text transform="matrix(1 0 0 1 273.9751 1236.9513)" class="st13 st11 st9">individuals</text>
	<text transform="matrix(1 0 0 1 273.9751 1152.4479)" class="st13 st11 st9">27% are</text>
	<text transform="matrix(1 0 0 1 273.9751 1170.4479)" class="st13 st11 st9">in families</text>
	<g>
		<text transform="matrix(1 0 0 1 13.8844 1044.1979)" class="st13 st8 st14">48,713 people </text>
	</g>
	<text transform="matrix(1 0 0 1 829.0156 545.2089)" class="st5 st6 st10">Rent as Percent of Income</text>
	<text transform="matrix(1 0 0 1 829.0156 565.2089)" class="st5 st8 st9">Range of 20th percentile incomes to annualized rents for areas  </text>
	<text transform="matrix(1 0 0 1 829.0156 585.2089)" class="st5 st8 st9">within this cluster</text>
	<text transform="matrix(1 0 0 1 829.0156 106.2059)" class="st5 st6 st10">Income</text>
	<text transform="matrix(1 0 0 1 829.0156 126.2059)" class="st5 st8 st9">Range of 20th percentile incomes for areas within this cluster</text>
	<text transform="matrix(1 0 0 1 906.8077 247.8729)" class="st4 st6 st15">CLUSTER MEDIAN: $15,364 </text>
	<text transform="matrix(1 0 0 1 921.8657 169.8729)" class="st16 st11 st15">$10K</text>
	<text transform="matrix(1 0 0 1 969.1157 169.8729)" class="st16 st11 st15">$15K</text>
	<text transform="matrix(1 0 0 1 877.8149 169.8729)" class="st16 st11 st15">$5K</text>
	<text transform="matrix(1 0 0 1 830.5649 169.8729)" class="st16 st11 st15">$0K</text>
	<text transform="matrix(1 0 0 1 1110.8657 169.8729)" class="st16 st11 st15">$30K</text>
	<text transform="matrix(1 0 0 1 1158.1157 169.8729)" class="st16 st11 st15">$35K</text>
	<text transform="matrix(1 0 0 1 1016.3657 169.8729)" class="st16 st11 st15">$20K</text>
	<text transform="matrix(1 0 0 1 1063.6157 169.8729)" class="st16 st11 st15">$25K</text>
	<text transform="matrix(1 0 0 1 1205.3657 169.8729)" class="st16 st11 st15">$40K</text>
	<line class="st3" x1="834" y1="211.2" x2="834" y2="176.2"/>
	<line class="st3" x1="933" y1="211" x2="933" y2="176"/>
	<line class="st3" x1="883.5" y1="211" x2="883.5" y2="176"/>
	<line class="st3" x1="982.5" y1="211" x2="982.5" y2="176"/>
	<line class="st3" x1="1081.5" y1="211" x2="1081.5" y2="176"/>
	<line class="st3" x1="1180.5" y1="211" x2="1180.5" y2="176"/>
	<line class="st3" x1="1032" y1="211.2" x2="1032" y2="176.2"/>
	<line class="st3" x1="1131" y1="211.2" x2="1131" y2="176.2"/>
	<line class="st3" x1="1230" y1="211.2" x2="1230" y2="176.2"/>
	<g>
		<g>
			<defs>
				<polygon id="SVGID_1_" points="267.9,1378.2 9,1378.2 10.4,1215.5 269.3,1215.5 				"/>
			</defs>
			<clipPath id="SVGID_2_">
				<use xlink:href="#SVGID_1_"  style="overflow:visible;"/>
			</clipPath>
			<g class="st17">
				<g>
					<g>
						<path class="st18" d="M245.8,1159.2c0,15.5-12.5,28-28,28s-28-12.5-28-28s12.5-28,28-28
							C233.3,1131.3,245.8,1143.8,245.8,1159.2z"/>
					</g>
					<path class="st19" d="M245.9,1188.9h-18.6h-19h-18.6c-7.6,0-13.9,6.4-14,14.3c7.6,4.1,12.7,12.2,12.7,21.5
						c0,0,0.9,59.2,1.3,59.2v63.9c0,8,6.3,14.5,14,14.5s14-6.5,14-14.5c0,8,6.3,14.5,14,14.5s14-6.5,14-14.5v-64
						c7.7,0,14-6.5,14-14.5v-65.9C260,1195.4,253.7,1188.9,245.9,1188.9z"/>
				</g>
				<g>
					<g>
						<ellipse class="st18" cx="59.1" cy="1159.1" rx="28" ry="28"/>
					</g>
					<path class="st19" d="M87.1,1224.7c0-11,4.1-20.3,13.9-23.3c-0.9-7.1-6.8-12.6-13.9-12.6H68.5h-19H31c-7.7,0-14,6.5-14,14.5
						v65.9c0,8,6.3,14.5,14,14.5v63.9c0,8,6.3,14.5,14,14.5s14-6.5,14-14.5c0,8,6.3,14.5,14,14.5s14-6.5,14-14.5V1321v-96.3H87.1z"
						/>
				</g>
				<path class="st19" d="M172.4,1142h-23.9h-24.4h-23.9c-9.9,0-18,8.4-18,18.7v84.6c0,10.3,8.1,18.7,18,18.7v82.1
					c0,10.3,8.1,18.7,18,18.7s18-8.4,18-18.7c0,10.3,8.1,18.7,18,18.7s18-8.4,18-18.7V1264c9.9,0,18-8.4,18-18.7v-84.6
					C190.4,1150.4,182.3,1142,172.4,1142z"/>
				<g>
					<path class="st20" d="M172.2,1103.8c0,19.8-16.1,35.9-35.9,35.9s-35.9-16.1-35.9-35.9s16.1-35.9,35.9-35.9
						C156.1,1067.8,172.2,1083.9,172.2,1103.8z"/>
				</g>
			</g>
		</g>
	</g>
	<g>
		<polygon class="st21" points="533,134.2 14,134.2 13,83.2 532,83.2 		"/>
		<text transform="matrix(1 0 0 1 13.3198 98.73)" class="st5 st6 st10">Federal Spending on Homelessness</text>
	</g>
	<g>
		<path class="st22" d="M961.9,1337.7c0,3.6,0,7,0,10.5c0,2.3,1.2,3.3,3.4,3.3c2.9,0,5.8,0,8.7,0c2.7,0,3.7-1,3.7-3.8
			c0-7,0-13.9,0-20.9c0-4.9-0.2-5.1-5-5.1c-37.7,0-75.5,0-113.2,0c-1.1,0-2.2,0-3.5,0c0-1.4,0-2.4,0-3.4c0-14,0-28,0-42.1
			c0-2.7-0.5-5.1-2.6-7c-2.6-2.3-5.6-2.6-8.6-1.4c-3.2,1.3-4.7,4.1-4.7,7.5c0,9.9,0,19.7,0,29.6c0,14.1,0,28.2,0,42.3
			c0,3.2,0.9,4.1,4.1,4.1c2.4,0,4.8,0,7.2,0c3.7,0,4.5-0.8,4.6-4.5c0-3.1,0-6.2,0-9.4C891.4,1337.7,926.4,1337.7,961.9,1337.7z
			 M898.9,1317.5c1,0.1,1.5,0.2,2.1,0.2c21.8,0,43.6,0,65.4,0c1.9,0,2.5-0.8,2.6-2.4c0.1-3.4,0.4-6.8,0.1-10.2
			c-0.8-11-9.1-18.9-20.1-19c-16-0.2-32,0-48-0.1c-1.7,0-2.1,0.6-2.1,2.2c0.1,5.4,0,10.8,0,16.2
			C898.9,1308.6,898.9,1312.9,898.9,1317.5z M884.8,1308.2c-1.2,0-2.1,0-3,0c-5.6,0-11.3,0-16.9,0c-2.8,0-4.7,1.9-4.8,4.7
			c-0.1,2.8,1.8,5.1,4.6,5.1c8.4,0.1,16.7,0.1,25.1,0c2.7,0,4.7-2.1,4.8-4.8c0.1-7.5,0.1-14.9,0-22.4c0-2.7-2.4-4.9-5-4.8
			c-2.5,0.1-4.7,2.1-4.8,4.8c-0.1,4.8,0,9.6-0.1,14.4C884.8,1306.1,884.8,1307,884.8,1308.2z M870.6,1303.4c6.7,0,12-5.1,11.9-11.6
			c0-6.4-5.3-11.7-11.7-11.7c-6.6,0-11.9,5.2-11.9,11.7C859,1298.3,864.1,1303.4,870.6,1303.4z"/>
		<path class="st4" d="M961.9,1337.7c-35.4,0-70.5,0-105.9,0c0,3.1,0,6.3,0,9.4c0,3.7-0.8,4.5-4.6,4.5c-2.4,0-4.8,0-7.2,0
			c-3.2,0-4.1-0.9-4.1-4.1c0-14.1,0-28.2,0-42.3c0-9.9,0-19.7,0-29.6c0-3.5,1.5-6.2,4.7-7.5c3-1.2,6-0.9,8.6,1.4
			c2.1,1.9,2.6,4.3,2.6,7c0,14,0,28,0,42.1c0,1,0,2,0,3.4c1.3,0,2.4,0,3.5,0c37.7,0,75.5,0,113.2,0c4.8,0,5,0.2,5,5.1
			c0,7,0,13.9,0,20.9c0,2.8-1,3.7-3.7,3.8c-2.9,0-5.8,0-8.7,0c-2.2,0-3.4-1-3.4-3.3C961.9,1344.7,961.9,1341.2,961.9,1337.7z"/>
		<path class="st4" d="M898.9,1317.5c0-4.5,0-8.8,0-13.1c0-5.4,0-10.8,0-16.2c0-1.6,0.4-2.2,2.1-2.2c16,0.1,32-0.1,48,0.1
			c11,0.1,19.3,8,20.1,19c0.3,3.4,0,6.8-0.1,10.2c0,1.6-0.7,2.5-2.6,2.4c-21.8-0.1-43.6,0-65.4,0
			C900.4,1317.7,899.8,1317.6,898.9,1317.5z"/>
		<path class="st4" d="M884.8,1308.2c0-1.2,0-2.1,0-3c0-4.8,0-9.6,0.1-14.4c0.1-2.6,2.3-4.7,4.8-4.8c2.6-0.1,5,2.1,5,4.8
			c0.1,7.5,0.1,14.9,0,22.4c0,2.7-2.1,4.7-4.8,4.8c-8.4,0.1-16.7,0.1-25.1,0c-2.8,0-4.7-2.3-4.6-5.1c0.1-2.7,1.9-4.6,4.8-4.7
			c5.6-0.1,11.3,0,16.9,0C882.8,1308.2,883.7,1308.2,884.8,1308.2z"/>
		<path class="st4" d="M870.6,1303.4c-6.5,0-11.7-5.2-11.6-11.6c0-6.5,5.3-11.7,11.9-11.7c6.4,0,11.7,5.3,11.7,11.7
			C882.6,1298.3,877.3,1303.5,870.6,1303.4z"/>
	</g>
	<g>
		<text transform="matrix(1 0 0 1 536.3034 1087.1979)" class="st1 st6 st23">1,362</text>
	</g>
	<g>
		<text transform="matrix(1 0 0 1 431.0156 922.1978)" class="st5 st6 st10">Population Density</text>
		<text transform="matrix(1 0 0 1 431.0156 942.1978)" class="st5 st8 st9">Number of people per square mile in this cluster</text>
	</g>
	<text transform="matrix(1 0 0 1 996.6825 1347.2563)" class="st24 st8 st25">30,603 beds</text>
	<text transform="matrix(1 0 0 1 829.0156 770.2257)" class="st5 st6 st10">Land Area</text>
	<text transform="matrix(1 0 0 1 829.0156 790.2257)" class="st5 st8 st9">Range of land area in square miles for areas within this cluster</text>
	<text transform="matrix(1 0 0 1 836.4032 915.8911)" class="st4 st6 st15">CLUSTER MEDIAN: 789</text>
	<text transform="matrix(1 0 0 1 831.5366 822.8843)" class="st16 st11 st15">0</text>
	<text transform="matrix(1 0 0 1 1204.3657 832.8923)" class="st16 st11 st15">600K</text>
	<text transform="matrix(1 0 0 1 1023.3657 832.8923)" class="st16 st11 st15">300K</text>
	<text transform="matrix(1 0 0 1 1118.3657 832.8923)" class="st16 st11 st15">450K</text>
	<text transform="matrix(1 0 0 1 918.3657 832.8923)" class="st16 st11 st15">150K</text>
	<text transform="matrix(1 0 0 1 922.4621 695.8759)" class="st4 st6 st15">CLUSTER MEDIAN: 79%</text>
	<text transform="matrix(1 0 0 1 831.0488 617.8759)" class="st16 st11 st15">0%</text>
	<text transform="matrix(1 0 0 1 924.8496 617.8759)" class="st16 st11 st15">50%</text>
	<text transform="matrix(1 0 0 1 1119.6509 617.8759)" class="st16 st11 st15">150%</text>
	<text transform="matrix(1 0 0 1 1016.6509 617.8759)" class="st16 st11 st15">100%</text>
	<text transform="matrix(1 0 0 1 1205.6509 617.8759)" class="st16 st11 st15">200%</text>
	<text transform="matrix(1 0 0 1 1004.4618 467.8729)" class="st4 st6 st15">CLUSTER MEDIAN: $1,004 </text>
	<text transform="matrix(1 0 0 1 1013.2778 388.8729)" class="st16 st11 st15">$1,000</text>
	<text transform="matrix(1 0 0 1 830.338 388.8729)" class="st16 st11 st15">$0</text>
	<text transform="matrix(1 0 0 1 1199.2778 388.8729)" class="st16 st11 st15">$2,000</text>
	<text transform="matrix(1 0 0 1 829.0156 994.2278)" class="st5 st6 st10">Property Crime Rate</text>
	<text transform="matrix(1 0 0 1 829.0156 1014.2278)" class="st5 st8 st9">Range of property crime incidents per 100K people for areas  </text>
	<text transform="matrix(1 0 0 1 829.0156 1034.2279)" class="st5 st8 st9">within this cluster</text>
	<text transform="matrix(1 0 0 1 881.6899 1145.8932)" class="st4 st6 st15">CLUSTER MEDIAN: 3,019</text>
	<text transform="matrix(1 0 0 1 830.5327 1064.8949)" class="st16 st11 st15">0</text>
	<text transform="matrix(1 0 0 1 1218.5737 1064.8949)" class="st16 st11 st15">10K</text>
	<text transform="matrix(1 0 0 1 1024.9304 1065.3949)" class="st16 st11 st15">5K</text>
	<line class="st3" x1="873.6" y1="1106.2" x2="873.6" y2="1071.2"/>
	<text transform="matrix(1 0 0 1 867.428 1065.3949)" class="st16 st11 st15">1K</text>
	<line class="st3" x1="913.2" y1="1106.2" x2="913.2" y2="1071.2"/>
	<text transform="matrix(1 0 0 1 906.4256 1065.3949)" class="st16 st11 st15">2K</text>
	<line class="st3" x1="952.8" y1="1106.2" x2="952.8" y2="1071.2"/>
	<text transform="matrix(1 0 0 1 946.4209 1065.3949)" class="st16 st11 st15">3K</text>
	<line class="st3" x1="992.4" y1="1106.2" x2="992.4" y2="1071.2"/>
	<text transform="matrix(1 0 0 1 985.4241 1065.3949)" class="st16 st11 st15">4K</text>
	<line class="st3" x1="1071.6" y1="1106.2" x2="1071.6" y2="1071.2"/>
	<text transform="matrix(1 0 0 1 1064.4304 1065.3949)" class="st16 st11 st15">6K</text>
	<line class="st3" x1="1111.2" y1="1106.2" x2="1111.2" y2="1071.2"/>
	<text transform="matrix(1 0 0 1 1103.9241 1065.3949)" class="st16 st11 st15">7K</text>
	<line class="st3" x1="1150.8" y1="1106.2" x2="1150.8" y2="1071.2"/>
	<text transform="matrix(1 0 0 1 1142.9216 1065.3949)" class="st16 st11 st15">8K</text>
	<line class="st3" x1="1190.4" y1="1106.2" x2="1190.4" y2="1071.2"/>
	<text transform="matrix(1 0 0 1 1183.4343 1065.3949)" class="st16 st11 st15">9K</text>
	<text transform="matrix(1 0 0 1 1209.0156 896.5532)" class="st11 st26"> </text>
	<g>
		<g>
			<line class="st27" x1="989.5" y1="679.7" x2="989.5" y2="662.3"/>
			<g>
				<path class="st28" d="M989.5,662.7c-1,1-3.1,1.5-4.5,1.6c1.9-1.4,3.6-3.3,4.5-5.5c0.9,2.3,2.7,4,4.5,5.5
					C992.5,664.1,990.7,663.8,989.5,662.7z"/>
			</g>
		</g>
	</g>
	<g>
		<g>
			<line class="st27" x1="842" y1="900.6" x2="842" y2="879.1"/>
			<g>
				<path class="st28" d="M842,879.5c-1,1-3.1,1.5-4.5,1.6c1.9-1.4,3.6-3.3,4.5-5.5c0.9,2.3,2.7,4,4.5,5.5
					C845,881,843.1,880.6,842,879.5z"/>
			</g>
		</g>
	</g>
	<g>
		<g>
			<line class="st27" x1="955" y1="1130.6" x2="955" y2="1109.1"/>
			<g>
				<path class="st28" d="M955,1109.5c-1,1-3.1,1.5-4.5,1.6c1.9-1.4,3.6-3.3,4.5-5.5c0.9,2.3,2.7,4,4.5,5.5
					C958,1111,956.2,1110.6,955,1109.5z"/>
			</g>
		</g>
	</g>
	<g>
		<g>
			<line class="st27" x1="984.8" y1="232.5" x2="984.8" y2="215.1"/>
			<g>
				<path class="st28" d="M984.8,215.5c-1,1-3.1,1.5-4.5,1.6c1.9-1.4,3.6-3.3,4.5-5.5c0.9,2.3,2.7,4,4.5,5.5
					C987.8,217,985.9,216.6,984.8,215.5z"/>
			</g>
		</g>
	</g>
	<g>
		<g>
			<line class="st27" x1="1077.7" y1="451.5" x2="1077.7" y2="434.1"/>
			<g>
				<path class="st28" d="M1077.7,434.5c-1,1-3.1,1.5-4.5,1.6c1.9-1.4,3.6-3.3,4.5-5.5c0.9,2.3,2.7,4,4.5,5.5
					C1080.7,436,1078.8,435.6,1077.7,434.5z"/>
			</g>
		</g>
	</g>
	<g>
		<g>
			<path class="st29" d="M723,1251.3v-0.3c0,0-0.1,0.1-0.1,0.2c0-0.2-0.1-0.3-0.2-0.4c-0.2,0.4-0.7-0.2-0.3-0.4c0.1,0,0.1,0,0.2-0.1
				l0,0v-0.1h-0.1l-0.1-0.2v-0.1h-0.1l-0.1-0.2v-0.1l0,0l-0.1-0.2l0,0H722h-0.1v0.1l-0.2,0.1h-0.3l-0.2-0.1l-0.1-0.1l-0.1-0.1
				l-0.1-0.2l-0.1-0.2l0,0l-0.1-0.1v-0.1l-0.1-0.1l-0.1-0.2v-0.2l0.1-0.2h0.1v-0.1l0.1-0.2l-0.2-0.1l-0.1-0.2v-0.5l0.1-0.2l0.1-0.1
				h-0.4l-0.2-0.1l-0.1-0.1h-0.2l-0.2-0.1v-0.1h-0.1v-0.1h-0.1l-0.2-0.1l-0.2-0.2l-0.1-0.1h-0.1l-0.1-0.2l0.1-0.2l-0.1-0.2v-0.2
				l0.1-0.2h0.1v-0.1v-0.3v-0.1v-0.1v-7.8c-0.1,0-0.1-0.1-0.1-0.1h-0.1l-0.2-0.1v-0.1l-0.1-0.1l-0.1-0.1h-0.1l-0.1-0.2v-0.1H718
				l-0.1-0.1l-0.1-0.1v-0.1h-0.1l-0.2-0.1l-0.1-0.1l-0.1-0.1v-0.1h-0.1l-0.2-0.1l-0.1-0.1h-0.1v-0.1h-0.1l-0.2-0.1v-0.1h-0.1v0.2
				l-0.1,0.2l-0.2,0.1h-0.5h-0.1h-0.1h-0.2l-0.1,0.1H715l-0.1,0.1l-0.2,0.1h-0.5l-0.1,0.1l-0.2,0.1h-0.1v0.1l-0.2,0.1h-0.3l-0.2-0.1
				v-0.1H713l-0.2-0.1l-0.1-0.1h0.3l-0.2-0.1l-0.1-0.2l0,0l-0.1-0.1v-0.1l-0.1-0.1v-0.6h-0.1l-0.1-0.1l-0.2-0.1l-0.2,0.2l-0.2,0.3
				l0,0l-0.3,0.5v0.1l-0.3,0.3l0,0l-0.3,0.3l-0.3,0.3l-0.3,0.5l0,0l-0.3,0.3l-0.3,0.5l-0.3,0.5l-0.3,0.5l-0.1,0.1l-0.3,0.3l-0.3,0.3
				l-0.3,1.8v0.1l-0.1,0.2l-0.2,0.1h-0.1v0.1h-0.1v0.1h-0.1v0.1l-0.1,0.3l-0.2,0.1l0,0v0.2l-0.1,0.2l0.1,0.1c0.1,0,0.1,0.1,0.2,0.2
				c0,0.1,0,0.3-0.1,0.4l-0.1,0.1l0,0l-0.1,0.2h-0.1v0.1l-0.1,0.2l0.2,0.1l0.1,0.2v0.5l-0.1,0.2l-0.1,0.1v0.1h-0.1l-0.1,0.2
				l-0.2,0.1l0,0l-0.1,0.1l0,0l0,0c0.1,0.1,0.1,0.2,0.1,0.4c0,0.1-0.1,0.1-0.2,0.2v0.1h-0.1l-0.1,0.1l-0.2,0.1h-0.1l-0.1,0.1
				l-0.2,0.1h-0.1v0.1h-0.1v0.1l-0.2,0.1l0,0l0,0l-0.1,0.2h-0.1c0,0.1,0,0.1-0.1,0.2l0,0h0.1v0.1h0.1l0.1,0.2h0.1l0.1,0.2v0.2
				l-0.1,0.2l-0.2,0.1h-0.4l-0.2-0.1l0,0v0.1v0.2l-0.1,0.2l-0.1,0.2l0,0v0.1l-0.1,0.2l-0.2,0.1h-0.2l-0.2-0.1l-0.1-0.2v-0.1h-0.1
				v-0.2h-0.1v0.1l-0.2,0.1l0,0l0,0l-0.1,0.2l-0.2,0.1h-0.3l-0.2-0.1l-0.1-0.1l0,0l-0.2-0.1v-0.1l-0.1,0.1l-0.1,0.1v0.1h-0.1v0.3
				l-0.1,0.2h-0.1v0.1l-0.1,0.2h-0.1l-0.1,0.1l-0.1,0.1v0.2c0,0.2-0.1,0.3-0.3,0.3h-1.2l-0.2,0.1h-0.1h-3.7l-0.2-0.1l-0.1-0.1h-3.5
				l-0.4,0.1h-0.1h-6.9h-0.1l0,0h-0.1v0.1l-0.2,0.1h-0.3v0.1l-0.2,0.1l0,0l-0.1,0.1l-0.2,0.1h-0.2v0.1l-0.1,0.1l-0.1,0.1l-0.2,0.1
				h-0.2l-0.1,0.1l-0.1,0.1v0.1l-0.2,0.2c-0.1,0.1-0.1,0.1-0.1,0.1l-0.1,0.1l-0.2,0.1h-0.1c0,0.1-0.1,0.1-0.1,0.1l-0.2,0.1l-0.1,0.1
				l-0.5,0.5l-0.1,0.1l-0.3,0.2v0.1l0,0l-0.1,0.2l-0.2,0.1h-0.1l0,0l-0.1,0.3l-0.1,0.1l-0.1,0.2l-0.1,0.3l-0.1,0.2l-0.3,0.1
				l-0.1,0.1l-0.2,0.1h-0.2l-0.1,0.2c-0.1,0.1-0.1,0.2-0.2,0.2h-0.2v0.2l-0.1,0.2l-0.2,0.1H677l-0.1,0.1l-0.2,0.1l-0.1,0.2l-0.1,0.1
				l-0.3,0.3l-0.6,0.8l-0.6,1.2l0,0l-0.6,1.1l-0.3,0.1h-9.4l-1.2,0.5l-1,0.5l0.4,0.9l0.1,0.1l0.1,0.2v0.9l0,0l0,0l0,0
				c0.1,0.1,0.1,0.1,0.1,0.2c0.2,0,0.3,0.1,0.3,0.2s0,0.2,0,0.4l0.1,0.1l0.1,0.2v0.3v0.1l-0.1,0.3c0.1,0.2,0.1,0.4-0.1,0.6
				c-1.4,1.1-2.8,2.2-4.2,3.3c-2.4,1.9-5.6,2.1-8.1,3.8c-0.4,0.3-0.7,0.7-1.1,1c-0.9,0.7-1.9,0.6-3,0.8c-0.4,0.1-0.9,0.3-1.3,0.4
				c-0.9,0.1-2.2-0.1-3-0.4c0.4-0.3,0.9-0.2,1.3-0.4c0.4-0.2,0.5-0.2-0.2-0.4c-1.1-0.4-2.2-0.8-3.3-1.2c0.5-0.9,0.9-1.8,1.4-2.6l0,0
				v-0.7l0.1-0.2l0.1-0.1v-0.2l0.1-0.2l0.2-0.1l0,0l0.1-0.1l0.2-0.1h0.1c0.3-0.5,0.5-1,0.8-1.4c0.4-0.8,0.8-0.8,1,0h0.1
				c0.2-0.5,0.3-0.9,0.5-1.4v-0.8l0.1-0.2l0.1-0.1v-0.1l0.1-0.2l0.1-0.1v-0.1v-0.1v-0.1c0-0.1-0.1-0.3-0.2-0.6
				c0-0.3-0.1-0.6-0.2-0.8c-0.1-0.6-0.1-1.1-0.3-1.7c-0.2-1-0.2-2.5-0.9-3.3c-1-1.1-2.1,0-3.1,0.7c-0.5,0.3-2.3,1.8-2.7,1.3
				c-0.2-0.2-0.1-0.7,0-0.9c0-0.2,0.1-0.6,0.2-0.8c0.4-0.6,1.1-0.3,1.5-0.8c0.2-0.3,0.1-0.7,0.2-1c0.2-0.5,0.7-0.4,1-0.8
				c0.3-0.5,0.3-2.4,0.2-3c-0.1-0.8-1.6-2.5,0.1-1.9c0-0.6-0.3-0.6-0.5-1.1c-0.1-0.3-0.1-0.6-0.2-0.7c-0.2-0.4-1.2-0.7-1.6-0.9
				c-0.6-0.2-1.2-0.3-1.7-0.6c-0.5-0.2-0.6-1-1.3-1.1c-0.4-0.1-0.7,0-1.1-0.1c-0.3-0.2-0.5-0.5-0.9-0.6c-0.3-0.1-1.2-0.3-1.4,0
				c-0.4,0.4-0.6,2.5,0.3,2.5c-0.6,0.5-1.4,0.1-2,0.7c-0.5,0.5-0.3,1.3-0.4,2.1c-0.1,0.8-0.3,0-0.6,0.2c-0.2,0.1-0.4,1.1-0.5,1.3
				c-0.3-0.4,0-0.9,0.1-1.3c-0.1,0-0.1,0-0.1,0c0-0.3,0.4-1.5,0-1.4c-0.1,0-0.5,0.7-0.6,0.9c-0.1,0.2-0.2,0.6-0.4,0.7
				s-0.3-0.2-0.4-0.1c-0.1,0-0.2,0.2-0.3,0.3c-0.1,0-0.4,0-0.4,0c-0.2,0.3-0.3,0.9-0.5,1.2c-0.1,0.1-0.3,0.1-0.4,0.2
				c-0.7,1-0.8,2.9-1.2,4.1c-0.2,0.7,0.2,1.2,0.2,2c0.1,0.9-0.3,1.8-0.1,2.7c0.1,0.5,0.4,1.6,1,1.1c0,0.8,0,1.2,0.2,1.8
				c0.1,0.4,0,0.8,0,1.2c0,2.7-1.9,5-3.1,7.2c0.3,0,0.8-0.1,1,0c0.3,0.1,0.5,0.7,0.5,1.1c0-0.6-0.4-1.1-0.9-1.1
				c-0.9-0.1-1.5,0.7-2.3,0.9c-0.6,0.1-1.6-0.2-1.8-0.8c-0.7-1.7-1.4-2.9-1.3-4.7c0.1-1.5-0.3-3.1-0.4-4.6c-0.1-0.7,0-1.1,0.2-1.8
				c0.3-1.2,0.3-2.5,0.7-3.6c0.2-1,0.7-1.8,0.9-2.8c0.2-0.9,0.5-1.7,0.8-2.5c0.1-0.2,0.1-0.7,0-1c0.4,0.3,1.1-0.6,1.2-0.9
				c0.4-0.8,0.4-1.2,0.3-2.2c-0.2,0.4-0.3,0.6-0.5,0.9c-0.1,0.1-0.2,0-0.4,0.2c-0.1,0.1,0,0.5-0.1,0.6c0,0.1-0.3,0.2-0.3,0.4
				c-0.1,0.2-0.4,0.8-0.1,1c-0.1-0.1-0.1-0.1-0.2-0.1c-0.3-0.1-1,0.3-1.2,0.7c-0.4,0.6-0.5,1-1.1,1.3c-0.2,0.1,0,0.4-0.4,0.2
				c-0.3-0.2-0.2-0.2-0.2-0.6c0.1-0.4,0.3-0.7,0.5-1c0.1-0.3,0.3-0.9,0.5-1.1c0.1-0.1,0.3,0,0.4-0.1c0.3-0.3,0.6-0.7,0.8-1.1
				c0.2-0.7,0.7-1.3,1.1-1.9c0.2-0.4,0.4-0.7,0.6-1.2c-0.1,0-0.2,0-0.2-0.1c0.1,0.1,0.2,0,0.4-0.2c0.7-0.5,0.8-1.4,1.1-2.2
				c0,0.5,0,1,0,1.6c0.3-0.1,0.6-0.3,0.8-0.6c0-0.1,0.1-0.5,0.2-0.5c-0.2,0.1,1.1-0.2,1-0.3c0.8,0.5-1.4,1.5-0.3,2
				c0.3-0.6,0.4-0.8,0.8-1.1c0.1-0.1,0.4-0.1,0.5-0.2s0.1-0.4,0.2-0.5c0.5-0.8,1.3-0.8,2.1-0.4c0-0.6,1.1-0.3,1.5-0.5
				c0.2-0.2,0.3-0.6,0.6-0.7s0.8,0,1,0.1c0.4,0.1,0.9,0.2,1.2,0.4c0.4,0.2,1,1.2,1.4,1.2c0.5,0,0.1-1.2,0.6-1.4
				c0.4-0.1,1.1,0.3,1.6,0.3c0.4,0.1,0.8,0.1,1.2,0.2c0.2,0,1,0.3,1.1-0.1v-0.1l0,0h-0.1c-0.2,0-0.2,0-0.3-0.2l-0.1-0.3l-0.1-0.2
				l0,0H638c0-0.1,0-0.1,0-0.1l-0.2-0.1l-0.1-0.1l-0.2-0.2l-0.1-0.2v-0.1c-0.1-0.1-0.2-0.2-0.3-0.2c0.1-0.1-0.2-1-0.4-1.3
				c0,0,0-0.1-0.1-0.1H636l-0.1,0.2c-0.1,0.1-0.2,0.2-0.3,0.2h-0.5l-0.2-0.1l-0.8-1.1c-0.3-0.1-0.7-0.2-1-0.2c-0.6,0-0.2-1,0.1-1.2
				c-0.8-0.1-1.6,0.2-2.4,0.3c-1.3,0.2-2.5,0.4-3.8,0.6c-0.4,0.1-0.8,0.3-1.2,0.5c-0.3,0.2-0.6,0.6-0.9,0.7
				c-0.5,0.3-0.9-0.1-1.5-0.3c-0.8-0.4-1.7-0.2-2.5-0.5c0-0.1-0.9-1.4-1.1-1.6c-0.7-0.9-1.8-0.8-2.8-1c0.1-0.1,0.1-0.2,0.1-0.2
				c-0.6,0.3-1.2,0.8-1.6,1.4c-0.1-0.5,0.2-1,0.1-1.4c0-0.2-0.3-0.7-0.3-0.8c-0.2-0.2-0.5-0.4-0.6-0.6c-0.1-0.1,0.1-0.3,0-0.4
				c-0.2-0.2-1.1,0.5-1.4,0.7c-1.6,0.8-3.1,1.6-4.6,2.5l0,0l0,0c-0.9,0.5-1.8,1-2.7,1.4c-0.4,0.2-1.8-0.8-2.3-1
				c-0.3-0.2,0.4-0.8,0.4-1.1c0-1.1-2.5,0.3-3,0.5s-1,0.5-1.6,0.7c-0.7,0.2-1.4-0.1-2.1-0.3c1.7-1.6,3.5-3.2,5.2-4.8
				c0.7-0.7,1.3-1.2,2.2-1.7c1.4-0.7,3-1.3,4.6-2.1l-0.1-0.1l-0.1-0.1h-0.1v0.1l-0.2,0.1h-0.1v0.1l-0.2,0.1l-0.2-0.1v-0.1h-0.2
				l-0.2-0.1l-0.1-0.2v-0.1h-0.1c-0.4-0.1-0.8-0.1-1.3-0.3c0.4,0.1,0.8,0.1,1.2,0.1l-0.1-0.1v-0.1h-0.1l-0.1-0.1h-0.6l-0.1,0.1
				l-0.2,0.1h-1.2l-0.1-0.1l-0.2,0.1h-0.8l-0.2-0.1v-0.1l-0.1-0.1l-0.1-0.2v-0.1h-0.1l-0.1-0.3l0,0h-0.1h-0.2v0.1l-0.2,0.1H603v0.1
				l-0.2,0.1h0.2v0.1l-0.2,0.1l0,0l-0.1,0.1l-0.1,0.1l-0.1,0.1h-0.1v0.1l-0.2,0.1h-0.4v0.1l-0.2,0.1h-1.1l-0.2-0.1v-0.2l0,0h-0.4
				l-0.2-0.1l-0.1-0.2v-0.2v-0.1l-0.1-0.1v-0.1H599l-0.2-0.1l-0.1-0.1h-0.2l-0.2-0.1v-0.1h-0.1l-0.1-0.1l-0.1-0.1l-0.1-0.2v-0.2
				h-0.3h-0.1c-0.1,0-0.1,0-0.1,0h-0.3v0.4c0,0.1-0.1,0.2-0.2,0.3v0.1l-0.2,0.1h-0.1l-0.2-0.1l-0.1-0.1h-0.1l-0.1-0.2v-0.1l0,0
				l-0.1-0.1c-0.1,0-0.2-0.1-0.2-0.3v-0.4l-0.1-0.1v-0.1h-0.8l-0.2-0.1l-0.1-0.2v-0.4l0,0l-0.1-0.1l-0.1-0.1h-0.2l-0.2-0.1l-0.1-0.1
				h-0.1l-0.2-0.1l-0.1-0.1l0,0l-0.2-0.1v-0.1l-0.1,0.1l-0.2,0.1h-0.5l-0.2-0.1v-0.1h-0.5l-0.1,0.1l-0.2,0.1h-0.2c0,0,0,0-0.1,0
				h-0.1H591v0.2l-0.1,0.2l-0.2,0.1h-0.5l-0.1,0.1c-0.1,0.1-0.2,0.1-0.3,0.1h-0.1h-0.8l-0.2-0.1v-0.1l-0.1-0.1l-0.1-0.2v-0.3h-0.1
				v-0.1h-1.3l-0.2-0.1v-0.1h0.1l-0.2-0.1l-0.1-0.2l0,0h-0.4l-0.1,0.1l-0.2,0.1h-0.3l-0.2-0.1v-0.1h-0.2l-0.2-0.1v-0.1
				c-0.1-0.1-0.1-0.1-0.1-0.2l-0.1-0.1l-0.1-0.1c-0.1,0-0.2-0.1-0.2-0.3v-1l-0.2-0.5v-0.1v-0.3l-0.2-0.3v-0.2v-0.1l-0.1-0.3
				l-0.1-0.2v-0.3l-0.1-0.3v-0.1v-0.1l-0.3-0.2l-0.1-0.1h-0.7v2.3l-0.1,0.2l-0.2,0.1H444.6c0,0.2,0,0.3,0.1,0.6
				c0.1,0.2,0.4,0.5,0.4,0.6c0.3,0.5-0.1,0.4,0.8,0.3c-0.2,0.6,0.3,0.6,0.3,1.1c0,0.1-0.2,0.6-0.3,0.7s0.2,0.2,0.1,0.3
				c-0.1,0.2-0.5,0.3-0.7,0.4c0.2-0.2,1,0.5,1.2,0.9c0.2,0.5-0.1,1.1,0.4,1.6c0.2,0.2,0.5,0.1,0.4,0.4c0,0.2-0.4,0.3-0.5,0.5
				c0,0.1-0.1,0.4-0.2,0.5c-0.1,0.1-0.2,0.1-0.2,0.4c-0.1,0.2,0.1,0.4,0.1,0.5s-0.2,0.3-0.2,0.4c0,0,0.1,0.3,0.1,0.4
				c0,0,0.2,0.3,0.2,0.4s-0.2,0.2-0.3,0.3c0,0.1,0.1,0.2,0.1,0.3c0,0.2,0.1,0.4,0.1,0.5c0,0.5,0,0.2-0.2,0.6s-0.5,0.5-1,1
				c-0.6,0.6-0.7,0.5-1.6,0.8c0,0,0,0.1,0,0.2c-0.6,0-0.5-0.4-0.2-0.8c-0.2,0.1-0.4,0.4-0.7,0.4c0.1-0.2,0.4-0.4,0.5-0.6
				s0.1-0.4,0.2-0.6c0.2-0.4,0.5-0.3,0.5-0.9c0.2,0.6-0.1,1,0.2,1.5c0.2-0.8,0.2-1,0.7-1.5l0,0c0,0,0,0-0.1,0l0,0l0,0l0,0
				c-0.1,0.2-0.2,0.4-0.2,0.7c1.4-0.3,0.7-2.2,0.1-3.1c0.1,0.1,0.9,0,0.9-0.1c0.1-0.3-0.2-0.8-0.3-1.1c-0.3,0.5-0.8,0.8-1.1,1.3
				c-0.3,0.4-0.5,0.4-1,0.8c-0.2,0.2-0.5,0.7-0.6,1c-0.1,0.4-0.4,0.4,0,0.5c0.3,0.1,0.8-0.2,1-0.4c-0.1,0.1-1.3,1-1.3,0.5
				c-0.1-0.5,0.3-1.1,0.5-1.5s0.5-0.5,0.6-0.9c0.2-0.4,0.1-0.9,0.3-1c0.1,0.4,0.1,0.8,0,1.1c0.3-0.3,0.5-0.7,0.7-1.1
				c0.2-0.3,0.4-0.2,0.1-0.6c-0.3-0.4-0.8-1.1-0.5-1.5c-0.1,0.1-0.3,0.9-0.4,0.9c-0.3,0.1-1.3-0.9-1.4-1.2c-1.3,0-2.4,0.3-3.7,0.1
				c-1.5-0.2-2.9-1-4.3-1.6c0.1,0.9,0,1.9,0.3,2.8c0.3,1.3,1.1,2.4,1.6,3.5c0.2,0.3,0.1,0.6,0.2,0.9c0.2,0.6,0.5,1.1,0.7,1.6
				c0.1,0.5,0.1,0.9,0,1.4c0.4-1.5,0.9-0.2,1.8-0.2c-0.3,0.2-1.3,0.3-1.1,0.8c-0.1-0.1-0.3-0.2-0.5-0.3c0.1,0.1,0.1,0.8,0.2,0.9
				c0.3,0.5,1.2-0.1,1.3,0.6c-0.4,0-0.6,0.3-0.4,0.6c-0.1,0-0.2-0.1-0.2-0.1c0.2,0.2,0.2,0.5,0.3,0.7l-0.2,0.7
				c-0.5,0.9-0.4-1.1-0.6-1.4c-0.1,0.7,0.1,1.6-0.2,2.3c1.5,0.3,3,0.5,4.5,0.7c-0.8,0.2-1.7,0.3-2.6,0.4c-0.6,0.1-1-0.4-1.5-0.7
				c0.5,1.1,0,1.8,0.1,2.9c0.1,0.5,0.2,0.7,0.2,1.3c0,0.4-0.1,0.8-0.2,1.1c-0.1,0.4,0.1,0.7,0.1,0.9c0,1.1-0.3,2.2-0.5,3.2
				c-0.2,0.8-0.1,1.8-0.1,2.7c-0.1,1.1-0.1,2.2-0.2,3.3c0,0.4-0.1,0.8-0.1,1.2c-0.1,0.3-0.1,0.6-0.1,0.9c-0.1,0.8-0.4,1.4-0.7,2.1
				c0.2-0.2,0.3-0.4,0.4-0.6c0.1,0.2,0.3,0.4,0.3,0.7c-0.1-0.1-0.2-0.1-0.3-0.2c-0.5,0.9-1.7,2.8-1.6,3.8c0,0.3,0.2,0.5,0.4,0.7
				c0.3,0.5,0.4,0.5,0.2,1.3c-0.1,0.5-0.1,1.1,0,1.6c0.1,0.8,0.3,1.4,1,2c0.3,0.2,0.1,1.2,0.1,1.6c0,1.2,0,2.5,0.1,3.7
				c0,0.1,0,2.5-0.1,2.8c0.2-0.2,0.3-0.5,0.6-0.4c-0.3,0.3-0.7,1.1-0.9,0.9c-0.3,0.6-0.7,1.4-0.4,2c0.2,0.5,1.5,2.7,1.9,2.7h-0.1
				c0.3,0.7,1.2,2,1.2,2.9c0,0.2-0.2,0.6-0.2,0.8c-0.1,0.8,0.3,1.3,0.5,2c0.2,0.8-0.3,1,0.2,1.7c1.1,1.6,2.2,3.1,3.3,4.7
				c0.2,0.3,0.2,0.6-0.1,0.9c0.5-0.9,1.2,0.3,1.7,0.7c0-0.1,0-0.1,0-0.2c0.2,0.2,1.3,1.1,1,0.3c0,0,0.1,0.1,0.2,0.1
				c-0.1-0.2-0.2-0.5-0.2-0.7c0,0.2,0-0.7-0.1-0.5c0.1-0.5,0.2-0.3,0.4-0.7c0.3,0.1,0.6,0.5,0.9,0.6c0.5,0.2,0.4,0,0.8-0.2
				c0.1,0,0.1-0.3,0.3-0.3s0.5,0.5,0.7,0.5s0.5,0,0.6-0.2c-0.1,0.1-0.2,0.2-0.2,0.3c0.8-0.3,0.9-0.4,1.6,0.2c-0.3-0.1-0.8-0.5-1-0.4
				c-0.1,0.1-0.1,0.3-0.2,0.3c-0.2,0.1-0.2,0.1-0.7,0.1c-0.3,0-0.5-0.2-0.8-0.2c-0.2,0-0.5,0.2-0.7,0.2c-0.4,0-0.9-0.2-1.2,0.2
				c-0.5,0.8,1.2,2.7,1.4,3.5c-0.3-0.3-0.7-0.5-1.1-0.8c-0.2-0.1-0.4-0.1-0.4-0.4c0-0.2,0.1-0.9-0.1-1c-0.7-0.5-0.7,1.2-0.7,1.6
				c0.1,0.5,0.5,1,0.6,1.6c0.1,0.7,0,0.7,0.8,1.3c0.4,0.3,1,0.6,1.4,0.9c0.1,0,0.2-0.1,0.4,0c0.3,0.3,0.6,1.5,0.4,1.9
				c-0.2,0.4-0.5,0.1-0.6,0.2c-0.2,0.3-0.1,0.6,0,1c0.1,0.3,0.1,0.6,0.2,0.8c0.4,1.1,1.5,2.2,2.2,3.1c0.8,1,1.5,1.9,2.4,2.9
				c0.3,0.4,0.3,0.6,0.5,0.8c0.1,0.3,0,0.4,0.3,0.6c0.3,0.3,0.8,0.7,1,1.2c0,0.1-0.1,0.2-0.1,0.4c0,0.3,0.1,0.7,0.1,1.1
				c0,0.2-0.1,0.7,0,0.8c0,0.2-0.2,0.4,0.1,0.5c0.6,0.3,1.3,0.6,1.8,0.6c0.7,0.1,1.2,0.2,1.9,0.4c0.6,0.2,1.1-0.2,1.8,0.2
				c0.8,0.4,1.5,1,2.2,1.5c0.4,0.3,0.8,0.7,1.2,0.8c0,0,0.3-0.1,0.4-0.2c0.2,0,0.8-0.1,0.9,0c0.1,0.4,0.3,1.5,0.6,1.7
				c0.2,0.2,0.6-0.1,0.9-0.1c0.7,0,0.9,0.4,1.4,0.9c0.5,0.4,1,0.7,1.5,1.1c0.7,0.7,1,1.2,1.4,2.2s0.7,2,1.1,3
				c0.1,0.1,0.1,0.2,0.1,0.3h0.4h1.1l0.1-0.1l0.2-0.1h1.4l0.1-0.1l0.2-0.1h1.5v-0.1l0.2-0.1h1.6l0.1-0.1l0.2-0.1h1.6l0.1-0.1
				l0.2-0.1h1.6l0.1-0.1l0,0c0,0,0.1,0,0.1-0.1h0.1h1.4c0.2,0,0.3,0.1,0.3,0.3v0.2l-0.1,0.2h-0.1v0.1l-0.1,0.2l-0.1,0.1v0.1v0.2l0,0
				h0.1l0.2,0.1v0.1h0.3l0.2,0.1v0.1h0.2l0.2,0.1l0.1,0.1h0.2l0.2,0.1l0.1,0.1h0.2l0.2,0.1l0,0h0.2l0.2,0.1l0.1,0.1h0.2l0.2,0.1
				l0.1,0.1h0.2l0.2,0.1l0.1,0.1h0.2l0.2,0.1v0.1h0.2l0.2,0.1l0.1,0.1h0.2l0.2,0.1v0.1h0.2l0.2,0.1l0.1,0.1h0.2l0.2,0.1l0.1,0.1h0.1
				l0.2,0.1l0.1,0.1h0.3l0.2,0.1v0.1h0.2l0.2,0.1v0.1h0.1l0.2,0.1l0.1,0.1h0.2l0.2,0.1l0.1,0.1h0.3l0.2,0.1v0.1h0.1l0.2,0.1l0.1,0.1
				h0.2l0.2,0.1l0.1,0.1h0.2l0.2,0.1l0.1,0.1h0.2l0.2,0.1l0.1,0.1h0.1l0.2,0.1l0.1,0.1h0.4l0.2,0.1v0.1h0.2l0.2,0.1v0.1h0.1l0.2,0.1
				l0.1,0.1h0.2l0.2,0.1l0.1,0.1h0.2l0.2,0.1l0.1,0.1h0.2l0.2,0.1l0.1,0.1h0.2l0.2,0.1l0.1,0.1h0.2l0.2,0.1v0.1h0.1l0.2,0.1l0.1,0.1
				h0.2l0.2,0.1l0.1,0.1h0.2l0.2,0.1l0.1,0.1h0.2l0,0c0,0,0.1,0,0.1,0.1c0.1,0,0.1,0,0.1,0l0,0l0.1,0.1h0.2l0.2,0.1v0.1h0.2l0.2,0.1
				v0.1h0.1l0.2,0.1l0.1,0.1h0.2l0.2,0.1l0.1,0.1h0.2l0.2,0.1l0,0h14v-2.5l0.1-0.2l0.2-0.1h8.4c0.1,0,0.2,0.1,0.2,0.2h0.4l0.2,0.1
				v0.1l0.1,0.1v0.1h0.1l0.1,0.3v0.1l0,0l0.1,0.2v0.1l0,0l0.1,0.2l0,0l0.1,0.1l0,0c0,0,0,0.1,0.1,0.1c0,0.1,0.1,0.1,0.1,0.1l0,0l0,0
				l0.2,0.1l0.1,0.1l0.1,0.1v0.1h0.1l0.2,0.1v0.1h0.2l0.2,0.1l0.1,0.1l0.1,0.1v0.1l0.1,0.1l0.1,0.1h0.1l0.1,0.1l0,0l0.2,0.1l0.1,0.2
				l0,0l0.1,0.1l0,0v0.1c0,0,0,0,0,0.1l0.1,0.1l0.1,0.1h0.1l0.1,0.1h0.1l0.2,0.1v0.1l0.1,0.1v0.1h0.1l0.2,0.1l0.1,0.2v0.2h0.1
				l0.2,0.1v0.1h0.1v0.1c0.1,0,0.2,0.1,0.2,0.1h0.1l0.2,0.1l0.1,0.2l0,0l0,0l0.2,0.1v0.1h0.1l0.2,0.1v0.1h0.2l0.2,0.1v0.1h0.1v0.1
				l0.1,0.1l0.1,0.1h0.1v0.1h0.2c0.2,0,0.2,0.2,0.2,0.3v0.1h0.1l0.1,0.1h0.1v0.1h0.1l0.1,0.2v0.1l0.1,0.1l0.1,0.2v0.4
				c0.1,0.1,0.1,0.1,0.1,0.1l0.1,0.1l0.1,0.2l0,0l0.1,0.1l0.1,0.2l0,0l0,0l0.2,0.1l0.1,0.2v0.1h0.1l0.1,0.2v0.7l-0.1,0.2l-0.1,0.1
				h0.1l0.1,0.2v0.3l0.1,0.1l0.1,0.2v0.1l0.1,0.1l0.1,0.2v0.1l0,0l0.2,0.2l0.1,0.2v0.2l0.1,0.1l0,0l0,0l0.2,0.2v0.1h0.1l0.1,0.2l0,0
				l0,0l0.2,0.1v0.1h0.2l0.2,0.1v0.1h0.1l0.2,0.1v0.1l0.1,0.1l0.1,0.3l0,0l0.1,0.1l0.1,0.1h0.1l0.2,0.1l0.1,0.1h0.1v0.1l0.1,0.1v0.1
				h0.2l0.2,0.1v0.1h0.5l0.2,0.1v0.1h0.1l0.1,0.1l0.1,0.1v0.1c0.1,0,0.1,0,0.1,0.1h0.1h0.1h0.1h0.1l0.2,0.1v0.1h0.1l0.2,0.1v0.1
				l0.1,0.1l0.1,0.2l0,0h0.2l0.2,0.1v0.1h0.2c0.1,0,0.2,0.1,0.2,0.2h0.4h0.1v-0.1l0.1-0.2l0.1-0.1l0.1-0.1l0.2-0.1l0,0l0,0l0.1-0.2
				h0.1v-0.1l0.2-0.2c0.1-0.1,0.1-0.1,0.2-0.1l0,0v-0.3v-0.1c0-0.1,0-0.1,0-0.2c0.1-0.1,0.1-0.2,0.3-0.2l0,0l0,0v-0.1
				c0-0.1,0-0.3,0.1-0.3l0.1-0.1v-0.2l0.1-0.2h0.1v-0.3l0.1-0.2l0.1-0.1l0.1-0.1h0.1l0.1-0.1h0.1v-0.3c0-0.1,0.1-0.3,0.3-0.3h0.3
				l0.1-0.1c0.1-0.1,0.2-0.1,0.3-0.1l0,0h0.5v-0.2l0.1-0.2l0.2-0.1h0.1v-0.1l0.2-0.1h0.1l0.2,0.1v0.1h0.1h0.1c0.1,0,0.2-0.1,0.2,0
				c0.1,0,0.1,0.1,0.2,0.2h0.1l0.1,0.1h0.4v-0.1l0.2-0.1l0.2,0.1v0.1h0.8c0.1,0,0.2,0.1,0.2,0.2h0.5l0.1-0.1l0.2-0.1h0.2l0.1,0.1
				l0.2-0.1l0.2,0.1v0.1h0.1l0.2,0.1l0.1,0.2v0.1h0.1l0.1,0.2l0,0l0,0l0.2,0.1l0.1,0.1c0.1,0,0.1,0,0.2,0c0.1,0,0.1,0.1,0.1,0.2
				l0.1,0.1l0.1,0.2v0.1h0.1v0.1l0.1,0.1v0.1h0.2l0.2,0.1v0.1c0.1,0.1,0.2,0.2,0.2,0.3v0.2l0,0l0.2,0.1v0.1h0.1
				c0.1,0,0.2,0.1,0.2,0.2l0.2,0.1v0.1h0.1l0.1,0.1l0,0l0.2,0.1l0.1,0.2v0.3h0.1v0.1h0.1v0.1h0.1l0.2,0.1v0.2v0.3h0.1l0.1,0.2v0.4
				c0.1,0.1,0.2,0.1,0.2,0.3l0,0l0.1,0.1v0.1h0.1l0.1,0.2v0.1h0.1l0.1,0.2v0.3h0.1v0.1h0.1l0.1,0.2v0.1h0.1l0.1,0.2v0.1h0.1v0.1h0.1
				l0.2,0.1l0.1,0.2l-0.1,0.2h-0.1v0.2h0.1l0.1,0.2v0.1l0,0l0.1,0.2v0.3h0.1v0.1h0.1l0.2,0.1l0.1,0.1l0.1,0.1v0.1h0.3l0.2,0.1
				l0.1,0.2v0.2l0,0l0.2,0.1l0.1,0.2v0.2l0,0l0.2,0.1l0.1,0.2v0.1h0.1v0.1h0.1l0.1,0.2v0.5l0,0v0.1h0.1l0.2,0.1l0.1,0.1l0.1,0.1v0.1
				l0.1,0.1l0.1,0.2l0,0l0,0h0.1h0.1h0.2l0.2,0.1v0.1h0.1l0.2,0.1v0.1h0.1l0.1,0.3v0.2l0,0l0.1,0.2v0.9c0,0.1-0.1,0.1-0.1,0.2l0,0
				l0.1,0.1l0.1,0.2v1.2l0,0l0.2,0.1l0.1,0.2v0.1h0.1l0.1,0.1l0.1,0.1l0.1,0.2v0.1h0.1l0.1,0.1h0.1l0.1,0.2v0.1h0.1l0.1,0.2v0.1l0,0
				l0.1,0.2v0.3h0.1l0.1,0.2v0.2l-0.1,0.1l0.1,0.1l0,0l0,0l0.2,0.1l0.1,0.2v0.4h0.6l0.2,0.1v0.1h0.4l0.2,0.1v0.2h0.1l0.1,0.1
				l0.1,0.1v0.1c0.1,0,0.2,0.1,0.2,0.2h0.1h0.3l0.1,0.1l0.1-0.1l0.2,0.1v0.1h0.3l0.2,0.1l0.1,0.1l0,0l0.2,0.1v0.1h0.1v0.1h0.1
				l0.1,0.1l0.1,0.1l0.1,0.1h0.2h0.1c0.1,0,0.1-0.1,0.2,0h0.1h0.2l0.2,0.1l0.1,0.1h1.3h0.1c0.1,0,0.2,0,0.3,0.1v-0.1
				c0.1,0,0.2,0,0.3,0.1l0.1,0.1l0,0l0.2,0.1v0.1l0.1,0.1v0.1l0.1,0.1l0.1,0.1l0.1,0.1v0.1h0.1l0.2,0.1l0.1,0.1h0.1l0,0l0,0l0.1-0.2
				l0.2-0.1h0.1v-0.1l0.2-0.1c-0.3,0-0.3-0.7-0.5-1.4c-0.3-1.2-0.8-2.4-1-3.7c0-0.3,0-0.7,0.1-0.9c-0.1,0.2,0.3-0.3,0.3-0.3
				c0.1-0.2,0.2-1,0.3-1.3c-0.7,0.4-0.9-0.1-1.7-0.1c0.1-0.3,0-0.7,0-1c0.2,0.2,0.5,0.7,0.7,0.9c-0.1-0.2,0.9,0.1,0.4,0.1
				c0.1,0,0.4,0,0.5-0.2c0.2-0.2,0.4-0.8,0.5-1.2c0.1-0.4,0.4-0.8,0.3-1.1c0-0.1-0.3,0-0.3-0.1c-0.4-0.8-0.3-0.4-0.9-0.9
				c0.3,0.1,0.9-0.1,1.2,0c0.4,0.1,0.1,0.4,0.5,0.2c0.4-0.2,0.7-1.2,0.8-1.6c-0.2,0.2-0.5,0-0.7-0.3c0.2,0.2,0.5,0,0.7-0.2
				c0,0.2,0.1,0.3,0.1,0.5c0.1-0.3,0.2-0.5,0.3-0.8c0,0.2,0,0.5-0.1,0.8c0.1-0.4,0.4-2.1,0.8-2.1c0.1,0,0.4,0.5,0.4,0.6
				c0.3,0.3,0,0.3,0.5,0.3c0.2,0,0.9-0.6,1.1-0.7c-0.6-0.3-1-0.9-1.2-1.7c0.5-0.1,0.2,0.3,0.5,0.5c0.5,0.4,1,0.2,0.5-0.7
				c0.3,0.1,0.2,0.6,0.4,0.7c0.2,0,0.5-0.3,0.8-0.3c-0.4,1.2,0.4,0.3,1,0.6c-0.4,0.2-0.8,0.4-1.1,0.7c0.7-0.3,1.8-0.8,2.4-1.4
				c-0.3,0.2-0.7,0.3-1.1,0.2c0.8-0.2,1.4-0.3,2-0.7c0.8-0.5,1-1.2,1.6-2c0.4-0.6,0.3-0.2,0.5-0.3c0.5-0.3,1-0.8,1.4-1.2
				c-0.2-0.1-0.3-0.1-0.4-0.3l-0.2,0.1c-0.1-0.1,0.2-0.4,0.1-0.5c-0.1-0.1-0.3,0-0.4-0.1c-0.1-0.2,0.1-0.4,0.1-0.5
				c-0.1-0.2-0.3-0.5-0.3-0.7c0.2,0,0.5,0.1,0.6,0.4c0.2-0.2,0.6-0.9,1-0.7c0.2,0.1,0.2,0.5,0.1,0.7c-0.4,0.8-0.6,0.7,0,0.7
				c0.4,0,0.7-0.2,1.1-0.1c-0.3,0.2-1.5,0.6-1.5,1s0.5-0.3,0.5-0.3c0.4-0.2,0.7-0.4,1.1-0.6c0.4-0.2,0.8-0.4,1.2-0.6
				c0.7-0.3,1.2-0.3,1.9-0.5c-0.3-0.4,0.1-1.4,0.3-1.9c-0.1,0.6-0.2,1.2-0.2,1.8c0.7-0.5,1.4-0.2,2.2-0.5c0.5-0.1-0.2-0.3-0.1-0.4
				c0,0-0.2-0.1-0.1-0.1c0-0.1,0.2-0.1,0.2-0.1c0,0.1,0.2-0.3,0.2-0.3c0.1-0.2,0.1-0.7,0.1-0.9c0.3,0.2,0.1,0.4,0.2,0.6
				c0.6,0.9,2,1.2,2.8,1.7c0.8,0.4,1.6,1,2.4,0.9c0.3-0.1,0.6-0.2,0.9-0.2c-0.1,0-0.6-0.5-0.6-0.6c-0.1-0.4-0.1,0,0.2-0.3
				c0.3-0.2,1.1-0.6,1.5-0.5c0.1,0,0.9,0.4,1.1,0.5c0,0.1,0,0.4,0.2,0.6s1.3,1,1.5,0.9c0.1-0.1,0.2-0.6,0.3-0.7
				c0.1,0.3-0.2,0.4-0.2,0.8s0.5,0.6,0.7,0.8c0.6,0.6,1.5,1.7,2.3,1.2c0.2-0.1,0.5-0.6,0.4-0.8c0.6-0.4,1.4-0.4,1.7,0.3
				c0.2,0.4-0.2,0.9,0.4,0.7c0.8-0.3,0-1.2,0.7-1.2c-0.2-0.3-0.1-0.3-0.2-0.6c0-0.1,0.2-0.1,0-0.3c-0.2-0.3-0.5-0.2-0.6-0.8
				c0.3,0.2,2,0.4,1.7,0.8c0.7,0.5,1.1,0.8,1.8,1.2c-0.1,0.2,0.1,0.4,0.3,0.6c0.2,0.3,0.6-0.5,0.6,0.1c0,0.3-0.5,0.9-0.6,1.2
				c0.4-0.3,0.9-0.3,1.3-0.4c-0.2-0.4,1-1,0.2-0.9c0.3,0,0.4-0.2,0.4-0.3c-0.2,0-0.4-0.1-0.6-0.3c0.5-0.4-1-0.7-1.2-0.8
				c0.1,0,0.2-0.1,0.2-0.1c-0.3,0-0.7,0-1-0.1c0,0,0.1,0,0.1-0.1c0-0.2-0.1,0,0-0.3c-0.5-0.3-0.7-0.4-1-0.8c0.4-0.1,0.8-0.1,1.2-0.2
				c0-0.1-0.1-0.2-0.2-0.2h0.1c-0.1,0-0.5,0-0.4-0.2c0.1-0.4,0.9-0.3,1.3-0.5c-0.1-0.3-0.1-0.3,0-0.5c-0.1,0-0.2,0-0.3,0
				c0-0.1,0.1-0.1,0.1-0.2c-0.1,0-0.2,0-0.2,0c0.5-0.2-0.2-0.4-0.3-1c0,0.4-0.3,0.2-0.4,0.5c-0.4,0.7-0.1,0.7-0.7,0.5
				c-0.1-0.1-0.7-0.2-0.6-0.5c0-0.2,0.7-0.3,0.8-0.6c-0.5-0.1-3.6,0.6-3.7-0.3c-0.1-0.7,2.1-1.2,2.6-1s1.7,0.9,2.1,0.5
				c0.4-0.5,0.7-0.9,1.3-1c0.7-0.1,1.3-0.3,2-0.2c1.1,0.1,2.3,0.4,3.3,0.5c0.3,0.1,0.5-1.6,0.6-2c0-0.1,0.1-0.3,0.2-0.4
				c0.1,0.4,0.3,0.3,0.5,0.7c0.1,0.3-0.1,0.6-0.1,0.8c0.1,0.3,0.4,0.2,0.5,0.5c0.1,0.2,0.1,0.6,0.4,0.9c0.2,0.3,0.8,0,0.9-0.3
				c-0.1,0-0.1,0-0.2,0c0.6-0.1,0.7-0.4,0.9-1.1c-0.1,0.5-0.3,0.8-0.4,1.2c0.4-0.2,1-0.4,1.4-0.8c0.3-0.4,0.1-0.6,0.3-1
				c0.1,0.2,0.3,0.3,0.3,0.5c0.5-1,0.7-0.5,1,0.4c-0.2-0.1-1.1,0.4-1.4,0.5c1.7-0.4,3.5-0.6,5.2-0.8c0,0.3,0,0.2,0.1,0.5
				c-0.2,0-0.5-0.1-0.7-0.1l0.1,0.1c-0.9-0.3,0,0.4,0.3,0.5c0.2,0.1,2,1.3,2.2,1.2c0.3-0.2-0.4-0.6-0.6-0.6c0.3-0.1,1.3-0.5,1.4-0.3
				c-0.1,0.1-0.6,0.3-0.6,0.4s1.2,1,1.4,1.2c-0.3-0.1-1.5-0.9-1.3-0.4c0.1,0.2,0.4,0.4,0.6,0.5h-0.1c0.2,0.3,0.7,0.4,0.9,0.7
				c0.1,0.1,0.2,0.2,0.2,0.4c0.5,0.8,0.5,1,1.1,0.7c-0.2,0.1-0.3,0.2-0.5,0.3c1.5-0.6,3.1-1.3,4.6-1.9c0.7-0.3,1-0.6,1.7-0.3
				c0.5,0.2,1.1,0.6,1.5,1.1c0.4,0.4,0.4,0.8,0.8,1.2c0.4,0.3,0.2,0.2,0.4,0.6c0.1,0.2,0,0.3,0.3,0.7c0.7,0.7,1.8,1.1,2.5,1.8
				c0.3,0.3,1.2,1.9,1,2.3c-0.3,0,0,0.2,0,0.5c0,0.2-0.1,0.4-0.1,0.6c0,0.5-0.1,0.9-0.2,1.4c-0.1,0.5-0.4,0.9-0.5,1.3s0.1,0.8,0,1.2
				c0,0.2-0.2,0.3-0.2,0.4c0,0.5,0.3,1.1,0.6,1.6c0-0.1-0.1-0.3-0.1-0.4c0.5,0.4,0.5,0.1,0.6-0.2c0.2-0.6,0-0.7-0.4-1.1
				c0.8,0.4,1,1,1.5,0.1c0.4,1-0.9,1.6-0.8,2.5c-0.1,0-0.2,0-0.3-0.1c0.1,0.4,0.4,0.7,0.5,1.1c0.3,1.3,1.2,2.3,2,3.3
				c0-0.1-0.1-0.6-0.1-0.6c0.1-0.3,0.4-0.4,0.9-0.6c0,0-0.2,0.4-0.2,0.2c0,0-0.1,0-0.2,0.1c0,0.1,0.1,0.3,0.1,0.4
				c-0.1,0.7-0.1,1.4,0.1,2.1c0.5,0,0.6-0.9,1.3-1.1c-0.4,0.4-0.6,0.7-0.9,1.3c0.9,0.1,0.9,2.9,1.1,3.5c0.1,0,0.3-0.2,0.4-0.1
				c0.6,0.3,1.5,1.5,2,2.2c0.3,0.3,2,1.9,1.4,2.1c-0.1,0.1-0.5-0.4-0.7-0.5c-0.1,0.3-0.1,0.7,0,1c0.3,0,0.5-0.1,0.8-0.2
				c0.1,0,0.2-0.2,0.3-0.2s0.3,0.1,0.5,0.2c0.3,0,0.4-0.1,0.6-0.2c0.4-0.3,0.4-0.3,1,0.1c-0.1-0.1-0.1-0.2-0.2-0.2
				c0.1,0,0.3,0.1,0.5,0.2c-0.2-0.2-0.1-0.3,0-0.5c0.3-0.7,0.7-1.3,1-2c0.7-2,0.7-4.1,0.8-6.2c0.1-1.4,0-3-1.3-3.6
				c0.2,0.1,0.4,0.2,0.6,0.3c-0.6-1-0.7-2.1-1.1-3.1c-0.4-0.9-0.8-1.7-1.2-2.7c-0.4-1.2-0.7-2.6-1.1-3.9c0.3,0.1,0.4,1.8,0.9,1.1
				c0.1,0.8,0.1,1.6,0.2,2.5c0.7-1.9,0.1-2.3-0.7-3.8c-0.4-0.8-0.9-1.6-1.3-2.5c-0.3-0.7-0.5-1.3-0.8-2c-0.4-1-0.6-2.2-0.9-3.2
				c-0.3-1-0.8-2.2-0.8-3.3c0-0.9-0.3-2.4,0.1-3.2c0.1-0.3,0.2-0.6,0.4-0.3c1.3-0.6,0.2-0.7-0.4-1.1c0.1,0,0.4,0.2,0.4,0.2
				c0.2-0.2,0.2-0.4,0.3-0.6c0.2-0.2,0.5-0.4,0.7-0.6c-0.1,0.1-0.3,0.1-0.5,0.2c0.1-0.5,0.3-1.2,0.1-1.6c0.2,0,0.5,0.3,0.7,0.2
				c0.3-0.1,0.7-1.1,0.8-1.3c0.3-0.5,1.4-1.4,1.4-1.9c0-0.2-0.3-0.1-0.3-0.1c-0.2-0.5-0.5-1.2-0.5-1.7c0.1,0,0.3,0.2,0.3,0.2
				c-0.4,1.1,1-0.4,0.6,0.8c0.1,0,0.1,0,0.1,0s-0.1,0.2,0,0.2c0.4,0,1.1,0.1,1.1-0.4c0,0.1-0.1,0.1-0.2,0.2c0.2-0.8-0.6-0.6-1-0.9
				c0.2,0,0.5-0.1,0.7-0.1c0.1,0,0.2,0.2,0.4,0.2c0.3,0,0.7-0.5,1-0.7c0.2-0.1,0.9-0.1,1.1-0.1c0.2,0,0.2-0.1,0.3-0.3v0.2
				c0.1-0.4,0.2-0.9,0.3-1.3c0.5,0.5,0.3,0.6,0.8,0.4c0.6-0.2,1.1-1,1.7-1.4c0.3-0.2,1.6-0.7,1.1-1.3c-0.2-0.3-0.5-0.5-0.2-0.9
				c0.3,0.2,0.4,0.6,0.4,0.9c0.3-1.1,0.4-1.7,1.2-2.5c0.6-0.6,1.2-1.1,1.8-1.6c0.5-0.4,1.8-0.1,2.4-0.2c1,0,0.8-1,0.8-1.8
				c0.2,0.5,0.1,1,0.2,1.6c0.1-0.3,0.1-0.6,0.2-0.9c0.4-1,1.5-1.8,2.2-2.5c-0.3,0.2-0.6,0.4-0.9,0.6c0.3-0.4,1.7-1,1.1-1.3
				c0.4-0.4,0.1-0.7-0.1-1.1c0.1,0,0.3,0.3,0.3,0.3c0.2,0,0.9-0.4,1.2-0.3c0.5,0.1,0,0.4,0.6,0.3c0.4,0,1-0.4,1.5-0.5
				c0.6-0.2,1.8-0.4,2.2-1c0.4-0.5-0.6,0-0.7,0c0.4-0.9-0.4-0.1-0.6-0.1c-0.1,0-0.2-0.2-0.4-0.2s-0.4,0.3-0.6,0.4
				c-0.7,0.1-1.3-0.9-1.5-1.5c0.4,0.5,0.7,0.8,1.3,0.6c0.7-0.2,2.2-0.9,1.4-1.6c-0.9-0.8-2-0.5-2.6-1.4c0.7,0.5,1.5,0.6,2.3,0.8
				c-0.1-0.3-0.1-0.8,0-0.9c0.2-0.2,0,0.4,0,0.3c0.1,0.2,0.2,0.4,0.3,0.5c0.3-0.2,0.7-0.4,0.6,0.1c1.1,0,3.8-0.9,3.4-2.6
				c-0.2-0.6-0.5-0.7-1-0.6s-0.4,1.2-0.6,1.7c-0.1-0.4-0.2-1.3,0.1-1.8h-0.1c0.2-0.5-0.4-0.5-0.7-0.4c-0.2,0.1-0.3,0.4-0.5,0.5
				c-0.1,0-0.3-0.1-0.5-0.1c0.1-0.4-1.2,0-1.7-0.1c0.3-0.4-0.1-0.6-0.1-1.1c0-0.2,0.2-1.7,0.3-1.2c0.1,0.3-0.2,0.3-0.2,0.6
				c0,1.5,0.9,1.4,2,0.7c-0.3-0.1-0.5-0.3-0.7-0.6c0.4,0.3,0.7,0.5,1.2,0.6c-0.2-0.2-0.3-0.4-0.4-0.6c0.3,0.4,0.7,0.4,1.1,0.3
				c-0.2-0.3-0.6-0.7-0.7-1c0.2,0.3,1,0.9,1.4,1c-0.3-0.2-0.2-0.6-0.4-0.9c0.4,0.3,0.5,1.2,1,1.5c-0.4-1.2-1-1.9-1.2-3
				c0.5,0.1,0.4-0.6,0.5-1.1c0.2,0.6,0.3,1.3,0.5,1.8c-0.1-0.7-0.4-2.7-0.9-3.2c-0.1-0.1-0.7,0.1-0.8,0c-0.5-0.3-0.4-0.1-0.7,0
				c0.1,0,0,0.2,0,0.2c-0.2,0.1-0.7,0.1-1,0.1c0.5-0.4-0.5-1.7-0.8-2.1c0.3,0.2,0.6,0.5,0.8,0.7c0.3,0.4,0.5,0.9,1,0.5
				c0-0.7-0.1-1.2-0.5-1.7c0,0,0,0,0-0.1c0,0,0,0,0.1,0.1c-0.1,0-0.1-0.1-0.1-0.1c-0.1,0-0.1-0.1-0.1-0.1c0.3,0.2,0.5,0.3,0.5,0
				c0.4,0,0.5,0,0.7-0.3c0.4-0.8-0.6-1.3-1.1-1.8c-0.1,0-0.1-0.1-0.2-0.1c0.2-0.7,0.1,0,0.3,0c0.1,0,0.1,0.1,0.2,0.1
				c0.3,0,0.6-0.8,0.7-1.2c0.2-0.7,0.2-0.3-0.1-0.7c-0.4-0.5-1.6-1.1-2.1-1.3c-0.4-0.1-0.9-0.2-1.2-0.5c-0.2-0.2-0.4-0.6-0.6-0.9
				c-0.2-0.3-0.2,0-0.4,0s-0.4,0.2-0.7,0c-0.1,0-0.2,0-0.2,0c0.5-1.2,1.6-2.3,1.4-3.6c0.4,1-0.3,1.8-0.6,2.7
				c-0.2,0.3-0.4,0.6-0.1,0.8c0.3,0.2,0.5-0.3,0.4-0.5c0.1,0.3,0.4,0.2,0.5-0.1c0.1,0.2,0.3,0.9,0.6,1c0.2,0.1,0.4-0.4,0.5-0.4
				c0.3,0.2,0.6,0.5,0.9,0.8c0.5,0.4,1.1,0.9,1.6,1.2c-0.1-0.3-0.2-0.7-0.3-1c0-0.1,0-0.6,0-0.6c-0.1-0.1-0.3,0.1-0.4,0
				c-0.8-0.7-1-1.1-1.1-2.4c0.1,1.2,0.3,1.5,1.5,1.9c-0.2-0.6-0.6-0.8-0.7-1.4c0-0.3,0-0.8,0.1-1.1c0.3-1.3,0.3-1-0.3-2.1
				c0.2,0.2,0.4,0.5,0.6,0.5c-0.3-0.6-0.6-1.1-0.9-1.7c0.6,0,0.7-0.5,1.2-0.9c0.3-0.2,0.2,0.1,0.5-0.3c0.2-0.3,0.2-0.2,0.2,0.1
				c0.5-0.3,1-0.8,1.4-1.2c1,0.3,0,0.4,0.3,0.8c-0.2,0-0.7,0.2-0.7,0.4c-0.1,0.3,0.6,0.2,0.8,0.3c-0.7,0.1-1.3-0.1-1.7,0.4
				c-0.2,0.3-0.3,0.7-0.4,1c0.3,0.1,0.7,0.1,1,0.1c-0.3,0.2-0.3,0.5-0.5,0.8c-0.1,0.3-0.7-0.3-0.8,0s-0.2,0.7-0.2,1
				c0-0.2,0.3-0.6,0.5-0.6s0.8,0.8,0.7,1c0,0.2-0.5,0.3-0.6,0.4c0.3,0.6,0.7,0.6,1.3,0.9c-0.3,0.3-0.5,0-0.7,0
				c-0.4,0-0.2-0.3-0.7,0.1c-0.3,0.3,0.4,0.2,0.4,0.1c-0.1,0.2-0.8,0.4-0.7,0.7c0.2,0.3,0.3,0.6,0.5,0.9c0-0.1,0-0.3-0.1-0.5
				c0.5,0.3,1.1,1.7,1,0.4c0.1,0.2,0.2,0.3,0.3,0.5c0.1-0.4,0.2-0.7,0.6-0.9c0,0.3,0.2,0.7,0.1,1c-0.1,0.2-0.4,0.5-0.5,0.8
				c0.2-0.3,0.5,0.3,0.9,0.2c-0.2,0.2-0.8,0.9-0.6,1.1c-0.1-0.1,1.1-0.2,1.1-0.2c-0.7,1.4-1.5,2.6-1.8,4.2c-0.1,0.4,0,1.2,0.6,0.9
				c0.3-0.1,0.1-1.1,0.3-1.4c0.2-0.5,0.8-0.6,1.1-1c0.1-0.2,0-0.4,0.2-0.7c0.1-0.4,0.3-0.8,0.5-1.1c0.3-0.7,0.5-1.3,0.9-1.9
				c0.3-0.6,0.7-1.9,1.2-2.2c0,0.3,0,0.5,0,0.8c0.1-0.6,0.1-1.3,0-1.9c-0.1,0.3-0.4,0.3-0.7,0.1c0.4-0.2,0.5-0.9,0.6-1.3
				c-1.3-0.6-1.7-2.8-2.2-4.1c-0.2-0.4-0.5-0.7-0.4-1.2c0.3-1.3,1.9-2,2.7-2.6h-0.1c0.1,0,0.2,0,0.2-0.1c-0.7,0.6-1.8,1.1-2.3,2
				c-0.8,1.5,0.5,2.1,1.4,3c0.5,0.4,1.5,0.2,1.6,0.8c0.1,0.3-0.3,0.9-0.3,1.4c0.3-0.1,1.4-0.9,1-1.3c0.3-0.1,0.5-0.7,0.8-1
				c-0.1,0-0.2-0.1-0.2-0.1c0.2-0.2,1.5-0.5,0.8-0.8c0.3-0.3,0.7-0.5,0.9-0.8c0.1-0.1,0.2-0.6,0.4-0.8c0.4-0.5,0.1-0.4,0.2-0.9
				c0.1-0.2,0.2-0.4,0.2-0.5c0.1-0.4,0.1-0.8,0.4-1.3c0.1,0.6-0.2,1.2-0.1,1.8c0.2-1,0.2-2,0.4-2.9c0.1-0.5,0.2-1,0-1.3
				c-0.3-0.3-1.3-0.1-1.4-0.4c-0.1-0.4,1.2-1.5,1.4-2.1c0.1-0.1,0.1-0.3,0.1-0.4c0,0.1,0,0.2,0,0.2c0.4-1.1,0.3-1.7,0.2-2.9
				c0-0.1,0-0.2,0-0.3c0,0,0,0.1,0,0.2c0-0.1,0-0.2,0-0.2s0,0,0,0.1c0,0.5,0.1,1,0.2,1.6c0.1,0.8-0.4,1.5-0.4,2.3
				c-0.1,0.2-0.2,0.4-0.2,0.5c0.4,0,0.7,0,1,0c0.1,0,0.2,0,0.2,0c0.6,0,1.2-0.1,1.8-0.2c0.2-0.1,0.4-0.1,0.7-0.2
				c0.2,0,0.5-0.1,0.7-0.1c0.4-0.1,1.1-0.2,1.5-0.3c0.2-0.1,0.4-0.2,0.6-0.3c0.1,0,0.1,0,0.1,0c0.2-0.1,0.5,0,0.8-0.1
				c0.1-0.1,0.2-0.1,0.2-0.2c0.1-0.1,0.2-0.1,0.3-0.1s0.1,0,0.2,0c0.2-0.1,0.5-0.2,0.7-0.3c0.6-0.3,1.3-0.7,2-1
				c-1,0.1-1.9,0.2-2.8,0.2c0.2-0.2,0.5-0.6,0.9-0.8c-1.1,0.2-2.2,0.8-3.3,1.2c-0.6,0.1-1,0.1-1.6,0.3c-0.5,0.1-2.3-0.4-2.1,0.8
				c-0.1-0.2-0.2-0.3-0.2-0.3c-0.1-0.1-0.1,0-0.2,0.2c0,0,0,0-0.1,0s-0.1,0.2-0.2,0.2c-0.2,0-0.5-0.1-0.7,0.1
				c-0.1,0.1-0.2,0.3-0.3,0.5c0.1-0.2,0.2-0.5,0.3-0.6s0.3-0.1,0.4-0.1c0.4,0,0.1-0.1,0.1-0.2c0.4-0.4,0.7-0.9,1.2-1.2
				c1.1-0.6,2.2-1.2,3.4-1.8c0.6,0.4,2.1-0.4,2.9-0.3c1.3,0.1,2.8,0.3,4.1-0.2c0.5-0.2,0.5-2.5,0.5-3c0.3,0.9,0.9,0.5,1.4,0.2
				c-0.4,0.8-0.4,0.9-0.1,1.8c0.5-0.4,1.5-1.5,2.1-1.5c0.4,0,0.4,0.1,0.2,0.3c0.8,0.1,3.3,0.5,3.6-0.2c0.1-0.2,0-0.8-0.1-1
				c-0.1-0.5-0.4-1.2-0.8-1.4c0,0-0.8-0.2-0.7,0c0.2,0.2,0.5-0.1,0.6,0.1c0.2,0.2,0.2,0.4,0.3,0.7c0.5,0.9,0.4,1.2-0.6,1.4
				c-0.4,0.1-0.9,0.2-1.4-0.1c-0.4-0.4-0.4-1.3-0.6-1.8c-0.2-0.4-0.5-1.1-0.7-1.4c-0.7-0.7-0.8,0.4-1.5-0.9c0.4-0.1,0.7-1,1.2-1.3
				c0.4-0.2,1.5-0.4,0.9-0.9c-0.1,0.5-0.4,0.3-0.6,0.1c-0.6-0.9-0.4-2.3,0.2-3c0.8-1,2.2-2.2,2.5-3.5c0.2-1,0.3-1,1-1.6
				c0,0,0,0.1-0.1,0.2c0.7-0.3,0.7-0.3,1.1,0.6c-0.1-0.4-0.2-1-0.1-1.6c0,0.1,0,0.1,0,0.2c0-0.1,0-0.2,0-0.3c0,0.5,0.1,1,0.3,1.5
				c0.2-0.5,0.2-1.1,0.4-1.6l0,0c-0.2,0.4-0.1,1,0.3,1.2c0.1-0.3,0.1-0.5,0.1-0.8v0.1v-0.1c0,0.1,0,0.1,0.1,0.1
				c0.5-0.1,0.6-0.5,0.9-0.9c0,0.2,0,0.3,0,0.5c0.5,0,1.4,0,1.5-0.7c-0.5,0,0.6-1.8,0.8-2.1c0.1-0.2,0.8-1.8,0.8-0.9
				c0,0.2-0.2,0.6-0.3,0.7c0.1-0.1,0.3-0.1,0.4-0.1c-0.2,0.2-0.4,0.5-0.5,0.8c0.3-0.3,1.1,0.4,1.5,0.5c-0.2-0.6,0-1.3,0.4-1.7
				c0.3-0.2,1.2-0.4,1.2,0c0.5-0.2,0.4,0.5,0.7,1c0.2-0.3,0.2-0.7,0.4-1c0.1,0.2,0.2,0.5,0.4,0.6c0.1-0.4,0.3-1,0.6-1.3
				c0.5,0.4,1.4-0.8,2.1-0.6c0.3,0.1,0.4,0.6,0.7,0.3c0.3-0.3,0.7-0.6,1-0.9L723,1251.3z M675.5,1299c0.1,0.1,0.1,0.2,0.2,0.3
				C675.6,1299.2,675.5,1299.1,675.5,1299L675.5,1299z M709.3,1256.5c0,0.1-0.1,0.2-0.1,0.3C709.3,1256.7,709.3,1256.6,709.3,1256.5
				c-0.1,0.1-0.1,0.1-0.1,0.2C709.3,1256.6,709.3,1256.5,709.3,1256.5C709.3,1256.4,709.3,1256.5,709.3,1256.5z"/>
		</g>
	</g>
	<circle class="st30" cx="457.9" cy="1358.7" r="9"/>
	<circle class="st30" cx="447.9" cy="1298.2" r="9"/>
	<circle class="st30" cx="473.9" cy="1331.2" r="9"/>
	<circle class="st30" cx="527.2" cy="1311.5" r="9"/>
	<circle class="st30" cx="507.9" cy="1311.2" r="9"/>
	<circle class="st30" cx="576.9" cy="1340.7" r="9"/>
	<circle class="st30" cx="573.9" cy="1341.7" r="9"/>
	<circle class="st30" cx="660.9" cy="1313.4" r="9"/>
	<circle class="st30" cx="642.2" cy="1332.7" r="9"/>
	<circle class="st30" cx="681.9" cy="1290" r="9"/>
	<circle class="st30" cx="570.2" cy="1290" r="9"/>
	<circle class="st30" cx="590.6" cy="1248" r="9"/>
	<circle class="st30" cx="611.6" cy="1254" r="9"/>
	<circle class="st30" cx="594.2" cy="1270.4" r="9"/>
	<circle class="st30" cx="695.6" cy="1269" r="9"/>
	<circle class="st30" cx="446.4" cy="1235.7" r="9"/>
	<g>
		<g>
			<g>
				<path class="st31" d="M535.7,973.6l0.3-0.2c0.7,1.7,2.1,3.1,3.7,3.1c1.6,0,2.9-1.4,3.7-3.1l0.3,0.2c0.2,0,0.4-0.2,0.5-0.5
					l0.2-1.7c0-0.2-0.1-0.5-0.3-0.5c0-2.3-1.9-4.2-4.2-4.2s-4.2,1.9-4.2,4.2c-0.2,0-0.4,0.3-0.3,0.5l0.1,1.7
					C535.3,973.4,535.5,973.6,535.7,973.6z M548.8,982.5c0-2.7-1.5-4.9-4.2-4.9h-9.8c-2.5,0-4,1.8-4.2,4.2c-0.1,0.2-0.1,0.4-0.1,0.6
					l-0.7,16c0,1.2,0.9,2.2,1.9,2.2c1.1,0,1.9-1,1.9-2.2v-14.8l0.9,10.4l0,0v26c0,1.3,1.1,2.3,2.4,2.2c1.2-0.1,2-1.2,2-2.3V999
					c0.2,0,0.4,0,0.6,0c0.2,0,0.4,0,0.6,0v21c0,0.9,0.5,1.8,1.3,2.1c1.6,0.6,3.1-0.5,3.1-2v-26l0,0l0.8-9.8v14.3
					c0,1.2,0.9,2.2,2,2.2s2-1,2-2.2L548.8,982.5z"/>
			</g>
		</g>
		<g>
			<g>
				<path class="st31" d="M514.8,976.7L514.8,976.7l-0.3-3.3l0.2-0.4l0.1-1.7c0-0.2-0.1-0.5-0.3-0.5c0-2.3-1.9-4.2-4.3-4.2
					c-2.3,0-4.2,1.9-4.3,4.2c-0.2,0-0.4,0.3-0.3,0.5l0.1,1.7l0.2,0.4l-0.3,3.3l0,0H514.8z M523.6,996.6l-5.5-15.5l-0.1-0.3
					c-0.5-2-1.9-3.4-4.1-3.4h-7.2c-2.2,0-3.7,1.5-4.1,3.6l-4.8,15.5c-0.2,1.2,0.4,2.3,1.5,2.5c1.1,0.2,2.1-0.6,2.3-1.8l3.8-14
					l-3.8,25.4l0,0h3.7l0,0v11.1c0,1.2,0.8,2.3,2,2.4c1.3,0.1,2.4-0.9,2.4-2.2v-11.2h1.3v11.1c0,1.2,0.8,2.3,2,2.4
					c1.3,0.1,2.4-0.9,2.4-2.2v-11.2l0,0h4.3l0,0l-4.3-25.4l4.4,14.2c0.3,1.2,1.4,2,2.4,1.7C523.2,998.9,523.8,997.8,523.6,996.6z"/>
			</g>
		</g>
		<g>
			<g>
				<path class="st31" d="M592.1,973.6l0.3-0.2c0.7,1.7,2.1,3.1,3.7,3.1c1.6,0,2.9-1.4,3.7-3.1l0.3,0.2c0.2,0,0.4-0.2,0.5-0.5
					l0.2-1.7c0-0.2-0.1-0.5-0.3-0.5c0-2.3-1.9-4.2-4.2-4.2s-4.2,1.9-4.2,4.2c-0.2,0-0.4,0.3-0.3,0.5l0.1,1.7
					C591.7,973.4,591.9,973.6,592.1,973.6z M605.2,982.5c0-2.7-1.5-4.9-4.2-4.9h-9.8c-2.5,0-4,1.8-4.2,4.2c-0.1,0.2-0.1,0.4-0.1,0.6
					l-0.7,16c0,1.2,0.9,2.2,1.9,2.2c1.1,0,1.9-1,1.9-2.2v-14.8l0.9,10.4l0,0v26c0,1.3,1.1,2.3,2.4,2.2c1.2-0.1,2-1.2,2-2.3V999
					c0.2,0,0.4,0,0.6,0c0.2,0,0.4,0,0.6,0v21c0,0.9,0.5,1.8,1.3,2.1c1.6,0.6,3.1-0.5,3.1-2v-26l0,0l0.8-9.8v14.3
					c0,1.2,0.9,2.2,2,2.2s2-1,2-2.2L605.2,982.5z"/>
			</g>
		</g>
		<g>
			<g>
				<path class="st31" d="M573.2,976.7L573.2,976.7l-0.3-3.3l0.2-0.4l0.1-1.7c0-0.2-0.1-0.5-0.3-0.5c0-2.3-1.9-4.2-4.3-4.2
					c-2.3,0-4.2,1.9-4.3,4.2c-0.2,0-0.4,0.3-0.3,0.5l0.1,1.7l0.2,0.4l-0.3,3.3l0,0H573.2z M582,996.6l-5.5-15.5l-0.1-0.3
					c-0.5-2-1.9-3.4-4.1-3.4h-7.2c-2.2,0-3.7,1.5-4.1,3.6l-4.8,15.5c-0.2,1.2,0.4,2.3,1.5,2.5c1.1,0.2,2.1-0.6,2.3-1.8l3.8-14
					l-3.8,25.4l0,0h3.7l0,0v11.1c0,1.2,0.8,2.3,2,2.4c1.3,0.1,2.4-0.9,2.4-2.2v-11.2h1.3v11.1c0,1.2,0.8,2.3,2,2.4
					c1.3,0.1,2.4-0.9,2.4-2.2v-11.2l0,0h4.3l0,0l-4.3-25.4l4.4,14.2c0.3,1.2,1.4,2,2.4,1.7C581.6,998.9,582.3,997.8,582,996.6z"/>
			</g>
		</g>
		<g>
			<g>
				<path class="st31" d="M629.8,976.7C629.8,976.7,629.9,976.7,629.8,976.7l-0.3-3.3l0.2-0.4l0.1-1.7c0-0.2-0.1-0.5-0.3-0.5
					c0-2.3-1.9-4.2-4.3-4.2c-2.3,0-4.2,1.9-4.3,4.2c-0.2,0-0.4,0.3-0.3,0.5l0.1,1.7l0.2,0.4l-0.3,3.3l0,0H629.8z M638.6,996.6
					l-5.5-15.5l-0.1-0.3c-0.5-2-1.9-3.4-4.1-3.4h-7.2c-2.2,0-3.7,1.5-4.1,3.6l-4.8,15.5c-0.2,1.2,0.4,2.3,1.5,2.5
					c1.1,0.2,2.1-0.6,2.3-1.8l3.8-14l-3.8,25.4l0,0h3.7l0,0v11.1c0,1.2,0.8,2.3,2,2.4c1.3,0.1,2.4-0.9,2.4-2.2v-11.2h1.3v11.1
					c0,1.2,0.8,2.3,2,2.4c1.3,0.1,2.4-0.9,2.4-2.2v-11.2l0,0h4.3l0,0l-4.3-25.4l4.4,14.2c0.3,1.2,1.4,2,2.4,1.7
					C638.2,998.9,638.9,997.8,638.6,996.6z"/>
			</g>
		</g>
	</g>
	<g>
		<g>
			<path class="st32" d="M520.7,982.6l0.3-0.2c0.7,1.7,2.1,3.1,3.7,3.1c1.6,0,2.9-1.4,3.7-3.1l0.3,0.2c0.2,0,0.4-0.2,0.5-0.5
				l0.2-1.7c0-0.2-0.1-0.5-0.3-0.5c0-2.3-1.9-4.2-4.2-4.2s-4.2,1.9-4.2,4.2c-0.2,0-0.4,0.3-0.3,0.5l0.1,1.7
				C520.3,982.4,520.5,982.6,520.7,982.6z M533.8,991.5c0-2.7-1.5-4.9-4.2-4.9h-9.8c-2.5,0-4,1.8-4.2,4.2c-0.1,0.2-0.1,0.4-0.1,0.6
				l-0.7,16c0,1.2,0.9,2.2,1.9,2.2c1.1,0,1.9-1,1.9-2.2v-14.8l0.9,10.4l0,0v26c0,1.3,1.1,2.3,2.4,2.2c1.2-0.1,2-1.2,2-2.3V1008
				c0.2,0,0.4,0,0.6,0c0.2,0,0.4,0,0.6,0v21c0,0.9,0.5,1.8,1.3,2.1c1.6,0.6,3.1-0.5,3.1-2v-26l0,0l0.8-9.8v14.3c0,1.2,0.9,2.2,2,2.2
				s2-1,2-2.2L533.8,991.5z"/>
		</g>
	</g>
	<g>
		<g>
			<path class="st32" d="M499.8,985.7L499.8,985.7l-0.3-3.3l0.2-0.4l0.1-1.7c0-0.2-0.1-0.5-0.3-0.5c0-2.3-1.9-4.2-4.3-4.2
				c-2.3,0-4.2,1.9-4.3,4.2c-0.2,0-0.4,0.3-0.3,0.5l0.1,1.7l0.2,0.4l-0.3,3.3l0,0H499.8z M508.6,1005.6l-5.5-15.5l-0.1-0.3
				c-0.5-2-1.9-3.4-4.1-3.4h-7.2c-2.2,0-3.7,1.5-4.1,3.6l-4.8,15.5c-0.2,1.2,0.4,2.3,1.5,2.5s2.1-0.6,2.3-1.8l3.8-14l-3.8,25.4l0,0
				h3.7l0,0v11.1c0,1.2,0.8,2.3,2,2.4c1.3,0.1,2.4-0.9,2.4-2.2v-11.2h1.3v11.1c0,1.2,0.8,2.3,2,2.4c1.3,0.1,2.4-0.9,2.4-2.2v-11.2
				l0,0h4.3l0,0l-4.3-25.4l4.4,14.2c0.3,1.2,1.4,2,2.4,1.7C508.2,1007.9,508.8,1006.8,508.6,1005.6z"/>
		</g>
	</g>
	<g>
		<g>
			<path class="st32" d="M577.1,982.6l0.3-0.2c0.7,1.7,2.1,3.1,3.7,3.1c1.6,0,2.9-1.4,3.7-3.1l0.3,0.2c0.2,0,0.4-0.2,0.5-0.5
				l0.2-1.7c0-0.2-0.1-0.5-0.3-0.5c0-2.3-1.9-4.2-4.2-4.2s-4.2,1.9-4.2,4.2c-0.2,0-0.4,0.3-0.3,0.5l0.1,1.7
				C576.7,982.4,576.9,982.6,577.1,982.6z M590.2,991.5c0-2.7-1.5-4.9-4.2-4.9h-9.8c-2.5,0-4,1.8-4.2,4.2c-0.1,0.2-0.1,0.4-0.1,0.6
				l-0.7,16c0,1.2,0.9,2.2,1.9,2.2c1.1,0,1.9-1,1.9-2.2v-14.8l0.9,10.4l0,0v26c0,1.3,1.1,2.3,2.4,2.2c1.2-0.1,2-1.2,2-2.3V1008
				c0.2,0,0.4,0,0.6,0c0.2,0,0.4,0,0.6,0v21c0,0.9,0.5,1.8,1.3,2.1c1.6,0.6,3.1-0.5,3.1-2v-26l0,0l0.8-9.8v14.3c0,1.2,0.9,2.2,2,2.2
				s2-1,2-2.2L590.2,991.5z"/>
		</g>
	</g>
	<g>
		<g>
			<path class="st32" d="M558.2,985.7L558.2,985.7l-0.3-3.3l0.2-0.4l0.1-1.7c0-0.2-0.1-0.5-0.3-0.5c0-2.3-1.9-4.2-4.3-4.2
				c-2.3,0-4.2,1.9-4.3,4.2c-0.2,0-0.4,0.3-0.3,0.5l0.1,1.7l0.2,0.4l-0.3,3.3l0,0H558.2z M567,1005.6l-5.5-15.5l-0.1-0.3
				c-0.5-2-1.9-3.4-4.1-3.4h-7.2c-2.2,0-3.7,1.5-4.1,3.6l-4.8,15.5c-0.2,1.2,0.4,2.3,1.5,2.5s2.1-0.6,2.3-1.8l3.8-14l-3.8,25.4l0,0
				h3.7l0,0v11.1c0,1.2,0.8,2.3,2,2.4c1.3,0.1,2.4-0.9,2.4-2.2v-11.2h1.3v11.1c0,1.2,0.8,2.3,2,2.4c1.3,0.1,2.4-0.9,2.4-2.2v-11.2
				l0,0h4.3l0,0l-4.3-25.4l4.4,14.2c0.3,1.2,1.4,2,2.4,1.7C566.6,1007.9,567.3,1006.8,567,1005.6z"/>
		</g>
	</g>
	<g>
		<g>
			<path class="st32" d="M635.7,982.6l0.3-0.2c0.7,1.7,2.1,3.1,3.7,3.1c1.6,0,2.9-1.4,3.7-3.1l0.3,0.2c0.2,0,0.4-0.2,0.5-0.5
				l0.2-1.7c0-0.2-0.1-0.5-0.3-0.5c0-2.3-1.9-4.2-4.2-4.2s-4.2,1.9-4.2,4.2c-0.2,0-0.4,0.3-0.3,0.5l0.1,1.7
				C635.3,982.4,635.5,982.6,635.7,982.6z M648.8,991.5c0-2.7-1.5-4.9-4.2-4.9h-9.8c-2.5,0-4,1.8-4.2,4.2c-0.1,0.2-0.1,0.4-0.1,0.6
				l-0.7,16c0,1.2,0.9,2.2,1.9,2.2c1.1,0,1.9-1,1.9-2.2v-14.8l0.9,10.4l0,0v26c0,1.3,1.1,2.3,2.4,2.2c1.2-0.1,2-1.2,2-2.3V1008
				c0.2,0,0.4,0,0.6,0c0.2,0,0.4,0,0.6,0v21c0,0.9,0.5,1.8,1.3,2.1c1.6,0.6,3.1-0.5,3.1-2v-26l0,0l0.8-9.8v14.3c0,1.2,0.9,2.2,2,2.2
				s2-1,2-2.2L648.8,991.5z"/>
		</g>
	</g>
	<g>
		<g>
			<path class="st32" d="M614.8,985.7C614.8,985.7,614.9,985.7,614.8,985.7l-0.3-3.3l0.2-0.4l0.1-1.7c0-0.2-0.1-0.5-0.3-0.5
				c0-2.3-1.9-4.2-4.3-4.2c-2.3,0-4.2,1.9-4.3,4.2c-0.2,0-0.4,0.3-0.3,0.5l0.1,1.7l0.2,0.4l-0.3,3.3l0,0H614.8z M623.6,1005.6
				l-5.5-15.5l-0.1-0.3c-0.5-2-1.9-3.4-4.1-3.4h-7.2c-2.2,0-3.7,1.5-4.1,3.6l-4.8,15.5c-0.2,1.2,0.4,2.3,1.5,2.5s2.1-0.6,2.3-1.8
				l3.8-14l-3.8,25.4l0,0h3.7l0,0v11.1c0,1.2,0.8,2.3,2,2.4c1.3,0.1,2.4-0.9,2.4-2.2v-11.2h1.3v11.1c0,1.2,0.8,2.3,2,2.4
				c1.3,0.1,2.4-0.9,2.4-2.2v-11.2l0,0h4.3l0,0l-4.3-25.4l4.4,14.2c0.3,1.2,1.4,2,2.4,1.7C623.2,1007.9,623.9,1006.8,623.6,1005.6z"
				/>
		</g>
	</g>
	<g class="st33">
		<polygon class="st4" points="450.5,1059.9 514.2,1025.2 630.8,1025.2 694.5,1059.9 		"/>
		<g>
			<path class="st1" d="M630.7,1025.8l61.3,33.4H453.1l61.3-33.4H630.7 M631,1024.5H514l-66,36h249L631,1024.5L631,1024.5z"/>
		</g>
	</g>
	<g>
		<g>
			<path class="st34" d="M505.7,998.6l0.3-0.2c0.7,1.7,2.1,3.1,3.7,3.1c1.6,0,2.9-1.4,3.7-3.1l0.3,0.2c0.2,0,0.4-0.2,0.5-0.5
				l0.2-1.7c0-0.2-0.1-0.5-0.3-0.5c0-2.3-1.9-4.2-4.2-4.2s-4.2,1.9-4.2,4.2c-0.2,0-0.4,0.3-0.3,0.5l0.1,1.7
				C505.3,998.4,505.5,998.6,505.7,998.6z M518.8,1007.5c0-2.7-1.5-4.9-4.2-4.9h-9.8c-2.5,0-4,1.8-4.2,4.2c-0.1,0.2-0.1,0.4-0.1,0.6
				l-0.7,16c0,1.2,0.9,2.2,1.9,2.2c1.1,0,1.9-1,1.9-2.2v-14.8l0.9,10.4l0,0v26c0,1.3,1.1,2.3,2.4,2.2c1.2-0.1,2-1.2,2-2.3V1024
				c0.2,0,0.4,0,0.6,0c0.2,0,0.4,0,0.6,0v21c0,0.9,0.5,1.8,1.3,2.1c1.6,0.6,3.1-0.5,3.1-2v-26l0,0l0.8-9.8v14.3c0,1.2,0.9,2.2,2,2.2
				s2-1,2-2.2L518.8,1007.5z"/>
		</g>
	</g>
	<g>
		<g>
			<path class="st34" d="M484.8,1001.7L484.8,1001.7l-0.3-3.3l0.2-0.4l0.1-1.7c0-0.2-0.1-0.5-0.3-0.5c0-2.3-1.9-4.2-4.3-4.2
				c-2.3,0-4.2,1.9-4.3,4.2c-0.2,0-0.4,0.3-0.3,0.5l0.1,1.7l0.2,0.4l-0.3,3.3l0,0H484.8z M493.6,1021.6l-5.5-15.5l-0.1-0.3
				c-0.5-2-1.9-3.4-4.1-3.4h-7.2c-2.2,0-3.7,1.5-4.1,3.6l-4.8,15.5c-0.2,1.2,0.4,2.3,1.5,2.5c1.1,0.2,2.1-0.6,2.3-1.8l3.8-14
				l-3.8,25.4l0,0h3.7l0,0v11.1c0,1.2,0.8,2.3,2,2.4c1.3,0.1,2.4-0.9,2.4-2.2v-11.2h1.3v11.1c0,1.2,0.8,2.3,2,2.4
				c1.3,0.1,2.4-0.9,2.4-2.2v-11.2l0,0h4.3l0,0l-4.3-25.4l4.4,14.2c0.3,1.2,1.4,2,2.4,1.7C493.2,1023.9,493.8,1022.8,493.6,1021.6z"
				/>
		</g>
	</g>
	<g>
		<g>
			<path class="st34" d="M562.1,998.6l0.3-0.2c0.7,1.7,2.1,3.1,3.7,3.1c1.6,0,2.9-1.4,3.7-3.1l0.3,0.2c0.2,0,0.4-0.2,0.5-0.5
				l0.2-1.7c0-0.2-0.1-0.5-0.3-0.5c0-2.3-1.9-4.2-4.2-4.2s-4.2,1.9-4.2,4.2c-0.2,0-0.4,0.3-0.3,0.5l0.1,1.7
				C561.7,998.4,561.9,998.6,562.1,998.6z M575.2,1007.5c0-2.7-1.5-4.9-4.2-4.9h-9.8c-2.5,0-4,1.8-4.2,4.2c-0.1,0.2-0.1,0.4-0.1,0.6
				l-0.7,16c0,1.2,0.9,2.2,1.9,2.2c1.1,0,1.9-1,1.9-2.2v-14.8l0.9,10.4l0,0v26c0,1.3,1.1,2.3,2.4,2.2c1.2-0.1,2-1.2,2-2.3V1024
				c0.2,0,0.4,0,0.6,0c0.2,0,0.4,0,0.6,0v21c0,0.9,0.5,1.8,1.3,2.1c1.6,0.6,3.1-0.5,3.1-2v-26l0,0l0.8-9.8v14.3c0,1.2,0.9,2.2,2,2.2
				s2-1,2-2.2L575.2,1007.5z"/>
		</g>
	</g>
	<g>
		<g>
			<path class="st34" d="M543.2,1001.7L543.2,1001.7l-0.3-3.3l0.2-0.4l0.1-1.7c0-0.2-0.1-0.5-0.3-0.5c0-2.3-1.9-4.2-4.3-4.2
				c-2.3,0-4.2,1.9-4.3,4.2c-0.2,0-0.4,0.3-0.3,0.5l0.1,1.7l0.2,0.4l-0.3,3.3l0,0H543.2z M552,1021.6l-5.5-15.5l-0.1-0.3
				c-0.5-2-1.9-3.4-4.1-3.4h-7.2c-2.2,0-3.7,1.5-4.1,3.6l-4.8,15.5c-0.2,1.2,0.4,2.3,1.5,2.5c1.1,0.2,2.1-0.6,2.3-1.8l3.8-14
				l-3.8,25.4l0,0h3.7l0,0v11.1c0,1.2,0.8,2.3,2,2.4c1.3,0.1,2.4-0.9,2.4-2.2v-11.2h1.3v11.1c0,1.2,0.8,2.3,2,2.4
				c1.3,0.1,2.4-0.9,2.4-2.2v-11.2l0,0h4.3l0,0l-4.3-25.4l4.4,14.2c0.3,1.2,1.4,2,2.4,1.7C551.6,1023.9,552.3,1022.8,552,1021.6z"/>
		</g>
	</g>
	<g>
		<g>
			<path class="st34" d="M620.7,998.6l0.3-0.2c0.7,1.7,2.1,3.1,3.7,3.1c1.6,0,2.9-1.4,3.7-3.1l0.3,0.2c0.2,0,0.4-0.2,0.5-0.5
				l0.2-1.7c0-0.2-0.1-0.5-0.3-0.5c0-2.3-1.9-4.2-4.2-4.2s-4.2,1.9-4.2,4.2c-0.2,0-0.4,0.3-0.3,0.5l0.1,1.7
				C620.3,998.4,620.5,998.6,620.7,998.6z M633.8,1007.5c0-2.7-1.5-4.9-4.2-4.9h-9.8c-2.5,0-4,1.8-4.2,4.2c-0.1,0.2-0.1,0.4-0.1,0.6
				l-0.7,16c0,1.2,0.9,2.2,1.9,2.2c1.1,0,1.9-1,1.9-2.2v-14.8l0.9,10.4l0,0v26c0,1.3,1.1,2.3,2.4,2.2c1.2-0.1,2-1.2,2-2.3V1024
				c0.2,0,0.4,0,0.6,0c0.2,0,0.4,0,0.6,0v21c0,0.9,0.5,1.8,1.3,2.1c1.6,0.6,3.1-0.5,3.1-2v-26l0,0l0.8-9.8v14.3c0,1.2,0.9,2.2,2,2.2
				s2-1,2-2.2L633.8,1007.5z"/>
		</g>
	</g>
	<g>
		<g>
			<path class="st34" d="M599.8,1001.7C599.8,1001.7,599.9,1001.7,599.8,1001.7l-0.3-3.3l0.2-0.4l0.1-1.7c0-0.2-0.1-0.5-0.3-0.5
				c0-2.3-1.9-4.2-4.3-4.2c-2.3,0-4.2,1.9-4.3,4.2c-0.2,0-0.4,0.3-0.3,0.5l0.1,1.7l0.2,0.4l-0.3,3.3l0,0H599.8z M608.6,1021.6
				l-5.5-15.5l-0.1-0.3c-0.5-2-1.9-3.4-4.1-3.4h-7.2c-2.2,0-3.7,1.5-4.1,3.6l-4.8,15.5c-0.2,1.2,0.4,2.3,1.5,2.5
				c1.1,0.2,2.1-0.6,2.3-1.8l3.8-14l-3.8,25.4l0,0h3.7l0,0v11.1c0,1.2,0.8,2.3,2,2.4c1.3,0.1,2.4-0.9,2.4-2.2v-11.2h1.3v11.1
				c0,1.2,0.8,2.3,2,2.4c1.3,0.1,2.4-0.9,2.4-2.2v-11.2l0,0h4.3l0,0l-4.3-25.4l4.4,14.2c0.3,1.2,1.4,2,2.4,1.7
				C608.2,1023.9,608.9,1022.8,608.6,1021.6z"/>
		</g>
	</g>
	<g>
		<g>
			<path class="st34" d="M656.2,1001.7C656.3,1001.7,656.3,1001.7,656.2,1001.7l-0.3-3.3l0.2-0.4l0.1-1.7c0-0.2-0.1-0.5-0.3-0.5
				c0-2.3-1.9-4.2-4.3-4.2c-2.3,0-4.2,1.9-4.3,4.2c-0.2,0-0.4,0.3-0.3,0.5l0.1,1.7l0.2,0.4l-0.3,3.3l0,0H656.2z M665,1021.6
				l-5.5-15.5l-0.1-0.3c-0.5-2-1.9-3.4-4.1-3.4h-7.2c-2.2,0-3.7,1.5-4.1,3.6l-4.8,15.5c-0.2,1.2,0.4,2.3,1.5,2.5
				c1.1,0.2,2.1-0.6,2.3-1.8l3.8-14l-3.8,25.4l0,0h3.7l0,0v11.1c0,1.2,0.8,2.3,2,2.4c1.3,0.1,2.4-0.9,2.4-2.2v-11.2h1.3v11.1
				c0,1.2,0.8,2.3,2,2.4c1.3,0.1,2.4-0.9,2.4-2.2v-11.2l0,0h4.3l0,0l-4.3-25.4l4.4,14.2c0.3,1.2,1.4,2,2.4,1.7
				C664.6,1023.9,665.3,1022.8,665,1021.6z"/>
		</g>
	</g>
	<g>
		<g>
			<g>
				<g>
					<path class="st35" d="M488.6,1005.6l0.3-0.2c0.8,1.8,2.3,3.3,4,3.3s3.2-1.5,4-3.3l0.3,0.2c0.2,0,0.5-0.2,0.5-0.5l0.2-1.9
						c0-0.3-0.1-0.5-0.3-0.5c0-2.5-2.1-4.6-4.6-4.6s-4.6,2-4.6,4.5c-0.2,0-0.4,0.3-0.4,0.6l0.2,1.9
						C488.2,1005.4,488.4,1005.6,488.6,1005.6z M502.8,1015.2c0-2.9-1.6-5.3-4.6-5.3h-10.6c-2.7,0-4.3,2-4.5,4.6
						c-0.1,0.2-0.1,0.5-0.1,0.7l-0.7,17.3c0,1.3,0.9,2.4,2.1,2.4c1.2,0,2.1-1.1,2.1-2.4v-16l1,11.2v28.1c0,1.3,1.1,2.4,2.4,2.4
						c1.3,0,2.4-1.1,2.4-2.4v-22.7c0.2,0,0.4,0,0.7,0c0.2,0,0.5,0,0.7,0v22.7c0,1.3,1.1,2.4,2.4,2.4c1.3,0,2.4-1.1,2.4-2.4v-28.1
						l0.9-10.6v15.4c0,1.3,1,2.4,2.1,2.4c1.2,0,2.1-1.1,2.1-2.4L502.8,1015.2z"/>
				</g>
			</g>
			<g>
				<g>
					<path class="st35" d="M468.2,1009l-0.4-3.6l0.2-0.4l0.2-1.9c0-0.3-0.1-0.5-0.3-0.6c0-2.5-2.1-4.6-4.6-4.6s-4.6,2-4.6,4.6
						c-0.2,0-0.4,0.3-0.4,0.6l0.2,1.9l0.2,0.4l-0.4,3.6H468.2z M477.7,1030.5l-6-16.7l-0.1-0.3c-0.5-2.1-2-3.7-4.4-3.7h-7.8
						c-2.4,0-4,1.6-4.4,3.9l-5.2,16.8c-0.2,1.3,0.5,2.5,1.6,2.7s2.2-0.7,2.5-2l4.1-15.1l-4.2,27.5h4v12.2c0,1.3,1.1,2.4,2.4,2.4
						c1.3,0,2.4-1.1,2.4-2.4v-12.2h1.4v12.2c0,1.3,1.1,2.4,2.4,2.4c1.3,0,2.4-1.1,2.4-2.4v-12.2h4.7l-4.7-27.5l4.8,15.3
						c0.3,1.3,1.5,2.1,2.6,1.9C477.3,1033,478,1031.8,477.7,1030.5z"/>
				</g>
			</g>
		</g>
		<g>
			<g>
				<g>
					<path class="st35" d="M547.5,1005.6l0.3-0.2c0.8,1.8,2.3,3.3,4,3.3s3.2-1.5,4-3.3l0.3,0.2c0.2,0,0.5-0.2,0.5-0.5l0.2-1.9
						c0-0.3-0.1-0.5-0.3-0.5c0-2.5-2.1-4.6-4.6-4.6s-4.6,2-4.6,4.5c-0.2,0-0.4,0.3-0.4,0.6l0.2,1.9
						C547,1005.4,547.2,1005.6,547.5,1005.6z M561.7,1015.2c0-2.9-1.6-5.3-4.6-5.3h-10.6c-2.7,0-4.3,2-4.5,4.6
						c-0.1,0.2-0.1,0.5-0.1,0.7l-0.7,17.3c0,1.3,0.9,2.4,2.1,2.4c1.2,0,2.1-1.1,2.1-2.4v-16l1,11.2v28.1c0,1.3,1.1,2.4,2.4,2.4
						c1.3,0,2.4-1.1,2.4-2.4v-22.7c0.2,0,0.4,0,0.7,0c0.2,0,0.5,0,0.7,0v22.7c0,1.3,1.1,2.4,2.4,2.4c1.3,0,2.4-1.1,2.4-2.4v-28.1
						l0.9-10.6v15.4c0,1.3,1,2.4,2.1,2.4c1.2,0,2.1-1.1,2.1-2.4L561.7,1015.2z"/>
				</g>
			</g>
			<g>
				<g>
					<path class="st35" d="M527.1,1009l-0.4-3.6l0.2-0.4l0.2-1.9c0-0.3-0.1-0.5-0.3-0.6c0-2.5-2.1-4.6-4.6-4.6s-4.6,2-4.6,4.6
						c-0.2,0-0.4,0.3-0.4,0.6l0.2,1.9l0.2,0.4l-0.4,3.6H527.1z M536.5,1030.5l-6-16.7l-0.1-0.3c-0.5-2.1-2-3.7-4.4-3.7h-7.8
						c-2.4,0-4,1.6-4.4,3.9l-5.2,16.8c-0.2,1.3,0.5,2.5,1.6,2.7s2.2-0.7,2.5-2l4.1-15.1l-4.2,27.5h4v12.2c0,1.3,1.1,2.4,2.4,2.4
						c1.3,0,2.4-1.1,2.4-2.4v-12.2h1.4v12.2c0,1.3,1.1,2.4,2.4,2.4c1.3,0,2.4-1.1,2.4-2.4v-12.2h4.7l-4.7-27.5l4.8,15.3
						c0.3,1.3,1.5,2.1,2.6,1.9C536.1,1033,536.8,1031.8,536.5,1030.5z"/>
				</g>
			</g>
		</g>
		<g>
			<g>
				<g>
					<path class="st35" d="M604.4,1005.6l0.3-0.2c0.8,1.8,2.3,3.3,4,3.3s3.2-1.5,4-3.3l0.3,0.2c0.2,0,0.5-0.2,0.5-0.5l0.2-1.9
						c0-0.3-0.1-0.5-0.3-0.5c0-2.5-2.1-4.6-4.6-4.6s-4.6,2-4.6,4.5c-0.2,0-0.4,0.3-0.4,0.6l0.2,1.9
						C603.9,1005.4,604.1,1005.6,604.4,1005.6z M618.5,1015.2c0-2.9-1.6-5.3-4.6-5.3h-10.6c-2.7,0-4.3,2-4.5,4.6
						c-0.1,0.2-0.1,0.5-0.1,0.7l-0.7,17.3c0,1.3,0.9,2.4,2.1,2.4c1.2,0,2.1-1.1,2.1-2.4v-16l1,11.2v28.1c0,1.3,1.1,2.4,2.4,2.4
						c1.3,0,2.4-1.1,2.4-2.4v-22.7c0.2,0,0.4,0,0.7,0c0.2,0,0.5,0,0.7,0v22.7c0,1.3,1.1,2.4,2.4,2.4c1.3,0,2.4-1.1,2.4-2.4v-28.1
						l0.9-10.6v15.4c0,1.3,1,2.4,2.1,2.4c1.2,0,2.1-1.1,2.1-2.4L618.5,1015.2z"/>
				</g>
			</g>
			<g>
				<g>
					<path class="st35" d="M584,1009l-0.4-3.6l0.2-0.4l0.2-1.9c0-0.3-0.1-0.5-0.3-0.6c0-2.5-2.1-4.6-4.6-4.6s-4.6,2-4.6,4.6
						c-0.2,0-0.4,0.3-0.4,0.6l0.2,1.9l0.2,0.4l-0.4,3.6H584z M593.4,1030.5l-6-16.7l-0.1-0.3c-0.5-2.1-2-3.7-4.4-3.7h-7.8
						c-2.4,0-4,1.6-4.4,3.9l-5.2,16.8c-0.2,1.3,0.5,2.5,1.6,2.7s2.2-0.7,2.5-2l4.1-15.1l-4.2,27.5h4v12.2c0,1.3,1.1,2.4,2.4,2.4
						c1.3,0,2.4-1.1,2.4-2.4v-12.2h1.4v12.2c0,1.3,1.1,2.4,2.4,2.4c1.3,0,2.4-1.1,2.4-2.4v-12.2h4.7l-4.7-27.5l4.8,15.3
						c0.3,1.3,1.5,2.1,2.6,1.9C593,1033,593.7,1031.8,593.4,1030.5z"/>
				</g>
			</g>
		</g>
		<g>
			<g>
				<g>
					<path class="st35" d="M663.2,1005.6l0.3-0.2c0.8,1.8,2.3,3.3,4,3.3s3.2-1.5,4-3.3l0.3,0.2c0.2,0,0.5-0.2,0.5-0.5l0.2-1.9
						c0-0.3-0.1-0.5-0.3-0.5c0-2.5-2.1-4.6-4.6-4.6s-4.6,2-4.6,4.5c-0.2,0-0.4,0.3-0.4,0.6l0.2,1.9
						C662.7,1005.4,663,1005.6,663.2,1005.6z M677.4,1015.2c0-2.9-1.6-5.3-4.6-5.3h-10.6c-2.7,0-4.3,2-4.5,4.6
						c-0.1,0.2-0.1,0.5-0.1,0.7l-0.7,17.3c0,1.3,0.9,2.4,2.1,2.4c1.2,0,2.1-1.1,2.1-2.4v-16l1,11.2v28.1c0,1.3,1.1,2.4,2.4,2.4
						c1.3,0,2.4-1.1,2.4-2.4v-22.7c0.2,0,0.4,0,0.7,0c0.2,0,0.5,0,0.7,0v22.7c0,1.3,1.1,2.4,2.4,2.4c1.3,0,2.4-1.1,2.4-2.4v-28.1
						l0.9-10.6v15.4c0,1.3,1,2.4,2.1,2.4c1.2,0,2.1-1.1,2.1-2.4L677.4,1015.2z"/>
				</g>
			</g>
			<g>
				<g>
					<path class="st35" d="M642.8,1009l-0.4-3.6l0.2-0.4l0.2-1.9c0-0.3-0.1-0.5-0.3-0.6c0-2.5-2.1-4.6-4.6-4.6s-4.6,2-4.6,4.6
						c-0.2,0-0.4,0.3-0.4,0.6l0.2,1.9l0.2,0.4l-0.4,3.6H642.8z M652.3,1030.5l-6-16.7l-0.1-0.3c-0.5-2.1-2-3.7-4.4-3.7H634
						c-2.4,0-4,1.6-4.4,3.9l-5.2,16.8c-0.2,1.3,0.5,2.5,1.6,2.7s2.2-0.7,2.5-2l4.1-15.1l-4.2,27.5h4v12.2c0,1.3,1.1,2.4,2.4,2.4
						c1.3,0,2.4-1.1,2.4-2.4v-12.2h1.4v12.2c0,1.3,1.1,2.4,2.4,2.4c1.3,0,2.4-1.1,2.4-2.4v-12.2h4.7l-4.7-27.5l4.8,15.3
						c0.3,1.3,1.5,2.1,2.6,1.9C651.9,1033,652.6,1031.8,652.3,1030.5z"/>
				</g>
			</g>
		</g>
	</g>
	<text transform="matrix(1 0 0 1 974.1714 648.8759)" class="st1 st36 st37">%</text>
	<g>
		<polygon class="st1" points="1083.7,410.3 1083.7,405.9 1081.1,405.9 1081.1,407.8 1078.6,405.3 1071.6,412.3 1072.8,412.3 
			1072.8,419.3 1076.7,419.3 1076.7,413.5 1080.5,413.5 1080.5,419.3 1084.3,419.3 1084.3,412.3 1085.6,412.3 		"/>
	</g>
	<path class="st1" d="M846.8,854c-1.1-2.2-3.1-3.2-5-3.3c-3.9,0-6.7,2.8-6.8,6.2c0,2,0.8,3.6,2.1,5.1c1.4,1.6,2.9,3.1,3.7,5
		c0.1,0.2,0.4,0.5,0.5,0.5c0.2,0,0.4-0.3,0.5-0.5c0.6-1,1.1-2,1.8-2.9c0.9-1.2,2-2.2,2.8-3.4C847.9,858.6,848,856.3,846.8,854z
		 M841.3,860.3c-1.9,0-3.4-1.5-3.3-3.4c0-1.7,1.5-3.2,3.3-3.2s3.3,1.5,3.3,3.3C844.6,858.8,843.1,860.3,841.3,860.3z"/>
	<g>
		<path class="st0" d="M1186,205.5H881c-2.8,0-5-2.2-5-5v-13c0-2.8,2.2-5,5-5h305c2.8,0,5,2.2,5,5v13
			C1191,203.3,1188.8,205.5,1186,205.5z"/>
	</g>
	<path class="st4" d="M1014.2,207.5h-37.5c-2.1,0-3.8-1.7-3.8-3.8v-19.4c0-2.1,1.7-3.8,3.8-3.8h37.5c2.1,0,3.8,1.7,3.8,3.8v19.4
		C1018,205.8,1016.3,207.5,1014.2,207.5z"/>
	<g>
		<path class="st0" d="M1175.9,26.3H869.1c-2.3,0-4.1-1.9-4.1-4.1v-7.4c0-2.3,1.9-4.1,4.1-4.1h306.8c2.3,0,4.1,1.9,4.1,4.1v7.4
			C1180,24.5,1178.1,26.3,1175.9,26.3z"/>
	</g>
	<path class="st4" d="M1049.8,29.9H926.9c-2,0-3.6-1.6-3.6-3.6V12c0-2,1.6-3.6,3.6-3.6h122.9c2,0,3.6,1.6,3.6,3.6v14.3
		C1053.3,28.3,1051.7,29.9,1049.8,29.9z"/>
	<text transform="matrix(1 0 0 1 979.2812 199.8729)" class="st1 st36 st37">$</text>
	<text transform="matrix(1 0 0 1 964.6521 22.8777)" class="st1 st36 st38">CLUSTER</text>
	<text transform="matrix(1 0 0 1 1073.8042 22.8777)" class="st39 st36 st38">UNITED STATES</text>
	<text transform="matrix(1 0 0 1 829.2198 22.8777)" class="st5 st36 st38">KEY:</text>
	<text transform="matrix(1 0 0 1 863.4969 53.8672)" class="st40 st11 st26">Lowest values</text>
	<text transform="matrix(1 0 0 1 1081.9937 51.8672)" class="st40 st11 st26">Highest values</text>
	<g>
		<g>
			<line class="st41" x1="864.5" y1="39.1" x2="864.5" y2="38"/>
			<line class="st42" x1="864.5" y1="35.4" x2="864.5" y2="1.3"/>
			<line class="st41" x1="864.5" y1="0" x2="864.5" y2="-1.1"/>
		</g>
	</g>
	<line class="st43" x1="923.7" y1="39.1" x2="923.7" y2="-1.1"/>
	<g>
		<g>
			<line class="st41" x1="1179.8" y1="39.1" x2="1179.8" y2="38"/>
			<line class="st42" x1="1179.8" y1="35.4" x2="1179.8" y2="1.3"/>
			<line class="st41" x1="1179.8" y1="0" x2="1179.8" y2="-1.1"/>
		</g>
	</g>
	<g>
		<g>
			<line class="st41" x1="1053.5" y1="39.1" x2="1053.5" y2="38"/>
			<line class="st42" x1="1053.5" y1="35.4" x2="1053.5" y2="1.3"/>
			<line class="st41" x1="1053.5" y1="0" x2="1053.5" y2="-1.1"/>
		</g>
	</g>
	<rect x="328" y="234.7" class="st21" width="260" height="47.9"/>
	<text transform="matrix(1 0 0 1 328.0156 246.0148)" class="st13 st6 st9"> $3,416,849  </text>
	<text transform="matrix(1 0 0 1 328.0156 264.0148)" class="st13 st11 st44">Transitional Living for Homeless Youth</text>
	<rect x="570" y="477.1" class="st21" width="197" height="109.4"/>
	<text transform="matrix(1 0 0 1 570.0386 488.3781)" class="st13 st6 st9">$1,119,225  </text>
	<text transform="matrix(1 0 0 1 570.0386 506.3781)" class="st13 st11 st44">Education and Prevention </text>
	<text transform="matrix(1 0 0 1 570.0386 524.3781)" class="st13 st11 st44">Grants to Reduce Sexual </text>
	<text transform="matrix(1 0 0 1 570.0386 542.3781)" class="st13 st11 st44">Abuse of Runaway, Homeless </text>
	<text transform="matrix(1 0 0 1 570.0386 560.3781)" class="st13 st11 st44">and Street Youth</text>
	<rect x="430" y="326.2" class="st21" width="186" height="40.4"/>
	<text transform="matrix(1 0 0 1 430.0299 337.4539)" class="st13 st6 st9"> $2,029,026  </text>
	<text transform="matrix(1 0 0 1 430.0299 355.4539)" class="st13 st11 st44">Basic Center Grant</text>
	<rect x="570" y="382.8" class="st21" width="182" height="89.4"/>
	<text transform="matrix(1 0 0 1 570.0386 394.1229)" class="st13 st6 st9">$1,776,590  </text>
	<text transform="matrix(1 0 0 1 570.0386 412.1229)" class="st13 st11 st44">Homeless Veterans  </text>
	<text transform="matrix(1 0 0 1 570.0386 430.1229)" class="st13 st11 st44">Reintegration Program</text>
	<rect x="15" y="783.1" class="st21" width="194" height="67.4"/>
	<text transform="matrix(1 0 0 1 15.0157 794.3915)" class="st13 st6 st9"> $18,073,018  </text>
	<text transform="matrix(1 0 0 1 15.0157 812.3915)" class="st13 st11 st44">VA Homeless Providers Grant </text>
	<text transform="matrix(1 0 0 1 15.0157 830.3915)" class="st13 st11 st44">and Per Diem Program </text>
	<g>
		<path class="st0" d="M1082.3,1100.6H899.2c-2.3,0-4.2-1.9-4.2-4.2v-14.6c0-2.3,1.9-4.2,4.2-4.2h183.1c2.3,0,4.2,1.9,4.2,4.2v14.6
			C1086.5,1098.7,1084.6,1100.6,1082.3,1100.6z"/>
	</g>
	<path class="st4" d="M1071.7,1102.6h-160c-3.5,0-6.4-2.9-6.4-6.4v-14.3c0-3.5,2.9-6.4,6.4-6.4h160c3.5,0,6.4,2.9,6.4,6.4v14.3
		C1078.1,1099.7,1075.2,1102.6,1071.7,1102.6z"/>
	<g>
		<path class="st1" d="M959.7,1087.2c0.3,0.1,0.5,0.1,0.7,0.3c0.5,0.3,0.8,0.8,0.8,1.3c0,2.5,0,4.9,0,7.4c0,0.8-0.6,1.4-1.5,1.5
			c-0.6,0-1.1,0-1.7,0c-2.3,0-4.7,0-7,0c-1.1,0-1.7-0.6-1.7-1.7c0-2.3,0-4.5,0-6.8c0-1.1,0.4-1.7,1.5-1.9c0-0.7,0-1.4,0-2.1
			c0-2.2,1.3-3.9,3.5-4.4c2.5-0.6,5.1,1.2,5.4,3.7c0.1,0.8,0,1.6,0.1,2.4C959.7,1086.9,959.7,1087,959.7,1087.2z M950.8,1096.1
			c3,0,5.9,0,8.9,0c0-2.5,0-4.9,0-7.4c-3,0-5.9,0-8.9,0C950.8,1091.2,950.8,1093.6,950.8,1096.1z M958.2,1087.2c0-0.8,0-1.7,0-2.5
			c-0.1-1.5-1.3-2.6-2.9-2.7c-1.4-0.1-2.8,1-3,2.4c-0.1,0.9,0,1.9,0,2.8C954.3,1087.2,956.2,1087.2,958.2,1087.2z"/>
		<path class="st1" d="M955.2,1090.2c0.8,0,1.3,0.4,1.5,1s0,1.2-0.4,1.7c-0.1,0.1-0.2,0.3-0.2,0.4c0,0.2,0,0.5,0,0.7
			c0,0.4-0.4,0.7-0.7,0.7c-0.4,0-0.7-0.3-0.7-0.7c0-0.1,0-0.2,0-0.3c0-0.4,0-0.7-0.3-1c-0.5-0.4-0.5-1.1-0.3-1.6
			C954.2,1090.5,954.7,1090.2,955.2,1090.2z"/>
	</g>
	<text transform="matrix(1 0 0 1 483.6797 1311.1979)" class="st1 st6 st45">20,636,436</text>
	<g>
		<g>
			<line class="st46" x1="17.2" y1="1215.8" x2="19.9" y2="1215.8"/>
			<line class="st47" x1="22.5" y1="1215.8" x2="256.3" y2="1215.8"/>
			<line class="st46" x1="257.6" y1="1215.8" x2="260.3" y2="1215.8"/>
		</g>
	</g>
	<rect x="570" y="606.2" class="st21" width="191" height="126.4"/>
	<text transform="matrix(1 0 0 1 570.0389 617.4572)" class="st13 st6 st9">$939,178    </text>
	<text transform="matrix(1 0 0 1 570.0389 635.4572)" class="st13 st11 st44">Transitional Housing Assis</text>
	<text transform="matrix(1 0 0 1 738.239 635.4572)" class="st13 st11 st44">-</text>
	<text transform="matrix(1 0 0 1 570.0389 653.4572)" class="st13 st11 st44">tance for Victims of Domestic </text>
	<text transform="matrix(1 0 0 1 570.0389 671.4572)" class="st13 st11 st44">Violence, Dating Violence, </text>
	<text transform="matrix(1 0 0 1 570.0389 689.4572)" class="st13 st11 st44">Stalking, or Sexual Assault</text>
	<g>
		<circle class="st1" cx="328.6" cy="600.8" r="164.4"/>
	</g>
	<text transform="matrix(1 0 0 1 288.3233 602.1923)" class="st13 st8 st14">14%</text>
	<g>
		<g>
			<line class="st48" x1="333" y1="416.3" x2="333.5" y2="274.6"/>
			<g>
				<ellipse class="st49" cx="333" cy="416.1" rx="3.8" ry="3.8"/>
			</g>
		</g>
	</g>
	<g>
		<g>
			<line class="st48" x1="434" y1="451.3" x2="434" y2="364.6"/>
			<g>
				<circle class="st49" cx="434" cy="451.1" r="3.8"/>
			</g>
		</g>
	</g>
	<g>
		<g>
			<polyline class="st48" points="490.9,510.1 528,509.5 528,390.6 562,390.6 			"/>
			<g>
				<path class="st49" d="M491.1,513.9c-2.1,0-3.8-1.6-3.8-3.7c0-2.1,1.6-3.8,3.7-3.8c2.1,0,3.8,1.6,3.8,3.7
					C494.9,512.1,493.2,513.9,491.1,513.9z"/>
			</g>
		</g>
	</g>
	<g>
		<g>
			<polyline class="st48" points="512.9,566.5 547,566.5 547,511.6 562,511.6 			"/>
			<g>
				<path class="st49" d="M513.1,570.3c-2.1,0-3.8-1.7-3.8-3.8s1.7-3.8,3.8-3.8s3.8,1.7,3.8,3.8S515.2,570.3,513.1,570.3z"/>
			</g>
		</g>
	</g>
	<g>
		<g>
			<line class="st48" x1="513.9" y1="611.6" x2="562" y2="611.6"/>
			<g>
				<path class="st49" d="M514.1,615.3c-2.1,0-3.8-1.7-3.8-3.8s1.7-3.8,3.8-3.8s3.8,1.7,3.8,3.8S516.2,615.3,514.1,615.3z"/>
			</g>
		</g>
	</g>
	<g>
		<g>
			<line class="st48" x1="191.1" y1="725.6" x2="105" y2="787.5"/>
			<g>
				<path class="st49" d="M188.8,722.7c1.7-1.2,4-0.8,5.2,0.9s0.8,4-0.9,5.2c-1.7,1.2-4,0.8-5.2-0.9
					C186.7,726.2,187.1,723.9,188.8,722.7z"/>
			</g>
		</g>
	</g>
	<g>
		<text transform="matrix(1 0 0 1 295.7848 646.3336)" class="st13 st36 st15"> $27,353,886 </text>
	</g>
	<g>
		<rect x="265.2" y="615.4" class="st0" width="13" height="13"/>
	</g>
	<g>
		<text transform="matrix(1 0 0 1 285.7745 625.3203)" class="st13 st36 st15">Other Programs</text>
	</g>
	<g>
		<g>
			<g>
				<g>
					<g>
						<path class="st0" d="M59.3,168c23.4-24.9,52.5-37.6,86.7-37.7v118.5L59.3,168z"/>
						<g>
							<path class="st1" d="M145.5,130.9v116.9L60,168C83.1,143.6,111.9,131.1,145.5,130.9 M146.5,129.9c-34.5,0-64.3,13-87.9,38.2
								l87.9,82V129.9L146.5,129.9z"/>
						</g>
					</g>
				</g>
			</g>
			<g>
				<g>
					<path class="st4" d="M146.5,250V129.9c66.4,0,120.2,53.8,120.2,120.2s-53.8,120.2-120.2,120.2S26.3,316.5,26.3,250.1
						c0-31.9,10.6-58.7,32.3-82L146.5,250z"/>
				</g>
			</g>
		</g>
	</g>
	<g>
		<circle class="st1" cx="145.9" cy="247.8" r="91.9"/>
	</g>
	<g>
		<text transform="matrix(1 0 0 1 99.7832 277.274)" class="st13 st36 st15">Continuum of Care</text>
	</g>
	<line class="st50" x1="130.7" y1="622.9" x2="78.7" y2="184.5"/>
	<line class="st50" x1="145" y1="155.9" x2="455" y2="442.5"/>
	<text transform="matrix(1 0 0 1 109.0132 298.5276)" class="st13 st36 st15"> $174,008,976 </text>
	<text transform="matrix(1 0 0 1 102.332 252.1977)" class="st13 st8 st14">86%</text>
	<rect x="79.9" y="266.2" class="st4" width="13" height="13"/>
	<g>
		<g>
			<path class="st29" d="M479.4,1385.5l-3.1-1.4l-0.1-3.5l-1.7-4.1l2.4-2.9l-0.7-1.6l0.2-1.3l0.7-0.3l6.8,3.2l1.2,1.4l0.2,1.3
				l0.7,0.2l0.4,1l1.8,1.5l-3,2.6l-2.6,0.6l-2.2,1.6L479.4,1385.5z M471,1367.4l-0.8-2.2l-1.4-0.2l-1-1.7l0.6-1.1l1.1-0.1l1.3,1.3
				l1.9-0.4l2.9,1.9l0.1,1.2l-1.2,0.9L471,1367.4z M466.6,1362.5l-5-0.7l0.6-1.9l6.6,1L466.6,1362.5z M456.7,1360.1l-1.1-0.8
				l-0.4,0.1l-0.2,0.1h-1.6l-2-3.5l2-0.2l1.9-1.3l1.5,2.7l1.1,0.2l1.2,2.2L456.7,1360.1z M439.6,1353.4l-1.8-0.5l-2.1-1.6l0.9-1.4
				l1.6-1h2.6l0.7,1l-0.5,2.2L439.6,1353.4z"/>
		</g>
	</g>
</g>
<g id="Layer_2_1_">
</g>
</svg>
