<?xml version="1.0" encoding="utf-8"?>
<!-- Generator: Adobe Illustrator 22.1.0, SVG Export Plug-In . SVG Version: 6.00 Build 0)  -->
<svg version="1.1" id="Layer_1" xmlns="http://www.w3.org/2000/svg" xmlns:xlink="http://www.w3.org/1999/xlink" x="0px" y="0px"
	 viewBox="0 0 1258 1400" style="enable-background:new 0 0 1258 1400;" xml:space="preserve">
<style type="text/css">
	.st0{fill:#D5E8AA;}
	.st1{fill:#FFFFFF;}
	.st2{fill:#587C13;}
	.st3{fill:#E0E0E0;}
	.st4{fill:none;stroke:#D1D1D1;stroke-linecap:round;stroke-miterlimit:10;}
	.st5{fill:#212121;}
	.st6{font-family:'SourceSansPro-Semibold';}
	.st7{font-size:20px;}
	.st8{font-family:'SourceSansPro-Light';}
	.st9{font-size:16px;}
	.st10{font-size:22px;}
	.st11{font-family:'SourceSansPro-Regular';}
	.st12{font-size:36px;}
	.st13{fill:#3F3F3F;}
	.st14{font-size:56px;}
	.st15{fill:#26660C;}
	.st16{font-size:14px;}
	.st17{fill:#848484;}
	.st18{clip-path:url(#SVGID_2_);}
	.st19{fill:#B4B4D6;}
	.st20{fill:#80A52F;}
	.st21{fill:#BF56B8;}
	.st22{fill:none;}
	.st23{fill:#4D4D8C;stroke:#FFFFFF;stroke-width:1.2929;stroke-miterlimit:10;}
	.st24{font-size:24px;}
	.st25{fill:#353535;}
	.st26{font-size:50px;}
	.st27{font-size:12px;}
	.st28{fill:none;stroke:#636363;stroke-width:2;stroke-linecap:round;stroke-miterlimit:10;}
	.st29{fill:#636363;}
	.st30{fill:#B7B7B7;}
	.st31{opacity:0.6;fill:#587C13;enable-background:new    ;}
	.st32{fill:#D3D3D3;}
	.st33{fill:#AAAAAA;}
	.st34{opacity:0.1;}
	.st35{fill:#7C7C7C;}
	.st36{fill:#565656;}
	.st37{font-family:'SourceSansPro-Bold';}
	.st38{font-size:18px;}
	.st39{font-size:11px;}
	.st40{fill:#380A6D;}
	.st41{fill:#7A7A7A;}
	.st42{fill:none;stroke:#AAAAAA;stroke-width:0.7921;stroke-linecap:round;stroke-miterlimit:10;}
	.st43{fill:none;stroke:#AAAAAA;stroke-width:0.7921;stroke-linecap:round;stroke-miterlimit:10;stroke-dasharray:2.5279,2.5279;}
	.st44{fill:none;stroke:#AAAAAA;stroke-width:0.7921;stroke-linecap:round;stroke-miterlimit:10;stroke-dasharray:2.3764,2.3764;}
	.st45{font-size:15px;}
	.st46{font-size:34px;}
	.st47{fill:none;stroke:#FFFFFF;stroke-width:2.6418;stroke-miterlimit:10;}
	.st48{fill:none;stroke:#FFFFFF;stroke-width:2.6418;stroke-miterlimit:10;stroke-dasharray:5.2256,2.6128;}
	.st49{fill:none;stroke:#808080;stroke-miterlimit:10;}
	.st50{fill:#808080;}
	.st51{opacity:0.25;fill:none;stroke:#26660C;stroke-width:0.5;stroke-miterlimit:10;enable-background:new    ;}
</style>
<g id="Layer_2_1_">
	<g>
		<g>
			<g>
				<g>
					<g>
						<path class="st0" d="M71.1,155.1c22.2-18.5,48.1-27.9,77-28v119.8L71.1,155.1z"/>
						<path class="st1" d="M147.5,127.6v117.6l-75.6-90.1C93.7,137.1,119.2,127.9,147.5,127.6 M148.7,126.5
							c-29.6,0-55.7,9.5-78.4,28.5l78.4,93.5L148.7,126.5L148.7,126.5z"/>
					</g>
				</g>
			</g>
			<g>
				<g>
					<path class="st2" d="M148.7,248.5v-122c67.4,0,122,54.6,122,122s-54.6,122-122,122s-122-54.6-122-122
						c0-37.7,14.7-69.2,43.6-93.5L148.7,248.5z"/>
				</g>
			</g>
		</g>
	</g>
</g>
<g id="Layer_1_1_">
	<g>
		<g>
			<g>
				<g>
					<g>
						<path class="st0" d="M337.3,605.1l152.8,107c-2.9,4.1-6.7,9.1-9.9,12.9L337.3,605.1z"/>
						<path class="st1" d="M347.3,612.7l142.1,99.5c-2.7,3.8-6.2,8.4-9.2,12L347.3,612.7 M327.3,597.4l153,128.4
							c3.4-4.1,7.6-9.5,10.6-13.8L327.3,597.4L327.3,597.4z"/>
					</g>
				</g>
			</g>
			<g>
				<g>
					<g>
						<path class="st0" d="M329.7,598.4l193,37.5c-5.6,28.7-15.2,51.3-31.9,75.2L329.7,598.4z"/>
						<path class="st1" d="M332.1,599.5L522,636.4c-5.6,28.2-15.1,50.4-31.4,74L332.1,599.5 M327.3,597.4L490.9,712
							c17-24.3,26.8-47.3,32.4-76.4L327.3,597.4L327.3,597.4z"/>
					</g>
				</g>
			</g>
			<g>
				<g>
					<g>
						<path class="st0" d="M329.5,597.3l188.4-57.6c9.7,32,11.3,62.3,5,95.2L329.5,597.3z"/>
						<path class="st1" d="M517.5,540.4c9.5,31.6,11.1,61.4,4.9,93.8l-190.6-37.1L517.5,540.4 M518.3,539l-191,58.4l196,38.1
							C529.8,602.2,528.2,571.5,518.3,539L518.3,539z"/>
					</g>
				</g>
			</g>
			<g>
				<g>
					<g>
						<path class="st0" d="M427.3,425.2c45.3,26.3,74.8,63.4,90.2,113.5l-189.1,57.8L427.3,425.2z"/>
						<path class="st1" d="M427.5,425.9c22.1,12.9,40.9,28.9,55.6,47.5c14.8,18.6,26.1,40.4,33.7,64.9l-187.3,57.3L427.5,425.9
							 M427.1,424.4l-99.9,173l191-58.4C502.9,488.7,472.7,450.7,427.1,424.4L427.1,424.4z"/>
					</g>
				</g>
			</g>
			<g>
				<g>
					<g>
						<path class="st0" d="M237.3,419.7c29.1-14.7,59.4-22.2,90.2-22.2c34.2,0,67.4,9.1,98.8,27.2l-99.1,171.6L237.3,419.7z"/>
						<path class="st1" d="M327.6,396.9v1.1c33.9,0,66.9,9,98,26.8l-98.3,170.3L238,419.9c28.9-14.5,59-21.9,89.5-21.9L327.6,396.9
							 M327.6,396.9c-30.7,0-61.5,7.5-91,22.5l90.7,178l99.9-173C395.4,406.1,361.6,396.9,327.6,396.9L327.6,396.9z"/>
					</g>
				</g>
			</g>
			<g>
				<g>
					<g>
						<path class="st0" d="M327.2,796.6c-46.7,0-92.1-16.5-127.9-46.6c-84.1-70.6-95.1-196.5-24.5-280.6
							c18.4-21.9,36.3-36.2,61.7-49.2l90.3,177.5l152.7,128.1C441.6,770.8,386.1,796.6,327.2,796.6z"/>
						<path class="st1" d="M236.1,420.9l90.2,177l0.1,0.2l0.2,0.1l152.1,127.7c-37.8,44.6-93,70.1-151.5,70.1
							c-22.9,0-45.3-3.9-66.7-11.5c-22.2-7.9-42.6-19.7-60.8-34.9c-20.5-17.2-37.1-38-49.2-61.7c-11.7-22.9-18.8-47.5-21-73.2
							s0.4-51.2,8-75.7c7.8-25.4,20.5-48.7,37.7-69.3C193.3,448,211.1,433.8,236.1,420.9 M236.6,419.4
							c-25.8,13.2-43.7,27.4-62.3,49.6c-70.9,84.5-59.9,210.5,24.6,281.4c37.4,31.4,83,46.7,128.3,46.7c57,0,113.6-24.3,153.1-71.3
							l-153-128.4L236.6,419.4L236.6,419.4z"/>
					</g>
				</g>
			</g>
		</g>
	</g>
	<g>
		<rect x="834" y="408.8" class="st3" width="396" height="13"/>
	</g>
	<g>
		<rect x="834" y="189.5" class="st3" width="396" height="13"/>
	</g>
	<line class="st4" x1="834" y1="432.5" x2="834" y2="397.5"/>
	<line class="st4" x1="933" y1="432.3" x2="933" y2="397.3"/>
	<line class="st4" x1="1032" y1="432.5" x2="1032" y2="397.5"/>
	<line class="st4" x1="1131" y1="432.5" x2="1131" y2="397.5"/>
	<line class="st4" x1="1230" y1="432.5" x2="1230" y2="397.5"/>
	<g>
		<path class="st0" d="M1187,426.8H950c-2.8,0-5-2.2-5-5v-13c0-2.8,2.2-5,5-5h237c2.8,0,5,2.2,5,5v13
			C1192,424.5,1189.8,426.8,1187,426.8z"/>
	</g>
	<path class="st2" d="M1130.6,428.8h-110.7c-2.7,0-4.9-2.2-4.9-4.9v-17.2c0-2.7,2.2-4.9,4.9-4.9h110.7c2.7,0,4.9,2.2,4.9,4.9v17.2
		C1135.5,426.6,1133.3,428.8,1130.6,428.8z"/>
	<g>
		<rect x="834" y="637.8" class="st3" width="396" height="13"/>
	</g>
	<line class="st4" x1="834" y1="661.5" x2="834" y2="626.5"/>
	<line class="st4" x1="933" y1="661.3" x2="933" y2="626.3"/>
	<line class="st4" x1="1032" y1="661.5" x2="1032" y2="626.5"/>
	<line class="st4" x1="1131" y1="661.5" x2="1131" y2="626.5"/>
	<line class="st4" x1="1230" y1="661.5" x2="1230" y2="626.5"/>
	<g>
		<path class="st0" d="M1223,655.8H943c-2.8,0-5-2.2-5-5v-13c0-2.8,2.2-5,5-5h280c2.8,0,5,2.2,5,5v13
			C1228,653.6,1225.8,655.8,1223,655.8z"/>
	</g>
	<path class="st2" d="M1035.1,657.8h-88.3c-2.3,0-4.1-1.9-4.1-4.1v-18.8c0-2.3,1.9-4.1,4.1-4.1h88.3c2.3,0,4.1,1.9,4.1,4.1v18.8
		C1039.2,655.9,1037.4,657.8,1035.1,657.8z"/>
	<g>
		<rect x="834" y="1084.8" class="st3" width="396" height="13"/>
	</g>
	<line class="st4" x1="834" y1="1108.5" x2="834" y2="1073.5"/>
	<line class="st4" x1="1032" y1="1108.5" x2="1032" y2="1073.5"/>
	<line class="st4" x1="1230" y1="1108.5" x2="1230" y2="1073.5"/>
	<g>
		<rect x="834" y="854.8" class="st3" width="396" height="13"/>
	</g>
	<line class="st4" x1="834" y1="868.5" x2="834" y2="833.5"/>
	<line class="st4" x1="933" y1="878.3" x2="933" y2="843.3"/>
	<line class="st4" x1="1032" y1="878.5" x2="1032" y2="843.5"/>
	<line class="st4" x1="1131" y1="878.5" x2="1131" y2="843.5"/>
	<line class="st4" x1="1230" y1="878.5" x2="1230" y2="843.5"/>
	<g>
		<path class="st0" d="M1195,872.8H843c-2.8,0-5-2.2-5-5v-13c0-2.8,2.2-5,5-5h352c2.8,0,5,2.2,5,5v13
			C1200,870.6,1197.8,872.8,1195,872.8z"/>
	</g>
	<path class="st2" d="M842.9,874.8h-0.7c-2.2,0-4-1.8-4-4v-19c0-2.2,1.8-4,4-4h0.7c2.2,0,4,1.8,4,4v19
		C846.9,873,845.1,874.8,842.9,874.8z"/>
	<rect x="446" y="1063.8" class="st2" width="250" height="34"/>
	<g>
		<text transform="matrix(1 0 0 1 431.0156 1180.4613)" class="st5 st6 st7">Total Population </text>
		<text transform="matrix(1 0 0 1 431.0156 1200.4613)" class="st5 st8 st9">Total population in this cluster</text>
	</g>
	<text transform="matrix(1 0 0 1 12.0156 923.4615)" class="st5 st6 st10">Number of People Experiencing </text>
	<text transform="matrix(1 0 0 1 12.0156 945.4615)" class="st5 st6 st10">Homelessness</text>
	<text transform="matrix(1 0 0 1 12.0156 965.4615)" class="st5 st8 st9">People experiencing homelssness on a single night </text>
	<text transform="matrix(1 0 0 1 12.0156 985.4615)" class="st5 st8 st9">in Janurary in this cluster</text>
	<text transform="matrix(1 0 0 1 11.0156 36.4615)" class="st2 st11 st12">Facts about Cluster 7</text>
	<text transform="matrix(1 0 0 1 829.0156 326.4694)" class="st5 st6 st10">Rent</text>
	<text transform="matrix(1 0 0 1 829.0156 346.4694)" class="st5 st8 st9">Range of median gross rents for areas within this cluster</text>
	<text transform="matrix(1 0 0 1 838.0156 1220.4613)" class="st5 st6 st7">Beds Available</text>
	<text transform="matrix(1 0 0 1 838.0156 1240.4613)" class="st5 st8 st9">Total sheltered and permanent beds available within this cluster</text>
	<g>
		<g>
			<path class="st2" d="M245.8,1161.2c0,15.5-12.5,28-28,28s-28-12.5-28-28s12.5-28,28-28S245.8,1145.7,245.8,1161.2z"/>
			<path class="st2" d="M245.9,1191.3h-18.6h-19h-18.6c-7.6,0-13.9,6.4-14,14.3c7.6,4.1,12.7,12.2,12.7,21.5c0,0,0.9,59.2,1.3,59.2
				v63.9c0,8,6.3,14.5,14,14.5s14-6.5,14-14.5c0,8,6.3,14.5,14,14.5s14-6.5,14-14.5v-63.9c7.7,0,14-6.5,14-14.5v-65.9
				C260,1197.8,253.7,1191.3,245.9,1191.3z"/>
		</g>
		<g>
			<ellipse class="st2" cx="59.1" cy="1161.1" rx="28" ry="28"/>
			<path class="st2" d="M87.1,1227.1c0-11,4.1-20.3,13.9-23.3c-0.9-7.1-6.8-12.6-13.9-12.6H68.5h-19H31c-7.7,0-14,6.5-14,14.5v65.9
				c0,8,6.3,14.5,14,14.5v63.9c0,8,6.3,14.5,14,14.5s14-6.5,14-14.5c0,8,6.3,14.5,14,14.5s14-6.5,14-14.5v-26.6v-96.3H87.1z"/>
		</g>
		<path class="st2" d="M172.4,1143.9h-23.9h-24.4h-23.9c-9.9,0-18,8.4-18,18.7v84.6c0,10.3,8.1,18.7,18,18.7v82.1
			c0,10.3,8.1,18.7,18,18.7s18-8.4,18-18.7c0,10.3,8.1,18.7,18,18.7s18-8.4,18-18.7v-82.1c9.9,0,18-8.4,18-18.7v-84.6
			C190.4,1152.3,182.3,1143.9,172.4,1143.9z"/>
		<path class="st2" d="M172.2,1105.7c0,19.8-16.1,35.9-35.9,35.9s-35.9-16.1-35.9-35.9s16.1-35.9,35.9-35.9
			C156.1,1069.8,172.2,1085.9,172.2,1105.7z"/>
	</g>
	<text transform="matrix(1 0 0 1 273.9751 1221.2147)" class="st13 st11 st9">70% are</text>
	<text transform="matrix(1 0 0 1 273.9751 1239.2147)" class="st13 st11 st9">individuals</text>
	<text transform="matrix(1 0 0 1 273.9751 1154.7113)" class="st13 st11 st9">30% are</text>
	<text transform="matrix(1 0 0 1 273.9751 1172.7113)" class="st13 st11 st9">in families</text>
	<g>
		<text transform="matrix(1 0 0 1 13.8844 1046.4613)" class="st13 st8 st14">45,838 people </text>
	</g>
	<text transform="matrix(1 0 0 1 829.0156 547.4727)" class="st5 st6 st10">Rent as Percent of Income</text>
	<text transform="matrix(1 0 0 1 829.0156 567.4727)" class="st5 st8 st9">Range of 20th percentile incomes to annualized rents for areas  </text>
	<text transform="matrix(1 0 0 1 829.0156 587.4727)" class="st5 st8 st9">within this cluster</text>
	<text transform="matrix(1 0 0 1 829.0156 108.4695)" class="st5 st6 st10">Income</text>
	<text transform="matrix(1 0 0 1 829.0156 128.4695)" class="st5 st8 st9">Range of 20th percentile incomes for areas within this cluster</text>
	<text transform="matrix(1 0 0 1 912.7693 250.1364)" class="st15 st6 st16">CLUSTER MEDIAN: $16,870</text>
	<text transform="matrix(1 0 0 1 921.8657 172.1365)" class="st17 st11 st16">$10K</text>
	<text transform="matrix(1 0 0 1 969.1157 172.1365)" class="st17 st11 st16">$15K</text>
	<text transform="matrix(1 0 0 1 877.8149 172.1365)" class="st17 st11 st16">$5K</text>
	<text transform="matrix(1 0 0 1 830.5649 172.1365)" class="st17 st11 st16">$0K</text>
	<text transform="matrix(1 0 0 1 1110.8657 172.1365)" class="st17 st11 st16">$30K</text>
	<text transform="matrix(1 0 0 1 1158.1157 172.1365)" class="st17 st11 st16">$35K</text>
	<text transform="matrix(1 0 0 1 1016.3657 172.1365)" class="st17 st11 st16">$20K</text>
	<text transform="matrix(1 0 0 1 1063.6157 172.1365)" class="st17 st11 st16">$25K</text>
	<text transform="matrix(1 0 0 1 1205.3657 172.1365)" class="st17 st11 st16">$40K</text>
	<line class="st4" x1="834" y1="213.5" x2="834" y2="178.5"/>
	<line class="st4" x1="933" y1="213.3" x2="933" y2="178.3"/>
	<line class="st4" x1="883.5" y1="213.3" x2="883.5" y2="178.3"/>
	<line class="st4" x1="982.5" y1="213.3" x2="982.5" y2="178.3"/>
	<line class="st4" x1="1081.5" y1="213.3" x2="1081.5" y2="178.3"/>
	<line class="st4" x1="1180.5" y1="213.3" x2="1180.5" y2="178.3"/>
	<line class="st4" x1="1032" y1="213.5" x2="1032" y2="178.5"/>
	<line class="st4" x1="1131" y1="213.5" x2="1131" y2="178.5"/>
	<line class="st4" x1="1230" y1="213.5" x2="1230" y2="178.5"/>
	<g>
		<g>
			<defs>
				<polygon id="SVGID_1_" points="267.9,1380.5 9,1380.5 10.4,1191.8 269.3,1191.8 				"/>
			</defs>
			<clipPath id="SVGID_2_">
				<use xlink:href="#SVGID_1_"  style="overflow:visible;"/>
			</clipPath>
			<g class="st18">
				<g>
					<g>
						<path class="st19" d="M245.8,1161.5c0,15.5-12.5,28-28,28s-28-12.5-28-28s12.5-28,28-28S245.8,1146,245.8,1161.5z"/>
					</g>
					<path class="st20" d="M245.9,1191.1h-18.6h-19h-18.6c-7.6,0-13.9,6.4-14,14.3c7.6,4.1,12.7,12.2,12.7,21.5
						c0,0,0.9,59.2,1.3,59.2v63.9c0,8,6.3,14.5,14,14.5s14-6.5,14-14.5c0,8,6.3,14.5,14,14.5s14-6.5,14-14.5v-63.9
						c7.7,0,14-6.5,14-14.5v-65.9C260,1197.7,253.7,1191.1,245.9,1191.1z"/>
				</g>
				<g>
					<g>
						<ellipse class="st19" cx="59.1" cy="1161.4" rx="28" ry="28"/>
					</g>
					<path class="st20" d="M87.1,1226.9c0-11,4.1-20.3,13.9-23.3c-0.9-7.1-6.8-12.6-13.9-12.6H68.5h-19H31c-7.7,0-14,6.5-14,14.5
						v65.9c0,8,6.3,14.5,14,14.5v63.9c0,8,6.3,14.5,14,14.5s14-6.5,14-14.5c0,8,6.3,14.5,14,14.5s14-6.5,14-14.5v-26.6v-96.3H87.1z"
						/>
				</g>
				<path class="st20" d="M172.4,1144.3h-23.9h-24.4h-23.9c-9.9,0-18,8.4-18,18.7v84.6c0,10.3,8.1,18.7,18,18.7v82.1
					c0,10.3,8.1,18.7,18,18.7s18-8.4,18-18.7c0,10.3,8.1,18.7,18,18.7s18-8.4,18-18.7v-82.1c9.9,0,18-8.4,18-18.7V1163
					C190.4,1152.7,182.3,1144.3,172.4,1144.3z"/>
				<g>
					<path class="st21" d="M172.2,1106c0,19.8-16.1,35.9-35.9,35.9s-35.9-16.1-35.9-35.9s16.1-35.9,35.9-35.9
						C156.1,1070.1,172.2,1086.2,172.2,1106z"/>
				</g>
			</g>
		</g>
	</g>
	<g>
		<polygon class="st22" points="533,136.5 14,136.5 13,85.5 532,85.5 		"/>
		<text transform="matrix(1 0 0 1 13.3198 100.9937)" class="st5 st6 st10">Federal Spending on Homelessness</text>
	</g>
	<g>
		<path class="st23" d="M961.9,1339.9c0,3.6,0,7,0,10.5c0,2.3,1.2,3.3,3.4,3.3c2.9,0,5.8,0,8.7,0c2.7,0,3.7-1,3.7-3.8
			c0-7,0-13.9,0-20.9c0-4.9-0.2-5.1-5-5.1c-37.7,0-75.5,0-113.2,0c-1.1,0-2.2,0-3.5,0c0-1.4,0-2.4,0-3.4c0-14,0-28,0-42.1
			c0-2.7-0.5-5.1-2.6-7c-2.6-2.3-5.6-2.6-8.6-1.4c-3.2,1.3-4.7,4.1-4.7,7.5c0,9.9,0,19.7,0,29.6c0,14.1,0,28.2,0,42.3
			c0,3.2,0.9,4.1,4.1,4.1c2.4,0,4.8,0,7.2,0c3.7,0,4.5-0.8,4.6-4.5c0-3.1,0-6.2,0-9.4C891.4,1339.9,926.4,1339.9,961.9,1339.9z
			 M898.9,1319.7c1,0.1,1.5,0.2,2.1,0.2c21.8,0,43.6,0,65.4,0c1.9,0,2.5-0.8,2.6-2.4c0.1-3.4,0.4-6.8,0.1-10.2
			c-0.8-11-9.1-18.9-20.1-19c-16-0.2-32,0-48-0.1c-1.7,0-2.1,0.6-2.1,2.2c0.1,5.4,0,10.8,0,16.2
			C898.9,1310.9,898.9,1315.2,898.9,1319.7z M884.8,1310.4c-1.2,0-2.1,0-3,0c-5.6,0-11.3,0-16.9,0c-2.8,0-4.7,1.9-4.8,4.7
			c-0.1,2.8,1.8,5.1,4.6,5.1c8.4,0.1,16.7,0.1,25.1,0c2.7,0,4.7-2.1,4.8-4.8c0.1-7.5,0.1-14.9,0-22.4c0-2.7-2.4-4.9-5-4.8
			c-2.5,0.1-4.7,2.1-4.8,4.8c-0.1,4.8,0,9.6-0.1,14.4C884.8,1308.4,884.8,1309.2,884.8,1310.4z M870.6,1305.7
			c6.7,0,12-5.1,11.9-11.6c0-6.4-5.3-11.7-11.7-11.7c-6.6,0-11.9,5.2-11.9,11.7C859,1300.5,864.1,1305.7,870.6,1305.7z"/>
		<path class="st2" d="M961.9,1339.9c-35.4,0-70.5,0-105.9,0c0,3.1,0,6.3,0,9.4c0,3.7-0.8,4.5-4.6,4.5c-2.4,0-4.8,0-7.2,0
			c-3.2,0-4.1-0.9-4.1-4.1c0-14.1,0-28.2,0-42.3c0-9.9,0-19.7,0-29.6c0-3.5,1.5-6.2,4.7-7.5c3-1.2,6-0.9,8.6,1.4
			c2.1,1.9,2.6,4.3,2.6,7c0,14,0,28,0,42.1c0,1,0,2,0,3.4c1.3,0,2.4,0,3.5,0c37.7,0,75.5,0,113.2,0c4.8,0,5,0.2,5,5.1
			c0,7,0,13.9,0,20.9c0,2.8-1,3.7-3.7,3.8c-2.9,0-5.8,0-8.7,0c-2.2,0-3.4-1-3.4-3.3C961.9,1347,961.9,1343.5,961.9,1339.9z"/>
		<path class="st2" d="M898.9,1319.7c0-4.5,0-8.8,0-13.1c0-5.4,0-10.8,0-16.2c0-1.6,0.4-2.2,2.1-2.2c16,0.1,32-0.1,48,0.1
			c11,0.1,19.3,8,20.1,19c0.3,3.4,0,6.8-0.1,10.2c0,1.6-0.7,2.5-2.6,2.4c-21.8-0.1-43.6,0-65.4,0
			C900.4,1319.9,899.8,1319.8,898.9,1319.7z"/>
		<path class="st2" d="M884.8,1310.4c0-1.2,0-2.1,0-3c0-4.8,0-9.6,0.1-14.4c0.1-2.6,2.3-4.7,4.8-4.8c2.6-0.1,5,2.1,5,4.8
			c0.1,7.5,0.1,14.9,0,22.4c0,2.7-2.1,4.7-4.8,4.8c-8.4,0.1-16.7,0.1-25.1,0c-2.8,0-4.7-2.3-4.6-5.1c0.1-2.7,1.9-4.6,4.8-4.7
			c5.6-0.1,11.3,0,16.9,0C882.8,1310.4,883.7,1310.4,884.8,1310.4z"/>
		<path class="st2" d="M870.6,1305.7c-6.5,0-11.7-5.2-11.6-11.6c0-6.5,5.3-11.7,11.9-11.7c6.4,0,11.7,5.3,11.7,11.7
			C882.6,1300.6,877.3,1305.7,870.6,1305.7z"/>
	</g>
	<g>
		<text transform="matrix(1 0 0 1 555.0063 1089.4614)" class="st1 st6 st24">544</text>
	</g>
	<g>
		<text transform="matrix(1 0 0 1 431.0156 924.4615)" class="st5 st6 st10">Population Density</text>
		<text transform="matrix(1 0 0 1 431.0156 944.4615)" class="st5 st8 st9">Number of people per square mile in this cluster</text>
	</g>
	<text transform="matrix(1 0 0 1 996.6825 1349.5199)" class="st25 st8 st26">29,971 beds</text>
	<text transform="matrix(1 0 0 1 829.0156 772.4894)" class="st5 st6 st10">Land Area</text>
	<text transform="matrix(1 0 0 1 829.0156 792.4894)" class="st5 st8 st9">Range of land area in square miles for areas within this cluster</text>
	<text transform="matrix(1 0 0 1 836.4032 918.1548)" class="st15 st6 st16">CLUSTER MEDIAN: 704</text>
	<text transform="matrix(1 0 0 1 831.5366 825.1481)" class="st17 st11 st16">0</text>
	<text transform="matrix(1 0 0 1 1204.3657 835.1559)" class="st17 st11 st16">600K</text>
	<text transform="matrix(1 0 0 1 1023.3657 835.1559)" class="st17 st11 st16">300K</text>
	<text transform="matrix(1 0 0 1 1118.3657 835.1559)" class="st17 st11 st16">450K</text>
	<text transform="matrix(1 0 0 1 918.3657 835.1559)" class="st17 st11 st16">150K</text>
	<text transform="matrix(1 0 0 1 933.7954 698.1396)" class="st15 st6 st16">CLUSTER MEDIAN: 81%</text>
	<text transform="matrix(1 0 0 1 831.0488 620.1396)" class="st17 st11 st16">0%</text>
	<text transform="matrix(1 0 0 1 924.8496 620.1396)" class="st17 st11 st16">50%</text>
	<text transform="matrix(1 0 0 1 1119.6509 620.1396)" class="st17 st11 st16">150%</text>
	<text transform="matrix(1 0 0 1 1016.6509 620.1396)" class="st17 st11 st16">100%</text>
	<text transform="matrix(1 0 0 1 1205.6509 620.1396)" class="st17 st11 st16">200%</text>
	<text transform="matrix(1 0 0 1 968.7571 470.1364)" class="st15 st6 st16">CLUSTER MEDIAN: $1,140</text>
	<text transform="matrix(1 0 0 1 1013.2778 391.1364)" class="st17 st11 st16">$1,000</text>
	<text transform="matrix(1 0 0 1 830.338 391.1364)" class="st17 st11 st16">$0</text>
	<text transform="matrix(1 0 0 1 1199.2778 391.1364)" class="st17 st11 st16">$2,000</text>
	<text transform="matrix(1 0 0 1 829.0156 996.4915)" class="st5 st6 st10">Property Crime Rate</text>
	<text transform="matrix(1 0 0 1 829.0156 1016.4915)" class="st5 st8 st9">Range of property crime incidents per 100K people for areas  </text>
	<text transform="matrix(1 0 0 1 829.0156 1036.4915)" class="st5 st8 st9">within this cluster</text>
	<text transform="matrix(1 0 0 1 844.6606 1148.1566)" class="st15 st6 st16">CLUSTER MEDIAN: 2,219</text>
	<text transform="matrix(1 0 0 1 830.5327 1067.1583)" class="st17 st11 st16">0</text>
	<text transform="matrix(1 0 0 1 1218.5737 1067.1583)" class="st17 st11 st16">10K</text>
	<text transform="matrix(1 0 0 1 1024.9304 1067.6583)" class="st17 st11 st16">5K</text>
	<line class="st4" x1="873.6" y1="1108.5" x2="873.6" y2="1073.5"/>
	<text transform="matrix(1 0 0 1 867.428 1067.6583)" class="st17 st11 st16">1K</text>
	<line class="st4" x1="913.2" y1="1108.5" x2="913.2" y2="1073.5"/>
	<text transform="matrix(1 0 0 1 906.4256 1067.6583)" class="st17 st11 st16">2K</text>
	<line class="st4" x1="952.8" y1="1108.5" x2="952.8" y2="1073.5"/>
	<text transform="matrix(1 0 0 1 946.4209 1067.6583)" class="st17 st11 st16">3K</text>
	<line class="st4" x1="992.4" y1="1108.5" x2="992.4" y2="1073.5"/>
	<text transform="matrix(1 0 0 1 985.4241 1067.6583)" class="st17 st11 st16">4K</text>
	<line class="st4" x1="1071.6" y1="1108.5" x2="1071.6" y2="1073.5"/>
	<text transform="matrix(1 0 0 1 1064.4304 1067.6583)" class="st17 st11 st16">6K</text>
	<line class="st4" x1="1111.2" y1="1108.5" x2="1111.2" y2="1073.5"/>
	<text transform="matrix(1 0 0 1 1103.9241 1067.6583)" class="st17 st11 st16">7K</text>
	<line class="st4" x1="1150.8" y1="1108.5" x2="1150.8" y2="1073.5"/>
	<text transform="matrix(1 0 0 1 1142.9216 1067.6583)" class="st17 st11 st16">8K</text>
	<line class="st4" x1="1190.4" y1="1108.5" x2="1190.4" y2="1073.5"/>
	<text transform="matrix(1 0 0 1 1183.4343 1067.6583)" class="st17 st11 st16">9K</text>
	<text transform="matrix(1 0 0 1 1209.0156 898.817)" class="st11 st27"> </text>
	<g>
		<g>
			<line class="st28" x1="1000.8" y1="682" x2="1000.8" y2="664.5"/>
			<g>
				<path class="st29" d="M1000.8,664.9c-1,1-3.1,1.5-4.5,1.6c1.9-1.4,3.6-3.3,4.5-5.5c0.9,2.3,2.7,4,4.5,5.5
					C1003.8,666.4,1002,666,1000.8,664.9z"/>
			</g>
		</g>
	</g>
	<g>
		<g>
			<line class="st28" x1="842" y1="902.8" x2="842" y2="881.4"/>
			<g>
				<path class="st29" d="M842,881.8c-1,1-3.1,1.5-4.5,1.6c1.9-1.4,3.6-3.3,4.5-5.5c0.9,2.3,2.7,4,4.5,5.5
					C845,883.2,843.1,882.9,842,881.8z"/>
			</g>
		</g>
	</g>
	<g>
		<g>
			<line class="st28" x1="918" y1="1132.8" x2="918" y2="1111.4"/>
			<g>
				<path class="st29" d="M918,1111.8c-1,1-3.1,1.5-4.5,1.6c1.9-1.4,3.6-3.3,4.5-5.5c0.9,2.3,2.7,4,4.5,5.5
					C921,1113.2,919.1,1112.9,918,1111.8z"/>
			</g>
		</g>
	</g>
	<g>
		<g>
			<line class="st28" x1="989.4" y1="234.8" x2="989.4" y2="217.4"/>
			<g>
				<path class="st29" d="M989.4,217.8c-1,1-3.1,1.5-4.5,1.6c1.9-1.4,3.6-3.3,4.5-5.5c0.9,2.3,2.7,4,4.5,5.5
					C992.4,219.2,990.6,218.8,989.4,217.8z"/>
			</g>
		</g>
	</g>
	<g>
		<g>
			<line class="st28" x1="1040.7" y1="453.8" x2="1040.7" y2="436.4"/>
			<g>
				<path class="st29" d="M1040.7,436.8c-1,1-3.1,1.5-4.5,1.6c1.9-1.4,3.6-3.3,4.5-5.5c0.9,2.3,2.7,4,4.5,5.5
					C1043.7,438.2,1041.8,437.8,1040.7,436.8z"/>
			</g>
		</g>
	</g>
	<g>
		<g>
			<path class="st30" d="M723,1253.5v-0.3c0,0-0.1,0.1-0.1,0.2c0-0.2-0.1-0.3-0.2-0.4c-0.2,0.4-0.7-0.2-0.3-0.4c0.1,0,0.1,0,0.2-0.1
				l0,0v-0.1h-0.1l-0.1-0.2v-0.1h-0.1l-0.1-0.2v-0.1l0,0l-0.1-0.2l0,0H722h-0.1v0.1l-0.2,0.1h-0.3l-0.2-0.1l-0.1-0.1l-0.1-0.1
				l-0.1-0.2l-0.1-0.2l0,0l-0.1-0.1v-0.1l-0.1-0.1l-0.1-0.2v-0.2l0.1-0.2h0.1v-0.1l0.1-0.2l-0.2-0.1l-0.1-0.2v-0.5l0.1-0.2l0.1-0.1
				h-0.4l-0.2-0.1l-0.1-0.1h-0.2l-0.2-0.1v-0.1h-0.1v-0.1h-0.1l-0.2-0.1l-0.2-0.2l-0.1-0.1h-0.1l-0.1-0.2l0.1-0.2l-0.1-0.2v-0.2
				l0.1-0.2h0.1v-0.1v-0.3v-0.1v-0.1v-7.8c-0.1,0-0.1-0.1-0.1-0.1h-0.1l-0.2-0.1v-0.1l-0.1-0.1l-0.1-0.1h-0.1l-0.1-0.2v-0.1H718
				l-0.1-0.1l-0.1-0.1v-0.1h-0.1l-0.2-0.1l-0.1-0.1l-0.1-0.1v-0.1h-0.1l-0.2-0.1l-0.1-0.1h-0.1v-0.1h-0.1l-0.2-0.1v-0.1h-0.1v0.2
				l-0.1,0.2l-0.2,0.1h-0.5h-0.1h-0.1h-0.2l-0.1,0.1H715l-0.1,0.1l-0.2,0.1h-0.5l-0.1,0.1l-0.2,0.1h-0.1v0.1l-0.2,0.1h-0.3l-0.2-0.1
				v-0.1H713l-0.2-0.1l-0.1-0.1h0.3l-0.2-0.1l-0.1-0.2l0,0l-0.1-0.1v-0.1l-0.1-0.1v-0.6h-0.1l-0.1-0.1l-0.2-0.1l-0.2,0.2l-0.2,0.3
				l0,0l-0.3,0.5v0.1l-0.3,0.3l0,0l-0.3,0.3l-0.3,0.3l-0.3,0.5l0,0l-0.3,0.3l-0.3,0.5l-0.3,0.5l-0.3,0.5l-0.1,0.1l-0.3,0.3l-0.3,0.3
				l-0.3,1.8v0.1l-0.1,0.2l-0.2,0.1h-0.1v0.1h-0.1v0.1h-0.1v0.1l-0.1,0.3l-0.2,0.1l0,0v0.2l-0.1,0.2l0.1,0.1c0.1,0,0.1,0.1,0.2,0.2
				c0,0.1,0,0.3-0.1,0.4l-0.1,0.1l0,0l-0.1,0.2h-0.1v0.1l-0.1,0.2l0.2,0.1l0.1,0.2v0.5l-0.1,0.2l-0.1,0.1v0.1h-0.1l-0.1,0.2
				l-0.2,0.1l0,0l-0.1,0.1l0,0l0,0c0.1,0.1,0.1,0.2,0.1,0.4c0,0.1-0.1,0.1-0.2,0.2v0.1h-0.1l-0.1,0.1l-0.2,0.1h-0.1l-0.1,0.1
				l-0.2,0.1h-0.1v0.1h-0.1v0.1l-0.2,0.1l0,0l0,0l-0.1,0.2h-0.1c0,0.1,0,0.1-0.1,0.2l0,0h0.1v0.1h0.1l0.1,0.2h0.1l0.1,0.2v0.2
				l-0.1,0.2l-0.2,0.1h-0.4l-0.2-0.1l0,0v0.1v0.2l-0.1,0.2l-0.1,0.2l0,0v0.1l-0.1,0.2l-0.2,0.1h-0.2l-0.2-0.1l-0.1-0.2v-0.1h-0.1
				v-0.2h-0.1v0.1l-0.2,0.1l0,0l0,0l-0.1,0.2l-0.2,0.1h-0.3l-0.2-0.1l-0.1-0.1l0,0l-0.2-0.1v-0.1l-0.1,0.1l-0.1,0.1v0.1h-0.1v0.3
				l-0.1,0.2h-0.1v0.1l-0.1,0.2h-0.1l-0.1,0.1l-0.1,0.1v0.2c0,0.2-0.1,0.3-0.3,0.3h-1.2l-0.2,0.1h-0.1h-3.7l-0.2-0.1l-0.1-0.1h-3.5
				l-0.4,0.1h-0.1h-6.9h-0.1l0,0h-0.1v0.1l-0.2,0.1h-0.3v0.1l-0.2,0.1l0,0l-0.1,0.1l-0.2,0.1h-0.2v0.1l-0.1,0.1l-0.1,0.1l-0.2,0.1
				h-0.2l-0.1,0.1l-0.1,0.1v0.1l-0.2,0.2c-0.1,0.1-0.1,0.1-0.1,0.1l-0.1,0.1l-0.2,0.1h-0.1c0,0.1-0.1,0.1-0.1,0.1l-0.2,0.1l-0.1,0.1
				l-0.5,0.5l-0.1,0.1l-0.3,0.2v0.1l0,0l-0.1,0.2l-0.2,0.1h-0.1l0,0l-0.1,0.3l-0.1,0.1l-0.1,0.2l-0.1,0.3l-0.1,0.2l-0.3,0.1
				l-0.1,0.1l-0.2,0.1h-0.2l-0.1,0.2c-0.1,0.1-0.1,0.2-0.2,0.2h-0.2v0.2l-0.1,0.2l-0.2,0.1H677l-0.1,0.1l-0.2,0.1l-0.1,0.2l-0.1,0.1
				l-0.3,0.3l-0.6,0.8l-0.6,1.2l0,0l-0.6,1.1l-0.3,0.1h-9.4l-1.2,0.5l-1,0.5l0.4,0.9l0.1,0.1l0.1,0.2v0.9l0,0l0,0l0,0
				c0.1,0.1,0.1,0.1,0.1,0.2c0.2,0,0.3,0.1,0.3,0.2s0,0.2,0,0.4l0.1,0.1l0.1,0.2v0.3v0.1l-0.1,0.3c0.1,0.2,0.1,0.4-0.1,0.6
				c-1.4,1.1-2.8,2.2-4.2,3.3c-2.4,1.9-5.6,2.1-8.1,3.8c-0.4,0.3-0.7,0.7-1.1,1c-0.9,0.7-1.9,0.6-3,0.8c-0.4,0.1-0.9,0.3-1.3,0.4
				c-0.9,0.1-2.2-0.1-3-0.4c0.4-0.3,0.9-0.2,1.3-0.4c0.4-0.2,0.5-0.2-0.2-0.4c-1.1-0.4-2.2-0.8-3.3-1.2c0.5-0.9,0.9-1.8,1.4-2.6l0,0
				v-0.7l0.1-0.2l0.1-0.1v-0.2l0.1-0.2l0.2-0.1l0,0l0.1-0.1l0.2-0.1h0.1c0.3-0.5,0.5-1,0.8-1.4c0.4-0.8,0.8-0.8,1,0h0.1
				c0.2-0.5,0.3-0.9,0.5-1.4v-0.8l0.1-0.2l0.1-0.1v-0.1l0.1-0.2l0.1-0.1v-0.1v-0.1v-0.1c0-0.1-0.1-0.3-0.2-0.6
				c0-0.3-0.1-0.6-0.2-0.8c-0.1-0.6-0.1-1.1-0.3-1.7c-0.2-1-0.2-2.5-0.9-3.3c-1-1.1-2.1,0-3.1,0.7c-0.5,0.3-2.3,1.8-2.7,1.3
				c-0.2-0.2-0.1-0.7,0-0.9c0-0.2,0.1-0.6,0.2-0.8c0.4-0.6,1.1-0.3,1.5-0.8c0.2-0.3,0.1-0.7,0.2-1c0.2-0.5,0.7-0.4,1-0.8
				c0.3-0.5,0.3-2.4,0.2-3c-0.1-0.8-1.6-2.5,0.1-1.9c0-0.6-0.3-0.6-0.5-1.1c-0.1-0.3-0.1-0.6-0.2-0.7c-0.2-0.4-1.2-0.7-1.6-0.9
				c-0.6-0.2-1.2-0.3-1.7-0.6c-0.5-0.2-0.6-1-1.3-1.1c-0.4-0.1-0.7,0-1.1-0.1c-0.3-0.2-0.5-0.5-0.9-0.6c-0.3-0.1-1.2-0.3-1.4,0
				c-0.4,0.4-0.6,2.5,0.3,2.5c-0.6,0.5-1.4,0.1-2,0.7c-0.5,0.5-0.3,1.3-0.4,2.1c-0.1,0.8-0.3,0-0.6,0.2c-0.2,0.1-0.4,1.1-0.5,1.3
				c-0.3-0.4,0-0.9,0.1-1.3c-0.1,0-0.1,0-0.1,0c0-0.3,0.4-1.5,0-1.4c-0.1,0-0.5,0.7-0.6,0.9c-0.1,0.2-0.2,0.6-0.4,0.7
				s-0.3-0.2-0.4-0.1c-0.1,0-0.2,0.2-0.3,0.3c-0.1,0-0.4,0-0.4,0c-0.2,0.3-0.3,0.9-0.5,1.2c-0.1,0.1-0.3,0.1-0.4,0.2
				c-0.7,1-0.8,2.9-1.2,4.1c-0.2,0.7,0.2,1.2,0.2,2c0.1,0.9-0.3,1.8-0.1,2.7c0.1,0.5,0.4,1.6,1,1.1c0,0.8,0,1.2,0.2,1.8
				c0.1,0.4,0,0.8,0,1.2c0,2.7-1.9,5-3.1,7.2c0.3,0,0.8-0.1,1,0c0.3,0.1,0.5,0.7,0.5,1.1c0-0.6-0.4-1.1-0.9-1.1
				c-0.9-0.1-1.5,0.7-2.3,0.9c-0.6,0.1-1.6-0.2-1.8-0.8c-0.7-1.7-1.4-2.9-1.3-4.7c0.1-1.5-0.3-3.1-0.4-4.6c-0.1-0.7,0-1.1,0.2-1.8
				c0.3-1.2,0.3-2.5,0.7-3.6c0.2-1,0.7-1.8,0.9-2.8c0.2-0.9,0.5-1.7,0.8-2.5c0.1-0.2,0.1-0.7,0-1c0.4,0.3,1.1-0.6,1.2-0.9
				c0.4-0.8,0.4-1.2,0.3-2.2c-0.2,0.4-0.3,0.6-0.5,0.9c-0.1,0.1-0.2,0-0.4,0.2c-0.1,0.1,0,0.5-0.1,0.6c0,0.1-0.3,0.2-0.3,0.4
				c-0.1,0.2-0.4,0.8-0.1,1c-0.1-0.1-0.1-0.1-0.2-0.1c-0.3-0.1-1,0.3-1.2,0.7c-0.4,0.6-0.5,1-1.1,1.3c-0.2,0.1,0,0.4-0.4,0.2
				c-0.3-0.2-0.2-0.2-0.2-0.6c0.1-0.4,0.3-0.7,0.5-1c0.1-0.3,0.3-0.9,0.5-1.1c0.1-0.1,0.3,0,0.4-0.1c0.3-0.3,0.6-0.7,0.8-1.1
				c0.2-0.7,0.7-1.3,1.1-1.9c0.2-0.4,0.4-0.7,0.6-1.2c-0.1,0-0.2,0-0.2-0.1c0.1,0.1,0.2,0,0.4-0.2c0.7-0.5,0.8-1.4,1.1-2.2
				c0,0.5,0,1,0,1.6c0.3-0.1,0.6-0.3,0.8-0.6c0-0.1,0.1-0.5,0.2-0.5c-0.2,0.1,1.1-0.2,1-0.3c0.8,0.5-1.4,1.5-0.3,2
				c0.3-0.6,0.4-0.8,0.8-1.1c0.1-0.1,0.4-0.1,0.5-0.2s0.1-0.4,0.2-0.5c0.5-0.8,1.3-0.8,2.1-0.4c0-0.6,1.1-0.3,1.5-0.5
				c0.2-0.2,0.3-0.6,0.6-0.7s0.8,0,1,0.1c0.4,0.1,0.9,0.2,1.2,0.4c0.4,0.2,1,1.2,1.4,1.2c0.5,0,0.1-1.2,0.6-1.4
				c0.4-0.1,1.1,0.3,1.6,0.3c0.4,0.1,0.8,0.1,1.2,0.2c0.2,0,1,0.3,1.1-0.1v-0.1l0,0h-0.1c-0.2,0-0.2,0-0.3-0.2l-0.1-0.3l-0.1-0.2
				l0,0H638c0-0.1,0-0.1,0-0.1l-0.2-0.1l-0.1-0.1l-0.2-0.2l-0.1-0.2v-0.1c-0.1-0.1-0.2-0.2-0.3-0.2c0.1-0.1-0.2-1-0.4-1.3
				c0,0,0-0.1-0.1-0.1H636l-0.1,0.2c-0.1,0.1-0.2,0.2-0.3,0.2h-0.5l-0.2-0.1l-0.8-1.1c-0.3-0.1-0.7-0.2-1-0.2c-0.6,0-0.2-1,0.1-1.2
				c-0.8-0.1-1.6,0.2-2.4,0.3c-1.3,0.2-2.5,0.4-3.8,0.6c-0.4,0.1-0.8,0.3-1.2,0.5c-0.3,0.2-0.6,0.6-0.9,0.7
				c-0.5,0.3-0.9-0.1-1.5-0.3c-0.8-0.4-1.7-0.2-2.5-0.5c0-0.1-0.9-1.4-1.1-1.6c-0.7-0.9-1.8-0.8-2.8-1c0.1-0.1,0.1-0.2,0.1-0.2
				c-0.6,0.3-1.2,0.8-1.6,1.4c-0.1-0.5,0.2-1,0.1-1.4c0-0.2-0.3-0.7-0.3-0.8c-0.2-0.2-0.5-0.4-0.6-0.6c-0.1-0.1,0.1-0.3,0-0.4
				c-0.2-0.2-1.1,0.5-1.4,0.7c-1.6,0.8-3.1,1.6-4.6,2.5l0,0l0,0c-0.9,0.5-1.8,1-2.7,1.4c-0.4,0.2-1.8-0.8-2.3-1
				c-0.3-0.2,0.4-0.8,0.4-1.1c0-1.1-2.5,0.3-3,0.5s-1,0.5-1.6,0.7c-0.7,0.2-1.4-0.1-2.1-0.3c1.7-1.6,3.5-3.2,5.2-4.8
				c0.7-0.7,1.3-1.2,2.2-1.7c1.4-0.7,3-1.3,4.6-2.1l-0.1-0.1l-0.1-0.1h-0.1v0.1l-0.2,0.1h-0.1v0.1l-0.2,0.1l-0.2-0.1v-0.1h-0.2
				l-0.2-0.1l-0.1-0.2v-0.1h-0.1c-0.4-0.1-0.8-0.1-1.3-0.3c0.4,0.1,0.8,0.1,1.2,0.1l-0.1-0.1v-0.1h-0.1l-0.1-0.1h-0.6l-0.1,0.1
				l-0.2,0.1h-1.2l-0.1-0.1l-0.2,0.1h-0.8l-0.2-0.1v-0.1l-0.1-0.1l-0.1-0.2v-0.1h-0.1l-0.1-0.3l0,0h-0.1h-0.2v0.1l-0.2,0.1H603v0.1
				l-0.2,0.1h0.2v0.1l-0.2,0.1l0,0l-0.1,0.1l-0.1,0.1l-0.1,0.1h-0.1v0.1l-0.2,0.1h-0.4v0.1l-0.2,0.1h-1.1l-0.2-0.1v-0.2l0,0h-0.4
				l-0.2-0.1l-0.1-0.2v-0.2v-0.1l-0.1-0.1v-0.1H599l-0.2-0.1l-0.1-0.1h-0.2l-0.2-0.1v-0.1h-0.1l-0.1-0.1l-0.1-0.1l-0.1-0.2v-0.2
				h-0.3h-0.1c-0.1,0-0.1,0-0.1,0h-0.3v0.4c0,0.1-0.1,0.2-0.2,0.3v0.1l-0.2,0.1h-0.1l-0.2-0.1l-0.1-0.1h-0.1l-0.1-0.2v-0.1l0,0
				l-0.1-0.1c-0.1,0-0.2-0.1-0.2-0.3v-0.4l-0.1-0.1v-0.1h-0.8l-0.2-0.1l-0.1-0.2v-0.4l0,0l-0.1-0.1l-0.1-0.1h-0.2l-0.2-0.1l-0.1-0.1
				h-0.1l-0.2-0.1l-0.1-0.1l0,0l-0.2-0.1v-0.1l-0.1,0.1l-0.2,0.1h-0.5l-0.2-0.1v-0.1h-0.5l-0.1,0.1l-0.2,0.1h-0.2c0,0,0,0-0.1,0
				h-0.1H591v0.2l-0.1,0.2l-0.2,0.1h-0.5l-0.1,0.1c-0.1,0.1-0.2,0.1-0.3,0.1h-0.1h-0.8l-0.2-0.1v-0.1l-0.1-0.1l-0.1-0.2v-0.3h-0.1
				v-0.1h-1.3l-0.2-0.1v-0.1h0.1l-0.2-0.1l-0.1-0.2l0,0h-0.4l-0.1,0.1l-0.2,0.1h-0.3l-0.2-0.1v-0.1h-0.2l-0.2-0.1v-0.1
				c-0.1-0.1-0.1-0.1-0.1-0.2l-0.1-0.1l-0.1-0.1c-0.1,0-0.2-0.1-0.2-0.3v-1l-0.2-0.5v-0.1v-0.3l-0.2-0.3v-0.2v-0.1l-0.1-0.3
				l-0.1-0.2v-0.3l-0.1-0.3v-0.1v-0.1l-0.3-0.2l-0.1-0.1h-0.7v2.3l-0.1,0.2l-0.2,0.1H444.6c0,0.2,0,0.3,0.1,0.6
				c0.1,0.2,0.4,0.5,0.4,0.6c0.3,0.5-0.1,0.4,0.8,0.3c-0.2,0.6,0.3,0.6,0.3,1.1c0,0.1-0.2,0.6-0.3,0.7s0.2,0.2,0.1,0.3
				c-0.1,0.2-0.5,0.3-0.7,0.4c0.2-0.2,1,0.5,1.2,0.9c0.2,0.5-0.1,1.1,0.4,1.6c0.2,0.2,0.5,0.1,0.4,0.4c0,0.2-0.4,0.3-0.5,0.4
				c0,0.1-0.1,0.4-0.2,0.5c-0.1,0.1-0.2,0.1-0.2,0.4c-0.1,0.2,0.1,0.4,0.1,0.5s-0.2,0.3-0.2,0.4c0,0,0.1,0.3,0.1,0.4
				c0,0,0.2,0.3,0.2,0.4s-0.2,0.2-0.3,0.3c0,0.1,0.1,0.2,0.1,0.3c0,0.2,0.1,0.4,0.1,0.5c0,0.5,0,0.2-0.2,0.6s-0.5,0.5-1,1
				c-0.6,0.6-0.7,0.5-1.6,0.8c0,0,0,0.1,0,0.2c-0.6,0-0.5-0.4-0.2-0.8c-0.2,0.1-0.4,0.4-0.7,0.4c0.1-0.2,0.4-0.4,0.5-0.6
				s0.1-0.4,0.2-0.6c0.2-0.4,0.5-0.3,0.5-0.9c0.2,0.6-0.1,1,0.2,1.5c0.2-0.8,0.2-1,0.7-1.5l0,0c0,0,0,0-0.1,0l0,0l0,0l0,0
				c-0.1,0.2-0.2,0.4-0.2,0.7c1.4-0.3,0.7-2.2,0.1-3.1c0.1,0.1,0.9,0,0.9-0.1c0.1-0.3-0.2-0.8-0.3-1.1c-0.3,0.5-0.8,0.8-1.1,1.3
				c-0.3,0.4-0.5,0.4-1,0.8c-0.2,0.2-0.5,0.7-0.6,1c-0.1,0.4-0.4,0.4,0,0.5c0.3,0.1,0.8-0.2,1-0.4c-0.1,0.1-1.3,1-1.3,0.5
				c-0.1-0.5,0.3-1.1,0.5-1.5s0.5-0.5,0.6-0.9c0.2-0.4,0.1-0.9,0.3-1c0.1,0.4,0.1,0.8,0,1.1c0.3-0.3,0.5-0.7,0.7-1.1
				c0.2-0.3,0.4-0.2,0.1-0.6c-0.3-0.4-0.8-1.1-0.5-1.5c-0.1,0.1-0.3,0.9-0.4,0.9c-0.3,0.1-1.3-0.9-1.4-1.2c-1.3,0-2.4,0.3-3.7,0.1
				c-1.5-0.2-2.9-1-4.3-1.6c0.1,0.9,0,1.9,0.3,2.8c0.3,1.3,1.1,2.4,1.6,3.5c0.2,0.3,0.1,0.6,0.2,0.9c0.2,0.6,0.5,1.1,0.7,1.6
				c0.1,0.5,0.1,0.9,0,1.4c0.4-1.5,0.9-0.2,1.8-0.2c-0.3,0.2-1.3,0.3-1.1,0.8c-0.1-0.1-0.3-0.2-0.5-0.3c0.1,0.1,0.1,0.8,0.2,0.9
				c0.3,0.5,1.2-0.1,1.3,0.6c-0.4,0-0.6,0.3-0.4,0.6c-0.1,0-0.2-0.1-0.2-0.1c0.2,0.2,0.2,0.5,0.3,0.7l-0.2,0.7
				c-0.5,0.9-0.4-1.1-0.6-1.4c-0.1,0.7,0.1,1.6-0.2,2.3c1.5,0.3,3,0.5,4.5,0.7c-0.8,0.2-1.7,0.3-2.6,0.4c-0.6,0.1-1-0.4-1.5-0.7
				c0.5,1.1,0,1.8,0.1,2.9c0.1,0.5,0.2,0.7,0.2,1.3c0,0.4-0.1,0.8-0.2,1.1c-0.1,0.4,0.1,0.7,0.1,0.9c0,1.1-0.3,2.2-0.5,3.2
				c-0.2,0.8-0.1,1.8-0.1,2.7c-0.1,1.1-0.1,2.2-0.2,3.3c0,0.4-0.1,0.8-0.1,1.2c-0.1,0.3-0.1,0.6-0.1,0.9c-0.1,0.8-0.4,1.4-0.7,2.1
				c0.2-0.2,0.3-0.4,0.4-0.6c0.1,0.2,0.3,0.4,0.3,0.7c-0.1-0.1-0.2-0.1-0.3-0.2c-0.5,0.9-1.7,2.8-1.6,3.8c0,0.3,0.2,0.5,0.4,0.7
				c0.3,0.5,0.4,0.5,0.2,1.3c-0.1,0.5-0.1,1.1,0,1.6c0.1,0.8,0.3,1.4,1,2c0.3,0.2,0.1,1.2,0.1,1.6c0,1.2,0,2.5,0.1,3.7
				c0,0.1,0,2.5-0.1,2.8c0.2-0.2,0.3-0.5,0.6-0.4c-0.3,0.3-0.7,1.1-0.9,0.9c-0.3,0.6-0.7,1.4-0.4,2c0.2,0.5,1.5,2.7,1.9,2.7h-0.1
				c0.3,0.7,1.2,2,1.2,2.9c0,0.2-0.2,0.6-0.2,0.8c-0.1,0.8,0.3,1.3,0.5,2c0.2,0.8-0.3,1,0.2,1.7c1.1,1.6,2.2,3.1,3.3,4.7
				c0.2,0.3,0.2,0.6-0.1,0.9c0.5-0.9,1.2,0.3,1.7,0.7c0-0.1,0-0.1,0-0.2c0.2,0.2,1.3,1.1,1,0.3c0,0,0.1,0.1,0.2,0.1
				c-0.1-0.2-0.2-0.5-0.2-0.7c0,0.2,0-0.7-0.1-0.5c0.1-0.5,0.2-0.3,0.4-0.7c0.3,0.1,0.6,0.5,0.9,0.6c0.5,0.2,0.4,0,0.8-0.2
				c0.1,0,0.1-0.3,0.3-0.3s0.5,0.5,0.7,0.5s0.5,0,0.6-0.2c-0.1,0.1-0.2,0.2-0.2,0.3c0.8-0.3,0.9-0.4,1.6,0.2c-0.3-0.1-0.8-0.5-1-0.4
				c-0.1,0.1-0.1,0.3-0.2,0.3c-0.2,0.1-0.2,0.1-0.7,0.1c-0.3,0-0.5-0.2-0.8-0.2c-0.2,0-0.5,0.2-0.7,0.2c-0.4,0-0.9-0.2-1.2,0.2
				c-0.5,0.8,1.2,2.7,1.4,3.5c-0.3-0.3-0.7-0.5-1.1-0.8c-0.2-0.1-0.4-0.1-0.4-0.4c0-0.2,0.1-0.9-0.1-1c-0.7-0.5-0.7,1.2-0.7,1.6
				c0.1,0.5,0.5,1,0.6,1.6c0.1,0.7,0,0.7,0.8,1.3c0.4,0.3,1,0.6,1.4,0.9c0.1,0,0.2-0.1,0.4,0c0.3,0.3,0.6,1.5,0.4,1.9
				c-0.2,0.4-0.5,0.1-0.6,0.2c-0.2,0.3-0.1,0.6,0,1c0.1,0.3,0.1,0.6,0.2,0.8c0.4,1.1,1.5,2.2,2.2,3.1c0.8,1,1.5,1.9,2.4,2.9
				c0.3,0.4,0.3,0.6,0.5,0.8c0.1,0.3,0,0.4,0.3,0.6c0.3,0.3,0.8,0.7,1,1.2c0,0.1-0.1,0.2-0.1,0.4c0,0.3,0.1,0.7,0.1,1.1
				c0,0.2-0.1,0.7,0,0.8c0,0.2-0.2,0.4,0.1,0.5c0.6,0.3,1.3,0.6,1.8,0.6c0.7,0.1,1.2,0.2,1.9,0.4c0.6,0.2,1.1-0.2,1.8,0.2
				c0.8,0.4,1.5,1,2.2,1.5c0.4,0.3,0.8,0.7,1.2,0.8c0,0,0.3-0.1,0.4-0.2c0.2,0,0.8-0.1,0.9,0c0.1,0.4,0.3,1.5,0.6,1.7
				c0.2,0.2,0.6-0.1,0.9-0.1c0.7,0,0.9,0.4,1.4,0.9c0.5,0.4,1,0.7,1.5,1.1c0.7,0.7,1,1.2,1.4,2.2s0.7,2,1.1,3
				c0.1,0.1,0.1,0.2,0.1,0.3h0.4h1.1l0.1-0.1l0.2-0.1h1.4l0.1-0.1l0.2-0.1h1.5v-0.1l0.2-0.1h1.6l0.1-0.1l0.2-0.1h1.6l0.1-0.1
				l0.2-0.1h1.6l0.1-0.1l0,0c0,0,0.1,0,0.1-0.1h0.1h1.4c0.2,0,0.3,0.1,0.3,0.3v0.2l-0.1,0.2h-0.1v0.1l-0.1,0.2l-0.1,0.1v0.1v0.2l0,0
				h0.1l0.2,0.1v0.1h0.3l0.2,0.1v0.1h0.2l0.2,0.1l0.1,0.1h0.2l0.2,0.1l0.1,0.1h0.2l0.2,0.1l0,0h0.2l0.2,0.1l0.1,0.1h0.2l0.2,0.1
				l0.1,0.1h0.2l0.2,0.1l0.1,0.1h0.2l0.2,0.1v0.1h0.2l0.2,0.1l0.1,0.1h0.2l0.2,0.1v0.1h0.2l0.2,0.1l0.1,0.1h0.2l0.2,0.1l0.1,0.1h0.1
				l0.2,0.1l0.1,0.1h0.3l0.2,0.1v0.1h0.2l0.2,0.1v0.1h0.1l0.2,0.1l0.1,0.1h0.2l0.2,0.1l0.1,0.1h0.3l0.2,0.1v0.1h0.1l0.2,0.1l0.1,0.1
				h0.2l0.2,0.1l0.1,0.1h0.2l0.2,0.1l0.1,0.1h0.2l0.2,0.1l0.1,0.1h0.1l0.2,0.1l0.1,0.1h0.4l0.2,0.1v0.1h0.2l0.2,0.1v0.1h0.1l0.2,0.1
				l0.1,0.1h0.2l0.2,0.1l0.1,0.1h0.2l0.2,0.1l0.1,0.1h0.2l0.2,0.1l0.1,0.1h0.2l0.2,0.1l0.1,0.1h0.2l0.2,0.1v0.1h0.1l0.2,0.1l0.1,0.1
				h0.2l0.2,0.1l0.1,0.1h0.2l0.2,0.1l0.1,0.1h0.2l0,0c0,0,0.1,0,0.1,0.1c0.1,0,0.1,0,0.1,0l0,0l0.1,0.1h0.2l0.2,0.1v0.1h0.2l0.2,0.1
				v0.1h0.1l0.2,0.1l0.1,0.1h0.2l0.2,0.1l0.1,0.1h0.2l0.2,0.1l0,0h14v-2.5l0.1-0.2l0.2-0.1h8.4c0.1,0,0.2,0.1,0.2,0.2h0.4l0.2,0.1
				v0.1l0.1,0.1v0.1h0.1l0.1,0.3v0.1l0,0l0.1,0.2v0.1l0,0l0.1,0.2l0,0l0.1,0.1l0,0c0,0,0,0.1,0.1,0.1c0,0.1,0.1,0.1,0.1,0.1l0,0l0,0
				l0.2,0.1l0.1,0.1l0.1,0.1v0.1h0.1l0.2,0.1v0.1h0.2l0.2,0.1l0.1,0.1l0.1,0.1v0.1l0.1,0.1l0.1,0.1h0.1l0.1,0.1l0,0l0.2,0.1l0.1,0.2
				l0,0l0.1,0.1l0,0v0.1c0,0,0,0,0,0.1l0.1,0.1l0.1,0.1h0.1l0.1,0.1h0.1l0.2,0.1v0.1l0.1,0.1v0.1h0.1l0.2,0.1l0.1,0.2v0.2h0.1
				l0.2,0.1v0.1h0.1v0.1c0.1,0,0.2,0.1,0.2,0.1h0.1l0.2,0.1l0.1,0.2l0,0l0,0l0.2,0.1v0.1h0.1l0.2,0.1v0.1h0.2l0.2,0.1v0.1h0.1v0.1
				l0.1,0.1l0.1,0.1h0.1v0.1h0.2c0.2,0,0.2,0.2,0.2,0.3v0.1h0.1l0.1,0.1h0.1v0.1h0.1l0.1,0.2v0.1l0.1,0.1l0.1,0.2v0.4
				c0.1,0.1,0.1,0.1,0.1,0.1l0.1,0.1l0.1,0.2l0,0l0.1,0.1l0.1,0.2l0,0l0,0l0.2,0.1l0.1,0.2v0.1h0.1l0.1,0.2v0.7l-0.1,0.2l-0.1,0.1
				h0.1l0.1,0.2v0.3l0.1,0.1l0.1,0.2v0.1l0.1,0.1l0.1,0.2v0.1l0,0l0.2,0.2l0.1,0.2v0.2l0.1,0.1l0,0l0,0l0.2,0.2v0.1h0.1l0.1,0.2l0,0
				l0,0l0.2,0.1v0.1h0.2l0.2,0.1v0.1h0.1l0.2,0.1v0.1l0.1,0.1l0.1,0.3l0,0l0.1,0.1l0.1,0.1h0.1l0.2,0.1l0.1,0.1h0.1v0.1l0.1,0.1v0.1
				h0.2l0.2,0.1v0.1h0.5l0.2,0.1v0.1h0.1l0.1,0.1l0.1,0.1v0.1c0.1,0,0.1,0,0.1,0.1h0.1h0.1h0.1h0.1l0.2,0.1v0.1h0.1l0.2,0.1v0.1
				l0.1,0.1l0.1,0.2l0,0h0.2l0.2,0.1v0.1h0.2c0.1,0,0.2,0.1,0.2,0.2h0.4h0.1v-0.1l0.1-0.2l0.1-0.1l0.1-0.1l0.2-0.1l0,0l0,0l0.1-0.2
				h0.1v-0.1l0.2-0.2c0.1-0.1,0.1-0.1,0.2-0.1l0,0v-0.3v-0.1c0-0.1,0-0.1,0-0.2c0.1-0.1,0.1-0.2,0.3-0.2l0,0l0,0v-0.1
				c0-0.1,0-0.3,0.1-0.3l0.1-0.1v-0.2l0.1-0.2h0.1v-0.3l0.1-0.2l0.1-0.1l0.1-0.1h0.1l0.1-0.1h0.1v-0.3c0-0.1,0.1-0.3,0.3-0.3h0.3
				l0.1-0.1c0.1-0.1,0.2-0.1,0.3-0.1l0,0h0.5v-0.2l0.1-0.2l0.2-0.1h0.1v-0.1l0.2-0.1h0.1l0.2,0.1v0.1h0.1h0.1c0.1,0,0.2-0.1,0.2,0
				c0.1,0,0.1,0.1,0.2,0.2h0.1l0.1,0.1h0.4v-0.1l0.2-0.1l0.2,0.1v0.1h0.8c0.1,0,0.2,0.1,0.2,0.2h0.5l0.1-0.1l0.2-0.1h0.2l0.1,0.1
				l0.2-0.1l0.2,0.1v0.1h0.1l0.2,0.1l0.1,0.2v0.1h0.1l0.1,0.2l0,0l0,0l0.2,0.1l0.1,0.1c0.1,0,0.1,0,0.2,0c0.1,0,0.1,0.1,0.1,0.2
				l0.1,0.1l0.1,0.2v0.1h0.1v0.1l0.1,0.1v0.1h0.2l0.2,0.1v0.1c0.1,0.1,0.2,0.2,0.2,0.3v0.2l0,0l0.2,0.1v0.1h0.1
				c0.1,0,0.2,0.1,0.2,0.2l0.2,0.1v0.1h0.1l0.1,0.1l0,0l0.2,0.1l0.1,0.2v0.3h0.1v0.1h0.1v0.1h0.1l0.2,0.1v0.2v0.3h0.1l0.1,0.2v0.4
				c0.1,0.1,0.2,0.1,0.2,0.3l0,0l0.1,0.1v0.1h0.1l0.1,0.2v0.1h0.1l0.1,0.2v0.3h0.1v0.1h0.1l0.1,0.2v0.1h0.1l0.1,0.2v0.1h0.1v0.1h0.1
				l0.2,0.1l0.1,0.2l-0.1,0.2h-0.1v0.2h0.1l0.1,0.2v0.1l0,0l0.1,0.2v0.3h0.1v0.1h0.1l0.2,0.1l0.1,0.1l0.1,0.1v0.1h0.3l0.2,0.1
				l0.1,0.2v0.2l0,0l0.2,0.1l0.1,0.2v0.2l0,0l0.2,0.1l0.1,0.2v0.1h0.1v0.1h0.1l0.1,0.2v0.5l0,0v0.1h0.1l0.2,0.1l0.1,0.1l0.1,0.1v0.1
				l0.1,0.1l0.1,0.2l0,0l0,0h0.1h0.1h0.2l0.2,0.1v0.1h0.1l0.2,0.1v0.1h0.1l0.1,0.3v0.2l0,0l0.1,0.2v0.9c0,0.1-0.1,0.1-0.1,0.2l0,0
				l0.1,0.1l0.1,0.2v1.2l0,0l0.2,0.1l0.1,0.2v0.1h0.1l0.1,0.1l0.1,0.1l0.1,0.2v0.1h0.1l0.1,0.1h0.1l0.1,0.2v0.1h0.1l0.1,0.2v0.1l0,0
				l0.1,0.2v0.3h0.1l0.1,0.2v0.2l-0.1,0.1l0.1,0.1l0,0l0,0l0.2,0.1l0.1,0.2v0.4h0.6l0.2,0.1v0.1h0.4l0.2,0.1v0.2h0.1l0.1,0.1
				l0.1,0.1v0.1c0.1,0,0.2,0.1,0.2,0.2h0.1h0.3l0.1,0.1l0.1-0.1l0.2,0.1v0.1h0.3l0.2,0.1l0.1,0.1l0,0l0.2,0.1v0.1h0.1v0.1h0.1
				l0.1,0.1l0.1,0.1l0.1,0.1h0.2h0.1c0.1,0,0.1-0.1,0.2,0h0.1h0.2l0.2,0.1l0.1,0.1h1.3h0.1c0.1,0,0.2,0,0.3,0.1v-0.1
				c0.1,0,0.2,0,0.3,0.1l0.1,0.1l0,0l0.2,0.1v0.1l0.1,0.1v0.1l0.1,0.1l0.1,0.1l0.1,0.1v0.1h0.1l0.2,0.1l0.1,0.1h0.1l0,0l0,0l0.1-0.2
				l0.2-0.1h0.1v-0.1l0.2-0.1c-0.3,0-0.3-0.7-0.5-1.4c-0.3-1.2-0.8-2.4-1-3.7c0-0.3,0-0.7,0.1-0.9c-0.1,0.2,0.3-0.3,0.3-0.3
				c0.1-0.2,0.2-1,0.3-1.3c-0.7,0.4-0.9-0.1-1.7-0.1c0.1-0.3,0-0.7,0-1c0.2,0.2,0.5,0.7,0.7,0.9c-0.1-0.2,0.9,0.1,0.4,0.1
				c0.1,0,0.4,0,0.5-0.2c0.2-0.2,0.4-0.8,0.5-1.2c0.1-0.4,0.4-0.8,0.3-1.1c0-0.1-0.3,0-0.3-0.1c-0.4-0.8-0.3-0.4-0.9-0.9
				c0.3,0.1,0.9-0.1,1.2,0c0.4,0.1,0.1,0.4,0.5,0.2c0.4-0.2,0.7-1.2,0.8-1.6c-0.2,0.2-0.5,0-0.7-0.3c0.2,0.2,0.5,0,0.7-0.2
				c0,0.2,0.1,0.3,0.1,0.5c0.1-0.3,0.2-0.5,0.3-0.8c0,0.2,0,0.5-0.1,0.8c0.1-0.4,0.4-2.1,0.8-2.1c0.1,0,0.4,0.5,0.4,0.6
				c0.3,0.3,0,0.3,0.5,0.3c0.2,0,0.9-0.6,1.1-0.7c-0.6-0.3-1-0.9-1.2-1.7c0.5-0.1,0.2,0.3,0.5,0.5c0.5,0.4,1,0.2,0.5-0.7
				c0.3,0.1,0.2,0.6,0.4,0.7c0.2,0,0.5-0.3,0.8-0.3c-0.4,1.2,0.4,0.3,1,0.6c-0.4,0.2-0.8,0.4-1.1,0.7c0.7-0.3,1.8-0.8,2.4-1.4
				c-0.3,0.2-0.7,0.3-1.1,0.2c0.8-0.2,1.4-0.3,2-0.7c0.8-0.5,1-1.2,1.6-2c0.4-0.6,0.3-0.2,0.5-0.3c0.5-0.3,1-0.8,1.4-1.2
				c-0.2-0.1-0.3-0.1-0.4-0.3l-0.2,0.1c-0.1-0.1,0.2-0.4,0.1-0.5c-0.1-0.1-0.3,0-0.4-0.1c-0.1-0.2,0.1-0.4,0.1-0.5
				c-0.1-0.2-0.3-0.5-0.3-0.7c0.2,0,0.5,0.1,0.6,0.4c0.2-0.2,0.6-0.9,1-0.7c0.2,0.1,0.2,0.5,0.1,0.7c-0.4,0.8-0.6,0.7,0,0.7
				c0.4,0,0.7-0.2,1.1-0.1c-0.3,0.2-1.5,0.6-1.5,1s0.5-0.3,0.5-0.3c0.4-0.2,0.7-0.4,1.1-0.6c0.4-0.2,0.8-0.4,1.2-0.6
				c0.7-0.3,1.2-0.3,1.9-0.5c-0.3-0.4,0.1-1.4,0.3-1.9c-0.1,0.6-0.2,1.2-0.2,1.8c0.7-0.5,1.4-0.2,2.2-0.5c0.5-0.1-0.2-0.3-0.1-0.4
				c0,0-0.2-0.1-0.1-0.1c0-0.1,0.2-0.1,0.2-0.1c0,0.1,0.2-0.3,0.2-0.3c0.1-0.2,0.1-0.7,0.1-0.9c0.3,0.2,0.1,0.4,0.2,0.6
				c0.6,0.9,2,1.2,2.8,1.7c0.8,0.4,1.6,1,2.4,0.9c0.3-0.1,0.6-0.2,0.9-0.2c-0.1,0-0.6-0.5-0.6-0.6c-0.1-0.4-0.1,0,0.2-0.3
				c0.3-0.2,1.1-0.6,1.5-0.5c0.1,0,0.9,0.4,1.1,0.5c0,0.1,0,0.4,0.2,0.6s1.3,1,1.5,0.9c0.1-0.1,0.2-0.6,0.3-0.7
				c0.1,0.3-0.2,0.4-0.2,0.8s0.5,0.6,0.7,0.8c0.6,0.6,1.5,1.7,2.3,1.2c0.2-0.1,0.5-0.6,0.4-0.8c0.6-0.4,1.4-0.4,1.7,0.3
				c0.2,0.4-0.2,0.9,0.4,0.7c0.8-0.3,0-1.2,0.7-1.2c-0.2-0.3-0.1-0.3-0.2-0.6c0-0.1,0.2-0.1,0-0.3c-0.2-0.3-0.5-0.2-0.6-0.8
				c0.3,0.2,2,0.4,1.7,0.8c0.7,0.5,1.1,0.8,1.8,1.2c-0.1,0.2,0.1,0.4,0.3,0.6c0.2,0.3,0.6-0.5,0.6,0.1c0,0.3-0.5,0.9-0.6,1.2
				c0.4-0.3,0.9-0.3,1.3-0.4c-0.2-0.4,1-1,0.2-0.9c0.3,0,0.4-0.2,0.4-0.3c-0.2,0-0.4-0.1-0.6-0.3c0.5-0.4-1-0.7-1.2-0.8
				c0.1,0,0.2-0.1,0.2-0.1c-0.3,0-0.7,0-1-0.1c0,0,0.1,0,0.1-0.1c0-0.2-0.1,0,0-0.3c-0.5-0.3-0.7-0.4-1-0.8c0.4-0.1,0.8-0.1,1.2-0.2
				c0-0.1-0.1-0.2-0.2-0.2h0.1c-0.1,0-0.5,0-0.4-0.2c0.1-0.4,0.9-0.3,1.3-0.5c-0.1-0.3-0.1-0.3,0-0.5c-0.1,0-0.2,0-0.3,0
				c0-0.1,0.1-0.1,0.1-0.2c-0.1,0-0.2,0-0.2,0c0.5-0.2-0.2-0.4-0.3-1c0,0.4-0.3,0.2-0.4,0.5c-0.4,0.7-0.1,0.7-0.7,0.5
				c-0.1-0.1-0.7-0.2-0.6-0.5c0-0.2,0.7-0.3,0.8-0.6c-0.5-0.1-3.6,0.6-3.7-0.3c-0.1-0.7,2.1-1.2,2.6-1s1.7,0.9,2.1,0.5
				c0.4-0.5,0.7-0.9,1.3-1c0.7-0.1,1.3-0.3,2-0.2c1.1,0.1,2.3,0.4,3.3,0.5c0.3,0.1,0.5-1.6,0.6-2c0-0.1,0.1-0.3,0.2-0.4
				c0.1,0.4,0.3,0.3,0.5,0.7c0.1,0.3-0.1,0.6-0.1,0.8c0.1,0.3,0.4,0.2,0.5,0.5c0.1,0.2,0.1,0.6,0.4,0.9c0.2,0.3,0.8,0,0.9-0.3
				c-0.1,0-0.1,0-0.2,0c0.6-0.1,0.7-0.4,0.9-1.1c-0.1,0.5-0.3,0.8-0.4,1.2c0.4-0.2,1-0.4,1.4-0.8c0.3-0.4,0.1-0.6,0.3-1
				c0.1,0.2,0.3,0.3,0.3,0.5c0.5-1,0.7-0.5,1,0.4c-0.2-0.1-1.1,0.4-1.4,0.5c1.7-0.4,3.5-0.6,5.2-0.8c0,0.3,0,0.2,0.1,0.5
				c-0.2,0-0.5-0.1-0.7-0.1l0.1,0.1c-0.9-0.3,0,0.4,0.3,0.5c0.2,0.1,2,1.3,2.2,1.2c0.3-0.2-0.4-0.6-0.6-0.6c0.3-0.1,1.3-0.5,1.4-0.3
				c-0.1,0.1-0.6,0.3-0.6,0.4s1.2,1,1.4,1.2c-0.3-0.1-1.5-0.9-1.3-0.4c0.1,0.2,0.4,0.4,0.6,0.5h-0.1c0.2,0.3,0.7,0.4,0.9,0.7
				c0.1,0.1,0.2,0.2,0.2,0.4c0.5,0.8,0.5,1,1.1,0.7c-0.2,0.1-0.3,0.2-0.5,0.3c1.5-0.6,3.1-1.3,4.6-1.9c0.7-0.3,1-0.6,1.7-0.3
				c0.5,0.2,1.1,0.6,1.5,1.1c0.4,0.4,0.4,0.8,0.8,1.2c0.4,0.3,0.2,0.2,0.4,0.6c0.1,0.2,0,0.3,0.3,0.7c0.7,0.7,1.8,1.1,2.5,1.8
				c0.3,0.3,1.2,1.9,1,2.3c-0.3,0,0,0.2,0,0.5c0,0.2-0.1,0.4-0.1,0.6c0,0.5-0.1,0.9-0.2,1.4c-0.1,0.5-0.4,0.9-0.5,1.3s0.1,0.8,0,1.2
				c0,0.2-0.2,0.3-0.2,0.4c0,0.5,0.3,1.1,0.6,1.6c0-0.1-0.1-0.3-0.1-0.4c0.5,0.4,0.5,0.1,0.6-0.2c0.2-0.6,0-0.7-0.4-1.1
				c0.8,0.4,1,1,1.5,0.1c0.4,1-0.9,1.6-0.8,2.5c-0.1,0-0.2,0-0.3-0.1c0.1,0.4,0.4,0.7,0.5,1.1c0.3,1.3,1.2,2.3,2,3.3
				c0-0.1-0.1-0.6-0.1-0.6c0.1-0.3,0.4-0.4,0.9-0.6c0,0-0.2,0.4-0.2,0.2c0,0-0.1,0-0.2,0.1c0,0.1,0.1,0.3,0.1,0.4
				c-0.1,0.7-0.1,1.4,0.1,2.1c0.5,0,0.6-0.9,1.3-1.1c-0.4,0.4-0.6,0.7-0.9,1.3c0.9,0.1,0.9,2.9,1.1,3.5c0.1,0,0.3-0.2,0.4-0.1
				c0.6,0.3,1.5,1.5,2,2.2c0.3,0.3,2,1.9,1.4,2.1c-0.1,0.1-0.5-0.4-0.7-0.5c-0.1,0.3-0.1,0.7,0,1c0.3,0,0.5-0.1,0.8-0.2
				c0.1,0,0.2-0.2,0.3-0.2s0.3,0.1,0.5,0.2c0.3,0,0.4-0.1,0.6-0.2c0.4-0.3,0.4-0.3,1,0.1c-0.1-0.1-0.1-0.2-0.2-0.2
				c0.1,0,0.3,0.1,0.5,0.2c-0.2-0.2-0.1-0.3,0-0.5c0.3-0.7,0.7-1.3,1-2c0.7-2,0.7-4.1,0.8-6.2c0.1-1.4,0-3-1.3-3.6
				c0.2,0.1,0.4,0.2,0.6,0.3c-0.6-1-0.7-2.1-1.1-3.1c-0.4-0.9-0.8-1.7-1.2-2.7c-0.4-1.2-0.7-2.6-1.1-3.9c0.3,0.1,0.4,1.8,0.9,1.1
				c0.1,0.8,0.1,1.6,0.2,2.5c0.7-1.9,0.1-2.3-0.7-3.8c-0.4-0.8-0.9-1.6-1.3-2.5c-0.3-0.7-0.5-1.3-0.8-2c-0.4-1-0.6-2.2-0.9-3.2
				c-0.3-1-0.8-2.2-0.8-3.3c0-0.9-0.3-2.4,0.1-3.2c0.1-0.3,0.2-0.6,0.4-0.3c1.3-0.6,0.2-0.7-0.4-1.1c0.1,0,0.4,0.2,0.4,0.2
				c0.2-0.2,0.2-0.4,0.3-0.6c0.2-0.2,0.5-0.4,0.7-0.6c-0.1,0.1-0.3,0.1-0.5,0.2c0.1-0.5,0.3-1.2,0.1-1.6c0.2,0,0.5,0.3,0.7,0.2
				c0.3-0.1,0.7-1.1,0.8-1.3c0.3-0.5,1.4-1.4,1.4-1.9c0-0.2-0.3-0.1-0.3-0.1c-0.2-0.5-0.5-1.2-0.5-1.7c0.1,0,0.3,0.2,0.3,0.2
				c-0.4,1.1,1-0.4,0.6,0.8c0.1,0,0.1,0,0.1,0s-0.1,0.2,0,0.2c0.4,0,1.1,0.1,1.1-0.4c0,0.1-0.1,0.1-0.2,0.2c0.2-0.8-0.6-0.6-1-0.9
				c0.2,0,0.5-0.1,0.7-0.1c0.1,0,0.2,0.2,0.4,0.2c0.3,0,0.7-0.5,1-0.7c0.2-0.1,0.9-0.1,1.1-0.1c0.2,0,0.2-0.1,0.3-0.3v0.2
				c0.1-0.4,0.2-0.9,0.3-1.3c0.5,0.5,0.3,0.6,0.8,0.4c0.6-0.2,1.1-1,1.7-1.4c0.3-0.2,1.6-0.7,1.1-1.3c-0.2-0.3-0.5-0.5-0.2-0.9
				c0.3,0.2,0.4,0.6,0.4,0.9c0.3-1.1,0.4-1.7,1.2-2.5c0.6-0.6,1.2-1.1,1.8-1.6c0.5-0.4,1.8-0.1,2.4-0.2c1,0,0.8-1,0.8-1.8
				c0.2,0.5,0.1,1,0.2,1.6c0.1-0.3,0.1-0.6,0.2-0.9c0.4-1,1.5-1.8,2.2-2.5c-0.3,0.2-0.6,0.4-0.9,0.6c0.3-0.4,1.7-1,1.1-1.3
				c0.4-0.4,0.1-0.7-0.1-1.1c0.1,0,0.3,0.3,0.3,0.3c0.2,0,0.9-0.4,1.2-0.3c0.5,0.1,0,0.4,0.6,0.3c0.4,0,1-0.4,1.5-0.5
				c0.6-0.2,1.8-0.4,2.2-1c0.4-0.5-0.6,0-0.7,0c0.4-0.9-0.4-0.1-0.6-0.1c-0.1,0-0.2-0.2-0.4-0.2s-0.4,0.3-0.6,0.4
				c-0.7,0.1-1.3-0.9-1.5-1.5c0.4,0.5,0.7,0.8,1.3,0.6c0.7-0.2,2.2-0.9,1.4-1.6c-0.9-0.8-2-0.5-2.6-1.4c0.7,0.5,1.5,0.6,2.3,0.8
				c-0.1-0.3-0.1-0.8,0-0.9c0.2-0.2,0,0.4,0,0.3c0.1,0.2,0.2,0.4,0.3,0.5c0.3-0.2,0.7-0.4,0.6,0.1c1.1,0,3.8-0.9,3.4-2.6
				c-0.2-0.6-0.5-0.7-1-0.6s-0.4,1.2-0.6,1.7c-0.1-0.4-0.2-1.3,0.1-1.8h-0.1c0.2-0.5-0.4-0.5-0.7-0.4c-0.2,0.1-0.3,0.4-0.5,0.5
				c-0.1,0-0.3-0.1-0.5-0.1c0.1-0.4-1.2,0-1.7-0.1c0.3-0.4-0.1-0.6-0.1-1.1c0-0.2,0.2-1.7,0.3-1.2c0.1,0.3-0.2,0.3-0.2,0.6
				c0,1.5,0.9,1.4,2,0.7c-0.3-0.1-0.5-0.3-0.7-0.6c0.4,0.3,0.7,0.5,1.2,0.6c-0.2-0.2-0.3-0.4-0.4-0.6c0.3,0.4,0.7,0.4,1.1,0.3
				c-0.2-0.3-0.6-0.7-0.7-1c0.2,0.3,1,0.9,1.4,1c-0.3-0.2-0.2-0.6-0.4-0.9c0.4,0.3,0.5,1.2,1,1.5c-0.4-1.2-1-1.9-1.2-3
				c0.5,0.1,0.4-0.6,0.5-1.1c0.2,0.6,0.3,1.3,0.5,1.8c-0.1-0.7-0.4-2.7-0.9-3.2c-0.1-0.1-0.7,0.1-0.8,0c-0.5-0.3-0.4-0.1-0.7,0
				c0.1,0,0,0.2,0,0.2c-0.2,0.1-0.7,0.1-1,0.1c0.5-0.4-0.5-1.7-0.8-2.1c0.3,0.2,0.6,0.5,0.8,0.7c0.3,0.4,0.5,0.9,1,0.5
				c0-0.7-0.1-1.2-0.5-1.7c0,0,0,0,0-0.1c0,0,0,0,0.1,0.1c-0.1,0-0.1-0.1-0.1-0.1c-0.1,0-0.1-0.1-0.1-0.1c0.3,0.2,0.5,0.3,0.5,0
				c0.4,0,0.5,0,0.7-0.3c0.4-0.8-0.6-1.3-1.1-1.8c-0.1,0-0.1-0.1-0.2-0.1c0.2-0.7,0.1,0,0.3,0c0.1,0,0.1,0.1,0.2,0.1
				c0.3,0,0.6-0.8,0.7-1.2c0.2-0.7,0.2-0.3-0.1-0.7c-0.4-0.5-1.6-1.1-2.1-1.3c-0.4-0.1-0.9-0.2-1.2-0.5c-0.2-0.2-0.4-0.6-0.6-0.9
				c-0.2-0.3-0.2,0-0.4,0s-0.4,0.2-0.7,0c-0.1,0-0.2,0-0.2,0c0.5-1.2,1.6-2.3,1.4-3.6c0.4,1-0.3,1.8-0.6,2.7
				c-0.2,0.3-0.4,0.6-0.1,0.8c0.3,0.2,0.5-0.3,0.4-0.5c0.1,0.3,0.4,0.2,0.5-0.1c0.1,0.2,0.3,0.9,0.6,1c0.2,0.1,0.4-0.4,0.5-0.4
				c0.3,0.2,0.6,0.5,0.9,0.8c0.5,0.4,1.1,0.9,1.6,1.2c-0.1-0.3-0.2-0.7-0.3-1c0-0.1,0-0.6,0-0.6c-0.1-0.1-0.3,0.1-0.4,0
				c-0.8-0.7-1-1.1-1.1-2.4c0.1,1.2,0.3,1.5,1.5,1.9c-0.2-0.6-0.6-0.8-0.7-1.4c0-0.3,0-0.8,0.1-1.1c0.3-1.3,0.3-1-0.3-2.1
				c0.2,0.2,0.4,0.5,0.6,0.5c-0.3-0.6-0.6-1.1-0.9-1.7c0.6,0,0.7-0.5,1.2-0.9c0.3-0.2,0.2,0.1,0.5-0.3c0.2-0.3,0.2-0.2,0.2,0.1
				c0.5-0.3,1-0.8,1.4-1.2c1,0.3,0,0.4,0.3,0.8c-0.2,0-0.7,0.2-0.7,0.4c-0.1,0.3,0.6,0.2,0.8,0.3c-0.7,0.1-1.3-0.1-1.7,0.4
				c-0.2,0.3-0.3,0.7-0.4,1c0.3,0.1,0.7,0.1,1,0.1c-0.3,0.2-0.3,0.5-0.5,0.8c-0.1,0.3-0.7-0.3-0.8,0s-0.2,0.7-0.2,1
				c0-0.2,0.3-0.6,0.5-0.6s0.8,0.8,0.7,1c0,0.2-0.5,0.3-0.6,0.4c0.3,0.6,0.7,0.6,1.3,0.9c-0.3,0.3-0.5,0-0.7,0
				c-0.4,0-0.2-0.3-0.7,0.1c-0.3,0.3,0.4,0.2,0.4,0.1c-0.1,0.2-0.8,0.4-0.7,0.7c0.2,0.3,0.3,0.6,0.5,0.9c0-0.1,0-0.3-0.1-0.5
				c0.5,0.3,1.1,1.7,1,0.4c0.1,0.2,0.2,0.3,0.3,0.5c0.1-0.4,0.2-0.7,0.6-0.9c0,0.3,0.2,0.7,0.1,1c-0.1,0.2-0.4,0.5-0.5,0.8
				c0.2-0.3,0.5,0.3,0.9,0.2c-0.2,0.2-0.8,0.9-0.6,1.1c-0.1-0.1,1.1-0.2,1.1-0.2c-0.7,1.4-1.5,2.6-1.8,4.2c-0.1,0.4,0,1.2,0.6,0.9
				c0.3-0.1,0.1-1.1,0.3-1.4c0.2-0.5,0.8-0.6,1.1-1c0.1-0.2,0-0.4,0.2-0.7c0.1-0.4,0.3-0.8,0.5-1.1c0.3-0.7,0.5-1.3,0.9-1.9
				c0.3-0.6,0.7-1.9,1.2-2.2c0,0.3,0,0.5,0,0.8c0.1-0.6,0.1-1.3,0-1.9c-0.1,0.3-0.4,0.3-0.7,0.1c0.4-0.2,0.5-0.9,0.6-1.3
				c-1.3-0.6-1.7-2.8-2.2-4.1c-0.2-0.4-0.5-0.7-0.4-1.2c0.3-1.3,1.9-2,2.7-2.6h-0.1c0.1,0,0.2,0,0.2-0.1c-0.7,0.6-1.8,1.1-2.3,2
				c-0.8,1.5,0.5,2.1,1.4,3c0.5,0.4,1.5,0.2,1.6,0.8c0.1,0.3-0.3,0.9-0.3,1.4c0.3-0.1,1.4-0.9,1-1.3c0.3-0.1,0.5-0.7,0.8-1
				c-0.1,0-0.2-0.1-0.2-0.1c0.2-0.2,1.5-0.5,0.8-0.8c0.3-0.3,0.7-0.5,0.9-0.8c0.1-0.1,0.2-0.6,0.4-0.8c0.4-0.5,0.1-0.4,0.2-0.9
				c0.1-0.2,0.2-0.4,0.2-0.5c0.1-0.4,0.1-0.8,0.4-1.3c0.1,0.6-0.2,1.2-0.1,1.8c0.2-1,0.2-2,0.4-2.9c0.1-0.5,0.2-1,0-1.3
				c-0.3-0.3-1.3-0.1-1.4-0.4c-0.1-0.4,1.2-1.5,1.4-2.1c0.1-0.1,0.1-0.3,0.1-0.4c0,0.1,0,0.2,0,0.2c0.4-1.1,0.3-1.7,0.2-2.9
				c0-0.1,0-0.2,0-0.3c0,0,0,0.1,0,0.2c0-0.1,0-0.2,0-0.2s0,0,0,0.1c0,0.5,0.1,1,0.2,1.6c0.1,0.8-0.4,1.5-0.4,2.3
				c-0.1,0.2-0.2,0.4-0.2,0.5c0.4,0,0.7,0,1,0c0.1,0,0.2,0,0.2,0c0.6,0,1.2-0.1,1.8-0.2c0.2-0.1,0.4-0.1,0.7-0.2
				c0.2,0,0.5-0.1,0.7-0.1c0.4-0.1,1.1-0.2,1.5-0.3c0.2-0.1,0.4-0.2,0.6-0.3c0.1,0,0.1,0,0.1,0c0.2-0.1,0.5,0,0.8-0.1
				c0.1-0.1,0.2-0.1,0.2-0.2c0.1-0.1,0.2-0.1,0.3-0.1s0.1,0,0.2,0c0.2-0.1,0.5-0.2,0.7-0.3c0.6-0.3,1.3-0.7,2-1
				c-1,0.1-1.9,0.2-2.8,0.2c0.2-0.2,0.5-0.6,0.9-0.8c-1.1,0.2-2.2,0.8-3.3,1.2c-0.6,0.1-1,0.1-1.6,0.3c-0.5,0.1-2.3-0.4-2.1,0.8
				c-0.1-0.2-0.2-0.3-0.2-0.3c-0.1-0.1-0.1,0-0.2,0.2c0,0,0,0-0.1,0s-0.1,0.2-0.2,0.2c-0.2,0-0.5-0.1-0.7,0.1
				c-0.1,0.1-0.2,0.3-0.3,0.5c0.1-0.2,0.2-0.5,0.3-0.6s0.3-0.1,0.4-0.1c0.4,0,0.1-0.1,0.1-0.2c0.4-0.4,0.7-0.9,1.2-1.2
				c1.1-0.6,2.2-1.2,3.4-1.8c0.6,0.4,2.1-0.4,2.9-0.3c1.3,0.1,2.8,0.3,4.1-0.2c0.5-0.2,0.5-2.5,0.5-3c0.3,0.9,0.9,0.5,1.4,0.2
				c-0.4,0.8-0.4,0.9-0.1,1.8c0.5-0.4,1.5-1.5,2.1-1.5c0.4,0,0.4,0.1,0.2,0.3c0.8,0.1,3.3,0.5,3.6-0.2c0.1-0.2,0-0.8-0.1-1
				c-0.1-0.5-0.4-1.2-0.8-1.4c0,0-0.8-0.2-0.7,0c0.2,0.2,0.5-0.1,0.6,0.1c0.2,0.2,0.2,0.4,0.3,0.7c0.5,0.9,0.4,1.2-0.6,1.4
				c-0.4,0.1-0.9,0.2-1.4-0.1c-0.4-0.4-0.4-1.3-0.6-1.8c-0.2-0.4-0.5-1.1-0.7-1.4c-0.7-0.7-0.8,0.4-1.5-0.9c0.4-0.1,0.7-1,1.2-1.3
				c0.4-0.2,1.5-0.4,0.9-0.9c-0.1,0.5-0.4,0.3-0.6,0.1c-0.6-0.9-0.4-2.3,0.2-3c0.8-1,2.2-2.2,2.5-3.5c0.2-1,0.3-1,1-1.6
				c0,0,0,0.1-0.1,0.2c0.7-0.3,0.7-0.3,1.1,0.6c-0.1-0.4-0.2-1-0.1-1.6c0,0.1,0,0.1,0,0.2c0-0.1,0-0.2,0-0.3c0,0.5,0.1,1,0.3,1.5
				c0.2-0.5,0.2-1.1,0.4-1.6l0,0c-0.2,0.4-0.1,1,0.3,1.2c0.1-0.3,0.1-0.5,0.1-0.8v0.1v-0.1c0,0.1,0,0.1,0.1,0.1
				c0.5-0.1,0.6-0.5,0.9-0.9c0,0.2,0,0.3,0,0.5c0.5,0,1.4,0,1.5-0.7c-0.5,0,0.6-1.8,0.8-2.1c0.1-0.2,0.8-1.8,0.8-0.9
				c0,0.2-0.2,0.6-0.3,0.7c0.1-0.1,0.3-0.1,0.4-0.1c-0.2,0.2-0.4,0.5-0.5,0.8c0.3-0.3,1.1,0.4,1.5,0.5c-0.2-0.6,0-1.3,0.4-1.7
				c0.3-0.2,1.2-0.4,1.2,0c0.5-0.2,0.4,0.5,0.7,1c0.2-0.3,0.2-0.7,0.4-1c0.1,0.2,0.2,0.5,0.4,0.6c0.1-0.4,0.3-1,0.6-1.3
				c0.5,0.4,1.4-0.8,2.1-0.6c0.3,0.1,0.4,0.6,0.7,0.3c0.3-0.3,0.7-0.6,1-0.9L723,1253.5z M675.5,1301.2c0.1,0.1,0.1,0.2,0.2,0.3
				C675.6,1301.4,675.5,1301.3,675.5,1301.2L675.5,1301.2z M709.3,1258.8c0,0.1-0.1,0.2-0.1,0.3
				C709.3,1259,709.3,1258.9,709.3,1258.8c-0.1,0.1-0.1,0.1-0.1,0.2C709.3,1258.9,709.3,1258.8,709.3,1258.8
				C709.3,1258.7,709.3,1258.7,709.3,1258.8z"/>
		</g>
	</g>
	<circle class="st31" cx="523.4" cy="1296.4" r="9"/>
	<circle class="st31" cx="466.3" cy="1324.6" r="9"/>
	<circle class="st31" cx="459.3" cy="1319.1" r="9"/>
	<circle class="st31" cx="496.9" cy="1298.7" r="9"/>
	<circle class="st31" cx="445" cy="1298.2" r="9"/>
	<circle class="st31" cx="449.7" cy="1301.5" r="9"/>
	<circle class="st31" cx="450.7" cy="1297.5" r="9"/>
	<circle class="st31" cx="457.2" cy="1290.5" r="9"/>
	<circle class="st31" cx="456.2" cy="1287.8" r="9"/>
	<circle class="st31" cx="442.8" cy="1240.2" r="9"/>
	<circle class="st31" cx="453.8" cy="1235.2" r="9"/>
	<circle class="st31" cx="448.8" cy="1225.2" r="9"/>
	<circle class="st31" cx="445.3" cy="1234.7" r="9"/>
	<circle class="st31" cx="441.3" cy="1246.3" r="9"/>
	<circle class="st31" cx="446.3" cy="1245.3" r="9"/>
	<circle class="st31" cx="580.8" cy="1353.3" r="9"/>
	<circle class="st31" cx="603.8" cy="1310.6" r="9"/>
	<circle class="st31" cx="649.1" cy="1374.3" r="9"/>
	<circle class="st31" cx="650.1" cy="1346.8" r="9"/>
	<circle class="st31" cx="639.9" cy="1314.2" r="9"/>
	<circle class="st31" cx="688.3" cy="1280.8" r="9"/>
	<circle class="st31" cx="684.4" cy="1283.5" r="9"/>
	<circle class="st31" cx="694.5" cy="1272.9" r="9"/>
	<circle class="st31" cx="697.5" cy="1268.9" r="9"/>
	<circle class="st31" cx="707.8" cy="1272.8" r="9"/>
	<circle class="st31" cx="698.4" cy="1257.1" r="9"/>
	<circle class="st31" cx="671.7" cy="1303.8" r="9"/>
	<circle class="st31" cx="670.2" cy="1305.3" r="9"/>
	<circle class="st31" cx="676.7" cy="1304.8" r="9"/>
	<circle class="st31" cx="676.7" cy="1306.8" r="9"/>
	<circle class="st31" cx="666.8" cy="1310.2" r="9"/>
	<circle class="st31" cx="675.2" cy="1295.7" r="9"/>
	<circle class="st31" cx="640.7" cy="1263.8" r="9"/>
	<circle class="st31" cx="633.4" cy="1263.6" r="9"/>
	<circle class="st31" cx="634.3" cy="1256.8" r="9"/>
	<circle class="st31" cx="615.3" cy="1274" r="9"/>
	<circle class="st31" cx="615.1" cy="1278.7" r="9"/>
	<circle class="st31" cx="681.7" cy="1286.3" r="9"/>
	<circle class="st31" cx="679.2" cy="1288.3" r="9"/>
	<circle class="st31" cx="678" cy="1289.2" r="9"/>
	<circle class="st31" cx="687.2" cy="1276" r="9"/>
	<g>
		<g>
			<g>
				<path class="st32" d="M535.7,975.8l0.3-0.2c0.7,1.7,2.1,3.1,3.7,3.1c1.6,0,2.9-1.4,3.7-3.1l0.3,0.2c0.2,0,0.4-0.2,0.5-0.5
					l0.2-1.7c0-0.2-0.1-0.5-0.3-0.5c0-2.3-1.9-4.2-4.2-4.2s-4.2,1.9-4.2,4.2c-0.2,0-0.4,0.3-0.3,0.5l0.1,1.7
					C535.3,975.6,535.5,975.8,535.7,975.8z M548.8,984.7c0-2.7-1.5-4.9-4.2-4.9h-9.8c-2.5,0-4,1.8-4.2,4.2c-0.1,0.2-0.1,0.4-0.1,0.6
					l-0.7,16c0,1.2,0.9,2.2,1.9,2.2c1.1,0,1.9-1,1.9-2.2v-14.8l0.9,10.4l0,0v26c0,1.3,1.1,2.3,2.4,2.2c1.2-0.1,2-1.2,2-2.3v-20.9
					c0.2,0,0.4,0,0.6,0c0.2,0,0.4,0,0.6,0v21c0,0.9,0.5,1.8,1.3,2.1c1.6,0.6,3.1-0.5,3.1-2v-26l0,0l0.8-9.8v14.3
					c0,1.2,0.9,2.2,2,2.2s2-1,2-2.2L548.8,984.7z"/>
			</g>
		</g>
		<g>
			<g>
				<path class="st32" d="M514.8,979C514.8,979,514.8,978.9,514.8,979l-0.3-3.3l0.2-0.4l0.1-1.7c0-0.2-0.1-0.5-0.3-0.5
					c0-2.3-1.9-4.2-4.3-4.2c-2.3,0-4.2,1.9-4.3,4.2c-0.2,0-0.4,0.3-0.3,0.5l0.1,1.7l0.2,0.4l-0.3,3.3l0,0H514.8z M523.6,998.8
					l-5.5-15.5L518,983c-0.5-2-1.9-3.4-4.1-3.4h-7.2c-2.2,0-3.7,1.5-4.1,3.6l-4.8,15.5c-0.2,1.2,0.4,2.3,1.5,2.5s2.1-0.6,2.3-1.8
					l3.8-14l-3.8,25.4l0,0h3.7l0,0v11.1c0,1.2,0.8,2.3,2,2.4c1.3,0.1,2.4-0.9,2.4-2.2v-11.2h1.3v11.1c0,1.2,0.8,2.3,2,2.4
					c1.3,0.1,2.4-0.9,2.4-2.2V1011l0,0h4.3l0,0l-4.3-25.4l4.4,14.2c0.3,1.2,1.4,2,2.4,1.7C523.2,1001.2,523.8,1000,523.6,998.8z"/>
			</g>
		</g>
		<g>
			<g>
				<path class="st32" d="M592.1,975.8l0.3-0.2c0.7,1.7,2.1,3.1,3.7,3.1c1.6,0,2.9-1.4,3.7-3.1l0.3,0.2c0.2,0,0.4-0.2,0.5-0.5
					l0.2-1.7c0-0.2-0.1-0.5-0.3-0.5c0-2.3-1.9-4.2-4.2-4.2s-4.2,1.9-4.2,4.2c-0.2,0-0.4,0.3-0.3,0.5l0.1,1.7
					C591.7,975.6,591.9,975.8,592.1,975.8z M605.2,984.7c0-2.7-1.5-4.9-4.2-4.9h-9.8c-2.5,0-4,1.8-4.2,4.2c-0.1,0.2-0.1,0.4-0.1,0.6
					l-0.7,16c0,1.2,0.9,2.2,1.9,2.2c1.1,0,1.9-1,1.9-2.2v-14.8l0.9,10.4l0,0v26c0,1.3,1.1,2.3,2.4,2.2c1.2-0.1,2-1.2,2-2.3v-20.9
					c0.2,0,0.4,0,0.6,0c0.2,0,0.4,0,0.6,0v21c0,0.9,0.5,1.8,1.3,2.1c1.6,0.6,3.1-0.5,3.1-2v-26l0,0l0.8-9.8v14.3
					c0,1.2,0.9,2.2,2,2.2s2-1,2-2.2L605.2,984.7z"/>
			</g>
		</g>
		<g>
			<g>
				<path class="st32" d="M573.2,979C573.2,979,573.2,978.9,573.2,979l-0.3-3.3l0.2-0.4l0.1-1.7c0-0.2-0.1-0.5-0.3-0.5
					c0-2.3-1.9-4.2-4.3-4.2c-2.3,0-4.2,1.9-4.3,4.2c-0.2,0-0.4,0.3-0.3,0.5l0.1,1.7l0.2,0.4L564,979l0,0H573.2z M582,998.8
					l-5.5-15.5l-0.1-0.3c-0.5-2-1.9-3.4-4.1-3.4h-7.2c-2.2,0-3.7,1.5-4.1,3.6l-4.8,15.5c-0.2,1.2,0.4,2.3,1.5,2.5s2.1-0.6,2.3-1.8
					l3.8-14l-3.8,25.4l0,0h3.7l0,0v11.1c0,1.2,0.8,2.3,2,2.4c1.3,0.1,2.4-0.9,2.4-2.2v-11.2h1.3v11.1c0,1.2,0.8,2.3,2,2.4
					c1.3,0.1,2.4-0.9,2.4-2.2V1011l0,0h4.3l0,0l-4.3-25.4l4.4,14.2c0.3,1.2,1.4,2,2.4,1.7C581.6,1001.2,582.3,1000,582,998.8z"/>
			</g>
		</g>
		<g>
			<g>
				<path class="st32" d="M629.8,979C629.8,979,629.9,978.9,629.8,979l-0.3-3.3l0.2-0.4l0.1-1.7c0-0.2-0.1-0.5-0.3-0.5
					c0-2.3-1.9-4.2-4.3-4.2c-2.3,0-4.2,1.9-4.3,4.2c-0.2,0-0.4,0.3-0.3,0.5l0.1,1.7l0.2,0.4l-0.3,3.3l0,0H629.8z M638.6,998.8
					l-5.5-15.5L633,983c-0.5-2-1.9-3.4-4.1-3.4h-7.2c-2.2,0-3.7,1.5-4.1,3.6l-4.8,15.5c-0.2,1.2,0.4,2.3,1.5,2.5s2.1-0.6,2.3-1.8
					l3.8-14l-3.8,25.4l0,0h3.7l0,0v11.1c0,1.2,0.8,2.3,2,2.4c1.3,0.1,2.4-0.9,2.4-2.2v-11.2h1.3v11.1c0,1.2,0.8,2.3,2,2.4
					c1.3,0.1,2.4-0.9,2.4-2.2V1011l0,0h4.3l0,0l-4.3-25.4l4.4,14.2c0.3,1.2,1.4,2,2.4,1.7C638.2,1001.2,638.9,1000,638.6,998.8z"/>
			</g>
		</g>
	</g>
	<g>
		<g>
			<path class="st33" d="M520.7,984.8l0.3-0.2c0.7,1.7,2.1,3.1,3.7,3.1c1.6,0,2.9-1.4,3.7-3.1l0.3,0.2c0.2,0,0.4-0.2,0.5-0.5
				l0.2-1.7c0-0.2-0.1-0.5-0.3-0.5c0-2.3-1.9-4.2-4.2-4.2s-4.2,1.9-4.2,4.2c-0.2,0-0.4,0.3-0.3,0.5l0.1,1.7
				C520.3,984.6,520.5,984.8,520.7,984.8z M533.8,993.7c0-2.7-1.5-4.9-4.2-4.9h-9.8c-2.5,0-4,1.8-4.2,4.2c-0.1,0.2-0.1,0.4-0.1,0.6
				l-0.7,16c0,1.2,0.9,2.2,1.9,2.2c1.1,0,1.9-1,1.9-2.2v-14.8l0.9,10.4l0,0v26c0,1.3,1.1,2.3,2.4,2.2c1.2-0.1,2-1.2,2-2.3v-20.9
				c0.2,0,0.4,0,0.6,0c0.2,0,0.4,0,0.6,0v21c0,0.9,0.5,1.8,1.3,2.1c1.6,0.6,3.1-0.5,3.1-2v-26l0,0l0.8-9.8v14.3c0,1.2,0.9,2.2,2,2.2
				s2-1,2-2.2L533.8,993.7z"/>
		</g>
	</g>
	<g>
		<g>
			<path class="st33" d="M499.8,988C499.8,988,499.8,987.9,499.8,988l-0.3-3.3l0.2-0.4l0.1-1.7c0-0.2-0.1-0.5-0.3-0.5
				c0-2.3-1.9-4.2-4.3-4.2c-2.3,0-4.2,1.9-4.3,4.2c-0.2,0-0.4,0.3-0.3,0.5l0.1,1.7l0.2,0.4l-0.3,3.3l0,0H499.8z M508.6,1007.8
				l-5.5-15.5L503,992c-0.5-2-1.9-3.4-4.1-3.4h-7.2c-2.2,0-3.7,1.5-4.1,3.6l-4.8,15.5c-0.2,1.2,0.4,2.3,1.5,2.5s2.1-0.6,2.3-1.8
				l3.8-14l-3.8,25.4l0,0h3.7l0,0v11.1c0,1.2,0.8,2.3,2,2.4c1.3,0.1,2.4-0.9,2.4-2.2v-11.2h1.3v11.1c0,1.2,0.8,2.3,2,2.4
				c1.3,0.1,2.4-0.9,2.4-2.2V1020l0,0h4.3l0,0l-4.3-25.4l4.4,14.2c0.3,1.2,1.4,2,2.4,1.7C508.2,1010.2,508.8,1009,508.6,1007.8z"/>
		</g>
	</g>
	<g>
		<g>
			<path class="st33" d="M577.1,984.8l0.3-0.2c0.7,1.7,2.1,3.1,3.7,3.1c1.6,0,2.9-1.4,3.7-3.1l0.3,0.2c0.2,0,0.4-0.2,0.5-0.5
				l0.2-1.7c0-0.2-0.1-0.5-0.3-0.5c0-2.3-1.9-4.2-4.2-4.2s-4.2,1.9-4.2,4.2c-0.2,0-0.4,0.3-0.3,0.5l0.1,1.7
				C576.7,984.6,576.9,984.8,577.1,984.8z M590.2,993.7c0-2.7-1.5-4.9-4.2-4.9h-9.8c-2.5,0-4,1.8-4.2,4.2c-0.1,0.2-0.1,0.4-0.1,0.6
				l-0.7,16c0,1.2,0.9,2.2,1.9,2.2c1.1,0,1.9-1,1.9-2.2v-14.8l0.9,10.4l0,0v26c0,1.3,1.1,2.3,2.4,2.2c1.2-0.1,2-1.2,2-2.3v-20.9
				c0.2,0,0.4,0,0.6,0c0.2,0,0.4,0,0.6,0v21c0,0.9,0.5,1.8,1.3,2.1c1.6,0.6,3.1-0.5,3.1-2v-26l0,0l0.8-9.8v14.3c0,1.2,0.9,2.2,2,2.2
				s2-1,2-2.2L590.2,993.7z"/>
		</g>
	</g>
	<g>
		<g>
			<path class="st33" d="M558.2,988C558.2,988,558.2,987.9,558.2,988l-0.3-3.3l0.2-0.4l0.1-1.7c0-0.2-0.1-0.5-0.3-0.5
				c0-2.3-1.9-4.2-4.3-4.2c-2.3,0-4.2,1.9-4.3,4.2c-0.2,0-0.4,0.3-0.3,0.5l0.1,1.7l0.2,0.4L549,988l0,0H558.2z M567,1007.8
				l-5.5-15.5l-0.1-0.3c-0.5-2-1.9-3.4-4.1-3.4h-7.2c-2.2,0-3.7,1.5-4.1,3.6l-4.8,15.5c-0.2,1.2,0.4,2.3,1.5,2.5s2.1-0.6,2.3-1.8
				l3.8-14l-3.8,25.4l0,0h3.7l0,0v11.1c0,1.2,0.8,2.3,2,2.4c1.3,0.1,2.4-0.9,2.4-2.2v-11.2h1.3v11.1c0,1.2,0.8,2.3,2,2.4
				c1.3,0.1,2.4-0.9,2.4-2.2V1020l0,0h4.3l0,0l-4.3-25.4l4.4,14.2c0.3,1.2,1.4,2,2.4,1.7C566.6,1010.2,567.3,1009,567,1007.8z"/>
		</g>
	</g>
	<g>
		<g>
			<path class="st33" d="M635.7,984.8l0.3-0.2c0.7,1.7,2.1,3.1,3.7,3.1c1.6,0,2.9-1.4,3.7-3.1l0.3,0.2c0.2,0,0.4-0.2,0.5-0.5
				l0.2-1.7c0-0.2-0.1-0.5-0.3-0.5c0-2.3-1.9-4.2-4.2-4.2s-4.2,1.9-4.2,4.2c-0.2,0-0.4,0.3-0.3,0.5l0.1,1.7
				C635.3,984.6,635.5,984.8,635.7,984.8z M648.8,993.7c0-2.7-1.5-4.9-4.2-4.9h-9.8c-2.5,0-4,1.8-4.2,4.2c-0.1,0.2-0.1,0.4-0.1,0.6
				l-0.7,16c0,1.2,0.9,2.2,1.9,2.2c1.1,0,1.9-1,1.9-2.2v-14.8l0.9,10.4l0,0v26c0,1.3,1.1,2.3,2.4,2.2c1.2-0.1,2-1.2,2-2.3v-20.9
				c0.2,0,0.4,0,0.6,0c0.2,0,0.4,0,0.6,0v21c0,0.9,0.5,1.8,1.3,2.1c1.6,0.6,3.1-0.5,3.1-2v-26l0,0l0.8-9.8v14.3c0,1.2,0.9,2.2,2,2.2
				s2-1,2-2.2L648.8,993.7z"/>
		</g>
	</g>
	<g>
		<g>
			<path class="st33" d="M614.8,988C614.8,988,614.9,987.9,614.8,988l-0.3-3.3l0.2-0.4l0.1-1.7c0-0.2-0.1-0.5-0.3-0.5
				c0-2.3-1.9-4.2-4.3-4.2c-2.3,0-4.2,1.9-4.3,4.2c-0.2,0-0.4,0.3-0.3,0.5l0.1,1.7l0.2,0.4l-0.3,3.3l0,0H614.8z M623.6,1007.8
				l-5.5-15.5L618,992c-0.5-2-1.9-3.4-4.1-3.4h-7.2c-2.2,0-3.7,1.5-4.1,3.6l-4.8,15.5c-0.2,1.2,0.4,2.3,1.5,2.5s2.1-0.6,2.3-1.8
				l3.8-14l-3.8,25.4l0,0h3.7l0,0v11.1c0,1.2,0.8,2.3,2,2.4c1.3,0.1,2.4-0.9,2.4-2.2v-11.2h1.3v11.1c0,1.2,0.8,2.3,2,2.4
				c1.3,0.1,2.4-0.9,2.4-2.2V1020l0,0h4.3l0,0l-4.3-25.4l4.4,14.2c0.3,1.2,1.4,2,2.4,1.7C623.2,1010.2,623.9,1009,623.6,1007.8z"/>
		</g>
	</g>
	<g class="st34">
		<polygon class="st15" points="450.5,1062.1 514.2,1027.4 630.8,1027.4 694.5,1062.1 		"/>
		<g>
			<path class="st1" d="M630.7,1028.1l61.3,33.4H453.1l61.3-33.4H630.7 M631,1026.8H514l-66,36h249L631,1026.8L631,1026.8z"/>
		</g>
	</g>
	<g>
		<g>
			<path class="st35" d="M505.7,1000.8l0.3-0.2c0.7,1.7,2.1,3.1,3.7,3.1c1.6,0,2.9-1.4,3.7-3.1l0.3,0.2c0.2,0,0.4-0.2,0.5-0.5
				l0.2-1.7c0-0.2-0.1-0.5-0.3-0.5c0-2.3-1.9-4.2-4.2-4.2s-4.2,1.9-4.2,4.2c-0.2,0-0.4,0.3-0.3,0.5l0.1,1.7
				C505.3,1000.6,505.5,1000.8,505.7,1000.8z M518.8,1009.7c0-2.7-1.5-4.9-4.2-4.9h-9.8c-2.5,0-4,1.8-4.2,4.2
				c-0.1,0.2-0.1,0.4-0.1,0.6l-0.7,16c0,1.2,0.9,2.2,1.9,2.2c1.1,0,1.9-1,1.9-2.2v-14.8l0.9,10.4l0,0v26c0,1.3,1.1,2.3,2.4,2.2
				c1.2-0.1,2-1.2,2-2.3v-20.9c0.2,0,0.4,0,0.6,0c0.2,0,0.4,0,0.6,0v21c0,0.9,0.5,1.8,1.3,2.1c1.6,0.6,3.1-0.5,3.1-2v-26l0,0
				l0.8-9.8v14.3c0,1.2,0.9,2.2,2,2.2s2-1,2-2.2L518.8,1009.7z"/>
		</g>
	</g>
	<g>
		<g>
			<path class="st35" d="M484.8,1004C484.8,1004,484.8,1003.9,484.8,1004l-0.3-3.3l0.2-0.4l0.1-1.7c0-0.2-0.1-0.5-0.3-0.5
				c0-2.3-1.9-4.2-4.3-4.2c-2.3,0-4.2,1.9-4.3,4.2c-0.2,0-0.4,0.3-0.3,0.5l0.1,1.7l0.2,0.4l-0.3,3.3l0,0H484.8z M493.6,1023.8
				l-5.5-15.5l-0.1-0.3c-0.5-2-1.9-3.4-4.1-3.4h-7.2c-2.2,0-3.7,1.5-4.1,3.6l-4.8,15.5c-0.2,1.2,0.4,2.3,1.5,2.5s2.1-0.6,2.3-1.8
				l3.8-14l-3.8,25.4l0,0h3.7l0,0v11.1c0,1.2,0.8,2.3,2,2.4c1.3,0.1,2.4-0.9,2.4-2.2v-11.2h1.3v11.1c0,1.2,0.8,2.3,2,2.4
				c1.3,0.1,2.4-0.9,2.4-2.2V1036l0,0h4.3l0,0l-4.3-25.4l4.4,14.2c0.3,1.2,1.4,2,2.4,1.7C493.2,1026.2,493.8,1025,493.6,1023.8z"/>
		</g>
	</g>
	<g>
		<g>
			<path class="st35" d="M562.1,1000.8l0.3-0.2c0.7,1.7,2.1,3.1,3.7,3.1c1.6,0,2.9-1.4,3.7-3.1l0.3,0.2c0.2,0,0.4-0.2,0.5-0.5
				l0.2-1.7c0-0.2-0.1-0.5-0.3-0.5c0-2.3-1.9-4.2-4.2-4.2s-4.2,1.9-4.2,4.2c-0.2,0-0.4,0.3-0.3,0.5l0.1,1.7
				C561.7,1000.6,561.9,1000.8,562.1,1000.8z M575.2,1009.7c0-2.7-1.5-4.9-4.2-4.9h-9.8c-2.5,0-4,1.8-4.2,4.2
				c-0.1,0.2-0.1,0.4-0.1,0.6l-0.7,16c0,1.2,0.9,2.2,1.9,2.2c1.1,0,1.9-1,1.9-2.2v-14.8l0.9,10.4l0,0v26c0,1.3,1.1,2.3,2.4,2.2
				c1.2-0.1,2-1.2,2-2.3v-20.9c0.2,0,0.4,0,0.6,0c0.2,0,0.4,0,0.6,0v21c0,0.9,0.5,1.8,1.3,2.1c1.6,0.6,3.1-0.5,3.1-2v-26l0,0
				l0.8-9.8v14.3c0,1.2,0.9,2.2,2,2.2s2-1,2-2.2L575.2,1009.7z"/>
		</g>
	</g>
	<g>
		<g>
			<path class="st35" d="M543.2,1004C543.2,1004,543.2,1003.9,543.2,1004l-0.3-3.3l0.2-0.4l0.1-1.7c0-0.2-0.1-0.5-0.3-0.5
				c0-2.3-1.9-4.2-4.3-4.2c-2.3,0-4.2,1.9-4.3,4.2c-0.2,0-0.4,0.3-0.3,0.5l0.1,1.7l0.2,0.4l-0.3,3.3l0,0H543.2z M552,1023.8
				l-5.5-15.5l-0.1-0.3c-0.5-2-1.9-3.4-4.1-3.4h-7.2c-2.2,0-3.7,1.5-4.1,3.6l-4.8,15.5c-0.2,1.2,0.4,2.3,1.5,2.5s2.1-0.6,2.3-1.8
				l3.8-14l-3.8,25.4l0,0h3.7l0,0v11.1c0,1.2,0.8,2.3,2,2.4c1.3,0.1,2.4-0.9,2.4-2.2v-11.2h1.3v11.1c0,1.2,0.8,2.3,2,2.4
				c1.3,0.1,2.4-0.9,2.4-2.2V1036l0,0h4.3l0,0l-4.3-25.4l4.4,14.2c0.3,1.2,1.4,2,2.4,1.7C551.6,1026.2,552.3,1025,552,1023.8z"/>
		</g>
	</g>
	<g>
		<g>
			<path class="st35" d="M620.7,1000.8l0.3-0.2c0.7,1.7,2.1,3.1,3.7,3.1c1.6,0,2.9-1.4,3.7-3.1l0.3,0.2c0.2,0,0.4-0.2,0.5-0.5
				l0.2-1.7c0-0.2-0.1-0.5-0.3-0.5c0-2.3-1.9-4.2-4.2-4.2s-4.2,1.9-4.2,4.2c-0.2,0-0.4,0.3-0.3,0.5l0.1,1.7
				C620.3,1000.6,620.5,1000.8,620.7,1000.8z M633.8,1009.7c0-2.7-1.5-4.9-4.2-4.9h-9.8c-2.5,0-4,1.8-4.2,4.2
				c-0.1,0.2-0.1,0.4-0.1,0.6l-0.7,16c0,1.2,0.9,2.2,1.9,2.2c1.1,0,1.9-1,1.9-2.2v-14.8l0.9,10.4l0,0v26c0,1.3,1.1,2.3,2.4,2.2
				c1.2-0.1,2-1.2,2-2.3v-20.9c0.2,0,0.4,0,0.6,0c0.2,0,0.4,0,0.6,0v21c0,0.9,0.5,1.8,1.3,2.1c1.6,0.6,3.1-0.5,3.1-2v-26l0,0
				l0.8-9.8v14.3c0,1.2,0.9,2.2,2,2.2s2-1,2-2.2L633.8,1009.7z"/>
		</g>
	</g>
	<g>
		<g>
			<path class="st35" d="M599.8,1004C599.8,1004,599.9,1003.9,599.8,1004l-0.3-3.3l0.2-0.4l0.1-1.7c0-0.2-0.1-0.5-0.3-0.5
				c0-2.3-1.9-4.2-4.3-4.2c-2.3,0-4.2,1.9-4.3,4.2c-0.2,0-0.4,0.3-0.3,0.5l0.1,1.7l0.2,0.4l-0.3,3.3l0,0H599.8z M608.6,1023.8
				l-5.5-15.5l-0.1-0.3c-0.5-2-1.9-3.4-4.1-3.4h-7.2c-2.2,0-3.7,1.5-4.1,3.6l-4.8,15.5c-0.2,1.2,0.4,2.3,1.5,2.5s2.1-0.6,2.3-1.8
				l3.8-14l-3.8,25.4l0,0h3.7l0,0v11.1c0,1.2,0.8,2.3,2,2.4c1.3,0.1,2.4-0.9,2.4-2.2v-11.2h1.3v11.1c0,1.2,0.8,2.3,2,2.4
				c1.3,0.1,2.4-0.9,2.4-2.2V1036l0,0h4.3l0,0l-4.3-25.4l4.4,14.2c0.3,1.2,1.4,2,2.4,1.7C608.2,1026.2,608.9,1025,608.6,1023.8z"/>
		</g>
	</g>
	<g>
		<g>
			<path class="st35" d="M656.2,1004C656.3,1004,656.3,1003.9,656.2,1004l-0.3-3.3l0.2-0.4l0.1-1.7c0-0.2-0.1-0.5-0.3-0.5
				c0-2.3-1.9-4.2-4.3-4.2c-2.3,0-4.2,1.9-4.3,4.2c-0.2,0-0.4,0.3-0.3,0.5l0.1,1.7l0.2,0.4l-0.3,3.3l0,0H656.2z M665,1023.8
				l-5.5-15.5l-0.1-0.3c-0.5-2-1.9-3.4-4.1-3.4h-7.2c-2.2,0-3.7,1.5-4.1,3.6l-4.8,15.5c-0.2,1.2,0.4,2.3,1.5,2.5s2.1-0.6,2.3-1.8
				l3.8-14l-3.8,25.4l0,0h3.7l0,0v11.1c0,1.2,0.8,2.3,2,2.4c1.3,0.1,2.4-0.9,2.4-2.2v-11.2h1.3v11.1c0,1.2,0.8,2.3,2,2.4
				c1.3,0.1,2.4-0.9,2.4-2.2V1036l0,0h4.3l0,0l-4.3-25.4l4.4,14.2c0.3,1.2,1.4,2,2.4,1.7C664.6,1026.2,665.3,1025,665,1023.8z"/>
		</g>
	</g>
	<g>
		<g>
			<g>
				<g>
					<path class="st36" d="M488.6,1007.9l0.3-0.2c0.8,1.8,2.3,3.3,4,3.3s3.2-1.5,4-3.3l0.3,0.2c0.2,0,0.5-0.2,0.5-0.5l0.2-1.9
						c0-0.3-0.1-0.5-0.3-0.5c0-2.5-2.1-4.6-4.6-4.6s-4.6,2-4.6,4.5c-0.2,0-0.4,0.3-0.4,0.6l0.2,1.9
						C488.2,1007.7,488.4,1007.9,488.6,1007.9z M502.8,1017.5c0-2.9-1.6-5.3-4.6-5.3h-10.6c-2.7,0-4.3,2-4.5,4.6
						c-0.1,0.2-0.1,0.5-0.1,0.7l-0.7,17.3c0,1.3,0.9,2.4,2.1,2.4c1.2,0,2.1-1.1,2.1-2.4v-16l1,11.2v28.1c0,1.3,1.1,2.4,2.4,2.4
						c1.3,0,2.4-1.1,2.4-2.4v-22.7c0.2,0,0.4,0,0.7,0c0.2,0,0.5,0,0.7,0v22.7c0,1.3,1.1,2.4,2.4,2.4c1.3,0,2.4-1.1,2.4-2.4V1030
						l0.9-10.6v15.4c0,1.3,1,2.4,2.1,2.4c1.2,0,2.1-1.1,2.1-2.4L502.8,1017.5z"/>
				</g>
			</g>
			<g>
				<g>
					<path class="st36" d="M468.2,1011.2l-0.4-3.6l0.2-0.4l0.2-1.9c0-0.3-0.1-0.5-0.3-0.6c0-2.5-2.1-4.6-4.6-4.6s-4.6,2-4.6,4.6
						c-0.2,0-0.4,0.3-0.4,0.6l0.2,1.9l0.2,0.4l-0.4,3.6H468.2z M477.7,1032.8l-6-16.7l-0.1-0.3c-0.5-2.1-2-3.7-4.4-3.7h-7.8
						c-2.4,0-4,1.6-4.4,3.9l-5.2,16.8c-0.2,1.3,0.5,2.5,1.6,2.7s2.2-0.7,2.5-2l4.1-15.1l-4.2,27.5h4v12.2c0,1.3,1.1,2.4,2.4,2.4
						c1.3,0,2.4-1.1,2.4-2.4v-12.2h1.4v12.2c0,1.3,1.1,2.4,2.4,2.4c1.3,0,2.4-1.1,2.4-2.4v-12.2h4.7l-4.7-27.5l4.8,15.3
						c0.3,1.3,1.5,2.1,2.6,1.9C477.3,1035.3,478,1034,477.7,1032.8z"/>
				</g>
			</g>
		</g>
		<g>
			<g>
				<g>
					<path class="st36" d="M547.5,1007.9l0.3-0.2c0.8,1.8,2.3,3.3,4,3.3s3.2-1.5,4-3.3l0.3,0.2c0.2,0,0.5-0.2,0.5-0.5l0.2-1.9
						c0-0.3-0.1-0.5-0.3-0.5c0-2.5-2.1-4.6-4.6-4.6s-4.6,2-4.6,4.5c-0.2,0-0.4,0.3-0.4,0.6l0.2,1.9
						C547,1007.7,547.2,1007.9,547.5,1007.9z M561.7,1017.5c0-2.9-1.6-5.3-4.6-5.3h-10.6c-2.7,0-4.3,2-4.5,4.6
						c-0.1,0.2-0.1,0.5-0.1,0.7l-0.7,17.3c0,1.3,0.9,2.4,2.1,2.4c1.2,0,2.1-1.1,2.1-2.4v-16l1,11.2v28.1c0,1.3,1.1,2.4,2.4,2.4
						c1.3,0,2.4-1.1,2.4-2.4v-22.7c0.2,0,0.4,0,0.7,0c0.2,0,0.5,0,0.7,0v22.7c0,1.3,1.1,2.4,2.4,2.4c1.3,0,2.4-1.1,2.4-2.4V1030
						l0.9-10.6v15.4c0,1.3,1,2.4,2.1,2.4c1.2,0,2.1-1.1,2.1-2.4L561.7,1017.5z"/>
				</g>
			</g>
			<g>
				<g>
					<path class="st36" d="M527.1,1011.2l-0.4-3.6l0.2-0.4l0.2-1.9c0-0.3-0.1-0.5-0.3-0.6c0-2.5-2.1-4.6-4.6-4.6s-4.6,2-4.6,4.6
						c-0.2,0-0.4,0.3-0.4,0.6l0.2,1.9l0.2,0.4l-0.4,3.6H527.1z M536.5,1032.8l-6-16.7l-0.1-0.3c-0.5-2.1-2-3.7-4.4-3.7h-7.8
						c-2.4,0-4,1.6-4.4,3.9l-5.2,16.8c-0.2,1.3,0.5,2.5,1.6,2.7s2.2-0.7,2.5-2l4.1-15.1l-4.2,27.5h4v12.2c0,1.3,1.1,2.4,2.4,2.4
						c1.3,0,2.4-1.1,2.4-2.4v-12.2h1.4v12.2c0,1.3,1.1,2.4,2.4,2.4c1.3,0,2.4-1.1,2.4-2.4v-12.2h4.7l-4.7-27.5l4.8,15.3
						c0.3,1.3,1.5,2.1,2.6,1.9C536.1,1035.3,536.8,1034,536.5,1032.8z"/>
				</g>
			</g>
		</g>
		<g>
			<g>
				<g>
					<path class="st36" d="M604.4,1007.9l0.3-0.2c0.8,1.8,2.3,3.3,4,3.3s3.2-1.5,4-3.3l0.3,0.2c0.2,0,0.5-0.2,0.5-0.5l0.2-1.9
						c0-0.3-0.1-0.5-0.3-0.5c0-2.5-2.1-4.6-4.6-4.6s-4.6,2-4.6,4.5c-0.2,0-0.4,0.3-0.4,0.6l0.2,1.9
						C603.9,1007.7,604.1,1007.9,604.4,1007.9z M618.5,1017.5c0-2.9-1.6-5.3-4.6-5.3h-10.6c-2.7,0-4.3,2-4.5,4.6
						c-0.1,0.2-0.1,0.5-0.1,0.7l-0.7,17.3c0,1.3,0.9,2.4,2.1,2.4c1.2,0,2.1-1.1,2.1-2.4v-16l1,11.2v28.1c0,1.3,1.1,2.4,2.4,2.4
						c1.3,0,2.4-1.1,2.4-2.4v-22.7c0.2,0,0.4,0,0.7,0c0.2,0,0.5,0,0.7,0v22.7c0,1.3,1.1,2.4,2.4,2.4c1.3,0,2.4-1.1,2.4-2.4V1030
						l0.9-10.6v15.4c0,1.3,1,2.4,2.1,2.4c1.2,0,2.1-1.1,2.1-2.4L618.5,1017.5z"/>
				</g>
			</g>
			<g>
				<g>
					<path class="st36" d="M584,1011.2l-0.4-3.6l0.2-0.4l0.2-1.9c0-0.3-0.1-0.5-0.3-0.6c0-2.5-2.1-4.6-4.6-4.6s-4.6,2-4.6,4.6
						c-0.2,0-0.4,0.3-0.4,0.6l0.2,1.9l0.2,0.4l-0.4,3.6H584z M593.4,1032.8l-6-16.7l-0.1-0.3c-0.5-2.1-2-3.7-4.4-3.7h-7.8
						c-2.4,0-4,1.6-4.4,3.9l-5.2,16.8c-0.2,1.3,0.5,2.5,1.6,2.7s2.2-0.7,2.5-2l4.1-15.1l-4.2,27.5h4v12.2c0,1.3,1.1,2.4,2.4,2.4
						c1.3,0,2.4-1.1,2.4-2.4v-12.2h1.4v12.2c0,1.3,1.1,2.4,2.4,2.4c1.3,0,2.4-1.1,2.4-2.4v-12.2h4.7l-4.7-27.5l4.8,15.3
						c0.3,1.3,1.5,2.1,2.6,1.9C593,1035.3,593.7,1034,593.4,1032.8z"/>
				</g>
			</g>
		</g>
		<g>
			<g>
				<g>
					<path class="st36" d="M663.2,1007.9l0.3-0.2c0.8,1.8,2.3,3.3,4,3.3s3.2-1.5,4-3.3l0.3,0.2c0.2,0,0.5-0.2,0.5-0.5l0.2-1.9
						c0-0.3-0.1-0.5-0.3-0.5c0-2.5-2.1-4.6-4.6-4.6s-4.6,2-4.6,4.5c-0.2,0-0.4,0.3-0.4,0.6l0.2,1.9
						C662.7,1007.7,663,1007.9,663.2,1007.9z M677.4,1017.5c0-2.9-1.6-5.3-4.6-5.3h-10.6c-2.7,0-4.3,2-4.5,4.6
						c-0.1,0.2-0.1,0.5-0.1,0.7l-0.7,17.3c0,1.3,0.9,2.4,2.1,2.4c1.2,0,2.1-1.1,2.1-2.4v-16l1,11.2v28.1c0,1.3,1.1,2.4,2.4,2.4
						c1.3,0,2.4-1.1,2.4-2.4v-22.7c0.2,0,0.4,0,0.7,0c0.2,0,0.5,0,0.7,0v22.7c0,1.3,1.1,2.4,2.4,2.4c1.3,0,2.4-1.1,2.4-2.4V1030
						l0.9-10.6v15.4c0,1.3,1,2.4,2.1,2.4c1.2,0,2.1-1.1,2.1-2.4L677.4,1017.5z"/>
				</g>
			</g>
			<g>
				<g>
					<path class="st36" d="M642.8,1011.2l-0.4-3.6l0.2-0.4l0.2-1.9c0-0.3-0.1-0.5-0.3-0.6c0-2.5-2.1-4.6-4.6-4.6s-4.6,2-4.6,4.6
						c-0.2,0-0.4,0.3-0.4,0.6l0.2,1.9l0.2,0.4l-0.4,3.6H642.8z M652.3,1032.8l-6-16.7l-0.1-0.3c-0.5-2.1-2-3.7-4.4-3.7H634
						c-2.4,0-4,1.6-4.4,3.9l-5.2,16.8c-0.2,1.3,0.5,2.5,1.6,2.7s2.2-0.7,2.5-2l4.1-15.1l-4.2,27.5h4v12.2c0,1.3,1.1,2.4,2.4,2.4
						c1.3,0,2.4-1.1,2.4-2.4v-12.2h1.4v12.2c0,1.3,1.1,2.4,2.4,2.4c1.3,0,2.4-1.1,2.4-2.4v-12.2h4.7l-4.7-27.5l4.8,15.3
						c0.3,1.3,1.5,2.1,2.6,1.9C651.9,1035.3,652.6,1034,652.3,1032.8z"/>
				</g>
			</g>
		</g>
	</g>
	<text transform="matrix(1 0 0 1 993.511 651.1396)" class="st1 st37 st38">%</text>
	<g>
		<polygon class="st1" points="1045.7,413.6 1045.7,409.2 1043.1,409.2 1043.1,411.1 1040.6,408.5 1033.6,415.5 1034.8,415.5 
			1034.8,422.5 1038.7,422.5 1038.7,416.8 1042.5,416.8 1042.5,422.5 1046.3,422.5 1046.3,415.5 1047.6,415.5 		"/>
	</g>
	<path class="st1" d="M846.8,856.3c-1.1-2.2-3.1-3.2-5-3.3c-3.9,0-6.7,2.8-6.8,6.2c0,2,0.8,3.6,2.1,5.1c1.4,1.6,2.9,3.1,3.7,5
		c0.1,0.2,0.4,0.5,0.5,0.5c0.2,0,0.4-0.3,0.5-0.5c0.6-1,1.1-2,1.8-2.9c0.9-1.2,2-2.2,2.8-3.4C847.9,860.9,848,858.6,846.8,856.3z
		 M841.3,862.6c-1.9,0-3.4-1.5-3.3-3.4c0-1.7,1.5-3.2,3.3-3.2s3.3,1.5,3.3,3.3C844.6,861,843.1,862.6,841.3,862.6z"/>
	<g>
		<path class="st0" d="M1186,207.8H881c-2.8,0-5-2.2-5-5v-13c0-2.8,2.2-5,5-5h305c2.8,0,5,2.2,5,5v13
			C1191,205.5,1188.8,207.8,1186,207.8z"/>
	</g>
	<path class="st2" d="M1014.9,209.8h-40.4c-2.2,0-3.9-1.8-3.9-3.9v-19.2c0-2.2,1.8-3.9,3.9-3.9h40.4c2.2,0,3.9,1.8,3.9,3.9v19.2
		C1018.8,208,1017,209.8,1014.9,209.8z"/>
	<g>
		<path class="st0" d="M1175.9,28.6H869.1c-2.3,0-4.1-1.9-4.1-4.1v-7.4c0-2.3,1.9-4.1,4.1-4.1h306.8c2.3,0,4.1,1.9,4.1,4.1v7.4
			C1180,26.7,1178.1,28.6,1175.9,28.6z"/>
	</g>
	<path class="st2" d="M1049.8,32.2H926.9c-2,0-3.6-1.6-3.6-3.6V14.3c0-2,1.6-3.6,3.6-3.6h122.9c2,0,3.6,1.6,3.6,3.6v14.3
		C1053.3,30.6,1051.7,32.2,1049.8,32.2z"/>
	<text transform="matrix(1 0 0 1 983.948 202.1365)" class="st1 st37 st38">$</text>
	<text transform="matrix(1 0 0 1 964.6521 25.1412)" class="st1 st37 st39">CLUSTER</text>
	<text transform="matrix(1 0 0 1 1073.8042 25.1412)" class="st40 st37 st39">UNITED STATES</text>
	<text transform="matrix(1 0 0 1 829.2198 25.1412)" class="st5 st37 st39">KEY:</text>
	<text transform="matrix(1 0 0 1 863.4969 56.1309)" class="st41 st11 st27">Lowest values</text>
	<text transform="matrix(1 0 0 1 1081.9937 54.1309)" class="st41 st11 st27">Highest values</text>
	<g>
		<g>
			<line class="st42" x1="864.5" y1="41.4" x2="864.5" y2="40.2"/>
			<line class="st43" x1="864.5" y1="37.7" x2="864.5" y2="3.6"/>
			<line class="st42" x1="864.5" y1="2.3" x2="864.5" y2="1.1"/>
		</g>
	</g>
	<line class="st44" x1="923.7" y1="41.4" x2="923.7" y2="1.1"/>
	<g>
		<g>
			<line class="st42" x1="1179.8" y1="41.4" x2="1179.8" y2="40.2"/>
			<line class="st43" x1="1179.8" y1="37.7" x2="1179.8" y2="3.6"/>
			<line class="st42" x1="1179.8" y1="2.3" x2="1179.8" y2="1.1"/>
		</g>
	</g>
	<g>
		<g>
			<line class="st42" x1="1053.5" y1="41.4" x2="1053.5" y2="40.2"/>
			<line class="st43" x1="1053.5" y1="37.7" x2="1053.5" y2="3.6"/>
			<line class="st42" x1="1053.5" y1="2.3" x2="1053.5" y2="1.1"/>
		</g>
	</g>
	<rect x="328" y="237" class="st22" width="260" height="47.9"/>
	<text transform="matrix(1 0 0 1 328.0156 248.2785)" class="st13 st6 st9">$3,941,406  </text>
	<text transform="matrix(1 0 0 1 328.0156 266.2785)" class="st13 st11 st45">Basic Center Grant</text>
	<rect x="567" y="590.3" class="st22" width="197" height="109.4"/>
	<text transform="matrix(1 0 0 1 567.0363 601.6416)" class="st13 st6 st9">$1,677,894  </text>
	<text transform="matrix(1 0 0 1 567.0363 619.6416)" class="st13 st11 st45">Transitional Housing Assis</text>
	<text transform="matrix(1 0 0 1 735.2363 619.6416)" class="st13 st11 st45">-</text>
	<text transform="matrix(1 0 0 1 567.0363 637.6416)" class="st13 st11 st45">tance for Victims of Domestic </text>
	<text transform="matrix(1 0 0 1 567.0363 655.6416)" class="st13 st11 st45">Violence, Dating Violence, </text>
	<text transform="matrix(1 0 0 1 567.0363 673.6416)" class="st13 st11 st45">Stalking, or Sexual Assault</text>
	<rect x="472" y="302.4" class="st22" width="175.1" height="77.4"/>
	<text transform="matrix(1 0 0 1 472.0299 313.7176)" class="st13 st6 st9">$2,975,748  </text>
	<text transform="matrix(1 0 0 1 472.0299 331.7176)" class="st13 st11 st45">Homeless Veterans  </text>
	<text transform="matrix(1 0 0 1 472.0299 349.7176)" class="st13 st11 st45">Reintegration Program</text>
	<rect x="567" y="467.1" class="st22" width="182" height="89.4"/>
	<text transform="matrix(1 0 0 1 567.0363 478.3865)" class="st13 st6 st9">$1,921,018  </text>
	<text transform="matrix(1 0 0 1 567.0363 496.3865)" class="st13 st11 st45">Transitional Living for </text>
	<text transform="matrix(1 0 0 1 567.0363 514.3865)" class="st13 st11 st45">Homeless Youth</text>
	<rect x="15" y="785.4" class="st22" width="194" height="67.4"/>
	<text transform="matrix(1 0 0 1 15.0157 796.6553)" class="st13 st6 st9">$14,092,984  </text>
	<text transform="matrix(1 0 0 1 15.0157 814.6553)" class="st13 st11 st45">VA Homeless Providers Grant </text>
	<text transform="matrix(1 0 0 1 15.0157 832.6553)" class="st13 st11 st45">and Per Diem Program </text>
	<g>
		<path class="st0" d="M1082.3,1102.8H899.2c-2.3,0-4.2-1.9-4.2-4.2V1084c0-2.3,1.9-4.2,4.2-4.2h183.1c2.3,0,4.2,1.9,4.2,4.2v14.6
			C1086.5,1100.9,1084.6,1102.8,1082.3,1102.8z"/>
	</g>
	<path class="st2" d="M1072.3,1104.8H904.4c-3.6,0-6.5-2.9-6.5-6.5v-14c0-3.6,2.9-6.5,6.5-6.5h167.9c3.6,0,6.5,2.9,6.5,6.5v14
		C1078.8,1101.9,1075.9,1104.8,1072.3,1104.8z"/>
	<g>
		<path class="st1" d="M922.7,1089.4c0.3,0.1,0.5,0.1,0.7,0.3c0.5,0.3,0.8,0.8,0.8,1.3c0,2.5,0,4.9,0,7.4c0,0.8-0.6,1.4-1.5,1.5
			c-0.6,0-1.1,0-1.7,0c-2.3,0-4.7,0-7,0c-1.1,0-1.7-0.6-1.7-1.7c0-2.3,0-4.5,0-6.8c0-1.1,0.4-1.7,1.5-1.9c0-0.7,0-1.4,0-2.1
			c0-2.2,1.3-3.9,3.5-4.4c2.5-0.6,5.1,1.2,5.4,3.7c0.1,0.8,0,1.6,0.1,2.4C922.7,1089.2,922.7,1089.3,922.7,1089.4z M913.8,1098.4
			c3,0,5.9,0,8.9,0c0-2.5,0-4.9,0-7.4c-3,0-5.9,0-8.9,0C913.8,1093.5,913.8,1095.9,913.8,1098.4z M921.2,1089.5c0-0.8,0-1.7,0-2.5
			c-0.1-1.5-1.3-2.6-2.9-2.7c-1.4-0.1-2.8,1-3,2.4c-0.1,0.9,0,1.9,0,2.8C917.3,1089.5,919.2,1089.5,921.2,1089.5z"/>
		<path class="st1" d="M918.1,1092.5c0.8,0,1.3,0.4,1.5,1s0,1.2-0.4,1.7c-0.1,0.1-0.2,0.3-0.2,0.4c0,0.2,0,0.5,0,0.7
			c0,0.4-0.4,0.7-0.7,0.7c-0.4,0-0.7-0.3-0.7-0.7c0-0.1,0-0.2,0-0.3c0-0.4,0-0.7-0.3-1c-0.5-0.4-0.5-1.1-0.3-1.6
			C917.2,1092.7,917.7,1092.5,918.1,1092.5z"/>
	</g>
	<text transform="matrix(1 0 0 1 483.6797 1313.4614)" class="st1 st6 st46">36,638,787</text>
	<g>
		<g>
			<line class="st47" x1="17.2" y1="1192" x2="19.9" y2="1192"/>
			<line class="st48" x1="22.5" y1="1192" x2="256.3" y2="1192"/>
			<line class="st47" x1="257.6" y1="1192" x2="260.3" y2="1192"/>
		</g>
	</g>
	<rect x="567" y="710.4" class="st22" width="191" height="126.4"/>
	<text transform="matrix(1 0 0 1 567.0365 721.7208)" class="st13 st6 st9">$300,000    </text>
	<text transform="matrix(1 0 0 1 567.0365 739.7208)" class="st13 st11 st45">Education and Prevention </text>
	<text transform="matrix(1 0 0 1 567.0365 757.7208)" class="st13 st11 st45">Grants to Reduce Sexual </text>
	<text transform="matrix(1 0 0 1 567.0365 775.7208)" class="st13 st11 st45">Abuse of Runaway, Homeless </text>
	<text transform="matrix(1 0 0 1 567.0365 793.7208)" class="st13 st11 st45">and Street Youth</text>
	<g>
		<circle class="st1" cx="325.6" cy="600" r="164.4"/>
	</g>
	<text transform="matrix(1 0 0 1 290.3249 601.4534)" class="st13 st8 st14">11%</text>
	<g>
		<g>
			<line class="st49" x1="333" y1="418.6" x2="333.5" y2="277.8"/>
			<g>
				<path class="st50" d="M336.8,418.4c0,2.1-1.7,3.8-3.8,3.7s-3.8-1.7-3.7-3.8c0-2.1,1.7-3.8,3.8-3.7
					C335.1,414.6,336.8,416.3,336.8,418.4z"/>
			</g>
		</g>
	</g>
	<g>
		<g>
			<line class="st49" x1="478" y1="493.6" x2="478" y2="363.8"/>
			<g>
				<circle class="st50" cx="478" cy="493.4" r="3.8"/>
			</g>
		</g>
	</g>
	<g>
		<g>
			<polyline class="st49" points="514.9,593.4 542,592.8 542,473.9 557,473.9 			"/>
			<g>
				<path class="st50" d="M515.2,597.1c-2.1,0-3.8-1.6-3.8-3.7c0-2.1,1.6-3.8,3.7-3.8c2.1,0,3.8,1.6,3.8,3.7
					C518.9,595.4,517.2,597.1,515.2,597.1z"/>
			</g>
		</g>
	</g>
	<g>
		<g>
			<polyline class="st49" points="498.9,673.8 543,673.8 543,618.8 557,618.8 			"/>
			<g>
				<path class="st50" d="M499.1,677.6c-2.1,0-3.8-1.7-3.8-3.8s1.7-3.8,3.8-3.8s3.8,1.7,3.8,3.8S501.2,677.6,499.1,677.6z"/>
			</g>
		</g>
	</g>
	<g>
		<g>
			<line class="st49" x1="475.9" y1="717.8" x2="557" y2="717.8"/>
			<g>
				<path class="st50" d="M476.1,721.6c-2.1,0-3.8-1.7-3.8-3.8s1.7-3.8,3.8-3.8s3.8,1.7,3.8,3.8S478.2,721.6,476.1,721.6z"/>
			</g>
		</g>
	</g>
	<g>
		<g>
			<line class="st49" x1="191.1" y1="727.9" x2="105" y2="789.8"/>
			<g>
				<path class="st50" d="M188.8,724.9c1.7-1.2,4-0.8,5.2,0.9s0.8,4-0.9,5.2c-1.7,1.2-4,0.8-5.2-0.9
					C186.7,728.5,187.1,726.1,188.8,724.9z"/>
			</g>
		</g>
	</g>
	<g>
		<text transform="matrix(1 0 0 1 293.7832 645.595)" class="st13 st37 st16"> $24,909,050</text>
	</g>
	<g>
		<rect x="264.2" y="614.7" class="st0" width="13" height="13"/>
	</g>
	<g>
		<text transform="matrix(1 0 0 1 284.7737 624.5814)" class="st13 st37 st16">Other Programs</text>
	</g>
	<g>
		<circle class="st1" cx="145.9" cy="250.1" r="91.9"/>
	</g>
	<g>
		<text transform="matrix(1 0 0 1 99.7832 279.5375)" class="st13 st37 st16">Continuum of Care</text>
	</g>
	<line class="st51" x1="130.7" y1="625.1" x2="90.4" y2="176.8"/>
	<line class="st51" x1="147.4" y1="158.3" x2="455" y2="444.8"/>
	<text transform="matrix(1 0 0 1 109.0132 299.7906)" class="st13 st37 st16"> $196,301,757</text>
	<text transform="matrix(1 0 0 1 105.3344 254.4615)" class="st13 st8 st14">89%</text>
	<rect x="79.9" y="268.5" class="st2" width="13" height="13"/>
</g>
</svg>
