<?xml version="1.0" encoding="utf-8"?>
<!-- Generator: Adobe Illustrator 22.1.0, SVG Export Plug-In . SVG Version: 6.00 Build 0)  -->
<svg version="1.1" id="Layer_1" xmlns="http://www.w3.org/2000/svg" xmlns:xlink="http://www.w3.org/1999/xlink" x="0px" y="0px"
	 viewBox="0 0 1258 1400" style="enable-background:new 0 0 1258 1400;" xml:space="preserve">
<style type="text/css">
	.st0{fill:#D3D3EA;}
	.st1{fill:#FFFFFF;}
	.st2{fill:#280C60;}
	.st3{opacity:0.2;fill:none;stroke:#380A6D;stroke-linecap:round;stroke-miterlimit:10;enable-background:new    ;}
	.st4{fill:#E0E0E0;}
	.st5{fill:none;stroke:#D1D1D1;stroke-linecap:round;stroke-miterlimit:10;}
	.st6{fill:#A7A7D8;}
	.st7{fill:#380A6D;}
	.st8{fill:#212121;}
	.st9{font-family:'SourceSansPro-Semibold';}
	.st10{font-size:20px;}
	.st11{font-family:'SourceSansPro-Light';}
	.st12{font-size:16px;}
	.st13{font-size:22px;}
	.st14{font-family:'SourceSansPro-Regular';}
	.st15{font-size:36px;}
	.st16{fill:#3F3F3F;}
	.st17{font-size:56px;}
	.st18{font-size:14px;}
	.st19{fill:#848484;}
	.st20{clip-path:url(#SVGID_2_);}
	.st21{fill:#BF56B8;}
	.st22{fill:#462E82;}
	.st23{fill:none;stroke:#FFFFFF;stroke-width:2.6418;stroke-miterlimit:10;}
	.st24{fill:none;stroke:#FFFFFF;stroke-width:2.6418;stroke-miterlimit:10;stroke-dasharray:5.2256,2.6128;}
	.st25{fill:none;}
	.st26{font-size:24px;}
	.st27{fill:#353535;}
	.st28{font-size:50px;}
	.st29{font-family:'SourceSansPro-Bold';}
	.st30{font-size:12px;}
	.st31{fill:none;stroke:#636363;stroke-width:2;stroke-linecap:round;stroke-miterlimit:10;}
	.st32{fill:#636363;}
	.st33{fill:#B7B7B7;}
	.st34{font-size:34px;}
	.st35{opacity:0.6;fill:#380A6D;enable-background:new    ;}
	.st36{fill:#D3D3D3;}
	.st37{fill:#AAAAAA;}
	.st38{opacity:0.15;fill:#380A6D;enable-background:new    ;}
	.st39{fill:#7C7C7C;}
	.st40{fill:#565656;}
	.st41{font-size:18px;}
	.st42{font-size:11px;}
	.st43{fill:#7A7A7A;}
	.st44{fill:none;stroke:#AAAAAA;stroke-width:0.7921;stroke-linecap:round;stroke-miterlimit:10;}
	.st45{fill:none;stroke:#AAAAAA;stroke-width:0.7921;stroke-linecap:round;stroke-miterlimit:10;stroke-dasharray:2.5279,2.5279;}
	.st46{font-size:15px;}
	.st47{fill:none;stroke:#808080;stroke-miterlimit:10;}
	.st48{fill:#808080;}
</style>
<g>
	<g>
		<g>
			<g>
				<g>
					<path class="st0" d="M78.5,142.5c19.2-11.4,38.9-17,61.9-17.5l2.1,122.4L78.5,142.5z"/>
					<path class="st1" d="M139.9,125.5l2.1,120.2l-62.9-103C98,131.5,117.3,126,139.9,125.5 M140.8,124.6
						c-23.1,0.4-43.2,5.9-63,17.8L143,249.1L140.8,124.6L140.8,124.6z"/>
				</g>
			</g>
		</g>
		<g>
			<g>
				<g>
					<path class="st2" d="M142,373.3c-68.4,0-124.1-55.7-124.1-124.1c0-45.1,21.2-82.8,59.8-106.1l64.8,107.8V125
						c68.2,0.3,123.6,55.8,123.6,124.1C266.1,317.6,210.4,373.3,142,373.3z"/>
					<path class="st1" d="M143,125.5c32.6,0.3,63.3,13.1,86.4,36.2c23.3,23.3,36.2,54.4,36.2,87.4s-12.9,64.1-36.2,87.4
						c-23.3,23.3-54.4,36.2-87.4,36.2s-64.1-12.9-87.4-36.2c-23.3-23.3-36.2-54.4-36.2-87.4c0-22.6,5.2-43.2,15.4-61.2
						c10.1-17.8,24.8-32.7,43.7-44.2l63.7,106l1.9,3.1v-3.7V125.5 M142,124.5v124.6L77.8,142.3c-39.2,23.5-60.4,61.1-60.4,106.8
						c0,68.8,55.8,124.6,124.6,124.6S266.6,318,266.6,249.1S210.8,124.5,142,124.5L142,124.5z"/>
				</g>
			</g>
		</g>
	</g>
</g>
<g>
	<circle class="st1" cx="141.4" cy="250.9" r="91.9"/>
</g>
<line class="st3" x1="123.5" y1="620.6" x2="96.8" y2="170.3"/>
<line class="st3" x1="138.6" y1="159.2" x2="460.5" y2="451.6"/>
<g>
	<g>
		<g>
			<g>
				<g>
					<path class="st0" d="M525.9,554.2c2.5,10,4.2,20.3,5.1,30.5l-196.4,17.2L525.9,554.2z"/>
					<path class="st1" d="M525.5,554.9c2.3,9.6,4,19.4,4.9,29.2l-188.2,16.5L525.5,554.9 M526.4,553.4L327,603.1l204.7-17.9
						C530.7,574.5,529,563.9,526.4,553.4L526.4,553.4z"/>
				</g>
			</g>
		</g>
		<g>
			<g>
				<g>
					<path class="st0" d="M514.4,520.4c4.6,10.5,8.4,21.5,11.2,32.6l-192.1,47.9L514.4,520.4z"/>
					<path class="st1" d="M514.1,521.2c4.4,10.1,8.1,20.7,10.8,31.4l-184.8,46.1L514.1,521.2 M514.7,519.6L327,603.1l199.4-49.7
						C523.5,541.9,519.5,530.5,514.7,519.6L514.7,519.6z"/>
				</g>
			</g>
		</g>
		<g>
			<g>
				<g>
					<path class="st0" d="M493.1,483.2c8.9,12.3,14.6,22.2,20.8,36l-181.9,81L493.1,483.2z"/>
					<path class="st1" d="M493,484.1c8.6,11.9,14.1,21.5,20.1,34.9L337,597.4L493,484.1 M493.2,482.4L327,603.1l187.7-83.6
						C508.3,505.2,502.5,495.1,493.2,482.4L493.2,482.4z"/>
				</g>
			</g>
		</g>
		<g>
			<g>
				<g>
					<path class="st0" d="M453.6,442.1c15.3,12,27.3,24.4,38.8,40.2L330.1,600.1L453.6,442.1z"/>
					<path class="st1" d="M453.7,442.9c14.9,11.7,26.6,23.9,37.8,39.2l-158.2,115L453.7,442.9 M453.5,441.2L327,603.1l166.2-120.8
						C481.4,466.1,469.3,453.6,453.5,441.2L453.5,441.2z"/>
				</g>
			</g>
		</g>
		<g>
			<g>
				<g>
					<path class="st0" d="M324,398.3c1.1,0,2.3,0,3.4,0c46.9,0,87.9,14.1,125.2,43.1l-125,160L324,398.3z"/>
					<path class="st1" d="M327.5,398.9c23.3,0,45.6,3.6,66.3,10.8c20.4,7,39.9,17.7,58.1,31.8L328.1,599.7l-3.5-200.8
						C325.6,398.9,326.5,398.9,327.5,398.9L327.5,398.9 M327.5,397.7c-1.3,0-2.7,0-4.1,0l3.6,205.4l126.5-161.9
						C416.2,412.1,374.5,397.7,327.5,397.7L327.5,397.7z"/>
				</g>
			</g>
		</g>
		<g>
			<g>
				<g>
					<path class="st0" d="M326.7,808c-51,0-100-19-137.8-53.5c-38.1-34.7-61.5-82.1-66-133.5c-9.8-112.5,73.7-212.1,186.2-221.9
						c5.7-0.5,8.2-0.6,13.7-0.7l3.6,205.5L531.1,586c9.5,112.3-73.9,211.5-186.3,221.3C338.9,807.7,332.8,808,326.7,808
						C326.8,808,326.8,808,326.7,808z"/>
					<path class="st1" d="M322.2,398.9l3.6,204.2v1.3l1.3-0.1l203.5-17.8c2.2,27.1-0.9,53.8-9.2,79.4c-8.1,25.2-20.9,48.2-37.9,68.5
						c-17.1,20.3-37.5,36.9-60.9,49.3c-24.2,12.8-50.3,20.5-77.8,22.9c-6,0.5-12.1,0.8-18,0.8c-50.9,0-99.7-18.9-137.4-53.4
						c-38-34.6-61.3-81.9-65.8-133.1c-2.4-27.5,0.6-54.6,9.1-80.6c8.1-25.1,20.9-48.2,37.9-68.5c17.1-20.3,37.5-36.9,60.9-49.3
						c24.2-12.8,50.3-20.5,77.8-22.9C314.6,399.2,317.2,399,322.2,398.9 M323.4,397.7c-5.9,0.1-8.4,0.2-14.3,0.8
						c-113,9.9-196.7,109.5-186.8,222.6c9.4,107,99.1,187.6,204.4,187.6c6,0,12.1-0.3,18.1-0.8c113-9.9,196.7-109.5,186.8-222.6
						L327,603.1L323.4,397.7L323.4,397.7z"/>
				</g>
			</g>
		</g>
	</g>
</g>
<g>
	<rect x="829.5" y="409.7" class="st4" width="396" height="13"/>
</g>
<g>
	<rect x="829.5" y="190.3" class="st4" width="396" height="13"/>
</g>
<line class="st5" x1="829.5" y1="433.3" x2="829.5" y2="398.3"/>
<line class="st5" x1="928.5" y1="433.2" x2="928.5" y2="398.2"/>
<line class="st5" x1="1027.5" y1="433.3" x2="1027.5" y2="398.3"/>
<line class="st5" x1="1126.5" y1="433.3" x2="1126.5" y2="398.3"/>
<line class="st5" x1="1225.5" y1="433.3" x2="1225.5" y2="398.3"/>
<g>
	<path class="st6" d="M1182.5,427.7h-237c-2.8,0-5-2.2-5-5v-13c0-2.8,2.2-5,5-5h237c2.8,0,5,2.2,5,5v13
		C1187.5,425.4,1185.3,427.7,1182.5,427.7z"/>
</g>
<path class="st2" d="M1138.5,429.7h-122c-2.2,0-4-1.8-4-4v-19c0-2.2,1.8-4,4-4h122c2.2,0,4,1.8,4,4v19
	C1142.5,427.9,1140.7,429.7,1138.5,429.7z"/>
<g>
	<rect x="829.5" y="638.7" class="st4" width="396" height="13"/>
</g>
<line class="st5" x1="829.5" y1="662.3" x2="829.5" y2="627.3"/>
<line class="st5" x1="928.5" y1="662.2" x2="928.5" y2="627.2"/>
<line class="st5" x1="1027.5" y1="662.3" x2="1027.5" y2="627.3"/>
<line class="st5" x1="1126.5" y1="662.3" x2="1126.5" y2="627.3"/>
<line class="st5" x1="1225.5" y1="662.3" x2="1225.5" y2="627.3"/>
<g>
	<path class="st6" d="M1218.5,656.7h-280c-2.8,0-5-2.2-5-5v-13c0-2.8,2.2-5,5-5h280c2.8,0,5,2.2,5,5v13
		C1223.5,654.4,1221.3,656.7,1218.5,656.7z"/>
</g>
<path class="st2" d="M1213.5,658.7h-191c-2.2,0-4-1.8-4-4v-19c0-2.2,1.8-4,4-4h191c2.2,0,4,1.8,4,4v19
	C1217.5,656.9,1215.7,658.7,1213.5,658.7z"/>
<g>
	<rect x="829.5" y="1085.7" class="st4" width="396" height="13"/>
</g>
<line class="st5" x1="829.5" y1="1109.3" x2="829.5" y2="1074.3"/>
<line class="st5" x1="1027.5" y1="1109.3" x2="1027.5" y2="1074.3"/>
<line class="st5" x1="1225.5" y1="1109.3" x2="1225.5" y2="1074.3"/>
<g>
	<rect x="829.5" y="855.7" class="st4" width="396" height="13"/>
</g>
<line class="st5" x1="829.5" y1="869.3" x2="829.5" y2="834.3"/>
<line class="st5" x1="928.5" y1="879.2" x2="928.5" y2="844.2"/>
<line class="st5" x1="1027.5" y1="879.3" x2="1027.5" y2="844.3"/>
<line class="st5" x1="1126.5" y1="879.3" x2="1126.5" y2="844.3"/>
<line class="st5" x1="1225.5" y1="879.3" x2="1225.5" y2="844.3"/>
<g>
	<path class="st6" d="M1190.5,873.7h-352c-2.8,0-5-2.2-5-5v-13c0-2.8,2.2-5,5-5h352c2.8,0,5,2.2,5,5v13
		C1195.5,871.4,1193.3,873.7,1190.5,873.7z"/>
</g>
<path class="st7" d="M852.5,875.7h-15c-2.2,0-4-1.8-4-4v-19c0-2.2,1.8-4,4-4h15c2.2,0,4,1.8,4,4v19
	C856.5,873.9,854.7,875.7,852.5,875.7z"/>
<g>
	<circle class="st1" cx="325.1" cy="603.9" r="164.4"/>
</g>
<rect x="441.5" y="1064.6" class="st2" width="250" height="34"/>
<g>
	<text transform="matrix(1 0 0 1 426.4856 1181.3658)" class="st8 st9 st10">Total Population </text>
	<text transform="matrix(1 0 0 1 426.4856 1201.3658)" class="st8 st11 st12">Total population in this cluster</text>
</g>
<text transform="matrix(1 0 0 1 7.4856 924.3659)" class="st8 st9 st13">Number of People Experiencing </text>
<text transform="matrix(1 0 0 1 7.4856 946.3659)" class="st8 st9 st13">Homelessness</text>
<text transform="matrix(1 0 0 1 7.4856 966.3659)" class="st8 st11 st12">People experiencing homelssness on a single night </text>
<text transform="matrix(1 0 0 1 7.4856 986.3659)" class="st8 st11 st12">in Janurary in this cluster</text>
<text transform="matrix(1 0 0 1 6.4856 37.3658)" class="st7 st14 st15">Facts about Cluster 1</text>
<text transform="matrix(1 0 0 1 824.4856 327.3739)" class="st8 st9 st13">Rent</text>
<text transform="matrix(1 0 0 1 824.4856 347.3739)" class="st8 st11 st12">Range of median gross rents for areas within this cluster</text>
<text transform="matrix(1 0 0 1 833.4856 1221.3658)" class="st8 st9 st10">Beds Available</text>
<text transform="matrix(1 0 0 1 833.4856 1241.3658)" class="st8 st11 st12">Total sheltered and permanent beds available within this cluster</text>
<g>
	<g>
		<path class="st2" d="M241.3,1162c0,15.5-12.5,28-28,28s-28-12.5-28-28s12.5-28,28-28S241.3,1146.6,241.3,1162z"/>
		<path class="st2" d="M241.4,1192.2h-18.6h-19h-18.6c-7.6,0-13.9,6.4-14,14.3c7.6,4.1,12.7,12.2,12.7,21.5c0,0,0.9,59.2,1.3,59.2
			v63.9c0,8,6.3,14.5,14,14.5s14-6.5,14-14.5c0,8,6.3,14.5,14,14.5s14-6.5,14-14.5v-64c7.7,0,14-6.5,14-14.5v-65.9
			C255.5,1198.7,249.2,1192.2,241.4,1192.2z"/>
	</g>
	<g>
		<ellipse class="st2" cx="54.5" cy="1162" rx="28" ry="28"/>
		<path class="st2" d="M82.6,1228c0-11,4.1-20.3,13.9-23.3c-0.9-7.1-6.8-12.6-13.9-12.6H64H45H26.5c-7.7,0-14,6.5-14,14.5v65.9
			c0,8,6.3,14.5,14,14.5v63.9c0,8,6.3,14.5,14,14.5s14-6.5,14-14.5c0,8,6.3,14.5,14,14.5s14-6.5,14-14.5v-26.6V1228H82.6z"/>
	</g>
	<path class="st2" d="M167.9,1144.8H144h-24.4H95.7c-9.9,0-18,8.4-18,18.7v84.6c0,10.3,8.1,18.7,18,18.7v82.1
		c0,10.3,8.1,18.7,18,18.7s18-8.4,18-18.7c0,10.3,8.1,18.7,18,18.7s18-8.4,18-18.7v-82.1c9.9,0,18-8.4,18-18.7v-84.6
		C185.9,1153.2,177.8,1144.8,167.9,1144.8z"/>
	<path class="st2" d="M167.7,1106.6c0,19.8-16.1,35.9-35.9,35.9s-35.9-16.1-35.9-35.9s16.1-35.9,35.9-35.9
		C151.6,1070.6,167.7,1086.7,167.7,1106.6z"/>
</g>
<text transform="matrix(1 0 0 1 270.4856 1238.3693)" class="st16 st14 st12">60.4% are</text>
<text transform="matrix(1 0 0 1 270.4856 1256.3693)" class="st16 st14 st12">individuals</text>
<text transform="matrix(1 0 0 1 271.8377 1165.3658)" class="st16 st14 st12">39.6% are</text>
<text transform="matrix(1 0 0 1 270.3377 1183.3658)" class="st16 st14 st12">in families</text>
<g>
	<text transform="matrix(1 0 0 1 4.4539 1047.3658)" class="st16 st11 st17">169,971 people </text>
</g>
<text transform="matrix(1 0 0 1 824.4856 548.3771)" class="st8 st9 st13">Rent as Percent of Income</text>
<text transform="matrix(1 0 0 1 824.4856 568.3771)" class="st8 st11 st12">Range of 20th percentile incomes to annualized rents for areas  </text>
<text transform="matrix(1 0 0 1 824.4856 588.3771)" class="st8 st11 st12">within this cluster</text>
<text transform="matrix(1 0 0 1 824.4856 109.3739)" class="st8 st9 st13">Income</text>
<text transform="matrix(1 0 0 1 824.4856 129.3739)" class="st8 st11 st12">Range of 20th percentile incomes for areas within this cluster</text>
<text transform="matrix(1 0 0 1 865.2393 251.041)" class="st7 st9 st18">CLUSTER MEDIAN: $11,170</text>
<text transform="matrix(1 0 0 1 917.3357 173.0409)" class="st19 st14 st18">$10K</text>
<text transform="matrix(1 0 0 1 964.5857 173.0409)" class="st19 st14 st18">$15K</text>
<text transform="matrix(1 0 0 1 873.2849 173.0409)" class="st19 st14 st18">$5K</text>
<text transform="matrix(1 0 0 1 826.0349 173.0409)" class="st19 st14 st18">$0K</text>
<text transform="matrix(1 0 0 1 1106.3357 173.0409)" class="st19 st14 st18">$30K</text>
<text transform="matrix(1 0 0 1 1153.5857 173.0409)" class="st19 st14 st18">$35K</text>
<text transform="matrix(1 0 0 1 1011.8357 173.0409)" class="st19 st14 st18">$20K</text>
<text transform="matrix(1 0 0 1 1059.0857 173.0409)" class="st19 st14 st18">$25K</text>
<text transform="matrix(1 0 0 1 1200.8357 173.0409)" class="st19 st14 st18">$40K</text>
<line class="st5" x1="829.5" y1="214.3" x2="829.5" y2="179.3"/>
<line class="st5" x1="928.5" y1="214.2" x2="928.5" y2="179.2"/>
<line class="st5" x1="879" y1="214.2" x2="879" y2="179.2"/>
<line class="st5" x1="978" y1="214.2" x2="978" y2="179.2"/>
<line class="st5" x1="1077" y1="214.2" x2="1077" y2="179.2"/>
<line class="st5" x1="1176" y1="214.2" x2="1176" y2="179.2"/>
<line class="st5" x1="1027.5" y1="214.3" x2="1027.5" y2="179.3"/>
<line class="st5" x1="1126.5" y1="214.3" x2="1126.5" y2="179.3"/>
<line class="st5" x1="1225.5" y1="214.3" x2="1225.5" y2="179.3"/>
<g>
	<g>
		<defs>
			<rect id="SVGID_1_" x="4.5" y="1215.9" width="258.9" height="166.4"/>
		</defs>
		<clipPath id="SVGID_2_">
			<use xlink:href="#SVGID_1_"  style="overflow:visible;"/>
		</clipPath>
		<g class="st20">
			<g>
				<g>
					<path class="st21" d="M241.3,1163.4c0,15.5-12.5,28-28,28s-28-12.5-28-28s12.5-28,28-28S241.3,1147.9,241.3,1163.4z"/>
				</g>
				<path class="st22" d="M241.4,1193.5h-18.6h-19h-18.6c-7.6,0-13.9,6.4-14,14.3c7.6,4.1,12.7,12.2,12.7,21.5
					c0,0,0.9,59.2,1.3,59.2v63.9c0,8,6.3,14.5,14,14.5s14-6.5,14-14.5c0,8,6.3,14.5,14,14.5s14-6.5,14-14.5v-63.9
					c7.7,0,14-6.5,14-14.5v-65.9C255.5,1200,249.2,1193.5,241.4,1193.5z"/>
			</g>
			<g>
				<g>
					<ellipse class="st21" cx="54.6" cy="1163.3" rx="28" ry="28"/>
				</g>
				<path class="st22" d="M82.6,1229.3c0-11,4.1-20.3,13.9-23.3c-0.9-7.1-6.8-12.6-13.9-12.6H64H45H26.5c-7.7,0-14,6.5-14,14.5v65.9
					c0,8,6.3,14.5,14,14.5v63.9c0,8,6.3,14.5,14,14.5s14-6.5,14-14.5c0,8,6.3,14.5,14,14.5s14-6.5,14-14.5v-26.6v-96.3H82.6z"/>
			</g>
			<path class="st22" d="M167.9,1146.1H144h-24.4H95.7c-9.9,0-18,8.4-18,18.7v84.6c0,10.3,8.1,18.7,18,18.7v82.1
				c0,10.3,8.1,18.7,18,18.7s18-8.4,18-18.7c0,10.3,8.1,18.7,18,18.7s18-8.4,18-18.7v-82.1c9.9,0,18-8.4,18-18.7v-84.6
				C185.9,1154.5,177.8,1146.1,167.9,1146.1z"/>
			<g>
				<path class="st21" d="M167.7,1107.9c0,19.8-16.1,35.9-35.9,35.9s-35.9-16.1-35.9-35.9s16.1-35.9,35.9-35.9
					C151.6,1072,167.7,1088.1,167.7,1107.9z"/>
			</g>
		</g>
	</g>
</g>
<g>
	<g>
		<line class="st23" x1="12.4" y1="1214.6" x2="15.1" y2="1214.6"/>
		<line class="st24" x1="17.7" y1="1214.6" x2="251.5" y2="1214.6"/>
		<line class="st23" x1="252.8" y1="1214.6" x2="255.5" y2="1214.6"/>
	</g>
</g>
<g>
	<polygon class="st25" points="528.5,137.3 9.5,137.3 8.5,86.3 527.5,86.3 	"/>
	<text transform="matrix(1 0 0 1 8.7898 101.8982)" class="st8 st9 st13">Federal Spending on Homelessness</text>
</g>
<g>
	<path class="st2" d="M957.4,1340.8c0,3.6,0,7,0,10.5c0,2.3,1.2,3.3,3.4,3.3c2.9,0,5.8,0,8.7,0c2.7,0,3.7-1,3.7-3.8
		c0-7,0-13.9,0-20.9c0-4.9-0.2-5.1-5-5.1c-37.7,0-75.5,0-113.2,0c-1.1,0-2.2,0-3.5,0c0-1.4,0-2.4,0-3.4c0-14,0-28,0-42.1
		c0-2.7-0.5-5.1-2.6-7c-2.6-2.3-5.6-2.6-8.6-1.4c-3.2,1.3-4.7,4.1-4.7,7.5c0,9.9,0,19.7,0,29.6c0,14.1,0,28.2,0,42.3
		c0,3.2,0.9,4.1,4.1,4.1c2.4,0,4.8,0,7.2,0c3.7,0,4.5-0.8,4.6-4.5c0-3.1,0-6.2,0-9.4C886.9,1340.8,921.9,1340.8,957.4,1340.8z
		 M894.4,1320.6c1,0.1,1.5,0.2,2.1,0.2c21.8,0,43.6,0,65.4,0c1.9,0,2.5-0.8,2.6-2.4c0.1-3.4,0.4-6.8,0.1-10.2
		c-0.8-11-9.1-18.9-20.1-19c-16-0.2-32,0-48-0.1c-1.7,0-2.1,0.6-2.1,2.2c0.1,5.4,0,10.8,0,16.2
		C894.4,1311.7,894.4,1316,894.4,1320.6z M880.3,1311.3c-1.2,0-2.1,0-3,0c-5.6,0-11.3,0-16.9,0c-2.8,0-4.7,1.9-4.8,4.7
		c-0.1,2.8,1.8,5.1,4.6,5.1c8.4,0.1,16.7,0.1,25.1,0c2.7,0,4.7-2.1,4.8-4.8c0.1-7.5,0.1-14.9,0-22.4c0-2.7-2.4-4.9-5-4.8
		c-2.5,0.1-4.7,2.1-4.8,4.8c-0.1,4.8,0,9.6-0.1,14.4C880.3,1309.2,880.3,1310.1,880.3,1311.3z M866.1,1306.6c6.7,0,12-5.1,11.9-11.6
		c0-6.4-5.3-11.7-11.7-11.7c-6.6,0-11.9,5.2-11.9,11.7C854.5,1301.4,859.6,1306.5,866.1,1306.6z"/>
	<path class="st2" d="M957.4,1340.8c-35.4,0-70.5,0-105.9,0c0,3.1,0,6.3,0,9.4c0,3.7-0.8,4.5-4.6,4.5c-2.4,0-4.8,0-7.2,0
		c-3.2,0-4.1-0.9-4.1-4.1c0-14.1,0-28.2,0-42.3c0-9.9,0-19.7,0-29.6c0-3.5,1.5-6.2,4.7-7.5c3-1.2,6-0.9,8.6,1.4
		c2.1,1.9,2.6,4.3,2.6,7c0,14,0,28,0,42.1c0,1,0,2,0,3.4c1.3,0,2.4,0,3.5,0c37.7,0,75.5,0,113.2,0c4.8,0,5,0.2,5,5.1
		c0,7,0,13.9,0,20.9c0,2.8-1,3.7-3.7,3.8c-2.9,0-5.8,0-8.7,0c-2.2,0-3.4-1-3.4-3.3C957.4,1347.8,957.4,1344.4,957.4,1340.8z"/>
	<path class="st2" d="M894.4,1320.6c0-4.5,0-8.8,0-13.1c0-5.4,0-10.8,0-16.2c0-1.6,0.4-2.2,2.1-2.2c16,0.1,32-0.1,48,0.1
		c11,0.1,19.3,8,20.1,19c0.3,3.4,0,6.8-0.1,10.2c0,1.6-0.7,2.5-2.6,2.4c-21.8-0.1-43.6,0-65.4,0
		C895.9,1320.8,895.3,1320.7,894.4,1320.6z"/>
	<path class="st2" d="M880.3,1311.3c0-1.2,0-2.1,0-3c0-4.8,0-9.6,0.1-14.4c0.1-2.6,2.3-4.7,4.8-4.8c2.6-0.1,5,2.1,5,4.8
		c0.1,7.5,0.1,14.9,0,22.4c0,2.7-2.1,4.7-4.8,4.8c-8.4,0.1-16.7,0.1-25.1,0c-2.8,0-4.7-2.3-4.6-5.1c0.1-2.7,1.9-4.6,4.8-4.7
		c5.6-0.1,11.3,0,16.9,0C878.3,1311.3,879.2,1311.3,880.3,1311.3z"/>
	<path class="st2" d="M866.1,1306.6c-6.5,0-11.7-5.2-11.6-11.6c0-6.5,5.3-11.7,11.9-11.7c6.4,0,11.7,5.3,11.7,11.7
		C878.1,1301.4,872.8,1306.6,866.1,1306.6z"/>
</g>
<g>
	<text transform="matrix(1 0 0 1 529.1521 1090.3658)" class="st1 st9 st26">11,758</text>
</g>
<g>
	<text transform="matrix(1 0 0 1 426.4856 925.3659)" class="st8 st9 st13">Population Density</text>
	<text transform="matrix(1 0 0 1 426.4856 945.3659)" class="st8 st11 st12">Number of people per square mile in this cluster</text>
</g>
<text transform="matrix(1 0 0 1 992.1525 1350.4243)" class="st27 st11 st28">122,995 beds</text>
<text transform="matrix(1 0 0 1 278.5023 605.3604)" class="st16 st11 st17">8.3%</text>
<g>
	<rect x="260.7" y="618.5" class="st0" width="13" height="13"/>
</g>
<g>
	<text transform="matrix(1 0 0 1 281.2445 628.4883)" class="st16 st29 st18">Other Programs</text>
</g>
<g>
	<text transform="matrix(1 0 0 1 289.2532 647.5001)" class="st16 st29 st18"> $39,665,582</text>
</g>
<text transform="matrix(1 0 0 1 824.4856 773.3938)" class="st8 st9 st13">Land Area</text>
<text transform="matrix(1 0 0 1 824.4856 793.3938)" class="st8 st11 st12">Range of land area in square miles for areas within this cluster</text>
<g>
	<text transform="matrix(1 0 0 1 839.3271 919.0593)" class="st7 st9 st18">CLUSTER MEDIAN: 56</text>
</g>
<text transform="matrix(1 0 0 1 827.0066 826.0524)" class="st19 st14 st18">0</text>
<text transform="matrix(1 0 0 1 1199.8357 836.0604)" class="st19 st14 st18">600K</text>
<text transform="matrix(1 0 0 1 1018.8357 836.0604)" class="st19 st14 st18">300K</text>
<text transform="matrix(1 0 0 1 1113.8357 836.0604)" class="st19 st14 st18">450K</text>
<text transform="matrix(1 0 0 1 913.8357 836.0604)" class="st19 st14 st18">150K</text>
<g>
	<text transform="matrix(1 0 0 1 1032.1389 699.0441)" class="st7 st9 st18">CLUSTER MEDIAN: 141%</text>
</g>
<text transform="matrix(1 0 0 1 826.5188 621.0441)" class="st19 st14 st18">0%</text>
<text transform="matrix(1 0 0 1 920.3196 621.0441)" class="st19 st14 st18">50%</text>
<text transform="matrix(1 0 0 1 1115.1208 621.0441)" class="st19 st14 st18">150%</text>
<text transform="matrix(1 0 0 1 1012.1208 621.0441)" class="st19 st14 st18">100%</text>
<text transform="matrix(1 0 0 1 1201.1208 621.0441)" class="st19 st14 st18">200%</text>
<text transform="matrix(1 0 0 1 980.1965 471.041)" class="st7 st9 st18">CLUSTER MEDIAN: $1,264</text>
<text transform="matrix(1 0 0 1 1008.7478 392.041)" class="st19 st14 st18">$1,000</text>
<text transform="matrix(1 0 0 1 825.8079 392.041)" class="st19 st14 st18">$0</text>
<text transform="matrix(1 0 0 1 1194.7478 392.041)" class="st19 st14 st18">$2,000</text>
<text transform="matrix(1 0 0 1 824.4856 997.3959)" class="st8 st9 st13">Property Crime Rate</text>
<text transform="matrix(1 0 0 1 824.4856 1017.3959)" class="st8 st11 st12">Range of property crime incidents per 100K people for areas  </text>
<text transform="matrix(1 0 0 1 824.4856 1037.3959)" class="st8 st11 st12">within this cluster</text>
<g>
	<text transform="matrix(1 0 0 1 869.1502 1149.0612)" class="st7 st9 st18">CLUSTER MEDIAN: 2,630</text>
</g>
<text transform="matrix(1 0 0 1 826.0026 1068.0629)" class="st19 st14 st18">0</text>
<text transform="matrix(1 0 0 1 1214.0437 1068.0629)" class="st19 st14 st18">10K</text>
<text transform="matrix(1 0 0 1 1020.4004 1068.5629)" class="st19 st14 st18">5K</text>
<line class="st5" x1="869.1" y1="1109.3" x2="869.1" y2="1074.3"/>
<text transform="matrix(1 0 0 1 862.898 1068.5629)" class="st19 st14 st18">1K</text>
<line class="st5" x1="908.7" y1="1109.3" x2="908.7" y2="1074.3"/>
<text transform="matrix(1 0 0 1 901.8956 1068.5629)" class="st19 st14 st18">2K</text>
<line class="st5" x1="948.3" y1="1109.3" x2="948.3" y2="1074.3"/>
<text transform="matrix(1 0 0 1 941.8909 1068.5629)" class="st19 st14 st18">3K</text>
<line class="st5" x1="987.9" y1="1109.3" x2="987.9" y2="1074.3"/>
<text transform="matrix(1 0 0 1 980.894 1068.5629)" class="st19 st14 st18">4K</text>
<line class="st5" x1="1067.1" y1="1109.3" x2="1067.1" y2="1074.3"/>
<text transform="matrix(1 0 0 1 1059.9004 1068.5629)" class="st19 st14 st18">6K</text>
<line class="st5" x1="1106.7" y1="1109.3" x2="1106.7" y2="1074.3"/>
<text transform="matrix(1 0 0 1 1099.394 1068.5629)" class="st19 st14 st18">7K</text>
<line class="st5" x1="1146.3" y1="1109.3" x2="1146.3" y2="1074.3"/>
<text transform="matrix(1 0 0 1 1138.3916 1068.5629)" class="st19 st14 st18">8K</text>
<line class="st5" x1="1185.9" y1="1109.3" x2="1185.9" y2="1074.3"/>
<text transform="matrix(1 0 0 1 1178.9043 1068.5629)" class="st19 st14 st18">9K</text>
<text transform="matrix(1 0 0 1 1204.4856 899.7214)" class="st14 st30"> </text>
<g>
	<g>
		<line class="st31" x1="1101" y1="682.8" x2="1101" y2="665.4"/>
		<g>
			<path class="st32" d="M1101,665.8c-1,1-3.1,1.5-4.5,1.6c1.9-1.4,3.6-3.3,4.5-5.5c0.9,2.3,2.7,4,4.5,5.5
				C1104,667.3,1102.1,666.9,1101,665.8z"/>
		</g>
	</g>
</g>
<g>
	<g>
		<line class="st31" x1="844.5" y1="903.7" x2="844.5" y2="882.2"/>
		<g>
			<path class="st32" d="M844.5,882.6c-1,1-3.1,1.5-4.5,1.6c1.9-1.4,3.6-3.3,4.5-5.5c0.9,2.3,2.7,4,4.5,5.5
				C847.5,884.1,845.6,883.7,844.5,882.6z"/>
		</g>
	</g>
</g>
<g>
	<g>
		<line class="st31" x1="932.5" y1="1133.7" x2="932.5" y2="1112.2"/>
		<g>
			<path class="st32" d="M932.5,1112.6c-1,1-3.1,1.5-4.5,1.6c1.9-1.4,3.6-3.3,4.5-5.5c0.9,2.3,2.7,4,4.5,5.5
				C935.5,1114.1,933.6,1113.7,932.5,1112.6z"/>
		</g>
	</g>
</g>
<g>
	<g>
		<line class="st31" x1="944.5" y1="235.7" x2="944.5" y2="218.2"/>
		<g>
			<path class="st32" d="M944.5,218.6c-1,1-3.1,1.5-4.5,1.6c1.9-1.4,3.6-3.3,4.5-5.5c0.9,2.3,2.7,4,4.5,5.5
				C947.5,220.1,945.6,219.7,944.5,218.6z"/>
		</g>
	</g>
</g>
<g>
	<g>
		<line class="st31" x1="1052.5" y1="454.7" x2="1052.5" y2="437.2"/>
		<g>
			<path class="st32" d="M1052.5,437.6c-1,1-3.1,1.5-4.5,1.6c1.9-1.4,3.6-3.3,4.5-5.5c0.9,2.3,2.7,4,4.5,5.5
				C1055.5,439.1,1053.6,438.7,1052.5,437.6z"/>
		</g>
	</g>
</g>
<g>
	<g>
		<path class="st33" d="M718.5,1254.4v-0.3c0,0-0.1,0.1-0.1,0.2c0-0.2-0.1-0.3-0.2-0.4c-0.2,0.4-0.7-0.2-0.3-0.4
			c0.1,0,0.1,0,0.2-0.1l0,0v-0.1H718l-0.1-0.2v-0.1h-0.1l-0.1-0.2v-0.1l0,0l-0.1-0.2l0,0h-0.1h-0.1v0.1l-0.2,0.1h-0.3l-0.2-0.1
			l-0.1-0.1l-0.1-0.1l-0.1-0.2l-0.1-0.2l0,0l-0.1-0.1v-0.1l-0.1-0.1l-0.1-0.2v-0.2l0.1-0.2h0.1v-0.1l0.1-0.2l-0.2-0.1l-0.1-0.2v-0.5
			l0.1-0.2l0.1-0.1h-0.4l-0.2-0.1l-0.1-0.1h-0.2l-0.2-0.1v-0.1H715v-0.1h-0.1l-0.2-0.1l-0.2-0.2l-0.1-0.1h-0.1l-0.1-0.2l0.1-0.2
			l-0.1-0.2v-0.2l0.1-0.2h0.1v-0.1v-0.3v-0.1v-0.1v-7.8c-0.1,0-0.1-0.1-0.1-0.1h-0.1l-0.2-0.1v-0.1l-0.1-0.1l-0.1-0.1h-0.1l-0.1-0.2
			v-0.1h-0.1l-0.1-0.1l-0.1-0.1v-0.1h-0.1l-0.2-0.1l-0.1-0.1l-0.1-0.1v-0.1h-0.1l-0.2-0.1l-0.1-0.1h-0.1v-0.1h-0.1l-0.2-0.1v-0.1
			h-0.1v0.2l-0.1,0.2l-0.2,0.1h-0.5H711h-0.1h-0.2l-0.1,0.1h-0.1l-0.1,0.1l-0.2,0.1h-0.5l-0.1,0.1l-0.2,0.1h-0.1v0.1l-0.2,0.1h-0.3
			l-0.2-0.1v-0.1h-0.1l-0.2-0.1l-0.1-0.1h0.3l-0.2-0.1l-0.1-0.2l0,0l-0.1-0.1v-0.1l-0.1-0.1v-0.6h-0.1l-0.1-0.1l-0.2-0.1l-0.2,0.2
			l-0.2,0.3l0,0l-0.3,0.5v0.1l-0.3,0.3l0,0l-0.3,0.3l-0.3,0.3l-0.3,0.5l0,0l-0.3,0.3l-0.3,0.5l-0.3,0.5l-0.3,0.5l-0.1,0.1l-0.3,0.3
			l-0.3,0.3l-0.3,1.8v0.1l-0.1,0.2l-0.2,0.1h-0.1v0.1H703v0.1h-0.1v0.1l-0.1,0.3l-0.2,0.1l0,0v0.2l-0.1,0.2l0.1,0.1
			c0.1,0,0.1,0.1,0.2,0.2c0,0.1,0,0.3-0.1,0.4l-0.1,0.1l0,0l-0.1,0.2h-0.1v0.1l-0.1,0.2l0.2,0.1l0.1,0.2v0.5l-0.1,0.2l-0.1,0.1v0.1
			h-0.1l-0.1,0.2l-0.2,0.1l0,0l-0.1,0.1l0,0l0,0c0.1,0.1,0.1,0.2,0.1,0.4c0,0.1-0.1,0.1-0.2,0.2v0.1h-0.1l-0.1,0.1l-0.2,0.1h-0.1
			l-0.1,0.1l-0.2,0.1h-0.1v0.1h-0.1v0.1l-0.2,0.1l0,0l0,0l-0.1,0.2h-0.1c0,0.1,0,0.1-0.1,0.2l0,0h0.1v0.1h0.1l0.1,0.2h0.1l0.1,0.2
			v0.2l-0.1,0.2l-0.2,0.1h-0.4l-0.2-0.1l0,0v0.1v0.2l-0.1,0.2l-0.1,0.2l0,0v0.1l-0.1,0.2l-0.2,0.1h-0.2l-0.2-0.1l-0.1-0.2v-0.1h-0.1
			v-0.2h-0.1v0.1l-0.2,0.1l0,0l0,0l-0.1,0.2l-0.2,0.1h-0.3l-0.2-0.1l-0.1-0.1l0,0l-0.2-0.1v-0.1l-0.1,0.1l-0.1,0.1v0.1h-0.1v0.3
			l-0.1,0.2h-0.1v0.1l-0.1,0.2h-0.1l-0.1,0.1l-0.1,0.1v0.2c0,0.2-0.1,0.3-0.3,0.3H695l-0.2,0.1h-0.1H691l-0.2-0.1l-0.1-0.1h-3.5
			l-0.4,0.1h-0.1h-6.9h-0.1l0,0h-0.1v0.1l-0.2,0.1h-0.3v0.1l-0.2,0.1l0,0l-0.1,0.1l-0.2,0.1h-0.2v0.1l-0.1,0.1l-0.1,0.1l-0.2,0.1
			h-0.2l-0.1,0.1l-0.1,0.1v0.1l-0.2,0.2c-0.1,0.1-0.1,0.1-0.1,0.1l-0.1,0.1l-0.2,0.1h-0.1c0,0.1-0.1,0.1-0.1,0.1l-0.2,0.1l-0.1,0.1
			l-0.5,0.5l-0.1,0.1l-0.3,0.2v0.1l0,0l-0.1,0.2l-0.2,0.1h-0.1l0,0l-0.1,0.3l-0.1,0.1l-0.1,0.2l-0.1,0.3l-0.1,0.2l-0.3,0.1l-0.1,0.1
			l-0.2,0.1h-0.2l-0.1,0.2c-0.1,0.1-0.1,0.2-0.2,0.2h-0.2v0.2l-0.1,0.2l-0.2,0.1h-0.6l-0.1,0.1l-0.2,0.1l-0.1,0.2l-0.1,0.1l-0.3,0.3
			l-0.6,0.8l-0.6,1.2l0,0l-0.6,1.1l-0.3,0.1h-9.4l-1.2,0.5l-1,0.5l0.4,0.9l0.1,0.1l0.1,0.2v0.9l0,0l0,0l0,0c0.1,0.1,0.1,0.1,0.1,0.2
			c0.2,0,0.3,0.1,0.3,0.2s0,0.2,0,0.4l0.1,0.1l0.1,0.2v0.3v0.1l-0.1,0.3c0.1,0.2,0.1,0.4-0.1,0.6c-1.4,1.1-2.8,2.2-4.2,3.3
			c-2.4,1.9-5.6,2.1-8.1,3.8c-0.4,0.3-0.7,0.7-1.1,1c-0.9,0.7-1.9,0.6-3,0.8c-0.4,0.1-0.9,0.3-1.3,0.4c-0.9,0.1-2.2-0.1-3-0.4
			c0.4-0.3,0.9-0.2,1.3-0.4c0.4-0.2,0.5-0.2-0.2-0.4c-1.1-0.4-2.2-0.8-3.3-1.2c0.5-0.9,0.9-1.8,1.4-2.6l0,0v-0.7l0.1-0.2l0.1-0.1
			v-0.2l0.1-0.2l0.2-0.1l0,0l0.1-0.1l0.2-0.1h0.1c0.3-0.5,0.5-1,0.8-1.4c0.4-0.8,0.8-0.8,1,0h0.1c0.2-0.5,0.3-0.9,0.5-1.4v-0.8
			l0.1-0.2l0.1-0.1v-0.1l0.1-0.2l0.1-0.1v-0.1v-0.1v-0.1c0-0.1-0.1-0.3-0.2-0.6c0-0.3-0.1-0.6-0.2-0.8c-0.1-0.6-0.1-1.1-0.3-1.7
			c-0.2-1-0.2-2.5-0.9-3.3c-1-1.1-2.1,0-3.1,0.7c-0.5,0.3-2.3,1.8-2.7,1.3c-0.2-0.2-0.1-0.7,0-0.9c0-0.2,0.1-0.6,0.2-0.8
			c0.4-0.6,1.1-0.3,1.5-0.8c0.2-0.3,0.1-0.7,0.2-1c0.2-0.5,0.7-0.4,1-0.8c0.3-0.5,0.3-2.4,0.2-3c-0.1-0.8-1.6-2.5,0.1-1.9
			c0-0.6-0.3-0.6-0.5-1.1c-0.1-0.3-0.1-0.6-0.2-0.7c-0.2-0.4-1.2-0.7-1.6-0.9c-0.6-0.2-1.2-0.3-1.7-0.6c-0.5-0.2-0.6-1-1.3-1.1
			c-0.4-0.1-0.7,0-1.1-0.1c-0.3-0.2-0.5-0.5-0.9-0.6c-0.3-0.1-1.2-0.3-1.4,0c-0.4,0.4-0.6,2.5,0.3,2.5c-0.6,0.5-1.4,0.1-2,0.7
			c-0.5,0.5-0.3,1.3-0.4,2.1c-0.1,0.8-0.3,0-0.6,0.2c-0.2,0.1-0.4,1.1-0.5,1.3c-0.3-0.4,0-0.9,0.1-1.3c-0.1,0-0.1,0-0.1,0
			c0-0.3,0.4-1.5,0-1.4c-0.1,0-0.5,0.7-0.6,0.9c-0.1,0.2-0.2,0.6-0.4,0.7s-0.3-0.2-0.4-0.1c-0.1,0-0.2,0.2-0.3,0.3
			c-0.1,0-0.4,0-0.4,0c-0.2,0.3-0.3,0.9-0.5,1.2c-0.1,0.1-0.3,0.1-0.4,0.2c-0.7,1-0.8,2.9-1.2,4.1c-0.2,0.7,0.2,1.2,0.2,2
			c0.1,0.9-0.3,1.8-0.1,2.7c0.1,0.5,0.4,1.6,1,1.1c0,0.8,0,1.2,0.2,1.8c0.1,0.4,0,0.8,0,1.2c0,2.7-1.9,5-3.1,7.2c0.3,0,0.8-0.1,1,0
			c0.3,0.1,0.5,0.7,0.5,1.1c0-0.6-0.4-1.1-0.9-1.1c-0.9-0.1-1.5,0.7-2.3,0.9c-0.6,0.1-1.6-0.2-1.8-0.8c-0.7-1.7-1.4-2.9-1.3-4.7
			c0.1-1.5-0.3-3.1-0.4-4.6c-0.1-0.7,0-1.1,0.2-1.8c0.3-1.2,0.3-2.5,0.7-3.6c0.2-1,0.7-1.8,0.9-2.8c0.2-0.9,0.5-1.7,0.8-2.5
			c0.1-0.2,0.1-0.7,0-1c0.4,0.3,1.1-0.6,1.2-0.9c0.4-0.8,0.4-1.2,0.3-2.2c-0.2,0.4-0.3,0.6-0.5,0.9c-0.1,0.1-0.2,0-0.4,0.2
			c-0.1,0.1,0,0.5-0.1,0.6c0,0.1-0.3,0.2-0.3,0.4c-0.1,0.2-0.4,0.8-0.1,1c-0.1-0.1-0.1-0.1-0.2-0.1c-0.3-0.1-1,0.3-1.2,0.7
			c-0.4,0.6-0.5,1-1.1,1.3c-0.2,0.1,0,0.4-0.4,0.2c-0.3-0.2-0.2-0.2-0.2-0.6c0.1-0.4,0.3-0.7,0.5-1c0.1-0.3,0.3-0.9,0.5-1.1
			c0.1-0.1,0.3,0,0.4-0.1c0.3-0.3,0.6-0.7,0.8-1.1c0.2-0.7,0.7-1.3,1.1-1.9c0.2-0.4,0.4-0.7,0.6-1.2c-0.1,0-0.2,0-0.2-0.1
			c0.1,0.1,0.2,0,0.4-0.2c0.7-0.5,0.8-1.4,1.1-2.2c0,0.5,0,1,0,1.6c0.3-0.1,0.6-0.3,0.8-0.6c0-0.1,0.1-0.5,0.2-0.5
			c-0.2,0.1,1.1-0.2,1-0.3c0.8,0.5-1.4,1.5-0.3,2c0.3-0.6,0.4-0.8,0.8-1.1c0.1-0.1,0.4-0.1,0.5-0.2s0.1-0.4,0.2-0.5
			c0.5-0.8,1.3-0.8,2.1-0.4c0-0.6,1.1-0.3,1.5-0.5c0.2-0.2,0.3-0.6,0.6-0.7s0.8,0,1,0.1c0.4,0.1,0.9,0.2,1.2,0.4
			c0.4,0.2,1,1.2,1.4,1.2c0.5,0,0.1-1.2,0.6-1.4c0.4-0.1,1.1,0.3,1.6,0.3c0.4,0.1,0.8,0.1,1.2,0.2c0.2,0,1,0.3,1.1-0.1v-0.1l0,0
			h-0.1c-0.2,0-0.2,0-0.3-0.2l-0.1-0.3l-0.1-0.2l0,0h-0.1c0-0.1,0-0.1,0-0.1l-0.2-0.1l-0.1-0.1l-0.2-0.2l-0.1-0.2v-0.1
			c-0.1-0.1-0.2-0.2-0.3-0.2c0.1-0.1-0.2-1-0.4-1.3c0,0,0-0.1-0.1-0.1h-0.6l-0.1,0.2c-0.1,0.1-0.2,0.2-0.3,0.2h-0.5l-0.2-0.1
			l-0.8-1.1c-0.3-0.1-0.7-0.2-1-0.2c-0.6,0-0.2-1,0.1-1.2c-0.8-0.1-1.6,0.2-2.4,0.3c-1.3,0.2-2.5,0.4-3.8,0.6
			c-0.4,0.1-0.8,0.3-1.2,0.5c-0.3,0.2-0.6,0.6-0.9,0.7c-0.5,0.3-0.9-0.1-1.5-0.3c-0.8-0.4-1.7-0.2-2.5-0.5c0-0.1-0.9-1.4-1.1-1.6
			c-0.7-0.9-1.8-0.8-2.8-1c0.1-0.1,0.1-0.2,0.1-0.2c-0.6,0.3-1.2,0.8-1.6,1.4c-0.1-0.5,0.2-1,0.1-1.4c0-0.2-0.3-0.7-0.3-0.8
			c-0.2-0.2-0.5-0.4-0.6-0.6c-0.1-0.1,0.1-0.3,0-0.4c-0.2-0.2-1.1,0.5-1.4,0.7c-1.6,0.8-3.1,1.6-4.6,2.5l0,0l0,0
			c-0.9,0.5-1.8,1-2.7,1.4c-0.4,0.2-1.8-0.8-2.3-1c-0.3-0.2,0.4-0.8,0.4-1.1c0-1.1-2.5,0.3-3,0.5s-1,0.5-1.6,0.7
			c-0.7,0.2-1.4-0.1-2.1-0.3c1.7-1.6,3.5-3.2,5.2-4.8c0.7-0.7,1.3-1.2,2.2-1.7c1.4-0.7,3-1.3,4.6-2.1l-0.1-0.1l-0.1-0.1h-0.1v0.1
			l-0.2,0.1h-0.1v0.1l-0.2,0.1l-0.2-0.1v-0.1h-0.2l-0.2-0.1l-0.1-0.2v-0.1h-0.1c-0.4-0.1-0.8-0.1-1.3-0.3c0.4,0.1,0.8,0.1,1.2,0.1
			l-0.1-0.1v-0.1H603l-0.1-0.1h-0.6l-0.1,0.1l-0.2,0.1h-1.2l-0.1-0.1l-0.2,0.1h-0.8l-0.2-0.1v-0.1l-0.1-0.1l-0.1-0.2v-0.1h-0.1
			l-0.1-0.3l0,0H599h-0.2v0.1l-0.2,0.1h-0.1v0.1l-0.2,0.1h0.2v0.1l-0.2,0.1l0,0l-0.1,0.1l-0.1,0.1l-0.1,0.1h-0.1v0.1l-0.2,0.1h-0.4
			v0.1l-0.2,0.1H596l-0.2-0.1v-0.2l0,0h-0.4l-0.2-0.1l-0.1-0.2v-0.2v-0.1l-0.1-0.1v-0.1h-0.5l-0.2-0.1l-0.1-0.1H594l-0.2-0.1v-0.1
			h-0.1l-0.1-0.1l-0.1-0.1l-0.1-0.2v-0.2h-0.3H593c-0.1,0-0.1,0-0.1,0h-0.3v0.4c0,0.1-0.1,0.2-0.2,0.3v0.1l-0.2,0.1h-0.1l-0.2-0.1
			l-0.1-0.1h-0.1l-0.1-0.2v-0.1l0,0l-0.1-0.1c-0.1,0-0.2-0.1-0.2-0.3v-0.4l-0.1-0.1v-0.1h-0.8l-0.2-0.1l-0.1-0.2v-0.4l0,0l-0.1-0.1
			l-0.1-0.1h-0.2l-0.2-0.1l-0.1-0.1h-0.1l-0.2-0.1l-0.1-0.1l0,0l-0.2-0.1v-0.1l-0.1,0.1l-0.2,0.1H588l-0.2-0.1v-0.1h-0.5l-0.1,0.1
			l-0.2,0.1h-0.2c0,0,0,0-0.1,0h-0.1h-0.1v0.2l-0.1,0.2l-0.2,0.1h-0.5l-0.1,0.1c-0.1,0.1-0.2,0.1-0.3,0.1h-0.1h-0.8l-0.2-0.1v-0.1
			l-0.1-0.1l-0.1-0.2v-0.3h-0.1v-0.1h-1.3l-0.2-0.1v-0.1h0.1l-0.2-0.1l-0.1-0.2l0,0h-0.4l-0.1,0.1l-0.2,0.1h-0.3l-0.2-0.1v-0.1h-0.2
			l-0.2-0.1v-0.1c-0.1-0.1-0.1-0.1-0.1-0.2l-0.1-0.1l-0.1-0.1c-0.1,0-0.2-0.1-0.2-0.3v-1l-0.2-0.5v-0.1v-0.3l-0.2-0.3v-0.2v-0.1
			l-0.1-0.3l-0.1-0.2v-0.3l-0.1-0.3v-0.1v-0.1l-0.3-0.2l-0.1-0.1h-0.7v2.3l-0.1,0.2l-0.2,0.1H440.1c0,0.2,0,0.3,0.1,0.6
			c0.1,0.2,0.4,0.5,0.4,0.6c0.3,0.5-0.1,0.4,0.8,0.3c-0.2,0.6,0.3,0.6,0.3,1.1c0,0.1-0.2,0.6-0.3,0.7s0.2,0.2,0.1,0.3
			c-0.1,0.2-0.5,0.3-0.7,0.4c0.2-0.2,1,0.5,1.2,0.9c0.2,0.5-0.1,1.1,0.4,1.6c0.2,0.2,0.5,0.1,0.4,0.4c0,0.2-0.4,0.3-0.5,0.5
			c0,0.1-0.1,0.4-0.2,0.5c-0.1,0.1-0.2,0.1-0.2,0.4c-0.1,0.2,0.1,0.4,0.1,0.5s-0.2,0.3-0.2,0.4c0,0,0.1,0.3,0.1,0.4
			c0,0,0.2,0.3,0.2,0.4s-0.2,0.2-0.3,0.3c0,0.1,0.1,0.2,0.1,0.3c0,0.2,0.1,0.4,0.1,0.5c0,0.5,0,0.2-0.2,0.6s-0.5,0.5-1,1
			c-0.6,0.6-0.7,0.5-1.6,0.8c0,0,0,0.1,0,0.2c-0.6,0-0.5-0.4-0.2-0.8c-0.2,0.1-0.4,0.4-0.7,0.4c0.1-0.2,0.4-0.4,0.5-0.6
			s0.1-0.4,0.2-0.6c0.2-0.4,0.5-0.3,0.5-0.9c0.2,0.6-0.1,1,0.2,1.5c0.2-0.8,0.2-1,0.7-1.5l0,0c0,0,0,0-0.1,0l0,0l0,0l0,0
			c-0.1,0.2-0.2,0.4-0.2,0.7c1.4-0.3,0.7-2.2,0.1-3.1c0.1,0.1,0.9,0,0.9-0.1c0.1-0.3-0.2-0.8-0.3-1.1c-0.3,0.5-0.8,0.8-1.1,1.3
			c-0.3,0.4-0.5,0.4-1,0.8c-0.2,0.2-0.5,0.7-0.6,1c-0.1,0.4-0.4,0.4,0,0.5c0.3,0.1,0.8-0.2,1-0.4c-0.1,0.1-1.3,1-1.3,0.5
			c-0.1-0.5,0.3-1.1,0.5-1.5s0.5-0.5,0.6-0.9c0.2-0.4,0.1-0.9,0.3-1c0.1,0.4,0.1,0.8,0,1.1c0.3-0.3,0.5-0.7,0.7-1.1
			c0.2-0.3,0.4-0.2,0.1-0.6c-0.3-0.4-0.8-1.1-0.5-1.5c-0.1,0.1-0.3,0.9-0.4,0.9c-0.3,0.1-1.3-0.9-1.4-1.2c-1.3,0-2.4,0.3-3.7,0.1
			c-1.5-0.2-2.9-1-4.3-1.6c0.1,0.9,0,1.9,0.3,2.8c0.3,1.3,1.1,2.4,1.6,3.5c0.2,0.3,0.1,0.6,0.2,0.9c0.2,0.6,0.5,1.1,0.7,1.6
			c0.1,0.5,0.1,0.9,0,1.4c0.4-1.5,0.9-0.2,1.8-0.2c-0.3,0.2-1.3,0.3-1.1,0.8c-0.1-0.1-0.3-0.2-0.5-0.3c0.1,0.1,0.1,0.8,0.2,0.9
			c0.3,0.5,1.2-0.1,1.3,0.6c-0.4,0-0.6,0.3-0.4,0.6c-0.1,0-0.2-0.1-0.2-0.1c0.2,0.2,0.2,0.5,0.3,0.7l-0.2,0.7
			c-0.5,0.9-0.4-1.1-0.6-1.4c-0.1,0.7,0.1,1.6-0.2,2.3c1.5,0.3,3,0.5,4.5,0.7c-0.8,0.2-1.7,0.3-2.6,0.4c-0.6,0.1-1-0.4-1.5-0.7
			c0.5,1.1,0,1.8,0.1,2.9c0.1,0.5,0.2,0.7,0.2,1.3c0,0.4-0.1,0.8-0.2,1.1c-0.1,0.4,0.1,0.7,0.1,0.9c0,1.1-0.3,2.2-0.5,3.2
			c-0.2,0.8-0.1,1.8-0.1,2.7c-0.1,1.1-0.1,2.2-0.2,3.3c0,0.4-0.1,0.8-0.1,1.2c-0.1,0.3-0.1,0.6-0.1,0.9c-0.1,0.8-0.4,1.4-0.7,2.1
			c0.2-0.2,0.3-0.4,0.4-0.6c0.1,0.2,0.3,0.4,0.3,0.7c-0.1-0.1-0.2-0.1-0.3-0.2c-0.5,0.9-1.7,2.8-1.6,3.8c0,0.3,0.2,0.5,0.4,0.7
			c0.3,0.5,0.4,0.5,0.2,1.3c-0.1,0.5-0.1,1.1,0,1.6c0.1,0.8,0.3,1.4,1,2c0.3,0.2,0.1,1.2,0.1,1.6c0,1.2,0,2.5,0.1,3.7
			c0,0.1,0,2.5-0.1,2.8c0.2-0.2,0.3-0.5,0.6-0.4c-0.3,0.3-0.7,1.1-0.9,0.9c-0.3,0.6-0.7,1.4-0.4,2c0.2,0.5,1.5,2.7,1.9,2.7h-0.1
			c0.3,0.7,1.2,2,1.2,2.9c0,0.2-0.2,0.6-0.2,0.8c-0.1,0.8,0.3,1.3,0.5,2c0.2,0.8-0.3,1,0.2,1.7c1.1,1.6,2.2,3.1,3.3,4.7
			c0.2,0.3,0.2,0.6-0.1,0.9c0.5-0.9,1.2,0.3,1.7,0.7c0-0.1,0-0.1,0-0.2c0.2,0.2,1.3,1.1,1,0.3c0,0,0.1,0.1,0.2,0.1
			c-0.1-0.2-0.2-0.5-0.2-0.7c0,0.2,0-0.7-0.1-0.5c0.1-0.5,0.2-0.3,0.4-0.7c0.3,0.1,0.6,0.5,0.9,0.6c0.5,0.2,0.4,0,0.8-0.2
			c0.1,0,0.1-0.3,0.3-0.3s0.5,0.5,0.7,0.5s0.5,0,0.6-0.2c-0.1,0.1-0.2,0.2-0.2,0.3c0.8-0.3,0.9-0.4,1.6,0.2c-0.3-0.1-0.8-0.5-1-0.4
			c-0.1,0.1-0.1,0.3-0.2,0.3c-0.2,0.1-0.2,0.1-0.7,0.1c-0.3,0-0.5-0.2-0.8-0.2c-0.2,0-0.5,0.2-0.7,0.2c-0.4,0-0.9-0.2-1.2,0.2
			c-0.5,0.8,1.2,2.7,1.4,3.5c-0.3-0.3-0.7-0.5-1.1-0.8c-0.2-0.1-0.4-0.1-0.4-0.4c0-0.2,0.1-0.9-0.1-1c-0.7-0.5-0.7,1.2-0.7,1.6
			c0.1,0.5,0.5,1,0.6,1.6c0.1,0.7,0,0.7,0.8,1.3c0.4,0.3,1,0.6,1.4,0.9c0.1,0,0.2-0.1,0.4,0c0.3,0.3,0.6,1.5,0.4,1.9
			c-0.2,0.4-0.5,0.1-0.6,0.2c-0.2,0.3-0.1,0.6,0,1c0.1,0.3,0.1,0.6,0.2,0.8c0.4,1.1,1.5,2.2,2.2,3.1c0.8,1,1.5,1.9,2.4,2.9
			c0.3,0.4,0.3,0.6,0.5,0.8c0.1,0.3,0,0.4,0.3,0.6c0.3,0.3,0.8,0.7,1,1.2c0,0.1-0.1,0.2-0.1,0.4c0,0.3,0.1,0.7,0.1,1.1
			c0,0.2-0.1,0.7,0,0.8c0,0.2-0.2,0.4,0.1,0.5c0.6,0.3,1.3,0.6,1.8,0.6c0.7,0.1,1.2,0.2,1.9,0.4c0.6,0.2,1.1-0.2,1.8,0.2
			c0.8,0.4,1.5,1,2.2,1.5c0.4,0.3,0.8,0.7,1.2,0.8c0,0,0.3-0.1,0.4-0.2c0.2,0,0.8-0.1,0.9,0c0.1,0.4,0.3,1.5,0.6,1.7
			c0.2,0.2,0.6-0.1,0.9-0.1c0.7,0,0.9,0.5,1.4,0.9s1,0.7,1.5,1.1c0.7,0.7,1,1.2,1.4,2.2s0.7,2,1.1,3c0.1,0.1,0.1,0.2,0.1,0.3h0.4
			h1.1l0.1-0.1l0.2-0.1h1.4l0.1-0.1l0.2-0.1h1.5v-0.1l0.2-0.1h1.6l0.1-0.1l0.2-0.1h1.6l0.1-0.1l0.2-0.1h1.6l0.1-0.1l0,0
			c0,0,0.1,0,0.1-0.1h0.1h1.4c0.2,0,0.3,0.1,0.3,0.3v0.2l-0.1,0.2h-0.1v0.1l-0.1,0.2l-0.1,0.1v0.1v0.2l0,0h0.1l0.2,0.1v0.1h0.3
			l0.2,0.1v0.1h0.2l0.2,0.1l0.1,0.1h0.2l0.2,0.1l0.1,0.1h0.2l0.2,0.1l0,0h0.2l0.2,0.1l0.1,0.1h0.2l0.2,0.1l0.1,0.1h0.2l0.2,0.1
			l0.1,0.1h0.2l0.2,0.1v0.1h0.2l0.2,0.1l0.1,0.1h0.2l0.2,0.1v0.1h0.2l0.2,0.1l0.1,0.1h0.2l0.2,0.1l0.1,0.1h0.1l0.2,0.1l0.1,0.1h0.3
			l0.2,0.1v0.1h0.2l0.2,0.1v0.1h0.1l0.2,0.1l0.1,0.1h0.2l0.2,0.1l0.1,0.1h0.3l0.2,0.1v0.1h0.1l0.2,0.1l0.1,0.1h0.2l0.2,0.1l0.1,0.1
			h0.2l0.2,0.1l0.1,0.1h0.2l0.2,0.1l0.1,0.1h0.1l0.2,0.1l0.1,0.1h0.4l0.2,0.1v0.1h0.2l0.2,0.1v0.1h0.1l0.2,0.1l0.1,0.1h0.2l0.2,0.1
			l0.1,0.1h0.2l0.2,0.1l0.1,0.1h0.2l0.2,0.1l0.1,0.1h0.2l0.2,0.1l0.1,0.1h0.2l0.2,0.1v0.1h0.1l0.2,0.1l0.1,0.1h0.2l0.2,0.1l0.1,0.1
			h0.2l0.2,0.1l0.1,0.1h0.2l0,0c0,0,0.1,0,0.1,0.1c0.1,0,0.1,0,0.1,0l0,0l0.1,0.1h0.2l0.2,0.1v0.1h0.2l0.2,0.1v0.1h0.1l0.2,0.1
			l0.1,0.1h0.2l0.2,0.1l0.1,0.1h0.2l0.2,0.1l0,0h14v-2.5l0.1-0.2l0.2-0.1h8.4c0.1,0,0.2,0.1,0.2,0.2h0.4l0.2,0.1v0.1l0.1,0.1v0.1
			h0.1l0.1,0.3v0.1l0,0l0.1,0.2v0.1l0,0l0.1,0.2l0,0l0.1,0.1l0,0c0,0,0,0.1,0.1,0.1c0,0.1,0.1,0.1,0.1,0.1l0,0l0,0l0.2,0.1l0.1,0.1
			l0.1,0.1v0.1h0.1l0.2,0.1v0.1h0.2l0.2,0.1l0.1,0.1l0.1,0.1v0.1l0.1,0.1l0.1,0.1h0.1l0.1,0.1l0,0l0.2,0.1l0.1,0.2l0,0l0.1,0.1l0,0
			v0.1c0,0,0,0,0,0.1l0.1,0.1l0.1,0.1h0.1l0.1,0.1h0.1l0.2,0.1v0.1l0.1,0.1v0.1h0.1l0.2,0.1l0.1,0.2v0.2h0.1l0.2,0.1v0.1h0.1v0.1
			c0.1,0,0.2,0.1,0.2,0.1h0.1l0.2,0.1l0.1,0.2l0,0l0,0l0.2,0.1v0.1h0.1l0.2,0.1v0.1h0.2l0.2,0.1v0.1h0.1v0.1l0.1,0.1l0.1,0.1h0.1
			v0.1h0.2c0.2,0,0.2,0.2,0.2,0.3v0.1h0.1l0.1,0.1h0.1v0.1h0.1l0.1,0.2v0.1l0.1,0.1l0.1,0.2v0.4c0.1,0.1,0.1,0.1,0.1,0.1l0.1,0.1
			l0.1,0.2l0,0l0.1,0.1l0.1,0.2l0,0l0,0l0.2,0.1l0.1,0.2v0.1h0.1l0.1,0.2v0.7l-0.1,0.2l-0.1,0.1h0.1l0.1,0.2v0.3l0.1,0.1l0.1,0.2
			v0.1l0.1,0.1l0.1,0.2v0.1l0,0l0.2,0.2l0.1,0.2v0.2l0.1,0.1l0,0l0,0l0.2,0.2v0.1h0.1l0.1,0.2l0,0l0,0l0.2,0.1v0.1h0.2l0.2,0.1v0.1
			h0.1l0.2,0.1v0.1l0.1,0.1l0.1,0.3l0,0l0.1,0.1l0.1,0.1h0.1l0.2,0.1l0.1,0.1h0.1v0.1l0.1,0.1v0.1h0.2l0.2,0.1v0.1h0.5l0.2,0.1v0.1
			h0.1l0.1,0.1l0.1,0.1v0.1c0.1,0,0.1,0,0.1,0.1h0.1h0.1h0.1h0.1l0.2,0.1v0.1h0.1l0.2,0.1v0.1l0.1,0.1l0.1,0.2l0,0h0.2l0.2,0.1v0.1
			h0.2c0.1,0,0.2,0.1,0.2,0.2h0.4h0.1v-0.1l0.1-0.2l0.1-0.1l0.1-0.1l0.2-0.1l0,0l0,0l0.1-0.2h0.1v-0.1l0.2-0.2
			c0.1-0.1,0.1-0.1,0.2-0.1l0,0v-0.3v-0.1c0-0.1,0-0.1,0-0.2c0.1-0.1,0.1-0.2,0.3-0.2l0,0l0,0v-0.1c0-0.1,0-0.3,0.1-0.3l0.1-0.1
			v-0.2l0.1-0.2h0.1v-0.3l0.1-0.2l0.1-0.1l0.1-0.1h0.1l0.1-0.1h0.1v-0.3c0-0.1,0.1-0.3,0.3-0.3h0.3l0.1-0.1c0.1-0.1,0.2-0.1,0.3-0.1
			l0,0h0.5v-0.2l0.1-0.2l0.2-0.1h0.1v-0.1l0.2-0.1h0.1l0.2,0.1v0.1h0.1h0.1c0.1,0,0.2-0.1,0.2,0c0.1,0,0.1,0.1,0.2,0.2h0.1l0.1,0.1
			h0.4v-0.1l0.2-0.1l0.2,0.1v0.1h0.8c0.1,0,0.2,0.1,0.2,0.2h0.5l0.1-0.1l0.2-0.1h0.2l0.1,0.1l0.2-0.1l0.2,0.1v0.1h0.1l0.2,0.1
			l0.1,0.2v0.1h0.1l0.1,0.2l0,0l0,0l0.2,0.1l0.1,0.1c0.1,0,0.1,0,0.2,0c0.1,0,0.1,0.1,0.1,0.2l0.1,0.1l0.1,0.2v0.1h0.1v0.1l0.1,0.1
			v0.1h0.2l0.2,0.1v0.1c0.1,0.1,0.2,0.2,0.2,0.3v0.2l0,0l0.2,0.1v0.1h0.1c0.1,0,0.2,0.1,0.2,0.2l0.2,0.1v0.1h0.1l0.1,0.1l0,0
			l0.2,0.1l0.1,0.2v0.3h0.1v0.1h0.1v0.1h0.1l0.2,0.1v0.2v0.3h0.1l0.1,0.2v0.4c0.1,0.1,0.2,0.1,0.2,0.3l0,0l0.1,0.1v0.1h0.1l0.1,0.2
			v0.1h0.1l0.1,0.2v0.3h0.1v0.1h0.1l0.1,0.2v0.1h0.1l0.1,0.2v0.1h0.1v0.1h0.1l0.2,0.1l0.1,0.2l-0.1,0.2h-0.1v0.2h0.1l0.1,0.2v0.1
			l0,0l0.1,0.2v0.3h0.1v0.1h0.1l0.2,0.1l0.1,0.1l0.1,0.1v0.1h0.3l0.2,0.1l0.1,0.2v0.2l0,0l0.2,0.1l0.1,0.2v0.2l0,0l0.2,0.1l0.1,0.2
			v0.1h0.1v0.1h0.1l0.1,0.2v0.5l0,0v0.1h0.1l0.2,0.1l0.1,0.1l0.1,0.1v0.1l0.1,0.1l0.1,0.2l0,0l0,0h0.1h0.1h0.2l0.2,0.1v0.1h0.1
			l0.2,0.1v0.1h0.1l0.1,0.3v0.2l0,0l0.1,0.2v0.9c0,0.1-0.1,0.1-0.1,0.2l0,0l0.1,0.1l0.1,0.2v1.2l0,0l0.2,0.1l0.1,0.2v0.1h0.1
			l0.1,0.1l0.1,0.1l0.1,0.2v0.1h0.1l0.1,0.1h0.1l0.1,0.2v0.1h0.1l0.1,0.2v0.1l0,0l0.1,0.2v0.3h0.1l0.1,0.2v0.2l-0.1,0.1l0.1,0.1l0,0
			l0,0l0.2,0.1l0.1,0.2v0.4h0.6l0.2,0.1v0.1h0.4l0.2,0.1v0.2h0.1l0.1,0.1l0.1,0.1v0.1c0.1,0,0.2,0.1,0.2,0.2h0.1h0.3l0.1,0.1
			l0.1-0.1l0.2,0.1v0.1h0.3l0.2,0.1l0.1,0.1l0,0l0.2,0.1v0.1h0.1v0.1h0.1l0.1,0.1l0.1,0.1l0.1,0.1h0.2h0.1c0.1,0,0.1-0.1,0.2,0h0.1
			h0.2l0.2,0.1l0.1,0.1h1.3h0.1c0.1,0,0.2,0,0.3,0.1v-0.1c0.1,0,0.2,0,0.3,0.1l0.1,0.1l0,0l0.2,0.1v0.1l0.1,0.1v0.1l0.1,0.1l0.1,0.1
			l0.1,0.1v0.1h0.1l0.2,0.1l0.1,0.1h0.1l0,0l0,0l0.1-0.2l0.2-0.1h0.1v-0.1l0.2-0.1c-0.3,0-0.3-0.7-0.5-1.4c-0.3-1.2-0.8-2.4-1-3.7
			c0-0.3,0-0.7,0.1-0.9c-0.1,0.2,0.3-0.3,0.3-0.3c0.1-0.2,0.2-1,0.3-1.3c-0.7,0.4-0.9-0.1-1.7-0.1c0.1-0.3,0-0.7,0-1
			c0.2,0.2,0.5,0.7,0.7,0.9c-0.1-0.2,0.9,0.1,0.4,0.1c0.1,0,0.4,0,0.5-0.2c0.2-0.2,0.4-0.8,0.5-1.2c0.1-0.4,0.4-0.8,0.3-1.1
			c0-0.1-0.3,0-0.3-0.1c-0.4-0.8-0.3-0.4-0.9-0.9c0.3,0.1,0.9-0.1,1.2,0c0.4,0.1,0.1,0.4,0.5,0.2c0.4-0.2,0.7-1.2,0.8-1.6
			c-0.2,0.2-0.5,0-0.7-0.3c0.2,0.2,0.5,0,0.7-0.2c0,0.2,0.1,0.3,0.1,0.4c0.1-0.3,0.2-0.5,0.3-0.8c0,0.2,0,0.5-0.1,0.8
			c0.1-0.4,0.4-2.1,0.8-2.1c0.1,0,0.4,0.5,0.4,0.6c0.3,0.3,0,0.3,0.5,0.3c0.2,0,0.9-0.6,1.1-0.7c-0.6-0.3-1-0.9-1.2-1.7
			c0.5-0.1,0.2,0.3,0.5,0.5c0.5,0.4,1,0.2,0.5-0.7c0.3,0.1,0.2,0.6,0.4,0.7c0.2,0,0.5-0.3,0.8-0.3c-0.4,1.2,0.4,0.3,1,0.6
			c-0.4,0.2-0.8,0.4-1.1,0.7c0.7-0.3,1.8-0.8,2.4-1.4c-0.3,0.2-0.7,0.3-1.1,0.2c0.8-0.2,1.4-0.3,2-0.7c0.8-0.5,1-1.2,1.6-2
			c0.4-0.6,0.3-0.2,0.5-0.3c0.5-0.3,1-0.8,1.4-1.2c-0.2-0.1-0.3-0.1-0.4-0.3l-0.2,0.1c-0.1-0.1,0.2-0.4,0.1-0.5
			c-0.1-0.1-0.3,0-0.4-0.1c-0.1-0.2,0.1-0.4,0.1-0.5c-0.1-0.2-0.3-0.5-0.3-0.7c0.2,0,0.5,0.1,0.6,0.4c0.2-0.2,0.6-0.9,1-0.7
			c0.2,0.1,0.2,0.5,0.1,0.7c-0.4,0.8-0.6,0.7,0,0.7c0.4,0,0.7-0.2,1.1-0.1c-0.3,0.2-1.5,0.6-1.5,1s0.5-0.3,0.5-0.3
			c0.4-0.2,0.7-0.4,1.1-0.6c0.4-0.2,0.8-0.4,1.2-0.6c0.7-0.3,1.2-0.3,1.9-0.5c-0.3-0.4,0.1-1.4,0.3-1.9c-0.1,0.6-0.2,1.2-0.2,1.8
			c0.7-0.5,1.4-0.2,2.2-0.5c0.5-0.1-0.2-0.3-0.1-0.4c0,0-0.2-0.1-0.1-0.1c0-0.1,0.2-0.1,0.2-0.1c0,0.1,0.2-0.3,0.2-0.3
			c0.1-0.2,0.1-0.7,0.1-0.9c0.3,0.2,0.1,0.4,0.2,0.6c0.6,0.9,2,1.2,2.8,1.7c0.8,0.4,1.6,1,2.4,0.9c0.3-0.1,0.6-0.2,0.9-0.2
			c-0.1,0-0.6-0.5-0.6-0.6c-0.1-0.4-0.1,0,0.2-0.3c0.3-0.2,1.1-0.6,1.5-0.5c0.1,0,0.9,0.4,1.1,0.5c0,0.1,0,0.4,0.2,0.6
			s1.3,1,1.5,0.9c0.1-0.1,0.2-0.6,0.3-0.7c0.1,0.3-0.2,0.4-0.2,0.8s0.5,0.6,0.7,0.8c0.6,0.6,1.5,1.7,2.3,1.2
			c0.2-0.1,0.5-0.6,0.4-0.8c0.6-0.4,1.4-0.4,1.7,0.3c0.2,0.4-0.2,0.9,0.4,0.7c0.8-0.3,0-1.2,0.7-1.2c-0.2-0.3-0.1-0.3-0.2-0.6
			c0-0.1,0.2-0.1,0-0.3c-0.2-0.3-0.5-0.2-0.6-0.8c0.3,0.2,2,0.4,1.7,0.8c0.7,0.5,1.1,0.8,1.8,1.2c-0.1,0.2,0.1,0.4,0.3,0.6
			c0.2,0.3,0.6-0.5,0.6,0.1c0,0.3-0.5,0.9-0.6,1.2c0.4-0.3,0.9-0.3,1.3-0.4c-0.2-0.4,1-1,0.2-0.9c0.3,0,0.4-0.2,0.4-0.3
			c-0.2,0-0.4-0.1-0.6-0.3c0.5-0.4-1-0.7-1.2-0.8c0.1,0,0.2-0.1,0.2-0.1c-0.3,0-0.7,0-1-0.1c0,0,0.1,0,0.1-0.1c0-0.2-0.1,0,0-0.3
			c-0.5-0.3-0.7-0.4-1-0.8c0.4-0.1,0.8-0.1,1.2-0.2c0-0.1-0.1-0.2-0.2-0.2h0.1c-0.1,0-0.5,0-0.4-0.2c0.1-0.4,0.9-0.3,1.3-0.5
			c-0.1-0.3-0.1-0.3,0-0.5c-0.1,0-0.2,0-0.3,0c0-0.1,0.1-0.1,0.1-0.2c-0.1,0-0.2,0-0.2,0c0.5-0.2-0.2-0.4-0.3-1
			c0,0.4-0.3,0.2-0.4,0.5c-0.4,0.7-0.1,0.7-0.7,0.5c-0.1-0.1-0.7-0.2-0.6-0.5c0-0.2,0.7-0.3,0.8-0.6c-0.5-0.1-3.6,0.6-3.7-0.3
			c-0.1-0.7,2.1-1.2,2.6-1s1.7,0.9,2.1,0.5c0.4-0.5,0.7-0.9,1.3-1c0.7-0.1,1.3-0.3,2-0.2c1.1,0.1,2.3,0.4,3.3,0.5
			c0.3,0.1,0.5-1.6,0.6-2c0-0.1,0.1-0.3,0.2-0.4c0.1,0.4,0.3,0.3,0.5,0.7c0.1,0.3-0.1,0.6-0.1,0.8c0.1,0.3,0.4,0.2,0.5,0.5
			c0.1,0.2,0.1,0.6,0.4,0.9c0.2,0.3,0.8,0,0.9-0.3c-0.1,0-0.1,0-0.2,0c0.6-0.1,0.7-0.4,0.9-1.1c-0.1,0.5-0.3,0.8-0.4,1.2
			c0.4-0.2,1-0.4,1.4-0.8c0.3-0.4,0.1-0.6,0.3-1c0.1,0.2,0.3,0.3,0.3,0.5c0.5-1,0.7-0.5,1,0.4c-0.2-0.1-1.1,0.4-1.4,0.5
			c1.7-0.4,3.5-0.6,5.2-0.8c0,0.3,0,0.2,0.1,0.5c-0.2,0-0.5-0.1-0.7-0.1l0.1,0.1c-0.9-0.3,0,0.4,0.3,0.5c0.2,0.1,2,1.3,2.2,1.2
			c0.3-0.2-0.4-0.6-0.6-0.6c0.3-0.1,1.3-0.5,1.4-0.3c-0.1,0.1-0.6,0.3-0.6,0.4s1.2,1,1.4,1.2c-0.3-0.1-1.5-0.9-1.3-0.4
			c0.1,0.2,0.4,0.4,0.6,0.5h-0.1c0.2,0.3,0.7,0.4,0.9,0.7c0.1,0.1,0.2,0.2,0.2,0.4c0.5,0.8,0.5,1,1.1,0.7c-0.2,0.1-0.3,0.2-0.5,0.3
			c1.5-0.6,3.1-1.3,4.6-1.9c0.7-0.3,1-0.6,1.7-0.3c0.5,0.2,1.1,0.6,1.5,1.1c0.4,0.4,0.4,0.8,0.8,1.2c0.4,0.3,0.2,0.2,0.4,0.6
			c0.1,0.2,0,0.3,0.3,0.7c0.7,0.7,1.8,1.1,2.5,1.8c0.3,0.3,1.2,1.9,1,2.3c-0.3,0,0,0.2,0,0.5c0,0.2-0.1,0.4-0.1,0.6
			c0,0.5-0.1,0.9-0.2,1.4c-0.1,0.4-0.4,0.9-0.5,1.3s0.1,0.8,0,1.2c0,0.2-0.2,0.3-0.2,0.4c0,0.5,0.3,1.1,0.6,1.6
			c0-0.1-0.1-0.3-0.1-0.4c0.5,0.4,0.5,0.1,0.6-0.2c0.2-0.6,0-0.7-0.4-1.1c0.8,0.4,1,1,1.5,0.1c0.4,1-0.9,1.6-0.8,2.5
			c-0.1,0-0.2,0-0.3-0.1c0.1,0.4,0.4,0.7,0.5,1.1c0.3,1.3,1.2,2.3,2,3.3c0-0.1-0.1-0.6-0.1-0.6c0.1-0.3,0.4-0.4,0.9-0.6
			c0,0-0.2,0.4-0.2,0.2c0,0-0.1,0-0.2,0.1c0,0.1,0.1,0.3,0.1,0.4c-0.1,0.7-0.1,1.4,0.1,2.1c0.5,0,0.6-0.9,1.3-1.1
			c-0.4,0.4-0.6,0.7-0.9,1.3c0.9,0.1,0.9,2.9,1.1,3.5c0.1,0,0.3-0.2,0.4-0.1c0.6,0.3,1.5,1.5,2,2.2c0.3,0.3,2,1.9,1.4,2.1
			c-0.1,0.1-0.5-0.4-0.7-0.5c-0.1,0.3-0.1,0.7,0,1c0.3,0,0.5-0.1,0.8-0.2c0.1,0,0.2-0.2,0.3-0.2s0.3,0.1,0.5,0.2
			c0.3,0,0.4-0.1,0.6-0.2c0.4-0.3,0.4-0.3,1,0.1c-0.1-0.1-0.1-0.2-0.2-0.2c0.1,0,0.3,0.1,0.5,0.2c-0.2-0.2-0.1-0.3,0-0.5
			c0.3-0.7,0.7-1.3,1-2c0.7-2,0.7-4.1,0.8-6.2c0.1-1.4,0-3-1.3-3.6c0.2,0.1,0.4,0.2,0.6,0.3c-0.6-1-0.7-2.1-1.1-3.1
			c-0.4-0.9-0.8-1.7-1.2-2.7c-0.4-1.2-0.7-2.6-1.1-3.9c0.3,0.1,0.4,1.8,0.9,1.1c0.1,0.8,0.1,1.6,0.2,2.5c0.7-1.9,0.1-2.3-0.7-3.8
			c-0.4-0.8-0.9-1.6-1.3-2.5c-0.3-0.7-0.5-1.3-0.8-2c-0.4-1-0.6-2.2-0.9-3.2c-0.3-1-0.8-2.2-0.8-3.3c0-0.9-0.3-2.4,0.1-3.2
			c0.1-0.3,0.2-0.6,0.4-0.3c1.3-0.6,0.2-0.7-0.4-1.1c0.1,0,0.4,0.2,0.4,0.2c0.2-0.2,0.2-0.4,0.3-0.6c0.2-0.2,0.5-0.4,0.7-0.6
			c-0.1,0.1-0.3,0.1-0.5,0.2c0.1-0.5,0.3-1.2,0.1-1.6c0.2,0,0.5,0.3,0.7,0.2c0.3-0.1,0.7-1.1,0.8-1.3c0.3-0.5,1.4-1.4,1.4-1.9
			c0-0.2-0.3-0.1-0.3-0.1c-0.2-0.5-0.5-1.2-0.5-1.7c0.1,0,0.3,0.2,0.3,0.2c-0.4,1.1,1-0.4,0.6,0.8c0.1,0,0.1,0,0.1,0s-0.1,0.2,0,0.2
			c0.4,0,1.1,0.1,1.1-0.4c0,0.1-0.1,0.1-0.2,0.2c0.2-0.8-0.6-0.6-1-0.9c0.2,0,0.5-0.1,0.7-0.1c0.1,0,0.2,0.2,0.4,0.2
			c0.3,0,0.7-0.5,1-0.7c0.2-0.1,0.9-0.1,1.1-0.1c0.2,0,0.2-0.1,0.3-0.3v0.2c0.1-0.4,0.2-0.9,0.3-1.3c0.5,0.5,0.3,0.6,0.8,0.4
			c0.6-0.2,1.1-1,1.7-1.4c0.3-0.2,1.6-0.7,1.1-1.3c-0.2-0.3-0.5-0.5-0.2-0.9c0.3,0.2,0.4,0.6,0.4,0.9c0.3-1.1,0.4-1.7,1.2-2.5
			c0.6-0.6,1.2-1.1,1.8-1.6c0.5-0.4,1.8-0.1,2.4-0.2c1,0,0.8-1,0.8-1.8c0.2,0.5,0.1,1,0.2,1.6c0.1-0.3,0.1-0.6,0.2-0.9
			c0.4-1,1.5-1.8,2.2-2.5c-0.3,0.2-0.6,0.4-0.9,0.6c0.3-0.4,1.7-1,1.1-1.3c0.4-0.4,0.1-0.7-0.1-1.1c0.1,0,0.3,0.3,0.3,0.3
			c0.2,0,0.9-0.4,1.2-0.3c0.5,0.1,0,0.4,0.6,0.3c0.4,0,1-0.4,1.5-0.5c0.6-0.2,1.8-0.4,2.2-1c0.4-0.5-0.6,0-0.7,0
			c0.4-0.9-0.4-0.1-0.6-0.1c-0.1,0-0.2-0.2-0.4-0.2s-0.4,0.3-0.6,0.4c-0.7,0.1-1.3-0.9-1.5-1.5c0.4,0.5,0.7,0.8,1.3,0.6
			c0.7-0.2,2.2-0.9,1.4-1.6c-0.9-0.8-2-0.5-2.6-1.4c0.7,0.5,1.5,0.6,2.3,0.8c-0.1-0.3-0.1-0.8,0-0.9c0.2-0.2,0,0.4,0,0.3
			c0.1,0.2,0.2,0.4,0.3,0.5c0.3-0.2,0.7-0.4,0.6,0.1c1.1,0,3.8-0.9,3.4-2.6c-0.2-0.6-0.5-0.7-1-0.6s-0.4,1.2-0.6,1.7
			c-0.1-0.4-0.2-1.3,0.1-1.8h-0.1c0.2-0.5-0.4-0.5-0.7-0.4c-0.2,0.1-0.3,0.4-0.5,0.5c-0.1,0-0.3-0.1-0.5-0.1c0.1-0.4-1.2,0-1.7-0.1
			c0.3-0.4-0.1-0.6-0.1-1.1c0-0.2,0.2-1.7,0.3-1.2c0.1,0.3-0.2,0.3-0.2,0.6c0,1.5,0.9,1.4,2,0.7c-0.3-0.1-0.5-0.3-0.7-0.6
			c0.4,0.3,0.7,0.5,1.2,0.6c-0.2-0.2-0.3-0.4-0.4-0.6c0.3,0.4,0.7,0.4,1.1,0.3c-0.2-0.3-0.6-0.7-0.7-1c0.2,0.3,1,0.9,1.4,1
			c-0.3-0.2-0.2-0.6-0.4-0.9c0.4,0.3,0.5,1.2,1,1.5c-0.4-1.2-1-1.9-1.2-3c0.5,0.1,0.4-0.6,0.5-1.1c0.2,0.6,0.3,1.3,0.5,1.8
			c-0.1-0.7-0.4-2.7-0.9-3.2c-0.1-0.1-0.7,0.1-0.8,0c-0.5-0.3-0.4-0.1-0.7,0c0.1,0,0,0.2,0,0.2c-0.2,0.1-0.7,0.1-1,0.1
			c0.5-0.4-0.5-1.7-0.8-2.1c0.3,0.2,0.6,0.5,0.8,0.7c0.3,0.4,0.5,0.9,1,0.5c0-0.7-0.1-1.2-0.5-1.7c0,0,0,0,0-0.1c0,0,0,0,0.1,0.1
			c-0.1,0-0.1-0.1-0.1-0.1c-0.1,0-0.1-0.1-0.1-0.1c0.3,0.2,0.5,0.3,0.5,0c0.4,0,0.5,0,0.7-0.3c0.4-0.8-0.6-1.3-1.1-1.8
			c-0.1,0-0.1-0.1-0.2-0.1c0.2-0.7,0.1,0,0.3,0c0.1,0,0.1,0.1,0.2,0.1c0.3,0,0.6-0.8,0.7-1.2c0.2-0.7,0.2-0.3-0.1-0.7
			c-0.4-0.5-1.6-1.1-2.1-1.3c-0.4-0.1-0.9-0.2-1.2-0.5c-0.2-0.2-0.4-0.6-0.6-0.9c-0.2-0.3-0.2,0-0.4,0s-0.4,0.2-0.7,0
			c-0.1,0-0.2,0-0.2,0c0.5-1.2,1.6-2.3,1.4-3.6c0.4,1-0.3,1.8-0.6,2.7c-0.2,0.3-0.4,0.6-0.1,0.8c0.3,0.2,0.5-0.3,0.4-0.5
			c0.1,0.3,0.4,0.2,0.5-0.1c0.1,0.2,0.3,0.9,0.6,1c0.2,0.1,0.4-0.4,0.5-0.4c0.3,0.2,0.6,0.5,0.9,0.8c0.5,0.4,1.1,0.9,1.6,1.2
			c-0.1-0.3-0.2-0.7-0.3-1c0-0.1,0-0.6,0-0.6c-0.1-0.1-0.3,0.1-0.4,0c-0.8-0.7-1-1.1-1.1-2.4c0.1,1.2,0.3,1.5,1.5,1.9
			c-0.2-0.6-0.6-0.8-0.7-1.4c0-0.3,0-0.8,0.1-1.1c0.3-1.3,0.3-1-0.3-2.1c0.2,0.2,0.4,0.5,0.6,0.5c-0.3-0.6-0.6-1.1-0.9-1.7
			c0.6,0,0.7-0.5,1.2-0.9c0.3-0.2,0.2,0.1,0.5-0.3c0.2-0.3,0.2-0.2,0.2,0.1c0.5-0.3,1-0.8,1.4-1.2c1,0.3,0,0.4,0.3,0.8
			c-0.2,0-0.7,0.2-0.7,0.4c-0.1,0.3,0.6,0.2,0.8,0.3c-0.7,0.1-1.3-0.1-1.7,0.4c-0.2,0.3-0.3,0.7-0.4,1c0.3,0.1,0.7,0.1,1,0.1
			c-0.3,0.2-0.3,0.5-0.5,0.8c-0.1,0.3-0.7-0.3-0.8,0s-0.2,0.7-0.2,1c0-0.2,0.3-0.6,0.5-0.6s0.8,0.8,0.7,1c0,0.2-0.5,0.3-0.6,0.4
			c0.3,0.6,0.7,0.6,1.3,0.9c-0.3,0.3-0.5,0-0.7,0c-0.4,0-0.2-0.3-0.7,0.1c-0.3,0.3,0.4,0.2,0.4,0.1c-0.1,0.2-0.8,0.4-0.7,0.7
			c0.2,0.3,0.3,0.6,0.5,0.9c0-0.1,0-0.3-0.1-0.5c0.5,0.3,1.1,1.7,1,0.4c0.1,0.2,0.2,0.3,0.3,0.5c0.1-0.4,0.2-0.7,0.6-0.9
			c0,0.3,0.2,0.7,0.1,1c-0.1,0.2-0.4,0.5-0.5,0.8c0.2-0.3,0.5,0.3,0.9,0.2c-0.2,0.2-0.8,0.9-0.6,1.1c-0.1-0.1,1.1-0.2,1.1-0.2
			c-0.7,1.4-1.5,2.6-1.8,4.2c-0.1,0.4,0,1.2,0.6,0.9c0.3-0.1,0.1-1.1,0.3-1.4c0.2-0.5,0.8-0.6,1.1-1c0.1-0.2,0-0.4,0.2-0.7
			c0.1-0.4,0.3-0.8,0.5-1.1c0.3-0.7,0.5-1.3,0.9-1.9c0.3-0.6,0.7-1.9,1.2-2.2c0,0.3,0,0.5,0,0.8c0.1-0.6,0.1-1.3,0-1.9
			c-0.1,0.3-0.4,0.3-0.7,0.1c0.4-0.2,0.5-0.9,0.6-1.3c-1.3-0.6-1.7-2.8-2.2-4.1c-0.2-0.4-0.5-0.7-0.4-1.2c0.3-1.3,1.9-2,2.7-2.6
			h-0.1c0.1,0,0.2,0,0.2-0.1c-0.7,0.6-1.8,1.1-2.3,2c-0.8,1.5,0.5,2.1,1.4,3c0.5,0.4,1.5,0.2,1.6,0.8c0.1,0.3-0.3,0.9-0.3,1.4
			c0.3-0.1,1.4-0.9,1-1.3c0.3-0.1,0.5-0.7,0.8-1c-0.1,0-0.2-0.1-0.2-0.1c0.2-0.2,1.5-0.5,0.8-0.8c0.3-0.3,0.7-0.5,0.9-0.8
			c0.1-0.1,0.2-0.6,0.4-0.8c0.4-0.5,0.1-0.4,0.2-0.9c0.1-0.2,0.2-0.4,0.2-0.5c0.1-0.4,0.1-0.8,0.4-1.3c0.1,0.6-0.2,1.2-0.1,1.8
			c0.2-1,0.2-2,0.4-2.9c0.1-0.5,0.2-1,0-1.3c-0.3-0.3-1.3-0.1-1.4-0.4c-0.1-0.4,1.2-1.5,1.4-2.1c0.1-0.1,0.1-0.3,0.1-0.4
			c0,0.1,0,0.2,0,0.2c0.4-1.1,0.3-1.7,0.2-2.9c0-0.1,0-0.2,0-0.3c0,0,0,0.1,0,0.2c0-0.1,0-0.2,0-0.2s0,0,0,0.1c0,0.5,0.1,1,0.2,1.6
			c0.1,0.8-0.4,1.5-0.4,2.3c-0.1,0.2-0.2,0.4-0.2,0.5c0.4,0,0.7,0,1,0c0.1,0,0.2,0,0.2,0c0.6,0,1.2-0.1,1.8-0.2
			c0.2-0.1,0.4-0.1,0.7-0.2c0.2,0,0.5-0.1,0.7-0.1c0.4-0.1,1.1-0.2,1.5-0.3c0.2-0.1,0.4-0.2,0.6-0.3c0.1,0,0.1,0,0.1,0
			c0.2-0.1,0.5,0,0.8-0.1c0.1-0.1,0.2-0.1,0.2-0.2c0.1-0.1,0.2-0.1,0.3-0.1s0.1,0,0.2,0c0.2-0.1,0.5-0.2,0.7-0.3
			c0.6-0.3,1.3-0.7,2-1c-1,0.1-1.9,0.2-2.8,0.2c0.2-0.2,0.5-0.6,0.9-0.8c-1.1,0.2-2.2,0.8-3.3,1.2c-0.6,0.1-1,0.1-1.6,0.3
			c-0.5,0.1-2.3-0.4-2.1,0.8c-0.1-0.2-0.2-0.3-0.2-0.3c-0.1-0.1-0.1,0-0.2,0.2c0,0,0,0-0.1,0s-0.1,0.2-0.2,0.2
			c-0.2,0-0.5-0.1-0.7,0.1c-0.1,0.1-0.2,0.3-0.3,0.5c0.1-0.2,0.2-0.5,0.3-0.6s0.3-0.1,0.4-0.1c0.4,0,0.1-0.1,0.1-0.2
			c0.4-0.4,0.7-0.9,1.2-1.2c1.1-0.6,2.2-1.2,3.4-1.8c0.6,0.4,2.1-0.4,2.9-0.3c1.3,0.1,2.8,0.3,4.1-0.2c0.5-0.2,0.5-2.5,0.5-3
			c0.3,0.9,0.9,0.5,1.4,0.2c-0.4,0.8-0.4,0.9-0.1,1.8c0.5-0.4,1.5-1.5,2.1-1.5c0.4,0,0.4,0.1,0.2,0.3c0.8,0.1,3.3,0.5,3.6-0.2
			c0.1-0.2,0-0.8-0.1-1c-0.1-0.5-0.4-1.2-0.8-1.4c0,0-0.8-0.2-0.7,0c0.2,0.2,0.5-0.1,0.6,0.1c0.2,0.2,0.2,0.4,0.3,0.7
			c0.5,0.9,0.4,1.2-0.6,1.4c-0.4,0.1-0.9,0.2-1.4-0.1c-0.4-0.4-0.4-1.3-0.6-1.8c-0.2-0.4-0.5-1.1-0.7-1.4c-0.7-0.7-0.8,0.4-1.5-0.9
			c0.4-0.1,0.7-1,1.2-1.3c0.4-0.2,1.5-0.4,0.9-0.9c-0.1,0.5-0.4,0.3-0.6,0.1c-0.6-0.9-0.4-2.3,0.2-3c0.8-1,2.2-2.2,2.5-3.5
			c0.2-1,0.3-1,1-1.6c0,0,0,0.1-0.1,0.2c0.7-0.3,0.7-0.3,1.1,0.6c-0.1-0.4-0.2-1-0.1-1.6c0,0.1,0,0.1,0,0.2c0-0.1,0-0.2,0-0.3
			c0,0.5,0.1,1,0.3,1.5c0.2-0.5,0.2-1.1,0.4-1.6l0,0c-0.2,0.4-0.1,1,0.3,1.2c0.1-0.3,0.1-0.5,0.1-0.8v0.1v-0.1c0,0.1,0,0.1,0.1,0.1
			c0.5-0.1,0.6-0.5,0.9-0.9c0,0.2,0,0.3,0,0.5c0.5,0,1.4,0,1.5-0.7c-0.5,0,0.6-1.8,0.8-2.1c0.1-0.2,0.8-1.8,0.8-0.9
			c0,0.2-0.2,0.6-0.3,0.7c0.1-0.1,0.3-0.1,0.4-0.1c-0.2,0.2-0.4,0.5-0.5,0.8c0.3-0.3,1.1,0.4,1.5,0.5c-0.2-0.6,0-1.3,0.4-1.7
			c0.3-0.2,1.2-0.4,1.2,0c0.5-0.2,0.4,0.5,0.7,1c0.2-0.3,0.2-0.7,0.4-1c0.1,0.2,0.2,0.5,0.4,0.6c0.1-0.4,0.3-1,0.6-1.3
			c0.5,0.4,1.4-0.8,2.1-0.6c0.3,0.1,0.4,0.6,0.7,0.3c0.3-0.3,0.7-0.6,1-0.9L718.5,1254.4z M671,1302.1c0.1,0.1,0.1,0.2,0.2,0.3
			C671.1,1302.3,671,1302.2,671,1302.1L671,1302.1z M704.8,1259.6c0,0.1-0.1,0.2-0.1,0.3C704.8,1259.9,704.8,1259.7,704.8,1259.6
			c-0.1,0.1-0.1,0.1-0.1,0.2C704.8,1259.7,704.8,1259.6,704.8,1259.6L704.8,1259.6z"/>
	</g>
</g>
<text transform="matrix(1 0 0 1 480.1521 1316.3658)" class="st1 st9 st34">26,116,471</text>
<circle class="st35" cx="449.6" cy="1317" r="9"/>
<circle class="st35" cx="434.6" cy="1285.9" r="9"/>
<circle class="st35" cx="695.6" cy="1257.9" r="9"/>
<circle class="st35" cx="682.8" cy="1273.9" r="9"/>
<circle class="st35" cx="673.8" cy="1299.9" r="9"/>
<circle class="st35" cx="668.8" cy="1298.9" r="9"/>
<circle class="st35" cx="670.8" cy="1295" r="9"/>
<g>
	<g>
		<g>
			<g>
				<path class="st36" d="M531.2,976.7l0.3-0.2c0.7,1.7,2.1,3.1,3.7,3.1c1.6,0,2.9-1.4,3.7-3.1l0.3,0.2c0.2,0,0.4-0.2,0.5-0.5
					l0.2-1.7c0-0.2-0.1-0.5-0.3-0.5c0-2.3-1.9-4.2-4.2-4.2s-4.2,1.9-4.2,4.2c-0.2,0-0.4,0.3-0.3,0.5l0.1,1.7
					C530.8,976.5,531,976.7,531.2,976.7z M544.3,985.6c0-2.7-1.5-4.9-4.2-4.9h-9.8c-2.5,0-4,1.8-4.2,4.2c-0.1,0.2-0.1,0.4-0.1,0.6
					l-0.7,16c0,1.2,0.9,2.2,1.9,2.2c1.1,0,1.9-1,1.9-2.2v-14.8l0.9,10.4l0,0v26c0,1.3,1.1,2.3,2.4,2.2c1.2-0.1,2-1.2,2-2.3v-20.9
					c0.2,0,0.4,0,0.6,0c0.2,0,0.4,0,0.6,0v21c0,0.9,0.5,1.8,1.3,2.1c1.6,0.6,3.1-0.5,3.1-2v-26l0,0l0.8-9.8v14.3
					c0,1.2,0.9,2.2,2,2.2s2-1,2-2.2L544.3,985.6z"/>
			</g>
		</g>
		<g>
			<g>
				<path class="st36" d="M510.3,979.8L510.3,979.8l-0.3-3.3l0.2-0.4l0.1-1.7c0-0.2-0.1-0.5-0.3-0.5c0-2.3-1.9-4.2-4.3-4.2
					c-2.3,0-4.2,1.9-4.3,4.2c-0.2,0-0.4,0.3-0.3,0.5l0.1,1.7l0.2,0.4l-0.3,3.3l0,0H510.3z M519.1,999.7l-5.5-15.5l-0.1-0.3
					c-0.5-2-1.9-3.4-4.1-3.4h-7.2c-2.2,0-3.7,1.5-4.1,3.6l-4.8,15.5c-0.2,1.2,0.4,2.3,1.5,2.5c1.1,0.2,2.1-0.6,2.3-1.8l3.8-14
					l-3.8,25.4l0,0h3.7l0,0v11.1c0,1.2,0.8,2.3,2,2.4c1.3,0.1,2.4-0.9,2.4-2.2v-11.2h1.3v11.1c0,1.2,0.8,2.3,2,2.4
					c1.3,0.1,2.4-0.9,2.4-2.2v-11.2l0,0h4.3l0,0l-4.3-25.4l4.4,14.2c0.3,1.2,1.4,2,2.4,1.7C518.7,1002,519.3,1000.9,519.1,999.7z"/>
			</g>
		</g>
		<g>
			<g>
				<path class="st36" d="M587.6,976.7l0.3-0.2c0.7,1.7,2.1,3.1,3.7,3.1c1.6,0,2.9-1.4,3.7-3.1l0.3,0.2c0.2,0,0.4-0.2,0.5-0.5
					l0.2-1.7c0-0.2-0.1-0.5-0.3-0.5c0-2.3-1.9-4.2-4.2-4.2s-4.2,1.9-4.2,4.2c-0.2,0-0.4,0.3-0.3,0.5l0.1,1.7
					C587.2,976.5,587.4,976.7,587.6,976.7z M600.7,985.6c0-2.7-1.5-4.9-4.2-4.9h-9.8c-2.5,0-4,1.8-4.2,4.2c-0.1,0.2-0.1,0.4-0.1,0.6
					l-0.7,16c0,1.2,0.9,2.2,1.9,2.2c1.1,0,1.9-1,1.9-2.2v-14.8l0.9,10.4l0,0v26c0,1.3,1.1,2.3,2.4,2.2c1.2-0.1,2-1.2,2-2.3v-20.9
					c0.2,0,0.4,0,0.6,0c0.2,0,0.4,0,0.6,0v21c0,0.9,0.5,1.8,1.3,2.1c1.6,0.6,3.1-0.5,3.1-2v-26l0,0l0.8-9.8v14.3
					c0,1.2,0.9,2.2,2,2.2s2-1,2-2.2L600.7,985.6z"/>
			</g>
		</g>
		<g>
			<g>
				<path class="st36" d="M568.7,979.8L568.7,979.8l-0.3-3.3l0.2-0.4l0.1-1.7c0-0.2-0.1-0.5-0.3-0.5c0-2.3-1.9-4.2-4.3-4.2
					c-2.3,0-4.2,1.9-4.3,4.2c-0.2,0-0.4,0.3-0.3,0.5l0.1,1.7l0.2,0.4l-0.3,3.3l0,0H568.7z M577.5,999.7l-5.5-15.5l-0.1-0.3
					c-0.5-2-1.9-3.4-4.1-3.4h-7.2c-2.2,0-3.7,1.5-4.1,3.6l-4.8,15.5c-0.2,1.2,0.4,2.3,1.5,2.5c1.1,0.2,2.1-0.6,2.3-1.8l3.8-14
					l-3.8,25.4l0,0h3.7l0,0v11.1c0,1.2,0.8,2.3,2,2.4c1.3,0.1,2.4-0.9,2.4-2.2v-11.2h1.3v11.1c0,1.2,0.8,2.3,2,2.4
					c1.3,0.1,2.4-0.9,2.4-2.2v-11.2l0,0h4.3l0,0l-4.3-25.4l4.4,14.2c0.3,1.2,1.4,2,2.4,1.7C577.1,1002,577.8,1000.9,577.5,999.7z"/>
			</g>
		</g>
		<g>
			<g>
				<path class="st36" d="M625.3,979.8C625.3,979.8,625.4,979.8,625.3,979.8l-0.3-3.3l0.2-0.4l0.1-1.7c0-0.2-0.1-0.5-0.3-0.5
					c0-2.3-1.9-4.2-4.3-4.2c-2.3,0-4.2,1.9-4.3,4.2c-0.2,0-0.4,0.3-0.3,0.5l0.1,1.7l0.2,0.4l-0.3,3.3l0,0H625.3z M634.1,999.7
					l-5.5-15.5l-0.1-0.3c-0.5-2-1.9-3.4-4.1-3.4h-7.2c-2.2,0-3.7,1.5-4.1,3.6l-4.8,15.5c-0.2,1.2,0.4,2.3,1.5,2.5
					c1.1,0.2,2.1-0.6,2.3-1.8l3.8-14l-3.8,25.4l0,0h3.7l0,0v11.1c0,1.2,0.8,2.3,2,2.4c1.3,0.1,2.4-0.9,2.4-2.2v-11.2h1.3v11.1
					c0,1.2,0.8,2.3,2,2.4c1.3,0.1,2.4-0.9,2.4-2.2v-11.2l0,0h4.3l0,0l-4.3-25.4l4.4,14.2c0.3,1.2,1.4,2,2.4,1.7
					C633.7,1002,634.4,1000.9,634.1,999.7z"/>
			</g>
		</g>
	</g>
	<g>
		<g>
			<path class="st37" d="M516.2,985.7l0.3-0.2c0.7,1.7,2.1,3.1,3.7,3.1c1.6,0,2.9-1.4,3.7-3.1l0.3,0.2c0.2,0,0.4-0.2,0.5-0.5
				l0.2-1.7c0-0.2-0.1-0.5-0.3-0.5c0-2.3-1.9-4.2-4.2-4.2s-4.2,1.9-4.2,4.2c-0.2,0-0.4,0.3-0.3,0.5l0.1,1.7
				C515.8,985.5,516,985.7,516.2,985.7z M529.3,994.6c0-2.7-1.5-4.9-4.2-4.9h-9.8c-2.5,0-4,1.8-4.2,4.2c-0.1,0.2-0.1,0.4-0.1,0.6
				l-0.7,16c0,1.2,0.9,2.2,1.9,2.2c1.1,0,1.9-1,1.9-2.2v-14.8l0.9,10.4l0,0v26c0,1.3,1.1,2.3,2.4,2.2c1.2-0.1,2-1.2,2-2.3v-20.9
				c0.2,0,0.4,0,0.6,0c0.2,0,0.4,0,0.6,0v21c0,0.9,0.5,1.8,1.3,2.1c1.6,0.6,3.1-0.5,3.1-2v-26l0,0l0.8-9.8v14.3c0,1.2,0.9,2.2,2,2.2
				s2-1,2-2.2L529.3,994.6z"/>
		</g>
	</g>
	<g>
		<g>
			<path class="st37" d="M495.3,988.8L495.3,988.8l-0.3-3.3l0.2-0.4l0.1-1.7c0-0.2-0.1-0.5-0.3-0.5c0-2.3-1.9-4.2-4.3-4.2
				c-2.3,0-4.2,1.9-4.3,4.2c-0.2,0-0.4,0.3-0.3,0.5l0.1,1.7l0.2,0.4l-0.3,3.3l0,0H495.3z M504.1,1008.7l-5.5-15.5l-0.1-0.3
				c-0.5-2-1.9-3.4-4.1-3.4h-7.2c-2.2,0-3.7,1.5-4.1,3.6l-4.8,15.5c-0.2,1.2,0.4,2.3,1.5,2.5s2.1-0.6,2.3-1.8l3.8-14l-3.8,25.4l0,0
				h3.7l0,0v11.1c0,1.2,0.8,2.3,2,2.4c1.3,0.1,2.4-0.9,2.4-2.2v-11.2h1.3v11.1c0,1.2,0.8,2.3,2,2.4c1.3,0.1,2.4-0.9,2.4-2.2v-11.2
				l0,0h4.3l0,0l-4.3-25.4l4.4,14.2c0.3,1.2,1.4,2,2.4,1.7C503.7,1011,504.3,1009.9,504.1,1008.7z"/>
		</g>
	</g>
	<g>
		<g>
			<path class="st37" d="M572.6,985.7l0.3-0.2c0.7,1.7,2.1,3.1,3.7,3.1c1.6,0,2.9-1.4,3.7-3.1l0.3,0.2c0.2,0,0.4-0.2,0.5-0.5
				l0.2-1.7c0-0.2-0.1-0.5-0.3-0.5c0-2.3-1.9-4.2-4.2-4.2s-4.2,1.9-4.2,4.2c-0.2,0-0.4,0.3-0.3,0.5l0.1,1.7
				C572.2,985.5,572.4,985.7,572.6,985.7z M585.7,994.6c0-2.7-1.5-4.9-4.2-4.9h-9.8c-2.5,0-4,1.8-4.2,4.2c-0.1,0.2-0.1,0.4-0.1,0.6
				l-0.7,16c0,1.2,0.9,2.2,1.9,2.2c1.1,0,1.9-1,1.9-2.2v-14.8l0.9,10.4l0,0v26c0,1.3,1.1,2.3,2.4,2.2c1.2-0.1,2-1.2,2-2.3v-20.9
				c0.2,0,0.4,0,0.6,0c0.2,0,0.4,0,0.6,0v21c0,0.9,0.5,1.8,1.3,2.1c1.6,0.6,3.1-0.5,3.1-2v-26l0,0l0.8-9.8v14.3c0,1.2,0.9,2.2,2,2.2
				s2-1,2-2.2L585.7,994.6z"/>
		</g>
	</g>
	<g>
		<g>
			<path class="st37" d="M553.7,988.8L553.7,988.8l-0.3-3.3l0.2-0.4l0.1-1.7c0-0.2-0.1-0.5-0.3-0.5c0-2.3-1.9-4.2-4.3-4.2
				c-2.3,0-4.2,1.9-4.3,4.2c-0.2,0-0.4,0.3-0.3,0.5l0.1,1.7l0.2,0.4l-0.3,3.3l0,0H553.7z M562.5,1008.7l-5.5-15.5l-0.1-0.3
				c-0.5-2-1.9-3.4-4.1-3.4h-7.2c-2.2,0-3.7,1.5-4.1,3.6l-4.8,15.5c-0.2,1.2,0.4,2.3,1.5,2.5s2.1-0.6,2.3-1.8l3.8-14l-3.8,25.4l0,0
				h3.7l0,0v11.1c0,1.2,0.8,2.3,2,2.4c1.3,0.1,2.4-0.9,2.4-2.2v-11.2h1.3v11.1c0,1.2,0.8,2.3,2,2.4c1.3,0.1,2.4-0.9,2.4-2.2v-11.2
				l0,0h4.3l0,0l-4.3-25.4l4.4,14.2c0.3,1.2,1.4,2,2.4,1.7C562.1,1011,562.8,1009.9,562.5,1008.7z"/>
		</g>
	</g>
	<g>
		<g>
			<path class="st37" d="M631.2,985.7l0.3-0.2c0.7,1.7,2.1,3.1,3.7,3.1c1.6,0,2.9-1.4,3.7-3.1l0.3,0.2c0.2,0,0.4-0.2,0.5-0.5
				l0.2-1.7c0-0.2-0.1-0.5-0.3-0.5c0-2.3-1.9-4.2-4.2-4.2s-4.2,1.9-4.2,4.2c-0.2,0-0.4,0.3-0.3,0.5l0.1,1.7
				C630.8,985.5,631,985.7,631.2,985.7z M644.3,994.6c0-2.7-1.5-4.9-4.2-4.9h-9.8c-2.5,0-4,1.8-4.2,4.2c-0.1,0.2-0.1,0.4-0.1,0.6
				l-0.7,16c0,1.2,0.9,2.2,1.9,2.2c1.1,0,1.9-1,1.9-2.2v-14.8l0.9,10.4l0,0v26c0,1.3,1.1,2.3,2.4,2.2c1.2-0.1,2-1.2,2-2.3v-20.9
				c0.2,0,0.4,0,0.6,0c0.2,0,0.4,0,0.6,0v21c0,0.9,0.5,1.8,1.3,2.1c1.6,0.6,3.1-0.5,3.1-2v-26l0,0l0.8-9.8v14.3c0,1.2,0.9,2.2,2,2.2
				s2-1,2-2.2L644.3,994.6z"/>
		</g>
	</g>
	<g>
		<g>
			<path class="st37" d="M610.3,988.8C610.3,988.8,610.4,988.8,610.3,988.8l-0.3-3.3l0.2-0.4l0.1-1.7c0-0.2-0.1-0.5-0.3-0.5
				c0-2.3-1.9-4.2-4.3-4.2c-2.3,0-4.2,1.9-4.3,4.2c-0.2,0-0.4,0.3-0.3,0.5l0.1,1.7l0.2,0.4l-0.3,3.3l0,0H610.3z M619.1,1008.7
				l-5.5-15.5l-0.1-0.3c-0.5-2-1.9-3.4-4.1-3.4h-7.2c-2.2,0-3.7,1.5-4.1,3.6l-4.8,15.5c-0.2,1.2,0.4,2.3,1.5,2.5s2.1-0.6,2.3-1.8
				l3.8-14l-3.8,25.4l0,0h3.7l0,0v11.1c0,1.2,0.8,2.3,2,2.4c1.3,0.1,2.4-0.9,2.4-2.2v-11.2h1.3v11.1c0,1.2,0.8,2.3,2,2.4
				c1.3,0.1,2.4-0.9,2.4-2.2v-11.2l0,0h4.3l0,0l-4.3-25.4l4.4,14.2c0.3,1.2,1.4,2,2.4,1.7C618.7,1011,619.4,1009.9,619.1,1008.7z"/>
		</g>
	</g>
	<polygon class="st38" points="626.5,1027.6 509.5,1027.6 443.5,1063.6 692.5,1063.6 	"/>
	<g>
		<g>
			<path class="st39" d="M501.2,1001.7l0.3-0.2c0.7,1.7,2.1,3.1,3.7,3.1c1.6,0,2.9-1.4,3.7-3.1l0.3,0.2c0.2,0,0.4-0.2,0.5-0.5
				l0.2-1.7c0-0.2-0.1-0.5-0.3-0.5c0-2.3-1.9-4.2-4.2-4.2s-4.2,1.9-4.2,4.2c-0.2,0-0.4,0.3-0.3,0.5l0.1,1.7
				C500.8,1001.5,501,1001.7,501.2,1001.7z M514.3,1010.6c0-2.7-1.5-4.9-4.2-4.9h-9.8c-2.5,0-4,1.8-4.2,4.2
				c-0.1,0.2-0.1,0.4-0.1,0.6l-0.7,16c0,1.2,0.9,2.2,1.9,2.2c1.1,0,1.9-1,1.9-2.2v-14.8l0.9,10.4l0,0v26c0,1.3,1.1,2.3,2.4,2.2
				c1.2-0.1,2-1.2,2-2.3v-20.9c0.2,0,0.4,0,0.6,0c0.2,0,0.4,0,0.6,0v21c0,0.9,0.5,1.8,1.3,2.1c1.6,0.6,3.1-0.5,3.1-2v-26l0,0
				l0.8-9.8v14.3c0,1.2,0.9,2.2,2,2.2s2-1,2-2.2L514.3,1010.6z"/>
		</g>
	</g>
	<g>
		<g>
			<path class="st39" d="M480.3,1004.8L480.3,1004.8l-0.3-3.3l0.2-0.4l0.1-1.7c0-0.2-0.1-0.5-0.3-0.5c0-2.3-1.9-4.2-4.3-4.2
				c-2.3,0-4.2,1.9-4.3,4.2c-0.2,0-0.4,0.3-0.3,0.5l0.1,1.7l0.2,0.4l-0.3,3.3l0,0H480.3z M489.1,1024.7l-5.5-15.5l-0.1-0.3
				c-0.5-2-1.9-3.4-4.1-3.4h-7.2c-2.2,0-3.7,1.5-4.1,3.6l-4.8,15.5c-0.2,1.2,0.4,2.3,1.5,2.5s2.1-0.6,2.3-1.8l3.8-14l-3.8,25.4l0,0
				h3.7l0,0v11.1c0,1.2,0.8,2.3,2,2.4c1.3,0.1,2.4-0.9,2.4-2.2v-11.2h1.3v11.1c0,1.2,0.8,2.3,2,2.4c1.3,0.1,2.4-0.9,2.4-2.2v-11.2
				l0,0h4.3l0,0l-4.3-25.4l4.4,14.2c0.3,1.2,1.4,2,2.4,1.7C488.7,1027,489.3,1025.9,489.1,1024.7z"/>
		</g>
	</g>
	<g>
		<g>
			<path class="st39" d="M557.6,1001.7l0.3-0.2c0.7,1.7,2.1,3.1,3.7,3.1c1.6,0,2.9-1.4,3.7-3.1l0.3,0.2c0.2,0,0.4-0.2,0.5-0.5
				l0.2-1.7c0-0.2-0.1-0.5-0.3-0.5c0-2.3-1.9-4.2-4.2-4.2s-4.2,1.9-4.2,4.2c-0.2,0-0.4,0.3-0.3,0.5l0.1,1.7
				C557.2,1001.5,557.4,1001.7,557.6,1001.7z M570.7,1010.6c0-2.7-1.5-4.9-4.2-4.9h-9.8c-2.5,0-4,1.8-4.2,4.2
				c-0.1,0.2-0.1,0.4-0.1,0.6l-0.7,16c0,1.2,0.9,2.2,1.9,2.2c1.1,0,1.9-1,1.9-2.2v-14.8l0.9,10.4l0,0v26c0,1.3,1.1,2.3,2.4,2.2
				c1.2-0.1,2-1.2,2-2.3v-20.9c0.2,0,0.4,0,0.6,0c0.2,0,0.4,0,0.6,0v21c0,0.9,0.5,1.8,1.3,2.1c1.6,0.6,3.1-0.5,3.1-2v-26l0,0
				l0.8-9.8v14.3c0,1.2,0.9,2.2,2,2.2s2-1,2-2.2L570.7,1010.6z"/>
		</g>
	</g>
	<g>
		<g>
			<path class="st39" d="M538.7,1004.8L538.7,1004.8l-0.3-3.3l0.2-0.4l0.1-1.7c0-0.2-0.1-0.5-0.3-0.5c0-2.3-1.9-4.2-4.3-4.2
				c-2.3,0-4.2,1.9-4.3,4.2c-0.2,0-0.4,0.3-0.3,0.5l0.1,1.7l0.2,0.4l-0.3,3.3l0,0H538.7z M547.5,1024.7l-5.5-15.5l-0.1-0.3
				c-0.5-2-1.9-3.4-4.1-3.4h-7.2c-2.2,0-3.7,1.5-4.1,3.6l-4.8,15.5c-0.2,1.2,0.4,2.3,1.5,2.5s2.1-0.6,2.3-1.8l3.8-14l-3.8,25.4l0,0
				h3.7l0,0v11.1c0,1.2,0.8,2.3,2,2.4c1.3,0.1,2.4-0.9,2.4-2.2v-11.2h1.3v11.1c0,1.2,0.8,2.3,2,2.4c1.3,0.1,2.4-0.9,2.4-2.2v-11.2
				l0,0h4.3l0,0l-4.3-25.4l4.4,14.2c0.3,1.2,1.4,2,2.4,1.7C547.1,1027,547.8,1025.9,547.5,1024.7z"/>
		</g>
	</g>
	<g>
		<g>
			<path class="st39" d="M616.2,1001.7l0.3-0.2c0.7,1.7,2.1,3.1,3.7,3.1c1.6,0,2.9-1.4,3.7-3.1l0.3,0.2c0.2,0,0.4-0.2,0.5-0.5
				l0.2-1.7c0-0.2-0.1-0.5-0.3-0.5c0-2.3-1.9-4.2-4.2-4.2s-4.2,1.9-4.2,4.2c-0.2,0-0.4,0.3-0.3,0.5l0.1,1.7
				C615.8,1001.5,616,1001.7,616.2,1001.7z M629.3,1010.6c0-2.7-1.5-4.9-4.2-4.9h-9.8c-2.5,0-4,1.8-4.2,4.2
				c-0.1,0.2-0.1,0.4-0.1,0.6l-0.7,16c0,1.2,0.9,2.2,1.9,2.2c1.1,0,1.9-1,1.9-2.2v-14.8l0.9,10.4l0,0v26c0,1.3,1.1,2.3,2.4,2.2
				c1.2-0.1,2-1.2,2-2.3v-20.9c0.2,0,0.4,0,0.6,0c0.2,0,0.4,0,0.6,0v21c0,0.9,0.5,1.8,1.3,2.1c1.6,0.6,3.1-0.5,3.1-2v-26l0,0
				l0.8-9.8v14.3c0,1.2,0.9,2.2,2,2.2s2-1,2-2.2L629.3,1010.6z"/>
		</g>
	</g>
	<g>
		<g>
			<path class="st39" d="M595.3,1004.8C595.3,1004.8,595.4,1004.8,595.3,1004.8l-0.3-3.3l0.2-0.4l0.1-1.7c0-0.2-0.1-0.5-0.3-0.5
				c0-2.3-1.9-4.2-4.3-4.2c-2.3,0-4.2,1.9-4.3,4.2c-0.2,0-0.4,0.3-0.3,0.5l0.1,1.7l0.2,0.4l-0.3,3.3l0,0H595.3z M604.1,1024.7
				l-5.5-15.5l-0.1-0.3c-0.5-2-1.9-3.4-4.1-3.4h-7.2c-2.2,0-3.7,1.5-4.1,3.6l-4.8,15.5c-0.2,1.2,0.4,2.3,1.5,2.5s2.1-0.6,2.3-1.8
				l3.8-14l-3.8,25.4l0,0h3.7l0,0v11.1c0,1.2,0.8,2.3,2,2.4c1.3,0.1,2.4-0.9,2.4-2.2v-11.2h1.3v11.1c0,1.2,0.8,2.3,2,2.4
				c1.3,0.1,2.4-0.9,2.4-2.2v-11.2l0,0h4.3l0,0l-4.3-25.4l4.4,14.2c0.3,1.2,1.4,2,2.4,1.7C603.7,1027,604.4,1025.9,604.1,1024.7z"/>
		</g>
	</g>
	<g>
		<g>
			<path class="st39" d="M651.7,1004.8C651.8,1004.8,651.8,1004.8,651.7,1004.8l-0.3-3.3l0.2-0.4l0.1-1.7c0-0.2-0.1-0.5-0.3-0.5
				c0-2.3-1.9-4.2-4.3-4.2c-2.3,0-4.2,1.9-4.3,4.2c-0.2,0-0.4,0.3-0.3,0.5l0.1,1.7l0.2,0.4l-0.3,3.3l0,0H651.7z M660.5,1024.7
				l-5.5-15.5l-0.1-0.3c-0.5-2-1.9-3.4-4.1-3.4h-7.2c-2.2,0-3.7,1.5-4.1,3.6l-4.8,15.5c-0.2,1.2,0.4,2.3,1.5,2.5s2.1-0.6,2.3-1.8
				l3.8-14l-3.8,25.4l0,0h3.7l0,0v11.1c0,1.2,0.8,2.3,2,2.4c1.3,0.1,2.4-0.9,2.4-2.2v-11.2h1.3v11.1c0,1.2,0.8,2.3,2,2.4
				c1.3,0.1,2.4-0.9,2.4-2.2v-11.2l0,0h4.3l0,0l-4.3-25.4l4.4,14.2c0.3,1.2,1.4,2,2.4,1.7C660.1,1027,660.8,1025.9,660.5,1024.7z"/>
		</g>
	</g>
	<g>
		<g>
			<g>
				<g>
					<path class="st40" d="M484.1,1008.7l0.3-0.2c0.8,1.8,2.3,3.3,4,3.3s3.2-1.5,4-3.3l0.3,0.2c0.2,0,0.5-0.2,0.5-0.5l0.2-1.9
						c0-0.3-0.1-0.5-0.3-0.5c0-2.5-2.1-4.6-4.6-4.6s-4.6,2-4.6,4.5c-0.2,0-0.4,0.3-0.4,0.6l0.2,1.9
						C483.7,1008.5,483.9,1008.7,484.1,1008.7z M498.3,1018.3c0-2.9-1.6-5.3-4.6-5.3h-10.6c-2.7,0-4.3,2-4.5,4.6
						c-0.1,0.2-0.1,0.5-0.1,0.7l-0.7,17.3c0,1.3,0.9,2.4,2.1,2.4c1.2,0,2.1-1.1,2.1-2.4v-16l1,11.2v28.1c0,1.3,1.1,2.4,2.4,2.4
						c1.3,0,2.4-1.1,2.4-2.4v-22.7c0.2,0,0.4,0,0.7,0c0.2,0,0.5,0,0.7,0v22.7c0,1.3,1.1,2.4,2.4,2.4c1.3,0,2.4-1.1,2.4-2.4v-28.1
						l0.9-10.6v15.4c0,1.3,1,2.4,2.1,2.4c1.2,0,2.1-1.1,2.1-2.4L498.3,1018.3z"/>
				</g>
			</g>
			<g>
				<g>
					<path class="st40" d="M463.7,1012.1l-0.4-3.6l0.2-0.4l0.2-1.9c0-0.3-0.1-0.5-0.3-0.6c0-2.5-2.1-4.6-4.6-4.6s-4.6,2-4.6,4.6
						c-0.2,0-0.4,0.3-0.4,0.6l0.2,1.9l0.2,0.4l-0.4,3.6H463.7z M473.2,1033.6l-6-16.7l-0.1-0.3c-0.5-2.1-2-3.7-4.4-3.7h-7.8
						c-2.4,0-4,1.6-4.4,3.9l-5.2,16.8c-0.2,1.3,0.5,2.5,1.6,2.7s2.2-0.7,2.5-2l4.1-15.1l-4.2,27.5h4v12.2c0,1.3,1.1,2.4,2.4,2.4
						c1.3,0,2.4-1.1,2.4-2.4v-12.2h1.4v12.2c0,1.3,1.1,2.4,2.4,2.4c1.3,0,2.4-1.1,2.4-2.4v-12.2h4.7l-4.7-27.5l4.8,15.3
						c0.3,1.3,1.5,2.1,2.6,1.9C472.8,1036.2,473.5,1034.9,473.2,1033.6z"/>
				</g>
			</g>
		</g>
		<g>
			<g>
				<g>
					<path class="st40" d="M543,1008.7l0.3-0.2c0.8,1.8,2.3,3.3,4,3.3s3.2-1.5,4-3.3l0.3,0.2c0.2,0,0.5-0.2,0.5-0.5l0.2-1.9
						c0-0.3-0.1-0.5-0.3-0.5c0-2.5-2.1-4.6-4.6-4.6s-4.6,2-4.6,4.5c-0.2,0-0.4,0.3-0.4,0.6l0.2,1.9
						C542.5,1008.5,542.7,1008.7,543,1008.7z M557.2,1018.3c0-2.9-1.6-5.3-4.6-5.3H542c-2.7,0-4.3,2-4.5,4.6
						c-0.1,0.2-0.1,0.5-0.1,0.7l-0.7,17.3c0,1.3,0.9,2.4,2.1,2.4c1.2,0,2.1-1.1,2.1-2.4v-16l1,11.2v28.1c0,1.3,1.1,2.4,2.4,2.4
						c1.3,0,2.4-1.1,2.4-2.4v-22.7c0.2,0,0.4,0,0.7,0c0.2,0,0.5,0,0.7,0v22.7c0,1.3,1.1,2.4,2.4,2.4c1.3,0,2.4-1.1,2.4-2.4v-28.1
						l0.9-10.6v15.4c0,1.3,1,2.4,2.1,2.4c1.2,0,2.1-1.1,2.1-2.4L557.2,1018.3z"/>
				</g>
			</g>
			<g>
				<g>
					<path class="st40" d="M522.6,1012.1l-0.4-3.6l0.2-0.4l0.2-1.9c0-0.3-0.1-0.5-0.3-0.6c0-2.5-2.1-4.6-4.6-4.6s-4.6,2-4.6,4.6
						c-0.2,0-0.4,0.3-0.4,0.6l0.2,1.9l0.2,0.4l-0.4,3.6H522.6z M532,1033.6l-6-16.7l-0.1-0.3c-0.5-2.1-2-3.7-4.4-3.7h-7.8
						c-2.4,0-4,1.6-4.4,3.9l-5.2,16.8c-0.2,1.3,0.5,2.5,1.6,2.7s2.2-0.7,2.5-2l4.1-15.1l-4.2,27.5h4v12.2c0,1.3,1.1,2.4,2.4,2.4
						c1.3,0,2.4-1.1,2.4-2.4v-12.2h1.4v12.2c0,1.3,1.1,2.4,2.4,2.4c1.3,0,2.4-1.1,2.4-2.4v-12.2h4.7l-4.7-27.5l4.8,15.3
						c0.3,1.3,1.5,2.1,2.6,1.9C531.6,1036.2,532.3,1034.9,532,1033.6z"/>
				</g>
			</g>
		</g>
		<g>
			<g>
				<g>
					<path class="st40" d="M599.9,1008.7l0.3-0.2c0.8,1.8,2.3,3.3,4,3.3s3.2-1.5,4-3.3l0.3,0.2c0.2,0,0.5-0.2,0.5-0.5l0.2-1.9
						c0-0.3-0.1-0.5-0.3-0.5c0-2.5-2.1-4.6-4.6-4.6s-4.6,2-4.6,4.5c-0.2,0-0.4,0.3-0.4,0.6l0.2,1.9
						C599.4,1008.5,599.6,1008.7,599.9,1008.7z M614,1018.3c0-2.9-1.6-5.3-4.6-5.3h-10.6c-2.7,0-4.3,2-4.5,4.6
						c-0.1,0.2-0.1,0.5-0.1,0.7l-0.7,17.3c0,1.3,0.9,2.4,2.1,2.4c1.2,0,2.1-1.1,2.1-2.4v-16l1,11.2v28.1c0,1.3,1.1,2.4,2.4,2.4
						c1.3,0,2.4-1.1,2.4-2.4v-22.7c0.2,0,0.4,0,0.7,0c0.2,0,0.5,0,0.7,0v22.7c0,1.3,1.1,2.4,2.4,2.4c1.3,0,2.4-1.1,2.4-2.4v-28.1
						l0.9-10.6v15.4c0,1.3,1,2.4,2.1,2.4c1.2,0,2.1-1.1,2.1-2.4L614,1018.3z"/>
				</g>
			</g>
			<g>
				<g>
					<path class="st40" d="M579.5,1012.1l-0.4-3.6l0.2-0.4l0.2-1.9c0-0.3-0.1-0.5-0.3-0.6c0-2.5-2.1-4.6-4.6-4.6s-4.6,2-4.6,4.6
						c-0.2,0-0.4,0.3-0.4,0.6l0.2,1.9l0.2,0.4l-0.4,3.6H579.5z M588.9,1033.6l-6-16.7l-0.1-0.3c-0.5-2.1-2-3.7-4.4-3.7h-7.8
						c-2.4,0-4,1.6-4.4,3.9l-5.2,16.8c-0.2,1.3,0.5,2.5,1.6,2.7s2.2-0.7,2.5-2l4.1-15.1l-4.2,27.5h4v12.2c0,1.3,1.1,2.4,2.4,2.4
						c1.3,0,2.4-1.1,2.4-2.4v-12.2h1.4v12.2c0,1.3,1.1,2.4,2.4,2.4c1.3,0,2.4-1.1,2.4-2.4v-12.2h4.7l-4.7-27.5l4.8,15.3
						c0.3,1.3,1.5,2.1,2.6,1.9C588.5,1036.2,589.2,1034.9,588.9,1033.6z"/>
				</g>
			</g>
		</g>
		<g>
			<g>
				<g>
					<path class="st40" d="M658.7,1008.7l0.3-0.2c0.8,1.8,2.3,3.3,4,3.3s3.2-1.5,4-3.3l0.3,0.2c0.2,0,0.5-0.2,0.5-0.5l0.2-1.9
						c0-0.3-0.1-0.5-0.3-0.5c0-2.5-2.1-4.6-4.6-4.6s-4.6,2-4.6,4.5c-0.2,0-0.4,0.3-0.4,0.6l0.2,1.9
						C658.2,1008.5,658.5,1008.7,658.7,1008.7z M672.9,1018.3c0-2.9-1.6-5.3-4.6-5.3h-10.6c-2.7,0-4.3,2-4.5,4.6
						c-0.1,0.2-0.1,0.5-0.1,0.7l-0.7,17.3c0,1.3,0.9,2.4,2.1,2.4c1.2,0,2.1-1.1,2.1-2.4v-16l1,11.2v28.1c0,1.3,1.1,2.4,2.4,2.4
						c1.3,0,2.4-1.1,2.4-2.4v-22.7c0.2,0,0.4,0,0.7,0c0.2,0,0.5,0,0.7,0v22.7c0,1.3,1.1,2.4,2.4,2.4c1.3,0,2.4-1.1,2.4-2.4v-28.1
						l0.9-10.6v15.4c0,1.3,1,2.4,2.1,2.4c1.2,0,2.1-1.1,2.1-2.4L672.9,1018.3z"/>
				</g>
			</g>
			<g>
				<g>
					<path class="st40" d="M638.3,1012.1l-0.4-3.6l0.2-0.4l0.2-1.9c0-0.3-0.1-0.5-0.3-0.6c0-2.5-2.1-4.6-4.6-4.6s-4.6,2-4.6,4.6
						c-0.2,0-0.4,0.3-0.4,0.6l0.2,1.9l0.2,0.4l-0.4,3.6H638.3z M647.8,1033.6l-6-16.7l-0.1-0.3c-0.5-2.1-2-3.7-4.4-3.7h-7.8
						c-2.4,0-4,1.6-4.4,3.9l-5.2,16.8c-0.2,1.3,0.5,2.5,1.6,2.7s2.2-0.7,2.5-2l4.1-15.1l-4.2,27.5h4v12.2c0,1.3,1.1,2.4,2.4,2.4
						c1.3,0,2.4-1.1,2.4-2.4v-12.2h1.4v12.2c0,1.3,1.1,2.4,2.4,2.4c1.3,0,2.4-1.1,2.4-2.4v-12.2h4.7l-4.7-27.5l4.8,15.3
						c0.3,1.3,1.5,2.1,2.6,1.9C647.4,1036.2,648.1,1034.9,647.8,1033.6z"/>
				</g>
			</g>
		</g>
	</g>
</g>
<text transform="matrix(1 0 0 1 1092.9778 652.0441)" class="st1 st29 st41">%</text>
<g>
	<polygon class="st1" points="1057.6,415.2 1057.6,410.7 1055,410.7 1055,412.7 1052.5,410.1 1045.5,417.1 1046.8,417.1 
		1046.8,424.1 1050.6,424.1 1050.6,418.4 1054.4,418.4 1054.4,424.1 1058.2,424.1 1058.2,417.1 1059.5,417.1 	"/>
</g>
<path class="st1" d="M850.3,857.1c-1.1-2.2-3.1-3.2-5-3.3c-3.9,0-6.7,2.8-6.8,6.2c0,2,0.8,3.6,2.1,5.1c1.4,1.6,2.9,3.1,3.7,5
	c0.1,0.2,0.4,0.5,0.5,0.5c0.2,0,0.4-0.3,0.5-0.5c0.6-1,1.1-2,1.8-2.9c0.9-1.2,2-2.2,2.8-3.4C851.4,861.8,851.5,859.4,850.3,857.1z
	 M844.8,863.4c-1.9,0-3.4-1.5-3.3-3.4c0-1.8,1.5-3.2,3.3-3.2s3.3,1.5,3.3,3.3C848.1,861.9,846.6,863.4,844.8,863.4z"/>
<text transform="matrix(1 0 0 1 105.484 298.6934)" class="st16 st29 st18"> $436,712,752</text>
<g>
	<path class="st6" d="M1181.5,208.7h-305c-2.8,0-5-2.2-5-5v-13c0-2.8,2.2-5,5-5h305c2.8,0,5,2.2,5,5v13
		C1186.5,206.4,1184.3,208.7,1181.5,208.7z"/>
</g>
<path class="st2" d="M1009.5,210.7h-122c-2.2,0-4-1.8-4-4v-19c0-2.2,1.8-4,4-4h122c2.2,0,4,1.8,4,4v19
	C1013.5,208.9,1011.7,210.7,1009.5,210.7z"/>
<g>
	<path class="st6" d="M1171.4,29.4H864.6c-2.3,0-4.1-1.9-4.1-4.1v-7.4c0-2.3,1.9-4.1,4.1-4.1h306.8c2.3,0,4.1,1.9,4.1,4.1v7.4
		C1175.5,27.6,1173.6,29.4,1171.4,29.4z"/>
</g>
<path class="st2" d="M1045.3,33H922.4c-2,0-3.6-1.6-3.6-3.6V15.1c0-2,1.6-3.6,3.6-3.6h122.9c2,0,3.6,1.6,3.6,3.6v14.3
	C1048.8,31.4,1047.2,33,1045.3,33z"/>
<text transform="matrix(1 0 0 1 938.9387 204.0409)" class="st1 st29 st41">$</text>
<text transform="matrix(1 0 0 1 960.1221 26.0458)" class="st1 st29 st42">CLUSTER</text>
<text transform="matrix(1 0 0 1 1069.2742 26.0458)" class="st7 st29 st42">UNITED STATES</text>
<text transform="matrix(1 0 0 1 824.6898 26.0458)" class="st8 st29 st42">KEY:</text>
<text transform="matrix(1 0 0 1 858.9669 57.0353)" class="st43 st14 st30">Lowest values</text>
<text transform="matrix(1 0 0 1 1077.4636 55.0353)" class="st43 st14 st30">Highest values</text>
<g>
	<g>
		<line class="st44" x1="860" y1="42.3" x2="860" y2="41.1"/>
		<line class="st45" x1="860" y1="38.5" x2="860" y2="4.4"/>
		<line class="st44" x1="860" y1="3.2" x2="860" y2="2"/>
	</g>
</g>
<g>
	<g>
		<line class="st44" x1="919.2" y1="42.3" x2="919.2" y2="41.1"/>
		<line class="st45" x1="919.2" y1="38.5" x2="919.2" y2="4.4"/>
		<line class="st44" x1="919.2" y1="3.2" x2="919.2" y2="2"/>
	</g>
</g>
<g>
	<g>
		<line class="st44" x1="1175.3" y1="42.3" x2="1175.3" y2="41.1"/>
		<line class="st45" x1="1175.3" y1="38.5" x2="1175.3" y2="4.4"/>
		<line class="st44" x1="1175.3" y1="3.2" x2="1175.3" y2="2"/>
	</g>
</g>
<g>
	<g>
		<line class="st44" x1="1049" y1="42.3" x2="1049" y2="41.1"/>
		<line class="st45" x1="1049" y1="38.5" x2="1049" y2="4.4"/>
		<line class="st44" x1="1049" y1="3.2" x2="1049" y2="2"/>
	</g>
</g>
<text transform="matrix(1 0 0 1 79.9387 255.3659)" class="st16 st11 st17">91.7%</text>
<rect x="75.4" y="269.4" class="st7" width="13" height="13"/>
<g>
	<text transform="matrix(1 0 0 1 95.2532 280.4421)" class="st16 st29 st18">Continuum of Care</text>
</g>
<rect x="380.5" y="178.8" class="st25" width="287" height="56.9"/>
<text transform="matrix(1 0 0 1 380.4856 190.0997)" class="st16 st9 st12">$4,254,283   </text>
<text transform="matrix(1 0 0 1 380.4856 208.0997)" class="st16 st14 st46">Homeless Veterans Reintegration Program</text>
<rect x="572.5" y="513.2" class="st25" width="197" height="109.4"/>
<text transform="matrix(1 0 0 1 572.4856 524.5605)" class="st16 st9 st12">$1,050,000   </text>
<text transform="matrix(1 0 0 1 572.4856 542.5605)" class="st16 st14 st46">Transitional Housing  </text>
<text transform="matrix(1 0 0 1 572.4856 560.5605)" class="st16 st14 st46">Assistance for Victims  </text>
<text transform="matrix(1 0 0 1 572.4856 578.5604)" class="st16 st14 st46">of Domestic Violence,  </text>
<text transform="matrix(1 0 0 1 572.4856 596.5604)" class="st16 st14 st46">Dating Violence, Stalking,  </text>
<text transform="matrix(1 0 0 1 572.4856 614.5604)" class="st16 st14 st46">or Sexual Assault</text>
<rect x="483.5" y="240.2" class="st25" width="285" height="62.4"/>
<text transform="matrix(1 0 0 1 483.4856 251.5805)" class="st16 st9 st12">$1,758,989</text>
<text transform="matrix(1 0 0 1 557.1856 251.5805)" class="st16 st14 st46">   </text>
<text transform="matrix(1 0 0 1 483.4856 269.5805)" class="st16 st14 st46">Transitional Living for Homeless Youth</text>
<rect x="572.5" y="307.2" class="st25" width="186" height="106.4"/>
<text transform="matrix(1 0 0 1 572.4856 318.5661)" class="st16 st9 st12">$1,050,000   </text>
<text transform="matrix(1 0 0 1 572.4856 336.5661)" class="st16 st14 st46">Education and Prevention </text>
<text transform="matrix(1 0 0 1 572.4856 354.5661)" class="st16 st14 st46">Grants to Reduce Sexual </text>
<text transform="matrix(1 0 0 1 572.4856 372.5661)" class="st16 st14 st46">Abuse of Runaway,  </text>
<text transform="matrix(1 0 0 1 572.4856 390.5661)" class="st16 st14 st46">Homeless and Street Youth</text>
<rect x="572.5" y="649.2" class="st25" width="166" height="46.4"/>
<text transform="matrix(1 0 0 1 572.4856 660.5596)" class="st16 st9 st12">$950,000</text>
<text transform="matrix(1 0 0 1 633.6856 660.5596)" class="st16 st14 st46">   </text>
<text transform="matrix(1 0 0 1 572.4856 678.5596)" class="st16 st14 st46">Basic Center Grant</text>
<g>
	<g>
		<line class="st47" x1="389" y1="429.4" x2="389" y2="219.6"/>
		<g>
			<path class="st48" d="M392.8,429.2c0,2.1-1.7,3.8-3.8,3.8c-2.1,0-3.8-1.7-3.8-3.8c0-2.1,1.7-3.8,3.8-3.8
				C391.1,425.5,392.8,427.1,392.8,429.2z"/>
		</g>
	</g>
</g>
<g>
	<g>
		<polyline class="st47" points="461.9,475.9 491,439.1 492,282.6 		"/>
		<g>
			<path class="st48" d="M464.9,478.1c-1.3,1.6-3.7,1.9-5.3,0.6s-1.9-3.7-0.6-5.3c1.3-1.6,3.7-1.9,5.3-0.6S466.2,476.4,464.9,478.1z
				"/>
		</g>
	</g>
</g>
<g>
	<g>
		<polyline class="st47" points="488.5,510.8 547.5,474 547.5,313.6 567.5,313.6 		"/>
		<g>
			<path class="st48" d="M490.7,513.8c-1.8,1.1-4.1,0.6-5.2-1.2c-1.1-1.8-0.6-4.1,1.2-5.2c1.8-1.1,4.1-0.6,5.2,1.2
				C493,510.4,492.4,512.7,490.7,513.8z"/>
		</g>
	</g>
</g>
<g>
	<g>
		<line class="st47" x1="504.8" y1="543.4" x2="563.5" y2="520.6"/>
		<g>
			<path class="st48" d="M506.4,546.8c-1.9,0.7-4.1-0.2-4.9-2.1s0.2-4.1,2.1-4.9s4.1,0.2,4.9,2.1C509.3,543.9,508.3,546,506.4,546.8
				z"/>
		</g>
	</g>
</g>
<g>
	<g>
		<polyline class="st47" points="513,573.6 546.5,569.6 546.5,655.6 563.5,655.6 		"/>
		<g>
			<path class="st48" d="M513.7,577.3c-2.1,0.2-3.9-1.2-4.2-3.3c-0.2-2.1,1.2-3.9,3.3-4.2c2.1-0.2,3.9,1.2,4.2,3.3
				C517.2,575.2,515.7,577,513.7,577.3z"/>
		</g>
	</g>
</g>
<rect x="572.5" y="718.2" class="st25" width="159" height="67.4"/>
<text transform="matrix(1 0 0 1 572.4857 729.5596)" class="st16 st9 st12">$30,269,373</text>
<text transform="matrix(1 0 0 1 572.4857 747.5596)" class="st16 st14 st46">VA Homeless Providers </text>
<text transform="matrix(1 0 0 1 572.4857 765.5596)" class="st16 st14 st46">Grant and Per Diem </text>
<text transform="matrix(1 0 0 1 572.4857 783.5596)" class="st16 st14 st46">Program</text>
<g>
	<g>
		<line class="st47" x1="494.7" y1="688.2" x2="565.5" y2="721.6"/>
		<g>
			<path class="st48" d="M493.3,691.7c-1.9-0.9-2.7-3.1-1.8-5s3.1-2.7,5-1.8s2.7,3.1,1.8,5S495.2,692.5,493.3,691.7z"/>
		</g>
	</g>
</g>
<g>
	<path class="st6" d="M1077.8,1103.7H894.7c-2.3,0-4.2-1.9-4.2-4.2v-14.6c0-2.3,1.9-4.2,4.2-4.2h183.1c2.3,0,4.2,1.9,4.2,4.2v14.6
		C1082,1101.8,1080.1,1103.7,1077.8,1103.7z"/>
</g>
<path class="st2" d="M1037.9,1105.7H901c-2.2,0-4-1.8-4-4v-19c0-2.2,1.8-4,4-4h136.9c2.2,0,4,1.8,4,4v19
	C1041.9,1103.9,1040.1,1105.7,1037.9,1105.7z"/>
<g>
	<path class="st1" d="M937.1,1090.3c0.3,0.1,0.5,0.1,0.7,0.3c0.5,0.3,0.8,0.8,0.8,1.3c0,2.5,0,4.9,0,7.4c0,0.8-0.6,1.4-1.5,1.5
		c-0.6,0-1.1,0-1.7,0c-2.3,0-4.7,0-7,0c-1.1,0-1.7-0.6-1.7-1.7c0-2.3,0-4.5,0-6.8c0-1.1,0.4-1.7,1.5-1.9c0-0.7,0-1.4,0-2.1
		c0-2.2,1.3-3.9,3.5-4.4c2.5-0.6,5.1,1.2,5.4,3.7c0.1,0.8,0,1.6,0.1,2.4C937.1,1090,937.1,1090.2,937.1,1090.3z M928.2,1099.2
		c3,0,5.9,0,8.9,0c0-2.5,0-4.9,0-7.4c-3,0-5.9,0-8.9,0C928.2,1094.3,928.2,1096.8,928.2,1099.2z M935.5,1090.3c0-0.8,0-1.7,0-2.5
		c-0.1-1.5-1.3-2.6-2.9-2.7c-1.4-0.1-2.8,1-3,2.4c-0.1,0.9,0,1.9,0,2.8C931.6,1090.3,933.6,1090.3,935.5,1090.3z"/>
	<path class="st1" d="M932.5,1093.3c0.8,0,1.3,0.4,1.5,1s0,1.2-0.4,1.7c-0.1,0.1-0.2,0.3-0.2,0.4c0,0.2,0,0.5,0,0.7
		c0,0.4-0.4,0.7-0.7,0.7c-0.4,0-0.7-0.3-0.7-0.7c0-0.1,0-0.2,0-0.3c0-0.4,0-0.7-0.3-1c-0.5-0.4-0.5-1.1-0.3-1.6
		C931.5,1093.6,932,1093.3,932.5,1093.3z"/>
</g>
</svg>
