<?xml version="1.0" encoding="UTF-8"?>
<svg width="308px" height="70px" viewBox="0 0 308 70" version="1.1" xmlns="http://www.w3.org/2000/svg" xmlns:xlink="http://www.w3.org/1999/xlink">
    <!-- Generator: Sketch 59.1 (86144) - https://sketch.com -->
    <title>Group 435</title>
    <desc>Created with Sketch.</desc>
    <g id="Desktop" stroke="none" stroke-width="1" fill="none" fill-rule="evenodd">
        <g id="Homelessness-Section-3-5" transform="translate(-842.000000, -2318.000000)">
            <g id="Group-43" transform="translate(842.000000, 2313.000000)">
                <polygon id="Fill-1" fill="#E0E0E0" points="2.61225 37.461125 299.61225 37.461125 299.61225 27.711125 2.61225 27.711125"></polygon>
                <line x1="2.61255" y1="45.465575" x2="2.61255" y2="19.215575" id="Stroke-2" stroke="#D1D1D1" stroke-width="0.75" stroke-linecap="round"></line>
                <line x1="151.11255" y1="45.465575" x2="151.11255" y2="19.215575" id="Stroke-3" stroke="#D1D1D1" stroke-width="0.75" stroke-linecap="round"></line>
                <line x1="299.61255" y1="45.465575" x2="299.61255" y2="19.215575" id="Stroke-4" stroke="#D1D1D1" stroke-width="0.75" stroke-linecap="round"></line>
                <g id="Group-6" transform="translate(0.000000, 0.421125)" font-size="10.5">
                    <text id="CLUSTER-MEDIAN:-2,076" font-family="SourceSansPro-Semibold, Source Sans Pro" font-weight="500" letter-spacing="-0.0149999997" fill="#380A6D">
                        <tspan x="9.692175" y="71.5948205">C</tspan>
                        <tspan x="15.725175" y="71.5948205" letter-spacing="-0.361499995">L</tspan>
                        <tspan x="20.288175" y="71.5948205" letter-spacing="-0.119999997">U</tspan>
                        <tspan x="26.940675" y="71.5948205" letter-spacing="-0.225000009">S</tspan>
                        <tspan x="32.228175" y="71.5948205">TER MEDIAN: 2,076</tspan>
                    </text>
                    <text id="0" font-family="SourceSansPro-Regular, Source Sans Pro" font-weight="normal" fill="#848484">
                        <tspan x="0.000674999999" y="10.8418205">0</tspan>
                    </text>
                    <text id="10K" font-family="SourceSansPro-Regular, Source Sans Pro" font-weight="normal" letter-spacing="-0.0299999993" fill="#848484">
                        <tspan x="291.029175" y="10.8418205">10K</tspan>
                    </text>
                    <text id="5K" font-family="SourceSansPro-Regular, Source Sans Pro" font-weight="normal" letter-spacing="-0.0299999993" fill="#848484">
                        <tspan x="145.793175" y="11.2198205">5K</tspan>
                    </text>
                </g>
                <line x1="32.31225" y1="45.465575" x2="32.31225" y2="19.215575" id="Stroke-7" stroke="#D1D1D1" stroke-width="0.75" stroke-linecap="round"></line>
                <g id="Group-9" transform="translate(27.000000, 1.421125)" fill="#848484" font-family="SourceSansPro-Regular, Source Sans Pro" font-size="10.5" font-weight="normal" letter-spacing="-0.0299999993">
                    <text id="1K">
                        <tspan x="0.671625" y="10.2205705">1K</tspan>
                    </text>
                </g>
                <line x1="62.0127" y1="45.465575" x2="62.0127" y2="19.215575" id="Stroke-10" stroke="#D1D1D1" stroke-width="0.75" stroke-linecap="round"></line>
                <g id="Group-12" transform="translate(56.250000, 1.421125)" fill="#848484" font-family="SourceSansPro-Regular, Source Sans Pro" font-size="10.5" font-weight="normal" letter-spacing="-0.0299999993">
                    <text id="2K">
                        <tspan x="0.6702" y="10.2205705">2K</tspan>
                    </text>
                </g>
                <line x1="91.7124" y1="45.465575" x2="91.7124" y2="19.215575" id="Stroke-13" stroke="#D1D1D1" stroke-width="0.75" stroke-linecap="round"></line>
                <g id="Group-15" transform="translate(86.250000, 1.421125)" fill="#848484" font-family="SourceSansPro-Regular, Source Sans Pro" font-size="10.5" font-weight="normal" letter-spacing="-0.0299999993">
                    <text id="3K">
                        <tspan x="0.666525" y="10.2205705">3K</tspan>
                    </text>
                </g>
                <line x1="121.41285" y1="45.465575" x2="121.41285" y2="19.215575" id="Stroke-16" stroke="#D1D1D1" stroke-width="0.75" stroke-linecap="round"></line>
                <g id="Group-18" transform="translate(115.500000, 1.421125)" fill="#848484" font-family="SourceSansPro-Regular, Source Sans Pro" font-size="10.5" font-weight="normal" letter-spacing="-0.0299999993">
                    <text id="4K">
                        <tspan x="0.6687" y="10.2205705">4K</tspan>
                    </text>
                </g>
                <line x1="180.81225" y1="45.465575" x2="180.81225" y2="19.215575" id="Stroke-19" stroke="#D1D1D1" stroke-width="0.75" stroke-linecap="round"></line>
                <g id="Group-21" transform="translate(174.750000, 1.421125)" fill="#848484" font-family="SourceSansPro-Regular, Source Sans Pro" font-size="10.5" font-weight="normal" letter-spacing="-0.0299999993">
                    <text id="6K">
                        <tspan x="0.673425" y="10.2205705">6K</tspan>
                    </text>
                </g>
                <line x1="210.5127" y1="45.465575" x2="210.5127" y2="19.215575" id="Stroke-22" stroke="#D1D1D1" stroke-width="0.75" stroke-linecap="round"></line>
                <g id="Group-24" transform="translate(204.750000, 1.421125)" fill="#848484" font-family="SourceSansPro-Regular, Source Sans Pro" font-size="10.5" font-weight="normal" letter-spacing="-0.0299999993">
                    <text id="7K">
                        <tspan x="0.2937" y="10.2205705">7K</tspan>
                    </text>
                </g>
                <line x1="240.2124" y1="45.465575" x2="240.2124" y2="19.215575" id="Stroke-25" stroke="#D1D1D1" stroke-width="0.75" stroke-linecap="round"></line>
                <g id="Group-27" transform="translate(234.000000, 1.421125)" fill="#848484" font-family="SourceSansPro-Regular, Source Sans Pro" font-size="10.5" font-weight="normal" letter-spacing="-0.0299999993">
                    <text id="8K">
                        <tspan x="0.2922" y="10.2205705">8K</tspan>
                    </text>
                </g>
                <line x1="269.91285" y1="45.465575" x2="269.91285" y2="19.215575" id="Stroke-28" stroke="#D1D1D1" stroke-width="0.75" stroke-linecap="round"></line>
                <g id="Group-30" transform="translate(264.000000, 1.421125)" fill="#848484" font-family="SourceSansPro-Regular, Source Sans Pro" font-size="10.5" font-weight="normal" letter-spacing="-0.0299999993">
                    <text id="9K">
                        <tspan x="0.676725" y="10.2205705">9K</tspan>
                    </text>
                </g>
                <line x1="64.36305" y1="63.7109" x2="64.36305" y2="47.63165" id="Stroke-31" stroke="#636363" stroke-width="1.5" stroke-linecap="round"></line>
                <g id="Group-42" transform="translate(48.000000, 21.921125)">
                    <path d="M16.36305,26.01195 C15.5793,26.7957 14.0298,27.1692 12.9543,27.19995 C14.39805,26.1252 15.6573,24.72945 16.36305,23.0397 C17.0388,24.72945 18.37455,26.0637 19.7718,27.19995 C18.62055,27.1077 17.22255,26.82645 16.36305,26.01195" id="Fill-32" fill="#636363"></path>
                    <path d="M140.828625,19.289775 L3.527625,19.289775 C1.804125,19.289775 0.394125,17.879775 0.394125,16.155525 L0.394125,5.174025 C0.394125,3.450525 1.804125,2.039775 3.527625,2.039775 L140.828625,2.039775 C142.552875,2.039775 143.962875,3.450525 143.962875,5.174025 L143.962875,16.155525 C143.962875,17.879775 142.552875,19.289775 140.828625,19.289775" id="Fill-34" fill="#B4B4D6"></path>
                    <path d="M63.139875,20.803725 L11.323125,20.803725 C9.562125,20.803725 8.122875,19.363725 8.122875,17.602725 L8.122875,3.755475 C8.122875,1.994475 9.562125,0.553725 11.323125,0.553725 L63.139875,0.553725 C64.900875,0.553725 66.341625,1.994475 66.341625,3.755475 L66.341625,17.602725 C66.341625,19.363725 64.900875,20.803725 63.139875,20.803725" id="Fill-36" fill="#5E5E96"></path>
                    <path d="M18.76905,9.276825 C18.76905,8.644575 18.80205,8.036325 18.76155,7.431825 C18.6873,6.297825 17.7813,5.460825 16.6128,5.395575 C15.58605,5.339325 14.54205,6.120075 14.3943,7.173825 C14.2983,7.857075 14.3763,8.565825 14.3763,9.276825 L18.76905,9.276825 Z M13.23555,15.957075 L19.88955,15.957075 L19.88955,10.423575 L13.23555,10.423575 L13.23555,15.957075 Z M19.9053,9.247575 C20.0988,9.316575 20.2803,9.357075 20.43855,9.441825 C20.83605,9.654825 21.0093,10.013325 21.01005,10.451325 C21.01455,12.291825 21.01605,14.131575 21.0093,15.972075 C21.00705,16.589325 20.5398,17.055825 19.9173,17.075325 C19.4928,17.088825 19.06755,17.079075 18.6438,17.079075 C16.8948,17.079075 15.14655,17.079825 13.3983,17.079075 C12.5358,17.079075 12.11355,16.655325 12.11355,15.792825 C12.1128,14.094075 12.1323,12.394575 12.10455,10.697325 C12.0918,9.905325 12.37605,9.424575 13.2213,9.262575 C13.2213,8.743575 13.21905,8.220825 13.2213,7.697325 C13.22805,6.055575 14.22555,4.775325 15.8148,4.368075 C17.65305,3.897075 19.66755,5.283825 19.85505,7.172325 C19.9128,7.759575 19.89105,8.353575 19.90455,8.943825 C19.90755,9.050325 19.9053,9.158325 19.9053,9.247575 L19.9053,9.247575 Z" id="Fill-38" fill="#FFFFFF"></path>
                    <path d="M16.485375,11.521725 C17.056875,11.537475 17.452875,11.817225 17.605875,12.240975 C17.768625,12.692475 17.632125,13.162725 17.269875,13.486725 C17.190375,13.557225 17.138625,13.685475 17.122875,13.793475 C17.098125,13.965225 17.122875,14.142975 17.112375,14.317725 C17.094375,14.619975 16.848375,14.850225 16.557375,14.8487323 C16.265625,14.846475 16.030875,14.614725 16.011375,14.307975 C16.006875,14.232975 16.006125,14.158725 16.009875,14.082975 C16.022625,13.809225 16.006875,13.578975 15.751875,13.365225 C15.410625,13.079475 15.363375,12.560475 15.551625,12.167475 C15.759375,11.732475 16.117125,11.533725 16.485375,11.521725" id="Fill-40" fill="#FFFFFF"></path>
                </g>
            </g>
        </g>
    </g>
</svg>