<?xml version="1.0" encoding="UTF-8"?>
<svg width="302px" height="71px" viewBox="0 0 302 71" version="1.1" xmlns="http://www.w3.org/2000/svg" xmlns:xlink="http://www.w3.org/1999/xlink">
    <!-- Generator: Sketch 60 (88103) - https://sketch.com -->
    <title>Land Area</title>
    <desc>Created with Sketch.</desc>
    <g id="Export-Outlined-SVG" stroke="none" stroke-width="1" fill="none" fill-rule="evenodd">
        <g id="9" transform="translate(-842.000000, -851.000000)">
            <g id="Land-Area" transform="translate(842.462000, 851.112000)">
                <polygon id="Fill-1" fill="#E0E0E0" points="1.538 34.888 298.538 34.888 298.538 24.888 1.538 24.888"></polygon>
                <path d="M1.413,42.888 L1.413,15.888 C1.413,15.6808932 1.24510678,15.513 1.038,15.513 C0.830893219,15.513 0.663,15.6808932 0.663,15.888 L0.663,42.888 C0.663,43.0951068 0.830893219,43.263 1.038,43.263 C1.24510678,43.263 1.413,43.0951068 1.413,42.888 Z" id="Stroke-2" fill="#D1D1D1" fill-rule="nonzero"></path>
                <path d="M76.413,42.888 L76.413,16.888 C76.413,16.6808932 76.2451068,16.513 76.038,16.513 C75.8308932,16.513 75.663,16.6808932 75.663,16.888 L75.663,42.888 C75.663,43.0951068 75.8308932,43.263 76.038,43.263 C76.2451068,43.263 76.413,43.0951068 76.413,42.888 Z" id="Stroke-3" fill="#D1D1D1" fill-rule="nonzero"></path>
                <path d="M150.413,42.888 L150.413,16.888 C150.413,16.6808932 150.245107,16.513 150.038,16.513 C149.830893,16.513 149.663,16.6808932 149.663,16.888 L149.663,42.888 C149.663,43.0951068 149.830893,43.263 150.038,43.263 C150.245107,43.263 150.413,43.0951068 150.413,42.888 Z" id="Stroke-4" fill="#D1D1D1" fill-rule="nonzero"></path>
                <path d="M224.413,42.888 L224.413,16.888 C224.413,16.6808932 224.245107,16.513 224.038,16.513 C223.830893,16.513 223.663,16.6808932 223.663,16.888 L223.663,42.888 C223.663,43.0951068 223.830893,43.263 224.038,43.263 C224.245107,43.263 224.413,43.0951068 224.413,42.888 Z" id="Stroke-5" fill="#D1D1D1" fill-rule="nonzero"></path>
                <path d="M298.413,42.888 L298.413,16.888 C298.413,16.6808932 298.245107,16.513 298.038,16.513 C297.830893,16.513 297.663,16.6808932 297.663,16.888 L297.663,42.888 C297.663,43.0951068 297.830893,43.263 298.038,43.263 C298.245107,43.263 298.413,43.0951068 298.413,42.888 Z" id="Stroke-6" fill="#D1D1D1" fill-rule="nonzero"></path>
                <path d="M280.433028,38.888 L5.64297238,38.888 C3.93523757,38.888 2.538,37.5568261 2.538,35.9314783 L2.538,24.8445217 C2.538,23.2184348 3.93523757,21.888 5.64297238,21.888 L280.433028,21.888 C282.140762,21.888 283.538,23.2184348 283.538,24.8445217 L283.538,35.9314783 C283.538,37.5568261 282.140762,38.888 280.433028,38.888" id="Fill-7" fill="#D5E8AA"></path>
                <path d="M2.1525,0.063 C2.82450336,0.063 3.34949811,0.35699706 3.7275,0.945 C4.10550189,1.53300294 4.2945,2.39049436 4.2945,3.5175 C4.2945,4.64450564 4.10550189,5.50899699 3.7275,6.111 C3.34949811,6.71300301 2.82450336,7.014 2.1525,7.014 C1.47349661,7.014 0.94500189,6.71300301 0.567,6.111 C0.18899811,5.50899699 0,4.64450564 0,3.5175 C0,2.39049436 0.18899811,1.53300294 0.567,0.945 C0.94500189,0.35699706 1.47349661,0.063 2.1525,0.063 Z M2.1525,0.756 C1.95649902,0.756 1.7780008,0.808499475 1.617,0.9135 C1.45599919,1.01850052 1.31775058,1.1812489 1.20225,1.40175 C1.08674942,1.6222511 0.997500315,1.90749825 0.9345,2.2575 C0.871499685,2.60750175 0.84,3.02749755 0.84,3.5175 C0.84,4.4975049 0.960748792,5.20974778 1.20225,5.65425 C1.44375121,6.09875222 1.76049804,6.321 2.1525,6.321 C2.34850098,6.321 2.52524921,6.26675054 2.68275,6.15825 C2.84025079,6.04974946 2.97674942,5.88175114 3.09225,5.65425 C3.20775058,5.42674886 3.29699969,5.13625177 3.36,4.78275 C3.42300031,4.42924823 3.4545,4.00750245 3.4545,3.5175 C3.4545,3.02749755 3.42300031,2.60750175 3.36,2.2575 C3.29699969,1.90749825 3.20775058,1.6222511 3.09225,1.40175 C2.97674942,1.1812489 2.84025079,1.01850052 2.68275,0.9135 C2.52524921,0.808499475 2.34850098,0.756 2.1525,0.756 Z" id="Combined-Shape" fill="#848484" fill-rule="nonzero"></path>
                <path d="M282.352,6.3315 C282.520001,6.3315 282.673999,6.29650035 282.814,6.2265 C282.954001,6.15649965 283.076499,6.05675065 283.1815,5.92725 C283.286501,5.79774935 283.36875,5.64375089 283.42825,5.46525 C283.48775,5.28674911 283.5175,5.08550112 283.5175,4.8615 C283.5175,4.4204978 283.416001,4.07400126 283.213,3.822 C283.009999,3.56999874 282.698502,3.444 282.2785,3.444 C282.068499,3.444 281.839251,3.51224932 281.59075,3.64875 C281.342249,3.78525068 281.106001,4.01099842 280.882,4.326 C280.938,4.98400329 281.090249,5.4827483 281.33875,5.82225 C281.587251,6.1617517 281.924998,6.3315 282.352,6.3315 Z M283.7275,1.3125 C283.587499,1.15149919 283.421251,1.02375047 283.22875,0.92925 C283.036249,0.834749527 282.835001,0.7875 282.625,0.7875 C282.393999,0.7875 282.173501,0.83649951 281.9635,0.9345 C281.753499,1.03250049 281.568001,1.19349888 281.407,1.4175 C281.245999,1.64150112 281.1165,1.9337482 281.0185,2.29425 C280.9205,2.6547518 280.868,3.10099734 280.861,3.633 C281.071001,3.37399871 281.315999,3.16925075 281.596,3.01875 C281.876001,2.86824925 282.152499,2.793 282.4255,2.793 C283.006503,2.793 283.470248,2.96449828 283.81675,3.3075 C284.163252,3.65050171 284.3365,4.16849653 284.3365,4.8615 C284.3365,5.18350161 284.284001,5.47574869 284.179,5.73825 C284.073999,6.00075131 283.930501,6.22649906 283.7485,6.4155 C283.566499,6.60450094 283.356501,6.75149948 283.1185,6.8565 C282.880499,6.96150052 282.625001,7.014 282.352,7.014 C282.022998,7.014 281.718501,6.94750066 281.4385,6.8145 C281.158499,6.68149933 280.915251,6.48025135 280.70875,6.21075 C280.502249,5.94124865 280.339501,5.60525201 280.2205,5.20275 C280.101499,4.80024799 280.042,4.3295027 280.042,3.7905 C280.042,3.11849664 280.111999,2.54625236 280.252,2.07375 C280.392001,1.60124764 280.580999,1.21625149 280.819,0.91875 C281.057001,0.621248513 281.328248,0.404250682 281.63275,0.26775 C281.937252,0.131249318 282.257498,0.063 282.5935,0.063 C282.957502,0.063 283.270749,0.131249318 283.53325,0.26775 C283.795751,0.404250682 284.021499,0.573998985 284.2105,0.777 L283.7275,1.3125 Z M287.341,7.014 C286.661997,7.014 286.133502,6.71300301 285.7555,6.111 C285.377498,5.50899699 285.1885,4.64450564 285.1885,3.5175 C285.1885,2.39049436 285.377498,1.53300294 285.7555,0.945 C286.133502,0.35699706 286.661997,0.063 287.341,0.063 C288.013003,0.063 288.537998,0.35699706 288.916,0.945 C289.294002,1.53300294 289.483,2.39049436 289.483,3.5175 C289.483,4.64450564 289.294002,5.50899699 288.916,6.111 C288.537998,6.71300301 288.013003,7.014 287.341,7.014 Z M287.341,6.321 C287.537001,6.321 287.713749,6.26675054 287.87125,6.15825 C288.028751,6.04974946 288.165249,5.88175114 288.28075,5.65425 C288.396251,5.42674886 288.4855,5.13625177 288.5485,4.78275 C288.6115,4.42924823 288.643,4.00750245 288.643,3.5175 C288.643,3.02749755 288.6115,2.60750175 288.5485,2.2575 C288.4855,1.90749825 288.396251,1.6222511 288.28075,1.40175 C288.165249,1.1812489 288.028751,1.01850052 287.87125,0.9135 C287.713749,0.808499475 287.537001,0.756 287.341,0.756 C287.144999,0.756 286.966501,0.808499475 286.8055,0.9135 C286.644499,1.01850052 286.506251,1.1812489 286.39075,1.40175 C286.275249,1.6222511 286.186,1.90749825 286.123,2.2575 C286.06,2.60750175 286.0285,3.02749755 286.0285,3.5175 C286.0285,4.4975049 286.149249,5.20974778 286.39075,5.65425 C286.632251,6.09875222 286.948998,6.321 287.341,6.321 Z M292.5295,7.014 C291.850497,7.014 291.322002,6.71300301 290.944,6.111 C290.565998,5.50899699 290.377,4.64450564 290.377,3.5175 C290.377,2.39049436 290.565998,1.53300294 290.944,0.945 C291.322002,0.35699706 291.850497,0.063 292.5295,0.063 C293.201503,0.063 293.726498,0.35699706 294.1045,0.945 C294.482502,1.53300294 294.6715,2.39049436 294.6715,3.5175 C294.6715,4.64450564 294.482502,5.50899699 294.1045,6.111 C293.726498,6.71300301 293.201503,7.014 292.5295,7.014 Z M292.5295,6.321 C292.725501,6.321 292.902249,6.26675054 293.05975,6.15825 C293.217251,6.04974946 293.353749,5.88175114 293.46925,5.65425 C293.584751,5.42674886 293.674,5.13625177 293.737,4.78275 C293.8,4.42924823 293.8315,4.00750245 293.8315,3.5175 C293.8315,3.02749755 293.8,2.60750175 293.737,2.2575 C293.674,1.90749825 293.584751,1.6222511 293.46925,1.40175 C293.353749,1.1812489 293.217251,1.01850052 293.05975,0.9135 C292.902249,0.808499475 292.725501,0.756 292.5295,0.756 C292.333499,0.756 292.155001,0.808499475 291.994,0.9135 C291.832999,1.01850052 291.694751,1.1812489 291.57925,1.40175 C291.463749,1.6222511 291.3745,1.90749825 291.3115,2.2575 C291.2485,2.60750175 291.217,3.02749755 291.217,3.5175 C291.217,4.4975049 291.337749,5.20974778 291.57925,5.65425 C291.820751,6.09875222 292.137498,6.321 292.5295,6.321 Z M296.0485,-5.68434189e-14 L296.92,-5.68434189e-14 L296.92,3.4545 L296.9515,3.4545 L299.818,-5.68434189e-14 L300.805,-5.68434189e-14 L298.6525,2.625 L301.141,6.888 L300.1645,6.888 L298.1065,3.3075 L296.92,4.704 L296.92,6.888 L296.0485,6.888 L296.0485,-5.68434189e-14 Z" id="600K" fill="#848484" fill-rule="nonzero"></path>
                <path d="M144.252,5.502 C144.455001,5.71200105 144.691249,5.89749919 144.96075,6.0585 C145.230251,6.2195008 145.564498,6.3 145.9635,6.3 C146.369502,6.3 146.701999,6.1897511 146.961,5.96925 C147.220001,5.7487489 147.3495,5.44950189 147.3495,5.0715 C147.3495,4.87549902 147.31275,4.69525082 147.23925,4.53075 C147.16575,4.36624918 147.045001,4.22450059 146.877,4.1055 C146.708999,3.9864994 146.488501,3.89550031 146.2155,3.8325 C145.942499,3.76949968 145.606502,3.738 145.2075,3.738 L145.2075,3.0765 C145.564502,3.0765 145.863749,3.04500031 146.10525,2.982 C146.346751,2.91899968 146.542749,2.83150056 146.69325,2.7195 C146.843751,2.60749944 146.9505,2.47450077 147.0135,2.3205 C147.0765,2.16649923 147.108,2.00200087 147.108,1.827 C147.108,1.49799835 147.004751,1.23900094 146.79825,1.05 C146.591749,0.860999055 146.310002,0.7665 145.953,0.7665 C145.672999,0.7665 145.415751,0.82949937 145.18125,0.9555 C144.946749,1.08150063 144.728001,1.24599898 144.525,1.449 L144.063,0.903 C144.322001,0.657998775 144.607248,0.456750787 144.91875,0.29925 C145.230252,0.141749212 145.585498,0.063 145.9845,0.063 C146.278501,0.063 146.547999,0.101499615 146.793,0.1785 C147.038001,0.255500385 147.249749,0.365749282 147.42825,0.50925 C147.606751,0.652750717 147.745,0.82949895 147.843,1.0395 C147.941,1.24950105 147.99,1.49099863 147.99,1.764 C147.99,2.17000203 147.878001,2.5024987 147.654,2.7615 C147.429999,3.02050129 147.136002,3.2199993 146.772,3.36 L146.772,3.402 C146.975001,3.45100024 147.163999,3.52274953 147.339,3.61725 C147.514001,3.71175047 147.667999,3.83074928 147.801,3.97425 C147.934001,4.11775072 148.03725,4.28399905 148.11075,4.473 C148.18425,4.66200094 148.221,4.87199884 148.221,5.103 C148.221,5.39700147 148.163251,5.66299881 148.04775,5.901 C147.932249,6.13900119 147.774751,6.34024918 147.57525,6.50475 C147.375749,6.66925082 147.143001,6.79524956 146.877,6.88275 C146.610999,6.97025044 146.324002,7.014 146.016,7.014 C145.749999,7.014 145.506751,6.98775026 145.28625,6.93525 C145.065749,6.88274974 144.864501,6.81275044 144.6825,6.72525 C144.500499,6.63774956 144.337751,6.53800056 144.19425,6.426 C144.050749,6.31399944 143.923001,6.19500063 143.811,6.069 L144.252,5.502 Z M151.341,7.014 C150.661997,7.014 150.133502,6.71300301 149.7555,6.111 C149.377498,5.50899699 149.1885,4.64450564 149.1885,3.5175 C149.1885,2.39049436 149.377498,1.53300294 149.7555,0.945 C150.133502,0.35699706 150.661997,0.063 151.341,0.063 C152.013003,0.063 152.537998,0.35699706 152.916,0.945 C153.294002,1.53300294 153.483,2.39049436 153.483,3.5175 C153.483,4.64450564 153.294002,5.50899699 152.916,6.111 C152.537998,6.71300301 152.013003,7.014 151.341,7.014 Z M151.341,6.321 C151.537001,6.321 151.713749,6.26675054 151.87125,6.15825 C152.028751,6.04974946 152.165249,5.88175114 152.28075,5.65425 C152.396251,5.42674886 152.4855,5.13625177 152.5485,4.78275 C152.6115,4.42924823 152.643,4.00750245 152.643,3.5175 C152.643,3.02749755 152.6115,2.60750175 152.5485,2.2575 C152.4855,1.90749825 152.396251,1.6222511 152.28075,1.40175 C152.165249,1.1812489 152.028751,1.01850052 151.87125,0.9135 C151.713749,0.808499475 151.537001,0.756 151.341,0.756 C151.144999,0.756 150.966501,0.808499475 150.8055,0.9135 C150.644499,1.01850052 150.506251,1.1812489 150.39075,1.40175 C150.275249,1.6222511 150.186,1.90749825 150.123,2.2575 C150.06,2.60750175 150.0285,3.02749755 150.0285,3.5175 C150.0285,4.4975049 150.149249,5.20974778 150.39075,5.65425 C150.632251,6.09875222 150.948998,6.321 151.341,6.321 Z M156.5295,7.014 C155.850497,7.014 155.322002,6.71300301 154.944,6.111 C154.565998,5.50899699 154.377,4.64450564 154.377,3.5175 C154.377,2.39049436 154.565998,1.53300294 154.944,0.945 C155.322002,0.35699706 155.850497,0.063 156.5295,0.063 C157.201503,0.063 157.726498,0.35699706 158.1045,0.945 C158.482502,1.53300294 158.6715,2.39049436 158.6715,3.5175 C158.6715,4.64450564 158.482502,5.50899699 158.1045,6.111 C157.726498,6.71300301 157.201503,7.014 156.5295,7.014 Z M156.5295,6.321 C156.725501,6.321 156.902249,6.26675054 157.05975,6.15825 C157.217251,6.04974946 157.353749,5.88175114 157.46925,5.65425 C157.584751,5.42674886 157.674,5.13625177 157.737,4.78275 C157.8,4.42924823 157.8315,4.00750245 157.8315,3.5175 C157.8315,3.02749755 157.8,2.60750175 157.737,2.2575 C157.674,1.90749825 157.584751,1.6222511 157.46925,1.40175 C157.353749,1.1812489 157.217251,1.01850052 157.05975,0.9135 C156.902249,0.808499475 156.725501,0.756 156.5295,0.756 C156.333499,0.756 156.155001,0.808499475 155.994,0.9135 C155.832999,1.01850052 155.694751,1.1812489 155.57925,1.40175 C155.463749,1.6222511 155.3745,1.90749825 155.3115,2.2575 C155.2485,2.60750175 155.217,3.02749755 155.217,3.5175 C155.217,4.4975049 155.337749,5.20974778 155.57925,5.65425 C155.820751,6.09875222 156.137498,6.321 156.5295,6.321 Z M160.0485,-5.68434189e-14 L160.92,-5.68434189e-14 L160.92,3.4545 L160.9515,3.4545 L163.818,-5.68434189e-14 L164.805,-5.68434189e-14 L162.6525,2.625 L165.141,6.888 L164.1645,6.888 L162.1065,3.3075 L160.92,4.704 L160.92,6.888 L160.0485,6.888 L160.0485,-5.68434189e-14 Z" id="300K" fill="#848484" fill-rule="nonzero"></path>
                <path d="M215.63,4.347 L217.73,4.347 L217.73,2.4045 C217.73,2.26799932 217.732953,2.11279723 217.738859,1.93889102 L217.762812,1.41093738 C217.768937,1.30331264 217.7755,1.20400045 217.7825,1.113 L217.7405,1.113 C217.6565,1.2740008 217.569,1.43149923 217.478,1.5855 L217.1945,2.058 L217.1945,2.058 L215.63,4.347 Z M219.4625,5.04 L218.549,5.04 L218.549,6.888 L217.73,6.888 L217.73,5.04 L214.7165,5.04 L214.7165,4.473 L217.583,0.189 L218.549,0.189 L218.549,4.347 L219.4625,4.347 L219.4625,5.04 Z M220.409,5.5335 C220.605001,5.73650101 220.837749,5.91499923 221.10725,6.069 C221.376751,6.22300077 221.707498,6.3 222.0995,6.3 C222.302501,6.3 222.493249,6.26325037 222.67175,6.18975 C222.850251,6.11624963 223.005999,6.01300066 223.139,5.88 C223.272001,5.74699933 223.377,5.58600094 223.454,5.397 C223.531,5.20799906 223.5695,4.99800115 223.5695,4.767 C223.5695,4.30499769 223.440001,3.94450129 223.181,3.6855 C222.921999,3.42649871 222.575502,3.297 222.1415,3.297 C221.910499,3.297 221.712751,3.33199965 221.54825,3.402 C221.383749,3.47200035 221.200001,3.57349934 220.997,3.7065 L220.535,3.4125 L220.7555,0.189 L224.105,0.189 L224.105,0.9345 L221.5115,0.9345 L221.333,2.919 C221.494001,2.83499958 221.654999,2.76850024 221.816,2.7195 C221.977001,2.67049975 222.158999,2.646 222.362,2.646 C222.649001,2.646 222.918499,2.68799958 223.1705,2.772 C223.422501,2.85600042 223.642999,2.98374914 223.832,3.15525 C224.021001,3.32675086 224.169749,3.54374869 224.27825,3.80625 C224.386751,4.06875131 224.441,4.38199818 224.441,4.746 C224.441,5.11000182 224.378001,5.4319986 224.252,5.712 C224.125999,5.9920014 223.958001,6.22824904 223.748,6.42075 C223.537999,6.61325096 223.298251,6.76024949 223.02875,6.86175 C222.759249,6.96325051 222.477501,7.014 222.1835,7.014 C221.917499,7.014 221.674251,6.98775026 221.45375,6.93525 C221.233249,6.88274974 221.033751,6.81450042 220.85525,6.7305 C220.676749,6.64649958 220.515751,6.55025054 220.37225,6.44175 C220.228749,6.33324946 220.101001,6.21950059 219.989,6.1005 L220.409,5.5335 Z M227.5295,7.014 C226.850497,7.014 226.322002,6.71300301 225.944,6.111 C225.565998,5.50899699 225.377,4.64450564 225.377,3.5175 C225.377,2.39049436 225.565998,1.53300294 225.944,0.945 C226.322002,0.35699706 226.850497,0.063 227.5295,0.063 C228.201503,0.063 228.726498,0.35699706 229.1045,0.945 C229.482502,1.53300294 229.6715,2.39049436 229.6715,3.5175 C229.6715,4.64450564 229.482502,5.50899699 229.1045,6.111 C228.726498,6.71300301 228.201503,7.014 227.5295,7.014 Z M227.5295,6.321 C227.725501,6.321 227.902249,6.26675054 228.05975,6.15825 C228.217251,6.04974946 228.353749,5.88175114 228.46925,5.65425 C228.584751,5.42674886 228.674,5.13625177 228.737,4.78275 C228.8,4.42924823 228.8315,4.00750245 228.8315,3.5175 C228.8315,3.02749755 228.8,2.60750175 228.737,2.2575 C228.674,1.90749825 228.584751,1.6222511 228.46925,1.40175 C228.353749,1.1812489 228.217251,1.01850052 228.05975,0.9135 C227.902249,0.808499475 227.725501,0.756 227.5295,0.756 C227.333499,0.756 227.155001,0.808499475 226.994,0.9135 C226.832999,1.01850052 226.694751,1.1812489 226.57925,1.40175 C226.463749,1.6222511 226.3745,1.90749825 226.3115,2.2575 C226.2485,2.60750175 226.217,3.02749755 226.217,3.5175 C226.217,4.4975049 226.337749,5.20974778 226.57925,5.65425 C226.820751,6.09875222 227.137498,6.321 227.5295,6.321 Z M231.0485,-5.68434189e-14 L231.92,-5.68434189e-14 L231.92,3.4545 L231.9515,3.4545 L234.818,-5.68434189e-14 L235.805,-5.68434189e-14 L233.6525,2.625 L236.141,6.888 L235.1645,6.888 L233.1065,3.3075 L231.92,4.704 L231.92,6.888 L231.0485,6.888 L231.0485,-5.68434189e-14 Z" id="450K" fill="#848484" fill-rule="nonzero"></path>
                <path d="M65.3675,6.174 L66.9005,6.174 L66.9005,1.239 L65.6825,1.239 L65.6825,0.6825 C65.9905015,0.62649972 66.2582489,0.558250402 66.48575,0.47775 C66.7132511,0.397249597 66.9179991,0.30100056 67.1,0.189 L67.7615,0.189 L67.7615,6.174 L69.1475,6.174 L69.1475,6.888 L65.3675,6.888 L65.3675,6.174 Z M70.409,5.5335 C70.605001,5.73650101 70.8377487,5.91499923 71.10725,6.069 C71.3767513,6.22300077 71.707498,6.3 72.0995,6.3 C72.302501,6.3 72.4932491,6.26325037 72.67175,6.18975 C72.8502509,6.11624963 73.0059993,6.01300066 73.139,5.88 C73.2720007,5.74699933 73.3769996,5.58600094 73.454,5.397 C73.5310004,5.20799906 73.5695,4.99800115 73.5695,4.767 C73.5695,4.30499769 73.4400013,3.94450129 73.181,3.6855 C72.9219987,3.42649871 72.5755022,3.297 72.1415,3.297 C71.9104988,3.297 71.7127508,3.33199965 71.54825,3.402 C71.3837492,3.47200035 71.200001,3.57349934 70.997,3.7065 L70.535,3.4125 L70.7555,0.189 L74.105,0.189 L74.105,0.9345 L71.5115,0.9345 L71.333,2.919 C71.4940008,2.83499958 71.6549992,2.76850024 71.816,2.7195 C71.9770008,2.67049975 72.158999,2.646 72.362,2.646 C72.6490014,2.646 72.9184987,2.68799958 73.1705,2.772 C73.4225013,2.85600042 73.6429991,2.98374914 73.832,3.15525 C74.0210009,3.32675086 74.1697495,3.54374869 74.27825,3.80625 C74.3867505,4.06875131 74.441,4.38199818 74.441,4.746 C74.441,5.11000182 74.3780006,5.4319986 74.252,5.712 C74.1259994,5.9920014 73.9580011,6.22824904 73.748,6.42075 C73.537999,6.61325096 73.2982513,6.76024949 73.02875,6.86175 C72.7592487,6.96325051 72.4775015,7.014 72.1835,7.014 C71.9174987,7.014 71.6742511,6.98775026 71.45375,6.93525 C71.2332489,6.88274974 71.0337509,6.81450042 70.85525,6.7305 C70.6767491,6.64649958 70.5157507,6.55025054 70.37225,6.44175 C70.2287493,6.33324946 70.1010006,6.21950059 69.989,6.1005 L70.409,5.5335 Z M77.5295,7.014 C76.8504966,7.014 76.3220019,6.71300301 75.944,6.111 C75.5659981,5.50899699 75.377,4.64450564 75.377,3.5175 C75.377,2.39049436 75.5659981,1.53300294 75.944,0.945 C76.3220019,0.35699706 76.8504966,0.063 77.5295,0.063 C78.2015034,0.063 78.7264981,0.35699706 79.1045,0.945 C79.4825019,1.53300294 79.6715,2.39049436 79.6715,3.5175 C79.6715,4.64450564 79.4825019,5.50899699 79.1045,6.111 C78.7264981,6.71300301 78.2015034,7.014 77.5295,7.014 Z M77.5295,6.321 C77.725501,6.321 77.9022492,6.26675054 78.05975,6.15825 C78.2172508,6.04974946 78.3537494,5.88175114 78.46925,5.65425 C78.5847506,5.42674886 78.6739997,5.13625177 78.737,4.78275 C78.8000003,4.42924823 78.8315,4.00750245 78.8315,3.5175 C78.8315,3.02749755 78.8000003,2.60750175 78.737,2.2575 C78.6739997,1.90749825 78.5847506,1.6222511 78.46925,1.40175 C78.3537494,1.1812489 78.2172508,1.01850052 78.05975,0.9135 C77.9022492,0.808499475 77.725501,0.756 77.5295,0.756 C77.333499,0.756 77.1550008,0.808499475 76.994,0.9135 C76.8329992,1.01850052 76.6947506,1.1812489 76.57925,1.40175 C76.4637494,1.6222511 76.3745003,1.90749825 76.3115,2.2575 C76.2484997,2.60750175 76.217,3.02749755 76.217,3.5175 C76.217,4.4975049 76.3377488,5.20974778 76.57925,5.65425 C76.8207512,6.09875222 77.137498,6.321 77.5295,6.321 Z M81.0485,-5.68434189e-14 L81.92,-5.68434189e-14 L81.92,3.4545 L81.9515,3.4545 L84.818,-5.68434189e-14 L85.805,-5.68434189e-14 L83.6525,2.625 L86.141,6.888 L85.1645,6.888 L83.1065,3.3075 L81.92,4.704 L81.92,6.888 L81.0485,6.888 L81.0485,-5.68434189e-14 Z" id="150K" fill="#848484" fill-rule="nonzero"></path>
                <text id="-" font-family="SourceSansPro-Regular, Source Sans Pro" font-size="9" font-weight="normal"></text>
                <rect id="Rectangle" fill="#789E25" x="7.538" y="18.888" width="25" height="22" rx="3"></rect>
                <path d="M17.0525,65.4755 C17.0525,64.9154972 17.1347492,64.4132522 17.29925,63.96875 C17.4637508,63.5242478 17.6894986,63.1480015 17.9765,62.84 C18.2635014,62.5319985 18.5994981,62.2975008 18.9845,62.1365 C19.3695019,61.9754992 19.7824978,61.895 20.2235,61.895 C20.6435021,61.895 21.0197483,61.9824991 21.35225,62.1575 C21.6847517,62.3325009 21.9594989,62.5354988 22.1765,62.7665 L21.494,63.5225 C21.3189991,63.3474991 21.131751,63.2092505 20.93225,63.10775 C20.732749,63.0062495 20.5000013,62.9555 20.234,62.9555 C19.9469986,62.9555 19.6862512,63.0132494 19.45175,63.12875 C19.2172488,63.2442506 19.0142509,63.4087489 18.84275,63.62225 C18.6712491,63.8357511 18.5382505,64.0964985 18.44375,64.4045 C18.3492495,64.7125015 18.302,65.0589981 18.302,65.444 C18.302,66.2280039 18.4717483,66.8422478 18.81125,67.28675 C19.1507517,67.7312522 19.6109971,67.9535 20.192,67.9535 C20.5000015,67.9535 20.7677489,67.8940006 20.99525,67.775 C21.2227511,67.6559994 21.434499,67.4880011 21.6305,67.271 L22.313,68.0165 C22.0329986,68.3385016 21.7145018,68.5852491 21.3575,68.75675 C21.0004982,68.9282509 20.6050022,69.014 20.171,69.014 C19.7299978,69.014 19.3205019,68.9370008 18.9425,68.783 C18.5644981,68.6289992 18.2355014,68.4015015 17.9555,68.1005 C17.6754986,67.7994985 17.4550008,67.4285022 17.294,66.9875 C17.1329992,66.5464978 17.0525,66.0425028 17.0525,65.4755 Z M23.4425,62.021 L24.6605,62.021 L24.6605,67.859 L27.5165,67.859 L27.5165,68.888 L23.4425,68.888 L23.4425,62.021 Z M27.974,62.021 L29.192,62.021 L29.192,65.969 C29.192,66.3400019 29.2252497,66.6532487 29.29175,66.90875 C29.3582503,67.1642513 29.4527494,67.3689992 29.57525,67.523 C29.6977506,67.6770008 29.8429992,67.7872497 30.011,67.85375 C30.1790008,67.9202503 30.367999,67.9535 30.578,67.9535 C30.7880011,67.9535 30.9804991,67.9202503 31.1555,67.85375 C31.3305009,67.7872497 31.4809994,67.6770008 31.607,67.523 C31.7330006,67.3689992 31.8309997,67.1642513 31.901,66.90875 C31.9710004,66.6532487 32.006,66.3400019 32.006,65.969 L32.006,62.021 L33.1715,62.021 L33.1715,65.8745 C33.1715,66.4415028 33.1120006,66.922748 32.993,67.31825 C32.8739994,67.713752 32.7007511,68.0374987 32.47325,68.2895 C32.2457489,68.5415013 31.9727516,68.7252494 31.65425,68.84075 C31.3357484,68.9562506 30.977002,69.014 30.578,69.014 C30.178998,69.014 29.8202516,68.9562506 29.50175,68.84075 C29.1832484,68.7252494 28.9102511,68.5415013 28.68275,68.2895 C28.4552489,68.0374987 28.2802506,67.713752 28.15775,67.31825 C28.0352494,66.922748 27.974,66.4415028 27.974,65.8745 L27.974,62.021 Z M34.8995,67.1765 C35.1445012,67.4075012 35.4244984,67.5947493 35.7395,67.73825 C36.0545016,67.8817507 36.3694984,67.9535 36.6845,67.9535 C37.076502,67.9535 37.373999,67.8730008 37.577,67.712 C37.780001,67.5509992 37.8815,67.3375013 37.8815,67.0715 C37.8815,66.9314993 37.8552503,66.8125005 37.80275,66.7145 C37.7502497,66.6164995 37.6767505,66.5307504 37.58225,66.45725 C37.4877495,66.3837496 37.3757507,66.3155003 37.24625,66.2525 L37.1126666,66.1894999 L37.1126666,66.1894999 L35.876,65.654 C35.7079992,65.5839997 35.5417508,65.4965005 35.37725,65.3915 C35.2127492,65.2864995 35.0640007,65.1605007 34.931,65.0135 C34.7979993,64.8664993 34.6912504,64.695001 34.61075,64.499 C34.5302496,64.302999 34.49,64.0790013 34.49,63.827 C34.49,63.5539986 34.5477494,63.3002512 34.66325,63.06575 C34.7787506,62.8312488 34.937999,62.6265009 35.141,62.4515 C35.344001,62.2764991 35.5872486,62.1400005 35.87075,62.042 C36.1542514,61.9439995 36.4639983,61.895 36.8,61.895 C37.199002,61.895 37.5839982,61.9737492 37.955,62.13125 C38.3260019,62.2887508 38.6444987,62.5004987 38.9105,62.7665 L38.291,63.5435 C38.0669989,63.3614991 37.8360012,63.2180005 37.598,63.113 C37.3599988,63.0079995 37.0940015,62.9555 36.8,62.9555 C36.4709984,62.9555 36.208501,63.0272493 36.0125,63.17075 C35.816499,63.3142507 35.7185,63.5119987 35.7185,63.764 C35.7185,63.8970007 35.7482497,64.0107495 35.80775,64.10525 C35.8672503,64.1997505 35.9477495,64.2837496 36.04925,64.35725 C36.1507505,64.4307504 36.2679993,64.4972497 36.401,64.55675 L36.603125,64.6446875 L36.603125,64.6446875 L37.745,65.1185 C37.948001,65.2025004 38.1334992,65.3004994 38.3015,65.4125 C38.4695008,65.5245006 38.6147494,65.6539993 38.73725,65.801 C38.8597506,65.9480007 38.9559997,66.117749 39.026,66.31025 C39.0960004,66.502751 39.131,66.7249987 39.131,66.977 C39.131,67.2570014 39.0750006,67.5194988 38.963,67.7645 C38.8509994,68.0095012 38.6882511,68.2247491 38.47475,68.41025 C38.2612489,68.5957509 38.0022515,68.7427495 37.69775,68.85125 C37.3932485,68.9597505 37.0485019,69.014 36.6635,69.014 C36.2014977,69.014 35.7552522,68.9265009 35.32475,68.7515 C34.8942479,68.5764991 34.5145017,68.3280016 34.1855,68.006 L34.8995,67.1765 Z M41.3315,63.05 L39.347,63.05 L39.347,62.021 L44.534,62.021 L44.534,63.05 L42.5495,63.05 L42.5495,68.888 L41.3315,68.888 L41.3315,63.05 Z M45.6635,62.021 L49.8005,62.021 L49.8005,63.05 L46.8815,63.05 L46.8815,64.8035 L49.349,64.8035 L49.349,65.8325 L46.8815,65.8325 L46.8815,67.859 L49.9055,67.859 L49.9055,68.888 L45.6635,68.888 L45.6635,62.021 Z M52.5155,65.234 L53.492,65.234 C53.9610023,65.234 54.3197488,65.136001 54.56825,64.94 C54.8167512,64.743999 54.941,64.450002 54.941,64.058 C54.941,63.658998 54.8167512,63.3825008 54.56825,63.2285 C54.3197488,63.0744992 53.9610023,62.9975 53.492,62.9975 L52.5155,62.9975 L52.5155,65.234 Z M55.046,68.888 L53.5655,66.2 L52.5155,66.2 L52.5155,68.888 L51.2975,68.888 L51.2975,62.021 L53.618,62.021 C53.9750018,62.021 54.3074985,62.0559996 54.6155,62.126 C54.9235015,62.1960004 55.1894989,62.3097492 55.4135,62.46725 C55.6375011,62.6247508 55.8142494,62.8329987 55.94375,63.092 C56.0732506,63.3510013 56.138,63.6729981 56.138,64.058 C56.138,64.5830026 56.0137512,65.0064984 55.76525,65.3285 C55.5167488,65.6505016 55.1860021,65.8814993 54.773,66.0215 L56.411,68.888 L55.046,68.888 Z M59.7095,62.021 L61.0535,62.021 L62.2925,65.402 L62.744,66.704 L62.786,66.704 L63.227,65.402 L64.445,62.021 L65.789,62.021 L65.789,68.888 L64.6445,68.888 L64.6445,65.7485 L64.6515,65.4078336 L64.6515,65.4078336 L64.66025,65.2235 C64.6707501,65.0344991 64.6829999,64.843751 64.697,64.65125 L64.720625,64.365125 L64.720625,64.365125 L64.802,63.5645 L64.802,63.5645 L64.76,63.5645 L64.2035,65.129 L63.017,68.2475 L62.45,68.2475 L61.2635,65.129 L60.7175,63.5645 L60.6755,63.5645 L60.77525,64.65125 L60.77525,64.65125 C60.7927501,64.843751 60.8067499,65.0344991 60.81725,65.2235 C60.8277501,65.4125009 60.833,65.5874992 60.833,65.7485 L60.833,68.888 L59.7095,68.888 L59.7095,62.021 Z M67.517,62.021 L71.654,62.021 L71.654,63.05 L68.735,63.05 L68.735,64.8035 L71.2025,64.8035 L71.2025,65.8325 L68.735,65.8325 L68.735,67.859 L71.759,67.859 L71.759,68.888 L67.517,68.888 L67.517,62.021 Z M73.151,62.021 L74.9885,62.021 C76.0385053,62.021 76.8574971,62.3044972 77.4455,62.8715 C78.0335029,63.4385028 78.3275,64.2889943 78.3275,65.423 C78.3275,65.9900028 78.2522508,66.4904978 78.10175,66.9245 C77.9512492,67.3585022 77.7342514,67.7207485 77.45075,68.01125 C77.1672486,68.3017515 76.824252,68.5204993 76.42175,68.6675 C76.019248,68.8145007 75.5625026,68.888 75.0515,68.888 L73.151,68.888 L73.151,62.021 Z M74.9045,67.901 C75.6045035,67.901 76.1417481,67.699752 76.51625,67.29725 C76.8907519,66.894748 77.078,66.2700042 77.078,65.423 C77.078,64.5829958 76.8890019,63.9705019 76.511,63.5855 C76.1329981,63.2004981 75.5975035,63.008 74.9045,63.008 L74.369,63.008 L74.369,67.901 L74.9045,67.901 Z M79.6985,62.021 L80.9165,62.021 L80.9165,68.888 L79.6985,68.888 L79.6985,62.021 Z M85.5635,66.074 L85.322,65.234 C85.2099994,64.8699982 85.1032505,64.4955019 85.00175,64.1105 L84.7025,62.966 L84.7025,62.966 L84.6605,62.966 L84.3665,64.11575 L84.3665,64.11575 C84.2684995,64.4972519 84.1635006,64.8699982 84.0515,65.234 L83.81,66.074 L85.5635,66.074 Z M85.8365,67.0295 L83.5265,67.0295 L82.991,68.888 L81.752,68.888 L83.9885,62.021 L85.4165,62.021 L87.653,68.888 L86.372,68.888 L85.8365,67.0295 Z M88.4885,62.021 L89.738,62.021 L91.88,65.885 L92.5835,67.3445 L92.6255,67.3445 L92.5625001,66.5955005 C92.5508334,66.464834 92.5385834,66.3312507 92.52575,66.19475 C92.4872498,65.785248 92.468,65.3880019 92.468,65.003 L92.468,62.021 L93.6335,62.021 L93.6335,68.888 L92.384,68.888 L90.242,65.024 L89.5385,63.5645 L89.4965,63.5645 L89.5594999,64.3158329 C89.5711666,64.4449438 89.5834166,64.5759993 89.59625,64.709 C89.6347502,65.108002 89.654,65.4999981 89.654,65.885 L89.654,68.888 L88.4885,68.888 L88.4885,62.021 Z M95.1515,64.604 C95.1515,64.3659988 95.2267492,64.1700008 95.37725,64.016 C95.5277508,63.8619992 95.7149989,63.785 95.939,63.785 C96.1630011,63.785 96.3484993,63.8619992 96.4955,64.016 C96.6425007,64.1700008 96.716,64.3659988 96.716,64.604 C96.716,64.8420012 96.6425007,65.0379992 96.4955,65.192 C96.3484993,65.3460008 96.1630011,65.423 95.939,65.423 C95.7149989,65.423 95.5277508,65.3460008 95.37725,65.192 C95.2267492,65.0379992 95.1515,64.8420012 95.1515,64.604 Z M95.1515,68.195 C95.1515,67.9569988 95.2267492,67.7610008 95.37725,67.607 C95.5277508,67.4529992 95.7149989,67.376 95.939,67.376 C96.1630011,67.376 96.3484993,67.4529992 96.4955,67.607 C96.6425007,67.7610008 96.716,67.9569988 96.716,68.195 C96.716,68.4330012 96.6425007,68.6289992 96.4955,68.783 C96.3484993,68.9370008 96.1630011,69.014 95.939,69.014 C95.7149989,69.014 95.5277508,68.9370008 95.37725,68.783 C95.2267492,68.6289992 95.1515,68.4330012 95.1515,68.195 Z M100.3295,67.292 C100.532501,67.495001 100.763499,67.6682493 101.0225,67.81175 C101.281501,67.9552507 101.578998,68.027 101.915,68.027 C102.279002,68.027 102.574749,67.9377509 102.80225,67.75925 C103.029751,67.5807491 103.1435,67.3340016 103.1435,67.019 C103.1435,66.8439991 103.112,66.6865007 103.049,66.5465 C102.986,66.4064993 102.879251,66.2875005 102.72875,66.1895 C102.578249,66.0914995 102.377001,66.0162503 102.125,65.96375 C101.872999,65.9112497 101.558002,65.885 101.18,65.885 L101.18,65.003 C101.509002,65.003 101.783749,64.9767503 102.00425,64.92425 C102.224751,64.8717497 102.403249,64.7982505 102.53975,64.70375 C102.676251,64.6092495 102.77425,64.4955007 102.83375,64.3625 C102.89325,64.2294993 102.923,64.0860008 102.923,63.932 C102.923,63.6519986 102.835501,63.4332508 102.6605,63.27575 C102.485499,63.1182492 102.244002,63.0395 101.936,63.0395 C101.669999,63.0395 101.430251,63.0972494 101.21675,63.21275 C101.003249,63.3282506 100.795001,63.4804991 100.592,63.6695 L99.9725,62.924 C100.259501,62.6719987 100.565748,62.4690008 100.89125,62.315 C101.216752,62.1609992 101.578998,62.084 101.978,62.084 C102.300002,62.084 102.593999,62.1224996 102.86,62.1995 C103.126001,62.2765004 103.353499,62.3902492 103.5425,62.54075 C103.731501,62.6912508 103.878499,62.8767489 103.9835,63.09725 C104.088501,63.3177511 104.141,63.5679986 104.141,63.848 C104.141,64.2260019 104.037751,64.5409987 103.83125,64.793 C103.624749,65.0450013 103.339502,65.2409993 102.9755,65.381 L102.9755,65.423 C103.374502,65.5280005 103.705249,65.7204986 103.96775,66.0005 C104.230251,66.2805014 104.3615,66.6409978 104.3615,67.082 C104.3615,67.3900015 104.300251,67.6629988 104.17775,67.901 C104.055249,68.1390012 103.887251,68.3402492 103.67375,68.50475 C103.460249,68.6692508 103.211751,68.7952496 102.92825,68.88275 C102.644749,68.9702504 102.342002,69.014 102.02,69.014 C101.473997,69.014 101.019002,68.9230009 100.655,68.741 C100.290998,68.5589991 99.9900012,68.3350013 99.752,68.069 L100.3295,67.292 Z M107.738,68.09 C108.018001,68.09 108.254249,67.9815011 108.44675,67.7645 C108.639251,67.5474989 108.7355,67.2325021 108.7355,66.8195 C108.7355,66.420498 108.644501,66.123001 108.4625,65.927 C108.280499,65.730999 108.021502,65.633 107.6855,65.633 C107.496499,65.633 107.297001,65.6907494 107.087,65.80625 C106.876999,65.9217506 106.677501,66.1194986 106.4885,66.3995 C106.5515,66.994503 106.693249,67.4249987 106.91375,67.691 C107.134251,67.9570013 107.408998,68.09 107.738,68.09 Z M109.0925,63.575 C108.973499,63.4279993 108.817751,63.3072505 108.62525,63.21275 C108.432749,63.1182495 108.235001,63.071 108.032,63.071 C107.821999,63.071 107.624251,63.1129996 107.43875,63.197 C107.253249,63.2810004 107.090501,63.419249 106.9505,63.61175 C106.810499,63.804251 106.69675,64.0579984 106.60925,64.373 C106.52175,64.6880016 106.471,65.0764977 106.457,65.5385 C106.653001,65.2934988 106.882249,65.1010007 107.14475,64.961 C107.407251,64.8209993 107.660999,64.751 107.906,64.751 C108.193001,64.751 108.457249,64.7929996 108.69875,64.877 C108.940251,64.9610004 109.146749,65.0887491 109.31825,65.26025 C109.489751,65.4317509 109.62275,65.6469987 109.71725,65.906 C109.81175,66.1650013 109.859,66.4694983 109.859,66.8195 C109.859,67.1555017 109.803001,67.4582487 109.691,67.72775 C109.578999,67.9972513 109.428501,68.2264991 109.2395,68.4155 C109.050499,68.6045009 108.828251,68.7514995 108.57275,68.8565 C108.317249,68.9615005 108.046001,69.014 107.759,69.014 C107.429998,69.014 107.118501,68.9492506 106.8245,68.81975 C106.530499,68.6902494 106.273251,68.4925013 106.05275,68.2265 C105.832249,67.9604987 105.657251,67.6210021 105.52775,67.208 C105.398249,66.7949979 105.3335,66.3085028 105.3335,65.7485 C105.3335,65.0974967 105.406999,64.5410023 105.554,64.079 C105.701001,63.6169977 105.895249,63.2390015 106.13675,62.945 C106.378251,62.6509985 106.656498,62.4340007 106.9715,62.294 C107.286502,62.1539993 107.615498,62.084 107.9585,62.084 C108.364502,62.084 108.712749,62.1574993 109.00325,62.3045 C109.293751,62.4515007 109.540499,62.629999 109.7435,62.84 L109.0925,63.575 Z M110.7365,70.1375 C111.072502,70.0044993 111.333249,69.8260011 111.51875,69.602 C111.704251,69.3779989 111.797,69.1330013 111.797,68.867 L111.7025,68.867 C111.499499,68.867 111.319251,68.8022506 111.16175,68.67275 C111.004249,68.5432494 110.9255,68.3595012 110.9255,68.1215 C110.9255,67.8974989 111.004249,67.7172507 111.16175,67.58075 C111.319251,67.4442493 111.509999,67.376 111.734,67.376 C112.021001,67.376 112.243249,67.4844989 112.40075,67.7015 C112.558251,67.9185011 112.637,68.222998 112.637,68.615 C112.637,69.1330026 112.495251,69.5809981 112.21175,69.959 C111.928249,70.3370019 111.524003,70.6169991 110.999,70.799 L110.7365,70.1375 Z M113.945,67.292 C114.148001,67.495001 114.378999,67.6682493 114.638,67.81175 C114.897001,67.9552507 115.194498,68.027 115.5305,68.027 C115.894502,68.027 116.190249,67.9377509 116.41775,67.75925 C116.645251,67.5807491 116.759,67.3340016 116.759,67.019 C116.759,66.8439991 116.7275,66.6865007 116.6645,66.5465 C116.6015,66.4064993 116.494751,66.2875005 116.34425,66.1895 C116.193749,66.0914995 115.992501,66.0162503 115.7405,65.96375 C115.488499,65.9112497 115.173502,65.885 114.7955,65.885 L114.7955,65.003 C115.124502,65.003 115.399249,64.9767503 115.61975,64.92425 C115.840251,64.8717497 116.018749,64.7982505 116.15525,64.70375 C116.291751,64.6092495 116.38975,64.4955007 116.44925,64.3625 C116.50875,64.2294993 116.5385,64.0860008 116.5385,63.932 C116.5385,63.6519986 116.451001,63.4332508 116.276,63.27575 C116.100999,63.1182492 115.859502,63.0395 115.5515,63.0395 C115.285499,63.0395 115.045751,63.0972494 114.83225,63.21275 C114.618749,63.3282506 114.410501,63.4804991 114.2075,63.6695 L113.588,62.924 C113.875001,62.6719987 114.181248,62.4690008 114.50675,62.315 C114.832252,62.1609992 115.194498,62.084 115.5935,62.084 C115.915502,62.084 116.209499,62.1224996 116.4755,62.1995 C116.741501,62.2765004 116.968999,62.3902492 117.158,62.54075 C117.347001,62.6912508 117.493999,62.8767489 117.599,63.09725 C117.704001,63.3177511 117.7565,63.5679986 117.7565,63.848 C117.7565,64.2260019 117.653251,64.5409987 117.44675,64.793 C117.240249,65.0450013 116.955002,65.2409993 116.591,65.381 L116.591,65.423 C116.990002,65.5280005 117.320749,65.7204986 117.58325,66.0005 C117.845751,66.2805014 117.977,66.6409978 117.977,67.082 C117.977,67.3900015 117.915751,67.6629988 117.79325,67.901 C117.670749,68.1390012 117.502751,68.3402492 117.28925,68.50475 C117.075749,68.6692508 116.827251,68.7952496 116.54375,68.88275 C116.260249,68.9702504 115.957502,69.014 115.6355,69.014 C115.089497,69.014 114.634502,68.9230009 114.2705,68.741 C113.906498,68.5589991 113.605501,68.3350013 113.3675,68.069 L113.945,67.292 Z M119.873,66.2315 L121.6265,66.2315 L121.6265,64.7195 C121.6265,64.5724993 121.629453,64.4058129 121.635359,64.2194379 L121.659312,63.6537499 C121.665437,63.5382502 121.672,63.4315005 121.679,63.3335 L121.637,63.3335 C121.553,63.5085009 121.4655,63.6799992 121.3745,63.848 L121.091,64.373 L121.091,64.373 L119.873,66.2315 Z M123.6005,67.166 L122.7605,67.166 L122.7605,68.888 L121.6265,68.888 L121.6265,67.166 L118.676,67.166 L118.676,66.347 L121.322,62.21 L122.7605,62.21 L122.7605,66.2315 L123.6005,66.2315 L123.6005,67.166 Z M126.725,68.09 C127.005001,68.09 127.241249,67.9815011 127.43375,67.7645 C127.626251,67.5474989 127.7225,67.2325021 127.7225,66.8195 C127.7225,66.420498 127.631501,66.123001 127.4495,65.927 C127.267499,65.730999 127.008502,65.633 126.6725,65.633 C126.483499,65.633 126.284001,65.6907494 126.074,65.80625 C125.863999,65.9217506 125.664501,66.1194986 125.4755,66.3995 C125.5385,66.994503 125.680249,67.4249987 125.90075,67.691 C126.121251,67.9570013 126.395998,68.09 126.725,68.09 Z M128.0795,63.575 C127.960499,63.4279993 127.804751,63.3072505 127.61225,63.21275 C127.419749,63.1182495 127.222001,63.071 127.019,63.071 C126.808999,63.071 126.611251,63.1129996 126.42575,63.197 C126.240249,63.2810004 126.077501,63.419249 125.9375,63.61175 C125.797499,63.804251 125.68375,64.0579984 125.59625,64.373 C125.50875,64.6880016 125.458,65.0764977 125.444,65.5385 C125.640001,65.2934988 125.869249,65.1010007 126.13175,64.961 C126.394251,64.8209993 126.647999,64.751 126.893,64.751 C127.180001,64.751 127.444249,64.7929996 127.68575,64.877 C127.927251,64.9610004 128.133749,65.0887491 128.30525,65.26025 C128.476751,65.4317509 128.60975,65.6469987 128.70425,65.906 C128.79875,66.1650013 128.846,66.4694983 128.846,66.8195 C128.846,67.1555017 128.790001,67.4582487 128.678,67.72775 C128.565999,67.9972513 128.415501,68.2264991 128.2265,68.4155 C128.037499,68.6045009 127.815251,68.7514995 127.55975,68.8565 C127.304249,68.9615005 127.033001,69.014 126.746,69.014 C126.416998,69.014 126.105501,68.9492506 125.8115,68.81975 C125.517499,68.6902494 125.260251,68.4925013 125.03975,68.2265 C124.819249,67.9604987 124.644251,67.6210021 124.51475,67.208 C124.385249,66.7949979 124.3205,66.3085028 124.3205,65.7485 C124.3205,65.0974967 124.393999,64.5410023 124.541,64.079 C124.688001,63.6169977 124.882249,63.2390015 125.12375,62.945 C125.365251,62.6509985 125.643498,62.4340007 125.9585,62.294 C126.273502,62.1539993 126.602498,62.084 126.9455,62.084 C127.351502,62.084 127.699749,62.1574993 127.99025,62.3045 C128.280751,62.4515007 128.527499,62.629999 128.7305,62.84 L128.0795,63.575 Z" id="CLUSTERMEDIAN:36,346" fill="#789E25" fill-rule="nonzero"></path>
                <g id="Group-19" transform="translate(16.538000, 22.888000)">
                    <line x1="4.853025" y1="38.039775" x2="4.853025" y2="21.960525" id="Stroke-13" stroke="#636363" stroke-width="1.5" stroke-linecap="round"></line>
                    <path d="M4.853025,22.26195 C4.069275,23.0457 2.519775,23.4192 1.444275,23.44995 C2.888025,22.3752 4.147275,20.9787 4.853025,19.2897 C5.528775,20.9787 6.864525,22.3137 8.261775,23.44995 C7.110525,23.3577 5.712525,23.07645 4.853025,22.26195" id="Fill-15" fill="#636363"></path>
                    <path d="M5.082975,7.86331836 C3.677475,7.86855 2.569725,6.7473 2.57421134,5.32305 C2.577975,4.01055 3.723975,2.8923 5.069475,2.88627592 C6.425475,2.8803 7.545225,3.9963 7.559475,5.3673 C7.573725,6.70605 6.429975,7.8588 5.082975,7.86331836 M9.199725,3.1413 C8.343975,1.52655 6.909975,0.7548 5.430225,0.658799799 C2.519475,0.65805 0.402975,2.75655 0.357975,5.34405 C0.331725,6.8388 0.927225,8.07105 1.896225,9.1608 C2.938725,10.3338 4.038975,11.46255 4.680975,12.9348 C4.749225,13.09155 4.953975,13.29705 5.084475,13.2888 C5.222475,13.2813 5.372475,13.06155 5.472225,12.90555 C5.931975,12.19155 6.327975,11.43105 6.836475,10.7538 C7.494225,9.8793 8.312475,9.1203 8.924475,8.2188 C10.017225,6.61005 10.111725,4.86105 9.199725,3.1413" id="Fill-17" fill="#FFFFFF"></path>
                </g>
            </g>
        </g>
    </g>
</svg>