<?xml version="1.0" encoding="UTF-8"?>
<svg width="190px" height="98px" viewBox="0 0 190 98" version="1.1" xmlns="http://www.w3.org/2000/svg" xmlns:xlink="http://www.w3.org/1999/xlink">
    <!-- Generator: Sketch 59.1 (86144) - https://sketch.com -->
    <title>Population Density</title>
    <desc>Created with Sketch.</desc>
    <g id="Export-Outlined-SVG" stroke="none" stroke-width="1" fill="none" fill-rule="evenodd">
        <g id="5" transform="translate(-545.000000, -818.000000)">
            <g id="Population-Density" transform="translate(546.000000, 818.000000)">
                <polygon id="Fill-1" fill="#372C7A" points="0 97 188 97 188 71 0 71"></polygon>
                <polygon id="Stroke-2" stroke="#FFFFFF" stroke-width="0.96975" points="0 97 188 97 188 71 0 71"></polygon>
                <path d="M83.914,87.632 C84.3940024,87.632 84.7989984,87.4460019 85.129,87.074 C85.4590017,86.7019981 85.624,86.1620035 85.624,85.454 C85.624,84.7699966 85.4680016,84.2600017 85.156,83.924 C84.8439984,83.5879983 84.4000029,83.42 83.824,83.42 C83.4999984,83.42 83.1580018,83.518999 82.798,83.717 C82.4379982,83.915001 82.0960016,84.2539976 81.772,84.734 C81.8800005,85.7540051 82.1229981,86.4919977 82.501,86.948 C82.8790019,87.4040023 83.3499972,87.632 83.914,87.632 Z M86.236,79.892 C86.031999,79.6399987 85.7650017,79.4330008 85.435,79.271 C85.1049983,79.1089992 84.7660017,79.028 84.418,79.028 C84.0579982,79.028 83.7190016,79.0999993 83.401,79.244 C83.0829984,79.3880007 82.8040012,79.6249983 82.564,79.955 C82.3239988,80.2850017 82.1290008,80.7199973 81.979,81.26 C81.8289993,81.8000027 81.7420001,82.465996 81.718,83.258 C82.0540017,82.8379979 82.4469978,82.5080012 82.897,82.268 C83.3470022,82.0279988 83.7819979,81.908 84.202,81.908 C84.6940025,81.908 85.1469979,81.9799993 85.561,82.124 C85.9750021,82.2680007 86.3289985,82.4869985 86.623,82.781 C86.9170015,83.0750015 87.1449992,83.4439978 87.307,83.888 C87.4690008,84.3320022 87.55,84.853997 87.55,85.454 C87.55,86.0300029 87.454001,86.5489977 87.262,87.011 C87.069999,87.4730023 86.8120016,87.8659984 86.488,88.19 C86.1639984,88.5140016 85.7830022,88.7659991 85.345,88.946 C84.9069978,89.1260009 84.4420025,89.216 83.95,89.216 C83.3859972,89.216 82.8520025,89.1050011 82.348,88.883 C81.8439975,88.6609989 81.4030019,88.3220023 81.025,87.866 C80.6469981,87.4099977 80.3470011,86.8280035 80.125,86.12 C79.9029989,85.4119965 79.792,84.5780048 79.792,83.618 C79.792,82.5019944 79.9179987,81.548004 80.17,80.756 C80.4220013,79.963996 80.7549979,79.3160025 81.169,78.812 C81.5830021,78.3079975 82.0599973,77.9360012 82.6,77.696 C83.1400027,77.4559988 83.7039971,77.336 84.292,77.336 C84.9880035,77.336 85.5849975,77.4619987 86.083,77.714 C86.5810025,77.9660013 87.0039983,78.2719982 87.352,78.632 L86.236,79.892 Z M89.6275,86.3 C89.9755017,86.6240016 90.3654978,86.9089988 90.7975,87.155 C91.2295022,87.4010012 91.7334971,87.524 92.3095,87.524 C92.9575032,87.524 93.4884979,87.3320019 93.9025,86.948 C94.3165021,86.5639981 94.5235,86.0240035 94.5235,85.328 C94.5235,84.6439966 94.3315019,84.1160019 93.9475,83.744 C93.5634981,83.3719981 93.0535032,83.186 92.4175,83.186 C92.0454981,83.186 91.7335013,83.2369995 91.4815,83.339 C91.2294987,83.4410005 90.9295017,83.6059989 90.5815,83.834 L89.5915,83.204 L89.9335,77.552 L96.0535,77.552 L96.0535,79.298 L91.7335,79.298 L91.4995,82.07 C91.7395012,81.9499994 91.9764988,81.8570003 92.2105,81.791 C92.4445012,81.7249997 92.7114985,81.692 93.0115,81.692 C93.5035025,81.692 93.9684978,81.7639993 94.4065,81.908 C94.8445022,82.052 95.2254984,82.2709985 95.5495,82.565 C95.8735016,82.8590015 96.131499,83.2309978 96.3235,83.681 C96.515501,84.1310023 96.6115,84.6619969 96.6115,85.274 C96.6115,85.8980031 96.5005011,86.4559975 96.2785,86.948 C96.0564989,87.4400025 95.7595019,87.8539983 95.3875,88.19 C95.0154981,88.5260017 94.5865024,88.7809991 94.1005,88.955 C93.6144976,89.1290009 93.1075026,89.216 92.5795,89.216 C91.6554954,89.216 90.8785031,89.0570016 90.2485,88.739 C89.6184968,88.4209984 89.0935021,88.052 88.6735,87.632 L89.6275,86.3 Z M100.507,89 C100.555,87.9799949 100.644999,87.0470042 100.777,86.201 C100.909001,85.3549958 101.097999,84.5480038 101.344,83.78 C101.590001,83.0119962 101.904998,82.2650036 102.289,81.539 C102.673002,80.8129964 103.140997,80.0660038 103.693,79.298 L98.275,79.298 L98.275,77.552 L105.961,77.552 L105.961,78.812 C105.288997,79.6400041 104.746002,80.4289963 104.332,81.179 C103.917998,81.9290038 103.591001,82.6969961 103.351,83.483 C103.110999,84.2690039 102.940001,85.1059956 102.838,85.994 C102.735999,86.8820044 102.661,87.8839944 102.613,89 L100.507,89 Z" id="657" fill="#FFFFFF" fill-rule="nonzero"></path>
                <path d="M77.4919269,11.9520538 C77.4919269,9.91190185 76.3267967,8.25512912 74.2601233,8.25512912 L66.7788417,8.25512912 C64.8856008,8.25512912 63.7472113,9.64875401 63.5684307,11.465079 C63.5294657,11.6185819 63.501197,11.7819151 63.501197,11.9520538 L63,24.0296321 C63,24.9566989 63.6601131,25.7053091 64.4715021,25.7053091 C65.2943513,25.7053091 65.9452962,24.9566989 65.9452962,24.0296321 L65.9452962,12.8080404 L66.6359701,20.6714724 C66.6359701,20.6722286 66.6359701,20.6729848 66.6359701,20.673741 L66.6359701,40.3221128 C66.6359701,41.2892567 67.4595834,42.0711385 68.4635053,41.9947651 C69.3612285,41.9267096 70.0159935,41.1108001 70.0159935,40.2192734 L70.0159935,24.4190606 C70.1756736,24.4114989 70.3292416,24.403181 70.4965619,24.403181 C70.6615902,24.403181 70.8243264,24.4114989 70.9748383,24.4190606 L70.9748383,40.2646437 C70.9748383,40.9489793 71.3515,41.6151668 71.9932766,41.8684844 C73.1988998,42.3441166 74.3586818,41.4609077 74.3586818,40.3221128 L74.3586818,20.673741 L74.3586818,20.6714724 L75.0004584,13.2345214 L75.0004584,24.0296321 C75.0004584,24.9566989 75.6773799,25.7053091 76.4979371,25.7053091 C77.3268986,25.7053091 78,24.9566989 78,24.0296321 L77.4919269,11.9520538 Z M67.4740997,5.21758642 L67.7033057,5.0724014 C68.2618041,6.33369621 69.3092752,7.41048506 70.5072582,7.41048506 C71.699129,7.41048506 72.7343758,6.3420141 73.3028065,5.09886742 L73.516732,5.21758642 C73.6932206,5.2342222 73.8567208,5.08828101 73.8712372,4.8757967 L73.9881322,3.56686306 C74.0026486,3.38084476 73.8941578,3.22431717 73.7512861,3.1857524 C73.7398258,1.41857857 72.2897163,0 70.5072582,0 C68.7255641,0 67.2808027,1.41857857 67.2639943,3.17743451 C67.1027861,3.21070608 66.9920033,3.36950218 67.0126318,3.56686306 L67.1272348,4.8757967 C67.1448072,5.08828101 67.3037233,5.2342222 67.4740997,5.21758642 L67.4740997,5.21758642 Z" id="Fill-4" fill="#D3D3D3"></path>
                <path d="M57.9544597,22.6700616 L53.9087501,11.0068619 L53.8471291,10.8092061 C53.4964765,9.32678776 52.4606574,8.26005008 50.8739177,8.26005008 L45.5965223,8.26005008 C43.9518295,8.26005008 42.8962037,9.40826419 42.5807631,10.9638604 L39.0331562,22.6610087 C38.8651657,23.5753553 39.3515312,24.429349 40.1298626,24.5787224 C40.9081941,24.726587 41.6535143,24.1004256 41.8207712,23.2004128 L44.5819772,12.6477066 L41.7679532,31.8142819 C41.7657525,31.8286157 41.7760226,31.8414407 41.7906943,31.8414407 L44.4756077,31.8414407 C44.4888122,31.8414407 44.4998159,31.8527568 44.4998159,31.8655818 L44.4998159,40.210126 C44.4998159,41.0980682 45.1189599,41.9173589 45.9794526,41.9935545 C46.9411798,42.0795574 47.7451866,41.2934607 47.7451866,40.32027 L47.7451866,31.8414407 L48.673169,31.8414407 L48.673169,40.213898 C48.673169,41.1018402 49.2945137,41.9196221 50.1550064,41.9935545 C51.1196679,42.0780485 51.9236748,41.2919519 51.9236748,40.32027 L51.9236748,31.8655818 C51.9236748,31.8527568 51.9346785,31.8414407 51.947883,31.8414407 L55.0810155,31.8414407 C55.0949536,31.8414407 55.1059573,31.8286157 55.1037566,31.8135274 L51.9134046,12.6507243 L55.1499723,23.3301716 C55.3443718,24.2241491 56.1403092,24.8073091 56.9149728,24.6239871 C57.6859684,24.4436828 58.1525271,23.5663024 57.9544597,22.6700616 L57.9544597,22.6700616 Z M51.5143355,7.66557392 C51.5282736,7.66557392 51.5385438,7.65425775 51.5378102,7.63916952 L51.2986621,5.15036642 L51.4358421,4.88330479 L51.5400109,3.58043636 C51.5510147,3.39409675 51.451981,3.23868801 51.3155346,3.19493215 C51.3045308,1.43489042 49.9121905,0 48.1956065,0 C46.4790226,0 45.0866822,1.42960954 45.0705434,3.1919145 C44.9208925,3.22209096 44.8093879,3.38051735 44.8255267,3.58043636 L44.9333634,4.88330479 L45.0646747,5.15036642 L44.8277275,7.63916952 C44.8262603,7.65425775 44.837264,7.66557392 44.8512021,7.66557392 L51.5143355,7.66557392 Z" id="Fill-5" fill="#D3D3D3"></path>
                <path d="M120.491927,11.9520538 C120.491927,9.91190185 119.326797,8.25512912 117.260123,8.25512912 L109.778078,8.25512912 C107.885601,8.25512912 106.746447,9.64875401 106.568431,11.465079 C106.529466,11.6185819 106.501197,11.7819151 106.501197,11.9520538 L106,24.0296321 C106,24.9566989 106.660113,25.7053091 107.471502,25.7053091 C108.294351,25.7053091 108.945296,24.9566989 108.945296,24.0296321 L108.945296,12.8080404 L109.63597,20.6714724 L109.63597,20.673741 L109.63597,40.3221128 C109.63597,41.2892567 110.459583,42.0711385 111.463505,41.9947651 C112.361229,41.9267096 113.015993,41.1108001 113.015993,40.2192734 L113.015993,24.4190606 C113.175674,24.4114989 113.329242,24.403181 113.496562,24.403181 C113.66159,24.403181 113.824326,24.4114989 113.974838,24.4190606 L113.974838,40.2646437 C113.974838,40.9489793 114.3515,41.6151668 114.993277,41.8684844 C116.1989,42.3441166 117.358682,41.4609077 117.358682,40.3221128 L117.358682,20.673741 L117.358682,20.6714724 L118.000458,13.2345214 L118.000458,24.0296321 C118.000458,24.9566989 118.67738,25.7053091 119.497937,25.7053091 C120.326899,25.7053091 121,24.9566989 121,24.0296321 L120.491927,11.9520538 Z M110.4741,5.21758642 L110.703306,5.0724014 C111.261804,6.33369621 112.309275,7.41048506 113.507258,7.41048506 C114.699129,7.41048506 115.734376,6.3420141 116.302806,5.09886742 L116.516732,5.21758642 C116.693221,5.2342222 116.855957,5.08828101 116.871237,4.8757967 L116.987368,3.56686306 C117.002649,3.38084476 116.894158,3.22431717 116.751286,3.1857524 C116.739826,1.41857857 115.289716,0 113.507258,0 C111.725564,0 110.280803,1.41857857 110.263994,3.17743451 C110.102786,3.21070608 109.992003,3.36950218 110.012632,3.56686306 L110.127235,4.8757967 C110.144043,5.08828101 110.303723,5.2342222 110.4741,5.21758642 L110.4741,5.21758642 Z" id="Fill-6" fill="#D3D3D3"></path>
                <path d="M101.954459,22.6700616 L97.9087027,11.0068619 L97.8478146,10.8092061 C97.4964243,9.32678776 96.4613268,8.26005008 94.8738351,8.26005008 L89.5963786,8.26005008 C87.9524003,8.26005008 86.8967623,9.40826419 86.581318,10.9638604 L83.0329364,22.6610087 C82.8656776,23.5753553 83.3513151,24.429349 84.1296556,24.5787224 C84.907996,24.726587 85.6533249,24.1004256 85.8213173,23.2004128 L88.5825553,12.6477066 L85.7677651,31.8142819 C85.7655644,31.8286157 85.7765682,31.8414407 85.7905065,31.8414407 L88.4761846,31.8414407 C88.4893892,31.8414407 88.4996595,31.8527568 88.4996595,31.8655818 L88.4996595,40.210126 C88.4996595,41.0980682 89.1195442,41.9173589 89.9793133,41.9935545 C90.9410516,42.0795574 91.7450678,41.2934607 91.7450678,40.32027 L91.7450678,31.8414407 L92.6730609,31.8414407 L92.6730609,40.213898 C92.6730609,41.1018402 93.2951464,41.9196221 94.1556491,41.9935545 C95.1195882,42.0780485 95.9243379,41.2919519 95.9243379,40.32027 L95.9243379,31.8655818 C95.9243379,31.8527568 95.9346082,31.8414407 95.9478129,31.8414407 L99.0809817,31.8414407 C99.0956535,31.8414407 99.1066574,31.8286157 99.103723,31.8135274 L95.9133341,12.6507243 L99.1499393,23.3301716 C99.344341,24.2241491 100.141021,24.8073091 100.91496,24.6239871 C101.685965,24.4436828 102.152529,23.5663024 101.954459,22.6700616 L101.954459,22.6700616 Z M95.5142604,7.66557392 C95.5281986,7.66557392 95.5392025,7.65425775 95.5377353,7.63916952 L95.2993181,5.15036642 L95.4357661,4.88330479 L95.5406697,3.58043636 C95.5509399,3.39409675 95.4519051,3.23868801 95.3154571,3.19493215 C95.3044532,1.43489042 93.9120968,0 92.1954929,0 C90.4788891,0 89.0865326,1.42960954 89.0703936,3.1919145 C88.9207409,3.22209096 88.809235,3.38051735 88.8253741,3.58043636 L88.933212,4.88330479 L89.0652584,5.15036642 L88.8275748,7.63916952 C88.8268412,7.65425775 88.8378451,7.66557392 88.8510498,7.66557392 L95.5142604,7.66557392 Z" id="Fill-7" fill="#D3D3D3"></path>
                <path d="M144.95417,22.6700616 L140.908476,11.0068619 L140.847588,10.8092061 C140.496203,9.32678776 139.461122,8.26005008 137.874388,8.26005008 L132.596278,8.26005008 C130.951591,8.26005008 129.896703,9.40826419 129.58053,10.9638604 L126.032936,22.6610087 C125.86568,23.5753553 126.35131,24.429349 127.129638,24.5787224 C127.907967,24.726587 128.653284,24.1004256 128.820541,23.2004128 L131.581737,12.6477066 L128.767723,31.8142819 C128.765522,31.8286157 128.776526,31.8414407 128.790464,31.8414407 L131.476101,31.8414407 C131.489306,31.8414407 131.499576,31.8527568 131.499576,31.8655818 L131.499576,40.210126 C131.499576,41.0980682 132.119451,41.9173589 132.979207,41.9935545 C133.940931,42.0795574 134.744935,41.2934607 134.744935,40.32027 L134.744935,31.8414407 L135.672914,31.8414407 L135.672914,40.213898 C135.672914,41.1018402 136.294256,41.9196221 137.154746,41.9935545 C138.119404,42.0780485 138.923408,41.2919519 138.923408,40.32027 L138.923408,31.8655818 C138.923408,31.8527568 138.934411,31.8414407 138.947616,31.8414407 L142.080737,31.8414407 C142.095408,31.8414407 142.105678,31.8286157 142.103478,31.8135274 L138.913137,12.6507243 L142.149693,23.3301716 C142.344092,24.2241491 143.140027,24.8073091 143.914687,24.6239871 C144.686414,24.4436828 145.152971,23.5663024 144.95417,22.6700616 L144.95417,22.6700616 Z M138.514803,7.66557392 C138.528008,7.66557392 138.539011,7.65425775 138.537544,7.63916952 L138.299131,5.15036642 L138.435577,4.88330479 L138.540479,3.58043636 C138.550749,3.39409675 138.452449,3.23868801 138.31527,3.19493215 C138.304266,1.43489042 136.911931,0 135.195353,0 C133.478775,0 132.08644,1.42960954 132.070301,3.1919145 C131.920651,3.22209096 131.809147,3.38051735 131.826019,3.58043636 L131.933122,4.88330479 L132.065166,5.15036642 L131.827486,7.63916952 C131.826019,7.65425775 131.837023,7.66557392 131.851694,7.66557392 L138.514803,7.66557392 Z" id="Fill-8" fill="#D3D3D3"></path>
                <path d="M66.4919269,17.9520538 C66.4919269,15.9119018 65.3267967,14.2551291 63.2601233,14.2551291 L55.7788417,14.2551291 C53.8856008,14.2551291 52.7472113,15.648754 52.5684307,17.465079 C52.5294657,17.6185819 52.501197,17.7819151 52.501197,17.9520538 L52,30.0296321 C52,30.9566989 52.6601131,31.7053091 53.4715021,31.7053091 C54.2943513,31.7053091 54.9452962,30.9566989 54.9452962,30.0296321 L54.9452962,18.8080404 L55.6359701,26.6714724 C55.6359701,26.6722286 55.6359701,26.6729848 55.6359701,26.673741 L55.6359701,46.3221128 C55.6359701,47.2892567 56.4595834,48.0711385 57.4635053,47.9947651 C58.3612285,47.9267096 59.0159935,47.1108001 59.0159935,46.2192734 L59.0159935,30.4190606 C59.1756736,30.4114989 59.3292416,30.403181 59.4965619,30.403181 C59.6615902,30.403181 59.8243264,30.4114989 59.9748383,30.4190606 L59.9748383,46.2646437 C59.9748383,46.9489793 60.3515,47.6151668 60.9932766,47.8684844 C62.1988998,48.3441166 63.3586818,47.4609077 63.3586818,46.3221128 L63.3586818,26.673741 L63.3586818,26.6714724 L64.0004584,19.2345214 L64.0004584,30.0296321 C64.0004584,30.9566989 64.6773799,31.7053091 65.4979371,31.7053091 C66.3268986,31.7053091 67,30.9566989 67,30.0296321 L66.4919269,17.9520538 Z M56.4740997,11.2175864 L56.7033057,11.0724014 C57.2618041,12.3336962 58.3092752,13.4104851 59.5072582,13.4104851 C60.699129,13.4104851 61.7343758,12.3420141 62.3028065,11.0988674 L62.516732,11.2175864 C62.6932206,11.2342222 62.8567208,11.088281 62.8712372,10.8757967 L62.9881322,9.56686306 C63.0026486,9.38084476 62.8941578,9.22431717 62.7512861,9.1857524 C62.7398258,7.41857857 61.2897163,6 59.5072582,6 C57.7255641,6 56.2808027,7.41857857 56.2639943,9.17743451 C56.1027861,9.21070608 55.9920033,9.36950218 56.0126318,9.56686306 L56.1272348,10.8757967 C56.1448072,11.088281 56.3037233,11.2342222 56.4740997,11.2175864 L56.4740997,11.2175864 Z" id="Fill-9" fill="#AAAAAA"></path>
                <path d="M46.9544597,28.6700616 L42.9087501,17.0068619 L42.8471291,16.8092061 C42.4964765,15.3267878 41.4606574,14.2600501 39.8739177,14.2600501 L34.5965223,14.2600501 C32.9518295,14.2600501 31.8962037,15.4082642 31.5807631,16.9638604 L28.0331562,28.6610087 C27.8651657,29.5753553 28.3515312,30.429349 29.1298626,30.5787224 C29.9081941,30.726587 30.6535143,30.1004256 30.8207712,29.2004128 L33.5819772,18.6477066 L30.7679532,37.8142819 C30.7657525,37.8286157 30.7760226,37.8414407 30.7906943,37.8414407 L33.4756077,37.8414407 C33.4888122,37.8414407 33.4998159,37.8527568 33.4998159,37.8655818 L33.4998159,46.210126 C33.4998159,47.0980682 34.1189599,47.9173589 34.9794526,47.9935545 C35.9411798,48.0795574 36.7451866,47.2934607 36.7451866,46.32027 L36.7451866,37.8414407 L37.673169,37.8414407 L37.673169,46.213898 C37.673169,47.1018402 38.2945137,47.9196221 39.1550064,47.9935545 C40.1196679,48.0780485 40.9236748,47.2919519 40.9236748,46.32027 L40.9236748,37.8655818 C40.9236748,37.8527568 40.9346785,37.8414407 40.947883,37.8414407 L44.0810155,37.8414407 C44.0949536,37.8414407 44.1059573,37.8286157 44.1037566,37.8135274 L40.9134046,18.6507243 L44.1499723,29.3301716 C44.3443718,30.2241491 45.1403092,30.8073091 45.9149728,30.6239871 C46.6859684,30.4436828 47.1525271,29.5663024 46.9544597,28.6700616 L46.9544597,28.6700616 Z M40.5143355,13.6655739 C40.5282736,13.6655739 40.5385438,13.6542578 40.5378102,13.6391695 L40.2986621,11.1503664 L40.4358421,10.8833048 L40.5400109,9.58043636 C40.5510147,9.39409675 40.451981,9.23868801 40.3155346,9.19493215 C40.3045308,7.43489042 38.9121905,6 37.1956065,6 C35.4790226,6 34.0866822,7.42960954 34.0705434,9.1919145 C33.9208925,9.22209096 33.8093879,9.38051735 33.8255267,9.58043636 L33.9333634,10.8833048 L34.0646747,11.1503664 L33.8277275,13.6391695 C33.8262603,13.6542578 33.837264,13.6655739 33.8512021,13.6655739 L40.5143355,13.6655739 Z" id="Fill-10" fill="#AAAAAA"></path>
                <path d="M108.491927,17.9520538 C108.491927,15.9119018 107.326797,14.2551291 105.260123,14.2551291 L97.7780777,14.2551291 C95.8856008,14.2551291 94.7464473,15.648754 94.5684307,17.465079 C94.5294657,17.6185819 94.501197,17.7819151 94.501197,17.9520538 L94,30.0296321 C94,30.9566989 94.6601131,31.7053091 95.4715021,31.7053091 C96.2943513,31.7053091 96.9452962,30.9566989 96.9452962,30.0296321 L96.9452962,18.8080404 L97.6359701,26.6714724 L97.6359701,26.673741 L97.6359701,46.3221128 C97.6359701,47.2892567 98.4595834,48.0711385 99.4635053,47.9947651 C100.361229,47.9267096 101.015993,47.1108001 101.015993,46.2192734 L101.015993,30.4190606 C101.175674,30.4114989 101.329242,30.403181 101.496562,30.403181 C101.66159,30.403181 101.824326,30.4114989 101.974838,30.4190606 L101.974838,46.2646437 C101.974838,46.9489793 102.3515,47.6151668 102.993277,47.8684844 C104.1989,48.3441166 105.358682,47.4609077 105.358682,46.3221128 L105.358682,26.673741 L105.358682,26.6714724 L106.000458,19.2345214 L106.000458,30.0296321 C106.000458,30.9566989 106.67738,31.7053091 107.497937,31.7053091 C108.326899,31.7053091 109,30.9566989 109,30.0296321 L108.491927,17.9520538 Z M98.4740997,11.2175864 L98.7033057,11.0724014 C99.2618041,12.3336962 100.309275,13.4104851 101.507258,13.4104851 C102.699129,13.4104851 103.734376,12.3420141 104.302806,11.0988674 L104.516732,11.2175864 C104.693221,11.2342222 104.855957,11.088281 104.871237,10.8757967 L104.987368,9.56686306 C105.002649,9.38084476 104.894158,9.22431717 104.751286,9.1857524 C104.739826,7.41857857 103.289716,6 101.507258,6 C99.7255641,6 98.2808027,7.41857857 98.2639943,9.17743451 C98.1027861,9.21070608 97.9920033,9.36950218 98.0126318,9.56686306 L98.1272348,10.8757967 C98.1440432,11.088281 98.3037233,11.2342222 98.4740997,11.2175864 L98.4740997,11.2175864 Z" id="Fill-11" fill="#AAAAAA"></path>
                <path d="M90.9544592,28.6700616 L86.9087027,17.0068619 L86.8478146,16.8092061 C86.4964243,15.3267878 85.4613268,14.2600501 83.8738351,14.2600501 L78.5963786,14.2600501 C76.9524003,14.2600501 75.8967623,15.4082642 75.581318,16.9638604 L72.0329364,28.6610087 C71.8656776,29.5753553 72.3513151,30.429349 73.1296556,30.5787224 C73.907996,30.726587 74.6533249,30.1004256 74.8213173,29.2004128 L77.5825553,18.6477066 L74.7677651,37.8142819 C74.7655644,37.8286157 74.7765682,37.8414407 74.7905065,37.8414407 L77.4761846,37.8414407 C77.4893892,37.8414407 77.4996595,37.8527568 77.4996595,37.8655818 L77.4996595,46.210126 C77.4996595,47.0980682 78.1195442,47.9173589 78.9793133,47.9935545 C79.9410516,48.0795574 80.7450678,47.2934607 80.7450678,46.32027 L80.7450678,37.8414407 L81.6730609,37.8414407 L81.6730609,46.213898 C81.6730609,47.1018402 82.2951464,47.9196221 83.1556491,47.9935545 C84.1195882,48.0780485 84.9243379,47.2919519 84.9243379,46.32027 L84.9243379,37.8655818 C84.9243379,37.8527568 84.9346082,37.8414407 84.9478129,37.8414407 L88.0809817,37.8414407 C88.0956535,37.8414407 88.1066574,37.8286157 88.103723,37.8135274 L84.9133341,18.6507243 L88.1499393,29.3301716 C88.344341,30.2241491 89.1410213,30.8073091 89.9149602,30.6239871 C90.6859647,30.4436828 91.1525289,29.5663024 90.9544592,28.6700616 L90.9544592,28.6700616 Z M84.5142604,13.6655739 C84.5281986,13.6655739 84.5392025,13.6542578 84.5377353,13.6391695 L84.2993181,11.1503664 L84.4357661,10.8833048 L84.5406697,9.58043636 C84.5509399,9.39409675 84.4519051,9.23868801 84.3154571,9.19493215 C84.3044532,7.43489042 82.9120968,6 81.1954929,6 C79.4788891,6 78.0865326,7.42960954 78.0703936,9.1919145 C77.9207409,9.22209096 77.809235,9.38051735 77.8253741,9.58043636 L77.933212,10.8833048 L78.0652584,11.1503664 L77.8275748,13.6391695 C77.8268412,13.6542578 77.8378451,13.6655739 77.8510498,13.6655739 L84.5142604,13.6655739 Z" id="Fill-12" fill="#AAAAAA"></path>
                <path d="M152.491927,17.9520538 C152.491927,15.9119018 151.326797,14.2551291 149.260123,14.2551291 L141.778842,14.2551291 C139.885601,14.2551291 138.747211,15.648754 138.568431,17.465079 C138.529466,17.6185819 138.501197,17.7819151 138.501197,17.9520538 L138,30.0296321 C138,30.9566989 138.660113,31.7053091 139.470738,31.7053091 C140.294351,31.7053091 140.945296,30.9566989 140.945296,30.0296321 L140.945296,18.8080404 L141.635206,26.6714724 C141.63597,26.6722286 141.63597,26.6729848 141.63597,26.673741 L141.63597,46.3221128 C141.63597,47.2892567 142.458819,48.0711385 143.463505,47.9947651 C144.361229,47.9267096 145.015993,47.1108001 145.015993,46.2192734 L145.015993,30.4190606 C145.175674,30.4114989 145.329242,30.403181 145.496562,30.403181 C145.66159,30.403181 145.824326,30.4114989 145.974838,30.4190606 L145.974838,46.2646437 C145.974838,46.9489793 146.3515,47.6151668 146.993277,47.8684844 C148.1989,48.3441166 149.358682,47.4609077 149.358682,46.3221128 L149.358682,26.673741 L149.358682,26.6714724 L150.000458,19.2345214 L150.000458,30.0296321 C150.000458,30.9566989 150.67738,31.7053091 151.497173,31.7053091 C152.326135,31.7053091 153,30.9566989 153,30.0296321 L152.491927,17.9520538 Z M142.4741,11.2175864 L142.702542,11.0724014 C143.262568,12.3336962 144.308511,13.4104851 145.507258,13.4104851 C146.699129,13.4104851 147.734376,12.3420141 148.302806,11.0988674 L148.516732,11.2175864 C148.692457,11.2342222 148.855957,11.088281 148.871237,10.8757967 L148.987368,9.56686306 C149.002649,9.38084476 148.893394,9.22431717 148.751286,9.1857524 C148.739826,7.41857857 147.289716,6 145.507258,6 C143.725564,6 142.280803,7.41857857 142.263994,9.17743451 C142.102786,9.21070608 141.992003,9.36950218 142.012632,9.56686306 L142.127235,10.8757967 C142.144043,11.088281 142.303723,11.2342222 142.4741,11.2175864 L142.4741,11.2175864 Z" id="Fill-13" fill="#AAAAAA"></path>
                <path d="M133.95417,28.6700616 L129.908476,17.0068619 L129.847588,16.8092061 C129.496203,15.3267878 128.460388,14.2600501 126.873654,14.2600501 L121.596278,14.2600501 C119.951591,14.2600501 118.895969,15.4082642 118.58053,16.9638604 L115.032936,28.6610087 C114.86568,29.5753553 115.35131,30.429349 116.129638,30.5787224 C116.907967,30.726587 117.653284,30.1004256 117.820541,29.2004128 L120.581737,18.6477066 L117.767723,37.8142819 C117.765522,37.8286157 117.776526,37.8414407 117.790464,37.8414407 L120.476101,37.8414407 C120.489306,37.8414407 120.499576,37.8527568 120.499576,37.8655818 L120.499576,46.210126 C120.499576,47.0980682 121.118717,47.9173589 121.979207,47.9935545 C122.940931,48.0795574 123.744935,47.2934607 123.744935,46.32027 L123.744935,37.8414407 L124.672914,37.8414407 L124.672914,46.213898 C124.672914,47.1018402 125.29499,47.9196221 126.155479,47.9935545 C127.119404,48.0780485 127.924141,47.2919519 127.924141,46.32027 L127.924141,37.8655818 C127.924141,37.8527568 127.934411,37.8414407 127.947616,37.8414407 L131.080737,37.8414407 C131.095408,37.8414407 131.105678,37.8286157 131.103478,37.8135274 L127.913137,18.6507243 L131.149693,29.3301716 C131.344092,30.2241491 132.140027,30.8073091 132.914687,30.6239871 C133.686414,30.4436828 134.152971,29.5663024 133.95417,28.6700616 L133.95417,28.6700616 Z M127.51407,13.6655739 C127.528008,13.6655739 127.539011,13.6542578 127.537544,13.6391695 L127.299131,11.1503664 L127.435577,10.8833048 L127.539745,9.58043636 C127.550749,9.39409675 127.451715,9.23868801 127.31527,9.19493215 C127.304266,7.43489042 125.911931,6 124.195353,6 C122.478775,6 121.08644,7.42960954 121.070301,9.1919145 C120.920651,9.22209096 120.809147,9.38051735 120.825285,9.58043636 L120.933122,10.8833048 L121.065166,11.1503664 L120.827486,13.6391695 C120.826019,13.6542578 120.837756,13.6655739 120.850961,13.6655739 L127.51407,13.6655739 Z" id="Fill-14" fill="#AAAAAA"></path>
                <polygon id="Fill-15" fill="#D8D8D8" points="4 70 51.7361948 44 139.263805 44 187 70"></polygon>
                <path d="M139.433735,43 L51.5662651,43 L2,70 L189,70 L139.433735,43 Z M139.185904,43.96975 L185.19241,69.03025 L5.80759036,69.03025 L51.8140964,43.96975 L139.185904,43.96975 Z" id="Fill-16" fill="#FFFFFF"></path>
                <path d="M55.4919269,29.9520538 C55.4919269,27.9119018 54.3267967,26.2551291 52.2601233,26.2551291 L44.7788417,26.2551291 C42.8856008,26.2551291 41.7472113,27.648754 41.5684307,29.465079 C41.5294657,29.6185819 41.501197,29.7819151 41.501197,29.9520538 L41,42.0296321 C41,42.9566989 41.6601131,43.7053091 42.4715021,43.7053091 C43.2943513,43.7053091 43.9452962,42.9566989 43.9452962,42.0296321 L43.9452962,30.8080404 L44.6359701,38.6714724 C44.6359701,38.6722286 44.6359701,38.6729848 44.6359701,38.673741 L44.6359701,58.3221128 C44.6359701,59.2892567 45.4595834,60.0711385 46.4635053,59.9947651 C47.3612285,59.9267096 48.0159935,59.1108001 48.0159935,58.2192734 L48.0159935,42.4190606 C48.1756736,42.4114989 48.3292416,42.403181 48.4965619,42.403181 C48.6615902,42.403181 48.8243264,42.4114989 48.9748383,42.4190606 L48.9748383,58.2646437 C48.9748383,58.9489793 49.3515,59.6151668 49.9932766,59.8684844 C51.1988998,60.3441166 52.3586818,59.4609077 52.3586818,58.3221128 L52.3586818,38.673741 L52.3586818,38.6714724 L53.0004584,31.2345214 L53.0004584,42.0296321 C53.0004584,42.9566989 53.6773799,43.7053091 54.4979371,43.7053091 C55.3268986,43.7053091 56,42.9566989 56,42.0296321 L55.4919269,29.9520538 Z M45.4740997,23.2175864 L45.7033057,23.0724014 C46.2618041,24.3336962 47.3092752,25.4104851 48.5072582,25.4104851 C49.699129,25.4104851 50.7343758,24.3420141 51.3028065,23.0988674 L51.516732,23.2175864 C51.6932206,23.2342222 51.8567208,23.088281 51.8712372,22.8757967 L51.9881322,21.5668631 C52.0026486,21.3808448 51.8941578,21.2243172 51.7512861,21.1857524 C51.7398258,19.4185786 50.2897163,18 48.5072582,18 C46.7255641,18 45.2808027,19.4185786 45.2639943,21.1774345 C45.1027861,21.2107061 44.9920033,21.3695022 45.0126318,21.5668631 L45.1272348,22.8757967 C45.1448072,23.088281 45.3037233,23.2342222 45.4740997,23.2175864 L45.4740997,23.2175864 Z" id="Fill-17" fill="#7C7C7C"></path>
                <path d="M35.9544597,40.6700616 L31.9087501,29.0068619 L31.8471291,28.8092061 C31.4964765,27.3267878 30.4606574,26.2600501 28.8739177,26.2600501 L23.5965223,26.2600501 C21.9518295,26.2600501 20.8962037,27.4082642 20.5807631,28.9638604 L17.0331562,40.6610087 C16.8651657,41.5753553 17.3515312,42.429349 18.1298626,42.5787224 C18.9081941,42.726587 19.6535143,42.1004256 19.8207712,41.2004128 L22.5819772,30.6477066 L19.7679532,49.8142819 C19.7657525,49.8286157 19.7760226,49.8414407 19.7906943,49.8414407 L22.4756077,49.8414407 C22.4888122,49.8414407 22.4998159,49.8527568 22.4998159,49.8655818 L22.4998159,58.210126 C22.4998159,59.0980682 23.1189599,59.9173589 23.9794526,59.9935545 C24.9411798,60.0795574 25.7451866,59.2934607 25.7451866,58.32027 L25.7451866,49.8414407 L26.673169,49.8414407 L26.673169,58.213898 C26.673169,59.1018402 27.2945137,59.9196221 28.1550064,59.9935545 C29.1196679,60.0780485 29.9236748,59.2919519 29.9236748,58.32027 L29.9236748,49.8655818 C29.9236748,49.8527568 29.9346785,49.8414407 29.947883,49.8414407 L33.0810155,49.8414407 C33.0949536,49.8414407 33.1059573,49.8286157 33.1037566,49.8135274 L29.9134046,30.6507243 L33.1499723,41.3301716 C33.3443718,42.2241491 34.1403092,42.8073091 34.9149728,42.6239871 C35.6859684,42.4436828 36.1525271,41.5663024 35.9544597,40.6700616 L35.9544597,40.6700616 Z M29.5143355,25.6655739 C29.5282736,25.6655739 29.5385438,25.6542578 29.5378102,25.6391695 L29.2986621,23.1503664 L29.4358421,22.8833048 L29.5400109,21.5804364 C29.5510147,21.3940968 29.451981,21.238688 29.3155346,21.1949321 C29.3045308,19.4348904 27.9121905,18 26.1956065,18 C24.4790226,18 23.0866822,19.4296095 23.0705434,21.1919145 C22.9208925,21.222091 22.8093879,21.3805173 22.8255267,21.5804364 L22.9333634,22.8833048 L23.0646747,23.1503664 L22.8277275,25.6391695 C22.8262603,25.6542578 22.837264,25.6655739 22.8512021,25.6655739 L29.5143355,25.6655739 Z" id="Fill-18" fill="#7C7C7C"></path>
                <path d="M97.4919269,29.9520538 C97.4919269,27.9119018 96.3267967,26.2551291 94.2601233,26.2551291 L86.7780777,26.2551291 C84.8856008,26.2551291 83.7464473,27.648754 83.5684307,29.465079 C83.5294657,29.6185819 83.501197,29.7819151 83.501197,29.9520538 L83,42.0296321 C83,42.9566989 83.6601131,43.7053091 84.4715021,43.7053091 C85.2943513,43.7053091 85.9452962,42.9566989 85.9452962,42.0296321 L85.9452962,30.8080404 L86.6359701,38.6714724 L86.6359701,38.673741 L86.6359701,58.3221128 C86.6359701,59.2892567 87.4595834,60.0711385 88.4635053,59.9947651 C89.3612285,59.9267096 90.0159935,59.1108001 90.0159935,58.2192734 L90.0159935,42.4190606 C90.1756736,42.4114989 90.3292416,42.403181 90.4965619,42.403181 C90.6615902,42.403181 90.8243264,42.4114989 90.9748383,42.4190606 L90.9748383,58.2646437 C90.9748383,58.9489793 91.3515,59.6151668 91.9932766,59.8684844 C93.1988998,60.3441166 94.3586818,59.4609077 94.3586818,58.3221128 L94.3586818,38.673741 L94.3586818,38.6714724 L95.0004584,31.2345214 L95.0004584,42.0296321 C95.0004584,42.9566989 95.6773799,43.7053091 96.4979371,43.7053091 C97.3268986,43.7053091 98,42.9566989 98,42.0296321 L97.4919269,29.9520538 Z M87.4740997,23.2175864 L87.7033057,23.0724014 C88.2618041,24.3336962 89.3092752,25.4104851 90.5072582,25.4104851 C91.699129,25.4104851 92.7343758,24.3420141 93.3028065,23.0988674 L93.516732,23.2175864 C93.6932206,23.2342222 93.8559568,23.088281 93.8712372,22.8757967 L93.9873682,21.5668631 C94.0026486,21.3808448 93.8941578,21.2243172 93.7512861,21.1857524 C93.7398258,19.4185786 92.2897163,18 90.5072582,18 C88.7255641,18 87.2808027,19.4185786 87.2639943,21.1774345 C87.1027861,21.2107061 86.9920033,21.3695022 87.0126318,21.5668631 L87.1272348,22.8757967 C87.1440432,23.088281 87.3037233,23.2342222 87.4740997,23.2175864 L87.4740997,23.2175864 Z" id="Fill-19" fill="#7C7C7C"></path>
                <path d="M79.9544592,40.6700616 L75.9087027,29.0068619 L75.8478146,28.8092061 C75.4964243,27.3267878 74.4613268,26.2600501 72.8738351,26.2600501 L67.5963786,26.2600501 C65.9524003,26.2600501 64.8967623,27.4082642 64.581318,28.9638604 L61.0329364,40.6610087 C60.8656776,41.5753553 61.3513151,42.429349 62.1296556,42.5787224 C62.907996,42.726587 63.6533249,42.1004256 63.8213173,41.2004128 L66.5825553,30.6477066 L63.7677651,49.8142819 C63.7655644,49.8286157 63.7765682,49.8414407 63.7905065,49.8414407 L66.4761846,49.8414407 C66.4893892,49.8414407 66.4996595,49.8527568 66.4996595,49.8655818 L66.4996595,58.210126 C66.4996595,59.0980682 67.1195442,59.9173589 67.9793133,59.9935545 C68.9410516,60.0795574 69.7450678,59.2934607 69.7450678,58.32027 L69.7450678,49.8414407 L70.6730609,49.8414407 L70.6730609,58.213898 C70.6730609,59.1018402 71.2951464,59.9196221 72.1556491,59.9935545 C73.1195882,60.0780485 73.9243379,59.2919519 73.9243379,58.32027 L73.9243379,49.8655818 C73.9243379,49.8527568 73.9346082,49.8414407 73.9478129,49.8414407 L77.0809817,49.8414407 C77.0956535,49.8414407 77.1066574,49.8286157 77.103723,49.8135274 L73.9133341,30.6507243 L77.1499393,41.3301716 C77.344341,42.2241491 78.1410213,42.8073091 78.9149602,42.6239871 C79.6859647,42.4436828 80.1525289,41.5663024 79.9544592,40.6700616 L79.9544592,40.6700616 Z M73.5142604,25.6655739 C73.5281986,25.6655739 73.5392025,25.6542578 73.5377353,25.6391695 L73.2993181,23.1503664 L73.4357661,22.8833048 L73.5406697,21.5804364 C73.5509399,21.3940968 73.4519051,21.238688 73.3154571,21.1949321 C73.3044532,19.4348904 71.9120968,18 70.1954929,18 C68.4788891,18 67.0865326,19.4296095 67.0703936,21.1919145 C66.9207409,21.222091 66.809235,21.3805173 66.8253741,21.5804364 L66.933212,22.8833048 L67.0652584,23.1503664 L66.8275748,25.6391695 C66.8268412,25.6542578 66.8378451,25.6655739 66.8510498,25.6655739 L73.5142604,25.6655739 Z" id="Fill-20" fill="#7C7C7C"></path>
                <path d="M141.491927,29.9520538 C141.491927,27.9119018 140.326797,26.2551291 138.260123,26.2551291 L130.778842,26.2551291 C128.885601,26.2551291 127.746447,27.648754 127.568431,29.465079 C127.529466,29.6185819 127.501197,29.7819151 127.501197,29.9520538 L127,42.0296321 C127,42.9566989 127.660113,43.7053091 128.471502,43.7053091 C129.294351,43.7053091 129.945296,42.9566989 129.945296,42.0296321 L129.945296,30.8080404 L130.635206,38.6714724 C130.63597,38.6722286 130.63597,38.6729848 130.63597,38.673741 L130.63597,58.3221128 C130.63597,59.2892567 131.458819,60.0711385 132.463505,59.9947651 C133.361229,59.9267096 134.015993,59.1108001 134.015993,58.2192734 L134.015993,42.4190606 C134.175674,42.4114989 134.329242,42.403181 134.496562,42.403181 C134.66159,42.403181 134.824326,42.4114989 134.974838,42.4190606 L134.974838,58.2646437 C134.974838,58.9489793 135.3515,59.6151668 135.993277,59.8684844 C137.1989,60.3441166 138.358682,59.4609077 138.358682,58.3221128 L138.358682,38.673741 L138.358682,38.6714724 L139.000458,31.2345214 L139.000458,42.0296321 C139.000458,42.9566989 139.67738,43.7053091 140.497173,43.7053091 C141.326135,43.7053091 142,42.9566989 142,42.0296321 L141.491927,29.9520538 Z M131.4741,23.2175864 L131.702542,23.0724014 C132.262568,24.3336962 133.308511,25.4104851 134.507258,25.4104851 C135.699129,25.4104851 136.734376,24.3420141 137.302806,23.0988674 L137.516732,23.2175864 C137.692457,23.2342222 137.855957,23.088281 137.871237,22.8757967 L137.987368,21.5668631 C138.002649,21.3808448 137.893394,21.2243172 137.751286,21.1857524 C137.739826,19.4185786 136.289716,18 134.507258,18 C132.725564,18 131.280803,19.4185786 131.263994,21.1774345 C131.102786,21.2107061 130.992003,21.3695022 131.012632,21.5668631 L131.127235,22.8757967 C131.144043,23.088281 131.303723,23.2342222 131.4741,23.2175864 L131.4741,23.2175864 Z" id="Fill-21" fill="#7C7C7C"></path>
                <path d="M121.954459,40.6700616 L117.908703,29.0068619 L117.847815,28.8092061 C117.496424,27.3267878 116.460593,26.2600501 114.873835,26.2600501 L109.596379,26.2600501 C107.951667,26.2600501 106.896029,27.4082642 106.580584,28.9638604 L103.032936,40.6610087 C102.865678,41.5753553 103.351315,42.429349 104.129656,42.5787224 C104.907996,42.726587 105.653325,42.1004256 105.820584,41.2004128 L108.581822,30.6477066 L105.767765,49.8142819 C105.765564,49.8286157 105.776568,49.8414407 105.790506,49.8414407 L108.476185,49.8414407 C108.489389,49.8414407 108.499659,49.8527568 108.499659,49.8655818 L108.499659,58.210126 C108.499659,59.0980682 109.118811,59.9173589 109.979313,59.9935545 C110.941052,60.0795574 111.745068,59.2934607 111.745068,58.32027 L111.745068,49.8414407 L112.673061,49.8414407 L112.673061,58.213898 C112.673061,59.1018402 113.295146,59.9196221 114.155649,59.9935545 C115.119588,60.0780485 115.924338,59.2919519 115.924338,58.32027 L115.924338,49.8655818 C115.924338,49.8527568 115.934608,49.8414407 115.947813,49.8414407 L119.080982,49.8414407 C119.095654,49.8414407 119.106657,49.8286157 119.103723,49.8135274 L115.913334,30.6507243 L119.149939,41.3301716 C119.344341,42.2241491 120.141021,42.8073091 120.91496,42.6239871 C121.685965,42.4436828 122.152529,41.5663024 121.954459,40.6700616 L121.954459,40.6700616 Z M115.51426,25.6655739 C115.528199,25.6655739 115.539202,25.6542578 115.537735,25.6391695 L115.299318,23.1503664 L115.435766,22.8833048 L115.539936,21.5804364 C115.55094,21.3940968 115.451905,21.238688 115.315457,21.1949321 C115.304453,19.4348904 113.912097,18 112.195493,18 C110.478889,18 109.086533,19.4296095 109.070394,21.1919145 C108.920741,21.222091 108.809235,21.3805173 108.825374,21.5804364 L108.933212,22.8833048 L109.065258,23.1503664 L108.827575,25.6391695 C108.826108,25.6542578 108.837845,25.6655739 108.85105,25.6655739 L115.51426,25.6655739 Z" id="Fill-22" fill="#7C7C7C"></path>
                <path d="M164.954461,40.6700616 L160.90812,29.0068619 L160.847234,28.8092061 C160.49659,27.3267878 159.460797,26.2600501 157.874098,26.2600501 L152.596102,26.2600501 C150.952184,26.2600501 149.896585,27.4082642 149.581152,28.9638604 L146.032902,40.6610087 C145.865649,41.5753553 146.352002,42.429349 147.12958,42.5787224 C147.907892,42.726587 148.653193,42.1004256 148.82118,41.2004128 L151.582316,30.6477066 L148.767629,49.8142819 C148.766162,49.8286157 148.776432,49.8414407 148.791104,49.8414407 L151.475949,49.8414407 C151.489153,49.8414407 151.499423,49.8527568 151.499423,49.8655818 L151.499423,58.210126 C151.499423,59.0980682 152.119285,59.9173589 152.979756,59.9935545 C153.940725,60.0795574 154.745446,59.2934607 154.745446,58.32027 L154.745446,49.8414407 L155.673404,49.8414407 L155.673404,58.213898 C155.673404,59.1018402 156.294733,59.9196221 157.155204,59.9935545 C158.119842,60.0780485 158.923828,59.2919519 158.923828,58.32027 L158.923828,49.8655818 C158.923828,49.8527568 158.934098,49.8414407 158.948036,49.8414407 L162.080356,49.8414407 C162.095027,49.8414407 162.10603,49.8286157 162.103096,49.8135274 L158.913558,30.6507243 L162.150044,41.3301716 C162.343705,42.2241491 163.140356,42.8073091 163.915,42.6239871 C164.685976,42.4436828 165.152523,41.5663024 164.954461,40.6700616 L164.954461,40.6700616 Z M158.514499,25.6655739 C158.527703,25.6655739 158.538707,25.6542578 158.537973,25.6391695 L158.298831,23.1503664 L158.435274,22.8833048 L158.540174,21.5804364 C158.551177,21.3940968 158.452146,21.238688 158.31497,21.1949321 C158.3047,19.4348904 156.911661,18 155.19512,18 C153.47858,18 152.086275,19.4296095 152.07087,21.1919145 C151.920489,21.222091 151.808987,21.3805173 151.825859,21.5804364 L151.933693,22.8833048 L152.065001,23.1503664 L151.827326,25.6391695 C151.826593,25.6542578 151.837596,25.6655739 151.851534,25.6655739 L158.514499,25.6655739 Z" id="Fill-23" fill="#7C7C7C"></path>
                <path d="M43.4581763,35.8052374 C43.4581763,33.6192149 42.2155237,31.8444763 40.0105501,31.8444763 L32.0301432,31.8444763 C30.0113037,31.8444763 28.7965335,33.3375341 28.6066315,35.2845775 C28.564431,35.4478924 28.5342879,35.6231937 28.5342879,35.8052374 L28,48.745322 C28,49.7394453 28.7045968,50.541786 29.5689525,50.541786 C30.4476262,50.541786 31.1416729,49.7394453 31.1416729,48.745322 L31.1416729,36.7229473 L31.8779201,45.1493973 L31.8779201,66.2012885 C31.8779201,67.190917 32.6782216,68 33.682743,68 C34.6737001,68 35.483798,67.190917 35.483798,66.2012885 L35.483798,49.1633482 C35.654107,49.1543584 35.8183873,49.1453686 35.9962321,49.1453686 C36.1725697,49.1453686 36.3466466,49.1543584 36.5064054,49.1633482 L36.5064054,66.2012885 C36.5064054,67.190917 37.317257,68 38.3112283,68 C39.3036925,68 40.1160512,67.190917 40.1160512,66.2012885 L40.1160512,45.1493973 L40.801055,37.1799294 L40.801055,48.745322 C40.801055,49.7394453 41.5229842,50.541786 42.3971364,50.541786 C43.2818387,50.541786 44,49.7394453 44,48.745322 L43.4581763,35.8052374 Z M32.772419,28.5901645 L33.0165787,28.4350902 C33.6134137,29.7858094 34.729465,30.9395019 36.0082894,30.9395019 C37.2788244,30.9395019 38.383572,29.7947992 38.9894499,28.4628088 L39.2177845,28.5901645 C39.4061794,28.6081441 39.5802562,28.4515716 39.5960814,28.2230805 L39.720422,26.8221682 C39.7362472,26.6213958 39.6201959,26.4550842 39.4679729,26.4131318 C39.4559156,24.5207765 37.9095705,23 36.0082894,23 C34.1070083,23 32.5659382,24.5207765 32.5486059,26.404142 C32.3760362,26.4401012 32.2584778,26.6101585 32.2803316,26.8221682 L32.4024115,28.2230805 C32.4204974,28.4515716 32.5908063,28.6081441 32.772419,28.5901645 L32.772419,28.5901645 Z" id="Fill-24" fill="#565656"></path>
                <path d="M23.9496724,47.2885497 L19.4783385,34.7926189 L19.4108637,34.5811022 C19.0225084,32.9928581 17.877685,31.8508172 16.1240884,31.8508172 L10.2912618,31.8508172 C8.47318926,31.8508172 7.30662394,33.0795575 6.95800384,34.747027 L3.03621517,47.2795808 C2.85178389,48.259434 3.38933359,49.1742626 4.24926316,49.3342081 C5.10919274,49.4919114 5.93313572,48.8214855 6.11831672,47.8580753 L9.17042945,36.5512723 L6.05459047,57.115483 L9.07896353,57.115483 L9.07896353,66.1994918 C9.07896353,67.1898087 9.88716238,68 10.8722953,68 C11.863426,68 12.6663768,67.1898087 12.6663768,66.1994918 L12.6663768,57.115483 L13.6912449,57.115483 L13.6912449,66.1994918 C13.6912449,67.1898087 14.4956952,68 15.4845767,68 C16.4802057,68 17.2846559,67.1898087 17.2846559,66.1994918 L17.2846559,57.115483 L20.8045944,57.115483 L17.2726604,36.5542619 L20.8503273,47.996346 C21.0647474,48.9545243 21.9449195,49.5786108 22.8011004,49.3827897 C23.6527831,49.1892107 24.1685909,48.2497176 23.9496724,47.2885497 L23.9496724,47.2885497 Z M16.8603141,31.2132773 L16.5934135,28.5181205 L16.7448571,28.2318629 L16.8603141,26.8364503 C16.8723096,26.6368921 16.7628504,26.4702199 16.6114068,26.4223857 C16.5994113,24.5374203 15.0609845,23 13.1634416,23 C11.2666484,23 9.72747189,24.531441 9.70947859,26.4193961 C9.54454005,26.4522821 9.42083615,26.6219439 9.43882944,26.8364503 L9.55878474,28.2318629 L9.70423055,28.5181205 L9.43882944,31.2132773 L16.8603141,31.2132773 Z" id="Fill-25" fill="#565656"></path>
                <path d="M87.4581763,35.8052374 C87.4581763,33.6192149 86.2155237,31.8444763 84.0105501,31.8444763 L76.0301432,31.8444763 C74.0113037,31.8444763 72.7965335,33.3375341 72.6066315,35.2845775 C72.564431,35.4478924 72.5342879,35.6231937 72.5342879,35.8052374 L72,48.745322 C72,49.7394453 72.7045968,50.541786 73.5689525,50.541786 C74.4476262,50.541786 75.1416729,49.7394453 75.1416729,48.745322 L75.1416729,36.7229473 L75.8779201,45.1493973 L75.8779201,66.2012885 C75.8779201,67.190917 76.6782216,68 77.6834966,68 C78.6737001,68 79.483798,67.190917 79.483798,66.2012885 L79.483798,49.1633482 C79.654107,49.1543584 79.8183873,49.1453686 79.9962321,49.1453686 C80.1725697,49.1453686 80.3466466,49.1543584 80.5064054,49.1633482 L80.5064054,66.2012885 C80.5064054,67.190917 81.317257,68 82.3112283,68 C83.3036925,68 84.1160512,67.190917 84.1160512,66.2012885 L84.1160512,45.1493973 L84.801055,37.1799294 L84.801055,48.745322 C84.801055,49.7394453 85.5229842,50.541786 86.39789,50.541786 C87.2818387,50.541786 88,49.7394453 88,48.745322 L87.4581763,35.8052374 Z M76.772419,28.5901645 L77.0173323,28.4350902 C77.6134137,29.7858094 78.729465,30.9395019 80.0082894,30.9395019 C81.2788244,30.9395019 82.383572,29.7947992 82.9894499,28.4628088 L83.2177845,28.5901645 C83.4061794,28.6081441 83.5802562,28.4515716 83.5960814,28.2230805 L83.720422,26.8221682 C83.7362472,26.6213958 83.6201959,26.4550842 83.4679729,26.4131318 C83.4559156,24.5207765 81.9095705,23 80.0082894,23 C78.1070083,23 76.5666918,24.5207765 76.5486059,26.404142 C76.3760362,26.4401012 76.2584778,26.6101585 76.2803316,26.8221682 L76.4024115,28.2230805 C76.4204974,28.4515716 76.5908063,28.6081441 76.772419,28.5901645 L76.772419,28.5901645 Z" id="Fill-26" fill="#565656"></path>
                <path d="M67.9496713,47.2885497 L63.4782333,34.7926189 L63.4107568,34.5811022 C63.0223925,32.9928581 61.8775424,31.8508172 60.123905,31.8508172 L54.2909426,31.8508172 C52.4728277,31.8508172 51.3062353,33.0795575 50.9583568,34.747027 L47.0364768,47.2795808 C46.8512915,48.259434 47.3888537,49.1742626 48.2488033,49.3342081 C49.1087529,49.4919114 49.9327151,48.8214855 50.1179004,47.8580753 L53.1700842,36.5512723 L50.0541726,57.115483 L53.0786161,57.115483 L53.0786161,66.1994918 C53.0786161,67.1898087 53.8868338,68 54.8719897,68 C55.8631434,68 56.6661129,67.1898087 56.6661129,66.1994918 L56.6661129,57.115483 L57.6910049,57.115483 L57.6910049,66.1994918 C57.6910049,67.1898087 58.4954739,68 59.4843784,68 C60.4800306,68 61.2844996,67.1898087 61.2844996,66.1994918 L61.2844996,57.115483 L64.80452,57.115483 L61.2725038,36.5542619 L64.850254,47.996346 C65.0646791,48.9545243 65.9448716,49.5786108 66.8010725,49.3827897 C67.652775,49.1892107 68.1685948,48.2497176 67.9496713,47.2885497 L67.9496713,47.2885497 Z M60.8601478,31.2132773 L60.5932411,28.5181205 L60.7454379,28.2318629 L60.8601478,26.8364503 C60.8728934,26.6368921 60.7634316,26.4702199 60.6112348,26.4223857 C60.5999887,24.5374203 59.0607764,23 57.163939,23 C55.2663519,23 53.7271396,24.531441 53.7091459,26.4193961 C53.5442035,26.4522821 53.4212464,26.6219439 53.4392401,26.8364503 L53.5584485,28.2318629 L53.7038977,28.5181205 L53.4392401,31.2132773 L60.8601478,31.2132773 Z" id="Fill-27" fill="#565656"></path>
                <path d="M129.457448,35.8052374 C129.457448,33.6192149 128.214854,31.8444763 126.009984,31.8444763 L118.029953,31.8444763 C116.011209,31.8444763 114.796496,33.3375341 114.606603,35.2845775 C114.564404,35.4478924 114.534263,35.6231937 114.534263,35.8052374 L114,48.745322 C114,49.7394453 114.704564,50.541786 115.568879,50.541786 C116.447511,50.541786 117.141525,49.7394453 117.141525,48.745322 L117.141525,36.7229473 L117.877737,45.1493973 L117.877737,66.2012885 C117.877737,67.190917 118.678001,68 119.682475,68 C120.673386,68 121.483446,67.190917 121.483446,66.2012885 L121.483446,49.1633482 C121.653747,49.1543584 121.818019,49.1453686 121.995856,49.1453686 C122.172185,49.1453686 122.3455,49.1543584 122.506005,49.1633482 L122.506005,66.2012885 C122.506005,67.190917 123.316818,68 124.310743,68 C125.30316,68 126.115481,67.190917 126.115481,66.2012885 L126.115481,45.1493973 L126.800452,37.1799294 L126.800452,48.745322 C126.800452,49.7394453 127.522347,50.541786 128.396458,50.541786 C129.281119,50.541786 130,49.7394453 130,48.745322 L129.457448,35.8052374 Z M118.772194,28.5901645 L119.016342,28.4350902 C119.613149,29.7858094 120.729148,30.9395019 122.007912,30.9395019 C123.278387,30.9395019 124.383083,29.7947992 124.988932,28.4628088 L125.217256,28.5901645 C125.405642,28.6081441 125.579711,28.4515716 125.595535,28.2230805 L125.71987,26.8221682 C125.735694,26.6213958 125.619649,26.4550842 125.467433,26.4131318 C125.455376,24.5207765 123.909104,23 122.007912,23 C120.106721,23 118.565723,24.5207765 118.548392,26.404142 C118.37583,26.4401012 118.258277,26.6101585 118.28013,26.8221682 L118.402204,28.2230805 C118.420289,28.4515716 118.59059,28.6081441 118.772194,28.5901645 L118.772194,28.5901645 Z" id="Fill-28" fill="#565656"></path>
                <path d="M110.949673,47.2885497 L106.478346,34.7926189 L106.410871,34.5811022 C106.022517,32.9928581 104.877695,31.8508172 103.124101,31.8508172 L97.2912842,31.8508172 C95.4732146,31.8508172 94.3066512,33.0795575 93.9580317,34.747027 L90.0362494,47.2795808 C89.8518185,48.259434 90.3886176,49.1742626 91.2492954,49.3342081 C92.1092236,49.4919114 92.9331653,48.8214855 93.118346,47.8580753 L96.1704537,36.5512723 L93.0546198,57.115483 L96.0789879,57.115483 L96.0789879,66.1994918 C96.0789879,67.1898087 96.8871855,68 97.8723168,68 C98.8634458,68 99.6656456,67.1898087 99.6656456,66.1994918 L99.6656456,57.115483 L100.691262,57.115483 L100.691262,66.1994918 C100.691262,67.1898087 101.495711,68 102.484591,68 C103.480218,68 104.284667,67.1898087 104.284667,66.1994918 L104.284667,57.115483 L107.8046,57.115483 L104.272671,36.5542619 L107.850332,47.996346 C108.064752,48.9545243 108.944923,49.5786108 109.801102,49.3827897 C110.652784,49.1892107 111.168591,48.2497176 110.949673,47.2885497 L110.949673,47.2885497 Z M103.860326,31.2132773 L103.593426,28.5181205 L103.744869,28.2318629 L103.860326,26.8364503 C103.872321,26.6368921 103.762862,26.4702199 103.611419,26.4223857 C103.599423,24.5374203 102.060999,23 100.163459,23 C98.2666692,23 96.7274952,24.531441 96.709502,26.4193961 C96.5445637,26.4522821 96.42086,26.6219439 96.4388532,26.8364503 L96.5588083,28.2318629 L96.7042539,28.5181205 L96.4388532,31.2132773 L103.860326,31.2132773 Z" id="Fill-29" fill="#565656"></path>
                <path d="M174.457448,35.8052374 C174.457448,33.6192149 173.215608,31.8444763 171.010738,31.8444763 L163.030707,31.8444763 C161.011209,31.8444763 159.79725,33.3375341 159.606603,35.2845775 C159.564404,35.4478924 159.535016,35.6231937 159.535016,35.8052374 L159,48.745322 C159,49.7394453 159.705317,50.541786 160.568879,50.541786 C161.447511,50.541786 162.141525,49.7394453 162.141525,48.745322 L162.141525,36.7229473 L162.878491,45.1493973 L162.878491,66.2012885 C162.878491,67.190917 163.678755,68 164.683229,68 C165.674139,68 166.484199,67.190917 166.484199,66.2012885 L166.484199,49.1633482 C166.6545,49.1543584 166.818019,49.1453686 166.996609,49.1453686 C167.172185,49.1453686 167.346253,49.1543584 167.506005,49.1633482 L167.506005,66.2012885 C167.506005,67.190917 168.316818,68 169.311496,68 C170.30316,68 171.115481,67.190917 171.115481,66.2012885 L171.115481,45.1493973 L171.800452,37.1799294 L171.800452,48.745322 C171.800452,49.7394453 172.523101,50.541786 173.397212,50.541786 C174.281873,50.541786 175,49.7394453 175,48.745322 L174.457448,35.8052374 Z M163.772194,28.5901645 L164.017096,28.4350902 C164.613903,29.7858094 165.729902,30.9395019 167.007912,30.9395019 C168.279141,30.9395019 169.383836,29.7947992 169.989686,28.4628088 L170.21801,28.5901645 C170.405642,28.6081441 170.579711,28.4515716 170.596289,28.2230805 L170.71987,26.8221682 C170.736448,26.6213958 170.619649,26.4550842 170.467433,26.4131318 C170.455376,24.5207765 168.909104,23 167.007912,23 C165.107474,23 163.566477,24.5207765 163.548392,26.404142 C163.376584,26.4401012 163.259031,26.6101585 163.280884,26.8221682 L163.402958,28.2230805 C163.421043,28.4515716 163.59059,28.6081441 163.772194,28.5901645 L163.772194,28.5901645 Z" id="Fill-30" fill="#565656"></path>
                <path d="M154.949673,47.2885497 L150.478394,34.7926189 L150.41092,34.5811022 C150.02257,32.9928581 148.87776,31.8508172 147.124186,31.8508172 L141.291431,31.8508172 C139.473381,31.8508172 138.30758,33.0795575 137.958964,34.747027 L134.036474,47.2795808 C133.851295,48.259434 134.388838,49.1742626 135.249507,49.3342081 C136.109426,49.4919114 136.934108,48.8214855 137.118537,47.8580753 L140.170612,36.5512723 L137.054812,57.115483 L140.079148,57.115483 L140.079148,66.1994918 C140.079148,67.1898087 140.886587,68 141.872457,68 C142.864325,68 143.665767,67.1898087 143.665767,66.1994918 L143.665767,57.115483 L144.691372,57.115483 L144.691372,66.1994918 C144.691372,67.1898087 145.495812,68 146.485431,68 C147.480298,68 148.284739,67.1898087 148.284739,66.1994918 L148.284739,57.115483 L151.804634,57.115483 L148.272743,36.5542619 L151.850366,47.996346 C152.064784,48.9545243 152.944945,49.5786108 153.801115,49.3827897 C154.652787,49.1892107 155.168589,48.2497176 154.949673,47.2885497 L154.949673,47.2885497 Z M147.860402,31.2132773 L147.593505,28.5181205 L147.745696,28.2318629 L147.860402,26.8364503 C147.873147,26.6368921 147.76294,26.4702199 147.612248,26.4223857 C147.599503,24.5374203 146.061095,23 144.163575,23 C142.266805,23 140.727648,24.531441 140.709655,26.4193961 C140.544718,26.4522821 140.421016,26.6219439 140.439759,26.8364503 L140.558963,28.2318629 L140.703657,28.5181205 L140.439759,31.2132773 L147.860402,31.2132773 Z" id="Fill-31" fill="#565656"></path>
            </g>
        </g>
    </g>
</svg>