<?xml version="1.0" encoding="UTF-8"?>
<svg width="218px" height="119px" viewBox="0 0 218 119" version="1.1" xmlns="http://www.w3.org/2000/svg" xmlns:xlink="http://www.w3.org/1999/xlink">
    <!-- Generator: Sketch 59.1 (86144) - https://sketch.com -->
    <title>Total Population</title>
    <desc>Created with Sketch.</desc>
    <defs>
        <polygon id="path-1" points="0.00015 0.66 216.10725 0.66 216.10725 118.9512 0.00015 118.9512"></polygon>
    </defs>
    <g id="Export-Outlined-SVG" stroke="none" stroke-width="1" fill="none" fill-rule="evenodd">
        <g id="5" transform="translate(-547.000000, -1035.000000)">
            <g id="Total-Population" transform="translate(547.000000, 1035.000000)">
                <g id="Group-3" transform="translate(1.000000, 0.000000)">
                    <mask id="mask-2" fill="white">
                        <use xlink:href="#path-1"></use>
                    </mask>
                    <g id="Clip-2"></g>
                    <path d="M205.85865,28.4727 C205.83765,28.54095 205.8144,28.6287 205.7979,28.7322 C205.8144,28.64445 205.83765,28.56045 205.83765,28.49745 C205.8144,28.53645 205.7979,28.56045 205.77615,28.61445 C205.8144,28.54095 205.8144,28.4727 205.85865,28.42395 L205.85865,28.4727 Z M180.49065,60.32145 C180.5514,60.4092 180.5904,60.44295 180.6519,60.51195 C180.5829,60.42795 180.49065,60.34095 180.4074,60.25845 C180.4254,60.3057 180.4689,60.3057 180.49065,60.32145 L180.49065,60.32145 Z M216.0984,24.5547 L216.0984,24.31095 C216.06765,24.3447 216.03765,24.40395 216.0249,24.4527 C216.0249,24.33045 215.94165,24.25695 215.9109,24.1782 C215.78115,24.46695 215.38065,24.02745 215.71965,23.8512 C215.78115,23.8362 215.82015,23.81745 215.8644,23.78295 L215.8644,23.7777 L215.8644,23.7087 L215.8029,23.68995 L215.74215,23.50845 L215.74215,23.44995 L215.6979,23.41545 L215.6154,23.24895 L215.6154,23.19645 L215.5854,23.1612 L215.4939,22.98945 L215.4939,22.97595 L215.38065,22.97595 L215.32815,22.94145 L215.29815,23.0247 L215.1459,23.09295 L214.88865,23.09295 L214.75815,23.0247 L214.71465,22.94145 L214.6239,22.8972 L214.53165,22.75545 L214.46265,22.5942 L214.46265,22.57395 L214.3884,22.49595 L214.37865,22.4232 L214.27515,22.3737 L214.2279,22.19745 L214.2279,22.06095 L214.27515,21.90495 L214.34865,21.88545 L214.34865,21.8067 L214.3884,21.64545 L214.27515,21.57645 L214.2279,21.40545 L214.2279,21.02445 L214.27515,20.8377 L214.37865,20.73645 L214.0929,20.73645 L213.93915,20.65695 L213.88815,20.61795 L213.7359,20.61795 L213.59265,20.5347 L213.5619,20.44245 L213.46965,20.4072 L213.44865,20.35995 L213.38715,20.35995 L213.2439,20.27595 L213.13065,20.13945 L213.0789,20.04645 L213.00015,20.01195 L212.94765,19.8402 L212.9874,19.7037 L212.94765,19.58145 L212.94765,19.4547 L213.00015,19.2777 L213.0789,19.2432 L213.0474,19.1757 L213.0474,18.92145 L213.0789,18.8532 L213.0474,18.79395 L213.0474,12.9447 C213.0084,12.91545 213.00015,12.8952 212.9874,12.8562 L212.91765,12.8562 L212.7654,12.81195 L212.73015,12.70995 L212.6694,12.6612 L212.6079,12.5682 L212.5479,12.5337 L212.46465,12.3627 L212.46465,12.2997 L212.42565,12.2742 L212.3814,12.1677 L212.3034,12.12795 L212.2734,12.07395 L212.2209,12.07395 L212.06865,12.01545 L212.0259,11.90745 L211.96515,11.8632 L211.93365,11.8197 L211.8729,11.8197 L211.72965,11.7372 L211.6899,11.64795 L211.6074,11.6142 L211.5864,11.5467 L211.5249,11.5467 L211.3599,11.47695 L211.35015,11.42445 L211.2594,11.42445 L211.2594,11.5752 L211.1979,11.7372 L211.05465,11.8197 L210.6984,11.8197 L210.62415,11.80095 L210.58515,11.8197 L210.44115,11.8197 L210.39765,11.8737 L210.3189,11.90745 L210.27615,12.01545 L210.1149,12.07395 L209.7369,12.07395 L209.6844,12.12795 L209.5314,12.2067 L209.4579,12.2067 L209.4579,12.2742 L209.30565,12.3387 L209.0694,12.3387 L208.9179,12.2742 L208.88715,12.2067 L208.8219,12.2067 L208.68315,12.12795 L208.63965,12.07395 L208.5999,12.07395 L208.45665,12.01545 L208.3959,11.83395 L208.3959,11.80545 L208.3344,11.7462 C208.31265,11.73195 208.31265,11.69745 208.31265,11.64795 C208.2909,11.6142 208.2744,11.5992 208.2744,11.5752 L208.2744,11.11095 L208.21365,11.0817 L208.1394,10.9887 L207.97365,10.89045 L207.8514,11.0562 L207.73815,11.2872 L207.7299,11.30595 L207.48615,11.69745 L207.47265,11.7372 L207.2289,11.99595 L207.2289,12.01545 L207.0024,12.2742 L206.79915,12.51495 L206.5629,12.8862 L206.5329,12.91545 L206.30715,13.17495 L206.0934,13.54695 L205.87965,13.9332 L205.63215,14.3292 L205.59315,14.36745 L205.36665,14.62245 L205.17015,14.8422 L204.95715,16.1877 L204.95715,16.2897 L204.89715,16.4712 L204.75315,16.52895 L204.68415,16.52895 L204.67065,16.5987 L204.5874,16.6272 L204.57015,16.72995 L204.49665,16.7352 L204.49665,16.8177 L204.44415,17.00895 L204.28215,17.0577 L204.26115,17.0577 L204.26115,17.2092 L204.2004,17.3412 L204.2439,17.3862 C204.28215,17.40945 204.34365,17.4687 204.3654,17.5077 C204.39615,17.60145 204.3744,17.7132 204.3219,17.79645 L204.26115,17.85045 L204.26115,17.8692 L204.2004,18.04095 L204.1389,18.06045 L204.1389,18.1287 L204.0879,18.28995 L204.2004,18.36345 L204.26115,18.53445 L204.26115,18.92145 L204.2004,19.0677 L204.1179,19.1262 L204.0879,19.22445 L204.01815,19.2432 L203.95665,19.36095 L203.79165,19.41495 L203.76015,19.41495 L203.72115,19.4982 L203.6904,19.50345 L203.72115,19.51845 C203.79165,19.6062 203.79165,19.7037 203.78265,19.7967 C203.76015,19.8747 203.6904,19.90395 203.64765,19.93395 L203.6169,20.01195 L203.54715,20.04645 L203.50365,20.13945 L203.3514,20.20245 L203.29965,20.20245 L203.2599,20.27595 L203.10765,20.35995 L203.03415,20.35995 L203.03415,20.4072 L202.9419,20.44245 L202.9344,20.5347 L202.76865,20.61795 L202.74765,20.61795 L202.74765,20.62245 L202.68615,20.7942 L202.58565,20.8287 C202.58565,20.8827 202.5639,20.9112 202.52565,20.9457 L202.5639,20.98095 L202.58565,21.06345 L202.68615,21.09795 L202.7289,21.21495 L202.79865,21.23895 L202.86015,21.40545 L202.86015,21.5427 L202.79865,21.71895 L202.63365,21.77745 L202.2984,21.77745 L202.13265,21.71895 L202.13265,21.74745 L202.1559,21.8067 L202.1559,21.92895 L202.0719,22.11045 L201.97215,22.23795 L201.9504,22.2672 L201.9504,22.32495 L201.85965,22.49595 L201.7164,22.57395 L201.58065,22.57395 L201.4584,22.49595 L201.38865,22.32495 L201.38865,22.2672 L201.3144,22.23795 L201.2844,22.11045 L201.1929,22.13445 L201.17115,22.23795 L201.0099,22.32045 L200.9889,22.32045 L200.9889,22.32495 L200.92815,22.49595 L200.78415,22.57395 L200.53965,22.57395 L200.39715,22.49595 L200.3229,22.43745 L200.31315,22.43745 L200.1609,22.3737 L200.1399,22.3347 L200.1009,22.3737 L200.0274,22.4232 L200.0049,22.49595 L199.9434,22.5312 L199.9434,22.7262 L199.8834,22.8972 L199.8309,22.92195 L199.8309,22.98945 L199.74015,23.1612 L199.67865,23.19645 L199.6389,23.27895 L199.59615,23.3472 L199.59615,23.50845 C199.59615,23.65545 199.49565,23.76345 199.3914,23.76345 L198.49065,23.76345 L198.3159,23.8512 L198.2079,23.8857 L195.40515,23.8857 L195.24915,23.81745 L195.1869,23.76345 L192.5289,23.76345 L192.1929,23.8512 L192.1404,23.8857 L186.9924,23.8857 L186.91365,23.8512 L186.89265,23.8857 L186.8184,23.8857 L186.81015,23.94945 L186.6489,24.02745 L186.4524,24.02745 L186.44415,24.0717 L186.27915,24.1587 L186.27015,24.1587 L186.2184,24.2127 L186.0744,24.27645 L185.89215,24.27645 L185.86065,24.33045 L185.7864,24.3687 L185.7474,24.46695 L185.59215,24.54045 L185.4609,24.54045 L185.40015,24.5997 L185.3169,24.6387 L185.28615,24.72645 L185.17365,24.8637 C185.1339,24.9027 185.1039,24.9027 185.09115,24.9222 L185.0514,24.98595 L184.8864,25.0782 L184.84665,25.0782 C184.84665,25.11795 184.78515,25.1517 184.74315,25.1757 L184.5684,25.2882 L184.45965,25.38195 L184.1124,25.78695 L184.06815,25.83195 L183.8544,25.9542 L183.82365,25.9977 L183.82365,26.0127 L183.76365,26.18895 L183.6204,26.2572 L183.57615,26.2572 L183.5589,26.29095 L183.4539,26.5017 L183.4149,26.56545 L183.33315,26.6877 L183.2274,26.8932 L183.1194,27.01545 L182.92365,27.1182 L182.83215,27.2307 L182.65815,27.28845 L182.47515,27.28845 L182.39265,27.4257 C182.3484,27.50895 182.31015,27.5682 182.20515,27.5682 L182.0664,27.5682 L182.0664,27.71445 L182.0229,27.8862 L181.84065,27.9582 L181.5744,27.9582 L181.53015,28.02795 L181.40865,28.07745 L181.3479,28.2132 L181.2954,28.2822 L181.0824,28.53645 L180.6294,29.1627 L180.18165,30.0477 L180.18165,30.07245 L179.7204,30.86895 L179.5074,30.96645 L172.4484,30.96645 L171.54765,31.3587 L170.83365,31.7502 L171.15915,32.42445 L171.2604,32.53245 L171.32115,32.70345 L171.32115,33.34845 L171.32115,33.37845 L171.32115,33.3927 C171.36465,33.4362 171.4044,33.4617 171.4164,33.5097 C171.53865,33.5247 171.63015,33.57945 171.6699,33.6672 C171.6909,33.71595 171.6699,33.8382 171.6519,33.9297 L171.7299,33.9942 L171.79515,34.1457 L171.79515,34.4052 L171.79515,34.47345 L171.7209,34.6752 C171.79515,34.8312 171.80415,34.9872 171.63015,35.09445 C170.58615,35.9352 169.53165,36.76245 168.4704,37.5837 C166.6779,39.01695 164.26665,39.1302 162.42165,40.42095 C162.1074,40.62645 161.87265,40.9542 161.5854,41.1792 C160.8804,41.7117 160.1709,41.6577 159.33615,41.7612 C159.00465,41.80995 158.68665,41.98095 158.39115,42.03945 C157.73865,42.1512 156.77715,41.98095 156.1239,41.7507 C156.45015,41.4912 156.79815,41.62395 157.1244,41.4867 C157.45065,41.3502 157.48215,41.36445 157.00215,41.1882 C156.1929,40.8702 155.35365,40.6062 154.5264,40.31295 C154.89165,39.6477 155.2314,38.99745 155.58915,38.3277 L155.58915,38.30295 L155.58915,37.8087 L155.66265,37.65195 L155.7099,37.5837 L155.7099,37.4277 L155.77665,37.2567 L155.9364,37.18245 L155.9499,37.18245 L156.01965,37.13445 L156.1629,37.0512 L156.26265,37.0512 C156.45915,36.68895 156.67215,36.32745 156.84615,35.9802 C157.15515,35.39295 157.48215,35.38395 157.5729,35.9997 L157.6644,35.9997 C157.7994,35.6517 157.92165,35.3097 158.03415,34.9677 L158.03415,34.4052 L158.1084,34.2342 L158.16915,34.18995 L158.16915,34.1457 L158.2299,33.9942 L158.2914,33.9297 L158.2914,33.88245 L158.3124,33.77895 L158.34315,33.6807 C158.3124,33.57945 158.2689,33.4572 158.19915,33.2607 C158.16915,33.06495 158.1084,32.83545 158.0784,32.63445 C158.00415,32.2002 157.98165,31.7787 157.8819,31.3587 C157.73865,30.5712 157.73865,29.47545 157.20765,28.8642 C156.46815,28.02795 155.61015,28.89795 154.85265,29.36295 C154.50465,29.5872 153.12465,30.7377 152.79915,30.35595 C152.6634,30.17895 152.7549,29.8572 152.76915,29.64645 C152.79915,29.47545 152.82915,29.2107 152.9514,29.0202 C153.2169,28.58445 153.79065,28.7862 154.0569,28.38945 C154.20915,28.14495 154.0959,27.8712 154.20915,27.61695 C154.3824,27.2547 154.7709,27.35295 154.9749,27.0492 C155.2014,26.6877 155.2014,25.2597 155.14065,24.8292 C155.0664,24.25695 153.9129,22.97595 155.2014,23.4402 C155.19165,22.9557 154.9749,22.97595 154.85265,22.63845 C154.7919,22.4232 154.8129,22.2027 154.73115,22.08045 C154.5489,21.74745 153.8604,21.55695 153.56415,21.40545 C153.1344,21.23895 152.68665,21.17145 152.30715,20.9862 C151.9284,20.81445 151.86765,20.23695 151.3539,20.1237 C151.0359,20.06595 150.86265,20.15295 150.5664,20.0307 C150.3534,19.90395 150.1659,19.6842 149.92215,19.58595 C149.69565,19.5132 149.05215,19.3812 148.8774,19.58145 C148.59465,19.8747 148.4514,21.48795 149.07315,21.4257 C148.63365,21.7722 147.99915,21.5187 147.55065,21.97845 C147.17115,22.3737 147.3024,22.97595 147.2634,23.54295 C147.22365,24.1782 147.0504,23.5572 146.8149,23.70045 C146.67165,23.7777 146.5149,24.52095 146.4369,24.68745 C146.19615,24.3642 146.4369,24.02745 146.48415,23.67945 C146.4369,23.67945 146.4369,23.7087 146.4054,23.7087 C146.4369,23.50845 146.68815,22.57395 146.39265,22.6572 C146.3229,22.6872 146.0139,23.2152 145.93215,23.30295 C145.86165,23.44995 145.7874,23.78295 145.64865,23.8512 C145.52265,23.94945 145.43115,23.70045 145.3404,23.7477 C145.23915,23.78295 145.19565,23.9337 145.09515,24.0072 C145.0044,24.0417 144.8304,23.98395 144.78615,24.02745 C144.6039,24.27645 144.56115,24.68745 144.3864,24.94695 C144.33915,25.0347 144.14265,25.0197 144.0909,25.11795 C143.55915,25.8807 143.4894,27.28845 143.2119,28.1997 C143.05065,28.69845 143.34615,29.12745 143.39415,29.6667 C143.46765,30.3357 143.18115,31.02045 143.3334,31.69095 C143.4069,32.07795 143.6424,32.89395 144.06015,32.5512 C144.07365,33.11895 144.07365,33.4362 144.1734,33.9117 C144.2124,34.20045 144.1944,34.50345 144.2034,34.78695 C144.23415,36.8412 142.8114,38.52795 141.89265,40.20045 C142.1064,40.20045 142.4679,40.1277 142.6584,40.20045 C142.8849,40.31295 143.05065,40.69995 143.0679,41.0607 C143.05065,40.6452 142.7934,40.26495 142.37115,40.20045 C141.67965,40.1277 141.27015,40.72845 140.6349,40.8657 C140.16465,40.9542 139.4469,40.69995 139.2639,40.2447 C138.7119,38.99745 138.24165,38.0787 138.25815,36.68895 C138.3234,35.5452 138.03615,34.3707 137.9454,33.22095 C137.8929,32.6697 137.97615,32.36145 138.12015,31.8417 C138.34215,30.95745 138.36315,29.9937 138.6069,29.1132 C138.7944,28.3452 139.12065,27.7692 139.2864,26.9907 C139.43715,26.3307 139.62915,25.7532 139.87815,25.1322 C139.93815,24.94695 139.9779,24.62295 139.84665,24.40395 C140.1219,24.62295 140.6349,23.9682 140.7564,23.7237 C141.06615,23.09295 141.06615,22.7892 141.00015,22.06095 C140.8614,22.3347 140.80965,22.5312 140.61315,22.75545 C140.52165,22.8432 140.43915,22.7502 140.2869,22.8972 C140.2434,22.98945 140.25615,23.2437 140.18265,23.3472 C140.1519,23.40645 139.9779,23.48895 139.93815,23.61195 C139.83465,23.78295 139.65915,24.1782 139.83465,24.3642 C139.7949,24.3207 139.7334,24.25695 139.65165,24.25695 C139.42515,24.1692 138.91665,24.46695 138.7329,24.76995 C138.44565,25.2102 138.3939,25.4937 137.8929,25.7442 C137.7279,25.84095 137.8929,26.07195 137.5839,25.9107 C137.34915,25.78695 137.4399,25.73895 137.4399,25.4802 C137.50515,25.18095 137.67615,24.94695 137.8329,24.72645 C137.93265,24.52095 138.0594,24.0417 138.18015,23.89995 C138.25815,23.81745 138.42465,23.89995 138.50715,23.8362 C138.7329,23.5917 138.97665,23.31345 139.0989,22.97595 C139.2639,22.4232 139.62915,22.0122 139.90815,21.5427 C140.08215,21.27345 140.18265,20.98095 140.32665,20.65695 C140.25615,20.65695 140.2044,20.62245 140.16465,20.58345 C140.2434,20.62245 140.32665,20.5647 140.49165,20.44245 C140.98365,20.04645 141.0834,19.41495 141.34815,18.82845 C141.3309,19.22445 141.3789,19.6062 141.34815,19.9917 C141.5964,19.90395 141.8184,19.74195 141.97515,19.5132 C142.00515,19.4742 142.0749,19.16595 142.0884,19.16595 C141.97515,19.2297 142.92465,19.0197 142.86315,18.9507 C143.4594,19.3182 141.78765,20.04645 142.63665,20.44245 C142.8849,20.01195 142.92465,19.8117 143.27265,19.58145 C143.34615,19.53195 143.55915,19.4742 143.62065,19.41495 C143.7249,19.3182 143.7039,19.14195 143.79465,19.0197 C144.1734,18.43695 144.76515,18.43695 145.3404,18.7497 C145.31715,18.3297 146.1579,18.55395 146.4369,18.36345 C146.61015,18.19695 146.6274,17.9427 146.8629,17.85045 C147.05865,17.74695 147.43665,17.85045 147.6504,17.9037 C147.93765,17.9427 148.32465,18.0897 148.56465,18.22695 C148.8384,18.40245 149.29965,19.14195 149.6349,19.1262 C150.00465,19.11195 149.69565,18.2457 150.0654,18.1047 C150.3309,18.00195 150.92265,18.36345 151.2324,18.36345 C151.51965,18.41745 151.82415,18.43695 152.1114,18.4902 C152.27715,18.5202 152.87715,18.7257 152.92065,18.41745 C152.92065,18.41745 152.92065,18.36345 152.8989,18.36345 L152.79915,18.36345 C152.68665,18.36345 152.6244,18.3297 152.59365,18.2457 L152.49915,18.0252 L152.38965,17.9037 L152.38965,17.8842 C152.35965,17.8797 152.3379,17.85045 152.32365,17.85045 C152.3154,17.80095 152.3154,17.79645 152.3379,17.74695 L152.21565,17.6982 L152.1504,17.64495 L152.02815,17.5227 L151.9809,17.3412 L151.9809,17.27745 C151.8984,17.2092 151.84515,17.16045 151.7844,17.0922 C151.84515,17.00895 151.6719,16.3542 151.51965,16.11345 C151.51965,16.0797 151.4889,16.0302 151.4589,16.01145 L151.0359,16.01145 L150.9969,16.15245 C150.94515,16.22145 150.87465,16.2702 150.7839,16.2702 L150.4359,16.2702 L150.2799,16.1877 L149.6559,15.37545 C149.4129,15.31095 149.1654,15.25845 148.9209,15.20445 C148.49115,15.1752 148.73415,14.4852 148.9734,14.27445 C148.40715,14.2362 147.7419,14.44095 147.18915,14.51895 C146.2494,14.67195 145.28715,14.8422 144.33915,14.99895 C144.03015,15.03795 143.7249,15.24795 143.46765,15.39045 C143.2119,15.5367 143.0064,15.80595 142.7934,15.9372 C142.41465,16.12845 142.1064,15.86895 141.67965,15.6837 C141.0744,15.4197 140.43915,15.4977 139.81665,15.3462 C139.81665,15.27195 139.15965,14.3292 139.0164,14.17245 C138.46815,13.51695 137.67615,13.5852 136.8924,13.43295 C136.9404,13.3752 136.9704,13.31595 136.99215,13.27695 C136.56165,13.5072 136.09215,13.87395 135.7959,14.3292 C135.7254,13.94745 135.9309,13.57095 135.88665,13.24245 C135.86565,13.0917 135.66015,12.6807 135.64365,12.6267 C135.4914,12.4947 135.2949,12.2997 135.16065,12.1962 C135.12165,12.15195 135.2514,11.9367 135.12915,11.8632 C134.9859,11.7462 134.27265,12.2742 134.1069,12.35295 C132.9399,12.9642 131.78715,13.5852 130.6299,14.19645 C130.6299,14.19645 130.6299,14.20695 130.60815,14.20695 L130.60815,14.19645 C129.93315,14.5632 129.2499,14.91045 128.57565,15.27195 C128.2584,15.45795 127.21365,14.6907 126.8439,14.5002 C126.6219,14.36745 127.17015,13.92345 127.15215,13.6782 C127.13115,12.8322 125.28915,13.9077 124.9194,14.06445 C124.5324,14.2362 124.14465,14.4657 123.7149,14.5632 C123.19215,14.6907 122.68365,14.4657 122.1474,14.3292 C123.4494,13.14495 124.77615,11.9367 126.0684,10.76295 C126.6219,10.27395 127.0704,9.8397 127.6839,9.5112 C128.7669,8.94945 129.93315,8.49945 131.0994,7.9707 L131.0169,7.93095 L130.95615,7.87845 L130.87365,7.87845 L130.86465,7.93095 L130.7124,8.0097 L130.65165,8.0097 L130.6299,8.06895 L130.46415,8.14245 L130.3209,8.06895 L130.3029,8.0097 L130.1379,8.0097 L129.97665,7.93095 L129.9114,7.75995 L129.9114,7.69695 L129.8724,7.6917 C129.5679,7.6377 129.25965,7.58445 128.93265,7.4817 C129.23715,7.5207 129.50265,7.54095 129.80265,7.58445 L129.72915,7.54095 L129.72015,7.43745 L129.6294,7.4187 L129.58515,7.3497 L129.1674,7.3497 L129.1149,7.4187 L128.9409,7.4817 L128.0094,7.4817 L127.90965,7.4187 L127.7874,7.4817 L127.19115,7.4817 L127.0389,7.4187 L127.0179,7.33545 L126.93465,7.28145 L126.8649,7.1202 L126.8649,7.0422 L126.8124,7.02195 L126.7614,6.8322 L126.7614,6.81645 L126.72165,6.8217 L126.5604,6.8217 L126.5394,6.88995 L126.3954,6.95445 L126.3339,6.95445 L126.31215,7.02195 L126.1299,7.0857 L126.0864,7.0857 L126.05565,7.1442 L125.9124,7.2132 L125.9034,7.2132 L125.84265,7.28145 L125.76015,7.33545 L125.70765,7.4187 L125.6379,7.43745 L125.6079,7.54095 L125.44215,7.61895 L125.1684,7.61895 L125.1459,7.6767 L124.9854,7.74045 L124.1544,7.74045 L124.0014,7.6767 L123.9714,7.50645 L123.9714,7.4817 L123.6924,7.4817 L123.5409,7.4187 L123.4884,7.2372 L123.4884,7.1202 C123.4884,7.0857 123.5094,7.06095 123.5094,7.06095 L123.42765,7.02195 L123.40965,6.95445 L123.1089,6.95445 L122.97915,6.88995 L122.93565,6.8217 L122.76165,6.8217 L122.6094,6.7482 L122.5779,6.66045 L122.5089,6.62595 L122.45715,6.5277 L122.3739,6.4887 L122.3214,6.3177 L122.3214,6.16695 L122.0694,6.16695 C122.03865,6.16695 122.01765,6.1422 122.01765,6.1422 C121.97415,6.1422 121.96515,6.16695 121.93515,6.16695 L121.69065,6.16695 L121.69065,6.4557 C121.69065,6.5472 121.6254,6.62595 121.54665,6.66045 L121.52565,6.7482 L121.3599,6.8217 L121.25115,6.8217 L121.1079,6.7482 L121.06365,6.64995 L120.9729,6.62595 L120.88965,6.4557 L120.88965,6.3912 L120.85965,6.35745 L120.82065,6.2637 C120.75915,6.22995 120.6849,6.16695 120.6849,6.0447 L120.6849,5.74545 L120.62415,5.70195 L120.60315,5.6472 L119.97165,5.6472 L119.80665,5.57445 L119.7369,5.40795 L119.7369,5.12895 L119.7459,5.09445 L119.70615,5.05545 L119.6409,4.9977 L119.5014,4.9977 L119.3364,4.92345 L119.2839,4.86495 L119.2449,4.86495 L119.1099,4.7877 L119.0484,4.71795 L119.0319,4.71795 L118.86615,4.65495 L118.86615,4.61595 L118.8144,4.65495 L118.70115,4.71795 L118.3224,4.71795 L118.17015,4.65495 L118.1484,4.5957 L117.79965,4.5957 L117.76065,4.65495 L117.6174,4.71795 L117.50415,4.71795 C117.49515,4.71795 117.4734,4.7127 117.45615,4.69395 C117.4209,4.7127 117.4134,4.71795 117.3909,4.71795 L117.3519,4.71795 L117.3519,4.87545 L117.31215,5.05545 L117.1689,5.12445 L116.7684,5.12445 L116.71665,5.1882 C116.65515,5.25195 116.57265,5.2707 116.49465,5.2272 L116.4504,5.25195 L115.88115,5.25195 L115.7154,5.1882 L115.6854,5.09445 L115.61115,5.05545 L115.5414,4.87545 L115.5414,4.6692 L115.5024,4.65495 L115.47165,4.5957 L114.46665,4.5957 L114.3054,4.5222 L114.27015,4.4592 L114.1404,4.4592 L113.96565,4.40595 L113.8959,4.2192 L113.8959,4.2057 L113.60865,4.2057 L113.56515,4.2537 L113.4219,4.32795 L113.1789,4.32795 L113.03415,4.2537 L113.00415,4.2057 L112.83015,4.2057 L112.6779,4.1367 L112.64715,4.0437 C112.58715,4.0002 112.55565,3.96495 112.5429,3.9072 L112.4604,3.86295 L112.4214,3.77445 C112.33815,3.7407 112.2774,3.6717 112.2774,3.56445 L112.2774,2.79645 L112.16415,2.4552 L112.16415,2.3802 L112.16415,2.19045 L112.0509,1.9797 L112.0329,1.8627 L112.0329,1.77945 L111.95115,1.58295 L111.91215,1.46595 L111.91215,1.2657 L111.8289,1.05495 L111.80715,0.9432 L111.80715,0.9042 L111.5634,0.75195 C111.5424,0.7332 111.50265,0.7077 111.4809,0.6597 L110.95065,0.6597 L110.95065,2.3802 L110.88465,2.5512 L110.74515,2.62095 L7.29465,2.62095 C7.2639,2.74245 7.2804,2.87895 7.35465,3.1047 C7.4034,3.2562 7.6209,3.4662 7.67265,3.54945 C7.9074,3.9072 7.56765,3.85845 8.28615,3.7407 C8.0994,4.1667 8.50815,4.2192 8.5299,4.5822 C8.5299,4.6692 8.3649,5.0172 8.3259,5.09445 C8.28615,5.15895 8.4384,5.2272 8.3649,5.3052 C8.27265,5.4372 7.9689,5.5107 7.85565,5.5887 C8.03865,5.4612 8.6124,5.9607 8.75565,6.2397 C8.93865,6.64995 8.69565,7.0557 9.0834,7.4667 C9.2484,7.6377 9.43065,7.54095 9.4089,7.75995 C9.4089,7.87845 9.1134,7.98045 9.0519,8.09745 C9.0219,8.1372 8.94765,8.3772 8.93865,8.48445 C8.8869,8.57295 8.7954,8.5917 8.75565,8.74845 C8.71365,8.8812 8.8569,9.03195 8.8389,9.08595 C8.8389,9.16995 8.69565,9.3402 8.69565,9.3987 C8.7039,9.43245 8.75565,9.6192 8.75565,9.6687 C8.75565,9.6477 8.9304,9.89295 8.93865,9.96645 C8.93865,10.0347 8.75565,10.1232 8.74365,10.21995 C8.74365,10.27395 8.8389,10.35795 8.8389,10.4217 C8.8389,10.5492 8.94765,10.7487 8.94765,10.83195 C8.93865,11.19345 8.9304,10.9587 8.77365,11.2527 C8.6124,11.5752 8.3859,11.64795 8.01615,12.02445 C7.56765,12.4557 7.4544,12.4017 6.83265,12.6267 C6.86265,12.6612 6.86265,12.70995 6.86265,12.7437 C6.42315,12.70995 6.5154,12.43545 6.7284,12.12795 C6.5544,12.2307 6.40215,12.4017 6.21915,12.46545 C6.3189,12.2997 6.52365,12.1962 6.62865,12.01545 C6.7104,11.8932 6.66765,11.69745 6.7419,11.5752 C6.88065,11.30595 7.1379,11.35545 7.1379,10.9257 C7.2639,11.35545 7.05465,11.69745 7.31115,12.04545 C7.4244,11.45745 7.4769,11.2872 7.8249,10.92045 L7.8429,10.89045 C7.8249,10.92045 7.8249,10.9257 7.80315,10.9257 L7.8249,10.9257 L7.80315,10.9257 C7.75065,11.11095 7.67265,11.2527 7.6509,11.42445 C8.6739,11.20395 8.1819,9.7512 7.75065,9.1197 C7.85565,9.1932 8.3949,9.14895 8.4384,9.0507 C8.50815,8.84595 8.27265,8.48445 8.24265,8.2107 C8.03865,8.57295 7.67265,8.81145 7.4034,9.2172 C7.1979,9.55095 6.9939,9.55095 6.66765,9.82995 C6.48465,10.00095 6.30165,10.3722 6.20565,10.59645 C6.0969,10.89045 5.91015,10.89045 6.2274,10.9887 C6.42315,11.0427 6.81165,10.81695 6.9939,10.6947 C6.9159,10.7682 6.0324,11.45745 5.9934,11.0952 C5.94015,10.7292 6.21915,10.27395 6.40215,9.99045 C6.57615,9.72645 6.78915,9.5847 6.88065,9.3057 C7.0374,9.0177 6.9549,8.65545 7.1379,8.5332 C7.2204,8.81145 7.1979,9.1107 7.1199,9.3402 C7.31115,9.14895 7.49865,8.7882 7.6509,8.5332 C7.77315,8.2887 7.9554,8.3772 7.7334,8.0742 C7.4859,7.7952 7.1679,7.2372 7.3854,6.9492 C7.2804,7.0422 7.1379,7.61895 7.05465,7.6527 C6.81165,7.75995 6.0534,6.9777 6.0144,6.76245 C5.0709,6.76245 4.1904,7.02195 3.25965,6.8322 C2.13765,6.64995 1.05315,6.0447 0.00015,5.6472 C0.03915,6.35745 0.03015,7.0422 0.21315,7.74045 C0.4569,8.6892 1.05315,9.5112 1.41015,10.3827 C1.53165,10.59645 1.47165,10.8417 1.5459,11.0562 C1.66665,11.47695 1.94115,11.84445 2.0454,12.2742 C2.12865,12.6372 2.13765,12.9837 2.0454,13.34595 C2.32815,12.2307 2.68965,13.21395 3.39465,13.2237 C3.1509,13.35045 2.4414,13.4577 2.5674,13.8447 C2.4639,13.7757 2.32815,13.6977 2.2284,13.5852 C2.2674,13.6977 2.2899,14.15745 2.37165,14.23995 C2.57715,14.5827 3.2424,14.1387 3.3729,14.67195 C3.1074,14.6907 2.9244,14.8617 3.08565,15.11595 C3.04665,15.0867 2.9634,15.05295 2.9034,15.02745 C3.04665,15.1752 3.08565,15.37545 3.12015,15.57045 L3.0069,16.12845 C2.60715,16.78395 2.7204,15.3072 2.5674,15.0822 C2.47215,15.63495 2.63715,16.31895 2.43315,16.8327 C3.5469,17.0577 4.6734,17.1942 5.8104,17.3517 C5.1744,17.4687 4.53915,17.55645 3.88665,17.6787 C3.4164,17.7417 3.12015,17.3862 2.7414,17.17995 C3.08565,17.9727 2.7204,18.55395 2.8029,19.3812 C2.85015,19.74195 2.9634,19.9137 2.9634,20.33445 C2.9469,20.62245 2.87265,20.89695 2.85015,21.1962 C2.8029,21.48795 2.89365,21.71895 2.89365,21.90495 C2.89365,22.71645 2.68965,23.5572 2.5029,24.33045 C2.35065,24.9222 2.4639,25.6752 2.39415,26.3307 C2.32815,27.1182 2.2899,27.9582 2.20665,28.7862 C2.18865,29.1087 2.15865,29.3967 2.12865,29.7057 C2.0634,29.94495 2.0454,30.16545 2.0454,30.37545 C1.98465,30.9477 1.7799,31.4262 1.5459,31.9797 C1.66665,31.83795 1.75815,31.69095 1.85865,31.55295 C1.9629,31.69095 2.0634,31.87695 2.10615,32.05245 C2.0454,32.0082 1.9629,31.9797 1.90215,31.9302 C1.5459,32.6007 0.62265,34.0437 0.6924,34.78695 C0.71415,35.02095 0.8784,35.1582 0.96165,35.3097 C1.1754,35.71995 1.23615,35.6772 1.14465,36.2637 C1.0704,36.67545 1.1019,37.08495 1.1754,37.4472 C1.2879,38.04945 1.41015,38.52795 1.90215,38.9382 C2.10615,39.11445 1.98465,39.86745 1.98465,40.14645 C1.9929,41.0607 1.9929,42.00045 2.0244,42.9492 C2.0244,43.0182 2.0244,44.85195 1.94115,45.0627 C2.0634,44.8917 2.18865,44.71995 2.39415,44.7537 C2.18865,44.9877 1.8804,45.61095 1.72815,45.44295 C1.47165,45.9027 1.23615,46.4757 1.41015,46.9692 C1.5459,47.3802 2.5029,49.01895 2.82015,49.01895 L2.7414,49.01895 C2.9859,49.56195 3.6384,50.5392 3.6384,51.1797 C3.6384,51.35145 3.49515,51.59595 3.4779,51.8112 C3.39465,52.40295 3.6819,52.75995 3.84315,53.31795 C4.00815,53.9337 3.6384,54.0762 4.00815,54.6042 C4.8264,55.7877 5.66715,56.95695 6.48465,58.1397 C6.62865,58.36995 6.62865,58.5597 6.44115,58.7997 C6.8019,58.1397 7.32465,59.05395 7.6899,59.31345 C7.71165,59.2647 7.6899,59.22045 7.71165,59.1912 C7.85565,59.3472 8.69565,60.0327 8.4384,59.39595 C8.45565,59.42145 8.5299,59.4357 8.5689,59.4507 C8.46915,59.28945 8.45565,59.09295 8.4384,58.9617 C8.45565,59.09295 8.4384,58.44795 8.3859,58.57545 C8.49165,58.19895 8.5689,58.3842 8.71365,58.05645 C8.93865,58.1547 9.18315,58.4037 9.38715,58.48245 C9.7569,58.59945 9.65715,58.4667 9.96165,58.3452 C10.0659,58.3107 10.0224,58.10595 10.2054,58.10595 C10.37115,58.10595 10.57515,58.44795 10.7499,58.48245 C10.9329,58.5117 11.09715,58.4667 11.2329,58.3452 C11.1669,58.4037 11.11965,58.48245 11.06715,58.5417 C11.6724,58.33095 11.76315,58.2672 12.2949,58.72695 C12.09015,58.6587 11.7204,58.36995 11.53665,58.4037 C11.42415,58.44795 11.4759,58.59945 11.3724,58.6242 C11.2329,58.67295 11.1894,58.72695 10.88415,58.69245 C10.68015,58.67295 10.4934,58.5597 10.2579,58.5597 C10.0839,58.5597 9.90165,58.69245 9.73515,58.69245 C9.43065,58.69245 9.0609,58.5117 8.8569,58.84395 C8.49165,59.47995 9.7569,60.8637 9.93165,61.48995 C9.68715,61.25595 9.38715,61.1472 9.13515,60.9267 C9.0219,60.81495 8.8569,60.83445 8.8569,60.63495 C8.8389,60.51195 8.93865,59.98395 8.8044,59.87595 C8.30415,59.47995 8.28615,60.8007 8.31615,61.05945 C8.3649,61.46595 8.6739,61.8372 8.75565,62.2482 C8.8389,62.7807 8.75565,62.76645 9.3264,63.1917 C9.65715,63.41745 10.0839,63.6612 10.39215,63.8817 C10.4319,63.8817 10.57515,63.7992 10.65765,63.8817 C10.86315,64.0722 11.08965,64.9872 10.9329,65.3142 C10.7499,65.6517 10.57515,65.36295 10.5144,65.5002 C10.3314,65.72595 10.4319,65.95995 10.5144,66.2247 C10.57515,66.42045 10.59765,66.68445 10.65765,66.85995 C10.9329,67.66695 11.76315,68.5032 12.2949,69.1587 C12.88665,69.92595 13.43865,70.6152 14.0829,71.32995 C14.3184,71.6127 14.3184,71.77545 14.42265,71.9607 C14.5059,72.15195 14.42265,72.23595 14.62665,72.4212 C14.85315,72.66495 15.26265,72.97845 15.34065,73.28595 C15.3624,73.3602 15.2409,73.4727 15.26265,73.5552 C15.28065,73.8147 15.30165,74.08845 15.34065,74.3667 C15.3624,74.54295 15.30165,74.9052 15.34065,75.0027 C15.3624,75.14445 15.2184,75.2967 15.3849,75.36045 C15.83265,75.5712 16.32465,75.77595 16.76415,75.83895 C17.3169,75.8982 17.69565,75.9612 18.2259,76.1172 C18.6969,76.2747 19.07565,75.98145 19.5969,76.2552 C20.19315,76.5342 20.72415,76.9977 21.25515,77.38995 C21.52065,77.59995 21.86865,77.94795 22.17765,77.99145 C22.17765,78.01095 22.39065,77.89395 22.4739,77.87295 C22.6044,77.87295 23.06565,77.76645 23.1399,77.89395 C23.24865,78.16695 23.3529,79.0032 23.58765,79.17495 C23.77065,79.3062 24.03615,79.13595 24.24015,79.13595 C24.7629,79.13595 24.8979,79.4727 25.3074,79.78695 C25.6554,80.08845 26.0814,80.28495 26.41215,80.6082 C26.9439,81.09645 27.1869,81.49845 27.43515,82.2372 C27.70065,82.9797 27.9879,83.72295 28.23165,84.4572 C28.27515,84.5457 28.31415,84.60345 28.3359,84.66795 L28.6404,84.7017 L29.4804,84.7017 L29.5194,84.6327 L29.67615,84.56445 L30.7599,84.56445 L30.80865,84.51045 L30.9819,84.42645 L32.0784,84.42645 L32.1009,84.3687 L32.2614,84.30045 L33.4494,84.30045 L33.5109,84.2412 L33.67515,84.17295 L34.8594,84.17295 L34.9119,84.10995 L35.06415,84.04695 L36.23115,84.04695 L36.3129,83.9772 C36.3219,83.9577 36.3744,83.9577 36.38715,83.93295 C36.40515,83.9232 36.42615,83.90895 36.45615,83.90895 L37.5189,83.90895 C37.64415,83.90895 37.7229,84.0117 37.7229,84.15345 L37.7229,84.27045 L37.66215,84.45195 L37.61415,84.4707 L37.61415,84.5457 L37.5489,84.7017 L37.4799,84.75945 L37.48815,84.81345 L37.48815,84.93045 L37.4799,84.95145 L37.5189,84.95145 L37.66215,85.0287 L37.67565,85.0782 L37.86765,85.0782 L38.02365,85.16145 L38.0319,85.2192 L38.1984,85.2192 L38.3589,85.2987 L38.4204,85.35195 L38.55465,85.35195 L38.7069,85.4052 L38.76765,85.48845 L38.9109,85.48845 L39.06315,85.56195 L39.0939,85.5957 L39.25965,85.5957 L39.4254,85.67895 L39.46365,85.7337 L39.6084,85.7337 L39.76065,85.81095 L39.81165,85.88445 L39.95565,85.88445 L40.0989,85.9437 L40.13865,86.00745 L40.31265,86.00745 L40.45665,86.0757 L40.48665,86.1387 L40.66965,86.1387 L40.8129,86.21295 L40.85715,86.2707 L40.99965,86.2707 L41.16165,86.3442 L41.18265,86.4027 L41.36565,86.4027 L41.5089,86.48145 L41.5479,86.5197 L41.72265,86.5197 L41.85765,86.6037 L41.91015,86.65245 L41.9574,86.65245 L42.09315,86.7312 L42.16665,86.80395 L42.4104,86.80395 L42.57615,86.8632 L42.57615,86.91195 L42.7584,86.91195 L42.9324,86.98995 L42.9414,87.04995 L42.99315,87.04995 L43.1589,87.1272 L43.2069,87.1902 L43.3509,87.1902 L43.48515,87.2637 L43.5549,87.31245 L43.80315,87.31245 L43.98615,87.37695 L43.98615,87.4347 L44.02515,87.4347 L44.19015,87.5187 L44.2599,87.57195 L44.3949,87.57195 L44.5599,87.6552 L44.5989,87.72345 L44.76465,87.72345 L44.88615,87.7827 L44.93415,87.83595 L45.1089,87.83595 L45.25215,87.9147 L45.29565,87.9687 L45.33465,87.9687 L45.4869,88.0317 L45.5304,88.11495 L45.7959,88.11495 L45.9699,88.1832 L45.9789,88.22745 L46.1529,88.22745 L46.31865,88.2912 L46.31865,88.35945 L46.35765,88.35945 L46.53165,88.42845 L46.59315,88.5012 L46.7364,88.5012 L46.8924,88.56495 L46.9404,88.6377 L47.07615,88.6377 L47.2494,88.68195 L47.3019,88.75095 L47.4234,88.75095 L47.5854,88.8297 L47.6454,88.8882 L47.7894,88.8882 L47.93265,88.9662 L47.97615,89.03445 L48.1374,89.03445 L48.28065,89.0787 L48.3114,89.1567 L48.3639,89.1567 L48.5289,89.22495 L48.5679,89.27895 L48.7119,89.27895 L48.87765,89.3667 L48.91665,89.42595 L49.0689,89.42595 L49.2339,89.4942 L49.2729,89.53845 L49.42515,89.53845 C49.44765,89.53845 49.4694,89.56245 49.48665,89.5977 C49.53015,89.5977 49.5519,89.5977 49.5609,89.6262 L49.63065,89.6847 L49.7649,89.6847 L49.9389,89.7537 L49.9614,89.82195 L50.12265,89.82195 L50.2659,89.8857 L50.28765,89.9442 L50.34765,89.9442 L50.51415,90.0177 L50.5749,90.0612 L50.6964,90.0612 L50.8704,90.14895 L50.9229,90.2082 L51.04515,90.2082 L51.20565,90.2862 L51.22815,90.3207 L61.70265,90.3207 L61.70265,88.47645 L61.7769,88.2912 L61.9164,88.22745 L68.2179,88.22745 C68.2914,88.22745 68.3529,88.2912 68.40465,88.35945 L68.68815,88.35945 L68.84415,88.42845 L68.8749,88.5252 L68.9664,88.58445 L68.9964,88.6527 L69.0789,88.68195 L69.14865,88.8732 L69.14865,88.94145 L69.1794,88.9662 L69.2709,89.13795 L69.2709,89.22045 L69.30615,89.22495 L69.36615,89.4057 L69.36615,89.42595 L69.4149,89.4942 C69.4359,89.5092 69.4359,89.53845 69.4584,89.56245 C69.4749,89.60145 69.4974,89.63145 69.4974,89.66595 L69.4974,89.6847 L69.6624,89.7537 L69.7014,89.8467 L69.78465,89.8857 L69.80565,89.9442 L69.86715,89.9442 L70.0194,90.0177 L70.02765,90.0612 L70.1934,90.0612 L70.34565,90.14895 L70.4064,90.2277 L70.48065,90.2862 L70.51065,90.35445 L70.59315,90.41895 L70.6329,90.51195 L70.70715,90.5307 L70.7679,90.60945 L70.79865,90.60945 L70.9509,90.68295 L71.01165,90.83895 L71.01165,90.87345 L71.0724,90.93645 C71.0724,90.9612 71.0724,90.9807 71.09415,90.99045 L71.09415,91.02945 L71.1774,91.0692 L71.22465,91.1622 L71.2989,91.1817 L71.3379,91.2657 L71.3814,91.2657 L71.53365,91.31295 L71.5644,91.40145 L71.6469,91.47045 L71.67765,91.5192 L71.71665,91.5192 L71.89065,91.58745 L71.93415,91.7592 L71.93415,91.9002 L71.97315,91.9002 L72.11715,91.9887 L72.13965,92.0862 L72.21765,92.1057 L72.23865,92.2137 C72.3219,92.22345 72.3609,92.25795 72.38265,92.31045 L72.43515,92.31045 L72.5874,92.3697 L72.63915,92.54145 L72.63915,92.5557 L72.6699,92.5557 L72.81315,92.6397 L72.82215,92.7072 L72.89565,92.7072 L73.05765,92.7702 L73.05765,92.8302 L73.2399,92.8302 L73.40565,92.9022 L73.4364,93.00045 L73.52715,93.0162 L73.5489,93.1137 L73.61865,93.16245 L73.6704,93.2607 L73.7529,93.29445 L73.78365,93.3432 L73.9584,93.3432 C74.07915,93.3432 74.14065,93.4602 74.14065,93.6027 L74.14065,93.67095 L74.20215,93.69495 L74.2539,93.78345 L74.3364,93.81345 L74.34465,93.91545 L74.44965,93.94995 L74.51115,94.10145 L74.51115,94.1547 L74.5719,94.21845 L74.6334,94.3947 L74.6334,94.7127 C74.6754,94.7517 74.6934,94.7757 74.71515,94.8147 L74.77665,94.87395 L74.8809,95.0457 L74.8809,95.0652 L74.9199,95.14395 L74.98065,95.31495 L75.15465,95.4012 L75.20715,95.56395 L75.20715,95.63745 L75.2679,95.66145 L75.32865,95.8227 L75.32865,96.35145 L75.2679,96.51795 L75.20715,96.5562 L75.2679,96.5757 L75.32865,96.7467 L75.32865,96.93795 L75.39015,96.9777 L75.4419,97.13895 L75.4419,97.2072 L75.50265,97.24545 L75.5724,97.3977 L75.5724,97.4712 L75.5949,97.48995 L75.73815,97.6272 L75.7989,97.8132 L75.7989,97.95495 L75.8514,98.0277 L75.9729,98.1462 L76.00365,98.2587 L76.0779,98.2782 L76.14765,98.4492 L76.14765,98.46345 L76.16865,98.46345 L76.3299,98.54745 L76.3299,98.60595 L76.4949,98.60595 L76.66965,98.6787 L76.69065,98.7372 L76.7514,98.7372 L76.9044,98.81145 L76.92615,98.9082 L77.0349,98.94795 L77.08665,99.1392 L77.13015,99.20745 L77.17815,99.27045 L77.2314,99.27045 L77.37465,99.3297 L77.41815,99.4317 L77.4879,99.46095 L77.5179,99.53445 L77.60115,99.58845 L77.63115,99.6567 L77.79165,99.6567 L77.9574,99.7392 L77.97915,99.7887 L78.3879,99.7887 L78.54015,99.85845 L78.56265,99.9507 L78.6624,99.9852 L78.7059,100.06845 L78.77565,100.12095 L78.8064,100.2192 C78.8499,100.22445 78.8799,100.2537 78.8979,100.3077 L78.94965,100.3077 L79.03215,100.34145 L79.08465,100.3077 L79.1934,100.3077 L79.3584,100.3812 L79.3809,100.4397 L79.44165,100.4397 L79.5939,100.5132 L79.62465,100.60095 L79.70715,100.65495 L79.7679,100.82145 L79.7679,100.8402 L79.90365,100.8402 L80.0544,100.90845 L80.0859,100.96245 L80.2599,100.96245 C80.3289,100.96245 80.39415,101.03145 80.42565,101.0952 L80.70765,101.0952 L80.7519,101.1147 L80.7519,101.06595 L80.7909,100.90845 L80.8734,100.85595 L80.92515,100.78245 L81.0774,100.6842 L81.0774,100.6692 L81.16065,100.5132 L81.24315,100.47945 L81.2604,100.3812 L81.38715,100.24845 C81.42615,100.1907 81.4959,100.1907 81.57015,100.1907 L81.57015,100.1562 L81.57015,99.8967 L81.57015,99.84795 C81.57015,99.7887 81.54765,99.7392 81.57015,99.6717 C81.60915,99.5787 81.6699,99.5202 81.77415,99.5202 L81.80415,99.5202 L81.80415,99.49995 L81.80415,99.46095 C81.77415,99.36345 81.80415,99.27045 81.84315,99.20745 L81.8964,99.1392 L81.8964,98.97795 L81.9564,98.81145 L82.03065,98.77695 L82.03065,98.5857 L82.07865,98.4147 L82.1619,98.3757 L82.21365,98.2782 L82.28265,98.2587 L82.3269,98.1462 L82.3794,98.12595 L82.3794,97.9017 C82.3794,97.8132 82.47015,97.6812 82.57965,97.6812 L82.83615,97.6812 L82.8969,97.6272 C82.96215,97.56945 83.06265,97.5342 83.1324,97.56945 L83.1444,97.5537 L83.54115,97.5537 L83.54115,97.3977 L83.5929,97.24545 L83.7459,97.16745 L83.8194,97.16745 L83.8419,97.0992 L84.0024,97.03545 L84.10665,97.03545 L84.2589,97.0992 L84.2679,97.16745 L84.32865,97.16745 L84.37215,97.19295 C84.4419,97.16745 84.4944,97.13895 84.5334,97.19295 C84.59865,97.1967 84.63765,97.27995 84.64665,97.3332 L84.7374,97.3632 L84.7809,97.42245 L85.1079,97.42245 L85.12965,97.3632 L85.2819,97.27995 L85.4349,97.3632 L85.4559,97.42245 L86.0919,97.42245 C86.1744,97.42245 86.2134,97.4712 86.27415,97.5537 L86.6229,97.5537 L86.6619,97.48995 L86.78715,97.42245 L86.93115,97.42245 L87.03165,97.4712 L87.15315,97.42245 L87.28815,97.48995 L87.3054,97.5537 L87.37065,97.5537 L87.5319,97.6272 L87.5934,97.8132 L87.5934,97.8822 L87.64515,97.89645 L87.7149,98.0577 L87.7149,98.08695 L87.73665,98.08695 L87.87165,98.1462 L87.91065,98.2242 C87.95415,98.19945 87.99315,98.19945 88.0539,98.2242 C88.0929,98.2587 88.13715,98.3172 88.15815,98.3757 L88.2369,98.4147 L88.2894,98.5857 L88.2894,98.64945 L88.35015,98.6787 L88.38015,98.7672 L88.4634,98.81145 L88.4934,98.8692 L88.64565,98.8692 L88.81965,98.94795 L88.85115,99.02145 C88.92465,99.0657 88.9944,99.1392 88.9944,99.23745 L88.9944,99.3882 L89.00715,99.3882 L89.1819,99.46095 L89.1819,99.5202 L89.2419,99.5202 C89.32515,99.5202 89.4039,99.59895 89.4249,99.69195 L89.53815,99.7392 L89.54715,99.82845 L89.6514,99.84795 L89.6904,99.92595 L89.7204,99.92595 L89.85615,99.9852 L89.9379,100.1562 L89.9379,100.3572 L89.9994,100.3812 L90.01665,100.47945 L90.0909,100.5132 L90.1209,100.58145 L90.1824,100.58145 L90.3654,100.65495 L90.3954,100.82145 L90.3954,101.01195 L90.4479,101.03145 L90.50865,101.20245 L90.50865,101.53995 C90.5919,101.58345 90.6309,101.64345 90.6309,101.73645 L90.6309,101.76495 L90.69165,101.83245 L90.71265,101.9217 L90.81765,101.95545 L90.8649,102.1212 L90.8649,102.1857 L90.9309,102.21495 L90.97815,102.38595 L90.97815,102.59145 L91.03965,102.6012 L91.0614,102.69945 L91.1439,102.73395 L91.20465,102.90495 L91.20465,102.98295 L91.26615,103.0017 L91.3404,103.17345 L91.3404,103.2462 L91.38765,103.26645 L91.4094,103.3152 L91.44915,103.3152 L91.61415,103.4037 L91.69665,103.57545 L91.61415,103.7502 L91.5534,103.7652 L91.5534,103.8822 L91.61415,103.9167 L91.69665,104.1027 L91.69665,104.1657 L91.7184,104.1762 L91.7964,104.3577 L91.7964,104.55195 L91.8489,104.58195 L91.8579,104.6457 L91.93215,104.6457 L92.0844,104.71845 L92.12715,104.79195 L92.2059,104.8407 L92.21865,104.9142 L92.41065,104.9142 L92.53665,104.9787 L92.61465,105.13995 L92.61465,105.3057 L92.62815,105.3057 L92.7804,105.37395 L92.84115,105.53595 L92.84115,105.6972 L92.8719,105.6972 L93.02415,105.76995 L93.08565,105.9312 L93.08565,105.99945 L93.15015,106.0197 L93.1674,106.11795 L93.24165,106.1517 L93.33315,106.32345 L93.33315,106.66095 L93.36315,106.66995 L93.3939,106.73895 L93.4329,106.73895 L93.59865,106.8072 L93.6384,106.90545 L93.7209,106.95495 L93.73365,107.0322 L93.8424,107.0817 L93.9069,107.24745 L93.9069,107.26695 L93.98565,107.28195 L94.02915,107.26695 L94.1514,107.26695 L94.3164,107.3397 L94.3164,107.4087 L94.3869,107.4087 L94.5384,107.4822 L94.56915,107.5707 L94.6599,107.5947 L94.72515,107.78595 L94.72515,107.95695 L94.75665,107.9862 L94.8474,108.16245 L94.8474,108.8172 C94.8474,108.8712 94.8039,108.9057 94.8039,108.9552 L94.8039,108.9837 L94.88715,109.04295 L94.94715,109.2132 L94.94715,110.1432 L94.96065,110.1432 L95.13465,110.22045 L95.17365,110.3922 L95.17365,110.4612 L95.23515,110.49495 L95.2869,110.5827 L95.35665,110.6367 L95.41815,110.7987 L95.41815,110.8572 L95.46165,110.8767 L95.5224,110.97945 L95.5749,111.0132 L95.66565,111.1842 L95.66565,111.24345 L95.70465,111.26295 L95.7789,111.4332 L95.7789,111.53145 L95.80965,111.5367 L95.87865,111.7032 L95.87865,111.9132 L95.95215,111.92745 L96.0234,112.09845 L96.0234,112.22595 L95.97015,112.3002 L96.0234,112.3587 L96.0234,112.3872 L96.15765,112.4607 L96.23565,112.61745 L96.23565,112.9062 L96.7104,112.9062 L96.87165,112.9647 L96.89265,113.0487 L97.1889,113.0487 L97.34115,113.0967 L97.3719,113.21445 L97.4679,113.2482 L97.5069,113.32695 L97.5894,113.3652 L97.59765,113.4582 C97.6719,113.4732 97.7199,113.52195 97.74165,113.59095 L97.78065,113.5557 L98.00715,113.5557 L98.05965,113.59545 L98.1204,113.5557 L98.28615,113.62995 L98.2944,113.6982 L98.49015,113.6982 L98.6214,113.7762 L98.68215,113.8497 L98.70315,113.8497 L98.8554,113.9037 L98.88615,113.99145 L98.97765,114.0207 L99.0129,114.1287 L99.1044,114.15795 L99.1434,114.2457 L99.20415,114.30045 L99.24765,114.34845 L99.40815,114.34845 L99.4524,114.3837 C99.51315,114.34845 99.5514,114.3342 99.59115,114.3837 L99.63465,114.34845 L99.7569,114.34845 L99.90015,114.41745 L99.9699,114.4902 L100.92315,114.4902 L100.9629,114.4902 C101.0364,114.4857 101.10615,114.4902 101.1669,114.5292 C101.1669,114.5292 101.1669,114.4902 101.1879,114.4902 C101.27115,114.4857 101.37165,114.4902 101.4234,114.55845 L101.4759,114.6177 L101.49765,114.6177 L101.6589,114.7062 L101.6889,114.77895 L101.7804,114.81795 L101.80215,114.90645 L101.8854,114.9507 L101.9454,115.02345 L102.02865,115.07295 L102.03765,115.1412 L102.0894,115.1412 L102.23265,115.21995 L102.27165,115.30695 L102.3249,115.2777 L102.3459,115.2777 L102.3459,115.24395 L102.3984,115.07295 L102.55065,115.00995 L102.6204,115.00995 L102.6339,114.9507 L102.7854,114.8772 C102.55065,114.8667 102.5679,114.3192 102.4464,113.82045 C102.21165,112.9212 101.8629,111.9912 101.73315,111.0822 C101.71065,110.84145 101.73315,110.58795 101.7804,110.41695 C101.7414,110.5392 102.02865,110.19195 101.98965,110.22045 C102.0894,110.04945 102.1419,109.46745 102.20265,109.2282 C101.6589,109.4922 101.49765,109.1742 100.9629,109.12995 C101.0364,108.93945 100.9629,108.6417 100.9629,108.37245 C101.1489,108.5442 101.31015,108.8712 101.4759,109.04295 C101.4234,108.9057 102.1284,109.1112 101.80215,109.14045 C101.8854,109.12995 102.0894,109.12995 102.21165,108.9837 C102.3759,108.8172 102.49815,108.36345 102.5979,108.1032 C102.68115,107.8347 102.8679,107.4822 102.8079,107.26695 C102.8079,107.21295 102.5979,107.2332 102.55965,107.1687 C102.27165,106.59195 102.3459,106.8567 101.9064,106.49445 C102.1419,106.55745 102.5679,106.41195 102.8079,106.4802 C103.1124,106.55745 102.8679,106.8072 103.17315,106.6167 C103.43865,106.4802 103.66515,105.6972 103.7649,105.4137 C103.5819,105.58395 103.37715,105.4137 103.21665,105.15945 C103.37715,105.3312 103.5609,105.18345 103.7649,105.00195 C103.7649,105.13995 103.8474,105.2517 103.8474,105.33945 C103.93065,105.14895 103.9914,104.9337 104.10465,104.7582 C104.10465,104.9337 104.08215,105.15945 104.0349,105.33945 C104.13465,105.06645 104.31765,103.7652 104.60415,103.7652 C104.6784,103.7652 104.89215,104.1762 104.9319,104.2152 C105.1359,104.4117 104.9319,104.4507 105.29265,104.41545 C105.46665,104.39595 105.96765,103.9857 106.08015,103.8822 C105.6489,103.62795 105.32265,103.17345 105.1659,102.64095 C105.50565,102.59145 105.34065,102.8457 105.52815,102.98295 C105.9054,103.26645 106.26315,103.1592 105.9369,102.4842 C106.1409,102.55695 106.0584,102.90495 106.24065,102.98295 C106.3674,103.01745 106.5894,102.7827 106.8369,102.73395 C106.50615,103.62795 107.1204,102.98295 107.6034,103.1592 C107.3079,103.30545 106.98915,103.45695 106.7934,103.7067 C107.3244,103.45695 108.11265,103.07145 108.59565,102.6552 C108.33915,102.78645 108.0639,102.8847 107.7984,102.7827 C108.39015,102.6012 108.83865,102.55695 109.33065,102.2397 C109.91415,101.83245 110.1099,101.37345 110.51865,100.75245 C110.8059,100.28745 110.76315,100.63545 110.92815,100.55145 C111.3159,100.34145 111.66315,99.96495 111.9729,99.6432 C111.8289,99.5307 111.7374,99.5787 111.66315,99.3882 C111.66315,99.3882 111.5499,99.47145 111.5199,99.4317 C111.46815,99.3297 111.65565,99.1392 111.6114,99.0657 C111.5634,98.97795 111.3594,99.0657 111.2934,98.96745 C111.24615,98.81145 111.3984,98.6892 111.3594,98.5617 C111.2934,98.3757 111.16365,98.2242 111.1104,98.05245 C111.2934,98.05245 111.4899,98.12595 111.5634,98.3172 C111.7374,98.17995 112.0119,97.6617 112.2774,97.7832 C112.4424,97.86195 112.4604,98.12595 112.36815,98.3172 C112.0944,98.9082 111.91215,98.83095 112.39965,98.8692 C112.7169,98.8692 112.91265,98.7177 113.24865,98.83095 C112.99515,98.94795 112.14615,99.27045 112.0944,99.59895 C112.0944,99.88245 112.4604,99.40695 112.4604,99.3882 C112.74765,99.23745 113.00415,99.09945 113.29215,98.96745 C113.6184,98.81145 113.9139,98.6892 114.22215,98.54745 C114.73215,98.3172 115.1019,98.33595 115.61115,98.19045 C115.3674,97.86195 115.7154,97.13895 115.83765,96.7812 C115.7769,97.2072 115.67115,97.67145 115.67115,98.12595 C116.2164,97.72545 116.7384,97.95495 117.3519,97.75995 C117.7089,97.67145 117.23865,97.5102 117.24765,97.4712 C117.26115,97.4367 117.1254,97.3977 117.1479,97.3782 C117.1479,97.27995 117.31215,97.3332 117.33015,97.27995 C117.31215,97.3332 117.50415,97.07445 117.50415,97.07445 C117.55665,96.9477 117.54765,96.5472 117.59565,96.3852 C117.7914,96.50745 117.67815,96.68895 117.76065,96.83445 C118.23165,97.48995 119.2449,97.75995 119.89815,98.10195 C120.51165,98.41995 121.06365,98.8692 121.6689,98.81145 C121.87365,98.7672 122.13915,98.65395 122.3649,98.64045 C122.26065,98.60595 121.93515,98.2782 121.93515,98.19045 C121.87365,97.9017 121.87365,98.19045 122.0694,97.96995 C122.26065,97.7832 122.91765,97.5537 123.17115,97.56945 C123.2829,97.5882 123.8364,97.8822 123.9714,97.96995 C123.9924,98.0277 123.9804,98.29245 124.08465,98.41995 C124.20615,98.5857 125.06415,99.1392 125.2074,99.09945 C125.31165,99.04095 125.3724,98.65395 125.4339,98.57595 C125.51565,98.81145 125.25015,98.8947 125.29815,99.17295 C125.31165,99.4422 125.6589,99.58845 125.8209,99.75495 C126.2904,100.20945 126.96915,101.03145 127.5399,100.6692 C127.6839,100.60095 127.90965,100.22445 127.83615,100.04895 C128.27565,99.76995 128.85015,99.7392 129.1149,100.3077 C129.2499,100.63545 128.93265,101.01195 129.4239,100.85595 C130.0464,100.63545 129.4239,99.9852 129.97665,99.9852 C129.8424,99.76995 129.93315,99.75495 129.8424,99.51045 C129.81165,99.4317 129.97665,99.46095 129.8724,99.30045 C129.75915,99.07095 129.49365,99.1392 129.4029,98.7372 C129.6459,98.85045 130.87365,99.0657 130.68165,99.3297 C131.18265,99.6717 131.48715,99.9312 132.06165,100.2192 C131.9784,100.3812 132.14415,100.5132 132.28815,100.7037 C132.46215,100.91895 132.7359,100.3077 132.7359,100.76745 C132.7359,100.96245 132.3879,101.4567 132.31815,101.6817 C132.58365,101.42295 132.99315,101.4912 133.29765,101.37345 C133.1244,101.06595 134.01465,100.6152 133.4229,100.6842 C133.6149,100.65495 133.7064,100.55145 133.74165,100.47945 C133.5759,100.45845 133.4109,100.3812 133.2669,100.28745 C133.6149,99.9852 132.53115,99.76995 132.3879,99.69195 C132.4314,99.6717 132.51465,99.61695 132.53115,99.59895 C132.28815,99.58845 132.0219,99.5787 131.7564,99.5202 C131.78715,99.49995 131.82615,99.49995 131.85765,99.46095 C131.84865,99.30045 131.7744,99.4317 131.84865,99.23745 C131.4789,99.04095 131.2959,98.94795 131.0694,98.60595 C131.37765,98.54745 131.69115,98.5182 131.97015,98.43945 C131.9394,98.3757 131.88765,98.3172 131.8179,98.2782 C131.82615,98.2782 131.88765,98.2587 131.88765,98.2587 C131.79615,98.2782 131.48715,98.22945 131.5524,98.08695 C131.61315,97.81845 132.2439,97.8822 132.49215,97.72545 C132.4404,97.5102 132.3879,97.50495 132.51465,97.33845 C132.4494,97.3332 132.3879,97.3332 132.31815,97.3332 C132.28815,97.27995 132.3879,97.24545 132.3879,97.2072 C132.28815,97.2072 132.2664,97.2072 132.2049,97.19295 C132.57465,97.01145 132.0399,96.88395 131.9784,96.4197 C131.9619,96.71295 131.7744,96.5907 131.65215,96.7812 C131.32665,97.30995 131.5524,97.27995 131.12115,97.19295 C131.0394,97.13895 130.6299,97.01145 130.65165,96.80595 C130.66065,96.68895 131.13915,96.5907 131.2434,96.3852 C130.87365,96.28245 128.5104,96.8202 128.4489,96.13095 C128.40165,95.6172 130.01565,95.2662 130.40415,95.40645 C130.7649,95.5497 131.69115,96.0627 131.9619,95.75445 C132.28815,95.3577 132.4494,95.05995 132.9234,94.99095 C133.4229,94.8942 133.9239,94.78545 134.40315,94.8147 C135.23415,94.8837 136.09215,95.14395 136.90965,95.2167 C137.1144,95.2557 137.30115,93.9837 137.3709,93.7347 C137.40165,93.63195 137.4399,93.51945 137.49315,93.4017 C137.5449,93.69495 137.7279,93.63195 137.8329,93.91545 C137.8929,94.1547 137.7279,94.3602 137.7714,94.53645 C137.8494,94.78545 138.0594,94.7127 138.18015,94.8837 C138.25815,95.02995 138.25815,95.3337 138.4854,95.56395 C138.63765,95.75445 139.0509,95.56395 139.1814,95.3727 C139.12065,95.3577 139.08165,95.3577 139.0164,95.35395 C139.4604,95.2557 139.5384,95.02995 139.7124,94.53645 C139.62915,94.8837 139.5084,95.14395 139.42515,95.4657 C139.7334,95.31495 140.2044,95.2017 140.4519,94.8837 C140.6739,94.5852 140.53065,94.4337 140.6739,94.10145 C140.7354,94.23795 140.87865,94.3407 140.93115,94.44795 C141.27015,93.7347 141.4749,94.10145 141.6579,94.7517 C141.4749,94.64445 140.8404,95.02995 140.61315,95.1177 C141.89265,94.8147 143.2119,94.68345 144.52215,94.53645 C144.52215,94.7517 144.54315,94.66845 144.6039,94.8837 C144.43815,94.8552 144.2124,94.78545 144.06015,94.8012 C144.06015,94.8012 144.14265,94.8837 144.14265,94.8552 C143.46765,94.61445 144.1734,95.1177 144.3864,95.2557 C144.56115,95.35395 145.8534,96.2532 146.0574,96.14595 C146.26215,96.0237 145.72665,95.6757 145.6044,95.66145 C145.86165,95.56395 146.5449,95.2557 146.67165,95.4267 C146.6274,95.4897 146.2494,95.63745 146.2494,95.71545 C146.26215,95.7837 147.1809,96.4392 147.3024,96.58095 C147.0804,96.49245 146.17965,95.9262 146.3319,96.28245 C146.39265,96.4197 146.64915,96.5562 146.7624,96.6492 C146.7414,96.6687 146.68815,96.6492 146.67165,96.6687 C146.83215,96.9027 147.15915,96.9477 147.35415,97.19295 C147.43665,97.25595 147.46815,97.3632 147.5364,97.4562 C147.87615,98.0277 147.8994,98.17995 148.3899,97.95495 C148.2549,98.0277 148.1514,98.08695 147.9804,98.1462 C149.1429,97.67145 150.2919,97.19295 151.4589,96.71295 C152.0199,96.48795 152.2329,96.28245 152.70315,96.48795 C153.09465,96.6492 153.56415,96.93795 153.8514,97.27995 C154.11765,97.5882 154.17915,97.89645 154.4664,98.19045 C154.73115,98.4342 154.64865,98.3757 154.7919,98.64945 C154.8744,98.81145 154.7919,98.9082 154.9974,99.1392 C155.5404,99.6717 156.3684,99.9312 156.87615,100.5132 C157.1244,100.76745 157.75965,101.9262 157.6029,102.2487 C157.3509,102.21495 157.6029,102.4257 157.6344,102.6552 C157.6554,102.8352 157.59465,102.94395 157.59465,103.09545 C157.5639,103.48695 157.5249,103.7652 157.45065,104.1132 C157.3689,104.4507 157.1244,104.7582 157.0509,105.0507 C156.99015,105.33945 157.1244,105.6387 157.02015,105.96045 C157.00215,106.0827 156.8679,106.1862 156.8679,106.27395 C156.84615,106.66995 157.1244,107.1297 157.3299,107.4822 C157.3074,107.4087 157.28565,107.28195 157.25565,107.20845 C157.59465,107.51145 157.59465,107.26695 157.67715,107.06145 C157.86015,106.6017 157.6554,106.55745 157.3509,106.25445 C157.92165,106.55745 158.0949,107.0322 158.4519,106.32345 C158.7699,107.06145 157.75965,107.52645 157.8204,108.1962 C157.73865,108.1812 157.6344,108.1812 157.5729,108.1272 C157.6344,108.4302 157.8384,108.6417 157.94265,108.9687 C158.19915,109.9227 158.8134,110.72445 159.4569,111.4332 C159.4569,111.3417 159.35265,111.0042 159.3744,110.95545 C159.4569,110.75445 159.7014,110.6367 160.08015,110.5392 C160.0929,110.51445 159.8979,110.8077 159.8979,110.72445 C159.8979,110.74395 159.79215,110.74395 159.76215,110.8077 C159.7449,110.9112 159.84465,111.0132 159.82365,111.0867 C159.7224,111.58095 159.76215,112.1382 159.9054,112.63695 C160.31415,112.61745 160.37565,111.9912 160.84515,111.7962 C160.54965,112.0647 160.3884,112.34295 160.2009,112.74945 C160.84515,112.8522 160.8984,114.9507 161.04165,115.41045 C161.1159,115.3947 161.29815,115.2777 161.3679,115.31145 C161.7984,115.5222 162.4644,116.4612 162.8739,116.9457 C163.0689,117.15045 164.3364,118.39395 163.9359,118.5252 C163.84365,118.5642 163.52715,118.2567 163.4484,118.1832 C163.37415,118.4127 163.4049,118.70145 163.4484,118.9512 C163.6524,118.9407 163.81365,118.85745 164.03115,118.8132 C164.13165,118.8132 164.18415,118.68195 164.26665,118.68195 C164.37465,118.68195 164.50965,118.79445 164.6454,118.8042 C164.8974,118.8042 164.92815,118.71645 165.0849,118.62345 C165.3894,118.4127 165.3894,118.4127 165.7989,118.66245 C165.7374,118.5942 165.70665,118.5252 165.65565,118.4772 C165.72915,118.51095 165.90315,118.5597 166.00215,118.6467 C165.88065,118.4772 165.94215,118.4127 166.00215,118.2567 C166.2504,117.76845 166.5159,117.2682 166.72065,116.7357 C167.27415,115.2642 167.2089,113.62995 167.29065,112.0647 C167.35215,111.0132 167.27415,109.8492 166.3509,109.36995 C166.5159,109.4142 166.64715,109.4922 166.7994,109.59945 C166.3509,108.88545 166.2894,108.0252 166.00215,107.26695 C165.7374,106.59195 165.3894,105.96045 165.1329,105.2517 C164.81415,104.3232 164.5929,103.30545 164.34465,102.33645 C164.5494,102.4257 164.6454,103.6722 165.04065,103.1292 C165.1329,103.7502 165.1329,104.3577 165.18465,104.9787 C165.67665,103.57545 165.24615,103.2327 164.6919,102.16095 C164.3664,101.5452 164.0184,100.9527 163.7529,100.3227 C163.54815,99.82845 163.36515,99.3297 163.1784,98.81145 C162.91215,98.03295 162.7299,97.1967 162.5259,96.3852 C162.3294,95.6172 161.91165,94.7127 161.89065,93.91545 C161.8599,93.2397 161.67765,92.1057 161.93415,91.5042 C162.03315,91.2657 162.11715,91.02945 162.23865,91.29945 C163.2219,90.81945 162.41265,90.7512 161.9649,90.4377 C162.00315,90.4677 162.2604,90.5802 162.2994,90.55095 C162.42165,90.4242 162.44265,90.2277 162.5469,90.1152 C162.69915,89.94945 162.9354,89.8467 163.07865,89.67045 C162.97365,89.7537 162.8214,89.7537 162.69015,89.82195 C162.75165,89.42595 162.9354,88.90695 162.7299,88.5987 C162.8739,88.6137 163.13865,88.7952 163.2744,88.74045 C163.5084,88.68195 163.81365,87.9492 163.90515,87.7587 C164.1399,87.4107 164.98815,86.71695 164.95815,86.36895 C164.92815,86.2467 164.73615,86.2857 164.73615,86.2707 C164.5494,85.88445 164.3889,85.4052 164.3364,84.9852 C164.4279,85.0047 164.5494,85.1127 164.5929,85.16145 C164.26665,85.9632 165.3069,84.8922 165.02415,85.76745 C165.0849,85.76745 165.09315,85.7337 165.1329,85.7337 C165.1329,85.7532 165.09315,85.8507 165.1014,85.88445 C165.36765,85.9092 165.90315,85.9827 165.90315,85.5822 C165.88065,85.6257 165.8199,85.67895 165.7764,85.71345 C165.90315,85.1022 165.3279,85.26345 165.00165,85.04445 C165.1629,85.0782 165.4104,84.9852 165.53265,84.9852 C165.6369,84.9702 165.66765,85.16145 165.7989,85.1457 C166.0329,85.1127 166.3119,84.75945 166.5159,84.60345 C166.63815,84.51045 167.17815,84.5247 167.3124,84.51045 C167.4354,84.4812 167.4654,84.41295 167.51715,84.30045 L167.51715,84.4707 C167.59965,84.15345 167.6994,83.8212 167.7219,83.49345 C168.0924,83.8602 167.91765,83.93295 168.3354,83.8212 C168.79665,83.7042 169.18365,83.0442 169.5849,82.79445 C169.8279,82.60845 170.7504,82.2552 170.40315,81.7917 C170.2374,81.54645 170.0244,81.4152 170.2374,81.0912 C170.44215,81.2577 170.5164,81.5217 170.5464,81.7917 C170.7504,80.9697 170.8734,80.54895 171.4164,79.94295 C171.8349,79.50195 172.33515,79.12545 172.77465,78.71445 C173.1354,78.40695 174.12765,78.6177 174.57615,78.59745 C175.3119,78.59745 175.18965,77.85495 175.1679,77.22345 C175.3119,77.59995 175.2729,77.96145 175.3119,78.38745 C175.3644,78.1872 175.3944,77.94795 175.4334,77.73795 C175.6989,76.9587 176.52165,76.41645 177.0924,75.8637 C176.8479,76.02045 176.6439,76.19145 176.3949,76.30845 C176.59965,76.02045 177.67515,75.5712 177.18315,75.36495 C177.46215,75.10095 177.2439,74.85195 177.1344,74.54295 C177.2139,74.57295 177.3789,74.77845 177.3399,74.77845 C177.49215,74.77845 178.0314,74.4897 178.20615,74.54295 C178.5669,74.60745 178.20615,74.8122 178.6809,74.77845 C179.0154,74.76345 179.4159,74.5092 179.77215,74.38695 C180.2124,74.2497 181.1049,74.08845 181.3869,73.6287 C181.6569,73.2522 180.9384,73.61295 180.8259,73.65795 C181.12215,73.01295 180.5214,73.57095 180.35565,73.6182 C180.2814,73.6287 180.2124,73.4382 180.0819,73.4727 C179.9379,73.4727 179.79465,73.72695 179.6289,73.7607 C179.12865,73.80045 178.6809,73.07595 178.4934,72.61545 C178.8024,73.01295 179.0154,73.2282 179.4849,73.07595 C179.9769,72.92445 181.11315,72.3867 180.5214,71.88795 C179.8734,71.3247 179.0364,71.55045 178.5759,70.84095 C179.1204,71.22795 179.7204,71.2962 180.3249,71.41845 C180.2814,71.2227 180.24315,70.84095 180.35565,70.7082 C180.49065,70.58145 180.3774,71.0217 180.3249,70.9482 C180.4254,71.13495 180.49065,71.2572 180.56865,71.3397 C180.79515,71.1837 181.0824,71.0217 181.02165,71.41845 C181.84065,71.41845 183.8544,70.7082 183.5589,69.4377 C183.4239,69.0072 183.2109,68.8902 182.80215,68.98695 C182.40915,69.0612 182.47515,69.8727 182.3484,70.2387 C182.2659,69.91695 182.16615,69.2517 182.40915,68.9037 C182.40915,68.86995 182.34015,68.9037 182.34015,68.9037 C182.47515,68.56245 182.0229,68.5032 181.8174,68.5767 C181.63515,68.64045 181.59165,68.8902 181.43115,68.92395 C181.3269,68.93895 181.19565,68.85645 181.0389,68.86995 C181.0824,68.5422 180.1209,68.9037 179.79465,68.83095 C180.04665,68.5137 179.7504,68.38095 179.68965,68.0232 C179.6724,67.83795 179.8734,66.75795 179.9379,67.09995 C179.99865,67.3002 179.8119,67.3242 179.79465,67.52445 C179.79465,68.64045 180.4689,68.5767 181.31715,68.0622 C181.1049,67.99395 180.9174,67.8237 180.8049,67.5837 C181.0824,67.81845 181.3479,67.98945 181.73565,68.0232 C181.6044,67.8927 181.5129,67.7397 181.44765,67.5597 C181.6569,67.8432 181.93965,67.8432 182.2659,67.7547 C182.0964,67.5597 181.7964,67.23645 181.75665,67.0122 C181.93965,67.23645 182.47515,67.68195 182.81865,67.7397 C182.62665,67.5792 182.63565,67.3002 182.55315,67.04145 C182.81865,67.3002 182.92365,67.95045 183.31065,68.1807 C183.02415,67.3002 182.59665,66.72345 182.39265,65.89545 C182.7579,65.95995 182.65815,65.43195 182.74065,65.0997 C182.92365,65.51895 182.9844,66.0387 183.1494,66.4692 C183.0669,65.92545 182.84115,64.41495 182.47515,64.1067 C182.39265,64.0572 181.98315,64.15545 181.84065,64.0872 C181.43115,63.8952 181.5129,64.03845 181.3269,64.1067 C181.41765,64.0722 181.3269,64.2582 181.2954,64.27695 C181.12215,64.3752 180.73365,64.36545 180.5304,64.38045 C180.93015,64.1067 180.18165,63.14295 179.95515,62.8257 C180.18165,62.9712 180.3774,63.1812 180.5214,63.35295 C180.75615,63.6852 180.93015,64.0092 181.23465,63.70995 C181.23465,63.1812 181.1649,62.7807 180.8559,62.43345 C180.8559,62.41995 180.8349,62.41995 180.8259,62.39445 C180.8349,62.4042 180.8559,62.41995 180.8784,62.43345 C180.8349,62.4042 180.8049,62.38545 180.7734,62.3502 C180.73365,62.3217 180.70365,62.30595 180.6909,62.2722 C180.90015,62.41995 181.0389,62.4777 181.0824,62.2482 C181.3869,62.2482 181.43115,62.2332 181.5744,62.0127 C181.84065,61.41195 181.12215,61.0062 180.7734,60.63495 C180.73365,60.60495 180.6909,60.5652 180.6519,60.53145 C180.7734,60.0327 180.73365,60.54645 180.8559,60.54645 C180.93015,60.54645 180.9384,60.60495 180.97815,60.60495 C181.19565,60.5997 181.43115,59.99295 181.4919,59.72445 C181.63515,59.22045 181.63515,59.47995 181.3869,59.17245 C181.0824,58.7997 180.2124,58.36995 179.83365,58.19895 C179.56815,58.10595 179.15865,58.02195 178.9149,57.8172 C178.77165,57.6792 178.62765,57.3672 178.4934,57.1617 C178.3194,56.9022 178.36215,57.1617 178.18815,57.1467 C178.0314,57.1317 177.8574,57.3027 177.66615,57.18045 C177.62265,57.1467 177.5529,57.18045 177.50115,57.1617 C177.87915,56.24745 178.6809,55.4592 178.5144,54.43245 C178.8024,55.1517 178.2969,55.7727 178.0314,56.43795 C177.9099,56.64795 177.7494,56.9217 177.9534,57.0402 C178.18815,57.1617 178.2969,56.83845 178.2879,56.66295 C178.39365,56.9217 178.5669,56.81445 178.63665,56.58045 C178.7274,56.7462 178.84965,57.28395 179.05515,57.3522 C179.1984,57.40095 179.3424,57.02445 179.4339,57.07395 C179.6724,57.2592 179.8944,57.4602 180.1209,57.64545 C180.5214,57.96795 180.9174,58.2972 181.3269,58.57545 C181.24365,58.36995 181.17465,58.05645 181.11315,57.8367 C181.0824,57.74895 181.1049,57.40095 181.0824,57.3867 C181.02165,57.3027 180.8559,57.4557 180.75615,57.3672 C180.18165,56.83845 180.00765,56.53095 179.95515,55.5822 C180.04665,56.45295 180.2124,56.7027 181.0824,57.0402 C180.93015,56.6097 180.6519,56.43795 180.5829,55.9782 C180.5514,55.72845 180.56865,55.4112 180.6219,55.15695 C180.8349,54.1827 180.8259,54.3747 180.3864,53.5857 C180.5214,53.75745 180.6519,53.9577 180.8559,53.9577 C180.6294,53.5332 180.3774,53.1267 180.2124,52.6767 C180.6294,52.70595 180.7734,52.2807 181.12215,52.0017 C181.31715,51.8502 181.2954,52.09995 181.5219,51.7917 C181.6569,51.5772 181.69665,51.6402 181.6569,51.8502 C182.0229,51.59595 182.37915,51.27795 182.74065,50.97495 C183.49815,51.23445 182.74065,51.2532 182.9844,51.59595 C182.8719,51.59595 182.47515,51.74745 182.47515,51.9042 C182.4324,52.1142 182.92365,52.0407 183.10665,52.1142 C182.59665,52.1982 182.13615,52.0212 181.84065,52.43745 C181.69665,52.66245 181.63515,52.9647 181.5219,53.19045 C181.75665,53.26395 182.0229,53.24445 182.2569,53.2782 C182.0664,53.4297 182.0229,53.66445 181.9089,53.8992 C181.84065,54.1002 181.36965,53.68395 181.31715,53.90445 C181.24365,54.1392 181.19565,54.43245 181.17465,54.69195 C181.19565,54.5307 181.3869,54.23745 181.5219,54.2712 C181.63515,54.2712 182.1054,54.8532 182.0664,55.0002 C182.0664,55.13145 181.69665,55.23495 181.6044,55.26945 C181.85715,55.68945 182.13615,55.72845 182.61465,55.9242 C182.39265,56.1492 182.2659,55.9587 182.0664,55.9242 C181.75665,55.9047 181.89165,55.72845 181.5129,56.01195 C181.2654,56.20395 181.7964,56.1492 181.84065,56.11995 C181.73565,56.2812 181.24365,56.42745 181.3269,56.62845 C181.44765,56.8587 181.5744,57.08745 181.69665,57.31845 C181.69665,57.24495 181.69665,57.05895 181.6569,56.95695 C182.0229,57.1467 182.4924,58.26195 182.4324,57.2592 C182.47515,57.40095 182.59665,57.5187 182.65815,57.65595 C182.71815,57.3867 182.84115,57.1317 183.08865,56.95695 C183.05865,57.18045 183.2109,57.4602 183.1494,57.6897 C183.10665,57.86145 182.83215,58.05645 182.74965,58.26195 C182.92365,58.0077 183.10665,58.4667 183.4539,58.3842 C183.31065,58.5597 182.84115,59.04495 183.02415,59.20695 C182.9454,59.13195 183.8334,59.04495 183.8334,59.04495 C183.2934,60.1062 182.71815,61.0197 182.4924,62.2137 C182.44065,62.4882 182.5149,63.12345 182.92365,62.9082 C183.1194,62.8047 182.9934,62.11545 183.12765,61.8717 C183.31065,61.52895 183.76365,61.4562 183.9549,61.09845 C184.02915,60.96195 183.98565,60.81495 184.06815,60.60495 C184.1424,60.3057 184.28565,60.0327 184.4379,59.74395 C184.6329,59.25045 184.84665,58.77045 185.09115,58.3107 C185.2959,57.86145 185.6259,56.88795 185.9919,56.64795 C185.96865,56.83845 185.9619,57.0402 185.9919,57.24495 C186.0954,56.7852 186.0954,56.3052 185.9919,55.85595 C185.95215,56.0562 185.67315,56.0562 185.48265,55.9587 C185.7654,55.8222 185.86065,55.28895 185.95215,54.96495 C184.96065,54.5502 184.68165,52.87695 184.2729,51.9042 C184.1424,51.6402 183.9069,51.36195 183.96765,50.97495 C184.1889,50.0262 185.37765,49.45845 186.0129,49.01895 L185.95215,49.01895 C186.0129,48.9987 186.0954,48.9852 186.13515,48.9597 C185.59215,49.3947 184.76415,49.82145 184.4469,50.4762 C183.8634,51.61995 184.78515,52.05045 185.48265,52.74045 C185.82615,53.0682 186.58365,52.87695 186.66615,53.3412 C186.7104,53.5962 186.4224,54.0462 186.44415,54.3597 C186.6489,54.27645 187.52865,53.67495 187.2189,53.3862 C187.46715,53.2977 187.62765,52.87695 187.8114,52.66245 C187.74165,52.64295 187.68015,52.59345 187.6494,52.59345 C187.8114,52.4172 188.7939,52.1982 188.24115,51.98295 C188.4459,51.7917 188.73315,51.6402 188.8989,51.38595 C188.9379,51.33195 189.06015,50.95995 189.18615,50.7792 C189.4989,50.3937 189.2859,50.4567 189.3474,50.1237 C189.3864,49.9572 189.4989,49.8552 189.5304,49.71795 C189.6339,49.41945 189.6339,49.09695 189.80865,48.7542 C189.90765,49.2042 189.6339,49.63995 189.70365,50.13345 C189.86115,49.35645 189.8469,48.65595 190.0344,47.95245 C190.1259,47.5902 190.2174,47.2242 190.0644,47.0037 C189.8469,46.77795 189.06015,46.9407 188.97765,46.67595 C188.8989,46.3632 189.87765,45.5217 190.00365,45.08145 C190.0434,44.99295 190.0434,44.86545 190.0644,44.7537 L190.0644,44.9352 C190.3479,44.1042 190.30965,43.66845 190.2039,42.76395 C190.18665,42.6897 190.2039,42.6312 190.18665,42.5727 L190.18665,42.6897 L190.18665,42.5142 L190.18665,42.5727 C190.2039,42.95895 190.2699,43.3452 190.30965,43.7412 C190.37865,44.35845 190.0434,44.8317 190.0434,45.44295 C189.9819,45.58995 189.90765,45.7467 189.86115,45.81945 C190.1259,45.84495 190.37865,45.84495 190.63515,45.81945 L190.80915,45.81945 C191.27115,45.7857 191.73165,45.7467 192.1929,45.69345 C192.35415,45.62895 192.5199,45.58995 192.68115,45.5412 C192.8454,45.50745 193.0284,45.45345 193.2159,45.44295 C193.4994,45.36495 194.0649,45.29745 194.33865,45.21345 C194.5044,45.13095 194.6484,45.0627 194.8089,45.00345 C194.85165,45.00345 194.8824,44.99295 194.8914,44.9877 C195.07365,44.9352 195.24915,44.9877 195.46665,44.9052 C195.5574,44.85195 195.6099,44.8317 195.6264,44.7342 C195.70965,44.6757 195.78315,44.6757 195.8319,44.6607 C195.88365,44.6607 195.93615,44.6757 195.96615,44.6757 C196.1409,44.5977 196.32315,44.5287 196.5189,44.4312 C196.98015,44.1867 197.48115,43.93245 197.9814,43.7022 C197.2629,43.7562 196.5714,43.85445 195.8529,43.85445 C196.01865,43.66845 196.20165,43.3947 196.54965,43.2237 C195.6879,43.3797 194.8824,43.8102 194.0649,44.1042 C193.64265,44.2062 193.2939,44.1672 192.8679,44.2947 C192.47565,44.4012 191.1699,44.02995 191.29215,44.92545 C191.2179,44.7537 191.1789,44.71995 191.12715,44.71995 C191.08815,44.6757 191.0349,44.71995 191.0049,44.85195 C190.98315,44.85195 190.98315,44.85195 190.9614,44.86545 C190.88265,44.8917 190.86165,44.9877 190.77915,45.02745 C190.62615,45.0372 190.41315,44.9877 190.2864,45.08145 C190.2039,45.13095 190.1259,45.2817 190.0434,45.44295 C190.08315,45.3012 190.18665,45.0627 190.2699,45.00345 C190.37865,44.9352 190.4739,44.9352 190.5744,44.9352 C190.88265,44.9052 190.62615,44.8317 190.6794,44.7537 C191.0049,44.46495 191.20965,44.06445 191.5794,43.85445 C192.4149,43.4142 193.23315,42.9492 194.0949,42.53295 C194.57415,42.8022 195.6879,42.25995 196.28415,42.3282 C197.2944,42.41595 198.36915,42.53295 199.35165,42.1722 C199.76115,42.01995 199.73115,40.2837 199.76115,39.95145 C199.97415,40.64145 200.4054,40.31295 200.8059,40.10745 C200.50965,40.69995 200.50965,40.7982 200.75265,41.46195 C201.15465,41.16945 201.85965,40.3662 202.35915,40.31295 C202.62465,40.2837 202.6554,40.3662 202.54215,40.5432 C203.10765,40.62645 204.9969,40.9047 205.2444,40.42095 C205.3059,40.2837 205.22265,39.8187 205.20165,39.6822 C205.14015,39.31995 204.91815,38.78745 204.5874,38.67045 C204.5784,38.67045 203.95665,38.51445 204.03465,38.67045 C204.17865,38.84145 204.3744,38.6007 204.48765,38.7192 C204.67065,38.86545 204.6099,39.0267 204.70065,39.2127 C205.06215,39.91695 205.01865,40.08795 204.26115,40.27845 C203.9739,40.34745 203.5569,40.4502 203.21715,40.19595 C202.89015,39.91695 202.89015,39.22695 202.74765,38.86545 C202.58565,38.57745 202.3989,38.0292 202.19415,37.83345 C201.6549,37.27545 201.58065,38.1462 201.0804,37.1442 C201.39765,37.0512 201.62415,36.4107 201.9504,36.18495 C202.2159,36.01395 203.0559,35.86695 202.63365,35.4957 C202.54215,35.86695 202.35915,35.74545 202.2159,35.5452 C201.7464,34.8987 201.9504,33.8382 202.3989,33.2997 C203.0124,32.53245 204.01815,31.6422 204.27015,30.63945 C204.45765,29.87595 204.48765,29.87595 205.01865,29.45145 C205.00965,29.47545 204.9879,29.5527 204.95715,29.5872 C205.5099,29.3967 205.4799,29.3967 205.8144,30.03345 C205.7364,29.7147 205.66215,29.24595 205.7364,28.8492 C205.7364,28.89795 205.7364,28.93695 205.75365,29.01045 C205.75365,28.93695 205.77615,28.8687 205.77615,28.80045 C205.75365,29.19195 205.8144,29.5527 206.0199,29.90595 C206.13315,29.51445 206.1849,29.05395 206.35065,28.69845 C206.35065,28.69845 206.38065,28.69845 206.38065,28.6932 C206.2464,29.01045 206.27715,29.41695 206.57265,29.62245 C206.6244,29.41695 206.6244,29.24595 206.63715,29.05395 C206.63715,29.07495 206.65515,29.0937 206.65515,29.1132 L206.65515,29.05395 C206.65515,29.1087 206.6769,29.1132 206.7069,29.1132 C207.06315,29.04495 207.1464,28.73745 207.4119,28.42395 C207.3909,28.59495 207.4119,28.6287 207.3909,28.7862 C207.78165,28.7862 208.4124,28.7862 208.53915,28.2627 C208.1394,28.2627 209.0094,26.8932 209.10915,26.71695 C209.17065,26.56545 209.7144,25.38195 209.6844,26.0127 C209.6844,26.16945 209.5179,26.43345 209.4579,26.55045 C209.5314,26.49645 209.6844,26.49645 209.7834,26.4567 C209.66265,26.6337 209.4579,26.8002 209.42715,27.0492 C209.6844,26.85945 210.27615,27.3372 210.56265,27.45945 C210.44115,27.0102 210.56265,26.47245 210.8889,26.1942 C211.09365,26.0127 211.78965,25.8807 211.78965,26.20395 C212.18265,26.0907 212.06865,26.60445 212.28165,26.92695 C212.42565,26.69295 212.46465,26.39445 212.6079,26.14995 C212.6694,26.3307 212.75115,26.49645 212.87415,26.61945 C212.91765,26.2872 213.12165,25.9002 213.3129,25.6167 C213.7134,25.91445 214.36665,25.05345 214.85865,25.1322 C215.1159,25.1757 215.1459,25.55295 215.3724,25.33695 C215.6154,25.1322 215.90265,24.9222 216.1074,24.6582 L216.0984,24.5547 Z" id="Fill-1" fill="#B7B7B7" mask="url(#mask-2)"></path>
                </g>
                <g id="Group" transform="translate(0.000000, 11.000000)" fill="#372C7A" opacity="0.749465216">
                    <path d="M113.512,45.756 C113.512,49.48725 110.48725,52.512 106.756,52.512 C103.02475,52.512 100,49.48725 100,45.756 C100,42.024 103.02475,39 106.756,39 C110.48725,39 113.512,42.024 113.512,45.756" id="Fill-4"></path>
                    <path d="M18.512,52.756 C18.512,56.48725 15.48725,59.512 11.756,59.512 C8.02475,59.512 5,56.48725 5,52.756 C5,49.024 8.02475,46 11.756,46 C15.48725,46 18.512,49.024 18.512,52.756" id="Fill-6"></path>
                    <path d="M18.512,42.756 C18.512,46.48725 15.48725,49.512 11.756,49.512 C8.02475,49.512 5,46.48725 5,42.756 C5,39.024 8.02475,36 11.756,36 C15.48725,36 18.512,39.024 18.512,42.756" id="Fill-8"></path>
                    <path d="M146.512,28.756 C146.512,32.48725 143.48725,35.512 139.756,35.512 C136.02475,35.512 133,32.48725 133,28.756 C133,25.024 136.02475,22 139.756,22 C143.48725,22 146.512,25.024 146.512,28.756" id="Fill-10"></path>
                    <path d="M107.512,57.756 C107.512,61.48725 104.48725,64.512 100.756,64.512 C97.02475,64.512 94,61.48725 94,57.756 C94,54.024 97.02475,51 100.756,51 C104.48725,51 107.512,54.024 107.512,57.756" id="Fill-12"></path>
                    <path d="M211.51275,22.756 C211.51275,26.488 208.488,29.512 204.75675,29.512 C201.0255,29.512 198,26.488 198,22.756 C198,19.02475 201.0255,16 204.75675,16 C208.488,16 211.51275,19.02475 211.51275,22.756" id="Fill-18"></path>
                    <path d="M206.51275,28.756 C206.51275,32.488 203.488,35.51275 199.756,35.51275 C196.0255,35.51275 193,32.488 193,28.756 C193,25.02475 196.0255,22 199.756,22 C203.488,22 206.51275,25.02475 206.51275,28.756" id="Fill-20"></path>
                    <path d="M205.51275,25.756 C205.51275,29.488 202.488,32.51275 198.756,32.51275 C195.0255,32.51275 192,29.488 192,25.756 C192,22.02475 195.0255,19 198.756,19 C202.488,19 205.51275,22.02475 205.51275,25.756" id="Fill-22"></path>
                    <path d="M200.512,23.756 C200.512,27.488 197.48725,30.512 193.756,30.512 C190.0255,30.512 187,27.488 187,23.756 C187,20.02475 190.0255,17 193.756,17 C197.48725,17 200.512,20.02475 200.512,23.756" id="Fill-24"></path>
                    <path d="M199.512,19.756 C199.512,23.488 196.48725,26.51275 192.756,26.51275 C189.0255,26.51275 186,23.488 186,19.756 C186,16.02475 189.0255,13 192.756,13 C196.48725,13 199.512,16.02475 199.512,19.756" id="Fill-26"></path>
                    <path d="M194.512,38.756 C194.512,42.488 191.48725,45.51275 187.756,45.51275 C184.0255,45.51275 181,42.488 181,38.756 C181,35.02475 184.0255,32 187.756,32 C191.48725,32 194.512,35.02475 194.512,38.756" id="Fill-28"></path>
                    <path d="M192.512,35.756 C192.512,39.488 189.48725,42.51275 185.756,42.51275 C182.0255,42.51275 179,39.488 179,35.756 C179,32.02475 182.0255,29 185.756,29 C189.48725,29 192.512,32.02475 192.512,35.756" id="Fill-30"></path>
                    <path d="M187.51275,35.756 C187.51275,39.48725 184.488,42.512 180.75675,42.512 C177.0255,42.512 174,39.48725 174,35.756 C174,32.024 177.0255,29 180.75675,29 C184.488,29 187.51275,32.024 187.51275,35.756" id="Fill-32"></path>
                    <path d="M186.51275,39.756 C186.51275,43.48725 183.488,46.512 179.756,46.512 C176.0255,46.512 173,43.48725 173,39.756 C173,36.024 176.0255,33 179.756,33 C183.488,33 186.51275,36.024 186.51275,39.756" id="Fill-34"></path>
                    <path d="M168.51275,87.756 C168.51275,91.488 165.488,94.51275 161.756,94.51275 C158.0255,94.51275 155,91.488 155,87.756 C155,84.02475 158.0255,81 161.756,81 C165.488,81 168.51275,84.02475 168.51275,87.756" id="Fill-36"></path>
                    <path d="M172.512,72.756 C172.512,76.488 169.48725,79.512 165.756,79.512 C162.0255,79.512 159,76.488 159,72.756 C159,69.02475 162.0255,66 165.756,66 C169.48725,66 172.512,69.02475 172.512,72.756" id="Fill-38"></path>
                    <path d="M168.512,67.756 C168.512,71.488 165.48725,74.512 161.756,74.512 C158.0255,74.512 155,71.488 155,67.756 C155,64.02475 158.0255,61 161.756,61 C165.48725,61 168.512,64.02475 168.512,67.756" id="Fill-40"></path>
                    <path d="M147.512,22.756 C147.512,26.488 144.48725,29.51275 140.756,29.51275 C137.02475,29.51275 134,26.488 134,22.756 C134,19.02475 137.02475,16 140.756,16 C144.48725,16 147.512,19.02475 147.512,22.756" id="Fill-42"></path>
                    <path d="M172.512,31.756 C172.512,35.488 169.48725,38.512 165.756,38.512 C162.02475,38.512 159,35.488 159,31.756 C159,28.02475 162.02475,25 165.756,25 C169.48725,25 172.512,28.02475 172.512,31.756" id="Fill-44"></path>
                    <path d="M172.512,35.756 C172.512,39.488 169.48725,42.512 165.756,42.512 C162.02475,42.512 159,39.488 159,35.756 C159,32.02475 162.02475,29 165.756,29 C169.48725,29 172.512,32.02475 172.512,35.756" id="Fill-46"></path>
                    <path d="M158.51275,22.756 C158.51275,26.48725 155.488,29.512 151.75675,29.512 C148.0255,29.512 145,26.48725 145,22.756 C145,19.024 148.0255,16 151.75675,16 C155.488,16 158.51275,19.024 158.51275,22.756" id="Fill-48"></path>
                    <path d="M175.512,55.756 C175.512,59.488 172.48725,62.512 168.756,62.512 C165.02475,62.512 162,59.488 162,55.756 C162,52.02475 165.02475,49 168.756,49 C172.48725,49 175.512,52.02475 175.512,55.756" id="Fill-50"></path>
                    <path d="M179.512,53.756 C179.512,57.488 176.48725,60.51275 172.756,60.51275 C169.02475,60.51275 166,57.488 166,53.756 C166,50.02475 169.02475,47 172.756,47 C176.48725,47 179.512,50.02475 179.512,53.756" id="Fill-52"></path>
                    <path d="M165.512,24.756 C165.512,28.488 162.48725,31.51275 158.756,31.51275 C155.02475,31.51275 152,28.488 152,24.756 C152,21.02475 155.02475,18 158.756,18 C162.48725,18 165.512,21.02475 165.512,24.756" id="Fill-54"></path>
                    <path d="M165.51275,20.756 C165.51275,24.488 162.488,27.512 158.75675,27.512 C155.0255,27.512 152,24.488 152,20.756 C152,17.02475 155.0255,14 158.75675,14 C162.488,14 165.51275,17.02475 165.51275,20.756" id="Fill-56"></path>
                    <path d="M161.51275,56.756 C161.51275,60.488 158.488,63.512 154.75675,63.512 C151.0255,63.512 148,60.488 148,56.756 C148,53.02475 151.0255,50 154.75675,50 C158.488,50 161.51275,53.02475 161.51275,56.756" id="Fill-58"></path>
                    <path d="M13.512,6.756 C13.512,10.48725 10.48725,13.512 6.756,13.512 C3.02475,13.512 -5.96855898e-13,10.48725 -5.96855898e-13,6.756 C-5.96855898e-13,3.024 3.02475,-1.42108547e-13 6.756,-1.42108547e-13 C10.48725,-1.42108547e-13 13.512,3.024 13.512,6.756" id="Fill-63"></path>
                </g>
                <path d="M42.887,57.603 L46.508,57.603 L46.508,46.944 L43.5245,46.944 L43.5245,45.108 C44.3405041,44.9549992 45.0417471,44.7722511 45.62825,44.55975 C46.2147529,44.3472489 46.7629975,44.0880015 47.273,43.782 L49.466,43.782 L49.466,57.603 L52.6535,57.603 L52.6535,60 L42.887,60 L42.887,57.603 Z M55.976,57.603 L59.597,57.603 L59.597,46.944 L56.6135,46.944 L56.6135,45.108 C57.4295041,44.9549992 58.1307471,44.7722511 58.71725,44.55975 C59.3037529,44.3472489 59.8519974,44.0880015 60.362,43.782 L62.555,43.782 L62.555,57.603 L65.7425,57.603 L65.7425,60 L55.976,60 L55.976,57.603 Z M68.3765,63.0345 C69.1925041,62.7114984 69.8257477,62.2780027 70.27625,61.734 C70.7267523,61.1899973 70.952,60.5950032 70.952,59.949 L70.7225,59.949 C70.2294975,59.949 69.7917519,59.7917516 69.40925,59.47725 C69.0267481,59.1627484 68.8355,58.7165029 68.8355,58.1385 C68.8355,57.5944973 69.0267481,57.1567517 69.40925,56.82525 C69.7917519,56.4937483 70.2549973,56.328 70.799,56.328 C71.4960035,56.328 72.0357481,56.5914974 72.41825,57.1185 C72.8007519,57.6455026 72.992,58.3849952 72.992,59.337 C72.992,60.5950063 72.6477534,61.6829954 71.95925,62.601 C71.2707466,63.5190046 70.2890064,64.1989978 69.014,64.641 L68.3765,63.0345 Z M80.726,60.306 C79.0259915,60.306 77.6830049,59.5792573 76.697,58.12575 C75.7109951,56.6722427 75.218,54.5685138 75.218,51.8145 C75.218,49.0604862 75.7109951,46.982257 76.697,45.57975 C77.6830049,44.177243 79.0259915,43.476 80.726,43.476 C82.4260085,43.476 83.7689951,44.1814929 84.755,45.5925 C85.7410049,47.0035071 86.234,49.0774863 86.234,51.8145 C86.234,54.5685138 85.7410049,56.6722427 84.755,58.12575 C83.7689951,59.5792573 82.4260085,60.306 80.726,60.306 Z M80.726,58.011 C81.117002,58.011 81.4782483,57.9047511 81.80975,57.69225 C82.1412517,57.4797489 82.4259988,57.1270025 82.664,56.634 C82.9020012,56.1409975 83.0889993,55.5035039 83.225,54.7215 C83.3610007,53.9394961 83.429,52.9705058 83.429,51.8145 C83.429,50.6754943 83.3610007,49.7192539 83.225,48.94575 C83.0889993,48.1722461 82.9020012,47.5475024 82.664,47.0715 C82.4259988,46.5954976 82.1412517,46.259751 81.80975,46.06425 C81.4782483,45.868749 81.117002,45.771 80.726,45.771 C80.334998,45.771 79.9737517,45.868749 79.64225,46.06425 C79.3107483,46.259751 79.0260012,46.5954976 78.788,47.0715 C78.5499988,47.5475024 78.3630007,48.1722461 78.227,48.94575 C78.0909993,49.7192539 78.023,50.6754943 78.023,51.8145 C78.023,52.9705058 78.0909993,53.9394961 78.227,54.7215 C78.3630007,55.5035039 78.5499988,56.1409975 78.788,56.634 C79.0260012,57.1270025 79.3107483,57.4797489 79.64225,57.69225 C79.9737517,57.9047511 80.334998,58.011 80.726,58.011 Z M94.9115,53.5485 L94.9115,49.8765 L94.91762,49.2644999 C94.9216999,49.0469004 94.9278199,48.8157012 94.93598,48.570901 L94.94975,48.1935 C94.9752501,47.5474968 95.0049998,46.9865024 95.039,46.5105 L94.937,46.5105 C94.732999,46.9355021 94.5205011,47.351998 94.2995,47.76 L93.611,49.035 L93.611,49.035 L90.653,53.5485 L94.9115,53.5485 Z M99.7055,55.818 L97.6655,55.818 L97.6655,60 L94.9115,60 L94.9115,55.818 L87.746,55.818 L87.746,53.829 L94.172,43.782 L97.6655,43.782 L97.6655,53.5485 L99.7055,53.5485 L99.7055,55.818 Z M102.3395,56.175 C102.832502,56.6340023 103.384997,57.0377483 103.997,57.38625 C104.609003,57.7347517 105.322996,57.909 106.139,57.909 C107.057005,57.909 107.809247,57.6370027 108.39575,57.093 C108.982253,56.5489973 109.2755,55.7840049 109.2755,54.798 C109.2755,53.8289952 109.003503,53.0810026 108.4595,52.554 C107.915497,52.0269974 107.193005,51.7635 106.292,51.7635 C105.764997,51.7635 105.323002,51.8357493 104.966,51.98025 C104.608998,52.1247507 104.184002,52.3584984 103.691,52.6815 L102.2885,51.789 L102.773,43.782 L111.443,43.782 L111.443,46.2555 L105.323,46.2555 L104.9915,50.1825 C105.331502,50.0124991 105.667248,49.8807505 105.99875,49.78725 C106.330252,49.6937495 106.708498,49.647 107.1335,49.647 C107.830503,49.647 108.489247,49.748999 109.10975,49.953 C109.730253,50.157001 110.269998,50.4672479 110.729,50.88375 C111.188002,51.3002521 111.553499,51.8272468 111.8255,52.46475 C112.097501,53.1022532 112.2335,53.8544957 112.2335,54.7215 C112.2335,55.6055044 112.076252,56.3959965 111.76175,57.093 C111.447248,57.7900035 111.026503,58.3764976 110.4995,58.8525 C109.972497,59.3285024 109.364753,59.6897488 108.67625,59.93625 C107.987747,60.1827512 107.269504,60.306 106.5215,60.306 C105.212493,60.306 104.111754,60.0807523 103.21925,59.63025 C102.326746,59.1797477 101.583003,58.657003 100.988,58.062 L102.3395,56.175 Z M114.6635,63.0345 C115.479504,62.7114984 116.112748,62.2780027 116.56325,61.734 C117.013752,61.1899973 117.239,60.5950032 117.239,59.949 L117.0095,59.949 C116.516498,59.949 116.078752,59.7917516 115.69625,59.47725 C115.313748,59.1627484 115.1225,58.7165029 115.1225,58.1385 C115.1225,57.5944973 115.313748,57.1567517 115.69625,56.82525 C116.078752,56.4937483 116.541997,56.328 117.086,56.328 C117.783003,56.328 118.322748,56.5914974 118.70525,57.1185 C119.087752,57.6455026 119.279,58.3849952 119.279,59.337 C119.279,60.5950063 118.934753,61.6829954 118.24625,62.601 C117.557747,63.5190046 116.576006,64.1989978 115.301,64.641 L114.6635,63.0345 Z M124.106,55.5375 C124.106,56.3535041 124.394997,57.0037476 124.973,57.48825 C125.551003,57.9727524 126.256496,58.215 127.0895,58.215 C127.871504,58.215 128.513247,58.0025021 129.01475,57.5775 C129.516253,57.1524979 129.767,56.5575038 129.767,55.7925 C129.767,55.3504978 129.665001,54.9722516 129.461,54.65775 C129.256999,54.3432484 128.980752,54.0627512 128.63225,53.81625 C128.283748,53.5697488 127.871502,53.344501 127.3955,53.1405 C126.919498,52.936499 126.409503,52.7240011 125.8655,52.503 C125.355497,52.8770019 124.934752,53.3189975 124.60325,53.829 C124.271748,54.3390026 124.106,54.9084969 124.106,55.5375 Z M128.1095,50.8455 C128.551502,50.4034978 128.887249,49.9530023 129.11675,49.494 C129.346251,49.0349977 129.461,48.5505025 129.461,48.0405 C129.461,47.3264964 129.252752,46.7357523 128.83625,46.26825 C128.419748,45.8007477 127.829004,45.567 127.064,45.567 C126.434997,45.567 125.908002,45.7582481 125.483,46.14075 C125.057998,46.5232519 124.8455,47.0714964 124.8455,47.7855 C124.8455,48.193502 124.930499,48.5504985 125.1005,48.8565 C125.270501,49.1625015 125.504249,49.4302489 125.80175,49.65975 C126.099251,49.8892511 126.443498,50.101749 126.8345,50.29725 C127.225502,50.492751 127.650498,50.6754991 128.1095,50.8455 Z M121.5305,55.8435 C121.5305,55.3334975 121.611249,54.8702521 121.77275,54.45375 C121.934251,54.0372479 122.150999,53.6590017 122.423,53.319 C122.695001,52.9789983 123.005248,52.6730014 123.35375,52.401 C123.702252,52.1289986 124.071998,51.891001 124.463,51.687 L124.463,51.585 C123.833997,51.1429978 123.302752,50.6160031 122.86925,50.004 C122.435748,49.3919969 122.219,48.6525043 122.219,47.7855 C122.219,47.1224967 122.342249,46.5275026 122.58875,46.0005 C122.835251,45.4734974 123.175248,45.0230019 123.60875,44.649 C124.042252,44.2749981 124.560747,43.986001 125.16425,43.782 C125.767753,43.577999 126.417997,43.476 127.115,43.476 C127.846004,43.476 128.504747,43.5822489 129.09125,43.79475 C129.677753,44.0072511 130.179248,44.3047481 130.59575,44.68725 C131.012252,45.0697519 131.330999,45.5287473 131.552,46.06425 C131.773001,46.5997527 131.8835,47.1989967 131.8835,47.862 C131.8835,48.270002 131.819751,48.6567482 131.69225,49.02225 C131.564749,49.3877518 131.399001,49.7277484 131.195,50.04225 C130.990999,50.3567516 130.757251,50.6457487 130.49375,50.90925 C130.230249,51.1727513 129.971001,51.3979991 129.716,51.585 L129.716,51.687 C130.090002,51.891001 130.446998,52.1247487 130.787,52.38825 C131.127002,52.6517513 131.424499,52.9534983 131.6795,53.2935 C131.934501,53.6335017 132.138499,54.0159979 132.2915,54.441 C132.444501,54.8660021 132.521,55.3504973 132.521,55.8945 C132.521,56.5235031 132.389251,57.1057473 132.12575,57.64125 C131.862249,58.1767527 131.492502,58.644248 131.0165,59.04375 C130.540498,59.443252 129.962503,59.7534989 129.2825,59.9745 C128.602497,60.1955011 127.854504,60.306 127.0385,60.306 C126.239496,60.306 125.504253,60.1955011 124.83275,59.9745 C124.161247,59.7534989 123.583252,59.447502 123.09875,59.0565 C122.614248,58.665498 122.231751,58.1980027 121.95125,57.654 C121.670749,57.1099973 121.5305,56.5065033 121.5305,55.8435 Z M134.543,60 L134.543,58.2915 L135.927026,56.9394788 C136.516127,56.3593984 137.070533,55.8070741 137.59025,55.2825 C138.499755,54.3644954 139.273247,53.5145039 139.91075,52.7325 C140.548253,51.9504961 141.036998,51.2195034 141.377,50.5395 C141.717002,49.8594966 141.887,49.2135031 141.887,48.6015 C141.887,47.7344957 141.657502,47.0502525 141.1985,46.54875 C140.739498,46.0472475 140.076504,45.7965 139.2095,45.7965 C138.580497,45.7965 138.006753,45.9749982 137.48825,46.332 C136.969747,46.6890018 136.489502,47.1139975 136.0475,47.607 L134.4155,45.975 C135.163504,45.175996 135.932746,44.5597522 136.72325,44.12625 C137.513754,43.6927478 138.469994,43.476 139.592,43.476 C140.374004,43.476 141.079497,43.5949988 141.7085,43.833 C142.337503,44.0710012 142.872998,44.4067478 143.315,44.84025 C143.757002,45.2737522 144.101249,45.7964969 144.34775,46.4085 C144.594251,47.0205031 144.7175,47.7004963 144.7175,48.4485 C144.7175,49.1625036 144.560252,49.8892463 144.24575,50.62875 C143.931248,51.3682537 143.506253,52.1162462 142.97075,52.87275 C142.435247,53.6292538 141.810504,54.406996 141.0965,55.206 C140.382496,56.005004 139.626004,56.8294957 138.827,57.6795 L140.204,57.56475 C140.697002,57.5222498 141.138998,57.501 141.53,57.501 L145.508,57.501 L145.508,60 L134.543,60 Z M148.6265,56.175 C149.119502,56.6340023 149.671997,57.0377483 150.284,57.38625 C150.896003,57.7347517 151.609996,57.909 152.426,57.909 C153.344005,57.909 154.096247,57.6370027 154.68275,57.093 C155.269253,56.5489973 155.5625,55.7840049 155.5625,54.798 C155.5625,53.8289952 155.290503,53.0810026 154.7465,52.554 C154.202497,52.0269974 153.480005,51.7635 152.579,51.7635 C152.051997,51.7635 151.610002,51.8357493 151.253,51.98025 C150.895998,52.1247507 150.471002,52.3584984 149.978,52.6815 L148.5755,51.789 L149.06,43.782 L157.73,43.782 L157.73,46.2555 L151.61,46.2555 L151.2785,50.1825 C151.618502,50.0124991 151.954248,49.8807505 152.28575,49.78725 C152.617252,49.6937495 152.995498,49.647 153.4205,49.647 C154.117503,49.647 154.776247,49.748999 155.39675,49.953 C156.017253,50.157001 156.556998,50.4672479 157.016,50.88375 C157.475002,51.3002521 157.840499,51.8272468 158.1125,52.46475 C158.384501,53.1022532 158.5205,53.8544957 158.5205,54.7215 C158.5205,55.6055044 158.363252,56.3959965 158.04875,57.093 C157.734248,57.7900035 157.313503,58.3764976 156.7865,58.8525 C156.259497,59.3285024 155.651753,59.6897488 154.96325,59.93625 C154.274747,60.1827512 153.556504,60.306 152.8085,60.306 C151.499493,60.306 150.398754,60.0807523 149.50625,59.63025 C148.613746,59.1797477 147.870003,58.657003 147.275,58.062 L148.6265,56.175 Z" id="11,045,825" fill="#FFFFFF" fill-rule="nonzero"></path>
            </g>
        </g>
    </g>
</svg>