<?xml version="1.0" encoding="UTF-8"?>
<svg width="14px" height="14px" viewBox="0 0 14 14" version="1.1" xmlns="http://www.w3.org/2000/svg" xmlns:xlink="http://www.w3.org/1999/xlink">
    <!-- Generator: Sketch 55.1 (78136) - https://sketchapp.com -->
    <title>info-circle-solid</title>
    <desc>Created with Sketch.</desc>
    <g id="Page-1" stroke="none" stroke-width="1" fill="none" fill-rule="evenodd">
        <g id="CU_Desktop_Slide_info-button_on-click" transform="translate(-1002.000000, -4653.000000)" fill="#555" fill-rule="nonzero">
            <g id="info-circle-solid" transform="translate(1002.000000, 4653.000000)">
                <path d="M7,0 C3.13427823,0 0,3.13540726 0,7 C0,10.8668508 3.13427823,14 7,14 C10.8657218,14 14,10.8668508 14,7 C14,3.13540726 10.8657218,0 7,0 Z M7,3.10483871 C7.65472581,3.10483871 8.18548387,3.63559677 8.18548387,4.29032258 C8.18548387,4.94504839 7.65472581,5.47580645 7,5.47580645 C6.34527419,5.47580645 5.81451613,4.94504839 5.81451613,4.29032258 C5.81451613,3.63559677 6.34527419,3.10483871 7,3.10483871 Z M8.58064516,10.2741935 C8.58064516,10.461246 8.4289879,10.6129032 8.24193548,10.6129032 L5.75806452,10.6129032 C5.5710121,10.6129032 5.41935484,10.461246 5.41935484,10.2741935 L5.41935484,9.59677419 C5.41935484,9.40972177 5.5710121,9.25806452 5.75806452,9.25806452 L6.09677419,9.25806452 L6.09677419,7.4516129 L5.75806452,7.4516129 C5.5710121,7.4516129 5.41935484,7.29995565 5.41935484,7.11290323 L5.41935484,6.43548387 C5.41935484,6.24843145 5.5710121,6.09677419 5.75806452,6.09677419 L7.56451613,6.09677419 C7.75156855,6.09677419 7.90322581,6.24843145 7.90322581,6.43548387 L7.90322581,9.25806452 L8.24193548,9.25806452 C8.4289879,9.25806452 8.58064516,9.40972177 8.58064516,9.59677419 L8.58064516,10.2741935 Z" id="Shape"></path>
            </g>
        </g>
    </g>
</svg>