<?xml version="1.0" encoding="UTF-8"?>
<svg width="617px" height="369px" viewBox="0 0 617 369" version="1.1" xmlns="http://www.w3.org/2000/svg" xmlns:xlink="http://www.w3.org/1999/xlink">
    <!-- Generator: Sketch 52.2 (67145) - http://www.bohemiancoding.com/sketch -->
    <title>Group 9</title>
    <desc>Created with Sketch.</desc>
    <defs>
        <linearGradient x1="50%" y1="100%" x2="50%" y2="3.061617e-15%" id="linearGradient-1">
            <stop stop-color="#D291D9" stop-opacity="0" offset="0%"></stop>
            <stop stop-color="#A658B2" offset="100%"></stop>
        </linearGradient>
    </defs>
    <g id="Page-1" stroke="none" stroke-width="1" fill="none" fill-rule="evenodd">
        <g id="BP---V6" transform="translate(-749.000000, -2523.000000)">
            <g id="Group-9" transform="translate(749.000000, 2520.000000)">
                <polygon id="Rectangle-16" fill="#FAFAFA" fill-rule="nonzero" points="56 259 614 259 614 299 56 299"></polygon>
                <polygon id="Rectangle-16" fill="#FAFAFA" fill-rule="nonzero" points="56 179 614 179 614 219 56 219"></polygon>
                <polygon id="Rectangle-16" fill="#FAFAFA" fill-rule="nonzero" points="56 99 614 99 614 139 56 139"></polygon>
                <polygon id="Rectangle-16" fill="#FAFAFA" fill-rule="nonzero" points="56 19 614 19 614 59 56 59"></polygon>
                <path d="M55.5,11 L55.5,340" id="Line-35" stroke="#7D7D7D" stroke-width="1.5" stroke-linecap="round" fill-rule="nonzero"></path>
                <path d="M56,340 L616,340" id="Line-36" stroke="#7D7D7D" stroke-width="1.5" stroke-linecap="round" fill-rule="nonzero"></path>
                <text id="2017" font-family="SourceSansPro-Semibold, Source Sans Pro" font-size="29.6153846" font-weight="500" fill="#666666">
                    <tspan x="501" y="371">2017</tspan>
                </text>
                <text id="2016" font-family="SourceSansPro-Light, Source Sans Pro" font-size="15.2307692" font-weight="300" fill="#666666">
                    <tspan x="416" y="369">2016</tspan>
                </text>
                <text id="2015" font-family="SourceSansPro-Light, Source Sans Pro" font-size="15.2307692" font-weight="300" fill="#666666">
                    <tspan x="316" y="369">2015</tspan>
                </text>
                <text id="2014" font-family="SourceSansPro-Light, Source Sans Pro" font-size="15.2307692" font-weight="300" fill="#666666">
                    <tspan x="216" y="369">2014</tspan>
                </text>
                <text id="2013" font-family="SourceSansPro-Light, Source Sans Pro" font-size="15.2307692" font-weight="300" fill="#666666">
                    <tspan x="116" y="369">2013</tspan>
                </text>
                <path d="M56,220 L614,220" id="Line-3" stroke="#666666" opacity="0.1" stroke-linecap="square" fill-rule="nonzero"></path>
                <path d="M56,260 L614,260" id="Line-3" stroke="#666666" opacity="0.1" stroke-linecap="square" fill-rule="nonzero"></path>
                <path d="M56,60 L614,60" id="Line-3" stroke="#666666" opacity="0.1" stroke-linecap="square" fill-rule="nonzero"></path>
                <path d="M56,100 L614,100" id="Line-3" stroke="#666666" opacity="0.1" stroke-linecap="square" fill-rule="nonzero"></path>
                <path d="M56,140 L614,140" id="Line-3" stroke="#666666" opacity="0.1" stroke-linecap="square" fill-rule="nonzero"></path>
                <path d="M56,180 L614,180" id="Line-3" stroke="#666666" opacity="0.1" stroke-linecap="square" fill-rule="nonzero"></path>
                <path d="M56,20 L614,20" id="Line-3" stroke="#666666" opacity="0.1" stroke-linecap="square" fill-rule="nonzero"></path>
                <text id="$-20.0-T-$-17.5-T-$" font-family="SourceSansPro-Light, Source Sans Pro" font-size="15" font-weight="300" line-spacing="40" fill="#666666">
                    <tspan x="0.115" y="15">$ 20.0 T</tspan>
                    <tspan x="0.115" y="55">$ 17.5 T</tspan>
                    <tspan x="0.115" y="95">$ 15.0 T</tspan>
                    <tspan x="0.115" y="135">$ 12.5 T</tspan>
                    <tspan x="0.115" y="175">$ 10.0 T</tspan>
                    <tspan x="7.3" y="215">$ 7.5 T</tspan>
                    <tspan x="7.3" y="255">$ 5.0 T</tspan>
                    <tspan x="7.3" y="295">$ 2.5 T</tspan>
                    <tspan x="28.63" y="335">$ 0</tspan>
                </text>
                <polyline id="Path-3" fill="url(#linearGradient-1)" fill-rule="nonzero" opacity="0.2" points="56 75 130.610951 68 229.868647 60 330.12869 48 430.205012 24 528 16 613 4 613 341 56 341"></polyline>
                <polyline id="Path-3" stroke="#9013FE" stroke-width="1.5" stroke-linecap="round" fill-rule="nonzero" points="56 75 130.610951 68 229.868647 60 330.12869 48 430.205012 24 528 16 613 4"></polyline>
                <path d="M56,300 L614,300" id="Line-3-Copy" stroke="#666666" opacity="0.1" stroke-linecap="square" fill-rule="nonzero"></path>
                <circle id="Oval-Copy" stroke="#9013FE" fill="#FFFFFF" fill-rule="nonzero" cx="331" cy="48" r="4"></circle>
                <circle id="Oval-Copy" stroke="#9013FE" fill="#FFFFFF" fill-rule="nonzero" cx="231" cy="60" r="4"></circle>
                <circle id="Oval-Copy-2" stroke="#9013FE" fill="#FFFFFF" fill-rule="nonzero" cx="131" cy="68" r="4"></circle>
                <path d="" id="Path-2" stroke="#979797" fill-rule="nonzero"></path>
                <rect id="Rectangle" fill="#4A0072" fill-rule="nonzero" x="382" y="81" width="205" height="118"></rect>
                <text id="In-2017,-the-deficit" font-family="SourceSansPro-Light, Source Sans Pro" font-size="18" font-weight="300" fill="#FFFFFF">
                    <tspan x="400.512" y="114">In 2017, the </tspan>
                    <tspan x="487.452" y="114" font-family="SourceSansPro-Semibold, Source Sans Pro" font-weight="500">deficit</tspan>
                    <tspan x="536.61" y="114"> was </tspan>
                    <tspan x="398.145" y="137" font-family="SourceSansPro-Semibold, Source Sans Pro" font-weight="500">$660 billion, which led </tspan>
                    <tspan x="414.372" y="160" font-family="SourceSansPro-Semibold, Source Sans Pro" font-weight="500">to $ 20.2 trillion of </tspan>
                    <tspan x="466.743" y="183" font-family="SourceSansPro-Semibold, Source Sans Pro" font-weight="500">debt</tspan>
                </text>
                <path d="M487,20 L487,81" id="Line-14" stroke="#B3532D" stroke-linecap="square" fill-rule="nonzero"></path>
                <path d="M435,24 L527,16" id="Line" stroke="#B3532D" stroke-width="5" stroke-linecap="square" fill-rule="nonzero"></path>
                <circle id="Oval" stroke="#9013FE" fill="#FFFFFF" fill-rule="nonzero" cx="529" cy="16" r="4"></circle>
                <circle id="Oval" stroke="#9013FE" fill="#FFFFFF" fill-rule="nonzero" cx="431" cy="24" r="4"></circle>
            </g>
        </g>
    </g>
</svg>