<?xml version="1.0" encoding="UTF-8"?>
<svg width="610px" height="362px" viewBox="0 0 610 362" version="1.1" xmlns="http://www.w3.org/2000/svg" xmlns:xlink="http://www.w3.org/1999/xlink">
    <!-- Generator: Sketch 52.2 (67145) - http://www.bohemiancoding.com/sketch -->
    <title>Group 13</title>
    <desc>Created with Sketch.</desc>
    <g id="Page-1" stroke="none" stroke-width="1" fill="none" fill-rule="evenodd">
        <g id="BP---V6" transform="translate(-767.000000, -630.000000)">
            <g id="Group-13" transform="translate(767.000000, 620.000000)">
                <text id="2016" font-family="SourceSansPro-Light, Source Sans Pro" font-size="15.2307692" font-weight="300" fill="#666666">
                    <tspan x="409" y="369">2016</tspan>
                </text>
                <polygon id="Rectangle-16" fill="#FAFAFA" fill-rule="nonzero" points="50 261 608 261 608 301 50 301"></polygon>
                <polygon id="Rectangle-16" fill="#FAFAFA" fill-rule="nonzero" points="50 181 608 181 608 221 50 221"></polygon>
                <polygon id="Rectangle-16" fill="#FAFAFA" fill-rule="nonzero" points="50 101 608 101 608 141 50 141"></polygon>
                <polygon id="Rectangle-16" fill="#FAFAFA" fill-rule="nonzero" points="50 21 608 21 608 61 50 61"></polygon>
                <text id="2015" font-family="SourceSansPro-Light, Source Sans Pro" font-size="15.2307692" font-weight="300" fill="#666666">
                    <tspan x="309" y="369">2015</tspan>
                </text>
                <text id="2014" font-family="SourceSansPro-Light, Source Sans Pro" font-size="15.2307692" font-weight="300" fill="#666666">
                    <tspan x="208" y="369">2014</tspan>
                </text>
                <text id="2013" font-family="SourceSansPro-Light, Source Sans Pro" font-size="15.2307692" font-weight="300" fill="#666666">
                    <tspan x="109" y="369">2013</tspan>
                </text>
                <path d="M49.5,11 L49.5,341" id="Line-35" stroke="#7D7D7D" stroke-width="1.5" stroke-linecap="round" fill-rule="nonzero"></path>
                <path d="M49.5,341 L609,341" id="Line-36" stroke="#7D7D7D" stroke-width="1.5" stroke-linecap="round" fill-rule="nonzero"></path>
                <text id="2017" font-family="SourceSansPro-Semibold, Source Sans Pro" font-size="29.6153846" font-weight="500" fill="#666666">
                    <tspan x="496" y="371">2017</tspan>
                </text>
                <path d="M50,221 L608,221" id="Line-3" stroke="#666666" opacity="0.1" stroke-linecap="square" fill-rule="nonzero"></path>
                <path d="M50,261 L608,261" id="Line-3" stroke="#666666" opacity="0.1" stroke-linecap="square" fill-rule="nonzero"></path>
                <path d="M50,301 L608,301" id="Line-3" stroke="#666666" opacity="0.1" stroke-linecap="square" fill-rule="nonzero"></path>
                <text id="$-4.0-T-$-3.5-T-$-3." font-family="SourceSansPro-Light, Source Sans Pro" font-size="15" font-weight="300" line-spacing="40" fill="#666666">
                    <tspan x="0.3" y="15">$ 4.0 T</tspan>
                    <tspan x="0.3" y="55">$ 3.5 T</tspan>
                    <tspan x="0.3" y="95">$ 3.0 T</tspan>
                    <tspan x="0.3" y="135">$ 2.5 T</tspan>
                    <tspan x="0.3" y="175">$ 2.0 T</tspan>
                    <tspan x="0.3" y="215">$ 1.5 T</tspan>
                    <tspan x="0.3" y="255">$ 1.0 T</tspan>
                    <tspan x="0.3" y="295">$ 0.5 T</tspan>
                    <tspan x="21.63" y="335">$ 0</tspan>
                </text>
                <path d="M50,61 L608,61" id="Line-3" stroke="#666666" opacity="0.1" stroke-linecap="square" fill-rule="nonzero"></path>
                <path d="M50,101 L608,101" id="Line-3" stroke="#666666" opacity="0.1" stroke-linecap="square" fill-rule="nonzero"></path>
                <path d="M50,141 L608,141" id="Line-3" stroke="#666666" opacity="0.1" stroke-linecap="square" fill-rule="nonzero"></path>
                <path d="M50,181 L608,181" id="Line-3" stroke="#666666" opacity="0.1" stroke-linecap="square" fill-rule="nonzero"></path>
                <path d="M50,21 L608,21" id="Line-3" stroke="#666666" opacity="0.1" stroke-linecap="square" fill-rule="nonzero"></path>
                <path d="M402,80 L446,80 C447.656854,80 449,81.3431458 449,83 L449,341 L399,341 L399,83 C399,81.3431458 400.343146,80 402,80 Z" id="Rectangle-2" fill="#0A2F5A" fill-rule="nonzero"></path>
                <path d="M302,81 L346,81 C347.656854,81 349,82.3431458 349,84 L349,341 L299,341 L299,84 C299,82.3431458 300.343146,81 302,81 Z" id="Rectangle-2" fill="#0A2F5A" fill-rule="nonzero"></path>
                <path d="M202,96 L246,96 C247.656854,96 249,97.3431458 249,99 L249,341 L199,341 L199,99 C199,97.3431458 200.343146,96 202,96 Z" id="Rectangle-2" fill="#0A2F5A" fill-rule="nonzero"></path>
                <path d="M102,120 L146,120 C147.656854,120 149,121.343146 149,123 L149,341 L99,341 L99,123 C99,121.343146 100.343146,120 102,120 Z" id="Rectangle-2" fill="#0A2F5A" fill-rule="nonzero"></path>
                <path d="M502,76 L546,76 C547.656854,76 549,77.3431458 549,79 L549,341 L499,341 L499,79 C499,77.3431458 500.343146,76 502,76 Z" id="Rectangle-2" fill="#0A2F5A" fill-rule="nonzero"></path>
            </g>
        </g>
    </g>
</svg>