<?xml version="1.0" encoding="UTF-8"?>
<svg width="218px" height="128px" viewBox="0 0 218 128" version="1.1" xmlns="http://www.w3.org/2000/svg" xmlns:xlink="http://www.w3.org/1999/xlink">
    <!-- Generator: Sketch 59.1 (86144) - https://sketch.com -->
    <title>Group 3011</title>
    <desc>Created with Sketch.</desc>
    <defs>
        <polygon id="path-1" points="0.74025 0.285 216.8475 0.285 216.8475 118.5762 0.74025 118.5762"></polygon>
    </defs>
    <g id="Desktop" stroke="none" stroke-width="1" fill="none" fill-rule="evenodd">
        <g id="Homelessness-Section-3-11" transform="translate(-548.000000, -2467.000000)">
            <g id="Group-30" transform="translate(548.000000, 2467.000000)">
                <path d="M11.124675,97.99905 L10.391925,97.8363 L8.834175,98.9358 L8.030175,99.2163 L7.187175,100.36755 L6.983925,101.5083 L6.001425,102.50355 L4.542675,102.57855 L4.044675,103.8573 L5.205675,104.57505 L5.964675,105.46605 L6.541425,106.51905 L7.546425,107.3193 L8.135925,108.4428 L6.652425,108.50955 L6.761175,107.50755 L6.002175,107.50755 L4.146675,108.5073 L2.933925,109.39005 L4.013175,110.5773 L4.362675,111.3618 L5.602425,111.8343 L6.740175,111.6243 L7.421925,112.0668 L7.700175,111.60105 L8.522925,111.20655 L8.818425,111.19455 L8.282175,111.84705 L8.778675,112.2153 L8.915175,112.98105 L8.363925,113.48655 L7.766175,113.32755 L7.120425,114.18555 L6.599925,113.9178 L5.867925,114.0648 L5.567925,115.01205 L4.913925,115.9743 L4.577925,117.0243 L5.213175,117.75405 L5.217675,118.70505 L5.793675,119.11155 L6.512925,119.90955 L7.567425,119.6013 L8.024175,120.1023 L7.883925,120.6558 L7.961925,121.67955 L8.563425,121.6818 L9.308925,121.1043 L9.649425,121.97805 L9.887175,121.3698 L10.391175,122.12055 L10.841175,121.5423 L11.078925,121.7853 L11.857425,121.3908 L11.541675,122.09505 L11.398425,123.2433 L10.823175,123.75405 L10.634925,124.05855 L9.523425,124.93155 L9.127425,125.5173 L8.132925,125.67855 L7.267425,126.4683 L6.465675,126.91155 L5.520675,127.6098 L5.714175,127.9653 L7.169925,127.5483 L7.862175,127.07205 L8.682675,126.5913 L9.413925,126.2058 L9.974175,126.31755 L10.973925,125.67105 L11.228925,124.9893 L12.497925,124.2258 L12.696675,123.56655 L13.486425,123.1188 L14.357925,122.48055 L15.177675,121.29855 L14.594175,120.5433 L15.707925,119.4543 L16.268925,118.35705 L17.210925,117.5073 L17.346675,117.76455 L16.523175,118.25505 L16.147425,119.90205 L16.278675,120.9588 L17.274675,120.58455 L17.999175,120.0438 L18.914925,119.71305 L19.436175,119.5923 L19.268175,118.44705 L20.064675,118.13805 L21.005175,118.82355 L22.620675,119.5818 L23.744925,119.4423 L25.144425,120.01155 L25.903425,120.31005 L27.566175,121.9293 L28.537425,122.3868 L29.849925,122.43105 L30.574425,122.52405 L30.993675,123.8988 L32.041425,125.10405 L32.273175,126.3768 L33.005175,126.8433 L33.512925,127.44855 L34.040175,126.6543 L34.016925,125.68305 L32.621925,124.74555 L31.804425,123.06705 L31.298175,121.97205 L30.544425,121.2528 L30.008925,120.6228 L29.537925,119.71755 L28.646925,120.28305 L27.911925,121.10205 L27.248175,120.1443 L26.682675,119.4408 L25.871175,118.9713 L25.113675,118.91655 L25.122675,100.7073 L24.201675,100.3653 L22.940175,99.6348 L21.857925,100.02105 L21.266925,99.7293 L19.694175,99.49755 L17.969175,98.72955 L17.139675,98.97255 L15.986925,98.5878 L16.035675,98.00805 L14.540175,97.84755 L14.231925,98.25705 L13.693425,97.22955 L12.380175,96.65955 L11.124675,97.99905 Z M-7.5e-05,113.7138 L0.254925,113.92305 L0.962175,113.81805 L1.256175,114.1248 L1.916175,114.54255 L2.600175,114.12105 L2.702925,113.8158 L1.828425,113.5533 L1.148925,113.0553 L0.643425,113.2428 L0.059175,112.83555 L-7.5e-05,113.7138 Z M3.439425,119.11455 L4.048425,119.65905 L4.617675,119.98155 L5.207175,119.68455 L5.114925,118.9473 L4.391925,118.7808 L3.439425,119.11455 Z M14.641425,122.84805 L13.864425,123.41655 L14.003925,124.1943 L14.486925,124.6383 L15.351675,124.03455 L16.112175,123.26655 L15.708675,122.71305 L15.110175,122.5968 L14.641425,122.84805 Z" id="Fill-1" fill="#B7B7B7"></path>
                <g id="Group-29" transform="translate(0.750000, 0.465000)">
                    <g id="Group-4">
                        <mask id="mask-2" fill="white">
                            <use xlink:href="#path-1"></use>
                        </mask>
                        <g id="Clip-3"></g>
                        <path d="M206.59875,28.0977 C206.57775,28.16595 206.5545,28.2537 206.538,28.3572 C206.5545,28.26945 206.57775,28.18545 206.57775,28.12245 C206.5545,28.16145 206.538,28.18545 206.51625,28.23945 C206.5545,28.16595 206.5545,28.0977 206.59875,28.04895 L206.59875,28.0977 Z M181.23075,59.94645 C181.2915,60.0342 181.3305,60.06795 181.392,60.13695 C181.323,60.05295 181.23075,59.96595 181.1475,59.88345 C181.1655,59.9307 181.209,59.9307 181.23075,59.94645 L181.23075,59.94645 Z M216.8385,24.1797 L216.8385,23.93595 C216.80775,23.9697 216.77775,24.02895 216.765,24.0777 C216.765,23.95545 216.68175,23.88195 216.651,23.8032 C216.52125,24.09195 216.12075,23.65245 216.45975,23.4762 C216.52125,23.4612 216.56025,23.44245 216.6045,23.40795 L216.6045,23.4027 L216.6045,23.3337 L216.543,23.31495 L216.48225,23.13345 L216.48225,23.07495 L216.438,23.04045 L216.3555,22.87395 L216.3555,22.82145 L216.3255,22.7862 L216.234,22.61445 L216.234,22.60095 L216.12075,22.60095 L216.06825,22.56645 L216.03825,22.6497 L215.886,22.71795 L215.62875,22.71795 L215.49825,22.6497 L215.45475,22.56645 L215.364,22.5222 L215.27175,22.38045 L215.20275,22.2192 L215.20275,22.19895 L215.1285,22.12095 L215.11875,22.0482 L215.01525,21.9987 L214.968,21.82245 L214.968,21.68595 L215.01525,21.52995 L215.08875,21.51045 L215.08875,21.4317 L215.1285,21.27045 L215.01525,21.20145 L214.968,21.03045 L214.968,20.64945 L215.01525,20.4627 L215.11875,20.36145 L214.833,20.36145 L214.67925,20.28195 L214.62825,20.24295 L214.476,20.24295 L214.33275,20.1597 L214.302,20.06745 L214.20975,20.0322 L214.18875,19.98495 L214.12725,19.98495 L213.984,19.90095 L213.87075,19.76445 L213.819,19.67145 L213.74025,19.63695 L213.68775,19.4652 L213.7275,19.3287 L213.68775,19.20645 L213.68775,19.0797 L213.74025,18.9027 L213.819,18.8682 L213.7875,18.8007 L213.7875,18.54645 L213.819,18.4782 L213.7875,18.41895 L213.7875,12.5697 C213.7485,12.54045 213.74025,12.5202 213.7275,12.4812 L213.65775,12.4812 L213.5055,12.43695 L213.47025,12.33495 L213.4095,12.2862 L213.348,12.1932 L213.288,12.1587 L213.20475,11.9877 L213.20475,11.9247 L213.16575,11.8992 L213.1215,11.7927 L213.0435,11.75295 L213.0135,11.69895 L212.961,11.69895 L212.80875,11.64045 L212.766,11.53245 L212.70525,11.4882 L212.67375,11.4447 L212.613,11.4447 L212.46975,11.3622 L212.43,11.27295 L212.3475,11.2392 L212.3265,11.1717 L212.265,11.1717 L212.1,11.10195 L212.09025,11.04945 L211.9995,11.04945 L211.9995,11.2002 L211.938,11.3622 L211.79475,11.4447 L211.4385,11.4447 L211.36425,11.42595 L211.32525,11.4447 L211.18125,11.4447 L211.13775,11.4987 L211.059,11.53245 L211.01625,11.64045 L210.855,11.69895 L210.477,11.69895 L210.4245,11.75295 L210.2715,11.8317 L210.198,11.8317 L210.198,11.8992 L210.04575,11.9637 L209.8095,11.9637 L209.658,11.8992 L209.62725,11.8317 L209.562,11.8317 L209.42325,11.75295 L209.37975,11.69895 L209.34,11.69895 L209.19675,11.64045 L209.136,11.45895 L209.136,11.43045 L209.0745,11.3712 C209.05275,11.35695 209.05275,11.32245 209.05275,11.27295 C209.031,11.2392 209.0145,11.2242 209.0145,11.2002 L209.0145,10.73595 L208.95375,10.7067 L208.8795,10.6137 L208.71375,10.51545 L208.5915,10.6812 L208.47825,10.9122 L208.47,10.93095 L208.22625,11.32245 L208.21275,11.3622 L207.969,11.62095 L207.969,11.64045 L207.7425,11.8992 L207.53925,12.13995 L207.303,12.5112 L207.273,12.54045 L207.04725,12.79995 L206.8335,13.17195 L206.61975,13.5582 L206.37225,13.9542 L206.33325,13.99245 L206.10675,14.24745 L205.91025,14.4672 L205.69725,15.8127 L205.69725,15.9147 L205.63725,16.0962 L205.49325,16.15395 L205.42425,16.15395 L205.41075,16.2237 L205.3275,16.2522 L205.31025,16.35495 L205.23675,16.3602 L205.23675,16.4427 L205.18425,16.63395 L205.02225,16.6827 L205.00125,16.6827 L205.00125,16.8342 L204.9405,16.9662 L204.984,17.0112 C205.02225,17.03445 205.08375,17.0937 205.1055,17.1327 C205.13625,17.22645 205.1145,17.3382 205.062,17.42145 L205.00125,17.47545 L205.00125,17.4942 L204.9405,17.66595 L204.879,17.68545 L204.879,17.7537 L204.828,17.91495 L204.9405,17.98845 L205.00125,18.15945 L205.00125,18.54645 L204.9405,18.6927 L204.858,18.7512 L204.828,18.84945 L204.75825,18.8682 L204.69675,18.98595 L204.53175,19.03995 L204.50025,19.03995 L204.46125,19.1232 L204.4305,19.12845 L204.46125,19.14345 C204.53175,19.2312 204.53175,19.3287 204.52275,19.4217 C204.50025,19.4997 204.4305,19.52895 204.38775,19.55895 L204.357,19.63695 L204.28725,19.67145 L204.24375,19.76445 L204.0915,19.82745 L204.03975,19.82745 L204,19.90095 L203.84775,19.98495 L203.77425,19.98495 L203.77425,20.0322 L203.682,20.06745 L203.6745,20.1597 L203.50875,20.24295 L203.48775,20.24295 L203.48775,20.24745 L203.42625,20.4192 L203.32575,20.4537 C203.32575,20.5077 203.304,20.5362 203.26575,20.5707 L203.304,20.60595 L203.32575,20.68845 L203.42625,20.72295 L203.469,20.83995 L203.53875,20.86395 L203.60025,21.03045 L203.60025,21.1677 L203.53875,21.34395 L203.37375,21.40245 L203.0385,21.40245 L202.87275,21.34395 L202.87275,21.37245 L202.896,21.4317 L202.896,21.55395 L202.812,21.73545 L202.71225,21.86295 L202.6905,21.8922 L202.6905,21.94995 L202.59975,22.12095 L202.4565,22.19895 L202.32075,22.19895 L202.1985,22.12095 L202.12875,21.94995 L202.12875,21.8922 L202.0545,21.86295 L202.0245,21.73545 L201.933,21.75945 L201.91125,21.86295 L201.75,21.94545 L201.729,21.94545 L201.729,21.94995 L201.66825,22.12095 L201.52425,22.19895 L201.27975,22.19895 L201.13725,22.12095 L201.063,22.06245 L201.05325,22.06245 L200.901,21.9987 L200.88,21.9597 L200.841,21.9987 L200.7675,22.0482 L200.745,22.12095 L200.6835,22.1562 L200.6835,22.3512 L200.6235,22.5222 L200.571,22.54695 L200.571,22.61445 L200.48025,22.7862 L200.41875,22.82145 L200.379,22.90395 L200.33625,22.9722 L200.33625,23.13345 C200.33625,23.28045 200.23575,23.38845 200.1315,23.38845 L199.23075,23.38845 L199.056,23.4762 L198.948,23.5107 L196.14525,23.5107 L195.98925,23.44245 L195.927,23.38845 L193.269,23.38845 L192.933,23.4762 L192.8805,23.5107 L187.7325,23.5107 L187.65375,23.4762 L187.63275,23.5107 L187.5585,23.5107 L187.55025,23.57445 L187.389,23.65245 L187.1925,23.65245 L187.18425,23.6967 L187.01925,23.7837 L187.01025,23.7837 L186.9585,23.8377 L186.8145,23.90145 L186.63225,23.90145 L186.60075,23.95545 L186.5265,23.9937 L186.4875,24.09195 L186.33225,24.16545 L186.201,24.16545 L186.14025,24.2247 L186.057,24.2637 L186.02625,24.35145 L185.91375,24.4887 C185.874,24.5277 185.844,24.5277 185.83125,24.5472 L185.7915,24.61095 L185.6265,24.7032 L185.58675,24.7032 C185.58675,24.74295 185.52525,24.7767 185.48325,24.8007 L185.3085,24.9132 L185.19975,25.00695 L184.8525,25.41195 L184.80825,25.45695 L184.5945,25.5792 L184.56375,25.6227 L184.56375,25.6377 L184.50375,25.81395 L184.3605,25.8822 L184.31625,25.8822 L184.299,25.91595 L184.194,26.1267 L184.155,26.19045 L184.07325,26.3127 L183.9675,26.5182 L183.8595,26.64045 L183.66375,26.7432 L183.57225,26.8557 L183.39825,26.91345 L183.21525,26.91345 L183.13275,27.0507 C183.0885,27.13395 183.05025,27.1932 182.94525,27.1932 L182.8065,27.1932 L182.8065,27.33945 L182.763,27.5112 L182.58075,27.5832 L182.3145,27.5832 L182.27025,27.65295 L182.14875,27.70245 L182.088,27.8382 L182.0355,27.9072 L181.8225,28.16145 L181.3695,28.7877 L180.92175,29.6727 L180.92175,29.69745 L180.4605,30.49395 L180.2475,30.59145 L173.1885,30.59145 L172.28775,30.9837 L171.57375,31.3752 L171.89925,32.04945 L172.0005,32.15745 L172.06125,32.32845 L172.06125,32.97345 L172.06125,33.00345 L172.06125,33.0177 C172.10475,33.0612 172.1445,33.0867 172.1565,33.1347 C172.27875,33.1497 172.37025,33.20445 172.41,33.2922 C172.431,33.34095 172.41,33.4632 172.392,33.5547 L172.47,33.6192 L172.53525,33.7707 L172.53525,34.0302 L172.53525,34.09845 L172.461,34.3002 C172.53525,34.4562 172.54425,34.6122 172.37025,34.71945 C171.32625,35.5602 170.27175,36.38745 169.2105,37.2087 C167.418,38.64195 165.00675,38.7552 163.16175,40.04595 C162.8475,40.25145 162.61275,40.5792 162.3255,40.8042 C161.6205,41.3367 160.911,41.2827 160.07625,41.3862 C159.74475,41.43495 159.42675,41.60595 159.13125,41.66445 C158.47875,41.7762 157.51725,41.60595 156.864,41.3757 C157.19025,41.1162 157.53825,41.24895 157.8645,41.1117 C158.19075,40.9752 158.22225,40.98945 157.74225,40.8132 C156.933,40.4952 156.09375,40.2312 155.2665,39.93795 C155.63175,39.2727 155.9715,38.62245 156.32925,37.9527 L156.32925,37.92795 L156.32925,37.4337 L156.40275,37.27695 L156.45,37.2087 L156.45,37.0527 L156.51675,36.8817 L156.6765,36.80745 L156.69,36.80745 L156.75975,36.75945 L156.903,36.6762 L157.00275,36.6762 C157.19925,36.31395 157.41225,35.95245 157.58625,35.6052 C157.89525,35.01795 158.22225,35.00895 158.313,35.6247 L158.4045,35.6247 C158.5395,35.2767 158.66175,34.9347 158.77425,34.5927 L158.77425,34.0302 L158.8485,33.8592 L158.90925,33.81495 L158.90925,33.7707 L158.97,33.6192 L159.0315,33.5547 L159.0315,33.50745 L159.0525,33.40395 L159.08325,33.3057 C159.0525,33.20445 159.009,33.08145 158.93925,32.8857 C158.90925,32.68995 158.8485,32.46045 158.8185,32.25945 C158.74425,31.8252 158.72175,31.4037 158.622,30.9837 C158.47875,30.1962 158.47875,29.10045 157.94775,28.4892 C157.20825,27.65295 156.35025,28.52295 155.59275,28.98795 C155.24475,29.2122 153.86475,30.3627 153.53925,29.98095 C153.4035,29.80395 153.495,29.4822 153.50925,29.27145 C153.53925,29.10045 153.56925,28.8357 153.6915,28.6452 C153.957,28.20945 154.53075,28.4112 154.797,28.01445 C154.94925,27.76995 154.836,27.4962 154.94925,27.24195 C155.1225,26.8797 155.511,26.97795 155.715,26.6742 C155.9415,26.3127 155.9415,24.8847 155.88075,24.4542 C155.8065,23.88195 154.653,22.60095 155.9415,23.0652 C155.93175,22.5807 155.715,22.60095 155.59275,22.26345 C155.532,22.0482 155.553,21.8277 155.47125,21.70545 C155.289,21.37245 154.6005,21.18195 154.30425,21.03045 C153.8745,20.86395 153.42675,20.79645 153.04725,20.6112 C152.6685,20.43945 152.60775,19.86195 152.094,19.7487 C151.776,19.69095 151.60275,19.77795 151.3065,19.6557 C151.0935,19.52895 150.906,19.3092 150.66225,19.21095 C150.43575,19.1382 149.79225,19.0062 149.6175,19.20645 C149.33475,19.4997 149.1915,21.11295 149.81325,21.0507 C149.37375,21.3972 148.73925,21.1437 148.29075,21.60345 C147.91125,21.9987 148.0425,22.60095 148.0035,23.16795 C147.96375,23.8032 147.7905,23.1822 147.555,23.32545 C147.41175,23.4027 147.255,24.14595 147.177,24.31245 C146.93625,23.9892 147.177,23.65245 147.22425,23.30445 C147.177,23.30445 147.177,23.3337 147.1455,23.3337 C147.177,23.13345 147.42825,22.19895 147.13275,22.2822 C147.063,22.3122 146.754,22.8402 146.67225,22.92795 C146.60175,23.07495 146.5275,23.40795 146.38875,23.4762 C146.26275,23.57445 146.17125,23.32545 146.0805,23.3727 C145.97925,23.40795 145.93575,23.5587 145.83525,23.6322 C145.7445,23.6667 145.5705,23.60895 145.52625,23.65245 C145.344,23.90145 145.30125,24.31245 145.1265,24.57195 C145.07925,24.6597 144.88275,24.6447 144.831,24.74295 C144.29925,25.5057 144.2295,26.91345 143.952,27.8247 C143.79075,28.32345 144.08625,28.75245 144.13425,29.2917 C144.20775,29.9607 143.92125,30.64545 144.0735,31.31595 C144.147,31.70295 144.3825,32.51895 144.80025,32.1762 C144.81375,32.74395 144.81375,33.0612 144.9135,33.5367 C144.9525,33.82545 144.9345,34.12845 144.9435,34.41195 C144.97425,36.4662 143.5515,38.15295 142.63275,39.82545 C142.8465,39.82545 143.208,39.7527 143.3985,39.82545 C143.625,39.93795 143.79075,40.32495 143.808,40.6857 C143.79075,40.2702 143.5335,39.88995 143.11125,39.82545 C142.41975,39.7527 142.01025,40.35345 141.375,40.4907 C140.90475,40.5792 140.187,40.32495 140.004,39.8697 C139.452,38.62245 138.98175,37.7037 138.99825,36.31395 C139.0635,35.1702 138.77625,33.9957 138.6855,32.84595 C138.633,32.2947 138.71625,31.98645 138.86025,31.4667 C139.08225,30.58245 139.10325,29.6187 139.347,28.7382 C139.5345,27.9702 139.86075,27.3942 140.0265,26.6157 C140.17725,25.9557 140.36925,25.3782 140.61825,24.7572 C140.67825,24.57195 140.718,24.24795 140.58675,24.02895 C140.862,24.24795 141.375,23.5932 141.4965,23.3487 C141.80625,22.71795 141.80625,22.4142 141.74025,21.68595 C141.6015,21.9597 141.54975,22.1562 141.35325,22.38045 C141.26175,22.4682 141.17925,22.3752 141.027,22.5222 C140.9835,22.61445 140.99625,22.8687 140.92275,22.9722 C140.892,23.03145 140.718,23.11395 140.67825,23.23695 C140.57475,23.40795 140.39925,23.8032 140.57475,23.9892 C140.535,23.9457 140.4735,23.88195 140.39175,23.88195 C140.16525,23.7942 139.65675,24.09195 139.473,24.39495 C139.18575,24.8352 139.134,25.1187 138.633,25.3692 C138.468,25.46595 138.633,25.69695 138.324,25.5357 C138.08925,25.41195 138.18,25.36395 138.18,25.1052 C138.24525,24.80595 138.41625,24.57195 138.573,24.35145 C138.67275,24.14595 138.7995,23.6667 138.92025,23.52495 C138.99825,23.44245 139.16475,23.52495 139.24725,23.4612 C139.473,23.2167 139.71675,22.93845 139.839,22.60095 C140.004,22.0482 140.36925,21.6372 140.64825,21.1677 C140.82225,20.89845 140.92275,20.60595 141.06675,20.28195 C140.99625,20.28195 140.9445,20.24745 140.90475,20.20845 C140.9835,20.24745 141.06675,20.1897 141.23175,20.06745 C141.72375,19.67145 141.8235,19.03995 142.08825,18.45345 C142.071,18.84945 142.119,19.2312 142.08825,19.6167 C142.3365,19.52895 142.5585,19.36695 142.71525,19.1382 C142.74525,19.0992 142.815,18.79095 142.8285,18.79095 C142.71525,18.8547 143.66475,18.6447 143.60325,18.5757 C144.1995,18.9432 142.52775,19.67145 143.37675,20.06745 C143.625,19.63695 143.66475,19.4367 144.01275,19.20645 C144.08625,19.15695 144.29925,19.0992 144.36075,19.03995 C144.465,18.9432 144.444,18.76695 144.53475,18.6447 C144.9135,18.06195 145.50525,18.06195 146.0805,18.3747 C146.05725,17.9547 146.898,18.17895 147.177,17.98845 C147.35025,17.82195 147.3675,17.5677 147.603,17.47545 C147.79875,17.37195 148.17675,17.47545 148.3905,17.5287 C148.67775,17.5677 149.06475,17.7147 149.30475,17.85195 C149.5785,18.02745 150.03975,18.76695 150.375,18.7512 C150.74475,18.73695 150.43575,17.8707 150.8055,17.7297 C151.071,17.62695 151.66275,17.98845 151.9725,17.98845 C152.25975,18.04245 152.56425,18.06195 152.8515,18.1152 C153.01725,18.1452 153.61725,18.3507 153.66075,18.04245 C153.66075,18.04245 153.66075,17.98845 153.639,17.98845 L153.53925,17.98845 C153.42675,17.98845 153.3645,17.9547 153.33375,17.8707 L153.23925,17.6502 L153.12975,17.5287 L153.12975,17.5092 C153.09975,17.5047 153.078,17.47545 153.06375,17.47545 C153.0555,17.42595 153.0555,17.42145 153.078,17.37195 L152.95575,17.3232 L152.8905,17.26995 L152.76825,17.1477 L152.721,16.9662 L152.721,16.90245 C152.6385,16.8342 152.58525,16.78545 152.5245,16.7172 C152.58525,16.63395 152.412,15.9792 152.25975,15.73845 C152.25975,15.7047 152.229,15.6552 152.199,15.63645 L151.776,15.63645 L151.737,15.77745 C151.68525,15.84645 151.61475,15.8952 151.524,15.8952 L151.176,15.8952 L151.02,15.8127 L150.396,15.00045 C150.153,14.93595 149.9055,14.88345 149.661,14.82945 C149.23125,14.8002 149.47425,14.1102 149.7135,13.89945 C149.14725,13.8612 148.482,14.06595 147.92925,14.14395 C146.9895,14.29695 146.02725,14.4672 145.07925,14.62395 C144.77025,14.66295 144.465,14.87295 144.20775,15.01545 C143.952,15.1617 143.7465,15.43095 143.5335,15.5622 C143.15475,15.75345 142.8465,15.49395 142.41975,15.3087 C141.8145,15.0447 141.17925,15.1227 140.55675,14.9712 C140.55675,14.89695 139.89975,13.9542 139.7565,13.79745 C139.20825,13.14195 138.41625,13.2102 137.6325,13.05795 C137.6805,13.0002 137.7105,12.94095 137.73225,12.90195 C137.30175,13.1322 136.83225,13.49895 136.536,13.9542 C136.4655,13.57245 136.671,13.19595 136.62675,12.86745 C136.60575,12.7167 136.40025,12.3057 136.38375,12.2517 C136.2315,12.1197 136.035,11.9247 135.90075,11.8212 C135.86175,11.77695 135.9915,11.5617 135.86925,11.4882 C135.726,11.3712 135.01275,11.8992 134.847,11.97795 C133.68,12.5892 132.52725,13.2102 131.37,13.82145 C131.37,13.82145 131.37,13.83195 131.34825,13.83195 L131.34825,13.82145 C130.67325,14.1882 129.99,14.53545 129.31575,14.89695 C128.9985,15.08295 127.95375,14.3157 127.584,14.1252 C127.362,13.99245 127.91025,13.54845 127.89225,13.3032 C127.87125,12.4572 126.02925,13.5327 125.6595,13.68945 C125.2725,13.8612 124.88475,14.0907 124.455,14.1882 C123.93225,14.3157 123.42375,14.0907 122.8875,13.9542 C124.1895,12.76995 125.51625,11.5617 126.8085,10.38795 C127.362,9.89895 127.8105,9.4647 128.424,9.1362 C129.507,8.57445 130.67325,8.12445 131.8395,7.5957 L131.757,7.55595 L131.69625,7.50345 L131.61375,7.50345 L131.60475,7.55595 L131.4525,7.6347 L131.39175,7.6347 L131.37,7.69395 L131.20425,7.76745 L131.061,7.69395 L131.043,7.6347 L130.878,7.6347 L130.71675,7.55595 L130.6515,7.38495 L130.6515,7.32195 L130.6125,7.3167 C130.308,7.2627 129.99975,7.20945 129.67275,7.1067 C129.97725,7.1457 130.24275,7.16595 130.54275,7.20945 L130.46925,7.16595 L130.46025,7.06245 L130.3695,7.0437 L130.32525,6.9747 L129.9075,6.9747 L129.855,7.0437 L129.681,7.1067 L128.7495,7.1067 L128.64975,7.0437 L128.5275,7.1067 L127.93125,7.1067 L127.779,7.0437 L127.758,6.96045 L127.67475,6.90645 L127.605,6.7452 L127.605,6.6672 L127.5525,6.64695 L127.5015,6.4572 L127.5015,6.44145 L127.46175,6.4467 L127.3005,6.4467 L127.2795,6.51495 L127.1355,6.57945 L127.074,6.57945 L127.05225,6.64695 L126.87,6.7107 L126.8265,6.7107 L126.79575,6.7692 L126.6525,6.8382 L126.6435,6.8382 L126.58275,6.90645 L126.50025,6.96045 L126.44775,7.0437 L126.378,7.06245 L126.348,7.16595 L126.18225,7.24395 L125.9085,7.24395 L125.886,7.3017 L125.7255,7.36545 L124.8945,7.36545 L124.7415,7.3017 L124.7115,7.13145 L124.7115,7.1067 L124.4325,7.1067 L124.281,7.0437 L124.2285,6.8622 L124.2285,6.7452 C124.2285,6.7107 124.2495,6.68595 124.2495,6.68595 L124.16775,6.64695 L124.14975,6.57945 L123.849,6.57945 L123.71925,6.51495 L123.67575,6.4467 L123.50175,6.4467 L123.3495,6.3732 L123.318,6.28545 L123.249,6.25095 L123.19725,6.1527 L123.114,6.1137 L123.0615,5.9427 L123.0615,5.79195 L122.8095,5.79195 C122.77875,5.79195 122.75775,5.7672 122.75775,5.7672 C122.71425,5.7672 122.70525,5.79195 122.67525,5.79195 L122.43075,5.79195 L122.43075,6.0807 C122.43075,6.1722 122.3655,6.25095 122.28675,6.28545 L122.26575,6.3732 L122.1,6.4467 L121.99125,6.4467 L121.848,6.3732 L121.80375,6.27495 L121.713,6.25095 L121.62975,6.0807 L121.62975,6.0162 L121.59975,5.98245 L121.56075,5.8887 C121.49925,5.85495 121.425,5.79195 121.425,5.6697 L121.425,5.37045 L121.36425,5.32695 L121.34325,5.2722 L120.71175,5.2722 L120.54675,5.19945 L120.477,5.03295 L120.477,4.75395 L120.486,4.71945 L120.44625,4.68045 L120.381,4.6227 L120.2415,4.6227 L120.0765,4.54845 L120.024,4.48995 L119.985,4.48995 L119.85,4.4127 L119.7885,4.34295 L119.772,4.34295 L119.60625,4.27995 L119.60625,4.24095 L119.5545,4.27995 L119.44125,4.34295 L119.0625,4.34295 L118.91025,4.27995 L118.8885,4.2207 L118.53975,4.2207 L118.50075,4.27995 L118.3575,4.34295 L118.24425,4.34295 C118.23525,4.34295 118.2135,4.3377 118.19625,4.31895 C118.161,4.3377 118.1535,4.34295 118.131,4.34295 L118.092,4.34295 L118.092,4.50045 L118.05225,4.68045 L117.909,4.74945 L117.5085,4.74945 L117.45675,4.8132 C117.39525,4.87695 117.31275,4.8957 117.23475,4.8522 L117.1905,4.87695 L116.62125,4.87695 L116.4555,4.8132 L116.4255,4.71945 L116.35125,4.68045 L116.2815,4.50045 L116.2815,4.2942 L116.2425,4.27995 L116.21175,4.2207 L115.20675,4.2207 L115.0455,4.1472 L115.01025,4.0842 L114.8805,4.0842 L114.70575,4.03095 L114.636,3.8442 L114.636,3.8307 L114.34875,3.8307 L114.30525,3.8787 L114.162,3.95295 L113.919,3.95295 L113.77425,3.8787 L113.74425,3.8307 L113.57025,3.8307 L113.418,3.7617 L113.38725,3.6687 C113.32725,3.6252 113.29575,3.58995 113.283,3.5322 L113.2005,3.48795 L113.1615,3.39945 C113.07825,3.3657 113.0175,3.2967 113.0175,3.18945 L113.0175,2.42145 L112.90425,2.0802 L112.90425,2.0052 L112.90425,1.81545 L112.791,1.6047 L112.773,1.4877 L112.773,1.40445 L112.69125,1.20795 L112.65225,1.09095 L112.65225,0.8907 L112.569,0.67995 L112.54725,0.5682 L112.54725,0.5292 L112.3035,0.37695 C112.2825,0.3582 112.24275,0.3327 112.221,0.2847 L111.69075,0.2847 L111.69075,2.0052 L111.62475,2.1762 L111.48525,2.24595 L8.03475,2.24595 C8.004,2.36745 8.0205,2.50395 8.09475,2.7297 C8.1435,2.8812 8.361,3.0912 8.41275,3.17445 C8.6475,3.5322 8.30775,3.48345 9.02625,3.3657 C8.8395,3.7917 9.24825,3.8442 9.27,4.2072 C9.27,4.2942 9.105,4.6422 9.066,4.71945 C9.02625,4.78395 9.1785,4.8522 9.105,4.9302 C9.01275,5.0622 8.709,5.1357 8.59575,5.2137 C8.77875,5.0862 9.3525,5.5857 9.49575,5.8647 C9.67875,6.27495 9.43575,6.6807 9.8235,7.0917 C9.9885,7.2627 10.17075,7.16595 10.149,7.38495 C10.149,7.50345 9.8535,7.60545 9.792,7.72245 C9.762,7.7622 9.68775,8.0022 9.67875,8.10945 C9.627,8.19795 9.5355,8.2167 9.49575,8.37345 C9.45375,8.5062 9.597,8.65695 9.579,8.71095 C9.579,8.79495 9.43575,8.9652 9.43575,9.0237 C9.444,9.05745 9.49575,9.2442 9.49575,9.2937 C9.49575,9.2727 9.6705,9.51795 9.67875,9.59145 C9.67875,9.6597 9.49575,9.7482 9.48375,9.84495 C9.48375,9.89895 9.579,9.98295 9.579,10.0467 C9.579,10.1742 9.68775,10.3737 9.68775,10.45695 C9.67875,10.81845 9.6705,10.5837 9.51375,10.8777 C9.3525,11.2002 9.126,11.27295 8.75625,11.64945 C8.30775,12.0807 8.1945,12.0267 7.57275,12.2517 C7.60275,12.2862 7.60275,12.33495 7.60275,12.3687 C7.16325,12.33495 7.2555,12.06045 7.4685,11.75295 C7.2945,11.8557 7.14225,12.0267 6.95925,12.09045 C7.059,11.9247 7.26375,11.8212 7.36875,11.64045 C7.4505,11.5182 7.40775,11.32245 7.482,11.2002 C7.62075,10.93095 7.878,10.98045 7.878,10.5507 C8.004,10.98045 7.79475,11.32245 8.05125,11.67045 C8.1645,11.08245 8.217,10.9122 8.565,10.54545 L8.583,10.51545 C8.565,10.54545 8.565,10.5507 8.54325,10.5507 L8.565,10.5507 L8.54325,10.5507 C8.49075,10.73595 8.41275,10.8777 8.391,11.04945 C9.414,10.82895 8.922,9.3762 8.49075,8.7447 C8.59575,8.8182 9.135,8.77395 9.1785,8.6757 C9.24825,8.47095 9.01275,8.10945 8.98275,7.8357 C8.77875,8.19795 8.41275,8.43645 8.1435,8.8422 C7.938,9.17595 7.734,9.17595 7.40775,9.45495 C7.22475,9.62595 7.04175,9.9972 6.94575,10.22145 C6.837,10.51545 6.65025,10.51545 6.9675,10.6137 C7.16325,10.6677 7.55175,10.44195 7.734,10.3197 C7.656,10.3932 6.7725,11.08245 6.7335,10.7202 C6.68025,10.3542 6.95925,9.89895 7.14225,9.61545 C7.31625,9.35145 7.52925,9.2097 7.62075,8.9307 C7.7775,8.6427 7.695,8.28045 7.878,8.1582 C7.9605,8.43645 7.938,8.7357 7.86,8.9652 C8.05125,8.77395 8.23875,8.4132 8.391,8.1582 C8.51325,7.9137 8.6955,8.0022 8.4735,7.6992 C8.226,7.4202 7.908,6.8622 8.1255,6.5742 C8.0205,6.6672 7.878,7.24395 7.79475,7.2777 C7.55175,7.38495 6.7935,6.6027 6.7545,6.38745 C5.811,6.38745 4.9305,6.64695 3.99975,6.4572 C2.87775,6.27495 1.79325,5.6697 0.74025,5.2722 C0.77925,5.98245 0.77025,6.6672 0.95325,7.36545 C1.197,8.3142 1.79325,9.1362 2.15025,10.0077 C2.27175,10.22145 2.21175,10.4667 2.286,10.6812 C2.40675,11.10195 2.68125,11.46945 2.7855,11.8992 C2.86875,12.2622 2.87775,12.6087 2.7855,12.97095 C3.06825,11.8557 3.42975,12.83895 4.13475,12.8487 C3.891,12.97545 3.1815,13.0827 3.3075,13.4697 C3.204,13.4007 3.06825,13.3227 2.9685,13.2102 C3.0075,13.3227 3.03,13.78245 3.11175,13.86495 C3.31725,14.2077 3.9825,13.7637 4.113,14.29695 C3.8475,14.3157 3.6645,14.4867 3.82575,14.74095 C3.78675,14.7117 3.7035,14.67795 3.6435,14.65245 C3.78675,14.8002 3.82575,15.00045 3.86025,15.19545 L3.747,15.75345 C3.34725,16.40895 3.4605,14.9322 3.3075,14.7072 C3.21225,15.25995 3.37725,15.94395 3.17325,16.4577 C4.287,16.6827 5.4135,16.8192 6.5505,16.9767 C5.9145,17.0937 5.27925,17.18145 4.62675,17.3037 C4.1565,17.3667 3.86025,17.0112 3.4815,16.80495 C3.82575,17.5977 3.4605,18.17895 3.543,19.0062 C3.59025,19.36695 3.7035,19.5387 3.7035,19.95945 C3.687,20.24745 3.61275,20.52195 3.59025,20.8212 C3.543,21.11295 3.63375,21.34395 3.63375,21.52995 C3.63375,22.34145 3.42975,23.1822 3.243,23.95545 C3.09075,24.5472 3.204,25.3002 3.13425,25.9557 C3.06825,26.7432 3.03,27.5832 2.94675,28.4112 C2.92875,28.7337 2.89875,29.0217 2.86875,29.3307 C2.8035,29.56995 2.7855,29.79045 2.7855,30.00045 C2.72475,30.5727 2.52,31.0512 2.286,31.6047 C2.40675,31.46295 2.49825,31.31595 2.59875,31.17795 C2.703,31.31595 2.8035,31.50195 2.84625,31.67745 C2.7855,31.6332 2.703,31.6047 2.64225,31.5552 C2.286,32.2257 1.36275,33.6687 1.4325,34.41195 C1.45425,34.64595 1.6185,34.7832 1.70175,34.9347 C1.9155,35.34495 1.97625,35.3022 1.88475,35.8887 C1.8105,36.30045 1.842,36.70995 1.9155,37.0722 C2.028,37.67445 2.15025,38.15295 2.64225,38.5632 C2.84625,38.73945 2.72475,39.49245 2.72475,39.77145 C2.733,40.6857 2.733,41.62545 2.7645,42.5742 C2.7645,42.6432 2.7645,44.47695 2.68125,44.6877 C2.8035,44.5167 2.92875,44.34495 3.13425,44.3787 C2.92875,44.6127 2.6205,45.23595 2.46825,45.06795 C2.21175,45.5277 1.97625,46.1007 2.15025,46.5942 C2.286,47.0052 3.243,48.64395 3.56025,48.64395 L3.4815,48.64395 C3.726,49.18695 4.3785,50.1642 4.3785,50.8047 C4.3785,50.97645 4.23525,51.22095 4.218,51.4362 C4.13475,52.02795 4.422,52.38495 4.58325,52.94295 C4.74825,53.5587 4.3785,53.7012 4.74825,54.2292 C5.5665,55.4127 6.40725,56.58195 7.22475,57.7647 C7.36875,57.99495 7.36875,58.1847 7.18125,58.4247 C7.542,57.7647 8.06475,58.67895 8.43,58.93845 C8.45175,58.8897 8.43,58.84545 8.45175,58.8162 C8.59575,58.9722 9.43575,59.6577 9.1785,59.02095 C9.19575,59.04645 9.27,59.0607 9.309,59.0757 C9.20925,58.91445 9.19575,58.71795 9.1785,58.5867 C9.19575,58.71795 9.1785,58.07295 9.126,58.20045 C9.23175,57.82395 9.309,58.0092 9.45375,57.68145 C9.67875,57.7797 9.92325,58.0287 10.12725,58.10745 C10.497,58.22445 10.39725,58.0917 10.70175,57.9702 C10.806,57.9357 10.7625,57.73095 10.9455,57.73095 C11.11125,57.73095 11.31525,58.07295 11.49,58.10745 C11.673,58.1367 11.83725,58.0917 11.973,57.9702 C11.907,58.0287 11.85975,58.10745 11.80725,58.1667 C12.4125,57.95595 12.50325,57.8922 13.035,58.35195 C12.83025,58.2837 12.4605,57.99495 12.27675,58.0287 C12.16425,58.07295 12.216,58.22445 12.1125,58.2492 C11.973,58.29795 11.9295,58.35195 11.62425,58.31745 C11.42025,58.29795 11.2335,58.1847 10.998,58.1847 C10.824,58.1847 10.64175,58.31745 10.47525,58.31745 C10.17075,58.31745 9.801,58.1367 9.597,58.46895 C9.23175,59.10495 10.497,60.4887 10.67175,61.11495 C10.42725,60.88095 10.12725,60.7722 9.87525,60.5517 C9.762,60.43995 9.597,60.45945 9.597,60.25995 C9.579,60.13695 9.67875,59.60895 9.5445,59.50095 C9.04425,59.10495 9.02625,60.4257 9.05625,60.68445 C9.105,61.09095 9.414,61.4622 9.49575,61.8732 C9.579,62.4057 9.49575,62.39145 10.0665,62.8167 C10.39725,63.04245 10.824,63.2862 11.13225,63.5067 C11.172,63.5067 11.31525,63.4242 11.39775,63.5067 C11.60325,63.6972 11.82975,64.6122 11.673,64.9392 C11.49,65.2767 11.31525,64.98795 11.2545,65.1252 C11.0715,65.35095 11.172,65.58495 11.2545,65.8497 C11.31525,66.04545 11.33775,66.30945 11.39775,66.48495 C11.673,67.29195 12.50325,68.1282 13.035,68.7837 C13.62675,69.55095 14.17875,70.2402 14.823,70.95495 C15.0585,71.2377 15.0585,71.40045 15.16275,71.5857 C15.246,71.77695 15.16275,71.86095 15.36675,72.0462 C15.59325,72.28995 16.00275,72.60345 16.08075,72.91095 C16.1025,72.9852 15.981,73.0977 16.00275,73.1802 C16.02075,73.4397 16.04175,73.71345 16.08075,73.9917 C16.1025,74.16795 16.04175,74.5302 16.08075,74.6277 C16.1025,74.76945 15.9585,74.9217 16.125,74.98545 C16.57275,75.1962 17.06475,75.40095 17.50425,75.46395 C18.057,75.5232 18.43575,75.5862 18.966,75.7422 C19.437,75.8997 19.81575,75.60645 20.337,75.8802 C20.93325,76.1592 21.46425,76.6227 21.99525,77.01495 C22.26075,77.22495 22.60875,77.57295 22.91775,77.61645 C22.91775,77.63595 23.13075,77.51895 23.214,77.49795 C23.3445,77.49795 23.80575,77.39145 23.88,77.51895 C23.98875,77.79195 24.093,78.6282 24.32775,78.79995 C24.51075,78.9312 24.77625,78.76095 24.98025,78.76095 C25.503,78.76095 25.638,79.0977 26.0475,79.41195 C26.3955,79.71345 26.8215,79.90995 27.15225,80.2332 C27.684,80.72145 27.927,81.12345 28.17525,81.8622 C28.44075,82.6047 28.728,83.34795 28.97175,84.0822 C29.01525,84.1707 29.05425,84.22845 29.076,84.29295 L29.3805,84.3267 L30.2205,84.3267 L30.2595,84.2577 L30.41625,84.18945 L31.5,84.18945 L31.54875,84.13545 L31.722,84.05145 L32.8185,84.05145 L32.841,83.9937 L33.0015,83.92545 L34.1895,83.92545 L34.251,83.8662 L34.41525,83.79795 L35.5995,83.79795 L35.652,83.73495 L35.80425,83.67195 L36.97125,83.67195 L37.053,83.6022 C37.062,83.5827 37.1145,83.5827 37.12725,83.55795 C37.14525,83.5482 37.16625,83.53395 37.19625,83.53395 L38.259,83.53395 C38.38425,83.53395 38.463,83.6367 38.463,83.77845 L38.463,83.89545 L38.40225,84.07695 L38.35425,84.0957 L38.35425,84.1707 L38.289,84.3267 L38.22,84.38445 L38.22825,84.43845 L38.22825,84.55545 L38.22,84.57645 L38.259,84.57645 L38.40225,84.6537 L38.41575,84.7032 L38.60775,84.7032 L38.76375,84.78645 L38.772,84.8442 L38.9385,84.8442 L39.099,84.9237 L39.1605,84.97695 L39.29475,84.97695 L39.447,85.0302 L39.50775,85.11345 L39.651,85.11345 L39.80325,85.18695 L39.834,85.2207 L39.99975,85.2207 L40.1655,85.30395 L40.20375,85.3587 L40.3485,85.3587 L40.50075,85.43595 L40.55175,85.50945 L40.69575,85.50945 L40.839,85.5687 L40.87875,85.63245 L41.05275,85.63245 L41.19675,85.7007 L41.22675,85.7637 L41.40975,85.7637 L41.553,85.83795 L41.59725,85.8957 L41.73975,85.8957 L41.90175,85.9692 L41.92275,86.0277 L42.10575,86.0277 L42.249,86.10645 L42.288,86.1447 L42.46275,86.1447 L42.59775,86.2287 L42.65025,86.27745 L42.6975,86.27745 L42.83325,86.3562 L42.90675,86.42895 L43.1505,86.42895 L43.31625,86.4882 L43.31625,86.53695 L43.4985,86.53695 L43.6725,86.61495 L43.6815,86.67495 L43.73325,86.67495 L43.899,86.7522 L43.947,86.8152 L44.091,86.8152 L44.22525,86.8887 L44.295,86.93745 L44.54325,86.93745 L44.72625,87.00195 L44.72625,87.0597 L44.76525,87.0597 L44.93025,87.1437 L45,87.19695 L45.135,87.19695 L45.3,87.2802 L45.339,87.34845 L45.50475,87.34845 L45.62625,87.4077 L45.67425,87.46095 L45.849,87.46095 L45.99225,87.5397 L46.03575,87.5937 L46.07475,87.5937 L46.227,87.6567 L46.2705,87.73995 L46.536,87.73995 L46.71,87.8082 L46.719,87.85245 L46.893,87.85245 L47.05875,87.9162 L47.05875,87.98445 L47.09775,87.98445 L47.27175,88.05345 L47.33325,88.1262 L47.4765,88.1262 L47.6325,88.18995 L47.6805,88.2627 L47.81625,88.2627 L47.9895,88.30695 L48.042,88.37595 L48.1635,88.37595 L48.3255,88.4547 L48.3855,88.5132 L48.5295,88.5132 L48.67275,88.5912 L48.71625,88.65945 L48.8775,88.65945 L49.02075,88.7037 L49.0515,88.7817 L49.104,88.7817 L49.269,88.84995 L49.308,88.90395 L49.452,88.90395 L49.61775,88.9917 L49.65675,89.05095 L49.809,89.05095 L49.974,89.1192 L50.013,89.16345 L50.16525,89.16345 C50.18775,89.16345 50.2095,89.18745 50.22675,89.2227 C50.27025,89.2227 50.292,89.2227 50.301,89.2512 L50.37075,89.3097 L50.505,89.3097 L50.679,89.3787 L50.7015,89.44695 L50.86275,89.44695 L51.006,89.5107 L51.02775,89.5692 L51.08775,89.5692 L51.25425,89.6427 L51.315,89.6862 L51.4365,89.6862 L51.6105,89.77395 L51.663,89.8332 L51.78525,89.8332 L51.94575,89.9112 L51.96825,89.9457 L62.44275,89.9457 L62.44275,88.10145 L62.517,87.9162 L62.6565,87.85245 L68.958,87.85245 C69.0315,87.85245 69.093,87.9162 69.14475,87.98445 L69.42825,87.98445 L69.58425,88.05345 L69.615,88.1502 L69.7065,88.20945 L69.7365,88.2777 L69.819,88.30695 L69.88875,88.4982 L69.88875,88.56645 L69.9195,88.5912 L70.011,88.76295 L70.011,88.84545 L70.04625,88.84995 L70.10625,89.0307 L70.10625,89.05095 L70.155,89.1192 C70.176,89.1342 70.176,89.16345 70.1985,89.18745 C70.215,89.22645 70.2375,89.25645 70.2375,89.29095 L70.2375,89.3097 L70.4025,89.3787 L70.4415,89.4717 L70.52475,89.5107 L70.54575,89.5692 L70.60725,89.5692 L70.7595,89.6427 L70.76775,89.6862 L70.9335,89.6862 L71.08575,89.77395 L71.1465,89.8527 L71.22075,89.9112 L71.25075,89.97945 L71.33325,90.04395 L71.373,90.13695 L71.44725,90.1557 L71.508,90.23445 L71.53875,90.23445 L71.691,90.30795 L71.75175,90.46395 L71.75175,90.49845 L71.8125,90.56145 C71.8125,90.5862 71.8125,90.6057 71.83425,90.61545 L71.83425,90.65445 L71.9175,90.6942 L71.96475,90.7872 L72.039,90.8067 L72.078,90.8907 L72.1215,90.8907 L72.27375,90.93795 L72.3045,91.02645 L72.387,91.09545 L72.41775,91.1442 L72.45675,91.1442 L72.63075,91.21245 L72.67425,91.3842 L72.67425,91.5252 L72.71325,91.5252 L72.85725,91.6137 L72.87975,91.7112 L72.95775,91.7307 L72.97875,91.8387 C73.062,91.84845 73.101,91.88295 73.12275,91.93545 L73.17525,91.93545 L73.3275,91.9947 L73.37925,92.16645 L73.37925,92.1807 L73.41,92.1807 L73.55325,92.2647 L73.56225,92.3322 L73.63575,92.3322 L73.79775,92.3952 L73.79775,92.4552 L73.98,92.4552 L74.14575,92.5272 L74.1765,92.62545 L74.26725,92.6412 L74.289,92.7387 L74.35875,92.78745 L74.4105,92.8857 L74.493,92.91945 L74.52375,92.9682 L74.6985,92.9682 C74.81925,92.9682 74.88075,93.0852 74.88075,93.2277 L74.88075,93.29595 L74.94225,93.31995 L74.994,93.40845 L75.0765,93.43845 L75.08475,93.54045 L75.18975,93.57495 L75.25125,93.72645 L75.25125,93.7797 L75.312,93.84345 L75.3735,94.0197 L75.3735,94.3377 C75.4155,94.3767 75.4335,94.4007 75.45525,94.4397 L75.51675,94.49895 L75.621,94.6707 L75.621,94.6902 L75.66,94.76895 L75.72075,94.93995 L75.89475,95.0262 L75.94725,95.18895 L75.94725,95.26245 L76.008,95.28645 L76.06875,95.4477 L76.06875,95.97645 L76.008,96.14295 L75.94725,96.1812 L76.008,96.2007 L76.06875,96.3717 L76.06875,96.56295 L76.13025,96.6027 L76.182,96.76395 L76.182,96.8322 L76.24275,96.87045 L76.3125,97.0227 L76.3125,97.0962 L76.335,97.11495 L76.47825,97.2522 L76.539,97.4382 L76.539,97.57995 L76.5915,97.6527 L76.713,97.7712 L76.74375,97.8837 L76.818,97.9032 L76.88775,98.0742 L76.88775,98.08845 L76.90875,98.08845 L77.07,98.17245 L77.07,98.23095 L77.235,98.23095 L77.40975,98.3037 L77.43075,98.3622 L77.4915,98.3622 L77.6445,98.43645 L77.66625,98.5332 L77.775,98.57295 L77.82675,98.7642 L77.87025,98.83245 L77.91825,98.89545 L77.9715,98.89545 L78.11475,98.9547 L78.15825,99.0567 L78.228,99.08595 L78.258,99.15945 L78.34125,99.21345 L78.37125,99.2817 L78.53175,99.2817 L78.6975,99.3642 L78.71925,99.4137 L79.128,99.4137 L79.28025,99.48345 L79.30275,99.5757 L79.4025,99.6102 L79.446,99.69345 L79.51575,99.74595 L79.5465,99.8442 C79.59,99.84945 79.62,99.8787 79.638,99.9327 L79.68975,99.9327 L79.77225,99.96645 L79.82475,99.9327 L79.9335,99.9327 L80.0985,100.0062 L80.121,100.0647 L80.18175,100.0647 L80.334,100.1382 L80.36475,100.22595 L80.44725,100.27995 L80.508,100.44645 L80.508,100.4652 L80.64375,100.4652 L80.7945,100.53345 L80.826,100.58745 L81,100.58745 C81.069,100.58745 81.13425,100.65645 81.16575,100.7202 L81.44775,100.7202 L81.492,100.7397 L81.492,100.69095 L81.531,100.53345 L81.6135,100.48095 L81.66525,100.40745 L81.8175,100.3092 L81.8175,100.2942 L81.90075,100.1382 L81.98325,100.10445 L82.0005,100.0062 L82.12725,99.87345 C82.16625,99.8157 82.236,99.8157 82.31025,99.8157 L82.31025,99.7812 L82.31025,99.5217 L82.31025,99.47295 C82.31025,99.4137 82.28775,99.3642 82.31025,99.2967 C82.34925,99.2037 82.41,99.1452 82.51425,99.1452 L82.54425,99.1452 L82.54425,99.12495 L82.54425,99.08595 C82.51425,98.98845 82.54425,98.89545 82.58325,98.83245 L82.6365,98.7642 L82.6365,98.60295 L82.6965,98.43645 L82.77075,98.40195 L82.77075,98.2107 L82.81875,98.0397 L82.902,98.0007 L82.95375,97.9032 L83.02275,97.8837 L83.067,97.7712 L83.1195,97.75095 L83.1195,97.5267 C83.1195,97.4382 83.21025,97.3062 83.31975,97.3062 L83.57625,97.3062 L83.637,97.2522 C83.70225,97.19445 83.80275,97.1592 83.8725,97.19445 L83.8845,97.1787 L84.28125,97.1787 L84.28125,97.0227 L84.333,96.87045 L84.486,96.79245 L84.5595,96.79245 L84.582,96.7242 L84.7425,96.66045 L84.84675,96.66045 L84.999,96.7242 L85.008,96.79245 L85.06875,96.79245 L85.11225,96.81795 C85.182,96.79245 85.2345,96.76395 85.2735,96.81795 C85.33875,96.8217 85.37775,96.90495 85.38675,96.9582 L85.4775,96.9882 L85.521,97.04745 L85.848,97.04745 L85.86975,96.9882 L86.022,96.90495 L86.175,96.9882 L86.196,97.04745 L86.832,97.04745 C86.9145,97.04745 86.9535,97.0962 87.01425,97.1787 L87.363,97.1787 L87.402,97.11495 L87.52725,97.04745 L87.67125,97.04745 L87.77175,97.0962 L87.89325,97.04745 L88.02825,97.11495 L88.0455,97.1787 L88.11075,97.1787 L88.272,97.2522 L88.3335,97.4382 L88.3335,97.5072 L88.38525,97.52145 L88.455,97.6827 L88.455,97.71195 L88.47675,97.71195 L88.61175,97.7712 L88.65075,97.8492 C88.69425,97.82445 88.73325,97.82445 88.794,97.8492 C88.833,97.8837 88.87725,97.9422 88.89825,98.0007 L88.977,98.0397 L89.0295,98.2107 L89.0295,98.27445 L89.09025,98.3037 L89.12025,98.3922 L89.2035,98.43645 L89.2335,98.4942 L89.38575,98.4942 L89.55975,98.57295 L89.59125,98.64645 C89.66475,98.6907 89.7345,98.7642 89.7345,98.86245 L89.7345,99.0132 L89.74725,99.0132 L89.922,99.08595 L89.922,99.1452 L89.982,99.1452 C90.06525,99.1452 90.144,99.22395 90.165,99.31695 L90.27825,99.3642 L90.28725,99.45345 L90.3915,99.47295 L90.4305,99.55095 L90.4605,99.55095 L90.59625,99.6102 L90.678,99.7812 L90.678,99.9822 L90.7395,100.0062 L90.75675,100.10445 L90.831,100.1382 L90.861,100.20645 L90.9225,100.20645 L91.1055,100.27995 L91.1355,100.44645 L91.1355,100.63695 L91.188,100.65645 L91.24875,100.82745 L91.24875,101.16495 C91.332,101.20845 91.371,101.26845 91.371,101.36145 L91.371,101.38995 L91.43175,101.45745 L91.45275,101.5467 L91.55775,101.58045 L91.605,101.7462 L91.605,101.8107 L91.671,101.83995 L91.71825,102.01095 L91.71825,102.21645 L91.77975,102.2262 L91.8015,102.32445 L91.884,102.35895 L91.94475,102.52995 L91.94475,102.60795 L92.00625,102.6267 L92.0805,102.79845 L92.0805,102.8712 L92.12775,102.89145 L92.1495,102.9402 L92.18925,102.9402 L92.35425,103.0287 L92.43675,103.20045 L92.35425,103.3752 L92.2935,103.3902 L92.2935,103.5072 L92.35425,103.5417 L92.43675,103.7277 L92.43675,103.7907 L92.4585,103.8012 L92.5365,103.9827 L92.5365,104.17695 L92.589,104.20695 L92.598,104.2707 L92.67225,104.2707 L92.8245,104.34345 L92.86725,104.41695 L92.946,104.4657 L92.95875,104.5392 L93.15075,104.5392 L93.27675,104.6037 L93.35475,104.76495 L93.35475,104.9307 L93.36825,104.9307 L93.5205,104.99895 L93.58125,105.16095 L93.58125,105.3222 L93.612,105.3222 L93.76425,105.39495 L93.82575,105.5562 L93.82575,105.62445 L93.89025,105.6447 L93.9075,105.74295 L93.98175,105.7767 L94.07325,105.94845 L94.07325,106.28595 L94.10325,106.29495 L94.134,106.36395 L94.173,106.36395 L94.33875,106.4322 L94.3785,106.53045 L94.461,106.57995 L94.47375,106.6572 L94.5825,106.7067 L94.647,106.87245 L94.647,106.89195 L94.72575,106.90695 L94.76925,106.89195 L94.8915,106.89195 L95.0565,106.9647 L95.0565,107.0337 L95.127,107.0337 L95.2785,107.1072 L95.30925,107.1957 L95.4,107.2197 L95.46525,107.41095 L95.46525,107.58195 L95.49675,107.6112 L95.5875,107.78745 L95.5875,108.4422 C95.5875,108.4962 95.544,108.5307 95.544,108.5802 L95.544,108.6087 L95.62725,108.66795 L95.68725,108.8382 L95.68725,109.7682 L95.70075,109.7682 L95.87475,109.84545 L95.91375,110.0172 L95.91375,110.0862 L95.97525,110.11995 L96.027,110.2077 L96.09675,110.2617 L96.15825,110.4237 L96.15825,110.4822 L96.20175,110.5017 L96.2625,110.60445 L96.315,110.6382 L96.40575,110.8092 L96.40575,110.86845 L96.44475,110.88795 L96.519,111.0582 L96.519,111.15645 L96.54975,111.1617 L96.61875,111.3282 L96.61875,111.5382 L96.69225,111.55245 L96.7635,111.72345 L96.7635,111.85095 L96.71025,111.9252 L96.7635,111.9837 L96.7635,112.0122 L96.89775,112.0857 L96.97575,112.24245 L96.97575,112.5312 L97.4505,112.5312 L97.61175,112.5897 L97.63275,112.6737 L97.929,112.6737 L98.08125,112.7217 L98.112,112.83945 L98.208,112.8732 L98.247,112.95195 L98.3295,112.9902 L98.33775,113.0832 C98.412,113.0982 98.46,113.14695 98.48175,113.21595 L98.52075,113.1807 L98.74725,113.1807 L98.79975,113.22045 L98.8605,113.1807 L99.02625,113.25495 L99.0345,113.3232 L99.23025,113.3232 L99.3615,113.4012 L99.42225,113.4747 L99.44325,113.4747 L99.5955,113.5287 L99.62625,113.61645 L99.71775,113.6457 L99.753,113.7537 L99.8445,113.78295 L99.8835,113.8707 L99.94425,113.92545 L99.98775,113.97345 L100.14825,113.97345 L100.1925,114.0087 C100.25325,113.97345 100.2915,113.9592 100.33125,114.0087 L100.37475,113.97345 L100.497,113.97345 L100.64025,114.04245 L100.71,114.1152 L101.66325,114.1152 L101.703,114.1152 C101.7765,114.1107 101.84625,114.1152 101.907,114.1542 C101.907,114.1542 101.907,114.1152 101.928,114.1152 C102.01125,114.1107 102.11175,114.1152 102.1635,114.18345 L102.216,114.2427 L102.23775,114.2427 L102.399,114.3312 L102.429,114.40395 L102.5205,114.44295 L102.54225,114.53145 L102.6255,114.5757 L102.6855,114.64845 L102.76875,114.69795 L102.77775,114.7662 L102.8295,114.7662 L102.97275,114.84495 L103.01175,114.93195 L103.065,114.9027 L103.086,114.9027 L103.086,114.86895 L103.1385,114.69795 L103.29075,114.63495 L103.3605,114.63495 L103.374,114.5757 L103.5255,114.5022 C103.29075,114.4917 103.308,113.9442 103.1865,113.44545 C102.95175,112.5462 102.603,111.6162 102.47325,110.7072 C102.45075,110.46645 102.47325,110.21295 102.5205,110.04195 C102.4815,110.1642 102.76875,109.81695 102.72975,109.84545 C102.8295,109.67445 102.882,109.09245 102.94275,108.8532 C102.399,109.1172 102.23775,108.7992 101.703,108.75495 C101.7765,108.56445 101.703,108.2667 101.703,107.99745 C101.889,108.1692 102.05025,108.4962 102.216,108.66795 C102.1635,108.5307 102.8685,108.7362 102.54225,108.76545 C102.6255,108.75495 102.8295,108.75495 102.95175,108.6087 C103.116,108.4422 103.23825,107.98845 103.338,107.7282 C103.42125,107.4597 103.608,107.1072 103.548,106.89195 C103.548,106.83795 103.338,106.8582 103.29975,106.7937 C103.01175,106.21695 103.086,106.4817 102.6465,106.11945 C102.882,106.18245 103.308,106.03695 103.548,106.1052 C103.8525,106.18245 103.608,106.4322 103.91325,106.2417 C104.17875,106.1052 104.40525,105.3222 104.505,105.0387 C104.322,105.20895 104.11725,105.0387 103.95675,104.78445 C104.11725,104.9562 104.301,104.80845 104.505,104.62695 C104.505,104.76495 104.5875,104.8767 104.5875,104.96445 C104.67075,104.77395 104.7315,104.5587 104.84475,104.3832 C104.84475,104.5587 104.82225,104.78445 104.775,104.96445 C104.87475,104.69145 105.05775,103.3902 105.34425,103.3902 C105.4185,103.3902 105.63225,103.8012 105.672,103.8402 C105.876,104.0367 105.672,104.0757 106.03275,104.04045 C106.20675,104.02095 106.70775,103.6107 106.82025,103.5072 C106.389,103.25295 106.06275,102.79845 105.906,102.26595 C106.24575,102.21645 106.08075,102.4707 106.26825,102.60795 C106.6455,102.89145 107.00325,102.7842 106.677,102.1092 C106.881,102.18195 106.7985,102.52995 106.98075,102.60795 C107.1075,102.64245 107.3295,102.4077 107.577,102.35895 C107.24625,103.25295 107.8605,102.60795 108.3435,102.7842 C108.048,102.93045 107.72925,103.08195 107.5335,103.3317 C108.0645,103.08195 108.85275,102.69645 109.33575,102.2802 C109.07925,102.41145 108.804,102.5097 108.5385,102.4077 C109.13025,102.2262 109.57875,102.18195 110.07075,101.8647 C110.65425,101.45745 110.85,100.99845 111.25875,100.37745 C111.546,99.91245 111.50325,100.26045 111.66825,100.17645 C112.056,99.96645 112.40325,99.58995 112.713,99.2682 C112.569,99.1557 112.4775,99.2037 112.40325,99.0132 C112.40325,99.0132 112.29,99.09645 112.26,99.0567 C112.20825,98.9547 112.39575,98.7642 112.3515,98.6907 C112.3035,98.60295 112.0995,98.6907 112.0335,98.59245 C111.98625,98.43645 112.1385,98.3142 112.0995,98.1867 C112.0335,98.0007 111.90375,97.8492 111.8505,97.67745 C112.0335,97.67745 112.23,97.75095 112.3035,97.9422 C112.4775,97.80495 112.752,97.2867 113.0175,97.4082 C113.1825,97.48695 113.2005,97.75095 113.10825,97.9422 C112.8345,98.5332 112.65225,98.45595 113.13975,98.4942 C113.457,98.4942 113.65275,98.3427 113.98875,98.45595 C113.73525,98.57295 112.88625,98.89545 112.8345,99.22395 C112.8345,99.50745 113.2005,99.03195 113.2005,99.0132 C113.48775,98.86245 113.74425,98.72445 114.03225,98.59245 C114.3585,98.43645 114.654,98.3142 114.96225,98.17245 C115.47225,97.9422 115.842,97.96095 116.35125,97.81545 C116.1075,97.48695 116.4555,96.76395 116.57775,96.4062 C116.517,96.8322 116.41125,97.29645 116.41125,97.75095 C116.9565,97.35045 117.4785,97.57995 118.092,97.38495 C118.449,97.29645 117.97875,97.1352 117.98775,97.0962 C118.00125,97.0617 117.8655,97.0227 117.888,97.0032 C117.888,96.90495 118.05225,96.9582 118.07025,96.90495 C118.05225,96.9582 118.24425,96.69945 118.24425,96.69945 C118.29675,96.5727 118.28775,96.1722 118.33575,96.0102 C118.5315,96.13245 118.41825,96.31395 118.50075,96.45945 C118.97175,97.11495 119.985,97.38495 120.63825,97.72695 C121.25175,98.04495 121.80375,98.4942 122.409,98.43645 C122.61375,98.3922 122.87925,98.27895 123.105,98.26545 C123.00075,98.23095 122.67525,97.9032 122.67525,97.81545 C122.61375,97.5267 122.61375,97.81545 122.8095,97.59495 C123.00075,97.4082 123.65775,97.1787 123.91125,97.19445 C124.023,97.2132 124.5765,97.5072 124.7115,97.59495 C124.7325,97.6527 124.7205,97.91745 124.82475,98.04495 C124.94625,98.2107 125.80425,98.7642 125.9475,98.72445 C126.05175,98.66595 126.1125,98.27895 126.174,98.20095 C126.25575,98.43645 125.99025,98.5197 126.03825,98.79795 C126.05175,99.0672 126.399,99.21345 126.561,99.37995 C127.0305,99.83445 127.70925,100.65645 128.28,100.2942 C128.424,100.22595 128.64975,99.84945 128.57625,99.67395 C129.01575,99.39495 129.59025,99.3642 129.855,99.9327 C129.99,100.26045 129.67275,100.63695 130.164,100.48095 C130.7865,100.26045 130.164,99.6102 130.71675,99.6102 C130.5825,99.39495 130.67325,99.37995 130.5825,99.13545 C130.55175,99.0567 130.71675,99.08595 130.6125,98.92545 C130.49925,98.69595 130.23375,98.7642 130.143,98.3622 C130.386,98.47545 131.61375,98.6907 131.42175,98.9547 C131.92275,99.2967 132.22725,99.5562 132.80175,99.8442 C132.7185,100.0062 132.88425,100.1382 133.02825,100.3287 C133.20225,100.54395 133.476,99.9327 133.476,100.39245 C133.476,100.58745 133.128,101.0817 133.05825,101.3067 C133.32375,101.04795 133.73325,101.1162 134.03775,100.99845 C133.8645,100.69095 134.75475,100.2402 134.163,100.3092 C134.355,100.27995 134.4465,100.17645 134.48175,100.10445 C134.316,100.08345 134.151,100.0062 134.007,99.91245 C134.355,99.6102 133.27125,99.39495 133.128,99.31695 C133.1715,99.2967 133.25475,99.24195 133.27125,99.22395 C133.02825,99.21345 132.762,99.2037 132.4965,99.1452 C132.52725,99.12495 132.56625,99.12495 132.59775,99.08595 C132.58875,98.92545 132.5145,99.0567 132.58875,98.86245 C132.219,98.66595 132.036,98.57295 131.8095,98.23095 C132.11775,98.17245 132.43125,98.1432 132.71025,98.06445 C132.6795,98.0007 132.62775,97.9422 132.558,97.9032 C132.56625,97.9032 132.62775,97.8837 132.62775,97.8837 C132.53625,97.9032 132.22725,97.85445 132.2925,97.71195 C132.35325,97.44345 132.984,97.5072 133.23225,97.35045 C133.1805,97.1352 133.128,97.12995 133.25475,96.96345 C133.1895,96.9582 133.128,96.9582 133.05825,96.9582 C133.02825,96.90495 133.128,96.87045 133.128,96.8322 C133.02825,96.8322 133.0065,96.8322 132.945,96.81795 C133.31475,96.63645 132.78,96.50895 132.7185,96.0447 C132.702,96.33795 132.5145,96.2157 132.39225,96.4062 C132.06675,96.93495 132.2925,96.90495 131.86125,96.81795 C131.7795,96.76395 131.37,96.63645 131.39175,96.43095 C131.40075,96.31395 131.87925,96.2157 131.9835,96.0102 C131.61375,95.90745 129.2505,96.4452 129.189,95.75595 C129.14175,95.2422 130.75575,94.8912 131.14425,95.03145 C131.505,95.1747 132.43125,95.6877 132.702,95.37945 C133.02825,94.9827 133.1895,94.68495 133.6635,94.61595 C134.163,94.5192 134.664,94.41045 135.14325,94.4397 C135.97425,94.5087 136.83225,94.76895 137.64975,94.8417 C137.8545,94.8807 138.04125,93.6087 138.111,93.3597 C138.14175,93.25695 138.18,93.14445 138.23325,93.0267 C138.285,93.31995 138.468,93.25695 138.573,93.54045 C138.633,93.7797 138.468,93.9852 138.5115,94.16145 C138.5895,94.41045 138.7995,94.3377 138.92025,94.5087 C138.99825,94.65495 138.99825,94.9587 139.2255,95.18895 C139.37775,95.37945 139.791,95.18895 139.9215,94.9977 C139.86075,94.9827 139.82175,94.9827 139.7565,94.97895 C140.2005,94.8807 140.2785,94.65495 140.4525,94.16145 C140.36925,94.5087 140.2485,94.76895 140.16525,95.0907 C140.4735,94.93995 140.9445,94.8267 141.192,94.5087 C141.414,94.2102 141.27075,94.0587 141.414,93.72645 C141.4755,93.86295 141.61875,93.9657 141.67125,94.07295 C142.01025,93.3597 142.215,93.72645 142.398,94.3767 C142.215,94.26945 141.5805,94.65495 141.35325,94.7427 C142.63275,94.4397 143.952,94.30845 145.26225,94.16145 C145.26225,94.3767 145.28325,94.29345 145.344,94.5087 C145.17825,94.4802 144.9525,94.41045 144.80025,94.4262 C144.80025,94.4262 144.88275,94.5087 144.88275,94.4802 C144.20775,94.23945 144.9135,94.7427 145.1265,94.8807 C145.30125,94.97895 146.5935,95.8782 146.7975,95.77095 C147.00225,95.6487 146.46675,95.3007 146.3445,95.28645 C146.60175,95.18895 147.285,94.8807 147.41175,95.0517 C147.3675,95.1147 146.9895,95.26245 146.9895,95.34045 C147.00225,95.4087 147.921,96.0642 148.0425,96.20595 C147.8205,96.11745 146.91975,95.5512 147.072,95.90745 C147.13275,96.0447 147.38925,96.1812 147.5025,96.2742 C147.4815,96.2937 147.42825,96.2742 147.41175,96.2937 C147.57225,96.5277 147.89925,96.5727 148.09425,96.81795 C148.17675,96.88095 148.20825,96.9882 148.2765,97.0812 C148.61625,97.6527 148.6395,97.80495 149.13,97.57995 C148.995,97.6527 148.8915,97.71195 148.7205,97.7712 C149.883,97.29645 151.032,96.81795 152.199,96.33795 C152.76,96.11295 152.973,95.90745 153.44325,96.11295 C153.83475,96.2742 154.30425,96.56295 154.5915,96.90495 C154.85775,97.2132 154.91925,97.52145 155.2065,97.81545 C155.47125,98.0592 155.38875,98.0007 155.532,98.27445 C155.6145,98.43645 155.532,98.5332 155.7375,98.7642 C156.2805,99.2967 157.1085,99.5562 157.61625,100.1382 C157.8645,100.39245 158.49975,101.5512 158.343,101.8737 C158.091,101.83995 158.343,102.0507 158.3745,102.2802 C158.3955,102.4602 158.33475,102.56895 158.33475,102.72045 C158.304,103.11195 158.265,103.3902 158.19075,103.7382 C158.109,104.0757 157.8645,104.3832 157.791,104.6757 C157.73025,104.96445 157.8645,105.2637 157.76025,105.58545 C157.74225,105.7077 157.608,105.8112 157.608,105.89895 C157.58625,106.29495 157.8645,106.7547 158.07,107.1072 C158.0475,107.0337 158.02575,106.90695 157.99575,106.83345 C158.33475,107.13645 158.33475,106.89195 158.41725,106.68645 C158.60025,106.2267 158.3955,106.18245 158.091,105.87945 C158.66175,106.18245 158.835,106.6572 159.192,105.94845 C159.51,106.68645 158.49975,107.15145 158.5605,107.8212 C158.47875,107.8062 158.3745,107.8062 158.313,107.7522 C158.3745,108.0552 158.5785,108.2667 158.68275,108.5937 C158.93925,109.5477 159.5535,110.34945 160.197,111.0582 C160.197,110.9667 160.09275,110.6292 160.1145,110.58045 C160.197,110.37945 160.4415,110.2617 160.82025,110.1642 C160.833,110.13945 160.638,110.4327 160.638,110.34945 C160.638,110.36895 160.53225,110.36895 160.50225,110.4327 C160.485,110.5362 160.58475,110.6382 160.56375,110.7117 C160.4625,111.20595 160.50225,111.7632 160.6455,112.26195 C161.05425,112.24245 161.11575,111.6162 161.58525,111.4212 C161.28975,111.6897 161.1285,111.96795 160.941,112.37445 C161.58525,112.4772 161.6385,114.5757 161.78175,115.03545 C161.856,115.0197 162.03825,114.9027 162.108,114.93645 C162.5385,115.1472 163.2045,116.0862 163.614,116.5707 C163.809,116.77545 165.0765,118.01895 164.676,118.1502 C164.58375,118.1892 164.26725,117.8817 164.1885,117.8082 C164.11425,118.0377 164.145,118.32645 164.1885,118.5762 C164.3925,118.5657 164.55375,118.48245 164.77125,118.4382 C164.87175,118.4382 164.92425,118.30695 165.00675,118.30695 C165.11475,118.30695 165.24975,118.41945 165.3855,118.4292 C165.6375,118.4292 165.66825,118.34145 165.825,118.24845 C166.1295,118.0377 166.1295,118.0377 166.539,118.28745 C166.4775,118.2192 166.44675,118.1502 166.39575,118.1022 C166.46925,118.13595 166.64325,118.1847 166.74225,118.2717 C166.62075,118.1022 166.68225,118.0377 166.74225,117.8817 C166.9905,117.39345 167.256,116.8932 167.46075,116.3607 C168.01425,114.8892 167.949,113.25495 168.03075,111.6897 C168.09225,110.6382 168.01425,109.4742 167.091,108.99495 C167.256,109.0392 167.38725,109.1172 167.5395,109.22445 C167.091,108.51045 167.0295,107.6502 166.74225,106.89195 C166.4775,106.21695 166.1295,105.58545 165.873,104.8767 C165.55425,103.9482 165.333,102.93045 165.08475,101.96145 C165.2895,102.0507 165.3855,103.2972 165.78075,102.7542 C165.873,103.3752 165.873,103.9827 165.92475,104.6037 C166.41675,103.20045 165.98625,102.8577 165.432,101.78595 C165.1065,101.1702 164.7585,100.5777 164.493,99.9477 C164.28825,99.45345 164.10525,98.9547 163.9185,98.43645 C163.65225,97.65795 163.47,96.8217 163.266,96.0102 C163.0695,95.2422 162.65175,94.3377 162.63075,93.54045 C162.6,92.8647 162.41775,91.7307 162.67425,91.1292 C162.77325,90.8907 162.85725,90.65445 162.97875,90.92445 C163.962,90.44445 163.15275,90.3762 162.705,90.0627 C162.74325,90.0927 163.0005,90.2052 163.0395,90.17595 C163.16175,90.0492 163.18275,89.8527 163.287,89.7402 C163.43925,89.57445 163.6755,89.4717 163.81875,89.29545 C163.71375,89.3787 163.5615,89.3787 163.43025,89.44695 C163.49175,89.05095 163.6755,88.53195 163.47,88.2237 C163.614,88.2387 163.87875,88.4202 164.0145,88.36545 C164.2485,88.30695 164.55375,87.5742 164.64525,87.3837 C164.88,87.0357 165.72825,86.34195 165.69825,85.99395 C165.66825,85.8717 165.47625,85.9107 165.47625,85.8957 C165.2895,85.50945 165.129,85.0302 165.0765,84.6102 C165.168,84.6297 165.2895,84.7377 165.333,84.78645 C165.00675,85.5882 166.047,84.5172 165.76425,85.39245 C165.825,85.39245 165.83325,85.3587 165.873,85.3587 C165.873,85.3782 165.83325,85.4757 165.8415,85.50945 C166.10775,85.5342 166.64325,85.6077 166.64325,85.2072 C166.62075,85.2507 166.56,85.30395 166.5165,85.33845 C166.64325,84.7272 166.068,84.88845 165.74175,84.66945 C165.903,84.7032 166.1505,84.6102 166.27275,84.6102 C166.377,84.5952 166.40775,84.78645 166.539,84.7707 C166.773,84.7377 167.052,84.38445 167.256,84.22845 C167.37825,84.13545 167.91825,84.1497 168.0525,84.13545 C168.1755,84.1062 168.2055,84.03795 168.25725,83.92545 L168.25725,84.0957 C168.33975,83.77845 168.4395,83.4462 168.462,83.11845 C168.8325,83.4852 168.65775,83.55795 169.0755,83.4462 C169.53675,83.3292 169.92375,82.6692 170.325,82.41945 C170.568,82.23345 171.4905,81.8802 171.14325,81.4167 C170.9775,81.17145 170.7645,81.0402 170.9775,80.7162 C171.18225,80.8827 171.2565,81.1467 171.2865,81.4167 C171.4905,80.5947 171.6135,80.17395 172.1565,79.56795 C172.575,79.12695 173.07525,78.75045 173.51475,78.33945 C173.8755,78.03195 174.86775,78.2427 175.31625,78.22245 C176.052,78.22245 175.92975,77.47995 175.908,76.84845 C176.052,77.22495 176.013,77.58645 176.052,78.01245 C176.1045,77.8122 176.1345,77.57295 176.1735,77.36295 C176.439,76.5837 177.26175,76.04145 177.8325,75.4887 C177.588,75.64545 177.384,75.81645 177.135,75.93345 C177.33975,75.64545 178.41525,75.1962 177.92325,74.98995 C178.20225,74.72595 177.984,74.47695 177.8745,74.16795 C177.954,74.19795 178.119,74.40345 178.08,74.40345 C178.23225,74.40345 178.7715,74.1147 178.94625,74.16795 C179.307,74.23245 178.94625,74.4372 179.421,74.40345 C179.7555,74.38845 180.156,74.1342 180.51225,74.01195 C180.9525,73.8747 181.845,73.71345 182.127,73.2537 C182.397,72.8772 181.6785,73.23795 181.566,73.28295 C181.86225,72.63795 181.2615,73.19595 181.09575,73.2432 C181.0215,73.2537 180.9525,73.0632 180.822,73.0977 C180.678,73.0977 180.53475,73.35195 180.369,73.3857 C179.86875,73.42545 179.421,72.70095 179.2335,72.24045 C179.5425,72.63795 179.7555,72.8532 180.225,72.70095 C180.717,72.54945 181.85325,72.0117 181.2615,71.51295 C180.6135,70.9497 179.7765,71.17545 179.316,70.46595 C179.8605,70.85295 180.4605,70.9212 181.065,71.04345 C181.0215,70.8477 180.98325,70.46595 181.09575,70.3332 C181.23075,70.20645 181.1175,70.6467 181.065,70.5732 C181.1655,70.75995 181.23075,70.8822 181.30875,70.9647 C181.53525,70.8087 181.8225,70.6467 181.76175,71.04345 C182.58075,71.04345 184.5945,70.3332 184.299,69.0627 C184.164,68.6322 183.951,68.5152 183.54225,68.61195 C183.14925,68.6862 183.21525,69.4977 183.0885,69.8637 C183.006,69.54195 182.90625,68.8767 183.14925,68.5287 C183.14925,68.49495 183.08025,68.5287 183.08025,68.5287 C183.21525,68.18745 182.763,68.1282 182.5575,68.2017 C182.37525,68.26545 182.33175,68.5152 182.17125,68.54895 C182.067,68.56395 181.93575,68.48145 181.779,68.49495 C181.8225,68.1672 180.861,68.5287 180.53475,68.45595 C180.78675,68.1387 180.4905,68.00595 180.42975,67.6482 C180.4125,67.46295 180.6135,66.38295 180.678,66.72495 C180.73875,66.9252 180.552,66.9492 180.53475,67.14945 C180.53475,68.26545 181.209,68.2017 182.05725,67.6872 C181.845,67.61895 181.6575,67.4487 181.545,67.2087 C181.8225,67.44345 182.088,67.61445 182.47575,67.6482 C182.3445,67.5177 182.253,67.3647 182.18775,67.1847 C182.397,67.4682 182.67975,67.4682 183.006,67.3797 C182.8365,67.1847 182.5365,66.86145 182.49675,66.6372 C182.67975,66.86145 183.21525,67.30695 183.55875,67.3647 C183.36675,67.2042 183.37575,66.9252 183.29325,66.66645 C183.55875,66.9252 183.66375,67.57545 184.05075,67.8057 C183.76425,66.9252 183.33675,66.34845 183.13275,65.52045 C183.498,65.58495 183.39825,65.05695 183.48075,64.7247 C183.66375,65.14395 183.7245,65.6637 183.8895,66.0942 C183.807,65.55045 183.58125,64.03995 183.21525,63.7317 C183.13275,63.6822 182.72325,63.78045 182.58075,63.7122 C182.17125,63.5202 182.253,63.66345 182.067,63.7317 C182.15775,63.6972 182.067,63.8832 182.0355,63.90195 C181.86225,64.0002 181.47375,63.99045 181.2705,64.00545 C181.67025,63.7317 180.92175,62.76795 180.69525,62.4507 C180.92175,62.5962 181.1175,62.8062 181.2615,62.97795 C181.49625,63.3102 181.67025,63.6342 181.97475,63.33495 C181.97475,62.8062 181.905,62.4057 181.596,62.05845 C181.596,62.04495 181.575,62.04495 181.566,62.01945 C181.575,62.0292 181.596,62.04495 181.6185,62.05845 C181.575,62.0292 181.545,62.01045 181.5135,61.9752 C181.47375,61.9467 181.44375,61.93095 181.431,61.8972 C181.64025,62.04495 181.779,62.1027 181.8225,61.8732 C182.127,61.8732 182.17125,61.8582 182.3145,61.6377 C182.58075,61.03695 181.86225,60.6312 181.5135,60.25995 C181.47375,60.22995 181.431,60.1902 181.392,60.15645 C181.5135,59.6577 181.47375,60.17145 181.596,60.17145 C181.67025,60.17145 181.6785,60.22995 181.71825,60.22995 C181.93575,60.2247 182.17125,59.61795 182.232,59.34945 C182.37525,58.84545 182.37525,59.10495 182.127,58.79745 C181.8225,58.4247 180.9525,57.99495 180.57375,57.82395 C180.30825,57.73095 179.89875,57.64695 179.655,57.4422 C179.51175,57.3042 179.36775,56.9922 179.2335,56.7867 C179.0595,56.5272 179.10225,56.7867 178.92825,56.7717 C178.7715,56.7567 178.5975,56.9277 178.40625,56.80545 C178.36275,56.7717 178.293,56.80545 178.24125,56.7867 C178.61925,55.87245 179.421,55.0842 179.2545,54.05745 C179.5425,54.7767 179.037,55.3977 178.7715,56.06295 C178.65,56.27295 178.4895,56.5467 178.6935,56.6652 C178.92825,56.7867 179.037,56.46345 179.028,56.28795 C179.13375,56.5467 179.307,56.43945 179.37675,56.20545 C179.4675,56.3712 179.58975,56.90895 179.79525,56.9772 C179.9385,57.02595 180.0825,56.64945 180.174,56.69895 C180.4125,56.8842 180.6345,57.0852 180.861,57.27045 C181.2615,57.59295 181.6575,57.9222 182.067,58.20045 C181.98375,57.99495 181.91475,57.68145 181.85325,57.4617 C181.8225,57.37395 181.845,57.02595 181.8225,57.0117 C181.76175,56.9277 181.596,57.0807 181.49625,56.9922 C180.92175,56.46345 180.74775,56.15595 180.69525,55.2072 C180.78675,56.07795 180.9525,56.3277 181.8225,56.6652 C181.67025,56.2347 181.392,56.06295 181.323,55.6032 C181.2915,55.35345 181.30875,55.0362 181.362,54.78195 C181.575,53.8077 181.566,53.9997 181.1265,53.2107 C181.2615,53.38245 181.392,53.5827 181.596,53.5827 C181.3695,53.1582 181.1175,52.7517 180.9525,52.3017 C181.3695,52.33095 181.5135,51.9057 181.86225,51.6267 C182.05725,51.4752 182.0355,51.72495 182.262,51.4167 C182.397,51.2022 182.43675,51.2652 182.397,51.4752 C182.763,51.22095 183.11925,50.90295 183.48075,50.59995 C184.23825,50.85945 183.48075,50.8782 183.7245,51.22095 C183.612,51.22095 183.21525,51.37245 183.21525,51.5292 C183.1725,51.7392 183.66375,51.6657 183.84675,51.7392 C183.33675,51.8232 182.87625,51.6462 182.58075,52.06245 C182.43675,52.28745 182.37525,52.5897 182.262,52.81545 C182.49675,52.88895 182.763,52.86945 182.997,52.9032 C182.8065,53.0547 182.763,53.28945 182.649,53.5242 C182.58075,53.7252 182.10975,53.30895 182.05725,53.52945 C181.98375,53.7642 181.93575,54.05745 181.91475,54.31695 C181.93575,54.1557 182.127,53.86245 182.262,53.8962 C182.37525,53.8962 182.8455,54.4782 182.8065,54.6252 C182.8065,54.75645 182.43675,54.85995 182.3445,54.89445 C182.59725,55.31445 182.87625,55.35345 183.35475,55.5492 C183.13275,55.7742 183.006,55.5837 182.8065,55.5492 C182.49675,55.5297 182.63175,55.35345 182.253,55.63695 C182.0055,55.82895 182.5365,55.7742 182.58075,55.74495 C182.47575,55.9062 181.98375,56.05245 182.067,56.25345 C182.18775,56.4837 182.3145,56.71245 182.43675,56.94345 C182.43675,56.86995 182.43675,56.68395 182.397,56.58195 C182.763,56.7717 183.2325,57.88695 183.1725,56.8842 C183.21525,57.02595 183.33675,57.1437 183.39825,57.28095 C183.45825,57.0117 183.58125,56.7567 183.82875,56.58195 C183.79875,56.80545 183.951,57.0852 183.8895,57.3147 C183.84675,57.48645 183.57225,57.68145 183.48975,57.88695 C183.66375,57.6327 183.84675,58.0917 184.194,58.0092 C184.05075,58.1847 183.58125,58.66995 183.76425,58.83195 C183.6855,58.75695 184.5735,58.66995 184.5735,58.66995 C184.0335,59.7312 183.45825,60.6447 183.2325,61.8387 C183.18075,62.1132 183.255,62.74845 183.66375,62.5332 C183.8595,62.4297 183.7335,61.74045 183.86775,61.4967 C184.05075,61.15395 184.50375,61.0812 184.695,60.72345 C184.76925,60.58695 184.72575,60.43995 184.80825,60.22995 C184.8825,59.9307 185.02575,59.6577 185.178,59.36895 C185.373,58.87545 185.58675,58.39545 185.83125,57.9357 C186.036,57.48645 186.366,56.51295 186.732,56.27295 C186.70875,56.46345 186.702,56.6652 186.732,56.86995 C186.8355,56.4102 186.8355,55.9302 186.732,55.48095 C186.69225,55.6812 186.41325,55.6812 186.22275,55.5837 C186.5055,55.4472 186.60075,54.91395 186.69225,54.58995 C185.70075,54.1752 185.42175,52.50195 185.013,51.5292 C184.8825,51.2652 184.647,50.98695 184.70775,50.59995 C184.929,49.6512 186.11775,49.08345 186.753,48.64395 L186.69225,48.64395 C186.753,48.6237 186.8355,48.6102 186.87525,48.5847 C186.33225,49.0197 185.50425,49.44645 185.187,50.1012 C184.6035,51.24495 185.52525,51.67545 186.22275,52.36545 C186.56625,52.6932 187.32375,52.50195 187.40625,52.9662 C187.4505,53.2212 187.1625,53.6712 187.18425,53.9847 C187.389,53.90145 188.26875,53.29995 187.959,53.0112 C188.20725,52.9227 188.36775,52.50195 188.5515,52.28745 C188.48175,52.26795 188.42025,52.21845 188.3895,52.21845 C188.5515,52.0422 189.534,51.8232 188.98125,51.60795 C189.186,51.4167 189.47325,51.2652 189.639,51.01095 C189.678,50.95695 189.80025,50.58495 189.92625,50.4042 C190.239,50.0187 190.026,50.0817 190.0875,49.7487 C190.1265,49.5822 190.239,49.4802 190.2705,49.34295 C190.374,49.04445 190.374,48.72195 190.54875,48.3792 C190.64775,48.8292 190.374,49.26495 190.44375,49.75845 C190.60125,48.98145 190.587,48.28095 190.7745,47.57745 C190.866,47.2152 190.9575,46.8492 190.8045,46.6287 C190.587,46.40295 189.80025,46.5657 189.71775,46.30095 C189.639,45.9882 190.61775,45.1467 190.74375,44.70645 C190.7835,44.61795 190.7835,44.49045 190.8045,44.3787 L190.8045,44.5602 C191.088,43.7292 191.04975,43.29345 190.944,42.38895 C190.92675,42.3147 190.944,42.2562 190.92675,42.1977 L190.92675,42.3147 L190.92675,42.1392 L190.92675,42.1977 C190.944,42.58395 191.01,42.9702 191.04975,43.3662 C191.11875,43.98345 190.7835,44.4567 190.7835,45.06795 C190.722,45.21495 190.64775,45.3717 190.60125,45.44445 C190.866,45.46995 191.11875,45.46995 191.37525,45.44445 L191.54925,45.44445 C192.01125,45.4107 192.47175,45.3717 192.933,45.31845 C193.09425,45.25395 193.26,45.21495 193.42125,45.1662 C193.5855,45.13245 193.7685,45.07845 193.956,45.06795 C194.2395,44.98995 194.805,44.92245 195.07875,44.83845 C195.2445,44.75595 195.3885,44.6877 195.549,44.62845 C195.59175,44.62845 195.6225,44.61795 195.6315,44.6127 C195.81375,44.5602 195.98925,44.6127 196.20675,44.5302 C196.2975,44.47695 196.35,44.4567 196.3665,44.3592 C196.44975,44.3007 196.52325,44.3007 196.572,44.2857 C196.62375,44.2857 196.67625,44.3007 196.70625,44.3007 C196.881,44.2227 197.06325,44.1537 197.259,44.0562 C197.72025,43.8117 198.22125,43.55745 198.7215,43.3272 C198.003,43.3812 197.3115,43.47945 196.593,43.47945 C196.75875,43.29345 196.94175,43.0197 197.28975,42.8487 C196.428,43.0047 195.6225,43.4352 194.805,43.7292 C194.38275,43.8312 194.034,43.7922 193.608,43.9197 C193.21575,44.0262 191.91,43.65495 192.03225,44.55045 C191.958,44.3787 191.919,44.34495 191.86725,44.34495 C191.82825,44.3007 191.775,44.34495 191.745,44.47695 C191.72325,44.47695 191.72325,44.47695 191.7015,44.49045 C191.62275,44.5167 191.60175,44.6127 191.51925,44.65245 C191.36625,44.6622 191.15325,44.6127 191.0265,44.70645 C190.944,44.75595 190.866,44.9067 190.7835,45.06795 C190.82325,44.9262 190.92675,44.6877 191.01,44.62845 C191.11875,44.5602 191.214,44.5602 191.3145,44.5602 C191.62275,44.5302 191.36625,44.4567 191.4195,44.3787 C191.745,44.08995 191.94975,43.68945 192.3195,43.47945 C193.155,43.0392 193.97325,42.5742 194.835,42.15795 C195.31425,42.4272 196.428,41.88495 197.02425,41.9532 C198.0345,42.04095 199.10925,42.15795 200.09175,41.7972 C200.50125,41.64495 200.47125,39.9087 200.50125,39.57645 C200.71425,40.26645 201.1455,39.93795 201.546,39.73245 C201.24975,40.32495 201.24975,40.4232 201.49275,41.08695 C201.89475,40.79445 202.59975,39.9912 203.09925,39.93795 C203.36475,39.9087 203.3955,39.9912 203.28225,40.1682 C203.84775,40.25145 205.737,40.5297 205.9845,40.04595 C206.046,39.9087 205.96275,39.4437 205.94175,39.3072 C205.88025,38.94495 205.65825,38.41245 205.3275,38.29545 C205.3185,38.29545 204.69675,38.13945 204.77475,38.29545 C204.91875,38.46645 205.1145,38.2257 205.22775,38.3442 C205.41075,38.49045 205.35,38.6517 205.44075,38.8377 C205.80225,39.54195 205.75875,39.71295 205.00125,39.90345 C204.714,39.97245 204.297,40.0752 203.95725,39.82095 C203.63025,39.54195 203.63025,38.85195 203.48775,38.49045 C203.32575,38.20245 203.139,37.6542 202.93425,37.45845 C202.395,36.90045 202.32075,37.7712 201.8205,36.7692 C202.13775,36.6762 202.36425,36.0357 202.6905,35.80995 C202.956,35.63895 203.796,35.49195 203.37375,35.1207 C203.28225,35.49195 203.09925,35.37045 202.956,35.1702 C202.4865,34.5237 202.6905,33.4632 203.139,32.9247 C203.7525,32.15745 204.75825,31.2672 205.01025,30.26445 C205.19775,29.50095 205.22775,29.50095 205.75875,29.07645 C205.74975,29.10045 205.728,29.1777 205.69725,29.2122 C206.25,29.0217 206.22,29.0217 206.5545,29.65845 C206.4765,29.3397 206.40225,28.87095 206.4765,28.4742 C206.4765,28.52295 206.4765,28.56195 206.49375,28.63545 C206.49375,28.56195 206.51625,28.4937 206.51625,28.42545 C206.49375,28.81695 206.5545,29.1777 206.76,29.53095 C206.87325,29.13945 206.925,28.67895 207.09075,28.32345 C207.09075,28.32345 207.12075,28.32345 207.12075,28.3182 C206.9865,28.63545 207.01725,29.04195 207.31275,29.24745 C207.3645,29.04195 207.3645,28.87095 207.37725,28.67895 C207.37725,28.69995 207.39525,28.7187 207.39525,28.7382 L207.39525,28.67895 C207.39525,28.7337 207.417,28.7382 207.447,28.7382 C207.80325,28.66995 207.8865,28.36245 208.152,28.04895 C208.131,28.21995 208.152,28.2537 208.131,28.4112 C208.52175,28.4112 209.1525,28.4112 209.27925,27.8877 C208.8795,27.8877 209.7495,26.5182 209.84925,26.34195 C209.91075,26.19045 210.4545,25.00695 210.4245,25.6377 C210.4245,25.79445 210.258,26.05845 210.198,26.17545 C210.2715,26.12145 210.4245,26.12145 210.5235,26.0817 C210.40275,26.2587 210.198,26.4252 210.16725,26.6742 C210.4245,26.48445 211.01625,26.9622 211.30275,27.08445 C211.18125,26.6352 211.30275,26.09745 211.629,25.8192 C211.83375,25.6377 212.52975,25.5057 212.52975,25.82895 C212.92275,25.7157 212.80875,26.22945 213.02175,26.55195 C213.16575,26.31795 213.20475,26.01945 213.348,25.77495 C213.4095,25.9557 213.49125,26.12145 213.61425,26.24445 C213.65775,25.9122 213.86175,25.5252 214.053,25.2417 C214.4535,25.53945 215.10675,24.67845 215.59875,24.7572 C215.856,24.8007 215.886,25.17795 216.1125,24.96195 C216.3555,24.7572 216.64275,24.5472 216.8475,24.2832 L216.8385,24.1797 Z" id="Fill-2" fill="#B7B7B7" mask="url(#mask-2)"></path>
                    </g>
                    <path d="M140.620725,21.90795 C140.620725,25.6392 137.595225,28.66395 133.864725,28.66395 C130.133475,28.66395 127.107975,25.6392 127.107975,21.90795 C127.107975,18.17595 130.133475,15.15195 133.864725,15.15195 C137.595225,15.15195 140.620725,18.17595 140.620725,21.90795" id="Fill-5" fill="#FFD097" opacity="0.684082031"></path>
                    <path d="M199.93665,40.47195 C199.93665,44.2032 196.9119,47.22795 193.1799,47.22795 C189.4494,47.22795 186.4239,44.2032 186.4239,40.47195 C186.4239,36.73995 189.4494,33.71595 193.1799,33.71595 C196.9119,33.71595 199.93665,36.73995 199.93665,40.47195" id="Fill-7" fill="#FFD097" opacity="0.684082031"></path>
                    <path d="M209.2179,37.111575 C209.2179,40.842825 206.19315,43.867575 202.46115,43.867575 C198.73065,43.867575 195.70515,40.842825 195.70515,37.111575 C195.70515,33.379575 198.73065,30.355575 202.46115,30.355575 C206.19315,30.355575 209.2179,33.379575 209.2179,37.111575" id="Fill-9" fill="#FFD097" opacity="0.684082031"></path>
                    <path d="M76.98165,28.2039 C76.98165,31.93515 73.9569,34.9599 70.22565,34.9599 C66.4944,34.9599 63.46965,31.93515 63.46965,28.2039 C63.46965,24.4719 66.4944,21.4479 70.22565,21.4479 C73.9569,21.4479 76.98165,24.4719 76.98165,28.2039" id="Fill-11" fill="#FFD097" opacity="0.684082031"></path>
                    <path d="M51.061275,57.713175 C51.061275,61.444425 48.036525,64.469175 44.305275,64.469175 C40.574025,64.469175 37.549275,61.444425 37.549275,57.713175 C37.549275,53.981175 40.574025,50.957175 44.305275,50.957175 C48.036525,50.957175 51.061275,53.981175 51.061275,57.713175" id="Fill-13" fill="#FFD097" opacity="0.684082031"></path>
                    <path d="M127.490925,27.842025 C127.490925,31.573275 124.466175,34.598025 120.734925,34.598025 C117.003675,34.598025 113.978925,31.573275 113.978925,27.842025 C113.978925,24.110025 117.003675,21.086025 120.734925,21.086025 C124.466175,21.086025 127.490925,24.110025 127.490925,27.842025" id="Fill-15" fill="#FFD097" opacity="0.684082031"></path>
                    <path d="M156.250575,77.194125 C156.250575,80.925375 153.225825,83.950125 149.493825,83.950125 C145.763325,83.950125 142.737825,80.925375 142.737825,77.194125 C142.737825,73.462125 145.763325,70.438125 149.493825,70.438125 C153.225825,70.438125 156.250575,73.462125 156.250575,77.194125" id="Fill-17" fill="#FFD097" opacity="0.684082031"></path>
                    <path d="M194.8434,40.4763 C194.8434,44.20755 191.81865,47.2323 188.08665,47.2323 C184.35615,47.2323 181.33065,44.20755 181.33065,40.4763 C181.33065,36.7443 184.35615,33.7203 188.08665,33.7203 C191.81865,33.7203 194.8434,36.7443 194.8434,40.4763" id="Fill-19" fill="#FFD097" opacity="0.684082031"></path>
                    <path d="M22.523175,109.157025 C22.523175,112.888275 19.498425,115.913025 15.767175,115.913025 C12.035925,115.913025 9.011175,112.888275 9.011175,109.157025 C9.011175,105.425025 12.035925,102.401025 15.767175,102.401025 C19.498425,102.401025 22.523175,105.425025 22.523175,109.157025" id="Fill-21" fill="#FFD097" opacity="0.684082031"></path>
                    <path d="M32.3523,55.986075 C32.3523,59.717325 29.32755,62.742075 25.5963,62.742075 C21.86505,62.742075 18.8403,59.717325 18.8403,55.986075 C18.8403,52.254075 21.86505,49.230075 25.5963,49.230075 C29.32755,49.230075 32.3523,52.254075 32.3523,55.986075" id="Fill-23" fill="#FFD097" opacity="0.684082031"></path>
                    <path d="M127.4265,17.999775 C127.4265,21.731025 124.40175,24.755775 120.6705,24.755775 C116.93925,24.755775 113.9145,21.731025 113.9145,17.999775 C113.9145,14.267775 116.93925,11.243775 120.6705,11.243775 C124.40175,11.243775 127.4265,14.267775 127.4265,17.999775" id="Fill-25" fill="#FFD097" opacity="0.684082031"></path>
                    <path d="M208.19985,29.286375 C208.19985,33.017625 205.1751,36.042375 201.4431,36.042375 C197.7126,36.042375 194.6871,33.017625 194.6871,29.286375 C194.6871,25.554375 197.7126,22.530375 201.4431,22.530375 C205.1751,22.530375 208.19985,25.554375 208.19985,29.286375" id="Fill-27" fill="#FFD097" opacity="0.684082031"></path>
                </g>
                <text id="13,991,950" font-family="SourceSansPro-Semibold, Source Sans Pro" font-size="25.5" font-weight="500" letter-spacing="0.00749999983" fill="#FFFFFF">
                    <tspan x="38.095425" y="62.5275176">13,991,950</tspan>
                </text>
            </g>
        </g>
    </g>
</svg>