<?xml version="1.0" encoding="UTF-8"?>
<svg width="249px" height="224px" viewBox="0 0 249 224" version="1.1" xmlns="http://www.w3.org/2000/svg" xmlns:xlink="http://www.w3.org/1999/xlink">
    <!-- Generator: Sketch 59.1 (86144) - https://sketch.com -->
    <title>Group 423</title>
    <desc>Created with Sketch.</desc>
    <defs>
        <polygon id="path-1" points="0.268575 0.246 54.169575 0.246 54.169575 54.147825 0.268575 54.147825"></polygon>
        <polyline id="path-3" points="1.0815 0.495 0 158.25 194.1735 158.25 195.25425 0.495"></polyline>
        <polyline id="path-5" points="1.0815 0.495 0 158.25 194.1735 158.25 195.25425 0.495"></polyline>
        <polyline id="path-7" points="1.0815 0.495 0 158.25 194.1735 158.25 195.25425 0.495"></polyline>
        <polygon id="path-9" points="1.0815 0.495 0 158.25 194.1735 158.25 195.25425 0.495"></polygon>
        <polyline id="path-11" points="1.0815 0.495 0 158.25 194.1735 158.25 195.25425 0.495"></polyline>
        <polyline id="path-13" points="1.0815 0.495 0 158.25 194.1735 158.25 195.25425 0.495"></polyline>
    </defs>
    <g id="Desktop" stroke="none" stroke-width="1" fill="none" fill-rule="evenodd">
        <g id="Homelessness-Section-3-3" transform="translate(-255.000000, -2354.000000)">
            <g id="Group-42" transform="translate(250.000000, 2354.000000)">
                <g id="Group-14" transform="translate(5.250000, 0.504000)">
                    <path d="M172.373325,68.784225 C172.373325,80.374725 162.977325,89.769975 151.388325,89.769975 C139.797825,89.769975 130.402575,80.374725 130.402575,68.784225 C130.402575,57.195225 139.797825,47.798475 151.388325,47.798475 C162.977325,47.798475 172.373325,57.195225 172.373325,68.784225" id="Fill-1" fill="#372C7A"></path>
                    <path d="M172.44945,91.38165 L158.5197,91.38165 L144.25695,91.38165 L130.3272,91.38165 C124.5897,91.38165 119.89395,96.19665 119.8047,102.11565 C125.46795,105.15615 129.3432,111.24465 129.3432,118.24815 C129.3432,118.24815 129.99495,162.61815 130.3272,162.61815 L130.3272,210.5619 C130.3272,216.5589 135.0657,221.4654 140.85645,221.4654 C146.6487,221.4654 151.38795,216.5589 151.38795,210.5619 C151.38795,216.5589 156.1272,221.4654 161.91795,221.4654 C167.7102,221.4654 172.44945,216.5589 172.44945,210.5619 L172.44945,162.61815 C178.24095,162.61815 182.97945,157.71165 182.97945,151.71615 L182.97945,102.28365 C182.97945,96.2889 178.24095,91.38165 172.44945,91.38165" id="Fill-3" fill="#372C7A"></path>
                    <path d="M53.27745,68.784225 C53.27745,80.374725 43.88145,89.769975 32.2917,89.769975 C20.70195,89.769975 11.30595,80.374725 11.30595,68.784225 C11.30595,57.195225 20.70195,47.798475 32.2917,47.798475 C43.88145,47.798475 53.27745,57.195225 53.27745,68.784225" id="Fill-5" fill="#372C7A"></path>
                    <path d="M53.3529,118.2483 C53.3529,110.0118 56.45115,103.0413 63.7734,100.8048 C63.0699,95.50305 58.6599,91.3818 53.3529,91.3818 L39.42315,91.3818 L25.1604,91.3818 L11.2299,91.3818 C5.4384,91.3818 0.70065,96.28905 0.70065,102.2838 L0.70065,151.7163 C0.70065,157.7118 5.4384,162.6183 11.2299,162.6183 L11.2299,210.56205 C11.2299,216.55905 15.9699,221.46555 21.76065,221.46555 C27.5529,221.46555 32.2914,216.55905 32.2914,210.56205 C32.2914,216.55905 37.03065,221.46555 42.82215,221.46555 C48.61365,221.46555 53.3529,216.55905 53.3529,210.56205 L53.3529,190.61055 L53.3529,118.2483 Z" id="Fill-7" fill="#372C7A"></path>
                    <path d="M117.26625,55.85475 L99.37725,55.85475 L81.06,55.85475 L63.171,55.85475 C55.73325,55.85475 49.64775,62.15475 49.64775,69.85575 L49.64775,133.338 C49.64775,141.0375 55.73325,147.33825 63.171,147.33825 L63.171,208.91025 C63.171,216.612 69.2565,222.912 76.69425,222.912 C84.1335,222.912 90.219,216.612 90.219,208.91025 C90.219,216.612 96.3045,222.912 103.743,222.912 C111.18075,222.912 117.26625,216.612 117.26625,208.91025 L117.26625,147.33825 C124.704,147.33825 130.7895,141.0375 130.7895,133.338 L130.7895,69.85575 C130.7895,62.15475 124.704,55.85475 117.26625,55.85475" id="Fill-9" fill="#372C7A"></path>
                    <g id="Group-13" transform="translate(63.000000, 0.000000)">
                        <mask id="mask-2" fill="white">
                            <use xlink:href="#path-1"></use>
                        </mask>
                        <g id="Clip-12"></g>
                        <path d="M54.169575,27.197325 C54.169575,42.081825 42.102825,54.147825 27.218325,54.147825 C12.334575,54.147825 0.268575,42.081825 0.268575,27.197325 C0.268575,12.312825 12.334575,0.245325 27.218325,0.245325 C42.102825,0.245325 54.169575,12.312825 54.169575,27.197325" id="Fill-11" fill="#372C7A" mask="url(#mask-2)"></path>
                    </g>
                </g>
                <text id="75%-are" font-family="SourceSansPro-Regular, Source Sans Pro" font-size="12" font-weight="normal" letter-spacing="0.00749999983" fill="#3F3F3F">
                    <tspan x="198.719625" y="135.486813">75% a</tspan>
                    <tspan x="229.141125" y="135.486813" letter-spacing="-0.112500004">r</tspan>
                    <tspan x="233.072625" y="135.486813">e</tspan>
                </text>
                <text id="individuals" font-family="SourceSansPro-Regular, Source Sans Pro" font-size="12" font-weight="normal" letter-spacing="0.00749999983" fill="#3F3F3F">
                    <tspan x="198.719625" y="148.986813">individuals</tspan>
                </text>
                <text id="25%-are" font-family="SourceSansPro-Regular, Source Sans Pro" font-size="12" font-weight="normal" letter-spacing="0.00749999983" fill="#3F3F3F">
                    <tspan x="198.719625" y="98.8561377">25% a</tspan>
                    <tspan x="229.141125" y="98.8561377" letter-spacing="-0.112500004">r</tspan>
                    <tspan x="233.072625" y="98.8561377">e</tspan>
                </text>
                <text id="in-families" font-family="SourceSansPro-Regular, Source Sans Pro" font-size="12" font-weight="normal" letter-spacing="0.00749999983" fill="#3F3F3F">
                    <tspan x="198.719625" y="112.356138">in </tspan>
                    <tspan x="210.682125" y="112.356138" letter-spacing="-0.232500002">f</tspan>
                    <tspan x="213.713625" y="112.356138">amilies</tspan>
                </text>
                <g id="Group-34" transform="translate(0.000000, 75.504000)">
                    <g id="Group-18">
                        <mask id="mask-4" fill="white">
                            <use xlink:href="#path-3"></use>
                        </mask>
                        <g id="Clip-17"></g>
                        <path d="M177.623325,-5.9748 C177.623325,5.61495 168.227325,15.0102 156.638325,15.0102 C145.047825,15.0102 135.652575,5.61495 135.652575,-5.9748 C135.652575,-17.5638 145.047825,-26.96055 156.638325,-26.96055 C168.227325,-26.96055 177.623325,-17.5638 177.623325,-5.9748" id="Fill-16" fill="#8383B7" mask="url(#mask-4)"></path>
                    </g>
                    <g id="Group-21">
                        <mask id="mask-6" fill="white">
                            <use xlink:href="#path-5"></use>
                        </mask>
                        <g id="Clip-20"></g>
                        <path d="M177.69945,16.247625 L163.7697,16.247625 L149.50695,16.247625 L135.5772,16.247625 C129.8397,16.247625 125.14395,21.062625 125.0547,26.980875 C130.71795,30.021375 134.5932,36.109875 134.5932,43.113375 C134.5932,43.113375 135.24495,87.483375 135.5772,87.483375 L135.5772,135.427875 C135.5772,141.424875 140.3157,146.331375 146.10645,146.331375 C151.8987,146.331375 156.63795,141.424875 156.63795,135.427875 C156.63795,141.424875 161.3772,146.331375 167.16795,146.331375 C172.9602,146.331375 177.69945,141.424875 177.69945,135.427875 L177.69945,87.483375 C183.49095,87.483375 188.22945,82.576875 188.22945,76.582125 L188.22945,27.149625 C188.22945,21.154125 183.49095,16.247625 177.69945,16.247625" id="Fill-19" fill="#8383B7" mask="url(#mask-6)"></path>
                    </g>
                    <g id="Group-24">
                        <mask id="mask-8" fill="white">
                            <use xlink:href="#path-7"></use>
                        </mask>
                        <g id="Clip-23"></g>
                        <path d="M58.52745,-5.9748 C58.52745,5.61495 49.13145,15.0102 37.5417,15.0102 C25.95195,15.0102 16.55595,5.61495 16.55595,-5.9748 C16.55595,-17.5638 25.95195,-26.96055 37.5417,-26.96055 C49.13145,-26.96055 58.52745,-17.5638 58.52745,-5.9748" id="Fill-22" fill="#8383B7" mask="url(#mask-8)"></path>
                    </g>
                    <g id="Group-27">
                        <mask id="mask-10" fill="white">
                            <use xlink:href="#path-9"></use>
                        </mask>
                        <g id="Clip-26"></g>
                        <path d="M58.6029,43.113525 C58.6029,34.877775 61.70115,27.907275 69.0234,25.670775 C68.3199,20.369025 63.9099,16.247775 58.6029,16.247775 L44.67315,16.247775 L30.4104,16.247775 L16.4799,16.247775 C10.6884,16.247775 5.95065,21.154275 5.95065,27.149775 L5.95065,76.582275 C5.95065,82.577025 10.6884,87.483525 16.4799,87.483525 L16.4799,135.428025 C16.4799,141.425025 21.2199,146.331525 27.01065,146.331525 C32.8029,146.331525 37.5414,141.425025 37.5414,135.428025 C37.5414,141.425025 42.28065,146.331525 48.07215,146.331525 C53.86365,146.331525 58.6029,141.425025 58.6029,135.428025 L58.6029,115.476525 L58.6029,43.113525 Z" id="Fill-25" fill="#8383B7" mask="url(#mask-10)"></path>
                    </g>
                    <g id="Group-30">
                        <mask id="mask-12" fill="white">
                            <use xlink:href="#path-11"></use>
                        </mask>
                        <g id="Clip-29"></g>
                        <path d="M122.51625,-18.904275 L104.62725,-18.904275 L86.31,-18.904275 L68.421,-18.904275 C60.98325,-18.904275 54.89775,-12.604275 54.89775,-4.904025 L54.89775,58.578975 C54.89775,66.278475 60.98325,72.579225 68.421,72.579225 L68.421,134.150475 C68.421,141.852975 74.5065,148.152975 81.94425,148.152975 C89.3835,148.152975 95.469,141.852975 95.469,134.150475 C95.469,141.852975 101.5545,148.152975 108.993,148.152975 C116.43075,148.152975 122.51625,141.852975 122.51625,134.150475 L122.51625,72.579225 C129.954,72.579225 136.0395,66.278475 136.0395,58.578975 L136.0395,-4.904025 C136.0395,-12.604275 129.954,-18.904275 122.51625,-18.904275" id="Fill-28" fill="#8383B7" mask="url(#mask-12)"></path>
                    </g>
                    <g id="Group-33">
                        <mask id="mask-14" fill="white">
                            <use xlink:href="#path-13"></use>
                        </mask>
                        <g id="Clip-32"></g>
                        <path d="M122.419575,-47.5617 C122.419575,-32.67795 110.352825,-20.61195 95.468325,-20.61195 C80.584575,-20.61195 68.518575,-32.67795 68.518575,-47.5617 C68.518575,-62.4462 80.584575,-74.5137 95.468325,-74.5137 C110.352825,-74.5137 122.419575,-62.4462 122.419575,-47.5617" id="Fill-31" fill="#BF56B8" mask="url(#mask-14)"></path>
                    </g>
                </g>
                <g id="Group-41" transform="translate(6.000000, 74.754000)" stroke="#FFFFFF" stroke-width="1.9815">
                    <line x1="0.167025" y1="0.682125" x2="2.148525" y2="0.682125" id="Stroke-35"></line>
                    <line x1="4.108125" y1="0.682125" x2="179.491125" y2="0.682125" id="Stroke-37" stroke-dasharray="3.91949987411499,1.959749937057495"></line>
                    <line x1="180.470925" y1="0.682125" x2="182.452425" y2="0.682125" id="Stroke-39"></line>
                </g>
            </g>
        </g>
    </g>
</svg>