<?xml version="1.0" encoding="UTF-8"?>
<svg width="308px" height="70px" viewBox="0 0 308 70" version="1.1" xmlns="http://www.w3.org/2000/svg" xmlns:xlink="http://www.w3.org/1999/xlink">
    <!-- Generator: Sketch 59.1 (86144) - https://sketch.com -->
    <title>Group 433</title>
    <desc>Created with Sketch.</desc>
    <g id="Desktop" stroke="none" stroke-width="1" fill="none" fill-rule="evenodd">
        <g id="Homelessness-Section-3-3" transform="translate(-845.000000, -2319.000000)">
            <g id="Group-43" transform="translate(844.000000, 2314.000000)">
                <polygon id="Fill-1" fill="#E0E0E0" points="3.61225 37.461125 300.61225 37.461125 300.61225 27.711125 3.61225 27.711125"></polygon>
                <line x1="3.61255" y1="45.465575" x2="3.61255" y2="19.215575" id="Stroke-2" stroke="#D1D1D1" stroke-width="0.75" stroke-linecap="round"></line>
                <line x1="152.11255" y1="45.465575" x2="152.11255" y2="19.215575" id="Stroke-3" stroke="#D1D1D1" stroke-width="0.75" stroke-linecap="round"></line>
                <line x1="300.61255" y1="45.465575" x2="300.61255" y2="19.215575" id="Stroke-4" stroke="#D1D1D1" stroke-width="0.75" stroke-linecap="round"></line>
                <g id="Group-6" transform="translate(0.000000, 0.421125)" font-size="10.5">
                    <text id="CLUSTER-MEDIAN:-3,416" font-family="SourceSansPro-Semibold, Source Sans Pro" font-weight="500" letter-spacing="-0.0149999997" fill="#565656">
                        <tspan x="48.42685" y="71.5948205">C</tspan>
                        <tspan x="54.45985" y="71.5948205" letter-spacing="-0.361499995">L</tspan>
                        <tspan x="59.02285" y="71.5948205" letter-spacing="-0.119999997">U</tspan>
                        <tspan x="65.67535" y="71.5948205" letter-spacing="-0.225000009">S</tspan>
                        <tspan x="70.96285" y="71.5948205">TER MEDIAN: 3,416</tspan>
                    </text>
                    <text id="0" font-family="SourceSansPro-Regular, Source Sans Pro" font-weight="normal" fill="#848484">
                        <tspan x="0.99835" y="10.8418205">0</tspan>
                    </text>
                    <text id="10K" font-family="SourceSansPro-Regular, Source Sans Pro" font-weight="normal" letter-spacing="-0.0299999993" fill="#848484">
                        <tspan x="292.02685" y="10.8418205">10K</tspan>
                    </text>
                    <text id="5K" font-family="SourceSansPro-Regular, Source Sans Pro" font-weight="normal" letter-spacing="-0.0299999993" fill="#848484">
                        <tspan x="146.79085" y="11.2198205">5K</tspan>
                    </text>
                </g>
                <line x1="33.31225" y1="45.465575" x2="33.31225" y2="19.215575" id="Stroke-7" stroke="#D1D1D1" stroke-width="0.75" stroke-linecap="round"></line>
                <g id="Group-9" transform="translate(28.000000, 1.421125)" fill="#848484" font-family="SourceSansPro-Regular, Source Sans Pro" font-size="10.5" font-weight="normal" letter-spacing="-0.0299999993">
                    <text id="1K">
                        <tspan x="0.671625" y="10.2205705">1K</tspan>
                    </text>
                </g>
                <line x1="63.0127" y1="45.465575" x2="63.0127" y2="19.215575" id="Stroke-10" stroke="#D1D1D1" stroke-width="0.75" stroke-linecap="round"></line>
                <g id="Group-12" transform="translate(57.250000, 1.421125)" fill="#848484" font-family="SourceSansPro-Regular, Source Sans Pro" font-size="10.5" font-weight="normal" letter-spacing="-0.0299999993">
                    <text id="2K">
                        <tspan x="0.6702" y="10.2205705">2K</tspan>
                    </text>
                </g>
                <line x1="92.7124" y1="45.465575" x2="92.7124" y2="19.215575" id="Stroke-13" stroke="#D1D1D1" stroke-width="0.75" stroke-linecap="round"></line>
                <g id="Group-15" transform="translate(87.250000, 1.421125)" fill="#848484" font-family="SourceSansPro-Regular, Source Sans Pro" font-size="10.5" font-weight="normal" letter-spacing="-0.0299999993">
                    <text id="3K">
                        <tspan x="0.666525" y="10.2205705">3K</tspan>
                    </text>
                </g>
                <line x1="122.41285" y1="45.465575" x2="122.41285" y2="19.215575" id="Stroke-16" stroke="#D1D1D1" stroke-width="0.75" stroke-linecap="round"></line>
                <g id="Group-18" transform="translate(116.500000, 1.421125)" fill="#848484" font-family="SourceSansPro-Regular, Source Sans Pro" font-size="10.5" font-weight="normal" letter-spacing="-0.0299999993">
                    <text id="4K">
                        <tspan x="0.6687" y="10.2205705">4K</tspan>
                    </text>
                </g>
                <line x1="181.81225" y1="45.465575" x2="181.81225" y2="19.215575" id="Stroke-19" stroke="#D1D1D1" stroke-width="0.75" stroke-linecap="round"></line>
                <g id="Group-21" transform="translate(175.750000, 1.421125)" fill="#848484" font-family="SourceSansPro-Regular, Source Sans Pro" font-size="10.5" font-weight="normal" letter-spacing="-0.0299999993">
                    <text id="6K">
                        <tspan x="0.673425" y="10.2205705">6K</tspan>
                    </text>
                </g>
                <line x1="211.5127" y1="45.465575" x2="211.5127" y2="19.215575" id="Stroke-22" stroke="#D1D1D1" stroke-width="0.75" stroke-linecap="round"></line>
                <g id="Group-24" transform="translate(205.750000, 1.421125)" fill="#848484" font-family="SourceSansPro-Regular, Source Sans Pro" font-size="10.5" font-weight="normal" letter-spacing="-0.0299999993">
                    <text id="7K">
                        <tspan x="0.2937" y="10.2205705">7K</tspan>
                    </text>
                </g>
                <line x1="241.2124" y1="45.465575" x2="241.2124" y2="19.215575" id="Stroke-25" stroke="#D1D1D1" stroke-width="0.75" stroke-linecap="round"></line>
                <g id="Group-27" transform="translate(235.000000, 1.421125)" fill="#848484" font-family="SourceSansPro-Regular, Source Sans Pro" font-size="10.5" font-weight="normal" letter-spacing="-0.0299999993">
                    <text id="8K">
                        <tspan x="0.2922" y="10.2205705">8K</tspan>
                    </text>
                </g>
                <line x1="270.91285" y1="45.465575" x2="270.91285" y2="19.215575" id="Stroke-28" stroke="#D1D1D1" stroke-width="0.75" stroke-linecap="round"></line>
                <g id="Group-30" transform="translate(265.000000, 1.421125)" fill="#848484" font-family="SourceSansPro-Regular, Source Sans Pro" font-size="10.5" font-weight="normal" letter-spacing="-0.0299999993">
                    <text id="9K">
                        <tspan x="0.676725" y="10.2205705">9K</tspan>
                    </text>
                </g>
                <line x1="103.097425" y1="63.7109" x2="103.097425" y2="47.63165" id="Stroke-31" stroke="#636363" stroke-width="1.5" stroke-linecap="round"></line>
                <g id="Group-42" transform="translate(49.000000, 21.921125)">
                    <path d="M54.097425,26.01195 C53.313675,26.7957 51.764175,27.1692 50.688675,27.19995 C52.132425,26.1252 53.391675,24.72945 54.097425,23.0397 C54.773175,24.72945 56.108925,26.0637 57.506175,27.19995 C56.354925,27.1077 54.956925,26.82645 54.097425,26.01195" id="Fill-32" fill="#636363"></path>
                    <path d="M140.828625,19.289775 L3.527625,19.289775 C1.804125,19.289775 0.394125,17.879775 0.394125,16.155525 L0.394125,5.174025 C0.394125,3.450525 1.804125,2.039775 3.527625,2.039775 L140.828625,2.039775 C142.552875,2.039775 143.962875,3.450525 143.962875,5.174025 L143.962875,16.155525 C143.962875,17.879775 142.552875,19.289775 140.828625,19.289775" id="Fill-34" fill="#BFBFE2"></path>
                    <path d="M110.808075,20.803725 L8.463825,20.803725 C6.030825,20.803725 4.040325,18.813975 4.040325,16.380975 L4.040325,4.977225 C4.040325,2.544225 6.030825,0.553725 8.463825,0.553725 L110.808075,0.553725 C113.241075,0.553725 115.231575,2.544225 115.231575,4.977225 L115.231575,16.380975 C115.231575,18.813975 113.241075,20.803725 110.808075,20.803725" id="Fill-36" fill="#372C7A"></path>
                    <path d="M56.503425,9.276825 C56.503425,8.644575 56.536425,8.036325 56.495925,7.431825 C56.421675,6.297825 55.516425,5.460825 54.347175,5.395575 C53.320425,5.339325 52.277175,6.120075 52.128675,7.173825 C52.032675,7.857075 52.111425,8.565825 52.111425,9.276825 L56.503425,9.276825 Z M50.969925,15.957075 L57.624675,15.957075 L57.624675,10.423575 L50.969925,10.423575 L50.969925,15.957075 Z M57.639675,9.247575 C57.833175,9.316575 58.014675,9.357075 58.172925,9.441825 C58.570425,9.654825 58.743675,10.013325 58.744425,10.451325 C58.748925,12.291825 58.750425,14.131575 58.744425,15.972075 C58.742175,16.589325 58.274925,17.055825 57.651675,17.075325 C57.227925,17.088825 56.802675,17.079075 56.378175,17.079075 C54.629925,17.079075 52.880925,17.079825 51.132675,17.079075 C50.270175,17.079075 49.847925,16.655325 49.847925,15.792825 C49.847175,14.094075 49.867425,12.394575 49.838925,10.697325 C49.826175,9.905325 50.110425,9.424575 50.955675,9.262575 C50.955675,8.743575 50.954175,8.220825 50.956425,7.697325 C50.962425,6.055575 51.960675,4.775325 53.549925,4.368075 C55.387425,3.897075 57.401925,5.283825 57.589425,7.172325 C57.647925,7.759575 57.625425,8.353575 57.639675,8.943825 C57.641925,9.050325 57.639675,9.158325 57.639675,9.247575 L57.639675,9.247575 Z" id="Fill-38" fill="#FFFFFF"></path>
                    <path d="M54.21975,11.521725 C54.79125,11.537475 55.18725,11.817225 55.34025,12.240975 C55.503,12.692475 55.3665,13.162725 55.00425,13.486725 C54.92475,13.557225 54.873,13.685475 54.858,13.793475 C54.8325,13.965225 54.858,14.142975 54.8475,14.317725 C54.82875,14.619975 54.58275,14.850225 54.29175,14.8487323 C54,14.846475 53.76525,14.614725 53.7465,14.307975 C53.74125,14.232975 53.7405,14.158725 53.74425,14.082975 C53.757,13.809225 53.742,13.578975 53.48625,13.365225 C53.14575,13.079475 53.09775,12.560475 53.286,12.167475 C53.4945,11.732475 53.8515,11.533725 54.21975,11.521725" id="Fill-40" fill="#FFFFFF"></path>
                </g>
            </g>
        </g>
    </g>
</svg>