<svg xmlns="http://www.w3.org/2000/svg" xmlns:xlink="http://www.w3.org/1999/xlink" viewBox="0 0 40 40">
   <defs>
      <path id="a" d="M-622 305h23v23h-23z"/>
   </defs>
   <clipPath id="b">
      <use xlink:href="#a" overflow="visible"/>
   </clipPath>
   <g clip-path="url(#b)">
      <defs>
         <path id="c" d="M-700-2576H740v5192H-700z"/>
      </defs>
      <clipPath id="d">
         <use xlink:href="#c" overflow="visible"/>
      </clipPath>
      <g clip-path="url(#d)">
         <defs>
            <path id="e" d="M-623 304h25v25h-25z"/>
         </defs>
         <clipPath id="f">
            <use xlink:href="#e" overflow="visible"/>
         </clipPath>
         <g clip-path="url(#f)">
            <defs>
               <path id="g" d="M-612.4 323.7c-.8 0-1.4-.5-.8-2.6l.9-3.8c.2-.6.2-.8 0-.8s-1.3.4-1.9.8l-.4-.7c1.9-1.6 4.2-2.6 5.1-2.6.8 0 .9.9.5 2.4l-1 4c-.2.7-.1.9.1.9s1-.3 1.8-.9l.5.6c-1.9 2-4 2.7-4.8 2.7m3-14.9c1.2 0 1.5.7 1.5 1.5 0 1-.8 1.9-2.1 1.9-1.1 0-1.6-.6-1.6-1.5 0-.8.7-1.9 2.2-1.9m-1.3-3.8c-6.4.1-11.4 5.3-11.3 11.7.1 6.3 5.3 11.4 11.7 11.3 6.3-.1 11.4-5.3 11.3-11.7-.1-6.3-5.3-11.4-11.7-11.3"/>
            </defs>
            <clipPath id="h">
               <use xlink:href="#g" overflow="visible"/>
            </clipPath>
            <g clip-path="url(#h)">
               <defs>
                  <path id="i" d="M-622 305h23v23h-23z"/>
               </defs>
               <clipPath id="j">
                  <use xlink:href="#i" overflow="visible"/>
               </clipPath>
               <path clip-path="url(#j)" fill="#5b616b" d="M-627 300h33v33h-33z"/>
            </g>
         </g>
      </g>
   </g>
   <g>
      <path d="M16.8 32.2c-1.4 0-2.3-.8-1.4-4.4l1.6-6.4c.3-1 .3-1.4 0-1.4-.4 0-2.2.7-3.2 1.4l-.7-1.1c3.3-2.8 7.1-4.4 8.7-4.4 1.4 0 1.6 1.6.9 4.1l-1.8 6.7c-.3 1.2-.2 1.6.1 1.6.4 0 1.7-.5 3-1.5l.8 1c-3.1 3.2-6.6 4.4-8 4.4zM21.9 7c2 0 2.6 1.2 2.6 2.5 0 1.6-1.3 3.2-3.6 3.2-1.9 0-2.8-.9-2.7-2.5 0-1.4 1.1-3.2 3.7-3.2zM19.7.5C9 .6.4 9.5.5 20.3c.1 10.8 9 19.4 19.8 19.2 10.8-.1 19.4-9 19.2-19.8C39.4 9 30.5.4 19.7.5z"/>
   </g>
</svg>