<svg xmlns="http://www.w3.org/2000/svg" viewBox="0 0 60 30">
   <path d="M2.7.6l.3.2V1h-.3l.2.3v.3h-1l-.2-.1-.3-.1-.1-.1v.6l.1.2.1.3h.1l.1.2V3h.1v.5l.1.2v.2s0 .2.1.3v2.9c0 .1-.1.2-.1.4s0 .2-.1.4c0 .3-.1.4-.1.4s-.1.3-.1.4c0 .1-.1.5-.1.5v.2s0 .1.1.2c0 .1.1.4.1.4l.1.2c.1.2 0 .5 0 .5l.1.2.1.4-.1.4-.1.3s-.1.3-.1.4c0 .1.1.3.1.3H2l.1.3v.7l.2.3v.2l.2.3.2.1.3.2.1.2.1.4h.1v.1l.2.3v.2l.2.2s0 .1.1.2.2.1.2.1h.1l.1.4H4v.2l.1.2.1.2.3.1.1.2.2.3.1.2.1.2v.1l.2.1V19.3c0 .1.2.2.2.2l.3.1H6.3l.2.2.2.2h.4l.3.1.1.1.2.2.3.2h.2l.2.2v.2l.1.3v.3l2.4-.2-.1.3 3.5 1.3h2.8v-.5H19v.2l.2.2.1.1h.1l.1.2.2.2.1.1.2.1h.1l.1.2.1.2.2.3v.2l.1.2v.1l.2.2h.2l.1.2.2.1h.2l.1.1.2.1h.4l.2-.2.1-.2.2-.4h.3v-.1l.2.1H23.8l.2.1v.2l.1.1h.2l.1.1.2.2v.2l.2.2.1.2.1.2v.2l.1.1.2.2.1.1v.2l.2.1.1.1v.4h.1v.4l.2.1v.2l.1.2.1.1h.2l.1.2h.2l.2.2h.4l.2.2h.2v-.5h-.1V28.4l-.1-.4v-.2c.1-.1 0-.2 0-.2l.1-.1.1-.2V27l.2-.2.2-.2.1-.1.2-.2.1-.1h.1l.4-.2.4-.1.2-.2v-.2l.3-.1.1-.1v-.1l.3-.1h.2l.2-.1h.3l.2-.1h.7l.2.1h.6v-.2h.1v-.2l.2.1v.1l.1.1.1.1v.1h.2V25h.2v.4l.1.1.2.1.2-.1.1-.1h.2l.1.2h.1v-.2l.2-.1.2.1.1.1h.1l.2-.1-.2-.2-.2-.2.1-.1h.1l.1-.1v-.5s.1-.1.2-.1h.4l.3-.1.3.1.2-.1v-.4h.1v.3l.1.2.2.1.1-.1h1.4s.1 0 .2.1c.1 0 .1 0 .2.1.1 0 .2.1.2.1l.1.1.2.3.2-.1.3-.1h.3l.1-.1v-.1h.2c.1 0 .3.1.3.1l.2.2.1.2s-.1 0 0 .1.1.2.1.2l.2.2.1.2.2.1.1.2.1.3v.3l-.1.3-.1.3.1.2.1.2v.2l.1.3.2.2.1.2v.1l.1.1.1.1.1.2v.2s.1 0 .2.1l.1.1.1.1.1.2v.3l.1.1h.2l.2-.1.2-.1v-.2l.1-.2.1-.3V29l.1-.2v-.9l-.2-.2-.1-.1v-.1l.1-.3-.1-.2-.1-.3V26l-.2-.1-.1-.2-.1-.3s0-.1-.1-.2c0-.1-.1-.2-.1-.2l-.2-.4v-.4l-.1-.2h.1l.1-.2V23.5s-.1-.1-.1-.2v-.1s.2-.1.3-.2v-.3l-.1-.1.2-.1.1-.1.1-.1v-.2s-.1-.1 0-.1h.2l.1-.1.1-.2.2-.1.2-.1.2-.2v-.2s0-.1.1-.1.3-.1.3-.1l.2-.2v-.1l.1-.1.1-.2s-.1-.1 0-.1.2-.1.2-.1l.1-.1h.5v-.2l.2-.1.1-.1.2-.1.1-.1.2-.1.1-.1c.1 0 .2-.1.2-.1h.3l.2-.1.1-.2v-.1l-.1-.1v-.2l.1-.1.3.1.1-.1.1-.1.1-.1v-.4h-.8l.2-.1.3-.1H48.5l.1-.2-.2-.1v-.6h-.2l-.2-.1-.1-.2V16h.2l-.1-.2v-.6h-.1l-.1-.1.1-.1v-.4l-.1-.1v-.4l.1-.1c.2.2.2.2.2.3v.2l-.1.2.1.1.1.1h.1l.1.2.1.2v.2c0 .1-.1.2-.2.2v.1l-.1.2v.2l.1.1.1-.4.1-.2.1-.2.2-.2v-.2l.1-.1h.1l.2-.2v-.4l-.2-.1v-.1l-.1-.2v-.1l-.1-.1v-.2l-.1-.2.2.1.2.1h.2v.4h.1l.2-.3.1-.1v-.1l.2-.1v-.1l.2-.1v-.1l.1-.1V12.7l.1-.1v-.2s.1-.1 0-.1h-.1v-.2h.7l.2-.1h.2c.1 0 .2-.1.2-.1l.4-.1.1-.1h.1l.2-.1v-.1H52h-.4-.2c-.2 0 0-.1-.2 0l-.2.1-.4.1-.1.1-.1-.1.2-.2.3-.2s.1-.1.3-.1H52.8l.2-.1h.1l.1-.1.1-.1H53.9l.2-.1.1-.2-.2-.4v-.1l-.2.1.1.1.1.1v.1l-.1.1h-.2l-.1-.1-.1-.1v-.1l-.1-.1V9.9l-.2-.1s-.1 0-.1-.1v-.1l.1-.1.1-.1.1-.1-.1-.1-.1-.1v-.2c0-.1.1-.2.1-.2l.1-.1.2-.2.1-.1.2-.2V8v-.1l-.1-.1h.2l.2.1h.2v-.2h.2c.1 0 .2-.1.2-.1l.1-.1c.1 0 .1-.1.1-.1v-.2-.1l.1-.1s-.1 0 .1.1l.1.1.1.1h.1l.1-.1h.2L56 7l.1-.1.1-.1H56.5s.1-.1.2-.1h.1l.1-.1v-.1l.1-.2-.1-.2-.2-.1-.2-.1-.1-.1v-.4l-.3-.1V3.4l-.4-.4h-.4l-.2.1H55v-.3h-.1l-.1.1s-.1.1-.1.2-.1.3-.1.3l-.2.2-.2.3-.2.1v.3l-.2.1-.1.2.1.2-.1.2-.1.1-.1.1v.1s-.2 0-.2.1v.2l-.1.1v.2l-.1-.1h-.2c-.1 0-.2.1-.2.1l-.1.1v.2h-3.3l-.3.1-.1.1s-.1 0-.1.1-.1.1-.1.2-.1.1-.1.1 0 .2-.1.2-.3.1-.3.1l-.1.1c0 .1-.1.1-.1.1l-.2.1.2.1.1.1v.1l-.1.2v.3l-.2.1-.2.1-.2.2H47l-.2.1h-.1c-.1-.1-.2-.1-.2-.1h-.8l-.2.1H45.2l-.1.1.1.2.1.2-.1.2-.1.1-.1.1-.2.1c-.1 0-.2.1-.2.1l-.3.2-.2.1-.3.1s-.1 0-.2.1c-.1 0-.4.2-.4.2l-.2.2-.2.1h-.4l-.1.1h-.1l-.3-.1h-.2l-.2-.1-.1-.1c-.1 0-.2-.1-.2-.1s-.1-.1-.1-.2c.1 0 .1-.1.1-.1v-.1l.1-.1.1-.2.1-.1.2-.1.1-.1v-.1l.1-.1.1-.1v-.4V8.5l-.1-.3v-.5l-.1-.1h-.1l-.2-.1s-.1 0-.2.1h-.1l-.1.2-.2.2h-.1l-.2-.2v-.2l.1-.1v.1l.2-.1.1-.2.2-.2v-.7l-.1-.2v-.1l.2-.1h-.1l-.1-.1v-.2l-.2-.1-.3-.1-.2-.1-.1-.1s-.1 0-.2-.1c-.1 0-.2-.1-.2-.1l-.2-.1-.1.1-.2.2v.2l.1.1-.2.1-.2.1v.4l-.1.1h-.1v-.1L39 6v-.1l-.1.2-.1.1h-.1s-.1 0-.1.1v.2h-.2V7l-.2.3-.1.1.1.2-.1.4.1.2.1.3.1.3v.6c0 .1-.1.4-.1.4l-.1.2-.2.3-.1.2-.3.1-.3-.1-.1-.1c0-.1-.1-.2-.1-.2l-.1-.1v-.7-.2V9c0-.1-.1-.1-.1-.2v-.1l-.1-.2v-.1c.1-.1.2-.4.2-.4v-.2c0-.1.1-.3.1-.3l.1-.1.1-.1v-.5l.1-.2.1-.2.1-.2V6l.1-.2h-.1l-.2.2-.1.2-.1.1-.2.2-.2.2h-.1v-.2l.1-.2h.2l.1-.2.1-.2.1-.2.1-.2.2-.1V5l.1.2h.1l.1-.1.1-.1v.2l.1-.1h.1l.1-.1.1-.1h.6l.1-.2.3.1.2.1.2.1.1-.2H40.5l.1-.1-.1-.2v-.4h-.1l-.2.1h-.6v-.4h-.2l-.1.1h-.2-.5l-.4.1-.2.2h-.3l-.2-.1H37.2l-.1-.3-.1-.1-.1-.1H36.3l-.1.2-.1-.2.1-.2.2-.2.3-.2.2-.1-.1-.1h-.4l-.1.1-.2.1-.1.1v.1l-.1.1-.1.1-.2.2-.2.1-.2.1H35l-.2.2-.1.1c-.1 0-.2.1-.2.1H34.2l-.3-.2v-.5l-.2.1-.3.1-.2.1h-.5v-.1l.2-.1.1-.1.3-.2.2-.1V3l.2-.3s.2-.2.3-.2c.1 0 .4-.1.4-.1l.4-.2.2-.1.2-.1h-.4l-.1-.1-.2-.1H34v-.1l-.3.2-.1.1H33.3l-.1-.1h-.1l-.1-.1-.1-.1-.2-.1-.1.2h-.1v-.2h-.2l.1-.1-.2-.1h-.7v.1h-.3l-.1-.2h-.4V1h-.3l-.1-.2V.4l-.1-.2-.1-.1-.3-.1v.5L2.7.6z" fill="#0c99ce"/>
</svg>