<svg id="Layer_1" data-name="Layer 1" xmlns="http://www.w3.org/2000/svg" xmlns:xlink="http://www.w3.org/1999/xlink" viewBox="0 0 640 664.4"><defs><style>.cls-1{fill:none;}.cls-2{clip-path:url(#clip-path);}.cls-3{clip-path:url(#clip-path-2);}.cls-4{fill:#5b616b;}.cls-5{clip-path:url(#clip-path-3);}.cls-6{fill:#979797;}</style><clipPath id="clip-path"><rect class="cls-1" x="1" y="239" width="19" height="165"/></clipPath><clipPath id="clip-path-2"><rect class="cls-1" x="-84" y="-1392" width="1440" height="3335"/></clipPath><clipPath id="clip-path-3"><rect class="cls-1" x="556" y="353.03" width="146" height="19" transform="translate(255.54 985.11) rotate(-89)"/></clipPath></defs><title>bracket3</title><g class="cls-2"><g class="cls-3"><path class="cls-4" d="M7.19,402.43v-3.51c0-2.39.81-4.07,2.88-4.07a2.57,2.57,0,0,1,2.57,2.07h.08c.27-1.72,1.2-2.73,2.82-2.73,2.33,0,3.46,1.83,3.46,4.46v3.78Zm5-3.26c0-2-.72-2.84-2-2.84s-1.82.95-1.82,2.77v1.82h3.85Zm5.58-.3c0-2-.74-3.21-2.34-3.21s-2.12,1.14-2.12,3.21v2.05h4.46Z"/><path class="cls-4" d="M7.19,391.4v-1.51h7c2.84,0,3.74-1.21,3.74-2.74s-.9-2.81-3.74-2.81h-7V382.9h6.93c3.8,0,5.1,1.84,5.1,4.25s-1.3,4.25-5.1,4.25Z"/><path class="cls-4" d="M7.19,379.23v-3c0-3.64,2.1-5.58,5.85-5.58s6,1.94,6,5.51v3Zm10.59-2.84c0-2.78-1.75-4.14-4.74-4.14s-4.63,1.36-4.63,4.14v1.33h9.37Z"/><path class="cls-4" d="M7,362.85a4.62,4.62,0,0,1,1.46-3.39l1,.87a3.2,3.2,0,0,0-1.09,2.5c0,2.4,1.83,3.93,4.77,3.93s4.84-1.41,4.84-3.93a3.31,3.31,0,0,0-.7-2.14H14.12v2.5H12.88v-3.87h5A5.35,5.35,0,0,1,19.22,363c0,3.1-2.27,5.32-6.13,5.32S7,366,7,362.85Z"/><path class="cls-4" d="M7.19,356v-6.8H8.45v5.29h3.71V350h1.28v4.47h4.28V349H19v7Z"/><path class="cls-4" d="M8.45,343.56v3.58H7.19v-8.66H8.45v3.58H19v1.5Z"/><path class="cls-4" d="M7.19,331.64v-6.82H8.45v5.31h4v-4.5h1.26v4.5H19v1.51Z"/><path class="cls-4" d="M7.19,322.3v-1.51h7c2.84,0,3.74-1.21,3.74-2.74s-.9-2.81-3.74-2.81h-7V313.8h6.93c3.8,0,5.1,1.84,5.1,4.25s-1.3,4.25-5.1,4.25Z"/><path class="cls-4" d="M7.19,310.13v-1.55l7.42-4.28L17.06,303V303c-1.19.07-2.52.19-3.77.19H7.19v-1.42H19v1.55l-7.44,4.27-2.43,1.28v.07c1.19-.07,2.45-.18,3.69-.18H19v1.42Z"/><path class="cls-4" d="M7,293.39a4.36,4.36,0,0,1,1.46-3.22l1,.84a3.18,3.18,0,0,0-1.09,2.36c0,2.25,1.83,3.75,4.77,3.75s4.84-1.43,4.84-3.68a3.47,3.47,0,0,0-1.31-2.7l.92-.84a4.5,4.5,0,0,1,1.71,3.58c0,3-2.27,5.18-6.13,5.18S7,296.41,7,293.39Z"/><path class="cls-4" d="M8.45,285.06v3.58H7.19V280H8.45v3.58H19v1.5Z"/><path class="cls-4" d="M7.19,277.37v-1.51H19v1.51Z"/><path class="cls-4" d="M13,272.82c-3.78,0-6.07-2.09-6.07-5.06s2.31-5,6.07-5,6.18,2.08,6.18,5S16.84,272.82,13,272.82Zm0-8.56c-2.93,0-4.75,1.39-4.75,3.5s1.82,3.51,4.75,3.51,4.86-1.39,4.86-3.51S16,264.26,13,264.26Z"/><path class="cls-4" d="M7.19,259.59V258l7.42-4.28,2.45-1.28v-.07c-1.19.07-2.52.2-3.77.2H7.19v-1.43H19v1.55L11.56,257l-2.43,1.28v.07c1.19-.07,2.45-.18,3.69-.18H19v1.42Z"/></g></g><g class="cls-5"><g class="cls-3"><path class="cls-4" d="M627.72,290.38c3.78.07,6,2.2,6,5.17s-2.4,5-6.16,4.93-6.14-2.19-6.08-5.14S623.92,290.32,627.72,290.38Zm-.15,8.56c2.93.05,4.78-1.31,4.81-3.41s-1.75-3.55-4.69-3.6-4.88,1.3-4.92,3.43S624.62,298.88,627.57,298.94Z"/><path class="cls-4" d="M633.34,303.62l-.06,3.51c0,2.4-.88,4.06-2.95,4a2.56,2.56,0,0,1-2.54-2.11h-.07c-.3,1.72-1.26,2.71-2.88,2.68-2.32,0-3.42-1.89-3.38-4.52l.07-3.78ZM622.66,307c0,2,.68,3.22,2.28,3.25s2.14-1.1,2.18-3.17l0-2.05-4.47-.08Zm5.58-.21c0,2,.67,2.86,2,2.88s1.83-.92,1.86-2.74l0-1.81-3.86-.07Z"/><path class="cls-4" d="M623.77,314.28a2.28,2.28,0,0,0-1.37,2c0,1.26.69,1.9,2.49,1.93l8.19.14,0,1.5-8.34-.15c-2,0-3.67-1-3.63-3.32A3.43,3.43,0,0,1,623,313.2Z"/><path class="cls-4" d="M633,323.55l-.12,6.8-1.26,0,.1-5.29L628,325l-.08,4.47-1.28,0,.08-4.47-4.29-.07-.09,5.47-1.28,0,.12-7Z"/><path class="cls-4" d="M633,338.13a4.35,4.35,0,0,1-1.51,3.2l-.94-.87a3.13,3.13,0,0,0,1.14-2.34c0-2.25-1.77-3.77-4.71-3.82s-4.86,1.33-4.9,3.59a3.45,3.45,0,0,0,1.26,2.72l-.93.83a4.56,4.56,0,0,1-1.65-3.61c.06-3,2.36-5.15,6.22-5.08S633,335.1,633,338.13Z"/><path class="cls-4" d="M631.33,346.44l.06-3.59,1.27,0-.16,8.65-1.26,0,.07-3.58-10.55-.18,0-1.5Z"/><path class="cls-4" d="M632.52,363a4.36,4.36,0,0,1-1.51,3.19l-.94-.86a3.2,3.2,0,0,0,1.14-2.34c0-2.25-1.77-3.78-4.71-3.83s-4.87,1.34-4.91,3.59a3.44,3.44,0,0,0,1.27,2.72l-.93.83a4.48,4.48,0,0,1-1.65-3.61c.05-3,2.36-5.14,6.21-5.08S632.57,359.94,632.52,363Z"/><path class="cls-4" d="M632.2,369.15l0,1.51-10.53-.18-.09,5.15-1.28,0,.12-6.66Z"/><path class="cls-4" d="M623.73,383.71l.08-4.3-3.59-1.2,0-1.53L632,380.89l0,1.69-11.88,3.79,0-1.59Zm1.21-.35,1.81-.53c1.32-.39,2.63-.75,4-1.1v-.07c-1.36-.41-2.65-.81-4-1.24l-1.79-.61Z"/><path class="cls-4" d="M622.62,388.63a4.57,4.57,0,0,0-1.53,3.23c0,1.55.73,2.48,1.88,2.5s1.6-.84,2.12-1.95l.77-1.68a3.34,3.34,0,0,1,3.08-2.34c1.8,0,3.11,1.64,3.07,3.78a4.79,4.79,0,0,1-1.52,3.45l-1-.81a3.77,3.77,0,0,0,1.17-2.66c0-1.33-.63-2.22-1.69-2.24s-1.59,1-2,1.92l-.75,1.68c-.62,1.36-1.45,2.41-3.19,2.38s-3.34-1.61-3.3-4.09a5.67,5.67,0,0,1,1.82-4.09Z"/><path class="cls-4" d="M622.44,398.81a4.57,4.57,0,0,0-1.53,3.23c0,1.55.73,2.48,1.88,2.5s1.6-.84,2.12-1.94l.77-1.68a3.36,3.36,0,0,1,3.09-2.35c1.8,0,3.1,1.64,3.06,3.79a4.79,4.79,0,0,1-1.52,3.44l-.95-.8a3.85,3.85,0,0,0,1.16-2.67c0-1.33-.63-2.22-1.69-2.24s-1.59,1-2,1.93l-.75,1.68c-.61,1.35-1.44,2.4-3.19,2.37s-3.34-1.61-3.3-4.09a5.69,5.69,0,0,1,1.82-4.09Z"/></g></g><g class="cls-3"><rect class="cls-6" x="11.5" y="5.5" width="27.54" height="2"/><rect class="cls-6" x="11.5" y="5.88" width="2" height="231.16"/><rect class="cls-6" x="600.96" y="48.5" width="27.54" height="2"/><rect class="cls-6" x="626.5" y="48.88" width="2" height="231.16"/><rect class="cls-6" x="8.5" y="650.5" width="27.54" height="2"/><rect class="cls-6" x="8.5" y="420.96" width="2" height="231.16"/><rect class="cls-6" x="597.96" y="651.5" width="27.54" height="2"/><rect class="cls-6" x="623.5" y="421.96" width="2" height="231.16"/></g></svg>