<?xml version="1.0" encoding="iso-8859-1"?>
<!-- Generator: Adobe Illustrator 19.0.0, SVG Export Plug-In . SVG Version: 6.00 Build 0)  -->
<svg version="1.1" id="Capa_1" xmlns="http://www.w3.org/2000/svg" xmlns:xlink="http://www.w3.org/1999/xlink" x="0px" y="0px"
	 viewBox="0 0 512 512" style="enable-background:new 0 0 512 512;" xml:space="preserve">
<g>
	<g>
		<path d="M77.912,331.895c-2.865-0.948-5.78-1.398-8.645-1.398c-1.807,0-3.594,0.18-5.341,0.529
			c-0.689,0.13-1.388,0.299-2.066,0.489c-0.339,0.1-0.679,0.2-1.018,0.309c-0.669,0.22-1.338,0.459-1.986,0.729
			c-0.329,0.13-0.659,0.27-0.978,0.419c-0.639,0.289-1.278,0.609-1.887,0.948c-2.476,1.367-4.752,3.104-6.708,5.171
			c-0.25,0.259-0.489,0.529-0.729,0.799c-0.469,0.539-0.918,1.098-1.358,1.677c-1.727,2.316-3.114,4.941-4.073,7.836
			c-0.948,2.865-1.397,5.78-1.397,8.645c0,11.56,7.327,22.33,18.906,26.154c2.875,0.948,5.78,1.398,8.645,1.398
			c1.807,0,3.594-0.18,5.34-0.529c0.699-0.13,1.378-0.299,2.066-0.489c2.386-0.669,4.672-1.657,6.798-2.935
			c0.609-0.369,1.198-0.749,1.777-1.158c0.289-0.21,0.579-0.429,0.858-0.639c0.559-0.429,1.098-0.888,1.627-1.358
			c0.27-0.24,0.529-0.489,0.779-0.739c0.13-0.12,0.26-0.24,0.379-0.369c0.379-0.389,0.749-0.779,1.098-1.178
			c0.369-0.429,0.729-0.858,1.068-1.308c1.867-2.406,3.354-5.161,4.362-8.215c0.948-2.865,1.397-5.77,1.397-8.635v-0.01
			C96.828,346.479,89.491,335.718,77.912,331.895z"/>
	</g>
</g>
<g>
	<g>
		<polygon points="334.607,181.272 290.535,212.317 374.706,248.423 392.903,205.968 		"/>
	</g>
</g>
<g>
	<g>
		<polygon points="478.511,242.234 420.484,217.647 402.227,260.232 480.957,293.992 		"/>
	</g>
</g>
<g>
	<g>
		<path d="M511.074,339.503l-291.873-125.2c-8.006,4.562-14.275,11.579-17.928,20.204l-5.578,13.162
			c-0.659-1.101-1.305-2.206-1.926-3.324l-0.106-0.187c-13.722-23.887-27.607-47.274-41.035-69.893
			c-12.922-21.766-26.285-44.274-39.217-66.76l-4.319-7.511l-26.553,0.007l-0.25-0.135l-0.073,0.135h-0.361v0.667L6.931,239H0
			v134.022h13.795c-1.318-4.841-2.016-9.873-2.016-14.973c-0.01-4.961,0.639-9.992,1.986-14.973c0.28-1.028,0.579-2.046,0.918-3.065
			c3.903-11.799,11.33-21.662,20.893-28.579c9.573-6.918,21.262-10.881,33.69-10.881h0.01c6.119,0,12.188,0.978,18.028,2.905
			c19.016,6.289,32.572,21.602,37.454,39.62c1.328,4.841,2.016,9.872,2.016,14.973c0,4.961-0.639,9.992-1.996,14.973h45.919v-97.747
			h-32.323V239h-26.573v-74.879c5.059,8.561,69.757,117.548,70.08,118.153l2.516,1.009l17.035,7.225
			c0.19-0.519,0.399-1.028,0.619-1.547c1.777-4.193,4.013-8.086,6.648-11.639c3.404-4.632,7.477-8.675,12.049-12.019
			c9.553-7.027,21.272-11.03,33.67-11.03h0.01c7.646,0,15.103,1.517,22.171,4.512c13.985,5.93,24.826,16.94,30.526,31.025
			c1.917,4.732,3.174,9.613,3.773,14.544c0.659,5.361,0.529,10.771-0.359,16.102c-0.729,4.372-1.987,8.695-3.763,12.877
			c-0.22,0.509-0.439,1.008-0.669,1.507l58.975,24.986c0.2-0.509,0.399-1.018,0.619-1.527c1.777-4.193,4.013-8.096,6.648-11.649
			c3.224-4.382,7.038-8.235,11.31-11.47c9.683-7.367,21.691-11.579,34.409-11.579h0.01c7.646,0,15.103,1.517,22.171,4.512
			c13.985,5.929,24.826,16.95,30.526,31.025c1.418,3.494,2.476,7.057,3.174,10.681v0.01c1.268,6.608,1.348,13.356,0.24,19.965
			c-0.739,4.372-1.987,8.685-3.763,12.867c-0.22,0.509-0.439,1.018-0.669,1.517l18.787,7.956l20.084-47.416
			C512.052,356.632,512.871,347.908,511.074,339.503z M81.855,239H40.988l40.867-75.451V239z"/>
	</g>
</g>
<g>
	<g>
		<path d="M281.151,308.008c-1.098-9.294-7.007-17.739-16.231-21.652c-3.434-1.447-6.988-2.136-10.491-2.136
			c-5.929,0-11.689,1.967-16.351,5.54c-1.807,1.368-3.444,2.975-4.861,4.792l-0.01,0.01c-0.19,0.24-0.359,0.459-0.539,0.699
			c0,0.01,0,0.01,0,0.01v0.01c0,0,0,0.01-0.01,0.01c-1.188,1.637-2.206,3.414-3.035,5.36c-0.22,0.509-0.419,1.028-0.599,1.547
			c-4.712,13.306,1.707,28.16,14.894,33.74c3.424,1.448,6.978,2.136,10.481,2.136c10.491,0,20.454-6.159,24.806-16.421
			c0.359-0.858,0.679-1.717,0.948-2.595c0,0,0,0,0-0.01C281.281,315.394,281.591,311.631,281.151,308.008z"/>
	</g>
</g>
<g>
	<g>
		<path d="M444.801,377.345c-1.088-9.284-7.007-17.739-16.241-21.652c-3.424-1.457-6.978-2.146-10.481-2.146
			c-5.929,0-11.699,1.977-16.371,5.54c-1.797,1.378-3.434,2.985-4.851,4.811c-0.18,0.22-0.359,0.459-0.539,0.689v0.02
			c0,0,0,0.01-0.01,0.01c-1.188,1.637-2.206,3.414-3.035,5.361c-0.22,0.509-0.419,1.028-0.599,1.547
			c-4.712,13.306,1.707,28.16,14.884,33.74c3.434,1.457,6.988,2.136,10.491,2.136c10.491,0,20.454-6.159,24.806-16.421
			c0.359-0.858,0.679-1.717,0.948-2.595c0,0,0,0,0-0.01C444.931,384.721,445.24,380.968,444.801,377.345z"/>
	</g>
</g>
<g>
</g>
<g>
</g>
<g>
</g>
<g>
</g>
<g>
</g>
<g>
</g>
<g>
</g>
<g>
</g>
<g>
</g>
<g>
</g>
<g>
</g>
<g>
</g>
<g>
</g>
<g>
</g>
<g>
</g>
</svg>
