<svg height="512pt" viewBox="0 0 512 512" width="512pt" xmlns="http://www.w3.org/2000/svg"><path d="m179.199219 221.867188h17.066406v-44.117188c0-32.992188 26.746094-59.734375 59.734375-59.734375s59.734375 26.742187 59.734375 59.734375v44.117188h17.066406v-44.117188c0-42.417969-34.386719-76.800781-76.800781-76.800781s-76.800781 34.382812-76.800781 76.800781zm0 0"/><path d="m153.601562 247.464844v25.601562h34.132813c4.710937 0 8.53125 3.820313 8.53125 8.535156 0 4.710938-3.820313 8.53125-8.53125 8.53125h-34.132813v25.601563h34.132813c4.710937 0 8.53125 3.820313 8.53125 8.53125 0 4.714844-3.820313 8.535156-8.53125 8.535156h-34.132813v34.132813h34.132813c4.710937 0 8.53125 3.820312 8.53125 8.53125 0 4.714844-3.820313 8.535156-8.53125 8.535156h-34.132813v17.066406c0 4.714844 3.820313 8.535156 8.53125 8.535156h187.734376c4.710937 0 8.53125-3.820312 8.53125-8.535156v-17.066406h-34.132813c-4.710937 0-8.53125-3.820312-8.53125-8.535156 0-4.710938 3.820313-8.53125 8.53125-8.53125h34.132813v-34.132813h-34.132813c-4.710937 0-8.53125-3.820312-8.53125-8.535156 0-4.710937 3.820313-8.53125 8.53125-8.53125h34.132813v-25.601563h-34.132813c-4.710937 0-8.53125-3.820312-8.53125-8.53125 0-4.714843 3.820313-8.535156 8.53125-8.535156h34.132813v-25.601562c0-4.710938-3.820313-8.53125-8.53125-8.53125h-187.734376c-4.710937 0-8.53125 3.820312-8.53125 8.53125zm65.277344 55.980468c2.898438-14.820312 14.398438-26.457031 29.183594-29.523437 11.253906-2.421875 22.996094.402344 31.917969 7.679687 8.71875 6.992188 13.777343 17.578126 13.738281 28.753907-.101562 8.914062-3.472656 17.476562-9.472656 24.066406-1.578125 1.636719-2.515625 3.789063-2.644532 6.058594v26.539062c0 4.503907-1.789062 8.824219-4.972656 12.007813-3.183594 3.1875-7.503906 4.976562-12.011718 4.972656h-17.234376c-4.507812.003906-8.828124-1.785156-12.011718-4.972656-3.183594-3.183594-4.972656-7.503906-4.972656-12.007813v-26.453125c-.128907-2.296875-1.066407-4.472656-2.644532-6.144531-7.597656-8.390625-10.875-19.832031-8.875-30.976563zm0 0"/><path d="m247.464844 340.566406v26.453125l17.152344-.085937-.082032-26.453125c.121094-6.421875 2.578125-12.578125 6.910156-17.324219 3.703126-3.941406 5.570313-9.261719 5.148438-14.65625-.421875-5.390625-3.097656-10.355469-7.367188-13.671875-3.703124-3.042969-8.347656-4.703125-13.140624-4.695313-1.550782.003907-3.097657.171876-4.609376.511719-7.957031 1.667969-14.160156 7.90625-15.785156 15.871094-1.003906 6 .789063 12.128906 4.863282 16.640625 4.335937 4.777344 6.792968 10.960938 6.910156 17.410156zm0 0"/><path d="m409.601562 145.066406v-51.199218c0-4.714844-3.820312-8.535157-8.535156-8.535157-4.710937 0-8.53125 3.820313-8.53125 8.535157v51.199218c0 4.714844 3.820313 8.535156 8.53125 8.535156 4.714844 0 8.535156-3.820312 8.535156-8.535156zm0 0"/><path d="m358.398438 93.867188v51.199218c0 4.714844 3.820312 8.535156 8.535156 8.535156 4.710937 0 8.53125-3.820312 8.53125-8.535156v-51.199218c0-4.714844-3.820313-8.535157-8.53125-8.535157-4.714844 0-8.535156 3.820313-8.535156 8.535157zm0 0"/><path d="m426.667969 93.867188v51.199218c0 4.714844 3.820312 8.535156 8.53125 8.535156 4.714843 0 8.535156-3.820312 8.535156-8.535156v-51.199218c0-4.714844-3.820313-8.535157-8.535156-8.535157-4.710938 0-8.53125 3.820313-8.53125 8.535157zm0 0"/><path d="m409.601562 273.066406c0-4.710937-3.820312-8.53125-8.535156-8.53125-4.710937 0-8.53125 3.820313-8.53125 8.53125v51.199219c0 4.714844 3.820313 8.535156 8.53125 8.535156 4.714844 0 8.535156-3.820312 8.535156-8.535156zm0 0"/><path d="m443.734375 324.265625c0 4.714844 3.820313 8.535156 8.53125 8.535156 4.714844 0 8.535156-3.820312 8.535156-8.535156v-51.199219c0-4.710937-3.820312-8.53125-8.535156-8.53125-4.710937 0-8.53125 3.820313-8.53125 8.53125zm0 0"/><path d="m503.464844 264.535156c-4.710938 0-8.53125 3.820313-8.53125 8.53125v51.199219c0 4.714844 3.820312 8.535156 8.53125 8.535156 4.714844 0 8.535156-3.820312 8.535156-8.535156v-51.199219c0-4.710937-3.820312-8.53125-8.535156-8.53125zm0 0"/><path d="m494.933594 85.332031h-17.066406c-9.425782 0-17.066407 7.640625-17.066407 17.066407v34.136718c0 9.425782 7.640625 17.066406 17.066407 17.066406h17.066406c9.425781 0 17.066406-7.640624 17.066406-17.066406v-34.136718c0-9.425782-7.640625-17.066407-17.066406-17.066407zm-17.066406 51.203125v-34.136718h17.066406v34.136718zm0 0"/><path d="m503.464844 179.199219c-4.710938 0-8.53125 3.820312-8.53125 8.535156v51.199219c0 4.710937 3.820312 8.53125 8.53125 8.53125 4.714844 0 8.535156-3.820313 8.535156-8.53125v-51.199219c0-4.714844-3.820312-8.535156-8.535156-8.535156zm0 0"/><path d="m469.332031 247.464844c4.714844 0 8.535157-3.820313 8.535157-8.53125v-51.199219c0-4.714844-3.820313-8.535156-8.535157-8.535156-4.710937 0-8.53125 3.820312-8.53125 8.535156v51.199219c0 4.710937 3.820313 8.53125 8.53125 8.53125zm0 0"/><path d="m426.667969 247.464844c9.425781 0 17.066406-7.640625 17.066406-17.066406v-34.132813c0-9.425781-7.640625-17.066406-17.066406-17.066406h-17.066407c-9.425781 0-17.066406 7.640625-17.066406 17.066406v34.132813c0 9.425781 7.640625 17.066406 17.066406 17.066406zm-17.066407-51.199219h17.066407v34.132813h-17.066407zm0 0"/><path d="m401.066406 358.398438c-4.710937 0-8.53125 3.820312-8.53125 8.535156v51.199218c0 4.714844 3.820313 8.535157 8.53125 8.535157 4.714844 0 8.535156-3.820313 8.535156-8.535157v-51.199218c0-4.714844-3.820312-8.535156-8.535156-8.535156zm0 0"/><path d="m426.667969 366.933594v51.199218c0 4.714844 3.820312 8.535157 8.53125 8.535157 4.714843 0 8.535156-3.820313 8.535156-8.535157v-51.199218c0-4.714844-3.820313-8.535156-8.535156-8.535156-4.710938 0-8.53125 3.820312-8.53125 8.535156zm0 0"/><path d="m494.933594 358.398438h-17.066406c-9.425782 0-17.066407 7.640624-17.066407 17.066406v34.136718c0 9.425782 7.640625 17.066407 17.066407 17.066407h17.066406c9.425781 0 17.066406-7.640625 17.066406-17.066407v-34.136718c0-9.425782-7.640625-17.066406-17.066406-17.066406zm-17.066406 51.203124v-34.136718h17.066406v34.136718zm0 0"/><path d="m110.933594 153.601562c4.710937 0 8.53125-3.820312 8.53125-8.535156v-51.199218c0-4.714844-3.820313-8.535157-8.53125-8.535157-4.714844 0-8.535156 3.820313-8.535156 8.535157v51.199218c0 4.714844 3.820312 8.535156 8.535156 8.535156zm0 0"/><path d="m145.066406 153.601562c4.714844 0 8.535156-3.820312 8.535156-8.535156v-51.199218c0-4.714844-3.820312-8.535157-8.535156-8.535157-4.710937 0-8.53125 3.820313-8.53125 8.535157v51.199218c0 4.714844 3.820313 8.535156 8.53125 8.535156zm0 0"/><path d="m85.332031 145.066406v-51.199218c0-4.714844-3.820312-8.535157-8.53125-8.535157-4.714843 0-8.535156 3.820313-8.535156 8.535157v51.199218c0 4.714844 3.820313 8.535156 8.535156 8.535156 4.710938 0 8.53125-3.820312 8.53125-8.535156zm0 0"/><path d="m110.933594 332.800781c4.710937 0 8.53125-3.820312 8.53125-8.535156v-51.199219c0-4.710937-3.820313-8.53125-8.53125-8.53125-4.714844 0-8.535156 3.820313-8.535156 8.53125v51.199219c0 4.714844 3.820312 8.535156 8.535156 8.535156zm0 0"/><path d="m68.265625 324.265625v-51.199219c0-4.710937-3.820313-8.53125-8.53125-8.53125-4.714844 0-8.535156 3.820313-8.535156 8.53125v51.199219c0 4.714844 3.820312 8.535156 8.535156 8.535156 4.710937 0 8.53125-3.820312 8.53125-8.535156zm0 0"/><path d="m8.535156 332.800781c4.710938 0 8.53125-3.820312 8.53125-8.535156v-51.199219c0-4.710937-3.820312-8.53125-8.53125-8.53125-4.714844 0-8.535156 3.820313-8.535156 8.53125v51.199219c0 4.714844 3.820312 8.535156 8.535156 8.535156zm0 0"/><path d="m17.066406 153.601562h17.066406c9.425782 0 17.066407-7.640624 17.066407-17.066406v-34.136718c0-9.425782-7.640625-17.066407-17.066407-17.066407h-17.066406c-9.425781 0-17.066406 7.640625-17.066406 17.066407v34.136718c0 9.425782 7.640625 17.066406 17.066406 17.066406zm0-51.203124h17.066406v34.136718h-17.066406zm0 0"/><path d="m8.535156 247.464844c4.710938 0 8.53125-3.820313 8.53125-8.53125v-51.199219c0-4.714844-3.820312-8.535156-8.53125-8.535156-4.714844 0-8.535156 3.820312-8.535156 8.535156v51.199219c0 4.710937 3.820312 8.53125 8.535156 8.53125zm0 0"/><path d="m51.199219 187.734375c0-4.714844-3.820313-8.535156-8.53125-8.535156-4.714844 0-8.535157 3.820312-8.535157 8.535156v51.199219c0 4.710937 3.820313 8.53125 8.535157 8.53125 4.710937 0 8.53125-3.820313 8.53125-8.53125zm0 0"/><path d="m68.265625 196.265625v34.132813c0 9.425781 7.640625 17.066406 17.066406 17.066406h17.066407c9.425781 0 17.066406-7.640625 17.066406-17.066406v-34.132813c0-9.425781-7.640625-17.066406-17.066406-17.066406h-17.066407c-9.425781 0-17.066406 7.640625-17.066406 17.066406zm34.132813 34.132813h-17.066407v-34.132813h17.066407zm0 0"/><path d="m102.398438 418.132812c0 4.714844 3.820312 8.535157 8.535156 8.535157 4.710937 0 8.53125-3.820313 8.53125-8.535157v-51.199218c0-4.714844-3.820313-8.535156-8.53125-8.535156-4.714844 0-8.535156 3.820312-8.535156 8.535156zm0 0"/><path d="m76.800781 426.667969c4.710938 0 8.53125-3.820313 8.53125-8.535157v-51.199218c0-4.714844-3.820312-8.535156-8.53125-8.535156-4.714843 0-8.535156 3.820312-8.535156 8.535156v51.199218c0 4.714844 3.820313 8.535157 8.535156 8.535157zm0 0"/><path d="m17.066406 426.667969h17.066406c9.425782 0 17.066407-7.640625 17.066407-17.066407v-34.136718c0-9.425782-7.640625-17.066406-17.066407-17.066406h-17.066406c-9.425781 0-17.066406 7.640624-17.066406 17.066406v34.136718c0 9.425782 7.640625 17.066407 17.066406 17.066407zm0-51.203125h17.066406v34.136718h-17.066406zm0 0"/><path d="m494.933594 68.265625c4.710937 0 8.53125-3.820313 8.53125-8.53125v-51.199219c0-4.714844-3.820313-8.535156-8.53125-8.535156-4.714844 0-8.535156 3.820312-8.535156 8.535156v51.199219c0 4.710937 3.820312 8.53125 8.535156 8.53125zm0 0"/><path d="m460.800781 68.265625c4.710938 0 8.53125-3.820313 8.53125-8.53125v-51.199219c0-4.714844-3.820312-8.535156-8.53125-8.535156-4.714843 0-8.535156 3.820312-8.535156 8.535156v51.199219c0 4.710937 3.820313 8.53125 8.535156 8.53125zm0 0"/><path d="m358.398438 68.265625c4.714843 0 8.535156-3.820313 8.535156-8.53125v-51.199219c0-4.714844-3.820313-8.535156-8.535156-8.535156-4.710938 0-8.53125 3.820312-8.53125 8.535156v51.199219c0 4.710937 3.820312 8.53125 8.53125 8.53125zm0 0"/><path d="m401.066406 68.265625h17.066406c9.425782 0 17.066407-7.640625 17.066407-17.066406v-34.132813c0-9.425781-7.640625-17.066406-17.066407-17.066406h-17.066406c-9.425781 0-17.066406 7.640625-17.066406 17.066406v34.132813c0 9.425781 7.640625 17.066406 17.066406 17.066406zm0-51.199219h17.066406v34.132813h-17.066406zm0 0"/><path d="m298.667969 68.265625h17.066406c9.425781 0 17.066406-7.640625 17.066406-17.066406v-34.132813c0-9.425781-7.640625-17.066406-17.066406-17.066406h-17.066406c-9.425781 0-17.066407 7.640625-17.066407 17.066406v34.132813c0 9.425781 7.640626 17.066406 17.066407 17.066406zm0-51.199219h17.066406v34.132813h-17.066406zm0 0"/><path d="m256 68.265625c4.710938 0 8.535156-3.820313 8.535156-8.53125v-51.199219c0-4.714844-3.824218-8.535156-8.535156-8.535156s-8.535156 3.820312-8.535156 8.535156v51.199219c0 4.710937 3.824218 8.53125 8.535156 8.53125zm0 0"/><path d="m221.867188 68.265625c4.710937 0 8.53125-3.820313 8.53125-8.53125v-51.199219c0-4.714844-3.820313-8.535156-8.53125-8.535156-4.714844 0-8.535157 3.820312-8.535157 8.535156v51.199219c0 4.710937 3.820313 8.53125 8.535157 8.53125zm0 0"/><path d="m17.066406 68.265625c4.714844 0 8.535156-3.820313 8.535156-8.53125v-51.199219c0-4.714844-3.820312-8.535156-8.535156-8.535156-4.710937 0-8.53125 3.820312-8.53125 8.535156v51.199219c0 4.710937 3.820313 8.53125 8.53125 8.53125zm0 0"/><path d="m119.464844 68.265625c4.714844 0 8.535156-3.820313 8.535156-8.53125v-51.199219c0-4.714844-3.820312-8.535156-8.535156-8.535156-4.710938 0-8.53125 3.820312-8.53125 8.535156v51.199219c0 4.710937 3.820312 8.53125 8.53125 8.53125zm0 0"/><path d="m162.132812 68.265625h17.066407c9.425781 0 17.066406-7.640625 17.066406-17.066406v-34.132813c0-9.425781-7.640625-17.066406-17.066406-17.066406h-17.066407c-9.425781 0-17.066406 7.640625-17.066406 17.066406v34.132813c0 9.425781 7.640625 17.066406 17.066406 17.066406zm0-51.199219h17.066407v34.132813h-17.066407zm0 0"/><path d="m59.734375 68.265625h17.066406c9.425781 0 17.066407-7.640625 17.066407-17.066406v-34.132813c0-9.425781-7.640626-17.066406-17.066407-17.066406h-17.066406c-9.425781 0-17.066406 7.640625-17.066406 17.066406v34.132813c0 9.425781 7.640625 17.066406 17.066406 17.066406zm0-51.199219h17.066406v34.132813h-17.066406zm0 0"/><path d="m8.535156 452.265625v51.199219c0 4.714844 3.820313 8.535156 8.53125 8.535156 4.714844 0 8.535156-3.820312 8.535156-8.535156v-51.199219c0-4.710937-3.820312-8.53125-8.535156-8.53125-4.710937 0-8.53125 3.820313-8.53125 8.53125zm0 0"/><path d="m42.667969 452.265625v51.199219c0 4.714844 3.820312 8.535156 8.53125 8.535156 4.714843 0 8.535156-3.820312 8.535156-8.535156v-51.199219c0-4.710937-3.820313-8.53125-8.535156-8.53125-4.710938 0-8.53125 3.820313-8.53125 8.53125zm0 0"/><path d="m145.066406 452.265625v51.199219c0 4.714844 3.820313 8.535156 8.535156 8.535156 4.710938 0 8.53125-3.820312 8.53125-8.535156v-51.199219c0-4.710937-3.820312-8.53125-8.53125-8.53125-4.714843 0-8.535156 3.820313-8.535156 8.53125zm0 0"/><path d="m93.867188 512h17.066406c9.425781 0 17.066406-7.640625 17.066406-17.066406v-34.132813c0-9.425781-7.640625-17.066406-17.066406-17.066406h-17.066406c-9.425782 0-17.066407 7.640625-17.066407 17.066406v34.132813c0 9.425781 7.640625 17.066406 17.066407 17.066406zm0-51.199219h17.066406v34.132813h-17.066406zm0 0"/><path d="m196.265625 443.734375c-9.425781 0-17.066406 7.640625-17.066406 17.066406v34.132813c0 9.425781 7.640625 17.066406 17.066406 17.066406h17.066406c9.425781 0 17.066407-7.640625 17.066407-17.066406v-34.132813c0-9.425781-7.640626-17.066406-17.066407-17.066406zm0 51.199219v-34.132813h17.066406v34.132813zm0 0"/><path d="m247.464844 452.265625v51.199219c0 4.714844 3.824218 8.535156 8.535156 8.535156s8.535156-3.820312 8.535156-8.535156v-51.199219c0-4.710937-3.824218-8.53125-8.535156-8.53125s-8.535156 3.820313-8.535156 8.53125zm0 0"/><path d="m281.601562 452.265625v51.199219c0 4.714844 3.820313 8.535156 8.53125 8.535156 4.714844 0 8.535157-3.820312 8.535157-8.535156v-51.199219c0-4.710937-3.820313-8.53125-8.535157-8.53125-4.710937 0-8.53125 3.820313-8.53125 8.53125zm0 0"/><path d="m503.464844 503.464844v-51.199219c0-4.710937-3.820313-8.53125-8.53125-8.53125-4.714844 0-8.535156 3.820313-8.535156 8.53125v51.199219c0 4.714844 3.820312 8.535156 8.535156 8.535156 4.710937 0 8.53125-3.820312 8.53125-8.535156zm0 0"/><path d="m392.535156 512c4.710938 0 8.53125-3.820312 8.53125-8.535156v-51.199219c0-4.710937-3.820312-8.53125-8.53125-8.53125-4.714844 0-8.535156 3.820313-8.535156 8.53125v51.199219c0 4.714844 3.820312 8.535156 8.535156 8.535156zm0 0"/><path d="m332.800781 443.734375c-9.425781 0-17.066406 7.640625-17.066406 17.066406v34.132813c0 9.425781 7.640625 17.066406 17.066406 17.066406h17.066407c9.425781 0 17.066406-7.640625 17.066406-17.066406v-34.132813c0-9.425781-7.640625-17.066406-17.066406-17.066406zm0 51.199219v-34.132813h17.066407v34.132813zm0 0"/><path d="m435.199219 512h17.066406c9.425781 0 17.066406-7.640625 17.066406-17.066406v-34.132813c0-9.425781-7.640625-17.066406-17.066406-17.066406h-17.066406c-9.425781 0-17.066407 7.640625-17.066407 17.066406v34.132813c0 9.425781 7.640626 17.066406 17.066407 17.066406zm0-51.199219h17.066406v34.132813h-17.066406zm0 0"/></svg>