<?xml version="1.0" encoding="iso-8859-1"?>
<!-- Generator: Adobe Illustrator 16.0.0, SVG Export Plug-In . SVG Version: 6.00 Build 0)  -->
<!DOCTYPE svg PUBLIC "-//W3C//DTD SVG 1.1//EN" "http://www.w3.org/Graphics/SVG/1.1/DTD/svg11.dtd">
<svg version="1.1" id="Capa_1" xmlns="http://www.w3.org/2000/svg" xmlns:xlink="http://www.w3.org/1999/xlink" x="0px" y="0px"
	 width="612px" height="612px" viewBox="0 0 612 612" style="enable-background:new 0 0 612 612;" xml:space="preserve">
<g>
	<path d="M507.9,117.596c-6.4,0-11.9,5.6-11.9,11.9v15c0,6.4,5.6,11.9,11.9,11.9h7.899L369.9,303.296l-3.101-11.2
		c-3.1-10.4-11.2-23-33.3-20.6l-85.7,4l-58.1-54.1c-7.1-7.1-19.8-15.8-38.1-11.2L0,250.896v27h0.8l61.9-16.7l16.7,59.5L0,342.096
		v126.199c8.7,19.801,31,30.201,51.6,24.602c22.2-6.4,35.7-27.801,31.8-50.801l153.2-41.199c7.1,21.398,31,34.1,53.2,27.799
		c22.2-6.4,35.7-27.799,31.8-50.799l43.7-11.9c10.4-3.1,18.3-10.4,15-23l-4-15l172.2-172.101h24.6v103.2H612v-141.5H507.9z
		 M46,473.897c-12.7,4-26.2-4-29.3-16.701c-3.1-12.699,4-25.4,16.7-28.5c2.3-1.6,4-1.6,5.6-1.6c11.2-0.801,21.4,6.4,23.9,17.5
		C65.9,457.196,58.7,469.897,46,473.897z M105.6,312.696l-15.8-60.3l57.1-15c3.1,0,5.6,0,8.7,0c7.9,0.8,15,4.8,19.8,9.5l38.1,37.4
		L105.6,312.696z M284.1,408.795c-12.7,3.102-26.2-4-29.3-16.699c-3.1-12.699,4.8-25.4,17.5-29.301c1.6,0.801,3.1,0.801,4.8,0
		c11.2-0.799,21.4,6.4,23.9,17.5C304,392.897,296.9,405.596,284.1,408.795z M470.6,297.696v127.701
		c0,11.898,3.101,21.398,22.2,21.398h27c1.601,26.201,23.9,47.602,50.8,47.602c17.5,0,32.601-8.701,41.2-22.201v-195.1
		c0.8-0.8-119.1-0.8-119.1-0.8C473,276.296,470.6,284.996,470.6,297.696z M570.6,415.196c15,0,27,11.9,27,27
		c0,15-11.899,27.801-27,27.801c-15.1,0-27.8-12.701-27.8-27.801C543.7,427.897,555.6,415.196,570.6,415.196z"/>
</g>
<g>
</g>
<g>
</g>
<g>
</g>
<g>
</g>
<g>
</g>
<g>
</g>
<g>
</g>
<g>
</g>
<g>
</g>
<g>
</g>
<g>
</g>
<g>
</g>
<g>
</g>
<g>
</g>
<g>
</g>
</svg>
