<?xml version="1.0" encoding="iso-8859-1"?>
<!-- Generator: Adobe Illustrator 16.0.0, SVG Export Plug-In . SVG Version: 6.00 Build 0)  -->
<!DOCTYPE svg PUBLIC "-//W3C//DTD SVG 1.1//EN" "http://www.w3.org/Graphics/SVG/1.1/DTD/svg11.dtd">
<svg version="1.1" id="Capa_1" xmlns="http://www.w3.org/2000/svg" xmlns:xlink="http://www.w3.org/1999/xlink" x="0px" y="0px"
	 width="79.538px" height="79.538px" viewBox="0 0 79.538 79.538" style="enable-background:new 0 0 79.538 79.538;"
	 xml:space="preserve">
<g>
	<path style="fill:#010002;" d="M28.635,32.496c0,2.02-1.639,3.661-3.664,3.661c-2.025,0-3.669-1.642-3.669-3.661
		c0-2.03,1.644-3.666,3.669-3.666C26.996,28.83,28.635,30.466,28.635,32.496z M25.359,57.584l0.785,13.515
		c0,0.477,0.386,0.865,0.857,0.865c0.479,0,0.859-0.389,0.859-0.865l0.738-13.515h2.392l-2.473-15.151l4.974,9.906
		c0.187,0.439,0.689,0.647,1.129,0.455c0.435-0.181,0.642-0.684,0.451-1.123c0,0-3.648-9.864-4.549-11.703
		c-0.891-1.838-1.781-2.957-5.202-2.957h-0.699c-3.415,0-4.306,1.118-5.207,2.951c-0.896,1.844-4.557,11.702-4.557,11.702
		c-0.179,0.44,0.023,0.948,0.458,1.129c0.44,0.192,0.942-0.021,1.129-0.455l4.979-9.906l-2.475,15.151h2.39l0.743,13.515
		c0,0.477,0.386,0.865,0.86,0.865c0.481,0,0.862-0.389,0.862-0.865l0.737-13.515H25.359z M54.582,28.82
		c-2.029,0-3.671,1.636-3.671,3.666c0,2.02,1.646,3.656,3.671,3.656c2.02,0,3.65-1.636,3.65-3.656
		C58.232,30.456,56.602,28.82,54.582,28.82z M58.378,50.392l0.243-7.974l4.474,9.911c0.187,0.44,0.688,0.643,1.129,0.456
		c0.436-0.182,0.647-0.684,0.461-1.129c0,0-3.153-9.859-4.055-11.703c-0.896-1.833-2.283-2.952-5.706-2.952h-0.699
		c-3.412,0-4.815,1.119-5.711,2.952c-0.901,1.843-4.052,11.703-4.052,11.703c-0.185,0.445,0.022,0.947,0.458,1.129
		c0.44,0.187,0.942-0.021,1.129-0.456l4.479-9.911l0.249,7.974l-0.71,20.023c-0.057,0.798,0.544,1.486,1.331,1.538
		c0.042,0,0.078,0.006,0.104,0.006c0.751,0,1.383-0.575,1.439-1.336l1.632-15.488l1.631,15.488c0.052,0.761,0.684,1.336,1.439,1.336
		c0.031,0,0.067,0,0.099-0.006c0.797-0.052,1.388-0.74,1.336-1.538L58.378,50.392L58.378,50.392z M39.77,51.096
		c-1.24,0-2.247,1.005-2.247,2.247c0,1.243,1.007,2.242,2.247,2.242c1.24,0,2.252-0.999,2.252-2.242
		C42.022,52.101,41.01,51.096,39.77,51.096z M39.77,64.337c0,0,1.012,7.031,1.012,7.037c0.132,0.336,0.461,0.585,0.854,0.585
		c0.409,0,0.743-0.27,0.865-0.638c0.01-0.016,0.031-0.435,0.01-0.502l-0.414-8.637l0.127-2.962c0.116-1.01,0.137-0.715,1.289-1.398
		c1.171-0.704,3.167-3.79,3.26-3.945c0.096-0.15,0.282-0.425,0.318-0.596c0.055-0.315-0.147-0.606-0.455-0.668
		c-0.238-0.042-0.436,0.083-0.583,0.249c-0.155,0.16-2.449,3.215-4.173,3.51c-0.381-0.057-0.8-0.259-1.893-0.259h-0.435
		c-1.093,0-1.507,0.202-1.893,0.259c-1.725-0.295-4.019-3.35-4.174-3.51c-0.147-0.166-0.344-0.291-0.577-0.249
		c-0.308,0.062-0.51,0.357-0.451,0.668c0.031,0.171,0.218,0.445,0.313,0.596c0.096,0.155,2.094,3.241,3.259,3.945
		c1.152,0.684,1.173,0.389,1.29,1.398l0.122,2.962l-0.409,8.637c-0.021,0.072,0,0.486,0.01,0.502
		c0.122,0.368,0.45,0.638,0.865,0.638c0.388,0,0.722-0.249,0.854-0.585C38.763,71.368,39.77,64.337,39.77,64.337 M78.909,36.747
		c1.108-1.584,0.714-3.774-0.881-4.883L45.613,9.313c-3.329-2.319-8.357-2.319-11.682,0L1.509,31.864
		c-1.592,1.108-1.988,3.299-0.88,4.883c1.108,1.59,3.291,1.989,4.883,0.881l32.417-22.551c0.914-0.632,2.763-0.632,3.677,0
		l32.415,22.551c0.611,0.424,1.315,0.632,1.999,0.632C77.138,38.254,78.23,37.726,78.909,36.747z"/>
</g>
<g>
</g>
<g>
</g>
<g>
</g>
<g>
</g>
<g>
</g>
<g>
</g>
<g>
</g>
<g>
</g>
<g>
</g>
<g>
</g>
<g>
</g>
<g>
</g>
<g>
</g>
<g>
</g>
<g>
</g>
</svg>
