<svg height="512pt" viewBox="0 -9 512.14552 512" width="512pt" xmlns="http://www.w3.org/2000/svg"><path d="m486.472656 324.339844c-10.824218.03125-20.457031 6.863281-24.066406 17.066406h-11.730469c-2.136719.007812-4.1875-.839844-5.691406-2.355469l-65.914063-65.910156h56.203126c34.25-.59375 62.957031-26.066406 67.621093-60.003906 4.664063-33.941407-16.113281-66.210938-48.933593-76.019531-9.003907-2.597657-18.449219-3.292969-27.734376-2.046876-2.828124.367188-5.660156-.667968-7.582031-2.777343-1.917969-2.109375-2.691406-5.023438-2.0625-7.804688 1.832031-8.988281 2.121094-18.222656.855469-27.304687-4.777344-33.742188-30.957031-60.441406-64.597656-65.878906-15.648438-2.40625-31.65625.191406-45.738282 7.425781-3.484374 1.609375-7.613281.742187-10.15625-2.136719-21.554687-23.257812-51.824218-36.492188-83.539062-36.5195312-61.042969.4453122-111.292969 48.1210932-114.945312 109.0546872-.351563 4.527344-4.164063 8.003906-8.703126 7.9375h-4.351562c-21.441406.191406-41.847656 9.253906-56.363281 25.035156-14.519531 15.777344-21.855469 36.867188-20.265625 58.25 3.238281 41.300782 37.847656 73.074219 79.273437 72.789063h53.554688l-42.667969 42.664063h-49.203125c-4.15625-11.753907-16.175781-18.804688-28.464844-16.695313-12.289062 2.105469-21.269531 12.761719-21.269531 25.230469s8.980469 23.121094 21.269531 25.230468c12.289063 2.109376 24.308594-4.941406 28.464844-16.699218h44.203125v27.136718c-11.753906 4.15625-18.804688 16.175782-16.695312 28.464844 2.105468 12.289063 12.761718 21.273438 25.230468 21.273438s23.121094-8.984375 25.230469-21.273438c2.109375-12.289062-4.941406-24.308594-16.699219-28.464844v-32.136718l48.699219-48.699219c1.601563-1.597656 2.5-3.769531 2.503906-6.03125h34.132813v51.199219c0 4.710937 3.820312 8.53125 8.53125 8.53125h30.917968c2.074219.003906 4.082032-.753906 5.640626-2.125l11.714843-10.238282c1.867188-1.625 2.933594-3.984374 2.925781-6.460937v-40.90625h102.402344c0 2.261719.898438 4.433594 2.5 6.03125l40.898438 40.902344-15.300782 15.296875v.054687c-3.433593-1.675781-7.207031-2.550781-11.03125-2.554687-14.140624 0-25.601562 11.464844-25.601562 25.601562 0 14.136719 11.460938 25.601563 25.601562 25.601563 14.136719 0 25.597657-11.464844 25.597657-25.601563-.011719-3.8125-.886719-7.574218-2.558594-11h.050781l15.308594-15.332031 18.980469 18.976563c4.699219 4.726562 11.09375 7.375 17.757812 7.355468h11.730469c4.34375 12.28125 17.21875 19.34375 29.910156 16.40625 12.695313-2.9375 21.15625-14.9375 19.65625-27.882812-1.496094-12.941406-12.472656-22.691406-25.5-22.65625zm-170.667968-119.46875c-.042969 14.121094-11.476563 25.558594-25.597657 25.601562h-68.269531c-14.121094-.042968-25.558594-11.480468-25.597656-25.601562v-51.199219c.027344-10.820313 6.863281-20.457031 17.066406-24.0625v-10.070313c0-23.5625 19.101562-42.667968 42.664062-42.667968 23.566407 0 42.667969 19.105468 42.667969 42.667968v10.070313c10.203125 3.605469 17.035157 13.242187 17.066407 24.0625zm0 0"/><path d="m290.207031 145.140625h-68.269531c-4.710938 0-8.53125 3.820313-8.53125 8.53125v51.199219c0 4.714844 3.820312 8.535156 8.53125 8.535156h68.269531c4.710938 0 8.53125-3.820312 8.53125-8.535156v-51.199219c0-4.710937-3.820312-8.53125-8.53125-8.53125zm-25.601562 42.664063c0 4.714843-3.820313 8.535156-8.535157 8.535156-4.710937 0-8.53125-3.820313-8.53125-8.535156v-17.066407c0-4.710937 3.820313-8.53125 8.53125-8.53125 4.714844 0 8.535157 3.820313 8.535157 8.53125zm0 0"/><path d="m281.671875 119.539062c0-14.136718-11.460937-25.601562-25.601563-25.601562-14.136718 0-25.597656 11.464844-25.597656 25.601562v8.535157h51.199219zm0 0"/><path d="m264.605469 375.539062v59.734376c0 4.710937 3.820312 8.53125 8.53125 8.53125h30.917969c2.078124.003906 4.082031-.753907 5.640624-2.125l11.714844-10.238282c1.867188-1.625 2.9375-3.984375 2.929688-6.460937v-49.441407c0-4.710937-3.820313-8.53125-8.535156-8.53125h-42.667969c-4.710938 0-8.53125 3.820313-8.53125 8.53125zm0 0"/><path d="m170.738281 426.738281v59.734375c0 4.714844 3.820313 8.535156 8.535157 8.535156h30.914062c2.078125 0 4.082031-.753906 5.640625-2.125l11.71875-10.242187c1.863281-1.625 2.933594-3.984375 2.925781-6.460937v-49.441407c0-4.710937-3.820312-8.53125-8.535156-8.53125h-42.664062c-4.714844 0-8.535157 3.820313-8.535157 8.53125zm0 0"/><path d="m332.871094 332.871094v-17.066406c0-4.710938-3.820313-8.53125-8.53125-8.53125-4.714844 0-8.535156 3.820312-8.535156 8.53125v17.066406c0 4.714844 3.820312 8.535156 8.535156 8.535156 4.710937 0 8.53125-3.820312 8.53125-8.535156zm0 0"/><path d="m298.738281 332.871094v-17.066406c0-4.710938-3.820312-8.53125-8.53125-8.53125-4.714843 0-8.535156 3.820312-8.535156 8.53125v17.066406c0 4.714844 3.820313 8.535156 8.535156 8.535156 4.710938 0 8.53125-3.820312 8.53125-8.535156zm0 0"/><path d="m170.738281 358.472656c-4.710937 0-8.53125 3.820313-8.53125 8.535156v17.066407c0 4.710937 3.820313 8.53125 8.53125 8.53125 4.714844 0 8.535157-3.820313 8.535157-8.53125v-17.066407c0-4.714843-3.820313-8.535156-8.535157-8.535156zm0 0"/><path d="m213.40625 384.074219v-17.066407c0-4.714843-3.820312-8.535156-8.535156-8.535156-4.710938 0-8.53125 3.820313-8.53125 8.535156v17.066407c0 4.710937 3.820312 8.53125 8.53125 8.53125 4.714844 0 8.535156-3.820313 8.535156-8.53125zm0 0"/></svg>