<svg height="503pt" viewBox="0 0 503 503.55873" width="503pt" xmlns="http://www.w3.org/2000/svg"><path d="m431.90625 75.578125-67.746094 67.746094c55.375 60.363281 52.738282 153.808593-5.957031 210.953125-58.695313 57.140625-152.179687 57.273437-211.039063.300781-58.855468-56.972656-61.761718-150.414063-6.558593-210.933594 55.203125-60.523437 148.515625-66.199219 210.648437-12.816406l13.859375-13.859375c-30.722656-28.476562-70.898437-44.570312-112.785156-45.179688-4.960937 0-8.980469-4.023437-8.980469-8.984374 0-4.960938 4.019532-8.984376 8.980469-8.984376 46.644531.574219 91.382813 18.609376 125.386719 50.546876l14.21875-14.21875c-38.222656-34.738282-87.957032-54.078126-139.605469-54.292969-4.960937 0-8.980469-4.019531-8.980469-8.980469s4.019532-8.984375 8.980469-8.984375c56.441406.140625 110.804687 21.316406 152.46875 59.394531l14.085937-14.085937c-102.839843-90.972657-259.605468-82.777344-352.398437 18.421875-92.792969 101.195312-87.398437 258.082031 12.128906 352.667968 99.527344 94.582032 256.484375 91.988282 352.828125-5.835937 96.347656-97.820313 96.550782-254.800781.464844-352.875zm-350.246094 50.105469c14.882813 0 26.949219 12.0625 26.949219 26.945312 0 14.882813-12.066406 26.949219-26.949219 26.949219-14.882812 0-26.945312-12.066406-26.945312-26.949219 0-14.882812 12.0625-26.945312 26.945312-26.945312zm-17.964844 224.558594c-14.882812 0-26.945312-12.0625-26.945312-26.945313s12.0625-26.949219 26.945312-26.949219c14.882813 0 26.949219 12.066406 26.949219 26.949219s-12.066406 26.945313-26.949219 26.945313zm0 0"/><path d="m72.679688 323.296875c0 4.960937-4.023438 8.980469-8.984376 8.980469-4.960937 0-8.980468-4.019532-8.980468-8.980469s4.019531-8.984375 8.980468-8.984375c4.960938 0 8.984376 4.023438 8.984376 8.984375zm0 0"/><path d="m90.644531 152.628906c0 4.960938-4.023437 8.984375-8.984375 8.984375-4.960937 0-8.980468-4.023437-8.980468-8.984375 0-4.960937 4.019531-8.980468 8.980468-8.980468 4.960938 0 8.984375 4.019531 8.984375 8.980468zm0 0"/><path d="m171.484375 242.453125c0 4.960937-4.019531 8.984375-8.980469 8.984375-4.960937 0-8.984375-4.023438-8.984375-8.984375s4.023438-8.980469 8.984375-8.980469c4.960938 0 8.980469 4.019532 8.980469 8.980469zm0 0"/><path d="m274.785156 246.945312c0 12.402344-10.054687 22.457032-22.457031 22.457032s-22.457031-10.054688-22.457031-22.457032c0-12.402343 10.054687-22.457031 22.457031-22.457031s22.457031 10.054688 22.457031 22.457031zm0 0"/><path d="m252.328125 134.664062c25.757813-.210937 50.855469 8.136719 71.347656 23.742188l14.882813-14.875c-56.492188-47.871094-140.777344-42.292969-190.46875 12.605469-49.691406 54.898437-46.875 139.316406 6.363281 190.78125 53.242187 51.464843 137.707031 51.414062 190.886719-.113281 53.179687-51.527344 55.894531-135.949219 6.136718-190.789063l-65.839843 65.839844c-.378907.296875-.777344.566406-1.195313.800781 5.355469 6.953125 8.277344 15.476562 8.316406 24.253906.015626 16.351563-9.824218 31.101563-24.925781 37.367188-15.101562 6.269531-32.492187 2.820312-44.0625-8.734375-11.566406-11.554688-15.035156-28.941407-8.78125-44.050781 6.25-15.109376 20.988281-24.964844 37.339844-24.96875 6.660156.042968 13.207031 1.757812 19.035156 4.984374.390625-.863281.917969-1.65625 1.5625-2.351562l10.777344-10.78125c-9.230469-6.359375-20.164063-9.78125-31.375-9.816406-4.960937 0-8.980469-4.019532-8.980469-8.980469s4.019532-8.984375 8.980469-8.984375c15.984375.03125 31.523437 5.253906 44.285156 14.875l14.273438-14.273438c-17.046875-12.265624-37.5625-18.769531-58.558594-18.566406-4.960937 0-8.980469-4.019531-8.980469-8.980468 0-4.960938 4.019532-8.984376 8.980469-8.984376zm-89.824219 134.738282c-14.882812 0-26.949218-12.066406-26.949218-26.949219s12.066406-26.945313 26.949218-26.945313c14.882813 0 26.945313 12.0625 26.945313 26.945313s-12.0625 26.949219-26.945313 26.949219zm0 0"/></svg>