<svg height="395pt" viewBox="1 1 395.736 395" width="395pt" xmlns="http://www.w3.org/2000/svg"><path d="m219.214844 311.511719h148.5v42.425781h-148.5zm0 0"/><path d="m169.714844 141.796875c7.808594 0 14.140625-6.332031 14.140625-14.144531v-28.285156c0-7.808594-6.332031-14.140626-14.140625-14.140626-7.8125 0-14.144532 6.332032-14.144532 14.140626v28.285156c0 7.8125 6.332032 14.144531 14.144532 14.144531zm0 0"/><path d="m247.5 95.832031c0-5.855469-4.75-10.605469-10.605469-10.605469h-17.679687v21.214844h17.679687c5.855469 0 10.605469-4.75 10.605469-10.609375zm0 0"/><path d="m247.5 131.1875c0-5.855469-4.75-10.605469-10.605469-10.605469h-17.679687v21.214844h17.679687c5.855469 0 10.605469-4.75 10.605469-10.609375zm0 0"/><path d="m35.359375 198.367188h141.425781v42.429687h-141.425781zm0 0"/><path d="m374.785156.367188h-353.570312c-11.714844 0-21.214844 9.5-21.214844 21.214843v21.214844h396v-21.214844c0-11.714843-9.5-21.214843-21.214844-21.214843zm-353.570312 28.285156c-3.90625 0-7.074219-3.164063-7.074219-7.070313s3.167969-7.070312 7.074219-7.070312 7.070312 3.164062 7.070312 7.070312-3.164062 7.070313-7.070312 7.070313zm28.285156 0c-3.90625 0-7.070312-3.164063-7.070312-7.070313s3.164062-7.070312 7.070312-7.070312 7.070312 3.164062 7.070312 7.070312-3.164062 7.070313-7.070312 7.070313zm28.285156 0c-3.90625 0-7.070312-3.164063-7.070312-7.070313s3.164062-7.070312 7.070312-7.070312 7.074219 3.164062 7.074219 7.070312-3.167969 7.070313-7.074219 7.070313zm0 0"/><path d="m0 375.152344c0 11.714844 9.5 21.214844 21.214844 21.214844h353.570312c11.714844 0 21.214844-9.5 21.214844-21.214844v-318.210938h-396zm300.535156-254.570313h-7.070312c-13.671875 0-24.75-11.082031-24.75-24.75s11.082031-24.75 24.75-24.75h10.605468c11.472657.570313 20.648438 9.742188 21.214844 21.214844 0 3.90625-3.167968 7.070313-7.070312 7.070313-3.90625 0-7.074219-3.164063-7.074219-7.070313-.503906-3.675781-3.394531-6.566406-7.070313-7.070313h-10.609374c-5.855469 0-10.605469 4.75-10.605469 10.605469 0 5.859375 4.75 10.609375 10.605469 10.609375h7.074218c13.667969 0 24.75 11.078125 24.75 24.746094s-11.082031 24.75-24.75 24.75h-10.609375c-11.472656-.566406-20.644531-9.742188-21.210937-21.214844 0-3.902344 3.164062-7.070312 7.070312-7.070312s7.070313 3.167968 7.070313 7.070312c.503906 3.679688 3.394531 6.566406 7.074219 7.074219h10.605468c5.859375 0 10.605469-4.75 10.605469-10.609375 0-5.855469-4.746094-10.605469-10.605469-10.605469zm-95.464844-7.070312v-28.289063c0-7.808594 6.332032-14.140625 14.144532-14.140625h17.679687c10.0625-.015625 19.128907 6.074219 22.921875 15.398438 3.796875 9.320312 1.558594 20.011719-5.65625 27.03125 7.214844 7.015625 9.453125 17.707031 5.65625 27.03125-3.792968 9.320312-12.859375 15.410156-22.921875 15.398437h-17.679687c-7.8125 0-14.144532-6.332031-14.144532-14.144531zm7.070313 70.710937h162.644531c3.90625 0 7.070313 3.167969 7.070313 7.074219s-3.164063 7.070313-7.070313 7.070313h-162.644531c-3.902344 0-7.070313-3.164063-7.070313-7.070313s3.167969-7.074219 7.070313-7.074219zm0 28.289063h162.644531c3.90625 0 7.070313 3.164062 7.070313 7.070312s-3.164063 7.070313-7.070313 7.070313h-162.644531c-3.902344 0-7.070313-3.164063-7.070313-7.070313s3.167969-7.070312 7.070313-7.070312zm0 28.285156h162.644531c3.90625 0 7.070313 3.164063 7.070313 7.070313s-3.164063 7.074218-7.070313 7.074218h-162.644531c-3.902344 0-7.070313-3.167968-7.070313-7.074218s3.167969-7.070313 7.070313-7.070313zm0 28.285156h162.644531c3.90625 0 7.070313 3.167969 7.070313 7.070313 0 3.90625-3.164063 7.074218-7.070313 7.074218h-162.644531c-3.902344 0-7.070313-3.167968-7.070313-7.074218 0-3.902344 3.167969-7.070313 7.070313-7.070313zm-7.070313 42.429688c0-7.8125 6.332032-14.144531 14.144532-14.144531h148.5c7.808594 0 14.140625 6.332031 14.140625 14.144531v42.425781c0 7.8125-6.332031 14.144531-14.140625 14.144531h-148.5c-7.8125 0-14.144532-6.332031-14.144532-14.144531zm-35.355468-240.429688c15.621094 0 28.285156 12.664063 28.285156 28.285157v28.285156c0 15.621094-12.664062 28.289062-28.285156 28.289062-15.625 0-28.285156-12.667968-28.285156-28.289062v-28.285156c0-15.621094 12.664062-28.285157 28.285156-28.285157zm-91.929688 53.035157c3.90625 0 7.074219 3.167968 7.074219 7.070312 0 5.859375 4.746094 10.609375 10.605469 10.609375s10.605468-4.75 10.605468-10.609375v-45.964844h-14.140624c-3.90625 0-7.074219-3.164062-7.074219-7.070312s3.167969-7.070313 7.074219-7.070313h42.425781c3.90625 0 7.074219 3.164063 7.074219 7.070313s-3.167969 7.070312-7.074219 7.070312h-14.140625v45.964844c0 13.671875-11.082032 24.75-24.75 24.75-13.667969 0-24.75-11.082031-24.75-24.75 0-3.902344 3.164062-7.070312 7.070312-7.070312zm-56.570312 74.25c0-7.808594 6.332031-14.140626 14.140625-14.140626h141.429687c7.8125 0 14.140625 6.332032 14.140625 14.140626v42.429687c0 7.8125-6.332031 14.140625-14.140625 14.140625h-141.425781c-7.8125 0-14.144531-6.332031-14.144531-14.140625zm7.070312 70.714843h155.574219c3.902344 0 7.070313 3.167969 7.070313 7.070313 0 3.90625-3.167969 7.074218-7.070313 7.074218h-155.574219c-3.90625 0-7.070312-3.167968-7.070312-7.074218 0-3.902344 3.164062-7.070313 7.070312-7.070313zm0 28.285157h155.574219c3.902344 0 7.070313 3.167968 7.070313 7.074218 0 3.902344-3.167969 7.070313-7.070313 7.070313h-155.574219c-3.90625 0-7.070312-3.167969-7.070312-7.070313 0-3.90625 3.164062-7.074218 7.070312-7.074218zm0 28.285156h155.574219c3.902344 0 7.070313 3.167968 7.070313 7.074218s-3.167969 7.070313-7.070313 7.070313h-155.574219c-3.90625 0-7.070312-3.164063-7.070312-7.070313s3.164062-7.074218 7.070312-7.074218zm0 28.285156h155.574219c3.902344 0 7.070313 3.167969 7.070313 7.074219s-3.167969 7.070312-7.070313 7.070312h-155.574219c-3.90625 0-7.070312-3.164062-7.070312-7.070312s3.164062-7.074219 7.070312-7.074219zm0 0"/></svg>