<svg height="395pt" viewBox="0 0 395.89017 395" width="395pt" xmlns="http://www.w3.org/2000/svg"><path d="m101.058594 127.679688h-5.929688c-1.03125.050781-32.058594 1.683593-33.222656 25.101562-.992188 10.84375-.402344 21.777344 1.746094 32.453125.847656 3.644531 1.304687 7.367187 1.355468 11.109375 0 1.917969-.089843 3.789062-.183593 5.65625-1.660157 7.25 1.082031 14.800781 7.011719 19.289062 4.296874 3.769532 8.09375 8.070313 11.308593 12.796876 4.121094 5.703124 5.15625 6.722656 8.914063 6.722656h12.40625c3.761718 0 4.800781-1.019532 8.929687-6.722656 2.109375-3.035157 4.425781-5.921876 6.925781-8.644532v-92.761718c-6.058593-2.839844-12.589843-4.535157-19.261718-5zm0 0"/><path d="m99.113281 284.957031c-11.578125-.503906-23.058593-2.382812-34.195312-5.597656 7.898437 16.609375 19.617187 31.117187 34.195312 42.335937 7.738281-6.445312 14.839844-13.613281 21.207031-21.410156v-17.914062c-6.96875 1.539062-14.070312 2.40625-21.207031 2.585937zm0 0"/><path d="m103.53125 336.425781c-.167969.132813-.378906.167969-.554688.289063-1.136718.785156-2.488281 1.1875-3.867187 1.160156-.441406.007812-.882813-.027344-1.316406-.105469-.894531-.199219-1.753907-.554687-2.53125-1.046875-.175781-.121094-.386719-.15625-.5625-.289062-32.8125-26.246094-42.632813-48.511719-45.574219-59.695313-13.945312 1.667969-27.03125 7.613281-37.460938 17.019531-8.421874 10.46875-12.535156 23.753907-11.511718 37.148438 0 30.296875 73.289062 37.109375 98.964844 37.109375 5.355468 0 12.800781-.308594 21.203124-1.058594v-45.496093c-5.3125 5.296874-10.917968 10.292968-16.789062 14.964843zm0 0"/><path d="m104.4375 254.917969h-12.390625c-6.375.183593-12.46875-2.617188-16.480469-7.578125-2.808594 6.089844-6.011718 11.996094-9.589844 17.671875 10.773438 3.25 21.898438 5.203125 33.136719 5.808593 7.144531-.21875 14.253907-1.164062 21.207031-2.828124v-20.101563c-3.957031 4.625-9.796874 7.207031-15.882812 7.027344zm0 0"/><path d="m332.382812 85.269531c-11.699218-.035156-21.171874-9.507812-21.207031-21.207031v-63.617188h-162.582031c-15.613281 0-28.273438 12.660157-28.273438 28.273438v103.960938c8.203126 3.429687 13.738282 11.226562 14.277344 20.101562.992188 10.847656.40625 21.777344-1.742187 32.453125-.851563 3.644531-1.308594 7.371094-1.359375 11.113281 0 1.914063.09375 3.789063.183594 5.652344 1.664062 7.25-1.082032 14.800781-7.011719 19.292969-1.519531 1.308593-2.96875 2.703125-4.339844 4.167969v22.449218c.585937-.632812 1.214844-1.25 1.753906-1.921875 2.929688 6.578125 6.339844 12.9375 10.199219 19.015625-3.40625.953125-7.554688 2.027344-11.945312 2.996094v14.390625c4.644531-.9375 9.152343-1.992187 12.976562-3.007813-3.324219 7.539063-7.699219 14.574219-12.992188 20.894532v21.203125c13.359376-12.121094 23.285157-27.546875 28.785157-44.730469 13.945312 1.671875 27.03125 7.617188 37.464843 17.023438 8.414063 10.464843 12.527344 23.742187 11.507813 37.132812 0 23.941406-45.882813 33.222656-77.757813 36.046875v1.0625c-.03125 12.042969 7.617188 22.765625 19.015626 26.648437.632812.285157 1.296874.5 1.980468.636719.71875.203125 1.453125.371094 2.191406.496094.835938.183594 1.6875.304687 2.542969.351563.847657.070312 1.699219.140624 2.546875.140624h219.128906c15.613282 0 28.273438-12.660156 28.273438-28.273437v-282.746094zm-190.855468-42.414062c0-11.710938 9.492187-21.207031 21.203125-21.207031h14.140625c11.710937 0 21.203125 9.496093 21.203125 21.207031 0 3.90625-3.164063 7.070312-7.066407 7.070312-3.90625 0-7.070312-3.164062-7.070312-7.070312 0-3.902344-3.164062-7.070313-7.070312-7.070313h-14.136719c-3.902344 0-7.066407 3.167969-7.066407 7.070313v28.273437c0 3.90625 3.164063 7.070313 7.066407 7.070313h14.136719c3.90625 0 7.070312-3.164063 7.070312-7.070313 0-3.902344 3.164062-7.066406 7.070312-7.066406 3.902344 0 7.066407 3.164062 7.066407 7.066406 0 11.714844-9.492188 21.207032-21.203125 21.207032h-14.140625c-11.710938 0-21.203125-9.492188-21.203125-21.207032zm106.03125 318.089843h-19.015625c-3.90625 0-7.070313-3.164062-7.070313-7.066406 0-3.90625 3.164063-7.070312 7.070313-7.070312h19.015625c3.902344 0 7.066406 3.164062 7.066406 7.070312 0 3.902344-3.164062 7.066406-7.066406 7.066406zm0-28.273437h-14.210938c-3.902344 0-7.066406-3.164063-7.066406-7.070313 0-3.902343 3.164062-7.066406 7.066406-7.066406h14.210938c3.902344 0 7.066406 3.164063 7.066406 7.066406 0 3.90625-3.164062 7.070313-7.066406 7.070313zm0-28.273437h-19.015625c-3.90625 0-7.070313-3.164063-7.070313-7.070313 0-3.902344 3.164063-7.070313 7.070313-7.070313h19.015625c3.902344 0 7.066406 3.167969 7.066406 7.070313 0 3.90625-3.164062 7.070313-7.066406 7.070313zm0-28.277344h-35.769532c-3.902343 0-7.070312-3.164063-7.070312-7.066406 0-3.90625 3.167969-7.070313 7.070312-7.070313h35.769532c3.902344 0 7.066406 3.164063 7.066406 7.070313 0 3.902343-3.164062 7.066406-7.066406 7.066406zm0-28.273438h-84.824219c-3.90625 0-7.070313-3.164062-7.070313-7.070312 0-3.902344 3.164063-7.066406 7.070313-7.066406h84.824219c3.902344 0 7.066406 3.164062 7.066406 7.066406 0 3.90625-3.164062 7.070312-7.066406 7.070312zm0-28.273437h-63.621094c-3.902344 0-7.066406-3.167969-7.066406-7.070313s3.164062-7.070312 7.066406-7.070312h63.621094c3.902344 0 7.066406 3.167968 7.066406 7.070312s-3.164062 7.070313-7.066406 7.070313zm0-28.277344h-63.621094c-3.902344 0-7.066406-3.164063-7.066406-7.066406 0-3.90625 3.164062-7.070313 7.066406-7.070313h63.621094c3.902344 0 7.066406 3.164063 7.066406 7.070313 0 3.902343-3.164062 7.066406-7.066406 7.066406zm0-28.273437h-63.621094c-3.902344 0-7.066406-3.164063-7.066406-7.070313 0-3.902344 3.164062-7.066406 7.066406-7.066406h63.621094c3.902344 0 7.066406 3.164062 7.066406 7.066406 0 3.90625-3.164062 7.070313-7.066406 7.070313zm0-28.273438h-77.757813c-3.902343 0-7.070312-3.164062-7.070312-7.070312 0-3.902344 3.167969-7.066407 7.070312-7.066407h77.757813c3.902344 0 7.066406 3.164063 7.066406 7.066407 0 3.90625-3.164062 7.070312-7.066406 7.070312zm13.773437-103.820312-17.894531 54.261718c-1.464844 4.21875-5.414062 7.070313-9.878906 7.128906-4.464844.0625-8.488282-2.683593-10.0625-6.863281l-17.992188-54.527343c-1.222656-3.707032.792969-7.707032 4.5-8.929688 3.710938-1.226562 7.707032.789062 8.933594 4.5l14.484375 43.921875 14.496094-43.9375c1.222656-3.710937 5.222656-5.722656 8.929687-4.5 3.710938 1.222656 5.722656 5.222656 4.5 8.933594zm104.320313 287.25-34.484375 34.480468c-11.042969 11.039063-28.941407 11.039063-39.980469 0l-13.28125-13.28125c-8.167969-8.296875-8.117188-21.628906.117188-29.867187 8.230468-8.234375 21.566406-8.289063 29.867187-.125l3.285156 3.289062 24.492188-24.488281c5.34375-5.429688 13.1875-7.574219 20.550781-5.621094s13.113281 7.703125 15.0625 15.066406c1.949219 7.363282-.195312 15.207032-5.628906 20.546876zm0-77.753907-34.484375 34.480469c-11.042969 11.039062-28.941407 11.039062-39.980469 0l-13.28125-13.28125c-8.167969-8.300781-8.117188-21.632812.117188-29.867188 8.230468-8.234374 21.566406-8.289062 29.867187-.125l3.285156 3.285157 24.492188-24.484375c5.34375-5.429688 13.1875-7.578125 20.550781-5.625s13.113281 7.707031 15.0625 15.070312c1.949219 7.359375-.195312 15.207032-5.628906 20.546875zm0-77.753906-34.484375 34.480469c-11.042969 11.035156-28.941407 11.035156-39.980469 0l-13.28125-13.285156c-8.167969-8.296876-8.117188-21.628907.117188-29.867188 8.230468-8.234375 21.566406-8.289062 29.867187-.125l3.285156 3.289062 24.492188-24.484374c5.34375-5.429688 13.1875-7.578126 20.550781-5.625 7.363281 1.953124 13.113281 7.703124 15.0625 15.066406 1.949219 7.363281-.195312 15.207031-5.628906 20.550781zm0 0"/><path d="m345.664062 142.679688-26.988281 26.980468c-4.140625 4.140625-10.851562 4.140625-14.992187 0l-5.785156-5.773437c-1.761719-1.882813-4.410157-2.652344-6.910157-2.011719-2.496093.640625-4.449219 2.589844-5.089843 5.085938-.644532 2.5.125 5.148437 2.007812 6.914062l13.28125 13.28125c5.59375 5.339844 14.398438 5.339844 19.988281 0l34.488281-34.488281c1.839844-1.773438 2.574219-4.402344 1.929688-6.875-.648438-2.46875-2.578125-4.402344-5.050781-5.046875-2.46875-.648438-5.097657.089844-6.871094 1.925781zm0 0"/><path d="m332.382812 71.128906h53.648438l-60.71875-60.71875v53.652344c0 3.902344 3.164062 7.066406 7.070312 7.066406zm0 0"/><path d="m345.664062 220.433594-26.988281 26.984375c-4.140625 4.136719-10.851562 4.136719-14.992187 0l-5.785156-5.777344c-1.761719-1.878906-4.410157-2.652344-6.910157-2.011719-2.496093.640625-4.449219 2.589844-5.089843 5.089844-.644532 2.496094.125 5.144531 2.007812 6.910156l13.28125 13.28125c5.59375 5.34375 14.398438 5.34375 19.988281 0l34.488281-34.488281c1.839844-1.773437 2.574219-4.402344 1.929688-6.871094-.648438-2.472656-2.578125-4.402343-5.050781-5.050781-2.46875-.648438-5.097657.089844-6.871094 1.929688zm0 0"/><path d="m345.664062 298.191406-26.988281 26.980469c-4.140625 4.140625-10.851562 4.140625-14.992187 0l-5.785156-5.773437c-1.761719-1.882813-4.410157-2.652344-6.910157-2.011719-2.496093.636719-4.449219 2.589843-5.089843 5.085937-.644532 2.496094.125 5.148438 2.007812 6.910156l13.28125 13.285157c5.59375 5.339843 14.398438 5.339843 19.988281 0l34.488281-34.488281c1.839844-1.777344 2.574219-4.40625 1.929688-6.875-.648438-2.46875-2.578125-4.402344-5.050781-5.046876-2.46875-.648437-5.097657.089844-6.871094 1.925782zm0 0"/></svg>