<svg height="580pt" viewBox="-35 0 580 580" width="580pt" xmlns="http://www.w3.org/2000/svg"><path d="m0 250h300v20h-300zm0 0"/><path d="m360 376.203125c-2.179688 1.121094-4.277344 2.390625-6.28125 3.796875h6.28125v20h-23.863281c-6.484375 12.308594-7.894531 26.664062-3.925781 40h37.789062v20h-27.148438c4.722657 5.710938 10.554688 10.40625 17.148438 13.796875 16.6875-8.597656 27.847656-25.105469 29.609375-43.796875h-39.609375v-20h37.789062c-4.210937-14.613281-14.265624-26.84375-27.789062-33.796875zm0 0"/><path d="m360 280c-82.84375 0-150 67.15625-150 150s67.15625 150 150 150 150-67.15625 150-150c-.09375-82.804688-67.195312-149.90625-150-150zm50 145c-.085938 22.613281-10.347656 43.988281-27.929688 58.207031 17.148438 9.335938 27.851563 27.265625 27.929688 46.792969h-20c-.042969-13.863281-8.632812-26.257812-21.601562-31.171875l-8.398438-3.148437-8.398438 3.148437c-5.894531 2.246094-11.019531 6.117187-14.789062 11.171875h23.1875v20h-50c.078125-19.527344 10.78125-37.457031 27.929688-46.792969-17.65625-14.160156-27.929688-35.570312-27.929688-58.207031s10.273438-44.046875 27.929688-58.207031c-17.148438-9.335938-27.851563-27.265625-27.929688-46.792969h20c.042969 13.863281 8.632812 26.257812 21.601562 31.171875l8.398438 3.148437 8.398438-3.148437c5.894531-2.246094 11.019531-6.117187 14.789062-11.171875h-33.1875v-20h60c-.078125 19.527344-10.78125 37.457031-27.929688 46.792969 17.582032 14.21875 27.84375 35.59375 27.929688 58.207031zm0 0"/><path d="m245.277344 555.085938c-38.261719-34.886719-58.472656-85.359376-54.863282-137.015626 3.605469-51.660156 30.625-98.832031 73.367188-128.070312h-240.25l22.269531 189.320312 12.988281 100.679688h183.558594zm0 0"/><path d="m250 110h-40c-18.832031-.003906-36.867188 7.609375-50 21.097656v-61.097656h20c33.125-.035156 59.964844-26.875 60-60 0-5.523438-4.476562-10-10-10h-30c-33.125.0351562-59.964844 26.875-60 60v31.097656c-13.132812-13.488281-31.167969-21.101562-50-21.097656h-30c-5.523438 0-10 4.476562-10 10 .042969 38.640625 31.359375 69.957031 70 70h20v90h20v-50h30c38.640625-.042969 69.957031-31.359375 70-70 0-5.523438-4.476562-10-10-10zm0 0"/></svg>