<svg height="395pt" viewBox="0 0 395 395.72874" width="395pt" xmlns="http://www.w3.org/2000/svg"><path d="m113.425781 313.417969c-3.410156 0-6.480469 2.050781-7.785156 5.199219-1.304687 3.152343-.582031 6.777343 1.832031 9.183593 3.335938 3.183594 8.582032 3.183594 11.914063 0 2.414062-2.40625 3.136719-6.035156 1.832031-9.1875-1.304688-3.148437-4.382812-5.199219-7.792969-5.195312zm0 0"/><path d="m141.304688 337.800781c-3.292969-3.289062-8.625-3.289062-11.917969 0-3.289063 3.289063-3.289063 8.625 0 11.914063 3.335937 3.183594 8.582031 3.183594 11.917969 0 1.582031-1.574219 2.46875-3.71875 2.46875-5.953125s-.886719-4.375-2.46875-5.953125zm0 0"/><path d="m163.21875 359.714844c-3.292969-3.289063-8.625-3.289063-11.917969 0-3.289062 3.289062-3.289062 8.625 0 11.914062 3.335938 3.183594 8.582031 3.183594 11.917969 0 1.582031-1.574218 2.46875-3.71875 2.46875-5.953125s-.886719-4.375-2.46875-5.953125zm0 0"/><path d="m249.6875 184.632812c-.175781.128907-.359375.253907-.550781.367188-.171875.140625-.269531.335938-.453125.464844-.289063.167968-.59375.316406-.90625.4375-.9375.523437-1.996094.800781-3.074219.800781-.808594-.015625-1.609375-.171875-2.363281-.460937-.160156-.054688-.308594-.105469-.464844-.175782-.75-.328125-1.4375-.785156-2.03125-1.351562-.039062-.035156-.089844-.046875-.132812-.085938-.042969-.035156-.09375-.167968-.164063-.238281-.253906-.238281-.488281-.492187-.707031-.765625-.5-.699219-1.066406-1.355469-1.683594-1.957031-7.832031-7.808594-20.507812-7.808594-28.339844 0l-7.222656 7.242187c-.5.851563-1.179688 1.585938-1.984375 2.15625-.109375.078125-.234375.097656-.339844.167969l-37.007812 37.007813c-1.570313 1.542968-2.445313 3.660156-2.425781 5.859374-.058594 2.265626.816406 4.457032 2.425781 6.054688 3.34375 3.164062 8.574219 3.164062 11.917969 0l27.386718-27.386719c.210938-.160156.433594-.304687.664063-.4375.503906-.460937 1.074219-.84375 1.691406-1.132812 2.320313-1.089844 5.050781-.816407 7.113281.707031 7.980469 5.941406 19.109375 5.148438 26.164063-1.867188.617187-.601562 1.175781-1.253906 1.675781-1.953124 2.226562-3.164063 6.585938-3.953126 9.78125-1.765626s4.035156 6.539063 1.886719 9.757813c-.988281 1.417969-2.109375 2.742187-3.34375 3.953125-5.136719 5.085938-11.761719 8.402344-18.910157 9.460938l22.027344 22.027343 37.960938 37.953125.460937.460938 50.253907-50.257813-72.171876-72.171875zm0 0"/><path d="m185.125 381.625c-2.84375-2.835938-7.289062-3.265625-10.625-1.03125-3.332031 2.230469-4.625 6.511719-3.085938 10.214844 1.535157 3.707031 5.480469 5.8125 9.414063 5.027344 3.9375-.78125 6.769531-4.238282 6.769531-8.25.003906-2.238282-.886718-4.382813-2.472656-5.960938zm0 0"/><path d="m394.25 207.289062-78.597656-78.585937c-1.328125-1.328125-3.125-2.074219-5.003906-2.074219-1.878907 0-3.675782.746094-5.003907 2.074219l-28.824219 28.824219 83.609376 83.613281c2.796874 2.667969 7.195312 2.667969 9.992187 0l23.828125-23.832031c2.761719-2.761719 2.761719-7.238282 0-10zm-23.335938 10.472657c-2.21875 2.238281-5.570312 2.914062-8.484374 1.714843-2.914063-1.199218-4.816407-4.039062-4.816407-7.191406s1.902344-5.992187 4.816407-7.195312c2.917968-1.199219 6.265624-.519532 8.484374 1.71875 3.007813 3.03125 3.003907 7.921875-.003906 10.953125zm0 0"/><path d="m91.039062 134.15625c-2.761718-2.761719-7.238281-2.761719-10 0l-78.601562 78.597656c-1.328125 1.328125-2.074219 3.125-2.074219 5.003906 0 1.878907.746094 3.675782 2.074219 5.003907l23.855469 23.824219c1.324219 1.328124 3.125 2.074218 5 2.074218 1.878906 0 3.679687-.746094 5.003906-2.074218l6.421875-6.421876 77.152344-77.183593zm-54.304687 89.097656c-2.21875 2.242188-5.570313 2.917969-8.484375 1.71875-2.914062-1.199218-4.816406-4.042968-4.816406-7.195312s1.902344-5.992188 4.816406-7.191406c2.914062-1.199219 6.265625-.523438 8.484375 1.714843 2.996094 3.03125 3 7.902344.007813 10.933594zm0 0"/><path d="m278.265625 299.464844-71.707031-71.703125-22.386719 22.386719c-8.828125 8.777343-23.085937 8.777343-31.914063 0-8.773437-8.824219-8.773437-23.078126 0-31.90625l33.144532-33.117188c-7.101563-4.960938-16.574219-4.847656-23.554688.285156-.789062.546875-1.523437 1.167969-2.191406 1.851563-.582031.5625-1.105469 1.175781-1.570312 1.832031-.136719.191406-.332032.289062-.484376.464844-.183593.441406-.539062.789062-.980468.960937-.367188.308594-.765625.570313-1.1875.792969-.789063.40625-1.648438.65625-2.53125.742188-.226563 0-.441406.128906-.667969.128906-.222656 0-.457031-.113282-.707031-.136719-.910156-.082031-1.792969-.355469-2.59375-.796875-.242188-.085938-.476563-.179688-.707032-.292969-.191406-.125-.289062-.332031-.464843-.472656-.191407-.113281-.375-.234375-.554688-.367187l-17.238281-17.238282-72.273438 72.269532 54.453126 54.453124c6.070312-.484374 12.074218 1.574219 16.574218 5.675782 4.5 4.105468 7.097656 9.890625 7.179688 15.984375 5.769531.121093 11.273437 2.460937 15.367187 6.535156 4.089844 4.082031 6.4375 9.59375 6.554688 15.371094 5.765625.125 11.261719 2.464843 15.351562 6.535156 4.089844 4.085937 6.4375 9.59375 6.554688 15.375 5.769531.121094 11.265625 2.464844 15.351562 6.53125l4.773438 4.769531c2.019531 2.582032 5.347656 3.769532 8.546875 3.054688 3.199218-.71875 5.699218-3.21875 6.417968-6.417969.722657-3.199219-.464843-6.527344-3.046874-8.546875l-43.09375-43.09375c-2.679688-2.777344-2.644532-7.1875.085937-9.914062 2.726563-2.726563 7.136719-2.765626 9.910156-.085938l43.097657 43.09375c3.308593 3.660156 8.945312 3.976562 12.640624.707031 1.542969-1.578125 2.355469-3.734375 2.234376-5.941406-.097657-2.53125-1.160157-4.929687-2.96875-6.703125l-43.09375-43.09375c-2.679688-2.773438-2.640626-7.183594.085937-9.910156 2.726563-2.730469 7.136719-2.765625 9.914063-.085938l43.09375 43.09375c3.308593 3.65625 8.945312 3.972656 12.644531.707032 1.539062-1.582032 2.351562-3.734376 2.234375-5.941407-.097656-2.53125-1.160156-4.925781-2.972656-6.695312l-43.09375-43.101563c-2.679688-2.777344-2.640626-7.1875.085937-9.914062 2.726563-2.726563 7.136719-2.765625 9.914063-.085938l43.84375 43.84375c3.332031 3.183594 8.582031 3.183594 11.914062 0 3.265625-3.285156 3.269531-8.589844.015625-11.882812zm0 0"/><path d="m49.628906 99c3.902344 0 7.070313-3.164062 7.070313-7.070312v-35.355469h35.355469v35.355469c0 3.90625 3.167968 7.074218 7.074218 7.074218s7.070313-3.167968 7.070313-7.074218v-84.855469c0-3.90625-3.164063-7.074219-7.070313-7.074219s-7.074218 3.167969-7.074218 7.070312v35.359376h-35.355469v-35.359376c0-3.902343-3.167969-7.070312-7.070313-7.070312-3.90625 0-7.074218 3.167969-7.074218 7.070312v84.859376c0 3.90625 3.167968 7.070312 7.074218 7.070312zm0 0"/><path d="m275.914062 14.144531c3.90625 0 7.074219-3.167969 7.074219-7.074219s-3.167969-7.070312-7.074219-7.070312h-49.5c-3.90625 0-7.070312 3.167969-7.070312 7.070312v84.859376c0 3.90625 3.164062 7.070312 7.070312 7.070312h49.5c3.90625 0 7.074219-3.164062 7.074219-7.070312s-3.167969-7.070313-7.074219-7.070313h-42.425781v-28.285156h42.425781c3.90625 0 7.074219-3.167969 7.074219-7.074219s-3.167969-7.070312-7.074219-7.070312h-42.425781v-28.285157zm0 0"/><path d="m212.273438 28.285156c0-15.621094-12.664063-28.285156-28.289063-28.285156h-28.285156c-3.90625 0-7.070313 3.167969-7.070313 7.070312v84.859376c0 3.90625 3.164063 7.070312 7.070313 7.070312s7.074219-3.164062 7.074219-7.070312v-35.355469h16.84375l19.261718 38.515625c1.75 3.496094 5.996094 4.910156 9.492188 3.164062 3.492187-1.75 4.90625-5.996094 3.160156-9.492187l-17.121094-34.234375c10.761719-4.265625 17.839844-14.660156 17.863282-26.242188zm-28.289063 14.144532h-21.210937v-28.285157h21.210937c7.8125 0 14.144531 6.332031 14.144531 14.140625s-6.332031 14.144532-14.144531 14.144532zm0 0"/><path d="m120.34375 7.070312v84.859376c0 3.90625 3.164062 7.070312 7.070312 7.070312s7.070313-3.164062 7.070313-7.070312v-84.859376c0-3.902343-3.164063-7.070312-7.070313-7.070312s-7.070312 3.167969-7.070312 7.070312zm0 0"/><path d="m297.132812 0c-3.90625 0-7.074218 3.167969-7.074218 7.070312v84.859376c0 3.90625 3.167968 7.070312 7.074218 7.070312h21.214844c19.515625-.019531 35.332032-15.839844 35.355469-35.355469v-28.285156c-.023437-19.519531-15.839844-35.3359375-35.355469-35.359375zm42.425782 35.359375v28.285156c0 11.714844-9.496094 21.214844-21.210938 21.214844h-14.144531v-70.714844h14.144531c11.714844 0 21.210938 9.496094 21.210938 21.214844zm0 0"/></svg>