<svg viewBox="0 0 512 512.0007" xmlns="http://www.w3.org/2000/svg"><path d="m156.097656 271h158.046875l154.257813-89.0625c7.179687-4.144531 9.640625-13.316406 5.492187-20.492188l-90-153.9375c-4.128906-7.140624-13.296875-9.660156-20.492187-5.492187l-259.804688 148.046875c-7.226562 4.183594-9.589844 13.417969-5.492187 20.496094zm89.296875-115.605469c5.859375-5.859375 15.351563-5.859375 21.210938 0l12.832031 12.832031 22.339844-66.972656c2.621094-7.851562 11.015625-12.113281 18.96875-9.476562 7.851562 2.605468 12.101562 11.101562 9.480468 18.96875l-30 90c-3.5 10.523437-16.925781 13.765625-24.832031 5.859375l-30-30c-5.859375-5.859375-5.859375-15.351563 0-21.210938zm0 0"/><path d="m497 211h-18.921875l-103.921875 60h31.84375c8.292969 0 15 6.710938 15 15 0 8.292969-6.707031 15-15 15h-300c-8.289062 0-15-6.707031-15-15 0-8.289062 6.710938-15 15-15h15.457031l-34.644531-60h-71.8125c-8.289062 0-15 6.710938-15 15v105h512v-105c0-8.289062-6.707031-15-15-15zm0 0"/><path d="m0 497c0 8.292969 6.710938 15 15 15h482c8.292969 0 15-6.707031 15-15v-136h-512zm0 0"/></svg>