<svg height="448pt" viewBox="-26 0 448 448" width="448pt" xmlns="http://www.w3.org/2000/svg"><path d="m213.855469 305.550781c13.34375 6.402344 26.488281 12.136719 39.328125 17.203125 2.03125-13.753906 3.664062-28 4.800781-42.632812-7.359375 4.566406-14.679687 9.007812-21.824219 13.125-7.414062 4.28125-14.863281 8.355468-22.304687 12.304687zm0 0"/><path d="m141.769531 338.832031c2.398438 13.375 5.269531 26.015625 8.550781 37.761719 1.933594-.347656 3.886719-.542969 5.847657-.59375 16.046875-.050781 30.566406 9.515625 36.847656 24.28125 6.285156 14.765625 3.113281 31.859375-8.046875 43.390625 3.179688 2.59375 7.101562 4.109375 11.199219 4.328125 17.535156 0 40.800781-33.886719 54.402343-109.089844-17.699218-6.863281-36-14.917968-54.496093-24.175781-18.722657 9.34375-36.921875 17.410156-54.304688 24.097656zm0 0"/><path d="m180.167969 416c0 13.253906-10.746094 24-24 24-13.253907 0-24-10.746094-24-24s10.746093-24 24-24c13.253906 0 24 10.746094 24 24zm0 0"/><path d="m156.167969 293.28125c-7.421875-4.269531-14.699219-8.640625-21.824219-13.121094 1.148438 14.609375 2.746094 28.785156 4.800781 42.527344 12.6875-4.976562 25.753907-10.675781 39.199219-17.101562-7.375-3.941407-14.765625-8.042969-22.175781-12.304688zm0 0"/><path d="m322.878906 234.398438c-14.710937 11.847656-30.832031 23.601562-48.117187 35.035156-1.257813 20.4375-3.359375 40.253906-6.273438 59.117187 15.070313 5.507813 30.457031 10.101563 46.082031 13.761719 39.847657 9.023438 68.109376 6.664062 75.605469-6.3125 7.496094-12.976562-4.597656-38.632812-32.335937-68.632812-10.980469-11.679688-22.65625-22.6875-34.960938-32.96875zm0 0"/><path d="m396.167969 176c0 13.253906-10.746094 24-24 24-13.253907 0-24-10.746094-24-24s10.746093-24 24-24c13.253906 0 24 10.746094 24 24zm0 0"/><path d="m322.914062 213.671875c5.949219-5.039063 11.519532-9.960937 16.589844-14.71875-10.261718-14.539063-9.664062-34.117187 1.46875-48 11.132813-13.886719 30.109375-18.726563 46.53125-11.875 4.191406-9.175781 6.914063-19.628906 2.617188-27.078125-8.753906-15.199219-49.738282-18.398438-121.601563 7.550781 2.898438 18.839844 5.007813 38.625 6.257813 59.023438 17.253906 11.417969 33.390625 23.210937 48.136718 35.097656zm0 0"/><path d="m310.222656 224c-10.796875-8.574219-22.308594-17.054688-34.535156-25.441406.289062 8.539062.480469 17.042968.480469 25.441406s-.199219 16.96875-.488281 25.519531c12.226562-8.382812 23.738281-16.890625 34.542968-25.519531zm0 0"/><path d="m82.113281 224c10.800781 8.574219 22.3125 17.054688 34.535157 25.441406-.289063-8.539062-.480469-17.042968-.480469-25.441406s.199219-16.96875.488281-25.519531c-12.222656 8.382812-23.738281 16.890625-34.542969 25.519531zm0 0"/><path d="m69.449219 234.351562c-58.359375 49.328126-76.03125 86.449219-67.242188 101.648438 8.792969 15.199219 49.746094 18.398438 121.601563-7.542969-2.902344-18.832031-5.015625-38.617187-6.265625-59.023437-17.230469-11.425782-33.320313-23.203125-48.09375-35.082032zm0 0"/><path d="m35.960938 100.273438c-17.382813 0-29.296876 4-33.785157 11.726562-7.488281 12.976562 4.601563 38.632812 32.335938 68.632812 10.976562 11.679688 22.644531 22.6875 34.945312 32.96875 14.710938-11.847656 30.832031-23.601562 48.121094-35.035156 1.253906-20.4375 3.359375-40.253906 6.269531-59.117187-15.070312-5.507813-30.457031-10.101563-46.078125-13.761719-13.699219-3.316406-27.71875-5.132812-41.808593-5.414062zm0 0"/><path d="m178.480469 142.449219c-13.34375-6.402344-26.488281-12.136719-39.328125-17.203125-2.03125 13.753906-3.664063 28-4.800782 42.632812 7.359376-4.566406 14.679688-9.007812 21.824219-13.125 7.417969-4.28125 14.863281-8.355468 22.304688-12.304687zm0 0"/><path d="m228.167969 168.574219c-10.664063-6.160157-21.335938-11.878907-31.953125-17.335938-10.636719 5.433594-21.382813 11.203125-32.046875 17.371094-10.136719 5.839844-20.574219 12.246094-31.054688 18.957031-.601562 12.175782-.945312 24.433594-.945312 36.433594s.34375 24.214844.9375 36.375c10.0625 6.480469 20.375 12.871094 31.0625 19.050781 10.6875 6.175781 21.335937 11.878907 31.953125 17.335938 10.640625-5.433594 21.382812-11.203125 32.046875-17.371094 10.136719-5.839844 20.578125-12.246094 31.054687-18.957031.601563-12.175782.945313-24.433594.945313-36.433594s-.34375-24.214844-.933594-36.375c-10.066406-6.480469-20.378906-12.871094-31.066406-19.050781zm0 0"/><path d="m250.570312 109.167969c-13.546874-75.257813-36.859374-109.167969-54.402343-109.167969s-40.800781 33.886719-54.398438 109.089844c17.695313 6.863281 36 14.917968 54.496094 24.175781 18.71875-9.34375 36.910156-17.410156 54.304687-24.097656zm0 0"/><path d="m236.167969 154.71875c7.425781 4.269531 14.699219 8.640625 21.824219 13.121094-1.144532-14.609375-2.746094-28.785156-4.800782-42.527344-12.6875 4.976562-25.753906 10.675781-39.199218 17.101562 7.382812 3.949219 14.773437 8.050782 22.175781 12.304688zm0 0"/></svg>