<svg height="512pt" viewBox="-31 0 512 512" width="512pt" xmlns="http://www.w3.org/2000/svg"><path d="m90 75v181c0 8.289062 6.710938 15 15 15h90c8.289062 0 15-6.710938 15-15v-181c0-8.289062-6.710938-15-15-15h-90c-8.289062 0-15 6.710938-15 15zm0 0"/><path d="m60 497c0 8.289062 6.710938 15 15 15h210c8.289062 0 15-6.710938 15-15s-6.710938-15-15-15h-75v-121h-60v121h-75c-8.289062 0-15 6.710938-15 15zm0 0"/><path d="m0 376c0 8.398438 6.597656 15 15 15h35.699219l10.800781 21.597656c2.699219 5.101563 7.800781 8.402344 13.5 8.402344h45v-60h-105c-8.402344 0-15 6.597656-15 15zm0 0"/><path d="m300 121h-60v60h60c49.707031 0 90 40.292969 90 90s-40.292969 90-90 90h-60v60h60c82.84375 0 150-67.15625 150-150s-67.15625-150-150-150zm0 0"/><path d="m165 331c8.285156 0 15-6.714844 15-15v-15h-60v15c0 8.285156 6.714844 15 15 15zm0 0"/><path d="m120 15v15h60v-15c0-8.285156-6.714844-15-15-15h-30c-8.285156 0-15 6.714844-15 15zm0 0"/></svg>