<svg height="395pt" viewBox="0 1 395 395.686" width="395pt" xmlns="http://www.w3.org/2000/svg"><path d="m258.636719 278.777344c0-7.8125 6.332031-14.144532 14.144531-14.144532.554688.023438 1.113281.078126 1.664062.167969h.078126c.382812.066407.769531.101563 1.15625.105469 7.277343 1.527344 12.132812 8.421875 11.113281 15.789062-1.019531 7.363282-7.570313 12.679688-14.988281 12.167969-7.414063-.511719-13.167969-6.679687-13.167969-14.113281zm-111.515625-62.859375c1.132812-5.316407 1.84375-10.710938 2.121094-16.136719 2.007812-1.140625 4.269531-1.753906 6.578124-1.792969.445313 3.175781.332032 6.398438-.324218 9.535157-1.824219 3.648437-4.761719 6.621093-8.390625 8.488281zm30.183594-46.230469c-.015626-17.988281.910156-35.964844 2.773437-53.855469 12.65625-1.238281 22.917969-10.800781 25.042969-23.339843 6.929687-.367188 14.03125-.601563 21.691406-.601563 14.671875.019531 29.332031.816406 43.917969 2.382813 1.859375 12.15625 3.21875 24.695312 4.109375 37.449218-10.625 3.386719-18.25 12.730469-19.441406 23.820313l-77.980469 22.53125c-.042969-2.808594-.113281-5.636719-.113281-8.386719zm106.085937 3.003906c-7.375-.3125-13.269531-6.242187-13.539063-13.617187-.265624-7.375 5.179688-13.71875 12.511719-14.566407h.410157c.085937 0 .148437-.054687.234374-.0625.085938-.007812.234376-.035156.355469-.035156 7.8125 0 14.144531 6.332032 14.144531 14.144532s-6.335937 14.144531-14.144531 14.144531zm-79.535156-94.308594c-2.535157-7.128906-7.820313-12.945312-14.675781-16.144531 9.25-36.777343 23.339843-60.957031 36.707031-62.238281h.210937.707032c12.914062 0 30.925781 25.121094 41.449218 79.917969-13.4375-1.289063-27.261718-2.121094-41.449218-2.121094-8.097657-.050781-15.609376.195313-22.949219.585937zm-26.550781 23.585938c-7.8125 0-14.144532-6.332031-14.144532-14.144531s6.335938-14.144531 14.144532-14.144531c7.8125 0 14.144531 6.332031 14.144531 14.144531s-6.332031 14.144531-14.144531 14.144531zm105.617187-20.59375c-6.203125-34.351562-15.683594-60.6875-27.269531-76.917969 36.65625 11.398438 68.050781 44.128907 85.023437 89.554688-18.828125-5.960938-38.15625-10.191407-57.753906-12.636719zm-85.332031-76.804688c-10.554688 16.972657-18.125 35.628907-22.378906 55.160157-13.558594 1.007812-24.460938 11.566406-25.898438 25.085937-12.304688 2.285156-24.453125 5.355469-36.363281 9.195313 16.972656-45.261719 48.160156-77.9375 84.640625-89.441407zm-18.253906 211.90625-.261719-2.722656c0-.207031 0-.558594 0-.757812-.417969-4.738282-.707031-9.484375-.96875-14.390625-.105469-1.988281-.148438-3.945313-.234375-5.921875l79.550781-22.996094c3.4375 7.886719 10.28125 13.785156 18.59375 16.015625-.320313 10.609375-.929687 20.859375-1.828125 30.75-31.515625 3.535156-63.332031 3.542969-94.851562.023437zm110.820312-30.550781c12.863281-3.144531 21.8125-14.804687 21.523438-28.042969-.292969-13.238281-9.75-24.492187-22.738282-27.066406-.820312-11.851562-2.121094-23.488281-3.726562-34.875 20.789062 2.761719 41.210937 7.785156 60.90625 14.988282 5.3125 19.132812 8 38.898437 7.992187 58.757812-.019531 9.355469-.652343 18.703125-1.898437 27.976562-20.445313 8.234376-41.820313 13.933594-63.648438 16.972657.753906-9.308594 1.285156-18.867188 1.589844-28.683594zm72.445312-67.734375c17.390626 8.847656 28.769532 19.140625 32.53125 29.769532.488282 3.535156.855469 7.183593 1.125 11.195312-1.832031 10.90625-12.023437 21.734375-28.953124 31.210938.601562-6.777344 1.003906-13.652344 1.003906-20.679688-.003906-17.324219-1.917969-34.59375-5.707032-51.496094zm25.828126-.480468c-9.414063-7.085938-19.714844-12.914063-30.640626-17.332032-8.667968-29.21875-24.414062-55.84375-45.839843-77.515625 36.40625 20.988281 63.671875 54.808594 76.449219 94.84375zm-323.207032 0c12.769532-40 40.007813-73.796876 76.382813-94.769532-21.394531 21.65625-37.121094 48.253906-45.78125 77.433594-10.914063 4.425781-21.210938 10.253906-30.617188 17.34375zm98.617188-5.175782c.75.410156 1.457031.875 2.242187 1.214844-1.957031 18.582031-2.933593 37.25-2.921875 55.9375 0 4.078125.070313 8.25.171875 12.453125l-6.210937 1.789063c-2.617188-.191407-5.246094.0625-7.78125.75-.046875-1.550782-.089844-3.050782-.175782-4.746094-.382812-10.964844-5.824218-21.132813-14.730468-27.535156zm-120.203125 95.695313c-.71875-3.371094-.867188-6.835938-.4375-10.253907 1.695312.113282 3.339843.628907 4.796875 1.503907.246094 5.328125.917968 10.628906 2.007812 15.851562-2.683594-1.796875-4.871094-4.238281-6.367187-7.101562zm21.574219 21.640625c.054687-1.117188.078124-2.277344.113281-3.421875 0-.707031.070312-1.449219.070312-2.207031-.054687-3.746094-.507812-7.472657-1.359375-11.117188-2.148437-10.683594-2.738281-21.621094-1.746094-32.46875 1.195313-23.429688 32.242188-25.058594 33.242188-25.113281h5.933594c.324218 0 32.339844 1.53125 33.550781 25.121093.988281 10.847657.402344 21.785157-1.746094 32.46875-.851562 3.644532-1.308593 7.371094-1.359375 11.117188 0 1.914062.089844 3.789062.183594 5.65625 1.660156 7.253906-1.082031 14.8125-7.015625 19.308594-4.296875 3.765625-8.101563 8.066406-11.316406 12.792968-4.128907 5.714844-5.164063 6.726563-8.929688 6.726563h-12.394531c-3.753906 0-4.796875-1.019531-8.917969-6.71875-3.214843-4.730469-7.019531-9.03125-11.316406-12.800781-5.949219-4.5-8.699219-12.074219-7.023437-19.34375zm34.300781 68.886718c-11.25-.617187-22.386719-2.578124-33.171875-5.84375 3.582031-5.679687 6.789062-11.585937 9.605468-17.679687 4.003907 4.976563 10.109376 7.792969 16.492188 7.609375h12.414062c7.007813.152344 13.628907-3.207031 17.644532-8.953125 2.929687 6.582031 6.34375 12.945313 10.203125 19.03125-10.789063 3.265625-21.933594 5.222656-33.1875 5.835937zm99.011719 60.113282c0 30.269531-73.328126 37.128906-99.011719 37.128906-25.6875 0-99.015625-6.824219-99.015625-37.128906-1.027344-13.40625 3.101562-26.703125 11.535156-37.171875 10.433594-9.417969 23.53125-15.367188 37.484375-17.03125 2.941406 11.179687 12.773437 33.460937 45.597656 59.726562.167969.132813.378907.167969.554688.28125 2.347656 1.527344 5.371093 1.527344 7.71875 0 .183593-.121093.386719-.15625.566406-.289062 32.828125-26.269531 42.652344-48.546875 45.59375-59.726563 13.953125 1.667969 27.050781 7.617188 37.484375 17.03125 8.417969 10.480469 12.527344 23.777344 11.492188 37.179688zm-64.8125-51.570313c-7.898438 16.617188-19.617188 31.128907-34.199219 42.347657-14.585938-11.222657-26.3125-25.738282-34.21875-42.355469 11.144531 3.21875 22.628906 5.101562 34.21875 5.609375 11.582031-.507813 23.0625-2.386719 34.199219-5.601563zm12.644531-73.625c0-.535156 0-1.074219 0-1.605469 7.496093-2.617187 14.082031-7.332031 18.976562-13.585937l.480469 5.09375c.609375 6.089844 1.359375 12.023437 2.179688 17.84375zm34.542969-2.785156c15.25 1.625 30.578124 2.445313 45.914062 2.445313 15.355469 0 30.699219-.820313 45.96875-2.453126-.84375 6.988282-1.800781 13.617188-2.871094 19.894532-10.832031 1.105468-20.058594 8.359375-23.691406 18.628906l-63.121094-22.574219c-.839844-5.199219-1.546875-10.519531-2.199218-15.941406zm91.882812 76.175781c13.429688-.011718 24.996094-9.464844 27.691406-22.617187 2.691406-13.15625-4.234375-26.390625-16.578125-31.679688 1.25-7.417969 2.347657-15.34375 3.292969-23.675781 21.285156-2.839844 42.207031-7.929688 62.414062-15.183594-12.234374 60.941406-48.421874 106.996094-93.742187 121.007813 5.894531-8.746094 10.675781-18.195313 14.230469-28.128907.902344.101563 1.773437.277344 2.691406.277344zm39.0625 9.800782c28.988281-29.886719 47.660156-68.269532 53.273438-109.527344 11.222656-5.011719 21.542968-11.835938 30.546874-20.199219-5.378906 54.230469-36.589843 102.539063-83.820312 129.726563zm0 0"/></svg>