<svg height="597pt" viewBox="-68 -18 597 597.33331" width="597pt" xmlns="http://www.w3.org/2000/svg"><path d="m306.832031 0v10h42.902344c5.523437 0 10 4.476562 10 10s-4.476563 10-10 10h-42.902344v10c0 11.046875-8.953125 20-20 20h-120c-11.042969 0-20-8.953125-20-20v-10h-20c-5.519531 0-10-4.476562-10-10s4.480469-10 10-10h20v-10h-150v560h460v-560zm77.101563 10c5.523437 0 10 4.476562 10 10s-4.476563 10-10 10c-5.523438 0-10-4.476562-10-10s4.476562-10 10-10zm-27.101563 260c5.523438 0 10 4.476562 10 10s-4.476562 10-10 10h-100c-5.519531 0-10-4.476562-10-10s4.480469-10 10-10zm-190-120c0-11.046875 8.957031-20 20-20h10v-10c0-11.046875 8.957031-20 20-20h20c11.046875 0 20 8.953125 20 20v10h10c11.046875 0 20 8.953125 20 20v20c0 11.046875-8.953125 20-20 20h-10v10c0 11.046875-8.953125 20-20 20h-20c-11.042969 0-20-8.953125-20-20v-10h-10c-11.042969 0-20-8.953125-20-20zm-62.898437-140c5.523437 0 10 4.476562 10 10s-4.476563 10-10 10c-5.523438 0-10-4.476562-10-10s4.476562-10 10-10zm-7.101563 260h120c5.523438 0 10 4.476562 10 10s-4.476562 10-10 10h-120c-5.519531 0-10-4.476562-10-10s4.480469-10 10-10zm0 50h260c5.523438 0 10 4.476562 10 10s-4.476562 10-10 10h-260c-5.519531 0-10-4.476562-10-10s4.480469-10 10-10zm260 70h-170c-5.519531 0-10-4.476562-10-10s4.480469-10 10-10h170c5.523438 0 10 4.476562 10 10s-4.476562 10-10 10zm10 40c0 5.523438-4.476562 10-10 10h-100c-5.519531 0-10-4.476562-10-10s4.480469-10 10-10h100c5.523438 0 10 4.476562 10 10zm-270-60h50c5.523438 0 10 4.476562 10 10s-4.476562 10-10 10h-50c-5.519531 0-10-4.476562-10-10s4.480469-10 10-10zm0 50h120c5.523438 0 10 4.476562 10 10s-4.476562 10-10 10h-120c-5.519531 0-10-4.476562-10-10s4.480469-10 10-10zm-90-284.800781c0-5.519531 4.480469-10 10-10 5.523438 0 10 4.480469 10 10v85.199219c0 5.523437-4.476562 10-10 10-5.519531 0-10-4.476563-10-10zm0-51.097657c0-5.523437 4.480469-10 10-10 5.523438 0 10 4.476563 10 10 0 5.523438-4.476562 10-10 10-5.519531 0-10-4.476562-10-10zm10 160.296876c5.523438 0 10 4.476562 10 10 0 5.523437-4.476562 10-10 10-5.519531 0-10-4.476563-10-10 0-5.523438 4.480469-10 10-10zm-10 61.203124c0-5.523437 4.480469-10 10-10 5.523438 0 10 4.476563 10 10v85.097657c0 5.519531-4.476562 10-10 10-5.519531 0-10-4.480469-10-10zm10 109.199219c5.523438 0 10 4.476563 10 10 0 5.519531-4.476562 10-10 10-5.519531 0-10-4.480469-10-10 0-5.523437 4.480469-10 10-10zm30 135.199219h-30c-5.519531 0-10-4.476562-10-10v-64.101562c0-5.523438 4.480469-10 10-10 5.523438 0 10 4.476562 10 10v54.101562h20c5.523438 0 10 4.476562 10 10s-4.476562 10-10 10zm22.800781-520h-42.800781v20c0 5.523438-4.476562 10-10 10-5.519531 0-10-4.476562-10-10v-30c0-5.523438 4.480469-10 10-10h52.800781c5.527344 0 10 4.476562 10 10s-4.472656 10-10 10zm19.492188 520c-5.523438 0-10-4.476562-10-10s4.476562-10 10-10c5.519531 0 10 4.476562 10 10 .011719 2.65625-1.03125 5.210938-2.910156 7.089844-1.882813 1.878906-4.433594 2.925781-7.089844 2.910156zm169.511719 0h-105.90625c-5.519531 0-10-4.476562-10-10s4.480469-10 10-10h105.90625c5.519531 0 10 4.476562 10 10s-4.480469 10-10 10zm42.296875 0c-5.519532 0-10-4.476562-10-10s4.480468-10 10-10c5.523437 0 10 4.476562 10 10s-4.476563 10-10 10zm145.898437-10c0 5.523438-4.476562 10-10 10h-72.296875c-5.523437 0-10-4.476562-10-10s4.476563-10 10-10h62.296875v-20c0-5.523438 4.480469-10 10-10 5.523438 0 10 4.476562 10 10zm-10-54.101562c-5.519531 0-10-4.476563-10-10 0-5.523438 4.480469-10 10-10 5.523438 0 10 4.476562 10 10 0 5.523437-4.476562 10-10 10zm10-61.097657c0 5.519531-4.476562 10-10 10-5.519531 0-10-4.480469-10-10v-85.199219c0-5.523437 4.480469-10 10-10 5.523438 0 10 4.476563 10 10zm-10-109.199219c-2.667969 0-5.226562-1.070312-7.101562-2.964843-1.882813-1.898438-2.921875-4.46875-2.898438-7.136719 0-5.523438 4.480469-10 10-10 5.523438 0 10 4.476562 10 10 .027344 2.667969-1.015625 5.238281-2.894531 7.136719-1.875 1.894531-4.433594 2.964843-7.105469 2.964843zm10-61.203124c0 5.523437-4.476562 10-10 10-5.519531 0-10-4.476563-10-10v-85.097657c0-5.519531 4.480469-10 10-10 5.523438 0 10 4.480469 10 10zm-10-109.199219c-5.519531 0-10-4.476563-10-10 0-5.519531 4.480469-10 10-10 5.523438 0 10 4.480469 10 10 0 5.523437-4.476562 10-10 10zm10-61.097657c0 5.523438-4.476562 10-10 10-5.519531 0-10-4.476562-10-10v-54.101562h-20c-5.519531 0-10-4.476562-10-10s4.480469-10 10-10h30c5.523438 0 10 4.476562 10 10zm0 0"/><path d="m166.832031 0h120v40h-120zm0 0"/><path d="m216.832031 190v10h20v-10c0-11.046875 8.957031-20 20-20h10v-20h-10c-11.042969 0-20-8.953125-20-20v-10h-20v10c0 11.046875-8.953125 20-20 20h-10v20h10c11.046875 0 20 8.953125 20 20zm0 0"/></svg>