<?xml version="1.0" encoding="iso-8859-1"?>
<!-- Generator: Adobe Illustrator 16.0.0, SVG Export Plug-In . SVG Version: 6.00 Build 0)  -->
<!DOCTYPE svg PUBLIC "-//W3C//DTD SVG 1.1//EN" "http://www.w3.org/Graphics/SVG/1.1/DTD/svg11.dtd">
<svg version="1.1" id="Capa_1" xmlns="http://www.w3.org/2000/svg" xmlns:xlink="http://www.w3.org/1999/xlink" x="0px" y="0px"
	 width="103.3px" height="103.3px" viewBox="0 0 103.3 103.3" style="enable-background:new 0 0 103.3 103.3;" xml:space="preserve"
	>
<g>
	<g>
		<path d="M37.451,54.843c-2.644-1.133-4.603-2.909-5.86-5.265c-1.686-3.15-4.04-5.659-6.5-8.136
			c-1.054-1.059-2.298-1.567-3.759-1.367c-0.816,0.117,0.137,4.925,2.606,7.394c-1.372,0.457-7.421-9.467-8.567-10.453l-5.27-6.819
			c-1.973-2.32-1.157-3.129-4.461-4.045c-0.12-0.031-0.221-0.132-0.301-0.228c-1.104-1.244-2.143-1.535-3.575-1.408
			c-0.828,0.07-1.35,0.652-1.672,1.381c-0.337,0.756,0.348,1.157,0.613,1.772c1.634,3.771,1.976,5.169,4.741,9.736
			c1.966,3.248,3.715,6.574,5.73,9.765c0.83,1.317,1.74,2.597,2.165,4.112c0.902,3.218,2.741,5.765,5.205,8.009
			c2.792,2.554,5.364,5.339,8.059,8.005c4.725,4.678,6.41,24.988,4.688,31.546l15.153,0.235c-1.14-8.028-0.06-8.839,1.125-16.673
			c0.925-6.111,0.154-12.121-1.097-18.027C45.464,59.589,41.753,56.684,37.451,54.843z"/>
		<path d="M103.209,25.897c-0.325-0.729-0.842-1.311-1.673-1.381c-1.428-0.127-2.471,0.164-3.573,1.408
			c-0.082,0.092-0.185,0.197-0.301,0.224c-3.306,0.919-2.491,1.725-4.463,4.045l-5.27,6.815c-1.144,0.985-7.193,10.91-8.566,10.453
			c2.468-2.471,3.426-7.277,2.604-7.394c-1.458-0.2-2.703,0.308-3.758,1.367c-2.46,2.478-4.814,4.986-6.498,8.136
			c-1.26,2.36-3.217,4.136-5.859,5.265c-4.305,1.841-8.018,4.746-9.03,9.537c-1.248,5.903-2.016,11.92-1.094,18.025
			c1.083,7.117,2.571,9.52,1.121,16.672l15.153-0.232c-1.722-6.557-0.034-26.867,4.688-31.545c2.7-2.666,5.271-5.455,8.063-8.005
			c2.464-2.245,4.305-4.788,5.201-8.01c0.425-1.518,1.335-2.794,2.17-4.111c2.012-3.188,3.765-6.514,5.729-9.765
			c2.759-4.57,3.107-5.965,4.739-9.736C102.861,27.054,103.545,26.653,103.209,25.897z"/>
		<path d="M76.476,29.345c0-13.874-11.249-25.122-25.127-25.122c-13.874,0-25.119,11.245-25.119,25.122s11.245,25.123,25.119,25.123
			C65.231,54.467,76.476,43.222,76.476,29.345z M63.16,39.777c-7.169,2.358-12.793,7.103-11.646,9.078
			c-2.379-0.373-4.629-1.123-6.672-2.226c1.044-1.21,2.796-3.056,5.381-5.123c4.476-3.581-5.371-7.163-11.339-8.958
			c-5.972-1.79-1.495-5.972,3.592-11.519c4.022-4.394,1.682-8.424,0.527-9.917c3.342-2.284,7.376-3.625,11.724-3.625
			c3.999,0,7.723,1.153,10.898,3.116c-0.131,0.072-0.261,0.118-0.391,0.228c-2.354,2.01-0.541,5.595-1.099,8.056
			c-0.893,3.582-6.495-3.073-8.845-2.849c-2.239,0.225-7.268,7.366-3.935,13.309c3.336,5.944,9.529,1.903,9.529,1.903
			s7.82-3.631,10.396-2.846c1.349,0.364,2.266,0.972,3.148,1.605c-0.883,4.112-2.549,7.671-4.188,10.412
			C69.628,39.011,67.26,38.429,63.16,39.777z"/>
	</g>
</g>
<g>
</g>
<g>
</g>
<g>
</g>
<g>
</g>
<g>
</g>
<g>
</g>
<g>
</g>
<g>
</g>
<g>
</g>
<g>
</g>
<g>
</g>
<g>
</g>
<g>
</g>
<g>
</g>
<g>
</g>
</svg>
