<?xml version="1.0" encoding="iso-8859-1"?>
<!-- Generator: Adobe Illustrator 19.0.0, SVG Export Plug-In . SVG Version: 6.00 Build 0)  -->
<svg version="1.1" id="Capa_1" xmlns="http://www.w3.org/2000/svg" xmlns:xlink="http://www.w3.org/1999/xlink" x="0px" y="0px"
	 viewBox="0 0 480 480" style="enable-background:new 0 0 480 480;" xml:space="preserve">
<g>
	<g>
		<path d="M453.68,98.32l-72-72c-3.12-3.12-8.24-3.12-11.36,0l-40,40c-3.12,3.12-3.12,8.24,0,11.36l30.4,30.32l-24.8,24.72
			c-18-16.16-40.24-27.92-65.12-33.28C267.84,98.64,249.68,96,240,96c-9.76,0-28,2.72-30.8,3.44C144.56,113.6,96,171.2,96,240
			c0,68.8,48.56,126.4,113.2,140.56c2.72,0.72,21.04,3.44,30.8,3.44c2.64,0,5.36-0.08,8-0.24V248h136.08
			c-0.08-1.6-0.08-3.2-0.08-4.56V240c0-36.4-13.84-70.16-36.8-95.92l24.8-24.8l30.32,30.4c1.6,1.52,3.6,2.32,5.68,2.32
			s4.08-0.8,5.68-2.32l40-40C456.8,106.56,456.8,101.44,453.68,98.32z M189.28,122.56c-6.4,8.8-13.2,19.84-19.36,33.28
			c-6.48-4.32-11.36-8.4-14.64-11.52C165.36,135.36,176.72,128,189.28,122.56z M144,155.6c4.4,4.16,10.96,9.76,19.92,15.36
			c-6.24,17.36-10.72,37.76-11.6,61.04H112.4C114.24,202.8,125.84,176.32,144,155.6z M112.4,248h39.92
			c0.88,23.28,5.36,43.68,11.6,61.04c-8.96,5.6-15.52,11.2-19.92,15.36C125.84,303.68,114.24,277.2,112.4,248z M155.36,335.76
			c3.28-3.12,8.16-7.2,14.64-11.44c6.08,13.36,12.88,24.32,19.28,33.12C176.8,352,165.36,344.64,155.36,335.76z M232,367.6
			c-5.12-0.32-10.08-0.88-15.04-1.76c-6.96-7.2-21.36-24-32.8-49.52c12.48-6,28.48-10.88,47.84-12V367.6z M232,288.32
			c-21.6,1.04-39.6,6.4-53.76,12.96c-5.28-15.36-9.12-33.12-9.92-53.28H232V288.32z M232,232h-63.68c0.8-20.08,4.64-37.92,10-53.28
			c14.16,6.64,32.08,11.92,53.68,12.96V232z M232,175.68c-19.44-1.04-35.36-5.92-47.84-11.84c11.44-25.6,25.84-42.4,32.88-49.68
			c4.88-0.88,9.92-1.44,14.96-1.76V175.68z M324.8,144.16c-3.28,3.12-8.24,7.28-14.88,11.6c-6-13.28-12.88-24.4-19.2-33.2
			C303.28,128,314.72,135.28,324.8,144.16z M248,112.4c5.12,0.32,10.08,0.88,14.96,1.76c7.52,7.68,21.76,24.32,33.04,49.44
			c-12.56,6-28.56,10.96-48,12.08V112.4z M248,232v-40.32c21.68-1.12,39.68-6.4,53.84-13.04c5.28,15.36,9.04,33.2,9.92,53.36H248z
			 M367.68,232h-39.92c-0.88-23.28-5.44-43.68-11.68-61.04c8.96-5.6,15.6-11.2,19.92-15.36C354.32,176.4,365.84,203.12,367.68,232z
			 M408,132.72L347.28,72L376,43.28L436.72,104L408,132.72z"/>
	</g>
</g>
<g>
	<g>
		<rect x="96" y="32" width="16" height="16"/>
	</g>
</g>
<g>
	<g>
		<rect x="64" y="32" width="16" height="16"/>
	</g>
</g>
<g>
	<g>
		<rect x="32" y="32" width="16" height="16"/>
	</g>
</g>
<g>
	<g>
		<path d="M136,0H8C3.582,0,0,3.578,0,8v64c0,4.422,3.582,8,8,8h92.688l29.656,29.656c1.531,1.531,3.574,2.344,5.656,2.344
			c1.031,0,2.07-0.195,3.063-0.609c2.988-1.234,4.938-4.156,4.938-7.391V8C144,3.578,140.418,0,136,0z M128,84.688l-18.344-18.344
			c-1.5-1.5-3.535-2.344-5.656-2.344H16V16h112V84.688z"/>
	</g>
</g>
<g>
	<g>
		<rect x="96" y="432" width="16" height="16"/>
	</g>
</g>
<g>
	<g>
		<rect x="64" y="432" width="16" height="16"/>
	</g>
</g>
<g>
	<g>
		<rect x="32" y="432" width="16" height="16"/>
	</g>
</g>
<g>
	<g>
		<path d="M139.063,368.609c-3.004-1.258-6.43-0.555-8.719,1.734L100.688,400H8c-4.418,0-8,3.578-8,8v64c0,4.422,3.582,8,8,8h128
			c4.418,0,8-3.578,8-8v-96C144,372.766,142.051,369.844,139.063,368.609z M128,464H16v-48h88c2.121,0,4.156-0.844,5.656-2.344
			L128,395.313V464z"/>
	</g>
</g>
<g>
	<g>
		<rect x="400" width="16" height="24"/>
	</g>
</g>
<g>
	<g>
		<rect x="436.711" y="23.98" transform="matrix(0.7071 -0.7071 0.7071 0.7071 108.6104 326.1673)" width="22.624" height="16"/>
	</g>
</g>
<g>
	<g>
		<rect x="456" y="64" width="24" height="16"/>
	</g>
</g>
<g>
	<g>
		<path d="M470.973,388.078c-0.359-0.633-0.801-1.219-1.316-1.734l-62.535-62.535l-15.43-54.004
			c-0.777-2.727-2.941-4.836-5.684-5.547c-2.734-0.711-5.66,0.078-7.664,2.086l-27.922,27.922l-26.844-13.422
			c-3.082-1.547-6.801-0.93-9.234,1.5l-24,24c-2.434,2.438-3.039,6.156-1.5,9.234l13.422,26.844l-27.922,27.922
			c-2.004,2-2.801,4.922-2.09,7.664c0.715,2.742,2.824,4.906,5.547,5.688l54.015,15.433l8.872,8.872l-34.344,34.344
			c-3.125,3.125-3.125,8.188,0,11.313l24,24c1.563,1.563,3.609,2.344,5.656,2.344s4.094-0.781,5.656-2.344L376,443.313
			l18.344,18.344c0.668,0.672,1.449,1.211,2.309,1.609l3.051,1.406c7.746,3.656,15.832,5.477,23.824,5.477
			c9.965,0,19.785-2.82,28.629-8.422c16.086-10.195,26.082-28.055,26.082-46.609C478.238,405.875,475.727,396.523,470.973,388.078z
			 M321.578,297.734l16.916,8.459l-12.15,12.15l-12.152,12.148l-8.457-16.914L321.578,297.734z M333.672,383.016l-38.402-10.969
			l84.773-84.773l10.973,38.398L333.672,383.016z M336,460.688L323.313,448L352,419.313L364.688,432L336,460.688z M347.313,392
			L400,339.313l52.686,52.689l-52.684,52.684L347.313,392z M443.594,448.211c-8.86,5.606-19.149,7.164-29.202,4.71l46.733-46.733
			c0.728,2.938,1.114,5.919,1.114,8.929C462.238,428.242,455.094,440.922,443.594,448.211z"/>
	</g>
</g>
<g>
	<g>
		<rect x="336" y="256" width="16" height="24"/>
	</g>
</g>
<g>
	<g>
		<rect x="272" y="260.687" transform="matrix(0.7071 -0.7071 0.7071 0.7071 -110.3222 277.6578)" width="16" height="22.624"/>
	</g>
</g>
<g>
	<g>
		<rect x="256" y="320" width="24" height="16"/>
	</g>
</g>
<g>
</g>
<g>
</g>
<g>
</g>
<g>
</g>
<g>
</g>
<g>
</g>
<g>
</g>
<g>
</g>
<g>
</g>
<g>
</g>
<g>
</g>
<g>
</g>
<g>
</g>
<g>
</g>
<g>
</g>
</svg>
