<svg height="512pt" viewBox="0 0 512 512" width="512pt" xmlns="http://www.w3.org/2000/svg"><path d="m202.667969 149.332031c-7.882813 0-15.96875-3.570312-22.199219-9.800781s-9.800781-14.316406-9.800781-22.199219c0-15.082031 8.640625-23.722656 13.789062-28.875l64-64c1.996094-2.003906 4.714844-3.125 7.542969-3.125h170.667969c5.898437 0 10.664062 4.78125 10.664062 10.667969s-4.765625 10.667969-10.664062 10.667969h-166.253907l-60.871093 60.875c-4.671875 4.679687-7.542969 7.839843-7.542969 13.789062 0 2.167969 1.398438 4.949219 3.550781 7.117188 2.167969 2.152343 4.949219 3.550781 7.117188 3.550781 5.949219 0 9.109375-2.871094 13.789062-7.542969l42.667969-42.664062c1.996094-2.007813 4.714844-3.125 7.542969-3.125h32c5.898437 0 10.664062 4.777343 10.664062 10.664062 0 5.890625-4.765625 10.667969-10.664062 10.667969h-27.585938l-39.539062 39.542969c-5.152344 5.148437-13.792969 13.789062-28.875 13.789062zm0 0"/><path d="m320 234.667969c-15.070312 0-23.703125-8.621094-28.851562-13.773438l-10.691407-10.6875c-4.167969-4.167969-4.167969-10.910156 0-15.082031 4.171875-4.171875 10.914063-4.171875 15.085938 0l10.664062 10.667969c4.683594 4.683593 7.851563 7.539062 13.792969 7.539062 2.164062 0 4.960938-1.394531 7.113281-3.550781 2.15625-2.164062 3.554688-4.949219 3.554688-7.113281 0-5.953125-2.871094-9.121094-7.542969-13.78125l-10.667969-10.667969c-4.167969-4.171875-4.167969-10.910156 0-15.082031 4.171875-4.171875 10.914063-4.171875 15.085938 0l10.664062 10.664062c5.152344 5.144531 13.792969 13.761719 13.792969 28.867188 0 7.882812-3.574219 15.964843-9.800781 22.195312-6.230469 6.230469-14.328125 9.804688-22.199219 9.804688zm0 0"/><path d="m277.332031 256c-15.082031 0-23.722656-8.640625-28.875-13.792969l-10.664062-10.664062c-4.171875-4.171875-4.171875-10.914063 0-15.085938 4.167969-4.167969 10.910156-4.167969 15.082031 0l10.667969 10.667969c4.679687 4.671875 7.839843 7.542969 13.789062 7.542969 2.167969 0 4.960938-1.398438 7.117188-3.554688 2.152343-2.164062 3.550781-4.949219 3.550781-7.113281 0-5.953125-2.871094-9.121094-7.542969-13.78125l-10.664062-10.667969c-4.171875-4.167969-4.171875-10.910156 0-15.082031 4.167969-4.171875 10.910156-4.171875 15.082031 0l10.667969 10.667969c5.148437 5.140625 13.789062 13.757812 13.789062 28.863281 0 7.882812-3.570312 15.96875-9.800781 22.199219-6.230469 6.226562-14.324219 9.800781-22.199219 9.800781zm0 0"/><path d="m234.667969 277.332031c-15.082031 0-23.722657-8.640625-28.875-13.789062l-92.875-92.875h-27.585938c-5.886719 0-10.664062-4.78125-10.664062-10.667969s4.777343-10.667969 10.664062-10.667969h32c2.828125 0 5.546875 1.121094 7.542969 3.125l96 96c4.683594 4.671875 7.839844 7.542969 13.792969 7.542969 2.164062 0 4.949219-1.398438 7.113281-3.550781 2.15625-2.167969 3.550781-4.949219 3.550781-7.117188 0-5.949219-2.867187-9.109375-7.539062-13.789062l-10.667969-10.667969c-4.171875-4.171875-4.171875-10.914062 0-15.082031 4.171875-4.171875 10.914062-4.171875 15.082031 0l10.667969 10.664062c5.152344 5.152344 13.792969 13.792969 13.792969 28.875 0 7.882813-3.574219 15.96875-9.804688 22.199219s-14.3125 9.800781-22.195312 9.800781zm0 0"/><path d="m362.667969 213.332031c-15.074219 0-23.703125-8.617187-28.855469-13.769531l-10.6875-10.6875c-4.171875-4.171875-4.171875-10.914062 0-15.082031 4.171875-4.171875 10.914062-4.171875 15.082031 0l10.667969 10.664062c4.683594 4.683594 7.851562 7.542969 13.792969 7.542969 2.164062 0 4.957031-1.398438 7.113281-3.550781 2.15625-2.167969 3.550781-4.949219 3.550781-7.117188 0-5.949219-2.867187-9.117187-7.539062-13.78125l-74.667969-74.664062c-4.171875-4.171875-4.171875-10.914063 0-15.085938 4.171875-4.167969 10.914062-4.167969 15.082031 0l74.667969 74.667969c5.152344 5.140625 13.792969 13.761719 13.792969 28.863281 0 7.882813-3.574219 15.96875-9.804688 22.199219s-14.324219 9.800781-22.195312 9.800781zm0 0"/><path d="m202.667969 42.667969h-117.335938c-5.886719 0-10.664062-4.78125-10.664062-10.667969s4.777343-10.667969 10.664062-10.667969h117.335938c5.886719 0 10.664062 4.78125 10.664062 10.667969s-4.777343 10.667969-10.664062 10.667969zm0 0"/><path d="m501.332031 192h-64c-11.765625 0-21.332031-9.566406-21.332031-21.332031v-149.335938c0-11.765625 9.566406-21.332031 21.332031-21.332031h64c5.898438 0 10.667969 4.777344 10.667969 10.667969 0 5.886719-4.769531 10.664062-10.667969 10.664062h-64v149.335938h64c5.898438 0 10.667969 4.777343 10.667969 10.664062 0 5.890625-4.769531 10.667969-10.667969 10.667969zm0 0"/><path d="m469.332031 106.667969c-5.898437 0-10.664062-4.78125-10.664062-10.667969v-85.332031c0-5.890625 4.765625-10.667969 10.664062-10.667969 5.898438 0 10.667969 4.777344 10.667969 10.667969v85.332031c0 5.886719-4.769531 10.667969-10.667969 10.667969zm0 0"/><path d="m458.667969 128h21.332031v21.332031h-21.332031zm0 0"/><path d="m74.667969 192h-64c-5.890625 0-10.667969-4.777344-10.667969-10.667969 0-5.886719 4.777344-10.664062 10.667969-10.664062h64v-149.335938h-64c-5.890625 0-10.667969-4.777343-10.667969-10.664062 0-5.890625 4.777344-10.667969 10.667969-10.667969h64c11.765625 0 21.332031 9.566406 21.332031 21.332031v149.335938c0 11.765625-9.566406 21.332031-21.332031 21.332031zm0 0"/><path d="m42.667969 106.667969c-5.890625 0-10.667969-4.78125-10.667969-10.667969v-85.332031c0-5.890625 4.777344-10.667969 10.667969-10.667969 5.886719 0 10.664062 4.777344 10.664062 10.667969v85.332031c0 5.886719-4.777343 10.667969-10.664062 10.667969zm0 0"/><path d="m32 128h21.332031v21.332031h-21.332031zm0 0"/><path d="m501.332031 512h-53.332031c-5.898438 0-10.667969-4.769531-10.667969-10.667969 0-99.988281-81.34375-181.332031-181.332031-181.332031s-181.332031 81.34375-181.332031 181.332031c0 5.898438-4.78125 10.667969-10.667969 10.667969s-10.667969-4.769531-10.667969-10.667969c0-111.753906 90.914063-202.664062 202.667969-202.664062 108.171875 0 196.820312 85.183593 202.390625 192h42.941406c5.898438 0 10.667969 4.765625 10.667969 10.664062 0 5.898438-4.769531 10.667969-10.667969 10.667969zm0 0"/><path d="m256 469.332031c-5.886719 0-10.667969-4.765625-10.667969-10.664062v-149.335938c0-5.898437 4.78125-10.664062 10.667969-10.664062s10.667969 4.765625 10.667969 10.664062v149.335938c0 5.898437-4.78125 10.664062-10.667969 10.664062zm0 0"/><path d="m117.332031 512h-106.664062c-5.890625 0-10.667969-4.769531-10.667969-10.667969 0-5.898437 4.777344-10.664062 10.667969-10.664062h106.664062c5.890625 0 10.667969 4.765625 10.667969 10.664062 0 5.898438-4.777344 10.667969-10.667969 10.667969zm0 0"/><path d="m405.332031 512h-53.332031c-5.898438 0-10.667969-4.769531-10.667969-10.667969 0-5.898437 4.769531-10.664062 10.667969-10.664062h53.332031c5.898438 0 10.667969 4.765625 10.667969 10.664062 0 5.898438-4.769531 10.667969-10.667969 10.667969zm0 0"/><path d="m256 426.667969c-54.046875 0-107.230469-20.46875-145.898438-56.171875l14.464844-15.667969c34.773438 32.09375 82.6875 50.503906 131.433594 50.503906s96.660156-18.410156 131.433594-50.496093l14.453125 15.671874c-38.65625 35.691407-91.839844 56.160157-145.886719 56.160157zm0 0"/><path d="m245.332031 490.667969h21.335938v21.332031h-21.335938zm0 0"/><path d="m202.667969 490.667969h21.332031v21.332031h-21.332031zm0 0"/><path d="m288 490.667969h21.332031v21.332031h-21.332031zm0 0"/><path d="m352 512c-5.898438 0-10.667969-4.769531-10.667969-10.667969 0-98.292969-39.070312-181.332031-85.332031-181.332031-46.25 0-85.332031 83.039062-85.332031 181.332031 0 5.898438-4.78125 10.667969-10.667969 10.667969s-10.667969-4.769531-10.667969-10.667969c0-113.640625 46.859375-202.664062 106.667969-202.664062s106.667969 89.023437 106.667969 202.664062c0 5.898438-4.769531 10.667969-10.667969 10.667969zm0 0"/></svg>