<?xml version="1.0" encoding="iso-8859-1"?>
<!-- Generator: Adobe Illustrator 16.0.0, SVG Export Plug-In . SVG Version: 6.00 Build 0)  -->
<!DOCTYPE svg PUBLIC "-//W3C//DTD SVG 1.1//EN" "http://www.w3.org/Graphics/SVG/1.1/DTD/svg11.dtd">
<svg version="1.1" id="Capa_1" xmlns="http://www.w3.org/2000/svg" xmlns:xlink="http://www.w3.org/1999/xlink" x="0px" y="0px"
	 width="49.836px" height="49.837px" viewBox="0 0 49.836 49.837" style="enable-background:new 0 0 49.836 49.837;"
	 xml:space="preserve">
<g>
	<g>
		<path d="M22.129,36.605c1.458,0,2.876-0.174,4.236-0.496l-5.457-4.635l5.896-4.373l7.173,5.131
			c0.853-0.726,1.642-1.523,2.349-2.393h-0.604v-1.217l-0.697-0.941v-1.463l-0.534-0.531l-0.046-0.608l0.678-1.293l-1.285-2.266
			l0.152-1.538l-1.156-0.119l-0.425-0.427h-0.776L31.236,19.8h-1.369l-0.047,0.124h-0.76l-1.749-1.992l0.015-1.552l0.289-0.106
			l0.106-0.594h-0.41l-0.167-0.624l2.022-1.459v-1.034l0.99-0.55l0.4,0.039h0.814l0.637-0.343l2.055-0.159v1.051l1.62,0.41
			l0.319,0.229h0.297v-0.572l0.936-0.09l0.891,0.662h1.459l0.104-0.094c-0.145-0.493-0.311-0.977-0.494-1.451L38.24,11.71
			l-0.479-0.523l-0.092-0.844l-0.49,0.267l-0.262,1.032l-0.709-0.753l-0.027-0.712l-0.684-0.588l-0.252-0.25h-0.793l0.25,0.706
			l0.953,0.531l0.166,0.176l-0.206,0.104l0.009,0.559l-0.465,0.193l-0.396-0.086l-0.247-0.352l0.646,0.033l0.174-0.234l-1.43-0.963
			l-0.107-0.41l-0.582,0.524L32.627,10l-0.896,1.163l-0.176,0.455l-0.573,0.053l-0.849,0.006l-0.506-0.237l-0.149-1.007l0.183-0.479
			l0.862-0.189l0.94,0.189l0.113-0.521l-0.398-0.094l0.137-0.812L32.26,8.38l0.664-0.936l0.684-0.114l0.617,0.091h0.227
			l-0.123-0.878l-0.752,0.303l-0.264-0.655l-0.436-0.062l-0.082-0.45l0.356-0.387l0.845-0.33l0.217-0.388
			C30.987,1.73,26.756,0,22.129,0c-4.016,0-7.731,1.304-10.754,3.506l0.924-0.008l0.411,0.229l0.774,0.166l0.061,0.305l1.232,0.045
			L14.61,3.848l-1.095-0.03l0.258-0.243l-0.09-0.289h-0.99l1.08-0.807h1.034l0.486,0.67l0.808,0.045l0.485-0.472l0.366,0.183
			l-0.67,0.654c0,0-0.928,0.016-0.882,0.016s0.077,0.639,0.077,0.639l1.124-0.031l0.123-0.304l0.774-0.046l0.092-0.455L17.133,3.3
			l0.152-0.41l0.351-0.106l1.217,0.062l-0.672,0.608l0.109,0.472l0.699,0.105l-0.046-0.852l0.669-0.35L20.8,2.692l1.718,0.761v0.653
			l0.548,0.137l-0.273,0.519h-0.776l-0.229,0.593l-1.772-0.42l1.394-0.741l-0.532-0.452l-1.202,0.152l-0.105,0.109l-0.003-0.002
			l-0.02,0.025l-0.346,0.36l-0.571,0.048l0.046,0.285l0.198,0.082l-0.007,0.095l-0.465,0.066l-0.034,0.269l-0.445,0.024l-0.08-0.536
			l-0.799,0.243l-1.632,0.955l0.184,0.672l0.456,0.297l0.912,0.127v1.036l0.422-0.068l0.389-0.81l0.97-0.308V5.618l0.539-0.406
			l1.305,0.307l-0.092,0.822h0.351l0.958-0.472l0.046,1.08l0.698,0.426L22.52,8.014l-0.669,0.229l0.045,0.212l0.807,0.366
			l-0.016,0.441l-0.234,0.021c0-0.007-0.001-0.012-0.001-0.012l-1.018-0.313L21.391,8.63H21.39l0.297-0.203V8.128l-0.32-0.08
			l-0.078,0.274l-0.561,0.087l-0.057-0.02v0.027l-0.194,0.03l-0.158-0.319l-0.184-0.08h-0.399l-0.182,0.148v0.33l0.342,0.114
			l0.338,0.048l-0.076,0.032L19.85,9.061L19.714,8.89l-0.297-0.078l-0.811,0.762l0.105,0.087l-1.196,0.663l-1.126,1.172
			l-0.076,0.521l-1.13,0.741l-0.559,0.563l0.062,1.125l-0.776-0.36l0.006-0.659l-2.158,0.001l-1.117,0.566l-0.487,0.896
			l-0.191,0.709l0.314,0.688l0.881,0.106l1.399-0.936l0.123,0.465l-0.428,0.807l1.066,0.182l0.105,1.646l1.461,0.247l0.927-1.071
			l1.126,0.229l0.396,0.55l1.08-0.062l0.03-0.319l0.593,0.289l0.67,1.049l1.155,0.016l0.427,0.747l0.06,0.91l1.279,0.487
			l1.611,0.016l0.473,0.774l0.714,0.229l-0.138,0.641l-0.783,0.994l-0.229,2.202l-0.706,0.561l-1.05-0.032l-0.351,0.608l0.26,1.142
			l-1.141,1.46l-0.365,0.672l-1.088,0.521l-0.716,0.108l-0.029,0.304l0.502,0.146l-0.061,0.325l-0.45,0.435l0.273,0.344l0.541,0.016
			l-0.03,0.418l-0.144,0.41l-0.047,0.334l0.801,0.675l-0.106,0.351l-1.089-0.021l-1.084-0.945l-0.845-1.484l0.118-1.432l-0.64-0.854
			l0.26-1.443l-0.381-0.107v-3.133c0,0-1.064-0.808-1.125-0.808s-0.563-0.136-0.563-0.136l-0.107-0.594l-1.383-1.734l0.137-0.623
			l0.045-1.021l0.957-0.667l-0.137-1.143l-1.398-0.104l-1.095-1.248l-0.775-0.213l-0.502-0.092l0.06-0.456l-0.639-0.091v0.257
			l-1.597-0.395l-0.643-0.983l0.262-0.476l-1.012-1.477l-0.174-1.08H6.607l0.138,1.049l0.699,1.08l-0.076,0.428l-0.593-0.091
			l-0.73-1.245v-1.449l-0.76-0.366V11.14c-0.94,2.201-1.462,4.622-1.462,7.163C3.825,28.396,12.037,36.605,22.129,36.605z
			 M30.549,6.484l0.168-0.259l0.602-0.12l0.15,0.73l0.32,0.517l0.213,0.244l0.389,0.151l-0.364,0.434l-0.708,0.068h-0.531
			l0.06-0.632l0.442-0.091l-0.037-0.297L30.84,6.97l-0.289-0.197V6.484H30.549z M29.562,7.626l0.366-0.585l0.492-0.114l0.352,0.151
			L30.74,7.474l-0.752,0.531h-0.426V7.626z M19.617,9.877l-0.381,0.032l0.021-0.265l0.171-0.213l0.229,0.18L19.617,9.877z
			 M20.954,9.409l-0.261,0.022l-0.052,0.252L20.44,9.808l-0.321,0.026C20.108,9.759,20.1,9.702,20.1,9.702h-0.124V9.431h0.523
			l0.109-0.278l0.208-0.005l0.238,0.05L20.954,9.409z"/>
		<path d="M41.131,35.251l-1.375,1.974l-3.928-1.729l-9.193-6.548l-3.396,2.415l6.377,5.479L20.225,38.9l-7.145-3.84l-4.057,1.883
			l9.915,6.619l12.271,0.103l3.608,0.644l-1.483,2.129l4.883,3.399l7.797-11.185L41.131,35.251z M37.815,47.579l-2.219-1.546
			l5.938-8.523l2.221,1.547L37.815,47.579z"/>
	</g>
</g>
<g>
</g>
<g>
</g>
<g>
</g>
<g>
</g>
<g>
</g>
<g>
</g>
<g>
</g>
<g>
</g>
<g>
</g>
<g>
</g>
<g>
</g>
<g>
</g>
<g>
</g>
<g>
</g>
<g>
</g>
</svg>
