<svg height="512pt" viewBox="0 -84 512.001 512" width="512pt" xmlns="http://www.w3.org/2000/svg"><path d="m404.132812 88.632812c-13.582031-26.074218-33.351562-46.71875-57.550781-62.179687-26.960937-17.222656-58.195312-26.453125-90.332031-26.453125-40.039062 0-78.820312 14.257812-109.195312 40.265625l9.78125 11.394531c13.222656-11.316406 28.195312-20.210937 44.203124-26.40625-6.964843 7.058594-13.453124 15.753906-19.320312 25.53125-9.398438 15.667969-16.695312 33.835938-21.652344 53.894532h-41.21875v-33.09375h35.210938l-58.277344-58.277344-58.277344 58.277344h34.207032v80.234374h17.359374c-.535156 5.011719-.8125 10.777344-.8125 16.296876 0 5.597656.28125 11.121093.832032 16.664062l14.96875-1.546875c-.5-5.050781-.753906-9.980469-.753906-15.085937 0-5.527344.308593-11.3125.898437-16.328126h14.644531v-32.09375h37.957032c-2.867188 15.042969-4.355469 31.925782-4.355469 48.640626 0 16.714843 1.488281 32.597656 4.355469 48.644531h-30.667969c-3.148438-10.03125-11.964844-16.296875-22.332031-16.296875-12.996094 0-23.570313 10.445312-23.570313 23.441406 0 2.390625.359375 4.636719 1.027344 6.8125l-44.085938 22.011719c-3.847656-2.734375-8.539062-4.359375-13.605469-4.359375-12.996093 0-23.570312 10.5625-23.570312 23.558594 0 12.996093 10.574219 23.566406 23.570312 23.566406 5.066407 0 9.757813-1.613282 13.605469-4.347656l44.085938 22.042968c-.667969 2.175782-1.027344 4.484375-1.027344 6.871094 0 12.996094 10.574219 23.570312 23.570313 23.570312 12.996093 0 23.570312-10.574218 23.570312-23.570312s-10.574219-23.566406-23.570312-23.566406c-5.066407 0-9.761719 1.613281-13.609376 4.34375l-44.082031-22.042969c.664063-2.175781 1.023438-4.484375 1.023438-6.875s-.359375-4.695313-1.023438-6.875l44.082031-22.039063c3.847657 2.730469 8.542969 4.59375 13.609376 4.59375 10.367187 0 19.183593-6.769531 22.332031-15.796874h33.929687c4.957032 19.054687 12.253906 37.734374 21.652344 53.402343 5.886719 9.8125 12.398438 18.160157 19.390625 25.234375-29.265625-11.292968-54.753906-31.566406-72.617187-58.640625l-12.554688 8.253907c31.226562 47.332031 83.683594 75.570312 140.3125 75.570312 40.46875 0 79.5625-14.347656 110.082031-40.847656 28.566407-24.800782 47.90625-58.960938 54.933594-95.066406h43.597656v42.230468l47.136719-47.136718v-106.421876zm-300.328124 48.140626h-17.050782v-80.234376h-12.929687l21.957031-21.957031 21.957031 21.960938h-13.933593zm-88.757813 135.398437c0-4.699219 3.824219-8.523437 8.523437-8.523437 4.699219 0 8.523438 3.824218 8.523438 8.523437s-3.824219 8.523437-8.523438 8.523437c-4.699218 0-8.523437-3.824218-8.523437-8.523437zm97.285156 48.140625c0 4.703125-3.824219 8.527344-8.527343 8.527344-4.699219 0-8.523438-3.824219-8.523438-8.527344 0-4.699219 3.824219-8.523438 8.523438-8.523438 4.703124 0 8.527343 3.824219 8.527343 8.523438zm-8.527343-87.757812c-4.699219 0-8.523438-3.824219-8.523438-8.523438 0-4.703125 3.824219-8.523438 8.523438-8.523438 4.703124 0 8.527343 3.820313 8.527343 8.523438 0 4.699219-3.824219 8.523438-8.527343 8.523438zm236.59375-15.542969h-77.125v-97.285157h77.125c3.035156 15.042969 4.613281 31.84375 4.613281 48.640626 0 16.796874-1.578125 32.597656-4.613281 48.644531zm-77.125 103.238281v-88.195312h73.632812c-4.550781 16.046874-11.199219 32.203124-19.273438 45.660156-14.929687 24.886718-33.296874 39.554687-54.359374 42.535156zm0-215.570312v-89.195313c21.0625 2.976563 39.429687 18.148437 54.359374 43.035156 8.074219 13.457031 14.722657 29.113281 19.273438 46.160157zm-68.902344-46.160157c14.929687-24.886719 33.796875-40.058593 53.855468-43.035156v89.195313h-72.628906c4.550782-17.046876 10.695313-32.703126 18.773438-46.160157zm-26.878906 109.847657c0-16.796876 1.578124-33.597657 4.613281-48.640626h76.121093v97.285157h-76.121093c-3.035157-16.046875-4.613281-31.847657-4.613281-48.644531zm8.105468 63.6875h72.628906v88.195312c-20.058593-2.980469-38.925781-17.648438-53.855468-42.53125-8.078125-13.460938-14.222656-29.617188-18.773438-45.664062zm180.871094 51.605468c-13.425781 11.65625-28.679688 20.648438-45.011719 26.96875 6.96875-7.0625 13.457031-15.328125 19.324219-25.109375 9.402344-15.667969 16.699219-34.410156 21.65625-53.464843h42.890625c-9.03125 19.054687-22.222656 37.164062-38.859375 51.605468zm44.820312-66.648437h-45.589843c2.867187-16.046875 4.355469-32.179688 4.355469-48.894531 0-44.207032-10.394532-86.003907-29.273438-117.464844-5.875-9.792969-12.371094-18.320313-19.351562-25.386719 9.402343 3.636719 18.46875 8.414063 27.050781 13.894531 19.710937 12.59375 36.191406 29.414063 48.304687 49.472656h-18.203125v111.328126h37.339844c-1.214844 5.015624-2.761719 11.03125-4.632813 17.050781zm95.667969-28.191407-17.050781 17.050782v-20.953125h-96.28125v-81.238281h113.332031zm0 0"/><path d="m400.675781 136.773438h16.046875v15.046874h-16.046875zm0 0"/><path d="m432.769531 136.773438h16.046875v15.046874h-16.046875zm0 0"/><path d="m464.863281 136.773438h16.046875v15.046874h-16.046875zm0 0"/></svg>