<svg height="512pt" viewBox="0 0 512 512" width="512pt" xmlns="http://www.w3.org/2000/svg"><path d="m193.09375 240.601562c-1.210938 4.9375-1.867188 10.09375-1.867188 15.398438 0 29.949219 20.425782 55.203125 48.070313 62.59375 3.625-15.660156 1.585937-32.664062-7.054687-47.644531-8.929688-15.425781-23.210938-25.859375-39.148438-30.347657zm0 0"/><path d="m256 191.214844c-18.046875 0-34.386719 7.425781-46.144531 19.378906 11.867187 11.753906 28.171875 19.023438 46.144531 19.023438 17.996094 0 34.316406-7.273438 46.199219-19.023438-11.769531-11.953125-28.128907-19.378906-46.199219-19.378906zm0 0"/><path d="m256 0c-141.160156 0-256 114.839844-256 256s114.839844 256 256 256 256-114.839844 256-256-114.839844-256-256-256zm162.722656 307.609375c-8.210937 1.136719-15.777344-4.59375-16.914062-12.800781-2.800782-20.261719-14.527344-37.726563-32.167969-47.910156-6.464844-3.726563-13.3125-6.214844-20.257813-7.5625.964844 5.410156 1.46875 10.980468 1.46875 16.664062 0 41.714844-27.105468 77.21875-64.640624 89.855469 4.902343 5.886719 10.855468 10.929687 17.6875 14.871093 17.65625 10.1875 38.667968 11.625 57.660156 3.949219 7.679687-3.105469 16.425781.601563 19.527344 8.28125 3.105468 7.683594-.601563 16.425781-8.28125 19.53125-44.308594 17.910157-79.710938-3.363281-83.894532-5.777343-13.5625-7.816407-24.746094-18.601563-32.90625-31.453126-7.996094 12.589844-19.046875 23.488282-32.828125 31.449219-4.078125 2.355469-39.601562 23.761719-83.921875 5.761719-7.675781-3.117188-11.371094-11.863281-8.253906-19.539062 3.117188-7.675782 11.867188-11.375 19.542969-8.253907 18.945312 7.691407 39.949219 6.253907 57.632812-3.949219 6.910157-3.992187 12.816407-9.058593 17.644531-14.867187-37.507812-12.636719-64.589843-48.140625-64.589843-89.859375 0-5.6875.503906-11.257812 1.46875-16.671875-6.953125 1.347656-13.796875 3.835937-20.257813 7.570313-17.625 10.175781-29.378906 27.65625-32.257812 47.957031-1.160156 8.203125-8.742188 13.910156-16.953125 12.75-8.203125-1.164063-13.910157-8.753907-12.75-16.957031 4.179687-29.496094 21.296875-54.914063 46.957031-69.730469 13.824219-7.984375 28.839844-12.109375 43.792969-12.714844-6.949219-13.253906-10.886719-28.328125-10.886719-44.304687 0-29.785157 13.476562-57.320313 36.976562-75.554688 6.546876-5.078125 15.96875-3.890625 21.046876 2.65625 5.078124 6.546875 3.890624 15.96875-2.65625 21.046875-16.121094 12.507813-25.363282 31.40625-25.363282 51.851563 0 7.242187 1.191406 14.207031 3.363282 20.726562 16.667968-14.570312 38.464843-23.410156 62.289062-23.410156 23.855469 0 45.675781 8.847656 62.359375 23.425781 2.179687-6.523437 3.375-13.496094 3.375-20.742187 0-20.390626-9.253906-39.300782-25.386719-51.871094-6.535156-5.09375-7.703125-14.515625-2.613281-21.050782 5.089844-6.535156 14.515625-7.707031 21.050781-2.613281 23.484375 18.296875 36.949219 45.828125 36.949219 75.535157 0 15.980468-3.9375 31.050781-10.894531 44.304687 14.945312.613281 29.960937 4.734375 43.796875 12.710937 25.722656 14.851563 42.808593 40.285157 46.890625 69.785157 1.132812 8.203125-4.597656 15.777343-12.804688 16.910156zm0 0"/><path d="m279.839844 270.949219c-8.386719 14.535156-10.863282 31.363281-7.101563 47.636719 27.671875-7.394532 48.113281-32.644532 48.113281-62.585938 0-5.308594-.660156-10.46875-1.871093-15.410156-15.953125 4.476562-30.238281 14.917968-39.140625 30.359375zm0 0"/></svg>