<svg height="512pt" viewBox="0 0 512.002 512" width="512pt" xmlns="http://www.w3.org/2000/svg"><path d="m204.421875 365.269531c-2.632813 9.863281-6.433594 19.402344-11.300781 28.363281-1.429688 2.609376-2.890625 5.269532-4.359375 7.957032 20.898437-9.75 43.867187-14.929688 67.269531-14.929688 23.398438 0 46.367188 5.179688 67.257812 14.929688-1.449218-2.667969-2.898437-5.328125-4.308593-7.929688-4.902344-9-8.71875-18.539062-11.371094-28.390625zm0 0"/><path d="m304.011719 275.269531c2.839843-21.019531 12.578125-40.9375 27.660156-56.046875.726563-.730468 1.46875-1.453125 2.21875-2.132812-9.671875 2.371094-19.640625 3.582031-29.691406 3.582031-16.628907 0-33.027344-3.300781-48.199219-9.621094-15.179688 6.332031-31.570312 9.621094-48.199219 9.621094-10.0625 0-20.011719-1.210937-29.671875-3.570313.742188.679688 1.480469 1.398438 2.199219 2.121094 15.34375 15.308594 24.941406 34.859375 27.703125 56.046875zm0 0"/><path d="m351.332031 320.269531c0-8.285156-6.714843-15-15-15h-160.664062c-8.285157 0-15 6.714844-15 15 0 8.28125 6.714843 15 15 15h160.664062c8.285157 0 15-6.71875 15-15zm0 0"/><path d="m464.871094 468.691406c-10.152344 0-20.160156 2.621094-29 7.441406-1.410156-1.882812-2.949219-3.921874-4.5625-6.070312-21.828125-29.070312-60.71875-38.273438-92.808594-23.53125-47.539062-39.820312-117.378906-39.820312-164.980469-.011719-32.097656-14.796875-70.96875-5.578125-92.75 23.53125-1.621093 2.160157-3.160156 4.210938-4.589843 6.109375-8.851563-4.839844-18.878907-7.46875-29.050782-7.46875-15.910156 0-31.488281 6.449219-42.738281 17.699219-2.8125 2.808594-4.390625 6.621094-4.390625 10.601563v.007812c0 8.28125 6.71875 15 15 15h482c8.28125 0 15-6.71875 15-15.007812 0-3.980469-1.578125-7.792969-4.390625-10.601563-11.25-11.25-26.828125-17.699219-42.738281-17.699219zm0 0"/><path d="m63.199219 206.734375c15.832031 0 30.855469-5.851563 42.347656-16.28125 1.9375.144531 3.890625.214844 5.855469.214844 16.601562 0 32.476562-5.105469 45.800781-14.5625 15.070313 9.453125 32.640625 14.5625 50.597656 14.5625 17.171875 0 33.636719-4.492188 48.199219-13.070313 14.5625 8.578125 31.027344 13.070313 48.199219 13.070313 17.933593 0 35.515625-5.109375 50.636719-14.5625 13.277343 9.460937 29.136718 14.5625 45.765624 14.5625 1.996094 0 3.953126-.070313 5.886719-.214844 11.542969 10.429687 26.558594 16.28125 42.3125 16.28125 34.851563 0 63.203125-28.351563 63.203125-63.199219 0-24.804687-14.21875-46.820312-36.136718-57.140625-4.746094-14.203125-13.515626-26.945312-25.226563-36.480469-14.085937-11.464843-31.855469-17.78125-50.039063-17.78125-7.628906 0-15.082031 1.070313-22.28125 3.1875-18.015624-22.316406-44.914062-35.320312-74.121093-35.320312-17.171875 0-33.636719 4.492188-48.199219 13.074219-14.5625-8.582031-31.027344-13.074219-48.199219-13.074219-29.160156 0-56.035156 13.007812-74.042969 35.324219-7.210937-2.121094-14.691406-3.1875-22.355468-3.1875-18.152344 0-35.898438 6.3125-49.976563 17.785156-11.699219 9.53125-20.460937 22.269531-25.207031 36.460937-21.96875 10.308594-36.21875 32.332032-36.21875 57.152344 0 34.847656 28.351562 63.199219 63.199219 63.199219zm0 0"/></svg>