<?xml version="1.0" encoding="iso-8859-1"?>
<!-- Generator: Adobe Illustrator 19.0.0, SVG Export Plug-In . SVG Version: 6.00 Build 0)  -->
<svg version="1.1" id="Layer_1" xmlns="http://www.w3.org/2000/svg" xmlns:xlink="http://www.w3.org/1999/xlink" x="0px" y="0px"
	 viewBox="0 0 512 512" style="enable-background:new 0 0 512 512;" xml:space="preserve">
<g>
	<g>
		<path d="M259.323,161.064c-96.745,0-175.453,78.714-175.453,175.467c0,96.754,78.708,175.47,175.454,175.47
			c74.004,0,140.43-46.811,165.29-116.483c1.456-4.076-0.671-8.56-4.747-10.014c-4.075-1.458-8.56,0.67-10.014,4.747
			c-3.023,8.474-6.729,16.573-11.031,24.253c-6.969-3.186-14.103-6.12-21.383-8.802c6.015-19.231,9.486-39.943,10.167-61.332h31.298
			c-0.293,6.049-0.916,12.077-1.879,17.999c-0.695,4.272,2.205,8.298,6.477,8.991c4.277,0.696,8.299-2.206,8.991-6.477
			c1.513-9.306,2.281-18.844,2.281-28.35C434.775,239.778,356.068,161.064,259.323,161.064z M328.42,210.361
			c-4.29-0.761-8.694-1.179-13.193-1.179c-3.161,0-6.271,0.218-9.334,0.599c-4.032-10.597-8.282-18.998-12.591-25.619
			C306.151,189.934,318.012,198.884,328.42,210.361z M267.161,179.094c8.17,4.814,16.387,16.818,23.316,34.281
			c-8.529,2.964-16.395,7.412-23.316,13.052V179.094z M315.227,224.856c34.168,0,61.967,28.858,61.967,64.329
			c0,26.51-16.042,50.669-39.914,60.117c-3.022,1.194-5.563,3.415-7.159,6.256l-14.894,26.597l-14.894-26.597
			c-0.001-0.001-0.002-0.003-0.003-0.005c-1.591-2.837-4.135-5.058-7.154-6.251c-23.875-9.45-39.915-33.609-39.915-60.118
			C253.26,253.715,281.058,224.856,315.227,224.856z M371.926,344.368c-0.682,19.924-3.955,38.898-9.345,56.269
			c-11.323-3.547-22.946-6.493-34.792-8.836l15.747-28.12c10.695-4.322,20.104-11.004,27.769-19.313H371.926z M300.258,387.504
			c-10.916-1.259-21.966-2.016-33.097-2.258v-33.313c5.908,4.839,12.539,8.833,19.756,11.749L300.258,387.504z M251.487,179.094
			v64.49c-5.635,8.338-9.765,17.826-11.994,28.05c-8.625-0.494-17.197-1.3-25.677-2.435c2.793-17.913,6.72-34.374,11.678-48.626
			C232.924,199.205,242.237,184.543,251.487,179.094z M247.834,328.694h-38.921c0.245-15.148,1.194-29.91,2.806-43.966
			c8.564,1.146,17.215,1.978,25.917,2.5c-0.016,0.653-0.048,1.301-0.048,1.958C237.587,303.287,241.276,316.857,247.834,328.694z
			 M251.487,344.367v40.878c-13.405,0.29-26.693,1.325-39.769,3.087c-1.612-14.056-2.561-28.817-2.806-43.965H251.487z
			 M225.348,184.157c-5.053,7.76-10.025,17.943-14.659,31.266c-5.25,15.091-9.402,32.464-12.343,51.315
			c-1.523-0.279-3.048-0.554-4.564-0.854c-4.246-0.843-8.369,1.917-9.211,6.163c-0.841,4.245,1.917,8.37,6.163,9.211
			c1.826,0.363,3.661,0.699,5.498,1.031c-1.729,14.855-2.744,30.439-2.994,46.404h-46.519c0.682-19.925,3.956-38.901,9.346-56.271
			c2.627,0.823,5.264,1.626,7.921,2.384c0.719,0.205,1.443,0.303,2.156,0.303c3.411,0,6.548-2.243,7.532-5.686
			c1.189-4.161-1.221-8.499-5.383-9.687c-2.341-0.669-4.667-1.37-6.982-2.091C175.246,222.99,198.067,196.405,225.348,184.157z
			 M196.233,390.779c-13.709,2.484-27.138,5.775-40.169,9.857c-5.389-17.37-8.662-36.344-9.345-56.269h46.519
			C193.489,360.335,194.504,375.921,196.233,390.779z M181.03,197.281c-4.668,4.918-9.125,10.297-13.329,16.142
			c-8.488,11.8-15.603,24.979-21.252,39.161c-6.175-2.282-12.232-4.75-18.146-7.399C142.038,225.538,160.071,209.113,181.03,197.281
			z M119.883,258.59c6.93,3.165,14.054,6.083,21.325,8.765c-6.015,19.233-9.487,39.947-10.169,61.34H99.737
			C100.967,303.337,108.142,279.518,119.883,258.59z M99.737,344.367h31.303c0.681,21.39,4.152,42.101,10.167,61.332
			c-7.258,2.674-14.372,5.6-21.322,8.774C108.142,393.546,100.967,369.726,99.737,344.367z M128.294,427.867
			c5.929-2.656,11.986-5.118,18.151-7.395c5.65,14.182,12.766,27.366,21.255,39.168c4.204,5.845,8.661,11.223,13.329,16.142
			C160.066,463.947,142.031,447.518,128.294,427.867z M161.308,415.418c12.021-3.739,24.399-6.775,37.036-9.093
			c2.941,18.851,7.093,36.222,12.343,51.313c4.635,13.325,9.607,23.507,14.66,31.268
			C198.068,476.659,175.247,450.073,161.308,415.418z M267.161,493.968v-23.764c0-4.329-3.508-7.837-7.837-7.837
			c-4.328,0-7.837,3.508-7.837,7.837v23.764c-9.25-5.448-18.562-20.109-25.995-41.478c-4.958-14.253-8.885-30.715-11.677-48.626
			c12.382-1.67,24.969-2.653,37.672-2.94v36.889c0,4.329,3.509,7.837,7.837,7.837c4.329,0,7.837-3.508,7.837-7.837v-36.89
			c12.701,0.287,25.285,1.272,37.666,2.939c-2.792,17.913-6.718,34.375-11.675,48.628
			C285.719,473.858,276.409,488.519,267.161,493.968z M293.296,488.907c5.054-7.76,10.026-17.943,14.66-31.269
			c5.249-15.088,9.393-32.465,12.334-51.315c12.641,2.319,25.023,5.354,37.048,9.095
			C343.398,450.074,320.578,476.66,293.296,488.907z M390.421,427.897c-13.838,19.799-31.945,36.112-52.759,47.838
			c4.651-4.905,9.093-10.268,13.284-16.094c8.49-11.802,15.607-24.986,21.255-39.168
			C378.389,422.757,384.469,425.229,390.421,427.897z M356.282,221.328c-1.716-2.696-3.49-5.337-5.337-7.906
			c-4.204-5.845-8.661-11.224-13.33-16.143c20.959,11.832,38.991,28.257,52.726,47.9c-2.706,1.21-5.435,2.384-8.192,3.516
			C375.785,237.572,366.892,228.169,356.282,221.328z M387.599,328.694c-0.101-3.182-0.265-6.348-0.49-9.497
			c3.723-9.385,5.757-19.552,5.757-30.012c0-9.171-1.526-17.979-4.294-26.19c3.432-1.413,6.83-2.88,10.188-4.408
			c11.744,20.928,18.918,44.75,20.149,70.107H387.599z"/>
	</g>
</g>
<g>
	<g>
		<path d="M315.227,249.894c-21.225,0-38.492,17.625-38.492,39.29s17.267,39.291,38.492,39.291c4.679,0,9.257-0.853,13.607-2.535
			c4.036-1.56,6.045-6.098,4.484-10.134c-1.559-4.036-6.098-6.047-10.134-4.484c-2.541,0.981-5.217,1.48-7.956,1.48
			c-12.582,0-22.818-10.594-22.818-23.617c0-13.023,10.237-23.617,22.818-23.617c12.584,0,22.821,10.594,22.821,23.617
			c0,2.216-0.297,4.407-0.882,6.514c-1.158,4.17,1.284,8.49,5.454,9.648c4.173,1.157,8.49-1.285,9.648-5.454
			c0.964-3.472,1.453-7.076,1.453-10.708C353.721,267.52,336.453,249.894,315.227,249.894z"/>
	</g>
</g>
<g>
	<g>
		<path d="M278.567,56.093c-4.329,0-7.837,3.508-7.837,7.837c0,9.16-7.173,16.612-15.991,16.612
			c-8.818,0-15.992-7.452-15.992-16.612c0-9.159,7.174-16.609,15.992-16.609c3.004,0,5.932,0.875,8.468,2.53
			c3.624,2.362,8.48,1.342,10.846-2.283c2.365-3.626,1.342-8.48-2.283-10.846c-5.09-3.32-10.98-5.075-17.032-5.075
			c-17.46,0-31.666,14.481-31.666,32.282c0,17.802,14.205,32.285,31.666,32.285c17.461,0,31.666-14.482,31.666-32.284
			C286.403,59.601,282.896,56.093,278.567,56.093z"/>
	</g>
</g>
<g>
	<g>
		<path d="M254.739,0c-34.239,0-62.094,28.678-62.094,63.93c0,25.907,15.567,49.593,38.866,59.291l16.39,29.271
			c1.386,2.475,4.001,4.008,6.838,4.008c2.837,0,5.452-1.533,6.838-4.008l16.392-29.272c23.288-9.688,38.863-33.378,38.863-59.29
			C316.832,28.678,288.977,0,254.739,0z M271.253,109.031c-2.732,1.073-5.028,3.076-6.461,5.638l-10.054,17.953l-10.053-17.953
			c-0.003-0.004-0.005-0.009-0.007-0.014c-1.438-2.557-3.731-4.555-6.439-5.618c-17.897-7.083-29.922-25.21-29.922-45.107
			c0-26.608,20.824-48.257,46.421-48.257c25.596,0,46.42,21.648,46.42,48.257C301.158,83.827,289.133,101.955,271.253,109.031z"/>
	</g>
</g>
<g>
	<g>
		<path d="M104.447,83.847c-28.252,0-51.237,23.644-51.237,52.705c0,21.169,12.619,40.539,31.551,48.661l12.848,22.945
			c1.386,2.475,4.001,4.008,6.838,4.008s5.452-1.533,6.838-4.008l12.849-22.946c18.928-8.12,31.55-27.492,31.55-48.66
			C155.684,107.491,132.699,83.847,104.447,83.847z M117.066,171.174c-2.508,0.992-4.617,2.834-5.945,5.198l-6.674,11.917
			l-6.683-11.935c-1.325-2.352-3.435-4.192-5.936-5.18c-13.724-5.431-22.944-19.345-22.944-34.624
			c0-20.419,15.953-37.031,35.563-37.031s35.563,16.612,35.563,37.031C140.01,151.831,130.789,165.744,117.066,171.174z"/>
	</g>
</g>
<g>
	<g>
		<path d="M104.447,109.161c-14.83,0-26.896,12.288-26.896,27.392s12.065,27.393,26.896,27.393
			c14.831,0,26.897-12.289,26.897-27.393C131.344,121.447,119.278,109.161,104.447,109.161z M104.447,148.271
			c-6.188,0-11.222-5.257-11.222-11.72c0-6.462,5.034-11.719,11.222-11.719c6.189,0,11.223,5.257,11.223,11.719
			C115.67,143.014,110.636,148.271,104.447,148.271z"/>
	</g>
</g>
<g>
	<g>
		<path d="M407.552,83.848c-28.252,0-51.237,23.644-51.237,52.705c0,21.169,12.62,40.54,31.552,48.662l12.847,22.944
			c1.386,2.475,4.001,4.008,6.838,4.008s5.451-1.533,6.838-4.007l12.851-22.947c18.928-8.12,31.549-27.492,31.549-48.66
			C458.79,107.491,435.805,83.848,407.552,83.848z M420.172,171.175c-2.511,0.993-4.622,2.838-5.944,5.197l-6.675,11.919
			l-6.684-11.936c-1.324-2.351-3.434-4.192-5.937-5.18c-13.723-5.431-22.943-19.345-22.943-34.624
			c0-20.419,15.953-37.031,35.563-37.031c19.611,0,35.564,16.612,35.564,37.031C443.116,151.831,433.895,165.745,420.172,171.175z"
			/>
	</g>
</g>
<g>
	<g>
		<path d="M407.552,109.161c-14.83,0-26.896,12.288-26.896,27.392s12.065,27.393,26.896,27.393
			c14.831-0.001,26.898-12.289,26.898-27.393S422.383,109.161,407.552,109.161z M407.552,148.272
			c-6.188-0.001-11.222-5.258-11.222-11.72s5.034-11.719,11.222-11.719c6.189,0,11.224,5.257,11.224,11.719
			S413.741,148.272,407.552,148.272z"/>
	</g>
</g>
<g>
</g>
<g>
</g>
<g>
</g>
<g>
</g>
<g>
</g>
<g>
</g>
<g>
</g>
<g>
</g>
<g>
</g>
<g>
</g>
<g>
</g>
<g>
</g>
<g>
</g>
<g>
</g>
<g>
</g>
</svg>
