<svg height="512pt" viewBox="-33 0 512 512" width="512pt" xmlns="http://www.w3.org/2000/svg"><path d="m222.800781 273.128906c9.449219 0 17.128907-7.679687 17.128907-17.128906s-7.679688-17.128906-17.128907-17.128906-17.128906 7.679687-17.128906 17.128906 7.679687 17.128906 17.128906 17.128906zm0 0"/><path d="m213.449219 302.199219-17.667969 30.589843c16.207031 5.699219 35.347656 6.570313 54.039062 0l-17.671874-30.589843c-8.25 1.671875-15.039063.742187-18.699219 0zm0 0"/><path d="m275.789062 194.238281-17.667968 30.582031c0 .007813 0 .007813-.011719.007813 4.128906 4.671875 7.332031 10.152344 9.359375 16.171875h35.320312c-3.429687-18.140625-12.988281-34.691406-27-46.761719zm0 0"/><path d="m169.820312 194.238281c-14.019531 12.070313-23.582031 28.621094-27.011718 46.761719h35.320312c2.03125-6.019531 5.242188-11.5 9.359375-16.171875-.007812 0-.007812 0-.007812-.007813zm0 0"/><path d="m445.601562 127.46875c0-8.28125-6.71875-15-15-15v-82.46875c8.28125 0 15-6.714844 15-15s-6.71875-15-15-15h-415.601562c-8.285156 0-15 6.714844-15 15s6.714844 15 15 15v82.46875c-8.285156 0-15 6.71875-15 15 0 8.285156 6.714844 15 15 15v98.53125c-8.285156 0-15 6.714844-15 15s6.714844 15 15 15v98.53125c-8.285156 0-15 6.714844-15 15 0 8.28125 6.714844 15 15 15v82.46875c-8.285156 0-15 6.714844-15 15s6.714844 15 15 15h415.601562c8.28125 0 15-6.714844 15-15s-6.71875-15-15-15v-82.46875c8.28125 0 15-6.71875 15-15 0-8.285156-6.71875-15-15-15v-98.53125c8.28125 0 15-6.714844 15-15s-6.71875-15-15-15v-98.53125c8.28125 0 15-6.714844 15-15zm-222.800781 288.132812c-88.003906 0-159.601562-71.597656-159.601562-159.601562s71.597656-159.601562 159.601562-159.601562c88.003907 0 159.597657 71.597656 159.597657 159.601562s-71.59375 159.601562-159.597657 159.601562zm0 0"/><path d="m222.800781 126.398438c-71.460937 0-129.601562 58.140624-129.601562 129.601562s58.140625 129.601562 129.601562 129.601562c71.460938 0 129.597657-58.140624 129.597657-129.601562s-58.136719-129.601562-129.597657-129.601562zm96.398438 144.601562h-51.730469c-2.027344 6.019531-5.230469 11.5-9.347656 16.171875l25.878906 44.808594c4.140625 7.167969 1.691406 16.328125-5.46875 20.480469-16.5 9.558593-62.472656 28.367187-111.453125 0-7.15625-4.152344-9.609375-13.3125-5.46875-20.480469l25.871094-44.808594c-4.121094-4.671875-7.320313-10.152344-9.351563-16.171875h-51.730468c-8.277344 0-15-6.71875-15-15 0-39.609375 21.339843-76.570312 55.679687-96.460938 7.171875-4.148437 16.363281-1.699218 20.511719 5.480469l25.859375 44.78125c3.660156-.742187 10.449219-1.671875 18.699219 0l25.871093-44.78125c4.140625-7.179687 13.332031-9.640625 20.5-5.480469 34.351563 19.882813 55.679688 56.851563 55.679688 96.460938 0 8.28125-6.71875 15-15 15zm0 0"/></svg>