<?xml version="1.0" encoding="iso-8859-1"?>
<!-- Generator: Adobe Illustrator 16.0.0, SVG Export Plug-In . SVG Version: 6.00 Build 0)  -->
<!DOCTYPE svg PUBLIC "-//W3C//DTD SVG 1.1//EN" "http://www.w3.org/Graphics/SVG/1.1/DTD/svg11.dtd">
<svg version="1.1" id="Capa_1" xmlns="http://www.w3.org/2000/svg" xmlns:xlink="http://www.w3.org/1999/xlink" x="0px" y="0px"
	 width="544.987px" height="544.986px" viewBox="0 0 544.987 544.986" style="enable-background:new 0 0 544.987 544.986;"
	 xml:space="preserve">
<g>
	<path id="iconos_43_" d="M188.208,535.806l110.16-190.638l-15.912-15.3c-18.666,15.3-41.31,24.174-65.79,24.174
		c-22.95,0-44.676-7.956-62.424-21.726l-22.644,21.726h-44.37c-20.502,0-36.414,7.038-48.96,21.42
		C1.854,417.384,7.974,507.96,10.728,535.806H188.208L188.208,535.806z M124.56,242.352c3.06,25.398,13.464,47.736,29.07,64.26
		c3.366,3.365,6.732,6.731,10.404,9.485c4.59,3.672,9.486,6.732,14.688,9.486c11.628,6.12,24.48,9.486,38.25,9.486
		c13.771,0,26.622-3.366,38.25-9.486c5.202-2.754,10.099-5.814,14.688-9.486c3.671-3.06,7.038-6.12,10.403-9.485
		c15.301-16.524,26.011-38.862,28.765-63.954c0.306,0,0.611,0,0.918,0c16.218,0,29.07-14.994,29.07-33.354
		c0-11.322-4.896-21.114-12.24-27.234H111.402c-7.344,6.12-12.24,15.912-12.24,27.234
		C99.468,226.134,110.178,239.904,124.56,242.352z M171.684,37.944c-31.824,16.218-56.916,48.654-66.402,80.172l-2.142,6.732H85.698
		v38.25h18.972h26.928h11.322h147.492h11.016h41.922v-1.836v-36.414h-17.136l-2.142-6.732
		c-9.486-31.518-34.578-63.648-66.402-79.866v71.91v10.098c0,0.612,0,0.918,0,1.224c-0.306,3.366-0.918,6.426-2.448,9.486
		c-3.978,7.65-11.934,13.158-21.114,13.158h-4.896h-33.66c-8.568,0-16.218-4.59-20.196-11.322c-1.836-2.754-2.754-5.813-3.366-9.18
		c-0.306-1.224-0.306-2.142-0.306-3.366v-8.568V37.944z M195.552,134.028h38.25c5.508,0,10.098-3.06,12.546-7.65
		c1.224-2.142,1.836-4.284,1.836-6.732v-2.754V105.57V33.354V22.95v-3.978c0-2.448-0.612-4.59-1.224-6.732
		C244.206,5.202,237.168,0,229.212,0h-33.66c-7.344,0-13.464,5.508-14.076,12.546c0,0.612-0.306,1.224-0.306,1.836v8.568v10.404
		v73.44v11.628v1.224c0,3.06,0.918,5.814,2.448,8.262C186.372,131.58,190.656,134.028,195.552,134.028z M357.12,459.306h38.556
		l7.344-59.976l2.143-17.136l1.224-9.181h-7.344h-12.24H346.41L357.12,459.306z M353.141,469.098h47.736v47.736h-47.736V469.098z
		 M374.561,263.16c-3.365,0-6.731,1.836-8.567,4.896l-38.557,67.014l-5.508,9.485l-5.508,9.486L214.524,530.604
		c-0.918,1.53-1.224,3.366-1.224,4.896s0.306,3.366,1.224,4.59c1.836,3.061,4.896,4.896,8.568,4.896H427.5h9.486h89.657l0,0
		c5.509,0,9.792-4.284,9.792-9.792c0-2.448-0.918-4.284-2.142-6.12L383.129,268.056C381.293,264.996,378.234,263.16,374.561,263.16z
		 M438.209,526.32h-9.486h-9.485H239.922l99.45-171.973l5.508-9.485l5.508-9.486l24.786-42.534L510.12,526.32H438.209z"/>
</g>
<g>
</g>
<g>
</g>
<g>
</g>
<g>
</g>
<g>
</g>
<g>
</g>
<g>
</g>
<g>
</g>
<g>
</g>
<g>
</g>
<g>
</g>
<g>
</g>
<g>
</g>
<g>
</g>
<g>
</g>
</svg>
