<svg height="512pt" viewBox="0 0 511 512" width="512pt" xmlns="http://www.w3.org/2000/svg"><path d="m365.089844 356.988281c9.832031-5.058593 24.929687-10.988281 42.253906-10.988281 29.488281 0 52.96875 17.242188 53.964844 17.972656 3 .722656 22.277344 17.828125 50.808594 9.800782-1.210938-40.304688-34.183594-72.773438-74.773438-72.773438-34.746094 0-63.777344 23.871094-72.253906 55.988281zm0 0"/><path d="m443.378906 388.027344c-.101562-.074219-16.699218-12.027344-36.035156-12.027344-3.011719 0-17.3125-1.480469-43.089844 17.28125 7.046875 34.171875 34.609375 65.523438 73.71875 118.71875 34.09375-47.292969 59.132813-77.554688 69.3125-107.019531-23.964844 3.253906-48.183594-5.394531-63.90625-16.953125zm0 0"/><path d="m166.34375 151c8.277344 0 15-6.722656 15-15s-6.722656-15-15-15c-8.273438 0-15 6.722656-15 15s6.722656 15 15 15zm0 0"/><path d="m166.34375 361c-8.273438 0-15 6.722656-15 15s6.726562 15 15 15c8.277344 0 15-6.722656 15-15s-6.722656-15-15-15zm0 0"/><path d="m106.34375 271c8.277344 0 15-6.722656 15-15s-6.722656-15-15-15c-8.273438 0-15 6.722656-15 15s6.722656 15 15 15zm0 0"/><path d="m287.34375 121c8.277344 0 15-6.722656 15-15s-6.722656-15-15-15c-8.273438 0-15 6.722656-15 15s6.722656 15 15 15zm0 0"/><path d="m257.34375 512c39.816406 0 77.945312-9.9375 113.351562-27.585938 2.453126-1.222656 4.246094-3.101562 6.390626-4.644531-23.621094-31.949219-40.367188-58.964843-43.867188-91.261719-17.871094-5.960937-30.875-22.65625-30.875-42.507812 0-24.816406 20.1875-45 45-45h16.75c4.097656-4.003906 8.546875-7.640625 13.25-10.9375v-258.894531c-144.765625-76.132813-326.601562-6.015625-368.445312 157.859375-42.714844 167.109375 83.195312 322.972656 248.445312 322.972656zm-91-91c-24.8125 0-45-20.1875-45-45s20.1875-45 45-45c24.816406 0 45 20.1875 45 45s-20.183594 45-45 45zm121-360c24.816406 0 45 20.1875 45 45s-20.183594 45-45 45c-24.8125 0-45-20.1875-45-45s20.1875-45 45-45zm-121 30c24.816406 0 45 20.1875 45 45s-20.183594 45-45 45c-24.8125 0-45-20.1875-45-45s20.1875-45 45-45zm-60 120c24.816406 0 45 20.1875 45 45s-20.183594 45-45 45c-24.8125 0-45-20.1875-45-45s20.1875-45 45-45zm0 0"/><path d="m467.34375 275.894531v-275.894531h-60v275.894531c9.570312-2.878906 19.507812-4.894531 30-4.894531 10.496094 0 20.429688 2.015625 30 4.894531zm0 0"/></svg>