<svg height="512pt" viewBox="0 0 512.00025 512" width="512pt" xmlns="http://www.w3.org/2000/svg"><path d="m151.882812 290.707031-138.933593 138.929688c-8.351563 8.347656-12.949219 19.453125-12.949219 31.261719v.015624c0 28.503907 23.128906 51.085938 51.101562 51.085938 11.808594 0 22.910157-4.601562 31.261719-12.949219l138.929688-138.929687c19.199219-19.199219 19.171875-50.246094 0-69.414063-19.195313-19.199219-50.242188-19.171875-69.410157 0zm0 0"/><path d="m507.605469 213.257812c-5.855469-5.855468-15.355469-5.855468-21.210938 0l-11.675781 11.675782h-76.058594c-.933594-8.023438-2.617187-15.875-5.011718-23.476563l76.34375-27.761719c2.058593-.75 3.929687-1.941406 5.480468-3.488281l16.066406-16.070312c5.859376-5.855469 5.859376-15.351563 0-21.210938-5.855468-5.859375-15.355468-5.859375-21.214843 0l-13.714844 13.714844-75.367187 27.40625c-2.730469-4.503906-5.75-8.855469-9.050782-13.027344l71.148438-71.148437c5.855468-5.859375 5.855468-15.355469 0-21.210938-5.859375-5.859375-15.355469-5.859375-21.214844 0l-71.148438 71.148438c-4.171874-3.304688-8.523437-6.324219-13.027343-9.054688l27.410156-75.367187 13.710937-13.714844c5.859376-5.859375 5.859376-15.355469 0-21.210937-5.855468-5.859376-15.355468-5.859376-21.210937 0l-16.066406 16.0625c-1.550781 1.550781-2.742188 3.421874-3.492188 5.480468l-27.761719 76.347656c-7.601562-2.394531-15.453124-4.078124-23.476562-5.011718v-76.0625l11.675781-11.671875c5.859375-5.855469 5.859375-15.355469 0-21.210938-5.855469-5.859375-15.355469-5.859375-21.214843 0l-16.0625 16.066407c-2.8125 2.8125-4.394532 6.625-4.394532 10.605468v202.652344l-26.171875 26.171875c4.121094 2.800781 8.011719 6 11.613281 9.601563 3.601563 3.601562 6.800782 7.492187 9.601563 11.613281l26.171875-26.171875h202.652344c3.980468 0 7.792968-1.582032 10.605468-4.394532l16.066407-16.066406c5.859375-5.859375 5.859375-15.355468 0-21.214844zm0 0"/></svg>