<svg height="512pt" viewBox="0 0 512 512" width="512pt" xmlns="http://www.w3.org/2000/svg"><path d="m432.734375 158.53125c43.707031 0 79.265625-35.558594 79.265625-79.265625s-35.558594-79.265625-79.265625-79.265625c-43.710937 0-79.269531 35.558594-79.269531 79.265625 0 43.710937 35.5625 79.265625 79.269531 79.265625zm0 0"/><path d="m87.953125 383.46875h-87.953125v34.265625h56.066406c8.703125-13.085937 19.492188-24.667969 31.886719-34.265625zm0 0"/><path d="m368.46875 319.199219h-368.46875v34.269531h415.390625c-6.359375-19.859375-24.992187-34.269531-46.921875-34.269531zm0 0"/><path d="m0 497c0 8.285156 6.714844 15 15 15h17.132812v-15c0-17.300781 3.078126-33.894531 8.710938-49.265625h-40.84375zm0 0"/><path d="m368.46875 289.199219c38.582031 0 70.792969 27.710937 77.820312 64.269531h34.722657c-7.363281-55.539062-55.011719-98.539062-112.53125-98.539062h-115.660157v19.269531c0 5.261719-.910156 10.3125-2.582031 15zm0 0"/><path d="m372.578125 190.730469c-1.359375-.039063-2.726563-.058594-4.097656-.058594h-94.058594c-.84375.988281-1.722656 1.949219-2.652344 2.878906-5.371093 5.378907-11.871093 9.21875-18.949219 11.328125v20.050782h115.660157c79.140625 0 143.519531 64.378906 143.519531 143.519531v-104.929688c-31.589844-43.140625-82.160156-71.488281-139.421875-72.789062zm0 0"/><path d="m140.828125 462.160156c-9.308594 9.308594-14.429687 21.679688-14.429687 34.839844v15h34.273437v-15c0-8.28125 6.707031-15 15-15h336.328125v-34.269531h-336.328125c-13.160156 0-25.542969 5.128906-34.84375 14.429687zm0 0"/><path d="m62.132812 497v15h34.265626v-15c0-21.175781 8.246093-41.078125 23.21875-56.050781 14.96875-14.972657 34.875-23.214844 56.050781-23.214844h336.332031c0-11.679687 0-23.425781 0-34.277344l-336.332031.011719c-62.605469 0-113.535157 50.929688-113.535157 113.53125zm0 0"/><path d="m110.328125 222.800781h34.273437v66.398438h-34.273437zm0 0"/><path d="m25.628906 172.339844 6.519532-6.519532v108.378907c0 8.28125 6.71875 15 15 15h33.179687v-81.398438c0-8.28125 6.722656-15 15-15h64.273437c8.277344 0 15 6.71875 15 15v81.398438h33.214844c8.28125 0 15-6.71875 15-15v-108.386719l6.527344 6.527344c5.859375 5.859375 15.355469 5.855468 21.214844 0 5.855468-5.855469 5.855468-15.355469 0-21.210938l-112.46875-112.46875c-2.8125-2.8125-6.625-4.394531-10.605469-4.394531-3.976563 0-7.792969 1.582031-10.605469 4.394531l-80.34375 80.34375s0-.003906.003906-.003906l-32.128906 32.128906c-7.359375 7.359375-4.1875 17.019532 0 21.210938 5.859375 5.859375 15.359375 5.859375 21.21875 0zm0 0"/></svg>