<svg height="512pt" viewBox="0 0 512 512" width="512pt" xmlns="http://www.w3.org/2000/svg"><path d="m466 362h-49.847656l3.632812-17.972656c.804688-3.941406 1.214844-7.96875 1.214844-12.027344 0-33.089844-26.910156-60-60-60h-240c-28.492188 0-53.230469 20.257812-58.828125 48.164062l-2.210937 11.089844-11.265626.921875c-26.75 2.183594-48.695312 24.929688-48.695312 51.78125v16.085938c0 28.652343 24.304688 51.957031 52.957031 51.957031h96.796875l2.445313 11.996094c5.6875 27.816406 30.410156 48.003906 58.800781 48.003906h210c30.761719 0 55.796875-22.910156 59.53125-54.464844l.894531-7.570312 6.636719-3.734375c14.148438-7.984375 22.9375-23.015625 22.9375-39.230469 0-24.8125-20.1875-45-45-45zm-240 15c-11.566406 0-22.019531-4.507812-30-11.703125-7.980469 7.195313-18.433594 11.703125-30 11.703125-24.8125 0-45-20.1875-45-45h30c0 8.277344 6.722656 15 15 15s15-6.722656 15-15h30c0 8.277344 6.722656 15 15 15s15-6.722656 15-15h30c0 8.277344 6.722656 15 15 15s15-6.734375 15-15.011719h30c0 24.816407-20.1875 45.011719-45 45.011719-11.566406 0-22.019531-4.507812-30-11.703125-7.980469 7.195313-18.433594 11.703125-30 11.703125zm150 90c-11.566406 0-22.019531-4.507812-30-11.703125-7.980469 7.195313-18.433594 11.703125-30 11.703125-24.8125 0-45-20.1875-45-45h30c0 8.277344 6.722656 15 15 15s15-6.722656 15-15h30c0 8.277344 6.722656 15 15 15s15-6.734375 15-15.011719h30c0 24.816407-20.1875 45.011719-45 45.011719zm0 0"/><path d="m271 91v88.5c34.199219-6.902344 60-37.199219 60-73.5v-30c0-41.398438-33.601562-76-75-76s-75 34.601562-75 76v30c0 36.300781 25.800781 66.597656 60 73.5v-88.5zm0 0"/><path d="m91 91v88.5c34.199219-6.902344 60-37.199219 60-73.5v-30c0-41.398438-33.601562-76-75-76s-76 34.601562-76 76v30c0 36.300781 26.800781 66.597656 61 73.5v-88.5zm0 0"/><path d="m421 179.5v32.5h-150v-32.5c-4.800781.898438-9.902344 1.5-15 1.5s-10.199219-.601562-15-1.5v32.5h-150v-32.5c-4.800781.898438-9.902344 1.5-15 1.5s-10.199219-.601562-15-1.5v32.5h-61v30h512v-30h-61v-32.5c-4.800781.898438-9.902344 1.5-15 1.5s-10.199219-.601562-15-1.5zm0 0"/><path d="m436 0c-41.398438 0-75 34.601562-75 76v30c0 36.300781 25.800781 66.597656 60 73.5v-88.5h30v88.5c34.199219-6.902344 61-37.199219 61-73.5v-30c0-41.398438-34.601562-76-76-76zm0 0"/></svg>