<svg height="512pt" viewBox="0 0 512.00001 512" width="512pt" xmlns="http://www.w3.org/2000/svg"><path d="m381.328125 497c0 5.261719-.90625 10.308594-2.578125 15h118.25c8.28125 0 15-6.71875 15-15v-49.269531h-130.671875zm0 0"/><path d="m447.730469 142.46875h64.269531v34.261719h-64.269531zm0 0"/><path d="m447.730469 206.730469h64.269531v34.269531h-64.269531zm0 0"/><path d="m447.730469 271h64.269531v34.269531h-64.269531zm0 0"/><path d="m447.730469 352.398438c0 8.28125-6.710938 15-15 15-8.28125 0-15-6.71875-15-15v-209.929688h-96.402344v67.019531l46.820313 46.820313c8.5 8.5 13.179687 19.800781 13.179687 31.820312v129.601563h130.671875v-82.460938h-64.269531zm0 0"/><path d="m416.667969 0c-52.566407 0-95.332031 42.765625-95.332031 95.332031v17.136719h190.664062v-17.136719c0-52.566406-42.765625-95.332031-95.332031-95.332031zm0 0"/><path d="m110.328125 400.601562v111.398438h50.34375v-174.980469c-28.820313 6.800781-50.34375 32.71875-50.34375 63.582031zm0 0"/><path d="m190.671875 337.019531v174.980469h50.328125v-111.398438c0-30.863281-21.519531-56.78125-50.328125-63.582031zm0 0"/><path d="m250.539062 181.128906c-2.8125-2.816406-6.628906-4.394531-10.605468-4.394531h-128.535156c-3.976563 0-7.792969 1.578125-10.605469 4.394531l-96.398438 96.398438c-2.8125 2.8125-4.394531 6.628906-4.394531 10.605468v208.867188c0 8.285156 6.714844 15 15 15h65.328125v-111.398438c0-52.570312 42.773437-95.332031 95.34375-95.332031 52.558594 0 95.328125 42.761719 95.328125 95.332031v111.398438h65.332031c8.285157 0 15-6.714844 15-15v-208.867188c0-3.976562-1.578125-7.792968-4.394531-10.605468zm-58.808593 89.871094h-32.128907c-8.28125 0-15-6.71875-15-15s6.71875-15 15-15h32.128907c8.289062 0 15 6.71875 15 15s-6.710938 15-15 15zm0 0"/></svg>