<svg height="512pt" viewBox="0 0 512 512.00058" width="512pt" xmlns="http://www.w3.org/2000/svg"><path d="m95.332031 383.464844c-18.304687 0-33.199219 14.894531-33.199219 33.203125 0 18.304687 14.894532 33.199219 33.199219 33.199219 18.308594 0 33.203125-14.894532 33.203125-33.199219 0-18.308594-14.894531-33.203125-33.203125-33.203125zm0 0"/><path d="m95.332031 321.332031c-52.566406 0-95.332031 42.769531-95.332031 95.335938 0 52.566406 42.765625 95.332031 95.332031 95.332031 52.566407 0 95.335938-42.765625 95.335938-95.332031 0-52.566407-42.769531-95.335938-95.335938-95.335938zm0 158.535157c-34.847656 0-63.199219-28.351563-63.199219-63.199219 0-34.847657 28.351563-63.199219 63.199219-63.199219 34.847657 0 63.203125 28.351562 63.203125 63.199219 0 34.847656-28.351562 63.199219-63.203125 63.199219zm0 0"/><path d="m370.601562 353.46875c-43.710937 0-79.269531 35.558594-79.269531 79.265625s35.5625 79.265625 79.269531 79.265625c43.707032 0 79.265626-35.558594 79.265626-79.265625s-35.558594-79.265625-79.265626-79.265625zm0 128.53125c-27.167968 0-49.269531-22.101562-49.269531-49.265625 0-27.167969 22.101563-49.269531 49.269531-49.269531 27.164063 0 49.265626 22.101562 49.265626 49.269531 0 27.164063-22.101563 49.265625-49.265626 49.265625zm0 0"/><path d="m385.601562 432.734375c0 8.285156-6.71875 15-15 15-8.285156 0-15-6.714844-15-15s6.714844-15 15-15c8.28125 0 15 6.714844 15 15zm0 0"/><path d="m345.691406 28.421875 5.488282 2.746094c11.320312 5.65625 18.355468 17.035156 18.355468 29.691406v108.839844l30 9.230469v-118.070313c0-24.097656-13.390625-45.753906-34.925781-56.519531l-5.503906-2.753906c-7.40625-3.703126-16.417969-.699219-20.121094 6.710937-3.707031 7.410156-.699219 16.417969 6.707031 20.125zm0 0"/><path d="m501.410156 241.660156-198.28125-61.007812v-61.222656c0-39.269532-31.949218-71.230469-71.230468-71.230469h-216.898438c-8.28125 0-15 6.722656-15 15 0 8.28125 6.71875 15 15 15h17.128906v230.269531c18.570313-10.878906 40.171875-17.136719 63.203125-17.136719 69.027344 0 125.207031 56.097657 125.328125 125.097657l41.039063 7.339843c4.5625-56.070312 51.671875-100.300781 108.902343-100.300781 60.25 0 109.269532 49.011719 109.269532 109.261719 0 4.671875-.289063 9.269531-.871094 13.78125l18 1.21875c8.28125 0 15-6.710938 15-15v-176.730469c0-6.578125-4.289062-12.398438-10.589844-14.339844zm-228.28125-69.808594-82.457031-23.5625v-70.089843h41.226563c22.742187 0 41.230468 18.5 41.230468 41.230469zm78.203125 87.757813c0 8.292969-6.710937 15-15 15-8.28125 0-15-6.707031-15-15v-17.128906c0-8.289063 6.71875-15 15-15 8.289063 0 15 6.710937 15 15zm48.199219 14.589844c0 8.28125-6.710938 15-15 15-8.28125 0-15-6.71875-15-15v-17.128907c0-8.289062 6.71875-15 15-15 8.289062 0 15 6.710938 15 15zm48.199219 16.070312c0 8.28125-6.710938 15-15 15-8.28125 0-15-6.71875-15-15v-17.140625c0-8.277344 6.71875-15 15-15 8.289062 0 15 6.722656 15 15zm0 0"/></svg>