<svg height="434pt" viewBox="0 -7 434.65179 434" width="434pt" xmlns="http://www.w3.org/2000/svg"><path d="m143.363281 164.003906c0 3.664063-2.96875 6.632813-6.632812 6.632813-3.664063 0-6.636719-2.96875-6.636719-6.632813 0-3.664062 2.972656-6.636718 6.636719-6.636718 3.664062 0 6.632812 2.972656 6.632812 6.636718zm0 0"/><path d="m119.4375 121.769531c11.257812-4.617187 23.890625-4.546875 35.089844.199219l1.617187-29.765625c1.613281-29.84375-4.613281-59.59375-18.050781-86.292969l-2.816406-5.585937-3.941406 9.101562c-10.507813 24.351563-15.246094 50.804688-13.839844 77.289063zm0 0"/><path d="m213.714844 191.679688-32.074219-19.589844c-2.210937 12.203125-9.285156 22.984375-19.597656 29.871094l25.261719 18.703124c24.007812 17.957032 52.304687 29.300782 82.0625 32.902344l6.019531.722656-5.472657-8.460937c-14.335937-22.117187-33.566406-40.640625-56.199218-54.148437zm0 0"/><path d="m136.726562 195.648438c17.476563 0 31.644532-14.167969 31.644532-31.644532 0-17.476562-14.167969-31.644531-31.644532-31.644531-17.476562 0-31.644531 14.167969-31.644531 31.644531.019531 17.46875 14.175781 31.625 31.644531 31.644532zm0-52.28125c11.394532 0 20.632813 9.242187 20.632813 20.636718 0 11.398438-9.238281 20.636719-20.632813 20.636719-11.398437-.003906-20.636718-9.242187-20.636718-20.636719.015625-11.390625 9.246094-20.621094 20.636718-20.636718zm0 0"/><path d="m136.726562 209.683594c-2.988281.011718-5.972656-.273438-8.90625-.84375l-.523437.398437-20.792969 211.199219h65.597656l-25.539062-211.765625c-3.230469.691406-6.53125 1.03125-9.835938 1.011719zm0 0"/><path d="m92.105469 173.578125-30.425781 18.101563c-22.636719 13.503906-41.867188 32.03125-56.207032 54.148437l-5.472656 8.460937 6.019531-.722656c29.75-3.597656 58.035157-14.9375 82.035157-32.882812l24.453124-18.019532c-10.4375-6.554687-17.796874-17.039062-20.402343-29.085937zm0 0"/><path d="m406.59375 35.050781c-15.488281.007813-28.042969 12.554688-28.0625 28.039063.003906 3.867187 3.140625 6.996094 7.007812 6.992187 3.867188-.003906 6.996094-3.140625 6.992188-7.007812.164062-7.722657 6.53125-13.867188 14.257812-13.757813 7.726563.109375 13.917969 6.433594 13.863282 14.160156-.054688 7.726563-6.332032 13.960938-14.058594 13.960938h-154.519531c-3.867188 0-7 3.132812-7 7s3.132812 7 7 7h156.171875c.558594-.054688 1.105468-.171875 1.636718-.351562 14.757813-1.769532 25.589844-14.722657 24.71875-29.566407-.871093-14.839843-13.144531-26.4375-28.007812-26.46875zm0 0"/><path d="m252.074219 121.4375h172.738281c3.867188 0 7-3.132812 7-7s-3.132812-7-7-7h-172.738281c-3.867188 0-7 3.132812-7 7s3.132812 7 7 7zm0 0"/><path d="m409.882812 136.800781c-.53125-.1875-1.078124-.308593-1.636718-.363281h-156.171875c-3.867188 0-7 3.132812-7 7s3.132812 7 7 7h154.519531c7.765625.09375 14.011719 6.414062 14.011719 14.179688 0 7.769531-6.246094 14.089843-14.011719 14.183593-7.753906.007813-14.050781-6.265625-14.0625-14.019531-.007812-3.867188-3.148438-6.992188-7.015625-6.984375-3.863281.007813-6.992187 3.148437-6.984375 7.015625.078125 15.050781 12.015625 27.359375 27.058594 27.894531 15.042968.539063 27.828125-10.886719 28.980468-25.894531 1.152344-15.007812-9.742187-28.25-24.6875-30.011719zm0 0"/></svg>