<svg height="512pt" viewBox="-61 0 512 512.00002" width="512pt" xmlns="http://www.w3.org/2000/svg"><path d="m390.792969 342.496094c0-20.941406-13.632813-38.742188-32.484375-45.035156v-297.460938l-15.285156.304688c-79.183594 1.5625-154.457032 32.417968-211.957032 86.875-54.949218 52.039062-89.238281 121.460937-97.296875 196.441406-4.878906 2.871094-9.480469 6.394531-13.667969 10.582031-12.898437 12.898437-20 30.050781-20 48.292969 0 .199218.011719.402344.011719.605468-.0703122.667969-.113281 168.898438-.113281 168.898438h94.945312v-106.601562c7.90625-3.324219 15.3125-8.183594 21.742188-14.613282 9.480469-9.484375 15.566406-21.089844 18.296875-33.300781h23.953125v37.773437h29.980469v-67.753906h-53.933594c-2.730469-12.210937-8.816406-23.816406-18.300781-33.300781-3.398438-3.402344-7.074219-6.359375-10.949219-8.890625 12.121094-7.835938 23.152344-17.433594 32.664063-28.570312 23.105468-27.050782 35.832031-61.566407 35.832031-97.191407 0-8.644531-.761719-17.242187-2.234375-25.699219 13.226562 3.734376 26.96875 5.675782 40.835937 5.675782 4.460938 0 8.9375-.199219 13.410157-.597656 35.433593-3.183594 68.667968-18.960938 93.578124-44.425782 2.980469-3.046875 5.808594-6.226562 8.507813-9.5v212.457032c-18.851563 6.292968-32.484375 24.09375-32.484375 45.035156 0 20.9375 13.632812 38.738281 32.484375 45.03125v78.574218c0 8.773438-7.140625 15.914063-15.917969 15.914063s-15.917968-7.140625-15.917968-15.914063v-39.382812h-29.984376v39.382812c0 25.308594 20.589844 45.898438 45.902344 45.898438 25.308594 0 45.898438-20.589844 45.898438-45.898438v-78.574218c18.851562-6.292969 32.484375-24.09375 32.484375-45.03125zm-275.191407-105.226563c-13.503906 15.804688-30.8125 27.75-50.050781 34.78125 8.960938-55.996093 34.207031-107.9375 72.804688-149.613281 3.875 11.921875 5.890625 24.453125 5.890625 37.113281.003906 28.492188-10.171875 56.09375-28.644532 77.71875zm182.785157-163.730469c-19.921875 20.367188-46.496094 32.984376-74.824219 35.527344-20.851562 1.875-41.730469-1.753906-60.507812-10.3125 45.746093-38.957031 102.277343-62.484375 162.089843-67.503906-5.804687 15.738281-14.917969 30.183594-26.757812 42.289062zm0 0"/></svg>