<svg height="512pt" viewBox="0 0 512.00157 512" width="512pt" xmlns="http://www.w3.org/2000/svg"><path d="m489.148438 310.316406c-15.164063-15.160156-35.324219-23.511718-56.769532-23.511718-14.246094 0-27.917968 3.707031-39.945312 10.628906-.882813 20.40625-3.746094 40.746094-8.605469 60.683594l-.71875 2.949218-4.320313 17.722656-17.722656 4.320313-2.949218.71875c-19.902344 4.851563-40.261719 7.742187-60.703126 8.636719-6.910156 12.019531-10.609374 25.679687-10.609374 39.914062 0 21.445313 8.347656 41.605469 23.511718 56.769532l22.851563 22.851562 43.257812-43.257812c15.164063-15.160157 23.515625-35.324219 23.515625-56.765626 0-4.441406-.378906-8.820312-1.082031-13.117187 4.296875.703125 8.675781 1.078125 13.117187 1.078125 21.445313 0 41.605469-8.351562 56.769532-23.511719l43.253906-43.257812zm0 0"/><path d="m300.851562 61.90625c35.632813 35.632812 62.253907 79.558594 77.390626 127.554688l65.992187-24.085938-123.445313-163.042969-70.246093 18.714844c18.046875 11.78125 34.871093 25.421875 50.308593 40.859375zm0 0"/><path d="m164.351562 369.144531c-38.511718-15.847656-72.980468-38.824219-102.449218-68.292969-15.355469-15.355468-29.035156-32.253906-40.847656-50.355468l-18.726563 70.292968 163.042969 123.449219 24.089844-66c-8.460938-2.671875-16.835938-5.691406-25.109376-9.09375zm0 0"/><path d="m11.746094 8.082031-2.945313.71875-.71875 2.949219c-15.847656 64.984375-8.0273435 132.375 20.277344 190.863281 43.644531-7.425781 83.125-27.835937 114.773437-59.480469 31.640626-31.640624 52.050782-71.121093 59.476563-114.757812-38.441406-18.605469-80.71875-28.375-123.648437-28.375-22.378907 0-44.945313 2.652344-67.214844 8.082031zm111.464844 93.910157-21.21875 21.21875-24.246094-24.25 21.214844-21.214844zm0 0"/><path d="m283.792969 362.757812c22.378906 0 44.945312-2.652343 67.214843-8.082031l2.945313-.71875.71875-2.945312c23.472656-96.273438-4.96875-197.816407-75.039063-267.886719-15.125-15.128906-31.71875-28.3125-49.410156-39.457031-9.777344 45.726562-32.273437 87.082031-65.871094 120.683593-33.601562 33.597657-74.957031 56.09375-120.679687 65.871094 11.140625 17.691406 24.324219 34.285156 39.449219 49.410156 53.863281 53.863282 126.308594 83.125 200.671875 83.125zm0 0"/></svg>