<?xml version="1.0" encoding="iso-8859-1"?>
<!-- Generator: Adobe Illustrator 16.0.0, SVG Export Plug-In . SVG Version: 6.00 Build 0)  -->
<!DOCTYPE svg PUBLIC "-//W3C//DTD SVG 1.1//EN" "http://www.w3.org/Graphics/SVG/1.1/DTD/svg11.dtd">
<svg version="1.1" id="Capa_1" xmlns="http://www.w3.org/2000/svg" xmlns:xlink="http://www.w3.org/1999/xlink" x="0px" y="0px"
	 width="297.461px" height="297.461px" viewBox="0 0 297.461 297.461" style="enable-background:new 0 0 297.461 297.461;"
	 xml:space="preserve">
<g>
	<g>
		<path d="M279.116,0.585l-58.357,66.179c-3.484-2.201-8.14-1.639-10.957,1.559L195.023,85.09
			c-6.203-1.406-12.945,0.451-17.444,5.559L65.008,218.315l-10.266-9.051c-2.128-1.869-5.367-1.673-7.244,0.455
			c-1.872,2.123-1.665,5.375,0.456,7.25l16.682,14.705l-33.383,37.857l-7.382-6.504c-2.125-1.879-5.364-1.683-7.241,0.451
			c-1.872,2.123-1.673,5.364,0.456,7.244l28.865,25.461c2.125,1.869,5.373,1.662,7.244-0.461c1.877-2.123,1.67-5.37-0.458-7.244
			l-7.379-6.509l33.378-37.853l16.681,14.706c2.125,1.874,5.37,1.667,7.242-0.456c1.877-2.133,1.672-5.369-0.456-7.238l-10.26-9.052
			l112.567-127.664c4.505-5.108,5.499-12.031,3.34-18.007l14.789-16.772c2.641-3.008,2.775-7.35,0.591-10.509l58.455-66.274
			c0.632-0.717,0.555-1.8-0.155-2.423C280.825-0.194,279.748-0.134,279.116,0.585z M199.388,109.891l-56.851,64.473l-3.593-3.175
			l54.593-61.915c0.932-1.067,0.838-2.682-0.229-3.622c-1.062-0.943-2.682-0.832-3.625,0.233l-54.59,61.918l-9.243-8.15
			l56.854-64.479c4.06-4.601,11.086-5.041,15.694-0.979C203.013,98.25,203.454,105.277,199.388,109.891z"/>
	</g>
</g>
<g>
</g>
<g>
</g>
<g>
</g>
<g>
</g>
<g>
</g>
<g>
</g>
<g>
</g>
<g>
</g>
<g>
</g>
<g>
</g>
<g>
</g>
<g>
</g>
<g>
</g>
<g>
</g>
<g>
</g>
</svg>
