<svg height="464pt" viewBox="0 -8 464.13573 464" width="464pt" xmlns="http://www.w3.org/2000/svg"><path d="m240 344.066406c-.800781-65.597656 52.800781-119.199218 118.398438-120 5.601562 0 12 0 17.601562.800782v-192.800782h-272v368h149.601562c-8.800781-17.597656-13.601562-36.796875-13.601562-56zm120-136h-144v-16h144zm-144-64v-16h80v16zm144-32h-144v-16h144zm-176-64h112v16h-112zm13.601562 61.601563-40 40-11.203124-11.199219 40-40zm2.398438 242.398437c0 8.800782-7.199219 16-16 16h-48c-8.800781 0-16-7.199218-16-16v-48c0-8.796875 7.199219-16 16-16h16v16h-16v48h48v-8h16zm-13.601562-61.597656 11.203124 11.199219-40 40-11.203124-11.199219zm13.601562-34.402344c0 8.800782-7.199219 16-16 16h-48c-8.800781 0-16-7.199218-16-16v-48c0-8.796875 7.199219-16 16-16h16v16h-16v48h48v-8h16zm-13.601562-61.597656 11.203124 11.199219-40 40-11.203124-11.199219zm13.601562-34.402344c0 8.800782-7.199219 16-16 16h-48c-8.800781 0-16-7.199218-16-16v-48c0-8.796875 7.199219-16 16-16h16v16h-16v48h48v-8h16zm16 64h56v16h-56zm0 0"/><path d="m376 8.066406c0-4.796875-3.199219-7.9999998-8-7.9999998h-256c-4.800781 0-8 3.2031248-8 7.9999998v8h272zm0 0"/><path d="m360 240.066406c-57.601562 0-104 46.402344-104 104 0 20 5.601562 39.203125 16 56l22.398438-38.398437c2.402343-4.800781 7.203124-8 12-10.398438l26.402343-10.402343-12.800781-27.199219v-9.601563c0-22.398437 17.601562-40 40-40s40 17.601563 40 40v9.601563l-12.800781 25.601562 26.402343 10.398438c4.796876 2.398437 9.597657 5.601562 12 10.398437l22.398438 38.402344c30.398438-48 16.800781-112.800781-32-143.199219-16.800781-9.601562-36-15.203125-56-15.203125zm0 0"/><path d="m408 365.667969-26.398438-10.398438c-8-3.203125-12-12.800781-8.800781-20.800781 0-.800781 0-.800781.800781-1.601562l11.199219-22.398438v-6.402344c0-13.597656-10.402343-24-24-24-13.601562 0-24 10.402344-24 24v6.402344l11.199219 22.398438c4 8 .800781 17.601562-7.199219 21.601562-.800781 0-.800781 0-1.601562.800781l-27.199219 10.398438c-1.601562.800781-3.199219 1.601562-4 3.199219l-25.601562 44.800781c38.402343 42.398437 103.203124 46.398437 146.402343 8.800781 3.199219-2.402344 5.597657-5.601562 8.800781-8.800781l-25.601562-44.800781c-.800781-1.597657-2.398438-2.398438-4-3.199219zm0 0"/><path d="m264 416.066406h-160v24c0 4.800782 3.199219 8 8 8h188c-13.601562-8-25.601562-19.199218-36-32zm0 0"/><path d="m40 104.066406h16v16h-16zm0 0"/><path d="m40 136.066406h16v200h-16zm0 0"/><path d="m48 372.867188 8-8v-12.800782h-16v12.800782zm0 0"/><path d="m0 408.066406h64v16h-64zm0 0"/></svg>