<svg height="512pt" viewBox="0 0 512 512" width="512pt" xmlns="http://www.w3.org/2000/svg"><path d="m15 512h136v-45c0-41.421875-33.578125-76-75-76s-76 34.578125-76 76v30c0 8.285156 6.714844 15 15 15zm0 0"/><path d="m121 346c0-24.851562-20.148438-45-45-45s-46 20.148438-46 45 21.148438 45 46 45 45-20.148438 45-45zm0 0"/><path d="m181 467v45h151v-45c0-41.421875-34.578125-76-76-76s-75 34.578125-75 76zm0 0"/><path d="m302 346c0-24.851562-21.148438-45-46-45s-45 20.148438-45 45 20.148438 45 45 45 46-20.148438 46-45zm0 0"/><path d="m437 391c-41.421875 0-75 34.578125-75 76v45h135c8.285156 0 15-6.714844 15-15v-30c0-41.421875-33.578125-76-75-76zm0 0"/><path d="m482 346c0 24.851562-20.148438 45-45 45s-45-20.148438-45-45 20.148438-45 45-45 45 20.148438 45 45zm0 0"/><path d="m482 106c0 24.851562-20.148438 45-45 45s-45-20.148438-45-45 20.148438-45 45-45 45 20.148438 45 45zm0 0"/><path d="m437 151c-41.421875 0-75 33.578125-75 75v120c0-41.351562 33.648438-75 75-75s75 33.648438 75 75v-120c0-41.421875-33.578125-75-75-75zm0 0"/><path d="m15 241h317v-15c0-28.5 11.5-54.3125 30-73.25v-137.75c0-8.289062-6.710938-15-15-15h-332c-8.289062 0-15 6.710938-15 15v211c0 8.289062 6.710938 15 15 15zm166-165c0-8.289062 6.710938-15 15-15s15 6.710938 15 15v90c0 8.289062-6.710938 15-15 15s-15-6.710938-15-15zm-60 30c0-8.289062 6.710938-15 15-15s15 6.710938 15 15v60c0 8.289062-6.710938 15-15 15s-15-6.710938-15-15zm-60 30c0-8.289062 6.710938-15 15-15s15 6.710938 15 15v30c0 8.289062-6.710938 15-15 15s-15-6.710938-15-15zm0 0"/></svg>