<svg height="512pt" viewBox="0 0 512 512" width="512pt" xmlns="http://www.w3.org/2000/svg"><path d="m356.605469 176.605469c5.84375-5.84375 5.84375-15.367188 0-21.210938-5.835938-5.835937-15.367188-5.84375-21.210938 0s-5.84375 15.367188 0 21.210938c5.859375 5.859375 15.351563 5.859375 21.210938 0zm0 0"/><path d="m313.640625 300.761719c-.226563.011719-.414063.195312-.644531.195312-50.597656 0-101.996094-44.515625-101.996094-104.957031 0-24.8125-20.1875-45-45-45s-45 20.1875-45 45c0 107.519531 87.480469 195 195 195 24.8125 0 45-20.1875 45-45 0-22.765625-17-44.546875-47.359375-45.238281zm-162.667969-104.761719c0-8.285156 6.714844-15 15-15s15 6.714844 15 15-6.714844 15-15 15-15-6.714844-15-15zm30 90c-8.285156 0-15-6.714844-15-15s6.714844-15 15-15 15 6.714844 15 15-6.714844 15-15 15zm60 60c-8.285156 0-15-6.714844-15-15s6.714844-15 15-15 15 6.714844 15 15-6.714844 15-15 15zm75 15c-8.285156 0-15-6.714844-15-15s6.714844-15 15-15 15 6.714844 15 15-6.714844 15-15 15zm0 0"/><path d="m256 0c-140.609375 0-256 115.390625-256 256s115.390625 256 256 256 256-115.390625 256-256-115.390625-256-256-256zm58.183594 134.183594c17.550781-17.546875 46.085937-17.546875 63.632812 0 17.550782 17.550781 17.550782 46.085937 0 63.632812-17.53125 17.53125-46.082031 17.550782-63.632812 0-17.546875-17.546875-17.546875-46.085937 0-63.632812zm-28.210938-43.183594c8.285156 0 15 6.714844 15 15s-6.714844 15-15 15-15-6.714844-15-15 6.714844-15 15-15zm120.027344 240h-16.519531c.992187 4.847656 1.519531 9.863281 1.519531 15 0 36.214844-25.808594 66.511719-60 73.480469v16.519531c0 8.289062-6.710938 15-15 15s-15-6.710938-15-15v-15.761719c-30.023438-1.992187-58.394531-9.867187-84.078125-22.535156l-7.503906 15.007813c-3.691407 7.359374-12.648438 10.421874-20.128907 6.707031-7.410156-3.707031-10.414062-12.714844-6.707031-20.128907l8.230469-16.445312c-25.765625-17.320312-47.613281-39.910156-64.351562-66.09375l-9.855469 9.855469c-5.859375 5.859375-15.351563 5.859375-21.210938 0s-5.859375-15.351563 0-21.210938l16.105469-16.105469c-11.054688-24.136718-17.894531-50.511718-19.738281-78.289062h-15.761719c-8.289062 0-15-6.710938-15-15s6.710938-15 15-15h16.519531c5.976563-29.34375 29.136719-52.503906 58.480469-58.480469v-16.519531c0-8.289062 6.710938-15 15-15s15 6.710938 15 15v16.519531c22.273438 4.539063 40.695312 19.15625 51.035156 38.683594l17.253906-8.621094c7.414063-3.660156 16.4375-.71875 20.128907 6.710938 3.707031 7.410156.703125 16.421875-6.707031 20.125l-22.261719 11.125c.136719 1.835937.550781 3.589843.550781 5.457031 0 37.015625 27.023438 67.65625 62.335938 73.71875l13.734374-34.296875c3.089844-7.707031 11.792969-11.414063 19.511719-8.351563 7.691407 3.089844 11.425781 11.820313 8.351563 19.511719l-10.773438 26.898438c16.816406 4.222656 31.289063 14.085937 41.457032 27.519531h30.382812c8.289062 0 15 6.710938 15 15 0 8.292969-6.710938 15-15 15zm0 0"/></svg>