<svg height="512pt" viewBox="0 0 512 512" width="512pt" xmlns="http://www.w3.org/2000/svg"><path d="m256 0c-140.960938 0-256 115.050781-256 256 0 140.960938 115.050781 256 256 256 140.960938 0 256-115.050781 256-256 0-140.960938-115.050781-256-256-256zm0 482c-124.617188 0-226-101.382812-226-226s101.382812-226 226-226 226 101.382812 226 226-101.382812 226-226 226zm0 0"/><path d="m180.972656 196c0 8.285156-6.71875 15-15 15-8.285156 0-15-6.714844-15-15s6.714844-15 15-15c8.28125 0 15 6.714844 15 15zm0 0"/><path d="m300.972656 106c0 8.285156-6.71875 15-15 15-8.285156 0-15-6.714844-15-15s6.714844-15 15-15c8.28125 0 15 6.714844 15 15zm0 0"/><path d="m195.972656 271c0 8.285156-6.71875 15-15 15-8.285156 0-15-6.714844-15-15s6.714844-15 15-15c8.28125 0 15 6.714844 15 15zm0 0"/><path d="m330.972656 346c0 8.285156-6.71875 15-15 15-8.285156 0-15-6.714844-15-15s6.714844-15 15-15c8.28125 0 15 6.714844 15 15zm0 0"/><path d="m255.972656 331c0 8.285156-6.71875 15-15 15-8.285156 0-15-6.714844-15-15s6.714844-15 15-15c8.28125 0 15 6.714844 15 15zm0 0"/><path d="m375.960938 301c-10.179688-13.527344-24.820313-23.507812-41.71875-27.746094l10.683593-26.679687c3.078125-7.691407-.660156-16.421875-8.351562-19.5-7.691407-3.082031-16.421875.660156-19.5 8.351562l-13.800781 34.472657c-35.3125-6.066407-62.273438-36.882813-62.273438-73.898438 0-1.890625-.09375-3.757812-.230469-5.613281l21.9375-10.96875c7.410157-3.707031 10.414063-12.714844 6.707031-20.125-3.703124-7.410157-12.714843-10.414063-20.125-6.707031l-16.953124 8.476562c-10.339844-19.546875-29.050782-34.011719-51.335938-38.550781v-16.511719c0-8.285156-6.71875-15-15-15-8.285156 0-15 6.714844-15 15v16.507812c-29.34375 5.980469-52.511719 29.148438-58.492188 58.492188h-16.507812c-8.285156 0-15 6.714844-15 15s6.714844 15 15 15h15.503906c1.796875 27.480469 8.523438 53.996094 19.746094 78.535156l-15.855469 15.859375c-5.859375 5.859375-5.859375 15.355469 0 21.210938 5.855469 5.859375 15.355469 5.859375 21.210938 0l9.617187-9.613281c16.765625 26.183593 38.910156 48.757812 64.515625 65.992187l-8.152343 16.308594c-3.707032 7.410156-.703126 16.417969 6.707031 20.125 7.425781 3.710937 16.425781.6875 20.125-6.707031l7.335937-14.671876c26.113282 12.859376 54.625 20.523438 84.25 22.457032v15.503906c0 8.285156 6.714844 15 15 15 8.28125 0 15-6.714844 15-15v-16.507812c34.191406-6.96875 60-37.273438 60-73.492188 0-5.136719-.523437-10.152344-1.511718-15h16.507812c8.285156 0 15-6.714844 15-15s-6.714844-15-15-15zm-59.960938 90c-107.523438 0-195-87.476562-195-195 0-24.8125 20.1875-45 45-45s45 20.1875 45 45c0 55.164062 44.261719 105 105 105 24.8125 0 45 20.1875 45 45s-20.1875 45-45 45zm0 0"/><path d="m377.820312 197.820312c17.542969-17.546874 17.542969-46.09375 0-63.640624-17.546874-17.542969-46.09375-17.542969-63.640624 0-17.546876 17.546874-17.546876 46.09375 0 63.640624 17.546874 17.542969 46.09375 17.542969 63.640624 0zm-42.425781-42.425781c5.847657-5.847656 15.363281-5.847656 21.210938 0 5.863281 5.863281 5.863281 15.347657 0 21.210938-5.847657 5.851562-15.363281 5.851562-21.210938 0-5.863281-5.863281-5.863281-15.347657 0-21.210938zm0 0"/></svg>