<?xml version="1.0" encoding="iso-8859-1"?>
<!-- Generator: Adobe Illustrator 19.0.0, SVG Export Plug-In . SVG Version: 6.00 Build 0)  -->
<svg version="1.1" id="Layer_1" xmlns="http://www.w3.org/2000/svg" xmlns:xlink="http://www.w3.org/1999/xlink" x="0px" y="0px"
	 viewBox="0 0 512 512" style="enable-background:new 0 0 512 512;" xml:space="preserve">
<g>
	<g>
		<path d="M422.957,122.435h-19.472c-15.22-44.92-82.734-63.46-130.789-66.276V16.696C272.696,7.475,265.22,0,256,0
			s-16.696,7.475-16.696,16.696v39.463c-50.149,2.938-115.902,22.335-130.789,66.276H89.044c-9.22,0-16.696,7.475-16.696,16.696
			s7.475,16.696,16.696,16.696h23.073l16.696,33.391h-6.378c-9.22,0-16.696,7.475-16.696,16.696c0,9.22,7.475,16.696,16.696,16.696
			h42.802c24.17,28.028,40.676,79.347,40.676,128s-16.506,99.972-40.676,128h-42.802c-9.22,0-16.696,7.475-16.696,16.696
			S113.214,512,122.435,512h267.13c9.22,0,16.696-7.475,16.696-16.696s-7.475-16.696-16.696-16.696h-42.802
			c-24.17-28.028-40.676-79.347-40.676-128s16.506-99.972,40.676-128h42.802c9.22,0,16.696-7.475,16.696-16.696
			c0-9.22-7.475-16.696-16.696-16.696h-6.378l16.696-33.391h23.073c9.22,0,16.696-7.475,16.696-16.696
			S432.177,122.435,422.957,122.435z M239.304,350.609v128h-33.168C228.883,440.426,239.304,390.17,239.304,350.609
			s-10.421-89.817-33.168-128h33.168V350.609z M305.863,478.609h-33.168v-128V222.497h33.168
			c-22.746,38.183-33.168,88.55-33.168,128.111S283.117,440.426,305.863,478.609z M350.471,179.988
			c-2.847,5.693-8.568,9.229-14.934,9.229H176.463c-6.365,0-12.086-3.536-14.934-9.229l-12.08-24.162h213.102L350.471,179.988z
			 M146.928,122.435C163.467,104.553,204.777,89.044,256,89.044s92.533,15.509,109.072,33.391H146.928z"/>
	</g>
</g>
<g>
</g>
<g>
</g>
<g>
</g>
<g>
</g>
<g>
</g>
<g>
</g>
<g>
</g>
<g>
</g>
<g>
</g>
<g>
</g>
<g>
</g>
<g>
</g>
<g>
</g>
<g>
</g>
<g>
</g>
</svg>
