<?xml version="1.0" encoding="iso-8859-1"?>
<!-- Generator: Adobe Illustrator 16.0.0, SVG Export Plug-In . SVG Version: 6.00 Build 0)  -->
<!DOCTYPE svg PUBLIC "-//W3C//DTD SVG 1.1//EN" "http://www.w3.org/Graphics/SVG/1.1/DTD/svg11.dtd">
<svg version="1.1" id="Capa_1" xmlns="http://www.w3.org/2000/svg" xmlns:xlink="http://www.w3.org/1999/xlink" x="0px" y="0px"
	 width="873.5px" height="873.5px" viewBox="0 0 873.5 873.5" style="enable-background:new 0 0 873.5 873.5;" xml:space="preserve"
	>
<g>
	<g>
		<path d="M244.35,723h-52.8c-13.8,0-25,11.199-25,25v100.5c0,13.801,11.2,25,25,25h509.2c13.8,0,25-11.199,25-25V748
			c0-13.801-11.2-25-25-25h-155v-49.5h65c13.8,0,25-11.199,25-25v-12.6c0-13.801-11.2-25-25-25h-197.1c-13.801,0-25,11.199-25,25
			v12.6c0,13.801,11.199,25,25,25h65V723h-99.2c-23.7-12.5-45.7-28.301-65.3-47.199C260.25,623.9,230.55,555.1,230.55,482
			c0-73.1,29.7-141.9,83.601-193.8c23.5-22.6,50.399-40.8,79.5-54.2v-89c-6.5,2.2-12.9,4.6-19.301,7.2
			c-44,17.9-83.6,43.6-117.6,76.3c-34.1,32.8-60.9,71.1-79.7,113.7c-19.5,44.301-29.3,91.301-29.3,139.8
			c0,48.5,9.9,95.5,29.3,139.801C193.45,659.1,216.05,693.1,244.35,723z"/>
		<path d="M600.75,297.3V107.9c0-13.8-11.2-25-25-25h-9.3V25c0-13.8-11.2-25-25-25h-58.5c-13.8,0-25,11.2-25,25v57.9h-9.3
			c-13.801,0-25,11.2-25,25V136v86.2v75c0.199,0,0.5,0,0.699,0h176.4V297.3z"/>
		<path d="M424.35,424.5c1.7,0,3.4-0.2,5.101-0.5l179.6-37.301c9.3-1.899,15.9-10.1,15.9-19.6v-2.5v-17.3c0-7.101-3.7-13.3-9.3-16.9
			c-3.101-2-6.801-3.1-10.7-3.1h-4.2h-176.4c-0.199,0-0.5,0-0.699,0c-5.7,0.2-10.9,2.2-15,5.6c-5.601,4.6-9.301,11.601-9.301,19.4
			v47.2c0,4.1,1,8,2.7,11.399C406.35,419,414.85,424.5,424.35,424.5z"/>
	</g>
</g>
<g>
</g>
<g>
</g>
<g>
</g>
<g>
</g>
<g>
</g>
<g>
</g>
<g>
</g>
<g>
</g>
<g>
</g>
<g>
</g>
<g>
</g>
<g>
</g>
<g>
</g>
<g>
</g>
<g>
</g>
</svg>
