<?xml version="1.0" encoding="iso-8859-1"?>
<!-- Generator: Adobe Illustrator 18.0.0, SVG Export Plug-In . SVG Version: 6.00 Build 0)  -->
<!DOCTYPE svg PUBLIC "-//W3C//DTD SVG 1.1//EN" "http://www.w3.org/Graphics/SVG/1.1/DTD/svg11.dtd">
<svg version="1.1" id="Capa_1" xmlns="http://www.w3.org/2000/svg" xmlns:xlink="http://www.w3.org/1999/xlink" x="0px" y="0px"
	 viewBox="0 0 60 60" style="enable-background:new 0 0 60 60;" xml:space="preserve">
<g>
	<path d="M59.207,0.293c-0.391-0.391-1.023-0.391-1.414,0L54.086,4H30.803L1.534,33.511C0.867,34.177,0.5,35.063,0.5,36.006
		s0.367,1.829,1.034,2.495L22,58.967C22.666,59.633,23.552,60,24.495,60c0.942,0,1.828-0.367,2.504-1.043L55.5,29.687V5.414
		l3.707-3.707C59.598,1.316,59.598,0.684,59.207,0.293z M38.999,33.859c-0.391,0.391-1.023,0.391-1.414,0s-0.391-1.023,0-1.414
		c2.488-2.489,2.7-6.397,0.651-9.137l-8.947,8.947l0.761,6.09c0.211,1.685-0.281,3.407-1.351,4.725
		c-1.038,1.28-2.498,2.059-4.111,2.192c-0.252,0.021-0.505,0.032-0.756,0.032c-2.045,0-4.018-0.698-5.611-1.972l-1.143,1.143
		c-0.195,0.195-0.451,0.293-0.707,0.293s-0.512-0.098-0.707-0.293c-0.391-0.391-0.391-1.023,0-1.414l1.142-1.142
		c-2.824-3.53-2.605-8.709,0.665-11.979c0.391-0.391,1.023-0.391,1.414,0s0.391,1.023,0,1.414c-2.488,2.489-2.7,6.396-0.65,9.136
		l8.947-8.947l-0.761-6.09c-0.211-1.685,0.281-3.406,1.35-4.724c1.039-1.279,2.499-2.059,4.111-2.193
		c2.315-0.196,4.583,0.506,6.37,1.937l0.746-0.746c0.391-0.391,1.023-0.391,1.414,0s0.391,1.023,0,1.414l-0.749,0.749
		C42.488,25.41,42.269,30.589,38.999,33.859z M44.5,20c-2.757,0-5-2.243-5-5s2.243-5,5-5s5,2.243,5,5S47.257,20,44.5,20z"/>
	<path d="M32.049,20.519c-1.065,0.09-2.033,0.608-2.725,1.461c-0.727,0.896-1.062,2.069-0.918,3.216l0.568,4.547l7.847-7.847
		C35.458,20.876,33.767,20.378,32.049,20.519z"/>
	<path d="M27.497,34.047l-7.846,7.847c1.363,1.017,3.053,1.512,4.771,1.376c1.065-0.089,2.032-0.607,2.724-1.46
		c0.728-0.897,1.063-2.069,0.919-3.217L27.497,34.047z"/>
</g>
<g>
</g>
<g>
</g>
<g>
</g>
<g>
</g>
<g>
</g>
<g>
</g>
<g>
</g>
<g>
</g>
<g>
</g>
<g>
</g>
<g>
</g>
<g>
</g>
<g>
</g>
<g>
</g>
<g>
</g>
</svg>
