<svg height="512pt" viewBox="0 -16 512 512" width="512pt" xmlns="http://www.w3.org/2000/svg"><path d="m301 45c0-24.8125-20.1875-45-45-45s-45 20.1875-45 45v15h-211v60h512v-60h-211zm0 0"/><path d="m166 210c-16.539062 0-30 13.460938-30 30s13.460938 30 30 30 30-13.460938 30-30-13.460938-30-30-30zm0 0"/><path d="m91 375v15h60v-60h-15c-24.8125 0-45 20.1875-45 45zm0 0"/><path d="m196 330h-15v60h60v-15c0-24.8125-20.1875-45-45-45zm0 0"/><path d="m0 480h512v-330h-512zm301-240h151v30h-151zm0 60h151v30h-151zm0 60h151v30h-151zm-240 15c0-41.351562 33.648438-75 75-75h30c-33.089844 0-60-26.910156-60-60s26.910156-60 60-60 60 26.910156 60 60-26.910156 60-60 60h30c41.351562 0 75 33.648438 75 75v45h-210zm0 0"/></svg>