<?xml version="1.0" encoding="iso-8859-1"?>
<!-- Generator: Adobe Illustrator 18.0.0, SVG Export Plug-In . SVG Version: 6.00 Build 0)  -->
<!DOCTYPE svg PUBLIC "-//W3C//DTD SVG 1.1//EN" "http://www.w3.org/Graphics/SVG/1.1/DTD/svg11.dtd">
<svg version="1.1" id="Capa_1" xmlns="http://www.w3.org/2000/svg" xmlns:xlink="http://www.w3.org/1999/xlink" x="0px" y="0px"
	 viewBox="0 0 60 60" style="enable-background:new 0 0 60 60;" xml:space="preserve">
<g>
	<rect x="57" y="15.492" width="3" height="33"/>
	<path d="M9,25.682c-0.494,0.176-0.944,0.464-1.292,0.875c-0.256,0.303-0.374,0.694-0.331,1.104c0.046,0.439,0.272,0.848,0.622,1.12
		L9,29.559V25.682z"/>
	<path d="M12.623,35.545c-0.046-0.438-0.272-0.847-0.622-1.118L11,33.648v3.878c0.494-0.176,0.944-0.464,1.292-0.875
		C12.548,36.348,12.666,35.955,12.623,35.545z"/>
	<path d="M0,48.492h45v-33H0V48.492z M31.756,39.985c-0.344-0.615-1.86,0.565-2.267,0.717c-0.571,0.213-1.081,0.295-1.688,0.226
		c-1.169-0.134-2.156-0.89-2.669-1.931c-0.568-1.152,1.156-2.166,1.727-1.009c0.955,1.935,2.571,0.28,3.936-0.106
		c1.046-0.296,2.169,0.165,2.688,1.095C34.113,40.103,32.385,41.111,31.756,39.985z M25,28.492c-0.552,0-1-0.447-1-1s0.448-1,1-1h7
		c0.552,0,1,0.447,1,1s-0.448,1-1,1H25z M39,28.492h-3c-0.552,0-1-0.447-1-1s0.448-1,1-1h3c0.552,0,1,0.447,1,1
		S39.552,28.492,39,28.492z M32,22.492h7c0.552,0,1,0.447,1,1s-0.448,1-1,1h-7c-0.552,0-1-0.447-1-1S31.448,22.492,32,22.492z
		 M27.29,22.782c0.37-0.37,1.04-0.37,1.42,0c0.18,0.189,0.29,0.45,0.29,0.71s-0.11,0.52-0.29,0.71c-0.19,0.18-0.45,0.29-0.71,0.29
		c-0.27,0-0.52-0.11-0.71-0.29c-0.18-0.19-0.29-0.45-0.29-0.71S27.11,22.972,27.29,22.782z M21,22.492h3c0.552,0,1,0.447,1,1
		s-0.448,1-1,1h-3c-0.552,0-1-0.447-1-1S20.448,22.492,21,22.492z M20.29,26.782c0.37-0.37,1.04-0.37,1.42,0
		c0.18,0.189,0.29,0.439,0.29,0.71c0,0.26-0.11,0.52-0.29,0.71c-0.19,0.18-0.45,0.29-0.71,0.29c-0.27,0-0.52-0.11-0.71-0.29
		c-0.18-0.19-0.29-0.45-0.29-0.71C20,27.222,20.11,26.972,20.29,26.782z M19.707,38.434c0.414,0.347,0.828,0.693,1.241,1.04
		c0.268-2.261,1.005-4.441,3.196-5.582c1.142-0.595,2.154,1.131,1.009,1.727c-2.171,1.13-2.275,3.705-2.348,5.873
		c-0.031,0.918-1.045,1.262-1.707,0.707c-0.935-0.784-1.871-1.567-2.806-2.351C17.303,39.019,18.726,37.612,19.707,38.434z
		 M6,33.715c0.552,0,1,0.447,1,1c0,1.302,0.839,2.402,2,2.816v-5.438l-2.229-1.734c-0.777-0.604-1.282-1.513-1.383-2.491
		c-0.1-0.956,0.183-1.881,0.794-2.603C6.915,24.397,7.909,23.819,9,23.597v-1.105c0-0.553,0.448-1,1-1s1,0.447,1,1v1.101
		c2.279,0.465,4,2.484,4,4.899c0,0.553-0.448,1-1,1s-1-0.447-1-1c0-1.302-0.839-2.402-2-2.816v5.438l2.229,1.734
		c0.777,0.604,1.281,1.511,1.383,2.488c0.1,0.957-0.182,1.882-0.793,2.605C13.085,38.81,12.091,39.388,11,39.61v0.882
		c0,0.553-0.448,1-1,1s-1-0.447-1-1v-0.878c-2.279-0.465-4-2.484-4-4.899C5,34.162,5.448,33.715,6,33.715z"/>
	<path d="M53.015,0.492h-4.03C47.339,0.492,46,1.831,46,3.478v4.015h10V3.478C56,1.831,54.661,0.492,53.015,0.492z"/>
	<rect x="46" y="9.492" width="10" height="2"/>
	<rect x="46" y="13.492" width="10" height="36"/>
	<polygon points="51,59.508 55.58,51.492 46.42,51.492 	"/>
</g>
<g>
</g>
<g>
</g>
<g>
</g>
<g>
</g>
<g>
</g>
<g>
</g>
<g>
</g>
<g>
</g>
<g>
</g>
<g>
</g>
<g>
</g>
<g>
</g>
<g>
</g>
<g>
</g>
<g>
</g>
</svg>
