<?xml version="1.0" encoding="iso-8859-1"?>
<!-- Generator: Adobe Illustrator 19.0.0, SVG Export Plug-In . SVG Version: 6.00 Build 0)  -->
<svg xmlns="http://www.w3.org/2000/svg" xmlns:xlink="http://www.w3.org/1999/xlink" version="1.1" id="Layer_1" x="0px" y="0px" viewBox="0 0 512 512" style="enable-background:new 0 0 512 512;" xml:space="preserve" width="512" height="512">
<g>
	<path d="M242,182.5c0-45.49,37.009-82.5,82.5-82.5h5.116C318.608,86.293,312,68.908,312,50c0-5.128,0.504-10.138,1.431-15H0v290   h242.668c-0.432-2.605-0.668-5.275-0.668-8L242,182.5z M75,165v30H45v-30H75z M45,135v-30h30v30H45z M75,225v30H45v-30H75z    M197,165v30h-92v-30H197z M105,135v-30h92v30H105z M197,225v30h-92v-30H197z"/>
	<path d="M454.384,100h5.116c19.927,0,38.226,7.103,52.5,18.908V35h-41.43c0.926,4.862,1.431,9.872,1.431,15   C472,68.908,465.393,86.293,454.384,100z"/>
	<path d="M444.5,182.5h30V317c0,10.339,8.411,18.75,18.75,18.75S512,327.339,512,317V182.5c0-28.948-23.551-52.5-52.5-52.5H407v114   h-30V130H324.5c-28.949,0-52.5,23.552-52.5,52.5l0,134.5c0,10.339,8.411,18.75,18.75,18.75s18.75-8.411,18.75-18.75V182.5h30V512   H377V316.5h30V512h37.5V182.5z"/>
	<path d="M442,50c0-27.57-22.43-50-50-50s-50,22.43-50,50s22.43,50,50,50S442,77.57,442,50z"/>
</g>















</svg>
