<?xml version="1.0" encoding="iso-8859-1"?>
<!-- Generator: Adobe Illustrator 19.0.0, SVG Export Plug-In . SVG Version: 6.00 Build 0)  -->
<svg version="1.1" id="Capa_1" xmlns="http://www.w3.org/2000/svg" xmlns:xlink="http://www.w3.org/1999/xlink" x="0px" y="0px"
	 viewBox="0 0 512 512" style="enable-background:new 0 0 512 512;" xml:space="preserve">
<g>
	<g>
		<path d="M436.003,241h-5.728l15-30H66.731l15,30h-5.728c-8.291,0-15,6.709-15,15s6.709,15,15,15h30h300h30c8.291,0,15-6.709,15-15
			C451.003,247.709,444.294,241,436.003,241z"/>
	</g>
</g>
<g>
	<g>
		<path d="M215.195,301H135.2l27.61,82.822c12.07,36.226,18.193,74.975,18.193,113.178c0,8.291,6.709,15,15,15h45V378.417
			L215.195,301z"/>
	</g>
</g>
<g>
	<g>
		<path d="M296.812,301l-25.809,77.417V512h45c8.291,0,15-6.709,15-15c0-38.203,6.123-76.952,18.193-113.178L376.807,301H296.812z"
			/>
	</g>
</g>
<g>
	<g>
		<path d="M452.022,164.405C414.378,136.301,368.974,121,321.145,121H190.862c-47.83,0-93.233,15.301-130.878,43.404
			c-3.182,2.375-4.484,6.522-3.231,10.29S61.532,181,65.503,181c39.067,0,137.206,0,381.001,0c3.968,0,7.49-2.541,8.742-6.306
			C456.498,170.929,455.202,166.779,452.022,164.405z"/>
	</g>
</g>
<g>
	<g>
		<path d="M316.003,61h-45V15c0-8.291-6.709-15-15-15c-8.291,0-15,6.709-15,15v46h-45c-8.291,0-15,6.709-15,15v15h150V76
			C331.003,67.709,324.294,61,316.003,61z"/>
	</g>
</g>
<g>
</g>
<g>
</g>
<g>
</g>
<g>
</g>
<g>
</g>
<g>
</g>
<g>
</g>
<g>
</g>
<g>
</g>
<g>
</g>
<g>
</g>
<g>
</g>
<g>
</g>
<g>
</g>
<g>
</g>
</svg>
