<?xml version="1.0" encoding="iso-8859-1"?>
<!-- Generator: Adobe Illustrator 18.0.0, SVG Export Plug-In . SVG Version: 6.00 Build 0)  -->
<!DOCTYPE svg PUBLIC "-//W3C//DTD SVG 1.1//EN" "http://www.w3.org/Graphics/SVG/1.1/DTD/svg11.dtd">
<svg version="1.1" id="Capa_1" xmlns="http://www.w3.org/2000/svg" xmlns:xlink="http://www.w3.org/1999/xlink" x="0px" y="0px"
	 viewBox="0 0 46.382 46.382" style="enable-background:new 0 0 46.382 46.382;" xml:space="preserve">
<path d="M38.654,15.571H7.728C7.728,6.971,14.651,0,23.191,0S38.654,6.971,38.654,15.571z M43.52,43.382H2.861
	c-0.828,0-1.5,0.671-1.5,1.5c0,0.829,0.672,1.5,1.5,1.5H43.52c0.828,0,1.5-0.671,1.5-1.5C45.02,44.053,44.349,43.382,43.52,43.382z
	 M9.147,39.345V19.42H6.574c-0.828,0-1.5-0.671-1.5-1.5c0-0.829,0.672-1.5,1.5-1.5h33.233c0.828,0,1.5,0.671,1.5,1.5
	c0,0.829-0.672,1.5-1.5,1.5h-2.573v19.925h2.573c0.828,0,1.5,0.671,1.5,1.5c0,0.829-0.672,1.5-1.5,1.5H6.574
	c-0.828,0-1.5-0.671-1.5-1.5c0-0.829,0.672-1.5,1.5-1.5H9.147z M25.872,39.345V19.42H20.51v19.925H25.872z M34.234,19.42h-5.362
	v19.925h5.362V19.42z M12.147,39.345h5.362V19.42h-5.362V39.345z"/>
<g>
</g>
<g>
</g>
<g>
</g>
<g>
</g>
<g>
</g>
<g>
</g>
<g>
</g>
<g>
</g>
<g>
</g>
<g>
</g>
<g>
</g>
<g>
</g>
<g>
</g>
<g>
</g>
<g>
</g>
</svg>
