<?xml version="1.0" encoding="iso-8859-1"?>
<!-- Generator: Adobe Illustrator 18.0.0, SVG Export Plug-In . SVG Version: 6.00 Build 0)  -->
<!DOCTYPE svg PUBLIC "-//W3C//DTD SVG 1.1//EN" "http://www.w3.org/Graphics/SVG/1.1/DTD/svg11.dtd">
<svg version="1.1" id="Capa_1" xmlns="http://www.w3.org/2000/svg" xmlns:xlink="http://www.w3.org/1999/xlink" x="0px" y="0px"
	 viewBox="0 0 212.07 212.07" style="enable-background:new 0 0 212.07 212.07;" xml:space="preserve">
<g>
	<path d="M106.034,76.989c-33.491,0-60.738,27.247-60.738,60.737c0,33.492,27.247,60.74,60.738,60.74
		c33.492,0,60.739-27.248,60.739-60.74C166.773,104.236,139.526,76.989,106.034,76.989z M106.034,183.467
		c-25.22,0-45.738-20.518-45.738-45.74c0-25.22,20.519-45.737,45.738-45.737c25.221,0,45.739,20.518,45.739,45.737
		C151.773,162.948,131.255,183.467,106.034,183.467z"/>
	<path d="M73.679,72.087c16.124,0,29.241-13.117,29.241-29.24c0-16.125-13.117-29.243-29.241-29.243
		c-16.124,0-29.242,13.118-29.242,29.243C44.437,58.97,57.555,72.087,73.679,72.087z M73.679,28.604
		c7.853,0,14.241,6.39,14.241,14.243c0,7.853-6.389,14.24-14.241,14.24c-7.854,0-14.242-6.388-14.242-14.24
		C59.437,34.993,65.825,28.604,73.679,28.604z"/>
	<path d="M138.396,72.087c16.124,0,29.241-13.117,29.241-29.24c0-16.125-13.117-29.243-29.241-29.243
		c-16.124,0-29.241,13.118-29.241,29.243C109.154,58.97,122.271,72.087,138.396,72.087z M138.396,28.604
		c7.852,0,14.241,6.39,14.241,14.243c0,7.853-6.389,14.24-14.241,14.24c-7.853,0-14.241-6.388-14.241-14.24
		C124.154,34.993,130.543,28.604,138.396,28.604z"/>
	<path d="M54.136,88.013c0-14.926-12.142-27.068-27.065-27.068C12.144,60.944,0,73.087,0,88.013
		c0,14.924,12.144,27.065,27.07,27.065C41.994,115.078,54.136,102.937,54.136,88.013z M27.07,100.078
		c-6.655,0-12.07-5.412-12.07-12.065c0-6.654,5.415-12.068,12.07-12.068c6.653,0,12.065,5.414,12.065,12.068
		C39.136,94.666,33.724,100.078,27.07,100.078z"/>
	<path d="M185,60.944c-14.925,0-27.066,12.143-27.066,27.068c0,14.924,12.142,27.065,27.066,27.065
		c14.927,0,27.07-12.142,27.07-27.065C212.07,73.087,199.927,60.944,185,60.944z M185,100.078c-6.653,0-12.066-5.412-12.066-12.065
		c0-6.654,5.413-12.068,12.066-12.068c6.655,0,12.07,5.414,12.07,12.068C197.07,94.666,191.655,100.078,185,100.078z"/>
	<path d="M127.188,128.178h-11.604v-11.603c0-1.381-1.119-2.5-2.5-2.5H98.983c-1.381,0-2.5,1.119-2.5,2.5v11.603H84.882
		c-1.381,0-2.5,1.119-2.5,2.5v14.102c0,1.381,1.119,2.5,2.5,2.5h11.602v11.602c0,1.381,1.119,2.5,2.5,2.5h14.102
		c1.381,0,2.5-1.119,2.5-2.5v-11.602h11.604c1.381,0,2.5-1.119,2.5-2.5v-14.102C129.689,129.297,128.569,128.178,127.188,128.178z"
		/>
</g>
<g>
</g>
<g>
</g>
<g>
</g>
<g>
</g>
<g>
</g>
<g>
</g>
<g>
</g>
<g>
</g>
<g>
</g>
<g>
</g>
<g>
</g>
<g>
</g>
<g>
</g>
<g>
</g>
<g>
</g>
</svg>
