<?xml version="1.0" encoding="iso-8859-1"?>
<!-- Generator: Adobe Illustrator 18.0.0, SVG Export Plug-In . SVG Version: 6.00 Build 0)  -->
<!DOCTYPE svg PUBLIC "-//W3C//DTD SVG 1.1//EN" "http://www.w3.org/Graphics/SVG/1.1/DTD/svg11.dtd">
<svg version="1.1" id="Capa_1" xmlns="http://www.w3.org/2000/svg" xmlns:xlink="http://www.w3.org/1999/xlink" x="0px" y="0px"
	 viewBox="0 0 392.98 392.98" style="enable-background:new 0 0 392.98 392.98;" xml:space="preserve">
<g>
	<path d="M208.847,243.066C209.029,243.066,208.668,243.05,208.847,243.066L208.847,243.066z"/>
	<path d="M207.028,243.066C207.211,243.05,206.842,243.066,207.028,243.066L207.028,243.066z"/>
	<path d="M392.595,324.371c-0.592-1.569-1.814-2.819-3.369-3.447l-30.349-12.246c-1.683-9.748-9.124-17.552-18.682-19.768
		l-1.666-19.2c-0.206-2.377-1.801-4.406-4.063-5.167c-2.26-0.762-4.758-0.111-6.36,1.655l-8.72,9.619l-5.17-18.097
		c-0.713-2.494-2.947-4.247-5.539-4.347c-2.603-0.124-4.954,1.477-5.856,3.909l-9.809,26.453c-2.476-3.039-5.128-5.963-7.953-8.76
		c-20.229-20.028-47.563-31.323-76.213-31.91h-1.818c-15.097,0.319-30.008,3.716-43.04,9.537v-42.147h45.644
		c7.568,0,14.447-2.989,19.534-7.842c0.153-0.125,67.362-67.318,67.362-67.318c11.047-11.048,11.044-29.025-0.007-40.075
		c-5.348-5.348-12.461-8.292-20.027-8.292c-7.569,0-14.685,2.947-20.035,8.299l-58.564,58.563H38.117
		C17.1,153.791,0,170.891,0,191.908v161.518c0,3.313,2.687,6,6,6h56.909c-0.481,1.57-0.744,3.235-0.744,4.961
		c0,9.354,7.609,16.963,16.962,16.963h92.186c3.313,0,6-2.686,6-6c0-3.313-2.687-6-6-6H79.127c-2.736,0-4.962-2.227-4.962-4.963
		c0-2.735,2.226-4.961,4.962-4.961c0,0,265.313,0,265.959,0c19.825-0.002,37.797-11.44,47.255-30.241
		C393.094,327.686,393.186,325.94,392.595,324.371z M196.267,313.327c-3.314,0-6-2.686-6-6c0-9.002-7.326-16.326-16.332-16.326
		L61.44,290.999c-3.313,0-6-2.686-6-6v-72.303c0-3.313,2.687-6,6-6s6,2.687,6,6v66.303l106.494,0.002
		c15.622,0,28.332,12.707,28.332,28.326C202.267,310.641,199.58,313.327,196.267,313.327z"/>
</g>
<g>
	<path d="M60.893,53.428c2.172-14.046,14.344-24.834,28.988-24.834c14.645,0,26.816,10.788,28.988,24.834h10.91
		C119.67,28.926,95.534,11.631,67.426,11.631S15.183,28.926,5.074,53.428H60.893z"/>
	<path d="M72.547,57.928c0,9.558,7.776,17.334,17.334,17.334s17.334-7.776,17.334-17.334s-7.776-17.334-17.334-17.334
		S72.547,48.37,72.547,57.928z"/>
	<path d="M118.239,65.428c-3.322,12.553-14.775,21.834-28.358,21.834S64.845,77.98,61.522,65.428H1.386
		C0.479,69.831,0,74.39,0,79.058c0,37.179,30.247,67.426,67.426,67.426c37.18,0,67.428-30.247,67.428-67.426
		c0-4.668-0.479-9.227-1.386-13.63H118.239z"/>
</g>
<g>
</g>
<g>
</g>
<g>
</g>
<g>
</g>
<g>
</g>
<g>
</g>
<g>
</g>
<g>
</g>
<g>
</g>
<g>
</g>
<g>
</g>
<g>
</g>
<g>
</g>
<g>
</g>
<g>
</g>
</svg>
