<?xml version="1.0" encoding="iso-8859-1"?>
<!-- Generator: Adobe Illustrator 18.0.0, SVG Export Plug-In . SVG Version: 6.00 Build 0)  -->
<!DOCTYPE svg PUBLIC "-//W3C//DTD SVG 1.1//EN" "http://www.w3.org/Graphics/SVG/1.1/DTD/svg11.dtd">
<svg version="1.1" id="Capa_1" xmlns="http://www.w3.org/2000/svg" xmlns:xlink="http://www.w3.org/1999/xlink" x="0px" y="0px"
	 viewBox="0 0 493.905 493.905" style="enable-background:new 0 0 493.905 493.905;" xml:space="preserve">
<g id="XMLID_110_">
	<path id="XMLID_119_" d="M82.184,188.791c21.668,4.085,42.533-10.155,46.625-31.817c4.076-21.661-10.162-42.516-31.83-46.6
		c-21.672-4.085-42.519,10.164-46.595,31.816C46.291,163.851,60.549,184.706,82.184,188.791z"/>
	<path id="XMLID_118_" d="M479.147,346.316c-18.232-92.877-12.629-63.785-24.387-126.186c-3.256-17.326-19.941-28.688-37.268-25.459
		c-15.027,2.825-25.561,15.764-25.963,30.449l-24.369,24.713l-36.934-11.732c-1.744-0.546-3.488-0.561-5.217-0.561l4.277-9.317
		c0.453-0.974,0.486-2.088,0.119-3.095c-0.371-1.007-1.126-1.828-2.115-2.271l-23.865-10.936c-2.029-0.932-4.428-0.043-5.367,1.995
		l-10.938,23.866c-0.451,0.974-0.486,2.088-0.116,3.095c0.368,1.007,1.124,1.827,2.114,2.272l19.254,8.823
		c-1.209,8.185,3.32,16.284,11.453,18.868l46.98,14.919c1.711,0.544,3.455,0.804,5.199,0.804c4.529,0,8.956-1.793,12.227-5.115
		l0.772-0.787l-8.001,49.879l-25.692,13.587c-8.639,4.569-13.068,14.448-10.719,23.942c2.365,9.492,10.885,16.159,20.664,16.159
		h105.195c11.756,0,21.282-9.526,21.282-21.284C487.733,356.044,484.246,350.198,479.147,346.316z"/>
	<path id="XMLID_117_" d="M405.551,188.791c21.635-4.085,35.891-24.94,31.799-46.601c-4.076-21.652-24.924-35.901-46.594-31.816
		c-21.668,4.084-35.907,24.938-31.832,46.6C363.018,178.636,383.881,192.876,405.551,188.791z"/>
	<path id="XMLID_116_" d="M492.882,154.274c-1.104-1.172-2.868-1.51-4.325-0.814c-14.878,6.986-25.41-3.873-32.154-3.873
		c-7.915,0-14.34,6.423-14.34,14.339c0,7.925,6.425,14.35,14.34,14.35c20.932,0,32.102-10.483,37.051-19.632
		C494.225,157.218,493.99,155.457,492.882,154.274z"/>
	<path id="XMLID_115_" d="M237.611,346.785h-26.268c-2.229,0-4.041,1.812-4.041,4.05v26.249c0,2.238,1.813,4.05,4.041,4.05h26.268
		c2.23,0,4.043-1.812,4.043-4.05v-26.249C241.654,348.597,239.842,346.785,237.611,346.785z"/>
	<path id="XMLID_114_" d="M286.987,346.785h-26.265c-2.228,0-4.042,1.812-4.042,4.05v26.249c0,2.238,1.813,4.05,4.042,4.05h26.265
		c2.231,0,4.043-1.812,4.043-4.05v-26.249C291.03,348.597,289.219,346.785,286.987,346.785z"/>
	<path id="XMLID_113_" d="M178.807,284.14c2.031,0.932,4.429,0.043,5.367-1.996l10.936-23.865c0.453-0.975,0.486-2.088,0.119-3.096
		c-0.369-1.006-1.125-1.826-2.113-2.271l-23.867-10.935c-2.029-0.931-4.427-0.043-5.367,1.996l-6.574,14.323l-48.605-9.16
		l-13.737-13.3l0.737-3.882c3.271-17.325-8.134-34.022-25.459-37.283c-17.275-3.229-33.998,8.133-37.27,25.459
		c-1.155,6.121-17.071,87.65-16.805,93.873c-0.738,8.436,5.903,21.855,18.533,27.658H21.283C9.527,341.661,0,351.187,0,362.945
		s9.527,21.284,21.283,21.284h105.195c9.779,0,18.299-6.667,20.664-16.159c2.348-9.494-2.08-19.373-10.719-23.942L80.17,314.399
		l7.18-38.107l1.14,1.108c2.415,2.338,5.47,3.915,8.773,4.544c2.651,0.495,57.378,11.011,60.078,11.011
		c7.162,0,13.4-4.629,15.865-11.38L178.807,284.14z"/>
	<path id="XMLID_112_" d="M245.477,315.849h-67.408c-2.229,0-4.04,1.811-4.04,4.051v12.462c0,2.237,1.811,4.05,4.04,4.05h67.408
		c2.23,0,4.043-1.813,4.043-4.05V319.9C249.52,317.66,247.707,315.849,245.477,315.849z"/>
	<path id="XMLID_111_" d="M283.566,305.283c0.502,0,0.975-0.335,1.123-0.823c0.15-0.494-0.016-1.03-0.434-1.332l-32.37-23.011
		c-1.408-0.998-3.287-0.998-4.696,0l-32.37,23.011c-0.437,0.302-0.605,0.838-0.454,1.332c0.151,0.488,0.622,0.823,1.123,0.823
		H283.566z"/>
</g>
<g>
</g>
<g>
</g>
<g>
</g>
<g>
</g>
<g>
</g>
<g>
</g>
<g>
</g>
<g>
</g>
<g>
</g>
<g>
</g>
<g>
</g>
<g>
</g>
<g>
</g>
<g>
</g>
<g>
</g>
</svg>
