<?xml version="1.0" encoding="iso-8859-1"?>
<!-- Generator: Adobe Illustrator 16.0.0, SVG Export Plug-In . SVG Version: 6.00 Build 0)  -->
<!DOCTYPE svg PUBLIC "-//W3C//DTD SVG 1.1//EN" "http://www.w3.org/Graphics/SVG/1.1/DTD/svg11.dtd">
<svg version="1.1" id="Capa_1" xmlns="http://www.w3.org/2000/svg" xmlns:xlink="http://www.w3.org/1999/xlink" x="0px" y="0px"
	 width="560.489px" height="560.489px" viewBox="0 0 560.489 560.489" style="enable-background:new 0 0 560.489 560.489;"
	 xml:space="preserve">
<g>
	<g>
		<circle cx="100.212" cy="131.325" r="28.171"/>
		<circle cx="42.253" cy="166.893" r="15.462"/>
		<path d="M383.128,317.44c0-21.812-5.226-56.347-43.471-63.466c-7.583-1.745-14.019-1.463-16.964-1.214
			c-0.832,0.071-1.497,0.836-1.497,1.673v24.853c0,0.836-0.65,1.334-1.468,1.143c-1.63-0.368-3.112-0.569-4.81-0.569
			c-12.034,0-21.774,9.639-21.774,21.668c0,3.299,0.751,6.426,2.062,9.156c0.358,0.75,0.033,1.334-0.804,1.334h-95.481
			c-0.837,0-1.774-0.622-2.099-1.392l-13.086-34.999c3.433-0.521,6.666-2.348,8.85-5.394c4.289-5.986,2.917-14.315-3.069-18.608
			l-6.603-4.733c-0.555-0.583-1.167-1.128-1.85-1.611l-31.375-22.161l-21.563-43.93c-2.195-4.709-6.775-7.482-11.633-7.674
			c-0.105-0.019-0.229-0.072-0.315-0.072H74.881c-3.275,0-5.814,2.677-5.632,5.948l-1.353,26.225
			c-2.305-10.461-11.619-18.298-22.773-18.298c-9.745,0-18.083,5.977-21.578,14.458l-2.261-31.838
			c-0.32-4.485-4.241-7.851-8.692-7.54c-4.485,0.32-7.86,4.212-7.54,8.697l3.792,53.344c0.206,4.007,3.466,33.445,53.201,37.724
			l-41.372,78.795c-1.525,2.902-0.086,5.273,3.189,5.273h26.813v24.738L2.512,436.111c-4.312,6.015-2.936,14.392,3.084,18.709
			c2.367,1.697,5.097,2.51,7.798,2.51c4.174,0,8.291-1.941,10.906-5.594l50.648-70.634c1.63-2.275,2.51-5.011,2.51-7.812v-29.046
			h6.56l33.822,103.834c1.846,5.661,7.095,9.257,12.747,9.257c1.377,0,2.778-0.21,4.155-0.665c7.042-2.29,10.887-9.858,8.597-16.896
			l-31.116-95.529h20.851c3.275,0,4.949-2.481,3.71-5.518l-32.857-80.588c-1.238-3.036-1.128-7.956,0.244-10.93l13.268-28.826
			l9.448,19.312c0.99,2.123,2.515,3.949,4.432,5.298l23.667,16.715l13.804,9.893c5.393,14.42,18.977,49.921,18.977,49.921
			c0.383,0.741,0.541,2.013,0.507,2.845c-0.187,5.135,2.969,13.33,4.289,16.515c5.776,16.892,17.944,37.159,40.698,49.844
			c-0.014,0.043-0.01,0.091-0.029,0.134l-2.649,6.135c-0.139,0.32-0.401,0.607-0.708,0.847
			c-11.857,0.143-21.429,9.792-21.429,21.688c0,11.986,9.715,21.702,21.702,21.702c11.987,0,21.702-9.716,21.702-21.702
			c0-4.978-1.692-9.548-4.513-13.211c0.028-0.196,0.005-0.416,0.076-0.583l3.113-7.248c0.057-0.135,0.148-0.239,0.239-0.35
			c9.887,3.046,21.195,4.844,34.181,4.844c16.237,0,29.931-2.572,41.486-6.823l3.936,9.161c0.282,0.66,0.191,1.578-0.081,2.3
			c-2.252,3.419-3.572,7.512-3.572,11.91c0,11.986,9.716,21.702,21.702,21.702s21.702-9.716,21.702-21.702
			c0-9.204-5.737-17.05-13.827-20.206c-2.549-1.152-5.364-1.807-8.344-1.807c-0.052,0-0.114,0-0.167,0.005
			c-0.096,0-0.436-0.617-0.765-1.387l-3.562-8.301C373.905,366.635,383.128,334.026,383.128,317.44z"/>
		<path d="M550.214,404.994c9.911,0,11.47-4.986,9.576-9.213c-0.487-1.09-34.664-76.548-35.232-77.733
			c-0.56-1.167-1.583-4.284-7.287-4.284c-3.667,0-6.741,2.28-7.636,5.637c-0.243,0.908-1.014,1.679-1.95,1.679h-24.638
			c-0.938,0-2.156-0.612-2.73-1.349c-0.234-0.297-1.319-4.953-5.986-4.953c0,0-12.292,0-13.731,0c-5.853,0-8.846,2.027-10.165,7.812
			l-14.425,48.917c-0.244,0.908-1.147,1.506-2.085,1.435c0,0-8.468,0-10.04,0c-5.456,0-9.696,3.93-9.696,9.385
			c0,0.359-1.028,15.621-1.038,19.437c0,0.937-0.282,2.409-0.56,3.309c-0.755,2.448-1.166,5.049-1.166,7.745
			c0,14.521,11.771,26.292,26.292,26.292s26.292-12.13,26.292-26.65c0-2.224-0.277-3.973-0.799-6.431
			c-0.196-0.918,0.325-1.659,1.177-1.659c0.851,0,1.859,0.688,2.261,1.535c0,0,11.069,23.538,11.079,23.581
			c0.009,0.043,0.411,0.736,1.047,1.43c1.697,1.854,4.111,3.017,6.799,3.017c5.125,0,9.28-4.06,9.28-9.185
			c0-0.454-0.033-0.87-0.101-1.281c-0.109-0.703-7.851-17.562-7.851-17.562c-0.401-0.847,0.028-1.535,0.971-1.535h12.292
			c0.938,0,1.545,0.746,1.354,1.664c-0.482,2.353-0.741,3.844-0.741,5.909c0,13.479,10.925,24.581,24.398,24.581
			s24.399-10.835,24.399-24.309c0-1.869-0.211-3.667-0.612-5.402C548.751,405.889,549.276,404.994,550.214,404.994z
			 M518.294,348.312c-20.124,0-33.693,25.79-43.356,25.79c0,0-2.041,0.105-2.83-0.033c-0.789-0.144-1.187-0.976-0.928-1.879
			l9.797-33.312c0.248-0.903,1.181-1.645,2.118-1.645h31.465c0.938,0,1.922,0.545,2.195,1.22l0.497,1.219l2.204,6.799
			C519.743,347.356,519.207,348.098,518.294,348.312z"/>
		<circle cx="469.047" cy="286.267" r="23.031"/>
	</g>
</g>
<g>
</g>
<g>
</g>
<g>
</g>
<g>
</g>
<g>
</g>
<g>
</g>
<g>
</g>
<g>
</g>
<g>
</g>
<g>
</g>
<g>
</g>
<g>
</g>
<g>
</g>
<g>
</g>
<g>
</g>
</svg>
