<?xml version="1.0" encoding="iso-8859-1"?>
<!-- Generator: Adobe Illustrator 19.0.0, SVG Export Plug-In . SVG Version: 6.00 Build 0)  -->
<svg version="1.1" id="Layer_1" xmlns="http://www.w3.org/2000/svg" xmlns:xlink="http://www.w3.org/1999/xlink" x="0px" y="0px"
	 viewBox="0 0 512.003 512.003" style="enable-background:new 0 0 512.003 512.003;" xml:space="preserve">
<g>
	<g>
		<path d="M262.092,433.569l-12.256-84.636l-34.179,86.371l0.708,4.886c1.83,12.631,13.552,21.383,26.174,19.553
			C255.167,457.915,263.922,446.196,262.092,433.569z"/>
	</g>
</g>
<g>
	<g>
		<circle cx="81.299" cy="94.282" r="42.494"/>
	</g>
</g>
<g>
	<g>
		<path d="M239.126,291.34c-4.304-6.312-11.45-10.087-19.086-10.087c-0.022,0-0.046,0-0.068,0
			c-32.006,0.093-15.664-0.363-74.175,2.26c-7.341,0.329-12.533,2.503-19.109-0.589c-5.078-2.386-8.975-7.856-11.546-13.278
			c-10.883-21.856-31.849-68.243-31.849-68.243l45.67,56.822c3.715,4.743,9.549,7.645,16.004,7.376c0.009,0,0.018-0.001,0.027-0.001
			l66.554-2.983c10.413-0.467,18.852-9.317,18.37-20.094c-0.477-10.624-9.468-18.853-20.094-18.371l-56.802,2.545l-39.72-49.418
			l27.502,21.055l-2.056-17.701c-0.993-8.541-5.355-16.332-12.119-21.64c-6.764-5.309-15.368-7.695-23.9-6.63L73.3,156.035
			c-8.539,1.067-16.297,5.503-21.548,12.321s-7.557,15.453-6.406,23.98l14.623,108.36c1.147,8.5,5.633,16.192,12.466,21.375
			c1.876,1.424,3.891,2.617,5.998,3.587H59.051L31.576,185.89c-1.697-8.636-10.079-14.258-18.71-12.564
			c-8.637,1.697-14.261,10.075-12.564,18.711l30.004,152.635c1.469,7.474,8.021,12.863,15.637,12.863h2.868l-34.027,88.231
			c-2.111,5.475,0.615,11.624,6.089,13.735c5.46,2.109,11.62-0.605,13.735-6.089l36.976-95.878h63.671l8.045,20.862l8.255-20.862
			l11.836-29.911l22.62-0.066L146.115,428.38c-4.695,11.863,1.117,25.287,12.981,29.981c11.873,4.697,25.291-1.124,29.981-12.982
			l52.442-132.525C244.34,305.73,243.443,297.67,239.126,291.34z"/>
	</g>
</g>
<g>
	<g>
		<path d="M481.167,204.978c-4.019-4.002-9.471-6.23-15.144-6.189l-19.545,0.14c-1.466,0.011-2.913,0.179-4.325,0.484
			l-35.339-27.952l-7.183-61.74c-0.81-6.963-7.104-11.946-14.07-11.138c-6.96,0.81-11.947,7.108-11.137,14.069l7.793,66.963
			c0.389,3.345,2.092,6.397,4.732,8.487l38.504,30.456c-0.113,1.491-0.119-1.415,0.495,37.578
			c6.159-16.232,21.648-27.379,39.652-27.379c7.701,0,15.231,2.13,21.784,6.072l0.04-14.734
			C487.439,214.423,485.186,208.98,481.167,204.978z"/>
	</g>
</g>
<g>
	<g>
		<circle cx="451.985" cy="158.606" r="31.714"/>
	</g>
</g>
<g>
	<g>
		<circle cx="368.631" cy="228.544" r="31.713"/>
	</g>
</g>
<g>
	<g>
		<path d="M441.251,305.753c-6.731-4.718-11.776-11.145-14.812-18.496l0.198,12.596l-22.617,7.511l0.048-17.338
			c0.016-5.671-2.238-11.114-6.257-15.116c-4.019-4.002-9.471-6.23-15.144-6.189l-19.545,0.14c-2.609,0.018-5.156,0.537-7.541,1.465
			l-24.061-19.032l-7.183-61.742c-0.81-6.96-7.103-11.951-14.07-11.136c-6.96,0.81-11.947,7.108-11.137,14.07l7.791,66.964
			c0.389,3.344,2.092,6.396,4.732,8.485l30.401,24.046l0.318,20.175l26.33-26.728l-25.334,41.753
			c-23.286,2.027-14.951,1.302-37.332,3.251c-7.01,0.61-12.148,6.794-11.54,13.741c0.575,6.607,6.116,11.589,12.626,11.589
			c0.834,0-2.542,0.269,44.857-3.858c0.007,0,0.012-0.001,0.018-0.001c0.013,0.006,0.014-0.001,0.02-0.002
			c0.006,0,0.014-0.001,0.019-0.001c0.004-0.002,0.008,0.003,0.016-0.002c4.159-0.386,7.726-2.753,9.755-6.185l24.652-40.629
			l-13.163,47.166c-0.946,3.39-1.613,7.717-4.527,9.073c-34.454,11.441-19.995,6.639-54.22,18.004
			c-9.207,3.059-14.765,12.228-13.217,21.804c1.548,9.578,9.714,16.53,19.415,16.53h75.467c5.649-5.278,10.895-6.639,15.749-8.251
			c-6.211,0.54-6.519,0.595-7.909,0.595c-12.73,0-23.162-9.57-24.265-22.244c-1.079-12.187,6.755-25.074,24.085-26.581l0.037-13.463
			c0.066,0,0.13,0.009,0.196,0.009h23.401l-0.229-14.542c-0.138-8.721,3.28-17.3,9.377-23.539
			C438.064,308.2,439.609,306.904,441.251,305.753z"/>
	</g>
</g>
<g>
	<g>
		<path d="M496.776,429.764h-12.399h-0.001l5.824-1.934c0.024-0.008,0.047-0.019,0.071-0.027
			c7.025-2.372,11.141-9.385,10.226-16.381c0.471,0,0.5-78.369,0.501-78.84c0.033-11.936-9.729-21.306-21.246-21.306
			c-0.05,0-0.099,0-0.149,0c-0.001,0-0.003,0-0.004,0c-12.01,0.086-7.556,0.053-19.544,0.139
			c-11.767,0.088-21.279,9.757-21.093,21.582l0.342,21.713l26.331-26.729l-25.335,41.754l-37.332,3.251
			c-7.023,0.611-12.152,6.814-11.539,13.741c0.597,6.867,6.677,12.159,13.741,11.54c12.778-1.113,43.811-3.816,43.811-3.816
			c4.212-0.391,7.761-2.801,9.759-6.189l24.649-40.624l-13.162,47.165c-0.946,3.391-1.502,7.8-4.528,9.075
			c-59.211,19.659-57.225,18.31-61.526,22.354c-0.048,0.044-0.101,0.086-0.149,0.13c-4.687,4.496-6.778,11.029-5.761,17.328
			c1.543,9.521,9.68,16.524,19.415,16.524h79.098c8.411,0,15.225-6.819,15.225-15.226
			C512.001,436.582,505.187,429.764,496.776,429.764z"/>
	</g>
</g>
<g>
	<g>
		<path d="M465.599,239.379c-0.001,0-0.003,0-0.007,0c-17.741,0-31.75,14.414-31.75,31.677
			c-0.001,19.564,17.406,34.308,36.506,31.391c15.643-2.39,26.928-15.859,26.929-31.309
			C497.279,253.503,482.95,239.379,465.599,239.379z"/>
	</g>
</g>
<g>
</g>
<g>
</g>
<g>
</g>
<g>
</g>
<g>
</g>
<g>
</g>
<g>
</g>
<g>
</g>
<g>
</g>
<g>
</g>
<g>
</g>
<g>
</g>
<g>
</g>
<g>
</g>
<g>
</g>
</svg>
