<svg height="512pt" viewBox="0 0 512 512" width="512pt" xmlns="http://www.w3.org/2000/svg"><path d="m241 226h30v48.601562c22.800781 4.800782 43.199219 15.898438 60 31.199219v-97.5c0-50.902343-62.144531-76.449219-98.101562-40.5l-51.898438 51.898438v111.300781h60zm0 0"/><path d="m301 121c24.8125 0 45-20.1875 45-45s-20.1875-45-45-45-45 20.1875-45 45 20.1875 45 45 45zm0 0"/><path d="m121 91c24.8125 0 45-20.1875 45-45s-20.1875-46-45-46-45 21.1875-45 46 20.1875 45 45 45zm0 0"/><path d="m61 248.28125c0-17.753906 1.433594-26.894531 4.015625-61.933594l36.238281 48.324219 49.746094 24.875v-67.09375l-10.253906-5.125-60.101563-80.140625c-14.066406-18.714844-42.597656-14.730469-51.902343 6.691406-18.410157 42.351563-28.742188 87.570313-28.742188 134.402344v263.71875h61zm0 0"/><path d="m346 406c0-47.488281-31.730469-87.152344-75-100.125v55.125h-124.507812c-6.53125 13.683594-10.492188 28.824219-10.492188 45 0 57.988281 47.011719 106 105 106s105-48.011719 105-106zm0 0"/><path d="m352.824219 331c11.910156 17.621094 19.53125 38.03125 21.964843 60h40.589844l39.695313 121 56.925781-18.96875-53.378906-162.03125zm0 0"/></svg>