<svg height="440pt" viewBox="-16 0 440 440" width="440pt" xmlns="http://www.w3.org/2000/svg"><path d="m352 159.199219c-15.789062-3.269531-28.078125-15.679688-31.199219-31.496094-8.871093 3.523437-18.984375 1.433594-25.730469-5.320313l-9.4375-9.4375c-9.328124-9.367187-9.328124-24.507812 0-33.875l7.054688-7.070312h-52.6875c-6.789062-.019531-13.246094-2.929688-17.761719-8h-78.238281v16.800781c18.644531 3.785157 32.039062 20.175781 32.039062 39.199219s-13.394531 35.414062-32.039062 39.199219v16.800781h208zm-152 .800781h-16v-16h16zm0-32h-16v-16h16zm0-32h-16v-16h16zm48 56c-17.671875 0-32-14.328125-32-32s14.328125-32 32-32 32 14.328125 32 32-14.328125 32-32 32zm64 8h-16v-16h16zm0 0"/><path d="m408 19.3125-16.96875-16.96875c-1.5-1.5-3.535156-2.34375-5.65625-2.34375h-42.75c-2.121094 0-4.15625.84375-5.65625 2.34375l-19.3125 19.3125c-1.5 1.5-3.535156 2.34375-5.65625 2.34375h-72c-4.417969 0-8 3.582031-8 8v16c0 4.417969 3.582031 8 8 8h68.6875l5.65625-5.65625 11.3125 11.3125-28.71875 28.71875c-3.082031 3.117188-3.082031 8.132812 0 11.25l9.4375 9.4375c3.117188 3.082031 8.132812 3.082031 11.25 0l10.558594-10.566406c2.457031-2.457032 6.214844-3.046875 9.304687-1.464844 15.3125 6.898438 32.957031 6.292969 47.757813-1.640625 1.332031-.90625 2.902344-1.390625 4.515625-1.390625h18.238281zm0 0"/><path d="m264 120c0 8.835938-7.164062 16-16 16s-16-7.164062-16-16 7.164062-16 16-16 16 7.164062 16 16zm0 0"/><path d="m224 328c4.417969 0 8-3.582031 8-8s-3.582031-8-8-8zm0 0"/><path d="m200 288c0 4.417969 3.582031 8 8 8v-16c-4.417969 0-8 3.582031-8 8zm0 0"/><path d="m0 320h24v120h-24zm0 0"/><path d="m320 248h-208v68.199219c.121094.046875.246094.074219.367188.121093l6.695312-6.695312c9.367188-9.328125 24.507812-9.328125 33.875 0l9.4375 9.4375c9.328125 9.367188 9.328125 24.507812 0 33.875l-7.0625 7.0625h164.6875zm-200 40v-16c8.835938 0 16-7.164062 16-16h16c0 17.671875-14.328125 32-32 32zm128 32c0 13.253906-10.746094 24-24 24v8h-16v-8c-13.253906 0-24-10.746094-24-24h16c0 4.417969 3.582031 8 8 8v-16c-13.253906 0-24-10.746094-24-24s10.746094-24 24-24v-8h16v8c13.253906 0 24 10.746094 24 24h-16c0-4.417969-3.582031-8-8-8v16c13.253906 0 24 10.746094 24 24zm64 16c-8.835938 0-16 7.164062-16 16h-16c0-17.671875 14.328125-32 32-32zm0-48c-17.671875 0-32-14.328125-32-32h16c0 8.835938 7.164062 16 16 16zm0 0"/><path d="m139.3125 376-5.65625 5.65625-11.3125-11.3125 28.71875-28.71875c3.082031-3.117188 3.082031-8.132812 0-11.25l-9.4375-9.4375c-3.117188-3.082031-8.132812-3.082031-11.25 0l-10.558594 10.566406c-2.457031 2.457032-6.214844 3.046875-9.304687 1.464844-15.304688-6.914062-32.953125-6.324219-47.757813 1.597656-1.328125.921875-2.898437 1.421875-4.515625 1.433594h-18.238281v76.6875l16.9375 16.914062c1.5 1.53125 3.554688 2.394532 5.703125 2.398438h42.71875c2.148437-.003906 4.203125-.867188 5.703125-2.398438l19.28125-19.28125c1.503906-1.492187 3.539062-2.328124 5.65625-2.320312h72c4.417969 0 8-3.582031 8-8v-16c0-4.417969-3.582031-8-8-8zm0 0"/></svg>