<svg viewBox="-53 0 512 512" xmlns="http://www.w3.org/2000/svg"><path d="m240 90c24.8125 0 45-20.1875 45-45s-20.1875-45-45-45-45 20.1875-45 45 20.1875 45 45 45zm0 0"/><path d="m368.421875 422-30-135h-113.421875v-60h90v-61h-90v-76c-33.089844 0-60 26.910156-60 60v197h126.578125l30 135h83.421875v-60zm0 0"/><path d="m238.484375 377c-7.191406 42.476562-43.992187 75-88.484375 75-49.628906 0-90-40.371094-90-90 0-44.492188 32.523438-81.292969 75-88.484375v-60c-75.585938 7.652344-135 69.914063-135 147.484375 0 82.703125 67.296875 151 150 151 56.167969 0 104.648438-31.40625 130.347656-77.234375l-12.835937-57.765625zm0 0"/></svg>