<svg height="396pt" viewBox="-6 0 396 396.112" width="396pt" xmlns="http://www.w3.org/2000/svg"><path d="m264.054688 308.113281h119.425781l-64-88h46.472656l-48-72h32.648437l-102.546874-148.113281-56 80.886719-56-80.886719-102.535157 148.113281h32.648438l-48 72h46.472656l-64 88h119.414063v56h-120.0000005v32h384.0000005v-32h-120zm-16-251.890625 41.464843 59.890625h-31.359375l48 72h-49.527344l64 88h-145.152343l64-88h-49.527344l48-72h-31.359375zm-184.574219 219.890625 64-88h-49.527344l48-72h-31.359375l41.460938-59.890625 36.539062 52.777344-27.074219 39.113281h32.648438l-48 72h46.472656l-40.730469 56zm88.574219 32h80v56h-80zm0 0"/></svg>