<svg height="512pt" viewBox="0 -11 512 512" width="512pt" xmlns="http://www.w3.org/2000/svg"><path d="m456.832031 396.359375c-9.875 7.375-20.085937 15-40.167969 15-20.082031 0-30.292968-7.625-40.167968-14.996094-9.875-7.378906-20.085938-15.003906-40.167969-15.003906-20.085937 0-30.292969 7.625-40.167969 15s-20.082031 15-40.167968 15c-20.082032 0-30.289063-7.625-40.164063-14.996094-9.875-7.378906-20.082031-15.003906-40.164063-15.003906-20.085937 0-30.292968 7.625-40.167968 15s-20.082032 15-40.164063 15-30.292969-7.625-40.164062-14.996094c-9.875-7.378906-20.085938-15.003906-40.167969-15.003906h-15v109h512v-109h-15c-20.082031 0-30.292969 7.625-40.167969 15zm0 0"/><path d="m497 291.359375c-20.082031 0-30.292969 7.625-40.167969 15s-20.085937 15-40.167969 15c-20.085937 0-30.292968-7.625-40.167968-14.996094-9.875-7.378906-20.085938-15.003906-40.167969-15.003906-20.085937 0-30.292969 7.625-40.167969 15s-20.082031 15-40.167968 15c-20.082032 0-30.289063-7.625-40.164063-15s-20.082031-15-40.164063-15c-20.085937 0-30.292968 7.625-40.167968 15s-20.082032 15-40.164063 15-30.292969-7.625-40.164062-15c-9.875-7.375-20.085938-15-40.167969-15h-15v60h15c30.050781 0 46.941406 12.617187 58.117188 20.964844 8.558593 6.390625 12.097656 9.035156 22.214843 9.035156 10.113281 0 13.65625-2.644531 22.210938-9.035156 11.179687-8.347657 28.070312-20.964844 58.121093-20.964844 30.050782 0 46.941407 12.617187 58.117188 20.964844 8.554688 6.390625 12.097656 9.035156 22.210938 9.035156 10.117187 0 13.660156-2.644531 22.214843-9.035156 11.179688-8.347657 28.070313-20.964844 58.121094-20.964844s46.941406 12.617187 58.117187 20.964844c8.558594 6.390625 12.101563 9.035156 22.21875 9.035156 10.117188 0 13.660157-2.644531 22.214844-9.035156 11.179688-8.347657 28.070313-20.964844 58.121094-20.964844h15v-59.574219zm0 0"/><path d="m104.371094 188.910156h-104.023438v-157.128906h104.023438zm0 0"/><path d="m153.460938 220.691406h-34.089844c-24.851563 0-45-20.144531-45-45v-130.691406c0-24.851562 20.148437-45 45-45h35.089844c10.492187 0 19 8.507812 19 19v181.691406c0 11.046875-8.953126 20-20 20zm0 0"/><path d="m255 278.859375v12.484375c.328125.003906.648438.015625.992188.015625 10.117187 0 13.660156-2.644531 22.214843-9.035156 11.179688-8.347657 28.070313-20.964844 58.121094-20.964844s46.941406 12.617187 58.121094 20.964844c8.554687 6.390625 12.097656 9.035156 22.214843 9.035156 4.875 0 8.21875-.621094 11.335938-1.972656v-16.027344c0-63.304687-24.652344-122.820313-69.414062-167.582031-41.8125-41.816406-96.5-66.074219-155.125-69.089844v155.445312c6.449218 3.164063 12.527343 6.964844 17.988281 11.316407 22.261719 17.75 33.550781 43.121093 33.550781 75.410156zm0 0"/></svg>