<svg height="448pt" viewBox="-32 0 448 448" width="448pt" xmlns="http://www.w3.org/2000/svg"><path d="m240.367188 196c-13.449219-22.546875-28.136719-44.328125-44-65.246094-1.597657-2.136718-3.0625-4.066406-4.359376-5.753906-17.503906 22.699219-33.65625 46.40625-48.375 71-10.191406 15.925781-17.847656 33.339844-22.6875 51.617188-.59375 2.753906-.910156 5.5625-.945312 8.382812 0 39.765625 32.234375 72 72 72s72-32.234375 72-72c0-8.800781-4.105469-26.34375-23.617188-59.953125zm-48.367188 116c-4.417969 0-8-3.582031-8-8s3.582031-8 8-8c22.082031-.027344 39.972656-17.917969 40-40 0-.054688-.59375-11.703125-19.289062-43.878906-1.636719-2.480469-1.765626-5.664063-.332032-8.265625 1.429688-2.605469 4.1875-4.199219 7.15625-4.144531 2.972656.054687 5.667969 1.753906 7 4.410156 19.921875 34.222656 21.464844 48.367187 21.464844 51.878906-.035156 30.914062-25.085938 55.964844-56 56zm0 0"/><path d="m360 400h-336c-13.253906 0-24 10.746094-24 24s10.746094 24 24 24h336c13.253906 0 24-10.746094 24-24s-10.746094-24-24-24zm0 0"/><path d="m24 48h336c13.253906 0 24-10.746094 24-24s-10.746094-24-24-24h-336c-13.253906 0-24 10.746094-24 24s10.746094 24 24 24zm0 0"/><path d="m258.550781 313.398438c-.984375 1.144531-1.992187 2.25-3.03125 3.335937-.855469.90625-1.726562 1.785156-2.632812 2.648437-1.078125 1.042969-2.199219 2.050782-3.335938 3.03125-.933593.800782-1.878906 1.601563-2.847656 2.402344-1.183594.945313-2.398437 1.832032-3.632813 2.710938-1.007812.730468-2.007812 1.449218-3.046874 2.128906-1.28125.800781-2.589844 1.601562-3.910157 2.398438-1.066406.625-2.121093 1.257812-3.203125 1.832031-1.375.722656-2.78125 1.371093-4.199218 2.023437-1.101563.515625-2.199219 1.042969-3.328126 1.503906-1.480468.617188-3 1.128907-4.519531 1.65625-1.121093.394532-2.230469.800782-3.382812 1.167969-1.601563.488281-3.265625.875-4.914063 1.273438-1.101562.265625-2.183594.578125-3.300781.800781-1.859375.367188-3.753906.617188-5.648437.863281-.953126.128907-1.890626.320313-2.855469.417969-2.882813.277344-5.792969.4375-8.746094.4375s-5.863281-.160156-8.742187-.4375c-.96875-.097656-1.90625-.289062-2.859376-.417969-1.894531-.246093-3.789062-.496093-5.644531-.863281-1.121093-.222656-2.203125-.535156-3.304687-.800781-1.648438-.398438-3.304688-.800781-4.914063-1.273438-1.152343-.34375-2.261719-.796875-3.382812-1.167969-1.519531-.527343-3.039063-1.039062-4.519531-1.65625-1.128907-.460937-2.222657-.988281-3.328126-1.503906-1.417968-.652344-2.824218-1.300781-4.199218-2.023437-1.097656-.574219-2.152344-1.207031-3.199219-1.832031-1.320313-.796876-2.632813-1.542969-3.914063-2.398438-1.039062-.679688-2.039062-1.398438-3.046874-2.128906-1.234376-.878906-2.449219-1.765625-3.632813-2.710938-.96875-.800781-1.914063-1.601562-2.847656-2.402344-1.136719-.980468-2.257813-1.988281-3.335938-3.03125-.90625-.863281-1.777343-1.742187-2.632812-2.648437-1.039063-1.085937-2.046875-2.191406-3.03125-3.335937-.816407-.933594-1.617188-1.886719-2.402344-2.863282-.933594-1.183594-1.832031-2.398437-2.710937-3.625-.71875-1.007812-1.429688-2.023437-2.109376-3.070312-.800781-1.273438-1.601562-2.574219-2.402343-3.894532-.617188-1.074218-1.238281-2.136718-1.816407-3.242187-.71875-1.359375-1.367187-2.757813-2.007812-4.167969-.519531-1.121094-1.039062-2.222656-1.511719-3.367187-.589843-1.464844-1.113281-2.953125-1.597656-4.449219-.402344-1.152344-.800781-2.285156-1.179687-3.453125-.46875-1.601563-.847657-3.203125-1.230469-4.800781-.273438-1.152344-.582031-2.296875-.800781-3.464844-.335938-1.703125-.558594-3.441406-.800782-5.183594-.148437-1.113281-.351562-2.199218-.460937-3.328125 0-.175781-.058594-.34375-.074219-.519531h-72.375v120.03125h320v-120h-72.359375c0 .175781-.054687.34375-.074219.519531-.109375 1.128907-.308594 2.214844-.460937 3.328125-.234375 1.746094-.457031 3.480469-.800781 5.183594-.234376 1.167969-.542969 2.3125-.800782 3.464844-.382812 1.601562-.761718 3.199218-1.230468 4.800781-.351563 1.167969-.800782 2.304687-1.175782 3.457031-.511718 1.492188-1.035156 2.980469-1.601562 4.445313-.472656 1.144531-.992188 2.25-1.511719 3.367187-.640625 1.410156-1.289063 2.808594-2.007813 4.167969-.578124 1.105469-1.199218 2.167969-1.816406 3.242187-.800781 1.320313-1.542968 2.625-2.398437 3.894532-.683594 1.050781-1.394531 2.066406-2.113281 3.074218-.878907 1.230469-1.777344 2.398438-2.710938 3.621094-.773438.957032-1.570312 1.898438-2.386719 2.832032zm0 0"/><path d="m24 248h80.632812c.070313-.457031.238282-1 .320313-1.464844.386719-2.28125.921875-4.664062 1.597656-7.152344.21875-.796874.410157-1.597656.648438-2.445312.9375-3.203125 2.03125-6.5625 3.394531-10.121094.148438-.382812.34375-.800781.503906-1.207031 1.253906-3.203125 2.71875-6.609375 4.328125-10.113281.5-1.097656 1.015625-2.207032 1.550781-3.320313 1.597657-3.375 3.363282-6.878906 5.296876-10.511719.300781-.574218.527343-1.078124.839843-1.664062h-99.113281c-13.253906 0-24 10.746094-24 24s10.746094 24 24 24zm0 0"/><path d="m360 200h-99.078125c.285156.527344.484375.992188.796875 1.511719 1.960938 3.703125 3.746094 7.265625 5.386719 10.703125.519531 1.097656 1.03125 2.183594 1.519531 3.25 1.597656 3.527344 3.085938 6.925781 4.359375 10.167968.152344.382813.335937.800782.488281 1.183594 1.359375 3.558594 2.457032 6.902344 3.390625 10.121094.242188.796875.433594 1.597656.648438 2.398438.65625 2.488281 1.175781 4.878906 1.601562 7.199218.078125.464844.246094 1.007813.320313 1.464844h80.566406c13.253906 0 24-10.746094 24-24s-10.746094-24-24-24zm0 0"/><path d="m352 64h-320v120h100.152344c.382812-.65625.800781-1.296875 1.183594-1.953125.679687-1.136719 1.367187-2.261719 2.054687-3.398437l2.488281-4c.6875-1.089844 1.367188-2.175782 2.058594-3.257813.855469-1.359375 1.71875-2.703125 2.582031-4.046875.671875-1.046875 1.34375-2.078125 2.015625-3.121094.871094-1.335937 1.746094-2.648437 2.617188-3.957031.671875-1.027344 1.347656-2.039063 2.023437-3.042969l2.566407-3.808594 2-2.925781 2.546874-3.6875c.648438-.921875 1.277344-1.839843 1.917969-2.746093.800781-1.183594 1.640625-2.328126 2.449219-3.46875l1.894531-2.675782 2.257813-3.125 1.863281-2.578125c.703125-.96875 1.367187-1.878906 2.046875-2.800781l1.816406-2.46875 1.816406-2.402344 1.726563-2.320312 1.425781-1.886719 1.800782-2.398437 1-1.304688 1.710937-2.242188.855469-1.101562 1.417968-1.824219.390626-.511719c1.734374-2.21875 2.855468-3.625 3.082031-3.898437 1.566406-1.804687 3.84375-2.84375 6.238281-2.84375s4.671875 1.039063 6.238281 2.84375c.226563.273437 1.347657 1.679687 3.082031 3.898437l.390626.511719 1.328124 1.703125.953126 1.238282 1.847656 2.402343.800781 1.078125 1.96875 2.609375c.414063.550781.796875 1.070313 1.246094 1.65625.609375.800781 1.25 1.664063 1.878906 2.519531l1.671875 2.238282 1.96875 2.683594c.625.847656 1.234375 1.679687 1.871094 2.566406.640625.886718 1.386718 1.902344 2.089844 2.878906.703124.976562 1.328124 1.832031 2.007812 2.785156l2.160156 3.046875 2.167969 3.074219c.726563 1.039062 1.472656 2.09375 2.207031 3.199219.738282 1.101562 1.488282 2.144531 2.242188 3.238281.75 1.097656 1.519531 2.21875 2.277344 3.335938l2.289062 3.378906 2.34375 3.527344 2.234375 3.390624c.804687 1.230469 1.605469 2.472657 2.398437 3.71875.734376 1.136719 1.464844 2.277344 2.191407 3.425782.800781 1.289062 1.601562 2.566406 2.402343 3.863281l2.085938 3.375c.800781 1.351563 1.601562 2.699219 2.457031 4.058594.328125.542969.664063 1.078125.984375 1.597656h100.214844zm0 0"/></svg>