<svg height="512pt" viewBox="0 -2 512.001 512" width="512pt" xmlns="http://www.w3.org/2000/svg"><path d="m116.324219 191.082031h-67.542969c-26.898438 0-48.78125-21.882812-48.78125-48.78125 0-21.832031 14.339844-40.546875 34.542969-46.667969 8.5625-15.023437 24.652343-24.628906 42.382812-24.628906 16.992188 0 32.347657 8.707032 41.144531 22.546875 26.09375.921875 47.035157 22.4375 47.035157 48.75 0 26.898438-21.882813 48.78125-48.78125 48.78125zm0 0"/><path d="m449.773438 274.75c2.769531-6.789062 4.203124-14.074219 4.203124-21.574219 0-28.554687-21.019531-52.289062-48.398437-56.546875-6.191406-24.90625-28.746094-43.417968-55.539063-43.417968-26.742187 0-49.253906 18.433593-55.503906 43.261718-27.902344 3.792969-49.476562 27.773438-49.476562 56.703125 0 7.5 1.433594 14.785157 4.199218 21.574219-12.136718 12.609375-19.109374 29.539062-19.109374 47.375 0 23.628906 12.074218 45.179688 31.539062 57.585938.007812 9.832031 2.445312 22.425781 9.847656 33.953124 14.597656 22.726563 40.546875 30.085938 62.972656 31.734376v47.847656c0 8.289062 6.71875 15.011718 15.007813 15.011718 8.292969 0 15.011719-6.722656 15.011719-15.011718v-48.632813c34.5625-4.480469 52.425781-20.949219 61.515625-35.105469 6.195312-9.648437 9.539062-20.339843 10.453125-29.261718 19.960937-12.3125 32.386718-34.148438 32.386718-58.121094 0-17.835938-6.96875-34.765625-19.109374-47.375zm0 0"/><path d="m496.992188 0c-47.273438 0-116.367188 3.976562-177.066407 22.925781-37.964843 11.851563-68.097656 28.25-89.554687 48.738281-26.707032 25.5-40.246094 57.261719-40.246094 94.402344 0 22.410156-6.363281 39.636719-19.449219 52.660156-33.097656 32.949219-103.863281 32.621094-146.128906 32.425782-3.328125-.015625-6.515625-.03125-9.539063-.03125h-15.007812v238.242187h15.007812c109.28125 0 188.910157-15.332031 241.222657-46.660156-3.667969-3.941406-6.996094-8.210937-9.953125-12.816406-6.59375-10.265625-11.113282-22.082031-13.234375-34.324219-8.296875-7.398438-15.335938-16.183594-20.714844-25.949219-7.980469-14.480469-12.199219-30.902343-12.199219-47.488281 0-19.445312 5.65625-38.117188 16.171875-54.046875-.839843-4.890625-1.261719-9.867187-1.261719-14.902344 0-21.21875 7.730469-41.679687 21.765626-57.617187 9.652343-10.960938 21.804687-19.25 35.273437-24.234375 5.710937-11.324219 13.878906-21.410157 23.90625-29.339844 15.324219-12.117187 34.523437-18.792969 54.054687-18.792969.835938 0 1.667969.03125 2.503907.054688 7.597656-5.9375 16.542969-11.195313 26.878906-15.785156 20.949219-9.304688 58.351563-20.398438 117.570313-20.398438h15.007812v-87.0625zm0 0"/></svg>