<svg height="511pt" viewBox="-13 0 511 511.9995" width="511pt" xmlns="http://www.w3.org/2000/svg"><path d="m48.683594 177.71875 65.128906-90.074219c3.460938-4.785156 10.585938-4.785156 14.046875 0l65.128906 90.074219c10.984375 15.191406 16.617188 32.5625 17.335938 49.917969l24.507812 11.640625c12.046875-36.285156 7.210938-77.773438-17.066406-111.347656l-89.90625-124.339844c-3.460937-4.785156-10.585937-4.785156-14.046875 0l-89.910156 124.339844c-41.785156 57.785156-25.984375 139.039062 34.378906 176.792968l3.496094-4.777344c-34.363282-30.675781-41.082032-83.523437-13.09375-122.226562zm0 0"/><path d="m483.269531 449.449219-232.414062-167.285157s-20.015625-9.59375-38.851563-18.5625c.199219 18.148438-13.90625 43.1875-32.195312 51.339844 13.429687 13.648438 27.628906 28.007813 27.628906 28.007813l232.414062 167.285156c3.84375 2.675781 8.28125 2.492187 11.097657-1.832031l34.148437-47.90625c2.53125-3.558594 1.714844-8.492188-1.828125-11.046875zm0 0"/><path d="m153.132812 209.242188c-25.921874-18.722657-58.242187-18.265626-72.1875 1.015624-13.945312 19.285157-4.238281 50.09375 21.683594 68.8125 25.921875 18.722657 58.242188 18.265626 72.1875-1.015624 13.945313-19.285157 4.238282-50.089844-21.683594-68.8125zm0 0"/></svg>