<svg height="512pt" viewBox="0 0 512 512" width="512pt" xmlns="http://www.w3.org/2000/svg"><path d="m256 208.867188c9.445312 0 17.132812-7.6875 17.132812-17.132813 0-9.449219-7.6875-17.132813-17.132812-17.132813s-17.132812 7.683594-17.132812 17.132813c0 9.445313 7.6875 17.132813 17.132812 17.132813zm0 0"/><path d="m203.019531 129.972656c-14.019531 12.070313-23.578125 28.621094-27.011719 46.761719h35.320313c2.027344-6.023437 5.238281-11.503906 9.359375-16.167969-.003906-.003906-.003906-.007812-.007812-.007812zm0 0"/><path d="m246.648438 237.933594-17.664063 30.59375c16.210937 5.699218 35.347656 6.570312 54.039063 0l-17.667969-30.597656c-8.257813 1.671874-15.039063.742187-18.707031.003906zm0 0"/><path d="m308.984375 129.972656-17.664063 30.585938s-.003906.003906-.007812.007812c4.121094 4.664063 7.332031 10.144532 9.359375 16.167969h35.320313c-3.429688-18.144531-12.988282-34.691406-27.007813-46.761719zm0 0"/><path d="m512 191.734375c0-45.128906-37.820312-81.261719-82.894531-79.183594-10.519531-46.191406-52.058594-80.417969-100.804688-80.417969-17.824219 0-35.402343 4.679688-50.820312 13.378907-22.484375-28.398438-57.160157-45.511719-93.78125-45.511719-63.988281 0-116.386719 50.582031-119.304688 113.867188-36.625 6.980468-64.394531 39.238281-64.394531 77.867187 0 43.707031 35.558594 79.265625 79.265625 79.265625h38.207031c18.621094 32.46875 64.078125 80.332031 138.527344 80.332031 74.46875 0 119.925781-47.882812 138.535156-80.332031h38.199219c43.707031 0 79.265625-35.558594 79.265625-79.265625zm-159.601562 15h-51.726563c-2.027344 6.023437-5.234375 11.5-9.355469 16.164063l25.878906 44.816406c4.140626 7.167968 1.691407 16.332031-5.46875 20.480468-16.496093 9.558594-62.46875 28.371094-111.445312 0-7.160156-4.148437-9.609375-13.3125-5.472656-20.476562l25.875-44.816406c-4.121094-4.664063-7.328125-10.144532-9.355469-16.167969h-51.726563c-8.285156 0-15-6.714844-15-15 0-39.613281 21.335938-76.574219 55.679688-96.460937 7.171875-4.152344 16.363281-1.699219 20.507812 5.480468l25.859376 44.78125c3.664062-.738281 10.449218-1.667968 18.707031 0l25.863281-44.785156c4.140625-7.171875 13.328125-9.632812 20.503906-5.476562 34.34375 19.882812 55.675782 56.847656 55.675782 96.460937 0 8.285156-6.714844 15-15 15zm0 0"/><path d="m95.332031 449.867188c-8.28125 0-15 6.714843-15 15v32.132812c0 8.285156 6.71875 15 15 15 8.285157 0 15-6.714844 15-15v-32.132812c0-8.285157-6.714843-15-15-15zm0 0"/><path d="m95.332031 337.398438c-8.28125 0-15 6.71875-15 15v32.132812c0 8.285156 6.71875 15 15 15 8.285157 0 15-6.714844 15-15v-32.132812c0-8.28125-6.714843-15-15-15zm0 0"/><path d="m175.667969 401.667969c-8.285157 0-15 6.714843-15 15v32.132812c0 8.285157 6.714843 15 15 15 8.28125 0 15-6.714843 15-15v-32.132812c0-8.285157-6.71875-15-15-15zm0 0"/><path d="m15 401.667969c-8.285156 0-15 6.714843-15 15v32.132812c0 8.285157 6.714844 15 15 15s15-6.714843 15-15v-32.132812c0-8.285157-6.714844-15-15-15zm0 0"/><path d="m256 449.867188c-8.285156 0-15 6.714843-15 15v32.132812c0 8.285156 6.714844 15 15 15s15-6.714844 15-15v-32.132812c0-8.285157-6.714844-15-15-15zm0 0"/><path d="m336.332031 401.667969c-8.28125 0-15 6.714843-15 15v32.132812c0 8.285157 6.71875 15 15 15 8.285157 0 15-6.714843 15-15v-32.132812c0-8.285157-6.714843-15-15-15zm0 0"/><path d="m497 401.667969c-8.285156 0-15 6.714843-15 15v32.132812c0 8.285157 6.714844 15 15 15s15-6.714843 15-15v-32.132812c0-8.285157-6.714844-15-15-15zm0 0"/><path d="m15 289.199219c-8.285156 0-15 6.714843-15 15v32.132812c0 8.285157 6.714844 15 15 15s15-6.714843 15-15v-32.132812c0-8.285157-6.714844-15-15-15zm0 0"/><path d="m497 289.199219c-8.285156 0-15 6.714843-15 15v32.132812c0 8.285157 6.714844 15 15 15s15-6.714843 15-15v-32.132812c0-8.285157-6.714844-15-15-15zm0 0"/><path d="m416.667969 449.867188c-8.285157 0-15 6.714843-15 15v32.132812c0 8.285156 6.714843 15 15 15 8.28125 0 15-6.714844 15-15v-32.132812c0-8.285157-6.71875-15-15-15zm0 0"/><path d="m416.667969 337.398438c-8.285157 0-15 6.71875-15 15v32.132812c0 8.285156 6.714843 15 15 15 8.28125 0 15-6.714844 15-15v-32.132812c0-8.28125-6.71875-15-15-15zm0 0"/></svg>