<?xml version="1.0" encoding="iso-8859-1"?>
<!-- Generator: Adobe Illustrator 18.1.1, SVG Export Plug-In . SVG Version: 6.00 Build 0)  -->
<svg version="1.1" id="Capa_1" xmlns="http://www.w3.org/2000/svg" xmlns:xlink="http://www.w3.org/1999/xlink" x="0px" y="0px"
	 viewBox="0 0 467.385 467.385" style="enable-background:new 0 0 467.385 467.385;" xml:space="preserve">
<g>
	<path style="fill:#010002;" d="M342.749,465.621h124.635V362.12l-24.386-258.22h-75.864l-24.386,258.22v-91.585v-58.258
		l-113.8,57.567v-57.567l-113.8,57.567v-57.567L0,270.535v195.086h296.693H342.749z M104.989,412.111
		c0,13.469-10.917,24.386-24.386,24.386H53.51c-13.469,0-24.386-10.917-24.386-24.386v-27.093c0-13.469,10.917-24.386,24.386-24.386
		h27.093c13.469,0,24.386,10.917,24.386,24.386V412.111z M210.66,412.111c0,13.469-10.917,24.386-24.386,24.386h-27.093
		c-13.469,0-24.386-10.917-24.386-24.386v-27.093c0-13.469,10.917-24.386,24.386-24.386h27.093
		c13.469,0,24.386,10.917,24.386,24.386V412.111z M264.853,436.496c-13.469,0-24.386-10.917-24.386-24.386v-27.093
		c0-13.469,10.917-24.386,24.386-24.386h27.093c13.469,0,24.386,10.917,24.386,24.386v27.093c0,13.469-10.917,24.386-24.386,24.386
		H264.853z"/>
	<path style="fill:#010002;" d="M227.6,55.803c68.751,8.129,136.828-11.177,139.877,30.482h69.093
		c0,0-11.518-109.736-139.876-70.109C168.327,55.803,182.552,1.764,182.552,1.764S158.84,47.674,227.6,55.803z"/>
</g>
<g>
</g>
<g>
</g>
<g>
</g>
<g>
</g>
<g>
</g>
<g>
</g>
<g>
</g>
<g>
</g>
<g>
</g>
<g>
</g>
<g>
</g>
<g>
</g>
<g>
</g>
<g>
</g>
<g>
</g>
</svg>
