<svg height="512pt" viewBox="0 -58 512 512" width="512pt" xmlns="http://www.w3.org/2000/svg"><path d="m491.636719 245.777344v-39.335938l-.003907-.144531c-.222656-22.941406-13.1875-44.40625-37.191406-62.511719v-111.34375h-30v26.117188c-12.933594-6.332032-27.289062-11.839844-42.773437-16.457032v-32.992187h-30v25.453125c-14.058594-2.921875-28.78125-5.183594-44-6.75v-27.8125h-30v25.65625c-6.972657-.285156-14.015625-.433594-21.121094-.433594-7.789063 0-15.535156.195313-23.210937.558594v-25.78125h-30v28.121094c-14.820313 1.632812-29.21875 3.933594-43 6.855468v-25.867187h-30v33.5c-15.546876 4.675781-29.929688 10.214844-42.773438 16.539063v-26.707032h-30v112.164063c-23.3125 17.933593-35.878906 39.097656-36.101562 61.691406v39.480469h-21.460938v30h512v-30zm-391.304688-39.335938c6.128907-5.339844 18.363281-13.394531 39.53125-21.023437 32.375-11.664063 73.816407-18.085938 116.683594-18.085938s84.308594 6.421875 116.683594 18.085938c21.167969 7.628906 33.402343 15.683593 39.53125 21.023437v39.335938h-312.429688zm324.109375-113.816406v33.070312c-2.105468-1.023437-4.238281-2.039062-6.433594-3.027343-11.238281-5.0625-23.417968-9.53125-36.34375-13.382813v-35.660156c16.109376 5.324219 30.566407 11.695312 42.777344 19zm-72.773437-27.265625v36.378906c-14.105469-2.941406-28.832031-5.21875-44-6.792969v-36.910156c15.292969 1.707032 30.046875 4.167969 44 7.324219zm-95.121094-10.136719c7.09375 0 14.140625.167969 21.121094.484375v37.066407c-6.984375-.289063-14.027344-.441407-21.121094-.441407-7.800781 0-15.546875.179688-23.214844.53125v-37.058593c7.660157-.378907 15.40625-.582032 23.214844-.582032zm-53.214844 3.050782v36.898437c-14.820312 1.605469-29.214843 3.878906-43 6.792969v-36.371094c13.632813-3.125 28.054688-5.582031 43-7.320312zm-115.773437 35.023437c12.171875-7.421875 26.625-13.902344 42.773437-19.316406v35.625c-12.515625 3.777343-24.324219 8.140625-35.246093 13.0625-2.578126 1.160156-5.078126 2.351562-7.527344 3.558593zm0 0"/><path d="m88.371094 305.777344h336.351562v30h-336.351562zm0 0"/><path d="m112.09375 365.777344h288.90625v30h-288.90625zm0 0"/></svg>