<svg height="512pt" viewBox="0 -76 512.00027 512" width="512pt" xmlns="http://www.w3.org/2000/svg"><path d="m330 90.003906h151v-15c0-24.855468-20.148438-45-45-45h-45c0-16.570312-13.429688-29.99999975-30-29.99999975h-121c-16.570312 0-30 13.42968775-30 29.99999975 0 16.566406 13.429688 30 30 30h60c0 16.566406 13.429688 30 30 30zm0 0"/><path d="m437 180.003906c0 16.566406-13.429688 30-30 30s-30-13.433594-30-30h-242c0 16.566406-13.429688 30-30 30s-30-13.433594-30-30h-75v90h512v-90zm0 0"/><path d="m75 360.003906h362c36.214844 0 66.511719-25.808594 73.480469-60h-508.960938c6.96875 34.191406 37.265625 60 73.480469 60zm0 0"/><path d="m30 0 129.898438 75-30 51.960938-129.898438-75zm0 0"/><path d="m155.886719 141.964844 13.921875 8.039062h120l-103.921875-60zm0 0"/></svg>