<svg height="511pt" viewBox="-61 0 511 511.99963" width="511pt" xmlns="http://www.w3.org/2000/svg"><path d="m305.332031 511.363281c5.996094-2.097656 10.199219-7.796875 10.199219-14.394531v-47h59.996094c6 0 11.097656-3.296875 13.5-8.699219 2.695312-5.398437 1.796875-11.699219-2.101563-16.199219-184.496093-211.082031-263.167969-301.085937-265.480469-304.179687-26.3125-31.8125-28.78125-64.199219-32.699218-76.191406-47.101563 47.785156-55.40625 109.722656-16.199219 163.1875 2.1875 3 227.367187 313.675781 215.558594 297.496093.15625.210938.253906.351563.425781.585938 3.898438 5.097656 10.800781 7.195312 16.800781 5.394531zm0 0"/><path d="m114.753906 23.988281c7.726563 33.933594 11.5 55.625 29.8125 77.78125.246094.308594.757813.910157 1.171875 1.402344 14.90625-8.15625 31.75-13.179687 49.800781-13.179687 18.070313 0 34.933594 5.03125 49.851563 13.207031l.210937-.285157c19.445313-23.609374 22.796876-44.25 30.703126-78.933593-23.351563-14.988281-51.042969-23.980469-80.765626-23.980469-29.730468 0-57.433593 8.996094-80.785156 23.988281zm0 0"/><path d="m269.632812 120.890625c-10.492187 14.015625-3.894531 6.160156-53.785156 62.714844l65.679688 75.15625 37-50.875c36.777344-50.640625 33.019531-113.261719-16.195313-163.191407-3.53125 10.800782-6.25 44.214844-32.699219 76.195313zm0 0"/><path d="m85.746094 511.363281c6 1.800781 12.898437-.296875 16.800781-5.398437l74.503906-104.03125-69.398437-95.207032c-28.664063 32.714844-62.679688 71.597657-103.5 118.34375-3.902344 4.5-4.800782 10.800782-2.101563 16.199219 2.402344 5.402344 7.5 8.699219 13.5 8.699219h59.996094v46.996094c0 6.601562 4.199219 12.300781 10.199219 14.398437zm0 0"/></svg>