<?xml version="1.0" encoding="iso-8859-1"?>
<!-- Generator: Adobe Illustrator 19.0.0, SVG Export Plug-In . SVG Version: 6.00 Build 0)  -->
<svg version="1.1" id="Capa_1" xmlns="http://www.w3.org/2000/svg" xmlns:xlink="http://www.w3.org/1999/xlink" x="0px" y="0px"
	 viewBox="0 0 512 512" style="enable-background:new 0 0 512 512;" xml:space="preserve">
<g>
	<g>
		<g>
			<path d="M178.272,100.571c27.772,0,50.286-22.514,50.286-50.286C228.509,22.534,206.024,0.049,178.272,0
				c-27.772,0-50.286,22.514-50.286,50.286S150.5,100.571,178.272,100.571z"/>
			<path d="M333.7,100.571c27.772,0,50.286-22.514,50.286-50.286C383.937,22.534,361.452,0.049,333.7,0
				c-27.772,0-50.286,22.514-50.286,50.286S305.928,100.571,333.7,100.571z"/>
			<path d="M98.729,282.423c0.367-35.386,7.441-70.381,20.846-103.131c1.274-3.005,4.054-5.102,7.294-5.502
				c3.24-0.399,6.446,0.96,8.411,3.566c1.966,2.606,2.392,6.062,1.118,9.067c-0.274,0.64-24.96,59.429-18.103,110.171
				c12.417,10.409,26.393,18.802,41.417,24.869c1.829,0.549,3.566,1.463,5.394,2.194c3.474-52.754,25.509-81.554,38.949-94.354
				c-11.96-16.585-15.259-37.893-8.874-57.318s21.681-34.621,41.149-40.876c-7.999-7.616-16.761-14.387-26.149-20.206
				c-19.854,10.541-43.629,10.609-63.543,0.183c-17.829,10.331-85.669,57.143-82.469,170.606
				C75.255,276.939,87.854,277.206,98.729,282.423z"/>
			<path d="M316.851,172.195c6.306,19.371,2.987,40.589-8.933,57.108c13.44,12.8,35.474,41.6,38.949,94.354
				c1.829-0.731,3.566-1.646,5.303-2.194c15.065-6.041,29.075-14.435,41.509-24.869c6.949-50.834-17.829-109.531-18.103-110.171
				c-1.274-3.005-0.848-6.462,1.118-9.067c1.966-2.606,5.172-3.965,8.411-3.566c3.239,0.399,6.02,2.497,7.294,5.502
				c13.405,32.75,20.479,67.746,20.846,103.131c11.082-5.323,23.932-5.557,35.2-0.64c3.109-114.103-65.371-160.823-82.834-170.88
				c-19.821,10.541-43.57,10.609-63.451,0.183c-9.436,5.749-18.206,12.525-26.149,20.206
				C295.37,137.627,310.545,152.824,316.851,172.195z"/>
			<path d="M210.272,192c0,25.247,20.467,45.714,45.714,45.714S301.7,217.247,301.7,192c-0.009-25.244-20.471-45.705-45.714-45.714
				C230.739,146.286,210.272,166.753,210.272,192z"/>
			<path d="M191.986,420.571v-17.006c0.299-17.497-5.341-34.578-16-48.457c-5.578-7.48-13.245-13.142-22.034-16.274
				c-17.94-7.105-34.589-17.113-49.28-29.623c-0.444-0.313-0.871-0.649-1.28-1.006c-2.56-2.011-5.12-4.114-7.771-6.4
				c-8.562-7.036-20.848-7.226-29.623-0.457c3.29,4.955,7.09,9.551,11.337,13.715l41.691,41.783
				c1.712,1.708,2.674,4.027,2.674,6.446c0,2.418-0.962,4.737-2.674,6.446c-1.686,1.752-4.014,2.743-6.446,2.743
				c-2.432,0-4.759-0.99-6.446-2.743l-41.783-41.691c-9.765-9.81-17.583-21.382-23.04-34.103l-20.48-47.726
				c-1.701-3.995-5.624-6.586-9.966-6.583c-3.69,0.008-7.123,1.888-9.119,4.992c-1.995,3.104-2.28,7.008-0.755,10.368l35.84,78.903
				c3.913,8.652,9.365,16.521,16.091,23.223l63.451,63.451H191.986z"/>
			<path d="M510.249,244.663c-1.961-3.157-5.427-5.063-9.143-5.029c-4.342-0.003-8.265,2.588-9.966,6.583l-20.48,47.726
				c-5.457,12.721-13.275,24.292-23.04,34.103l-41.783,41.691c-1.686,1.752-4.014,2.743-6.446,2.743
				c-2.432,0-4.759-0.99-6.446-2.743c-1.712-1.708-2.674-4.027-2.674-6.446c0-2.418,0.962-4.737,2.674-6.446l41.691-41.783
				c4.248-4.195,8.048-8.822,11.337-13.806c-8.797-6.738-21.081-6.511-29.623,0.549c-2.651,2.286-5.211,4.389-7.771,6.4
				c-0.409,0.357-0.836,0.693-1.28,1.006c-14.715,12.477-31.358,22.481-49.28,29.623c-8.789,3.132-16.456,8.795-22.034,16.274
				c-10.659,13.879-16.299,30.96-16,48.457v17.006h75.611l63.451-63.451c6.726-6.702,12.179-14.571,16.091-23.223l35.84-78.903
				C512.537,251.655,512.26,247.749,510.249,244.663z"/>
			<path d="M301.7,512h100.571v-73.143H301.7V512z M319.986,466.286h9.143c5.049,0,9.143,4.093,9.143,9.143
				s-4.093,9.143-9.143,9.143h-9.143c-5.049,0-9.143-4.093-9.143-9.143S314.937,466.286,319.986,466.286z"/>
			<path d="M301.7,403.566c0-2.926,0.091-5.76,0.366-8.594c-0.165-0.6-0.288-1.211-0.366-1.829c0-0.549-0.366-55.223-25.326-85.577
				c-3.192-3.891-2.644-9.629,1.226-12.846c3.87-3.217,9.612-2.706,12.854,1.143c12.637,16.845,21.154,36.415,24.869,57.143
				c1.953-3.228,4.09-6.342,6.4-9.326c2.249-2.819,4.693-5.477,7.314-7.954c-0.64-54.309-22.491-82.377-33.829-93.257
				c-23.036,18.043-55.41,18.043-78.446,0c-11.338,10.88-33.189,38.949-33.829,93.257c2.621,2.477,5.065,5.135,7.314,7.954
				c2.31,2.984,4.447,6.097,6.4,9.326c3.715-20.728,12.232-40.298,24.869-57.143c2.083-2.539,5.367-3.768,8.606-3.22
				c3.239,0.548,5.935,2.79,7.066,5.873c1.131,3.084,0.524,6.537-1.592,9.049c-25.051,30.446-25.326,85.029-25.326,85.577
				c-0.078,0.617-0.2,1.229-0.366,1.829c0.274,2.834,0.366,5.669,0.366,8.594v17.006c6.5,0.017,12.495,3.503,15.726,9.143h59.977
				c3.23-5.64,9.226-9.126,15.726-9.143V403.566z"/>
			<path d="M109.7,512h100.571v-73.143H109.7V512z M182.843,466.286h9.143c5.049,0,9.143,4.093,9.143,9.143
				s-4.093,9.143-9.143,9.143h-9.143c-5.049,0-9.143-4.093-9.143-9.143S177.794,466.286,182.843,466.286z"/>
		</g>
	</g>
</g>
<g>
</g>
<g>
</g>
<g>
</g>
<g>
</g>
<g>
</g>
<g>
</g>
<g>
</g>
<g>
</g>
<g>
</g>
<g>
</g>
<g>
</g>
<g>
</g>
<g>
</g>
<g>
</g>
<g>
</g>
</svg>
