<?xml version="1.0" encoding="iso-8859-1"?>
<!-- Generator: Adobe Illustrator 16.0.0, SVG Export Plug-In . SVG Version: 6.00 Build 0)  -->
<!DOCTYPE svg PUBLIC "-//W3C//DTD SVG 1.1//EN" "http://www.w3.org/Graphics/SVG/1.1/DTD/svg11.dtd">
<svg version="1.1" id="Capa_1" xmlns="http://www.w3.org/2000/svg" xmlns:xlink="http://www.w3.org/1999/xlink" x="0px" y="0px"
	 width="106.048px" height="106.048px" viewBox="0 0 106.048 106.048" style="enable-background:new 0 0 106.048 106.048;"
	 xml:space="preserve">
<g>
	<path style="fill:#010002;" d="M84.838,0H21.209C9.543,0,0,9.543,0,21.209v63.629c0,11.666,9.543,21.21,21.209,21.21h63.628
		c11.667,0,21.21-9.544,21.21-21.21V21.209C106.048,9.543,96.505,0,84.838,0z M5.302,71.852h9.103l-3.34,7.611l-5.763,3.086V71.852z
		 M15.954,99.782c-5.646-1.999-9.792-7.053-10.475-13.194l5.849-2.785l9.31,12.137L15.954,99.782z M13.999,80.727l4.453-8.875
		h22.419l3.171,3.205L33.894,87.613l-9.735,5.861L13.999,80.727z M21.862,100.745l13.647-9.289l16.327,9.289H21.862z
		 M77.087,100.745H60.688L38.463,88.654l9.624-11.998l21.642,7.198l11.402,16.124L77.087,100.745z M88.204,100.372l-2.144-0.507
		l-10.714-15.52l16.306-2.185l9.067,2.921C100.601,92.584,95.288,98.84,88.204,100.372z M100.745,81.41l-5.929-1.709l5.929-1.605
		V81.41z M100.745,75.331L88.98,79.055l-16.839,2.396l-21.652-7.192l-5.095-2.407h2.92c-0.699-6.437-1.631-11.31-2.089-17.699
		h-0.026c-0.005-0.196-0.233-4.474-0.28-6.294c-0.339-1.924-1.253-2.677-4.254-4.756c-1.654-1.067-2.889-1.442-3.568-1.427
		c-1.108,0-2.084,1.193-2.322,4.795c4.818,0.815,5.147,6.149,5.147,6.149c0.424,3.78-1.437,9.32-5.725,10.76
		c-7.923,2.641-7.102-12.632-2.63-16.29c0.116-4.407,1.326-8.43,5.53-8.601c1.655,0.01,3.345,0.696,5.303,1.937
		c0.927,0.567,1.68,1.139,2.343,1.724c-0.075-1.444-0.163-2.928-0.163-4.456c-0.01-3.198,0.497-6.69,3.335-9.173
		c1.468-1.331,3.128-2.024,4.74-2.009c4.216,0.202,6.861,3.86,8.384,7.583c1.786-0.773,4.013-1.157,6.561-0.271
		C75.104,36.07,78.65,47.441,75.9,51.39c-6.431,9.246-22.602-7.933-18.31-13.934c0,0,0.622-0.81,1.729-1.711
		c-1.258-3.304-3.78-6.258-5.665-6.061c-0.722,0.015-1.563,0.274-2.636,1.219c-1.797,1.58-2.255,3.842-2.265,6.786
		c0,2.079,0.256,4.396,0.256,6.708c0,1.214,0.078,2.273,0.111,3.457c0.295,2.068,0.318,3.658,0.265,5.838
		c0.45,6.359,3.026,11.573,3.73,18.154h47.628V75.331z M32.922,49.36l2.19-0.896l-2.19,12.249
		C31.825,56.83,32.922,49.36,32.922,49.36z M72.753,50.357L60.501,37.01l2.289-1.396C62.79,35.62,70.557,40.892,72.753,50.357z"/>
</g>
<g>
</g>
<g>
</g>
<g>
</g>
<g>
</g>
<g>
</g>
<g>
</g>
<g>
</g>
<g>
</g>
<g>
</g>
<g>
</g>
<g>
</g>
<g>
</g>
<g>
</g>
<g>
</g>
<g>
</g>
</svg>
