<?xml version="1.0" encoding="iso-8859-1"?>
<!-- Generator: Adobe Illustrator 16.0.0, SVG Export Plug-In . SVG Version: 6.00 Build 0)  -->
<!DOCTYPE svg PUBLIC "-//W3C//DTD SVG 1.1//EN" "http://www.w3.org/Graphics/SVG/1.1/DTD/svg11.dtd">
<svg version="1.1" id="Capa_1" xmlns="http://www.w3.org/2000/svg" xmlns:xlink="http://www.w3.org/1999/xlink" x="0px" y="0px"
	 width="321.251px" height="321.251px" viewBox="0 0 321.251 321.251" style="enable-background:new 0 0 321.251 321.251;"
	 xml:space="preserve">
<g>
	<g>
		<path d="M181.685,87.498c0-90.141-22.095-87.49-22.095-87.49s-19.884-2.651-19.884,87.49h-11.93v63.629
			c0,0-4.862,17.235-8.394,21.652c0,0-1.766-39.771-11.49-39.771c0,0-7.513-6.628-7.513,59.654l-55.23,61.423l16.347,17.673
			l72.022-57.001l3.091,47.722l-47.721,48.607l18.558,10.164l34.906-18.118c0,0,1.326,18.118,17.233,18.118
			c15.907,0,18.335-18.118,18.335-18.118l36.009,18.118l18.553-10.164l-47.721-48.607l3.075-47.722l71.986,57.001l16.28-17.673
			l-55.375-61.423c0-66.283-7.788-59.654-7.788-59.654c-9.714,0-12.039,39.771-12.039,39.771
			c-3.531-4.417-9.496-21.652-9.496-21.652V87.498H181.685z"/>
	</g>
</g>
<g>
</g>
<g>
</g>
<g>
</g>
<g>
</g>
<g>
</g>
<g>
</g>
<g>
</g>
<g>
</g>
<g>
</g>
<g>
</g>
<g>
</g>
<g>
</g>
<g>
</g>
<g>
</g>
<g>
</g>
</svg>
