<?xml version="1.0" encoding="iso-8859-1"?>
<!-- Generator: Adobe Illustrator 18.1.1, SVG Export Plug-In . SVG Version: 6.00 Build 0)  -->
<svg version="1.1" id="Capa_1" xmlns="http://www.w3.org/2000/svg" xmlns:xlink="http://www.w3.org/1999/xlink" x="0px" y="0px"
	 viewBox="0 0 374.982 374.982" style="enable-background:new 0 0 374.982 374.982;" xml:space="preserve">
<g>
	<g>
		<path style="fill:#010002;" d="M349.056,222.543h-16.492l-21.164-26.481h14.649l-20.735-23.867h-12.984l-11.623-14.547h11.975
			l-16.85-19.386h-10.627l-6.259-7.829h10.078l-10.693-12.304h-9.225l-3.526-4.415h8.915l-7.829-9.01h-8.288h-7.351h-30.777h-13.199
			h-11.97v9.01h12.25l0.137,4.415H175.08v12.304h12.769l0.251,7.829h-13.008v19.392h13.616l0.453,14.547h-14.064v23.867h14.81
			l0.823,26.481h-15.633v29.834h16.558l0.555,17.901h38.946l-3.341-17.901h93.071l10.89,17.901h38.946l-14.309-17.901h18.569
			L349.056,222.543z M201.937,113.708h34.578l2.685,4.415h-36.44L201.937,113.708z M205.057,130.433h41.631l4.762,7.829h-44.931
			L205.057,130.433z M210.135,157.654h53.111l8.849,14.547h-59.251L210.135,157.654z M222.242,222.543l-4.941-26.481h69.317
			l16.111,26.481H222.242z"/>
		<path style="fill:#010002;" d="M64.579,252.378h39.489l-4.081,17.901h61.96V104.698h-24.22l-1.343,5.901h-15.257l2.351-5.901
			H93.823L0,270.278h57.437L64.579,252.378z M118.311,117.664h16.463l-7.87,34.524H104.54L118.311,117.664z M98.394,167.6h24.995
			l-13.372,58.672H74.992L98.394,167.6z"/>
	</g>
</g>
<g>
</g>
<g>
</g>
<g>
</g>
<g>
</g>
<g>
</g>
<g>
</g>
<g>
</g>
<g>
</g>
<g>
</g>
<g>
</g>
<g>
</g>
<g>
</g>
<g>
</g>
<g>
</g>
<g>
</g>
</svg>
