<svg height="681pt" viewBox="-79 -21 681 681.33311" width="681pt" xmlns="http://www.w3.org/2000/svg"><path d="m308.5625 242.703125-6.132812 8.0625 39.25 29.835937-5.558594-31.484374c-9.554688-.40625-18.890625-2.609376-27.558594-6.414063zm0 0"/><path d="m275.578125 215.105469c-6.457031-9.640625-10.695313-20.695313-12.289063-32.382813-.207031-1.515625-.355468-3.027344-.46875-4.53125l-49.730468 4.644532 44.636718 33.941406zm0 0"/><path d="m97.875 499.835938-11.777344 26c13.015625 1.429687 25.402344 4.984374 36.796875 10.316406l10.652344-23.28125c-13.035156-1.597656-25.15625-6.171875-35.671875-13.035156zm0 0"/><path d="m474.667969 429.390625-417.046875-317.097656c-2.691406-2.050781-5.765625-2.984375-8.777344-2.984375-6.761719 0-13.226562 4.726562-14.410156 12.234375-13.402344 84.855469 8.65625 173.144531 63.050781 242.09375 4.628906 5.871093 9.488281 11.59375 14.582031 17.164062 12.496094 13.667969 26.375 26.414063 41.636719 38.019531 14.878906 11.3125 30.453125 21.074219 46.519531 29.332032 6.664063 3.425781 13.40625 6.597656 20.230469 9.5 39.039063 16.625 80.433594 24.765625 121.617187 24.765625 44.632813 0 89.019532-9.554688 129.898438-28.214844 9.984375-4.5625 11.441406-18.167969 2.699219-24.8125zm0 0"/><path d="m337.679688 95.535156c.589843-.015625 1.183593-.027344 1.773437-.027344h.007813c2.871093 0 5.726562.179688 8.558593.5 34.703125-.96875 64.992188 23.339844 71.292969 57.890626 1.671875 9.160156 9.652344 15.574218 18.640625 15.574218 1.128906 0 2.273437-.101562 3.425781-.3125 10.308594-1.878906 17.144532-11.757812 15.261719-22.066406-4.828125-26.496094-19.269531-50.136719-40.652344-66.566406-21.371093-16.417969-47.898437-24.285156-74.703125-22.152344-10.449218.835938-18.242187 9.976562-17.40625 20.421875.652344 8.140625 6.367188 14.652344 13.800782 16.738281zm0 0"/><path d="m519.15625 119.539062c-6.488281-35.554687-25.863281-67.289062-54.566406-89.34375-28.679688-22.042968-64.300782-32.601562-100.261719-29.734374-10.449219.835937-18.242187 9.976562-17.410156 20.421874.835937 10.441407 9.976562 18.234376 20.417969 17.402344 26.585937-2.125 52.914062 5.691406 74.128906 21.996094 21.234375 16.316406 35.566406 39.777344 40.359375 66.066406 1.667969 9.160156 9.65625 15.570313 18.640625 15.570313 1.132812 0 2.277344-.101563 3.425781-.3125 10.308594-1.878907 17.140625-11.757813 15.265625-22.066407zm0 0"/><path d="m300.886719 177.601562c.65625 4.828126 2.175781 9.328126 4.378906 13.367188 2.359375 4.328125 5.503906 8.113281 9.214844 11.214844 4.242187 3.542968 9.222656 6.1875 14.625 7.675781 3.285156.90625 6.726562 1.386719 10.253906 1.386719 1.75 0 3.519531-.117188 5.304687-.359375 21.273438-2.902344 36.167969-22.503907 33.269532-43.792969-2.65625-19.496094-19.332032-33.644531-38.476563-33.640625-1.742187 0-3.519531.117187-5.296875.363281-20.519531 2.796875-35.101562 21.132813-33.507812 41.527344.058594.746094.132812 1.503906.234375 2.257812zm0 0"/><path d="m75.539062 559.042969c-40.070312 0-73.261718 29.429687-79.160156 67.851562-.953125 6.226563 3.839844 11.855469 10.140625 11.855469h138.042969c6.300781 0 11.101562-5.628906 10.144531-11.855469-5.898437-38.421875-39.089843-67.851562-79.167969-67.851562zm0 0"/><path d="m97.015625 419.515625c-1.386719 4.433594-2.136719 9.152344-2.136719 14.039063 0 25.9375 21.023438 46.960937 46.953125 46.960937 9.550781 0 18.429688-2.863281 25.84375-7.753906-27.082031-13.722657-50.582031-31.535157-70.660156-53.246094zm0 0"/></svg>