<svg height="512pt" viewBox="0 0 512.01299 512" width="512pt" xmlns="http://www.w3.org/2000/svg"><path d="m107.363281 509.433594c2.886719 2.328125 6.710938 3.132812 10.289063 2.167968.625.207032 1.273437.339844 1.929687.390626h34.132813c18.507812 0 36.371094-14.632813 53.101562-43.519532 9.214844-15.46875 25.941406-24.890625 43.949219-24.746094h252.714844c4.710937 0 8.53125-3.820312 8.53125-8.53125 0-4.714843-3.820313-8.535156-8.53125-8.535156h-47.652344l19.558594-19.566406c3.234375-3.347656 3.1875-8.671875-.101563-11.960938-3.292968-3.292968-8.613281-3.339843-11.964844-.105468l-11.039062 11.027344v-27.0625l23.089844-23.097657c3.234375-3.347656 3.1875-8.671875-.105469-11.960937-3.289063-3.292969-8.613281-3.339844-11.960937-.105469l-11.023438 11.023437v-27.058593l23.089844-23.097657c3.234375-3.351562 3.1875-8.671874-.105469-11.964843-3.289063-3.289063-8.613281-3.335938-11.960937-.101563l-19.558594 19.566406-19.542969-19.566406c-3.378906-3.015625-8.523437-2.863281-11.71875.34375-3.195313 3.207032-3.332031 8.351563-.3125 11.722656l23.042969 23.097657v27.058593l-11.011719-11.023437c-3.378906-3.011719-8.523437-2.863281-11.71875.34375s-3.332031 8.351563-.3125 11.722656l23.042969 23.097657v27.0625l-11.011719-11.027344c-3.378906-3.011719-8.523437-2.859375-11.71875.34375-3.195313 3.207031-3.332031 8.351562-.3125 11.722656l19.523437 19.566406h-78.238281l19.554688-19.566406c3.058593-3.367188 2.9375-8.542969-.273438-11.765625-3.214843-3.21875-8.390625-3.351563-11.765625-.300781l-11.023437 11.027344v-27.0625l23.089843-23.097657c3.234376-3.347656 3.1875-8.671875-.105468-11.960937-3.289063-3.292969-8.613282-3.339844-11.960938-.105469l-11.023437 11.023437v-27.058593l23.089843-23.097657c3.234376-3.351562 3.1875-8.671874-.105468-11.964843-3.289063-3.289063-8.613282-3.335938-11.960938-.101563l-19.558594 19.566406-19.558593-19.566406c-3.332031-3.335937-8.738281-3.339844-12.074219-.007812-3.335938 3.332031-3.339844 8.734375-.007812 12.074218l23.089843 23.097657v27.058593l-11.023437-11.023437c-3.347656-3.234375-8.671875-3.1875-11.964844.105469-3.289062 3.289062-3.335938 8.613281-.101562 11.960937l23.089843 23.097657v27.0625l-11.023437-11.027344c-3.347656-3.234375-8.671875-3.1875-11.964844.105468-3.289062 3.289063-3.335938 8.613282-.101562 11.960938l19.550781 19.566406h-78.566407c-24.09375-.128906-46.445312 12.539063-58.710937 33.28125-13.074219 22.5625-26.691406 34.984375-38.339844 34.984375h-26.25c-6.957031-30.265625-10.675781-61.1875-11.09375-92.242187-.628906-24.148438.542969-48.304688 3.5-72.277344 7.253907-58.964844 26.199219-118.785156 63.828125-162.648438 4.191406-4.753906 4.511719-11.78125.769532-16.894531-.085938-.171875-.257813-.339843-.339844-.511719-4.035156-5.203124-11.195313-6.816406-17.066406-3.839843-22.1875 11.179687-68.867188 38.3125-95.574219 79.785156-6.226563 9.398437-11.164063 19.585937-14.679688 30.292969-10.367187-28.5-22.910156-63.144532-31.1875-86.441406-1.535156-4.265626-2.902343-8.191407-4.097656-11.605469-1.726563-5.117188-6.902344-8.234375-12.234375-7.367188-5.332031.867188-9.25 5.464844-9.2695312 10.867188-.4257808 80.554687 9.1328122 275.625 107.3515622 347.390625zm0 0"/><path d="m472.84375 3.917969c-.472656.242187-.90625.5625-1.277344.941406l-321.878906 297.898437v.085938c-4.617188 25.121094-7.214844 50.578125-7.765625 76.117188l358.828125-332.117188c11.394531-7.757812 14.632812-23.125 7.335938-34.816406v-.085938c-7.53125-11.925781-23.289063-15.515625-35.242188-8.023437zm0 0"/></svg>