<?xml version="1.0" encoding="iso-8859-1"?>
<!-- Generator: Adobe Illustrator 18.1.1, SVG Export Plug-In . SVG Version: 6.00 Build 0)  -->
<svg version="1.1" id="Capa_1" xmlns="http://www.w3.org/2000/svg" xmlns:xlink="http://www.w3.org/1999/xlink" x="0px" y="0px"
	 viewBox="0 0 46.642 46.642" style="enable-background:new 0 0 46.642 46.642;" xml:space="preserve">
<g>
	<path d="M0,22.102v8.23h0.913v4.039h4.409c0.432,1.539,1.841,2.667,3.518,2.667s3.085-1.128,3.518-2.667h21.77
		c0.433,1.539,1.844,2.667,3.521,2.667c1.675,0,3.085-1.128,3.518-2.667h0.597v0.19h4.878v-1.753h-1.926
		c0.632-5.116,2.217-21.072-2.647-21.072c-3.754,0-15.957,0-24.08,0v-0.303c0-1.011-0.819-1.829-1.83-1.829
		c-1.009,0-1.829,0.818-1.829,1.829v0.304c-2.418,0-3.963,0-3.963,0l-5.352,7L0,22.102z M23.624,18.75h3.352v-3.354h4.114v3.354
		h3.354v4.114H31.09v3.354h-4.114v-3.354h-3.352V18.75z M12.498,19.665h2.589v1.219h-2.589V19.665z M7.772,18.445l3.049-4.877h4.267
		v4.877H7.772z"/>
	<g>
	</g>
	<g>
	</g>
	<g>
	</g>
	<g>
	</g>
	<g>
	</g>
	<g>
	</g>
	<g>
	</g>
	<g>
	</g>
	<g>
	</g>
	<g>
	</g>
	<g>
	</g>
	<g>
	</g>
	<g>
	</g>
	<g>
	</g>
	<g>
	</g>
</g>
<g>
</g>
<g>
</g>
<g>
</g>
<g>
</g>
<g>
</g>
<g>
</g>
<g>
</g>
<g>
</g>
<g>
</g>
<g>
</g>
<g>
</g>
<g>
</g>
<g>
</g>
<g>
</g>
<g>
</g>
</svg>
