<?xml version="1.0" encoding="iso-8859-1"?>
<!-- Generator: Adobe Illustrator 16.0.0, SVG Export Plug-In . SVG Version: 6.00 Build 0)  -->
<!DOCTYPE svg PUBLIC "-//W3C//DTD SVG 1.1//EN" "http://www.w3.org/Graphics/SVG/1.1/DTD/svg11.dtd">
<svg version="1.1" id="Capa_1" xmlns="http://www.w3.org/2000/svg" xmlns:xlink="http://www.w3.org/1999/xlink" x="0px" y="0px"
	 width="79.536px" height="79.537px" viewBox="0 0 79.536 79.537" style="enable-background:new 0 0 79.536 79.537;"
	 xml:space="preserve">
<g>
	<path style="fill:#010002;" d="M8.691,67.761v11.526h-6.04V37.096c0-1.667,1.352-3.034,3.017-3.034l0,0
		c1.688,0,3.019,1.367,3.019,3.034v24.948h68.105v17.243h-6.09V67.761H8.691z M17.997,49.254c3.016,0,5.46-2.444,5.46-5.479
		c0-3.011-2.444-5.455-5.46-5.455c-3.035,0-5.479,2.444-5.479,5.455C12.513,46.81,14.957,49.254,17.997,49.254z M76.885,57.508
		l-0.021-7.529c-0.021-2.392-2.029-4.039-4.36-4.329l-42.991-4.276c-0.09-0.021-0.163-0.062-0.238-0.062
		c-1.479,0-2.688,1.214-2.688,2.683v8.119H15.34c-1.501,0-2.706,1.217-2.706,2.703c0,1.491,1.204,2.692,2.706,2.692H76.885z
		 M79.536,20.037L39.82,0.3l-0.016-0.052l-0.036,0.021l-0.037-0.021L39.717,0.3L0,20.037l3.309,6.659L39.769,8.572l36.459,18.124
		L79.536,20.037z"/>
</g>
<g>
</g>
<g>
</g>
<g>
</g>
<g>
</g>
<g>
</g>
<g>
</g>
<g>
</g>
<g>
</g>
<g>
</g>
<g>
</g>
<g>
</g>
<g>
</g>
<g>
</g>
<g>
</g>
<g>
</g>
</svg>
