<?xml version="1.0" encoding="iso-8859-1"?>
<!-- Generator: Adobe Illustrator 17.1.0, SVG Export Plug-In . SVG Version: 6.00 Build 0)  -->
<!DOCTYPE svg PUBLIC "-//W3C//DTD SVG 1.1//EN" "http://www.w3.org/Graphics/SVG/1.1/DTD/svg11.dtd">
<svg version="1.1" id="Capa_1" xmlns="http://www.w3.org/2000/svg" xmlns:xlink="http://www.w3.org/1999/xlink" x="0px" y="0px"
	 viewBox="0 0 203.027 203.027" style="enable-background:new 0 0 203.027 203.027;" xml:space="preserve">
<path d="M57.034,166.534c2.398,3.801,3.664,8.181,3.664,12.685c0,13.128-10.681,23.809-23.809,23.809S13.08,192.347,13.08,179.219
	c0-4.522,1.276-8.919,3.692-12.731l13.664-23.069c1.351-2.28,3.803-3.678,6.453-3.678c2.649,0,5.103,1.398,6.453,3.678
	L57.034,166.534z M190.514,43.376h-49.038v-1.025c0-4.142-3.357-7.5-7.5-7.5h-11.233v-6.495h30.661c4.143,0,7.5-3.358,7.5-7.5
	v-4.251C160.903,7.449,153.454,0,144.298,0H76.017c-9.156,0-16.605,7.449-16.605,16.605v4.251c0,4.142,3.358,7.5,7.5,7.5h30.662
	v6.495H86.339c-4.142,0-7.5,3.358-7.5,7.5v1.025H58.84c-27.156,0-49.249,22.093-49.249,49.25v25.194
	c-2.69,1.139-4.578,3.804-4.578,6.909c0,4.142,3.358,7.5,7.5,7.5h4.578h35.714h4.103c4.142,0,7.5-3.358,7.5-7.5
	c0-2.918-1.67-5.441-4.103-6.681v-16.932c0-4.429,3.603-8.032,8.032-8.032h10.502v2.547c0,4.142,3.358,7.5,7.5,7.5h47.636
	c4.143,0,7.5-3.358,7.5-7.5v-0.329h49.038c4.143,0,7.5-3.358,7.5-7.5V50.876C198.014,46.734,194.656,43.376,190.514,43.376z"/>
<g>
</g>
<g>
</g>
<g>
</g>
<g>
</g>
<g>
</g>
<g>
</g>
<g>
</g>
<g>
</g>
<g>
</g>
<g>
</g>
<g>
</g>
<g>
</g>
<g>
</g>
<g>
</g>
<g>
</g>
</svg>
