<svg height="440pt" viewBox="0 -12 440 440" width="440pt" xmlns="http://www.w3.org/2000/svg"><path d="m432 256v-64c-.039062-30.910156-25.089844-55.960938-56-56h-82.71875c-2.859375 0-5.5-1.523438-6.929688-4-10.289062-17.835938-27.722656-30.414062-47.894531-34.550781h-.058593c-2.363282-.480469-4.75-.84375-7.152344-1.082031-28.191406-2.867188-55.441406 11.082031-69.597656 35.632812-1.429688 2.476562-4.070313 4-6.929688 4h-106.71875v64h106.71875c2.855469.003906 5.492188 1.527344 6.921875 4 12.859375 22.28125 36.632813 36.011719 62.359375 36.011719s49.5-13.730469 62.359375-36.011719c1.429687-2.472656 4.066406-3.996094 6.921875-4h66.71875c4.417969 0 8 3.582031 8 8v48zm0 0"/><path d="m296 0c-8.558594.015625-16.464844 4.585938-20.742188 12-1.433593 2.476562-4.078124 4.003906-6.9375 4h-88.640624c-2.859376.003906-5.503907-1.523438-6.9375-4-5.429688-9.40625-16.503907-13.992188-26.996094-11.183594-10.492188 2.8125-17.785156 12.320313-17.785156 23.183594s7.292968 20.371094 17.785156 23.183594c10.492187 2.808594 21.566406-1.777344 26.996094-11.183594 1.433593-2.476562 4.078124-4.003906 6.9375-4h28.320312v48.359375c2.65625-.238281 13.328125-.359375 16-.359375s13.34375.121094 16 .359375v-48.359375h28.320312c2.859376-.003906 5.503907 1.523438 6.9375 4 5.824219 10.089844 18.058594 14.539062 29.003907 10.546875 10.949219-3.992187 17.445312-15.269531 15.410156-26.742187-2.035156-11.472657-12.019531-19.8242192-23.671875-19.804688zm0 0"/><path d="m32 112c.050781-10.605469-4.171875-20.785156-11.710938-28.238281-5.519531-5.597657-12.585937-9.414063-20.289062-10.960938v190.398438c18.613281-3.824219 31.980469-20.199219 32-39.199219zm0 0"/><path d="m400 294.34375c-17.601562 26.902344-40 66.183594-40 81.65625 0 22.089844 17.910156 40 40 40s40-17.910156 40-40c0-15.480469-22.398438-54.753906-40-81.65625zm0 0"/></svg>