<?xml version="1.0" encoding="iso-8859-1"?>
<!-- Generator: Adobe Illustrator 19.0.0, SVG Export Plug-In . SVG Version: 6.00 Build 0)  -->
<svg version="1.1" id="Capa_1" xmlns="http://www.w3.org/2000/svg" xmlns:xlink="http://www.w3.org/1999/xlink" x="0px" y="0px"
	 viewBox="0 0 377.862 377.862" style="enable-background:new 0 0 377.862 377.862;" xml:space="preserve">
<g>
	<g>
		<path d="M219.231,35.128c-11.08-12.84-21.2-24.52-29.24-34.6l-0.2-0.24c-0.578-0.451-1.41-0.363-1.88,0.2
			c-8,10.08-18.16,21.76-29.24,34.6c-48.56,56.28-115.6,133.88-115.6,196.92c-0.057,38.702,15.318,75.829,42.72,103.16
			c56.988,56.952,149.354,56.922,206.305-0.065c27.332-27.349,42.688-64.43,42.695-103.095
			C334.791,168.968,267.751,91.328,219.231,35.128z M274.911,262.728c-15.613,46.701-66.129,71.902-112.83,56.289
			c-24.476-8.183-44.205-26.57-54.09-50.409l-11.04,2.36c-3.869,0.816-7.667-1.659-8.483-5.528c-0.26-1.234-0.19-2.514,0.203-3.712
			l-0.12-0.04l5.52-16.72l5.44-16.56c1.206-3.766,5.237-5.841,9.003-4.635c1.379,0.441,2.591,1.291,3.477,2.435l11.32,12.64
			l11.64,13c2.633,2.951,2.375,7.477-0.575,10.109c-0.967,0.863-2.151,1.448-3.425,1.691l-8.76,1.84
			c17.116,37.623,61.49,54.247,99.113,37.131c18.934-8.613,33.428-24.718,40.007-44.451c1.259-3.755,5.324-5.779,9.08-4.52
			C274.147,254.907,276.17,258.972,274.911,262.728z M291.911,207.328l-5.44,16.56l-5.44,16.56
			c-1.206,3.766-5.237,5.841-9.003,4.635c-1.379-0.442-2.591-1.291-3.477-2.435l-11.32-12.64l-11.48-13.04
			c-2.633-2.951-2.375-7.477,0.576-10.109c0.967-0.863,2.151-1.448,3.424-1.691l8.76-1.84
			c-17.095-37.632-61.46-54.281-99.092-37.186c-19.603,8.905-34.421,25.821-40.668,46.426c-0.864,3.859-4.692,6.287-8.551,5.423
			c-3.859-0.864-6.287-4.692-5.423-8.551c0.066-0.296,0.151-0.587,0.254-0.871l-0.08-0.16
			c14.411-47.086,64.265-73.573,111.35-59.162c25.462,7.793,46.108,26.558,56.29,51.162l11.04-2.32
			c3.869-0.816,7.667,1.659,8.483,5.528C292.375,204.85,292.305,206.13,291.911,207.328z"/>
	</g>
</g>
<g>
</g>
<g>
</g>
<g>
</g>
<g>
</g>
<g>
</g>
<g>
</g>
<g>
</g>
<g>
</g>
<g>
</g>
<g>
</g>
<g>
</g>
<g>
</g>
<g>
</g>
<g>
</g>
<g>
</g>
</svg>
