<?xml version="1.0" encoding="iso-8859-1"?>
<!-- Generator: Adobe Illustrator 19.0.0, SVG Export Plug-In . SVG Version: 6.00 Build 0)  -->
<svg version="1.1" id="Capa_1" xmlns="http://www.w3.org/2000/svg" xmlns:xlink="http://www.w3.org/1999/xlink" x="0px" y="0px"
	 viewBox="0 0 512 512" style="enable-background:new 0 0 512 512;" xml:space="preserve">
<g>
	<g>
		<path d="M287.43,24.997c-11.395-12.122-22.863-19.516-23.347-19.824L256,0l-8.084,5.173c-0.483,0.309-11.951,7.702-23.347,19.825
			c-16.075,17.101-24.573,35.707-24.573,53.811c0,30.88,25.124,56.002,56.003,56.002c30.88,0,56.003-25.123,56.003-56.003
			C312.003,60.704,303.506,42.097,287.43,24.997z"/>
	</g>
</g>
<g>
	<g>
		<path d="M411.719,421.954v-31.04c-4.91,0.651-9.916,0.992-15,0.992h-15v30.048H130.281v-30.048h-15c-5.085,0-10.09-0.342-15-0.992
			v31.04H0.016V512h511.968v-90.046H411.719z"/>
	</g>
</g>
<g>
	<g>
		<path d="M1.756,278.382c0,57.512,42.991,105.168,98.524,112.531V165.851C44.748,173.214,1.756,220.87,1.756,278.382z"/>
	</g>
</g>
<g>
	<g>
		<path d="M411.719,165.851v225.062c55.533-7.364,98.524-55.019,98.524-112.531C510.243,220.87,467.252,173.214,411.719,165.851z"/>
	</g>
</g>
<g>
	<g>
		<rect x="130.278" y="164.857" width="251.436" height="227.046"/>
	</g>
</g>
<g>
</g>
<g>
</g>
<g>
</g>
<g>
</g>
<g>
</g>
<g>
</g>
<g>
</g>
<g>
</g>
<g>
</g>
<g>
</g>
<g>
</g>
<g>
</g>
<g>
</g>
<g>
</g>
<g>
</g>
</svg>
