<?xml version="1.0" encoding="iso-8859-1"?>
<!-- Generator: Adobe Illustrator 19.0.0, SVG Export Plug-In . SVG Version: 6.00 Build 0)  -->
<svg version="1.1" id="Capa_1" xmlns="http://www.w3.org/2000/svg" xmlns:xlink="http://www.w3.org/1999/xlink" x="0px" y="0px"
	 viewBox="0 0 418.133 418.133" style="enable-background:new 0 0 418.133 418.133;" xml:space="preserve">
<g>
	<g>
		<path d="M341.547,311.467h-1.067c-16.813-0.514-30.482-13.721-31.573-30.507c0,0,0-1.92,0-3.2v-37.333
			c-0.07-0.709-0.07-1.424,0-2.133c-0.077-0.78-0.077-1.566,0-2.347c1.515-16.529,15.193-29.289,31.787-29.653
			c7.01-0.331,12.585-5.999,12.8-13.013c0-7.187-5.826-13.013-13.013-13.013c-18.026,0.118-32.735-14.399-32.853-32.425
			c0,0,0-0.001,0-0.001c0.074-2.903,0.578-5.778,1.493-8.533c-15.199-13.299-35.52-19.161-55.467-16l4.053,8.107l11.52,23.04
			c1.451,2.471,2.733,5.037,3.84,7.68c14.452,35.587-2.681,76.152-38.268,90.604c-35.587,14.452-76.152-2.681-90.604-38.268
			c-3.231-7.956-4.961-16.442-5.101-25.029c0.146-7.235,1.295-14.414,3.413-21.333c-12.38-1.009-24.357-4.88-34.987-11.307
			c-4.15,13.69-16.632,23.159-30.933,23.467c-7.06-0.355-13.071,5.081-13.426,12.142c-0.015,0.29-0.019,0.581-0.014,0.872
			c-0.001,7.105,5.696,12.897,12.8,13.013c16.858,0.319,30.576,13.664,31.36,30.507c0,0,0,1.493,0,2.56v37.547
			c0.07,0.709,0.07,1.424,0,2.133c0.12,0.778,0.12,1.569,0,2.347c-0.861,16.325-13.963,29.335-30.293,30.08
			c-6.95-0.122-12.683,5.414-12.805,12.364c-0.004,0.216-0.002,0.433,0.005,0.649c0,7.187,5.826,13.013,13.013,13.013h0h264.107
			c7.139-0.114,12.899-5.874,13.013-13.013C354.348,317.375,348.65,311.583,341.547,311.467z"/>
	</g>
</g>
<g>
	<g>
		<path d="M341.333,356.693h-281.6v61.44H358.4v-61.44H341.333z M127.573,397.013H109.44c-5.361,0-9.707-4.346-9.707-9.707
			s4.346-9.707,9.707-9.707h18.133c5.361,0,9.707,4.346,9.707,9.707S132.934,397.013,127.573,397.013z M234.667,397.013h-18.133
			V377.6h18.133V397.013z M271.36,397.013h-18.133V377.6h18.133V397.013z M308.053,397.013h-17.92V377.6h17.92V397.013z"/>
	</g>
</g>
<g>
	<g>
		<path d="M340.48,90.027c-17.673-2.896-29.653-19.57-26.757-37.243c2.251-13.738,13.019-24.506,26.757-26.757
			c7.104-0.116,12.801-5.909,12.8-13.013C353.166,5.874,347.406,0.114,340.267,0H76.373C69.186,0,63.36,5.826,63.36,13.013
			c-0.118,7.068,5.517,12.894,12.585,13.012c0.072,0.001,0.143,0.002,0.215,0.002c17.298,0.089,31.522,13.659,32.427,30.933
			c0.118,17.791-14.208,32.308-31.999,32.427c0,0-0.001,0-0.001,0c-7.06-0.354-13.071,5.082-13.425,12.142
			c-0.007,0.148-0.012,0.296-0.015,0.444c-0.001,7.105,5.696,12.897,12.8,13.013c10.855,0.094,20.877,5.833,26.453,15.147
			c12.791,12.372,29.782,19.457,47.573,19.84l8.747-17.707l40.32-81.707c1.759-3.047,5.015-4.919,8.533-4.907
			c3.555-0.158,6.882,1.754,8.533,4.907l27.52,55.467c27.027-6.74,55.65-0.336,77.227,17.28c5.548-4.687,12.577-7.257,19.84-7.253
			c7.01-0.331,12.585-5.999,12.8-13.013C353.493,95.853,347.667,90.027,340.48,90.027z"/>
	</g>
</g>
<g>
	<g>
		<path d="M198.827,189.658c0-0.002,0-0.003,0-0.005h-19.413c-0.118,15.788,12.584,28.682,28.372,28.8c0.001,0,0.001,0,0.002,0
			V199.04C202.722,198.924,198.71,194.723,198.827,189.658z"/>
	</g>
</g>
<g>
</g>
<g>
</g>
<g>
</g>
<g>
</g>
<g>
</g>
<g>
</g>
<g>
</g>
<g>
</g>
<g>
</g>
<g>
</g>
<g>
</g>
<g>
</g>
<g>
</g>
<g>
</g>
<g>
</g>
</svg>
