<?xml version="1.0" encoding="iso-8859-1"?>
<!-- Generator: Adobe Illustrator 18.0.0, SVG Export Plug-In . SVG Version: 6.00 Build 0)  -->
<!DOCTYPE svg PUBLIC "-//W3C//DTD SVG 1.1//EN" "http://www.w3.org/Graphics/SVG/1.1/DTD/svg11.dtd">
<svg version="1.1" id="Capa_1" xmlns="http://www.w3.org/2000/svg" xmlns:xlink="http://www.w3.org/1999/xlink" x="0px" y="0px"
	 viewBox="0 0 60 60" style="enable-background:new 0 0 60 60;" xml:space="preserve">
<g>
	<path d="M31,34.973V16.5c0-0.552-0.447-1-1-1s-1,0.448-1,1v18.489L11.414,47.689c-0.447,0.323-0.548,0.948-0.225,1.396
		c0.322,0.447,0.946,0.548,1.396,0.225l17.43-12.588l18.42,12.603c0.173,0.118,0.369,0.175,0.563,0.175
		c0.319,0,0.633-0.152,0.826-0.436c0.312-0.456,0.195-1.078-0.261-1.39L31,34.973z"/>
	<path d="M29,8.914V11.5c0,0.552,0.447,1,1,1s1-0.448,1-1V8.914l2.707-2.707c0.391-0.391,0.391-1.023,0-1.414s-1.023-0.391-1.414,0
		L30,7.086l-2.293-2.293c-0.391-0.391-1.023-0.391-1.414,0s-0.391,1.023,0,1.414L29,8.914z"/>
	<path d="M57.414,51.5l2.293-2.293c0.391-0.391,0.391-1.023,0-1.414s-1.023-0.391-1.414,0L56,50.086l-2.293-2.293
		c-0.391-0.391-1.023-0.391-1.414,0s-0.391,1.023,0,1.414l2.293,2.293l-2.293,2.293c-0.391,0.391-0.391,1.023,0,1.414
		C52.488,55.402,52.744,55.5,53,55.5s0.512-0.098,0.707-0.293L56,52.914l2.293,2.293C58.488,55.402,58.744,55.5,59,55.5
		s0.512-0.098,0.707-0.293c0.391-0.391,0.391-1.023,0-1.414L57.414,51.5z"/>
	<path d="M7.923,48.882c0.101-0.244,0.101-0.52,0-0.764c-0.101-0.245-0.296-0.44-0.541-0.541C7.26,47.527,7.13,47.5,7,47.5H1
		c-0.553,0-1,0.448-1,1s0.447,1,1,1h3.586l-4.292,4.292c-0.093,0.092-0.166,0.203-0.217,0.326c-0.101,0.244-0.101,0.52,0,0.764
		c0.101,0.245,0.296,0.44,0.541,0.541C0.74,55.473,0.87,55.5,1,55.5h6c0.553,0,1-0.448,1-1s-0.447-1-1-1H3.414l4.292-4.292
		C7.799,49.115,7.872,49.005,7.923,48.882z"/>
</g>
<g>
</g>
<g>
</g>
<g>
</g>
<g>
</g>
<g>
</g>
<g>
</g>
<g>
</g>
<g>
</g>
<g>
</g>
<g>
</g>
<g>
</g>
<g>
</g>
<g>
</g>
<g>
</g>
<g>
</g>
</svg>
