<?xml version="1.0" encoding="iso-8859-1"?>
<!-- Generator: Adobe Illustrator 18.1.1, SVG Export Plug-In . SVG Version: 6.00 Build 0)  -->
<svg version="1.1" id="Capa_1" xmlns="http://www.w3.org/2000/svg" xmlns:xlink="http://www.w3.org/1999/xlink" x="0px" y="0px"
	 viewBox="0 0 26 26" style="enable-background:new 0 0 26 26;" xml:space="preserve">
<g>
	<path style="fill:#030104;" d="M20,0H6C4.344,0,3,1.344,3,3v20c0,1.656,1.344,3,3,3h14c1.656,0,3-1.344,3-3V3
		C23,1.344,21.656,0,20,0z M21,8c0,0.551-0.449,1-1,1H6C5.449,9,5,8.551,5,8V3c0-0.551,0.449-1,1-1h14c0.551,0,1,0.449,1,1V8z M9,13
		c0,0.551-0.449,1-1,1H6c-0.551,0-1-0.449-1-1v-1c0-0.551,0.449-1,1-1h2c0.551,0,1,0.449,1,1V13z M15,13c0,0.551-0.449,1-1,1h-2
		c-0.551,0-1-0.449-1-1v-1c0-0.551,0.449-1,1-1h2c0.551,0,1,0.449,1,1V13z M21,13c0,0.551-0.449,1-1,1h-2c-0.551,0-1-0.449-1-1v-1
		c0-0.551,0.449-1,1-1h2c0.551,0,1,0.449,1,1V13z M9,18c0,0.551-0.449,1-1,1H6c-0.551,0-1-0.449-1-1v-1c0-0.551,0.449-1,1-1h2
		c0.551,0,1,0.449,1,1V18z M15,18c0,0.551-0.449,1-1,1h-2c-0.551,0-1-0.449-1-1v-1c0-0.551,0.449-1,1-1h2c0.551,0,1,0.449,1,1V18z
		 M21,18c0,0.551-0.449,1-1,1h-2c-0.551,0-1-0.449-1-1v-1c0-0.551,0.449-1,1-1h2c0.551,0,1,0.449,1,1V18z M9,23c0,0.551-0.449,1-1,1
		H6c-0.551,0-1-0.449-1-1v-1c0-0.551,0.449-1,1-1h2c0.551,0,1,0.449,1,1V23z M15,23c0,0.551-0.449,1-1,1h-2c-0.551,0-1-0.449-1-1v-1
		c0-0.551,0.449-1,1-1h2c0.551,0,1,0.449,1,1V23z M21,23c0,0.551-0.449,1-1,1h-2c-0.551,0-1-0.449-1-1v-1c0-0.551,0.449-1,1-1h2
		c0.551,0,1,0.449,1,1V23z"/>
	<g>
		<g>
			<path style="fill:#030104;" d="M19,4v3h-2V4H19 M19,3h-2c-0.551,0-1,0.449-1,1v3c0,0.551,0.449,1,1,1h2c0.551,0,1-0.449,1-1V4
				C20,3.449,19.551,3,19,3L19,3z"/>
		</g>
	</g>
</g>
<g>
</g>
<g>
</g>
<g>
</g>
<g>
</g>
<g>
</g>
<g>
</g>
<g>
</g>
<g>
</g>
<g>
</g>
<g>
</g>
<g>
</g>
<g>
</g>
<g>
</g>
<g>
</g>
<g>
</g>
</svg>
