<?xml version="1.0" encoding="iso-8859-1"?>
<!-- Generator: Adobe Illustrator 16.0.0, SVG Export Plug-In . SVG Version: 6.00 Build 0)  -->
<!DOCTYPE svg PUBLIC "-//W3C//DTD SVG 1.1//EN" "http://www.w3.org/Graphics/SVG/1.1/DTD/svg11.dtd">
<svg version="1.1" id="Capa_1" xmlns="http://www.w3.org/2000/svg" xmlns:xlink="http://www.w3.org/1999/xlink" x="0px" y="0px"
	 width="93.51px" height="93.51px" viewBox="0 0 93.51 93.51" style="enable-background:new 0 0 93.51 93.51;" xml:space="preserve"
	>
<g>
	<g>
		<path d="M47.03,42.306c0.22,0.99,0.962,1.677,1.979,1.677c0.66,0,1.32-0.302,1.87-0.825l26.485-25.357
			c0.797-0.77,1.265-1.843,1.265-2.86c0-0.825-0.329-1.567-0.907-2.145C70.709,6.113,61.277,1.96,51.156,1.081
			C49.23,0.916,46.92,2.4,46.92,4.435l0,0l0,0v37.348l0,0l0,0C46.947,41.976,46.974,42.141,47.03,42.306z"/>
		<path d="M46.452,50.034c-1.292-1.293-2.613-2.062-2.613-4.125l0.138-39.851c0.137-0.77,0.055-1.348-0.248-1.733
			c-0.22-0.248-0.522-0.413-0.853-0.413C19.224,3.912,0,24.016,0,48.741c0,24.093,19.747,43.701,44.031,43.701
			c10.918,0,21.37-4.098,29.428-11.551c0.688-0.633,1.1-1.513,1.1-2.476c0.027-0.964-0.356-1.844-1.018-2.53L46.452,50.034z"/>
		<path d="M83.607,21.047c-1.184-1.458-3.549-1.541-4.924-0.22L52.502,46.184c-0.688,0.66-1.045,1.54-1.072,2.475
			c0,0.937,0.357,1.815,1.019,2.503l25.879,25.881c0.798,0.77,1.513,1.018,2.421,1.018c0.962,0,1.87-0.413,2.502-1.155
			c6.602-7.864,10.26-17.849,10.26-28.106C93.536,38.676,89.988,28.831,83.607,21.047z"/>
	</g>
</g>
<g>
</g>
<g>
</g>
<g>
</g>
<g>
</g>
<g>
</g>
<g>
</g>
<g>
</g>
<g>
</g>
<g>
</g>
<g>
</g>
<g>
</g>
<g>
</g>
<g>
</g>
<g>
</g>
<g>
</g>
</svg>
