<svg height="447pt" viewBox="0 -15 447.94276 447" width="447pt" xmlns="http://www.w3.org/2000/svg"><path d="m232.445312 283.320312c-1.152343-3.113281-.265624-6.613281 2.230469-8.800781l48-41.984375h-87.023437l-74.460938 87.96875h87.773438c2.917968 0 5.605468 1.589844 7.011718 4.148438 1.402344 2.558594 1.304688 5.675781-.257812 8.140625l-53.25 83.808593 151.609375-128.097656h-74.136719c-3.335937.003906-6.320312-2.0625-7.496094-5.183594zm-53.734374 22.351563-12.210938-10.335937 24-28.335938 12.210938 10.304688zm34.039062-40.800781-12.304688-10.238282 9.34375-11.199218 12.304688 10.238281zm0 0"/><path d="m435.75 136.648438c-19.960938.761718-35.761719 17.136718-35.808594 37.113281h-16c.046875-26.140625 19.046875-48.390625 44.855469-52.527344 6.519531-17.292969 2.503906-36.792969-10.320313-50.097656-12.820312-13.304688-32.160156-18.039063-49.679687-12.160157-.335937.0625-.675781.097657-1.015625.113282-21.171875 15.886718-50.808594 13.789062-69.527344-4.929688l11.3125-11.3125c12.558594 12.523438 32.199219 14.46875 46.976563 4.65625-7.667969-19.929687-27.511719-32.460937-48.800781-30.816406-10.59375.914062-20.578126 5.355469-28.34375 12.617188-.613282.472656-1.292969.855468-2.015626 1.128906-14.300781 14.582031-14.207031 37.957031.214844 52.421875l-11.3125 11.3125c-10.691406-10.703125-16.304687-25.464844-15.429687-40.566407l-.570313.566407c-6.972656-7.007813-16.457031-10.941407-26.34375-10.917969v-16c10.921875-.015625 21.582032 3.355469 30.511719 9.644531 2.191406-5.550781 5.308594-10.691406 9.222656-15.199219-9.492187-14.167968-25.804687-22.21875-42.828125-21.125-17.019531 1.089844-32.171875 11.15625-39.777344 26.421876-1.128906 2.246093-3.25 3.832031-5.722656 4.28125-2.476562.449218-5.015625-.292969-6.863281-2-12.46875-11.585938-30.15625-15.675782-46.449219-10.75-16.292968 4.929687-28.742187 18.136718-32.703125 34.691406-.523437 2.175781-1.933593 4.035156-3.890625 5.121094-1.957031 1.085937-4.277344 1.304687-6.402344.601562-16.011718-5.496094-33.738281-2.082031-46.558593 8.96875-12.824219 11.050781-18.8125 28.078125-15.738281 44.726562 15.664062-7.558593 34.03125-7.015624 49.222656 1.457032 2.453125-8.792969 7.140625-16.796875 13.601562-23.242188l11.3125 11.3125c-14.550781 14.550782-14.550781 38.140625 0 52.6875l-11.335937 11.3125c-9.054688-9.019531-14.527344-21.011718-15.410157-33.757812-12.894531-11.101563-31.679687-12.023438-45.597656-2.242188-.371094.554688-.808594 1.0625-1.304687 1.503906-15.496094 12.941407-21.234375 34.195313-14.363281 53.179688 6.871093 18.980469 24.886718 31.636719 45.074218 31.660156h23.3125c-1.644531-10.347656-6.523437-19.90625-13.9375-27.3125l-3.03125-3.03125 11.3125-11.3125 3.03125 3.03125c10.429688 10.394532 17.046875 24.003906 18.777344 38.625h49.421875c-16.300781-15.894531-21.34375-40.078125-12.753906-61.164062 8.589843-21.082032 29.101562-34.859375 51.867187-34.835938h15.089844c-3.765625-17.0625-18.871094-29.222656-36.34375-29.253906v-.28125c-9.203125 6.996094-20.441406 10.789062-32 10.792969v-16c20.566406-.023438 37.230469-16.691407 37.253906-37.257813h16c-.003906 10.066406-2.878906 19.921875-8.289062 28.410156 20.765625 5.253907 36.371094 22.421876 39.625 43.589844h124.097656c1.65625-11.230468 6.886719-21.628906 14.910156-29.65625l11.3125 11.3125c-14.519531 14.5625-14.519531 38.125 0 52.6875l-11.3125 11.3125c-8.023437-8.027344-13.253906-18.425781-14.910156-29.65625h-67.625c-.90625 16.078125-7.714844 31.257813-19.121094 42.625l-3.03125 3.03125-11.3125-11.3125 3.03125-3.03125c8.40625-8.375 13.527344-19.484375 14.433594-31.3125h-71.808594c-21.511718-.035156-39.179687 16.988282-39.945312 38.488282-.761719 21.5 15.652344 39.734374 37.113281 41.222656 2.433594-13.015625 8.757813-24.988282 18.144531-34.335938l3.03125-3.03125 11.3125 11.3125-3.03125 3.03125c-6.425781 6.421875-10.964844 14.488282-13.121094 23.3125h141.207032c-5.484375-14.417968-19.285156-23.960937-34.710938-24v-16c24.28125.042969 45.464844 16.488282 51.519532 40h52.480468c18.910156.03125 36.070313-11.058594 43.808594-28.3125 7.734375-17.253906 4.601562-37.445312-8-51.542968zm0 0"/></svg>