<svg height="448pt" viewBox="-1 0 448 448" width="448pt" xmlns="http://www.w3.org/2000/svg"><path d="m293.136719 80c-39.765625 0-72 32.234375-72 72s32.234375 72 72 72 72-32.234375 72-72c-.050781-39.746094-32.257813-71.953125-72-72zm0 112c-22.09375 0-40-17.910156-40-40s17.90625-40 40-40c22.089843 0 40 17.910156 40 40-.027344 22.082031-17.921875 39.972656-40 40zm0 0"/><path d="m333.136719 273.488281v30.511719c0 8.835938-7.164063 16-16 16h-48c-8.835938 0-16-7.164062-16-16v-30.503906c-3.816407-1.257813-7.5625-2.679688-11.199219-4.257813-2.175781-.949219-4.335938-1.957031-6.457031-3.03125l-21.542969 21.554688c-6.25 6.25-16.382812 6.25-22.632812 0l-33.929688-33.9375c-6.25-6.25-6.25-16.382813 0-22.632813l21.554688-21.542968c-2.871094-5.691407-5.304688-11.589844-7.28125-17.648438h-30.511719c-8.835938 0-16-7.164062-16-16v-48c0-8.835938 7.164062-16 16-16h30.503906c1.253906-3.816406 2.679687-7.558594 4.253906-11.199219.953125-2.175781 1.960938-4.335937 3.035157-6.457031l-10.402344-10.398438c-10.382813 2.453126-20.578125 5.644532-30.511719 9.542969-53.699219 19.269531-92.105469 66.957031-99.488281 123.527344-.070313.558594-.203125 1.109375-.390625 1.640625-12.34375 35.128906-30.761719 93.703125-38.136719 117.34375h37.136719c4.417969 0 8 3.582031 8 8v23.808594c16.265625-1.140625 31.398437-8.75 42.015625-21.128906l12 10.640624c-13.722656 15.714844-33.1875 25.257813-54.015625 26.480469v24.199219c.027343 22.082031 17.917969 39.972656 40 40h248v-20.398438c0-7.210937.175781-14.414062.527343-21.601562 2.960938-38.722656 8.898438-77.15625 17.761719-114.96875.917969-4.550781 3.519531-15.488281 4.519531-19.648438l-5.160156-5.167968c-5.691406 2.867187-11.589844 5.296875-17.648437 7.273437zm-248 6.511719c-8.835938 0-16-7.164062-16-16s7.164062-16 16-16c8.835937 0 16 7.164062 16 16s-7.164063 16-16 16zm232 144.0625-16-.125c.164062-18.183594 1.3125-36.34375 3.429687-54.402344l15.890625 1.839844c-2.050781 17.492188-3.160156 35.078125-3.320312 52.6875zm5.382812-68.40625-15.832031-2.320312c.890625-6.101563 1.886719-12.269532 2.992188-18.503907l15.761718 2.785157c-1.066406 6.074218-2.035156 12.085937-2.90625 18.039062zm0 0"/><path d="m400.976562 181.863281c.960938-3.464843 4.113282-5.863281 7.710938-5.863281h36.449219v-48h-36.449219c-3.597656 0-6.75-2.398438-7.710938-5.863281-2.417968-8.828125-5.910156-17.324219-10.402343-25.296875-1.769531-3.128906-1.238281-7.058594 1.304687-9.601563l25.753906-25.742187-33.984374-33.953125-25.710938 25.753906c-2.542969 2.542969-6.472656 3.074219-9.601562 1.304687-7.972657-4.492187-16.46875-7.984374-25.296876-10.402343-3.496093-.949219-5.917968-4.128907-5.902343-7.75v-36.449219h-48v36.449219c0 3.597656-2.402344 6.753906-5.871094 7.710937-5.097656 1.40625-10.089844 3.167969-14.9375 5.273438-3.539063 1.539062-6.992187 3.265625-10.351563 5.167968-3.128906 1.769532-7.058593 1.238282-9.601562-1.304687l-25.742188-25.753906-33.945312 33.945312 25.746094 25.75c2.542968 2.542969 3.074218 6.472657 1.300781 9.601563-1.902344 3.359375-3.625 6.8125-5.167969 10.351562-2.105468 4.847656-3.867187 9.839844-5.269531 14.9375-.957031 3.46875-4.113281 5.871094-7.710937 5.871094h-36.449219v48h36.449219c3.59375 0 6.75 2.398438 7.710937 5.863281 2.414063 8.828125 5.90625 17.324219 10.398437 25.296875 1.773438 3.128906 1.238282 7.058594-1.304687 9.601563l-25.742187 25.742187 33.9375 33.945313 25.75-25.746094c1.5-1.5 3.535156-2.34375 5.65625-2.34375 1.382812-.003906 2.742187.355469 3.945312 1.039063 3.355469 1.902343 6.8125 3.628906 10.351562 5.167968 4.847657 2.105469 9.839844 3.867188 14.933594 5.273438 3.46875.957031 5.875 4.113281 5.875 7.710937v36.449219h48v-36.449219c-.003906-3.59375 2.394532-6.75 5.863282-7.710937 8.824218-2.414063 17.320312-5.910156 25.296874-10.398438 3.128907-1.773437 7.054688-1.242187 9.597657 1.300782l25.746093 25.746093 33.949219-33.9375-25.710937-25.75c-2.542969-2.542969-3.078125-6.472656-1.304688-9.601562 4.507813-7.984375 8.015625-16.492188 10.441406-25.335938zm-107.839843 58.136719c-48.601563 0-88-39.398438-88-88s39.398437-88 88-88c48.601562 0 88 39.398438 88 88-.058594 48.578125-39.421875 87.941406-88 88zm0 0"/><path d="m317.136719 152c0 13.253906-10.746094 24-24 24-13.253907 0-24-10.746094-24-24s10.746093-24 24-24c13.253906 0 24 10.746094 24 24zm0 0"/></svg>