<svg height="512pt" viewBox="0 0 512 512" width="512pt" xmlns="http://www.w3.org/2000/svg"><path d="m140.664062 356.335938c0 30.558593-24.769531 55.328124-55.328124 55.328124-30.5625 0-55.332032-24.769531-55.332032-55.328124 0-30.5625 24.769532-55.332032 55.332032-55.332032 30.558593 0 55.328124 24.769532 55.328124 55.332032zm0 0"/><path d="m311.332031 356.335938c0 30.558593-24.773437 55.328124-55.332031 55.328124s-55.332031-24.769531-55.332031-55.328124c0-30.5625 24.773437-55.332032 55.332031-55.332032s55.332031 24.769532 55.332031 55.332032zm0 0"/><path d="m481.996094 356.335938c0 30.558593-24.769532 55.328124-55.332032 55.328124-30.558593 0-55.328124-24.769531-55.328124-55.328124 0-30.5625 24.769531-55.332032 55.328124-55.332032 30.5625 0 55.332032 24.769532 55.332032 55.332032zm0 0"/><path d="m512 221.730469v134.597656c0-47.046875-38.28125-85.328125-85.328125-85.328125-23.53125 0-44.871094 9.570312-60.320313 25.019531-15.453124 15.449219-25.023437 36.78125-25.023437 60.308594 0-47.046875-38.277344-85.328125-85.328125-85.328125s-85.328125 38.28125-85.328125 85.328125c0-47.046875-38.28125-85.328125-85.34375-85.328125-47.007813 0-85.2578125 38.21875-85.328125 85.21875v-134.488281c0-8.28125 6.71875-15 15-15h482c8.289062 0 15 6.71875 15 15zm0 0"/><path d="m85.332031 411.664062c-47.128906 0-85.332031 38.207032-85.332031 85.335938 0 8.285156 6.714844 15 15 15h140.664062c8.28125 0 15-6.714844 15-15-.003906-47.128906-38.207031-85.335938-85.332031-85.335938zm0 0"/><path d="m256 411.664062c-47.128906 0-85.332031 38.207032-85.332031 85.335938 0 8.285156 6.714843 15 15 15h140.660156c8.285156 0 15-6.714844 15-15 0-47.128906-38.203125-85.335938-85.328125-85.335938zm0 0"/><path d="m426.667969 411.664062c-47.125 0-85.328125 38.207032-85.328125 85.335938 0 8.285156 6.714844 15 15 15h140.660156c8.285156 0 15-6.714844 15-15 0-47.128906-38.203125-85.335938-85.332031-85.335938zm0 0"/><path d="m311.328125 55.328125c0 30.5625-24.757813 55.320313-55.316406 55.332031h-.011719c-30.558594 0-55.328125-24.769531-55.328125-55.332031 0-30.558594 24.769531-55.328125 55.328125-55.328125s55.328125 24.769531 55.328125 55.328125zm0 0"/><path d="m339.128906 176.730469h-166.238281c8.730469-37.839844 42.609375-66.070313 83.109375-66.070313h.011719c40.5 0 74.378906 28.230469 83.117187 66.070313zm0 0"/></svg>