<svg height="512pt" viewBox="0 0 512 512.00853" width="512pt" xmlns="http://www.w3.org/2000/svg"><path d="m247.460938 341.332031h-8.53125v-3.609375c0-15.070312-6.886719-29.277344-18.425782-37.996094-8.414062-6.367187-18.207031-9.59375-29.121094-9.59375-23.109374 0-36.667968 9.488282-43.980468 17.304688-.777344-.066406-1.527344-.238281-2.332032-.238281h-34.132812c-.800781 0-1.5625.164062-2.339844.238281-7.3125-7.804688-20.871094-17.304688-43.980468-17.304688-10.914063 0-20.707032 3.226563-29.121094 9.59375-11.539063 8.726563-18.425782 22.9375-18.425782 37.996094v3.609375h-8.53125c-4.710937 0-8.53515575 3.816407-8.53515575 8.535157v34.132812c0 4.71875 3.82421875 8.535156 8.53515575 8.535156h8.53125v110.929688c0 4.722656 3.824219 8.535156 8.535157 8.535156h68.265625v-119.464844h17.066406v119.464844h34.132812v-119.464844h17.066407v119.464844h68.265625c4.710937 0 8.535156-3.8125 8.535156-8.535156v-110.929688h8.535156c4.707032 0 8.53125-3.816406 8.53125-8.535156v-34.132812c-.007812-4.71875-3.832031-8.535157-8.542968-8.535157zm-136.523438-.050781c-1.527344-.144531-3.011719-.503906-4.367188-1.3125-1.65625-.992188-3.003906-2.542969-3.664062-4.359375-.953125-2.640625-.390625-5.734375 1.339844-7.9375 3.578125-4.539063 10.292968-3.40625 15.421875-3.40625h17.613281c4.90625 0 10.828125-1.023437 14.351562 3.261719 1.851563 2.25 2.457032 5.519531 1.398438 8.242187-1.109375 2.859375-3.890625 4.820313-6.84375 5.394531-1.816406.347657-3.746094.167969-5.589844.167969-2.0625 0-4.121094 0-6.175781 0-5.964844 0-11.929687 0-17.902344 0-1.835937 0-3.738281.128907-5.582031-.050781zm127.992188 34.183594h-221.867188v-17.066406h221.867188zm0 0"/><path d="m387.160156 120.074219 21.828125 8.726562-24.992187-49.988281-24.996094 49.988281 21.820312-8.726562c2.039063-.8125 4.300782-.8125 6.339844 0zm0 0"/><path d="m383.996094 0c-70.578125 0-128 57.421875-128 128s57.421875 128 128 128 128-57.421875 128-128-57.421875-128-128-128zm50.996094 146.542969c-.46875 2.527343-2.144532 4.4375-3.808594 6.433593-1.757813 2.109376-3.515625 4.214844-5.273438 6.324219-5.210937 6.261719-10.433594 12.519531-15.640625 18.78125-4.921875 5.90625-9.839843 11.808594-14.753906 17.707031-1.65625 1.980469-3.3125 3.96875-4.964844 5.949219-1.621093 1.945313-4.019531 3.0625-6.554687 3.0625s-4.933594-1.128906-6.554688-3.0625c-2.660156-3.191406-5.324218-6.394531-7.988281-9.585937-5.570313-6.6875-11.152344-13.378906-16.722656-20.070313-4.882813-5.859375-9.773438-11.722656-14.652344-17.585937-2.074219-2.492188-4.683594-4.898438-5.136719-8.25-.445312-3.296875 1.3125-6.121094 2.730469-8.945313 1.160156-2.320312 2.320313-4.640625 3.480469-6.960937 3.421875-6.855469 6.851562-13.699219 10.273437-20.550782 3.960938-7.910156 7.910157-15.828124 11.871094-23.746093 3.363281-6.726563 6.722656-13.441407 10.085937-20.164063 1.628907-3.269531 3.269532-6.539062 4.984376-9.976562 2.890624-5.785156 12.375-5.785156 15.265624 0 1.410157 2.816406 2.816407 5.621094 4.222657 8.4375 3.378906 6.761718 6.761719 13.519531 10.140625 20.269531 4.09375 8.191406 8.191406 16.375 12.277344 24.566406 3.558593 7.109375 7.109374 14.214844 10.667968 21.324219.980469 1.953125 1.953125 3.917969 2.933594 5.871094 1.359375 2.714844 3.183594 5.453125 3.253906 8.558594 0 .582031-.042968 1.109374-.136718 1.613281zm0 0"/><path d="m355.410156 148.625 28.585938 34.3125 28.585937-34.3125-28.585937-11.433594zm0 0"/><path d="m460.796875 426.667969h-34.132813v-128c0-4.71875-3.824218-8.535157-8.535156-8.535157h-68.265625c-4.710937 0-8.535156 3.816407-8.535156 8.535157v128h-34.132813c-3.539062 0-6.714843 2.191406-7.976562 5.503906-1.265625 3.308594-.34375 7.054687 2.300781 9.410156l76.800781 68.265625c1.613282 1.445313 3.644532 2.160156 5.675782 2.160156s4.054687-.714843 5.675781-2.160156l76.796875-68.265625c2.648438-2.347656 3.558594-6.101562 2.304688-9.410156-1.253907-3.3125-4.4375-5.503906-7.976563-5.503906zm0 0"/><path d="m51.195312 128h34.132813v128c0 4.71875 3.824219 8.535156 8.535156 8.535156h68.265625c4.710938 0 8.535156-3.816406 8.535156-8.535156v-128h34.132813c3.546875 0 6.714844-2.191406 7.976563-5.503906 1.253906-3.3125.34375-7.058594-2.3125-9.414063l-76.800782-68.265625c-3.234375-2.882812-8.105468-2.882812-11.339844 0l-76.800781 68.265625c-2.652343 2.347657-3.566406 6.101563-2.3125 9.414063 1.257813 3.3125 4.449219 5.503906 7.988281 5.503906zm0 0"/></svg>