<svg height="512pt" viewBox="0 -8 512 512" width="512pt" xmlns="http://www.w3.org/2000/svg"><path d="m123.507812 130.554688c4.539063 0 9.496094-.851563 14.789063-2.753907l64.625-31.988281c4.976563-2.464844 8.769531-6.753906 10.777344-11.933594 5.417969-13.957031 22.273437-37.523437 67.210937-31.90625.175782.023438.351563.050782.523438.082032l64.648437 11.34375c8.464844 1.484374 14.605469 9.269531 13.515625 17.792968-1.164062 9.09375-9.664062 15.269532-18.585937 13.710938l-72.070313-12.886719c-31.917968-6.046875-39.308594 33.929687-12.765625 43.335937 43.871094 13.699219 91.308594 33.597657 127.976563 33.597657 8.152344 0 23.105468-2.757813 32.015625-10.257813v-118.488281c0-8.628906-6.515625-15.863281-15.097657-16.765625 0 0-128.78125-13.4375-131.148437-13.4375-11.207031 0-22.28125 2.777344-32.207031 8.132812l-131.710938 71.058594c-23.121094 17.800782-11.007812 51.363282 17.503906 51.363282zm0 0"/><path d="m503.890625 8.28125h-47.707031c-4.476563 0-8.109375 3.632812-8.109375 8.113281v125.59375c0 4.480469 3.628906 8.113281 8.109375 8.113281h47.707031c4.476563 0 8.109375-3.632812 8.109375-8.113281v-125.59375c0-4.480469-3.632812-8.113281-8.109375-8.113281zm0 0"/><path d="m388.492188 365.71875c-4.539063 0-9.496094.851562-14.789063 2.75l-64.625 31.992188c-4.976563 2.464843-8.769531 6.753906-10.777344 11.933593-5.417969 13.957031-22.273437 37.519531-67.210937 31.90625-.175782-.027343-.351563-.054687-.523438-.082031l-64.648437-11.34375c-8.464844-1.484375-14.605469-9.269531-13.515625-17.796875 1.164062-9.09375 9.664062-15.265625 18.585937-13.710937l72.070313 12.890624c31.917968 6.046876 39.308594-33.933593 12.765625-43.335937-43.871094-13.699219-91.308594-33.597656-127.976563-33.597656-8.152344 0-23.105468 2.753906-32.015625 10.253906v118.488281c0 8.628906 6.515625 15.867188 15.097657 16.769532 0 0 128.78125 13.4375 131.148437 13.4375 11.207031 0 22.28125-2.777344 32.207031-8.132813l131.710938-71.058594c23.121094-17.800781 11.007812-51.363281-17.503906-51.363281zm0 0"/><path d="m55.816406 346.171875h-47.707031c-4.476563 0-8.109375 3.632813-8.109375 8.113281v125.59375c0 4.480469 3.632812 8.113282 8.109375 8.113282h47.707031c4.476563 0 8.109375-3.632813 8.109375-8.113282v-125.59375c0-4.480468-3.632812-8.113281-8.109375-8.113281zm0 0"/><path d="m255.671875 323.546875c8.808594 0 15.953125-7.140625 15.953125-15.953125v-.167969h16.726562c20.371094 0 36.941407-16.558593 36.941407-36.910156v-2.273437c0-20.355469-16.570313-36.910157-36.941407-36.910157h-16.726562v-10.003906h28.609375c8.8125 0 15.957031-7.144531 15.957031-15.957031 0-8.808594-7.144531-15.953125-15.957031-15.953125h-28.609375v-.167969c0-8.808594-7.144531-15.953125-15.953125-15.953125-8.8125 0-15.953125 7.144531-15.953125 15.953125v.167969h-16.730469c-20.367187 0-36.9375 16.558593-36.9375 36.910156 0 20.355469 16.570313 36.910156 36.9375 36.910156h16.730469v12.28125h-28.613281c-8.808594 0-15.953125 7.140625-15.953125 15.953125 0 8.808594 7.144531 15.953125 15.953125 15.953125h28.613281v.167969c0 8.8125 7.140625 15.953125 15.953125 15.953125zm15.953125-60.308594h16.726562c2.777344 0 5.03125 2.242188 5.03125 5v2.277344c0 2.757813-2.253906 5-5.03125 5h-16.726562zm-48.636719-31.910156c-2.773437 0-5.03125-2.242187-5.03125-5s2.257813-5.003906 5.03125-5.003906h16.730469v10.003906zm0 0"/></svg>