<?xml version="1.0" encoding="iso-8859-1"?>
<!-- Generator: Adobe Illustrator 19.0.0, SVG Export Plug-In . SVG Version: 6.00 Build 0)  -->
<svg version="1.1" id="Capa_1" xmlns="http://www.w3.org/2000/svg" xmlns:xlink="http://www.w3.org/1999/xlink" x="0px" y="0px"
	 viewBox="0 0 512 512" style="enable-background:new 0 0 512 512;" xml:space="preserve">
<g>
	<g>
		<path d="M311.448,17.411c6.103,11.886,9.55,25.351,9.55,39.606c0,14.254-3.447,27.72-9.55,39.606l137.545,17.411V0L311.448,17.411
			z"/>
	</g>
</g>
<g>
	<g>
		<path d="M234.001,84.016c-52.802,0-96.619,39.182-103.92,89.997h207.84C330.62,123.197,286.803,84.016,234.001,84.016z"/>
	</g>
</g>
<g>
	<g>
		<path d="M129.005,204.011v82.655c-3.463-14.627-10.36-28.329-20.328-39.947c-10.106-11.778-15.67-26.81-15.67-42.328
			c0-39.513,18.385-75.491,47.954-98.76c3.383-3.773,7.002-7.362,10.854-10.73c22.779-19.917,51.967-30.887,82.188-30.887
			c18.715,0,37.034,4.211,53.68,12.146C289.824,70.172,291,63.73,291,57.015c0-31.429-25.569-56.998-56.998-56.998
			c-21.431,0-40.131,11.896-49.863,29.425L106.891,2.836L97.121,31.2l73.194,25.211c-63.683,20.77-107.308,80.204-107.308,147.981
			c0,22.681,8.134,44.65,22.903,61.864c21.869,25.484,20.852,63-2.365,87.264l-16.376,17.115l21.675,20.739l16.376-17.115
			c11.794-12.326,19.922-27.44,23.784-43.776V512h209.992V204.011H129.005z"/>
	</g>
</g>
<g>
</g>
<g>
</g>
<g>
</g>
<g>
</g>
<g>
</g>
<g>
</g>
<g>
</g>
<g>
</g>
<g>
</g>
<g>
</g>
<g>
</g>
<g>
</g>
<g>
</g>
<g>
</g>
<g>
</g>
</svg>
