<svg height="448pt" viewBox="0 0 448 448" width="448pt" xmlns="http://www.w3.org/2000/svg"><path d="m199.734375 298.726562c-.207031-2.199218-.546875-4.386718-1.015625-6.550781-.167969-.800781-.390625-1.527343-.589844-2.289062-.394531-1.503907-.800781-2.992188-1.359375-4.460938-.289062-.800781-.5625-1.601562-.882812-2.402343-.800781-2.007813-1.71875-3.964844-2.75-5.863282-.375-.679687-.800781-1.328125-1.207031-1.992187-.738282-1.214844-1.503907-2.398438-2.320313-3.566407-.5625-.800781-1.128906-1.546874-1.722656-2.289062-.855469-1.082031-1.75-2.105469-2.671875-3.105469-.550782-.597656-1.070313-1.230469-1.640625-1.808593-1.429688-1.410157-2.933594-2.746094-4.503907-4-.621093-.503907-1.277343-.964844-1.925781-1.4375-1.207031-.890626-2.402343-1.730469-3.695312-2.511719-.609375-.378907-1.210938-.753907-1.824219-1.113281-3.851562-2.183594-7.945312-3.90625-12.199219-5.136719-.546875-.152344-1.097656-.277344-1.648437-.421875-1.6875-.433594-3.402344-.800782-5.128906-1.050782-.601563-.085937-1.199219-.199218-1.808594-.269531-2.269532-.292969-4.550782-.445312-6.839844-.457031-4.738281.007812-9.460938.601562-14.054688 1.761719-24.765624 6.363281-42.074218 28.695312-42.058593 54.265625.011719 25.566406 17.34375 47.878906 42.113281 54.21875 2.152344.535156 4.335938.945312 6.535156 1.234375l.960938.113281c1.878906.210938 3.769531.328125 5.664062.351562h1.671875c1.320313 0 2.617188-.089843 3.902344-.203124.976563-.085938 1.960937-.207032 2.960937-.351563.359376-.046875.71875-.109375 1.074219-.167969 5.035157-.820312 9.941407-2.304687 14.589844-4.414062l.664063-.320313c.976562-.449219 1.953124-.9375 2.945312-1.457031 14.792969-8.167969 25.121094-22.566406 28.109375-39.199219.328125-1.945312.578125-3.878906.722656-5.816406 0-.65625.070313-1.320313.09375-1.984375.074219-1.855469.042969-3.703125-.070312-5.542969-.039063-.585937-.039063-1.175781-.089844-1.761719zm0 0"/><path d="m280 328c4.417969 0 8-3.582031 8-8v-32c0-4.417969-3.582031-8-8-8h-8.800781c-9.949219-.035156-18.851563-6.191406-22.398438-15.488281-.847656-2.222657-1.769531-4.433594-2.753906-6.601563-4.113281-9.078125-2.203125-19.753906 4.800781-26.847656l6.265625-6.269531c3.121094-3.125 3.121094-8.1875 0-11.3125l-22.609375-22.609375c-3.136718-3.101563-8.183594-3.101563-11.320312 0l-6.261719 6.257812c-7.089844 7.011719-17.769531 8.917969-26.851563 4.800782-2.167968-.984376-4.375-1.898438-6.613281-2.753907-9.273437-3.558593-15.414062-12.441406-15.457031-22.375v-8.800781c0-4.417969-3.582031-8-8-8h-32c-4.417969 0-8 3.582031-8 8v8.800781c-.035156 9.949219-6.191406 18.851563-15.488281 22.398438-2.222657.847656-4.433594 1.769531-6.601563 2.753906-9.078125 4.121094-19.757812 2.210937-26.847656-4.800781l-6.269531-6.265625c-3.125-3.121094-8.1875-3.121094-11.3125 0l-22.609375 22.59375c-1.5 1.5-2.34375 3.535156-2.34375 5.660156 0 2.121094.84375 4.160156 2.34375 5.660156l6.257812 6.261719c7.003906 7.09375 8.914063 17.769531 4.800782 26.847656-.984376 2.171875-1.898438 4.378906-2.753907 6.617188-3.550781 9.28125-12.4375 15.425781-22.375 15.472656h-8.800781c-4.417969 0-8 3.582031-8 8v32c0 4.417969 3.582031 8 8 8h8.800781c9.949219.035156 18.851563 6.191406 22.398438 15.488281.847656 2.222657 1.769531 4.433594 2.753906 6.601563 4.113281 9.078125 2.203125 19.753906-4.800781 26.847656l-6.265625 6.269531c-3.121094 3.125-3.121094 8.1875 0 11.3125l22.609375 22.609375c1.5 1.5 3.535156 2.34375 5.660156 2.34375 2.121094 0 4.160156-.84375 5.660156-2.34375l6.261719-6.257812c7.09375-7 17.769531-8.910156 26.851563-4.800782 2.167968.988282 4.375 1.90625 6.613281 2.753907 9.273437 3.558593 15.414062 12.441406 15.457031 22.375v8.800781c0 4.417969 3.582031 8 8 8h32c4.417969 0 8-3.582031 8-8v-8.800781c.035156-9.949219 6.191406-18.851563 15.488281-22.398438 2.222657-.847656 4.433594-1.769531 6.601563-2.753906 9.078125-4.121094 19.757812-2.210937 26.847656 4.800781l6.269531 6.265625c3.125 3.121094 8.1875 3.121094 11.3125 0l22.609375-22.609375c1.5-1.5 2.34375-3.535156 2.34375-5.660156 0-2.121094-.84375-4.160156-2.34375-5.660156l-6.257812-6.261719c-7.003906-7.09375-8.914063-17.769531-4.800782-26.851563.988282-2.167968 1.90625-4.375 2.753907-6.613281 3.558593-9.273437 12.441406-15.414062 22.375-15.457031zm-64.0625-22.65625c0 1.441406-.113281 2.878906-.226562 4.328125-.117188 1.601563-.320313 3.121094-.542969 4.664063-1.703125 11.667968-5.804688 22.859374-12.046875 32.863281-1.1875 1.933593-2.628906 3.699219-4.289063 5.25-6.140625 5.828125-13.039062 10.808593-20.503906 14.808593h-.046875c-1.351562.71875-2.6875 1.328126-4 1.941407-1.035156.480469-2.066406.976562-3.121094 1.410156-1.054687.429687-2.25.796875-3.367187 1.230469-1.121094.433594-2.183594.800781-3.304688 1.113281-1.441406.421875-2.839843.800781-4.25 1.09375-.796875.175781-1.527343.378906-2.308593.527344-2.007813.402343-4 .691406-5.921876.90625-.253906 0-.511718.078125-.800781.105469-2.398437.238281-4.800781.390624-7.0625.390624-1.296875 0-2.457031-.183593-3.703125-.25-1.875-.085937-3.738281-.132812-5.601562-.367187-2.820313-.375-5.621094-.910156-8.382813-1.597656-.136719 0-.273437-.042969-.402343-.074219-31.804688-8.207031-54.035157-36.886719-54.046876-69.734375-.011718-32.847656 22.191407-61.546875 53.992188-69.777344 2.554688-.621093 5.144531-1.105469 7.753906-1.449219.902344-.125 1.8125-.230468 2.71875-.328124 1.71875-.175782 3.429688-.269532 5.136719-.320313.796875 0 1.597656-.148437 2.398437-.148437 15.46875 0 30.515626 5.019531 42.886719 14.300781l1.3125.976562c1.007813.796875 2 1.613281 2.96875 2.449219.800781.703125 1.601563 1.441406 2.398438 2.183594.65625.625 1.3125 1.230468 1.9375 1.878906 1.191406 1.210938 2.328125 2.472656 3.433593 3.777344.238282.28125.503907.550781.734376.839844 2.710937 3.273437 5.117187 6.785156 7.199218 10.488281.105469.183593.167969.382812.273438.566406 1.320312 2.425781 2.5 4.925781 3.527344 7.488281.449218 1.097656.800781 2.199219 1.214843 3.3125.5625 1.601563 1.066407 3.222656 1.511719 4.871094.355469 1.296875.722656 2.585938 1 3.890625.425781 1.992187.730469 4 .984375 6.070313.234375 1.90625.371094 3.816406.449219 5.738281.046875 1.054687.160156 2.09375.160156 3.199219 0 .496093-.054688.925781-.0625 1.382812zm0 0"/><path d="m344.183594 160.496094c.320312.800781.570312 1.601562.863281 2.351562-.292969-.785156-.542969-1.574218-.863281-2.351562zm0 0"/><path d="m345.046875 237.152344c-.292969.800781-.542969 1.601562-.863281 2.351562.320312-.777344.570312-1.566406.863281-2.351562zm0 0"/><path d="m339.800781 151.199219c.550781 1.03125 1.007813 2.113281 1.527344 3.199219-.527344-1.125-.976563-2.199219-1.527344-3.199219zm0 0"/><path d="m347.9375 228.558594c-.121094.410156-.203125.800781-.320312 1.226562.117187-.410156.199218-.816406.320312-1.226562zm0 0"/><path d="m276.558594 100.0625c.402344.121094.800781.203125 1.226562.320312-.410156-.117187-.816406-.199218-1.226562-.320312zm0 0"/><path d="m208.496094 103.816406c.800781-.320312 1.601562-.570312 2.351562-.863281-.785156.292969-1.574218.542969-2.351562.863281zm0 0"/><path d="m347.617188 170.214844c.117187.402344.199218.800781.320312 1.226562-.121094-.410156-.203125-.816406-.320312-1.226562zm0 0"/><path d="m293.671875 106.671875c1.054687.519531 2.136719.976563 3.199219 1.527344-1.070313-.550781-2.144532-1-3.199219-1.527344zm0 0"/><path d="m302.097656 111.304688c1.191406.726562 2.398438 1.398437 3.574219 2.167968-1.167969-.777344-2.382813-1.472656-3.574219-2.167968zm0 0"/><path d="m310.703125 117.167969c1.058594.800781 2.167969 1.550781 3.199219 2.398437-1.039063-.855468-2.132813-1.589844-3.199219-2.398437zm0 0"/><path d="m328.441406 134.097656c.796875 1.03125 1.597656 2.140625 2.398438 3.199219-.816406-1.066406-1.550782-2.160156-2.398438-3.199219zm0 0"/><path d="m285.152344 102.953125c.800781.292969 1.601562.542969 2.351562.863281-.777344-.320312-1.566406-.570312-2.351562-.863281zm0 0"/><path d="m334.527344 142.328125c.800781 1.160156 1.441406 2.398437 2.167968 3.574219-.695312-1.191406-1.390624-2.40625-2.167968-3.574219zm0 0"/><path d="m218.214844 100.382812c.402344-.117187.800781-.199218 1.226562-.320312-.410156.121094-.816406.203125-1.226562.320312zm0 0"/><path d="m182.097656 119.558594c1.03125-.839844 2.132813-1.597656 3.199219-2.398438-1.066406.816406-2.160156 1.550782-3.199219 2.398438zm0 0"/><path d="m330.824219 262.710938c-.800781 1.058593-1.542969 2.160156-2.398438 3.199218.863281-1.046875 1.597657-2.140625 2.398438-3.199218zm0 0"/><path d="m190.328125 113.472656c1.152344-.800781 2.398437-1.441406 3.558594-2.160156-1.183594.6875-2.390625 1.382812-3.558594 2.160156zm0 0"/><path d="m199.199219 108.199219c1.03125-.550781 2.113281-1.007813 3.199219-1.527344-1.125.527344-2.199219.976563-3.199219 1.527344zm0 0"/><path d="m341.328125 245.671875c-.519531 1.054687-.976563 2.136719-1.527344 3.199219.550781-1.070313 1-2.144532 1.527344-3.199219zm0 0"/><path d="m336.6875 254.113281c-.71875 1.183594-1.390625 2.398438-2.160156 3.558594.777344-1.167969 1.472656-2.375 2.160156-3.558594zm0 0"/><path d="m440 168h-25.160156c-10.238282.039062-19.351563-6.472656-22.632813-16.167969-2.253906-6.71875-4.976562-13.269531-8.152343-19.609375-4.570313-9.175781-2.753907-20.25 4.511718-27.488281l17.839844-17.871094c3.121094-3.121093 3.121094-8.179687 0-11.304687l-33.957031-33.957032c-3.125-3.125-8.1875-3.125-11.3125 0l-17.871094 17.839844c-7.238281 7.253906-18.300781 9.074219-27.480469 4.519532-6.339844-3.179688-12.894531-5.90625-19.617187-8.160157-9.699219-3.28125-16.210938-12.402343-16.167969-22.640625v-25.160156c0-4.417969-3.582031-8-8-8h-48c-4.417969 0-8 3.582031-8 8v25.160156c.039062 10.234375-6.472656 19.347656-16.167969 22.632813-6.71875 2.253906-13.269531 4.976562-19.609375 8.152343-9.175781 4.578126-20.253906 2.761719-27.488281-4.511718l-17.871094-17.832032c-3.125-3.125-8.1875-3.125-11.3125 0l-33.949219 33.949219c-3.125 3.125-3.125 8.1875 0 11.3125l57.070313 57.136719h13.328125.433594c4.027344-6.355469 8.730468-12.257812 14.03125-17.601562 2.425781-2.425782 4.972656-4.730469 7.632812-6.902344 1.039063-.847656 2.132813-1.601563 3.199219-2.398438 1.664063-1.265625 3.304687-2.546875 5.039063-3.707031 1.167968-.796875 2.398437-1.4375 3.558593-2.160156 1.746094-1.0625 3.464844-2.152344 5.273438-3.109375 1.039062-.554688 2.113281-1.007813 3.199219-1.527344 2.03125-1 4.066406-1.992188 6.167968-2.859375.800782-.320313 1.601563-.566406 2.351563-.863281 2.402343-.925782 4.867187-1.824219 7.371093-2.566406.40625-.121094.796876-.199219 1.222657-.320313 18.652343-5.417969 38.464843-5.417969 57.121093 0 .40625.121094.796876.199219 1.222657.320313 2.503906.742187 4.945312 1.640624 7.367187 2.566406.800782.296875 1.601563.542968 2.351563.863281 2.105469.867187 4.136719 1.859375 6.167969 2.859375 1.058593.519531 2.128906.972656 3.199218 1.527344 1.808594.957031 3.523438 2.039062 5.257813 3.101562 1.191406.730469 2.398437 1.394532 3.574219 2.167969 1.738281 1.160156 3.378906 2.402344 5.035156 3.699219 1.0625.796875 2.160156 1.542968 3.199218 2.398437 5.316407 4.347657 10.1875 9.21875 14.535157 14.535157.847656 1.039062 1.601562 2.136718 2.398437 3.199218 1.257813 1.65625 2.539063 3.296875 3.699219 5.035156.796875 1.167969 1.4375 2.398438 2.167969 3.574219 1.0625 1.734375 2.144531 3.449219 3.101562 5.257813.554688 1.039062 1.007813 2.109375 1.527344 3.199218 1 2.03125 1.992188 4.0625 2.859375 6.167969.320313.800781.566406 1.597657.863281 2.351563.925782 2.398437 1.824219 4.863281 2.566406 7.367187.121094.410157.199219.800781.320313 1.222657 5.417969 18.65625 5.417969 38.46875 0 57.121093-.121094.410157-.199219.800781-.320313 1.222657-.742187 2.503906-1.597656 4.945312-2.566406 7.371093-.296875.796875-.542968 1.597657-.863281 2.351563-.867187 2.101562-1.859375 4.136718-2.859375 6.167968-.519531 1.054688-.972656 2.128907-1.527344 3.199219-.957031 1.808594-2.046875 3.527344-3.109375 5.273438-.722656 1.183593-1.386719 2.398437-2.160156 3.558593-1.160156 1.734376-2.402344 3.375-3.707031 5.039063-.796875 1.058594-1.535156 2.152344-2.398438 3.199219-2.171875 2.660156-4.476562 5.207031-6.902344 7.632812-5.34375 5.300782-11.246093 10.003906-17.601562 14.03125 0 .152344.039062.289063.039062.433594v13.328125l57.097657 57.070313c3.121093 3.121093 8.179687 3.121093 11.304687 0l33.957032-33.949219c3.125-3.125 3.125-8.1875 0-11.3125l-17.839844-17.871094c-7.261719-7.234375-9.082032-18.304687-4.519532-27.480469 3.179688-6.339844 5.90625-12.894531 8.160157-19.617187 3.28125-9.699219 12.402343-16.210938 22.640625-16.167969h25.160156c4.417969 0 8-3.582031 8-8v-48c0-4.417969-3.582031-8-8-8zm0 0"/><path d="m287.503906 103.816406c2.089844.855469 4.128906 1.863282 6.167969 2.855469-2.03125-1-4.070313-1.992187-6.167969-2.855469zm0 0"/><path d="m296.839844 108.199219c1.792968.953125 3.519531 2.039062 5.257812 3.105469-1.738281-1.066407-3.449218-2.144532-5.257812-3.105469zm0 0"/><path d="m210.847656 102.953125c2.398438-.929687 4.878906-1.832031 7.367188-2.570313-2.503906.746094-4.941406 1.640626-7.367188 2.570313zm0 0"/><path d="m277.785156 100.382812c2.488282.738282 4.925782 1.640626 7.367188 2.570313-2.425782-.929687-4.863282-1.824219-7.367188-2.570313zm0 0"/><path d="m193.886719 111.3125c1.746093-1.066406 3.480469-2.160156 5.273437-3.113281-1.808594.960937-3.527344 2.046875-5.273437 3.113281zm0 0"/><path d="m185.289062 117.175781c1.664063-1.265625 3.320313-2.550781 5.039063-3.703125-1.734375 1.160156-3.375 2.4375-5.039063 3.703125zm0 0"/><path d="m202.328125 106.671875c2.039063-.992187 4.078125-2 6.167969-2.855469-2.097656.863282-4.136719 1.855469-6.167969 2.855469zm0 0"/><path d="m174.464844 126.464844c2.445312-2.457032 5.007812-4.746094 7.632812-6.90625-2.660156 2.171875-5.207031 4.476562-7.632812 6.90625zm0 0"/><path d="m334.527344 257.671875c-1.152344 1.71875-2.398438 3.375-3.703125 5.039063 1.265625-1.664063 2.542969-3.304688 3.703125-5.039063zm0 0"/><path d="m344.183594 239.503906c-.855469 2.089844-1.863282 4.128906-2.855469 6.167969 1-2.03125 1.992187-4.070313 2.855469-6.167969zm0 0"/><path d="m339.800781 248.800781c-.953125 1.792969-2.046875 3.527344-3.113281 5.269531 1.066406-1.703124 2.152344-3.421874 3.113281-5.269531zm0 0"/><path d="m305.671875 113.472656c1.71875 1.152344 3.367187 2.398438 5.03125 3.695313-1.65625-1.257813-3.296875-2.535157-5.03125-3.695313zm0 0"/><path d="m347.9375 228.558594c5.417969-18.652344 5.417969-38.464844 0-57.117188 5.289062 18.671875 5.289062 38.445313 0 57.117188zm0 0"/><path d="m276.558594 100.0625c-18.652344-5.417969-38.464844-5.417969-57.117188 0 18.671875-5.289062 38.445313-5.289062 57.117188 0zm0 0"/><path d="m328.441406 265.902344c-2.160156 2.625-4.449218 5.1875-6.90625 7.632812 2.429688-2.425781 4.734375-4.972656 6.90625-7.632812zm0 0"/><path d="m321.535156 126.464844c2.457032 2.445312 4.746094 5.007812 6.90625 7.632812-2.171875-2.660156-4.476562-5.207031-6.90625-7.632812zm0 0"/><path d="m330.832031 137.296875c1.257813 1.664063 2.542969 3.3125 3.695313 5.03125-1.160156-1.734375-2.4375-3.375-3.695313-5.03125zm0 0"/><path d="m313.902344 119.558594c2.625 2.160156 5.1875 4.449218 7.632812 6.90625-2.425781-2.429688-4.972656-4.734375-7.632812-6.90625zm0 0"/><path d="m345.046875 162.847656c.929687 2.398438 1.832031 4.878906 2.570313 7.367188-.746094-2.503906-1.640626-4.941406-2.570313-7.367188zm0 0"/><path d="m336.695312 145.902344c1.066407 1.738281 2.152344 3.464844 3.105469 5.257812-.960937-1.808594-2.039062-3.519531-3.105469-5.257812zm0 0"/><path d="m347.617188 229.785156c-.738282 2.488282-1.601563 4.925782-2.570313 7.367188.929687-2.425782 1.824219-4.863282 2.570313-7.367188zm0 0"/><path d="m341.328125 154.328125c.992187 2.039063 2 4.078125 2.855469 6.167969-.863282-2.097656-1.855469-4.136719-2.855469-6.167969zm0 0"/></svg>