<?xml version="1.0" encoding="iso-8859-1"?>
<!-- Generator: Adobe Illustrator 19.0.0, SVG Export Plug-In . SVG Version: 6.00 Build 0)  -->
<svg version="1.1" id="Layer_1" xmlns="http://www.w3.org/2000/svg" xmlns:xlink="http://www.w3.org/1999/xlink" x="0px" y="0px"
	 viewBox="0 0 503.607 503.607" style="enable-background:new 0 0 503.607 503.607;" xml:space="preserve">
<g>
	<g>
		<g>
			<path d="M478.67,417.993c-50.352-26.498-88.87-41.212-123.081-47.02l3.727-5.12c1.46-2.014,1.956-4.558,1.36-6.967l-7.798-31.165
				c20.883-29.444,33.221-66.224,33.221-101.099v-33.574h8.393h16.787c4.642,0,8.393-3.76,8.393-8.393
				c0-4.642-3.752-8.393-8.393-8.393h-8.393v-8.393c0-23.384-5.506-45.409-15.377-64.999l-75.365,14.487
				c-0.529,0.101-1.058,0.151-1.586,0.151c-2.199,0-4.339-0.873-5.926-2.451c-1.964-1.972-2.837-4.784-2.317-7.521l13.765-72.268
				c-7.109-3.198-14.537-5.968-22.31-8.175v-1.779C293.77,11.356,282.414,0,268.456,0h-33.297
				c-13.967,0-25.323,11.356-25.323,25.315v1.779c-7.764,2.208-15.192,4.977-22.301,8.175l13.765,72.268
				c0.52,2.736-0.353,5.548-2.317,7.521c-1.586,1.578-3.727,2.451-5.934,2.451c-0.529,0-1.058-0.05-1.586-0.151l-75.356-14.487
				c-9.871,19.59-15.385,41.615-15.385,64.999v8.393h-8.393c-4.633,0-8.393,3.752-8.393,8.393c0,4.633,3.76,8.393,8.393,8.393
				h16.787h8.393v33.574c0,34.875,12.347,71.655,33.221,101.099l-7.789,31.165c-0.604,2.409-0.101,4.952,1.36,6.967l3.727,5.12
				c-34.212,5.808-72.729,20.522-123.081,47.02C9.56,426.085,0,441.923,0,459.323v35.89c0,4.633,3.76,8.393,8.393,8.393h201.443
				h0.008h3.139c0.008,0,0.008-0.008,0.017-0.008l77.253-0.067c0.134,0.008,0.243,0.076,0.378,0.076h204.582
				c4.642,0,8.393-3.76,8.393-8.393v-35.89C503.607,441.923,494.055,426.085,478.67,417.993z M134.295,226.623v-33.574h235.016
				v33.574c0,37.796-13.371,71.059-33.146,96.004c-0.294,0.285-0.68,0.462-0.932,0.789c-2.887,3.693-5.875,7.176-8.947,10.45
				c-0.017,0.017-0.034,0.034-0.05,0.05c-2.04,2.157-4.163,4.079-6.278,6.052c-20.514,18.499-44.88,29.344-68.155,29.344
				c-23.267,0-47.633-10.844-68.155-29.344c-2.107-1.972-4.23-3.895-6.27-6.052c-0.017-0.017-0.034-0.034-0.05-0.05
				c-3.072-3.273-6.068-6.757-8.956-10.45c-0.252-0.327-0.63-0.504-0.923-0.789C147.674,297.682,134.295,264.419,134.295,226.623z
				 M160.18,359.147l3.769-15.058c0.017,0.025,0.042,0.042,0.059,0.059c20.287,22.066,46.097,37.611,75.188,41.145
				c0.017,0,0.034,0.008,0.05,0.008l-22.78,51.242L160.18,359.147z M220.084,486.811l5.028-25.172h53.391l2.132,10.635l2.896,14.479
				L220.084,486.811z M287.148,436.543l-22.78-51.242c0.017,0,0.034-0.008,0.05-0.008c29.092-3.534,54.902-19.078,75.188-41.145
				c0.017-0.017,0.042-0.034,0.059-0.059l3.769,15.058L287.148,436.543z"/>
			<path d="M331.617,43.415l-10.5,55.111l57.436-11.046C366.626,69.762,350.679,54.746,331.617,43.415z"/>
			<path d="M171.996,43.415c-19.062,11.331-35.009,26.347-46.936,44.066l57.436,11.046L171.996,43.415z"/>
		</g>
	</g>
</g>
<g>
</g>
<g>
</g>
<g>
</g>
<g>
</g>
<g>
</g>
<g>
</g>
<g>
</g>
<g>
</g>
<g>
</g>
<g>
</g>
<g>
</g>
<g>
</g>
<g>
</g>
<g>
</g>
<g>
</g>
</svg>
