<svg height="512pt" viewBox="-32 0 512 512" width="512pt" xmlns="http://www.w3.org/2000/svg"><path d="m191.738281 95.328125c40.691407 0 78.691407 6.070313 109.339844 17.121094-27.867187 10.871093-65.457031 18.222656-109.339844 18.222656-43.777343 0-81.386719-7.351563-109.308593-18.230469 30.648437-11.042968 68.640624-17.113281 109.308593-17.113281zm0 0"/><path d="m353.46875 65.328125c0 9.570313-6.589844 19.632813-18.640625 28.910156-37.507813-18.507812-88.40625-28.910156-143.089844-28.910156-54.679687 0-105.566406 10.410156-143.066406 28.910156-12.0625-9.257812-18.671875-19.316406-18.671875-28.910156 0-30.25 65.839844-65.328125 161.738281-65.328125 95.582031 0 161.730469 34.988281 161.730469 65.328125zm0 0"/><path d="m383.46875 65.328125v266.792969c-.789062.628906-1.679688 1.140625-2.660156 1.550781-4.277344 1.769531-8.980469.839844-12.25-2.441406l-108.796875-108.800781c-17.550781-17.550782-46.101563-17.550782-63.640625 0-8.5 8.5-13.179688 19.800781-13.179688 31.820312s4.679688 23.320312 13.179688 31.820312l108.800781 108.800782c.039063.039062.089844.089844.128906.117187 19.121094 19.070313 44.46875 29.570313 71.390625 29.570313 2.167969 0 4.320313-.070313 6.46875-.207032-3.609375 24.597657-24.609375 46.667969-60.019531 62.769532-35.3125 16.039062-81.878906 24.878906-131.152344 24.878906-49.269531 0-95.847656-8.839844-131.148437-24.878906-39.070313-17.761719-60.589844-42.78125-60.589844-70.449219v-168.132813c5.53125 5.101563 11.648438 9.519532 18.199219 13.152344v30.886719c0 6.773437.878906 13.351563 2.53125 19.613281 6.167969 23.457032 23.140625 42.578125 45.238281 51.707032 9.0625 3.742187 18.980469 5.8125 29.371094 5.8125 42.53125 0 77.128906-34.601563 77.128906-77.132813v-132.378906c6.371094.3125 12.800781.472656 19.269531.472656 54.070313 0 107.5625-11.183594 144.242188-31.421875 9.929687-5.480469 18.621093-11.621094 25.769531-18.378906 13.71875-12.992188 21.71875-28.269532 21.71875-45.542969zm0 0"/><path d="m142.46875 157.589844v134.988281c0 25.992187-21.140625 47.132813-47.128906 47.132813-26.078125 0-47.140625-21.101563-47.140625-47.132813v-51.058594c-27.628907-6.757812-48.199219-31.71875-48.199219-61.398437v-114.792969c0 17.042969 7.941406 32.332031 21.710938 45.402344 7.148437 6.78125 15.859374 12.980469 25.859374 18.5 25.128907 13.929687 58.328126 23.710937 94.898438 28.359375zm0 0"/><path d="m426.875 271.304688-13.40625-13.40625v45.484374c2.785156 5.617188 4.269531 11.839844 4.269531 18.292969v1.613281c0 16.734376-9.992187 31.6875-25.453125 38.09375-15.464844 6.40625-33.101562 2.894532-44.9375-8.941406l-108.800781-108.796875c-5.859375-5.859375-15.355469-5.859375-21.214844 0-5.855469 5.855469-5.855469 15.351563 0 21.210938l108.800781 108.800781c13.664063 13.660156 31.796876 20.898438 50.304688 20.898438 9.1875 0 18.46875-1.785157 27.332031-5.453126 26.710938-11.070312 43.96875-36.902343 43.96875-65.8125v-1.613281c-.003906-19.027343-7.410156-36.917969-20.863281-50.371093zm0 0"/></svg>