<svg height="444pt" viewBox="0 -17 444.816 444" width="444pt" xmlns="http://www.w3.org/2000/svg"><path d="m229.847656 225.78125h32v8h-32zm0 0"/><path d="m349.785156 354.109375c2.285156-3.078125 5-5.8125 8.0625-8.117187v-160.210938h-272v186.785156c16.394532 5.832032 28.355469 20.066406 31.289063 37.214844h48.710937v-120c0-4.417969 3.582032-8 8-8h96c4.417969 0 8 3.582031 8 8v120h32.878906c3.195313-15.691406 15.4375-27.964844 31.121094-31.199219 0-.28125 0-.542969 0-.800781.03125-5.996094 1.429688-11.910156 4.089844-17.285156-1.214844.800781-2.632812 1.25-4.089844 1.285156h-48c-4.417968 0-8-3.582031-8-8v-48c0-4.417969 3.582032-8 8-8h48c4.417969 0 8 3.582031 8 8v48c0 .121094-.0625.21875-.0625.328125zm-191.9375-.328125c0 4.417969-3.582031 8-8 8h-48c-4.417968 0-8-3.582031-8-8v-48c0-4.417969 3.582032-8 8-8h48c4.417969 0 8 3.582031 8 8zm120-96c0 8.835938-7.164062 16-16 16h-80c-8.835937 0-16-7.164062-16-16v-32c0-8.835938 7.164063-16 16-16h80c8.835938 0 16 7.164062 16 16zm0 0"/><path d="m301.847656 313.78125h32v32h-32zm0 0"/><path d="m261.847656 409.78125v-112h-80v112zm-72-56h8v-16h-8v-16h16c4.417969 0 8 3.582031 8 8v32c0 4.417969-3.582031 8-8 8h-16zm0 0"/><path d="m229.847656 249.78125h32v8h-32zm0 0"/><path d="m181.847656 225.78125h32v8h-32zm0 0"/><path d="m109.847656 313.78125h32v32h-32zm0 0"/><path d="m28.886719 193.78125c-.019531 2.382812.921875 4.671875 2.617187 6.34375 3.507813 3.5 9.179688 3.5 12.6875 0l153.65625-153.65625v-12.6875c0-13.253906 10.746094-24 24-24h12.6875l-7.085937-7.0625c-3.117188-3.082031-8.132813-3.082031-11.25 0l-184.695313 184.71875c-1.695312 1.675781-2.636718 3.964844-2.617187 6.34375zm0 0"/><path d="m181.847656 249.78125h32v8h-32zm0 0"/><path d="m69.847656 385.78125c-.382812.09375-.773437.140625-1.167968.136719-3.53125.230469-6.757813-1.984375-7.816407-5.359375-2.523437-7.386719-10.027343-11.859375-17.726562-10.5625s-13.324219 7.980468-13.289063 15.785156c.023438 2.433594.605469 4.824219 1.703125 6.992188 1.519531 3.074218.910157 6.769531-1.511719 9.195312-2.421874 2.425781-6.117187 3.039062-9.191406 1.527344-7.519531-3.710938-16.632812-.964844-20.847656 6.285156h100.800781c-3.664062-14.101562-16.378906-23.960938-30.953125-24zm0 0"/><path d="m309.847656 57.78125c-4.417968 0-8 3.582031-8 8v8h16v-8c0-4.417969-3.582031-8-8-8zm0 0"/><path d="m97.160156 169.78125h249.375l-16-16h-108.6875c-13.253906 0-24-10.742188-24-24v-60.6875zm0 0"/><path d="m429.847656 25.78125h-208c-4.417968 0-8 3.582031-8 8v96c0 4.417969 3.582032 8 8 8h208c4.417969 0 8-3.582031 8-8v-96c0-4.417969-3.582031-8-8-8zm-184 48h8c13.253906 0 24 10.746094 24 24 0 13.257812-10.746094 24-24 24h-8c-13.253906 0-24-10.742188-24-24h16c0 4.417969 3.582032 8 8 8h8c4.417969 0 8-3.582031 8-8s-3.582031-8-8-8h-8c-13.253906 0-24-10.742188-24-24 0-13.253906 10.746094-24 24-24h8c13.253906 0 24 10.746094 24 24h-16c0-4.417969-3.582031-8-8-8h-8c-4.417968 0-8 3.582031-8 8s3.582032 8 8 8zm88 48h-16v-32h-16v32h-16v-56c0-13.253906 10.746094-24 24-24s24 10.746094 24 24zm48 0h-32c-4.417968 0-8-3.582031-8-8v-72h16v64h24zm48-64h-24v16h16v16h-16v16h24v16h-32c-4.417968 0-8-3.582031-8-8v-64c0-4.417969 3.582032-8 8-8h32zm0 0"/><path d="m413.847656 385.78125c-4.417968 0-8-3.582031-8-8 0-13.253906-10.746094-24-24-24s-24 10.746094-24 24c.035156 2.058594.339844 4.101562.90625 6.082031.644532 2.453125.089844 5.066407-1.496094 7.046875-1.546874 2.035156-4.011718 3.152344-6.5625 2.984375-.269531 0-1.070312-.097656-1.34375-.136719-10.007812.152344-18.855468 6.542969-22.136718 16h117.601562c-3.675781-14.097656-16.398437-23.949218-30.96875-23.976562zm0 0"/><path d="m405.847656 202.742188c2.382813.023437 4.671875-.921876 6.34375-2.617188 3.496094-3.503906 3.496094-9.179688 0-12.6875l-33.65625-33.65625h-25.375l46.34375 46.34375c1.671875 1.695312 3.960938 2.640625 6.34375 2.617188zm0 0"/></svg>