<svg height="454pt" viewBox="0 -19 454.5137 454" width="454pt" xmlns="http://www.w3.org/2000/svg"><path d="m234.03125 370.675781 47 .441407v-53.859376h-47zm0 0"/><path d="m170.03125 370.082031 50 .464844v-60.589844c-.03125-1.804687.679688-3.546875 1.964844-4.8125 1.289062-1.265625 3.039062-1.949219 4.84375-1.886719h61.371094c1.804687-.0625 3.558593.621094 4.847656 1.886719 1.289062 1.265625 2 3.007813 1.972656 4.8125v61.289063l47 .433594v-121.421876h-172zm0 0"/><path d="m.03125 324.507812c11-15.378906 29.972656-25.25 51-25.25h31v-299h-31.054688c-28.382812 0-51.945312 23.207032-50.945312 51.59375zm0 0"/><path d="m96.03125 305.941406c-.027344 3.949219-3.167969 7.175782-7.113281 7.316406h-37.875c-13.5625-.046874-26.578125 5.328126-36.15625 14.925782s-14.9257815 22.625-14.855469 36.183594v.117187c-1 28.394531 22.5625 51.773437 50.953125 51.773437h400.980469l2.550781-344.714843-358.484375-2.113281zm308.476562-151.5625c.070313-3.867187 3.257813-6.945312 7.125-6.878906 3.863282.070312 6.945313 3.257812 6.875 7.125l-2.589843 178.617188c-.046875 3.851562-3.152344 6.960937-7 7.015624h-.101563c-3.894531-.085937-6.984375-3.3125-6.898437-7.210937zm-225-59.011718 192.074219 2.046874c2.488281-.015624 4.796875 1.3125 6.039063 3.46875 1.242187 2.160157 1.226562 4.820313-.039063 6.964844-1.261719 2.148438-3.582031 3.449219-6.074219 3.410156h-.078124l-192.070313-1.972656c-2.496094-.011718-4.792969-1.363281-6.019531-3.535156-1.230469-2.171875-1.199219-4.835938.074218-6.980469 1.273438-2.144531 3.601563-3.445312 6.09375-3.402343zm-48.71875 142.597656 121.816407-105.488282c2.632812-2.28125 6.542969-2.277343 9.171875.007813l121.5 105.488281c2.207031 1.914063 2.988281 5 1.96875 7.734375-1.023438 2.738281-3.640625 4.550781-6.558594 4.550781h-22.65625v128.488282c-.011719 1.796875-.769531 3.511718-2.09375 4.726562-1.347656 1.230469-3.128906 1.875-4.949219 1.785156h-.0625l-186.019531-1.484374c-1.8125.039062-3.566406-.660157-4.859375-1.929688s-2.019531-3.011719-2.015625-4.824219v-126.761719h-20.65625c-2.921875 0-5.535156-1.816406-6.558594-4.554687-1.019531-2.738281-.234375-5.824219 1.976563-7.738281zm0 0"/><path d="m257.183594 147.03125-103.03125 89.226562h205.792968zm0 0"/></svg>