<svg height="512pt" viewBox="0 -30 512 511" width="512pt" xmlns="http://www.w3.org/2000/svg"><path d="m334.203125 330.703125h30.019531v120.074219h-30.019531zm0 0"/><path d="m274.167969 330.703125h30.019531v120.074219h-30.019531zm0 0"/><path d="m94.058594 360.722656h60.035156v90.054688h-60.035156zm0 0"/><path d="m319.195312 240.648438c8.28125 0 15.007813-6.730469 15.007813-15.011719s-6.726563-15.007813-15.007813-15.007813-15.007812 6.726563-15.007812 15.007813 6.726562 15.011719 15.007812 15.011719zm0 0"/><path d="m64.039062 330.703125h120.074219v120.074219h60.035157v-150.09375h150.09375v150.09375h75.046874v-201.710938l-150.09375-120.066406-152.320312 121.847656-10.199219-10.199218h-156.675781v210.128906h64.039062zm255.15625-150.09375c24.828126 0 45.027344 20.199219 45.027344 45.027344 0 24.832031-20.199218 45.027343-45.027344 45.027343-24.828124 0-45.027343-20.195312-45.027343-45.027343 0-24.828125 20.199219-45.027344 45.027343-45.027344zm0 0"/><path d="m169.105469 210.628906 150.089843-120.074218 150.09375 120.074218 42.710938-42.710937-192.804688-154.242188-192.804687 154.242188zm0 0"/><path d="m81.453125 165.425781 93.585937-74.871093h-175.039062v120.074218h126.65625zm0 0"/><path d="m124.074219 60.535156v-30.015625h30.019531v-30.019531h-120.074219v30.019531h30.019531v30.015625zm0 0"/></svg>