<svg height="512pt" viewBox="0 0 512 512" width="512pt" xmlns="http://www.w3.org/2000/svg"><path d="m301.714844 128c20.199218 0 36.570312-16.375 36.570312-36.570312 0-20.199219-16.371094-36.574219-36.570312-36.574219-20.199219 0-36.570313 16.375-36.570313 36.574219 0 20.195312 16.371094 36.570312 36.570313 36.570312zm-6.492188-43.0625c3.585938-3.585938 9.398438-3.585938 12.984375 0 3.582031 3.585938 3.582031 9.398438 0 12.984375-.449219.414063-.9375.78125-1.464843 1.09375-.464844.363281-.992188.640625-1.554688.824219-.542969.277344-1.132812.460937-1.734375.546875-.574219.105469-1.15625.167969-1.738281.183593-.613282-.019531-1.222656-.082031-1.828125-.183593-.574219-.097657-1.128907-.285157-1.648438-.546875-.585937-.199219-1.140625-.476563-1.652343-.824219-.476563-.335937-.933594-.703125-1.363282-1.09375-3.535156-3.605469-3.535156-9.378906 0-12.984375zm0 0"/><path d="m166.234375 344.519531c1.394531 3.859375 3.636719 7.351563 6.566406 10.222657l46.527344-99.757813 54.316406-116.515625c-5.460937-3.242188-10.324219-7.402344-14.371093-12.296875l-92.085938 197.484375c-3.09375 6.546875-3.4375 14.0625-.953125 20.863281zm0 0"/><path d="m301.714844 146.285156c-3.699219 0-7.390625-.371094-11.019532-1.113281l-50.59375 108.46875c39.644532 15.332031 83.582032 15.332031 123.226563 0l-50.597656-108.46875c-3.625.742187-7.316407 1.113281-11.015625 1.113281zm0 0"/><path d="m73.144531 398.078125v-324.933594c0-20.199219-16.375-36.574219-36.574219-36.574219-20.195312 0-36.570312 16.375-36.570312 36.574219v324.933594c20.765625-18.777344 52.378906-18.777344 73.144531 0zm0 0"/><path d="m384.117188 254.929688 46.511718 99.8125c8.261719-8.128907 10.5-20.582032 5.59375-31.085938l-92.066406-197.484375c-4.042969 4.90625-8.902344 9.078125-14.363281 12.332031l54.296875 116.390625zm0 0"/><path d="m320 39.769531v-21.484375c0-10.097656-8.1875-18.285156-18.285156-18.285156s-18.285156 8.1875-18.285156 18.285156v21.484375c11.816406-4.265625 24.753906-4.265625 36.570312 0zm0 0"/><path d="m475.429688 109.714844h-118.757813l96.136719 206.144531c9.210937 19.664063 3.277344 43.09375-14.179688 56.007813l8.117188 17.371093c1.480468 2.976563 1.234375 6.519531-.648438 9.253907-1.882812 2.738281-5.101562 4.242187-8.410156 3.921874-3.304688-.316406-6.179688-2.402343-7.507812-5.449218l-19.308594-41.4375-39.789063-85.308594c-44.5625 17.585938-94.144531 17.585938-138.707031 0l-39.789062 85.308594-19.308594 41.4375c-1.328125 3.046875-4.203125 5.132812-7.511719 5.449218-3.304687.320313-6.523437-1.183593-8.40625-3.921874-1.882813-2.734376-2.132813-6.277344-.652344-9.253907l8.121094-17.371093c-17.464844-12.921876-23.394531-36.367188-14.171875-56.035157l96.101562-206.117187h-155.328124v329.140625c0 5.050781-4.09375 9.144531-9.144532 9.144531-5.050781 0-9.140625-4.09375-9.140625-9.144531 0-20.195313-16.375-36.570313-36.574219-36.570313-20.195312 0-36.570312 16.375-36.570312 36.570313v36.574219c0 20.195312 16.375 36.570312 36.570312 36.570312h438.859376c20.195312 0 36.570312-16.375 36.570312-36.570312v-329.144532c0-20.199218-16.375-36.570312-36.570312-36.570312zm-365.714844 27.429687c0-5.050781 4.09375-9.144531 9.140625-9.144531h27.429687c5.050782 0 9.144532 4.09375 9.144532 9.144531 0 5.046875-4.09375 9.140625-9.144532 9.140625h-18.285156v18.285156c0 5.050782-4.09375 9.144532-9.144531 9.144532-5.046875 0-9.140625-4.09375-9.140625-9.144532zm36.570312 356.570313h-27.429687c-5.046875 0-9.140625-4.09375-9.140625-9.144532v-27.425781c0-5.050781 4.09375-9.144531 9.140625-9.144531 5.050781 0 9.144531 4.09375 9.144531 9.144531v18.285157h18.285156c5.050782 0 9.144532 4.09375 9.144532 9.140624 0 5.050782-4.09375 9.144532-9.144532 9.144532zm264.4375-51.363282c-.457031 1.113282-1.128906 2.125-1.980468 2.980469l-27.429688 27.425781c-3.589844 3.464844-9.289062 3.417969-12.816406-.109374-3.527344-3.527344-3.578125-9.230469-.113282-12.816407l11.832032-11.832031h-157l11.820312 11.820312c2.378906 2.296876 3.332032 5.695313 2.492188 8.894532-.835938 3.195312-3.332032 5.691406-6.527344 6.527344-3.199219.835937-6.597656-.117188-8.890625-2.492188l-27.429687-27.429688c-.082032-.082031-.109376-.191406-.183594-.28125-.769532-.777343-1.386719-1.691406-1.828125-2.6875 0-.085937 0-.167968-.066407-.238281-.6875-1.964843-.714843-4.101562-.070312-6.082031.089844-.308594.195312-.613281.320312-.914062.433594-1.019532 1.054688-1.949219 1.828126-2.742188l27.429687-27.429688c3.585937-3.464843 9.289063-3.414062 12.816406.113282 3.523438 3.527344 3.574219 9.226562.109375 12.816406l-11.820312 11.839844h157l-11.820313-11.824219c-3.464843-3.585937-3.417969-9.289063.109375-12.816406 3.527344-3.523438 9.230469-3.574219 12.816406-.109375l27.429688 27.429687c2.617188 2.613281 3.398438 6.546875 1.984375 9.964844zm82.992188 42.21875c0 5.050782-4.09375 9.144532-9.144532 9.144532h-27.425781c-5.050781 0-9.144531-4.09375-9.144531-9.144532 0-5.046874 4.09375-9.140624 9.144531-9.140624h18.285157v-18.285157c0-5.050781 4.09375-9.144531 9.140624-9.144531 5.050782 0 9.144532 4.09375 9.144532 9.144531zm0-320c0 5.050782-4.09375 9.144532-9.144532 9.144532-5.046874 0-9.140624-4.09375-9.140624-9.144532v-18.285156h-18.285157c-5.050781 0-9.144531-4.09375-9.144531-9.140625 0-5.050781 4.09375-9.144531 9.144531-9.144531h27.425781c5.050782 0 9.144532 4.09375 9.144532 9.144531zm0 0"/></svg>