<svg height="512pt" viewBox="0 0 512 512" width="512pt" xmlns="http://www.w3.org/2000/svg"><path d="m23.5 121h112.5c8.402344 0 15 6.597656 15 15 0 8.398438-6.597656 15-15 15h-82.5c-12.300781 0-22.5 10.199219-22.5 22.5s10.199219 22.5 22.5 22.5h127.5c8.402344 0 15 6.597656 15 15v15l57-60h33v-135h-24c-21.300781-19.199219-49.800781-31-78.300781-31h-130.199219c-12.300781 0-22.5 10.199219-22.5 22.5s10.199219 23.5 22.5 23.5h82.5c8.402344 0 15 6.597656 15 15 0 8.398438-6.597656 15-15 15h-112.5c-12.300781 0-23.5 10.199219-23.5 22.5s11.199219 22.5 23.5 22.5zm0 0"/><path d="m166 259v-33h-135v24c-19.199219 21.300781-31 49.800781-31 78.300781v130.199219c0 12.300781 11.199219 22.5 23.5 22.5s22.5-10.199219 22.5-22.5v-82.5c0-8.402344 6.597656-15 15-15 8.398438 0 15 6.597656 15 15v112.5c0 12.300781 10.199219 23.5 22.5 23.5s22.5-11.199219 22.5-23.5v-112.5c0-8.402344 6.597656-15 15-15 8.398438 0 15 6.597656 15 15v82.5c0 12.300781 10.199219 22.5 22.5 22.5s22.5-10.199219 22.5-22.5v-127.5c0-8.402344 6.597656-15 15-15h15zm0 0"/><path d="m488.5 391h-112.5c-8.402344 0-15-6.597656-15-15 0-8.398438 6.597656-15 15-15h82.5c12.300781 0 22.5-10.199219 22.5-22.5s-10.199219-22.5-22.5-22.5h-127.5c-8.402344 0-15-6.597656-15-15v-15l-57 60h-33v135h24c21.300781 19.199219 49.800781 31 78.300781 31h130.199219c12.300781 0 22.5-11.199219 22.5-23.5s-10.199219-22.5-22.5-22.5h-82.5c-8.402344 0-15-6.597656-15-15 0-8.398438 6.597656-15 15-15h112.5c12.300781 0 23.5-10.199219 23.5-22.5s-11.199219-22.5-23.5-22.5zm0 0"/><path d="m488.5 31c-12.300781 0-22.5 10.199219-22.5 22.5v82.5c0 8.402344-6.597656 15-15 15-8.398438 0-15-6.597656-15-15v-113.5c0-12.300781-10.199219-22.5-22.5-22.5s-22.5 10.199219-22.5 22.5v113.5c0 8.402344-6.597656 15-15 15-8.398438 0-15-6.597656-15-15v-82.5c0-12.300781-10.199219-22.5-22.5-22.5s-22.5 10.199219-22.5 22.5v127.5c0 8.402344-6.597656 15-15 15h-15l60 57v33h135v-24c19.199219-21.300781 31-49.800781 31-78.300781v-130.199219c0-12.300781-11.199219-22.5-23.5-22.5zm0 0"/></svg>