<?xml version="1.0" encoding="iso-8859-1"?>
<!-- Generator: Adobe Illustrator 19.0.0, SVG Export Plug-In . SVG Version: 6.00 Build 0)  -->
<svg version="1.1" id="Capa_1" xmlns="http://www.w3.org/2000/svg" xmlns:xlink="http://www.w3.org/1999/xlink" x="0px" y="0px"
	 viewBox="0 0 512.003 512.003" style="enable-background:new 0 0 512.003 512.003;" xml:space="preserve">
<g>
	<g>
		<circle cx="157.787" cy="45.245" r="45.245"/>
	</g>
</g>
<g>
	<g>
		<path d="M411.483,310.468l-17.515,13.369l-42.703-4.977l13.028-13.029c4.123-4.122,4.123-10.806,0-14.929
			c-50.76-50.76-47.325-47.488-48.782-48.412c-1.536-2.267-3.295-4.407-5.275-6.386c-8.167-8.167-19.025-12.664-30.575-12.664
			c-2.584,0-5.129,0.237-7.621,0.678c-2.035-1.721-4.443-3.071-7.156-3.892l-74.184-22.463l-28.433-59.497l34.506,42.94
			l11.552,3.498v-48.353c0-16.88-13.684-30.564-30.564-30.564h-54.505c-16.88,0-30.564,13.684-30.564,30.564v156.815h0.026
			l-3.263,77.983L45.735,477.263c-5.292,12.844,0.831,27.546,13.675,32.837c12.841,5.292,27.545-0.829,32.838-13.674l45.408-110.211
			c1.117-2.712,1.752-5.599,1.874-8.53c3.75-89.604,3.509-83.511,3.51-84.517h12.006l28.725,78.315l16.166,118.754
			c1.875,13.77,14.558,23.404,28.315,21.529c13.764-1.873,23.404-14.551,21.529-28.316l-16.535-121.46
			c-0.244-1.799-0.684-3.565-1.309-5.269l-23.614-64.381v-28.797c-14.263-4.319-35.232-10.669-49.523-14.996
			c-8.599-2.604-14.664-9.641-16.471-17.832l-16.374-75.097l32.259,67.505c2.438,5.103,6.911,8.943,12.324,10.582l67.702,20.5
			c-1.196,3.994-1.819,8.185-1.819,12.471c0,11.549,4.496,22.407,12.665,30.574l-10.045,10.045c-4.123,4.122-4.123,10.806,0,14.929
			l46.963,46.964c4.123,4.123,10.806,4.123,14.929,0l18.52-18.52l70.47-10.377l14.93,19.553c1.916,2.508,5.93,1.453,6.352-1.684
			l5.96-44.395C417.585,310.64,414,308.548,411.483,310.468z M259.759,286.58c-5.316-5.316-8.244-12.384-8.244-19.903
			c0-2.782,0.404-5.502,1.178-8.095c11.913,3.609,22.568-3.192,25.618-13.267c0.684-2.259,0.929-4.542,0.824-6.771
			c0.176-0.003,0.351-0.013,0.527-0.013c7.518,0,14.587,2.928,19.904,8.243L259.759,286.58z"/>
	</g>
</g>
<g>
	<g>
		<path d="M462.872,384.443c0,0-1.806,0.89-4.966,2.45c-20.782,10.721-36.502,29.786-46.491,51.474
			c-5.495-11.183-16.34-27.774-25.942-33.993c-3.318-2.164-6.49,2.051-3.989,4.588c7.099,7.196,17.098,30.196,18.502,45.026
			c1.862,16.184,1.427,13.93,0.716,17.373c-13.676-3.039-26.66,6.414-28.39,19.895c-2.074-0.655-4.281-1.01-6.571-1.01
			c-12.024,0-21.773,9.735-21.797,21.753h120.377c-1.496-7.613-7.677-13.536-15.42-14.663c0.001-0.072,0.011-0.143,0.011-0.215
			c0-11.201-11.911-18.402-21.818-13.228c-0.649-13.154,0.567-24.764,3.205-36.873c6.742-27.743,18.916-43.252,36.176-56.212
			l0.212-0.159C470.222,387.999,466.833,382.49,462.872,384.443z"/>
	</g>
</g>
<g>
</g>
<g>
</g>
<g>
</g>
<g>
</g>
<g>
</g>
<g>
</g>
<g>
</g>
<g>
</g>
<g>
</g>
<g>
</g>
<g>
</g>
<g>
</g>
<g>
</g>
<g>
</g>
<g>
</g>
</svg>
