<?xml version="1.0" encoding="iso-8859-1"?>
<!-- Generator: Adobe Illustrator 19.0.0, SVG Export Plug-In . SVG Version: 6.00 Build 0)  -->
<svg version="1.1" id="Capa_1" xmlns="http://www.w3.org/2000/svg" xmlns:xlink="http://www.w3.org/1999/xlink" x="0px" y="0px"
	 viewBox="0 0 512 512" style="enable-background:new 0 0 512 512;" xml:space="preserve">
<g>
	<g>
		<g>
			<path d="M91.429,274.42v27.295h91.429v-31.402c0.074-11.011,5.036-21.42,13.545-28.411
				c12.445-10.195,20.485-24.792,22.452-40.759h-17.711c-5.049,0-9.143-4.093-9.143-9.143V54.857c0-5.049-4.093-9.143-9.143-9.143
				c-5.049,0-9.143,4.093-9.143,9.143v82.286c0,5.049-4.093,9.143-9.143,9.143c-5.049,0-9.143-4.093-9.143-9.143v-128
				c0-5.049-4.093-9.143-9.143-9.143c-5.049,0-9.143,4.093-9.143,9.143v128c0,5.049-4.093,9.143-9.143,9.143
				s-9.143-4.093-9.143-9.143V36.571c0-5.049-4.093-9.143-9.143-9.143s-9.143,4.093-9.143,9.143v100.571
				c0,5.049-4.093,9.143-9.143,9.143c-5.049,0-9.143-4.093-9.143-9.143v-64c0-5.049-4.093-9.143-9.143-9.143
				C68.093,64,64,68.093,64,73.143v100.571c0.007,18.666,5.084,36.98,14.688,52.987C87.175,241.161,91.579,257.653,91.429,274.42z"
				/>
			<path d="M241.902,315.598c-10.195-12.445-24.792-20.485-40.759-22.453v17.711c0,5.049-4.093,9.143-9.143,9.143H54.857
				c-5.049,0-9.143,4.093-9.143,9.143s4.093,9.143,9.143,9.143h82.286c5.049,0,9.143,4.093,9.143,9.143s-4.093,9.143-9.143,9.143
				h-128c-5.049,0-9.143,4.093-9.143,9.143s4.093,9.143,9.143,9.143h128c5.049,0,9.143,4.093,9.143,9.143
				c0,5.049-4.093,9.143-9.143,9.143H36.571c-5.049,0-9.143,4.093-9.143,9.143c0,5.049,4.093,9.143,9.143,9.143h100.571
				c5.049,0,9.143,4.093,9.143,9.143c0,5.049-4.093,9.143-9.143,9.143h-64c-5.049,0-9.143,4.093-9.143,9.143
				c0,5.049,4.093,9.143,9.143,9.143h100.571c18.666-0.007,36.98-5.084,52.987-14.688c14.46-8.488,30.952-12.892,47.719-12.741
				h27.295v-91.429h-31.402C259.301,329.069,248.892,324.106,241.902,315.598z"/>
			<path d="M420.571,237.58v-27.295h-91.429v31.402c-0.074,11.011-5.036,21.42-13.545,28.411
				c-12.445,10.195-20.485,24.792-22.453,40.759h17.711c5.049,0,9.143,4.093,9.143,9.143v137.143c0,5.049,4.093,9.143,9.143,9.143
				s9.143-4.093,9.143-9.143v-82.286c0-5.049,4.093-9.143,9.143-9.143s9.143,4.093,9.143,9.143v128c0,5.049,4.093,9.143,9.143,9.143
				s9.143-4.093,9.143-9.143v-128c0-5.049,4.093-9.143,9.143-9.143c5.049,0,9.143,4.093,9.143,9.143v100.571
				c0,5.049,4.093,9.143,9.143,9.143c5.049,0,9.143-4.093,9.143-9.143V374.857c0-5.049,4.093-9.143,9.143-9.143
				c5.049,0,9.143,4.093,9.143,9.143v64c0,5.049,4.093,9.143,9.143,9.143c5.049,0,9.143-4.093,9.143-9.143V338.286
				c-0.007-18.666-5.084-36.98-14.688-52.987C424.825,270.839,420.421,254.347,420.571,237.58z"/>
			<path d="M502.857,137.143h-128c-5.049,0-9.143-4.093-9.143-9.143s4.093-9.143,9.143-9.143h100.571
				c5.049,0,9.143-4.093,9.143-9.143s-4.093-9.143-9.143-9.143H374.857c-5.049,0-9.143-4.093-9.143-9.143
				c0-5.049,4.093-9.143,9.143-9.143h64c5.049,0,9.143-4.093,9.143-9.143c0-5.049-4.093-9.143-9.143-9.143H338.286
				c-18.666,0.007-36.98,5.084-52.987,14.688c-14.46,8.488-30.953,12.892-47.719,12.741h-27.295v91.429h31.402
				c11.011,0.074,21.42,5.036,28.411,13.545c10.195,12.445,24.792,20.485,40.759,22.452v-17.711c0-5.049,4.093-9.143,9.143-9.143
				h137.143c5.049,0,9.143-4.093,9.143-9.143c0-5.049-4.093-9.143-9.143-9.143h-82.286c-5.049,0-9.143-4.093-9.143-9.143
				c0-5.049,4.093-9.143,9.143-9.143h128c5.049,0,9.143-4.093,9.143-9.143C512,141.236,507.907,137.143,502.857,137.143z"/>
		</g>
	</g>
</g>
<g>
</g>
<g>
</g>
<g>
</g>
<g>
</g>
<g>
</g>
<g>
</g>
<g>
</g>
<g>
</g>
<g>
</g>
<g>
</g>
<g>
</g>
<g>
</g>
<g>
</g>
<g>
</g>
<g>
</g>
</svg>
