<?xml version="1.0" encoding="iso-8859-1"?>
<!-- Generator: Adobe Illustrator 19.0.0, SVG Export Plug-In . SVG Version: 6.00 Build 0)  -->
<svg version="1.1" id="Capa_1" xmlns="http://www.w3.org/2000/svg" xmlns:xlink="http://www.w3.org/1999/xlink" x="0px" y="0px"
	 viewBox="0 0 512.002 512.002" style="enable-background:new 0 0 512.002 512.002;" xml:space="preserve">
<g>
	<g>
		<path d="M209.169,120.94h-2.851c-9.411,16.773-27.359,28.139-47.922,28.139c-20.073,0-38.252-10.905-47.922-28.139h-3.507
			c-25.217,0-45.833,20.198-45.957,45.12v126.394c-15.75,2.549-27.817,16.237-27.817,32.695v16.92
			c0,5.629,4.564,10.193,10.193,10.193s10.193-4.564,10.193-10.193v-16.92c0-5.58,3.611-10.321,8.614-12.042
			c2.564,6.999,9.088,12.068,16.868,12.5v176.198c0,5.629,4.564,10.193,10.193,10.193c5.629,0,10.193-4.564,10.193-10.193
			c0-192.759,0.001-182.597,0-335.651c0-0.001,0-0.002,0-0.003c0.013-2.235,1.832-4.038,4.066-4.031
			c2.234,0.007,4.042,1.821,4.042,4.055c0,30.032,0,154.236,0,322.877c0,12.672,10.273,22.946,22.946,22.946
			s22.946-10.273,22.946-22.946v-183.41c0-0.489-0.02-0.972-0.05-1.454h10.007c-0.03,0.482-0.05,0.965-0.05,1.454v183.411
			c0,12.672,10.273,22.946,22.946,22.946c12.673,0,22.946-10.273,22.946-22.946c0-296.943,0-138.783,0-322.974
			c0-2.105,1.702-3.812,3.807-3.818c2.105-0.006,3.817,1.691,3.828,3.796c0,0.001,0,0.001,0,0.001v140.481
			c0,10.561,8.561,19.122,19.122,19.122s19.121-8.561,19.121-19.122V165.964C255.001,141.138,234.384,120.94,209.169,120.94z"/>
	</g>
</g>
<g>
	<g>
		<circle cx="158.397" cy="94.161" r="39.631"/>
	</g>
</g>
<g>
	<g>
		<path d="M429.94,97.714c-11.996,0-104.77,0-116.164,0c-13.02,0-25.219,5.776-33.47,15.848l-19.088,23.3
			c4.977,8.577,7.86,18.481,7.913,29.032c0,0.056,0,0.111,0,0.168v25.311l42.87-50.885c1.126-1.335,2.783-2.107,4.529-2.107
			c2.954,0,5.349,2.395,5.349,5.349l0.01,343.872c0,13.475,10.924,24.4,24.4,24.4c13.476,0,24.4-10.924,24.4-24.4V292.571h10.534
			V487.6c0,13.475,10.924,24.4,24.4,24.4c13.475,0,24.4-10.924,24.4-24.4c0-318.542-0.432-143.768-0.442-341.884
			c0-2.359,1.909-4.275,4.269-4.282c2.359-0.007,4.281,1.897,4.294,4.259v149.379c0,11.23,9.103,20.333,20.333,20.333
			c11.23,0,20.333-9.103,20.333-20.333V145.59C478.676,119.191,456.753,97.714,429.94,97.714z"/>
	</g>
</g>
<g>
	<g>
		<circle cx="375.952" cy="42.145" r="42.145"/>
	</g>
</g>
<g>
</g>
<g>
</g>
<g>
</g>
<g>
</g>
<g>
</g>
<g>
</g>
<g>
</g>
<g>
</g>
<g>
</g>
<g>
</g>
<g>
</g>
<g>
</g>
<g>
</g>
<g>
</g>
<g>
</g>
</svg>
