<?xml version="1.0" encoding="iso-8859-1"?>
<!-- Generator: Adobe Illustrator 18.0.0, SVG Export Plug-In . SVG Version: 6.00 Build 0)  -->
<!DOCTYPE svg PUBLIC "-//W3C//DTD SVG 1.1//EN" "http://www.w3.org/Graphics/SVG/1.1/DTD/svg11.dtd">
<svg version="1.1" id="Capa_1" xmlns="http://www.w3.org/2000/svg" xmlns:xlink="http://www.w3.org/1999/xlink" x="0px" y="0px"
	 viewBox="0 0 493.508 493.508" style="enable-background:new 0 0 493.508 493.508;" xml:space="preserve">
<g>
	<path d="M466.252,433.547l-65.574-65.578l14.645-87.66c0.883-5.246-0.84-10.598-4.605-14.363L212.881,68.102
		c-6.18-6.18-17.121-6.18-23.301,0l-30.605,30.598l-25.91-25.906l30.609-30.602c9.652-9.645,9.652-25.297,0-34.949
		c-9.656-9.656-25.297-9.656-34.953,0L16.139,119.805c-9.656,9.649-9.656,25.297,0,34.953C20.967,159.586,27.291,162,33.616,162
		s12.648-2.414,17.477-7.242l30.59-30.59l25.926,25.906l-30.59,30.59c-6.438,6.438-6.438,16.867,0,23.305L274.854,401.82
		c3.121,3.113,7.32,4.828,11.648,4.828c0.902,0,1.82-0.074,2.723-0.227l87.652-14.652l100.512,100.496
		c1.383,1.391,3.539,1.641,5.215,0.613c1.672-1.039,2.414-3.082,1.785-4.941L466.252,433.547z M111.967,192.316l89.266-89.262
		l180.184,180.199l-12.777,76.477l-76.488,12.785L111.967,192.316z"/>
	<path d="M235.83,164.156c-6.438-6.438-16.867-6.438-23.301,0l-39.461,39.465c-6.434,6.438-6.434,16.871,0,23.301
		c3.219,3.219,7.438,4.828,11.652,4.828c4.215,0,8.434-1.609,11.652-4.828l39.457-39.465
		C242.268,181.02,242.268,170.586,235.83,164.156z"/>
	<path d="M283.428,211.758c-6.434-6.438-16.863-6.438-23.301,0l-39.457,39.465c-6.438,6.438-6.438,16.871,0,23.301
		c3.219,3.219,7.434,4.828,11.652,4.828c4.215,0,8.43-1.609,11.648-4.828l39.457-39.465
		C289.866,228.621,289.866,218.184,283.428,211.758z"/>
	<path d="M307.744,259.355l-39.488,39.477c-6.438,6.426-6.438,16.863,0,23.301c3.219,3.219,7.434,4.828,11.648,4.828
		c4.219,0,8.434-1.609,11.652-4.828l39.488-39.477c6.438-6.426,6.438-16.863,0-23.301
		C324.612,252.918,314.182,252.918,307.744,259.355z"/>
</g>
<g>
</g>
<g>
</g>
<g>
</g>
<g>
</g>
<g>
</g>
<g>
</g>
<g>
</g>
<g>
</g>
<g>
</g>
<g>
</g>
<g>
</g>
<g>
</g>
<g>
</g>
<g>
</g>
<g>
</g>
</svg>
