<?xml version="1.0" encoding="iso-8859-1"?>
<!-- Generator: Adobe Illustrator 19.0.0, SVG Export Plug-In . SVG Version: 6.00 Build 0)  -->
<svg version="1.1" id="Capa_1" xmlns="http://www.w3.org/2000/svg" xmlns:xlink="http://www.w3.org/1999/xlink" x="0px" y="0px"
	 viewBox="0 0 512 512" style="enable-background:new 0 0 512 512;" xml:space="preserve">
<g>
	<g>
		<path d="M151.34,297.829l2.967-8.517l-26.373-2.956l-22.291-25.668c1.096-13.861-8.546-22.914-19.322-23.767l-26.751-2.116
			c-11.637-0.921-21.818,7.767-22.738,19.403l-3.342,42.239L55.8,258.916l-12.384,41.992c-1.141,3.87-0.27,8.054,2.321,11.145
			l30.915,36.892c4.275,5.102,11.875,5.769,16.972,1.497c5.1-4.273,5.77-11.872,1.497-16.972l-26.766-31.942l10.557-35.798
			l-1.106,29.703l22.922,27.354c1.048-13.244,1.453-18.354,2.26-28.564l9.9,11.398c1.974,2.272,4.73,3.72,7.722,4.056l30.896,3.463
			C149.728,308.383,149.538,303,151.34,297.829z"/>
	</g>
</g>
<g>
	<g>
		<circle cx="426.283" cy="68.049" r="37.221"/>
	</g>
</g>
<g>
	<g>
		<path d="M503.085,234.73l-51.451-27.52l-4.976-52.019l14.072,39.165l17.625,9.428l-12.03-65.748
			c-2.01-10.991-10.922-18.935-21.281-18.935c-13.339,0-22.72,0-37.526,0c-10.379,0-19.265,7.922-21.281,18.935l-1.12,6.117
			l-46.097,35.274c-3.023,2.313-5.176,5.582-6.105,9.273l-14.245,56.513l-21.779,11.393l-27.449-15.078
			c-1.707-7.153-7.67-12.238-14.571-12.238c-9.263,0-15.777,0-26.057,0c-6.127,0-11.492,3.982-13.827,9.872l11.376-0.018
			l-41.23,10.579c-3.799,0.975-6.858,3.787-8.149,7.49l-15.401,44.189c-2.128,6.108,1.097,12.787,7.205,14.915
			c6.109,2.13,12.787-1.098,14.915-7.205l13.335-38.259l35.146-9.018l-24.11,13.195l-17.07,93.29
			c-0.802,4.384,2.363,8.281,6.282,8.281c3.512,0,8.035,0,13.187,0v26.466l-22.667,57.153c-3.047,7.683,0.711,16.382,8.394,19.429
			c7.688,3.049,16.384-0.716,19.429-8.394l23.722-59.811c0.697-1.757,1.054-3.628,1.054-5.518c0-9.436,0-16.465,0-29.326
			c2.463,0,4.93,0,7.38,0l11.716,26.636L276.3,469.42c2.034,8.009,10.173,12.858,18.187,10.824
			c8.012-2.034,12.857-10.176,10.824-18.187l-17.104-67.387c-0.204-0.802-0.474-1.586-0.808-2.343l-6.916-15.724
			c2.185,0,4.178,0,5.915,0c4.029,0,7.068-3.987,6.282-8.281c-1.952-10.664-15.815-86.433-17.759-97.053l16.194,8.896
			c3.397,1.865,7.551,1.953,11.068,0.113l16.165-8.456c2.238,3.019,5.492,5.315,9.42,6.305c9.041,2.277,18.203-3.206,20.479-12.233
			l15.942-63.243l11.89-9.099l-23.012,125.77c-1.13,6.173,3.26,11.926,9.048,11.926c3.759,0,13.861,0,17.871,0v41.383
			l-19.415,82.019c-2.742,11.583,4.425,23.195,16.008,25.938c11.599,2.743,23.199-4.441,25.937-16.008l19.995-84.468
			c0.386-1.627,0.58-3.292,0.58-4.965v-43.899c2.731,0,5.467,0,8.195,0l10.784,40.711l3.773,88.573
			c0.493,11.58,10.036,20.636,21.516,20.636h0.001c12.307,0,22.069-10.243,21.549-22.47l-3.873-90.912
			c-0.066-1.555-0.301-3.097-0.699-4.602l-8.46-31.935c5.595,0,10.541,0,14.568,0c5.82,0,10.175-5.763,9.048-11.926l-6.828-37.316
			c-4.372-0.33-8.748-1.547-12.863-3.747c-8.877-4.748-56.239-30.081-65.25-34.901c-8.328-4.455-12.551-13.609-11.194-22.441
			l10.326-56.139l5.228,54.651c0.537,5.624,3.854,10.603,8.835,13.268l59.424,31.785c8.218,4.396,18.437,1.294,22.83-6.917
			C514.396,249.345,511.299,239.124,503.085,234.73z"/>
	</g>
</g>
<g>
	<g>
		<circle cx="241.839" cy="184.84" r="31.63"/>
	</g>
</g>
<g>
	<g>
		<path d="M132.706,462.036l-11.211-69.116c-0.245-1.508-0.703-2.973-1.362-4.352l-15.874-33.196
			c-1.006,1.303-2.154,2.523-3.467,3.624c-9.104,7.629-22.331,7.065-30.774-0.875l5.264,11.007L90.2,400.328l10.842,66.843
			c1.419,8.746,9.657,14.682,18.399,13.264C128.186,479.017,134.124,470.779,132.706,462.036z"/>
	</g>
</g>
<g>
	<g>
		<g>
			<path d="M32.206,312.653l0.001-0.009C32.207,312.644,32.202,312.642,32.206,312.653z"/>
			<path d="M32.206,312.653l-2.988,37.758v52.875L1.744,457.338c-4.014,7.896-0.866,17.552,7.03,21.565
				c7.895,4.014,17.552,0.866,21.565-7.03l29.215-57.478c1.145-2.251,1.741-4.742,1.741-7.267v-52.632l5.387-0.072
				C33.821,315.209,32.259,312.796,32.206,312.653z"/>
		</g>
	</g>
</g>
<g>
	<g>
		<circle cx="77.601" cy="190.868" r="32.292"/>
	</g>
</g>
<g>
</g>
<g>
</g>
<g>
</g>
<g>
</g>
<g>
</g>
<g>
</g>
<g>
</g>
<g>
</g>
<g>
</g>
<g>
</g>
<g>
</g>
<g>
</g>
<g>
</g>
<g>
</g>
<g>
</g>
</svg>
