<?xml version="1.0" encoding="iso-8859-1"?>
<!-- Generator: Adobe Illustrator 16.0.0, SVG Export Plug-In . SVG Version: 6.00 Build 0)  -->
<!DOCTYPE svg PUBLIC "-//W3C//DTD SVG 1.1//EN" "http://www.w3.org/Graphics/SVG/1.1/DTD/svg11.dtd">
<svg version="1.1" id="Capa_1" xmlns="http://www.w3.org/2000/svg" xmlns:xlink="http://www.w3.org/1999/xlink" x="0px" y="0px"
	 width="550.801px" height="550.801px" viewBox="0 0 550.801 550.801" style="enable-background:new 0 0 550.801 550.801;"
	 xml:space="preserve">
<g>
	<g>
		<path d="M275.4,0c-54.296,0-104.929,15.859-147.63,43.093c5.271,4.415,9.714,9.788,13.023,15.871
			C179.892,34.558,226.016,20.4,275.4,20.4c140.605,0,255,114.395,255,255c0,140.604-114.395,255-255,255
			c-140.604,0-255-114.396-255-255c0-53.204,16.401-102.641,44.382-143.56c-5.928-3.554-11.118-8.184-15.316-13.639
			C18.332,162.808,0,216.991,0,275.4c0,151.857,123.542,275.4,275.399,275.4c151.858,0,275.4-123.543,275.4-275.4
			C550.8,123.542,427.258,0,275.4,0z"/>
		<path d="M117.06,50.278c-6.887-4.827-15.251-7.687-24.3-7.687c-23.415,0-42.399,18.984-42.399,42.399
			c0,8.413,2.48,16.234,6.708,22.832c3.729,5.822,8.829,10.666,14.863,14.076c6.157,3.48,13.252,5.492,20.829,5.492
			c23.415,0,42.399-18.984,42.399-42.399c0-6.94-1.702-13.472-4.66-19.257C127.337,59.543,122.71,54.239,117.06,50.278z"/>
		<path d="M275.4,486.816c116.501,0,211.279-94.777,211.279-211.277c0-116.501-94.778-211.279-211.279-211.279
			c-116.5,0-211.278,94.778-211.278,211.279C64.122,392.039,158.9,486.816,275.4,486.816z M371.448,110.551
			c34.998,20.47,62.93,51.735,79.172,89.222c-0.963-0.351-1.971-0.616-3.072-0.689c-0.877-0.057-1.754-0.175-2.619-0.331
			c-2.493-0.453-4.329-1.791-5.238-4.19c-0.412-1.089-0.6-2.261-0.922-3.387c-0.11-0.392-0.323-0.75-0.507-1.175
			c-0.298,0.184-0.521,0.257-0.656,0.412c-0.392,0.437-0.759,0.894-1.114,1.358c-0.444,0.583-0.836,1.212-1.31,1.767
			c-1.546,1.808-2.782,1.693-3.9-0.351c-0.245-0.449-0.453-0.922-0.637-1.399c-0.261-0.686-0.469-1.387-0.722-2.077
			c-0.355-0.963-0.674-1.942-1.11-2.869c-0.84-1.795-1.632-1.885-2.844-0.379c-0.229,0.286-0.42,0.604-0.669,0.874
			c-0.399,0.428-0.791,0.873-1.252,1.232c-1.588,1.24-3.216,1.245-4.848,0.033c-0.294-0.216-0.547-0.485-0.82-0.73
			c-0.75-0.677-1.109-1.477-1.072-2.525c0.049-1.318,0.016-2.644-0.119-3.958c-0.081-0.784-0.358-1.567-0.66-2.301
			c-0.245-0.604-0.955-0.759-1.489-0.379c-0.535,0.375-1.017,0.824-1.607,1.31c-0.665-0.277-1.335-0.542-1.995-0.84
			c-2.868-1.302-5.725-2.636-8.605-3.917c-0.987-0.437-1.905-0.942-2.741-2.048c-1.547,5.165-1.689,10.245-2.424,15.328
			c-0.542,0.171-1.081,0.372-1.636,0.514c-2.411,0.612-4.852,1.139-7.242,1.828c-3.908,1.126-7.373,0.351-10.534-2.134
			c-2.289-1.799-4.06-4.031-5.484-6.536c-1.815-3.187-3.573-6.406-5.349-9.617c-0.208-0.375-0.363-0.779-0.555-1.195
			c0.812-0.902,1.881-1.253,2.815-1.792c4.288-2.464,8.833-3.917,13.852-3.423c0.612,0.061,1.154-0.049,1.656-0.42
			c0.351-0.261,0.747-0.465,1.118-0.698c1.856-1.179,3.917-2.138,5.512-3.603c1.656-1.514,2.885-3.5,4.26-5.312
			c0.567-0.747,1.269-1.416,1.615-2.358c-0.645-1.505-1.224-3.015-1.93-4.459c-0.575-1.179-0.693-2.362-0.485-3.627
			c0.249-1.518,0.481-3.043,0.673-4.57c0.069-0.551,0.311-1.159-0.236-1.742c-2.395-0.326-4.847-0.75-7.319-0.963
			c-1.184-0.102-1.873-0.591-2.415-1.57c-0.747-1.347-1.616-2.628-2.334-3.986c-0.506-0.959-1.249-1.363-2.272-1.469
			c-1.384-0.143-2.763-0.408-4.146-0.486c-1.126-0.065-1.942-0.551-2.652-1.354c-1.093-1.232-1.767-2.688-2.272-4.235
			c-0.714-2.179-0.954-4.443-1.126-6.712C370.962,115.954,371.084,113.289,371.448,110.551z M362.276,131.352
			c-0.449-1.473-0.363-2.028,0.555-2.722c1.163-0.877,2.688-1.077,3.685-0.367c0.587,0.42,1.13,0.947,1.566,1.518
			c1.167,1.538,2.477,2.815,4.309,3.627c2.036,0.902,3.586,2.518,4.985,4.235c2.636,3.231,4.378,6.912,5.419,10.938
			c0.073,0.278,0.061,0.58,0.105,1.028c-1.559,1.538-3.227,2.717-5.051,3.668c-0.645,0.334-1.334,0.632-2.036,0.812
			c-4.206,1.077-6.716-1.257-7.466-4.484c-0.596-2.562-0.992-5.169-1.502-7.911c-0.453,0.114-0.869,0.159-1.228,0.322
			c-1.522,0.698-3.027,1.428-4.623,2.187c-1.253-1.648-2.109-3.391-2.995-5.239c1.624-1.461,3.415-2.603,5.019-3.966
			C363.243,133.648,362.635,132.522,362.276,131.352z M340.774,257.105c0.979-5.267,2.342-10.44,3.844-15.577
			c0.845-2.901,1.313-5.863,1.289-8.895c-0.008-1.265-0.102-2.501-0.771-3.611c-0.587-0.971-0.562-1.983-0.122-2.954
			c0.723-1.599,1.412-3.239,2.33-4.725c3.108-5.035,7.613-8.258,13.309-9.792c1.265-0.338,2.236-0.91,3.064-1.934
			c2.125-2.624,4.365-5.153,6.482-7.781c0.73-0.91,1.567-1.44,2.673-1.763c3.305-0.958,6.585-1.995,9.873-3.007
			c2.889-0.889,5.835-1.358,8.862-1.477c5.487-0.216,10.836,0.412,15.978,2.407c0.86,0.334,1.705,0.367,2.582,0.351
			c3.085-0.045,6.161-0.082,9.221,0.416c2.93,0.474,5.639,1.269,8.034,3.231c4.198,3.439,8.58,6.654,12.885,9.967
			c2.366,1.824,2.366,1.828,5.365,1.763c3.492-0.078,6.98-0.085,10.444,0.347c6.557,19.262,10.167,39.878,10.167,61.331
			c0,63.631-31.33,120.053-79.339,154.754c0.208-0.619,0.392-1.248,0.656-1.84c1.514-3.42,3.089-6.811,4.647-10.209
			c1.709-3.732,3.419-7.461,5.141-11.191c1.057-2.289,1.199-4.643,0.661-7.09c-0.629-2.865-1.167-5.744-1.746-8.621
			c-0.571-2.852-0.608-5.695,0.375-8.471c1.86-5.238,4.365-10.086,8.421-14.02c1.261-1.223,2.432-2.549,3.574-3.887
			c1.485-1.746,2.611-3.713,3.419-5.867c1.024-2.734,1.392-5.508,0.82-8.422c-0.44-2.248-1.244-4.365-1.987-6.512
			c-0.62-1.799-1.28-3.59-1.812-5.418c-0.856-2.945-0.979-5.945-0.171-8.914c0.519-1.906,1.195-3.771,1.856-5.635
			c0.686-1.934,1.473-3.832,2.162-5.766c0.894-2.514,1.408-5.111,1.146-7.775c-0.175-1.816-0.489-3.637-0.926-5.406
			c-0.47-1.902-1.281-2.248-3.056-1.547c-0.682,0.27-1.339,0.596-2.012,0.885c-2.089,0.895-3.407,0.506-4.451-1.008
			c-0.775-1.125-1.926-1.799-3.24-2.146c-1.13-0.297-2.268-0.668-3.423-0.75c-3.884-0.281-7.772-0.127-11.66,0.111
			c-2.853,0.17-5.717,0.256-8.572,0.309c-0.869,0.018-1.746-0.18-2.607-0.338c-2.321-0.428-4.5-1.281-6.626-2.289
			c-3.867-1.836-7.36-4.252-10.71-6.891c-5.426-4.285-10.29-9.186-15.263-13.967c-0.665-0.641-1.077-1.407-1.298-2.256
			c-0.273-1.061-0.502-2.146-0.596-3.235C339.236,266.971,339.856,262.026,340.774,257.105z M321.843,109.964
			c-1.465,1.236-2.024,2.774-2.456,4.484c-0.144,0.563-0.367,1.102-0.629,1.881c-2.994-0.322-5.773-0.856-8.522-1.595
			c-1.302-0.351-2.444-0.967-3.514-1.746c-0.469-0.343-0.913-0.743-1.281-1.191c-1.252-1.534-0.877-3.427,0.935-4.145
			c3.599-1.424,7.25-2.718,10.873-4.08c0.515-0.192,0.979-0.196,1.474,0.041c1.195,0.575,2.317,1.261,3.194,2.277
			C323.132,107.3,323.254,108.772,321.843,109.964z M276.943,92.273c1.016-2.538,1.995-5.092,2.99-7.642
			c13.439,0.314,26.536,2.02,39.156,4.99c-1.33,2.138-2.66,4.272-4.035,6.316c-2.645,0.481-5.088,0.971-7.548,1.346
			c-1.008,0.151-1.742,0.539-2.399,1.318c-2.693,3.203-5.459,6.34-8.147,9.543c-2.358,2.811-4.651,5.679-6.985,8.511
			c-0.314,0.383-0.689,0.71-1.032,1.061c-1.791-0.653-3.203-1.677-4.496-2.888c-2.236-2.098-3.811-4.644-4.99-7.438
			c-1.579-3.742-2.473-7.658-2.925-11.693C276.392,94.489,276.49,93.403,276.943,92.273z M275.229,84.521
			c0.249,0.539,0.498,1.073,0.742,1.612c0.172,0.375,0.225,0.804,0.339,1.236c-2.285,1.758-4.541,3.398-6.683,5.173
			c-2.138,1.767-4.035,3.819-6.279,5.573c-1.065-2.04-2.726-3.358-4.439-4.614c-2.864-2.105-1.869-1.742-5.422-1.624
			c-2.412,0.082-4.819,0.232-7.087,1.24c-1.229,0.542-2.575,0.522-3.901,0.453c-1.012-0.053-1.848-0.433-2.46-1.253
			c-0.175-0.232-0.318-0.494-0.498-0.726c-0.563-0.73-1.334-0.922-2.162-0.641c-0.689,0.232-1.383,0.53-1.979,0.938
			c-1.024,0.702-2.036,1.448-2.946,2.293c-1.138,1.053-2.362,1.971-3.664,2.799c-1.979,1.261-3.933,2.566-5.924,3.807
			c-0.738,0.461-1.187,1.012-1.31,1.901c-0.192,1.379-0.571,2.733-0.714,4.113c-0.188,1.823-0.241,3.667,0.359,5.451
			c0.804,2.391,2.852,3.435,5.227,2.562c2.832-1.048,5.492-2.444,7.866-4.337c1.571-1.252,2.872-2.721,3.594-4.643
			c0.126-0.338,0.282-0.681,0.478-0.983c0.424-0.661,0.971-0.828,1.689-0.514c0.604,0.266,1.179,0.588,1.775,0.874
			c1.497,0.718,2.991,0.681,4.423-0.139c0.759-0.437,1.489-0.943,2.167-1.494c0.624-0.506,1.171-1.109,1.738-1.685
			c0.938-0.955,2.024-1.701,3.26-2.199c2.325-0.943,3.99-0.51,5.328,1.583c1.016,1.591,2.326,2.811,3.864,3.847
			c0.665,0.449,1.318,0.942,1.897,1.494c0.918,0.873,1.208,1.954,0.91,3.215c-0.331,1.383-1.016,2.583-1.758,3.77
			c-0.62,0.996-1.261,1.983-1.82,3.011c-0.273,0.502-0.437,1.085-0.547,1.652c-0.118,0.604,0.437,1.212,1.044,1.11
			c0.788-0.13,1.55-0.404,2.326-0.612c0.461-0.126,0.918-0.249,1.607-0.437c-0.257,4.569-0.946,8.792-3.142,12.648
			c-0.396,0.693-0.894,1.363-1.464,1.917c-1.632,1.583-3.562,2.24-5.843,1.685c-1.587-0.388-3.036-0.959-4.28-2.097
			c-2.44-2.228-4.692-1.971-6.891,0.42c-0.689,0.747-1.293,1.611-1.759,2.517c-0.485,0.938-1.191,1.404-2.158,1.665
			c-4.292,1.159-8.637,1.653-13.064,1.065c-0.743-0.098-1.428-0.061-2.159,0.155c-2.803,0.844-5.626,1.628-8.445,2.432
			c-1.13,0.322-2.199,0.767-3.211,1.387c-1.877,1.155-3.864,2.113-5.969,2.778c-2.138,0.673-4.288,1.041-6.356-0.453
			c-6.712,5.606-14.182,9.706-22.505,12.358c-0.494,3.117-0.971,6.148-1.448,9.184c-0.583,3.696-1.159,7.389-1.75,11.081
			c-0.151,0.93-0.53,1.293-1.387,1.432c-1.003,0.163-1.95-0.008-2.615-0.8c-0.653-0.775-1.273-1.616-1.73-2.517
			c-1.179-2.305-1.889-4.798-2.163-7.353c-0.379-3.57-2.264-5.985-5.345-7.527c-4.055-2.028-8.393-2.709-12.839-1.926
			c-7.308,1.285-13.554,4.696-18.584,10.151c-4.251,4.606-4.203,4.606-5.394,10.988c-0.416,2.228-0.465,4.528,0.245,6.76
			c0.73,2.289,2.231,3.705,4.614,4.219c1.24,0.265,2.46,0.384,3.705,0.118c1.359-0.29,2.717-0.591,4.084-0.849
			c0.408-0.077,0.898-0.159,1.257-0.012c1.028,0.412,1.942,1.045,2.624,1.942c0.865,1.138,1.105,2.358,0.502,3.713
			c-0.457,1.028-1.106,1.917-1.942,2.636c-1.057,0.901-2.191,1.717-3.301,2.558c-0.465,0.355-1,0.632-1.424,1.028
			c-1.803,1.685-1.771,3.705,0.069,5.308c0.441,0.384,0.947,0.694,1.44,1.008c0.42,0.27,0.865,0.502,1.358,0.788
			c-0.122,1.33-0.208,2.57-0.355,3.798c-0.383,3.219-0.404,6.451-0.229,9.674c0.167,3.084,1.498,5.683,4.015,7.515
			c1.652,1.204,3.427,2.265,5.226,3.244c1.016,0.551,2.167,0.894,3.292,1.191c3.317,0.865,6.283,0.123,8.687-2.326
			c1.016-1.032,1.84-2.281,2.615-3.513c1.436-2.285,3.533-3.248,6.165-2.717c1.416,0.286,2.64,0.979,3.627,1.962
			c1.228,1.22,2.701,1.987,4.219,2.721c2.048,0.983,4.076,2.007,6.132,2.97c0.722,0.339,1.493,0.592,2.269,0.788
			c5.793,1.46,10.759,4.259,14.427,9.066c0.759,0.995,1.628,1.55,2.774,1.95c5.443,1.909,10.441,4.647,14.908,8.307
			c5.635,4.615,9.866,10.233,12.04,17.25c0.51,1.648,1.245,3.036,2.485,4.28c1.179,1.183,2.163,2.598,3.048,4.028
			c1.195,1.926,2.219,3.961,3.321,5.951c0.277,0.502,0.567,1,0.812,1.428c1.057,0.213,1.995,0.381,2.921,0.588
			c6.206,1.383,12.057,3.631,17.36,7.193c2.758,1.854,5.218,4.035,7.348,6.594c0.587,0.705,0.93,1.424,0.942,2.371
			c0.126,8.363-2.909,15.16-9.886,19.99c-0.897,0.621-1.432,1.371-1.803,2.379c-1.795,4.885-3.631,9.756-5.496,14.615
			c-0.339,0.877-0.784,1.742-1.326,2.51c-2.456,3.475-4.99,6.895-7.438,10.379c-0.783,1.113-1.726,1.982-2.917,2.604
			c-0.91,0.473-1.812,0.967-2.742,1.402c-3.395,1.604-6.944,2.746-10.616,3.502c-0.971,0.199-1.734,0.574-2.367,1.41
			c-2.432,3.225-4.94,6.387-7.417,9.572c-0.27,0.348-0.551,0.693-0.759,1.082c-2.375,4.398-5.283,8.457-8.017,12.627
			c-0.616,0.943-1.379,1.682-2.313,2.301c-3.974,2.633-7.943,5.279-11.881,7.973c-1.146,0.783-2.232,1.668-3.244,2.619
			c-1.983,1.857-3.909,3.77-5.822,5.701c-0.506,0.51-0.975,1.109-1.277,1.754c-1.852,3.99-3.635,8.012-5.483,12.002
			c-0.396,0.85-0.465,1.662-0.298,2.555c1.249,6.631,2.489,13.26,3.717,19.891c0.037,0.191,0.065,0.383,0.102,0.574
			c-6.136-3.568-12.073-7.438-17.748-11.648c-1.954-2.605-3.729-5.355-5.381-8.191c-0.322-0.551-0.486-1.229-0.58-1.869
			c-0.767-5.227-1.51-10.453-2.231-15.684c-0.094-0.678-0.318-1.252-0.694-1.816c-0.869-1.305-1.261-2.781-1.546-4.312
			c-0.677-3.598-0.277-7.164,0.253-10.73c0.625-4.205,1.269-8.408,1.901-12.615c0.09-0.59,0.045-1.129-0.343-1.656
			c-1.036-1.41-1.342-3.059-1.44-4.773c-0.184-3.264,0.387-6.426,1.211-9.562c0.298-1.131,0.563-2.277,0.734-3.432
			c0.559-3.77,1.082-7.549,1.6-11.33c0.216-1.588,0.383-3.184,0.559-4.688c-0.342-0.314-0.551-0.52-0.775-0.707
			c-2.113-1.77-3.346-4.039-3.864-6.727c-0.367-1.898-0.363-3.795-0.017-5.688c0.261-1.426,0.6-2.832,0.906-4.27
			c-0.743-0.51-1.408-0.953-2.065-1.418c-3.19-2.258-6.161-4.762-8.646-7.789c-2.558-3.121-5.087-6.268-7.552-9.463
			c-0.979-1.268-1.861-2.646-2.583-4.08c-1.179-2.332-1.763-4.822-1.167-7.457c0.139-0.607,0.016-1.143-0.184-1.709
			c-1.514-4.236-1.693-8.613-1.351-13.037c0.237-3.043,1.044-5.911,2.778-8.478c1.069-1.579,2.081-3.199,3.178-4.757
			c1.942-2.762,3.909-5.504,5.9-8.229c1.946-2.664,3.043-5.651,3.615-8.878c0.257-1.461,0.417-2.917,0.273-4.378
			c-0.22-2.269-1.008-4.259-2.966-5.651c-2.15-1.53-4.223-3.17-6.401-4.655c-1.126-0.767-1.652-1.758-1.95-3.027
			c-0.702-2.999-1.53-5.965-2.211-8.968c-0.241-1.065-0.686-1.881-1.526-2.57c-1.306-1.073-2.546-2.215-3.807-3.337
			c-0.485-0.433-0.946-0.894-1.408-1.33c0.098-2.787,0.853-5.427,0.898-8.188c-0.734-0.311-1.404-0.588-2.069-0.874
			c-3.317-1.419-6.458-3.137-9.282-5.414c-1.726-1.391-3.272-2.954-4.452-4.839c-1.44-2.301-2.158-4.773-1.864-7.487
			C139.752,125.162,202.837,84.586,275.229,84.521z M180.377,205.211c0.372-0.229,0.767-0.432,1.163-0.616
			c1.46-0.677,2.921-1.351,4.382-2.024c1.13-0.522,2.256-1.044,3.386-1.562c0.327-0.151,0.673-0.261,1.102-0.424
			c1.146,0.718,2.358,1.391,3.472,2.207c0.004,0.004,0.008,0.004,0.012,0.008c1.151,0.845,2.546,1.065,4.027,1.701
			c-0.367,1.783-0.501,3.444-1.611,4.859c-0.616-0.224-1.11-0.359-1.562-0.579c-2.489-1.216-5.133-1.665-7.878-1.632
			c-0.951,0.012-1.906,0.069-2.856,0.069c-1.097,0-2.199-0.008-3.292-0.069c-0.555-0.028-1.306,0.074-1.416-0.702
			C179.202,205.746,179.892,205.509,180.377,205.211z M175.273,195.036c-4.349-0.608-8.682-1.338-13.011-2.073
			c-1.281-0.216-2.607-0.44-3.582-1.444c0.967-3.154,3.036-4.81,6.132-5.128c2.17-0.225,4.108,0.212,5.708,1.689
			c2.505,2.317,5.447,3.248,8.829,3.285c1.734,0.02,3.48,0.437,5.194,0.795c0.604,0.126,1.208,0.53,1.668,0.963
			c0.351,0.326,0.42,0.792,0.294,1.195c-0.11,0.351-0.363,0.653-0.767,0.755c-1.126,0.286-2.309,0.543-3.46,0.51
			c-0.686-0.021-1.371-0.065-2.056-0.102C178.57,195.391,176.913,195.265,175.273,195.036z"/>
	</g>
</g>
<g>
</g>
<g>
</g>
<g>
</g>
<g>
</g>
<g>
</g>
<g>
</g>
<g>
</g>
<g>
</g>
<g>
</g>
<g>
</g>
<g>
</g>
<g>
</g>
<g>
</g>
<g>
</g>
<g>
</g>
</svg>
