<?xml version="1.0" encoding="iso-8859-1"?>
<!-- Generator: Adobe Illustrator 16.0.0, SVG Export Plug-In . SVG Version: 6.00 Build 0)  -->
<!DOCTYPE svg PUBLIC "-//W3C//DTD SVG 1.1//EN" "http://www.w3.org/Graphics/SVG/1.1/DTD/svg11.dtd">
<svg version="1.1" id="Capa_1" xmlns="http://www.w3.org/2000/svg" xmlns:xlink="http://www.w3.org/1999/xlink" x="0px" y="0px"
	 width="492.069px" height="492.069px" viewBox="0 0 492.069 492.069" style="enable-background:new 0 0 492.069 492.069;"
	 xml:space="preserve">
<g>
	<g>
		<g>
			<path d="M268.656,144.27c0-62.697-50.998-113.699-113.698-113.699C92.253,30.571,41.26,81.573,41.26,144.27v57.25
				C15.735,229.147,0,265.962,0,306.537v125.508c0,16.266,13.189,29.454,29.472,29.454h250.987
				c16.266,0,29.454-13.188,29.454-29.454v-125.5c0-40.583-15.735-77.407-41.256-105.034L268.656,144.27L268.656,144.27z
				 M176.852,317.049v35.949c0,12.095-9.805,21.898-21.894,21.898c-12.094,0-21.898-9.805-21.898-21.898v-35.949
				c-8.916-6.691-14.765-17.252-14.765-29.256c0-20.242,16.413-36.649,36.664-36.649s36.664,16.407,36.664,36.649
				C191.621,299.797,185.767,310.356,176.852,317.049z M219.127,165.625c-19.573-8.934-41.26-14.038-64.169-14.038
				c-22.913,0-44.596,5.104-64.168,14.038V144.27c0-35.384,28.775-64.169,64.168-64.169c35.389,0,64.169,28.785,64.169,64.169
				V165.625L219.127,165.625z"/>
			<path d="M409.326,86.457c-45.691,0-82.741,37.045-82.741,82.754c0,32.483,18.877,60.298,46.109,73.847v137.433
				c0,28.134,22.812,50.948,50.947,50.948c12.317,0,22.314-9.979,22.314-22.298V243.058c27.214-13.544,46.113-41.363,46.113-73.847
				C492.071,123.502,455.018,86.457,409.326,86.457z M409.326,154.496c-10.738,0-19.443-8.705-19.443-19.434
				c0-10.729,8.705-19.438,19.443-19.438s19.442,8.709,19.442,19.438S420.064,154.496,409.326,154.496z"/>
		</g>
	</g>
</g>
<g>
</g>
<g>
</g>
<g>
</g>
<g>
</g>
<g>
</g>
<g>
</g>
<g>
</g>
<g>
</g>
<g>
</g>
<g>
</g>
<g>
</g>
<g>
</g>
<g>
</g>
<g>
</g>
<g>
</g>
</svg>
