<svg height="512pt" viewBox="0 0 512.00002 512" width="512pt" xmlns="http://www.w3.org/2000/svg"><path d="m101.496094 431.71875c-8.589844-2.617188-7.515625-2.46875-15.699219-5.519531-3.050781-8.191407-2.902344-7.113281-5.515625-15.695313l-80.28125 80.28125 21.214844 21.214844zm0 0"/><path d="m343.417969 20.089844-39.828125 39.828125-3.542969 130.824219 177.226563-177.230469c-26.304688-8.90625-98.855469-28.425781-133.855469 6.578125zm25.605469 68.03125h-30.097657v-30.195313h30.097657zm0 0"/><path d="m420.691406 239.800781-131.695312 4.414063-32.289063 32.292968 131.421875-4.144531zm0 0"/><path d="m498.484375 34.726562-178.140625 178.140626 131.421875-4.140626 40.144531-40.144531c35-35.003906 15.488282-107.550781 6.574219-133.855469zm-44.410156 138.347657h-30.195313v-30.097657h30.195313zm0 0"/><path d="m209.039062 154.464844-122.179687 122.183594c-35 35-15.484375 107.550781-6.578125 133.855468l124.992188-124.988281zm-52.941406 146.535156h-30.097656v-30.097656h30.097656zm0 0"/><path d="m272.679688 90.824219-32.730469 32.734375-3.546875 130.824218 32.511718-32.507812zm0 0"/><path d="m235.351562 425.140625 121.703126-121.703125-131.699219 4.417969-123.859375 123.863281c26.304687 8.90625 98.855468 28.421875 133.855468-6.578125zm-24.351562-69.238281h30.097656v30.097656h-30.097656zm0 0"/></svg>