<?xml version="1.0" encoding="iso-8859-1"?>
<!-- Generator: Adobe Illustrator 18.1.1, SVG Export Plug-In . SVG Version: 6.00 Build 0)  -->
<svg version="1.1" id="Capa_1" xmlns="http://www.w3.org/2000/svg" xmlns:xlink="http://www.w3.org/1999/xlink" x="0px" y="0px"
	 viewBox="0 0 49.005 49.005" style="enable-background:new 0 0 49.005 49.005;" xml:space="preserve">
<g>
	<path style="fill:#010002;" d="M48.923,21.962c-0.134-1.034-0.23-2.076-0.492-3.074C45.862,9.107,39.589,3.031,29.834,0.535
		c-1.093-0.28-2.24-0.347-3.374-0.467C26.137,0.034,25.613,0,25.288,0c-0.849,0-1.699,0-2.548,0c-0.325,0-0.846,0.053-1.166,0.111
		c-1.41,0.256-2.846,0.435-4.19,0.885C7.858,4.187,2.096,10.72,0.22,20.625c-0.059,0.312-0.101,0.627-0.142,0.943
		c-0.041,0.322-0.077,0.846-0.077,1.171c0,0.849,0,1.699,0,2.548c0,0.325,0.032,0.849,0.069,1.172
		c0.083,0.706,0.164,1.413,0.26,2.117c1.342,9.837,9.983,18.59,19.807,20.067c0.672,0.101,1.346,0.191,2.019,0.282
		c0.322,0.044,0.846,0.08,1.171,0.08c0.719,0,1.437,0,2.156,0c0.325,0,0.848-0.045,1.168-0.097c1.505-0.246,3.02-0.45,4.501-0.798
		c5.391-1.269,9.4-4.621,12.851-8.749c2.936-3.511,4.425-7.618,4.837-12.145c0.015-0.159,0.042-0.318,0.072-0.476
		c0.051-0.261,0.093-0.736,0.093-1.06c0-0.849,0-1.699,0-2.548C49.005,22.807,48.965,22.284,48.923,21.962z M24.254,45.134
		C12.91,45.043,3.464,35.325,3.93,24.212C3.482,13.655,13.357,3.877,24.307,3.826c11.147-0.052,20.832,9.462,20.86,20.485
		C45.195,35.826,35.556,45.225,24.254,45.134z M27.398,32.15c-1.225,1.156-2.504,2.261-3.674,3.471
		c-1.99,2.059-5.641,1.962-7.866,0.48c-0.27-0.18-0.283-0.538-0.053-0.767c1.171-1.164,2.307-2.3,3.459-3.42
		c0.161-0.157,0.424-0.295,0.641-0.297c2.424-0.019,4.848-0.014,7.382-0.013c0.325,0,0.483,0.124,0.355,0.278
		C27.555,31.986,27.481,32.073,27.398,32.15z M13.714,27.058c1.163-1.178,2.232-2.451,3.352-3.673
		c0.112-0.123,0.239-0.232,0.394-0.363c0.227-0.19,0.43-0.123,0.459,0.153c0.02,0.192,0.035,0.347,0.036,0.501
		c0.017,2.109,0.033,4.218,0.03,6.327c-0.001,0.264-0.026,0.609-0.186,0.779c-1.034,1.103-2.097,2.179-3.151,3.254
		c-0.227,0.232-0.613,0.248-0.81-0.01C12.543,32.328,12.172,28.618,13.714,27.058z M20.95,26.968c0-2.402-0.003-4.715,0.009-7.027
		c0.002-0.205,0.065-0.47,0.2-0.606c1.328-1.334,2.677-2.648,4.024-3.963c0.046-0.044,0.107-0.073,0.198-0.115
		c0.115-0.053,0.233,0.152,0.266,0.462c0.021,0.196,0.038,0.379,0.044,0.563c0.062,1.966,0.13,3.932,0.152,5.899
		c0.003,0.325-0.118,0.74-0.335,0.965c-1.347,1.395-2.735,2.75-4.115,4.113c-0.058,0.058-0.128,0.103-0.215,0.156
		C21.053,27.492,20.952,27.293,20.95,26.968z M28.758,19.215c-0.002-2.394-0.011-4.651,0.023-6.907
		c0.003-0.225,0.286-0.564,0.515-0.651c2.215-0.838,4.379-0.915,6.274,0.108c0.286,0.154,0.323,0.494,0.1,0.73
		c-2.149,2.273-4.307,4.554-6.509,6.882C28.938,19.612,28.757,19.54,28.758,19.215z M37.926,14.022
		c0.885,1.736,1.295,3.393,0.82,5.208c-0.5,1.914-0.522,1.923-2.471,1.939c-1.836,0.015-3.673,0.006-5.27,0.004
		c-0.325,0-0.408-0.192-0.185-0.428c2.018-2.139,4.179-4.431,6.426-6.814C37.468,13.695,37.778,13.733,37.926,14.022z
		 M28.257,28.485c-1.554-0.155-3.133-0.062-4.705-0.04c-0.325,0.005-0.614-0.044-0.645-0.103c-0.032-0.059,0.131-0.291,0.363-0.519
		c1.156-1.135,2.311-2.273,3.479-3.396c0.142-0.137,0.386-0.237,0.584-0.238c2.372-0.014,4.743-0.011,7.275-0.01
		c0.325,0,0.45,0.154,0.279,0.344c-0.116,0.129-0.213,0.237-0.313,0.342c-0.484,0.509-1.059,0.957-1.439,1.533
		C31.952,28.19,30.336,28.694,28.257,28.485z M13.999,12.076c-0.228-0.231-0.196-0.569,0.085-0.731
		c1.777-1.022,3.828-1.202,6.001-0.372c0.175,0.067,0.386,0.339,0.388,0.518c0.023,2.213,0.018,4.427,0.017,6.57
		c0,0.324-0.185,0.4-0.413,0.169C18.066,16.193,16.046,14.148,13.999,12.076z M11.726,20.157c-0.282-0.007-0.709-0.473-0.799-0.801
		c-0.501-1.82-0.324-3.61,0.452-5.337c0.241-0.536,0.596-0.647,1.059-0.278c0.372,0.297,0.743,0.601,1.08,0.937
		c1.531,1.527,3.052,3.065,4.572,4.604c0.145,0.148,0.283,0.302,0.429,0.47c0.213,0.245,0.124,0.443-0.201,0.443
		C16.041,20.198,13.882,20.217,11.726,20.157z M31.936,30.316c-0.565-0.655-0.459-1.652,0.177-2.313
		c0.744-0.772,1.541-1.492,2.351-2.246c0.238-0.222,0.633-0.235,0.862-0.005c2.181,2.191,2.493,5.635,0.627,8.033
		c-0.199,0.256-0.563,0.253-0.786,0.017C34.077,32.649,32.97,31.514,31.936,30.316z M25.975,35.249
		c-0.229-0.23-0.213-0.635,0.002-0.878c0.746-0.845,1.466-1.704,2.279-2.463c0.671-0.627,2.157-0.41,2.817,0.257
		c0.79,0.798,1.579,1.596,2.355,2.408c0.147,0.154,0.284,0.319,0.417,0.485c0.203,0.253,0.185,0.651-0.07,0.852
		C31.588,37.635,27.983,37.272,25.975,35.249z M14.525,35.817c-0.249,0.246-0.527,0.464-0.806,0.68
		c-0.257,0.199-0.508,0.322-0.564,0.27c-0.056-0.052,0.064-0.299,0.264-0.555c0.259-0.333,0.519-0.665,0.813-0.963
		c5.146-5.204,10.296-10.404,15.46-15.59c2.146-2.155,4.327-4.273,6.493-6.406c0.098-0.096,0.199-0.189,0.301-0.281
		c0.169-0.152,0.367-0.237,0.443-0.19c0.075,0.047,0.035,0.272-0.093,0.502c-0.078,0.141-0.163,0.276-0.271,0.389
		c-2.354,2.461-4.686,4.945-7.094,7.352C24.514,25.98,19.515,30.894,14.525,35.817z M29.342,29.763
		c-1.458,0.091-2.922,0.115-4.384,0.14c-0.965,0.016-1.929,0.008-2.953,0.005c-0.325-0.001-0.476-0.244-0.259-0.486
		c0.387-0.431,0.86-0.548,1.465-0.534c2.135,0.048,4.271,0.023,6.407,0.019c0.325-0.001,0.611,0.083,0.64,0.187
		s-0.155,0.317-0.412,0.474C29.68,29.67,29.514,29.753,29.342,29.763z M28.518,30.149c0.325-0.001,0.521,0.266,0.314,0.516
		c-0.351,0.424-0.847,0.417-1.288,0.427c-1.878,0.041-3.758,0.029-5.637,0.036c-0.371,0.002-0.742,0.001-1.139,0.001
		c-0.325,0-0.464-0.237-0.245-0.477c0.348-0.38,0.757-0.536,1.333-0.523C24.046,30.178,26.238,30.153,28.518,30.149z M26.152,21.657
		c-0.004-2.337-0.026-4.586,0.029-6.834c0.006-0.262,0.152-0.521,0.313-0.779c0.172-0.276,0.352-0.489,0.414-0.471
		s0.129,0.17,0.149,0.338c0.012,0.102,0.022,0.204,0.021,0.306c-0.014,2.192-0.021,4.383-0.063,6.574
		c-0.008,0.402-0.004,0.843-0.355,1.166C26.421,22.177,26.151,21.981,26.152,21.657z M12.93,13.16
		c-0.179-0.271-0.28-0.534-0.218-0.592c0.062-0.058,0.293,0,0.516,0.132c0.137,0.081,0.268,0.168,0.378,0.276
		c1.958,1.938,3.902,3.891,5.848,5.841c0.079,0.079,0.169,0.165,0.206,0.265c0.049,0.13,0.09,0.262,0.13,0.395
		c0.065,0.22-0.057,0.335-0.272,0.255c-0.136-0.05-0.263-0.109-0.358-0.202c-1.907-1.87-3.803-3.753-5.679-5.654
		C13.271,13.663,13.099,13.414,12.93,13.16z M36.465,35.822c0.056,0.056,0.079,0.144,0.095,0.238
		c0.024,0.141-0.088,0.259-0.25,0.263c-0.112,0.003-0.216-0.004-0.283-0.057c-0.527-0.419-1.034-0.868-1.515-1.341
		c-1.204-1.183-2.399-2.376-3.577-3.585c-0.242-0.249-0.458-0.523-0.672-0.799c-0.199-0.256-0.322-0.517-0.272-0.586
		c0.05-0.068,0.274-0.054,0.499,0.033c0.142,0.055,0.276,0.119,0.376,0.217C32.747,32.063,34.61,33.939,36.465,35.822z
		 M27.401,20.321c-0.003-2.273-0.023-4.547,0.029-6.819c0.005-0.225,0.136-0.447,0.287-0.668c0.183-0.268,0.38-0.47,0.449-0.445
		s0.125,0.308,0.125,0.633c0.001,1.112,0.003,2.225-0.001,3.337c-0.004,1.098,0.028,2.199-0.049,3.292
		c-0.02,0.28-0.125,0.554-0.241,0.827c-0.127,0.299-0.307,0.519-0.411,0.488C27.485,20.934,27.401,20.646,27.401,20.321z
		 M37.41,22.144c-0.307,0.286-0.746,0.284-1.137,0.296c-1.68,0.05-3.362,0.045-5.044,0.058c-0.54,0.004-1.079,0.003-1.618,0.002
		c-0.325,0-0.597-0.07-0.609-0.155c-0.012-0.085,0.166-0.249,0.399-0.363c0.145-0.071,0.292-0.131,0.443-0.147
		c0.947-0.098,1.899-0.169,2.851-0.185c1.458-0.025,2.917-0.012,4.419-0.009C37.439,21.642,37.647,21.922,37.41,22.144z
		 M20.413,20.913c0.281,1.763,0.123,5.739-0.302,7.242c-0.088,0.312-0.294,0.272-0.34-0.049c-0.332-2.309-0.19-5.871,0.241-7.248
		C20.109,20.548,20.362,20.592,20.413,20.913z M18.585,29.328c-0.343-2.146-0.219-5.828,0.201-7.254
		c0.092-0.311,0.326-0.272,0.375,0.049c0.276,1.809,0.151,5.711-0.245,7.24C18.835,29.677,18.637,29.649,18.585,29.328z
		 M28.39,23.632c-0.324-0.001-0.604-0.061-0.625-0.136c-0.021-0.075,0.172-0.225,0.433-0.333c0.163-0.068,0.327-0.123,0.492-0.125
		c2.333-0.025,4.666-0.016,7.056,0.104c0.324,0.017,0.375,0.151,0.113,0.297c-0.169,0.093-0.339,0.169-0.509,0.172
		C33.03,23.645,30.709,23.633,28.39,23.632z M18.378,21.084c-1.408,0.572-4.87,0.569-6.192,0.023c-0.3-0.124-0.21-0.334,0.115-0.334
		c1.985,0,3.941,0,5.983,0C18.609,20.773,18.68,20.961,18.378,21.084z M21.025,18.005c0-1.937,0-3.847,0-5.852
		c0-0.324,0.183-0.39,0.302-0.088c0.548,1.393,0.532,4.712,0.012,6.039C21.221,18.406,21.025,18.329,21.025,18.005z M22.261,16.767
		c0-1.113,0-2.21,0-3.338c0-0.325,0.21-0.417,0.359-0.128c0.486,0.941,0.482,2.69,0.008,3.601
		C22.479,17.19,22.262,17.092,22.261,16.767z M17.134,22.373c-0.936,0.46-2.749,0.472-3.628,0.026
		c-0.29-0.147-0.173-0.381,0.152-0.381c1.113,0,2.214,0,3.349,0C17.332,22.018,17.425,22.231,17.134,22.373z M18.142,38.742
		c-1.037,0.122-2.785-0.336-3.852-1.162c-0.257-0.198-0.179-0.325,0.133-0.235c1.322,0.382,2.566,0.741,3.715,1.072
		C18.45,38.507,18.464,38.705,18.142,38.742z M23.276,15.793c0-0.444,0-0.893,0-1.348c0-0.325,0.189-0.404,0.422-0.178
		c0.143,0.14,0.285,0.278,0.425,0.414c0.232,0.226,0.237,0.597,0.009,0.829c-0.144,0.147-0.292,0.298-0.444,0.452
		C23.46,16.194,23.275,16.118,23.276,15.793z M12.62,35.451c0.115,0.304-0.03,0.416-0.244,0.171
		c-0.826-0.945-1.256-2.902-1.002-4.554c0.049-0.321,0.073-0.315,0.06,0.01C11.373,32.603,12.061,33.978,12.62,35.451z
		 M20.146,37.75c-1.597,0.471-3.788,0.074-4.858-0.824c-0.248-0.209-0.155-0.325,0.143-0.197c1.504,0.646,3.024,1.201,4.69,0.935
		C20.441,37.613,20.458,37.658,20.146,37.75z M38.377,30.781c0.327,1.387-0.196,3.489-1.037,4.344
		c-0.228,0.231-0.348,0.102-0.194-0.184c0.675-1.251,1.153-2.566,1.084-4.127C38.216,30.49,38.303,30.465,38.377,30.781z
		 M12.97,34.72c-0.863-1.278-1.155-2.628-1.054-3.986c0.024-0.324,0.135-0.33,0.218-0.016c0.327,1.232,0.673,2.54,1.035,3.906
		C13.252,34.938,13.153,34.989,12.97,34.72z M35.65,36.9c0.024,0.068-0.138,0.317-0.401,0.508c-0.924,0.67-2.054,0.792-3.239,0.899
		c-0.324,0.029-0.34-0.04-0.036-0.155c1.059-0.402,2.074-0.787,3.082-1.169C35.359,36.868,35.625,36.83,35.65,36.9z M37.929,30.598
		c0.06,1.329-0.299,2.61-1.148,3.755c-0.193,0.261-0.294,0.205-0.199-0.106c0.382-1.249,0.76-2.486,1.122-3.672
		C37.799,30.264,37.915,30.273,37.929,30.598z M34.507,36.526c-1.191,0.926-2.588,1.13-4.053,1.091c-0.324-0.009-0.324-0.035,0-0.06
		c1.405-0.11,2.74-0.46,3.986-1.126C34.726,36.278,34.764,36.326,34.507,36.526z M14.683,23.192c0.437,0,0.834,0,1.241,0
		c0.325,0,0.392,0.176,0.151,0.393c-0.124,0.112-0.246,0.222-0.37,0.333c-0.241,0.217-0.627,0.211-0.862-0.013
		c-0.1-0.095-0.206-0.196-0.322-0.307C14.286,23.374,14.359,23.192,14.683,23.192z"/>
</g>
<g>
</g>
<g>
</g>
<g>
</g>
<g>
</g>
<g>
</g>
<g>
</g>
<g>
</g>
<g>
</g>
<g>
</g>
<g>
</g>
<g>
</g>
<g>
</g>
<g>
</g>
<g>
</g>
<g>
</g>
</svg>
