<?xml version="1.0" encoding="iso-8859-1"?>
<!-- Generator: Adobe Illustrator 19.0.0, SVG Export Plug-In . SVG Version: 6.00 Build 0)  -->
<svg version="1.1" id="Capa_1" xmlns="http://www.w3.org/2000/svg" xmlns:xlink="http://www.w3.org/1999/xlink" x="0px" y="0px"
	 viewBox="0 0 512.001 512.001" style="enable-background:new 0 0 512.001 512.001;" xml:space="preserve">
<g>
	<g>
		<path d="M46.386,397.802c-0.301,14.402,0.6,29.107,3,43.508L4.502,486.177c-6.001,6.001-6.001,15.603,0,21.305
			c6.455,6.455,15.723,5.578,21.305,0l45.185-45.167c16.928,3.302,37.339,3.839,43.208,3c14.216-70.349,10.293-50.942,17.103-84.617
			C97.663,387.502,115.114,383.985,46.386,397.802z"/>
	</g>
</g>
<g>
	<g>
		<path d="M370.149,163.155l-36.304,36.307l-35.407,177.935l45.009-39.308l25.504-127.825c1.199-6.001,6.001-10.501,11.702-11.702
			l113.721-22.802c5.4-12.905,9.602-26.107,12.602-39.909L370.149,163.155z"/>
	</g>
</g>
<g>
	<g>
		<path d="M336.241,17.629L313.438,131.35c-1.201,5.701-5.701,10.503-11.702,11.702l-127.825,25.504l-39.308,45.009l177.935-35.407
			l36.307-36.304L376.149,5.027C362.348,8.027,349.145,12.228,336.241,17.629z"/>
	</g>
</g>
<g>
	<g>
		<path d="M248.926,284.381l-30.607,153.93c15.303-8.103,29.706-17.704,42.908-28.807l34.207-171.635L248.926,284.381z"/>
	</g>
</g>
<g>
	<g>
		<path d="M102.497,250.774c-11.102,13.203-21.004,27.604-29.105,43.208l154.229-30.907l46.51-46.508L102.497,250.774z"/>
	</g>
</g>
<g>
	<g>
		<path d="M164.009,369.297l-18.604,93.319c13.503-2.101,26.405-5.403,39.308-9.903l26.105-130.226L164.009,369.297z"/>
	</g>
</g>
<g>
	<g>
		<path d="M59.288,327.288c-4.201,12.902-7.802,25.805-9.902,39.308l93.319-18.604l46.809-46.809L59.288,327.288z"/>
	</g>
</g>
<g>
	<g>
		<path d="M255.109,75.349l-48.87,56.147l79.872-15.974l16.005-80.015C284.963,46.51,269.033,59.684,255.109,75.349z"/>
	</g>
</g>
<g>
	<g>
		<path d="M504.678,20.053c-0.952-6.592-6.138-11.779-12.732-12.732c-40.171-5.741-53.733-8.765-84.367-6.642l-25.943,129.683
			l129.684-25.942C513.445,73.805,510.412,60.169,504.678,20.053z"/>
	</g>
</g>
<g>
	<g>
		<path d="M396.48,225.891l-15.972,79.872l56.028-48.766c15.706-13.958,28.909-29.92,39.93-47.102L396.48,225.891z"/>
	</g>
</g>
<g>
</g>
<g>
</g>
<g>
</g>
<g>
</g>
<g>
</g>
<g>
</g>
<g>
</g>
<g>
</g>
<g>
</g>
<g>
</g>
<g>
</g>
<g>
</g>
<g>
</g>
<g>
</g>
<g>
</g>
</svg>
