<svg height="512pt" viewBox="-73 0 512 512.73143" width="512pt" xmlns="http://www.w3.org/2000/svg"><path d="m247.863281 18.285156 10.695313-18.285156h-150.855469l10.972656 18.285156zm0 0"/><path d="m205.257812 91.429688 10.605469-18.285157h-64.457031l10.972656 18.285157zm0 0"/><path d="m237.257812 36.570312h-107.703124l10.972656 18.285157h86.03125zm0 0"/><path d="m225.828125 197.667969 98.742187-164.664063c-2.707031-6.433594-6.652343-12.273437-11.609374-17.1875l-98.195313 163.382813zm0 0"/><path d="m194.285156 145.003906 9.875 16.457032 93.804688-156.15625c-5.808594-2.75-12.0625-4.421876-18.46875-4.9375l-61.164063 104.777343zm0 0"/><path d="m247.496094 233.964844 63.453125-105.507813c12.058593-19.902343 18.414062-42.738281 18.375-66.011719v-1.828124l-92.890625 154.789062zm0 0"/><path d="m239.726562 256.457031c-.050781 0-.09375-.039062-.09375-.089843l-63.816406-106.699219c-.089844-.273438-.273437-.546875-.363281-.820313l-88.777344-148.480468c-6.734375.550781-13.308593 2.351562-19.382812 5.300781l268.433593 446.996093 29.988282 8.957032zm0 0"/><path d="m55.132812 128.457031 134.03125 228.847657 90.699219 154.785156 9.875-26.96875-252.984375-422.582032c.003906 23.234376 6.359375 46.03125 18.378906 65.917969zm0 0"/><path d="m.367188 461.714844 46.992187-11.886719c.390625-.105469.789063-.167969 1.1875-.183594 12.828125-1.390625 24.878906 6.390625 28.894531 18.652344l10.511719 44.433594 82.835937-150.582031-52.9375-90.421876zm78.324218-35.574219-5.367187 12.46875-6.636719-11.886719-13.476562-1.203125 9.144531-9.976562-2.953125-13.257813 12.324218 5.679688 11.675782-6.933594-1.601563 13.488281 10.203125 8.949219zm42.175782-27.109375-5.367188 12.46875-6.636719-11.882812-13.511719-1.253907 9.214844-9.964843-2.988281-13.25 12.324219 5.6875 11.675781-6.9375-1.601563 13.484374 10.203126 8.960938zm12.125-74.296875-1.601563 13.476563 10.203125 8.960937-13.320312 2.652344-5.367188 12.46875-6.628906-11.882813-13.519532-1.253906 9.214844-9.964844-2.988281-13.203125 12.332031 5.679688zm0 0"/><path d="m40.960938 34.011719 257.1875 429.53125c3.332031-5.929688 8.738281-10.425781 15.175781-12.617188l-260.84375-434.46875c-4.949219 5.042969-8.863281 11.007813-11.519531 17.554688zm0 0"/></svg>