<svg height="452pt" viewBox="0 -9 452.92308 452" width="452pt" xmlns="http://www.w3.org/2000/svg"><path d="m65.492188 402.816406-34.917969-35.261718-14.070313-14.210938-16.503906 16.667969 63.054688 63.679687 16.507812-16.664062zm0 0"/><path d="m170.230469 332.292969-69.828125-70.515625-8.253906-8.335938-16.5 16.667969 25.703124 25.960937 34.917969 35.265626 25.707031 25.960937 16.507813-16.667969zm0 0"/><path d="m97.96875 306.328125-57.238281 57.804687 28.144531 28.425782 57.238281-57.804688zm0 0"/><path d="m288.011719 110.402344h-30.949219l-146.5 147.953125 63.050781 63.679687 16.503907-16.664062-25.703126-25.964844c-1.871093-1.894531-1.871093-4.941406 0-6.839844.890626-.90625 2.109376-1.414062 3.382813-1.414062s2.492187.507812 3.386719 1.414062l25.707031 25.964844 16.503906-16.671875-14.070312-14.207031c-1.871094-1.898438-1.871094-4.945313 0-6.839844.894531-.90625 2.113281-1.417969 3.386719-1.417969 1.273437 0 2.492187.511719 3.386718 1.417969l14.070313 14.210938 16.5-16.667969-25.707031-25.964844c-1.871094-1.894531-1.871094-4.941406 0-6.835937.890624-.90625 2.113281-1.417969 3.382812-1.417969 1.273438 0 2.492188.511719 3.386719 1.417969l25.710937 25.964843 16.503906-16.667969-14.066406-14.210937c-1.871094-1.894531-1.871094-4.941406 0-6.835937.890625-.90625 2.109375-1.417969 3.382813-1.417969 1.273437 0 2.492187.511719 3.386719 1.417969l14.070312 14.207031 16.503906-16.667969-25.710937-25.964844c-1.871094-1.894531-1.871094-4.941406 0-6.839844.894531-.90625 2.113281-1.414062 3.386719-1.414062 1.273437 0 2.492187.507812 3.382812 1.414062l25.710938 25.964844 16.503906-16.664062-14.070313-14.210938c-1.871093-1.894531-1.871093-4.941406 0-6.839844.890625-.90625 2.113281-1.414062 3.382813-1.414062 1.273437 0 2.492187.507812 3.386718 1.414062l14.070313 14.210938 6.851563-6.917969v-31.253906zm0 0"/><path d="m296.765625 105.566406 28.140625 28.421875 22.324219-22.546875-28.140625-28.417968zm0 0"/><path d="m328.421875 106.851562c-1.273437 0-2.492187-.507812-3.386719-1.417968-1.867187-1.894532-1.867187-4.941406 0-6.835938l95.769532-96.71875c.894531-.90625 2.113281-1.417968 3.386718-1.417968 1.273438 0 2.492188.511718 3.386719 1.417968 1.871094 1.894532 1.871094 4.941406 0 6.835938l-95.769531 96.71875c-.894532.910156-2.113282 1.417968-3.386719 1.417968zm0 0"/><path d="m452.921875 224.988281c0 12.207031-8.574219 22.105469-19.152344 22.105469s-19.15625-9.898438-19.15625-22.105469c0-22.109375 19.15625-55.269531 19.15625-55.269531s19.152344 33.160156 19.152344 55.269531zm0 0"/></svg>