<?xml version="1.0" encoding="UTF-8"?>
<svg width="250px" height="100px" viewBox="0 0 250 100" version="1.1" xmlns="http://www.w3.org/2000/svg" xmlns:xlink="http://www.w3.org/1999/xlink">
    <!-- Generator: Sketch 53.2 (72643) - https://sketchapp.com -->
    <title>revenue-5-outline</title>
    <desc>Created with Sketch.</desc>
    <g id="revenue-5-outline" stroke="none" stroke-width="1" fill="none" fill-rule="evenodd">
        <g id="Group-7" transform="translate(0.000000, 13.000000)">
            <g id="Group-18">
                <polygon id="Fill-1" fill="#0A2F5A" points="0.668983957 7.23355615 0.668983957 68.3966578 39.4390374 68.3966578 39.4390374 7.23355615 30.1863636 0.716176471"></polygon>
                <polygon id="Stroke-2" stroke="#FFFFFF" stroke-width="1.3368984" points="39.4385027 68.3967914 0.668449198 68.3967914 0.668449198 7.23368984 30.1871658 0.71631016 39.4385027 7.23368984"></polygon>
                <polygon id="Fill-4" fill="#0A2F5A" points="20.053877 28.6241979 20.053877 68.3955882 41.8854278 68.3955882 41.8854278 19.2659091"></polygon>
                <polygon id="Stroke-5" stroke="#FFFFFF" stroke-width="1.3368984" points="41.884492 68.3967914 20.0529412 68.3967914 20.0529412 28.6240642 41.884492 19.2657754"></polygon>
                <polygon id="Fill-7" fill="#0A2F5A" points="41.0715241 68.3962567 98.3268717 68.3962567 98.3268717 28.6248663 41.0715241 19.2652406"></polygon>
                <polygon id="Stroke-8" stroke="#FFFFFF" stroke-width="1.3368984" points="41.0716578 68.3967914 98.3270053 68.3967914 98.3270053 28.6240642 41.0716578 19.2657754"></polygon>
                <polygon id="Fill-10" fill="#FFFFFF" points="6.40909091 20.9863636 14.4799465 20.9863636 14.4799465 12.915508 6.40909091 12.915508"></polygon>
                <polygon id="Fill-11" fill="#FFFFFF" points="6.40909091 32.6588235 14.4799465 32.6588235 14.4799465 24.5893048 6.40909091 24.5893048"></polygon>
                <polygon id="Fill-12" fill="#FFFFFF" points="6.40909091 44.3326203 14.4799465 44.3326203 14.4799465 36.2617647 6.40909091 36.2617647"></polygon>
                <polygon id="Fill-13" fill="#FFFFFF" points="6.40909091 56.0064171 14.4799465 56.0064171 14.4799465 47.9355615 6.40909091 47.9355615"></polygon>
                <polygon id="Fill-14" fill="#FFFFFF" points="44.9681818 29.7487968 94.9213904 37.9199198 94.9213904 35.1231283 44.9681818 26.9586898"></polygon>
                <polygon id="Fill-15" fill="#FFFFFF" points="44.9681818 37.1950535 94.9213904 45.3661765 94.9213904 42.569385 44.9681818 34.4049465"></polygon>
                <polygon id="Fill-16" fill="#FFFFFF" points="44.9681818 44.6414439 94.9213904 52.8125668 94.9213904 50.0157754 44.9681818 41.8513369"></polygon>
                <polygon id="Fill-17" fill="#FFFFFF" points="44.9681818 52.0877005 94.9213904 60.2601604 94.9213904 57.4620321 44.9681818 49.2975936"></polygon>
            </g>
            <path d="M121.483957,42.4545455 L121.483957,29.0748663 L116.935829,29.0748663 L116.935829,26.7165775 L128.823529,26.7165775 L128.823529,29.0748663 L124.275401,29.0748663 L124.275401,42.4545455 L121.483957,42.4545455 Z M134.334225,42.7433155 C131.398396,42.7433155 128.727273,40.4812834 128.727273,36.5588235 C128.727273,32.6122995 131.398396,30.3502674 134.334225,30.3502674 C137.294118,30.3502674 139.965241,32.6122995 139.965241,36.5588235 C139.965241,40.4812834 137.294118,42.7433155 134.334225,42.7433155 Z M134.334225,40.4812834 C136.066845,40.4812834 137.125668,38.9171123 137.125668,36.5588235 C137.125668,34.1764706 136.066845,32.6122995 134.334225,32.6122995 C132.601604,32.6122995 131.566845,34.1764706 131.566845,36.5588235 C131.566845,38.9171123 132.601604,40.4812834 134.334225,40.4812834 Z M142.708556,47.1229947 L142.708556,30.6390374 L144.994652,30.6390374 L145.187166,31.8903743 L145.283422,31.8903743 C146.270053,31.0481283 147.545455,30.3502674 148.84492,30.3502674 C151.780749,30.3502674 153.489305,32.7085561 153.489305,36.3663102 C153.489305,40.4090909 151.058824,42.7433155 148.435829,42.7433155 C147.40107,42.7433155 146.36631,42.2620321 145.403743,41.4438503 L145.475936,43.4171123 L145.475936,47.1229947 L142.708556,47.1229947 Z M147.858289,40.4572193 C149.42246,40.4572193 150.625668,39.0614973 150.625668,36.3903743 C150.625668,34.0320856 149.855615,32.6363636 148.074866,32.6363636 C147.208556,32.6363636 146.390374,33.0695187 145.475936,33.959893 L145.475936,39.4705882 C146.342246,40.1925134 147.160428,40.4572193 147.858289,40.4572193 Z M161.117647,42.4545455 L161.117647,40.1925134 L164.534759,40.1925134 L164.534759,30.1336898 L161.719251,30.1336898 L161.719251,28.4010695 C163.235294,28.1122995 164.294118,27.7272727 165.256684,27.1497326 L167.326203,27.1497326 L167.326203,40.1925134 L170.334225,40.1925134 L170.334225,42.4545455 L161.117647,42.4545455 Z M177.86631,42.7433155 C174.882353,42.7433155 172.668449,41.0106952 172.668449,38.5320856 C172.668449,36.631016 173.991979,35.3796791 175.435829,34.6096257 L175.435829,34.513369 C174.256684,33.671123 173.318182,32.540107 173.318182,30.9278075 C173.318182,28.4491979 175.291444,26.8609626 177.938503,26.8609626 C180.681818,26.8609626 182.438503,28.5213904 182.438503,31 C182.438503,32.5160428 181.379679,33.7914439 180.393048,34.513369 L180.393048,34.6096257 C181.812834,35.4037433 183.040107,36.5347594 183.040107,38.5802139 C183.040107,40.9385027 180.970588,42.7433155 177.86631,42.7433155 Z M178.877005,33.815508 C179.695187,32.9973262 180.152406,32.131016 180.152406,31.1684492 C180.152406,29.8208556 179.31016,28.8342246 177.890374,28.8342246 C176.71123,28.8342246 175.796791,29.6042781 175.796791,30.9278075 C175.796791,32.4679144 177.168449,33.1417112 178.877005,33.815508 Z M177.914439,40.7700535 C179.382353,40.7700535 180.441176,39.9037433 180.441176,38.4839572 C180.441176,36.8235294 178.828877,36.2219251 176.759358,35.3796791 C175.796791,36.0775401 175.09893,37.0641711 175.09893,38.2433155 C175.09893,39.7593583 176.350267,40.7700535 177.914439,40.7700535 Z M195.433155,42.7433155 C193.315508,42.7433155 191.245989,41.9010695 189.754011,40.4331551 L191.390374,38.5320856 C192.52139,39.5909091 194.037433,40.3128342 195.481283,40.3128342 C197.262032,40.3128342 198.224599,39.5187166 198.224599,38.2914439 C198.224599,36.9919786 197.213904,36.5828877 195.794118,35.9812834 L193.628342,35.0427807 C192.088235,34.3930481 190.451872,33.1657754 190.451872,30.855615 C190.451872,28.3529412 192.665775,26.4278075 195.745989,26.4278075 C197.574866,26.4278075 199.355615,27.197861 200.582888,28.4251337 L199.163102,30.2058824 C198.152406,29.3636364 197.093583,28.8582888 195.745989,28.8582888 C194.254011,28.8582888 193.26738,29.5561497 193.26738,30.7112299 C193.26738,31.9385027 194.470588,32.3957219 195.770053,32.9251337 L197.911765,33.815508 C199.764706,34.6096257 201.088235,35.7887701 201.088235,38.0748663 C201.088235,40.6256684 198.970588,42.7433155 195.433155,42.7433155 Z M207.657754,42.7433155 C204.529412,42.7433155 202.628342,40.7941176 202.628342,38.315508 C202.628342,36.1497326 204.048128,34.8743316 205.636364,33.815508 C204.986631,32.6122995 204.625668,31.4331551 204.625668,30.3502674 C204.625668,28.184492 206.18984,26.4278075 208.596257,26.4278075 C210.737968,26.4278075 212.061497,27.7754011 212.061497,29.7727273 C212.061497,31.842246 210.352941,33.1417112 208.644385,34.3449198 C209.606952,35.644385 210.882353,36.9197861 212.229947,37.9545455 C213.096257,36.7994652 213.794118,35.4037433 214.227273,33.7673797 L216.778075,33.7673797 C216.200535,35.7406417 215.31016,37.5935829 214.082888,39.2299465 C215.117647,39.855615 216.080214,40.3128342 216.92246,40.4812834 L216.224599,42.7433155 C215.02139,42.4545455 213.697861,41.9010695 212.398396,41.0588235 C211.147059,42.0935829 209.582888,42.7433155 207.657754,42.7433155 Z M206.935829,30.3262032 C206.935829,31.0481283 207.176471,31.8181818 207.561497,32.6363636 C208.860963,31.8181818 209.895722,31.0240642 209.895722,29.7967914 C209.895722,28.9545455 209.534759,28.3048128 208.620321,28.3048128 C207.63369,28.3048128 206.935829,29.1229947 206.935829,30.3262032 Z M207.994652,40.6016043 C208.860963,40.6016043 209.727273,40.2406417 210.52139,39.6631016 C209.125668,38.4839572 207.802139,37.1122995 206.791444,35.6925134 C205.90107,36.4144385 205.275401,37.184492 205.275401,38.1470588 C205.275401,39.6149733 206.430481,40.6016043 207.994652,40.6016043 Z M219.328877,42.4545455 L219.328877,26.7165775 L224.286096,26.7165775 C227.775401,26.7165775 230.374332,27.9197861 230.374332,31.5775401 C230.374332,35.0668449 227.775401,36.6791444 224.382353,36.6791444 L222.120321,36.6791444 L222.120321,42.4545455 L219.328877,42.4545455 Z M222.120321,34.4411765 L224.165775,34.4411765 C226.5,34.4411765 227.631016,33.5026738 227.631016,31.5775401 C227.631016,29.6042781 226.403743,28.9545455 224.069519,28.9545455 L222.120321,28.9545455 L222.120321,34.4411765 Z M121.143048,66.7593583 C119.07754,66.7593583 117.733957,65.9371658 116.791444,64.9946524 L117.854278,63.5106952 C118.61631,64.2326203 119.558824,64.8743316 120.842246,64.8743316 C122.266043,64.8743316 123.308824,63.9719251 123.308824,62.4278075 C123.308824,60.9037433 122.36631,60.0414439 120.962567,60.0414439 C120.140374,60.0414439 119.679144,60.2620321 118.917112,60.763369 L117.814171,60.0614973 L118.195187,53.7647059 L125.013369,53.7647059 L125.013369,55.709893 L120.200535,55.709893 L119.93984,58.7981283 C120.481283,58.5374332 120.962567,58.3770053 121.624332,58.3770053 C123.81016,58.3770053 125.635027,59.6203209 125.635027,62.3676471 C125.635027,65.1550802 123.489305,66.7593583 121.143048,66.7593583 Z M131.731283,66.7593583 C129.084225,66.7593583 127.399733,64.3930481 127.399733,60.0815508 C127.399733,55.7700535 129.084225,53.5240642 131.731283,53.5240642 C134.378342,53.5240642 136.062834,55.790107 136.062834,60.0815508 C136.062834,64.3930481 134.378342,66.7593583 131.731283,66.7593583 Z M131.731283,64.9545455 C132.974599,64.9545455 133.856952,63.6911765 133.856952,60.0815508 C133.856952,56.4719251 132.974599,55.328877 131.731283,55.328877 C130.508021,55.328877 129.605615,56.4719251 129.605615,60.0815508 C129.605615,63.6911765 130.508021,64.9545455 131.731283,64.9545455 Z M142.018717,66.7593583 C139.371658,66.7593583 137.687166,64.3930481 137.687166,60.0815508 C137.687166,55.7700535 139.371658,53.5240642 142.018717,53.5240642 C144.665775,53.5240642 146.350267,55.790107 146.350267,60.0815508 C146.350267,64.3930481 144.665775,66.7593583 142.018717,66.7593583 Z M142.018717,64.9545455 C143.262032,64.9545455 144.144385,63.6911765 144.144385,60.0815508 C144.144385,56.4719251 143.262032,55.328877 142.018717,55.328877 C140.795455,55.328877 139.893048,56.4719251 139.893048,60.0815508 C139.893048,63.6911765 140.795455,64.9545455 142.018717,64.9545455 Z M158.081551,66.7593583 C154.772727,66.7593583 152.165775,64.3529412 152.165775,60.0013369 C152.165775,55.709893 154.852941,53.1631016 158.161765,53.1631016 C159.80615,53.1631016 161.129679,53.9451872 161.951872,54.8275401 L160.708556,56.3315508 C160.026738,55.6497326 159.244652,55.1885027 158.221925,55.1885027 C156.076203,55.1885027 154.552139,56.9933155 154.552139,59.9411765 C154.552139,62.9291444 155.955882,64.7339572 158.161765,64.7339572 C159.324866,64.7339572 160.227273,64.1925134 160.969251,63.3903743 L162.212567,64.8542781 C161.149733,66.0775401 159.766043,66.7593583 158.081551,66.7593583 Z M168.22861,66.7593583 C165.782086,66.7593583 163.55615,64.8743316 163.55615,61.605615 C163.55615,58.3168449 165.782086,56.4318182 168.22861,56.4318182 C170.695187,56.4318182 172.921123,58.3168449 172.921123,61.605615 C172.921123,64.8743316 170.695187,66.7593583 168.22861,66.7593583 Z M168.22861,64.8743316 C169.67246,64.8743316 170.554813,63.5708556 170.554813,61.605615 C170.554813,59.6203209 169.67246,58.3168449 168.22861,58.3168449 C166.784759,58.3168449 165.92246,59.6203209 165.92246,61.605615 C165.92246,63.5708556 166.784759,64.8743316 168.22861,64.8743316 Z M175.207219,66.5187166 L175.207219,56.6724599 L177.112299,56.6724599 L177.272727,58.0160428 L177.352941,58.0160428 C178.175134,57.1336898 179.137701,56.4318182 180.360963,56.4318182 C181.804813,56.4318182 182.627005,57.0935829 183.088235,58.1965241 C184.030749,57.1938503 185.013369,56.4318182 186.256684,56.4318182 C188.342246,56.4318182 189.304813,57.855615 189.304813,60.342246 L189.304813,66.5187166 L186.97861,66.5187166 L186.97861,60.6430481 C186.97861,59.0187166 186.497326,58.4171123 185.474599,58.4171123 C184.852941,58.4171123 184.171123,58.8181818 183.409091,59.6403743 L183.409091,66.5187166 L181.102941,66.5187166 L181.102941,60.6430481 C181.102941,59.0187166 180.621658,58.4171123 179.578877,58.4171123 C178.977273,58.4171123 178.275401,58.8181818 177.513369,59.6403743 L177.513369,66.5187166 L175.207219,66.5187166 Z M192.112299,70.4090909 L192.112299,56.6724599 L194.01738,56.6724599 L194.177807,57.7152406 L194.258021,57.7152406 C195.080214,57.013369 196.143048,56.4318182 197.225936,56.4318182 C199.67246,56.4318182 201.096257,58.3970588 201.096257,61.4451872 C201.096257,64.8141711 199.070856,66.7593583 196.885027,66.7593583 C196.022727,66.7593583 195.160428,66.3582888 194.358289,65.6764706 L194.418449,67.3208556 L194.418449,70.4090909 L192.112299,70.4090909 Z M196.403743,64.8542781 C197.707219,64.8542781 198.709893,63.6911765 198.709893,61.4652406 C198.709893,59.5 198.068182,58.3368984 196.584225,58.3368984 C195.862299,58.3368984 195.180481,58.697861 194.418449,59.4398396 L194.418449,64.0320856 C195.140374,64.6336898 195.822193,64.8542781 196.403743,64.8542781 Z M205.568182,66.7593583 C203.843583,66.7593583 202.660428,65.5962567 202.660428,63.8716578 C202.660428,61.7660428 204.40508,60.6631016 208.455882,60.2219251 C208.415775,59.1791444 207.994652,58.2967914 206.65107,58.2967914 C205.688503,58.2967914 204.766043,58.7379679 203.88369,59.2593583 L203.041444,57.7152406 C204.124332,57.0334225 205.528075,56.4318182 207.092246,56.4318182 C209.53877,56.4318182 210.762032,57.9358289 210.762032,60.6831551 L210.762032,66.5187166 L208.856952,66.5187166 L208.696524,65.4358289 L208.61631,65.4358289 C207.733957,66.1778075 206.731283,66.7593583 205.568182,66.7593583 Z M206.31016,64.9545455 C207.112299,64.9545455 207.713904,64.5534759 208.455882,63.8716578 L208.455882,61.6657754 C205.768717,62.0066845 204.886364,62.7085561 204.886364,63.6911765 C204.886364,64.5735294 205.487968,64.9545455 206.31016,64.9545455 Z M213.529412,66.5187166 L213.529412,56.6724599 L215.434492,56.6724599 L215.59492,57.9959893 L215.675134,57.9959893 C216.557487,57.1336898 217.56016,56.4318182 218.903743,56.4318182 C221.009358,56.4318182 221.931818,57.855615 221.931818,60.342246 L221.931818,66.5187166 L219.625668,66.5187166 L219.625668,60.6430481 C219.625668,59.0187166 219.164439,58.4171123 218.081551,58.4171123 C217.219251,58.4171123 216.657754,58.8382353 215.835561,59.6403743 L215.835561,66.5187166 L213.529412,66.5187166 Z M224.759358,66.5187166 L224.759358,56.6724599 L227.065508,56.6724599 L227.065508,66.5187166 L224.759358,66.5187166 Z M225.92246,54.947861 C225.100267,54.947861 224.498663,54.4064171 224.498663,53.644385 C224.498663,52.8622995 225.100267,52.3208556 225.92246,52.3208556 C226.744652,52.3208556 227.346257,52.8622995 227.346257,53.644385 C227.346257,54.4064171 226.744652,54.947861 225.92246,54.947861 Z M234.224599,66.7593583 C231.497326,66.7593583 229.371658,64.8542781 229.371658,61.605615 C229.371658,58.3970588 231.597594,56.4318182 233.903743,56.4318182 C236.570856,56.4318182 237.974599,58.3569519 237.974599,61.1042781 C237.974599,61.5454545 237.934492,61.986631 237.874332,62.2272727 L231.617647,62.2272727 C231.818182,63.9719251 232.941176,64.9745989 234.525401,64.9745989 C235.367647,64.9745989 236.089572,64.7139037 236.811497,64.2526738 L237.593583,65.6965241 C236.65107,66.3181818 235.467914,66.7593583 234.224599,66.7593583 Z M231.597594,60.6631016 L235.969251,60.6631016 C235.969251,59.1390374 235.307487,58.2165775 233.963904,58.2165775 C232.800802,58.2165775 231.798128,59.078877 231.597594,60.6631016 Z M242.927807,66.7593583 C241.584225,66.7593583 240.160428,66.1778075 239.197861,65.3957219 L240.280749,63.9117647 C241.163102,64.5935829 242.005348,65.0147059 243.008021,65.0147059 C244.070856,65.0147059 244.572193,64.513369 244.572193,63.8315508 C244.572193,63.0093583 243.509358,62.6483957 242.466578,62.2473262 C241.163102,61.7660428 239.699198,61.0240642 239.699198,59.3796791 C239.699198,57.6550802 241.082888,56.4318182 243.28877,56.4318182 C244.652406,56.4318182 245.755348,56.9933155 246.557487,57.6149733 L245.494652,59.0187166 C244.812834,58.5173797 244.110963,58.1764706 243.328877,58.1764706 C242.346257,58.1764706 241.885027,58.6377005 241.885027,59.2593583 C241.885027,60.0414439 242.867647,60.342246 243.930481,60.723262 C245.274064,61.2245989 246.758021,61.8663102 246.758021,63.7112299 C246.758021,65.3957219 245.414439,66.7593583 242.927807,66.7593583 Z" id="Top18S&amp;P500Companies" fill="#666666" fill-rule="nonzero"></path>
            <path d="M117.86631,17.3368984 L117.86631,6.76470588 L120.898396,6.76470588 C121.422463,6.76470588 121.898394,6.81550751 122.326203,6.9171123 C122.754013,7.01871709 123.117646,7.18181706 123.417112,7.40641711 C123.716579,7.63101717 123.949197,7.91978433 124.114973,8.27272727 C124.280749,8.62567021 124.363636,9.05347342 124.363636,9.55614973 C124.363636,10.4010737 124.120323,11.0641687 123.63369,11.5454545 C123.147056,12.0267404 122.486635,12.3208551 121.652406,12.4278075 L124.572193,17.3368984 L123.721925,17.3368984 L120.850267,12.4759358 L118.604278,12.4759358 L118.604278,17.3368984 L117.86631,17.3368984 Z M118.604278,11.8663102 L120.705882,11.8663102 C121.647064,11.8663102 122.366308,11.6764725 122.863636,11.2967914 C123.360965,10.9171104 123.609626,10.3369023 123.609626,9.55614973 C123.609626,8.76470193 123.358291,8.20588398 122.855615,7.87967914 C122.352939,7.5534743 121.636368,7.39037433 120.705882,7.39037433 L118.604278,7.39037433 L118.604278,11.8663102 Z M129.272727,17.5294118 C128.780746,17.5294118 128.318184,17.4385036 127.885027,17.2566845 C127.451869,17.0748654 127.074868,16.8101622 126.754011,16.4625668 C126.433153,16.1149715 126.179145,15.6925159 125.991979,15.1951872 C125.804812,14.6978585 125.71123,14.133693 125.71123,13.5026738 C125.71123,12.8716546 125.804812,12.3048153 125.991979,11.802139 C126.179145,11.2994627 126.43048,10.8743333 126.745989,10.526738 C127.061499,10.1791426 127.419784,9.91176564 127.820856,9.72459893 C128.221927,9.53743222 128.636361,9.44385027 129.064171,9.44385027 C129.983962,9.44385027 130.70588,9.75400759 131.229947,10.3743316 C131.754013,10.9946555 132.016043,11.8716521 132.016043,13.0053476 L132.016043,13.2941176 C132.016043,13.3903748 132.005348,13.4866305 131.983957,13.5828877 L126.433155,13.5828877 C126.44385,14.0641735 126.518716,14.5106931 126.657754,14.9224599 C126.796792,15.3342267 126.991977,15.6871643 127.243316,15.9812834 C127.494654,16.2754025 127.79679,16.5053468 128.149733,16.671123 C128.502676,16.8368992 128.898394,16.9197861 129.336898,16.9197861 C129.754013,16.9197861 130.131014,16.8582894 130.467914,16.7352941 C130.804815,16.6122989 131.117646,16.4438513 131.406417,16.2299465 L131.695187,16.7754011 C131.385025,16.9572202 131.045456,17.1283414 130.676471,17.2887701 C130.307485,17.4491987 129.839575,17.5294118 129.272727,17.5294118 Z M126.433155,13.0053476 L131.342246,13.0053476 C131.342246,12.0106902 131.139039,11.2700559 130.73262,10.7834225 C130.326201,10.296789 129.775405,10.0534759 129.080214,10.0534759 C128.748661,10.0534759 128.433157,10.1203202 128.13369,10.2540107 C127.834223,10.3877012 127.564172,10.5828864 127.323529,10.8395722 C127.082886,11.096258 126.885028,11.4064153 126.729947,11.7700535 C126.574866,12.1336917 126.475936,12.5454522 126.433155,13.0053476 Z M135.898396,17.3368984 L133.010695,9.63636364 L133.780749,9.63636364 L135.513369,14.4652406 C135.631017,14.8395741 135.759358,15.2139019 135.898396,15.5882353 C136.037434,15.9625687 136.165775,16.3262014 136.283422,16.6791444 L136.347594,16.6791444 C136.475936,16.3262014 136.606951,15.9625687 136.740642,15.5882353 C136.874332,15.2139019 137.005347,14.8395741 137.13369,14.4652406 L138.86631,9.63636364 L139.588235,9.63636364 L136.73262,17.3368984 L135.898396,17.3368984 Z M144.176471,17.5294118 C143.68449,17.5294118 143.221927,17.4385036 142.78877,17.2566845 C142.355613,17.0748654 141.978611,16.8101622 141.657754,16.4625668 C141.336897,16.1149715 141.082889,15.6925159 140.895722,15.1951872 C140.708555,14.6978585 140.614973,14.133693 140.614973,13.5026738 C140.614973,12.8716546 140.708555,12.3048153 140.895722,11.802139 C141.082889,11.2994627 141.334223,10.8743333 141.649733,10.526738 C141.965242,10.1791426 142.323527,9.91176564 142.724599,9.72459893 C143.12567,9.53743222 143.540105,9.44385027 143.967914,9.44385027 C144.887705,9.44385027 145.609623,9.75400759 146.13369,10.3743316 C146.657757,10.9946555 146.919786,11.8716521 146.919786,13.0053476 L146.919786,13.2941176 C146.919786,13.3903748 146.909091,13.4866305 146.887701,13.5828877 L141.336898,13.5828877 C141.347594,14.0641735 141.422459,14.5106931 141.561497,14.9224599 C141.700535,15.3342267 141.895721,15.6871643 142.147059,15.9812834 C142.398397,16.2754025 142.700533,16.5053468 143.053476,16.671123 C143.406419,16.8368992 143.802137,16.9197861 144.240642,16.9197861 C144.657756,16.9197861 145.034758,16.8582894 145.371658,16.7352941 C145.708558,16.6122989 146.021389,16.4438513 146.31016,16.2299465 L146.59893,16.7754011 C146.288769,16.9572202 145.9492,17.1283414 145.580214,17.2887701 C145.211228,17.4491987 144.743318,17.5294118 144.176471,17.5294118 Z M141.336898,13.0053476 L146.245989,13.0053476 C146.245989,12.0106902 146.042783,11.2700559 145.636364,10.7834225 C145.229944,10.296789 144.679148,10.0534759 143.983957,10.0534759 C143.652405,10.0534759 143.3369,10.1203202 143.037433,10.2540107 C142.737966,10.3877012 142.467916,10.5828864 142.227273,10.8395722 C141.98663,11.096258 141.788771,11.4064153 141.63369,11.7700535 C141.478609,12.1336917 141.379679,12.5454522 141.336898,13.0053476 Z M149.005348,17.3368984 L149.005348,9.63636364 L149.614973,9.63636364 L149.679144,10.8235294 L149.727273,10.8235294 C150.122997,10.4278055 150.52941,10.0989318 150.946524,9.8368984 C151.363638,9.574865 151.83957,9.44385027 152.374332,9.44385027 C153.176475,9.44385027 153.764704,9.68448957 154.139037,10.1657754 C154.513371,10.6470612 154.700535,11.3903693 154.700535,12.3957219 L154.700535,17.3368984 L153.994652,17.3368984 L153.994652,12.4919786 C153.994652,11.6684451 153.85829,11.0614993 153.585561,10.671123 C153.312833,10.2807467 152.860966,10.0855615 152.229947,10.0855615 C151.770051,10.0855615 151.352943,10.2058811 150.97861,10.4465241 C150.604276,10.687167 150.181821,11.0481259 149.71123,11.5294118 L149.71123,17.3368984 L149.005348,17.3368984 Z M159.754011,17.5294118 C158.951868,17.5294118 158.363638,17.2887725 157.989305,16.8074866 C157.614971,16.3262008 157.427807,15.5828927 157.427807,14.5775401 L157.427807,9.63636364 L158.13369,9.63636364 L158.13369,14.4812834 C158.13369,15.304817 158.270052,15.9117628 158.542781,16.302139 C158.815509,16.6925153 159.262029,16.8877005 159.882353,16.8877005 C160.342248,16.8877005 160.759356,16.7620333 161.13369,16.5106952 C161.508023,16.259357 161.919784,15.8609653 162.368984,15.315508 L162.368984,9.63636364 L163.074866,9.63636364 L163.074866,17.3368984 L162.481283,17.3368984 L162.40107,16.0534759 L162.368984,16.0534759 C161.994651,16.502676 161.598933,16.8609612 161.181818,17.1283422 C160.764704,17.3957233 160.288773,17.5294118 159.754011,17.5294118 Z M168.946524,17.5294118 C168.454543,17.5294118 167.991981,17.4385036 167.558824,17.2566845 C167.125666,17.0748654 166.748665,16.8101622 166.427807,16.4625668 C166.10695,16.1149715 165.852942,15.6925159 165.665775,15.1951872 C165.478609,14.6978585 165.385027,14.133693 165.385027,13.5026738 C165.385027,12.8716546 165.478609,12.3048153 165.665775,11.802139 C165.852942,11.2994627 166.104276,10.8743333 166.419786,10.526738 C166.735296,10.1791426 167.093581,9.91176564 167.494652,9.72459893 C167.895724,9.53743222 168.310158,9.44385027 168.737968,9.44385027 C169.657759,9.44385027 170.379677,9.75400759 170.903743,10.3743316 C171.42781,10.9946555 171.68984,11.8716521 171.68984,13.0053476 L171.68984,13.2941176 C171.68984,13.3903748 171.679144,13.4866305 171.657754,13.5828877 L166.106952,13.5828877 C166.117647,14.0641735 166.192513,14.5106931 166.331551,14.9224599 C166.470589,15.3342267 166.665774,15.6871643 166.917112,15.9812834 C167.16845,16.2754025 167.470586,16.5053468 167.823529,16.671123 C168.176472,16.8368992 168.57219,16.9197861 169.010695,16.9197861 C169.42781,16.9197861 169.804811,16.8582894 170.141711,16.7352941 C170.478611,16.6122989 170.791442,16.4438513 171.080214,16.2299465 L171.368984,16.7754011 C171.058822,16.9572202 170.719253,17.1283414 170.350267,17.2887701 C169.981282,17.4491987 169.513372,17.5294118 168.946524,17.5294118 Z M166.106952,13.0053476 L171.016043,13.0053476 C171.016043,12.0106902 170.812836,11.2700559 170.406417,10.7834225 C169.999998,10.296789 169.449201,10.0534759 168.754011,10.0534759 C168.422458,10.0534759 168.106953,10.1203202 167.807487,10.2540107 C167.50802,10.3877012 167.237969,10.5828864 166.997326,10.8395722 C166.756683,11.096258 166.558824,11.4064153 166.403743,11.7700535 C166.248662,12.1336917 166.149733,12.5454522 166.106952,13.0053476 Z M179.791444,17.5294118 C179.331549,17.5294118 178.89305,17.4385036 178.475936,17.2566845 C178.058821,17.0748654 177.692515,16.8128359 177.377005,16.4705882 C177.061496,16.1283405 176.810161,15.7085586 176.622995,15.2112299 C176.435828,14.7139013 176.342246,14.1443882 176.342246,13.5026738 C176.342246,12.8609594 176.435828,12.2860988 176.622995,11.7780749 C176.810161,11.2700509 177.061496,10.8449215 177.377005,10.5026738 C177.692515,10.1604261 178.058821,9.89839663 178.475936,9.71657754 C178.89305,9.53475845 179.331549,9.44385027 179.791444,9.44385027 C180.251339,9.44385027 180.692511,9.53475845 181.114973,9.71657754 C181.537435,9.89839663 181.906416,10.1604261 182.221925,10.5026738 C182.537435,10.8449215 182.788769,11.2700509 182.975936,11.7780749 C183.163103,12.2860988 183.256684,12.8609594 183.256684,13.5026738 C183.256684,14.1443882 183.163103,14.7139013 182.975936,15.2112299 C182.788769,15.7085586 182.537435,16.1283405 182.221925,16.4705882 C181.906416,16.8128359 181.537435,17.0748654 181.114973,17.2566845 C180.692511,17.4385036 180.251339,17.5294118 179.791444,17.5294118 Z M179.791444,16.9037433 C180.176473,16.9037433 180.537431,16.8208564 180.874332,16.6550802 C181.211232,16.489304 181.499999,16.256686 181.740642,15.9572193 C181.981285,15.6577525 182.171122,15.2994673 182.31016,14.8823529 C182.449199,14.4652386 182.518717,14.0053501 182.518717,13.5026738 C182.518717,12.9893022 182.449199,12.5240663 182.31016,12.1069519 C182.171122,11.6898375 181.981285,11.3288785 181.740642,11.0240642 C181.499999,10.7192498 181.211232,10.483958 180.874332,10.3181818 C180.537431,10.1524056 180.176473,10.0695187 179.791444,10.0695187 C179.406415,10.0695187 179.04813,10.1524056 178.716578,10.3181818 C178.385025,10.483958 178.098932,10.7192498 177.858289,11.0240642 C177.617646,11.3288785 177.427808,11.6898375 177.28877,12.1069519 C177.149732,12.5240663 177.080214,12.9893022 177.080214,13.5026738 C177.080214,14.0053501 177.149732,14.4652386 177.28877,14.8823529 C177.427808,15.2994673 177.617646,15.6577525 177.858289,15.9572193 C178.098932,16.256686 178.385025,16.489304 178.716578,16.6550802 C179.04813,16.8208564 179.406415,16.9037433 179.791444,16.9037433 Z M185.679144,17.3368984 L185.679144,10.2459893 L184.620321,10.2459893 L184.620321,9.70053476 L185.679144,9.63636364 L185.679144,7.9197861 C185.679144,7.14972877 185.844918,6.57219444 186.176471,6.18716578 C186.508023,5.80213711 186.978607,5.60962567 187.588235,5.60962567 C187.962569,5.60962567 188.336897,5.69518631 188.71123,5.86631016 L188.518717,6.44385027 C188.358288,6.35828834 188.200536,6.2994654 188.045455,6.26737968 C187.890374,6.23529396 187.737969,6.21925134 187.588235,6.21925134 C187.181816,6.21925134 186.87968,6.36898246 186.681818,6.6684492 C186.483956,6.96791594 186.385027,7.40106668 186.385027,7.96791444 L186.385027,9.63636364 L188.165775,9.63636364 L188.165775,10.2459893 L186.385027,10.2459893 L186.385027,17.3368984 L185.679144,17.3368984 Z" id="Revenueof" fill="#555555" fill-rule="nonzero"></path>
        </g>
    </g>
</svg>