<?xml version="1.0" encoding="UTF-8"?>
<svg width="250px" height="100px" viewBox="0 0 250 100" version="1.1" xmlns="http://www.w3.org/2000/svg" xmlns:xlink="http://www.w3.org/1999/xlink">
    <!-- Generator: Sketch 53.2 (72643) - https://sketchapp.com -->
    <title>revenue-1-outline</title>
    <desc>Created with Sketch.</desc>
    <defs>
        <polygon id="path-1" points="0.469727974 0.315259549 16.3201098 0.315259549 16.3201098 17.4366975 0.469727974 17.4366975"></polygon>
    </defs>
    <g id="revenue-1-outline" stroke="none" stroke-width="1" fill="none" fill-rule="evenodd">
        <g id="Group" transform="translate(0.000000, 12.000000)">
            <path d="M7.08128079,49.3965517 L7.08128079,46.3485222 C6.01395197,46.26642 5.03900277,45.9944604 4.15640394,45.5326355 C3.27380511,45.0708105 2.53489624,44.552548 1.93965517,43.9778325 L2.67857143,43.023399 C3.2738125,43.5570634 3.9819335,44.0496693 4.80295567,44.5012315 C5.62397783,44.9527937 6.56813916,45.1785714 7.63546798,45.1785714 C8.92857789,45.1785714 9.91892103,44.8296422 10.6065271,44.1317734 C11.2941332,43.4339046 11.637931,42.5205311 11.637931,41.3916256 C11.637931,40.3858735 11.4172846,39.5699949 10.9759852,38.9439655 C10.5346858,38.3179361 9.98563547,37.7842797 9.32881773,37.3429803 C8.672,36.9016809 7.95874769,36.5065699 7.18903941,36.1576355 C6.41933113,35.808701 5.70607882,35.4084587 5.04926108,34.9568966 C4.39244335,34.5053344 3.84339301,33.956284 3.4020936,33.3097291 C2.96079418,32.6631741 2.74014778,31.8165077 2.74014778,30.7697044 C2.74014778,30.1334123 2.84790533,29.5381801 3.06342365,28.9839901 C3.27894196,28.4298002 3.58168935,27.9423256 3.97167488,27.5215517 C4.36166041,27.1007779 4.82347845,26.75698 5.35714286,26.4901478 C5.89080727,26.2233156 6.46551416,26.0591136 7.08128079,25.9975369 L7.08128079,22.9495074 L8.2820197,22.9495074 L8.2820197,25.9975369 C9.28777186,26.0591136 10.1087817,26.2951539 10.7450739,26.705665 C11.3813661,27.1161761 11.9663356,27.5985194 12.5,28.1527094 L11.6995074,29.0147783 C11.4121496,28.7274206 11.1299275,28.470855 10.8528325,28.2450739 C10.5757375,28.0192928 10.2832528,27.824303 9.97536946,27.6600985 C9.66748615,27.4958941 9.32881958,27.3727426 8.95935961,27.2906404 C8.58989963,27.2085382 8.16913208,27.1674877 7.69704433,27.1674877 C6.62971552,27.1674877 5.76765517,27.5010229 5.11083744,28.1681034 C4.4540197,28.835184 4.12561576,29.6818504 4.12561576,30.7081281 C4.12561576,31.6112525 4.34626216,32.3347674 4.78756158,32.8786946 C5.22886099,33.4226218 5.77791133,33.8947024 6.43472906,34.2949507 C7.0915468,34.695199 7.80479911,35.0646535 8.57450739,35.4033251 C9.34421567,35.7419968 10.057468,36.1525017 10.7142857,36.6348522 C11.3711034,37.1172027 11.9201538,37.7226975 12.3614532,38.4513547 C12.8027526,39.1800119 13.023399,40.1293045 13.023399,41.2992611 C13.023399,42.777101 12.5769749,43.9573026 11.6841133,44.8399015 C10.7912517,45.7225003 9.65723183,46.2253688 8.2820197,46.3485222 L8.2820197,49.3965517 L7.08128079,49.3965517 Z M17.1490148,46.0098522 L17.1490148,43.1157635 L21.520936,43.1157635 L21.520936,30.2463054 L17.9187192,30.2463054 L17.9187192,28.0295567 C19.8583744,27.6600985 21.2130542,27.1674877 22.4445813,26.4285714 L25.0923645,26.4285714 L25.0923645,43.1157635 L28.9408867,43.1157635 L28.9408867,46.0098522 L17.1490148,46.0098522 Z M38.546798,46.3793103 C34.4827586,46.3793103 31.8965517,42.7463054 31.8965517,36.1268473 C31.8965517,29.5073892 34.4827586,26.0591133 38.546798,26.0591133 C42.6108374,26.0591133 45.1970443,29.5381773 45.1970443,36.1268473 C45.1970443,42.7463054 42.6108374,46.3793103 38.546798,46.3793103 Z M38.546798,43.6083744 C40.455665,43.6083744 41.8103448,41.6687192 41.8103448,36.1268473 C41.8103448,30.5849754 40.455665,28.8300493 38.546798,28.8300493 C36.6687192,28.8300493 35.2832512,30.5849754 35.2832512,36.1268473 C35.2832512,41.6687192 36.6687192,43.6083744 38.546798,43.6083744 Z M53.8793103,46.3793103 C50.7081281,46.3793103 48.6453202,45.1169951 47.1982759,43.6699507 L48.8300493,41.3916256 C50,42.5 51.4470443,43.4852217 53.4174877,43.4852217 C55.6034483,43.4852217 57.2044335,42.0997537 57.2044335,39.729064 C57.2044335,37.3891626 55.7573892,36.0652709 53.6022167,36.0652709 C52.3399015,36.0652709 51.6317734,36.4039409 50.4618227,37.1736453 L48.7684729,36.0960591 L49.3534483,26.4285714 L59.8214286,26.4285714 L59.8214286,29.4150246 L52.432266,29.4150246 L52.0320197,34.1564039 C52.8633005,33.7561576 53.6022167,33.5098522 54.6182266,33.5098522 C57.9741379,33.5098522 60.7758621,35.4187192 60.7758621,39.6366995 C60.7758621,43.9162562 57.4815271,46.3793103 53.8793103,46.3793103 Z M64.4704433,51.6133005 L63.7007389,49.6736453 C65.7019704,48.9039409 66.841133,47.4876847 66.8103448,45.9482759 L66.5332512,45.9482759 C65.3325123,45.9482759 64.2549261,45.1477833 64.2549261,43.7623153 C64.2549261,42.4384236 65.3325123,41.5763547 66.6256158,41.5763547 C68.2881773,41.5763547 69.273399,42.9310345 69.273399,45.2093596 C69.273399,48.226601 67.5184729,50.5665025 64.4704433,51.6133005 Z M78.6022167,46.3793103 C74.5381773,46.3793103 71.9519704,42.7463054 71.9519704,36.1268473 C71.9519704,29.5073892 74.5381773,26.0591133 78.6022167,26.0591133 C82.6662562,26.0591133 85.2524631,29.5381773 85.2524631,36.1268473 C85.2524631,42.7463054 82.6662562,46.3793103 78.6022167,46.3793103 Z M78.6022167,43.6083744 C80.5110837,43.6083744 81.8657635,41.6687192 81.8657635,36.1268473 C81.8657635,30.5849754 80.5110837,28.8300493 78.6022167,28.8300493 C76.7241379,28.8300493 75.33867,30.5849754 75.33867,36.1268473 C75.33867,41.6687192 76.7241379,43.6083744 78.6022167,43.6083744 Z M94.3965517,46.3793103 C90.3325123,46.3793103 87.7463054,42.7463054 87.7463054,36.1268473 C87.7463054,29.5073892 90.3325123,26.0591133 94.3965517,26.0591133 C98.4605911,26.0591133 101.046798,29.5381773 101.046798,36.1268473 C101.046798,42.7463054 98.4605911,46.3793103 94.3965517,46.3793103 Z M94.3965517,43.6083744 C96.3054187,43.6083744 97.6600985,41.6687192 97.6600985,36.1268473 C97.6600985,30.5849754 96.3054187,28.8300493 94.3965517,28.8300493 C92.5184729,28.8300493 91.1330049,30.5849754 91.1330049,36.1268473 C91.1330049,41.6687192 92.5184729,43.6083744 94.3965517,43.6083744 Z M110.190887,46.3793103 C106.126847,46.3793103 103.54064,42.7463054 103.54064,36.1268473 C103.54064,29.5073892 106.126847,26.0591133 110.190887,26.0591133 C114.254926,26.0591133 116.841133,29.5381773 116.841133,36.1268473 C116.841133,42.7463054 114.254926,46.3793103 110.190887,46.3793103 Z M110.190887,43.6083744 C112.099754,43.6083744 113.454433,41.6687192 113.454433,36.1268473 C113.454433,30.5849754 112.099754,28.8300493 110.190887,28.8300493 C108.312808,28.8300493 106.92734,30.5849754 106.92734,36.1268473 C106.92734,41.6687192 108.312808,43.6083744 110.190887,43.6083744 Z" id="$105,000" fill="#0A2F5A" fill-rule="nonzero"></path>
            <g id="Group-32" transform="translate(171.182266, 0.000000)">
                <g id="Group-4" transform="translate(0.000000, 9.513201)">
                    <path d="M27.8055852,57.4004708 C12.6705133,57.4004708 0.403260754,44.6231568 0.403260754,28.8617465 C0.403260754,13.1003362 12.6705133,0.323022181 27.8055852,0.323022181" id="Fill-1"></path>
                    <path d="M27.8055852,57.4004708 C12.6705133,57.4004708 0.403260754,44.6231568 0.403260754,28.8617465 C0.403260754,13.1003362 12.6705133,0.323022181 27.8055852,0.323022181" id="Stroke-3" stroke="#0A2F5A" stroke-width="3.69458128" stroke-linejoin="round"></path>
                </g>
                <g id="Group-8" transform="translate(36.833856, 60.503957)">
                    <path d="M8.10543279,0.62695799 C5.85631246,2.30052029 3.34038471,3.613342 0.63703026,4.48551226" id="Fill-5"></path>
                    <path d="M8.10543279,0.62695799 C5.85631246,2.30052029 3.34038471,3.613342 0.63703026,4.48551226" id="Stroke-7" stroke="#0A2F5A" stroke-width="3.69458128" stroke-linejoin="round"></path>
                </g>
                <g id="Group-12" transform="translate(48.109526, 49.849173)">
                    <path d="M4.41555243,0.656791388 C3.26543407,3.16599325 1.80961977,5.49140007 0.103235024,7.57707422" id="Fill-9"></path>
                    <path d="M4.41555243,0.656791388 C3.26543407,3.16599325 1.80961977,5.49140007 0.103235024,7.57707422" id="Stroke-11" stroke="#0A2F5A" stroke-width="3.69458128" stroke-linejoin="round"></path>
                </g>
                <g id="Group-16" transform="translate(54.123217, 39.194388)">
                    <path d="M2.03450675,0.0408433424 C1.94430139,1.78619859 1.72329825,3.4960379 1.38051788,5.15006642" id="Fill-13"></path>
                    <path d="M2.03450675,0.0408433424 C1.94430139,1.78619859 1.72329825,3.4960379 1.38051788,5.15006642" id="Stroke-15" stroke="#0A2F5A" stroke-width="3.69458128" stroke-linejoin="round"></path>
                </g>
                <g id="Group-20" transform="translate(54.874928, 37.672275)">
                    <path d="M1.32789809,0.659531189 C1.32789809,1.19150938 1.31211215,1.71892124 1.28279541,2.24404993" id="Fill-17"></path>
                    <path d="M1.32789809,0.659531189 C1.32789809,1.19150938 1.31211215,1.71892124 1.28279541,2.24404993" id="Stroke-19" stroke="#0A2F5A" stroke-width="3.69458128" stroke-linejoin="round"></path>
                </g>
                <g id="Group-24" transform="translate(54.123217, 30.061715)">
                    <path d="M0.875142345,0.204343555 C1.25174973,1.43040488 1.54491715,2.6929969 1.74787921,3.98755327" id="Fill-21"></path>
                    <path d="M0.875142345,0.204343555 C1.25174973,1.43040488 1.54491715,2.6929969 1.74787921,3.98755327" id="Stroke-23" stroke="#0A2F5A" stroke-width="3.69458128" stroke-linejoin="round"></path>
                </g>
                <g id="Group-28" transform="translate(50.364660, 22.451154)">
                    <path d="M0.880178811,0.524443737 C1.40111477,1.34866746 1.87694805,2.2002892 2.30993379,3.08159213" id="Fill-25"></path>
                    <path d="M0.880178811,0.524443737 C1.40111477,1.34866746 1.87694805,2.2002892 2.30993379,3.08159213" id="Stroke-27" stroke="#0A2F5A" stroke-width="3.69458128" stroke-linejoin="round"></path>
                </g>
                <g id="Group-31" transform="translate(22.551340, 0.380528)">
                    <mask id="mask-2" fill="white">
                        <use xlink:href="#path-1"></use>
                    </mask>
                    <g id="Clip-30"></g>
                    <polygon id="Fill-29" fill="#0A2F5A" mask="url(#mask-2)" points="16.3201098 6.76765066 9.59833042 12.1009889 2.87420982 17.4366975 1.67313953 8.87491186 0.469727974 0.313126214 8.39491887 3.54157362"></polygon>
                </g>
            </g>
            <path d="M186.216133,40.1674877 L186.216133,38.4310345 L188.839286,38.4310345 L188.839286,30.7093596 L186.677956,30.7093596 L186.677956,29.3793103 C187.841749,29.1576355 188.654557,28.862069 189.393473,28.4187192 L190.982143,28.4187192 L190.982143,38.4310345 L193.291256,38.4310345 L193.291256,40.1674877 L186.216133,40.1674877 Z M199.855296,40.3152709 C199.428364,40.3152709 199.021964,40.237275 198.636084,40.0812808 C198.250203,39.9252866 197.913589,39.7282442 197.626232,39.4901478 L198.131158,38.8128079 C198.393885,39.0262736 198.662765,39.1986857 198.937808,39.3300493 C199.21285,39.4614128 199.530992,39.5270936 199.892241,39.5270936 C200.286332,39.5270936 200.581896,39.4367825 200.778941,39.2561576 C200.975986,39.0755328 201.074507,38.8538601 201.074507,38.591133 C201.074507,38.4351388 201.033457,38.2996722 200.951355,38.1847291 C200.869252,38.069786 200.764574,37.9692123 200.637315,37.8830049 C200.510057,37.7967976 200.364328,37.7208542 200.200123,37.6551724 L199.707512,37.4581281 C199.494047,37.3842361 199.280584,37.3000826 199.067118,37.205665 C198.853652,37.1112475 198.662768,36.9963061 198.494458,36.8608374 C198.326149,36.7253688 198.188629,36.5673244 198.081897,36.3866995 C197.975164,36.2060746 197.921798,35.988507 197.921798,35.7339901 C197.921798,35.4958937 197.969006,35.2721685 198.063424,35.0628079 C198.157841,34.8534472 198.293308,34.6728251 198.469828,34.520936 C198.646347,34.3690469 198.861862,34.2500004 199.116379,34.1637931 C199.370896,34.0775858 199.65825,34.0344828 199.978448,34.0344828 C200.356118,34.0344828 200.702995,34.1001635 201.019089,34.2315271 C201.335182,34.3628906 201.608168,34.5229876 201.838054,34.7118227 L201.357759,35.3522167 C201.152503,35.1962225 200.939041,35.068966 200.717365,34.9704433 C200.495689,34.8719207 200.253491,34.8226601 199.990764,34.8226601 C199.613093,34.8226601 199.336003,34.9088661 199.159483,35.0812808 C198.982963,35.2536954 198.894704,35.4548429 198.894704,35.6847291 C198.894704,35.8243028 198.93165,35.9454018 199.005542,36.0480296 C199.079434,36.1506573 199.177955,36.2409684 199.301108,36.3189655 C199.424262,36.3969626 199.565886,36.4667485 199.725985,36.5283251 C199.886085,36.5899018 200.052339,36.65353 200.224754,36.7192118 C200.438219,36.801314 200.653735,36.8875201 200.871305,36.9778325 C201.088876,37.068145 201.283866,37.1810338 201.456281,37.3165025 C201.628695,37.4519711 201.77032,37.6182256 201.881158,37.8152709 C201.991996,38.0123163 202.047414,38.2504091 202.047414,38.5295567 C202.047414,38.7758633 202.000206,39.0057461 201.905788,39.2192118 C201.811371,39.4326776 201.671799,39.6215099 201.487069,39.7857143 C201.302339,39.9499187 201.072456,40.0792278 200.797414,40.1736453 C200.522371,40.2680629 200.208335,40.3152709 199.855296,40.3152709 Z M205.877463,40.3152709 C205.475162,40.3152709 205.09955,40.2434326 204.750616,40.0997537 C204.401681,39.9560748 204.097908,39.7508224 203.839286,39.4839901 C203.580664,39.2171579 203.377464,38.8908065 203.22968,38.5049261 C203.081896,38.1190457 203.008005,37.6798054 203.008005,37.1871921 C203.008005,36.6945788 203.083948,36.253286 203.235837,35.8633005 C203.387727,35.473315 203.588874,35.1428585 203.839286,34.8719212 C204.089697,34.6009839 204.374998,34.3936789 204.695197,34.25 C205.015396,34.1063211 205.347905,34.0344828 205.692734,34.0344828 C206.070404,34.0344828 206.409071,34.1001635 206.708744,34.2315271 C207.008417,34.3628906 207.258825,34.5517229 207.459975,34.7980296 C207.661126,35.0443362 207.815065,35.3398998 207.921798,35.6847291 C208.028531,36.0295584 208.081897,36.415433 208.081897,36.8423645 C208.081897,36.9490974 208.079844,37.0537762 208.075739,37.1564039 C208.071634,37.2590317 208.061371,37.3472903 208.044951,37.4211823 L204.005542,37.4211823 C204.046593,38.0615796 204.245688,38.5685531 204.602833,38.9421182 C204.959977,39.3156833 205.4259,39.5024631 206.000616,39.5024631 C206.287974,39.5024631 206.552749,39.45936 206.794951,39.3731527 C207.037152,39.2869454 207.269088,39.1740565 207.490764,39.0344828 L207.847906,39.6995074 C207.585179,39.8637118 207.293721,40.0073885 206.973522,40.1305419 C206.653324,40.2536952 206.287974,40.3152709 205.877463,40.3152709 Z M203.993227,36.6945813 L207.195197,36.6945813 C207.195197,36.0870249 207.065888,35.6252068 206.807266,35.3091133 C206.548644,34.9930198 206.185347,34.8349754 205.717365,34.8349754 C205.503899,34.8349754 205.300699,34.8760259 205.107759,34.9581281 C204.914818,35.0402303 204.740354,35.1613292 204.58436,35.3214286 C204.428365,35.4815279 204.299056,35.6765177 204.196429,35.9064039 C204.093801,36.1362901 204.026067,36.3990133 203.993227,36.6945813 Z M211.924261,40.3152709 C211.53017,40.3152709 211.160716,40.2454851 210.815887,40.1059113 C210.471057,39.9663376 210.173441,39.7631376 209.92303,39.4963054 C209.672618,39.2294732 209.475575,38.9010693 209.331897,38.5110837 C209.188218,38.1210982 209.116379,37.6798054 209.116379,37.1871921 C209.116379,36.6863686 209.194375,36.2409708 209.350369,35.8509852 C209.506364,35.4609997 209.715721,35.1305432 209.978448,34.8596059 C210.241175,34.5886686 210.547002,34.3834161 210.895936,34.2438424 C211.24487,34.1042686 211.612272,34.0344828 211.998153,34.0344828 C212.392243,34.0344828 212.728857,34.1042686 213.008005,34.2438424 C213.287152,34.3834161 213.533455,34.5476181 213.746921,34.7364532 L213.22968,35.4014778 C213.057265,35.2454836 212.87459,35.1182271 212.68165,35.0197044 C212.48871,34.9211818 212.273195,34.8719212 212.035099,34.8719212 C211.764161,34.8719212 211.513753,34.9273393 211.283867,35.0381773 C211.053981,35.1490153 210.856938,35.3070597 210.692734,35.5123153 C210.52853,35.7175708 210.399221,35.9618212 210.304803,36.2450739 C210.210385,36.5283265 210.163177,36.8423628 210.163177,37.1871921 C210.163177,37.5320214 210.208333,37.8440052 210.298645,38.1231527 C210.388958,38.4023002 210.514162,38.6424456 210.674261,38.8435961 C210.83436,39.0447465 211.02935,39.2007384 211.259236,39.3115764 C211.489123,39.4224143 211.739531,39.4778325 212.010468,39.4778325 C212.289616,39.4778325 212.546181,39.4183093 212.780172,39.2992611 C213.014164,39.1802129 213.225574,39.0385887 213.414409,38.8743842 L213.857759,39.5517241 C213.586821,39.7898206 213.287153,39.9766003 212.958744,40.112069 C212.630335,40.2475376 212.285511,40.3152709 211.924261,40.3152709 Z" id="1sec" fill="#555555" fill-rule="nonzero"></path>
            <rect id="Rectangle" fill="#0A2F5A" fill-rule="nonzero" x="145.320197" y="49.2610837" width="104.679803" height="27.0935961"></rect>
            <path d="M162.780788,66.7241379 L162.780788,57.0591133 L165.825123,57.0591133 C167.96798,57.0591133 169.564039,57.7980296 169.564039,60.044335 C169.564039,62.1871921 167.96798,63.1773399 165.884236,63.1773399 L164.495074,63.1773399 L164.495074,66.7241379 L162.780788,66.7241379 Z M164.495074,61.8029557 L165.751232,61.8029557 C167.184729,61.8029557 167.87931,61.226601 167.87931,60.044335 C167.87931,58.8325123 167.125616,58.4334975 165.692118,58.4334975 L164.495074,58.4334975 L164.495074,61.8029557 Z M174.012315,66.9014778 C172.002463,66.9014778 170.435961,65.4975369 170.435961,63.1034483 C170.435961,60.7389163 172.076355,59.2906404 173.775862,59.2906404 C175.741379,59.2906404 176.775862,60.7093596 176.775862,62.7339901 C176.775862,63.0591133 176.746305,63.3842365 176.70197,63.5615764 L172.091133,63.5615764 C172.238916,64.8472906 173.066502,65.5862069 174.23399,65.5862069 C174.85468,65.5862069 175.3867,65.3940887 175.918719,65.0541872 L176.495074,66.1182266 C175.800493,66.5763547 174.928571,66.9014778 174.012315,66.9014778 Z M172.076355,62.408867 L175.29803,62.408867 C175.29803,61.2857143 174.810345,60.6059113 173.820197,60.6059113 C172.963054,60.6059113 172.224138,61.2413793 172.076355,62.408867 Z M178.401478,66.7241379 L178.401478,59.4679803 L179.805419,59.4679803 L179.923645,60.7536946 L179.982759,60.7536946 C180.5,59.8078818 181.268473,59.2906404 182.036946,59.2906404 C182.406404,59.2906404 182.642857,59.3349754 182.864532,59.4384236 L182.568966,60.9162562 C182.317734,60.8423645 182.125616,60.7980296 181.815271,60.7980296 C181.238916,60.7980296 180.544335,61.1970443 180.100985,62.2906404 L180.100985,66.7241379 L178.401478,66.7241379 Z M189.839901,66.9014778 C188.539409,66.9014778 187.268473,66.3842365 186.352217,65.4827586 L187.357143,64.3152709 C188.051724,64.9655172 188.982759,65.408867 189.869458,65.408867 C190.963054,65.408867 191.554187,64.9211823 191.554187,64.1674877 C191.554187,63.3694581 190.933498,63.1182266 190.061576,62.7487685 L188.731527,62.1724138 C187.785714,61.773399 186.780788,61.0197044 186.780788,59.6009852 C186.780788,58.0640394 188.140394,56.8817734 190.03202,56.8817734 C191.155172,56.8817734 192.248768,57.3546798 193.002463,58.1083744 L192.130542,59.2019704 C191.509852,58.6847291 190.859606,58.3743842 190.03202,58.3743842 C189.115764,58.3743842 188.509852,58.8029557 188.509852,59.5123153 C188.509852,60.2660099 189.248768,60.546798 190.046798,60.8719212 L191.362069,61.4187192 C192.5,61.9064039 193.312808,62.6305419 193.312808,64.0344828 C193.312808,65.6009852 192.012315,66.9014778 189.839901,66.9014778 Z M198.027094,66.9014778 C196.017241,66.9014778 194.450739,65.4975369 194.450739,63.1034483 C194.450739,60.7389163 196.091133,59.2906404 197.79064,59.2906404 C199.756158,59.2906404 200.79064,60.7093596 200.79064,62.7339901 C200.79064,63.0591133 200.761084,63.3842365 200.716749,63.5615764 L196.105911,63.5615764 C196.253695,64.8472906 197.081281,65.5862069 198.248768,65.5862069 C198.869458,65.5862069 199.401478,65.3940887 199.933498,65.0541872 L200.509852,66.1182266 C199.815271,66.5763547 198.94335,66.9014778 198.027094,66.9014778 Z M196.091133,62.408867 L199.312808,62.408867 C199.312808,61.2857143 198.825123,60.6059113 197.834975,60.6059113 C196.977833,60.6059113 196.238916,61.2413793 196.091133,62.408867 Z M205.445813,66.9014778 C203.465517,66.9014778 201.94335,65.5123153 201.94335,63.1034483 C201.94335,60.679803 203.642857,59.2906404 205.578818,59.2906404 C206.509852,59.2906404 207.174877,59.6453202 207.706897,60.1034483 L206.87931,61.2118227 C206.495074,60.8719212 206.125616,60.679803 205.667488,60.679803 C204.5,60.679803 203.687192,61.6403941 203.687192,63.1034483 C203.687192,64.5517241 204.485222,65.5123153 205.623153,65.5123153 C206.184729,65.5123153 206.70197,65.2315271 207.115764,64.8916256 L207.810345,66.0147783 C207.130542,66.6059113 206.273399,66.9014778 205.445813,66.9014778 Z M211.859606,66.9014778 C210.05665,66.9014778 208.416256,65.5123153 208.416256,63.1034483 C208.416256,60.679803 210.05665,59.2906404 211.859606,59.2906404 C213.67734,59.2906404 215.317734,60.679803 215.317734,63.1034483 C215.317734,65.5123153 213.67734,66.9014778 211.859606,66.9014778 Z M211.859606,65.5123153 C212.923645,65.5123153 213.573892,64.5517241 213.573892,63.1034483 C213.573892,61.6403941 212.923645,60.679803 211.859606,60.679803 C210.795567,60.679803 210.160099,61.6403941 210.160099,63.1034483 C210.160099,64.5517241 210.795567,65.5123153 211.859606,65.5123153 Z M217.002463,66.7241379 L217.002463,59.4679803 L218.406404,59.4679803 L218.524631,60.4433498 L218.583744,60.4433498 C219.23399,59.8078818 219.972906,59.2906404 220.963054,59.2906404 C222.514778,59.2906404 223.194581,60.3399015 223.194581,62.1724138 L223.194581,66.7241379 L221.495074,66.7241379 L221.495074,62.3940887 C221.495074,61.1970443 221.155172,60.7536946 220.357143,60.7536946 C219.721675,60.7536946 219.307882,61.0640394 218.70197,61.6551724 L218.70197,66.7241379 L217.002463,66.7241379 Z M227.820197,66.9014778 C226.002463,66.9014778 224.834975,65.4975369 224.834975,63.1034483 C224.834975,60.7389163 226.327586,59.2906404 227.908867,59.2906404 C228.736453,59.2906404 229.253695,59.6009852 229.815271,60.08867 L229.756158,58.9211823 L229.756158,56.2906404 L231.455665,56.2906404 L231.455665,66.7241379 L230.051724,66.7241379 L229.933498,65.9408867 L229.874384,65.9408867 C229.342365,66.4729064 228.603448,66.9014778 227.820197,66.9014778 Z M228.23399,65.4975369 C228.795567,65.4975369 229.268473,65.2463054 229.756158,64.6847291 L229.756158,61.3004926 C229.253695,60.8571429 228.76601,60.6945813 228.278325,60.6945813 C227.347291,60.6945813 226.593596,61.5665025 226.593596,63.08867 C226.593596,64.6551724 227.184729,65.4975369 228.23399,65.4975369 Z" id="PerSecond" fill="#FFFFFF" fill-rule="nonzero"></path>
            <polygon id="+" fill="#0A2F5A" fill-rule="nonzero" transform="translate(133.119875, 36.899830) rotate(45.000000) translate(-133.119875, -36.899830) " points="132.155589 42.0205196 132.155589 37.8308644 128.187608 37.8308644 128.187608 35.9687954 132.155589 35.9687954 132.155589 31.7791403 134.08416 31.7791403 134.08416 35.9687954 138.052141 35.9687954 138.052141 37.8308644 134.08416 37.8308644 134.08416 42.0205196"></polygon>
        </g>
    </g>
</svg>