<?xml version="1.0" encoding="UTF-8"?>
<svg width="620px" height="429px" viewBox="0 0 620 429" version="1.1" xmlns="http://www.w3.org/2000/svg" xmlns:xlink="http://www.w3.org/1999/xlink">
    <!-- Generator: Sketch 58 (84663) - https://sketch.com -->
    <title>revenue-graph-outline</title>
    <desc>Created with Sketch.</desc>
    <g id="revenue-graph-outline" stroke="none" stroke-width="1" fill="none" fill-rule="evenodd">
        <g id="Group" transform="translate(6.215000, 17.765000)" fill-rule="nonzero">
            <path d="M327.409462,395.235 L327.409462,394.808538 L328.072157,394.132788 C328.603679,393.586761 329.083393,393.083475 329.511308,392.622923 C330.110388,391.978151 330.61046,391.389233 331.011538,390.856154 C331.412617,390.323074 331.712153,389.830618 331.910154,389.378769 C332.108155,388.926921 332.207154,388.487771 332.207154,388.061308 C332.207154,387.452074 332.037079,386.93931 331.696923,386.523 C331.356768,386.10669 330.821158,385.898538 330.090077,385.898538 C329.643305,385.898538 329.227002,386.020383 328.841154,386.264077 C328.455306,386.50777 328.115155,386.812383 327.820692,387.177923 L327.379,386.751462 C327.74454,386.345306 328.148152,386.005155 328.589846,385.731 C329.031541,385.456845 329.55192,385.319769 330.151,385.319769 C331.024235,385.319769 331.699459,385.568536 332.176692,386.066077 C332.653925,386.563618 332.892538,387.223611 332.892538,388.046077 C332.892538,388.533464 332.785924,389.018305 332.572692,389.500615 C332.35946,389.982925 332.059925,390.490613 331.674077,391.023692 C331.288229,391.556772 330.818618,392.125382 330.265231,392.729538 L329.573144,393.480111 C329.21309,393.86819 328.832017,394.275459 328.429923,394.701923 C328.693924,394.681615 328.965537,394.663846 329.244769,394.648615 C329.524001,394.633385 329.795614,394.625769 330.059615,394.625769 L333.379923,394.625769 L333.379923,395.235 L327.409462,395.235 Z M337.720692,395.417769 C336.786534,395.417769 336.068156,394.97862 335.565538,394.100308 C335.062921,393.221996 334.811615,391.96547 334.811615,390.330692 C334.811615,388.706069 335.062921,387.464774 335.565538,386.606769 C336.068156,385.748765 336.786534,385.319769 337.720692,385.319769 C338.654851,385.319769 339.373228,385.748765 339.875846,386.606769 C340.378464,387.464774 340.629769,388.706069 340.629769,390.330692 C340.629769,391.96547 340.378464,393.221996 339.875846,394.100308 C339.373228,394.97862 338.654851,395.417769 337.720692,395.417769 Z M337.720692,394.839 C338.401003,394.839 338.94169,394.460773 339.342769,393.704308 C339.743848,392.947842 339.944385,391.823315 339.944385,390.330692 C339.944385,388.838069 339.743848,387.726234 339.342769,386.995154 C338.94169,386.264073 338.401003,385.898538 337.720692,385.898538 C337.050535,385.898538 336.512387,386.264073 336.106231,386.995154 C335.700075,387.726234 335.497,388.838069 335.497,390.330692 C335.497,391.823315 335.700075,392.947842 336.106231,393.704308 C336.512387,394.460773 337.050535,394.839 337.720692,394.839 Z M342.655462,394.641 L344.940077,394.641 L344.940077,386.568692 L343.203769,386.568692 L343.203769,386.111769 C343.599771,386.040692 343.952614,385.954385 344.262308,385.852846 C344.572002,385.751307 344.843614,385.634539 345.077154,385.502538 L345.625462,385.502538 L345.625462,394.641 L347.742538,394.641 L347.742538,395.235 L342.655462,395.235 L342.655462,394.641 Z M351.535,395.235 C351.575616,394.250072 351.659384,393.348927 351.786308,392.531538 C351.913231,391.71415 352.09346,390.942465 352.327,390.216462 C352.56054,389.490458 352.854998,388.794926 353.210385,388.129846 C353.565771,387.464766 353.987151,386.787003 354.474538,386.096538 L349.341769,386.096538 L349.341769,385.502538 L355.327462,385.502538 L355.327462,385.898538 C354.748689,386.670235 354.268925,387.411458 353.888154,388.122231 C353.507383,388.833004 353.20277,389.556458 352.974308,390.292615 C352.745845,391.028773 352.580847,391.797919 352.479308,392.600077 C352.377769,393.402235 352.306693,394.280534 352.266077,395.235 L351.535,395.235 Z" id="2017" fill="#666666"></path>
            <path d="M435.409462,395.235 L435.409462,394.808538 L436.072157,394.132788 C436.603679,393.586761 437.083393,393.083475 437.511308,392.622923 C438.110388,391.978151 438.61046,391.389233 439.011538,390.856154 C439.412617,390.323074 439.712153,389.830618 439.910154,389.378769 C440.108155,388.926921 440.207154,388.487771 440.207154,388.061308 C440.207154,387.452074 440.037079,386.93931 439.696923,386.523 C439.356768,386.10669 438.821158,385.898538 438.090077,385.898538 C437.643305,385.898538 437.227002,386.020383 436.841154,386.264077 C436.455306,386.50777 436.115155,386.812383 435.820692,387.177923 L435.379,386.751462 C435.74454,386.345306 436.148152,386.005155 436.589846,385.731 C437.031541,385.456845 437.55192,385.319769 438.151,385.319769 C439.024235,385.319769 439.699459,385.568536 440.176692,386.066077 C440.653925,386.563618 440.892538,387.223611 440.892538,388.046077 C440.892538,388.533464 440.785924,389.018305 440.572692,389.500615 C440.35946,389.982925 440.059925,390.490613 439.674077,391.023692 C439.288229,391.556772 438.818618,392.125382 438.265231,392.729538 L437.573144,393.480111 C437.21309,393.86819 436.832017,394.275459 436.429923,394.701923 C436.693924,394.681615 436.965537,394.663846 437.244769,394.648615 C437.524001,394.633385 437.795614,394.625769 438.059615,394.625769 L441.379923,394.625769 L441.379923,395.235 L435.409462,395.235 Z M445.720692,395.417769 C444.786534,395.417769 444.068156,394.97862 443.565538,394.100308 C443.062921,393.221996 442.811615,391.96547 442.811615,390.330692 C442.811615,388.706069 443.062921,387.464774 443.565538,386.606769 C444.068156,385.748765 444.786534,385.319769 445.720692,385.319769 C446.654851,385.319769 447.373228,385.748765 447.875846,386.606769 C448.378464,387.464774 448.629769,388.706069 448.629769,390.330692 C448.629769,391.96547 448.378464,393.221996 447.875846,394.100308 C447.373228,394.97862 446.654851,395.417769 445.720692,395.417769 Z M445.720692,394.839 C446.401003,394.839 446.94169,394.460773 447.342769,393.704308 C447.743848,392.947842 447.944385,391.823315 447.944385,390.330692 C447.944385,388.838069 447.743848,387.726234 447.342769,386.995154 C446.94169,386.264073 446.401003,385.898538 445.720692,385.898538 C445.050535,385.898538 444.512387,386.264073 444.106231,386.995154 C443.700075,387.726234 443.497,388.838069 443.497,390.330692 C443.497,391.823315 443.700075,392.947842 444.106231,393.704308 C444.512387,394.460773 445.050535,394.839 445.720692,394.839 Z M450.655462,394.641 L452.940077,394.641 L452.940077,386.568692 L451.203769,386.568692 L451.203769,386.111769 C451.599771,386.040692 451.952614,385.954385 452.262308,385.852846 C452.572002,385.751307 452.843614,385.634539 453.077154,385.502538 L453.625462,385.502538 L453.625462,394.641 L455.742538,394.641 L455.742538,395.235 L450.655462,395.235 L450.655462,394.641 Z M457.951,392.706692 C457.951,393.011309 458.011922,393.293076 458.133769,393.552 C458.255616,393.810924 458.423153,394.036845 458.636385,394.229769 C458.849616,394.422693 459.10346,394.574999 459.397923,394.686692 C459.692386,394.798385 460.017306,394.854231 460.372692,394.854231 C460.717925,394.854231 461.030152,394.803462 461.309385,394.701923 C461.588617,394.600384 461.82723,394.458232 462.025231,394.275462 C462.223232,394.092691 462.375538,393.879463 462.482154,393.635769 C462.58877,393.392076 462.642077,393.133155 462.642077,392.859 C462.642077,392.483306 462.558309,392.166001 462.390769,391.907077 C462.22323,391.648153 461.999848,391.419693 461.720615,391.221692 C461.441383,391.023691 461.124079,390.851078 460.768692,390.703846 L459.672077,390.254538 L459.672077,390.254538 C459.174536,390.549001 458.763309,390.896767 458.438385,391.297846 C458.11346,391.698925 457.951,392.168536 457.951,392.706692 Z M461.088538,390.132692 C461.504848,389.797614 461.822153,389.444771 462.040462,389.074154 C462.25877,388.703537 462.367923,388.305002 462.367923,387.878538 C462.367923,387.604383 462.322231,387.348001 462.230846,387.109385 C462.139461,386.870768 462.010001,386.660078 461.842462,386.477308 C461.674922,386.294538 461.46677,386.149847 461.218,386.043231 C460.96923,385.936615 460.687463,385.883308 460.372692,385.883308 C460.098537,385.883308 459.847232,385.929 459.618769,386.020385 C459.390307,386.11177 459.192309,386.236153 459.024769,386.393538 C458.85723,386.550924 458.72777,386.741307 458.636385,386.964692 C458.545,387.188078 458.499308,387.431768 458.499308,387.695769 C458.499308,388.041002 458.572922,388.337999 458.720154,388.586769 C458.867385,388.83554 459.062845,389.053845 459.306538,389.241692 C459.550232,389.429539 459.826922,389.594538 460.136615,389.736692 C460.446309,389.878847 460.763614,390.010846 461.088538,390.132692 Z M457.280846,392.737154 C457.280846,392.412229 457.33923,392.107617 457.456,391.823308 C457.57277,391.538999 457.725076,391.282617 457.912923,391.054154 C458.10077,390.825691 458.308922,390.622616 458.537385,390.444923 C458.765847,390.26723 458.996845,390.117462 459.230385,389.995615 L459.230385,389.934692 C459.047614,389.812846 458.872462,389.678308 458.704923,389.531077 C458.537384,389.383845 458.390154,389.216309 458.263231,389.028462 C458.136307,388.840614 458.032231,388.63754 457.951,388.419231 C457.869769,388.200922 457.829154,387.959771 457.829154,387.695769 C457.829154,387.350537 457.895153,387.030694 458.027154,386.736231 C458.159155,386.441768 458.339383,386.190463 458.567846,385.982308 C458.796309,385.774153 459.065383,385.611693 459.375077,385.494923 C459.684771,385.378153 460.017306,385.319769 460.372692,385.319769 C460.789002,385.319769 461.159614,385.38323 461.484538,385.510154 C461.809463,385.637078 462.086153,385.814768 462.314615,386.043231 C462.543078,386.271693 462.715692,386.540768 462.832462,386.850462 C462.949231,387.160155 463.007615,387.497767 463.007615,387.863308 C463.007615,388.127309 462.961924,388.383691 462.870538,388.632462 C462.779153,388.881232 462.664924,389.11223 462.527846,389.325462 C462.390769,389.538693 462.241001,389.731615 462.078538,389.904231 C461.916076,390.076847 461.76377,390.218999 461.621615,390.330692 L461.621615,390.391615 C461.834847,390.523616 462.042999,390.665768 462.246077,390.818077 C462.449155,390.970385 462.629384,391.142999 462.786769,391.335923 C462.944155,391.528847 463.073615,391.75223 463.175154,392.006077 C463.276693,392.259924 463.327462,392.549306 463.327462,392.874231 C463.327462,393.229617 463.256385,393.562152 463.114231,393.871846 C462.972076,394.18154 462.77154,394.450614 462.512615,394.679077 C462.253691,394.90754 461.941463,395.087769 461.575923,395.219769 C461.210383,395.35177 460.80931,395.417769 460.372692,395.417769 C459.925921,395.417769 459.514694,395.349231 459.139,395.212154 C458.763306,395.075076 458.438386,394.887232 458.164231,394.648615 C457.890076,394.409999 457.674308,394.128232 457.516923,393.803308 C457.359538,393.478383 457.280846,393.123002 457.280846,392.737154 Z" id="2018" fill="#666666"></path>
            <polygon id="Rectangle-16" fill="#FAFAFA" points="49.785 288.235 607.785 288.235 607.785 328.235 49.785 328.235"></polygon>
            <polygon id="Rectangle-16" fill="#FAFAFA" points="49.785 208.235 607.785 208.235 607.785 248.235 49.785 248.235"></polygon>
            <polygon id="Rectangle-16" fill="#FAFAFA" points="49.785 128.235 607.785 128.235 607.785 168.235 49.785 168.235"></polygon>
            <polygon id="Rectangle-16" fill="#FAFAFA" points="49.785 48.235 607.785 48.235 607.785 88.235 49.785 88.235"></polygon>
            <path d="M219.409462,395.235 L219.409462,394.808538 L220.072157,394.132788 C220.603679,393.586761 221.083393,393.083475 221.511308,392.622923 C222.110388,391.978151 222.61046,391.389233 223.011538,390.856154 C223.412617,390.323074 223.712153,389.830618 223.910154,389.378769 C224.108155,388.926921 224.207154,388.487771 224.207154,388.061308 C224.207154,387.452074 224.037079,386.93931 223.696923,386.523 C223.356768,386.10669 222.821158,385.898538 222.090077,385.898538 C221.643305,385.898538 221.227002,386.020383 220.841154,386.264077 C220.455306,386.50777 220.115155,386.812383 219.820692,387.177923 L219.379,386.751462 C219.74454,386.345306 220.148152,386.005155 220.589846,385.731 C221.031541,385.456845 221.55192,385.319769 222.151,385.319769 C223.024235,385.319769 223.699459,385.568536 224.176692,386.066077 C224.653925,386.563618 224.892538,387.223611 224.892538,388.046077 C224.892538,388.533464 224.785924,389.018305 224.572692,389.500615 C224.35946,389.982925 224.059925,390.490613 223.674077,391.023692 C223.288229,391.556772 222.818618,392.125382 222.265231,392.729538 L221.573144,393.480111 C221.21309,393.86819 220.832017,394.275459 220.429923,394.701923 C220.693924,394.681615 220.965537,394.663846 221.244769,394.648615 C221.524001,394.633385 221.795614,394.625769 222.059615,394.625769 L225.379923,394.625769 L225.379923,395.235 L219.409462,395.235 Z M229.720692,395.417769 C228.786534,395.417769 228.068156,394.97862 227.565538,394.100308 C227.062921,393.221996 226.811615,391.96547 226.811615,390.330692 C226.811615,388.706069 227.062921,387.464774 227.565538,386.606769 C228.068156,385.748765 228.786534,385.319769 229.720692,385.319769 C230.654851,385.319769 231.373228,385.748765 231.875846,386.606769 C232.378464,387.464774 232.629769,388.706069 232.629769,390.330692 C232.629769,391.96547 232.378464,393.221996 231.875846,394.100308 C231.373228,394.97862 230.654851,395.417769 229.720692,395.417769 Z M229.720692,394.839 C230.401003,394.839 230.94169,394.460773 231.342769,393.704308 C231.743848,392.947842 231.944385,391.823315 231.944385,390.330692 C231.944385,388.838069 231.743848,387.726234 231.342769,386.995154 C230.94169,386.264073 230.401003,385.898538 229.720692,385.898538 C229.050535,385.898538 228.512387,386.264073 228.106231,386.995154 C227.700075,387.726234 227.497,388.838069 227.497,390.330692 C227.497,391.823315 227.700075,392.947842 228.106231,393.704308 C228.512387,394.460773 229.050535,394.839 229.720692,394.839 Z M234.655462,394.641 L236.940077,394.641 L236.940077,386.568692 L235.203769,386.568692 L235.203769,386.111769 C235.599771,386.040692 235.952614,385.954385 236.262308,385.852846 C236.572002,385.751307 236.843614,385.634539 237.077154,385.502538 L237.625462,385.502538 L237.625462,394.641 L239.742538,394.641 L239.742538,395.235 L234.655462,395.235 L234.655462,394.641 Z M244.662077,394.839 C244.946386,394.839 245.207845,394.775539 245.446462,394.648615 C245.685078,394.521692 245.890691,394.34654 246.063308,394.123154 C246.235924,393.899768 246.372999,393.638309 246.474538,393.338769 C246.576077,393.039229 246.626846,392.716848 246.626846,392.371615 C246.626846,392.026383 246.586231,391.704001 246.505,391.404462 C246.423769,391.104922 246.299385,390.846001 246.131846,390.627692 C245.964307,390.409384 245.746001,390.239308 245.476923,390.117462 C245.207845,389.995615 244.89054,389.934692 244.525,389.934692 C244.179768,389.934692 243.799002,390.043845 243.382692,390.262154 C242.966383,390.480463 242.560233,390.85869 242.164231,391.396846 C242.194692,391.914695 242.268307,392.384306 242.385077,392.805692 C242.501847,393.227079 242.661768,393.587537 242.864846,393.887077 C243.067924,394.186617 243.319229,394.420153 243.618769,394.587692 C243.918309,394.755232 244.266075,394.839 244.662077,394.839 Z M246.687769,386.721 C246.474537,386.456999 246.225771,386.256462 245.941462,386.119385 C245.657152,385.982307 245.357617,385.913769 245.042846,385.913769 C244.656998,385.913769 244.291463,385.994999 243.946231,386.157462 C243.600998,386.319924 243.296386,386.588998 243.032385,386.964692 C242.768383,387.340386 242.557693,387.835382 242.400308,388.449692 C242.242922,389.064003 242.159154,389.817919 242.149,390.711462 C242.484079,390.295152 242.862306,389.965155 243.283692,389.721462 C243.705079,389.477768 244.144228,389.355923 244.601154,389.355923 C245.464235,389.355923 246.131844,389.612305 246.604,390.125077 C247.076156,390.637849 247.312231,391.386687 247.312231,392.371615 C247.312231,392.818387 247.241155,393.227075 247.099,393.597692 C246.956845,393.96831 246.763924,394.288153 246.520231,394.557231 C246.276537,394.826309 245.994771,395.036999 245.674923,395.189308 C245.355075,395.341616 245.012386,395.417769 244.646846,395.417769 C243.661918,395.417769 242.885157,395.021773 242.316538,394.229769 C241.74792,393.437765 241.463615,392.300546 241.463615,390.818077 C241.463615,389.802687 241.562614,388.944696 241.760615,388.244077 C241.958616,387.543458 242.222614,386.974848 242.552615,386.538231 C242.882617,386.101613 243.263382,385.789386 243.694923,385.601538 C244.126464,385.413691 244.575767,385.319769 245.042846,385.319769 C245.499772,385.319769 245.893229,385.406076 246.223231,385.578692 C246.553232,385.751309 246.845153,385.979768 247.099,386.264077 L246.687769,386.721 Z" id="2016" fill="#666666"></path>
            <path d="M111.409462,395.235 L111.409462,394.808538 L112.072157,394.132788 C112.603679,393.586761 113.083393,393.083475 113.511308,392.622923 C114.110388,391.978151 114.61046,391.389233 115.011538,390.856154 C115.412617,390.323074 115.712153,389.830618 115.910154,389.378769 C116.108155,388.926921 116.207154,388.487771 116.207154,388.061308 C116.207154,387.452074 116.037079,386.93931 115.696923,386.523 C115.356768,386.10669 114.821158,385.898538 114.090077,385.898538 C113.643305,385.898538 113.227002,386.020383 112.841154,386.264077 C112.455306,386.50777 112.115155,386.812383 111.820692,387.177923 L111.379,386.751462 C111.74454,386.345306 112.148152,386.005155 112.589846,385.731 C113.031541,385.456845 113.55192,385.319769 114.151,385.319769 C115.024235,385.319769 115.699459,385.568536 116.176692,386.066077 C116.653925,386.563618 116.892538,387.223611 116.892538,388.046077 C116.892538,388.533464 116.785924,389.018305 116.572692,389.500615 C116.35946,389.982925 116.059925,390.490613 115.674077,391.023692 C115.288229,391.556772 114.818618,392.125382 114.265231,392.729538 L113.573144,393.480111 C113.21309,393.86819 112.832017,394.275459 112.429923,394.701923 C112.693924,394.681615 112.965537,394.663846 113.244769,394.648615 C113.524001,394.633385 113.795614,394.625769 114.059615,394.625769 L117.379923,394.625769 L117.379923,395.235 L111.409462,395.235 Z M121.720692,395.417769 C120.786534,395.417769 120.068156,394.97862 119.565538,394.100308 C119.062921,393.221996 118.811615,391.96547 118.811615,390.330692 C118.811615,388.706069 119.062921,387.464774 119.565538,386.606769 C120.068156,385.748765 120.786534,385.319769 121.720692,385.319769 C122.654851,385.319769 123.373228,385.748765 123.875846,386.606769 C124.378464,387.464774 124.629769,388.706069 124.629769,390.330692 C124.629769,391.96547 124.378464,393.221996 123.875846,394.100308 C123.373228,394.97862 122.654851,395.417769 121.720692,395.417769 Z M121.720692,394.839 C122.401003,394.839 122.94169,394.460773 123.342769,393.704308 C123.743848,392.947842 123.944385,391.823315 123.944385,390.330692 C123.944385,388.838069 123.743848,387.726234 123.342769,386.995154 C122.94169,386.264073 122.401003,385.898538 121.720692,385.898538 C121.050535,385.898538 120.512387,386.264073 120.106231,386.995154 C119.700075,387.726234 119.497,388.838069 119.497,390.330692 C119.497,391.823315 119.700075,392.947842 120.106231,393.704308 C120.512387,394.460773 121.050535,394.839 121.720692,394.839 Z M126.655462,394.641 L128.940077,394.641 L128.940077,386.568692 L127.203769,386.568692 L127.203769,386.111769 C127.599771,386.040692 127.952614,385.954385 128.262308,385.852846 C128.572002,385.751307 128.843614,385.634539 129.077154,385.502538 L129.625462,385.502538 L129.625462,394.641 L131.742538,394.641 L131.742538,395.235 L126.655462,395.235 L126.655462,394.641 Z M133.448385,393.635769 C133.590539,393.788078 133.747922,393.935307 133.920538,394.077462 C134.093155,394.219616 134.286076,394.346538 134.499308,394.458231 C134.71254,394.569924 134.951153,394.658769 135.215154,394.724769 C135.479155,394.79077 135.778691,394.823769 136.113769,394.823769 C136.438694,394.823769 136.748383,394.760308 137.042846,394.633385 C137.337309,394.506461 137.593691,394.32877 137.812,394.100308 C138.030309,393.871845 138.205461,393.597694 138.337462,393.277846 C138.469462,392.957998 138.535462,392.600079 138.535462,392.204077 C138.535462,391.412073 138.322233,390.795233 137.895769,390.353538 C137.469306,389.911844 136.890542,389.691 136.159462,389.691 C135.783767,389.691 135.461386,389.749384 135.192308,389.866154 C134.923229,389.982924 134.641463,390.142845 134.347,390.345923 L133.874846,390.056538 L134.225154,385.502538 L138.718231,385.502538 L138.718231,386.096538 L134.834385,386.096538 L134.529769,389.614846 C134.783617,389.462538 135.047614,389.338154 135.321769,389.241692 C135.595924,389.14523 135.910691,389.097 136.266077,389.097 C136.672233,389.097 137.058075,389.157922 137.423615,389.279769 C137.789156,389.401616 138.103922,389.586922 138.367923,389.835692 C138.631924,390.084463 138.842615,390.404306 139,390.795231 C139.157385,391.186156 139.236077,391.645613 139.236077,392.173615 C139.236077,392.691464 139.147232,393.150921 138.969538,393.552 C138.791845,393.953079 138.558309,394.293229 138.268923,394.572462 C137.979537,394.851694 137.64954,395.062384 137.278923,395.204538 C136.908306,395.346693 136.525002,395.417769 136.129,395.417769 C135.743152,395.417769 135.395386,395.379693 135.085692,395.303538 C134.775998,395.227384 134.49677,395.125847 134.248,394.998923 C133.99923,394.871999 133.778386,394.729847 133.585462,394.572462 C133.392537,394.415076 133.219924,394.260232 133.067615,394.107923 L133.448385,393.635769 Z" id="2015" fill="#666666"></path>
            <path d="M49.285,6.735 L48.785,368.235" id="Line-35" stroke="#7D7D7D" stroke-width="1.5" stroke-linecap="round"></path>
            <path d="M49.285,368.235 L608.285,368.235" id="Line-36" stroke="#7D7D7D" stroke-width="1.5" stroke-linecap="round"></path>
            <path d="M525.910385,400.235 L525.910385,398.250769 L526.864557,397.321585 C527.795591,396.410912 528.657208,395.555773 529.449423,394.756154 C530.50571,393.689995 531.404035,392.702825 532.144423,391.794615 C532.884811,390.886406 533.452434,390.03744 533.847308,389.247692 C534.242181,388.457945 534.439615,387.707696 534.439615,386.996923 C534.439615,385.989995 534.17308,385.195323 533.64,384.612885 C533.10692,384.030446 532.336928,383.739231 531.33,383.739231 C530.599484,383.739231 529.933144,383.946536 529.330962,384.361154 C528.728779,384.775771 528.171028,385.269356 527.657692,385.841923 L525.762308,383.946538 C526.63103,383.018585 527.524418,382.302887 528.4425,381.799423 C529.360582,381.295959 530.471147,381.044231 531.774231,381.044231 C532.68244,381.044231 533.501791,381.182435 534.232308,381.458846 C534.962824,381.735258 535.584741,382.12519 536.098077,382.628654 C536.611413,383.132118 537.011217,383.739227 537.2975,384.45 C537.583783,385.160773 537.726923,385.950508 537.726923,386.819231 C537.726923,387.648466 537.544297,388.492496 537.179038,389.351346 C536.81378,390.210197 536.320195,391.078906 535.698269,391.9575 C535.076343,392.836094 534.350773,393.739354 533.521538,394.667308 C532.692304,395.595261 531.813723,396.552816 530.885769,397.54 L532.485,397.406731 L532.485,397.406731 C533.057567,397.357372 533.570895,397.332692 534.025,397.332692 L538.645,397.332692 L538.645,400.235 L525.910385,400.235 Z M547.559231,400.590385 C545.584862,400.590385 544.025134,399.746355 542.88,398.058269 C541.734866,396.370184 541.162308,393.926939 541.162308,390.728462 C541.162308,387.529984 541.734866,385.116354 542.88,383.4875 C544.025134,381.858646 545.584862,381.044231 547.559231,381.044231 C549.5336,381.044231 551.093328,381.863582 552.238462,383.502308 C553.383595,385.141034 553.956154,387.549728 553.956154,390.728462 C553.956154,393.926939 553.383595,396.370184 552.238462,398.058269 C551.093328,399.746355 549.5336,400.590385 547.559231,400.590385 Z M547.559231,397.925 C548.013336,397.925 548.432883,397.801604 548.817885,397.554808 C549.202887,397.308012 549.533588,396.898336 549.81,396.325769 C550.086412,395.753202 550.303589,395.012825 550.461538,394.104615 C550.619488,393.196406 550.698462,392.071032 550.698462,390.728462 C550.698462,389.405634 550.619488,388.295069 550.461538,387.396731 C550.303589,386.498393 550.086412,385.772823 549.81,385.22 C549.533588,384.667177 549.202887,384.277245 548.817885,384.050192 C548.432883,383.82314 548.013336,383.709615 547.559231,383.709615 C547.105126,383.709615 546.685579,383.82314 546.300577,384.050192 C545.915575,384.277245 545.584873,384.667177 545.308462,385.22 C545.03205,385.772823 544.814873,386.498393 544.656923,387.396731 C544.498974,388.295069 544.42,389.405634 544.42,390.728462 C544.42,392.071032 544.498974,393.196406 544.656923,394.104615 C544.814873,395.012825 545.03205,395.753202 545.308462,396.325769 C545.584873,396.898336 545.915575,397.308012 546.300577,397.554808 C546.685579,397.801604 547.105126,397.925 547.559231,397.925 Z M557.361923,397.451154 L561.567308,397.451154 L561.567308,385.071923 L558.102308,385.071923 L558.102308,382.939615 C559.050005,382.761922 559.86442,382.549681 560.545577,382.302885 C561.226734,382.056089 561.863459,381.755002 562.455769,381.399615 L565.002692,381.399615 L565.002692,397.451154 L568.704615,397.451154 L568.704615,400.235 L557.361923,400.235 L557.361923,397.451154 Z M577.589231,390.580385 C578.12231,390.580385 578.689933,390.412566 579.292115,390.076923 C579.894298,389.74128 580.452049,389.178594 580.965385,388.388846 C580.787691,386.730376 580.378016,385.526029 579.736346,384.775769 C579.094676,384.025509 578.319748,383.650385 577.411538,383.650385 C576.641535,383.650385 575.980131,383.956407 575.427308,384.568462 C574.874484,385.180516 574.598077,386.059097 574.598077,387.204231 C574.598077,388.329621 574.859677,389.173651 575.382885,389.736346 C575.906092,390.299041 576.641534,390.580385 577.589231,390.580385 Z M573.591154,396.385 C573.94654,396.799617 574.395702,397.140191 574.938654,397.406731 C575.481605,397.673271 576.039356,397.806538 576.611923,397.806538 C577.204234,397.806538 577.761985,397.688078 578.285192,397.451154 C578.8084,397.21423 579.267434,396.824298 579.662308,396.281346 C580.057181,395.738395 580.378012,395.022697 580.624808,394.134231 C580.871604,393.245765 581.014743,392.150007 581.054231,390.846923 C580.501407,391.537952 579.849876,392.07596 579.099615,392.460962 C578.349355,392.845963 577.628721,393.038462 576.937692,393.038462 C576.128201,393.038462 575.387824,392.920001 574.716538,392.683077 C574.045253,392.446153 573.467759,392.085836 572.984038,391.602115 C572.500318,391.118395 572.125194,390.511286 571.858654,389.780769 C571.592114,389.050253 571.458846,388.191415 571.458846,387.204231 C571.458846,386.256534 571.616793,385.402632 571.932692,384.6425 C572.248591,383.882368 572.673074,383.235772 573.206154,382.702692 C573.739233,382.169613 574.366086,381.759937 575.086731,381.473654 C575.807375,381.18737 576.572432,381.044231 577.381923,381.044231 C578.290133,381.044231 579.158842,381.226857 579.988077,381.592115 C580.817312,381.957374 581.542882,382.515124 582.164808,383.265385 C582.786734,384.015645 583.280319,384.968263 583.645577,386.123269 C584.010835,387.278275 584.193462,388.645505 584.193462,390.225 C584.193462,392.061163 583.991092,393.630763 583.586346,394.933846 C583.181601,396.23693 582.638657,397.308009 581.9575,398.147115 C581.276343,398.986222 580.486607,399.603203 579.588269,399.998077 C578.689931,400.392951 577.757056,400.590385 576.789615,400.590385 C575.664225,400.590385 574.686927,400.383079 573.857692,399.968462 C573.028457,399.553844 572.327567,399.050388 571.755,398.458077 L573.591154,396.385 Z" id="2019" fill="#666666"></path>
            <polygon id="Line-3" fill="#666666" opacity="0.10219029" points="49.285 247.735 49.285 248.735 608.285 248.735 608.285 247.735"></polygon>
            <polygon id="Line-3" fill="#666666" opacity="0.10219029" points="49.285 287.735 49.285 288.735 608.285 288.735 608.285 287.735"></polygon>
            <polygon id="Line-3" fill="#666666" opacity="0.10219029" points="49.285 327.735 49.285 328.735 608.285 328.735 608.285 327.735"></polygon>
            <path d="M24.405,360 L24.405,361.485 C24.8950024,361.515 25.2949984,361.629999 25.605,361.83 C25.9150015,362.030001 26.1999987,362.264999 26.46,362.535 L26.07,362.955 C25.9299993,362.814999 25.7925007,362.690001 25.6575,362.58 C25.5224993,362.469999 25.3800007,362.375 25.23,362.295 C25.0799992,362.215 24.9150009,362.155 24.735,362.115 C24.5549991,362.075 24.3500011,362.055 24.12,362.055 C23.5999974,362.055 23.1800016,362.217498 22.86,362.5425 C22.5399984,362.867502 22.38,363.279997 22.38,363.78 C22.38,364.220002 22.4874989,364.572499 22.7025,364.8375 C22.9175011,365.102501 23.1849984,365.332499 23.505,365.5275 C23.7450012,365.673751 24.0004683,365.811562 24.2714057,365.940937 L24.5475,366.0675 C24.9225019,366.232501 25.2699984,366.432499 25.59,366.6675 C25.9100016,366.902501 26.1774989,367.197498 26.3925,367.5525 C26.6075011,367.907502 26.715,368.369997 26.715,368.94 C26.715,369.660004 26.4975022,370.234998 26.0625,370.665 C25.6274978,371.095002 25.0750033,371.34 24.405,371.4 L24.405,372.885 L23.82,372.885 L23.82,371.4 C23.2999974,371.36 22.8250021,371.227501 22.395,371.0025 C21.9649978,370.777499 21.6050014,370.525001 21.315,370.245 L21.675,369.78 C21.9650014,370.040001 22.309998,370.279999 22.71,370.5 C23.110002,370.720001 23.5699974,370.83 24.09,370.83 C24.7200031,370.83 25.2024983,370.660002 25.5375,370.32 C25.8725017,369.979998 26.04,369.535003 26.04,368.985 C26.04,368.494998 25.9325011,368.097502 25.7175,367.7925 C25.5024989,367.487498 25.2350016,367.227501 24.915,367.0125 C24.6749988,366.851249 24.4195317,366.702656 24.1485943,366.566719 L23.8725,366.435 C23.4974981,366.264999 23.1500016,366.070001 22.83,365.85 C22.5099984,365.629999 22.2425011,365.362502 22.0275,365.0475 C21.8124989,364.732498 21.705,364.320003 21.705,363.81 C21.705,363.5 21.7574995,363.210001 21.8625,362.94 C21.9675005,362.669999 22.1124991,362.432501 22.2975,362.2275 C22.4825009,362.022499 22.7049987,361.855001 22.965,361.725 C23.2250013,361.594999 23.5099984,361.515 23.82,361.485 L23.82,360 L24.405,360 Z M34.185,361.47 C35.1050046,361.47 35.8124975,361.892496 36.3075,362.7375 C36.8025025,363.582504 37.05,364.804992 37.05,366.405 C37.05,368.015008 36.8025025,369.252496 36.3075,370.1175 C35.8124975,370.982504 35.1050046,371.415 34.185,371.415 C33.2649954,371.415 32.5575025,370.982504 32.0625,370.1175 C31.5674975,369.252496 31.32,368.015008 31.32,366.405 C31.32,364.804992 31.5674975,363.582504 32.0625,362.7375 C32.5575025,361.892496 33.2649954,361.47 34.185,361.47 Z M34.185,362.04 C33.5249967,362.04 32.995,362.399996 32.595,363.12 C32.194998,363.840004 31.995,364.934993 31.995,366.405 C31.995,367.875007 32.194998,368.982496 32.595,369.7275 C32.995,370.472504 33.5249967,370.845 34.185,370.845 C34.8550034,370.845 35.387498,370.472504 35.7825,369.7275 C36.177502,368.982496 36.375,367.875007 36.375,366.405 C36.375,364.934993 36.177502,363.840004 35.7825,363.12 C35.387498,362.399996 34.8550034,362.04 34.185,362.04 Z M3.09,320 L3.09,321.485 C3.58000245,321.515 3.97999845,321.629999 4.29,321.83 C4.60000155,322.030001 4.8849987,322.264999 5.145,322.535 L4.755,322.955 C4.6149993,322.814999 4.47750067,322.690001 4.3425,322.58 C4.20749932,322.469999 4.06500075,322.375 3.915,322.295 C3.76499925,322.215 3.6000009,322.155 3.42,322.115 C3.2399991,322.075 3.03500115,322.055 2.805,322.055 C2.2849974,322.055 1.8650016,322.217498 1.545,322.5425 C1.2249984,322.867502 1.065,323.279997 1.065,323.78 C1.065,324.220002 1.17249892,324.572499 1.3875,324.8375 C1.60250107,325.102501 1.8699984,325.332499 2.19,325.5275 C2.4300012,325.673751 2.6854683,325.811562 2.95640568,325.940937 L3.2325,326.0675 C3.60750187,326.232501 3.9549984,326.432499 4.275,326.6675 C4.5950016,326.902501 4.86249892,327.197498 5.0775,327.5525 C5.29250107,327.907502 5.4,328.369997 5.4,328.94 C5.4,329.660004 5.18250217,330.234998 4.7475,330.665 C4.31249782,331.095002 3.76000335,331.34 3.09,331.4 L3.09,332.885 L2.505,332.885 L2.505,331.4 C1.9849974,331.36 1.51000215,331.227501 1.08,331.0025 C0.64999785,330.777499 0.29000145,330.525001 -4.4408921e-15,330.245 L0.36,329.78 C0.65000145,330.040001 0.994998,330.279999 1.395,330.5 C1.795002,330.720001 2.2549974,330.83 2.775,330.83 C3.40500315,330.83 3.88749832,330.660002 4.2225,330.32 C4.55750167,329.979998 4.725,329.535003 4.725,328.985 C4.725,328.494998 4.61750107,328.097502 4.4025,327.7925 C4.18749892,327.487498 3.9200016,327.227501 3.6,327.0125 C3.3599988,326.851249 3.1045317,326.702656 2.83359432,326.566719 L2.5575,326.435 C2.18249812,326.264999 1.8350016,326.070001 1.515,325.85 C1.1949984,325.629999 0.927501075,325.362502 0.7125,325.0475 C0.497498925,324.732498 0.39,324.320003 0.39,323.81 C0.39,323.5 0.442499475,323.210001 0.5475,322.94 C0.652500525,322.669999 0.797499075,322.432501 0.9825,322.2275 C1.16750092,322.022499 1.3899987,321.855001 1.65,321.725 C1.9100013,321.594999 2.19499845,321.515 2.505,321.485 L2.505,320 L3.09,320 Z M25.71,321.65 L25.71,322.235 L21.885,322.235 L21.585,325.7 C21.8350012,325.549999 22.0949986,325.4275 22.365,325.3325 C22.6350013,325.2375 22.9449982,325.19 23.295,325.19 C23.695002,325.19 24.0749982,325.249999 24.435,325.37 C24.7950018,325.490001 25.1049987,325.672499 25.365,325.9175 C25.6250013,326.162501 25.8324992,326.477498 25.9875,326.8625 C26.1425008,327.247502 26.22,327.699997 26.22,328.22 C26.22,328.730003 26.1325009,329.182498 25.9575,329.5775 C25.7824991,329.972502 25.5525014,330.307499 25.2675,330.5825 C24.9824986,330.857501 24.6575018,331.064999 24.2925,331.205 C23.9274982,331.345001 23.5500019,331.415 23.16,331.415 C22.7799981,331.415 22.4375015,331.3775 22.1325,331.3025 C21.8274985,331.2275 21.5525012,331.127501 21.3075,331.0025 C21.0624988,330.877499 20.8450009,330.737501 20.655,330.5825 C20.464999,330.427499 20.2950007,330.275001 20.145,330.125 L20.52,329.66 C20.6600007,329.810001 20.8149991,329.954999 20.985,330.095 C21.1550008,330.235001 21.3449989,330.359999 21.555,330.47 C21.765001,330.580001 21.9999987,330.6675 22.26,330.7325 C22.5200013,330.7975 22.8149983,330.83 23.145,330.83 C23.4650016,330.83 23.7699985,330.767501 24.06,330.6425 C24.3500014,330.517499 24.6024989,330.342501 24.8175,330.1175 C25.0325011,329.892499 25.2049993,329.622502 25.335,329.3075 C25.4650006,328.992498 25.53,328.640002 25.53,328.25 C25.53,327.469996 25.3200021,326.862502 24.9,326.4275 C24.4799979,325.992498 23.9100036,325.775 23.19,325.775 C22.8199981,325.775 22.5025013,325.832499 22.2375,325.9475 C21.9724987,326.062501 21.6950014,326.219999 21.405,326.42 L20.94,326.135 L21.285,321.65 L25.71,321.65 Z M18.12,330.05 C18.2900008,330.05 18.4374994,330.109999 18.5625,330.23 C18.6875006,330.350001 18.75,330.519999 18.75,330.74 C18.75,330.950001 18.6875006,331.114999 18.5625,331.235 C18.4374994,331.355001 18.2900008,331.415 18.12,331.415 C17.9499991,331.415 17.8000006,331.355001 17.67,331.235 C17.5399993,331.114999 17.475,330.950001 17.475,330.74 C17.475,330.519999 17.5399993,330.350001 17.67,330.23 C17.8000006,330.109999 17.9499991,330.05 18.12,330.05 Z M12.87,321.47 C13.7900046,321.47 14.4974975,321.892496 14.9925,322.7375 C15.4875025,323.582504 15.735,324.804992 15.735,326.405 C15.735,328.015008 15.4875025,329.252496 14.9925,330.1175 C14.4974975,330.982504 13.7900046,331.415 12.87,331.415 C11.9499954,331.415 11.2425025,330.982504 10.7475,330.1175 C10.2524975,329.252496 10.005,328.015008 10.005,326.405 C10.005,324.804992 10.2524975,323.582504 10.7475,322.7375 C11.2425025,321.892496 11.9499954,321.47 12.87,321.47 Z M37.35,321.35 L37.35,321.95 L34.2,321.95 L34.2,331.235 L33.51,331.235 L33.51,321.95 L30.36,321.95 L30.36,321.35 L37.35,321.35 Z M12.87,322.04 C12.2099967,322.04 11.68,322.399996 11.28,323.12 C10.879998,323.840004 10.68,324.934993 10.68,326.405 C10.68,327.875007 10.879998,328.982496 11.28,329.7275 C11.68,330.472504 12.2099967,330.845 12.87,330.845 C13.5400033,330.845 14.072498,330.472504 14.4675,329.7275 C14.862502,328.982496 15.06,327.875007 15.06,326.405 C15.06,324.934993 14.862502,323.840004 14.4675,323.12 C14.072498,322.399996 13.5400033,322.04 12.87,322.04 Z M3.09,280 L3.09,281.485 C3.58000245,281.515 3.97999845,281.629999 4.29,281.83 C4.60000155,282.030001 4.8849987,282.264999 5.145,282.535 L4.755,282.955 C4.6149993,282.814999 4.47750067,282.690001 4.3425,282.58 C4.20749932,282.469999 4.06500075,282.375 3.915,282.295 C3.76499925,282.215 3.6000009,282.155 3.42,282.115 C3.2399991,282.075 3.03500115,282.055 2.805,282.055 C2.2849974,282.055 1.8650016,282.217498 1.545,282.5425 C1.2249984,282.867502 1.065,283.279997 1.065,283.78 C1.065,284.220002 1.17249892,284.572499 1.3875,284.8375 C1.60250107,285.102501 1.8699984,285.332499 2.19,285.5275 C2.4300012,285.673751 2.6854683,285.811562 2.95640568,285.940937 L3.2325,286.0675 C3.60750187,286.232501 3.9549984,286.432499 4.275,286.6675 C4.5950016,286.902501 4.86249892,287.197498 5.0775,287.5525 C5.29250107,287.907502 5.4,288.369997 5.4,288.94 C5.4,289.660004 5.18250217,290.234998 4.7475,290.665 C4.31249782,291.095002 3.76000335,291.34 3.09,291.4 L3.09,292.885 L2.505,292.885 L2.505,291.4 C1.9849974,291.36 1.51000215,291.227501 1.08,291.0025 C0.64999785,290.777499 0.29000145,290.525001 -4.4408921e-15,290.245 L0.36,289.78 C0.65000145,290.040001 0.994998,290.279999 1.395,290.5 C1.795002,290.720001 2.2549974,290.83 2.775,290.83 C3.40500315,290.83 3.88749832,290.660002 4.2225,290.32 C4.55750167,289.979998 4.725,289.535003 4.725,288.985 C4.725,288.494998 4.61750107,288.097502 4.4025,287.7925 C4.18749892,287.487498 3.9200016,287.227501 3.6,287.0125 C3.3599988,286.851249 3.1045317,286.702656 2.83359432,286.566719 L2.5575,286.435 C2.18249812,286.264999 1.8350016,286.070001 1.515,285.85 C1.1949984,285.629999 0.927501075,285.362502 0.7125,285.0475 C0.497498925,284.732498 0.39,284.320003 0.39,283.81 C0.39,283.5 0.442499475,283.210001 0.5475,282.94 C0.652500525,282.669999 0.797499075,282.432501 0.9825,282.2275 C1.16750092,282.022499 1.3899987,281.855001 1.65,281.725 C1.9100013,281.594999 2.19499845,281.515 2.505,281.485 L2.505,280 L3.09,280 Z M18.12,290.05 C18.2900008,290.05 18.4374994,290.109999 18.5625,290.23 C18.6875006,290.350001 18.75,290.519999 18.75,290.74 C18.75,290.950001 18.6875006,291.114999 18.5625,291.235 C18.4374994,291.355001 18.2900008,291.415 18.12,291.415 C17.9499991,291.415 17.8000006,291.355001 17.67,291.235 C17.5399993,291.114999 17.475,290.950001 17.475,290.74 C17.475,290.519999 17.5399993,290.350001 17.67,290.23 C17.8000006,290.109999 17.9499991,290.05 18.12,290.05 Z M23.34,281.47 C24.2600046,281.47 24.9674975,281.892496 25.4625,282.7375 C25.9575025,283.582504 26.205,284.804992 26.205,286.405 C26.205,288.015008 25.9575025,289.252496 25.4625,290.1175 C24.9674975,290.982504 24.2600046,291.415 23.34,291.415 C22.4199954,291.415 21.7125025,290.982504 21.2175,290.1175 C20.7224975,289.252496 20.475,288.015008 20.475,286.405 C20.475,284.804992 20.7224975,283.582504 21.2175,282.7375 C21.7125025,281.892496 22.4199954,281.47 23.34,281.47 Z M37.35,281.35 L37.35,281.95 L34.2,281.95 L34.2,291.235 L33.51,291.235 L33.51,281.95 L30.36,281.95 L30.36,281.35 L37.35,281.35 Z M13.47,281.65 L13.47,290.65 L15.555,290.65 L15.555,291.235 L10.545,291.235 L10.545,290.65 L12.795,290.65 L12.795,282.7 L11.085,282.7 L11.085,282.25 C11.4750019,282.18 11.8224985,282.095 12.1275,281.995 C12.4325015,281.894999 12.6999988,281.780001 12.93,281.65 L13.47,281.65 Z M23.34,282.04 C22.6799967,282.04 22.15,282.399996 21.75,283.12 C21.349998,283.840004 21.15,284.934993 21.15,286.405 C21.15,287.875007 21.349998,288.982496 21.75,289.7275 C22.15,290.472504 22.6799967,290.845 23.34,290.845 C24.0100033,290.845 24.542498,290.472504 24.9375,289.7275 C25.332502,288.982496 25.53,287.875007 25.53,286.405 C25.53,284.934993 25.332502,283.840004 24.9375,283.12 C24.542498,282.399996 24.0100033,282.04 23.34,282.04 Z M3.09,240 L3.09,241.485 C3.58000245,241.515 3.97999845,241.629999 4.29,241.83 C4.60000155,242.030001 4.8849987,242.264999 5.145,242.535 L4.755,242.955 C4.6149993,242.814999 4.47750067,242.690001 4.3425,242.58 C4.20749932,242.469999 4.06500075,242.375 3.915,242.295 C3.76499925,242.215 3.6000009,242.155 3.42,242.115 C3.2399991,242.075 3.03500115,242.055 2.805,242.055 C2.2849974,242.055 1.8650016,242.217498 1.545,242.5425 C1.2249984,242.867502 1.065,243.279997 1.065,243.78 C1.065,244.220002 1.17249892,244.572499 1.3875,244.8375 C1.60250107,245.102501 1.8699984,245.332499 2.19,245.5275 C2.4300012,245.673751 2.6854683,245.811562 2.95640568,245.940937 L3.2325,246.0675 C3.60750187,246.232501 3.9549984,246.432499 4.275,246.6675 C4.5950016,246.902501 4.86249892,247.197498 5.0775,247.5525 C5.29250107,247.907502 5.4,248.369997 5.4,248.94 C5.4,249.660004 5.18250217,250.234998 4.7475,250.665 C4.31249782,251.095002 3.76000335,251.34 3.09,251.4 L3.09,252.885 L2.505,252.885 L2.505,251.4 C1.9849974,251.36 1.51000215,251.227501 1.08,251.0025 C0.64999785,250.777499 0.29000145,250.525001 -4.4408921e-15,250.245 L0.36,249.78 C0.65000145,250.040001 0.994998,250.279999 1.395,250.5 C1.795002,250.720001 2.2549974,250.83 2.775,250.83 C3.40500315,250.83 3.88749832,250.660002 4.2225,250.32 C4.55750167,249.979998 4.725,249.535003 4.725,248.985 C4.725,248.494998 4.61750107,248.097502 4.4025,247.7925 C4.18749892,247.487498 3.9200016,247.227501 3.6,247.0125 C3.3599988,246.851249 3.1045317,246.702656 2.83359432,246.566719 L2.5575,246.435 C2.18249812,246.264999 1.8350016,246.070001 1.515,245.85 C1.1949984,245.629999 0.927501075,245.362502 0.7125,245.0475 C0.497498925,244.732498 0.39,244.320003 0.39,243.81 C0.39,243.5 0.442499475,243.210001 0.5475,242.94 C0.652500525,242.669999 0.797499075,242.432501 0.9825,242.2275 C1.16750092,242.022499 1.3899987,241.855001 1.65,241.725 C1.9100013,241.594999 2.19499845,241.515 2.505,241.485 L2.505,240 L3.09,240 Z M25.71,241.65 L25.71,242.235 L21.885,242.235 L21.585,245.7 C21.8350012,245.549999 22.0949986,245.4275 22.365,245.3325 C22.6350013,245.2375 22.9449982,245.19 23.295,245.19 C23.695002,245.19 24.0749982,245.249999 24.435,245.37 C24.7950018,245.490001 25.1049987,245.672499 25.365,245.9175 C25.6250013,246.162501 25.8324992,246.477498 25.9875,246.8625 C26.1425008,247.247502 26.22,247.699997 26.22,248.22 C26.22,248.730003 26.1325009,249.182498 25.9575,249.5775 C25.7824991,249.972502 25.5525014,250.307499 25.2675,250.5825 C24.9824986,250.857501 24.6575018,251.064999 24.2925,251.205 C23.9274982,251.345001 23.5500019,251.415 23.16,251.415 C22.7799981,251.415 22.4375015,251.3775 22.1325,251.3025 C21.8274985,251.2275 21.5525012,251.127501 21.3075,251.0025 C21.0624988,250.877499 20.8450009,250.737501 20.655,250.5825 C20.464999,250.427499 20.2950007,250.275001 20.145,250.125 L20.52,249.66 C20.6600007,249.810001 20.8149991,249.954999 20.985,250.095 C21.1550008,250.235001 21.3449989,250.359999 21.555,250.47 C21.765001,250.580001 21.9999987,250.6675 22.26,250.7325 C22.5200013,250.7975 22.8149983,250.83 23.145,250.83 C23.4650016,250.83 23.7699985,250.767501 24.06,250.6425 C24.3500014,250.517499 24.6024989,250.342501 24.8175,250.1175 C25.0325011,249.892499 25.2049993,249.622502 25.335,249.3075 C25.4650006,248.992498 25.53,248.640002 25.53,248.25 C25.53,247.469996 25.3200021,246.862502 24.9,246.4275 C24.4799979,245.992498 23.9100036,245.775 23.19,245.775 C22.8199981,245.775 22.5025013,245.832499 22.2375,245.9475 C21.9724987,246.062501 21.6950014,246.219999 21.405,246.42 L20.94,246.135 L21.285,241.65 L25.71,241.65 Z M18.12,250.05 C18.2900008,250.05 18.4374994,250.109999 18.5625,250.23 C18.6875006,250.350001 18.75,250.519999 18.75,250.74 C18.75,250.950001 18.6875006,251.114999 18.5625,251.235 C18.4374994,251.355001 18.2900008,251.415 18.12,251.415 C17.9499991,251.415 17.8000006,251.355001 17.67,251.235 C17.5399993,251.114999 17.475,250.950001 17.475,250.74 C17.475,250.519999 17.5399993,250.350001 17.67,250.23 C17.8000006,250.109999 17.9499991,250.05 18.12,250.05 Z M37.35,241.35 L37.35,241.95 L34.2,241.95 L34.2,251.235 L33.51,251.235 L33.51,241.95 L30.36,241.95 L30.36,241.35 L37.35,241.35 Z M13.47,241.65 L13.47,250.65 L15.555,250.65 L15.555,251.235 L10.545,251.235 L10.545,250.65 L12.795,250.65 L12.795,242.7 L11.085,242.7 L11.085,242.25 C11.4750019,242.18 11.8224985,242.095 12.1275,241.995 C12.4325015,241.894999 12.6999988,241.780001 12.93,241.65 L13.47,241.65 Z M3.09,200 L3.09,201.485 C3.58000245,201.515 3.97999845,201.629999 4.29,201.83 C4.60000155,202.030001 4.8849987,202.264999 5.145,202.535 L4.755,202.955 C4.6149993,202.814999 4.47750067,202.690001 4.3425,202.58 C4.20749932,202.469999 4.06500075,202.375 3.915,202.295 C3.76499925,202.215 3.6000009,202.155 3.42,202.115 C3.2399991,202.075 3.03500115,202.055 2.805,202.055 C2.2849974,202.055 1.8650016,202.217498 1.545,202.5425 C1.2249984,202.867502 1.065,203.279997 1.065,203.78 C1.065,204.220002 1.17249892,204.572499 1.3875,204.8375 C1.60250107,205.102501 1.8699984,205.332499 2.19,205.5275 C2.4300012,205.673751 2.6854683,205.811562 2.95640568,205.940937 L3.2325,206.0675 C3.60750187,206.232501 3.9549984,206.432499 4.275,206.6675 C4.5950016,206.902501 4.86249892,207.197498 5.0775,207.5525 C5.29250107,207.907502 5.4,208.369997 5.4,208.94 C5.4,209.660004 5.18250217,210.234998 4.7475,210.665 C4.31249782,211.095002 3.76000335,211.34 3.09,211.4 L3.09,212.885 L2.505,212.885 L2.505,211.4 C1.9849974,211.36 1.51000215,211.227501 1.08,211.0025 C0.64999785,210.777499 0.29000145,210.525001 -4.4408921e-15,210.245 L0.36,209.78 C0.65000145,210.040001 0.994998,210.279999 1.395,210.5 C1.795002,210.720001 2.2549974,210.83 2.775,210.83 C3.40500315,210.83 3.88749832,210.660002 4.2225,210.32 C4.55750167,209.979998 4.725,209.535003 4.725,208.985 C4.725,208.494998 4.61750107,208.097502 4.4025,207.7925 C4.18749892,207.487498 3.9200016,207.227501 3.6,207.0125 C3.3599988,206.851249 3.1045317,206.702656 2.83359432,206.566719 L2.5575,206.435 C2.18249812,206.264999 1.8350016,206.070001 1.515,205.85 C1.1949984,205.629999 0.927501075,205.362502 0.7125,205.0475 C0.497498925,204.732498 0.39,204.320003 0.39,203.81 C0.39,203.5 0.442499475,203.210001 0.5475,202.94 C0.652500525,202.669999 0.797499075,202.432501 0.9825,202.2275 C1.16750092,202.022499 1.3899987,201.855001 1.65,201.725 C1.9100013,201.594999 2.19499845,201.515 2.505,201.485 L2.505,200 L3.09,200 Z M18.12,210.05 C18.2900008,210.05 18.4374994,210.109999 18.5625,210.23 C18.6875006,210.350001 18.75,210.519999 18.75,210.74 C18.75,210.950001 18.6875006,211.114999 18.5625,211.235 C18.4374994,211.355001 18.2900008,211.415 18.12,211.415 C17.9499991,211.415 17.8000006,211.355001 17.67,211.235 C17.5399993,211.114999 17.475,210.950001 17.475,210.74 C17.475,210.519999 17.5399993,210.350001 17.67,210.23 C17.8000006,210.109999 17.9499991,210.05 18.12,210.05 Z M23.34,201.47 C24.2600046,201.47 24.9674975,201.892496 25.4625,202.7375 C25.9575025,203.582504 26.205,204.804992 26.205,206.405 C26.205,208.015008 25.9575025,209.252496 25.4625,210.1175 C24.9674975,210.982504 24.2600046,211.415 23.34,211.415 C22.4199954,211.415 21.7125025,210.982504 21.2175,210.1175 C20.7224975,209.252496 20.475,208.015008 20.475,206.405 C20.475,204.804992 20.7224975,203.582504 21.2175,202.7375 C21.7125025,201.892496 22.4199954,201.47 23.34,201.47 Z M12.6,201.47 C13.4600043,201.47 14.1249976,201.714998 14.595,202.205 C15.0650023,202.695002 15.3,203.344996 15.3,204.155 C15.3,204.635002 15.195001,205.112498 14.985,205.5875 C14.7749989,206.062502 14.4800019,206.562497 14.1,207.0875 C13.7199981,207.612503 13.2575027,208.172497 12.7125,208.7675 L11.6694006,209.895199 C11.4238011,210.158399 11.1690013,210.429999 10.905,210.71 C11.1650013,210.69 11.4324986,210.6725 11.7075,210.6575 C11.9825014,210.6425 12.2499987,210.635 12.51,210.635 L15.78,210.635 L15.78,211.235 L9.9,211.235 L9.9,210.815 L10.5526543,210.149489 C11.0761233,209.611734 11.5485693,209.116074 11.97,208.6625 C12.5600029,208.027497 13.052498,207.447503 13.4475,206.9225 C13.842502,206.397497 14.137499,205.912502 14.3325,205.4675 C14.527501,205.022498 14.625,204.590002 14.625,204.17 C14.625,203.569997 14.4575017,203.065002 14.1225,202.655 C13.7874983,202.244998 13.2600036,202.04 12.54,202.04 C12.0999978,202.04 11.6900019,202.159999 11.31,202.4 C10.9299981,202.640001 10.5950014,202.939998 10.305,203.3 L9.87,202.88 C10.2300018,202.479998 10.6274978,202.145001 11.0625,201.875 C11.4975022,201.604999 12.009997,201.47 12.6,201.47 Z M37.35,201.35 L37.35,201.95 L34.2,201.95 L34.2,211.235 L33.51,211.235 L33.51,201.95 L30.36,201.95 L30.36,201.35 L37.35,201.35 Z M23.34,202.04 C22.6799967,202.04 22.15,202.399996 21.75,203.12 C21.349998,203.840004 21.15,204.934993 21.15,206.405 C21.15,207.875007 21.349998,208.982496 21.75,209.7275 C22.15,210.472504 22.6799967,210.845 23.34,210.845 C24.0100033,210.845 24.542498,210.472504 24.9375,209.7275 C25.332502,208.982496 25.53,207.875007 25.53,206.405 C25.53,204.934993 25.332502,203.840004 24.9375,203.12 C24.542498,202.399996 24.0100033,202.04 23.34,202.04 Z M3.09,160 L3.09,161.485 C3.58000245,161.515 3.97999845,161.629999 4.29,161.83 C4.60000155,162.030001 4.8849987,162.264999 5.145,162.535 L4.755,162.955 C4.6149993,162.814999 4.47750067,162.690001 4.3425,162.58 C4.20749932,162.469999 4.06500075,162.375 3.915,162.295 C3.76499925,162.215 3.6000009,162.155 3.42,162.115 C3.2399991,162.075 3.03500115,162.055 2.805,162.055 C2.2849974,162.055 1.8650016,162.217498 1.545,162.5425 C1.2249984,162.867502 1.065,163.279997 1.065,163.78 C1.065,164.220002 1.17249892,164.572499 1.3875,164.8375 C1.60250107,165.102501 1.8699984,165.332499 2.19,165.5275 C2.4300012,165.673751 2.6854683,165.811562 2.95640568,165.940937 L3.2325,166.0675 C3.60750187,166.232501 3.9549984,166.432499 4.275,166.6675 C4.5950016,166.902501 4.86249892,167.197498 5.0775,167.5525 C5.29250107,167.907502 5.4,168.369997 5.4,168.94 C5.4,169.660004 5.18250217,170.234998 4.7475,170.665 C4.31249782,171.095002 3.76000335,171.34 3.09,171.4 L3.09,172.885 L2.505,172.885 L2.505,171.4 C1.9849974,171.36 1.51000215,171.227501 1.08,171.0025 C0.64999785,170.777499 0.29000145,170.525001 -4.4408921e-15,170.245 L0.36,169.78 C0.65000145,170.040001 0.994998,170.279999 1.395,170.5 C1.795002,170.720001 2.2549974,170.83 2.775,170.83 C3.40500315,170.83 3.88749832,170.660002 4.2225,170.32 C4.55750167,169.979998 4.725,169.535003 4.725,168.985 C4.725,168.494998 4.61750107,168.097502 4.4025,167.7925 C4.18749892,167.487498 3.9200016,167.227501 3.6,167.0125 C3.3599988,166.851249 3.1045317,166.702656 2.83359432,166.566719 L2.5575,166.435 C2.18249812,166.264999 1.8350016,166.070001 1.515,165.85 C1.1949984,165.629999 0.927501075,165.362502 0.7125,165.0475 C0.497498925,164.732498 0.39,164.320003 0.39,163.81 C0.39,163.5 0.442499475,163.210001 0.5475,162.94 C0.652500525,162.669999 0.797499075,162.432501 0.9825,162.2275 C1.16750092,162.022499 1.3899987,161.855001 1.65,161.725 C1.9100013,161.594999 2.19499845,161.515 2.505,161.485 L2.505,160 L3.09,160 Z M25.71,161.65 L25.71,162.235 L21.885,162.235 L21.585,165.7 C21.8350012,165.549999 22.0949986,165.4275 22.365,165.3325 C22.6350013,165.2375 22.9449982,165.19 23.295,165.19 C23.695002,165.19 24.0749982,165.249999 24.435,165.37 C24.7950018,165.490001 25.1049987,165.672499 25.365,165.9175 C25.6250013,166.162501 25.8324992,166.477498 25.9875,166.8625 C26.1425008,167.247502 26.22,167.699997 26.22,168.22 C26.22,168.730003 26.1325009,169.182498 25.9575,169.5775 C25.7824991,169.972502 25.5525014,170.307499 25.2675,170.5825 C24.9824986,170.857501 24.6575018,171.064999 24.2925,171.205 C23.9274982,171.345001 23.5500019,171.415 23.16,171.415 C22.7799981,171.415 22.4375015,171.3775 22.1325,171.3025 C21.8274985,171.2275 21.5525012,171.127501 21.3075,171.0025 C21.0624988,170.877499 20.8450009,170.737501 20.655,170.5825 C20.464999,170.427499 20.2950007,170.275001 20.145,170.125 L20.52,169.66 C20.6600007,169.810001 20.8149991,169.954999 20.985,170.095 C21.1550008,170.235001 21.3449989,170.359999 21.555,170.47 C21.765001,170.580001 21.9999987,170.6675 22.26,170.7325 C22.5200013,170.7975 22.8149983,170.83 23.145,170.83 C23.4650016,170.83 23.7699985,170.767501 24.06,170.6425 C24.3500014,170.517499 24.6024989,170.342501 24.8175,170.1175 C25.0325011,169.892499 25.2049993,169.622502 25.335,169.3075 C25.4650006,168.992498 25.53,168.640002 25.53,168.25 C25.53,167.469996 25.3200021,166.862502 24.9,166.4275 C24.4799979,165.992498 23.9100036,165.775 23.19,165.775 C22.8199981,165.775 22.5025013,165.832499 22.2375,165.9475 C21.9724987,166.062501 21.6950014,166.219999 21.405,166.42 L20.94,166.135 L21.285,161.65 L25.71,161.65 Z M18.12,170.05 C18.2900008,170.05 18.4374994,170.109999 18.5625,170.23 C18.6875006,170.350001 18.75,170.519999 18.75,170.74 C18.75,170.950001 18.6875006,171.114999 18.5625,171.235 C18.4374994,171.355001 18.2900008,171.415 18.12,171.415 C17.9499991,171.415 17.8000006,171.355001 17.67,171.235 C17.5399993,171.114999 17.475,170.950001 17.475,170.74 C17.475,170.519999 17.5399993,170.350001 17.67,170.23 C17.8000006,170.109999 17.9499991,170.05 18.12,170.05 Z M37.35,161.35 L37.35,161.95 L34.2,161.95 L34.2,171.235 L33.51,171.235 L33.51,161.95 L30.36,161.95 L30.36,161.35 L37.35,161.35 Z M12.6,161.47 C13.4600043,161.47 14.1249976,161.714998 14.595,162.205 C15.0650023,162.695002 15.3,163.344996 15.3,164.155 C15.3,164.635002 15.195001,165.112498 14.985,165.5875 C14.7749989,166.062502 14.4800019,166.562497 14.1,167.0875 C13.7199981,167.612503 13.2575027,168.172497 12.7125,168.7675 L11.6694006,169.895199 C11.4238011,170.158399 11.1690013,170.429999 10.905,170.71 C11.1650013,170.69 11.4324986,170.6725 11.7075,170.6575 C11.9825014,170.6425 12.2499987,170.635 12.51,170.635 L15.78,170.635 L15.78,171.235 L9.9,171.235 L9.9,170.815 L10.5526543,170.149489 C11.0761233,169.611734 11.5485693,169.116074 11.97,168.6625 C12.5600029,168.027497 13.052498,167.447503 13.4475,166.9225 C13.842502,166.397497 14.137499,165.912502 14.3325,165.4675 C14.527501,165.022498 14.625,164.590002 14.625,164.17 C14.625,163.569997 14.4575017,163.065002 14.1225,162.655 C13.7874983,162.244998 13.2600036,162.04 12.54,162.04 C12.0999978,162.04 11.6900019,162.159999 11.31,162.4 C10.9299981,162.640001 10.5950014,162.939998 10.305,163.3 L9.87,162.88 C10.2300018,162.479998 10.6274978,162.145001 11.0625,161.875 C11.4975022,161.604999 12.009997,161.47 12.6,161.47 Z M3.09,120 L3.09,121.485 C3.58000245,121.515 3.97999845,121.629999 4.29,121.83 C4.60000155,122.030001 4.8849987,122.264999 5.145,122.535 L4.755,122.955 C4.6149993,122.814999 4.47750067,122.690001 4.3425,122.58 C4.20749932,122.469999 4.06500075,122.375 3.915,122.295 C3.76499925,122.215 3.6000009,122.155 3.42,122.115 C3.2399991,122.075 3.03500115,122.055 2.805,122.055 C2.2849974,122.055 1.8650016,122.217498 1.545,122.5425 C1.2249984,122.867502 1.065,123.279997 1.065,123.78 C1.065,124.220002 1.17249892,124.572499 1.3875,124.8375 C1.60250107,125.102501 1.8699984,125.332499 2.19,125.5275 C2.4300012,125.673751 2.6854683,125.811562 2.95640568,125.940937 L3.2325,126.0675 C3.60750187,126.232501 3.9549984,126.432499 4.275,126.6675 C4.5950016,126.902501 4.86249892,127.197498 5.0775,127.5525 C5.29250107,127.907502 5.4,128.369997 5.4,128.94 C5.4,129.660004 5.18250217,130.234998 4.7475,130.665 C4.31249782,131.095002 3.76000335,131.34 3.09,131.4 L3.09,132.885 L2.505,132.885 L2.505,131.4 C1.9849974,131.36 1.51000215,131.227501 1.08,131.0025 C0.64999785,130.777499 0.29000145,130.525001 -4.4408921e-15,130.245 L0.36,129.78 C0.65000145,130.040001 0.994998,130.279999 1.395,130.5 C1.795002,130.720001 2.2549974,130.83 2.775,130.83 C3.40500315,130.83 3.88749832,130.660002 4.2225,130.32 C4.55750167,129.979998 4.725,129.535003 4.725,128.985 C4.725,128.494998 4.61750107,128.097502 4.4025,127.7925 C4.18749892,127.487498 3.9200016,127.227501 3.6,127.0125 C3.3599988,126.851249 3.1045317,126.702656 2.83359432,126.566719 L2.5575,126.435 C2.18249812,126.264999 1.8350016,126.070001 1.515,125.85 C1.1949984,125.629999 0.927501075,125.362502 0.7125,125.0475 C0.497498925,124.732498 0.39,124.320003 0.39,123.81 C0.39,123.5 0.442499475,123.210001 0.5475,122.94 C0.652500525,122.669999 0.797499075,122.432501 0.9825,122.2275 C1.16750092,122.022499 1.3899987,121.855001 1.65,121.725 C1.9100013,121.594999 2.19499845,121.515 2.505,121.485 L2.505,120 L3.09,120 Z M23.34,121.47 C24.2600046,121.47 24.9674975,121.892496 25.4625,122.7375 C25.9575025,123.582504 26.205,124.804992 26.205,126.405 C26.205,128.015008 25.9575025,129.252496 25.4625,130.1175 C24.9674975,130.982504 24.2600046,131.415 23.34,131.415 C22.4199954,131.415 21.7125025,130.982504 21.2175,130.1175 C20.7224975,129.252496 20.475,128.015008 20.475,126.405 C20.475,124.804992 20.7224975,123.582504 21.2175,122.7375 C21.7125025,121.892496 22.4199954,121.47 23.34,121.47 Z M18.12,130.05 C18.2900008,130.05 18.4374994,130.109999 18.5625,130.23 C18.6875006,130.350001 18.75,130.519999 18.75,130.74 C18.75,130.950001 18.6875006,131.114999 18.5625,131.235 C18.4374994,131.355001 18.2900008,131.415 18.12,131.415 C17.9499991,131.415 17.8000006,131.355001 17.67,131.235 C17.5399993,131.114999 17.475,130.950001 17.475,130.74 C17.475,130.519999 17.5399993,130.350001 17.67,130.23 C17.8000006,130.109999 17.9499991,130.05 18.12,130.05 Z M12.72,121.47 C13.0900018,121.47 13.4349984,121.522499 13.755,121.6275 C14.0750016,121.732501 14.3524988,121.882499 14.5875,122.0775 C14.8225012,122.272501 15.0074993,122.512499 15.1425,122.7975 C15.2775007,123.082501 15.345,123.409998 15.345,123.78 C15.345,124.410003 15.1725017,124.917498 14.8275,125.3025 C14.4824983,125.687502 14.0450026,125.97 13.515,126.15 L13.515,126.21 C13.8150015,126.27 14.0949987,126.372499 14.355,126.5175 C14.6150013,126.662501 14.844999,126.839999 15.045,127.05 C15.245001,127.260001 15.4024994,127.502499 15.5175,127.7775 C15.6325006,128.052501 15.69,128.359998 15.69,128.7 C15.69,129.120002 15.6150007,129.497498 15.465,129.8325 C15.3149992,130.167502 15.1075013,130.452499 14.8425,130.6875 C14.5774987,130.922501 14.2675018,131.102499 13.9125,131.2275 C13.5574982,131.352501 13.175002,131.415 12.765,131.415 C12.3849981,131.415 12.0400015,131.375 11.73,131.295 C11.4199984,131.215 11.1425012,131.110001 10.8975,130.98 C10.6524988,130.849999 10.432501,130.705001 10.2375,130.545 C10.042499,130.384999 9.87000075,130.225001 9.72,130.065 L10.11,129.6 C10.2500007,129.760001 10.4049991,129.912499 10.575,130.0575 C10.7450008,130.202501 10.9374989,130.332499 11.1525,130.4475 C11.3675011,130.562501 11.6074987,130.655 11.8725,130.725 C12.1375013,130.795 12.4349983,130.83 12.765,130.83 C13.0850016,130.83 13.3824986,130.78 13.6575,130.68 C13.9325014,130.579999 14.169999,130.437501 14.37,130.2525 C14.570001,130.067499 14.7249994,129.845001 14.835,129.585 C14.9450005,129.324999 15,129.035002 15,128.715 C15,128.384998 14.9375006,128.085001 14.8125,127.815 C14.6874994,127.544999 14.4900013,127.312501 14.22,127.1175 C13.9499986,126.922499 13.6050021,126.770001 13.185,126.66 C12.7649979,126.549999 12.255003,126.495 11.655,126.495 L11.655,125.91 C12.2050027,125.91 12.6724981,125.855001 13.0575,125.745 C13.4425019,125.634999 13.7524988,125.487501 13.9875,125.3025 C14.2225012,125.117499 14.3924995,124.897501 14.4975,124.6425 C14.6025005,124.387499 14.655,124.115001 14.655,123.825 C14.655,123.284997 14.4800017,122.852502 14.13,122.5275 C13.7799982,122.202498 13.3100029,122.04 12.72,122.04 C12.2699977,122.04 11.8600018,122.142499 11.49,122.3475 C11.1199981,122.552501 10.7950014,122.799999 10.515,123.09 L10.125,122.64 C10.4550016,122.319998 10.8299979,122.045001 11.25,121.815 C11.6700021,121.584999 12.1599972,121.47 12.72,121.47 Z M37.35,121.35 L37.35,121.95 L34.2,121.95 L34.2,131.235 L33.51,131.235 L33.51,121.95 L30.36,121.95 L30.36,121.35 L37.35,121.35 Z M23.34,122.04 C22.6799967,122.04 22.15,122.399996 21.75,123.12 C21.349998,123.840004 21.15,124.934993 21.15,126.405 C21.15,127.875007 21.349998,128.982496 21.75,129.7275 C22.15,130.472504 22.6799967,130.845 23.34,130.845 C24.0100033,130.845 24.542498,130.472504 24.9375,129.7275 C25.332502,128.982496 25.53,127.875007 25.53,126.405 C25.53,124.934993 25.332502,123.840004 24.9375,123.12 C24.542498,122.399996 24.0100033,122.04 23.34,122.04 Z M3.09,80 L3.09,81.485 C3.58000245,81.5150001 3.97999845,81.629999 4.29,81.83 C4.60000155,82.030001 4.8849987,82.2649986 5.145,82.535 L4.755,82.955 C4.6149993,82.8149993 4.47750067,82.6900005 4.3425,82.58 C4.20749932,82.4699994 4.06500075,82.3750004 3.915,82.295 C3.76499925,82.2149996 3.6000009,82.1550002 3.42,82.115 C3.2399991,82.0749998 3.03500115,82.055 2.805,82.055 C2.2849974,82.055 1.8650016,82.2174984 1.545,82.5425 C1.2249984,82.8675016 1.065,83.2799975 1.065,83.78 C1.065,84.2200022 1.17249892,84.5724987 1.3875,84.8375 C1.60250107,85.1025013 1.8699984,85.332499 2.19,85.5275 C2.4300012,85.6737507 2.6854683,85.8115624 2.95640568,85.9409373 L3.2325,86.0675 C3.60750187,86.2325008 3.9549984,86.4324988 4.275,86.6675 C4.5950016,86.9025012 4.86249892,87.1974982 5.0775,87.5525 C5.29250107,87.9075018 5.4,88.3699971 5.4,88.94 C5.4,89.6600036 5.18250217,90.2349978 4.7475,90.665 C4.31249782,91.0950021 3.76000335,91.3399997 3.09,91.4 L3.09,92.885 L2.505,92.885 L2.505,91.4 C1.9849974,91.3599998 1.51000215,91.2275011 1.08,91.0025 C0.64999785,90.7774989 0.29000145,90.5250014 -4.4408921e-15,90.245 L0.36,89.78 C0.65000145,90.0400013 0.994998,90.2799989 1.395,90.5 C1.795002,90.7200011 2.2549974,90.83 2.775,90.83 C3.40500315,90.83 3.88749832,90.6600017 4.2225,90.32 C4.55750167,89.9799983 4.725,89.5350027 4.725,88.985 C4.725,88.4949975 4.61750107,88.0975015 4.4025,87.7925 C4.18749892,87.4874985 3.9200016,87.2275011 3.6,87.0125 C3.3599988,86.8512492 3.1045317,86.7026563 2.83359432,86.566719 L2.5575,86.435 C2.18249812,86.2649991 1.8350016,86.0700011 1.515,85.85 C1.1949984,85.6299989 0.927501075,85.3625016 0.7125,85.0475 C0.497498925,84.7324984 0.39,84.3200025 0.39,83.81 C0.39,83.5 0.442499475,83.2100013 0.5475,82.94 C0.652500525,82.6699986 0.797499075,82.432501 0.9825,82.2275 C1.16750092,82.022499 1.3899987,81.8550006 1.65,81.725 C1.9100013,81.5949993 2.19499845,81.5150001 2.505,81.485 L2.505,80 L3.09,80 Z M25.71,81.65 L25.71,82.235 L21.885,82.235 L21.585,85.7 C21.8350012,85.5499992 22.0949986,85.4275005 22.365,85.3325 C22.6350013,85.2374995 22.9449982,85.19 23.295,85.19 C23.695002,85.19 24.0749982,85.2499994 24.435,85.37 C24.7950018,85.4900006 25.1049987,85.6724988 25.365,85.9175 C25.6250013,86.1625012 25.8324992,86.4774981 25.9875,86.8625 C26.1425008,87.2475019 26.22,87.6999974 26.22,88.22 C26.22,88.7300025 26.1325009,89.182498 25.9575,89.5775 C25.7824991,89.972502 25.5525014,90.3074986 25.2675,90.5825 C24.9824986,90.8575014 24.6575018,91.0649993 24.2925,91.205 C23.9274982,91.3450007 23.5500019,91.415 23.16,91.415 C22.7799981,91.415 22.4375015,91.3775004 22.1325,91.3025 C21.8274985,91.2274996 21.5525012,91.1275006 21.3075,91.0025 C21.0624988,90.8774994 20.8450009,90.7375008 20.655,90.5825 C20.464999,90.4274992 20.2950007,90.2750007 20.145,90.125 L20.52,89.66 C20.6600007,89.8100007 20.8149991,89.9549993 20.985,90.095 C21.1550008,90.2350007 21.3449989,90.3599994 21.555,90.47 C21.765001,90.5800005 21.9999987,90.6674997 22.26,90.7325 C22.5200013,90.7975003 22.8149983,90.83 23.145,90.83 C23.4650016,90.83 23.7699985,90.7675006 24.06,90.6425 C24.3500014,90.5174994 24.6024989,90.3425011 24.8175,90.1175 C25.0325011,89.8924989 25.2049993,89.6225016 25.335,89.3075 C25.4650006,88.9924984 25.53,88.6400019 25.53,88.25 C25.53,87.4699961 25.3200021,86.8625022 24.9,86.4275 C24.4799979,85.9924978 23.9100036,85.775 23.19,85.775 C22.8199981,85.775 22.5025013,85.8324994 22.2375,85.9475 C21.9724987,86.0625006 21.6950014,86.219999 21.405,86.42 L20.94,86.135 L21.285,81.65 L25.71,81.65 Z M18.12,90.05 C18.2900008,90.05 18.4374994,90.1099994 18.5625,90.23 C18.6875006,90.3500006 18.75,90.5199989 18.75,90.74 C18.75,90.950001 18.6875006,91.1149994 18.5625,91.235 C18.4374994,91.3550006 18.2900008,91.415 18.12,91.415 C17.9499991,91.415 17.8000006,91.3550006 17.67,91.235 C17.5399993,91.1149994 17.475,90.950001 17.475,90.74 C17.475,90.5199989 17.5399993,90.3500006 17.67,90.23 C17.8000006,90.1099994 17.9499991,90.05 18.12,90.05 Z M12.72,81.47 C13.0900018,81.47 13.4349984,81.5224995 13.755,81.6275 C14.0750016,81.7325005 14.3524988,81.882499 14.5875,82.0775 C14.8225012,82.272501 15.0074993,82.5124986 15.1425,82.7975 C15.2775007,83.0825014 15.345,83.4099981 15.345,83.78 C15.345,84.4100031 15.1725017,84.9174981 14.8275,85.3025 C14.4824983,85.6875019 14.0450026,85.97 13.515,86.15 L13.515,86.21 C13.8150015,86.2700003 14.0949987,86.3724993 14.355,86.5175 C14.6150013,86.6625007 14.844999,86.8399989 15.045,87.05 C15.245001,87.260001 15.4024994,87.5024986 15.5175,87.7775 C15.6325006,88.0525014 15.69,88.3599983 15.69,88.7 C15.69,89.1200021 15.6150007,89.4974983 15.465,89.8325 C15.3149992,90.1675017 15.1075013,90.4524988 14.8425,90.6875 C14.5774987,90.9225012 14.2675018,91.1024994 13.9125,91.2275 C13.5574982,91.3525006 13.175002,91.415 12.765,91.415 C12.3849981,91.415 12.0400015,91.3750004 11.73,91.295 C11.4199984,91.2149996 11.1425012,91.1100006 10.8975,90.98 C10.6524988,90.8499993 10.432501,90.7050008 10.2375,90.545 C10.042499,90.3849992 9.87000075,90.2250008 9.72,90.065 L10.11,89.6 C10.2500007,89.7600008 10.4049991,89.9124993 10.575,90.0575 C10.7450008,90.2025007 10.9374989,90.3324994 11.1525,90.4475 C11.3675011,90.5625006 11.6074987,90.6549996 11.8725,90.725 C12.1375013,90.7950003 12.4349983,90.83 12.765,90.83 C13.0850016,90.83 13.3824986,90.7800005 13.6575,90.68 C13.9325014,90.5799995 14.169999,90.4375009 14.37,90.2525 C14.570001,90.0674991 14.7249994,89.8450013 14.835,89.585 C14.9450005,89.3249987 15,89.0350016 15,88.715 C15,88.3849983 14.9375006,88.0850013 14.8125,87.815 C14.6874994,87.5449986 14.4900013,87.312501 14.22,87.1175 C13.9499986,86.922499 13.6050021,86.7700005 13.185,86.66 C12.7649979,86.5499994 12.255003,86.495 11.655,86.495 L11.655,85.91 C12.2050027,85.91 12.6724981,85.8550005 13.0575,85.745 C13.4425019,85.6349994 13.7524988,85.4875009 13.9875,85.3025 C14.2225012,85.1174991 14.3924995,84.8975013 14.4975,84.6425 C14.6025005,84.3874987 14.655,84.1150014 14.655,83.825 C14.655,83.2849973 14.4800017,82.8525016 14.13,82.5275 C13.7799982,82.2024984 13.3100029,82.04 12.72,82.04 C12.2699977,82.04 11.8600018,82.142499 11.49,82.3475 C11.1199981,82.552501 10.7950014,82.7999985 10.515,83.09 L10.125,82.64 C10.4550016,82.3199984 10.8299979,82.0450011 11.25,81.815 C11.6700021,81.5849988 12.1599972,81.47 12.72,81.47 Z M37.35,81.35 L37.35,81.95 L34.2,81.95 L34.2,91.235 L33.51,91.235 L33.51,81.95 L30.36,81.95 L30.36,81.35 L37.35,81.35 Z M3.09,40 L3.09,41.485 C3.58000245,41.5150001 3.97999845,41.629999 4.29,41.83 C4.60000155,42.030001 4.8849987,42.2649986 5.145,42.535 L4.755,42.955 C4.6149993,42.8149993 4.47750067,42.6900005 4.3425,42.58 C4.20749932,42.4699994 4.06500075,42.3750004 3.915,42.295 C3.76499925,42.2149996 3.6000009,42.1550002 3.42,42.115 C3.2399991,42.0749998 3.03500115,42.055 2.805,42.055 C2.2849974,42.055 1.8650016,42.2174984 1.545,42.5425 C1.2249984,42.8675016 1.065,43.2799975 1.065,43.78 C1.065,44.2200022 1.17249892,44.5724987 1.3875,44.8375 C1.60250107,45.1025013 1.8699984,45.332499 2.19,45.5275 C2.4300012,45.6737507 2.6854683,45.8115624 2.95640568,45.9409373 L3.2325,46.0675 C3.60750187,46.2325008 3.9549984,46.4324988 4.275,46.6675 C4.5950016,46.9025012 4.86249892,47.1974982 5.0775,47.5525 C5.29250107,47.9075018 5.4,48.3699971 5.4,48.94 C5.4,49.6600036 5.18250217,50.2349978 4.7475,50.665 C4.31249782,51.0950021 3.76000335,51.3399997 3.09,51.4 L3.09,52.885 L2.505,52.885 L2.505,51.4 C1.9849974,51.3599998 1.51000215,51.2275011 1.08,51.0025 C0.64999785,50.7774989 0.29000145,50.5250014 -4.4408921e-15,50.245 L0.36,49.78 C0.65000145,50.0400013 0.994998,50.2799989 1.395,50.5 C1.795002,50.7200011 2.2549974,50.83 2.775,50.83 C3.40500315,50.83 3.88749832,50.6600017 4.2225,50.32 C4.55750167,49.9799983 4.725,49.5350027 4.725,48.985 C4.725,48.4949975 4.61750107,48.0975015 4.4025,47.7925 C4.18749892,47.4874985 3.9200016,47.2275011 3.6,47.0125 C3.3599988,46.8512492 3.1045317,46.7026563 2.83359432,46.566719 L2.5575,46.435 C2.18249812,46.2649991 1.8350016,46.0700011 1.515,45.85 C1.1949984,45.6299989 0.927501075,45.3625016 0.7125,45.0475 C0.497498925,44.7324984 0.39,44.3200025 0.39,43.81 C0.39,43.5 0.442499475,43.2100013 0.5475,42.94 C0.652500525,42.6699986 0.797499075,42.432501 0.9825,42.2275 C1.16750092,42.022499 1.3899987,41.8550006 1.65,41.725 C1.9100013,41.5949993 2.19499845,41.5150001 2.505,41.485 L2.505,40 L3.09,40 Z M18.12,50.05 C18.2900008,50.05 18.4374994,50.1099994 18.5625,50.23 C18.6875006,50.3500006 18.75,50.5199989 18.75,50.74 C18.75,50.950001 18.6875006,51.1149994 18.5625,51.235 C18.4374994,51.3550006 18.2900008,51.415 18.12,51.415 C17.9499991,51.415 17.8000006,51.3550006 17.67,51.235 C17.5399993,51.1149994 17.475,50.950001 17.475,50.74 C17.475,50.5199989 17.5399993,50.3500006 17.67,50.23 C17.8000006,50.1099994 17.9499991,50.05 18.12,50.05 Z M23.34,41.47 C24.2600046,41.47 24.9674975,41.8924958 25.4625,42.7375 C25.9575025,43.5825042 26.205,44.804992 26.205,46.405 C26.205,48.015008 25.9575025,49.2524957 25.4625,50.1175 C24.9674975,50.9825043 24.2600046,51.415 23.34,51.415 C22.4199954,51.415 21.7125025,50.9825043 21.2175,50.1175 C20.7224975,49.2524957 20.475,48.015008 20.475,46.405 C20.475,44.804992 20.7224975,43.5825042 21.2175,42.7375 C21.7125025,41.8924958 22.4199954,41.47 23.34,41.47 Z M37.35,41.35 L37.35,41.95 L34.2,41.95 L34.2,51.235 L33.51,51.235 L33.51,41.95 L30.36,41.95 L30.36,41.35 L37.35,41.35 Z M14.58,41.65 L14.58,47.8 L16.005,47.8 L16.005,48.37 L14.58,48.37 L14.58,51.235 L13.935,51.235 L13.935,48.37 L9.525,48.37 L9.525,47.98 L13.98,41.65 L14.58,41.65 Z M23.34,42.04 C22.6799967,42.04 22.15,42.3999964 21.75,43.12 C21.349998,43.8400036 21.15,44.9349926 21.15,46.405 C21.15,47.8750073 21.349998,48.9824963 21.75,49.7275 C22.15,50.4725037 22.6799967,50.845 23.34,50.845 C24.0100033,50.845 24.542498,50.4725037 24.9375,49.7275 C25.332502,48.9824963 25.53,47.8750073 25.53,46.405 C25.53,44.9349926 25.332502,43.8400036 24.9375,43.12 C24.542498,42.3999964 24.0100033,42.04 23.34,42.04 Z M13.995,42.64 L13.935,42.64 L13.75125,42.93625 L13.2933335,43.6249997 L13.2245835,43.7312497 L13.155,43.84 L10.335,47.8 L13.935,47.8 L13.9356,44.1513997 C13.9364,44.0545998 13.938,43.9490002 13.9404,43.8346004 L13.9446,43.6564005 L13.95,43.465 L13.9566,43.2735995 C13.9662,43.0271993 13.9789999,42.8160009 13.995,42.64 Z M3.09,-5.22959454e-12 L3.09,1.485 C3.58000245,1.51500015 3.97999845,1.629999 4.29,1.83 C4.60000155,2.030001 4.8849987,2.26499865 5.145,2.535 L4.755,2.955 C4.6149993,2.8149993 4.47750067,2.69000055 4.3425,2.58 C4.20749932,2.46999945 4.06500075,2.3750004 3.915,2.295 C3.76499925,2.2149996 3.6000009,2.1550002 3.42,2.115 C3.2399991,2.0749998 3.03500115,2.055 2.805,2.055 C2.2849974,2.055 1.8650016,2.21749837 1.545,2.5425 C1.2249984,2.86750162 1.065,3.2799975 1.065,3.78 C1.065,4.2200022 1.17249892,4.57249867 1.3875,4.8375 C1.60250107,5.10250132 1.8699984,5.33249902 2.19,5.5275 C2.4300012,5.67375073 2.6854683,5.8115624 2.95640568,5.94093729 L3.2325,6.0675 C3.60750187,6.23250082 3.9549984,6.43249882 4.275,6.6675 C4.5950016,6.90250117 4.86249892,7.19749822 5.0775,7.5525 C5.29250107,7.90750177 5.4,8.36999715 5.4,8.94 C5.4,9.6600036 5.18250217,10.2349978 4.7475,10.665 C4.31249782,11.0950021 3.76000335,11.3399997 3.09,11.4 L3.09,12.885 L2.505,12.885 L2.505,11.4 C1.9849974,11.3599998 1.51000215,11.2275011 1.08,11.0025 C0.64999785,10.7774989 0.29000145,10.5250014 -4.4408921e-15,10.245 L0.36,9.78 C0.65000145,10.0400013 0.994998,10.2799989 1.395,10.5 C1.795002,10.7200011 2.2549974,10.83 2.775,10.83 C3.40500315,10.83 3.88749832,10.6600017 4.2225,10.32 C4.55750167,9.9799983 4.725,9.53500275 4.725,8.985 C4.725,8.49499755 4.61750107,8.09750152 4.4025,7.7925 C4.18749892,7.48749847 3.9200016,7.22750107 3.6,7.0125 C3.3599988,6.85124919 3.1045317,6.70265632 2.83359432,6.56671896 L2.5575,6.435 C2.18249812,6.26499915 1.8350016,6.0700011 1.515,5.85 C1.1949984,5.6299989 0.927501075,5.36250157 0.7125,5.0475 C0.497498925,4.73249842 0.39,4.32000255 0.39,3.81 C0.39,3.5 0.442499475,3.21000135 0.5475,2.94 C0.652500525,2.66999865 0.797499075,2.43250102 0.9825,2.2275 C1.16750092,2.02249897 1.3899987,1.85500065 1.65,1.725 C1.9100013,1.59499935 2.19499845,1.51500015 2.505,1.485 L2.505,-5.22959454e-12 L3.09,-5.22959454e-12 Z M25.71,1.65 L25.71,2.235 L21.885,2.235 L21.585,5.7 C21.8350012,5.54999925 22.0949986,5.42750047 22.365,5.3325 C22.6350013,5.23749952 22.9449982,5.19 23.295,5.19 C23.695002,5.19 24.0749982,5.2499994 24.435,5.37 C24.7950018,5.4900006 25.1049987,5.67249877 25.365,5.9175 C25.6250013,6.16250122 25.8324992,6.47749807 25.9875,6.8625 C26.1425008,7.24750192 26.22,7.6999974 26.22,8.22 C26.22,8.73000255 26.1325009,9.18249802 25.9575,9.5775 C25.7824991,9.97250197 25.5525014,10.3074986 25.2675,10.5825 C24.9824986,10.8575014 24.6575018,11.0649993 24.2925,11.205 C23.9274982,11.3450007 23.5500019,11.415 23.16,11.415 C22.7799981,11.415 22.4375015,11.3775004 22.1325,11.3025 C21.8274985,11.2274996 21.5525012,11.1275006 21.3075,11.0025 C21.0624988,10.8774994 20.8450009,10.7375008 20.655,10.5825 C20.464999,10.4274992 20.2950007,10.2750007 20.145,10.125 L20.52,9.66 C20.6600007,9.81000075 20.8149991,9.9549993 20.985,10.095 C21.1550008,10.2350007 21.3449989,10.3599994 21.555,10.47 C21.765001,10.5800005 21.9999987,10.6674997 22.26,10.7325 C22.5200013,10.7975003 22.8149983,10.83 23.145,10.83 C23.4650016,10.83 23.7699985,10.7675006 24.06,10.6425 C24.3500014,10.5174994 24.6024989,10.3425011 24.8175,10.1175 C25.0325011,9.89249887 25.2049993,9.62250157 25.335,9.3075 C25.4650006,8.99249842 25.53,8.64000195 25.53,8.25 C25.53,7.4699961 25.3200021,6.86250217 24.9,6.4275 C24.4799979,5.99249782 23.9100036,5.775 23.19,5.775 C22.8199981,5.775 22.5025013,5.83249942 22.2375,5.9475 C21.9724987,6.06250057 21.6950014,6.219999 21.405,6.42 L20.94,6.135 L21.285,1.65 L25.71,1.65 Z M18.12,10.05 C18.2900008,10.05 18.4374994,10.1099994 18.5625,10.23 C18.6875006,10.3500006 18.75,10.5199989 18.75,10.74 C18.75,10.950001 18.6875006,11.1149994 18.5625,11.235 C18.4374994,11.3550006 18.2900008,11.415 18.12,11.415 C17.9499991,11.415 17.8000006,11.3550006 17.67,11.235 C17.5399993,11.1149994 17.475,10.950001 17.475,10.74 C17.475,10.5199989 17.5399993,10.3500006 17.67,10.23 C17.8000006,10.1099994 17.9499991,10.05 18.12,10.05 Z M37.35,1.35 L37.35,1.95 L34.2,1.95 L34.2,11.235 L33.51,11.235 L33.51,1.95 L30.36,1.95 L30.36,1.35 L37.35,1.35 Z M14.58,1.65 L14.58,7.8 L16.005,7.8 L16.005,8.37 L14.58,8.37 L14.58,11.235 L13.935,11.235 L13.935,8.37 L9.525,8.37 L9.525,7.98 L13.98,1.65 L14.58,1.65 Z M13.995,2.64 L13.935,2.64 L13.75125,2.93625002 L13.2933335,3.62499972 L13.2245835,3.73124968 L13.155,3.84 L10.335,7.8 L13.935,7.8 L13.9356,4.15139974 C13.9364,4.05459978 13.938,3.94900018 13.9404,3.8346004 L13.9446,3.65640053 L13.95,3.465 L13.9566,3.27359947 C13.9662,3.0271993 13.9789999,2.81600088 13.995,2.64 Z" id="Combined-Shape" fill="#666666"></path>
            <polygon id="Line-3" fill="#666666" opacity="0.0991908482" points="49.285 87.735 49.285 88.735 608.285 88.735 608.285 87.735"></polygon>
            <polygon id="Line-3" fill="#666666" opacity="0.0991908482" points="49.285 127.735 49.285 128.735 608.285 128.735 608.285 127.735"></polygon>
            <polygon id="Line-3" fill="#666666" opacity="0.0991908482" points="49.285 167.735 49.285 168.735 608.285 168.735 608.285 167.735"></polygon>
            <polygon id="Line-3" fill="#666666" opacity="0.0991908482" points="49.285 207.735 49.285 208.735 608.285 208.735 608.285 207.735"></polygon>
            <polygon id="Line-3" fill="#666666" opacity="0.0991908482" points="49.285 47.735 49.285 48.735 608.285 48.735 608.285 47.735"></polygon>
            <polygon id="Line-3-Copy-2" fill="#666666" opacity="0.0991908482" points="47.285 5.735 47.285 6.735 606.285 6.735 606.285 5.735"></polygon>
            <path d="M212.785,108.235 L256.785,108.235 C258.441854,108.235 259.785,109.578146 259.785,111.235 L259.785,369.235 L259.785,369.235 L209.785,369.235 L209.785,111.235 C209.785,109.578146 211.128146,108.235 212.785,108.235 Z" id="Rectangle-2" fill="#0A2F5A"></path>
            <path d="M105.785,109.235 L149.785,109.235 C151.441854,109.235 152.785,110.578146 152.785,112.235 L152.785,369.235 L152.785,369.235 L102.785,369.235 L102.785,112.235 C102.785,110.578146 104.128146,109.235 105.785,109.235 Z" id="Rectangle-2" fill="#0A2F5A"></path>
            <path d="M318.785,104.235 L362.785,104.235 C364.441854,104.235 365.785,105.578146 365.785,107.235 L365.785,369.235 L365.785,369.235 L315.785,369.235 L315.785,107.235 C315.785,105.578146 317.128146,104.235 318.785,104.235 Z" id="Rectangle-2" fill="#0A2F5A"></path>
            <path d="M425.785,104.235 L469.785,104.235 C471.441854,104.235 472.785,105.578146 472.785,107.235 L472.785,369.235 L472.785,369.235 L422.785,369.235 L422.785,107.235 C422.785,105.578146 424.128146,104.235 425.785,104.235 Z" id="Rectangle-2" fill="#0A2F5A"></path>
            <path d="M531.785,88.235 L575.785,88.235 C577.441854,88.235 578.785,89.5781458 578.785,91.235 L578.785,369.235 L578.785,369.235 L528.785,369.235 L528.785,91.235 C528.785,89.5781458 530.128146,88.235 531.785,88.235 Z" id="Rectangle-2-Copy" fill="#0A2F5A"></path>
        </g>
    </g>
</svg>