<?xml version="1.0" encoding="UTF-8"?>
<svg width="250px" height="100px" viewBox="0 0 250 100" version="1.1" xmlns="http://www.w3.org/2000/svg" xmlns:xlink="http://www.w3.org/1999/xlink">
    <!-- Generator: Sketch 53.2 (72643) - https://sketchapp.com -->
    <title>revenue-3-outline</title>
    <desc>Created with Sketch.</desc>
    <g id="revenue-3-outline" stroke="none" stroke-width="1" fill="none" fill-rule="evenodd">
        <g id="Group-5" transform="translate(0.000000, 13.000000)">
            <path d="M150.999494,53.8413357 L150.999494,44.9379245 L153.803932,44.9379245 C155.77793,44.9379245 157.248218,45.6186134 157.248218,47.6879078 C157.248218,49.6619057 155.77793,50.5740288 153.858387,50.5740288 L152.578692,50.5740288 L152.578692,53.8413357 L150.999494,53.8413357 Z M152.578692,49.3079474 L153.735863,49.3079474 C155.0564,49.3079474 155.696248,48.7770101 155.696248,47.6879078 C155.696248,46.5715779 155.001945,46.2040059 153.681408,46.2040059 L152.578692,46.2040059 L152.578692,49.3079474 Z M161.345966,54.004701 C159.494492,54.004701 158.051431,52.7113921 158.051431,50.5059599 C158.051431,48.3277554 159.562561,46.9936051 161.128145,46.9936051 C162.938778,46.9936051 163.891742,48.3005278 163.891742,50.1656155 C163.891742,50.4651186 163.864515,50.7646217 163.823673,50.9279871 L159.576174,50.9279871 C159.712312,52.1123858 160.474684,52.7930747 161.550172,52.7930747 C162.121951,52.7930747 162.612047,52.6160956 163.102143,52.3029787 L163.63308,53.2831708 C162.993233,53.7051979 162.19002,54.004701 161.345966,54.004701 Z M159.562561,49.8661124 L162.530364,49.8661124 C162.530364,48.8314652 162.08111,48.2052314 161.168987,48.2052314 C160.379387,48.2052314 159.698698,48.7906238 159.562561,49.8661124 Z M165.389258,53.8413357 L165.389258,47.1569704 L166.682567,47.1569704 L166.791477,48.3413692 L166.845932,48.3413692 C167.322414,47.4700873 168.030331,46.9936051 168.738247,46.9936051 C169.078592,46.9936051 169.296412,47.0344464 169.500619,47.1297429 L169.228343,48.4911207 C168.996909,48.4230518 168.81993,48.3822105 168.534041,48.3822105 C168.003103,48.3822105 167.363256,48.7497825 166.954842,49.7572021 L166.954842,53.8413357 L165.389258,53.8413357 Z M173.326091,53.8413357 L173.326091,44.9379245 L174.905289,44.9379245 L174.905289,53.8413357 L173.326091,53.8413357 Z M177.029039,53.8413357 L177.029039,47.1569704 L178.322348,47.1569704 L178.431258,48.0554798 L178.485713,48.0554798 C179.084719,47.4700873 179.765408,46.9936051 180.677531,46.9936051 C182.106978,46.9936051 182.733212,47.9601834 182.733212,49.6482919 L182.733212,53.8413357 L181.167627,53.8413357 L181.167627,49.8524986 C181.167627,48.7497825 180.85451,48.3413692 180.119366,48.3413692 C179.533974,48.3413692 179.152788,48.6272585 178.594623,49.1718096 L178.594623,53.8413357 L177.029039,53.8413357 Z M186.994324,54.004701 C185.31983,54.004701 184.244341,52.7113921 184.244341,50.5059599 C184.244341,48.3277554 185.619333,46.9936051 187.076007,46.9936051 C187.838379,46.9936051 188.314861,47.2794944 188.832185,47.7287491 L188.777729,46.6532606 L188.777729,44.230008 L190.343314,44.230008 L190.343314,53.8413357 L189.050005,53.8413357 L188.941095,53.1198054 L188.88664,53.1198054 C188.396544,53.6099015 187.715855,54.004701 186.994324,54.004701 Z M187.37551,52.7113921 C187.892834,52.7113921 188.328475,52.4799578 188.777729,51.9626343 L188.777729,48.845079 C188.314861,48.4366656 187.865606,48.286914 187.416352,48.286914 C186.558684,48.286914 185.864381,49.090127 185.864381,50.4923462 C185.864381,51.9354067 186.408932,52.7113921 187.37551,52.7113921 Z M192.330926,53.8413357 L192.330926,47.1569704 L193.89651,47.1569704 L193.89651,53.8413357 L192.330926,53.8413357 Z M193.120525,45.9861855 C192.56236,45.9861855 192.153947,45.6186134 192.153947,45.1012899 C192.153947,44.5703525 192.56236,44.2027805 193.120525,44.2027805 C193.67869,44.2027805 194.087103,44.5703525 194.087103,45.1012899 C194.087103,45.6186134 193.67869,45.9861855 193.120525,45.9861855 Z M197.395251,53.8413357 L195.067295,47.1569704 L196.660107,47.1569704 L197.721982,50.628484 C197.898961,51.2819453 198.103168,51.9626343 198.280147,52.6433232 L198.334602,52.6433232 C198.525195,51.9626343 198.715788,51.2819453 198.906381,50.628484 L199.968255,47.1569704 L201.479385,47.1569704 L199.205884,53.8413357 L197.395251,53.8413357 Z M202.636556,53.8413357 L202.636556,47.1569704 L204.202141,47.1569704 L204.202141,53.8413357 L202.636556,53.8413357 Z M203.426155,45.9861855 C202.86799,45.9861855 202.459577,45.6186134 202.459577,45.1012899 C202.459577,44.5703525 202.86799,44.2027805 203.426155,44.2027805 C203.98432,44.2027805 204.392733,44.5703525 204.392733,45.1012899 C204.392733,45.6186134 203.98432,45.9861855 203.426155,45.9861855 Z M208.544936,54.004701 C206.870441,54.004701 205.794953,52.7113921 205.794953,50.5059599 C205.794953,48.3277554 207.169944,46.9936051 208.626619,46.9936051 C209.38899,46.9936051 209.865472,47.2794944 210.382796,47.7287491 L210.328341,46.6532606 L210.328341,44.230008 L211.893925,44.230008 L211.893925,53.8413357 L210.600616,53.8413357 L210.491706,53.1198054 L210.437251,53.1198054 C209.947155,53.6099015 209.266466,54.004701 208.544936,54.004701 Z M208.926122,52.7113921 C209.443445,52.7113921 209.879086,52.4799578 210.328341,51.9626343 L210.328341,48.845079 C209.865472,48.4366656 209.416218,48.286914 208.966963,48.286914 C208.109295,48.286914 207.414992,49.090127 207.414992,50.4923462 C207.414992,51.9354067 207.959543,52.7113921 208.926122,52.7113921 Z M215.869149,54.004701 C214.439702,54.004701 213.813468,53.0381228 213.813468,51.3500142 L213.813468,47.1569704 L215.379053,47.1569704 L215.379053,51.1458075 C215.379053,52.2485236 215.69217,52.656937 216.4137,52.656937 C216.999092,52.656937 217.393892,52.3846614 217.897602,51.7312 L217.897602,47.1569704 L219.463186,47.1569704 L219.463186,53.8413357 L218.183491,53.8413357 L218.060967,52.8611436 L218.020126,52.8611436 C217.434733,53.5554463 216.781272,54.004701 215.869149,54.004701 Z M223.070838,54.004701 C221.900053,54.004701 221.09684,53.2151019 221.09684,52.0443169 C221.09684,50.6148702 222.281238,49.8661124 225.031222,49.5666092 C225.003994,48.8586927 224.718105,48.2596865 223.805982,48.2596865 C223.15252,48.2596865 222.526287,48.5591896 221.92728,48.9131479 L221.355502,47.8648869 C222.090646,47.4020184 223.04361,46.9936051 224.105485,46.9936051 C225.766366,46.9936051 226.596806,48.0146385 226.596806,49.8797261 L226.596806,53.8413357 L225.303497,53.8413357 L225.194587,53.1061917 L225.140132,53.1061917 C224.541126,53.6099015 223.860437,54.004701 223.070838,54.004701 Z M223.574547,52.779461 C224.119099,52.779461 224.527512,52.5071854 225.031222,52.0443169 L225.031222,50.5468013 C223.206975,50.7782355 222.607969,51.2547178 222.607969,51.9217929 C222.607969,52.5207992 223.016383,52.779461 223.574547,52.779461 Z M230.000251,54.004701 C228.883921,54.004701 228.475508,53.2831708 228.475508,52.1259996 L228.475508,44.230008 L230.041092,44.230008 L230.041092,52.2076823 C230.041092,52.5888681 230.218071,52.7250059 230.381437,52.7250059 C230.449506,52.7250059 230.503961,52.7250059 230.626485,52.6977783 L230.830691,53.8685633 C230.640099,53.9502459 230.367823,54.004701 230.000251,54.004701 Z" id="PerIndividual" fill="#555555" fill-rule="nonzero"></path>
            <path d="M155.961149,39.0611951 L155.961149,36.2249912 C154.231065,36.054819 152.330808,35.2606819 151.054516,34.0694763 L152.529342,31.8572373 C153.862358,32.9066327 155.195374,33.6156837 156.726924,33.6156837 C158.570457,33.6156837 159.478042,32.7080984 159.478042,31.1765483 C159.478042,27.4327592 151.763567,27.971638 151.763567,22.6395747 C151.763567,20.0019051 153.408565,18.1300105 155.961149,17.6762179 L155.961149,14.78329 L158.230112,14.78329 L158.230112,17.6194938 C160.045283,17.8463902 161.293212,18.7256134 162.342608,19.8317329 L160.669247,21.7319895 C159.619852,20.7676801 158.740629,20.2288014 157.379251,20.2288014 C155.847701,20.2288014 154.911754,21.0229385 154.911754,22.4977645 C154.911754,25.9012091 162.626228,25.2205202 162.626228,30.949652 C162.626228,33.6440457 161.037954,35.6293884 158.230112,36.1399051 L158.230112,39.0611951 L155.961149,39.0611951 Z M166.426741,35.9413708 L166.426741,33.2753392 L170.454151,33.2753392 L170.454151,21.420007 L167.135792,21.420007 L167.135792,19.3779402 C168.922601,19.0375958 170.17053,18.5838032 171.305012,17.9031142 L173.744147,17.9031142 L173.744147,33.2753392 L177.289402,33.2753392 L177.289402,35.9413708 L166.426741,35.9413708 Z M186.138358,36.2817153 C182.394569,36.2817153 180.012158,32.9349947 180.012158,26.8371564 C180.012158,20.7393181 182.394569,17.5627698 186.138358,17.5627698 C189.882147,17.5627698 192.264558,20.7676801 192.264558,26.8371564 C192.264558,32.9349947 189.882147,36.2817153 186.138358,36.2817153 Z M186.138358,33.7291318 C187.896805,33.7291318 189.144734,31.9423234 189.144734,26.8371564 C189.144734,21.7319895 187.896805,20.1153532 186.138358,20.1153532 C184.408274,20.1153532 183.131982,21.7319895 183.131982,26.8371564 C183.131982,31.9423234 184.408274,33.7291318 186.138358,33.7291318 Z M195.469469,41.1032619 L194.760418,39.3164534 C196.60395,38.6074025 197.653346,37.3027487 197.624984,35.8846468 L197.369725,35.8846468 C196.263606,35.8846468 195.270935,35.1472337 195.270935,33.870942 C195.270935,32.6513743 196.263606,31.8572373 197.454812,31.8572373 C198.986362,31.8572373 199.893947,33.105167 199.893947,35.2039578 C199.893947,37.9834376 198.277311,40.1389526 195.469469,41.1032619 Z M208.487645,36.2817153 C204.743856,36.2817153 202.361444,32.9349947 202.361444,26.8371564 C202.361444,20.7393181 204.743856,17.5627698 208.487645,17.5627698 C212.231434,17.5627698 214.613845,20.7676801 214.613845,26.8371564 C214.613845,32.9349947 212.231434,36.2817153 208.487645,36.2817153 Z M208.487645,33.7291318 C210.246091,33.7291318 211.494021,31.9423234 211.494021,26.8371564 C211.494021,21.7319895 210.246091,20.1153532 208.487645,20.1153532 C206.75756,20.1153532 205.481269,21.7319895 205.481269,26.8371564 C205.481269,31.9423234 206.75756,33.7291318 208.487645,33.7291318 Z M223.03737,36.2817153 C219.293581,36.2817153 216.91117,32.9349947 216.91117,26.8371564 C216.91117,20.7393181 219.293581,17.5627698 223.03737,17.5627698 C226.78116,17.5627698 229.163571,20.7676801 229.163571,26.8371564 C229.163571,32.9349947 226.78116,36.2817153 223.03737,36.2817153 Z M223.03737,33.7291318 C224.795817,33.7291318 226.043747,31.9423234 226.043747,26.8371564 C226.043747,21.7319895 224.795817,20.1153532 223.03737,20.1153532 C221.307286,20.1153532 220.030994,21.7319895 220.030994,26.8371564 C220.030994,31.9423234 221.307286,33.7291318 223.03737,33.7291318 Z M237.587096,36.2817153 C233.843307,36.2817153 231.460896,32.9349947 231.460896,26.8371564 C231.460896,20.7393181 233.843307,17.5627698 237.587096,17.5627698 C241.330885,17.5627698 243.713297,20.7676801 243.713297,26.8371564 C243.713297,32.9349947 241.330885,36.2817153 237.587096,36.2817153 Z M237.587096,33.7291318 C239.345543,33.7291318 240.593472,31.9423234 240.593472,26.8371564 C240.593472,21.7319895 239.345543,20.1153532 237.587096,20.1153532 C235.857012,20.1153532 234.58072,21.7319895 234.58072,26.8371564 C234.58072,31.9423234 235.857012,33.7291318 237.587096,33.7291318 Z" id="$10,000" fill="#0A2F5A" fill-rule="nonzero"></path>
            <g id="Group-29" transform="translate(11.344815, 0.000000)">
                <path d="M11.5663797,0.567127325 C15.6164788,0.567127325 18.898534,3.85031692 18.898534,7.89928156 C18.898534,11.9493807 15.6164788,15.2325703 11.5663797,15.2325703 C7.51628059,15.2325703 4.23422548,11.9493807 4.23422548,7.89928156 C4.23422548,3.85031692 7.51628059,0.567127325 11.5663797,0.567127325 M17.0663463,17.0658925 L15.7639614,17.0658925 C13.1625953,18.2627705 10.0824779,18.3138222 7.36879799,17.0658925 L6.06641318,17.0658925 C3.02940608,17.0658925 0.567581118,19.5277174 0.567581118,22.565859 L0.567581118,38.1468286 C0.567581118,39.6658994 1.7984936,40.8968118 3.31756439,40.8968118 L5.14975209,40.8968118 L5.14975209,56.4800504 C5.14975209,57.9979867 6.38179905,59.2288992 7.89973536,59.2288992 L15.2330241,59.2288992 C16.7509604,59.2288992 17.9830073,57.9979867 17.9830073,56.4800504 L17.9830073,40.8968118 L19.815195,40.8968118 C21.3342658,40.8968118 22.5651783,39.6658994 22.5651783,38.1468286 L22.5651783,22.565859 C22.5651783,19.5277174 20.1033534,17.0658925 17.0663463,17.0658925" id="Fill-1" fill="#0A2F5A"></path>
                <path d="M11.5663797,0.567127325 C15.6164788,0.567127325 18.898534,3.85031692 18.898534,7.89928156 C18.898534,11.9493807 15.6164788,15.2325703 11.5663797,15.2325703 C7.51628059,15.2325703 4.23422548,11.9493807 4.23422548,7.89928156 C4.23422548,3.85031692 7.51628059,0.567127325 11.5663797,0.567127325 Z M17.0663463,17.0658925 L15.7639614,17.0658925 C13.1625953,18.2627705 10.0824779,18.3138222 7.36879799,17.0658925 L6.06641318,17.0658925 C3.02940608,17.0658925 0.567581118,19.5277174 0.567581118,22.565859 L0.567581118,38.1468286 C0.567581118,39.6658994 1.7984936,40.8968118 3.31756439,40.8968118 L5.14975209,40.8968118 L5.14975209,56.4800504 C5.14975209,57.9979867 6.38179905,59.2288992 7.89973536,59.2288992 L15.2330241,59.2288992 C16.7509604,59.2288992 17.9830073,57.9979867 17.9830073,56.4800504 L17.9830073,40.8968118 L19.815195,40.8968118 C21.3342658,40.8968118 22.5651783,39.6658994 22.5651783,38.1468286 L22.5651783,22.565859 C22.5651783,19.5277174 20.1033534,17.0658925 17.0663463,17.0658925 Z" id="Stroke-3" stroke="#FFFFFF" stroke-width="1.13448155"></path>
                <path d="M77.5613268,0.567127325 C81.6102915,0.567127325 84.8934811,3.85031692 84.8934811,7.89928156 C84.8934811,11.9493807 81.6102915,15.2325703 77.5613268,15.2325703 C73.5112277,15.2325703 70.2280381,11.9493807 70.2280381,7.89928156 C70.2280381,3.85031692 73.5112277,0.567127325 77.5613268,0.567127325 M83.0612934,17.0658925 L81.7589086,17.0658925 C79.1575424,18.2627705 76.077425,18.3138222 73.3626106,17.0658925 L72.0613603,17.0658925 C69.0243532,17.0658925 66.5625282,19.5277174 66.5625282,22.565859 L66.5625282,38.1468286 C66.5625282,39.6658994 67.7934407,40.8968118 69.3125115,40.8968118 L71.1446992,40.8968118 L71.1446992,56.4800504 C71.1446992,57.9979867 72.3767462,59.2288992 73.8946825,59.2288992 L81.2268367,59.2288992 C82.7459075,59.2288992 83.97682,57.9979867 83.97682,56.4800504 L83.97682,40.8968118 L85.8101422,40.8968118 C87.329213,40.8968118 88.5601254,39.6658994 88.5601254,38.1468286 L88.5601254,22.565859 C88.5601254,19.5277174 86.0983005,17.0658925 83.0612934,17.0658925" id="Fill-5" fill="#0A2F5A"></path>
                <path d="M77.5613268,0.567127325 C81.6102915,0.567127325 84.8934811,3.85031692 84.8934811,7.89928156 C84.8934811,11.9493807 81.6102915,15.2325703 77.5613268,15.2325703 C73.5112277,15.2325703 70.2280381,11.9493807 70.2280381,7.89928156 C70.2280381,3.85031692 73.5112277,0.567127325 77.5613268,0.567127325 Z M83.0612934,17.0658925 L81.7589086,17.0658925 C79.1575424,18.2627705 76.077425,18.3138222 73.3626106,17.0658925 L72.0613603,17.0658925 C69.0243532,17.0658925 66.5625282,19.5277174 66.5625282,22.565859 L66.5625282,38.1468286 C66.5625282,39.6658994 67.7934407,40.8968118 69.3125115,40.8968118 L71.1446992,40.8968118 L71.1446992,56.4800504 C71.1446992,57.9979867 72.3767462,59.2288992 73.8946825,59.2288992 L81.2268367,59.2288992 C82.7459075,59.2288992 83.97682,57.9979867 83.97682,56.4800504 L83.97682,40.8968118 L85.8101422,40.8968118 C87.329213,40.8968118 88.5601254,39.6658994 88.5601254,38.1468286 L88.5601254,22.565859 C88.5601254,19.5277174 86.0983005,17.0658925 83.0612934,17.0658925 Z" id="Stroke-7" stroke="#FFFFFF" stroke-width="1.13448155"></path>
                <path d="M20.7629409,1.63127102 C25.1443087,1.63127102 28.6963704,5.18333274 28.6963704,9.56470048 C28.6963704,13.9460682 25.1443087,17.4981299 20.7629409,17.4981299 C16.3815732,17.4981299 12.8295115,13.9460682 12.8295115,9.56470048 C12.8295115,5.18333274 16.3815732,1.63127102 20.7629409,1.63127102 M26.7132966,19.4812037 L25.305405,19.4812037 C22.4896218,20.7756471 19.1576495,20.8312367 16.2216113,19.4812037 L14.8125852,19.4812037 C11.5271267,19.4812037 8.86336398,22.1461008 8.86336398,25.4315594 L8.86336398,42.2899552 C8.86336398,43.9338189 10.1952453,45.2645658 11.8379746,45.2645658 L13.8210483,45.2645658 L13.8210483,62.1240961 C13.8210483,63.7679598 15.1529297,65.0987067 16.7967934,65.0987067 L24.7302229,65.0987067 C26.3729522,65.0987067 27.7048335,63.7679598 27.7048335,62.1240961 L27.7048335,45.2645658 L29.6879073,45.2645658 C31.331771,45.2645658 32.6636524,43.9338189 32.6636524,42.2899552 L32.6636524,25.4315594 C32.6636524,22.1461008 29.9998897,19.4812037 26.7132966,19.4812037" id="Fill-9" fill="#0A2F5A"></path>
                <path d="M20.7629409,1.63127102 C25.1443087,1.63127102 28.6963704,5.18333274 28.6963704,9.56470048 C28.6963704,13.9460682 25.1443087,17.4981299 20.7629409,17.4981299 C16.3815732,17.4981299 12.8295115,13.9460682 12.8295115,9.56470048 C12.8295115,5.18333274 16.3815732,1.63127102 20.7629409,1.63127102 Z M26.7132966,19.4812037 L25.305405,19.4812037 C22.4896218,20.7756471 19.1576495,20.8312367 16.2216113,19.4812037 L14.8125852,19.4812037 C11.5271267,19.4812037 8.86336398,22.1461008 8.86336398,25.4315594 L8.86336398,42.2899552 C8.86336398,43.9338189 10.1952453,45.2645658 11.8379746,45.2645658 L13.8210483,45.2645658 L13.8210483,62.1240961 C13.8210483,63.7679598 15.1529297,65.0987067 16.7967934,65.0987067 L24.7302229,65.0987067 C26.3729522,65.0987067 27.7048335,63.7679598 27.7048335,62.1240961 L27.7048335,45.2645658 L29.6879073,45.2645658 C31.331771,45.2645658 32.6636524,43.9338189 32.6636524,42.2899552 L32.6636524,25.4315594 C32.6636524,22.1461008 29.9998897,19.4812037 26.7132966,19.4812037 Z" id="Stroke-11" stroke="#FFFFFF" stroke-width="1.13448155"></path>
                <path d="M68.3640849,1.63127102 C72.7454527,1.63127102 76.2975144,5.18333274 76.2975144,9.56470048 C76.2975144,13.9460682 72.7454527,17.4981299 68.3640849,17.4981299 C63.9827172,17.4981299 60.4306555,13.9460682 60.4306555,9.56470048 C60.4306555,5.18333274 63.9827172,1.63127102 68.3640849,1.63127102 M74.3144406,19.4812037 L72.906549,19.4812037 C70.0907658,20.7756471 66.7587935,20.8312367 63.8227553,19.4812037 L62.4137292,19.4812037 C59.1282707,19.4812037 56.464508,22.1461008 56.464508,25.4315594 L56.464508,42.2899552 C56.464508,43.9338189 57.7963893,45.2645658 59.4391186,45.2645658 L61.4221923,45.2645658 L61.4221923,62.1240961 C61.4221923,63.7679598 62.7540737,65.0987067 64.396803,65.0987067 L72.3313669,65.0987067 C73.9740962,65.0987067 75.3059775,63.7679598 75.3059775,62.1240961 L75.3059775,45.2645658 L77.2890513,45.2645658 C78.9317805,45.2645658 80.2647964,43.9338189 80.2647964,42.2899552 L80.2647964,25.4315594 C80.2647964,22.1461008 77.6010337,19.4812037 74.3144406,19.4812037" id="Fill-13" fill="#0A2F5A"></path>
                <path d="M68.3640849,1.63127102 C72.7454527,1.63127102 76.2975144,5.18333274 76.2975144,9.56470048 C76.2975144,13.9460682 72.7454527,17.4981299 68.3640849,17.4981299 C63.9827172,17.4981299 60.4306555,13.9460682 60.4306555,9.56470048 C60.4306555,5.18333274 63.9827172,1.63127102 68.3640849,1.63127102 Z M74.3144406,19.4812037 L72.906549,19.4812037 C70.0907658,20.7756471 66.7587935,20.8312367 63.8227553,19.4812037 L62.4137292,19.4812037 C59.1282707,19.4812037 56.464508,22.1461008 56.464508,25.4315594 L56.464508,42.2899552 C56.464508,43.9338189 57.7963893,45.2645658 59.4391186,45.2645658 L61.4221923,45.2645658 L61.4221923,62.1240961 C61.4221923,63.7679598 62.7540737,65.0987067 64.396803,65.0987067 L72.3313669,65.0987067 C73.9740962,65.0987067 75.3059775,63.7679598 75.3059775,62.1240961 L75.3059775,45.2645658 L77.2890513,45.2645658 C78.9317805,45.2645658 80.2647964,43.9338189 80.2647964,42.2899552 L80.2647964,25.4315594 C80.2647964,22.1461008 77.6010337,19.4812037 74.3144406,19.4812037 Z" id="Stroke-15" stroke="#FFFFFF" stroke-width="1.13448155"></path>
                <path d="M31.8729187,3.97057197 C36.5458482,3.97057197 40.3338821,7.75860585 40.3338821,12.4315353 C40.3338821,17.1033304 36.5458482,20.8924987 31.8729187,20.8924987 C27.1999892,20.8924987 23.4119553,17.1033304 23.4119553,12.4315353 C23.4119553,7.75860585 27.1999892,3.97057197 31.8729187,3.97057197 M38.218074,23.0071723 L36.7171549,23.0071723 C33.7141823,24.3878364 30.1609861,24.4468294 27.0286825,23.0071723 L25.5277634,23.0071723 C22.0233499,23.0071723 19.1814737,25.8479141 19.1814737,29.3523276 L19.1814737,47.3304567 C19.1814737,49.0832307 20.6018446,50.5036016 22.3546185,50.5036016 L24.4704266,50.5036016 L24.4704266,68.4817307 C24.4704266,70.2345047 25.8907975,71.6548756 27.642437,71.6548756 L36.1034004,71.6548756 C37.8550399,71.6548756 39.2754108,70.2345047 39.2754108,68.4817307 L39.2754108,50.5036016 L41.3912189,50.5036016 C43.1439929,50.5036016 44.5643638,49.0832307 44.5643638,47.3304567 L44.5643638,29.3523276 C44.5643638,25.8479141 41.7224875,23.0071723 38.218074,23.0071723" id="Fill-17" fill="#0A2F5A"></path>
                <path d="M31.8729187,3.97057197 C36.5458482,3.97057197 40.3338821,7.75860585 40.3338821,12.4315353 C40.3338821,17.1033304 36.5458482,20.8924987 31.8729187,20.8924987 C27.1999892,20.8924987 23.4119553,17.1033304 23.4119553,12.4315353 C23.4119553,7.75860585 27.1999892,3.97057197 31.8729187,3.97057197 Z M38.218074,23.0071723 L36.7171549,23.0071723 C33.7141823,24.3878364 30.1609861,24.4468294 27.0286825,23.0071723 L25.5277634,23.0071723 C22.0233499,23.0071723 19.1814737,25.8479141 19.1814737,29.3523276 L19.1814737,47.3304567 C19.1814737,49.0832307 20.6018446,50.5036016 22.3546185,50.5036016 L24.4704266,50.5036016 L24.4704266,68.4817307 C24.4704266,70.2345047 25.8907975,71.6548756 27.642437,71.6548756 L36.1034004,71.6548756 C37.8550399,71.6548756 39.2754108,70.2345047 39.2754108,68.4817307 L39.2754108,50.5036016 L41.3912189,50.5036016 C43.1439929,50.5036016 44.5643638,49.0832307 44.5643638,47.3304567 L44.5643638,29.3523276 C44.5643638,25.8479141 41.7224875,23.0071723 38.218074,23.0071723 Z" id="Stroke-19" stroke="#FFFFFF" stroke-width="1.13448155"></path>
                <path d="M57.2546744,3.97057197 C61.9276039,3.97057197 65.7156378,7.75860585 65.7156378,12.4315353 C65.7156378,17.1033304 61.9276039,20.8924987 57.2546744,20.8924987 C52.5817449,20.8924987 48.793711,17.1033304 48.793711,12.4315353 C48.793711,7.75860585 52.5817449,3.97057197 57.2546744,3.97057197 M63.5998297,23.0071723 L62.0989106,23.0071723 C59.0959379,24.3878364 55.5427417,24.4468294 52.4104382,23.0071723 L50.9095191,23.0071723 C47.4039711,23.0071723 44.5632293,25.8479141 44.5632293,29.3523276 L44.5632293,47.3304567 C44.5632293,49.0832307 45.9836002,50.5036016 47.7363742,50.5036016 L49.8521823,50.5036016 L49.8521823,68.4817307 C49.8521823,70.2345047 51.2725532,71.6548756 53.0241927,71.6548756 L61.4851561,71.6548756 C63.2367956,71.6548756 64.6571665,70.2345047 64.6571665,68.4817307 L64.6571665,50.5036016 L66.7729746,50.5036016 C68.5246141,50.5036016 69.9461194,49.0832307 69.9461194,47.3304567 L69.9461194,29.3523276 C69.9461194,25.8479141 67.1042432,23.0071723 63.5998297,23.0071723" id="Fill-21" fill="#0A2F5A"></path>
                <path d="M57.2546744,3.97057197 C61.9276039,3.97057197 65.7156378,7.75860585 65.7156378,12.4315353 C65.7156378,17.1033304 61.9276039,20.8924987 57.2546744,20.8924987 C52.5817449,20.8924987 48.793711,17.1033304 48.793711,12.4315353 C48.793711,7.75860585 52.5817449,3.97057197 57.2546744,3.97057197 Z M63.5998297,23.0071723 L62.0989106,23.0071723 C59.0959379,24.3878364 55.5427417,24.4468294 52.4104382,23.0071723 L50.9095191,23.0071723 C47.4039711,23.0071723 44.5632293,25.8479141 44.5632293,29.3523276 L44.5632293,47.3304567 C44.5632293,49.0832307 45.9836002,50.5036016 47.7363742,50.5036016 L49.8521823,50.5036016 L49.8521823,68.4817307 C49.8521823,70.2345047 51.2725532,71.6548756 53.0241927,71.6548756 L61.4851561,71.6548756 C63.2367956,71.6548756 64.6571665,70.2345047 64.6571665,68.4817307 L64.6571665,50.5036016 L66.7729746,50.5036016 C68.5246141,50.5036016 69.9461194,49.0832307 69.9461194,47.3304567 L69.9461194,29.3523276 C69.9461194,25.8479141 67.1042432,23.0071723 63.5998297,23.0071723 Z" id="Stroke-23" stroke="#FFFFFF" stroke-width="1.13448155"></path>
                <path d="M44.5637966,6.23953506 C49.236726,6.23953506 53.0247599,10.0275689 53.0247599,14.7004984 C53.0247599,19.3722935 49.236726,23.1614618 44.5637966,23.1614618 C39.8908671,23.1614618 36.1028332,19.3722935 36.1028332,14.7004984 C36.1028332,10.0275689 39.8908671,6.23953506 44.5637966,6.23953506 M50.9089518,25.2761354 L49.4080328,25.2761354 C46.4050601,26.6567995 42.8518639,26.7157925 39.7195603,25.2761354 L38.2186413,25.2761354 C34.7142278,25.2761354 31.8723515,28.1168772 31.8723515,31.6212907 L31.8723515,49.5994198 C31.8723515,51.3521938 33.2927224,52.7725647 35.0454964,52.7725647 L37.1613045,52.7725647 L37.1613045,70.7506938 C37.1613045,72.5034677 38.5816754,73.9238386 40.3333149,73.9238386 L48.7942782,73.9238386 C50.5459177,73.9238386 51.9662886,72.5034677 51.9662886,70.7506938 L51.9662886,52.7725647 L54.0820967,52.7725647 C55.8337362,52.7725647 57.2552416,51.3521938 57.2552416,49.5994198 L57.2552416,31.6212907 C57.2552416,28.1168772 54.4133653,25.2761354 50.9089518,25.2761354" id="Fill-25" fill="#0A2F5A"></path>
                <path d="M44.5637966,6.23953506 C49.236726,6.23953506 53.0247599,10.0275689 53.0247599,14.7004984 C53.0247599,19.3722935 49.236726,23.1614618 44.5637966,23.1614618 C39.8908671,23.1614618 36.1028332,19.3722935 36.1028332,14.7004984 C36.1028332,10.0275689 39.8908671,6.23953506 44.5637966,6.23953506 Z M50.9089518,25.2761354 L49.4080328,25.2761354 C46.4050601,26.6567995 42.8518639,26.7157925 39.7195603,25.2761354 L38.2186413,25.2761354 C34.7142278,25.2761354 31.8723515,28.1168772 31.8723515,31.6212907 L31.8723515,49.5994198 C31.8723515,51.3521938 33.2927224,52.7725647 35.0454964,52.7725647 L37.1613045,52.7725647 L37.1613045,70.7506938 C37.1613045,72.5034677 38.5816754,73.9238386 40.3333149,73.9238386 L48.7942782,73.9238386 C50.5459177,73.9238386 51.9662886,72.5034677 51.9662886,70.7506938 L51.9662886,52.7725647 L54.0820967,52.7725647 C55.8337362,52.7725647 57.2552416,51.3521938 57.2552416,49.5994198 L57.2552416,31.6212907 C57.2552416,28.1168772 54.4133653,25.2761354 50.9089518,25.2761354 Z" id="Stroke-27" stroke="#FFFFFF" stroke-width="1.13448155"></path>
            </g>
            <rect id="Rectangle" fill="#0A2F5A" fill-rule="nonzero" x="0" y="30.6310018" width="113.448155" height="36.3034095"></rect>
            <path d="M16.8442148,60.3145055 C15.0914408,60.3145055 13.9342696,59.6338165 13.1684946,58.7829554 L14.1044418,57.5236809 C14.7510963,58.1873526 15.5849403,58.7148865 16.6740425,58.7148865 C17.8482309,58.7148865 18.6650577,58.1022665 18.6650577,57.0812331 C18.6650577,55.9580963 17.9503343,55.243373 15.4828369,55.243373 L15.4828369,53.8139262 C17.6099898,53.8139262 18.307696,53.0821856 18.307696,52.0781694 C18.307696,51.1762566 17.6950759,50.6317055 16.708077,50.6317055 C15.8572158,50.6317055 15.1935441,51.0401188 14.5298724,51.6527389 L13.5258562,50.444516 C14.4447863,49.6276893 15.4828369,49.0831382 16.7761459,49.0831382 C18.8522471,49.0831382 20.2816939,50.1041715 20.2816939,51.9420317 C20.2816939,53.1502545 19.5669705,53.9670812 18.3927821,54.4265462 L18.3927821,54.4946151 C19.6690738,54.8349596 20.6390555,55.7538897 20.6390555,57.1833364 C20.6390555,59.1573343 18.920316,60.3145055 16.8442148,60.3145055 Z M22.1365712,60.1102988 L22.1365712,58.9701448 C25.1486197,56.0601997 27.0375315,54.1542707 27.0375315,52.5036 C27.0375315,51.3634461 26.4078942,50.6317055 25.250723,50.6317055 C24.4168791,50.6317055 23.7191729,51.1932738 23.1405874,51.8399283 L22.0514851,50.750826 C23.038484,49.6957582 24.025483,49.0831382 25.5059814,49.0831382 C27.5820826,49.0831382 28.9264432,50.3934643 28.9264432,52.4014967 C28.9264432,54.3244429 27.1396348,56.2984408 24.9954647,58.5617315 C25.5570331,58.5106798 26.2717564,58.4426109 26.7992903,58.4426109 L29.4539772,58.4426109 L29.4539772,60.1102988 L22.1365712,60.1102988 Z M33.0786457,60.1102988 C33.2658352,56.2644063 33.9975758,53.8479607 36.0906942,50.9380155 L30.96851,50.9380155 L30.96851,49.2873448 L38.2348643,49.2873448 L38.2348643,50.4785505 C35.6992981,53.6267368 35.2568503,55.8900274 35.0696608,60.1102988 L33.0786457,60.1102988 Z M40.1748278,63.2074334 L39.7493972,62.1353484 C40.8555167,61.7099178 41.485154,60.9271255 41.4681368,60.0762643 L41.3149817,60.0762643 C40.65131,60.0762643 40.0557072,59.6338165 40.0557072,58.8680415 C40.0557072,58.1363009 40.65131,57.6598187 41.3660334,57.6598187 C42.2849635,57.6598187 42.8295146,58.4085765 42.8295146,59.667851 C42.8295146,61.3355389 41.8595329,62.6288478 40.1748278,63.2074334 Z M46.4882176,60.1102988 C46.6754071,56.2644063 47.4071477,53.8479607 49.5002661,50.9380155 L44.3780819,50.9380155 L44.3780819,49.2873448 L51.6444362,49.2873448 L51.6444362,50.4785505 C49.10887,53.6267368 48.6664222,55.8900274 48.4792327,60.1102988 L46.4882176,60.1102988 Z M56.7155687,60.3145055 C54.4692953,60.3145055 53.0398485,58.3064731 53.0398485,54.6477701 C53.0398485,50.9890672 54.4692953,49.0831382 56.7155687,49.0831382 C58.9618422,49.0831382 60.391289,51.0060844 60.391289,54.6477701 C60.391289,58.3064731 58.9618422,60.3145055 56.7155687,60.3145055 Z M56.7155687,58.7829554 C57.7706366,58.7829554 58.5193944,57.7108703 58.5193944,54.6477701 C58.5193944,51.58467 57.7706366,50.6146882 56.7155687,50.6146882 C55.6775181,50.6146882 54.9117431,51.58467 54.9117431,54.6477701 C54.9117431,57.7108703 55.6775181,58.7829554 56.7155687,58.7829554 Z M65.4454043,60.3145055 C63.1991308,60.3145055 61.769684,58.3064731 61.769684,54.6477701 C61.769684,50.9890672 63.1991308,49.0831382 65.4454043,49.0831382 C67.6916777,49.0831382 69.1211245,51.0060844 69.1211245,54.6477701 C69.1211245,58.3064731 67.6916777,60.3145055 65.4454043,60.3145055 Z M65.4454043,58.7829554 C66.5004721,58.7829554 67.2492299,57.7108703 67.2492299,54.6477701 C67.2492299,51.58467 66.5004721,50.6146882 65.4454043,50.6146882 C64.4073536,50.6146882 63.6415786,51.58467 63.6415786,54.6477701 C63.6415786,57.7108703 64.4073536,58.7829554 65.4454043,58.7829554 Z M71.0440707,63.2074334 L70.6186401,62.1353484 C71.7247596,61.7099178 72.3543969,60.9271255 72.3373797,60.0762643 L72.1842246,60.0762643 C71.5205529,60.0762643 70.9249501,59.6338165 70.9249501,58.8680415 C70.9249501,58.1363009 71.5205529,57.6598187 72.2352763,57.6598187 C73.1542064,57.6598187 73.6987575,58.4085765 73.6987575,59.667851 C73.6987575,61.3355389 72.7287758,62.6288478 71.0440707,63.2074334 Z M78.8549761,60.3145055 C76.6087027,60.3145055 75.1792559,58.3064731 75.1792559,54.6477701 C75.1792559,50.9890672 76.6087027,49.0831382 78.8549761,49.0831382 C81.1012496,49.0831382 82.5306964,51.0060844 82.5306964,54.6477701 C82.5306964,58.3064731 81.1012496,60.3145055 78.8549761,60.3145055 Z M78.8549761,58.7829554 C79.910044,58.7829554 80.6588018,57.7108703 80.6588018,54.6477701 C80.6588018,51.58467 79.910044,50.6146882 78.8549761,50.6146882 C77.8169255,50.6146882 77.0511505,51.58467 77.0511505,54.6477701 C77.0511505,57.7108703 77.8169255,58.7829554 78.8549761,58.7829554 Z M87.5848116,60.3145055 C85.3385382,60.3145055 83.9090914,58.3064731 83.9090914,54.6477701 C83.9090914,50.9890672 85.3385382,49.0831382 87.5848116,49.0831382 C89.8310851,49.0831382 91.2605319,51.0060844 91.2605319,54.6477701 C91.2605319,58.3064731 89.8310851,60.3145055 87.5848116,60.3145055 Z M87.5848116,58.7829554 C88.6398795,58.7829554 89.3886373,57.7108703 89.3886373,54.6477701 C89.3886373,51.58467 88.6398795,50.6146882 87.5848116,50.6146882 C86.546761,50.6146882 85.780986,51.58467 85.780986,54.6477701 C85.780986,57.7108703 86.546761,58.7829554 87.5848116,58.7829554 Z M96.3146472,60.3145055 C94.0683737,60.3145055 92.6389269,58.3064731 92.6389269,54.6477701 C92.6389269,50.9890672 94.0683737,49.0831382 96.3146472,49.0831382 C98.5609206,49.0831382 99.9903674,51.0060844 99.9903674,54.6477701 C99.9903674,58.3064731 98.5609206,60.3145055 96.3146472,60.3145055 Z M96.3146472,58.7829554 C97.369715,58.7829554 98.1184728,57.7108703 98.1184728,54.6477701 C98.1184728,51.58467 97.369715,50.6146882 96.3146472,50.6146882 C95.2765965,50.6146882 94.5108215,51.58467 94.5108215,54.6477701 C94.5108215,57.7108703 95.2765965,58.7829554 96.3146472,58.7829554 Z" id="327,700,000" fill="#FFFFFF" fill-rule="nonzero"></path>
            <path d="M25.4804555,44.0361027 C25.1627991,44.0361027 24.8527106,43.9888331 24.5501807,43.8942925 C24.2476508,43.7997519 23.9791595,43.6371445 23.7446988,43.4064654 C23.5102381,43.1757863 23.3230505,42.8675886 23.1831304,42.4818629 C23.0432103,42.0961373 22.9732513,41.6120967 22.9732513,41.0297266 L22.9732513,36.4237315 L23.4951128,36.4237315 L23.4951128,40.9730025 C23.4951128,41.4721769 23.5499456,41.8862585 23.6596127,42.2152598 C23.7692798,42.5442611 23.9148701,42.8089708 24.0963881,43.0093969 C24.277906,43.2098229 24.487783,43.3516317 24.7260253,43.4348274 C24.9642676,43.5180232 25.2157419,43.5596204 25.4804555,43.5596204 C25.7527325,43.5596204 26.0117698,43.5180232 26.2575754,43.4348274 C26.503381,43.3516317 26.7189303,43.2098229 26.9042299,43.0093969 C27.0895295,42.8089708 27.2389014,42.5442611 27.3523501,42.2152598 C27.4657988,41.8862585 27.5225223,41.4721769 27.5225223,40.9730025 L27.5225223,36.4237315 L28.0103494,36.4237315 L28.0103494,41.0297266 C28.0103494,41.6120967 27.9384996,42.0961373 27.7947979,42.4818629 C27.6510962,42.8675886 27.4620178,43.1757863 27.2275571,43.4064654 C26.9930964,43.6371445 26.7246052,43.7997519 26.4220752,43.8942925 C26.1195453,43.9888331 25.8056752,44.0361027 25.4804555,44.0361027 Z M30.2225884,44.0361027 C30.0940132,44.0361027 29.9805662,43.9907238 29.882244,43.8999649 C29.7839217,43.8092059 29.7347614,43.6844142 29.7347614,43.525586 C29.7347614,43.3591945 29.7839217,43.2306212 29.882244,43.1398622 C29.9805662,43.0491033 30.0940132,43.0037244 30.2225884,43.0037244 C30.3511636,43.0037244 30.4627199,43.0491033 30.5572605,43.1398622 C30.6518011,43.2306212 30.6990707,43.3591945 30.6990707,43.525586 C30.6990707,43.6844142 30.6518011,43.8092059 30.5572605,43.8999649 C30.4627199,43.9907238 30.3511636,44.0361027 30.2225884,44.0361027 Z M34.5109287,44.0361027 C33.9663748,44.0361027 33.4823342,43.9321096 33.0587923,43.7241202 C32.6352504,43.5161309 32.2760015,43.2457488 31.9810348,42.9129659 L32.3213793,42.5499318 C32.5936562,42.860025 32.918871,43.1058269 33.2970334,43.2873448 C33.6751958,43.4688628 34.0798235,43.5596204 34.5109287,43.5596204 C35.0857355,43.5596204 35.5395236,43.4215932 35.8723065,43.1455346 C36.2050894,42.8694761 36.3714784,42.5083364 36.3714784,42.0621048 C36.3714784,41.8276441 36.3355535,41.6291118 36.2637027,41.4665019 C36.1918518,41.3038921 36.0954218,41.1639741 35.9744099,41.0467438 C35.8533979,40.9295134 35.7115891,40.8293019 35.5489793,40.7461062 C35.3863694,40.6629104 35.2143081,40.579716 35.0327902,40.4965202 L33.8983086,39.9860035 C33.7394804,39.9179343 33.5693099,39.8347398 33.3877919,39.7364176 C33.206274,39.6380954 33.0417758,39.5151944 32.8942925,39.3677111 C32.7468091,39.2202277 32.6239082,39.0462757 32.525586,38.8458496 C32.4272637,38.6454235 32.3781034,38.405294 32.3781034,38.1254538 C32.3781034,37.8531769 32.4329361,37.6054842 32.5426032,37.3823684 C32.6522703,37.1592526 32.803533,36.9663926 32.9963958,36.8037828 C33.1892586,36.641173 33.4199342,36.5144904 33.6884295,36.4237315 C33.9569249,36.3329725 34.2462148,36.2875937 34.5563079,36.2875937 C35.0101028,36.2875937 35.4128397,36.3764605 35.7645308,36.5541968 C36.1162218,36.7319332 36.4055117,36.9418102 36.6324092,37.1838341 L36.337444,37.5241786 C36.1181098,37.2972811 35.8609632,37.1138751 35.5659965,36.973955 C35.2710298,36.8340349 34.9344703,36.7640759 34.5563079,36.7640759 C34.0571335,36.7640759 33.6562874,36.8850861 33.3537575,37.12711 C33.0512276,37.369134 32.8999649,37.6943488 32.8999649,38.1027642 C32.8999649,38.3220984 32.9415621,38.5073952 33.0247578,38.6586601 C33.1079536,38.8099251 33.2138375,38.9403892 33.3424127,39.0500563 C33.4709879,39.1597234 33.6109059,39.2542625 33.7621708,39.3336766 C33.9134358,39.4130907 34.0571354,39.4830497 34.1932738,39.5435557 L35.3277554,40.0427276 C35.5395263,40.1334866 35.7399494,40.2355889 35.9290306,40.3490376 C36.1181118,40.4624863 36.2845008,40.5948412 36.4282025,40.7461062 C36.5719042,40.8973711 36.687242,41.0769956 36.7742194,41.2849849 C36.8611967,41.4929742 36.9046847,41.7406669 36.9046847,42.0280703 C36.9046847,42.3154737 36.8479612,42.5820742 36.7345125,42.8278798 C36.6210638,43.0736854 36.4603472,43.2854531 36.2523578,43.4631895 C36.0443685,43.6409258 35.7928943,43.7808438 35.4979276,43.8829476 C35.2029609,43.9850515 34.8739646,44.0361027 34.5109287,44.0361027 Z M38.6177519,44.0361027 C38.4891766,44.0361027 38.3757296,43.9907238 38.2774074,43.8999649 C38.1790852,43.8092059 38.1299248,43.6844142 38.1299248,43.525586 C38.1299248,43.3591945 38.1790852,43.2306212 38.2774074,43.1398622 C38.3757296,43.0491033 38.4891766,43.0037244 38.6177519,43.0037244 C38.7463271,43.0037244 38.8578833,43.0491033 38.9524239,43.1398622 C39.0469645,43.2306212 39.0942341,43.3591945 39.0942341,43.525586 C39.0942341,43.6844142 39.0469645,43.8092059 38.9524239,43.8999649 C38.8578833,43.9907238 38.7463271,44.0361027 38.6177519,44.0361027 Z M43.2237469,43.8999649 L43.2237469,36.4237315 L45.1069863,36.4237315 C45.5305282,36.4237315 45.9105757,36.4596564 46.2471403,36.5315072 C46.5837048,36.6033581 46.8673224,36.7224774 47.0980014,36.8888689 C47.3286805,37.0552604 47.5064142,37.2708097 47.6312078,37.5355234 C47.7560014,37.8002371 47.8183972,38.1254519 47.8183972,38.5111775 C47.8183972,39.2448126 47.58394,39.7912491 47.1150187,40.1505034 C46.6460973,40.5097576 45.9918861,40.6893821 45.1523656,40.6893821 L43.7456085,40.6893821 L43.7456085,43.8999649 L43.2237469,43.8999649 Z M43.7456085,40.2469343 L45.0275726,40.2469343 C45.7914607,40.2469343 46.3586958,40.1107979 46.7292949,39.8385209 C47.0998941,39.566244 47.2851909,39.1238006 47.2851909,38.5111775 C47.2851909,37.8834279 47.0942217,37.4523292 46.7122777,37.2178686 C46.3303337,36.9834079 45.7536447,36.8661793 44.9821933,36.8661793 L43.7456085,36.8661793 L43.7456085,40.2469343 Z M51.0970489,44.0361027 C50.7718292,44.0361027 50.4617407,43.971816 50.166774,43.8432408 C49.8718073,43.7146656 49.61277,43.5293688 49.3896542,43.2873448 C49.1665383,43.0453209 48.9888047,42.7484679 48.8564478,42.3967768 C48.724091,42.0450858 48.6579136,41.6423489 48.6579136,41.188554 C48.6579136,40.7347591 48.724091,40.3282406 48.8564478,39.9689863 C48.9888047,39.609732 49.1665383,39.3090974 49.3896542,39.0670735 C49.61277,38.8250495 49.8718073,38.6397527 50.166774,38.5111775 C50.4617407,38.3826023 50.7718292,38.3183157 51.0970489,38.3183157 C51.4222686,38.3183157 51.7342479,38.3826023 52.0329962,38.5111775 C52.3317445,38.6397527 52.5926726,38.8250495 52.8157884,39.0670735 C53.0389042,39.3090974 53.2166379,39.609732 53.3489948,39.9689863 C53.4813516,40.3282406 53.547529,40.7347591 53.547529,41.188554 C53.547529,41.6423489 53.4813516,42.0450858 53.3489948,42.3967768 C53.2166379,42.7484679 53.0389042,43.0453209 52.8157884,43.2873448 C52.5926726,43.5293688 52.3317445,43.7146656 52.0329962,43.8432408 C51.7342479,43.971816 51.4222686,44.0361027 51.0970489,44.0361027 Z M51.0970489,43.5936548 C51.3693258,43.5936548 51.6245816,43.5350406 51.8628239,43.4178102 C52.1010662,43.3005799 52.3052709,43.1360817 52.475444,42.9243107 C52.645617,42.7125398 52.7798627,42.4591748 52.8781849,42.1642081 C52.9765071,41.8692414 53.0256675,41.5440266 53.0256675,41.188554 C53.0256675,40.8255181 52.9765071,40.4965217 52.8781849,40.201555 C52.7798627,39.9065883 52.645617,39.6513326 52.475444,39.43578 C52.3052709,39.2202274 52.1010662,39.0538384 51.8628239,38.9366081 C51.6245816,38.8193778 51.3693258,38.7607635 51.0970489,38.7607635 C50.824772,38.7607635 50.5714069,38.8193778 50.3369462,38.9366081 C50.1024856,39.0538384 49.9001717,39.2202274 49.7299986,39.43578 C49.5598255,39.6513326 49.4255799,39.9065883 49.3272577,40.201555 C49.2289354,40.4965217 49.1797751,40.8255181 49.1797751,41.188554 C49.1797751,41.5440266 49.2289354,41.8692414 49.3272577,42.1642081 C49.4255799,42.4591748 49.5598255,42.7125398 49.7299986,42.9243107 C49.9001717,43.1360817 50.1024856,43.3005799 50.3369462,43.4178102 C50.5714069,43.5350406 50.824772,43.5936548 51.0970489,43.5936548 Z M55.1811825,46.3617898 L55.1811825,38.4544534 L55.6122854,38.4544534 L55.6576647,39.1351424 L55.6916992,39.1351424 C55.9564128,38.9233714 56.2457027,38.7342931 56.5595775,38.5679016 C56.8734523,38.4015101 57.2005579,38.3183157 57.5409041,38.3183157 C58.2669759,38.3183157 58.8115216,38.5697899 59.1745575,39.0727459 C59.5375934,39.5757019 59.7191086,40.2507117 59.7191086,41.0977954 C59.7191086,41.5591536 59.654822,41.9713444 59.5262468,42.3343803 C59.3976716,42.6974162 59.2218287,43.005614 58.9987129,43.2589828 C58.775597,43.5123516 58.5184505,43.7052115 58.2272654,43.8375684 C57.9360804,43.9699252 57.6316642,44.0361027 57.3140078,44.0361027 C57.0568573,44.0361027 56.7921476,43.9774884 56.5198707,43.860258 C56.2475937,43.7430277 55.9677578,43.5785295 55.6803543,43.3667585 L55.6803543,46.3617898 L55.1811825,46.3617898 Z M57.2913181,43.5936548 C57.5635951,43.5936548 57.8169601,43.5331498 58.0514208,43.4121378 C58.2858815,43.2911258 58.4863045,43.1209553 58.652696,42.9016211 C58.8190874,42.6822869 58.9495515,42.419468 59.0440921,42.1131564 C59.1386327,41.8068449 59.1859023,41.4683946 59.1859023,41.0977954 C59.1859023,40.7650125 59.153759,40.454924 59.0894714,40.1675206 C59.0251838,39.8801171 58.9249722,39.6324245 58.7888338,39.4244352 C58.6526953,39.2164458 58.4749616,39.0538384 58.2556274,38.9366081 C58.0362933,38.8193778 57.7715835,38.7607635 57.4614904,38.7607635 C57.1892134,38.7607635 56.9074867,38.8382856 56.6163016,38.9933322 C56.3251166,39.1483788 56.0131373,39.3696005 55.6803543,39.6570039 L55.6803543,42.8902763 C55.9980108,43.1474267 56.292973,43.328942 56.5652499,43.4348274 C56.8375269,43.5407129 57.0795472,43.5936548 57.2913181,43.5936548 Z M62.9183466,44.0361027 C62.351103,44.0361027 61.9351306,43.8659321 61.6704169,43.525586 C61.4057032,43.1852398 61.2733484,42.6596019 61.2733484,41.9486566 L61.2733484,38.4544534 L61.7725202,38.4544534 L61.7725202,41.8805877 C61.7725202,42.4629578 61.8689502,42.8921657 62.061813,43.1682243 C62.2546759,43.4442828 62.5704367,43.58231 63.0091051,43.58231 C63.3343248,43.58231 63.6292871,43.4934432 63.8940007,43.3157069 C64.1587144,43.1379705 64.4498951,42.8562438 64.7675515,42.4705181 L64.7675515,38.4544534 L65.2667234,38.4544534 L65.2667234,43.8999649 L64.8469652,43.8999649 L64.7902412,42.9923796 L64.7675515,42.9923796 C64.5028378,43.3100361 64.2230019,43.5634011 63.9280352,43.7524823 C63.6330685,43.9415635 63.296509,44.0361027 62.9183466,44.0361027 Z M68.0235136,44.0361027 C67.5772819,44.0361027 67.3541695,43.7487035 67.3541695,43.1738967 L67.3541695,35.7430425 L67.8533413,35.7430425 L67.8533413,43.2419656 C67.8533413,43.3629775 67.8760307,43.4518444 67.9214102,43.5085687 C67.9667897,43.5652931 68.0235132,43.5936548 68.0915825,43.5936548 L68.1653238,43.5936548 C68.1917951,43.5936548 68.2352832,43.5860917 68.2957891,43.5709652 L68.3865477,43.9793786 C68.3336049,43.9945051 68.280663,44.0077406 68.2277202,44.0190854 C68.1747775,44.0304303 68.1067093,44.0361027 68.0235136,44.0361027 Z M71.2340963,44.0361027 C71.0147622,44.0361027 70.8105575,44.0058501 70.6214763,43.9453441 C70.4323951,43.8848381 70.2660061,43.7940805 70.1223044,43.6730686 C69.9786027,43.5520566 69.8651557,43.3970123 69.78196,43.2079311 C69.6987642,43.0188499 69.657167,42.7957374 69.657167,42.538587 C69.657167,41.9335272 69.9388938,41.4740667 70.5023557,41.1601919 C71.0658177,40.8463171 71.9563768,40.6213139 73.1740598,40.4851754 C73.1740598,40.2809677 73.1589335,40.0748723 73.1286805,39.866883 C73.0984275,39.6588936 73.0341409,39.4735968 72.9358187,39.310987 C72.8374964,39.1483772 72.7051416,39.0160223 72.5387501,38.9139185 C72.3723587,38.8118146 72.1530278,38.7607635 71.8807508,38.7607635 C71.5177149,38.7607635 71.184937,38.8326132 70.8824071,38.976315 C70.5798771,39.1200167 70.3340753,39.2599347 70.1449941,39.3960731 L69.9180978,39.0216942 C70.01642,38.953625 70.1355393,38.8779936 70.2754594,38.7947979 C70.4153795,38.7116022 70.5723146,38.6359708 70.7462693,38.5679016 C70.920224,38.4998324 71.1093024,38.4412181 71.3135101,38.392057 C71.5177178,38.3428958 71.7294855,38.3183157 71.9488197,38.3183157 C72.2664761,38.3183157 72.5349674,38.3731484 72.7543016,38.4828155 C72.9736358,38.5924826 73.1513695,38.7418545 73.2875079,38.9309357 C73.4236464,39.1200169 73.5219672,39.3412386 73.5824731,39.5946074 C73.6429791,39.8479762 73.6732317,40.1221398 73.6732317,40.4171065 L73.6732317,43.8999649 L73.2421287,43.8999649 L73.1967494,43.1965863 L73.162715,43.1965863 C72.8828748,43.4159205 72.5822402,43.6106712 72.2608021,43.7808443 C71.9393641,43.9510174 71.5971323,44.0361027 71.2340963,44.0361027 Z M71.3248549,43.6049997 C71.6425113,43.6049997 71.9450367,43.5293683 72.2324401,43.3781034 C72.5198435,43.2268384 72.8337136,43.0075075 73.1740598,42.7201041 L73.1740598,40.8708991 C72.6143794,40.9389684 72.1416835,41.0221629 71.7559579,41.1204851 C71.3702322,41.2188073 71.0601437,41.3360359 70.825683,41.4721744 C70.5912223,41.6083128 70.4229426,41.7633571 70.3208387,41.9373118 C70.2187349,42.1112665 70.1676837,42.3041264 70.1676837,42.5158974 C70.1676837,42.7125418 70.1979362,42.8789308 70.2584422,43.0150693 C70.3189482,43.1512077 70.4021427,43.262764 70.5080282,43.3497413 C70.6139136,43.4367187 70.7368146,43.5010053 70.8767347,43.5426032 C71.0166547,43.584201 71.1660267,43.6049997 71.3248549,43.6049997 Z M76.974573,44.0361027 C76.7098593,44.0361027 76.4905284,43.9963962 76.3165737,43.9169821 C76.142619,43.837568 76.002701,43.7260117 75.8968155,43.58231 C75.79093,43.4386083 75.7171895,43.2646562 75.6755916,43.0604485 C75.6339937,42.8562408 75.6131951,42.6331284 75.6131951,42.3911044 L75.6131951,38.8855564 L74.762334,38.8855564 L74.762334,38.4998327 L75.6245399,38.4544534 L75.6926088,36.8775241 L76.1237118,36.8775241 L76.1237118,38.4544534 L77.7006412,38.4544534 L77.7006412,38.8855564 L76.1237118,38.8855564 L76.1237118,42.4364837 C76.1237118,42.6104384 76.1369473,42.7673734 76.1634187,42.9072935 C76.18989,43.0472136 76.2371596,43.1682238 76.3052289,43.2703276 C76.3732981,43.3724315 76.4659465,43.4518444 76.5831768,43.5085687 C76.7004072,43.5652931 76.8535607,43.5936548 77.0426419,43.5936548 C77.1485273,43.5936548 77.2638651,43.5766378 77.3886587,43.5426032 C77.5134523,43.5085686 77.6250086,43.4688621 77.7233308,43.4234826 L77.8594686,43.831896 C77.7006404,43.892402 77.5418145,43.9415623 77.3829863,43.9793786 C77.2241581,44.0171948 77.0880217,44.0361027 76.974573,44.0361027 Z M79.0279846,43.8999649 L79.0279846,38.4544534 L79.5271565,38.4544534 L79.5271565,43.8999649 L79.0279846,43.8999649 Z M79.2889153,37.1384548 C79.1603401,37.1384548 79.0525654,37.0968576 78.9655881,37.0136619 C78.8786107,36.9304661 78.8351227,36.8245823 78.8351227,36.696007 C78.8351227,36.5523053 78.8786107,36.4407491 78.9655881,36.361335 C79.0525654,36.2819209 79.1603401,36.2422144 79.2889153,36.2422144 C79.4174905,36.2422144 79.5252652,36.2819209 79.6122426,36.361335 C79.6992199,36.4407491 79.7427079,36.5523053 79.7427079,36.696007 C79.7427079,36.8245823 79.6992199,36.9304661 79.6122426,37.0136619 C79.5252652,37.0968576 79.4174905,37.1384548 79.2889153,37.1384548 Z M83.61129,44.0361027 C83.2860704,44.0361027 82.9759818,43.971816 82.6810152,43.8432408 C82.3860485,43.7146656 82.1270111,43.5293688 81.9038953,43.2873448 C81.6807795,43.0453209 81.5030458,42.7484679 81.370689,42.3967768 C81.2383321,42.0450858 81.1721547,41.6423489 81.1721547,41.188554 C81.1721547,40.7347591 81.2383321,40.3282406 81.370689,39.9689863 C81.5030458,39.609732 81.6807795,39.3090974 81.9038953,39.0670735 C82.1270111,38.8250495 82.3860485,38.6397527 82.6810152,38.5111775 C82.9759818,38.3826023 83.2860704,38.3183157 83.61129,38.3183157 C83.9365097,38.3183157 84.248489,38.3826023 84.5472373,38.5111775 C84.8459856,38.6397527 85.1069137,38.8250495 85.3300296,39.0670735 C85.5531454,39.3090974 85.7308791,39.609732 85.8632359,39.9689863 C85.9955927,40.3282406 86.0617702,40.7347591 86.0617702,41.188554 C86.0617702,41.6423489 85.9955927,42.0450858 85.8632359,42.3967768 C85.7308791,42.7484679 85.5531454,43.0453209 85.3300296,43.2873448 C85.1069137,43.5293688 84.8459856,43.7146656 84.5472373,43.8432408 C84.248489,43.971816 83.9365097,44.0361027 83.61129,44.0361027 Z M83.61129,43.5936548 C83.883567,43.5936548 84.1388228,43.5350406 84.3770651,43.4178102 C84.6153074,43.3005799 84.819512,43.1360817 84.9896851,42.9243107 C85.1598582,42.7125398 85.2941038,42.4591748 85.3924261,42.1642081 C85.4907483,41.8692414 85.5399087,41.5440266 85.5399087,41.188554 C85.5399087,40.8255181 85.4907483,40.4965217 85.3924261,40.201555 C85.2941038,39.9065883 85.1598582,39.6513326 84.9896851,39.43578 C84.819512,39.2202274 84.6153074,39.0538384 84.3770651,38.9366081 C84.1388228,38.8193778 83.883567,38.7607635 83.61129,38.7607635 C83.3390131,38.7607635 83.0856481,38.8193778 82.8511874,38.9366081 C82.6167267,39.0538384 82.4144128,39.2202274 82.2442398,39.43578 C82.0740667,39.6513326 81.939821,39.9065883 81.8414988,40.201555 C81.7431766,40.4965217 81.6940162,40.8255181 81.6940162,41.188554 C81.6940162,41.5440266 81.7431766,41.8692414 81.8414988,42.1642081 C81.939821,42.4591748 82.0740667,42.7125398 82.2442398,42.9243107 C82.4144128,43.1360817 82.6167267,43.3005799 82.8511874,43.4178102 C83.0856481,43.5350406 83.3390131,43.5936548 83.61129,43.5936548 Z M87.6954236,43.8999649 L87.6954236,38.4544534 L88.1265266,38.4544534 L88.1719058,39.2939698 L88.2059403,39.2939698 C88.4857805,39.0141296 88.7731796,38.7815632 89.0681463,38.5962636 C89.3631129,38.4109641 89.6996724,38.3183157 90.0778348,38.3183157 C90.6450785,38.3183157 91.0610509,38.4884862 91.3257645,38.8288324 C91.5904782,39.1691785 91.7228331,39.6948164 91.7228331,40.4057617 L91.7228331,43.8999649 L91.2236612,43.8999649 L91.2236612,40.4738306 C91.2236612,39.8914605 91.1272312,39.4622526 90.9343684,39.186194 C90.7415056,38.9101355 90.4219631,38.7721083 89.9757315,38.7721083 C89.6505118,38.7721083 89.3555496,38.8571935 89.0908359,39.0273666 C88.8261222,39.1975397 88.5273784,39.4527955 88.1945955,39.7931417 L88.1945955,43.8999649 L87.6954236,43.8999649 Z" id="U.S.Population" fill="#FFFFFF" fill-rule="nonzero"></path>
            <polygon id="+" fill="#0A2F5A" fill-rule="nonzero" transform="translate(131.995455, 37.620960) rotate(45.000000) translate(-131.995455, -37.620960) " points="131.107156 42.3381345 131.107156 38.4786282 127.451856 38.4786282 127.451856 36.7632921 131.107156 36.7632921 131.107156 32.9037859 132.883754 32.9037859 132.883754 36.7632921 136.539054 36.7632921 136.539054 38.4786282 132.883754 38.4786282 132.883754 42.3381345"></polygon>
        </g>
    </g>
</svg>