<?xml version="1.0" encoding="UTF-8"?>
<svg width="250px" height="100px" viewBox="0 0 250 100" version="1.1" xmlns="http://www.w3.org/2000/svg" xmlns:xlink="http://www.w3.org/1999/xlink">
    <!-- Generator: Sketch 53.2 (72643) - https://sketchapp.com -->
    <title>revenue-2-outline</title>
    <desc>Created with Sketch.</desc>
    <g id="revenue-2-outline" stroke="none" stroke-width="1" fill="none" fill-rule="evenodd">
        <g id="Group-6" transform="translate(0.000000, 3.000000)">
            <path d="M130.281977,82.4069767 L130.281977,71 L133.875,71 C136.40407,71 138.287791,71.872093 138.287791,74.5232558 C138.287791,77.0523256 136.40407,78.2209302 133.944767,78.2209302 L132.305233,78.2209302 L132.305233,82.4069767 L130.281977,82.4069767 Z M132.305233,76.5988372 L133.787791,76.5988372 C135.479651,76.5988372 136.299419,75.9186047 136.299419,74.5232558 C136.299419,73.0930233 135.409884,72.622093 133.718023,72.622093 L132.305233,72.622093 L132.305233,76.5988372 Z M143.537791,82.6162791 C141.165698,82.6162791 139.31686,80.9593023 139.31686,78.1337209 C139.31686,75.3430233 141.252907,73.6337209 143.258721,73.6337209 C145.578488,73.6337209 146.799419,75.3081395 146.799419,77.6976744 C146.799419,78.0813953 146.764535,78.4651163 146.712209,78.6744186 L141.270349,78.6744186 C141.444767,80.1918605 142.421512,81.0639535 143.799419,81.0639535 C144.531977,81.0639535 145.159884,80.8372093 145.787791,80.4360465 L146.468023,81.6918605 C145.648256,82.2325581 144.619186,82.6162791 143.537791,82.6162791 Z M141.252907,77.3139535 L145.055233,77.3139535 C145.055233,75.9883721 144.479651,75.1860465 143.311047,75.1860465 C142.299419,75.1860465 141.427326,75.9360465 141.252907,77.3139535 Z M148.718023,82.4069767 L148.718023,73.8430233 L150.375,73.8430233 L150.514535,75.3604651 L150.584302,75.3604651 C151.194767,74.244186 152.101744,73.6337209 153.008721,73.6337209 C153.444767,73.6337209 153.723837,73.6860465 153.985465,73.8081395 L153.636628,75.5523256 C153.340116,75.4651163 153.113372,75.4127907 152.747093,75.4127907 C152.06686,75.4127907 151.247093,75.8837209 150.723837,77.1744186 L150.723837,82.4069767 L148.718023,82.4069767 Z M160.787791,82.4069767 L160.787791,78.1686047 L157.369186,71 L159.531977,71 L160.770349,73.9127907 C161.101744,74.7674419 161.415698,75.5523256 161.781977,76.4244186 L161.851744,76.4244186 C162.218023,75.5523256 162.56686,74.7674419 162.898256,73.9127907 L164.136628,71 L166.247093,71 L162.811047,78.1686047 L162.811047,82.4069767 L160.787791,82.4069767 Z M170.276163,82.6162791 C167.90407,82.6162791 166.055233,80.9593023 166.055233,78.1337209 C166.055233,75.3430233 167.991279,73.6337209 169.997093,73.6337209 C172.31686,73.6337209 173.537791,75.3081395 173.537791,77.6976744 C173.537791,78.0813953 173.502907,78.4651163 173.450581,78.6744186 L168.008721,78.6744186 C168.18314,80.1918605 169.159884,81.0639535 170.537791,81.0639535 C171.270349,81.0639535 171.898256,80.8372093 172.526163,80.4360465 L173.206395,81.6918605 C172.386628,82.2325581 171.357558,82.6162791 170.276163,82.6162791 Z M167.991279,77.3139535 L171.793605,77.3139535 C171.793605,75.9883721 171.218023,75.1860465 170.049419,75.1860465 C169.037791,75.1860465 168.165698,75.9360465 167.991279,77.3139535 Z M177.322674,82.6162791 C175.822674,82.6162791 174.793605,81.6046512 174.793605,80.1046512 C174.793605,78.2732558 176.311047,77.3139535 179.834302,76.9302326 C179.799419,76.0232558 179.43314,75.255814 178.264535,75.255814 C177.427326,75.255814 176.625,75.6395349 175.857558,76.0930233 L175.125,74.75 C176.06686,74.1569767 177.287791,73.6337209 178.648256,73.6337209 C180.776163,73.6337209 181.840116,74.9418605 181.840116,77.3313953 L181.840116,82.4069767 L180.18314,82.4069767 L180.043605,81.4651163 L179.973837,81.4651163 C179.206395,82.1104651 178.334302,82.6162791 177.322674,82.6162791 Z M177.968023,81.0465116 C178.665698,81.0465116 179.188953,80.6976744 179.834302,80.1046512 L179.834302,78.1860465 C177.497093,78.4825581 176.729651,79.0930233 176.729651,79.9476744 C176.729651,80.7151163 177.252907,81.0465116 177.968023,81.0465116 Z M184.247093,82.4069767 L184.247093,73.8430233 L185.90407,73.8430233 L186.043605,75.3604651 L186.113372,75.3604651 C186.723837,74.244186 187.630814,73.6337209 188.537791,73.6337209 C188.973837,73.6337209 189.252907,73.6860465 189.514535,73.8081395 L189.165698,75.5523256 C188.869186,75.4651163 188.642442,75.4127907 188.276163,75.4127907 C187.59593,75.4127907 186.776163,75.8837209 186.252907,77.1744186 L186.252907,82.4069767 L184.247093,82.4069767 Z" id="PerYear" fill="#555555" fill-rule="nonzero"></path>
            <path d="M129.392442,21.3604651 L129.392442,9.95348837 L136.264535,9.95348837 L136.264535,11.6627907 L131.415698,11.6627907 L131.415698,14.5755814 L135.514535,14.5755814 L135.514535,16.2848837 L131.415698,16.2848837 L131.415698,19.6511628 L136.438953,19.6511628 L136.438953,21.3604651 L129.392442,21.3604651 Z M140.677326,21.5697674 C139.177326,21.5697674 138.148256,20.5581395 138.148256,19.0581395 C138.148256,17.2267442 139.665698,16.2674419 143.188953,15.8837209 C143.15407,14.9767442 142.787791,14.2093023 141.619186,14.2093023 C140.781977,14.2093023 139.979651,14.5930233 139.212209,15.0465116 L138.479651,13.7034884 C139.421512,13.1104651 140.642442,12.5872093 142.002907,12.5872093 C144.130814,12.5872093 145.194767,13.8953488 145.194767,16.2848837 L145.194767,21.3604651 L143.537791,21.3604651 L143.398256,20.4186047 L143.328488,20.4186047 C142.561047,21.0639535 141.688953,21.5697674 140.677326,21.5697674 Z M141.322674,20 C142.020349,20 142.543605,19.6511628 143.188953,19.0581395 L143.188953,17.1395349 C140.851744,17.4360465 140.084302,18.0465116 140.084302,18.9011628 C140.084302,19.6686047 140.607558,20 141.322674,20 Z M147.601744,21.3604651 L147.601744,12.7965116 L149.258721,12.7965116 L149.398256,14.3139535 L149.468023,14.3139535 C150.078488,13.1976744 150.985465,12.5872093 151.892442,12.5872093 C152.328488,12.5872093 152.607558,12.6395349 152.869186,12.7616279 L152.520349,14.505814 C152.223837,14.4186047 151.997093,14.3662791 151.630814,14.3662791 C150.950581,14.3662791 150.130814,14.8372093 149.607558,16.127907 L149.607558,21.3604651 L147.601744,21.3604651 Z M154.107558,21.3604651 L154.107558,12.7965116 L155.764535,12.7965116 L155.90407,13.9476744 L155.973837,13.9476744 C156.741279,13.1976744 157.613372,12.5872093 158.781977,12.5872093 C160.613372,12.5872093 161.415698,13.8255814 161.415698,15.9883721 L161.415698,21.3604651 L159.409884,21.3604651 L159.409884,16.25 C159.409884,14.8372093 159.008721,14.3139535 158.06686,14.3139535 C157.31686,14.3139535 156.828488,14.6802326 156.113372,15.377907 L156.113372,21.3604651 L154.107558,21.3604651 Z M163.875,21.3604651 L163.875,12.7965116 L165.880814,12.7965116 L165.880814,21.3604651 L163.875,21.3604651 Z M164.886628,11.2965116 C164.171512,11.2965116 163.648256,10.8255814 163.648256,10.1627907 C163.648256,9.48255814 164.171512,9.01162791 164.886628,9.01162791 C165.601744,9.01162791 166.125,9.48255814 166.125,10.1627907 C166.125,10.8255814 165.601744,11.2965116 164.886628,11.2965116 Z M168.444767,21.3604651 L168.444767,12.7965116 L170.101744,12.7965116 L170.241279,13.9476744 L170.311047,13.9476744 C171.078488,13.1976744 171.950581,12.5872093 173.119186,12.5872093 C174.950581,12.5872093 175.752907,13.8255814 175.752907,15.9883721 L175.752907,21.3604651 L173.747093,21.3604651 L173.747093,16.25 C173.747093,14.8372093 173.34593,14.3139535 172.40407,14.3139535 C171.65407,14.3139535 171.165698,14.6802326 170.450581,15.377907 L170.450581,21.3604651 L168.444767,21.3604651 Z M181.194767,25.1453488 C179.15407,25.1453488 177.636628,24.4127907 177.636628,22.9127907 C177.636628,22.1976744 178.072674,21.5697674 178.857558,21.0813953 L178.857558,21.0116279 C178.421512,20.7325581 178.090116,20.2790698 178.090116,19.5813953 C178.090116,18.9186047 178.543605,18.3430233 179.031977,17.994186 L179.031977,17.9244186 C178.456395,17.4883721 177.915698,16.6686047 177.915698,15.6569767 C177.915698,13.6860465 179.502907,12.5872093 181.299419,12.5872093 C181.770349,12.5872093 182.206395,12.6744186 182.555233,12.7965116 L185.625,12.7965116 L185.625,14.2790698 L184.055233,14.2790698 C184.334302,14.6104651 184.543605,15.1337209 184.543605,15.7267442 C184.543605,17.627907 183.113372,18.6395349 181.299419,18.6395349 C180.93314,18.6395349 180.514535,18.5697674 180.130814,18.4127907 C179.869186,18.6395349 179.712209,18.8488372 179.712209,19.2325581 C179.712209,19.7209302 180.061047,20.0174419 181.107558,20.0174419 L182.625,20.0174419 C184.68314,20.0174419 185.764535,20.6453488 185.764535,22.127907 C185.764535,23.8197674 183.985465,25.1453488 181.194767,25.1453488 Z M181.299419,17.3837209 C182.119186,17.3837209 182.781977,16.755814 182.781977,15.6569767 C182.781977,14.5930233 182.136628,13.9651163 181.299419,13.9651163 C180.462209,13.9651163 179.799419,14.5755814 179.799419,15.6569767 C179.799419,16.755814 180.462209,17.3837209 181.299419,17.3837209 Z M181.508721,23.8372093 C182.886628,23.8372093 183.828488,23.1918605 183.828488,22.4593023 C183.828488,21.7965116 183.287791,21.6046512 182.311047,21.6046512 L181.142442,21.6046512 C180.671512,21.6046512 180.305233,21.5697674 179.973837,21.4825581 C179.520349,21.8313953 179.311047,22.2151163 179.311047,22.6162791 C179.311047,23.3837209 180.148256,23.8372093 181.508721,23.8372093 Z" id="Earning" fill="#555555" fill-rule="nonzero"></path>
            <path d="M135.955669,61.7994186 L135.955669,58.1656977 C133.739099,57.9476744 131.304506,56.9302326 129.669331,55.4040698 L131.558866,52.5697674 C133.266715,53.9142442 134.974564,54.8226744 136.936773,54.8226744 C139.298692,54.8226744 140.461483,53.6598837 140.461483,51.6976744 C140.461483,46.9011628 130.577762,47.5915698 130.577762,40.7601744 C130.577762,37.380814 132.68532,34.9825581 135.955669,34.4011628 L135.955669,30.6947674 L138.862645,30.6947674 L138.862645,34.3284884 C141.188227,34.619186 142.787064,35.7456395 144.131541,37.1627907 L141.987645,39.5973837 C140.643169,38.3619186 139.516715,37.6715116 137.772529,37.6715116 C135.81032,37.6715116 134.611192,38.6889535 134.611192,40.5784884 C134.611192,44.9389535 144.494913,44.0668605 144.494913,51.4069767 C144.494913,54.8590116 142.460029,57.4026163 138.862645,58.056686 L138.862645,61.7994186 L135.955669,61.7994186 Z M157.539971,57.8023256 L157.539971,51.8430233 L147.329215,51.8430233 L147.329215,49.0087209 L156.486192,34.6918605 L161.46439,34.6918605 L161.46439,48.6090116 L164.371366,48.6090116 L164.371366,51.8430233 L161.46439,51.8430233 L161.46439,57.8023256 L157.539971,57.8023256 Z M151.471657,48.6090116 L157.539971,48.6090116 L157.539971,43.3764535 C157.539971,42.0319767 157.648983,39.9244186 157.721657,38.5799419 L157.576308,38.5799419 C156.994913,39.7790698 156.340843,40.9418605 155.686773,42.1773256 L151.471657,48.6090116 Z M174.182413,45.9563953 C175.52689,45.9563953 177.125727,45.1569767 178.324855,43.2674419 C177.888808,39.1976744 176.217297,37.4534884 173.96439,37.4534884 C172.074855,37.4534884 170.512355,39.0159884 170.512355,41.8139535 C170.512355,44.5392442 171.856831,45.9563953 174.182413,45.9563953 Z M173.201308,58.2383721 C170.43968,58.2383721 168.404797,57.0755814 167.023983,55.622093 L169.27689,53.0784884 C170.148983,54.0959302 171.566134,54.8226744 172.983285,54.8226744 C175.890262,54.8226744 178.25218,52.6787791 178.433866,46.2834302 C177.08939,47.9549419 175.054506,48.9723837 173.382994,48.9723837 C169.422238,48.9723837 166.66061,46.6468023 166.66061,41.8139535 C166.66061,37.1991279 169.967297,34.255814 173.928052,34.255814 C178.433866,34.255814 182.28561,37.744186 182.28561,45.5203488 C182.28561,54.4956395 177.961483,58.2383721 173.201308,58.2383721 Z M186.573401,64.4156977 L185.664971,62.1264535 C188.02689,61.2180233 189.371366,59.5465116 189.335029,57.7296512 L189.007994,57.7296512 C187.590843,57.7296512 186.319041,56.7848837 186.319041,55.1497093 C186.319041,53.5872093 187.590843,52.5697674 189.117006,52.5697674 C191.079215,52.5697674 192.242006,54.1686047 192.242006,56.8575581 C192.242006,60.4186047 190.170785,63.1802326 186.573401,64.4156977 Z M203.25218,58.2383721 C198.455669,58.2383721 195.403343,53.9505814 195.403343,46.1380814 C195.403343,38.3255814 198.455669,34.255814 203.25218,34.255814 C208.048692,34.255814 211.101017,38.3619186 211.101017,46.1380814 C211.101017,53.9505814 208.048692,58.2383721 203.25218,58.2383721 Z M203.25218,54.9680233 C205.505087,54.9680233 207.103924,52.6787791 207.103924,46.1380814 C207.103924,39.5973837 205.505087,37.5261628 203.25218,37.5261628 C201.03561,37.5261628 199.400436,39.5973837 199.400436,46.1380814 C199.400436,52.6787791 201.03561,54.9680233 203.25218,54.9680233 Z M221.893169,58.2383721 C217.096657,58.2383721 214.044331,53.9505814 214.044331,46.1380814 C214.044331,38.3255814 217.096657,34.255814 221.893169,34.255814 C226.68968,34.255814 229.742006,38.3619186 229.742006,46.1380814 C229.742006,53.9505814 226.68968,58.2383721 221.893169,58.2383721 Z M221.893169,54.9680233 C224.146076,54.9680233 225.744913,52.6787791 225.744913,46.1380814 C225.744913,39.5973837 224.146076,37.5261628 221.893169,37.5261628 C219.676599,37.5261628 218.041424,39.5973837 218.041424,46.1380814 C218.041424,52.6787791 219.676599,54.9680233 221.893169,54.9680233 Z M240.534157,58.2383721 C235.737645,58.2383721 232.68532,53.9505814 232.68532,46.1380814 C232.68532,38.3255814 235.737645,34.255814 240.534157,34.255814 C245.330669,34.255814 248.382994,38.3619186 248.382994,46.1380814 C248.382994,53.9505814 245.330669,58.2383721 240.534157,58.2383721 Z M240.534157,54.9680233 C242.787064,54.9680233 244.385901,52.6787791 244.385901,46.1380814 C244.385901,39.5973837 242.787064,37.5261628 240.534157,37.5261628 C238.317587,37.5261628 236.682413,39.5973837 236.682413,46.1380814 C236.682413,52.6787791 238.317587,54.9680233 240.534157,54.9680233 Z" id="$49,000" fill="#0A2F5A" fill-rule="nonzero"></path>
            <g id="Group-21" transform="translate(5.813953, 0.000000)">
                <path d="M15.9729651,0.727034884 C21.5863372,0.727034884 26.1372093,5.27790698 26.1372093,10.8912791 C26.1372093,16.5046512 21.5863372,21.0555233 15.9729651,21.0555233 C10.359593,21.0555233 5.80872093,16.5046512 5.80872093,10.8912791 C5.80872093,5.27790698 10.359593,0.727034884 15.9729651,0.727034884 M23.5965116,23.5962209 L21.7927326,23.5962209 C18.1851744,25.2546512 13.9162791,25.3258721 10.1546512,23.5962209 L8.3494186,23.5962209 C4.14011628,23.5962209 0.727325581,27.0104651 0.727325581,31.2197674 L0.727325581,52.8186047 C0.727325581,54.9247093 2.43372093,56.6296512 4.53837209,56.6296512 L7.07906977,56.6296512 L7.07906977,78.2299419 C7.07906977,80.3360465 8.78546512,82.0409884 10.8915698,82.0409884 L21.055814,82.0409884 C23.1604651,82.0409884 24.8668605,80.3360465 24.8668605,78.2299419 L24.8668605,56.6296512 L27.4075581,56.6296512 C29.5136628,56.6296512 31.2200581,54.9247093 31.2200581,52.8186047 L31.2200581,31.2197674 C31.2200581,27.0104651 27.8072674,23.5962209 23.5965116,23.5962209" id="Fill-1" fill="#0A2F5A"></path>
                <path d="M15.9729651,0.727034884 C21.5863372,0.727034884 26.1372093,5.27790698 26.1372093,10.8912791 C26.1372093,16.5046512 21.5863372,21.0555233 15.9729651,21.0555233 C10.359593,21.0555233 5.80872093,16.5046512 5.80872093,10.8912791 C5.80872093,5.27790698 10.359593,0.727034884 15.9729651,0.727034884 Z M23.5965116,23.5962209 L21.7927326,23.5962209 C18.1851744,25.2546512 13.9162791,25.3258721 10.1546512,23.5962209 L8.3494186,23.5962209 C4.14011628,23.5962209 0.727325581,27.0104651 0.727325581,31.2197674 L0.727325581,52.8186047 C0.727325581,54.9247093 2.43372093,56.6296512 4.53837209,56.6296512 L7.07906977,56.6296512 L7.07906977,78.2299419 C7.07906977,80.3360465 8.78546512,82.0409884 10.8915698,82.0409884 L21.055814,82.0409884 C23.1604651,82.0409884 24.8668605,80.3360465 24.8668605,78.2299419 L24.8668605,56.6296512 L27.4075581,56.6296512 C29.5136628,56.6296512 31.2200581,54.9247093 31.2200581,52.8186047 L31.2200581,31.2197674 C31.2200581,27.0104651 27.8072674,23.5962209 23.5965116,23.5962209 Z" id="Stroke-3" stroke="#FFFFFF" stroke-width="1.45348837"></path>
                <path d="M76.959157,0.727034884 C82.5725291,0.727034884 87.1234012,5.27790698 87.1234012,10.8912791 C87.1234012,16.5046512 82.5725291,21.0555233 76.959157,21.0555233 C71.3457849,21.0555233 66.7949128,16.5046512 66.7949128,10.8912791 C66.7949128,5.27790698 71.3457849,0.727034884 76.959157,0.727034884 M84.5827035,23.5962209 L82.7789244,23.5962209 C79.1713663,25.2546512 74.9024709,25.3258721 71.140843,23.5962209 L69.3356105,23.5962209 C65.1263081,23.5962209 61.7135174,27.0104651 61.7135174,31.2197674 L61.7135174,52.8186047 C61.7135174,54.9247093 63.4199128,56.6296512 65.524564,56.6296512 L68.0652616,56.6296512 L68.0652616,78.2299419 C68.0652616,80.3360465 69.771657,82.0409884 71.8763081,82.0409884 L82.0420058,82.0409884 C84.146657,82.0409884 85.8530523,80.3360465 85.8530523,78.2299419 L85.8530523,56.6296512 L88.39375,56.6296512 C90.4984012,56.6296512 92.20625,54.9247093 92.20625,52.8186047 L92.20625,31.2197674 C92.20625,27.0104651 88.7934593,23.5962209 84.5827035,23.5962209" id="Fill-5" fill="#0A2F5A"></path>
                <path d="M76.959157,0.727034884 C82.5725291,0.727034884 87.1234012,5.27790698 87.1234012,10.8912791 C87.1234012,16.5046512 82.5725291,21.0555233 76.959157,21.0555233 C71.3457849,21.0555233 66.7949128,16.5046512 66.7949128,10.8912791 C66.7949128,5.27790698 71.3457849,0.727034884 76.959157,0.727034884 Z M84.5827035,23.5962209 L82.7789244,23.5962209 C79.1713663,25.2546512 74.9024709,25.3258721 71.140843,23.5962209 L69.3356105,23.5962209 C65.1263081,23.5962209 61.7135174,27.0104651 61.7135174,31.2197674 L61.7135174,52.8186047 C61.7135174,54.9247093 63.4199128,56.6296512 65.524564,56.6296512 L68.0652616,56.6296512 L68.0652616,78.2299419 C68.0652616,80.3360465 69.771657,82.0409884 71.8763081,82.0409884 L82.0420058,82.0409884 C84.146657,82.0409884 85.8530523,80.3360465 85.8530523,78.2299419 L85.8530523,56.6296512 L88.39375,56.6296512 C90.4984012,56.6296512 92.20625,54.9247093 92.20625,52.8186047 L92.20625,31.2197674 C92.20625,27.0104651 88.7934593,23.5962209 84.5827035,23.5962209 Z" id="Stroke-7" stroke="#FFFFFF" stroke-width="1.45348837"></path>
                <path d="M30.2068314,3.72412791 C36.19375,3.72412791 41.0469477,8.57732558 41.0469477,14.5642442 C41.0469477,20.5497093 36.19375,25.4043605 30.2068314,25.4043605 C24.2199128,25.4043605 19.3667151,20.5497093 19.3667151,14.5642442 C19.3667151,8.57732558 24.2199128,3.72412791 30.2068314,3.72412791 M38.3361919,28.1136628 L36.4132267,28.1136628 C32.565843,29.8825581 28.0135174,29.9581395 24.000436,28.1136628 L22.0774709,28.1136628 C17.5876453,28.1136628 13.946657,31.7531977 13.946657,36.2430233 L13.946657,59.2764535 C13.946657,61.522093 15.7664244,63.3418605 18.012064,63.3418605 L20.7228198,63.3418605 L20.7228198,86.3752907 C20.7228198,88.6209302 22.5425872,90.4406977 24.7867733,90.4406977 L35.6268895,90.4406977 C37.8710756,90.4406977 39.690843,88.6209302 39.690843,86.3752907 L39.690843,63.3418605 L42.4015988,63.3418605 C44.6472384,63.3418605 46.4670058,61.522093 46.4670058,59.2764535 L46.4670058,36.2430233 C46.4670058,31.7531977 42.8260174,28.1136628 38.3361919,28.1136628" id="Fill-9" fill="#0A2F5A"></path>
                <path d="M30.2068314,3.72412791 C36.19375,3.72412791 41.0469477,8.57732558 41.0469477,14.5642442 C41.0469477,20.5497093 36.19375,25.4043605 30.2068314,25.4043605 C24.2199128,25.4043605 19.3667151,20.5497093 19.3667151,14.5642442 C19.3667151,8.57732558 24.2199128,3.72412791 30.2068314,3.72412791 Z M38.3361919,28.1136628 L36.4132267,28.1136628 C32.565843,29.8825581 28.0135174,29.9581395 24.000436,28.1136628 L22.0774709,28.1136628 C17.5876453,28.1136628 13.946657,31.7531977 13.946657,36.2430233 L13.946657,59.2764535 C13.946657,61.522093 15.7664244,63.3418605 18.012064,63.3418605 L20.7228198,63.3418605 L20.7228198,86.3752907 C20.7228198,88.6209302 22.5425872,90.4406977 24.7867733,90.4406977 L35.6268895,90.4406977 C37.8710756,90.4406977 39.690843,88.6209302 39.690843,86.3752907 L39.690843,63.3418605 L42.4015988,63.3418605 C44.6472384,63.3418605 46.4670058,61.522093 46.4670058,59.2764535 L46.4670058,36.2430233 C46.4670058,31.7531977 42.8260174,28.1136628 38.3361919,28.1136628 Z" id="Stroke-11" stroke="#FFFFFF" stroke-width="1.45348837"></path>
                <path d="M62.7258721,3.72412791 C68.7127907,3.72412791 73.5659884,8.57732558 73.5659884,14.5642442 C73.5659884,20.5497093 68.7127907,25.4043605 62.7258721,25.4043605 C56.7389535,25.4043605 51.8857558,20.5497093 51.8857558,14.5642442 C51.8857558,8.57732558 56.7389535,3.72412791 62.7258721,3.72412791 M70.8552326,28.1136628 L68.9322674,28.1136628 C65.0848837,29.8825581 60.5325581,29.9581395 56.5194767,28.1136628 L54.5965116,28.1136628 C50.1052326,28.1136628 46.4656977,31.7531977 46.4656977,36.2430233 L46.4656977,59.2764535 C46.4656977,61.522093 48.2854651,63.3418605 50.5311047,63.3418605 L53.2418605,63.3418605 L53.2418605,86.3752907 C53.2418605,88.6209302 55.0616279,90.4406977 57.305814,90.4406977 L68.1459302,90.4406977 C70.3901163,90.4406977 72.2098837,88.6209302 72.2098837,86.3752907 L72.2098837,63.3418605 L74.9206395,63.3418605 C77.1648256,63.3418605 78.9860465,61.522093 78.9860465,59.2764535 L78.9860465,36.2430233 C78.9860465,31.7531977 75.3450581,28.1136628 70.8552326,28.1136628" id="Fill-13" fill="#0A2F5A"></path>
                <path d="M62.7258721,3.72412791 C68.7127907,3.72412791 73.5659884,8.57732558 73.5659884,14.5642442 C73.5659884,20.5497093 68.7127907,25.4043605 62.7258721,25.4043605 C56.7389535,25.4043605 51.8857558,20.5497093 51.8857558,14.5642442 C51.8857558,8.57732558 56.7389535,3.72412791 62.7258721,3.72412791 Z M70.8552326,28.1136628 L68.9322674,28.1136628 C65.0848837,29.8825581 60.5325581,29.9581395 56.5194767,28.1136628 L54.5965116,28.1136628 C50.1052326,28.1136628 46.4656977,31.7531977 46.4656977,36.2430233 L46.4656977,59.2764535 C46.4656977,61.522093 48.2854651,63.3418605 50.5311047,63.3418605 L53.2418605,63.3418605 L53.2418605,86.3752907 C53.2418605,88.6209302 55.0616279,90.4406977 57.305814,90.4406977 L68.1459302,90.4406977 C70.3901163,90.4406977 72.2098837,88.6209302 72.2098837,86.3752907 L72.2098837,63.3418605 L74.9206395,63.3418605 C77.1648256,63.3418605 78.9860465,61.522093 78.9860465,59.2764535 L78.9860465,36.2430233 C78.9860465,31.7531977 75.3450581,28.1136628 70.8552326,28.1136628 Z" id="Stroke-15" stroke="#FFFFFF" stroke-width="1.45348837"></path>
                <path d="M46.4664244,6.63110465 C52.453343,6.63110465 57.3065407,11.4843023 57.3065407,17.4712209 C57.3065407,23.456686 52.453343,28.3113372 46.4664244,28.3113372 C40.4795058,28.3113372 35.6263081,23.456686 35.6263081,17.4712209 C35.6263081,11.4843023 40.4795058,6.63110465 46.4664244,6.63110465 M54.5957849,31.0206395 L52.6728198,31.0206395 C48.825436,32.7895349 44.2731105,32.8651163 40.2600291,31.0206395 L38.337064,31.0206395 C33.8472384,31.0206395 30.20625,34.6601744 30.20625,39.15 L30.20625,62.1834302 C30.20625,64.4290698 32.0260174,66.2488372 34.271657,66.2488372 L36.9824128,66.2488372 L36.9824128,89.2822674 C36.9824128,91.527907 38.8021802,93.3476744 41.0463663,93.3476744 L51.8864826,93.3476744 C54.1306686,93.3476744 55.950436,91.527907 55.950436,89.2822674 L55.950436,66.2488372 L58.6611919,66.2488372 C60.9053779,66.2488372 62.7265988,64.4290698 62.7265988,62.1834302 L62.7265988,39.15 C62.7265988,34.6601744 59.0856105,31.0206395 54.5957849,31.0206395" id="Fill-17" fill="#0A2F5A"></path>
                <path d="M46.4664244,6.63110465 C52.453343,6.63110465 57.3065407,11.4843023 57.3065407,17.4712209 C57.3065407,23.456686 52.453343,28.3113372 46.4664244,28.3113372 C40.4795058,28.3113372 35.6263081,23.456686 35.6263081,17.4712209 C35.6263081,11.4843023 40.4795058,6.63110465 46.4664244,6.63110465 Z M54.5957849,31.0206395 L52.6728198,31.0206395 C48.825436,32.7895349 44.2731105,32.8651163 40.2600291,31.0206395 L38.337064,31.0206395 C33.8472384,31.0206395 30.20625,34.6601744 30.20625,39.15 L30.20625,62.1834302 C30.20625,64.4290698 32.0260174,66.2488372 34.271657,66.2488372 L36.9824128,66.2488372 L36.9824128,89.2822674 C36.9824128,91.527907 38.8021802,93.3476744 41.0463663,93.3476744 L51.8864826,93.3476744 C54.1306686,93.3476744 55.950436,91.527907 55.950436,89.2822674 L55.950436,66.2488372 L58.6611919,66.2488372 C60.9053779,66.2488372 62.7265988,64.4290698 62.7265988,62.1834302 L62.7265988,39.15 C62.7265988,34.6601744 59.0856105,31.0206395 54.5957849,31.0206395 Z" id="Stroke-19" stroke="#FFFFFF" stroke-width="1.45348837"></path>
            </g>
            <rect id="Rectangle" fill="#0A2F5A" fill-rule="nonzero" x="0" y="36.3372093" width="103.197674" height="46.5116279"></rect>
            <path d="M18.75,73.5930233 L18.75,64.0581395 L19.9563953,64.0581395 L19.9563953,73.5930233 L18.75,73.5930233 Z M22.4563953,73.5930233 L22.4563953,66.5290698 L23.4447674,66.5290698 L23.5465116,67.5465116 L23.5901163,67.5465116 C23.9292653,67.2073626 24.2853664,66.9239352 24.6584302,66.6962209 C25.0314941,66.4685066 25.4651138,66.3546512 25.9593023,66.3546512 C26.7054301,66.3546512 27.2504828,66.587207 27.5944767,67.0523256 C27.9384707,67.5174442 28.1104651,68.2054218 28.1104651,69.1162791 L28.1104651,73.5930233 L26.9186047,73.5930233 L26.9186047,69.2761628 C26.9186047,68.6075548 26.8120166,68.125486 26.5988372,67.8299419 C26.3856578,67.5343977 26.046514,67.3866279 25.5813953,67.3866279 C25.2131765,67.3866279 24.8885673,67.4786812 24.6075581,67.6627907 C24.326549,67.8469001 24.0067847,68.1182153 23.6482558,68.4767442 L23.6482558,73.5930233 L22.4563953,73.5930233 Z M32.8197674,73.7674419 C31.9282901,73.7674419 31.2185104,73.4476776 30.690407,72.8081395 C30.1623036,72.1686015 29.8982558,71.2577578 29.8982558,70.0755814 C29.8982558,69.5038731 29.9830418,68.9878899 30.1526163,68.5276163 C30.3221908,68.0673427 30.5474792,67.6773272 30.8284884,67.3575581 C31.1094975,67.0377891 31.4341067,66.7906985 31.8023256,66.6162791 C32.1705445,66.4418596 32.5581375,66.3546512 32.9651163,66.3546512 C33.3720951,66.3546512 33.7257737,66.4273249 34.0261628,66.5726744 C34.3265519,66.718024 34.6317814,66.9166654 34.9418605,67.1686047 L34.8837209,65.9622093 L34.8837209,63.244186 L36.0901163,63.244186 L36.0901163,73.5930233 L35.1017442,73.5930233 L35,72.7645349 L34.9563953,72.7645349 C34.6753862,73.0358541 34.3531995,73.2708323 33.9898256,73.4694767 C33.6264517,73.6681211 33.2364362,73.7674419 32.8197674,73.7674419 Z M33.0813953,72.7645349 C33.4108544,72.7645349 33.7209288,72.6845938 34.0116279,72.5247093 C34.302327,72.3648248 34.5930218,72.1201567 34.8837209,71.7906977 L34.8837209,68.0988372 C34.5833318,67.827518 34.2950595,67.636144 34.0188953,67.5247093 C33.7427312,67.4132746 33.4593038,67.3575581 33.1686047,67.3575581 C32.8875955,67.3575581 32.6235477,67.4229645 32.3764535,67.5537791 C32.1293592,67.6845937 31.9137606,67.8687004 31.7296512,68.1061047 C31.5455417,68.3435089 31.4001943,68.6269363 31.2936047,68.9563953 C31.187015,69.2858544 31.1337209,69.6540677 31.1337209,70.0610465 C31.1337209,70.913764 31.3032929,71.577517 31.6424419,72.0523256 C31.9815908,72.5271342 32.4612372,72.7645349 33.0813953,72.7645349 Z M38.4738372,73.5930233 L38.4738372,66.5290698 L39.6656977,66.5290698 L39.6656977,73.5930233 L38.4738372,73.5930233 Z M39.0843023,65.0755814 C38.851743,65.0755814 38.6555241,65.0029077 38.4956395,64.8575581 C38.335755,64.7122086 38.255814,64.5281019 38.255814,64.3052326 C38.255814,64.0726733 38.335755,63.8861441 38.4956395,63.7456395 C38.6555241,63.605135 38.851743,63.5348837 39.0843023,63.5348837 C39.3168616,63.5348837 39.5130806,63.605135 39.6729651,63.7456395 C39.8328496,63.8861441 39.9127907,64.0726733 39.9127907,64.3052326 C39.9127907,64.5281019 39.8328496,64.7122086 39.6729651,64.8575581 C39.5130806,65.0029077 39.3168616,65.0755814 39.0843023,65.0755814 Z M43.5755814,73.5930233 L41.0319767,66.5290698 L42.2674419,66.5290698 L43.6046512,70.5406977 C43.7112408,70.8895366 43.8202514,71.2383703 43.931686,71.5872093 C44.0431207,71.9360483 44.1521312,72.2800371 44.2587209,72.619186 L44.3168605,72.619186 C44.4234501,72.2800371 44.5300382,71.9360483 44.6366279,71.5872093 L44.9563953,70.5406977 L46.2936047,66.5290698 L47.4709302,66.5290698 L44.9709302,73.5930233 L43.5755814,73.5930233 Z M48.8372093,73.5930233 L48.8372093,66.5290698 L50.0290698,66.5290698 L50.0290698,73.5930233 L48.8372093,73.5930233 Z M49.4476744,65.0755814 C49.2151151,65.0755814 49.0188961,65.0029077 48.8590116,64.8575581 C48.6991271,64.7122086 48.619186,64.5281019 48.619186,64.3052326 C48.619186,64.0726733 48.6991271,63.8861441 48.8590116,63.7456395 C49.0188961,63.605135 49.2151151,63.5348837 49.4476744,63.5348837 C49.6802337,63.5348837 49.8764527,63.605135 50.0363372,63.7456395 C50.1962217,63.8861441 50.2761628,64.0726733 50.2761628,64.3052326 C50.2761628,64.5281019 50.1962217,64.7122086 50.0363372,64.8575581 C49.8764527,65.0029077 49.6802337,65.0755814 49.4476744,65.0755814 Z M54.8255814,73.7674419 C53.9341041,73.7674419 53.2243243,73.4476776 52.6962209,72.8081395 C52.1681175,72.1686015 51.9040698,71.2577578 51.9040698,70.0755814 C51.9040698,69.5038731 51.9888557,68.9878899 52.1584302,68.5276163 C52.3280047,68.0673427 52.5532932,67.6773272 52.8343023,67.3575581 C53.1153115,67.0377891 53.4399206,66.7906985 53.8081395,66.6162791 C54.1763584,66.4418596 54.5639515,66.3546512 54.9709302,66.3546512 C55.377909,66.3546512 55.7315876,66.4273249 56.0319767,66.5726744 C56.3323658,66.718024 56.6375953,66.9166654 56.9476744,67.1686047 L56.8895349,65.9622093 L56.8895349,63.244186 L58.0959302,63.244186 L58.0959302,73.5930233 L57.1075581,73.5930233 L57.005814,72.7645349 L56.9622093,72.7645349 C56.6812001,73.0358541 56.3590134,73.2708323 55.9956395,73.4694767 C55.6322656,73.6681211 55.2422501,73.7674419 54.8255814,73.7674419 Z M55.0872093,72.7645349 C55.4166683,72.7645349 55.7267427,72.6845938 56.0174419,72.5247093 C56.308141,72.3648248 56.5988358,72.1201567 56.8895349,71.7906977 L56.8895349,68.0988372 C56.5891458,67.827518 56.3008735,67.636144 56.0247093,67.5247093 C55.7485451,67.4132746 55.4651177,67.3575581 55.1744186,67.3575581 C54.8934094,67.3575581 54.6293617,67.4229645 54.3822674,67.5537791 C54.1351732,67.6845937 53.9195746,67.8687004 53.7354651,68.1061047 C53.5513557,68.3435089 53.4060083,68.6269363 53.2994186,68.9563953 C53.1928289,69.2858544 53.1395349,69.6540677 53.1395349,70.0610465 C53.1395349,70.913764 53.3091068,71.577517 53.6482558,72.0523256 C53.9874048,72.5271342 54.4670512,72.7645349 55.0872093,72.7645349 Z M62.5436047,73.7674419 C61.7877869,73.7674419 61.2378893,73.534886 60.8938953,73.0697674 C60.5499014,72.6046488 60.377907,71.9166712 60.377907,71.005814 L60.377907,66.5290698 L61.5843023,66.5290698 L61.5843023,70.8459302 C61.5843023,71.5145382 61.688468,71.996607 61.8968023,72.2921512 C62.1051367,72.5876953 62.4418581,72.7354651 62.9069767,72.7354651 C63.2751956,72.7354651 63.5998048,72.6409893 63.880814,72.4520349 C64.1618231,72.2630805 64.4718975,71.9602734 64.8110465,71.5436047 L64.8110465,66.5290698 L66.002907,66.5290698 L66.002907,73.5930233 L65.0145349,73.5930233 L64.9127907,72.4883721 L64.869186,72.4883721 C64.539727,72.8759709 64.1933158,73.1860453 63.8299419,73.4186047 C63.466568,73.651164 63.0377932,73.7674419 62.5436047,73.7674419 Z M70.0145349,73.7674419 C69.4234467,73.7674419 68.931688,73.593025 68.5392442,73.244186 C68.1468004,72.8953471 67.9505814,72.401166 67.9505814,71.7616279 C67.9505814,70.9864302 68.2945702,70.3929284 68.9825581,69.9811047 C69.6705461,69.5692809 70.7703413,69.2810086 72.2819767,69.1162791 C72.2819767,68.8934097 72.2601746,68.6753887 72.2165698,68.4622093 C72.1729649,68.2490299 72.0978687,68.0600783 71.9912791,67.8953488 C71.8846894,67.7306193 71.7369195,67.5973842 71.5479651,67.4956395 C71.3590107,67.3938948 71.1191875,67.3430233 70.8284884,67.3430233 C70.4215096,67.3430233 70.0387615,67.4205419 69.6802326,67.5755814 C69.3217036,67.7306209 69.0019394,67.9050378 68.7209302,68.0988372 L68.255814,67.2703488 C68.585273,67.0571695 68.9874007,66.8512607 69.4622093,66.6526163 C69.9370179,66.4539719 70.4602685,66.3546512 71.0319767,66.3546512 C71.8943842,66.3546512 72.5193779,66.6186989 72.9069767,67.1468023 C73.2945756,67.6749057 73.4883721,68.3798406 73.4883721,69.2616279 L73.4883721,73.5930233 L72.5,73.5930233 L72.3982558,72.75 L72.3546512,72.75 C72.0155022,73.0310092 71.6521337,73.2708323 71.2645349,73.4694767 C70.876936,73.6681211 70.4602735,73.7674419 70.0145349,73.7674419 Z M70.3633721,72.8081395 C70.7025211,72.8081395 71.0222853,72.7281985 71.3226744,72.568314 C71.6230635,72.4084294 71.9428278,72.1734512 72.2819767,71.8633721 L72.2819767,69.9011628 C71.6908885,69.9786826 71.194285,70.0707359 70.7921512,70.1773256 C70.3900174,70.2839153 70.0654082,70.409883 69.818314,70.5552326 C69.5712197,70.7005821 69.3919579,70.8677316 69.2805233,71.056686 C69.1690886,71.2456405 69.1133721,71.4515493 69.1133721,71.6744186 C69.1133721,72.0813974 69.2344949,72.3720922 69.4767442,72.5465116 C69.7189935,72.7209311 70.0145331,72.8081395 70.3633721,72.8081395 Z M76.9767442,73.7674419 C76.5213156,73.7674419 76.1967064,73.6317843 76.002907,73.3604651 C75.8091076,73.0891459 75.7122093,72.6918631 75.7122093,72.1686047 L75.7122093,63.244186 L76.9040698,63.244186 L76.9040698,72.255814 C76.9040698,72.4496134 76.9379842,72.5852709 77.005814,72.6627907 C77.0736437,72.7403105 77.1511624,72.7790698 77.2383721,72.7790698 L77.3473837,72.7790698 C77.3812986,72.7790698 77.4321702,72.7693799 77.5,72.75 L77.6598837,73.6511628 C77.582364,73.6899227 77.4903106,73.7189922 77.3837209,73.7383721 C77.2771312,73.757752 77.1414737,73.7674419 76.9767442,73.7674419 Z M81.2645349,73.7674419 C80.7606564,73.7674419 80.28101,73.6753885 79.8255814,73.4912791 C79.3701528,73.3071696 78.9728699,73.0746138 78.6337209,72.7936047 L79.2296512,71.994186 C79.5397302,72.2461253 79.857072,72.4496116 80.181686,72.6046512 C80.5063001,72.7596907 80.8817808,72.8372093 81.3081395,72.8372093 C81.7732581,72.8372093 82.1220919,72.7306212 82.3546512,72.5174419 C82.5872105,72.3042625 82.7034884,72.0426372 82.7034884,71.7325581 C82.7034884,71.5484487 82.6550392,71.3885666 82.5581395,71.252907 C82.4612398,71.1172474 82.3376945,70.998547 82.1875,70.8968023 C82.0373055,70.7950576 81.865311,70.7054267 81.6715116,70.627907 L81.0901163,70.3953488 C80.838177,70.3081391 80.5862416,70.2088184 80.3343023,70.0973837 C80.0823631,69.9859491 79.8570746,69.8502915 79.6584302,69.690407 C79.4597858,69.5305225 79.2974812,69.3439933 79.1715116,69.130814 C79.045542,68.9176346 78.9825581,68.6608542 78.9825581,68.3604651 C78.9825581,68.079456 79.0382746,67.8154082 79.1497093,67.568314 C79.261144,67.3212197 79.4210261,67.1080435 79.6293605,66.9287791 C79.8376948,66.7495146 80.0920528,66.6090121 80.3924419,66.5072674 C80.692831,66.4055227 81.0319749,66.3546512 81.4098837,66.3546512 C81.8556224,66.3546512 82.2650175,66.4321698 82.6380814,66.5872093 C83.0111453,66.7422488 83.333332,66.9312004 83.6046512,67.1540698 L83.0377907,67.9098837 C82.7955414,67.7257743 82.543606,67.575582 82.2819767,67.4593023 C82.0203475,67.3430227 81.7344977,67.2848837 81.4244186,67.2848837 C80.9786799,67.2848837 80.6516483,67.3866269 80.443314,67.5901163 C80.2349796,67.7936057 80.130814,68.0310064 80.130814,68.3023256 C80.130814,68.4670551 80.1744182,68.60998 80.2616279,68.7311047 C80.3488376,68.8522293 80.4651156,68.9588174 80.6104651,69.0508721 C80.7558147,69.1429268 80.9229642,69.2252903 81.1119186,69.2979651 C81.300873,69.3706399 81.497092,69.445736 81.7005814,69.5232558 C81.9525206,69.6201555 82.2068786,69.7218987 82.4636628,69.8284884 C82.720447,69.9350781 82.9505804,70.0683132 83.1540698,70.2281977 C83.3575592,70.3880822 83.5247086,70.5843012 83.6555233,70.8168605 C83.7863379,71.0494198 83.8517442,71.3304247 83.8517442,71.6598837 C83.8517442,71.9505828 83.7960277,72.221898 83.684593,72.4738372 C83.5731584,72.7257765 83.4084313,72.9486424 83.190407,73.1424419 C82.9723826,73.3362413 82.7010675,73.488856 82.3764535,73.6002907 C82.0518395,73.7117254 81.6812036,73.7674419 81.2645349,73.7674419 Z" id="Individuals" fill="#FFFFFF" fill-rule="nonzero"></path>
            <path d="M16.5348837,57.9069767 C14.3546512,57.9069767 12.505814,56.2151163 12.505814,52.4825581 C12.505814,48.1744186 14.5988372,46.3953488 16.8662791,46.3953488 C18.2093023,46.3953488 19.1686047,46.9534884 19.8313953,47.6511628 L18.75,48.872093 C18.3488372,48.3837209 17.6511628,48.0348837 16.9883721,48.0348837 C15.5930233,48.0348837 14.4593023,49.0639535 14.372093,52.1337209 C15.0174419,51.3139535 15.9767442,50.8255814 16.7790698,50.8255814 C18.6976744,50.8255814 20.0232558,51.9418605 20.0232558,54.2616279 C20.0232558,56.4767442 18.4360465,57.9069767 16.5348837,57.9069767 Z M16.5,56.372093 C17.4244186,56.372093 18.1569767,55.622093 18.1569767,54.2616279 C18.1569767,52.9534884 17.5116279,52.2906977 16.4127907,52.2906977 C15.7848837,52.2906977 15.0523256,52.6395349 14.4244186,53.5639535 C14.6337209,55.5348837 15.4186047,56.372093 16.5,56.372093 Z M25.1686047,57.9069767 C23.005814,57.9069767 21.4011628,56.6511628 21.4011628,54.8546512 C21.4011628,53.4767442 22.3604651,52.5697674 23.4069767,52.0116279 L23.4069767,51.9418605 C22.5523256,51.3313953 21.872093,50.5116279 21.872093,49.3430233 C21.872093,47.5465116 23.3023256,46.3953488 25.2209302,46.3953488 C27.2093023,46.3953488 28.4825581,47.5988372 28.4825581,49.3953488 C28.4825581,50.494186 27.7151163,51.4186047 27,51.9418605 L27,52.0116279 C28.0290698,52.5872093 28.9186047,53.4069767 28.9186047,54.8895349 C28.9186047,56.5988372 27.4186047,57.9069767 25.1686047,57.9069767 Z M25.9011628,51.4360465 C26.494186,50.8430233 26.8255814,50.2151163 26.8255814,49.5174419 C26.8255814,48.5406977 26.2151163,47.8255814 25.1860465,47.8255814 C24.3313953,47.8255814 23.6686047,48.3837209 23.6686047,49.3430233 C23.6686047,50.4593023 24.6627907,50.9476744 25.9011628,51.4360465 Z M25.2034884,56.4767442 C26.2674419,56.4767442 27.0348837,55.8488372 27.0348837,54.8197674 C27.0348837,53.6162791 25.8662791,53.1802326 24.3662791,52.5697674 C23.6686047,53.0755814 23.1627907,53.7906977 23.1627907,54.6453488 C23.1627907,55.744186 24.0697674,56.4767442 25.2034884,56.4767442 Z M30.8895349,60.872093 L30.4534884,59.7732558 C31.5872093,59.3372093 32.2325581,58.5348837 32.2151163,57.6627907 L32.0581395,57.6627907 C31.377907,57.6627907 30.7674419,57.2093023 30.7674419,56.4244186 C30.7674419,55.6744186 31.377907,55.1860465 32.1104651,55.1860465 C33.0523256,55.1860465 33.6104651,55.9534884 33.6104651,57.244186 C33.6104651,58.9534884 32.6162791,60.2790698 30.8895349,60.872093 Z M38.8953488,57.9069767 C36.5930233,57.9069767 35.127907,55.8488372 35.127907,52.0988372 C35.127907,48.3488372 36.5930233,46.3953488 38.8953488,46.3953488 C41.1976744,46.3953488 42.6627907,48.3662791 42.6627907,52.0988372 C42.6627907,55.8488372 41.1976744,57.9069767 38.8953488,57.9069767 Z M38.8953488,56.3372093 C39.9767442,56.3372093 40.744186,55.2383721 40.744186,52.0988372 C40.744186,48.9593023 39.9767442,47.9651163 38.8953488,47.9651163 C37.8313953,47.9651163 37.0465116,48.9593023 37.0465116,52.0988372 C37.0465116,55.2383721 37.8313953,56.3372093 38.8953488,56.3372093 Z M47.8430233,57.9069767 C45.5406977,57.9069767 44.0755814,55.8488372 44.0755814,52.0988372 C44.0755814,48.3488372 45.5406977,46.3953488 47.8430233,46.3953488 C50.1453488,46.3953488 51.6104651,48.3662791 51.6104651,52.0988372 C51.6104651,55.8488372 50.1453488,57.9069767 47.8430233,57.9069767 Z M47.8430233,56.3372093 C48.9244186,56.3372093 49.6918605,55.2383721 49.6918605,52.0988372 C49.6918605,48.9593023 48.9244186,47.9651163 47.8430233,47.9651163 C46.7790698,47.9651163 45.994186,48.9593023 45.994186,52.0988372 C45.994186,55.2383721 46.7790698,56.3372093 47.8430233,56.3372093 Z M56.7906977,57.9069767 C54.4883721,57.9069767 53.0232558,55.8488372 53.0232558,52.0988372 C53.0232558,48.3488372 54.4883721,46.3953488 56.7906977,46.3953488 C59.0930233,46.3953488 60.5581395,48.3662791 60.5581395,52.0988372 C60.5581395,55.8488372 59.0930233,57.9069767 56.7906977,57.9069767 Z M56.7906977,56.3372093 C57.872093,56.3372093 58.6395349,55.2383721 58.6395349,52.0988372 C58.6395349,48.9593023 57.872093,47.9651163 56.7906977,47.9651163 C55.7267442,47.9651163 54.9418605,48.9593023 54.9418605,52.0988372 C54.9418605,55.2383721 55.7267442,56.3372093 56.7906977,56.3372093 Z M62.5290698,60.872093 L62.0930233,59.7732558 C63.2267442,59.3372093 63.872093,58.5348837 63.8546512,57.6627907 L63.6976744,57.6627907 C63.0174419,57.6627907 62.4069767,57.2093023 62.4069767,56.4244186 C62.4069767,55.6744186 63.0174419,55.1860465 63.75,55.1860465 C64.6918605,55.1860465 65.25,55.9534884 65.25,57.244186 C65.25,58.9534884 64.255814,60.2790698 62.5290698,60.872093 Z M70.5348837,57.9069767 C68.2325581,57.9069767 66.7674419,55.8488372 66.7674419,52.0988372 C66.7674419,48.3488372 68.2325581,46.3953488 70.5348837,46.3953488 C72.8372093,46.3953488 74.3023256,48.3662791 74.3023256,52.0988372 C74.3023256,55.8488372 72.8372093,57.9069767 70.5348837,57.9069767 Z M70.5348837,56.3372093 C71.6162791,56.3372093 72.3837209,55.2383721 72.3837209,52.0988372 C72.3837209,48.9593023 71.6162791,47.9651163 70.5348837,47.9651163 C69.4709302,47.9651163 68.6860465,48.9593023 68.6860465,52.0988372 C68.6860465,55.2383721 69.4709302,56.3372093 70.5348837,56.3372093 Z M79.4825581,57.9069767 C77.1802326,57.9069767 75.7151163,55.8488372 75.7151163,52.0988372 C75.7151163,48.3488372 77.1802326,46.3953488 79.4825581,46.3953488 C81.7848837,46.3953488 83.25,48.3662791 83.25,52.0988372 C83.25,55.8488372 81.7848837,57.9069767 79.4825581,57.9069767 Z M79.4825581,56.3372093 C80.5639535,56.3372093 81.3313953,55.2383721 81.3313953,52.0988372 C81.3313953,48.9593023 80.5639535,47.9651163 79.4825581,47.9651163 C78.4186047,47.9651163 77.6337209,48.9593023 77.6337209,52.0988372 C77.6337209,55.2383721 78.4186047,56.3372093 79.4825581,56.3372093 Z M88.4302326,57.9069767 C86.127907,57.9069767 84.6627907,55.8488372 84.6627907,52.0988372 C84.6627907,48.3488372 86.127907,46.3953488 88.4302326,46.3953488 C90.7325581,46.3953488 92.1976744,48.3662791 92.1976744,52.0988372 C92.1976744,55.8488372 90.7325581,57.9069767 88.4302326,57.9069767 Z M88.4302326,56.3372093 C89.5116279,56.3372093 90.2790698,55.2383721 90.2790698,52.0988372 C90.2790698,48.9593023 89.5116279,47.9651163 88.4302326,47.9651163 C87.3662791,47.9651163 86.5813953,48.9593023 86.5813953,52.0988372 C86.5813953,55.2383721 87.3662791,56.3372093 88.4302326,56.3372093 Z" id="68,000,000" fill="#FFFFFF" fill-rule="nonzero"></path>
        </g>
    </g>
</svg>