<?xml version="1.0" encoding="UTF-8"?>
<svg width="250px" height="100px" viewBox="0 0 250 100" version="1.1" xmlns="http://www.w3.org/2000/svg" xmlns:xlink="http://www.w3.org/1999/xlink">
    <!-- Generator: Sketch 53.2 (72643) - https://sketchapp.com -->
    <title>revenue-4-outline</title>
    <desc>Created with Sketch.</desc>
    <g id="revenue-4-outline" stroke="none" stroke-width="1" fill="none" fill-rule="evenodd">
        <g id="Group-2" transform="translate(4.000000, 3.000000)">
            <path d="M126.117647,14.3796791 L126.117647,5.45989305 L123.085561,5.45989305 L123.085561,3.88770053 L131.010695,3.88770053 L131.010695,5.45989305 L127.97861,5.45989305 L127.97861,14.3796791 L126.117647,14.3796791 Z M132.59893,14.3796791 L132.59893,3.05347594 L134.44385,3.05347594 L134.44385,5.97326203 L134.379679,7.4973262 C135.037433,6.87165775 135.823529,6.31016043 136.898396,6.31016043 C138.582888,6.31016043 139.320856,7.44919786 139.320856,9.43850267 L139.320856,14.3796791 L137.475936,14.3796791 L137.475936,9.67914439 C137.475936,8.37967914 137.106952,7.89839572 136.240642,7.89839572 C135.550802,7.89839572 135.101604,8.23529412 134.44385,8.87700535 L134.44385,14.3796791 L132.59893,14.3796791 Z M141.550802,14.3796791 L141.550802,6.5026738 L143.074866,6.5026738 L143.203209,7.89839572 L143.26738,7.89839572 C143.828877,6.87165775 144.663102,6.31016043 145.497326,6.31016043 C145.898396,6.31016043 146.15508,6.35828877 146.395722,6.47058824 L146.074866,8.07486631 C145.802139,7.99465241 145.593583,7.94652406 145.256684,7.94652406 C144.631016,7.94652406 143.877005,8.37967914 143.395722,9.56684492 L143.395722,14.3796791 L141.550802,14.3796791 Z M150.743316,14.5721925 C148.561497,14.5721925 146.860963,13.0481283 146.860963,10.4491979 C146.860963,7.88235294 148.641711,6.31016043 150.486631,6.31016043 C152.620321,6.31016043 153.743316,7.85026738 153.743316,10.0481283 C153.743316,10.4010695 153.71123,10.7540107 153.663102,10.9465241 L148.657754,10.9465241 C148.818182,12.342246 149.716578,13.144385 150.983957,13.144385 C151.657754,13.144385 152.235294,12.9358289 152.812834,12.5668449 L153.438503,13.7219251 C152.684492,14.2192513 151.737968,14.5721925 150.743316,14.5721925 Z M148.641711,9.69518717 L152.139037,9.69518717 C152.139037,8.47593583 151.609626,7.73796791 150.534759,7.73796791 C149.604278,7.73796791 148.802139,8.42780749 148.641711,9.69518717 Z M158.877005,14.5721925 C156.695187,14.5721925 154.994652,13.0481283 154.994652,10.4491979 C154.994652,7.88235294 156.775401,6.31016043 158.620321,6.31016043 C160.754011,6.31016043 161.877005,7.85026738 161.877005,10.0481283 C161.877005,10.4010695 161.84492,10.7540107 161.796791,10.9465241 L156.791444,10.9465241 C156.951872,12.342246 157.850267,13.144385 159.117647,13.144385 C159.791444,13.144385 160.368984,12.9358289 160.946524,12.5668449 L161.572193,13.7219251 C160.818182,14.2192513 159.871658,14.5721925 158.877005,14.5721925 Z M156.775401,9.69518717 L160.272727,9.69518717 C160.272727,8.47593583 159.743316,7.73796791 158.668449,7.73796791 C157.737968,7.73796791 156.935829,8.42780749 156.775401,9.69518717 Z M163.304813,11.0106952 L163.304813,9.6631016 L167.122995,9.6631016 L167.122995,11.0106952 L163.304813,11.0106952 Z M169.128342,14.3796791 L169.128342,3.88770053 L172.481283,3.88770053 C174.647059,3.88770053 176.235294,4.54545455 176.235294,6.47058824 C176.235294,7.46524064 175.68984,8.42780749 174.775401,8.7486631 L174.775401,8.81283422 C175.930481,9.06951872 176.780749,9.88770053 176.780749,11.2994652 C176.780749,13.4010695 175.064171,14.3796791 172.754011,14.3796791 L169.128342,14.3796791 Z M170.989305,8.21925134 L172.320856,8.21925134 C173.780749,8.21925134 174.406417,7.64171123 174.406417,6.74331551 C174.406417,5.71657754 173.716578,5.3315508 172.352941,5.3315508 L170.989305,5.3315508 L170.989305,8.21925134 Z M170.989305,12.9358289 L172.561497,12.9358289 C174.101604,12.9358289 174.967914,12.3743316 174.967914,11.2032086 C174.967914,10.0962567 174.13369,9.61497326 172.561497,9.61497326 L170.989305,9.61497326 L170.989305,12.9358289 Z M181.914439,14.5721925 C179.73262,14.5721925 178.032086,13.0481283 178.032086,10.4491979 C178.032086,7.88235294 179.812834,6.31016043 181.657754,6.31016043 C183.791444,6.31016043 184.914439,7.85026738 184.914439,10.0481283 C184.914439,10.4010695 184.882353,10.7540107 184.834225,10.9465241 L179.828877,10.9465241 C179.989305,12.342246 180.887701,13.144385 182.15508,13.144385 C182.828877,13.144385 183.406417,12.9358289 183.983957,12.5668449 L184.609626,13.7219251 C183.855615,14.2192513 182.909091,14.5721925 181.914439,14.5721925 Z M179.812834,9.69518717 L183.31016,9.69518717 C183.31016,8.47593583 182.780749,7.73796791 181.705882,7.73796791 C180.775401,7.73796791 179.973262,8.42780749 179.812834,9.69518717 Z M189.438503,14.5721925 C187.465241,14.5721925 186.197861,13.0481283 186.197861,10.4491979 C186.197861,7.88235294 187.818182,6.31016043 189.534759,6.31016043 C190.433155,6.31016043 190.994652,6.64705882 191.604278,7.17647059 L191.540107,5.90909091 L191.540107,3.05347594 L193.385027,3.05347594 L193.385027,14.3796791 L191.860963,14.3796791 L191.73262,13.5294118 L191.668449,13.5294118 C191.090909,14.1069519 190.28877,14.5721925 189.438503,14.5721925 Z M189.887701,13.0481283 C190.497326,13.0481283 191.010695,12.7754011 191.540107,12.1657754 L191.540107,8.49197861 C190.994652,8.01069519 190.465241,7.8342246 189.935829,7.8342246 C188.925134,7.8342246 188.106952,8.78074866 188.106952,10.4331551 C188.106952,12.1336898 188.748663,13.0481283 189.887701,13.0481283 Z M195.727273,14.3796791 L195.727273,6.5026738 L197.251337,6.5026738 L197.379679,7.89839572 L197.44385,7.89839572 C198.005348,6.87165775 198.839572,6.31016043 199.673797,6.31016043 C200.074866,6.31016043 200.331551,6.35828877 200.572193,6.47058824 L200.251337,8.07486631 C199.97861,7.99465241 199.770053,7.94652406 199.433155,7.94652406 C198.807487,7.94652406 198.053476,8.37967914 197.572193,9.56684492 L197.572193,14.3796791 L195.727273,14.3796791 Z M204.775401,14.5721925 C202.818182,14.5721925 201.037433,13.0641711 201.037433,10.4491979 C201.037433,7.81818182 202.818182,6.31016043 204.775401,6.31016043 C206.748663,6.31016043 208.529412,7.81818182 208.529412,10.4491979 C208.529412,13.0641711 206.748663,14.5721925 204.775401,14.5721925 Z M204.775401,13.0641711 C205.930481,13.0641711 206.636364,12.0213904 206.636364,10.4491979 C206.636364,8.86096257 205.930481,7.81818182 204.775401,7.81818182 C203.620321,7.81818182 202.930481,8.86096257 202.930481,10.4491979 C202.930481,12.0213904 203.620321,13.0641711 204.775401,13.0641711 Z M213.582888,14.5721925 C211.625668,14.5721925 209.84492,13.0641711 209.84492,10.4491979 C209.84492,7.81818182 211.625668,6.31016043 213.582888,6.31016043 C215.55615,6.31016043 217.336898,7.81818182 217.336898,10.4491979 C217.336898,13.0641711 215.55615,14.5721925 213.582888,14.5721925 Z M213.582888,13.0641711 C214.737968,13.0641711 215.44385,12.0213904 215.44385,10.4491979 C215.44385,8.86096257 214.737968,7.81818182 213.582888,7.81818182 C212.427807,7.81818182 211.737968,8.86096257 211.737968,10.4491979 C211.737968,12.0213904 212.427807,13.0641711 213.582888,13.0641711 Z M219.165775,14.3796791 L219.165775,6.5026738 L220.68984,6.5026738 L220.818182,7.57754011 L220.882353,7.57754011 C221.540107,6.87165775 222.31016,6.31016043 223.28877,6.31016043 C224.44385,6.31016043 225.101604,6.83957219 225.470588,7.72192513 C226.224599,6.9197861 227.010695,6.31016043 228.005348,6.31016043 C229.673797,6.31016043 230.44385,7.44919786 230.44385,9.43850267 L230.44385,14.3796791 L228.582888,14.3796791 L228.582888,9.67914439 C228.582888,8.37967914 228.197861,7.89839572 227.379679,7.89839572 C226.882353,7.89839572 226.336898,8.21925134 225.727273,8.87700535 L225.727273,14.3796791 L223.882353,14.3796791 L223.882353,9.67914439 C223.882353,8.37967914 223.497326,7.89839572 222.663102,7.89839572 C222.181818,7.89839572 221.620321,8.21925134 221.010695,8.87700535 L221.010695,14.3796791 L219.165775,14.3796791 Z M126.149733,24.8395722 L125.780749,26.1229947 L128.459893,26.1229947 L128.090909,24.8395722 C127.754011,23.7326203 127.449198,22.5294118 127.144385,21.3743316 L127.080214,21.3743316 C126.791444,22.5454545 126.486631,23.7326203 126.149733,24.8395722 Z M122.636364,30.4224599 L126.053476,19.9304813 L128.235294,19.9304813 L131.652406,30.4224599 L129.695187,30.4224599 L128.877005,27.5828877 L125.347594,27.5828877 L124.529412,30.4224599 L122.636364,30.4224599 Z M132.791444,33.5347594 L132.791444,22.5454545 L134.315508,22.5454545 L134.44385,23.3796791 L134.508021,23.3796791 C135.165775,22.8181818 136.016043,22.3529412 136.882353,22.3529412 C138.839572,22.3529412 139.97861,23.9251337 139.97861,26.3636364 C139.97861,29.0588235 138.358289,30.6149733 136.609626,30.6149733 C135.919786,30.6149733 135.229947,30.2941176 134.588235,29.7486631 L134.636364,31.0641711 L134.636364,33.5347594 L132.791444,33.5347594 Z M136.224599,29.0909091 C137.26738,29.0909091 138.069519,28.1604278 138.069519,26.3796791 C138.069519,24.8074866 137.55615,23.8770053 136.368984,23.8770053 C135.791444,23.8770053 135.245989,24.1657754 134.636364,24.7593583 L134.636364,28.4331551 C135.213904,28.9144385 135.759358,29.0909091 136.224599,29.0909091 Z M143.55615,30.6149733 C142.176471,30.6149733 141.229947,29.684492 141.229947,28.3048128 C141.229947,26.6203209 142.625668,25.7379679 145.86631,25.3850267 C145.834225,24.5508021 145.497326,23.8449198 144.42246,23.8449198 C143.652406,23.8449198 142.914439,24.197861 142.208556,24.6149733 L141.534759,23.3796791 C142.40107,22.8342246 143.524064,22.3529412 144.775401,22.3529412 C146.73262,22.3529412 147.71123,23.5561497 147.71123,25.7540107 L147.71123,30.4224599 L146.187166,30.4224599 L146.058824,29.5561497 L145.994652,29.5561497 C145.28877,30.1497326 144.486631,30.6149733 143.55615,30.6149733 Z M144.149733,29.171123 C144.791444,29.171123 145.272727,28.8502674 145.86631,28.3048128 L145.86631,26.540107 C143.716578,26.8128342 143.010695,27.3743316 143.010695,28.1604278 C143.010695,28.8663102 143.491979,29.171123 144.149733,29.171123 Z M149.925134,30.4224599 L149.925134,22.5454545 L151.449198,22.5454545 L151.57754,23.9411765 L151.641711,23.9411765 C152.203209,22.9144385 153.037433,22.3529412 153.871658,22.3529412 C154.272727,22.3529412 154.529412,22.4010695 154.770053,22.513369 L154.449198,24.1176471 C154.176471,24.0374332 153.967914,23.9893048 153.631016,23.9893048 C153.005348,23.9893048 152.251337,24.4224599 151.770053,25.6096257 L151.770053,30.4224599 L149.925134,30.4224599 Z M158.684492,30.6149733 C156.855615,30.6149733 156.181818,29.459893 156.181818,27.7593583 L156.181818,24.0053476 L155.058824,24.0053476 L155.058824,22.6256684 L156.278075,22.5454545 L156.502674,20.3957219 L158.042781,20.3957219 L158.042781,22.5454545 L160.048128,22.5454545 L160.048128,24.0053476 L158.042781,24.0053476 L158.042781,27.7593583 C158.042781,28.6898396 158.395722,29.1390374 159.149733,29.1390374 C159.42246,29.1390374 159.743316,29.0588235 159.967914,28.9625668 L160.28877,30.3262032 C159.855615,30.4705882 159.31016,30.6149733 158.684492,30.6149733 Z M161.700535,30.4224599 L161.700535,22.5454545 L163.224599,22.5454545 L163.352941,23.6203209 L163.417112,23.6203209 C164.074866,22.9144385 164.84492,22.3529412 165.823529,22.3529412 C166.97861,22.3529412 167.636364,22.8823529 168.005348,23.7647059 C168.759358,22.9625668 169.545455,22.3529412 170.540107,22.3529412 C172.208556,22.3529412 172.97861,23.4919786 172.97861,25.4812834 L172.97861,30.4224599 L171.117647,30.4224599 L171.117647,25.7219251 C171.117647,24.4224599 170.73262,23.9411765 169.914439,23.9411765 C169.417112,23.9411765 168.871658,24.2620321 168.262032,24.9197861 L168.262032,30.4224599 L166.417112,30.4224599 L166.417112,25.7219251 C166.417112,24.4224599 166.032086,23.9411765 165.197861,23.9411765 C164.716578,23.9411765 164.15508,24.2620321 163.545455,24.9197861 L163.545455,30.4224599 L161.700535,30.4224599 Z M178.593583,30.6149733 C176.411765,30.6149733 174.71123,29.0909091 174.71123,26.4919786 C174.71123,23.9251337 176.491979,22.3529412 178.336898,22.3529412 C180.470588,22.3529412 181.593583,23.8930481 181.593583,26.0909091 C181.593583,26.4438503 181.561497,26.7967914 181.513369,26.9893048 L176.508021,26.9893048 C176.668449,28.3850267 177.566845,29.1871658 178.834225,29.1871658 C179.508021,29.1871658 180.085561,28.9786096 180.663102,28.6096257 L181.28877,29.7647059 C180.534759,30.2620321 179.588235,30.6149733 178.593583,30.6149733 Z M176.491979,25.7379679 L179.989305,25.7379679 C179.989305,24.5187166 179.459893,23.7807487 178.385027,23.7807487 C177.454545,23.7807487 176.652406,24.4705882 176.491979,25.7379679 Z M183.358289,30.4224599 L183.358289,22.5454545 L184.882353,22.5454545 L185.010695,23.6042781 L185.074866,23.6042781 C185.780749,22.9144385 186.582888,22.3529412 187.657754,22.3529412 C189.342246,22.3529412 190.080214,23.4919786 190.080214,25.4812834 L190.080214,30.4224599 L188.235294,30.4224599 L188.235294,25.7219251 C188.235294,24.4224599 187.86631,23.9411765 187,23.9411765 C186.31016,23.9411765 185.860963,24.2780749 185.203209,24.9197861 L185.203209,30.4224599 L183.358289,30.4224599 Z M195.117647,30.6149733 C193.28877,30.6149733 192.614973,29.459893 192.614973,27.7593583 L192.614973,24.0053476 L191.491979,24.0053476 L191.491979,22.6256684 L192.71123,22.5454545 L192.935829,20.3957219 L194.475936,20.3957219 L194.475936,22.5454545 L196.481283,22.5454545 L196.481283,24.0053476 L194.475936,24.0053476 L194.475936,27.7593583 C194.475936,28.6898396 194.828877,29.1390374 195.582888,29.1390374 C195.855615,29.1390374 196.176471,29.0588235 196.40107,28.9625668 L196.721925,30.3262032 C196.28877,30.4705882 195.743316,30.6149733 195.117647,30.6149733 Z" id="Three-BedroomApartment" fill="#666666" fill-rule="nonzero"></path>
            <path d="M126.181818,89.4385027 C124.721925,89.4385027 123.71123,88.828877 123.053476,87.657754 L124.336898,86.7112299 C124.754011,87.4812834 125.331551,87.8181818 125.973262,87.8181818 C126.951872,87.8181818 127.449198,87.2887701 127.449198,85.7967914 L127.449198,78.7540107 L129.31016,78.7540107 L129.31016,85.9572193 C129.31016,87.8663102 128.379679,89.4385027 126.181818,89.4385027 Z M134.106952,89.4385027 C132.42246,89.4385027 131.684492,88.2994652 131.684492,86.3101604 L131.684492,81.368984 L133.529412,81.368984 L133.529412,86.0695187 C133.529412,87.368984 133.898396,87.8502674 134.748663,87.8502674 C135.438503,87.8502674 135.903743,87.5294118 136.497326,86.7593583 L136.497326,81.368984 L138.342246,81.368984 L138.342246,89.2459893 L136.834225,89.2459893 L136.68984,88.0909091 L136.641711,88.0909091 C135.951872,88.9090909 135.181818,89.4385027 134.106952,89.4385027 Z M140.684492,89.2459893 L140.684492,81.368984 L142.208556,81.368984 L142.336898,82.4278075 L142.40107,82.4278075 C143.106952,81.7379679 143.909091,81.1764706 144.983957,81.1764706 C146.668449,81.1764706 147.406417,82.315508 147.406417,84.3048128 L147.406417,89.2459893 L145.561497,89.2459893 L145.561497,84.5454545 C145.561497,83.2459893 145.192513,82.7647059 144.326203,82.7647059 C143.636364,82.7647059 143.187166,83.1016043 142.529412,83.7433155 L142.529412,89.2459893 L140.684492,89.2459893 Z M153.037433,89.4385027 C150.855615,89.4385027 149.15508,87.9144385 149.15508,85.315508 C149.15508,82.7486631 150.935829,81.1764706 152.780749,81.1764706 C154.914439,81.1764706 156.037433,82.7165775 156.037433,84.9144385 C156.037433,85.2673797 156.005348,85.6203209 155.957219,85.8128342 L150.951872,85.8128342 C151.112299,87.2085561 152.010695,88.0106952 153.278075,88.0106952 C153.951872,88.0106952 154.529412,87.802139 155.106952,87.4331551 L155.73262,88.5882353 C154.97861,89.0855615 154.032086,89.4385027 153.037433,89.4385027 Z M150.935829,84.5614973 L154.433155,84.5614973 C154.433155,83.342246 153.903743,82.6042781 152.828877,82.6042781 C151.898396,82.6042781 151.096257,83.2941176 150.935829,84.5614973 Z M159.518717,89.4385027 C158.139037,89.4385027 157.192513,88.5080214 157.192513,87.1283422 C157.192513,85.4438503 158.588235,84.5614973 161.828877,84.2085561 C161.796791,83.3743316 161.459893,82.6684492 160.385027,82.6684492 C159.614973,82.6684492 158.877005,83.0213904 158.171123,83.4385027 L157.497326,82.2032086 C158.363636,81.657754 159.486631,81.1764706 160.737968,81.1764706 C162.695187,81.1764706 163.673797,82.3796791 163.673797,84.5775401 L163.673797,89.2459893 L162.149733,89.2459893 L162.02139,88.3796791 L161.957219,88.3796791 C161.251337,88.973262 160.449198,89.4385027 159.518717,89.4385027 Z M160.112299,87.9946524 C160.754011,87.9946524 161.235294,87.6737968 161.828877,87.1283422 L161.828877,85.3636364 C159.679144,85.6363636 158.973262,86.197861 158.973262,86.9839572 C158.973262,87.6898396 159.454545,87.9946524 160.112299,87.9946524 Z M168.229947,89.4385027 C166.545455,89.4385027 165.807487,88.2994652 165.807487,86.3101604 L165.807487,81.368984 L167.652406,81.368984 L167.652406,86.0695187 C167.652406,87.368984 168.02139,87.8502674 168.871658,87.8502674 C169.561497,87.8502674 170.026738,87.5294118 170.620321,86.7593583 L170.620321,81.368984 L172.465241,81.368984 L172.465241,89.2459893 L170.957219,89.2459893 L170.812834,88.0909091 L170.764706,88.0909091 C170.074866,88.9090909 169.304813,89.4385027 168.229947,89.4385027 Z M174.791444,92.1657754 L174.390374,91.1550802 C175.433155,90.7540107 176.026738,90.0160428 176.010695,89.2139037 L175.86631,89.2139037 C175.240642,89.2139037 174.679144,88.7967914 174.679144,88.0748663 C174.679144,87.3850267 175.240642,86.9358289 175.914439,86.9358289 C176.780749,86.9358289 177.294118,87.6417112 177.294118,88.828877 C177.294118,90.4010695 176.379679,91.6203209 174.791444,92.1657754 Z M184.737968,83.6631016 L184.368984,84.9465241 L187.048128,84.9465241 L186.679144,83.6631016 C186.342246,82.5561497 186.037433,81.3529412 185.73262,80.197861 L185.668449,80.197861 C185.379679,81.368984 185.074866,82.5561497 184.737968,83.6631016 Z M181.224599,89.2459893 L184.641711,78.7540107 L186.823529,78.7540107 L190.240642,89.2459893 L188.283422,89.2459893 L187.465241,86.4064171 L183.935829,86.4064171 L183.117647,89.2459893 L181.224599,89.2459893 Z M191.540107,89.2459893 L191.540107,78.7540107 L193.40107,78.7540107 L193.40107,83.5187166 L193.449198,83.5187166 L197.187166,78.7540107 L199.256684,78.7540107 L196.032086,82.8449198 L199.802139,89.2459893 L197.748663,89.2459893 L194.909091,84.3048128 L193.40107,86.1818182 L193.40107,89.2459893 L191.540107,89.2459893 Z" id="Juneau,AK" fill="#666666" fill-rule="nonzero"></path>
            <g id="Group-25">
                <polygon id="Fill-1" fill="#0A2F5A" points="51.3637392 2.78542781 20.7765323 25.3227067 23.4472439 29.2657857 54.0326512 6.72850679 84.6216578 29.2657857 87.2905697 25.3227067 56.7015631 2.78542781 54.0326512 0.802190457"></polygon>
                <polygon id="Fill-2" fill="#0A2F5A" points="80.1158217 47.7914181 27.9505605 47.7914181 27.9505605 28.5727324 54.0331911 9.35404669 80.1158217 28.5727324"></polygon>
                <polygon id="Fill-3" fill="#0A2F5A" points="0.894487865 91.0592863 22.4905389 91.0592863 22.4905389 44.2678425 0.894487865 44.2678425"></polygon>
                <polygon id="Fill-4" fill="#0A2F5A" points="85.4772213 91.0592863 107.073272 91.0592863 107.073272 44.2678425 85.4772213 44.2678425"></polygon>
                <polygon id="Fill-5" fill="#0A2F5A" points="27.887752 91.0592863 80.0800082 91.0592863 80.0800082 33.8369498 27.887752 33.8369498"></polygon>
                <polygon id="Fill-6" fill="#FFFFFF" points="6.2575072 62.43732 17.1221205 62.43732 17.1221205 51.5727067 6.2575072 51.5727067"></polygon>
                <polygon id="Fill-7" fill="#FFFFFF" points="6.2575072 78.5281777 17.1221205 78.5281777 17.1221205 67.6635644 6.2575072 67.6635644"></polygon>
                <polygon id="Fill-8" fill="#FFFFFF" points="32.9538256 45.1784759 43.8184389 45.1784759 43.8184389 34.3138626 32.9538256 34.3138626"></polygon>
                <polygon id="Fill-9" fill="#FFFFFF" points="32.9538256 61.2693336 43.8184389 61.2693336 43.8184389 50.4047203 32.9538256 50.4047203"></polygon>
                <polygon id="Fill-10" fill="#FFFFFF" points="48.5497738 45.1784759 59.4143871 45.1784759 59.4143871 34.3138626 48.5497738 34.3138626"></polygon>
                <polygon id="Fill-11" fill="#FFFFFF" points="48.5497738 61.2693336 59.4143871 61.2693336 59.4143871 50.4047203 48.5497738 50.4047203"></polygon>
                <polygon id="Fill-12" fill="#FFFFFF" points="64.1475216 45.1784759 75.0121349 45.1784759 75.0121349 34.3138626 64.1475216 34.3138626"></polygon>
                <polygon id="Fill-13" fill="#FFFFFF" points="64.1475216 61.2693336 75.0121349 61.2693336 75.0121349 50.4047203 64.1475216 50.4047203"></polygon>
                <polygon id="Fill-14" fill="#FFFFFF" points="91.4755245 62.43732 102.340138 62.43732 102.340138 51.5727067 91.4755245 51.5727067"></polygon>
                <polygon id="Fill-15" fill="#FFFFFF" points="91.4755245 78.5281777 102.340138 78.5281777 102.340138 67.6635644 91.4755245 67.6635644"></polygon>
                <polygon id="Fill-16" fill="#FFFFFF" points="48.6019642 91.0592863 59.4647779 91.0592863 59.4647779 71.9863739 48.6019642 71.9863739"></polygon>
            </g>
            <path d="M130.622995,69.0989305 L130.622995,65.7566845 C128.584225,65.5561497 126.34492,64.6203209 124.840909,63.2165775 L126.578877,60.6096257 C128.149733,61.8462567 129.720588,62.6818182 131.525401,62.6818182 C133.697861,62.6818182 134.76738,61.6122995 134.76738,59.8074866 C134.76738,55.3957219 125.676471,56.0307487 125.676471,49.7473262 C125.676471,46.6390374 127.614973,44.4331551 130.622995,43.8983957 L130.622995,40.4893048 L133.296791,40.4893048 L133.296791,43.8315508 C135.435829,44.0989305 136.906417,45.1350267 138.143048,46.4385027 L136.171123,48.6778075 C134.934492,47.5414439 133.898396,46.9064171 132.294118,46.9064171 C130.489305,46.9064171 129.386364,47.842246 129.386364,49.5802139 C129.386364,53.5909091 138.477273,52.7887701 138.477273,59.540107 C138.477273,62.7152406 136.605615,65.0548128 133.296791,65.6564171 L133.296791,69.0989305 L130.622995,69.0989305 Z M148.437166,65.4224599 L148.437166,63.1831551 C154.352941,57.4679144 158.062834,53.7245989 158.062834,50.4826203 C158.062834,48.2433155 156.826203,46.8061497 154.553476,46.8061497 C152.915775,46.8061497 151.545455,47.9090909 150.409091,49.1791444 L148.270053,47.040107 C150.208556,44.9679144 152.147059,43.7647059 155.054813,43.7647059 C159.132353,43.7647059 161.772727,46.3382353 161.772727,50.2820856 C161.772727,54.0588235 158.263369,57.9358289 154.052139,62.381016 C155.15508,62.2807487 156.558824,62.1470588 157.59492,62.1470588 L162.808824,62.1470588 L162.808824,65.4224599 L148.437166,65.4224599 Z M166.719251,71.5053476 L165.88369,69.3997326 C168.05615,68.5641711 169.292781,67.026738 169.259358,65.355615 L168.958556,65.355615 C167.65508,65.355615 166.485294,64.486631 166.485294,62.9826203 C166.485294,61.5454545 167.65508,60.6096257 169.058824,60.6096257 C170.863636,60.6096257 171.933155,62.0802139 171.933155,64.5534759 C171.933155,67.828877 170.028075,70.368984 166.719251,71.5053476 Z M175.977273,65.4224599 L175.977273,62.2807487 L180.723262,62.2807487 L180.723262,48.3101604 L176.812834,48.3101604 L176.812834,45.9037433 C178.918449,45.5026738 180.389037,44.9679144 181.725936,44.1657754 L184.600267,44.1657754 L184.600267,62.2807487 L188.778075,62.2807487 L188.778075,65.4224599 L175.977273,65.4224599 Z M199.840909,65.8235294 C195.663102,65.8235294 192.120321,62.5815508 192.120321,55.4291444 C192.120321,47.1737968 196.131016,43.7647059 200.475936,43.7647059 C203.049465,43.7647059 204.887701,44.8342246 206.157754,46.171123 L204.085561,48.5106952 C203.316845,47.5748663 201.979947,46.9064171 200.709893,46.9064171 C198.036096,46.9064171 195.863636,48.8783422 195.696524,54.7606952 C196.933155,53.1898396 198.77139,52.2540107 200.308824,52.2540107 C203.985294,52.2540107 206.525401,54.3930481 206.525401,58.8382353 C206.525401,63.0828877 203.483957,65.8235294 199.840909,65.8235294 Z M199.774064,62.8823529 C201.545455,62.8823529 202.949198,61.4451872 202.949198,58.8382353 C202.949198,56.3315508 201.712567,55.0614973 199.606952,55.0614973 C198.403743,55.0614973 197,55.7299465 195.796791,57.5013369 C196.197861,61.2780749 197.701872,62.8823529 199.774064,62.8823529 Z M215.850267,65.8235294 C212.407754,65.8235294 210.168449,64.4532086 208.597594,62.8823529 L210.368984,60.4090909 C211.639037,61.6122995 213.209893,62.6818182 215.34893,62.6818182 C217.721925,62.6818182 219.459893,61.1778075 219.459893,58.6042781 C219.459893,56.0641711 217.889037,54.6270053 215.549465,54.6270053 C214.179144,54.6270053 213.410428,54.9946524 212.140374,55.8302139 L210.302139,54.6604278 L210.937166,44.1657754 L222.300802,44.1657754 L222.300802,47.407754 L214.279412,47.407754 L213.84492,52.5548128 C214.747326,52.1203209 215.549465,51.8529412 216.652406,51.8529412 C220.295455,51.8529412 223.336898,53.9251337 223.336898,58.5040107 C223.336898,63.1497326 219.760695,65.8235294 215.850267,65.8235294 Z" id="$2,165" fill="#0A2F5A" fill-rule="nonzero"></path>
        </g>
    </g>
</svg>