<?xml version="1.0" encoding="UTF-8"?>
<svg width="250px" height="100px" viewBox="0 0 250 100" version="1.1" xmlns="http://www.w3.org/2000/svg" xmlns:xlink="http://www.w3.org/1999/xlink">
    <!-- Generator: Sketch 58 (84663) - https://sketch.com -->
    <title>revenue-1-outline</title>
    <desc>Created with Sketch.</desc>
    <defs>
        <polygon id="path-1" points="0.469727974 0.315259549 16.3201098 0.315259549 16.3201098 17.4366975 0.469727974 17.4366975"></polygon>
    </defs>
    <g id="revenue-1-outline" stroke="none" stroke-width="1" fill="none" fill-rule="evenodd">
        <g id="Group-2" transform="translate(1.000000, 12.000000)">
            <g id="Group">
                <path d="M6.08128079,49.3965517 L6.08128079,46.3485222 C5.01395197,46.26642 4.03900277,45.9944604 3.15640394,45.5326355 C2.27380511,45.0708105 1.53489624,44.552548 0.939655172,43.9778325 L1.67857143,43.023399 C2.2738125,43.5570634 2.9819335,44.0496693 3.80295567,44.5012315 C4.62397783,44.9527937 5.56813916,45.1785714 6.63546798,45.1785714 C7.92857789,45.1785714 8.91892103,44.8296422 9.60652709,44.1317734 C10.2941332,43.4339046 10.637931,42.5205311 10.637931,41.3916256 C10.637931,40.3858735 10.4172846,39.5699949 9.97598522,38.9439655 C9.53468581,38.3179361 8.98563547,37.7842797 8.32881773,37.3429803 C7.80336355,36.9899408 7.24179123,36.6664618 6.64408983,36.3725374 L6.18903941,36.1576355 C5.41933113,35.808701 4.70607882,35.4084587 4.04926108,34.9568966 C3.39244335,34.5053344 2.84339301,33.956284 2.4020936,33.3097291 C1.96079418,32.6631741 1.74014778,31.8165077 1.74014778,30.7697044 C1.74014778,30.1334123 1.84790533,29.5381801 2.06342365,28.9839901 C2.27894196,28.4298002 2.58168935,27.9423256 2.97167488,27.5215517 C3.36166041,27.1007779 3.82347845,26.75698 4.35714286,26.4901478 C4.89080727,26.2233156 5.46551416,26.0591136 6.08128079,25.9975369 L6.08128079,22.9495074 L7.2820197,22.9495074 L7.2820197,25.9975369 C8.28777186,26.0591136 9.10878171,26.2951539 9.74507389,26.705665 C10.3813661,27.1161761 10.9663356,27.5985194 11.5,28.1527094 L10.6995074,29.0147783 C10.4121496,28.7274206 10.1299275,28.470855 9.85283251,28.2450739 C9.57573753,28.0192928 9.28325277,27.824303 8.97536946,27.6600985 C8.66748615,27.4958941 8.32881958,27.3727426 7.95935961,27.2906404 C7.58989963,27.2085382 7.16913208,27.1674877 6.69704433,27.1674877 C5.62971552,27.1674877 4.76765517,27.5010229 4.11083744,28.1681034 C3.4540197,28.835184 3.12561576,29.6818504 3.12561576,30.7081281 C3.12561576,31.6112525 3.34626216,32.3347674 3.78756158,32.8786946 C4.22886099,33.4226218 4.77791133,33.8947024 5.43472906,34.2949507 C5.96018325,34.6151494 6.52175557,34.91564 7.11945697,35.1964281 L7.57450739,35.4033251 C8.34421567,35.7419968 9.05746798,36.1525017 9.71428571,36.6348522 C10.3711034,37.1172027 10.9201538,37.7226975 11.3614532,38.4513547 C11.8027526,39.1800119 12.023399,40.1293045 12.023399,41.2992611 C12.023399,42.777101 11.5769749,43.9573026 10.6841133,44.8399015 C9.79125169,45.7225003 8.65723183,46.2253688 7.2820197,46.3485222 L7.2820197,49.3965517 L6.08128079,49.3965517 Z M16.1490148,46.0098522 L16.1490148,43.1157635 L20.520936,43.1157635 L20.520936,30.2463054 L16.9187192,30.2463054 L16.9187192,28.0295567 C17.9039458,27.8448267 18.7506122,27.6241803 19.4587438,27.3676108 C20.1668755,27.1110414 20.8288147,26.7980314 21.4445813,26.4285714 L24.0923645,26.4285714 L24.0923645,43.1157635 L27.9408867,43.1157635 L27.9408867,46.0098522 L16.1490148,46.0098522 Z M31.9433498,46.0098522 L31.9433498,43.1157635 L36.3152709,43.1157635 L36.3152709,30.2463054 L32.7130542,30.2463054 L32.7130542,28.0295567 C33.6982808,27.8448267 34.5449472,27.6241803 35.2530788,27.3676108 C35.9612104,27.1110414 36.6231496,26.7980314 37.2389163,26.4285714 L39.8866995,26.4285714 L39.8866995,43.1157635 L43.7352217,43.1157635 L43.7352217,46.0098522 L31.9433498,46.0098522 Z M53.341133,46.3793103 C51.2885776,46.3793103 49.6670831,45.5018561 48.476601,43.7469212 C47.2861188,41.9919863 46.6908867,39.4519871 46.6908867,36.1268473 C46.6908867,32.8017075 47.2861188,30.2924962 48.476601,28.5991379 C49.6670831,26.9057797 51.2885776,26.0591133 53.341133,26.0591133 C55.3936884,26.0591133 57.0151829,26.910911 58.205665,28.614532 C59.3961472,30.318153 59.9913793,32.8222331 59.9913793,36.1268473 C59.9913793,39.4519871 59.3961472,41.9919863 58.205665,43.7469212 C57.0151829,45.5018561 55.3936884,46.3793103 53.341133,46.3793103 Z M53.341133,43.6083744 C53.8132208,43.6083744 54.2493822,43.4800916 54.6496305,43.2235222 C55.0498788,42.9669527 55.3936767,42.5410539 55.6810345,41.9458128 C55.9683922,41.3505717 56.19417,40.580875 56.3583744,39.6366995 C56.5225788,38.692524 56.6046798,37.522585 56.6046798,36.1268473 C56.6046798,34.7516352 56.5225788,33.5970901 56.3583744,32.6631773 C56.19417,31.7292646 55.9683922,30.9749618 55.6810345,30.4002463 C55.3936767,29.8255308 55.0498788,29.4201572 54.6496305,29.1841133 C54.2493822,28.9480694 53.8132208,28.8300493 53.341133,28.8300493 C52.8690453,28.8300493 52.4328838,28.9480694 52.0326355,29.1841133 C51.6323872,29.4201572 51.2885893,29.8255308 51.0012315,30.4002463 C50.7138738,30.9749618 50.4880961,31.7292646 50.3238916,32.6631773 C50.1596872,33.5970901 50.0775862,34.7516352 50.0775862,36.1268473 C50.0775862,37.522585 50.1596872,38.692524 50.3238916,39.6366995 C50.4880961,40.580875 50.7138738,41.3505717 51.0012315,41.9458128 C51.2885893,42.5410539 51.6323872,42.9669527 52.0326355,43.2235222 C52.4328838,43.4800916 52.8690453,43.6083744 53.341133,43.6083744 Z M65.6256158,41.5763547 C66.4671635,41.5763547 67.1188401,41.894496 67.580665,42.5307882 C68.04249,43.1670804 68.273399,44.0599286 68.273399,45.2093596 C68.273399,46.7282506 67.8577628,48.0418664 67.0264778,49.1502463 C66.1951929,50.2586262 65.0098599,51.0796361 63.4704433,51.6133005 L62.7007389,49.6736453 C63.7064911,49.2836598 64.4813191,48.760266 65.0252463,48.1034483 C65.5691735,47.4466305 65.8308704,46.7282469 65.8103448,45.9482759 L65.5332512,45.9482759 C64.9380102,45.9482759 64.4094851,45.7584173 63.9476601,45.3786946 C63.4858351,44.9989718 63.2549261,44.4601841 63.2549261,43.7623153 C63.2549261,43.1054975 63.4858351,42.5769724 63.9476601,42.1767241 C64.4094851,41.7764758 64.968798,41.5763547 65.6256158,41.5763547 Z M77.6022167,26.0591133 C79.6547722,26.0591133 81.2762666,26.910911 82.4667488,28.614532 C83.6572309,30.318153 84.2524631,32.8222331 84.2524631,36.1268473 C84.2524631,39.4519871 83.6572309,41.9919863 82.4667488,43.7469212 C81.2762666,45.5018561 79.6547722,46.3793103 77.6022167,46.3793103 C75.5496613,46.3793103 73.9281669,45.5018561 72.7376847,43.7469212 C71.5472026,41.9919863 70.9519704,39.4519871 70.9519704,36.1268473 C70.9519704,32.8017075 71.5472026,30.2924962 72.7376847,28.5991379 C73.9281669,26.9057797 75.5496613,26.0591133 77.6022167,26.0591133 Z M93.3965517,26.0591133 C95.4491071,26.0591133 97.0706016,26.910911 98.2610837,28.614532 C99.4515659,30.318153 100.046798,32.8222331 100.046798,36.1268473 C100.046798,39.4519871 99.4515659,41.9919863 98.2610837,43.7469212 C97.0706016,45.5018561 95.4491071,46.3793103 93.3965517,46.3793103 C91.3439963,46.3793103 89.7225018,45.5018561 88.5320197,43.7469212 C87.3415376,41.9919863 86.7463054,39.4519871 86.7463054,36.1268473 C86.7463054,32.8017075 87.3415376,30.2924962 88.5320197,28.5991379 C89.7225018,26.9057797 91.3439963,26.0591133 93.3965517,26.0591133 Z M109.190887,26.0591133 C111.243442,26.0591133 112.864937,26.910911 114.055419,28.614532 C115.245901,30.318153 115.841133,32.8222331 115.841133,36.1268473 C115.841133,39.4519871 115.245901,41.9919863 114.055419,43.7469212 C112.864937,45.5018561 111.243442,46.3793103 109.190887,46.3793103 C107.138331,46.3793103 105.516837,45.5018561 104.326355,43.7469212 C103.135873,41.9919863 102.54064,39.4519871 102.54064,36.1268473 C102.54064,32.8017075 103.135873,30.2924962 104.326355,28.5991379 C105.516837,26.9057797 107.138331,26.0591133 109.190887,26.0591133 Z M77.6022167,28.8300493 C77.130129,28.8300493 76.6939675,28.9480694 76.2937192,29.1841133 C75.8934709,29.4201572 75.549673,29.8255308 75.2623153,30.4002463 C74.9749575,30.9749618 74.7491798,31.7292646 74.5849754,32.6631773 C74.4207709,33.5970901 74.33867,34.7516352 74.33867,36.1268473 C74.33867,37.522585 74.4207709,38.692524 74.5849754,39.6366995 C74.7491798,40.580875 74.9749575,41.3505717 75.2623153,41.9458128 C75.549673,42.5410539 75.8934709,42.9669527 76.2937192,43.2235222 C76.6939675,43.4800916 77.130129,43.6083744 77.6022167,43.6083744 C78.0743045,43.6083744 78.510466,43.4800916 78.9107143,43.2235222 C79.3109626,42.9669527 79.6547605,42.5410539 79.9421182,41.9458128 C80.229476,41.3505717 80.4552537,40.580875 80.6194581,39.6366995 C80.7836626,38.692524 80.8657635,37.522585 80.8657635,36.1268473 C80.8657635,34.7516352 80.7836626,33.5970901 80.6194581,32.6631773 C80.4552537,31.7292646 80.229476,30.9749618 79.9421182,30.4002463 C79.6547605,29.8255308 79.3109626,29.4201572 78.9107143,29.1841133 C78.510466,28.9480694 78.0743045,28.8300493 77.6022167,28.8300493 Z M93.3965517,28.8300493 C92.924464,28.8300493 92.4883025,28.9480694 92.0880542,29.1841133 C91.6878059,29.4201572 91.344008,29.8255308 91.0566502,30.4002463 C90.7692925,30.9749618 90.5435148,31.7292646 90.3793103,32.6631773 C90.2151059,33.5970901 90.1330049,34.7516352 90.1330049,36.1268473 C90.1330049,37.522585 90.2151059,38.692524 90.3793103,39.6366995 C90.5435148,40.580875 90.7692925,41.3505717 91.0566502,41.9458128 C91.344008,42.5410539 91.6878059,42.9669527 92.0880542,43.2235222 C92.4883025,43.4800916 92.924464,43.6083744 93.3965517,43.6083744 C93.8686395,43.6083744 94.304801,43.4800916 94.7050493,43.2235222 C95.1052976,42.9669527 95.4490954,42.5410539 95.7364532,41.9458128 C96.023811,41.3505717 96.2495887,40.580875 96.4137931,39.6366995 C96.5779975,38.692524 96.6600985,37.522585 96.6600985,36.1268473 C96.6600985,34.7516352 96.5779975,33.5970901 96.4137931,32.6631773 C96.2495887,31.7292646 96.023811,30.9749618 95.7364532,30.4002463 C95.4490954,29.8255308 95.1052976,29.4201572 94.7050493,29.1841133 C94.304801,28.9480694 93.8686395,28.8300493 93.3965517,28.8300493 Z M109.190887,28.8300493 C108.718799,28.8300493 108.282637,28.9480694 107.882389,29.1841133 C107.482141,29.4201572 107.138343,29.8255308 106.850985,30.4002463 C106.563627,30.9749618 106.33785,31.7292646 106.173645,32.6631773 C106.009441,33.5970901 105.92734,34.7516352 105.92734,36.1268473 C105.92734,37.522585 106.009441,38.692524 106.173645,39.6366995 C106.33785,40.580875 106.563627,41.3505717 106.850985,41.9458128 C107.138343,42.5410539 107.482141,42.9669527 107.882389,43.2235222 C108.282637,43.4800916 108.718799,43.6083744 109.190887,43.6083744 C109.662974,43.6083744 110.099136,43.4800916 110.499384,43.2235222 C110.899633,42.9669527 111.24343,42.5410539 111.530788,41.9458128 C111.818146,41.3505717 112.043924,40.580875 112.208128,39.6366995 C112.372333,38.692524 112.454433,37.522585 112.454433,36.1268473 C112.454433,34.7516352 112.372333,33.5970901 112.208128,32.6631773 C112.043924,31.7292646 111.818146,30.9749618 111.530788,30.4002463 C111.24343,29.8255308 110.899633,29.4201572 110.499384,29.1841133 C110.099136,28.9480694 109.662974,28.8300493 109.190887,28.8300493 Z" id="$110,000" fill="#0A2F5A" fill-rule="nonzero"></path>
                <g id="Group-32" transform="translate(170.182266, 0.000000)">
                    <g id="Group-4" transform="translate(0.000000, 9.513201)">
                        <path d="M27.8055852,57.4004708 C12.6705133,57.4004708 0.403260754,44.6231568 0.403260754,28.8617465 C0.403260754,13.1003362 12.6705133,0.323022181 27.8055852,0.323022181" id="Fill-1"></path>
                        <path d="M27.8055852,57.4004708 C12.6705133,57.4004708 0.403260754,44.6231568 0.403260754,28.8617465 C0.403260754,13.1003362 12.6705133,0.323022181 27.8055852,0.323022181" id="Stroke-3" stroke="#0A2F5A" stroke-width="3.69458128" stroke-linejoin="round"></path>
                    </g>
                    <g id="Group-8" transform="translate(36.833856, 60.503957)">
                        <path d="M8.10543279,0.62695799 C5.85631246,2.30052029 3.34038471,3.613342 0.63703026,4.48551226" id="Fill-5"></path>
                        <path d="M8.10543279,0.62695799 C5.85631246,2.30052029 3.34038471,3.613342 0.63703026,4.48551226" id="Stroke-7" stroke="#0A2F5A" stroke-width="3.69458128" stroke-linejoin="round"></path>
                    </g>
                    <g id="Group-12" transform="translate(48.109526, 49.849173)">
                        <path d="M4.41555243,0.656791388 C3.26543407,3.16599325 1.80961977,5.49140007 0.103235024,7.57707422" id="Fill-9"></path>
                        <path d="M4.41555243,0.656791388 C3.26543407,3.16599325 1.80961977,5.49140007 0.103235024,7.57707422" id="Stroke-11" stroke="#0A2F5A" stroke-width="3.69458128" stroke-linejoin="round"></path>
                    </g>
                    <g id="Group-16" transform="translate(54.123217, 39.194388)">
                        <path d="M2.03450675,0.0408433424 C1.94430139,1.78619859 1.72329825,3.4960379 1.38051788,5.15006642" id="Fill-13"></path>
                        <path d="M2.03450675,0.0408433424 C1.94430139,1.78619859 1.72329825,3.4960379 1.38051788,5.15006642" id="Stroke-15" stroke="#0A2F5A" stroke-width="3.69458128" stroke-linejoin="round"></path>
                    </g>
                    <g id="Group-20" transform="translate(54.874928, 37.672275)">
                        <path d="M1.32789809,0.659531189 C1.32789809,1.19150938 1.31211215,1.71892124 1.28279541,2.24404993" id="Fill-17"></path>
                        <path d="M1.32789809,0.659531189 C1.32789809,1.19150938 1.31211215,1.71892124 1.28279541,2.24404993" id="Stroke-19" stroke="#0A2F5A" stroke-width="3.69458128" stroke-linejoin="round"></path>
                    </g>
                    <g id="Group-24" transform="translate(54.123217, 30.061715)">
                        <path d="M0.875142345,0.204343555 C1.25174973,1.43040488 1.54491715,2.6929969 1.74787921,3.98755327" id="Fill-21"></path>
                        <path d="M0.875142345,0.204343555 C1.25174973,1.43040488 1.54491715,2.6929969 1.74787921,3.98755327" id="Stroke-23" stroke="#0A2F5A" stroke-width="3.69458128" stroke-linejoin="round"></path>
                    </g>
                    <g id="Group-28" transform="translate(50.364660, 22.451154)">
                        <path d="M0.880178811,0.524443737 C1.40111477,1.34866746 1.87694805,2.2002892 2.30993379,3.08159213" id="Fill-25"></path>
                        <path d="M0.880178811,0.524443737 C1.40111477,1.34866746 1.87694805,2.2002892 2.30993379,3.08159213" id="Stroke-27" stroke="#0A2F5A" stroke-width="3.69458128" stroke-linejoin="round"></path>
                    </g>
                    <g id="Group-31" transform="translate(22.551340, 0.380528)">
                        <mask id="mask-2" fill="white">
                            <use xlink:href="#path-1"></use>
                        </mask>
                        <g id="Clip-30"></g>
                        <polygon id="Fill-29" fill="#0A2F5A" mask="url(#mask-2)" points="16.3201098 6.76765066 9.59833042 12.1009889 2.87420982 17.4366975 1.67313953 8.87491186 0.469727974 0.313126214 8.39491887 3.54157362"></polygon>
                    </g>
                </g>
                <path d="M185.216133,40.1674877 L185.216133,38.4310345 L187.839286,38.4310345 L187.839286,30.7093596 L185.677956,30.7093596 L185.677956,29.3793103 C186.269092,29.2684724 186.777091,29.1360845 187.20197,28.9821429 C187.626849,28.8282012 188.024013,28.6403952 188.393473,28.4187192 L189.982143,28.4187192 L189.982143,38.4310345 L192.291256,38.4310345 L192.291256,40.1674877 L185.216133,40.1674877 Z M198.855296,40.3152709 C198.428364,40.3152709 198.021964,40.237275 197.636084,40.0812808 C197.250203,39.9252866 196.913589,39.7282442 196.626232,39.4901478 L197.131158,38.8128079 C197.393885,39.0262736 197.662765,39.1986857 197.937808,39.3300493 C198.21285,39.4614128 198.530992,39.5270936 198.892241,39.5270936 C199.286332,39.5270936 199.581896,39.4367825 199.778941,39.2561576 C199.975986,39.0755328 200.074507,38.8538601 200.074507,38.591133 C200.074507,38.4351388 200.033457,38.2996722 199.951355,38.1847291 C199.869252,38.069786 199.764574,37.9692123 199.637315,37.8830049 C199.510057,37.7967976 199.364328,37.7208542 199.200123,37.6551724 L198.707512,37.4581281 C198.494047,37.3842361 198.280584,37.3000826 198.067118,37.205665 C197.853652,37.1112475 197.662768,36.9963061 197.494458,36.8608374 C197.326149,36.7253688 197.188629,36.5673244 197.081897,36.3866995 C196.975164,36.2060746 196.921798,35.988507 196.921798,35.7339901 C196.921798,35.4958937 196.969006,35.2721685 197.063424,35.0628079 C197.157841,34.8534472 197.293308,34.6728251 197.469828,34.520936 C197.646347,34.3690469 197.861862,34.2500004 198.116379,34.1637931 C198.370896,34.0775858 198.65825,34.0344828 198.978448,34.0344828 C199.356118,34.0344828 199.702995,34.1001635 200.019089,34.2315271 C200.335182,34.3628906 200.608168,34.5229876 200.838054,34.7118227 L200.357759,35.3522167 C200.152503,35.1962225 199.939041,35.068966 199.717365,34.9704433 C199.495689,34.8719207 199.253491,34.8226601 198.990764,34.8226601 C198.613093,34.8226601 198.336003,34.9088661 198.159483,35.0812808 C197.982963,35.2536954 197.894704,35.4548429 197.894704,35.6847291 C197.894704,35.8243028 197.93165,35.9454018 198.005542,36.0480296 C198.079434,36.1506573 198.177955,36.2409684 198.301108,36.3189655 C198.424262,36.3969626 198.565886,36.4667485 198.725985,36.5283251 L199.224754,36.7192118 L199.224754,36.7192118 C199.438219,36.801314 199.653735,36.8875201 199.871305,36.9778325 C200.088876,37.068145 200.283866,37.1810338 200.456281,37.3165025 C200.628695,37.4519711 200.77032,37.6182256 200.881158,37.8152709 C200.991996,38.0123163 201.047414,38.2504091 201.047414,38.5295567 C201.047414,38.7758633 201.000206,39.0057461 200.905788,39.2192118 C200.811371,39.4326776 200.671799,39.6215099 200.487069,39.7857143 C200.302339,39.9499187 200.072456,40.0792278 199.797414,40.1736453 C199.522371,40.2680629 199.208335,40.3152709 198.855296,40.3152709 Z M204.877463,40.3152709 C204.475162,40.3152709 204.09955,40.2434326 203.750616,40.0997537 C203.401681,39.9560748 203.097908,39.7508224 202.839286,39.4839901 C202.580664,39.2171579 202.377464,38.8908065 202.22968,38.5049261 C202.081896,38.1190457 202.008005,37.6798054 202.008005,37.1871921 C202.008005,36.6945788 202.083948,36.253286 202.235837,35.8633005 C202.387727,35.473315 202.588874,35.1428585 202.839286,34.8719212 C203.089697,34.6009839 203.374998,34.3936789 203.695197,34.25 C204.015396,34.1063211 204.347905,34.0344828 204.692734,34.0344828 C205.070404,34.0344828 205.409071,34.1001635 205.708744,34.2315271 C206.008417,34.3628906 206.258825,34.5517229 206.459975,34.7980296 C206.661126,35.0443362 206.815065,35.3398998 206.921798,35.6847291 C207.028531,36.0295584 207.081897,36.415433 207.081897,36.8423645 C207.081897,36.9490974 207.079844,37.0537762 207.075739,37.1564039 C207.071634,37.2590317 207.061371,37.3472903 207.044951,37.4211823 L203.005542,37.4211823 C203.046593,38.0615796 203.245688,38.5685531 203.602833,38.9421182 C203.959977,39.3156833 204.4259,39.5024631 205.000616,39.5024631 C205.287974,39.5024631 205.552749,39.45936 205.794951,39.3731527 C206.037152,39.2869454 206.269088,39.1740565 206.490764,39.0344828 L206.847906,39.6995074 C206.585179,39.8637118 206.293721,40.0073885 205.973522,40.1305419 C205.653324,40.2536952 205.287974,40.3152709 204.877463,40.3152709 Z M202.993227,36.6945813 L206.195197,36.6945813 C206.195197,36.0870249 206.065888,35.6252068 205.807266,35.3091133 C205.548644,34.9930198 205.185347,34.8349754 204.717365,34.8349754 C204.503899,34.8349754 204.300699,34.8760259 204.107759,34.9581281 C203.914818,35.0402303 203.740354,35.1613292 203.58436,35.3214286 C203.428365,35.4815279 203.299056,35.6765177 203.196429,35.9064039 C203.093801,36.1362901 203.026067,36.3990133 202.993227,36.6945813 Z M210.924261,40.3152709 C210.53017,40.3152709 210.160716,40.2454851 209.815887,40.1059113 C209.471057,39.9663376 209.173441,39.7631376 208.92303,39.4963054 C208.672618,39.2294732 208.475575,38.9010693 208.331897,38.5110837 C208.188218,38.1210982 208.116379,37.6798054 208.116379,37.1871921 C208.116379,36.6863686 208.194375,36.2409708 208.350369,35.8509852 C208.506364,35.4609997 208.715721,35.1305432 208.978448,34.8596059 C209.241175,34.5886686 209.547002,34.3834161 209.895936,34.2438424 C210.24487,34.1042686 210.612272,34.0344828 210.998153,34.0344828 C211.392243,34.0344828 211.728857,34.1042686 212.008005,34.2438424 C212.287152,34.3834161 212.533455,34.5476181 212.746921,34.7364532 L212.22968,35.4014778 C212.057265,35.2454836 211.87459,35.1182271 211.68165,35.0197044 C211.48871,34.9211818 211.273195,34.8719212 211.035099,34.8719212 C210.764161,34.8719212 210.513753,34.9273393 210.283867,35.0381773 C210.053981,35.1490153 209.856938,35.3070597 209.692734,35.5123153 C209.52853,35.7175708 209.399221,35.9618212 209.304803,36.2450739 C209.210385,36.5283265 209.163177,36.8423628 209.163177,37.1871921 C209.163177,37.5320214 209.208333,37.8440052 209.298645,38.1231527 C209.388958,38.4023002 209.514162,38.6424456 209.674261,38.8435961 C209.83436,39.0447465 210.02935,39.2007384 210.259236,39.3115764 C210.489123,39.4224143 210.739531,39.4778325 211.010468,39.4778325 C211.289616,39.4778325 211.546181,39.4183093 211.780172,39.2992611 C212.014164,39.1802129 212.225574,39.0385887 212.414409,38.8743842 L212.857759,39.5517241 C212.586821,39.7898206 212.287153,39.9766003 211.958744,40.112069 C211.630335,40.2475376 211.285511,40.3152709 210.924261,40.3152709 Z" id="1sec" fill="#555555" fill-rule="nonzero"></path>
                <rect id="Rectangle" fill="#0A2F5A" fill-rule="nonzero" x="144.320197" y="49.2610837" width="104.679803" height="27.0935961"></rect>
                <path d="M161.780788,66.7241379 L161.780788,57.0591133 L164.825123,57.0591133 C165.357146,57.0591133 165.852214,57.1083739 166.310345,57.2068966 C166.768475,57.3054192 167.165023,57.4729052 167.5,57.7093596 C167.834977,57.945814 168.096058,58.2536927 168.283251,58.6330049 C168.470444,59.0123172 168.564039,59.4827558 168.564039,60.044335 C168.564039,60.5763573 168.470444,61.0394069 168.283251,61.4334975 C168.096058,61.8275882 167.83744,62.1551711 167.507389,62.4162562 C167.177338,62.6773412 166.78818,62.8694575 166.339901,62.9926108 C165.891623,63.1157642 165.406407,63.1773399 164.884236,63.1773399 L163.495074,63.1773399 L163.495074,66.7241379 L161.780788,66.7241379 Z M163.495074,61.8029557 L164.751232,61.8029557 C166.169958,61.8029557 166.87931,61.2167546 166.87931,60.044335 C166.87931,59.4334975 166.694583,59.0123164 166.325123,58.7807882 C165.955663,58.5492599 165.411334,58.4334975 164.692118,58.4334975 L163.495074,58.4334975 L163.495074,61.8029557 Z M173.012315,66.9014778 C172.50985,66.9014778 172.041874,66.8152718 171.608374,66.6428571 C171.174875,66.4704425 170.795568,66.2216765 170.470443,65.8965517 C170.145319,65.5714269 169.891627,65.1748792 169.70936,64.7068966 C169.527093,64.2389139 169.435961,63.7044365 169.435961,63.1034483 C169.435961,62.5123123 169.529556,61.9802979 169.716749,61.5073892 C169.903942,61.0344804 170.152708,60.6354696 170.463054,60.3103448 C170.773401,59.98522 171.13054,59.733991 171.534483,59.5566502 C171.938426,59.3793095 172.352215,59.2906404 172.775862,59.2906404 C173.268475,59.2906404 173.701969,59.3743834 174.076355,59.5418719 C174.450741,59.7093604 174.763546,59.9458113 175.014778,60.2512315 C175.266011,60.5566518 175.455664,60.9211801 175.583744,61.3448276 C175.711823,61.768475 175.775862,62.2315246 175.775862,62.7339901 C175.775862,62.9014787 175.768473,63.0591126 175.753695,63.2068966 C175.738916,63.3546805 175.721675,63.472906 175.70197,63.5615764 L171.091133,63.5615764 C171.169951,64.2118259 171.399013,64.7118209 171.778325,65.0615764 C172.157637,65.4113318 172.642854,65.5862069 173.23399,65.5862069 C173.549263,65.5862069 173.842363,65.5394093 174.1133,65.4458128 C174.384238,65.3522163 174.652708,65.2216757 174.918719,65.0541872 L175.495074,66.1182266 C175.150245,66.3448287 174.766012,66.532019 174.342365,66.679803 C173.918717,66.8275869 173.475372,66.9014778 173.012315,66.9014778 Z M171.076355,62.408867 L174.29803,62.408867 C174.29803,61.8472878 174.177341,61.4064055 173.935961,61.0862069 C173.69458,60.7660083 173.322663,60.6059113 172.820197,60.6059113 C172.386697,60.6059113 172.007391,60.7586192 171.682266,61.0640394 C171.357141,61.3694597 171.155173,61.817731 171.076355,62.408867 Z M177.401478,66.7241379 L177.401478,59.4679803 L178.805419,59.4679803 L178.923645,60.7536946 L178.982759,60.7536946 C179.238918,60.2807858 179.549259,59.9187205 179.913793,59.6674877 C180.278327,59.4162549 180.652707,59.2906404 181.036946,59.2906404 C181.381775,59.2906404 181.657634,59.339901 181.864532,59.4384236 L181.568966,60.9162562 C181.440886,60.8768471 181.322661,60.8472907 181.214286,60.8275862 C181.105911,60.8078817 180.972907,60.7980296 180.815271,60.7980296 C180.529555,60.7980296 180.229066,60.9088659 179.913793,61.1305419 C179.598521,61.3522179 179.327587,61.7389135 179.100985,62.2906404 L179.100985,66.7241379 L177.401478,66.7241379 Z M188.839901,66.9014778 C188.189652,66.9014778 187.561579,66.7783264 186.955665,66.5320197 C186.349751,66.2857131 185.815273,65.9359629 185.352217,65.4827586 L186.357143,64.3152709 C186.701972,64.6403957 187.096057,64.9039399 187.539409,65.1059113 C187.982761,65.3078828 188.426106,65.408867 188.869458,65.408867 C189.421185,65.408867 189.8399,65.2955676 190.125616,65.0689655 C190.411331,64.8423634 190.554187,64.5418738 190.554187,64.1674877 C190.554187,63.9704424 190.517242,63.8029564 190.44335,63.6650246 C190.369458,63.5270929 190.266011,63.4064045 190.133005,63.3029557 C189.999999,63.1995069 189.842365,63.1034487 189.660099,63.0147783 C189.477832,62.9261079 189.278326,62.8374389 189.061576,62.7487685 L187.731527,62.1724138 C187.495073,62.0738911 187.261085,61.9507397 187.029557,61.8029557 C186.798028,61.6551717 186.588671,61.4778335 186.401478,61.270936 C186.214285,61.0640384 186.06404,60.8226615 185.950739,60.546798 C185.837438,60.2709346 185.780788,59.9556668 185.780788,59.6009852 C185.780788,59.2167468 185.862068,58.8596076 186.024631,58.5295567 C186.187193,58.1995057 186.411329,57.9113313 186.697044,57.6650246 C186.98276,57.418718 187.325121,57.2266017 187.724138,57.08867 C188.123155,56.9507382 188.559111,56.8817734 189.03202,56.8817734 C189.593599,56.8817734 190.135465,56.9926097 190.657635,57.2142857 C191.179806,57.4359617 191.628077,57.7339883 192.002463,58.1083744 L191.130542,59.2019704 C190.815269,58.9458115 190.490149,58.7438431 190.155172,58.5960591 C189.820195,58.4482751 189.445815,58.3743842 189.03202,58.3743842 C188.568963,58.3743842 188.199509,58.4753684 187.923645,58.6773399 C187.647782,58.8793114 187.509852,59.1576337 187.509852,59.5123153 C187.509852,59.6995083 187.551724,59.8596052 187.635468,59.9926108 C187.719212,60.1256164 187.832512,60.2438418 187.975369,60.3472906 C188.118227,60.4507394 188.28325,60.5443346 188.470443,60.6280788 L188.754926,60.7518473 L188.754926,60.7518473 L190.362069,61.4187192 C190.647785,61.5369464 190.908866,61.6748761 191.14532,61.8325123 C191.381775,61.9901486 191.586206,62.1724128 191.758621,62.3793103 C191.931035,62.5862079 192.066502,62.8251218 192.165025,63.0960591 C192.263547,63.3669964 192.312808,63.6798012 192.312808,64.0344828 C192.312808,64.4285734 192.233991,64.7980278 192.076355,65.1428571 C191.918718,65.4876865 191.689657,65.7906391 191.389163,66.0517241 C191.088668,66.3128092 190.72414,66.5197037 190.295567,66.6724138 C189.866993,66.8251239 189.381776,66.9014778 188.839901,66.9014778 Z M197.027094,66.9014778 C196.524628,66.9014778 196.056652,66.8152718 195.623153,66.6428571 C195.189653,66.4704425 194.810346,66.2216765 194.485222,65.8965517 C194.160097,65.5714269 193.906405,65.1748792 193.724138,64.7068966 C193.541871,64.2389139 193.450739,63.7044365 193.450739,63.1034483 C193.450739,62.5123123 193.544334,61.9802979 193.731527,61.5073892 C193.91872,61.0344804 194.167486,60.6354696 194.477833,60.3103448 C194.788179,59.98522 195.145318,59.733991 195.549261,59.5566502 C195.953204,59.3793095 196.366993,59.2906404 196.79064,59.2906404 C197.283254,59.2906404 197.716747,59.3743834 198.091133,59.5418719 C198.465519,59.7093604 198.778324,59.9458113 199.029557,60.2512315 C199.280789,60.5566518 199.470443,60.9211801 199.598522,61.3448276 C199.726602,61.768475 199.79064,62.2315246 199.79064,62.7339901 C199.79064,62.9014787 199.783251,63.0591126 199.768473,63.2068966 C199.753695,63.3546805 199.736453,63.472906 199.716749,63.5615764 L195.105911,63.5615764 C195.184729,64.2118259 195.413791,64.7118209 195.793103,65.0615764 C196.172416,65.4113318 196.657633,65.5862069 197.248768,65.5862069 C197.564041,65.5862069 197.857142,65.5394093 198.128079,65.4458128 C198.399016,65.3522163 198.667486,65.2216757 198.933498,65.0541872 L199.509852,66.1182266 C199.165023,66.3448287 198.78079,66.532019 198.357143,66.679803 C197.933495,66.8275869 197.49015,66.9014778 197.027094,66.9014778 Z M195.091133,62.408867 L198.312808,62.408867 C198.312808,61.8472878 198.192119,61.4064055 197.950739,61.0862069 C197.709358,60.7660083 197.337441,60.6059113 196.834975,60.6059113 C196.401476,60.6059113 196.022169,60.7586192 195.697044,61.0640394 C195.37192,61.3694597 195.169951,61.817731 195.091133,62.408867 Z M204.445813,66.9014778 C203.9532,66.9014778 203.492613,66.8177348 203.064039,66.6502463 C202.635466,66.4827578 202.263548,66.2364548 201.948276,65.91133 C201.633003,65.5862053 201.3867,65.1871945 201.20936,64.7142857 C201.032019,64.2413769 200.94335,63.7044365 200.94335,63.1034483 C200.94335,62.50246 201.041871,61.9655196 201.238916,61.4926108 C201.435962,61.0197021 201.701969,60.6206913 202.036946,60.2955665 C202.371923,59.9704417 202.758618,59.7216757 203.197044,59.5492611 C203.63547,59.3768464 204.096057,59.2906404 204.578818,59.2906404 C205.051727,59.2906404 205.458126,59.3694573 205.79803,59.5270936 C206.137933,59.6847299 206.440885,59.8768462 206.706897,60.1034483 L205.87931,61.2118227 C205.682265,61.0443341 205.487686,60.9137936 205.295567,60.820197 C205.103447,60.7266005 204.89409,60.679803 204.667488,60.679803 C204.076352,60.679803 203.598524,60.8990126 203.23399,61.3374384 C202.869456,61.7758643 202.687192,62.3645283 202.687192,63.1034483 C202.687192,63.832516 202.866993,64.416254 203.226601,64.8546798 C203.586209,65.2931056 204.051721,65.5123153 204.623153,65.5123153 C204.908868,65.5123153 205.177339,65.4507395 205.428571,65.3275862 C205.679804,65.2044329 205.908866,65.0591141 206.115764,64.8916256 L206.810345,66.0147783 C206.465516,66.3103463 206.088672,66.532019 205.679803,66.679803 C205.270934,66.8275869 204.859608,66.9014778 204.445813,66.9014778 Z M210.859606,66.9014778 C210.406402,66.9014778 209.972908,66.8177348 209.559113,66.6502463 C209.145318,66.4827578 208.778327,66.2364548 208.458128,65.91133 C208.137929,65.5862053 207.884237,65.1871945 207.697044,64.7142857 C207.509851,64.2413769 207.416256,63.7044365 207.416256,63.1034483 C207.416256,62.50246 207.509851,61.9655196 207.697044,61.4926108 C207.884237,61.0197021 208.137929,60.6206913 208.458128,60.2955665 C208.778327,59.9704417 209.145318,59.7216757 209.559113,59.5492611 C209.972908,59.3768464 210.406402,59.2906404 210.859606,59.2906404 C211.31281,59.2906404 211.748766,59.3768464 212.167488,59.5492611 C212.586209,59.7216757 212.9532,59.9704417 213.268473,60.2955665 C213.583745,60.6206913 213.837437,61.0197021 214.029557,61.4926108 C214.221676,61.9655196 214.317734,62.50246 214.317734,63.1034483 C214.317734,63.7044365 214.221676,64.2413769 214.029557,64.7142857 C213.837437,65.1871945 213.583745,65.5862053 213.268473,65.91133 C212.9532,66.2364548 212.586209,66.4827578 212.167488,66.6502463 C211.748766,66.8177348 211.31281,66.9014778 210.859606,66.9014778 Z M210.859606,65.5123153 C211.391628,65.5123153 211.810343,65.2931056 212.115764,64.8546798 C212.421184,64.416254 212.573892,63.832516 212.573892,63.1034483 C212.573892,62.3645283 212.421184,61.7758643 212.115764,61.3374384 C211.810343,60.8990126 211.391628,60.679803 210.859606,60.679803 C210.327584,60.679803 209.911332,60.8990126 209.610837,61.3374384 C209.310343,61.7758643 209.160099,62.3645283 209.160099,63.1034483 C209.160099,63.832516 209.310343,64.416254 209.610837,64.8546798 C209.911332,65.2931056 210.327584,65.5123153 210.859606,65.5123153 Z M230.455665,56.2906404 L230.455665,66.7241379 L229.051724,66.7241379 L228.933498,65.9408867 L228.874384,65.9408867 C228.608373,66.2068979 228.298031,66.4334966 227.94335,66.6206897 C227.588668,66.8078827 227.214288,66.9014778 226.820197,66.9014778 C225.903936,66.9014778 225.177343,66.5689688 224.640394,65.9039409 C224.103446,65.2389129 223.834975,64.3054247 223.834975,63.1034483 C223.834975,62.5123123 223.921181,61.9802979 224.093596,61.5073892 C224.266011,61.0344804 224.495072,60.6354696 224.780788,60.3103448 C225.066504,59.98522 225.394087,59.733991 225.763547,59.5566502 C226.133007,59.3793095 226.514776,59.2906404 226.908867,59.2906404 C227.322662,59.2906404 227.672412,59.3620683 227.958128,59.5049261 C228.243844,59.647784 228.529555,59.8423633 228.815271,60.08867 L228.756158,58.9211823 L228.756158,56.2906404 L230.455665,56.2906404 Z M219.963054,59.2906404 C220.741383,59.2906404 221.30788,59.5394064 221.662562,60.0369458 C222.017243,60.5344852 222.194581,61.2463008 222.194581,62.1724138 L222.194581,66.7241379 L220.495074,66.7241379 L220.495074,62.3940887 C220.495074,61.7931004 220.406405,61.3694594 220.229064,61.1231527 C220.051723,60.8768461 219.761086,60.7536946 219.357143,60.7536946 C219.04187,60.7536946 218.763548,60.8300485 218.522167,60.9827586 C218.280787,61.1354687 218.007391,61.3596044 217.70197,61.6551724 L217.70197,66.7241379 L216.002463,66.7241379 L216.002463,59.4679803 L217.406404,59.4679803 L217.524631,60.4433498 L217.583744,60.4433498 C217.908869,60.1280772 218.261082,59.857144 218.640394,59.6305419 C219.019706,59.4039398 219.460589,59.2906404 219.963054,59.2906404 Z M227.278325,60.6945813 C226.805416,60.6945813 226.406406,60.9014758 226.081281,61.3152709 C225.756156,61.7290661 225.593596,62.3201932 225.593596,63.08867 C225.593596,63.8768512 225.733989,64.4753674 226.014778,64.8842365 C226.295568,65.2931055 226.701968,65.4975369 227.23399,65.4975369 C227.775865,65.4975369 228.283249,65.2266037 228.756158,64.6847291 L228.756158,64.6847291 L228.756158,61.3004926 C228.499999,61.0738905 228.251233,60.9162566 228.009852,60.8275862 C227.768472,60.7389158 227.524632,60.6945813 227.278325,60.6945813 Z" id="PerSecond" fill="#FFFFFF" fill-rule="nonzero"></path>
                <polygon id="+" fill="#0A2F5A" fill-rule="nonzero" transform="translate(132.119875, 36.899830) rotate(45.000000) translate(-132.119875, -36.899830) " points="131.155589 42.0205196 131.155589 37.8308644 127.187608 37.8308644 127.187608 35.9687954 131.155589 35.9687954 131.155589 31.7791403 133.08416 31.7791403 133.08416 35.9687954 137.052141 35.9687954 137.052141 37.8308644 133.08416 37.8308644 133.08416 42.0205196"></polygon>
            </g>
        </g>
    </g>
</svg>