<?xml version="1.0" encoding="UTF-8"?>
<svg width="250px" height="100px" viewBox="0 0 250 100" version="1.1" xmlns="http://www.w3.org/2000/svg" xmlns:xlink="http://www.w3.org/1999/xlink">
    <!-- Generator: Sketch 53.2 (72643) - https://sketchapp.com -->
    <title>revenue-6-outline</title>
    <desc>Created with Sketch.</desc>
    <defs>
        <polygon id="path-1" points="0 0.153985507 41.7049517 0.153985507 41.7049517 19.8121981 0 19.8121981"></polygon>
        <polygon id="path-3" points="0 42.2705314 79.1231884 42.2705314 79.1231884 0.777777778 0 0.777777778"></polygon>
    </defs>
    <g id="revenue-6-outline" stroke="none" stroke-width="1" fill="none" fill-rule="evenodd">
        <g id="Group-9" transform="translate(0.000000, 11.000000)">
            <g id="Group-51" transform="translate(18.115942, 0.000000)">
                <polygon id="Fill-1" fill="#0A2F5A" points="61.6342995 17.2561594 46.9193237 28.0991546 44.9700483 25.2199275 60.0050725 14.1414251 61.6342995 12.9300725 63.265942 14.1426329 78.2985507 25.2199275 76.3492754 28.0991546"></polygon>
                <path d="M60.9141304,12.7134058 L59.6423913,13.6578502 L45.0795894,24.3897343 L44.1460145,25.0769324 L44.7957729,26.038285 L46.0675121,27.9163043 L46.7716184,28.9573671 L47.7836957,28.2121981 L61.6351449,18.0056763 L75.4853865,28.2121981 L76.4974638,28.9573671 L77.20157,27.9163043 L78.4733092,26.038285 L79.1230676,25.0793478 L79.1230676,25.0769324 L78.1894928,24.3897343 L63.6218599,13.6554348 L62.353744,12.7134058 L61.6351449,12.1783816 L60.9141304,12.7134058 Z M45.7957729,25.3607488 L60.3634058,14.627657 L61.6351449,13.6832126 L62.9056763,14.627657 L77.4733092,25.3607488 L76.20157,27.2399758 L61.6351449,16.5056763 L47.0675121,27.2399758 L45.7957729,25.3607488 Z" id="Fill-2" fill="#FFFFFF"></path>
                <polygon id="Fill-3" fill="#0A2F5A" points="48.6086957 26.6047101 48.6086957 41.8088164 74.660628 41.8088164 74.660628 26.6047101 61.6352657 17.0056763"></polygon>
                <path d="M60.9173913,16.784058 L48.4958937,25.9362319 L48.0043478,26.2997585 L48.0043478,26.9084541 L48.0043478,41.2043478 L48.0043478,42.4120773 L49.2120773,42.4120773 L74.0562802,42.4120773 L75.2640097,42.4120773 L75.2640097,41.2043478 L75.2640097,26.9084541 L75.2640097,26.2997585 L74.7724638,25.9362319 L62.3509662,16.784058 L61.6347826,16.2562802 L60.9173913,16.784058 Z M49.2120773,26.9084541 L61.6347826,17.7562802 L74.0562802,26.9084541 L74.0562802,41.2043478 L49.2120773,41.2043478 L49.2120773,26.9084541 Z" id="Fill-4" fill="#FFFFFF"></path>
                <polygon id="Fill-5" fill="#FFFFFF" points="58.1932367 41.2051932 64.7403382 41.2051932 64.7403382 33.9153382 58.1932367 33.9153382"></polygon>
                <g id="Group-50" transform="translate(0.000000, 0.429831)">
                    <path d="M64.1452899,29.9520531 L58.9520531,29.9520531 L58.9520531,25.7974638 C58.9520531,24.3626812 60.1138889,23.2008454 61.5486715,23.2008454 C62.9822464,23.2008454 64.1452899,24.3626812 64.1452899,25.7974638 L64.1452899,29.9520531 Z" id="Fill-6" fill="#FFFFFF"></path>
                    <path d="M64.1452899,29.9520531 L58.9520531,29.9520531 L58.9520531,25.7974638 C58.9520531,24.3626812 60.1138889,23.2008454 61.5486715,23.2008454 C62.9822464,23.2008454 64.1452899,24.3626812 64.1452899,25.7974638 L64.1452899,29.9520531 Z" id="Stroke-8" stroke="#0A2F5A" stroke-width="0.905797101" stroke-linejoin="round"></path>
                    <g id="Group-13" transform="translate(57.971014, 25.362319)">
                        <path d="M0.980676329,1.21364734 L6.17391304,1.21364734" id="Fill-10" fill="#FFFFFF"></path>
                        <path d="M0.980676329,1.21364734 L6.17391304,1.21364734" id="Stroke-12" stroke="#0A2F5A" stroke-width="0.905797101" stroke-linejoin="round"></path>
                    </g>
                    <g id="Group-17" transform="translate(57.971014, 28.985507)">
                        <path d="M0.0100241546,0.966545894 L7.31678744,0.966545894" id="Fill-14" fill="#FFFFFF"></path>
                        <path d="M0.0100241546,0.966545894 L7.31678744,0.966545894" id="Stroke-16" stroke="#0A2F5A" stroke-width="0.905797101" stroke-linecap="round" stroke-linejoin="round"></path>
                    </g>
                    <polygon id="Fill-18" fill="#0A2F5A" points="0.825603865 21.7131643 18.9524155 8.35567633 20.8521739 6.94384058 22.7531401 8.35688406 40.8799517 21.7131643 38.6601449 24.990942 20.8521739 11.8701691 3.04299517 24.990942"></polygon>
                    <g id="Group-22" transform="translate(0.000000, 6.038647)">
                        <mask id="mask-2" fill="white">
                            <use xlink:href="#path-1"></use>
                        </mask>
                        <g id="Clip-21"></g>
                        <path d="M20.8522947,0.153985507 L20.1312802,0.689009662 L18.5902174,1.8339372 L0.93442029,14.8448068 L-0.000362318841,15.5320048 L0.650603865,16.4933575 L2.19166667,18.7711353 L2.89577295,19.8121981 L3.90785024,19.0658213 L20.8522947,6.58152174 L37.7955314,19.0658213 L38.8088164,19.8121981 L39.5129227,18.7711353 L41.0539855,16.4933575 L41.7049517,15.5320048 L40.7701691,14.8448068 L23.1095411,1.83152174 L21.5721014,0.689009662 L20.8522947,0.153985507 Z M20.8522947,1.65881643 L22.3933575,2.80374396 L40.0539855,15.817029 L38.5129227,18.093599 L20.8522947,5.08152174 L3.19166667,18.093599 L1.65060386,15.817029 L19.3112319,2.80374396 L20.8522947,1.65881643 Z" id="Fill-20" fill="#FFFFFF" mask="url(#mask-2)"></path>
                    </g>
                    <polygon id="Fill-23" fill="#0A2F5A" points="5.18828502 41.6666667 5.18828502 23.4263285 20.8525362 11.884058 36.5155797 23.4263285 36.5155797 41.6666667"></polygon>
                    <path d="M20.8522947,11.1350242 L20.1361111,11.6628019 L5.07572464,22.7594203 L4.58417874,23.1217391 L4.58417874,23.7316425 L4.58417874,41.0625604 L4.58417874,42.2702899 L5.79190821,42.2702899 L35.9114734,42.2702899 L37.1192029,42.2702899 L37.1192029,41.0625604 L37.1192029,23.7316425 L37.1192029,23.1217391 L36.6288647,22.7594203 L21.5684783,11.6628019 L20.8522947,11.1350242 Z M20.8522947,12.6350242 L35.9114734,23.7316425 L35.9114734,41.0625604 L5.79190821,41.0625604 L5.79190821,23.7316425 L20.8522947,12.6350242 Z" id="Fill-25" fill="#FFFFFF"></path>
                    <mask id="mask-4" fill="white">
                        <use xlink:href="#path-3"></use>
                    </mask>
                    <g id="Clip-28"></g>
                    <polygon id="Fill-27" fill="#FFFFFF" mask="url(#mask-4)" points="16.6811594 41.0628019 24.6183575 41.0628019 24.6183575 32.2258454 16.6811594 32.2258454"></polygon>
                    <path d="M23.8957729,27.9411836 L17.5998792,27.9411836 L17.5998792,22.9049517 C17.5998792,21.1658213 19.0092995,19.756401 20.74843,19.756401 C22.4863527,19.756401 23.8957729,21.1658213 23.8957729,22.9049517 L23.8957729,27.9411836 Z" id="Fill-29" fill="#FFFFFF" mask="url(#mask-4)"></path>
                    <path d="M23.8957729,27.9411836 L17.5998792,27.9411836 L17.5998792,22.9049517 C17.5998792,21.1658213 19.0092995,19.756401 20.74843,19.756401 C22.4863527,19.756401 23.8957729,21.1658213 23.8957729,22.9049517 L23.8957729,27.9411836 Z" id="Stroke-30" stroke="#0A2F5A" stroke-width="0.905797101" stroke-linejoin="round" mask="url(#mask-4)"></path>
                    <g id="Group-33" mask="url(#mask-4)">
                        <g transform="translate(16.908213, 22.946860)">
                            <path d="M0.691183575,0.902294686 L6.98707729,0.902294686" id="Fill-31" stroke="none" fill="#FFFFFF" fill-rule="evenodd"></path>
                            <path d="M0.691183575,0.902294686 L6.98707729,0.902294686" id="Stroke-32" stroke="#0A2F5A" stroke-width="0.905797101" fill="none" stroke-linejoin="round"></path>
                        </g>
                    </g>
                    <g id="Group-36" mask="url(#mask-4)">
                        <g transform="translate(15.700483, 26.570048)">
                            <path d="M0.722463768,1.37113527 L9.58115942,1.37113527" id="Fill-34" stroke="none" fill="#FFFFFF" fill-rule="evenodd"></path>
                            <path d="M0.722463768,1.37113527 L9.58115942,1.37113527" id="Stroke-35" stroke="#0A2F5A" stroke-width="0.905797101" fill="none" stroke-linecap="round" stroke-linejoin="round"></path>
                        </g>
                    </g>
                    <polygon id="Fill-37" fill="#0A2F5A" mask="url(#mask-4)" points="17.0681159 18.5960145 38.0620773 3.12741546 40.210628 1.52958937 42.3628019 3.12862319 63.3543478 18.5960145 60.8857488 22.2445652 40.210628 7.0102657 19.5355072 22.2445652"></polygon>
                    <path d="M40.2107488,0.777898551 L39.490942,1.31292271 L37.6986715,2.64384058 L17.1769324,17.7658213 L16.2421498,18.4542271 L16.8931159,19.414372 L18.6841787,22.061715 L19.388285,23.1027778 L20.4003623,22.3576087 L40.2107488,7.75978261 L60.0211353,22.3576087 L61.0332126,23.1027778 L61.7373188,22.061715 L63.5295894,19.414372 L64.1793478,18.4542271 L63.2445652,17.7658213 L42.7192029,2.64021739 L40.9305556,1.31292271 L40.2107488,0.777898551 Z M40.2107488,2.28272947 L42.0018116,3.61364734 L62.5283816,18.7380435 L60.7373188,21.3841787 L40.2107488,6.25978261 L19.6841787,21.3841787 L17.8931159,18.7380435 L38.419686,3.61364734 L40.2107488,2.28272947 Z" id="Fill-38" fill="#FFFFFF" mask="url(#mask-4)"></path>
                    <polygon id="Fill-39" fill="#0A2F5A" mask="url(#mask-4)" points="22.1030193 41.6666667 22.1030193 20.6135266 40.2105072 7.27173913 58.3179952 20.6135266 58.3179952 41.6666667"></polygon>
                    <path d="M40.2107488,6.52101449 L39.4945652,7.04879227 L21.990942,19.9461353 L21.4993961,20.3084541 L21.4993961,20.9183575 L21.4993961,41.063285 L21.4993961,42.2710145 L22.7071256,42.2710145 L57.714372,42.2710145 L58.9221014,42.2710145 L58.9221014,41.063285 L58.9221014,20.9183575 L58.9221014,20.3084541 L58.4305556,19.9461353 L40.9269324,7.04879227 L40.2107488,6.52101449 Z M40.2107488,8.02101449 L57.714372,20.9183575 L57.714372,41.063285 L22.7071256,41.063285 L22.7071256,20.9183575 L40.2107488,8.02101449 Z" id="Fill-40" fill="#FFFFFF" mask="url(#mask-4)"></path>
                    <polygon id="Fill-41" fill="#FFFFFF" mask="url(#mask-4)" points="35.3623188 41.0628019 44.5881643 41.0628019 44.5881643 30.7910628 35.3623188 30.7910628"></polygon>
                    <path d="M43.74843,25.811715 L36.4307971,25.811715 L36.4307971,19.9578502 C36.4307971,17.9361111 38.0684783,16.29843 40.0902174,16.29843 C42.1107488,16.29843 43.74843,17.9361111 43.74843,19.9578502 L43.74843,25.811715 Z" id="Fill-42" fill="#FFFFFF" mask="url(#mask-4)"></path>
                    <path d="M43.74843,25.811715 L36.4307971,25.811715 L36.4307971,19.9578502 C36.4307971,17.9361111 38.0684783,16.29843 40.0902174,16.29843 C42.1107488,16.29843 43.74843,17.9361111 43.74843,19.9578502 L43.74843,25.811715 Z" id="Stroke-43" stroke="#0A2F5A" stroke-width="0.905797101" stroke-linejoin="round" mask="url(#mask-4)"></path>
                    <g id="Group-46" mask="url(#mask-4)">
                        <g transform="translate(36.231884, 19.323671)">
                            <path d="M0.198792271,1.73140097 L7.51642512,1.73140097" id="Fill-44" stroke="none" fill="#FFFFFF" fill-rule="evenodd"></path>
                            <path d="M0.198792271,1.73140097 L7.51642512,1.73140097" id="Stroke-45" stroke="#0A2F5A" stroke-width="0.905797101" fill="none" stroke-linejoin="round"></path>
                        </g>
                    </g>
                    <g id="Group-49" mask="url(#mask-4)">
                        <g transform="translate(35.024155, 24.154589)">
                            <path d="M0.0384057971,1.6571256 L10.3342995,1.6571256" id="Fill-47" stroke="none" fill="#FFFFFF" fill-rule="evenodd"></path>
                            <path d="M0.0384057971,1.6571256 L10.3342995,1.6571256" id="Stroke-48" stroke="#0A2F5A" stroke-width="0.905797101" fill="none" stroke-linecap="round" stroke-linejoin="round"></path>
                        </g>
                    </g>
                </g>
            </g>
            <rect id="Rectangle" fill="#0A2F5A" fill-rule="nonzero" x="0" y="39.8550725" width="113.52657" height="37.4396135"></rect>
            <path d="M21.2850242,70.763285 L21.2850242,61.2125604 L21.9516908,61.2125604 L21.9516908,65.4009662 L27.0676329,65.4009662 L27.0676329,61.2125604 L27.7342995,61.2125604 L27.7342995,70.763285 L27.0676329,70.763285 L27.0676329,65.9806763 L21.9516908,65.9806763 L21.9516908,70.763285 L21.2850242,70.763285 Z M33.0096618,70.9371981 C32.5942008,70.9371981 32.1980695,70.8550733 31.821256,70.6908213 C31.4444426,70.5265692 31.113528,70.2898566 30.8285024,69.9806763 C30.5434768,69.671496 30.316426,69.2922728 30.147343,68.8429952 C29.97826,68.3937176 29.8937198,67.87923 29.8937198,67.2995169 C29.8937198,66.7198039 29.97826,66.2004854 30.147343,65.7415459 C30.316426,65.2826064 30.5434768,64.8985523 30.8285024,64.589372 C31.113528,64.2801917 31.4444426,64.0434791 31.821256,63.8792271 C32.1980695,63.714975 32.5942008,63.6328502 33.0096618,63.6328502 C33.4251229,63.6328502 33.8236696,63.714975 34.205314,63.8792271 C34.5869584,64.0434791 34.9202884,64.2801917 35.205314,64.589372 C35.4903396,64.8985523 35.7173905,65.2826064 35.8864734,65.7415459 C36.0555564,66.2004854 36.1400966,66.7198039 36.1400966,67.2995169 C36.1400966,67.87923 36.0555564,68.3937176 35.8864734,68.8429952 C35.7173905,69.2922728 35.4903396,69.671496 35.205314,69.9806763 C34.9202884,70.2898566 34.5869584,70.5265692 34.205314,70.6908213 C33.8236696,70.8550733 33.4251229,70.9371981 33.0096618,70.9371981 Z M33.0096618,70.3719807 C33.3574897,70.3719807 33.6835734,70.2971022 33.9879227,70.147343 C34.2922721,69.9975838 34.553139,69.787441 34.7705314,69.5169082 C34.9879238,69.2463755 35.1594197,68.9227072 35.2850242,68.5458937 C35.4106286,68.1690802 35.47343,67.7536255 35.47343,67.2995169 C35.47343,66.8357465 35.4106286,66.4154608 35.2850242,66.0386473 C35.1594197,65.6618339 34.9879238,65.3357502 34.7705314,65.0603865 C34.553139,64.7850228 34.2922721,64.5724645 33.9879227,64.4227053 C33.6835734,64.2729461 33.3574897,64.1980676 33.0096618,64.1980676 C32.661834,64.1980676 32.3381657,64.2729461 32.0386473,64.4227053 C31.7391289,64.5724645 31.4806774,64.7850228 31.263285,65.0603865 C31.0458926,65.3357502 30.8743968,65.6618339 30.7487923,66.0386473 C30.6231878,66.4154608 30.5603865,66.8357465 30.5603865,67.2995169 C30.5603865,67.7536255 30.6231878,68.1690802 30.7487923,68.5458937 C30.8743968,68.9227072 31.0458926,69.2463755 31.263285,69.5169082 C31.4806774,69.787441 31.7391289,69.9975838 32.0386473,70.147343 C32.3381657,70.2971022 32.661834,70.3719807 33.0096618,70.3719807 Z M40.2270531,70.9371981 C39.5024118,70.9371981 38.9710162,70.7198089 38.6328502,70.2850242 C38.2946843,69.8502394 38.1256039,69.1787485 38.1256039,68.2705314 L38.1256039,63.8067633 L38.763285,63.8067633 L38.763285,68.1835749 C38.763285,68.92754 38.8864722,69.4758436 39.1328502,69.8285024 C39.3792283,70.1811612 39.7826059,70.3574879 40.3429952,70.3574879 C40.7584562,70.3574879 41.135264,70.2439625 41.47343,70.0169082 C41.8115959,69.7898539 42.1835729,69.4299542 42.589372,68.9371981 L42.589372,63.8067633 L43.2270531,63.8067633 L43.2270531,70.763285 L42.6908213,70.763285 L42.6183575,69.6038647 L42.589372,69.6038647 C42.251206,70.0096639 41.8937217,70.3333321 41.5169082,70.5748792 C41.1400947,70.8164263 40.7101473,70.9371981 40.2270531,70.9371981 Z M47.5748792,70.9371981 C47.0531375,70.9371981 46.5748814,70.8429961 46.1400966,70.6545894 C45.7053118,70.4661826 45.3333349,70.2415472 45.0241546,69.9806763 L45.4009662,69.5024155 C45.7004846,69.7536244 46.019322,69.9637673 46.3574879,70.1328502 C46.6956539,70.3019332 47.1159395,70.3864734 47.6183575,70.3864734 C48.1690849,70.3864734 48.5821242,70.2487936 48.8574879,69.97343 C49.1328516,69.6980663 49.2705314,69.3768134 49.2705314,69.0096618 C49.2705314,68.7971004 49.2198073,68.6086965 49.1183575,68.4444444 C49.0169077,68.2801924 48.8840588,68.1400972 48.7198068,68.0241546 C48.5555547,67.908212 48.3743971,67.8067637 48.1763285,67.7198068 C47.9782599,67.6328498 47.7777788,67.550725 47.5748792,67.47343 C47.3140084,67.3768111 47.050726,67.2753629 46.7850242,67.1690821 C46.5193223,67.0628014 46.2801943,66.9347834 46.0676329,66.7850242 C45.8550714,66.635265 45.6835755,66.4565228 45.5531401,66.2487923 C45.4227047,66.0410618 45.3574879,65.7874411 45.3574879,65.4879227 C45.3574879,65.2367137 45.4057966,64.9975857 45.5024155,64.7705314 C45.5990343,64.5434771 45.7439604,64.3454115 45.9371981,64.1763285 C46.1304357,64.0072455 46.3647329,63.8743966 46.6400966,63.7777778 C46.9154603,63.6811589 47.2367131,63.6328502 47.6038647,63.6328502 C47.9710163,63.6328502 48.3309161,63.7004824 48.6835749,63.8357488 C49.0362336,63.9710152 49.338163,64.1449265 49.589372,64.3574879 L49.2415459,64.8067633 C49.0096607,64.6328494 48.7632863,64.4855079 48.5024155,64.3647343 C48.2415446,64.2439607 47.9323689,64.1835749 47.5748792,64.1835749 C47.3043465,64.1835749 47.0724647,64.2198064 46.8792271,64.2922705 C46.6859894,64.3647347 46.5241552,64.4589366 46.3937198,64.5748792 C46.2632844,64.6908218 46.166667,64.8260862 46.1038647,64.9806763 C46.0410625,65.1352665 46.0096618,65.2898543 46.0096618,65.4444444 C46.0096618,65.647344 46.0555551,65.8188399 46.147343,65.9589372 C46.2391309,66.0990345 46.3623181,66.2222217 46.5169082,66.3285024 C46.6714984,66.4347831 46.8478251,66.5289851 47.0458937,66.6111111 C47.2439623,66.6932371 47.4444434,66.7729465 47.647343,66.8502415 L48.4589372,67.1690821 C48.72947,67.2753629 48.9734289,67.4057963 49.1908213,67.5603865 C49.4082136,67.7149766 49.5845404,67.905796 49.7198068,68.1328502 C49.8550731,68.3599045 49.9227053,68.6425104 49.9227053,68.9806763 C49.9227053,69.2415472 49.8719812,69.490337 49.7705314,69.7270531 C49.6690816,69.9637693 49.5169092,70.1714967 49.3140097,70.3502415 C49.1111101,70.5289864 48.8647357,70.6714971 48.5748792,70.7777778 C48.2850227,70.8840585 47.9516927,70.9371981 47.5748792,70.9371981 Z M54.4009662,70.9371981 C53.9565195,70.9371981 53.5386493,70.8550733 53.147343,70.6908213 C52.7560367,70.5265692 52.4154604,70.2874412 52.1256039,69.97343 C51.8357473,69.6594187 51.606281,69.27778 51.4371981,68.8285024 C51.2681151,68.3792248 51.1835749,67.8695681 51.1835749,67.2995169 C51.1835749,66.7294657 51.2681151,66.2173936 51.4371981,65.763285 C51.606281,65.3091765 51.8333319,64.9251223 52.1183575,64.6111111 C52.4033831,64.2970999 52.7270513,64.0555564 53.089372,63.8864734 C53.4516926,63.7173905 53.826085,63.6328502 54.2125604,63.6328502 C55.0434824,63.6328502 55.6956498,63.9130407 56.1690821,64.47343 C56.6425144,65.0338192 56.8792271,65.8260818 56.8792271,66.8502415 L56.8792271,67.1111111 C56.8792271,67.1980681 56.8695653,67.2850237 56.8502415,67.3719807 L51.8357488,67.3719807 C51.8454107,67.8067655 51.9130429,68.2101431 52.0386473,68.5821256 C52.1642518,68.9541081 52.3405786,69.2729455 52.5676329,69.5386473 C52.7946871,69.8043492 53.0676313,70.0120765 53.3864734,70.1618357 C53.7053156,70.311595 54.0628,70.3864734 54.4589372,70.3864734 C54.8357507,70.3864734 55.176327,70.3309184 55.4806763,70.2198068 C55.7850257,70.1086951 56.0676315,69.9565227 56.3285024,69.763285 L56.589372,70.2560386 C56.3091773,70.4202907 56.0024171,70.5748785 55.6690821,70.7198068 C55.3357471,70.864735 54.913046,70.9371981 54.4009662,70.9371981 Z M51.8357488,66.8502415 L56.2705314,66.8502415 C56.2705314,65.9516863 56.0869584,65.2826109 55.7198068,64.8429952 C55.3526552,64.4033794 54.8550756,64.1835749 54.2270531,64.1835749 C53.9275347,64.1835749 53.6425134,64.2439607 53.3719807,64.3647343 C53.1014479,64.4855079 52.857489,64.6618346 52.6400966,64.8937198 C52.4227042,65.125605 52.2439621,65.4057955 52.1038647,65.7342995 C51.9637674,66.0628036 51.8743963,66.4347805 51.8357488,66.8502415 Z M58.763285,70.763285 L58.763285,60.3429952 L59.4009662,60.3429952 L59.4009662,64.8937198 C59.7681178,64.5265682 60.1400947,64.2246389 60.5169082,63.9879227 C60.8937217,63.7512065 61.3236691,63.6328502 61.8067633,63.6328502 C62.5314046,63.6328502 63.0628002,63.8502394 63.4009662,64.2850242 C63.7391321,64.7198089 63.9082126,65.3912998 63.9082126,66.2995169 L63.9082126,70.763285 L63.2705314,70.763285 L63.2705314,66.3864734 C63.2705314,65.6425084 63.1473442,65.0942047 62.9009662,64.7415459 C62.6545881,64.3888871 62.2463797,64.2125604 61.6763285,64.2125604 C61.2608675,64.2125604 60.8840597,64.321255 60.5458937,64.5386473 C60.2077278,64.7560397 59.8260891,65.0821234 59.4009662,65.5169082 L59.4009662,70.763285 L58.763285,70.763285 Z M68.9516908,70.9371981 C68.5362298,70.9371981 68.1400985,70.8550733 67.763285,70.6908213 C67.3864715,70.5265692 67.055557,70.2898566 66.7705314,69.9806763 C66.4855058,69.671496 66.258455,69.2922728 66.089372,68.8429952 C65.920289,68.3937176 65.8357488,67.87923 65.8357488,67.2995169 C65.8357488,66.7198039 65.920289,66.2004854 66.089372,65.7415459 C66.258455,65.2826064 66.4855058,64.8985523 66.7705314,64.589372 C67.055557,64.2801917 67.3864715,64.0434791 67.763285,63.8792271 C68.1400985,63.714975 68.5362298,63.6328502 68.9516908,63.6328502 C69.3671518,63.6328502 69.7656986,63.714975 70.147343,63.8792271 C70.5289874,64.0434791 70.8623174,64.2801917 71.147343,64.589372 C71.4323686,64.8985523 71.6594194,65.2826064 71.8285024,65.7415459 C71.9975854,66.2004854 72.0821256,66.7198039 72.0821256,67.2995169 C72.0821256,67.87923 71.9975854,68.3937176 71.8285024,68.8429952 C71.6594194,69.2922728 71.4323686,69.671496 71.147343,69.9806763 C70.8623174,70.2898566 70.5289874,70.5265692 70.147343,70.6908213 C69.7656986,70.8550733 69.3671518,70.9371981 68.9516908,70.9371981 Z M68.9516908,70.3719807 C69.2995186,70.3719807 69.6256023,70.2971022 69.9299517,70.147343 C70.234301,69.9975838 70.495168,69.787441 70.7125604,69.5169082 C70.9299528,69.2463755 71.1014486,68.9227072 71.2270531,68.5458937 C71.3526576,68.1690802 71.4154589,67.7536255 71.4154589,67.2995169 C71.4154589,66.8357465 71.3526576,66.4154608 71.2270531,66.0386473 C71.1014486,65.6618339 70.9299528,65.3357502 70.7125604,65.0603865 C70.495168,64.7850228 70.234301,64.5724645 69.9299517,64.4227053 C69.6256023,64.2729461 69.2995186,64.1980676 68.9516908,64.1980676 C68.603863,64.1980676 68.2801947,64.2729461 67.9806763,64.4227053 C67.6811579,64.5724645 67.4227064,64.7850228 67.205314,65.0603865 C66.9879216,65.3357502 66.8164257,65.6618339 66.6908213,66.0386473 C66.5652168,66.4154608 66.5024155,66.8357465 66.5024155,67.2995169 C66.5024155,67.7536255 66.5652168,68.1690802 66.6908213,68.5458937 C66.8164257,68.9227072 66.9879216,69.2463755 67.205314,69.5169082 C67.4227064,69.787441 67.6811579,69.9975838 67.9806763,70.147343 C68.2801947,70.2971022 68.603863,70.3719807 68.9516908,70.3719807 Z M75.0241546,70.9371981 C74.4541034,70.9371981 74.1690821,70.570052 74.1690821,69.8357488 L74.1690821,60.3429952 L74.8067633,60.3429952 L74.8067633,69.9227053 C74.8067633,70.0772955 74.8357485,70.1908209 74.8937198,70.263285 C74.9516911,70.3357492 75.0241542,70.3719807 75.1111111,70.3719807 L75.205314,70.3719807 C75.2391306,70.3719807 75.2946856,70.3623189 75.3719807,70.3429952 L75.4879227,70.8647343 C75.4202895,70.8840581 75.3526573,70.9009661 75.2850242,70.9154589 C75.217391,70.9299518 75.1304353,70.9371981 75.0241546,70.9371981 Z M79.9082126,70.9371981 C79.0289811,70.9371981 78.328505,70.625607 77.8067633,70.0024155 C77.2850215,69.3792239 77.0241546,68.4782668 77.0241546,67.2995169 C77.0241546,66.7391276 77.1062794,66.2318863 77.2705314,65.7777778 C77.4347834,65.3236692 77.6594189,64.9371997 77.9444444,64.6183575 C78.22947,64.2995153 78.5579692,64.0555564 78.9299517,63.8864734 C79.3019342,63.7173905 79.6956501,63.6328502 80.1111111,63.6328502 C80.536234,63.6328502 80.9057955,63.7077287 81.2198068,63.8574879 C81.533818,64.0072471 81.8647326,64.21739 82.2125604,64.4879227 L82.1835749,63.2125604 L82.1835749,60.3429952 L82.821256,60.3429952 L82.821256,70.763285 L82.2705314,70.763285 L82.2125604,69.8647343 L82.1690821,69.8647343 C81.8888875,70.1449289 81.5579729,70.3937187 81.1763285,70.6111111 C80.7946841,70.8285035 80.371983,70.9371981 79.9082126,70.9371981 Z M79.9951691,70.3719807 C80.3816444,70.3719807 80.751206,70.2729479 81.1038647,70.0748792 C81.4565235,69.8768106 81.8164233,69.5942047 82.1835749,69.2270531 L82.1835749,65.0966184 C81.8164233,64.7681143 81.4710161,64.5362326 81.147343,64.4009662 C80.8236699,64.2656998 80.4927553,64.1980676 80.1545894,64.1980676 C79.8067615,64.1980676 79.4830933,64.277777 79.1835749,64.4371981 C78.8840565,64.5966192 78.625605,64.8140083 78.4082126,65.089372 C78.1908202,65.3647357 78.0193243,65.6932348 77.8937198,66.0748792 C77.7681153,66.4565236 77.705314,66.8647321 77.705314,67.2995169 C77.705314,67.7632873 77.7560381,68.183573 77.8574879,68.5603865 C77.9589377,68.9372 78.1062792,69.2584528 78.2995169,69.5241546 C78.4927546,69.7898564 78.7318826,69.9975838 79.0169082,70.147343 C79.3019338,70.2971022 79.6280175,70.3719807 79.9951691,70.3719807 Z M87.1690821,70.9371981 C86.6473404,70.9371981 86.1690843,70.8429961 85.7342995,70.6545894 C85.2995147,70.4661826 84.9275378,70.2415472 84.6183575,69.9806763 L84.9951691,69.5024155 C85.2946875,69.7536244 85.6135249,69.9637673 85.9516908,70.1328502 C86.2898568,70.3019332 86.7101424,70.3864734 87.2125604,70.3864734 C87.7632878,70.3864734 88.1763271,70.2487936 88.4516908,69.97343 C88.7270545,69.6980663 88.8647343,69.3768134 88.8647343,69.0096618 C88.8647343,68.7971004 88.8140102,68.6086965 88.7125604,68.4444444 C88.6111106,68.2801924 88.4782617,68.1400972 88.3140097,68.0241546 C88.1497576,67.908212 87.9686,67.8067637 87.7705314,67.7198068 C87.5724628,67.6328498 87.3719817,67.550725 87.1690821,67.47343 C86.9082113,67.3768111 86.6449289,67.2753629 86.3792271,67.1690821 C86.1135252,67.0628014 85.8743972,66.9347834 85.6618357,66.7850242 C85.4492743,66.635265 85.2777784,66.4565228 85.147343,66.2487923 C85.0169076,66.0410618 84.9516908,65.7874411 84.9516908,65.4879227 C84.9516908,65.2367137 84.9999995,64.9975857 85.0966184,64.7705314 C85.1932372,64.5434771 85.3381633,64.3454115 85.531401,64.1763285 C85.7246386,64.0072455 85.9589358,63.8743966 86.2342995,63.7777778 C86.5096632,63.6811589 86.830916,63.6328502 87.1980676,63.6328502 C87.5652192,63.6328502 87.925119,63.7004824 88.2777778,63.8357488 C88.6304365,63.9710152 88.9323659,64.1449265 89.1835749,64.3574879 L88.8357488,64.8067633 C88.6038636,64.6328494 88.3574892,64.4855079 88.0966184,64.3647343 C87.8357475,64.2439607 87.5265718,64.1835749 87.1690821,64.1835749 C86.8985494,64.1835749 86.6666676,64.2198064 86.47343,64.2922705 C86.2801923,64.3647347 86.1183581,64.4589366 85.9879227,64.5748792 C85.8574873,64.6908218 85.7608699,64.8260862 85.6980676,64.9806763 C85.6352654,65.1352665 85.6038647,65.2898543 85.6038647,65.4444444 C85.6038647,65.647344 85.649758,65.8188399 85.7415459,65.9589372 C85.8333338,66.0990345 85.956521,66.2222217 86.1111111,66.3285024 C86.2657013,66.4347831 86.442028,66.5289851 86.6400966,66.6111111 C86.8381652,66.6932371 87.0386463,66.7729465 87.2415459,66.8502415 L88.0531401,67.1690821 C88.3236729,67.2753629 88.5676318,67.4057963 88.7850242,67.5603865 C89.0024165,67.7149766 89.1787433,67.905796 89.3140097,68.1328502 C89.449276,68.3599045 89.5169082,68.6425104 89.5169082,68.9806763 C89.5169082,69.2415472 89.4661841,69.490337 89.3647343,69.7270531 C89.2632845,69.9637693 89.1111121,70.1714967 88.9082126,70.3502415 C88.705313,70.5289864 88.4589386,70.6714971 88.1690821,70.7777778 C87.8792256,70.8840585 87.5458956,70.9371981 87.1690821,70.9371981 Z" id="Households" fill="#FFFFFF" fill-rule="nonzero"></path>
            <path d="M12.509058,57.8550725 L12.509058,56.1521739 L15.0815217,56.1521739 L15.0815217,48.5797101 L12.9619565,48.5797101 L12.9619565,47.2753623 C14.1032609,47.057971 14.9003623,46.7681159 15.625,46.3333333 L17.182971,46.3333333 L17.182971,56.1521739 L19.4474638,56.1521739 L19.4474638,57.8550725 L12.509058,57.8550725 Z M21.1503623,57.8550725 L21.1503623,56.6413043 C24.3568841,53.5434783 26.3677536,51.5144928 26.3677536,49.7572464 C26.3677536,48.5434783 25.6974638,47.7644928 24.4655797,47.7644928 C23.5778986,47.7644928 22.8351449,48.3623188 22.2192029,49.0507246 L21.0597826,47.8913043 C22.1105072,46.7681159 23.1612319,46.115942 24.7373188,46.115942 C26.9474638,46.115942 28.3786232,47.5108696 28.3786232,49.6485507 C28.3786232,51.6956522 26.4764493,53.7971014 24.1938406,56.2065217 C24.7916667,56.1521739 25.5525362,56.0797101 26.1141304,56.0797101 L28.9402174,56.0797101 L28.9402174,57.8550725 L21.1503623,57.8550725 Z M34.4112319,58.0724638 C32.1648551,58.0724638 30.4981884,56.7681159 30.4981884,54.9021739 C30.4981884,53.4710145 31.4945652,52.5289855 32.5815217,51.9492754 L32.5815217,51.8768116 C31.6938406,51.2427536 30.9873188,50.3913043 30.9873188,49.1775362 C30.9873188,47.3115942 32.4728261,46.115942 34.4655797,46.115942 C36.5307971,46.115942 37.8532609,47.365942 37.8532609,49.2318841 C37.8532609,50.3731884 37.0561594,51.3333333 36.3134058,51.8768116 L36.3134058,51.9492754 C37.3822464,52.5471014 38.3061594,53.3985507 38.3061594,54.9384058 C38.3061594,56.7137681 36.7481884,58.0724638 34.4112319,58.0724638 Z M35.1721014,51.3514493 C35.7880435,50.7355072 36.1322464,50.0833333 36.1322464,49.3586957 C36.1322464,48.3442029 35.4981884,47.6014493 34.4293478,47.6014493 C33.5416667,47.6014493 32.8532609,48.1811594 32.8532609,49.1775362 C32.8532609,50.3369565 33.8858696,50.8442029 35.1721014,51.3514493 Z M34.4474638,56.5869565 C35.5525362,56.5869565 36.3496377,55.9347826 36.3496377,54.865942 C36.3496377,53.615942 35.1358696,53.1630435 33.5778986,52.5289855 C32.8532609,53.0543478 32.3278986,53.7971014 32.3278986,54.6847826 C32.3278986,55.826087 33.2699275,56.5869565 34.4474638,56.5869565 Z M40.3532609,61.1521739 L39.9003623,60.0108696 C41.0778986,59.557971 41.7481884,58.7246377 41.7300725,57.8188406 L41.567029,57.8188406 C40.8605072,57.8188406 40.2264493,57.3478261 40.2264493,56.5326087 C40.2264493,55.7536232 40.8605072,55.2463768 41.6213768,55.2463768 C42.5996377,55.2463768 43.1793478,56.0434783 43.1793478,57.384058 C43.1793478,59.1594203 42.1467391,60.5362319 40.3532609,61.1521739 Z M48.6684783,58.0724638 C46.2771739,58.0724638 44.7554348,55.9347826 44.7554348,52.0398551 C44.7554348,48.1449275 46.2771739,46.115942 48.6684783,46.115942 C51.0597826,46.115942 52.5815217,48.1630435 52.5815217,52.0398551 C52.5815217,55.9347826 51.0597826,58.0724638 48.6684783,58.0724638 Z M48.6684783,56.442029 C49.7916667,56.442029 50.5887681,55.3007246 50.5887681,52.0398551 C50.5887681,48.7789855 49.7916667,47.7463768 48.6684783,47.7463768 C47.5634058,47.7463768 46.7481884,48.7789855 46.7481884,52.0398551 C46.7481884,55.3007246 47.5634058,56.442029 48.6684783,56.442029 Z M57.9619565,58.0724638 C55.5706522,58.0724638 54.048913,55.9347826 54.048913,52.0398551 C54.048913,48.1449275 55.5706522,46.115942 57.9619565,46.115942 C60.3532609,46.115942 61.875,48.1630435 61.875,52.0398551 C61.875,55.9347826 60.3532609,58.0724638 57.9619565,58.0724638 Z M57.9619565,56.442029 C59.0851449,56.442029 59.8822464,55.3007246 59.8822464,52.0398551 C59.8822464,48.7789855 59.0851449,47.7463768 57.9619565,47.7463768 C56.8568841,47.7463768 56.0416667,48.7789855 56.0416667,52.0398551 C56.0416667,55.3007246 56.8568841,56.442029 57.9619565,56.442029 Z M67.2554348,58.0724638 C64.8641304,58.0724638 63.3423913,55.9347826 63.3423913,52.0398551 C63.3423913,48.1449275 64.8641304,46.115942 67.2554348,46.115942 C69.6467391,46.115942 71.1684783,48.1630435 71.1684783,52.0398551 C71.1684783,55.9347826 69.6467391,58.0724638 67.2554348,58.0724638 Z M67.2554348,56.442029 C68.3786232,56.442029 69.1757246,55.3007246 69.1757246,52.0398551 C69.1757246,48.7789855 68.3786232,47.7463768 67.2554348,47.7463768 C66.1503623,47.7463768 65.3351449,48.7789855 65.3351449,52.0398551 C65.3351449,55.3007246 66.1503623,56.442029 67.2554348,56.442029 Z M73.2155797,61.1521739 L72.7626812,60.0108696 C73.9402174,59.557971 74.6105072,58.7246377 74.5923913,57.8188406 L74.4293478,57.8188406 C73.7228261,57.8188406 73.0887681,57.3478261 73.0887681,56.5326087 C73.0887681,55.7536232 73.7228261,55.2463768 74.4836957,55.2463768 C75.4619565,55.2463768 76.0416667,56.0434783 76.0416667,57.384058 C76.0416667,59.1594203 75.009058,60.5362319 73.2155797,61.1521739 Z M81.5307971,58.0724638 C79.1394928,58.0724638 77.6177536,55.9347826 77.6177536,52.0398551 C77.6177536,48.1449275 79.1394928,46.115942 81.5307971,46.115942 C83.9221014,46.115942 85.4438406,48.1630435 85.4438406,52.0398551 C85.4438406,55.9347826 83.9221014,58.0724638 81.5307971,58.0724638 Z M81.5307971,56.442029 C82.6539855,56.442029 83.451087,55.3007246 83.451087,52.0398551 C83.451087,48.7789855 82.6539855,47.7463768 81.5307971,47.7463768 C80.4257246,47.7463768 79.6105072,48.7789855 79.6105072,52.0398551 C79.6105072,55.3007246 80.4257246,56.442029 81.5307971,56.442029 Z M90.8242754,58.0724638 C88.432971,58.0724638 86.9112319,55.9347826 86.9112319,52.0398551 C86.9112319,48.1449275 88.432971,46.115942 90.8242754,46.115942 C93.2155797,46.115942 94.7373188,48.1630435 94.7373188,52.0398551 C94.7373188,55.9347826 93.2155797,58.0724638 90.8242754,58.0724638 Z M90.8242754,56.442029 C91.9474638,56.442029 92.7445652,55.3007246 92.7445652,52.0398551 C92.7445652,48.7789855 91.9474638,47.7463768 90.8242754,47.7463768 C89.7192029,47.7463768 88.9039855,48.7789855 88.9039855,52.0398551 C88.9039855,55.3007246 89.7192029,56.442029 90.8242754,56.442029 Z M100.117754,58.0724638 C97.7264493,58.0724638 96.2047101,55.9347826 96.2047101,52.0398551 C96.2047101,48.1449275 97.7264493,46.115942 100.117754,46.115942 C102.509058,46.115942 104.030797,48.1630435 104.030797,52.0398551 C104.030797,55.9347826 102.509058,58.0724638 100.117754,58.0724638 Z M100.117754,56.442029 C101.240942,56.442029 102.038043,55.3007246 102.038043,52.0398551 C102.038043,48.7789855 101.240942,47.7463768 100.117754,47.7463768 C99.0126812,47.7463768 98.1974638,48.7789855 98.1974638,52.0398551 C98.1974638,55.3007246 99.0126812,56.442029 100.117754,56.442029 Z" id="128,000,000" fill="#FFFFFF" fill-rule="nonzero"></path>
            <path d="M148.478261,65.9323671 L148.478261,56.4541063 L151.463768,56.4541063 C153.565217,56.4541063 155.130435,57.178744 155.130435,59.3816425 C155.130435,61.4830918 153.565217,62.4541063 151.521739,62.4541063 L150.15942,62.4541063 L150.15942,65.9323671 L148.478261,65.9323671 Z M150.15942,61.1062802 L151.391304,61.1062802 C152.797101,61.1062802 153.478261,60.5410628 153.478261,59.3816425 C153.478261,58.1932367 152.73913,57.8019324 151.333333,57.8019324 L150.15942,57.8019324 L150.15942,61.1062802 Z M159.492754,66.1062802 C157.521739,66.1062802 155.985507,64.7294686 155.985507,62.3816425 C155.985507,60.0628019 157.594203,58.6425121 159.26087,58.6425121 C161.188406,58.6425121 162.202899,60.0338164 162.202899,62.0193237 C162.202899,62.3381643 162.173913,62.6570048 162.130435,62.8309179 L157.608696,62.8309179 C157.753623,64.0917874 158.565217,64.8164251 159.710145,64.8164251 C160.318841,64.8164251 160.84058,64.6280193 161.362319,64.294686 L161.927536,65.3381643 C161.246377,65.7874396 160.391304,66.1062802 159.492754,66.1062802 Z M157.594203,61.7004831 L160.753623,61.7004831 C160.753623,60.5990338 160.275362,59.9323671 159.304348,59.9323671 C158.463768,59.9323671 157.73913,60.5555556 157.594203,61.7004831 Z M163.797101,65.9323671 L163.797101,58.8164251 L165.173913,58.8164251 L165.289855,60.0772947 L165.347826,60.0772947 C165.855072,59.1497585 166.608696,58.6425121 167.362319,58.6425121 C167.724638,58.6425121 167.956522,58.6859903 168.173913,58.7874396 L167.884058,60.236715 C167.637681,60.1642512 167.449275,60.1207729 167.144928,60.1207729 C166.57971,60.1207729 165.898551,60.5120773 165.463768,61.5845411 L165.463768,65.9323671 L163.797101,65.9323671 Z M172.246377,65.9323671 L172.246377,56.4541063 L173.927536,56.4541063 L173.927536,60.2657005 L177.768116,60.2657005 L177.768116,56.4541063 L179.449275,56.4541063 L179.449275,65.9323671 L177.768116,65.9323671 L177.768116,61.7294686 L173.927536,61.7294686 L173.927536,65.9323671 L172.246377,65.9323671 Z M184.623188,66.1062802 C182.855072,66.1062802 181.246377,64.7439614 181.246377,62.3816425 C181.246377,60.0048309 182.855072,58.6425121 184.623188,58.6425121 C186.405797,58.6425121 188.014493,60.0048309 188.014493,62.3816425 C188.014493,64.7439614 186.405797,66.1062802 184.623188,66.1062802 Z M184.623188,64.7439614 C185.666667,64.7439614 186.304348,63.8019324 186.304348,62.3816425 C186.304348,60.9468599 185.666667,60.0048309 184.623188,60.0048309 C183.57971,60.0048309 182.956522,60.9468599 182.956522,62.3816425 C182.956522,63.8019324 183.57971,64.7439614 184.623188,64.7439614 Z M191.782609,66.1062802 C190.26087,66.1062802 189.594203,65.0772947 189.594203,63.2801932 L189.594203,58.8164251 L191.26087,58.8164251 L191.26087,63.0628019 C191.26087,64.236715 191.594203,64.6714976 192.362319,64.6714976 C192.985507,64.6714976 193.405797,64.3816425 193.942029,63.6859903 L193.942029,58.8164251 L195.608696,58.8164251 L195.608696,65.9323671 L194.246377,65.9323671 L194.115942,64.8888889 L194.072464,64.8888889 C193.449275,65.6280193 192.753623,66.1062802 191.782609,66.1062802 Z M199.710145,66.1062802 C198.73913,66.1062802 197.710145,65.6859903 197.014493,65.1207729 L197.797101,64.0483092 C198.434783,64.5410628 199.043478,64.8454106 199.768116,64.8454106 C200.536232,64.8454106 200.898551,64.4830918 200.898551,63.9903382 C200.898551,63.3961353 200.130435,63.1352657 199.376812,62.8454106 C198.434783,62.4975845 197.376812,61.9613527 197.376812,60.7729469 C197.376812,59.52657 198.376812,58.6425121 199.971014,58.6425121 C200.956522,58.6425121 201.753623,59.0483092 202.333333,59.4975845 L201.565217,60.5120773 C201.072464,60.1497585 200.565217,59.9033816 200,59.9033816 C199.289855,59.9033816 198.956522,60.236715 198.956522,60.6859903 C198.956522,61.2512077 199.666667,61.468599 200.434783,61.7439614 C201.405797,62.1062802 202.478261,62.5700483 202.478261,63.9033816 C202.478261,65.1207729 201.507246,66.1062802 199.710145,66.1062802 Z M207.014493,66.1062802 C205.043478,66.1062802 203.507246,64.7294686 203.507246,62.3816425 C203.507246,60.0628019 205.115942,58.6425121 206.782609,58.6425121 C208.710145,58.6425121 209.724638,60.0338164 209.724638,62.0193237 C209.724638,62.3381643 209.695652,62.6570048 209.652174,62.8309179 L205.130435,62.8309179 C205.275362,64.0917874 206.086957,64.8164251 207.231884,64.8164251 C207.84058,64.8164251 208.362319,64.6280193 208.884058,64.294686 L209.449275,65.3381643 C208.768116,65.7874396 207.913043,66.1062802 207.014493,66.1062802 Z M205.115942,61.7004831 L208.275362,61.7004831 C208.275362,60.5990338 207.797101,59.9323671 206.826087,59.9323671 C205.985507,59.9323671 205.26087,60.5555556 205.115942,61.7004831 Z M211.318841,65.9323671 L211.318841,55.7004831 L212.985507,55.7004831 L212.985507,58.3381643 L212.927536,59.7149758 C213.521739,59.1497585 214.231884,58.6425121 215.202899,58.6425121 C216.724638,58.6425121 217.391304,59.6714976 217.391304,61.468599 L217.391304,65.9323671 L215.724638,65.9323671 L215.724638,61.6859903 C215.724638,60.5120773 215.391304,60.0772947 214.608696,60.0772947 C213.985507,60.0772947 213.57971,60.3816425 212.985507,60.9613527 L212.985507,65.9323671 L211.318841,65.9323671 Z M222.318841,66.1062802 C220.550725,66.1062802 218.942029,64.7439614 218.942029,62.3816425 C218.942029,60.0048309 220.550725,58.6425121 222.318841,58.6425121 C224.101449,58.6425121 225.710145,60.0048309 225.710145,62.3816425 C225.710145,64.7439614 224.101449,66.1062802 222.318841,66.1062802 Z M222.318841,64.7439614 C223.362319,64.7439614 224,63.8019324 224,62.3816425 C224,60.9468599 223.362319,60.0048309 222.318841,60.0048309 C221.275362,60.0048309 220.652174,60.9468599 220.652174,62.3816425 C220.652174,63.8019324 221.275362,64.7439614 222.318841,64.7439614 Z M228.985507,66.1062802 C227.797101,66.1062802 227.362319,65.3381643 227.362319,64.1062802 L227.362319,55.7004831 L229.028986,55.7004831 L229.028986,64.1932367 C229.028986,64.5990338 229.217391,64.7439614 229.391304,64.7439614 C229.463768,64.7439614 229.521739,64.7439614 229.652174,64.7149758 L229.869565,65.9613527 C229.666667,66.0483092 229.376812,66.1062802 228.985507,66.1062802 Z M233.782609,66.1062802 C232,66.1062802 230.855072,64.7294686 230.855072,62.3816425 C230.855072,60.0628019 232.318841,58.6425121 233.869565,58.6425121 C234.681159,58.6425121 235.188406,58.9468599 235.73913,59.4251208 L235.681159,58.2801932 L235.681159,55.7004831 L237.347826,55.7004831 L237.347826,65.9323671 L235.971014,65.9323671 L235.855072,65.1642512 L235.797101,65.1642512 C235.275362,65.6859903 234.550725,66.1062802 233.782609,66.1062802 Z M234.188406,64.7294686 C234.73913,64.7294686 235.202899,64.4830918 235.681159,63.9323671 L235.681159,60.6135266 C235.188406,60.178744 234.710145,60.0193237 234.231884,60.0193237 C233.318841,60.0193237 232.57971,60.8743961 232.57971,62.3671498 C232.57971,63.9033816 233.15942,64.7294686 234.188406,64.7294686 Z" id="PerHousehold" fill="#555555" fill-rule="nonzero"></path>
            <path d="M154.238527,51.4371981 L154.238527,48.4178744 C152.396739,48.236715 150.373792,47.3913043 149.015097,46.1231884 L150.585145,43.7681159 C152.004227,44.8852657 153.423309,45.6400966 155.053744,45.6400966 C157.016304,45.6400966 157.982488,44.673913 157.982488,43.0434783 C157.982488,39.057971 149.769928,39.6316425 149.769928,33.955314 C149.769928,31.147343 151.521135,29.1545894 154.238527,28.6714976 L154.238527,25.5917874 L156.653986,25.5917874 L156.653986,28.6111111 C158.586353,28.852657 159.914855,29.7886473 161.032005,30.9661836 L159.250604,32.9891304 C158.133454,31.9625604 157.197464,31.3888889 155.748188,31.3888889 C154.117754,31.3888889 153.121377,32.2342995 153.121377,33.8043478 C153.121377,37.4275362 161.333937,36.7028986 161.333937,42.8019324 C161.333937,45.6702899 159.643116,47.7838164 156.653986,48.3272947 L156.653986,51.4371981 L154.238527,51.4371981 Z M164.292874,48.115942 L164.292874,46.0929952 C169.637077,40.9299517 172.988527,37.5483092 172.988527,34.6195652 C172.988527,32.5966184 171.871377,31.2983092 169.818237,31.2983092 C168.338768,31.2983092 167.100845,32.294686 166.074275,33.442029 L164.141908,31.5096618 C165.893116,29.6376812 167.644324,28.5507246 170.271135,28.5507246 C173.95471,28.5507246 176.339976,30.8756039 176.339976,34.4384058 C176.339976,37.8502415 173.169686,41.352657 169.365338,45.3683575 C170.361715,45.2777778 171.629831,45.1570048 172.565821,45.1570048 L177.275966,45.1570048 L177.275966,48.115942 L164.292874,48.115942 Z M186.937802,48.4782609 C183.163647,48.4782609 179.963164,45.5495169 179.963164,39.0881643 C179.963164,31.6304348 183.586353,28.5507246 187.511473,28.5507246 C189.836353,28.5507246 191.496981,29.5169082 192.644324,30.7246377 L190.772343,32.8381643 C190.077899,31.9927536 188.870169,31.3888889 187.722826,31.3888889 C185.307367,31.3888889 183.344807,33.1702899 183.193841,38.4842995 C184.31099,37.0652174 185.971618,36.2198068 187.360507,36.2198068 C190.681763,36.2198068 192.976449,38.1521739 192.976449,42.1678744 C192.976449,46.0024155 190.228865,48.4782609 186.937802,48.4782609 Z M186.877415,45.821256 C188.477657,45.821256 189.745773,44.5229469 189.745773,42.1678744 C189.745773,39.9033816 188.628623,38.7560386 186.726449,38.7560386 C185.639493,38.7560386 184.371377,39.3599034 183.28442,40.9601449 C183.646739,44.3719807 185.005435,45.821256 186.877415,45.821256 Z M196.297705,53.6111111 L195.542874,51.7089372 C197.505435,50.9541063 198.622585,49.5652174 198.592391,48.0555556 L198.320652,48.0555556 C197.143116,48.0555556 196.086353,47.2705314 196.086353,45.9118357 C196.086353,44.6135266 197.143116,43.7681159 198.411232,43.7681159 C200.041667,43.7681159 201.00785,45.0966184 201.00785,47.3309179 C201.00785,50.2898551 199.286836,52.5845411 196.297705,53.6111111 Z M210.156401,48.4782609 C206.170894,48.4782609 203.634662,44.9154589 203.634662,38.423913 C203.634662,31.9323671 206.170894,28.5507246 210.156401,28.5507246 C214.141908,28.5507246 216.67814,31.9625604 216.67814,38.423913 C216.67814,44.9154589 214.141908,48.4782609 210.156401,48.4782609 Z M210.156401,45.7608696 C212.028382,45.7608696 213.356884,43.8586957 213.356884,38.423913 C213.356884,32.9891304 212.028382,31.2681159 210.156401,31.2681159 C208.314614,31.2681159 206.955918,32.9891304 206.955918,38.423913 C206.955918,43.8586957 208.314614,45.7608696 210.156401,45.7608696 Z M225.645531,48.4782609 C221.660024,48.4782609 219.123792,44.9154589 219.123792,38.423913 C219.123792,31.9323671 221.660024,28.5507246 225.645531,28.5507246 C229.631039,28.5507246 232.167271,31.9625604 232.167271,38.423913 C232.167271,44.9154589 229.631039,48.4782609 225.645531,48.4782609 Z M225.645531,45.7608696 C227.517512,45.7608696 228.846014,43.8586957 228.846014,38.423913 C228.846014,32.9891304 227.517512,31.2681159 225.645531,31.2681159 C223.803744,31.2681159 222.445048,32.9891304 222.445048,38.423913 C222.445048,43.8586957 223.803744,45.7608696 225.645531,45.7608696 Z M241.134662,48.4782609 C237.149155,48.4782609 234.612923,44.9154589 234.612923,38.423913 C234.612923,31.9323671 237.149155,28.5507246 241.134662,28.5507246 C245.120169,28.5507246 247.656401,31.9625604 247.656401,38.423913 C247.656401,44.9154589 245.120169,48.4782609 241.134662,48.4782609 Z M241.134662,45.7608696 C243.006643,45.7608696 244.335145,43.8586957 244.335145,38.423913 C244.335145,32.9891304 243.006643,31.2681159 241.134662,31.2681159 C239.292874,31.2681159 237.934179,32.9891304 237.934179,38.423913 C237.934179,43.8586957 239.292874,45.7608696 241.134662,45.7608696 Z" id="$26,000" fill="#0A2F5A" fill-rule="nonzero"></path>
            <polygon id="+" fill="#0A2F5A" fill-rule="nonzero" transform="translate(132.467846, 50.226812) rotate(45.000000) translate(-132.467846, -50.226812) " points="131.522194 55.2485509 131.522194 51.1398552 127.63089 51.1398552 127.63089 49.3137683 131.522194 49.3137683 131.522194 45.2050726 133.413499 45.2050726 133.413499 49.3137683 137.304803 49.3137683 137.304803 51.1398552 133.413499 51.1398552 133.413499 55.2485509"></polygon>
        </g>
    </g>
</svg>