<?xml version="1.0" encoding="UTF-8"?>
<svg width="305px" height="67px" viewBox="0 0 305 67" version="1.1" xmlns="http://www.w3.org/2000/svg" xmlns:xlink="http://www.w3.org/1999/xlink">
    <!-- Generator: Sketch 59.1 (86144) - https://sketch.com -->
    <title>Group 1511</title>
    <desc>Created with Sketch.</desc>
    <g id="Desktop" stroke="none" stroke-width="1" fill="none" fill-rule="evenodd">
        <g id="Homelessness-Section-3-11" transform="translate(-848.000000, -1947.000000)">
            <g id="Group-15" transform="translate(847.000000, 1943.000000)">
                <polygon id="Fill-1" fill="#E0E0E0" points="3.22525 37.460375 300.22525 37.460375 300.22525 27.710375 3.22525 27.710375"></polygon>
                <line x1="3.2251" y1="45.464825" x2="3.2251" y2="19.214825" id="Stroke-2" stroke="#D1D1D1" stroke-width="0.75" stroke-linecap="round"></line>
                <line x1="77.4751" y1="45.335225" x2="77.4751" y2="19.085225" id="Stroke-3" stroke="#D1D1D1" stroke-width="0.75" stroke-linecap="round"></line>
                <line x1="151.7251" y1="45.464825" x2="151.7251" y2="19.214825" id="Stroke-4" stroke="#D1D1D1" stroke-width="0.75" stroke-linecap="round"></line>
                <line x1="225.9751" y1="45.464825" x2="225.9751" y2="19.214825" id="Stroke-5" stroke="#D1D1D1" stroke-width="0.75" stroke-linecap="round"></line>
                <line x1="300.2251" y1="45.464825" x2="300.2251" y2="19.214825" id="Stroke-6" stroke="#D1D1D1" stroke-width="0.75" stroke-linecap="round"></line>
                <g id="Group-14" transform="translate(0.000000, 0.421875)">
                    <path d="M295.7251,40.78835 L84.2251,40.78835 C82.5751,40.78835 81.2251,39.43835 81.2251,37.78835 L81.2251,26.53835 C81.2251,24.8891 82.5751,23.53835 84.2251,23.53835 L295.7251,23.53835 C297.3751,23.53835 298.7251,24.8891 298.7251,26.53835 L298.7251,37.78835 C298.7251,39.43835 297.3751,40.78835 295.7251,40.78835" id="Fill-7" fill="#FFD097"></path>
                    <path d="M144.05155,42.28835 L91.2838,42.28835 C89.7568,42.28835 88.50805,41.0396 88.50805,39.5141 L88.50805,24.81335 C88.50805,23.2871 89.7568,22.03835 91.2838,22.03835 L144.05155,22.03835 C145.5778,22.03835 146.82655,23.2871 146.82655,24.81335 L146.82655,39.5141 C146.82655,41.0396 145.5778,42.28835 144.05155,42.28835" id="Fill-9" fill="#FFAD29"></path>
                    <text id="CLUSTER-MEDIAN:-67%" font-family="SourceSansPro-Semibold, Source Sans Pro" font-size="10.5" font-weight="500" letter-spacing="-0.0149999997" fill="#565656">
                        <tspan x="63.37855" y="69.3448205">C</tspan>
                        <tspan x="69.41155" y="69.3448205" letter-spacing="-0.361499995">L</tspan>
                        <tspan x="73.97455" y="69.3448205" letter-spacing="-0.119999997">U</tspan>
                        <tspan x="80.62705" y="69.3448205" letter-spacing="-0.225000009">S</tspan>
                        <tspan x="85.91455" y="69.3448205">TER MEDIAN: 67%</tspan>
                    </text>
                    <text id="0%" font-family="SourceSansPro-Regular, Source Sans Pro" font-size="10.5" font-weight="normal" letter-spacing="-0.0299999993" fill="#848484">
                        <tspan x="0.99805" y="10.8493205">0%</tspan>
                    </text>
                    <text id="50%" font-family="SourceSansPro-Regular, Source Sans Pro" font-size="10.5" font-weight="normal" letter-spacing="-0.0299999993" fill="#848484">
                        <tspan x="71.34805" y="10.8493205">50%</tspan>
                    </text>
                    <text id="150%" font-family="SourceSansPro-Regular, Source Sans Pro" font-size="10.5" font-weight="normal" letter-spacing="-0.0299999993" fill="#848484">
                        <tspan x="217.44505" y="10.8493205">150%</tspan>
                    </text>
                    <text id="100%" font-family="SourceSansPro-Regular, Source Sans Pro" font-size="10.5" font-weight="normal" letter-spacing="-0.0299999993" fill="#848484">
                        <tspan x="140.19655" y="10.8493205">100%</tspan>
                    </text>
                    <text id="200%" font-family="SourceSansPro-Regular, Source Sans Pro" font-size="10.5" font-weight="normal" letter-spacing="-0.0299999993" fill="#848484">
                        <tspan x="281.94655" y="10.8493205">200%</tspan>
                    </text>
                    <line x1="113.341825" y1="60.41795" x2="113.341825" y2="47.3387" id="Stroke-12" stroke="#636363" stroke-width="1.5" stroke-linecap="round"></line>
                    <path d="M113.341825,47.640125 C112.558075,48.423875 111.008575,48.797375 109.933075,48.828125 C111.376825,47.753375 112.636075,46.356875 113.341825,44.667875 C114.017575,46.356875 115.353325,47.691875 116.750575,48.828125 C115.599325,48.735875 114.201325,48.454625 113.341825,47.640125" id="Fill-13" fill="#636363"></path>
                </g>
                <text id="%" font-family="SourceSansPro-Bold, Source Sans Pro" font-size="13.5" font-weight="bold" fill="#FFFFFF">
                    <tspan x="107.834725" y="33.7457299">%</tspan>
                </text>
            </g>
        </g>
    </g>
</svg>