<?xml version="1.0" encoding="UTF-8"?>
<svg width="105px" height="65px" viewBox="0 0 105 65" version="1.1" xmlns="http://www.w3.org/2000/svg" xmlns:xlink="http://www.w3.org/1999/xlink">
    <!-- Generator: Sketch 59.1 (86144) - https://sketch.com -->
    <title>Group 1311</title>
    <desc>Created with Sketch.</desc>
    <g id="Desktop" stroke="none" stroke-width="1" fill="none" fill-rule="evenodd">
        <g id="Homelessness-Section-3-11" transform="translate(-842.000000, -2522.000000)">
            <g id="Group-13" transform="translate(842.000000, 2522.000000)">
                <path d="M23.4585,27.6639165 C28.47075,27.685575 32.42925,23.828325 32.419518,18.930075 C32.4105,14.141325 28.45125,10.186575 23.63925,10.1594279 C18.69825,10.131825 14.73375,14.034825 14.7217184,18.939825 C14.709,23.797575 18.55875,27.642075 23.4585,27.6639165 L23.4585,27.6639165 Z M34.10175,31.206075 L31.8795,31.206075 C27.654,31.206825 23.427,31.171575 19.20225,31.223325 C17.07075,31.249575 15.6945,32.679825 15.63225,34.729575 C15.5685,36.832575 16.986,38.527575 19.11,38.550825 C25.386,38.617575 31.6635,38.611575 37.9395,38.553825 C39.9405,38.535075 41.49525,36.964575 41.51475,34.977075 C41.56875,29.385075 41.5695,23.791575 41.51475,18.198825 C41.4945,16.164825 39.6945,14.558325 37.73325,14.606325 C35.84625,14.651325 34.18275,16.208325 34.1415,18.180075 C34.0665,21.783075 34.1085,25.388325 34.10175,28.992075 C34.101,29.656575 34.10175,30.320325 34.10175,31.206075 L34.10175,31.206075 Z M44.622,38.189325 C45.33975,38.256825 45.7635,38.331075 46.188,38.331825 C62.5455,38.336325 78.90375,38.317575 95.26125,38.3671075 C96.69675,38.372325 97.164,37.740825 97.1955,36.531075 C97.26225,33.986325 97.4745,31.424325 97.27875,28.896825 C96.64125,20.652075 90.4395,14.715075 82.18125,14.626575 C70.17825,14.498325 58.173,14.606325 46.16925,14.564325 C44.90325,14.559825 44.58975,15.027075 44.6042435,16.202325 C44.65725,20.244075 44.62275,24.288075 44.622,28.330575 L44.622,38.189325 Z M91.86975,53.327325 C91.86975,56.017575 91.88325,58.611825 91.8645,61.206075 C91.851,62.931075 92.75325,63.703575 94.398,63.714825 C96.57525,63.732075 98.754,63.738075 100.93125,63.717825 C102.99225,63.699825 103.7115,62.977575 103.7175,60.898575 C103.73175,55.672575 103.72425,50.445825 103.72425,45.219075 C103.7235,41.571825 103.54275,41.391075 99.972,41.391075 C71.66175,41.391825 43.35225,41.391825 15.042,41.391825 L12.41775,41.391825 L12.41775,38.836575 C12.41775,28.322325 12.411,17.806575 12.423,7.292325 C12.42525,5.289825 12.0465,3.446325 10.48725,2.044575 C8.568,0.318075 6.30975,0.099075 4.04175,1.023075 C1.6065,2.015325 0.50625,4.074075 0.498,6.664575 C0.474,14.068575 0.48975,21.472575 0.48975,28.876575 C0.489,39.453825 0.486,50.031075 0.49275,60.608325 C0.49425,63.017325 1.18875,63.705075 3.5895,63.718575 C5.39325,63.729825 7.19775,63.725325 9.00225,63.720075 C11.796,63.712575 12.41175,63.108075 12.417,60.359325 C12.42225,58.020825 12.41775,55.682325 12.41775,53.327325 L91.86975,53.327325 Z" id="Fill-1" fill="#4D4D8C"></path>
                <path d="M23.4585,27.6639165 C28.47075,27.685575 32.42925,23.828325 32.419518,18.930075 C32.4105,14.141325 28.45125,10.186575 23.63925,10.1594279 C18.69825,10.131825 14.73375,14.034825 14.7217184,18.939825 C14.709,23.797575 18.55875,27.642075 23.4585,27.6639165 Z M34.10175,31.206075 L31.8795,31.206075 C27.654,31.206825 23.427,31.171575 19.20225,31.223325 C17.07075,31.249575 15.6945,32.679825 15.63225,34.729575 C15.5685,36.832575 16.986,38.527575 19.11,38.550825 C25.386,38.617575 31.6635,38.611575 37.9395,38.553825 C39.9405,38.535075 41.49525,36.964575 41.51475,34.977075 C41.56875,29.385075 41.5695,23.791575 41.51475,18.198825 C41.4945,16.164825 39.6945,14.558325 37.73325,14.606325 C35.84625,14.651325 34.18275,16.208325 34.1415,18.180075 C34.0665,21.783075 34.1085,25.388325 34.10175,28.992075 C34.101,29.656575 34.10175,30.320325 34.10175,31.206075 Z M44.622,38.189325 C45.33975,38.256825 45.7635,38.331075 46.188,38.331825 C62.5455,38.336325 78.90375,38.317575 95.26125,38.3671075 C96.69675,38.372325 97.164,37.740825 97.1955,36.531075 C97.26225,33.986325 97.4745,31.424325 97.27875,28.896825 C96.64125,20.652075 90.4395,14.715075 82.18125,14.626575 C70.17825,14.498325 58.173,14.606325 46.16925,14.564325 C44.90325,14.559825 44.58975,15.027075 44.6042435,16.202325 C44.65725,20.244075 44.62275,24.288075 44.622,28.330575 L44.622,38.189325 Z M91.86975,53.327325 C91.86975,56.017575 91.88325,58.611825 91.8645,61.206075 C91.851,62.931075 92.75325,63.703575 94.398,63.714825 C96.57525,63.732075 98.754,63.738075 100.93125,63.717825 C102.99225,63.699825 103.7115,62.977575 103.7175,60.898575 C103.73175,55.672575 103.72425,50.445825 103.72425,45.219075 C103.7235,41.571825 103.54275,41.391075 99.972,41.391075 C71.66175,41.391825 43.35225,41.391825 15.042,41.391825 L12.41775,41.391825 L12.41775,38.836575 C12.41775,28.322325 12.411,17.806575 12.423,7.292325 C12.42525,5.289825 12.0465,3.446325 10.48725,2.044575 C8.568,0.318075 6.30975,0.099075 4.04175,1.023075 C1.6065,2.015325 0.50625,4.074075 0.498,6.664575 C0.474,14.068575 0.48975,21.472575 0.48975,28.876575 C0.489,39.453825 0.486,50.031075 0.49275,60.608325 C0.49425,63.017325 1.18875,63.705075 3.5895,63.718575 C5.39325,63.729825 7.19775,63.725325 9.00225,63.720075 C11.796,63.712575 12.41175,63.108075 12.417,60.359325 C12.42225,58.020825 12.41775,55.682325 12.41775,53.327325 L91.86975,53.327325 Z" id="Stroke-3" stroke="#FFFFFF" stroke-width="0.96975"></path>
                <path d="M91.869675,53.3271 L12.417675,53.3271 C12.417675,55.68285 12.422175,58.0206 12.416925,60.3591 C12.411675,63.10785 11.795925,63.7131 9.002175,63.71985 C7.197675,63.7251 5.393175,63.7296 3.589425,63.71835 C1.188675,63.70485 0.494175,63.0171 0.492675,60.6081 C0.48491404,50.03085 0.488925,39.4536 0.489675,28.87635 C0.489675,21.47235 0.474675,14.06835 0.497925,6.66435 C0.506925,4.07385 1.606425,2.0151 4.041675,1.02285 C6.309675,0.09885 8.568675,0.31785 10.487175,2.04435 C12.046425,3.4461 12.425175,5.2896 12.422925,7.2921 C12.410925,17.8071 12.417675,28.3221 12.417675,38.8371 L12.417675,41.3916 L15.041925,41.3916 C43.352925,41.3916 71.662425,41.3916 99.971925,41.39085 C103.542675,41.39085 103.723425,41.5716 103.724175,45.21885 C103.724925,50.4456 103.731675,55.67235 103.717425,60.89835 C103.711425,62.97735 102.992175,63.6996 100.931175,63.7176 C98.753925,63.73785 96.575175,63.73185 94.397925,63.71535 C92.753175,63.70335 91.851675,62.9316 91.864425,61.20585 C91.883925,58.6116 91.869675,56.01735 91.869675,53.3271" id="Fill-5" fill="#FFAD29"></path>
                <path d="M44.62185,38.1894 L44.62185,28.3299 C44.6226,24.28815 44.6571,20.24415 44.60535,16.2024 C44.5896,15.02715 44.9031,14.5599 46.1691,14.5644 C58.17285,14.6064 70.1781,14.4984 82.1811,14.62665 C90.43935,14.71515 96.6411,20.65215 97.2786,28.89615 C97.47435,31.42365 97.2621,33.9864 97.1961,36.53115 C97.1646,37.74015 96.69735,38.3724 95.26185,38.3671824 C78.9036,38.31765 62.54535,38.3364 46.18785,38.33115 C45.76335,38.3304 45.3396,38.2569 44.62185,38.1894" id="Fill-7" fill="#FFAD29"></path>
                <path d="M34.10205,31.205775 C34.10205,30.320025 34.1013,29.657025 34.10205,28.992525 C34.1088,25.388025 34.06605,21.783525 34.1418,18.180525 C34.1823,16.208025 35.8458,14.651775 37.73355,14.606025 C39.6948,14.558775 41.49405,16.164525 41.51505,18.198525 C41.5698,23.791275 41.56905,29.384775 41.51505,34.976775 C41.4948,36.965025 39.94005,38.534775 37.93905,38.553525 C31.6638,38.611275 25.3863,38.618025 19.1103,38.550525 C16.9863,38.528025 15.5688,36.832275 15.63255,34.729275 C15.6948,32.680275 17.07105,31.250025 19.20255,31.223025 C23.4273,31.171275 27.65355,31.206525 31.87905,31.205775 L34.10205,31.205775 Z" id="Fill-9" fill="#FFAD29"></path>
                <path d="M23.4585,27.6639165 C18.55875,27.642075 14.709,23.797575 14.7217184,18.939825 C14.73375,14.034825 18.69825,10.131825 23.63925,10.1594279 C28.45125,10.186575 32.4105,14.141325 32.419518,18.930075 C32.42925,23.828325 28.47075,27.685575 23.4585,27.6639165" id="Fill-11" fill="#FFAD29"></path>
            </g>
        </g>
    </g>
</svg>