<?xml version="1.0" encoding="UTF-8"?>
<svg width="551px" height="530px" viewBox="0 0 551 530" version="1.1" xmlns="http://www.w3.org/2000/svg" xmlns:xlink="http://www.w3.org/1999/xlink">
    <!-- Generator: Sketch 59.1 (86144) - https://sketch.com -->
    <title>Group 8911</title>
    <desc>Created with Sketch.</desc>
    <g id="Desktop" stroke="none" stroke-width="1" fill="none" fill-rule="evenodd">
        <g id="Homelessness-Section-3-11" transform="translate(-252.000000, -1511.000000)">
            <g id="Group-89" transform="translate(252.000000, 1511.000000)">
                <g id="Group-41" transform="translate(8.250000, 0.063000)">
                    <path d="M92.247075,92.46975 L9.063075,53.6805 C24.487575,20.60325 55.749825,0.687 92.247075,0.687 L92.247075,92.46975 Z" id="Fill-1" fill="#FFD097"></path>
                    <path d="M92.247075,92.46975 L9.063075,53.6805 C24.487575,20.60325 55.749825,0.687 92.247075,0.687 L92.247075,92.46975 Z" id="Stroke-3" stroke="#FFFFFF" stroke-width="1.5"></path>
                    <path d="M92.247075,92.46975 L92.247075,0.687 C142.937325,0.687 184.029825,41.7795 184.029825,92.46975 C184.029825,143.16 142.937325,184.25325 92.247075,184.25325 C41.556825,184.25325 0.464325,143.16 0.464325,92.46975 C0.464325,78.276 3.064575,66.5445 9.063075,53.6805 L92.247075,92.46975 Z" id="Fill-5" fill="#FFAD29"></path>
                    <path d="M92.247075,92.46975 L92.247075,0.687 C142.937325,0.687 184.029825,41.7795 184.029825,92.46975 C184.029825,143.16 142.937325,184.25325 92.247075,184.25325 C41.556825,184.25325 0.464325,143.16 0.464325,92.46975 C0.464325,78.276 3.064575,66.5445 9.063075,53.6805 L92.247075,92.46975 Z" id="Stroke-7" stroke="#FFFFFF" stroke-width="1.5"></path>
                    <path d="M224.89125,350.895975 L352.56075,424.605225 C350.2815,428.554725 346.83675,433.857975 344.157,437.547225 L224.89125,350.895975 Z" id="Fill-9" fill="#FFD097"></path>
                    <path d="M224.89125,350.895975 L352.56075,424.605225 C350.2815,428.554725 346.83675,433.857975 344.157,437.547225 L224.89125,350.895975 Z" id="Stroke-11" stroke="#FFFFFF" stroke-width="1.5"></path>
                    <path d="M224.89125,350.895975 L362.51925,403.725975 C359.5725,411.403725 356.67225,417.483975 352.56075,424.605225 L224.89125,350.895975 Z" id="Fill-13" fill="#FFD097"></path>
                    <path d="M224.89125,350.895975 L362.51925,403.725975 C359.5725,411.403725 356.67225,417.483975 352.56075,424.605225 L224.89125,350.895975 Z" id="Stroke-15" stroke="#FFFFFF" stroke-width="1.5"></path>
                    <path d="M224.89125,350.895975 L371.952,361.179225 C370.8615,376.773225 368.12175,389.132475 362.51925,403.725975 L224.89125,350.895975 Z" id="Fill-17" fill="#FFD097"></path>
                    <path d="M224.89125,350.895975 L371.952,361.179225 C370.8615,376.773225 368.12175,389.132475 362.51925,403.725975 L224.89125,350.895975 Z" id="Stroke-19" stroke="#FFFFFF" stroke-width="1.5"></path>
                    <path d="M224.89125,350.895975 L356.24325,283.968975 C368.8845,308.778975 373.8945,333.402225 371.952,361.179225 L224.89125,350.895975 Z" id="Fill-21" fill="#FFD097"></path>
                    <path d="M224.89125,350.895975 L356.24325,283.968975 C368.8845,308.778975 373.8945,333.402225 371.952,361.179225 L224.89125,350.895975 Z" id="Stroke-23" stroke="#FFFFFF" stroke-width="1.5"></path>
                    <path d="M224.89125,350.895975 L284.85225,216.221475 C317.43,230.724975 340.05375,252.193725 356.24325,283.968975 L224.89125,350.895975 Z" id="Fill-25" fill="#FFD097"></path>
                    <path d="M224.89125,350.895975 L284.85225,216.221475 C317.43,230.724975 340.05375,252.193725 356.24325,283.968975 L224.89125,350.895975 Z" id="Stroke-27" stroke="#FFFFFF" stroke-width="1.5"></path>
                    <path d="M224.89125,350.895975 L167.28975,215.194725 C206.41125,198.588975 246.02625,198.934725 284.85225,216.221475 L224.89125,350.895975 Z" id="Fill-29" fill="#FFD097"></path>
                    <path d="M224.89125,350.895975 L167.28975,215.194725 C206.41125,198.588975 246.02625,198.934725 284.85225,216.221475 L224.89125,350.895975 Z" id="Stroke-31" stroke="#FFFFFF" stroke-width="1.5"></path>
                    <path d="M224.89125,350.895975 L77.8305,361.179225 C73.37775,297.503475 108.5325,240.135975 167.28975,215.194725 L224.89125,350.895975 Z" id="Fill-33" fill="#FFD097"></path>
                    <path d="M224.89125,350.895975 L77.8305,361.179225 C73.37775,297.503475 108.5325,240.135975 167.28975,215.194725 L224.89125,350.895975 Z" id="Stroke-35" stroke="#FFFFFF" stroke-width="1.5"></path>
                    <path d="M224.89125,350.895975 L344.157,437.547225 C296.30025,503.415225 204.10875,518.016975 138.24,470.161725 C101.2215,443.265975 81.02175,406.824225 77.8305,361.179225 L224.89125,350.895975 Z" id="Fill-37" fill="#FFD097"></path>
                    <path d="M224.89125,350.895975 L344.157,437.547225 C296.30025,503.415225 204.10875,518.016975 138.24,470.161725 C101.2215,443.265975 81.02175,406.824225 77.8305,361.179225 L224.89125,350.895975 Z" id="Stroke-39" stroke="#FFFFFF" stroke-width="1.5"></path>
                </g>
                <text id="$2,317,323" font-family="SourceSansPro-Semibold, Source Sans Pro" font-size="12" font-weight="500" letter-spacing="-0.00374999992" fill="#3F3F3F">
                    <tspan x="1.5" y="206.062863">$2,317,323</tspan>
                </text>
                <text id="Transitional-" font-family="SourceSansPro-Regular, Source Sans Pro" font-size="11.25" font-weight="normal" letter-spacing="-0.510000005" fill="#3F3F3F">
                    <tspan x="1.5" y="219.505604">T</tspan>
                    <tspan x="6.50249999" y="219.505604" letter-spacing="-0.273750007">r</tspan>
                    <tspan x="9.85124999" y="219.505604" letter-spacing="0.00749999983">ansitional </tspan>
                </text>
                <text id="Transitional-" font-family="SourceSansPro-Regular, Source Sans Pro" font-size="12" font-weight="normal" letter-spacing="-0.555749997" fill="#3F3F3F">
                    <tspan x="61.21365" y="219.562863">T</tspan>
                    <tspan x="66.5379" y="219.562863" letter-spacing="-0.303750001">r</tspan>
                    <tspan x="70.09815" y="219.562863" letter-spacing="-0.00374999992">ansitional </tspan>
                </text>
                <text id="Living-for-Homeless-" font-family="SourceSansPro-Regular, Source Sans Pro" font-size="12" font-weight="normal" letter-spacing="-0.00374999992" fill="#3F3F3F">
                    <tspan x="1.50165" y="233.062863">Living </tspan>
                    <tspan x="33.8514" y="233.062863" letter-spacing="-0.123750005">f</tspan>
                    <tspan x="37.11165" y="233.062863">or Homeless </tspan>
                </text>
                <text id="Youth" font-family="SourceSansPro-Regular, Source Sans Pro" font-size="12" font-weight="normal" letter-spacing="-0.49575001" fill="#3F3F3F">
                    <tspan x="1.50165" y="246.562863">Y</tspan>
                    <tspan x="6.22589999" y="246.562863" letter-spacing="-0.00374999992">outh</tspan>
                </text>
                <text id="$1,011,189--" font-family="SourceSansPro-Semibold, Source Sans Pro" font-size="12" font-weight="500" letter-spacing="-0.00374999992" fill="#3F3F3F">
                    <tspan x="414.01365" y="261.094863">$1,011,189  </tspan>
                </text>
                <text id="Basic-Center-Grant" font-family="SourceSansPro-Regular, Source Sans Pro" font-size="11.25" font-weight="normal" letter-spacing="-0.00374999992" fill="#3F3F3F">
                    <tspan x="414.01575" y="274.535429">Basic Cen</tspan>
                    <tspan x="459.39825" y="274.535429" letter-spacing="-0.116250001">t</tspan>
                    <tspan x="462.972" y="274.535429">er G</tspan>
                    <tspan x="481.6545" y="274.535429" letter-spacing="-0.284999996">r</tspan>
                    <tspan x="484.992" y="274.535429">ant</tspan>
                </text>
                <text id="$1,542,739--" font-family="SourceSansPro-Semibold, Source Sans Pro" font-size="12" font-weight="500" letter-spacing="-0.00374999992" fill="#3F3F3F">
                    <tspan x="234.76065" y="58.9178877">$1,542,739  </tspan>
                </text>
                <text id="Transitional-Housing-Assistance-for-Victims-of-" font-family="SourceSansPro-Regular, Source Sans Pro" font-size="11.25" font-weight="normal" letter-spacing="-0.510000005" fill="#3F3F3F">
                    <tspan x="234.76065" y="72.3606291">T</tspan>
                    <tspan x="239.76315" y="72.3606291" letter-spacing="-0.273750007">r</tspan>
                    <tspan x="243.1119" y="72.3606291" letter-spacing="0.00749999983">ansitional Housing Assis</tspan>
                    <tspan x="356.56815" y="72.3606291" letter-spacing="-0.193875007">t</tspan>
                    <tspan x="359.974275" y="72.3606291" letter-spacing="0.00749999983">an</tspan>
                    <tspan x="371.903025" y="72.3606291" letter-spacing="-0.228750005">c</tspan>
                    <tspan x="376.568025" y="72.3606291" letter-spacing="0.00749999983">e </tspan>
                    <tspan x="384.435525" y="72.3606291" letter-spacing="-0.103875004">f</tspan>
                    <tspan x="387.50415" y="72.3606291" letter-spacing="0.00749999983">or </tspan>
                    <tspan x="399.8004" y="72.3606291" letter-spacing="-0.0262500001">V</tspan>
                    <tspan x="405.53415" y="72.3606291" letter-spacing="0.00749999983">ictims of </tspan>
                </text>
                <text id="Domestic-Violence,-Dating-Violence,-Stalking,-or-" font-family="SourceSansPro-Regular, Source Sans Pro" font-size="11.25" font-weight="normal" letter-spacing="0.00749999983" fill="#3F3F3F">
                    <tspan x="234.76065" y="85.8606291">Domestic </tspan>
                    <tspan x="281.4369" y="85.8606291" letter-spacing="-0.0262500001">V</tspan>
                    <tspan x="287.17065" y="85.8606291">iolen</tspan>
                    <tspan x="310.67565" y="85.8606291" letter-spacing="-0.228750005">c</tspan>
                    <tspan x="315.34065" y="85.8606291">e, Dating </tspan>
                    <tspan x="359.4144" y="85.8606291" letter-spacing="-0.0262500001">V</tspan>
                    <tspan x="365.14815" y="85.8606291">iolen</tspan>
                    <tspan x="388.65315" y="85.8606291" letter-spacing="-0.228750005">c</tspan>
                    <tspan x="393.31815" y="85.8606291">e, S</tspan>
                    <tspan x="410.0094" y="85.8606291" letter-spacing="-0.193875007">t</tspan>
                    <tspan x="413.415525" y="85.8606291">alking, or </tspan>
                </text>
                <text id="Sexual-Assault" font-family="SourceSansPro-Regular, Source Sans Pro" font-size="11.25" font-weight="normal" letter-spacing="0.00749999983" fill="#3F3F3F">
                    <tspan x="234.76065" y="99.3606291">S</tspan>
                    <tspan x="240.77565" y="99.3606291" letter-spacing="-0.0712499991">e</tspan>
                    <tspan x="246.20565" y="99.3606291">xual Assault</tspan>
                </text>
                <text id="$1,295,458--" font-family="SourceSansPro-Semibold, Source Sans Pro" font-size="12" font-weight="500" letter-spacing="-0.00374999992" fill="#3F3F3F">
                    <tspan x="325.51575" y="137.893413">$1,295,458  </tspan>
                </text>
                <text id="VA-Supportive-Services-for-" font-family="SourceSansPro-Regular, Source Sans Pro" font-size="11.25" font-weight="normal" letter-spacing="-0.150000002" fill="#3F3F3F">
                    <tspan x="325.51575" y="151.336154">V</tspan>
                    <tspan x="331.002" y="151.336154" letter-spacing="0.00749999983">A Supporti</tspan>
                    <tspan x="380.65575" y="151.336154" letter-spacing="-0.0375000006">v</tspan>
                    <tspan x="385.827" y="151.336154" letter-spacing="0.00749999983">e Se</tspan>
                    <tspan x="405.297" y="151.336154" letter-spacing="0.22124999">r</tspan>
                    <tspan x="409.63575" y="151.336154" letter-spacing="0.00749999983">vi</tspan>
                    <tspan x="417.672" y="151.336154" letter-spacing="-0.228750005">c</tspan>
                    <tspan x="422.337" y="151.336154" letter-spacing="0.00749999983">es </tspan>
                    <tspan x="434.92575" y="151.336154" letter-spacing="-0.105">f</tspan>
                    <tspan x="437.99325" y="151.336154" letter-spacing="0.00749999983">or </tspan>
                </text>
                <text id="Veteran-Families-Program" font-family="SourceSansPro-Regular, Source Sans Pro" font-size="11.25" font-weight="normal" letter-spacing="-0.161250003" fill="#3F3F3F">
                    <tspan x="325.51575" y="164.836154">V</tspan>
                    <tspan x="330.9795" y="164.836154" letter-spacing="-0.150000002">e</tspan>
                    <tspan x="336.252" y="164.836154" letter-spacing="-0.105">t</tspan>
                    <tspan x="339.837" y="164.836154" letter-spacing="0.00749999983">e</tspan>
                    <tspan x="345.4245" y="164.836154" letter-spacing="-0.273750007">r</tspan>
                    <tspan x="348.77325" y="164.836154" letter-spacing="0.00749999983">an </tspan>
                    <tspan x="362.982" y="164.836154" letter-spacing="-0.375">F</tspan>
                    <tspan x="367.782" y="164.836154" letter-spacing="0.00749999983">amilies P</tspan>
                    <tspan x="410.38575" y="164.836154" letter-spacing="-0.105">r</tspan>
                    <tspan x="414.072" y="164.836154" letter-spacing="0.00749999983">og</tspan>
                    <tspan x="425.8545" y="164.836154" letter-spacing="-0.273750007">r</tspan>
                    <tspan x="429.20325" y="164.836154" letter-spacing="0.00749999983">am</tspan>
                </text>
                <g id="Group-43" transform="translate(0.000000, 487.563000)" fill="#505050">
                    <text id="$4,618,955-" font-family="SourceSansPro-Semibold, Source Sans Pro" font-size="12" font-weight="500" letter-spacing="-0.00374999992">
                        <tspan x="0" y="12.0326127">$4,618,955 </tspan>
                    </text>
                    <text id="VA-Homeless-Providers-Grant-" font-family="SourceSansPro-Regular, Source Sans Pro" font-size="11.25" font-weight="normal" letter-spacing="-0.150000002">
                        <tspan x="0" y="25.4753541">V</tspan>
                        <tspan x="5.48625" y="25.4753541" letter-spacing="0.00749999983">A Homeless P</tspan>
                        <tspan x="68.93625" y="25.4753541" letter-spacing="-0.105">r</tspan>
                        <tspan x="72.6225" y="25.4753541" letter-spacing="-0.0375000006">o</tspan>
                        <tspan x="78.6375" y="25.4753541" letter-spacing="0.00749999983">vide</tspan>
                        <tspan x="98.5125" y="25.4753541" letter-spacing="-0.105">r</tspan>
                        <tspan x="102.19875" y="25.4753541" letter-spacing="0.00749999983">s G</tspan>
                        <tspan x="116.14875" y="25.4753541" letter-spacing="-0.274874993">r</tspan>
                        <tspan x="119.496375" y="25.4753541" letter-spacing="0.00749999983">ant </tspan>
                    </text>
                    <text id="and-Per-Diem-Program-" font-family="SourceSansPro-Regular, Source Sans Pro" font-size="11.25" font-weight="normal" letter-spacing="0.00749999983">
                        <tspan x="0" y="38.9753541">and </tspan>
                        <tspan x="20.46" y="38.9753541" letter-spacing="-0.262499996">P</tspan>
                        <tspan x="26.4075" y="38.9753541">er Diem P</tspan>
                        <tspan x="71.57625" y="38.9753541" letter-spacing="-0.105">r</tspan>
                        <tspan x="75.2625" y="38.9753541">og</tspan>
                        <tspan x="87.045" y="38.9753541" letter-spacing="-0.273750007">r</tspan>
                        <tspan x="90.39375" y="38.9753541">am </tspan>
                    </text>
                </g>
                <text id="$569,961----" font-family="SourceSansPro-Semibold, Source Sans Pro" font-size="12" font-weight="500" letter-spacing="-0.00374999992" fill="#3F3F3F">
                    <tspan x="414.01575" y="318.893913">$569,961    </tspan>
                </text>
                <text id="Education-and-Prevention-" font-family="SourceSansPro-Regular, Source Sans Pro" font-size="11.25" font-weight="normal" letter-spacing="0.00749999983" fill="#3F3F3F">
                    <tspan x="414.01575" y="332.336654">Edu</tspan>
                    <tspan x="432.33075" y="332.336654" letter-spacing="-0.105">c</tspan>
                    <tspan x="437.24325" y="332.336654">ation and P</tspan>
                    <tspan x="491.0895" y="332.336654" letter-spacing="-0.105">r</tspan>
                    <tspan x="494.77575" y="332.336654" letter-spacing="0.0637500007">e</tspan>
                    <tspan x="500.47575" y="332.336654" letter-spacing="-0.0375000006">v</tspan>
                    <tspan x="505.647" y="332.336654">ention </tspan>
                </text>
                <text id="Grants-to-Reduce-Sexual-" font-family="SourceSansPro-Regular, Source Sans Pro" font-size="11.25" font-weight="normal" letter-spacing="0.00749999983" fill="#3F3F3F">
                    <tspan x="414.01575" y="345.836654">G</tspan>
                    <tspan x="420.9645" y="345.836654" letter-spacing="-0.273750007">r</tspan>
                    <tspan x="424.31325" y="345.836654">ants </tspan>
                    <tspan x="447.05325" y="345.836654" letter-spacing="-0.103875004">t</tspan>
                    <tspan x="450.639375" y="345.836654">o </tspan>
                    <tspan x="459.024375" y="345.836654" letter-spacing="-0.105">R</tspan>
                    <tspan x="465.343125" y="345.836654">edu</tspan>
                    <tspan x="483.309375" y="345.836654" letter-spacing="-0.228750005">c</tspan>
                    <tspan x="487.974375" y="345.836654">e S</tspan>
                    <tspan x="501.856875" y="345.836654" letter-spacing="-0.0712499991">e</tspan>
                    <tspan x="507.286875" y="345.836654">xual </tspan>
                </text>
                <text id="Abuse-of-Runaway,-Homeless-" font-family="SourceSansPro-Regular, Source Sans Pro" font-size="11.25" font-weight="normal" letter-spacing="0.00749999983" fill="#3F3F3F">
                    <tspan x="414.01575" y="359.336654">Abuse of Runa</tspan>
                    <tspan x="481.38825" y="359.336654" letter-spacing="-0.105">w</tspan>
                    <tspan x="489.24825" y="359.336654">a</tspan>
                    <tspan x="495.01575" y="359.336654" letter-spacing="-0.386249989">y</tspan>
                    <tspan x="499.4895" y="359.336654">, Homeless </tspan>
                </text>
                <text id="and-Street-Youth" font-family="SourceSansPro-Regular, Source Sans Pro" font-size="11.25" font-weight="normal" letter-spacing="0.00749999983" fill="#3F3F3F">
                    <tspan x="414.01575" y="372.836654">and St</tspan>
                    <tspan x="444.30075" y="372.836654" letter-spacing="-0.106124997">r</tspan>
                    <tspan x="447.985875" y="372.836654">e</tspan>
                    <tspan x="453.573375" y="372.836654" letter-spacing="-0.148875006">e</tspan>
                    <tspan x="458.847" y="372.836654">t </tspan>
                    <tspan x="464.937" y="372.836654" letter-spacing="-0.452625006">Y</tspan>
                    <tspan x="469.378125" y="372.836654">outh</tspan>
                </text>
                <text id="$300,000-----" font-family="SourceSansPro-Semibold, Source Sans Pro" font-size="12" font-weight="500" letter-spacing="-0.00374999992" fill="#3F3F3F">
                    <tspan x="414.015375" y="411.910038">$300,000     </tspan>
                </text>
                <text id="Demonstration-Grants-for-" font-family="SourceSansPro-Regular, Source Sans Pro" font-size="11.25" font-weight="normal" letter-spacing="0.00749999983" fill="#3F3F3F">
                    <tspan x="414.015375" y="425.352779">Demonst</tspan>
                    <tspan x="456.660375" y="425.352779" letter-spacing="-0.273750007">r</tspan>
                    <tspan x="460.009125" y="425.352779">ation G</tspan>
                    <tspan x="493.856625" y="425.352779" letter-spacing="-0.273750007">r</tspan>
                    <tspan x="497.205375" y="425.352779">ants </tspan>
                    <tspan x="519.945375" y="425.352779" letter-spacing="-0.105">f</tspan>
                    <tspan x="523.012875" y="425.352779">or </tspan>
                </text>
                <text id="Domestic-Victims-of-Human-" font-family="SourceSansPro-Regular, Source Sans Pro" font-size="11.25" font-weight="normal" letter-spacing="0.00749999983" fill="#3F3F3F">
                    <tspan x="414.015375" y="438.852779">Domestic </tspan>
                    <tspan x="460.691625" y="438.852779" letter-spacing="-0.0262500001">V</tspan>
                    <tspan x="466.425375" y="438.852779">ictims of Human </tspan>
                </text>
                <text id="Traﬀicking" font-family="SourceSansPro-Regular, Source Sans Pro" font-size="11.25" font-weight="normal" letter-spacing="-0.510000005" fill="#3F3F3F">
                    <tspan x="414.015375" y="452.352779">T</tspan>
                    <tspan x="419.017875" y="452.352779" letter-spacing="-0.273750007">r</tspan>
                    <tspan x="422.366625" y="452.352779" letter-spacing="0.00749999983">aﬀicking</tspan>
                </text>
                <text id="$166,105-----" font-family="SourceSansPro-Semibold, Source Sans Pro" font-size="12" font-weight="500" letter-spacing="-0.00374999992" fill="#3F3F3F">
                    <tspan x="414.015375" y="485.402688">$166,105     </tspan>
                </text>
                <text id="Homeless-Veterans’-" font-family="SourceSansPro-Regular, Source Sans Pro" font-size="11.25" font-weight="normal" letter-spacing="0.00749999983" fill="#3F3F3F">
                    <tspan x="414.015375" y="498.845429">Homeless </tspan>
                    <tspan x="462.570375" y="498.845429" letter-spacing="-0.161250003">V</tspan>
                    <tspan x="468.034125" y="498.845429" letter-spacing="-0.151124999">e</tspan>
                    <tspan x="473.3055" y="498.845429" letter-spacing="-0.103875004">t</tspan>
                    <tspan x="476.891625" y="498.845429">e</tspan>
                    <tspan x="482.479125" y="498.845429" letter-spacing="-0.273750007">r</tspan>
                    <tspan x="485.827875" y="498.845429">an</tspan>
                    <tspan x="497.756625" y="498.845429" letter-spacing="-0.117374998">s</tspan>
                    <tspan x="502.22925" y="498.845429">’ </tspan>
                </text>
                <text id="Reintegration-Program" font-family="SourceSansPro-Regular, Source Sans Pro" font-size="11.25" font-weight="normal" letter-spacing="-0.105" fill="#3F3F3F">
                    <tspan x="414.015375" y="512.345429">R</tspan>
                    <tspan x="420.334125" y="512.345429" letter-spacing="0.00749999983">ein</tspan>
                    <tspan x="434.857875" y="512.345429">te</tspan>
                    <tspan x="443.805375" y="512.345429" letter-spacing="0.00749999983">g</tspan>
                    <tspan x="449.482875" y="512.345429" letter-spacing="-0.273750007">r</tspan>
                    <tspan x="452.831625" y="512.345429" letter-spacing="0.00749999983">ation P</tspan>
                    <tspan x="486.217875" y="512.345429">r</tspan>
                    <tspan x="489.904125" y="512.345429" letter-spacing="0.00749999983">og</tspan>
                    <tspan x="501.686625" y="512.345429" letter-spacing="-0.274874993">r</tspan>
                    <tspan x="505.03425" y="512.345429" letter-spacing="0.00749999983">am</tspan>
                </text>
                <path d="M110.44665,368.4207 C102.7299,300.77145 151.3149,239.6757 218.96415,231.95895 C286.6134,224.2422 347.7099,272.8272 355.42665,340.47645 C363.14265,408.12495 314.55765,469.22145 246.90915,476.9382 C179.25915,484.65495 118.1634,436.06995 110.44665,368.4207" id="Fill-44" fill="#FFFFFF"></path>
                <text id="18%" font-family="SourceSansPro-Light, Source Sans Pro" font-size="42" font-weight="300" letter-spacing="-0.0224999995" fill="#3F3F3F">
                    <tspan x="206.481825" y="344.484307">18%</tspan>
                </text>
                <g id="Group-78" transform="translate(67.500000, 113.313000)">
                    <line x1="171.00915" y1="105.7881" x2="171.37515" y2="0.25935" id="Stroke-46" stroke="#808080" stroke-width="0.75"></line>
                    <path d="M173.829691,105.657 C173.824425,107.214 172.556925,108.4725 170.999925,108.466521 C169.442925,108.46125 168.184425,107.1945 168.189659,105.6375 C168.194925,104.07975 169.462425,102.822 171.019425,102.827234 C172.576425,102.8325 173.834925,104.1 173.829691,105.657" id="Fill-48" fill="#808080"></path>
                    <line x1="261" y1="141.5391" x2="261" y2="63.2166" id="Stroke-50" stroke="#808080" stroke-width="0.75"></line>
                    <path d="M263.81985,141.398475 C263.81985,142.955475 262.55685,144.218475 260.99985,144.218475 C259.44285,144.218475 258.17985,142.955475 258.17985,141.398475 C258.17985,139.841475 259.44285,138.578475 260.99985,138.578475 C262.55685,138.578475 263.81985,139.841475 263.81985,141.398475" id="Fill-52" fill="#808080"></path>
                    <polyline id="Stroke-54" stroke="#808080" stroke-width="0.75" points="299.172 185.8989 327.00525 185.4429 327.00525 147.2949 337.50975 147.2949"></polyline>
                    <path d="M299.359125,188.715825 C297.802125,188.741325 296.518875,187.500075 296.493375,185.943075 C296.467875,184.386075 297.709875,183.102825 299.266875,183.076575 C300.823875,183.051075 302.107125,184.293825 302.132625,185.850825 C302.157375,187.407825 300.916125,188.691075 299.359125,188.715825" id="Fill-56" fill="#808080"></path>
                    <line x1="288.677475" y1="296.466825" x2="337.509225" y2="296.466825" id="Stroke-58" stroke="#808080" stroke-width="0.75"></line>
                    <path d="M288.81885,299.2866 C287.2611,299.2866 285.99885,298.0236 285.99885,296.4666 C285.99885,294.9096 287.2611,293.6466 288.81885,293.6466 C290.37585,293.6466 291.6381,294.9096 291.6381,296.4666 C291.6381,298.0236 290.37585,299.2866 288.81885,299.2866" id="Fill-60" fill="#808080"></path>
                    <polyline id="Stroke-62" stroke="#808080" stroke-width="0.75" points="281.927475 313.71825 327.005475 313.71825 327.005475 372.234 337.509225 372.234"></polyline>
                    <path d="M282.06885,316.5381 C280.5111,316.5381 279.24885,315.2751 279.24885,313.7181 C279.24885,312.1611 280.5111,310.8981 282.06885,310.8981 C283.62585,310.8981 284.8881,312.1611 284.8881,313.7181 C284.8881,315.2751 283.62585,316.5381 282.06885,316.5381" id="Fill-64" fill="#808080"></path>
                    <polyline id="Stroke-66" stroke="#808080" stroke-width="0.75" points="300.677475 267.216825 327.005475 267.216825 327.005475 204.217575 337.509225 204.217575"></polyline>
                    <path d="M300.81885,270.0366 C299.2611,270.0366 297.99885,268.7736 297.99885,267.2166 C297.99885,265.6596 299.2611,264.3966 300.81885,264.3966 C302.37585,264.3966 303.6381,265.6596 303.6381,267.2166 C303.6381,268.7736 302.37585,270.0366 300.81885,270.0366" id="Fill-68" fill="#808080"></path>
                    <line x1="58.8204" y1="327.57495" x2="0.00015" y2="384.21645" id="Stroke-70" stroke="#808080" stroke-width="0.75"></line>
                    <path d="M56.7627,325.641375 C57.8847,324.562125 59.6697,324.595125 60.7497,325.717125 C61.8297,326.838375 61.79595,328.624125 60.6747,329.704125 C59.55345,330.783375 57.7677,330.750375 56.6877,329.628375 C55.6077,328.507125 55.64145,326.721375 56.7627,325.641375" id="Fill-72" fill="#808080"></path>
                    <line x1="53.330175" y1="161.395725" x2="11.999925" y2="131.466975" id="Stroke-74" stroke="#808080" stroke-width="0.75"></line>
                    <path d="M54.87015,159.029325 C56.1309,159.942825 56.41365,161.705325 55.50015,162.966825 C54.58665,164.228325 52.8234,164.510325 51.5619,163.596825 C50.30115,162.683325 50.01915,160.920075 50.93265,159.659325 C51.8454,158.397825 53.60865,158.115825 54.87015,159.029325" id="Fill-76" fill="#808080"></path>
                </g>
                <text id="-$11,821,730" font-family="SourceSansPro-Bold, Source Sans Pro" font-size="10.5" font-weight="bold" letter-spacing="0.00749999983" fill="#3F3F3F">
                    <tspan x="209.0757" y="386.185645"> $11,821,730</tspan>
                </text>
                <polygon id="Fill-79" fill="#FFD097" points="186.88575 375.95475 196.63575 375.95475 196.63575 366.20475 186.88575 366.20475"></polygon>
                <text id="Other-Programs" font-family="SourceSansPro-Bold, Source Sans Pro" font-size="10.5" font-weight="bold" letter-spacing="0.00749999983" fill="#3F3F3F">
                    <tspan x="202.31835" y="370.425445">Other P</tspan>
                    <tspan x="237.73485" y="370.425445" letter-spacing="-0.0974999964">r</tspan>
                    <tspan x="241.71135" y="370.425445">og</tspan>
                    <tspan x="253.16085" y="370.425445" letter-spacing="-0.296999998">r</tspan>
                    <tspan x="256.73835" y="370.425445">ams</tspan>
                </text>
                <path d="M167.807775,94.2261 C167.807775,132.2736 136.964025,163.11735 98.916525,163.11735 C60.869025,163.11735 30.026025,132.2736 30.026025,94.2261 C30.026025,56.17935 60.869025,25.3356 98.916525,25.3356 C136.964025,25.3356 167.807775,56.17935 167.807775,94.2261" id="Fill-81" fill="#FFFFFF"></path>
                <text id="Continuum-of-Care" font-family="SourceSansPro-Bold, Source Sans Pro" font-size="10.5" font-weight="bold" letter-spacing="0.00749999983" fill="#3F3F3F">
                    <tspan x="63.5757" y="111.643195">Continuum </tspan>
                    <tspan x="117.6312" y="111.643195" letter-spacing="-0.044999999">o</tspan>
                    <tspan x="123.3612" y="111.643195">f Ca</tspan>
                    <tspan x="140.8737" y="111.643195" letter-spacing="-0.096450001">r</tspan>
                    <tspan x="144.85125" y="111.643195">e</tspan>
                </text>
                <line x1="99.312375" y1="23.904825" x2="329.999625" y2="238.781325" id="Stroke-83" stroke="#26660C" stroke-width="0.5"></line>
                <text id="-$53,285,453" font-family="SourceSansPro-Bold, Source Sans Pro" font-size="10.5" font-weight="bold" letter-spacing="0.00749999983" fill="#3F3F3F">
                    <tspan x="70.4982" y="126.83287"> $53,285,453</tspan>
                </text>
                <text id="82%" font-family="SourceSansPro-Light, Source Sans Pro" font-size="42" font-weight="300" letter-spacing="-0.0224999995" fill="#3F3F3F">
                    <tspan x="67.7388" y="84.2409069">82%</tspan>
                </text>
                <g id="Group-88" transform="translate(36.750000, 61.563000)">
                    <polygon id="Fill-85" fill="#FFAD29" points="11.907 54.7545 21.657 54.7545 21.657 45.0045 11.907 45.0045"></polygon>
                    <line x1="49.999875" y1="312.466575" x2="0.187125" y2="0.216825" id="Stroke-87" stroke="#26660C" stroke-width="0.5"></line>
                </g>
            </g>
        </g>
    </g>
</svg>