<?xml version="1.0" encoding="UTF-8"?>
<svg width="546px" height="527px" viewBox="0 0 546 527" version="1.1" xmlns="http://www.w3.org/2000/svg" xmlns:xlink="http://www.w3.org/1999/xlink">
    <!-- Generator: Sketch 59.1 (86144) - https://sketch.com -->
    <title>Group 733</title>
    <desc>Created with Sketch.</desc>
    <g id="Desktop" stroke="none" stroke-width="1" fill="none" fill-rule="evenodd">
        <g id="Homelessness-Section-3-3" transform="translate(-254.000000, -1511.000000)">
            <g id="Group-73" transform="translate(254.000000, 1511.000000)">
                <g id="Group-33" transform="translate(6.000000, 0.459000)">
                    <path d="M220.227525,342.79905 L341.242275,424.42455 C331.099275,439.46205 318.810525,451.9668 303.952275,462.3708 L220.227525,342.79905 Z" id="Fill-1" fill="#BFBFE2"></path>
                    <path d="M220.227525,342.79905 L341.242275,424.42455 C331.099275,439.46205 318.810525,451.9668 303.952275,462.3708 L220.227525,342.79905 Z" id="Stroke-3" stroke="#FFFFFF" stroke-width="1.77"></path>
                    <path d="M220.227525,342.79905 L365.109525,360.5883 C362.093025,385.1538 355.082025,403.9068 341.242275,424.42455 L220.227525,342.79905 Z" id="Fill-5" fill="#BFBFE2"></path>
                    <path d="M220.227525,342.79905 L365.109525,360.5883 C362.093025,385.1538 355.082025,403.9068 341.242275,424.42455 L220.227525,342.79905 Z" id="Stroke-7" stroke="#FFFFFF" stroke-width="1.77"></path>
                    <path d="M220.227525,342.79905 L344.016525,265.44705 C362.472525,294.9813 369.353025,326.02155 365.109525,360.5883 L220.227525,342.79905 Z" id="Fill-9" fill="#BFBFE2"></path>
                    <path d="M220.227525,342.79905 L344.016525,265.44705 C362.472525,294.9813 369.353025,326.02155 365.109525,360.5883 L220.227525,342.79905 Z" id="Stroke-11" stroke="#FFFFFF" stroke-width="1.77"></path>
                    <path d="M220.227525,342.79905 L255.540525,201.1653 C293.165775,210.5463 323.468025,232.56255 344.016525,265.44705 L220.227525,342.79905 Z" id="Fill-13" fill="#BFBFE2"></path>
                    <path d="M220.227525,342.79905 L255.540525,201.1653 C293.165775,210.5463 323.468025,232.56255 344.016525,265.44705 L220.227525,342.79905 Z" id="Stroke-15" stroke="#FFFFFF" stroke-width="1.77"></path>
                    <path d="M220.227525,342.79905 L113.472525,243.24855 C150.694275,203.3328 202.584525,187.9623 255.540525,201.1653 L220.227525,342.79905 Z" id="Fill-17" fill="#BFBFE2"></path>
                    <path d="M220.227525,342.79905 L113.472525,243.24855 C150.694275,203.3328 202.584525,187.9623 255.540525,201.1653 L220.227525,342.79905 Z" id="Stroke-19" stroke="#FFFFFF" stroke-width="1.77"></path>
                    <path d="M220.227525,342.79905 L303.952275,462.3708 C237.914775,508.61055 146.896275,492.56205 100.656525,426.5238 C60.196275,368.74155 65.364525,294.83805 113.472525,243.24855 L220.227525,342.79905 Z" id="Fill-21" fill="#BFBFE2"></path>
                    <path d="M220.227525,342.79905 L303.952275,462.3708 C237.914775,508.61055 146.896275,492.56205 100.656525,426.5238 C60.196275,368.74155 65.364525,294.83805 113.472525,243.24855 L220.227525,342.79905 Z" id="Stroke-23" stroke="#FFFFFF" stroke-width="1.77"></path>
                    <path d="M90.3732,90.5889 L13.89195,42.7974 C30.7842,15.7644 58.49595,0.40365 90.3732,0.40365 L90.3732,90.5889 Z" id="Fill-25" fill="#BFBFE2"></path>
                    <path d="M90.3732,90.5889 L13.89195,42.7974 C30.7842,15.7644 58.49595,0.40365 90.3732,0.40365 L90.3732,90.5889 Z" id="Stroke-27" stroke="#FFFFFF" stroke-width="1.725"></path>
                    <path d="M90.3732,90.5889 L90.3732,0.40365 C140.18145,0.40365 180.55845,40.7814 180.55845,90.5889 C180.55845,140.3964 140.18145,180.77415 90.3732,180.77415 C40.56495,180.77415 0.18795,140.3964 0.18795,90.5889 C0.18795,72.6579 4.38945,58.0044 13.89195,42.7974 L90.3732,90.5889 Z" id="Fill-29" fill="#372C7A"></path>
                    <path d="M90.3732,90.5889 L90.3732,0.40365 C140.18145,0.40365 180.55845,40.7814 180.55845,90.5889 C180.55845,140.3964 140.18145,180.77415 90.3732,180.77415 C40.56495,180.77415 0.18795,140.3964 0.18795,90.5889 C0.18795,72.6579 4.38945,58.0044 13.89195,42.7974 L90.3732,90.5889 Z" id="Stroke-31" stroke="#FFFFFF" stroke-width="1.725"></path>
                </g>
                <text id="$3,538,913" font-family="SourceSansPro-Semibold, Source Sans Pro" font-size="12" font-weight="500" letter-spacing="-0.00374999992" fill="#3F3F3F">
                    <tspan x="230.25" y="106.708863">$3,538,913</tspan>
                </text>
                <text id="Transitional-" font-family="SourceSansPro-Regular, Source Sans Pro" font-size="11.25" font-weight="normal" letter-spacing="-0.510000005" fill="#3F3F3F">
                    <tspan x="230.25" y="120.151604">T</tspan>
                    <tspan x="235.2525" y="120.151604" letter-spacing="-0.273750007">r</tspan>
                    <tspan x="238.60125" y="120.151604" letter-spacing="0.00749999983">ansitional </tspan>
                </text>
                <text id="Transitional-Living-for-Homeless-Youth" font-family="SourceSansPro-Regular, Source Sans Pro" font-size="12" font-weight="normal" letter-spacing="-0.555749997" fill="#3F3F3F">
                    <tspan x="289.96365" y="120.208863">T</tspan>
                    <tspan x="295.2879" y="120.208863" letter-spacing="-0.303750001">r</tspan>
                    <tspan x="298.84815" y="120.208863" letter-spacing="-0.00374999992">ansitional Living </tspan>
                    <tspan x="383.54865" y="120.208863" letter-spacing="-0.123750005">f</tspan>
                    <tspan x="386.8089" y="120.208863" letter-spacing="-0.00374999992">or Homeless </tspan>
                    <tspan x="451.5759" y="120.208863" letter-spacing="-0.49454999">Y</tspan>
                    <tspan x="456.30135" y="120.208863" letter-spacing="-0.00374999992">outh</tspan>
                </text>
                <text id="$2,513,570-" font-family="SourceSansPro-Semibold, Source Sans Pro" font-size="12" font-weight="500" letter-spacing="-0.00374999992" fill="#3F3F3F">
                    <tspan x="305.26365" y="167.740863">$2,513,570 </tspan>
                </text>
                <text id="Basic-Center-Grant" font-family="SourceSansPro-Regular, Source Sans Pro" font-size="11.25" font-weight="normal" letter-spacing="-0.00374999992" fill="#3F3F3F">
                    <tspan x="305.26575" y="181.181429">Basic Cen</tspan>
                    <tspan x="350.64825" y="181.181429" letter-spacing="-0.116250001">t</tspan>
                    <tspan x="354.222" y="181.181429">er G</tspan>
                    <tspan x="372.9045" y="181.181429" letter-spacing="-0.284999996">r</tspan>
                    <tspan x="376.242" y="181.181429">ant</tspan>
                </text>
                <text id="$1,606,079--" font-family="SourceSansPro-Semibold, Source Sans Pro" font-size="12" font-weight="500" letter-spacing="-0.00374999992" fill="#3F3F3F">
                    <tspan x="402" y="351.057963">$1,606,079  </tspan>
                </text>
                <text id="Transitional-Housing-Assis-" font-family="SourceSansPro-Regular, Source Sans Pro" font-size="11.25" font-weight="normal" letter-spacing="-0.510000005" fill="#3F3F3F">
                    <tspan x="402" y="364.500704">T</tspan>
                    <tspan x="407.0025" y="364.500704" letter-spacing="-0.273750007">r</tspan>
                    <tspan x="410.35125" y="364.500704" letter-spacing="0.00749999983">ansitional Housing Assis</tspan>
                    <tspan x="523.92" y="364.500704">-</tspan>
                </text>
                <text id="tance-for-Victims-of-Domestic-" font-family="SourceSansPro-Regular, Source Sans Pro" font-size="11.25" font-weight="normal" letter-spacing="-0.194999993" fill="#3F3F3F">
                    <tspan x="402" y="378.000704">t</tspan>
                    <tspan x="405.405" y="378.000704" letter-spacing="0.00749999983">an</tspan>
                    <tspan x="417.33375" y="378.000704" letter-spacing="-0.228750005">c</tspan>
                    <tspan x="421.99875" y="378.000704" letter-spacing="0.00749999983">e </tspan>
                    <tspan x="429.86625" y="378.000704" letter-spacing="-0.105">f</tspan>
                    <tspan x="432.93375" y="378.000704" letter-spacing="0.00749999983">or </tspan>
                    <tspan x="445.23" y="378.000704" letter-spacing="-0.0262500001">V</tspan>
                    <tspan x="450.96375" y="378.000704" letter-spacing="0.00749999983">ictims of Domestic </tspan>
                </text>
                <text id="Violence,-Dating-Violence,-" font-family="SourceSansPro-Regular, Source Sans Pro" font-size="11.25" font-weight="normal" letter-spacing="-0.0262500001" fill="#3F3F3F">
                    <tspan x="402" y="391.500704">V</tspan>
                    <tspan x="407.73375" y="391.500704" letter-spacing="0.00749999983">iolen</tspan>
                    <tspan x="431.23875" y="391.500704" letter-spacing="-0.228750005">c</tspan>
                    <tspan x="435.90375" y="391.500704" letter-spacing="0.00749999983">e, Dating </tspan>
                    <tspan x="479.9775" y="391.500704">V</tspan>
                    <tspan x="485.71125" y="391.500704" letter-spacing="0.00749999983">iolen</tspan>
                    <tspan x="509.21625" y="391.500704" letter-spacing="-0.228750005">c</tspan>
                    <tspan x="513.88125" y="391.500704" letter-spacing="0.00749999983">e, </tspan>
                </text>
                <text id="Stalking,-or-Sexual-Assault" font-family="SourceSansPro-Regular, Source Sans Pro" font-size="11.25" font-weight="normal" letter-spacing="0.00749999983" fill="#3F3F3F">
                    <tspan x="402" y="405.000704">S</tspan>
                    <tspan x="408.015" y="405.000704" letter-spacing="-0.194999993">t</tspan>
                    <tspan x="411.42" y="405.000704">alking, or S</tspan>
                    <tspan x="463.65375" y="405.000704" letter-spacing="-0.0712499991">e</tspan>
                    <tspan x="469.08375" y="405.000704">xual Assault</tspan>
                </text>
                <g id="Group-35" transform="translate(0.000000, 484.209000)" fill="#505050">
                    <text id="$9,791,240-" font-family="SourceSansPro-Semibold, Source Sans Pro" font-size="12" font-weight="500" letter-spacing="-0.00374999992">
                        <tspan x="0" y="12.0326127">$9,791,240 </tspan>
                    </text>
                    <text id="VA-Homeless-Providers-Grant-" font-family="SourceSansPro-Regular, Source Sans Pro" font-size="11.25" font-weight="normal" letter-spacing="-0.150000002">
                        <tspan x="0" y="25.4753541">V</tspan>
                        <tspan x="5.48625" y="25.4753541" letter-spacing="0.00749999983">A Homeless P</tspan>
                        <tspan x="68.93625" y="25.4753541" letter-spacing="-0.105">r</tspan>
                        <tspan x="72.6225" y="25.4753541" letter-spacing="-0.0375000006">o</tspan>
                        <tspan x="78.6375" y="25.4753541" letter-spacing="0.00749999983">vide</tspan>
                        <tspan x="98.5125" y="25.4753541" letter-spacing="-0.105">r</tspan>
                        <tspan x="102.19875" y="25.4753541" letter-spacing="0.00749999983">s G</tspan>
                        <tspan x="116.14875" y="25.4753541" letter-spacing="-0.274874993">r</tspan>
                        <tspan x="119.496375" y="25.4753541" letter-spacing="0.00749999983">ant </tspan>
                    </text>
                    <text id="and-Per-Diem-Program-" font-family="SourceSansPro-Regular, Source Sans Pro" font-size="11.25" font-weight="normal" letter-spacing="0.00749999983">
                        <tspan x="0" y="38.9753541">and </tspan>
                        <tspan x="20.46" y="38.9753541" letter-spacing="-0.262499996">P</tspan>
                        <tspan x="26.4075" y="38.9753541">er Diem P</tspan>
                        <tspan x="71.57625" y="38.9753541" letter-spacing="-0.105">r</tspan>
                        <tspan x="75.2625" y="38.9753541">og</tspan>
                        <tspan x="87.045" y="38.9753541" letter-spacing="-0.273750007">r</tspan>
                        <tspan x="90.39375" y="38.9753541">am </tspan>
                    </text>
                </g>
                <text id="$1,177,088----" font-family="SourceSansPro-Semibold, Source Sans Pro" font-size="12" font-weight="500" letter-spacing="-0.00374999992" fill="#3F3F3F">
                    <tspan x="402" y="437.789913">$1,177,088    </tspan>
                </text>
                <text id="Education-and-Prevention-" font-family="SourceSansPro-Regular, Source Sans Pro" font-size="11.25" font-weight="normal" letter-spacing="0.00749999983" fill="#3F3F3F">
                    <tspan x="402" y="451.232654">Edu</tspan>
                    <tspan x="420.315" y="451.232654" letter-spacing="-0.105">c</tspan>
                    <tspan x="425.2275" y="451.232654">ation and P</tspan>
                    <tspan x="479.07375" y="451.232654" letter-spacing="-0.105">r</tspan>
                    <tspan x="482.76" y="451.232654" letter-spacing="0.0637500007">e</tspan>
                    <tspan x="488.46" y="451.232654" letter-spacing="-0.0375000006">v</tspan>
                    <tspan x="493.63125" y="451.232654">ention </tspan>
                </text>
                <text id="Grants-to-Reduce-Sexual-Abuse-" font-family="SourceSansPro-Regular, Source Sans Pro" font-size="11.25" font-weight="normal" letter-spacing="0.00749999983" fill="#3F3F3F">
                    <tspan x="402" y="464.732654">G</tspan>
                    <tspan x="408.94875" y="464.732654" letter-spacing="-0.273750007">r</tspan>
                    <tspan x="412.2975" y="464.732654">ants </tspan>
                    <tspan x="435.0375" y="464.732654" letter-spacing="-0.103875004">t</tspan>
                    <tspan x="438.623625" y="464.732654">o </tspan>
                    <tspan x="447.008625" y="464.732654" letter-spacing="-0.105">R</tspan>
                    <tspan x="453.327375" y="464.732654">edu</tspan>
                    <tspan x="471.293625" y="464.732654" letter-spacing="-0.228750005">c</tspan>
                    <tspan x="475.958625" y="464.732654">e S</tspan>
                    <tspan x="489.841125" y="464.732654" letter-spacing="-0.0712499991">e</tspan>
                    <tspan x="495.271125" y="464.732654">xual Abuse </tspan>
                </text>
                <text id="of-Runaway,-Homeless-and-" font-family="SourceSansPro-Regular, Source Sans Pro" font-size="11.25" font-weight="normal" letter-spacing="0.00749999983" fill="#3F3F3F">
                    <tspan x="402" y="478.232654">of Runa</tspan>
                    <tspan x="438.2775" y="478.232654" letter-spacing="-0.103875004">w</tspan>
                    <tspan x="446.138625" y="478.232654">a</tspan>
                    <tspan x="451.906125" y="478.232654" letter-spacing="-0.386249989">y</tspan>
                    <tspan x="456.379875" y="478.232654">, Homeless and </tspan>
                </text>
                <text id="Street-Youth" font-family="SourceSansPro-Regular, Source Sans Pro" font-size="11.25" font-weight="normal" letter-spacing="0.00749999983" fill="#3F3F3F">
                    <tspan x="402" y="491.732654">St</tspan>
                    <tspan x="411.825" y="491.732654" letter-spacing="-0.105">r</tspan>
                    <tspan x="415.51125" y="491.732654">e</tspan>
                    <tspan x="421.09875" y="491.732654" letter-spacing="-0.150000002">e</tspan>
                    <tspan x="426.37125" y="491.732654">t </tspan>
                    <tspan x="432.46125" y="491.732654" letter-spacing="-0.453750014">Y</tspan>
                    <tspan x="436.90125" y="491.732654">outh</tspan>
                </text>
                <text id="$2,258,242-----" font-family="SourceSansPro-Semibold, Source Sans Pro" font-size="12" font-weight="500" letter-spacing="-0.00374999992" fill="#3F3F3F">
                    <tspan x="402" y="281.798688">$2,258,242     </tspan>
                </text>
                <text id="Homeless-Veterans’-" font-family="SourceSansPro-Regular, Source Sans Pro" font-size="11.25" font-weight="normal" letter-spacing="0.00749999983" fill="#3F3F3F">
                    <tspan x="402" y="295.241429">Homeless </tspan>
                    <tspan x="450.555" y="295.241429" letter-spacing="-0.161250003">V</tspan>
                    <tspan x="456.01875" y="295.241429" letter-spacing="-0.151124999">e</tspan>
                    <tspan x="461.290125" y="295.241429" letter-spacing="-0.103875004">t</tspan>
                    <tspan x="464.87625" y="295.241429">e</tspan>
                    <tspan x="470.46375" y="295.241429" letter-spacing="-0.273750007">r</tspan>
                    <tspan x="473.8125" y="295.241429">an</tspan>
                    <tspan x="485.74125" y="295.241429" letter-spacing="-0.117374998">s</tspan>
                    <tspan x="490.213875" y="295.241429">’ </tspan>
                </text>
                <text id="Reintegration-Program" font-family="SourceSansPro-Regular, Source Sans Pro" font-size="11.25" font-weight="normal" letter-spacing="-0.105" fill="#3F3F3F">
                    <tspan x="402" y="308.741429">R</tspan>
                    <tspan x="408.31875" y="308.741429" letter-spacing="0.00749999983">ein</tspan>
                    <tspan x="422.8425" y="308.741429">te</tspan>
                    <tspan x="431.79" y="308.741429" letter-spacing="0.00749999983">g</tspan>
                    <tspan x="437.4675" y="308.741429" letter-spacing="-0.273750007">r</tspan>
                    <tspan x="440.81625" y="308.741429" letter-spacing="0.00749999983">ation P</tspan>
                    <tspan x="474.2025" y="308.741429">r</tspan>
                    <tspan x="477.88875" y="308.741429" letter-spacing="0.00749999983">og</tspan>
                    <tspan x="489.67125" y="308.741429" letter-spacing="-0.274874993">r</tspan>
                    <tspan x="493.018875" y="308.741429" letter-spacing="0.00749999983">am</tspan>
                </text>
                <path d="M102.945525,359.0652 C95.228775,291.41595 143.813775,230.31945 211.463025,222.60345 C279.112275,214.8867 340.208775,263.47095 347.925525,331.1202 C355.641525,398.76945 307.056525,459.8652 239.407275,467.58195 C171.758025,475.29945 110.662275,426.7137 102.945525,359.0652" id="Fill-36" fill="#FFFFFF"></path>
                <text id="16%" font-family="SourceSansPro-Light, Source Sans Pro" font-size="42" font-weight="300" letter-spacing="-0.0224999995" fill="#3F3F3F">
                    <tspan x="201.981825" y="342.630307">16%</tspan>
                </text>
                <g id="Group-62" transform="translate(63.750000, 130.959000)">
                    <line x1="170.26245" y1="78.78225" x2="170.6247" y2="0.21675" id="Stroke-38" stroke="#808080" stroke-width="0.75"></line>
                    <path d="M173.082708,78.654075 C173.075925,80.211075 171.806925,81.468075 170.249925,81.4606084 C168.692925,81.453075 167.435925,80.184825 167.443392,78.627825 C167.450175,77.070825 168.719175,75.813825 170.276175,75.8212916 C171.833175,75.828075 173.090175,77.097075 173.082708,78.654075" id="Fill-40" fill="#808080"></path>
                    <line x1="244.945275" y1="107.540025" x2="244.945275" y2="60.216525" id="Stroke-42" stroke="#808080" stroke-width="0.75"></line>
                    <path d="M247.765125,107.3994 C247.765125,108.9564 246.502125,110.2194 244.945125,110.2194 C243.388125,110.2194 242.125125,108.9564 242.125125,107.3994 C242.125125,105.8424 243.388125,104.5794 244.945125,104.5794 C246.502125,104.5794 247.765125,105.8424 247.765125,107.3994" id="Fill-44" fill="#808080"></path>
                    <polyline id="Stroke-46" stroke="#808080" stroke-width="0.75" points="295.4187 188.135025 317.24745 187.689525 317.24745 149.542275 331.49895 149.542275"></polyline>
                    <path d="M295.61715,190.9512 C294.06015,190.98345 292.7724,189.7467 292.74015,188.1897 C292.70865,186.6327 293.9454,185.3442 295.5024,185.3127 C297.05865,185.2812 298.34715,186.51795 298.37865,188.07495 C298.4109,189.6312 297.17415,190.9197 295.61715,190.9512" id="Fill-48" fill="#808080"></path>
                    <line x1="261.677475" y1="308.466825" x2="327.750225" y2="308.466825" id="Stroke-50" stroke="#808080" stroke-width="0.75"></line>
                    <path d="M261.81885,311.2866 C260.2611,311.2866 258.99885,310.0236 258.99885,308.4666 C258.99885,306.9096 260.2611,305.6466 261.81885,305.6466 C263.37585,305.6466 264.6381,306.9096 264.6381,308.4666 C264.6381,310.0236 263.37585,311.2866 261.81885,311.2866" id="Fill-52" fill="#808080"></path>
                    <polyline id="Stroke-54" stroke="#808080" stroke-width="0.75" points="290.927475 261.966825 317.247975 261.966825 317.247975 222.598575 332.612475 222.598575"></polyline>
                    <path d="M291.06885,264.7866 C289.5111,264.7866 288.24885,263.5236 288.24885,261.9666 C288.24885,260.4096 289.5111,259.1466 291.06885,259.1466 C292.62585,259.1466 293.8881,260.4096 293.8881,261.9666 C293.8881,263.5236 292.62585,264.7866 291.06885,264.7866" id="Fill-56" fill="#808080"></path>
                    <line x1="61.799175" y1="305.802975" x2="-7.5e-05" y2="363.966975" id="Stroke-58" stroke="#808080" stroke-width="0.75"></line>
                    <path d="M59.764125,303.845925 C60.898125,302.778675 62.683125,302.832675 63.749625,303.966675 C64.816875,305.100675 64.762875,306.885675 63.628875,307.952925 C62.495625,309.019425 60.710625,308.966175 59.643375,307.831425 C58.576125,306.698175 58.630125,304.913175 59.764125,303.845925" id="Fill-60" fill="#808080"></path>
                </g>
                <text id="-$20,885,132" font-family="SourceSansPro-Bold, Source Sans Pro" font-size="10.5" font-weight="bold" letter-spacing="0.00749999983" fill="#3F3F3F">
                    <tspan x="204.5757" y="384.331645"> $20,885,132</tspan>
                </text>
                <polygon id="Fill-63" fill="#BFBFE2" points="182.38575 374.10075 192.13575 374.10075 192.13575 364.35075 182.38575 364.35075"></polygon>
                <text id="Other-Programs" font-family="SourceSansPro-Bold, Source Sans Pro" font-size="10.5" font-weight="bold" letter-spacing="0.00749999983" fill="#3F3F3F">
                    <tspan x="197.81835" y="368.571445">Other P</tspan>
                    <tspan x="233.23485" y="368.571445" letter-spacing="-0.0974999964">r</tspan>
                    <tspan x="237.21135" y="368.571445">og</tspan>
                    <tspan x="248.66085" y="368.571445" letter-spacing="-0.296999998">r</tspan>
                    <tspan x="252.23835" y="368.571445">ams</tspan>
                </text>
                <path d="M163.307775,92.3721 C163.307775,130.4196 132.464025,161.26335 94.416525,161.26335 C56.369025,161.26335 25.526025,130.4196 25.526025,92.3721 C25.526025,54.32535 56.369025,23.4816 94.416525,23.4816 C132.464025,23.4816 163.307775,54.32535 163.307775,92.3721" id="Fill-65" fill="#FFFFFF"></path>
                <text id="Continuum-of-Care" font-family="SourceSansPro-Bold, Source Sans Pro" font-size="10.5" font-weight="bold" letter-spacing="0.00749999983" fill="#3F3F3F">
                    <tspan x="59.0757" y="109.789195">Continuum </tspan>
                    <tspan x="113.1312" y="109.789195" letter-spacing="-0.044999999">o</tspan>
                    <tspan x="118.8612" y="109.789195">f Ca</tspan>
                    <tspan x="136.3737" y="109.789195" letter-spacing="-0.096450001">r</tspan>
                    <tspan x="140.35125" y="109.789195">e</tspan>
                </text>
                <line x1="94.812375" y1="22.050825" x2="325.499625" y2="236.927325" id="Stroke-67" stroke="#26660C" stroke-width="0.5"></line>
                <text id="-$107,126,230" font-family="SourceSansPro-Bold, Source Sans Pro" font-size="10.5" font-weight="bold" letter-spacing="0.00749999983" fill="#3F3F3F">
                    <tspan x="65.9982" y="124.97887"> $107,126,230</tspan>
                </text>
                <text id="84%" font-family="SourceSansPro-Light, Source Sans Pro" font-size="42" font-weight="300" letter-spacing="-0.0224999995" fill="#3F3F3F">
                    <tspan x="63.2388" y="82.3869069">84%</tspan>
                </text>
                <g id="Group-72" transform="translate(39.000000, 52.959000)">
                    <polygon id="Fill-69" fill="#372C7A" points="5.157 61.5045 14.907 61.5045 14.907 51.7545 5.157 51.7545"></polygon>
                    <line x1="43.249875" y1="319.216575" x2="-0.000375" y2="0.216825" id="Stroke-71" stroke="#26660C" stroke-width="0.5"></line>
                </g>
            </g>
        </g>
    </g>
</svg>