<?xml version="1.0" encoding="utf-8"?>
<!-- Generator: Adobe Illustrator 22.0.1, SVG Export Plug-In . SVG Version: 6.00 Build 0)  -->
<svg version="1.1" id="Layer_1" xmlns="http://www.w3.org/2000/svg" xmlns:xlink="http://www.w3.org/1999/xlink" x="0px" y="0px"
	 viewBox="0 0 82 75" style="enable-background:new 0 0 82 75;" xml:space="preserve">
<style type="text/css">
	.st0{fill:#363F40;}
</style>
<title>api-icon-black</title>
<desc>Created with Sketch.</desc>
<g>
	<g>
		<g>
			<path class="st0" d="M76.9,62.5H5.1c-2.8,0-5.1-2.3-5.1-5.1V6.1C0,3.3,2.3,1,5.1,1h71.8C79.7,1,82,3.3,82,6.1v51.2
				C82,60.2,79.7,62.5,76.9,62.5z M5.1,3.6c-1.4,0-2.6,1.1-2.6,2.6v51.2c0,1.4,1.1,2.6,2.6,2.6h71.8c1.4,0,2.6-1.1,2.6-2.6V6.1
				c0-1.4-1.1-2.6-2.6-2.6H5.1z"/>
		</g>
	</g>
	<g>
		<g>
			
				<rect x="48.7" y="61.1" transform="matrix(0.9806 -0.1961 0.1961 0.9806 -12.2922 11.1129)" class="st0" width="2.6" height="13.1"/>
		</g>
	</g>
	<g>
		<g>
			
				<rect x="25.5" y="66.3" transform="matrix(0.1962 -0.9806 0.9806 0.1962 -40.564 85.769)" class="st0" width="13.1" height="2.6"/>
		</g>
	</g>
	<g>
		<g>
			<rect x="24.3" y="72.8" class="st0" width="33.3" height="2.6"/>
		</g>
	</g>
	<g>
		<g>
			<rect x="39.7" y="54.8" class="st0" width="2.6" height="2.6"/>
		</g>
	</g>
	<g>
		<g>
			<rect x="39.7" y="42" class="st0" width="2.6" height="2.6"/>
		</g>
	</g>
	<g>
		<g>
			<rect x="44.8" y="42" class="st0" width="2.6" height="2.6"/>
		</g>
	</g>
	<g>
		<g>
			<rect x="50" y="42" class="st0" width="2.6" height="2.6"/>
		</g>
	</g>
	<g>
		<g>
			<rect x="34.6" y="42" class="st0" width="2.6" height="2.6"/>
		</g>
	</g>
	<g>
		<g>
			<rect x="29.5" y="42" class="st0" width="2.6" height="2.6"/>
		</g>
	</g>
	<g>
		<g>
			<path class="st0" d="M76.9,52.3H5.1V6.1h71.8V52.3z M7.7,49.7h66.6v-41H7.7V49.7z"/>
		</g>
	</g>
</g>
</svg>
