<svg id="Layer_1" xmlns="http://www.w3.org/2000/svg" viewBox="0 0 65 75" enable-background="new 0 0 65 75">
   <style>.st3{fill:#231f20}</style>
   <g id="Page-1_1_">
      <g id="playbook-icon-black">
         <g id="Page-1" transform="translate(0 1)">
            <g id="Group-3">
               <defs>
                  <filter id="Adobe_OpacityMaskFilter" filterUnits="userSpaceOnUse" x="0" y=".2" width="63" height="73.8">
                     <feColorMatrix values="1 0 0 0 0 0 1 0 0 0 0 0 1 0 0 0 0 0 1 0"/>
                  </filter>
               </defs>
               <mask maskUnits="userSpaceOnUse" x="0" y=".2" width="63" height="73.8" id="mask-2_1_">
                  <g filter="url(#Adobe_OpacityMaskFilter)">
                     <path id="path-1_1_" fill="#fff" d="M0 .2h63V74H0z"/>
                  </g>
               </mask>
               <path id="Fill-1" d="M60.1.2H7C5.3.2 4 1.4 4 3v2.6c-2.2.1-4 1.9-4 4.1 0 2.2 1.8 4 4 4.1v2.8c-2.2.1-4 1.9-4 4.1 0 2.2 1.8 4 4 4.1v2.8c-2.2.1-4 1.9-4 4.1s1.8 4 4 4.1v2.8c-2.2.1-4 1.9-4 4.1 0 2.2 1.8 4 4 4.1v2.8c-2.2.1-4 1.9-4 4.1 0 2.2 1.8 4 4 4.1v2.8c-2.2.1-4 1.9-4 4.1 0 2.2 1.8 4 4 4.1v2.6C4 72.7 5.3 74 7 74h53.1c1.6 0 2.9-1.3 2.9-2.8V3C63 1.4 61.7.2 60.1.2zM2.7 9.7c0-.8.6-1.4 1.4-1.4h4.1V11H4.1c-.7.1-1.4-.5-1.4-1.3zm0 11c0-.8.6-1.4 1.4-1.4h4.1V22H4.1c-.7 0-1.4-.6-1.4-1.3zm0 10.9c0-.8.6-1.4 1.4-1.4h4.1V33H4.1c-.7 0-1.4-.6-1.4-1.4zm0 10.9c0-.8.6-1.4 1.4-1.4h4.1v2.7H4.1c-.7.1-1.4-.5-1.4-1.3zm0 11c0-.8.6-1.4 1.4-1.4h4.1v2.7H4.1c-.7 0-1.4-.6-1.4-1.3zm0 10.9c0-.8.6-1.4 1.4-1.4h4.1v2.7H4.1c-.7.1-1.4-.5-1.4-1.3zM7 71.3c-.1 0-.2-.1-.2-.1v-2.6h1.5c1.5 0 2.7-1.2 2.7-2.7V63c0-1.5-1.2-2.7-2.7-2.7H6.7v-2.7h1.5c1.5 0 2.7-1.2 2.7-2.7v-2.7c0-1.5-1.2-2.7-2.7-2.7H6.7v-2.7h1.5c1.5 0 2.7-1.2 2.7-2.7v-2.7c0-1.5-1.2-2.7-2.7-2.7H6.7V36h1.5c1.5 0 2.7-1.2 2.7-2.7v-2.7c0-1.5-1.2-2.7-2.7-2.7H6.7v-2.7h1.5c1.5 0 2.7-1.2 2.7-2.7v-2.7c0-1.5-1.2-2.7-2.7-2.7H6.7v-2.7h1.5c1.5 0 2.7-1.2 2.7-2.7V8.4c0-1.5-1.2-2.7-2.7-2.7H6.7V3s.1-.1.2-.1h6.7v68.4H7zm53.3-.2s-.1.1-.2.1H16.4V2.9H60c.2 0 .2.1.2.1v68.1z" mask="url(#mask-2_1_)" fill="#231f20"/>
            </g>
            <path id="Fill-4" class="st3" d="M52.6 25H28.3c-.7 0-1.3.7-1.3 1.5s.6 1.5 1.3 1.5h24.3c.7 0 1.4-.7 1.4-1.5s-.6-1.5-1.4-1.5"/>
            <path id="Fill-6" class="st3" d="M25 26.5c0 .8-.7 1.5-1.5 1.5s-1.5-.7-1.5-1.5.7-1.5 1.5-1.5 1.5.7 1.5 1.5"/>
            <path id="Fill-8" class="st3" d="M52.6 36H28.3c-.7 0-1.3.7-1.3 1.5s.6 1.5 1.3 1.5h24.3c.7 0 1.4-.7 1.4-1.5s-.6-1.5-1.4-1.5"/>
            <path id="Fill-10" class="st3" d="M25 37.5c0 .8-.7 1.5-1.5 1.5s-1.5-.7-1.5-1.5.7-1.5 1.5-1.5 1.5.7 1.5 1.5"/>
            <path id="Fill-12" class="st3" d="M52.6 48H28.3c-.7 0-1.3.7-1.3 1.5s.6 1.5 1.3 1.5h24.3c.7 0 1.4-.7 1.4-1.5s-.6-1.5-1.4-1.5"/>
            <path id="Fill-14" class="st3" d="M25 49.5c0 .8-.7 1.5-1.5 1.5s-1.5-.7-1.5-1.5.7-1.5 1.5-1.5 1.5.7 1.5 1.5"/>
         </g>
      </g>
   </g>
</svg>