<?xml version="1.0" encoding="UTF-8"?>
<svg width="65px" height="75px" viewBox="0 0 65 75" version="1.1" xmlns="http://www.w3.org/2000/svg" xmlns:xlink="http://www.w3.org/1999/xlink">
    <!-- Generator: Sketch 48.2 (47327) - http://www.bohemiancoding.com/sketch -->
    <title>playbook-icon</title>
    <desc>Created with Sketch.</desc>
    <defs>
        <polygon id="path-1" points="0 0.555 55.2345352 0.555 55.2345352 73.9996917 0 73.9996917"></polygon>
        <polygon id="path-3" points="0.000315 0.0684893617 63 0.0684893617 63 74 0.000315 74"></polygon>
    </defs>
    <g id="Page-1" stroke="none" stroke-width="1" fill="none" fill-rule="evenodd">
        <g id="playbook-icon">
            <g id="Page-1" transform="translate(1.000000, 0.000000)">
                <g id="Group-3">
                    <mask id="mask-2" fill="white">
                        <use xlink:href="#path-1"></use>
                    </mask>
                    <g id="Clip-2"></g>
                    <path d="M52.4156056,16.0068167 L12.0908732,16.0068167 L12.0908732,15.9983375 L8.78687324,15.9983375 C5.80704225,15.9983375 3.38326761,13.6295667 3.38326761,10.7173583 L3.38326761,9.141775 C3.38326761,6.2303375 5.80704225,3.86156667 8.78687324,3.86156667 L52.2207887,3.86156667 C52.8438873,3.86156667 53.3494648,3.36823333 53.3494648,2.759275 L53.3494648,1.65698333 C53.3494648,1.048025 52.8438873,0.554691667 52.2207887,0.554691667 L8.78687324,0.554691667 C3.94169014,0.554691667 -0.000394366197,4.40731667 -0.000394366197,9.141775 L-0.000394366197,10.7173583 L-0.000394366197,65.4126083 C-0.000394366197,70.1478375 3.94169014,73.9996917 8.78687324,73.9996917 L12.0908732,73.9996917 L12.0908732,73.9495875 L52.4156056,73.9495875 C53.9701972,73.9495875 55.2345352,72.7478583 55.2345352,71.2285458 L55.2345352,18.7625458 C55.2345352,17.2432333 53.9701972,16.0068167 52.4156056,16.0068167 Z M8.70721127,70.6928167 C5.7644507,70.6511917 3.38326761,68.2986083 3.38326761,65.4126083 L3.38326761,17.4845042 C4.85504225,18.6099208 6.70225352,19.2867125 8.70721127,19.3044417 L8.70721127,70.6928167 Z M12.1705352,70.9286917 L51.851662,70.9286917 L51.851662,19.3129208 L12.1705352,19.3129208 L12.1705352,70.9286917 Z" id="Fill-1" fill="#FEFEFE" mask="url(#mask-2)"></path>
                </g>
                <path d="M9,10 C9,9.44965035 9.51094891,9 10.1345605,9 L52.8654395,9 C53.4890511,9 54,9.44965035 54,10 L54,11 C54,11.5496503 53.4890511,12 52.8654395,12 L10.1345605,12 C9.51094891,12 9,11.5496503 9,11 L9,10 Z" id="Fill-4" fill="#FEFEFE"></path>
                <path d="M45,35 C45,35.5496503 44.4688145,36 43.81867,36 L24.18133,36 C23.5320116,36 23,35.5503497 23,35 L23,34 C23,33.4503497 23.5320116,33 24.18133,33 L43.81867,33 C44.4679884,33 45,33.4496503 45,34 L45,35 Z" id="Fill-6" fill="#FEFEFE"></path>
                <path d="M43,43 C43,43.5496503 42.5080101,44 41.905839,44 L28.094161,44 C27.492755,44 27,43.5496503 27,43 L27,42 C27,41.4503497 27.492755,41 28.094161,41 L41.905839,41 C42.507245,41 43,41.4496503 43,42 L43,43 Z" id="Fill-8" fill="#FEFEFE"></path>
                <path d="M45,52 C45,52.5496503 44.4860544,53 43.8570106,53 L27.1429894,53 C26.5147449,53 26,52.5503497 26,52 L26,51 C26,50.4503497 26.5147449,50 27.1429894,50 L43.8570106,50 C44.4852551,50 45,50.4503497 45,51 L45,52 Z" id="Fill-10" fill="#FEFEFE"></path>
            </g>
            <g id="Page-1" transform="translate(1.000000, 1.000000)">
                <g id="Group-3">
                    <mask id="mask-4" fill="white">
                        <use xlink:href="#path-3"></use>
                    </mask>
                    <g id="Clip-2"></g>
                    <path d="M60.05034,0.0684893617 L6.9531525,0.0684893617 C5.323815,0.0684893617 4.0031775,1.34144681 4.0031775,2.91197872 L4.0031775,5.55551064 C1.7871525,5.61297872 0.000315,7.42361702 0.000315,9.6522766 C0.000315,11.8809362 1.7871525,13.6915745 4.0031775,13.7490426 L4.0031775,16.5082979 C1.7871525,16.565766 0.000315,18.3764043 0.000315,20.6050638 C0.000315,22.8337234 1.7871525,24.6443617 4.0031775,24.7018298 L4.0031775,27.4610851 C1.7871525,27.5185532 0.000315,29.3291915 0.000315,31.5578511 C0.000315,33.7865106 1.7871525,35.5971489 4.0031775,35.654617 L4.0031775,38.4138723 C1.7871525,38.4713404 0.000315,40.2819787 0.000315,42.5106383 C0.000315,44.7392979 1.7871525,46.5499362 4.0031775,46.6074043 L4.0031775,49.3666596 C1.7871525,49.4241277 0.000315,51.234766 0.000315,53.4634255 C0.000315,55.6920851 1.7871525,57.5027234 4.0031775,57.5601915 L4.0031775,60.3194468 C1.7871525,60.3769149 0.000315,62.1875532 0.000315,64.4162128 C0.000315,66.6448723 1.7871525,68.4555106 4.0031775,68.5129787 L4.0031775,71.1565106 C4.0031775,72.7270426 5.323815,74 6.9531525,74 L60.05034,74 C61.67889,74 63.000315,72.7270426 63.000315,71.1565106 L63.000315,2.91197872 C63.000315,1.34144681 61.67889,0.0684893617 60.05034,0.0684893617 Z M2.73924,9.6522766 C2.73924,8.89574468 3.351915,8.2832766 4.1087025,8.2832766 L8.21709,8.2832766 L8.21709,11.0212766 L4.1087025,11.0212766 C3.351915,11.0212766 2.73924,10.4080213 2.73924,9.6522766 Z M2.73924,20.6050638 C2.73924,19.8485319 3.351915,19.2360638 4.1087025,19.2360638 L8.21709,19.2360638 L8.21709,21.9740638 L4.1087025,21.9740638 C3.351915,21.9740638 2.73924,21.3608085 2.73924,20.6050638 Z M2.73924,31.5578511 C2.73924,30.8021064 3.351915,30.1888511 4.1087025,30.1888511 L8.21709,30.1888511 L8.21709,32.9268511 L4.1087025,32.9268511 C3.351915,32.9268511 2.73924,32.3135957 2.73924,31.5578511 Z M2.73924,42.5106383 C2.73924,41.7548936 3.351915,41.1416383 4.1087025,41.1416383 L8.21709,41.1416383 L8.21709,43.8796383 L4.1087025,43.8796383 C3.351915,43.8796383 2.73924,43.2671702 2.73924,42.5106383 Z M2.73924,53.4634255 C2.73924,52.7068936 3.351915,52.0944255 4.1087025,52.0944255 L8.21709,52.0944255 L8.21709,54.8324255 L4.1087025,54.8324255 C3.351915,54.8324255 2.73924,54.2199574 2.73924,53.4634255 Z M2.73924,64.4162128 C2.73924,63.6596809 3.351915,63.0472128 4.1087025,63.0472128 L8.21709,63.0472128 L8.21709,65.7852128 L4.1087025,65.7852128 C3.351915,65.7852128 2.73924,65.1727447 2.73924,64.4162128 Z M6.9531525,71.262 C6.8035275,71.262 6.74289,71.1714681 6.74289,71.1565106 L6.74289,68.524 L8.21709,68.524 C9.730665,68.524 10.9568025,67.2974894 10.9568025,65.7852128 L10.9568025,63.0472128 C10.9568025,61.5349362 9.730665,60.3092128 8.21709,60.3092128 L6.74289,60.3092128 L6.74289,57.5704255 L8.21709,57.5704255 C9.730665,57.5704255 10.9568025,56.3447021 10.9568025,54.8324255 L10.9568025,52.0944255 C10.9568025,50.5821489 9.730665,49.3564255 8.21709,49.3564255 L6.74289,49.3564255 L6.74289,46.6176383 L8.21709,46.6176383 C9.730665,46.6176383 10.9568025,45.3919149 10.9568025,43.8796383 L10.9568025,41.1416383 C10.9568025,39.6293617 9.730665,38.4036383 8.21709,38.4036383 L6.74289,38.4036383 L6.74289,35.6648511 L8.21709,35.6648511 C9.730665,35.6648511 10.9568025,34.4391277 10.9568025,32.9268511 L10.9568025,30.1888511 C10.9568025,28.6765745 9.730665,27.4508511 8.21709,27.4508511 L6.74289,27.4508511 L6.74289,24.7120638 L8.21709,24.7120638 C9.730665,24.7120638 10.9568025,23.4863404 10.9568025,21.9740638 L10.9568025,19.2360638 C10.9568025,17.7237872 9.730665,16.4980638 8.21709,16.4980638 L6.74289,16.4980638 L6.74289,13.7592766 L8.21709,13.7592766 C9.730665,13.7592766 10.9568025,12.5335532 10.9568025,11.0212766 L10.9568025,8.2832766 C10.9568025,6.771 9.730665,5.5452766 8.21709,5.5452766 L6.74289,5.5452766 L6.74289,2.91197872 C6.74289,2.89702128 6.8035275,2.80648936 6.9531525,2.80648936 L13.6957275,2.80648936 L13.6957275,71.262 L6.9531525,71.262 Z M60.26139,71.1565106 C60.26139,71.1714681 60.199965,71.262 60.05034,71.262 L16.4346525,71.262 L16.4346525,2.80648936 L60.05034,2.80648936 C60.199965,2.80648936 60.26139,2.89702128 60.26139,2.91197872 L60.26139,71.1565106 Z" id="Fill-1" fill="#FEFEFE" mask="url(#mask-4)"></path>
                </g>
                <path d="M52.6500776,25 L28.3499224,25 C27.6039331,25 27,25.6717448 27,26.4995688 C27,27.3282552 27.6039331,28 28.3499224,28 L52.6500776,28 C53.3952907,28 54,27.3282552 54,26.4995688 C54,25.6717448 53.3952907,25 52.6500776,25" id="Fill-4" fill="#FEFEFE"></path>
                <path d="M25,26.5 C25,27.3280621 24.3289247,28 23.5,28 C22.6710753,28 22,27.3280621 22,26.5 C22,25.6719379 22.6710753,25 23.5,25 C24.3289247,25 25,25.6719379 25,26.5" id="Fill-6" fill="#FEFEFE"></path>
                <path d="M52.6500776,35 L28.3499224,35 C27.6039331,35 27,35.6717448 27,36.4995688 C27,37.3282552 27.6039331,38 28.3499224,38 L52.6500776,38 C53.3952907,38 54,37.3282552 54,36.4995688 C54,35.6717448 53.3952907,35 52.6500776,35" id="Fill-8" fill="#FEFEFE"></path>
                <path d="M25,36.5 C25,37.3280621 24.3289247,38 23.5,38 C22.6710753,38 22,37.3280621 22,36.5 C22,35.6719379 22.6710753,35 23.5,35 C24.3289247,35 25,35.6719379 25,36.5" id="Fill-10" fill="#FEFEFE"></path>
                <path d="M52.6500776,46 L28.3499224,46 C27.6039331,46 27,46.6708824 27,47.4995688 C27,48.3282552 27.6039331,49 28.3499224,49 L52.6500776,49 C53.3952907,49 54,48.3282552 54,47.4995688 C54,46.6708824 53.3952907,46 52.6500776,46" id="Fill-12" fill="#FEFEFE"></path>
                <path d="M25,47.5 C25,48.3280621 24.3289247,49 23.5,49 C22.6710753,49 22,48.3280621 22,47.5 C22,46.6719379 22.6710753,46 23.5,46 C24.3289247,46 25,46.6719379 25,47.5" id="Fill-14" fill="#FEFEFE"></path>
            </g>
        </g>
    </g>
</svg>