<svg xmlns="http://www.w3.org/2000/svg" viewBox="0 0 55 75">
   <path d="M51.6 71.9H12.3V19.6h39.3v52.3zm-42.7-.3c-2.9 0-5.3-2.4-5.3-5.4V17.7c1.5 1.1 3.3 1.8 5.3 1.8v52.1zm43.3-55.4H9c-3 0-5.4-2.4-5.4-5.4V9.3c0-3 2.4-5.4 5.4-5.4h43c.6 0 1.1-.5 1.1-1.1V1.7c0-.6-.5-1.1-1.1-1.1H9C4.2.6.3 4.5.3 9.3v57C.3 71.1 4.2 75 9 75h3.3v-.1h40c1.5 0 2.8-1.2 2.8-2.8V19c-.1-1.5-1.4-2.8-2.9-2.8z"/>
   <path d="M8.7 9.3c0-.6.5-1.1 1.1-1.1h42.1c.6 0 1.1.5 1.1 1.1v1.1c0 .6-.5 1.1-1.1 1.1H9.8c-.6 0-1.1-.5-1.1-1.1V9.3zM44.3 35.5c0 .6-.5 1.1-1.1 1.1H24.6c-.6 0-1.1-.5-1.1-1.1v-1.1c0-.6.5-1.1 1.1-1.1h18.6c.6 0 1.1.5 1.1 1.1v1.1zM44.3 43.6c0 .6-.5 1.1-1.1 1.1H29.1c-.6 0-1.1-.5-1.1-1.1v-1.1c0-.6.5-1.1 1.1-1.1h14.1c.6 0 1.1.5 1.1 1.1v1.1zM44.3 51.7c0 .6-.5 1.1-1.1 1.1H26.8c-.6 0-1.1-.5-1.1-1.1v-1.1c0-.6.5-1.1 1.1-1.1h16.3c.6 0 1.1.5 1.1 1.1v1.1z"/>
</svg>