<?xml version="1.0" encoding="UTF-8"?>
<svg width="32px" height="33px" viewBox="0 0 32 33" version="1.1" xmlns="http://www.w3.org/2000/svg" xmlns:xlink="http://www.w3.org/1999/xlink">
    <!-- Generator: Sketch 53.2 (72643) - https://sketchapp.com -->
    <title id="DataWorld-icon-title">Data World</title>
    <defs>
        <polygon id="path-1" points="0.0359888889 2.06896552e-05 1.95965126 2.06896552e-05 1.95965126 6 0.0359888889 6"></polygon>
        <polygon id="path-3" points="0.00128207569 2.06896552e-05 1.92494445 2.06896552e-05 1.92494445 6 0.00128207569 6"></polygon>
    </defs>
    <g id="Data.World" stroke="none" stroke-width="1" fill="none" fill-rule="evenodd">
        <g id="Group-10">
            <g id="Group-4" stroke="#808080" stroke-width="2">
                <ellipse id="Oval-Copy" cx="15.9400769" cy="16.4857266" rx="14.9400769" ry="15.4857266"></ellipse>
            </g>
            <path d="M16.6370325,8.25393012 C16.6370325,8.25393012 14.2019074,6.99491373 13.8842824,6.5752416 L14.7312824,7.83425799 L12.6137823,6.5752416 L14.0960324,8.04409406 L12.7196573,7.93917603 C12.7196573,7.93917603 11.9785323,7.41458586 10.6021572,7.30966783 L10.4962822,8.77852029 C10.4962822,8.77852029 9.22578211,9.72278259 9.54340713,11.8211432 C9.54340713,11.8211432 9.12435386,14.7280022 9.11990711,14.7586383 C9.13695298,14.6406055 8.27428344,14.7908481 8.21975781,14.8143498 C7.56375627,15.0976285 7.47217439,15.7458121 7.38196889,16.3742711 C7.20536938,17.6040154 7.14237375,20.4840154 8.37878207,21.2637662 L9.27871962,19.1129465 L9.27871962,21.1063891 C9.27871962,21.1063891 9.70221964,22.4703236 10.7609697,22.5752416 L20.6073453,22.5752416 C20.6073453,22.5752416 22.0895953,22.2604875 21.9837203,21.0014711 L21.9837203,19.0080285 C22.2750883,19.7091957 22.5908076,20.7075957 23.1765081,21.2008154 C24.046483,20.1257203 24.3247225,18.6308481 24.2814197,17.2840154 C24.2637386,16.7322515 24.2464809,16.0705334 23.9839109,15.5691301 C23.8368506,15.2884744 22.6007598,14.6136416 22.6189704,14.7063891 C22.6189704,14.7061793 21.8778453,10.92934 21.8778453,10.92934 L22.2131515,10.9468613 C22.2131515,10.9468613 22.3013453,9.4604875 21.1367203,8.93589734 L21.0308452,7.36212685 C21.0308452,7.36212685 18.5957201,7.78179898 18.4898451,8.41130717 L16.6370325,8.25393012 Z" id="Fill-1" fill="#808080" fill-rule="nonzero"></path>
            <path d="M14.6045487,10.2212304 C13.4362999,9.32669564 12.2025809,9.4556957 10.8433683,10.0351881 C7.80757774,11.3294215 7.26940714,15.6748084 10.3430954,17.1685887 C10.4445343,17.21777 10.5484694,17.2630208 10.6545604,17.3036356 C12.3039063,17.9357359 14.3846511,17.4257826 15.4828913,16.1759938 C16.2690992,15.2811567 16.347164,14.2350469 16.2552563,13.1307863 C16.1650506,12.0473874 15.5869399,11.0029909 14.6634377,10.2671867 C14.6438081,10.2515656 14.6241784,10.236146 14.6045487,10.2212304" id="Fill-3" fill="#FFFFFF" fill-rule="nonzero"></path>
            <path d="M16.9668798,10.2212304 C18.1351287,9.32669564 19.3688476,9.4556957 20.7280603,10.0351881 C23.7638508,11.3294215 24.3020214,15.6748084 21.2283332,17.1685887 C21.1268943,17.21777 21.0230727,17.2630208 20.9168682,17.3036356 C19.2675222,17.9357359 17.1867775,17.4257826 16.0885373,16.1759938 C15.3023294,15.2811567 15.2242646,14.2350469 15.3161722,13.1307863 C15.406378,12.0473874 15.9844887,11.0029909 16.9079908,10.2671867 C16.9276205,10.2515656 16.9472502,10.236146 16.9668798,10.2212304" id="Fill-5" fill="#FFFFFF" fill-rule="nonzero"></path>
            <path d="M13.2369774,13.265837 L12.2330827,13.265837 L12.2330827,12.5752416 C11.7053985,12.6028931 11.2857143,13.0387708 11.2857143,13.5739322 C11.2857143,14.1269631 11.7333985,14.5752416 12.2857143,14.5752416 C12.8379248,14.5752416 13.2857143,14.1269631 13.2857143,13.5739322 C13.2857143,13.4664069 13.2683459,13.362964 13.2369774,13.265837" id="Fill-7" fill="#808080" fill-rule="nonzero"></path>
            <path d="M20.2369774,13.265837 L19.2330827,13.265837 L19.2330827,12.5752416 C18.7053985,12.6028931 18.2857143,13.0387708 18.2857143,13.5739322 C18.2857143,14.1269631 18.7333985,14.5752416 19.2857143,14.5752416 C19.8379248,14.5752416 20.2857143,14.1269631 20.2857143,13.5739322 C20.2857143,13.4664069 20.2683459,13.362964 20.2369774,13.265837" id="Fill-9" fill="#808080" fill-rule="nonzero"></path>
            <g id="Group-13" transform="translate(13.285714, 21.575242)">
                <g id="Fill-11-Clipped">
                    <mask id="mask-2" fill="white">
                        <use xlink:href="#path-1"></use>
                    </mask>
                    <g id="path-1"></g>
                    <path d="M1.80143333,4.30936552 C1.77465555,4.27946897 1.74065555,4.25133103 1.70265555,4.22474483 L1.70265555,2.06896552e-05 L1.25821111,2.06896552e-05 L1.25821111,4.03688276 C0.952211113,3.96136552 0.606988889,3.95660689 0.407544445,4.06388276 C0.0458777778,4.25836552 0.0359888889,4.84708965 0.0359888889,5.17243448 L0.0359888889,5.68967586 L0.480433333,5.37933103 L0.480433333,6.00002069 C0.480433333,6.00002069 1.9121,4.76960689 1.92487778,4.75864138 C2.03243333,4.66595173 1.86165555,4.37660689 1.80143333,4.30936552" id="Fill-11" fill="#808080" fill-rule="nonzero" mask="url(#mask-2)"></path>
                </g>
            </g>
            <g id="Group-16" transform="translate(16.285714, 21.575242)">
                <g id="Fill-14-Clipped">
                    <mask id="mask-4" fill="white">
                        <use xlink:href="#path-3"></use>
                    </mask>
                    <g id="path-3"></g>
                    <path d="M0.1595,4.30936552 C0.186277778,4.27946897 0.220277778,4.25133103 0.258277778,4.22474483 L0.258277778,2.06896552e-05 L0.70272222,2.06896552e-05 L0.70272222,4.03688276 C1.00872222,3.96136552 1.35394445,3.95660689 1.55338889,4.06388276 C1.91505555,4.25836552 1.92494445,4.84708965 1.92494445,5.17243448 L1.92494445,5.68967586 L1.4805,5.37933103 L1.4805,6.00002069 C1.4805,6.00002069 0.0488333333,4.76960689 0.0360555555,4.75864138 C-0.0715,4.66595173 0.099277778,4.37660689 0.1595,4.30936552" id="Fill-14" fill="#808080" fill-rule="nonzero" mask="url(#mask-4)"></path>
                </g>
            </g>
            <path d="M12.2857143,23.5752416 C12.2857143,23.5752416 12.3948728,17.4676204 16.4337374,17.5766851 C16.4337374,17.5766851 20.690919,17.4676204 20.254285,23.5752416 L12.2857143,23.5752416 Z" id="Fill-17" fill="#FFFFFF" fill-rule="nonzero"></path>
            <polygon id="Fill-19" fill="#808080" fill-rule="nonzero" points="14.2857143 17.2752416 16.2857143 15.5752416 18.2857143 17.2752416 16.2857143 19.5752416"></polygon>
        </g>
    </g>
</svg>