<?xml version="1.0" encoding="UTF-8"?>
<svg width="42px" height="42px" viewBox="0 0 42 42" version="1.1" xmlns="http://www.w3.org/2000/svg" xmlns:xlink="http://www.w3.org/1999/xlink">
    <!-- Generator: Sketch 53 (72520) - https://sketchapp.com -->
    <title>GitHub</title>
    <desc>Created with Sketch.</desc>
    <g id="Page-1" stroke="none" stroke-width="1" fill="none" fill-rule="evenodd">
        <g id="Artboard" transform="translate(-14.000000, -45.000000)">
            <g id="GitHub" transform="translate(14.000000, 45.000000)">
                <g id="Group-2">
                    <g>
                        <rect id="Rectangle" x="0" y="-3.55271368e-15" width="41.7681159" height="42"></rect>
                        <ellipse id="Oval" stroke="#808080" stroke-width="2" cx="20.884058" cy="21" rx="19.884058" ry="20"></ellipse>
                        <path d="M9,20.7917491 C9,26.0006764 12.4380429,30.4205917 17.2065134,31.9797954 C17.8069002,32.088375 18.0256914,31.7242713 18.0256914,31.4115619 C18.0256914,31.1314264 18.015378,30.3901894 18.0094846,29.4064579 C14.671629,30.1187403 13.9673716,27.8255383 13.9673716,27.8255383 C13.4214985,26.4632257 12.634734,26.1005697 12.634734,26.1005697 C11.5451978,25.3687429 12.7172412,25.3839441 12.7172412,25.3839441 C13.921698,25.4671885 14.555235,26.5993122 14.555235,26.5993122 C15.6263544,28.4010104 17.364161,27.880552 18.0477915,27.5787006 C18.1568188,26.8164715 18.4669572,26.2974608 18.8095092,26.0021242 C16.1449707,25.7046159 13.3434114,24.6933776 13.3434114,20.1750167 C13.3434114,18.8872622 13.8111974,17.8347635 14.5788084,17.0102821 C14.4557844,16.71205 14.0439854,15.5133308 14.6966758,13.8904271 C14.6966758,13.8904271 15.7044415,13.5726506 17.9962246,15.0985565 C18.9538967,14.8372415 19.9800792,14.7062221 21.0003683,14.7018789 C22.0199208,14.7062221 23.0461033,14.8372415 24.0052488,15.0985565 C26.2955585,13.5726506 27.3018509,13.8904271 27.3018509,13.8904271 C27.9560146,15.5133308 27.5442156,16.71205 27.4211916,17.0102821 C28.1902759,17.8347635 28.6543786,18.8872622 28.6543786,20.1750167 C28.6543786,24.7042355 25.8491359,25.7009966 23.1757574,25.9934378 C23.6067098,26.3575415 23.9897787,27.0770626 23.9897787,28.1766125 C23.9897787,29.7531889 23.9757819,31.0250184 23.9757819,31.4115619 C23.9757819,31.7271667 24.1916265,32.0934421 24.8008533,31.9783476 C29.5649038,30.4162485 33,25.9999526 33,20.7917491 C33,14.2791422 27.6267227,9 20.998895,9 C14.3732773,9 9,14.2791422 9,20.7917491 Z" id="Shape" fill="#808080"></path>
                    </g>
                </g>
            </g>
        </g>
    </g>
</svg>