<svg xmlns="http://www.w3.org/2000/svg" xmlns:xlink="http://www.w3.org/1999/xlink" viewBox="0 0 40 34.2">
   <defs>
      <path id="a" d="M-622 302.2h23v23h-23z"/>
   </defs>
   <clipPath id="b">
      <use xlink:href="#a" overflow="visible"/>
   </clipPath>
   <g clip-path="url(#b)">
      <defs>
         <path id="c" d="M-700-2578.8H740v5192H-700z"/>
      </defs>
      <clipPath id="d">
         <use xlink:href="#c" overflow="visible"/>
      </clipPath>
      <g clip-path="url(#d)">
         <defs>
            <path id="e" d="M-623 301.2h25v25h-25z"/>
         </defs>
         <clipPath id="f">
            <use xlink:href="#e" overflow="visible"/>
         </clipPath>
         <g clip-path="url(#f)">
            <defs>
               <path id="g" d="M-612.4 320.9c-.8 0-1.4-.5-.8-2.6l.9-3.8c.2-.6.2-.8 0-.8s-1.3.4-1.9.8l-.4-.7c1.9-1.6 4.2-2.6 5.1-2.6.8 0 .9.9.5 2.4l-1 4c-.2.7-.1.9.1.9s1-.3 1.8-.9l.5.6c-1.9 1.9-4 2.7-4.8 2.7m3-14.9c1.2 0 1.5.7 1.5 1.5 0 1-.8 1.9-2.1 1.9-1.1 0-1.6-.6-1.6-1.5 0-.8.7-1.9 2.2-1.9m-1.3-3.8c-6.4.1-11.4 5.3-11.3 11.7.1 6.3 5.3 11.4 11.7 11.3 6.3-.1 11.4-5.3 11.3-11.7-.1-6.3-5.3-11.4-11.7-11.3"/>
            </defs>
            <clipPath id="h">
               <use xlink:href="#g" overflow="visible"/>
            </clipPath>
            <g clip-path="url(#h)">
               <defs>
                  <path id="i" d="M-622 302.2h23v23h-23z"/>
               </defs>
               <clipPath id="j">
                  <use xlink:href="#i" overflow="visible"/>
               </clipPath>
               <path clip-path="url(#j)" fill="#5b616b" d="M-627 297.2h33v33h-33z"/>
            </g>
         </g>
      </g>
   </g>
   <g>
      <defs>
         <path id="k" d="M-58-1305.8h56v31h-56z"/>
      </defs>
      <clipPath id="l">
         <use xlink:href="#k" overflow="visible"/>
      </clipPath>
      <g clip-path="url(#l)">
         <defs>
            <path id="m" d="M-696-2576.8H744v5192H-696z"/>
         </defs>
         <clipPath id="n">
            <use xlink:href="#m" overflow="visible"/>
         </clipPath>
         <g clip-path="url(#n)">
            <defs>
               <path id="o" d="M-58-1305.8h56v31h-56z"/>
            </defs>
            <clipPath id="p">
               <use xlink:href="#o" overflow="visible"/>
            </clipPath>
            <g clip-path="url(#p)">
               <defs>
                  <path id="q" d="M-56.6-1305.2l.3.2v.2h-.3l.2.3v.3l-.2.1h-.7l-.2-.1-.3-.1-.1-.1v.6l.1.2.1.3h.1l.1.3.1.3.1.1v.5l.1.3v.2s0 .2.1.3v.3c0 .1.1.5.1.5v2.2c0 .1-.1.3-.1.4 0 .2 0 .2-.1.5 0 .3-.1.4-.1.4s-.1.2-.1.3c0 .1-.1.5-.1.5v.2s0 .2.1.2c0 .1.1.4.1.4l.1.2c.1.2 0 .5 0 .5l.1.2.1.4-.1.4-.1.3s-.1.3-.1.4c0 .1.1.3.1.3l.3.2.1.3v.7l.1.3v.2l.2.3.2.2.3.3.1.3.1.4h.1v.2l.2.3v.2l.2.2s0 .1.1.2.2.1.2.1h.1l.1.4h-.2v.2l.1.2.1.2.3.1.1.2.2.3.1.2.1.2v.1l.2.1V-1285.5c0 .1.2.3.2.3l.3.1H-52.7l.2.2.2.2h.2l.2.1.3.1.1.1.2.2.3.2h.2l.2.2.1.2.1.4v.3l2.4-.2-.1.3 3.6 1.3h2.9v-.5h1.8v.2l.2.2.1.1h.1l.1.2.2.2.1.1.2.1h.1l.1.2.1.2.2.3v.2l.1.2v.1l.2.2h.2l.1.2.2.1h.2l.1.1.2.1H-36.7l.2-.2.1-.2.2-.4h.3v-.1l.2.1H-35.1l.2.1v.1l.1.1h.2l.1.1.2.3v.2l.2.2.1.2.1.2v.2l.1.1.2.2.1.1v.1l.2.1.1.1v.4h.1v.4l.2.1v.2l.1.2.1.2h.2l.1.2h.2l.2.2h.5l.2.2h.2v-.5h-.1V-1276.1l-.1-.2v-.2c.1-.1 0-.3 0-.3l.1-.1.1-.2v-.3l.2-.3.2-.2.1-.1.2-.2.1-.1h.1l.4-.2.4-.1.2-.2v-.3l.3-.1.1-.1v-.1l.3-.1h.2l.2-.1h.2l.2-.1h.7l.2.1h.6v-.2h.1v-.2l.2.1v.1l.1.1.1.1v.1h.2v-.2h.2v.4l.1.1.2.1.2-.1.1-.1h.2l.1.2h.1v-.2l.2-.1.2.1.1.1h.1l.2-.1-.2-.2-.1-.1.1-.1h.1l.1-.1v-.5s.1-.1.2-.1h.4l.3-.1.3.1.2-.1v-.4h.1v.3l.1.2.2.1.1-.1h1.4s.1 0 .2.1c.1 0 .1 0 .2.1.1 0 .2.1.2.1l.2.1.2.3.2-.1.3-.1h.3l.1-.1v-.1h.2c.1 0 .3.1.3.1l.2.2.1.2s-.1 0 0 .1.1.2.1.2l.2.2.1.2.2.1.1.2.1.3v.3l-.1.3-.1.3.1.2.1.2v.2l.1.3.2.2.1.2v.1l.1.1.1.1.1.3v.2s.1 0 .2.1l.1.1h.2l.1.1.1.2v.3l.1.2h.2l.2-.1.2-.1v-.2l.1-.2.1-.3v-.2l.1-.2v-.9l-.2-.2-.1-.1v-.1l-.1-.2-.1-.3-.1-.3v-.7l-.2-.1-.1-.2-.1-.3s0-.1-.1-.2c0-.1-.1-.2-.1-.2l-.2-.4v-.4l-.1-.2-.1-.1.1-.2V-1281s-.1-.1-.1-.2v-.1s.2-.1.3-.2v-.3l-.1-.1.2-.1.1-.1.1-.1v-.2s-.1-.1 0-.1h.2l.1-.2.1-.2.2-.1.2-.1.2-.3v-.2s0-.1.1-.1.3-.1.3-.1l.2-.2v-.1l.1-.1.1-.2s-.1-.1 0-.1.2-.1.2-.1l.1-.1h.5v-.2l.2-.1.1-.1.2-.1.1-.1.2-.1.1-.1c.1 0 .2-.1.2-.1h.3l.2-.1.1-.2v-.1l-.1-.1v-.2l.1-.1.3.1.1-.2.1-.1.1-.1v-.4h-.8l.2-.1.3-.1H-10.4l.1-.2-.2-.1v-.6h-.2l-.1-.1-.1-.2V-1288.8h.2l-.1-.2v-.6h-.1l-.1-.1.1-.1v-.4l-.1-.1v-.4l.1-.1c.2.2.2.2.2.3v.2l-.1.2.1.1.1.1h.1l.1.3.1.2v.2c0 .1-.1.2-.2.2v.1l-.1.3v.2l.1.1.1-.4.1-.2.1-.2.2-.3v-.2l.1-.1.1-.1.2-.2v-.4l-.1-.1v-.1l-.1-.1v-.1l-.1-.1v-.2l-.1-.2.2.1.2.2h.2v.2h.1l.2-.3.1-.1v-.1l.2-.1v-.1l.2-.1v-.1l.1-.1V-1292.1l.1-.1v-.2s.1-.1 0-.1h-.1v-.2h.7l.2-.1h.2c.1 0 .2-.1.2-.1l.4-.1.1-.1h.1l.2-.1v-.1H-6.7h-.4-.2c-.2 0 0-.1-.2 0l-.2.1-.4.1-.1.1-.1-.1.2-.2.3-.2s.1-.1.3-.1H-5.9l.2-.1h.1l.1-.1.1-.1H-4.8l.2-.1.1-.2-.1-.2-.1-.1-.2.1.1.1.1.1v.1l-.1.1H-5l-.1-.1-.1-.1v-.1l-.1-.1v-.2l-.2-.1s-.1 0-.1-.1v-.1l.1-.1.1-.1.1-.1-.1-.1-.1-.1v-.2c0-.1.1-.2.1-.2l.1-.1.2-.2.1-.1.2-.2v-.2l-.1-.1.1-.2.2.1h.2v-.1h.2c.1 0 .2-.1.2-.1l.1-.1c.1 0 .1-.1.1-.1v-.2-.1l.1-.1s-.1.1 0 .2l.1.1.1.1h.1l.1-.1H-3l.1-.1.1-.1H-2.5s.1-.1.2-.1h.1l.1-.1v-.1l.1-.2-.1-.2-.1-.2-.2-.1-.1-.1v-.4l-.3-.1v-2.1l-.4-.4h-.2l-.1.1h-.2l-.2.1H-4v-.3h-.1l-.1.1s-.1.1-.1.2-.1.3-.1.3l-.2.3-.2.3-.1.1v.3l-.2.1-.1.2.1.2-.1.3-.1.1-.1.1v.1s-.2 0-.2.1v.2l-.1.1v.2l-.1-.1H-6c-.1 0-.2.1-.2.1l-.1.1v.3h-3.4l-.3.1-.1.1s-.1 0-.1.1-.1.1-.1.2-.1.1-.1.1 0 .2-.1.2-.3.1-.3.1l-.1.1c-.1.1-.2.1-.2.1l-.2.1.2.2.1.1v.1l-.1.2v.3l-.2.1-.2.1-.2.2h-.4l-.2.1h-.1c-.1-.1-.2-.1-.2-.1h-.8l-.2.1H-13.9l-.1.1.1.2.1.2-.1.2-.1.1-.1.1-.2.2-.2.1c-.1 0-.2.1-.2.1l-.2.2-.2.1-.3.1s-.1 0-.2.1c-.1 0-.4.2-.4.2l-.1.2-.2.1h-.4l-.1.1h-.1l-.3-.1h-.2l-.2-.1-.1-.1c-.1 0-.2-.1-.2-.1s-.1-.1-.1-.2c.1 0 .1-.1.1-.1v-.1l.1-.1.1-.3.1-.1.2-.2.1-.1v-.1l.1-.1.1-.1v-.4c0-.1-.1-.2-.1-.2v-.1l-.1-.3v-.5l-.1-.1h-.1l-.2-.1s-.1 0-.2.1h-.1l-.1.2-.2.2-.1.1-.2-.2v-.2l.1-.1v-.1l.2-.1.1-.2.2-.2.1-.2V-1297.9l-.1-.2v-.1l.2-.1-.1-.1-.1-.1v-.2l-.2-.1-.3-.1-.2-.1-.1-.1s-.1 0-.2-.1c-.1 0-.2-.1-.2-.1l-.2-.1-.1.1-.2.2v.2l.1.1-.2.1-.2.1v.4l-.1.1h-.1v-.1l.1-.2-.1-.2-.1.2-.1.1h-.1s-.1 0-.1.1v.2h-.2v.5l-.2.3-.1.2.1.2-.1.3.1.2.1.3.1.3v.6c0 .1-.1.4-.1.4l-.1.3-.2.3-.1.2-.3.1-.3-.1-.1-.1c0-.1-.1-.2-.1-.2l-.1-.2v-.8-.2-.2c0-.1-.1-.1-.1-.2v-.1l-.1-.2v-.1c.1-.1.2-.4.2-.4v-.2-.2c0-.1.1-.4.1-.4l.1-.1.1-.1v-.5l.1-.2.1-.3.1-.2v-.2l.1-.2h-.2l-.1.2-.1.2-.1.1-.2.2-.2.2h-.1v-.1l.1-.2.1-.1.1-.2.1-.3.1-.2.1-.3.2-.1.1-.3.1.3h.1l.1-.2.1-.1v.3l.1-.1h.1l.1-.1.1-.1h.6l.1-.2.3.1.2.1.2.1.1-.2H-18.7l.1-.2-.1-.2v-.5h-.1l-.2.1h-.6v-.4h-.2l-.1.1H-20.6l-.3.1-.2.2h-.3l-.2-.1H-21.9l-.1-.3-.1-.1-.1-.1H-22.8l-.1.2-.1-.2.1-.2.2-.2.2-.2.2-.1-.1-.1h-.4l-.1.1-.2.1-.1.1v.1l-.1.1-.1.1-.2.2-.2.1-.2.1h-.2l-.2.2-.1.1c-.1 0-.2.1-.2.1H-25l-.1.1v-.5l-.2.1-.3.1-.2.1h-.5v-.1l.2-.1.1-.1.3-.2.2-.1.2-.3.2-.3s.2-.2.3-.2c.1 0 .4-.2.4-.2l.4-.2.2-.1.2-.1-.1-.1h-.2l-.1-.1-.2-.1h-.5l-.1-.2-.3.2-.1.1H-25.5l-.1-.1h-.1l-.1-.1-.1-.1-.2-.1-.1.2h-.1v-.2h-.2l.1-.1-.2-.1h-.7v.1h-.3l-.1-.2h-.4l-.1-.1h-.3l-.1-.2v-.4l-.1-.3-.1-.1-.3-.1v.5l-27.5-.5z"/>
               </defs>
               <clipPath id="r">
                  <use xlink:href="#q" overflow="visible"/>
               </clipPath>
               <g clip-path="url(#r)">
                  <defs>
                     <path id="s" d="M-58-1305.8h56v31h-56z"/>
                  </defs>
                  <clipPath id="t">
                     <use xlink:href="#s" overflow="visible"/>
                  </clipPath>
               </g>
            </g>
         </g>
      </g>
   </g>
   <g>
      <path d="M1 2.9C1 1.6 2.1.5 3.4.5h33.2C37.9.5 39 1.6 39 2.9v30.6c0 .2-.1.3-.3.3H1.3c-.2 0-.3-.1-.3-.3V2.9zM35.4 21v9.2H21.8V21h13.6zm0-3.5V7.7H21.8v9.8h13.6zM4.6 21v9.2h13.7V21H4.6zm0-3.5V7.7h13.7v9.8H4.6z" fill-rule="evenodd" clip-rule="evenodd"/>
   </g>
</svg>