<?xml version="1.0" encoding="UTF-8"?>
<svg width="302px" height="71px" viewBox="0 0 302 71" version="1.1" xmlns="http://www.w3.org/2000/svg" xmlns:xlink="http://www.w3.org/1999/xlink">
    <!-- Generator: Sketch 59.1 (86144) - https://sketch.com -->
    <title>Land Area</title>
    <desc>Created with Sketch.</desc>
    <g id="Export-Outlined-SVG" stroke="none" stroke-width="1" fill="none" fill-rule="evenodd">
        <g id="8" transform="translate(-842.000000, -851.000000)">
            <g id="Land-Area" transform="translate(842.462000, 851.112000)">
                <polygon id="Fill-1" fill="#E0E0E0" points="1.538 34.888 298.538 34.888 298.538 24.888 1.538 24.888"></polygon>
                <path d="M1.413,42.888 L1.413,15.888 C1.413,15.6808932 1.24510678,15.513 1.038,15.513 C0.830893219,15.513 0.663,15.6808932 0.663,15.888 L0.663,42.888 C0.663,43.0951068 0.830893219,43.263 1.038,43.263 C1.24510678,43.263 1.413,43.0951068 1.413,42.888 Z" id="Stroke-2" fill="#D1D1D1" fill-rule="nonzero"></path>
                <path d="M76.413,42.888 L76.413,16.888 C76.413,16.6808932 76.2451068,16.513 76.038,16.513 C75.8308932,16.513 75.663,16.6808932 75.663,16.888 L75.663,42.888 C75.663,43.0951068 75.8308932,43.263 76.038,43.263 C76.2451068,43.263 76.413,43.0951068 76.413,42.888 Z" id="Stroke-3" fill="#D1D1D1" fill-rule="nonzero"></path>
                <path d="M150.413,42.888 L150.413,16.888 C150.413,16.6808932 150.245107,16.513 150.038,16.513 C149.830893,16.513 149.663,16.6808932 149.663,16.888 L149.663,42.888 C149.663,43.0951068 149.830893,43.263 150.038,43.263 C150.245107,43.263 150.413,43.0951068 150.413,42.888 Z" id="Stroke-4" fill="#D1D1D1" fill-rule="nonzero"></path>
                <path d="M224.413,42.888 L224.413,16.888 C224.413,16.6808932 224.245107,16.513 224.038,16.513 C223.830893,16.513 223.663,16.6808932 223.663,16.888 L223.663,42.888 C223.663,43.0951068 223.830893,43.263 224.038,43.263 C224.245107,43.263 224.413,43.0951068 224.413,42.888 Z" id="Stroke-5" fill="#D1D1D1" fill-rule="nonzero"></path>
                <path d="M298.413,42.888 L298.413,16.888 C298.413,16.6808932 298.245107,16.513 298.038,16.513 C297.830893,16.513 297.663,16.6808932 297.663,16.888 L297.663,42.888 C297.663,43.0951068 297.830893,43.263 298.038,43.263 C298.245107,43.263 298.413,43.0951068 298.413,42.888 Z" id="Stroke-6" fill="#D1D1D1" fill-rule="nonzero"></path>
                <path d="M280.433028,38.888 L5.64297238,38.888 C3.93523757,38.888 2.538,37.5568261 2.538,35.9314783 L2.538,24.8445217 C2.538,23.2184348 3.93523757,21.888 5.64297238,21.888 L280.433028,21.888 C282.140762,21.888 283.538,23.2184348 283.538,24.8445217 L283.538,35.9314783 C283.538,37.5568261 282.140762,38.888 280.433028,38.888" id="Fill-7" fill="#9D9DC6"></path>
                <path d="M2.1525,0.063 C2.82450336,0.063 3.34949811,0.35699706 3.7275,0.945 C4.10550189,1.53300294 4.2945,2.39049436 4.2945,3.5175 C4.2945,4.64450564 4.10550189,5.50899699 3.7275,6.111 C3.34949811,6.71300301 2.82450336,7.014 2.1525,7.014 C1.47349661,7.014 0.94500189,6.71300301 0.567,6.111 C0.18899811,5.50899699 0,4.64450564 0,3.5175 C0,2.39049436 0.18899811,1.53300294 0.567,0.945 C0.94500189,0.35699706 1.47349661,0.063 2.1525,0.063 Z M2.1525,0.756 C1.95649902,0.756 1.7780008,0.808499475 1.617,0.9135 C1.45599919,1.01850052 1.31775058,1.1812489 1.20225,1.40175 C1.08674942,1.6222511 0.997500315,1.90749825 0.9345,2.2575 C0.871499685,2.60750175 0.84,3.02749755 0.84,3.5175 C0.84,4.4975049 0.960748792,5.20974778 1.20225,5.65425 C1.44375121,6.09875222 1.76049804,6.321 2.1525,6.321 C2.34850098,6.321 2.52524921,6.26675054 2.68275,6.15825 C2.84025079,6.04974946 2.97674942,5.88175114 3.09225,5.65425 C3.20775058,5.42674886 3.29699969,5.13625177 3.36,4.78275 C3.42300031,4.42924823 3.4545,4.00750245 3.4545,3.5175 C3.4545,3.02749755 3.42300031,2.60750175 3.36,2.2575 C3.29699969,1.90749825 3.20775058,1.6222511 3.09225,1.40175 C2.97674942,1.1812489 2.84025079,1.01850052 2.68275,0.9135 C2.52524921,0.808499475 2.34850098,0.756 2.1525,0.756 Z" id="Combined-Shape" fill="#848484" fill-rule="nonzero"></path>
                <path d="M282.352,6.3315 C282.520001,6.3315 282.673999,6.29650035 282.814,6.2265 C282.954001,6.15649965 283.076499,6.05675065 283.1815,5.92725 C283.286501,5.79774935 283.36875,5.64375089 283.42825,5.46525 C283.48775,5.28674911 283.5175,5.08550112 283.5175,4.8615 C283.5175,4.4204978 283.416001,4.07400126 283.213,3.822 C283.009999,3.56999874 282.698502,3.444 282.2785,3.444 C282.068499,3.444 281.839251,3.51224932 281.59075,3.64875 C281.342249,3.78525068 281.106001,4.01099842 280.882,4.326 C280.938,4.98400329 281.090249,5.4827483 281.33875,5.82225 C281.587251,6.1617517 281.924998,6.3315 282.352,6.3315 Z M283.7275,1.3125 C283.587499,1.15149919 283.421251,1.02375047 283.22875,0.92925 C283.036249,0.834749527 282.835001,0.7875 282.625,0.7875 C282.393999,0.7875 282.173501,0.83649951 281.9635,0.9345 C281.753499,1.03250049 281.568001,1.19349888 281.407,1.4175 C281.245999,1.64150112 281.1165,1.9337482 281.0185,2.29425 C280.9205,2.6547518 280.868,3.10099734 280.861,3.633 C281.071001,3.37399871 281.315999,3.16925075 281.596,3.01875 C281.876001,2.86824925 282.152499,2.793 282.4255,2.793 C283.006503,2.793 283.470248,2.96449828 283.81675,3.3075 C284.163252,3.65050171 284.3365,4.16849653 284.3365,4.8615 C284.3365,5.18350161 284.284001,5.47574869 284.179,5.73825 C284.073999,6.00075131 283.930501,6.22649906 283.7485,6.4155 C283.566499,6.60450094 283.356501,6.75149948 283.1185,6.8565 C282.880499,6.96150052 282.625001,7.014 282.352,7.014 C282.022998,7.014 281.718501,6.94750066 281.4385,6.8145 C281.158499,6.68149933 280.915251,6.48025135 280.70875,6.21075 C280.502249,5.94124865 280.339501,5.60525201 280.2205,5.20275 C280.101499,4.80024799 280.042,4.3295027 280.042,3.7905 C280.042,3.11849664 280.111999,2.54625236 280.252,2.07375 C280.392001,1.60124764 280.580999,1.21625149 280.819,0.91875 C281.057001,0.621248513 281.328248,0.404250682 281.63275,0.26775 C281.937252,0.131249318 282.257498,0.063 282.5935,0.063 C282.957502,0.063 283.270749,0.131249318 283.53325,0.26775 C283.795751,0.404250682 284.021499,0.573998985 284.2105,0.777 L283.7275,1.3125 Z M287.341,7.014 C286.661997,7.014 286.133502,6.71300301 285.7555,6.111 C285.377498,5.50899699 285.1885,4.64450564 285.1885,3.5175 C285.1885,2.39049436 285.377498,1.53300294 285.7555,0.945 C286.133502,0.35699706 286.661997,0.063 287.341,0.063 C288.013003,0.063 288.537998,0.35699706 288.916,0.945 C289.294002,1.53300294 289.483,2.39049436 289.483,3.5175 C289.483,4.64450564 289.294002,5.50899699 288.916,6.111 C288.537998,6.71300301 288.013003,7.014 287.341,7.014 Z M287.341,6.321 C287.537001,6.321 287.713749,6.26675054 287.87125,6.15825 C288.028751,6.04974946 288.165249,5.88175114 288.28075,5.65425 C288.396251,5.42674886 288.4855,5.13625177 288.5485,4.78275 C288.6115,4.42924823 288.643,4.00750245 288.643,3.5175 C288.643,3.02749755 288.6115,2.60750175 288.5485,2.2575 C288.4855,1.90749825 288.396251,1.6222511 288.28075,1.40175 C288.165249,1.1812489 288.028751,1.01850052 287.87125,0.9135 C287.713749,0.808499475 287.537001,0.756 287.341,0.756 C287.144999,0.756 286.966501,0.808499475 286.8055,0.9135 C286.644499,1.01850052 286.506251,1.1812489 286.39075,1.40175 C286.275249,1.6222511 286.186,1.90749825 286.123,2.2575 C286.06,2.60750175 286.0285,3.02749755 286.0285,3.5175 C286.0285,4.4975049 286.149249,5.20974778 286.39075,5.65425 C286.632251,6.09875222 286.948998,6.321 287.341,6.321 Z M292.5295,7.014 C291.850497,7.014 291.322002,6.71300301 290.944,6.111 C290.565998,5.50899699 290.377,4.64450564 290.377,3.5175 C290.377,2.39049436 290.565998,1.53300294 290.944,0.945 C291.322002,0.35699706 291.850497,0.063 292.5295,0.063 C293.201503,0.063 293.726498,0.35699706 294.1045,0.945 C294.482502,1.53300294 294.6715,2.39049436 294.6715,3.5175 C294.6715,4.64450564 294.482502,5.50899699 294.1045,6.111 C293.726498,6.71300301 293.201503,7.014 292.5295,7.014 Z M292.5295,6.321 C292.725501,6.321 292.902249,6.26675054 293.05975,6.15825 C293.217251,6.04974946 293.353749,5.88175114 293.46925,5.65425 C293.584751,5.42674886 293.674,5.13625177 293.737,4.78275 C293.8,4.42924823 293.8315,4.00750245 293.8315,3.5175 C293.8315,3.02749755 293.8,2.60750175 293.737,2.2575 C293.674,1.90749825 293.584751,1.6222511 293.46925,1.40175 C293.353749,1.1812489 293.217251,1.01850052 293.05975,0.9135 C292.902249,0.808499475 292.725501,0.756 292.5295,0.756 C292.333499,0.756 292.155001,0.808499475 291.994,0.9135 C291.832999,1.01850052 291.694751,1.1812489 291.57925,1.40175 C291.463749,1.6222511 291.3745,1.90749825 291.3115,2.2575 C291.2485,2.60750175 291.217,3.02749755 291.217,3.5175 C291.217,4.4975049 291.337749,5.20974778 291.57925,5.65425 C291.820751,6.09875222 292.137498,6.321 292.5295,6.321 Z M296.0485,-5.68434189e-14 L296.92,-5.68434189e-14 L296.92,3.4545 L296.9515,3.4545 L299.818,-5.68434189e-14 L300.805,-5.68434189e-14 L298.6525,2.625 L301.141,6.888 L300.1645,6.888 L298.1065,3.3075 L296.92,4.704 L296.92,6.888 L296.0485,6.888 L296.0485,-5.68434189e-14 Z" id="600K" fill="#848484" fill-rule="nonzero"></path>
                <path d="M144.252,5.502 C144.455001,5.71200105 144.691249,5.89749919 144.96075,6.0585 C145.230251,6.2195008 145.564498,6.3 145.9635,6.3 C146.369502,6.3 146.701999,6.1897511 146.961,5.96925 C147.220001,5.7487489 147.3495,5.44950189 147.3495,5.0715 C147.3495,4.87549902 147.31275,4.69525082 147.23925,4.53075 C147.16575,4.36624918 147.045001,4.22450059 146.877,4.1055 C146.708999,3.9864994 146.488501,3.89550031 146.2155,3.8325 C145.942499,3.76949968 145.606502,3.738 145.2075,3.738 L145.2075,3.0765 C145.564502,3.0765 145.863749,3.04500031 146.10525,2.982 C146.346751,2.91899968 146.542749,2.83150056 146.69325,2.7195 C146.843751,2.60749944 146.9505,2.47450077 147.0135,2.3205 C147.0765,2.16649923 147.108,2.00200087 147.108,1.827 C147.108,1.49799835 147.004751,1.23900094 146.79825,1.05 C146.591749,0.860999055 146.310002,0.7665 145.953,0.7665 C145.672999,0.7665 145.415751,0.82949937 145.18125,0.9555 C144.946749,1.08150063 144.728001,1.24599898 144.525,1.449 L144.063,0.903 C144.322001,0.657998775 144.607248,0.456750787 144.91875,0.29925 C145.230252,0.141749212 145.585498,0.063 145.9845,0.063 C146.278501,0.063 146.547999,0.101499615 146.793,0.1785 C147.038001,0.255500385 147.249749,0.365749282 147.42825,0.50925 C147.606751,0.652750717 147.745,0.82949895 147.843,1.0395 C147.941,1.24950105 147.99,1.49099863 147.99,1.764 C147.99,2.17000203 147.878001,2.5024987 147.654,2.7615 C147.429999,3.02050129 147.136002,3.2199993 146.772,3.36 L146.772,3.402 C146.975001,3.45100024 147.163999,3.52274953 147.339,3.61725 C147.514001,3.71175047 147.667999,3.83074928 147.801,3.97425 C147.934001,4.11775072 148.03725,4.28399905 148.11075,4.473 C148.18425,4.66200094 148.221,4.87199884 148.221,5.103 C148.221,5.39700147 148.163251,5.66299881 148.04775,5.901 C147.932249,6.13900119 147.774751,6.34024918 147.57525,6.50475 C147.375749,6.66925082 147.143001,6.79524956 146.877,6.88275 C146.610999,6.97025044 146.324002,7.014 146.016,7.014 C145.749999,7.014 145.506751,6.98775026 145.28625,6.93525 C145.065749,6.88274974 144.864501,6.81275044 144.6825,6.72525 C144.500499,6.63774956 144.337751,6.53800056 144.19425,6.426 C144.050749,6.31399944 143.923001,6.19500063 143.811,6.069 L144.252,5.502 Z M151.341,7.014 C150.661997,7.014 150.133502,6.71300301 149.7555,6.111 C149.377498,5.50899699 149.1885,4.64450564 149.1885,3.5175 C149.1885,2.39049436 149.377498,1.53300294 149.7555,0.945 C150.133502,0.35699706 150.661997,0.063 151.341,0.063 C152.013003,0.063 152.537998,0.35699706 152.916,0.945 C153.294002,1.53300294 153.483,2.39049436 153.483,3.5175 C153.483,4.64450564 153.294002,5.50899699 152.916,6.111 C152.537998,6.71300301 152.013003,7.014 151.341,7.014 Z M151.341,6.321 C151.537001,6.321 151.713749,6.26675054 151.87125,6.15825 C152.028751,6.04974946 152.165249,5.88175114 152.28075,5.65425 C152.396251,5.42674886 152.4855,5.13625177 152.5485,4.78275 C152.6115,4.42924823 152.643,4.00750245 152.643,3.5175 C152.643,3.02749755 152.6115,2.60750175 152.5485,2.2575 C152.4855,1.90749825 152.396251,1.6222511 152.28075,1.40175 C152.165249,1.1812489 152.028751,1.01850052 151.87125,0.9135 C151.713749,0.808499475 151.537001,0.756 151.341,0.756 C151.144999,0.756 150.966501,0.808499475 150.8055,0.9135 C150.644499,1.01850052 150.506251,1.1812489 150.39075,1.40175 C150.275249,1.6222511 150.186,1.90749825 150.123,2.2575 C150.06,2.60750175 150.0285,3.02749755 150.0285,3.5175 C150.0285,4.4975049 150.149249,5.20974778 150.39075,5.65425 C150.632251,6.09875222 150.948998,6.321 151.341,6.321 Z M156.5295,7.014 C155.850497,7.014 155.322002,6.71300301 154.944,6.111 C154.565998,5.50899699 154.377,4.64450564 154.377,3.5175 C154.377,2.39049436 154.565998,1.53300294 154.944,0.945 C155.322002,0.35699706 155.850497,0.063 156.5295,0.063 C157.201503,0.063 157.726498,0.35699706 158.1045,0.945 C158.482502,1.53300294 158.6715,2.39049436 158.6715,3.5175 C158.6715,4.64450564 158.482502,5.50899699 158.1045,6.111 C157.726498,6.71300301 157.201503,7.014 156.5295,7.014 Z M156.5295,6.321 C156.725501,6.321 156.902249,6.26675054 157.05975,6.15825 C157.217251,6.04974946 157.353749,5.88175114 157.46925,5.65425 C157.584751,5.42674886 157.674,5.13625177 157.737,4.78275 C157.8,4.42924823 157.8315,4.00750245 157.8315,3.5175 C157.8315,3.02749755 157.8,2.60750175 157.737,2.2575 C157.674,1.90749825 157.584751,1.6222511 157.46925,1.40175 C157.353749,1.1812489 157.217251,1.01850052 157.05975,0.9135 C156.902249,0.808499475 156.725501,0.756 156.5295,0.756 C156.333499,0.756 156.155001,0.808499475 155.994,0.9135 C155.832999,1.01850052 155.694751,1.1812489 155.57925,1.40175 C155.463749,1.6222511 155.3745,1.90749825 155.3115,2.2575 C155.2485,2.60750175 155.217,3.02749755 155.217,3.5175 C155.217,4.4975049 155.337749,5.20974778 155.57925,5.65425 C155.820751,6.09875222 156.137498,6.321 156.5295,6.321 Z M160.0485,-5.68434189e-14 L160.92,-5.68434189e-14 L160.92,3.4545 L160.9515,3.4545 L163.818,-5.68434189e-14 L164.805,-5.68434189e-14 L162.6525,2.625 L165.141,6.888 L164.1645,6.888 L162.1065,3.3075 L160.92,4.704 L160.92,6.888 L160.0485,6.888 L160.0485,-5.68434189e-14 Z" id="300K" fill="#848484" fill-rule="nonzero"></path>
                <path d="M215.63,4.347 L217.73,4.347 L217.73,2.4045 C217.73,2.26799932 217.732953,2.11279723 217.738859,1.93889102 L217.762812,1.41093738 C217.768937,1.30331264 217.7755,1.20400045 217.7825,1.113 L217.7405,1.113 C217.6565,1.2740008 217.569,1.43149923 217.478,1.5855 L217.1945,2.058 L217.1945,2.058 L215.63,4.347 Z M219.4625,5.04 L218.549,5.04 L218.549,6.888 L217.73,6.888 L217.73,5.04 L214.7165,5.04 L214.7165,4.473 L217.583,0.189 L218.549,0.189 L218.549,4.347 L219.4625,4.347 L219.4625,5.04 Z M220.409,5.5335 C220.605001,5.73650101 220.837749,5.91499923 221.10725,6.069 C221.376751,6.22300077 221.707498,6.3 222.0995,6.3 C222.302501,6.3 222.493249,6.26325037 222.67175,6.18975 C222.850251,6.11624963 223.005999,6.01300066 223.139,5.88 C223.272001,5.74699933 223.377,5.58600094 223.454,5.397 C223.531,5.20799906 223.5695,4.99800115 223.5695,4.767 C223.5695,4.30499769 223.440001,3.94450129 223.181,3.6855 C222.921999,3.42649871 222.575502,3.297 222.1415,3.297 C221.910499,3.297 221.712751,3.33199965 221.54825,3.402 C221.383749,3.47200035 221.200001,3.57349934 220.997,3.7065 L220.535,3.4125 L220.7555,0.189 L224.105,0.189 L224.105,0.9345 L221.5115,0.9345 L221.333,2.919 C221.494001,2.83499958 221.654999,2.76850024 221.816,2.7195 C221.977001,2.67049975 222.158999,2.646 222.362,2.646 C222.649001,2.646 222.918499,2.68799958 223.1705,2.772 C223.422501,2.85600042 223.642999,2.98374914 223.832,3.15525 C224.021001,3.32675086 224.169749,3.54374869 224.27825,3.80625 C224.386751,4.06875131 224.441,4.38199818 224.441,4.746 C224.441,5.11000182 224.378001,5.4319986 224.252,5.712 C224.125999,5.9920014 223.958001,6.22824904 223.748,6.42075 C223.537999,6.61325096 223.298251,6.76024949 223.02875,6.86175 C222.759249,6.96325051 222.477501,7.014 222.1835,7.014 C221.917499,7.014 221.674251,6.98775026 221.45375,6.93525 C221.233249,6.88274974 221.033751,6.81450042 220.85525,6.7305 C220.676749,6.64649958 220.515751,6.55025054 220.37225,6.44175 C220.228749,6.33324946 220.101001,6.21950059 219.989,6.1005 L220.409,5.5335 Z M227.5295,7.014 C226.850497,7.014 226.322002,6.71300301 225.944,6.111 C225.565998,5.50899699 225.377,4.64450564 225.377,3.5175 C225.377,2.39049436 225.565998,1.53300294 225.944,0.945 C226.322002,0.35699706 226.850497,0.063 227.5295,0.063 C228.201503,0.063 228.726498,0.35699706 229.1045,0.945 C229.482502,1.53300294 229.6715,2.39049436 229.6715,3.5175 C229.6715,4.64450564 229.482502,5.50899699 229.1045,6.111 C228.726498,6.71300301 228.201503,7.014 227.5295,7.014 Z M227.5295,6.321 C227.725501,6.321 227.902249,6.26675054 228.05975,6.15825 C228.217251,6.04974946 228.353749,5.88175114 228.46925,5.65425 C228.584751,5.42674886 228.674,5.13625177 228.737,4.78275 C228.8,4.42924823 228.8315,4.00750245 228.8315,3.5175 C228.8315,3.02749755 228.8,2.60750175 228.737,2.2575 C228.674,1.90749825 228.584751,1.6222511 228.46925,1.40175 C228.353749,1.1812489 228.217251,1.01850052 228.05975,0.9135 C227.902249,0.808499475 227.725501,0.756 227.5295,0.756 C227.333499,0.756 227.155001,0.808499475 226.994,0.9135 C226.832999,1.01850052 226.694751,1.1812489 226.57925,1.40175 C226.463749,1.6222511 226.3745,1.90749825 226.3115,2.2575 C226.2485,2.60750175 226.217,3.02749755 226.217,3.5175 C226.217,4.4975049 226.337749,5.20974778 226.57925,5.65425 C226.820751,6.09875222 227.137498,6.321 227.5295,6.321 Z M231.0485,-5.68434189e-14 L231.92,-5.68434189e-14 L231.92,3.4545 L231.9515,3.4545 L234.818,-5.68434189e-14 L235.805,-5.68434189e-14 L233.6525,2.625 L236.141,6.888 L235.1645,6.888 L233.1065,3.3075 L231.92,4.704 L231.92,6.888 L231.0485,6.888 L231.0485,-5.68434189e-14 Z" id="450K" fill="#848484" fill-rule="nonzero"></path>
                <path d="M65.3675,6.174 L66.9005,6.174 L66.9005,1.239 L65.6825,1.239 L65.6825,0.6825 C65.9905015,0.62649972 66.2582489,0.558250402 66.48575,0.47775 C66.7132511,0.397249597 66.9179991,0.30100056 67.1,0.189 L67.7615,0.189 L67.7615,6.174 L69.1475,6.174 L69.1475,6.888 L65.3675,6.888 L65.3675,6.174 Z M70.409,5.5335 C70.605001,5.73650101 70.8377487,5.91499923 71.10725,6.069 C71.3767513,6.22300077 71.707498,6.3 72.0995,6.3 C72.302501,6.3 72.4932491,6.26325037 72.67175,6.18975 C72.8502509,6.11624963 73.0059993,6.01300066 73.139,5.88 C73.2720007,5.74699933 73.3769996,5.58600094 73.454,5.397 C73.5310004,5.20799906 73.5695,4.99800115 73.5695,4.767 C73.5695,4.30499769 73.4400013,3.94450129 73.181,3.6855 C72.9219987,3.42649871 72.5755022,3.297 72.1415,3.297 C71.9104988,3.297 71.7127508,3.33199965 71.54825,3.402 C71.3837492,3.47200035 71.200001,3.57349934 70.997,3.7065 L70.535,3.4125 L70.7555,0.189 L74.105,0.189 L74.105,0.9345 L71.5115,0.9345 L71.333,2.919 C71.4940008,2.83499958 71.6549992,2.76850024 71.816,2.7195 C71.9770008,2.67049975 72.158999,2.646 72.362,2.646 C72.6490014,2.646 72.9184987,2.68799958 73.1705,2.772 C73.4225013,2.85600042 73.6429991,2.98374914 73.832,3.15525 C74.0210009,3.32675086 74.1697495,3.54374869 74.27825,3.80625 C74.3867505,4.06875131 74.441,4.38199818 74.441,4.746 C74.441,5.11000182 74.3780006,5.4319986 74.252,5.712 C74.1259994,5.9920014 73.9580011,6.22824904 73.748,6.42075 C73.537999,6.61325096 73.2982513,6.76024949 73.02875,6.86175 C72.7592487,6.96325051 72.4775015,7.014 72.1835,7.014 C71.9174987,7.014 71.6742511,6.98775026 71.45375,6.93525 C71.2332489,6.88274974 71.0337509,6.81450042 70.85525,6.7305 C70.6767491,6.64649958 70.5157507,6.55025054 70.37225,6.44175 C70.2287493,6.33324946 70.1010006,6.21950059 69.989,6.1005 L70.409,5.5335 Z M77.5295,7.014 C76.8504966,7.014 76.3220019,6.71300301 75.944,6.111 C75.5659981,5.50899699 75.377,4.64450564 75.377,3.5175 C75.377,2.39049436 75.5659981,1.53300294 75.944,0.945 C76.3220019,0.35699706 76.8504966,0.063 77.5295,0.063 C78.2015034,0.063 78.7264981,0.35699706 79.1045,0.945 C79.4825019,1.53300294 79.6715,2.39049436 79.6715,3.5175 C79.6715,4.64450564 79.4825019,5.50899699 79.1045,6.111 C78.7264981,6.71300301 78.2015034,7.014 77.5295,7.014 Z M77.5295,6.321 C77.725501,6.321 77.9022492,6.26675054 78.05975,6.15825 C78.2172508,6.04974946 78.3537494,5.88175114 78.46925,5.65425 C78.5847506,5.42674886 78.6739997,5.13625177 78.737,4.78275 C78.8000003,4.42924823 78.8315,4.00750245 78.8315,3.5175 C78.8315,3.02749755 78.8000003,2.60750175 78.737,2.2575 C78.6739997,1.90749825 78.5847506,1.6222511 78.46925,1.40175 C78.3537494,1.1812489 78.2172508,1.01850052 78.05975,0.9135 C77.9022492,0.808499475 77.725501,0.756 77.5295,0.756 C77.333499,0.756 77.1550008,0.808499475 76.994,0.9135 C76.8329992,1.01850052 76.6947506,1.1812489 76.57925,1.40175 C76.4637494,1.6222511 76.3745003,1.90749825 76.3115,2.2575 C76.2484997,2.60750175 76.217,3.02749755 76.217,3.5175 C76.217,4.4975049 76.3377488,5.20974778 76.57925,5.65425 C76.8207512,6.09875222 77.137498,6.321 77.5295,6.321 Z M81.0485,-5.68434189e-14 L81.92,-5.68434189e-14 L81.92,3.4545 L81.9515,3.4545 L84.818,-5.68434189e-14 L85.805,-5.68434189e-14 L83.6525,2.625 L86.141,6.888 L85.1645,6.888 L83.1065,3.3075 L81.92,4.704 L81.92,6.888 L81.0485,6.888 L81.0485,-5.68434189e-14 Z" id="150K" fill="#848484" fill-rule="nonzero"></path>
                <text id="-" font-family="SourceSansPro-Regular, Source Sans Pro" font-size="9" font-weight="normal"></text>
                <rect id="Rectangle" fill="#5E5E96" x="1.538" y="18.888" width="17" height="22" rx="3"></rect>
                <path d="M91.3625,67.376 C91.6495014,67.376 91.8717492,67.4844989 92.02925,67.7015 C92.1867508,67.9185011 92.2655,68.222998 92.2655,68.615 C92.2655,69.1330026 92.1237514,69.5809981 91.84025,69.959 C91.5567486,70.3370019 91.1525026,70.6169991 90.6275,70.799 L90.365,70.1375 C90.7010017,70.0044993 90.9617491,69.8260011 91.14725,69.602 C91.3327509,69.3779989 91.4255,69.1330013 91.4255,68.867 L91.331,68.867 C91.127999,68.867 90.9477508,68.8022506 90.79025,68.67275 C90.6327492,68.5432494 90.554,68.3595012 90.554,68.1215 C90.554,67.8974989 90.6327492,67.7172507 90.79025,67.58075 C90.9477508,67.4442493 91.1384989,67.376 91.3625,67.376 Z M106.175,62.084 C106.875004,62.084 107.427998,62.3744971 107.834,62.9555 C108.240002,63.5365029 108.443,64.3904944 108.443,65.5175 C108.443,66.6515057 108.240002,67.517747 107.834,68.11625 C107.427998,68.714753 106.875004,69.014 106.175,69.014 C105.474997,69.014 104.922002,68.714753 104.516,68.11625 C104.109998,67.517747 103.907,66.6515057 103.907,65.5175 C103.907,64.3834943 104.109998,63.5277529 104.516,62.95025 C104.922002,62.3727471 105.474997,62.084 106.175,62.084 Z M14.192,62.021 L14.192,65.969 C14.192,66.3400019 14.2252497,66.6532487 14.29175,66.90875 C14.3582503,67.1642513 14.4527494,67.3689992 14.57525,67.523 C14.6977506,67.6770008 14.8429992,67.7872497 15.011,67.85375 C15.1790008,67.9202503 15.367999,67.9535 15.578,67.9535 C15.7880011,67.9535 15.9804991,67.9202503 16.1555,67.85375 C16.3305009,67.7872497 16.4809994,67.6770008 16.607,67.523 C16.7330006,67.3689992 16.8309997,67.1642513 16.901,66.90875 C16.9710004,66.6532487 17.006,66.3400019 17.006,65.969 L17.006,62.021 L18.1715,62.021 L18.1715,65.8745 C18.1715,66.4415028 18.1120006,66.922748 17.993,67.31825 C17.8739994,67.713752 17.7007511,68.0374987 17.47325,68.2895 C17.2457489,68.5415013 16.9727516,68.7252494 16.65425,68.84075 C16.3357484,68.9562506 15.977002,69.014 15.578,69.014 C15.178998,69.014 14.8202516,68.9562506 14.50175,68.84075 C14.1832484,68.7252494 13.9102511,68.5415013 13.68275,68.2895 C13.4552489,68.0374987 13.2802506,67.713752 13.15775,67.31825 C13.0352494,66.922748 12.974,66.4415028 12.974,65.8745 L12.974,62.021 L14.192,62.021 Z M80.939,67.376 C81.1630011,67.376 81.3484993,67.4529992 81.4955,67.607 C81.6425007,67.7610008 81.716,67.9569988 81.716,68.195 C81.716,68.4330012 81.6425007,68.6289992 81.4955,68.783 C81.3484993,68.9370008 81.1630011,69.014 80.939,69.014 C80.7149989,69.014 80.5277508,68.9370008 80.37725,68.783 C80.2267492,68.6289992 80.1515,68.4330012 80.1515,68.195 C80.1515,67.9569988 80.2267492,67.7610008 80.37725,67.607 C80.5277508,67.4529992 80.7149989,67.376 80.939,67.376 Z M5.2235,61.895 C5.6435021,61.895 6.01974834,61.9824991 6.35225,62.1575 C6.68475166,62.3325009 6.95949891,62.5354988 7.1765,62.7665 L6.494,63.5225 C6.31899912,63.3474991 6.131751,63.2092505 5.93225,63.10775 C5.732749,63.0062495 5.50000133,62.9555 5.234,62.9555 C4.94699856,62.9555 4.68625117,63.0132494 4.45175,63.12875 C4.21724883,63.2442506 4.01425086,63.4087489 3.84275,63.62225 C3.67124914,63.8357511 3.53825047,64.0964985 3.44375,64.4045 C3.34924953,64.7125015 3.302,65.0589981 3.302,65.444 C3.302,66.2280039 3.4717483,66.8422478 3.81125,67.28675 C4.1507517,67.7312522 4.61099709,67.9535 5.192,67.9535 C5.50000154,67.9535 5.76774886,67.8940006 5.99525,67.775 C6.22275114,67.6559994 6.43449902,67.4880011 6.6305,67.271 L7.313,68.0165 C7.0329986,68.3385016 6.71450178,68.5852491 6.3575,68.75675 C6.00049821,68.9282509 5.60500217,69.014 5.171,69.014 C4.72999779,69.014 4.32050189,68.9370008 3.9425,68.783 C3.56449811,68.6289992 3.2355014,68.4015015 2.9555,68.1005 C2.6754986,67.7994985 2.4550008,67.4285022 2.294,66.9875 C2.13299919,66.5464978 2.0525,66.0425028 2.0525,65.4755 C2.0525,64.9154972 2.13474918,64.4132522 2.29925,63.96875 C2.46375082,63.5242478 2.68949856,63.1480015 2.9765,62.84 C3.26350143,62.5319985 3.59949807,62.2975008 3.9845,62.1365 C4.36950192,61.9754992 4.78249779,61.895 5.2235,61.895 Z M21.8,61.895 C22.199002,61.895 22.5839982,61.9737492 22.955,62.13125 C23.3260019,62.2887508 23.6444987,62.5004987 23.9105,62.7665 L23.291,63.5435 C23.0669989,63.3614991 22.8360012,63.2180005 22.598,63.113 C22.3599988,63.0079995 22.0940015,62.9555 21.8,62.9555 C21.4709984,62.9555 21.208501,63.0272493 21.0125,63.17075 C20.816499,63.3142507 20.7185,63.5119987 20.7185,63.764 C20.7185,63.8970007 20.7482497,64.0107495 20.80775,64.10525 C20.8672503,64.1997505 20.9477495,64.2837496 21.04925,64.35725 C21.1507505,64.4307504 21.2679993,64.4972497 21.401,64.55675 L21.603125,64.6446875 L22.745,65.1185 C22.948001,65.2025004 23.1334992,65.3004994 23.3015,65.4125 C23.4695008,65.5245006 23.6147494,65.6539993 23.73725,65.801 C23.8597506,65.9480007 23.9559997,66.117749 24.026,66.31025 C24.0960004,66.502751 24.131,66.7249987 24.131,66.977 C24.131,67.2570014 24.0750006,67.5194988 23.963,67.7645 C23.8509994,68.0095012 23.6882511,68.2247491 23.47475,68.41025 C23.2612489,68.5957509 23.0022515,68.7427495 22.69775,68.85125 C22.3932485,68.9597505 22.0485019,69.014 21.6635,69.014 C21.2014977,69.014 20.7552522,68.9265009 20.32475,68.7515 C19.8942479,68.5764991 19.5145017,68.3280016 19.1855,68.006 L19.8995,67.1765 C20.1445012,67.4075012 20.4244984,67.5947493 20.7395,67.73825 C21.0545016,67.8817507 21.3694984,67.9535 21.6845,67.9535 C22.076502,67.9535 22.373999,67.8730008 22.577,67.712 C22.780001,67.5509992 22.8815,67.3375013 22.8815,67.0715 C22.8815,66.9314993 22.8552503,66.8125005 22.80275,66.7145 C22.7502497,66.6164995 22.6767505,66.5307504 22.58225,66.45725 C22.4877495,66.3837496 22.3757507,66.3155003 22.24625,66.2525 L22.1126666,66.1894999 L20.876,65.654 C20.7079992,65.5839996 20.5417508,65.4965005 20.37725,65.3915 C20.2127492,65.2864995 20.0640007,65.1605007 19.931,65.0135 C19.7979993,64.8664993 19.6912504,64.695001 19.61075,64.499 C19.5302496,64.302999 19.49,64.0790013 19.49,63.827 C19.49,63.5539986 19.5477494,63.3002512 19.66325,63.06575 C19.7787506,62.8312488 19.937999,62.6265009 20.141,62.4515 C20.344001,62.2764991 20.5872486,62.1400005 20.87075,62.042 C21.1542514,61.9439995 21.4639983,61.895 21.8,61.895 Z M34.8005,62.021 L34.8005,63.05 L31.8815,63.05 L31.8815,64.8035 L34.349,64.8035 L34.349,65.8325 L31.8815,65.8325 L31.8815,67.859 L34.9055,67.859 L34.9055,68.888 L30.6635,68.888 L30.6635,62.021 L34.8005,62.021 Z M70.4165,62.021 L72.653,68.888 L71.372,68.888 L70.8365,67.0295 L68.5265,67.0295 L67.991,68.888 L66.752,68.888 L68.9885,62.021 L70.4165,62.021 Z M74.738,62.021 L76.88,65.885 L77.5835,67.3445 L77.6255,67.3445 L77.5625001,66.5955005 C77.5508334,66.464834 77.5385834,66.3312507 77.52575,66.19475 C77.4872498,65.785248 77.468,65.3880019 77.468,65.003 L77.468,62.021 L78.6335,62.021 L78.6335,68.888 L77.384,68.888 L75.242,65.024 L74.5385,63.5645 L74.4965,63.5645 L74.5594999,64.3158329 C74.5711666,64.4449438 74.5834166,64.5759993 74.59625,64.709 C74.6347502,65.108002 74.654,65.4999981 74.654,65.885 L74.654,68.888 L73.4885,68.888 L73.4885,62.021 L74.738,62.021 Z M38.618,62.021 C38.9750018,62.021 39.3074985,62.0559996 39.6155,62.126 C39.9235015,62.1960004 40.1894989,62.3097492 40.4135,62.46725 C40.6375011,62.6247508 40.8142494,62.8329987 40.94375,63.092 C41.0732506,63.3510013 41.138,63.6729981 41.138,64.058 C41.138,64.5830026 41.0137512,65.0064984 40.76525,65.3285 C40.5167488,65.6505016 40.1860021,65.8814993 39.773,66.0215 L41.411,68.888 L40.046,68.888 L38.5655,66.2 L37.5155,66.2 L37.5155,68.888 L36.2975,68.888 L36.2975,62.021 L38.618,62.021 Z M29.534,62.021 L29.534,63.05 L27.5495,63.05 L27.5495,68.888 L26.3315,68.888 L26.3315,63.05 L24.347,63.05 L24.347,62.021 L29.534,62.021 Z M56.654,62.021 L56.654,63.05 L53.735,63.05 L53.735,64.8035 L56.2025,64.8035 L56.2025,65.8325 L53.735,65.8325 L53.735,67.859 L56.759,67.859 L56.759,68.888 L52.517,68.888 L52.517,62.021 L56.654,62.021 Z M9.6605,62.021 L9.6605,67.859 L12.5165,67.859 L12.5165,68.888 L8.4425,68.888 L8.4425,62.021 L9.6605,62.021 Z M102.389,62.21 L102.389,66.2315 L103.229,66.2315 L103.229,67.166 L102.389,67.166 L102.389,68.888 L101.255,68.888 L101.255,67.166 L98.3045,67.166 L98.3045,66.347 L100.9505,62.21 L102.389,62.21 Z M46.0535,62.021 L47.2925,65.402 L47.744,66.704 L47.786,66.704 L48.227,65.402 L49.445,62.021 L50.789,62.021 L50.789,68.888 L49.6445,68.888 L49.6445,65.7485 L49.6515,65.4078336 L49.66025,65.2235 C49.6707501,65.0344991 49.6829999,64.843751 49.697,64.65125 L49.720625,64.365125 L49.802,63.5645 L49.76,63.5645 L49.2035,65.129 L48.017,68.2475 L47.45,68.2475 L46.2635,65.129 L45.7175,63.5645 L45.6755,63.5645 L45.77525,64.65125 C45.7927501,64.843751 45.8067499,65.0344991 45.81725,65.2235 C45.8277501,65.4125009 45.833,65.5874992 45.833,65.7485 L45.833,68.888 L44.7095,68.888 L44.7095,62.021 L46.0535,62.021 Z M87.986,62.21 L87.986,67.901 L89.2985,67.901 L89.2985,68.888 L85.277,68.888 L85.277,67.901 L86.768,67.901 L86.768,63.512 L85.5395,63.512 L85.5395,62.756 C85.8755017,62.6929997 86.1642488,62.6177504 86.40575,62.53025 C86.6472512,62.4427496 86.872999,62.3360006 87.083,62.21 L87.986,62.21 Z M65.9165,62.021 L65.9165,68.888 L64.6985,68.888 L64.6985,62.021 L65.9165,62.021 Z M59.9885,62.021 C61.0385053,62.021 61.8574971,62.3044972 62.4455,62.8715 C63.0335029,63.4385028 63.3275,64.2889943 63.3275,65.423 C63.3275,65.9900028 63.2522508,66.4904978 63.10175,66.9245 C62.9512492,67.3585022 62.7342514,67.7207485 62.45075,68.01125 C62.1672486,68.3017515 61.824252,68.5204993 61.42175,68.6675 C61.019248,68.8145007 60.5625026,68.888 60.0515,68.888 L58.151,68.888 L58.151,62.021 L59.9885,62.021 Z M95.222,62.084 C95.5440016,62.084 95.8344987,62.1329995 96.0935,62.231 C96.3525013,62.3290005 96.5729991,62.4672491 96.755,62.64575 C96.9370009,62.8242509 97.0787495,63.0394987 97.18025,63.2915 C97.2817505,63.5435013 97.3325,63.8234985 97.3325,64.1315 C97.3325,64.4255015 97.2677507,64.7247485 97.13825,65.02925 C97.0087494,65.3337515 96.8337511,65.6417484 96.61325,65.95325 C96.3927489,66.2647516 96.1355015,66.5849984 95.8415,66.914 C95.5474985,67.2430016 95.2360016,67.5824983 94.907,67.9325 L95.474,67.88525 C95.677001,67.8677499 95.8589992,67.859 96.02,67.859 L97.658,67.859 L97.658,68.888 L93.143,68.888 L93.143,68.1845 L93.9273499,67.4159002 C94.0911495,67.2535005 94.2479493,67.0967008 94.39775,66.9455 C94.7722519,66.5674981 95.0907487,66.2175016 95.35325,65.8955 C95.6157513,65.5734984 95.8169993,65.2725014 95.957,64.9925 C96.0970007,64.7124986 96.167,64.4465013 96.167,64.1945 C96.167,63.8374982 96.0725009,63.555751 95.8835,63.34925 C95.6944991,63.142749 95.4215018,63.0395 95.0645,63.0395 C94.8054987,63.0395 94.5692511,63.1129993 94.35575,63.26 C94.1422489,63.4070007 93.9445009,63.581999 93.7625,63.785 L93.0905,63.113 C93.3985015,62.7839984 93.7152484,62.5302509 94.04075,62.35175 C94.3662516,62.1732491 94.7599977,62.084 95.222,62.084 Z M106.175,63.029 C106.013999,63.029 105.865251,63.0692496 105.72875,63.14975 C105.592249,63.2302504 105.475,63.368499 105.377,63.5645 C105.279,63.760501 105.202,64.0177484 105.146,64.33625 C105.09,64.6547516 105.062,65.0484977 105.062,65.5175 C105.062,65.9935024 105.09,66.3924984 105.146,66.7145 C105.202,67.0365016 105.279,67.298999 105.377,67.502 C105.475,67.705001 105.592249,67.8502496 105.72875,67.93775 C105.865251,68.0252504 106.013999,68.069 106.175,68.069 C106.336001,68.069 106.484749,68.0252504 106.62125,67.93775 C106.757751,67.8502496 106.875,67.705001 106.973,67.502 C107.071,67.298999 107.148,67.0365016 107.204,66.7145 C107.26,66.3924984 107.288,65.9935024 107.288,65.5175 C107.288,65.0484977 107.26,64.6547516 107.204,64.33625 C107.148,64.0177484 107.071,63.760501 106.973,63.5645 C106.875,63.368499 106.757751,63.2302504 106.62125,63.14975 C106.484749,63.0692496 106.336001,63.029 106.175,63.029 Z M59.9045,63.008 L59.369,63.008 L59.369,67.901 L59.9045,67.901 C60.6045035,67.901 61.1417481,67.699752 61.51625,67.29725 C61.8907519,66.894748 62.078,66.2700042 62.078,65.423 C62.078,64.5829958 61.8890019,63.9705019 61.511,63.5855 C61.1329981,63.2004981 60.5975035,63.008 59.9045,63.008 Z M101.3075,63.3335 L101.2655,63.3335 C101.1815,63.5085009 101.094,63.6799992 101.003,63.848 L100.7195,64.373 L99.5015,66.2315 L101.255,66.2315 L101.255,64.7195 C101.255,64.5724993 101.257953,64.4058129 101.263859,64.2194379 L101.287812,63.6537499 C101.293937,63.5382502 101.3005,63.4315005 101.3075,63.3335 Z M69.7025,62.966 L69.6605,62.966 L69.3665,64.11575 C69.2684995,64.4972519 69.1635006,64.8699982 69.0515,65.234 L68.81,66.074 L70.5635,66.074 L70.322,65.234 C70.2099994,64.8699982 70.1032505,64.4955019 70.00175,64.1105 L69.7025,62.966 Z M80.939,63.785 C81.1630011,63.785 81.3484993,63.8619992 81.4955,64.016 C81.6425007,64.1700008 81.716,64.3659988 81.716,64.604 C81.716,64.8420012 81.6425007,65.0379992 81.4955,65.192 C81.3484993,65.3460008 81.1630011,65.423 80.939,65.423 C80.7149989,65.423 80.5277508,65.3460008 80.37725,65.192 C80.2267492,65.0379992 80.1515,64.8420012 80.1515,64.604 C80.1515,64.3659988 80.2267492,64.1700008 80.37725,64.016 C80.5277508,63.8619992 80.7149989,63.785 80.939,63.785 Z M38.492,62.9975 L37.5155,62.9975 L37.5155,65.234 L38.492,65.234 C38.9610023,65.234 39.3197488,65.136001 39.56825,64.94 C39.8167512,64.743999 39.941,64.450002 39.941,64.058 C39.941,63.658998 39.8167512,63.3825008 39.56825,63.2285 C39.3197488,63.0744992 38.9610023,62.9975 38.492,62.9975 Z" id="Combined-Shape" fill="#5E5E96" fill-rule="nonzero"></path>
                <g id="Group-19" transform="translate(1.538000, 22.888000)">
                    <line x1="4.853025" y1="38.039775" x2="4.853025" y2="21.960525" id="Stroke-13" stroke="#636363" stroke-width="1.5" stroke-linecap="round"></line>
                    <path d="M4.853025,22.26195 C4.069275,23.0457 2.519775,23.4192 1.444275,23.44995 C2.888025,22.3752 4.147275,20.9787 4.853025,19.2897 C5.528775,20.9787 6.864525,22.3137 8.261775,23.44995 C7.110525,23.3577 5.712525,23.07645 4.853025,22.26195" id="Fill-15" fill="#636363"></path>
                    <path d="M5.082975,7.86331836 C3.677475,7.86855 2.569725,6.7473 2.57421134,5.32305 C2.577975,4.01055 3.723975,2.8923 5.069475,2.88627592 C6.425475,2.8803 7.545225,3.9963 7.559475,5.3673 C7.573725,6.70605 6.429975,7.8588 5.082975,7.86331836 M9.199725,3.1413 C8.343975,1.52655 6.909975,0.7548 5.430225,0.658799799 C2.519475,0.65805 0.402975,2.75655 0.357975,5.34405 C0.331725,6.8388 0.927225,8.07105 1.896225,9.1608 C2.938725,10.3338 4.038975,11.46255 4.680975,12.9348 C4.749225,13.09155 4.953975,13.29705 5.084475,13.2888 C5.222475,13.2813 5.372475,13.06155 5.472225,12.90555 C5.931975,12.19155 6.327975,11.43105 6.836475,10.7538 C7.494225,9.8793 8.312475,9.1203 8.924475,8.2188 C10.017225,6.61005 10.111725,4.86105 9.199725,3.1413" id="Fill-17" fill="#FFFFFF"></path>
                </g>
            </g>
        </g>
    </g>
</svg>