<?xml version="1.0" encoding="UTF-8"?>
<svg width="311px" height="70px" viewBox="0 0 311 70" version="1.1" xmlns="http://www.w3.org/2000/svg" xmlns:xlink="http://www.w3.org/1999/xlink">
    <!-- Generator: Sketch 59.1 (86144) - https://sketch.com -->
    <title>Rent</title>
    <desc>Created with Sketch.</desc>
    <g id="Export-Outlined-SVG" stroke="none" stroke-width="1" fill="none" fill-rule="evenodd">
        <g id="8" transform="translate(-842.000000, -429.000000)">
            <g id="Rent" transform="translate(842.546000, 429.146000)">
                <polygon id="Fill-1" fill="#E0E0E0" points="2.454 35.854 299.454 35.854 299.454 25.854 2.454 25.854"></polygon>
                <path d="M2.329,42.854 L2.329,16.854 C2.329,16.6468932 2.16110678,16.479 1.954,16.479 C1.74689322,16.479 1.579,16.6468932 1.579,16.854 L1.579,42.854 C1.579,43.0611068 1.74689322,43.229 1.954,43.229 C2.16110678,43.229 2.329,43.0611068 2.329,42.854 Z" id="Stroke-2" fill="#D1D1D1" fill-rule="nonzero"></path>
                <path d="M95.1855,7.657 C95.4095011,7.657 95.5862494,7.74799909 95.71575,7.93 C95.8452506,8.11200091 95.91,8.36049842 95.91,8.6755 C95.91,9.13050227 95.7875012,9.52599832 95.5425,9.862 C95.2974988,10.1980017 94.9615021,10.4569991 94.5345,10.639 L94.3245,10.135 C94.6185015,10.0019993 94.8494992,9.82700108 95.0175,9.61 C95.1855008,9.39299891 95.2695,9.14100143 95.2695,8.854 L95.2088334,8.86333334 C95.1956112,8.86411111 95.1808334,8.8645 95.1645,8.8645 C94.9964992,8.8645 94.8512506,8.81375051 94.72875,8.71225 C94.6062494,8.61074949 94.545,8.46200098 94.545,8.266 C94.545,8.07699905 94.6079994,7.92825054 94.734,7.81975 C94.8600006,7.71124946 95.0104991,7.657 95.1855,7.657 Z M293.1855,7.657 C293.409501,7.657 293.586249,7.74799909 293.71575,7.93 C293.845251,8.11200091 293.91,8.36049842 293.91,8.6755 C293.91,9.13050227 293.787501,9.52599832 293.5425,9.862 C293.297499,10.1980017 292.961502,10.4569991 292.5345,10.639 L292.3245,10.135 C292.618501,10.0019993 292.849499,9.82700108 293.0175,9.61 C293.185501,9.39299891 293.2695,9.14100143 293.2695,8.854 L293.208833,8.86333334 C293.195611,8.86411111 293.180833,8.8645 293.1645,8.8645 C292.996499,8.8645 292.851251,8.81375051 292.72875,8.71225 C292.606249,8.61074949 292.545,8.46200098 292.545,8.266 C292.545,8.07699905 292.607999,7.92825054 292.734,7.81975 C292.860001,7.71124946 293.010499,7.657 293.1855,7.657 Z M284.415,1 L284.415,2.0395 C284.751002,2.07450017 285.036249,2.16549926 285.27075,2.3125 C285.505251,2.45950073 285.716999,2.63449898 285.906,2.8375 L285.444,3.352 C285.247999,3.16299905 285.057251,3.01600052 284.87175,2.911 C284.686249,2.80599947 284.450001,2.7535 284.163,2.7535 C283.840998,2.7535 283.585501,2.84449909 283.3965,3.0265 C283.207499,3.20850091 283.113,3.45349846 283.113,3.7615 C283.113,4.01350126 283.184749,4.21999919 283.32825,4.381 C283.471751,4.5420008 283.651999,4.68374939 283.869,4.80625 C284.086001,4.92875061 284.322249,5.04774942 284.57775,5.16325 C284.833251,5.27875058 285.069499,5.41874918 285.2865,5.58325 C285.503501,5.74775082 285.683749,5.95074879 285.82725,6.19225 C285.970751,6.43375121 286.0425,6.74349811 286.0425,7.1215 C286.0425,7.62550252 285.897251,8.03849839 285.60675,8.3605 C285.316249,8.68250161 284.919003,8.87849965 284.415,8.9485 L284.415,10.009 L283.785,10.009 L283.785,8.9695 C283.448998,8.93449982 283.123502,8.84175075 282.8085,8.69125 C282.493498,8.54074925 282.224001,8.36400101 282,8.161 L282.399,7.5625 C282.623001,7.75850098 282.869749,7.92474932 283.13925,8.06125 C283.408751,8.19775068 283.704498,8.266 284.0265,8.266 C284.418502,8.266 284.710749,8.16800098 284.90325,7.972 C285.095751,7.77599902 285.192,7.51350164 285.192,7.1845 C285.192,6.9044986 285.120251,6.67175093 284.97675,6.48625 C284.833249,6.30074907 284.653001,6.13975068 284.436,6.00325 C284.218999,5.86674932 283.982751,5.73900059 283.72725,5.62 C283.471749,5.5009994 283.235501,5.36450077 283.0185,5.2105 C282.801499,5.05649923 282.621251,4.8692511 282.47775,4.64875 C282.334249,4.4282489 282.2625,4.14650171 282.2625,3.8035 C282.2625,3.33449765 282.400749,2.94425156 282.67725,2.63275 C282.953751,2.32124844 283.322998,2.12700038 283.785,2.05 L283.785,1 L284.415,1 Z M86.415,1 L86.415,2.0395 C86.7510017,2.07450017 87.0362488,2.16549926 87.27075,2.3125 C87.5052512,2.45950073 87.7169991,2.63449898 87.906,2.8375 L87.444,3.352 C87.247999,3.16299905 87.0572509,3.01600052 86.87175,2.911 C86.6862491,2.80599947 86.4500014,2.7535 86.163,2.7535 C85.8409984,2.7535 85.5855009,2.84449909 85.3965,3.0265 C85.2074991,3.20850091 85.113,3.45349846 85.113,3.7615 C85.113,4.01350126 85.1847493,4.21999919 85.32825,4.381 C85.4717507,4.5420008 85.6519989,4.68374939 85.869,4.80625 C86.0860011,4.92875061 86.3222487,5.04774942 86.57775,5.16325 C86.8332513,5.27875058 87.0694989,5.41874918 87.2865,5.58325 C87.5035011,5.74775082 87.6837493,5.95074879 87.82725,6.19225 C87.9707507,6.43375121 88.0425,6.74349811 88.0425,7.1215 C88.0425,7.62550252 87.8972515,8.03849839 87.60675,8.3605 C87.3162485,8.68250161 86.9190025,8.87849965 86.415,8.9485 L86.415,10.009 L85.785,10.009 L85.785,8.9695 C85.4489983,8.93449982 85.1235016,8.84175075 84.8085,8.69125 C84.4934984,8.54074925 84.2240011,8.36400101 84,8.161 L84.399,7.5625 C84.6230011,7.75850098 84.8697487,7.92474932 85.13925,8.06125 C85.4087513,8.19775068 85.7044984,8.266 86.0265,8.266 C86.418502,8.266 86.710749,8.16800098 86.90325,7.972 C87.095751,7.77599902 87.192,7.51350164 87.192,7.1845 C87.192,6.9044986 87.1202507,6.67175093 86.97675,6.48625 C86.8332493,6.30074907 86.6530011,6.13975068 86.436,6.00325 C86.2189989,5.86674932 85.9827513,5.73900059 85.72725,5.62 C85.4717487,5.5009994 85.2355011,5.36450077 85.0185,5.2105 C84.8014989,5.05649923 84.6212507,4.8692511 84.47775,4.64875 C84.3342493,4.4282489 84.2625,4.14650171 84.2625,3.8035 C84.2625,3.33449765 84.4007486,2.94425156 84.67725,2.63275 C84.9537514,2.32124844 85.3229977,2.12700038 85.785,2.05 L85.785,1 L86.415,1 Z M2.415,1 L2.415,2.0395 C2.75100168,2.07450017 3.03624883,2.16549926 3.27075,2.3125 C3.50525117,2.45950073 3.71699905,2.63449898 3.906,2.8375 L3.444,3.352 C3.24799902,3.16299905 3.05725093,3.01600052 2.87175,2.911 C2.68624907,2.80599947 2.45000143,2.7535 2.163,2.7535 C1.84099839,2.7535 1.58550094,2.84449909 1.3965,3.0265 C1.20749905,3.20850091 1.113,3.45349846 1.113,3.7615 C1.113,4.01350126 1.18474928,4.21999919 1.32825,4.381 C1.47175072,4.5420008 1.65199891,4.68374939 1.869,4.80625 C2.08600108,4.92875061 2.32224872,5.04774942 2.57775,5.16325 C2.83325128,5.27875058 3.06949891,5.41874918 3.2865,5.58325 C3.50350108,5.74775082 3.68374928,5.95074879 3.82725,6.19225 C3.97075072,6.43375121 4.0425,6.74349811 4.0425,7.1215 C4.0425,7.62550252 3.89725145,8.03849839 3.60675,8.3605 C3.31624855,8.68250161 2.91900252,8.87849965 2.415,8.9485 L2.415,10.009 L1.785,10.009 L1.785,8.9695 C1.44899832,8.93449982 1.12350157,8.84175075 0.8085,8.69125 C0.493498425,8.54074925 0.22400112,8.36400101 -7.38964445e-13,8.161 L0.399,7.5625 C0.62300112,7.75850098 0.869748652,7.92474932 1.13925,8.06125 C1.40875135,8.19775068 1.70449839,8.266 2.0265,8.266 C2.41850196,8.266 2.71074904,8.16800098 2.90325,7.972 C3.09575096,7.77599902 3.192,7.51350164 3.192,7.1845 C3.192,6.9044986 3.12025072,6.67175093 2.97675,6.48625 C2.83324928,6.30074907 2.65300108,6.13975068 2.436,6.00325 C2.21899891,5.86674932 1.98275128,5.73900059 1.72725,5.62 C1.47174872,5.5009994 1.23550108,5.36450077 1.0185,5.2105 C0.801498915,5.05649923 0.621250717,4.8692511 0.47775,4.64875 C0.334249282,4.4282489 0.2625,4.14650171 0.2625,3.8035 C0.2625,3.33449765 0.400748617,2.94425156 0.67725,2.63275 C0.953751382,2.32124844 1.32299769,2.12700038 1.785,2.05 L1.785,1 L2.415,1 Z M193.1855,6.657 C193.409501,6.657 193.586249,6.74799909 193.71575,6.93 C193.845251,7.11200091 193.91,7.36049842 193.91,7.6755 C193.91,8.13050227 193.787501,8.52599832 193.5425,8.862 C193.297499,9.19800168 192.961502,9.45699909 192.5345,9.639 L192.3245,9.135 C192.618501,9.00199933 192.849499,8.82700108 193.0175,8.61 C193.185501,8.39299891 193.2695,8.14100143 193.2695,7.854 L193.208833,7.86333334 C193.195611,7.86411111 193.180833,7.8645 193.1645,7.8645 C192.996499,7.8645 192.851251,7.81375051 192.72875,7.71225 C192.606249,7.61074949 192.545,7.46200098 192.545,7.266 C192.545,7.07699905 192.607999,6.92825054 192.734,6.81975 C192.860001,6.71124946 193.010499,6.657 193.1855,6.657 Z M184.415,-2.84217094e-14 L184.415,1.0395 C184.751002,1.07450017 185.036249,1.16549926 185.27075,1.3125 C185.505251,1.45950073 185.716999,1.63449898 185.906,1.8375 L185.444,2.352 C185.247999,2.16299905 185.057251,2.01600052 184.87175,1.911 C184.686249,1.80599947 184.450001,1.7535 184.163,1.7535 C183.840998,1.7535 183.585501,1.84449909 183.3965,2.0265 C183.207499,2.20850091 183.113,2.45349846 183.113,2.7615 C183.113,3.01350126 183.184749,3.21999919 183.32825,3.381 C183.471751,3.5420008 183.651999,3.68374939 183.869,3.80625 C184.086001,3.92875061 184.322249,4.04774942 184.57775,4.16325 C184.833251,4.27875058 185.069499,4.41874918 185.2865,4.58325 C185.503501,4.74775082 185.683749,4.95074879 185.82725,5.19225 C185.970751,5.43375121 186.0425,5.74349811 186.0425,6.1215 C186.0425,6.62550252 185.897251,7.03849839 185.60675,7.3605 C185.316249,7.68250161 184.919003,7.87849965 184.415,7.9485 L184.415,9.009 L183.785,9.009 L183.785,7.9695 C183.448998,7.93449982 183.123502,7.84175075 182.8085,7.69125 C182.493498,7.54074925 182.224001,7.36400101 182,7.161 L182.399,6.5625 C182.623001,6.75850098 182.869749,6.92474932 183.13925,7.06125 C183.408751,7.19775068 183.704498,7.266 184.0265,7.266 C184.418502,7.266 184.710749,7.16800098 184.90325,6.972 C185.095751,6.77599902 185.192,6.51350164 185.192,6.1845 C185.192,5.9044986 185.120251,5.67175093 184.97675,5.48625 C184.833249,5.30074907 184.653001,5.13975068 184.436,5.00325 C184.218999,4.86674932 183.982751,4.73900059 183.72725,4.62 C183.471749,4.5009994 183.235501,4.36450077 183.0185,4.2105 C182.801499,4.05649923 182.621251,3.8692511 182.47775,3.64875 C182.334249,3.4282489 182.2625,3.14650171 182.2625,2.8035 C182.2625,2.33449765 182.400749,1.94425156 182.67725,1.63275 C182.953751,1.32124844 183.322998,1.12700038 183.785,1.05 L183.785,-2.84217094e-14 L184.415,-2.84217094e-14 Z M289.089,2.029 C289.383001,2.029 289.652499,2.06749961 289.8975,2.1445 C290.142501,2.22150038 290.354249,2.33174928 290.53275,2.47525 C290.711251,2.61875072 290.8495,2.79549895 290.9475,3.0055 C291.0455,3.21550105 291.0945,3.45699863 291.0945,3.73 C291.0945,4.13600203 290.982501,4.4684987 290.7585,4.7275 C290.534499,4.98650129 290.240502,5.1859993 289.8765,5.326 L289.8765,5.368 C290.079501,5.41700024 290.268499,5.48874953 290.4435,5.58325 C290.618501,5.67775047 290.772499,5.79674928 290.9055,5.94025 C291.038501,6.08375072 291.14175,6.24999905 291.21525,6.439 C291.28875,6.62800094 291.3255,6.83799884 291.3255,7.069 C291.3255,7.36300147 291.267751,7.62899881 291.15225,7.867 C291.036749,8.10500119 290.879251,8.30624918 290.67975,8.47075 C290.480249,8.63525082 290.247501,8.76124956 289.9815,8.84875 C289.715499,8.93625044 289.428502,8.98 289.1205,8.98 C288.854499,8.98 288.611251,8.95375026 288.39075,8.90125 C288.170249,8.84874974 287.969001,8.77875044 287.787,8.69125 C287.604999,8.60374956 287.442251,8.50400056 287.29875,8.392 C287.155249,8.27999944 287.027501,8.16100063 286.9155,8.035 L287.3565,7.468 C287.559501,7.67800105 287.795749,7.86349919 288.06525,8.0245 C288.334751,8.1855008 288.668998,8.266 289.068,8.266 C289.474002,8.266 289.806499,8.1557511 290.0655,7.93525 C290.324501,7.7147489 290.454,7.41550189 290.454,7.0375 C290.454,6.84149902 290.41725,6.66125082 290.34375,6.49675 C290.27025,6.33224918 290.149501,6.19050059 289.9815,6.0715 C289.813499,5.9524994 289.593001,5.86150031 289.32,5.7985 C289.046999,5.73549968 288.711002,5.704 288.312,5.704 L288.312,5.0425 C288.669002,5.0425 288.968249,5.01100031 289.20975,4.948 C289.451251,4.88499968 289.647249,4.79750056 289.79775,4.6855 C289.948251,4.57349944 290.055,4.44050077 290.118,4.2865 C290.181,4.13249923 290.2125,3.96800087 290.2125,3.793 C290.2125,3.46399835 290.109251,3.20500094 289.90275,3.016 C289.696249,2.82699905 289.414502,2.7325 289.0575,2.7325 C288.777499,2.7325 288.520251,2.79549937 288.28575,2.9215 C288.051249,3.04750063 287.832501,3.21199898 287.6295,3.415 L287.1675,2.869 C287.426501,2.62399877 287.711748,2.42275079 288.02325,2.26525 C288.334752,2.10774921 288.689998,2.029 289.089,2.029 Z M109.407,2.029 C110.079003,2.029 110.603998,2.32299706 110.982,2.911 C111.360002,3.49900294 111.549,4.35649436 111.549,5.4835 C111.549,6.61050563 111.360002,7.47499699 110.982,8.077 C110.603998,8.67900301 110.079003,8.98 109.407,8.98 C108.727997,8.98 108.199502,8.67900301 107.8215,8.077 C107.443498,7.47499699 107.2545,6.61050563 107.2545,5.4835 C107.2545,4.35649436 107.443498,3.49900294 107.8215,2.911 C108.199502,2.32299706 108.727997,2.029 109.407,2.029 Z M99.03,2.029 C99.7020034,2.029 100.226998,2.32299706 100.605,2.911 C100.983002,3.49900294 101.172,4.35649436 101.172,5.4835 C101.172,6.61050563 100.983002,7.47499699 100.605,8.077 C100.226998,8.67900301 99.7020034,8.98 99.03,8.98 C98.3509966,8.98 97.8225019,8.67900301 97.4445,8.077 C97.0664981,7.47499699 96.8775,6.61050563 96.8775,5.4835 C96.8775,4.35649436 97.0664981,3.49900294 97.4445,2.911 C97.8225019,2.32299706 98.3509966,2.029 99.03,2.029 Z M297.03,2.029 C297.702003,2.029 298.226998,2.32299706 298.605,2.911 C298.983002,3.49900294 299.172,4.35649436 299.172,5.4835 C299.172,6.61050563 298.983002,7.47499699 298.605,8.077 C298.226998,8.67900301 297.702003,8.98 297.03,8.98 C296.350997,8.98 295.822502,8.67900301 295.4445,8.077 C295.066498,7.47499699 294.8775,6.61050563 294.8775,5.4835 C294.8775,4.35649436 295.066498,3.49900294 295.4445,2.911 C295.822502,2.32299706 296.350997,2.029 297.03,2.029 Z M104.2185,2.029 C104.890503,2.029 105.415498,2.32299706 105.7935,2.911 C106.171502,3.49900294 106.3605,4.35649436 106.3605,5.4835 C106.3605,6.61050563 106.171502,7.47499699 105.7935,8.077 C105.415498,8.67900301 104.890503,8.98 104.2185,8.98 C103.539497,8.98 103.011002,8.67900301 102.633,8.077 C102.254998,7.47499699 102.066,6.61050563 102.066,5.4835 C102.066,4.35649436 102.254998,3.49900294 102.633,2.911 C103.011002,2.32299706 103.539497,2.029 104.2185,2.029 Z M302.2185,2.029 C302.890503,2.029 303.415498,2.32299706 303.7935,2.911 C304.171502,3.49900294 304.3605,4.35649436 304.3605,5.4835 C304.3605,6.61050563 304.171502,7.47499699 303.7935,8.077 C303.415498,8.67900301 302.890503,8.98 302.2185,8.98 C301.539497,8.98 301.011002,8.67900301 300.633,8.077 C300.254998,7.47499699 300.066,6.61050563 300.066,5.4835 C300.066,4.35649436 300.254998,3.49900294 300.633,2.911 C301.011002,2.32299706 301.539497,2.029 302.2185,2.029 Z M7.257,2.029 C7.92900336,2.029 8.45399811,2.32299706 8.832,2.911 C9.21000189,3.49900294 9.399,4.35649436 9.399,5.4835 C9.399,6.61050563 9.21000189,7.47499699 8.832,8.077 C8.45399811,8.67900301 7.92900336,8.98 7.257,8.98 C6.57799661,8.98 6.04950189,8.67900301 5.6715,8.077 C5.29349811,7.47499699 5.1045,6.61050563 5.1045,5.4835 C5.1045,4.35649436 5.29349811,3.49900294 5.6715,2.911 C6.04950189,2.32299706 6.57799661,2.029 7.257,2.029 Z M307.407,2.029 C308.079003,2.029 308.603998,2.32299706 308.982,2.911 C309.360002,3.49900294 309.549,4.35649436 309.549,5.4835 C309.549,6.61050563 309.360002,7.47499699 308.982,8.077 C308.603998,8.67900301 308.079003,8.98 307.407,8.98 C306.727997,8.98 306.199502,8.67900301 305.8215,8.077 C305.443498,7.47499699 305.2545,6.61050563 305.2545,5.4835 C305.2545,4.35649436 305.443498,3.49900294 305.8215,2.911 C306.199502,2.32299706 306.727997,2.029 307.407,2.029 Z M91.866,2.155 L91.866,8.14 L93.252,8.14 L93.252,8.854 L89.472,8.854 L89.472,8.14 L91.005,8.14 L91.005,3.205 L89.787,3.205 L89.787,2.6485 C90.0950015,2.59249972 90.3627489,2.5242504 90.59025,2.44375 C90.8177511,2.3632496 91.0224991,2.26700056 91.2045,2.155 L91.866,2.155 Z M109.407,2.722 C109.210999,2.722 109.032501,2.77449947 108.8715,2.8795 C108.710499,2.98450052 108.572251,3.1472489 108.45675,3.36775 C108.341249,3.5882511 108.252,3.87349825 108.189,4.2235 C108.126,4.57350175 108.0945,4.99349755 108.0945,5.4835 C108.0945,6.4635049 108.215249,7.17574778 108.45675,7.62025 C108.698251,8.06475222 109.014998,8.287 109.407,8.287 C109.603001,8.287 109.779749,8.23275054 109.93725,8.12425 C110.094751,8.01574946 110.231249,7.84775114 110.34675,7.62025 C110.462251,7.39274886 110.5515,7.10225177 110.6145,6.74875 C110.6775,6.39524823 110.709,5.97350245 110.709,5.4835 C110.709,4.99349755 110.6775,4.57350175 110.6145,4.2235 C110.5515,3.87349825 110.462251,3.5882511 110.34675,3.36775 C110.231249,3.1472489 110.094751,2.98450052 109.93725,2.8795 C109.779749,2.77449947 109.603001,2.722 109.407,2.722 Z M104.2185,2.722 C104.022499,2.722 103.844001,2.77449947 103.683,2.8795 C103.521999,2.98450052 103.383751,3.1472489 103.26825,3.36775 C103.152749,3.5882511 103.0635,3.87349825 103.0005,4.2235 C102.9375,4.57350175 102.906,4.99349755 102.906,5.4835 C102.906,6.4635049 103.026749,7.17574778 103.26825,7.62025 C103.509751,8.06475222 103.826498,8.287 104.2185,8.287 C104.414501,8.287 104.591249,8.23275054 104.74875,8.12425 C104.906251,8.01574946 105.042749,7.84775114 105.15825,7.62025 C105.273751,7.39274886 105.363,7.10225177 105.426,6.74875 C105.489,6.39524823 105.5205,5.97350245 105.5205,5.4835 C105.5205,4.99349755 105.489,4.57350175 105.426,4.2235 C105.363,3.87349825 105.273751,3.5882511 105.15825,3.36775 C105.042749,3.1472489 104.906251,2.98450052 104.74875,2.8795 C104.591249,2.77449947 104.414501,2.722 104.2185,2.722 Z M99.03,2.722 C98.833999,2.722 98.6555008,2.77449947 98.4945,2.8795 C98.3334992,2.98450052 98.1952506,3.1472489 98.07975,3.36775 C97.9642494,3.5882511 97.8750003,3.87349825 97.812,4.2235 C97.7489997,4.57350175 97.7175,4.99349755 97.7175,5.4835 C97.7175,6.4635049 97.8382488,7.17574778 98.07975,7.62025 C98.3212512,8.06475222 98.637998,8.287 99.03,8.287 C99.226001,8.287 99.4027492,8.23275054 99.56025,8.12425 C99.7177508,8.01574946 99.8542494,7.84775114 99.96975,7.62025 C100.085251,7.39274886 100.1745,7.10225177 100.2375,6.74875 C100.3005,6.39524823 100.332,5.97350245 100.332,5.4835 C100.332,4.99349755 100.3005,4.57350175 100.2375,4.2235 C100.1745,3.87349825 100.085251,3.5882511 99.96975,3.36775 C99.8542494,3.1472489 99.7177508,2.98450052 99.56025,2.8795 C99.4027492,2.77449947 99.226001,2.722 99.03,2.722 Z M307.407,2.722 C307.210999,2.722 307.032501,2.77449947 306.8715,2.8795 C306.710499,2.98450052 306.572251,3.1472489 306.45675,3.36775 C306.341249,3.5882511 306.252,3.87349825 306.189,4.2235 C306.126,4.57350175 306.0945,4.99349755 306.0945,5.4835 C306.0945,6.4635049 306.215249,7.17574778 306.45675,7.62025 C306.698251,8.06475222 307.014998,8.287 307.407,8.287 C307.603001,8.287 307.779749,8.23275054 307.93725,8.12425 C308.094751,8.01574946 308.231249,7.84775114 308.34675,7.62025 C308.462251,7.39274886 308.5515,7.10225177 308.6145,6.74875 C308.6775,6.39524823 308.709,5.97350245 308.709,5.4835 C308.709,4.99349755 308.6775,4.57350175 308.6145,4.2235 C308.5515,3.87349825 308.462251,3.5882511 308.34675,3.36775 C308.231249,3.1472489 308.094751,2.98450052 307.93725,2.8795 C307.779749,2.77449947 307.603001,2.722 307.407,2.722 Z M302.2185,2.722 C302.022499,2.722 301.844001,2.77449947 301.683,2.8795 C301.521999,2.98450052 301.383751,3.1472489 301.26825,3.36775 C301.152749,3.5882511 301.0635,3.87349825 301.0005,4.2235 C300.9375,4.57350175 300.906,4.99349755 300.906,5.4835 C300.906,6.4635049 301.026749,7.17574778 301.26825,7.62025 C301.509751,8.06475222 301.826498,8.287 302.2185,8.287 C302.414501,8.287 302.591249,8.23275054 302.74875,8.12425 C302.906251,8.01574946 303.042749,7.84775114 303.15825,7.62025 C303.273751,7.39274886 303.363,7.10225177 303.426,6.74875 C303.489,6.39524823 303.5205,5.97350245 303.5205,5.4835 C303.5205,4.99349755 303.489,4.57350175 303.426,4.2235 C303.363,3.87349825 303.273751,3.5882511 303.15825,3.36775 C303.042749,3.1472489 302.906251,2.98450052 302.74875,2.8795 C302.591249,2.77449947 302.414501,2.722 302.2185,2.722 Z M297.03,2.722 C296.833999,2.722 296.655501,2.77449947 296.4945,2.8795 C296.333499,2.98450052 296.195251,3.1472489 296.07975,3.36775 C295.964249,3.5882511 295.875,3.87349825 295.812,4.2235 C295.749,4.57350175 295.7175,4.99349755 295.7175,5.4835 C295.7175,6.4635049 295.838249,7.17574778 296.07975,7.62025 C296.321251,8.06475222 296.637998,8.287 297.03,8.287 C297.226001,8.287 297.402749,8.23275054 297.56025,8.12425 C297.717751,8.01574946 297.854249,7.84775114 297.96975,7.62025 C298.085251,7.39274886 298.1745,7.10225177 298.2375,6.74875 C298.3005,6.39524823 298.332,5.97350245 298.332,5.4835 C298.332,4.99349755 298.3005,4.57350175 298.2375,4.2235 C298.1745,3.87349825 298.085251,3.5882511 297.96975,3.36775 C297.854249,3.1472489 297.717751,2.98450052 297.56025,2.8795 C297.402749,2.77449947 297.226001,2.722 297.03,2.722 Z M7.257,2.722 C7.06099902,2.722 6.88250081,2.77449947 6.7215,2.8795 C6.5604992,2.98450052 6.42225058,3.1472489 6.30675,3.36775 C6.19124942,3.5882511 6.10200032,3.87349825 6.039,4.2235 C5.97599969,4.57350175 5.9445,4.99349755 5.9445,5.4835 C5.9445,6.4635049 6.06524879,7.17574778 6.30675,7.62025 C6.54825121,8.06475222 6.86499804,8.287 7.257,8.287 C7.45300098,8.287 7.62974921,8.23275054 7.78725,8.12425 C7.94475079,8.01574946 8.08124942,7.84775114 8.19675,7.62025 C8.31225058,7.39274886 8.40149969,7.10225177 8.4645,6.74875 C8.52750032,6.39524823 8.559,5.97350245 8.559,5.4835 C8.559,4.99349755 8.52750032,4.57350175 8.4645,4.2235 C8.40149969,3.87349825 8.31225058,3.5882511 8.19675,3.36775 C8.08124942,3.1472489 7.94475079,2.98450052 7.78725,2.8795 C7.62974921,2.77449947 7.45300098,2.722 7.257,2.722 Z M197.03,1.029 C197.702003,1.029 198.226998,1.32299706 198.605,1.911 C198.983002,2.49900294 199.172,3.35649436 199.172,4.4835 C199.172,5.61050563 198.983002,6.47499699 198.605,7.077 C198.226998,7.67900301 197.702003,7.98 197.03,7.98 C196.350997,7.98 195.822502,7.67900301 195.4445,7.077 C195.066498,6.47499699 194.8775,5.61050563 194.8775,4.4835 C194.8775,3.35649436 195.066498,2.49900294 195.4445,1.911 C195.822502,1.32299706 196.350997,1.029 197.03,1.029 Z M202.2185,1.029 C202.890503,1.029 203.415498,1.32299706 203.7935,1.911 C204.171502,2.49900294 204.3605,3.35649436 204.3605,4.4835 C204.3605,5.61050563 204.171502,6.47499699 203.7935,7.077 C203.415498,7.67900301 202.890503,7.98 202.2185,7.98 C201.539497,7.98 201.011002,7.67900301 200.633,7.077 C200.254998,6.47499699 200.066,5.61050563 200.066,4.4835 C200.066,3.35649436 200.254998,2.49900294 200.633,1.911 C201.011002,1.32299706 201.539497,1.029 202.2185,1.029 Z M207.407,1.029 C208.079003,1.029 208.603998,1.32299706 208.982,1.911 C209.360002,2.49900294 209.549,3.35649436 209.549,4.4835 C209.549,5.61050563 209.360002,6.47499699 208.982,7.077 C208.603998,7.67900301 208.079003,7.98 207.407,7.98 C206.727997,7.98 206.199502,7.67900301 205.8215,7.077 C205.443498,6.47499699 205.2545,5.61050563 205.2545,4.4835 C205.2545,3.35649436 205.443498,2.49900294 205.8215,1.911 C206.199502,1.32299706 206.727997,1.029 207.407,1.029 Z M189.047,1.029 C189.670003,1.029 190.159998,1.2092482 190.517,1.56975 C190.874002,1.9302518 191.0525,2.40799702 191.0525,3.003 C191.0525,3.31800157 190.984251,3.63474841 190.84775,3.95325 C190.711249,4.27175159 190.522251,4.6007483 190.28075,4.94025 C190.039249,5.2797517 189.752252,5.63324816 189.41975,6.00075 C189.087248,6.36825184 188.721502,6.75849793 188.3225,7.1715 L188.8895,7.1295 C189.085501,7.11549993 189.270999,7.1085 189.446,7.1085 L191.3885,7.1085 L191.3885,7.854 L187.0625,7.854 L187.0625,7.3395 L187.90922,6.48522015 C188.083939,6.30714057 188.249699,6.13690081 188.4065,5.9745 C188.798502,5.56849797 189.127499,5.19225173 189.3935,4.84575 C189.659501,4.49924827 189.862499,4.18075145 190.0025,3.89025 C190.142501,3.59974855 190.2125,3.31800136 190.2125,3.045 C190.2125,2.65999807 190.107501,2.34500122 189.8975,2.1 C189.687499,1.85499877 189.369002,1.7325 188.942,1.7325 C188.661999,1.7325 188.403001,1.81124921 188.165,1.96875 C187.926999,2.12625079 187.710001,2.31699888 187.514,2.541 L187.0205,2.0475 C187.300501,1.73949846 187.597998,1.49275093 187.913,1.30725 C188.228002,1.12174907 188.605998,1.029 189.047,1.029 Z M197.03,1.722 C196.833999,1.722 196.655501,1.77449947 196.4945,1.8795 C196.333499,1.98450052 196.195251,2.1472489 196.07975,2.36775 C195.964249,2.5882511 195.875,2.87349825 195.812,3.2235 C195.749,3.57350175 195.7175,3.99349755 195.7175,4.4835 C195.7175,5.4635049 195.838249,6.17574778 196.07975,6.62025 C196.321251,7.06475222 196.637998,7.287 197.03,7.287 C197.226001,7.287 197.402749,7.23275054 197.56025,7.12425 C197.717751,7.01574946 197.854249,6.84775114 197.96975,6.62025 C198.085251,6.39274886 198.1745,6.10225177 198.2375,5.74875 C198.3005,5.39524823 198.332,4.97350245 198.332,4.4835 C198.332,3.99349755 198.3005,3.57350175 198.2375,3.2235 C198.1745,2.87349825 198.085251,2.5882511 197.96975,2.36775 C197.854249,2.1472489 197.717751,1.98450052 197.56025,1.8795 C197.402749,1.77449947 197.226001,1.722 197.03,1.722 Z M202.2185,1.722 C202.022499,1.722 201.844001,1.77449947 201.683,1.8795 C201.521999,1.98450052 201.383751,2.1472489 201.26825,2.36775 C201.152749,2.5882511 201.0635,2.87349825 201.0005,3.2235 C200.9375,3.57350175 200.906,3.99349755 200.906,4.4835 C200.906,5.4635049 201.026749,6.17574778 201.26825,6.62025 C201.509751,7.06475222 201.826498,7.287 202.2185,7.287 C202.414501,7.287 202.591249,7.23275054 202.74875,7.12425 C202.906251,7.01574946 203.042749,6.84775114 203.15825,6.62025 C203.273751,6.39274886 203.363,6.10225177 203.426,5.74875 C203.489,5.39524823 203.5205,4.97350245 203.5205,4.4835 C203.5205,3.99349755 203.489,3.57350175 203.426,3.2235 C203.363,2.87349825 203.273751,2.5882511 203.15825,2.36775 C203.042749,2.1472489 202.906251,1.98450052 202.74875,1.8795 C202.591249,1.77449947 202.414501,1.722 202.2185,1.722 Z M207.407,1.722 C207.210999,1.722 207.032501,1.77449947 206.8715,1.8795 C206.710499,1.98450052 206.572251,2.1472489 206.45675,2.36775 C206.341249,2.5882511 206.252,2.87349825 206.189,3.2235 C206.126,3.57350175 206.0945,3.99349755 206.0945,4.4835 C206.0945,5.4635049 206.215249,6.17574778 206.45675,6.62025 C206.698251,7.06475222 207.014998,7.287 207.407,7.287 C207.603001,7.287 207.779749,7.23275054 207.93725,7.12425 C208.094751,7.01574946 208.231249,6.84775114 208.34675,6.62025 C208.462251,6.39274886 208.5515,6.10225177 208.6145,5.74875 C208.6775,5.39524823 208.709,4.97350245 208.709,4.4835 C208.709,3.99349755 208.6775,3.57350175 208.6145,3.2235 C208.5515,2.87349825 208.462251,2.5882511 208.34675,2.36775 C208.231249,2.1472489 208.094751,1.98450052 207.93725,1.8795 C207.779749,1.77449947 207.603001,1.722 207.407,1.722 Z" id="Combined-Shape" fill="#848484" fill-rule="nonzero"></path>
                <path d="M52.329,42.854 L52.329,16.854 C52.329,16.6468932 52.1611068,16.479 51.954,16.479 C51.7468932,16.479 51.579,16.6468932 51.579,16.854 L51.579,42.854 C51.579,43.0611068 51.7468932,43.229 51.954,43.229 C52.1611068,43.229 52.329,43.0611068 52.329,42.854 Z" id="Stroke-3-Copy" fill="#D1D1D1" fill-rule="nonzero"></path>
                <path d="M101.329,42.854 L101.329,16.854 C101.329,16.6468932 101.161107,16.479 100.954,16.479 C100.746893,16.479 100.579,16.6468932 100.579,16.854 L100.579,42.854 C100.579,43.0611068 100.746893,43.229 100.954,43.229 C101.161107,43.229 101.329,43.0611068 101.329,42.854 Z" id="Stroke-3" fill="#D1D1D1" fill-rule="nonzero"></path>
                <path d="M151.329,42.854 L151.329,16.854 C151.329,16.6468932 151.161107,16.479 150.954,16.479 C150.746893,16.479 150.579,16.6468932 150.579,16.854 L150.579,42.854 C150.579,43.0611068 150.746893,43.229 150.954,43.229 C151.161107,43.229 151.329,43.0611068 151.329,42.854 Z" id="Stroke-4" fill="#D1D1D1" fill-rule="nonzero"></path>
                <path d="M200.329,42.854 L200.329,16.854 C200.329,16.6468932 200.161107,16.479 199.954,16.479 C199.746893,16.479 199.579,16.6468932 199.579,16.854 L199.579,42.854 C199.579,43.0611068 199.746893,43.229 199.954,43.229 C200.161107,43.229 200.329,43.0611068 200.329,42.854 Z" id="Stroke-5" fill="#D1D1D1" fill-rule="nonzero"></path>
                <path d="M250.329,42.854 L250.329,16.854 C250.329,16.6468932 250.161107,16.479 249.954,16.479 C249.746893,16.479 249.579,16.6468932 249.579,16.854 L249.579,42.854 C249.579,43.0611068 249.746893,43.229 249.954,43.229 C250.161107,43.229 250.329,43.0611068 250.329,42.854 Z" id="Stroke-5-Copy" fill="#D1D1D1" fill-rule="nonzero"></path>
                <path d="M299.329,42.854 L299.329,16.854 C299.329,16.6468932 299.161107,16.479 298.954,16.479 C298.746893,16.479 298.579,16.6468932 298.579,16.854 L298.579,42.854 C298.579,43.0611068 298.746893,43.229 298.954,43.229 C299.161107,43.229 299.329,43.0611068 299.329,42.854 Z" id="Stroke-6" fill="#D1D1D1" fill-rule="nonzero"></path>
                <path d="M228.951976,38.854 L62.9560243,38.854 C61.0299109,38.854 59.454,37.1909565 59.454,35.1583478 L59.454,25.5496522 C59.454,23.5170435 61.0299109,21.854 62.9560243,21.854 L228.951976,21.854 C230.878089,21.854 232.454,23.5170435 232.454,25.5496522 L232.454,35.1583478 C232.454,37.1909565 230.878089,38.854 228.951976,38.854" id="Fill-7" fill="#9D9DC6"></path>
                <path d="M221.115538,40.854 L88.7924615,40.854 C86.4063077,40.854 84.454,39.5206667 84.454,37.891037 L84.454,23.816963 C84.454,22.1873333 86.4063077,20.854 88.7924615,20.854 L221.115538,20.854 C223.501692,20.854 225.454,22.1873333 225.454,23.816963 L225.454,37.891037 C225.454,39.5206667 223.501692,40.854 221.115538,40.854" id="Fill-9" fill="#5E5E96"></path>
                <path d="M79.9685,64.4415 C79.9685,63.8814972 80.0507492,63.3792522 80.21525,62.93475 C80.3797508,62.4902478 80.6054986,62.1140015 80.8925,61.806 C81.1795014,61.4979985 81.5154981,61.2635008 81.9005,61.1025 C82.2855019,60.9414992 82.6984978,60.861 83.1395,60.861 C83.5595021,60.861 83.9357483,60.9484991 84.26825,61.1235 C84.6007517,61.2985009 84.8754989,61.5014988 85.0925,61.7325 L84.41,62.4885 C84.2349991,62.3134991 84.047751,62.1752505 83.84825,62.07375 C83.648749,61.9722495 83.4160013,61.9215 83.15,61.9215 C82.8629986,61.9215 82.6022512,61.9792494 82.36775,62.09475 C82.1332488,62.2102506 81.9302509,62.3747489 81.75875,62.58825 C81.5872491,62.8017511 81.4542505,63.0624985 81.35975,63.3705 C81.2652495,63.6785015 81.218,64.0249981 81.218,64.41 C81.218,65.1940039 81.3877483,65.8082478 81.72725,66.25275 C82.0667517,66.6972522 82.5269971,66.9195 83.108,66.9195 C83.4160015,66.9195 83.6837489,66.8600006 83.91125,66.741 C84.1387511,66.6219994 84.350499,66.4540011 84.5465,66.237 L85.229,66.9825 C84.9489986,67.3045016 84.6305018,67.5512491 84.2735,67.72275 C83.9164982,67.8942509 83.5210022,67.98 83.087,67.98 C82.6459978,67.98 82.2365019,67.9030008 81.8585,67.749 C81.4804981,67.5949992 81.1515014,67.3675015 80.8715,67.0665 C80.5914986,66.7654985 80.3710008,66.3945022 80.21,65.9535 C80.0489992,65.5124978 79.9685,65.0085028 79.9685,64.4415 Z M86.3585,60.987 L87.5765,60.987 L87.5765,66.825 L90.4325,66.825 L90.4325,67.854 L86.3585,67.854 L86.3585,60.987 Z M90.89,60.987 L92.108,60.987 L92.108,64.935 C92.108,65.3060019 92.1412497,65.6192487 92.20775,65.87475 C92.2742503,66.1302513 92.3687494,66.3349992 92.49125,66.489 C92.6137506,66.6430008 92.7589992,66.7532497 92.927,66.81975 C93.0950008,66.8862503 93.283999,66.9195 93.494,66.9195 C93.7040011,66.9195 93.8964991,66.8862503 94.0715,66.81975 C94.2465009,66.7532497 94.3969994,66.6430008 94.523,66.489 C94.6490006,66.3349992 94.7469997,66.1302513 94.817,65.87475 C94.8870004,65.6192487 94.922,65.3060019 94.922,64.935 L94.922,60.987 L96.0875,60.987 L96.0875,64.8405 C96.0875,65.4075028 96.0280006,65.888748 95.909,66.28425 C95.7899994,66.679752 95.6167511,67.0034987 95.38925,67.2555 C95.1617489,67.5075013 94.8887516,67.6912494 94.57025,67.80675 C94.2517484,67.9222506 93.893002,67.98 93.494,67.98 C93.094998,67.98 92.7362516,67.9222506 92.41775,67.80675 C92.0992484,67.6912494 91.8262511,67.5075013 91.59875,67.2555 C91.3712489,67.0034987 91.1962506,66.679752 91.07375,66.28425 C90.9512494,65.888748 90.89,65.4075028 90.89,64.8405 L90.89,60.987 Z M97.8155,66.1425 C98.0605012,66.3735012 98.3404984,66.5607493 98.6555,66.70425 C98.9705016,66.8477507 99.2854984,66.9195 99.6005,66.9195 C99.992502,66.9195 100.289999,66.8390008 100.493,66.678 C100.696001,66.5169992 100.7975,66.3035013 100.7975,66.0375 C100.7975,65.8974993 100.77125,65.7785005 100.71875,65.6805 C100.66625,65.5824995 100.59275,65.4967504 100.49825,65.42325 C100.40375,65.3497496 100.291751,65.2815003 100.16225,65.2185 L100.028667,65.1554999 L100.028667,65.1554999 L98.792,64.62 C98.6239992,64.5499996 98.4577508,64.4625005 98.29325,64.3575 C98.1287492,64.2524995 97.9800007,64.1265007 97.847,63.9795 C97.7139993,63.8324993 97.6072504,63.661001 97.52675,63.465 C97.4462496,63.268999 97.406,63.0450013 97.406,62.793 C97.406,62.5199986 97.4637494,62.2662512 97.57925,62.03175 C97.6947506,61.7972488 97.853999,61.5925009 98.057,61.4175 C98.260001,61.2424991 98.5032486,61.1060005 98.78675,61.008 C99.0702514,60.9099995 99.3799983,60.861 99.716,60.861 C100.115002,60.861 100.499998,60.9397492 100.871,61.09725 C101.242002,61.2547508 101.560499,61.4664987 101.8265,61.7325 L101.207,62.5095 C100.982999,62.3274991 100.752001,62.1840005 100.514,62.079 C100.275999,61.9739995 100.010001,61.9215 99.716,61.9215 C99.3869984,61.9215 99.124501,61.9932493 98.9285,62.13675 C98.732499,62.2802507 98.6345,62.4779987 98.6345,62.73 C98.6345,62.8630007 98.6642497,62.9767495 98.72375,63.07125 C98.7832503,63.1657505 98.8637495,63.2497496 98.96525,63.32325 C99.0667505,63.3967504 99.1839993,63.4632497 99.317,63.52275 L99.519125,63.6106875 L99.519125,63.6106875 L100.661,64.0845 C100.864001,64.1685004 101.049499,64.2664994 101.2175,64.3785 C101.385501,64.4905006 101.530749,64.6199993 101.65325,64.767 C101.775751,64.9140007 101.872,65.083749 101.942,65.27625 C102.012,65.468751 102.047,65.6909987 102.047,65.943 C102.047,66.2230014 101.991001,66.4854988 101.879,66.7305 C101.766999,66.9755012 101.604251,67.1907491 101.39075,67.37625 C101.177249,67.5617509 100.918252,67.7087495 100.61375,67.81725 C100.309248,67.9257505 99.9645019,67.98 99.5795,67.98 C99.1174977,67.98 98.6712522,67.8925009 98.24075,67.7175 C97.8102479,67.5424991 97.4305017,67.2940016 97.1015,66.972 L97.8155,66.1425 Z M104.2475,62.016 L102.263,62.016 L102.263,60.987 L107.45,60.987 L107.45,62.016 L105.4655,62.016 L105.4655,67.854 L104.2475,67.854 L104.2475,62.016 Z M108.5795,60.987 L112.7165,60.987 L112.7165,62.016 L109.7975,62.016 L109.7975,63.7695 L112.265,63.7695 L112.265,64.7985 L109.7975,64.7985 L109.7975,66.825 L112.8215,66.825 L112.8215,67.854 L108.5795,67.854 L108.5795,60.987 Z M115.4315,64.2 L116.408,64.2 C116.877002,64.2 117.235749,64.102001 117.48425,63.906 C117.732751,63.709999 117.857,63.416002 117.857,63.024 C117.857,62.624998 117.732751,62.3485008 117.48425,62.1945 C117.235749,62.0404992 116.877002,61.9635 116.408,61.9635 L115.4315,61.9635 L115.4315,64.2 Z M117.962,67.854 L116.4815,65.166 L115.4315,65.166 L115.4315,67.854 L114.2135,67.854 L114.2135,60.987 L116.534,60.987 C116.891002,60.987 117.223498,61.0219996 117.5315,61.092 C117.839502,61.1620003 118.105499,61.2757492 118.3295,61.43325 C118.553501,61.5907508 118.730249,61.7989987 118.85975,62.058 C118.989251,62.3170013 119.054,62.6389981 119.054,63.024 C119.054,63.5490026 118.929751,63.9724984 118.68125,64.2945 C118.432749,64.6165016 118.102002,64.8474993 117.689,64.9875 L119.327,67.854 L117.962,67.854 Z M122.6255,60.987 L123.9695,60.987 L125.2085,64.368 L125.66,65.67 L125.702,65.67 L126.143,64.368 L127.361,60.987 L128.705,60.987 L128.705,67.854 L127.5605,67.854 L127.5605,64.7145 L127.5675,64.3738336 L127.5675,64.3738336 L127.57625,64.1895 C127.58675,64.0004991 127.599,63.809751 127.613,63.61725 L127.636625,63.331125 L127.636625,63.331125 L127.718,62.5305 L127.718,62.5305 L127.676,62.5305 L127.1195,64.095 L125.933,67.2135 L125.366,67.2135 L124.1795,64.095 L123.6335,62.5305 L123.5915,62.5305 L123.69125,63.61725 L123.69125,63.61725 C123.70875,63.809751 123.72275,64.0004991 123.73325,64.1895 C123.74375,64.3785009 123.749,64.5534992 123.749,64.7145 L123.749,67.854 L122.6255,67.854 L122.6255,60.987 Z M130.433,60.987 L134.57,60.987 L134.57,62.016 L131.651,62.016 L131.651,63.7695 L134.1185,63.7695 L134.1185,64.7985 L131.651,64.7985 L131.651,66.825 L134.675,66.825 L134.675,67.854 L130.433,67.854 L130.433,60.987 Z M136.067,60.987 L137.9045,60.987 C138.954505,60.987 139.773497,61.2704972 140.3615,61.8375 C140.949503,62.4045028 141.2435,63.2549943 141.2435,64.389 C141.2435,64.9560028 141.168251,65.4564978 141.01775,65.8905 C140.867249,66.3245022 140.650251,66.6867485 140.36675,66.97725 C140.083249,67.2677515 139.740252,67.4864993 139.33775,67.6335 C138.935248,67.7805007 138.478503,67.854 137.9675,67.854 L136.067,67.854 L136.067,60.987 Z M137.8205,66.867 C138.520504,66.867 139.057748,66.665752 139.43225,66.26325 C139.806752,65.860748 139.994,65.2360042 139.994,64.389 C139.994,63.5489958 139.805002,62.9365019 139.427,62.5515 C139.048998,62.1664981 138.513503,61.974 137.8205,61.974 L137.285,61.974 L137.285,66.867 L137.8205,66.867 Z M142.6145,60.987 L143.8325,60.987 L143.8325,67.854 L142.6145,67.854 L142.6145,60.987 Z M148.4795,65.04 L148.238,64.2 C148.125999,63.8359982 148.019251,63.4615019 147.91775,63.0765 L147.6185,61.932 L147.6185,61.932 L147.5765,61.932 L147.2825,63.08175 L147.2825,63.08175 C147.1845,63.4632519 147.079501,63.8359982 146.9675,64.2 L146.726,65.04 L148.4795,65.04 Z M148.7525,65.9955 L146.4425,65.9955 L145.907,67.854 L144.668,67.854 L146.9045,60.987 L148.3325,60.987 L150.569,67.854 L149.288,67.854 L148.7525,65.9955 Z M151.4045,60.987 L152.654,60.987 L154.796,64.851 L155.4995,66.3105 L155.5415,66.3105 L155.4785,65.5615005 C155.466833,65.430834 155.454583,65.2972507 155.44175,65.16075 C155.40325,64.751248 155.384,64.3540019 155.384,63.969 L155.384,60.987 L156.5495,60.987 L156.5495,67.854 L155.3,67.854 L153.158,63.99 L152.4545,62.5305 L152.4125,62.5305 L152.4755,63.2818329 C152.487167,63.4109438 152.499417,63.5419993 152.51225,63.675 C152.55075,64.074002 152.57,64.4659981 152.57,64.851 L152.57,67.854 L151.4045,67.854 L151.4045,60.987 Z M158.0675,63.57 C158.0675,63.3319988 158.142749,63.1360008 158.29325,62.982 C158.443751,62.8279992 158.630999,62.751 158.855,62.751 C159.079001,62.751 159.264499,62.8279992 159.4115,62.982 C159.558501,63.1360008 159.632,63.3319988 159.632,63.57 C159.632,63.8080012 159.558501,64.0039992 159.4115,64.158 C159.264499,64.3120008 159.079001,64.389 158.855,64.389 C158.630999,64.389 158.443751,64.3120008 158.29325,64.158 C158.142749,64.0039992 158.0675,63.8080012 158.0675,63.57 Z M158.0675,67.161 C158.0675,66.9229988 158.142749,66.7270008 158.29325,66.573 C158.443751,66.4189992 158.630999,66.342 158.855,66.342 C159.079001,66.342 159.264499,66.4189992 159.4115,66.573 C159.558501,66.7270008 159.632,66.9229988 159.632,67.161 C159.632,67.3990012 159.558501,67.5949992 159.4115,67.749 C159.264499,67.9030008 159.079001,67.98 158.855,67.98 C158.630999,67.98 158.443751,67.9030008 158.29325,67.749 C158.142749,67.5949992 158.0675,67.3990012 158.0675,67.161 Z M166.448,62.5935 C166.251999,62.4114991 166.063001,62.2732505 165.881,62.17875 C165.698999,62.0842495 165.482001,62.037 165.23,62.037 C164.942999,62.037 164.719001,62.1087493 164.558,62.25225 C164.396999,62.3957507 164.3165,62.6039986 164.3165,62.877 C164.3165,63.087001 164.386499,63.2602493 164.5265,63.39675 C164.666501,63.5332507 164.843249,63.6592494 165.05675,63.77475 C165.270251,63.8902506 165.499499,64.0057494 165.7445,64.12125 C165.989501,64.2367506 166.218749,64.3749992 166.43225,64.536 C166.645751,64.6970008 166.822499,64.8947488 166.9625,65.12925 C167.102501,65.3637512 167.1725,65.6559982 167.1725,66.006 C167.1725,66.5100025 167.032501,66.9317483 166.7525,67.27125 C166.472499,67.6107517 166.070003,67.8294995 165.545,67.9275 L165.545,69.009 L164.705,69.009 L164.705,67.959 C164.382998,67.9239998 164.059252,67.8382507 163.73375,67.70175 C163.408248,67.5652493 163.126501,67.3850011 162.8885,67.161 L163.4345,66.342 C163.679501,66.538001 163.927999,66.6954994 164.18,66.8145 C164.432001,66.9335006 164.701499,66.993 164.9885,66.993 C165.331502,66.993 165.586999,66.9142508 165.755,66.75675 C165.923001,66.5992492 166.007,66.3770014 166.007,66.09 C166.007,65.8589988 165.937001,65.6665008 165.797,65.5125 C165.656999,65.3584992 165.480251,65.2185006 165.26675,65.0925 C165.053249,64.9664994 164.824001,64.8457506 164.579,64.73025 C164.333999,64.6147494 164.104751,64.4782508 163.89125,64.32075 C163.677749,64.1632492 163.501001,63.9742511 163.361,63.75375 C163.220999,63.5332489 163.151,63.2585016 163.151,62.9295 C163.151,62.4394975 163.290999,62.0317516 163.571,61.70625 C163.851001,61.3807484 164.228998,61.1760004 164.705,61.092 L164.705,60.021 L165.545,60.021 L165.545,61.071 C165.881002,61.1130002 166.169749,61.2092492 166.41125,61.35975 C166.652751,61.5102508 166.871499,61.686999 167.0675,61.89 L166.448,62.5935 Z M168.5645,66.867 L170.0555,66.867 L170.0555,62.478 L168.827,62.478 L168.827,61.722 C169.163002,61.6589997 169.451749,61.5837504 169.69325,61.49625 C169.934751,61.4087496 170.160499,61.3020006 170.3705,61.176 L171.2735,61.176 L171.2735,66.867 L172.586,66.867 L172.586,67.854 L168.5645,67.854 L168.5645,66.867 Z M173.6525,69.1035 C173.988502,68.9704993 174.249249,68.7920011 174.43475,68.568 C174.620251,68.3439989 174.713,68.0990013 174.713,67.833 L174.6185,67.833 C174.415499,67.833 174.235251,67.7682506 174.07775,67.63875 C173.920249,67.5092494 173.8415,67.3255012 173.8415,67.0875 C173.8415,66.8634989 173.920249,66.6832507 174.07775,66.54675 C174.235251,66.4102493 174.425999,66.342 174.65,66.342 C174.937001,66.342 175.159249,66.4504989 175.31675,66.6675 C175.474251,66.8845011 175.553,67.188998 175.553,67.581 C175.553,68.0990026 175.411251,68.5469981 175.12775,68.925 C174.844249,69.3030019 174.440003,69.5829991 173.915,69.765 L173.6525,69.1035 Z M177.4175,65.1975 L179.171,65.1975 L179.171,63.6855 C179.171,63.5384993 179.173953,63.3718129 179.179859,63.1854379 L179.203812,62.6197499 C179.209937,62.5042502 179.2165,62.3975005 179.2235,62.2995 L179.1815,62.2995 C179.0975,62.4745009 179.01,62.6459992 178.919,62.814 L178.6355,63.339 L178.6355,63.339 L177.4175,65.1975 Z M181.145,66.132 L180.305,66.132 L180.305,67.854 L179.171,67.854 L179.171,66.132 L176.2205,66.132 L176.2205,65.313 L178.8665,61.176 L180.305,61.176 L180.305,65.1975 L181.145,65.1975 L181.145,66.132 Z M183.167,67.854 C183.195,67.258997 183.2475,66.7147525 183.3245,66.22125 C183.4015,65.7277475 183.511749,65.2570022 183.65525,64.809 C183.798751,64.3609978 183.982499,63.9252521 184.2065,63.50175 C184.430501,63.0782479 184.703498,62.6425022 185.0255,62.1945 L181.865,62.1945 L181.865,61.176 L186.3485,61.176 L186.3485,61.911 C185.956498,62.3940024 185.639751,62.8542478 185.39825,63.29175 C185.156749,63.7292522 184.966001,64.1772477 184.826,64.63575 C184.685999,65.0942523 184.58625,65.5824974 184.52675,66.1005 C184.46725,66.6185026 184.4235,67.2029967 184.3955,67.854 L183.167,67.854 Z M188.5385,67.854 C188.5665,67.258997 188.619,66.7147525 188.696,66.22125 C188.773,65.7277475 188.883249,65.2570022 189.02675,64.809 C189.170251,64.3609978 189.353999,63.9252521 189.578,63.50175 C189.802001,63.0782479 190.074998,62.6425022 190.397,62.1945 L187.2365,62.1945 L187.2365,61.176 L191.72,61.176 L191.72,61.911 C191.327998,62.3940024 191.011251,62.8542478 190.76975,63.29175 C190.528249,63.7292522 190.337501,64.1772477 190.1975,64.63575 C190.057499,65.0942523 189.95775,65.5824974 189.89825,66.1005 C189.83875,66.6185026 189.795,67.2029967 189.767,67.854 L188.5385,67.854 Z" id="CLUSTERMEDIAN:$1,477" fill="#5E5E96" fill-rule="nonzero"></path>
                <path d="M132.954,45.711761 C132.14927,46.4653214 130.55829,46.8244345 129.454,46.854 C130.936398,45.8206486 132.229358,44.478662 132.954,42.854 C133.647839,44.478662 135.019347,45.7615176 136.454,46.854 C135.271932,46.7653034 133.836508,46.494887 132.954,45.711761" id="Fill-13" fill="#636363"></path>
                <polygon id="Fill-14" fill="#FFFFFF" points="136.954071 29.8545714 136.954071 26.3544643 134.954429 26.3544643 134.954429 27.8542857 132.954 25.854 127.454 31.3536072 128.454214 31.3536072 128.454214 36.854 131.454071 36.854 131.454071 32.3545357 134.453929 32.3545357 134.453929 36.854 137.454571 36.854 137.454571 31.3536072 138.454 31.3536072"></polygon>
                <path d="M133.704,58.854 L133.704,45.854 C133.704,45.4397864 133.368214,45.104 132.954,45.104 C132.539786,45.104 132.204,45.4397864 132.204,45.854 L132.204,58.854 C132.204,59.2682136 132.539786,59.604 132.954,59.604 C133.368214,59.604 133.704,59.2682136 133.704,58.854 Z" id="Stroke-12" fill="#636363" fill-rule="nonzero"></path>
            </g>
        </g>
    </g>
</svg>