<?xml version="1.0" encoding="UTF-8"?>
<svg width="305px" height="66px" viewBox="0 0 305 66" version="1.1" xmlns="http://www.w3.org/2000/svg" xmlns:xlink="http://www.w3.org/1999/xlink">
    <!-- Generator: Sketch 59.1 (86144) - https://sketch.com -->
    <title>Rent as Income</title>
    <desc>Created with Sketch.</desc>
    <g id="Export-Outlined-SVG" stroke="none" stroke-width="1" fill="none" fill-rule="evenodd">
        <g id="8" transform="translate(-842.000000, -639.000000)">
            <g id="Rent-as-Income" transform="translate(842.462000, 639.986000)">
                <polygon id="Fill-1" fill="#E0E0E0" points="1.538 34.014 298.538 34.014 298.538 24.014 1.538 24.014"></polygon>
                <path d="M2.413,41.014 L2.413,15.014 C2.413,14.8068932 2.24510678,14.639 2.038,14.639 C1.83089322,14.639 1.663,14.8068932 1.663,15.014 L1.663,41.014 C1.663,41.2211068 1.83089322,41.389 2.038,41.389 C2.24510678,41.389 2.413,41.2211068 2.413,41.014 Z" id="Stroke-2" fill="#D1D1D1" fill-rule="nonzero"></path>
                <path d="M76.413,41.014 L76.413,15.014 C76.413,14.8068932 76.2451068,14.639 76.038,14.639 C75.8308932,14.639 75.663,14.8068932 75.663,15.014 L75.663,41.014 C75.663,41.2211068 75.8308932,41.389 76.038,41.389 C76.2451068,41.389 76.413,41.2211068 76.413,41.014 Z" id="Stroke-3" fill="#D1D1D1" fill-rule="nonzero"></path>
                <path d="M150.413,41.014 L150.413,15.014 C150.413,14.8068932 150.245107,14.639 150.038,14.639 C149.830893,14.639 149.663,14.8068932 149.663,15.014 L149.663,41.014 C149.663,41.2211068 149.830893,41.389 150.038,41.389 C150.245107,41.389 150.413,41.2211068 150.413,41.014 Z" id="Stroke-4" fill="#D1D1D1" fill-rule="nonzero"></path>
                <path d="M224.413,41.014 L224.413,15.014 C224.413,14.8068932 224.245107,14.639 224.038,14.639 C223.830893,14.639 223.663,14.8068932 223.663,15.014 L223.663,41.014 C223.663,41.2211068 223.830893,41.389 224.038,41.389 C224.245107,41.389 224.413,41.2211068 224.413,41.014 Z" id="Stroke-5" fill="#D1D1D1" fill-rule="nonzero"></path>
                <path d="M299.413,41.014 L299.413,15.014 C299.413,14.8068932 299.245107,14.639 299.038,14.639 C298.830893,14.639 298.663,14.8068932 298.663,15.014 L298.663,41.014 C298.663,41.2211068 298.830893,41.389 299.038,41.389 C299.245107,41.389 299.413,41.2211068 299.413,41.014 Z" id="Stroke-6" fill="#D1D1D1" fill-rule="nonzero"></path>
                <path d="M245.193172,37.014 L79.8828276,37.014 C78.5931724,37.014 77.538,35.6835652 77.538,34.0574783 L77.538,22.9705217 C77.538,21.3451739 78.5931724,20.014 79.8828276,20.014 L245.193172,20.014 C246.482828,20.014 247.538,21.3451739 247.538,22.9705217 L247.538,34.0574783 C247.538,35.6835652 246.482828,37.014 245.193172,37.014" id="Fill-7" fill="#9D9DC6"></path>
                <path d="M206.463254,39.014 L118.612746,39.014 C116.371636,39.014 114.538,37.6806667 114.538,36.051037 L114.538,21.976963 C114.538,20.3480741 116.371636,19.014 118.612746,19.014 L206.463254,19.014 C208.704364,19.014 210.538,20.3480741 210.538,21.976963 L210.538,36.051037 C210.538,37.6806667 208.704364,39.014 206.463254,39.014" id="Fill-9" fill="#5E5E96"></path>
                <g id="Group-2" transform="translate(111.538000, 24.014000)">
                    <g id="Group" transform="translate(0.000000, 15.344020)">
                        <path d="M79.401,23.1649455 C79.6250011,23.1649455 79.8104993,23.2419447 79.9575,23.3959455 C80.1045007,23.5499463 80.178,23.7459443 80.178,23.9839455 C80.178,24.2219467 80.1045007,24.4179447 79.9575,24.5719455 C79.8104993,24.7259463 79.6250011,24.8029455 79.401,24.8029455 C79.1769989,24.8029455 78.9897508,24.7259463 78.83925,24.5719455 C78.6887492,24.4179447 78.6135,24.2219467 78.6135,23.9839455 C78.6135,23.7459443 78.6887492,23.5499463 78.83925,23.3959455 C78.9897508,23.2419447 79.1769989,23.1649455 79.401,23.1649455 Z M105.723,17.6839455 L101.985,24.8029455 L101.2395,24.8029455 L104.988,17.6839455 L105.723,17.6839455 Z M105.954,20.4559455 C106.437002,20.4559455 106.830748,20.6431936 107.13525,21.0176955 C107.439752,21.3921974 107.592,21.925942 107.592,22.6189455 C107.592,23.3119489 107.439752,23.8491936 107.13525,24.2306955 C106.830748,24.6121974 106.437002,24.8029455 105.954,24.8029455 C105.470998,24.8029455 105.077252,24.6121974 104.77275,24.2306955 C104.468248,23.8491936 104.316,23.3119489 104.316,22.6189455 C104.316,21.925942 104.468248,21.3921974 104.77275,21.0176955 C105.077252,20.6431936 105.470998,20.4559455 105.954,20.4559455 Z M12.654,17.8099455 L12.654,21.7579455 C12.654,22.1289473 12.6872497,22.4421942 12.75375,22.6976955 C12.8202503,22.9531968 12.9147494,23.1579447 13.03725,23.3119455 C13.1597506,23.4659463 13.3049992,23.5761952 13.473,23.6426955 C13.6410008,23.7091958 13.829999,23.7424455 14.04,23.7424455 C14.2500011,23.7424455 14.4424991,23.7091958 14.6175,23.6426955 C14.7925009,23.5761952 14.9429994,23.4659463 15.069,23.3119455 C15.1950006,23.1579447 15.2929997,22.9531968 15.363,22.6976955 C15.4330004,22.4421942 15.468,22.1289473 15.468,21.7579455 L15.468,17.8099455 L16.6335,17.8099455 L16.6335,21.6634455 C16.6335,22.2304483 16.5740006,22.7116935 16.455,23.1071955 C16.3359994,23.5026975 16.1627511,23.8264442 15.93525,24.0784455 C15.7077489,24.3304467 15.4347516,24.5141949 15.11625,24.6296955 C14.7977484,24.7451961 14.439002,24.8029455 14.04,24.8029455 C13.640998,24.8029455 13.2822516,24.7451961 12.96375,24.6296955 C12.6452484,24.5141949 12.3722511,24.3304467 12.14475,24.0784455 C11.9172489,23.8264442 11.7422506,23.5026975 11.61975,23.1071955 C11.4972494,22.7116935 11.436,22.2304483 11.436,21.6634455 L11.436,17.8099455 L12.654,17.8099455 Z M20.262,17.6839455 C20.661002,17.6839455 21.0459982,17.7626947 21.417,17.9201955 C21.7880019,18.0776963 22.1064987,18.2894442 22.3725,18.5554455 L21.753,19.3324455 C21.5289989,19.1504446 21.2980012,19.006946 21.06,18.9019455 C20.8219988,18.796945 20.5560015,18.7444455 20.262,18.7444455 C19.9329984,18.7444455 19.670501,18.8161948 19.4745,18.9596955 C19.278499,19.1031962 19.1805,19.3009442 19.1805,19.5529455 C19.1805,19.6859461 19.2102497,19.799695 19.26975,19.8941955 C19.3292503,19.988696 19.4097495,20.0726951 19.51125,20.1461955 C19.6127505,20.2196959 19.7299993,20.2861952 19.863,20.3456955 L20.065125,20.433633 L21.207,20.9074455 C21.410001,20.9914459 21.5954992,21.0894449 21.7635,21.2014455 C21.9315008,21.313446 22.0767494,21.4429447 22.19925,21.5899455 C22.3217506,21.7369462 22.4179997,21.9066945 22.488,22.0991955 C22.5580004,22.2916964 22.593,22.5139442 22.593,22.7659455 C22.593,23.0459469 22.5370006,23.3084443 22.425,23.5534455 C22.3129994,23.7984467 22.1502511,24.0136946 21.93675,24.1991955 C21.7232489,24.3846964 21.4642515,24.5316949 21.15975,24.6401955 C20.8552485,24.748696 20.5105019,24.8029455 20.1255,24.8029455 C19.6634977,24.8029455 19.2172522,24.7154464 18.78675,24.5404455 C18.3562479,24.3654446 17.9765017,24.1169471 17.6475,23.7949455 L18.3615,22.9654455 C18.6065012,23.1964466 18.8864984,23.3836948 19.2015,23.5271955 C19.5165016,23.6706962 19.8314984,23.7424455 20.1465,23.7424455 C20.538502,23.7424455 20.835999,23.6619463 21.039,23.5009455 C21.242001,23.3399447 21.3435,23.1264468 21.3435,22.8604455 C21.3435,22.7204448 21.3172503,22.601446 21.26475,22.5034455 C21.2122497,22.405445 21.1387505,22.3196959 21.04425,22.2461955 C20.9497495,22.1726951 20.8377507,22.1044458 20.70825,22.0414455 L20.5746666,21.9784454 L19.338,21.4429455 C19.1699992,21.3729451 19.0037508,21.285446 18.83925,21.1804455 C18.6747492,21.075445 18.5260007,20.9494462 18.393,20.8024455 C18.2599993,20.6554447 18.1532504,20.4839465 18.07275,20.2879455 C17.9922496,20.0919445 17.952,19.8679467 17.952,19.6159455 C17.952,19.3429441 18.0097494,19.0891967 18.12525,18.8546955 C18.2407506,18.6201943 18.399999,18.4154464 18.603,18.2404455 C18.806001,18.0654446 19.0492486,17.928946 19.33275,17.8309455 C19.6162514,17.732945 19.9259983,17.6839455 20.262,17.6839455 Z M3.6855,17.6839455 C4.1055021,17.6839455 4.48174834,17.7714446 4.81425,17.9464455 C5.14675166,18.1214464 5.42149892,18.3244443 5.6385,18.5554455 L4.956,19.3114455 C4.78099913,19.1364446 4.593751,18.998196 4.39425,18.8966955 C4.194749,18.795195 3.96200133,18.7444455 3.696,18.7444455 C3.40899857,18.7444455 3.14825117,18.8021949 2.91375,18.9176955 C2.67924883,19.0331961 2.47625086,19.1976944 2.30475,19.4111955 C2.13324914,19.6246966 2.00025047,19.8854439 1.90575,20.1934455 C1.81124953,20.501447 1.764,20.8479436 1.764,21.2329455 C1.764,22.0169494 1.9337483,22.6311933 2.27325,23.0756955 C2.6127517,23.5201977 3.0729971,23.7424455 3.654,23.7424455 C3.96200154,23.7424455 4.22974886,23.6829461 4.45725,23.5639455 C4.68475114,23.4449449 4.89649902,23.2769466 5.0925,23.0599455 L5.775,23.8054455 C5.4949986,24.1274471 5.17650179,24.3741946 4.8195,24.5456955 C4.46249822,24.7171963 4.06700217,24.8029455 3.633,24.8029455 C3.1919978,24.8029455 2.78250189,24.7259463 2.4045,24.5719455 C2.02649811,24.4179447 1.6975014,24.190447 1.4175,23.8894455 C1.1374986,23.588444 0.917000805,23.2174477 0.756,22.7764455 C0.594999195,22.3354433 0.5145,21.8314483 0.5145,21.2644455 C0.5145,20.7044427 0.596749178,20.2021977 0.76125,19.7576955 C0.925750823,19.3131933 1.15149857,18.936947 1.4385,18.6289455 C1.72550144,18.3209439 2.06149808,18.0864463 2.4465,17.9254455 C2.83150193,17.7644447 3.2444978,17.6839455 3.6855,17.6839455 Z M96.393,17.8729455 C97.0930035,17.8729455 97.645998,18.1634426 98.052,18.7444455 C98.458002,19.3254484 98.661,20.1794398 98.661,21.3064455 C98.661,22.4404512 98.458002,23.3066925 98.052,23.9051955 C97.645998,24.5036985 97.0930035,24.8029455 96.393,24.8029455 C95.6929965,24.8029455 95.140002,24.5036985 94.734,23.9051955 C94.327998,23.3066925 94.125,22.4404512 94.125,21.3064455 C94.125,20.1724398 94.327998,19.3166984 94.734,18.7391955 C95.140002,18.1616926 95.6929965,17.8729455 96.393,17.8729455 Z M8.1225,17.8099455 L8.1225,23.6479455 L10.9785,23.6479455 L10.9785,24.6769455 L6.9045,24.6769455 L6.9045,17.8099455 L8.1225,17.8099455 Z M73.2,17.8099455 L75.342,21.6739455 L76.0455,23.1334455 L76.0875,23.1334455 L76.0245001,22.384446 C76.0128334,22.2537795 76.0005834,22.1201962 75.98775,21.9836955 C75.9492498,21.5741934 75.93,21.1769474 75.93,20.7919455 L75.93,17.8099455 L77.0955,17.8099455 L77.0955,24.6769455 L75.846,24.6769455 L73.704,20.8129455 L73.0005,19.3534455 L72.9585,19.3534455 L73.0214999,20.1047783 C73.0331666,20.2338892 73.0454166,20.3649448 73.05825,20.4979455 C73.0967502,20.8969475 73.116,21.2889436 73.116,21.6739455 L73.116,24.6769455 L71.9505,24.6769455 L71.9505,17.8099455 L73.2,17.8099455 Z M68.8785,17.8099455 L71.115,24.6769455 L69.834,24.6769455 L69.2985,22.8184455 L66.9885,22.8184455 L66.453,24.6769455 L65.214,24.6769455 L67.4505,17.8099455 L68.8785,17.8099455 Z M64.3785,17.8099455 L64.3785,24.6769455 L63.1605,24.6769455 L63.1605,17.8099455 L64.3785,17.8099455 Z M55.116,17.8099455 L55.116,18.8389455 L52.197,18.8389455 L52.197,20.5924455 L54.6645,20.5924455 L54.6645,21.6214455 L52.197,21.6214455 L52.197,23.6479455 L55.221,23.6479455 L55.221,24.6769455 L50.979,24.6769455 L50.979,17.8099455 L55.116,17.8099455 Z M33.2625,17.8099455 L33.2625,18.8389455 L30.3435,18.8389455 L30.3435,20.5924455 L32.811,20.5924455 L32.811,21.6214455 L30.3435,21.6214455 L30.3435,23.6479455 L33.3675,23.6479455 L33.3675,24.6769455 L29.1255,24.6769455 L29.1255,17.8099455 L33.2625,17.8099455 Z M37.08,17.8099455 C37.4370018,17.8099455 37.7694985,17.8449451 38.0775,17.9149455 C38.3855015,17.9849458 38.6514989,18.0986947 38.8755,18.2561955 C39.0995011,18.4136963 39.2762494,18.6219442 39.40575,18.8809455 C39.5352506,19.1399468 39.6,19.4619436 39.6,19.8469455 C39.6,20.3719481 39.4757512,20.7954439 39.22725,21.1174455 C38.9787488,21.4394471 38.6480021,21.6704448 38.235,21.8104455 L39.873,24.6769455 L38.508,24.6769455 L37.0275,21.9889455 L35.9775,21.9889455 L35.9775,24.6769455 L34.7595,24.6769455 L34.7595,17.8099455 L37.08,17.8099455 Z M27.996,17.8099455 L27.996,18.8389455 L26.0115,18.8389455 L26.0115,24.6769455 L24.7935,24.6769455 L24.7935,18.8389455 L22.809,18.8389455 L22.809,17.8099455 L27.996,17.8099455 Z M44.5155,17.8099455 L45.7545,21.1909455 L46.206,22.4929455 L46.248,22.4929455 L46.689,21.1909455 L47.907,17.8099455 L49.251,17.8099455 L49.251,24.6769455 L48.1065,24.6769455 L48.1065,21.5374455 L48.1135,21.1967791 L48.12225,21.0124455 C48.1327501,20.8234445 48.1449999,20.6326964 48.159,20.4401955 L48.182625,20.1540705 L48.264,19.3534455 L48.222,19.3534455 L47.6655,20.9179455 L46.479,24.0364455 L45.912,24.0364455 L44.7255,20.9179455 L44.1795,19.3534455 L44.1375,19.3534455 L44.23725,20.4401955 C44.2547501,20.6326964 44.2687499,20.8234445 44.27925,21.0124455 C44.2897501,21.2014464 44.295,21.3764447 44.295,21.5374455 L44.295,24.6769455 L43.1715,24.6769455 L43.1715,17.8099455 L44.5155,17.8099455 Z M58.4505,17.8099455 C59.5005053,17.8099455 60.3194971,18.0934426 60.9075,18.6604455 C61.4955029,19.2274483 61.7895,20.0779398 61.7895,21.2119455 C61.7895,21.7789483 61.7142508,22.2794433 61.56375,22.7134455 C61.4132492,23.1474477 61.1962514,23.509694 60.91275,23.8001955 C60.6292486,24.0906969 60.286252,24.3094447 59.88375,24.4564455 C59.481248,24.6034462 59.0245026,24.6769455 58.5135,24.6769455 L56.613,24.6769455 L56.613,17.8099455 L58.4505,17.8099455 Z M86.448,17.9989455 L86.448,23.6899455 L87.7605,23.6899455 L87.7605,24.6769455 L83.739,24.6769455 L83.739,23.6899455 L85.23,23.6899455 L85.23,19.3009455 L84.0015,19.3009455 L84.0015,18.5449455 C84.3375017,18.4819452 84.6262488,18.4066959 84.86775,18.3191955 C85.1092512,18.231695 85.334999,18.1249461 85.545,17.9989455 L86.448,17.9989455 Z M91.8195,17.9989455 L91.8195,23.6899455 L93.132,23.6899455 L93.132,24.6769455 L89.1105,24.6769455 L89.1105,23.6899455 L90.6015,23.6899455 L90.6015,19.3009455 L89.373,19.3009455 L89.373,18.5449455 C89.7090017,18.4819452 89.9977488,18.4066959 90.23925,18.3191955 C90.4807512,18.231695 90.706499,18.1249461 90.9165,17.9989455 L91.8195,17.9989455 Z M105.954,21.1594455 C105.729999,21.1594455 105.546251,21.2731943 105.40275,21.5006955 C105.259249,21.7281966 105.1875,22.1009429 105.1875,22.6189455 C105.1875,23.1369481 105.259249,23.5131943 105.40275,23.7476955 C105.546251,23.9821967 105.729999,24.0994455 105.954,24.0994455 C106.178001,24.0994455 106.361749,23.9821967 106.50525,23.7476955 C106.648751,23.5131943 106.7205,23.1369481 106.7205,22.6189455 C106.7205,22.1009429 106.648751,21.7281966 106.50525,21.5006955 C106.361749,21.2731943 106.178001,21.1594455 105.954,21.1594455 Z M96.393,18.8179455 C96.2319992,18.8179455 96.0832507,18.8581951 95.94675,18.9386955 C95.8102493,19.0191959 95.6930005,19.1574445 95.595,19.3534455 C95.4969995,19.5494465 95.4200003,19.8066939 95.364,20.1251955 C95.3079997,20.4436971 95.28,20.8374431 95.28,21.3064455 C95.28,21.7824479 95.3079997,22.1814439 95.364,22.5034455 C95.4200003,22.8254471 95.4969995,23.0879445 95.595,23.2909455 C95.6930005,23.4939465 95.8102493,23.639195 95.94675,23.7266955 C96.0832507,23.8141959 96.2319992,23.8579455 96.393,23.8579455 C96.5540008,23.8579455 96.7027493,23.8141959 96.83925,23.7266955 C96.9757507,23.639195 97.0929995,23.4939465 97.191,23.2909455 C97.2890005,23.0879445 97.3659997,22.8254471 97.422,22.5034455 C97.4780003,22.1814439 97.506,21.7824479 97.506,21.3064455 C97.506,20.8374431 97.4780003,20.4436971 97.422,20.1251955 C97.3659997,19.8066939 97.2890005,19.5494465 97.191,19.3534455 C97.0929995,19.1574445 96.9757507,19.0191959 96.83925,18.9386955 C96.7027493,18.8581951 96.5540008,18.8179455 96.393,18.8179455 Z M58.3665,18.7969455 L57.831,18.7969455 L57.831,23.6899455 L58.3665,23.6899455 C59.0665035,23.6899455 59.6037481,23.4886975 59.97825,23.0861955 C60.3527519,22.6836935 60.54,22.0589497 60.54,21.2119455 C60.54,20.3719413 60.3510019,19.7594474 59.973,19.3744455 C59.5949981,18.9894436 59.0595035,18.7969455 58.3665,18.7969455 Z M101.0295,17.6839455 C101.512502,17.6839455 101.906248,17.8711936 102.21075,18.2456955 C102.515252,18.6201974 102.6675,19.153942 102.6675,19.8469455 C102.6675,20.5399489 102.515252,21.0771936 102.21075,21.4586955 C101.906248,21.8401974 101.512502,22.0309455 101.0295,22.0309455 C100.546498,22.0309455 100.152752,21.8401974 99.84825,21.4586955 C99.5437485,21.0771936 99.3915,20.5399489 99.3915,19.8469455 C99.3915,19.153942 99.5437485,18.6201974 99.84825,18.2456955 C100.152752,17.8711936 100.546498,17.6839455 101.0295,17.6839455 Z M68.1645,18.7549455 L68.1225,18.7549455 L67.8285,19.9046955 C67.7304995,20.2861974 67.6255006,20.6589437 67.5135,21.0229455 L67.272,21.8629455 L69.0255,21.8629455 L68.784,21.0229455 C68.6719994,20.6589437 68.5652505,20.2844474 68.46375,19.8994455 L68.1645,18.7549455 Z M101.0295,18.3874455 C100.805499,18.3874455 100.621751,18.5011943 100.47825,18.7286955 C100.334749,18.9561966 100.263,19.3289429 100.263,19.8469455 C100.263,20.3649481 100.334749,20.7411943 100.47825,20.9756955 C100.621751,21.2101967 100.805499,21.3274455 101.0295,21.3274455 C101.253501,21.3274455 101.437249,21.2101967 101.58075,20.9756955 C101.724251,20.7411943 101.796,20.3649481 101.796,19.8469455 C101.796,19.3289429 101.724251,18.9561966 101.58075,18.7286955 C101.437249,18.5011943 101.253501,18.3874455 101.0295,18.3874455 Z M79.401,19.5739455 C79.6250011,19.5739455 79.8104993,19.6509447 79.9575,19.8049455 C80.1045007,19.9589463 80.178,20.1549443 80.178,20.3929455 C80.178,20.6309467 80.1045007,20.8269447 79.9575,20.9809455 C79.8104993,21.1349463 79.6250011,21.2119455 79.401,21.2119455 C79.1769989,21.2119455 78.9897508,21.1349463 78.83925,20.9809455 C78.6887492,20.8269447 78.6135,20.6309467 78.6135,20.3929455 C78.6135,20.1549443 78.6887492,19.9589463 78.83925,19.8049455 C78.9897508,19.6509447 79.1769989,19.5739455 79.401,19.5739455 Z M36.954,18.7864455 L35.9775,18.7864455 L35.9775,21.0229455 L36.954,21.0229455 C37.4230023,21.0229455 37.7817488,20.9249465 38.03025,20.7289455 C38.2787512,20.5329445 38.403,20.2389474 38.403,19.8469455 C38.403,19.4479435 38.2787512,19.1714463 38.03025,19.0174455 C37.7817488,18.8634447 37.4230023,18.7864455 36.954,18.7864455 Z" id="Combined-Shape" fill="#5E5E96" fill-rule="nonzero"></path>
                        <path d="M49.9629,2.97225 C49.17915,3.756 47.62965,4.1295 46.55415,4.16025 C47.9979,3.0855 49.25715,1.689 49.9629,-4.88498131e-14 C50.63865,1.689 51.9744,3.024 53.37165,4.16025 C52.2204,4.068 50.8224,3.78675 49.9629,2.97225" id="Fill-13" fill="#636363"></path>
                        <line x1="49.9629" y1="15.750075" x2="49.9629" y2="2.670825" id="Stroke-12" stroke="#636363" stroke-width="1.5" stroke-linecap="round"></line>
                    </g>
                    <path d="M53.4873,3.573 C53.8023016,3.573 54.0947987,3.63599937 54.3648,3.762 C54.6348014,3.88800063 54.866549,4.07024881 55.06005,4.30875 C55.253551,4.54725119 55.4065494,4.83749829 55.51905,5.1795 C55.6315506,5.52150171 55.6878,5.91299779 55.6878,6.354 C55.6878,6.7950022 55.6315506,7.18874827 55.51905,7.53525 C55.4065494,7.88175173 55.253551,8.17649878 55.06005,8.4195 C54.866549,8.66250121 54.6348014,8.84699937 54.3648,8.973 C54.0947987,9.09900063 53.8023016,9.162 53.4873,9.162 C53.1722984,9.162 52.8798014,9.09900063 52.6098,8.973 C52.3397987,8.84699937 52.108051,8.66250121 51.91455,8.4195 C51.721049,8.17649878 51.5703005,7.88175173 51.4623,7.53525 C51.3542995,7.18874827 51.3003,6.7950022 51.3003,6.354 C51.3003,5.91299779 51.3542995,5.52150171 51.4623,5.1795 C51.5703005,4.83749829 51.721049,4.54725119 51.91455,4.30875 C52.108051,4.07024881 52.3397987,3.88800063 52.6098,3.762 C52.8798014,3.63599937 53.1722984,3.573 53.4873,3.573 Z M53.1903,0.036 L48.4383,9.162 L47.2908,9.162 L52.0428,0.036 L53.1903,0.036 Z M53.4873,4.68 C53.2622989,4.68 53.0710508,4.80149878 52.91355,5.0445 C52.7560492,5.28750121 52.6773,5.72399685 52.6773,6.354 C52.6773,6.98400315 52.7560492,7.42499874 52.91355,7.677 C53.0710508,7.92900126 53.2622989,8.055 53.4873,8.055 C53.7123011,8.055 53.9035492,7.92900126 54.06105,7.677 C54.2185508,7.42499874 54.2973,6.98400315 54.2973,6.354 C54.2973,5.72399685 54.2185508,5.28750121 54.06105,5.0445 C53.9035492,4.80149878 53.7123011,4.68 53.4873,4.68 Z M46.9938,0.036 C47.3088016,0.036 47.6012987,0.09899937 47.8713,0.225 C48.1413014,0.35100063 48.373049,0.533248807 48.56655,0.77175 C48.760051,1.01025119 48.9130494,1.30049829 49.02555,1.6425 C49.1380506,1.98450171 49.1943,2.37599779 49.1943,2.817 C49.1943,3.2580022 49.1380506,3.65174827 49.02555,3.99825 C48.9130494,4.34475173 48.760051,4.63949878 48.56655,4.8825 C48.373049,5.12550121 48.1413014,5.30999937 47.8713,5.436 C47.6012987,5.56200063 47.3088016,5.625 46.9938,5.625 C46.6787984,5.625 46.3863014,5.56200063 46.1163,5.436 C45.8462987,5.30999937 45.614551,5.12550121 45.42105,4.8825 C45.227549,4.63949878 45.0768005,4.34475173 44.9688,3.99825 C44.8607995,3.65174827 44.8068,3.2580022 44.8068,2.817 C44.8068,2.37599779 44.8607995,1.98450171 44.9688,1.6425 C45.0768005,1.30049829 45.227549,1.01025119 45.42105,0.77175 C45.614551,0.533248807 45.8462987,0.35100063 46.1163,0.225 C46.3863014,0.09899937 46.6787984,0.036 46.9938,0.036 Z M46.9938,1.143 C46.7687989,1.143 46.5775508,1.26449878 46.42005,1.5075 C46.2625492,1.75050121 46.1838,2.18699685 46.1838,2.817 C46.1838,3.44700315 46.2625492,3.88799874 46.42005,4.14 C46.5775508,4.39200126 46.7687989,4.518 46.9938,4.518 C47.2188011,4.518 47.4100492,4.39200126 47.56755,4.14 C47.7250508,3.88799874 47.8038,3.44700315 47.8038,2.817 C47.8038,2.18699685 47.7250508,1.75050121 47.56755,1.5075 C47.4100492,1.26449878 47.2188011,1.143 46.9938,1.143 Z" id="Combined-Shape" fill="#FFFFFF" fill-rule="nonzero"></path>
                </g>
                <path d="M11.2365,1.13686838e-13 L7.4355,7.14 L6.8475,7.14 L10.6485,1.13686838e-13 L11.2365,1.13686838e-13 Z M237.6135,1.13686838e-13 L233.8125,7.14 L233.2245,7.14 L237.0255,1.13686838e-13 L237.6135,1.13686838e-13 Z M86.425,1.13686838e-13 L82.624,7.14 L82.036,7.14 L85.837,1.13686838e-13 L86.425,1.13686838e-13 Z M160.6135,1.13686838e-13 L156.8125,7.14 L156.2245,7.14 L160.0255,1.13686838e-13 L160.6135,1.13686838e-13 Z M302.6135,1.13686838e-13 L298.8125,7.14 L298.2245,7.14 L302.0255,1.13686838e-13 L302.6135,1.13686838e-13 Z M73.9165,0.315 L73.9165,1.0605 L71.323,1.0605 L71.1445,3.045 C71.3055008,2.96099958 71.4664992,2.89450025 71.6275,2.8455 C71.7885008,2.79649976 71.970499,2.772 72.1735,2.772 C72.4605014,2.772 72.7299987,2.81399958 72.982,2.898 C73.2340013,2.98200042 73.4544991,3.10974914 73.6435,3.28125 C73.8325009,3.45275086 73.9812495,3.66974869 74.08975,3.93225 C74.1982505,4.19475131 74.2525,4.50799818 74.2525,4.872 C74.2525,5.23600182 74.1895006,5.5579986 74.0635,5.838 C73.9374994,6.1180014 73.7695011,6.35424904 73.5595,6.54675 C73.349499,6.73925096 73.1097513,6.88624949 72.84025,6.98775 C72.5707487,7.08925051 72.2890015,7.14 71.995,7.14 C71.7289987,7.14 71.4857511,7.11375026 71.26525,7.06125 C71.0447489,7.00874974 70.8452509,6.94050042 70.66675,6.8565 C70.4882491,6.77249958 70.3272507,6.67625054 70.18375,6.56775 C70.0402493,6.45924946 69.9125006,6.3455006 69.8005,6.2265 L70.2205,5.6595 C70.416501,5.86250102 70.6492487,6.04099923 70.91875,6.195 C71.1882513,6.34900077 71.518998,6.426 71.911,6.426 C72.114001,6.426 72.3047491,6.38925037 72.48325,6.31575 C72.6617509,6.24224963 72.8174993,6.13900067 72.9505,6.006 C73.0835007,5.87299934 73.1884996,5.71200095 73.2655,5.523 C73.3425004,5.33399906 73.381,5.12400116 73.381,4.893 C73.381,4.43099769 73.2515013,4.0705013 72.9925,3.8115 C72.7334987,3.55249871 72.3870022,3.423 71.953,3.423 C71.7219988,3.423 71.5242508,3.45799965 71.35975,3.528 C71.1952492,3.59800035 71.011501,3.69949934 70.8085,3.8325 L70.3465,3.5385 L70.567,0.315 L73.9165,0.315 Z M225.105,0.315 L225.105,1.0605 L222.5115,1.0605 L222.333,3.045 C222.494001,2.96099958 222.654999,2.89450025 222.816,2.8455 C222.977001,2.79649976 223.158999,2.772 223.362,2.772 C223.649001,2.772 223.918499,2.81399958 224.1705,2.898 C224.422501,2.98200042 224.642999,3.10974914 224.832,3.28125 C225.021001,3.45275086 225.169749,3.66974869 225.27825,3.93225 C225.386751,4.19475131 225.441,4.50799818 225.441,4.872 C225.441,5.23600182 225.378001,5.5579986 225.252,5.838 C225.125999,6.1180014 224.958001,6.35424904 224.748,6.54675 C224.537999,6.73925096 224.298251,6.88624949 224.02875,6.98775 C223.759249,7.08925051 223.477501,7.14 223.1835,7.14 C222.917499,7.14 222.674251,7.11375026 222.45375,7.06125 C222.233249,7.00874974 222.033751,6.94050042 221.85525,6.8565 C221.676749,6.77249958 221.515751,6.67625054 221.37225,6.56775 C221.228749,6.45924946 221.101001,6.3455006 220.989,6.2265 L221.409,5.6595 C221.605001,5.86250102 221.837749,6.04099923 222.10725,6.195 C222.376751,6.34900077 222.707498,6.426 223.0995,6.426 C223.302501,6.426 223.493249,6.38925037 223.67175,6.31575 C223.850251,6.24224963 224.005999,6.13900067 224.139,6.006 C224.272001,5.87299934 224.377,5.71200095 224.454,5.523 C224.531,5.33399906 224.5695,5.12400116 224.5695,4.893 C224.5695,4.43099769 224.440001,4.0705013 224.181,3.8115 C223.921999,3.55249871 223.575502,3.423 223.1415,3.423 C222.910499,3.423 222.712751,3.45799965 222.54825,3.528 C222.383749,3.59800035 222.200001,3.69949934 221.997,3.8325 L221.535,3.5385 L221.7555,0.315 L225.105,0.315 Z M11.457,2.793 C11.9260023,2.793 12.3039986,2.98024813 12.591,3.35475 C12.8780014,3.72925187 13.0215,4.26299654 13.0215,4.956 C13.0215,5.6560035 12.8780014,6.19499811 12.591,6.573 C12.3039986,6.95100189 11.9260023,7.14 11.457,7.14 C10.9809976,7.14 10.6012514,6.95100189 10.31775,6.573 C10.0342486,6.19499811 9.8925,5.6560035 9.8925,4.956 C9.8925,4.26299654 10.0342486,3.72925187 10.31775,3.35475 C10.6012514,2.98024813 10.9809976,2.793 11.457,2.793 Z M151.5295,0.189 C152.201503,0.189 152.726498,0.48299706 153.1045,1.071 C153.482502,1.65900294 153.6715,2.51649437 153.6715,3.6435 C153.6715,4.77050564 153.482502,5.63499699 153.1045,6.237 C152.726498,6.83900301 152.201503,7.14 151.5295,7.14 C150.850497,7.14 150.322002,6.83900301 149.944,6.237 C149.565998,5.63499699 149.377,4.77050564 149.377,3.6435 C149.377,2.51649437 149.565998,1.65900294 149.944,1.071 C150.322002,0.48299706 150.850497,0.189 151.5295,0.189 Z M2.1525,0.189 C2.82450336,0.189 3.34949811,0.48299706 3.7275,1.071 C4.10550189,1.65900294 4.2945,2.51649437 4.2945,3.6435 C4.2945,4.77050564 4.10550189,5.63499699 3.7275,6.237 C3.34949811,6.83900301 2.82450336,7.14 2.1525,7.14 C1.47349661,7.14 0.94500189,6.83900301 0.567,6.237 C0.18899811,5.63499699 6.82121026e-13,4.77050564 6.82121026e-13,3.6435 C6.82121026e-13,2.51649437 0.18899811,1.65900294 0.567,1.071 C0.94500189,0.48299706 1.47349661,0.189 2.1525,0.189 Z M288.341,0.189 C289.013003,0.189 289.537998,0.48299706 289.916,1.071 C290.294002,1.65900294 290.483,2.51649437 290.483,3.6435 C290.483,4.77050564 290.294002,5.63499699 289.916,6.237 C289.537998,6.83900301 289.013003,7.14 288.341,7.14 C287.661997,7.14 287.133502,6.83900301 286.7555,6.237 C286.377498,5.63499699 286.1885,4.77050564 286.1885,3.6435 C286.1885,2.51649437 286.377498,1.65900294 286.7555,1.071 C287.133502,0.48299706 287.661997,0.189 288.341,0.189 Z M293.5295,0.189 C294.201503,0.189 294.726498,0.48299706 295.1045,1.071 C295.482502,1.65900294 295.6715,2.51649437 295.6715,3.6435 C295.6715,4.77050564 295.482502,5.63499699 295.1045,6.237 C294.726498,6.83900301 294.201503,7.14 293.5295,7.14 C292.850497,7.14 292.322002,6.83900301 291.944,6.237 C291.565998,5.63499699 291.377,4.77050564 291.377,3.6435 C291.377,2.51649437 291.565998,1.65900294 291.944,1.071 C292.322002,0.48299706 292.850497,0.189 293.5295,0.189 Z M86.6455,2.793 C87.1145023,2.793 87.4924986,2.98024813 87.7795,3.35475 C88.0665014,3.72925187 88.21,4.26299654 88.21,4.956 C88.21,5.6560035 88.0665014,6.19499811 87.7795,6.573 C87.4924986,6.95100189 87.1145023,7.14 86.6455,7.14 C86.1694976,7.14 85.7897514,6.95100189 85.50625,6.573 C85.2227486,6.19499811 85.081,5.6560035 85.081,4.956 C85.081,4.26299654 85.2227486,3.72925187 85.50625,3.35475 C85.7897514,2.98024813 86.1694976,2.793 86.6455,2.793 Z M302.834,2.793 C303.303002,2.793 303.680999,2.98024813 303.968,3.35475 C304.255001,3.72925187 304.3985,4.26299654 304.3985,4.956 C304.3985,5.6560035 304.255001,6.19499811 303.968,6.573 C303.680999,6.95100189 303.303002,7.14 302.834,7.14 C302.357998,7.14 301.978251,6.95100189 301.69475,6.573 C301.411249,6.19499811 301.2695,5.6560035 301.2695,4.956 C301.2695,4.26299654 301.411249,3.72925187 301.69475,3.35475 C301.978251,2.98024813 302.357998,2.793 302.834,2.793 Z M228.5295,0.189 C229.201503,0.189 229.726498,0.48299706 230.1045,1.071 C230.482502,1.65900294 230.6715,2.51649437 230.6715,3.6435 C230.6715,4.77050564 230.482502,5.63499699 230.1045,6.237 C229.726498,6.83900301 229.201503,7.14 228.5295,7.14 C227.850497,7.14 227.322002,6.83900301 226.944,6.237 C226.565998,5.63499699 226.377,4.77050564 226.377,3.6435 C226.377,2.51649437 226.565998,1.65900294 226.944,1.071 C227.322002,0.48299706 227.850497,0.189 228.5295,0.189 Z M237.834,2.793 C238.303002,2.793 238.680999,2.98024813 238.968,3.35475 C239.255001,3.72925187 239.3985,4.26299654 239.3985,4.956 C239.3985,5.6560035 239.255001,6.19499811 238.968,6.573 C238.680999,6.95100189 238.303002,7.14 237.834,7.14 C237.357998,7.14 236.978251,6.95100189 236.69475,6.573 C236.411249,6.19499811 236.2695,5.6560035 236.2695,4.956 C236.2695,4.26299654 236.411249,3.72925187 236.69475,3.35475 C236.978251,2.98024813 237.357998,2.793 237.834,2.793 Z M77.341,0.189 C78.0130034,0.189 78.5379981,0.48299706 78.916,1.071 C79.2940019,1.65900294 79.483,2.51649437 79.483,3.6435 C79.483,4.77050564 79.2940019,5.63499699 78.916,6.237 C78.5379981,6.83900301 78.0130034,7.14 77.341,7.14 C76.6619966,7.14 76.1335019,6.83900301 75.7555,6.237 C75.3774981,5.63499699 75.1885,4.77050564 75.1885,3.6435 C75.1885,2.51649437 75.3774981,1.65900294 75.7555,1.071 C76.1335019,0.48299706 76.6619966,0.189 77.341,0.189 Z M146.341,0.189 C147.013003,0.189 147.537998,0.48299706 147.916,1.071 C148.294002,1.65900294 148.483,2.51649437 148.483,3.6435 C148.483,4.77050564 148.294002,5.63499699 147.916,6.237 C147.537998,6.83900301 147.013003,7.14 146.341,7.14 C145.661997,7.14 145.133502,6.83900301 144.7555,6.237 C144.377498,5.63499699 144.1885,4.77050564 144.1885,3.6435 C144.1885,2.51649437 144.377498,1.65900294 144.7555,1.071 C145.133502,0.48299706 145.661997,0.189 146.341,0.189 Z M160.834,2.793 C161.303002,2.793 161.680999,2.98024813 161.968,3.35475 C162.255001,3.72925187 162.3985,4.26299654 162.3985,4.956 C162.3985,5.6560035 162.255001,6.19499811 161.968,6.573 C161.680999,6.95100189 161.303002,7.14 160.834,7.14 C160.357998,7.14 159.978251,6.95100189 159.69475,6.573 C159.411249,6.19499811 159.2695,5.6560035 159.2695,4.956 C159.2695,4.26299654 159.411249,3.72925187 159.69475,3.35475 C159.978251,2.98024813 160.357998,2.793 160.834,2.793 Z M282.9425,0.189 C283.565503,0.189 284.055498,0.369248198 284.4125,0.72975 C284.769502,1.0902518 284.948,1.56799703 284.948,2.163 C284.948,2.47800158 284.879751,2.79474841 284.74325,3.11325 C284.606749,3.43175159 284.417751,3.7607483 284.17625,4.10025 C283.934749,4.4397517 283.647752,4.79324816 283.31525,5.16075 L282.791563,5.72906241 C282.608688,5.92418693 282.417501,6.12499897 282.218,6.3315 L282.785,6.2895 C282.981001,6.27549993 283.166499,6.2685 283.3415,6.2685 L285.284,6.2685 L285.284,7.014 L280.958,7.014 L280.958,6.4995 L281.80472,5.64522015 C281.979439,5.46714057 282.145199,5.29690081 282.302,5.1345 C282.694002,4.72849797 283.022999,4.35225173 283.289,4.00575 C283.555001,3.65924827 283.757999,3.34075145 283.898,3.05025 C284.038001,2.75974855 284.108,2.47800137 284.108,2.205 C284.108,1.81999808 284.003001,1.50500123 283.793,1.26 C283.582999,1.01499878 283.264502,0.8925 282.8375,0.8925 C282.557499,0.8925 282.298501,0.971249213 282.0605,1.12875 C281.822499,1.28625079 281.605501,1.47699888 281.4095,1.701 L280.916,1.2075 C281.196001,0.89949846 281.493498,0.652750928 281.8085,0.46725 C282.123502,0.281749073 282.501498,0.189 282.9425,0.189 Z M218.7615,0.315 L218.7615,6.3 L220.1475,6.3 L220.1475,7.014 L216.3675,7.014 L216.3675,6.3 L217.9005,6.3 L217.9005,1.365 L216.6825,1.365 L216.6825,0.8085 C216.990502,0.75249972 217.258249,0.684250402 217.48575,0.60375 C217.713251,0.523249598 217.917999,0.42700056 218.1,0.315 L218.7615,0.315 Z M141.7615,0.315 L141.7615,6.3 L143.1475,6.3 L143.1475,7.014 L139.3675,7.014 L139.3675,6.3 L140.9005,6.3 L140.9005,1.365 L139.6825,1.365 L139.6825,0.8085 C139.990502,0.75249972 140.258249,0.684250402 140.48575,0.60375 C140.713251,0.523249598 140.917999,0.42700056 141.1,0.315 L141.7615,0.315 Z M302.834,3.3285 C302.560999,3.3285 302.340501,3.46324865 302.1725,3.73275 C302.004499,4.00225135 301.9205,4.40999727 301.9205,4.956 C301.9205,5.50200273 302.004499,5.91324862 302.1725,6.18975 C302.340501,6.46625138 302.560999,6.6045 302.834,6.6045 C303.100001,6.6045 303.316999,6.46625138 303.485,6.18975 C303.653001,5.91324862 303.737,5.50200273 303.737,4.956 C303.737,4.40999727 303.653001,4.00225135 303.485,3.73275 C303.316999,3.46324865 303.100001,3.3285 302.834,3.3285 Z M86.6455,3.3285 C86.3724986,3.3285 86.1520008,3.46324865 85.984,3.73275 C85.8159992,4.00225135 85.732,4.40999727 85.732,4.956 C85.732,5.50200273 85.8159992,5.91324862 85.984,6.18975 C86.1520008,6.46625138 86.3724986,6.6045 86.6455,6.6045 C86.9115013,6.6045 87.1284992,6.46625138 87.2965,6.18975 C87.4645008,5.91324862 87.5485,5.50200273 87.5485,4.956 C87.5485,4.40999727 87.4645008,4.00225135 87.2965,3.73275 C87.1284992,3.46324865 86.9115013,3.3285 86.6455,3.3285 Z M11.457,3.3285 C11.1839986,3.3285 10.9635008,3.46324865 10.7955,3.73275 C10.6274992,4.00225135 10.5435,4.40999727 10.5435,4.956 C10.5435,5.50200273 10.6274992,5.91324862 10.7955,6.18975 C10.9635008,6.46625138 11.1839986,6.6045 11.457,6.6045 C11.7230013,6.6045 11.9399992,6.46625138 12.108,6.18975 C12.2760008,5.91324862 12.36,5.50200273 12.36,4.956 C12.36,4.40999727 12.2760008,4.00225135 12.108,3.73275 C11.9399992,3.46324865 11.7230013,3.3285 11.457,3.3285 Z M160.834,3.3285 C160.560999,3.3285 160.340501,3.46324865 160.1725,3.73275 C160.004499,4.00225135 159.9205,4.40999727 159.9205,4.956 C159.9205,5.50200273 160.004499,5.91324862 160.1725,6.18975 C160.340501,6.46625138 160.560999,6.6045 160.834,6.6045 C161.100001,6.6045 161.316999,6.46625138 161.485,6.18975 C161.653001,5.91324862 161.737,5.50200273 161.737,4.956 C161.737,4.40999727 161.653001,4.00225135 161.485,3.73275 C161.316999,3.46324865 161.100001,3.3285 160.834,3.3285 Z M237.834,3.3285 C237.560999,3.3285 237.340501,3.46324865 237.1725,3.73275 C237.004499,4.00225135 236.9205,4.40999727 236.9205,4.956 C236.9205,5.50200273 237.004499,5.91324862 237.1725,6.18975 C237.340501,6.46625138 237.560999,6.6045 237.834,6.6045 C238.100001,6.6045 238.316999,6.46625138 238.485,6.18975 C238.653001,5.91324862 238.737,5.50200273 238.737,4.956 C238.737,4.40999727 238.653001,4.00225135 238.485,3.73275 C238.316999,3.46324865 238.100001,3.3285 237.834,3.3285 Z M77.341,0.882 C77.144999,0.882 76.9665008,0.934499475 76.8055,1.0395 C76.6444992,1.14450053 76.5062506,1.3072489 76.39075,1.52775 C76.2752494,1.7482511 76.1860003,2.03349825 76.123,2.3835 C76.0599997,2.73350175 76.0285,3.15349755 76.0285,3.6435 C76.0285,4.6235049 76.1492488,5.33574778 76.39075,5.78025 C76.6322512,6.22475222 76.948998,6.447 77.341,6.447 C77.537001,6.447 77.7137492,6.39275054 77.87125,6.28425 C78.0287508,6.17574946 78.1652494,6.00775114 78.28075,5.78025 C78.3962506,5.55274886 78.4854997,5.26225177 78.5485,4.90875 C78.6115003,4.55524823 78.643,4.13350245 78.643,3.6435 C78.643,3.15349755 78.6115003,2.73350175 78.5485,2.3835 C78.4854997,2.03349825 78.3962506,1.7482511 78.28075,1.52775 C78.1652494,1.3072489 78.0287508,1.14450053 77.87125,1.0395 C77.7137492,0.934499475 77.537001,0.882 77.341,0.882 Z M293.5295,0.882 C293.333499,0.882 293.155001,0.934499475 292.994,1.0395 C292.832999,1.14450053 292.694751,1.3072489 292.57925,1.52775 C292.463749,1.7482511 292.3745,2.03349825 292.3115,2.3835 C292.2485,2.73350175 292.217,3.15349755 292.217,3.6435 C292.217,4.6235049 292.337749,5.33574778 292.57925,5.78025 C292.820751,6.22475222 293.137498,6.447 293.5295,6.447 C293.725501,6.447 293.902249,6.39275054 294.05975,6.28425 C294.217251,6.17574946 294.353749,6.00775114 294.46925,5.78025 C294.584751,5.55274886 294.674,5.26225177 294.737,4.90875 C294.8,4.55524823 294.8315,4.13350245 294.8315,3.6435 C294.8315,3.15349755 294.8,2.73350175 294.737,2.3835 C294.674,2.03349825 294.584751,1.7482511 294.46925,1.52775 C294.353749,1.3072489 294.217251,1.14450053 294.05975,1.0395 C293.902249,0.934499475 293.725501,0.882 293.5295,0.882 Z M2.1525,0.882 C1.95649902,0.882 1.77800081,0.934499475 1.617,1.0395 C1.4559992,1.14450053 1.31775058,1.3072489 1.20225,1.52775 C1.08674942,1.7482511 0.997500315,2.03349825 0.9345,2.3835 C0.871499685,2.73350175 0.84,3.15349755 0.84,3.6435 C0.84,4.6235049 0.960748793,5.33574778 1.20225,5.78025 C1.44375121,6.22475222 1.76049804,6.447 2.1525,6.447 C2.34850098,6.447 2.52524921,6.39275054 2.68275,6.28425 C2.84025079,6.17574946 2.97674942,6.00775114 3.09225,5.78025 C3.20775058,5.55274886 3.29699969,5.26225177 3.36,4.90875 C3.42300032,4.55524823 3.4545,4.13350245 3.4545,3.6435 C3.4545,3.15349755 3.42300032,2.73350175 3.36,2.3835 C3.29699969,2.03349825 3.20775058,1.7482511 3.09225,1.52775 C2.97674942,1.3072489 2.84025079,1.14450053 2.68275,1.0395 C2.52524921,0.934499475 2.34850098,0.882 2.1525,0.882 Z M228.5295,0.882 C228.333499,0.882 228.155001,0.934499475 227.994,1.0395 C227.832999,1.14450053 227.694751,1.3072489 227.57925,1.52775 C227.463749,1.7482511 227.3745,2.03349825 227.3115,2.3835 C227.2485,2.73350175 227.217,3.15349755 227.217,3.6435 C227.217,4.6235049 227.337749,5.33574778 227.57925,5.78025 C227.820751,6.22475222 228.137498,6.447 228.5295,6.447 C228.725501,6.447 228.902249,6.39275054 229.05975,6.28425 C229.217251,6.17574946 229.353749,6.00775114 229.46925,5.78025 C229.584751,5.55274886 229.674,5.26225177 229.737,4.90875 C229.8,4.55524823 229.8315,4.13350245 229.8315,3.6435 C229.8315,3.15349755 229.8,2.73350175 229.737,2.3835 C229.674,2.03349825 229.584751,1.7482511 229.46925,1.52775 C229.353749,1.3072489 229.217251,1.14450053 229.05975,1.0395 C228.902249,0.934499475 228.725501,0.882 228.5295,0.882 Z M146.341,0.882 C146.144999,0.882 145.966501,0.934499475 145.8055,1.0395 C145.644499,1.14450053 145.506251,1.3072489 145.39075,1.52775 C145.275249,1.7482511 145.186,2.03349825 145.123,2.3835 C145.06,2.73350175 145.0285,3.15349755 145.0285,3.6435 C145.0285,4.6235049 145.149249,5.33574778 145.39075,5.78025 C145.632251,6.22475222 145.948998,6.447 146.341,6.447 C146.537001,6.447 146.713749,6.39275054 146.87125,6.28425 C147.028751,6.17574946 147.165249,6.00775114 147.28075,5.78025 C147.396251,5.55274886 147.4855,5.26225177 147.5485,4.90875 C147.6115,4.55524823 147.643,4.13350245 147.643,3.6435 C147.643,3.15349755 147.6115,2.73350175 147.5485,2.3835 C147.4855,2.03349825 147.396251,1.7482511 147.28075,1.52775 C147.165249,1.3072489 147.028751,1.14450053 146.87125,1.0395 C146.713749,0.934499475 146.537001,0.882 146.341,0.882 Z M288.341,0.882 C288.144999,0.882 287.966501,0.934499475 287.8055,1.0395 C287.644499,1.14450053 287.506251,1.3072489 287.39075,1.52775 C287.275249,1.7482511 287.186,2.03349825 287.123,2.3835 C287.06,2.73350175 287.0285,3.15349755 287.0285,3.6435 C287.0285,4.6235049 287.149249,5.33574778 287.39075,5.78025 C287.632251,6.22475222 287.948998,6.447 288.341,6.447 C288.537001,6.447 288.713749,6.39275054 288.87125,6.28425 C289.028751,6.17574946 289.165249,6.00775114 289.28075,5.78025 C289.396251,5.55274886 289.4855,5.26225177 289.5485,4.90875 C289.6115,4.55524823 289.643,4.13350245 289.643,3.6435 C289.643,3.15349755 289.6115,2.73350175 289.5485,2.3835 C289.4855,2.03349825 289.396251,1.7482511 289.28075,1.52775 C289.165249,1.3072489 289.028751,1.14450053 288.87125,1.0395 C288.713749,0.934499475 288.537001,0.882 288.341,0.882 Z M151.5295,0.882 C151.333499,0.882 151.155001,0.934499475 150.994,1.0395 C150.832999,1.14450053 150.694751,1.3072489 150.57925,1.52775 C150.463749,1.7482511 150.3745,2.03349825 150.3115,2.3835 C150.2485,2.73350175 150.217,3.15349755 150.217,3.6435 C150.217,4.6235049 150.337749,5.33574778 150.57925,5.78025 C150.820751,6.22475222 151.137498,6.447 151.5295,6.447 C151.725501,6.447 151.902249,6.39275054 152.05975,6.28425 C152.217251,6.17574946 152.353749,6.00775114 152.46925,5.78025 C152.584751,5.55274886 152.674,5.26225177 152.737,4.90875 C152.8,4.55524823 152.8315,4.13350245 152.8315,3.6435 C152.8315,3.15349755 152.8,2.73350175 152.737,2.3835 C152.674,2.03349825 152.584751,1.7482511 152.46925,1.52775 C152.353749,1.3072489 152.217251,1.14450053 152.05975,1.0395 C151.902249,0.934499475 151.725501,0.882 151.5295,0.882 Z M81.847,5.68434189e-14 C82.3160023,5.68434189e-14 82.6939986,0.187248128 82.981,0.56175 C83.2680014,0.936251873 83.4115,1.46999654 83.4115,2.163 C83.4115,2.8630035 83.2680014,3.40199811 82.981,3.78 C82.6939986,4.15800189 82.3160023,4.347 81.847,4.347 C81.3709976,4.347 80.9912514,4.15800189 80.70775,3.78 C80.4242486,3.40199811 80.2825,2.8630035 80.2825,2.163 C80.2825,1.46999654 80.4242486,0.936251873 80.70775,0.56175 C80.9912514,0.187248128 81.3709976,5.68434189e-14 81.847,5.68434189e-14 Z M233.0355,5.68434189e-14 C233.504502,5.68434189e-14 233.882499,0.187248128 234.1695,0.56175 C234.456501,0.936251873 234.6,1.46999654 234.6,2.163 C234.6,2.8630035 234.456501,3.40199811 234.1695,3.78 C233.882499,4.15800189 233.504502,4.347 233.0355,4.347 C232.559498,4.347 232.179751,4.15800189 231.89625,3.78 C231.612749,3.40199811 231.471,2.8630035 231.471,2.163 C231.471,1.46999654 231.612749,0.936251873 231.89625,0.56175 C232.179751,0.187248128 232.559498,5.68434189e-14 233.0355,5.68434189e-14 Z M6.6585,5.68434189e-14 C7.12750235,5.68434189e-14 7.50549857,0.187248128 7.7925,0.56175 C8.07950144,0.936251873 8.223,1.46999654 8.223,2.163 C8.223,2.8630035 8.07950144,3.40199811 7.7925,3.78 C7.50549857,4.15800189 7.12750235,4.347 6.6585,4.347 C6.18249762,4.347 5.80275142,4.15800189 5.51925,3.78 C5.23574858,3.40199811 5.094,2.8630035 5.094,2.163 C5.094,1.46999654 5.23574858,0.936251873 5.51925,0.56175 C5.80275142,0.187248128 6.18249762,5.68434189e-14 6.6585,5.68434189e-14 Z M298.0355,5.68434189e-14 C298.504502,5.68434189e-14 298.882499,0.187248128 299.1695,0.56175 C299.456501,0.936251873 299.6,1.46999654 299.6,2.163 C299.6,2.8630035 299.456501,3.40199811 299.1695,3.78 C298.882499,4.15800189 298.504502,4.347 298.0355,4.347 C297.559498,4.347 297.179751,4.15800189 296.89625,3.78 C296.612749,3.40199811 296.471,2.8630035 296.471,2.163 C296.471,1.46999654 296.612749,0.936251873 296.89625,0.56175 C297.179751,0.187248128 297.559498,5.68434189e-14 298.0355,5.68434189e-14 Z M156.0355,5.68434189e-14 C156.504502,5.68434189e-14 156.882499,0.187248128 157.1695,0.56175 C157.456501,0.936251873 157.6,1.46999654 157.6,2.163 C157.6,2.8630035 157.456501,3.40199811 157.1695,3.78 C156.882499,4.15800189 156.504502,4.347 156.0355,4.347 C155.559498,4.347 155.179751,4.15800189 154.89625,3.78 C154.612749,3.40199811 154.471,2.8630035 154.471,2.163 C154.471,1.46999654 154.612749,0.936251873 154.89625,0.56175 C155.179751,0.187248128 155.559498,5.68434189e-14 156.0355,5.68434189e-14 Z M6.6585,0.5355 C6.38549864,0.5355 6.16500084,0.670248653 5.997,0.93975 C5.82899916,1.20925135 5.745,1.61699727 5.745,2.163 C5.745,2.70900273 5.82899916,3.12024862 5.997,3.39675 C6.16500084,3.67325138 6.38549864,3.8115 6.6585,3.8115 C6.92450133,3.8115 7.14149916,3.67325138 7.3095,3.39675 C7.47750084,3.12024862 7.5615,2.70900273 7.5615,2.163 C7.5615,1.61699727 7.47750084,1.20925135 7.3095,0.93975 C7.14149916,0.670248653 6.92450133,0.5355 6.6585,0.5355 Z M81.847,0.5355 C81.5739986,0.5355 81.3535008,0.670248653 81.1855,0.93975 C81.0174992,1.20925135 80.9335,1.61699727 80.9335,2.163 C80.9335,2.70900273 81.0174992,3.12024862 81.1855,3.39675 C81.3535008,3.67325138 81.5739986,3.8115 81.847,3.8115 C82.1130013,3.8115 82.3299992,3.67325138 82.498,3.39675 C82.6660008,3.12024862 82.75,2.70900273 82.75,2.163 C82.75,1.61699727 82.6660008,1.20925135 82.498,0.93975 C82.3299992,0.670248653 82.1130013,0.5355 81.847,0.5355 Z M233.0355,0.5355 C232.762499,0.5355 232.542001,0.670248653 232.374,0.93975 C232.205999,1.20925135 232.122,1.61699727 232.122,2.163 C232.122,2.70900273 232.205999,3.12024862 232.374,3.39675 C232.542001,3.67325138 232.762499,3.8115 233.0355,3.8115 C233.301501,3.8115 233.518499,3.67325138 233.6865,3.39675 C233.854501,3.12024862 233.9385,2.70900273 233.9385,2.163 C233.9385,1.61699727 233.854501,1.20925135 233.6865,0.93975 C233.518499,0.670248653 233.301501,0.5355 233.0355,0.5355 Z M156.0355,0.5355 C155.762499,0.5355 155.542001,0.670248653 155.374,0.93975 C155.205999,1.20925135 155.122,1.61699727 155.122,2.163 C155.122,2.70900273 155.205999,3.12024862 155.374,3.39675 C155.542001,3.67325138 155.762499,3.8115 156.0355,3.8115 C156.301501,3.8115 156.518499,3.67325138 156.6865,3.39675 C156.854501,3.12024862 156.9385,2.70900273 156.9385,2.163 C156.9385,1.61699727 156.854501,1.20925135 156.6865,0.93975 C156.518499,0.670248653 156.301501,0.5355 156.0355,0.5355 Z M298.0355,0.5355 C297.762499,0.5355 297.542001,0.670248653 297.374,0.93975 C297.205999,1.20925135 297.122,1.61699727 297.122,2.163 C297.122,2.70900273 297.205999,3.12024862 297.374,3.39675 C297.542001,3.67325138 297.762499,3.8115 298.0355,3.8115 C298.301501,3.8115 298.518499,3.67325138 298.6865,3.39675 C298.854501,3.12024862 298.9385,2.70900273 298.9385,2.163 C298.9385,1.61699727 298.854501,1.20925135 298.6865,0.93975 C298.518499,0.670248653 298.301501,0.5355 298.0355,0.5355 Z" id="Combined-Shape" fill="#848484" fill-rule="nonzero"></path>
            </g>
        </g>
    </g>
</svg>