<?xml version="1.0" encoding="UTF-8"?>
<svg width="300px" height="71px" viewBox="0 0 300 71" version="1.1" xmlns="http://www.w3.org/2000/svg" xmlns:xlink="http://www.w3.org/1999/xlink">
    <!-- Generator: Sketch 59.1 (86144) - https://sketch.com -->
    <title>Group 48</title>
    <desc>Created with Sketch.</desc>
    <defs>
        <polygon id="path-1" points="0 0.000225 8.985 0.000225 8.985 20.25 0 20.25"></polygon>
        <polygon id="path-3" points="0 71.047875 299.70225 71.047875 299.70225 0.000375 0 0.000375"></polygon>
    </defs>
    <g id="Desktop" stroke="none" stroke-width="1" fill="none" fill-rule="evenodd">
        <g id="Homelessness-Section-3-8" transform="translate(-843.000000, -2124.000000)">
            <g id="Group-4" transform="translate(843.000000, 2124.000000)">
                <g id="Group-67" transform="translate(0.750000, 11.250000)">
                    <polygon id="Fill-1" fill="#E0E0E0" points="0.75675 18.633375 297.75675 18.633375 297.75675 8.883375 0.75675 8.883375"></polygon>
                    <line x1="0.7566" y1="26.63745" x2="0.7566" y2="0.38745" id="Stroke-2" stroke="#D1D1D1" stroke-width="0.75" stroke-linecap="round"></line>
                    <line x1="75.0066" y1="26.5086" x2="75.0066" y2="0.2586" id="Stroke-3" stroke="#D1D1D1" stroke-width="0.75" stroke-linecap="round"></line>
                    <line x1="149.2566" y1="26.63745" x2="149.2566" y2="0.38745" id="Stroke-4" stroke="#D1D1D1" stroke-width="0.75" stroke-linecap="round"></line>
                    <line x1="223.5066" y1="26.63745" x2="223.5066" y2="0.38745" id="Stroke-5" stroke="#D1D1D1" stroke-width="0.75" stroke-linecap="round"></line>
                    <text id="-" font-family="SourceSansPro-Regular, Source Sans Pro" font-size="9" font-weight="normal"></text>
                </g>
                <g id="Group-3" transform="translate(1.500000, 15.750000)">
                    <mask id="mask-2" fill="white">
                        <use xlink:href="#path-1"></use>
                    </mask>
                    <g id="Clip-2"></g>
                    <path d="M6.819975,20.250225 L2.165475,20.250225 C0.974475,20.250225 -0.000525,19.275225 -0.000525,18.084975 L-0.000525,2.165475 C-0.000525,0.974475 0.974475,0.000225 2.165475,0.000225 L6.819975,0.000225 C8.010225,0.000225 8.985225,0.974475 8.985225,2.165475 L8.985225,18.084975 C8.985225,19.275225 8.010225,20.250225 6.819975,20.250225" id="Fill-1" fill="#789E25" mask="url(#mask-2)"></path>
                </g>
                <g id="Group-5" transform="translate(10.500000, 12.000000)">
                    <path d="M267.75,22.37085 L3.75,22.37085 C1.6875,22.37085 0,20.68335 0,18.62085 L0,8.87085 C0,6.80835 1.6875,5.12085 3.75,5.12085 L267.75,5.12085 C269.8125,5.12085 271.5,6.80835 271.5,8.87085 L271.5,18.62085 C271.5,20.68335 269.8125,22.37085 267.75,22.37085" id="Fill-3" fill="#D5E8AA"></path>
                    <line x1="288" y1="26.25" x2="288" y2="0" id="Stroke-1" stroke="#D1D1D1" stroke-width="0.75" stroke-linecap="round"></line>
                </g>
                <g id="Group-51">
                    <path d="M1.716825,65.7246 C1.716825,65.16435 1.798575,64.6626 1.963575,64.21785 C2.128575,63.7731 2.354325,63.3966 2.640825,63.08835 C2.928075,62.78085 3.264075,62.54685 3.648825,62.3856 C4.034325,62.22435 4.447575,62.1441 4.888575,62.1441 C5.307825,62.1441 5.684325,62.23185 6.016575,62.4066 C6.349575,62.5821 6.624075,62.7846 6.840825,63.0156 L6.158325,63.7716 C5.982825,63.59685 5.796075,63.45885 5.596575,63.35685 C5.397075,63.2556 5.164575,63.2046 4.898325,63.2046 C4.611075,63.2046 4.350825,63.26235 4.116075,63.37785 C3.882075,63.4926 3.678825,63.6576 3.507825,63.8706 C3.335325,64.08435 3.202575,64.34535 3.108075,64.6536 C3.013575,64.9611 2.966325,65.3076 2.966325,65.6931 C2.966325,66.47685 3.136575,67.0911 3.475575,67.53585 C3.815325,67.9806 4.275075,68.2026 4.857075,68.2026 C5.164575,68.2026 5.432325,68.14335 5.659575,68.02335 C5.887575,67.90485 6.099075,67.7376 6.294825,67.5201 L6.978075,68.2656 C6.697575,68.58735 6.378825,68.8341 6.021825,69.00585 C5.665575,69.1776 5.268825,69.2631 4.835325,69.2631 C4.394325,69.2631 3.984825,69.18585 3.607575,69.0321 C3.229575,68.87835 2.899575,68.65035 2.619825,68.3496 C2.340075,68.04885 2.119575,67.6776 1.958325,67.2366 C1.797075,66.7956 1.716825,66.2916 1.716825,65.7246" id="Fill-1" fill="#3F3F3F"></path>
                    <polygon id="Fill-3" fill="#3F3F3F" points="7.9116 62.2698 9.1296 62.2698 9.1296 68.1078 11.98635 68.1078 11.98635 69.1368 7.9116 69.1368"></polygon>
                    <path d="M12.59475,62.2698 L13.81275,62.2698 L13.81275,66.21855 C13.81275,66.58905 13.84575,66.90255 13.9125,67.1583 C13.97925,67.4133 14.07375,67.61805 14.196,67.7718 C14.31825,67.9263 14.46375,68.0358 14.63175,68.10255 C14.79975,68.1693 14.98875,68.2023 15.19875,68.2023 C15.40875,68.2023 15.6015,68.1693 15.77625,68.10255 C15.95175,68.0358 16.10175,67.9263 16.22775,67.7718 C16.35375,67.61805 16.452,67.4133 16.52175,67.1583 C16.5915,66.90255 16.62675,66.58905 16.62675,66.21855 L16.62675,62.2698 L17.79225,62.2698 L17.79225,66.12405 C17.79225,66.69105 17.733,67.1718 17.61375,67.56705 C17.4945,67.96305 17.322,68.2863 17.094,68.5383 C16.866,68.7903 16.59375,68.97405 16.275,69.08955 C15.95625,69.20505 15.59775,69.2628 15.19875,69.2628 C14.79975,69.2628 14.44125,69.20505 14.1225,69.08955 C13.80375,68.97405 13.53075,68.7903 13.3035,68.5383 C13.07625,68.2863 12.90075,67.96305 12.7785,67.56705 C12.65625,67.1718 12.59475,66.69105 12.59475,66.12405 L12.59475,62.2698 Z" id="Fill-5" fill="#3F3F3F"></path>
                    <path d="M19.4304,67.4253 C19.6749,67.65705 19.9554,67.8438 20.2704,67.98705 C20.5854,68.1303 20.9004,68.2023 21.2154,68.2023 C21.6069,68.2023 21.90465,68.12205 22.1079,67.9608 C22.31115,67.8003 22.4124,67.58655 22.4124,67.3203 C22.4124,67.1808 22.3854,67.06155 22.33365,66.9633 C22.28115,66.8658 22.20765,66.7803 22.11315,66.70605 C22.01865,66.63255 21.9069,66.56505 21.77715,66.50205 C21.6474,66.43905 21.50565,66.37605 21.3519,66.31305 L20.4069,65.90355 C20.2389,65.83305 20.0724,65.7453 19.90815,65.6403 C19.74315,65.5353 19.59465,65.4093 19.4619,65.2623 C19.3284,65.1153 19.2219,64.94355 19.14165,64.74855 C19.0614,64.55205 19.0209,64.3278 19.0209,64.0758 C19.0209,63.8028 19.07865,63.5493 19.19415,63.3153 C19.30965,63.08055 19.46865,62.8758 19.6719,62.7003 C19.87515,62.52555 20.11815,62.38905 20.40165,62.2908 C20.68515,62.19255 20.9949,62.1438 21.3309,62.1438 C21.72915,62.1438 22.11465,62.22255 22.4859,62.38005 C22.8564,62.53755 23.17515,62.7498 23.4414,63.0153 L22.82115,63.7923 C22.59765,63.6108 22.36665,63.46755 22.1289,63.3618 C21.8904,63.2568 21.6249,63.2043 21.3309,63.2043 C21.00165,63.2043 20.73915,63.2763 20.54265,63.41955 C20.34765,63.56355 20.2494,63.7608 20.2494,64.0128 C20.2494,64.1463 20.2794,64.25955 20.33865,64.35405 C20.3979,64.44855 20.47815,64.5333 20.58015,64.60605 C20.6814,64.67955 20.7984,64.7463 20.9319,64.80555 C21.06465,64.86555 21.20115,64.9233 21.3414,64.9788 L22.2759,65.3673 C22.4784,65.4513 22.6644,65.54955 22.8324,65.6613 C23.0004,65.7738 23.14515,65.90355 23.26815,66.0498 C23.3904,66.1968 23.4864,66.36705 23.5569,66.5598 C23.62665,66.7518 23.6619,66.9738 23.6619,67.2258 C23.6619,67.50555 23.60565,67.7688 23.4939,68.0133 C23.38215,68.25855 23.2194,68.4738 23.00565,68.6598 C22.7919,68.84505 22.53315,68.99205 22.2279,69.10005 C21.92415,69.2088 21.57915,69.2628 21.1944,69.2628 C20.7324,69.2628 20.28615,69.17505 19.8549,69.00105 C19.42515,68.82555 19.0449,68.57655 18.7164,68.2548 L19.4304,67.4253 Z" id="Fill-7" fill="#3F3F3F"></path>
                    <polygon id="Fill-9" fill="#3F3F3F" points="25.877175 63.298875 23.892675 63.298875 23.892675 62.269875 29.080425 62.269875 29.080425 63.298875 27.095175 63.298875 27.095175 69.136875 25.877175 69.136875"></polygon>
                    <polygon id="Fill-11" fill="#3F3F3F" points="30.014625 62.2698 34.151625 62.2698 34.151625 63.2988 31.232625 63.2988 31.232625 65.0523 33.700125 65.0523 33.700125 66.0813 31.232625 66.0813 31.232625 68.1078 34.255875 68.1078 34.255875 69.1368 30.014625 69.1368"></polygon>
                    <path d="M36.671625,65.48295 L37.648125,65.48295 C38.116875,65.48295 38.475375,65.3847 38.723625,65.18895 C38.971875,64.9932 39.096375,64.6992 39.096375,64.30695 C39.096375,63.90795 38.971875,63.6312 38.723625,63.47745 C38.475375,63.3237 38.116875,63.2472 37.648125,63.2472 L36.671625,63.2472 L36.671625,65.48295 Z M39.202125,69.13695 L37.720875,66.44895 L36.671625,66.44895 L36.671625,69.13695 L35.453625,69.13695 L35.453625,62.26995 L37.774125,62.26995 C38.130375,62.26995 38.463375,62.3052 38.771625,62.37495 C39.079125,62.4447 39.344625,62.5587 39.568875,62.71695 C39.793125,62.8737 39.969375,63.0822 40.099125,63.3417 C40.228875,63.5997 40.294125,63.9222 40.294125,64.30695 C40.294125,64.83195 40.169625,65.2557 39.921375,65.57745 C39.672375,65.89995 39.342375,66.1302 38.929125,66.27045 L40.566375,69.13695 L39.202125,69.13695 Z" id="Fill-13" fill="#3F3F3F"></path>
                    <path d="M43.4751,62.2698 L44.8191,62.2698 L46.0581,65.6508 L46.5096,66.9528 L46.55235,66.9528 L46.9926,65.6508 L48.2106,62.2698 L49.5546,62.2698 L49.5546,69.1368 L48.4101,69.1368 L48.4101,65.99805 C48.4101,65.8368 48.41535,65.6613 48.4266,65.47305 C48.43635,65.28405 48.44835,65.0928 48.4626,64.90005 C48.47685,64.70805 48.4941,64.51905 48.5151,64.33305 C48.5361,64.1478 48.55335,63.97455 48.5676,63.81405 L48.5256,63.81405 L47.9691,65.37855 L46.7826,68.49705 L46.2156,68.49705 L45.0291,65.37855 L44.4831,63.81405 L44.4411,63.81405 C44.45535,63.97455 44.4711,64.1478 44.4891,64.33305 C44.5056,64.51905 44.52285,64.70805 44.54085,64.90005 C44.5581,65.0928 44.57235,65.28405 44.5836,65.47305 C44.59335,65.6613 44.5986,65.8368 44.5986,65.99805 L44.5986,69.1368 L43.4751,69.1368 L43.4751,62.2698 Z" id="Fill-15" fill="#3F3F3F"></path>
                    <polygon id="Fill-17" fill="#3F3F3F" points="51.0879 62.2698 55.2249 62.2698 55.2249 63.2988 52.3059 63.2988 52.3059 65.0523 54.7734 65.0523 54.7734 66.0813 52.3059 66.0813 52.3059 68.1078 55.32915 68.1078 55.32915 69.1368 51.0879 69.1368"></polygon>
                    <path d="M58.28025,68.14965 C58.98,68.14965 59.517,67.94865 59.89125,67.5459 C60.2655,67.1439 60.453,66.51915 60.453,65.67165 C60.453,64.83165 60.26475,64.21965 59.88675,63.83415 C59.50875,63.4494 58.97325,63.2574 58.28025,63.2574 L57.74475,63.2574 L57.74475,68.14965 L58.28025,68.14965 Z M56.52675,62.26965 L58.3635,62.26965 C59.41425,62.26965 60.23325,62.55315 60.82125,63.12015 C61.40925,63.6879 61.7025,64.5384 61.7025,65.67165 C61.7025,66.23865 61.6275,66.73965 61.4775,67.17315 C61.32675,67.6074 61.10925,67.96965 60.8265,68.2599 C60.543,68.5509 60.20025,68.76915 59.79675,68.91615 C59.39475,69.0639 58.938,69.13665 58.4265,69.13665 L56.52675,69.13665 L56.52675,62.26965 Z" id="Fill-19" fill="#3F3F3F"></path>
                    <mask id="mask-4" fill="white">
                        <use xlink:href="#path-3"></use>
                    </mask>
                    <g id="Clip-22"></g>
                    <polygon id="Fill-21" fill="#3F3F3F" mask="url(#mask-4)" points="62.87925 69.136875 64.09725 69.136875 64.09725 62.269875 62.87925 62.269875"></polygon>
                    <path d="M68.54955,66.323025 L68.30805,65.483025 C68.19555,65.119275 68.08905,64.745025 67.9878,64.359525 C67.8858,63.974775 67.78605,63.593025 67.68855,63.214275 L67.64655,63.214275 C67.5483,63.599775 67.45005,63.983025 67.3518,64.364775 C67.25355,64.745775 67.1493,65.119275 67.0368,65.483025 L66.7953,66.323025 L68.54955,66.323025 Z M68.8218,67.278525 L66.5118,67.278525 L65.9763,69.137025 L64.73805,69.137025 L66.9738,62.270025 L68.40255,62.270025 L70.6383,69.137025 L69.3573,69.137025 L68.8218,67.278525 Z" id="Fill-23" fill="#3F3F3F" mask="url(#mask-4)"></path>
                    <path d="M71.279325,62.2698 L72.528825,62.2698 L74.670075,66.1338 L75.374325,67.59405 L75.416325,67.59405 C75.388575,67.2363 75.354825,66.85305 75.316575,66.44355 C75.277575,66.0348 75.258825,65.63655 75.258825,65.25255 L75.258825,62.2698 L76.423575,62.2698 L76.423575,69.1368 L75.174075,69.1368 L73.032825,65.2728 L72.328575,63.81405 L72.287325,63.81405 C72.315075,64.1778 72.348075,64.55955 72.387075,64.9578 C72.425325,65.3568 72.444825,65.74905 72.444825,66.1338 L72.444825,69.1368 L71.279325,69.1368 L71.279325,62.2698 Z" id="Fill-24" fill="#3F3F3F" mask="url(#mask-4)"></path>
                    <path d="M77.746575,68.4441 C77.746575,68.20635 77.822325,68.00985 77.973075,67.8561 C78.123075,67.70235 78.310575,67.6251 78.534825,67.6251 C78.758325,67.6251 78.944325,67.70235 79.090575,67.8561 C79.237575,68.00985 79.311075,68.20635 79.311075,68.4441 C79.311075,68.68185 79.237575,68.87835 79.090575,69.0321 C78.944325,69.18585 78.758325,69.2631 78.534825,69.2631 C78.310575,69.2631 78.123075,69.18585 77.973075,69.0321 C77.822325,68.87835 77.746575,68.68185 77.746575,68.4441 M77.746575,64.8531 C77.746575,64.61535 77.822325,64.41885 77.973075,64.2651 C78.123075,64.11135 78.310575,64.0341 78.534825,64.0341 C78.758325,64.0341 78.944325,64.11135 79.090575,64.2651 C79.237575,64.41885 79.311075,64.61535 79.311075,64.8531 C79.311075,65.09085 79.237575,65.28735 79.090575,65.4411 C78.944325,65.59485 78.758325,65.6721 78.534825,65.6721 C78.310575,65.6721 78.123075,65.59485 77.973075,65.4411 C77.822325,65.28735 77.746575,65.09085 77.746575,64.8531" id="Fill-25" fill="#3F3F3F" mask="url(#mask-4)"></path>
                    <path d="M82.48245,68.14965 L83.9727,68.14965 L83.9727,63.76065 L82.74495,63.76065 L82.74495,63.0054 C83.08095,62.9424 83.3697,62.86665 83.6112,62.77965 C83.85195,62.6919 84.07845,62.58465 84.2877,62.45865 L85.1907,62.45865 L85.1907,68.14965 L86.5032,68.14965 L86.5032,69.13665 L82.48245,69.13665 L82.48245,68.14965 Z" id="Fill-26" fill="#3F3F3F" mask="url(#mask-4)"></path>
                    <path d="M87.375,70.386525 C87.711,70.253025 87.972,70.075275 88.15725,69.851025 C88.3425,69.626775 88.4355,69.381525 88.4355,69.116025 L88.341,69.116025 C88.1385,69.116025 87.95775,69.051525 87.80025,68.921775 C87.64275,68.792025 87.564,68.608275 87.564,68.370525 C87.564,68.147025 87.64275,67.966275 87.80025,67.829775 C87.95775,67.693275 88.14825,67.625025 88.3725,67.625025 C88.65975,67.625025 88.88175,67.733775 89.03925,67.950525 C89.19675,68.167275 89.2755,68.471775 89.2755,68.864025 C89.2755,69.381525 89.13375,69.830025 88.85025,70.208025 C88.56675,70.586025 88.1625,70.866525 87.6375,71.048025 L87.375,70.386525 Z" id="Fill-27" fill="#3F3F3F" mask="url(#mask-4)"></path>
                    <path d="M90.36765,67.56225 C90.5709,67.75125 90.79815,67.91775 91.05015,68.061 C91.30215,68.20425 91.59615,68.2755 91.93215,68.2755 C92.31015,68.2755 92.6199,68.1645 92.8614,67.94025 C93.1029,67.716 93.2244,67.401 93.2244,66.9945 C93.2244,66.59625 93.1119,66.288 92.88765,66.07125 C92.66415,65.8545 92.3664,65.745 91.99515,65.745 C91.7784,65.745 91.59615,65.775 91.44915,65.83425 C91.30215,65.89425 91.1274,65.99025 90.92415,66.12375 L90.34665,65.75625 L90.54615,62.4585 L94.11615,62.4585 L94.11615,63.47775 L91.59615,63.47775 L91.45965,65.09475 C91.5999,65.02425 91.7379,64.97025 91.8744,64.93125 C92.0109,64.893 92.16615,64.87425 92.34165,64.87425 C92.6289,64.87425 92.89965,64.91625 93.1554,65.00025 C93.41115,65.0835 93.63315,65.21175 93.82215,65.3835 C94.01115,65.5545 94.1619,65.77125 94.27365,66.0345 C94.3854,66.297 94.44165,66.60675 94.44165,66.963 C94.44165,67.32825 94.37715,67.653 94.2474,67.94025 C94.11765,68.2275 93.94515,68.46825 93.72765,68.66475 C93.51015,68.8605 93.2604,69.00975 92.9769,69.11025 C92.69415,69.21225 92.3979,69.26325 92.08965,69.26325 C91.5504,69.26325 91.0974,69.17025 90.7299,68.98425 C90.3624,68.799 90.0564,68.58375 89.81115,68.3385 L90.36765,67.56225 Z" id="Fill-28" fill="#3F3F3F" mask="url(#mask-4)"></path>
                    <path d="M97.875,65.367225 C98.0565,65.185725 98.19525,65.000475 98.28975,64.811475 C98.38425,64.622475 98.4315,64.422225 98.4315,64.212225 C98.4315,63.918225 98.34525,63.675225 98.1735,63.482475 C98.0025,63.289725 97.7595,63.194475 97.4445,63.194475 C97.185,63.194475 96.96825,63.272475 96.7935,63.429975 C96.618,63.587475 96.531,63.813975 96.531,64.107225 C96.531,64.275225 96.5655,64.422225 96.636,64.548225 C96.705,64.674225 96.80175,64.785225 96.924,64.879725 C97.047,64.974225 97.18875,65.061225 97.35,65.141475 C97.51125,65.222475 97.686,65.297475 97.875,65.367225 M96.2265,67.299225 C96.2265,67.635225 96.345,67.903725 96.58275,68.102475 C96.82125,68.301975 97.1115,68.401725 97.45425,68.401725 C97.77675,68.401725 98.0415,68.314725 98.24775,68.139225 C98.45325,67.964475 98.5575,67.719975 98.5575,67.404975 C98.5575,67.222725 98.5155,67.067475 98.4315,66.937725 C98.3475,66.807975 98.2335,66.692475 98.09025,66.591225 C97.947,66.489225 97.77675,66.396225 97.58025,66.312975 C97.38525,66.228225 97.1745,66.141225 96.951,66.049725 C96.74025,66.204225 96.56775,66.385725 96.43125,66.596475 C96.29475,66.805725 96.2265,67.040475 96.2265,67.299225 M95.166,67.425225 C95.166,67.215975 95.199,67.024725 95.26575,66.852975 C95.33175,66.681975 95.42175,66.525975 95.5335,66.385725 C95.64525,66.246225 95.77275,66.120225 95.91675,66.007725 C96.06,65.895975 96.21225,65.797725 96.3735,65.713725 L96.3735,65.671725 C96.114,65.490225 95.895,65.272725 95.71725,65.020725 C95.53875,64.768725 95.4495,64.464225 95.4495,64.107225 C95.4495,63.834225 95.49975,63.589725 95.60175,63.372975 C95.703,63.155475 95.84325,62.970225 96.021,62.816475 C96.20025,62.662725 96.414,62.542725 96.66225,62.458725 C96.9105,62.375475 97.17825,62.332725 97.4655,62.332725 C97.7655,62.332725 98.03775,62.376975 98.27925,62.463975 C98.52,62.551725 98.727,62.673975 98.898,62.831475 C99.0705,62.988975 99.20175,63.177975 99.2925,63.398475 C99.38325,63.618975 99.42825,63.865725 99.42825,64.138725 C99.42825,64.306725 99.40275,64.466475 99.35025,64.616475 C99.297,64.767225 99.2295,64.907475 99.14475,65.037225 C99.0615,65.166225 98.96475,65.285475 98.85675,65.393475 C98.748,65.502975 98.64075,65.595225 98.5365,65.671725 L98.5365,65.713725 C98.69025,65.797725 98.83725,65.894475 98.9775,66.003225 C99.117,66.111225 99.23925,66.235725 99.345,66.375975 C99.45,66.515475 99.534,66.672975 99.597,66.848475 C99.66,67.023225 99.6915,67.222725 99.6915,67.446225 C99.6915,67.705725 99.6375,67.945725 99.52875,68.165475 C99.42,68.385975 99.267,68.578725 99.072,68.742975 C98.8755,68.907975 98.63775,69.036225 98.358,69.126975 C98.07825,69.217725 97.76925,69.262725 97.434,69.262725 C97.10475,69.262725 96.80175,69.217725 96.52575,69.126975 C96.249,69.036225 96.01125,68.910225 95.81175,68.748975 C95.6115,68.587725 95.454,68.394975 95.33925,68.170725 C95.22375,67.946475 95.166,67.698225 95.166,67.425225" id="Fill-29" fill="#3F3F3F" mask="url(#mask-4)"></path>
                    <path d="M102.777825,68.33865 C103.058325,68.33865 103.293825,68.2299 103.486575,68.01315 C103.679325,67.7964 103.775325,67.4814 103.775325,67.0689 C103.775325,66.66915 103.684575,66.37215 103.503075,66.17565 C103.320825,65.9799 103.062075,65.8824 102.726075,65.8824 C102.537075,65.8824 102.336825,65.94015 102.127575,66.0549 C101.917575,66.1704 101.718075,66.3684 101.528325,66.64815 C101.592075,67.24365 101.733075,67.67415 101.953575,67.9404 C102.174075,68.2059 102.449325,68.33865 102.777825,68.33865 L102.777825,68.33865 Z M104.133075,63.82365 C104.013075,63.67665 103.857825,63.5559 103.665825,63.4614 C103.473075,63.3669 103.275075,63.3204 103.072575,63.3204 C102.861825,63.3204 102.664575,63.36165 102.479325,63.4464 C102.293325,63.5304 102.130575,63.66765 101.990325,63.8604 C101.850825,64.05315 101.736825,64.30665 101.649075,64.6224 C101.562075,64.9374 101.511825,65.32515 101.496825,65.7879 C101.693325,65.5419 101.922075,65.35065 102.184575,65.20965 C102.447825,65.07015 102.700575,65.0004 102.946575,65.0004 C103.233075,65.0004 103.497075,65.04165 103.738575,65.1264 C103.980825,65.20965 104.187075,65.3379 104.358075,65.50965 C104.529825,65.68065 104.663325,65.8959 104.757825,66.1554 C104.852325,66.41415 104.898825,66.71865 104.898825,67.0689 C104.898825,67.4049 104.843325,67.70715 104.730825,67.97715 C104.619075,68.2464 104.469075,68.4759 104.280075,68.6649 C104.090325,68.8539 103.868325,69.0009 103.612575,69.10515 C103.356825,69.21015 103.086075,69.26265 102.798825,69.26265 C102.470325,69.26265 102.159075,69.19815 101.864325,69.06915 C101.571075,68.9394 101.313825,68.7414 101.093325,68.4759 C100.872075,68.20965 100.697325,67.8699 100.568325,67.45665 C100.438575,67.0434 100.374075,66.5574 100.374075,65.9979 C100.374075,65.3469 100.447575,64.7904 100.594575,64.32765 C100.740825,63.86565 100.935825,63.48765 101.176575,63.1944 C101.418825,62.89965 101.697075,62.6829 102.012075,62.54265 C102.326325,62.40315 102.655575,62.33265 102.999075,62.33265 C103.404825,62.33265 103.752825,62.4069 104.043075,62.55315 C104.333325,62.70015 104.580075,62.8794 104.784075,63.08865 L104.133075,63.82365 Z" id="Fill-30" fill="#3F3F3F" mask="url(#mask-4)"></path>
                    <path d="M2.2617,6.32085 C2.45745,6.32085 2.63445,6.26685 2.79195,6.1581 C2.94945,6.0501 3.08595,5.88135 3.20145,5.6541 C3.31695,5.42685 3.4062,5.13585 3.4692,4.7826 C3.5322,4.42935 3.5637,4.0071 3.5637,3.51735 C3.5637,3.02685 3.5322,2.6076 3.4692,2.25735 C3.4062,1.9071 3.31695,1.62135 3.20145,1.40085 C3.08595,1.18035 2.94945,1.01835 2.79195,0.91335 C2.63445,0.8076 2.45745,0.75585 2.2617,0.75585 C2.06595,0.75585 1.88745,0.8076 1.7262,0.91335 C1.56495,1.01835 1.4277,1.18035 1.31145,1.40085 C1.19595,1.62135 1.1067,1.9071 1.0437,2.25735 C0.9807,2.6076 0.9492,3.02685 0.9492,3.51735 C0.9492,4.49685 1.06995,5.2101 1.31145,5.6541 C1.5537,6.09885 1.8702,6.32085 2.2617,6.32085 M2.2617,7.01385 C1.58295,7.01385 1.0542,6.71235 0.6762,6.11085 C0.2982,5.5086 0.1092,4.6446 0.1092,3.51735 C0.1092,2.3901 0.2982,1.53285 0.6762,0.94485 C1.0542,0.35685 1.58295,0.06285 2.2617,0.06285 C2.9337,0.06285 3.45945,0.35685 3.83745,0.94485 C4.2147,1.53285 4.4037,2.3901 4.4037,3.51735 C4.4037,4.6446 4.2147,5.5086 3.83745,6.11085 C3.45945,6.71235 2.9337,7.01385 2.2617,7.01385" id="Fill-31" fill="#848484" mask="url(#mask-4)"></path>
                    <path d="M282.0828,6.33105 C282.25155,6.33105 282.4053,6.2958 282.54555,6.22605 C282.68505,6.1563 282.80805,6.05655 282.9123,5.9268 C283.0173,5.7978 283.09905,5.6433 283.1598,5.4648 C283.21905,5.2863 283.24905,5.0853 283.24905,4.86105 C283.24905,4.42005 283.14705,4.07355 282.9438,3.82155 C282.7413,3.56955 282.43005,3.44355 282.0093,3.44355 C281.80005,3.44355 281.5698,3.5118 281.32155,3.6483 C281.0733,3.7848 280.8378,4.01055 280.61355,4.32555 C280.66905,4.9833 280.8213,5.48205 281.06955,5.8218 C281.3178,6.16155 281.6568,6.33105 282.0828,6.33105 L282.0828,6.33105 Z M283.4583,1.3128 C283.3188,1.15155 283.1523,1.0233 282.9603,0.9288 C282.7668,0.8343 282.56655,0.78705 282.35655,0.78705 C282.12555,0.78705 281.90505,0.83655 281.6943,0.93405 C281.48505,1.0323 281.29905,1.1928 281.1378,1.41705 C280.97655,1.6413 280.8483,1.9338 280.75005,2.2938 C280.6518,2.65455 280.59855,3.1008 280.59255,3.63255 C280.80255,3.3738 281.04705,3.16905 281.3268,3.0183 C281.60655,2.8683 281.8833,2.79255 282.15705,2.79255 C282.73755,2.79255 283.2018,2.9643 283.54755,3.30705 C283.8948,3.65055 284.0673,4.16805 284.0673,4.86105 C284.0673,5.18355 284.0148,5.4753 283.91055,5.7378 C283.80555,6.00105 283.66155,6.22605 283.4793,6.41505 C283.29705,6.60405 283.0878,6.7518 282.8493,6.85605 C282.61155,6.96105 282.35655,7.01355 282.0828,7.01355 C281.7543,7.01355 281.4498,6.9468 281.17005,6.8148 C280.88955,6.6813 280.64655,6.47955 280.4403,6.2103 C280.2333,5.94105 280.0698,5.60505 279.9513,5.2023 C279.8328,4.8003 279.7728,4.3293 279.7728,3.79005 C279.7728,3.11805 279.8433,2.5458 279.98355,2.0733 C280.12305,1.6008 280.31205,1.21605 280.55055,0.9183 C280.78755,0.6213 281.0598,0.40455 281.36355,0.2673 C281.66805,0.1308 281.98905,0.0633 282.3243,0.0633 C282.6888,0.0633 283.0023,0.1308 283.2648,0.2673 C283.5273,0.40455 283.75305,0.5733 283.94205,0.77655 L283.4583,1.3128 Z" id="Fill-32" fill="#848484" mask="url(#mask-4)"></path>
                    <path d="M286.6824,6.32085 C286.87815,6.32085 287.0544,6.26685 287.21265,6.1581 C287.3694,6.0501 287.50665,5.88135 287.6214,5.6541 C287.7369,5.42685 287.82615,5.13585 287.88915,4.7826 C287.95215,4.42935 287.9844,4.0071 287.9844,3.51735 C287.9844,3.02685 287.95215,2.6076 287.88915,2.25735 C287.82615,1.9071 287.7369,1.62135 287.6214,1.40085 C287.50665,1.18035 287.3694,1.01835 287.21265,0.91335 C287.0544,0.8076 286.87815,0.75585 286.6824,0.75585 C286.4859,0.75585 286.3074,0.8076 286.14615,0.91335 C285.9849,1.01835 285.84765,1.18035 285.7314,1.40085 C285.6159,1.62135 285.52665,1.9071 285.46365,2.25735 C285.40065,2.6076 285.3699,3.02685 285.3699,3.51735 C285.3699,4.49685 285.4899,5.2101 285.7314,5.6541 C285.97365,6.09885 286.29015,6.32085 286.6824,6.32085 M286.6824,7.01385 C286.0029,7.01385 285.4749,6.71235 285.0969,6.11085 C284.7189,5.5086 284.5299,4.6446 284.5299,3.51735 C284.5299,2.3901 284.7189,1.53285 285.0969,0.94485 C285.4749,0.35685 286.0029,0.06285 286.6824,0.06285 C287.3544,0.06285 287.8794,0.35685 288.2574,0.94485 C288.6354,1.53285 288.82365,2.3901 288.82365,3.51735 C288.82365,4.6446 288.6354,5.5086 288.2574,6.11085 C287.8794,6.71235 287.3544,7.01385 286.6824,7.01385" id="Fill-33" fill="#848484" mask="url(#mask-4)"></path>
                    <path d="M291.48045,6.32085 C291.6762,6.32085 291.8532,6.26685 292.0107,6.1581 C292.1682,6.0501 292.3047,5.88135 292.4202,5.6541 C292.5357,5.42685 292.62495,5.13585 292.68795,4.7826 C292.75095,4.42935 292.78245,4.0071 292.78245,3.51735 C292.78245,3.02685 292.75095,2.6076 292.68795,2.25735 C292.62495,1.9071 292.5357,1.62135 292.4202,1.40085 C292.3047,1.18035 292.1682,1.01835 292.0107,0.91335 C291.8532,0.8076 291.6762,0.75585 291.48045,0.75585 C291.2847,0.75585 291.1062,0.8076 290.94495,0.91335 C290.7837,1.01835 290.64645,1.18035 290.5302,1.40085 C290.4147,1.62135 290.32545,1.9071 290.26245,2.25735 C290.19945,2.6076 290.16795,3.02685 290.16795,3.51735 C290.16795,4.49685 290.2887,5.2101 290.5302,5.6541 C290.77245,6.09885 291.08895,6.32085 291.48045,6.32085 M291.48045,7.01385 C290.8017,7.01385 290.27295,6.71235 289.89495,6.11085 C289.51695,5.5086 289.32795,4.6446 289.32795,3.51735 C289.32795,2.3901 289.51695,1.53285 289.89495,0.94485 C290.27295,0.35685 290.8017,0.06285 291.48045,0.06285 C292.15245,0.06285 292.6782,0.35685 293.0562,0.94485 C293.43345,1.53285 293.62245,2.3901 293.62245,3.51735 C293.62245,4.6446 293.43345,5.5086 293.0562,6.11085 C292.6782,6.71235 292.15245,7.01385 291.48045,7.01385" id="Fill-34" fill="#848484" mask="url(#mask-4)"></path>
                    <polygon id="Fill-35" fill="#848484" mask="url(#mask-4)" points="294.609375 0 295.480875 0 295.480875 3.45375 295.512375 3.45375 298.378875 0 299.366625 0 297.213375 2.625 299.701875 6.888 298.725375 6.888 296.667375 3.30675 295.480875 4.70325 295.480875 6.888 294.609375 6.888"></polygon>
                    <path d="M144.233625,5.502 C144.436125,5.71125 144.672375,5.89725 144.941625,6.05775 C145.211625,6.219 145.546125,6.29925 145.944375,6.29925 C146.350125,6.29925 146.683125,6.18975 146.941875,5.96925 C147.201375,5.74875 147.330375,5.4495 147.330375,5.0715 C147.330375,4.875 147.293625,4.695 147.220125,4.53075 C147.147375,4.36575 147.025875,4.22475 146.858625,4.1055 C146.689875,3.98625 146.469375,3.89475 146.196375,3.83175 C145.924125,3.76875 145.587375,3.73725 145.188375,3.73725 L145.188375,3.0765 C145.546125,3.0765 145.844625,3.045 146.086875,2.982 C146.328375,2.919 146.524125,2.83125 146.674125,2.7195 C146.824875,2.60775 146.932125,2.47425 146.995125,2.3205 C147.058125,2.16675 147.088875,2.00175 147.088875,1.827 C147.088875,1.49775 146.986125,1.23825 146.779875,1.04925 C146.572875,0.861 146.290875,0.7665 145.934625,0.7665 C145.654875,0.7665 145.396875,0.8295 145.162125,0.9555 C144.928125,1.08075 144.709125,1.24575 144.505875,1.449 L144.044625,0.90225 C144.303375,0.65775 144.588375,0.456 144.900375,0.29925 C145.211625,0.14175 145.566375,0.063 145.966125,0.063 C146.259375,0.063 146.529375,0.10125 146.773875,0.17775 C147.019125,0.25575 147.230625,0.36525 147.409125,0.50925 C147.588375,0.6525 147.725625,0.8295 147.823875,1.0395 C147.922125,1.2495 147.970875,1.49025 147.970875,1.764 C147.970875,2.16975 147.859125,2.502 147.634875,2.7615 C147.410625,3.02025 147.117375,3.21975 146.752875,3.36 L146.752875,3.40125 C146.956125,3.45075 147.145125,3.522 147.319875,3.6165 C147.495375,3.711 147.649875,3.83025 147.781875,3.97425 C147.914625,4.1175 148.018875,4.284 148.092375,4.473 C148.165125,4.662 148.201875,4.87125 148.201875,5.103 C148.201875,5.39625 148.144875,5.66325 148.029375,5.90025 C147.913125,6.13875 147.755625,6.33975 147.556125,6.50475 C147.356625,6.669 147.124125,6.795 146.858625,6.88275 C146.592375,6.96975 146.305125,7.014 145.997625,7.014 C145.730625,7.014 145.487625,6.987 145.267875,6.93525 C145.046625,6.88275 144.845625,6.81225 144.663375,6.72525 C144.481125,6.6375 144.318375,6.53775 144.175125,6.42525 C144.031125,6.3135 143.904375,6.195 143.791875,6.069 L144.233625,5.502 Z" id="Fill-36" fill="#848484" mask="url(#mask-4)"></path>
                    <path d="M150.9324,6.32085 C151.12815,6.32085 151.3044,6.26685 151.46265,6.1581 C151.6194,6.0501 151.75665,5.88135 151.8714,5.6541 C151.9869,5.42685 152.07615,5.13585 152.13915,4.7826 C152.20215,4.42935 152.2344,4.0071 152.2344,3.51735 C152.2344,3.02685 152.20215,2.6076 152.13915,2.25735 C152.07615,1.9071 151.9869,1.62135 151.8714,1.40085 C151.75665,1.18035 151.6194,1.01835 151.46265,0.91335 C151.3044,0.8076 151.12815,0.75585 150.9324,0.75585 C150.7359,0.75585 150.5574,0.8076 150.39615,0.91335 C150.2349,1.01835 150.09765,1.18035 149.9814,1.40085 C149.8659,1.62135 149.77665,1.9071 149.71365,2.25735 C149.65065,2.6076 149.6199,3.02685 149.6199,3.51735 C149.6199,4.49685 149.7399,5.2101 149.9814,5.6541 C150.22365,6.09885 150.54015,6.32085 150.9324,6.32085 M150.9324,7.01385 C150.2529,7.01385 149.7249,6.71235 149.3469,6.11085 C148.9689,5.5086 148.7799,4.6446 148.7799,3.51735 C148.7799,2.3901 148.9689,1.53285 149.3469,0.94485 C149.7249,0.35685 150.2529,0.06285 150.9324,0.06285 C151.6044,0.06285 152.1294,0.35685 152.5074,0.94485 C152.8854,1.53285 153.07365,2.3901 153.07365,3.51735 C153.07365,4.6446 152.8854,5.5086 152.5074,6.11085 C152.1294,6.71235 151.6044,7.01385 150.9324,7.01385" id="Fill-37" fill="#848484" mask="url(#mask-4)"></path>
                    <path d="M155.73045,6.32085 C155.9262,6.32085 156.1032,6.26685 156.2607,6.1581 C156.4182,6.0501 156.5547,5.88135 156.6702,5.6541 C156.7857,5.42685 156.87495,5.13585 156.93795,4.7826 C157.00095,4.42935 157.03245,4.0071 157.03245,3.51735 C157.03245,3.02685 157.00095,2.6076 156.93795,2.25735 C156.87495,1.9071 156.7857,1.62135 156.6702,1.40085 C156.5547,1.18035 156.4182,1.01835 156.2607,0.91335 C156.1032,0.8076 155.9262,0.75585 155.73045,0.75585 C155.5347,0.75585 155.3562,0.8076 155.19495,0.91335 C155.0337,1.01835 154.89645,1.18035 154.7802,1.40085 C154.6647,1.62135 154.57545,1.9071 154.51245,2.25735 C154.44945,2.6076 154.41795,3.02685 154.41795,3.51735 C154.41795,4.49685 154.5387,5.2101 154.7802,5.6541 C155.02245,6.09885 155.33895,6.32085 155.73045,6.32085 M155.73045,7.01385 C155.0517,7.01385 154.52295,6.71235 154.14495,6.11085 C153.76695,5.5086 153.57795,4.6446 153.57795,3.51735 C153.57795,2.3901 153.76695,1.53285 154.14495,0.94485 C154.52295,0.35685 155.0517,0.06285 155.73045,0.06285 C156.40245,0.06285 156.9282,0.35685 157.3062,0.94485 C157.68345,1.53285 157.87245,2.3901 157.87245,3.51735 C157.87245,4.6446 157.68345,5.5086 157.3062,6.11085 C156.9282,6.71235 156.40245,7.01385 155.73045,7.01385" id="Fill-38" fill="#848484" mask="url(#mask-4)"></path>
                    <polygon id="Fill-39" fill="#848484" mask="url(#mask-4)" points="158.859375 0 159.730875 0 159.730875 3.45375 159.762375 3.45375 162.628875 0 163.616625 0 161.463375 2.625 163.951875 6.888 162.975375 6.888 160.917375 3.30675 159.730875 4.70325 159.730875 6.888 158.859375 6.888"></polygon>
                    <path d="M217.960725,4.346925 L217.960725,2.404425 C217.960725,2.222175 217.966725,2.006925 217.976475,1.758675 C217.986975,1.510425 217.999725,1.295175 218.013225,1.112925 L217.971975,1.112925 C217.887225,1.273425 217.799475,1.430925 217.708725,1.584675 C217.617975,1.739175 217.523475,1.896675 217.425975,2.057175 L215.861475,4.346925 L217.960725,4.346925 Z M219.693975,5.039925 L218.780475,5.039925 L218.780475,6.887925 L217.960725,6.887925 L217.960725,5.039925 L214.947225,5.039925 L214.947225,4.472925 L217.814475,0.188925 L218.780475,0.188925 L218.780475,4.346925 L219.693975,4.346925 L219.693975,5.039925 Z" id="Fill-40" fill="#848484" mask="url(#mask-4)"></path>
                    <path d="M220.25025,5.5335 C220.44675,5.73675 220.6785,5.91525 220.9485,6.069 C221.21775,6.22275 221.54775,6.29925 221.94075,6.29925 C222.14325,6.29925 222.3345,6.26325 222.513,6.18975 C222.6915,6.1155 222.8475,6.01275 222.98025,5.88 C223.11225,5.7465 223.218,5.58525 223.296,5.39625 C223.37175,5.20725 223.41075,4.998 223.41075,4.767 C223.41075,4.30425 223.281,3.94425 223.0215,3.6855 C222.7635,3.426 222.417,3.297 221.9835,3.297 C221.75175,3.297 221.55375,3.3315 221.39025,3.40125 C221.2245,3.47175 221.0415,3.57375 220.8375,3.70575 L220.37625,3.4125 L220.59675,0.189 L223.94625,0.189 L223.94625,0.93375 L221.35275,0.93375 L221.17425,2.919 C221.33475,2.83425 221.496,2.76825 221.65725,2.7195 C221.81775,2.67075 222,2.64525 222.20325,2.64525 C222.48975,2.64525 222.75975,2.688 223.01175,2.77125 C223.26375,2.856 223.48425,2.9835 223.67325,3.15525 C223.86225,3.327 224.01075,3.54375 224.11875,3.8055 C224.2275,4.06875 224.28225,4.38225 224.28225,4.74525 C224.28225,5.1105 224.21925,5.4315 224.09325,5.71125 C223.96725,5.99175 223.79925,6.228 223.5885,6.42075 C223.37925,6.61275 223.13925,6.7605 222.86925,6.86175 C222.6,6.963 222.31875,7.014 222.024,7.014 C221.75925,7.014 221.5155,6.987 221.295,6.93525 C221.0745,6.88275 220.875,6.8145 220.6965,6.7305 C220.518,6.64575 220.3575,6.54975 220.2135,6.44175 C220.07025,6.333 219.942,6.219 219.8295,6.1005 L220.25025,5.5335 Z" id="Fill-41" fill="#848484" mask="url(#mask-4)"></path>
                    <path d="M226.98045,6.32085 C227.1762,6.32085 227.3532,6.26685 227.5107,6.1581 C227.6682,6.0501 227.8047,5.88135 227.9202,5.6541 C228.0357,5.42685 228.12495,5.13585 228.18795,4.7826 C228.25095,4.42935 228.28245,4.0071 228.28245,3.51735 C228.28245,3.02685 228.25095,2.6076 228.18795,2.25735 C228.12495,1.9071 228.0357,1.62135 227.9202,1.40085 C227.8047,1.18035 227.6682,1.01835 227.5107,0.91335 C227.3532,0.8076 227.1762,0.75585 226.98045,0.75585 C226.7847,0.75585 226.6062,0.8076 226.44495,0.91335 C226.2837,1.01835 226.14645,1.18035 226.0302,1.40085 C225.9147,1.62135 225.82545,1.9071 225.76245,2.25735 C225.69945,2.6076 225.66795,3.02685 225.66795,3.51735 C225.66795,4.49685 225.7887,5.2101 226.0302,5.6541 C226.27245,6.09885 226.58895,6.32085 226.98045,6.32085 M226.98045,7.01385 C226.3017,7.01385 225.77295,6.71235 225.39495,6.11085 C225.01695,5.5086 224.82795,4.6446 224.82795,3.51735 C224.82795,2.3901 225.01695,1.53285 225.39495,0.94485 C225.77295,0.35685 226.3017,0.06285 226.98045,0.06285 C227.65245,0.06285 228.1782,0.35685 228.5562,0.94485 C228.93345,1.53285 229.12245,2.3901 229.12245,3.51735 C229.12245,4.6446 228.93345,5.5086 228.5562,6.11085 C228.1782,6.71235 227.65245,7.01385 226.98045,7.01385" id="Fill-42" fill="#848484" mask="url(#mask-4)"></path>
                    <polygon id="Fill-43" fill="#848484" mask="url(#mask-4)" points="230.109375 0 230.980875 0 230.980875 3.45375 231.012375 3.45375 233.878875 0 234.866625 0 232.713375 2.625 235.201875 6.888 234.225375 6.888 232.167375 3.30675 230.980875 4.70325 230.980875 6.888 230.109375 6.888"></polygon>
                    <path d="M65.598675,6.173625 L67.131675,6.173625 L67.131675,1.238625 L65.913675,1.238625 L65.913675,0.682125 C66.221925,0.626625 66.488925,0.558375 66.716925,0.477375 C66.944175,0.397125 67.148925,0.301125 67.331175,0.189375 L67.992675,0.189375 L67.992675,6.173625 L69.378675,6.173625 L69.378675,6.887625 L65.598675,6.887625 L65.598675,6.173625 Z" id="Fill-44" fill="#848484" mask="url(#mask-4)"></path>
                    <path d="M70.25025,5.5335 C70.44675,5.73675 70.6785,5.91525 70.9485,6.069 C71.21775,6.22275 71.54775,6.29925 71.94075,6.29925 C72.14325,6.29925 72.3345,6.26325 72.513,6.18975 C72.6915,6.1155 72.8475,6.01275 72.98025,5.88 C73.11225,5.7465 73.218,5.58525 73.296,5.39625 C73.37175,5.20725 73.41075,4.998 73.41075,4.767 C73.41075,4.30425 73.281,3.94425 73.0215,3.6855 C72.7635,3.426 72.417,3.297 71.9835,3.297 C71.75175,3.297 71.55375,3.3315 71.39025,3.40125 C71.2245,3.47175 71.0415,3.57375 70.8375,3.70575 L70.37625,3.4125 L70.59675,0.189 L73.94625,0.189 L73.94625,0.93375 L71.35275,0.93375 L71.17425,2.919 C71.33475,2.83425 71.496,2.76825 71.65725,2.7195 C71.81775,2.67075 72,2.64525 72.20325,2.64525 C72.48975,2.64525 72.75975,2.688 73.01175,2.77125 C73.26375,2.856 73.48425,2.9835 73.67325,3.15525 C73.86225,3.327 74.01075,3.54375 74.11875,3.8055 C74.2275,4.06875 74.28225,4.38225 74.28225,4.74525 C74.28225,5.1105 74.21925,5.4315 74.09325,5.71125 C73.96725,5.99175 73.79925,6.228 73.5885,6.42075 C73.37925,6.61275 73.13925,6.7605 72.86925,6.86175 C72.6,6.963 72.31875,7.014 72.024,7.014 C71.75925,7.014 71.5155,6.987 71.295,6.93525 C71.0745,6.88275 70.875,6.8145 70.6965,6.7305 C70.518,6.64575 70.3575,6.54975 70.2135,6.44175 C70.07025,6.333 69.942,6.219 69.8295,6.1005 L70.25025,5.5335 Z" id="Fill-45" fill="#848484" mask="url(#mask-4)"></path>
                    <path d="M76.98045,6.32085 C77.1762,6.32085 77.3532,6.26685 77.5107,6.1581 C77.6682,6.0501 77.8047,5.88135 77.9202,5.6541 C78.0357,5.42685 78.12495,5.13585 78.18795,4.7826 C78.25095,4.42935 78.28245,4.0071 78.28245,3.51735 C78.28245,3.02685 78.25095,2.6076 78.18795,2.25735 C78.12495,1.9071 78.0357,1.62135 77.9202,1.40085 C77.8047,1.18035 77.6682,1.01835 77.5107,0.91335 C77.3532,0.8076 77.1762,0.75585 76.98045,0.75585 C76.7847,0.75585 76.6062,0.8076 76.44495,0.91335 C76.2837,1.01835 76.14645,1.18035 76.0302,1.40085 C75.9147,1.62135 75.82545,1.9071 75.76245,2.25735 C75.69945,2.6076 75.66795,3.02685 75.66795,3.51735 C75.66795,4.49685 75.7887,5.2101 76.0302,5.6541 C76.27245,6.09885 76.58895,6.32085 76.98045,6.32085 M76.98045,7.01385 C76.3017,7.01385 75.77295,6.71235 75.39495,6.11085 C75.01695,5.5086 74.82795,4.6446 74.82795,3.51735 C74.82795,2.3901 75.01695,1.53285 75.39495,0.94485 C75.77295,0.35685 76.3017,0.06285 76.98045,0.06285 C77.65245,0.06285 78.1782,0.35685 78.5562,0.94485 C78.93345,1.53285 79.12245,2.3901 79.12245,3.51735 C79.12245,4.6446 78.93345,5.5086 78.5562,6.11085 C78.1782,6.71235 77.65245,7.01385 76.98045,7.01385" id="Fill-46" fill="#848484" mask="url(#mask-4)"></path>
                    <polygon id="Fill-47" fill="#848484" mask="url(#mask-4)" points="80.109375 0 80.980875 0 80.980875 3.45375 81.012375 3.45375 83.878875 0 84.866625 0 82.713375 2.625 85.201875 6.888 84.225375 6.888 82.167375 3.30675 80.980875 4.70325 80.980875 6.888 80.109375 6.888"></polygon>
                    <line x1="4.5" y1="57.6336" x2="4.5" y2="41.55435" id="Stroke-48" stroke="#636363" stroke-width="1.5" stroke-linecap="round" mask="url(#mask-4)"></line>
                    <path d="M4.5,41.8557 C3.71625,42.63945 2.16675,43.01295 1.09125,43.0437 C2.535,41.96895 3.79425,40.57245 4.5,38.88345 C5.17575,40.57245 6.5115,41.90745 7.90875,43.0437 C6.7575,42.95145 5.3595,42.6702 4.5,41.8557" id="Fill-49" fill="#636363" mask="url(#mask-4)"></path>
                    <path d="M4.72635,27.4570684 C3.3201,27.4623 2.21235,26.34105 2.21683634,24.9168 C2.2206,23.6043 3.36735,22.48605 4.7121,22.4800259 C6.06885,22.47405 7.18785,23.59005 7.20285,24.96105 C7.21635,26.2998 6.07335,27.45255 4.72635,27.4570684 M8.8431,22.73505 C7.98735,21.1203 6.5526,20.34855 5.0736,20.2525498 C2.16285,20.2518 0.04635,22.3503 0.0006,24.9378 C-0.0249,26.43255 0.56985,27.6648 1.53885,28.75455 C2.5821,29.92755 3.68235,31.0563 4.3236,32.52855 C4.3926,32.6853 4.59735,32.8908 4.7271,32.88255 C4.86585,32.87505 5.0151,32.6553 5.1156,32.4993 C5.5746,31.7853 5.97135,31.0248 6.47985,30.34755 C7.13685,29.47305 7.9551,28.71405 8.56785,27.81255 C9.6606,26.2038 9.7551,24.4548 8.8431,22.73505" id="Fill-50" fill="#FFFFFF" mask="url(#mask-4)"></path>
                </g>
            </g>
        </g>
    </g>
</svg>