<?xml version="1.0" encoding="UTF-8"?>
<svg width="250px" height="224px" viewBox="0 0 250 224" version="1.1" xmlns="http://www.w3.org/2000/svg" xmlns:xlink="http://www.w3.org/1999/xlink">
    <!-- Generator: Sketch 59.1 (86144) - https://sketch.com -->
    <title>Group 818</title>
    <desc>Created with Sketch.</desc>
    <defs>
        <polygon id="path-1" points="0.268575 0.246 54.169575 0.246 54.169575 54.147825 0.268575 54.147825"></polygon>
        <polygon id="path-3" points="0 233.25 254.6385 233.25 254.6385 0.246 0 0.246"></polygon>
        <polyline id="path-5" points="1.0815 0.741 0 150 194.1735 150 195.25425 0.741"></polyline>
        <polyline id="path-7" points="1.0815 0.741 0 150 194.1735 150 195.25425 0.741"></polyline>
        <polyline id="path-9" points="1.0815 0.741 0 150 194.1735 150 195.25425 0.741"></polyline>
        <polygon id="path-11" points="1.0815 0.741 0 150 194.1735 150 195.25425 0.741"></polygon>
        <polyline id="path-13" points="1.0815 0.741 0 150 194.1735 150 195.25425 0.741"></polyline>
        <polyline id="path-15" points="1.0815 0.741 0 150 194.1735 150 195.25425 0.741"></polyline>
    </defs>
    <g id="Desktop" stroke="none" stroke-width="1" fill="none" fill-rule="evenodd">
        <g id="Homelessness-Section-3-8" transform="translate(-257.000000, -2360.000000)">
            <g id="Group-81" transform="translate(252.000000, 2360.000000)">
                <g id="Group-54" transform="translate(0.000000, 0.504000)">
                    <path d="M177.623325,68.784225 C177.623325,80.374725 168.227325,89.769975 156.638325,89.769975 C145.047825,89.769975 135.652575,80.374725 135.652575,68.784225 C135.652575,57.195225 145.047825,47.798475 156.638325,47.798475 C168.227325,47.798475 177.623325,57.195225 177.623325,68.784225" id="Fill-1" fill="#789E25"></path>
                    <path d="M177.69945,91.38165 L163.7697,91.38165 L149.50695,91.38165 L135.5772,91.38165 C129.8397,91.38165 125.14395,96.19665 125.0547,102.11565 C130.71795,105.15615 134.5932,111.24465 134.5932,118.24815 C134.5932,118.24815 135.24495,162.61815 135.5772,162.61815 L135.5772,210.5619 C135.5772,216.5589 140.3157,221.4654 146.10645,221.4654 C151.8987,221.4654 156.63795,216.5589 156.63795,210.5619 C156.63795,216.5589 161.3772,221.4654 167.16795,221.4654 C172.9602,221.4654 177.69945,216.5589 177.69945,210.5619 L177.69945,162.61815 C183.49095,162.61815 188.22945,157.71165 188.22945,151.71615 L188.22945,102.28365 C188.22945,96.2889 183.49095,91.38165 177.69945,91.38165" id="Fill-3" fill="#510884"></path>
                    <path d="M58.52745,68.784225 C58.52745,80.374725 49.13145,89.769975 37.5417,89.769975 C25.95195,89.769975 16.55595,80.374725 16.55595,68.784225 C16.55595,57.195225 25.95195,47.798475 37.5417,47.798475 C49.13145,47.798475 58.52745,57.195225 58.52745,68.784225" id="Fill-5" fill="#789E25"></path>
                    <path d="M58.6029,118.2483 C58.6029,110.0118 61.70115,103.0413 69.0234,100.8048 C68.3199,95.50305 63.9099,91.3818 58.6029,91.3818 L44.67315,91.3818 L30.4104,91.3818 L16.4799,91.3818 C10.6884,91.3818 5.95065,96.28905 5.95065,102.2838 L5.95065,151.7163 C5.95065,157.7118 10.6884,162.6183 16.4799,162.6183 L16.4799,210.56205 C16.4799,216.55905 21.2199,221.46555 27.01065,221.46555 C32.8029,221.46555 37.5414,216.55905 37.5414,210.56205 C37.5414,216.55905 42.28065,221.46555 48.07215,221.46555 C53.86365,221.46555 58.6029,216.55905 58.6029,210.56205 L58.6029,190.61055 L58.6029,118.2483 Z" id="Fill-7" fill="#510884"></path>
                    <path d="M122.51625,55.85475 L104.62725,55.85475 L86.31,55.85475 L68.421,55.85475 C60.98325,55.85475 54.89775,62.15475 54.89775,69.85575 L54.89775,133.338 C54.89775,141.0375 60.98325,147.33825 68.421,147.33825 L68.421,208.91025 C68.421,216.612 74.5065,222.912 81.94425,222.912 C89.3835,222.912 95.469,216.612 95.469,208.91025 C95.469,216.612 101.5545,222.912 108.993,222.912 C116.43075,222.912 122.51625,216.612 122.51625,208.91025 L122.51625,147.33825 C129.954,147.33825 136.0395,141.0375 136.0395,133.338 L136.0395,69.85575 C136.0395,62.15475 129.954,55.85475 122.51625,55.85475" id="Fill-9" fill="#789E25"></path>
                    <g id="Group-13" transform="translate(68.250000, 0.000000)">
                        <mask id="mask-2" fill="white">
                            <use xlink:href="#path-1"></use>
                        </mask>
                        <g id="Clip-12"></g>
                        <path d="M54.169575,27.197325 C54.169575,42.081825 42.102825,54.147825 27.218325,54.147825 C12.334575,54.147825 0.268575,42.081825 0.268575,27.197325 C0.268575,12.312825 12.334575,0.245325 27.218325,0.245325 C42.102825,0.245325 54.169575,12.312825 54.169575,27.197325" id="Fill-11" fill="#789E25" mask="url(#mask-2)"></path>
                    </g>
                    <path d="M201.03555,111.8352 C201.13155,111.23445 201.2658,110.66445 201.43755,110.1252 C201.6093,109.5852 201.8298,109.0632 202.09755,108.5592 C202.3653,108.0552 202.6878,107.53845 203.06355,107.01045 L199.24755,107.01045 L199.24755,106.1592 L204.17955,106.1592 L204.17955,106.7712 C203.72355,107.3472 203.3538,107.8992 203.06955,108.4272 C202.7853,108.95445 202.55955,109.49295 202.39155,110.04045 C202.22355,110.58945 202.1013,111.16845 202.02555,111.7812 C201.9498,112.39245 201.89505,113.07045 201.86355,113.8152 L200.84355,113.8152 C200.8758,113.0952 200.93955,112.4352 201.03555,111.8352" id="Fill-14" fill="#3F3F3F"></path>
                    <path d="M207.7914,113.16675 C208.01565,113.16675 208.2174,113.10525 208.3974,112.98075 C208.5774,112.857 208.7334,112.665 208.8654,112.40475 C208.9974,112.14525 209.0994,111.813 209.1714,111.40875 C209.2434,111.00525 209.2794,110.523 209.2794,109.9635 C209.2794,109.4025 209.2434,108.92325 209.1714,108.5235 C209.0994,108.123 208.9974,107.79675 208.8654,107.54475 C208.7334,107.29275 208.5774,107.10675 208.3974,106.9875 C208.2174,106.8675 208.01565,106.8075 207.7914,106.8075 C207.56715,106.8075 207.36315,106.8675 207.1794,106.9875 C206.9949,107.10675 206.8374,107.29275 206.7054,107.54475 C206.5734,107.79675 206.4714,108.123 206.3994,108.5235 C206.3274,108.92325 206.2914,109.4025 206.2914,109.9635 C206.2914,111.08325 206.4294,111.897 206.7054,112.40475 C206.9814,112.91325 207.34365,113.16675 207.7914,113.16675 M207.7914,113.9595 C207.01515,113.9595 206.4114,113.61525 205.9794,112.9275 C205.5474,112.239 205.3314,111.2505 205.3314,109.9635 C205.3314,108.675 205.5474,107.69475 205.9794,107.0235 C206.4114,106.35075 207.01515,106.01475 207.7914,106.01475 C208.5594,106.01475 209.1594,106.35075 209.5914,107.0235 C210.0234,107.69475 210.2394,108.675 210.2394,109.9635 C210.2394,111.2505 210.0234,112.239 209.5914,112.9275 C209.1594,113.61525 208.5594,113.9595 207.7914,113.9595" id="Fill-16" fill="#3F3F3F"></path>
                    <path d="M218.57925,113.346975 C218.883,113.346975 219.13125,113.188725 219.32325,112.872975 C219.51525,112.556475 219.61125,112.086975 219.61125,111.462975 C219.61125,110.838975 219.51525,110.373225 219.32325,110.064975 C219.13125,109.757475 218.883,109.602975 218.57925,109.602975 C218.26725,109.602975 218.01525,109.757475 217.82325,110.064975 C217.63125,110.373225 217.53525,110.838975 217.53525,111.462975 C217.53525,112.086975 217.63125,112.556475 217.82325,112.872975 C218.01525,113.188725 218.26725,113.346975 218.57925,113.346975 L218.57925,113.346975 Z M218.57925,113.958975 C218.03475,113.958975 217.60125,113.742975 217.27725,113.310975 C216.95325,112.878975 216.79125,112.263225 216.79125,111.462975 C216.79125,110.670975 216.95325,110.061225 217.27725,109.632975 C217.60125,109.205475 218.03475,108.990975 218.57925,108.990975 C219.1155,108.990975 219.5475,109.205475 219.87525,109.632975 C220.20375,110.061225 220.36725,110.670975 220.36725,111.462975 C220.36725,112.263225 220.20375,112.878975 219.87525,113.310975 C219.5475,113.742975 219.1155,113.958975 218.57925,113.958975 L218.57925,113.958975 Z M213.31125,113.958975 L217.65525,105.798975 L218.32725,105.798975 L213.98325,113.958975 L213.31125,113.958975 Z M213.09525,110.154975 C213.399,110.154975 213.64725,109.996725 213.83925,109.680975 C214.03125,109.364475 214.12725,108.894975 214.12725,108.270975 C214.12725,107.646975 214.03125,107.180475 213.83925,106.872975 C213.64725,106.565475 213.399,106.410975 213.09525,106.410975 C212.78325,106.410975 212.53125,106.565475 212.33925,106.872975 C212.14725,107.180475 212.05125,107.646975 212.05125,108.270975 C212.05125,108.894975 212.14725,109.364475 212.33925,109.680975 C212.53125,109.996725 212.78325,110.154975 213.09525,110.154975 L213.09525,110.154975 Z M213.09525,110.766975 C212.55075,110.766975 212.11725,110.550975 211.79325,110.118975 C211.46925,109.686975 211.30725,109.071225 211.30725,108.270975 C211.30725,107.478975 211.46925,106.868475 211.79325,106.440975 C212.11725,106.013475 212.55075,105.798975 213.09525,105.798975 C213.6315,105.798975 214.0635,106.013475 214.39125,106.440975 C214.71975,106.868475 214.88325,107.478975 214.88325,108.270975 C214.88325,109.071225 214.71975,109.686975 214.39125,110.118975 C214.0635,110.550975 213.6315,110.766975 213.09525,110.766975 L213.09525,110.766975 Z" id="Fill-18" fill="#3F3F3F"></path>
                    <path d="M225.107325,112.23075 C225.107325,112.56675 225.204825,112.8075 225.401325,112.95075 C225.597075,113.09475 225.839325,113.16675 226.127325,113.16675 C226.407075,113.16675 226.673325,113.10075 226.925325,112.96875 C227.177325,112.8375 227.442825,112.64325 227.723325,112.38675 L227.723325,110.76675 C227.235075,110.83125 226.823325,110.907 226.487325,110.9955 C226.151325,111.08325 225.881325,111.18675 225.677325,111.3075 C225.473325,111.4275 225.327075,111.56475 225.239325,111.72075 C225.151575,111.87675 225.107325,112.047 225.107325,112.23075 M224.135325,112.3035 C224.135325,111.663 224.421075,111.17325 224.993325,110.8335 C225.564825,110.493 226.475325,110.25525 227.723325,110.1195 C227.723325,109.935 227.705325,109.755 227.669325,109.57875 C227.633325,109.4025 227.568825,109.2465 227.477325,109.11075 C227.385075,108.975 227.263575,108.8655 227.111325,108.78075 C226.959075,108.69675 226.763325,108.65475 226.523325,108.65475 C226.179075,108.65475 225.861075,108.7185 225.569325,108.84675 C225.277575,108.975 225.015075,109.119 224.783325,109.27875 L224.387325,108.59475 C224.658825,108.41925 224.991075,108.249 225.383325,108.0855 C225.774825,107.92125 226.206825,107.8395 226.679325,107.8395 C227.391075,107.8395 227.907075,108.057 228.227325,108.4935 C228.546825,108.92925 228.707325,109.51125 228.707325,110.2395 L228.707325,113.81475 L227.891325,113.81475 L227.807325,113.1195 L227.783325,113.1195 C227.502825,113.35125 227.201325,113.54925 226.877325,113.7135 C226.553325,113.87625 226.211325,113.9595 225.851325,113.9595 C225.355575,113.9595 224.945325,113.81475 224.621325,113.5275 C224.297325,113.2395 224.135325,112.8315 224.135325,112.3035" id="Fill-20" fill="#3F3F3F"></path>
                    <path d="M230.68725,107.982675 L231.50325,107.982675 L231.58725,109.038675 L231.62325,109.038675 C231.8235,108.671175 232.065,108.378675 232.34925,108.162675 C232.6335,107.946675 232.94325,107.839425 233.27925,107.839425 C233.511,107.839425 233.71875,107.879175 233.90325,107.959425 L233.71125,108.822675 C233.61525,108.791175 233.5275,108.767175 233.44725,108.750675 C233.367,108.734925 233.26725,108.726675 233.14725,108.726675 C232.899,108.726675 232.641,108.827175 232.37325,109.027425 C232.1055,109.226925 231.8715,109.574925 231.67125,110.070675 L231.67125,113.814675 L230.68725,113.814675 L230.68725,107.982675 Z" id="Fill-22" fill="#3F3F3F"></path>
                    <path d="M238.498875,110.46705 C238.498875,109.86705 238.372875,109.40955 238.120875,109.09305 C237.868875,108.7773 237.514875,108.61905 237.058875,108.61905 C236.851125,108.61905 236.653125,108.66105 236.464875,108.74505 C236.277375,108.8283 236.107125,108.94905 235.954875,109.10505 C235.802625,109.26105 235.676625,109.4523 235.576875,109.68105 C235.477125,109.90905 235.411125,110.1708 235.378875,110.46705 L238.498875,110.46705 Z M234.418875,110.91105 C234.418875,110.43105 234.493125,110.0013 234.640875,109.62105 C234.789375,109.2408 234.985125,108.91905 235.228875,108.65505 C235.472625,108.3903 235.750875,108.1893 236.062875,108.0483 C236.374875,107.90955 236.698875,107.83905 237.034875,107.83905 C237.403125,107.83905 237.733125,107.9028 238.024875,108.03105 C238.316625,108.1593 238.561125,108.34305 238.756875,108.58305 C238.952625,108.82305 239.103375,109.1103 239.206875,109.44705 C239.311125,109.78305 239.362875,110.15955 239.362875,110.57505 C239.362875,110.79105 239.350875,110.97105 239.326875,111.11505 L235.390875,111.11505 C235.431375,111.7473 235.624875,112.2468 235.972875,112.61505 C236.320875,112.98255 236.775375,113.16705 237.334875,113.16705 C237.614625,113.16705 237.873375,113.12505 238.108875,113.04105 C238.345125,112.95705 238.570875,112.84755 238.786875,112.71105 L239.134875,113.3583 C238.879125,113.5188 238.594875,113.65905 238.282875,113.77905 C237.970875,113.89905 237.614625,113.95905 237.214875,113.95905 C236.823375,113.95905 236.456625,113.88855 236.116875,113.74905 C235.777125,113.6088 235.480875,113.4093 235.228875,113.14905 C234.976875,112.8888 234.778875,112.57155 234.634875,112.19505 C234.490875,111.8193 234.418875,111.3903 234.418875,110.91105 L234.418875,110.91105 Z" id="Fill-24" fill="#3F3F3F"></path>
                    <mask id="mask-4" fill="white">
                        <use xlink:href="#path-3"></use>
                    </mask>
                    <g id="Clip-27"></g>
                    <path d="M199.70325,127.31475 L200.68725,127.31475 L200.68725,121.48275 L199.70325,121.48275 L199.70325,127.31475 Z M200.20725,120.28275 C200.01525,120.28275 199.854,120.22275 199.72125,120.10275 C199.59,119.98275 199.52325,119.83125 199.52325,119.6475 C199.52325,119.45475 199.59,119.301 199.72125,119.18475 C199.854,119.06925 200.01525,119.01075 200.20725,119.01075 C200.4,119.01075 200.562,119.06925 200.69325,119.18475 C200.826,119.301 200.89125,119.45475 200.89125,119.6475 C200.89125,119.83125 200.826,119.98275 200.69325,120.10275 C200.562,120.22275 200.4,120.28275 200.20725,120.28275 L200.20725,120.28275 Z" id="Fill-26" fill="#3F3F3F" mask="url(#mask-4)"></path>
                    <path d="M202.7754,121.482675 L203.5914,121.482675 L203.6754,122.322675 L203.7114,122.322675 C203.99115,122.042925 204.28515,121.809675 204.5934,121.621425 C204.9009,121.433175 205.2594,121.339425 205.6674,121.339425 C206.28315,121.339425 206.73315,121.530675 207.0174,121.914675 C207.30165,122.298675 207.4434,122.867175 207.4434,123.619425 L207.4434,127.314675 L206.4594,127.314675 L206.4594,123.750675 C206.4594,123.198675 206.3709,122.801175 206.1954,122.557425 C206.01915,122.312925 205.7394,122.190675 205.3554,122.190675 C205.05165,122.190675 204.78315,122.267175 204.5514,122.418675 C204.31965,122.570925 204.05565,122.795175 203.7594,123.091425 L203.7594,127.314675 L202.7754,127.314675 L202.7754,121.482675 Z" id="Fill-28" fill="#3F3F3F" mask="url(#mask-4)"></path>
                    <path d="M210.059325,124.3992 C210.059325,125.1027 210.199575,125.65095 210.479325,126.04245 C210.759825,126.43545 211.155075,126.6312 211.667325,126.6312 C211.939575,126.6312 212.195325,126.5652 212.435325,126.4332 C212.675325,126.3012 212.915325,126.09945 213.155325,125.82645 L213.155325,122.7792 C212.907075,122.55495 212.669325,122.3967 212.441325,122.3052 C212.213325,122.21295 211.979325,122.16645 211.739325,122.16645 C211.507575,122.16645 211.289325,122.2212 211.085325,122.32845 C210.881325,122.4372 210.703575,122.58945 210.551325,122.7852 C210.399825,122.98095 210.279075,123.21495 210.191325,123.4872 C210.103575,123.7587 210.059325,124.0632 210.059325,124.3992 M209.039325,124.4112 C209.039325,123.93945 209.109075,123.5127 209.249325,123.1332 C209.388825,122.7537 209.574825,122.4312 209.807325,122.16645 C210.039825,121.9032 210.307575,121.69845 210.611325,121.5552 C210.915825,121.4112 211.235325,121.3392 211.571325,121.3392 C211.907325,121.3392 212.199825,121.3992 212.447325,121.5192 C212.695575,121.63845 212.947575,121.8027 213.203325,122.01045 L213.155325,121.01445 L213.155325,118.7712 L214.151325,118.7712 L214.151325,127.3152 L213.335325,127.3152 L213.251325,126.6312 L213.215325,126.6312 C212.983575,126.8547 212.717325,127.04895 212.417325,127.2132 C212.117325,127.3767 211.794825,127.4592 211.451325,127.4592 C210.715575,127.4592 210.129075,127.1952 209.693325,126.66645 C209.257575,126.13845 209.039325,125.38695 209.039325,124.4112" id="Fill-29" fill="#3F3F3F" mask="url(#mask-4)"></path>
                    <path d="M216.23925,127.31475 L217.22325,127.31475 L217.22325,121.48275 L216.23925,121.48275 L216.23925,127.31475 Z M216.74325,120.28275 C216.55125,120.28275 216.39,120.22275 216.25725,120.10275 C216.12525,119.98275 216.05925,119.83125 216.05925,119.6475 C216.05925,119.45475 216.12525,119.301 216.25725,119.18475 C216.39,119.06925 216.55125,119.01075 216.74325,119.01075 C216.936,119.01075 217.09725,119.06925 217.22925,119.18475 C217.36125,119.301 217.42725,119.45475 217.42725,119.6475 C217.42725,119.83125 217.36125,119.98275 217.22925,120.10275 C217.09725,120.22275 216.936,120.28275 216.74325,120.28275 L216.74325,120.28275 Z" id="Fill-30" fill="#3F3F3F" mask="url(#mask-4)"></path>
                    <path d="M218.471175,121.482675 L219.491175,121.482675 L220.595175,124.794675 C220.682925,125.083425 220.772925,125.371425 220.865175,125.658675 C220.956675,125.946675 221.047425,126.230925 221.135175,126.510675 L221.183175,126.510675 C221.270925,126.230925 221.359425,125.946675 221.447175,125.658675 C221.534925,125.371425 221.623425,125.083425 221.711175,124.794675 L222.815175,121.482675 L223.787175,121.482675 L221.723175,127.314675 L220.571175,127.314675 L218.471175,121.482675 Z" id="Fill-31" fill="#3F3F3F" mask="url(#mask-4)"></path>
                    <path d="M225.03525,127.31475 L226.01925,127.31475 L226.01925,121.48275 L225.03525,121.48275 L225.03525,127.31475 Z M225.53925,120.28275 C225.34725,120.28275 225.18525,120.22275 225.05325,120.10275 C224.92125,119.98275 224.85525,119.83125 224.85525,119.6475 C224.85525,119.45475 224.92125,119.301 225.05325,119.18475 C225.18525,119.06925 225.34725,119.01075 225.53925,119.01075 C225.73125,119.01075 225.89325,119.06925 226.02525,119.18475 C226.15725,119.301 226.22325,119.45475 226.22325,119.6475 C226.22325,119.83125 226.15725,119.98275 226.02525,120.10275 C225.89325,120.22275 225.73125,120.28275 225.53925,120.28275 L225.53925,120.28275 Z" id="Fill-32" fill="#3F3F3F" mask="url(#mask-4)"></path>
                    <path d="M228.7068,124.3992 C228.7068,125.1027 228.84705,125.65095 229.1268,126.04245 C229.4073,126.43545 229.80255,126.6312 230.3148,126.6312 C230.58705,126.6312 230.8428,126.5652 231.0828,126.4332 C231.3228,126.3012 231.5628,126.09945 231.8028,125.82645 L231.8028,122.7792 C231.55455,122.55495 231.3168,122.3967 231.0888,122.3052 C230.8608,122.21295 230.6268,122.16645 230.3868,122.16645 C230.15505,122.16645 229.9368,122.2212 229.7328,122.32845 C229.5288,122.4372 229.35105,122.58945 229.1988,122.7852 C229.0473,122.98095 228.92655,123.21495 228.8388,123.4872 C228.75105,123.7587 228.7068,124.0632 228.7068,124.3992 M227.6868,124.4112 C227.6868,123.93945 227.75655,123.5127 227.8968,123.1332 C228.0363,122.7537 228.2223,122.4312 228.4548,122.16645 C228.6873,121.9032 228.95505,121.69845 229.2588,121.5552 C229.5633,121.4112 229.8828,121.3392 230.2188,121.3392 C230.5548,121.3392 230.8473,121.3992 231.0948,121.5192 C231.34305,121.63845 231.59505,121.8027 231.8508,122.01045 L231.8028,121.01445 L231.8028,118.7712 L232.7988,118.7712 L232.7988,127.3152 L231.9828,127.3152 L231.8988,126.6312 L231.8628,126.6312 C231.63105,126.8547 231.3648,127.04895 231.0648,127.2132 C230.7648,127.3767 230.4423,127.4592 230.0988,127.4592 C229.36305,127.4592 228.77655,127.1952 228.3408,126.66645 C227.90505,126.13845 227.6868,125.38695 227.6868,124.4112" id="Fill-33" fill="#3F3F3F" mask="url(#mask-4)"></path>
                    <path d="M234.8031,121.482675 L235.7991,121.482675 L235.7991,125.046675 C235.7991,125.598675 235.8846,125.997675 236.0571,126.241425 C236.22885,126.485175 236.5071,126.606675 236.8911,126.606675 C237.19485,126.606675 237.4626,126.529425 237.6951,126.373425 C237.92685,126.216675 238.1826,125.966925 238.4631,125.623425 L238.4631,121.482675 L239.4471,121.482675 L239.4471,127.314675 L238.6311,127.314675 L238.5471,126.403425 L238.5111,126.403425 C238.23885,126.722925 237.9531,126.978675 237.6531,127.170675 C237.3531,127.363425 236.9991,127.459425 236.5911,127.459425 C235.9671,127.459425 235.5126,127.266675 235.2291,126.882675 C234.94485,126.498675 234.8031,125.930925 234.8031,125.179425 L234.8031,121.482675 Z" id="Fill-34" fill="#3F3F3F" mask="url(#mask-4)"></path>
                    <path d="M242.218875,125.73075 C242.218875,126.06675 242.316375,126.3075 242.512875,126.45075 C242.708625,126.59475 242.950875,126.66675 243.238875,126.66675 C243.518625,126.66675 243.784875,126.60075 244.036875,126.46875 C244.288875,126.3375 244.554375,126.14325 244.834875,125.88675 L244.834875,124.26675 C244.346625,124.33125 243.934875,124.407 243.598875,124.4955 C243.262875,124.58325 242.992875,124.68675 242.788875,124.8075 C242.584875,124.9275 242.438625,125.06475 242.350875,125.22075 C242.263125,125.37675 242.218875,125.547 242.218875,125.73075 M241.246875,125.8035 C241.246875,125.163 241.532625,124.67325 242.104875,124.3335 C242.676375,123.993 243.586875,123.75525 244.834875,123.6195 C244.834875,123.435 244.816875,123.255 244.780875,123.07875 C244.744875,122.9025 244.680375,122.7465 244.588875,122.61075 C244.496625,122.475 244.375125,122.3655 244.222875,122.28075 C244.070625,122.19675 243.874875,122.15475 243.634875,122.15475 C243.290625,122.15475 242.972625,122.2185 242.680875,122.34675 C242.389125,122.475 242.126625,122.619 241.894875,122.77875 L241.498875,122.09475 C241.770375,121.91925 242.102625,121.749 242.494875,121.5855 C242.886375,121.42125 243.318375,121.3395 243.790875,121.3395 C244.502625,121.3395 245.018625,121.557 245.338875,121.9935 C245.658375,122.42925 245.818875,123.01125 245.818875,123.7395 L245.818875,127.31475 L245.002875,127.31475 L244.918875,126.6195 L244.894875,126.6195 C244.614375,126.85125 244.312875,127.04925 243.988875,127.2135 C243.664875,127.37625 243.322875,127.4595 242.962875,127.4595 C242.467125,127.4595 242.056875,127.31475 241.732875,127.0275 C241.408875,126.7395 241.246875,126.3315 241.246875,125.8035" id="Fill-35" fill="#3F3F3F" mask="url(#mask-4)"></path>
                    <path d="M247.7988,118.771275 L248.7828,118.771275 L248.7828,126.211275 C248.7828,126.371025 248.81055,126.482775 248.8668,126.546525 C248.92305,126.611025 248.9868,126.642525 249.0588,126.642525 L249.1488,126.642525 C249.17655,126.642525 249.21855,126.635025 249.2748,126.619275 L249.4068,127.363275 C249.34305,127.394775 249.26655,127.418775 249.1788,127.435275 C249.09105,127.451025 248.97855,127.459275 248.8428,127.459275 C248.46705,127.459275 248.19855,127.347525 248.0388,127.123275 C247.8783,126.899025 247.7988,126.570525 247.7988,126.138525 L247.7988,118.771275 Z" id="Fill-36" fill="#3F3F3F" mask="url(#mask-4)"></path>
                    <path d="M250.82265,125.995125 C251.0784,126.202875 251.34015,126.370875 251.60865,126.499125 C251.8764,126.627375 252.18615,126.691125 252.53865,126.691125 C252.92265,126.691125 253.21065,126.603375 253.40265,126.427125 C253.59465,126.250875 253.69065,126.035625 253.69065,125.779125 C253.69065,125.626875 253.6509,125.494875 253.57065,125.383125 C253.4904,125.270625 253.3884,125.172375 253.26465,125.089125 C253.14015,125.005125 252.9984,124.930875 252.83865,124.867125 C252.6789,124.802625 252.5184,124.738875 252.35865,124.675125 C252.1509,124.603125 251.9424,124.520625 251.73465,124.429125 C251.52615,124.336875 251.34015,124.225125 251.17665,124.093125 C251.0124,123.961125 250.8789,123.806625 250.77465,123.631125 C250.6704,123.454875 250.61865,123.242625 250.61865,122.995125 C250.61865,122.762625 250.6644,122.544375 250.75665,122.341125 C250.8489,122.136375 250.98015,121.960875 251.15265,121.813125 C251.3244,121.665375 251.5344,121.548375 251.78265,121.465125 C252.03015,121.381125 252.31065,121.339125 252.62265,121.339125 C252.9909,121.339125 253.3284,121.402875 253.63665,121.531125 C253.9449,121.659375 254.2104,121.815375 254.43465,121.999125 L253.96665,122.623125 C253.7664,122.470875 253.55865,122.347125 253.34265,122.251125 C253.12665,122.155125 252.8904,122.106375 252.63465,122.106375 C252.2664,122.106375 251.9964,122.191125 251.82465,122.358375 C251.65215,122.527125 251.56665,122.723625 251.56665,122.947125 C251.56665,123.082875 251.60265,123.200625 251.67465,123.301125 C251.74665,123.400875 251.84265,123.488625 251.96265,123.565125 C252.08265,123.640875 252.22065,123.709125 252.37665,123.769125 C252.53265,123.828375 252.69465,123.890625 252.86265,123.954375 C253.0704,124.035375 253.2804,124.118625 253.49265,124.207125 C253.70415,124.294875 253.89465,124.405125 254.06265,124.537125 C254.23065,124.668375 254.36865,124.831125 254.47665,125.023125 C254.58465,125.215125 254.63865,125.447625 254.63865,125.719125 C254.63865,125.959125 254.59215,126.183375 254.50065,126.390375 C254.4084,126.599625 254.27265,126.783375 254.09265,126.943125 C253.91265,127.103625 253.6884,127.229625 253.42065,127.321125 C253.15215,127.413375 252.8469,127.459125 252.50265,127.459125 C252.0864,127.459125 251.6904,127.383375 251.31465,127.230375 C250.93815,127.078875 250.6104,126.886875 250.33065,126.655125 L250.82265,125.995125 Z" id="Fill-37" fill="#3F3F3F" mask="url(#mask-4)"></path>
                    <path d="M199.53555,62.353575 C199.76805,62.593575 200.0373,62.806575 200.34555,62.990325 C200.6538,63.174075 201.03555,63.265575 201.49155,63.265575 C201.9558,63.265575 202.3353,63.139575 202.63155,62.887575 C202.92705,62.635575 203.07555,62.293575 203.07555,61.862325 C203.07555,61.638075 203.03355,61.431825 202.94955,61.244325 C202.86555,61.056075 202.72755,60.894075 202.53555,60.757575 C202.34355,60.621825 202.09155,60.518325 201.77955,60.445575 C201.46755,60.373575 201.08355,60.337575 200.62755,60.337575 L200.62755,59.582325 C201.03555,59.582325 201.37755,59.545575 201.65355,59.473575 C201.92955,59.401575 202.1538,59.301825 202.32555,59.174325 C202.4973,59.046075 202.61955,58.893825 202.69155,58.717575 C202.76355,58.542075 202.79955,58.353825 202.79955,58.153575 C202.79955,57.777825 202.6818,57.481575 202.44555,57.265575 C202.2093,57.050325 201.88755,56.941575 201.47955,56.941575 C201.16005,56.941575 200.8653,57.013575 200.59755,57.157575 C200.3298,57.302325 200.08005,57.489825 199.84755,57.721575 L199.31955,57.097575 C199.61505,56.817825 199.94205,56.588325 200.29755,56.407575 C200.6538,56.227575 201.05955,56.137575 201.51555,56.137575 C201.85155,56.137575 202.1598,56.181825 202.43955,56.270325 C202.7193,56.358075 202.96155,56.484075 203.16555,56.648325 C203.36955,56.811825 203.5278,57.013575 203.63955,57.253575 C203.75205,57.494325 203.80755,57.770325 203.80755,58.082325 C203.80755,58.545825 203.6793,58.926075 203.42355,59.221575 C203.1678,59.517825 202.8318,59.745825 202.41555,59.905575 L202.41555,59.954325 C202.6473,60.009825 202.8633,60.091575 203.06355,60.199575 C203.2638,60.307575 203.44005,60.444075 203.59155,60.607575 C203.7438,60.771825 203.86155,60.962325 203.94555,61.178325 C204.02955,61.394325 204.07155,61.633575 204.07155,61.898325 C204.07155,62.233575 204.00555,62.538075 203.87355,62.809575 C203.74155,63.081825 203.56155,63.311325 203.33355,63.499575 C203.10555,63.687825 202.8393,63.831825 202.53555,63.931575 C202.2318,64.031325 201.9033,64.082325 201.55155,64.082325 C201.2478,64.082325 200.96955,64.052325 200.71755,63.992325 C200.46555,63.931575 200.23605,63.852075 200.02755,63.751575 C199.81905,63.651825 199.63305,63.537825 199.46955,63.409575 C199.3053,63.282075 199.1598,63.146325 199.03155,63.001575 L199.53555,62.353575 Z" id="Fill-38" fill="#3F3F3F" mask="url(#mask-4)"></path>
                    <path d="M207.7914,63.289575 C208.01565,63.289575 208.2174,63.228075 208.3974,63.103575 C208.5774,62.979825 208.7334,62.787825 208.8654,62.527575 C208.9974,62.268075 209.0994,61.935825 209.1714,61.531575 C209.2434,61.128075 209.2794,60.645825 209.2794,60.086325 C209.2794,59.525325 209.2434,59.046075 209.1714,58.646325 C209.0994,58.245825 208.9974,57.919575 208.8654,57.667575 C208.7334,57.415575 208.5774,57.229575 208.3974,57.110325 C208.2174,56.990325 208.01565,56.930325 207.7914,56.930325 C207.56715,56.930325 207.36315,56.990325 207.1794,57.110325 C206.9949,57.229575 206.8374,57.415575 206.7054,57.667575 C206.5734,57.919575 206.4714,58.245825 206.3994,58.646325 C206.3274,59.046075 206.2914,59.525325 206.2914,60.086325 C206.2914,61.206075 206.4294,62.019825 206.7054,62.527575 C206.9814,63.036075 207.34365,63.289575 207.7914,63.289575 M207.7914,64.082325 C207.01515,64.082325 206.4114,63.738075 205.9794,63.050325 C205.5474,62.361825 205.3314,61.373325 205.3314,60.086325 C205.3314,58.797825 205.5474,57.817575 205.9794,57.146325 C206.4114,56.473575 207.01515,56.137575 207.7914,56.137575 C208.5594,56.137575 209.1594,56.473575 209.5914,57.146325 C210.0234,57.817575 210.2394,58.797825 210.2394,60.086325 C210.2394,61.373325 210.0234,62.361825 209.5914,63.050325 C209.1594,63.738075 208.5594,64.082325 207.7914,64.082325" id="Fill-39" fill="#3F3F3F" mask="url(#mask-4)"></path>
                    <path d="M218.57925,63.469725 C218.883,63.469725 219.13125,63.311475 219.32325,62.995725 C219.51525,62.679225 219.61125,62.209725 219.61125,61.585725 C219.61125,60.961725 219.51525,60.495975 219.32325,60.187725 C219.13125,59.880225 218.883,59.725725 218.57925,59.725725 C218.26725,59.725725 218.01525,59.880225 217.82325,60.187725 C217.63125,60.495975 217.53525,60.961725 217.53525,61.585725 C217.53525,62.209725 217.63125,62.679225 217.82325,62.995725 C218.01525,63.311475 218.26725,63.469725 218.57925,63.469725 L218.57925,63.469725 Z M218.57925,64.081725 C218.03475,64.081725 217.60125,63.865725 217.27725,63.433725 C216.95325,63.001725 216.79125,62.385975 216.79125,61.585725 C216.79125,60.793725 216.95325,60.183975 217.27725,59.755725 C217.60125,59.328225 218.03475,59.113725 218.57925,59.113725 C219.1155,59.113725 219.5475,59.328225 219.87525,59.755725 C220.20375,60.183975 220.36725,60.793725 220.36725,61.585725 C220.36725,62.385975 220.20375,63.001725 219.87525,63.433725 C219.5475,63.865725 219.1155,64.081725 218.57925,64.081725 L218.57925,64.081725 Z M213.31125,64.081725 L217.65525,55.921725 L218.32725,55.921725 L213.98325,64.081725 L213.31125,64.081725 Z M213.09525,60.277725 C213.399,60.277725 213.64725,60.119475 213.83925,59.803725 C214.03125,59.487225 214.12725,59.017725 214.12725,58.393725 C214.12725,57.769725 214.03125,57.303225 213.83925,56.995725 C213.64725,56.688225 213.399,56.533725 213.09525,56.533725 C212.78325,56.533725 212.53125,56.688225 212.33925,56.995725 C212.14725,57.303225 212.05125,57.769725 212.05125,58.393725 C212.05125,59.017725 212.14725,59.487225 212.33925,59.803725 C212.53125,60.119475 212.78325,60.277725 213.09525,60.277725 L213.09525,60.277725 Z M213.09525,60.889725 C212.55075,60.889725 212.11725,60.673725 211.79325,60.241725 C211.46925,59.809725 211.30725,59.193975 211.30725,58.393725 C211.30725,57.601725 211.46925,56.991225 211.79325,56.563725 C212.11725,56.136225 212.55075,55.921725 213.09525,55.921725 C213.6315,55.921725 214.0635,56.136225 214.39125,56.563725 C214.71975,56.991225 214.88325,57.601725 214.88325,58.393725 C214.88325,59.193975 214.71975,59.809725 214.39125,60.241725 C214.0635,60.673725 213.6315,60.889725 213.09525,60.889725 L213.09525,60.889725 Z" id="Fill-40" fill="#3F3F3F" mask="url(#mask-4)"></path>
                    <path d="M225.107325,62.353575 C225.107325,62.689575 225.204825,62.930325 225.401325,63.073575 C225.597075,63.217575 225.839325,63.289575 226.127325,63.289575 C226.407075,63.289575 226.673325,63.223575 226.925325,63.091575 C227.177325,62.960325 227.442825,62.766075 227.723325,62.509575 L227.723325,60.889575 C227.235075,60.954075 226.823325,61.029825 226.487325,61.118325 C226.151325,61.206075 225.881325,61.309575 225.677325,61.430325 C225.473325,61.550325 225.327075,61.687575 225.239325,61.843575 C225.151575,61.999575 225.107325,62.169825 225.107325,62.353575 M224.135325,62.426325 C224.135325,61.785825 224.421075,61.296075 224.993325,60.956325 C225.564825,60.615825 226.475325,60.378075 227.723325,60.242325 C227.723325,60.057825 227.705325,59.877825 227.669325,59.701575 C227.633325,59.525325 227.568825,59.369325 227.477325,59.233575 C227.385075,59.097825 227.263575,58.988325 227.111325,58.903575 C226.959075,58.819575 226.763325,58.777575 226.523325,58.777575 C226.179075,58.777575 225.861075,58.841325 225.569325,58.969575 C225.277575,59.097825 225.015075,59.241825 224.783325,59.401575 L224.387325,58.717575 C224.658825,58.542075 224.991075,58.371825 225.383325,58.208325 C225.774825,58.044075 226.206825,57.962325 226.679325,57.962325 C227.391075,57.962325 227.907075,58.179825 228.227325,58.616325 C228.546825,59.052075 228.707325,59.634075 228.707325,60.362325 L228.707325,63.937575 L227.891325,63.937575 L227.807325,63.242325 L227.783325,63.242325 C227.502825,63.474075 227.201325,63.672075 226.877325,63.836325 C226.553325,63.999075 226.211325,64.082325 225.851325,64.082325 C225.355575,64.082325 224.945325,63.937575 224.621325,63.650325 C224.297325,63.362325 224.135325,62.954325 224.135325,62.426325" id="Fill-41" fill="#3F3F3F" mask="url(#mask-4)"></path>
                    <path d="M230.68725,58.1055 L231.50325,58.1055 L231.58725,59.1615 L231.62325,59.1615 C231.8235,58.794 232.065,58.5015 232.34925,58.2855 C232.6335,58.0695 232.94325,57.96225 233.27925,57.96225 C233.511,57.96225 233.71875,58.002 233.90325,58.08225 L233.71125,58.9455 C233.61525,58.914 233.5275,58.89 233.44725,58.8735 C233.367,58.85775 233.26725,58.8495 233.14725,58.8495 C232.899,58.8495 232.641,58.95 232.37325,59.15025 C232.1055,59.34975 231.8715,59.69775 231.67125,60.1935 L231.67125,63.9375 L230.68725,63.9375 L230.68725,58.1055 Z" id="Fill-42" fill="#3F3F3F" mask="url(#mask-4)"></path>
                    <path d="M238.498875,60.589875 C238.498875,59.989875 238.372875,59.532375 238.120875,59.215875 C237.868875,58.900125 237.514875,58.741875 237.058875,58.741875 C236.851125,58.741875 236.653125,58.783875 236.464875,58.867875 C236.277375,58.951125 236.107125,59.071875 235.954875,59.227875 C235.802625,59.383875 235.676625,59.575125 235.576875,59.803875 C235.477125,60.031875 235.411125,60.293625 235.378875,60.589875 L238.498875,60.589875 Z M234.418875,61.033875 C234.418875,60.553875 234.493125,60.124125 234.640875,59.743875 C234.789375,59.363625 234.985125,59.041875 235.228875,58.777875 C235.472625,58.513125 235.750875,58.312125 236.062875,58.171125 C236.374875,58.032375 236.698875,57.961875 237.034875,57.961875 C237.403125,57.961875 237.733125,58.025625 238.024875,58.153875 C238.316625,58.282125 238.561125,58.465875 238.756875,58.705875 C238.952625,58.945875 239.103375,59.233125 239.206875,59.569875 C239.311125,59.905875 239.362875,60.282375 239.362875,60.697875 C239.362875,60.913875 239.350875,61.093875 239.326875,61.237875 L235.390875,61.237875 C235.431375,61.870125 235.624875,62.369625 235.972875,62.737875 C236.320875,63.105375 236.775375,63.289875 237.334875,63.289875 C237.614625,63.289875 237.873375,63.247875 238.108875,63.163875 C238.345125,63.079875 238.570875,62.970375 238.786875,62.833875 L239.134875,63.481125 C238.879125,63.641625 238.594875,63.781875 238.282875,63.901875 C237.970875,64.021875 237.614625,64.081875 237.214875,64.081875 C236.823375,64.081875 236.456625,64.011375 236.116875,63.871875 C235.777125,63.731625 235.480875,63.532125 235.228875,63.271875 C234.976875,63.011625 234.778875,62.694375 234.634875,62.317875 C234.490875,61.942125 234.418875,61.513125 234.418875,61.033875 L234.418875,61.033875 Z" id="Fill-43" fill="#3F3F3F" mask="url(#mask-4)"></path>
                    <path d="M199.70325,77.4375 L200.68725,77.4375 L200.68725,71.6055 L199.70325,71.6055 L199.70325,77.4375 Z M200.20725,70.4055 C200.01525,70.4055 199.854,70.3455 199.72125,70.2255 C199.59,70.1055 199.52325,69.954 199.52325,69.77025 C199.52325,69.5775 199.59,69.42375 199.72125,69.30825 C199.854,69.192 200.01525,69.1335 200.20725,69.1335 C200.4,69.1335 200.562,69.192 200.69325,69.30825 C200.826,69.42375 200.89125,69.5775 200.89125,69.77025 C200.89125,69.954 200.826,70.1055 200.69325,70.2255 C200.562,70.3455 200.4,70.4055 200.20725,70.4055 L200.20725,70.4055 Z" id="Fill-44" fill="#3F3F3F" mask="url(#mask-4)"></path>
                    <path d="M202.7754,71.6055 L203.5914,71.6055 L203.6754,72.4455 L203.7114,72.4455 C203.99115,72.16575 204.28515,71.9325 204.5934,71.74425 C204.9009,71.556 205.2594,71.46225 205.6674,71.46225 C206.28315,71.46225 206.73315,71.6535 207.0174,72.0375 C207.30165,72.4215 207.4434,72.99 207.4434,73.74225 L207.4434,77.4375 L206.4594,77.4375 L206.4594,73.8735 C206.4594,73.3215 206.3709,72.924 206.1954,72.68025 C206.01915,72.43575 205.7394,72.3135 205.3554,72.3135 C205.05165,72.3135 204.78315,72.39 204.5514,72.5415 C204.31965,72.69375 204.05565,72.918 203.7594,73.21425 L203.7594,77.4375 L202.7754,77.4375 L202.7754,71.6055 Z" id="Fill-45" fill="#3F3F3F" mask="url(#mask-4)"></path>
                    <path d="M214.631475,69.697575 C214.415475,69.601575 214.194975,69.554325 213.971475,69.554325 C213.427725,69.554325 213.155475,69.930075 213.155475,70.681575 L213.155475,71.605575 L214.391475,71.605575 L214.391475,72.409575 L213.155475,72.409575 L213.155475,77.437575 L212.171475,77.437575 L212.171475,72.409575 L211.379475,72.409575 L211.379475,71.665575 L212.171475,71.605575 L212.171475,70.681575 C212.171475,70.082325 212.309475,69.609825 212.585475,69.265575 C212.861475,68.922075 213.291225,68.749575 213.875475,68.749575 C214.059225,68.749575 214.233225,68.768325 214.397475,68.804325 C214.561725,68.839575 214.710975,68.886075 214.847475,68.941575 L214.631475,69.697575 Z" id="Fill-46" fill="#3F3F3F" mask="url(#mask-4)"></path>
                    <path d="M216.0714,75.853575 C216.0714,76.189575 216.1689,76.430325 216.3654,76.573575 C216.56115,76.717575 216.8034,76.789575 217.0914,76.789575 C217.37115,76.789575 217.6374,76.723575 217.8894,76.591575 C218.1414,76.460325 218.4069,76.266075 218.6874,76.009575 L218.6874,74.389575 C218.19915,74.454075 217.7874,74.529825 217.4514,74.618325 C217.1154,74.706075 216.8454,74.809575 216.6414,74.930325 C216.4374,75.050325 216.29115,75.187575 216.2034,75.343575 C216.11565,75.499575 216.0714,75.669825 216.0714,75.853575 M215.0994,75.926325 C215.0994,75.285825 215.38515,74.796075 215.9574,74.456325 C216.5289,74.115825 217.4394,73.878075 218.6874,73.742325 C218.6874,73.557825 218.6694,73.377825 218.6334,73.201575 C218.5974,73.025325 218.5329,72.869325 218.4414,72.733575 C218.34915,72.597825 218.22765,72.488325 218.0754,72.403575 C217.92315,72.319575 217.7274,72.277575 217.4874,72.277575 C217.14315,72.277575 216.82515,72.341325 216.5334,72.469575 C216.24165,72.597825 215.97915,72.741825 215.7474,72.901575 L215.3514,72.217575 C215.6229,72.042075 215.95515,71.871825 216.3474,71.708325 C216.7389,71.544075 217.1709,71.462325 217.6434,71.462325 C218.35515,71.462325 218.87115,71.679825 219.1914,72.116325 C219.5109,72.552075 219.6714,73.134075 219.6714,73.862325 L219.6714,77.437575 L218.8554,77.437575 L218.7714,76.742325 L218.7474,76.742325 C218.4669,76.974075 218.1654,77.172075 217.8414,77.336325 C217.5174,77.499075 217.1754,77.582325 216.8154,77.582325 C216.31965,77.582325 215.9094,77.437575 215.5854,77.150325 C215.2614,76.862325 215.0994,76.454325 215.0994,75.926325" id="Fill-47" fill="#3F3F3F" mask="url(#mask-4)"></path>
                    <path d="M221.6514,71.6055 L222.4674,71.6055 L222.5514,72.4455 L222.5874,72.4455 C222.84315,72.16575 223.1214,71.9325 223.4214,71.74425 C223.7214,71.556 224.0469,71.46225 224.3994,71.46225 C224.84715,71.46225 225.1974,71.55975 225.4494,71.7555 C225.7014,71.952 225.8874,72.22575 226.0074,72.5775 C226.31115,72.24225 226.61715,71.9715 226.9254,71.76825 C227.2329,71.5635 227.5674,71.46225 227.9274,71.46225 C228.5274,71.46225 228.97365,71.6535 229.2654,72.0375 C229.55715,72.4215 229.7034,72.99 229.7034,73.74225 L229.7034,77.4375 L228.7194,77.4375 L228.7194,73.8735 C228.7194,73.3215 228.63165,72.924 228.4554,72.68025 C228.27915,72.43575 228.00765,72.3135 227.6394,72.3135 C227.19915,72.3135 226.71165,72.61425 226.1754,73.21425 L226.1754,77.4375 L225.1914,77.4375 L225.1914,73.8735 C225.1914,73.3215 225.10365,72.924 224.9274,72.68025 C224.75115,72.43575 224.47515,72.3135 224.0994,72.3135 C223.65915,72.3135 223.1709,72.61425 222.6354,73.21425 L222.6354,77.4375 L221.6514,77.4375 L221.6514,71.6055 Z" id="Fill-48" fill="#3F3F3F" mask="url(#mask-4)"></path>
                    <path d="M231.71925,77.4375 L232.70325,77.4375 L232.70325,71.6055 L231.71925,71.6055 L231.71925,77.4375 Z M232.22325,70.4055 C232.03125,70.4055 231.86925,70.3455 231.73725,70.2255 C231.60525,70.1055 231.53925,69.954 231.53925,69.77025 C231.53925,69.5775 231.60525,69.42375 231.73725,69.30825 C231.86925,69.192 232.03125,69.1335 232.22325,69.1335 C232.41525,69.1335 232.57725,69.192 232.70925,69.30825 C232.84125,69.42375 232.90725,69.5775 232.90725,69.77025 C232.90725,69.954 232.84125,70.1055 232.70925,70.2255 C232.57725,70.3455 232.41525,70.4055 232.22325,70.4055 L232.22325,70.4055 Z" id="Fill-49" fill="#3F3F3F" mask="url(#mask-4)"></path>
                    <path d="M234.791025,68.8941 L235.775025,68.8941 L235.775025,76.3341 C235.775025,76.49385 235.802775,76.6056 235.859025,76.66935 C235.915275,76.73385 235.979025,76.76535 236.051025,76.76535 L236.141025,76.76535 C236.168775,76.76535 236.210775,76.75785 236.267025,76.7421 L236.399025,77.4861 C236.335275,77.5176 236.258775,77.5416 236.171025,77.5581 C236.083275,77.57385 235.970775,77.5821 235.835025,77.5821 C235.459275,77.5821 235.190775,77.47035 235.031025,77.2461 C234.870525,77.02185 234.791025,76.69335 234.791025,76.26135 L234.791025,68.8941 Z" id="Fill-50" fill="#3F3F3F" mask="url(#mask-4)"></path>
                    <path d="M237.9705,77.4375 L238.9545,77.4375 L238.9545,71.6055 L237.9705,71.6055 L237.9705,77.4375 Z M238.4745,70.4055 C238.2825,70.4055 238.12125,70.3455 237.9885,70.2255 C237.85725,70.1055 237.7905,69.954 237.7905,69.77025 C237.7905,69.5775 237.85725,69.42375 237.9885,69.30825 C238.12125,69.192 238.2825,69.1335 238.4745,69.1335 C238.66725,69.1335 238.8285,69.192 238.9605,69.30825 C239.09325,69.42375 239.1585,69.5775 239.1585,69.77025 C239.1585,69.954 239.09325,70.1055 238.9605,70.2255 C238.8285,70.3455 238.66725,70.4055 238.4745,70.4055 L238.4745,70.4055 Z" id="Fill-51" fill="#3F3F3F" mask="url(#mask-4)"></path>
                    <path d="M244.6908,74.089875 C244.6908,73.489875 244.5648,73.032375 244.3128,72.715875 C244.0608,72.400125 243.7068,72.241875 243.2508,72.241875 C243.04305,72.241875 242.84505,72.283875 242.6568,72.367875 C242.4693,72.451125 242.29905,72.571875 242.1468,72.727875 C241.99455,72.883875 241.86855,73.075125 241.7688,73.303875 C241.66905,73.531875 241.60305,73.793625 241.5708,74.089875 L244.6908,74.089875 Z M240.6108,74.533875 C240.6108,74.053875 240.68505,73.624125 240.8328,73.243875 C240.9813,72.863625 241.17705,72.541875 241.4208,72.277875 C241.66455,72.013125 241.9428,71.812125 242.2548,71.671125 C242.5668,71.532375 242.8908,71.461875 243.2268,71.461875 C243.59505,71.461875 243.92505,71.525625 244.2168,71.653875 C244.50855,71.782125 244.75305,71.965875 244.9488,72.205875 C245.14455,72.445875 245.2953,72.733125 245.3988,73.069875 C245.50305,73.405875 245.5548,73.782375 245.5548,74.197875 C245.5548,74.413875 245.5428,74.593875 245.5188,74.737875 L241.5828,74.737875 C241.6233,75.370125 241.8168,75.869625 242.1648,76.237875 C242.5128,76.605375 242.9673,76.789875 243.5268,76.789875 C243.80655,76.789875 244.0653,76.747875 244.3008,76.663875 C244.53705,76.579875 244.7628,76.470375 244.9788,76.333875 L245.3268,76.981125 C245.07105,77.141625 244.7868,77.281875 244.4748,77.401875 C244.1628,77.521875 243.80655,77.581875 243.4068,77.581875 C243.0153,77.581875 242.64855,77.511375 242.3088,77.371875 C241.96905,77.231625 241.6728,77.032125 241.4208,76.771875 C241.1688,76.511625 240.9708,76.194375 240.8268,75.817875 C240.6828,75.442125 240.6108,75.013125 240.6108,74.533875 L240.6108,74.533875 Z" id="Fill-52" fill="#3F3F3F" mask="url(#mask-4)"></path>
                    <path d="M246.958725,76.11795 C247.214475,76.3257 247.476225,76.4937 247.744725,76.62195 C248.012475,76.7502 248.322225,76.81395 248.674725,76.81395 C249.058725,76.81395 249.346725,76.7262 249.538725,76.54995 C249.730725,76.3737 249.826725,76.15845 249.826725,75.90195 C249.826725,75.7497 249.786975,75.6177 249.706725,75.50595 C249.626475,75.39345 249.524475,75.2952 249.400725,75.21195 C249.276225,75.12795 249.134475,75.0537 248.974725,74.98995 C248.814975,74.92545 248.654475,74.8617 248.494725,74.79795 C248.286975,74.72595 248.078475,74.64345 247.870725,74.55195 C247.662225,74.4597 247.476225,74.34795 247.312725,74.21595 C247.148475,74.08395 247.014975,73.92945 246.910725,73.75395 C246.806475,73.5777 246.754725,73.36545 246.754725,73.11795 C246.754725,72.88545 246.800475,72.6672 246.892725,72.46395 C246.984975,72.2592 247.116225,72.0837 247.288725,71.93595 C247.460475,71.7882 247.670475,71.6712 247.918725,71.58795 C248.166225,71.50395 248.446725,71.46195 248.758725,71.46195 C249.126975,71.46195 249.464475,71.5257 249.772725,71.65395 C250.080975,71.7822 250.346475,71.9382 250.570725,72.12195 L250.102725,72.74595 C249.902475,72.5937 249.694725,72.46995 249.478725,72.37395 C249.262725,72.27795 249.026475,72.2292 248.770725,72.2292 C248.402475,72.2292 248.132475,72.31395 247.960725,72.4812 C247.788225,72.64995 247.702725,72.84645 247.702725,73.06995 C247.702725,73.2057 247.738725,73.32345 247.810725,73.42395 C247.882725,73.5237 247.978725,73.61145 248.098725,73.68795 C248.218725,73.7637 248.356725,73.83195 248.512725,73.89195 C248.668725,73.9512 248.830725,74.01345 248.998725,74.0772 C249.206475,74.1582 249.416475,74.24145 249.628725,74.32995 C249.840225,74.4177 250.030725,74.52795 250.198725,74.65995 C250.366725,74.7912 250.504725,74.95395 250.612725,75.14595 C250.720725,75.33795 250.774725,75.57045 250.774725,75.84195 C250.774725,76.08195 250.728225,76.3062 250.636725,76.5132 C250.544475,76.72245 250.408725,76.9062 250.228725,77.06595 C250.048725,77.22645 249.824475,77.35245 249.556725,77.44395 C249.288225,77.5362 248.982975,77.58195 248.638725,77.58195 C248.222475,77.58195 247.826475,77.5062 247.450725,77.3532 C247.074225,77.2017 246.746475,77.0097 246.466725,76.77795 L246.958725,76.11795 Z" id="Fill-53" fill="#3F3F3F" mask="url(#mask-4)"></path>
                </g>
                <g id="Group-73" transform="translate(0.000000, 83.754000)">
                    <g id="Group-57">
                        <mask id="mask-6" fill="white">
                            <use xlink:href="#path-5"></use>
                        </mask>
                        <g id="Clip-56"></g>
                        <path d="M177.623325,-14.2248 C177.623325,-2.63505 168.227325,6.7602 156.638325,6.7602 C145.047825,6.7602 135.652575,-2.63505 135.652575,-14.2248 C135.652575,-25.8138 145.047825,-35.21055 156.638325,-35.21055 C168.227325,-35.21055 177.623325,-25.8138 177.623325,-14.2248" id="Fill-55" fill="#9EBC4B" mask="url(#mask-6)"></path>
                    </g>
                    <g id="Group-60">
                        <mask id="mask-8" fill="white">
                            <use xlink:href="#path-7"></use>
                        </mask>
                        <g id="Clip-59"></g>
                        <path d="M177.69945,8.372625 L163.7697,8.372625 L149.50695,8.372625 L135.5772,8.372625 C129.8397,8.372625 125.14395,13.187625 125.0547,19.105875 C130.71795,22.146375 134.5932,28.234875 134.5932,35.238375 C134.5932,35.238375 135.24495,79.608375 135.5772,79.608375 L135.5772,127.552875 C135.5772,133.549875 140.3157,138.456375 146.10645,138.456375 C151.8987,138.456375 156.63795,133.549875 156.63795,127.552875 C156.63795,133.549875 161.3772,138.456375 167.16795,138.456375 C172.9602,138.456375 177.69945,133.549875 177.69945,127.552875 L177.69945,79.608375 C183.49095,79.608375 188.22945,74.701875 188.22945,68.707125 L188.22945,19.274625 C188.22945,13.279125 183.49095,8.372625 177.69945,8.372625" id="Fill-58" fill="#9EBC4B" mask="url(#mask-8)"></path>
                    </g>
                    <g id="Group-63">
                        <mask id="mask-10" fill="white">
                            <use xlink:href="#path-9"></use>
                        </mask>
                        <g id="Clip-62"></g>
                        <path d="M58.52745,-14.2248 C58.52745,-2.63505 49.13145,6.7602 37.5417,6.7602 C25.95195,6.7602 16.55595,-2.63505 16.55595,-14.2248 C16.55595,-25.8138 25.95195,-35.21055 37.5417,-35.21055 C49.13145,-35.21055 58.52745,-25.8138 58.52745,-14.2248" id="Fill-61" fill="#9EBC4B" mask="url(#mask-10)"></path>
                    </g>
                    <g id="Group-66">
                        <mask id="mask-12" fill="white">
                            <use xlink:href="#path-11"></use>
                        </mask>
                        <g id="Clip-65"></g>
                        <path d="M58.6029,35.238525 C58.6029,27.002775 61.70115,20.032275 69.0234,17.795775 C68.3199,12.494025 63.9099,8.372775 58.6029,8.372775 L44.67315,8.372775 L30.4104,8.372775 L16.4799,8.372775 C10.6884,8.372775 5.95065,13.279275 5.95065,19.274775 L5.95065,68.707275 C5.95065,74.702025 10.6884,79.608525 16.4799,79.608525 L16.4799,127.553025 C16.4799,133.550025 21.2199,138.456525 27.01065,138.456525 C32.8029,138.456525 37.5414,133.550025 37.5414,127.553025 C37.5414,133.550025 42.28065,138.456525 48.07215,138.456525 C53.86365,138.456525 58.6029,133.550025 58.6029,127.553025 L58.6029,107.601525 L58.6029,35.238525 Z" id="Fill-64" fill="#9EBC4B" mask="url(#mask-12)"></path>
                    </g>
                    <g id="Group-69">
                        <mask id="mask-14" fill="white">
                            <use xlink:href="#path-13"></use>
                        </mask>
                        <g id="Clip-68"></g>
                        <path d="M122.51625,-27.154275 L104.62725,-27.154275 L86.31,-27.154275 L68.421,-27.154275 C60.98325,-27.154275 54.89775,-20.854275 54.89775,-13.154025 L54.89775,50.328975 C54.89775,58.028475 60.98325,64.329225 68.421,64.329225 L68.421,125.900475 C68.421,133.602975 74.5065,139.902975 81.94425,139.902975 C89.3835,139.902975 95.469,133.602975 95.469,125.900475 C95.469,133.602975 101.5545,139.902975 108.993,139.902975 C116.43075,139.902975 122.51625,133.602975 122.51625,125.900475 L122.51625,64.329225 C129.954,64.329225 136.0395,58.028475 136.0395,50.328975 L136.0395,-13.154025 C136.0395,-20.854275 129.954,-27.154275 122.51625,-27.154275" id="Fill-67" fill="#9EBC4B" mask="url(#mask-14)"></path>
                    </g>
                    <g id="Group-72">
                        <mask id="mask-16" fill="white">
                            <use xlink:href="#path-15"></use>
                        </mask>
                        <g id="Clip-71"></g>
                        <path d="M122.419575,-55.8117 C122.419575,-40.92795 110.352825,-28.86195 95.468325,-28.86195 C80.584575,-28.86195 68.518575,-40.92795 68.518575,-55.8117 C68.518575,-70.6962 80.584575,-82.7637 95.468325,-82.7637 C110.352825,-82.7637 122.419575,-70.6962 122.419575,-55.8117" id="Fill-70" fill="#BF56B8" mask="url(#mask-16)"></path>
                    </g>
                </g>
                <g id="Group-80" transform="translate(6.000000, 82.254000)" stroke="#FFFFFF" stroke-width="1.9815">
                    <line x1="0.167025" y1="0.69825" x2="2.148525" y2="0.69825" id="Stroke-74"></line>
                    <line x1="4.108125" y1="0.69825" x2="179.491125" y2="0.69825" id="Stroke-76" stroke-dasharray="3.91949987411499,1.959749937057495"></line>
                    <line x1="180.470925" y1="0.69825" x2="182.452425" y2="0.69825" id="Stroke-78"></line>
                </g>
            </g>
        </g>
    </g>
</svg>