<?xml version="1.0" encoding="UTF-8"?>
<svg width="557px" height="526px" viewBox="0 0 557 526" version="1.1" xmlns="http://www.w3.org/2000/svg" xmlns:xlink="http://www.w3.org/1999/xlink">
    <!-- Generator: Sketch 59.1 (86144) - https://sketch.com -->
    <title>Group 822</title>
    <desc>Created with Sketch.</desc>
    <defs>
        <polygon id="path-1" points="0 540.45 564 540.45 564 0 0 0"></polygon>
    </defs>
    <g id="Desktop" stroke="none" stroke-width="1" fill="none" fill-rule="evenodd">
        <g id="Homelessness-Section-3-2" transform="translate(-249.000000, -1510.000000)">
            <g id="Group-82" transform="translate(249.000000, 1510.000000)">
                <path d="M238.27515,353.624925 L385.95015,343.274925 C386.70015,354.449925 386.17515,365.699925 384.52515,376.799925 L238.27515,353.624925 Z" id="Fill-1" fill="#DDD0EA"></path>
                <path d="M386.325075,342.900075 L234.975075,353.475075 L384.825075,377.175075 C386.625075,365.925075 387.150075,354.375075 386.325075,342.900075 M385.650075,343.725075 C386.325075,354.600075 385.875075,365.625075 384.225075,376.350075 L241.575075,353.775075 L385.650075,343.725075" id="Fill-3" fill="#FFFFFF"></path>
                <path d="M378.22485,304.575 C382.49985,317.175 384.97485,329.25 385.94985,342.6 L237.82485,352.95 L378.22485,304.575 Z" id="Fill-5" fill="#DDD0EA"></path>
                <path d="M378.450075,304.124925 L234.975075,353.549925 L386.325075,342.974925 C385.425075,329.324925 382.875075,317.024925 378.450075,304.124925 M378.000075,305.024925 C382.200075,317.324925 384.600075,329.174925 385.575075,342.224925 L240.675075,352.349925 L378.000075,305.024925" id="Fill-7" fill="#FFFFFF"></path>
                <path d="M347.700075,252.525075 C361.950075,268.350075 371.025075,283.800075 377.925075,303.900075 L236.550075,352.575075 L347.700075,252.525075 Z" id="Fill-9" fill="#DDD0EA"></path>
                <path d="M347.77515,251.999925 L234.97515,353.474925 L378.45015,304.049925 C371.40015,283.574925 362.25015,268.124925 347.77515,251.999925 M347.70015,253.049925 C361.65015,268.649925 370.65015,283.874925 377.47515,303.674925 L238.20015,351.599925 L347.70015,253.049925" id="Fill-11" fill="#FFFFFF"></path>
                <path d="M289.575075,212.325 C312.450075,221.175 330.750075,233.775 347.250075,251.925 L235.875075,352.2 L289.575075,212.325 Z" id="Fill-13" fill="#DDD0EA"></path>
                <path d="M289.34985,211.874925 L234.97485,353.549925 L347.69985,251.999925 C331.12485,233.549925 312.52485,220.724925 289.34985,211.874925 M289.79985,212.849925 C312.29985,221.624925 330.44985,234.074925 346.72485,251.924925 L236.84985,350.849925 L289.79985,212.849925" id="Fill-15" fill="#FFFFFF"></path>
                <path d="M173.77515,215.10015 C193.80015,206.25015 214.35015,201.75015 234.67515,201.75015 C252.60015,201.75015 270.82515,205.20015 288.90015,212.10015 L234.97515,352.57515 L173.77515,215.10015 Z" id="Fill-17" fill="#DDD0EA"></path>
                <path d="M234.674925,201.29985 C214.049925,201.29985 193.574925,205.79985 173.249925,214.87485 L234.974925,353.47485 L289.349925,211.79985 C271.124925,204.82485 252.824925,201.29985 234.674925,201.29985 M234.674925,202.04985 C252.449925,202.04985 270.524925,205.49985 288.374925,212.24985 L234.899925,351.52485 L174.224925,215.24985 C194.174925,206.47485 214.499925,202.04985 234.674925,202.04985" id="Fill-19" fill="#FFFFFF"></path>
                <path d="M235.200075,504.8997 C227.250075,504.8997 219.225075,504.2997 211.350075,503.0247 C128.925075,489.97545 72.450075,412.2747 85.500075,329.85045 C93.900075,276.8997 124.200075,237.2997 173.100075,215.3997 L234.750075,353.85045 L384.450075,377.5497 C378.675075,413.2497 360.375075,445.6497 332.850075,468.97545 C305.475075,492.1497 270.825075,504.8997 235.200075,504.8997" id="Fill-21" fill="#DDD0EA"></path>
                <path d="M173.25,214.874925 C124.125,236.774925 93.525,276.599925 85.125,329.774925 C72,412.574925 128.475,490.274925 211.275,503.399925 C219.3,504.674925 227.325,505.274925 235.2,505.274925 C308.55,505.274925 373.05,451.949925 384.9,377.249925 L235.05,353.549925 L173.25,214.874925 Z M172.875,215.849925 L234.3,353.774925 L234.45,354.149925 L234.825,354.224925 L384,377.849925 C381.075,395.774925 375.075,412.724925 366.15,428.399925 C357.375,443.699925 346.125,457.274925 332.625,468.674925 C305.325,491.774925 270.75,504.449925 235.2,504.449925 C227.25,504.449925 219.3,503.849925 211.425,502.574925 C191.325,499.349925 172.425,492.374925 155.25,481.649925 C138.675,471.299925 124.425,458.024925 112.875,442.199925 C101.325,426.299925 93.15,408.674925 88.425,389.774925 C83.55,370.124925 82.725,350.024925 85.875,329.849925 C94.2,277.124925 124.275,237.749925 172.875,215.849925 L172.875,215.849925 Z" id="Fill-23" fill="#FFFFFF"></path>
                <text id="-$3,416,849--" font-family="SourceSansPro-Semibold, Source Sans Pro" font-size="12" font-weight="500" fill="#3F3F3F">
                    <tspan x="234.7617" y="84.0020877"> $3,416,849  </tspan>
                </text>
                <text id="Transitional-Living-for-Homeless-Youth" font-family="SourceSansPro-Semibold, Source Sans Pro" font-size="11.25" font-weight="500" letter-spacing="-0.517499998" fill="#3F3F3F">
                    <tspan x="234.7617" y="97.4448291">T</tspan>
                    <tspan x="239.8917" y="97.4448291" letter-spacing="-0.28125">r</tspan>
                    <tspan x="243.50295" y="97.4448291">ansitional Living </tspan>
                    <tspan x="325.7742" y="97.4448291" letter-spacing="-0.112500004">f</tspan>
                    <tspan x="329.11545" y="97.4448291">or Homeless </tspan>
                    <tspan x="391.37295" y="97.4448291" letter-spacing="-0.461250007">Y</tspan>
                    <tspan x="396.00795" y="97.4448291">outh</tspan>
                </text>
                <text id="$1,119,225--" font-family="SourceSansPro-Semibold, Source Sans Pro" font-size="12" font-weight="500" fill="#3F3F3F">
                    <tspan x="416.27895" y="265.774563">$1,119,225  </tspan>
                </text>
                <text id="Education-and-Prevention-" font-family="SourceSansPro-Semibold, Source Sans Pro" font-size="11.25" font-weight="500" fill="#3F3F3F">
                    <tspan x="416.27895" y="279.217304">Edu</tspan>
                    <tspan x="434.93145" y="279.217304" letter-spacing="-0.112500004">c</tspan>
                    <tspan x="439.90395" y="279.217304">ation and P</tspan>
                    <tspan x="495.07395" y="279.217304" letter-spacing="-0.112500004">r</tspan>
                    <tspan x="499.0452" y="279.217304" letter-spacing="0.0562500022">e</tspan>
                    <tspan x="504.8052" y="279.217304" letter-spacing="-0.044999999">v</tspan>
                    <tspan x="510.26145" y="279.217304">ention </tspan>
                </text>
                <text id="Grants-to-Reduce-Sexual-" font-family="SourceSansPro-Semibold, Source Sans Pro" font-size="11.25" font-weight="500" fill="#3F3F3F">
                    <tspan x="416.27895" y="292.717304">G</tspan>
                    <tspan x="423.34395" y="292.717304" letter-spacing="-0.28125">r</tspan>
                    <tspan x="426.9552" y="292.717304">ants </tspan>
                    <tspan x="450.3552" y="292.717304" letter-spacing="-0.112500004">t</tspan>
                    <tspan x="454.19145" y="292.717304">o </tspan>
                    <tspan x="462.67395" y="292.717304" letter-spacing="-0.112500004">R</tspan>
                    <tspan x="469.1877" y="292.717304">edu</tspan>
                    <tspan x="487.49145" y="292.717304" letter-spacing="-0.236249998">c</tspan>
                    <tspan x="492.1827" y="292.717304">e S</tspan>
                    <tspan x="506.32395" y="292.717304" letter-spacing="-0.0787499975">e</tspan>
                    <tspan x="511.81395" y="292.717304">xual </tspan>
                </text>
                <text id="Abuse-of-Runaway,-Homeless-" font-family="SourceSansPro-Semibold, Source Sans Pro" font-size="11.25" font-weight="500" fill="#3F3F3F">
                    <tspan x="416.27895" y="306.217304">Abuse of Runa</tspan>
                    <tspan x="485.19645" y="306.217304" letter-spacing="-0.112500004">w</tspan>
                    <tspan x="493.38645" y="306.217304">a</tspan>
                    <tspan x="499.2702" y="306.217304" letter-spacing="-0.393749982">y</tspan>
                    <tspan x="503.9052" y="306.217304">, Homeless </tspan>
                </text>
                <text id="and-Street-Youth" font-family="SourceSansPro-Semibold, Source Sans Pro" font-size="11.25" font-weight="500" fill="#3F3F3F">
                    <tspan x="416.27895" y="319.717304">and St</tspan>
                    <tspan x="447.30645" y="319.717304" letter-spacing="-0.112500004">r</tspan>
                    <tspan x="451.2777" y="319.717304">e</tspan>
                    <tspan x="456.98145" y="319.717304" letter-spacing="-0.158625003">e</tspan>
                    <tspan x="462.346575" y="319.717304">t </tspan>
                    <tspan x="468.714075" y="319.717304" letter-spacing="-0.460124999">Y</tspan>
                    <tspan x="473.3502" y="319.717304">outh</tspan>
                </text>
                <text id="-$2,029,026--" font-family="SourceSansPro-Semibold, Source Sans Pro" font-size="12" font-weight="500" fill="#3F3F3F">
                    <tspan x="311.27235" y="152.581713"> $2,029,026  </tspan>
                </text>
                <text id="Basic-Center-Grant" font-family="SourceSansPro-Semibold, Source Sans Pro" font-size="11.25" font-weight="500" fill="#3F3F3F">
                    <tspan x="311.27235" y="166.024454">Basic Cen</tspan>
                    <tspan x="357.6561" y="166.024454" letter-spacing="-0.112500004">t</tspan>
                    <tspan x="361.49235" y="166.024454">er G</tspan>
                    <tspan x="380.7636" y="166.024454" letter-spacing="-0.28125">r</tspan>
                    <tspan x="384.37485" y="166.024454">ant</tspan>
                </text>
                <text id="$1,776,590--" font-family="SourceSansPro-Semibold, Source Sans Pro" font-size="12" font-weight="500" fill="#3F3F3F">
                    <tspan x="416.27895" y="195.083388">$1,776,590  </tspan>
                </text>
                <text id="Homeless-Veterans’--" font-family="SourceSansPro-Semibold, Source Sans Pro" font-size="11.25" font-weight="500" fill="#3F3F3F">
                    <tspan x="416.27895" y="208.526129">Homeless </tspan>
                    <tspan x="465.8577" y="208.526129" letter-spacing="-0.168749996">V</tspan>
                    <tspan x="471.5277" y="208.526129" letter-spacing="-0.157499995">e</tspan>
                    <tspan x="476.89395" y="208.526129" letter-spacing="-0.112500004">t</tspan>
                    <tspan x="480.7302" y="208.526129">e</tspan>
                    <tspan x="486.43395" y="208.526129" letter-spacing="-0.28125">r</tspan>
                    <tspan x="490.0452" y="208.526129">an</tspan>
                    <tspan x="502.22895" y="208.526129" letter-spacing="-0.123750005">s</tspan>
                    <tspan x="506.75145" y="208.526129">’  </tspan>
                </text>
                <text id="Reintegration-Program" font-family="SourceSansPro-Semibold, Source Sans Pro" font-size="11.25" font-weight="500" letter-spacing="-0.112500004" fill="#3F3F3F">
                    <tspan x="416.27895" y="222.026129">R</tspan>
                    <tspan x="422.7927" y="222.026129">ein</tspan>
                    <tspan x="437.74395" y="222.026129">te</tspan>
                    <tspan x="447.05895" y="222.026129">g</tspan>
                    <tspan x="452.90895" y="222.026129" letter-spacing="-0.28125">r</tspan>
                    <tspan x="456.5202" y="222.026129">ation P</tspan>
                    <tspan x="490.8552" y="222.026129">r</tspan>
                    <tspan x="494.82645" y="222.026129">og</tspan>
                    <tspan x="506.8527" y="222.026129" letter-spacing="-0.28125">r</tspan>
                    <tspan x="510.46395" y="222.026129">am</tspan>
                </text>
                <text id="-$18,073,018--" font-family="SourceSansPro-Semibold, Source Sans Pro" font-size="12" font-weight="500" fill="#3F3F3F">
                    <tspan x="0.0117" y="495.284838"> $18,073,018  </tspan>
                </text>
                <text id="VA-Homeless-Providers-Grant-" font-family="SourceSansPro-Semibold, Source Sans Pro" font-size="11.25" font-weight="500" letter-spacing="-0.157499995" fill="#3F3F3F">
                    <tspan x="0.0117" y="508.727579">V</tspan>
                    <tspan x="5.7042" y="508.727579">A Homeless P</tspan>
                    <tspan x="70.5267" y="508.727579" letter-spacing="-0.112500004">r</tspan>
                    <tspan x="74.49795" y="508.727579" letter-spacing="-0.044999999">o</tspan>
                    <tspan x="80.5617" y="508.727579">vide</tspan>
                    <tspan x="101.1267" y="508.727579" letter-spacing="-0.111374997">r</tspan>
                    <tspan x="105.099075" y="508.727579">s G</tspan>
                    <tspan x="119.319075" y="508.727579" letter-spacing="-0.28125">r</tspan>
                    <tspan x="122.930325" y="508.727579">ant </tspan>
                </text>
                <text id="and-Per-Diem-Program-" font-family="SourceSansPro-Semibold, Source Sans Pro" font-size="11.25" font-weight="500" fill="#3F3F3F">
                    <tspan x="0.0117" y="522.227579">and </tspan>
                    <tspan x="20.8467" y="522.227579" letter-spacing="-0.270000011">P</tspan>
                    <tspan x="26.9892" y="522.227579">er Diem P</tspan>
                    <tspan x="73.32795" y="522.227579" letter-spacing="-0.112500004">r</tspan>
                    <tspan x="77.2992" y="522.227579">og</tspan>
                    <tspan x="89.32545" y="522.227579" letter-spacing="-0.28125">r</tspan>
                    <tspan x="92.9367" y="522.227579">am </tspan>
                </text>
                <text id="$939,178----" font-family="SourceSansPro-Semibold, Source Sans Pro" font-size="12" font-weight="500" fill="#3F3F3F">
                    <tspan x="416.279325" y="362.583888">$939,178    </tspan>
                </text>
                <text id="Transitional-Housing-Assis" font-family="SourceSansPro-Semibold, Source Sans Pro" font-size="11.25" font-weight="500" letter-spacing="-0.517499998" fill="#3F3F3F">
                    <tspan x="416.279325" y="376.026629">T</tspan>
                    <tspan x="421.409325" y="376.026629" letter-spacing="-0.28125">r</tspan>
                    <tspan x="425.020575" y="376.026629">ansitional Housing Assis</tspan>
                </text>
                <text id="tance-for-Victims-of-Domestic-" font-family="SourceSansPro-Semibold, Source Sans Pro" font-size="11.25" font-weight="500" letter-spacing="-0.202500008" fill="#3F3F3F">
                    <tspan x="416.279325" y="389.526629">t</tspan>
                    <tspan x="419.969325" y="389.526629">an</tspan>
                    <tspan x="432.153075" y="389.526629" letter-spacing="-0.236249998">c</tspan>
                    <tspan x="436.844325" y="389.526629">e </tspan>
                    <tspan x="444.854325" y="389.526629" letter-spacing="-0.112500004">f</tspan>
                    <tspan x="448.195575" y="389.526629">or </tspan>
                    <tspan x="460.874325" y="389.526629" letter-spacing="-0.0337500013">V</tspan>
                    <tspan x="466.870575" y="389.526629">ictims of Domestic </tspan>
                </text>
                <text id="Violence,-Dating-Violence,-" font-family="SourceSansPro-Semibold, Source Sans Pro" font-size="11.25" font-weight="500" letter-spacing="-0.0337500013" fill="#3F3F3F">
                    <tspan x="416.279325" y="403.026629">V</tspan>
                    <tspan x="422.275575" y="403.026629">iolen</tspan>
                    <tspan x="446.451825" y="403.026629" letter-spacing="-0.237375006">c</tspan>
                    <tspan x="451.14195" y="403.026629">e, Dating </tspan>
                    <tspan x="496.6257" y="403.026629">V</tspan>
                    <tspan x="502.62195" y="403.026629">iolen</tspan>
                    <tspan x="526.7982" y="403.026629" letter-spacing="-0.236249998">c</tspan>
                    <tspan x="531.48945" y="403.026629">e, </tspan>
                </text>
                <text id="Stalking,-or-Sexual-Assault" font-family="SourceSansPro-Semibold, Source Sans Pro" font-size="11.25" font-weight="500" fill="#3F3F3F">
                    <tspan x="416.279325" y="416.526629">S</tspan>
                    <tspan x="422.410575" y="416.526629" letter-spacing="-0.202500008">t</tspan>
                    <tspan x="426.100575" y="416.526629">alking, or S</tspan>
                    <tspan x="480.213075" y="416.526629" letter-spacing="-0.0787499975">e</tspan>
                    <tspan x="485.703075" y="416.526629">xual Assault</tspan>
                </text>
                <path d="M235.200075,229.874925 C303.296325,229.874925 358.500075,285.077925 358.500075,353.174925 C358.500075,421.271925 303.296325,476.474925 235.200075,476.474925 C167.103075,476.474925 111.900075,421.271925 111.900075,353.174925 C111.900075,285.077925 167.103075,229.874925 235.200075,229.874925" id="Fill-45" fill="#FFFFFF"></path>
                <text id="14%" font-family="SourceSansPro-Semibold, Source Sans Pro" font-size="42" font-weight="500" fill="#3F3F3F">
                    <tspan x="204.9924" y="342.425782">14%</tspan>
                </text>
                <line x1="238.5" y1="214.79985" x2="238.875" y2="108.52485" id="Stroke-48" stroke="#808080" stroke-width="0.75"></line>
                <path d="M238.5,211.79985 C240.07425,211.79985 241.35,213.07635 241.35,214.64985 C241.35,216.2241 240.07425,217.49985 238.5,217.49985 C236.92575,217.49985 235.65,216.2241 235.65,214.64985 C235.65,213.07635 236.92575,211.79985 238.5,211.79985" id="Fill-50" fill="#808080"></path>
                <line x1="314.25" y1="241.04985" x2="314.25" y2="176.02485" id="Stroke-52" stroke="#808080" stroke-width="0.75"></line>
                <path d="M314.25,238.04985 C315.82425,238.04985 317.1,239.32635 317.1,240.89985 C317.1,242.4741 315.82425,243.74985 314.25,243.74985 C312.67575,243.74985 311.4,242.4741 311.4,240.89985 C311.4,239.32635 312.67575,238.04985 314.25,238.04985" id="Fill-54" fill="#808080"></path>
                <polyline id="Stroke-56" stroke="#808080" stroke-width="0.75" points="356.924925 285.150075 384.749925 284.700075 384.749925 195.525075 410.249925 195.525075"></polyline>
                <path d="M357.075075,287.999925 C355.500075,287.999925 354.225075,286.799925 354.225075,285.224925 C354.225075,283.649925 355.425075,282.374925 357.000075,282.374925 C358.575075,282.374925 359.850075,283.574925 359.850075,285.149925 C359.925075,286.649925 358.650075,287.999925 357.075075,287.999925" id="Fill-58" fill="#808080"></path>
                <polyline id="Stroke-60" stroke="#808080" stroke-width="0.75" points="373.424925 327.45 398.999925 327.45 398.999925 286.275 410.249925 286.275"></polyline>
                <path d="M373.575075,330.29985 C372.000075,330.29985 370.725075,329.02485 370.725075,327.44985 C370.725075,325.87485 372.000075,324.59985 373.575075,324.59985 C375.150075,324.59985 376.425075,325.87485 376.425075,327.44985 C376.425075,329.02485 375.150075,330.29985 373.575075,330.29985" id="Fill-62" fill="#808080"></path>
                <line x1="374.174925" y1="361.275075" x2="410.249925" y2="361.275075" id="Stroke-64" stroke="#808080" stroke-width="0.75"></line>
                <path d="M374.325075,364.04985 C372.750075,364.04985 371.475075,362.77485 371.475075,361.19985 C371.475075,359.62485 372.750075,358.34985 374.325075,358.34985 C375.900075,358.34985 377.175075,359.62485 377.175075,361.19985 C377.175075,362.77485 375.900075,364.04985 374.325075,364.04985" id="Fill-66" fill="#808080"></path>
                <line x1="132.075075" y1="446.7747" x2="67.500075" y2="493.1997" id="Stroke-68" stroke="#808080" stroke-width="0.75"></line>
                <path d="M130.34985,444.60015 C131.62485,443.70015 133.34985,444.00015 134.24985,445.2744 C135.14985,446.55015 134.84985,448.2744 133.57485,449.17515 C132.29985,450.07515 130.57485,449.7744 129.67485,448.50015 C128.77485,447.22515 129.07485,445.50015 130.34985,444.60015" id="Fill-70" fill="#808080"></path>
                <text id="-$27,353,886-" font-family="SourceSansPro-Semibold, Source Sans Pro" font-size="10.5" font-weight="500" fill="#3F3F3F">
                    <tspan x="210.588525" y="384.12712"> $27,353,886 </tspan>
                </text>
                <mask id="mask-2" fill="white">
                    <use xlink:href="#path-1"></use>
                </mask>
                <g id="Clip-74"></g>
                <polygon id="Fill-73" fill="#DDD0EA" mask="url(#mask-2)" points="187.65 373.875 197.4 373.875 197.4 364.125 187.65 364.125"></polygon>
                <text id="Other-Programs" mask="url(#mask-2)" font-family="SourceSansPro-Semibold, Source Sans Pro" font-size="10.5" font-weight="500" fill="#3F3F3F">
                    <tspan x="203.0808" y="368.366845">Other P</tspan>
                    <tspan x="237.4158" y="368.366845" letter-spacing="-0.105">r</tspan>
                    <tspan x="241.1223" y="368.366845">og</tspan>
                    <tspan x="252.3468" y="368.366845" letter-spacing="-0.304499991">r</tspan>
                    <tspan x="255.6753" y="368.366845">ams</tspan>
                </text>
                <path d="M33.22485,28.575 C50.77485,9.9 72.59985,0.375 98.24985,0.3 L98.24985,89.175 L33.22485,28.575 Z" id="Fill-75" fill="#DDD0EA" mask="url(#mask-2)"></path>
                <path d="M98.625,-7.5e-05 C72.75,-7.5e-05 50.4,9.749925 32.7,28.649925 L98.625,90.149925 L98.625,-7.5e-05 Z M97.875,0.749925 L97.875,88.424925 L33.75,28.574925 C51.075,10.274925 72.675,0.899925 97.875,0.749925 L97.875,0.749925 Z" id="Fill-76" fill="#FFFFFF" mask="url(#mask-2)"></path>
                <path d="M98.625,90.075 L98.625,0 C148.425,0 188.775,40.35 188.775,90.15 C188.775,139.95 148.425,180.3 98.625,180.3 C48.825,180.3 8.475,139.95 8.475,90.15 C8.475,66.225 16.425,46.125 32.7,28.65 L98.625,90.075 Z" id="Fill-77" fill="#2F1868" mask="url(#mask-2)"></path>
                <path d="M98.174925,19.499925 C136.241175,19.499925 167.099925,50.358675 167.099925,88.424925 C167.099925,126.491175 136.241175,157.349925 98.174925,157.349925 C60.108675,157.349925 29.249925,126.491175 29.249925,88.424925 C29.249925,50.358675 60.108675,19.499925 98.174925,19.499925" id="Fill-78" fill="#FFFFFF" mask="url(#mask-2)"></path>
                <text id="Continuum-of-Care" mask="url(#mask-2)" font-family="SourceSansPro-Semibold, Source Sans Pro" font-size="10.5" font-weight="500" fill="#3F3F3F">
                    <tspan x="63.5874" y="107.33242">Continuum </tspan>
                    <tspan x="116.3814" y="107.33242" letter-spacing="-0.0525000002">o</tspan>
                    <tspan x="122.0514" y="107.33242">f Ca</tspan>
                    <tspan x="139.0719" y="107.33242" letter-spacing="-0.105">r</tspan>
                    <tspan x="142.7784" y="107.33242">e</tspan>
                </text>
                <line x1="86.77515" y1="369.749925" x2="47.77515" y2="40.949925" id="Stroke-79" stroke="#26660C" stroke-width="0.5" mask="url(#mask-2)"></line>
                <line x1="97.5" y1="19.499925" x2="330" y2="234.449925" id="Stroke-80" stroke="#26660C" stroke-width="0.5" mask="url(#mask-2)"></line>
                <text id="-$174,008,976-" mask="url(#mask-2)" font-family="SourceSansPro-Semibold, Source Sans Pro" font-size="10.5" font-weight="500" fill="#3F3F3F">
                    <tspan x="70.5099" y="123.272095"> $174,008,976 </tspan>
                </text>
                <text id="86%" mask="url(#mask-2)" font-family="SourceSansPro-Semibold, Source Sans Pro" font-size="42" font-weight="500" fill="#3F3F3F">
                    <tspan x="65.499" y="79.9294569">86%</tspan>
                </text>
                <polygon id="Fill-81" fill="#2F1868" mask="url(#mask-2)" points="48.675 111.975 58.425 111.975 58.425 102.225 48.675 102.225"></polygon>
            </g>
        </g>
    </g>
</svg>