<?xml version="1.0" encoding="UTF-8"?>
<svg width="306px" height="69px" viewBox="0 0 306 69" version="1.1" xmlns="http://www.w3.org/2000/svg" xmlns:xlink="http://www.w3.org/1999/xlink">
    <!-- Generator: Sketch 59.1 (86144) - https://sketch.com -->
    <title>Group 252</title>
    <desc>Created with Sketch.</desc>
    <g id="Desktop" stroke="none" stroke-width="1" fill="none" fill-rule="evenodd">
        <g id="Homelessness-Section-3-2" transform="translate(-844.000000, -1767.000000)">
            <g id="Group-25" transform="translate(844.000000, 1763.000000)">
                <polygon id="Fill-1" fill="#E0E0E0" points="2.7465 37.435625 299.7465 37.435625 299.7465 27.685625 2.7465 27.685625"></polygon>
                <line x1="2.746575" y1="45.460475" x2="2.746575" y2="19.210475" id="Stroke-2" stroke="#D1D1D1" stroke-width="0.75" stroke-linecap="round"></line>
                <line x1="76.996575" y1="45.310325" x2="76.996575" y2="19.060325" id="Stroke-3" stroke="#D1D1D1" stroke-width="0.75" stroke-linecap="round"></line>
                <line x1="151.246575" y1="45.460475" x2="151.246575" y2="19.210475" id="Stroke-4" stroke="#D1D1D1" stroke-width="0.75" stroke-linecap="round"></line>
                <line x1="225.496575" y1="45.460475" x2="225.496575" y2="19.210475" id="Stroke-5" stroke="#D1D1D1" stroke-width="0.75" stroke-linecap="round"></line>
                <line x1="299.746575" y1="45.460475" x2="299.746575" y2="19.210475" id="Stroke-6" stroke="#D1D1D1" stroke-width="0.75" stroke-linecap="round"></line>
                <g id="Group-24" transform="translate(0.000000, 0.421875)">
                    <path d="M267.496575,40.76345 L89.746575,40.76345 C87.646575,40.76345 85.996575,39.11345 85.996575,37.01345 L85.996575,27.26345 C85.996575,25.16345 87.646575,23.51345 89.746575,23.51345 L267.496575,23.51345 C269.596575,23.51345 271.246575,25.16345 271.246575,27.26345 L271.246575,37.01345 C271.246575,39.11345 269.596575,40.76345 267.496575,40.76345" id="Fill-7" fill="#DDD0EA"></path>
                    <path d="M223.846425,42.26345 L143.297175,42.26345 C141.271425,42.26345 139.696425,40.61345 139.696425,38.66345 L139.696425,25.61345 C139.696425,23.58845 141.346425,22.01345 143.297175,22.01345 L223.846425,22.01345 C225.871425,22.01345 227.446425,23.66345 227.446425,25.61345 L227.446425,38.66345 C227.446425,40.68845 225.797175,42.26345 223.846425,42.26345" id="Fill-9" fill="#2F1868"></path>
                    <text id="CLUSTER-MEDIAN:-$1,004-" font-family="SourceSansPro-Semibold, Source Sans Pro" font-size="10.5" font-weight="500" fill="#2F1868">
                        <tspan x="130.593" y="70.0948205">C</tspan>
                        <tspan x="136.641" y="70.0948205" letter-spacing="-0.346500009">L</tspan>
                        <tspan x="141.219" y="70.0948205" letter-spacing="-0.105">U</tspan>
                        <tspan x="147.8865" y="70.0948205" letter-spacing="-0.210000001">S</tspan>
                        <tspan x="153.189" y="70.0948205">TER MEDIAN: $1,004 </tspan>
                    </text>
                    <g id="Group-13" transform="translate(136.500000, 0.000000)" fill="#848484" font-family="SourceSansPro-Semibold, Source Sans Pro" font-size="10.5" font-weight="500">
                        <text id="$1,000">
                            <tspan x="0.704925" y="10.8448205">$1,000</tspan>
                        </text>
                    </g>
                    <g id="Group-15" fill="#848484" font-family="SourceSansPro-Semibold, Source Sans Pro" font-size="10.5" font-weight="500">
                        <text id="$0">
                            <tspan x="0" y="10.8448205">$0</tspan>
                        </text>
                    </g>
                    <g id="Group-17" transform="translate(276.000000, 0.000000)" fill="#848484" font-family="SourceSansPro-Semibold, Source Sans Pro" font-size="10.5" font-weight="500">
                        <text id="$2,000">
                            <tspan x="0.704925" y="10.8448205">$2,000</tspan>
                        </text>
                    </g>
                    <line x1="185.521725" y1="61.01345" x2="185.521725" y2="47.96345" id="Stroke-18" stroke="#636363" stroke-width="1.5" stroke-linecap="round"></line>
                    <path d="M185.521725,48.26345 C184.771725,49.01345 183.195975,49.38845 182.146725,49.46345 C183.570975,48.41345 184.846725,46.98845 185.521725,45.33845 C186.195975,47.06345 187.546725,48.33845 188.896725,49.46345 C187.771725,49.38845 186.346725,49.08845 185.521725,48.26345" id="Fill-20" fill="#636363"></path>
                    <polygon id="Fill-22" fill="#FFFFFF" points="190.021725 30.1133 190.021725 26.8133 188.070975 26.8133 188.070975 28.2383 186.195975 26.3633 180.945975 31.6133 181.846725 31.6133 181.846725 36.8633 184.771725 36.8633 184.771725 32.5133 187.621725 32.5133 187.621725 36.8633 190.471725 36.8633 190.471725 31.6133 191.445975 31.6133"></polygon>
                </g>
            </g>
        </g>
    </g>
</svg>