<?xml version="1.0" encoding="UTF-8"?>
<svg width="306px" height="66px" viewBox="0 0 306 66" version="1.1" xmlns="http://www.w3.org/2000/svg" xmlns:xlink="http://www.w3.org/1999/xlink">
    <!-- Generator: Sketch 59.1 (86144) - https://sketch.com -->
    <title>Group 282</title>
    <desc>Created with Sketch.</desc>
    <defs>
        <polygon id="path-1" points="0.451575 0.32775 25.951575 0.32775 25.951575 9.34482048 0.451575 9.34482048"></polygon>
    </defs>
    <g id="Desktop" stroke="none" stroke-width="1" fill="none" fill-rule="evenodd">
        <g id="Homelessness-Section-3-2" transform="translate(-848.000000, -1955.000000)">
            <g id="Group-28" transform="translate(848.000000, 1950.000000)">
                <polygon id="Fill-1" fill="#E0E0E0" points="2.21325 37.433375 299.21325 37.433375 299.21325 27.683375 2.21325 27.683375"></polygon>
                <line x1="2.2134" y1="45.458225" x2="2.2134" y2="19.208225" id="Stroke-2" stroke="#D1D1D1" stroke-width="0.75" stroke-linecap="round"></line>
                <line x1="76.4634" y1="45.308075" x2="76.4634" y2="19.058075" id="Stroke-3" stroke="#D1D1D1" stroke-width="0.75" stroke-linecap="round"></line>
                <line x1="150.7134" y1="45.458225" x2="150.7134" y2="19.208225" id="Stroke-4" stroke="#D1D1D1" stroke-width="0.75" stroke-linecap="round"></line>
                <line x1="224.9634" y1="45.458225" x2="224.9634" y2="19.208225" id="Stroke-5" stroke="#D1D1D1" stroke-width="0.75" stroke-linecap="round"></line>
                <line x1="299.2134" y1="45.458225" x2="299.2134" y2="19.208225" id="Stroke-6" stroke="#D1D1D1" stroke-width="0.75" stroke-linecap="round"></line>
                <g id="Group-27" transform="translate(0.000000, 0.421875)">
                    <path d="M293.9634,40.7612 L83.9634,40.7612 C81.8634,40.7612 80.2134,39.1112 80.2134,37.0112 L80.2134,27.2612 C80.2134,25.1612 81.8634,23.5112 83.9634,23.5112 L293.9634,23.5112 C296.0634,23.5112 297.7134,25.1612 297.7134,27.2612 L297.7134,37.0112 C297.7134,39.1112 296.0634,40.7612 293.9634,40.7612" id="Fill-7" fill="#DDD0EA"></path>
                    <path d="M155.9634,42.2612 L93.7884,42.2612 C92.1384,42.2612 90.7884,40.9112 90.7884,39.2612 L90.7884,25.0112 C90.7884,23.3612 92.1384,22.0112 93.7884,22.0112 L155.9634,22.0112 C157.6134,22.0112 158.9634,23.3612 158.9634,25.0112 L158.9634,39.2612 C158.9634,40.9112 157.6134,42.2612 155.9634,42.2612" id="Fill-9" fill="#2F1868"></path>
                    <text id="CLUSTER-MEDIAN:-79%" font-family="SourceSansPro-Semibold, Source Sans Pro" font-size="10.5" font-weight="500" fill="#2F1868">
                        <tspan x="68.559825" y="69.3448205">C</tspan>
                        <tspan x="74.607825" y="69.3448205" letter-spacing="-0.346500009">L</tspan>
                        <tspan x="79.185825" y="69.3448205" letter-spacing="-0.105">U</tspan>
                        <tspan x="85.853325" y="69.3448205" letter-spacing="-0.210000001">S</tspan>
                        <tspan x="91.155825" y="69.3448205">TER MEDIAN: 79%</tspan>
                    </text>
                    <g id="Group-13" fill="#848484" font-family="SourceSansPro-Semibold, Source Sans Pro" font-size="10.5" font-weight="500">
                        <text id="0%">
                            <tspan x="0" y="10.8448205">0%</tspan>
                        </text>
                    </g>
                    <g id="Group-15" transform="translate(69.750000, 0.000000)" fill="#848484" font-family="SourceSansPro-Semibold, Source Sans Pro" font-size="10.5" font-weight="500">
                        <text id="50%">
                            <tspan x="0.6006" y="10.8448205">50%</tspan>
                        </text>
                    </g>
                    <g id="Group-17" transform="translate(216.000000, 0.000000)" fill="#848484" font-family="SourceSansPro-Semibold, Source Sans Pro" font-size="10.5" font-weight="500">
                        <text id="150%">
                            <tspan x="0.451575" y="10.8448205">150%</tspan>
                        </text>
                    </g>
                    <g id="Group-19" transform="translate(138.750000, 5.000000)">
                        <mask id="mask-2" fill="white">
                            <use xlink:href="#path-1"></use>
                        </mask>
                        <g id="Clip-18"></g>
                        <text id="100%" mask="url(#mask-2)" font-family="SourceSansPro-Semibold, Source Sans Pro" font-size="10.5" font-weight="500" fill="#848484">
                            <tspan x="0.451575" y="5.84482048">100%</tspan>
                        </text>
                    </g>
                    <g id="Group-21" transform="translate(280.500000, 0.000000)" fill="#848484" font-family="SourceSansPro-Semibold, Source Sans Pro" font-size="10.5" font-weight="500">
                        <text id="200%">
                            <tspan x="0.451575" y="10.8448205">200%</tspan>
                        </text>
                    </g>
                    <line x1="118.8384" y1="60.41135" x2="118.8384" y2="47.36135" id="Stroke-22" stroke="#636363" stroke-width="1.5" stroke-linecap="round"></line>
                    <path d="M118.8384,47.66135 C118.0884,48.41135 116.5134,48.78635 115.4634,48.86135 C116.8884,47.81135 118.1634,46.38635 118.8384,44.73635 C119.5134,46.46135 120.8634,47.73635 122.2134,48.86135 C121.0884,48.71135 119.7384,48.48635 118.8384,47.66135" id="Fill-24" fill="#636363"></path>
                    <text id="%" font-family="SourceSansPro-Semibold, Source Sans Pro" font-size="13.5" font-weight="500" fill="#FFFFFF">
                        <tspan x="107.34195" y="33.3238549">%</tspan>
                    </text>
                </g>
            </g>
        </g>
    </g>
</svg>