<?xml version="1.0" encoding="UTF-8"?>
<svg width="248px" height="224px" viewBox="0 0 248 224" version="1.1" xmlns="http://www.w3.org/2000/svg" xmlns:xlink="http://www.w3.org/1999/xlink">
    <!-- Generator: Sketch 59.1 (86144) - https://sketch.com -->
    <title>Group 462</title>
    <desc>Created with Sketch.</desc>
    <defs>
        <polygon id="path-1" points="0.30015 0.3 54.15015 0.3 54.15015 54.15 0.30015 54.15"></polygon>
        <polygon id="path-3" points="0.731325 0.479387695 55.8345 0.479387695 55.8345 15.4793877 0.731325 15.4793877"></polygon>
        <polyline id="path-5" points="1.05 0.225 0 122.25 194.175 122.25 195.225 0.225"></polyline>
        <polyline id="path-7" points="1.05 0.225 0 122.25 194.175 122.25 195.225 0.225"></polyline>
        <polyline id="path-9" points="1.05 0.225 0 122.25 194.175 122.25 195.225 0.225"></polyline>
        <polygon id="path-11" points="1.05 0.225 0 122.25 194.175 122.25 195.225 0.225"></polygon>
        <polyline id="path-13" points="1.05 0.225 0 122.25 194.175 122.25 195.225 0.225"></polyline>
        <polyline id="path-15" points="1.05 0.225 0 122.25 194.175 122.25 195.225 0.225"></polyline>
    </defs>
    <g id="Desktop" stroke="none" stroke-width="1" fill="none" fill-rule="evenodd">
        <g id="Homelessness-Section-3-2" transform="translate(-257.000000, -2360.000000)">
            <g id="Group-46" transform="translate(251.000000, 2360.000000)">
                <g id="Group-19" transform="translate(6.000000, 0.450000)">
                    <path d="M171.59985,68.7753 C171.59985,80.4003 162.22485,89.7753 150.59985,89.7753 C138.97485,89.7753 129.59985,80.4003 129.59985,68.7753 C129.59985,57.1503 138.97485,47.7753 150.59985,47.7753 C162.22485,47.7753 171.59985,57.2253 171.59985,68.7753" id="Fill-1" fill="#2F1868"></path>
                    <path d="M171.674925,91.35 L157.724925,91.35 L143.474925,91.35 L129.524925,91.35 C123.824925,91.35 119.099925,96.15 119.024925,102.075 C124.724925,105.15 128.549925,111.225 128.549925,118.2 C128.549925,118.2 129.224925,162.6 129.524925,162.6 L129.524925,210.525 C129.524925,216.525 134.249925,221.4 140.024925,221.4 C145.799925,221.4 150.524925,216.525 150.524925,210.525 C150.524925,216.525 155.249925,221.4 161.024925,221.4 C166.799925,221.4 171.524925,216.525 171.524925,210.525 L171.524925,162.6 C177.299925,162.6 182.024925,157.725 182.024925,151.725 L182.024925,102.3 C182.249925,96.3 177.524925,91.35 171.674925,91.35" id="Fill-3" fill="#2F1868"></path>
                    <path d="M31.575075,47.699925 C43.173075,47.699925 52.575075,57.101925 52.575075,68.699925 C52.575075,80.297925 43.173075,89.699925 31.575075,89.699925 C19.977075,89.699925 10.575075,80.297925 10.575075,68.699925 C10.575075,57.101925 19.977075,47.699925 31.575075,47.699925" id="Fill-5" fill="#2F1868"></path>
                    <path d="M52.575075,118.2753 C52.575075,110.0253 55.650075,103.04955 63.000075,100.79955 C62.325075,95.4753 57.900075,91.3503 52.575075,91.3503 L38.625075,91.3503 L24.375075,91.3503 L10.500075,91.3503 C4.725075,91.3503 7.5e-05,96.2253 7.5e-05,102.2253 L7.5e-05,151.6503 C7.5e-05,157.6503 4.725075,162.5253 10.500075,162.5253 L10.500075,210.44955 C10.500075,216.44955 15.225075,221.32455 21.000075,221.32455 C26.775075,221.32455 31.500075,216.44955 31.500075,210.44955 C31.500075,216.44955 36.225075,221.32455 42.000075,221.32455 C47.775075,221.32455 52.500075,216.44955 52.500075,210.44955 L52.500075,190.5003 L52.500075,118.2753 L52.575075,118.2753 Z" id="Fill-7" fill="#2F1868"></path>
                    <path d="M116.549925,55.87515 L98.624925,55.87515 L80.324925,55.87515 L62.399925,55.87515 C54.974925,55.87515 48.899925,62.1744 48.899925,69.90015 L48.899925,133.35015 C48.899925,141.07515 54.974925,147.37515 62.399925,147.37515 L62.399925,208.95015 C62.399925,216.6744 68.474925,222.97515 75.899925,222.97515 C83.324925,222.97515 89.399925,216.6744 89.399925,208.95015 C89.399925,216.6744 95.474925,222.97515 102.899925,222.97515 C110.324925,222.97515 116.399925,216.6744 116.399925,208.95015 L116.399925,147.37515 C123.824925,147.37515 129.899925,141.07515 129.899925,133.35015 L129.899925,69.90015 C130.049925,62.1744 123.974925,55.87515 116.549925,55.87515" id="Fill-9" fill="#2F1868"></path>
                    <g id="Group-13" transform="translate(62.250000, 0.000000)">
                        <mask id="mask-2" fill="white">
                            <use xlink:href="#path-1"></use>
                        </mask>
                        <g id="Clip-12"></g>
                        <path d="M54.15015,27.225 C54.15015,42.075 42.07515,54.15 27.22515,54.15 C12.37515,54.15 0.30015,42.075 0.30015,27.225 C0.30015,12.375 12.37515,0.299652504 27.22515,0.299652504 C42.07515,0.225 54.15015,12.3 54.15015,27.225" id="Fill-11" fill="#2F1868" mask="url(#mask-2)"></path>
                    </g>
                    <text id="73%-are" font-family="SourceSansPro-Regular, Source Sans Pro" font-size="12" font-weight="normal" fill="#3F3F3F">
                        <tspan x="192.731325" y="110.729388">73% a</tspan>
                        <tspan x="223.115325" y="110.729388" letter-spacing="-0.119999997">r</tspan>
                        <tspan x="227.039325" y="110.729388">e</tspan>
                    </text>
                    <g id="Group-16" transform="translate(192.000000, 111.750000)">
                        <mask id="mask-4" fill="white">
                            <use xlink:href="#path-3"></use>
                        </mask>
                        <g id="Clip-15"></g>
                        <text id="individuals" mask="url(#mask-4)" font-family="SourceSansPro-Regular, Source Sans Pro" font-size="12" font-weight="normal" fill="#3F3F3F">
                            <tspan x="0.731325" y="12.4793877">individuals</tspan>
                        </text>
                    </g>
                    <text id="27%-are" font-family="SourceSansPro-Regular, Source Sans Pro" font-size="12" font-weight="normal" fill="#3F3F3F">
                        <tspan x="192.731325" y="60.8521377">27% a</tspan>
                        <tspan x="223.115325" y="60.8521377" letter-spacing="-0.119999997">r</tspan>
                        <tspan x="227.039325" y="60.8521377">e</tspan>
                    </text>
                    <text id="in-families" font-family="SourceSansPro-Regular, Source Sans Pro" font-size="12" font-weight="normal" fill="#3F3F3F">
                        <tspan x="192.731325" y="74.3521377">in </tspan>
                        <tspan x="204.671325" y="74.3521377" letter-spacing="-0.239999995">f</tspan>
                        <tspan x="207.695325" y="74.3521377">amilies</tspan>
                    </text>
                </g>
                <g id="Group-38" transform="translate(0.000000, 111.450000)">
                    <g id="Group-22">
                        <mask id="mask-6" fill="white">
                            <use xlink:href="#path-5"></use>
                        </mask>
                        <g id="Clip-21"></g>
                        <path d="M177.59985,-41.99985 C177.59985,-30.37485 168.22485,-20.99985 156.59985,-20.99985 C144.97485,-20.99985 135.59985,-30.37485 135.59985,-41.99985 C135.59985,-53.62485 144.97485,-62.99985 156.59985,-62.99985 C168.22485,-62.92485 177.59985,-53.54985 177.59985,-41.99985" id="Fill-20" fill="#B4B4D6" mask="url(#mask-6)"></path>
                    </g>
                    <g id="Group-25">
                        <mask id="mask-8" fill="white">
                            <use xlink:href="#path-7"></use>
                        </mask>
                        <g id="Clip-24"></g>
                        <path d="M177.674925,-19.7247 L163.724925,-19.7247 L149.474925,-19.7247 L135.524925,-19.7247 C129.824925,-19.7247 125.099925,-14.92545 125.024925,-8.9997 C130.724925,-5.92545 134.549925,0.1503 134.549925,7.1253 C134.549925,7.1253 135.224925,51.5253 135.524925,51.5253 L135.524925,99.44955 C135.524925,105.44955 140.249925,110.32455 146.024925,110.32455 C151.799925,110.32455 156.524925,105.44955 156.524925,99.44955 C156.524925,105.44955 161.249925,110.32455 167.024925,110.32455 C172.799925,110.32455 177.524925,105.44955 177.524925,99.44955 L177.524925,51.44955 C183.299925,51.44955 188.024925,46.57455 188.024925,40.57455 L188.024925,-8.8497 C188.249925,-14.8497 183.524925,-19.7247 177.674925,-19.7247" id="Fill-23" fill="#7E5BA5" mask="url(#mask-8)"></path>
                    </g>
                    <g id="Group-28">
                        <mask id="mask-10" fill="white">
                            <use xlink:href="#path-9"></use>
                        </mask>
                        <g id="Clip-27"></g>
                        <path d="M37.575075,-63.075225 C49.173075,-63.075225 58.575075,-53.673225 58.575075,-42.075225 C58.575075,-30.476475 49.173075,-21.075225 37.575075,-21.075225 C25.977075,-21.075225 16.575075,-30.476475 16.575075,-42.075225 C16.575075,-53.673225 25.977075,-63.075225 37.575075,-63.075225" id="Fill-26" fill="#B4B4D6" mask="url(#mask-10)"></path>
                    </g>
                    <g id="Group-31">
                        <mask id="mask-12" fill="white">
                            <use xlink:href="#path-11"></use>
                        </mask>
                        <g id="Clip-30"></g>
                        <path d="M58.575075,7.12515 C58.575075,-1.12485 61.650075,-8.09985 69.000075,-10.34985 C68.325075,-15.67485 63.900075,-19.79985 58.575075,-19.79985 L44.625075,-19.79985 L30.375075,-19.79985 L16.500075,-19.79985 C10.725075,-19.79985 6.000075,-14.92485 6.000075,-8.92485 L6.000075,40.50015 C6.000075,46.50015 10.725075,51.37515 16.500075,51.37515 L16.500075,99.2994 C16.500075,105.2994 21.225075,110.1744 27.000075,110.1744 C32.775075,110.1744 37.500075,105.2994 37.500075,99.2994 C37.500075,105.2994 42.225075,110.1744 48.000075,110.1744 C53.775075,110.1744 58.500075,105.2994 58.500075,99.2994 L58.500075,79.35015 L58.500075,7.12515 L58.575075,7.12515 Z" id="Fill-29" fill="#7E5BA5" mask="url(#mask-12)"></path>
                    </g>
                    <g id="Group-34">
                        <mask id="mask-14" fill="white">
                            <use xlink:href="#path-13"></use>
                        </mask>
                        <g id="Clip-33"></g>
                        <path d="M122.549925,-54.9 L104.624925,-54.9 L86.324925,-54.9 L68.399925,-54.9 C60.974925,-54.9 54.899925,-48.6 54.899925,-40.875 L54.899925,22.575 C54.899925,30.3 60.974925,36.6 68.399925,36.6 L68.399925,98.175 C68.399925,105.9 74.474925,112.2 81.899925,112.2 C89.324925,112.2 95.399925,105.89925 95.399925,98.175 C95.399925,105.9 101.474925,112.2 108.899925,112.2 C116.324925,112.2 122.399925,105.89925 122.399925,98.175 L122.399925,36.6 C129.824925,36.6 135.899925,30.3 135.899925,22.575 L135.899925,-40.875 C136.049925,-48.6 129.974925,-54.9 122.549925,-54.9" id="Fill-32" fill="#7E5BA5" mask="url(#mask-14)"></path>
                    </g>
                    <g id="Group-37">
                        <mask id="mask-16" fill="white">
                            <use xlink:href="#path-15"></use>
                        </mask>
                        <g id="Clip-36"></g>
                        <path d="M122.40015,-83.550075 C122.40015,-68.700075 110.32515,-56.625075 95.47515,-56.625075 C80.62515,-56.625075 68.55015,-68.700075 68.55015,-83.550075 C68.55015,-98.400075 80.62515,-110.474679 95.47515,-110.474679 C110.32515,-110.550075 122.40015,-98.474325 122.40015,-83.550075" id="Fill-35" fill="#BF56B8" mask="url(#mask-16)"></path>
                    </g>
                </g>
                <g id="Group-45" transform="translate(6.000000, 111.450000)" stroke="#FFFFFF" stroke-width="1.9815">
                    <line x1="0.15015" y1="0.449925" x2="2.17515" y2="0.449925" id="Stroke-39"></line>
                    <line x1="4.125" y1="0.449925" x2="179.475" y2="0.449925" id="Stroke-41" stroke-dasharray="3.91949987411499,1.959749937057495"></line>
                    <line x1="180.450075" y1="0.449925" x2="182.475075" y2="0.449925" id="Stroke-43"></line>
                </g>
            </g>
        </g>
    </g>
</svg>