<?xml version="1.0" encoding="UTF-8"?>
<svg width="44px" height="44px" viewBox="0 0 44 44" version="1.1" xmlns="http://www.w3.org/2000/svg" xmlns:xlink="http://www.w3.org/1999/xlink">
    <!-- Generator: Sketch 52.4 (67378) - http://www.bohemiancoding.com/sketch -->
    <title>4_Selected</title>
    <desc>Created with Sketch.</desc>
    <g id="4_Selected" stroke="none" stroke-width="1" fill="none" fill-rule="evenodd">
        <circle id="active" fill="#F6F6F6" fill-rule="nonzero" cx="22" cy="22" r="22"></circle>
        <path d="M21.2708333,31.6289062 C20.6388891,30.6888023 19.8246526,29.5013023 18.828125,28.0664062 C17.6128474,26.2851562 16.8107641,25.0852866 16.421875,24.4667969 C15.8628474,23.5761719 15.4861109,22.8277993 15.2916667,22.2216797 C15.0972224,21.6155601 15,20.9166665 15,20.125 C15,18.8385415 15.3159724,17.6510415 15.9479167,16.5625 C16.5798609,15.4739585 17.4305557,14.6080727 18.5,13.9648438 C19.5694443,13.3216148 20.7361109,13 22,13 C23.2638891,13 24.4305557,13.3216148 25.5,13.9648438 C26.5694443,14.6080727 27.4201391,15.4739585 28.0520833,16.5625 C28.6840276,17.6510415 29,18.8385415 29,20.125 C29,20.9166665 28.9027776,21.6155601 28.7083333,22.2216797 C28.5138891,22.8277993 28.1371526,23.5761719 27.578125,24.4667969 C27.1892359,25.0852866 26.3871526,26.2851562 25.171875,28.0664062 L22.7291667,31.6289062 C22.5590276,31.8763023 22.3159724,32 22,32 C21.6840276,32 21.4409724,31.8763023 21.2708333,31.6289062 Z M22,23.09375 C22.8020833,23.09375 23.4887151,22.8030601 24.0598958,22.2216797 C24.6310766,21.6402993 24.9166667,20.9414062 24.9166667,20.125 C24.9166667,19.3085938 24.6310766,18.6097007 24.0598958,18.0283203 C23.4887151,17.4469399 22.8020833,17.15625 22,17.15625 C21.1979167,17.15625 20.5112849,17.4469399 19.9401042,18.0283203 C19.3689234,18.6097007 19.0833333,19.3085938 19.0833333,20.125 C19.0833333,20.9414062 19.3689234,21.6402993 19.9401042,22.2216797 C20.5112849,22.8030601 21.1979167,23.09375 22,23.09375 Z" id="iconMap" stroke="#D04C02" fill="#FFFFFF"></path>
    </g>
</svg>