<?xml version="1.0" encoding="UTF-8"?>
<svg width="303px" height="68px" viewBox="0 0 303 68" version="1.1" xmlns="http://www.w3.org/2000/svg" xmlns:xlink="http://www.w3.org/1999/xlink">
    <!-- Generator: Sketch 59.1 (86144) - https://sketch.com -->
    <title>Group 2110</title>
    <desc>Created with Sketch.</desc>
    <g id="Desktop" stroke="none" stroke-width="1" fill="none" fill-rule="evenodd">
        <g id="Homelessness-Section-3-10" transform="translate(-840.000000, -1594.000000)">
            <g id="Group-21" transform="translate(840.000000, 1590.000000)">
                <polygon id="Fill-1" fill="#E0E0E0" points="2.58825 37.210625 299.58825 37.210625 299.58825 27.460625 2.58825 27.460625"></polygon>
                <g id="Group-3" transform="translate(0.000000, 0.421875)" font-size="10.5">
                    <text id="CLUSTER-MEDIAN:-$10,222" font-family="SourceSansPro-Semibold, Source Sans Pro" font-weight="500" letter-spacing="-0.0149999997" fill="#3F3F3F">
                        <tspan x="23.735625" y="69.3448205">C</tspan>
                        <tspan x="29.768625" y="69.3448205" letter-spacing="-0.361499995">L</tspan>
                        <tspan x="34.331625" y="69.3448205" letter-spacing="-0.119999997">U</tspan>
                        <tspan x="40.984125" y="69.3448205" letter-spacing="-0.225000009">S</tspan>
                        <tspan x="46.271625" y="69.3448205">TER MEDIAN: $10,222</tspan>
                    </text>
                    <text id="$10K" font-family="SourceSansPro-Regular, Source Sans Pro" font-weight="normal" letter-spacing="-0.0299999993" fill="#848484">
                        <tspan x="68.476125" y="10.8493205">$10K</tspan>
                    </text>
                    <text id="$15K" font-family="SourceSansPro-Regular, Source Sans Pro" font-weight="normal" letter-spacing="-0.0299999993" fill="#848484">
                        <tspan x="103.913625" y="10.8493205">$15K</tspan>
                    </text>
                    <text id="$5K" font-family="SourceSansPro-Regular, Source Sans Pro" font-weight="normal" letter-spacing="-0.0299999993" fill="#848484">
                        <tspan x="35.443125" y="10.8493205">$5K</tspan>
                    </text>
                    <text id="$0K" font-family="SourceSansPro-Regular, Source Sans Pro" font-weight="normal" letter-spacing="-0.0299999993" fill="#848484">
                        <tspan x="0.005625" y="10.8493205">$0K</tspan>
                    </text>
                    <text id="$30K" font-family="SourceSansPro-Regular, Source Sans Pro" font-weight="normal" letter-spacing="-0.0299999993" fill="#848484">
                        <tspan x="210.226125" y="10.8493205">$30K</tspan>
                    </text>
                    <text id="$35K" font-family="SourceSansPro-Regular, Source Sans Pro" font-weight="normal" letter-spacing="-0.0299999993" fill="#848484">
                        <tspan x="245.663625" y="10.8493205">$35K</tspan>
                    </text>
                    <text id="$20K" font-family="SourceSansPro-Regular, Source Sans Pro" font-weight="normal" letter-spacing="-0.0299999993" fill="#848484">
                        <tspan x="139.351125" y="10.8493205">$20K</tspan>
                    </text>
                    <text id="$25K" font-family="SourceSansPro-Regular, Source Sans Pro" font-weight="normal" letter-spacing="-0.0299999993" fill="#848484">
                        <tspan x="174.788625" y="10.8493205">$25K</tspan>
                    </text>
                    <text id="$40K" font-family="SourceSansPro-Regular, Source Sans Pro" font-weight="normal" letter-spacing="-0.0299999993" fill="#848484">
                        <tspan x="281.101125" y="10.8493205">$40K</tspan>
                    </text>
                </g>
                <line x1="2.5884" y1="45.464825" x2="2.5884" y2="19.214825" id="Stroke-4" stroke="#D1D1D1" stroke-width="0.75" stroke-linecap="round"></line>
                <line x1="76.8384" y1="45.335225" x2="76.8384" y2="19.085225" id="Stroke-5" stroke="#D1D1D1" stroke-width="0.75" stroke-linecap="round"></line>
                <line x1="39.7134" y1="45.335225" x2="39.7134" y2="19.085225" id="Stroke-6" stroke="#D1D1D1" stroke-width="0.75" stroke-linecap="round"></line>
                <line x1="113.9634" y1="45.335225" x2="113.9634" y2="19.085225" id="Stroke-7" stroke="#D1D1D1" stroke-width="0.75" stroke-linecap="round"></line>
                <line x1="188.2134" y1="45.335225" x2="188.2134" y2="19.085225" id="Stroke-8" stroke="#D1D1D1" stroke-width="0.75" stroke-linecap="round"></line>
                <line x1="262.4634" y1="45.335225" x2="262.4634" y2="19.085225" id="Stroke-9" stroke="#D1D1D1" stroke-width="0.75" stroke-linecap="round"></line>
                <line x1="151.0884" y1="45.464825" x2="151.0884" y2="19.214825" id="Stroke-10" stroke="#D1D1D1" stroke-width="0.75" stroke-linecap="round"></line>
                <line x1="225.3384" y1="45.464825" x2="225.3384" y2="19.214825" id="Stroke-11" stroke="#D1D1D1" stroke-width="0.75" stroke-linecap="round"></line>
                <line x1="299.5884" y1="45.464825" x2="299.5884" y2="19.214825" id="Stroke-12" stroke="#D1D1D1" stroke-width="0.75" stroke-linecap="round"></line>
                <line x1="80.904075" y1="61.460225" x2="80.904075" y2="48.380975" id="Stroke-13" stroke="#636363" stroke-width="1.5" stroke-linecap="round"></line>
                <g id="Group-20" transform="translate(33.750000, 21.921875)">
                    <path d="M47.154075,26.760525 C46.370325,27.544275 44.820825,27.917775 43.745325,27.948525 C45.189075,26.873775 46.448325,25.478025 47.154075,23.788275 C47.829825,25.478025 49.165575,26.812275 50.562825,27.948525 C49.411575,27.856275 48.013575,27.575025 47.154075,26.760525" id="Fill-14" fill="#636363"></path>
                    <path d="M232.8384,19.28835 L4.0884,19.28835 C2.0259,19.28835 0.3384,17.60085 0.3384,15.53835 L0.3384,5.78835 C0.3384,3.72585 2.0259,2.03835 4.0884,2.03835 L232.8384,2.03835 C234.9009,2.03835 236.5884,3.72585 236.5884,5.78835 L236.5884,15.53835 C236.5884,17.60085 234.9009,19.28835 232.8384,19.28835" id="Fill-16" fill="#FFC69F"></path>
                    <path d="M58.4502,20.78835 L30.43395,20.78835 C28.8747,20.78835 27.5997,19.51335 27.5997,17.95485 L27.5997,3.37185 C27.5997,1.81335 28.8747,0.53835 30.43395,0.53835 L58.4502,0.53835 C60.0087,0.53835 61.2837,1.81335 61.2837,3.37185 L61.2837,17.95485 C61.2837,19.51335 60.0087,20.78835 58.4502,20.78835" id="Fill-18" fill="#E8751A"></path>
                </g>
                <text id="$" font-family="SourceSansPro-Bold, Source Sans Pro" font-size="13.5" font-weight="bold" fill="#FFFFFF">
                    <tspan x="76.788975" y="32.9957299">$</tspan>
                </text>
            </g>
        </g>
    </g>
</svg>