<?xml version="1.0" encoding="UTF-8"?>
<svg width="301px" height="79px" viewBox="0 0 301 79" version="1.1" xmlns="http://www.w3.org/2000/svg" xmlns:xlink="http://www.w3.org/1999/xlink">
    <!-- Generator: Sketch 59.1 (86144) - https://sketch.com -->
    <title>Group 2010</title>
    <desc>Created with Sketch.</desc>
    <g id="Desktop" stroke="none" stroke-width="1" fill="none" fill-rule="evenodd">
        <g id="Homelessness-Section-3-10" transform="translate(-842.000000, -2118.000000)">
            <g id="Group-20" transform="translate(841.000000, 2113.000000)">
                <polygon id="Fill-1" fill="#E0E0E0" points="2.85925 46.46675 299.85925 46.46675 299.85925 36.71675 2.85925 36.71675"></polygon>
                <line x1="2.858875" y1="46.9646" x2="2.858875" y2="20.7146" id="Stroke-2" stroke="#D1D1D1" stroke-width="0.75" stroke-linecap="round"></line>
                <line x1="77.108875" y1="54.341525" x2="77.108875" y2="28.091525" id="Stroke-3" stroke="#D1D1D1" stroke-width="0.75" stroke-linecap="round"></line>
                <line x1="151.358875" y1="54.47045" x2="151.358875" y2="28.22045" id="Stroke-4" stroke="#D1D1D1" stroke-width="0.75" stroke-linecap="round"></line>
                <line x1="225.608875" y1="54.47045" x2="225.608875" y2="28.22045" id="Stroke-5" stroke="#D1D1D1" stroke-width="0.75" stroke-linecap="round"></line>
                <line x1="299.858875" y1="54.47045" x2="299.858875" y2="28.22045" id="Stroke-6" stroke="#D1D1D1" stroke-width="0.75" stroke-linecap="round"></line>
                <g id="Group-12" transform="translate(0.000000, 0.426750)">
                    <path d="M273.608875,49.789775 L9.608875,49.789775 C7.546375,49.789775 5.858875,48.102275 5.858875,46.039775 L5.858875,36.289775 C5.858875,34.227275 7.546375,32.539775 9.608875,32.539775 L273.608875,32.539775 C275.671375,32.539775 277.358875,34.227275 277.358875,36.289775 L277.358875,46.039775 C277.358875,48.102275 275.671375,49.789775 273.608875,49.789775" id="Fill-7" fill="#FFC69F"></path>
                    <path d="M11.522725,51.289775 L9.061975,51.289775 C7.412725,51.289775 6.061975,49.939025 6.061975,48.289775 L6.061975,34.039775 C6.061975,32.389775 7.412725,31.039775 9.061975,31.039775 L11.522725,31.039775 C13.172725,31.039775 14.522725,32.389775 14.522725,34.039775 L14.522725,48.289775 C14.522725,49.939025 13.172725,51.289775 11.522725,51.289775" id="Fill-9" fill="#E8751A"></path>
                    <text id="CLUSTER-MEDIAN:-16,128" font-family="SourceSansPro-Semibold, Source Sans Pro" font-size="10.5" font-weight="500" letter-spacing="-0.0149999997" fill="#3F3F3F">
                        <tspan x="2.96875" y="80.5948205">C</tspan>
                        <tspan x="9.00175" y="80.5948205" letter-spacing="-0.361499995">L</tspan>
                        <tspan x="13.56475" y="80.5948205" letter-spacing="-0.119999997">U</tspan>
                        <tspan x="20.21725" y="80.5948205" letter-spacing="-0.225000009">S</tspan>
                        <tspan x="25.50475" y="80.5948205">TER MEDIAN: 16,128</tspan>
                    </text>
                    <text id="0" font-family="SourceSansPro-Regular, Source Sans Pro" font-size="10.5" font-weight="normal" fill="#848484">
                        <tspan x="0.99475" y="10.8433205">0</tspan>
                    </text>
                </g>
                <text id="600K" font-family="SourceSansPro-Regular, Source Sans Pro" font-size="10.5" font-weight="normal" letter-spacing="-0.0299999993" fill="#848484">
                    <tspan x="280.62145" y="18.7723205">600K</tspan>
                </text>
                <text id="300K" font-family="SourceSansPro-Regular, Source Sans Pro" font-size="10.5" font-weight="normal" letter-spacing="-0.0299999993" fill="#848484">
                    <tspan x="144.86695" y="18.7723205">300K</tspan>
                </text>
                <text id="450K" font-family="SourceSansPro-Regular, Source Sans Pro" font-size="10.5" font-weight="normal" letter-spacing="-0.0299999993" fill="#848484">
                    <tspan x="216.11995" y="18.7723205">450K</tspan>
                </text>
                <text id="150K" font-family="SourceSansPro-Regular, Source Sans Pro" font-size="10.5" font-weight="normal" letter-spacing="-0.0299999993" fill="#848484">
                    <tspan x="66.11695" y="18.7723205">150K</tspan>
                </text>
                <text id="-" font-family="SourceSansPro-Regular, Source Sans Pro" font-size="9" font-weight="normal"></text>
                <g id="Group-19" transform="translate(3.250000, 34.676750)">
                    <line x1="5.604525" y1="38.039775" x2="5.604525" y2="21.960525" id="Stroke-13" stroke="#636363" stroke-width="1.5" stroke-linecap="round"></line>
                    <path d="M5.604525,22.26195 C4.820775,23.0457 3.271275,23.4192 2.195775,23.44995 C3.639525,22.3752 4.898775,20.9787 5.604525,19.2897 C6.280275,20.9787 7.616025,22.3137 9.013275,23.44995 C7.862025,23.3577 6.464025,23.07645 5.604525,22.26195" id="Fill-15" fill="#636363"></path>
                    <path d="M5.08005,7.86331836 C3.67455,7.86855 2.5668,6.7473 2.57128634,5.32305 C2.57505,4.01055 3.72105,2.8923 5.06655,2.88627592 C6.42255,2.8803 7.54155,3.9963 7.55655,5.3673 C7.5708,6.70605 6.42705,7.8588 5.08005,7.86331836 M9.1968,3.1413 C8.34105,1.52655 6.90705,0.7548 5.4273,0.658799799 C2.51655,0.65805 0.40005,2.75655 0.35505,5.34405 C0.3288,6.8388 0.92355,8.07105 1.8933,9.1608 C2.9358,10.3338 4.03605,11.46255 4.67805,12.9348 C4.7463,13.09155 4.95105,13.29705 5.08155,13.2888 C5.21955,13.2813 5.3688,13.06155 5.4693,12.90555 C5.92905,12.19155 6.32505,11.43105 6.83355,10.7538 C7.4913,9.8793 8.3088,9.1203 8.92155,8.2188 C10.0143,6.61005 10.1088,4.86105 9.1968,3.1413" id="Fill-17" fill="#FFFFFF"></path>
                </g>
            </g>
        </g>
    </g>
</svg>