<?xml version="1.0" encoding="UTF-8"?>
<svg width="103px" height="63px" viewBox="0 0 103 63" version="1.1" xmlns="http://www.w3.org/2000/svg" xmlns:xlink="http://www.w3.org/1999/xlink">
    <!-- Generator: Sketch 59.1 (86144) - https://sketch.com -->
    <title>Bed</title>
    <desc>Created with Sketch.</desc>
    <g id="Export-Outlined-SVG" stroke="none" stroke-width="1" fill="none" fill-rule="evenodd">
        <g id="6" transform="translate(-840.000000, -1091.000000)">
            <g id="Bed" transform="translate(840.000000, 1090.000000)">
                <g id="Group-3"></g>
                <path d="M22.9200736,28.0734589 C27.9205968,28.0950333 31.8698354,24.2527698 31.8601262,19.3735509 C31.8511293,14.6034065 27.9011424,10.6640219 23.1004007,10.6369803 C18.1709608,10.6094846 14.2157362,14.4973203 14.2037327,19.383263 C14.1910441,24.2221392 18.0317871,28.0517023 22.9200736,28.0734589 L22.9200736,28.0734589 Z M33.5384224,31.6018551 L31.3213716,31.6018551 C27.1057577,31.6026022 22.8886473,31.5674892 18.6737816,31.6190381 C16.5472685,31.6451861 15.1742384,33.0698792 15.112134,35.1116653 C15.0485332,37.2064946 16.4627168,38.894909 18.5817474,38.9180687 C24.843064,38.9845593 31.105877,38.9785826 37.3671935,38.921057 C39.363512,38.9023799 40.9146244,37.3379817 40.9340788,35.3582037 C40.9879525,29.7879302 40.9887007,24.2161626 40.9340788,18.645142 C40.9138762,16.6190446 39.1180875,15.0187864 37.1614261,15.0665999 C35.278841,15.111425 33.6192329,16.6623756 33.5780794,18.6264648 C33.5032549,22.2154661 33.5451566,25.8067087 33.5384224,29.3964571 C33.5376742,30.0583754 33.5384224,30.7195465 33.5384224,31.6018551 L33.5384224,31.6018551 Z M44.034059,38.5579732 C44.7501298,38.6252109 45.1728884,38.6991725 45.5963952,38.6999195 C61.9156249,38.7044021 78.2356028,38.6857249 94.5548324,38.7350649 C95.9869739,38.7402622 96.4531307,38.1112157 96.484557,36.906166 C96.5511509,34.3713031 96.7629043,31.8192571 96.5676122,29.3015772 C95.9316038,21.0888604 89.7443635,15.1749273 81.5054347,15.0867712 C69.5305171,14.9590195 57.5533548,15.0665999 45.5776891,15.024763 C44.314651,15.0202805 44.0018845,15.4857151 44.0163441,16.656399 C44.0692266,20.6824456 44.0348073,24.7107335 44.034059,28.7375272 L44.034059,38.5579732 Z M91.1712673,53.6371578 C91.1712673,56.3169554 91.1847357,58.901126 91.1660295,61.4852966 C91.1525611,63.2035945 92.0527002,63.9730931 93.6936021,63.9842994 C95.8657582,64.0014823 98.0394107,64.007459 100.211567,63.9872877 C102.267745,63.9693576 102.985312,63.2499138 102.991298,61.1789913 C103.005515,55.9732958 102.998032,50.7668532 102.998032,45.5604106 C102.997284,41.9273312 102.816957,41.7472835 99.2545611,41.7472835 C71.0105463,41.7480306 42.7672798,41.7480306 14.523265,41.7480306 L11.9051547,41.7480306 L11.9051547,39.2027084 C11.9051547,28.7293093 11.8984205,18.254416 11.9103925,7.78101684 C11.9126372,5.78629712 11.5347733,3.94995964 9.97917137,2.55365584 C8.06441169,0.833863783 5.81144514,0.61571466 3.54875139,1.53612466 C1.11919895,2.52451948 0.0215231199,4.57527065 0.0132924217,7.15570582 C-0.0106514274,14.5309392 0.00506172358,21.9061725 0.00506172358,29.2814059 C0.0043134783,39.8175603 0.00132049716,50.3537146 0.00805470472,60.889869 C0.00955119529,63.2895094 0.702426329,63.9745872 3.09755949,63.9880348 C4.8970894,63.9992411 6.69736755,63.9947586 8.49764571,63.989529 C11.2848594,63.9820581 11.8991688,63.3799068 11.9044065,60.6418364 C11.9096442,58.3124222 11.9051547,55.9830079 11.9051547,53.6371578 L91.1712673,53.6371578 Z" id="Fill-1" fill="#4D4D8C"></path>
                <g id="Group-6"></g>
                <path d="M91.1709863,53.6371034 L11.9048469,53.6371034 C11.9048469,55.9836982 11.9093363,58.312363 11.9040986,60.6417748 C11.8988609,63.3798423 11.2845513,63.9827401 8.49733669,63.9894639 C6.69705792,63.9946935 4.89677916,63.999176 3.09724863,63.9879697 C0.702114665,63.9745222 0.00923929613,63.289445 0.00774280506,60.8898072 C0,50.3536637 0.00400157736,39.8175202 0.0047498229,29.2813767 C0.0047498229,21.9061509 -0.0102150879,14.5309252 0.0129805238,7.15569947 C0.0219594703,4.57526696 1.11888743,2.52451791 3.54844069,1.5361241 C5.8111352,0.615715057 8.06485077,0.833863954 9.97886286,2.55365423 C11.5344653,3.94995659 11.9123293,5.78629218 11.9100846,7.78100983 C11.8981127,18.2551452 11.9048469,28.7292807 11.9048469,39.2034161 L11.9048469,41.7479885 L14.522958,41.7479885 C42.7677306,41.7479885 71.0110067,41.7479885 99.2542828,41.7472414 C102.81668,41.7472414 102.997007,41.927289 102.997755,45.5603646 C102.998504,50.7668018 103.005238,55.973239 102.991021,61.1789291 C102.985035,63.2498495 102.267468,63.9692926 100.211289,63.9872227 C98.0391321,64.007394 95.8654788,64.0014173 93.693322,63.9849814 C92.0524195,63.973028 91.1530284,63.2042773 91.1657486,61.4852341 C91.1852029,58.9010662 91.1709863,56.3168982 91.1709863,53.6371034" id="Fill-4" fill="#4D4D8C"></path>
                <path d="M44.017136,38.820767 L44.017136,28.8808208 C44.0178895,24.8060931 44.0525498,20.7290971 44.0005594,16.6543694 C43.9847362,15.4695302 44.2996926,14.9984678 45.5715737,15.0030045 C57.6310859,15.0453472 69.6921052,14.936466 81.750864,15.0657624 C90.0474769,15.1549845 96.2780366,21.1404261 96.918498,29.451691 C97.1151574,31.9998135 96.9026748,34.5834736 96.8356148,37.1489869 C96.8039684,38.3678515 96.3345479,39.0052601 94.8923794,39 C78.4581387,38.9500634 62.023898,38.9689664 45.5904108,38.9636736 C45.1639388,38.9629175 44.7382203,38.8888177 44.017136,38.820767" id="Fill-7" fill="#4D4D8C"></path>
                <path d="M33.5247549,31.6049207 C33.5247549,30.718949 33.5240027,30.0557831 33.5247549,29.3911168 C33.5315243,25.7857149 33.4886512,22.1803129 33.5646194,18.5764113 C33.605236,16.6034177 35.2735261,15.0467783 37.1667119,15.0010168 C39.1336094,14.953755 40.9380404,16.5599068 40.9591008,18.5944158 C41.0140085,24.1885653 41.0132563,29.783465 40.9591008,35.3768643 C40.9387925,37.3656119 39.3795656,38.9357547 37.3728036,38.9545094 C31.0794839,39.0122738 24.7839077,39.0190255 18.4898358,38.9515086 C16.3597196,38.929003 14.9381379,37.2328286 15.0020715,35.1293024 C15.0645007,33.0797897 16.4447137,31.6491818 18.5823514,31.622175 C22.8192667,31.570412 27.0576863,31.6056709 31.2953537,31.6049207 L33.5247549,31.6049207 Z" id="Fill-9" fill="#4D4D8C"></path>
                <path d="M22.8859673,28 C17.9025512,27.9775402 13.9870644,24.0242113 14,19.0289497 C14.012237,13.9851005 18.0444332,9.97161568 23.0698037,10 C27.9639715,10.0279155 31.990828,14.0946153 32,19.0189237 C32.0098982,24.0558318 27.9838045,28.0222716 22.8859673,28" id="Fill-11" fill="#4D4D8C"></path>
            </g>
        </g>
    </g>
</svg>