<?xml version="1.0" encoding="UTF-8"?>
<svg width="189px" height="98px" viewBox="0 0 189 98" version="1.1" xmlns="http://www.w3.org/2000/svg" xmlns:xlink="http://www.w3.org/1999/xlink">
    <!-- Generator: Sketch 59.1 (86144) - https://sketch.com -->
    <title>Population Density</title>
    <desc>Created with Sketch.</desc>
    <g id="Export-Outlined-SVG" stroke="none" stroke-width="1" fill="none" fill-rule="evenodd">
        <g id="6" transform="translate(-547.000000, -818.000000)">
            <g id="Population-Density" transform="translate(547.000000, 818.000000)">
                <g id="Group-32">
                    <polygon id="Fill-1" fill="#4D4D8C" points="0 97.5 187.5 97.5 187.5 72.00075 0 72.00075"></polygon>
                    <g id="Group-31" transform="translate(1.500000, 0.108750)">
                        <path d="M79.323225,87.8284315 L81.879225,87.8284315 L81.879225,80.3044315 L79.773225,80.3044315 L79.773225,79.0084315 C80.3492279,78.900431 80.8442229,78.7714323 81.258225,78.6214315 C81.6722271,78.4714308 82.0592232,78.2884326 82.419225,78.0724315 L83.967225,78.0724315 L83.967225,87.8284315 L86.217225,87.8284315 L86.217225,89.5204315 L79.323225,89.5204315 L79.323225,87.8284315 Z M91.624725,83.6524315 C91.9487266,83.6524315 92.2937232,83.5504326 92.659725,83.3464315 C93.0257268,83.1424305 93.3647234,82.8004339 93.676725,82.3204315 C93.5687245,81.3124265 93.3197269,80.5804338 92.929725,80.1244315 C92.539723,79.6684293 92.0687278,79.4404315 91.516725,79.4404315 C91.0487227,79.4404315 90.6467267,79.6264297 90.310725,79.9984315 C89.9747233,80.3704334 89.806725,80.9044281 89.806725,81.6004315 C89.806725,82.284435 89.9657234,82.7974298 90.283725,83.1394315 C90.6017266,83.4814333 91.0487221,83.6524315 91.624725,83.6524315 Z M89.194725,87.1804315 C89.4107261,87.4324328 89.6837233,87.6394307 90.013725,87.8014315 C90.3437266,87.9634324 90.6827233,88.0444315 91.030725,88.0444315 C91.3907268,88.0444315 91.7297234,87.9724323 92.047725,87.8284315 C92.3657266,87.6844308 92.6447238,87.4474332 92.884725,87.1174315 C93.1247262,86.7874299 93.3197242,86.3524342 93.469725,85.8124315 C93.6197257,85.2724288 93.7067249,84.6064355 93.730725,83.8144315 C93.3947233,84.2344336 92.9987273,84.5614304 92.542725,84.7954315 C92.0867227,85.0294327 91.6487271,85.1464315 91.228725,85.1464315 C90.7367225,85.1464315 90.286727,85.0744323 89.878725,84.9304315 C89.470723,84.7864308 89.1197265,84.567433 88.825725,84.2734315 C88.5317235,83.9794301 88.3037258,83.6104338 88.141725,83.1664315 C87.9797242,82.7224293 87.898725,82.2004345 87.898725,81.6004315 C87.898725,81.0244287 87.994724,80.5054339 88.186725,80.0434315 C88.378726,79.5814292 88.6367234,79.1884332 88.960725,78.8644315 C89.2847266,78.5404299 89.6657228,78.2914324 90.103725,78.1174315 C90.5417272,77.9434307 91.0067225,77.8564315 91.498725,77.8564315 C92.0507278,77.8564315 92.5787225,77.9674304 93.082725,78.1894315 C93.5867275,78.4114327 94.0277231,78.7504293 94.405725,79.2064315 C94.7837269,79.6624338 95.0837239,80.241428 95.305725,80.9434315 C95.5277261,81.6454351 95.638725,82.4764267 95.638725,83.4364315 C95.638725,84.5524371 95.5157262,85.5064276 95.269725,86.2984315 C95.0237238,87.0904355 94.6937271,87.741429 94.279725,88.2514315 C93.8657229,88.7614341 93.3857277,89.1364303 92.839725,89.3764315 C92.2937223,89.6164327 91.7267279,89.7364315 91.138725,89.7364315 C90.4547216,89.7364315 89.8607275,89.6104328 89.356725,89.3584315 C88.8527225,89.1064303 88.4267267,88.8004333 88.078725,88.4404315 L89.194725,87.1804315 Z M98.850225,84.9664315 L101.856225,84.9664315 L101.856225,82.3744315 C101.856225,82.1728305 101.859465,81.9496316 101.865945,81.704832 L101.883225,81.1864315 C101.901225,80.7304293 101.922225,80.3344332 101.946225,79.9984315 L101.874225,79.9984315 C101.730224,80.298433 101.580226,80.5924301 101.424225,80.8804315 L100.938225,81.7804315 L100.938225,81.7804315 L98.850225,84.9664315 Z M105.240225,86.5684315 L103.800225,86.5684315 L103.800225,89.5204315 L101.856225,89.5204315 L101.856225,86.5684315 L96.798225,86.5684315 L96.798225,85.1644315 L101.334225,78.0724315 L103.800225,78.0724315 L103.800225,84.9664315 L105.240225,84.9664315 L105.240225,86.5684315 Z" id="194" fill="#FFFFFF" fill-rule="nonzero"></path>
                        <path d="M75.60165,12.59325 C75.60165,10.56975 74.4579,8.9265 72.42915,8.9265 L65.08515,8.9265 C63.22665,8.9265 62.10915,10.30875 61.93365,12.11025 C61.8954,12.2625 61.86765,12.4245 61.86765,12.59325 L61.37565,24.57225 C61.37565,25.49175 62.02365,26.23425 62.82015,26.23425 C63.6279,26.23425 64.2669,25.49175 64.2669,24.57225 L64.2669,13.44225 L64.9449,21.2415 C64.9449,21.24225 64.9449,21.243 64.9449,21.24375 L64.9449,40.73175 C64.9449,41.691 65.7534,42.4665 66.7389,42.39075 C67.62015,42.32325 68.2629,41.514 68.2629,40.62975 L68.2629,24.9585 C68.41965,24.951 68.5704,24.94275 68.73465,24.94275 C68.89665,24.94275 69.0564,24.951 69.20415,24.9585 L69.20415,40.67475 C69.20415,41.3535 69.5739,42.01425 70.2039,42.2655 C71.3874,42.73725 72.5259,41.86125 72.5259,40.73175 L72.5259,21.24375 L72.5259,21.2415 L73.1559,13.86525 L73.1559,24.57225 C73.1559,25.49175 73.8204,26.23425 74.6259,26.23425 C75.43965,26.23425 76.1004,25.49175 76.1004,24.57225 L75.60165,12.59325 Z M65.76765,5.91375 L65.99265,5.76975 C66.5409,7.02075 67.56915,8.08875 68.74515,8.08875 C69.91515,8.08875 70.9314,7.029 71.4894,5.796 L71.6994,5.91375 C71.87265,5.93025 72.03315,5.7855 72.0474,5.57475 L72.16215,4.2765 C72.1764,4.092 72.0699,3.93675 71.92965,3.8985 C71.9184,2.14575 70.4949,0.73875 68.74515,0.73875 C66.99615,0.73875 65.5779,2.14575 65.5614,3.89025 C65.40315,3.92325 65.2944,4.08075 65.31465,4.2765 L65.42715,5.57475 C65.4444,5.7855 65.6004,5.93025 65.76765,5.91375 L65.76765,5.91375 Z" id="Fill-3" fill="#D3D3D3"></path>
                        <path d="M56.6799,23.178975 L52.54365,11.583975 L52.48065,11.387475 C52.12215,9.913725 51.06315,8.853225 49.4409,8.853225 L44.0454,8.853225 C42.3639,8.853225 41.28465,9.994725 40.96215,11.541225 L37.33515,23.169975 C37.1634,24.078975 37.66065,24.927975 38.4564,25.076475 C39.25215,25.223475 40.01415,24.600975 40.18515,23.706225 L43.00815,13.215225 L40.13115,32.269725 C40.1289,32.283975 40.1394,32.296725 40.1544,32.296725 L42.8994,32.296725 C42.9129,32.296725 42.92415,32.307975 42.92415,32.320725 L42.92415,40.616475 C42.92415,41.499225 43.55715,42.313725 44.4369,42.389475 C45.42015,42.474975 46.24215,41.693475 46.24215,40.725975 L46.24215,32.296725 L47.1909,32.296725 L47.1909,40.620225 C47.1909,41.502975 47.82615,42.315975 48.7059,42.389475 C49.69215,42.473475 50.51415,41.691975 50.51415,40.725975 L50.51415,32.320725 C50.51415,32.307975 50.5254,32.296725 50.5389,32.296725 L53.74215,32.296725 C53.7564,32.296725 53.76765,32.283975 53.7654,32.268975 L50.50365,13.218225 L53.81265,23.835225 C54.0114,24.723975 54.82515,25.303725 55.61715,25.121475 C56.4054,24.942225 56.8824,24.069975 56.6799,23.178975 L56.6799,23.178975 Z M50.09565,8.262225 C50.1099,8.262225 50.1204,8.250975 50.11965,8.235975 L49.87515,5.761725 L50.0154,5.496225 L50.1219,4.200975 C50.13315,4.015725 50.0319,3.861225 49.8924,3.817725 C49.88115,2.067975 48.45765,0.641475 46.70265,0.641475 C44.94765,0.641475 43.52415,2.062725 43.50765,3.814725 C43.35465,3.844725 43.24065,4.002225 43.25715,4.200975 L43.3674,5.496225 L43.50165,5.761725 L43.2594,8.235975 C43.2579,8.250975 43.26915,8.262225 43.2834,8.262225 L50.09565,8.262225 Z" id="Fill-4" fill="#D3D3D3"></path>
                        <path d="M117.915525,12.59325 C117.915525,10.56975 116.771775,8.9265 114.743025,8.9265 L107.398275,8.9265 C105.540525,8.9265 104.422275,10.30875 104.247525,12.11025 C104.209275,12.2625 104.181525,12.4245 104.181525,12.59325 L103.689525,24.57225 C103.689525,25.49175 104.337525,26.23425 105.134025,26.23425 C105.941775,26.23425 106.580775,25.49175 106.580775,24.57225 L106.580775,13.44225 L107.258775,21.2415 L107.258775,21.24375 L107.258775,40.73175 C107.258775,41.691 108.067275,42.4665 109.052775,42.39075 C109.934025,42.32325 110.576775,41.514 110.576775,40.62975 L110.576775,24.9585 C110.733525,24.951 110.884275,24.94275 111.048525,24.94275 C111.210525,24.94275 111.370275,24.951 111.518025,24.9585 L111.518025,40.67475 C111.518025,41.3535 111.887775,42.01425 112.517775,42.2655 C113.701275,42.73725 114.839775,41.86125 114.839775,40.73175 L114.839775,21.24375 L114.839775,21.2415 L115.469775,13.86525 L115.469775,24.57225 C115.469775,25.49175 116.134275,26.23425 116.939775,26.23425 C117.753525,26.23425 118.414275,25.49175 118.414275,24.57225 L117.915525,12.59325 Z M108.081525,5.91375 L108.306525,5.76975 C108.854775,7.02075 109.883025,8.08875 111.059025,8.08875 C112.229025,8.08875 113.245275,7.029 113.803275,5.796 L114.013275,5.91375 C114.186525,5.93025 114.346275,5.7855 114.361275,5.57475 L114.475275,4.2765 C114.490275,4.092 114.383775,3.93675 114.243525,3.8985 C114.232275,2.14575 112.808775,0.73875 111.059025,0.73875 C109.310025,0.73875 107.891775,2.14575 107.875275,3.89025 C107.717025,3.92325 107.608275,4.08075 107.628525,4.2765 L107.741025,5.57475 C107.757525,5.7855 107.914275,5.93025 108.081525,5.91375 L108.081525,5.91375 Z" id="Fill-5" fill="#D3D3D3"></path>
                        <path d="M100.4934,23.178975 L96.35715,11.583975 L96.2949,11.387475 C95.93565,9.913725 94.8774,8.853225 93.2544,8.853225 L87.8589,8.853225 C86.17815,8.853225 85.0989,9.994725 84.7764,11.541225 L81.14865,23.169975 C80.97765,24.078975 81.47415,24.927975 82.2699,25.076475 C83.06565,25.223475 83.82765,24.600975 83.9994,23.706225 L86.8224,13.215225 L83.94465,32.269725 C83.9424,32.283975 83.95365,32.296725 83.9679,32.296725 L86.71365,32.296725 C86.72715,32.296725 86.73765,32.307975 86.73765,32.320725 L86.73765,40.616475 C86.73765,41.499225 87.3714,42.313725 88.2504,42.389475 C89.23365,42.474975 90.05565,41.693475 90.05565,40.725975 L90.05565,32.296725 L91.0044,32.296725 L91.0044,40.620225 C91.0044,41.502975 91.6404,42.315975 92.52015,42.389475 C93.50565,42.473475 94.3284,41.691975 94.3284,40.725975 L94.3284,32.320725 C94.3284,32.307975 94.3389,32.296725 94.3524,32.296725 L97.55565,32.296725 C97.57065,32.296725 97.5819,32.283975 97.5789,32.268975 L94.31715,13.218225 L97.62615,23.835225 C97.8249,24.723975 98.6394,25.303725 99.43065,25.121475 C100.2189,24.942225 100.6959,24.069975 100.4934,23.178975 L100.4934,23.178975 Z M93.90915,8.262225 C93.9234,8.262225 93.93465,8.250975 93.93315,8.235975 L93.6894,5.761725 L93.8289,5.496225 L93.93615,4.200975 C93.94665,4.015725 93.8454,3.861225 93.7059,3.817725 C93.69465,2.067975 92.27115,0.641475 90.51615,0.641475 C88.76115,0.641475 87.33765,2.062725 87.32115,3.814725 C87.16815,3.844725 87.05415,4.002225 87.07065,4.200975 L87.1809,5.496225 L87.3159,5.761725 L87.0729,8.235975 C87.07215,8.250975 87.0834,8.262225 87.0969,8.262225 L93.90915,8.262225 Z" id="Fill-6" fill="#D3D3D3"></path>
                        <path d="M142.946775,23.178975 L138.810525,11.583975 L138.748275,11.387475 C138.389025,9.913725 137.330775,8.853225 135.708525,8.853225 L130.312275,8.853225 C128.630775,8.853225 127.552275,9.994725 127.229025,11.541225 L123.602025,23.169975 C123.431025,24.078975 123.927525,24.927975 124.723275,25.076475 C125.519025,25.223475 126.281025,24.600975 126.452025,23.706225 L129.275025,13.215225 L126.398025,32.269725 C126.395775,32.283975 126.407025,32.296725 126.421275,32.296725 L129.167025,32.296725 C129.180525,32.296725 129.191025,32.307975 129.191025,32.320725 L129.191025,40.616475 C129.191025,41.499225 129.824775,42.313725 130.703775,42.389475 C131.687025,42.474975 132.509025,41.693475 132.509025,40.725975 L132.509025,32.296725 L133.457775,32.296725 L133.457775,40.620225 C133.457775,41.502975 134.093025,42.315975 134.972775,42.389475 C135.959025,42.473475 136.781025,41.691975 136.781025,40.725975 L136.781025,32.320725 C136.781025,32.307975 136.792275,32.296725 136.805775,32.296725 L140.009025,32.296725 C140.024025,32.296725 140.034525,32.283975 140.032275,32.268975 L136.770525,13.218225 L140.079525,23.835225 C140.278275,24.723975 141.092025,25.303725 141.884025,25.121475 C142.673025,24.942225 143.150025,24.069975 142.946775,23.178975 L142.946775,23.178975 Z M136.363275,8.262225 C136.376775,8.262225 136.388025,8.250975 136.386525,8.235975 L136.142775,5.761725 L136.282275,5.496225 L136.389525,4.200975 C136.400025,4.015725 136.299525,3.861225 136.159275,3.817725 C136.148025,2.067975 134.724525,0.641475 132.969525,0.641475 C131.214525,0.641475 129.791025,2.062725 129.774525,3.814725 C129.621525,3.844725 129.507525,4.002225 129.524775,4.200975 L129.634275,5.496225 L129.769275,5.761725 L129.526275,8.235975 C129.524775,8.250975 129.536025,8.262225 129.551025,8.262225 L136.363275,8.262225 Z" id="Fill-7" fill="#D3D3D3"></path>
                        <path d="M64.35165,19.34325 C64.35165,17.31975 63.2079,15.6765 61.17915,15.6765 L53.83515,15.6765 C51.97665,15.6765 50.85915,17.05875 50.68365,18.86025 C50.6454,19.0125 50.61765,19.1745 50.61765,19.34325 L50.12565,31.32225 C50.12565,32.24175 50.77365,32.98425 51.57015,32.98425 C52.3779,32.98425 53.0169,32.24175 53.0169,31.32225 L53.0169,20.19225 L53.6949,27.9915 C53.6949,27.99225 53.6949,27.993 53.6949,27.99375 L53.6949,47.48175 C53.6949,48.441 54.5034,49.2165 55.4889,49.14075 C56.37015,49.07325 57.0129,48.264 57.0129,47.37975 L57.0129,31.7085 C57.16965,31.701 57.3204,31.69275 57.48465,31.69275 C57.64665,31.69275 57.8064,31.701 57.95415,31.7085 L57.95415,47.42475 C57.95415,48.1035 58.3239,48.76425 58.9539,49.0155 C60.1374,49.48725 61.2759,48.61125 61.2759,47.48175 L61.2759,27.99375 L61.2759,27.9915 L61.9059,20.61525 L61.9059,31.32225 C61.9059,32.24175 62.5704,32.98425 63.3759,32.98425 C64.18965,32.98425 64.8504,32.24175 64.8504,31.32225 L64.35165,19.34325 Z M54.51765,12.66375 L54.74265,12.51975 C55.2909,13.77075 56.31915,14.83875 57.49515,14.83875 C58.66515,14.83875 59.6814,13.779 60.2394,12.546 L60.4494,12.66375 C60.62265,12.68025 60.78315,12.5355 60.7974,12.32475 L60.91215,11.0265 C60.9264,10.842 60.8199,10.68675 60.67965,10.6485 C60.6684,8.89575 59.2449,7.48875 57.49515,7.48875 C55.74615,7.48875 54.3279,8.89575 54.3114,10.64025 C54.15315,10.67325 54.0444,10.83075 54.06465,11.0265 L54.17715,12.32475 C54.1944,12.5355 54.3504,12.68025 54.51765,12.66375 L54.51765,12.66375 Z" id="Fill-8" fill="#AAAAAA"></path>
                        <path d="M45.4299,29.928975 L41.29365,18.333975 L41.23065,18.137475 C40.87215,16.663725 39.81315,15.603225 38.1909,15.603225 L32.7954,15.603225 C31.1139,15.603225 30.03465,16.744725 29.71215,18.291225 L26.08515,29.919975 C25.9134,30.828975 26.41065,31.677975 27.2064,31.826475 C28.00215,31.973475 28.76415,31.350975 28.93515,30.456225 L31.75815,19.965225 L28.88115,39.019725 C28.8789,39.033975 28.8894,39.046725 28.9044,39.046725 L31.6494,39.046725 C31.6629,39.046725 31.67415,39.057975 31.67415,39.070725 L31.67415,47.366475 C31.67415,48.249225 32.30715,49.063725 33.1869,49.139475 C34.17015,49.224975 34.99215,48.443475 34.99215,47.475975 L34.99215,39.046725 L35.9409,39.046725 L35.9409,47.370225 C35.9409,48.252975 36.57615,49.065975 37.4559,49.139475 C38.44215,49.223475 39.26415,48.441975 39.26415,47.475975 L39.26415,39.070725 C39.26415,39.057975 39.2754,39.046725 39.2889,39.046725 L42.49215,39.046725 C42.5064,39.046725 42.51765,39.033975 42.5154,39.018975 L39.25365,19.968225 L42.56265,30.585225 C42.7614,31.473975 43.57515,32.053725 44.36715,31.871475 C45.1554,31.692225 45.6324,30.819975 45.4299,29.928975 L45.4299,29.928975 Z M38.84565,15.012225 C38.8599,15.012225 38.8704,15.000975 38.86965,14.985975 L38.62515,12.511725 L38.7654,12.246225 L38.8719,10.950975 C38.88315,10.765725 38.7819,10.611225 38.6424,10.567725 C38.63115,8.817975 37.20765,7.391475 35.45265,7.391475 C33.69765,7.391475 32.27415,8.812725 32.25765,10.564725 C32.10465,10.594725 31.99065,10.752225 32.00715,10.950975 L32.1174,12.246225 L32.25165,12.511725 L32.0094,14.985975 C32.0079,15.000975 32.01915,15.012225 32.0334,15.012225 L38.84565,15.012225 Z" id="Fill-9" fill="#AAAAAA"></path>
                        <path d="M106.665525,19.34325 C106.665525,17.31975 105.521775,15.6765 103.493025,15.6765 L96.148275,15.6765 C94.290525,15.6765 93.172275,17.05875 92.997525,18.86025 C92.959275,19.0125 92.931525,19.1745 92.931525,19.34325 L92.439525,31.32225 C92.439525,32.24175 93.087525,32.98425 93.884025,32.98425 C94.691775,32.98425 95.330775,32.24175 95.330775,31.32225 L95.330775,20.19225 L96.008775,27.9915 L96.008775,27.99375 L96.008775,47.48175 C96.008775,48.441 96.817275,49.2165 97.802775,49.14075 C98.684025,49.07325 99.326775,48.264 99.326775,47.37975 L99.326775,31.7085 C99.483525,31.701 99.634275,31.69275 99.798525,31.69275 C99.960525,31.69275 100.120275,31.701 100.268025,31.7085 L100.268025,47.42475 C100.268025,48.1035 100.637775,48.76425 101.267775,49.0155 C102.451275,49.48725 103.589775,48.61125 103.589775,47.48175 L103.589775,27.99375 L103.589775,27.9915 L104.219775,20.61525 L104.219775,31.32225 C104.219775,32.24175 104.884275,32.98425 105.689775,32.98425 C106.503525,32.98425 107.164275,32.24175 107.164275,31.32225 L106.665525,19.34325 Z M96.831525,12.66375 L97.056525,12.51975 C97.604775,13.77075 98.633025,14.83875 99.809025,14.83875 C100.979025,14.83875 101.995275,13.779 102.553275,12.546 L102.763275,12.66375 C102.936525,12.68025 103.096275,12.5355 103.111275,12.32475 L103.225275,11.0265 C103.240275,10.842 103.133775,10.68675 102.993525,10.6485 C102.982275,8.89575 101.558775,7.48875 99.809025,7.48875 C98.060025,7.48875 96.641775,8.89575 96.625275,10.64025 C96.467025,10.67325 96.358275,10.83075 96.378525,11.0265 L96.491025,12.32475 C96.507525,12.5355 96.664275,12.68025 96.831525,12.66375 L96.831525,12.66375 Z" id="Fill-10" fill="#AAAAAA"></path>
                        <path d="M89.2434,29.928975 L85.10715,18.333975 L85.0449,18.137475 C84.68565,16.663725 83.6274,15.603225 82.0044,15.603225 L76.6089,15.603225 C74.92815,15.603225 73.8489,16.744725 73.5264,18.291225 L69.89865,29.919975 C69.72765,30.828975 70.22415,31.677975 71.0199,31.826475 C71.81565,31.973475 72.57765,31.350975 72.7494,30.456225 L75.5724,19.965225 L72.69465,39.019725 C72.6924,39.033975 72.70365,39.046725 72.7179,39.046725 L75.46365,39.046725 C75.47715,39.046725 75.48765,39.057975 75.48765,39.070725 L75.48765,47.366475 C75.48765,48.249225 76.1214,49.063725 77.0004,49.139475 C77.98365,49.224975 78.80565,48.443475 78.80565,47.475975 L78.80565,39.046725 L79.7544,39.046725 L79.7544,47.370225 C79.7544,48.252975 80.3904,49.065975 81.27015,49.139475 C82.25565,49.223475 83.0784,48.441975 83.0784,47.475975 L83.0784,39.070725 C83.0784,39.057975 83.0889,39.046725 83.1024,39.046725 L86.30565,39.046725 C86.32065,39.046725 86.3319,39.033975 86.3289,39.018975 L83.06715,19.968225 L86.37615,30.585225 C86.5749,31.473975 87.3894,32.053725 88.18065,31.871475 C88.9689,31.692225 89.4459,30.819975 89.2434,29.928975 L89.2434,29.928975 Z M82.65915,15.012225 C82.6734,15.012225 82.68465,15.000975 82.68315,14.985975 L82.4394,12.511725 L82.5789,12.246225 L82.68615,10.950975 C82.69665,10.765725 82.5954,10.611225 82.4559,10.567725 C82.44465,8.817975 81.02115,7.391475 79.26615,7.391475 C77.51115,7.391475 76.08765,8.812725 76.07115,10.564725 C75.91815,10.594725 75.80415,10.752225 75.82065,10.950975 L75.9309,12.246225 L76.0659,12.511725 L75.8229,14.985975 C75.82215,15.000975 75.8334,15.012225 75.8469,15.012225 L82.65915,15.012225 Z" id="Fill-11" fill="#AAAAAA"></path>
                        <path d="M150.6189,19.34325 C150.6189,17.31975 149.47515,15.6765 147.4464,15.6765 L140.1024,15.6765 C138.2439,15.6765 137.1264,17.05875 136.9509,18.86025 C136.91265,19.0125 136.8849,19.1745 136.8849,19.34325 L136.3929,31.32225 C136.3929,32.24175 137.0409,32.98425 137.83665,32.98425 C138.64515,32.98425 139.28415,32.24175 139.28415,31.32225 L139.28415,20.19225 L139.9614,27.9915 C139.96215,27.99225 139.96215,27.993 139.96215,27.99375 L139.96215,47.48175 C139.96215,48.441 140.7699,49.2165 141.75615,49.14075 C142.6374,49.07325 143.28015,48.264 143.28015,47.37975 L143.28015,31.7085 C143.4369,31.701 143.58765,31.69275 143.7519,31.69275 C143.9139,31.69275 144.07365,31.701 144.2214,31.7085 L144.2214,47.42475 C144.2214,48.1035 144.59115,48.76425 145.22115,49.0155 C146.40465,49.48725 147.54315,48.61125 147.54315,47.48175 L147.54315,27.99375 L147.54315,27.9915 L148.17315,20.61525 L148.17315,31.32225 C148.17315,32.24175 148.83765,32.98425 149.6424,32.98425 C150.45615,32.98425 151.11765,32.24175 151.11765,31.32225 L150.6189,19.34325 Z M140.7849,12.66375 L141.00915,12.51975 C141.5589,13.77075 142.58565,14.83875 143.7624,14.83875 C144.9324,14.83875 145.94865,13.779 146.50665,12.546 L146.71665,12.66375 C146.88915,12.68025 147.04965,12.5355 147.06465,12.32475 L147.17865,11.0265 C147.19365,10.842 147.0864,10.68675 146.9469,10.6485 C146.93565,8.89575 145.51215,7.48875 143.7624,7.48875 C142.0134,7.48875 140.59515,8.89575 140.57865,10.64025 C140.4204,10.67325 140.31165,10.83075 140.3319,11.0265 L140.4444,12.32475 C140.4609,12.5355 140.61765,12.68025 140.7849,12.66375 L140.7849,12.66375 Z" id="Fill-12" fill="#AAAAAA"></path>
                        <path d="M131.696775,29.928975 L127.560525,18.333975 L127.498275,18.137475 C127.139025,16.663725 126.080025,15.603225 124.457775,15.603225 L119.062275,15.603225 C117.380775,15.603225 116.301525,16.744725 115.979025,18.291225 L112.352025,29.919975 C112.181025,30.828975 112.677525,31.677975 113.473275,31.826475 C114.269025,31.973475 115.031025,31.350975 115.202025,30.456225 L118.025025,19.965225 L115.148025,39.019725 C115.145775,39.033975 115.157025,39.046725 115.171275,39.046725 L117.917025,39.046725 C117.930525,39.046725 117.941025,39.057975 117.941025,39.070725 L117.941025,47.366475 C117.941025,48.249225 118.574025,49.063725 119.453775,49.139475 C120.437025,49.224975 121.259025,48.443475 121.259025,47.475975 L121.259025,39.046725 L122.207775,39.046725 L122.207775,47.370225 C122.207775,48.252975 122.843775,49.065975 123.723525,49.139475 C124.709025,49.223475 125.531775,48.441975 125.531775,47.475975 L125.531775,39.070725 C125.531775,39.057975 125.542275,39.046725 125.555775,39.046725 L128.759025,39.046725 C128.774025,39.046725 128.784525,39.033975 128.782275,39.018975 L125.520525,19.968225 L128.829525,30.585225 C129.028275,31.473975 129.842025,32.053725 130.634025,31.871475 C131.423025,31.692225 131.900025,30.819975 131.696775,29.928975 L131.696775,29.928975 Z M125.112525,15.012225 C125.126775,15.012225 125.138025,15.000975 125.136525,14.985975 L124.892775,12.511725 L125.032275,12.246225 L125.138775,10.950975 C125.150025,10.765725 125.048775,10.611225 124.909275,10.567725 C124.898025,8.817975 123.474525,7.391475 121.719525,7.391475 C119.964525,7.391475 118.541025,8.812725 118.524525,10.564725 C118.371525,10.594725 118.257525,10.752225 118.274025,10.950975 L118.384275,12.246225 L118.519275,12.511725 L118.276275,14.985975 C118.274775,15.000975 118.286775,15.012225 118.300275,15.012225 L125.112525,15.012225 Z" id="Fill-13" fill="#AAAAAA"></path>
                        <polygon id="Fill-14" fill="#D8D8D8" points="1.77945 70.6875 49.61595 44.59575 137.1342 44.59575 184.96995 70.6875"></polygon>
                        <path d="M137.25,44.141625 L49.5,44.141625 L0,71.141625 L186.75,71.141625 L137.25,44.141625 Z M137.01825,45.049125 L183.19125,70.234125 L3.55875,70.234125 L49.73175,45.049125 L137.01825,45.049125 Z" id="Fill-15" fill="#FFFFFF"></path>
                        <path d="M53.10165,31.34325 C53.10165,29.31975 51.9579,27.6765 49.92915,27.6765 L42.58515,27.6765 C40.72665,27.6765 39.60915,29.05875 39.43365,30.86025 C39.3954,31.0125 39.36765,31.1745 39.36765,31.34325 L38.87565,43.32225 C38.87565,44.24175 39.52365,44.98425 40.32015,44.98425 C41.1279,44.98425 41.7669,44.24175 41.7669,43.32225 L41.7669,32.19225 L42.4449,39.9915 C42.4449,39.99225 42.4449,39.993 42.4449,39.99375 L42.4449,59.48175 C42.4449,60.441 43.2534,61.2165 44.2389,61.14075 C45.12015,61.07325 45.7629,60.264 45.7629,59.37975 L45.7629,43.7085 C45.91965,43.701 46.0704,43.69275 46.23465,43.69275 C46.39665,43.69275 46.5564,43.701 46.70415,43.7085 L46.70415,59.42475 C46.70415,60.1035 47.0739,60.76425 47.7039,61.0155 C48.8874,61.48725 50.0259,60.61125 50.0259,59.48175 L50.0259,39.99375 L50.0259,39.9915 L50.6559,32.61525 L50.6559,43.32225 C50.6559,44.24175 51.3204,44.98425 52.1259,44.98425 C52.93965,44.98425 53.6004,44.24175 53.6004,43.32225 L53.10165,31.34325 Z M43.26765,24.66375 L43.49265,24.51975 C44.0409,25.77075 45.06915,26.83875 46.24515,26.83875 C47.41515,26.83875 48.4314,25.779 48.9894,24.546 L49.1994,24.66375 C49.37265,24.68025 49.53315,24.5355 49.5474,24.32475 L49.66215,23.0265 C49.6764,22.842 49.5699,22.68675 49.42965,22.6485 C49.4184,20.89575 47.9949,19.48875 46.24515,19.48875 C44.49615,19.48875 43.0779,20.89575 43.0614,22.64025 C42.90315,22.67325 42.7944,22.83075 42.81465,23.0265 L42.92715,24.32475 C42.9444,24.5355 43.1004,24.68025 43.26765,24.66375 L43.26765,24.66375 Z" id="Fill-16" fill="#7C7C7C"></path>
                        <path d="M34.1799,41.928975 L30.04365,30.333975 L29.98065,30.137475 C29.62215,28.663725 28.56315,27.603225 26.9409,27.603225 L21.5454,27.603225 C19.8639,27.603225 18.78465,28.744725 18.46215,30.291225 L14.83515,41.919975 C14.6634,42.828975 15.16065,43.677975 15.9564,43.826475 C16.75215,43.973475 17.51415,43.350975 17.68515,42.456225 L20.50815,31.965225 L17.63115,51.019725 C17.6289,51.033975 17.6394,51.046725 17.6544,51.046725 L20.3994,51.046725 C20.4129,51.046725 20.42415,51.057975 20.42415,51.070725 L20.42415,59.366475 C20.42415,60.249225 21.05715,61.063725 21.9369,61.139475 C22.92015,61.224975 23.74215,60.443475 23.74215,59.475975 L23.74215,51.046725 L24.6909,51.046725 L24.6909,59.370225 C24.6909,60.252975 25.32615,61.065975 26.2059,61.139475 C27.19215,61.223475 28.01415,60.441975 28.01415,59.475975 L28.01415,51.070725 C28.01415,51.057975 28.0254,51.046725 28.0389,51.046725 L31.24215,51.046725 C31.2564,51.046725 31.26765,51.033975 31.2654,51.018975 L28.00365,31.968225 L31.31265,42.585225 C31.5114,43.473975 32.32515,44.053725 33.11715,43.871475 C33.9054,43.692225 34.3824,42.819975 34.1799,41.928975 L34.1799,41.928975 Z M27.59565,27.012225 C27.6099,27.012225 27.6204,27.000975 27.61965,26.985975 L27.37515,24.511725 L27.5154,24.246225 L27.6219,22.950975 C27.63315,22.765725 27.5319,22.611225 27.3924,22.567725 C27.38115,20.817975 25.95765,19.391475 24.20265,19.391475 C22.44765,19.391475 21.02415,20.812725 21.00765,22.564725 C20.85465,22.594725 20.74065,22.752225 20.75715,22.950975 L20.8674,24.246225 L21.00165,24.511725 L20.7594,26.985975 C20.7579,27.000975 20.76915,27.012225 20.7834,27.012225 L27.59565,27.012225 Z" id="Fill-17" fill="#7C7C7C"></path>
                        <path d="M95.415525,31.34325 C95.415525,29.31975 94.271775,27.6765 92.243025,27.6765 L84.898275,27.6765 C83.040525,27.6765 81.922275,29.05875 81.747525,30.86025 C81.709275,31.0125 81.681525,31.1745 81.681525,31.34325 L81.189525,43.32225 C81.189525,44.24175 81.837525,44.98425 82.634025,44.98425 C83.441775,44.98425 84.080775,44.24175 84.080775,43.32225 L84.080775,32.19225 L84.758775,39.9915 L84.758775,39.99375 L84.758775,59.48175 C84.758775,60.441 85.567275,61.2165 86.552775,61.14075 C87.434025,61.07325 88.076775,60.264 88.076775,59.37975 L88.076775,43.7085 C88.233525,43.701 88.384275,43.69275 88.548525,43.69275 C88.710525,43.69275 88.870275,43.701 89.018025,43.7085 L89.018025,59.42475 C89.018025,60.1035 89.387775,60.76425 90.017775,61.0155 C91.201275,61.48725 92.339775,60.61125 92.339775,59.48175 L92.339775,39.99375 L92.339775,39.9915 L92.969775,32.61525 L92.969775,43.32225 C92.969775,44.24175 93.634275,44.98425 94.439775,44.98425 C95.253525,44.98425 95.914275,44.24175 95.914275,43.32225 L95.415525,31.34325 Z M85.581525,24.66375 L85.806525,24.51975 C86.354775,25.77075 87.383025,26.83875 88.559025,26.83875 C89.729025,26.83875 90.745275,25.779 91.303275,24.546 L91.513275,24.66375 C91.686525,24.68025 91.846275,24.5355 91.861275,24.32475 L91.975275,23.0265 C91.990275,22.842 91.883775,22.68675 91.743525,22.6485 C91.732275,20.89575 90.308775,19.48875 88.559025,19.48875 C86.810025,19.48875 85.391775,20.89575 85.375275,22.64025 C85.217025,22.67325 85.108275,22.83075 85.128525,23.0265 L85.241025,24.32475 C85.257525,24.5355 85.414275,24.68025 85.581525,24.66375 L85.581525,24.66375 Z" id="Fill-18" fill="#7C7C7C"></path>
                        <path d="M77.9934,41.928975 L73.85715,30.333975 L73.7949,30.137475 C73.43565,28.663725 72.3774,27.603225 70.7544,27.603225 L65.3589,27.603225 C63.67815,27.603225 62.5989,28.744725 62.2764,30.291225 L58.64865,41.919975 C58.47765,42.828975 58.97415,43.677975 59.7699,43.826475 C60.56565,43.973475 61.32765,43.350975 61.4994,42.456225 L64.3224,31.965225 L61.44465,51.019725 C61.4424,51.033975 61.45365,51.046725 61.4679,51.046725 L64.21365,51.046725 C64.22715,51.046725 64.23765,51.057975 64.23765,51.070725 L64.23765,59.366475 C64.23765,60.249225 64.8714,61.063725 65.7504,61.139475 C66.73365,61.224975 67.55565,60.443475 67.55565,59.475975 L67.55565,51.046725 L68.5044,51.046725 L68.5044,59.370225 C68.5044,60.252975 69.1404,61.065975 70.02015,61.139475 C71.00565,61.223475 71.8284,60.441975 71.8284,59.475975 L71.8284,51.070725 C71.8284,51.057975 71.8389,51.046725 71.8524,51.046725 L75.05565,51.046725 C75.07065,51.046725 75.0819,51.033975 75.0789,51.018975 L71.81715,31.968225 L75.12615,42.585225 C75.3249,43.473975 76.1394,44.053725 76.93065,43.871475 C77.7189,43.692225 78.1959,42.819975 77.9934,41.928975 L77.9934,41.928975 Z M71.40915,27.012225 C71.4234,27.012225 71.43465,27.000975 71.43315,26.985975 L71.1894,24.511725 L71.3289,24.246225 L71.43615,22.950975 C71.44665,22.765725 71.3454,22.611225 71.2059,22.567725 C71.19465,20.817975 69.77115,19.391475 68.01615,19.391475 C66.26115,19.391475 64.83765,20.812725 64.82115,22.564725 C64.66815,22.594725 64.55415,22.752225 64.57065,22.950975 L64.6809,24.246225 L64.8159,24.511725 L64.5729,26.985975 C64.57215,27.000975 64.5834,27.012225 64.5969,27.012225 L71.40915,27.012225 Z" id="Fill-19" fill="#7C7C7C"></path>
                        <path d="M139.3689,31.34325 C139.3689,29.31975 138.22515,27.6765 136.1964,27.6765 L128.8524,27.6765 C126.9939,27.6765 125.87565,29.05875 125.7009,30.86025 C125.66265,31.0125 125.6349,31.1745 125.6349,31.34325 L125.1429,43.32225 C125.1429,44.24175 125.7909,44.98425 126.5874,44.98425 C127.39515,44.98425 128.03415,44.24175 128.03415,43.32225 L128.03415,32.19225 L128.7114,39.9915 C128.71215,39.99225 128.71215,39.993 128.71215,39.99375 L128.71215,59.48175 C128.71215,60.441 129.5199,61.2165 130.50615,61.14075 C131.3874,61.07325 132.03015,60.264 132.03015,59.37975 L132.03015,43.7085 C132.1869,43.701 132.33765,43.69275 132.5019,43.69275 C132.6639,43.69275 132.82365,43.701 132.9714,43.7085 L132.9714,59.42475 C132.9714,60.1035 133.34115,60.76425 133.97115,61.0155 C135.15465,61.48725 136.29315,60.61125 136.29315,59.48175 L136.29315,39.99375 L136.29315,39.9915 L136.92315,32.61525 L136.92315,43.32225 C136.92315,44.24175 137.58765,44.98425 138.3924,44.98425 C139.20615,44.98425 139.86765,44.24175 139.86765,43.32225 L139.3689,31.34325 Z M129.5349,24.66375 L129.75915,24.51975 C130.3089,25.77075 131.33565,26.83875 132.5124,26.83875 C133.6824,26.83875 134.69865,25.779 135.25665,24.546 L135.46665,24.66375 C135.63915,24.68025 135.79965,24.5355 135.81465,24.32475 L135.92865,23.0265 C135.94365,22.842 135.8364,22.68675 135.6969,22.6485 C135.68565,20.89575 134.26215,19.48875 132.5124,19.48875 C130.7634,19.48875 129.34515,20.89575 129.32865,22.64025 C129.1704,22.67325 129.06165,22.83075 129.0819,23.0265 L129.1944,24.32475 C129.2109,24.5355 129.36765,24.68025 129.5349,24.66375 L129.5349,24.66375 Z" id="Fill-20" fill="#7C7C7C"></path>
                        <path d="M120.446775,41.928975 L116.310525,30.333975 L116.248275,30.137475 C115.889025,28.663725 114.830025,27.603225 113.207775,27.603225 L107.812275,27.603225 C106.130775,27.603225 105.051525,28.744725 104.729025,30.291225 L101.102025,41.919975 C100.931025,42.828975 101.427525,43.677975 102.223275,43.826475 C103.019025,43.973475 103.781025,43.350975 103.952025,42.456225 L106.775025,31.965225 L103.898025,51.019725 C103.895775,51.033975 103.907025,51.046725 103.921275,51.046725 L106.667025,51.046725 C106.680525,51.046725 106.691025,51.057975 106.691025,51.070725 L106.691025,59.366475 C106.691025,60.249225 107.324025,61.063725 108.203775,61.139475 C109.187025,61.224975 110.009025,60.443475 110.009025,59.475975 L110.009025,51.046725 L110.957775,51.046725 L110.957775,59.370225 C110.957775,60.252975 111.593775,61.065975 112.473525,61.139475 C113.459025,61.223475 114.281775,60.441975 114.281775,59.475975 L114.281775,51.070725 C114.281775,51.057975 114.292275,51.046725 114.305775,51.046725 L117.509025,51.046725 C117.524025,51.046725 117.535275,51.033975 117.532275,51.018975 L114.270525,31.968225 L117.579525,42.585225 C117.778275,43.473975 118.592775,44.053725 119.384025,43.871475 C120.172275,43.692225 120.649275,42.819975 120.446775,41.928975 L120.446775,41.928975 Z M113.862525,27.012225 C113.876775,27.012225 113.888025,27.000975 113.886525,26.985975 L113.642775,24.511725 L113.782275,24.246225 L113.888775,22.950975 C113.900025,22.765725 113.798775,22.611225 113.659275,22.567725 C113.648025,20.817975 112.224525,19.391475 110.469525,19.391475 C108.714525,19.391475 107.291025,20.812725 107.274525,22.564725 C107.121525,22.594725 107.007525,22.752225 107.024025,22.950975 L107.134275,24.246225 L107.269275,24.511725 L107.026275,26.985975 C107.024775,27.000975 107.036775,27.012225 107.050275,27.012225 L113.862525,27.012225 Z" id="Fill-21" fill="#7C7C7C"></path>
                        <path d="M162.76095,41.928975 L158.62395,30.333975 L158.5617,30.137475 C158.2032,28.663725 157.1442,27.603225 155.52195,27.603225 L150.1257,27.603225 C148.44495,27.603225 147.3657,28.744725 147.0432,30.291225 L143.41545,41.919975 C143.24445,42.828975 143.7417,43.677975 144.5367,43.826475 C145.33245,43.973475 146.09445,43.350975 146.2662,42.456225 L149.0892,31.965225 L146.21145,51.019725 C146.20995,51.033975 146.22045,51.046725 146.23545,51.046725 L148.98045,51.046725 C148.99395,51.046725 149.00445,51.057975 149.00445,51.070725 L149.00445,59.366475 C149.00445,60.249225 149.6382,61.063725 150.51795,61.139475 C151.50045,61.224975 152.3232,60.443475 152.3232,59.475975 L152.3232,51.046725 L153.27195,51.046725 L153.27195,59.370225 C153.27195,60.252975 153.9072,61.065975 154.78695,61.139475 C155.7732,61.223475 156.5952,60.441975 156.5952,59.475975 L156.5952,51.070725 C156.5952,51.057975 156.6057,51.046725 156.61995,51.046725 L159.82245,51.046725 C159.83745,51.046725 159.8487,51.033975 159.8457,51.018975 L156.5847,31.968225 L159.8937,42.585225 C160.0917,43.473975 160.9062,44.053725 161.6982,43.871475 C162.48645,43.692225 162.96345,42.819975 162.76095,41.928975 L162.76095,41.928975 Z M156.1767,27.012225 C156.1902,27.012225 156.20145,27.000975 156.2007,26.985975 L155.9562,24.511725 L156.0957,24.246225 L156.20295,22.950975 C156.2142,22.765725 156.11295,22.611225 155.9727,22.567725 C155.9622,20.817975 154.53795,19.391475 152.78295,19.391475 C151.02795,19.391475 149.60445,20.812725 149.5887,22.564725 C149.43495,22.594725 149.32095,22.752225 149.3382,22.950975 L149.44845,24.246225 L149.5827,24.511725 L149.3397,26.985975 C149.33895,27.000975 149.3502,27.012225 149.36445,27.012225 L156.1767,27.012225 Z" id="Fill-22" fill="#7C7C7C"></path>
                        <path d="M41.099475,37.165275 C41.099475,34.976775 39.862725,33.200025 37.668225,33.200025 L29.725725,33.200025 C27.716475,33.200025 26.507475,34.694775 26.318475,36.644025 C26.276475,36.807525 26.246475,36.983025 26.246475,37.165275 L25.714725,50.120025 C25.714725,51.115275 26.415975,51.918525 27.276225,51.918525 C28.150725,51.918525 28.841475,51.115275 28.841475,50.120025 L28.841475,38.084025 L29.574225,46.520025 L29.574225,67.595775 C29.574225,68.586525 30.370725,69.396525 31.370475,69.396525 C32.356725,69.396525 33.162975,68.586525 33.162975,67.595775 L33.162975,50.538525 C33.332475,50.529525 33.495975,50.520525 33.672975,50.520525 C33.848475,50.520525 34.021725,50.529525 34.180725,50.538525 L34.180725,67.595775 C34.180725,68.586525 34.987725,69.396525 35.976975,69.396525 C36.964725,69.396525 37.773225,68.586525 37.773225,67.595775 L37.773225,46.520025 L38.454975,38.541525 L38.454975,50.120025 C38.454975,51.115275 39.173475,51.918525 40.043475,51.918525 C40.923975,51.918525 41.638725,51.115275 41.638725,50.120025 L41.099475,37.165275 Z M30.464475,29.942025 L30.707475,29.786775 C31.301475,31.139025 32.412225,32.294025 33.684975,32.294025 C34.949475,32.294025 36.048975,31.148025 36.651975,29.814525 L36.879225,29.942025 C37.066725,29.960025 37.239975,29.803275 37.255725,29.574525 L37.379475,28.172025 C37.395225,27.971025 37.279725,27.804525 37.128225,27.762525 C37.116225,25.868025 35.577225,24.345525 33.684975,24.345525 C31.792725,24.345525 30.258975,25.868025 30.241725,27.753525 C30.069975,27.789525 29.952975,27.959775 29.974725,28.172025 L30.096225,29.574525 C30.114225,29.803275 30.283725,29.960025 30.464475,29.942025 L30.464475,29.942025 Z" id="Fill-23" fill="#565656"></path>
                        <path d="M22.258275,48.61305 L17.785275,36.0738 L17.717775,35.86155 C17.329275,34.2678 16.184025,33.1218 14.429775,33.1218 L8.594775,33.1218 C6.776025,33.1218 5.609025,34.3548 5.260275,36.02805 L1.337025,48.60405 C1.152525,49.5873 1.690275,50.5053 2.550525,50.6658 C3.410775,50.82405 4.235025,50.1513 4.420275,49.18455 L7.473525,37.83855 L4.356525,58.47405 L7.382025,58.47405 L7.382025,67.58955 C7.382025,68.5833 8.190525,69.3963 9.176025,69.3963 C10.167525,69.3963 10.970775,68.5833 10.970775,67.58955 L10.970775,58.47405 L11.996025,58.47405 L11.996025,67.58955 C11.996025,68.5833 12.800775,69.3963 13.790025,69.3963 C14.786025,69.3963 15.590775,68.5833 15.590775,67.58955 L15.590775,58.47405 L19.112025,58.47405 L15.578775,37.84155 L19.157775,49.3233 C19.372275,50.2848 20.252775,50.91105 21.109275,50.71455 C21.961275,50.5203 22.477275,49.57755 22.258275,48.61305 L22.258275,48.61305 Z M15.166275,32.48205 L14.899275,29.77755 L15.050775,29.4903 L15.166275,28.09005 C15.178275,27.8898 15.068775,27.72255 14.917275,27.67455 C14.905275,25.78305 13.366275,24.2403 11.468025,24.2403 C9.570525,24.2403 8.030775,25.77705 8.012775,27.67155 C7.847775,27.70455 7.724025,27.8748 7.742025,28.09005 L7.862025,29.4903 L8.007525,29.77755 L7.742025,32.48205 L15.166275,32.48205 Z" id="Fill-24" fill="#565656"></path>
                        <path d="M85.2378,37.165275 C85.2378,34.976775 84.00105,33.200025 81.80655,33.200025 L73.86405,33.200025 C71.8548,33.200025 70.6458,34.694775 70.4568,36.644025 C70.4148,36.807525 70.3848,36.983025 70.3848,37.165275 L69.85305,50.120025 C69.85305,51.115275 70.5543,51.918525 71.41455,51.918525 C72.28905,51.918525 72.9798,51.115275 72.9798,50.120025 L72.9798,38.084025 L73.71255,46.520025 L73.71255,67.595775 C73.71255,68.586525 74.50905,69.396525 75.50955,69.396525 C76.49505,69.396525 77.3013,68.586525 77.3013,67.595775 L77.3013,50.538525 C77.4708,50.529525 77.6343,50.520525 77.8113,50.520525 C77.9868,50.520525 78.16005,50.529525 78.31905,50.538525 L78.31905,67.595775 C78.31905,68.586525 79.12605,69.396525 80.1153,69.396525 C81.10305,69.396525 81.91155,68.586525 81.91155,67.595775 L81.91155,46.520025 L82.5933,38.541525 L82.5933,50.120025 C82.5933,51.115275 83.3118,51.918525 84.18255,51.918525 C85.0623,51.918525 85.77705,51.115275 85.77705,50.120025 L85.2378,37.165275 Z M74.6028,29.942025 L74.84655,29.786775 C75.4398,31.139025 76.55055,32.294025 77.8233,32.294025 C79.0878,32.294025 80.1873,31.148025 80.7903,29.814525 L81.01755,29.942025 C81.20505,29.960025 81.3783,29.803275 81.39405,29.574525 L81.5178,28.172025 C81.53355,27.971025 81.41805,27.804525 81.26655,27.762525 C81.25455,25.868025 79.71555,24.345525 77.8233,24.345525 C75.93105,24.345525 74.39805,25.868025 74.38005,27.753525 C74.2083,27.789525 74.0913,27.959775 74.11305,28.172025 L74.23455,29.574525 C74.25255,29.803275 74.42205,29.960025 74.6028,29.942025 L74.6028,29.942025 Z" id="Fill-25" fill="#565656"></path>
                        <path d="M66.3966,48.61305 L61.9236,36.0738 L61.8561,35.86155 C61.4676,34.2678 60.32235,33.1218 58.5681,33.1218 L52.7331,33.1218 C50.91435,33.1218 49.74735,34.3548 49.39935,36.02805 L45.4761,48.60405 C45.29085,49.5873 45.8286,50.5053 46.68885,50.6658 C47.5491,50.82405 48.37335,50.1513 48.5586,49.18455 L51.61185,37.83855 L48.49485,58.47405 L51.52035,58.47405 L51.52035,67.58955 C51.52035,68.5833 52.32885,69.3963 53.31435,69.3963 C54.30585,69.3963 55.1091,68.5833 55.1091,67.58955 L55.1091,58.47405 L56.13435,58.47405 L56.13435,67.58955 C56.13435,68.5833 56.9391,69.3963 57.92835,69.3963 C58.92435,69.3963 59.7291,68.5833 59.7291,67.58955 L59.7291,58.47405 L63.25035,58.47405 L59.7171,37.84155 L63.2961,49.3233 C63.5106,50.2848 64.3911,50.91105 65.2476,50.71455 C66.0996,50.5203 66.6156,49.57755 66.3966,48.61305 L66.3966,48.61305 Z M59.3046,32.48205 L59.0376,29.77755 L59.18985,29.4903 L59.3046,28.09005 C59.31735,27.8898 59.20785,27.72255 59.0556,27.67455 C59.04435,25.78305 57.5046,24.2403 55.6071,24.2403 C53.70885,24.2403 52.1691,25.77705 52.1511,27.67155 C51.9861,27.70455 51.8631,27.8748 51.8811,28.09005 L52.00035,29.4903 L52.14585,29.77755 L51.8811,32.48205 L59.3046,32.48205 Z" id="Fill-26" fill="#565656"></path>
                        <path d="M127.905,37.165275 C127.905,34.976775 126.66825,33.200025 124.47375,33.200025 L116.53125,33.200025 C114.522,33.200025 113.313,34.694775 113.124,36.644025 C113.082,36.807525 113.052,36.983025 113.052,37.165275 L112.52025,50.120025 C112.52025,51.115275 113.2215,51.918525 114.08175,51.918525 C114.95625,51.918525 115.647,51.115275 115.647,50.120025 L115.647,38.084025 L116.37975,46.520025 L116.37975,67.595775 C116.37975,68.586525 117.17625,69.396525 118.176,69.396525 C119.16225,69.396525 119.9685,68.586525 119.9685,67.595775 L119.9685,50.538525 C120.138,50.529525 120.3015,50.520525 120.4785,50.520525 C120.654,50.520525 120.8265,50.529525 120.98625,50.538525 L120.98625,67.595775 C120.98625,68.586525 121.79325,69.396525 122.7825,69.396525 C123.77025,69.396525 124.57875,68.586525 124.57875,67.595775 L124.57875,46.520025 L125.2605,38.541525 L125.2605,50.120025 C125.2605,51.115275 125.979,51.918525 126.849,51.918525 C127.7295,51.918525 128.445,51.115275 128.445,50.120025 L127.905,37.165275 Z M117.27,29.942025 L117.513,29.786775 C118.107,31.139025 119.21775,32.294025 120.4905,32.294025 C121.755,32.294025 122.8545,31.148025 123.4575,29.814525 L123.68475,29.942025 C123.87225,29.960025 124.0455,29.803275 124.06125,29.574525 L124.185,28.172025 C124.20075,27.971025 124.08525,27.804525 123.93375,27.762525 C123.92175,25.868025 122.38275,24.345525 120.4905,24.345525 C118.59825,24.345525 117.0645,25.868025 117.04725,27.753525 C116.8755,27.789525 116.7585,27.959775 116.78025,28.172025 L116.90175,29.574525 C116.91975,29.803275 117.08925,29.960025 117.27,29.942025 L117.27,29.942025 Z" id="Fill-27" fill="#565656"></path>
                        <path d="M109.063875,48.61305 L104.590875,36.0738 L104.523375,35.86155 C104.134875,34.2678 102.989625,33.1218 101.235375,33.1218 L95.400375,33.1218 C93.581625,33.1218 92.414625,34.3548 92.065875,36.02805 L88.142625,48.60405 C87.958125,49.5873 88.495125,50.5053 89.356125,50.6658 C90.216375,50.82405 91.040625,50.1513 91.225875,49.18455 L94.279125,37.83855 L91.162125,58.47405 L94.187625,58.47405 L94.187625,67.58955 C94.187625,68.5833 94.996125,69.3963 95.981625,69.3963 C96.973125,69.3963 97.775625,68.5833 97.775625,67.58955 L97.775625,58.47405 L98.801625,58.47405 L98.801625,67.58955 C98.801625,68.5833 99.606375,69.3963 100.595625,69.3963 C101.591625,69.3963 102.396375,68.5833 102.396375,67.58955 L102.396375,58.47405 L105.917625,58.47405 L102.384375,37.84155 L105.963375,49.3233 C106.177875,50.2848 107.058375,50.91105 107.914875,50.71455 C108.766875,50.5203 109.282875,49.57755 109.063875,48.61305 L109.063875,48.61305 Z M101.971875,32.48205 L101.704875,29.77755 L101.856375,29.4903 L101.971875,28.09005 C101.983875,27.8898 101.874375,27.72255 101.722875,27.67455 C101.710875,25.78305 100.171875,24.2403 98.273625,24.2403 C96.376125,24.2403 94.836375,25.77705 94.818375,27.67155 C94.653375,27.70455 94.529625,27.8748 94.547625,28.09005 L94.667625,29.4903 L94.813125,29.77755 L94.547625,32.48205 L101.971875,32.48205 Z" id="Fill-28" fill="#565656"></path>
                        <path d="M172.04295,37.165275 C172.04295,34.976775 170.80695,33.200025 168.61245,33.200025 L160.66995,33.200025 C158.65995,33.200025 157.4517,34.694775 157.26195,36.644025 C157.21995,36.807525 157.1907,36.983025 157.1907,37.165275 L156.6582,50.120025 C156.6582,51.115275 157.3602,51.918525 158.2197,51.918525 C159.0942,51.918525 159.78495,51.115275 159.78495,50.120025 L159.78495,38.084025 L160.51845,46.520025 L160.51845,67.595775 C160.51845,68.586525 161.31495,69.396525 162.3147,69.396525 C163.30095,69.396525 164.1072,68.586525 164.1072,67.595775 L164.1072,50.538525 C164.2767,50.529525 164.43945,50.520525 164.6172,50.520525 C164.79195,50.520525 164.9652,50.529525 165.1242,50.538525 L165.1242,67.595775 C165.1242,68.586525 165.9312,69.396525 166.9212,69.396525 C167.9082,69.396525 168.7167,68.586525 168.7167,67.595775 L168.7167,46.520025 L169.39845,38.541525 L169.39845,50.120025 C169.39845,51.115275 170.1177,51.918525 170.9877,51.918525 C171.8682,51.918525 172.58295,51.115275 172.58295,50.120025 L172.04295,37.165275 Z M161.40795,29.942025 L161.6517,29.786775 C162.2457,31.139025 163.35645,32.294025 164.62845,32.294025 C165.8937,32.294025 166.9932,31.148025 167.5962,29.814525 L167.82345,29.942025 C168.0102,29.960025 168.18345,29.803275 168.19995,29.574525 L168.32295,28.172025 C168.33945,27.971025 168.2232,27.804525 168.0717,27.762525 C168.0597,25.868025 166.5207,24.345525 164.62845,24.345525 C162.73695,24.345525 161.2032,25.868025 161.1852,27.753525 C161.0142,27.789525 160.8972,27.959775 160.91895,28.172025 L161.04045,29.574525 C161.05845,29.803275 161.2272,29.960025 161.40795,29.942025 L161.40795,29.942025 Z" id="Fill-29" fill="#565656"></path>
                        <path d="M153.202125,48.61305 L148.729125,36.0738 L148.661625,35.86155 C148.273125,34.2678 147.127875,33.1218 145.373625,33.1218 L139.538625,33.1218 C137.719875,33.1218 136.553625,34.3548 136.204875,36.02805 L132.280875,48.60405 C132.095625,49.5873 132.633375,50.5053 133.494375,50.6658 C134.354625,50.82405 135.179625,50.1513 135.364125,49.18455 L138.417375,37.83855 L135.300375,58.47405 L138.325875,58.47405 L138.325875,67.58955 C138.325875,68.5833 139.133625,69.3963 140.119875,69.3963 C141.112125,69.3963 141.913875,68.5833 141.913875,67.58955 L141.913875,58.47405 L142.939875,58.47405 L142.939875,67.58955 C142.939875,68.5833 143.744625,69.3963 144.734625,69.3963 C145.729875,69.3963 146.534625,68.5833 146.534625,67.58955 L146.534625,58.47405 L150.055875,58.47405 L146.522625,37.84155 L150.101625,49.3233 C150.316125,50.2848 151.196625,50.91105 152.053125,50.71455 C152.905125,50.5203 153.421125,49.57755 153.202125,48.61305 L153.202125,48.61305 Z M146.110125,32.48205 L145.843125,29.77755 L145.995375,29.4903 L146.110125,28.09005 C146.122875,27.8898 146.012625,27.72255 145.861875,27.67455 C145.849125,25.78305 144.310125,24.2403 142.411875,24.2403 C140.514375,24.2403 138.974625,25.77705 138.956625,27.67155 C138.791625,27.70455 138.667875,27.8748 138.686625,28.09005 L138.805875,29.4903 L138.950625,29.77755 L138.686625,32.48205 L146.110125,32.48205 Z" id="Fill-30" fill="#565656"></path>
                    </g>
                </g>
            </g>
        </g>
    </g>
</svg>