<?xml version="1.0" encoding="UTF-8"?>
<svg width="249px" height="224px" viewBox="0 0 249 224" version="1.1" xmlns="http://www.w3.org/2000/svg" xmlns:xlink="http://www.w3.org/1999/xlink">
    <!-- Generator: Sketch 59.1 (86144) - https://sketch.com -->
    <title>People</title>
    <desc>Created with Sketch.</desc>
    <defs>
        <polyline id="path-1" points="1.0815 0.495 0 158.25 194.1735 158.25 195.25425 0.495"></polyline>
        <polyline id="path-3" points="1.0815 0.495 0 158.25 194.1735 158.25 195.25425 0.495"></polyline>
        <polyline id="path-5" points="1.0815 0.495 0 158.25 194.1735 158.25 195.25425 0.495"></polyline>
        <polygon id="path-7" points="1.0815 0.495 0 158.25 194.1735 158.25 195.25425 0.495"></polygon>
        <polyline id="path-9" points="1.0815 0.495 0 158.25 194.1735 158.25 195.25425 0.495"></polyline>
        <polyline id="path-11" points="1.0815 0.495 0 158.25 194.1735 158.25 195.25425 0.495"></polyline>
    </defs>
    <g id="Export-Outlined-SVG" stroke="none" stroke-width="1" fill="none" fill-rule="evenodd">
        <g id="6" transform="translate(-254.000000, -936.000000)">
            <g id="People" transform="translate(249.000000, 936.000000)">
                <path d="M248.0515,117.456 L248.0515,124.896 C248.0515,125.056001 248.0795,125.168 248.1355,125.232 C248.1915,125.296 248.2555,125.328 248.3275,125.328 L248.4175,125.328 C248.4455,125.328 248.4875,125.32 248.5435,125.304 L248.6755,126.048 C248.6115,126.08 248.5355,126.104 248.4475,126.12 C248.3595,126.136 248.247501,126.144 248.1115,126.144 C247.735498,126.144 247.467501,126.032001 247.3075,125.808 C247.147499,125.583999 247.0675,125.256002 247.0675,124.824 L247.0675,117.456 L248.0515,117.456 Z M251.779,120.024 C252.147002,120.024 252.484998,120.087999 252.793,120.216 C253.101002,120.344001 253.366999,120.499999 253.591,120.684 L253.123,121.308 C252.922999,121.155999 252.715001,121.032 252.499,120.936 C252.282999,120.84 252.047001,120.792 251.791,120.792 C251.422998,120.792 251.153001,120.875999 250.981,121.044 C250.808999,121.212001 250.723,121.407999 250.723,121.632 C250.723,121.768001 250.759,121.885999 250.831,121.986 C250.903,122.086 250.998999,122.174 251.119,122.25 C251.239001,122.326 251.376999,122.394 251.533,122.454 L252.019,122.64 C252.227001,122.72 252.436999,122.804 252.649,122.892 C252.861001,122.98 253.050999,123.089999 253.219,123.222 C253.387001,123.354001 253.524999,123.515999 253.633,123.708 C253.741001,123.900001 253.795,124.131999 253.795,124.404 C253.795,124.644001 253.749,124.867999 253.657,125.076 C253.565,125.284001 253.429001,125.467999 253.249,125.628 C253.068999,125.788001 252.845001,125.914 252.577,126.006 C252.308999,126.098 252.003002,126.144 251.659,126.144 C251.242998,126.144 250.847002,126.068001 250.471,125.916 C250.094998,125.763999 249.767001,125.572001 249.487,125.34 L249.979,124.68 C250.235001,124.888001 250.496999,125.055999 250.765,125.184 C251.033001,125.312001 251.342998,125.376 251.695,125.376 C252.079002,125.376 252.366999,125.288001 252.559,125.112 C252.751001,124.935999 252.847,124.720001 252.847,124.464 C252.847,124.311999 252.807,124.180001 252.727,124.068 C252.647,123.955999 252.545001,123.858 252.421,123.774 C252.296999,123.69 252.155001,123.616 251.995,123.552 L251.515,123.36 C251.306999,123.288 251.099001,123.206 250.891,123.114 C250.682999,123.022 250.497001,122.910001 250.333,122.778 C250.168999,122.645999 250.035001,122.492001 249.931,122.316 C249.826999,122.139999 249.775,121.928001 249.775,121.68 C249.775,121.447999 249.821,121.230001 249.913,121.026 C250.005,120.821999 250.136999,120.646001 250.309,120.498 C250.481001,120.349999 250.690999,120.234 250.939,120.15 C251.187001,120.066 251.466998,120.024 251.779,120.024 Z M235.2925,120.168 L235.2925,123.732 C235.2925,124.284003 235.378499,124.681999 235.5505,124.926 C235.722501,125.170001 236.000498,125.292 236.3845,125.292 C236.688502,125.292 236.956499,125.214001 237.1885,125.058 C237.420501,124.901999 237.676499,124.652002 237.9565,124.308 L237.9565,120.168 L238.9405,120.168 L238.9405,126 L238.1245,126 L238.0405,125.088 L238.0045,125.088 C237.732499,125.408002 237.446501,125.663999 237.1465,125.856 C236.846498,126.048001 236.492502,126.144 236.0845,126.144 C235.460497,126.144 235.006501,125.952002 234.7225,125.568 C234.438499,125.183998 234.2965,124.616004 234.2965,123.864 L234.2965,120.168 L235.2925,120.168 Z M214.207,117.456 L214.207,126 L213.391,126 L213.307,125.316 L213.271,125.316 C213.038999,125.540001 212.773001,125.733999 212.473,125.898 C212.172998,126.062001 211.851002,126.144 211.507,126.144 C210.770996,126.144 210.185002,125.880003 209.749,125.352 C209.312998,124.823997 209.095,124.072005 209.095,123.096 C209.095,122.623998 209.164999,122.198002 209.305,121.818 C209.445001,121.437998 209.630999,121.116001 209.863,120.852 C210.095,120.587999 210.362998,120.384001 210.667,120.24 C210.971002,120.095999 211.290998,120.024 211.627,120.024 C211.963002,120.024 212.254999,120.083999 212.503,120.204 C212.751001,120.324001 213.002999,120.487999 213.259,120.696 L213.211,119.7 L213.211,117.456 L214.207,117.456 Z M232.405,117.456 L232.405,126 L231.589,126 L231.505,125.316 L231.469,125.316 C231.236999,125.540001 230.971001,125.733999 230.671,125.898 C230.370998,126.062001 230.049002,126.144 229.705,126.144 C228.968996,126.144 228.383002,125.880003 227.947,125.352 C227.510998,124.823997 227.293,124.072005 227.293,123.096 C227.293,122.623998 227.362999,122.198002 227.503,121.818 C227.643001,121.437998 227.828999,121.116001 228.061,120.852 C228.293,120.587999 228.560998,120.384001 228.865,120.24 C229.169002,120.095999 229.488998,120.024 229.825,120.024 C230.161002,120.024 230.452999,120.083999 230.701,120.204 C230.949001,120.324001 231.200999,120.487999 231.457,120.696 L231.409,119.7 L231.409,117.456 L232.405,117.456 Z M243.172,120.024 C243.884004,120.024 244.399998,120.241998 244.72,120.678 C245.040002,121.114002 245.2,121.695996 245.2,122.424 L245.2,126 L244.384,126 L244.3,125.304 L244.276,125.304 C243.995999,125.536001 243.694002,125.733999 243.37,125.898 C243.045998,126.062001 242.704002,126.144 242.344,126.144 C241.847998,126.144 241.438002,126.000001 241.114,125.712 C240.789998,125.423999 240.628,125.016003 240.628,124.488 C240.628,123.847997 240.913997,123.358002 241.486,123.018 C242.058003,122.677998 242.967994,122.440001 244.216,122.304 C244.216,122.119999 244.198,121.940001 244.162,121.764 C244.126,121.587999 244.062,121.432001 243.97,121.296 C243.878,121.159999 243.756001,121.05 243.604,120.966 C243.451999,120.882 243.256001,120.84 243.016,120.84 C242.671998,120.84 242.354001,120.903999 242.062,121.032 C241.769999,121.160001 241.508001,121.303999 241.276,121.464 L240.88,120.78 C241.152001,120.603999 241.483998,120.434001 241.876,120.27 C242.268002,120.105999 242.699998,120.024 243.172,120.024 Z M200.968,120.168 L200.968,126 L199.984,126 L199.984,120.168 L200.968,120.168 Z M225.7375,120.168 L225.7375,126 L224.7535,126 L224.7535,120.168 L225.7375,120.168 Z M217.1665,120.168 L217.1665,126 L216.1825,126 L216.1825,120.168 L217.1665,120.168 Z M205.8355,120.024 C206.451503,120.024 206.901499,120.215998 207.1855,120.6 C207.469501,120.984002 207.6115,121.551996 207.6115,122.304 L207.6115,126 L206.6275,126 L206.6275,122.436 C206.6275,121.883997 206.539501,121.486001 206.3635,121.242 C206.187499,120.997999 205.907502,120.876 205.5235,120.876 C205.219498,120.876 204.951501,120.951999 204.7195,121.104 C204.487499,121.256001 204.223501,121.479999 203.9275,121.776 L203.9275,126 L202.9435,126 L202.9435,120.168 L203.7595,120.168 L203.8435,121.008 L203.8795,121.008 C204.159501,120.727999 204.453498,120.494001 204.7615,120.306 C205.069502,120.117999 205.427498,120.024 205.8355,120.024 Z M219.322,120.168 L220.426,123.48 L220.696,124.344 L220.966,125.196 L221.014,125.196 L221.278,124.344 L221.542,123.48 L222.646,120.168 L223.618,120.168 L221.554,126 L220.402,126 L218.302,120.168 L219.322,120.168 Z M244.216,122.952 C243.727998,123.016 243.316002,123.092 242.98,123.18 C242.643998,123.268 242.374001,123.371999 242.17,123.492 C241.965999,123.612001 241.82,123.749999 241.732,123.906 C241.644,124.062001 241.6,124.231999 241.6,124.416 C241.6,124.752002 241.697999,124.991999 241.894,125.136 C242.090001,125.280001 242.331999,125.352 242.62,125.352 C242.900001,125.352 243.165999,125.286001 243.418,125.154 C243.670001,125.021999 243.935999,124.828001 244.216,124.572 L244.216,122.952 Z M211.795,120.852 C211.562999,120.852 211.345001,120.905999 211.141,121.014 C210.936999,121.122001 210.759001,121.273999 210.607,121.47 C210.454999,121.666001 210.335,121.899999 210.247,122.172 C210.159,122.444001 210.115,122.747998 210.115,123.084 C210.115,123.788004 210.254999,124.335998 210.535,124.728 C210.815001,125.120002 211.210997,125.316 211.723,125.316 C211.995001,125.316 212.250999,125.250001 212.491,125.118 C212.731001,124.985999 212.970999,124.784001 213.211,124.512 L213.211,121.464 C212.962999,121.239999 212.725001,121.082 212.497,120.99 C212.268999,120.898 212.035001,120.852 211.795,120.852 Z M229.993,120.852 C229.760999,120.852 229.543001,120.905999 229.339,121.014 C229.134999,121.122001 228.957001,121.273999 228.805,121.47 C228.652999,121.666001 228.533,121.899999 228.445,122.172 C228.357,122.444001 228.313,122.747998 228.313,123.084 C228.313,123.788004 228.452999,124.335998 228.733,124.728 C229.013001,125.120002 229.408997,125.316 229.921,125.316 C230.193001,125.316 230.448999,125.250001 230.689,125.118 C230.929001,124.985999 231.168999,124.784001 231.409,124.512 L231.409,121.464 C231.160999,121.239999 230.923001,121.082 230.695,120.99 C230.466999,120.898 230.233001,120.852 229.993,120.852 Z M200.488,117.696 C200.680001,117.696 200.841999,117.753999 200.974,117.87 C201.106001,117.986001 201.172,118.139999 201.172,118.332 C201.172,118.516001 201.106001,118.667999 200.974,118.788 C200.841999,118.908001 200.680001,118.968 200.488,118.968 C200.295999,118.968 200.134001,118.908001 200.002,118.788 C199.869999,118.667999 199.804,118.516001 199.804,118.332 C199.804,118.139999 199.869999,117.986001 200.002,117.87 C200.134001,117.753999 200.295999,117.696 200.488,117.696 Z M225.2575,117.696 C225.449501,117.696 225.611499,117.753999 225.7435,117.87 C225.875501,117.986001 225.9415,118.139999 225.9415,118.332 C225.9415,118.516001 225.875501,118.667999 225.7435,118.788 C225.611499,118.908001 225.449501,118.968 225.2575,118.968 C225.065499,118.968 224.903501,118.908001 224.7715,118.788 C224.639499,118.667999 224.5735,118.516001 224.5735,118.332 C224.5735,118.139999 224.639499,117.986001 224.7715,117.87 C224.903501,117.753999 225.065499,117.696 225.2575,117.696 Z M216.6865,117.696 C216.878501,117.696 217.040499,117.753999 217.1725,117.87 C217.304501,117.986001 217.3705,118.139999 217.3705,118.332 C217.3705,118.516001 217.304501,118.667999 217.1725,118.788 C217.040499,118.908001 216.878501,118.968 216.6865,118.968 C216.494499,118.968 216.332501,118.908001 216.2005,118.788 C216.068499,118.667999 216.0025,118.516001 216.0025,118.332 C216.0025,118.139999 216.068499,117.986001 216.2005,117.87 C216.332501,117.753999 216.494499,117.696 216.6865,117.696 Z M218.383,103.984 L214.039,112.144 L213.367,112.144 L217.711,103.984 L218.383,103.984 Z M218.635,107.176 C219.171003,107.176 219.602998,107.389998 219.931,107.818 C220.259002,108.246002 220.423,108.855996 220.423,109.648 C220.423,110.448004 220.259002,111.063998 219.931,111.496 C219.602998,111.928002 219.171003,112.144 218.635,112.144 C218.090997,112.144 217.657002,111.928002 217.333,111.496 C217.008998,111.063998 216.847,110.448004 216.847,109.648 C216.847,108.855996 217.008998,108.246002 217.333,107.818 C217.657002,107.389998 218.090997,107.176 218.635,107.176 Z M236.521,106.024 C236.889002,106.024 237.218999,106.087999 237.511,106.216 C237.803001,106.344001 238.046999,106.527999 238.243,106.768 C238.439001,107.008001 238.588999,107.295998 238.693,107.632 C238.797001,107.968002 238.849,108.343998 238.849,108.76 C238.849,108.976001 238.837,109.155999 238.813,109.3 L234.877,109.3 C234.917,109.932003 235.110998,110.431998 235.459,110.8 C235.807002,111.168002 236.260997,111.352 236.821,111.352 C237.101001,111.352 237.358999,111.31 237.595,111.226 C237.831001,111.142 238.056999,111.032001 238.273,110.896 L238.621,111.544 C238.364999,111.704001 238.081002,111.843999 237.769,111.964 C237.456998,112.084001 237.101002,112.144 236.701,112.144 C236.308998,112.144 235.943002,112.074001 235.603,111.934 C235.262998,111.793999 234.967001,111.594001 234.715,111.334 C234.462999,111.073999 234.265001,110.756002 234.121,110.38 C233.976999,110.003998 233.905,109.576002 233.905,109.096 C233.905,108.615998 233.978999,108.186002 234.127,107.806 C234.275001,107.425998 234.470999,107.104001 234.715,106.84 C234.959001,106.575999 235.236998,106.374001 235.549,106.234 C235.861002,106.093999 236.184998,106.024 236.521,106.024 Z M226.51,106.024 C227.222004,106.024 227.737998,106.241998 228.058,106.678 C228.378002,107.114002 228.538,107.695996 228.538,108.424 L228.538,112 L227.722,112 L227.638,111.304 L227.614,111.304 C227.333999,111.536001 227.032002,111.733999 226.708,111.898 C226.383998,112.062001 226.042002,112.144 225.682,112.144 C225.185998,112.144 224.776002,112.000001 224.452,111.712 C224.127998,111.423999 223.966,111.016003 223.966,110.488 C223.966,109.847997 224.251997,109.358002 224.824,109.018 C225.396003,108.677998 226.305994,108.440001 227.554,108.304 C227.554,108.119999 227.536,107.940001 227.5,107.764 C227.464,107.587999 227.4,107.432001 227.308,107.296 C227.216,107.159999 227.094001,107.05 226.942,106.966 C226.789999,106.882 226.594001,106.84 226.354,106.84 C226.009998,106.84 225.692001,106.903999 225.4,107.032 C225.107999,107.160001 224.846001,107.303999 224.614,107.464 L224.218,106.78 C224.490001,106.603999 224.821998,106.434001 225.214,106.27 C225.606002,106.105999 226.037998,106.024 226.51,106.024 Z M204.46,104.344 L204.46,104.956 C204.003998,105.532003 203.634001,106.083997 203.35,106.612 C203.065999,107.140003 202.840001,107.677997 202.672,108.226 C202.503999,108.774003 202.382,109.353997 202.306,109.966 C202.23,110.578003 202.176,111.255996 202.144,112 L201.124,112 C201.156,111.279996 201.22,110.620003 201.316,110.02 C201.412,109.419997 201.545999,108.850003 201.718,108.31 C201.890001,107.769997 202.109999,107.248003 202.378,106.744 C202.646001,106.239997 202.967998,105.724003 203.344,105.196 L199.528,105.196 L199.528,104.344 L204.46,104.344 Z M209.5555,104.344 L209.5555,109.096 L210.5995,109.096 L210.5995,109.888 L209.5555,109.888 L209.5555,112 L208.6195,112 L208.6195,109.888 L205.1755,109.888 L205.1755,109.24 L208.4515,104.344 L209.5555,104.344 Z M232.9975,106.024 C233.229501,106.024 233.437499,106.064 233.6215,106.144 L233.4295,107.008 C233.3335,106.976 233.2455,106.952 233.1655,106.936 C233.0855,106.92 232.985501,106.912 232.8655,106.912 C232.617499,106.912 232.359501,107.011999 232.0915,107.212 C231.823499,107.412001 231.589501,107.759998 231.3895,108.256 L231.3895,112 L230.4055,112 L230.4055,106.168 L231.2215,106.168 L231.3055,107.224 L231.3415,107.224 C231.541501,106.855998 231.783499,106.564001 232.0675,106.348 C232.351501,106.131999 232.661498,106.024 232.9975,106.024 Z M218.635,107.788 C218.322998,107.788 218.071001,107.941998 217.879,108.25 C217.686999,108.558002 217.591,109.023997 217.591,109.648 C217.591,110.272003 217.686999,110.741998 217.879,111.058 C218.071001,111.374002 218.322998,111.532 218.635,111.532 C218.939002,111.532 219.186999,111.374002 219.379,111.058 C219.571001,110.741998 219.667,110.272003 219.667,109.648 C219.667,109.023997 219.571001,108.558002 219.379,108.25 C219.186999,107.941998 218.939002,107.788 218.635,107.788 Z M227.554,108.952 C227.065998,109.016 226.654002,109.092 226.318,109.18 C225.981998,109.268 225.712001,109.371999 225.508,109.492 C225.303999,109.612001 225.158,109.749999 225.07,109.906 C224.982,110.062001 224.938,110.231999 224.938,110.416 C224.938,110.752002 225.035999,110.991999 225.232,111.136 C225.428001,111.280001 225.669999,111.352 225.958,111.352 C226.238001,111.352 226.503999,111.286001 226.756,111.154 C227.008001,111.021999 227.273999,110.828001 227.554,110.572 L227.554,108.952 Z M208.6795,105.4 L208.6315,105.4 C208.5355,105.584001 208.435501,105.763999 208.3315,105.94 L208.0075,106.48 L206.2195,109.096 L208.6195,109.096 L208.6195,106.876 C208.6195,106.719999 208.622875,106.542625 208.629625,106.343875 L208.657,105.7405 C208.664,105.6175 208.6715,105.504001 208.6795,105.4 Z M213.151,103.984 C213.687003,103.984 214.118998,104.197998 214.447,104.626 C214.775002,105.054002 214.939,105.663996 214.939,106.456 C214.939,107.256004 214.775002,107.871998 214.447,108.304 C214.118998,108.736002 213.687003,108.952 213.151,108.952 C212.606997,108.952 212.173002,108.736002 211.849,108.304 C211.524998,107.871998 211.363,107.256004 211.363,106.456 C211.363,105.663996 211.524998,105.054002 211.849,104.626 C212.173002,104.197998 212.606997,103.984 213.151,103.984 Z M236.545,106.804 C236.336999,106.804 236.139001,106.846 235.951,106.93 C235.762999,107.014 235.593001,107.133999 235.441,107.29 C235.288999,107.446001 235.163,107.637999 235.063,107.866 C234.962999,108.094001 234.897,108.355999 234.865,108.652 L234.865,108.652 L237.985,108.652 C237.985,108.051997 237.859001,107.594002 237.607,107.278 C237.354999,106.961998 237.001002,106.804 236.545,106.804 Z M213.151,104.596 C212.838998,104.596 212.587001,104.749998 212.395,105.058 C212.202999,105.366002 212.107,105.831997 212.107,106.456 C212.107,107.080003 212.202999,107.549998 212.395,107.866 C212.587001,108.182002 212.838998,108.34 213.151,108.34 C213.455002,108.34 213.702999,108.182002 213.895,107.866 C214.087001,107.549998 214.183,107.080003 214.183,106.456 C214.183,105.831997 214.087001,105.366002 213.895,105.058 C213.702999,104.749998 213.455002,104.596 213.151,104.596 Z M247.675,70.024 C248.043002,70.024 248.380998,70.0879994 248.689,70.216 C248.997002,70.3440006 249.262999,70.4999991 249.487,70.684 L249.019,71.308 C248.818999,71.1559992 248.611001,71.0320005 248.395,70.936 C248.178999,70.8399995 247.943001,70.792 247.687,70.792 C247.318998,70.792 247.049001,70.8759992 246.877,71.044 C246.704999,71.2120008 246.619,71.4079989 246.619,71.632 C246.619,71.7680007 246.655,71.8859995 246.727,71.986 C246.799,72.0860005 246.894999,72.1739996 247.015,72.25 C247.135001,72.3260004 247.272999,72.3939997 247.429,72.454 L247.915,72.64 C248.123001,72.7200004 248.332999,72.8039996 248.545,72.892 C248.757001,72.9800004 248.946999,73.0899993 249.115,73.222 C249.283001,73.3540007 249.420999,73.515999 249.529,73.708 C249.637001,73.900001 249.691,74.1319986 249.691,74.404 C249.691,74.6440012 249.645,74.867999 249.553,75.076 C249.461,75.284001 249.325001,75.4679992 249.145,75.628 C248.964999,75.7880008 248.741001,75.9139995 248.473,76.006 C248.204999,76.0980005 247.899002,76.144 247.555,76.144 C247.138998,76.144 246.743002,76.0680008 246.367,75.916 C245.990998,75.7639992 245.663001,75.5720012 245.383,75.34 L245.875,74.68 C246.131001,74.888001 246.392999,75.0559994 246.661,75.184 C246.929001,75.3120006 247.238998,75.376 247.591,75.376 C247.975002,75.376 248.262999,75.2880009 248.455,75.112 C248.647001,74.9359991 248.743,74.7200013 248.743,74.464 C248.743,74.3119992 248.703,74.1800006 248.623,74.068 C248.543,73.9559994 248.441001,73.8580004 248.317,73.774 C248.192999,73.6899996 248.051001,73.6160003 247.891,73.552 L247.411,73.36 C247.202999,73.2879996 246.995001,73.2060005 246.787,73.114 C246.578999,73.0219995 246.393001,72.9100007 246.229,72.778 C246.064999,72.6459993 245.931001,72.4920009 245.827,72.316 C245.722999,72.1399991 245.671,71.9280012 245.671,71.68 C245.671,71.4479988 245.717,71.230001 245.809,71.026 C245.901,70.821999 246.032999,70.6460007 246.205,70.498 C246.377001,70.3499993 246.586999,70.2340004 246.835,70.15 C247.083001,70.0659996 247.362998,70.024 247.675,70.024 Z M242.2555,70.024 C242.623502,70.024 242.953499,70.0879994 243.2455,70.216 C243.537501,70.3440006 243.781499,70.5279988 243.9775,70.768 C244.173501,71.0080012 244.323499,71.2959983 244.4275,71.632 C244.531501,71.9680017 244.5835,72.3439979 244.5835,72.76 C244.5835,72.9760011 244.5715,73.1559993 244.5475,73.3 L240.6115,73.3 C240.6515,73.9320032 240.845498,74.4319982 241.1935,74.8 C241.541502,75.1680018 241.995497,75.352 242.5555,75.352 C242.835501,75.352 243.093499,75.3100004 243.3295,75.226 C243.565501,75.1419996 243.791499,75.0320007 244.0075,74.896 L244.3555,75.544 C244.099499,75.7040008 243.815502,75.8439994 243.5035,75.964 C243.191498,76.0840006 242.835502,76.144 242.4355,76.144 C242.043498,76.144 241.677502,76.0740007 241.3375,75.934 C240.997498,75.7939993 240.701501,75.5940013 240.4495,75.334 C240.197499,75.0739987 239.999501,74.7560019 239.8555,74.38 C239.711499,74.0039981 239.6395,73.5760024 239.6395,73.096 C239.6395,72.6159976 239.713499,72.1860019 239.8615,71.806 C240.009501,71.4259981 240.205499,71.1040013 240.4495,70.84 C240.693501,70.5759987 240.971498,70.3740007 241.2835,70.234 C241.595502,70.0939993 241.919498,70.024 242.2555,70.024 Z M217.234,70.024 C217.946004,70.024 218.461998,70.2419978 218.782,70.678 C219.102002,71.1140022 219.262,71.6959964 219.262,72.424 L219.262,76 L218.446,76 L218.362,75.304 L218.338,75.304 C218.057999,75.5360012 217.756002,75.7339992 217.432,75.898 C217.107998,76.0620008 216.766002,76.144 216.406,76.144 C215.909998,76.144 215.500002,76.0000014 215.176,75.712 C214.851998,75.4239986 214.69,75.0160026 214.69,74.488 C214.69,73.8479968 214.975997,73.3580017 215.548,73.018 C216.120003,72.6779983 217.029994,72.4400007 218.278,72.304 C218.278,72.1199991 218.26,71.9400009 218.224,71.764 C218.188,71.5879991 218.124,71.4320007 218.032,71.296 C217.94,71.1599993 217.818001,71.0500004 217.666,70.966 C217.513999,70.8819996 217.318001,70.84 217.078,70.84 C216.733998,70.84 216.416001,70.9039994 216.124,71.032 C215.831999,71.1600006 215.570001,71.3039992 215.338,71.464 L214.942,70.78 C215.214001,70.6039991 215.545998,70.4340008 215.938,70.27 C216.330002,70.1059992 216.761998,70.024 217.234,70.024 Z M235.0285,67.456 L235.0285,74.896 C235.0285,75.0560008 235.0565,75.1679997 235.1125,75.232 C235.1685,75.2960003 235.2325,75.328 235.3045,75.328 L235.3945,75.328 C235.4225,75.328 235.4645,75.3200001 235.5205,75.304 L235.6525,76.048 C235.5885,76.0800002 235.5125,76.1039999 235.4245,76.12 C235.3365,76.1360001 235.224501,76.144 235.0885,76.144 C234.712498,76.144 234.444501,76.0320011 234.2845,75.808 C234.124499,75.5839989 234.0445,75.2560022 234.0445,74.824 L234.0445,67.456 L235.0285,67.456 Z M238.096,70.168 L238.096,76 L237.112,76 L237.112,70.168 L238.096,70.168 Z M200.968,70.168 L200.968,76 L199.984,76 L199.984,70.168 L200.968,70.168 Z M232.069,70.168 L232.069,76 L231.085,76 L231.085,70.168 L232.069,70.168 Z M213.8185,67.312 C214.002501,67.312 214.176499,67.3299998 214.3405,67.366 C214.504501,67.4020002 214.654499,67.4479997 214.7905,67.504 L214.5745,68.26 C214.358499,68.1639995 214.138501,68.116 213.9145,68.116 C213.370497,68.116 213.0985,68.4919962 213.0985,69.244 L213.0985,70.168 L214.3345,70.168 L214.3345,70.972 L213.0985,70.972 L213.0985,76 L212.1145,76 L212.1145,70.972 L211.3225,70.972 L211.3225,70.228 L212.1145,70.168 L212.1145,69.244 C212.1145,68.643997 212.252499,68.1720017 212.5285,67.828 C212.804501,67.4839983 213.234497,67.312 213.8185,67.312 Z M205.8355,70.024 C206.451503,70.024 206.901499,70.2159981 207.1855,70.6 C207.469501,70.9840019 207.6115,71.5519962 207.6115,72.304 L207.6115,76 L206.6275,76 L206.6275,72.436 C206.6275,71.8839972 206.539501,71.4860012 206.3635,71.242 C206.187499,70.9979988 205.907502,70.876 205.5235,70.876 C205.219498,70.876 204.951501,70.9519992 204.7195,71.104 C204.487499,71.2560008 204.223501,71.4799985 203.9275,71.776 L203.9275,76 L202.9435,76 L202.9435,70.168 L203.7595,70.168 L203.8435,71.008 L203.8795,71.008 C204.159501,70.7279986 204.453498,70.4940009 204.7615,70.306 C205.069502,70.1179991 205.427498,70.024 205.8355,70.024 Z M227.4055,70.024 C228.005503,70.024 228.451499,70.2159981 228.7435,70.6 C229.035501,70.9840019 229.1815,71.5519962 229.1815,72.304 L229.1815,76 L228.1975,76 L228.1975,72.436 C228.1975,71.8839972 228.109501,71.4860012 227.9335,71.242 C227.757499,70.9979988 227.485502,70.876 227.1175,70.876 C226.677498,70.876 226.189503,71.175997 225.6535,71.776 L225.6535,76 L224.6695,76 L224.6695,72.436 C224.6695,71.8839972 224.581501,71.4860012 224.4055,71.242 C224.229499,70.9979988 223.953502,70.876 223.5775,70.876 C223.137498,70.876 222.649503,71.175997 222.1135,71.776 L222.1135,76 L221.1295,76 L221.1295,70.168 L221.9455,70.168 L222.0295,71.008 L222.0655,71.008 C222.321501,70.7279986 222.599498,70.4940009 222.8995,70.306 C223.199501,70.1179991 223.525498,70.024 223.8775,70.024 C224.325502,70.024 224.675499,70.121999 224.9275,70.318 C225.179501,70.514001 225.365499,70.7879982 225.4855,71.14 C225.789502,70.8039983 226.095498,70.534001 226.4035,70.33 C226.711502,70.125999 227.045498,70.024 227.4055,70.024 Z M218.278,72.952 C217.789998,73.0160003 217.378002,73.0919996 217.042,73.18 C216.705998,73.2680004 216.436001,73.3719994 216.232,73.492 C216.027999,73.6120006 215.882,73.7499992 215.794,73.906 C215.706,74.0620008 215.662,74.2319991 215.662,74.416 C215.662,74.7520017 215.759999,74.9919993 215.956,75.136 C216.152001,75.2800007 216.393999,75.352 216.682,75.352 C216.962001,75.352 217.227999,75.2860007 217.48,75.154 C217.732001,75.0219993 217.997999,74.8280013 218.278,74.572 L218.278,72.952 Z M242.2795,70.804 C242.071499,70.804 241.873501,70.8459996 241.6855,70.93 C241.497499,71.0140004 241.327501,71.1339992 241.1755,71.29 C241.023499,71.4460008 240.8975,71.6379989 240.7975,71.866 C240.697499,72.0940011 240.6315,72.3559985 240.5995,72.652 L243.7195,72.652 C243.7195,72.051997 243.593501,71.5940016 243.3415,71.278 C243.089499,70.9619984 242.735502,70.804 242.2795,70.804 Z M200.488,67.696 C200.680001,67.696 200.841999,67.7539994 200.974,67.87 C201.106001,67.9860006 201.172,68.139999 201.172,68.332 C201.172,68.5160009 201.106001,68.6679994 200.974,68.788 C200.841999,68.9080006 200.680001,68.968 200.488,68.968 C200.295999,68.968 200.134001,68.9080006 200.002,68.788 C199.869999,68.6679994 199.804,68.5160009 199.804,68.332 C199.804,68.139999 199.869999,67.9860006 200.002,67.87 C200.134001,67.7539994 200.295999,67.696 200.488,67.696 Z M231.589,67.696 C231.781001,67.696 231.942999,67.7539994 232.075,67.87 C232.207001,67.9860006 232.273,68.139999 232.273,68.332 C232.273,68.5160009 232.207001,68.6679994 232.075,68.788 C231.942999,68.9080006 231.781001,68.968 231.589,68.968 C231.396999,68.968 231.235001,68.9080006 231.103,68.788 C230.970999,68.6679994 230.905,68.5160009 230.905,68.332 C230.905,68.139999 230.970999,67.9860006 231.103,67.87 C231.235001,67.7539994 231.396999,67.696 231.589,67.696 Z M237.616,67.696 C237.808001,67.696 237.969999,67.7539994 238.102,67.87 C238.234001,67.9860006 238.3,68.139999 238.3,68.332 C238.3,68.5160009 238.234001,68.6679994 238.102,68.788 C237.969999,68.9080006 237.808001,68.968 237.616,68.968 C237.423999,68.968 237.262001,68.9080006 237.13,68.788 C236.997999,68.6679994 236.932,68.5160009 236.932,68.332 C236.932,68.139999 236.997999,67.9860006 237.13,67.87 C237.262001,67.7539994 237.423999,67.696 237.616,67.696 Z M218.635,57.176 C219.171003,57.176 219.602998,57.3899979 219.931,57.818 C220.259002,58.2460021 220.423,58.855996 220.423,59.648 C220.423,60.448004 220.259002,61.0639978 219.931,61.496 C219.602998,61.9280022 219.171003,62.144 218.635,62.144 C218.090997,62.144 217.657002,61.9280022 217.333,61.496 C217.008998,61.0639978 216.847,60.448004 216.847,59.648 C216.847,58.855996 217.008998,58.2460021 217.333,57.818 C217.657002,57.3899979 218.090997,57.176 218.635,57.176 Z M236.521,56.024 C236.889002,56.024 237.218999,56.0879994 237.511,56.216 C237.803001,56.3440006 238.046999,56.5279988 238.243,56.768 C238.439001,57.0080012 238.588999,57.2959983 238.693,57.632 C238.797001,57.9680017 238.849,58.3439979 238.849,58.76 C238.849,58.9760011 238.837,59.1559993 238.813,59.3 L234.877,59.3 C234.917,59.9320032 235.110998,60.4319982 235.459,60.8 C235.807002,61.1680018 236.260997,61.352 236.821,61.352 C237.101001,61.352 237.358999,61.3100004 237.595,61.226 C237.831001,61.1419996 238.056999,61.0320007 238.273,60.896 L238.621,61.544 C238.364999,61.7040008 238.081002,61.8439994 237.769,61.964 C237.456998,62.0840006 237.101002,62.144 236.701,62.144 C236.308998,62.144 235.943002,62.0740007 235.603,61.934 C235.262998,61.7939993 234.967001,61.5940013 234.715,61.334 C234.462999,61.0739987 234.265001,60.7560019 234.121,60.38 C233.976999,60.0039981 233.905,59.5760024 233.905,59.096 C233.905,58.6159976 233.978999,58.1860019 234.127,57.806 C234.275001,57.4259981 234.470999,57.1040013 234.715,56.84 C234.959001,56.5759987 235.236998,56.3740007 235.549,56.234 C235.861002,56.0939993 236.184998,56.024 236.521,56.024 Z M226.51,56.024 C227.222004,56.024 227.737998,56.2419978 228.058,56.678 C228.378002,57.1140022 228.538,57.6959964 228.538,58.424 L228.538,62 L227.722,62 L227.638,61.304 L227.614,61.304 C227.333999,61.5360012 227.032002,61.7339992 226.708,61.898 C226.383998,62.0620008 226.042002,62.144 225.682,62.144 C225.185998,62.144 224.776002,62.0000014 224.452,61.712 C224.127998,61.4239986 223.966,61.0160026 223.966,60.488 C223.966,59.8479968 224.251997,59.3580017 224.824,59.018 C225.396003,58.6779983 226.305994,58.4400007 227.554,58.304 C227.554,58.1199991 227.536,57.9400009 227.5,57.764 C227.464,57.5879991 227.4,57.4320007 227.308,57.296 C227.216,57.1599993 227.094001,57.0500004 226.942,56.966 C226.789999,56.8819996 226.594001,56.84 226.354,56.84 C226.009998,56.84 225.692001,56.9039994 225.4,57.032 C225.107999,57.1600006 224.846001,57.3039992 224.614,57.464 L224.218,56.78 C224.490001,56.6039991 224.821998,56.4340008 225.214,56.27 C225.606002,56.1059992 226.037998,56.024 226.51,56.024 Z M218.383,53.984 L214.039,62.144 L213.367,62.144 L217.711,53.984 L218.383,53.984 Z M208.4635,54.2 C208.879502,54.2 209.237498,54.2779992 209.5375,54.434 C209.837501,54.5900008 210.095499,54.7839988 210.3115,55.016 L209.7595,55.628 C209.599499,55.4439991 209.409501,55.2980005 209.1895,55.19 C208.969499,55.0819995 208.739501,55.028 208.4995,55.028 C208.235499,55.028 207.983501,55.0839994 207.7435,55.196 C207.503499,55.3080006 207.291501,55.4919987 207.1075,55.748 C206.923499,56.0040013 206.775501,56.3379979 206.6635,56.75 C206.551499,57.1620021 206.4915,57.671997 206.4835,58.28 C206.723501,57.9839985 207.003498,57.7500009 207.3235,57.578 C207.643502,57.4059991 207.959498,57.32 208.2715,57.32 C208.935503,57.32 209.465498,57.515998 209.8615,57.908 C210.257502,58.300002 210.4555,58.891996 210.4555,59.684 C210.4555,60.0520018 210.395501,60.3859985 210.2755,60.686 C210.155499,60.9860015 209.991501,61.2439989 209.7835,61.46 C209.575499,61.6760011 209.335501,61.8439994 209.0635,61.964 C208.791499,62.0840006 208.499502,62.144 208.1875,62.144 C207.811498,62.144 207.463502,62.0680008 207.1435,61.916 C206.823498,61.7639992 206.545501,61.5340015 206.3095,61.226 C206.073499,60.9179985 205.887501,60.5340023 205.7515,60.074 C205.615499,59.6139977 205.5475,59.0760031 205.5475,58.46 C205.5475,57.6919962 205.627499,57.0380027 205.7875,56.498 C205.947501,55.9579973 206.163499,55.5180017 206.4355,55.178 C206.707501,54.8379983 207.017498,54.5900008 207.3655,54.434 C207.713502,54.2779992 208.079498,54.2 208.4635,54.2 Z M201.748,54.2 C202.460004,54.2 203.019998,54.4059979 203.428,54.818 C203.836002,55.2300021 204.04,55.7759966 204.04,56.456 C204.04,56.8160018 203.962001,57.1779982 203.806,57.542 C203.649999,57.9060018 203.434001,58.2819981 203.158,58.67 C202.881999,59.0580019 202.554002,59.4619979 202.174,59.882 L201.5755,60.5314999 C201.366501,60.7544993 201.148001,60.9839988 200.92,61.22 L201.568,61.172 C201.792001,61.1559999 202.003999,61.148 202.204,61.148 L204.424,61.148 L204.424,62 L199.48,62 L199.48,61.412 L200.44768,60.4356802 C200.647359,60.2321607 200.836799,60.0376009 201.016,59.852 C201.464002,59.3879977 201.839998,58.958002 202.144,58.562 C202.448002,58.165998 202.679999,57.8020017 202.84,57.47 C203.000001,57.1379983 203.08,56.8160016 203.08,56.504 C203.08,56.0639978 202.960001,55.7040014 202.72,55.424 C202.479999,55.1439986 202.116002,55.004 201.628,55.004 C201.307998,55.004 201.012001,55.0939991 200.74,55.274 C200.467999,55.4540009 200.220001,55.6719987 199.996,55.928 L199.432,55.364 C199.752002,55.0119982 200.091998,54.7300011 200.452,54.518 C200.812002,54.3059989 201.243997,54.2 201.748,54.2 Z M232.9975,56.024 C233.229501,56.024 233.437499,56.0639996 233.6215,56.144 L233.4295,57.008 C233.3335,56.9759998 233.2455,56.9520001 233.1655,56.936 C233.0855,56.9199999 232.985501,56.912 232.8655,56.912 C232.617499,56.912 232.359501,57.011999 232.0915,57.212 C231.823499,57.412001 231.589501,57.7599975 231.3895,58.256 L231.3895,62 L230.4055,62 L230.4055,56.168 L231.2215,56.168 L231.3055,57.224 L231.3415,57.224 C231.541501,56.8559982 231.783499,56.5640011 232.0675,56.348 C232.351501,56.1319989 232.661498,56.024 232.9975,56.024 Z M218.635,57.788 C218.322998,57.788 218.071001,57.9419985 217.879,58.25 C217.686999,58.5580015 217.591,59.0239969 217.591,59.648 C217.591,60.2720031 217.686999,60.7419984 217.879,61.058 C218.071001,61.3740016 218.322998,61.532 218.635,61.532 C218.939002,61.532 219.186999,61.3740016 219.379,61.058 C219.571001,60.7419984 219.667,60.2720031 219.667,59.648 C219.667,59.0239969 219.571001,58.5580015 219.379,58.25 C219.186999,57.9419985 218.939002,57.788 218.635,57.788 Z M208.1035,58.064 C207.863499,58.064 207.601501,58.1419992 207.3175,58.298 C207.033499,58.4540008 206.763501,58.7119982 206.5075,59.072 C206.5715,59.8240038 206.745499,60.3939981 207.0295,60.782 C207.313501,61.1700019 207.699498,61.364 208.1875,61.364 C208.379501,61.364 208.555499,61.3240004 208.7155,61.244 C208.875501,61.1639996 209.015499,61.0500007 209.1355,60.902 C209.255501,60.7539993 209.3495,60.578001 209.4175,60.374 C209.4855,60.169999 209.5195,59.9400013 209.5195,59.684 C209.5195,59.1799975 209.403501,58.7840014 209.1715,58.496 C208.939499,58.2079986 208.583502,58.064 208.1035,58.064 Z M227.554,58.952 C227.065998,59.0160003 226.654002,59.0919996 226.318,59.18 C225.981998,59.2680004 225.712001,59.3719994 225.508,59.492 C225.303999,59.6120006 225.158,59.7499992 225.07,59.906 C224.982,60.0620008 224.938,60.2319991 224.938,60.416 C224.938,60.7520017 225.035999,60.9919993 225.232,61.136 C225.428001,61.2800007 225.669999,61.352 225.958,61.352 C226.238001,61.352 226.503999,61.2860007 226.756,61.154 C227.008001,61.0219993 227.273999,60.8280013 227.554,60.572 L227.554,58.952 Z M213.151,53.984 C213.687003,53.984 214.118998,54.1979979 214.447,54.626 C214.775002,55.0540021 214.939,55.663996 214.939,56.456 C214.939,57.256004 214.775002,57.8719978 214.447,58.304 C214.118998,58.7360022 213.687003,58.952 213.151,58.952 C212.606997,58.952 212.173002,58.7360022 211.849,58.304 C211.524998,57.8719978 211.363,57.256004 211.363,56.456 C211.363,55.663996 211.524998,55.0540021 211.849,54.626 C212.173002,54.1979979 212.606997,53.984 213.151,53.984 Z M236.545,56.804 C236.336999,56.804 236.139001,56.8459996 235.951,56.93 C235.762999,57.0140004 235.593001,57.1339992 235.441,57.29 C235.288999,57.4460008 235.163,57.6379989 235.063,57.866 C234.962999,58.0940011 234.897,58.3559985 234.865,58.652 L234.865,58.652 L237.985,58.652 C237.985,58.051997 237.859001,57.5940016 237.607,57.278 C237.354999,56.9619984 237.001002,56.804 236.545,56.804 Z M213.151,54.596 C212.838998,54.596 212.587001,54.7499985 212.395,55.058 C212.202999,55.3660015 212.107,55.8319969 212.107,56.456 C212.107,57.0800031 212.202999,57.5499984 212.395,57.866 C212.587001,58.1820016 212.838998,58.34 213.151,58.34 C213.455002,58.34 213.702999,58.1820016 213.895,57.866 C214.087001,57.5499984 214.183,57.0800031 214.183,56.456 C214.183,55.8319969 214.087001,55.3660015 213.895,55.058 C213.702999,54.7499985 213.455002,54.596 213.151,54.596 Z" id="Combined-Shape" fill="#3F3F3F" fill-rule="nonzero"></path>
                <path d="M178,69 C178,80.5983703 168.597452,90 157.000375,90 C145.401798,90 136,80.5983703 136,69 C136,57.4031307 145.401798,48 157.000375,48 C168.597452,48 178,57.4031307 178,69" id="Fill-1" fill="#4D4D8C"></path>
                <path d="M177.499127,91 L163.607909,91 L149.384612,91 L135.493393,91 C129.771764,91 125.089003,95.8119 125,101.727089 C130.647585,104.765632 134.512115,110.850212 134.512115,117.849203 C134.512115,117.849203 135.162062,162.190637 135.493393,162.190637 L135.493393,210.10352 C135.493393,216.096659 140.218786,221 145.993518,221 C151.769746,221 156.495886,216.096659 156.495886,210.10352 C156.495886,216.096659 161.222027,221 166.996759,221 C172.772987,221 177.499127,216.096659 177.499127,210.10352 L177.499127,162.190637 C183.274607,162.190637 188,157.287296 188,151.295656 L188,101.894981 C188,95.9040906 183.274607,91 177.499127,91" id="Fill-3" fill="#4D4D8C"></path>
                <path d="M59,69 C59,80.5983703 49.5976198,90 38,90 C26.4023802,90 17,80.5983703 17,69 C17,57.4031307 26.4023802,48 38,48 C49.5976198,48 59,57.4031307 59,69" id="Fill-5" fill="#4D4D8C"></path>
                <path d="M58.5915193,117.849203 C58.5915193,109.618006 61.6861957,102.651993 69,100.416933 C68.2973114,95.1185967 63.8923981,91 58.5915193,91 L44.6778363,91 L30.4315374,91 L16.5171052,91 C10.7322853,91 6,95.9040906 6,101.894981 L6,151.295656 C6,157.287296 10.7322853,162.190637 16.5171052,162.190637 L16.5171052,210.10352 C16.5171052,216.096659 21.251638,221 27.0357088,221 C32.8212778,221 37.5543123,216.096659 37.5543123,210.10352 C37.5543123,216.096659 42.2880959,221 48.0729158,221 C53.8577357,221 58.5915193,216.096659 58.5915193,210.10352 L58.5915193,190.164865 L58.5915193,117.849203 Z" id="Fill-7" fill="#4D4D8C"></path>
                <path d="M122.500374,56 L104.642625,56 L86.3573746,56 L68.4996257,56 C61.074869,56 55,62.297841 55,69.9962019 L55,133.456697 C55,141.153558 61.074869,147.452149 68.4996257,147.452149 L68.4996257,209.003048 C68.4996257,216.702159 74.5744946,223 81.9992513,223 C89.4255054,223 95.5003743,216.702159 95.5003743,209.003048 C95.5003743,216.702159 101.575243,223 109.000749,223 C116.425505,223 122.500374,216.702159 122.500374,209.003048 L122.500374,147.452149 C129.925131,147.452149 136,141.153558 136,133.456697 L136,69.9962019 C136,62.297841 129.925131,56 122.500374,56" id="Fill-9" fill="#4D4D8C"></path>
                <g id="Group-13" transform="translate(68.000000, 0.000000)" fill="#4D4D8C">
                    <path d="M54.169575,27.197325 C54.169575,42.081825 42.102825,54.147825 27.218325,54.147825 C12.334575,54.147825 0.268575,42.081825 0.268575,27.197325 C0.268575,12.312825 12.334575,0.245325 27.218325,0.245325 C42.102825,0.245325 54.169575,12.312825 54.169575,27.197325" id="Fill-11"></path>
                </g>
                <g id="Group-34" transform="translate(0.000000, 75.000000)">
                    <g id="Group-18">
                        <mask id="mask-2" fill="white">
                            <use xlink:href="#path-1"></use>
                        </mask>
                        <g id="Clip-17"></g>
                        <path d="M177.623325,-5.9748 C177.623325,5.61495 168.227325,15.0102 156.638325,15.0102 C145.047825,15.0102 135.652575,5.61495 135.652575,-5.9748 C135.652575,-17.5638 145.047825,-26.96055 156.638325,-26.96055 C168.227325,-26.96055 177.623325,-17.5638 177.623325,-5.9748" id="Fill-16" fill="#7777AA" mask="url(#mask-2)"></path>
                    </g>
                    <g id="Group-21">
                        <mask id="mask-4" fill="white">
                            <use xlink:href="#path-3"></use>
                        </mask>
                        <g id="Clip-20"></g>
                        <path d="M177.69945,16.247625 L163.7697,16.247625 L149.50695,16.247625 L135.5772,16.247625 C129.8397,16.247625 125.14395,21.062625 125.0547,26.980875 C130.71795,30.021375 134.5932,36.109875 134.5932,43.113375 C134.5932,43.113375 135.24495,87.483375 135.5772,87.483375 L135.5772,135.427875 C135.5772,141.424875 140.3157,146.331375 146.10645,146.331375 C151.8987,146.331375 156.63795,141.424875 156.63795,135.427875 C156.63795,141.424875 161.3772,146.331375 167.16795,146.331375 C172.9602,146.331375 177.69945,141.424875 177.69945,135.427875 L177.69945,87.483375 C183.49095,87.483375 188.22945,82.576875 188.22945,76.582125 L188.22945,27.149625 C188.22945,21.154125 183.49095,16.247625 177.69945,16.247625" id="Fill-19" fill="#7777AA" mask="url(#mask-4)"></path>
                    </g>
                    <g id="Group-24">
                        <mask id="mask-6" fill="white">
                            <use xlink:href="#path-5"></use>
                        </mask>
                        <g id="Clip-23"></g>
                        <path d="M58.52745,-5.9748 C58.52745,5.61495 49.13145,15.0102 37.5417,15.0102 C25.95195,15.0102 16.55595,5.61495 16.55595,-5.9748 C16.55595,-17.5638 25.95195,-26.96055 37.5417,-26.96055 C49.13145,-26.96055 58.52745,-17.5638 58.52745,-5.9748" id="Fill-22" fill="#7777AA" mask="url(#mask-6)"></path>
                    </g>
                    <g id="Group-27">
                        <mask id="mask-8" fill="white">
                            <use xlink:href="#path-7"></use>
                        </mask>
                        <g id="Clip-26"></g>
                        <path d="M58.6029,43.113525 C58.6029,34.877775 61.70115,27.907275 69.0234,25.670775 C68.3199,20.369025 63.9099,16.247775 58.6029,16.247775 L44.67315,16.247775 L30.4104,16.247775 L16.4799,16.247775 C10.6884,16.247775 5.95065,21.154275 5.95065,27.149775 L5.95065,76.582275 C5.95065,82.577025 10.6884,87.483525 16.4799,87.483525 L16.4799,135.428025 C16.4799,141.425025 21.2199,146.331525 27.01065,146.331525 C32.8029,146.331525 37.5414,141.425025 37.5414,135.428025 C37.5414,141.425025 42.28065,146.331525 48.07215,146.331525 C53.86365,146.331525 58.6029,141.425025 58.6029,135.428025 L58.6029,115.476525 L58.6029,43.113525 Z" id="Fill-25" fill="#7777AA" mask="url(#mask-8)"></path>
                    </g>
                    <g id="Group-30">
                        <mask id="mask-10" fill="white">
                            <use xlink:href="#path-9"></use>
                        </mask>
                        <g id="Clip-29"></g>
                        <path d="M122.51625,-18.904275 L104.62725,-18.904275 L86.31,-18.904275 L68.421,-18.904275 C60.98325,-18.904275 54.89775,-12.604275 54.89775,-4.904025 L54.89775,58.578975 C54.89775,66.278475 60.98325,72.579225 68.421,72.579225 L68.421,134.150475 C68.421,141.852975 74.5065,148.152975 81.94425,148.152975 C89.3835,148.152975 95.469,141.852975 95.469,134.150475 C95.469,141.852975 101.5545,148.152975 108.993,148.152975 C116.43075,148.152975 122.51625,141.852975 122.51625,134.150475 L122.51625,72.579225 C129.954,72.579225 136.0395,66.278475 136.0395,58.578975 L136.0395,-4.904025 C136.0395,-12.604275 129.954,-18.904275 122.51625,-18.904275" id="Fill-28" fill="#7777AA" mask="url(#mask-10)"></path>
                    </g>
                    <g id="Group-33">
                        <mask id="mask-12" fill="white">
                            <use xlink:href="#path-11"></use>
                        </mask>
                        <g id="Clip-32"></g>
                        <path d="M122.419575,-47.5617 C122.419575,-32.67795 110.352825,-20.61195 95.468325,-20.61195 C80.584575,-20.61195 68.518575,-32.67795 68.518575,-47.5617 C68.518575,-62.4462 80.584575,-74.5137 95.468325,-74.5137 C110.352825,-74.5137 122.419575,-62.4462 122.419575,-47.5617" id="Fill-31" fill="#BF56B8" mask="url(#mask-12)"></path>
                    </g>
                </g>
                <g id="Group-41" transform="translate(6.000000, 74.000000)" stroke="#FFFFFF" stroke-width="1.9815">
                    <line x1="0.167025" y1="0.682125" x2="2.148525" y2="0.682125" id="Stroke-35"></line>
                    <line x1="4.108125" y1="0.682125" x2="179.491125" y2="0.682125" id="Stroke-37" stroke-dasharray="3.91949987411499,1.959749937057495"></line>
                    <line x1="180.470925" y1="0.682125" x2="182.452425" y2="0.682125" id="Stroke-39"></line>
                </g>
            </g>
        </g>
    </g>
</svg>