<?xml version="1.0" encoding="UTF-8"?>
<svg width="311px" height="69px" viewBox="0 0 311 69" version="1.1" xmlns="http://www.w3.org/2000/svg" xmlns:xlink="http://www.w3.org/1999/xlink">
    <!-- Generator: Sketch 59.1 (86144) - https://sketch.com -->
    <title>Rent</title>
    <desc>Created with Sketch.</desc>
    <g id="Export-Outlined-SVG" stroke="none" stroke-width="1" fill="none" fill-rule="evenodd">
        <g id="6" transform="translate(-842.000000, -430.000000)">
            <g id="Rent" transform="translate(842.546000, 430.146000)">
                <polygon id="Fill-1" fill="#E0E0E0" points="2.454 35.854 299.454 35.854 299.454 25.854 2.454 25.854"></polygon>
                <path d="M2.329,42.854 L2.329,16.854 C2.329,16.6468932 2.16110678,16.479 1.954,16.479 C1.74689322,16.479 1.579,16.6468932 1.579,16.854 L1.579,42.854 C1.579,43.0611068 1.74689322,43.229 1.954,43.229 C2.16110678,43.229 2.329,43.0611068 2.329,42.854 Z" id="Stroke-2" fill="#D1D1D1" fill-rule="nonzero"></path>
                <path d="M95.1855,7.657 C95.4095011,7.657 95.5862494,7.74799909 95.71575,7.93 C95.8452506,8.11200091 95.91,8.36049843 95.91,8.6755 C95.91,9.13050227 95.7875012,9.52599832 95.5425,9.862 C95.2974988,10.1980017 94.9615021,10.4569991 94.5345,10.639 L94.3245,10.135 C94.6185015,10.0019993 94.8494992,9.82700109 95.0175,9.61 C95.1855008,9.39299891 95.2695,9.14100143 95.2695,8.854 L95.2088334,8.86333334 C95.1956112,8.86411111 95.1808334,8.8645 95.1645,8.8645 C94.9964992,8.8645 94.8512506,8.81375051 94.72875,8.71225 C94.6062494,8.61074949 94.545,8.46200098 94.545,8.266 C94.545,8.07699905 94.6079994,7.92825054 94.734,7.81975 C94.8600006,7.71124946 95.0104991,7.657 95.1855,7.657 Z M293.1855,7.657 C293.409501,7.657 293.586249,7.74799909 293.71575,7.93 C293.845251,8.11200091 293.91,8.36049843 293.91,8.6755 C293.91,9.13050227 293.787501,9.52599832 293.5425,9.862 C293.297499,10.1980017 292.961502,10.4569991 292.5345,10.639 L292.3245,10.135 C292.618501,10.0019993 292.849499,9.82700109 293.0175,9.61 C293.185501,9.39299891 293.2695,9.14100143 293.2695,8.854 L293.208833,8.86333334 C293.195611,8.86411111 293.180833,8.8645 293.1645,8.8645 C292.996499,8.8645 292.851251,8.81375051 292.72875,8.71225 C292.606249,8.61074949 292.545,8.46200098 292.545,8.266 C292.545,8.07699905 292.607999,7.92825054 292.734,7.81975 C292.860001,7.71124946 293.010499,7.657 293.1855,7.657 Z M284.415,1 L284.415,2.0395 C284.751002,2.07450017 285.036249,2.16549926 285.27075,2.3125 C285.505251,2.45950074 285.716999,2.63449898 285.906,2.8375 L285.444,3.352 C285.247999,3.16299906 285.057251,3.01600052 284.87175,2.911 C284.686249,2.80599947 284.450001,2.7535 284.163,2.7535 C283.840998,2.7535 283.585501,2.84449909 283.3965,3.0265 C283.207499,3.20850091 283.113,3.45349846 283.113,3.7615 C283.113,4.01350126 283.184749,4.21999919 283.32825,4.381 C283.471751,4.5420008 283.651999,4.68374939 283.869,4.80625 C284.086001,4.92875061 284.322249,5.04774942 284.57775,5.16325 C284.833251,5.27875058 285.069499,5.41874918 285.2865,5.58325 C285.503501,5.74775082 285.683749,5.95074879 285.82725,6.19225 C285.970751,6.43375121 286.0425,6.74349811 286.0425,7.1215 C286.0425,7.62550252 285.897251,8.03849839 285.60675,8.3605 C285.316249,8.68250161 284.919003,8.87849965 284.415,8.9485 L284.415,10.009 L283.785,10.009 L283.785,8.9695 C283.448998,8.93449982 283.123502,8.84175075 282.8085,8.69125 C282.493498,8.54074925 282.224001,8.36400101 282,8.161 L282.399,7.5625 C282.623001,7.75850098 282.869749,7.92474932 283.13925,8.06125 C283.408751,8.19775068 283.704498,8.266 284.0265,8.266 C284.418502,8.266 284.710749,8.16800098 284.90325,7.972 C285.095751,7.77599902 285.192,7.51350164 285.192,7.1845 C285.192,6.9044986 285.120251,6.67175093 284.97675,6.48625 C284.833249,6.30074907 284.653001,6.13975068 284.436,6.00325 C284.218999,5.86674932 283.982751,5.73900059 283.72725,5.62 C283.471749,5.5009994 283.235501,5.36450077 283.0185,5.2105 C282.801499,5.05649923 282.621251,4.8692511 282.47775,4.64875 C282.334249,4.4282489 282.2625,4.14650171 282.2625,3.8035 C282.2625,3.33449766 282.400749,2.94425156 282.67725,2.63275 C282.953751,2.32124844 283.322998,2.12700038 283.785,2.05 L283.785,1 L284.415,1 Z M86.415,1 L86.415,2.0395 C86.7510017,2.07450017 87.0362488,2.16549926 87.27075,2.3125 C87.5052512,2.45950074 87.7169991,2.63449898 87.906,2.8375 L87.444,3.352 C87.247999,3.16299906 87.0572509,3.01600052 86.87175,2.911 C86.6862491,2.80599947 86.4500014,2.7535 86.163,2.7535 C85.8409984,2.7535 85.5855009,2.84449909 85.3965,3.0265 C85.2074991,3.20850091 85.113,3.45349846 85.113,3.7615 C85.113,4.01350126 85.1847493,4.21999919 85.32825,4.381 C85.4717507,4.5420008 85.6519989,4.68374939 85.869,4.80625 C86.0860011,4.92875061 86.3222487,5.04774942 86.57775,5.16325 C86.8332513,5.27875058 87.0694989,5.41874918 87.2865,5.58325 C87.5035011,5.74775082 87.6837493,5.95074879 87.82725,6.19225 C87.9707507,6.43375121 88.0425,6.74349811 88.0425,7.1215 C88.0425,7.62550252 87.8972515,8.03849839 87.60675,8.3605 C87.3162485,8.68250161 86.9190025,8.87849965 86.415,8.9485 L86.415,10.009 L85.785,10.009 L85.785,8.9695 C85.4489983,8.93449982 85.1235016,8.84175075 84.8085,8.69125 C84.4934984,8.54074925 84.2240011,8.36400101 84,8.161 L84.399,7.5625 C84.6230011,7.75850098 84.8697487,7.92474932 85.13925,8.06125 C85.4087513,8.19775068 85.7044984,8.266 86.0265,8.266 C86.418502,8.266 86.710749,8.16800098 86.90325,7.972 C87.095751,7.77599902 87.192,7.51350164 87.192,7.1845 C87.192,6.9044986 87.1202507,6.67175093 86.97675,6.48625 C86.8332493,6.30074907 86.6530011,6.13975068 86.436,6.00325 C86.2189989,5.86674932 85.9827513,5.73900059 85.72725,5.62 C85.4717487,5.5009994 85.2355011,5.36450077 85.0185,5.2105 C84.8014989,5.05649923 84.6212507,4.8692511 84.47775,4.64875 C84.3342493,4.4282489 84.2625,4.14650171 84.2625,3.8035 C84.2625,3.33449766 84.4007486,2.94425156 84.67725,2.63275 C84.9537514,2.32124844 85.3229977,2.12700038 85.785,2.05 L85.785,1 L86.415,1 Z M2.415,1 L2.415,2.0395 C2.75100168,2.07450017 3.03624883,2.16549926 3.27075,2.3125 C3.50525117,2.45950073 3.71699906,2.63449898 3.906,2.8375 L3.444,3.352 C3.24799902,3.16299905 3.05725093,3.01600052 2.87175,2.911 C2.68624907,2.80599947 2.45000144,2.7535 2.163,2.7535 C1.84099839,2.7535 1.58550095,2.84449909 1.3965,3.0265 C1.20749906,3.20850091 1.113,3.45349846 1.113,3.7615 C1.113,4.01350126 1.18474928,4.21999919 1.32825,4.381 C1.47175072,4.5420008 1.65199892,4.68374939 1.869,4.80625 C2.08600109,4.92875061 2.32224872,5.04774942 2.57775,5.16325 C2.83325128,5.27875058 3.06949892,5.41874918 3.2865,5.58325 C3.50350109,5.74775082 3.68374928,5.95074879 3.82725,6.19225 C3.97075072,6.43375121 4.0425,6.74349811 4.0425,7.1215 C4.0425,7.62550252 3.89725145,8.03849839 3.60675,8.3605 C3.31624855,8.68250161 2.91900252,8.87849965 2.415,8.9485 L2.415,10.009 L1.785,10.009 L1.785,8.9695 C1.44899832,8.93449982 1.12350158,8.84175075 0.8085,8.69125 C0.493498425,8.54074925 0.22400112,8.36400101 1.70530257e-13,8.161 L0.399,7.5625 C0.62300112,7.75850098 0.869748653,7.92474932 1.13925,8.06125 C1.40875135,8.19775068 1.70449839,8.266 2.0265,8.266 C2.41850196,8.266 2.71074904,8.16800098 2.90325,7.972 C3.09575096,7.77599902 3.192,7.51350164 3.192,7.1845 C3.192,6.9044986 3.12025072,6.67175093 2.97675,6.48625 C2.83324928,6.30074907 2.65300109,6.13975068 2.436,6.00325 C2.21899892,5.86674932 1.98275128,5.73900059 1.72725,5.62 C1.47174872,5.5009994 1.23550109,5.36450077 1.0185,5.2105 C0.801498915,5.05649923 0.621250718,4.8692511 0.47775,4.64875 C0.334249283,4.4282489 0.2625,4.14650171 0.2625,3.8035 C0.2625,3.33449765 0.400748618,2.94425156 0.67725,2.63275 C0.953751383,2.32124844 1.32299769,2.12700038 1.785,2.05 L1.785,1 L2.415,1 Z M193.1855,6.657 C193.409501,6.657 193.586249,6.74799909 193.71575,6.93 C193.845251,7.11200091 193.91,7.36049843 193.91,7.6755 C193.91,8.13050227 193.787501,8.52599832 193.5425,8.862 C193.297499,9.19800168 192.961502,9.45699909 192.5345,9.639 L192.3245,9.135 C192.618501,9.00199933 192.849499,8.82700109 193.0175,8.61 C193.185501,8.39299891 193.2695,8.14100143 193.2695,7.854 L193.208833,7.86333334 C193.195611,7.86411111 193.180833,7.8645 193.1645,7.8645 C192.996499,7.8645 192.851251,7.81375051 192.72875,7.71225 C192.606249,7.61074949 192.545,7.46200098 192.545,7.266 C192.545,7.07699905 192.607999,6.92825054 192.734,6.81975 C192.860001,6.71124946 193.010499,6.657 193.1855,6.657 Z M184.415,0 L184.415,1.0395 C184.751002,1.07450017 185.036249,1.16549926 185.27075,1.3125 C185.505251,1.45950074 185.716999,1.63449898 185.906,1.8375 L185.444,2.352 C185.247999,2.16299906 185.057251,2.01600052 184.87175,1.911 C184.686249,1.80599947 184.450001,1.7535 184.163,1.7535 C183.840998,1.7535 183.585501,1.84449909 183.3965,2.0265 C183.207499,2.20850091 183.113,2.45349846 183.113,2.7615 C183.113,3.01350126 183.184749,3.21999919 183.32825,3.381 C183.471751,3.5420008 183.651999,3.68374939 183.869,3.80625 C184.086001,3.92875061 184.322249,4.04774942 184.57775,4.16325 C184.833251,4.27875058 185.069499,4.41874918 185.2865,4.58325 C185.503501,4.74775082 185.683749,4.95074879 185.82725,5.19225 C185.970751,5.43375121 186.0425,5.74349811 186.0425,6.1215 C186.0425,6.62550252 185.897251,7.03849839 185.60675,7.3605 C185.316249,7.68250161 184.919003,7.87849965 184.415,7.9485 L184.415,9.009 L183.785,9.009 L183.785,7.9695 C183.448998,7.93449982 183.123502,7.84175075 182.8085,7.69125 C182.493498,7.54074925 182.224001,7.36400101 182,7.161 L182.399,6.5625 C182.623001,6.75850098 182.869749,6.92474932 183.13925,7.06125 C183.408751,7.19775068 183.704498,7.266 184.0265,7.266 C184.418502,7.266 184.710749,7.16800098 184.90325,6.972 C185.095751,6.77599902 185.192,6.51350164 185.192,6.1845 C185.192,5.9044986 185.120251,5.67175093 184.97675,5.48625 C184.833249,5.30074907 184.653001,5.13975068 184.436,5.00325 C184.218999,4.86674932 183.982751,4.73900059 183.72725,4.62 C183.471749,4.5009994 183.235501,4.36450077 183.0185,4.2105 C182.801499,4.05649923 182.621251,3.8692511 182.47775,3.64875 C182.334249,3.4282489 182.2625,3.14650171 182.2625,2.8035 C182.2625,2.33449766 182.400749,1.94425156 182.67725,1.63275 C182.953751,1.32124844 183.322998,1.12700038 183.785,1.05 L183.785,0 L184.415,0 Z M7.257,2.029 C7.92900336,2.029 8.45399811,2.32299706 8.832,2.911 C9.21000189,3.49900294 9.399,4.35649436 9.399,5.4835 C9.399,6.61050563 9.21000189,7.47499699 8.832,8.077 C8.45399811,8.67900301 7.92900336,8.98 7.257,8.98 C6.57799661,8.98 6.04950189,8.67900301 5.6715,8.077 C5.29349811,7.47499699 5.1045,6.61050563 5.1045,5.4835 C5.1045,4.35649436 5.29349811,3.49900294 5.6715,2.911 C6.04950189,2.32299706 6.57799661,2.029 7.257,2.029 Z M307.407,2.029 C308.079003,2.029 308.603998,2.32299706 308.982,2.911 C309.360002,3.49900294 309.549,4.35649437 309.549,5.4835 C309.549,6.61050563 309.360002,7.47499699 308.982,8.077 C308.603998,8.67900301 308.079003,8.98 307.407,8.98 C306.727997,8.98 306.199502,8.67900301 305.8215,8.077 C305.443498,7.47499699 305.2545,6.61050563 305.2545,5.4835 C305.2545,4.35649437 305.443498,3.49900294 305.8215,2.911 C306.199502,2.32299706 306.727997,2.029 307.407,2.029 Z M302.2185,2.029 C302.890503,2.029 303.415498,2.32299706 303.7935,2.911 C304.171502,3.49900294 304.3605,4.35649437 304.3605,5.4835 C304.3605,6.61050563 304.171502,7.47499699 303.7935,8.077 C303.415498,8.67900301 302.890503,8.98 302.2185,8.98 C301.539497,8.98 301.011002,8.67900301 300.633,8.077 C300.254998,7.47499699 300.066,6.61050563 300.066,5.4835 C300.066,4.35649437 300.254998,3.49900294 300.633,2.911 C301.011002,2.32299706 301.539497,2.029 302.2185,2.029 Z M297.03,2.029 C297.702003,2.029 298.226998,2.32299706 298.605,2.911 C298.983002,3.49900294 299.172,4.35649437 299.172,5.4835 C299.172,6.61050563 298.983002,7.47499699 298.605,8.077 C298.226998,8.67900301 297.702003,8.98 297.03,8.98 C296.350997,8.98 295.822502,8.67900301 295.4445,8.077 C295.066498,7.47499699 294.8775,6.61050563 294.8775,5.4835 C294.8775,4.35649437 295.066498,3.49900294 295.4445,2.911 C295.822502,2.32299706 296.350997,2.029 297.03,2.029 Z M289.089,2.029 C289.383001,2.029 289.652499,2.06749961 289.8975,2.1445 C290.142501,2.22150038 290.354249,2.33174928 290.53275,2.47525 C290.711251,2.61875072 290.8495,2.79549895 290.9475,3.0055 C291.0455,3.21550105 291.0945,3.45699863 291.0945,3.73 C291.0945,4.13600203 290.982501,4.46849871 290.7585,4.7275 C290.534499,4.98650129 290.240502,5.1859993 289.8765,5.326 L289.8765,5.368 C290.079501,5.41700024 290.268499,5.48874953 290.4435,5.58325 C290.618501,5.67775047 290.772499,5.79674928 290.9055,5.94025 C291.038501,6.08375072 291.14175,6.24999905 291.21525,6.439 C291.28875,6.62800094 291.3255,6.83799884 291.3255,7.069 C291.3255,7.36300147 291.267751,7.62899881 291.15225,7.867 C291.036749,8.10500119 290.879251,8.30624918 290.67975,8.47075 C290.480249,8.63525082 290.247501,8.76124956 289.9815,8.84875 C289.715499,8.93625044 289.428502,8.98 289.1205,8.98 C288.854499,8.98 288.611251,8.95375026 288.39075,8.90125 C288.170249,8.84874974 287.969001,8.77875044 287.787,8.69125 C287.604999,8.60374956 287.442251,8.50400056 287.29875,8.392 C287.155249,8.27999944 287.027501,8.16100063 286.9155,8.035 L287.3565,7.468 C287.559501,7.67800105 287.795749,7.86349919 288.06525,8.0245 C288.334751,8.18550081 288.668998,8.266 289.068,8.266 C289.474002,8.266 289.806499,8.1557511 290.0655,7.93525 C290.324501,7.7147489 290.454,7.41550189 290.454,7.0375 C290.454,6.84149902 290.41725,6.66125082 290.34375,6.49675 C290.27025,6.33224918 290.149501,6.1905006 289.9815,6.0715 C289.813499,5.9524994 289.593001,5.86150032 289.32,5.7985 C289.046999,5.73549968 288.711002,5.704 288.312,5.704 L288.312,5.0425 C288.669002,5.0425 288.968249,5.01100031 289.20975,4.948 C289.451251,4.88499968 289.647249,4.79750056 289.79775,4.6855 C289.948251,4.57349944 290.055,4.44050077 290.118,4.2865 C290.181,4.13249923 290.2125,3.96800087 290.2125,3.793 C290.2125,3.46399836 290.109251,3.20500094 289.90275,3.016 C289.696249,2.82699905 289.414502,2.7325 289.0575,2.7325 C288.777499,2.7325 288.520251,2.79549937 288.28575,2.9215 C288.051249,3.04750063 287.832501,3.21199898 287.6295,3.415 L287.1675,2.869 C287.426501,2.62399877 287.711748,2.42275079 288.02325,2.26525 C288.334752,2.10774921 288.689998,2.029 289.089,2.029 Z M99.03,2.029 C99.7020034,2.029 100.226998,2.32299706 100.605,2.911 C100.983002,3.49900294 101.172,4.35649437 101.172,5.4835 C101.172,6.61050563 100.983002,7.47499699 100.605,8.077 C100.226998,8.67900301 99.7020034,8.98 99.03,8.98 C98.3509966,8.98 97.8225019,8.67900301 97.4445,8.077 C97.0664981,7.47499699 96.8775,6.61050563 96.8775,5.4835 C96.8775,4.35649437 97.0664981,3.49900294 97.4445,2.911 C97.8225019,2.32299706 98.3509966,2.029 99.03,2.029 Z M104.2185,2.029 C104.890503,2.029 105.415498,2.32299706 105.7935,2.911 C106.171502,3.49900294 106.3605,4.35649437 106.3605,5.4835 C106.3605,6.61050563 106.171502,7.47499699 105.7935,8.077 C105.415498,8.67900301 104.890503,8.98 104.2185,8.98 C103.539497,8.98 103.011002,8.67900301 102.633,8.077 C102.254998,7.47499699 102.066,6.61050563 102.066,5.4835 C102.066,4.35649437 102.254998,3.49900294 102.633,2.911 C103.011002,2.32299706 103.539497,2.029 104.2185,2.029 Z M109.407,2.029 C110.079003,2.029 110.603998,2.32299706 110.982,2.911 C111.360002,3.49900294 111.549,4.35649437 111.549,5.4835 C111.549,6.61050563 111.360002,7.47499699 110.982,8.077 C110.603998,8.67900301 110.079003,8.98 109.407,8.98 C108.727997,8.98 108.199502,8.67900301 107.8215,8.077 C107.443498,7.47499699 107.2545,6.61050563 107.2545,5.4835 C107.2545,4.35649437 107.443498,3.49900294 107.8215,2.911 C108.199502,2.32299706 108.727997,2.029 109.407,2.029 Z M91.866,2.155 L91.866,8.14 L93.252,8.14 L93.252,8.854 L89.472,8.854 L89.472,8.14 L91.005,8.14 L91.005,3.205 L89.787,3.205 L89.787,2.6485 C90.0950015,2.59249972 90.3627489,2.5242504 90.59025,2.44375 C90.8177511,2.3632496 91.0224991,2.26700056 91.2045,2.155 L91.866,2.155 Z M104.2185,2.722 C104.022499,2.722 103.844001,2.77449947 103.683,2.8795 C103.521999,2.98450052 103.383751,3.1472489 103.26825,3.36775 C103.152749,3.5882511 103.0635,3.87349825 103.0005,4.2235 C102.9375,4.57350175 102.906,4.99349755 102.906,5.4835 C102.906,6.4635049 103.026749,7.17574778 103.26825,7.62025 C103.509751,8.06475222 103.826498,8.287 104.2185,8.287 C104.414501,8.287 104.591249,8.23275054 104.74875,8.12425 C104.906251,8.01574946 105.042749,7.84775114 105.15825,7.62025 C105.273751,7.39274886 105.363,7.10225177 105.426,6.74875 C105.489,6.39524823 105.5205,5.97350245 105.5205,5.4835 C105.5205,4.99349755 105.489,4.57350175 105.426,4.2235 C105.363,3.87349825 105.273751,3.5882511 105.15825,3.36775 C105.042749,3.1472489 104.906251,2.98450052 104.74875,2.8795 C104.591249,2.77449947 104.414501,2.722 104.2185,2.722 Z M307.407,2.722 C307.210999,2.722 307.032501,2.77449947 306.8715,2.8795 C306.710499,2.98450052 306.572251,3.1472489 306.45675,3.36775 C306.341249,3.5882511 306.252,3.87349825 306.189,4.2235 C306.126,4.57350175 306.0945,4.99349755 306.0945,5.4835 C306.0945,6.4635049 306.215249,7.17574778 306.45675,7.62025 C306.698251,8.06475222 307.014998,8.287 307.407,8.287 C307.603001,8.287 307.779749,8.23275054 307.93725,8.12425 C308.094751,8.01574946 308.231249,7.84775114 308.34675,7.62025 C308.462251,7.39274886 308.5515,7.10225177 308.6145,6.74875 C308.6775,6.39524823 308.709,5.97350245 308.709,5.4835 C308.709,4.99349755 308.6775,4.57350175 308.6145,4.2235 C308.5515,3.87349825 308.462251,3.5882511 308.34675,3.36775 C308.231249,3.1472489 308.094751,2.98450052 307.93725,2.8795 C307.779749,2.77449947 307.603001,2.722 307.407,2.722 Z M302.2185,2.722 C302.022499,2.722 301.844001,2.77449947 301.683,2.8795 C301.521999,2.98450052 301.383751,3.1472489 301.26825,3.36775 C301.152749,3.5882511 301.0635,3.87349825 301.0005,4.2235 C300.9375,4.57350175 300.906,4.99349755 300.906,5.4835 C300.906,6.4635049 301.026749,7.17574778 301.26825,7.62025 C301.509751,8.06475222 301.826498,8.287 302.2185,8.287 C302.414501,8.287 302.591249,8.23275054 302.74875,8.12425 C302.906251,8.01574946 303.042749,7.84775114 303.15825,7.62025 C303.273751,7.39274886 303.363,7.10225177 303.426,6.74875 C303.489,6.39524823 303.5205,5.97350245 303.5205,5.4835 C303.5205,4.99349755 303.489,4.57350175 303.426,4.2235 C303.363,3.87349825 303.273751,3.5882511 303.15825,3.36775 C303.042749,3.1472489 302.906251,2.98450052 302.74875,2.8795 C302.591249,2.77449947 302.414501,2.722 302.2185,2.722 Z M297.03,2.722 C296.833999,2.722 296.655501,2.77449947 296.4945,2.8795 C296.333499,2.98450052 296.195251,3.1472489 296.07975,3.36775 C295.964249,3.5882511 295.875,3.87349825 295.812,4.2235 C295.749,4.57350175 295.7175,4.99349755 295.7175,5.4835 C295.7175,6.4635049 295.838249,7.17574778 296.07975,7.62025 C296.321251,8.06475222 296.637998,8.287 297.03,8.287 C297.226001,8.287 297.402749,8.23275054 297.56025,8.12425 C297.717751,8.01574946 297.854249,7.84775114 297.96975,7.62025 C298.085251,7.39274886 298.1745,7.10225177 298.2375,6.74875 C298.3005,6.39524823 298.332,5.97350245 298.332,5.4835 C298.332,4.99349755 298.3005,4.57350175 298.2375,4.2235 C298.1745,3.87349825 298.085251,3.5882511 297.96975,3.36775 C297.854249,3.1472489 297.717751,2.98450052 297.56025,2.8795 C297.402749,2.77449947 297.226001,2.722 297.03,2.722 Z M99.03,2.722 C98.833999,2.722 98.6555008,2.77449947 98.4945,2.8795 C98.3334992,2.98450052 98.1952506,3.1472489 98.07975,3.36775 C97.9642494,3.5882511 97.8750003,3.87349825 97.812,4.2235 C97.7489997,4.57350175 97.7175,4.99349755 97.7175,5.4835 C97.7175,6.4635049 97.8382488,7.17574778 98.07975,7.62025 C98.3212512,8.06475222 98.637998,8.287 99.03,8.287 C99.226001,8.287 99.4027492,8.23275054 99.56025,8.12425 C99.7177508,8.01574946 99.8542494,7.84775114 99.96975,7.62025 C100.085251,7.39274886 100.1745,7.10225177 100.2375,6.74875 C100.3005,6.39524823 100.332,5.97350245 100.332,5.4835 C100.332,4.99349755 100.3005,4.57350175 100.2375,4.2235 C100.1745,3.87349825 100.085251,3.5882511 99.96975,3.36775 C99.8542494,3.1472489 99.7177508,2.98450052 99.56025,2.8795 C99.4027492,2.77449947 99.226001,2.722 99.03,2.722 Z M109.407,2.722 C109.210999,2.722 109.032501,2.77449947 108.8715,2.8795 C108.710499,2.98450052 108.572251,3.1472489 108.45675,3.36775 C108.341249,3.5882511 108.252,3.87349825 108.189,4.2235 C108.126,4.57350175 108.0945,4.99349755 108.0945,5.4835 C108.0945,6.4635049 108.215249,7.17574778 108.45675,7.62025 C108.698251,8.06475222 109.014998,8.287 109.407,8.287 C109.603001,8.287 109.779749,8.23275054 109.93725,8.12425 C110.094751,8.01574946 110.231249,7.84775114 110.34675,7.62025 C110.462251,7.39274886 110.5515,7.10225177 110.6145,6.74875 C110.6775,6.39524823 110.709,5.97350245 110.709,5.4835 C110.709,4.99349755 110.6775,4.57350175 110.6145,4.2235 C110.5515,3.87349825 110.462251,3.5882511 110.34675,3.36775 C110.231249,3.1472489 110.094751,2.98450052 109.93725,2.8795 C109.779749,2.77449947 109.603001,2.722 109.407,2.722 Z M7.257,2.722 C7.06099902,2.722 6.88250081,2.77449947 6.7215,2.8795 C6.5604992,2.98450052 6.42225058,3.1472489 6.30675,3.36775 C6.19124942,3.5882511 6.10200032,3.87349825 6.039,4.2235 C5.97599969,4.57350175 5.9445,4.99349755 5.9445,5.4835 C5.9445,6.4635049 6.06524879,7.17574778 6.30675,7.62025 C6.54825121,8.06475222 6.86499804,8.287 7.257,8.287 C7.45300098,8.287 7.62974921,8.23275054 7.78725,8.12425 C7.94475079,8.01574946 8.08124942,7.84775114 8.19675,7.62025 C8.31225058,7.39274886 8.40149969,7.10225177 8.4645,6.74875 C8.52750032,6.39524823 8.559,5.97350245 8.559,5.4835 C8.559,4.99349755 8.52750032,4.57350175 8.4645,4.2235 C8.40149969,3.87349825 8.31225058,3.5882511 8.19675,3.36775 C8.08124942,3.1472489 7.94475079,2.98450052 7.78725,2.8795 C7.62974921,2.77449947 7.45300098,2.722 7.257,2.722 Z M197.03,1.029 C197.702003,1.029 198.226998,1.32299706 198.605,1.911 C198.983002,2.49900294 199.172,3.35649437 199.172,4.4835 C199.172,5.61050563 198.983002,6.47499699 198.605,7.077 C198.226998,7.67900301 197.702003,7.98 197.03,7.98 C196.350997,7.98 195.822502,7.67900301 195.4445,7.077 C195.066498,6.47499699 194.8775,5.61050563 194.8775,4.4835 C194.8775,3.35649437 195.066498,2.49900294 195.4445,1.911 C195.822502,1.32299706 196.350997,1.029 197.03,1.029 Z M202.2185,1.029 C202.890503,1.029 203.415498,1.32299706 203.7935,1.911 C204.171502,2.49900294 204.3605,3.35649437 204.3605,4.4835 C204.3605,5.61050563 204.171502,6.47499699 203.7935,7.077 C203.415498,7.67900301 202.890503,7.98 202.2185,7.98 C201.539497,7.98 201.011002,7.67900301 200.633,7.077 C200.254998,6.47499699 200.066,5.61050563 200.066,4.4835 C200.066,3.35649437 200.254998,2.49900294 200.633,1.911 C201.011002,1.32299706 201.539497,1.029 202.2185,1.029 Z M207.407,1.029 C208.079003,1.029 208.603998,1.32299706 208.982,1.911 C209.360002,2.49900294 209.549,3.35649437 209.549,4.4835 C209.549,5.61050563 209.360002,6.47499699 208.982,7.077 C208.603998,7.67900301 208.079003,7.98 207.407,7.98 C206.727997,7.98 206.199502,7.67900301 205.8215,7.077 C205.443498,6.47499699 205.2545,5.61050563 205.2545,4.4835 C205.2545,3.35649437 205.443498,2.49900294 205.8215,1.911 C206.199502,1.32299706 206.727997,1.029 207.407,1.029 Z M189.047,1.029 C189.670003,1.029 190.159998,1.2092482 190.517,1.56975 C190.874002,1.9302518 191.0525,2.40799702 191.0525,3.003 C191.0525,3.31800157 190.984251,3.63474841 190.84775,3.95325 C190.711249,4.27175159 190.522251,4.6007483 190.28075,4.94025 C190.039249,5.2797517 189.752252,5.63324816 189.41975,6.00075 C189.087248,6.36825184 188.721502,6.75849793 188.3225,7.1715 L188.8895,7.1295 C189.085501,7.11549993 189.270999,7.1085 189.446,7.1085 L191.3885,7.1085 L191.3885,7.854 L187.0625,7.854 L187.0625,7.3395 L187.90922,6.48522015 C188.083939,6.30714057 188.249699,6.13690081 188.4065,5.9745 C188.798502,5.56849797 189.127499,5.19225173 189.3935,4.84575 C189.659501,4.49924827 189.862499,4.18075145 190.0025,3.89025 C190.142501,3.59974855 190.2125,3.31800136 190.2125,3.045 C190.2125,2.65999807 190.107501,2.34500122 189.8975,2.1 C189.687499,1.85499877 189.369002,1.7325 188.942,1.7325 C188.661999,1.7325 188.403001,1.81124921 188.165,1.96875 C187.926999,2.12625079 187.710001,2.31699888 187.514,2.541 L187.0205,2.0475 C187.300501,1.73949846 187.597998,1.49275093 187.913,1.30725 C188.228002,1.12174907 188.605998,1.029 189.047,1.029 Z M197.03,1.722 C196.833999,1.722 196.655501,1.77449947 196.4945,1.8795 C196.333499,1.98450052 196.195251,2.1472489 196.07975,2.36775 C195.964249,2.5882511 195.875,2.87349825 195.812,3.2235 C195.749,3.57350175 195.7175,3.99349755 195.7175,4.4835 C195.7175,5.4635049 195.838249,6.17574778 196.07975,6.62025 C196.321251,7.06475222 196.637998,7.287 197.03,7.287 C197.226001,7.287 197.402749,7.23275054 197.56025,7.12425 C197.717751,7.01574946 197.854249,6.84775114 197.96975,6.62025 C198.085251,6.39274886 198.1745,6.10225177 198.2375,5.74875 C198.3005,5.39524823 198.332,4.97350245 198.332,4.4835 C198.332,3.99349755 198.3005,3.57350175 198.2375,3.2235 C198.1745,2.87349825 198.085251,2.5882511 197.96975,2.36775 C197.854249,2.1472489 197.717751,1.98450052 197.56025,1.8795 C197.402749,1.77449947 197.226001,1.722 197.03,1.722 Z M202.2185,1.722 C202.022499,1.722 201.844001,1.77449947 201.683,1.8795 C201.521999,1.98450052 201.383751,2.1472489 201.26825,2.36775 C201.152749,2.5882511 201.0635,2.87349825 201.0005,3.2235 C200.9375,3.57350175 200.906,3.99349755 200.906,4.4835 C200.906,5.4635049 201.026749,6.17574778 201.26825,6.62025 C201.509751,7.06475222 201.826498,7.287 202.2185,7.287 C202.414501,7.287 202.591249,7.23275054 202.74875,7.12425 C202.906251,7.01574946 203.042749,6.84775114 203.15825,6.62025 C203.273751,6.39274886 203.363,6.10225177 203.426,5.74875 C203.489,5.39524823 203.5205,4.97350245 203.5205,4.4835 C203.5205,3.99349755 203.489,3.57350175 203.426,3.2235 C203.363,2.87349825 203.273751,2.5882511 203.15825,2.36775 C203.042749,2.1472489 202.906251,1.98450052 202.74875,1.8795 C202.591249,1.77449947 202.414501,1.722 202.2185,1.722 Z M207.407,1.722 C207.210999,1.722 207.032501,1.77449947 206.8715,1.8795 C206.710499,1.98450052 206.572251,2.1472489 206.45675,2.36775 C206.341249,2.5882511 206.252,2.87349825 206.189,3.2235 C206.126,3.57350175 206.0945,3.99349755 206.0945,4.4835 C206.0945,5.4635049 206.215249,6.17574778 206.45675,6.62025 C206.698251,7.06475222 207.014998,7.287 207.407,7.287 C207.603001,7.287 207.779749,7.23275054 207.93725,7.12425 C208.094751,7.01574946 208.231249,6.84775114 208.34675,6.62025 C208.462251,6.39274886 208.5515,6.10225177 208.6145,5.74875 C208.6775,5.39524823 208.709,4.97350245 208.709,4.4835 C208.709,3.99349755 208.6775,3.57350175 208.6145,3.2235 C208.5515,2.87349825 208.462251,2.5882511 208.34675,2.36775 C208.231249,2.1472489 208.094751,1.98450052 207.93725,1.8795 C207.779749,1.77449947 207.603001,1.722 207.407,1.722 Z" id="Combined-Shape" fill="#848484" fill-rule="nonzero"></path>
                <path d="M52.329,42.854 L52.329,16.854 C52.329,16.6468932 52.1611068,16.479 51.954,16.479 C51.7468932,16.479 51.579,16.6468932 51.579,16.854 L51.579,42.854 C51.579,43.0611068 51.7468932,43.229 51.954,43.229 C52.1611068,43.229 52.329,43.0611068 52.329,42.854 Z" id="Stroke-3-Copy" fill="#D1D1D1" fill-rule="nonzero"></path>
                <path d="M101.329,42.854 L101.329,16.854 C101.329,16.6468932 101.161107,16.479 100.954,16.479 C100.746893,16.479 100.579,16.6468932 100.579,16.854 L100.579,42.854 C100.579,43.0611068 100.746893,43.229 100.954,43.229 C101.161107,43.229 101.329,43.0611068 101.329,42.854 Z" id="Stroke-3" fill="#D1D1D1" fill-rule="nonzero"></path>
                <path d="M151.329,42.854 L151.329,16.854 C151.329,16.6468932 151.161107,16.479 150.954,16.479 C150.746893,16.479 150.579,16.6468932 150.579,16.854 L150.579,42.854 C150.579,43.0611068 150.746893,43.229 150.954,43.229 C151.161107,43.229 151.329,43.0611068 151.329,42.854 Z" id="Stroke-4" fill="#D1D1D1" fill-rule="nonzero"></path>
                <path d="M200.329,42.854 L200.329,16.854 C200.329,16.6468932 200.161107,16.479 199.954,16.479 C199.746893,16.479 199.579,16.6468932 199.579,16.854 L199.579,42.854 C199.579,43.0611068 199.746893,43.229 199.954,43.229 C200.161107,43.229 200.329,43.0611068 200.329,42.854 Z" id="Stroke-5" fill="#D1D1D1" fill-rule="nonzero"></path>
                <path d="M250.329,42.854 L250.329,16.854 C250.329,16.6468932 250.161107,16.479 249.954,16.479 C249.746893,16.479 249.579,16.6468932 249.579,16.854 L249.579,42.854 C249.579,43.0611068 249.746893,43.229 249.954,43.229 C250.161107,43.229 250.329,43.0611068 250.329,42.854 Z" id="Stroke-5-Copy" fill="#D1D1D1" fill-rule="nonzero"></path>
                <path d="M299.329,42.854 L299.329,16.854 C299.329,16.6468932 299.161107,16.479 298.954,16.479 C298.746893,16.479 298.579,16.6468932 298.579,16.854 L298.579,42.854 C298.579,43.0611068 298.746893,43.229 298.954,43.229 C299.161107,43.229 299.329,43.0611068 299.329,42.854 Z" id="Stroke-6" fill="#D1D1D1" fill-rule="nonzero"></path>
                <path d="M218.073433,38.854 L57.8345668,38.854 C55.9752551,38.854 54.454,37.1909565 54.454,35.1583478 L54.454,25.5496522 C54.454,23.5170435 55.9752551,21.854 57.8345668,21.854 L218.073433,21.854 C219.932745,21.854 221.454,23.5170435 221.454,25.5496522 L221.454,35.1583478 C221.454,37.1909565 219.932745,38.854 218.073433,38.854" id="Fill-7" fill="#9D9DC6"></path>
                <path d="M182.854,40.854 L73.054,40.854 C71.074,40.854 69.454,39.5206667 69.454,37.891037 L69.454,23.816963 C69.454,22.1873333 71.074,20.854 73.054,20.854 L182.854,20.854 C184.834,20.854 186.454,22.1873333 186.454,23.816963 L186.454,37.891037 C186.454,39.5206667 184.834,40.854 182.854,40.854" id="Fill-9" fill="#4D4D8C"></path>
                <path d="M38.9685,63.4415 C38.9685,62.8814972 39.0507492,62.3792522 39.21525,61.93475 C39.3797508,61.4902478 39.6054986,61.1140015 39.8925,60.806 C40.1795014,60.4979985 40.5154981,60.2635008 40.9005,60.1025 C41.2855019,59.9414992 41.6984978,59.861 42.1395,59.861 C42.5595021,59.861 42.9357483,59.9484991 43.26825,60.1235 C43.6007517,60.2985009 43.8754989,60.5014988 44.0925,60.7325 L43.41,61.4885 C43.2349991,61.3134991 43.047751,61.1752505 42.84825,61.07375 C42.648749,60.9722495 42.4160013,60.9215 42.15,60.9215 C41.8629986,60.9215 41.6022512,60.9792494 41.36775,61.09475 C41.1332488,61.2102506 40.9302509,61.3747489 40.75875,61.58825 C40.5872491,61.8017511 40.4542505,62.0624985 40.35975,62.3705 C40.2652495,62.6785015 40.218,63.0249981 40.218,63.41 C40.218,64.1940039 40.3877483,64.8082478 40.72725,65.25275 C41.0667517,65.6972522 41.5269971,65.9195 42.108,65.9195 C42.4160015,65.9195 42.6837489,65.8600006 42.91125,65.741 C43.1387511,65.6219994 43.350499,65.4540011 43.5465,65.237 L44.229,65.9825 C43.9489986,66.3045016 43.6305018,66.5512491 43.2735,66.72275 C42.9164982,66.8942509 42.5210022,66.98 42.087,66.98 C41.6459978,66.98 41.2365019,66.9030008 40.8585,66.749 C40.4804981,66.5949992 40.1515014,66.3675015 39.8715,66.0665 C39.5914986,65.7654985 39.3710008,65.3945022 39.21,64.9535 C39.0489992,64.5124978 38.9685,64.0085028 38.9685,63.4415 Z M45.3585,59.987 L46.5765,59.987 L46.5765,65.825 L49.4325,65.825 L49.4325,66.854 L45.3585,66.854 L45.3585,59.987 Z M49.89,59.987 L51.108,59.987 L51.108,63.935 C51.108,64.3060019 51.1412497,64.6192487 51.20775,64.87475 C51.2742503,65.1302513 51.3687494,65.3349992 51.49125,65.489 C51.6137506,65.6430008 51.7589992,65.7532497 51.927,65.81975 C52.0950008,65.8862503 52.283999,65.9195 52.494,65.9195 C52.7040011,65.9195 52.8964991,65.8862503 53.0715,65.81975 C53.2465009,65.7532497 53.3969994,65.6430008 53.523,65.489 C53.6490006,65.3349992 53.7469997,65.1302513 53.817,64.87475 C53.8870004,64.6192487 53.922,64.3060019 53.922,63.935 L53.922,59.987 L55.0875,59.987 L55.0875,63.8405 C55.0875,64.4075028 55.0280006,64.888748 54.909,65.28425 C54.7899994,65.679752 54.6167511,66.0034987 54.38925,66.2555 C54.1617489,66.5075013 53.8887516,66.6912494 53.57025,66.80675 C53.2517484,66.9222506 52.893002,66.98 52.494,66.98 C52.094998,66.98 51.7362516,66.9222506 51.41775,66.80675 C51.0992484,66.6912494 50.8262511,66.5075013 50.59875,66.2555 C50.3712489,66.0034987 50.1962506,65.679752 50.07375,65.28425 C49.9512494,64.888748 49.89,64.4075028 49.89,63.8405 L49.89,59.987 Z M56.8155,65.1425 C57.0605012,65.3735012 57.3404984,65.5607493 57.6555,65.70425 C57.9705016,65.8477507 58.2854984,65.9195 58.6005,65.9195 C58.992502,65.9195 59.289999,65.8390008 59.493,65.678 C59.696001,65.5169992 59.7975,65.3035013 59.7975,65.0375 C59.7975,64.8974993 59.7712503,64.7785005 59.71875,64.6805 C59.6662497,64.5824995 59.5927505,64.4967504 59.49825,64.42325 C59.4037495,64.3497496 59.2917507,64.2815003 59.16225,64.2185 L59.0286666,64.1554999 L59.0286666,64.1554999 L57.792,63.62 C57.6239992,63.5499996 57.4577508,63.4625005 57.29325,63.3575 C57.1287492,63.2524995 56.9800007,63.1265007 56.847,62.9795 C56.7139993,62.8324993 56.6072504,62.661001 56.52675,62.465 C56.4462496,62.268999 56.406,62.0450013 56.406,61.793 C56.406,61.5199986 56.4637494,61.2662512 56.57925,61.03175 C56.6947506,60.7972488 56.853999,60.5925009 57.057,60.4175 C57.260001,60.2424991 57.5032486,60.1060005 57.78675,60.008 C58.0702514,59.9099995 58.3799983,59.861 58.716,59.861 C59.115002,59.861 59.4999982,59.9397492 59.871,60.09725 C60.2420019,60.2547508 60.5604987,60.4664987 60.8265,60.7325 L60.207,61.5095 C59.9829989,61.3274991 59.7520012,61.1840005 59.514,61.079 C59.2759988,60.9739995 59.0100015,60.9215 58.716,60.9215 C58.3869984,60.9215 58.124501,60.9932493 57.9285,61.13675 C57.732499,61.2802507 57.6345,61.4779987 57.6345,61.73 C57.6345,61.8630007 57.6642497,61.9767495 57.72375,62.07125 C57.7832503,62.1657505 57.8637495,62.2497496 57.96525,62.32325 C58.0667505,62.3967504 58.1839993,62.4632497 58.317,62.52275 L58.519125,62.6106875 L58.519125,62.6106875 L59.661,63.0845 C59.864001,63.1685004 60.0494992,63.2664994 60.2175,63.3785 C60.3855008,63.4905006 60.5307494,63.6199993 60.65325,63.767 C60.7757506,63.9140007 60.8719997,64.083749 60.942,64.27625 C61.0120004,64.468751 61.047,64.6909987 61.047,64.943 C61.047,65.2230014 60.9910006,65.4854988 60.879,65.7305 C60.7669994,65.9755012 60.6042511,66.1907491 60.39075,66.37625 C60.1772489,66.5617509 59.9182515,66.7087495 59.61375,66.81725 C59.3092485,66.9257505 58.9645019,66.98 58.5795,66.98 C58.1174977,66.98 57.6712522,66.8925009 57.24075,66.7175 C56.8102479,66.5424991 56.4305017,66.2940016 56.1015,65.972 L56.8155,65.1425 Z M63.2475,61.016 L61.263,61.016 L61.263,59.987 L66.45,59.987 L66.45,61.016 L64.4655,61.016 L64.4655,66.854 L63.2475,66.854 L63.2475,61.016 Z M67.5795,59.987 L71.7165,59.987 L71.7165,61.016 L68.7975,61.016 L68.7975,62.7695 L71.265,62.7695 L71.265,63.7985 L68.7975,63.7985 L68.7975,65.825 L71.8215,65.825 L71.8215,66.854 L67.5795,66.854 L67.5795,59.987 Z M74.4315,63.2 L75.408,63.2 C75.8770023,63.2 76.2357488,63.102001 76.48425,62.906 C76.7327512,62.709999 76.857,62.416002 76.857,62.024 C76.857,61.624998 76.7327512,61.3485008 76.48425,61.1945 C76.2357488,61.0404992 75.8770023,60.9635 75.408,60.9635 L74.4315,60.9635 L74.4315,63.2 Z M76.962,66.854 L75.4815,64.166 L74.4315,64.166 L74.4315,66.854 L73.2135,66.854 L73.2135,59.987 L75.534,59.987 C75.8910018,59.987 76.2234985,60.0219996 76.5315,60.092 C76.8395015,60.1620003 77.1054989,60.2757492 77.3295,60.43325 C77.5535011,60.5907508 77.7302494,60.7989987 77.85975,61.058 C77.9892506,61.3170013 78.054,61.6389981 78.054,62.024 C78.054,62.5490026 77.9297512,62.9724984 77.68125,63.2945 C77.4327488,63.6165016 77.1020021,63.8474993 76.689,63.9875 L78.327,66.854 L76.962,66.854 Z M81.6255,59.987 L82.9695,59.987 L84.2085,63.368 L84.66,64.67 L84.702,64.67 L85.143,63.368 L86.361,59.987 L87.705,59.987 L87.705,66.854 L86.5605,66.854 L86.5605,63.7145 L86.5675,63.3738336 L86.5675,63.3738336 L86.57625,63.1895 C86.5867501,63.0004991 86.5989999,62.809751 86.613,62.61725 L86.636625,62.331125 L86.636625,62.331125 L86.718,61.5305 L86.718,61.5305 L86.676,61.5305 L86.1195,63.095 L84.933,66.2135 L84.366,66.2135 L83.1795,63.095 L82.6335,61.5305 L82.5915,61.5305 L82.69125,62.61725 L82.69125,62.61725 C82.7087501,62.809751 82.7227499,63.0004991 82.73325,63.1895 C82.7437501,63.3785009 82.749,63.5534992 82.749,63.7145 L82.749,66.854 L81.6255,66.854 L81.6255,59.987 Z M89.433,59.987 L93.57,59.987 L93.57,61.016 L90.651,61.016 L90.651,62.7695 L93.1185,62.7695 L93.1185,63.7985 L90.651,63.7985 L90.651,65.825 L93.675,65.825 L93.675,66.854 L89.433,66.854 L89.433,59.987 Z M95.067,59.987 L96.9045,59.987 C97.9545053,59.987 98.7734971,60.2704972 99.3615,60.8375 C99.9495029,61.4045028 100.2435,62.2549943 100.2435,63.389 C100.2435,63.9560028 100.168251,64.4564978 100.01775,64.8905 C99.8672492,65.3245022 99.6502514,65.6867485 99.36675,65.97725 C99.0832486,66.2677515 98.740252,66.4864993 98.33775,66.6335 C97.935248,66.7805007 97.4785026,66.854 96.9675,66.854 L95.067,66.854 L95.067,59.987 Z M96.8205,65.867 C97.5205035,65.867 98.0577481,65.665752 98.43225,65.26325 C98.8067519,64.860748 98.994,64.2360042 98.994,63.389 C98.994,62.5489958 98.8050019,61.9365019 98.427,61.5515 C98.0489981,61.1664981 97.5135035,60.974 96.8205,60.974 L96.285,60.974 L96.285,65.867 L96.8205,65.867 Z M101.6145,59.987 L102.8325,59.987 L102.8325,66.854 L101.6145,66.854 L101.6145,59.987 Z M107.4795,64.04 L107.238,63.2 C107.125999,62.8359982 107.019251,62.4615019 106.91775,62.0765 L106.6185,60.932 L106.6185,60.932 L106.5765,60.932 L106.2825,62.08175 L106.2825,62.08175 C106.1845,62.4632519 106.079501,62.8359982 105.9675,63.2 L105.726,64.04 L107.4795,64.04 Z M107.7525,64.9955 L105.4425,64.9955 L104.907,66.854 L103.668,66.854 L105.9045,59.987 L107.3325,59.987 L109.569,66.854 L108.288,66.854 L107.7525,64.9955 Z M110.4045,59.987 L111.654,59.987 L113.796,63.851 L114.4995,65.3105 L114.5415,65.3105 L114.4785,64.5615005 C114.466833,64.430834 114.454583,64.2972507 114.44175,64.16075 C114.40325,63.751248 114.384,63.3540019 114.384,62.969 L114.384,59.987 L115.5495,59.987 L115.5495,66.854 L114.3,66.854 L112.158,62.99 L111.4545,61.5305 L111.4125,61.5305 L111.4755,62.2818329 C111.487167,62.4109438 111.499417,62.5419993 111.51225,62.675 C111.55075,63.074002 111.57,63.4659981 111.57,63.851 L111.57,66.854 L110.4045,66.854 L110.4045,59.987 Z M117.0675,62.57 C117.0675,62.3319988 117.142749,62.1360008 117.29325,61.982 C117.443751,61.8279992 117.630999,61.751 117.855,61.751 C118.079001,61.751 118.264499,61.8279992 118.4115,61.982 C118.558501,62.1360008 118.632,62.3319988 118.632,62.57 C118.632,62.8080012 118.558501,63.0039992 118.4115,63.158 C118.264499,63.3120008 118.079001,63.389 117.855,63.389 C117.630999,63.389 117.443751,63.3120008 117.29325,63.158 C117.142749,63.0039992 117.0675,62.8080012 117.0675,62.57 Z M117.0675,66.161 C117.0675,65.9229988 117.142749,65.7270008 117.29325,65.573 C117.443751,65.4189992 117.630999,65.342 117.855,65.342 C118.079001,65.342 118.264499,65.4189992 118.4115,65.573 C118.558501,65.7270008 118.632,65.9229988 118.632,66.161 C118.632,66.3990012 118.558501,66.5949992 118.4115,66.749 C118.264499,66.9030008 118.079001,66.98 117.855,66.98 C117.630999,66.98 117.443751,66.9030008 117.29325,66.749 C117.142749,66.5949992 117.0675,66.3990012 117.0675,66.161 Z M125.448,61.5935 C125.251999,61.4114991 125.063001,61.2732505 124.881,61.17875 C124.698999,61.0842495 124.482001,61.037 124.23,61.037 C123.942999,61.037 123.719001,61.1087493 123.558,61.25225 C123.396999,61.3957507 123.3165,61.6039986 123.3165,61.877 C123.3165,62.087001 123.386499,62.2602493 123.5265,62.39675 C123.666501,62.5332507 123.843249,62.6592494 124.05675,62.77475 C124.270251,62.8902506 124.499499,63.0057494 124.7445,63.12125 C124.989501,63.2367506 125.218749,63.3749992 125.43225,63.536 C125.645751,63.6970008 125.822499,63.8947488 125.9625,64.12925 C126.102501,64.3637512 126.1725,64.6559982 126.1725,65.006 C126.1725,65.5100025 126.032501,65.9317483 125.7525,66.27125 C125.472499,66.6107517 125.070003,66.8294995 124.545,66.9275 L124.545,68.009 L123.705,68.009 L123.705,66.959 C123.382998,66.9239998 123.059252,66.8382507 122.73375,66.70175 C122.408248,66.5652493 122.126501,66.3850011 121.8885,66.161 L122.4345,65.342 C122.679501,65.538001 122.927999,65.6954994 123.18,65.8145 C123.432001,65.9335006 123.701499,65.993 123.9885,65.993 C124.331502,65.993 124.586999,65.9142508 124.755,65.75675 C124.923001,65.5992492 125.007,65.3770014 125.007,65.09 C125.007,64.8589988 124.937001,64.6665008 124.797,64.5125 C124.656999,64.3584992 124.480251,64.2185006 124.26675,64.0925 C124.053249,63.9664994 123.824001,63.8457506 123.579,63.73025 C123.333999,63.6147494 123.104751,63.4782508 122.89125,63.32075 C122.677749,63.1632492 122.501001,62.9742511 122.361,62.75375 C122.220999,62.5332489 122.151,62.2585016 122.151,61.9295 C122.151,61.4394975 122.290999,61.0317516 122.571,60.70625 C122.851001,60.3807484 123.228998,60.1760004 123.705,60.092 L123.705,59.021 L124.545,59.021 L124.545,60.071 C124.881002,60.1130002 125.169749,60.2092492 125.41125,60.35975 C125.652751,60.5102508 125.871499,60.686999 126.0675,60.89 L125.448,61.5935 Z M129.3495,63.431 C129.538501,63.431 129.739749,63.3715006 129.95325,63.2525 C130.166751,63.1334994 130.364499,62.9340014 130.5465,62.654 C130.4835,62.0659971 130.338251,61.6390013 130.11075,61.373 C129.883249,61.1069987 129.608502,60.974 129.2865,60.974 C129.013499,60.974 128.779001,61.0824989 128.583,61.2995 C128.386999,61.5165011 128.289,61.827998 128.289,62.234 C128.289,62.633002 128.381749,62.932249 128.56725,63.13175 C128.752751,63.331251 129.013498,63.431 129.3495,63.431 Z M127.932,65.489 C128.058001,65.6360007 128.217249,65.7567495 128.40975,65.85125 C128.602251,65.9457505 128.799999,65.993 129.003,65.993 C129.213001,65.993 129.410749,65.9510004 129.59625,65.867 C129.781751,65.7829996 129.944499,65.644751 130.0845,65.45225 C130.224501,65.259749 130.33825,65.0060016 130.42575,64.691 C130.51325,64.3759984 130.564,63.9875023 130.578,63.5255 C130.381999,63.7705012 130.151001,63.9612493 129.885,64.09775 C129.618999,64.2342507 129.363501,64.3025 129.1185,64.3025 C128.831499,64.3025 128.569001,64.2605004 128.331,64.1765 C128.092999,64.0924996 127.888251,63.9647509 127.71675,63.79325 C127.545249,63.6217491 127.41225,63.4065013 127.31775,63.1475 C127.22325,62.8884987 127.176,62.5840017 127.176,62.234 C127.176,61.8979983 127.231999,61.5952513 127.344,61.32575 C127.456001,61.0562487 127.606499,60.8270009 127.7955,60.638 C127.984501,60.4489991 128.206749,60.3037505 128.46225,60.20225 C128.717751,60.1007495 128.988999,60.05 129.276,60.05 C129.598002,60.05 129.905999,60.1147494 130.2,60.24425 C130.494001,60.3737506 130.751249,60.5714987 130.97175,60.8375 C131.192251,61.1035013 131.367249,61.441248 131.49675,61.85075 C131.626251,62.260252 131.691,62.7449972 131.691,63.305 C131.691,63.9560033 131.619251,64.5124977 131.47575,64.9745 C131.332249,65.4365023 131.139751,65.8162485 130.89825,66.11375 C130.656749,66.4112515 130.376752,66.6299993 130.05825,66.77 C129.739748,66.9100007 129.409002,66.98 129.066,66.98 C128.666998,66.98 128.320501,66.9065007 128.0265,66.7595 C127.732499,66.6124993 127.484001,66.434001 127.281,66.224 L127.932,65.489 Z M132.558,66.854 L132.558,66.1505 L133.34235,65.3819002 C133.506149,65.2195005 133.662949,65.0627008 133.81275,64.9115 C134.187252,64.5334981 134.505749,64.1835016 134.76825,63.8615 C135.030751,63.5394984 135.231999,63.2385014 135.372,62.9585 C135.512001,62.6784986 135.582,62.4125013 135.582,62.1605 C135.582,61.8034982 135.487501,61.521751 135.2985,61.31525 C135.109499,61.108749 134.836502,61.0055 134.4795,61.0055 C134.220499,61.0055 133.984251,61.0789993 133.77075,61.226 C133.557249,61.3730007 133.359501,61.547999 133.1775,61.751 L132.5055,61.079 C132.813502,60.7499984 133.130248,60.4962509 133.45575,60.31775 C133.781252,60.1392491 134.174998,60.05 134.637,60.05 C134.959002,60.05 135.249499,60.0989995 135.5085,60.197 C135.767501,60.2950005 135.987999,60.4332491 136.17,60.61175 C136.352001,60.7902509 136.493749,61.0054987 136.59525,61.2575 C136.696751,61.5095013 136.7475,61.7894985 136.7475,62.0975 C136.7475,62.3915015 136.682751,62.6907485 136.55325,62.99525 C136.423749,63.2997515 136.248751,63.6077484 136.02825,63.91925 C135.807749,64.2307516 135.550501,64.5509984 135.2565,64.88 C134.962499,65.2090016 134.651002,65.5484982 134.322,65.8985 L134.889,65.85125 C135.092001,65.8337499 135.273999,65.825 135.435,65.825 L137.073,65.825 L137.073,66.854 L132.558,66.854 Z M139.0215,65.0165 C139.0215,65.3525017 139.140499,65.620249 139.3785,65.81975 C139.616501,66.019251 139.906998,66.119 140.25,66.119 C140.572002,66.119 140.836249,66.0315009 141.04275,65.8565 C141.249251,65.6814991 141.3525,65.4365016 141.3525,65.1215 C141.3525,64.9394991 141.3105,64.7837506 141.2265,64.65425 C141.1425,64.5247494 141.028751,64.4092505 140.88525,64.30775 C140.741749,64.2062495 140.572001,64.1135004 140.376,64.0295 L139.965334,63.8568334 C139.893778,63.8272779 139.820667,63.7973335 139.746,63.767 C139.535999,63.9210008 139.362751,64.1029989 139.22625,64.313 C139.089749,64.523001 139.0215,64.7574987 139.0215,65.0165 Z M140.67,63.0845 C140.852001,62.9024991 140.99025,62.7170009 141.08475,62.528 C141.17925,62.3389991 141.2265,62.139501 141.2265,61.9295 C141.2265,61.6354985 141.140751,61.392251 140.96925,61.19975 C140.797749,61.007249 140.554502,60.911 140.2395,60.911 C139.980499,60.911 139.763501,60.9897492 139.5885,61.14725 C139.413499,61.3047508 139.326,61.5304985 139.326,61.8245 C139.326,61.9925008 139.361,62.1394994 139.431,62.2655 C139.501,62.3915006 139.597249,62.5017495 139.71975,62.59625 C139.842251,62.6907505 139.983999,62.7782496 140.145,62.85875 C140.306001,62.9392504 140.480999,63.0144996 140.67,63.0845 Z M137.961,65.1425 C137.961,64.9324989 137.99425,64.7417509 138.06075,64.57025 C138.12725,64.3987491 138.216499,64.2430007 138.3285,64.103 C138.440501,63.9629993 138.568249,63.8370006 138.71175,63.725 C138.855251,63.6129994 139.007499,63.5150004 139.1685,63.431 L139.1685,63.389 C138.909499,63.2069991 138.690751,62.9900013 138.51225,62.738 C138.333749,62.4859987 138.2445,62.1815018 138.2445,61.8245 C138.2445,61.5514986 138.295249,61.3065011 138.39675,61.0895 C138.498251,60.8724989 138.638249,60.6870008 138.81675,60.533 C138.995251,60.3789992 139.208749,60.2600004 139.45725,60.176 C139.705751,60.0919996 139.973499,60.05 140.2605,60.05 C140.561502,60.05 140.832749,60.0937496 141.07425,60.18125 C141.315751,60.2687504 141.522249,60.3912492 141.69375,60.54875 C141.865251,60.7062508 141.9965,60.8952489 142.0875,61.11575 C142.1785,61.3362511 142.224,61.5829986 142.224,61.856 C142.224,62.0240008 142.19775,62.1832492 142.14525,62.33375 C142.09275,62.4842508 142.0245,62.6242494 141.9405,62.75375 C141.8565,62.8832506 141.760251,63.0022495 141.65175,63.11075 C141.543249,63.2192505 141.436501,63.3119996 141.3315,63.389 L141.3315,63.431 C141.485501,63.5150004 141.632499,63.6112495 141.7725,63.71975 C141.912501,63.8282505 142.034999,63.9524993 142.14,64.0925 C142.245001,64.2325007 142.329,64.3899991 142.392,64.565 C142.455,64.7400009 142.4865,64.9394989 142.4865,65.1635 C142.4865,65.4225013 142.432251,65.6622489 142.32375,65.88275 C142.215249,66.1032511 142.063001,66.2957492 141.867,66.46025 C141.670999,66.6247508 141.433001,66.7524995 141.153,66.8435 C140.872999,66.9345005 140.565002,66.98 140.229,66.98 C139.899998,66.98 139.597251,66.9345005 139.32075,66.8435 C139.044249,66.7524995 138.806251,66.6265008 138.60675,66.4655 C138.407249,66.3044992 138.249751,66.1120011 138.13425,65.888 C138.018749,65.6639989 137.961,65.4155014 137.961,65.1425 Z" id="CLUSTERMEDIAN:$928" fill="#4D4D8C" fill-rule="nonzero"></path>
                <path d="M91.954,45.711761 C91.1492695,46.4653214 89.5582904,46.8244345 88.454,46.854 C89.9363982,45.8206486 91.2293575,44.478662 91.954,42.854 C92.6478394,44.478662 94.0193465,45.7615176 95.454,46.854 C94.2719318,46.7653034 92.8365083,46.494887 91.954,45.711761" id="Fill-13" fill="#636363"></path>
                <polygon id="Fill-14" fill="#FFFFFF" points="95.9540714 28.8545714 95.9540714 25.3544643 93.9544286 25.3544643 93.9544286 26.8542857 91.954 24.854 86.454 30.3536072 87.4542143 30.3536072 87.4542143 35.854 90.4540714 35.854 90.4540714 31.3545357 93.4539286 31.3545357 93.4539286 35.854 96.4545714 35.854 96.4545714 30.3536072 97.454 30.3536072"></polygon>
                <path d="M92.704,57.854 L92.704,44.854 C92.704,44.4397864 92.3682136,44.104 91.954,44.104 C91.5397864,44.104 91.204,44.4397864 91.204,44.854 L91.204,57.854 C91.204,58.2682136 91.5397864,58.604 91.954,58.604 C92.3682136,58.604 92.704,58.2682136 92.704,57.854 Z" id="Stroke-12" fill="#636363" fill-rule="nonzero"></path>
            </g>
        </g>
    </g>
</svg>