<?xml version="1.0" encoding="UTF-8"?>
<svg width="305px" height="68px" viewBox="0 0 305 68" version="1.1" xmlns="http://www.w3.org/2000/svg" xmlns:xlink="http://www.w3.org/1999/xlink">
    <!-- Generator: Sketch 59.1 (86144) - https://sketch.com -->
    <title>Rent as Income</title>
    <desc>Created with Sketch.</desc>
    <g id="Export-Outlined-SVG" stroke="none" stroke-width="1" fill="none" fill-rule="evenodd">
        <g id="6" transform="translate(-843.000000, -640.000000)">
            <g id="Rent-as-Income" transform="translate(843.462000, 640.986000)">
                <polygon id="Fill-1" fill="#E0E0E0" points="1.538 34.014 298.538 34.014 298.538 24.014 1.538 24.014"></polygon>
                <path d="M2.413,41.014 L2.413,15.014 C2.413,14.8068932 2.24510678,14.639 2.038,14.639 C1.83089322,14.639 1.663,14.8068932 1.663,15.014 L1.663,41.014 C1.663,41.2211068 1.83089322,41.389 2.038,41.389 C2.24510678,41.389 2.413,41.2211068 2.413,41.014 Z" id="Stroke-2" fill="#D1D1D1" fill-rule="nonzero"></path>
                <path d="M76.413,41.014 L76.413,15.014 C76.413,14.8068932 76.2451068,14.639 76.038,14.639 C75.8308932,14.639 75.663,14.8068932 75.663,15.014 L75.663,41.014 C75.663,41.2211068 75.8308932,41.389 76.038,41.389 C76.2451068,41.389 76.413,41.2211068 76.413,41.014 Z" id="Stroke-3" fill="#D1D1D1" fill-rule="nonzero"></path>
                <path d="M150.413,41.014 L150.413,15.014 C150.413,14.8068932 150.245107,14.639 150.038,14.639 C149.830893,14.639 149.663,14.8068932 149.663,15.014 L149.663,41.014 C149.663,41.2211068 149.830893,41.389 150.038,41.389 C150.245107,41.389 150.413,41.2211068 150.413,41.014 Z" id="Stroke-4" fill="#D1D1D1" fill-rule="nonzero"></path>
                <path d="M224.413,41.014 L224.413,15.014 C224.413,14.8068932 224.245107,14.639 224.038,14.639 C223.830893,14.639 223.663,14.8068932 223.663,15.014 L223.663,41.014 C223.663,41.2211068 223.830893,41.389 224.038,41.389 C224.245107,41.389 224.413,41.2211068 224.413,41.014 Z" id="Stroke-5" fill="#D1D1D1" fill-rule="nonzero"></path>
                <path d="M299.413,41.014 L299.413,15.014 C299.413,14.8068932 299.245107,14.639 299.038,14.639 C298.830893,14.639 298.663,14.8068932 298.663,15.014 L298.663,41.014 C298.663,41.2211068 298.830893,41.389 299.038,41.389 C299.245107,41.389 299.413,41.2211068 299.413,41.014 Z" id="Stroke-6" fill="#D1D1D1" fill-rule="nonzero"></path>
                <path d="M239.693172,37.014 L80.3828276,37.014 C78.8181724,37.014 77.538,35.3509565 77.538,33.3183478 L77.538,23.7096522 C77.538,21.6770435 78.8181724,20.014 80.3828276,20.014 L239.693172,20.014 C241.257828,20.014 242.538,21.6770435 242.538,23.7096522 L242.538,33.3183478 C242.538,35.3509565 241.257828,37.014 239.693172,37.014" id="Fill-7" fill="#9D9DC6"></path>
                <path d="M201.45026,39.014 L85.6257397,39.014 C81.1795048,39.014 77.538,37.6806667 77.538,36.051037 L77.538,21.976963 C77.538,20.3480741 81.1795048,19.014 85.6257397,19.014 L201.45026,19.014 C205.898517,19.014 209.538,20.3480741 209.538,21.976963 L209.538,36.051037 C209.538,37.6806667 205.898517,39.014 201.45026,39.014" id="Fill-9" fill="#4D4D8C"></path>
                <path d="M166.6015,59.21 C166.902502,59.21 167.173749,59.2537496 167.41525,59.34125 C167.656751,59.4287504 167.863249,59.5512492 168.03475,59.70875 C168.206251,59.8662508 168.3375,60.0552489 168.4285,60.27575 C168.5195,60.4962511 168.565,60.7429986 168.565,61.016 C168.565,61.1840008 168.53875,61.3432492 168.48625,61.49375 C168.43375,61.6442508 168.3655,61.7842494 168.2815,61.91375 C168.1975,62.0432506 168.101251,62.1622495 167.99275,62.27075 C167.884249,62.3792505 167.777501,62.4719996 167.6725,62.549 L167.6725,62.591 C167.826501,62.6750004 167.973499,62.7712495 168.1135,62.87975 C168.253501,62.9882505 168.375999,63.1124993 168.481,63.2525 C168.586001,63.3925007 168.67,63.5499991 168.733,63.725 C168.796,63.9000009 168.8275,64.0994989 168.8275,64.3235 C168.8275,64.5825013 168.773251,64.8222489 168.66475,65.04275 C168.556249,65.2632511 168.404001,65.4557492 168.208,65.62025 C168.011999,65.7847508 167.774001,65.9124995 167.494,66.0035 C167.213999,66.0945005 166.906002,66.14 166.57,66.14 C166.240998,66.14 165.938251,66.0945005 165.66175,66.0035 C165.385249,65.9124995 165.147251,65.7865008 164.94775,65.6255 C164.748249,65.4644992 164.590751,65.2720011 164.47525,65.048 C164.359749,64.8239989 164.302,64.5755014 164.302,64.3025 C164.302,64.092499 164.33525,63.9017509 164.40175,63.73025 C164.46825,63.5587491 164.557499,63.4030007 164.6695,63.263 C164.781501,63.1229993 164.909249,62.9970006 165.05275,62.885 C165.196251,62.7729994 165.348499,62.6750004 165.5095,62.591 L165.5095,62.549 C165.250499,62.3669991 165.031751,62.1500013 164.85325,61.898 C164.674749,61.6459987 164.5855,61.3415018 164.5855,60.9845 C164.5855,60.7114986 164.636249,60.4665011 164.73775,60.2495 C164.839251,60.0324989 164.979249,59.8470008 165.15775,59.693 C165.336251,59.5389992 165.549749,59.4200004 165.79825,59.336 C166.046751,59.2519996 166.314499,59.21 166.6015,59.21 Z M154.939,64.502 C155.163001,64.502 155.348499,64.5789992 155.4955,64.733 C155.642501,64.8870008 155.716,65.0829988 155.716,65.321 C155.716,65.5590012 155.642501,65.7549992 155.4955,65.909 C155.348499,66.0630008 155.163001,66.14 154.939,66.14 C154.714999,66.14 154.527751,66.0630008 154.37725,65.909 C154.226749,65.7549992 154.1515,65.5590012 154.1515,65.321 C154.1515,65.0829988 154.226749,64.8870008 154.37725,64.733 C154.527751,64.5789992 154.714999,64.502 154.939,64.502 Z M176.1205,61.793 C176.603502,61.793 176.997248,61.9802481 177.30175,62.35475 C177.606252,62.7292519 177.7585,63.2629965 177.7585,63.956 C177.7585,64.6490035 177.606252,65.1862481 177.30175,65.56775 C176.997248,65.9492519 176.603502,66.14 176.1205,66.14 C175.637498,66.14 175.243752,65.9492519 174.93925,65.56775 C174.634748,65.1862481 174.4825,64.6490035 174.4825,63.956 C174.4825,63.2629965 174.634748,62.7292519 174.93925,62.35475 C175.243752,61.9802481 175.637498,61.793 176.1205,61.793 Z M88.192,59.147 L88.192,63.095 C88.192,63.4660019 88.2252497,63.7792487 88.29175,64.03475 C88.3582503,64.2902513 88.4527494,64.4949992 88.57525,64.649 C88.6977506,64.8030008 88.8429992,64.9132497 89.011,64.97975 C89.1790008,65.0462503 89.367999,65.0795 89.578,65.0795 C89.7880011,65.0795 89.9804991,65.0462503 90.1555,64.97975 C90.3305009,64.9132497 90.4809994,64.8030008 90.607,64.649 C90.7330006,64.4949992 90.8309997,64.2902513 90.901,64.03475 C90.9710004,63.7792487 91.006,63.4660019 91.006,63.095 L91.006,59.147 L92.1715,59.147 L92.1715,63.0005 C92.1715,63.5675028 92.1120006,64.048748 91.993,64.44425 C91.8739994,64.839752 91.7007511,65.1634987 91.47325,65.4155 C91.2457489,65.6675013 90.9727516,65.8512494 90.65425,65.96675 C90.3357484,66.0822506 89.977002,66.14 89.578,66.14 C89.178998,66.14 88.8202516,66.0822506 88.50175,65.96675 C88.1832484,65.8512494 87.9102511,65.6675013 87.68275,65.4155 C87.4552489,65.1634987 87.2802506,64.839752 87.15775,64.44425 C87.0352494,64.048748 86.974,63.5675028 86.974,63.0005 L86.974,59.147 L88.192,59.147 Z M175.8895,59.021 L172.1515,66.14 L171.406,66.14 L175.1545,59.021 L175.8895,59.021 Z M79.2235,59.021 C79.6435021,59.021 80.0197483,59.1084991 80.35225,59.2835 C80.6847517,59.4585009 80.9594989,59.6614988 81.1765,59.8925 L80.494,60.6485 C80.3189991,60.4734991 80.131751,60.3352505 79.93225,60.23375 C79.732749,60.1322495 79.5000013,60.0815 79.234,60.0815 C78.9469986,60.0815 78.6862512,60.1392494 78.45175,60.25475 C78.2172488,60.3702506 78.0142509,60.5347489 77.84275,60.74825 C77.6712491,60.9617511 77.5382505,61.2224985 77.44375,61.5305 C77.3492495,61.8385015 77.302,62.1849981 77.302,62.57 C77.302,63.3540039 77.4717483,63.9682478 77.81125,64.41275 C78.1507517,64.8572522 78.6109971,65.0795 79.192,65.0795 C79.5000015,65.0795 79.7677489,65.0200006 79.99525,64.901 C80.2227511,64.7819994 80.434499,64.6140011 80.6305,64.397 L81.313,65.1425 C81.0329986,65.4645016 80.7145018,65.7112491 80.3575,65.88275 C80.0004982,66.0542509 79.6050022,66.14 79.171,66.14 C78.7299978,66.14 78.3205019,66.0630008 77.9425,65.909 C77.5644981,65.7549992 77.2355014,65.5275015 76.9555,65.2265 C76.6754986,64.9254985 76.4550008,64.5545022 76.294,64.1135 C76.1329992,63.6724978 76.0525,63.1685028 76.0525,62.6015 C76.0525,62.0414972 76.1347492,61.5392522 76.29925,61.09475 C76.4637508,60.6502478 76.6894986,60.2740015 76.9765,59.966 C77.2635014,59.6579985 77.5994981,59.4235008 77.9845,59.2625 C78.3695019,59.1014992 78.7824978,59.021 79.2235,59.021 Z M95.8,59.021 C96.199002,59.021 96.5839982,59.0997492 96.955,59.25725 C97.3260019,59.4147508 97.6444987,59.6264987 97.9105,59.8925 L97.291,60.6695 C97.0669989,60.4874991 96.8360012,60.3440005 96.598,60.239 C96.3599988,60.1339995 96.0940015,60.0815 95.8,60.0815 C95.4709984,60.0815 95.208501,60.1532493 95.0125,60.29675 C94.816499,60.4402507 94.7185,60.6379987 94.7185,60.89 C94.7185,61.0230007 94.7482497,61.1367495 94.80775,61.23125 C94.8672503,61.3257505 94.9477495,61.4097496 95.04925,61.48325 C95.1507505,61.5567504 95.2679993,61.6232497 95.401,61.68275 L95.603125,61.7706875 L96.745,62.2445 C96.948001,62.3285004 97.1334992,62.4264994 97.3015,62.5385 C97.4695008,62.6505006 97.6147494,62.7799993 97.73725,62.927 C97.8597506,63.0740007 97.9559997,63.243749 98.026,63.43625 C98.0960004,63.628751 98.131,63.8509987 98.131,64.103 C98.131,64.3830014 98.0750006,64.6454988 97.963,64.8905 C97.8509994,65.1355012 97.6882511,65.3507491 97.47475,65.53625 C97.2612489,65.7217509 97.0022515,65.8687495 96.69775,65.97725 C96.3932485,66.0857505 96.0485019,66.14 95.6635,66.14 C95.2014977,66.14 94.7552522,66.0525009 94.32475,65.8775 C93.8942479,65.7024991 93.5145017,65.4540016 93.1855,65.132 L93.8995,64.3025 C94.1445012,64.5335012 94.4244984,64.7207493 94.7395,64.86425 C95.0545016,65.0077507 95.3694984,65.0795 95.6845,65.0795 C96.076502,65.0795 96.373999,64.9990008 96.577,64.838 C96.780001,64.6769992 96.8815,64.4635013 96.8815,64.1975 C96.8815,64.0574993 96.8552503,63.9385005 96.80275,63.8405 C96.7502497,63.7424995 96.6767505,63.6567504 96.58225,63.58325 C96.4877495,63.5097496 96.3757507,63.4415003 96.24625,63.3785 L96.1126666,63.3154999 L94.876,62.78 C94.7079992,62.7099996 94.5417508,62.6225005 94.37725,62.5175 C94.2127492,62.4124995 94.0640007,62.2865007 93.931,62.1395 C93.7979993,61.9924993 93.6912504,61.821001 93.61075,61.625 C93.5302496,61.428999 93.49,61.2050013 93.49,60.953 C93.49,60.6799986 93.5477494,60.4262512 93.66325,60.19175 C93.7787506,59.9572488 93.937999,59.7525009 94.141,59.5775 C94.344001,59.4024991 94.5872486,59.2660005 94.87075,59.168 C95.1542514,59.0699995 95.4639983,59.021 95.8,59.021 Z M120.0535,59.147 L121.2925,62.528 L121.744,63.83 L121.786,63.83 L122.227,62.528 L123.445,59.147 L124.789,59.147 L124.789,66.014 L123.6445,66.014 L123.6445,62.8745 L123.6515,62.5338336 L123.66025,62.3495 C123.67075,62.1604991 123.683,61.969751 123.697,61.77725 L123.720625,61.491125 L123.802,60.6905 L123.76,60.6905 L123.2035,62.255 L122.017,65.3735 L121.45,65.3735 L120.2635,62.255 L119.7175,60.6905 L119.6755,60.6905 L119.77525,61.77725 C119.79275,61.969751 119.80675,62.1604991 119.81725,62.3495 C119.82775,62.5385009 119.833,62.7134992 119.833,62.8745 L119.833,66.014 L118.7095,66.014 L118.7095,59.147 L120.0535,59.147 Z M83.6605,59.147 L83.6605,64.985 L86.5165,64.985 L86.5165,66.014 L82.4425,66.014 L82.4425,59.147 L83.6605,59.147 Z M103.534,59.147 L103.534,60.176 L101.5495,60.176 L101.5495,66.014 L100.3315,66.014 L100.3315,60.176 L98.347,60.176 L98.347,59.147 L103.534,59.147 Z M163.4455,59.336 L163.4455,60.071 C163.053498,60.5540024 162.736751,61.0142478 162.49525,61.45175 C162.253749,61.8892522 162.063001,62.3372477 161.923,62.79575 C161.782999,63.2542523 161.68325,63.7424974 161.62375,64.2605 C161.56425,64.7785026 161.5205,65.3629967 161.4925,66.014 L160.264,66.014 C160.292,65.418997 160.3445,64.8747525 160.4215,64.38125 C160.4985,63.8877475 160.608749,63.4170022 160.75225,62.969 C160.895751,62.5209978 161.079499,62.0852521 161.3035,61.66175 C161.527501,61.2382479 161.800498,60.8025022 162.1225,60.3545 L158.962,60.3545 L158.962,59.336 L163.4455,59.336 Z M130.654,59.147 L130.654,60.176 L127.735,60.176 L127.735,61.9295 L130.2025,61.9295 L130.2025,62.9585 L127.735,62.9585 L127.735,64.985 L130.759,64.985 L130.759,66.014 L126.517,66.014 L126.517,59.147 L130.654,59.147 Z M112.618,59.147 C112.975002,59.147 113.307498,59.1819996 113.6155,59.252 C113.923502,59.3220003 114.189499,59.4357492 114.4135,59.59325 C114.637501,59.7507508 114.814249,59.9589987 114.94375,60.218 C115.073251,60.4770013 115.138,60.7989981 115.138,61.184 C115.138,61.7090026 115.013751,62.1324984 114.76525,62.4545 C114.516749,62.7765016 114.186002,63.0074993 113.773,63.1475 L115.411,66.014 L114.046,66.014 L112.5655,63.326 L111.5155,63.326 L111.5155,66.014 L110.2975,66.014 L110.2975,59.147 L112.618,59.147 Z M144.4165,59.147 L146.653,66.014 L145.372,66.014 L144.8365,64.1555 L142.5265,64.1555 L141.991,66.014 L140.752,66.014 L142.9885,59.147 L144.4165,59.147 Z M133.9885,59.147 C135.038505,59.147 135.857497,59.4304972 136.4455,59.9975 C137.033503,60.5645028 137.3275,61.4149943 137.3275,62.549 C137.3275,63.1160028 137.252251,63.6164978 137.10175,64.0505 C136.951249,64.4845022 136.734251,64.8467485 136.45075,65.13725 C136.167249,65.4277515 135.824252,65.6464993 135.42175,65.7935 C135.019248,65.9405007 134.562503,66.014 134.0515,66.014 L132.151,66.014 L132.151,59.147 L133.9885,59.147 Z M108.8005,59.147 L108.8005,60.176 L105.8815,60.176 L105.8815,61.9295 L108.349,61.9295 L108.349,62.9585 L105.8815,62.9585 L105.8815,64.985 L108.9055,64.985 L108.9055,66.014 L104.6635,66.014 L104.6635,59.147 L108.8005,59.147 Z M139.9165,59.147 L139.9165,66.014 L138.6985,66.014 L138.6985,59.147 L139.9165,59.147 Z M148.738,59.147 L150.88,63.011 L151.5835,64.4705 L151.6255,64.4705 L151.5625,63.7215005 C151.550833,63.590834 151.538583,63.4572507 151.52575,63.32075 C151.48725,62.911248 151.468,62.5140019 151.468,62.129 L151.468,59.147 L152.6335,59.147 L152.6335,66.014 L151.384,66.014 L149.242,62.15 L148.5385,60.6905 L148.4965,60.6905 L148.5595,61.4418329 C148.571167,61.5709438 148.583417,61.7019993 148.59625,61.835 C148.63475,62.234002 148.654,62.6259981 148.654,63.011 L148.654,66.014 L147.4885,66.014 L147.4885,59.147 L148.738,59.147 Z M176.1205,62.4965 C175.896499,62.4965 175.712751,62.6102489 175.56925,62.83775 C175.425749,63.0652511 175.354,63.4379974 175.354,63.956 C175.354,64.4740026 175.425749,64.8502488 175.56925,65.08475 C175.712751,65.3192512 175.896499,65.4365 176.1205,65.4365 C176.344501,65.4365 176.528249,65.3192512 176.67175,65.08475 C176.815251,64.8502488 176.887,64.4740026 176.887,63.956 C176.887,63.4379974 176.815251,63.0652511 176.67175,62.83775 C176.528249,62.6102489 176.344501,62.4965 176.1205,62.4965 Z M166.087,62.927 C165.876999,63.0810008 165.703751,63.2629989 165.56725,63.473 C165.430749,63.683001 165.3625,63.9174987 165.3625,64.1765 C165.3625,64.5125017 165.481499,64.780249 165.7195,64.97975 C165.957501,65.179251 166.247998,65.279 166.591,65.279 C166.913002,65.279 167.177249,65.1915009 167.38375,65.0165 C167.590251,64.8414991 167.6935,64.5965016 167.6935,64.2815 C167.6935,64.0994991 167.6515,63.9437506 167.5675,63.81425 C167.4835,63.6847494 167.369751,63.5692505 167.22625,63.46775 C167.082749,63.3662495 166.913001,63.2735004 166.717,63.1895 L166.306334,63.0168334 C166.234778,62.9872779 166.161667,62.9573335 166.087,62.927 Z M133.9045,60.134 L133.369,60.134 L133.369,65.027 L133.9045,65.027 C134.604504,65.027 135.141748,64.825752 135.51625,64.42325 C135.890752,64.020748 136.078,63.3960042 136.078,62.549 C136.078,61.7089958 135.889002,61.0965019 135.511,60.7115 C135.132998,60.3264981 134.597503,60.134 133.9045,60.134 Z M171.196,59.021 C171.679002,59.021 172.072748,59.2082481 172.37725,59.58275 C172.681752,59.9572519 172.834,60.4909965 172.834,61.184 C172.834,61.8770035 172.681752,62.4142481 172.37725,62.79575 C172.072748,63.1772519 171.679002,63.368 171.196,63.368 C170.712998,63.368 170.319252,63.1772519 170.01475,62.79575 C169.710248,62.4142481 169.558,61.8770035 169.558,61.184 C169.558,60.4909965 169.710248,59.9572519 170.01475,59.58275 C170.319252,59.2082481 170.712998,59.021 171.196,59.021 Z M143.7025,60.092 L143.6605,60.092 L143.3665,61.24175 C143.2685,61.6232519 143.163501,61.9959982 143.0515,62.36 L142.81,63.2 L144.5635,63.2 L144.322,62.36 C144.209999,61.9959982 144.103251,61.6215019 144.00175,61.2365 L143.7025,60.092 Z M171.196,59.7245 C170.971999,59.7245 170.788251,59.8382489 170.64475,60.06575 C170.501249,60.2932511 170.4295,60.6659974 170.4295,61.184 C170.4295,61.7020026 170.501249,62.0782488 170.64475,62.31275 C170.788251,62.5472512 170.971999,62.6645 171.196,62.6645 C171.420001,62.6645 171.603749,62.5472512 171.74725,62.31275 C171.890751,62.0782488 171.9625,61.7020026 171.9625,61.184 C171.9625,60.6659974 171.890751,60.2932511 171.74725,60.06575 C171.603749,59.8382489 171.420001,59.7245 171.196,59.7245 Z M154.939,60.911 C155.163001,60.911 155.348499,60.9879992 155.4955,61.142 C155.642501,61.2960008 155.716,61.4919988 155.716,61.73 C155.716,61.9680012 155.642501,62.1639992 155.4955,62.318 C155.348499,62.4720008 155.163001,62.549 154.939,62.549 C154.714999,62.549 154.527751,62.4720008 154.37725,62.318 C154.226749,62.1639992 154.1515,61.9680012 154.1515,61.73 C154.1515,61.4919988 154.226749,61.2960008 154.37725,61.142 C154.527751,60.9879992 154.714999,60.911 154.939,60.911 Z M112.492,60.1235 L111.5155,60.1235 L111.5155,62.36 L112.492,62.36 C112.961002,62.36 113.319749,62.262001 113.56825,62.066 C113.816751,61.869999 113.941,61.576002 113.941,61.184 C113.941,60.784998 113.816751,60.5085008 113.56825,60.3545 C113.319749,60.2004992 112.961002,60.1235 112.492,60.1235 Z M166.5805,60.071 C166.321499,60.071 166.104501,60.1497492 165.9295,60.30725 C165.754499,60.4647508 165.667,60.6904985 165.667,60.9845 C165.667,61.1525008 165.702,61.2994994 165.772,61.4255 C165.842,61.5515006 165.938249,61.6617495 166.06075,61.75625 C166.183251,61.8507505 166.324999,61.9382496 166.486,62.01875 C166.647001,62.0992504 166.821999,62.1744996 167.011,62.2445 C167.193001,62.0624991 167.33125,61.8770009 167.42575,61.688 C167.52025,61.4989991 167.5675,61.299501 167.5675,61.0895 C167.5675,60.7954985 167.481751,60.552251 167.31025,60.35975 C167.138749,60.167249 166.895502,60.071 166.5805,60.071 Z" id="Combined-Shape" fill="#4D4D8C" fill-rule="nonzero"></path>
                <path d="M2.1525,0.189 C2.82450336,0.189 3.34949811,0.48299706 3.7275,1.071 C4.10550189,1.65900294 4.2945,2.51649437 4.2945,3.6435 C4.2945,4.77050564 4.10550189,5.63499699 3.7275,6.237 C3.34949811,6.83900301 2.82450336,7.14 2.1525,7.14 C1.47349661,7.14 0.94500189,6.83900301 0.567,6.237 C0.18899811,5.63499699 0,4.77050564 0,3.6435 C0,2.51649437 0.18899811,1.65900294 0.567,1.071 C0.94500189,0.48299706 1.47349661,0.189 2.1525,0.189 Z M11.2365,1.13686838e-13 L7.4355,7.14 L6.8475,7.14 L10.6485,1.13686838e-13 L11.2365,1.13686838e-13 Z M11.457,2.793 C11.9260023,2.793 12.3039986,2.98024813 12.591,3.35475 C12.8780014,3.72925187 13.0215,4.26299654 13.0215,4.956 C13.0215,5.6560035 12.8780014,6.19499811 12.591,6.573 C12.3039986,6.95100189 11.9260023,7.14 11.457,7.14 C10.9809976,7.14 10.6012514,6.95100189 10.31775,6.573 C10.0342486,6.19499811 9.8925,5.6560035 9.8925,4.956 C9.8925,4.26299654 10.0342486,3.72925187 10.31775,3.35475 C10.6012514,2.98024813 10.9809976,2.793 11.457,2.793 Z M73.9165,0.315 L73.9165,1.0605 L71.323,1.0605 L71.1445,3.045 C71.3055008,2.96099958 71.4664992,2.89450025 71.6275,2.8455 C71.7885008,2.79649976 71.970499,2.772 72.1735,2.772 C72.4605014,2.772 72.7299987,2.81399958 72.982,2.898 C73.2340013,2.98200042 73.4544991,3.10974914 73.6435,3.28125 C73.8325009,3.45275086 73.9812495,3.66974869 74.08975,3.93225 C74.1982505,4.19475131 74.2525,4.50799818 74.2525,4.872 C74.2525,5.23600182 74.1895006,5.5579986 74.0635,5.838 C73.9374994,6.1180014 73.7695011,6.35424904 73.5595,6.54675 C73.3494989,6.73925096 73.1097513,6.88624949 72.84025,6.98775 C72.5707487,7.08925051 72.2890015,7.14 71.995,7.14 C71.7289987,7.14 71.4857511,7.11375026 71.26525,7.06125 C71.0447489,7.00874974 70.8452509,6.94050042 70.66675,6.8565 C70.4882491,6.77249958 70.3272507,6.67625054 70.18375,6.56775 C70.0402493,6.45924946 69.9125006,6.3455006 69.8005,6.2265 L70.2205,5.6595 C70.416501,5.86250102 70.6492487,6.04099923 70.91875,6.195 C71.1882513,6.34900077 71.518998,6.426 71.911,6.426 C72.114001,6.426 72.3047491,6.38925037 72.48325,6.31575 C72.6617509,6.24224963 72.8174993,6.13900067 72.9505,6.006 C73.0835007,5.87299934 73.1884996,5.71200095 73.2655,5.523 C73.3425004,5.33399906 73.381,5.12400116 73.381,4.893 C73.381,4.43099769 73.2515013,4.0705013 72.9925,3.8115 C72.7334987,3.55249871 72.3870022,3.423 71.953,3.423 C71.7219988,3.423 71.5242508,3.45799965 71.35975,3.528 C71.1952492,3.59800035 71.011501,3.69949934 70.8085,3.8325 L70.3465,3.5385 L70.567,0.315 L73.9165,0.315 Z M302.834,2.793 C303.303002,2.793 303.680999,2.98024813 303.968,3.35475 C304.255001,3.72925187 304.3985,4.26299654 304.3985,4.956 C304.3985,5.6560035 304.255001,6.19499811 303.968,6.573 C303.680999,6.95100189 303.303002,7.14 302.834,7.14 C302.357998,7.14 301.978251,6.95100189 301.69475,6.573 C301.411249,6.19499811 301.2695,5.6560035 301.2695,4.956 C301.2695,4.26299654 301.411249,3.72925187 301.69475,3.35475 C301.978251,2.98024813 302.357998,2.793 302.834,2.793 Z M302.6135,1.13686838e-13 L298.8125,7.14 L298.2245,7.14 L302.0255,1.13686838e-13 L302.6135,1.13686838e-13 Z M160.834,2.793 C161.303002,2.793 161.680999,2.98024813 161.968,3.35475 C162.255001,3.72925187 162.3985,4.26299654 162.3985,4.956 C162.3985,5.6560035 162.255001,6.19499811 161.968,6.573 C161.680999,6.95100189 161.303002,7.14 160.834,7.14 C160.357998,7.14 159.978251,6.95100189 159.69475,6.573 C159.411249,6.19499811 159.2695,5.6560035 159.2695,4.956 C159.2695,4.26299654 159.411249,3.72925187 159.69475,3.35475 C159.978251,2.98024813 160.357998,2.793 160.834,2.793 Z M160.6135,1.13686838e-13 L156.8125,7.14 L156.2245,7.14 L160.0255,1.13686838e-13 L160.6135,1.13686838e-13 Z M77.341,0.189 C78.0130034,0.189 78.5379981,0.48299706 78.916,1.071 C79.2940019,1.65900294 79.483,2.51649437 79.483,3.6435 C79.483,4.77050564 79.2940019,5.63499699 78.916,6.237 C78.5379981,6.83900301 78.0130034,7.14 77.341,7.14 C76.6619966,7.14 76.1335019,6.83900301 75.7555,6.237 C75.3774981,5.63499699 75.1885,4.77050564 75.1885,3.6435 C75.1885,2.51649437 75.3774981,1.65900294 75.7555,1.071 C76.1335019,0.48299706 76.6619966,0.189 77.341,0.189 Z M86.425,1.13686838e-13 L82.624,7.14 L82.036,7.14 L85.837,1.13686838e-13 L86.425,1.13686838e-13 Z M86.6455,2.793 C87.1145023,2.793 87.4924986,2.98024813 87.7795,3.35475 C88.0665014,3.72925187 88.21,4.26299654 88.21,4.956 C88.21,5.6560035 88.0665014,6.19499811 87.7795,6.573 C87.4924986,6.95100189 87.1145023,7.14 86.6455,7.14 C86.1694976,7.14 85.7897514,6.95100189 85.50625,6.573 C85.2227486,6.19499811 85.081,5.6560035 85.081,4.956 C85.081,4.26299654 85.2227486,3.72925187 85.50625,3.35475 C85.7897514,2.98024813 86.1694976,2.793 86.6455,2.793 Z M151.5295,0.189 C152.201503,0.189 152.726498,0.48299706 153.1045,1.071 C153.482502,1.65900294 153.6715,2.51649437 153.6715,3.6435 C153.6715,4.77050564 153.482502,5.63499699 153.1045,6.237 C152.726498,6.83900301 152.201503,7.14 151.5295,7.14 C150.850497,7.14 150.322002,6.83900301 149.944,6.237 C149.565998,5.63499699 149.377,4.77050564 149.377,3.6435 C149.377,2.51649437 149.565998,1.65900294 149.944,1.071 C150.322002,0.48299706 150.850497,0.189 151.5295,0.189 Z M293.5295,0.189 C294.201503,0.189 294.726498,0.48299706 295.1045,1.071 C295.482502,1.65900294 295.6715,2.51649437 295.6715,3.6435 C295.6715,4.77050564 295.482502,5.63499699 295.1045,6.237 C294.726498,6.83900301 294.201503,7.14 293.5295,7.14 C292.850497,7.14 292.322002,6.83900301 291.944,6.237 C291.565998,5.63499699 291.377,4.77050564 291.377,3.6435 C291.377,2.51649437 291.565998,1.65900294 291.944,1.071 C292.322002,0.48299706 292.850497,0.189 293.5295,0.189 Z M225.105,0.315 L225.105,1.0605 L222.5115,1.0605 L222.333,3.045 C222.494001,2.96099958 222.654999,2.89450025 222.816,2.8455 C222.977001,2.79649976 223.158999,2.772 223.362,2.772 C223.649001,2.772 223.918499,2.81399958 224.1705,2.898 C224.422501,2.98200042 224.642999,3.10974914 224.832,3.28125 C225.021001,3.45275086 225.169749,3.66974869 225.27825,3.93225 C225.386751,4.19475131 225.441,4.50799818 225.441,4.872 C225.441,5.23600182 225.378001,5.5579986 225.252,5.838 C225.125999,6.1180014 224.958001,6.35424904 224.748,6.54675 C224.537999,6.73925096 224.298251,6.88624949 224.02875,6.98775 C223.759249,7.08925051 223.477501,7.14 223.1835,7.14 C222.917499,7.14 222.674251,7.11375026 222.45375,7.06125 C222.233249,7.00874974 222.033751,6.94050042 221.85525,6.8565 C221.676749,6.77249958 221.515751,6.67625054 221.37225,6.56775 C221.228749,6.45924946 221.101001,6.3455006 220.989,6.2265 L221.409,5.6595 C221.605001,5.86250102 221.837749,6.04099923 222.10725,6.195 C222.376751,6.34900077 222.707498,6.426 223.0995,6.426 C223.302501,6.426 223.493249,6.38925037 223.67175,6.31575 C223.850251,6.24224963 224.005999,6.13900067 224.139,6.006 C224.272001,5.87299934 224.377,5.71200095 224.454,5.523 C224.531,5.33399906 224.5695,5.12400116 224.5695,4.893 C224.5695,4.43099769 224.440001,4.0705013 224.181,3.8115 C223.921999,3.55249871 223.575502,3.423 223.1415,3.423 C222.910499,3.423 222.712751,3.45799965 222.54825,3.528 C222.383749,3.59800035 222.200001,3.69949934 221.997,3.8325 L221.535,3.5385 L221.7555,0.315 L225.105,0.315 Z M288.341,0.189 C289.013003,0.189 289.537998,0.48299706 289.916,1.071 C290.294002,1.65900294 290.483,2.51649437 290.483,3.6435 C290.483,4.77050564 290.294002,5.63499699 289.916,6.237 C289.537998,6.83900301 289.013003,7.14 288.341,7.14 C287.661997,7.14 287.133502,6.83900301 286.7555,6.237 C286.377498,5.63499699 286.1885,4.77050564 286.1885,3.6435 C286.1885,2.51649437 286.377498,1.65900294 286.7555,1.071 C287.133502,0.48299706 287.661997,0.189 288.341,0.189 Z M146.341,0.189 C147.013003,0.189 147.537998,0.48299706 147.916,1.071 C148.294002,1.65900294 148.483,2.51649437 148.483,3.6435 C148.483,4.77050564 148.294002,5.63499699 147.916,6.237 C147.537998,6.83900301 147.013003,7.14 146.341,7.14 C145.661997,7.14 145.133502,6.83900301 144.7555,6.237 C144.377498,5.63499699 144.1885,4.77050564 144.1885,3.6435 C144.1885,2.51649437 144.377498,1.65900294 144.7555,1.071 C145.133502,0.48299706 145.661997,0.189 146.341,0.189 Z M228.5295,0.189 C229.201503,0.189 229.726498,0.48299706 230.1045,1.071 C230.482502,1.65900294 230.6715,2.51649437 230.6715,3.6435 C230.6715,4.77050564 230.482502,5.63499699 230.1045,6.237 C229.726498,6.83900301 229.201503,7.14 228.5295,7.14 C227.850497,7.14 227.322002,6.83900301 226.944,6.237 C226.565998,5.63499699 226.377,4.77050564 226.377,3.6435 C226.377,2.51649437 226.565998,1.65900294 226.944,1.071 C227.322002,0.48299706 227.850497,0.189 228.5295,0.189 Z M237.6135,1.13686838e-13 L233.8125,7.14 L233.2245,7.14 L237.0255,1.13686838e-13 L237.6135,1.13686838e-13 Z M237.834,2.793 C238.303002,2.793 238.680999,2.98024813 238.968,3.35475 C239.255001,3.72925187 239.3985,4.26299654 239.3985,4.956 C239.3985,5.6560035 239.255001,6.19499811 238.968,6.573 C238.680999,6.95100189 238.303002,7.14 237.834,7.14 C237.357998,7.14 236.978251,6.95100189 236.69475,6.573 C236.411249,6.19499811 236.2695,5.6560035 236.2695,4.956 C236.2695,4.26299654 236.411249,3.72925187 236.69475,3.35475 C236.978251,2.98024813 237.357998,2.793 237.834,2.793 Z M282.9425,0.189 C283.565503,0.189 284.055498,0.369248198 284.4125,0.72975 C284.769502,1.0902518 284.948,1.56799703 284.948,2.163 C284.948,2.47800158 284.879751,2.79474841 284.74325,3.11325 C284.606749,3.43175159 284.417751,3.7607483 284.17625,4.10025 C283.934749,4.4397517 283.647752,4.79324816 283.31525,5.16075 L282.791563,5.72906241 C282.608688,5.92418693 282.417501,6.12499897 282.218,6.3315 L282.785,6.2895 C282.981001,6.27549993 283.166499,6.2685 283.3415,6.2685 L285.284,6.2685 L285.284,7.014 L280.958,7.014 L280.958,6.4995 L281.80472,5.64522015 C281.979439,5.46714057 282.145199,5.29690081 282.302,5.1345 C282.694002,4.72849797 283.022999,4.35225173 283.289,4.00575 C283.555001,3.65924827 283.757999,3.34075145 283.898,3.05025 C284.038001,2.75974855 284.108,2.47800137 284.108,2.205 C284.108,1.81999808 284.003001,1.50500123 283.793,1.26 C283.582999,1.01499878 283.264502,0.8925 282.8375,0.8925 C282.557499,0.8925 282.298501,0.971249213 282.0605,1.12875 C281.822499,1.28625079 281.605501,1.47699888 281.4095,1.701 L280.916,1.2075 C281.196001,0.89949846 281.493498,0.652750928 281.8085,0.46725 C282.123502,0.281749073 282.501498,0.189 282.9425,0.189 Z M218.7615,0.315 L218.7615,6.3 L220.1475,6.3 L220.1475,7.014 L216.3675,7.014 L216.3675,6.3 L217.9005,6.3 L217.9005,1.365 L216.6825,1.365 L216.6825,0.8085 C216.990502,0.75249972 217.258249,0.684250403 217.48575,0.60375 C217.713251,0.523249598 217.917999,0.42700056 218.1,0.315 L218.7615,0.315 Z M141.7615,0.315 L141.7615,6.3 L143.1475,6.3 L143.1475,7.014 L139.3675,7.014 L139.3675,6.3 L140.9005,6.3 L140.9005,1.365 L139.6825,1.365 L139.6825,0.8085 C139.990502,0.75249972 140.258249,0.684250403 140.48575,0.60375 C140.713251,0.523249598 140.917999,0.42700056 141.1,0.315 L141.7615,0.315 Z M160.834,3.3285 C160.560999,3.3285 160.340501,3.46324865 160.1725,3.73275 C160.004499,4.00225135 159.9205,4.40999727 159.9205,4.956 C159.9205,5.50200273 160.004499,5.91324862 160.1725,6.18975 C160.340501,6.46625138 160.560999,6.6045 160.834,6.6045 C161.100001,6.6045 161.316999,6.46625138 161.485,6.18975 C161.653001,5.91324862 161.737,5.50200273 161.737,4.956 C161.737,4.40999727 161.653001,4.00225135 161.485,3.73275 C161.316999,3.46324865 161.100001,3.3285 160.834,3.3285 Z M237.834,3.3285 C237.560999,3.3285 237.340501,3.46324865 237.1725,3.73275 C237.004499,4.00225135 236.9205,4.40999727 236.9205,4.956 C236.9205,5.50200273 237.004499,5.91324862 237.1725,6.18975 C237.340501,6.46625138 237.560999,6.6045 237.834,6.6045 C238.100001,6.6045 238.316999,6.46625138 238.485,6.18975 C238.653001,5.91324862 238.737,5.50200273 238.737,4.956 C238.737,4.40999727 238.653001,4.00225135 238.485,3.73275 C238.316999,3.46324865 238.100001,3.3285 237.834,3.3285 Z M11.457,3.3285 C11.1839986,3.3285 10.9635008,3.46324865 10.7955,3.73275 C10.6274992,4.00225135 10.5435,4.40999727 10.5435,4.956 C10.5435,5.50200273 10.6274992,5.91324862 10.7955,6.18975 C10.9635008,6.46625138 11.1839986,6.6045 11.457,6.6045 C11.7230013,6.6045 11.9399992,6.46625138 12.108,6.18975 C12.2760008,5.91324862 12.36,5.50200273 12.36,4.956 C12.36,4.40999727 12.2760008,4.00225135 12.108,3.73275 C11.9399992,3.46324865 11.7230013,3.3285 11.457,3.3285 Z M86.6455,3.3285 C86.3724986,3.3285 86.1520008,3.46324865 85.984,3.73275 C85.8159992,4.00225135 85.732,4.40999727 85.732,4.956 C85.732,5.50200273 85.8159992,5.91324862 85.984,6.18975 C86.1520008,6.46625138 86.3724986,6.6045 86.6455,6.6045 C86.9115013,6.6045 87.1284992,6.46625138 87.2965,6.18975 C87.4645008,5.91324862 87.5485,5.50200273 87.5485,4.956 C87.5485,4.40999727 87.4645008,4.00225135 87.2965,3.73275 C87.1284992,3.46324865 86.9115013,3.3285 86.6455,3.3285 Z M302.834,3.3285 C302.560999,3.3285 302.340501,3.46324865 302.1725,3.73275 C302.004499,4.00225135 301.9205,4.40999727 301.9205,4.956 C301.9205,5.50200273 302.004499,5.91324862 302.1725,6.18975 C302.340501,6.46625138 302.560999,6.6045 302.834,6.6045 C303.100001,6.6045 303.316999,6.46625138 303.485,6.18975 C303.653001,5.91324862 303.737,5.50200273 303.737,4.956 C303.737,4.40999727 303.653001,4.00225135 303.485,3.73275 C303.316999,3.46324865 303.100001,3.3285 302.834,3.3285 Z M2.1525,0.882 C1.95649902,0.882 1.77800081,0.934499475 1.617,1.0395 C1.4559992,1.14450053 1.31775058,1.3072489 1.20225,1.52775 C1.08674942,1.7482511 0.997500315,2.03349825 0.9345,2.3835 C0.871499685,2.73350175 0.84,3.15349755 0.84,3.6435 C0.84,4.6235049 0.960748792,5.33574778 1.20225,5.78025 C1.44375121,6.22475222 1.76049804,6.447 2.1525,6.447 C2.34850098,6.447 2.52524921,6.39275054 2.68275,6.28425 C2.84025079,6.17574946 2.97674942,6.00775114 3.09225,5.78025 C3.20775058,5.55274886 3.29699969,5.26225177 3.36,4.90875 C3.42300031,4.55524823 3.4545,4.13350245 3.4545,3.6435 C3.4545,3.15349755 3.42300031,2.73350175 3.36,2.3835 C3.29699969,2.03349825 3.20775058,1.7482511 3.09225,1.52775 C2.97674942,1.3072489 2.84025079,1.14450053 2.68275,1.0395 C2.52524921,0.934499475 2.34850098,0.882 2.1525,0.882 Z M77.341,0.882 C77.144999,0.882 76.9665008,0.934499475 76.8055,1.0395 C76.6444992,1.14450053 76.5062506,1.3072489 76.39075,1.52775 C76.2752494,1.7482511 76.1860003,2.03349825 76.123,2.3835 C76.0599997,2.73350175 76.0285,3.15349755 76.0285,3.6435 C76.0285,4.6235049 76.1492488,5.33574778 76.39075,5.78025 C76.6322512,6.22475222 76.948998,6.447 77.341,6.447 C77.537001,6.447 77.7137492,6.39275054 77.87125,6.28425 C78.0287508,6.17574946 78.1652494,6.00775114 78.28075,5.78025 C78.3962506,5.55274886 78.4854997,5.26225177 78.5485,4.90875 C78.6115003,4.55524823 78.643,4.13350245 78.643,3.6435 C78.643,3.15349755 78.6115003,2.73350175 78.5485,2.3835 C78.4854997,2.03349825 78.3962506,1.7482511 78.28075,1.52775 C78.1652494,1.3072489 78.0287508,1.14450053 77.87125,1.0395 C77.7137492,0.934499475 77.537001,0.882 77.341,0.882 Z M228.5295,0.882 C228.333499,0.882 228.155001,0.934499475 227.994,1.0395 C227.832999,1.14450053 227.694751,1.3072489 227.57925,1.52775 C227.463749,1.7482511 227.3745,2.03349825 227.3115,2.3835 C227.2485,2.73350175 227.217,3.15349755 227.217,3.6435 C227.217,4.6235049 227.337749,5.33574778 227.57925,5.78025 C227.820751,6.22475222 228.137498,6.447 228.5295,6.447 C228.725501,6.447 228.902249,6.39275054 229.05975,6.28425 C229.217251,6.17574946 229.353749,6.00775114 229.46925,5.78025 C229.584751,5.55274886 229.674,5.26225177 229.737,4.90875 C229.8,4.55524823 229.8315,4.13350245 229.8315,3.6435 C229.8315,3.15349755 229.8,2.73350175 229.737,2.3835 C229.674,2.03349825 229.584751,1.7482511 229.46925,1.52775 C229.353749,1.3072489 229.217251,1.14450053 229.05975,1.0395 C228.902249,0.934499475 228.725501,0.882 228.5295,0.882 Z M146.341,0.882 C146.144999,0.882 145.966501,0.934499475 145.8055,1.0395 C145.644499,1.14450053 145.506251,1.3072489 145.39075,1.52775 C145.275249,1.7482511 145.186,2.03349825 145.123,2.3835 C145.06,2.73350175 145.0285,3.15349755 145.0285,3.6435 C145.0285,4.6235049 145.149249,5.33574778 145.39075,5.78025 C145.632251,6.22475222 145.948998,6.447 146.341,6.447 C146.537001,6.447 146.713749,6.39275054 146.87125,6.28425 C147.028751,6.17574946 147.165249,6.00775114 147.28075,5.78025 C147.396251,5.55274886 147.4855,5.26225177 147.5485,4.90875 C147.6115,4.55524823 147.643,4.13350245 147.643,3.6435 C147.643,3.15349755 147.6115,2.73350175 147.5485,2.3835 C147.4855,2.03349825 147.396251,1.7482511 147.28075,1.52775 C147.165249,1.3072489 147.028751,1.14450053 146.87125,1.0395 C146.713749,0.934499475 146.537001,0.882 146.341,0.882 Z M151.5295,0.882 C151.333499,0.882 151.155001,0.934499475 150.994,1.0395 C150.832999,1.14450053 150.694751,1.3072489 150.57925,1.52775 C150.463749,1.7482511 150.3745,2.03349825 150.3115,2.3835 C150.2485,2.73350175 150.217,3.15349755 150.217,3.6435 C150.217,4.6235049 150.337749,5.33574778 150.57925,5.78025 C150.820751,6.22475222 151.137498,6.447 151.5295,6.447 C151.725501,6.447 151.902249,6.39275054 152.05975,6.28425 C152.217251,6.17574946 152.353749,6.00775114 152.46925,5.78025 C152.584751,5.55274886 152.674,5.26225177 152.737,4.90875 C152.8,4.55524823 152.8315,4.13350245 152.8315,3.6435 C152.8315,3.15349755 152.8,2.73350175 152.737,2.3835 C152.674,2.03349825 152.584751,1.7482511 152.46925,1.52775 C152.353749,1.3072489 152.217251,1.14450053 152.05975,1.0395 C151.902249,0.934499475 151.725501,0.882 151.5295,0.882 Z M288.341,0.882 C288.144999,0.882 287.966501,0.934499475 287.8055,1.0395 C287.644499,1.14450053 287.506251,1.3072489 287.39075,1.52775 C287.275249,1.7482511 287.186,2.03349825 287.123,2.3835 C287.06,2.73350175 287.0285,3.15349755 287.0285,3.6435 C287.0285,4.6235049 287.149249,5.33574778 287.39075,5.78025 C287.632251,6.22475222 287.948998,6.447 288.341,6.447 C288.537001,6.447 288.713749,6.39275054 288.87125,6.28425 C289.028751,6.17574946 289.165249,6.00775114 289.28075,5.78025 C289.396251,5.55274886 289.4855,5.26225177 289.5485,4.90875 C289.6115,4.55524823 289.643,4.13350245 289.643,3.6435 C289.643,3.15349755 289.6115,2.73350175 289.5485,2.3835 C289.4855,2.03349825 289.396251,1.7482511 289.28075,1.52775 C289.165249,1.3072489 289.028751,1.14450053 288.87125,1.0395 C288.713749,0.934499475 288.537001,0.882 288.341,0.882 Z M293.5295,0.882 C293.333499,0.882 293.155001,0.934499475 292.994,1.0395 C292.832999,1.14450053 292.694751,1.3072489 292.57925,1.52775 C292.463749,1.7482511 292.3745,2.03349825 292.3115,2.3835 C292.2485,2.73350175 292.217,3.15349755 292.217,3.6435 C292.217,4.6235049 292.337749,5.33574778 292.57925,5.78025 C292.820751,6.22475222 293.137498,6.447 293.5295,6.447 C293.725501,6.447 293.902249,6.39275054 294.05975,6.28425 C294.217251,6.17574946 294.353749,6.00775114 294.46925,5.78025 C294.584751,5.55274886 294.674,5.26225177 294.737,4.90875 C294.8,4.55524823 294.8315,4.13350245 294.8315,3.6435 C294.8315,3.15349755 294.8,2.73350175 294.737,2.3835 C294.674,2.03349825 294.584751,1.7482511 294.46925,1.52775 C294.353749,1.3072489 294.217251,1.14450053 294.05975,1.0395 C293.902249,0.934499475 293.725501,0.882 293.5295,0.882 Z M6.6585,1.13686838e-13 C7.12750235,1.13686838e-13 7.50549857,0.187248128 7.7925,0.56175 C8.07950144,0.936251873 8.223,1.46999654 8.223,2.163 C8.223,2.8630035 8.07950144,3.40199811 7.7925,3.78 C7.50549857,4.15800189 7.12750235,4.347 6.6585,4.347 C6.18249762,4.347 5.80275142,4.15800189 5.51925,3.78 C5.23574858,3.40199811 5.094,2.8630035 5.094,2.163 C5.094,1.46999654 5.23574858,0.936251873 5.51925,0.56175 C5.80275142,0.187248128 6.18249762,1.13686838e-13 6.6585,1.13686838e-13 Z M81.847,1.13686838e-13 C82.3160023,1.13686838e-13 82.6939986,0.187248128 82.981,0.56175 C83.2680014,0.936251873 83.4115,1.46999654 83.4115,2.163 C83.4115,2.8630035 83.2680014,3.40199811 82.981,3.78 C82.6939986,4.15800189 82.3160023,4.347 81.847,4.347 C81.3709976,4.347 80.9912514,4.15800189 80.70775,3.78 C80.4242486,3.40199811 80.2825,2.8630035 80.2825,2.163 C80.2825,1.46999654 80.4242486,0.936251873 80.70775,0.56175 C80.9912514,0.187248128 81.3709976,1.13686838e-13 81.847,1.13686838e-13 Z M233.0355,1.13686838e-13 C233.504502,1.13686838e-13 233.882499,0.187248128 234.1695,0.56175 C234.456501,0.936251873 234.6,1.46999654 234.6,2.163 C234.6,2.8630035 234.456501,3.40199811 234.1695,3.78 C233.882499,4.15800189 233.504502,4.347 233.0355,4.347 C232.559498,4.347 232.179751,4.15800189 231.89625,3.78 C231.612749,3.40199811 231.471,2.8630035 231.471,2.163 C231.471,1.46999654 231.612749,0.936251873 231.89625,0.56175 C232.179751,0.187248128 232.559498,1.13686838e-13 233.0355,1.13686838e-13 Z M156.0355,1.13686838e-13 C156.504502,1.13686838e-13 156.882499,0.187248128 157.1695,0.56175 C157.456501,0.936251873 157.6,1.46999654 157.6,2.163 C157.6,2.8630035 157.456501,3.40199811 157.1695,3.78 C156.882499,4.15800189 156.504502,4.347 156.0355,4.347 C155.559498,4.347 155.179751,4.15800189 154.89625,3.78 C154.612749,3.40199811 154.471,2.8630035 154.471,2.163 C154.471,1.46999654 154.612749,0.936251873 154.89625,0.56175 C155.179751,0.187248128 155.559498,1.13686838e-13 156.0355,1.13686838e-13 Z M298.0355,1.13686838e-13 C298.504502,1.13686838e-13 298.882499,0.187248128 299.1695,0.56175 C299.456501,0.936251873 299.6,1.46999654 299.6,2.163 C299.6,2.8630035 299.456501,3.40199811 299.1695,3.78 C298.882499,4.15800189 298.504502,4.347 298.0355,4.347 C297.559498,4.347 297.179751,4.15800189 296.89625,3.78 C296.612749,3.40199811 296.471,2.8630035 296.471,2.163 C296.471,1.46999654 296.612749,0.936251873 296.89625,0.56175 C297.179751,0.187248128 297.559498,1.13686838e-13 298.0355,1.13686838e-13 Z M6.6585,0.5355 C6.38549864,0.5355 6.16500084,0.670248653 5.997,0.93975 C5.82899916,1.20925135 5.745,1.61699727 5.745,2.163 C5.745,2.70900273 5.82899916,3.12024862 5.997,3.39675 C6.16500084,3.67325138 6.38549864,3.8115 6.6585,3.8115 C6.92450133,3.8115 7.14149916,3.67325138 7.3095,3.39675 C7.47750084,3.12024862 7.5615,2.70900273 7.5615,2.163 C7.5615,1.61699727 7.47750084,1.20925135 7.3095,0.93975 C7.14149916,0.670248653 6.92450133,0.5355 6.6585,0.5355 Z M81.847,0.5355 C81.5739986,0.5355 81.3535008,0.670248653 81.1855,0.93975 C81.0174992,1.20925135 80.9335,1.61699727 80.9335,2.163 C80.9335,2.70900273 81.0174992,3.12024862 81.1855,3.39675 C81.3535008,3.67325138 81.5739986,3.8115 81.847,3.8115 C82.1130013,3.8115 82.3299992,3.67325138 82.498,3.39675 C82.6660008,3.12024862 82.75,2.70900273 82.75,2.163 C82.75,1.61699727 82.6660008,1.20925135 82.498,0.93975 C82.3299992,0.670248653 82.1130013,0.5355 81.847,0.5355 Z M233.0355,0.5355 C232.762499,0.5355 232.542001,0.670248653 232.374,0.93975 C232.205999,1.20925135 232.122,1.61699727 232.122,2.163 C232.122,2.70900273 232.205999,3.12024862 232.374,3.39675 C232.542001,3.67325138 232.762499,3.8115 233.0355,3.8115 C233.301501,3.8115 233.518499,3.67325138 233.6865,3.39675 C233.854501,3.12024862 233.9385,2.70900273 233.9385,2.163 C233.9385,1.61699727 233.854501,1.20925135 233.6865,0.93975 C233.518499,0.670248653 233.301501,0.5355 233.0355,0.5355 Z M156.0355,0.5355 C155.762499,0.5355 155.542001,0.670248653 155.374,0.93975 C155.205999,1.20925135 155.122,1.61699727 155.122,2.163 C155.122,2.70900273 155.205999,3.12024862 155.374,3.39675 C155.542001,3.67325138 155.762499,3.8115 156.0355,3.8115 C156.301501,3.8115 156.518499,3.67325138 156.6865,3.39675 C156.854501,3.12024862 156.9385,2.70900273 156.9385,2.163 C156.9385,1.61699727 156.854501,1.20925135 156.6865,0.93975 C156.518499,0.670248653 156.301501,0.5355 156.0355,0.5355 Z M298.0355,0.5355 C297.762499,0.5355 297.542001,0.670248653 297.374,0.93975 C297.205999,1.20925135 297.122,1.61699727 297.122,2.163 C297.122,2.70900273 297.205999,3.12024862 297.374,3.39675 C297.542001,3.67325138 297.762499,3.8115 298.0355,3.8115 C298.301501,3.8115 298.518499,3.67325138 298.6865,3.39675 C298.854501,3.12024862 298.9385,2.70900273 298.9385,2.163 C298.9385,1.61699727 298.854501,1.20925135 298.6865,0.93975 C298.518499,0.670248653 298.301501,0.5355 298.0355,0.5355 Z" id="Combined-Shape" fill="#848484" fill-rule="nonzero"></path>
                <path d="M126.038,43.871761 C125.23327,44.6253214 123.64229,44.9844345 122.538,45.014 C124.020398,43.9806486 125.313358,42.638662 126.038,41.014 C126.731839,42.638662 128.103347,43.9215176 129.538,45.014 C128.355932,44.9253034 126.920508,44.654887 126.038,43.871761" id="Fill-13" fill="#636363"></path>
                <path d="M128.2725,24.05 L123.5205,33.176 L122.373,33.176 L127.125,24.05 L128.2725,24.05 Z M128.5695,27.587 C128.884502,27.587 129.176999,27.6499994 129.447,27.776 C129.717001,27.9020006 129.948749,28.0842488 130.14225,28.32275 C130.335751,28.5612512 130.488749,28.8514983 130.60125,29.1935 C130.713751,29.5355017 130.77,29.9269978 130.77,30.368 C130.77,30.8090022 130.713751,31.2027483 130.60125,31.54925 C130.488749,31.8957517 130.335751,32.1904988 130.14225,32.4335 C129.948749,32.6765012 129.717001,32.8609994 129.447,32.987 C129.176999,33.1130006 128.884502,33.176 128.5695,33.176 C128.254498,33.176 127.962001,33.1130006 127.692,32.987 C127.421999,32.8609994 127.190251,32.6765012 126.99675,32.4335 C126.803249,32.1904988 126.652501,31.8957517 126.5445,31.54925 C126.436499,31.2027483 126.3825,30.8090022 126.3825,30.368 C126.3825,29.9269978 126.436499,29.5355017 126.5445,29.1935 C126.652501,28.8514983 126.803249,28.5612512 126.99675,28.32275 C127.190251,28.0842488 127.421999,27.9020006 127.692,27.776 C127.962001,27.6499994 128.254498,27.587 128.5695,27.587 Z M128.5695,28.694 C128.344499,28.694 128.153251,28.8154988 127.99575,29.0585 C127.838249,29.3015012 127.7595,29.7379969 127.7595,30.368 C127.7595,30.9980031 127.838249,31.4389987 127.99575,31.691 C128.153251,31.9430013 128.344499,32.069 128.5695,32.069 C128.794501,32.069 128.985749,31.9430013 129.14325,31.691 C129.300751,31.4389987 129.3795,30.9980031 129.3795,30.368 C129.3795,29.7379969 129.300751,29.3015012 129.14325,29.0585 C128.985749,28.8154988 128.794501,28.694 128.5695,28.694 Z M122.076,24.05 C122.391002,24.05 122.683499,24.1129994 122.9535,24.239 C123.223501,24.3650006 123.455249,24.5472488 123.64875,24.78575 C123.842251,25.0242512 123.995249,25.3144983 124.10775,25.6565 C124.220251,25.9985017 124.2765,26.3899978 124.2765,26.831 C124.2765,27.2720022 124.220251,27.6657483 124.10775,28.01225 C123.995249,28.3587517 123.842251,28.6534988 123.64875,28.8965 C123.455249,29.1395012 123.223501,29.3239994 122.9535,29.45 C122.683499,29.5760006 122.391002,29.639 122.076,29.639 C121.760998,29.639 121.468501,29.5760006 121.1985,29.45 C120.928499,29.3239994 120.696751,29.1395012 120.50325,28.8965 C120.309749,28.6534988 120.159001,28.3587517 120.051,28.01225 C119.942999,27.6657483 119.889,27.2720022 119.889,26.831 C119.889,26.3899978 119.942999,25.9985017 120.051,25.6565 C120.159001,25.3144983 120.309749,25.0242512 120.50325,24.78575 C120.696751,24.5472488 120.928499,24.3650006 121.1985,24.239 C121.468501,24.1129994 121.760998,24.05 122.076,24.05 Z M122.076,25.157 C121.850999,25.157 121.659751,25.2784988 121.50225,25.5215 C121.344749,25.7645012 121.266,26.2009968 121.266,26.831 C121.266,27.4610031 121.344749,27.9019987 121.50225,28.154 C121.659751,28.4060013 121.850999,28.532 122.076,28.532 C122.301001,28.532 122.492249,28.4060013 122.64975,28.154 C122.807251,27.9019987 122.886,27.4610031 122.886,26.831 C122.886,26.2009968 122.807251,25.7645012 122.64975,25.5215 C122.492249,25.2784988 122.301001,25.157 122.076,25.157 Z" id="Combined-Shape" fill="#FFFFFF" fill-rule="nonzero"></path>
                <path d="M126.788,57.014 L126.788,44.014 C126.788,43.5997864 126.452214,43.264 126.038,43.264 C125.623786,43.264 125.288,43.5997864 125.288,44.014 L125.288,57.014 C125.288,57.4282136 125.623786,57.764 126.038,57.764 C126.452214,57.764 126.788,57.4282136 126.788,57.014 Z" id="Stroke-12" fill="#636363" fill-rule="nonzero"></path>
            </g>
        </g>
    </g>
</svg>