<?xml version="1.0" encoding="UTF-8"?>
<svg width="620px" height="400px" viewBox="0 0 620 400" version="1.1" xmlns="http://www.w3.org/2000/svg" xmlns:xlink="http://www.w3.org/1999/xlink">
    <!-- Generator: Sketch 53.2 (72643) - https://sketchapp.com -->
    <title>deficit-graph-outline</title>
    <desc>Created with Sketch.</desc>
    <defs>
        <rect id="path-1" x="137" y="1" width="50" height="57"></rect>
        <filter x="-91.0%" y="-78.1%" width="282.0%" height="259.6%" filterUnits="objectBoundingBox" id="filter-2">
            <feOffset dx="0" dy="1" in="SourceAlpha" result="shadowOffsetOuter1"></feOffset>
            <feGaussianBlur stdDeviation="15" in="shadowOffsetOuter1" result="shadowBlurOuter1"></feGaussianBlur>
            <feColorMatrix values="0 0 0 0 0.262745098   0 0 0 0 0.262745098   0 0 0 0 0.262745098  0 0 0 0.1 0" type="matrix" in="shadowBlurOuter1"></feColorMatrix>
        </filter>
    </defs>
    <g id="deficit-graph-outline" stroke="none" stroke-width="1" fill="none" fill-rule="evenodd">
        <g id="Group-11" transform="translate(100.000000, 43.000000)" fill-rule="nonzero">
            <rect id="Rectangle" fill="#0A2F5A" opacity="0.5" x="137" y="58" width="50" height="243"></rect>
            <rect id="Rectangle-Copy" fill="#006C6D" opacity="0.5" x="227" y="1" width="50" height="300"></rect>
            <g id="Rectangle">
                <use fill="black" fill-opacity="1" filter="url(#filter-2)" xlink:href="#path-1"></use>
                <use fill="#B3532D" xlink:href="#path-1"></use>
            </g>
            <path d="M207,1 L207,320" id="Line-4" stroke="#EEEEEE" opacity="0.5" stroke-linecap="square"></path>
            <path d="M130.640633,29.5714209 C130.640633,29.6607067 130.59599,29.7611533 130.529026,29.8281176 L125.328127,35.0290167 C125.261162,35.0959811 125.160716,35.140624 125.07143,35.140624 C124.982144,35.140624 124.881697,35.0959811 124.814733,35.0290167 L124.256697,34.4709803 C124.189732,34.404016 124.145089,34.3147301 124.145089,34.2142836 C124.145089,34.1249978 124.189732,34.0245512 124.256697,33.9575869 L128.642863,29.5714209 L124.256697,25.185255 C124.189732,25.1182906 124.145089,25.0178441 124.145089,24.9285582 C124.145089,24.8392724 124.189732,24.7388259 124.256697,24.6718615 L124.814733,24.1138251 C124.881697,24.0468608 124.982144,24.0022178 125.07143,24.0022178 C125.160716,24.0022178 125.261162,24.0468608 125.328127,24.1138251 L130.529026,29.3147242 C130.59599,29.3816885 130.640633,29.4821351 130.640633,29.5714209 Z" id="" fill="#AB4A16"></path>
            <path d="M284.964281,162.75 L300.75,162.75 L300.75,164.25 L284.821439,164.25 L288.529026,167.957587 C288.59599,168.024551 288.640633,168.124998 288.640633,168.214284 C288.640633,168.31473 288.59599,168.404016 288.529026,168.47098 L287.970989,169.029017 C287.904025,169.095981 287.803578,169.140624 287.714293,169.140624 C287.625007,169.140624 287.52456,169.095981 287.457596,169.029017 L282.256697,163.828118 C282.189732,163.761153 282.145089,163.660707 282.145089,163.571421 C282.145089,163.482135 282.189732,163.381689 282.256697,163.314724 L287.457596,158.113825 C287.52456,158.046861 287.625007,158.002218 287.714293,158.002218 C287.803578,158.002218 287.904025,158.046861 287.970989,158.113825 L288.529026,158.671861 C288.59599,158.738826 288.640633,158.839272 288.640633,158.928558 C288.640633,159.017844 288.59599,159.118291 288.529026,159.185255 L284.964281,162.75 Z M284.25,163.464281 L284.14286,163.571421 L284.25,163.678561 L284.25,163.464281 Z" id="Combined-Shape" fill="#006C6D" opacity="0.5"></path>
            <path d="M127.821442,181.75 L124.256697,178.185255 C124.189732,178.118291 124.145089,178.017844 124.145089,177.928558 C124.145089,177.839272 124.189732,177.738826 124.256697,177.671861 L124.814733,177.113825 C124.881697,177.046861 124.982144,177.002218 125.07143,177.002218 C125.160716,177.002218 125.261162,177.046861 125.328127,177.113825 L130.529026,182.314724 C130.59599,182.381689 130.640633,182.482135 130.640633,182.571421 C130.640633,182.660707 130.59599,182.761153 130.529026,182.828118 L125.328127,188.029017 C125.261162,188.095981 125.160716,188.140624 125.07143,188.140624 C124.982144,188.140624 124.881697,188.095981 124.814733,188.029017 L124.256697,187.47098 C124.189732,187.404016 124.145089,187.31473 124.145089,187.214284 C124.145089,187.124998 124.189732,187.024551 124.256697,186.957587 L127.964284,183.25 L112.25,183.25 L112.25,181.75 L127.821442,181.75 Z" id="Combined-Shape" fill="#0A2F5A" opacity="0.5"></path>
            <polygon id="Line-5" fill="#AB4A16" points="112.25 30.25 112.25 28.75 128.75 28.75 128.75 30.25"></polygon>
            <path d="M331.968,159.216 C331.199996,159.216 330.435004,159.075001 329.673,158.793 C328.910996,158.510999 328.230003,158.088003 327.63,157.524 L329.142,155.706 C329.562002,156.066002 330.026997,156.359999 330.537,156.588 C331.047003,156.816001 331.547998,156.93 332.04,156.93 C332.592003,156.93 333.002999,156.828001 333.273,156.624 C333.543001,156.419999 333.678,156.144002 333.678,155.796 C333.678,155.615999 333.639,155.460001 333.561,155.328 C333.483,155.195999 333.369001,155.079001 333.219,154.977 C333.068999,154.874999 332.889001,154.779 332.679,154.689 L331.986,154.392 L330.456,153.744 C330.155999,153.623999 329.865001,153.468001 329.583,153.276 C329.300999,153.083999 329.049001,152.859001 328.827,152.601 C328.604999,152.342999 328.428001,152.043002 328.296,151.701 C328.163999,151.358998 328.098,150.972002 328.098,150.54 C328.098,150.059998 328.199999,149.607002 328.404,149.181 C328.608001,148.754998 328.895998,148.383002 329.268,148.065 C329.640002,147.746998 330.080997,147.498001 330.591,147.318 C331.101003,147.137999 331.661997,147.048 332.274,147.048 C332.958003,147.048 333.632997,147.179999 334.299,147.444 C334.965003,147.708001 335.549997,148.091997 336.054,148.596 L334.704,150.27 C334.319998,149.969999 333.936002,149.739001 333.552,149.577 C333.167998,149.414999 332.742002,149.334 332.274,149.334 C331.817998,149.334 331.455001,149.426999 331.185,149.613 C330.914999,149.799001 330.78,150.059998 330.78,150.396 C330.78,150.576001 330.825,150.728999 330.915,150.855 C331.005,150.981001 331.130999,151.094999 331.293,151.197 C331.455001,151.299001 331.643999,151.395 331.86,151.485 C332.076001,151.575 332.309999,151.673999 332.562,151.782 L334.074,152.394 C334.794004,152.682001 335.360998,153.077997 335.775,153.582 C336.189002,154.086003 336.396,154.751996 336.396,155.58 C336.396,156.072002 336.297001,156.536998 336.099,156.975 C335.900999,157.413002 335.613002,157.796998 335.235,158.127 C334.856998,158.457002 334.392003,158.720999 333.84,158.919 C333.287997,159.117001 332.664003,159.216 331.968,159.216 Z M339.964,159 L339.964,147.264 L343.996,147.264 C344.644003,147.264 345.249997,147.326999 345.814,147.453 C346.378003,147.579001 346.869998,147.788999 347.29,148.083 C347.710002,148.377001 348.042999,148.766998 348.289,149.253 C348.535001,149.739002 348.658,150.335996 348.658,151.044 C348.658,151.728003 348.535001,152.321997 348.289,152.826 C348.042999,153.330003 347.710002,153.743998 347.29,154.068 C346.869998,154.392002 346.384003,154.631999 345.832,154.788 C345.279997,154.944001 344.692003,155.022 344.068,155.022 L342.61,155.022 L342.61,159 L339.964,159 Z M342.61,152.916 L343.906,152.916 C345.346007,152.916 346.066,152.292006 346.066,151.044 C346.066,150.431997 345.874002,150.000001 345.49,149.748 C345.105998,149.495999 344.554004,149.37 343.834,149.37 L342.61,149.37 L342.61,152.916 Z M352.262,159 L352.262,147.264 L359.606,147.264 L359.606,149.496 L354.908,149.496 L354.908,151.854 L358.904,151.854 L358.904,154.068 L354.908,154.068 L354.908,156.768 L359.786,156.768 L359.786,159 L352.262,159 Z M363.696,159 L363.696,147.264 L366.414,147.264 L369.474,153.096 L370.626,155.688 L370.698,155.688 C370.638,155.063997 370.569001,154.368004 370.491,153.6 C370.413,152.831996 370.374,152.100003 370.374,151.404 L370.374,147.264 L372.894,147.264 L372.894,159 L370.176,159 L367.116,153.15 L365.964,150.594 L365.892,150.594 C365.952,151.242003 366.021,151.937996 366.099,152.682 C366.177001,153.426004 366.216,154.145997 366.216,154.842 L366.216,159 L363.696,159 Z M377.236,159 L377.236,147.264 L380.548,147.264 C381.448005,147.264 382.257997,147.377999 382.978,147.606 C383.698004,147.834001 384.315998,148.184998 384.832,148.659 C385.348003,149.133002 385.743999,149.735996 386.02,150.468 C386.296002,151.200004 386.434,152.069995 386.434,153.078 C386.434,154.086005 386.296002,154.961996 386.02,155.706 C385.743999,156.450004 385.354003,157.064998 384.85,157.551 C384.345998,158.037002 383.743004,158.399999 383.041,158.64 C382.338997,158.880001 381.556005,159 380.692,159 L377.236,159 Z M379.882,156.858 L380.386,156.858 C380.890003,156.858 381.345998,156.792001 381.754,156.66 C382.162002,156.527999 382.509999,156.315001 382.798,156.021 C383.086002,155.726999 383.310999,155.340002 383.473,154.86 C383.635001,154.379998 383.716,153.786004 383.716,153.078 C383.716,152.381997 383.635001,151.797002 383.473,151.323 C383.310999,150.848998 383.086002,150.471001 382.798,150.189 C382.509999,149.906999 382.162002,149.706001 381.754,149.586 C381.345998,149.465999 380.890003,149.406 380.386,149.406 L379.882,149.406 L379.882,156.858 Z M390.236,159 L390.236,147.264 L392.882,147.264 L392.882,159 L390.236,159 Z M397.224,159 L397.224,147.264 L399.942,147.264 L403.002,153.096 L404.154,155.688 L404.226,155.688 C404.166,155.063997 404.097001,154.368004 404.019,153.6 C403.941,152.831996 403.902,152.100003 403.902,151.404 L403.902,147.264 L406.422,147.264 L406.422,159 L403.704,159 L400.644,153.15 L399.492,150.594 L399.42,150.594 C399.480001,151.242003 399.549,151.937996 399.627,152.682 C399.705001,153.426004 399.744,154.145997 399.744,154.842 L399.744,159 L397.224,159 Z M415.948,159.216 C415.143996,159.216 414.391004,159.087001 413.689,158.829 C412.986997,158.570999 412.378003,158.190003 411.862,157.686 C411.345998,157.181997 410.941002,156.555004 410.647,155.805 C410.352999,155.054996 410.206,154.188005 410.206,153.204 C410.206,152.231995 410.355999,151.365004 410.656,150.603 C410.956002,149.840996 411.366998,149.196003 411.889,148.668 C412.411003,148.139997 413.019997,147.738001 413.716,147.462 C414.412004,147.185999 415.149996,147.048 415.93,147.048 C416.782005,147.048 417.513997,147.203998 418.126,147.516 C418.738003,147.828002 419.235998,148.181998 419.62,148.578 L418.234,150.27 C417.933999,150.005999 417.616002,149.784001 417.28,149.604 C416.943999,149.423999 416.524003,149.334 416.02,149.334 C415.563998,149.334 415.147002,149.420999 414.769,149.595 C414.390998,149.769001 414.064002,150.017998 413.788,150.342 C413.511999,150.666002 413.299001,151.061998 413.149,151.53 C412.999,151.998002 412.924,152.525997 412.924,153.114 C412.924,154.326006 413.196998,155.264997 413.743,155.931 C414.289003,156.597003 415.113995,156.93 416.218,156.93 C416.458002,156.93 416.691999,156.9 416.92,156.84 C417.148002,156.78 417.334,156.690001 417.478,156.57 L417.478,154.554 L415.534,154.554 L415.534,152.394 L419.818,152.394 L419.818,157.794 C419.409998,158.190002 418.870004,158.525999 418.198,158.802 C417.525997,159.078001 416.776005,159.216 415.948,159.216 Z" id="SPENDING" fill="#666666" opacity="0.5"></path>
            <path d="M1.771,17 L1.771,2.004 L6.003,2.004 C7.15300575,2.004 8.1879954,2.14966521 9.108,2.441 C10.0280046,2.73233479 10.8176634,3.18083031 11.477,3.7865 C12.1363366,4.3921697 12.6423316,5.16266199 12.995,6.098 C13.3476684,7.03333801 13.524,8.14499356 13.524,9.433 C13.524,10.7210064 13.3476684,11.8403286 12.995,12.791 C12.6423316,13.7416714 12.1440032,14.5274969 11.5,15.1485 C10.8559968,15.7695031 10.0855045,16.2333318 9.1885,16.54 C8.29149552,16.8466682 7.29100552,17 6.187,17 L1.771,17 Z M5.152,14.263 L5.796,14.263 C6.44000322,14.263 7.02266406,14.1786675 7.544,14.01 C8.06533594,13.8413325 8.50999816,13.5691685 8.878,13.1935 C9.24600184,12.8178315 9.53349897,12.3233364 9.7405,11.71 C9.94750104,11.0966636 10.051,10.3376712 10.051,9.433 C10.051,8.54366222 9.94750104,7.7961697 9.7405,7.1905 C9.53349897,6.58483031 9.24600184,6.10183514 8.878,5.7415 C8.50999816,5.38116487 8.06533594,5.1243341 7.544,4.971 C7.02266406,4.8176659 6.44000322,4.741 5.796,4.741 L5.152,4.741 L5.152,14.263 Z M17.9460001,17 L17.9460001,2.004 L27.3300001,2.004 L27.3300001,4.856 L21.3270001,4.856 L21.3270001,7.869 L26.4330001,7.869 L26.4330001,10.698 L21.3270001,10.698 L21.3270001,14.148 L27.5600001,14.148 L27.5600001,17 L17.9460001,17 Z M32.1200001,17 L32.1200001,2.004 L41.5730001,2.004 L41.5730001,4.856 L35.5010001,4.856 L35.5010001,8.329 L40.6990001,8.329 L40.6990001,11.181 L35.5010001,11.181 L35.5010001,17 L32.1200001,17 Z M45.7420002,17 L45.7420002,2.004 L49.1230002,2.004 L49.1230002,17 L45.7420002,17 Z M60.4910002,17.276 C59.5403288,17.276 58.6433378,17.1111683 57.8000002,16.7815 C56.9566627,16.4518317 56.2168367,15.9650032 55.5805002,15.321 C54.9441637,14.6769968 54.442002,13.8758381 54.0740002,12.9175 C53.7059984,11.9591619 53.5220002,10.8513396 53.5220002,9.594 C53.5220002,8.35199379 53.713665,7.24417154 54.0970002,6.2705 C54.4803355,5.29682847 54.993997,4.47267004 55.6380002,3.798 C56.2820034,3.12332996 57.0333292,2.60966843 57.8920002,2.257 C58.7506712,1.90433157 59.6553288,1.728 60.6060002,1.728 C61.572005,1.728 62.4383297,1.92349805 63.2050002,2.3145 C63.9716707,2.70550196 64.6079977,3.16166406 65.1140002,3.683 L63.3200002,5.845 C62.936665,5.49233157 62.534169,5.20483445 62.1125002,4.9825 C61.6908314,4.76016556 61.2116696,4.649 60.6750002,4.649 C60.1689977,4.649 59.6898358,4.76016556 59.2375002,4.9825 C58.7851646,5.20483445 58.3941685,5.52299793 58.0645002,5.937 C57.7348319,6.35100207 57.4741678,6.85699701 57.2825002,7.455 C57.0908326,8.05300299 56.9950002,8.72766291 56.9950002,9.479 C56.9950002,11.0276744 57.3246636,12.2274957 57.9840002,13.0785 C58.6433368,13.9295043 59.5249947,14.355 60.6290002,14.355 C61.2423366,14.355 61.7904978,14.2208347 62.2735002,13.9525 C62.7565026,13.6841653 63.1819984,13.3506687 63.5500002,12.952 L65.3440002,15.068 C64.0866606,16.5400074 62.4690101,17.276 60.4910002,17.276 Z M69.1910003,17 L69.1910003,2.004 L72.5720003,2.004 L72.5720003,17 L69.1910003,17 Z M80.6050003,17 L80.6050003,4.856 L76.4880003,4.856 L76.4880003,2.004 L88.1260003,2.004 L88.1260003,4.856 L84.0090003,4.856 L84.0090003,17 L80.6050003,17 Z" id="DEFICIT" fill="#555555"></path>
            <path d="M330.33,181.65 L330.33,180.165 C329.849998,180.115 329.385002,179.982501 328.935,179.7675 C328.484998,179.552499 328.100002,179.300001 327.78,179.01 L328.35,178.155 C328.670002,178.435001 329.022498,178.672499 329.4075,178.8675 C329.792502,179.062501 330.214998,179.16 330.675,179.16 C331.235003,179.16 331.652499,179.020001 331.9275,178.74 C332.202501,178.459999 332.34,178.085002 332.34,177.615 C332.34,177.214998 332.237501,176.882501 332.0325,176.6175 C331.827499,176.352499 331.570002,176.122501 331.26,175.9275 C330.949998,175.732499 330.612502,175.550001 330.2475,175.38 C329.882498,175.209999 329.545002,175.015001 329.235,174.795 C328.924998,174.574999 328.667501,174.307502 328.4625,173.9925 C328.257499,173.677498 328.155,173.275002 328.155,172.785 C328.155,172.114997 328.352498,171.557502 328.7475,171.1125 C329.142502,170.667498 329.669997,170.395 330.33,170.295 L330.33,168.78 L331.23,168.78 L331.23,170.265 C331.710002,170.315 332.117498,170.444999 332.4525,170.655 C332.787502,170.865001 333.089999,171.114999 333.36,171.405 L332.7,172.14 C332.419999,171.869999 332.147501,171.660001 331.8825,171.51 C331.617499,171.359999 331.280002,171.285 330.87,171.285 C330.409998,171.285 330.045001,171.414999 329.775,171.675 C329.504999,171.935001 329.37,172.284998 329.37,172.725 C329.37,173.085002 329.472499,173.379999 329.6775,173.61 C329.882501,173.840001 330.139998,174.042499 330.45,174.2175 C330.760002,174.392501 331.097498,174.562499 331.4625,174.7275 C331.827502,174.892501 332.164998,175.092499 332.475,175.3275 C332.785002,175.562501 333.042499,175.852498 333.2475,176.1975 C333.452501,176.542502 333.555,176.984997 333.555,177.525 C333.555,178.245004 333.347502,178.834998 332.9325,179.295 C332.517498,179.755002 331.950004,180.034999 331.23,180.135 L331.23,181.65 L330.33,181.65 Z M339.015,180 L339.015,177.36 L334.71,177.36 L334.71,176.55 L338.805,170.43 L340.185,170.43 L340.185,176.37 L341.49,176.37 L341.49,177.36 L340.185,177.36 L340.185,180 L339.015,180 Z M336.015,176.37 L339.015,176.37 L339.015,173.595 C339.015,173.334999 339.0225,173.027502 339.0375,172.6725 C339.0525,172.317498 339.07,172.010001 339.09,171.75 L339.03,171.75 C338.909999,171.980001 338.785001,172.204999 338.655,172.425 C338.524999,172.645001 338.390001,172.869999 338.25,173.1 L336.015,176.37 Z M343.785,180.18 C343.534999,180.18 343.322501,180.092501 343.1475,179.9175 C342.972499,179.742499 342.885,179.520001 342.885,179.25 C342.885,178.959999 342.972499,178.727501 343.1475,178.5525 C343.322501,178.377499 343.534999,178.29 343.785,178.29 C344.025001,178.29 344.232499,178.377499 344.4075,178.5525 C344.582501,178.727501 344.67,178.959999 344.67,179.25 C344.67,179.520001 344.582501,179.742499 344.4075,179.9175 C344.232499,180.092501 344.025001,180.18 343.785,180.18 Z M346.83,180 L346.83,178.98 L349.02,178.98 L349.02,171.93 L347.28,171.93 L347.28,171.135 C347.720002,171.055 348.102498,170.957501 348.4275,170.8425 C348.752502,170.727499 349.044999,170.590001 349.305,170.43 L350.25,170.43 L350.25,178.98 L352.23,178.98 L352.23,180 L346.83,180 Z M359.625,180.18 C359.234998,180.18 358.907501,180.120001 358.6425,180 C358.377499,179.879999 358.162501,179.715001 357.9975,179.505 C357.832499,179.294999 357.715,179.040001 357.645,178.74 C357.575,178.439998 357.54,178.110002 357.54,177.75 L357.54,173.715 L356.46,173.715 L356.46,172.785 L357.6,172.71 L357.75,170.67 L358.785,170.67 L358.785,172.71 L360.75,172.71 L360.75,173.715 L358.785,173.715 L358.785,177.765 C358.785,178.215002 358.867499,178.562499 359.0325,178.8075 C359.197501,179.052501 359.489998,179.175 359.91,179.175 C360.040001,179.175 360.179999,179.155 360.33,179.115 C360.480001,179.075 360.614999,179.03 360.735,178.98 L360.975,179.91 C360.774999,179.98 360.557501,180.0425 360.3225,180.0975 C360.087499,180.1525 359.855001,180.18 359.625,180.18 Z M362.4,180 L362.4,172.71 L363.42,172.71 L363.525,174.03 L363.57,174.03 C363.820001,173.569998 364.122498,173.205001 364.4775,172.935 C364.832502,172.664999 365.219998,172.53 365.64,172.53 C365.930001,172.53 366.189999,172.579999 366.42,172.68 L366.18,173.76 C366.059999,173.72 365.95,173.69 365.85,173.67 C365.749999,173.65 365.625001,173.64 365.475,173.64 C365.164998,173.64 364.842502,173.764999 364.5075,174.015 C364.172498,174.265001 363.880001,174.699997 363.63,175.32 L363.63,180 L362.4,180 Z M367.605,180 L367.605,172.71 L368.835,172.71 L368.835,180 L367.605,180 Z M368.235,171.21 C367.994999,171.21 367.792501,171.135001 367.6275,170.985 C367.462499,170.834999 367.38,170.645001 367.38,170.415 C367.38,170.174999 367.462499,169.982501 367.6275,169.8375 C367.792501,169.692499 367.994999,169.62 368.235,169.62 C368.475001,169.62 368.677499,169.692499 368.8425,169.8375 C369.007501,169.982501 369.09,170.174999 369.09,170.415 C369.09,170.645001 369.007501,170.834999 368.8425,170.985 C368.677499,171.135001 368.475001,171.21 368.235,171.21 Z M372.6,180.18 C372.129998,180.18 371.795001,180.040001 371.595,179.76 C371.394999,179.479999 371.295,179.070003 371.295,178.53 L371.295,169.32 L372.525,169.32 L372.525,178.62 C372.525,178.820001 372.56,178.96 372.63,179.04 C372.7,179.12 372.78,179.16 372.87,179.16 L372.9825,179.16 C373.0175,179.16 373.07,179.15 373.14,179.13 L373.305,180.06 C373.225,180.1 373.130001,180.13 373.02,180.15 C372.909999,180.17 372.770001,180.18 372.6,180.18 Z M376.425,180.18 C375.954998,180.18 375.620001,180.040001 375.42,179.76 C375.219999,179.479999 375.12,179.070003 375.12,178.53 L375.12,169.32 L376.35,169.32 L376.35,178.62 C376.35,178.820001 376.385,178.96 376.455,179.04 C376.525,179.12 376.605,179.16 376.695,179.16 L376.8075,179.16 C376.8425,179.16 376.895,179.15 376.965,179.13 L377.13,180.06 C377.05,180.1 376.955001,180.13 376.845,180.15 C376.734999,180.17 376.595001,180.18 376.425,180.18 Z M378.945,180 L378.945,172.71 L380.175,172.71 L380.175,180 L378.945,180 Z M379.575,171.21 C379.334999,171.21 379.132501,171.135001 378.9675,170.985 C378.802499,170.834999 378.72,170.645001 378.72,170.415 C378.72,170.174999 378.802499,169.982501 378.9675,169.8375 C379.132501,169.692499 379.334999,169.62 379.575,169.62 C379.815001,169.62 380.017499,169.692499 380.1825,169.8375 C380.347501,169.982501 380.43,170.174999 380.43,170.415 C380.43,170.645001 380.347501,170.834999 380.1825,170.985 C380.017499,171.135001 379.815001,171.21 379.575,171.21 Z M385.47,180.18 C385.019998,180.18 384.592502,180.095001 384.1875,179.925 C383.782498,179.754999 383.425002,179.507502 383.115,179.1825 C382.804998,178.857498 382.557501,178.457502 382.3725,177.9825 C382.187499,177.507498 382.095,176.970003 382.095,176.37 C382.095,175.759997 382.187499,175.217502 382.3725,174.7425 C382.557501,174.267498 382.804998,173.865002 383.115,173.535 C383.425002,173.204998 383.782498,172.955001 384.1875,172.785 C384.592502,172.614999 385.019998,172.53 385.47,172.53 C385.920002,172.53 386.347498,172.614999 386.7525,172.785 C387.157502,172.955001 387.514998,173.204998 387.825,173.535 C388.135002,173.865002 388.382499,174.267498 388.5675,174.7425 C388.752501,175.217502 388.845,175.759997 388.845,176.37 C388.845,176.970003 388.752501,177.507498 388.5675,177.9825 C388.382499,178.457502 388.135002,178.857498 387.825,179.1825 C387.514998,179.507502 387.157502,179.754999 386.7525,179.925 C386.347498,180.095001 385.920002,180.18 385.47,180.18 Z M385.47,179.16 C385.780002,179.16 386.064999,179.092501 386.325,178.9575 C386.585001,178.822499 386.807499,178.632501 386.9925,178.3875 C387.177501,178.142499 387.319999,177.850002 387.42,177.51 C387.52,177.169998 387.57,176.790002 387.57,176.37 C387.57,175.949998 387.52,175.567502 387.42,175.2225 C387.319999,174.877498 387.177501,174.580001 386.9925,174.33 C386.807499,174.079999 386.585001,173.887501 386.325,173.7525 C386.064999,173.617499 385.780002,173.55 385.47,173.55 C385.159998,173.55 384.875001,173.617499 384.615,173.7525 C384.354999,173.887501 384.132501,174.079999 383.9475,174.33 C383.762499,174.580001 383.62,174.877498 383.52,175.2225 C383.419999,175.567502 383.37,175.949998 383.37,176.37 C383.37,176.790002 383.419999,177.169998 383.52,177.51 C383.62,177.850002 383.762499,178.142499 383.9475,178.3875 C384.132501,178.632501 384.354999,178.822499 384.615,178.9575 C384.875001,179.092501 385.159998,179.16 385.47,179.16 Z M390.765,180 L390.765,172.71 L391.785,172.71 L391.89,173.76 L391.935,173.76 C392.285002,173.409998 392.652498,173.117501 393.0375,172.8825 C393.422502,172.647499 393.869997,172.53 394.38,172.53 C395.150004,172.53 395.712498,172.769998 396.0675,173.25 C396.422502,173.730002 396.6,174.439995 396.6,175.38 L396.6,180 L395.37,180 L395.37,175.545 C395.37,174.854997 395.260001,174.357502 395.04,174.0525 C394.819999,173.747498 394.470002,173.595 393.99,173.595 C393.609998,173.595 393.275001,173.689999 392.985,173.88 C392.694999,174.070001 392.365002,174.349998 391.995,174.72 L391.995,180 L390.765,180 Z" id="$4.1trillion" fill="#666666" opacity="0.5"></path>
            <path d="M3.33,38.65 L3.33,37.165 C2.8499976,37.1149997 2.38500225,36.9825011 1.935,36.7675 C1.48499775,36.5524989 1.1000016,36.3000014 0.78,36.01 L1.35,35.155 C1.6700016,35.4350014 2.02249807,35.672499 2.4075,35.8675 C2.79250192,36.062501 3.2149977,36.16 3.675,36.16 C4.2350028,36.16 4.65249862,36.0200014 4.9275,35.74 C5.20250137,35.4599986 5.34,35.0850023 5.34,34.615 C5.34,34.214998 5.23750102,33.8825013 5.0325,33.6175 C4.82749897,33.3524987 4.57000155,33.122501 4.26,32.9275 C3.94999845,32.732499 3.61250182,32.5500008 3.2475,32.38 C2.88249817,32.2099991 2.54500155,32.0150011 2.235,31.795 C1.92499845,31.5749989 1.66750102,31.3075016 1.4625,30.9925 C1.25749897,30.6774984 1.155,30.2750024 1.155,29.785 C1.155,29.1149966 1.35249802,28.5575022 1.7475,28.1125 C2.14250197,27.6674978 2.6699967,27.3950005 3.33,27.295 L3.33,25.78 L4.23,25.78 L4.23,27.265 C4.7100024,27.3150002 5.11749832,27.4449989 5.4525,27.655 C5.78750167,27.865001 6.08999865,28.1149985 6.36,28.405 L5.7,29.14 C5.4199986,28.8699986 5.14750132,28.6600007 4.8825,28.51 C4.61749867,28.3599992 4.28000205,28.285 3.87,28.285 C3.4099977,28.285 3.04500135,28.4149987 2.775,28.675 C2.50499865,28.9350013 2.37,29.2849978 2.37,29.725 C2.37,30.0850018 2.47249897,30.3799988 2.6775,30.61 C2.88250102,30.8400011 3.13999845,31.0424991 3.45,31.2175 C3.76000155,31.3925009 4.09749817,31.5624992 4.4625,31.7275 C4.82750182,31.8925008 5.16499845,32.0924988 5.475,32.3275 C5.78500155,32.5625012 6.04249897,32.8524983 6.2475,33.1975 C6.45250102,33.5425017 6.555,33.9849973 6.555,34.525 C6.555,35.2450036 6.34750207,35.8349977 5.9325,36.295 C5.51749792,36.7550023 4.9500036,37.0349995 4.23,37.135 L4.23,38.65 L3.33,38.65 Z M10.11,37 C10.1500002,36.0999955 10.2299994,35.2750037 10.35,34.525 C10.4700006,33.7749962 10.6374989,33.0625034 10.8525,32.3875 C11.0675011,31.7124966 11.3424983,31.0600031 11.6775,30.43 C12.0125017,29.7999968 12.4149976,29.1550033 12.885,28.495 L8.115,28.495 L8.115,27.43 L14.28,27.43 L14.28,28.195 C13.7099971,28.9150036 13.2475018,29.6049967 12.8925,30.265 C12.5374982,30.9250033 12.255001,31.5974966 12.045,32.2825 C11.8349989,32.9675034 11.6825005,33.6924962 11.5875,34.4575 C11.4924995,35.2225038 11.4250002,36.0699953 11.385,37 L10.11,37 Z M17.565,37 C17.6050002,36.0999955 17.6849994,35.2750037 17.805,34.525 C17.9250006,33.7749962 18.0924989,33.0625034 18.3075,32.3875 C18.5225011,31.7124966 18.7974983,31.0600031 19.1325,30.43 C19.4675017,29.7999968 19.8699976,29.1550033 20.34,28.495 L15.57,28.495 L15.57,27.43 L21.735,27.43 L21.735,28.195 C21.1649971,28.9150036 20.7025018,29.6049967 20.3475,30.265 C19.9924982,30.9250033 19.710001,31.5974966 19.5,32.2825 C19.2899989,32.9675034 19.1375005,33.6924962 19.0425,34.4575 C18.9474995,35.2225038 18.8800002,36.0699953 18.84,37 L17.565,37 Z M25.89,32.35 C26.2100016,32.35 26.5474982,32.250001 26.9025,32.05 C27.2575018,31.849999 27.5899984,31.5250022 27.9,31.075 C27.8199996,30.1349953 27.6000018,29.4250024 27.24,28.945 C26.8799982,28.4649976 26.395003,28.225 25.785,28.225 C25.5549988,28.225 25.337501,28.2749995 25.1325,28.375 C24.927499,28.4750005 24.7500007,28.6174991 24.6,28.8025 C24.4499992,28.9875009 24.3325004,29.2099987 24.2475,29.47 C24.1624996,29.7300013 24.12,30.0149984 24.12,30.325 C24.12,30.9550031 24.2649985,31.4499982 24.555,31.81 C24.8450014,32.1700018 25.289997,32.35 25.89,32.35 Z M25.44,37.18 C24.9299974,37.18 24.4825019,37.0850009 24.0975,36.895 C23.7124981,36.704999 23.3900013,36.4650014 23.13,36.175 L23.82,35.395 C24.020001,35.6250011 24.2574986,35.8099993 24.5325,35.95 C24.8075014,36.0900007 25.0949985,36.16 25.395,36.16 C25.7350017,36.16 26.0549985,36.0900007 26.355,35.95 C26.6550015,35.8099993 26.9199988,35.5775016 27.15,35.2525 C27.3800011,34.9274984 27.5649993,34.5050026 27.705,33.985 C27.8450007,33.4649974 27.9199999,32.8200038 27.93,32.05 C27.6299985,32.4300019 27.280002,32.7299989 26.88,32.95 C26.479998,33.1700011 26.080002,33.28 25.68,33.28 C24.8499958,33.28 24.1900024,33.0350024 23.7,32.545 C23.2099975,32.0549975 22.965,31.3150049 22.965,30.325 C22.965,29.8649977 23.0399992,29.4475019 23.19,29.0725 C23.3400007,28.6974981 23.5424987,28.3750013 23.7975,28.105 C24.0525013,27.8349986 24.3524983,27.6250007 24.6975,27.475 C25.0425017,27.3249992 25.4049981,27.25 25.785,27.25 C26.2550023,27.25 26.692498,27.344999 27.0975,27.535 C27.502502,27.7250009 27.8524985,28.0124981 28.1475,28.3975 C28.4425015,28.7825019 28.6724992,29.2624971 28.8375,29.8375 C29.0025008,30.4125029 29.085,31.0849961 29.085,31.855 C29.085,32.8150048 28.985001,33.6324966 28.785,34.3075 C28.584999,34.9825034 28.3150017,35.5324979 27.975,35.9575 C27.6349983,36.3825021 27.2475022,36.692499 26.8125,36.8875 C26.3774978,37.082501 25.9200024,37.18 25.44,37.18 Z M37.275,37.18 C36.9349983,37.18 36.5825018,37.0975008 36.2175,36.9325 C35.8524982,36.7674992 35.5100016,36.5400014 35.19,36.25 L35.145,36.25 L35.04,37 L34.05,37 L34.05,26.32 L35.28,26.32 L35.28,29.23 L35.25,30.55 C35.5800016,30.2599985 35.939998,30.017501 36.33,29.8225 C36.7200019,29.627499 37.1199979,29.53 37.53,29.53 C38.0000023,29.53 38.4149982,29.6174991 38.775,29.7925 C39.1350018,29.9675009 39.4374988,30.2174984 39.6825,30.5425 C39.9275012,30.8675016 40.1124994,31.2574977 40.2375,31.7125 C40.3625006,32.1675023 40.425,32.6749972 40.425,33.235 C40.425,33.8550031 40.3400008,34.4099975 40.17,34.9 C39.9999991,35.3900024 39.7700014,35.8049983 39.48,36.145 C39.1899985,36.4850017 38.8550019,36.7424991 38.475,36.9175 C38.0949981,37.0925009 37.6950021,37.18 37.275,37.18 Z M37.065,36.145 C37.3650015,36.145 37.6424987,36.0775007 37.8975,35.9425 C38.1525013,35.8074993 38.3724991,35.6175012 38.5575,35.3725 C38.7425009,35.1274988 38.8874995,34.8250018 38.9925,34.465 C39.0975005,34.1049982 39.15,33.7000022 39.15,33.25 C39.15,32.849998 39.1150003,32.4850016 39.045,32.155 C38.9749996,31.8249983 38.8625008,31.5425012 38.7075,31.3075 C38.5524992,31.0724988 38.3525012,30.8900006 38.1075,30.76 C37.8624988,30.6299993 37.5700017,30.565 37.23,30.565 C36.639997,30.565 35.9900035,30.8949967 35.28,31.555 L35.28,35.38 C35.6000016,35.6600014 35.9174984,35.8574994 36.2325,35.9725 C36.5475016,36.0875006 36.8249988,36.145 37.065,36.145 Z M42.345,37 L42.345,29.71 L43.575,29.71 L43.575,37 L42.345,37 Z M42.975,28.21 C42.7349988,28.21 42.5325008,28.1350007 42.3675,27.985 C42.2024992,27.8349992 42.12,27.6450011 42.12,27.415 C42.12,27.1749988 42.2024992,26.9825007 42.3675,26.8375 C42.5325008,26.6924993 42.7349988,26.62 42.975,26.62 C43.2150012,26.62 43.4174992,26.6924993 43.5825,26.8375 C43.7475008,26.9825007 43.83,27.1749988 43.83,27.415 C43.83,27.6450011 43.7475008,27.8349992 43.5825,27.985 C43.4174992,28.1350007 43.2150012,28.21 42.975,28.21 Z M47.34,37.18 C46.8699976,37.18 46.535001,37.0400014 46.335,36.76 C46.134999,36.4799986 46.035,36.0700027 46.035,35.53 L46.035,26.32 L47.265,26.32 L47.265,35.62 C47.265,35.820001 47.2999996,35.9599996 47.37,36.04 C47.4400003,36.1200004 47.5199995,36.16 47.61,36.16 L47.7225,36.16 C47.7575002,36.16 47.8099996,36.1500001 47.88,36.13 L48.045,37.06 C47.9649996,37.1000002 47.8700005,37.1299999 47.76,37.15 C47.6499994,37.1700001 47.5100008,37.18 47.34,37.18 Z M51.165,37.18 C50.6949976,37.18 50.360001,37.0400014 50.16,36.76 C49.959999,36.4799986 49.86,36.0700027 49.86,35.53 L49.86,26.32 L51.09,26.32 L51.09,35.62 C51.09,35.820001 51.1249996,35.9599996 51.195,36.04 C51.2650003,36.1200004 51.3449995,36.16 51.435,36.16 L51.5475,36.16 C51.5825002,36.16 51.6349996,36.1500001 51.705,36.13 L51.87,37.06 C51.7899996,37.1000002 51.6950005,37.1299999 51.585,37.15 C51.4749994,37.1700001 51.3350008,37.18 51.165,37.18 Z M53.685,37 L53.685,29.71 L54.915,29.71 L54.915,37 L53.685,37 Z M54.315,28.21 C54.0749988,28.21 53.8725008,28.1350007 53.7075,27.985 C53.5424992,27.8349992 53.46,27.6450011 53.46,27.415 C53.46,27.1749988 53.5424992,26.9825007 53.7075,26.8375 C53.8725008,26.6924993 54.0749988,26.62 54.315,26.62 C54.5550012,26.62 54.7574992,26.6924993 54.9225,26.8375 C55.0875008,26.9825007 55.17,27.1749988 55.17,27.415 C55.17,27.6450011 55.0875008,27.8349992 54.9225,27.985 C54.7574992,28.1350007 54.5550012,28.21 54.315,28.21 Z M60.21,37.18 C59.7599977,37.18 59.332502,37.0950008 58.9275,36.925 C58.522498,36.7549991 58.1650015,36.5075016 57.855,36.1825 C57.5449984,35.8574984 57.2975009,35.4575024 57.1125,34.9825 C56.9274991,34.5074976 56.835,33.970003 56.835,33.37 C56.835,32.7599969 56.9274991,32.2175024 57.1125,31.7425 C57.2975009,31.2674976 57.5449984,30.8650016 57.855,30.535 C58.1650015,30.2049983 58.522498,29.9550008 58.9275,29.785 C59.332502,29.6149991 59.7599977,29.53 60.21,29.53 C60.6600022,29.53 61.087498,29.6149991 61.4925,29.785 C61.897502,29.9550008 62.2549984,30.2049983 62.565,30.535 C62.8750015,30.8650016 63.1224991,31.2674976 63.3075,31.7425 C63.4925009,32.2175024 63.585,32.7599969 63.585,33.37 C63.585,33.970003 63.4925009,34.5074976 63.3075,34.9825 C63.1224991,35.4575024 62.8750015,35.8574984 62.565,36.1825 C62.2549984,36.5075016 61.897502,36.7549991 61.4925,36.925 C61.087498,37.0950008 60.6600022,37.18 60.21,37.18 Z M60.21,36.16 C60.5200015,36.16 60.8049987,36.0925007 61.065,35.9575 C61.3250013,35.8224993 61.5474991,35.6325012 61.7325,35.3875 C61.9175009,35.1424988 62.0599995,34.8500017 62.16,34.51 C62.2600005,34.1699983 62.31,33.7900021 62.31,33.37 C62.31,32.9499979 62.2600005,32.5675017 62.16,32.2225 C62.0599995,31.8774983 61.9175009,31.5800012 61.7325,31.33 C61.5474991,31.0799987 61.3250013,30.8875007 61.065,30.7525 C60.8049987,30.6174993 60.5200015,30.55 60.21,30.55 C59.8999984,30.55 59.6150013,30.6174993 59.355,30.7525 C59.0949987,30.8875007 58.8725009,31.0799987 58.6875,31.33 C58.5024991,31.5800012 58.3600005,31.8774983 58.26,32.2225 C58.1599995,32.5675017 58.11,32.9499979 58.11,33.37 C58.11,33.7900021 58.1599995,34.1699983 58.26,34.51 C58.3600005,34.8500017 58.5024991,35.1424988 58.6875,35.3875 C58.8725009,35.6325012 59.0949987,35.8224993 59.355,35.9575 C59.6150013,36.0925007 59.8999984,36.16 60.21,36.16 Z M65.505,37 L65.505,29.71 L66.525,29.71 L66.63,30.76 L66.675,30.76 C67.0250017,30.4099982 67.3924981,30.1175012 67.7775,29.8825 C68.1625019,29.6474988 68.6099974,29.53 69.12,29.53 C69.8900038,29.53 70.4524982,29.7699976 70.8075,30.25 C71.1625018,30.7300024 71.34,31.4399953 71.34,32.38 L71.34,37 L70.11,37 L70.11,32.545 C70.11,31.8549965 70.0000011,31.3575015 69.78,31.0525 C69.5599989,30.7474985 69.2100024,30.595 68.73,30.595 C68.3499981,30.595 68.0150014,30.689999 67.725,30.88 C67.4349985,31.0700009 67.1050018,31.3499981 66.735,31.72 L66.735,37 L65.505,37 Z" id="$779billion" fill="#666666"></path>
            <path d="M1.386,177 L1.386,165.264 L5.616,165.264 C6.24000312,165.264 6.82499727,165.323999 7.371,165.444 C7.91700273,165.564001 8.39399796,165.764999 8.802,166.047 C9.21000204,166.329001 9.5339988,166.703998 9.774,167.172 C10.0140012,167.640002 10.134,168.221997 10.134,168.918 C10.134,169.782004 9.94500189,170.492997 9.567,171.051 C9.18899811,171.609003 8.68200318,172.025999 8.046,172.302 L10.71,177 L7.74,177 L5.49,172.77 L4.032,172.77 L4.032,177 L1.386,177 Z M4.032,170.664 L5.4,170.664 C6.09600348,170.664 6.62699817,170.517001 6.993,170.223 C7.35900183,169.928999 7.542,169.494003 7.542,168.918 C7.542,168.341997 7.35900183,167.940001 6.993,167.712 C6.62699817,167.483999 6.09600348,167.37 5.4,167.37 L4.032,167.37 L4.032,170.664 Z M13.9900001,177 L13.9900001,165.264 L21.3340001,165.264 L21.3340001,167.496 L16.6360001,167.496 L16.6360001,169.854 L20.6320001,169.854 L20.6320001,172.068 L16.6360001,172.068 L16.6360001,174.768 L21.5140001,174.768 L21.5140001,177 L13.9900001,177 Z M27.4580001,177 L23.9120001,165.264 L26.7200001,165.264 L28.1240001,170.736 C28.304001,171.384003 28.4629994,172.010997 28.6010001,172.617 C28.7390008,173.223003 28.8979992,173.849997 29.0780001,174.498 L29.1500001,174.498 C29.3180009,173.849997 29.4739994,173.223003 29.6180001,172.617 C29.7620008,172.010997 29.9179993,171.384003 30.0860001,170.736 L31.4720001,165.264 L34.1720001,165.264 L30.6440001,177 L27.4580001,177 Z M37.0020002,177 L37.0020002,165.264 L44.3460002,165.264 L44.3460002,167.496 L39.6480002,167.496 L39.6480002,169.854 L43.6440002,169.854 L43.6440002,172.068 L39.6480002,172.068 L39.6480002,174.768 L44.5260002,174.768 L44.5260002,177 L37.0020002,177 Z M48.4360002,177 L48.4360002,165.264 L51.1540002,165.264 L54.2140002,171.096 L55.3660002,173.688 L55.4380002,173.688 C55.3779999,173.063997 55.3090006,172.368004 55.2310002,171.6 C55.1529998,170.831996 55.1140002,170.100003 55.1140002,169.404 L55.1140002,165.264 L57.6340002,165.264 L57.6340002,177 L54.9160002,177 L51.8560002,171.15 L50.7040002,168.594 L50.6320002,168.594 C50.6920005,169.242003 50.7609998,169.937996 50.8390002,170.682 C50.9170006,171.426004 50.9560002,172.145997 50.9560002,172.842 L50.9560002,177 L48.4360002,177 Z M66.6020003,177.216 C65.0779926,177.216 63.9140043,176.766005 63.1100003,175.866 C62.3059962,174.965996 61.9040003,173.53201 61.9040003,171.564 L61.9040003,165.264 L64.5680003,165.264 L64.5680003,171.834 C64.5680003,172.986006 64.7419985,173.789998 65.0900003,174.246 C65.438002,174.702002 65.941997,174.93 66.6020003,174.93 C67.2620036,174.93 67.7719985,174.702002 68.1320003,174.246 C68.4920021,173.789998 68.6720003,172.986006 68.6720003,171.834 L68.6720003,165.264 L71.2280003,165.264 L71.2280003,171.564 C71.2280003,173.53201 70.8350042,174.965996 70.0490003,175.866 C69.2629963,176.766005 68.1140078,177.216 66.6020003,177.216 Z M75.5160003,177 L75.5160003,165.264 L82.8600003,165.264 L82.8600003,167.496 L78.1620003,167.496 L78.1620003,169.854 L82.1580003,169.854 L82.1580003,172.068 L78.1620003,172.068 L78.1620003,174.768 L83.0400003,174.768 L83.0400003,177 L75.5160003,177 Z" id="REVENUE" fill="#666666" opacity="0.5"></path>
            <path d="M3.33,199.65 L3.33,198.165 C2.8499976,198.115 2.38500225,197.982501 1.935,197.7675 C1.48499775,197.552499 1.1000016,197.300001 0.78,197.01 L1.35,196.155 C1.6700016,196.435001 2.02249807,196.672499 2.4075,196.8675 C2.79250192,197.062501 3.2149977,197.16 3.675,197.16 C4.2350028,197.16 4.65249862,197.020001 4.9275,196.74 C5.20250137,196.459999 5.34,196.085002 5.34,195.615 C5.34,195.214998 5.23750102,194.882501 5.0325,194.6175 C4.82749897,194.352499 4.57000155,194.122501 4.26,193.9275 C3.94999845,193.732499 3.61250182,193.550001 3.2475,193.38 C2.88249817,193.209999 2.54500155,193.015001 2.235,192.795 C1.92499845,192.574999 1.66750102,192.307502 1.4625,191.9925 C1.25749897,191.677498 1.155,191.275002 1.155,190.785 C1.155,190.114997 1.35249802,189.557502 1.7475,189.1125 C2.14250197,188.667498 2.6699967,188.395 3.33,188.295 L3.33,186.78 L4.23,186.78 L4.23,188.265 C4.7100024,188.315 5.11749832,188.444999 5.4525,188.655 C5.78750167,188.865001 6.08999865,189.114999 6.36,189.405 L5.7,190.14 C5.4199986,189.869999 5.14750132,189.660001 4.8825,189.51 C4.61749867,189.359999 4.28000205,189.285 3.87,189.285 C3.4099977,189.285 3.04500135,189.414999 2.775,189.675 C2.50499865,189.935001 2.37,190.284998 2.37,190.725 C2.37,191.085002 2.47249897,191.379999 2.6775,191.61 C2.88250102,191.840001 3.13999845,192.042499 3.45,192.2175 C3.76000155,192.392501 4.09749817,192.562499 4.4625,192.7275 C4.82750182,192.892501 5.16499845,193.092499 5.475,193.3275 C5.78500155,193.562501 6.04249897,193.852498 6.2475,194.1975 C6.45250102,194.542502 6.555,194.984997 6.555,195.525 C6.555,196.245004 6.34750207,196.834998 5.9325,197.295 C5.51749792,197.755002 4.9500036,198.034999 4.23,198.135 L4.23,199.65 L3.33,199.65 Z M10.995,198.18 C10.6149981,198.18 10.2675016,198.1425 9.9525,198.0675 C9.63749842,197.9925 9.3500013,197.892501 9.09,197.7675 C8.8299987,197.642499 8.59750102,197.500001 8.3925,197.34 C8.18749897,197.179999 8.0050008,197.010001 7.845,196.83 L8.475,196.02 C8.76500145,196.320001 9.10249807,196.584999 9.4875,196.815 C9.87250192,197.045001 10.3499971,197.16 10.92,197.16 C11.5000029,197.16 11.9749981,197.002502 12.345,196.6875 C12.7150018,196.372498 12.9,195.945003 12.9,195.405 C12.9,195.124999 12.8475005,194.867501 12.7425,194.6325 C12.6374995,194.397499 12.4650012,194.195001 12.225,194.025 C11.9849988,193.854999 11.6700019,193.725 11.28,193.635 C10.889998,193.545 10.4100028,193.5 9.84,193.5 L9.84,192.555 C10.3500025,192.555 10.7774983,192.51 11.1225,192.42 C11.4675017,192.33 11.7474989,192.205001 11.9625,192.045 C12.1775011,191.884999 12.3299995,191.695001 12.42,191.475 C12.5100004,191.254999 12.555,191.020001 12.555,190.77 C12.555,190.299998 12.4075015,189.930001 12.1125,189.66 C11.8174985,189.389999 11.4150025,189.255 10.905,189.255 C10.504998,189.255 10.1375017,189.344999 9.8025,189.525 C9.46749832,189.705001 9.15500145,189.939999 8.865,190.23 L8.205,189.45 C8.57500185,189.099998 8.98249777,188.812501 9.4275,188.5875 C9.87250222,188.362499 10.3799971,188.25 10.95,188.25 C11.3700021,188.25 11.7549982,188.304999 12.105,188.415 C12.4550017,188.525001 12.7574987,188.682499 13.0125,188.8875 C13.2675013,189.092501 13.4649993,189.344998 13.605,189.645 C13.7450007,189.945001 13.815,190.289998 13.815,190.68 C13.815,191.260003 13.6550016,191.734998 13.335,192.105 C13.0149984,192.475002 12.5950026,192.759999 12.075,192.96 L12.075,193.02 C12.3650014,193.09 12.6349987,193.192499 12.885,193.3275 C13.1350012,193.462501 13.354999,193.632499 13.545,193.8375 C13.7350009,194.042501 13.8824995,194.279999 13.9875,194.55 C14.0925005,194.820001 14.145,195.119998 14.145,195.45 C14.145,195.870002 14.0625008,196.249998 13.8975,196.59 C13.7324992,196.930002 13.5075014,197.217499 13.2225,197.4525 C12.9374986,197.687501 12.6050019,197.867499 12.225,197.9925 C11.8449981,198.117501 11.4350022,198.18 10.995,198.18 Z M16.785,198.18 C16.5349987,198.18 16.3225009,198.092501 16.1475,197.9175 C15.9724991,197.742499 15.885,197.520001 15.885,197.25 C15.885,196.959999 15.9724991,196.727501 16.1475,196.5525 C16.3225009,196.377499 16.5349987,196.29 16.785,196.29 C17.0250012,196.29 17.2324991,196.377499 17.4075,196.5525 C17.5825009,196.727501 17.67,196.959999 17.67,197.25 C17.67,197.520001 17.5825009,197.742499 17.4075,197.9175 C17.2324991,198.092501 17.0250012,198.18 16.785,198.18 Z M22.185,198.18 C21.8049981,198.18 21.4575016,198.1425 21.1425,198.0675 C20.8274984,197.9925 20.5400013,197.892501 20.28,197.7675 C20.0199987,197.642499 19.787501,197.500001 19.5825,197.34 C19.377499,197.179999 19.1950008,197.010001 19.035,196.83 L19.665,196.02 C19.9550014,196.320001 20.2924981,196.584999 20.6775,196.815 C21.0625019,197.045001 21.5399971,197.16 22.11,197.16 C22.6900029,197.16 23.1649981,197.002502 23.535,196.6875 C23.9050018,196.372498 24.09,195.945003 24.09,195.405 C24.09,195.124999 24.0375005,194.867501 23.9325,194.6325 C23.8274995,194.397499 23.6550012,194.195001 23.415,194.025 C23.1749988,193.854999 22.8600019,193.725 22.47,193.635 C22.079998,193.545 21.6000028,193.5 21.03,193.5 L21.03,192.555 C21.5400025,192.555 21.9674983,192.51 22.3125,192.42 C22.6575017,192.33 22.9374989,192.205001 23.1525,192.045 C23.3675011,191.884999 23.5199995,191.695001 23.61,191.475 C23.7000004,191.254999 23.745,191.020001 23.745,190.77 C23.745,190.299998 23.5975015,189.930001 23.3025,189.66 C23.0074985,189.389999 22.6050025,189.255 22.095,189.255 C21.694998,189.255 21.3275017,189.344999 20.9925,189.525 C20.6574983,189.705001 20.3450014,189.939999 20.055,190.23 L19.395,189.45 C19.7650018,189.099998 20.1724978,188.812501 20.6175,188.5875 C21.0625022,188.362499 21.5699971,188.25 22.14,188.25 C22.5600021,188.25 22.9449982,188.304999 23.295,188.415 C23.6450017,188.525001 23.9474987,188.682499 24.2025,188.8875 C24.4575013,189.092501 24.6549993,189.344998 24.795,189.645 C24.9350007,189.945001 25.005,190.289998 25.005,190.68 C25.005,191.260003 24.8450016,191.734998 24.525,192.105 C24.2049984,192.475002 23.7850026,192.759999 23.265,192.96 L23.265,193.02 C23.5550014,193.09 23.8249987,193.192499 24.075,193.3275 C24.3250012,193.462501 24.544999,193.632499 24.735,193.8375 C24.9250009,194.042501 25.0724995,194.279999 25.1775,194.55 C25.2825005,194.820001 25.335,195.119998 25.335,195.45 C25.335,195.870002 25.2525008,196.249998 25.0875,196.59 C24.9224992,196.930002 24.6975014,197.217499 24.4125,197.4525 C24.1274986,197.687501 23.7950019,197.867499 23.415,197.9925 C23.0349981,198.117501 22.6250022,198.18 22.185,198.18 Z M32.625,198.18 C32.234998,198.18 31.9075013,198.120001 31.6425,198 C31.3774987,197.879999 31.1625008,197.715001 30.9975,197.505 C30.8324992,197.294999 30.7150003,197.040001 30.645,196.74 C30.5749996,196.439998 30.54,196.110002 30.54,195.75 L30.54,191.715 L29.46,191.715 L29.46,190.785 L30.6,190.71 L30.75,188.67 L31.785,188.67 L31.785,190.71 L33.75,190.71 L33.75,191.715 L31.785,191.715 L31.785,195.765 C31.785,196.215002 31.8674992,196.562499 32.0325,196.8075 C32.1975008,197.052501 32.4899979,197.175 32.91,197.175 C33.0400006,197.175 33.1799992,197.155 33.33,197.115 C33.4800007,197.075 33.6149994,197.03 33.735,196.98 L33.975,197.91 C33.774999,197.98 33.5575012,198.0425 33.3225,198.0975 C33.0874988,198.1525 32.8550011,198.18 32.625,198.18 Z M35.4,198 L35.4,190.71 L36.42,190.71 L36.525,192.03 L36.57,192.03 C36.8200012,191.569998 37.1224982,191.205001 37.4775,190.935 C37.8325018,190.664999 38.2199979,190.53 38.64,190.53 C38.9300014,190.53 39.1899988,190.579999 39.42,190.68 L39.18,191.76 C39.0599994,191.72 38.9500005,191.69 38.85,191.67 C38.7499995,191.65 38.6250007,191.64 38.475,191.64 C38.1649984,191.64 37.8425017,191.764999 37.5075,192.015 C37.1724983,192.265001 36.8800012,192.699997 36.63,193.32 L36.63,198 L35.4,198 Z M40.605,198 L40.605,190.71 L41.835,190.71 L41.835,198 L40.605,198 Z M41.235,189.21 C40.9949988,189.21 40.7925008,189.135001 40.6275,188.985 C40.4624992,188.834999 40.38,188.645001 40.38,188.415 C40.38,188.174999 40.4624992,187.982501 40.6275,187.8375 C40.7925008,187.692499 40.9949988,187.62 41.235,187.62 C41.4750012,187.62 41.6774992,187.692499 41.8425,187.8375 C42.0075008,187.982501 42.09,188.174999 42.09,188.415 C42.09,188.645001 42.0075008,188.834999 41.8425,188.985 C41.6774992,189.135001 41.4750012,189.21 41.235,189.21 Z M45.6,198.18 C45.1299976,198.18 44.795001,198.040001 44.595,197.76 C44.394999,197.479999 44.295,197.070003 44.295,196.53 L44.295,187.32 L45.525,187.32 L45.525,196.62 C45.525,196.820001 45.5599996,196.96 45.63,197.04 C45.7000003,197.12 45.7799995,197.16 45.87,197.16 L45.9825,197.16 C46.0175002,197.16 46.0699996,197.15 46.14,197.13 L46.305,198.06 C46.2249996,198.1 46.1300005,198.13 46.02,198.15 C45.9099994,198.17 45.7700008,198.18 45.6,198.18 Z M49.425,198.18 C48.9549976,198.18 48.620001,198.040001 48.42,197.76 C48.219999,197.479999 48.12,197.070003 48.12,196.53 L48.12,187.32 L49.35,187.32 L49.35,196.62 C49.35,196.820001 49.3849996,196.96 49.455,197.04 C49.5250003,197.12 49.6049995,197.16 49.695,197.16 L49.8075,197.16 C49.8425002,197.16 49.8949996,197.15 49.965,197.13 L50.13,198.06 C50.0499996,198.1 49.9550005,198.13 49.845,198.15 C49.7349994,198.17 49.5950008,198.18 49.425,198.18 Z M51.945,198 L51.945,190.71 L53.175,190.71 L53.175,198 L51.945,198 Z M52.575,189.21 C52.3349988,189.21 52.1325008,189.135001 51.9675,188.985 C51.8024992,188.834999 51.72,188.645001 51.72,188.415 C51.72,188.174999 51.8024992,187.982501 51.9675,187.8375 C52.1325008,187.692499 52.3349988,187.62 52.575,187.62 C52.8150012,187.62 53.0174992,187.692499 53.1825,187.8375 C53.3475008,187.982501 53.43,188.174999 53.43,188.415 C53.43,188.645001 53.3475008,188.834999 53.1825,188.985 C53.0174992,189.135001 52.8150012,189.21 52.575,189.21 Z M58.47,198.18 C58.0199977,198.18 57.592502,198.095001 57.1875,197.925 C56.782498,197.754999 56.4250015,197.507502 56.115,197.1825 C55.8049984,196.857498 55.5575009,196.457502 55.3725,195.9825 C55.1874991,195.507498 55.095,194.970003 55.095,194.37 C55.095,193.759997 55.1874991,193.217502 55.3725,192.7425 C55.5575009,192.267498 55.8049984,191.865002 56.115,191.535 C56.4250015,191.204998 56.782498,190.955001 57.1875,190.785 C57.592502,190.614999 58.0199977,190.53 58.47,190.53 C58.9200022,190.53 59.347498,190.614999 59.7525,190.785 C60.157502,190.955001 60.5149984,191.204998 60.825,191.535 C61.1350015,191.865002 61.3824991,192.267498 61.5675,192.7425 C61.7525009,193.217502 61.845,193.759997 61.845,194.37 C61.845,194.970003 61.7525009,195.507498 61.5675,195.9825 C61.3824991,196.457502 61.1350015,196.857498 60.825,197.1825 C60.5149984,197.507502 60.157502,197.754999 59.7525,197.925 C59.347498,198.095001 58.9200022,198.18 58.47,198.18 Z M58.47,197.16 C58.7800015,197.16 59.0649987,197.092501 59.325,196.9575 C59.5850013,196.822499 59.8074991,196.632501 59.9925,196.3875 C60.1775009,196.142499 60.3199995,195.850002 60.42,195.51 C60.5200005,195.169998 60.57,194.790002 60.57,194.37 C60.57,193.949998 60.5200005,193.567502 60.42,193.2225 C60.3199995,192.877498 60.1775009,192.580001 59.9925,192.33 C59.8074991,192.079999 59.5850013,191.887501 59.325,191.7525 C59.0649987,191.617499 58.7800015,191.55 58.47,191.55 C58.1599984,191.55 57.8750013,191.617499 57.615,191.7525 C57.3549987,191.887501 57.1325009,192.079999 56.9475,192.33 C56.7624991,192.580001 56.6200005,192.877498 56.52,193.2225 C56.4199995,193.567502 56.37,193.949998 56.37,194.37 C56.37,194.790002 56.4199995,195.169998 56.52,195.51 C56.6200005,195.850002 56.7624991,196.142499 56.9475,196.3875 C57.1325009,196.632501 57.3549987,196.822499 57.615,196.9575 C57.8750013,197.092501 58.1599984,197.16 58.47,197.16 Z M63.765,198 L63.765,190.71 L64.785,190.71 L64.89,191.76 L64.935,191.76 C65.2850017,191.409998 65.6524981,191.117501 66.0375,190.8825 C66.4225019,190.647499 66.8699974,190.53 67.38,190.53 C68.1500038,190.53 68.7124982,190.769998 69.0675,191.25 C69.4225018,191.730002 69.6,192.439995 69.6,193.38 L69.6,198 L68.37,198 L68.37,193.545 C68.37,192.854997 68.2600011,192.357502 68.04,192.0525 C67.8199989,191.747498 67.4700024,191.595 66.99,191.595 C66.6099981,191.595 66.2750014,191.689999 65.985,191.88 C65.6949985,192.070001 65.3650018,192.349998 64.995,192.72 L64.995,198 L63.765,198 Z" id="$3.3trillion" fill="#666666" opacity="0.5"></path>
        </g>
    </g>
</svg>