<?xml version="1.0" encoding="UTF-8"?>
<svg width="620px" height="400px" viewBox="0 0 620 400" version="1.1" xmlns="http://www.w3.org/2000/svg" xmlns:xlink="http://www.w3.org/1999/xlink">
    <!-- Generator: Sketch 58 (84663) - https://sketch.com -->
    <title>deficit-graph-outline</title>
    <desc>Created with Sketch.</desc>
    <defs>
        <rect id="path-1" x="236" y="39" width="50" height="62"></rect>
        <filter x="-91.0%" y="-71.8%" width="282.0%" height="246.8%" filterUnits="objectBoundingBox" id="filter-2">
            <feOffset dx="0" dy="1" in="SourceAlpha" result="shadowOffsetOuter1"></feOffset>
            <feGaussianBlur stdDeviation="15" in="shadowOffsetOuter1" result="shadowBlurOuter1"></feGaussianBlur>
            <feColorMatrix values="0 0 0 0 0.262745098   0 0 0 0 0.262745098   0 0 0 0 0.262745098  0 0 0 0.1 0" type="matrix" in="shadowBlurOuter1"></feColorMatrix>
        </filter>
    </defs>
    <g id="deficit-graph-outline" stroke="none" stroke-width="1" fill="none" fill-rule="evenodd">
        <rect id="Rectangle" fill="#0A2F5A" fill-rule="nonzero" opacity="0.5" x="236" y="101" width="50" height="243"></rect>
        <rect id="Rectangle-Copy" fill="#006C6D" fill-rule="nonzero" opacity="0.5" x="326" y="39" width="50" height="305"></rect>
        <g id="Rectangle" fill-rule="nonzero">
            <use fill="black" fill-opacity="1" filter="url(#filter-2)" xlink:href="#path-1"></use>
            <use fill="#B3532D" xlink:href="#path-1"></use>
        </g>
        <path d="M224.071429,67.0022321 C224.168155,67.0022321 224.25372,67.0394342 224.328125,67.1138393 L229.529018,72.3147321 C229.603423,72.3891373 229.640625,72.4747019 229.640625,72.5714286 C229.640625,72.6681552 229.603423,72.7537199 229.529018,72.828125 L224.328125,78.0290179 C224.25372,78.103423 224.168155,78.140625 224.071429,78.140625 C223.974702,78.140625 223.889137,78.103423 223.814732,78.0290179 L223.256696,77.4709821 C223.182291,77.396577 223.145089,77.3110124 223.145089,77.2142857 C223.145089,77.117559 223.182291,77.0319944 223.256696,76.9575893 L226.964,73.2492321 L211.25,73.25 L211.25,71.75 L226.82,71.7492321 L223.256696,68.1852679 C223.182291,68.1108627 223.145089,68.0252981 223.145089,67.9285714 C223.145089,67.8318448 223.182291,67.7462801 223.256696,67.671875 L223.814732,67.1138393 C223.889137,67.0394342 223.974702,67.0022321 224.071429,67.0022321 Z" id="Combined-Shape" fill="#AB4A16" fill-rule="nonzero"></path>
        <path d="M386.714286,201.002232 C386.811012,201.002232 386.896577,201.039434 386.970982,201.113839 L386.970982,201.113839 L387.529018,201.671875 C387.603423,201.74628 387.640625,201.831845 387.640625,201.928571 C387.640625,202.025298 387.603423,202.110863 387.529018,202.185268 L387.529018,202.185268 L383.964089,205.749232 L399.75,205.75 L399.75,207.25 L383.820089,207.249232 L387.529018,210.957589 C387.584822,211.013393 387.619699,211.075474 387.63365,211.143834 L387.640625,211.214286 C387.640625,211.311012 387.603423,211.396577 387.529018,211.470982 L387.529018,211.470982 L386.970982,212.029018 C386.896577,212.103423 386.811012,212.140625 386.714286,212.140625 C386.617559,212.140625 386.531994,212.103423 386.457589,212.029018 L386.457589,212.029018 L381.256696,206.828125 C381.182291,206.75372 381.145089,206.668155 381.145089,206.571429 C381.145089,206.474702 381.182291,206.389137 381.256696,206.314732 L381.256696,206.314732 L386.457589,201.113839 C386.531994,201.039434 386.617559,201.002232 386.714286,201.002232 Z M383.249089,206.464232 L383.142857,206.571429 L383.249089,206.678232 L383.249089,206.464232 Z" id="Combined-Shape" fill="#006C6D" fill-rule="nonzero" opacity="0.5"></path>
        <path d="M224.071429,220.002232 C224.168155,220.002232 224.25372,220.039434 224.328125,220.113839 L229.529018,225.314732 C229.603423,225.389137 229.640625,225.474702 229.640625,225.571429 C229.640625,225.668155 229.603423,225.75372 229.529018,225.828125 L224.328125,231.029018 C224.25372,231.103423 224.168155,231.140625 224.071429,231.140625 C223.974702,231.140625 223.889137,231.103423 223.814732,231.029018 L223.256696,230.470982 C223.182291,230.396577 223.145089,230.311012 223.145089,230.214286 C223.145089,230.117559 223.182291,230.031994 223.256696,229.957589 L226.964,226.249232 L211.25,226.25 L211.25,224.75 L226.82,224.749232 L223.256696,221.185268 C223.182291,221.110863 223.145089,221.025298 223.145089,220.928571 C223.145089,220.831845 223.182291,220.74628 223.256696,220.671875 L223.814732,220.113839 C223.889137,220.039434 223.974702,220.002232 224.071429,220.002232 Z" id="Combined-Shape" fill="#8497AC" fill-rule="nonzero"></path>
        <path d="M428.142,198.706 C428.562002,199.066002 429.026997,199.359999 429.537,199.588 C430.047003,199.816001 430.547998,199.93 431.04,199.93 C431.592003,199.93 432.002999,199.828001 432.273,199.624 C432.543001,199.419999 432.678,199.144002 432.678,198.796 C432.678,198.615999 432.639,198.460001 432.561,198.328 C432.483,198.195999 432.369001,198.079001 432.219,197.977 C432.068999,197.874999 431.889001,197.779 431.679,197.689 L430.986,197.392 L429.456,196.744 C429.155999,196.623999 428.865001,196.468001 428.583,196.276 C428.300999,196.083999 428.049001,195.859001 427.827,195.601 C427.604999,195.342999 427.428001,195.043002 427.296,194.701 C427.163999,194.358998 427.098,193.972002 427.098,193.54 C427.098,193.059998 427.199999,192.607002 427.404,192.181 C427.608001,191.754998 427.895998,191.383002 428.268,191.065 C428.640002,190.746998 429.080997,190.498001 429.591,190.318 C430.101003,190.137999 430.661997,190.048 431.274,190.048 C431.958003,190.048 432.632997,190.179999 433.299,190.444 C433.965003,190.708001 434.549997,191.091997 435.054,191.596 L433.704,193.27 C433.319998,192.969998 432.936002,192.739001 432.552,192.577 C432.167998,192.414999 431.742002,192.334 431.274,192.334 C430.817998,192.334 430.455001,192.426999 430.185,192.613 C429.914999,192.799001 429.78,193.059998 429.78,193.396 C429.78,193.576001 429.825,193.728999 429.915,193.855 C430.005,193.981001 430.130999,194.094999 430.293,194.197 C430.455001,194.299001 430.643999,194.395 430.86,194.485 L431.562,194.782 L431.562,194.782 L433.074,195.394 C433.794004,195.682001 434.360998,196.077997 434.775,196.582 C435.189002,197.086003 435.396,197.751996 435.396,198.58 C435.396,199.072002 435.297001,199.536998 435.099,199.975 C434.900999,200.413002 434.613002,200.796998 434.235,201.127 C433.856998,201.457002 433.392003,201.720999 432.84,201.919 C432.287997,202.117001 431.664003,202.216 430.968,202.216 C430.199996,202.216 429.435004,202.075001 428.673,201.793 C427.910996,201.510999 427.230003,201.088003 426.63,200.524 L428.142,198.706 Z M438.964,190.264 L443.248,190.264 C443.884003,190.264 444.480997,190.326999 445.039,190.453 C445.597003,190.579001 446.082998,190.788999 446.497,191.083 C446.911002,191.377001 447.237999,191.766998 447.478,192.253 C447.718001,192.739002 447.838,193.335996 447.838,194.044 C447.838,194.728003 447.715001,195.321997 447.469,195.826 C447.222999,196.330003 446.890002,196.743998 446.47,197.068 C446.049998,197.392002 445.564003,197.631999 445.012,197.788 C444.459997,197.944001 443.872003,198.022 443.248,198.022 L441.61,198.022 L441.61,202 L438.964,202 L438.964,190.264 Z M443.086,195.916 C444.526007,195.916 445.246,195.292006 445.246,194.044 C445.246,193.431997 445.063002,193.000001 444.697,192.748 C444.330998,192.495999 443.794004,192.37 443.086,192.37 L441.61,192.37 L441.61,195.916 L443.086,195.916 Z M451.442,190.264 L458.786,190.264 L458.786,192.496 L454.088,192.496 L454.088,194.854 L458.084,194.854 L458.084,197.068 L454.088,197.068 L454.088,199.768 L458.966,199.768 L458.966,202 L451.442,202 L451.442,190.264 Z M462.876,190.264 L465.594,190.264 L468.654,196.096 L469.806,198.688 L469.878,198.688 L469.671,196.6 L469.671,196.6 C469.593,195.831996 469.554,195.100003 469.554,194.404 L469.554,190.264 L472.074,190.264 L472.074,202 L469.356,202 L466.296,196.15 L465.144,193.594 L465.072,193.594 L465.16875,194.602 C465.20325,194.949999 465.24,195.309998 465.279,195.682 C465.357001,196.426004 465.396,197.145997 465.396,197.842 L465.396,202 L462.876,202 L462.876,190.264 Z M476.416,190.264 L479.728,190.264 C480.628005,190.264 481.437997,190.377999 482.158,190.606 C482.878004,190.834001 483.495998,191.184998 484.012,191.659 C484.528003,192.133002 484.923999,192.735996 485.2,193.468 C485.476002,194.200004 485.614,195.069995 485.614,196.078 C485.614,197.086005 485.476002,197.961996 485.2,198.706 C484.923999,199.450004 484.534003,200.064998 484.03,200.551 C483.525998,201.037002 482.923004,201.399999 482.221,201.64 C481.518997,201.880001 480.736005,202 479.872,202 L476.416,202 L476.416,190.264 Z M479.566,199.858 C480.070003,199.858 480.525998,199.792001 480.934,199.66 C481.342002,199.527999 481.689999,199.315001 481.978,199.021 C482.266002,198.726999 482.490999,198.340002 482.653,197.86 C482.815001,197.379998 482.896,196.786004 482.896,196.078 C482.896,195.381997 482.815001,194.797002 482.653,194.323 C482.490999,193.848998 482.266002,193.471001 481.978,193.189 C481.689999,192.906999 481.342002,192.706001 480.934,192.586 C480.525998,192.465999 480.070003,192.406 479.566,192.406 L479.062,192.406 L479.062,199.858 L479.566,199.858 Z M489.416,190.264 L492.062,190.264 L492.062,202 L489.416,202 L489.416,190.264 Z M496.404,190.264 L499.122,190.264 L502.182,196.096 L503.334,198.688 L503.406,198.688 L503.199,196.6 L503.199,196.6 C503.121,195.831996 503.082,195.100003 503.082,194.404 L503.082,190.264 L505.602,190.264 L505.602,202 L502.884,202 L499.824,196.15 L498.672,193.594 L498.6,193.594 L498.69675,194.602 C498.73125,194.949999 498.768,195.309998 498.807,195.682 C498.885001,196.426004 498.924,197.145997 498.924,197.842 L498.924,202 L496.404,202 L496.404,190.264 Z M509.386,196.204 C509.386,195.231995 509.538999,194.365004 509.845,193.603 C510.151002,192.840996 510.564998,192.196003 511.087,191.668 C511.609003,191.139997 512.220997,190.738001 512.923,190.462 C513.625004,190.185999 514.371996,190.048 515.164,190.048 C515.992005,190.048 516.708997,190.203998 517.315,190.516 C517.921003,190.828002 518.415998,191.181998 518.8,191.578 L517.342,193.216 C517.053999,192.939999 516.751002,192.724001 516.433,192.568 C516.114999,192.411999 515.704003,192.334 515.2,192.334 C514.743998,192.334 514.327002,192.420999 513.949,192.595 C513.570998,192.769001 513.244002,193.017998 512.968,193.342 C512.691999,193.666002 512.479001,194.061998 512.329,194.53 C512.179,194.998002 512.104,195.525997 512.104,196.114 C512.104,197.326006 512.376998,198.264997 512.923,198.931 C513.469003,199.597003 514.293995,199.93 515.398,199.93 C515.638002,199.93 515.871999,199.9 516.1,199.84 C516.328002,199.78 516.514,199.690001 516.658,199.57 L516.658,197.554 L514.714,197.554 L514.714,195.394 L518.998,195.394 L518.998,200.794 C518.577998,201.190002 518.026004,201.525999 517.342,201.802 C516.657997,202.078001 515.902005,202.216 515.074,202.216 C514.281996,202.216 513.541004,202.087001 512.851,201.829 C512.160997,201.570999 511.558003,201.190003 511.042,200.686 C510.525998,200.181997 510.121002,199.555004 509.827,198.805 C509.532999,198.054996 509.386,197.188005 509.386,196.204 Z" id="SPENDING" fill="#666666" fill-rule="nonzero" opacity="0.5"></path>
        <path d="M100.771,45.004 L105.003,45.004 C106.153006,45.004 107.187995,45.1496652 108.108,45.441 C109.028005,45.7323348 109.817663,46.1808303 110.477,46.7865 C111.136337,47.3921697 111.642332,48.162662 111.995,49.098 C112.347668,50.033338 112.524,51.1449936 112.524,52.433 C112.524,53.7210064 112.347668,54.8403286 111.995,55.791 C111.642332,56.7416714 111.144003,57.5274969 110.5,58.1485 C109.855997,58.7695031 109.085504,59.2333318 108.1885,59.54 C107.291496,59.8466682 106.291006,60 105.187,60 L100.771,60 L100.771,45.004 Z M104.796,57.263 C105.440003,57.263 106.022664,57.1786675 106.544,57.01 C107.065336,56.8413325 107.509998,56.5691685 107.878,56.1935 C108.246002,55.8178315 108.533499,55.3233364 108.7405,54.71 C108.947501,54.0966636 109.051,53.3376712 109.051,52.433 C109.051,51.5436622 108.947501,50.7961697 108.7405,50.1905 C108.533499,49.5848303 108.246002,49.1018351 107.878,48.7415 C107.509998,48.3811649 107.065336,48.1243341 106.544,47.971 C106.022664,47.8176659 105.440003,47.741 104.796,47.741 L104.152,47.741 L104.152,57.263 L104.796,57.263 Z M116.946,45.004 L126.33,45.004 L126.33,47.856 L120.327,47.856 L120.327,50.869 L125.433,50.869 L125.433,53.698 L120.327,53.698 L120.327,57.148 L126.56,57.148 L126.56,60 L116.946,60 L116.946,45.004 Z M131.12,45.004 L140.573,45.004 L140.573,47.856 L134.501,47.856 L134.501,51.329 L139.699,51.329 L139.699,54.181 L134.501,54.181 L134.501,60 L131.12,60 L131.12,45.004 Z M144.742,45.004 L148.123,45.004 L148.123,60 L144.742,60 L144.742,45.004 Z M152.522,52.594 C152.522,51.3519938 152.713665,50.2441715 153.097,49.2705 C153.480335,48.2968285 153.99783,47.47267 154.6495,46.798 C155.30117,46.12333 156.060163,45.6096684 156.9265,45.257 C157.792838,44.9043316 158.708995,44.728 159.675,44.728 C160.610338,44.728 161.457496,44.923498 162.2165,45.3145 C162.975504,45.705502 163.607998,46.1616641 164.114,46.683 L162.251,48.776 C161.867665,48.4233316 161.480502,48.1473343 161.0895,47.948 C160.698498,47.7486657 160.242336,47.649 159.721,47.649 C159.199664,47.649 158.712836,47.7601656 158.2605,47.9825 C157.808165,48.2048344 157.413335,48.5229979 157.076,48.937 C156.738665,49.3510021 156.474168,49.856997 156.2825,50.455 C156.090833,51.053003 155.995,51.7276629 155.995,52.479 C155.995,54.0276744 156.324664,55.2274957 156.984,56.0785 C157.643337,56.9295043 158.524995,57.355 159.629,57.355 C160.242337,57.355 160.778998,57.2323346 161.239,56.987 C161.699003,56.7416654 162.112998,56.4196687 162.481,56.021 L164.344,58.068 C163.71533,58.8040037 162.998504,59.3559982 162.1935,59.724 C161.388496,60.0920018 160.518338,60.276 159.583,60.276 C158.616995,60.276 157.704671,60.1111683 156.846,59.7815 C155.987329,59.4518317 155.236003,58.9650032 154.592,58.321 C153.947997,57.6769968 153.442002,56.8758381 153.074,55.9175 C152.705998,54.9591619 152.522,53.8513396 152.522,52.594 Z M168.191,45.004 L171.572,45.004 L171.572,60 L168.191,60 L168.191,45.004 Z M179.605,47.856 L175.488,47.856 L175.488,45.004 L187.126,45.004 L187.126,47.856 L183.009,47.856 L183.009,60 L179.605,60 L179.605,47.856 Z" id="DEFICIT" fill="#555555" fill-rule="nonzero"></path>
        <path d="M431.7,215.14 C431.419999,214.869999 431.147501,214.660001 430.8825,214.51 C430.617499,214.359999 430.28,214.285 429.87,214.285 C429.409998,214.285 429.045001,214.414999 428.775,214.675 C428.504999,214.935001 428.37,215.284998 428.37,215.725 C428.37,216.085002 428.472499,216.379999 428.6775,216.61 C428.882501,216.840001 429.139998,217.042499 429.45,217.2175 C429.760002,217.392501 430.097498,217.562499 430.4625,217.7275 C430.827502,217.892501 431.164998,218.092499 431.475,218.3275 C431.785002,218.562501 432.042499,218.852498 432.2475,219.1975 C432.452501,219.542502 432.555,219.984997 432.555,220.525 C432.555,221.245004 432.347502,221.834998 431.9325,222.295 C431.517498,222.755002 430.950004,223.034999 430.23,223.135 L430.23,224.65 L429.33,224.65 L429.33,223.165 C428.849998,223.115 428.385002,222.982501 427.935,222.7675 C427.484998,222.552499 427.100002,222.300001 426.78,222.01 L427.35,221.155 C427.670002,221.435001 428.022498,221.672499 428.4075,221.8675 C428.792502,222.062501 429.214998,222.16 429.675,222.16 C430.235003,222.16 430.652499,222.020001 430.9275,221.74 C431.202501,221.459999 431.34,221.085002 431.34,220.615 C431.34,220.214998 431.237501,219.882501 431.0325,219.6175 C430.827499,219.352499 430.570002,219.122501 430.26,218.9275 C430.053332,218.797499 429.834445,218.673055 429.603334,218.554167 L429.2475,218.38 C428.882498,218.209999 428.545002,218.015001 428.235,217.795 C427.924998,217.574999 427.667501,217.307502 427.4625,216.9925 C427.257499,216.677498 427.155,216.275002 427.155,215.785 C427.155,215.114997 427.352498,214.557502 427.7475,214.1125 C428.142502,213.667498 428.669997,213.390001 429.33,213.28 L429.33,211.78 L430.23,211.78 L430.23,213.265 C430.710002,213.315 431.117498,213.444999 431.4525,213.655 C431.787502,213.865001 432.089999,214.114999 432.36,214.405 L431.7,215.14 Z M435.015,219.37 L438.015,219.37 L438.015,216.595 C438.015,216.399999 438.019219,216.178282 438.027656,215.929844 L438.061875,215.175625 C438.070625,215.021875 438.08,214.880001 438.09,214.75 L438.03,214.75 C437.909999,214.980001 437.785001,215.204999 437.655,215.425 L437.25,216.1 L437.25,216.1 L435.015,219.37 Z M440.49,220.36 L439.185,220.36 L439.185,223 L438.015,223 L438.015,220.36 L433.71,220.36 L433.71,219.55 L437.805,213.43 L439.185,213.43 L439.185,219.37 L440.49,219.37 L440.49,220.36 Z M441.885,222.25 C441.885,221.959999 441.972499,221.727501 442.1475,221.5525 C442.322501,221.377499 442.534999,221.29 442.785,221.29 C443.025001,221.29 443.232499,221.377499 443.4075,221.5525 C443.582501,221.727501 443.67,221.959999 443.67,222.25 C443.67,222.520001 443.582501,222.742499 443.4075,222.9175 C443.232499,223.092501 443.025001,223.18 442.785,223.18 C442.534999,223.18 442.322501,223.092501 442.1475,222.9175 C441.972499,222.742499 441.885,222.520001 441.885,222.25 Z M446.205,219.37 L449.205,219.37 L449.205,216.595 C449.205,216.399999 449.209219,216.178282 449.217656,215.929844 L449.251875,215.175625 C449.260625,215.021875 449.27,214.880001 449.28,214.75 L449.22,214.75 C449.099999,214.980001 448.975001,215.204999 448.845,215.425 L448.44,216.1 L448.44,216.1 L446.205,219.37 Z M451.68,220.36 L450.375,220.36 L450.375,223 L449.205,223 L449.205,220.36 L444.9,220.36 L444.9,219.55 L448.995,213.43 L450.375,213.43 L450.375,219.37 L451.68,219.37 L451.68,220.36 Z M456.57,216.715 L455.49,216.715 L455.49,215.785 L456.63,215.71 L456.78,213.67 L457.815,213.67 L457.815,215.71 L459.78,215.71 L459.78,216.715 L457.815,216.715 L457.815,220.765 C457.815,221.215002 457.897499,221.562499 458.0625,221.8075 C458.227501,222.052501 458.519998,222.175 458.94,222.175 C459.070001,222.175 459.209999,222.155 459.36,222.115 C459.510001,222.075 459.644999,222.03 459.765,221.98 L460.005,222.91 C459.804999,222.98 459.587501,223.0425 459.3525,223.0975 C459.117499,223.1525 458.885001,223.18 458.655,223.18 C458.264998,223.18 457.937501,223.120001 457.6725,223 C457.407499,222.879999 457.192501,222.715001 457.0275,222.505 C456.862499,222.294999 456.745,222.040001 456.675,221.74 C456.605,221.439998 456.57,221.110002 456.57,220.75 L456.57,216.715 Z M461.43,215.71 L462.45,215.71 L462.555,217.03 L462.6,217.03 C462.850001,216.569998 463.152498,216.205001 463.5075,215.935 C463.862502,215.664999 464.249998,215.53 464.67,215.53 C464.960001,215.53 465.219999,215.579999 465.45,215.68 L465.21,216.76 C465.089999,216.72 464.980001,216.69 464.88,216.67 C464.78,216.65 464.655001,216.64 464.505,216.64 C464.194998,216.64 463.872502,216.764999 463.5375,217.015 C463.202498,217.265001 462.910001,217.699997 462.66,218.32 L462.66,223 L461.43,223 L461.43,215.71 Z M467.265,214.21 C467.024999,214.21 466.822501,214.135001 466.6575,213.985 C466.492499,213.834999 466.41,213.645001 466.41,213.415 C466.41,213.174999 466.492499,212.982501 466.6575,212.8375 C466.822501,212.692499 467.024999,212.62 467.265,212.62 C467.505001,212.62 467.707499,212.692499 467.8725,212.8375 C468.037501,212.982501 468.12,213.174999 468.12,213.415 C468.12,213.645001 468.037501,213.834999 467.8725,213.985 C467.707499,214.135001 467.505001,214.21 467.265,214.21 Z M466.635,215.71 L467.865,215.71 L467.865,223 L466.635,223 L466.635,215.71 Z M470.325,212.32 L471.555,212.32 L471.555,221.62 C471.555,221.82 471.59,221.96 471.66,222.04 C471.73,222.12 471.81,222.16 471.9,222.16 L472.0125,222.16 C472.0475,222.16 472.1,222.15 472.17,222.13 L472.335,223.06 C472.255,223.1 472.160001,223.13 472.05,223.15 C471.939999,223.17 471.800001,223.18 471.63,223.18 C471.159998,223.18 470.825,223.040001 470.625,222.76 C470.424999,222.479999 470.325,222.070003 470.325,221.53 L470.325,212.32 Z M474.15,212.32 L475.38,212.32 L475.38,221.62 C475.38,221.82 475.415,221.96 475.485,222.04 C475.555,222.12 475.635,222.16 475.725,222.16 L475.8375,222.16 C475.8725,222.16 475.925,222.15 475.995,222.13 L476.16,223.06 C476.08,223.1 475.985001,223.13 475.875,223.15 C475.764999,223.17 475.625001,223.18 475.455,223.18 C474.984998,223.18 474.65,223.040001 474.45,222.76 C474.249999,222.479999 474.15,222.070003 474.15,221.53 L474.15,212.32 Z M478.605,214.21 C478.364999,214.21 478.162501,214.135001 477.9975,213.985 C477.832499,213.834999 477.75,213.645001 477.75,213.415 C477.75,213.174999 477.832499,212.982501 477.9975,212.8375 C478.162501,212.692499 478.364999,212.62 478.605,212.62 C478.845001,212.62 479.047499,212.692499 479.2125,212.8375 C479.377501,212.982501 479.46,213.174999 479.46,213.415 C479.46,213.645001 479.377501,213.834999 479.2125,213.985 C479.047499,214.135001 478.845001,214.21 478.605,214.21 Z M477.975,215.71 L479.205,215.71 L479.205,223 L477.975,223 L477.975,215.71 Z M481.125,219.37 C481.125,218.759997 481.217499,218.217502 481.4025,217.7425 C481.587501,217.267498 481.834998,216.865002 482.145,216.535 C482.455002,216.204998 482.812498,215.955001 483.2175,215.785 C483.622502,215.614999 484.049998,215.53 484.5,215.53 C484.950002,215.53 485.377498,215.614999 485.7825,215.785 C486.187502,215.955001 486.544998,216.204998 486.855,216.535 C487.165002,216.865002 487.412499,217.267498 487.5975,217.7425 C487.782501,218.217502 487.875,218.759997 487.875,219.37 C487.875,219.970003 487.782501,220.507498 487.5975,220.9825 C487.412499,221.457502 487.165002,221.857498 486.855,222.1825 C486.544998,222.507502 486.187502,222.754999 485.7825,222.925 C485.377498,223.095001 484.950002,223.18 484.5,223.18 C484.049998,223.18 483.622502,223.095001 483.2175,222.925 C482.812498,222.754999 482.455002,222.507502 482.145,222.1825 C481.834998,221.857498 481.587501,221.457502 481.4025,220.9825 C481.217499,220.507498 481.125,219.970003 481.125,219.37 Z M482.4,219.37 C482.4,219.790002 482.45,220.169998 482.55,220.51 C482.650001,220.850002 482.792499,221.142499 482.9775,221.3875 C483.162501,221.632501 483.384999,221.822499 483.645,221.9575 C483.905001,222.092501 484.189998,222.16 484.5,222.16 C484.810002,222.16 485.094999,222.092501 485.355,221.9575 C485.615001,221.822499 485.837499,221.632501 486.0225,221.3875 C486.207501,221.142499 486.35,220.850002 486.45,220.51 C486.550001,220.169998 486.6,219.790002 486.6,219.37 C486.6,218.949998 486.550001,218.567502 486.45,218.2225 C486.35,217.877498 486.207501,217.580001 486.0225,217.33 C485.837499,217.079999 485.615001,216.887501 485.355,216.7525 C485.094999,216.617499 484.810002,216.55 484.5,216.55 C484.189998,216.55 483.905001,216.617499 483.645,216.7525 C483.384999,216.887501 483.162501,217.079999 482.9775,217.33 C482.792499,217.580001 482.650001,217.877498 482.55,218.2225 C482.45,218.567502 482.4,218.949998 482.4,219.37 Z M489.795,215.71 L490.815,215.71 L490.92,216.76 L490.965,216.76 C491.315002,216.409998 491.682498,216.117501 492.0675,215.8825 C492.452502,215.647499 492.899997,215.53 493.41,215.53 C494.180004,215.53 494.742498,215.769998 495.0975,216.25 C495.452502,216.730002 495.63,217.439995 495.63,218.38 L495.63,223 L494.4,223 L494.4,218.545 C494.4,217.854997 494.290001,217.357502 494.07,217.0525 C493.849999,216.747498 493.500002,216.595 493.02,216.595 C492.639998,216.595 492.305001,216.689999 492.015,216.88 C491.724999,217.070001 491.395002,217.349998 491.025,217.72 L491.025,223 L489.795,223 L489.795,215.71 Z" id="$4.4trillion" fill="#666666" fill-rule="nonzero" opacity="0.5"></path>
        <path d="M104.7,72.14 C104.419999,71.8699986 104.147501,71.6600007 103.8825,71.51 C103.617499,71.3599992 103.28,71.285 102.87,71.285 C102.409998,71.285 102.045001,71.4149987 101.775,71.675 C101.504999,71.9350013 101.37,72.2849978 101.37,72.725 C101.37,73.0850018 101.472499,73.3799988 101.6775,73.61 C101.882501,73.8400011 102.139998,74.0424991 102.45,74.2175 C102.760002,74.3925009 103.097498,74.5624992 103.4625,74.7275 C103.827502,74.8925008 104.164998,75.0924988 104.475,75.3275 C104.785002,75.5625012 105.042499,75.8524983 105.2475,76.1975 C105.452501,76.5425017 105.555,76.9849973 105.555,77.525 C105.555,78.2450036 105.347502,78.8349977 104.9325,79.295 C104.517498,79.7550023 103.950004,80.0349995 103.23,80.135 L103.23,81.65 L102.33,81.65 L102.33,80.165 C101.849998,80.1149997 101.385002,79.9825011 100.935,79.7675 C100.484998,79.5524989 100.100002,79.3000014 99.78,79.01 L100.35,78.155 C100.670002,78.4350014 101.022498,78.672499 101.4075,78.8675 C101.792502,79.062501 102.214998,79.16 102.675,79.16 C103.235003,79.16 103.652499,79.0200014 103.9275,78.74 C104.202501,78.4599986 104.34,78.0850023 104.34,77.615 C104.34,77.214998 104.237501,76.8825013 104.0325,76.6175 C103.827499,76.3524987 103.570002,76.122501 103.26,75.9275 C103.053332,75.7974993 102.834445,75.6730555 102.603334,75.5541668 L102.2475,75.38 C101.882498,75.2099991 101.545002,75.0150011 101.235,74.795 C100.924998,74.5749989 100.667501,74.3075016 100.4625,73.9925 C100.257499,73.6774984 100.155,73.2750024 100.155,72.785 C100.155,72.1149966 100.352498,71.5575022 100.7475,71.1125 C101.142502,70.6674978 101.669997,70.3900005 102.33,70.28 L102.33,68.78 L103.23,68.78 L103.23,70.265 C103.710002,70.3150002 104.117498,70.4449989 104.4525,70.655 C104.787502,70.865001 105.089999,71.1149985 105.36,71.405 L104.7,72.14 Z M109.98,75.35 C110.290002,75.35 110.622498,75.252501 110.9775,75.0575 C111.332502,74.862499 111.669998,74.5350023 111.99,74.075 C111.91,73.1349953 111.690002,72.4250024 111.33,71.945 C110.969998,71.4649976 110.485003,71.225 109.875,71.225 C109.644999,71.225 109.427501,71.2749995 109.2225,71.375 C109.017499,71.4750005 108.840001,71.6174991 108.69,71.8025 C108.539999,71.9875009 108.4225,72.2099987 108.3375,72.47 C108.2525,72.7300013 108.21,73.0149984 108.21,73.325 C108.21,73.9550031 108.354999,74.4499982 108.645,74.81 C108.935001,75.1700018 109.379997,75.35 109.98,75.35 Z M107.91,78.395 C108.110001,78.6250011 108.347499,78.8099993 108.6225,78.95 C108.897501,79.0900007 109.184999,79.16 109.485,79.16 C109.825002,79.16 110.144999,79.0900007 110.445,78.95 C110.745002,78.8099993 111.009999,78.5775016 111.24,78.2525 C111.470001,77.9274984 111.654999,77.5050026 111.795,76.985 C111.935001,76.4649974 112.01,75.8200038 112.02,75.05 C111.719999,75.4300019 111.370002,75.7299989 110.97,75.95 C110.569998,76.1700011 110.170002,76.28 109.77,76.28 C108.939996,76.28 108.280002,76.0350024 107.79,75.545 C107.299998,75.0549975 107.055,74.3150049 107.055,73.325 C107.055,72.8649977 107.129999,72.4475019 107.28,72.0725 C107.430001,71.6974981 107.632499,71.3750013 107.8875,71.105 C108.142501,70.8349986 108.442498,70.6250007 108.7875,70.475 C109.132502,70.3249992 109.494998,70.25 109.875,70.25 C110.345002,70.25 110.782498,70.344999 111.1875,70.535 C111.592502,70.7250009 111.942499,71.0124981 112.2375,71.3975 C112.532501,71.7825019 112.762499,72.2624971 112.9275,72.8375 C113.092501,73.4125029 113.175,74.0849961 113.175,74.855 C113.175,75.8150048 113.075001,76.6324966 112.875,77.3075 C112.674999,77.9825034 112.405002,78.5324979 112.065,78.9575 C111.724998,79.3825021 111.337502,79.692499 110.9025,79.8875 C110.467498,80.082501 110.010002,80.18 109.53,80.18 C109.019997,80.18 108.572502,80.0850009 108.1875,79.895 C107.802498,79.704999 107.480001,79.4650014 107.22,79.175 L107.91,78.395 Z M115.635,77.435 C115.635,77.7050013 115.687499,77.9499989 115.7925,78.17 C115.897501,78.3900011 116.042499,78.5824992 116.2275,78.7475 C116.412501,78.9125008 116.629999,79.0399995 116.88,79.13 C117.130001,79.2200004 117.399999,79.265 117.69,79.265 C118.250003,79.265 118.702498,79.1100015 119.0475,78.8 C119.392502,78.4899984 119.565,78.0850025 119.565,77.585 C119.565,77.2749984 119.495001,77.0100011 119.355,76.79 C119.214999,76.5699989 119.025001,76.3775008 118.785,76.2125 C118.544999,76.0474992 118.267502,75.8975007 117.9525,75.7625 L117.305834,75.4891668 C117.195278,75.4430558 117.083334,75.3966669 116.97,75.35 C116.589998,75.6100013 116.272501,75.9124983 116.0175,76.2575 C115.762499,76.6025017 115.635,76.9949978 115.635,77.435 Z M118.335,74.78 C118.655002,74.4899985 118.902499,74.1850016 119.0775,73.865 C119.252501,73.5449984 119.34,73.2100017 119.34,72.86 C119.34,72.3799976 119.195001,71.9775016 118.905,71.6525 C118.614999,71.3274984 118.205003,71.165 117.675,71.165 C117.224998,71.165 116.855001,71.3049986 116.565,71.585 C116.274999,71.8650014 116.13,72.2399976 116.13,72.71 C116.13,73.0000014 116.189999,73.247499 116.31,73.4525 C116.430001,73.657501 116.592499,73.8399992 116.7975,74 C117.002501,74.1600008 117.237499,74.3024994 117.5025,74.4275 C117.767501,74.5525006 118.044999,74.6699994 118.335,74.78 Z M114.525,77.555 C114.525,77.2449984 114.577499,76.9575013 114.6825,76.6925 C114.787501,76.4274987 114.922499,76.1875011 115.0875,75.9725 C115.252501,75.7574989 115.442499,75.5675008 115.6575,75.4025 C115.872501,75.2374992 116.094999,75.0950006 116.325,74.975 L116.325,74.915 C115.974998,74.6649987 115.665001,74.3625018 115.395,74.0075 C115.124999,73.6524982 114.99,73.2200025 114.99,72.71 C114.99,72.3399981 115.059999,72.0050015 115.2,71.705 C115.340001,71.4049985 115.529999,71.1475011 115.77,70.9325 C116.010001,70.7174989 116.294998,70.5500006 116.625,70.43 C116.955002,70.3099994 117.314998,70.25 117.705,70.25 C118.125002,70.25 118.499998,70.3124994 118.83,70.4375 C119.160002,70.5625006 119.442499,70.7374989 119.6775,70.9625 C119.912501,71.1875011 120.092499,71.4574984 120.2175,71.7725 C120.342501,72.0875016 120.405,72.4299981 120.405,72.8 C120.405,73.0500012 120.3625,73.2899988 120.2775,73.52 C120.1925,73.75 120.087501,73.964999 119.9625,74.165 C119.837499,74.365001 119.697501,74.5449992 119.5425,74.705 C119.387499,74.8650008 119.235001,74.9999994 119.085,75.11 L119.085,75.17 C119.295001,75.2900006 119.499999,75.4274992 119.7,75.5825 C119.900001,75.7375008 120.077499,75.912499 120.2325,76.1075 C120.387501,76.302501 120.5125,76.5249987 120.6075,76.775 C120.7025,77.0250012 120.75,77.3099984 120.75,77.63 C120.75,77.9900018 120.675001,78.3249984 120.525,78.635 C120.374999,78.9450015 120.165001,79.2149988 119.895,79.445 C119.624999,79.6750011 119.300002,79.8549993 118.92,79.985 C118.539998,80.1150006 118.120002,80.18 117.66,80.18 C117.209998,80.18 116.792502,80.1150006 116.4075,79.985 C116.022498,79.8549993 115.692501,79.6725012 115.4175,79.4375 C115.142499,79.2024988 114.925001,78.9250016 114.765,78.605 C114.604999,78.2849984 114.525,77.9350019 114.525,77.555 Z M122.925,76.37 L125.925,76.37 L125.925,73.595 C125.925,73.399999 125.929219,73.1782818 125.937656,72.9298443 L125.971875,72.1756248 C125.980625,72.0218752 125.99,71.8800006 126,71.75 L125.94,71.75 C125.819999,71.9800011 125.695001,72.2049989 125.565,72.425 L125.16,73.1 L125.16,73.1 L122.925,76.37 Z M128.4,77.36 L127.095,77.36 L127.095,80 L125.925,80 L125.925,77.36 L121.62,77.36 L121.62,76.55 L125.715,70.43 L127.095,70.43 L127.095,76.37 L128.4,76.37 L128.4,77.36 Z M133.08,69.32 L134.31,69.32 L134.31,72.23 L134.28,73.55 C134.610002,73.2599985 134.969998,73.017501 135.36,72.8225 C135.750002,72.627499 136.149998,72.53 136.56,72.53 C137.030002,72.53 137.444998,72.6174991 137.805,72.7925 C138.165002,72.9675009 138.467499,73.2174984 138.7125,73.5425 C138.957501,73.8675016 139.142499,74.2574977 139.2675,74.7125 C139.392501,75.1675023 139.455,75.6749972 139.455,76.235 C139.455,76.8550031 139.370001,77.4099975 139.2,77.9 C139.029999,78.3900024 138.800001,78.8049983 138.51,79.145 C138.219999,79.4850017 137.885002,79.7424991 137.505,79.9175 C137.124998,80.0925009 136.725002,80.18 136.305,80.18 C135.964998,80.18 135.612502,80.1025008 135.2475,79.9475 C134.882498,79.7924992 134.540002,79.5700014 134.22,79.28 L134.175,79.28 L134.07,80 L133.08,80 L133.08,69.32 Z M134.31,78.38 C134.630002,78.6600014 134.947498,78.8574994 135.2625,78.9725 C135.577502,79.0875006 135.854999,79.145 136.095,79.145 C136.395002,79.145 136.672499,79.0775007 136.9275,78.9425 C137.182501,78.8074993 137.402499,78.6175012 137.5875,78.3725 C137.772501,78.1274988 137.917499,77.8250018 138.0225,77.465 C138.127501,77.1049982 138.18,76.7000022 138.18,76.25 C138.18,75.849998 138.145,75.4850016 138.075,75.155 C138.005,74.8249983 137.892501,74.5425012 137.7375,74.3075 C137.582499,74.0724988 137.382501,73.8900006 137.1375,73.76 C136.892499,73.6299993 136.600002,73.565 136.26,73.565 C135.669997,73.565 135.020004,73.8949967 134.31,74.555 L134.31,78.38 Z M142.035,71.21 C141.794999,71.21 141.592501,71.1350007 141.4275,70.985 C141.262499,70.8349992 141.18,70.6450011 141.18,70.415 C141.18,70.1749988 141.262499,69.9825007 141.4275,69.8375 C141.592501,69.6924993 141.794999,69.62 142.035,69.62 C142.275001,69.62 142.477499,69.6924993 142.6425,69.8375 C142.807501,69.9825007 142.89,70.1749988 142.89,70.415 C142.89,70.6450011 142.807501,70.8349992 142.6425,70.985 C142.477499,71.1350007 142.275001,71.21 142.035,71.21 Z M141.405,72.71 L142.635,72.71 L142.635,80 L141.405,80 L141.405,72.71 Z M145.095,69.32 L146.325,69.32 L146.325,78.62 C146.325,78.82 146.36,78.9599996 146.43,79.04 C146.5,79.1200004 146.58,79.16 146.67,79.16 L146.7825,79.16 C146.8175,79.16 146.87,79.1500001 146.94,79.13 L147.105,80.06 C147.025,80.1000002 146.930001,80.1299999 146.82,80.15 C146.709999,80.1700001 146.570001,80.18 146.4,80.18 C145.929998,80.18 145.595,80.0400014 145.395,79.76 C145.194999,79.4799986 145.095,79.0700027 145.095,78.53 L145.095,69.32 Z M148.92,69.32 L150.15,69.32 L150.15,78.62 C150.15,78.82 150.185,78.9599996 150.255,79.04 C150.325,79.1200004 150.405,79.16 150.495,79.16 L150.6075,79.16 C150.6425,79.16 150.695,79.1500001 150.765,79.13 L150.93,80.06 C150.85,80.1000002 150.755001,80.1299999 150.645,80.15 C150.534999,80.1700001 150.395001,80.18 150.225,80.18 C149.754998,80.18 149.42,80.0400014 149.22,79.76 C149.019999,79.4799986 148.92,79.0700027 148.92,78.53 L148.92,69.32 Z M153.375,71.21 C153.134999,71.21 152.932501,71.1350007 152.7675,70.985 C152.602499,70.8349992 152.52,70.6450011 152.52,70.415 C152.52,70.1749988 152.602499,69.9825007 152.7675,69.8375 C152.932501,69.6924993 153.134999,69.62 153.375,69.62 C153.615001,69.62 153.817499,69.6924993 153.9825,69.8375 C154.147501,69.9825007 154.23,70.1749988 154.23,70.415 C154.23,70.6450011 154.147501,70.8349992 153.9825,70.985 C153.817499,71.1350007 153.615001,71.21 153.375,71.21 Z M152.745,72.71 L153.975,72.71 L153.975,80 L152.745,80 L152.745,72.71 Z M155.895,76.37 C155.895,75.7599969 155.987499,75.2175024 156.1725,74.7425 C156.357501,74.2674976 156.604998,73.8650016 156.915,73.535 C157.225002,73.2049983 157.582498,72.9550008 157.9875,72.785 C158.392502,72.6149991 158.819998,72.53 159.27,72.53 C159.720002,72.53 160.147498,72.6149991 160.5525,72.785 C160.957502,72.9550008 161.314998,73.2049983 161.625,73.535 C161.935002,73.8650016 162.182499,74.2674976 162.3675,74.7425 C162.552501,75.2175024 162.645,75.7599969 162.645,76.37 C162.645,76.970003 162.552501,77.5074976 162.3675,77.9825 C162.182499,78.4575024 161.935002,78.8574984 161.625,79.1825 C161.314998,79.5075016 160.957502,79.7549991 160.5525,79.925 C160.147498,80.0950008 159.720002,80.18 159.27,80.18 C158.819998,80.18 158.392502,80.0950008 157.9875,79.925 C157.582498,79.7549991 157.225002,79.5075016 156.915,79.1825 C156.604998,78.8574984 156.357501,78.4575024 156.1725,77.9825 C155.987499,77.5074976 155.895,76.970003 155.895,76.37 Z M157.17,76.37 C157.17,76.7900021 157.22,77.1699983 157.32,77.51 C157.420001,77.8500017 157.562499,78.1424988 157.7475,78.3875 C157.932501,78.6325012 158.154999,78.8224993 158.415,78.9575 C158.675001,79.0925007 158.959998,79.16 159.27,79.16 C159.580002,79.16 159.864999,79.0925007 160.125,78.9575 C160.385001,78.8224993 160.607499,78.6325012 160.7925,78.3875 C160.977501,78.1424988 161.12,77.8500017 161.22,77.51 C161.320001,77.1699983 161.37,76.7900021 161.37,76.37 C161.37,75.9499979 161.320001,75.5675017 161.22,75.2225 C161.12,74.8774983 160.977501,74.5800012 160.7925,74.33 C160.607499,74.0799987 160.385001,73.8875007 160.125,73.7525 C159.864999,73.6174993 159.580002,73.55 159.27,73.55 C158.959998,73.55 158.675001,73.6174993 158.415,73.7525 C158.154999,73.8875007 157.932501,74.0799987 157.7475,74.33 C157.562499,74.5800012 157.420001,74.8774983 157.32,75.2225 C157.22,75.5675017 157.17,75.9499979 157.17,76.37 Z M164.565,72.71 L165.585,72.71 L165.69,73.76 L165.735,73.76 C166.085002,73.4099982 166.452498,73.1175012 166.8375,72.8825 C167.222502,72.6474988 167.669997,72.53 168.18,72.53 C168.950004,72.53 169.512498,72.7699976 169.8675,73.25 C170.222502,73.7300024 170.4,74.4399953 170.4,75.38 L170.4,80 L169.17,80 L169.17,75.545 C169.17,74.8549965 169.060001,74.3575015 168.84,74.0525 C168.619999,73.7474985 168.270002,73.595 167.79,73.595 C167.409998,73.595 167.075001,73.689999 166.785,73.88 C166.494999,74.0700009 166.165002,74.3499981 165.795,74.72 L165.795,80 L164.565,80 L164.565,72.71 Z" id="$984billion" fill="#666666" fill-rule="nonzero"></path>
        <path d="M103.032,213.664 L104.4,213.664 C105.096003,213.664 105.626998,213.517001 105.993,213.223 C106.359002,212.928999 106.542,212.494003 106.542,211.918 C106.542,211.341997 106.359002,210.940001 105.993,210.712 C105.626998,210.483999 105.096003,210.37 104.4,210.37 L103.032,210.37 L103.032,213.664 Z M106.74,220 L104.49,215.77 L103.032,215.77 L103.032,220 L100.386,220 L100.386,208.264 L104.616,208.264 C105.240003,208.264 105.824997,208.323999 106.371,208.444 C106.917003,208.564001 107.393998,208.764999 107.802,209.047 C108.210002,209.329001 108.533999,209.703998 108.774,210.172 C109.014001,210.640002 109.134,211.221997 109.134,211.918 C109.134,212.782004 108.945002,213.492997 108.567,214.051 C108.188998,214.609003 107.682003,215.025999 107.046,215.302 L109.71,220 L106.74,220 Z M113.044,208.264 L120.388,208.264 L120.388,210.496 L115.69,210.496 L115.69,212.854 L119.686,212.854 L119.686,215.068 L115.69,215.068 L115.69,217.768 L120.568,217.768 L120.568,220 L113.044,220 L113.044,208.264 Z M122.966,208.264 L125.774,208.264 L127.178,213.736 C127.298001,214.168002 127.408667,214.590667 127.51,215.003999 L127.655,215.617 C127.793001,216.223003 127.951999,216.849997 128.132,217.498 L128.204,217.498 C128.372001,216.849997 128.527999,216.223003 128.672,215.617 C128.816001,215.010997 128.971999,214.384003 129.14,213.736 L130.526,208.264 L133.226,208.264 L129.698,220 L126.512,220 L122.966,208.264 Z M136.056,208.264 L143.4,208.264 L143.4,210.496 L138.702,210.496 L138.702,212.854 L142.698,212.854 L142.698,215.068 L138.702,215.068 L138.702,217.768 L143.58,217.768 L143.58,220 L136.056,220 L136.056,208.264 Z M147.49,208.264 L150.208,208.264 L153.268,214.096 L154.42,216.688 L154.492,216.688 L154.285,214.6 L154.285,214.6 C154.207,213.831996 154.168,213.100003 154.168,212.404 L154.168,208.264 L156.688,208.264 L156.688,220 L153.97,220 L150.91,214.15 L149.758,211.594 L149.686,211.594 L149.78275,212.602 C149.81725,212.949999 149.854,213.309998 149.893,213.682 C149.971001,214.426004 150.01,215.145997 150.01,215.842 L150.01,220 L147.49,220 L147.49,208.264 Z M160.958,208.264 L163.622,208.264 L163.622,214.834 C163.622,215.986006 163.795999,216.789998 164.144,217.246 C164.492002,217.702002 164.995997,217.93 165.656,217.93 C166.316004,217.93 166.825998,217.702002 167.186,217.246 C167.546002,216.789998 167.726,215.986006 167.726,214.834 L167.726,208.264 L170.282,208.264 L170.282,214.564 C170.282,216.53201 169.889004,217.965995 169.103,218.866 C168.316996,219.766004 167.168008,220.216 165.656,220.216 C164.131993,220.216 162.968004,219.766004 162.164,218.866 C161.359996,217.965995 160.958,216.53201 160.958,214.564 L160.958,208.264 Z M174.57,208.264 L181.914,208.264 L181.914,210.496 L177.216,210.496 L177.216,212.854 L181.212,212.854 L181.212,215.068 L177.216,215.068 L177.216,217.768 L182.094,217.768 L182.094,220 L174.57,220 L174.57,208.264 Z" id="REVENUE" fill="#666666" fill-rule="nonzero" opacity="0.5"></path>
        <path d="M104.7,233.14 C104.419999,232.869999 104.147501,232.660001 103.8825,232.51 C103.617499,232.359999 103.28,232.285 102.87,232.285 C102.409998,232.285 102.045001,232.414999 101.775,232.675 C101.504999,232.935001 101.37,233.284998 101.37,233.725 C101.37,234.085002 101.472499,234.379999 101.6775,234.61 C101.882501,234.840001 102.139998,235.042499 102.45,235.2175 C102.760002,235.392501 103.097498,235.562499 103.4625,235.7275 C103.827502,235.892501 104.164998,236.092499 104.475,236.3275 C104.785002,236.562501 105.042499,236.852498 105.2475,237.1975 C105.452501,237.542502 105.555,237.984997 105.555,238.525 C105.555,239.245004 105.347502,239.834998 104.9325,240.295 C104.517498,240.755002 103.950004,241.034999 103.23,241.135 L103.23,242.65 L102.33,242.65 L102.33,241.165 C101.849998,241.115 101.385002,240.982501 100.935,240.7675 C100.484998,240.552499 100.100002,240.300001 99.78,240.01 L100.35,239.155 C100.670002,239.435001 101.022498,239.672499 101.4075,239.8675 C101.792502,240.062501 102.214998,240.16 102.675,240.16 C103.235003,240.16 103.652499,240.020001 103.9275,239.74 C104.202501,239.459999 104.34,239.085002 104.34,238.615 C104.34,238.214998 104.237501,237.882501 104.0325,237.6175 C103.827499,237.352499 103.570002,237.122501 103.26,236.9275 C103.053332,236.797499 102.834445,236.673055 102.603334,236.554167 L102.2475,236.38 C101.882498,236.209999 101.545002,236.015001 101.235,235.795 C100.924998,235.574999 100.667501,235.307502 100.4625,234.9925 C100.257499,234.677498 100.155,234.275002 100.155,233.785 C100.155,233.114997 100.352498,232.557502 100.7475,232.1125 C101.142502,231.667498 101.669997,231.390001 102.33,231.28 L102.33,229.78 L103.23,229.78 L103.23,231.265 C103.710002,231.315 104.117498,231.444999 104.4525,231.655 C104.787502,231.865001 105.089999,232.114999 105.36,232.405 L104.7,233.14 Z M107.475,239.02 C107.765001,239.320001 108.102498,239.584999 108.4875,239.815 C108.872502,240.045001 109.349997,240.16 109.92,240.16 C110.500003,240.16 110.974998,240.002502 111.345,239.6875 C111.715002,239.372498 111.9,238.945003 111.9,238.405 C111.9,238.124999 111.847501,237.867501 111.7425,237.6325 C111.637499,237.397499 111.465001,237.195001 111.225,237.025 C110.984999,236.854999 110.670002,236.725 110.28,236.635 C109.889998,236.545 109.410003,236.5 108.84,236.5 L108.84,235.555 C109.350003,235.555 109.777498,235.51 110.1225,235.42 C110.467502,235.33 110.747499,235.205001 110.9625,235.045 C111.177501,234.884999 111.33,234.695001 111.42,234.475 C111.51,234.254999 111.555,234.020001 111.555,233.77 C111.555,233.299998 111.407501,232.930001 111.1125,232.66 C110.817499,232.389999 110.415003,232.255 109.905,232.255 C109.504998,232.255 109.137502,232.344999 108.8025,232.525 C108.467498,232.705001 108.155001,232.939999 107.865,233.23 L107.205,232.45 C107.575002,232.099998 107.982498,231.812501 108.4275,231.5875 C108.872502,231.362499 109.379997,231.25 109.95,231.25 C110.370002,231.25 110.754998,231.304999 111.105,231.415 C111.455002,231.525001 111.757499,231.682499 112.0125,231.8875 C112.267501,232.092501 112.464999,232.344998 112.605,232.645 C112.745001,232.945001 112.815,233.289998 112.815,233.68 C112.815,234.260003 112.655002,234.734998 112.335,235.105 C112.014998,235.475002 111.595003,235.759999 111.075,235.96 L111.075,236.02 C111.365001,236.09 111.634999,236.192499 111.885,236.3275 C112.135001,236.462501 112.354999,236.632499 112.545,236.8375 C112.735001,237.042501 112.882499,237.279999 112.9875,237.55 C113.092501,237.820001 113.145,238.119998 113.145,238.45 C113.145,238.870002 113.062501,239.25 112.8975,239.59 C112.732499,239.930002 112.507501,240.217499 112.2225,240.4525 C111.937499,240.687501 111.605002,240.867499 111.225,240.9925 C110.845,241.117501 110.435002,241.18 109.995,241.18 C109.614998,241.18 109.267502,241.1425 108.9525,241.0675 C108.637498,240.9925 108.350001,240.892501 108.09,240.7675 C107.829999,240.642499 107.597501,240.500001 107.3925,240.34 C107.187499,240.179999 107.005001,240.010001 106.845,239.83 L107.475,239.02 Z M114.885,240.25 C114.885,239.959999 114.972499,239.727501 115.1475,239.5525 C115.322501,239.377499 115.534999,239.29 115.785,239.29 C116.025001,239.29 116.232499,239.377499 116.4075,239.5525 C116.582501,239.727501 116.67,239.959999 116.67,240.25 C116.67,240.520001 116.582501,240.742499 116.4075,240.9175 C116.232499,241.092501 116.025001,241.18 115.785,241.18 C115.534999,241.18 115.322501,241.092501 115.1475,240.9175 C114.972499,240.742499 114.885,240.520001 114.885,240.25 Z M118.62,239.065 C118.900001,239.355001 119.232498,239.609999 119.6175,239.83 C120.002502,240.050001 120.474997,240.16 121.035,240.16 C121.325001,240.16 121.597499,240.107501 121.8525,240.0025 C122.107501,239.897499 122.329999,239.750001 122.52,239.56 C122.710001,239.369999 122.859999,239.140001 122.97,238.87 C123.080001,238.599999 123.135,238.300002 123.135,237.97 C123.135,237.309997 122.950002,236.795002 122.58,236.425 C122.209998,236.054998 121.715003,235.87 121.095,235.87 C120.764998,235.87 120.482501,235.919999 120.2475,236.02 C120.012499,236.12 119.750001,236.264999 119.46,236.455 L118.8,236.035 L119.115,231.43 L123.9,231.43 L123.9,232.495 L120.195,232.495 L119.94,235.33 C120.170001,235.209999 120.399999,235.115 120.63,235.045 C120.860001,234.975 121.119999,234.94 121.41,234.94 C121.820002,234.94 122.204998,234.999999 122.565,235.12 C122.925002,235.240001 123.239999,235.422499 123.51,235.6675 C123.780001,235.912501 123.992499,236.222498 124.1475,236.5975 C124.302501,236.972502 124.38,237.419997 124.38,237.94 C124.38,238.460003 124.290001,238.919998 124.11,239.32 C123.929999,239.720002 123.690002,240.057499 123.39,240.3325 C123.089999,240.607501 122.747502,240.817499 122.3625,240.9625 C121.977498,241.107501 121.575002,241.18 121.155,241.18 C120.774998,241.18 120.427502,241.1425 120.1125,241.0675 C119.797498,240.9925 119.512501,240.895001 119.2575,240.775 C119.002499,240.654999 118.772501,240.517501 118.5675,240.3625 C118.362499,240.207499 118.180001,240.045001 118.02,239.875 L118.62,239.065 Z M129.57,234.715 L128.49,234.715 L128.49,233.785 L129.63,233.71 L129.78,231.67 L130.815,231.67 L130.815,233.71 L132.78,233.71 L132.78,234.715 L130.815,234.715 L130.815,238.765 C130.815,239.215002 130.897499,239.562499 131.0625,239.8075 C131.227501,240.052501 131.519998,240.175 131.94,240.175 C132.070001,240.175 132.209999,240.155 132.36,240.115 C132.510001,240.075 132.644999,240.03 132.765,239.98 L133.005,240.91 C132.804999,240.98 132.587501,241.0425 132.3525,241.0975 C132.117499,241.1525 131.885001,241.18 131.655,241.18 C131.264998,241.18 130.937501,241.120001 130.6725,241 C130.407499,240.879999 130.192501,240.715001 130.0275,240.505 C129.862499,240.294999 129.745,240.040001 129.675,239.74 C129.605,239.439998 129.57,239.110002 129.57,238.75 L129.57,234.715 Z M134.43,233.71 L135.45,233.71 L135.555,235.03 L135.6,235.03 C135.850001,234.569998 136.152498,234.205001 136.5075,233.935 C136.862502,233.664999 137.249998,233.53 137.67,233.53 C137.960001,233.53 138.219999,233.579999 138.45,233.68 L138.21,234.76 C138.089999,234.72 137.980001,234.69 137.88,234.67 C137.78,234.65 137.655001,234.64 137.505,234.64 C137.194998,234.64 136.872502,234.764999 136.5375,235.015 C136.202498,235.265001 135.910001,235.699997 135.66,236.32 L135.66,241 L134.43,241 L134.43,233.71 Z M140.265,232.21 C140.024999,232.21 139.822501,232.135001 139.6575,231.985 C139.492499,231.834999 139.41,231.645001 139.41,231.415 C139.41,231.174999 139.492499,230.982501 139.6575,230.8375 C139.822501,230.692499 140.024999,230.62 140.265,230.62 C140.505001,230.62 140.707499,230.692499 140.8725,230.8375 C141.037501,230.982501 141.12,231.174999 141.12,231.415 C141.12,231.645001 141.037501,231.834999 140.8725,231.985 C140.707499,232.135001 140.505001,232.21 140.265,232.21 Z M139.635,233.71 L140.865,233.71 L140.865,241 L139.635,241 L139.635,233.71 Z M143.325,230.32 L144.555,230.32 L144.555,239.62 C144.555,239.82 144.59,239.96 144.66,240.04 C144.73,240.12 144.81,240.16 144.9,240.16 L145.0125,240.16 C145.0475,240.16 145.1,240.15 145.17,240.13 L145.335,241.06 C145.255,241.1 145.160001,241.13 145.05,241.15 C144.939999,241.17 144.800001,241.18 144.63,241.18 C144.159998,241.18 143.825,241.040001 143.625,240.76 C143.424999,240.479999 143.325,240.070003 143.325,239.53 L143.325,230.32 Z M147.15,230.32 L148.38,230.32 L148.38,239.62 C148.38,239.82 148.415,239.96 148.485,240.04 C148.555,240.12 148.635,240.16 148.725,240.16 L148.8375,240.16 C148.8725,240.16 148.925,240.15 148.995,240.13 L149.16,241.06 C149.08,241.1 148.985001,241.13 148.875,241.15 C148.764999,241.17 148.625001,241.18 148.455,241.18 C147.984998,241.18 147.65,241.040001 147.45,240.76 C147.249999,240.479999 147.15,240.070003 147.15,239.53 L147.15,230.32 Z M151.605,232.21 C151.364999,232.21 151.162501,232.135001 150.9975,231.985 C150.832499,231.834999 150.75,231.645001 150.75,231.415 C150.75,231.174999 150.832499,230.982501 150.9975,230.8375 C151.162501,230.692499 151.364999,230.62 151.605,230.62 C151.845001,230.62 152.047499,230.692499 152.2125,230.8375 C152.377501,230.982501 152.46,231.174999 152.46,231.415 C152.46,231.645001 152.377501,231.834999 152.2125,231.985 C152.047499,232.135001 151.845001,232.21 151.605,232.21 Z M150.975,233.71 L152.205,233.71 L152.205,241 L150.975,241 L150.975,233.71 Z M154.125,237.37 C154.125,236.759997 154.217499,236.217502 154.4025,235.7425 C154.587501,235.267498 154.834998,234.865002 155.145,234.535 C155.455002,234.204998 155.812498,233.955001 156.2175,233.785 C156.622502,233.614999 157.049998,233.53 157.5,233.53 C157.950002,233.53 158.377498,233.614999 158.7825,233.785 C159.187502,233.955001 159.544998,234.204998 159.855,234.535 C160.165002,234.865002 160.412499,235.267498 160.5975,235.7425 C160.782501,236.217502 160.875,236.759997 160.875,237.37 C160.875,237.970003 160.782501,238.507498 160.5975,238.9825 C160.412499,239.457502 160.165002,239.857498 159.855,240.1825 C159.544998,240.507502 159.187502,240.754999 158.7825,240.925 C158.377498,241.095001 157.950002,241.18 157.5,241.18 C157.049998,241.18 156.622502,241.095001 156.2175,240.925 C155.812498,240.754999 155.455002,240.507502 155.145,240.1825 C154.834998,239.857498 154.587501,239.457502 154.4025,238.9825 C154.217499,238.507498 154.125,237.970003 154.125,237.37 Z M155.4,237.37 C155.4,237.790002 155.45,238.169998 155.55,238.51 C155.650001,238.850002 155.792499,239.142499 155.9775,239.3875 C156.162501,239.632501 156.384999,239.822499 156.645,239.9575 C156.905001,240.092501 157.189998,240.16 157.5,240.16 C157.810002,240.16 158.094999,240.092501 158.355,239.9575 C158.615001,239.822499 158.837499,239.632501 159.0225,239.3875 C159.207501,239.142499 159.35,238.850002 159.45,238.51 C159.550001,238.169998 159.6,237.790002 159.6,237.37 C159.6,236.949998 159.550001,236.567502 159.45,236.2225 C159.35,235.877498 159.207501,235.580001 159.0225,235.33 C158.837499,235.079999 158.615001,234.887501 158.355,234.7525 C158.094999,234.617499 157.810002,234.55 157.5,234.55 C157.189998,234.55 156.905001,234.617499 156.645,234.7525 C156.384999,234.887501 156.162501,235.079999 155.9775,235.33 C155.792499,235.580001 155.650001,235.877498 155.55,236.2225 C155.45,236.567502 155.4,236.949998 155.4,237.37 Z M162.795,233.71 L163.815,233.71 L163.92,234.76 L163.965,234.76 C164.315002,234.409998 164.682498,234.117501 165.0675,233.8825 C165.452502,233.647499 165.899997,233.53 166.41,233.53 C167.180004,233.53 167.742498,233.769998 168.0975,234.25 C168.452502,234.730002 168.63,235.439995 168.63,236.38 L168.63,241 L167.4,241 L167.4,236.545 C167.4,235.854997 167.290001,235.357502 167.07,235.0525 C166.849999,234.747498 166.500002,234.595 166.02,234.595 C165.639998,234.595 165.305001,234.689999 165.015,234.88 C164.724999,235.070001 164.395002,235.349998 164.025,235.72 L164.025,241 L162.795,241 L162.795,233.71 Z" id="$3.5trillion" fill="#666666" fill-rule="nonzero" opacity="0.5"></path>
    </g>
</svg>