<?xml version="1.0" encoding="UTF-8"?>
<svg width="250px" height="100px" viewBox="0 0 250 100" version="1.1" xmlns="http://www.w3.org/2000/svg" xmlns:xlink="http://www.w3.org/1999/xlink">
    <!-- Generator: Sketch 53.2 (72643) - https://sketchapp.com -->
    <title>deficit-3-outline</title>
    <desc>Created with Sketch.</desc>
    <defs>
        <polygon id="path-1" points="0.426293513 0.28610836 14.8110338 0.28610836 14.8110338 15.8243738 0.426293513 15.8243738"></polygon>
    </defs>
    <g id="deficit-3-outline" stroke="none" stroke-width="1" fill="none" fill-rule="evenodd">
        <g id="Group-10" transform="translate(1.000000, 17.000000)">
            <path d="M5.65998596,43.7995456 L5.65998596,41.0333591 C4.69135012,40.9588486 3.8065518,40.7120364 3.00556447,40.2929152 C2.20457715,39.8737939 1.53399316,39.4034537 0.993792405,38.8818806 L1.6643831,38.0157009 C2.20458385,38.5000189 2.84722684,38.9470749 3.59233133,39.3568823 C4.33743582,39.7666898 5.19429313,39.9715905 6.16292897,39.9715905 C7.33646855,39.9715905 8.23523736,39.6549258 8.85926237,39.021587 C9.48328738,38.3882482 9.79529521,37.5593319 9.79529521,36.5348132 C9.79529521,35.6220602 9.59505138,34.8816237 9.19455772,34.3134815 C8.79406405,33.7453393 8.2957829,33.2610287 7.6996993,32.860535 C7.10361571,32.4600414 6.45631589,32.1014652 5.75778043,31.7847958 C5.05924497,31.4681264 4.41194515,31.1048934 3.81586156,30.6950859 C3.21977796,30.2852784 2.72149681,29.7869973 2.32100315,29.2002275 C1.92050948,28.6134577 1.72026565,27.8450802 1.72026565,26.895072 C1.72026565,26.317616 1.81805915,25.7774234 2.01364908,25.2744778 C2.20923901,24.7715323 2.48399217,24.3291332 2.8379168,23.9472671 C3.19184144,23.565401 3.61095643,23.2533932 4.09527435,23.0112343 C4.57959227,22.7690753 5.10115759,22.6200566 5.65998596,22.5641738 L5.65998596,19.7979872 L6.74969583,19.7979872 L6.74969583,22.5641738 C7.66244883,22.6200566 8.40754214,22.834271 8.98499813,23.2068232 C9.56245411,23.5793755 10.0933331,24.0171178 10.577651,24.5200633 L9.85117777,25.3024191 C9.59039119,25.0416325 9.33426537,24.8087909 9.0827926,24.6038872 C8.83131984,24.3989834 8.56588034,24.2220238 8.28646616,24.0730029 C8.00705197,23.923982 7.69970098,23.812218 7.36440396,23.7377075 C7.02910694,23.6631971 6.64724661,23.6259424 6.21881153,23.6259424 C5.25017569,23.6259424 4.46782771,23.9286366 3.87174412,24.534034 C3.27566052,25.1394314 2.9776232,25.9078088 2.9776232,26.8391894 C2.9776232,27.6588044 3.17786702,28.3154179 3.57836069,28.8090496 C3.97885435,29.3026813 4.47713551,29.73111 5.0732191,30.0943484 C5.6693027,30.4575869 6.31660251,30.7928789 7.01513797,31.1002345 C7.71367344,31.4075901 8.36097325,31.7801367 8.95705685,32.2178856 C9.55314044,32.6556345 10.0514216,33.2051408 10.4519153,33.8664211 C10.8524089,34.5277013 11.0526528,35.3892154 11.0526528,36.4509893 C11.0526528,37.7921774 10.6475083,38.8632491 9.83720713,39.6642364 C9.02690599,40.4652237 7.99774585,40.9215934 6.74969583,41.0333591 L6.74969583,43.7995456 L5.65998596,43.7995456 Z M14.7967841,40.726005 L14.7967841,38.0995248 L18.7644457,38.0995248 L18.7644457,26.4200703 L15.4953161,26.4200703 L15.4953161,24.4082982 C17.2556166,24.0730029 18.4850329,23.6259424 19.602684,22.9553517 L22.005634,22.9553517 L22.005634,38.0995248 L25.4982939,38.0995248 L25.4982939,40.726005 L14.7967841,40.726005 Z M29.0747775,45.8113177 L28.3762456,44.0510172 C30.1924287,43.3524852 31.226256,42.0671864 31.1983147,40.6701224 L30.9468432,40.6701224 C29.8571333,40.6701224 28.8791886,39.9436492 28.8791886,38.6862916 C28.8791886,37.4848167 29.8571333,36.7024608 31.0306671,36.7024608 C32.5394961,36.7024608 33.433617,37.9318771 33.433617,39.9995317 C33.433617,42.7377771 31.8409641,44.8613142 29.0747775,45.8113177 Z M41.4807053,41.0613003 C38.6027536,41.0613003 36.7306879,39.9157079 35.4174478,38.6024678 L36.8983356,36.5348132 C37.9601042,37.5406992 39.2733443,38.4348201 41.0615861,38.4348201 C43.0454169,38.4348201 44.4983634,37.1774626 44.4983634,35.0259841 C44.4983634,32.9024469 43.1851233,31.700972 41.2292338,31.700972 C40.0836414,31.700972 39.440992,32.008326 38.3792234,32.706858 L36.842453,31.7289132 L37.3733373,22.9553517 L46.8733721,22.9553517 L46.8733721,25.6656557 L40.1674652,25.6656557 L39.8042286,29.9686127 C40.5586431,29.605376 41.2292338,29.3818458 42.151296,29.3818458 C45.1968954,29.3818458 47.7395517,31.1142051 47.7395517,34.9421603 C47.7395517,38.825998 44.7498349,41.0613003 41.4807053,41.0613003 Z M56.2337005,41.0613003 C52.5454517,41.0613003 50.1983843,37.7642294 50.1983843,31.7568545 C50.1983843,25.7494796 52.5454517,22.6200564 56.2337005,22.6200564 C59.9219493,22.6200564 62.2690167,25.7774209 62.2690167,31.7568545 C62.2690167,37.7642294 59.9219493,41.0613003 56.2337005,41.0613003 Z M56.2337005,38.5465852 C57.9660598,38.5465852 59.195476,36.7862847 59.195476,31.7568545 C59.195476,26.7274243 57.9660598,25.1347714 56.2337005,25.1347714 C54.5292825,25.1347714 53.2719249,26.7274243 53.2719249,31.7568545 C53.2719249,36.7862847 54.5292825,38.5465852 56.2337005,38.5465852 Z M70.5675765,41.0613003 C66.8793277,41.0613003 64.5322603,37.7642294 64.5322603,31.7568545 C64.5322603,25.7494796 66.8793277,22.6200564 70.5675765,22.6200564 C74.2558253,22.6200564 76.6028927,25.7774209 76.6028927,31.7568545 C76.6028927,37.7642294 74.2558253,41.0613003 70.5675765,41.0613003 Z M70.5675765,38.5465852 C72.2999358,38.5465852 73.529352,36.7862847 73.529352,31.7568545 C73.529352,26.7274243 72.2999358,25.1347714 70.5675765,25.1347714 C68.8631585,25.1347714 67.6058009,26.7274243 67.6058009,31.7568545 C67.6058009,36.7862847 68.8631585,38.5465852 70.5675765,38.5465852 Z M79.7602572,45.8113177 L79.0617252,44.0510172 C80.8779083,43.3524852 81.9117356,42.0671864 81.8837944,40.6701224 L81.6323229,40.6701224 C80.542613,40.6701224 79.5646682,39.9436492 79.5646682,38.6862916 C79.5646682,37.4848167 80.542613,36.7024608 81.7161467,36.7024608 C83.2249757,36.7024608 84.1190967,37.9318771 84.1190967,39.9995317 C84.1190967,42.7377771 82.5264438,44.8613142 79.7602572,45.8113177 Z M92.5853041,41.0613003 C88.8970553,41.0613003 86.5499879,37.7642294 86.5499879,31.7568545 C86.5499879,25.7494796 88.8970553,22.6200564 92.5853041,22.6200564 C96.2735529,22.6200564 98.6206203,25.7774209 98.6206203,31.7568545 C98.6206203,37.7642294 96.2735529,41.0613003 92.5853041,41.0613003 Z M92.5853041,38.5465852 C94.3176634,38.5465852 95.5470797,36.7862847 95.5470797,31.7568545 C95.5470797,26.7274243 94.3176634,25.1347714 92.5853041,25.1347714 C90.8808861,25.1347714 89.6235286,26.7274243 89.6235286,31.7568545 C89.6235286,36.7862847 90.8808861,38.5465852 92.5853041,38.5465852 Z M106.91918,41.0613003 C103.230931,41.0613003 100.883864,37.7642294 100.883864,31.7568545 C100.883864,25.7494796 103.230931,22.6200564 106.91918,22.6200564 C110.607429,22.6200564 112.954496,25.7774209 112.954496,31.7568545 C112.954496,37.7642294 110.607429,41.0613003 106.91918,41.0613003 Z M106.91918,38.5465852 C108.651539,38.5465852 109.880956,36.7862847 109.880956,31.7568545 C109.880956,26.7274243 108.651539,25.1347714 106.91918,25.1347714 C105.214762,25.1347714 103.957405,26.7274243 103.957405,31.7568545 C103.957405,36.7862847 105.214762,38.5465852 106.91918,38.5465852 Z M121.253056,41.0613003 C117.564807,41.0613003 115.21774,37.7642294 115.21774,31.7568545 C115.21774,25.7494796 117.564807,22.6200564 121.253056,22.6200564 C124.941305,22.6200564 127.288372,25.7774209 127.288372,31.7568545 C127.288372,37.7642294 124.941305,41.0613003 121.253056,41.0613003 Z M121.253056,38.5465852 C122.985415,38.5465852 124.214832,36.7862847 124.214832,31.7568545 C124.214832,26.7274243 122.985415,25.1347714 121.253056,25.1347714 C119.548638,25.1347714 118.291281,26.7274243 118.291281,31.7568545 C118.291281,36.7862847 119.548638,38.5465852 121.253056,38.5465852 Z" id="$1,500,000" fill="#B3532D" fill-rule="nonzero"></path>
            <g id="Group-32-Copy" transform="translate(177.345079, 0.000000)">
                <g id="Group-4" transform="translate(0.000000, 8.633541)" stroke="#B3532D" stroke-linejoin="round" stroke-width="3.35295345">
                    <path d="M25.2344787,52.0928062 C11.4989056,52.0928062 0.365972334,40.4969755 0.365972334,26.1929797 C0.365972334,11.8889839 11.4989056,0.293153203 25.2344787,0.293153203" id="Stroke-3"></path>
                </g>
                <g id="Group-8" transform="translate(33.427930, 54.909322)">
                    <path d="M7.35594558,0.568984898 C5.31479525,2.08779746 3.03150846,3.27922615 0.578125814,4.0707492" id="Fill-5" fill="#FFFFFF"></path>
                    <path d="M7.35594558,0.568984898 C5.31479525,2.08779746 3.03150846,3.27922615 0.578125814,4.0707492" id="Stroke-7" stroke="#B3532D" stroke-width="3.35295345" stroke-linejoin="round"></path>
                </g>
                <g id="Group-12" transform="translate(43.660970, 45.239756)">
                    <path d="M4.00725837,0.596059683 C2.96348831,2.87324251 1.64228918,4.98362531 0.0936891639,6.87644288" id="Fill-9" fill="#FFFFFF"></path>
                    <path d="M4.00725837,0.596059683 C2.96348831,2.87324251 1.64228918,4.98362531 0.0936891639,6.87644288" id="Stroke-11" stroke="#B3532D" stroke-width="3.35295345" stroke-linejoin="round"></path>
                </g>
                <g id="Group-16" transform="translate(49.118591, 35.570190)">
                    <path d="M1.84638147,0.0370666702 C1.76451715,1.62103369 1.56394957,3.17276883 1.25286517,4.67385386" id="Fill-13" fill="#FFFFFF"></path>
                    <path d="M1.84638147,0.0370666702 C1.76451715,1.62103369 1.56394957,3.17276883 1.25286517,4.67385386" id="Stroke-15" stroke="#B3532D" stroke-width="3.35295345" stroke-linejoin="round"></path>
                </g>
                <g id="Group-20" transform="translate(49.800793, 34.188823)">
                    <path d="M1.20511098,0.598546143 C1.20511098,1.08133377 1.19078473,1.55997729 1.16417882,2.03654876" id="Fill-17" fill="#FFFFFF"></path>
                    <path d="M1.20511098,0.598546143 C1.20511098,1.08133377 1.19078473,1.55997729 1.16417882,2.03654876" id="Stroke-19" stroke="#B3532D" stroke-width="3.35295345" stroke-linejoin="round"></path>
                </g>
                <g id="Group-24" transform="translate(49.118591, 27.281990)">
                    <path d="M0.794220325,0.185448465 C1.13600385,1.29813925 1.40206289,2.44398284 1.5862576,3.61883512" id="Fill-21" fill="#FFFFFF"></path>
                    <path d="M0.794220325,0.185448465 C1.13600385,1.29813925 1.40206289,2.44398284 1.5862576,3.61883512" id="Stroke-23" stroke="#B3532D" stroke-width="3.35295345" stroke-linejoin="round"></path>
                </g>
                <g id="Group-28" transform="translate(45.707578, 20.375157)">
                    <path d="M0.798791083,0.475949858 C1.27155752,1.22395987 1.7033918,1.99683447 2.09634052,2.79664573" id="Fill-25" fill="#B3532D"></path>
                    <path d="M0.798791083,0.475949858 C1.27155752,1.22395987 1.7033918,1.99683447 2.09634052,2.79664573" id="Stroke-27" stroke="#B3532D" stroke-width="3.35295345" stroke-linejoin="round"></path>
                </g>
                <g id="Group-31" transform="translate(20.466079, 0.345342)">
                    <mask id="mask-2" fill="white">
                        <use xlink:href="#path-1"></use>
                    </mask>
                    <g id="Clip-30"></g>
                    <polygon id="Fill-29" fill="#B3532D" mask="url(#mask-2)" points="14.8110338 6.14186451 8.71079905 10.9820435 2.60843949 15.8243738 1.51842889 8.05427302 0.426293513 0.284172289 7.61866367 3.21409399"></polygon>
                </g>
            </g>
            <path d="M189.586153,36.1177207 L189.586153,34.5418326 L191.96675,34.5418326 L191.96675,27.5341599 L190.005272,27.5341599 L190.005272,26.3270966 C191.061452,26.1259194 191.799102,25.8576831 192.469693,25.4553287 L193.911463,25.4553287 L193.911463,34.5418326 L196.007059,34.5418326 L196.007059,36.1177207 L189.586153,36.1177207 Z M200.544722,36.1177207 L200.544722,30.6859361 L201.304725,30.6859361 L201.382961,31.4682919 L201.41649,31.4682919 C201.654924,31.2075053 201.913844,30.9895655 202.193258,30.814466 C202.472672,30.6393664 202.776298,30.551818 203.104143,30.551818 C203.521402,30.551818 203.84738,30.6430919 204.082088,30.8256425 C204.316796,31.0081931 204.49003,31.2633876 204.601796,31.5912335 C204.884936,31.2782897 205.169934,31.0268207 205.456799,30.836819 C205.743664,30.6468174 206.054741,30.551818 206.390038,30.551818 C206.948866,30.551818 207.364256,30.7306404 207.636219,31.0882905 C207.908182,31.4459407 208.044162,31.9749569 208.044162,32.6753552 L208.044162,36.1177207 L207.127688,36.1177207 L207.127688,32.7982968 C207.127688,32.2841747 207.045727,31.9134908 206.881804,31.6862339 C206.717881,31.458977 206.46455,31.3453503 206.121802,31.3453503 C205.711994,31.3453503 205.257487,31.6247603 204.758267,32.1835886 L204.758267,36.1177207 L203.841793,36.1177207 L203.841793,32.7982968 C203.841793,32.2841747 203.759833,31.9134908 203.59591,31.6862339 C203.431987,31.458977 203.17493,31.3453503 202.824731,31.3453503 C202.414923,31.3453503 201.960416,31.6247603 201.461196,32.1835886 L201.461196,36.1177207 L200.544722,36.1177207 Z M209.81005,36.1177207 L209.81005,30.6859361 L210.726524,30.6859361 L210.726524,36.1177207 L209.81005,36.1177207 Z M210.279464,29.568285 C210.100639,29.568285 209.949757,29.512403 209.826815,29.4006373 C209.703873,29.2888716 209.642403,29.1473039 209.642403,28.9759298 C209.642403,28.7971048 209.703873,28.6536743 209.826815,28.5456342 C209.949757,28.437594 210.100639,28.3835747 210.279464,28.3835747 C210.458289,28.3835747 210.60917,28.437594 210.732113,28.5456342 C210.855055,28.6536743 210.916525,28.7971048 210.916525,28.9759298 C210.916525,29.1473039 210.855055,29.2888716 210.732113,29.4006373 C210.60917,29.512403 210.458289,29.568285 210.279464,29.568285 Z M212.559472,36.1177207 L212.559472,30.6859361 L213.319475,30.6859361 L213.397711,31.4682919 L213.43124,31.4682919 C213.692027,31.2075053 213.965848,30.9895655 214.252714,30.814466 C214.539579,30.6393664 214.873008,30.551818 215.253011,30.551818 C215.826742,30.551818 216.245857,30.7306404 216.510369,31.0882905 C216.774881,31.4459407 216.907135,31.9749569 216.907135,32.6753552 L216.907135,36.1177207 L215.990661,36.1177207 L215.990661,32.7982968 C215.990661,32.2841747 215.908701,31.9134908 215.744778,31.6862339 C215.580855,31.458977 215.320072,31.3453503 214.962422,31.3453503 C214.679282,31.3453503 214.429676,31.4161342 214.213596,31.557704 C213.997516,31.6992739 213.751635,31.9079 213.475946,32.1835886 L213.475946,36.1177207 L212.559472,36.1177207 Z" id="1min" fill="#666666" fill-rule="nonzero"></path>
            <rect id="Rectangle-Copy-2" fill="#B3532D" fill-rule="nonzero" x="153.874404" y="44.706046" width="95.0003477" height="24.5883253"></rect>
            <path d="M171.539999,61.0589994 L171.539999,52.2876732 L174.302832,52.2876732 C176.247545,52.2876732 177.696021,52.9582639 177.696021,54.9968596 C177.696021,56.9415726 176.247545,57.8401641 174.356479,57.8401641 L173.095769,57.8401641 L173.095769,61.0589994 L171.539999,61.0589994 Z M173.095769,56.5928654 L174.235773,56.5928654 C175.536719,56.5928654 176.167074,56.0698047 176.167074,54.9968596 C176.167074,53.8970909 175.483072,53.5349719 174.182126,53.5349719 L173.095769,53.5349719 L173.095769,56.5928654 Z M181.732977,61.2199412 C179.90897,61.2199412 178.487318,59.9458189 178.487318,57.7731051 C178.487318,55.6272149 179.976029,54.3128571 181.518388,54.3128571 C183.302159,54.3128571 184.240986,55.6003912 184.240986,57.4378097 C184.240986,57.7328696 184.214163,58.0279295 184.173927,58.1888713 L179.989441,58.1888713 C180.123559,59.3556991 180.874621,60.0262898 181.934154,60.0262898 C182.49745,60.0262898 182.980276,59.8519362 183.463101,59.5434645 L183.986162,60.5091151 C183.355807,60.9248813 182.564509,61.2199412 181.732977,61.2199412 Z M179.976029,57.1427498 L182.899805,57.1427498 C182.899805,56.123452 182.457215,55.5065085 181.558623,55.5065085 C180.780738,55.5065085 180.110148,56.0832165 179.976029,57.1427498 Z M185.716286,61.0589994 L185.716286,54.4737989 L186.990408,54.4737989 L187.097703,55.6406267 L187.15135,55.6406267 C187.620763,54.7822706 188.318178,54.3128571 189.015592,54.3128571 C189.350887,54.3128571 189.565476,54.3530925 189.766654,54.4469752 L189.498417,55.7881566 C189.270416,55.7210975 189.096063,55.6808621 188.814415,55.6808621 C188.291354,55.6808621 187.660999,56.0429811 187.258644,57.0354553 L187.258644,61.0589994 L185.716286,61.0589994 Z M193.535373,61.0589994 L193.535373,52.2876732 L195.292321,52.2876732 L196.848091,56.5794536 C197.035857,57.129338 197.223622,57.7194578 197.411387,58.2961658 L197.465035,58.2961658 C197.6528,57.7194578 197.827154,57.129338 198.014919,56.5794536 L199.530454,52.2876732 L201.300813,52.2876732 L201.300813,61.0589994 L199.865749,61.0589994 L199.865749,57.0488671 C199.865749,56.2307465 199.986456,55.0639187 200.066926,54.2592098 L200.013279,54.2592098 L199.302453,56.2978055 L197.867389,60.2408788 L196.941974,60.2408788 L195.493498,56.2978055 L194.796084,54.2592098 L194.742436,54.2592098 C194.809495,55.0639187 194.943614,56.2307465 194.943614,57.0488671 L194.943614,61.0589994 L193.535373,61.0589994 Z M203.393056,61.0589994 L203.393056,54.4737989 L204.935415,54.4737989 L204.935415,61.0589994 L203.393056,61.0589994 Z M204.170942,53.3203829 C203.621057,53.3203829 203.218703,52.9582639 203.218703,52.448615 C203.218703,51.9255542 203.621057,51.5634353 204.170942,51.5634353 C204.720826,51.5634353 205.12318,51.9255542 205.12318,52.448615 C205.12318,52.9582639 204.720826,53.3203829 204.170942,53.3203829 Z M206.906952,61.0589994 L206.906952,54.4737989 L208.181074,54.4737989 L208.288368,55.3589786 L208.342016,55.3589786 C208.932135,54.7822706 209.602726,54.3128571 210.501318,54.3128571 C211.909558,54.3128571 212.526502,55.2650959 212.526502,56.9281608 L212.526502,61.0589994 L210.984143,61.0589994 L210.984143,57.129338 C210.984143,56.0429811 210.675671,55.6406267 209.951433,55.6406267 C209.374725,55.6406267 208.999194,55.9222748 208.44931,56.4587473 L208.44931,61.0589994 L206.906952,61.0589994 Z M216.375692,61.2199412 C214.967452,61.2199412 214.350508,60.2677024 214.350508,58.6046375 L214.350508,54.4737989 L215.892867,54.4737989 L215.892867,58.4034603 C215.892867,59.4898172 216.201338,59.8921716 216.912165,59.8921716 C217.488873,59.8921716 217.877815,59.6239354 218.374052,58.9801683 L218.374052,54.4737989 L219.916411,54.4737989 L219.916411,61.0589994 L218.6557,61.0589994 L218.534994,60.0933488 L218.494759,60.0933488 C217.918051,60.7773513 217.274284,61.2199412 216.375692,61.2199412 Z M224.19478,61.2199412 C222.665833,61.2199412 222.102537,60.2542906 222.102537,58.8326383 L222.102537,55.6942739 L221.16371,55.6942739 L221.16371,54.5408579 L222.183007,54.4737989 L222.370773,52.6766158 L223.658307,52.6766158 L223.658307,54.4737989 L225.334784,54.4737989 L225.334784,55.6942739 L223.658307,55.6942739 L223.658307,58.8326383 C223.658307,59.6105235 223.953367,59.9860543 224.583722,59.9860543 C224.811723,59.9860543 225.079959,59.9189953 225.267725,59.8385244 L225.535961,60.9785286 C225.173842,61.0992349 224.71784,61.2199412 224.19478,61.2199412 Z M229.318092,61.2199412 C227.494086,61.2199412 226.072433,59.9458189 226.072433,57.7731051 C226.072433,55.6272149 227.561145,54.3128571 229.103503,54.3128571 C230.887275,54.3128571 231.826102,55.6003912 231.826102,57.4378097 C231.826102,57.7328696 231.799278,58.0279295 231.759042,58.1888713 L227.574557,58.1888713 C227.708675,59.3556991 228.459736,60.0262898 229.51927,60.0262898 C230.082566,60.0262898 230.565391,59.8519362 231.048216,59.5434645 L231.571277,60.5091151 C230.940922,60.9248813 230.149625,61.2199412 229.318092,61.2199412 Z M227.561145,57.1427498 L230.48492,57.1427498 C230.48492,56.123452 230.04233,55.5065085 229.143739,55.5065085 C228.365854,55.5065085 227.695263,56.0832165 227.561145,57.1427498 Z" id="PerMinute" fill="#FFFFFF" fill-rule="nonzero"></path>
            <polygon id="+" fill="#B3532D" fill-rule="nonzero" transform="translate(143.632191, 32.582261) rotate(45.000000) translate(-143.632191, -32.582261) " points="142.75707 37.2294542 142.75707 33.427205 139.155998 33.427205 139.155998 31.7373165 142.75707 31.7373165 142.75707 27.9350672 144.507312 27.9350672 144.507312 31.7373165 148.108384 31.7373165 148.108384 33.427205 144.507312 33.427205 144.507312 37.2294542"></polygon>
        </g>
    </g>
</svg>