<?xml version="1.0" encoding="UTF-8"?>
<svg width="250px" height="100px" viewBox="0 0 250 100" version="1.1" xmlns="http://www.w3.org/2000/svg" xmlns:xlink="http://www.w3.org/1999/xlink">
    <!-- Generator: Sketch 58 (84663) - https://sketch.com -->
    <title>deficit-1-outline</title>
    <desc>Created with Sketch.</desc>
    <g id="deficit-1-outline" stroke="none" stroke-width="1" fill="none" fill-rule="evenodd">
        <g id="Group-19" transform="translate(0.000000, 17.000000)" fill-rule="nonzero">
            <path d="M78.4110725,0.111111111 L7.14448302,0.111111111 C3.19347994,0.111111111 0,3.31051587 0,7.25396825 L0,59.6349206 C0,63.578373 3.19347994,66.7777778 7.14448302,66.7777778 L78.4110725,66.7777778 C82.3620756,66.7777778 85.5555556,63.578373 85.5555556,59.6349206 L85.5555556,7.25396825 C85.5555556,3.31051587 82.3620756,0.111111111 78.4110725,0.111111111 Z M8.03568673,7.25396825 L77.5198688,7.25396825 C78.0100309,7.25396825 78.4110725,7.65575397 78.4110725,8.1468254 L78.4110725,14.3968254 L7.14448302,14.3968254 L7.14448302,8.1468254 C7.14448302,7.65575397 7.54552469,7.25396825 8.03568673,7.25396825 Z M77.5198688,59.6349206 L8.03568673,59.6349206 C7.54552469,59.6349206 7.14448302,59.2331349 7.14448302,58.7420635 L7.14448302,33.4444444 L78.4110725,33.4444444 L78.4110725,58.7420635 C78.4110725,59.2331349 78.0100309,59.6349206 77.5198688,59.6349206 Z M28.5185185,44.7539683 L28.5185185,50.7063492 C28.5185185,51.6884921 27.7164352,52.4920635 26.7361111,52.4920635 L16.0416667,52.4920635 C15.0613426,52.4920635 14.2592593,51.6884921 14.2592593,50.7063492 L14.2592593,44.7539683 C14.2592593,43.7718254 15.0613426,42.968254 16.0416667,42.968254 L26.7361111,42.968254 C27.7164352,42.968254 28.5185185,43.7718254 28.5185185,44.7539683 Z M57.037037,44.7539683 L57.037037,50.7063492 C57.037037,51.6884921 56.2349537,52.4920635 55.2546296,52.4920635 L35.0540123,52.4920635 C34.0736883,52.4920635 33.2716049,51.6884921 33.2716049,50.7063492 L33.2716049,44.7539683 C33.2716049,43.7718254 34.0736883,42.968254 35.0540123,42.968254 L55.2546296,42.968254 C56.2349537,42.968254 57.037037,43.7718254 57.037037,44.7539683 Z" id="Shape" fill="#B3532D"></path>
            <path d="M103.328889,12 L103.328889,3.28 L104.875556,3.28 L104.875556,12 L103.328889,12 Z M106.955556,12 L106.955556,5.45333333 L108.222222,5.45333333 L108.328889,6.33333333 L108.382222,6.33333333 C108.675557,6.04888747 108.993332,5.80444547 109.335556,5.6 C109.677779,5.39555453 110.075553,5.29333333 110.528889,5.29333333 C111.231115,5.29333333 111.742221,5.51777553 112.062222,5.96666667 C112.382224,6.4155578 112.542222,7.0577736 112.542222,7.89333333 L112.542222,12 L111.008889,12 L111.008889,8.09333333 C111.008889,7.5511084 110.92889,7.16889 110.768889,6.94666667 C110.608888,6.72444333 110.346668,6.61333333 109.982222,6.61333333 C109.697776,6.61333333 109.446668,6.68222153 109.228889,6.82 C109.01111,6.95777847 108.764446,7.15999867 108.488889,7.42666667 L108.488889,12 L106.955556,12 Z M116.622222,12 L116.622222,11.1066667 L117.299556,10.4453328 C117.624889,10.1253335 117.930221,9.82133477 118.215556,9.53333333 C118.691113,9.05333093 119.095554,8.60889093 119.428889,8.2 C119.762224,7.79110907 120.017777,7.40889067 120.195556,7.05333333 C120.373334,6.697776 120.462222,6.36 120.462222,6.04 C120.462222,5.5866644 120.342223,5.2288902 120.102222,4.96666667 C119.862221,4.70444313 119.515558,4.57333333 119.062222,4.57333333 C118.733332,4.57333333 118.433335,4.66666573 118.162222,4.85333333 C117.89111,5.04000093 117.640001,5.26222093 117.408889,5.52 L116.555556,4.66666667 C116.946669,4.2488868 117.348887,3.9266678 117.762222,3.7 C118.175558,3.4733322 118.675553,3.36 119.262222,3.36 C119.671113,3.36 120.039998,3.4222216 120.368889,3.54666667 C120.697779,3.67111173 120.977777,3.84666553 121.208889,4.07333333 C121.440001,4.30000113 121.619999,4.57333173 121.748889,4.89333333 C121.877778,5.21333493 121.942222,5.56888693 121.942222,5.96 C121.942222,6.3333352 121.860001,6.7133314 121.695556,7.1 C121.53111,7.4866686 121.30889,7.8777758 121.028889,8.27333333 C120.748887,8.66889087 120.422224,9.07555347 120.048889,9.49333333 C119.675554,9.9111132 119.280002,10.34222 118.862222,10.7866667 L119.582222,10.7266667 L119.582222,10.7266667 C119.840001,10.7044443 120.07111,10.6933333 120.275556,10.6933333 L122.355556,10.6933333 L122.355556,12 L116.622222,12 Z M126.368889,12.16 C125.479996,12.16 124.77778,11.7800038 124.262222,11.02 C123.746664,10.2599962 123.488889,9.1600072 123.488889,7.72 C123.488889,6.2799928 123.746664,5.193337 124.262222,4.46 C124.77778,3.726663 125.479996,3.36 126.368889,3.36 C127.257782,3.36 127.959997,3.7288852 128.475556,4.46666667 C128.991114,5.20444813 129.248889,6.28888173 129.248889,7.72 C129.248889,9.1600072 128.991114,10.2599962 128.475556,11.02 C127.959997,11.7800038 127.257782,12.16 126.368889,12.16 Z M126.368889,10.96 C126.573334,10.96 126.762221,10.904445 126.935556,10.7933333 C127.10889,10.6822217 127.257777,10.4977791 127.382222,10.24 C127.506667,9.98222093 127.604444,9.64889093 127.675556,9.24 C127.746667,8.83110907 127.782222,8.32444747 127.782222,7.72 C127.782222,7.12444147 127.746667,6.62444647 127.675556,6.22 C127.604444,5.81555353 127.506667,5.48889013 127.382222,5.24 C127.257777,4.99110987 127.10889,4.81555607 126.935556,4.71333333 C126.762221,4.6111106 126.573334,4.56 126.368889,4.56 C126.164443,4.56 125.975556,4.6111106 125.802222,4.71333333 C125.628888,4.81555607 125.480001,4.99110987 125.355556,5.24 C125.23111,5.48889013 125.133334,5.81555353 125.062222,6.22 C124.991111,6.62444647 124.955556,7.12444147 124.955556,7.72 C124.955556,8.32444747 124.991111,8.83110907 125.062222,9.24 C125.133334,9.64889093 125.23111,9.98222093 125.355556,10.24 C125.480001,10.4977791 125.628888,10.6822217 125.802222,10.7933333 C125.975556,10.904445 126.164443,10.96 126.368889,10.96 Z M130.782222,12 L130.782222,10.7466667 L132.675556,10.7466667 L132.675556,5.17333333 L131.115556,5.17333333 L131.115556,4.21333333 C131.542224,4.13333293 131.908887,4.03777833 132.215556,3.92666667 C132.522224,3.815555 132.808888,3.6800008 133.075556,3.52 L134.222222,3.52 L134.222222,10.7466667 L135.888889,10.7466667 L135.888889,12 L130.782222,12 Z M139.888889,7.65333333 C140.137779,7.65333333 140.397776,7.57555633 140.668889,7.42 C140.940001,7.26444367 141.186666,7.01333507 141.408889,6.66666667 C141.328888,5.91999627 141.144446,5.37777947 140.855556,5.04 C140.566665,4.70222053 140.21778,4.53333333 139.808889,4.53333333 C139.46222,4.53333333 139.164446,4.67110973 138.915556,4.94666667 C138.666665,5.2222236 138.542222,5.6177752 138.542222,6.13333333 C138.542222,6.64000253 138.659999,7.01999873 138.895556,7.27333333 C139.131112,7.52666793 139.46222,7.65333333 139.888889,7.65333333 Z M139.528889,12.16 C139.02222,12.16 138.582224,12.0666676 138.208889,11.88 C137.835554,11.6933324 137.520001,11.466668 137.262222,11.2 L138.088889,10.2666667 C138.24889,10.4533343 138.45111,10.6066661 138.695556,10.7266667 C138.940001,10.8466673 139.19111,10.9066667 139.448889,10.9066667 C139.715557,10.9066667 139.966665,10.8533339 140.202222,10.7466667 C140.437779,10.6399995 140.644444,10.4644457 140.822222,10.22 C141.000001,9.97555433 141.144444,9.65333533 141.255556,9.25333333 C141.366667,8.85333133 141.431111,8.36 141.448889,7.77333333 C141.199999,8.084446 140.906668,8.3266658 140.568889,8.5 C140.231109,8.6733342 139.906668,8.76 139.595556,8.76 C139.231109,8.76 138.897779,8.7066672 138.595556,8.6 C138.293332,8.4933328 138.033334,8.3311122 137.815556,8.11333333 C137.597777,7.89555447 137.428889,7.62222387 137.308889,7.29333333 C137.188888,6.9644428 137.128889,6.57778 137.128889,6.13333333 C137.128889,5.70666453 137.199999,5.32222393 137.342222,4.98 C137.484445,4.63777607 137.675554,4.34666787 137.915556,4.10666667 C138.155557,3.86666547 138.437776,3.68222287 138.762222,3.55333333 C139.086668,3.4244438 139.431109,3.36 139.795556,3.36 C140.204446,3.36 140.595554,3.4422214 140.968889,3.60666667 C141.342224,3.77111193 141.668887,4.02222053 141.948889,4.36 C142.22889,4.69777947 142.45111,5.12666407 142.615556,5.64666667 C142.780001,6.16666927 142.862222,6.78221867 142.862222,7.49333333 C142.862222,8.32000413 142.771112,9.02666373 142.588889,9.61333333 C142.406666,10.2000029 142.162224,10.6822203 141.855556,11.06 C141.548887,11.4377797 141.193335,11.7155547 140.788889,11.8933333 C140.384442,12.071112 139.964447,12.16 139.528889,12.16 Z M144.435556,14.4266667 L144.102222,13.5866667 C144.53778,13.4177769 144.873332,13.1911125 145.108889,12.9066667 C145.344446,12.6222208 145.457778,12.3111128 145.448889,11.9733333 L145.328889,11.9733333 C145.07111,11.9733333 144.842223,11.8911119 144.642222,11.7266667 C144.442221,11.5622214 144.342222,11.3288904 144.342222,11.0266667 C144.342222,10.7422208 144.442221,10.5133342 144.642222,10.34 C144.842223,10.1666658 145.084443,10.08 145.368889,10.08 C145.733335,10.08 146.015555,10.2177764 146.215556,10.4933333 C146.415557,10.7688903 146.515556,11.1555531 146.515556,11.6533333 C146.515556,12.3111144 146.335557,12.8799976 145.975556,13.36 C145.615554,13.8400024 145.102222,14.1955544 144.435556,14.4266667 Z M152.702222,7.36 L152.395556,8.42666667 L154.622222,8.42666667 L154.315556,7.36 C154.173333,6.89777547 154.037778,6.42222467 153.908889,5.93333333 L153.528889,4.48 L153.528889,4.48 L153.475556,4.48 L153.102222,5.94 L153.102222,5.94 C152.977777,6.42444687 152.844445,6.89777547 152.702222,7.36 Z M149.782222,12 L152.622222,3.28 L154.435556,3.28 L157.275556,12 L155.648889,12 L154.968889,9.64 L152.035556,9.64 L151.355556,12 L149.782222,12 Z M158.222222,12 L158.222222,5.45333333 L159.488889,5.45333333 L159.595556,6.34666667 L159.648889,6.34666667 C159.924446,6.05333187 160.224443,5.80444547 160.548889,5.6 C160.873335,5.39555453 161.239998,5.29333333 161.648889,5.29333333 C162.128891,5.29333333 162.513332,5.39555453 162.802222,5.6 C163.091113,5.80444547 163.31111,6.09333147 163.462222,6.46666667 C163.773335,6.1288872 164.097776,5.84889 164.435556,5.62666667 C164.773335,5.40444333 165.151109,5.29333333 165.568889,5.29333333 C166.262226,5.29333333 166.773332,5.51777553 167.102222,5.96666667 C167.431113,6.4155578 167.595556,7.0577736 167.595556,7.89333333 L167.595556,12 L166.048889,12 L166.048889,8.09333333 C166.048889,7.5511084 165.966667,7.16889 165.802222,6.94666667 C165.637777,6.72444333 165.386668,6.61333333 165.048889,6.61333333 C164.639998,6.61333333 164.182225,6.88444173 163.675556,7.42666667 L163.675556,12 L162.142222,12 L162.142222,8.09333333 C162.142222,7.5511084 162.060001,7.16889 161.895556,6.94666667 C161.73111,6.72444333 161.475557,6.61333333 161.128889,6.61333333 C160.719998,6.61333333 160.262225,6.88444173 159.755556,7.42666667 L159.755556,12 L158.222222,12 Z M172.262222,12.16 C171.808887,12.16 171.386669,12.082223 170.995556,11.9266667 C170.604442,11.7711103 170.262224,11.5466681 169.968889,11.2533333 C169.675554,10.9599985 169.446667,10.6022243 169.282222,10.18 C169.117777,9.75777567 169.035556,9.27555827 169.035556,8.73333333 C169.035556,8.19999733 169.119999,7.72000213 169.288889,7.29333333 C169.457779,6.86666453 169.682221,6.50666813 169.962222,6.21333333 C170.242224,5.91999853 170.564443,5.69333413 170.928889,5.53333333 C171.293335,5.37333253 171.666665,5.29333333 172.048889,5.29333333 C172.493336,5.29333333 172.884443,5.36888813 173.222222,5.52 C173.560002,5.67111187 173.842221,5.88444307 174.068889,6.16 C174.295557,6.43555693 174.466666,6.76444253 174.582222,7.14666667 C174.697778,7.5288908 174.755556,7.9466644 174.755556,8.4 C174.755556,8.55111187 174.748889,8.69333267 174.735556,8.82666667 C174.722222,8.96000067 174.706667,9.06666627 174.688889,9.14666667 L170.528889,9.14666667 C170.6,9.73333627 170.806665,10.1844429 171.148889,10.5 C171.491113,10.8155571 171.928886,10.9733333 172.462222,10.9733333 C172.746668,10.9733333 173.01111,10.9311115 173.255556,10.8466667 C173.500001,10.7622218 173.742221,10.6444452 173.982222,10.4933333 L174.502222,11.4533333 C174.19111,11.6577788 173.844446,11.826666 173.462222,11.96 C173.079998,12.093334 172.680002,12.16 172.262222,12.16 Z M170.515556,8.10666667 L173.422222,8.10666667 C173.422222,7.59999747 173.313334,7.20222367 173.095556,6.91333333 C172.877777,6.624443 172.542224,6.48 172.088889,6.48 C171.697776,6.48 171.355557,6.6177764 171.062222,6.89333333 C170.768887,7.16889027 170.586667,7.57333067 170.515556,8.10666667 Z M176.222222,12 L176.222222,5.45333333 L177.488889,5.45333333 L177.595556,6.61333333 L177.648889,6.61333333 C177.880001,6.18666453 178.159998,5.86000113 178.488889,5.63333333 C178.817779,5.40666553 179.155554,5.29333333 179.502222,5.29333333 C179.813335,5.29333333 180.062221,5.33777733 180.248889,5.42666667 L179.982222,6.76 C179.866666,6.72444427 179.76,6.69777787 179.662222,6.68 C179.564444,6.66222213 179.444445,6.65333333 179.302222,6.65333333 C179.044443,6.65333333 178.773335,6.75333233 178.488889,6.95333333 C178.204443,7.15333433 177.960001,7.50221973 177.755556,8 L177.755556,12 L176.222222,12 Z M181.195556,12 L181.195556,5.45333333 L182.728889,5.45333333 L182.728889,12 L181.195556,12 Z M181.968889,4.30666667 C181.693332,4.30666667 181.466668,4.22666747 181.288889,4.06666667 C181.11111,3.90666587 181.022222,3.69777907 181.022222,3.44 C181.022222,3.18222093 181.11111,2.97111193 181.288889,2.80666667 C181.466668,2.6422214 181.693332,2.56 181.968889,2.56 C182.244446,2.56 182.47111,2.6422214 182.648889,2.80666667 C182.826668,2.97111193 182.915556,3.18222093 182.915556,3.44 C182.915556,3.69777907 182.826668,3.90666587 182.648889,4.06666667 C182.47111,4.22666747 182.244446,4.30666667 181.968889,4.30666667 Z M187.422222,12.16 C186.977776,12.16 186.562224,12.0844452 186.175556,11.9333333 C185.788887,11.7822215 185.453335,11.5600015 185.168889,11.2666667 C184.884443,10.9733319 184.662223,10.6133355 184.502222,10.1866667 C184.342221,9.75999787 184.262222,9.27555827 184.262222,8.73333333 C184.262222,8.1911084 184.35111,7.7066688 184.528889,7.28 C184.706668,6.8533312 184.946665,6.4933348 185.248889,6.2 C185.551113,5.9066652 185.899998,5.682223 186.295556,5.52666667 C186.691113,5.37111033 187.106664,5.29333333 187.542222,5.29333333 C187.968891,5.29333333 188.335554,5.36444373 188.642222,5.50666667 C188.94889,5.6488896 189.222221,5.8222212 189.462222,6.02666667 L188.715556,7.02666667 C188.537777,6.8755548 188.362223,6.7577782 188.188889,6.67333333 C188.015555,6.58888847 187.826668,6.54666667 187.622222,6.54666667 C187.088886,6.54666667 186.657779,6.74444247 186.328889,7.14 C185.999998,7.53555753 185.835556,8.06666333 185.835556,8.73333333 C185.835556,9.3911144 185.997776,9.9177758 186.322222,10.3133333 C186.646668,10.7088909 187.066664,10.9066667 187.582222,10.9066667 C187.840001,10.9066667 188.082221,10.8511117 188.308889,10.74 C188.535557,10.6288883 188.742221,10.4977785 188.928889,10.3466667 L189.555556,11.36 C189.244443,11.626668 188.904446,11.826666 188.535556,11.96 C188.166665,12.093334 187.795557,12.16 187.422222,12.16 Z M192.302222,12.16 C191.724442,12.16 191.25778,11.9844462 190.902222,11.6333333 C190.546665,11.2822205 190.368889,10.8177807 190.368889,10.24 C190.368889,9.8933316 190.442221,9.5844458 190.588889,9.31333333 C190.735556,9.04222087 190.966665,8.80888987 191.282222,8.61333333 C191.597779,8.4177768 191.997775,8.253334 192.482222,8.12 C192.966669,7.986666 193.546663,7.8844448 194.222222,7.81333333 C194.213333,7.6444436 194.188889,7.482223 194.148889,7.32666667 C194.108889,7.17111033 194.042223,7.03333393 193.948889,6.91333333 C193.855555,6.79333333 193.733334,6.70000033 193.582222,6.63333333 C193.43111,6.56666633 193.244446,6.53333333 193.022222,6.53333333 C192.702221,6.53333333 192.38889,6.59555493 192.082222,6.72 C191.775554,6.84444507 191.475557,6.99555467 191.182222,7.17333333 L190.622222,6.14666667 C190.986668,5.9155544 191.395553,5.7155564 191.848889,5.54666667 C192.302224,5.37777693 192.791108,5.29333333 193.315556,5.29333333 C194.133337,5.29333333 194.744442,5.53555313 195.148889,6.02 C195.553335,6.50444687 195.755556,7.20443987 195.755556,8.12 L195.755556,12 L194.488889,12 L194.382222,11.28 L194.328889,11.28 C194.035554,11.5288901 193.722224,11.7377769 193.388889,11.9066667 C193.055554,12.0755564 192.693335,12.16 192.302222,12.16 Z M192.795556,10.96 C193.062224,10.96 193.304443,10.8977784 193.522222,10.7733333 C193.740001,10.6488883 193.973332,10.4711123 194.222222,10.24 L194.222222,8.77333333 C193.777776,8.82666693 193.404446,8.89777733 193.102222,8.98666667 C192.799998,9.075556 192.555556,9.175555 192.368889,9.28666667 C192.182221,9.39777833 192.048889,9.52444373 191.968889,9.66666667 C191.888888,9.8088896 191.848889,9.9599992 191.848889,10.12 C191.848889,10.4133348 191.937777,10.626666 192.115556,10.76 C192.293334,10.893334 192.519999,10.96 192.795556,10.96 Z M197.595556,12 L197.595556,5.45333333 L198.862222,5.45333333 L198.968889,6.33333333 L199.022222,6.33333333 C199.315557,6.04888747 199.633332,5.80444547 199.975556,5.6 C200.317779,5.39555453 200.715553,5.29333333 201.168889,5.29333333 C201.871115,5.29333333 202.382221,5.51777553 202.702222,5.96666667 C203.022224,6.4155578 203.182222,7.0577736 203.182222,7.89333333 L203.182222,12 L201.648889,12 L201.648889,8.09333333 C201.648889,7.5511084 201.56889,7.16889 201.408889,6.94666667 C201.248888,6.72444333 200.986668,6.61333333 200.622222,6.61333333 C200.337776,6.61333333 200.086668,6.68222153 199.868889,6.82 C199.65111,6.95777847 199.404446,7.15999867 199.128889,7.42666667 L199.128889,12 L197.595556,12 Z M206.888889,12.16 C206.435553,12.16 205.988891,12.0733342 205.548889,11.9 C205.108887,11.7266658 204.72889,11.5111124 204.408889,11.2533333 L205.128889,10.2666667 C205.422224,10.4977789 205.713332,10.6777771 206.002222,10.8066667 C206.291113,10.9355562 206.604443,11 206.942222,11 C207.29778,11 207.559999,10.9266674 207.728889,10.78 C207.897779,10.6333326 207.982222,10.4444456 207.982222,10.2133333 C207.982222,10.0799993 207.942223,9.96222273 207.862222,9.86 C207.782222,9.75777727 207.675556,9.66666707 207.542222,9.58666667 C207.408889,9.50666627 207.257779,9.43333367 207.088889,9.36666667 C206.919999,9.29999967 206.751112,9.23111147 206.582222,9.16 C206.368888,9.0799996 206.151112,8.9866672 205.928889,8.88 C205.706666,8.7733328 205.50889,8.6444452 205.335556,8.49333333 C205.162221,8.34222147 205.020001,8.16666767 204.908889,7.96666667 C204.797777,7.76666567 204.742222,7.52889027 204.742222,7.25333333 C204.742222,6.67555267 204.955553,6.20444627 205.382222,5.84 C205.808891,5.47555373 206.391107,5.29333333 207.128889,5.29333333 C207.582224,5.29333333 207.991109,5.37333253 208.355556,5.53333333 C208.720002,5.69333413 209.035554,5.87555453 209.302222,6.08 L208.595556,7.01333333 C208.364443,6.8444436 208.131112,6.7088894 207.895556,6.60666667 C207.659999,6.50444393 207.413335,6.45333333 207.155556,6.45333333 C206.826665,6.45333333 206.584445,6.52222153 206.428889,6.66 C206.273333,6.79777847 206.195556,6.96888787 206.195556,7.17333333 C206.195556,7.30666733 206.233333,7.41999953 206.308889,7.51333333 C206.384445,7.60666713 206.484444,7.68888853 206.608889,7.76 C206.733334,7.83111147 206.877777,7.89777747 207.042222,7.96 C207.206667,8.02222253 207.377777,8.08444413 207.555556,8.14666667 C207.777779,8.22666707 207.999999,8.31777727 208.222222,8.42 C208.444446,8.52222273 208.646666,8.64888813 208.828889,8.8 C209.011112,8.95111187 209.157777,9.13555447 209.268889,9.35333333 C209.380001,9.5711122 209.435556,9.8311096 209.435556,10.1333333 C209.435556,10.4177792 209.380001,10.682221 209.268889,10.9266667 C209.157777,11.1711123 208.995557,11.3844435 208.782222,11.5666667 C208.568888,11.7488898 208.302224,11.8933328 207.982222,12 C207.662221,12.1066672 207.29778,12.16 206.888889,12.16 Z M215.395556,7.36 L215.088889,8.42666667 L217.315556,8.42666667 L217.008889,7.36 C216.866666,6.89777547 216.731112,6.42222467 216.602222,5.93333333 L216.222222,4.48 L216.222222,4.48 L216.168889,4.48 L215.795556,5.94 L215.795556,5.94 C215.67111,6.42444687 215.537778,6.89777547 215.395556,7.36 Z M226.488889,2.58666667 L226.488889,12 L225.222222,12 L225.115556,11.2933333 L225.062222,11.2933333 C224.822221,11.5333345 224.542224,11.7377769 224.222222,11.9066667 C223.902221,12.0755564 223.564446,12.16 223.208889,12.16 C222.382218,12.16 221.726669,11.860003 221.242222,11.26 C220.757775,10.659997 220.515556,9.8177832 220.515556,8.73333333 C220.515556,8.19999733 220.593333,7.72000213 220.748889,7.29333333 C220.904445,6.86666453 221.11111,6.50666813 221.368889,6.21333333 C221.626668,5.91999853 221.922221,5.69333413 222.255556,5.53333333 C222.588891,5.37333253 222.933332,5.29333333 223.288889,5.29333333 C223.662224,5.29333333 223.977776,5.35777713 224.235556,5.48666667 C224.493335,5.6155562 224.75111,5.79111 225.008889,6.01333333 L224.955556,4.96 L224.955556,2.58666667 L226.488889,2.58666667 Z M234.008889,2.58666667 L234.008889,12 L232.742222,12 L232.635556,11.2933333 L232.582222,11.2933333 C232.342221,11.5333345 232.062224,11.7377769 231.742222,11.9066667 C231.422221,12.0755564 231.084446,12.16 230.728889,12.16 C229.902218,12.16 229.246669,11.860003 228.762222,11.26 C228.277775,10.659997 228.035556,9.8177832 228.035556,8.73333333 C228.035556,8.19999733 228.113333,7.72000213 228.268889,7.29333333 C228.424445,6.86666453 228.63111,6.50666813 228.888889,6.21333333 C229.146668,5.91999853 229.442221,5.69333413 229.775556,5.53333333 C230.108891,5.37333253 230.453332,5.29333333 230.808889,5.29333333 C231.182224,5.29333333 231.497776,5.35777713 231.755556,5.48666667 C232.013335,5.6155562 232.27111,5.79111 232.528889,6.01333333 L232.475556,4.96 L232.475556,2.58666667 L234.008889,2.58666667 Z M238.542222,5.29333333 C238.986669,5.29333333 239.377776,5.36888813 239.715556,5.52 C240.053335,5.67111187 240.335554,5.88444307 240.562222,6.16 C240.78889,6.43555693 240.959999,6.76444253 241.075556,7.14666667 C241.191112,7.5288908 241.248889,7.9466644 241.248889,8.4 C241.248889,8.55111187 241.242222,8.69333267 241.228889,8.82666667 C241.215555,8.96000067 241.2,9.06666627 241.182222,9.14666667 L237.022222,9.14666667 C237.093334,9.73333627 237.299998,10.1844429 237.642222,10.5 C237.984446,10.8155571 238.42222,10.9733333 238.955556,10.9733333 C239.240001,10.9733333 239.504443,10.9311115 239.748889,10.8466667 C239.993335,10.7622218 240.235554,10.6444452 240.475556,10.4933333 L240.995556,11.4533333 C240.684443,11.6577788 240.33778,11.826666 239.955556,11.96 C239.573331,12.093334 239.173335,12.16 238.755556,12.16 C238.30222,12.16 237.880002,12.082223 237.488889,11.9266667 C237.097776,11.7711103 236.755557,11.5466681 236.462222,11.2533333 C236.168887,10.9599985 235.940001,10.6022243 235.775556,10.18 C235.61111,9.75777567 235.528889,9.27555827 235.528889,8.73333333 C235.528889,8.19999733 235.613332,7.72000213 235.782222,7.29333333 C235.951112,6.86666453 236.175554,6.50666813 236.455556,6.21333333 C236.735557,5.91999853 237.057776,5.69333413 237.422222,5.53333333 C237.786668,5.37333253 238.159998,5.29333333 238.542222,5.29333333 Z M248.288889,2.58666667 L248.288889,12 L247.022222,12 L246.915556,11.2933333 L246.862222,11.2933333 C246.622221,11.5333345 246.342224,11.7377769 246.022222,11.9066667 C245.702221,12.0755564 245.364446,12.16 245.008889,12.16 C244.182218,12.16 243.526669,11.860003 243.042222,11.26 C242.557775,10.659997 242.315556,9.8177832 242.315556,8.73333333 C242.315556,8.19999733 242.393333,7.72000213 242.548889,7.29333333 C242.704445,6.86666453 242.91111,6.50666813 243.168889,6.21333333 C243.426668,5.91999853 243.722221,5.69333413 244.055556,5.53333333 C244.388891,5.37333253 244.733332,5.29333333 245.088889,5.29333333 C245.462224,5.29333333 245.777776,5.35777713 246.035556,5.48666667 C246.293335,5.6155562 246.55111,5.79111 246.808889,6.01333333 L246.755556,4.96 L246.755556,2.58666667 L248.288889,2.58666667 Z M217.128889,3.28 L219.968889,12 L218.342222,12 L217.662222,9.64 L214.728889,9.64 L214.048889,12 L212.475556,12 L215.315556,3.28 L217.128889,3.28 Z M223.622222,6.56 C223.195553,6.56 222.835557,6.7466648 222.542222,7.12 C222.248887,7.4933352 222.102222,8.0266632 222.102222,8.72 C222.102222,9.43111467 222.228888,9.97110927 222.482222,10.34 C222.735557,10.7088907 223.102222,10.8933333 223.582222,10.8933333 C224.071114,10.8933333 224.528887,10.6488913 224.955556,10.16 L224.955556,7.10666667 C224.724443,6.9022212 224.500001,6.7600004 224.282222,6.68 C224.064443,6.5999996 223.844446,6.56 223.622222,6.56 Z M231.142222,6.56 C230.715553,6.56 230.355557,6.7466648 230.062222,7.12 C229.768887,7.4933352 229.622222,8.0266632 229.622222,8.72 C229.622222,9.43111467 229.748888,9.97110927 230.002222,10.34 C230.255557,10.7088907 230.622222,10.8933333 231.102222,10.8933333 C231.591114,10.8933333 232.048887,10.6488913 232.475556,10.16 L232.475556,7.10666667 C232.244443,6.9022212 232.020001,6.7600004 231.802222,6.68 C231.584443,6.5999996 231.364446,6.56 231.142222,6.56 Z M245.422222,6.56 C244.995553,6.56 244.635557,6.7466648 244.342222,7.12 C244.048887,7.4933352 243.902222,8.0266632 243.902222,8.72 C243.902222,9.43111467 244.028888,9.97110927 244.282222,10.34 C244.535557,10.7088907 244.902222,10.8933333 245.382222,10.8933333 C245.871114,10.8933333 246.328887,10.6488913 246.755556,10.16 L246.755556,10.16 L246.755556,7.10666667 C246.524443,6.9022212 246.300001,6.7600004 246.082222,6.68 C245.864443,6.5999996 245.644446,6.56 245.422222,6.56 Z M238.582222,6.48 C238.191109,6.48 237.84889,6.6177764 237.555556,6.89333333 C237.262221,7.16889027 237.08,7.57333067 237.008889,8.10666667 L239.915556,8.10666667 C239.915556,7.59999747 239.806668,7.20222367 239.588889,6.91333333 C239.37111,6.624443 239.035558,6.48 238.582222,6.48 Z" id="In2019,AmericansAdded" fill="#555555"></path>
            <path d="M103.195556,64.2222222 L103.195556,57.6755556 L104.728889,57.6755556 L104.728889,64.2222222 L103.195556,64.2222222 Z M103.968889,56.5288889 C103.693332,56.5288889 103.466668,56.4488897 103.288889,56.2888889 C103.11111,56.1288881 103.022222,55.9200013 103.022222,55.6622222 C103.022222,55.4044432 103.11111,55.1933342 103.288889,55.0288889 C103.466668,54.8644436 103.693332,54.7822222 103.968889,54.7822222 C104.244446,54.7822222 104.47111,54.8644436 104.648889,55.0288889 C104.826668,55.1933342 104.915556,55.4044432 104.915556,55.6622222 C104.915556,55.9200013 104.826668,56.1288881 104.648889,56.2888889 C104.47111,56.4488897 104.244446,56.5288889 103.968889,56.5288889 Z M106.688889,64.2222222 L106.688889,57.6755556 L107.955556,57.6755556 L108.062222,58.5555556 L108.115556,58.5555556 C108.40889,58.2711097 108.726665,58.0266677 109.068889,57.8222222 C109.411113,57.6177768 109.808887,57.5155556 110.262222,57.5155556 C110.964448,57.5155556 111.475554,57.7399978 111.795556,58.1888889 C112.115557,58.63778 112.275556,59.2799958 112.275556,60.1155556 L112.275556,64.2222222 L110.742222,64.2222222 L110.742222,60.3155556 C110.742222,59.7733306 110.662223,59.3911122 110.502222,59.1688889 C110.342221,58.9466656 110.080002,58.8355556 109.715556,58.8355556 C109.43111,58.8355556 109.180001,58.9044438 108.962222,59.0422222 C108.744443,59.1800007 108.497779,59.3822209 108.222222,59.6488889 L108.222222,64.2222222 L106.688889,64.2222222 Z M120.435556,64.3822222 C119.884442,64.3822222 119.368891,64.2844454 118.888889,64.0888889 C118.408886,63.8933324 117.993335,63.6044464 117.642222,63.2222222 C117.291109,62.8399981 117.013334,62.3688917 116.808889,61.8088889 C116.604443,61.2488861 116.502222,60.6088925 116.502222,59.8888889 C116.502222,59.1777742 116.606666,58.5400028 116.815556,57.9755556 C117.024445,57.4111083 117.308887,56.9333353 117.668889,56.5422222 C118.028891,56.1511092 118.451109,55.8533344 118.935556,55.6488889 C119.420002,55.4444434 119.937775,55.3422222 120.488889,55.3422222 C121.040003,55.3422222 121.528887,55.4533322 121.955556,55.6755556 C122.382224,55.8977789 122.733332,56.1555541 123.008889,56.4488889 L122.182222,57.4488889 C121.95111,57.2177766 121.702224,57.033334 121.435556,56.8955556 C121.168888,56.7577771 120.866668,56.6888889 120.528889,56.6888889 C120.173332,56.6888889 119.846668,56.7622215 119.548889,56.9088889 C119.25111,57.0555563 118.993334,57.2644431 118.775556,57.5355556 C118.557777,57.806668 118.388889,58.1377758 118.268889,58.5288889 C118.148888,58.920002 118.088889,59.3599976 118.088889,59.8488889 C118.088889,60.8444494 118.304442,61.6244416 118.735556,62.1888889 C119.166669,62.7533362 119.751107,63.0355556 120.488889,63.0355556 C120.880002,63.0355556 121.226665,62.9533342 121.528889,62.7888889 C121.831113,62.6244436 122.106665,62.4088902 122.355556,62.1422222 L123.182222,63.1155556 C122.826665,63.5244465 122.420002,63.8377767 121.962222,64.0555556 C121.504442,64.2733344 120.995558,64.3822222 120.435556,64.3822222 Z M124.502222,64.2222222 L124.502222,57.6755556 L125.768889,57.6755556 L125.875556,58.8355556 L125.928889,58.8355556 C126.160001,58.4088868 126.439998,58.0822234 126.768889,57.8555556 C127.097779,57.6288878 127.435554,57.5155556 127.782222,57.5155556 C128.093335,57.5155556 128.342221,57.5599996 128.528889,57.6488889 L128.262222,58.9822222 C128.146666,58.9466665 128.04,58.9200001 127.942222,58.9022222 C127.844444,58.8844444 127.724445,58.8755556 127.582222,58.8755556 C127.324443,58.8755556 127.053335,58.9755546 126.768889,59.1755556 C126.484443,59.3755566 126.240001,59.724442 126.035556,60.2222222 L126.035556,64.2222222 L124.502222,64.2222222 Z M132.142222,64.3822222 C131.688887,64.3822222 131.266669,64.3044452 130.875556,64.1488889 C130.484442,63.9933326 130.142224,63.7688904 129.848889,63.4755556 C129.555554,63.1822208 129.326667,62.8244466 129.162222,62.4022222 C128.997777,61.9799979 128.915556,61.4977805 128.915556,60.9555556 C128.915556,60.4222196 128.999999,59.9422244 129.168889,59.5155556 C129.337779,59.0888868 129.562221,58.7288904 129.842222,58.4355556 C130.122224,58.1422208 130.444443,57.9155564 130.808889,57.7555556 C131.173335,57.5955548 131.546665,57.5155556 131.928889,57.5155556 C132.373336,57.5155556 132.764443,57.5911104 133.102222,57.7422222 C133.440002,57.8933341 133.722221,58.1066653 133.948889,58.3822222 C134.175557,58.6577792 134.346666,58.9866648 134.462222,59.3688889 C134.577778,59.751113 134.635556,60.1688866 134.635556,60.6222222 C134.635556,60.7733341 134.628889,60.9155549 134.615556,61.0488889 C134.602222,61.1822229 134.586667,61.2888885 134.568889,61.3688889 L130.408889,61.3688889 C130.48,61.9555585 130.686665,62.4066651 131.028889,62.7222222 C131.371113,63.0377794 131.808886,63.1955556 132.342222,63.1955556 C132.626668,63.1955556 132.89111,63.1533338 133.135556,63.0688889 C133.380001,62.984444 133.622221,62.8666674 133.862222,62.7155556 L134.382222,63.6755556 C134.07111,63.880001 133.724446,64.0488882 133.342222,64.1822222 C132.959998,64.3155562 132.560002,64.3822222 132.142222,64.3822222 Z M130.395556,60.3288889 L133.302222,60.3288889 C133.302222,59.8222197 133.193334,59.4244459 132.975556,59.1355556 C132.757777,58.8466652 132.422224,58.7022222 131.968889,58.7022222 C131.577776,58.7022222 131.235557,58.8399986 130.942222,59.1155556 C130.648887,59.3911125 130.466667,59.7955529 130.395556,60.3288889 Z M138.395556,64.3822222 C137.568885,64.3822222 136.913336,64.0822252 136.428889,63.4822222 C135.944442,62.8822192 135.702222,62.0400054 135.702222,60.9555556 C135.702222,60.4222196 135.779999,59.9422244 135.935556,59.5155556 C136.091112,59.0888868 136.297776,58.7288904 136.555556,58.4355556 C136.813335,58.1422208 137.108887,57.9155564 137.442222,57.7555556 C137.775557,57.5955548 138.119998,57.5155556 138.475556,57.5155556 C138.848891,57.5155556 139.164443,57.5799994 139.422222,57.7088889 C139.680001,57.8377784 139.937776,58.0133322 140.195556,58.2355556 L140.142222,57.1822222 L140.142222,54.8088889 L141.675556,54.8088889 L141.675556,64.2222222 L140.408889,64.2222222 L140.302222,63.5155556 L140.248889,63.5155556 C140.008888,63.7555568 139.72889,63.9599992 139.408889,64.1288889 C139.088887,64.2977786 138.751113,64.3822222 138.395556,64.3822222 Z M138.768889,63.1155556 C139.25778,63.1155556 139.715553,62.8711136 140.142222,62.3822222 L140.142222,59.3288889 C139.91111,59.1244434 139.686668,58.9822226 139.468889,58.9022222 C139.25111,58.8222218 139.031112,58.7822222 138.808889,58.7822222 C138.38222,58.7822222 138.022224,58.968887 137.728889,59.3422222 C137.435554,59.7155574 137.288889,60.2488854 137.288889,60.9422222 C137.288889,61.6533369 137.415554,62.1933315 137.668889,62.5622222 C137.922223,62.931113 138.288889,63.1155556 138.768889,63.1155556 Z M143.622222,64.2222222 L143.622222,57.6755556 L145.155556,57.6755556 L145.155556,64.2222222 L143.622222,64.2222222 Z M144.395556,56.5288889 C144.119999,56.5288889 143.893334,56.4488897 143.715556,56.2888889 C143.537777,56.1288881 143.448889,55.9200013 143.448889,55.6622222 C143.448889,55.4044432 143.537777,55.1933342 143.715556,55.0288889 C143.893334,54.8644436 144.119999,54.7822222 144.395556,54.7822222 C144.671112,54.7822222 144.897777,54.8644436 145.075556,55.0288889 C145.253334,55.1933342 145.342222,55.4044432 145.342222,55.6622222 C145.342222,55.9200013 145.253334,56.1288881 145.075556,56.2888889 C144.897777,56.4488897 144.671112,56.5288889 144.395556,56.5288889 Z M149.422222,64.3822222 C149.039998,64.3822222 148.717779,64.324445 148.455556,64.2088889 C148.193332,64.0933328 147.980001,63.9311122 147.815556,63.7222222 C147.65111,63.5133323 147.531111,63.2644459 147.455556,62.9755556 C147.38,62.6866652 147.342222,62.3644462 147.342222,62.0088889 L147.342222,58.8888889 L146.408889,58.8888889 L146.408889,57.7422222 L147.422222,57.6755556 L147.608889,55.8888889 L148.888889,55.8888889 L148.888889,57.6755556 L150.555556,57.6755556 L150.555556,58.8888889 L148.888889,58.8888889 L148.888889,62.0088889 C148.888889,62.7733372 149.195552,63.1555556 149.808889,63.1555556 C149.924445,63.1555556 150.042222,63.1422224 150.162222,63.1155556 C150.282223,63.0888888 150.391111,63.0533336 150.488889,63.0088889 L150.755556,64.1422222 C150.577777,64.2044448 150.375557,64.2599998 150.148889,64.3088889 C149.922221,64.357778 149.680001,64.3822222 149.422222,64.3822222 Z M158.208889,64.3822222 C157.657775,64.3822222 157.142225,64.2844454 156.662222,64.0888889 C156.18222,63.8933324 155.766668,63.6044464 155.415556,63.2222222 C155.064443,62.8399981 154.786668,62.3688917 154.582222,61.8088889 C154.377777,61.2488861 154.275556,60.6088925 154.275556,59.8888889 C154.275556,59.1777742 154.379999,58.5400028 154.588889,57.9755556 C154.797779,57.4111083 155.08222,56.9333353 155.442222,56.5422222 C155.802224,56.1511092 156.224442,55.8533344 156.708889,55.6488889 C157.193336,55.4444434 157.711108,55.3422222 158.262222,55.3422222 C158.813336,55.3422222 159.30222,55.4533322 159.728889,55.6755556 C160.155558,55.8977789 160.506665,56.1555541 160.782222,56.4488889 L159.955556,57.4488889 C159.724443,57.2177766 159.475557,57.033334 159.208889,56.8955556 C158.942221,56.7577771 158.640002,56.6888889 158.302222,56.6888889 C157.946665,56.6888889 157.620001,56.7622215 157.322222,56.9088889 C157.024443,57.0555563 156.766668,57.2644431 156.548889,57.5355556 C156.33111,57.806668 156.162223,58.1377758 156.042222,58.5288889 C155.922222,58.920002 155.862222,59.3599976 155.862222,59.8488889 C155.862222,60.8444494 156.077776,61.6244416 156.508889,62.1888889 C156.940002,62.7533362 157.524441,63.0355556 158.262222,63.0355556 C158.653335,63.0355556 158.999998,62.9533342 159.302222,62.7888889 C159.604446,62.6244436 159.879999,62.4088902 160.128889,62.1422222 L160.955556,63.1155556 C160.599998,63.5244465 160.193336,63.8377767 159.735556,64.0555556 C159.277775,64.2733344 158.768892,64.3822222 158.208889,64.3822222 Z M163.862222,64.3822222 C163.284442,64.3822222 162.81778,64.2066684 162.462222,63.8555556 C162.106665,63.5044427 161.928889,63.0400029 161.928889,62.4622222 C161.928889,62.1155538 162.002221,61.806668 162.148889,61.5355556 C162.295556,61.2644431 162.526665,61.0311121 162.842222,60.8355556 C163.157779,60.639999 163.557775,60.4755562 164.042222,60.3422222 C164.526669,60.2088882 165.106663,60.106667 165.782222,60.0355556 C165.773333,59.8666658 165.748889,59.7044452 165.708889,59.5488889 C165.668889,59.3933326 165.602223,59.2555562 165.508889,59.1355556 C165.415555,59.0155556 165.293334,58.9222226 165.142222,58.8555556 C164.99111,58.7888886 164.804446,58.7555556 164.582222,58.7555556 C164.262221,58.7555556 163.94889,58.8177772 163.642222,58.9422222 C163.335554,59.0666673 163.035557,59.2177769 162.742222,59.3955556 L162.182222,58.3688889 C162.546668,58.1377766 162.955553,57.9377786 163.408889,57.7688889 C163.862224,57.5999992 164.351108,57.5155556 164.875556,57.5155556 C165.693337,57.5155556 166.304442,57.7577754 166.708889,58.2422222 C167.113335,58.7266691 167.315556,59.4266621 167.315556,60.3422222 L167.315556,64.2222222 L166.048889,64.2222222 L165.942222,63.5022222 L165.888889,63.5022222 C165.595554,63.7511124 165.282224,63.9599992 164.948889,64.1288889 C164.615554,64.2977786 164.253335,64.3822222 163.862222,64.3822222 Z M164.355556,63.1822222 C164.622224,63.1822222 164.864443,63.1200006 165.082222,62.9955556 C165.300001,62.8711105 165.533332,62.6933345 165.782222,62.4622222 L165.782222,60.9955556 C165.337776,61.0488892 164.964446,61.1199996 164.662222,61.2088889 C164.359998,61.2977782 164.115556,61.3977772 163.928889,61.5088889 C163.742221,61.6200006 163.608889,61.746666 163.528889,61.8888889 C163.448888,62.0311118 163.408889,62.1822214 163.408889,62.3422222 C163.408889,62.635557 163.497777,62.8488882 163.675556,62.9822222 C163.853334,63.1155562 164.079999,63.1822222 164.355556,63.1822222 Z M169.155556,64.2222222 L169.155556,57.6755556 L170.422222,57.6755556 L170.528889,58.8355556 L170.582222,58.8355556 C170.813334,58.4088868 171.093332,58.0822234 171.422222,57.8555556 C171.751113,57.6288878 172.088887,57.5155556 172.435556,57.5155556 C172.746668,57.5155556 172.995555,57.5599996 173.182222,57.6488889 L172.915556,58.9822222 C172.799999,58.9466665 172.693334,58.9200001 172.595556,58.9022222 C172.497777,58.8844444 172.377778,58.8755556 172.235556,58.8755556 C171.977776,58.8755556 171.706668,58.9755546 171.422222,59.1755556 C171.137776,59.3755566 170.893334,59.724442 170.688889,60.2222222 L170.688889,64.2222222 L169.155556,64.2222222 Z M176.288889,64.3822222 C175.462218,64.3822222 174.806669,64.0822252 174.322222,63.4822222 C173.837775,62.8822192 173.595556,62.0400054 173.595556,60.9555556 C173.595556,60.4222196 173.673333,59.9422244 173.828889,59.5155556 C173.984445,59.0888868 174.19111,58.7288904 174.448889,58.4355556 C174.706668,58.1422208 175.002221,57.9155564 175.335556,57.7555556 C175.668891,57.5955548 176.013332,57.5155556 176.368889,57.5155556 C176.742224,57.5155556 177.057776,57.5799994 177.315556,57.7088889 C177.573335,57.8377784 177.83111,58.0133322 178.088889,58.2355556 L178.035556,57.1822222 L178.035556,54.8088889 L179.568889,54.8088889 L179.568889,64.2222222 L178.302222,64.2222222 L178.195556,63.5155556 L178.142222,63.5155556 C177.902221,63.7555568 177.622224,63.9599992 177.302222,64.1288889 C176.982221,64.2977786 176.644446,64.3822222 176.288889,64.3822222 Z M176.662222,63.1155556 C177.151114,63.1155556 177.608887,62.8711136 178.035556,62.3822222 L178.035556,59.3288889 C177.804443,59.1244434 177.580001,58.9822226 177.362222,58.9022222 C177.144443,58.8222218 176.924446,58.7822222 176.702222,58.7822222 C176.275553,58.7822222 175.915557,58.968887 175.622222,59.3422222 C175.328887,59.7155574 175.182222,60.2488854 175.182222,60.9422222 C175.182222,61.6533369 175.308888,62.1933315 175.562222,62.5622222 C175.815557,62.931113 176.182222,63.1155556 176.662222,63.1155556 Z M184.315556,64.2222222 L184.315556,55.5022222 L186.648889,55.5022222 C187.982229,55.5022222 189.022218,55.8622186 189.768889,56.5822222 C190.515559,57.3022258 190.888889,58.382215 190.888889,59.8222222 C190.888889,60.5422258 190.793334,61.177775 190.602222,61.7288889 C190.41111,62.2800028 190.135557,62.7399982 189.775556,63.1088889 C189.415554,63.4777796 188.980003,63.7555546 188.468889,63.9422222 C187.957775,64.1288898 187.377781,64.2222222 186.728889,64.2222222 L184.315556,64.2222222 Z M185.862222,62.9688889 L186.542222,62.9688889 C187.431116,62.9688889 188.113331,62.7133359 188.588889,62.2022222 C189.064447,61.6911086 189.302222,60.8977832 189.302222,59.8222222 C189.302222,58.7555556 189.062225,57.9777802 188.582222,57.4888889 C188.10222,56.9999976 187.422227,56.7555556 186.542222,56.7555556 L185.862222,56.7555556 L185.862222,62.9688889 Z M195.315556,64.3822222 C194.86222,64.3822222 194.440002,64.3044452 194.048889,64.1488889 C193.657776,63.9933326 193.315557,63.7688904 193.022222,63.4755556 C192.728887,63.1822208 192.500001,62.8244466 192.335556,62.4022222 C192.17111,61.9799979 192.088889,61.4977805 192.088889,60.9555556 C192.088889,60.4222196 192.173332,59.9422244 192.342222,59.5155556 C192.511112,59.0888868 192.735554,58.7288904 193.015556,58.4355556 C193.295557,58.1422208 193.617776,57.9155564 193.982222,57.7555556 C194.346668,57.5955548 194.719998,57.5155556 195.102222,57.5155556 C195.546669,57.5155556 195.937776,57.5911104 196.275556,57.7422222 C196.613335,57.8933341 196.895554,58.1066653 197.122222,58.3822222 C197.34889,58.6577792 197.519999,58.9866648 197.635556,59.3688889 C197.751112,59.751113 197.808889,60.1688866 197.808889,60.6222222 C197.808889,60.7733341 197.802222,60.9155549 197.788889,61.0488889 C197.775555,61.1822229 197.76,61.2888885 197.742222,61.3688889 L193.582222,61.3688889 C193.653334,61.9555585 193.859998,62.4066651 194.202222,62.7222222 C194.544446,63.0377794 194.98222,63.1955556 195.515556,63.1955556 C195.800001,63.1955556 196.064443,63.1533338 196.308889,63.0688889 C196.553335,62.984444 196.795554,62.8666674 197.035556,62.7155556 L197.555556,63.6755556 C197.244443,63.880001 196.89778,64.0488882 196.515556,64.1822222 C196.133331,64.3155562 195.733335,64.3822222 195.315556,64.3822222 Z M193.568889,60.3288889 L196.475556,60.3288889 C196.475556,59.8222197 196.366668,59.4244459 196.148889,59.1355556 C195.93111,58.8466652 195.595558,58.7022222 195.142222,58.7022222 C194.751109,58.7022222 194.40889,58.8399986 194.115556,59.1155556 C193.822221,59.3911125 193.64,59.7955529 193.568889,60.3288889 Z M202.448889,64.3822222 C202.146665,64.3822222 201.842224,64.3088889 201.535556,64.1622222 C201.228887,64.0155548 200.937779,63.8044458 200.662222,63.5288889 L200.622222,63.5288889 L200.488889,64.2222222 L199.275556,64.2222222 L199.275556,54.8088889 L200.808889,54.8088889 L200.808889,57.2355556 L200.768889,58.3288889 C201.044446,58.0888877 201.344443,57.8933341 201.668889,57.7422222 C201.993335,57.5911104 202.324443,57.5155556 202.662222,57.5155556 C203.071113,57.5155556 203.435554,57.5933326 203.755556,57.7488889 C204.075557,57.9044452 204.346666,58.1266652 204.568889,58.4155556 C204.791112,58.7044459 204.959999,59.0533313 205.075556,59.4622222 C205.191112,59.8711132 205.248889,60.3288864 205.248889,60.8355556 C205.248889,61.3955584 205.171112,61.8955534 205.015556,62.3355556 C204.859999,62.7755578 204.653335,63.1466652 204.395556,63.4488889 C204.137776,63.7511126 203.840002,63.9822214 203.502222,64.1422222 C203.164443,64.302223 202.813335,64.3822222 202.448889,64.3822222 Z M202.128889,63.1155556 C202.564447,63.1155556 202.928887,62.9266686 203.222222,62.5488889 C203.515557,62.1711092 203.662222,61.6088926 203.662222,60.8622222 C203.662222,60.2044412 203.551112,59.6933352 203.328889,59.3288889 C203.106666,58.9644426 202.746669,58.7822222 202.248889,58.7822222 C201.786664,58.7822222 201.306669,59.0266642 200.808889,59.5155556 L200.808889,62.5688889 C201.040001,62.7733344 201.268888,62.9155552 201.495556,62.9955556 C201.722223,63.075556 201.933332,63.1155556 202.128889,63.1155556 Z M208.795556,64.3822222 C208.413331,64.3822222 208.091112,64.324445 207.828889,64.2088889 C207.566665,64.0933328 207.353334,63.9311122 207.188889,63.7222222 C207.024444,63.5133323 206.904445,63.2644459 206.828889,62.9755556 C206.753333,62.6866652 206.715556,62.3644462 206.715556,62.0088889 L206.715556,58.8888889 L205.782222,58.8888889 L205.782222,57.7422222 L206.795556,57.6755556 L206.982222,55.8888889 L208.262222,55.8888889 L208.262222,57.6755556 L209.928889,57.6755556 L209.928889,58.8888889 L208.262222,58.8888889 L208.262222,62.0088889 C208.262222,62.7733372 208.568886,63.1555556 209.182222,63.1555556 C209.297778,63.1555556 209.415555,63.1422224 209.535556,63.1155556 C209.655556,63.0888888 209.764444,63.0533336 209.862222,63.0088889 L210.128889,64.1422222 C209.95111,64.2044448 209.74889,64.2599998 209.522222,64.3088889 C209.295554,64.357778 209.053335,64.3822222 208.795556,64.3822222 Z" id="inCreditCardDebt" fill="#555555"></path>
            <path d="M108.319444,45.7222222 L108.319444,42.9444444 C107.467588,42.8518514 106.611115,42.6250018 105.75,42.2638889 C104.888885,41.902776 104.143522,41.4259289 103.513889,40.8333333 L104.958333,38.6666667 C105.606485,39.1851878 106.263886,39.6018503 106.930556,39.9166667 C107.597226,40.2314831 108.310181,40.3888889 109.069444,40.3888889 C109.976856,40.3888889 110.652776,40.1805576 111.097222,39.7638889 C111.541669,39.3472201 111.763889,38.7592631 111.763889,38 C111.763889,37.3888858 111.578706,36.8796317 111.208333,36.4722222 C110.837961,36.0648128 110.370373,35.6944461 109.805556,35.3611111 C109.240738,35.0277761 108.634263,34.7083349 107.986111,34.4027778 C107.33796,34.0972207 106.731484,33.7361132 106.166667,33.3194444 C105.601849,32.9027757 105.134261,32.4027807 104.763889,31.8194444 C104.393517,31.2361082 104.208333,30.5092636 104.208333,29.6388889 C104.208333,28.3425861 104.5787,27.2638932 105.319444,26.4027778 C106.060189,25.5416624 107.060179,25.0000011 108.319444,24.7777778 L108.319444,21.9444444 L110.541667,21.9444444 L110.541667,24.7222222 C111.43056,24.8333339 112.194441,25.087961 112.833333,25.4861111 C113.472225,25.8842613 114.050923,26.3518492 114.569444,26.8888889 L112.930556,28.75 C112.412034,28.2685161 111.912039,27.902779 111.430556,27.6527778 C110.949072,27.4027765 110.375003,27.2777778 109.708333,27.2777778 C108.94907,27.2777778 108.356484,27.4675907 107.930556,27.8472222 C107.504628,28.2268538 107.291667,28.7777742 107.291667,29.5 C107.291667,30.0555583 107.47685,30.5138871 107.847222,30.875 C108.217594,31.2361129 108.685182,31.5694429 109.25,31.875 C109.814818,32.1805571 110.421293,32.4861096 111.069444,32.7916667 C111.717596,33.0972238 112.324071,33.4629608 112.888889,33.8888889 C113.453707,34.3148169 113.921294,34.8379599 114.291667,35.4583333 C114.662039,36.0787068 114.847222,36.8518472 114.847222,37.7777778 C114.847222,39.1111178 114.476856,40.2268474 113.736111,41.125 C112.995367,42.0231526 111.930563,42.6018506 110.541667,42.8611111 L110.541667,45.7222222 L108.319444,45.7222222 Z M124.819444,42.6666667 L124.819444,38.1111111 L117.013889,38.1111111 L117.013889,35.9444444 L124.013889,25 L127.819444,25 L127.819444,35.6388889 L130.041667,35.6388889 L130.041667,38.1111111 L127.819444,38.1111111 L127.819444,42.6666667 L124.819444,42.6666667 Z M120.180556,35.6388889 L124.819444,35.6388889 L124.819444,31.6388889 C124.819444,31.206788 124.829089,30.7103927 124.84838,30.1496924 L124.890432,29.1327151 C124.911008,28.7047321 124.933642,28.317903 124.958333,27.9722222 L124.847222,27.9722222 C124.624999,28.4351875 124.39352,28.8888867 124.152778,29.3333333 L123.402778,30.7222222 L123.402778,30.7222222 L120.180556,35.6388889 Z M137.875,43 C136.023139,43 134.560191,42.2083413 133.486111,40.625 C132.412032,39.0416588 131.875,36.750015 131.875,33.75 C131.875,30.749985 132.412032,28.4861188 133.486111,26.9583333 C134.560191,25.4305479 136.023139,24.6666667 137.875,24.6666667 C139.726861,24.6666667 141.189809,25.4351775 142.263889,26.9722222 C143.337968,28.5092669 143.875,30.7685036 143.875,33.75 C143.875,36.750015 143.337968,39.0416588 142.263889,40.625 C141.189809,42.2083413 139.726861,43 137.875,43 Z M137.875,40.5 C138.300928,40.5 138.694443,40.3842604 139.055556,40.1527778 C139.416668,39.9212951 139.726851,39.5370397 139.986111,39 C140.245372,38.4629603 140.449073,37.7685228 140.597222,36.9166667 C140.745371,36.0648106 140.819444,35.0092656 140.819444,33.75 C140.819444,32.5092531 140.745371,31.4675968 140.597222,30.625 C140.449073,29.7824032 140.245372,29.1018544 139.986111,28.5833333 C139.726851,28.0648122 139.416668,27.6990751 139.055556,27.4861111 C138.694443,27.2731471 138.300928,27.1666667 137.875,27.1666667 C137.449072,27.1666667 137.055557,27.2731471 136.694444,27.4861111 C136.333332,27.6990751 136.023149,28.0648122 135.763889,28.5833333 C135.504628,29.1018544 135.300927,29.7824032 135.152778,30.625 C135.004629,31.4675968 134.930556,32.5092531 134.930556,33.75 C134.930556,35.0092656 135.004629,36.0648106 135.152778,36.9166667 C135.300927,37.7685228 135.504628,38.4629603 135.763889,39 C136.023149,39.5370397 136.333332,39.9212951 136.694444,40.1527778 C137.055557,40.3842604 137.449072,40.5 137.875,40.5 Z M159.208333,43 C158.578701,43 157.944448,42.8472238 157.305556,42.5416667 C156.666663,42.2361096 156.060188,41.7962992 155.486111,41.2222222 L155.402778,41.2222222 L155.125,42.6666667 L152.597222,42.6666667 L152.597222,23.0555556 L155.791667,23.0555556 L155.791667,28.1111111 L155.708333,30.3888889 C156.28241,29.8888864 156.907404,29.4814831 157.583333,29.1666667 C158.259263,28.8518503 158.949071,28.6944444 159.652778,28.6944444 C160.504634,28.6944444 161.263886,28.8564799 161.930556,29.1805556 C162.597222,29.5046313 163.162035,29.9675896 163.625,30.5694444 C164.087965,31.1712993 164.439814,31.8981439 164.680556,32.75 C164.921298,33.6018561 165.041667,34.5555556 165.041667,35.6111111 C165.041667,36.7777836 164.879631,37.8194399 164.555556,38.7361111 C164.23148,39.6527824 163.800929,40.4259228 163.263889,41.0555556 C162.726849,41.6851883 162.106485,42.166665 161.402778,42.5 C160.699071,42.833335 159.967596,43 159.208333,43 Z M158.541667,40.3611111 C159.449079,40.3611111 160.20833,39.9675965 160.819444,39.1805556 C161.430559,38.3935146 161.736111,37.22223 161.736111,35.6666667 C161.736111,34.2962894 161.504632,33.2314853 161.041667,32.4722222 C160.578701,31.7129592 159.828709,31.3333333 158.791667,31.3333333 C157.828699,31.3333333 156.828709,31.8425875 155.791667,32.8611111 L155.791667,39.2222222 C156.273151,39.6481503 156.749998,39.9444436 157.222222,40.1111111 C157.694447,40.2777786 158.134257,40.3611111 158.541667,40.3611111 Z M168.236111,42.6666667 L168.236111,29.0277778 L171.430556,29.0277778 L171.430556,42.6666667 L168.236111,42.6666667 Z M169.847222,26.6388889 C169.273145,26.6388889 168.800928,26.4722239 168.430556,26.1388889 C168.060183,25.8055539 167.875,25.3703731 167.875,24.8333333 C167.875,24.2962936 168.060183,23.8564832 168.430556,23.5138889 C168.800928,23.1712946 169.273145,23 169.847222,23 C170.421299,23 170.893517,23.1712946 171.263889,23.5138889 C171.634261,23.8564832 171.819444,24.2962936 171.819444,24.8333333 C171.819444,25.3703731 171.634261,25.8055539 171.263889,26.1388889 C170.893517,26.4722239 170.421299,26.6388889 169.847222,26.6388889 Z M178.625,43 C177.476846,43 176.671299,42.6574108 176.208333,41.9722222 C175.745368,41.2870336 175.513889,40.3518578 175.513889,39.1666667 L175.513889,23.0555556 L178.708333,23.0555556 L178.708333,39.3333333 C178.708333,39.7222242 178.782407,39.9953696 178.930556,40.1527778 C179.078704,40.310186 179.23611,40.3888889 179.402778,40.3888889 L179.611111,40.3888889 C179.675926,40.3888889 179.773148,40.3703706 179.902778,40.3333333 L180.319444,42.7222222 C179.893516,42.9074083 179.328707,43 178.625,43 Z M186.152778,43 C185.004624,43 184.199076,42.6574108 183.736111,41.9722222 C183.273146,41.2870336 183.041667,40.3518578 183.041667,39.1666667 L183.041667,23.0555556 L186.236111,23.0555556 L186.236111,39.3333333 C186.236111,39.7222242 186.310184,39.9953696 186.458333,40.1527778 C186.606482,40.310186 186.763888,40.3888889 186.930556,40.3888889 L187.138889,40.3888889 C187.203704,40.3888889 187.300925,40.3703706 187.430556,40.3333333 L187.847222,42.7222222 C187.421294,42.9074083 186.856485,43 186.152778,43 Z M190.569444,42.6666667 L190.569444,29.0277778 L193.763889,29.0277778 L193.763889,42.6666667 L190.569444,42.6666667 Z M192.180556,26.6388889 C191.606479,26.6388889 191.134261,26.4722239 190.763889,26.1388889 C190.393517,25.8055539 190.208333,25.3703731 190.208333,24.8333333 C190.208333,24.2962936 190.393517,23.8564832 190.763889,23.5138889 C191.134261,23.1712946 191.606479,23 192.180556,23 C192.754633,23 193.22685,23.1712946 193.597222,23.5138889 C193.967594,23.8564832 194.152778,24.2962936 194.152778,24.8333333 C194.152778,25.3703731 193.967594,25.8055539 193.597222,26.1388889 C193.22685,26.4722239 192.754633,26.6388889 192.180556,26.6388889 Z M203.430556,43 C202.578699,43 201.763893,42.8425942 200.986111,42.5277778 C200.208329,42.2129614 199.518522,41.7500031 198.916667,41.1388889 C198.314812,40.5277747 197.837965,39.7777822 197.486111,38.8888889 C197.134258,37.9999956 196.958333,36.9907464 196.958333,35.8611111 C196.958333,34.7314758 197.134258,33.7222267 197.486111,32.8333333 C197.837965,31.94444 198.314812,31.1944444 198.916667,30.5833333 C199.518522,29.9722192 200.208329,29.5046313 200.986111,29.1805556 C201.763893,28.8564799 202.578699,28.6944444 203.430556,28.6944444 C204.282412,28.6944444 205.101848,28.8564799 205.888889,29.1805556 C206.67593,29.5046313 207.365738,29.9722192 207.958333,30.5833333 C208.550929,31.1944444 209.027776,31.94444 209.388889,32.8333333 C209.750002,33.7222267 209.930556,34.7314758 209.930556,35.8611111 C209.930556,36.9907464 209.750002,37.9999956 209.388889,38.8888889 C209.027776,39.7777822 208.550929,40.5277747 207.958333,41.1388889 C207.365738,41.7500031 206.67593,42.2129614 205.888889,42.5277778 C205.101848,42.8425942 204.282412,43 203.430556,43 Z M203.430556,40.3888889 C204.430561,40.3888889 205.21759,39.976856 205.791667,39.1527778 C206.365744,38.3286996 206.652778,37.2314883 206.652778,35.8611111 C206.652778,34.4722153 206.365744,33.3657449 205.791667,32.5416667 C205.21759,31.7175885 204.430561,31.3055556 203.430556,31.3055556 C202.430551,31.3055556 201.648151,31.7175885 201.083333,32.5416667 C200.518516,33.3657449 200.236111,34.4722153 200.236111,35.8611111 C200.236111,37.2314883 200.518516,38.3286996 201.083333,39.1527778 C201.648151,39.976856 202.430551,40.3888889 203.430556,40.3888889 Z M213.097222,42.6666667 L213.097222,29.0277778 L215.736111,29.0277778 L215.958333,30.8611111 L216.069444,30.8611111 C216.680559,30.2685156 217.342589,29.7592614 218.055556,29.3333333 C218.768522,28.9074053 219.597222,28.6944444 220.541667,28.6944444 C222.004637,28.6944444 223.069441,29.1620324 223.736111,30.0972222 C224.402781,31.0324121 224.736111,32.3703617 224.736111,34.1111111 L224.736111,42.6666667 L221.541667,42.6666667 L221.541667,34.5277778 C221.541667,33.3981425 221.375002,32.6018542 221.041667,32.1388889 C220.708332,31.6759236 220.162041,31.4444444 219.402778,31.4444444 C218.810182,31.4444444 218.287039,31.5879615 217.833333,31.875 C217.379627,32.1620385 216.865744,32.5833306 216.291667,33.1388889 L216.291667,42.6666667 L213.097222,42.6666667 Z" id="$40billion" fill="#B3532D"></path>
        </g>
    </g>
</svg>