<?xml version="1.0" encoding="UTF-8"?>
<svg width="250px" height="100px" viewBox="0 0 250 100" version="1.1" xmlns="http://www.w3.org/2000/svg" xmlns:xlink="http://www.w3.org/1999/xlink">
    <!-- Generator: Sketch 53.2 (72643) - https://sketchapp.com -->
    <title>deficit-1-outline</title>
    <desc>Created with Sketch.</desc>
    <g id="deficit-1-outline" stroke="none" stroke-width="1" fill="none" fill-rule="evenodd">
        <g id="Group-19" transform="translate(0.000000, 16.000000)" fill-rule="nonzero">
            <path d="M78.4110725,1.11111111 L7.14448302,1.11111111 C3.19347994,1.11111111 0,4.31051587 0,8.25396825 L0,60.6349206 C0,64.578373 3.19347994,67.7777778 7.14448302,67.7777778 L78.4110725,67.7777778 C82.3620756,67.7777778 85.5555556,64.578373 85.5555556,60.6349206 L85.5555556,8.25396825 C85.5555556,4.31051587 82.3620756,1.11111111 78.4110725,1.11111111 Z M8.03568673,8.25396825 L77.5198688,8.25396825 C78.0100309,8.25396825 78.4110725,8.65575397 78.4110725,9.1468254 L78.4110725,15.3968254 L7.14448302,15.3968254 L7.14448302,9.1468254 C7.14448302,8.65575397 7.54552469,8.25396825 8.03568673,8.25396825 Z M77.5198688,60.6349206 L8.03568673,60.6349206 C7.54552469,60.6349206 7.14448302,60.2331349 7.14448302,59.7420635 L7.14448302,34.4444444 L78.4110725,34.4444444 L78.4110725,59.7420635 C78.4110725,60.2331349 78.0100309,60.6349206 77.5198688,60.6349206 Z M28.5185185,45.7539683 L28.5185185,51.7063492 C28.5185185,52.6884921 27.7164352,53.4920635 26.7361111,53.4920635 L16.0416667,53.4920635 C15.0613426,53.4920635 14.2592593,52.6884921 14.2592593,51.7063492 L14.2592593,45.7539683 C14.2592593,44.7718254 15.0613426,43.968254 16.0416667,43.968254 L26.7361111,43.968254 C27.7164352,43.968254 28.5185185,44.7718254 28.5185185,45.7539683 Z M57.037037,45.7539683 L57.037037,51.7063492 C57.037037,52.6884921 56.2349537,53.4920635 55.2546296,53.4920635 L35.0540123,53.4920635 C34.0736883,53.4920635 33.2716049,52.6884921 33.2716049,51.7063492 L33.2716049,45.7539683 C33.2716049,44.7718254 34.0736883,43.968254 35.0540123,43.968254 L55.2546296,43.968254 C56.2349537,43.968254 57.037037,44.7718254 57.037037,45.7539683 Z" id="Shape" fill="#B3532D"></path>
            <path d="M103.328889,13 L103.328889,4.28 L104.875556,4.28 L104.875556,13 L103.328889,13 Z M106.955556,13 L106.955556,6.45333333 L108.222222,6.45333333 L108.328889,7.33333333 L108.382222,7.33333333 C108.968889,6.76 109.635556,6.29333333 110.528889,6.29333333 C111.928889,6.29333333 112.542222,7.24 112.542222,8.89333333 L112.542222,13 L111.008889,13 L111.008889,9.09333333 C111.008889,8.01333333 110.702222,7.61333333 109.982222,7.61333333 C109.408889,7.61333333 109.035556,7.89333333 108.488889,8.42666667 L108.488889,13 L106.955556,13 Z M116.622222,13 L116.622222,12.1066667 C118.982222,9.82666667 120.462222,8.33333333 120.462222,7.04 C120.462222,6.14666667 119.968889,5.57333333 119.062222,5.57333333 C118.408889,5.57333333 117.862222,6.01333333 117.408889,6.52 L116.555556,5.66666667 C117.328889,4.84 118.102222,4.36 119.262222,4.36 C120.888889,4.36 121.942222,5.38666667 121.942222,6.96 C121.942222,8.46666667 120.542222,10.0133333 118.862222,11.7866667 C119.302222,11.7466667 119.862222,11.6933333 120.275556,11.6933333 L122.355556,11.6933333 L122.355556,13 L116.622222,13 Z M126.368889,13.16 C124.608889,13.16 123.488889,11.5866667 123.488889,8.72 C123.488889,5.85333333 124.608889,4.36 126.368889,4.36 C128.128889,4.36 129.248889,5.86666667 129.248889,8.72 C129.248889,11.5866667 128.128889,13.16 126.368889,13.16 Z M126.368889,11.96 C127.195556,11.96 127.782222,11.12 127.782222,8.72 C127.782222,6.32 127.195556,5.56 126.368889,5.56 C125.555556,5.56 124.955556,6.32 124.955556,8.72 C124.955556,11.12 125.555556,11.96 126.368889,11.96 Z M130.782222,13 L130.782222,11.7466667 L132.675556,11.7466667 L132.675556,6.17333333 L131.115556,6.17333333 L131.115556,5.21333333 C131.955556,5.05333333 132.542222,4.84 133.075556,4.52 L134.222222,4.52 L134.222222,11.7466667 L135.888889,11.7466667 L135.888889,13 L130.782222,13 Z M140.062222,13.16 C138.408889,13.16 137.182222,12.2 137.182222,10.8266667 C137.182222,9.77333333 137.915556,9.08 138.715556,8.65333333 L138.715556,8.6 C138.062222,8.13333333 137.542222,7.50666667 137.542222,6.61333333 C137.542222,5.24 138.635556,4.36 140.102222,4.36 C141.622222,4.36 142.595556,5.28 142.595556,6.65333333 C142.595556,7.49333333 142.008889,8.2 141.462222,8.6 L141.462222,8.65333333 C142.248889,9.09333333 142.928889,9.72 142.928889,10.8533333 C142.928889,12.16 141.782222,13.16 140.062222,13.16 Z M140.622222,8.21333333 C141.075556,7.76 141.328889,7.28 141.328889,6.74666667 C141.328889,6 140.862222,5.45333333 140.075556,5.45333333 C139.422222,5.45333333 138.915556,5.88 138.915556,6.61333333 C138.915556,7.46666667 139.675556,7.84 140.622222,8.21333333 Z M140.088889,12.0666667 C140.902222,12.0666667 141.488889,11.5866667 141.488889,10.8 C141.488889,9.88 140.595556,9.54666667 139.448889,9.08 C138.915556,9.46666667 138.528889,10.0133333 138.528889,10.6666667 C138.528889,11.5066667 139.222222,12.0666667 140.088889,12.0666667 Z M144.435556,15.4266667 L144.102222,14.5866667 C144.968889,14.2533333 145.462222,13.64 145.448889,12.9733333 L145.328889,12.9733333 C144.808889,12.9733333 144.342222,12.6266667 144.342222,12.0266667 C144.342222,11.4533333 144.808889,11.08 145.368889,11.08 C146.088889,11.08 146.515556,11.6666667 146.515556,12.6533333 C146.515556,13.96 145.755556,14.9733333 144.435556,15.4266667 Z M152.702222,8.36 L152.395556,9.42666667 L154.622222,9.42666667 L154.315556,8.36 C154.035556,7.44 153.782222,6.44 153.528889,5.48 L153.475556,5.48 C153.235556,6.45333333 152.982222,7.44 152.702222,8.36 Z M149.782222,13 L152.622222,4.28 L154.435556,4.28 L157.275556,13 L155.648889,13 L154.968889,10.64 L152.035556,10.64 L151.355556,13 L149.782222,13 Z M158.222222,13 L158.222222,6.45333333 L159.488889,6.45333333 L159.595556,7.34666667 L159.648889,7.34666667 C160.195556,6.76 160.835556,6.29333333 161.648889,6.29333333 C162.608889,6.29333333 163.155556,6.73333333 163.462222,7.46666667 C164.088889,6.8 164.742222,6.29333333 165.568889,6.29333333 C166.955556,6.29333333 167.595556,7.24 167.595556,8.89333333 L167.595556,13 L166.048889,13 L166.048889,9.09333333 C166.048889,8.01333333 165.728889,7.61333333 165.048889,7.61333333 C164.635556,7.61333333 164.182222,7.88 163.675556,8.42666667 L163.675556,13 L162.142222,13 L162.142222,9.09333333 C162.142222,8.01333333 161.822222,7.61333333 161.128889,7.61333333 C160.728889,7.61333333 160.262222,7.88 159.755556,8.42666667 L159.755556,13 L158.222222,13 Z M172.262222,13.16 C170.448889,13.16 169.035556,11.8933333 169.035556,9.73333333 C169.035556,7.6 170.515556,6.29333333 172.048889,6.29333333 C173.822222,6.29333333 174.755556,7.57333333 174.755556,9.4 C174.755556,9.69333333 174.728889,9.98666667 174.688889,10.1466667 L170.528889,10.1466667 C170.662222,11.3066667 171.408889,11.9733333 172.462222,11.9733333 C173.022222,11.9733333 173.502222,11.8 173.982222,11.4933333 L174.502222,12.4533333 C173.875556,12.8666667 173.088889,13.16 172.262222,13.16 Z M170.515556,9.10666667 L173.422222,9.10666667 C173.422222,8.09333333 172.982222,7.48 172.088889,7.48 C171.315556,7.48 170.648889,8.05333333 170.515556,9.10666667 Z M176.222222,13 L176.222222,6.45333333 L177.488889,6.45333333 L177.595556,7.61333333 L177.648889,7.61333333 C178.115556,6.76 178.808889,6.29333333 179.502222,6.29333333 C179.835556,6.29333333 180.048889,6.33333333 180.248889,6.42666667 L179.982222,7.76 C179.755556,7.69333333 179.582222,7.65333333 179.302222,7.65333333 C178.782222,7.65333333 178.155556,8.01333333 177.755556,9 L177.755556,13 L176.222222,13 Z M181.195556,13 L181.195556,6.45333333 L182.728889,6.45333333 L182.728889,13 L181.195556,13 Z M181.968889,5.30666667 C181.422222,5.30666667 181.022222,4.94666667 181.022222,4.44 C181.022222,3.92 181.422222,3.56 181.968889,3.56 C182.515556,3.56 182.915556,3.92 182.915556,4.44 C182.915556,4.94666667 182.515556,5.30666667 181.968889,5.30666667 Z M187.422222,13.16 C185.635556,13.16 184.262222,11.9066667 184.262222,9.73333333 C184.262222,7.54666667 185.795556,6.29333333 187.542222,6.29333333 C188.382222,6.29333333 188.982222,6.61333333 189.462222,7.02666667 L188.715556,8.02666667 C188.368889,7.72 188.035556,7.54666667 187.622222,7.54666667 C186.568889,7.54666667 185.835556,8.41333333 185.835556,9.73333333 C185.835556,11.04 186.555556,11.9066667 187.582222,11.9066667 C188.088889,11.9066667 188.555556,11.6533333 188.928889,11.3466667 L189.555556,12.36 C188.942222,12.8933333 188.168889,13.16 187.422222,13.16 Z M192.302222,13.16 C191.155556,13.16 190.368889,12.3866667 190.368889,11.24 C190.368889,9.84 191.528889,9.10666667 194.222222,8.81333333 C194.195556,8.12 193.915556,7.53333333 193.022222,7.53333333 C192.382222,7.53333333 191.768889,7.82666667 191.182222,8.17333333 L190.622222,7.14666667 C191.342222,6.69333333 192.275556,6.29333333 193.315556,6.29333333 C194.942222,6.29333333 195.755556,7.29333333 195.755556,9.12 L195.755556,13 L194.488889,13 L194.382222,12.28 L194.328889,12.28 C193.742222,12.7733333 193.075556,13.16 192.302222,13.16 Z M192.795556,11.96 C193.328889,11.96 193.728889,11.6933333 194.222222,11.24 L194.222222,9.77333333 C192.435556,10 191.848889,10.4666667 191.848889,11.12 C191.848889,11.7066667 192.248889,11.96 192.795556,11.96 Z M197.595556,13 L197.595556,6.45333333 L198.862222,6.45333333 L198.968889,7.33333333 L199.022222,7.33333333 C199.608889,6.76 200.275556,6.29333333 201.168889,6.29333333 C202.568889,6.29333333 203.182222,7.24 203.182222,8.89333333 L203.182222,13 L201.648889,13 L201.648889,9.09333333 C201.648889,8.01333333 201.342222,7.61333333 200.622222,7.61333333 C200.048889,7.61333333 199.675556,7.89333333 199.128889,8.42666667 L199.128889,13 L197.595556,13 Z M206.888889,13.16 C205.995556,13.16 205.048889,12.7733333 204.408889,12.2533333 L205.128889,11.2666667 C205.715556,11.72 206.275556,12 206.942222,12 C207.648889,12 207.982222,11.6666667 207.982222,11.2133333 C207.982222,10.6666667 207.275556,10.4266667 206.582222,10.16 C205.715556,9.84 204.742222,9.34666667 204.742222,8.25333333 C204.742222,7.10666667 205.662222,6.29333333 207.128889,6.29333333 C208.035556,6.29333333 208.768889,6.66666667 209.302222,7.08 L208.595556,8.01333333 C208.142222,7.68 207.675556,7.45333333 207.155556,7.45333333 C206.502222,7.45333333 206.195556,7.76 206.195556,8.17333333 C206.195556,8.69333333 206.848889,8.89333333 207.555556,9.14666667 C208.448889,9.48 209.435556,9.90666667 209.435556,11.1333333 C209.435556,12.2533333 208.542222,13.16 206.888889,13.16 Z M215.395556,8.36 L215.088889,9.42666667 L217.315556,9.42666667 L217.008889,8.36 C216.728889,7.44 216.475556,6.44 216.222222,5.48 L216.168889,5.48 C215.928889,6.45333333 215.675556,7.44 215.395556,8.36 Z M212.475556,13 L215.315556,4.28 L217.128889,4.28 L219.968889,13 L218.342222,13 L217.662222,10.64 L214.728889,10.64 L214.048889,13 L212.475556,13 Z M223.208889,13.16 C221.568889,13.16 220.515556,11.8933333 220.515556,9.73333333 C220.515556,7.6 221.862222,6.29333333 223.288889,6.29333333 C224.035556,6.29333333 224.502222,6.57333333 225.008889,7.01333333 L224.955556,5.96 L224.955556,3.58666667 L226.488889,3.58666667 L226.488889,13 L225.222222,13 L225.115556,12.2933333 L225.062222,12.2933333 C224.582222,12.7733333 223.915556,13.16 223.208889,13.16 Z M223.582222,11.8933333 C224.088889,11.8933333 224.515556,11.6666667 224.955556,11.16 L224.955556,8.10666667 C224.502222,7.70666667 224.062222,7.56 223.622222,7.56 C222.782222,7.56 222.102222,8.34666667 222.102222,9.72 C222.102222,11.1333333 222.635556,11.8933333 223.582222,11.8933333 Z M230.728889,13.16 C229.088889,13.16 228.035556,11.8933333 228.035556,9.73333333 C228.035556,7.6 229.382222,6.29333333 230.808889,6.29333333 C231.555556,6.29333333 232.022222,6.57333333 232.528889,7.01333333 L232.475556,5.96 L232.475556,3.58666667 L234.008889,3.58666667 L234.008889,13 L232.742222,13 L232.635556,12.2933333 L232.582222,12.2933333 C232.102222,12.7733333 231.435556,13.16 230.728889,13.16 Z M231.102222,11.8933333 C231.608889,11.8933333 232.035556,11.6666667 232.475556,11.16 L232.475556,8.10666667 C232.022222,7.70666667 231.582222,7.56 231.142222,7.56 C230.302222,7.56 229.622222,8.34666667 229.622222,9.72 C229.622222,11.1333333 230.155556,11.8933333 231.102222,11.8933333 Z M238.755556,13.16 C236.942222,13.16 235.528889,11.8933333 235.528889,9.73333333 C235.528889,7.6 237.008889,6.29333333 238.542222,6.29333333 C240.315556,6.29333333 241.248889,7.57333333 241.248889,9.4 C241.248889,9.69333333 241.222222,9.98666667 241.182222,10.1466667 L237.022222,10.1466667 C237.155556,11.3066667 237.902222,11.9733333 238.955556,11.9733333 C239.515556,11.9733333 239.995556,11.8 240.475556,11.4933333 L240.995556,12.4533333 C240.368889,12.8666667 239.582222,13.16 238.755556,13.16 Z M237.008889,9.10666667 L239.915556,9.10666667 C239.915556,8.09333333 239.475556,7.48 238.582222,7.48 C237.808889,7.48 237.142222,8.05333333 237.008889,9.10666667 Z M245.008889,13.16 C243.368889,13.16 242.315556,11.8933333 242.315556,9.73333333 C242.315556,7.6 243.662222,6.29333333 245.088889,6.29333333 C245.835556,6.29333333 246.302222,6.57333333 246.808889,7.01333333 L246.755556,5.96 L246.755556,3.58666667 L248.288889,3.58666667 L248.288889,13 L247.022222,13 L246.915556,12.2933333 L246.862222,12.2933333 C246.382222,12.7733333 245.715556,13.16 245.008889,13.16 Z M245.382222,11.8933333 C245.888889,11.8933333 246.315556,11.6666667 246.755556,11.16 L246.755556,8.10666667 C246.302222,7.70666667 245.862222,7.56 245.422222,7.56 C244.582222,7.56 243.902222,8.34666667 243.902222,9.72 C243.902222,11.1333333 244.435556,11.8933333 245.382222,11.8933333 Z" id="In2018,AmericansAdded" fill="#555555"></path>
            <path d="M103.195556,65.2222222 L103.195556,58.6755556 L104.728889,58.6755556 L104.728889,65.2222222 L103.195556,65.2222222 Z M103.968889,57.5288889 C103.422222,57.5288889 103.022222,57.1688889 103.022222,56.6622222 C103.022222,56.1422222 103.422222,55.7822222 103.968889,55.7822222 C104.515556,55.7822222 104.915556,56.1422222 104.915556,56.6622222 C104.915556,57.1688889 104.515556,57.5288889 103.968889,57.5288889 Z M106.688889,65.2222222 L106.688889,58.6755556 L107.955556,58.6755556 L108.062222,59.5555556 L108.115556,59.5555556 C108.702222,58.9822222 109.368889,58.5155556 110.262222,58.5155556 C111.662222,58.5155556 112.275556,59.4622222 112.275556,61.1155556 L112.275556,65.2222222 L110.742222,65.2222222 L110.742222,61.3155556 C110.742222,60.2355556 110.435556,59.8355556 109.715556,59.8355556 C109.142222,59.8355556 108.768889,60.1155556 108.222222,60.6488889 L108.222222,65.2222222 L106.688889,65.2222222 Z M120.435556,65.3822222 C118.235556,65.3822222 116.502222,63.7822222 116.502222,60.8888889 C116.502222,58.0355556 118.288889,56.3422222 120.488889,56.3422222 C121.582222,56.3422222 122.462222,56.8622222 123.008889,57.4488889 L122.182222,58.4488889 C121.728889,57.9955556 121.208889,57.6888889 120.528889,57.6888889 C119.102222,57.6888889 118.088889,58.8888889 118.088889,60.8488889 C118.088889,62.8355556 119.022222,64.0355556 120.488889,64.0355556 C121.262222,64.0355556 121.862222,63.6755556 122.355556,63.1422222 L123.182222,64.1155556 C122.475556,64.9288889 121.555556,65.3822222 120.435556,65.3822222 Z M124.502222,65.2222222 L124.502222,58.6755556 L125.768889,58.6755556 L125.875556,59.8355556 L125.928889,59.8355556 C126.395556,58.9822222 127.088889,58.5155556 127.782222,58.5155556 C128.115556,58.5155556 128.328889,58.5555556 128.528889,58.6488889 L128.262222,59.9822222 C128.035556,59.9155556 127.862222,59.8755556 127.582222,59.8755556 C127.062222,59.8755556 126.435556,60.2355556 126.035556,61.2222222 L126.035556,65.2222222 L124.502222,65.2222222 Z M132.142222,65.3822222 C130.328889,65.3822222 128.915556,64.1155556 128.915556,61.9555556 C128.915556,59.8222222 130.395556,58.5155556 131.928889,58.5155556 C133.702222,58.5155556 134.635556,59.7955556 134.635556,61.6222222 C134.635556,61.9155556 134.608889,62.2088889 134.568889,62.3688889 L130.408889,62.3688889 C130.542222,63.5288889 131.288889,64.1955556 132.342222,64.1955556 C132.902222,64.1955556 133.382222,64.0222222 133.862222,63.7155556 L134.382222,64.6755556 C133.755556,65.0888889 132.968889,65.3822222 132.142222,65.3822222 Z M130.395556,61.3288889 L133.302222,61.3288889 C133.302222,60.3155556 132.862222,59.7022222 131.968889,59.7022222 C131.195556,59.7022222 130.528889,60.2755556 130.395556,61.3288889 Z M138.395556,65.3822222 C136.755556,65.3822222 135.702222,64.1155556 135.702222,61.9555556 C135.702222,59.8222222 137.048889,58.5155556 138.475556,58.5155556 C139.222222,58.5155556 139.688889,58.7955556 140.195556,59.2355556 L140.142222,58.1822222 L140.142222,55.8088889 L141.675556,55.8088889 L141.675556,65.2222222 L140.408889,65.2222222 L140.302222,64.5155556 L140.248889,64.5155556 C139.768889,64.9955556 139.102222,65.3822222 138.395556,65.3822222 Z M138.768889,64.1155556 C139.275556,64.1155556 139.702222,63.8888889 140.142222,63.3822222 L140.142222,60.3288889 C139.688889,59.9288889 139.248889,59.7822222 138.808889,59.7822222 C137.968889,59.7822222 137.288889,60.5688889 137.288889,61.9422222 C137.288889,63.3555556 137.822222,64.1155556 138.768889,64.1155556 Z M143.622222,65.2222222 L143.622222,58.6755556 L145.155556,58.6755556 L145.155556,65.2222222 L143.622222,65.2222222 Z M144.395556,57.5288889 C143.848889,57.5288889 143.448889,57.1688889 143.448889,56.6622222 C143.448889,56.1422222 143.848889,55.7822222 144.395556,55.7822222 C144.942222,55.7822222 145.342222,56.1422222 145.342222,56.6622222 C145.342222,57.1688889 144.942222,57.5288889 144.395556,57.5288889 Z M149.422222,65.3822222 C147.902222,65.3822222 147.342222,64.4222222 147.342222,63.0088889 L147.342222,59.8888889 L146.408889,59.8888889 L146.408889,58.7422222 L147.422222,58.6755556 L147.608889,56.8888889 L148.888889,56.8888889 L148.888889,58.6755556 L150.555556,58.6755556 L150.555556,59.8888889 L148.888889,59.8888889 L148.888889,63.0088889 C148.888889,63.7822222 149.182222,64.1555556 149.808889,64.1555556 C150.035556,64.1555556 150.302222,64.0888889 150.488889,64.0088889 L150.755556,65.1422222 C150.395556,65.2622222 149.942222,65.3822222 149.422222,65.3822222 Z M158.208889,65.3822222 C156.008889,65.3822222 154.275556,63.7822222 154.275556,60.8888889 C154.275556,58.0355556 156.062222,56.3422222 158.262222,56.3422222 C159.355556,56.3422222 160.235556,56.8622222 160.782222,57.4488889 L159.955556,58.4488889 C159.502222,57.9955556 158.982222,57.6888889 158.302222,57.6888889 C156.875556,57.6888889 155.862222,58.8888889 155.862222,60.8488889 C155.862222,62.8355556 156.795556,64.0355556 158.262222,64.0355556 C159.035556,64.0355556 159.635556,63.6755556 160.128889,63.1422222 L160.955556,64.1155556 C160.248889,64.9288889 159.328889,65.3822222 158.208889,65.3822222 Z M163.862222,65.3822222 C162.715556,65.3822222 161.928889,64.6088889 161.928889,63.4622222 C161.928889,62.0622222 163.088889,61.3288889 165.782222,61.0355556 C165.755556,60.3422222 165.475556,59.7555556 164.582222,59.7555556 C163.942222,59.7555556 163.328889,60.0488889 162.742222,60.3955556 L162.182222,59.3688889 C162.902222,58.9155556 163.835556,58.5155556 164.875556,58.5155556 C166.502222,58.5155556 167.315556,59.5155556 167.315556,61.3422222 L167.315556,65.2222222 L166.048889,65.2222222 L165.942222,64.5022222 L165.888889,64.5022222 C165.302222,64.9955556 164.635556,65.3822222 163.862222,65.3822222 Z M164.355556,64.1822222 C164.888889,64.1822222 165.288889,63.9155556 165.782222,63.4622222 L165.782222,61.9955556 C163.995556,62.2222222 163.408889,62.6888889 163.408889,63.3422222 C163.408889,63.9288889 163.808889,64.1822222 164.355556,64.1822222 Z M169.155556,65.2222222 L169.155556,58.6755556 L170.422222,58.6755556 L170.528889,59.8355556 L170.582222,59.8355556 C171.048889,58.9822222 171.742222,58.5155556 172.435556,58.5155556 C172.768889,58.5155556 172.982222,58.5555556 173.182222,58.6488889 L172.915556,59.9822222 C172.688889,59.9155556 172.515556,59.8755556 172.235556,59.8755556 C171.715556,59.8755556 171.088889,60.2355556 170.688889,61.2222222 L170.688889,65.2222222 L169.155556,65.2222222 Z M176.288889,65.3822222 C174.648889,65.3822222 173.595556,64.1155556 173.595556,61.9555556 C173.595556,59.8222222 174.942222,58.5155556 176.368889,58.5155556 C177.115556,58.5155556 177.582222,58.7955556 178.088889,59.2355556 L178.035556,58.1822222 L178.035556,55.8088889 L179.568889,55.8088889 L179.568889,65.2222222 L178.302222,65.2222222 L178.195556,64.5155556 L178.142222,64.5155556 C177.662222,64.9955556 176.995556,65.3822222 176.288889,65.3822222 Z M176.662222,64.1155556 C177.168889,64.1155556 177.595556,63.8888889 178.035556,63.3822222 L178.035556,60.3288889 C177.582222,59.9288889 177.142222,59.7822222 176.702222,59.7822222 C175.862222,59.7822222 175.182222,60.5688889 175.182222,61.9422222 C175.182222,63.3555556 175.715556,64.1155556 176.662222,64.1155556 Z M184.315556,65.2222222 L184.315556,56.5022222 L186.648889,56.5022222 C189.315556,56.5022222 190.888889,57.9422222 190.888889,60.8222222 C190.888889,63.7155556 189.315556,65.2222222 186.728889,65.2222222 L184.315556,65.2222222 Z M185.862222,63.9688889 L186.542222,63.9688889 C188.302222,63.9688889 189.302222,62.9688889 189.302222,60.8222222 C189.302222,58.6888889 188.302222,57.7555556 186.542222,57.7555556 L185.862222,57.7555556 L185.862222,63.9688889 Z M195.315556,65.3822222 C193.502222,65.3822222 192.088889,64.1155556 192.088889,61.9555556 C192.088889,59.8222222 193.568889,58.5155556 195.102222,58.5155556 C196.875556,58.5155556 197.808889,59.7955556 197.808889,61.6222222 C197.808889,61.9155556 197.782222,62.2088889 197.742222,62.3688889 L193.582222,62.3688889 C193.715556,63.5288889 194.462222,64.1955556 195.515556,64.1955556 C196.075556,64.1955556 196.555556,64.0222222 197.035556,63.7155556 L197.555556,64.6755556 C196.928889,65.0888889 196.142222,65.3822222 195.315556,65.3822222 Z M193.568889,61.3288889 L196.475556,61.3288889 C196.475556,60.3155556 196.035556,59.7022222 195.142222,59.7022222 C194.368889,59.7022222 193.702222,60.2755556 193.568889,61.3288889 Z M202.448889,65.3822222 C201.848889,65.3822222 201.208889,65.0755556 200.662222,64.5288889 L200.622222,64.5288889 L200.488889,65.2222222 L199.275556,65.2222222 L199.275556,55.8088889 L200.808889,55.8088889 L200.808889,58.2355556 L200.768889,59.3288889 C201.315556,58.8488889 201.995556,58.5155556 202.662222,58.5155556 C204.302222,58.5155556 205.248889,59.8222222 205.248889,61.8355556 C205.248889,64.0888889 203.902222,65.3822222 202.448889,65.3822222 Z M202.128889,64.1155556 C202.995556,64.1155556 203.662222,63.3422222 203.662222,61.8622222 C203.662222,60.5555556 203.235556,59.7822222 202.248889,59.7822222 C201.768889,59.7822222 201.315556,60.0222222 200.808889,60.5155556 L200.808889,63.5688889 C201.275556,63.9688889 201.742222,64.1155556 202.128889,64.1155556 Z M208.795556,65.3822222 C207.275556,65.3822222 206.715556,64.4222222 206.715556,63.0088889 L206.715556,59.8888889 L205.782222,59.8888889 L205.782222,58.7422222 L206.795556,58.6755556 L206.982222,56.8888889 L208.262222,56.8888889 L208.262222,58.6755556 L209.928889,58.6755556 L209.928889,59.8888889 L208.262222,59.8888889 L208.262222,63.0088889 C208.262222,63.7822222 208.555556,64.1555556 209.182222,64.1555556 C209.408889,64.1555556 209.675556,64.0888889 209.862222,64.0088889 L210.128889,65.1422222 C209.768889,65.2622222 209.315556,65.3822222 208.795556,65.3822222 Z" id="inCreditCardDebt" fill="#555555"></path>
            <path d="M108.319444,46.7222222 L108.319444,43.9444444 C106.625,43.7777778 104.763889,43 103.513889,41.8333333 L104.958333,39.6666667 C106.263889,40.6944444 107.569444,41.3888889 109.069444,41.3888889 C110.875,41.3888889 111.763889,40.5 111.763889,39 C111.763889,35.3333333 104.208333,35.8611111 104.208333,30.6388889 C104.208333,28.0555556 105.819444,26.2222222 108.319444,25.7777778 L108.319444,22.9444444 L110.541667,22.9444444 L110.541667,25.7222222 C112.319444,25.9444444 113.541667,26.8055556 114.569444,27.8888889 L112.930556,29.75 C111.902778,28.8055556 111.041667,28.2777778 109.708333,28.2777778 C108.208333,28.2777778 107.291667,29.0555556 107.291667,30.5 C107.291667,33.8333333 114.847222,33.1666667 114.847222,38.7777778 C114.847222,41.4166667 113.291667,43.3611111 110.541667,43.8611111 L110.541667,46.7222222 L108.319444,46.7222222 Z M123.180556,44 C120.319444,44 118.430556,42.8888889 117.180556,41.5 L118.708333,39.4444444 C119.763889,40.5277778 121.125,41.3888889 122.902778,41.3888889 C124.819444,41.3888889 126.152778,40.3888889 126.152778,38.7222222 C126.152778,36.8888889 124.986111,35.7222222 120.958333,35.7222222 L120.958333,33.3888889 C124.430556,33.3888889 125.569444,32.1944444 125.569444,30.5555556 C125.569444,29.0833333 124.569444,28.1944444 122.958333,28.1944444 C121.569444,28.1944444 120.486111,28.8611111 119.402778,29.8611111 L117.763889,27.8888889 C119.263889,26.5555556 120.958333,25.6666667 123.069444,25.6666667 C126.458333,25.6666667 128.791667,27.3333333 128.791667,30.3333333 C128.791667,32.3055556 127.625,33.6388889 125.708333,34.3888889 L125.708333,34.5 C127.791667,35.0555556 129.375,36.5555556 129.375,38.8888889 C129.375,42.1111111 126.569444,44 123.180556,44 Z M138.402778,44 C134.930556,44 131.986111,41.3055556 131.986111,35.3611111 C131.986111,28.5 135.319444,25.6666667 138.930556,25.6666667 C141.069444,25.6666667 142.597222,26.5555556 143.652778,27.6666667 L141.930556,29.6111111 C141.291667,28.8333333 140.180556,28.2777778 139.125,28.2777778 C136.902778,28.2777778 135.097222,29.9166667 134.958333,34.8055556 C135.986111,33.5 137.513889,32.7222222 138.791667,32.7222222 C141.847222,32.7222222 143.958333,34.5 143.958333,38.1944444 C143.958333,41.7222222 141.430556,44 138.402778,44 Z M138.347222,41.5555556 C139.819444,41.5555556 140.986111,40.3611111 140.986111,38.1944444 C140.986111,36.1111111 139.958333,35.0555556 138.208333,35.0555556 C137.208333,35.0555556 136.041667,35.6111111 135.041667,37.0833333 C135.375,40.2222222 136.625,41.5555556 138.347222,41.5555556 Z M159.208333,44 C157.958333,44 156.625,43.3611111 155.486111,42.2222222 L155.402778,42.2222222 L155.125,43.6666667 L152.597222,43.6666667 L152.597222,24.0555556 L155.791667,24.0555556 L155.791667,29.1111111 L155.708333,31.3888889 C156.847222,30.3888889 158.263889,29.6944444 159.652778,29.6944444 C163.069444,29.6944444 165.041667,32.4166667 165.041667,36.6111111 C165.041667,41.3055556 162.236111,44 159.208333,44 Z M158.541667,41.3611111 C160.347222,41.3611111 161.736111,39.75 161.736111,36.6666667 C161.736111,33.9444444 160.847222,32.3333333 158.791667,32.3333333 C157.791667,32.3333333 156.847222,32.8333333 155.791667,33.8611111 L155.791667,40.2222222 C156.763889,41.0555556 157.736111,41.3611111 158.541667,41.3611111 Z M168.236111,43.6666667 L168.236111,30.0277778 L171.430556,30.0277778 L171.430556,43.6666667 L168.236111,43.6666667 Z M169.847222,27.6388889 C168.708333,27.6388889 167.875,26.8888889 167.875,25.8333333 C167.875,24.75 168.708333,24 169.847222,24 C170.986111,24 171.819444,24.75 171.819444,25.8333333 C171.819444,26.8888889 170.986111,27.6388889 169.847222,27.6388889 Z M178.625,44 C176.347222,44 175.513889,42.5277778 175.513889,40.1666667 L175.513889,24.0555556 L178.708333,24.0555556 L178.708333,40.3333333 C178.708333,41.1111111 179.069444,41.3888889 179.402778,41.3888889 C179.541667,41.3888889 179.652778,41.3888889 179.902778,41.3333333 L180.319444,43.7222222 C179.930556,43.8888889 179.375,44 178.625,44 Z M186.152778,44 C183.875,44 183.041667,42.5277778 183.041667,40.1666667 L183.041667,24.0555556 L186.236111,24.0555556 L186.236111,40.3333333 C186.236111,41.1111111 186.597222,41.3888889 186.930556,41.3888889 C187.069444,41.3888889 187.180556,41.3888889 187.430556,41.3333333 L187.847222,43.7222222 C187.458333,43.8888889 186.902778,44 186.152778,44 Z M190.569444,43.6666667 L190.569444,30.0277778 L193.763889,30.0277778 L193.763889,43.6666667 L190.569444,43.6666667 Z M192.180556,27.6388889 C191.041667,27.6388889 190.208333,26.8888889 190.208333,25.8333333 C190.208333,24.75 191.041667,24 192.180556,24 C193.319444,24 194.152778,24.75 194.152778,25.8333333 C194.152778,26.8888889 193.319444,27.6388889 192.180556,27.6388889 Z M203.430556,44 C200.041667,44 196.958333,41.3888889 196.958333,36.8611111 C196.958333,32.3055556 200.041667,29.6944444 203.430556,29.6944444 C206.847222,29.6944444 209.930556,32.3055556 209.930556,36.8611111 C209.930556,41.3888889 206.847222,44 203.430556,44 Z M203.430556,41.3888889 C205.430556,41.3888889 206.652778,39.5833333 206.652778,36.8611111 C206.652778,34.1111111 205.430556,32.3055556 203.430556,32.3055556 C201.430556,32.3055556 200.236111,34.1111111 200.236111,36.8611111 C200.236111,39.5833333 201.430556,41.3888889 203.430556,41.3888889 Z M213.097222,43.6666667 L213.097222,30.0277778 L215.736111,30.0277778 L215.958333,31.8611111 L216.069444,31.8611111 C217.291667,30.6666667 218.680556,29.6944444 220.541667,29.6944444 C223.458333,29.6944444 224.736111,31.6666667 224.736111,35.1111111 L224.736111,43.6666667 L221.541667,43.6666667 L221.541667,35.5277778 C221.541667,33.2777778 220.902778,32.4444444 219.402778,32.4444444 C218.208333,32.4444444 217.430556,33.0277778 216.291667,34.1388889 L216.291667,43.6666667 L213.097222,43.6666667 Z" id="$36billion" fill="#B3532D"></path>
        </g>
    </g>
</svg>