<?xml version="1.0" encoding="UTF-8"?>
<svg width="551px" height="531px" viewBox="0 0 551 531" version="1.1" xmlns="http://www.w3.org/2000/svg" xmlns:xlink="http://www.w3.org/1999/xlink">
    <!-- Generator: Sketch 59.1 (86144) - https://sketch.com -->
    <title>Group 727</title>
    <desc>Created with Sketch.</desc>
    <defs>
        <polygon id="path-1" points="0 579.75 563.26575 579.75 563.26575 0.1755 0 0.1755"></polygon>
    </defs>
    <g id="Desktop" stroke="none" stroke-width="1" fill="none" fill-rule="evenodd">
        <g id="Homelessness-Section-3-7" transform="translate(-254.000000, -1510.000000)">
            <g id="Group-72" transform="translate(253.000000, 1477.000000)">
                <g id="Group-7" transform="translate(9.750000, 32.824500)">
                    <path d="M33.798675,22.18065 C50.457675,8.32365 69.884925,1.2534 91.554675,1.1589 L91.554675,91.01115 L33.798675,22.18065 Z" id="Fill-1" fill="#D5E8AA"></path>
                    <path d="M91.993275,0.71925 C69.758775,0.71925 50.212275,7.833 33.179775,22.12575 L91.993275,92.217 L91.993275,0.71925 Z M91.115775,1.6005 L91.115775,89.80575 L34.418775,22.236 C50.809275,8.7255 69.874275,1.78575 91.115775,1.6005 L91.115775,1.6005 Z" id="Fill-3" fill="#FFFFFF"></path>
                    <path d="M91.993275,92.217075 L91.993275,0.719325 C142.526025,0.719325 183.491025,41.684325 183.491025,92.217075 C183.491025,142.749825 142.526025,183.714075 91.993275,183.714075 C41.460525,183.714075 0.495525,142.749825 0.495525,92.217075 C0.495525,63.918825 11.501775,40.315575 33.179775,22.125825 L91.993275,92.217075 Z" id="Fill-5" fill="#587C13"></path>
                </g>
                <g id="Group-33" transform="translate(0.000000, 0.574500)">
                    <path d="M243.206175,391.9263 L357.828675,472.18605 C355.660425,475.25655 352.803675,478.9788 350.396925,481.8708 L243.206175,391.9263 Z" id="Fill-8" fill="#D5E8AA"></path>
                    <path d="M235.703625,386.16945 L350.448375,482.4522 C353.000625,479.40945 356.125875,475.3377 358.403625,472.08495 L235.703625,386.16945 Z M250.708875,397.68345 L357.251625,472.2852 C355.202625,475.1682 352.598625,478.5612 350.344125,481.28745 L250.708875,397.68345 L250.708875,397.68345 Z" id="Fill-10" fill="#FFFFFF"></path>
                    <path d="M237.529875,386.94435 L382.256625,415.0761 C378.025125,436.5966 370.842375,453.51885 358.301625,471.50985 L237.529875,386.94435 Z" id="Fill-12" fill="#D5E8AA"></path>
                    <path d="M235.703625,386.16945 L358.403625,472.08495 C371.167875,453.85545 378.494625,436.59495 382.740375,414.7497 L235.703625,386.16945 Z M239.356125,387.7197 L381.771375,415.40295 C377.568375,436.53495 370.481625,453.23145 358.199625,470.9352 L239.356125,387.7197 L239.356125,387.7197 Z" id="Fill-14" fill="#FFFFFF"></path>
                    <path d="M237.4065,386.08005 L378.67275,342.8898 C385.9545,366.91005 387.14475,389.6163 382.41375,414.26655 L237.4065,386.08005 Z" id="Fill-16" fill="#D5E8AA"></path>
                    <path d="M378.9474,342.375 L235.7034,386.16975 L382.7409,414.75 C387.6024,389.73825 386.39715,366.741 378.9474,342.375 M378.39765,343.40625 C385.51365,367.08225 386.68815,389.4915 382.08615,413.7825 L239.10915,385.9905 L378.39765,343.40625" id="Fill-18" fill="#FFFFFF"></path>
                    <path d="M310.749,257.01195 C344.7165,276.7272 366.86175,304.56795 378.432,342.10095 L236.5845,385.4682 L310.749,257.01195 Z" id="Fill-20" fill="#D5E8AA"></path>
                    <path d="M310.598175,256.448025 L235.703925,386.169525 L378.947175,342.374775 C367.410675,304.639275 344.771925,276.179025 310.598175,256.448025 M310.898925,257.576775 C327.503925,267.271275 341.536425,279.245025 352.615425,293.173275 C363.695175,307.101525 372.204675,323.467275 377.915175,341.828025 L237.464925,384.767775 L310.898925,257.576775" id="Fill-22" fill="#FFFFFF"></path>
                    <path d="M168.255975,252.88695 C190.069725,241.83945 212.839725,236.23695 235.936725,236.23695 C261.571725,236.23695 286.500975,243.08895 310.034475,256.59945 L235.725975,385.30545 L168.255975,252.88695 Z" id="Fill-24" fill="#D5E8AA"></path>
                    <path d="M235.9365,235.82445 C212.916,235.82445 189.807,241.44195 167.70075,252.7062 L235.70325,386.16945 L310.59825,256.44795 C286.80675,242.71245 261.426,235.82445 235.9365,235.82445 M235.9365,235.82445 L235.9365,236.6502 C261.369,236.6502 286.1055,243.41295 309.47025,256.7517 L235.749,384.4407 L168.8115,253.06845 C190.45425,242.17395 213.0345,236.6502 235.9365,236.6502 L235.9365,235.82445" id="Fill-26" fill="#FFFFFF"></path>
                    <path d="M235.625625,535.54905 C200.618625,535.54905 166.546875,523.13655 139.686375,500.5983 C76.589625,447.6543 68.330625,353.2488 121.274625,290.15205 C135.061125,273.72105 148.483125,263.0103 167.520375,253.26105 L235.374375,386.4318 L349.867125,482.5023 C321.417375,516.22005 279.802125,535.54905 235.625625,535.54905" id="Fill-28" fill="#D5E8AA"></path>
                    <path d="M167.700825,252.70605 C148.314825,262.58355 134.943825,273.22005 120.958575,289.88655 C67.782825,353.25855 76.049325,447.73905 139.420575,500.91405 C167.486325,524.46405 201.647325,535.96155 235.626075,535.96155 C278.370825,535.96155 320.823075,517.75755 350.448825,482.45205 L235.703325,386.1693 L167.700825,252.70605 Z M167.340825,253.8168 L234.968325,386.54355 L235.044825,386.6928 L235.173075,386.80155 L349.284825,482.5518 C320.919825,515.98155 279.543075,535.13655 235.626075,535.13655 C218.485575,535.13655 201.649575,532.22805 185.583825,526.4928 C168.955575,520.5558 153.603075,511.7373 139.950825,500.28255 C124.545825,487.35555 112.133325,471.79905 103.058325,454.0443 C94.292325,436.8948 88.992825,418.4268 87.306075,399.15255 C85.620075,379.87755 87.632325,360.77055 93.286575,342.3588 C99.141075,323.2983 108.663825,305.82255 121.590825,290.4168 C135.249825,274.13805 148.550325,263.48955 167.340825,253.8168 L167.340825,253.8168 Z" id="Fill-30" fill="#FFFFFF"></path>
                    <mask id="mask-2" fill="white">
                        <use xlink:href="#path-1"></use>
                    </mask>
                    <g id="Clip-32"></g>
                </g>
                <text id="$3,941,406-" font-family="SourceSansPro-Semibold, Source Sans Pro" font-size="12" font-weight="500" letter-spacing="-0.00374999992" fill="#3F3F3F">
                    <tspan x="236.25" y="121.824363">$3,941,406 </tspan>
                </text>
                <text id="Basic-Center-Grant" font-family="SourceSansPro-Regular, Source Sans Pro" font-size="11.25" font-weight="normal" letter-spacing="-0.00374999992" fill="#3F3F3F">
                    <tspan x="236.25" y="135.267104">Basic Cen</tspan>
                    <tspan x="281.6325" y="135.267104" letter-spacing="-0.116250001">t</tspan>
                    <tspan x="285.20625" y="135.267104">er G</tspan>
                    <tspan x="303.88875" y="135.267104" letter-spacing="-0.284999996">r</tspan>
                    <tspan x="307.22625" y="135.267104">ant</tspan>
                </text>
                <text id="$1,677,894-" font-family="SourceSansPro-Semibold, Source Sans Pro" font-size="12" font-weight="500" letter-spacing="-0.00374999992" fill="#3F3F3F">
                    <tspan x="415.515375" y="386.846838">$1,677,894 </tspan>
                </text>
                <text id="Transitional-Housing-Assis-" font-family="SourceSansPro-Regular, Source Sans Pro" font-size="11.25" font-weight="normal" letter-spacing="-0.510000005" fill="#3F3F3F">
                    <tspan x="415.515375" y="400.289579">T</tspan>
                    <tspan x="420.517875" y="400.289579" letter-spacing="-0.273750007">r</tspan>
                    <tspan x="423.866625" y="400.289579" letter-spacing="0.00749999983">ansitional Housing Assis</tspan>
                    <tspan x="537.435375" y="400.289579">-</tspan>
                </text>
                <text id="tance-for-Victims-of-Domestic-" font-family="SourceSansPro-Regular, Source Sans Pro" font-size="11.25" font-weight="normal" letter-spacing="-0.194999993" fill="#3F3F3F">
                    <tspan x="415.515375" y="413.789579">t</tspan>
                    <tspan x="418.920375" y="413.789579" letter-spacing="0.00749999983">an</tspan>
                    <tspan x="430.849125" y="413.789579" letter-spacing="-0.228750005">c</tspan>
                    <tspan x="435.514125" y="413.789579" letter-spacing="0.00749999983">e </tspan>
                    <tspan x="443.381625" y="413.789579" letter-spacing="-0.105">f</tspan>
                    <tspan x="446.449125" y="413.789579" letter-spacing="0.00749999983">or </tspan>
                    <tspan x="458.745375" y="413.789579" letter-spacing="-0.0262500001">V</tspan>
                    <tspan x="464.479125" y="413.789579" letter-spacing="0.00749999983">ictims of Domestic </tspan>
                </text>
                <text id="Violence,-Dating-Violence,-" font-family="SourceSansPro-Regular, Source Sans Pro" font-size="11.25" font-weight="normal" letter-spacing="-0.0262500001" fill="#3F3F3F">
                    <tspan x="415.515375" y="427.289579">V</tspan>
                    <tspan x="421.249125" y="427.289579" letter-spacing="0.00749999983">iolen</tspan>
                    <tspan x="444.754125" y="427.289579" letter-spacing="-0.228750005">c</tspan>
                    <tspan x="449.419125" y="427.289579" letter-spacing="0.00749999983">e, Dating </tspan>
                    <tspan x="493.492875" y="427.289579">V</tspan>
                    <tspan x="499.226625" y="427.289579" letter-spacing="0.00749999983">iolen</tspan>
                    <tspan x="522.731625" y="427.289579" letter-spacing="-0.228750005">c</tspan>
                    <tspan x="527.396625" y="427.289579" letter-spacing="0.00749999983">e, </tspan>
                </text>
                <text id="Stalking,-or-Sexual-Assault" font-family="SourceSansPro-Regular, Source Sans Pro" font-size="11.25" font-weight="normal" letter-spacing="0.00749999983" fill="#3F3F3F">
                    <tspan x="415.515375" y="440.789579">S</tspan>
                    <tspan x="421.530375" y="440.789579" letter-spacing="-0.194999993">t</tspan>
                    <tspan x="424.935375" y="440.789579">alking, or S</tspan>
                    <tspan x="477.169125" y="440.789579" letter-spacing="-0.0712499991">e</tspan>
                    <tspan x="482.599125" y="440.789579">xual Assault</tspan>
                </text>
                <text id="$2,975,748-" font-family="SourceSansPro-Semibold, Source Sans Pro" font-size="12" font-weight="500" letter-spacing="-0.00374999992" fill="#3F3F3F">
                    <tspan x="344.26065" y="170.903988">$2,975,748 </tspan>
                </text>
                <text id="Homeless-Veterans’-" font-family="SourceSansPro-Regular, Source Sans Pro" font-size="11.25" font-weight="normal" letter-spacing="0.00749999983" fill="#3F3F3F">
                    <tspan x="344.26065" y="184.346729">Homeless </tspan>
                    <tspan x="392.81565" y="184.346729" letter-spacing="-0.161250003">V</tspan>
                    <tspan x="398.2794" y="184.346729" letter-spacing="-0.151124999">e</tspan>
                    <tspan x="403.550775" y="184.346729" letter-spacing="-0.103875004">t</tspan>
                    <tspan x="407.1369" y="184.346729">e</tspan>
                    <tspan x="412.7244" y="184.346729" letter-spacing="-0.273750007">r</tspan>
                    <tspan x="416.07315" y="184.346729">an</tspan>
                    <tspan x="428.0019" y="184.346729" letter-spacing="-0.117374998">s</tspan>
                    <tspan x="432.474525" y="184.346729">’ </tspan>
                </text>
                <text id="Reintegration-Program" font-family="SourceSansPro-Regular, Source Sans Pro" font-size="11.25" font-weight="normal" letter-spacing="-0.105" fill="#3F3F3F">
                    <tspan x="344.26065" y="197.846729">R</tspan>
                    <tspan x="350.5794" y="197.846729" letter-spacing="0.00749999983">ein</tspan>
                    <tspan x="365.10315" y="197.846729">te</tspan>
                    <tspan x="374.05065" y="197.846729" letter-spacing="0.00749999983">g</tspan>
                    <tspan x="379.72815" y="197.846729" letter-spacing="-0.273750007">r</tspan>
                    <tspan x="383.0769" y="197.846729" letter-spacing="0.00749999983">ation P</tspan>
                    <tspan x="416.46315" y="197.846729">r</tspan>
                    <tspan x="420.1494" y="197.846729" letter-spacing="0.00749999983">og</tspan>
                    <tspan x="431.9319" y="197.846729" letter-spacing="-0.274874993">r</tspan>
                    <tspan x="435.279525" y="197.846729" letter-spacing="0.00749999983">am</tspan>
                </text>
                <text id="$1,921,018-" font-family="SourceSansPro-Semibold, Source Sans Pro" font-size="12" font-weight="500" letter-spacing="-0.00374999992" fill="#3F3F3F">
                    <tspan x="415.515375" y="294.405663">$1,921,018 </tspan>
                </text>
                <text id="Transitional-Living-for-" font-family="SourceSansPro-Regular, Source Sans Pro" font-size="11.25" font-weight="normal" letter-spacing="-0.510000005" fill="#3F3F3F">
                    <tspan x="415.515375" y="307.848404">T</tspan>
                    <tspan x="420.517875" y="307.848404" letter-spacing="-0.273750007">r</tspan>
                    <tspan x="423.866625" y="307.848404" letter-spacing="0.00749999983">ansitional Living </tspan>
                    <tspan x="503.471625" y="307.848404" letter-spacing="-0.105">f</tspan>
                    <tspan x="506.539125" y="307.848404" letter-spacing="0.00749999983">or </tspan>
                </text>
                <text id="Homeless-Youth" font-family="SourceSansPro-Regular, Source Sans Pro" font-size="11.25" font-weight="normal" letter-spacing="0.00749999983" fill="#3F3F3F">
                    <tspan x="415.515375" y="321.348404">Homeless </tspan>
                    <tspan x="464.070375" y="321.348404" letter-spacing="-0.453750014">Y</tspan>
                    <tspan x="468.510375" y="321.348404">outh</tspan>
                </text>
                <text id="$14,092,984-" font-family="SourceSansPro-Semibold, Source Sans Pro" font-size="12" font-weight="500" letter-spacing="-0.00374999992" fill="#505050">
                    <tspan x="1.5" y="533.107113">$14,092,984 </tspan>
                </text>
                <text id="VA-Homeless-Providers-Grant-" font-family="SourceSansPro-Regular, Source Sans Pro" font-size="11.25" font-weight="normal" letter-spacing="-0.150000002" fill="#505050">
                    <tspan x="1.5" y="546.549854">V</tspan>
                    <tspan x="6.98625" y="546.549854" letter-spacing="0.00749999983">A Homeless P</tspan>
                    <tspan x="70.43625" y="546.549854" letter-spacing="-0.105">r</tspan>
                    <tspan x="74.1225" y="546.549854" letter-spacing="-0.0375000006">o</tspan>
                    <tspan x="80.1375" y="546.549854" letter-spacing="0.00749999983">vide</tspan>
                    <tspan x="100.0125" y="546.549854" letter-spacing="-0.105">r</tspan>
                    <tspan x="103.69875" y="546.549854" letter-spacing="0.00749999983">s G</tspan>
                    <tspan x="117.64875" y="546.549854" letter-spacing="-0.274874993">r</tspan>
                    <tspan x="120.996375" y="546.549854" letter-spacing="0.00749999983">ant </tspan>
                </text>
                <text id="and-Per-Diem-Program-" font-family="SourceSansPro-Regular, Source Sans Pro" font-size="11.25" font-weight="normal" letter-spacing="0.00749999983" fill="#505050">
                    <tspan x="1.5" y="560.049854">and </tspan>
                    <tspan x="21.96" y="560.049854" letter-spacing="-0.262499996">P</tspan>
                    <tspan x="27.9075" y="560.049854">er Diem P</tspan>
                    <tspan x="73.07625" y="560.049854" letter-spacing="-0.105">r</tspan>
                    <tspan x="76.7625" y="560.049854">og</tspan>
                    <tspan x="88.545" y="560.049854" letter-spacing="-0.273750007">r</tspan>
                    <tspan x="91.89375" y="560.049854">am </tspan>
                </text>
                <text id="$300,000---" font-family="SourceSansPro-Semibold, Source Sans Pro" font-size="12" font-weight="500" letter-spacing="-0.00374999992" fill="#3F3F3F">
                    <tspan x="415.51575" y="476.906163">$300,000   </tspan>
                </text>
                <text id="Education-and-Prevention-" font-family="SourceSansPro-Regular, Source Sans Pro" font-size="11.25" font-weight="normal" letter-spacing="0.00749999983" fill="#3F3F3F">
                    <tspan x="415.51575" y="490.348904">Edu</tspan>
                    <tspan x="433.83075" y="490.348904" letter-spacing="-0.105">c</tspan>
                    <tspan x="438.74325" y="490.348904">ation and P</tspan>
                    <tspan x="492.5895" y="490.348904" letter-spacing="-0.105">r</tspan>
                    <tspan x="496.27575" y="490.348904" letter-spacing="0.0637500007">e</tspan>
                    <tspan x="501.97575" y="490.348904" letter-spacing="-0.0375000006">v</tspan>
                    <tspan x="507.147" y="490.348904">ention </tspan>
                </text>
                <text id="Grants-to-Reduce-Sexual-" font-family="SourceSansPro-Regular, Source Sans Pro" font-size="11.25" font-weight="normal" letter-spacing="0.00749999983" fill="#3F3F3F">
                    <tspan x="415.51575" y="503.848904">G</tspan>
                    <tspan x="422.4645" y="503.848904" letter-spacing="-0.273750007">r</tspan>
                    <tspan x="425.81325" y="503.848904">ants </tspan>
                    <tspan x="448.55325" y="503.848904" letter-spacing="-0.103875004">t</tspan>
                    <tspan x="452.139375" y="503.848904">o </tspan>
                    <tspan x="460.524375" y="503.848904" letter-spacing="-0.105">R</tspan>
                    <tspan x="466.843125" y="503.848904">edu</tspan>
                    <tspan x="484.809375" y="503.848904" letter-spacing="-0.228750005">c</tspan>
                    <tspan x="489.474375" y="503.848904">e S</tspan>
                    <tspan x="503.356875" y="503.848904" letter-spacing="-0.0712499991">e</tspan>
                    <tspan x="508.786875" y="503.848904">xual </tspan>
                </text>
                <text id="Abuse-of-Runaway,-Homeless-" font-family="SourceSansPro-Regular, Source Sans Pro" font-size="11.25" font-weight="normal" letter-spacing="0.00749999983" fill="#3F3F3F">
                    <tspan x="415.51575" y="517.348904">Abuse of Runa</tspan>
                    <tspan x="482.88825" y="517.348904" letter-spacing="-0.105">w</tspan>
                    <tspan x="490.74825" y="517.348904">a</tspan>
                    <tspan x="496.51575" y="517.348904" letter-spacing="-0.386249989">y</tspan>
                    <tspan x="500.9895" y="517.348904">, Homeless </tspan>
                </text>
                <text id="and-Street-Youth" font-family="SourceSansPro-Regular, Source Sans Pro" font-size="11.25" font-weight="normal" letter-spacing="0.00749999983" fill="#3F3F3F">
                    <tspan x="415.51575" y="530.848904">and St</tspan>
                    <tspan x="445.80075" y="530.848904" letter-spacing="-0.106124997">r</tspan>
                    <tspan x="449.485875" y="530.848904">e</tspan>
                    <tspan x="455.073375" y="530.848904" letter-spacing="-0.148875006">e</tspan>
                    <tspan x="460.347" y="530.848904">t </tspan>
                    <tspan x="466.437" y="530.848904" letter-spacing="-0.452625006">Y</tspan>
                    <tspan x="470.878125" y="530.848904">outh</tspan>
                </text>
                <path d="M111.94665,402.682875 C104.2299,335.033625 152.8149,273.937875 220.46415,266.221125 C288.1134,258.504375 349.2099,307.089375 356.92665,374.737875 C364.64265,442.387125 316.05765,503.483625 248.40915,511.200375 C180.75915,518.917125 119.6634,470.332125 111.94665,402.682875" id="Fill-34" fill="#FFFFFF"></path>
                <text id="11%" font-family="SourceSansPro-Light, Source Sans Pro" font-size="42" font-weight="300" letter-spacing="-0.0224999995" fill="#3F3F3F">
                    <tspan x="207.981825" y="377.995807">11%</tspan>
                </text>
                <g id="Group-60" transform="translate(69.000000, 146.824500)">
                    <line x1="171.00915" y1="105.7881" x2="171.37515" y2="0.25935" id="Stroke-36" stroke="#808080" stroke-width="0.75"></line>
                    <path d="M173.829691,105.657 C173.824425,107.214 172.556925,108.4725 170.999925,108.466521 C169.442925,108.46125 168.184425,107.1945 168.189659,105.6375 C168.194925,104.07975 169.462425,102.822 171.019425,102.827234 C172.576425,102.8325 173.834925,104.1 173.829691,105.657" id="Fill-38" fill="#808080"></path>
                    <line x1="279.751125" y1="162.039525" x2="279.751125" y2="64.730025" id="Stroke-40" stroke="#808080" stroke-width="0.75"></line>
                    <path d="M282.5709,161.8989 C282.5709,163.4559 281.3079,164.7189 279.7509,164.7189 C278.1939,164.7189 276.9309,163.4559 276.9309,161.8989 C276.9309,160.3419 278.1939,159.0789 279.7509,159.0789 C281.3079,159.0789 282.5709,160.3419 282.5709,161.8989" id="Fill-42" fill="#808080"></path>
                    <polyline id="Stroke-44" stroke="#808080" stroke-width="0.75" points="307.4238 236.910675 327.73905 236.468175 327.73905 147.280425 339.0003 147.280425"></polyline>
                    <path d="M307.626375,239.7261 C306.069375,239.7606 304.780125,238.52535 304.745625,236.96835 C304.711875,235.4121 305.947125,234.12135 307.503375,234.0876 C309.060375,234.0546 310.350375,235.2891 310.384125,236.8461 C310.417875,238.40235 309.183375,239.69235 307.626375,239.7261" id="Fill-46" fill="#808080"></path>
                    <polyline id="Stroke-48" stroke="#808080" stroke-width="0.75" points="295.427475 297.2175 328.495725 297.2175 328.495725 255.98475 339.000225 255.98475"></polyline>
                    <path d="M295.56885,300.03735 C294.0111,300.03735 292.74885,298.77435 292.74885,297.21735 C292.74885,295.66035 294.0111,294.39735 295.56885,294.39735 C297.12585,294.39735 298.3881,295.66035 298.3881,297.21735 C298.3881,298.77435 297.12585,300.03735 295.56885,300.03735" id="Fill-50" fill="#808080"></path>
                    <line x1="278.185575" y1="330.235125" x2="339.000075" y2="330.235125" id="Stroke-52" stroke="#808080" stroke-width="0.75"></line>
                    <path d="M278.326575,333.0549 C276.769575,333.0549 275.506575,331.7919 275.506575,330.2349 C275.506575,328.6779 276.769575,327.4149 278.326575,327.4149 C279.883575,327.4149 281.146575,328.6779 281.146575,330.2349 C281.146575,331.7919 279.883575,333.0549 278.326575,333.0549" id="Fill-54" fill="#808080"></path>
                    <line x1="64.575075" y1="337.7805" x2="7.5e-05" y2="384.21675" id="Stroke-56" stroke="#808080" stroke-width="0.75"></line>
                    <path d="M62.8143,335.5737 C64.0788,334.6647 65.8413,334.9527 66.7503,336.21645 C67.65855,337.48095 67.3713,339.24345 66.1068,340.15245 C64.84305,341.06145 63.0798,340.7742 62.17155,339.5097 C61.26255,338.2452 61.5498,336.4827 62.8143,335.5737" id="Fill-58" fill="#808080"></path>
                </g>
                <text id="-$24,909,050" font-family="SourceSansPro-Bold, Source Sans Pro" font-size="10.5" font-weight="bold" letter-spacing="0.00749999983" fill="#3F3F3F">
                    <tspan x="210.5757" y="419.697145"> $24,909,050</tspan>
                </text>
                <polygon id="Fill-61" fill="#D5E8AA" points="188.38575 409.46625 198.13575 409.46625 198.13575 399.71625 188.38575 399.71625"></polygon>
                <text id="Other-Programs" font-family="SourceSansPro-Bold, Source Sans Pro" font-size="10.5" font-weight="bold" letter-spacing="0.00749999983" fill="#3F3F3F">
                    <tspan x="203.81835" y="403.936945">Other P</tspan>
                    <tspan x="239.23485" y="403.936945" letter-spacing="-0.0974999964">r</tspan>
                    <tspan x="243.21135" y="403.936945">og</tspan>
                    <tspan x="254.66085" y="403.936945" letter-spacing="-0.296999998">r</tspan>
                    <tspan x="258.23835" y="403.936945">ams</tspan>
                </text>
                <path d="M168.5574,126.23685 C168.5574,164.2836 137.71365,195.12735 99.66615,195.12735 C61.61865,195.12735 30.7749,164.2836 30.7749,126.23685 C30.7749,88.18935 61.61865,57.3456 99.66615,57.3456 C137.71365,57.3456 168.5574,88.18935 168.5574,126.23685" id="Fill-63" fill="#FFFFFF"></path>
                <text id="Continuum-of-Care" font-family="SourceSansPro-Bold, Source Sans Pro" font-size="10.5" font-weight="bold" letter-spacing="0.00749999983" fill="#3F3F3F">
                    <tspan x="65.0757" y="145.154695">Continuum </tspan>
                    <tspan x="119.1312" y="145.154695" letter-spacing="-0.044999999">o</tspan>
                    <tspan x="124.8612" y="145.154695">f Ca</tspan>
                    <tspan x="142.3737" y="145.154695" letter-spacing="-0.096450001">r</tspan>
                    <tspan x="146.35125" y="145.154695">e</tspan>
                </text>
                <g id="Group-69" transform="translate(57.750000, 56.824500)" stroke="#26660C" stroke-width="0.5">
                    <line x1="30.499875" y1="350.716575" x2="0.312375" y2="14.466825" id="Stroke-65"></line>
                    <line x1="43.062375" y1="0.591825" x2="273.749625" y2="215.468325" id="Stroke-67"></line>
                </g>
                <text id="-$196,301,757" font-family="SourceSansPro-Bold, Source Sans Pro" font-size="10.5" font-weight="bold" letter-spacing="0.00749999983" fill="#3F3F3F">
                    <tspan x="71.9982" y="160.34437"> $196,301,757</tspan>
                </text>
                <text id="89%" font-family="SourceSansPro-Light, Source Sans Pro" font-size="42" font-weight="300" letter-spacing="-0.0224999995" fill="#3F3F3F">
                    <tspan x="69.2388" y="117.752407">89%</tspan>
                </text>
                <polygon id="Fill-70" fill="#587C13" points="50.157 149.829 59.907 149.829 59.907 140.079 50.157 140.079"></polygon>
            </g>
        </g>
    </g>
</svg>