<?xml version="1.0" encoding="UTF-8"?>
<svg width="305px" height="69px" viewBox="0 0 305 69" version="1.1" xmlns="http://www.w3.org/2000/svg" xmlns:xlink="http://www.w3.org/1999/xlink">
    <!-- Generator: Sketch 59.1 (86144) - https://sketch.com -->
    <title>Group 167</title>
    <desc>Created with Sketch.</desc>
    <g id="Desktop" stroke="none" stroke-width="1" fill="none" fill-rule="evenodd">
        <g id="Homelessness-Section-3-7" transform="translate(-846.000000, -1760.000000)">
            <g id="Group-16" transform="translate(846.000000, 1756.000000)">
                <polygon id="Fill-1" fill="#E0E0E0" points="2.7585 37.460375 299.7585 37.460375 299.7585 27.710375 2.7585 27.710375"></polygon>
                <line x1="2.758275" y1="45.464825" x2="2.758275" y2="19.214825" id="Stroke-2" stroke="#D1D1D1" stroke-width="0.75" stroke-linecap="round"></line>
                <line x1="77.008275" y1="45.335225" x2="77.008275" y2="19.085225" id="Stroke-3" stroke="#D1D1D1" stroke-width="0.75" stroke-linecap="round"></line>
                <line x1="151.258275" y1="45.464825" x2="151.258275" y2="19.214825" id="Stroke-4" stroke="#D1D1D1" stroke-width="0.75" stroke-linecap="round"></line>
                <line x1="225.508275" y1="45.464825" x2="225.508275" y2="19.214825" id="Stroke-5" stroke="#D1D1D1" stroke-width="0.75" stroke-linecap="round"></line>
                <line x1="299.758275" y1="45.464825" x2="299.758275" y2="19.214825" id="Stroke-6" stroke="#D1D1D1" stroke-width="0.75" stroke-linecap="round"></line>
                <g id="Group-15" transform="translate(0.000000, 0.421875)">
                    <path d="M267.508275,40.78835 L89.758275,40.78835 C87.695775,40.78835 86.008275,39.10085 86.008275,37.03835 L86.008275,27.28835 C86.008275,25.22585 87.695775,23.53835 89.758275,23.53835 L267.508275,23.53835 C269.570775,23.53835 271.258275,25.22585 271.258275,27.28835 L271.258275,37.03835 C271.258275,39.10085 269.570775,40.78835 267.508275,40.78835" id="Fill-7" fill="#D5E8AA"></path>
                    <path d="M225.1875,42.28835 L142.1745,42.28835 C140.15625,42.28835 138.50475,40.63685 138.50475,38.61785 L138.50475,25.7096 C138.50475,23.68985 140.15625,22.03835 142.1745,22.03835 L225.1875,22.03835 C227.20575,22.03835 228.858,23.68985 228.858,25.7096 L228.858,38.61785 C228.858,40.63685 227.20575,42.28835 225.1875,42.28835" id="Fill-9" fill="#587C13"></path>
                    <text id="CLUSTER-MEDIAN:-$1,140" font-family="SourceSansPro-Semibold, Source Sans Pro" font-size="10.5" font-weight="500" letter-spacing="-0.0149999997" fill="#26660C">
                        <tspan x="104.144925" y="70.0948205">C</tspan>
                        <tspan x="110.177925" y="70.0948205" letter-spacing="-0.361499995">L</tspan>
                        <tspan x="114.740925" y="70.0948205" letter-spacing="-0.119999997">U</tspan>
                        <tspan x="121.393425" y="70.0948205" letter-spacing="-0.225000009">S</tspan>
                        <tspan x="126.680925" y="70.0948205">TER MEDIAN: $1,140</tspan>
                    </text>
                    <text id="$1,000" font-family="SourceSansPro-Regular, Source Sans Pro" font-size="10.5" font-weight="normal" letter-spacing="-0.0299999993" fill="#848484">
                        <tspan x="137.209425" y="10.8433205">$1,000</tspan>
                    </text>
                    <text id="$0" font-family="SourceSansPro-Regular, Source Sans Pro" font-size="10.5" font-weight="normal" letter-spacing="-0.0299999993" fill="#848484">
                        <tspan x="0.005925" y="10.8433205">$0</tspan>
                    </text>
                    <text id="$2,000" font-family="SourceSansPro-Regular, Source Sans Pro" font-size="10.5" font-weight="normal" letter-spacing="-0.0299999993" fill="#848484">
                        <tspan x="276.712425" y="10.8433205">$2,000</tspan>
                    </text>
                    <line x1="157.758525" y1="61.03835" x2="157.758525" y2="47.9591" id="Stroke-12" stroke="#636363" stroke-width="1.5" stroke-linecap="round"></line>
                    <path d="M157.758525,48.260525 C156.974775,49.044275 155.425275,49.417775 154.349775,49.448525 C155.793525,48.373775 157.052775,46.978025 157.758525,45.288275 C158.434275,46.978025 159.770025,48.312275 161.167275,49.448525 C160.016025,49.356275 158.618025,49.075025 157.758525,48.260525" id="Fill-13" fill="#636363"></path>
                    <polygon id="Fill-14" fill="#FFFFFF" points="161.507775 30.896975 161.507775 27.555725 159.599025 27.555725 159.599025 28.987475 157.689525 27.077975 152.439525 32.327975 153.394275 32.327975 153.394275 37.578725 156.258525 37.578725 156.258525 33.283475 159.121275 33.283475 159.121275 37.578725 161.985525 37.578725 161.985525 32.327975 162.939525 32.327975"></polygon>
                </g>
            </g>
        </g>
    </g>
</svg>