<?xml version="1.0" encoding="utf-8"?>
<!-- Generator: Adobe Illustrator 22.0.1, SVG Export Plug-In . SVG Version: 6.00 Build 0)  -->
<svg version="1.1" id="Layer_1" xmlns="http://www.w3.org/2000/svg" xmlns:xlink="http://www.w3.org/1999/xlink" x="0px" y="0px"
	 viewBox="0 0 65 75" style="enable-background:new 0 0 65 75;" xml:space="preserve">
<style type="text/css">
	.st0{filter:url(#Adobe_OpacityMaskFilter);}
	.st1{fill:#FFFFFF;}
	.st2{mask:url(#mask-2_1_);fill:#231F20;}
	.st3{fill:#231F20;}
</style>
<title>playbook-icon-black</title>
<desc>Created with Sketch.</desc>
<g id="Page-1_1_">
	<g id="playbook-icon-black">
		<g id="Page-1" transform="translate(0.000000, 1.000000)">
			<g id="Group-3">
				<g id="Clip-2">
				</g>
				<defs>
					<filter id="Adobe_OpacityMaskFilter" filterUnits="userSpaceOnUse" x="0" y="0.2" width="63" height="73.8">
						<feColorMatrix  type="matrix" values="1 0 0 0 0  0 1 0 0 0  0 0 1 0 0  0 0 0 1 0"/>
					</filter>
				</defs>
				<mask maskUnits="userSpaceOnUse" x="0" y="0.2" width="63" height="73.8" id="mask-2_1_">
					<g class="st0">
						<polygon id="path-1_1_" class="st1" points="0,0.2 63,0.2 63,74 0,74 						"/>
					</g>
				</mask>
				<path id="Fill-1" class="st2" d="M60.1,0.2H7C5.3,0.2,4,1.4,4,3v2.6C1.8,5.7,0,7.5,0,9.7c0,2.2,1.8,4,4,4.1v2.8
					c-2.2,0.1-4,1.9-4,4.1c0,2.2,1.8,4,4,4.1v2.8c-2.2,0.1-4,1.9-4,4.1s1.8,4,4,4.1v2.8c-2.2,0.1-4,1.9-4,4.1c0,2.2,1.8,4,4,4.1v2.8
					c-2.2,0.1-4,1.9-4,4.1c0,2.2,1.8,4,4,4.1v2.8c-2.2,0.1-4,1.9-4,4.1c0,2.2,1.8,4,4,4.1v2.6C4,72.7,5.3,74,7,74h53.1
					c1.6,0,2.9-1.3,2.9-2.8V3C63,1.4,61.7,0.2,60.1,0.2z M2.7,9.7c0-0.8,0.6-1.4,1.4-1.4h4.1v2.7H4.1C3.4,11.1,2.7,10.5,2.7,9.7z
					 M2.7,20.7c0-0.8,0.6-1.4,1.4-1.4h4.1V22H4.1C3.4,22,2.7,21.4,2.7,20.7z M2.7,31.6c0-0.8,0.6-1.4,1.4-1.4h4.1V33H4.1
					C3.4,33,2.7,32.4,2.7,31.6z M2.7,42.5c0-0.8,0.6-1.4,1.4-1.4h4.1v2.7H4.1C3.4,43.9,2.7,43.3,2.7,42.5z M2.7,53.5
					c0-0.8,0.6-1.4,1.4-1.4h4.1v2.7H4.1C3.4,54.8,2.7,54.2,2.7,53.5z M2.7,64.4c0-0.8,0.6-1.4,1.4-1.4h4.1v2.7H4.1
					C3.4,65.8,2.7,65.2,2.7,64.4z M7,71.3c-0.1,0-0.2-0.1-0.2-0.1v-2.6h1.5c1.5,0,2.7-1.2,2.7-2.7V63c0-1.5-1.2-2.7-2.7-2.7H6.7
					v-2.7h1.5c1.5,0,2.7-1.2,2.7-2.7v-2.7c0-1.5-1.2-2.7-2.7-2.7H6.7v-2.7h1.5c1.5,0,2.7-1.2,2.7-2.7v-2.7c0-1.5-1.2-2.7-2.7-2.7
					H6.7v-2.7h1.5c1.5,0,2.7-1.2,2.7-2.7v-2.7c0-1.5-1.2-2.7-2.7-2.7H6.7v-2.7h1.5c1.5,0,2.7-1.2,2.7-2.7v-2.7
					c0-1.5-1.2-2.7-2.7-2.7H6.7v-2.7h1.5c1.5,0,2.7-1.2,2.7-2.7V8.4c0-1.5-1.2-2.7-2.7-2.7H6.7V3c0,0,0.1-0.1,0.2-0.1h6.7v68.4H7z
					 M60.3,71.1c0,0-0.1,0.1-0.2,0.1H16.4V2.9h43.6c0.2,0,0.2,0.1,0.2,0.1V71.1z"/>
			</g>
			<path id="Fill-4" class="st3" d="M52.6,25H28.3c-0.7,0-1.3,0.7-1.3,1.5c0,0.8,0.6,1.5,1.3,1.5h24.3c0.7,0,1.4-0.7,1.4-1.5
				C54,25.7,53.4,25,52.6,25"/>
			<path id="Fill-6" class="st3" d="M25,26.5c0,0.8-0.7,1.5-1.5,1.5c-0.8,0-1.5-0.7-1.5-1.5s0.7-1.5,1.5-1.5
				C24.3,25,25,25.7,25,26.5"/>
			<path id="Fill-8" class="st3" d="M52.6,36H28.3c-0.7,0-1.3,0.7-1.3,1.5s0.6,1.5,1.3,1.5h24.3c0.7,0,1.4-0.7,1.4-1.5
				S53.4,36,52.6,36"/>
			<path id="Fill-10" class="st3" d="M25,37.5c0,0.8-0.7,1.5-1.5,1.5c-0.8,0-1.5-0.7-1.5-1.5s0.7-1.5,1.5-1.5
				C24.3,36,25,36.7,25,37.5"/>
			<path id="Fill-12" class="st3" d="M52.6,48H28.3c-0.7,0-1.3,0.7-1.3,1.5c0,0.8,0.6,1.5,1.3,1.5h24.3c0.7,0,1.4-0.7,1.4-1.5
				C54,48.7,53.4,48,52.6,48"/>
			<path id="Fill-14" class="st3" d="M25,49.5c0,0.8-0.7,1.5-1.5,1.5c-0.8,0-1.5-0.7-1.5-1.5s0.7-1.5,1.5-1.5
				C24.3,48,25,48.7,25,49.5"/>
		</g>
	</g>
</g>
</svg>
