<?xml version="1.0" encoding="utf-8"?>
<!-- Generator: Adobe Illustrator 22.0.1, SVG Export Plug-In . SVG Version: 6.00 Build 0)  -->
<svg version="1.1" id="Layer_1" xmlns="http://www.w3.org/2000/svg" xmlns:xlink="http://www.w3.org/1999/xlink" x="0px" y="0px"
	 viewBox="0 0 55 75" style="enable-background:new 0 0 55 75;" xml:space="preserve">
<title>user-guide-black</title>
<desc>Created with Sketch.</desc>
<g>
	<path d="M51.6,71.9H12.3V19.6h39.3V71.9z M8.9,71.6c-2.9,0-5.3-2.4-5.3-5.4V17.7c1.5,1.1,3.3,1.8,5.3,1.8V71.6z M52.2,16.2h-40v0H9
		c-3,0-5.4-2.4-5.4-5.4V9.3c0-3,2.4-5.4,5.4-5.4h43c0.6,0,1.1-0.5,1.1-1.1V1.7c0-0.6-0.5-1.1-1.1-1.1H9c-4.8,0-8.7,3.9-8.7,8.7v1.6
		v55.4C0.3,71.1,4.2,75,9,75h3.3v-0.1l40,0c1.5,0,2.8-1.2,2.8-2.8V19C55,17.5,53.7,16.2,52.2,16.2z"/>
</g>
<g>
	<path d="M8.7,9.3c0-0.6,0.5-1.1,1.1-1.1h42.1c0.6,0,1.1,0.5,1.1,1.1v1.1c0,0.6-0.5,1.1-1.1,1.1H9.8c-0.6,0-1.1-0.5-1.1-1.1L8.7,9.3
		L8.7,9.3z"/>
</g>
<g>
	<path d="M44.3,35.5c0,0.6-0.5,1.1-1.1,1.1H24.6c-0.6,0-1.1-0.5-1.1-1.1v-1.1c0-0.6,0.5-1.1,1.1-1.1h18.6c0.6,0,1.1,0.5,1.1,1.1
		V35.5z"/>
</g>
<g>
	<path d="M44.3,43.6c0,0.6-0.5,1.1-1.1,1.1H29.1c-0.6,0-1.1-0.5-1.1-1.1v-1.1c0-0.6,0.5-1.1,1.1-1.1h14.1c0.6,0,1.1,0.5,1.1,1.1
		L44.3,43.6L44.3,43.6z"/>
</g>
<g>
	<path d="M44.3,51.7c0,0.6-0.5,1.1-1.1,1.1H26.8c-0.6,0-1.1-0.5-1.1-1.1v-1.1c0-0.6,0.5-1.1,1.1-1.1h16.3c0.6,0,1.1,0.5,1.1,1.1
		V51.7z"/>
</g>
</svg>
