<?xml version="1.0" encoding="UTF-8"?>
<svg width="57px" height="75px" viewBox="0 0 57 75" version="1.1" xmlns="http://www.w3.org/2000/svg" xmlns:xlink="http://www.w3.org/1999/xlink">
    <!-- Generator: Sketch 48.2 (47327) - http://www.bohemiancoding.com/sketch -->
    <title>user-guide</title>
    <desc>Created with Sketch.</desc>
    <defs>
        <polygon id="path-1" points="0 0.555 55.2345352 0.555 55.2345352 73.9996917 0 73.9996917"></polygon>
    </defs>
    <g id="Page-1" stroke="none" stroke-width="1" fill="none" fill-rule="evenodd">
        <g id="user-guide">
            <g id="Page-1" transform="translate(1.000000, 0.000000)">
                <g id="Group-3">
                    <mask id="mask-2" fill="white">
                        <use xlink:href="#path-1"></use>
                    </mask>
                    <g id="Clip-2"></g>
                    <path d="M52.4156056,16.0068167 L12.0908732,16.0068167 L12.0908732,15.9983375 L8.78687324,15.9983375 C5.80704225,15.9983375 3.38326761,13.6295667 3.38326761,10.7173583 L3.38326761,9.141775 C3.38326761,6.2303375 5.80704225,3.86156667 8.78687324,3.86156667 L52.2207887,3.86156667 C52.8438873,3.86156667 53.3494648,3.36823333 53.3494648,2.759275 L53.3494648,1.65698333 C53.3494648,1.048025 52.8438873,0.554691667 52.2207887,0.554691667 L8.78687324,0.554691667 C3.94169014,0.554691667 -0.000394366197,4.40731667 -0.000394366197,9.141775 L-0.000394366197,10.7173583 L-0.000394366197,65.4126083 C-0.000394366197,70.1478375 3.94169014,73.9996917 8.78687324,73.9996917 L12.0908732,73.9996917 L12.0908732,73.9495875 L52.4156056,73.9495875 C53.9701972,73.9495875 55.2345352,72.7478583 55.2345352,71.2285458 L55.2345352,18.7625458 C55.2345352,17.2432333 53.9701972,16.0068167 52.4156056,16.0068167 Z M8.70721127,70.6928167 C5.7644507,70.6511917 3.38326761,68.2986083 3.38326761,65.4126083 L3.38326761,17.4845042 C4.85504225,18.6099208 6.70225352,19.2867125 8.70721127,19.3044417 L8.70721127,70.6928167 Z M12.1705352,70.9286917 L51.851662,70.9286917 L51.851662,19.3129208 L12.1705352,19.3129208 L12.1705352,70.9286917 Z" id="Fill-1" fill="#FEFEFE" mask="url(#mask-2)"></path>
                </g>
                <path d="M9,10 C9,9.44965035 9.51094891,9 10.1345605,9 L52.8654395,9 C53.4890511,9 54,9.44965035 54,10 L54,11 C54,11.5496503 53.4890511,12 52.8654395,12 L10.1345605,12 C9.51094891,12 9,11.5496503 9,11 L9,10 Z" id="Fill-4" fill="#FEFEFE"></path>
                <path d="M45,35 C45,35.5496503 44.4688145,36 43.81867,36 L24.18133,36 C23.5320116,36 23,35.5503497 23,35 L23,34 C23,33.4503497 23.5320116,33 24.18133,33 L43.81867,33 C44.4679884,33 45,33.4496503 45,34 L45,35 Z" id="Fill-6" fill="#FEFEFE"></path>
                <path d="M43,43 C43,43.5496503 42.5080101,44 41.905839,44 L28.094161,44 C27.492755,44 27,43.5496503 27,43 L27,42 C27,41.4503497 27.492755,41 28.094161,41 L41.905839,41 C42.507245,41 43,41.4496503 43,42 L43,43 Z" id="Fill-8" fill="#FEFEFE"></path>
                <path d="M45,52 C45,52.5496503 44.4860544,53 43.8570106,53 L27.1429894,53 C26.5147449,53 26,52.5503497 26,52 L26,51 C26,50.4503497 26.5147449,50 27.1429894,50 L43.8570106,50 C44.4852551,50 45,50.4503497 45,51 L45,52 Z" id="Fill-10" fill="#FEFEFE"></path>
            </g>
        </g>
    </g>
</svg>