<?xml version="1.0" encoding="UTF-8"?>
<svg width="103px" height="63px" viewBox="0 0 103 63" version="1.1" xmlns="http://www.w3.org/2000/svg" xmlns:xlink="http://www.w3.org/1999/xlink">
    <!-- Generator: Sketch 59.1 (86144) - https://sketch.com -->
    <title>Bed</title>
    <desc>Created with Sketch.</desc>
    <g id="Export-Outlined-SVG" stroke="none" stroke-width="1" fill="none" fill-rule="evenodd">
        <g id="7" transform="translate(-843.000000, -1072.000000)">
            <g id="Bed" transform="translate(843.000000, 1071.000000)">
                <g id="Group-3"></g>
                <path d="M22.9200736,28.0734589 C27.9205968,28.0950333 31.8698354,24.2527698 31.8601262,19.3735509 C31.8511293,14.6034065 27.9011424,10.6640219 23.1004007,10.6369803 C18.1709608,10.6094846 14.2157362,14.4973203 14.2037327,19.383263 C14.1910441,24.2221392 18.0317871,28.0517023 22.9200736,28.0734589 L22.9200736,28.0734589 Z M33.5384224,31.6018551 L31.3213716,31.6018551 C27.1057577,31.6026022 22.8886473,31.5674892 18.6737816,31.6190381 C16.5472685,31.6451861 15.1742384,33.0698792 15.112134,35.1116653 C15.0485332,37.2064946 16.4627168,38.894909 18.5817474,38.9180687 C24.843064,38.9845593 31.105877,38.9785826 37.3671935,38.921057 C39.363512,38.9023799 40.9146244,37.3379817 40.9340788,35.3582037 C40.9879525,29.7879302 40.9887007,24.2161626 40.9340788,18.645142 C40.9138762,16.6190446 39.1180875,15.0187864 37.1614261,15.0665999 C35.278841,15.111425 33.6192329,16.6623756 33.5780794,18.6264648 C33.5032549,22.2154661 33.5451566,25.8067087 33.5384224,29.3964571 C33.5376742,30.0583754 33.5384224,30.7195465 33.5384224,31.6018551 L33.5384224,31.6018551 Z M44.034059,38.5579732 C44.7501298,38.6252109 45.1728884,38.6991725 45.5963952,38.6999195 C61.9156249,38.7044021 78.2356028,38.6857249 94.5548324,38.7350649 C95.9869739,38.7402622 96.4531307,38.1112157 96.484557,36.906166 C96.5511509,34.3713031 96.7629043,31.8192571 96.5676122,29.3015772 C95.9316038,21.0888604 89.7443635,15.1749273 81.5054347,15.0867712 C69.5305171,14.9590195 57.5533548,15.0665999 45.5776891,15.024763 C44.314651,15.0202805 44.0018845,15.4857151 44.0163441,16.656399 C44.0692266,20.6824456 44.0348073,24.7107335 44.034059,28.7375272 L44.034059,38.5579732 Z M91.1712673,53.6371578 C91.1712673,56.3169554 91.1847357,58.901126 91.1660295,61.4852966 C91.1525611,63.2035945 92.0527002,63.9730931 93.6936021,63.9842994 C95.8657582,64.0014823 98.0394107,64.007459 100.211567,63.9872877 C102.267745,63.9693576 102.985312,63.2499138 102.991298,61.1789913 C103.005515,55.9732958 102.998032,50.7668532 102.998032,45.5604106 C102.997284,41.9273312 102.816957,41.7472835 99.2545611,41.7472835 C71.0105463,41.7480306 42.7672798,41.7480306 14.523265,41.7480306 L11.9051547,41.7480306 L11.9051547,39.2027084 C11.9051547,28.7293093 11.8984205,18.254416 11.9103925,7.78101684 C11.9126372,5.78629712 11.5347733,3.94995964 9.97917137,2.55365584 C8.06441169,0.833863783 5.81144514,0.61571466 3.54875139,1.53612466 C1.11919895,2.52451948 0.0215231199,4.57527065 0.0132924217,7.15570582 C-0.0106514274,14.5309392 0.00506172358,21.9061725 0.00506172358,29.2814059 C0.0043134783,39.8175603 0.00132049716,50.3537146 0.00805470472,60.889869 C0.00955119529,63.2895094 0.702426329,63.9745872 3.09755949,63.9880348 C4.8970894,63.9992411 6.69736755,63.9947586 8.49764571,63.989529 C11.2848594,63.9820581 11.8991688,63.3799068 11.9044065,60.6418364 C11.9096442,58.3124222 11.9051547,55.9830079 11.9051547,53.6371578 L91.1712673,53.6371578 Z" id="Fill-1" fill="#587C13"></path>
            </g>
        </g>
    </g>
</svg>