<?xml version="1.0" encoding="UTF-8"?>
<svg width="103px" height="64px" viewBox="0 0 103 64" version="1.1" xmlns="http://www.w3.org/2000/svg" xmlns:xlink="http://www.w3.org/1999/xlink">
    <!-- Generator: Sketch 59.1 (86144) - https://sketch.com -->
    <title>Bed</title>
    <desc>Created with Sketch.</desc>
    <g id="Export-Outlined-SVG" stroke="none" stroke-width="1" fill="none" fill-rule="evenodd">
        <g id="1" transform="translate(-850.000000, -1082.000000)">
            <g id="Bed" transform="translate(850.000000, 1082.000000)">
                <path d="M22.8859673,18 C27.9838045,18.0222716 32.0098982,14.0558318 32,9.0189237 C31.990828,4.09461532 27.9639715,0.0279155297 23.0698037,0 C18.0444332,-0.0283843156 14.012237,3.98510055 14,9.0289497 C13.9870644,14.0242113 17.9025512,17.9775402 22.8859673,18 L22.8859673,18 Z" id="Path" fill="#E8751A"></path>
                <path d="M33.5247549,21.6051277 L31.2961059,21.6051277 C27.0584384,21.6058779 22.8192667,21.5706187 18.5823514,21.6223822 C16.4447137,21.648639 15.0645007,23.079262 15.0020715,25.1295466 C14.9381379,27.233095 16.3597196,28.9285371 18.4898358,28.9517932 C24.7839077,29.0185606 31.0794839,29.012559 37.3735558,28.9547939 C39.3803177,28.9360391 40.9395447,27.3651295 40.9591008,25.3771111 C41.0132563,19.7836527 41.0140085,14.188694 40.9591008,8.59448539 C40.9387925,6.55995493 39.1336094,4.95303596 37.1667119,5.00104847 C35.2742782,5.04606021 33.6059881,6.60346627 33.5646194,8.5757305 C33.4894034,12.1796702 33.5315243,15.7858604 33.5247549,19.3905503 C33.5240027,20.0552236 33.5247549,20.7191467 33.5247549,21.6051277 L33.5247549,21.6051277 Z" id="Path" fill="#280C60"></path>
                <path d="M44.0178388,38.820767 C44.7389157,38.8888177 45.1646299,38.9636735 45.5910975,38.9644297 C62.0244178,38.9689664 78.4584916,38.9500634 94.8918119,39 C96.3339657,39.0052601 96.8033815,38.3686075 96.8350275,37.1489869 C96.9020869,34.5834736 97.1153208,32.0005696 96.9186634,29.4524471 C96.2782085,21.140426 90.0477121,15.1549845 81.7511835,15.0657624 C69.6925472,14.936466 57.6316504,15.0453472 45.5722606,15.0030045 C44.3003925,14.9984678 43.9854393,15.4695302 44,16.6543694 C44.0532522,20.7290971 44.0185923,24.8060931 44.0178388,28.8815769 L44.0178388,38.820767 Z" id="Path" fill="#280C60"></path>
                <path d="M91.1712673,53.6371578 C91.1712673,56.3169554 91.1847357,58.901126 91.1660295,61.4852966 C91.1525611,63.2035945 92.0527002,63.9730931 93.6936021,63.9842994 C95.8657582,64.0014823 98.0394107,64.007459 100.211567,63.9872877 C102.267745,63.9693576 102.985312,63.2499138 102.991298,61.1789913 C103.005515,55.9732958 102.998032,50.7668532 102.998032,45.5604106 C102.997284,41.9273312 102.816957,41.7472835 99.2545611,41.7472835 C71.0105463,41.7480306 42.7672798,41.7480306 14.523265,41.7480306 L11.9051547,41.7480306 L11.9051547,39.2027084 C11.9051547,28.7293093 11.8984205,18.254416 11.9103925,7.78101684 C11.9126372,5.78629712 11.5347733,3.94995964 9.97917137,2.55365584 C8.06441169,0.833863783 5.81144514,0.61571466 3.54875139,1.53612466 C1.11919895,2.52451948 0.0215231199,4.57527065 0.0132924217,7.15570582 C-0.0106514274,14.5309392 0.00506172358,21.9061725 0.00506172358,29.2814059 C0.0043134783,39.8175603 0.00132049716,50.3537146 0.00805470472,60.889869 C0.00955119529,63.2895094 0.702426329,63.9745872 3.09755949,63.9880348 C4.8970894,63.9992411 6.69736755,63.9947586 8.49764571,63.989529 C11.2848594,63.9820581 11.8991688,63.3799068 11.9044065,60.6418364 C11.9096442,58.3124222 11.9051547,55.9830079 11.9051547,53.6371578 L91.1712673,53.6371578 Z" id="Path" fill="#280C60"></path>
                <path d="M91.1709863,53.6371034 L11.9048469,53.6371034 C11.9048469,55.9836982 11.9093363,58.312363 11.9040986,60.6417748 C11.8988609,63.3798423 11.2845513,63.9827401 8.49733669,63.9894639 C6.69705792,63.9946935 4.89677916,63.999176 3.09724863,63.9879697 C0.702114665,63.9745222 0.00923929613,63.289445 0.00774280506,60.8898072 C0,50.3536637 0.00400157736,39.8175202 0.0047498229,29.2813767 C0.0047498229,21.9061509 -0.0102150879,14.5309252 0.0129805238,7.15569947 C0.0219594703,4.57526696 1.11888743,2.52451791 3.54844069,1.5361241 C5.8111352,0.615715057 8.06485077,0.833863954 9.97886286,2.55365423 C11.5344653,3.94995659 11.9123293,5.78629218 11.9100846,7.78100983 C11.8981127,18.2551452 11.9048469,28.7292807 11.9048469,39.2034161 L11.9048469,41.7479885 L14.522958,41.7479885 C42.7677306,41.7479885 71.0110067,41.7479885 99.2542828,41.7472414 C102.81668,41.7472414 102.997007,41.927289 102.997755,45.5603646 C102.998504,50.7668018 103.005238,55.973239 102.991021,61.1789291 C102.985035,63.2498495 102.267468,63.9692926 100.211289,63.9872227 C98.0391321,64.007394 95.8654788,64.0014173 93.693322,63.9849814 C92.0524195,63.973028 91.1530284,63.2042773 91.1657486,61.4852341 C91.1852029,58.9010662 91.1709863,56.3168982 91.1709863,53.6371034" id="Fill-4" fill="#E8751A"></path>
                <path d="M44.017136,38.820767 L44.017136,28.8808208 C44.0178895,24.8060931 44.0525498,20.7290971 44.0005594,16.6543694 C43.9847362,15.4695302 44.2996926,14.9984678 45.5715737,15.0030045 C57.6310859,15.0453472 69.6921052,14.936466 81.750864,15.0657624 C90.0474769,15.1549845 96.2780366,21.1404261 96.918498,29.451691 C97.1151574,31.9998135 96.9026748,34.5834736 96.8356148,37.1489869 C96.8039684,38.3678515 96.3345479,39.0052601 94.8923794,39 C78.4581387,38.9500634 62.023898,38.9689664 45.5904108,38.9636736 C45.1639388,38.9629175 44.7382203,38.8888177 44.017136,38.820767" id="Fill-7" fill="#E8751A"></path>
                <path d="M33.5247549,21.6049207 C33.5247549,20.718949 33.5240027,20.0557831 33.5247549,19.3911168 C33.5315243,15.7857149 33.4886512,12.1803129 33.5646194,8.57641129 C33.605236,6.6034177 35.2735261,5.04677827 37.1667119,5.00101682 C39.1336094,4.95375499 40.9380404,6.55990681 40.9591008,8.59441579 C41.0140085,14.1885653 41.0132563,19.783465 40.9591008,25.3768643 C40.9387925,27.3656119 39.3795656,28.9357547 37.3728036,28.9545094 C31.0794839,29.0122738 24.7839077,29.0190255 18.4898358,28.9515086 C16.3597196,28.929003 14.9381379,27.2328286 15.0020715,25.1293024 C15.0645007,23.0797897 16.4447137,21.6491818 18.5823514,21.622175 C22.8192667,21.570412 27.0576863,21.6056709 31.2953537,21.6049207 L33.5247549,21.6049207 Z" id="Fill-9" fill="#E8751A"></path>
            </g>
        </g>
    </g>
</svg>