<?xml version="1.0" encoding="UTF-8"?>
<svg width="303px" height="68px" viewBox="0 0 303 68" version="1.1" xmlns="http://www.w3.org/2000/svg" xmlns:xlink="http://www.w3.org/1999/xlink">
    <!-- Generator: Sketch 59.1 (86144) - https://sketch.com -->
    <title>Income</title>
    <desc>Created with Sketch.</desc>
    <g id="Export-Outlined-SVG" stroke="none" stroke-width="1" fill="none" fill-rule="evenodd">
        <g id="1" transform="translate(-842.000000, -217.000000)">
            <g id="Income" transform="translate(842.546000, 217.146000)">
                <polygon id="Fill-1" fill="#E0E0E0" points="2.454 33.854 299.454 33.854 299.454 23.854 2.454 23.854"></polygon>
                <path d="M71.444,2.352 C71.247999,2.16299905 71.0572509,2.01600052 70.87175,1.911 C70.6862491,1.80599948 70.4500014,1.7535 70.163,1.7535 C69.8409984,1.7535 69.5855009,1.84449909 69.3965,2.0265 C69.2074991,2.20850091 69.113,2.45349846 69.113,2.7615 C69.113,3.01350126 69.1847493,3.21999919 69.32825,3.381 C69.4717507,3.54200081 69.6519989,3.68374939 69.869,3.80625 C70.0860011,3.92875061 70.3222487,4.04774942 70.57775,4.16325 C70.8332513,4.27875058 71.0694989,4.41874918 71.2865,4.58325 C71.5035011,4.74775082 71.6837493,4.95074879 71.82725,5.19225 C71.9707507,5.43375121 72.0425,5.74349811 72.0425,6.1215 C72.0425,6.62550252 71.8972515,7.03849839 71.60675,7.3605 C71.3162485,7.68250161 70.9190025,7.87849965 70.415,7.9485 L70.415,9.009 L69.785,9.009 L69.785,7.9695 C69.4489983,7.93449983 69.1235016,7.84175075 68.8085,7.69125 C68.4934984,7.54074925 68.2240011,7.36400101 68,7.161 L68.399,6.5625 C68.6230011,6.75850098 68.8697487,6.92474932 69.13925,7.06125 C69.4087513,7.19775068 69.7044984,7.266 70.0265,7.266 C70.418502,7.266 70.710749,7.16800098 70.90325,6.972 C71.095751,6.77599902 71.192,6.51350165 71.192,6.1845 C71.192,5.9044986 71.1202507,5.67175093 70.97675,5.48625 C70.8332493,5.30074907 70.6530011,5.13975068 70.436,5.00325 C70.2189989,4.86674932 69.9827513,4.7390006 69.72725,4.62 C69.4717487,4.50099941 69.2355011,4.36450077 69.0185,4.2105 C68.8014989,4.05649923 68.6212507,3.8692511 68.47775,3.64875 C68.3342493,3.4282489 68.2625,3.14650172 68.2625,2.8035 C68.2625,2.33449765 68.4007486,1.94425156 68.67725,1.63275 C68.9537514,1.32124844 69.3229977,1.12700038 69.785,1.05 L69.785,1.42108547e-14 L70.415,1.42108547e-14 L70.415,1.0395 C70.7510017,1.07450018 71.0362488,1.16549927 71.27075,1.3125 C71.5052512,1.45950073 71.7169991,1.63449899 71.906,1.8375 L71.444,2.352 Z M73.472,7.14 L75.005,7.14 L75.005,2.205 L73.787,2.205 L73.787,1.6485 C74.0950015,1.59249972 74.3627489,1.5242504 74.59025,1.44375 C74.8177511,1.3632496 75.0224991,1.26700056 75.2045,1.155 L75.866,1.155 L75.866,7.14 L77.252,7.14 L77.252,7.854 L73.472,7.854 L73.472,7.14 Z M80.4455,7.98 C79.7664966,7.98 79.2380019,7.67900301 78.86,7.077 C78.4819981,6.47499699 78.293,5.61050563 78.293,4.4835 C78.293,3.35649436 78.4819981,2.49900294 78.86,1.911 C79.2380019,1.32299706 79.7664966,1.029 80.4455,1.029 C81.1175034,1.029 81.6424981,1.32299706 82.0205,1.911 C82.3985019,2.49900294 82.5875,3.35649436 82.5875,4.4835 C82.5875,5.61050563 82.3985019,6.47499699 82.0205,7.077 C81.6424981,7.67900301 81.1175034,7.98 80.4455,7.98 Z M80.4455,7.287 C80.641501,7.287 80.8182492,7.23275054 80.97575,7.12425 C81.1332508,7.01574946 81.2697494,6.84775114 81.38525,6.62025 C81.5007506,6.39274886 81.5899997,6.10225177 81.653,5.74875 C81.7160003,5.39524823 81.7475,4.97350245 81.7475,4.4835 C81.7475,3.99349755 81.7160003,3.57350175 81.653,3.2235 C81.5899997,2.87349825 81.5007506,2.5882511 81.38525,2.36775 C81.2697494,2.1472489 81.1332508,1.98450053 80.97575,1.8795 C80.8182492,1.77449947 80.641501,1.722 80.4455,1.722 C80.249499,1.722 80.0710008,1.77449947 79.91,1.8795 C79.7489992,1.98450053 79.6107506,2.1472489 79.49525,2.36775 C79.3797494,2.5882511 79.2905003,2.87349825 79.2275,3.2235 C79.1644997,3.57350175 79.133,3.99349755 79.133,4.4835 C79.133,5.4635049 79.2537488,6.17574778 79.49525,6.62025 C79.7367512,7.06475222 80.053498,7.287 80.4455,7.287 Z M83.9645,0.966 L84.836,0.966 L84.836,4.4205 L84.8675,4.4205 L87.734,0.966 L88.721,0.966 L86.5685,3.591 L89.057,7.854 L88.0805,7.854 L86.0225,4.2735 L84.836,5.67 L84.836,7.854 L83.9645,7.854 L83.9645,0.966 Z" id="$10K" fill="#848484" fill-rule="nonzero"></path>
                <path d="M107.444,2.352 C107.247999,2.16299905 107.057251,2.01600052 106.87175,1.911 C106.686249,1.80599948 106.450001,1.7535 106.163,1.7535 C105.840998,1.7535 105.585501,1.84449909 105.3965,2.0265 C105.207499,2.20850091 105.113,2.45349846 105.113,2.7615 C105.113,3.01350126 105.184749,3.21999919 105.32825,3.381 C105.471751,3.54200081 105.651999,3.68374939 105.869,3.80625 C106.086001,3.92875061 106.322249,4.04774942 106.57775,4.16325 C106.833251,4.27875058 107.069499,4.41874918 107.2865,4.58325 C107.503501,4.74775082 107.683749,4.95074879 107.82725,5.19225 C107.970751,5.43375121 108.0425,5.74349811 108.0425,6.1215 C108.0425,6.62550252 107.897251,7.03849839 107.60675,7.3605 C107.316249,7.68250161 106.919003,7.87849965 106.415,7.9485 L106.415,9.009 L105.785,9.009 L105.785,7.9695 C105.448998,7.93449983 105.123502,7.84175075 104.8085,7.69125 C104.493498,7.54074925 104.224001,7.36400101 104,7.161 L104.399,6.5625 C104.623001,6.75850098 104.869749,6.92474932 105.13925,7.06125 C105.408751,7.19775068 105.704498,7.266 106.0265,7.266 C106.418502,7.266 106.710749,7.16800098 106.90325,6.972 C107.095751,6.77599902 107.192,6.51350165 107.192,6.1845 C107.192,5.9044986 107.120251,5.67175093 106.97675,5.48625 C106.833249,5.30074907 106.653001,5.13975068 106.436,5.00325 C106.218999,4.86674932 105.982751,4.7390006 105.72725,4.62 C105.471749,4.50099941 105.235501,4.36450077 105.0185,4.2105 C104.801499,4.05649923 104.621251,3.8692511 104.47775,3.64875 C104.334249,3.4282489 104.2625,3.14650172 104.2625,2.8035 C104.2625,2.33449765 104.400749,1.94425156 104.67725,1.63275 C104.953751,1.32124844 105.322998,1.12700038 105.785,1.05 L105.785,1.42108547e-14 L106.415,1.42108547e-14 L106.415,1.0395 C106.751002,1.07450018 107.036249,1.16549927 107.27075,1.3125 C107.505251,1.45950073 107.716999,1.63449899 107.906,1.8375 L107.444,2.352 Z M109.472,7.14 L111.005,7.14 L111.005,2.205 L109.787,2.205 L109.787,1.6485 C110.095002,1.59249972 110.362749,1.5242504 110.59025,1.44375 C110.817751,1.3632496 111.022499,1.26700056 111.2045,1.155 L111.866,1.155 L111.866,7.14 L113.252,7.14 L113.252,7.854 L109.472,7.854 L109.472,7.14 Z M114.5135,6.4995 C114.709501,6.70250102 114.942249,6.88099923 115.21175,7.035 C115.481251,7.18900077 115.811998,7.266 116.204,7.266 C116.407001,7.266 116.597749,7.22925037 116.77625,7.15575 C116.954751,7.08224963 117.110499,6.97900066 117.2435,6.846 C117.376501,6.71299933 117.4815,6.55200094 117.5585,6.363 C117.6355,6.17399906 117.674,5.96400115 117.674,5.733 C117.674,5.27099769 117.544501,4.9105013 117.2855,4.6515 C117.026499,4.3924987 116.680002,4.263 116.246,4.263 C116.014999,4.263 115.817251,4.29799965 115.65275,4.368 C115.488249,4.43800035 115.304501,4.53949934 115.1015,4.6725 L114.6395,4.3785 L114.86,1.155 L118.2095,1.155 L118.2095,1.9005 L115.616,1.9005 L115.4375,3.885 C115.598501,3.80099958 115.759499,3.73450025 115.9205,3.6855 C116.081501,3.63649976 116.263499,3.612 116.4665,3.612 C116.753501,3.612 117.022999,3.65399958 117.275,3.738 C117.527001,3.82200042 117.747499,3.94974914 117.9365,4.12125 C118.125501,4.29275086 118.274249,4.50974869 118.38275,4.77225 C118.491251,5.03475131 118.5455,5.34799818 118.5455,5.712 C118.5455,6.07600182 118.482501,6.3979986 118.3565,6.678 C118.230499,6.9580014 118.062501,7.19424904 117.8525,7.38675 C117.642499,7.57925096 117.402751,7.72624949 117.13325,7.82775 C116.863749,7.92925051 116.582001,7.98 116.288,7.98 C116.021999,7.98 115.778751,7.95375026 115.55825,7.90125 C115.337749,7.84874974 115.138251,7.78050042 114.95975,7.6965 C114.781249,7.61249958 114.620251,7.51625054 114.47675,7.40775 C114.333249,7.29924946 114.205501,7.18550059 114.0935,7.0665 L114.5135,6.4995 Z M119.9645,0.966 L120.836,0.966 L120.836,4.4205 L120.8675,4.4205 L123.734,0.966 L124.721,0.966 L122.5685,3.591 L125.057,7.854 L124.0805,7.854 L122.0225,4.2735 L120.836,5.67 L120.836,7.854 L119.9645,7.854 L119.9645,0.966 Z" id="$15K" fill="#848484" fill-rule="nonzero"></path>
                <path d="M38.444,2.352 C38.247999,2.16299905 38.0572509,2.01600052 37.87175,1.911 C37.6862491,1.80599948 37.4500014,1.7535 37.163,1.7535 C36.8409984,1.7535 36.5855009,1.84449909 36.3965,2.0265 C36.2074991,2.20850091 36.113,2.45349846 36.113,2.7615 C36.113,3.01350126 36.1847493,3.21999919 36.32825,3.381 C36.4717507,3.54200081 36.6519989,3.68374939 36.869,3.80625 C37.0860011,3.92875061 37.3222487,4.04774942 37.57775,4.16325 C37.8332513,4.27875058 38.0694989,4.41874918 38.2865,4.58325 C38.5035011,4.74775082 38.6837493,4.95074879 38.82725,5.19225 C38.9707507,5.43375121 39.0425,5.74349811 39.0425,6.1215 C39.0425,6.62550252 38.8972515,7.03849839 38.60675,7.3605 C38.3162485,7.68250161 37.9190025,7.87849965 37.415,7.9485 L37.415,9.009 L36.785,9.009 L36.785,7.9695 C36.4489983,7.93449983 36.1235016,7.84175075 35.8085,7.69125 C35.4934984,7.54074925 35.2240011,7.36400101 35,7.161 L35.399,6.5625 C35.6230011,6.75850098 35.8697487,6.92474932 36.13925,7.06125 C36.4087513,7.19775068 36.7044984,7.266 37.0265,7.266 C37.418502,7.266 37.710749,7.16800098 37.90325,6.972 C38.095751,6.77599902 38.192,6.51350165 38.192,6.1845 C38.192,5.9044986 38.1202507,5.67175093 37.97675,5.48625 C37.8332493,5.30074907 37.6530011,5.13975068 37.436,5.00325 C37.2189989,4.86674932 36.9827513,4.7390006 36.72725,4.62 C36.4717487,4.50099941 36.2355011,4.36450077 36.0185,4.2105 C35.8014989,4.05649923 35.6212507,3.8692511 35.47775,3.64875 C35.3342493,3.4282489 35.2625,3.14650172 35.2625,2.8035 C35.2625,2.33449765 35.4007486,1.94425156 35.67725,1.63275 C35.9537514,1.32124844 36.3229977,1.12700038 36.785,1.05 L36.785,1.42108547e-14 L37.415,1.42108547e-14 L37.415,1.0395 C37.7510017,1.07450018 38.0362488,1.16549927 38.27075,1.3125 C38.5052512,1.45950073 38.7169991,1.63449899 38.906,1.8375 L38.444,2.352 Z M40.325,6.4995 C40.521001,6.70250102 40.7537487,6.88099923 41.02325,7.035 C41.2927513,7.18900077 41.623498,7.266 42.0155,7.266 C42.218501,7.266 42.4092491,7.22925037 42.58775,7.15575 C42.7662509,7.08224963 42.9219993,6.97900066 43.055,6.846 C43.1880007,6.71299933 43.2929996,6.55200094 43.37,6.363 C43.4470004,6.17399906 43.4855,5.96400115 43.4855,5.733 C43.4855,5.27099769 43.3560013,4.9105013 43.097,4.6515 C42.8379987,4.3924987 42.4915022,4.263 42.0575,4.263 C41.8264988,4.263 41.6287508,4.29799965 41.46425,4.368 C41.2997492,4.43800035 41.116001,4.53949934 40.913,4.6725 L40.451,4.3785 L40.6715,1.155 L44.021,1.155 L44.021,1.9005 L41.4275,1.9005 L41.249,3.885 C41.4100008,3.80099958 41.5709992,3.73450025 41.732,3.6855 C41.8930008,3.63649976 42.074999,3.612 42.278,3.612 C42.5650014,3.612 42.8344987,3.65399958 43.0865,3.738 C43.3385013,3.82200042 43.5589991,3.94974914 43.748,4.12125 C43.9370009,4.29275086 44.0857495,4.50974869 44.19425,4.77225 C44.3027505,5.03475131 44.357,5.34799818 44.357,5.712 C44.357,6.07600182 44.2940006,6.3979986 44.168,6.678 C44.0419994,6.9580014 43.8740011,7.19424904 43.664,7.38675 C43.453999,7.57925096 43.2142513,7.72624949 42.94475,7.82775 C42.6752487,7.92925051 42.3935015,7.98 42.0995,7.98 C41.8334987,7.98 41.5902511,7.95375026 41.36975,7.90125 C41.1492489,7.84874974 40.9497509,7.78050042 40.77125,7.6965 C40.5927491,7.61249958 40.4317507,7.51625054 40.28825,7.40775 C40.1447493,7.29924946 40.0170006,7.18550059 39.905,7.0665 L40.325,6.4995 Z M45.776,0.966 L46.6475,0.966 L46.6475,4.4205 L46.679,4.4205 L49.5455,0.966 L50.5325,0.966 L48.38,3.591 L50.8685,7.854 L49.892,7.854 L47.834,4.2735 L46.6475,5.67 L46.6475,7.854 L45.776,7.854 L45.776,0.966 Z" id="$5K" fill="#848484" fill-rule="nonzero"></path>
                <path d="M3.444,2.352 C3.24799902,2.16299905 3.05725093,2.01600052 2.87175,1.911 C2.68624907,1.80599948 2.45000143,1.7535 2.163,1.7535 C1.84099839,1.7535 1.58550094,1.84449909 1.3965,2.0265 C1.20749905,2.20850091 1.113,2.45349846 1.113,2.7615 C1.113,3.01350126 1.18474928,3.21999919 1.32825,3.381 C1.47175072,3.54200081 1.65199891,3.68374939 1.869,3.80625 C2.08600108,3.92875061 2.32224872,4.04774942 2.57775,4.16325 C2.83325128,4.27875058 3.06949891,4.41874918 3.2865,4.58325 C3.50350108,4.74775082 3.68374928,4.95074879 3.82725,5.19225 C3.97075072,5.43375121 4.0425,5.74349811 4.0425,6.1215 C4.0425,6.62550252 3.89725145,7.03849839 3.60675,7.3605 C3.31624855,7.68250161 2.91900252,7.87849965 2.415,7.9485 L2.415,9.009 L1.785,9.009 L1.785,7.9695 C1.44899832,7.93449983 1.12350157,7.84175075 0.8085,7.69125 C0.493498425,7.54074925 0.22400112,7.36400101 0,7.161 L0.399,6.5625 C0.62300112,6.75850098 0.869748652,6.92474932 1.13925,7.06125 C1.40875135,7.19775068 1.70449839,7.266 2.0265,7.266 C2.41850196,7.266 2.71074904,7.16800098 2.90325,6.972 C3.09575096,6.77599902 3.192,6.51350165 3.192,6.1845 C3.192,5.9044986 3.12025072,5.67175093 2.97675,5.48625 C2.83324928,5.30074907 2.65300108,5.13975068 2.436,5.00325 C2.21899891,4.86674932 1.98275128,4.7390006 1.72725,4.62 C1.47174872,4.50099941 1.23550108,4.36450077 1.0185,4.2105 C0.801498915,4.05649923 0.621250717,3.8692511 0.47775,3.64875 C0.334249282,3.4282489 0.2625,3.14650172 0.2625,2.8035 C0.2625,2.33449765 0.400748617,1.94425156 0.67725,1.63275 C0.953751382,1.32124844 1.32299769,1.12700038 1.785,1.05 L1.785,1.42108547e-14 L2.415,1.42108547e-14 L2.415,1.0395 C2.75100168,1.07450018 3.03624883,1.16549927 3.27075,1.3125 C3.50525117,1.45950073 3.71699905,1.63449899 3.906,1.8375 L3.444,2.352 Z M7.257,7.98 C6.57799661,7.98 6.04950189,7.67900301 5.6715,7.077 C5.29349811,6.47499699 5.1045,5.61050563 5.1045,4.4835 C5.1045,3.35649436 5.29349811,2.49900294 5.6715,1.911 C6.04950189,1.32299706 6.57799661,1.029 7.257,1.029 C7.92900336,1.029 8.45399811,1.32299706 8.832,1.911 C9.21000189,2.49900294 9.399,3.35649436 9.399,4.4835 C9.399,5.61050563 9.21000189,6.47499699 8.832,7.077 C8.45399811,7.67900301 7.92900336,7.98 7.257,7.98 Z M7.257,7.287 C7.45300098,7.287 7.62974921,7.23275054 7.78725,7.12425 C7.94475079,7.01574946 8.08124942,6.84775114 8.19675,6.62025 C8.31225058,6.39274886 8.40149969,6.10225177 8.4645,5.74875 C8.52750032,5.39524823 8.559,4.97350245 8.559,4.4835 C8.559,3.99349755 8.52750032,3.57350175 8.4645,3.2235 C8.40149969,2.87349825 8.31225058,2.5882511 8.19675,2.36775 C8.08124942,2.1472489 7.94475079,1.98450053 7.78725,1.8795 C7.62974921,1.77449947 7.45300098,1.722 7.257,1.722 C7.06099902,1.722 6.88250081,1.77449947 6.7215,1.8795 C6.5604992,1.98450053 6.42225058,2.1472489 6.30675,2.36775 C6.19124942,2.5882511 6.10200032,2.87349825 6.039,3.2235 C5.97599969,3.57350175 5.9445,3.99349755 5.9445,4.4835 C5.9445,5.4635049 6.06524879,6.17574778 6.30675,6.62025 C6.54825121,7.06475222 6.86499804,7.287 7.257,7.287 Z M10.776,0.966 L11.6475,0.966 L11.6475,4.4205 L11.679,4.4205 L14.5455,0.966 L15.5325,0.966 L13.38,3.591 L15.8685,7.854 L14.892,7.854 L12.834,4.2735 L11.6475,5.67 L11.6475,7.854 L10.776,7.854 L10.776,0.966 Z" id="$0K" fill="#848484" fill-rule="nonzero"></path>
                <path d="M213.444,2.352 C213.247999,2.16299905 213.057251,2.01600052 212.87175,1.911 C212.686249,1.80599948 212.450001,1.7535 212.163,1.7535 C211.840998,1.7535 211.585501,1.84449909 211.3965,2.0265 C211.207499,2.20850091 211.113,2.45349846 211.113,2.7615 C211.113,3.01350126 211.184749,3.21999919 211.32825,3.381 C211.471751,3.54200081 211.651999,3.68374939 211.869,3.80625 C212.086001,3.92875061 212.322249,4.04774942 212.57775,4.16325 C212.833251,4.27875058 213.069499,4.41874918 213.2865,4.58325 C213.503501,4.74775082 213.683749,4.95074879 213.82725,5.19225 C213.970751,5.43375121 214.0425,5.74349811 214.0425,6.1215 C214.0425,6.62550252 213.897251,7.03849839 213.60675,7.3605 C213.316249,7.68250161 212.919003,7.87849965 212.415,7.9485 L212.415,9.009 L211.785,9.009 L211.785,7.9695 C211.448998,7.93449983 211.123502,7.84175075 210.8085,7.69125 C210.493498,7.54074925 210.224001,7.36400101 210,7.161 L210.399,6.5625 C210.623001,6.75850098 210.869749,6.92474932 211.13925,7.06125 C211.408751,7.19775068 211.704498,7.266 212.0265,7.266 C212.418502,7.266 212.710749,7.16800098 212.90325,6.972 C213.095751,6.77599902 213.192,6.51350165 213.192,6.1845 C213.192,5.9044986 213.120251,5.67175093 212.97675,5.48625 C212.833249,5.30074907 212.653001,5.13975068 212.436,5.00325 C212.218999,4.86674932 211.982751,4.7390006 211.72725,4.62 C211.471749,4.50099941 211.235501,4.36450077 211.0185,4.2105 C210.801499,4.05649923 210.621251,3.8692511 210.47775,3.64875 C210.334249,3.4282489 210.2625,3.14650172 210.2625,2.8035 C210.2625,2.33449765 210.400749,1.94425156 210.67725,1.63275 C210.953751,1.32124844 211.322998,1.12700038 211.785,1.05 L211.785,1.42108547e-14 L212.415,1.42108547e-14 L212.415,1.0395 C212.751002,1.07450018 213.036249,1.16549927 213.27075,1.3125 C213.505251,1.45950073 213.716999,1.63449899 213.906,1.8375 L213.444,2.352 Z M215.3565,6.468 C215.559501,6.67800105 215.795749,6.86349919 216.06525,7.0245 C216.334751,7.1855008 216.668998,7.266 217.068,7.266 C217.474002,7.266 217.806499,7.1557511 218.0655,6.93525 C218.324501,6.7147489 218.454,6.41550189 218.454,6.0375 C218.454,5.84149902 218.41725,5.66125082 218.34375,5.49675 C218.27025,5.33224918 218.149501,5.19050059 217.9815,5.0715 C217.813499,4.95249941 217.593001,4.86150031 217.32,4.7985 C217.046999,4.73549968 216.711002,4.704 216.312,4.704 L216.312,4.0425 C216.669002,4.0425 216.968249,4.01100032 217.20975,3.948 C217.451251,3.88499969 217.647249,3.79750056 217.79775,3.6855 C217.948251,3.57349944 218.055,3.44050077 218.118,3.2865 C218.181,3.13249923 218.2125,2.96800087 218.2125,2.793 C218.2125,2.46399835 218.109251,2.20500095 217.90275,2.016 C217.696249,1.82699906 217.414502,1.7325 217.0575,1.7325 C216.777499,1.7325 216.520251,1.79549937 216.28575,1.9215 C216.051249,2.04750063 215.832501,2.21199898 215.6295,2.415 L215.1675,1.869 C215.426501,1.62399878 215.711748,1.42275079 216.02325,1.26525 C216.334752,1.10774921 216.689998,1.029 217.089,1.029 C217.383001,1.029 217.652499,1.06749961 217.8975,1.1445 C218.142501,1.22150038 218.354249,1.33174928 218.53275,1.47525 C218.711251,1.61875072 218.8495,1.79549895 218.9475,2.0055 C219.0455,2.21550105 219.0945,2.45699864 219.0945,2.73 C219.0945,3.13600203 218.982501,3.4684987 218.7585,3.7275 C218.534499,3.98650129 218.240502,4.1859993 217.8765,4.326 L217.8765,4.368 C218.079501,4.41700025 218.268499,4.48874953 218.4435,4.58325 C218.618501,4.67775047 218.772499,4.79674928 218.9055,4.94025 C219.038501,5.08375072 219.14175,5.24999906 219.21525,5.439 C219.28875,5.62800095 219.3255,5.83799885 219.3255,6.069 C219.3255,6.36300147 219.267751,6.62899881 219.15225,6.867 C219.036749,7.10500119 218.879251,7.30624918 218.67975,7.47075 C218.480249,7.63525082 218.247501,7.76124956 217.9815,7.84875 C217.715499,7.93625044 217.428502,7.98 217.1205,7.98 C216.854499,7.98 216.611251,7.95375026 216.39075,7.90125 C216.170249,7.84874974 215.969001,7.77875044 215.787,7.69125 C215.604999,7.60374956 215.442251,7.50400056 215.29875,7.392 C215.155249,7.27999944 215.027501,7.16100063 214.9155,7.035 L215.3565,6.468 Z M222.4455,7.98 C221.766497,7.98 221.238002,7.67900301 220.86,7.077 C220.481998,6.47499699 220.293,5.61050563 220.293,4.4835 C220.293,3.35649436 220.481998,2.49900294 220.86,1.911 C221.238002,1.32299706 221.766497,1.029 222.4455,1.029 C223.117503,1.029 223.642498,1.32299706 224.0205,1.911 C224.398502,2.49900294 224.5875,3.35649436 224.5875,4.4835 C224.5875,5.61050563 224.398502,6.47499699 224.0205,7.077 C223.642498,7.67900301 223.117503,7.98 222.4455,7.98 Z M222.4455,7.287 C222.641501,7.287 222.818249,7.23275054 222.97575,7.12425 C223.133251,7.01574946 223.269749,6.84775114 223.38525,6.62025 C223.500751,6.39274886 223.59,6.10225177 223.653,5.74875 C223.716,5.39524823 223.7475,4.97350245 223.7475,4.4835 C223.7475,3.99349755 223.716,3.57350175 223.653,3.2235 C223.59,2.87349825 223.500751,2.5882511 223.38525,2.36775 C223.269749,2.1472489 223.133251,1.98450053 222.97575,1.8795 C222.818249,1.77449947 222.641501,1.722 222.4455,1.722 C222.249499,1.722 222.071001,1.77449947 221.91,1.8795 C221.748999,1.98450053 221.610751,2.1472489 221.49525,2.36775 C221.379749,2.5882511 221.2905,2.87349825 221.2275,3.2235 C221.1645,3.57350175 221.133,3.99349755 221.133,4.4835 C221.133,5.4635049 221.253749,6.17574778 221.49525,6.62025 C221.736751,7.06475222 222.053498,7.287 222.4455,7.287 Z M225.9645,0.966 L226.836,0.966 L226.836,4.4205 L226.8675,4.4205 L229.734,0.966 L230.721,0.966 L228.5685,3.591 L231.057,7.854 L230.0805,7.854 L228.0225,4.2735 L226.836,5.67 L226.836,7.854 L225.9645,7.854 L225.9645,0.966 Z" id="$30K" fill="#848484" fill-rule="nonzero"></path>
                <path d="M249.444,2.352 C249.247999,2.16299905 249.057251,2.01600052 248.87175,1.911 C248.686249,1.80599948 248.450001,1.7535 248.163,1.7535 C247.840998,1.7535 247.585501,1.84449909 247.3965,2.0265 C247.207499,2.20850091 247.113,2.45349846 247.113,2.7615 C247.113,3.01350126 247.184749,3.21999919 247.32825,3.381 C247.471751,3.54200081 247.651999,3.68374939 247.869,3.80625 C248.086001,3.92875061 248.322249,4.04774942 248.57775,4.16325 C248.833251,4.27875058 249.069499,4.41874918 249.2865,4.58325 C249.503501,4.74775082 249.683749,4.95074879 249.82725,5.19225 C249.970751,5.43375121 250.0425,5.74349811 250.0425,6.1215 C250.0425,6.62550252 249.897251,7.03849839 249.60675,7.3605 C249.316249,7.68250161 248.919003,7.87849965 248.415,7.9485 L248.415,9.009 L247.785,9.009 L247.785,7.9695 C247.448998,7.93449983 247.123502,7.84175075 246.8085,7.69125 C246.493498,7.54074925 246.224001,7.36400101 246,7.161 L246.399,6.5625 C246.623001,6.75850098 246.869749,6.92474932 247.13925,7.06125 C247.408751,7.19775068 247.704498,7.266 248.0265,7.266 C248.418502,7.266 248.710749,7.16800098 248.90325,6.972 C249.095751,6.77599902 249.192,6.51350165 249.192,6.1845 C249.192,5.9044986 249.120251,5.67175093 248.97675,5.48625 C248.833249,5.30074907 248.653001,5.13975068 248.436,5.00325 C248.218999,4.86674932 247.982751,4.7390006 247.72725,4.62 C247.471749,4.50099941 247.235501,4.36450077 247.0185,4.2105 C246.801499,4.05649923 246.621251,3.8692511 246.47775,3.64875 C246.334249,3.4282489 246.2625,3.14650172 246.2625,2.8035 C246.2625,2.33449765 246.400749,1.94425156 246.67725,1.63275 C246.953751,1.32124844 247.322998,1.12700038 247.785,1.05 L247.785,1.42108547e-14 L248.415,1.42108547e-14 L248.415,1.0395 C248.751002,1.07450018 249.036249,1.16549927 249.27075,1.3125 C249.505251,1.45950073 249.716999,1.63449899 249.906,1.8375 L249.444,2.352 Z M251.3565,6.468 C251.559501,6.67800105 251.795749,6.86349919 252.06525,7.0245 C252.334751,7.1855008 252.668998,7.266 253.068,7.266 C253.474002,7.266 253.806499,7.1557511 254.0655,6.93525 C254.324501,6.7147489 254.454,6.41550189 254.454,6.0375 C254.454,5.84149902 254.41725,5.66125082 254.34375,5.49675 C254.27025,5.33224918 254.149501,5.19050059 253.9815,5.0715 C253.813499,4.95249941 253.593001,4.86150031 253.32,4.7985 C253.046999,4.73549968 252.711002,4.704 252.312,4.704 L252.312,4.0425 C252.669002,4.0425 252.968249,4.01100032 253.20975,3.948 C253.451251,3.88499969 253.647249,3.79750056 253.79775,3.6855 C253.948251,3.57349944 254.055,3.44050077 254.118,3.2865 C254.181,3.13249923 254.2125,2.96800087 254.2125,2.793 C254.2125,2.46399835 254.109251,2.20500095 253.90275,2.016 C253.696249,1.82699906 253.414502,1.7325 253.0575,1.7325 C252.777499,1.7325 252.520251,1.79549937 252.28575,1.9215 C252.051249,2.04750063 251.832501,2.21199898 251.6295,2.415 L251.1675,1.869 C251.426501,1.62399878 251.711748,1.42275079 252.02325,1.26525 C252.334752,1.10774921 252.689998,1.029 253.089,1.029 C253.383001,1.029 253.652499,1.06749961 253.8975,1.1445 C254.142501,1.22150038 254.354249,1.33174928 254.53275,1.47525 C254.711251,1.61875072 254.8495,1.79549895 254.9475,2.0055 C255.0455,2.21550105 255.0945,2.45699864 255.0945,2.73 C255.0945,3.13600203 254.982501,3.4684987 254.7585,3.7275 C254.534499,3.98650129 254.240502,4.1859993 253.8765,4.326 L253.8765,4.368 C254.079501,4.41700025 254.268499,4.48874953 254.4435,4.58325 C254.618501,4.67775047 254.772499,4.79674928 254.9055,4.94025 C255.038501,5.08375072 255.14175,5.24999906 255.21525,5.439 C255.28875,5.62800095 255.3255,5.83799885 255.3255,6.069 C255.3255,6.36300147 255.267751,6.62899881 255.15225,6.867 C255.036749,7.10500119 254.879251,7.30624918 254.67975,7.47075 C254.480249,7.63525082 254.247501,7.76124956 253.9815,7.84875 C253.715499,7.93625044 253.428502,7.98 253.1205,7.98 C252.854499,7.98 252.611251,7.95375026 252.39075,7.90125 C252.170249,7.84874974 251.969001,7.77875044 251.787,7.69125 C251.604999,7.60374956 251.442251,7.50400056 251.29875,7.392 C251.155249,7.27999944 251.027501,7.16100063 250.9155,7.035 L251.3565,6.468 Z M256.5135,6.4995 C256.709501,6.70250102 256.942249,6.88099923 257.21175,7.035 C257.481251,7.18900077 257.811998,7.266 258.204,7.266 C258.407001,7.266 258.597749,7.22925037 258.77625,7.15575 C258.954751,7.08224963 259.110499,6.97900066 259.2435,6.846 C259.376501,6.71299933 259.4815,6.55200094 259.5585,6.363 C259.6355,6.17399906 259.674,5.96400115 259.674,5.733 C259.674,5.27099769 259.544501,4.9105013 259.2855,4.6515 C259.026499,4.3924987 258.680002,4.263 258.246,4.263 C258.014999,4.263 257.817251,4.29799965 257.65275,4.368 C257.488249,4.43800035 257.304501,4.53949934 257.1015,4.6725 L256.6395,4.3785 L256.86,1.155 L260.2095,1.155 L260.2095,1.9005 L257.616,1.9005 L257.4375,3.885 C257.598501,3.80099958 257.759499,3.73450025 257.9205,3.6855 C258.081501,3.63649976 258.263499,3.612 258.4665,3.612 C258.753501,3.612 259.022999,3.65399958 259.275,3.738 C259.527001,3.82200042 259.747499,3.94974914 259.9365,4.12125 C260.125501,4.29275086 260.274249,4.50974869 260.38275,4.77225 C260.491251,5.03475131 260.5455,5.34799818 260.5455,5.712 C260.5455,6.07600182 260.482501,6.3979986 260.3565,6.678 C260.230499,6.9580014 260.062501,7.19424904 259.8525,7.38675 C259.642499,7.57925096 259.402751,7.72624949 259.13325,7.82775 C258.863749,7.92925051 258.582001,7.98 258.288,7.98 C258.021999,7.98 257.778751,7.95375026 257.55825,7.90125 C257.337749,7.84874974 257.138251,7.78050042 256.95975,7.6965 C256.781249,7.61249958 256.620251,7.51625054 256.47675,7.40775 C256.333249,7.29924946 256.205501,7.18550059 256.0935,7.0665 L256.5135,6.4995 Z M261.9645,0.966 L262.836,0.966 L262.836,4.4205 L262.8675,4.4205 L265.734,0.966 L266.721,0.966 L264.5685,3.591 L267.057,7.854 L266.0805,7.854 L264.0225,4.2735 L262.836,5.67 L262.836,7.854 L261.9645,7.854 L261.9645,0.966 Z" id="$35K" fill="#848484" fill-rule="nonzero"></path>
                <path d="M142.444,2.352 C142.247999,2.16299905 142.057251,2.01600052 141.87175,1.911 C141.686249,1.80599948 141.450001,1.7535 141.163,1.7535 C140.840998,1.7535 140.585501,1.84449909 140.3965,2.0265 C140.207499,2.20850091 140.113,2.45349846 140.113,2.7615 C140.113,3.01350126 140.184749,3.21999919 140.32825,3.381 C140.471751,3.54200081 140.651999,3.68374939 140.869,3.80625 C141.086001,3.92875061 141.322249,4.04774942 141.57775,4.16325 C141.833251,4.27875058 142.069499,4.41874918 142.2865,4.58325 C142.503501,4.74775082 142.683749,4.95074879 142.82725,5.19225 C142.970751,5.43375121 143.0425,5.74349811 143.0425,6.1215 C143.0425,6.62550252 142.897251,7.03849839 142.60675,7.3605 C142.316249,7.68250161 141.919003,7.87849965 141.415,7.9485 L141.415,9.009 L140.785,9.009 L140.785,7.9695 C140.448998,7.93449983 140.123502,7.84175075 139.8085,7.69125 C139.493498,7.54074925 139.224001,7.36400101 139,7.161 L139.399,6.5625 C139.623001,6.75850098 139.869749,6.92474932 140.13925,7.06125 C140.408751,7.19775068 140.704498,7.266 141.0265,7.266 C141.418502,7.266 141.710749,7.16800098 141.90325,6.972 C142.095751,6.77599902 142.192,6.51350165 142.192,6.1845 C142.192,5.9044986 142.120251,5.67175093 141.97675,5.48625 C141.833249,5.30074907 141.653001,5.13975068 141.436,5.00325 C141.218999,4.86674932 140.982751,4.7390006 140.72725,4.62 C140.471749,4.50099941 140.235501,4.36450077 140.0185,4.2105 C139.801499,4.05649923 139.621251,3.8692511 139.47775,3.64875 C139.334249,3.4282489 139.2625,3.14650172 139.2625,2.8035 C139.2625,2.33449765 139.400749,1.94425156 139.67725,1.63275 C139.953751,1.32124844 140.322998,1.12700038 140.785,1.05 L140.785,1.42108547e-14 L141.415,1.42108547e-14 L141.415,1.0395 C141.751002,1.07450018 142.036249,1.16549927 142.27075,1.3125 C142.505251,1.45950073 142.716999,1.63449899 142.906,1.8375 L142.444,2.352 Z M144.0625,7.854 L144.0625,7.3395 L144.90922,6.48522015 C145.083939,6.30714057 145.249699,6.13690081 145.4065,5.9745 C145.798502,5.56849797 146.127499,5.19225173 146.3935,4.84575 C146.659501,4.49924827 146.862499,4.18075145 147.0025,3.89025 C147.142501,3.59974855 147.2125,3.31800137 147.2125,3.045 C147.2125,2.65999807 147.107501,2.34500122 146.8975,2.1 C146.687499,1.85499877 146.369002,1.7325 145.942,1.7325 C145.661999,1.7325 145.403001,1.81124921 145.165,1.96875 C144.926999,2.12625079 144.710001,2.31699888 144.514,2.541 L144.0205,2.0475 C144.300501,1.73949846 144.597998,1.49275093 144.913,1.30725 C145.228002,1.12174907 145.605998,1.029 146.047,1.029 C146.670003,1.029 147.159998,1.2092482 147.517,1.56975 C147.874002,1.9302518 148.0525,2.40799703 148.0525,3.003 C148.0525,3.31800157 147.984251,3.63474841 147.84775,3.95325 C147.711249,4.27175159 147.522251,4.6007483 147.28075,4.94025 C147.039249,5.2797517 146.752252,5.63324816 146.41975,6.00075 C146.087248,6.36825184 145.721502,6.75849793 145.3225,7.1715 L145.8895,7.1295 L145.8895,7.1295 C146.085501,7.11549993 146.270999,7.1085 146.446,7.1085 L148.3885,7.1085 L148.3885,7.854 L144.0625,7.854 Z M151.4455,7.98 C150.766497,7.98 150.238002,7.67900301 149.86,7.077 C149.481998,6.47499699 149.293,5.61050563 149.293,4.4835 C149.293,3.35649436 149.481998,2.49900294 149.86,1.911 C150.238002,1.32299706 150.766497,1.029 151.4455,1.029 C152.117503,1.029 152.642498,1.32299706 153.0205,1.911 C153.398502,2.49900294 153.5875,3.35649436 153.5875,4.4835 C153.5875,5.61050563 153.398502,6.47499699 153.0205,7.077 C152.642498,7.67900301 152.117503,7.98 151.4455,7.98 Z M151.4455,7.287 C151.641501,7.287 151.818249,7.23275054 151.97575,7.12425 C152.133251,7.01574946 152.269749,6.84775114 152.38525,6.62025 C152.500751,6.39274886 152.59,6.10225177 152.653,5.74875 C152.716,5.39524823 152.7475,4.97350245 152.7475,4.4835 C152.7475,3.99349755 152.716,3.57350175 152.653,3.2235 C152.59,2.87349825 152.500751,2.5882511 152.38525,2.36775 C152.269749,2.1472489 152.133251,1.98450053 151.97575,1.8795 C151.818249,1.77449947 151.641501,1.722 151.4455,1.722 C151.249499,1.722 151.071001,1.77449947 150.91,1.8795 C150.748999,1.98450053 150.610751,2.1472489 150.49525,2.36775 C150.379749,2.5882511 150.2905,2.87349825 150.2275,3.2235 C150.1645,3.57350175 150.133,3.99349755 150.133,4.4835 C150.133,5.4635049 150.253749,6.17574778 150.49525,6.62025 C150.736751,7.06475222 151.053498,7.287 151.4455,7.287 Z M154.9645,0.966 L155.836,0.966 L155.836,4.4205 L155.8675,4.4205 L158.734,0.966 L159.721,0.966 L157.5685,3.591 L160.057,7.854 L159.0805,7.854 L157.0225,4.2735 L155.836,5.67 L155.836,7.854 L154.9645,7.854 L154.9645,0.966 Z" id="$20K" fill="#848484" fill-rule="nonzero"></path>
                <path d="M178.444,2.352 C178.247999,2.16299905 178.057251,2.01600052 177.87175,1.911 C177.686249,1.80599948 177.450001,1.7535 177.163,1.7535 C176.840998,1.7535 176.585501,1.84449909 176.3965,2.0265 C176.207499,2.20850091 176.113,2.45349846 176.113,2.7615 C176.113,3.01350126 176.184749,3.21999919 176.32825,3.381 C176.471751,3.54200081 176.651999,3.68374939 176.869,3.80625 C177.086001,3.92875061 177.322249,4.04774942 177.57775,4.16325 C177.833251,4.27875058 178.069499,4.41874918 178.2865,4.58325 C178.503501,4.74775082 178.683749,4.95074879 178.82725,5.19225 C178.970751,5.43375121 179.0425,5.74349811 179.0425,6.1215 C179.0425,6.62550252 178.897251,7.03849839 178.60675,7.3605 C178.316249,7.68250161 177.919003,7.87849965 177.415,7.9485 L177.415,9.009 L176.785,9.009 L176.785,7.9695 C176.448998,7.93449983 176.123502,7.84175075 175.8085,7.69125 C175.493498,7.54074925 175.224001,7.36400101 175,7.161 L175.399,6.5625 C175.623001,6.75850098 175.869749,6.92474932 176.13925,7.06125 C176.408751,7.19775068 176.704498,7.266 177.0265,7.266 C177.418502,7.266 177.710749,7.16800098 177.90325,6.972 C178.095751,6.77599902 178.192,6.51350165 178.192,6.1845 C178.192,5.9044986 178.120251,5.67175093 177.97675,5.48625 C177.833249,5.30074907 177.653001,5.13975068 177.436,5.00325 C177.218999,4.86674932 176.982751,4.7390006 176.72725,4.62 C176.471749,4.50099941 176.235501,4.36450077 176.0185,4.2105 C175.801499,4.05649923 175.621251,3.8692511 175.47775,3.64875 C175.334249,3.4282489 175.2625,3.14650172 175.2625,2.8035 C175.2625,2.33449765 175.400749,1.94425156 175.67725,1.63275 C175.953751,1.32124844 176.322998,1.12700038 176.785,1.05 L176.785,1.42108547e-14 L177.415,1.42108547e-14 L177.415,1.0395 C177.751002,1.07450018 178.036249,1.16549927 178.27075,1.3125 C178.505251,1.45950073 178.716999,1.63449899 178.906,1.8375 L178.444,2.352 Z M180.0625,7.854 L180.0625,7.3395 L180.90922,6.48522015 C181.083939,6.30714057 181.249699,6.13690081 181.4065,5.9745 C181.798502,5.56849797 182.127499,5.19225173 182.3935,4.84575 C182.659501,4.49924827 182.862499,4.18075145 183.0025,3.89025 C183.142501,3.59974855 183.2125,3.31800137 183.2125,3.045 C183.2125,2.65999807 183.107501,2.34500122 182.8975,2.1 C182.687499,1.85499877 182.369002,1.7325 181.942,1.7325 C181.661999,1.7325 181.403001,1.81124921 181.165,1.96875 C180.926999,2.12625079 180.710001,2.31699888 180.514,2.541 L180.0205,2.0475 C180.300501,1.73949846 180.597998,1.49275093 180.913,1.30725 C181.228002,1.12174907 181.605998,1.029 182.047,1.029 C182.670003,1.029 183.159998,1.2092482 183.517,1.56975 C183.874002,1.9302518 184.0525,2.40799703 184.0525,3.003 C184.0525,3.31800157 183.984251,3.63474841 183.84775,3.95325 C183.711249,4.27175159 183.522251,4.6007483 183.28075,4.94025 C183.039249,5.2797517 182.752252,5.63324816 182.41975,6.00075 C182.087248,6.36825184 181.721502,6.75849793 181.3225,7.1715 L181.8895,7.1295 L181.8895,7.1295 C182.085501,7.11549993 182.270999,7.1085 182.446,7.1085 L184.3885,7.1085 L184.3885,7.854 L180.0625,7.854 Z M185.5135,6.4995 C185.709501,6.70250102 185.942249,6.88099923 186.21175,7.035 C186.481251,7.18900077 186.811998,7.266 187.204,7.266 C187.407001,7.266 187.597749,7.22925037 187.77625,7.15575 C187.954751,7.08224963 188.110499,6.97900066 188.2435,6.846 C188.376501,6.71299933 188.4815,6.55200094 188.5585,6.363 C188.6355,6.17399906 188.674,5.96400115 188.674,5.733 C188.674,5.27099769 188.544501,4.9105013 188.2855,4.6515 C188.026499,4.3924987 187.680002,4.263 187.246,4.263 C187.014999,4.263 186.817251,4.29799965 186.65275,4.368 C186.488249,4.43800035 186.304501,4.53949934 186.1015,4.6725 L185.6395,4.3785 L185.86,1.155 L189.2095,1.155 L189.2095,1.9005 L186.616,1.9005 L186.4375,3.885 C186.598501,3.80099958 186.759499,3.73450025 186.9205,3.6855 C187.081501,3.63649976 187.263499,3.612 187.4665,3.612 C187.753501,3.612 188.022999,3.65399958 188.275,3.738 C188.527001,3.82200042 188.747499,3.94974914 188.9365,4.12125 C189.125501,4.29275086 189.274249,4.50974869 189.38275,4.77225 C189.491251,5.03475131 189.5455,5.34799818 189.5455,5.712 C189.5455,6.07600182 189.482501,6.3979986 189.3565,6.678 C189.230499,6.9580014 189.062501,7.19424904 188.8525,7.38675 C188.642499,7.57925096 188.402751,7.72624949 188.13325,7.82775 C187.863749,7.92925051 187.582001,7.98 187.288,7.98 C187.021999,7.98 186.778751,7.95375026 186.55825,7.90125 C186.337749,7.84874974 186.138251,7.78050042 185.95975,7.6965 C185.781249,7.61249958 185.620251,7.51625054 185.47675,7.40775 C185.333249,7.29924946 185.205501,7.18550059 185.0935,7.0665 L185.5135,6.4995 Z M190.9645,0.966 L191.836,0.966 L191.836,4.4205 L191.8675,4.4205 L194.734,0.966 L195.721,0.966 L193.5685,3.591 L196.057,7.854 L195.0805,7.854 L193.0225,4.2735 L191.836,5.67 L191.836,7.854 L190.9645,7.854 L190.9645,0.966 Z" id="$25K" fill="#848484" fill-rule="nonzero"></path>
                <path d="M284.444,2.352 C284.247999,2.16299905 284.057251,2.01600052 283.87175,1.911 C283.686249,1.80599948 283.450001,1.7535 283.163,1.7535 C282.840998,1.7535 282.585501,1.84449909 282.3965,2.0265 C282.207499,2.20850091 282.113,2.45349846 282.113,2.7615 C282.113,3.01350126 282.184749,3.21999919 282.32825,3.381 C282.471751,3.54200081 282.651999,3.68374939 282.869,3.80625 C283.086001,3.92875061 283.322249,4.04774942 283.57775,4.16325 C283.833251,4.27875058 284.069499,4.41874918 284.2865,4.58325 C284.503501,4.74775082 284.683749,4.95074879 284.82725,5.19225 C284.970751,5.43375121 285.0425,5.74349811 285.0425,6.1215 C285.0425,6.62550252 284.897251,7.03849839 284.60675,7.3605 C284.316249,7.68250161 283.919003,7.87849965 283.415,7.9485 L283.415,9.009 L282.785,9.009 L282.785,7.9695 C282.448998,7.93449983 282.123502,7.84175075 281.8085,7.69125 C281.493498,7.54074925 281.224001,7.36400101 281,7.161 L281.399,6.5625 C281.623001,6.75850098 281.869749,6.92474932 282.13925,7.06125 C282.408751,7.19775068 282.704498,7.266 283.0265,7.266 C283.418502,7.266 283.710749,7.16800098 283.90325,6.972 C284.095751,6.77599902 284.192,6.51350165 284.192,6.1845 C284.192,5.9044986 284.120251,5.67175093 283.97675,5.48625 C283.833249,5.30074907 283.653001,5.13975068 283.436,5.00325 C283.218999,4.86674932 282.982751,4.7390006 282.72725,4.62 C282.471749,4.50099941 282.235501,4.36450077 282.0185,4.2105 C281.801499,4.05649923 281.621251,3.8692511 281.47775,3.64875 C281.334249,3.4282489 281.2625,3.14650172 281.2625,2.8035 C281.2625,2.33449765 281.400749,1.94425156 281.67725,1.63275 C281.953751,1.32124844 282.322998,1.12700038 282.785,1.05 L282.785,1.42108547e-14 L283.415,1.42108547e-14 L283.415,1.0395 C283.751002,1.07450018 284.036249,1.16549927 284.27075,1.3125 C284.505251,1.45950073 284.716999,1.63449899 284.906,1.8375 L284.444,2.352 Z M286.7345,5.313 L288.8345,5.313 L288.8345,3.3705 C288.8345,3.23399932 288.837453,3.07879723 288.843359,2.90489102 L288.867312,2.37693738 C288.873437,2.26931264 288.88,2.17000045 288.887,2.079 L288.845,2.079 C288.761,2.24000081 288.6735,2.39749923 288.5825,2.5515 L288.299,3.024 L288.299,3.024 L286.7345,5.313 Z M290.567,6.006 L289.6535,6.006 L289.6535,7.854 L288.8345,7.854 L288.8345,6.006 L285.821,6.006 L285.821,5.439 L288.6875,1.155 L289.6535,1.155 L289.6535,5.313 L290.567,5.313 L290.567,6.006 Z M293.4455,7.98 C292.766497,7.98 292.238002,7.67900301 291.86,7.077 C291.481998,6.47499699 291.293,5.61050563 291.293,4.4835 C291.293,3.35649436 291.481998,2.49900294 291.86,1.911 C292.238002,1.32299706 292.766497,1.029 293.4455,1.029 C294.117503,1.029 294.642498,1.32299706 295.0205,1.911 C295.398502,2.49900294 295.5875,3.35649436 295.5875,4.4835 C295.5875,5.61050563 295.398502,6.47499699 295.0205,7.077 C294.642498,7.67900301 294.117503,7.98 293.4455,7.98 Z M293.4455,7.287 C293.641501,7.287 293.818249,7.23275054 293.97575,7.12425 C294.133251,7.01574946 294.269749,6.84775114 294.38525,6.62025 C294.500751,6.39274886 294.59,6.10225177 294.653,5.74875 C294.716,5.39524823 294.7475,4.97350245 294.7475,4.4835 C294.7475,3.99349755 294.716,3.57350175 294.653,3.2235 C294.59,2.87349825 294.500751,2.5882511 294.38525,2.36775 C294.269749,2.1472489 294.133251,1.98450053 293.97575,1.8795 C293.818249,1.77449947 293.641501,1.722 293.4455,1.722 C293.249499,1.722 293.071001,1.77449947 292.91,1.8795 C292.748999,1.98450053 292.610751,2.1472489 292.49525,2.36775 C292.379749,2.5882511 292.2905,2.87349825 292.2275,3.2235 C292.1645,3.57350175 292.133,3.99349755 292.133,4.4835 C292.133,5.4635049 292.253749,6.17574778 292.49525,6.62025 C292.736751,7.06475222 293.053498,7.287 293.4455,7.287 Z M296.9645,0.966 L297.836,0.966 L297.836,4.4205 L297.8675,4.4205 L300.734,0.966 L301.721,0.966 L299.5685,3.591 L302.057,7.854 L301.0805,7.854 L299.0225,4.2735 L297.836,5.67 L297.836,7.854 L296.9645,7.854 L296.9645,0.966 Z" id="$40K" fill="#848484" fill-rule="nonzero"></path>
                <path d="M120.954,44.711761 C120.14927,45.4653214 118.55829,45.8244345 117.454,45.854 C118.936398,44.8206486 120.229358,43.478662 120.954,41.854 C121.647839,43.478662 123.019347,44.7615176 124.454,45.854 C123.271932,45.7653034 121.836508,45.494887 120.954,44.711761" id="Fill-14" fill="#636363"></path>
                <path d="M2.329,41.854 L2.329,15.854 C2.329,15.6468932 2.16110678,15.479 1.954,15.479 C1.74689322,15.479 1.579,15.6468932 1.579,15.854 L1.579,41.854 C1.579,42.0611068 1.74689322,42.229 1.954,42.229 C2.16110678,42.229 2.329,42.0611068 2.329,41.854 Z" id="Stroke-4" fill="#D1D1D1" fill-rule="nonzero"></path>
                <path d="M76.329,41.854 L76.329,15.854 C76.329,15.6468932 76.1611068,15.479 75.954,15.479 C75.7468932,15.479 75.579,15.6468932 75.579,15.854 L75.579,41.854 C75.579,42.0611068 75.7468932,42.229 75.954,42.229 C76.1611068,42.229 76.329,42.0611068 76.329,41.854 Z" id="Stroke-5" fill="#D1D1D1" fill-rule="nonzero"></path>
                <path d="M39.329,41.854 L39.329,15.854 C39.329,15.6468932 39.1611068,15.479 38.954,15.479 C38.7468932,15.479 38.579,15.6468932 38.579,15.854 L38.579,41.854 C38.579,42.0611068 38.7468932,42.229 38.954,42.229 C39.1611068,42.229 39.329,42.0611068 39.329,41.854 Z" id="Stroke-6" fill="#D1D1D1" fill-rule="nonzero"></path>
                <path d="M113.329,41.854 L113.329,15.854 C113.329,15.6468932 113.161107,15.479 112.954,15.479 C112.746893,15.479 112.579,15.6468932 112.579,15.854 L112.579,41.854 C112.579,42.0611068 112.746893,42.229 112.954,42.229 C113.161107,42.229 113.329,42.0611068 113.329,41.854 Z" id="Stroke-7" fill="#D1D1D1" fill-rule="nonzero"></path>
                <path d="M188.329,41.854 L188.329,15.854 C188.329,15.6468932 188.161107,15.479 187.954,15.479 C187.746893,15.479 187.579,15.6468932 187.579,15.854 L187.579,41.854 C187.579,42.0611068 187.746893,42.229 187.954,42.229 C188.161107,42.229 188.329,42.0611068 188.329,41.854 Z" id="Stroke-8" fill="#D1D1D1" fill-rule="nonzero"></path>
                <path d="M262.329,41.854 L262.329,15.854 C262.329,15.6468932 262.161107,15.479 261.954,15.479 C261.746893,15.479 261.579,15.6468932 261.579,15.854 L261.579,41.854 C261.579,42.0611068 261.746893,42.229 261.954,42.229 C262.161107,42.229 262.329,42.0611068 262.329,41.854 Z" id="Stroke-9" fill="#D1D1D1" fill-rule="nonzero"></path>
                <path d="M151.329,41.854 L151.329,15.854 C151.329,15.6468932 151.161107,15.479 150.954,15.479 C150.746893,15.479 150.579,15.6468932 150.579,15.854 L150.579,41.854 C150.579,42.0611068 150.746893,42.229 150.954,42.229 C151.161107,42.229 151.329,42.0611068 151.329,41.854 Z" id="Stroke-10" fill="#D1D1D1" fill-rule="nonzero"></path>
                <path d="M225.329,41.854 L225.329,15.854 C225.329,15.6468932 225.161107,15.479 224.954,15.479 C224.746893,15.479 224.579,15.6468932 224.579,15.854 L224.579,41.854 C224.579,42.0611068 224.746893,42.229 224.954,42.229 C225.161107,42.229 225.329,42.0611068 225.329,41.854 Z" id="Stroke-11" fill="#D1D1D1" fill-rule="nonzero"></path>
                <path d="M299.329,41.854 L299.329,15.854 C299.329,15.6468932 299.161107,15.479 298.954,15.479 C298.746893,15.479 298.579,15.6468932 298.579,15.854 L298.579,41.854 C298.579,42.0611068 298.746893,42.229 298.954,42.229 C299.161107,42.229 299.329,42.0611068 299.329,41.854 Z" id="Stroke-12" fill="#D1D1D1" fill-rule="nonzero"></path>
                <path d="M61.9685,62.4415 C61.9685,61.8814972 62.0507492,61.3792522 62.21525,60.93475 C62.3797508,60.4902478 62.6054986,60.1140015 62.8925,59.806 C63.1795014,59.4979985 63.5154981,59.2635008 63.9005,59.1025 C64.2855019,58.9414992 64.6984978,58.861 65.1395,58.861 C65.5595021,58.861 65.9357483,58.9484991 66.26825,59.1235 C66.6007517,59.2985009 66.8754989,59.5014988 67.0925,59.7325 L66.41,60.4885 C66.2349991,60.3134991 66.047751,60.1752505 65.84825,60.07375 C65.648749,59.9722495 65.4160013,59.9215 65.15,59.9215 C64.8629986,59.9215 64.6022512,59.9792494 64.36775,60.09475 C64.1332488,60.2102506 63.9302509,60.3747489 63.75875,60.58825 C63.5872491,60.8017511 63.4542505,61.0624985 63.35975,61.3705 C63.2652495,61.6785015 63.218,62.0249981 63.218,62.41 C63.218,63.1940039 63.3877483,63.8082478 63.72725,64.25275 C64.0667517,64.6972522 64.5269971,64.9195 65.108,64.9195 C65.4160015,64.9195 65.6837489,64.8600006 65.91125,64.741 C66.1387511,64.6219994 66.350499,64.4540011 66.5465,64.237 L67.229,64.9825 C66.9489986,65.3045016 66.6305018,65.5512491 66.2735,65.72275 C65.9164982,65.8942509 65.5210022,65.98 65.087,65.98 C64.6459978,65.98 64.2365019,65.9030008 63.8585,65.749 C63.4804981,65.5949992 63.1515014,65.3675015 62.8715,65.0665 C62.5914986,64.7654985 62.3710008,64.3945022 62.21,63.9535 C62.0489992,63.5124978 61.9685,63.0085028 61.9685,62.4415 Z M68.3585,58.987 L69.5765,58.987 L69.5765,64.825 L72.4325,64.825 L72.4325,65.854 L68.3585,65.854 L68.3585,58.987 Z M72.89,58.987 L74.108,58.987 L74.108,62.935 C74.108,63.3060019 74.1412497,63.6192487 74.20775,63.87475 C74.2742503,64.1302513 74.3687494,64.3349992 74.49125,64.489 C74.6137506,64.6430008 74.7589992,64.7532497 74.927,64.81975 C75.0950008,64.8862503 75.283999,64.9195 75.494,64.9195 C75.7040011,64.9195 75.8964991,64.8862503 76.0715,64.81975 C76.2465009,64.7532497 76.3969994,64.6430008 76.523,64.489 C76.6490006,64.3349992 76.7469997,64.1302513 76.817,63.87475 C76.8870004,63.6192487 76.922,63.3060019 76.922,62.935 L76.922,58.987 L78.0875,58.987 L78.0875,62.8405 C78.0875,63.4075028 78.0280006,63.888748 77.909,64.28425 C77.7899994,64.679752 77.6167511,65.0034987 77.38925,65.2555 C77.1617489,65.5075013 76.8887516,65.6912494 76.57025,65.80675 C76.2517484,65.9222506 75.893002,65.98 75.494,65.98 C75.094998,65.98 74.7362516,65.9222506 74.41775,65.80675 C74.0992484,65.6912494 73.8262511,65.5075013 73.59875,65.2555 C73.3712489,65.0034987 73.1962506,64.679752 73.07375,64.28425 C72.9512494,63.888748 72.89,63.4075028 72.89,62.8405 L72.89,58.987 Z M79.8155,64.1425 C80.0605012,64.3735012 80.3404984,64.5607493 80.6555,64.70425 C80.9705016,64.8477507 81.2854984,64.9195 81.6005,64.9195 C81.992502,64.9195 82.289999,64.8390008 82.493,64.678 C82.696001,64.5169992 82.7975,64.3035013 82.7975,64.0375 C82.7975,63.8974993 82.7712503,63.7785005 82.71875,63.6805 C82.6662497,63.5824995 82.5927505,63.4967504 82.49825,63.42325 C82.4037495,63.3497496 82.2917507,63.2815003 82.16225,63.2185 L82.0286666,63.1554999 L82.0286666,63.1554999 L80.792,62.62 C80.6239992,62.5499996 80.4577508,62.4625005 80.29325,62.3575 C80.1287492,62.2524995 79.9800007,62.1265007 79.847,61.9795 C79.7139993,61.8324993 79.6072504,61.661001 79.52675,61.465 C79.4462496,61.268999 79.406,61.0450013 79.406,60.793 C79.406,60.5199986 79.4637494,60.2662512 79.57925,60.03175 C79.6947506,59.7972488 79.853999,59.5925009 80.057,59.4175 C80.260001,59.2424991 80.5032486,59.1060005 80.78675,59.008 C81.0702514,58.9099995 81.3799983,58.861 81.716,58.861 C82.115002,58.861 82.4999982,58.9397492 82.871,59.09725 C83.2420019,59.2547508 83.5604987,59.4664987 83.8265,59.7325 L83.207,60.5095 C82.9829989,60.3274991 82.7520012,60.1840005 82.514,60.079 C82.2759988,59.9739995 82.0100015,59.9215 81.716,59.9215 C81.3869984,59.9215 81.124501,59.9932493 80.9285,60.13675 C80.732499,60.2802507 80.6345,60.4779987 80.6345,60.73 C80.6345,60.8630007 80.6642497,60.9767495 80.72375,61.07125 C80.7832503,61.1657505 80.8637495,61.2497496 80.96525,61.32325 C81.0667505,61.3967504 81.1839993,61.4632497 81.317,61.52275 L81.519125,61.6106875 L81.519125,61.6106875 L82.661,62.0845 C82.864001,62.1685004 83.0494992,62.2664994 83.2175,62.3785 C83.3855008,62.4905006 83.5307494,62.6199993 83.65325,62.767 C83.7757506,62.9140007 83.8719997,63.083749 83.942,63.27625 C84.0120004,63.468751 84.047,63.6909987 84.047,63.943 C84.047,64.2230014 83.9910006,64.4854988 83.879,64.7305 C83.7669994,64.9755012 83.6042511,65.1907491 83.39075,65.37625 C83.1772489,65.5617509 82.9182515,65.7087495 82.61375,65.81725 C82.3092485,65.9257505 81.9645019,65.98 81.5795,65.98 C81.1174977,65.98 80.6712522,65.8925009 80.24075,65.7175 C79.8102479,65.5424991 79.4305017,65.2940016 79.1015,64.972 L79.8155,64.1425 Z M86.2475,60.016 L84.263,60.016 L84.263,58.987 L89.45,58.987 L89.45,60.016 L87.4655,60.016 L87.4655,65.854 L86.2475,65.854 L86.2475,60.016 Z M90.5795,58.987 L94.7165,58.987 L94.7165,60.016 L91.7975,60.016 L91.7975,61.7695 L94.265,61.7695 L94.265,62.7985 L91.7975,62.7985 L91.7975,64.825 L94.8215,64.825 L94.8215,65.854 L90.5795,65.854 L90.5795,58.987 Z M97.4315,62.2 L98.408,62.2 C98.8770023,62.2 99.2357488,62.102001 99.48425,61.906 C99.7327512,61.709999 99.857,61.416002 99.857,61.024 C99.857,60.624998 99.7327512,60.3485008 99.48425,60.1945 C99.2357488,60.0404992 98.8770023,59.9635 98.408,59.9635 L97.4315,59.9635 L97.4315,62.2 Z M99.962,65.854 L98.4815,63.166 L97.4315,63.166 L97.4315,65.854 L96.2135,65.854 L96.2135,58.987 L98.534,58.987 C98.8910018,58.987 99.2234985,59.0219996 99.5315,59.092 C99.8395015,59.1620003 100.105499,59.2757492 100.3295,59.43325 C100.553501,59.5907508 100.730249,59.7989987 100.85975,60.058 C100.989251,60.3170013 101.054,60.6389981 101.054,61.024 C101.054,61.5490026 100.929751,61.9724984 100.68125,62.2945 C100.432749,62.6165016 100.102002,62.8474993 99.689,62.9875 L101.327,65.854 L99.962,65.854 Z M104.6255,58.987 L105.9695,58.987 L107.2085,62.368 L107.66,63.67 L107.702,63.67 L108.143,62.368 L109.361,58.987 L110.705,58.987 L110.705,65.854 L109.5605,65.854 L109.5605,62.7145 L109.5675,62.3738336 L109.5675,62.3738336 L109.57625,62.1895 C109.58675,62.0004991 109.599,61.809751 109.613,61.61725 L109.636625,61.331125 L109.636625,61.331125 L109.718,60.5305 L109.718,60.5305 L109.676,60.5305 L109.1195,62.095 L107.933,65.2135 L107.366,65.2135 L106.1795,62.095 L105.6335,60.5305 L105.5915,60.5305 L105.69125,61.61725 L105.69125,61.61725 C105.70875,61.809751 105.72275,62.0004991 105.73325,62.1895 C105.74375,62.3785009 105.749,62.5534992 105.749,62.7145 L105.749,65.854 L104.6255,65.854 L104.6255,58.987 Z M112.433,58.987 L116.57,58.987 L116.57,60.016 L113.651,60.016 L113.651,61.7695 L116.1185,61.7695 L116.1185,62.7985 L113.651,62.7985 L113.651,64.825 L116.675,64.825 L116.675,65.854 L112.433,65.854 L112.433,58.987 Z M118.067,58.987 L119.9045,58.987 C120.954505,58.987 121.773497,59.2704972 122.3615,59.8375 C122.949503,60.4045028 123.2435,61.2549943 123.2435,62.389 C123.2435,62.9560028 123.168251,63.4564978 123.01775,63.8905 C122.867249,64.3245022 122.650251,64.6867485 122.36675,64.97725 C122.083249,65.2677515 121.740252,65.4864993 121.33775,65.6335 C120.935248,65.7805007 120.478503,65.854 119.9675,65.854 L118.067,65.854 L118.067,58.987 Z M119.8205,64.867 C120.520504,64.867 121.057748,64.665752 121.43225,64.26325 C121.806752,63.860748 121.994,63.2360042 121.994,62.389 C121.994,61.5489958 121.805002,60.9365019 121.427,60.5515 C121.048998,60.1664981 120.513503,59.974 119.8205,59.974 L119.285,59.974 L119.285,64.867 L119.8205,64.867 Z M124.6145,58.987 L125.8325,58.987 L125.8325,65.854 L124.6145,65.854 L124.6145,58.987 Z M130.4795,63.04 L130.238,62.2 C130.125999,61.8359982 130.019251,61.4615019 129.91775,61.0765 L129.6185,59.932 L129.6185,59.932 L129.5765,59.932 L129.2825,61.08175 L129.2825,61.08175 C129.1845,61.4632519 129.079501,61.8359982 128.9675,62.2 L128.726,63.04 L130.4795,63.04 Z M130.7525,63.9955 L128.4425,63.9955 L127.907,65.854 L126.668,65.854 L128.9045,58.987 L130.3325,58.987 L132.569,65.854 L131.288,65.854 L130.7525,63.9955 Z M133.4045,58.987 L134.654,58.987 L136.796,62.851 L137.4995,64.3105 L137.5415,64.3105 L137.4785,63.5615005 C137.466833,63.430834 137.454583,63.2972507 137.44175,63.16075 C137.40325,62.751248 137.384,62.3540019 137.384,61.969 L137.384,58.987 L138.5495,58.987 L138.5495,65.854 L137.3,65.854 L135.158,61.99 L134.4545,60.5305 L134.4125,60.5305 L134.4755,61.2818329 C134.487167,61.4109438 134.499417,61.5419993 134.51225,61.675 C134.55075,62.074002 134.57,62.4659981 134.57,62.851 L134.57,65.854 L133.4045,65.854 L133.4045,58.987 Z M140.0675,61.57 C140.0675,61.3319988 140.142749,61.1360008 140.29325,60.982 C140.443751,60.8279992 140.630999,60.751 140.855,60.751 C141.079001,60.751 141.264499,60.8279992 141.4115,60.982 C141.558501,61.1360008 141.632,61.3319988 141.632,61.57 C141.632,61.8080012 141.558501,62.0039992 141.4115,62.158 C141.264499,62.3120008 141.079001,62.389 140.855,62.389 C140.630999,62.389 140.443751,62.3120008 140.29325,62.158 C140.142749,62.0039992 140.0675,61.8080012 140.0675,61.57 Z M140.0675,65.161 C140.0675,64.9229988 140.142749,64.7270008 140.29325,64.573 C140.443751,64.4189992 140.630999,64.342 140.855,64.342 C141.079001,64.342 141.264499,64.4189992 141.4115,64.573 C141.558501,64.7270008 141.632,64.9229988 141.632,65.161 C141.632,65.3990012 141.558501,65.5949992 141.4115,65.749 C141.264499,65.9030008 141.079001,65.98 140.855,65.98 C140.630999,65.98 140.443751,65.9030008 140.29325,65.749 C140.142749,65.5949992 140.0675,65.3990012 140.0675,65.161 Z M148.448,60.5935 C148.251999,60.4114991 148.063001,60.2732505 147.881,60.17875 C147.698999,60.0842495 147.482001,60.037 147.23,60.037 C146.942999,60.037 146.719001,60.1087493 146.558,60.25225 C146.396999,60.3957507 146.3165,60.6039986 146.3165,60.877 C146.3165,61.087001 146.386499,61.2602493 146.5265,61.39675 C146.666501,61.5332507 146.843249,61.6592494 147.05675,61.77475 C147.270251,61.8902506 147.499499,62.0057494 147.7445,62.12125 C147.989501,62.2367506 148.218749,62.3749992 148.43225,62.536 C148.645751,62.6970008 148.822499,62.8947488 148.9625,63.12925 C149.102501,63.3637512 149.1725,63.6559982 149.1725,64.006 C149.1725,64.5100025 149.032501,64.9317483 148.7525,65.27125 C148.472499,65.6107517 148.070003,65.8294995 147.545,65.9275 L147.545,67.009 L146.705,67.009 L146.705,65.959 C146.382998,65.9239998 146.059252,65.8382507 145.73375,65.70175 C145.408248,65.5652493 145.126501,65.3850011 144.8885,65.161 L145.4345,64.342 C145.679501,64.538001 145.927999,64.6954994 146.18,64.8145 C146.432001,64.9335006 146.701499,64.993 146.9885,64.993 C147.331502,64.993 147.586999,64.9142508 147.755,64.75675 C147.923001,64.5992492 148.007,64.3770014 148.007,64.09 C148.007,63.8589988 147.937001,63.6665008 147.797,63.5125 C147.656999,63.3584992 147.480251,63.2185006 147.26675,63.0925 C147.053249,62.9664994 146.824001,62.8457506 146.579,62.73025 C146.333999,62.6147494 146.104751,62.4782508 145.89125,62.32075 C145.677749,62.1632492 145.501001,61.9742511 145.361,61.75375 C145.220999,61.5332489 145.151,61.2585016 145.151,60.9295 C145.151,60.4394975 145.290999,60.0317516 145.571,59.70625 C145.851001,59.3807484 146.228998,59.1760004 146.705,59.092 L146.705,58.021 L147.545,58.021 L147.545,59.071 C147.881002,59.1130002 148.169749,59.2092492 148.41125,59.35975 C148.652751,59.5102508 148.871499,59.686999 149.0675,59.89 L148.448,60.5935 Z M150.5645,64.867 L152.0555,64.867 L152.0555,60.478 L150.827,60.478 L150.827,59.722 C151.163002,59.6589997 151.451749,59.5837504 151.69325,59.49625 C151.934751,59.4087496 152.160499,59.3020006 152.3705,59.176 L153.2735,59.176 L153.2735,64.867 L154.586,64.867 L154.586,65.854 L150.5645,65.854 L150.5645,64.867 Z M155.9675,64.279 C156.170501,64.4680009 156.397999,64.6342493 156.65,64.77775 C156.902001,64.9212507 157.195998,64.993 157.532,64.993 C157.910002,64.993 158.219749,64.8810011 158.46125,64.657 C158.702751,64.4329989 158.8235,64.118002 158.8235,63.712 C158.8235,63.312998 158.711501,63.0050011 158.4875,62.788 C158.263499,62.5709989 157.966002,62.4625 157.595,62.4625 C157.377999,62.4625 157.196001,62.4922497 157.049,62.55175 C156.901999,62.6112503 156.727001,62.7074993 156.524,62.8405 L155.9465,62.473 L156.146,59.176 L159.716,59.176 L159.716,60.1945 L157.196,60.1945 L157.0595,61.8115 C157.199501,61.7414996 157.337749,61.6872502 157.47425,61.64875 C157.610751,61.6102498 157.766499,61.591 157.9415,61.591 C158.228501,61.591 158.499749,61.6329996 158.75525,61.717 C159.010751,61.8010004 159.232999,61.9287491 159.422,62.10025 C159.611001,62.2717509 159.761499,62.4887487 159.8735,62.75125 C159.985501,63.0137513 160.0415,63.3234982 160.0415,63.6805 C160.0415,64.0445018 159.976751,64.3699986 159.84725,64.657 C159.717749,64.9440014 159.544501,65.185499 159.3275,65.3815 C159.110499,65.577501 158.860251,65.7262495 158.57675,65.82775 C158.293249,65.9292505 157.997502,65.98 157.6895,65.98 C157.150497,65.98 156.697252,65.8872509 156.32975,65.70175 C155.962248,65.5162491 155.656001,65.3010012 155.411,65.056 L155.9675,64.279 Z M161.024,67.1035 C161.360002,66.9704993 161.620749,66.7920011 161.80625,66.568 C161.991751,66.3439989 162.0845,66.0990013 162.0845,65.833 L161.99,65.833 C161.786999,65.833 161.606751,65.7682506 161.44925,65.63875 C161.291749,65.5092494 161.213,65.3255012 161.213,65.0875 C161.213,64.8634989 161.291749,64.6832507 161.44925,64.54675 C161.606751,64.4102493 161.797499,64.342 162.0215,64.342 C162.308501,64.342 162.530749,64.4504989 162.68825,64.6675 C162.845751,64.8845011 162.9245,65.188998 162.9245,65.581 C162.9245,66.0990026 162.782751,66.5469981 162.49925,66.925 C162.215749,67.3030019 161.811503,67.5829991 161.2865,67.765 L161.024,67.1035 Z M165.167,65.854 C165.195,65.258997 165.2475,64.7147525 165.3245,64.22125 C165.4015,63.7277475 165.511749,63.2570022 165.65525,62.809 C165.798751,62.3609978 165.982499,61.9252521 166.2065,61.50175 C166.430501,61.0782479 166.703498,60.6425022 167.0255,60.1945 L163.865,60.1945 L163.865,59.176 L168.3485,59.176 L168.3485,59.911 C167.956498,60.3940024 167.639751,60.8542478 167.39825,61.29175 C167.156749,61.7292522 166.966001,62.1772477 166.826,62.63575 C166.685999,63.0942523 166.58625,63.5824974 166.52675,64.1005 C166.46725,64.6185026 166.4235,65.2029967 166.3955,65.854 L165.167,65.854 Z M169.583,64.279 C169.786001,64.4680009 170.013499,64.6342493 170.2655,64.77775 C170.517501,64.9212507 170.811498,64.993 171.1475,64.993 C171.525502,64.993 171.835249,64.8810011 172.07675,64.657 C172.318251,64.4329989 172.439,64.118002 172.439,63.712 C172.439,63.312998 172.327001,63.0050011 172.103,62.788 C171.878999,62.5709989 171.581502,62.4625 171.2105,62.4625 C170.993499,62.4625 170.811501,62.4922497 170.6645,62.55175 C170.517499,62.6112503 170.342501,62.7074993 170.1395,62.8405 L169.562,62.473 L169.7615,59.176 L173.3315,59.176 L173.3315,60.1945 L170.8115,60.1945 L170.675,61.8115 C170.815001,61.7414996 170.953249,61.6872502 171.08975,61.64875 C171.226251,61.6102498 171.381999,61.591 171.557,61.591 C171.844001,61.591 172.115249,61.6329996 172.37075,61.717 C172.626251,61.8010004 172.848499,61.9287491 173.0375,62.10025 C173.226501,62.2717509 173.376999,62.4887487 173.489,62.75125 C173.601001,63.0137513 173.657,63.3234982 173.657,63.6805 C173.657,64.0445018 173.592251,64.3699986 173.46275,64.657 C173.333249,64.9440014 173.160001,65.185499 172.943,65.3815 C172.725999,65.577501 172.475751,65.7262495 172.19225,65.82775 C171.908749,65.9292505 171.613002,65.98 171.305,65.98 C170.765997,65.98 170.312752,65.8872509 169.94525,65.70175 C169.577748,65.5162491 169.271501,65.3010012 169.0265,65.056 L169.583,64.279 Z M175.637,64.0165 C175.637,64.3525017 175.755999,64.620249 175.994,64.81975 C176.232001,65.019251 176.522498,65.119 176.8655,65.119 C177.187502,65.119 177.451749,65.0315009 177.65825,64.8565 C177.864751,64.6814991 177.968,64.4365016 177.968,64.1215 C177.968,63.9394991 177.926,63.7837506 177.842,63.65425 C177.758,63.5247494 177.644251,63.4092505 177.50075,63.30775 C177.357249,63.2062495 177.187501,63.1135004 176.9915,63.0295 L176.580834,62.8568334 C176.509278,62.8272779 176.436167,62.7973335 176.3615,62.767 C176.151499,62.9210008 175.978251,63.1029989 175.84175,63.313 C175.705249,63.5230011 175.637,63.7574987 175.637,64.0165 Z M177.2855,62.0845 C177.467501,61.9024991 177.60575,61.7170009 177.70025,61.528 C177.79475,61.3389991 177.842,61.139501 177.842,60.9295 C177.842,60.6354985 177.756251,60.392251 177.58475,60.19975 C177.413249,60.007249 177.170002,59.911 176.855,59.911 C176.595999,59.911 176.379001,59.9897492 176.204,60.14725 C176.028999,60.3047508 175.9415,60.5304985 175.9415,60.8245 C175.9415,60.9925008 175.9765,61.1394994 176.0465,61.2655 C176.1165,61.3915006 176.212749,61.5017495 176.33525,61.59625 C176.457751,61.6907505 176.599499,61.7782496 176.7605,61.85875 C176.921501,61.9392504 177.096499,62.0144997 177.2855,62.0845 Z M174.5765,64.1425 C174.5765,63.9324989 174.60975,63.7417509 174.67625,63.57025 C174.74275,63.3987491 174.831999,63.2430007 174.944,63.103 C175.056001,62.9629993 175.183749,62.8370006 175.32725,62.725 C175.470751,62.6129994 175.622999,62.5150004 175.784,62.431 L175.784,62.389 C175.524999,62.2069991 175.306251,61.9900013 175.12775,61.738 C174.949249,61.4859987 174.86,61.1815018 174.86,60.8245 C174.86,60.5514986 174.910749,60.3065011 175.01225,60.0895 C175.113751,59.8724989 175.253749,59.6870008 175.43225,59.533 C175.610751,59.3789992 175.824249,59.2600004 176.07275,59.176 C176.321251,59.0919996 176.588999,59.05 176.876,59.05 C177.177002,59.05 177.448249,59.0937496 177.68975,59.18125 C177.931251,59.2687504 178.137749,59.3912492 178.30925,59.54875 C178.480751,59.7062508 178.612,59.8952489 178.703,60.11575 C178.794,60.3362511 178.8395,60.5829986 178.8395,60.856 C178.8395,61.0240008 178.81325,61.1832492 178.76075,61.33375 C178.70825,61.4842508 178.64,61.6242494 178.556,61.75375 C178.472,61.8832506 178.375751,62.0022495 178.26725,62.11075 C178.158749,62.2192505 178.052001,62.3119996 177.947,62.389 L177.947,62.431 C178.101001,62.5150004 178.247999,62.6112495 178.388,62.71975 C178.528001,62.8282505 178.650499,62.9524993 178.7555,63.0925 C178.860501,63.2325007 178.9445,63.3899991 179.0075,63.565 C179.0705,63.7400009 179.102,63.9394989 179.102,64.1635 C179.102,64.4225013 179.047751,64.6622489 178.93925,64.88275 C178.830749,65.1032511 178.678501,65.2957492 178.4825,65.46025 C178.286499,65.6247508 178.048501,65.7524995 177.7685,65.8435 C177.488499,65.9345005 177.180502,65.98 176.8445,65.98 C176.515498,65.98 176.212751,65.9345005 175.93625,65.8435 C175.659749,65.7524995 175.421751,65.6265008 175.22225,65.4655 C175.022749,65.3044992 174.865251,65.1120011 174.74975,64.888 C174.634249,64.6639989 174.5765,64.4155014 174.5765,64.1425 Z" id="CLUSTERMEDIAN:$15,758" fill="#E8751A" fill-rule="nonzero"></path>
                <path d="M284.565111,37.854 L47.3428889,37.854 C45.204,37.854 43.454,36.1909565 43.454,34.1583478 L43.454,24.5496522 C43.454,22.5170435 45.204,20.854 47.3428889,20.854 L284.565111,20.854 C286.704,20.854 288.454,22.5170435 288.454,24.5496522 L288.454,34.1583478 C288.454,36.1909565 286.704,37.854 284.565111,37.854" id="Fill-16" fill="#FFC69F"></path>
                <path d="M223.884769,38.854 L54.0232308,38.854 C50.9601538,38.854 48.454,37.5206667 48.454,35.891037 L48.454,21.816963 C48.454,20.1873333 50.9601538,18.854 54.0232308,18.854 L223.884769,18.854 C226.947846,18.854 229.454,20.1873333 229.454,21.816963 L229.454,35.891037 C229.454,37.5206667 226.947846,38.854 223.884769,38.854" id="Fill-18" fill="#E8751A"></path>
                <path d="M122.6785,27.401 C122.435499,27.1759989 122.201501,27.0072506 121.9765,26.89475 C121.751499,26.7822494 121.495001,26.726 121.207,26.726 C120.882998,26.726 120.635501,26.7934993 120.4645,26.9285 C120.293499,27.0635007 120.208,27.2839985 120.208,27.59 C120.208,27.8060011 120.295749,27.9882493 120.47125,28.13675 C120.646751,28.2852507 120.867249,28.4269993 121.13275,28.562 L121.69075,28.8379998 C121.788249,28.8849998 121.887999,28.9324998 121.99,28.9805 C122.296002,29.1245007 122.581749,29.299999 122.84725,29.507 C123.112751,29.714001 123.333249,29.9637485 123.50875,30.25625 C123.684251,30.5487515 123.772,30.9109978 123.772,31.343 C123.772,31.9910032 123.596502,32.5467477 123.2455,33.01025 C122.894498,33.4737523 122.368004,33.7819992 121.666,33.935 L121.666,35.339 L120.3565,35.339 L120.3565,33.989 C119.960498,33.9439998 119.544252,33.8337509 119.10775,33.65825 C118.671248,33.4827491 118.295502,33.2510014 117.9805,32.963 L118.8445,31.6265 C119.186502,31.8875013 119.512748,32.0832493 119.82325,32.21375 C120.133752,32.3442507 120.450998,32.4095 120.775,32.4095 C121.153002,32.4095 121.429749,32.3330008 121.60525,32.18 C121.780751,32.0269992 121.8685,31.7930016 121.8685,31.478 C121.8685,31.2439988 121.780751,31.0460008 121.60525,30.884 C121.429749,30.7219992 121.209251,30.5667507 120.94375,30.41825 C120.678249,30.2697493 120.392502,30.1212507 120.0865,29.97275 C119.780498,29.8242493 119.494751,29.646501 119.22925,29.4395 C118.963749,29.232499 118.743251,28.9895014 118.56775,28.7105 C118.392249,28.4314986 118.3045,28.089502 118.3045,27.6845 C118.3045,27.0184967 118.486748,26.4672522 118.85125,26.03075 C119.215752,25.5942478 119.717497,25.3130006 120.3565,25.187 L120.3565,23.7965 L121.666,23.7965 L121.666,25.16 C122.098002,25.2230003 122.475998,25.353499 122.8,25.5515 C123.124002,25.749501 123.416499,25.9879986 123.6775,26.267 L122.6785,27.401 Z" id="$" fill="#FFFFFF" fill-rule="nonzero"></path>
                <path d="M121.704,56.854 L121.704,43.854 C121.704,43.4397864 121.368214,43.104 120.954,43.104 C120.539786,43.104 120.204,43.4397864 120.204,43.854 L120.204,56.854 C120.204,57.2682136 120.539786,57.604 120.954,57.604 C121.368214,57.604 121.704,57.2682136 121.704,56.854 Z" id="Stroke-13" fill="#636363" fill-rule="nonzero"></path>
            </g>
        </g>
    </g>
</svg>