<?xml version="1.0" encoding="UTF-8"?>
<svg width="241px" height="41px" viewBox="0 0 241 41" version="1.1" xmlns="http://www.w3.org/2000/svg" xmlns:xlink="http://www.w3.org/1999/xlink">
    <!-- Generator: Sketch 59.1 (86144) - https://sketch.com -->
    <title>Key</title>
    <desc>Created with Sketch.</desc>
    <defs>
        <polygon id="path-1" points="0.45705 0.160725 1.12875 0.160725 1.12875 1.051725 0.45705 1.051725"></polygon>
        <polygon id="path-3" points="0.45705 0.419625 1.12875 0.419625 1.12875 26.014125 0.45705 26.014125"></polygon>
        <polygon id="path-5" points="0.45705 0.080925 1.12875 0.080925 1.12875 0.971925 0.45705 0.971925"></polygon>
    </defs>
    <g id="Export-Outlined-SVG" stroke="none" stroke-width="1" fill="none" fill-rule="evenodd">
        <g id="1" transform="translate(-842.000000, -45.000000)">
            <g id="Key" transform="translate(842.203000, 45.703000)">
                <path d="M233.711768,21.297 L3.88223175,21.297 C2.18602857,21.297 0.797,19.8718894 0.797,18.1299167 L0.797,12.4648523 C0.797,10.7228796 2.18602857,9.297 3.88223175,9.297 L233.711768,9.297 C235.408721,9.297 236.797,10.7228796 236.797,12.4648523 L236.797,18.1299167 C236.797,19.8718894 235.408721,21.297 233.711768,21.297" id="Fill-1" fill="#FFC69F"></path>
                <path d="M139.111046,23.297 L46.4837077,23.297 C45.0061692,23.297 43.797,22.0992588 43.797,20.6364316 L43.797,9.95831516 C43.797,8.49474117 45.0061692,7.297 46.4837077,7.297 L139.111046,7.297 C140.588585,7.297 141.797,8.49474117 141.797,9.95831516 L141.797,20.6364316 C141.797,22.0992588 140.588585,23.297 139.111046,23.297" id="Fill-3" fill="#E8751A"></path>
                <path d="M76.1765,15.6405 C76.1765,15.1949978 76.2452493,14.7976267 76.38275,14.448375 C76.5202507,14.0991233 76.7058738,13.8035012 76.939625,13.5615 C77.1733762,13.3194988 77.4456234,13.1352506 77.756375,13.00875 C78.0671266,12.8822494 78.3957483,12.819 78.74225,12.819 C79.0777517,12.819 79.3816236,12.8891243 79.653875,13.029375 C79.9261264,13.1696257 80.1529991,13.3332491 80.3345,13.52025 L79.66625,14.271 C79.5287493,14.1444994 79.3898757,14.0455004 79.249625,13.974 C79.1093743,13.9024996 78.9457509,13.86675 78.75875,13.86675 C78.5717491,13.86675 78.3971258,13.9066246 78.234875,13.986375 C78.0726242,14.0661254 77.9310006,14.1802493 77.81,14.32875 C77.6889994,14.4772507 77.5941253,14.6587489 77.525375,14.87325 C77.4566247,15.0877511 77.42225,15.3297487 77.42225,15.59925 C77.42225,16.1547528 77.5404988,16.5851235 77.777,16.890375 C78.0135012,17.1956265 78.329748,17.34825 78.72575,17.34825 C78.9457511,17.34825 79.1382492,17.3042504 79.30325,17.21625 C79.4682508,17.1282496 79.6167493,17.0127507 79.74875,16.86975 L80.417,17.604 C80.1914989,17.8680013 79.9343764,18.0659993 79.645625,18.198 C79.3568736,18.3300007 79.0447517,18.396 78.70925,18.396 C78.3627483,18.396 78.0355015,18.3368756 77.7275,18.218625 C77.4194985,18.1003744 77.1500012,17.9257512 76.919,17.69475 C76.6879988,17.4637488 76.5065007,17.1763767 76.3745,16.832625 C76.2424993,16.4888733 76.1765,16.0915023 76.1765,15.6405 Z M81.24125,12.918 L82.454,12.918 L82.454,17.274 L84.5825,17.274 L84.5825,18.297 L81.24125,18.297 L81.24125,12.918 Z M84.87875,12.918 L86.09975,12.918 L86.09975,15.92925 C86.09975,16.4572526 86.1794992,16.825749 86.339,17.03475 C86.4985008,17.243751 86.7294985,17.34825 87.032,17.34825 C87.3345015,17.34825 87.5682492,17.243751 87.73325,17.03475 C87.8982508,16.825749 87.98075,16.4572526 87.98075,15.92925 L87.98075,12.918 L89.15225,12.918 L89.15225,15.8055 C89.15225,16.7075045 88.9721268,17.3647479 88.611875,17.77725 C88.2516232,18.1897521 87.7250035,18.396 87.032,18.396 C86.3334965,18.396 85.8000018,18.1897521 85.4315,17.77725 C85.0629981,17.3647479 84.87875,16.7075045 84.87875,15.8055 L84.87875,12.918 Z M90.587,16.78725 C90.779501,16.9522508 90.9926238,17.0869995 91.226375,17.1915 C91.4601262,17.2960005 91.6897489,17.34825 91.91525,17.34825 C92.1682513,17.34825 92.3566244,17.3015005 92.480375,17.208 C92.6041256,17.1144995 92.666,16.9880008 92.666,16.8285 C92.666,16.7459996 92.6481252,16.6745003 92.612375,16.614 C92.5766248,16.5534997 92.5243753,16.4998752 92.455625,16.453125 C92.3868746,16.4063748 92.3043755,16.3623752 92.208125,16.321125 L91.18925,15.888 C91.0517493,15.8329997 90.9183756,15.7615004 90.789125,15.6735 C90.6598743,15.5854996 90.5443755,15.4823756 90.442625,15.364125 C90.3408745,15.2458744 90.2597503,15.1083758 90.19925,14.951625 C90.1387497,14.7948742 90.1085,14.617501 90.1085,14.4195 C90.1085,14.1994989 90.1552495,13.991876 90.24875,13.796625 C90.3422505,13.601374 90.4742491,13.4308757 90.64475,13.285125 C90.8152508,13.1393743 91.0173738,13.0252504 91.251125,12.94275 C91.4848762,12.8602496 91.7419986,12.819 92.0225,12.819 C92.3360016,12.819 92.6453735,12.8794994 92.950625,13.0005 C93.2558765,13.1215006 93.5239988,13.2974988 93.755,13.5285 L93.13625,14.29575 C92.9602491,14.1582493 92.7842509,14.0523754 92.60825,13.978125 C92.4322491,13.9038746 92.2370011,13.86675 92.0225,13.86675 C91.8134989,13.86675 91.6471256,13.9093746 91.523375,13.994625 C91.3996244,14.0798754 91.33775,14.1994992 91.33775,14.3535 C91.33775,14.4360004 91.3583748,14.5061247 91.399625,14.563875 C91.4408752,14.6216253 91.4986246,14.6738748 91.572875,14.720625 C91.6223752,14.7517918 91.6773749,14.7817361 91.7378749,14.8104583 L92.1545,14.98875 L92.1545,14.98875 L92.8475,15.26925 C93.1775016,15.4012507 93.437374,15.5827488 93.627125,15.81375 C93.8168759,16.0447512 93.91175,16.3499981 93.91175,16.7295 C93.91175,16.9550011 93.8663754,17.168124 93.775625,17.368875 C93.6848745,17.569626 93.5528759,17.7456242 93.379625,17.896875 C93.2063741,18.0481258 92.9932513,18.1691245 92.74025,18.259875 C92.4872487,18.3506255 92.2012516,18.396 91.88225,18.396 C91.5302482,18.396 91.1796267,18.3313756 90.830375,18.202125 C90.4811232,18.0728744 90.1690014,17.8790013 89.894,17.6205 L90.587,16.78725 Z M95.55275,13.941 L94.076,13.941 L94.076,12.918 L98.2505,12.918 L98.2505,13.941 L96.77375,13.941 L96.77375,18.297 L95.55275,18.297 L95.55275,13.941 Z M99.0995,12.918 L102.4655,12.918 L102.4655,13.941 L100.31225,13.941 L100.31225,15.02175 L102.14375,15.02175 L102.14375,16.0365 L100.31225,16.0365 L100.31225,17.274 L102.548,17.274 L102.548,18.297 L99.0995,18.297 L99.0995,12.918 Z M104.84075,15.393 L105.46775,15.393 C105.786752,15.393 106.030124,15.3256257 106.197875,15.190875 C106.365626,15.0561243 106.4495,14.8567513 106.4495,14.59275 C106.4495,14.3287487 106.365626,14.1445005 106.197875,14.04 C106.030124,13.9354995 105.786752,13.88325 105.46775,13.88325 L104.84075,13.88325 L104.84075,15.393 Z M106.54025,18.297 L105.509,16.35825 L104.84075,16.35825 L104.84075,18.297 L103.628,18.297 L103.628,12.918 L105.56675,12.918 C105.852751,12.918 106.120874,12.9454997 106.371125,13.0005 C106.621376,13.0555003 106.839999,13.1476244 107.027,13.276875 C107.214001,13.4061256 107.362499,13.5779989 107.4725,13.7925 C107.582501,14.0070011 107.6375,14.2737484 107.6375,14.59275 C107.6375,14.988752 107.550876,15.3146237 107.377625,15.570375 C107.204374,15.8261263 106.972001,16.0172494 106.6805,16.14375 L107.9015,18.297 L106.54025,18.297 Z" id="CLUSTER" fill="#FFFFFF" fill-rule="nonzero"></path>
                <path d="M158.39925,12.918 L159.62025,12.918 L159.62025,15.92925 C159.62025,16.4572526 159.699999,16.825749 159.8595,17.03475 C160.019001,17.243751 160.249998,17.34825 160.5525,17.34825 C160.855002,17.34825 161.088749,17.243751 161.25375,17.03475 C161.418751,16.825749 161.50125,16.4572526 161.50125,15.92925 L161.50125,12.918 L162.67275,12.918 L162.67275,15.8055 C162.67275,16.7075045 162.492627,17.3647479 162.132375,17.77725 C161.772123,18.1897521 161.245503,18.396 160.5525,18.396 C159.853997,18.396 159.320502,18.1897521 158.952,17.77725 C158.583498,17.3647479 158.39925,16.7075045 158.39925,15.8055 L158.39925,12.918 Z M163.926,12.918 L165.17175,12.918 L166.57425,15.591 L167.10225,16.779 L167.13525,16.779 L167.040375,15.822 L167.040375,15.822 C167.004625,15.4699982 166.98675,15.1345016 166.98675,14.8155 L166.98675,12.918 L168.14175,12.918 L168.14175,18.297 L166.896,18.297 L165.4935,15.61575 L164.9655,14.44425 L164.9325,14.44425 L164.993,15.0675829 C165.004,15.1763605 165.015458,15.2875828 165.027375,15.40125 C165.063125,15.7422517 165.081,16.0722484 165.081,16.39125 L165.081,18.297 L163.926,18.297 L163.926,12.918 Z M169.41975,12.918 L170.6325,12.918 L170.6325,18.297 L169.41975,18.297 L169.41975,12.918 Z M172.95825,13.941 L171.4815,13.941 L171.4815,12.918 L175.656,12.918 L175.656,13.941 L174.17925,13.941 L174.17925,18.297 L172.95825,18.297 L172.95825,13.941 Z M176.505,12.918 L179.871,12.918 L179.871,13.941 L177.71775,13.941 L177.71775,15.02175 L179.54925,15.02175 L179.54925,16.0365 L177.71775,16.0365 L177.71775,17.274 L179.9535,17.274 L179.9535,18.297 L176.505,18.297 L176.505,12.918 Z M181.0335,12.918 L182.5515,12.918 C182.964002,12.918 183.335248,12.9702495 183.66525,13.07475 C183.995252,13.1792505 184.278499,13.3401239 184.515,13.557375 C184.751501,13.7746261 184.932999,14.0509983 185.0595,14.3865 C185.186001,14.7220017 185.24925,15.1207477 185.24925,15.58275 C185.24925,16.0447523 185.186001,16.4462483 185.0595,16.78725 C184.932999,17.1282517 184.754251,17.4101239 184.52325,17.632875 C184.292249,17.8556261 184.015877,18.0219994 183.694125,18.132 C183.372373,18.2420006 183.013502,18.297 182.6175,18.297 L181.0335,18.297 L181.0335,12.918 Z M182.47725,17.31525 C182.708251,17.31525 182.917249,17.2850003 183.10425,17.2245 C183.291251,17.1639997 183.450749,17.0663757 183.58275,16.931625 C183.714751,16.7968743 183.817875,16.6195011 183.892125,16.3995 C183.966375,16.1794989 184.0035,15.9072516 184.0035,15.58275 C184.0035,15.2637484 183.966375,14.9956261 183.892125,14.778375 C183.817875,14.5611239 183.714751,14.3878756 183.58275,14.258625 C183.450749,14.1293744 183.291251,14.0372503 183.10425,13.98225 C182.917249,13.9272497 182.708251,13.89975 182.47725,13.89975 L182.24625,13.89975 L182.24625,17.31525 L182.47725,17.31525 Z M188.34975,16.78725 C188.542251,16.9522508 188.755374,17.0869995 188.989125,17.1915 C189.222876,17.2960005 189.452499,17.34825 189.678,17.34825 C189.931001,17.34825 190.119374,17.3015005 190.243125,17.208 C190.366876,17.1144995 190.42875,16.9880008 190.42875,16.8285 C190.42875,16.7459996 190.410875,16.6745003 190.375125,16.614 C190.339375,16.5534997 190.287125,16.4998752 190.218375,16.453125 C190.149625,16.4063748 190.067125,16.3623752 189.970875,16.321125 L188.952,15.888 C188.814499,15.8329997 188.681126,15.7615004 188.551875,15.6735 C188.422624,15.5854996 188.307126,15.4823756 188.205375,15.364125 C188.103624,15.2458744 188.0225,15.1083758 187.962,14.951625 C187.9015,14.7948742 187.87125,14.617501 187.87125,14.4195 C187.87125,14.1994989 187.918,13.991876 188.0115,13.796625 C188.105,13.601374 188.236999,13.4308757 188.4075,13.285125 C188.578001,13.1393743 188.780124,13.0252504 189.013875,12.94275 C189.247626,12.8602496 189.504749,12.819 189.78525,12.819 C190.098752,12.819 190.408123,12.8794994 190.713375,13.0005 C191.018627,13.1215006 191.286749,13.2974988 191.51775,13.5285 L190.899,14.29575 C190.722999,14.1582493 190.547001,14.0523754 190.371,13.978125 C190.194999,13.9038746 189.999751,13.86675 189.78525,13.86675 C189.576249,13.86675 189.409876,13.9093746 189.286125,13.994625 C189.162374,14.0798754 189.1005,14.1994992 189.1005,14.3535 C189.1005,14.4360004 189.121125,14.5061247 189.162375,14.563875 C189.203625,14.6216253 189.261375,14.6738748 189.335625,14.720625 C189.385125,14.7517918 189.440125,14.7817361 189.500625,14.8104583 L189.91725,14.98875 L189.91725,14.98875 L190.61025,15.26925 C190.940252,15.4012507 191.200124,15.5827488 191.389875,15.81375 C191.579626,16.0447512 191.6745,16.3499981 191.6745,16.7295 C191.6745,16.9550011 191.629125,17.168124 191.538375,17.368875 C191.447625,17.569626 191.315626,17.7456242 191.142375,17.896875 C190.969124,18.0481258 190.756001,18.1691245 190.503,18.259875 C190.249999,18.3506255 189.964002,18.396 189.645,18.396 C189.292998,18.396 188.942377,18.3313756 188.593125,18.202125 C188.243873,18.0728744 187.931751,17.8790013 187.65675,17.6205 L188.34975,16.78725 Z M193.3155,13.941 L191.83875,13.941 L191.83875,12.918 L196.01325,12.918 L196.01325,13.941 L194.5365,13.941 L194.5365,18.297 L193.3155,18.297 L193.3155,13.941 Z M198.47925,16.0695 L198.3555,15.5745 C198.304166,15.3948324 198.254056,15.2078334 198.205167,15.0135004 L198.13275,14.7165 C198.06125,14.4139985 197.98975,14.1225014 197.91825,13.842 L197.88525,13.842 L197.683125,14.720625 L197.683125,14.720625 C197.614375,15.0203765 197.5415,15.3049987 197.4645,15.5745 L197.3325,16.0695 L198.47925,16.0695 Z M198.72675,17.01825 L197.085,17.01825 L196.755,18.297 L195.5175,18.297 L197.2005,12.918 L198.66075,12.918 L200.34375,18.297 L199.05675,18.297 L198.72675,17.01825 Z M201.32475,13.941 L199.848,13.941 L199.848,12.918 L204.0225,12.918 L204.0225,13.941 L202.54575,13.941 L202.54575,18.297 L201.32475,18.297 L201.32475,13.941 Z M204.8715,12.918 L208.2375,12.918 L208.2375,13.941 L206.08425,13.941 L206.08425,15.02175 L207.91575,15.02175 L207.91575,16.0365 L206.08425,16.0365 L206.08425,17.274 L208.32,17.274 L208.32,18.297 L204.8715,18.297 L204.8715,12.918 Z M209.7465,16.78725 C209.939001,16.9522508 210.152124,17.0869995 210.385875,17.1915 C210.619626,17.2960005 210.849249,17.34825 211.07475,17.34825 C211.327751,17.34825 211.516124,17.3015005 211.639875,17.208 C211.763626,17.1144995 211.8255,16.9880008 211.8255,16.8285 C211.8255,16.7459996 211.807625,16.6745003 211.771875,16.614 C211.736125,16.5534997 211.683875,16.4998752 211.615125,16.453125 C211.546375,16.4063748 211.463875,16.3623752 211.367625,16.321125 L210.34875,15.888 C210.211249,15.8329997 210.077876,15.7615004 209.948625,15.6735 C209.819374,15.5854996 209.703876,15.4823756 209.602125,15.364125 C209.500374,15.2458744 209.41925,15.1083758 209.35875,14.951625 C209.29825,14.7948742 209.268,14.617501 209.268,14.4195 C209.268,14.1994989 209.31475,13.991876 209.40825,13.796625 C209.50175,13.601374 209.633749,13.4308757 209.80425,13.285125 C209.974751,13.1393743 210.176874,13.0252504 210.410625,12.94275 C210.644376,12.8602496 210.901499,12.819 211.182,12.819 C211.495502,12.819 211.804873,12.8794994 212.110125,13.0005 C212.415377,13.1215006 212.683499,13.2974988 212.9145,13.5285 L212.29575,14.29575 C212.119749,14.1582493 211.943751,14.0523754 211.76775,13.978125 C211.591749,13.9038746 211.396501,13.86675 211.182,13.86675 C210.972999,13.86675 210.806626,13.9093746 210.682875,13.994625 C210.559124,14.0798754 210.49725,14.1994992 210.49725,14.3535 C210.49725,14.4360004 210.517875,14.5061247 210.559125,14.563875 C210.600375,14.6216253 210.658125,14.6738748 210.732375,14.720625 C210.781875,14.7517918 210.836875,14.7817361 210.897375,14.8104583 L211.314,14.98875 L211.314,14.98875 L212.007,15.26925 C212.337002,15.4012507 212.596874,15.5827488 212.786625,15.81375 C212.976376,16.0447512 213.07125,16.3499981 213.07125,16.7295 C213.07125,16.9550011 213.025875,17.168124 212.935125,17.368875 C212.844375,17.569626 212.712376,17.7456242 212.539125,17.896875 C212.365874,18.0481258 212.152751,18.1691245 211.89975,18.259875 C211.646749,18.3506255 211.360752,18.396 211.04175,18.396 C210.689748,18.396 210.339127,18.3313756 209.989875,18.202125 C209.640623,18.0728744 209.328501,17.8790013 209.0535,17.6205 L209.7465,16.78725 Z" id="UNITEDSTATES" fill="#E8751A" fill-rule="nonzero"></path>
                <path d="M0.607,33.393 L1.354,33.393 L1.354,38.658 L3.937,38.658 L3.937,39.297 L0.607,39.297 L0.607,33.393 Z M4.36525,37.119 C4.36525,36.7529982 4.42074944,36.4275014 4.53175,36.1425 C4.64275055,35.8574986 4.79124907,35.616001 4.97725,35.418 C5.16325093,35.219999 5.37774878,35.0700005 5.62075,34.968 C5.86375121,34.8659995 6.12024865,34.815 6.39025,34.815 C6.66025135,34.815 6.91674878,34.8659995 7.15975,34.968 C7.40275121,35.0700005 7.61724907,35.219999 7.80325,35.418 C7.98925093,35.616001 8.13774944,35.8574986 8.24875,36.1425 C8.35975055,36.4275014 8.41525,36.7529982 8.41525,37.119 C8.41525,37.4790018 8.35975055,37.8014986 8.24875,38.0865 C8.13774944,38.3715014 7.98925093,38.611499 7.80325,38.8065 C7.61724907,39.001501 7.40275121,39.1499995 7.15975,39.252 C6.91674878,39.3540005 6.66025135,39.405 6.39025,39.405 C6.12024865,39.405 5.86375121,39.3540005 5.62075,39.252 C5.37774878,39.1499995 5.16325093,39.001501 4.97725,38.8065 C4.79124907,38.611499 4.64275055,38.3715014 4.53175,38.0865 C4.42074944,37.8014986 4.36525,37.4790018 4.36525,37.119 Z M5.13025,37.119 C5.13025,37.3710013 5.1602497,37.598999 5.22025,37.803 C5.2802503,38.007001 5.36574944,38.1824993 5.47675,38.3295 C5.58775055,38.4765007 5.72124922,38.5904996 5.87725,38.6715 C6.03325078,38.7525004 6.20424907,38.793 6.39025,38.793 C6.57625093,38.793 6.74724922,38.7525004 6.90325,38.6715 C7.05925078,38.5904996 7.19274944,38.4765007 7.30375,38.3295 C7.41475055,38.1824993 7.5002497,38.007001 7.56025,37.803 C7.6202503,37.598999 7.65025,37.3710013 7.65025,37.119 C7.65025,36.8669987 7.6202503,36.637501 7.56025,36.4305 C7.5002497,36.223499 7.41475055,36.0450007 7.30375,35.895 C7.19274944,35.7449992 7.05925078,35.6295004 6.90325,35.5485 C6.74724922,35.4674996 6.57625093,35.427 6.39025,35.427 C6.20424907,35.427 6.03325078,35.4674996 5.87725,35.5485 C5.72124922,35.6295004 5.58775055,35.7449992 5.47675,35.895 C5.36574944,36.0450007 5.2802503,36.223499 5.22025,36.4305 C5.1602497,36.637501 5.13025,36.8669987 5.13025,37.119 Z M8.9695,34.923 L9.7255,34.923 L10.3735,37.452 L10.44325,37.7625 L10.44325,37.7625 L10.6345,38.667 L10.6345,38.667 L10.6705,38.667 L10.8145,38.0595 L10.8145,38.0595 C10.8625002,37.858499 10.9134997,37.656001 10.9675,37.452 L11.6425,34.923 L12.3625,34.923 L13.0465,37.452 L13.204,38.064 C13.2550003,38.262001 13.3044998,38.462999 13.3525,38.667 L13.3885,38.667 L13.45825,38.36325 L13.45825,38.36325 L13.5235,38.064 C13.5655002,37.865999 13.6104998,37.662001 13.6585,37.452 L14.2975,34.923 L14.9995,34.923 L13.8295,39.297 L12.9295,39.297 L12.2995,36.948 L12.221875,36.63525 L12.221875,36.63525 L12.151,36.327 C12.1059998,36.122999 12.0565003,35.9100011 12.0025,35.688 L11.9665,35.688 L11.8225,36.3315 L11.8225,36.3315 C11.7744998,36.538501 11.7205003,36.7469989 11.6605,36.957 L11.0485,39.297 L10.1845,39.297 L8.9695,34.923 Z M15.55375,37.119 C15.55375,36.7589982 15.6092494,36.4365014 15.72025,36.1515 C15.8312506,35.8664986 15.9782491,35.625001 16.16125,35.427 C16.3442509,35.228999 16.5527488,35.0775005 16.78675,34.9725 C17.0207512,34.8674995 17.2637487,34.815 17.51575,34.815 C17.7917514,34.815 18.0392489,34.8629995 18.25825,34.959 C18.4772511,35.0550005 18.6602493,35.1929991 18.80725,35.373 C18.9542507,35.5530009 19.0667496,35.7689987 19.14475,36.021 C19.2227504,36.2730013 19.26175,36.5549984 19.26175,36.867 C19.26175,37.0290008 19.2527501,37.1639995 19.23475,37.272 L16.28275,37.272 C16.3127501,37.7460024 16.4582487,38.1209986 16.71925,38.397 C16.9802513,38.6730014 17.3207479,38.811 17.74075,38.811 C17.950751,38.811 18.1442491,38.7795003 18.32125,38.7165 C18.4982509,38.6534997 18.6677492,38.5710005 18.82975,38.469 L19.09075,38.955 C18.898749,39.0750006 18.6857512,39.1799995 18.45175,39.27 C18.2177488,39.3600004 17.9507515,39.405 17.65075,39.405 C17.3567485,39.405 17.0822513,39.3525005 16.82725,39.2475 C16.5722487,39.1424995 16.3502509,38.992501 16.16125,38.7975 C15.9722491,38.602499 15.8237505,38.3640014 15.71575,38.082 C15.6077495,37.7999986 15.55375,37.4790018 15.55375,37.119 Z M18.61375,36.786 C18.61375,36.3359977 18.5192509,35.9925012 18.33025,35.7555 C18.1412491,35.5184988 17.8757517,35.4 17.53375,35.4 C17.3777492,35.4 17.2292507,35.4314997 17.08825,35.4945 C16.9472493,35.5575003 16.8197506,35.6474994 16.70575,35.7645 C16.5917494,35.8815006 16.4972504,36.0254991 16.42225,36.1965 C16.3472496,36.3675009 16.2977501,36.5639989 16.27375,36.786 L18.61375,36.786 Z M20.221,38.307 C20.413001,38.4630008 20.609499,38.5889995 20.8105,38.685 C21.011501,38.7810005 21.2439987,38.829 21.508,38.829 C21.7960014,38.829 22.0119993,38.7630007 22.156,38.631 C22.3000007,38.4989993 22.372,38.337001 22.372,38.145 C22.372,38.0309994 22.3420003,37.9320004 22.282,37.848 C22.2219997,37.7639996 22.1455005,37.6905003 22.0525,37.6275 C21.9594995,37.5644997 21.8530006,37.5090002 21.733,37.461 L21.373,37.317 C21.2169992,37.2629997 21.0610008,37.2015003 20.905,37.1325 C20.7489992,37.0634997 20.6095006,36.9795005 20.4865,36.8805 C20.3634994,36.7814995 20.2630004,36.6660007 20.185,36.534 C20.1069996,36.4019993 20.068,36.2430009 20.068,36.057 C20.068,35.8829991 20.1024997,35.7195008 20.1715,35.5665 C20.2405003,35.4134992 20.3394994,35.2815006 20.4685,35.1705 C20.5975006,35.0594994 20.7549991,34.9725003 20.941,34.9095 C21.1270009,34.8464997 21.3369988,34.815 21.571,34.815 C21.8470014,34.815 22.1004988,34.8629995 22.3315,34.959 C22.5625012,35.0550005 22.7619992,35.1719993 22.93,35.31 L22.579,35.778 C22.4289992,35.6639994 22.2730008,35.5710004 22.111,35.499 C21.9489992,35.4269996 21.772001,35.391 21.58,35.391 C21.3039986,35.391 21.1015006,35.4539994 20.9725,35.58 C20.8434994,35.7060006 20.779,35.8529992 20.779,36.021 C20.779,36.1230005 20.8059997,36.2114996 20.86,36.2865 C20.9140003,36.3615004 20.9859995,36.4274997 21.076,36.4845 C21.1660004,36.5415003 21.2694994,36.5924998 21.3865,36.6375 L21.751,36.777 C21.9070008,36.8370003 22.0644992,36.8999997 22.2235,36.966 C22.3825008,37.0320003 22.5249994,37.1144995 22.651,37.2135 C22.7770006,37.3125005 22.8804996,37.4339993 22.9615,37.578 C23.0425004,37.7220007 23.083,37.895999 23.083,38.1 C23.083,38.2800009 23.0485003,38.4479992 22.9795,38.604 C22.9104997,38.7600008 22.8085007,38.8979994 22.6735,39.018 C22.5384993,39.1380006 22.370501,39.2324997 22.1695,39.3015 C21.968499,39.3705003 21.7390013,39.405 21.481,39.405 C21.1689984,39.405 20.8720014,39.3480006 20.59,39.234 C20.3079986,39.1199994 20.062001,38.9760009 19.852,38.802 L20.221,38.307 Z M24.23125,35.526 L23.58325,35.526 L23.58325,34.968 L24.26725,34.923 L24.35725,33.699 L24.97825,33.699 L24.97825,34.923 L26.15725,34.923 L26.15725,35.526 L24.97825,35.526 L24.97825,37.956 C24.97825,38.2260013 25.0277495,38.4344993 25.12675,38.5815 C25.2257505,38.7285007 25.4012487,38.802 25.65325,38.802 C25.7312504,38.802 25.8152495,38.7900001 25.90525,38.766 C25.9952504,38.7419999 26.0762496,38.7150001 26.14825,38.685 L26.29225,39.243 C26.1722494,39.2850002 26.0417507,39.3224998 25.90075,39.3555 C25.7597493,39.3885002 25.6202507,39.405 25.48225,39.405 C25.2482488,39.405 25.0517508,39.3690004 24.89275,39.297 C24.7337492,39.2249996 24.6047505,39.1260006 24.50575,39 C24.4067495,38.8739994 24.3362502,38.7210009 24.29425,38.541 C24.2522498,38.3609991 24.23125,38.1630011 24.23125,37.947 L24.23125,35.526 Z M28.32775,34.923 L29.09275,34.923 L29.92075,37.407 L30.020875,37.731 L30.020875,37.731 L30.32575,38.694 L30.32575,38.694 L30.36175,38.694 L30.75775,37.407 L31.58575,34.923 L32.31475,34.923 L30.76675,39.297 L29.90275,39.297 L28.32775,34.923 Z M32.581,38.163 C32.581,37.6829976 32.7954978,37.3155013 33.2245,37.0605 C33.6535021,36.8054987 34.3359953,36.6270005 35.272,36.525 C35.272,36.3869993 35.2585001,36.2520007 35.2315,36.12 C35.2044999,35.9879993 35.1565003,35.8710005 35.0875,35.769 C35.0184996,35.6669995 34.9270006,35.5845003 34.813,35.5215 C34.6989994,35.4584997 34.5520009,35.427 34.372,35.427 C34.1139987,35.427 33.8755011,35.4749995 33.6565,35.571 C33.4374989,35.6670005 33.2410009,35.7749994 33.067,35.895 L32.77,35.382 C32.974001,35.2499993 33.2229985,35.1225006 33.517,34.9995 C33.8110015,34.8764994 34.1349982,34.815 34.489,34.815 C35.0230027,34.815 35.4099988,34.9784984 35.65,35.3055 C35.8900012,35.6325016 36.01,36.0689973 36.01,36.615 L36.01,39.297 L35.398,39.297 L35.335,38.775 L35.317,38.775 C35.1069989,38.9490009 34.8805012,39.0974994 34.6375,39.2205 C34.3944988,39.3435006 34.1380013,39.405 33.868,39.405 C33.4959981,39.405 33.1885012,39.2970011 32.9455,39.081 C32.7024988,38.8649989 32.581,38.559002 32.581,38.163 Z M33.31,38.109 C33.31,38.3610013 33.3834993,38.5409995 33.5305,38.649 C33.6775007,38.7570005 33.8589989,38.811 34.075,38.811 C34.285001,38.811 34.484499,38.7615005 34.6735,38.6625 C34.8625009,38.5634995 35.0619989,38.418001 35.272,38.226 L35.272,37.011 C34.9059982,37.0590002 34.5970013,37.1159997 34.345,37.182 C34.0929987,37.2480003 33.8905008,37.3259995 33.7375,37.416 C33.5844992,37.5060004 33.4750003,37.6094994 33.409,37.7265 C33.3429997,37.8435006 33.31,37.9709993 33.31,38.109 Z M37.40125,32.889 L38.13925,32.889 L38.13925,38.469 C38.13925,38.5890006 38.1602498,38.6729998 38.20225,38.721 C38.2442502,38.7690002 38.2922497,38.793 38.34625,38.793 L38.41375,38.793 C38.4347501,38.793 38.4662498,38.7870001 38.50825,38.775 L38.60725,39.333 C38.5592498,39.3570001 38.5022503,39.3749999 38.43625,39.387 C38.3702497,39.3990001 38.2862505,39.405 38.18425,39.405 C37.9022486,39.405 37.7012506,39.3210008 37.58125,39.153 C37.4612494,38.9849992 37.40125,38.7390016 37.40125,38.415 L37.40125,32.889 Z M39.6295,34.923 L40.3765,34.923 L40.3765,37.596 C40.3765,38.0100021 40.4409993,38.3084991 40.57,38.4915 C40.6990006,38.6745009 40.9074986,38.766 41.1955,38.766 C41.4235011,38.766 41.6244991,38.7075006 41.7985,38.5905 C41.9725009,38.4734994 42.1644989,38.2860013 42.3745,38.028 L42.3745,34.923 L43.1125,34.923 L43.1125,39.297 L42.5005,39.297 L42.4375,38.613 L42.4105,38.613 C42.206499,38.8530012 41.9920011,39.0449993 41.767,39.189 C41.5419989,39.3330007 41.2765015,39.405 40.9705,39.405 C40.5024977,39.405 40.1620011,39.2610014 39.949,38.973 C39.7359989,38.6849986 39.6295,38.2590028 39.6295,37.695 L39.6295,34.923 Z M44.26075,37.119 C44.26075,36.7589982 44.3162494,36.4365014 44.42725,36.1515 C44.5382505,35.8664986 44.6852491,35.625001 44.86825,35.427 C45.0512509,35.228999 45.2597488,35.0775005 45.49375,34.9725 C45.7277512,34.8674995 45.9707487,34.815 46.22275,34.815 C46.4987514,34.815 46.7462489,34.8629995 46.96525,34.959 C47.1842511,35.0550005 47.3672493,35.1929991 47.51425,35.373 C47.6612507,35.5530009 47.7737496,35.7689987 47.85175,36.021 C47.9297504,36.2730013 47.96875,36.5549984 47.96875,36.867 C47.96875,37.0290008 47.9597501,37.1639995 47.94175,37.272 L44.98975,37.272 C45.0197501,37.7460024 45.1652487,38.1209986 45.42625,38.397 C45.6872513,38.6730014 46.0277479,38.811 46.44775,38.811 C46.657751,38.811 46.8512491,38.7795003 47.02825,38.7165 C47.2052509,38.6534997 47.3747492,38.5710005 47.53675,38.469 L47.79775,38.955 C47.605749,39.0750006 47.3927512,39.1799995 47.15875,39.27 C46.9247488,39.3600004 46.6577515,39.405 46.35775,39.405 C46.0637485,39.405 45.7892513,39.3525005 45.53425,39.2475 C45.2792487,39.1424995 45.0572509,38.992501 44.86825,38.7975 C44.679249,38.602499 44.5307505,38.3640014 44.42275,38.082 C44.3147495,37.7999986 44.26075,37.4790018 44.26075,37.119 Z M47.32075,36.786 C47.32075,36.3359977 47.2262509,35.9925012 47.03725,35.7555 C46.848249,35.5184988 46.5827517,35.4 46.24075,35.4 C46.0847492,35.4 45.9362507,35.4314997 45.79525,35.4945 C45.6542493,35.5575003 45.5267506,35.6474994 45.41275,35.7645 C45.2987494,35.8815006 45.2042504,36.0254991 45.12925,36.1965 C45.0542496,36.3675009 45.0047501,36.5639989 44.98075,36.786 L47.32075,36.786 Z M48.928,38.307 C49.120001,38.4630008 49.316499,38.5889995 49.5175,38.685 C49.718501,38.7810005 49.9509987,38.829 50.215,38.829 C50.5030014,38.829 50.7189993,38.7630007 50.863,38.631 C51.0070007,38.4989993 51.079,38.337001 51.079,38.145 C51.079,38.0309994 51.0490003,37.9320004 50.989,37.848 C50.9289997,37.7639996 50.8525005,37.6905003 50.7595,37.6275 C50.6664995,37.5644997 50.5600006,37.5090002 50.44,37.461 L50.08,37.317 C49.9239992,37.2629997 49.7680008,37.2015003 49.612,37.1325 C49.4559992,37.0634997 49.3165006,36.9795005 49.1935,36.8805 C49.0704994,36.7814995 48.9700004,36.6660007 48.892,36.534 C48.8139996,36.4019993 48.775,36.2430009 48.775,36.057 C48.775,35.8829991 48.8094997,35.7195008 48.8785,35.5665 C48.9475003,35.4134992 49.0464994,35.2815006 49.1755,35.1705 C49.3045006,35.0594994 49.4619991,34.9725003 49.648,34.9095 C49.8340009,34.8464997 50.0439988,34.815 50.278,34.815 C50.5540014,34.815 50.8074988,34.8629995 51.0385,34.959 C51.2695012,35.0550005 51.4689992,35.1719993 51.637,35.31 L51.286,35.778 C51.1359992,35.6639994 50.9800008,35.5710004 50.818,35.499 C50.6559992,35.4269996 50.479001,35.391 50.287,35.391 C50.0109986,35.391 49.8085006,35.4539994 49.6795,35.58 C49.5504994,35.7060006 49.486,35.8529992 49.486,36.021 C49.486,36.1230005 49.5129997,36.2114996 49.567,36.2865 C49.6210003,36.3615004 49.6929995,36.4274997 49.783,36.4845 C49.8730004,36.5415003 49.9764994,36.5924998 50.0935,36.6375 L50.458,36.777 C50.6140008,36.8370003 50.7714992,36.8999997 50.9305,36.966 C51.0895008,37.0320003 51.2319994,37.1144995 51.358,37.2135 C51.4840006,37.3125005 51.5874996,37.4339993 51.6685,37.578 C51.7495004,37.7220007 51.79,37.895999 51.79,38.1 C51.79,38.2800009 51.7555003,38.4479992 51.6865,38.604 C51.6174997,38.7600008 51.5155007,38.8979994 51.3805,39.018 C51.2454993,39.1380006 51.077501,39.2324997 50.8765,39.3015 C50.675499,39.3705003 50.4460013,39.405 50.188,39.405 C49.8759984,39.405 49.5790014,39.3480006 49.297,39.234 C49.0149986,39.1199994 48.769001,38.9760009 48.559,38.802 L48.928,38.307 Z" id="Lowestvalues" fill="#7A7A7A" fill-rule="nonzero"></path>
                <path d="M164.607,31.393 L165.354,31.393 L165.354,33.868 L168.099,33.868 L168.099,31.393 L168.855,31.393 L168.855,37.297 L168.099,37.297 L168.099,34.516 L165.354,34.516 L165.354,37.297 L164.607,37.297 L164.607,31.393 Z M170.77725,32.023 C170.633249,32.023 170.51175,31.9780004 170.41275,31.888 C170.31375,31.7979996 170.26425,31.6840007 170.26425,31.546 C170.26425,31.4019993 170.31375,31.2865004 170.41275,31.1995 C170.51175,31.1124996 170.633249,31.069 170.77725,31.069 C170.921251,31.069 171.04275,31.1124996 171.14175,31.1995 C171.24075,31.2865004 171.29025,31.4019993 171.29025,31.546 C171.29025,31.6840007 171.24075,31.7979996 171.14175,31.888 C171.04275,31.9780004 170.921251,32.023 170.77725,32.023 Z M170.39925,32.923 L171.13725,32.923 L171.13725,37.297 L170.39925,37.297 L170.39925,32.923 Z M172.9245,38.035 C172.9245,38.2690012 173.036999,38.4549993 173.262,38.593 C173.487001,38.7310007 173.797498,38.8 174.1935,38.8 C174.403501,38.8 174.593999,38.7745003 174.765,38.7235 C174.936001,38.6724997 175.081499,38.6065004 175.2015,38.5255 C175.321501,38.4444996 175.4145,38.3500005 175.4805,38.242 C175.5465,38.1339995 175.5795,38.0230006 175.5795,37.909 C175.5795,37.704999 175.504501,37.5640004 175.3545,37.486 C175.204499,37.4079996 174.985501,37.369 174.6975,37.369 L173.9415,37.369 C173.8575,37.369 173.766,37.3645 173.667,37.3555 C173.568,37.3465 173.4705,37.3270002 173.3745,37.297 C173.218499,37.4110006 173.1045,37.5309994 173.0325,37.657 C172.9605,37.7830006 172.9245,37.9089994 172.9245,38.035 Z M172.2765,38.134 C172.2765,37.9479991 172.333499,37.7710008 172.4475,37.603 C172.561501,37.4349992 172.717499,37.2820007 172.9155,37.144 L172.9155,37.108 C172.807499,37.0419997 172.716,36.9505006 172.641,36.8335 C172.566,36.7164994 172.5285,36.5710009 172.5285,36.397 C172.5285,36.2109991 172.579499,36.0490007 172.6815,35.911 C172.783501,35.7729993 172.891499,35.6650004 173.0055,35.587 L173.0055,35.551 C172.861499,35.4309994 172.731001,35.270501 172.614,35.0695 C172.496999,34.868499 172.4385,34.6360013 172.4385,34.372 C172.4385,34.1319988 172.482,33.916001 172.569,33.724 C172.656,33.531999 172.774499,33.3685007 172.9245,33.2335 C173.074501,33.0984993 173.249999,32.9950004 173.451,32.923 C173.652001,32.8509996 173.863499,32.815 174.0855,32.815 C174.205501,32.815 174.317999,32.8254999 174.423,32.8465 C174.528001,32.8675001 174.6225,32.8929998 174.7065,32.923 L176.2275,32.923 L176.2275,33.49 L175.3275,33.49 C175.429501,33.5920005 175.515,33.7209992 175.584,33.877 C175.653,34.0330008 175.6875,34.2039991 175.6875,34.39 C175.6875,34.6240012 175.6455,34.8354991 175.5615,35.0245 C175.4775,35.2135009 175.363501,35.3724994 175.2195,35.5015 C175.075499,35.6305006 174.906001,35.7309996 174.711,35.803 C174.515999,35.8750004 174.307501,35.911 174.0855,35.911 C173.977499,35.911 173.866501,35.8975001 173.7525,35.8705 C173.638499,35.8434999 173.530501,35.8060002 173.4285,35.758 C173.3505,35.8240003 173.2845,35.8974996 173.2305,35.9785 C173.1765,36.0595004 173.1495,36.1599994 173.1495,36.28 C173.1495,36.4180007 173.203499,36.5319995 173.3115,36.622 C173.419501,36.7120005 173.623499,36.757 173.9235,36.757 L174.7695,36.757 C175.279503,36.757 175.661999,36.8394992 175.917,37.0045 C176.172001,37.1695008 176.2995,37.4349982 176.2995,37.801 C176.2995,38.005001 176.248501,38.1984991 176.1465,38.3815 C176.044499,38.5645009 175.897501,38.7249993 175.7055,38.863 C175.513499,39.0010007 175.281001,39.1104996 175.008,39.1915 C174.734999,39.2725004 174.427502,39.313 174.0855,39.313 C173.815499,39.313 173.569501,39.2875003 173.3475,39.2365 C173.125499,39.1854997 172.935001,39.1090005 172.776,39.007 C172.616999,38.9049995 172.494,38.7820007 172.407,38.638 C172.32,38.4939993 172.2765,38.326001 172.2765,38.134 Z M174.0855,35.416 C174.211501,35.416 174.329999,35.3920002 174.441,35.344 C174.552001,35.2959998 174.651,35.2270004 174.738,35.137 C174.825,35.0469995 174.8925,34.9375006 174.9405,34.8085 C174.9885,34.6794994 175.0125,34.5340008 175.0125,34.372 C175.0125,34.0479984 174.922501,33.7975009 174.7425,33.6205 C174.562499,33.4434991 174.343501,33.355 174.0855,33.355 C173.827499,33.355 173.608501,33.4434991 173.4285,33.6205 C173.248499,33.7975009 173.1585,34.0479984 173.1585,34.372 C173.1585,34.5340008 173.1825,34.6794994 173.2305,34.8085 C173.2785,34.9375006 173.346,35.0469995 173.433,35.137 C173.52,35.2270004 173.618999,35.2959998 173.73,35.344 C173.841001,35.3920002 173.959499,35.416 174.0855,35.416 Z M177.14175,30.889 L177.87975,30.889 L177.87975,32.635 L177.85275,33.535 C178.062751,33.336999 178.281749,33.1675007 178.50975,33.0265 C178.737751,32.8854993 179.004748,32.815 179.31075,32.815 C179.772752,32.815 180.110249,32.9589986 180.32325,33.247 C180.536251,33.5350014 180.64275,33.9609972 180.64275,34.525 L180.64275,37.297 L179.90475,37.297 L179.90475,34.624 C179.90475,34.2099979 179.838751,33.9115009 179.70675,33.7285 C179.574749,33.5454991 179.364751,33.454 179.07675,33.454 C178.848749,33.454 178.647751,33.5109994 178.47375,33.625 C178.299749,33.7390006 178.101751,33.9069989 177.87975,34.129 L177.87975,37.297 L177.14175,37.297 L177.14175,30.889 Z M181.71,35.119 C181.71,34.7589982 181.765499,34.4365014 181.8765,34.1515 C181.987501,33.8664986 182.134499,33.625001 182.3175,33.427 C182.500501,33.228999 182.708999,33.0775005 182.943,32.9725 C183.177001,32.8674995 183.419999,32.815 183.672,32.815 C183.948001,32.815 184.195499,32.8629995 184.4145,32.959 C184.633501,33.0550005 184.816499,33.1929991 184.9635,33.373 C185.110501,33.5530009 185.223,33.7689987 185.301,34.021 C185.379,34.2730013 185.418,34.5549984 185.418,34.867 C185.418,35.0290008 185.409,35.1639995 185.391,35.272 L182.439,35.272 C182.469,35.7460024 182.614499,36.1209986 182.8755,36.397 C183.136501,36.6730014 183.476998,36.811 183.897,36.811 C184.107001,36.811 184.300499,36.7795003 184.4775,36.7165 C184.654501,36.6534997 184.823999,36.5710005 184.986,36.469 L185.247,36.955 C185.054999,37.0750006 184.842001,37.1799995 184.608,37.27 C184.373999,37.3600005 184.107002,37.405 183.807,37.405 C183.512999,37.405 183.238501,37.3525005 182.9835,37.2475 C182.728499,37.1424995 182.506501,36.992501 182.3175,36.7975 C182.128499,36.602499 181.980001,36.3640014 181.872,36.082 C181.763999,35.7999986 181.71,35.4790018 181.71,35.119 Z M184.77,34.786 C184.77,34.3359977 184.675501,33.9925012 184.4865,33.7555 C184.297499,33.5184988 184.032002,33.4 183.69,33.4 C183.533999,33.4 183.385501,33.4314997 183.2445,33.4945 C183.103499,33.5575003 182.976001,33.6474994 182.862,33.7645 C182.747999,33.8815006 182.6535,34.0254991 182.5785,34.1965 C182.5035,34.3675009 182.454,34.5639989 182.43,34.786 L184.77,34.786 Z M186.37725,36.307 C186.569251,36.4630008 186.765749,36.5889995 186.96675,36.685 C187.167751,36.7810005 187.400249,36.829 187.66425,36.829 C187.952251,36.829 188.168249,36.7630007 188.31225,36.631 C188.456251,36.4989993 188.52825,36.337001 188.52825,36.145 C188.52825,36.0309994 188.49825,35.9320004 188.43825,35.848 C188.37825,35.7639996 188.30175,35.6905003 188.20875,35.6275 C188.11575,35.5644997 188.009251,35.5090002 187.88925,35.461 L187.52925,35.317 C187.373249,35.2629997 187.217251,35.2015003 187.06125,35.1325 C186.905249,35.0634997 186.765751,34.9795005 186.64275,34.8805 C186.519749,34.7814995 186.41925,34.6660007 186.34125,34.534 C186.26325,34.4019993 186.22425,34.2430009 186.22425,34.057 C186.22425,33.8829991 186.25875,33.7195008 186.32775,33.5665 C186.39675,33.4134992 186.495749,33.2815006 186.62475,33.1705 C186.753751,33.0594994 186.911249,32.9725003 187.09725,32.9095 C187.283251,32.8464997 187.493249,32.815 187.72725,32.815 C188.003251,32.815 188.256749,32.8629995 188.48775,32.959 C188.718751,33.0550005 188.918249,33.1719993 189.08625,33.31 L188.73525,33.778 C188.585249,33.6639994 188.429251,33.5710004 188.26725,33.499 C188.105249,33.4269996 187.928251,33.391 187.73625,33.391 C187.460249,33.391 187.257751,33.4539994 187.12875,33.58 C186.999749,33.7060006 186.93525,33.8529992 186.93525,34.021 C186.93525,34.1230005 186.96225,34.2114996 187.01625,34.2865 C187.07025,34.3615004 187.14225,34.4274997 187.23225,34.4845 C187.32225,34.5415003 187.425749,34.5924998 187.54275,34.6375 L187.90725,34.777 C188.063251,34.8370003 188.220749,34.8999997 188.37975,34.966 C188.538751,35.0320003 188.681249,35.1144995 188.80725,35.2135 C188.933251,35.3125005 189.03675,35.4339993 189.11775,35.578 C189.19875,35.7220007 189.23925,35.895999 189.23925,36.1 C189.23925,36.2800009 189.20475,36.4479992 189.13575,36.604 C189.06675,36.7600008 188.964751,36.8979994 188.82975,37.018 C188.694749,37.1380006 188.526751,37.2324997 188.32575,37.3015 C188.124749,37.3705003 187.895251,37.405 187.63725,37.405 C187.325248,37.405 187.028251,37.3480006 186.74625,37.234 C186.464249,37.1199994 186.218251,36.9760009 186.00825,36.802 L186.37725,36.307 Z M190.3875,33.526 L189.7395,33.526 L189.7395,32.968 L190.4235,32.923 L190.5135,31.699 L191.1345,31.699 L191.1345,32.923 L192.3135,32.923 L192.3135,33.526 L191.1345,33.526 L191.1345,35.956 C191.1345,36.2260013 191.184,36.4344993 191.283,36.5815 C191.382,36.7285007 191.557499,36.802 191.8095,36.802 C191.8875,36.802 191.9715,36.7900001 192.0615,36.766 C192.1515,36.7419999 192.2325,36.7150001 192.3045,36.685 L192.4485,37.243 C192.328499,37.2850002 192.198001,37.3224998 192.057,37.3555 C191.915999,37.3885002 191.776501,37.405 191.6385,37.405 C191.404499,37.405 191.208001,37.3690004 191.049,37.297 C190.889999,37.2249996 190.761,37.1260006 190.662,37 C190.563,36.8739994 190.4925,36.7210009 190.4505,36.541 C190.4085,36.3609991 190.3875,36.1630011 190.3875,35.947 L190.3875,33.526 Z M194.484,32.923 L195.249,32.923 L196.077,35.407 L196.482,36.694 L196.482,36.694 L196.518,36.694 L196.914,35.407 L197.742,32.923 L198.471,32.923 L196.923,37.297 L196.059,37.297 L194.484,32.923 Z M198.73725,36.163 C198.73725,35.6829976 198.951748,35.3155013 199.38075,35.0605 C199.809752,34.8054987 200.492245,34.6270005 201.42825,34.525 C201.42825,34.3869993 201.41475,34.2520007 201.38775,34.12 C201.36075,33.9879993 201.31275,33.8710005 201.24375,33.769 C201.17475,33.6669995 201.083251,33.5845003 200.96925,33.5215 C200.855249,33.4584997 200.708251,33.427 200.52825,33.427 C200.270249,33.427 200.031751,33.4749995 199.81275,33.571 C199.593749,33.6670005 199.397251,33.7749994 199.22325,33.895 L198.92625,33.382 C199.130251,33.2499993 199.379249,33.1225006 199.67325,32.9995 C199.967251,32.8764994 200.291248,32.815 200.64525,32.815 C201.179253,32.815 201.566249,32.9784984 201.80625,33.3055 C202.046251,33.6325016 202.16625,34.0689973 202.16625,34.615 L202.16625,37.297 L201.55425,37.297 L201.49125,36.775 L201.47325,36.775 C201.263249,36.9490009 201.036751,37.0974994 200.79375,37.2205 C200.550749,37.3435006 200.294251,37.405 200.02425,37.405 C199.652248,37.405 199.344751,37.2970011 199.10175,37.081 C198.858749,36.8649989 198.73725,36.559002 198.73725,36.163 Z M199.46625,36.109 C199.46625,36.3610013 199.539749,36.5409995 199.68675,36.649 C199.833751,36.7570005 200.015249,36.811 200.23125,36.811 C200.441251,36.811 200.640749,36.7615005 200.82975,36.6625 C201.018751,36.5634995 201.218249,36.418001 201.42825,36.226 L201.42825,35.011 C201.062248,35.0590002 200.753251,35.1159997 200.50125,35.182 C200.249249,35.2480003 200.046751,35.3259995 199.89375,35.416 C199.740749,35.5060005 199.63125,35.6094994 199.56525,35.7265 C199.49925,35.8435006 199.46625,35.9709993 199.46625,36.109 Z M203.5575,30.889 L204.2955,30.889 L204.2955,36.469 C204.2955,36.5890006 204.3165,36.6729998 204.3585,36.721 C204.4005,36.7690002 204.4485,36.793 204.5025,36.793 L204.57,36.793 C204.591,36.793 204.6225,36.7870001 204.6645,36.775 L204.7635,37.333 C204.7155,37.3570001 204.6585,37.3749999 204.5925,37.387 C204.5265,37.3990001 204.442501,37.405 204.3405,37.405 C204.058499,37.405 203.857501,37.3210008 203.7375,37.153 C203.617499,36.9849992 203.5575,36.7390016 203.5575,36.415 L203.5575,30.889 Z M205.78575,32.923 L206.53275,32.923 L206.53275,35.596 C206.53275,36.0100021 206.597249,36.3084991 206.72625,36.4915 C206.855251,36.6745009 207.063749,36.766 207.35175,36.766 C207.579751,36.766 207.780749,36.7075006 207.95475,36.5905 C208.128751,36.4734994 208.320749,36.2860013 208.53075,36.028 L208.53075,32.923 L209.26875,32.923 L209.26875,37.297 L208.65675,37.297 L208.59375,36.613 L208.56675,36.613 C208.362749,36.8530012 208.148251,37.0449993 207.92325,37.189 C207.698249,37.3330007 207.432752,37.405 207.12675,37.405 C206.658748,37.405 206.318251,37.2610014 206.10525,36.973 C205.892249,36.6849986 205.78575,36.2590028 205.78575,35.695 L205.78575,32.923 Z M210.417,35.119 C210.417,34.7589982 210.472499,34.4365014 210.5835,34.1515 C210.694501,33.8664986 210.841499,33.625001 211.0245,33.427 C211.207501,33.228999 211.415999,33.0775005 211.65,32.9725 C211.884001,32.8674995 212.126999,32.815 212.379,32.815 C212.655001,32.815 212.902499,32.8629995 213.1215,32.959 C213.340501,33.0550005 213.523499,33.1929991 213.6705,33.373 C213.817501,33.5530009 213.93,33.7689987 214.008,34.021 C214.086,34.2730013 214.125,34.5549984 214.125,34.867 C214.125,35.0290008 214.116,35.1639995 214.098,35.272 L211.146,35.272 C211.176,35.7460024 211.321499,36.1209986 211.5825,36.397 C211.843501,36.6730014 212.183998,36.811 212.604,36.811 C212.814001,36.811 213.007499,36.7795003 213.1845,36.7165 C213.361501,36.6534997 213.530999,36.5710005 213.693,36.469 L213.954,36.955 C213.761999,37.0750006 213.549001,37.1799995 213.315,37.27 C213.080999,37.3600005 212.814001,37.405 212.514,37.405 C212.219999,37.405 211.945501,37.3525005 211.6905,37.2475 C211.435499,37.1424995 211.213501,36.992501 211.0245,36.7975 C210.835499,36.602499 210.687001,36.3640014 210.579,36.082 C210.470999,35.7999986 210.417,35.4790018 210.417,35.119 Z M213.477,34.786 C213.477,34.3359977 213.382501,33.9925012 213.1935,33.7555 C213.004499,33.5184988 212.739002,33.4 212.397,33.4 C212.240999,33.4 212.092501,33.4314997 211.9515,33.4945 C211.810499,33.5575003 211.683001,33.6474994 211.569,33.7645 C211.454999,33.8815006 211.3605,34.0254991 211.2855,34.1965 C211.2105,34.3675009 211.161,34.5639989 211.137,34.786 L213.477,34.786 Z M215.08425,36.307 C215.276251,36.4630008 215.472749,36.5889995 215.67375,36.685 C215.874751,36.7810005 216.107249,36.829 216.37125,36.829 C216.659251,36.829 216.875249,36.7630007 217.01925,36.631 C217.163251,36.4989993 217.23525,36.337001 217.23525,36.145 C217.23525,36.0309994 217.20525,35.9320004 217.14525,35.848 C217.08525,35.7639996 217.00875,35.6905003 216.91575,35.6275 C216.82275,35.5644997 216.716251,35.5090002 216.59625,35.461 L216.23625,35.317 C216.080249,35.2629997 215.924251,35.2015003 215.76825,35.1325 C215.612249,35.0634997 215.472751,34.9795005 215.34975,34.8805 C215.226749,34.7814995 215.12625,34.6660007 215.04825,34.534 C214.97025,34.4019993 214.93125,34.2430009 214.93125,34.057 C214.93125,33.8829991 214.96575,33.7195008 215.03475,33.5665 C215.10375,33.4134992 215.202749,33.2815006 215.33175,33.1705 C215.460751,33.0594994 215.618249,32.9725003 215.80425,32.9095 C215.990251,32.8464997 216.200249,32.815 216.43425,32.815 C216.710251,32.815 216.963749,32.8629995 217.19475,32.959 C217.425751,33.0550005 217.625249,33.1719993 217.79325,33.31 L217.44225,33.778 C217.292249,33.6639994 217.136251,33.5710004 216.97425,33.499 C216.812249,33.4269996 216.635251,33.391 216.44325,33.391 C216.167249,33.391 215.964751,33.4539994 215.83575,33.58 C215.706749,33.7060006 215.64225,33.8529992 215.64225,34.021 C215.64225,34.1230005 215.66925,34.2114996 215.72325,34.2865 C215.77725,34.3615004 215.84925,34.4274997 215.93925,34.4845 C216.02925,34.5415003 216.132749,34.5924998 216.24975,34.6375 L216.61425,34.777 C216.770251,34.8370003 216.927749,34.8999997 217.08675,34.966 C217.245751,35.0320003 217.388249,35.1144995 217.51425,35.2135 C217.640251,35.3125005 217.74375,35.4339993 217.82475,35.578 C217.90575,35.7220007 217.94625,35.895999 217.94625,36.1 C217.94625,36.2800009 217.91175,36.4479992 217.84275,36.604 C217.77375,36.7600008 217.671751,36.8979994 217.53675,37.018 C217.401749,37.1380006 217.233751,37.2324997 217.03275,37.3015 C216.831749,37.3705003 216.602251,37.405 216.34425,37.405 C216.032248,37.405 215.735251,37.3480006 215.45325,37.234 C215.171249,37.1199994 214.925251,36.9760009 214.71525,36.802 L215.08425,36.307 Z" id="Highestvalues" fill="#7A7A7A" fill-rule="nonzero"></path>
                <g id="Group-21" transform="translate(238.797000, 29.297000)">
                    <mask id="mask-2" fill="white">
                        <use xlink:href="#path-1"></use>
                    </mask>
                    <g id="Clip-20"></g>
                    <line x1="0.83205" y1="1.051725" x2="0.83205" y2="0.160725" id="Stroke-19" stroke="#AAAAAA" stroke-width="0.594" stroke-linecap="round" mask="url(#mask-2)"></line>
                </g>
                <g id="Group-24" transform="translate(238.797000, 2.297000)">
                    <mask id="mask-4" fill="white">
                        <use xlink:href="#path-3"></use>
                    </mask>
                    <g id="Clip-23"></g>
                    <line x1="0.83205" y1="26.014125" x2="0.83205" y2="0.419625" id="Stroke-22" stroke="#AAAAAA" stroke-width="0.594" stroke-linecap="round" stroke-dasharray="1.8960000872612,1.8960000872612" mask="url(#mask-4)"></line>
                </g>
                <g id="Group-27" transform="translate(238.797000, 0.297000)">
                    <mask id="mask-6" fill="white">
                        <use xlink:href="#path-5"></use>
                    </mask>
                    <g id="Clip-26"></g>
                    <line x1="0.83205" y1="0.971925" x2="0.83205" y2="0.080925" id="Stroke-25" stroke="#AAAAAA" stroke-width="0.594" stroke-linecap="round" mask="url(#mask-6)"></line>
                </g>
                <path d="M0.594,30.297 L0.594,29.297 C0.594,29.1329714 0.461028571,29 0.297,29 C0.132971429,29 0,29.1329714 0,29.297 L0,30.297 C0,30.4610286 0.132971429,30.594 0.297,30.594 C0.461028571,30.594 0.594,30.4610286 0.594,30.297 Z" id="Stroke-7" fill="#AAAAAA" fill-rule="nonzero"></path>
                <path d="M0.594,28.297 L0.594,26.4009999 C0.594,26.2369713 0.461028571,26.1039999 0.297,26.1039999 C0.132971429,26.1039999 0,26.2369713 0,26.4009999 L0,28.297 C0,28.4610286 0.132971429,28.594 0.297,28.594 C0.461028571,28.594 0.594,28.4610286 0.594,28.297 Z M0.594,24.5049997 L0.594,22.6089996 C0.594,22.444971 0.461028571,22.3119996 0.297,22.3119996 C0.132971429,22.3119996 0,22.444971 0,22.6089996 L0,24.5049997 C0,24.6690283 0.132971429,24.8019997 0.297,24.8019997 C0.461028571,24.8019997 0.594,24.6690283 0.594,24.5049997 Z M0.594,20.7129994 L0.594,18.8169993 C0.594,18.6529707 0.461028571,18.5199993 0.297,18.5199993 C0.132971429,18.5199993 0,18.6529707 0,18.8169993 L0,20.7129994 C0,20.877028 0.132971429,21.0099994 0.297,21.0099994 C0.461028571,21.0099994 0.594,20.877028 0.594,20.7129994 Z M0.594,16.9209991 L0.594,15.024999 C0.594,14.8609704 0.461028571,14.727999 0.297,14.727999 C0.132971429,14.727999 0,14.8609704 0,15.024999 L0,16.9209991 C0,17.0850277 0.132971429,17.2179991 0.297,17.2179991 C0.461028571,17.2179991 0.594,17.0850277 0.594,16.9209991 Z M0.594,13.1289988 L0.594,11.2329987 C0.594,11.0689701 0.461028571,10.9359987 0.297,10.9359987 C0.132971429,10.9359987 0,11.0689701 0,11.2329987 L0,13.1289988 C0,13.2930274 0.132971429,13.4259988 0.297,13.4259988 C0.461028571,13.4259988 0.594,13.2930274 0.594,13.1289988 Z M0.594,9.33699853 L0.594,7.44099838 C0.594,7.27696981 0.461028571,7.14399838 0.297,7.14399838 C0.132971429,7.14399838 0,7.27696981 0,7.44099838 L0,9.33699853 C0,9.5010271 0.132971429,9.63399853 0.297,9.63399853 C0.461028571,9.63399853 0.594,9.5010271 0.594,9.33699853 Z M0.594,5.54499824 L0.594,3.64899809 C0.594,3.48496952 0.461028571,3.35199809 0.297,3.35199809 C0.132971429,3.35199809 0,3.48496952 0,3.64899809 L0,5.54499824 C0,5.70902681 0.132971429,5.84199824 0.297,5.84199824 C0.461028571,5.84199824 0.594,5.70902681 0.594,5.54499824 Z" id="Stroke-9" fill="#AAAAAA" fill-rule="nonzero"></path>
                <path d="M0.594,1.297 L0.594,0.297 C0.594,0.132971429 0.461028571,0 0.297,0 C0.132971429,0 0,0.132971429 0,0.297 L0,1.297 C0,1.46102857 0.132971429,1.594 0.297,1.594 C0.461028571,1.594 0.594,1.46102857 0.594,1.297 Z" id="Stroke-11" fill="#AAAAAA" fill-rule="nonzero"></path>
                <path d="M45.594,30.297 L45.594,29.297 C45.594,29.1329714 45.4610286,29 45.297,29 C45.1329714,29 45,29.1329714 45,29.297 L45,30.297 C45,30.4610286 45.1329714,30.594 45.297,30.594 C45.4610286,30.594 45.594,30.4610286 45.594,30.297 Z" id="Stroke-13" fill="#AAAAAA" fill-rule="nonzero"></path>
                <path d="M45.594,28.297 L45.594,26.4009999 C45.594,26.2369713 45.4610286,26.1039999 45.297,26.1039999 C45.1329714,26.1039999 45,26.2369713 45,26.4009999 L45,28.297 C45,28.4610286 45.1329714,28.594 45.297,28.594 C45.4610286,28.594 45.594,28.4610286 45.594,28.297 Z M45.594,24.5049997 L45.594,22.6089996 C45.594,22.444971 45.4610286,22.3119996 45.297,22.3119996 C45.1329714,22.3119996 45,22.444971 45,22.6089996 L45,24.5049997 C45,24.6690283 45.1329714,24.8019997 45.297,24.8019997 C45.4610286,24.8019997 45.594,24.6690283 45.594,24.5049997 Z M45.594,20.7129994 L45.594,18.8169993 C45.594,18.6529707 45.4610286,18.5199993 45.297,18.5199993 C45.1329714,18.5199993 45,18.6529707 45,18.8169993 L45,20.7129994 C45,20.877028 45.1329714,21.0099994 45.297,21.0099994 C45.4610286,21.0099994 45.594,20.877028 45.594,20.7129994 Z M45.594,16.9209991 L45.594,15.024999 C45.594,14.8609704 45.4610286,14.727999 45.297,14.727999 C45.1329714,14.727999 45,14.8609704 45,15.024999 L45,16.9209991 C45,17.0850277 45.1329714,17.2179991 45.297,17.2179991 C45.4610286,17.2179991 45.594,17.0850277 45.594,16.9209991 Z M45.594,13.1289988 L45.594,11.2329987 C45.594,11.0689701 45.4610286,10.9359987 45.297,10.9359987 C45.1329714,10.9359987 45,11.0689701 45,11.2329987 L45,13.1289988 C45,13.2930274 45.1329714,13.4259988 45.297,13.4259988 C45.4610286,13.4259988 45.594,13.2930274 45.594,13.1289988 Z M45.594,9.33699853 L45.594,7.44099838 C45.594,7.27696981 45.4610286,7.14399838 45.297,7.14399838 C45.1329714,7.14399838 45,7.27696981 45,7.44099838 L45,9.33699853 C45,9.5010271 45.1329714,9.63399853 45.297,9.63399853 C45.4610286,9.63399853 45.594,9.5010271 45.594,9.33699853 Z M45.594,5.54499824 L45.594,3.64899809 C45.594,3.48496952 45.4610286,3.35199809 45.297,3.35199809 C45.1329714,3.35199809 45,3.48496952 45,3.64899809 L45,5.54499824 C45,5.70902681 45.1329714,5.84199824 45.297,5.84199824 C45.4610286,5.84199824 45.594,5.70902681 45.594,5.54499824 Z" id="Stroke-15" fill="#AAAAAA" fill-rule="nonzero"></path>
                <path d="M45.594,1.297 L45.594,0.297 C45.594,0.132971429 45.4610286,0 45.297,0 C45.1329714,0 45,0.132971429 45,0.297 L45,1.297 C45,1.46102857 45.1329714,1.594 45.297,1.594 C45.4610286,1.594 45.594,1.46102857 45.594,1.297 Z" id="Stroke-17" fill="#AAAAAA" fill-rule="nonzero"></path>
                <path d="M142.594,30.297 L142.594,29.297 C142.594,29.1329714 142.461029,29 142.297,29 C142.132971,29 142,29.1329714 142,29.297 L142,30.297 C142,30.4610286 142.132971,30.594 142.297,30.594 C142.461029,30.594 142.594,30.4610286 142.594,30.297 Z" id="Stroke-28" fill="#AAAAAA" fill-rule="nonzero"></path>
                <path d="M142.594,28.297 L142.594,26.4009999 C142.594,26.2369713 142.461029,26.1039999 142.297,26.1039999 C142.132971,26.1039999 142,26.2369713 142,26.4009999 L142,28.297 C142,28.4610286 142.132971,28.594 142.297,28.594 C142.461029,28.594 142.594,28.4610286 142.594,28.297 Z M142.594,24.5049997 L142.594,22.6089996 C142.594,22.444971 142.461029,22.3119996 142.297,22.3119996 C142.132971,22.3119996 142,22.444971 142,22.6089996 L142,24.5049997 C142,24.6690283 142.132971,24.8019997 142.297,24.8019997 C142.461029,24.8019997 142.594,24.6690283 142.594,24.5049997 Z M142.594,20.7129994 L142.594,18.8169993 C142.594,18.6529707 142.461029,18.5199993 142.297,18.5199993 C142.132971,18.5199993 142,18.6529707 142,18.8169993 L142,20.7129994 C142,20.877028 142.132971,21.0099994 142.297,21.0099994 C142.461029,21.0099994 142.594,20.877028 142.594,20.7129994 Z M142.594,16.9209991 L142.594,15.024999 C142.594,14.8609704 142.461029,14.727999 142.297,14.727999 C142.132971,14.727999 142,14.8609704 142,15.024999 L142,16.9209991 C142,17.0850277 142.132971,17.2179991 142.297,17.2179991 C142.461029,17.2179991 142.594,17.0850277 142.594,16.9209991 Z M142.594,13.1289988 L142.594,11.2329987 C142.594,11.0689701 142.461029,10.9359987 142.297,10.9359987 C142.132971,10.9359987 142,11.0689701 142,11.2329987 L142,13.1289988 C142,13.2930274 142.132971,13.4259988 142.297,13.4259988 C142.461029,13.4259988 142.594,13.2930274 142.594,13.1289988 Z M142.594,9.33699853 L142.594,7.44099838 C142.594,7.27696981 142.461029,7.14399838 142.297,7.14399838 C142.132971,7.14399838 142,7.27696981 142,7.44099838 L142,9.33699853 C142,9.5010271 142.132971,9.63399853 142.297,9.63399853 C142.461029,9.63399853 142.594,9.5010271 142.594,9.33699853 Z M142.594,5.54499824 L142.594,3.64899809 C142.594,3.48496952 142.461029,3.35199809 142.297,3.35199809 C142.132971,3.35199809 142,3.48496952 142,3.64899809 L142,5.54499824 C142,5.70902681 142.132971,5.84199824 142.297,5.84199824 C142.461029,5.84199824 142.594,5.70902681 142.594,5.54499824 Z" id="Stroke-30" fill="#AAAAAA" fill-rule="nonzero"></path>
                <path d="M142.594,1.297 L142.594,0.297 C142.594,0.132971429 142.461029,0 142.297,0 C142.132971,0 142,0.132971429 142,0.297 L142,1.297 C142,1.46102857 142.132971,1.594 142.297,1.594 C142.461029,1.594 142.594,1.46102857 142.594,1.297 Z" id="Stroke-32" fill="#AAAAAA" fill-rule="nonzero"></path>
            </g>
        </g>
    </g>
</svg>