<?xml version="1.0" encoding="UTF-8"?>
<svg width="249px" height="224px" viewBox="0 0 249 224" version="1.1" xmlns="http://www.w3.org/2000/svg" xmlns:xlink="http://www.w3.org/1999/xlink">
    <!-- Generator: Sketch 59.1 (86144) - https://sketch.com -->
    <title>People</title>
    <desc>Created with Sketch.</desc>
    <defs>
        <polygon id="path-1" points="0.5547 0.4245 63.72945 0.4245 63.72945 113.706375 0.5547 113.706375"></polygon>
        <polygon id="path-3" points="0.70065 0.4245 63.7734 0.4245 63.7734 113.706525 0.70065 113.706525"></polygon>
        <polygon id="path-5" points="0.14775 0.4245 81.2895 0.4245 81.2895 115.152975 0.14775 115.152975"></polygon>
    </defs>
    <g id="Export-Outlined-SVG" stroke="none" stroke-width="1" fill="none" fill-rule="evenodd">
        <g id="1" transform="translate(-252.000000, -936.000000)">
            <g id="People" transform="translate(252.000000, 936.000000)">
                <path d="M172,68 C172,79.5983703 162.597452,89 151.000375,89 C139.401798,89 130,79.5983703 130,68 C130,56.4031307 139.401798,47 151.000375,47 C162.597452,47 172,56.4031307 172,68" id="Fill-1" fill="#E8751A"></path>
                <path d="M172.499127,91 L158.607909,91 L144.384612,91 L130.493393,91 C124.771764,91 120.089003,95.8119 120,101.727089 C125.647585,104.765632 129.512115,110.850212 129.512115,117.849203 C129.512115,117.849203 130.162062,162.190637 130.493393,162.190637 L130.493393,210.10352 C130.493393,216.096659 135.218786,221 140.993518,221 C146.769746,221 151.495886,216.096659 151.495886,210.10352 C151.495886,216.096659 156.222027,221 161.996759,221 C167.772987,221 172.499127,216.096659 172.499127,210.10352 L172.499127,162.190637 C178.274607,162.190637 183,157.287296 183,151.295656 L183,101.894981 C183,95.9040906 178.274607,91 172.499127,91" id="Fill-3" fill="#E8751A"></path>
                <path d="M53,68 C53,79.5983703 43.5976198,89 32,89 C20.4023802,89 11,79.5983703 11,68 C11,56.4031307 20.4023802,47 32,47 C43.5976198,47 53,56.4031307 53,68" id="Fill-5" fill="#E8751A"></path>
                <path d="M53.5915193,117.849203 C53.5915193,109.618006 56.6861957,102.651993 64,100.416933 C63.2973114,95.1185967 58.8923981,91 53.5915193,91 L39.6778363,91 L25.4315374,91 L11.5171052,91 C5.73228534,91 1,95.9040906 1,101.894981 L1,151.295656 C1,157.287296 5.73228534,162.190637 11.5171052,162.190637 L11.5171052,210.10352 C11.5171052,216.096659 16.251638,221 22.0357088,221 C27.8212778,221 32.5543123,216.096659 32.5543123,210.10352 C32.5543123,216.096659 37.2880959,221 43.0729158,221 C48.8577357,221 53.5915193,216.096659 53.5915193,210.10352 L53.5915193,190.164865 L53.5915193,117.849203 Z" id="Fill-7" fill="#E8751A"></path>
                <path d="M117.500374,55 L99.6426254,55 L81.3573746,55 L63.4996257,55 C56.074869,55 50,61.297841 50,68.9962019 L50,132.456697 C50,140.153558 56.074869,146.452149 63.4996257,146.452149 L63.4996257,208.003048 C63.4996257,215.702159 69.5744946,222 76.9992513,222 C84.4255054,222 90.5003743,215.702159 90.5003743,208.003048 C90.5003743,215.702159 96.5752433,222 104.000749,222 C111.425505,222 117.500374,215.702159 117.500374,208.003048 L117.500374,146.452149 C124.925131,146.452149 131,140.153558 131,132.456697 L131,68.9962019 C131,61.297841 124.925131,55 117.500374,55" id="Fill-9" fill="#E8751A"></path>
                <path d="M117,27.0007514 C117,41.9121748 104.911087,54 89.9992486,54 C75.0881616,54 63,41.9121748 63,27.0007514 C63,12.089328 75.0881616,0 89.9992486,0 C104.911087,0 117,12.089328 117,27.0007514" id="Fill-11" fill="#E8751A"></path>
                <path d="M243.0515,127.456 L243.0515,134.896 C243.0515,135.056001 243.0795,135.168 243.1355,135.232 C243.1915,135.296 243.2555,135.328 243.3275,135.328 L243.4175,135.328 C243.4455,135.328 243.4875,135.32 243.5435,135.304 L243.6755,136.048 C243.6115,136.08 243.5355,136.104 243.4475,136.12 C243.3595,136.136 243.247501,136.144 243.1115,136.144 C242.735498,136.144 242.467501,136.032001 242.3075,135.808 C242.147499,135.583999 242.0675,135.256002 242.0675,134.824 L242.0675,127.456 L243.0515,127.456 Z M230.2925,130.168 L230.2925,133.732 C230.2925,134.284003 230.378499,134.681999 230.5505,134.926 C230.722501,135.170001 231.000498,135.292 231.3845,135.292 C231.688502,135.292 231.956499,135.214001 232.1885,135.058 C232.420501,134.901999 232.676499,134.652002 232.9565,134.308 L232.9565,130.168 L233.9405,130.168 L233.9405,136 L233.1245,136 L233.0405,135.088 L233.0045,135.088 C232.732499,135.408002 232.446501,135.663999 232.1465,135.856 C231.846498,136.048001 231.492502,136.144 231.0845,136.144 C230.460497,136.144 230.006501,135.952002 229.7225,135.568 C229.438499,135.183998 229.2965,134.616004 229.2965,133.864 L229.2965,130.168 L230.2925,130.168 Z M209.207,127.456 L209.207,136 L208.391,136 L208.307,135.316 L208.271,135.316 C208.038999,135.540001 207.773001,135.733999 207.473,135.898 C207.172998,136.062001 206.851002,136.144 206.507,136.144 C205.770996,136.144 205.185002,135.880003 204.749,135.352 C204.312998,134.823997 204.095,134.072005 204.095,133.096 C204.095,132.623998 204.164999,132.198002 204.305,131.818 C204.445001,131.437998 204.630999,131.116001 204.863,130.852 C205.095,130.587999 205.362998,130.384001 205.667,130.24 C205.971002,130.095999 206.290998,130.024 206.627,130.024 C206.963002,130.024 207.254999,130.083999 207.503,130.204 C207.751001,130.324001 208.002999,130.487999 208.259,130.696 L208.211,129.7 L208.211,127.456 L209.207,127.456 Z M227.405,127.456 L227.405,136 L226.589,136 L226.505,135.316 L226.469,135.316 C226.236999,135.540001 225.971001,135.733999 225.671,135.898 C225.370998,136.062001 225.049002,136.144 224.705,136.144 C223.968996,136.144 223.383002,135.880003 222.947,135.352 C222.510998,134.823997 222.293,134.072005 222.293,133.096 C222.293,132.623998 222.362999,132.198002 222.503,131.818 C222.643001,131.437998 222.828999,131.116001 223.061,130.852 C223.293,130.587999 223.560998,130.384001 223.865,130.24 C224.169002,130.095999 224.488998,130.024 224.825,130.024 C225.161002,130.024 225.452999,130.083999 225.701,130.204 C225.949001,130.324001 226.200999,130.487999 226.457,130.696 L226.409,129.7 L226.409,127.456 L227.405,127.456 Z M246.779,130.024 C247.147002,130.024 247.484998,130.087999 247.793,130.216 C248.101002,130.344001 248.366999,130.499999 248.591,130.684 L248.123,131.308 C247.922999,131.155999 247.715001,131.032 247.499,130.936 C247.282999,130.84 247.047001,130.792 246.791,130.792 C246.422998,130.792 246.153001,130.875999 245.981,131.044 C245.808999,131.212001 245.723,131.407999 245.723,131.632 C245.723,131.768001 245.759,131.885999 245.831,131.986 C245.903,132.086 245.998999,132.174 246.119,132.25 C246.239001,132.326 246.376999,132.394 246.533,132.454 L247.019,132.64 C247.227001,132.72 247.436999,132.804 247.649,132.892 C247.861001,132.98 248.050999,133.089999 248.219,133.222 C248.387001,133.354001 248.524999,133.515999 248.633,133.708 C248.741001,133.900001 248.795,134.131999 248.795,134.404 C248.795,134.644001 248.749,134.867999 248.657,135.076 C248.565,135.284001 248.429001,135.467999 248.249,135.628 C248.068999,135.788001 247.845001,135.914 247.577,136.006 C247.308999,136.098 247.003002,136.144 246.659,136.144 C246.242998,136.144 245.847002,136.068001 245.471,135.916 C245.094998,135.763999 244.767001,135.572001 244.487,135.34 L244.979,134.68 C245.235001,134.888001 245.496999,135.055999 245.765,135.184 C246.033001,135.312001 246.342998,135.376 246.695,135.376 C247.079002,135.376 247.366999,135.288001 247.559,135.112 C247.751001,134.935999 247.847,134.720001 247.847,134.464 C247.847,134.311999 247.807,134.180001 247.727,134.068 C247.647,133.955999 247.545001,133.858 247.421,133.774 C247.296999,133.69 247.155001,133.616 246.995,133.552 L246.515,133.36 C246.306999,133.288 246.099001,133.206 245.891,133.114 C245.682999,133.022 245.497001,132.910001 245.333,132.778 C245.168999,132.645999 245.035001,132.492001 244.931,132.316 C244.826999,132.139999 244.775,131.928001 244.775,131.68 C244.775,131.447999 244.821,131.230001 244.913,131.026 C245.005,130.821999 245.136999,130.646001 245.309,130.498 C245.481001,130.349999 245.690999,130.234 245.939,130.15 C246.187001,130.066 246.466998,130.024 246.779,130.024 Z M238.172,130.024 C238.884004,130.024 239.399998,130.241998 239.72,130.678 C240.040002,131.114002 240.2,131.695996 240.2,132.424 L240.2,136 L239.384,136 L239.3,135.304 L239.276,135.304 C238.995999,135.536001 238.694002,135.733999 238.37,135.898 C238.045998,136.062001 237.704002,136.144 237.344,136.144 C236.847998,136.144 236.438002,136.000001 236.114,135.712 C235.789998,135.423999 235.628,135.016003 235.628,134.488 C235.628,133.847997 235.913997,133.358002 236.486,133.018 C237.058003,132.677998 237.967994,132.440001 239.216,132.304 C239.216,132.119999 239.198,131.940001 239.162,131.764 C239.126,131.587999 239.062,131.432001 238.97,131.296 C238.878,131.159999 238.756001,131.05 238.604,130.966 C238.451999,130.882 238.256001,130.84 238.016,130.84 C237.671998,130.84 237.354001,130.903999 237.062,131.032 C236.769999,131.160001 236.508001,131.303999 236.276,131.464 L235.88,130.78 C236.152001,130.603999 236.483998,130.434001 236.876,130.27 C237.268002,130.105999 237.699998,130.024 238.172,130.024 Z M200.8355,130.024 C201.451503,130.024 201.901499,130.215998 202.1855,130.6 C202.469501,130.984002 202.6115,131.551996 202.6115,132.304 L202.6115,136 L201.6275,136 L201.6275,132.436 C201.6275,131.883997 201.539501,131.486001 201.3635,131.242 C201.187499,130.997999 200.907502,130.876 200.5235,130.876 C200.219498,130.876 199.951501,130.951999 199.7195,131.104 C199.487499,131.256001 199.223501,131.479999 198.9275,131.776 L198.9275,136 L197.9435,136 L197.9435,130.168 L198.7595,130.168 L198.8435,131.008 L198.8795,131.008 C199.159501,130.727999 199.453498,130.494001 199.7615,130.306 C200.069502,130.117999 200.427498,130.024 200.8355,130.024 Z M195.968,130.168 L195.968,136 L194.984,136 L194.984,130.168 L195.968,130.168 Z M214.322,130.168 L215.426,133.48 L215.696,134.344 L215.966,135.196 L216.014,135.196 L216.278,134.344 L216.542,133.48 L217.646,130.168 L218.618,130.168 L216.554,136 L215.402,136 L213.302,130.168 L214.322,130.168 Z M212.1665,130.168 L212.1665,136 L211.1825,136 L211.1825,130.168 L212.1665,130.168 Z M220.7375,130.168 L220.7375,136 L219.7535,136 L219.7535,130.168 L220.7375,130.168 Z M239.216,132.952 C238.727998,133.016 238.316002,133.092 237.98,133.18 C237.643998,133.268 237.374001,133.371999 237.17,133.492 C236.965999,133.612001 236.82,133.749999 236.732,133.906 C236.644,134.062001 236.6,134.231999 236.6,134.416 C236.6,134.752002 236.697999,134.991999 236.894,135.136 C237.090001,135.280001 237.331999,135.352 237.62,135.352 C237.900001,135.352 238.165999,135.286001 238.418,135.154 C238.670001,135.021999 238.935999,134.828001 239.216,134.572 L239.216,132.952 Z M206.795,130.852 C206.562999,130.852 206.345001,130.905999 206.141,131.014 C205.936999,131.122001 205.759001,131.273999 205.607,131.47 C205.454999,131.666001 205.335,131.899999 205.247,132.172 C205.159,132.444001 205.115,132.747998 205.115,133.084 C205.115,133.788004 205.254999,134.335998 205.535,134.728 C205.815001,135.120002 206.210997,135.316 206.723,135.316 C206.995001,135.316 207.250999,135.250001 207.491,135.118 C207.731001,134.985999 207.970999,134.784001 208.211,134.512 L208.211,131.464 C207.962999,131.239999 207.725001,131.082 207.497,130.99 C207.268999,130.898 207.035001,130.852 206.795,130.852 Z M224.993,130.852 C224.760999,130.852 224.543001,130.905999 224.339,131.014 C224.134999,131.122001 223.957001,131.273999 223.805,131.47 C223.652999,131.666001 223.533,131.899999 223.445,132.172 C223.357,132.444001 223.313,132.747998 223.313,133.084 C223.313,133.788004 223.452999,134.335998 223.733,134.728 C224.013001,135.120002 224.408997,135.316 224.921,135.316 C225.193001,135.316 225.448999,135.250001 225.689,135.118 C225.929001,134.985999 226.168999,134.784001 226.409,134.512 L226.409,131.464 C226.160999,131.239999 225.923001,131.082 225.695,130.99 C225.466999,130.898 225.233001,130.852 224.993,130.852 Z M211.6865,127.696 C211.878501,127.696 212.040499,127.753999 212.1725,127.87 C212.304501,127.986001 212.3705,128.139999 212.3705,128.332 C212.3705,128.516001 212.304501,128.667999 212.1725,128.788 C212.040499,128.908001 211.878501,128.968 211.6865,128.968 C211.494499,128.968 211.332501,128.908001 211.2005,128.788 C211.068499,128.667999 211.0025,128.516001 211.0025,128.332 C211.0025,128.139999 211.068499,127.986001 211.2005,127.87 C211.332501,127.753999 211.494499,127.696 211.6865,127.696 Z M195.488,127.696 C195.680001,127.696 195.841999,127.753999 195.974,127.87 C196.106001,127.986001 196.172,128.139999 196.172,128.332 C196.172,128.516001 196.106001,128.667999 195.974,128.788 C195.841999,128.908001 195.680001,128.968 195.488,128.968 C195.295999,128.968 195.134001,128.908001 195.002,128.788 C194.869999,128.667999 194.804,128.516001 194.804,128.332 C194.804,128.139999 194.869999,127.986001 195.002,127.87 C195.134001,127.753999 195.295999,127.696 195.488,127.696 Z M220.2575,127.696 C220.449501,127.696 220.611499,127.753999 220.7435,127.87 C220.875501,127.986001 220.9415,128.139999 220.9415,128.332 C220.9415,128.516001 220.875501,128.667999 220.7435,128.788 C220.611499,128.908001 220.449501,128.968 220.2575,128.968 C220.065499,128.968 219.903501,128.908001 219.7715,128.788 C219.639499,128.667999 219.5735,128.516001 219.5735,128.332 C219.5735,128.139999 219.639499,127.986001 219.7715,127.87 C219.903501,127.753999 220.065499,127.696 220.2575,127.696 Z M197.492,114.2 C197.908002,114.2 198.265998,114.277999 198.566,114.434 C198.866001,114.590001 199.123999,114.783999 199.34,115.016 L198.788,115.628 C198.627999,115.443999 198.438001,115.298001 198.218,115.19 C197.997999,115.081999 197.768001,115.028 197.528,115.028 C197.263999,115.028 197.012001,115.083999 196.772,115.196 C196.531999,115.308001 196.320001,115.491999 196.136,115.748 C195.951999,116.004001 195.804001,116.337998 195.692,116.75 C195.579999,117.162002 195.52,117.671997 195.512,118.28 C195.752001,117.983999 196.031998,117.750001 196.352,117.578 C196.672002,117.405999 196.987998,117.32 197.3,117.32 C197.964003,117.32 198.493998,117.515998 198.89,117.908 C199.286002,118.300002 199.484,118.891996 199.484,119.684 C199.484,120.052002 199.424001,120.385998 199.304,120.686 C199.183999,120.986001 199.020001,121.243999 198.812,121.46 C198.603999,121.676001 198.364001,121.843999 198.092,121.964 C197.819999,122.084001 197.528002,122.144 197.216,122.144 C196.839998,122.144 196.492002,122.068001 196.172,121.916 C195.851998,121.763999 195.574001,121.534002 195.338,121.226 C195.101999,120.917998 194.916001,120.534002 194.78,120.074 C194.643999,119.613998 194.576,119.076003 194.576,118.46 C194.576,117.691996 194.655999,117.038003 194.816,116.498 C194.976001,115.957997 195.191999,115.518002 195.464,115.178 C195.736001,114.837998 196.045998,114.590001 196.394,114.434 C196.742002,114.277999 197.107998,114.2 197.492,114.2 Z M202.7075,114.2 C203.083502,114.2 203.433498,114.275999 203.7575,114.428 C204.081502,114.580001 204.361499,114.809998 204.5975,115.118 C204.833501,115.426002 205.017499,115.809998 205.1495,116.27 C205.281501,116.730002 205.3475,117.267997 205.3475,117.884 C205.3475,118.652004 205.267501,119.305997 205.1075,119.846 C204.947499,120.386003 204.731501,120.825998 204.4595,121.166 C204.187499,121.506002 203.877502,121.753999 203.5295,121.91 C203.181498,122.066001 202.815502,122.144 202.4315,122.144 C202.023498,122.144 201.665502,122.068001 201.3575,121.916 C201.049498,121.763999 200.791501,121.572001 200.5835,121.34 L201.1355,120.716 C201.295501,120.900001 201.485499,121.047999 201.7055,121.16 C201.925501,121.272001 202.155499,121.328 202.3955,121.328 C202.667501,121.328 202.923499,121.272001 203.1635,121.16 C203.403501,121.047999 203.615499,120.862001 203.7995,120.602 C203.983501,120.341999 204.131499,120.004002 204.2435,119.588 C204.355501,119.171998 204.4155,118.656003 204.4235,118.04 C204.183499,118.344002 203.903502,118.583999 203.5835,118.76 C203.263498,118.936001 202.943502,119.024 202.6235,119.024 C201.959497,119.024 201.431502,118.828002 201.0395,118.436 C200.647498,118.043998 200.4515,117.452004 200.4515,116.66 C200.4515,116.291998 200.511499,115.958001 200.6315,115.658 C200.751501,115.357998 200.913499,115.100001 201.1175,114.884 C201.321501,114.667999 201.561499,114.500001 201.8375,114.38 C202.113501,114.259999 202.403498,114.2 202.7075,114.2 Z M213.635,117.176 C214.171003,117.176 214.602998,117.389998 214.931,117.818 C215.259002,118.246002 215.423,118.855996 215.423,119.648 C215.423,120.448004 215.259002,121.063998 214.931,121.496 C214.602998,121.928002 214.171003,122.144 213.635,122.144 C213.090997,122.144 212.657002,121.928002 212.333,121.496 C212.008998,121.063998 211.847,120.448004 211.847,119.648 C211.847,118.855996 212.008998,118.246002 212.333,117.818 C212.657002,117.389998 213.090997,117.176 213.635,117.176 Z M213.383,113.984 L209.039,122.144 L208.367,122.144 L212.711,113.984 L213.383,113.984 Z M231.521,116.024 C231.889002,116.024 232.218999,116.087999 232.511,116.216 C232.803001,116.344001 233.046999,116.527999 233.243,116.768 C233.439001,117.008001 233.588999,117.295998 233.693,117.632 C233.797001,117.968002 233.849,118.343998 233.849,118.76 C233.849,118.976001 233.837,119.155999 233.813,119.3 L229.877,119.3 C229.917,119.932003 230.110998,120.431998 230.459,120.8 C230.807002,121.168002 231.260997,121.352 231.821,121.352 C232.101001,121.352 232.358999,121.31 232.595,121.226 C232.831001,121.142 233.056999,121.032001 233.273,120.896 L233.621,121.544 C233.364999,121.704001 233.081002,121.843999 232.769,121.964 C232.456998,122.084001 232.101002,122.144 231.701,122.144 C231.308998,122.144 230.943002,122.074001 230.603,121.934 C230.262998,121.793999 229.967001,121.594001 229.715,121.334 C229.462999,121.073999 229.265001,120.756002 229.121,120.38 C228.976999,120.003998 228.905,119.576002 228.905,119.096 C228.905,118.615998 228.978999,118.186002 229.127,117.806 C229.275001,117.425998 229.470999,117.104001 229.715,116.84 C229.959001,116.575999 230.236998,116.374001 230.549,116.234 C230.861002,116.093999 231.184998,116.024 231.521,116.024 Z M221.51,116.024 C222.222004,116.024 222.737998,116.241998 223.058,116.678 C223.378002,117.114002 223.538,117.695996 223.538,118.424 L223.538,122 L222.722,122 L222.638,121.304 L222.614,121.304 C222.333999,121.536001 222.032002,121.733999 221.708,121.898 C221.383998,122.062001 221.042002,122.144 220.682,122.144 C220.185998,122.144 219.776002,122.000001 219.452,121.712 C219.127998,121.423999 218.966,121.016003 218.966,120.488 C218.966,119.847997 219.251997,119.358002 219.824,119.018 C220.396003,118.677998 221.305994,118.440001 222.554,118.304 C222.554,118.119999 222.536,117.940001 222.5,117.764 C222.464,117.587999 222.4,117.432001 222.308,117.296 C222.216,117.159999 222.094001,117.05 221.942,116.966 C221.789999,116.882 221.594001,116.84 221.354,116.84 C221.009998,116.84 220.692001,116.903999 220.4,117.032 C220.107999,117.160001 219.846001,117.303999 219.614,117.464 L219.218,116.78 C219.490001,116.603999 219.821998,116.434001 220.214,116.27 C220.606002,116.105999 221.037998,116.024 221.51,116.024 Z M227.9975,116.024 C228.229501,116.024 228.437499,116.064 228.6215,116.144 L228.4295,117.008 C228.3335,116.976 228.2455,116.952 228.1655,116.936 C228.0855,116.92 227.985501,116.912 227.8655,116.912 C227.617499,116.912 227.359501,117.011999 227.0915,117.212 C226.823499,117.412001 226.589501,117.759998 226.3895,118.256 L226.3895,122 L225.4055,122 L225.4055,116.168 L226.2215,116.168 L226.3055,117.224 L226.3415,117.224 C226.541501,116.855998 226.783499,116.564001 227.0675,116.348 C227.351501,116.131999 227.661498,116.024 227.9975,116.024 Z M213.635,117.788 C213.322998,117.788 213.071001,117.941998 212.879,118.25 C212.686999,118.558002 212.591,119.023997 212.591,119.648 C212.591,120.272003 212.686999,120.741998 212.879,121.058 C213.071001,121.374002 213.322998,121.532 213.635,121.532 C213.939002,121.532 214.186999,121.374002 214.379,121.058 C214.571001,120.741998 214.667,120.272003 214.667,119.648 C214.667,119.023997 214.571001,118.558002 214.379,118.25 C214.186999,117.941998 213.939002,117.788 213.635,117.788 Z M197.132,118.064 C196.891999,118.064 196.630001,118.141999 196.346,118.298 C196.061999,118.454001 195.792001,118.711998 195.536,119.072 C195.6,119.824004 195.773999,120.393998 196.058,120.782 C196.342001,121.170002 196.727998,121.364 197.216,121.364 C197.408001,121.364 197.583999,121.324 197.744,121.244 C197.904001,121.164 198.043999,121.050001 198.164,120.902 C198.284001,120.753999 198.378,120.578001 198.446,120.374 C198.514,120.169999 198.548,119.940001 198.548,119.684 C198.548,119.179997 198.432001,118.784001 198.2,118.496 C197.967999,118.207999 197.612002,118.064 197.132,118.064 Z M222.554,118.952 C222.065998,119.016 221.654002,119.092 221.318,119.18 C220.981998,119.268 220.712001,119.371999 220.508,119.492 C220.303999,119.612001 220.158,119.749999 220.07,119.906 C219.982,120.062001 219.938,120.231999 219.938,120.416 C219.938,120.752002 220.035999,120.991999 220.232,121.136 C220.428001,121.280001 220.669999,121.352 220.958,121.352 C221.238001,121.352 221.503999,121.286001 221.756,121.154 C222.008001,121.021999 222.273999,120.828001 222.554,120.572 L222.554,118.952 Z M208.151,113.984 C208.687003,113.984 209.118998,114.197998 209.447,114.626 C209.775002,115.054002 209.939,115.663996 209.939,116.456 C209.939,117.256004 209.775002,117.871998 209.447,118.304 C209.118998,118.736002 208.687003,118.952 208.151,118.952 C207.606997,118.952 207.173002,118.736002 206.849,118.304 C206.524998,117.871998 206.363,117.256004 206.363,116.456 C206.363,115.663996 206.524998,115.054002 206.849,114.626 C207.173002,114.197998 207.606997,113.984 208.151,113.984 Z M231.545,116.804 C231.336999,116.804 231.139001,116.846 230.951,116.93 C230.762999,117.014 230.593001,117.133999 230.441,117.29 C230.288999,117.446001 230.163,117.637999 230.063,117.866 C229.962999,118.094001 229.897,118.355999 229.865,118.652 L229.865,118.652 L232.985,118.652 C232.985,118.051997 232.859001,117.594002 232.607,117.278 C232.354999,116.961998 232.001002,116.804 231.545,116.804 Z M208.151,114.596 C207.838998,114.596 207.587001,114.749998 207.395,115.058 C207.202999,115.366002 207.107,115.831997 207.107,116.456 C207.107,117.080003 207.202999,117.549998 207.395,117.866 C207.587001,118.182002 207.838998,118.34 208.151,118.34 C208.455002,118.34 208.702999,118.182002 208.895,117.866 C209.087001,117.549998 209.183,117.080003 209.183,116.456 C209.183,115.831997 209.087001,115.366002 208.895,115.058 C208.702999,114.749998 208.455002,114.596 208.151,114.596 Z M202.7075,114.98 C202.523499,114.98 202.349501,115.02 202.1855,115.1 C202.021499,115.18 201.879501,115.293999 201.7595,115.442 C201.639499,115.590001 201.5455,115.767999 201.4775,115.976 C201.4095,116.184001 201.3755,116.411999 201.3755,116.66 C201.3755,117.164003 201.491499,117.559999 201.7235,117.848 C201.955501,118.136001 202.311498,118.28 202.7915,118.28 C203.039501,118.28 203.305499,118.202001 203.5895,118.046 C203.873501,117.889999 204.143499,117.628002 204.3995,117.26 C204.3355,116.507996 204.159501,115.940002 203.8715,115.556 C203.583499,115.171998 203.195502,114.98 202.7075,114.98 Z" id="Combined-Shape" fill="#3F3F3F" fill-rule="nonzero"></path>
                <path d="M237.2555,75.024 C237.623502,75.024 237.953499,75.0879994 238.2455,75.216 C238.537501,75.3440006 238.781499,75.5279988 238.9775,75.768 C239.173501,76.0080012 239.323499,76.2959983 239.4275,76.632 C239.531501,76.9680017 239.5835,77.3439979 239.5835,77.76 C239.5835,77.9760011 239.5715,78.1559993 239.5475,78.3 L235.6115,78.3 C235.6515,78.9320032 235.845498,79.4319982 236.1935,79.8 C236.541502,80.1680018 236.995497,80.352 237.5555,80.352 C237.835501,80.352 238.093499,80.3100004 238.3295,80.226 C238.565501,80.1419996 238.791499,80.0320007 239.0075,79.896 L239.3555,80.544 C239.099499,80.7040008 238.815502,80.8439994 238.5035,80.964 C238.191498,81.0840006 237.835502,81.144 237.4355,81.144 C237.043498,81.144 236.677502,81.0740007 236.3375,80.934 C235.997498,80.7939993 235.701501,80.5940013 235.4495,80.334 C235.197499,80.0739987 234.999501,79.7560019 234.8555,79.38 C234.711499,79.0039981 234.6395,78.5760024 234.6395,78.096 C234.6395,77.6159976 234.713499,77.1860019 234.8615,76.806 C235.009501,76.4259981 235.205499,76.1040013 235.4495,75.84 C235.693501,75.5759987 235.971498,75.3740007 236.2835,75.234 C236.595502,75.0939993 236.919498,75.024 237.2555,75.024 Z M212.234,75.024 C212.946004,75.024 213.461998,75.2419978 213.782,75.678 C214.102002,76.1140022 214.262,76.6959964 214.262,77.424 L214.262,81 L213.446,81 L213.362,80.304 L213.338,80.304 C213.057999,80.5360012 212.756002,80.7339992 212.432,80.898 C212.107998,81.0620008 211.766002,81.144 211.406,81.144 C210.909998,81.144 210.500002,81.0000014 210.176,80.712 C209.851998,80.4239986 209.69,80.0160026 209.69,79.488 C209.69,78.8479968 209.975997,78.3580017 210.548,78.018 C211.120003,77.6779983 212.029994,77.4400007 213.278,77.304 C213.278,77.1199991 213.26,76.9400009 213.224,76.764 C213.188,76.5879991 213.124,76.4320007 213.032,76.296 C212.94,76.1599993 212.818001,76.0500004 212.666,75.966 C212.513999,75.8819996 212.318001,75.84 212.078,75.84 C211.733998,75.84 211.416001,75.9039994 211.124,76.032 C210.831999,76.1600006 210.570001,76.3039992 210.338,76.464 L209.942,75.78 C210.214001,75.6039991 210.545998,75.4340008 210.938,75.27 C211.330002,75.1059992 211.761998,75.024 212.234,75.024 Z M242.675,75.024 C243.043002,75.024 243.380998,75.0879994 243.689,75.216 C243.997002,75.3440006 244.262999,75.4999991 244.487,75.684 L244.019,76.308 C243.818999,76.1559992 243.611001,76.0320005 243.395,75.936 C243.178999,75.8399995 242.943001,75.792 242.687,75.792 C242.318998,75.792 242.049001,75.8759992 241.877,76.044 C241.704999,76.2120008 241.619,76.4079989 241.619,76.632 C241.619,76.7680007 241.655,76.8859995 241.727,76.986 C241.799,77.0860005 241.894999,77.1739996 242.015,77.25 C242.135001,77.3260004 242.272999,77.3939997 242.429,77.454 L242.915,77.64 C243.123001,77.7200004 243.332999,77.8039996 243.545,77.892 C243.757001,77.9800004 243.946999,78.0899993 244.115,78.222 C244.283001,78.3540007 244.420999,78.515999 244.529,78.708 C244.637001,78.900001 244.691,79.1319986 244.691,79.404 C244.691,79.6440012 244.645,79.867999 244.553,80.076 C244.461,80.284001 244.325001,80.4679992 244.145,80.628 C243.964999,80.7880008 243.741001,80.9139995 243.473,81.006 C243.204999,81.0980005 242.899002,81.144 242.555,81.144 C242.138998,81.144 241.743002,81.0680008 241.367,80.916 C240.990998,80.7639992 240.663001,80.5720012 240.383,80.34 L240.875,79.68 C241.131001,79.888001 241.392999,80.0559994 241.661,80.184 C241.929001,80.3120006 242.238998,80.376 242.591,80.376 C242.975002,80.376 243.262999,80.2880009 243.455,80.112 C243.647001,79.9359991 243.743,79.7200013 243.743,79.464 C243.743,79.3119992 243.703,79.1800006 243.623,79.068 C243.543,78.9559994 243.441001,78.8580004 243.317,78.774 C243.192999,78.6899996 243.051001,78.6160003 242.891,78.552 L242.411,78.36 C242.202999,78.2879996 241.995001,78.2060005 241.787,78.114 C241.578999,78.0219995 241.393001,77.9100007 241.229,77.778 C241.064999,77.6459993 240.931001,77.4920009 240.827,77.316 C240.722999,77.1399991 240.671,76.9280012 240.671,76.68 C240.671,76.4479988 240.717,76.230001 240.809,76.026 C240.901,75.821999 241.032999,75.6460007 241.205,75.498 C241.377001,75.3499993 241.586999,75.2340004 241.835,75.15 C242.083001,75.0659996 242.362998,75.024 242.675,75.024 Z M230.0285,72.456 L230.0285,79.896 C230.0285,80.0560008 230.0565,80.1679997 230.1125,80.232 C230.1685,80.2960003 230.2325,80.328 230.3045,80.328 L230.3945,80.328 C230.4225,80.328 230.4645,80.3200001 230.5205,80.304 L230.6525,81.048 C230.5885,81.0800002 230.5125,81.1039999 230.4245,81.12 C230.3365,81.1360001 230.224501,81.144 230.0885,81.144 C229.712498,81.144 229.444501,81.0320011 229.2845,80.808 C229.124499,80.5839989 229.0445,80.2560022 229.0445,79.824 L229.0445,72.456 L230.0285,72.456 Z M233.096,75.168 L233.096,81 L232.112,81 L232.112,75.168 L233.096,75.168 Z M195.968,75.168 L195.968,81 L194.984,81 L194.984,75.168 L195.968,75.168 Z M227.069,75.168 L227.069,81 L226.085,81 L226.085,75.168 L227.069,75.168 Z M222.4055,75.024 C223.005503,75.024 223.451499,75.2159981 223.7435,75.6 C224.035501,75.9840019 224.1815,76.5519962 224.1815,77.304 L224.1815,81 L223.1975,81 L223.1975,77.436 C223.1975,76.8839972 223.109501,76.4860012 222.9335,76.242 C222.757499,75.9979988 222.485502,75.876 222.1175,75.876 C221.677498,75.876 221.189503,76.175997 220.6535,76.776 L220.6535,81 L219.6695,81 L219.6695,77.436 C219.6695,76.8839972 219.581501,76.4860012 219.4055,76.242 C219.229499,75.9979988 218.953502,75.876 218.5775,75.876 C218.137498,75.876 217.649503,76.175997 217.1135,76.776 L217.1135,81 L216.1295,81 L216.1295,75.168 L216.9455,75.168 L217.0295,76.008 L217.0655,76.008 C217.321501,75.7279986 217.599498,75.4940009 217.8995,75.306 C218.199501,75.1179991 218.525498,75.024 218.8775,75.024 C219.325502,75.024 219.675499,75.121999 219.9275,75.318 C220.179501,75.514001 220.365499,75.7879982 220.4855,76.14 C220.789502,75.8039983 221.095498,75.534001 221.4035,75.33 C221.711502,75.125999 222.045498,75.024 222.4055,75.024 Z M200.8355,75.024 C201.451503,75.024 201.901499,75.2159981 202.1855,75.6 C202.469501,75.9840019 202.6115,76.5519962 202.6115,77.304 L202.6115,81 L201.6275,81 L201.6275,77.436 C201.6275,76.8839972 201.539501,76.4860012 201.3635,76.242 C201.187499,75.9979988 200.907502,75.876 200.5235,75.876 C200.219498,75.876 199.951501,75.9519992 199.7195,76.104 C199.487499,76.2560008 199.223501,76.4799985 198.9275,76.776 L198.9275,81 L197.9435,81 L197.9435,75.168 L198.7595,75.168 L198.8435,76.008 L198.8795,76.008 C199.159501,75.7279986 199.453498,75.4940009 199.7615,75.306 C200.069502,75.1179991 200.427498,75.024 200.8355,75.024 Z M208.8185,72.312 C209.002501,72.312 209.176499,72.3299998 209.3405,72.366 C209.504501,72.4020002 209.654499,72.4479997 209.7905,72.504 L209.5745,73.26 C209.358499,73.1639995 209.138501,73.116 208.9145,73.116 C208.370497,73.116 208.0985,73.4919962 208.0985,74.244 L208.0985,75.168 L209.3345,75.168 L209.3345,75.972 L208.0985,75.972 L208.0985,81 L207.1145,81 L207.1145,75.972 L206.3225,75.972 L206.3225,75.228 L207.1145,75.168 L207.1145,74.244 C207.1145,73.643997 207.252499,73.1720017 207.5285,72.828 C207.804501,72.4839983 208.234497,72.312 208.8185,72.312 Z M213.278,77.952 C212.789998,78.0160003 212.378002,78.0919996 212.042,78.18 C211.705998,78.2680004 211.436001,78.3719994 211.232,78.492 C211.027999,78.6120006 210.882,78.7499992 210.794,78.906 C210.706,79.0620008 210.662,79.2319991 210.662,79.416 C210.662,79.7520017 210.759999,79.9919993 210.956,80.136 C211.152001,80.2800007 211.393999,80.352 211.682,80.352 C211.962001,80.352 212.227999,80.2860007 212.48,80.154 C212.732001,80.0219993 212.997999,79.8280013 213.278,79.572 L213.278,77.952 Z M237.2795,75.804 C237.071499,75.804 236.873501,75.8459996 236.6855,75.93 C236.497499,76.0140004 236.327501,76.1339992 236.1755,76.29 C236.023499,76.4460008 235.8975,76.6379989 235.7975,76.866 C235.697499,77.0940011 235.6315,77.3559985 235.5995,77.652 L238.7195,77.652 C238.7195,77.051997 238.593501,76.5940016 238.3415,76.278 C238.089499,75.9619984 237.735502,75.804 237.2795,75.804 Z M232.616,72.696 C232.808001,72.696 232.969999,72.7539994 233.102,72.87 C233.234001,72.9860006 233.3,73.139999 233.3,73.332 C233.3,73.5160009 233.234001,73.6679994 233.102,73.788 C232.969999,73.9080006 232.808001,73.968 232.616,73.968 C232.423999,73.968 232.262001,73.9080006 232.13,73.788 C231.997999,73.6679994 231.932,73.5160009 231.932,73.332 C231.932,73.139999 231.997999,72.9860006 232.13,72.87 C232.262001,72.7539994 232.423999,72.696 232.616,72.696 Z M195.488,72.696 C195.680001,72.696 195.841999,72.7539994 195.974,72.87 C196.106001,72.9860006 196.172,73.139999 196.172,73.332 C196.172,73.5160009 196.106001,73.6679994 195.974,73.788 C195.841999,73.9080006 195.680001,73.968 195.488,73.968 C195.295999,73.968 195.134001,73.9080006 195.002,73.788 C194.869999,73.6679994 194.804,73.5160009 194.804,73.332 C194.804,73.139999 194.869999,72.9860006 195.002,72.87 C195.134001,72.7539994 195.295999,72.696 195.488,72.696 Z M226.589,72.696 C226.781001,72.696 226.942999,72.7539994 227.075,72.87 C227.207001,72.9860006 227.273,73.139999 227.273,73.332 C227.273,73.5160009 227.207001,73.6679994 227.075,73.788 C226.942999,73.9080006 226.781001,73.968 226.589,73.968 C226.396999,73.968 226.235001,73.9080006 226.103,73.788 C225.970999,73.6679994 225.905,73.5160009 225.905,73.332 C225.905,73.139999 225.970999,72.9860006 226.103,72.87 C226.235001,72.7539994 226.396999,72.696 226.589,72.696 Z M214.635,63.176 C215.171003,63.176 215.602998,63.3899979 215.931,63.818 C216.259002,64.2460021 216.423,64.855996 216.423,65.648 C216.423,66.448004 216.259002,67.0639978 215.931,67.496 C215.602998,67.9280022 215.171003,68.144 214.635,68.144 C214.090997,68.144 213.657002,67.9280022 213.333,67.496 C213.008998,67.0639978 212.847,66.448004 212.847,65.648 C212.847,64.855996 213.008998,64.2460021 213.333,63.818 C213.657002,63.3899979 214.090997,63.176 214.635,63.176 Z M214.383,59.984 L210.039,68.144 L209.367,68.144 L213.711,59.984 L214.383,59.984 Z M232.521,62.024 C232.889002,62.024 233.218999,62.0879994 233.511,62.216 C233.803001,62.3440006 234.046999,62.5279988 234.243,62.768 C234.439001,63.0080012 234.588999,63.2959983 234.693,63.632 C234.797001,63.9680017 234.849,64.3439979 234.849,64.76 C234.849,64.9760011 234.837,65.1559993 234.813,65.3 L230.877,65.3 C230.917,65.9320032 231.110998,66.4319982 231.459,66.8 C231.807002,67.1680018 232.260997,67.352 232.821,67.352 C233.101001,67.352 233.358999,67.3100004 233.595,67.226 C233.831001,67.1419996 234.056999,67.0320007 234.273,66.896 L234.621,67.544 C234.364999,67.7040008 234.081002,67.8439994 233.769,67.964 C233.456998,68.0840006 233.101002,68.144 232.701,68.144 C232.308998,68.144 231.943002,68.0740007 231.603,67.934 C231.262998,67.7939993 230.967001,67.5940013 230.715,67.334 C230.462999,67.0739987 230.265001,66.7560019 230.121,66.38 C229.976999,66.0039981 229.905,65.5760024 229.905,65.096 C229.905,64.6159976 229.978999,64.1860019 230.127,63.806 C230.275001,63.4259981 230.470999,63.1040013 230.715,62.84 C230.959001,62.5759987 231.236998,62.3740007 231.549,62.234 C231.861002,62.0939993 232.184998,62.024 232.521,62.024 Z M222.51,62.024 C223.222004,62.024 223.737998,62.2419978 224.058,62.678 C224.378002,63.1140022 224.538,63.6959964 224.538,64.424 L224.538,68 L223.722,68 L223.638,67.304 L223.614,67.304 C223.333999,67.5360012 223.032002,67.7339992 222.708,67.898 C222.383998,68.0620008 222.042002,68.144 221.682,68.144 C221.185998,68.144 220.776002,68.0000014 220.452,67.712 C220.127998,67.4239986 219.966,67.0160026 219.966,66.488 C219.966,65.8479968 220.251997,65.3580017 220.824,65.018 C221.396003,64.6779983 222.305994,64.4400007 223.554,64.304 C223.554,64.1199991 223.536,63.9400009 223.5,63.764 C223.464,63.5879991 223.4,63.4320007 223.308,63.296 C223.216,63.1599993 223.094001,63.0500004 222.942,62.966 C222.789999,62.8819996 222.594001,62.84 222.354,62.84 C222.009998,62.84 221.692001,62.9039994 221.4,63.032 C221.107999,63.1600006 220.846001,63.3039992 220.614,63.464 L220.218,62.78 C220.490001,62.6039991 220.821998,62.4340008 221.214,62.27 C221.606002,62.1059992 222.037998,62.024 222.51,62.024 Z M197.796,60.2 C198.132002,60.2 198.439999,60.2439996 198.72,60.332 C199.000001,60.4200004 199.241999,60.5459992 199.446,60.71 C199.650001,60.8740008 199.807999,61.0759988 199.92,61.316 C200.032001,61.5560012 200.088,61.8319984 200.088,62.144 C200.088,62.6080023 199.960001,62.9879985 199.704,63.284 C199.447999,63.5800015 199.112002,63.8079992 198.696,63.968 L198.696,64.016 C198.928001,64.0720003 199.143999,64.1539995 199.344,64.262 C199.544001,64.3700005 199.719999,64.5059992 199.872,64.67 C200.024001,64.8340008 200.142,65.0239989 200.226,65.24 C200.31,65.4560011 200.352,65.6959987 200.352,65.96 C200.352,66.2960017 200.286001,66.5999986 200.154,66.872 C200.021999,67.1440014 199.842001,67.3739991 199.614,67.562 C199.385999,67.7500009 199.120002,67.8939995 198.816,67.994 C198.511998,68.0940005 198.184002,68.144 197.832,68.144 C197.527998,68.144 197.250001,68.1140003 196.998,68.054 C196.745999,67.9939997 196.516001,67.9140005 196.308,67.814 C196.099999,67.7139995 195.914001,67.6000006 195.75,67.472 C195.585999,67.3439994 195.440001,67.2080007 195.312,67.064 L195.816,66.416 C196.048001,66.6560012 196.317998,66.8679991 196.626,67.052 C196.934002,67.2360009 197.315998,67.328 197.772,67.328 C198.236002,67.328 198.615999,67.2020013 198.912,66.95 C199.208001,66.6979987 199.356,66.3560022 199.356,65.924 C199.356,65.7 199.314,65.4940009 199.23,65.306 C199.146,65.1179991 199.008001,64.9560007 198.816,64.82 C198.623999,64.6839993 198.372002,64.5800004 198.06,64.508 C197.747998,64.4359996 197.364002,64.4 196.908,64.4 L196.908,63.644 C197.316002,63.644 197.657999,63.6080004 197.934,63.536 C198.210001,63.4639996 198.433999,63.3640006 198.606,63.236 C198.778001,63.1079994 198.9,62.9560009 198.972,62.78 C199.044,62.6039991 199.08,62.416001 199.08,62.216 C199.08,61.8399981 198.962001,61.5440011 198.726,61.328 C198.489999,61.1119989 198.168002,61.004 197.76,61.004 C197.439998,61.004 197.146001,61.0759993 196.878,61.22 C196.609999,61.3640007 196.360001,61.5519988 196.128,61.784 L195.6,61.16 C195.896001,60.8799986 196.221998,60.6500009 196.578,60.47 C196.934002,60.2899991 197.339998,60.2 197.796,60.2 Z M204.6555,60.344 L204.6555,67.184 L206.2395,67.184 L206.2395,68 L201.9195,68 L201.9195,67.184 L203.6715,67.184 L203.6715,61.544 L202.2795,61.544 L202.2795,60.908 C202.631502,60.844 202.937499,60.7660005 203.1975,60.674 C203.457501,60.5819995 203.691499,60.4720006 203.8995,60.344 L204.6555,60.344 Z M228.9975,62.024 C229.229501,62.024 229.437499,62.0639996 229.6215,62.144 L229.4295,63.008 C229.3335,62.9759998 229.2455,62.9520001 229.1655,62.936 C229.0855,62.9199999 228.985501,62.912 228.8655,62.912 C228.617499,62.912 228.359501,63.011999 228.0915,63.212 C227.823499,63.412001 227.589501,63.7599975 227.3895,64.256 L227.3895,68 L226.4055,68 L226.4055,62.168 L227.2215,62.168 L227.3055,63.224 L227.3415,63.224 C227.541501,62.8559982 227.783499,62.5640011 228.0675,62.348 C228.351501,62.1319989 228.661498,62.024 228.9975,62.024 Z M214.635,63.788 C214.322998,63.788 214.071001,63.9419985 213.879,64.25 C213.686999,64.5580015 213.591,65.0239969 213.591,65.648 C213.591,66.2720031 213.686999,66.7419984 213.879,67.058 C214.071001,67.3740016 214.322998,67.532 214.635,67.532 C214.939002,67.532 215.186999,67.3740016 215.379,67.058 C215.571001,66.7419984 215.667,66.2720031 215.667,65.648 C215.667,65.0239969 215.571001,64.5580015 215.379,64.25 C215.186999,63.9419985 214.939002,63.788 214.635,63.788 Z M223.554,64.952 C223.065998,65.0160003 222.654002,65.0919996 222.318,65.18 C221.981998,65.2680004 221.712001,65.3719994 221.508,65.492 C221.303999,65.6120006 221.158,65.7499992 221.07,65.906 C220.982,66.0620008 220.938,66.2319991 220.938,66.416 C220.938,66.7520017 221.035999,66.9919993 221.232,67.136 C221.428001,67.2800007 221.669999,67.352 221.958,67.352 C222.238001,67.352 222.503999,67.2860007 222.756,67.154 C223.008001,67.0219993 223.273999,66.8280013 223.554,66.572 L223.554,64.952 Z M209.151,59.984 C209.687003,59.984 210.118998,60.1979979 210.447,60.626 C210.775002,61.0540021 210.939,61.663996 210.939,62.456 C210.939,63.256004 210.775002,63.8719978 210.447,64.304 C210.118998,64.7360022 209.687003,64.952 209.151,64.952 C208.606997,64.952 208.173002,64.7360022 207.849,64.304 C207.524998,63.8719978 207.363,63.256004 207.363,62.456 C207.363,61.663996 207.524998,61.0540021 207.849,60.626 C208.173002,60.1979979 208.606997,59.984 209.151,59.984 Z M232.545,62.804 C232.336999,62.804 232.139001,62.8459996 231.951,62.93 C231.762999,63.0140004 231.593001,63.1339992 231.441,63.29 C231.288999,63.4460008 231.163,63.6379989 231.063,63.866 C230.962999,64.0940011 230.897,64.3559985 230.865,64.652 L230.865,64.652 L233.985,64.652 C233.985,64.051997 233.859001,63.5940016 233.607,63.278 C233.354999,62.9619984 233.001002,62.804 232.545,62.804 Z M209.151,60.596 C208.838998,60.596 208.587001,60.7499985 208.395,61.058 C208.202999,61.3660015 208.107,61.8319969 208.107,62.456 C208.107,63.0800031 208.202999,63.5499984 208.395,63.866 C208.587001,64.1820016 208.838998,64.34 209.151,64.34 C209.455002,64.34 209.702999,64.1820016 209.895,63.866 C210.087001,63.5499984 210.183,63.0800031 210.183,62.456 C210.183,61.8319969 210.087001,61.3660015 209.895,61.058 C209.702999,60.7499985 209.455002,60.596 209.151,60.596 Z" id="Combined-Shape" fill="#3F3F3F" fill-rule="nonzero"></path>
                <g id="Group-31" transform="translate(0.000000, 108.000000)">
                    <g id="Group-20" transform="translate(119.250000, 0.000000)">
                        <mask id="mask-2" fill="white">
                            <use xlink:href="#path-1"></use>
                        </mask>
                        <g id="Clip-19"></g>
                        <path d="M53.19945,-16.377375 L39.2697,-16.377375 L25.00695,-16.377375 L11.0772,-16.377375 C5.3397,-16.377375 0.64395,-11.562375 0.5547,-5.644125 C6.21795,-2.603625 10.0932,3.484875 10.0932,10.488375 C10.0932,10.488375 10.74495,54.858375 11.0772,54.858375 L11.0772,102.802875 C11.0772,108.799875 15.8157,113.706375 21.60645,113.706375 C27.3987,113.706375 32.13795,108.799875 32.13795,102.802875 C32.13795,108.799875 36.8772,113.706375 42.66795,113.706375 C48.4602,113.706375 53.19945,108.799875 53.19945,102.802875 L53.19945,54.858375 C58.99095,54.858375 63.72945,49.951875 63.72945,43.957125 L63.72945,-5.475375 C63.72945,-11.470875 58.99095,-16.377375 53.19945,-16.377375" id="Fill-18" fill="#E89054" mask="url(#mask-2)"></path>
                    </g>
                    <g id="Group-25">
                        <mask id="mask-4" fill="white">
                            <use xlink:href="#path-3"></use>
                        </mask>
                        <g id="Clip-24"></g>
                        <path d="M53.3529,10.488525 C53.3529,2.252775 56.45115,-4.717725 63.7734,-6.954225 C63.0699,-12.255975 58.6599,-16.377225 53.3529,-16.377225 L39.42315,-16.377225 L25.1604,-16.377225 L11.2299,-16.377225 C5.4384,-16.377225 0.70065,-11.470725 0.70065,-5.475225 L0.70065,43.957275 C0.70065,49.952025 5.4384,54.858525 11.2299,54.858525 L11.2299,102.803025 C11.2299,108.800025 15.9699,113.706525 21.76065,113.706525 C27.5529,113.706525 32.2914,108.800025 32.2914,102.803025 C32.2914,108.800025 37.03065,113.706525 42.82215,113.706525 C48.61365,113.706525 53.3529,108.800025 53.3529,102.803025 L53.3529,82.851525 L53.3529,10.488525 Z" id="Fill-23" fill="#E89054" mask="url(#mask-4)"></path>
                    </g>
                    <g id="Group-28" transform="translate(49.500000, 0.000000)">
                        <mask id="mask-6" fill="white">
                            <use xlink:href="#path-5"></use>
                        </mask>
                        <g id="Clip-27"></g>
                        <path d="M67.76625,-51.904275 L49.87725,-51.904275 L31.56,-51.904275 L13.671,-51.904275 C6.23325,-51.904275 0.14775,-45.604275 0.14775,-37.904025 L0.14775,25.578975 C0.14775,33.278475 6.23325,39.579225 13.671,39.579225 L13.671,101.150475 C13.671,108.852975 19.7565,115.152975 27.19425,115.152975 C34.6335,115.152975 40.719,108.852975 40.719,101.150475 C40.719,108.852975 46.8045,115.152975 54.243,115.152975 C61.68075,115.152975 67.76625,108.852975 67.76625,101.150475 L67.76625,39.579225 C75.204,39.579225 81.2895,33.278475 81.2895,25.578975 L81.2895,-37.904025 C81.2895,-45.604275 75.204,-51.904275 67.76625,-51.904275" id="Fill-26" fill="#E89054" mask="url(#mask-6)"></path>
                    </g>
                </g>
                <g id="Group-38" transform="translate(0.000000, 107.000000)" stroke="#FFFFFF" stroke-width="1.9815">
                    <line x1="0.693975" y1="0.933375" x2="2.675475" y2="0.933375" id="Stroke-32"></line>
                    <line x1="4.63515" y1="0.933375" x2="180.01815" y2="0.933375" id="Stroke-34" stroke-dasharray="3.91949987411499,1.959749937057495"></line>
                    <line x1="180.99795" y1="0.933375" x2="182.97945" y2="0.933375" id="Stroke-36"></line>
                </g>
            </g>
        </g>
    </g>
</svg>