<?xml version="1.0" encoding="UTF-8"?>
<svg width="305px" height="68px" viewBox="0 0 305 68" version="1.1" xmlns="http://www.w3.org/2000/svg" xmlns:xlink="http://www.w3.org/1999/xlink">
    <!-- Generator: Sketch 59.1 (86144) - https://sketch.com -->
    <title>Rent as Income</title>
    <desc>Created with Sketch.</desc>
    <g id="Export-Outlined-SVG" stroke="none" stroke-width="1" fill="none" fill-rule="evenodd">
        <g id="1" transform="translate(-845.000000, -640.000000)">
            <g id="Rent-as-Income" transform="translate(845.462000, 640.986000)">
                <polygon id="Fill-1" fill="#E0E0E0" points="1.538 33.014 298.538 33.014 298.538 23.014 1.538 23.014"></polygon>
                <path d="M11.2365,1.13686838e-13 L7.4355,7.14 L6.8475,7.14 L10.6485,1.13686838e-13 L11.2365,1.13686838e-13 Z M237.6135,1.13686838e-13 L233.8125,7.14 L233.2245,7.14 L237.0255,1.13686838e-13 L237.6135,1.13686838e-13 Z M86.425,1.13686838e-13 L82.624,7.14 L82.036,7.14 L85.837,1.13686838e-13 L86.425,1.13686838e-13 Z M160.6135,1.13686838e-13 L156.8125,7.14 L156.2245,7.14 L160.0255,1.13686838e-13 L160.6135,1.13686838e-13 Z M302.6135,1.13686838e-13 L298.8125,7.14 L298.2245,7.14 L302.0255,1.13686838e-13 L302.6135,1.13686838e-13 Z M73.9165,0.315 L73.9165,1.0605 L71.323,1.0605 L71.1445,3.045 C71.3055008,2.96099958 71.4664992,2.89450025 71.6275,2.8455 C71.7885008,2.79649976 71.970499,2.772 72.1735,2.772 C72.4605014,2.772 72.7299987,2.81399958 72.982,2.898 C73.2340013,2.98200042 73.4544991,3.10974914 73.6435,3.28125 C73.8325009,3.45275086 73.9812495,3.66974869 74.08975,3.93225 C74.1982505,4.19475131 74.2525,4.50799818 74.2525,4.872 C74.2525,5.23600182 74.1895006,5.5579986 74.0635,5.838 C73.9374994,6.1180014 73.7695011,6.35424904 73.5595,6.54675 C73.349499,6.73925096 73.1097513,6.88624949 72.84025,6.98775 C72.5707487,7.08925051 72.2890015,7.14 71.995,7.14 C71.7289987,7.14 71.4857511,7.11375026 71.26525,7.06125 C71.0447489,7.00874974 70.8452509,6.94050042 70.66675,6.8565 C70.4882491,6.77249958 70.3272507,6.67625054 70.18375,6.56775 C70.0402493,6.45924946 69.9125006,6.3455006 69.8005,6.2265 L70.2205,5.6595 C70.416501,5.86250102 70.6492487,6.04099923 70.91875,6.195 C71.1882513,6.34900077 71.518998,6.426 71.911,6.426 C72.114001,6.426 72.3047491,6.38925037 72.48325,6.31575 C72.6617509,6.24224963 72.8174993,6.13900067 72.9505,6.006 C73.0835007,5.87299934 73.1884996,5.71200095 73.2655,5.523 C73.3425004,5.33399906 73.381,5.12400116 73.381,4.893 C73.381,4.43099769 73.2515013,4.0705013 72.9925,3.8115 C72.7334987,3.55249871 72.3870022,3.423 71.953,3.423 C71.7219988,3.423 71.5242508,3.45799965 71.35975,3.528 C71.1952492,3.59800035 71.011501,3.69949934 70.8085,3.8325 L70.3465,3.5385 L70.567,0.315 L73.9165,0.315 Z M225.105,0.315 L225.105,1.0605 L222.5115,1.0605 L222.333,3.045 C222.494001,2.96099958 222.654999,2.89450025 222.816,2.8455 C222.977001,2.79649976 223.158999,2.772 223.362,2.772 C223.649001,2.772 223.918499,2.81399958 224.1705,2.898 C224.422501,2.98200042 224.642999,3.10974914 224.832,3.28125 C225.021001,3.45275086 225.169749,3.66974869 225.27825,3.93225 C225.386751,4.19475131 225.441,4.50799818 225.441,4.872 C225.441,5.23600182 225.378001,5.5579986 225.252,5.838 C225.125999,6.1180014 224.958001,6.35424904 224.748,6.54675 C224.537999,6.73925096 224.298251,6.88624949 224.02875,6.98775 C223.759249,7.08925051 223.477501,7.14 223.1835,7.14 C222.917499,7.14 222.674251,7.11375026 222.45375,7.06125 C222.233249,7.00874974 222.033751,6.94050042 221.85525,6.8565 C221.676749,6.77249958 221.515751,6.67625054 221.37225,6.56775 C221.228749,6.45924946 221.101001,6.3455006 220.989,6.2265 L221.409,5.6595 C221.605001,5.86250102 221.837749,6.04099923 222.10725,6.195 C222.376751,6.34900077 222.707498,6.426 223.0995,6.426 C223.302501,6.426 223.493249,6.38925037 223.67175,6.31575 C223.850251,6.24224963 224.005999,6.13900067 224.139,6.006 C224.272001,5.87299934 224.377,5.71200095 224.454,5.523 C224.531,5.33399906 224.5695,5.12400116 224.5695,4.893 C224.5695,4.43099769 224.440001,4.0705013 224.181,3.8115 C223.921999,3.55249871 223.575502,3.423 223.1415,3.423 C222.910499,3.423 222.712751,3.45799965 222.54825,3.528 C222.383749,3.59800035 222.200001,3.69949934 221.997,3.8325 L221.535,3.5385 L221.7555,0.315 L225.105,0.315 Z M11.457,2.793 C11.9260023,2.793 12.3039986,2.98024813 12.591,3.35475 C12.8780014,3.72925187 13.0215,4.26299654 13.0215,4.956 C13.0215,5.6560035 12.8780014,6.19499811 12.591,6.573 C12.3039986,6.95100189 11.9260023,7.14 11.457,7.14 C10.9809976,7.14 10.6012514,6.95100189 10.31775,6.573 C10.0342486,6.19499811 9.8925,5.6560035 9.8925,4.956 C9.8925,4.26299654 10.0342486,3.72925187 10.31775,3.35475 C10.6012514,2.98024813 10.9809976,2.793 11.457,2.793 Z M151.5295,0.189 C152.201503,0.189 152.726498,0.48299706 153.1045,1.071 C153.482502,1.65900294 153.6715,2.51649437 153.6715,3.6435 C153.6715,4.77050564 153.482502,5.63499699 153.1045,6.237 C152.726498,6.83900301 152.201503,7.14 151.5295,7.14 C150.850497,7.14 150.322002,6.83900301 149.944,6.237 C149.565998,5.63499699 149.377,4.77050564 149.377,3.6435 C149.377,2.51649437 149.565998,1.65900294 149.944,1.071 C150.322002,0.48299706 150.850497,0.189 151.5295,0.189 Z M2.1525,0.189 C2.82450336,0.189 3.34949811,0.48299706 3.7275,1.071 C4.10550189,1.65900294 4.2945,2.51649437 4.2945,3.6435 C4.2945,4.77050564 4.10550189,5.63499699 3.7275,6.237 C3.34949811,6.83900301 2.82450336,7.14 2.1525,7.14 C1.47349661,7.14 0.94500189,6.83900301 0.567,6.237 C0.18899811,5.63499699 6.82121026e-13,4.77050564 6.82121026e-13,3.6435 C6.82121026e-13,2.51649437 0.18899811,1.65900294 0.567,1.071 C0.94500189,0.48299706 1.47349661,0.189 2.1525,0.189 Z M288.341,0.189 C289.013003,0.189 289.537998,0.48299706 289.916,1.071 C290.294002,1.65900294 290.483,2.51649437 290.483,3.6435 C290.483,4.77050564 290.294002,5.63499699 289.916,6.237 C289.537998,6.83900301 289.013003,7.14 288.341,7.14 C287.661997,7.14 287.133502,6.83900301 286.7555,6.237 C286.377498,5.63499699 286.1885,4.77050564 286.1885,3.6435 C286.1885,2.51649437 286.377498,1.65900294 286.7555,1.071 C287.133502,0.48299706 287.661997,0.189 288.341,0.189 Z M293.5295,0.189 C294.201503,0.189 294.726498,0.48299706 295.1045,1.071 C295.482502,1.65900294 295.6715,2.51649437 295.6715,3.6435 C295.6715,4.77050564 295.482502,5.63499699 295.1045,6.237 C294.726498,6.83900301 294.201503,7.14 293.5295,7.14 C292.850497,7.14 292.322002,6.83900301 291.944,6.237 C291.565998,5.63499699 291.377,4.77050564 291.377,3.6435 C291.377,2.51649437 291.565998,1.65900294 291.944,1.071 C292.322002,0.48299706 292.850497,0.189 293.5295,0.189 Z M86.6455,2.793 C87.1145023,2.793 87.4924986,2.98024813 87.7795,3.35475 C88.0665014,3.72925187 88.21,4.26299654 88.21,4.956 C88.21,5.6560035 88.0665014,6.19499811 87.7795,6.573 C87.4924986,6.95100189 87.1145023,7.14 86.6455,7.14 C86.1694976,7.14 85.7897514,6.95100189 85.50625,6.573 C85.2227486,6.19499811 85.081,5.6560035 85.081,4.956 C85.081,4.26299654 85.2227486,3.72925187 85.50625,3.35475 C85.7897514,2.98024813 86.1694976,2.793 86.6455,2.793 Z M302.834,2.793 C303.303002,2.793 303.680999,2.98024813 303.968,3.35475 C304.255001,3.72925187 304.3985,4.26299654 304.3985,4.956 C304.3985,5.6560035 304.255001,6.19499811 303.968,6.573 C303.680999,6.95100189 303.303002,7.14 302.834,7.14 C302.357998,7.14 301.978251,6.95100189 301.69475,6.573 C301.411249,6.19499811 301.2695,5.6560035 301.2695,4.956 C301.2695,4.26299654 301.411249,3.72925187 301.69475,3.35475 C301.978251,2.98024813 302.357998,2.793 302.834,2.793 Z M228.5295,0.189 C229.201503,0.189 229.726498,0.48299706 230.1045,1.071 C230.482502,1.65900294 230.6715,2.51649437 230.6715,3.6435 C230.6715,4.77050564 230.482502,5.63499699 230.1045,6.237 C229.726498,6.83900301 229.201503,7.14 228.5295,7.14 C227.850497,7.14 227.322002,6.83900301 226.944,6.237 C226.565998,5.63499699 226.377,4.77050564 226.377,3.6435 C226.377,2.51649437 226.565998,1.65900294 226.944,1.071 C227.322002,0.48299706 227.850497,0.189 228.5295,0.189 Z M237.834,2.793 C238.303002,2.793 238.680999,2.98024813 238.968,3.35475 C239.255001,3.72925187 239.3985,4.26299654 239.3985,4.956 C239.3985,5.6560035 239.255001,6.19499811 238.968,6.573 C238.680999,6.95100189 238.303002,7.14 237.834,7.14 C237.357998,7.14 236.978251,6.95100189 236.69475,6.573 C236.411249,6.19499811 236.2695,5.6560035 236.2695,4.956 C236.2695,4.26299654 236.411249,3.72925187 236.69475,3.35475 C236.978251,2.98024813 237.357998,2.793 237.834,2.793 Z M77.341,0.189 C78.0130034,0.189 78.5379981,0.48299706 78.916,1.071 C79.2940019,1.65900294 79.483,2.51649437 79.483,3.6435 C79.483,4.77050564 79.2940019,5.63499699 78.916,6.237 C78.5379981,6.83900301 78.0130034,7.14 77.341,7.14 C76.6619966,7.14 76.1335019,6.83900301 75.7555,6.237 C75.3774981,5.63499699 75.1885,4.77050564 75.1885,3.6435 C75.1885,2.51649437 75.3774981,1.65900294 75.7555,1.071 C76.1335019,0.48299706 76.6619966,0.189 77.341,0.189 Z M146.341,0.189 C147.013003,0.189 147.537998,0.48299706 147.916,1.071 C148.294002,1.65900294 148.483,2.51649437 148.483,3.6435 C148.483,4.77050564 148.294002,5.63499699 147.916,6.237 C147.537998,6.83900301 147.013003,7.14 146.341,7.14 C145.661997,7.14 145.133502,6.83900301 144.7555,6.237 C144.377498,5.63499699 144.1885,4.77050564 144.1885,3.6435 C144.1885,2.51649437 144.377498,1.65900294 144.7555,1.071 C145.133502,0.48299706 145.661997,0.189 146.341,0.189 Z M160.834,2.793 C161.303002,2.793 161.680999,2.98024813 161.968,3.35475 C162.255001,3.72925187 162.3985,4.26299654 162.3985,4.956 C162.3985,5.6560035 162.255001,6.19499811 161.968,6.573 C161.680999,6.95100189 161.303002,7.14 160.834,7.14 C160.357998,7.14 159.978251,6.95100189 159.69475,6.573 C159.411249,6.19499811 159.2695,5.6560035 159.2695,4.956 C159.2695,4.26299654 159.411249,3.72925187 159.69475,3.35475 C159.978251,2.98024813 160.357998,2.793 160.834,2.793 Z M282.9425,0.189 C283.565503,0.189 284.055498,0.369248198 284.4125,0.72975 C284.769502,1.0902518 284.948,1.56799703 284.948,2.163 C284.948,2.47800158 284.879751,2.79474841 284.74325,3.11325 C284.606749,3.43175159 284.417751,3.7607483 284.17625,4.10025 C283.934749,4.4397517 283.647752,4.79324816 283.31525,5.16075 L282.791563,5.72906241 C282.608688,5.92418693 282.417501,6.12499897 282.218,6.3315 L282.785,6.2895 C282.981001,6.27549993 283.166499,6.2685 283.3415,6.2685 L285.284,6.2685 L285.284,7.014 L280.958,7.014 L280.958,6.4995 L281.80472,5.64522015 C281.979439,5.46714057 282.145199,5.29690081 282.302,5.1345 C282.694002,4.72849797 283.022999,4.35225173 283.289,4.00575 C283.555001,3.65924827 283.757999,3.34075145 283.898,3.05025 C284.038001,2.75974855 284.108,2.47800137 284.108,2.205 C284.108,1.81999808 284.003001,1.50500123 283.793,1.26 C283.582999,1.01499878 283.264502,0.8925 282.8375,0.8925 C282.557499,0.8925 282.298501,0.971249213 282.0605,1.12875 C281.822499,1.28625079 281.605501,1.47699888 281.4095,1.701 L280.916,1.2075 C281.196001,0.89949846 281.493498,0.652750928 281.8085,0.46725 C282.123502,0.281749073 282.501498,0.189 282.9425,0.189 Z M218.7615,0.315 L218.7615,6.3 L220.1475,6.3 L220.1475,7.014 L216.3675,7.014 L216.3675,6.3 L217.9005,6.3 L217.9005,1.365 L216.6825,1.365 L216.6825,0.8085 C216.990502,0.75249972 217.258249,0.684250402 217.48575,0.60375 C217.713251,0.523249598 217.917999,0.42700056 218.1,0.315 L218.7615,0.315 Z M141.7615,0.315 L141.7615,6.3 L143.1475,6.3 L143.1475,7.014 L139.3675,7.014 L139.3675,6.3 L140.9005,6.3 L140.9005,1.365 L139.6825,1.365 L139.6825,0.8085 C139.990502,0.75249972 140.258249,0.684250402 140.48575,0.60375 C140.713251,0.523249598 140.917999,0.42700056 141.1,0.315 L141.7615,0.315 Z M302.834,3.3285 C302.560999,3.3285 302.340501,3.46324865 302.1725,3.73275 C302.004499,4.00225135 301.9205,4.40999727 301.9205,4.956 C301.9205,5.50200273 302.004499,5.91324862 302.1725,6.18975 C302.340501,6.46625138 302.560999,6.6045 302.834,6.6045 C303.100001,6.6045 303.316999,6.46625138 303.485,6.18975 C303.653001,5.91324862 303.737,5.50200273 303.737,4.956 C303.737,4.40999727 303.653001,4.00225135 303.485,3.73275 C303.316999,3.46324865 303.100001,3.3285 302.834,3.3285 Z M86.6455,3.3285 C86.3724986,3.3285 86.1520008,3.46324865 85.984,3.73275 C85.8159992,4.00225135 85.732,4.40999727 85.732,4.956 C85.732,5.50200273 85.8159992,5.91324862 85.984,6.18975 C86.1520008,6.46625138 86.3724986,6.6045 86.6455,6.6045 C86.9115013,6.6045 87.1284992,6.46625138 87.2965,6.18975 C87.4645008,5.91324862 87.5485,5.50200273 87.5485,4.956 C87.5485,4.40999727 87.4645008,4.00225135 87.2965,3.73275 C87.1284992,3.46324865 86.9115013,3.3285 86.6455,3.3285 Z M11.457,3.3285 C11.1839986,3.3285 10.9635008,3.46324865 10.7955,3.73275 C10.6274992,4.00225135 10.5435,4.40999727 10.5435,4.956 C10.5435,5.50200273 10.6274992,5.91324862 10.7955,6.18975 C10.9635008,6.46625138 11.1839986,6.6045 11.457,6.6045 C11.7230013,6.6045 11.9399992,6.46625138 12.108,6.18975 C12.2760008,5.91324862 12.36,5.50200273 12.36,4.956 C12.36,4.40999727 12.2760008,4.00225135 12.108,3.73275 C11.9399992,3.46324865 11.7230013,3.3285 11.457,3.3285 Z M160.834,3.3285 C160.560999,3.3285 160.340501,3.46324865 160.1725,3.73275 C160.004499,4.00225135 159.9205,4.40999727 159.9205,4.956 C159.9205,5.50200273 160.004499,5.91324862 160.1725,6.18975 C160.340501,6.46625138 160.560999,6.6045 160.834,6.6045 C161.100001,6.6045 161.316999,6.46625138 161.485,6.18975 C161.653001,5.91324862 161.737,5.50200273 161.737,4.956 C161.737,4.40999727 161.653001,4.00225135 161.485,3.73275 C161.316999,3.46324865 161.100001,3.3285 160.834,3.3285 Z M237.834,3.3285 C237.560999,3.3285 237.340501,3.46324865 237.1725,3.73275 C237.004499,4.00225135 236.9205,4.40999727 236.9205,4.956 C236.9205,5.50200273 237.004499,5.91324862 237.1725,6.18975 C237.340501,6.46625138 237.560999,6.6045 237.834,6.6045 C238.100001,6.6045 238.316999,6.46625138 238.485,6.18975 C238.653001,5.91324862 238.737,5.50200273 238.737,4.956 C238.737,4.40999727 238.653001,4.00225135 238.485,3.73275 C238.316999,3.46324865 238.100001,3.3285 237.834,3.3285 Z M77.341,0.882 C77.144999,0.882 76.9665008,0.934499475 76.8055,1.0395 C76.6444992,1.14450053 76.5062506,1.3072489 76.39075,1.52775 C76.2752494,1.7482511 76.1860003,2.03349825 76.123,2.3835 C76.0599997,2.73350175 76.0285,3.15349755 76.0285,3.6435 C76.0285,4.6235049 76.1492488,5.33574778 76.39075,5.78025 C76.6322512,6.22475222 76.948998,6.447 77.341,6.447 C77.537001,6.447 77.7137492,6.39275054 77.87125,6.28425 C78.0287508,6.17574946 78.1652494,6.00775114 78.28075,5.78025 C78.3962506,5.55274886 78.4854997,5.26225177 78.5485,4.90875 C78.6115003,4.55524823 78.643,4.13350245 78.643,3.6435 C78.643,3.15349755 78.6115003,2.73350175 78.5485,2.3835 C78.4854997,2.03349825 78.3962506,1.7482511 78.28075,1.52775 C78.1652494,1.3072489 78.0287508,1.14450053 77.87125,1.0395 C77.7137492,0.934499475 77.537001,0.882 77.341,0.882 Z M293.5295,0.882 C293.333499,0.882 293.155001,0.934499475 292.994,1.0395 C292.832999,1.14450053 292.694751,1.3072489 292.57925,1.52775 C292.463749,1.7482511 292.3745,2.03349825 292.3115,2.3835 C292.2485,2.73350175 292.217,3.15349755 292.217,3.6435 C292.217,4.6235049 292.337749,5.33574778 292.57925,5.78025 C292.820751,6.22475222 293.137498,6.447 293.5295,6.447 C293.725501,6.447 293.902249,6.39275054 294.05975,6.28425 C294.217251,6.17574946 294.353749,6.00775114 294.46925,5.78025 C294.584751,5.55274886 294.674,5.26225177 294.737,4.90875 C294.8,4.55524823 294.8315,4.13350245 294.8315,3.6435 C294.8315,3.15349755 294.8,2.73350175 294.737,2.3835 C294.674,2.03349825 294.584751,1.7482511 294.46925,1.52775 C294.353749,1.3072489 294.217251,1.14450053 294.05975,1.0395 C293.902249,0.934499475 293.725501,0.882 293.5295,0.882 Z M2.1525,0.882 C1.95649902,0.882 1.77800081,0.934499475 1.617,1.0395 C1.4559992,1.14450053 1.31775058,1.3072489 1.20225,1.52775 C1.08674942,1.7482511 0.997500315,2.03349825 0.9345,2.3835 C0.871499685,2.73350175 0.84,3.15349755 0.84,3.6435 C0.84,4.6235049 0.960748793,5.33574778 1.20225,5.78025 C1.44375121,6.22475222 1.76049804,6.447 2.1525,6.447 C2.34850098,6.447 2.52524921,6.39275054 2.68275,6.28425 C2.84025079,6.17574946 2.97674942,6.00775114 3.09225,5.78025 C3.20775058,5.55274886 3.29699969,5.26225177 3.36,4.90875 C3.42300032,4.55524823 3.4545,4.13350245 3.4545,3.6435 C3.4545,3.15349755 3.42300032,2.73350175 3.36,2.3835 C3.29699969,2.03349825 3.20775058,1.7482511 3.09225,1.52775 C2.97674942,1.3072489 2.84025079,1.14450053 2.68275,1.0395 C2.52524921,0.934499475 2.34850098,0.882 2.1525,0.882 Z M228.5295,0.882 C228.333499,0.882 228.155001,0.934499475 227.994,1.0395 C227.832999,1.14450053 227.694751,1.3072489 227.57925,1.52775 C227.463749,1.7482511 227.3745,2.03349825 227.3115,2.3835 C227.2485,2.73350175 227.217,3.15349755 227.217,3.6435 C227.217,4.6235049 227.337749,5.33574778 227.57925,5.78025 C227.820751,6.22475222 228.137498,6.447 228.5295,6.447 C228.725501,6.447 228.902249,6.39275054 229.05975,6.28425 C229.217251,6.17574946 229.353749,6.00775114 229.46925,5.78025 C229.584751,5.55274886 229.674,5.26225177 229.737,4.90875 C229.8,4.55524823 229.8315,4.13350245 229.8315,3.6435 C229.8315,3.15349755 229.8,2.73350175 229.737,2.3835 C229.674,2.03349825 229.584751,1.7482511 229.46925,1.52775 C229.353749,1.3072489 229.217251,1.14450053 229.05975,1.0395 C228.902249,0.934499475 228.725501,0.882 228.5295,0.882 Z M146.341,0.882 C146.144999,0.882 145.966501,0.934499475 145.8055,1.0395 C145.644499,1.14450053 145.506251,1.3072489 145.39075,1.52775 C145.275249,1.7482511 145.186,2.03349825 145.123,2.3835 C145.06,2.73350175 145.0285,3.15349755 145.0285,3.6435 C145.0285,4.6235049 145.149249,5.33574778 145.39075,5.78025 C145.632251,6.22475222 145.948998,6.447 146.341,6.447 C146.537001,6.447 146.713749,6.39275054 146.87125,6.28425 C147.028751,6.17574946 147.165249,6.00775114 147.28075,5.78025 C147.396251,5.55274886 147.4855,5.26225177 147.5485,4.90875 C147.6115,4.55524823 147.643,4.13350245 147.643,3.6435 C147.643,3.15349755 147.6115,2.73350175 147.5485,2.3835 C147.4855,2.03349825 147.396251,1.7482511 147.28075,1.52775 C147.165249,1.3072489 147.028751,1.14450053 146.87125,1.0395 C146.713749,0.934499475 146.537001,0.882 146.341,0.882 Z M288.341,0.882 C288.144999,0.882 287.966501,0.934499475 287.8055,1.0395 C287.644499,1.14450053 287.506251,1.3072489 287.39075,1.52775 C287.275249,1.7482511 287.186,2.03349825 287.123,2.3835 C287.06,2.73350175 287.0285,3.15349755 287.0285,3.6435 C287.0285,4.6235049 287.149249,5.33574778 287.39075,5.78025 C287.632251,6.22475222 287.948998,6.447 288.341,6.447 C288.537001,6.447 288.713749,6.39275054 288.87125,6.28425 C289.028751,6.17574946 289.165249,6.00775114 289.28075,5.78025 C289.396251,5.55274886 289.4855,5.26225177 289.5485,4.90875 C289.6115,4.55524823 289.643,4.13350245 289.643,3.6435 C289.643,3.15349755 289.6115,2.73350175 289.5485,2.3835 C289.4855,2.03349825 289.396251,1.7482511 289.28075,1.52775 C289.165249,1.3072489 289.028751,1.14450053 288.87125,1.0395 C288.713749,0.934499475 288.537001,0.882 288.341,0.882 Z M151.5295,0.882 C151.333499,0.882 151.155001,0.934499475 150.994,1.0395 C150.832999,1.14450053 150.694751,1.3072489 150.57925,1.52775 C150.463749,1.7482511 150.3745,2.03349825 150.3115,2.3835 C150.2485,2.73350175 150.217,3.15349755 150.217,3.6435 C150.217,4.6235049 150.337749,5.33574778 150.57925,5.78025 C150.820751,6.22475222 151.137498,6.447 151.5295,6.447 C151.725501,6.447 151.902249,6.39275054 152.05975,6.28425 C152.217251,6.17574946 152.353749,6.00775114 152.46925,5.78025 C152.584751,5.55274886 152.674,5.26225177 152.737,4.90875 C152.8,4.55524823 152.8315,4.13350245 152.8315,3.6435 C152.8315,3.15349755 152.8,2.73350175 152.737,2.3835 C152.674,2.03349825 152.584751,1.7482511 152.46925,1.52775 C152.353749,1.3072489 152.217251,1.14450053 152.05975,1.0395 C151.902249,0.934499475 151.725501,0.882 151.5295,0.882 Z M81.847,5.68434189e-14 C82.3160023,5.68434189e-14 82.6939986,0.187248128 82.981,0.56175 C83.2680014,0.936251873 83.4115,1.46999654 83.4115,2.163 C83.4115,2.8630035 83.2680014,3.40199811 82.981,3.78 C82.6939986,4.15800189 82.3160023,4.347 81.847,4.347 C81.3709976,4.347 80.9912514,4.15800189 80.70775,3.78 C80.4242486,3.40199811 80.2825,2.8630035 80.2825,2.163 C80.2825,1.46999654 80.4242486,0.936251873 80.70775,0.56175 C80.9912514,0.187248128 81.3709976,5.68434189e-14 81.847,5.68434189e-14 Z M233.0355,5.68434189e-14 C233.504502,5.68434189e-14 233.882499,0.187248128 234.1695,0.56175 C234.456501,0.936251873 234.6,1.46999654 234.6,2.163 C234.6,2.8630035 234.456501,3.40199811 234.1695,3.78 C233.882499,4.15800189 233.504502,4.347 233.0355,4.347 C232.559498,4.347 232.179751,4.15800189 231.89625,3.78 C231.612749,3.40199811 231.471,2.8630035 231.471,2.163 C231.471,1.46999654 231.612749,0.936251873 231.89625,0.56175 C232.179751,0.187248128 232.559498,5.68434189e-14 233.0355,5.68434189e-14 Z M6.6585,5.68434189e-14 C7.12750235,5.68434189e-14 7.50549857,0.187248128 7.7925,0.56175 C8.07950144,0.936251873 8.223,1.46999654 8.223,2.163 C8.223,2.8630035 8.07950144,3.40199811 7.7925,3.78 C7.50549857,4.15800189 7.12750235,4.347 6.6585,4.347 C6.18249762,4.347 5.80275142,4.15800189 5.51925,3.78 C5.23574858,3.40199811 5.094,2.8630035 5.094,2.163 C5.094,1.46999654 5.23574858,0.936251873 5.51925,0.56175 C5.80275142,0.187248128 6.18249762,5.68434189e-14 6.6585,5.68434189e-14 Z M298.0355,5.68434189e-14 C298.504502,5.68434189e-14 298.882499,0.187248128 299.1695,0.56175 C299.456501,0.936251873 299.6,1.46999654 299.6,2.163 C299.6,2.8630035 299.456501,3.40199811 299.1695,3.78 C298.882499,4.15800189 298.504502,4.347 298.0355,4.347 C297.559498,4.347 297.179751,4.15800189 296.89625,3.78 C296.612749,3.40199811 296.471,2.8630035 296.471,2.163 C296.471,1.46999654 296.612749,0.936251873 296.89625,0.56175 C297.179751,0.187248128 297.559498,5.68434189e-14 298.0355,5.68434189e-14 Z M156.0355,5.68434189e-14 C156.504502,5.68434189e-14 156.882499,0.187248128 157.1695,0.56175 C157.456501,0.936251873 157.6,1.46999654 157.6,2.163 C157.6,2.8630035 157.456501,3.40199811 157.1695,3.78 C156.882499,4.15800189 156.504502,4.347 156.0355,4.347 C155.559498,4.347 155.179751,4.15800189 154.89625,3.78 C154.612749,3.40199811 154.471,2.8630035 154.471,2.163 C154.471,1.46999654 154.612749,0.936251873 154.89625,0.56175 C155.179751,0.187248128 155.559498,5.68434189e-14 156.0355,5.68434189e-14 Z M6.6585,0.5355 C6.38549864,0.5355 6.16500084,0.670248653 5.997,0.93975 C5.82899916,1.20925135 5.745,1.61699727 5.745,2.163 C5.745,2.70900273 5.82899916,3.12024862 5.997,3.39675 C6.16500084,3.67325138 6.38549864,3.8115 6.6585,3.8115 C6.92450133,3.8115 7.14149916,3.67325138 7.3095,3.39675 C7.47750084,3.12024862 7.5615,2.70900273 7.5615,2.163 C7.5615,1.61699727 7.47750084,1.20925135 7.3095,0.93975 C7.14149916,0.670248653 6.92450133,0.5355 6.6585,0.5355 Z M81.847,0.5355 C81.5739986,0.5355 81.3535008,0.670248653 81.1855,0.93975 C81.0174992,1.20925135 80.9335,1.61699727 80.9335,2.163 C80.9335,2.70900273 81.0174992,3.12024862 81.1855,3.39675 C81.3535008,3.67325138 81.5739986,3.8115 81.847,3.8115 C82.1130013,3.8115 82.3299992,3.67325138 82.498,3.39675 C82.6660008,3.12024862 82.75,2.70900273 82.75,2.163 C82.75,1.61699727 82.6660008,1.20925135 82.498,0.93975 C82.3299992,0.670248653 82.1130013,0.5355 81.847,0.5355 Z M233.0355,0.5355 C232.762499,0.5355 232.542001,0.670248653 232.374,0.93975 C232.205999,1.20925135 232.122,1.61699727 232.122,2.163 C232.122,2.70900273 232.205999,3.12024862 232.374,3.39675 C232.542001,3.67325138 232.762499,3.8115 233.0355,3.8115 C233.301501,3.8115 233.518499,3.67325138 233.6865,3.39675 C233.854501,3.12024862 233.9385,2.70900273 233.9385,2.163 C233.9385,1.61699727 233.854501,1.20925135 233.6865,0.93975 C233.518499,0.670248653 233.301501,0.5355 233.0355,0.5355 Z M156.0355,0.5355 C155.762499,0.5355 155.542001,0.670248653 155.374,0.93975 C155.205999,1.20925135 155.122,1.61699727 155.122,2.163 C155.122,2.70900273 155.205999,3.12024862 155.374,3.39675 C155.542001,3.67325138 155.762499,3.8115 156.0355,3.8115 C156.301501,3.8115 156.518499,3.67325138 156.6865,3.39675 C156.854501,3.12024862 156.9385,2.70900273 156.9385,2.163 C156.9385,1.61699727 156.854501,1.20925135 156.6865,0.93975 C156.518499,0.670248653 156.301501,0.5355 156.0355,0.5355 Z M298.0355,0.5355 C297.762499,0.5355 297.542001,0.670248653 297.374,0.93975 C297.205999,1.20925135 297.122,1.61699727 297.122,2.163 C297.122,2.70900273 297.205999,3.12024862 297.374,3.39675 C297.542001,3.67325138 297.762499,3.8115 298.0355,3.8115 C298.301501,3.8115 298.518499,3.67325138 298.6865,3.39675 C298.854501,3.12024862 298.9385,2.70900273 298.9385,2.163 C298.9385,1.61699727 298.854501,1.20925135 298.6865,0.93975 C298.518499,0.670248653 298.301501,0.5355 298.0355,0.5355 Z" id="Combined-Shape" fill="#848484" fill-rule="nonzero"></path>
                <path d="M145.038,43.871761 C144.23327,44.6253214 142.64229,44.9844345 141.538,45.014 C143.020398,43.9806486 144.313358,42.638662 145.038,41.014 C145.731839,42.638662 147.103347,43.9215176 148.538,45.014 C147.355932,44.9253034 145.920508,44.654887 145.038,43.871761" id="Fill-13" fill="#636363"></path>
                <path d="M185.5595,59.21 C186.259504,59.21 186.812498,59.5004971 187.2185,60.0815 C187.624502,60.6625029 187.8275,61.5164944 187.8275,62.6435 C187.8275,63.7775057 187.624502,64.643747 187.2185,65.24225 C186.812498,65.840753 186.259504,66.14 185.5595,66.14 C184.859497,66.14 184.306502,65.840753 183.9005,65.24225 C183.494498,64.643747 183.2915,63.7775057 183.2915,62.6435 C183.2915,61.5094943 183.494498,60.6537529 183.9005,60.07625 C184.306502,59.4987471 184.859497,59.21 185.5595,59.21 Z M179.9885,59.21 C180.310502,59.21 180.618499,59.2747494 180.9125,59.40425 C181.206501,59.5337506 181.463749,59.7314987 181.68425,59.9975 C181.904751,60.2635013 182.079749,60.601248 182.20925,61.01075 C182.338751,61.420252 182.4035,61.9049972 182.4035,62.465 C182.4035,63.1160033 182.331751,63.6724977 182.18825,64.1345 C182.044749,64.5965023 181.852251,64.9762485 181.61075,65.27375 C181.369249,65.5712515 181.089252,65.7899993 180.77075,65.93 C180.452248,66.0700007 180.121502,66.14 179.7785,66.14 C179.379498,66.14 179.033001,66.0665007 178.739,65.9195 C178.444999,65.7724993 178.196501,65.594001 177.9935,65.384 L178.6445,64.649 C178.770501,64.7960007 178.929749,64.9167495 179.12225,65.01125 C179.314751,65.1057505 179.512499,65.153 179.7155,65.153 C179.925501,65.153 180.123249,65.1110004 180.30875,65.027 C180.494251,64.9429996 180.656999,64.804751 180.797,64.61225 C180.937001,64.419749 181.05075,64.1660016 181.13825,63.851 C181.22575,63.5359984 181.2765,63.1475023 181.2905,62.6855 C181.094499,62.9305012 180.863501,63.1212493 180.5975,63.25775 C180.331499,63.3942507 180.076001,63.4625 179.831,63.4625 C179.543999,63.4625 179.281501,63.4205004 179.0435,63.3365 C178.805499,63.2524996 178.600751,63.1247509 178.42925,62.95325 C178.257749,62.7817491 178.12475,62.5665013 178.03025,62.3075 C177.93575,62.0484987 177.8885,61.7440018 177.8885,61.394 C177.8885,61.0579983 177.944499,60.7552513 178.0565,60.48575 C178.168501,60.2162487 178.318999,59.9870009 178.508,59.798 C178.697001,59.6089991 178.919249,59.4637505 179.17475,59.36225 C179.430251,59.2607495 179.701499,59.21 179.9885,59.21 Z M195.1205,61.793 C195.603502,61.793 195.997248,61.9802481 196.30175,62.35475 C196.606252,62.7292519 196.7585,63.2629965 196.7585,63.956 C196.7585,64.6490035 196.606252,65.1862481 196.30175,65.56775 C195.997248,65.9492519 195.603502,66.14 195.1205,66.14 C194.637498,66.14 194.243752,65.9492519 193.93925,65.56775 C193.634748,65.1862481 193.4825,64.6490035 193.4825,63.956 C193.4825,63.2629965 193.634748,62.7292519 193.93925,62.35475 C194.243752,61.9802481 194.637498,61.793 195.1205,61.793 Z M173.939,64.502 C174.163001,64.502 174.348499,64.5789992 174.4955,64.733 C174.642501,64.8870008 174.716,65.0829988 174.716,65.321 C174.716,65.5590012 174.642501,65.7549992 174.4955,65.909 C174.348499,66.0630008 174.163001,66.14 173.939,66.14 C173.714999,66.14 173.527751,66.0630008 173.37725,65.909 C173.226749,65.7549992 173.1515,65.5590012 173.1515,65.321 C173.1515,65.0829988 173.226749,64.8870008 173.37725,64.733 C173.527751,64.5789992 173.714999,64.502 173.939,64.502 Z M107.192,59.147 L107.192,63.095 C107.192,63.4660019 107.22525,63.7792487 107.29175,64.03475 C107.35825,64.2902513 107.452749,64.4949992 107.57525,64.649 C107.697751,64.8030008 107.842999,64.9132497 108.011,64.97975 C108.179001,65.0462503 108.367999,65.0795 108.578,65.0795 C108.788001,65.0795 108.980499,65.0462503 109.1555,64.97975 C109.330501,64.9132497 109.480999,64.8030008 109.607,64.649 C109.733001,64.4949992 109.831,64.2902513 109.901,64.03475 C109.971,63.7792487 110.006,63.4660019 110.006,63.095 L110.006,59.147 L111.1715,59.147 L111.1715,63.0005 C111.1715,63.5675028 111.112001,64.048748 110.993,64.44425 C110.873999,64.839752 110.700751,65.1634987 110.47325,65.4155 C110.245749,65.6675013 109.972752,65.8512494 109.65425,65.96675 C109.335748,66.0822506 108.977002,66.14 108.578,66.14 C108.178998,66.14 107.820252,66.0822506 107.50175,65.96675 C107.183248,65.8512494 106.910251,65.6675013 106.68275,65.4155 C106.455249,65.1634987 106.280251,64.839752 106.15775,64.44425 C106.035249,64.048748 105.974,63.5675028 105.974,63.0005 L105.974,59.147 L107.192,59.147 Z M114.8,59.021 C115.199002,59.021 115.583998,59.0997492 115.955,59.25725 C116.326002,59.4147508 116.644499,59.6264987 116.9105,59.8925 L116.291,60.6695 C116.066999,60.4874991 115.836001,60.3440005 115.598,60.239 C115.359999,60.1339995 115.094001,60.0815 114.8,60.0815 C114.470998,60.0815 114.208501,60.1532493 114.0125,60.29675 C113.816499,60.4402507 113.7185,60.6379987 113.7185,60.89 C113.7185,61.0230007 113.74825,61.1367495 113.80775,61.23125 C113.86725,61.3257505 113.94775,61.4097496 114.04925,61.48325 C114.150751,61.5567504 114.267999,61.6232497 114.401,61.68275 L114.603125,61.7706875 L115.745,62.2445 C115.948001,62.3285004 116.133499,62.4264994 116.3015,62.5385 C116.469501,62.6505006 116.614749,62.7799993 116.73725,62.927 C116.859751,63.0740007 116.956,63.243749 117.026,63.43625 C117.096,63.628751 117.131,63.8509987 117.131,64.103 C117.131,64.3830014 117.075001,64.6454988 116.963,64.8905 C116.850999,65.1355012 116.688251,65.3507491 116.47475,65.53625 C116.261249,65.7217509 116.002252,65.8687495 115.69775,65.97725 C115.393248,66.0857505 115.048502,66.14 114.6635,66.14 C114.201498,66.14 113.755252,66.0525009 113.32475,65.8775 C112.894248,65.7024991 112.514502,65.4540016 112.1855,65.132 L112.8995,64.3025 C113.144501,64.5335012 113.424498,64.7207493 113.7395,64.86425 C114.054502,65.0077507 114.369498,65.0795 114.6845,65.0795 C115.076502,65.0795 115.373999,64.9990008 115.577,64.838 C115.780001,64.6769992 115.8815,64.4635013 115.8815,64.1975 C115.8815,64.0574993 115.85525,63.9385005 115.80275,63.8405 C115.75025,63.7424995 115.67675,63.6567504 115.58225,63.58325 C115.48775,63.5097496 115.375751,63.4415003 115.24625,63.3785 L115.112667,63.3154999 L113.876,62.78 C113.707999,62.7099996 113.541751,62.6225005 113.37725,62.5175 C113.212749,62.4124995 113.064001,62.2865007 112.931,62.1395 C112.797999,61.9924993 112.69125,61.821001 112.61075,61.625 C112.53025,61.428999 112.49,61.2050013 112.49,60.953 C112.49,60.6799986 112.547749,60.4262512 112.66325,60.19175 C112.778751,59.9572488 112.937999,59.7525009 113.141,59.5775 C113.344001,59.4024991 113.587249,59.2660005 113.87075,59.168 C114.154251,59.0699995 114.463998,59.021 114.8,59.021 Z M98.2235,59.021 C98.6435021,59.021 99.0197483,59.1084991 99.35225,59.2835 C99.6847517,59.4585009 99.9594989,59.6614988 100.1765,59.8925 L99.494,60.6485 C99.3189991,60.4734991 99.131751,60.3352505 98.93225,60.23375 C98.732749,60.1322495 98.5000013,60.0815 98.234,60.0815 C97.9469986,60.0815 97.6862512,60.1392494 97.45175,60.25475 C97.2172488,60.3702506 97.0142509,60.5347489 96.84275,60.74825 C96.6712491,60.9617511 96.5382505,61.2224985 96.44375,61.5305 C96.3492495,61.8385015 96.302,62.1849981 96.302,62.57 C96.302,63.3540039 96.4717483,63.9682478 96.81125,64.41275 C97.1507517,64.8572522 97.6109971,65.0795 98.192,65.0795 C98.5000015,65.0795 98.7677489,65.0200006 98.99525,64.901 C99.2227511,64.7819994 99.434499,64.6140011 99.6305,64.397 L100.313,65.1425 C100.032999,65.4645016 99.7145018,65.7112491 99.3575,65.88275 C99.0004982,66.0542509 98.6050022,66.14 98.171,66.14 C97.7299978,66.14 97.3205019,66.0630008 96.9425,65.909 C96.5644981,65.7549992 96.2355014,65.5275015 95.9555,65.2265 C95.6754986,64.9254985 95.4550008,64.5545022 95.294,64.1135 C95.1329992,63.6724978 95.0525,63.1685028 95.0525,62.6015 C95.0525,62.0414972 95.1347492,61.5392522 95.29925,61.09475 C95.4637508,60.6502478 95.6894986,60.2740015 95.9765,59.966 C96.2635014,59.6579985 96.5994981,59.4235008 96.9845,59.2625 C97.3695019,59.1014992 97.7824978,59.021 98.2235,59.021 Z M194.8895,59.021 L191.1515,66.14 L190.406,66.14 L194.1545,59.021 L194.8895,59.021 Z M102.6605,59.147 L102.6605,64.985 L105.5165,64.985 L105.5165,66.014 L101.4425,66.014 L101.4425,59.147 L102.6605,59.147 Z M158.9165,59.147 L158.9165,66.014 L157.6985,66.014 L157.6985,59.147 L158.9165,59.147 Z M139.0535,59.147 L140.2925,62.528 L140.744,63.83 L140.786,63.83 L141.227,62.528 L142.445,59.147 L143.789,59.147 L143.789,66.014 L142.6445,66.014 L142.6445,62.8745 L142.6515,62.5338336 L142.66025,62.3495 C142.67075,62.1604991 142.683,61.969751 142.697,61.77725 L142.720625,61.491125 L142.802,60.6905 L142.76,60.6905 L142.2035,62.255 L141.017,65.3735 L140.45,65.3735 L139.2635,62.255 L138.7175,60.6905 L138.6755,60.6905 L138.77525,61.77725 C138.79275,61.969751 138.80675,62.1604991 138.81725,62.3495 C138.82775,62.5385009 138.833,62.7134992 138.833,62.8745 L138.833,66.014 L137.7095,66.014 L137.7095,59.147 L139.0535,59.147 Z M163.4165,59.147 L165.653,66.014 L164.372,66.014 L163.8365,64.1555 L161.5265,64.1555 L160.991,66.014 L159.752,66.014 L161.9885,59.147 L163.4165,59.147 Z M167.738,59.147 L169.88,63.011 L170.5835,64.4705 L170.6255,64.4705 L170.5625,63.7215005 C170.550833,63.590834 170.538583,63.4572507 170.52575,63.32075 C170.48725,62.911248 170.468,62.5140019 170.468,62.129 L170.468,59.147 L171.6335,59.147 L171.6335,66.014 L170.384,66.014 L168.242,62.15 L167.5385,60.6905 L167.4965,60.6905 L167.5595,61.4418329 C167.571167,61.5709438 167.583417,61.7019993 167.59625,61.835 C167.63475,62.234002 167.654,62.6259981 167.654,63.011 L167.654,66.014 L166.4885,66.014 L166.4885,59.147 L167.738,59.147 Z M149.654,59.147 L149.654,60.176 L146.735,60.176 L146.735,61.9295 L149.2025,61.9295 L149.2025,62.9585 L146.735,62.9585 L146.735,64.985 L149.759,64.985 L149.759,66.014 L145.517,66.014 L145.517,59.147 L149.654,59.147 Z M122.534,59.147 L122.534,60.176 L120.5495,60.176 L120.5495,66.014 L119.3315,66.014 L119.3315,60.176 L117.347,60.176 L117.347,59.147 L122.534,59.147 Z M127.8005,59.147 L127.8005,60.176 L124.8815,60.176 L124.8815,61.9295 L127.349,61.9295 L127.349,62.9585 L124.8815,62.9585 L124.8815,64.985 L127.9055,64.985 L127.9055,66.014 L123.6635,66.014 L123.6635,59.147 L127.8005,59.147 Z M131.618,59.147 C131.975002,59.147 132.307498,59.1819996 132.6155,59.252 C132.923502,59.3220003 133.189499,59.4357492 133.4135,59.59325 C133.637501,59.7507508 133.814249,59.9589987 133.94375,60.218 C134.073251,60.4770013 134.138,60.7989981 134.138,61.184 C134.138,61.7090026 134.013751,62.1324984 133.76525,62.4545 C133.516749,62.7765016 133.186002,63.0074993 132.773,63.1475 L134.411,66.014 L133.046,66.014 L131.5655,63.326 L130.5155,63.326 L130.5155,66.014 L129.2975,66.014 L129.2975,59.147 L131.618,59.147 Z M152.9885,59.147 C154.038505,59.147 154.857497,59.4304972 155.4455,59.9975 C156.033503,60.5645028 156.3275,61.4149943 156.3275,62.549 C156.3275,63.1160028 156.252251,63.6164978 156.10175,64.0505 C155.951249,64.4845022 155.734251,64.8467485 155.45075,65.13725 C155.167249,65.4277515 154.824252,65.6464993 154.42175,65.7935 C154.019248,65.9405007 153.562503,66.014 153.0515,66.014 L151.151,66.014 L151.151,59.147 L152.9885,59.147 Z M195.1205,62.4965 C194.896499,62.4965 194.712751,62.6102489 194.56925,62.83775 C194.425749,63.0652511 194.354,63.4379974 194.354,63.956 C194.354,64.4740026 194.425749,64.8502488 194.56925,65.08475 C194.712751,65.3192512 194.896499,65.4365 195.1205,65.4365 C195.344501,65.4365 195.528249,65.3192512 195.67175,65.08475 C195.815251,64.8502488 195.887,64.4740026 195.887,63.956 C195.887,63.4379974 195.815251,63.0652511 195.67175,62.83775 C195.528249,62.6102489 195.344501,62.4965 195.1205,62.4965 Z M185.5595,60.155 C185.398499,60.155 185.249751,60.1952496 185.11325,60.27575 C184.976749,60.3562504 184.8595,60.494499 184.7615,60.6905 C184.6635,60.886501 184.5865,61.1437484 184.5305,61.46225 C184.4745,61.7807516 184.4465,62.1744977 184.4465,62.6435 C184.4465,63.1195024 184.4745,63.5184984 184.5305,63.8405 C184.5865,64.1625016 184.6635,64.424999 184.7615,64.628 C184.8595,64.831001 184.976749,64.9762496 185.11325,65.06375 C185.249751,65.1512504 185.398499,65.195 185.5595,65.195 C185.720501,65.195 185.869249,65.1512504 186.00575,65.06375 C186.142251,64.9762496 186.2595,64.831001 186.3575,64.628 C186.4555,64.424999 186.5325,64.1625016 186.5885,63.8405 C186.6445,63.5184984 186.6725,63.1195024 186.6725,62.6435 C186.6725,62.1744977 186.6445,61.7807516 186.5885,61.46225 C186.5325,61.1437484 186.4555,60.886501 186.3575,60.6905 C186.2595,60.494499 186.142251,60.3562504 186.00575,60.27575 C185.869249,60.1952496 185.720501,60.155 185.5595,60.155 Z M152.9045,60.134 L152.369,60.134 L152.369,65.027 L152.9045,65.027 C153.604504,65.027 154.141748,64.825752 154.51625,64.42325 C154.890752,64.020748 155.078,63.3960042 155.078,62.549 C155.078,61.7089958 154.889002,61.0965019 154.511,60.7115 C154.132998,60.3264981 153.597503,60.134 152.9045,60.134 Z M190.196,59.021 C190.679002,59.021 191.072748,59.2082481 191.37725,59.58275 C191.681752,59.9572519 191.834,60.4909965 191.834,61.184 C191.834,61.8770035 191.681752,62.4142481 191.37725,62.79575 C191.072748,63.1772519 190.679002,63.368 190.196,63.368 C189.712998,63.368 189.319252,63.1772519 189.01475,62.79575 C188.710248,62.4142481 188.558,61.8770035 188.558,61.184 C188.558,60.4909965 188.710248,59.9572519 189.01475,59.58275 C189.319252,59.2082481 189.712998,59.021 190.196,59.021 Z M162.7025,60.092 L162.6605,60.092 L162.3665,61.24175 C162.2685,61.6232519 162.163501,61.9959982 162.0515,62.36 L161.81,63.2 L163.5635,63.2 L163.322,62.36 C163.209999,61.9959982 163.103251,61.6215019 163.00175,61.2365 L162.7025,60.092 Z M190.196,59.7245 C189.971999,59.7245 189.788251,59.8382489 189.64475,60.06575 C189.501249,60.2932511 189.4295,60.6659974 189.4295,61.184 C189.4295,61.7020026 189.501249,62.0782488 189.64475,62.31275 C189.788251,62.5472512 189.971999,62.6645 190.196,62.6645 C190.420001,62.6645 190.603749,62.5472512 190.74725,62.31275 C190.890751,62.0782488 190.9625,61.7020026 190.9625,61.184 C190.9625,60.6659974 190.890751,60.2932511 190.74725,60.06575 C190.603749,59.8382489 190.420001,59.7245 190.196,59.7245 Z M179.999,60.134 C179.725999,60.134 179.491501,60.2424989 179.2955,60.4595 C179.099499,60.6765011 179.0015,60.987998 179.0015,61.394 C179.0015,61.793002 179.094249,62.092249 179.27975,62.29175 C179.465251,62.491251 179.725998,62.591 180.062,62.591 C180.251001,62.591 180.452249,62.5315006 180.66575,62.4125 C180.879251,62.2934994 181.076999,62.0940014 181.259,61.814 C181.196,61.2259971 181.050751,60.7990013 180.82325,60.533 C180.595749,60.2669987 180.321002,60.134 179.999,60.134 Z M173.939,60.911 C174.163001,60.911 174.348499,60.9879992 174.4955,61.142 C174.642501,61.2960008 174.716,61.4919988 174.716,61.73 C174.716,61.9680012 174.642501,62.1639992 174.4955,62.318 C174.348499,62.4720008 174.163001,62.549 173.939,62.549 C173.714999,62.549 173.527751,62.4720008 173.37725,62.318 C173.226749,62.1639992 173.1515,61.9680012 173.1515,61.73 C173.1515,61.4919988 173.226749,61.2960008 173.37725,61.142 C173.527751,60.9879992 173.714999,60.911 173.939,60.911 Z M131.492,60.1235 L130.5155,60.1235 L130.5155,62.36 L131.492,62.36 C131.961002,62.36 132.319749,62.262001 132.56825,62.066 C132.816751,61.869999 132.941,61.576002 132.941,61.184 C132.941,60.784998 132.816751,60.5085008 132.56825,60.3545 C132.319749,60.2004992 131.961002,60.1235 131.492,60.1235 Z" id="Combined-Shape" fill="#E8751A" fill-rule="nonzero"></path>
                <path d="M2.413,41.014 L2.413,15.014 C2.413,14.8068932 2.24510678,14.639 2.038,14.639 C1.83089322,14.639 1.663,14.8068932 1.663,15.014 L1.663,41.014 C1.663,41.2211068 1.83089322,41.389 2.038,41.389 C2.24510678,41.389 2.413,41.2211068 2.413,41.014 Z" id="Stroke-2" fill="#D1D1D1" fill-rule="nonzero"></path>
                <path d="M76.413,41.014 L76.413,15.014 C76.413,14.8068932 76.2451068,14.639 76.038,14.639 C75.8308932,14.639 75.663,14.8068932 75.663,15.014 L75.663,41.014 C75.663,41.2211068 75.8308932,41.389 76.038,41.389 C76.2451068,41.389 76.413,41.2211068 76.413,41.014 Z" id="Stroke-3" fill="#D1D1D1" fill-rule="nonzero"></path>
                <path d="M150.413,41.014 L150.413,15.014 C150.413,14.8068932 150.245107,14.639 150.038,14.639 C149.830893,14.639 149.663,14.8068932 149.663,15.014 L149.663,41.014 C149.663,41.2211068 149.830893,41.389 150.038,41.389 C150.245107,41.389 150.413,41.2211068 150.413,41.014 Z" id="Stroke-4" fill="#D1D1D1" fill-rule="nonzero"></path>
                <path d="M224.413,41.014 L224.413,15.014 C224.413,14.8068932 224.245107,14.639 224.038,14.639 C223.830893,14.639 223.663,14.8068932 223.663,15.014 L223.663,41.014 C223.663,41.2211068 223.830893,41.389 224.038,41.389 C224.245107,41.389 224.413,41.2211068 224.413,41.014 Z" id="Stroke-5" fill="#D1D1D1" fill-rule="nonzero"></path>
                <path d="M299.413,41.014 L299.413,15.014 C299.413,14.8068932 299.245107,14.639 299.038,14.639 C298.830893,14.639 298.663,14.8068932 298.663,15.014 L298.663,41.014 C298.663,41.2211068 298.830893,41.389 299.038,41.389 C299.245107,41.389 299.413,41.2211068 299.413,41.014 Z" id="Stroke-6" fill="#D1D1D1" fill-rule="nonzero"></path>
                <path d="M145.788,57.014 L145.788,44.014 C145.788,43.5997864 145.452214,43.264 145.038,43.264 C144.623786,43.264 144.288,43.5997864 144.288,44.014 L144.288,57.014 C144.288,57.4282136 144.623786,57.764 145.038,57.764 C145.452214,57.764 145.788,57.4282136 145.788,57.014 Z" id="Stroke-12" fill="#636363" fill-rule="nonzero"></path>
                <path d="M242.589724,37.014 L77.4862759,37.014 C75.8647241,37.014 74.538,35.3509565 74.538,33.3183478 L74.538,23.7096522 C74.538,21.6770435 75.8647241,20.014 77.4862759,20.014 L242.589724,20.014 C244.211276,20.014 245.538,21.6770435 245.538,23.7096522 L245.538,33.3183478 C245.538,35.3509565 244.211276,37.014 242.589724,37.014" id="Fill-7" fill="#FFC69F"></path>
                <path d="M242.281719,39.014 L86.7942814,39.014 C85.0033266,39.014 83.538,37.6806667 83.538,36.051037 L83.538,21.976963 C83.538,20.3480741 85.0033266,19.014 86.7942814,19.014 L242.281719,19.014 C244.072673,19.014 245.538,20.3480741 245.538,21.976963 L245.538,36.051037 C245.538,37.6806667 244.072673,39.014 242.281719,39.014" id="Fill-9" fill="#E8751A"></path>
                <path d="M148.2725,23.05 L143.5205,32.176 L142.373,32.176 L147.125,23.05 L148.2725,23.05 Z M148.5695,26.587 C148.884502,26.587 149.176999,26.6499994 149.447,26.776 C149.717001,26.9020006 149.948749,27.0842488 150.14225,27.32275 C150.335751,27.5612512 150.488749,27.8514983 150.60125,28.1935 C150.713751,28.5355017 150.77,28.9269978 150.77,29.368 C150.77,29.8090022 150.713751,30.2027483 150.60125,30.54925 C150.488749,30.8957517 150.335751,31.1904988 150.14225,31.4335 C149.948749,31.6765012 149.717001,31.8609994 149.447,31.987 C149.176999,32.1130006 148.884502,32.176 148.5695,32.176 C148.254498,32.176 147.962001,32.1130006 147.692,31.987 C147.421999,31.8609994 147.190251,31.6765012 146.99675,31.4335 C146.803249,31.1904988 146.652501,30.8957517 146.5445,30.54925 C146.436499,30.2027483 146.3825,29.8090022 146.3825,29.368 C146.3825,28.9269978 146.436499,28.5355017 146.5445,28.1935 C146.652501,27.8514983 146.803249,27.5612512 146.99675,27.32275 C147.190251,27.0842488 147.421999,26.9020006 147.692,26.776 C147.962001,26.6499994 148.254498,26.587 148.5695,26.587 Z M148.5695,27.694 C148.344499,27.694 148.153251,27.8154988 147.99575,28.0585 C147.838249,28.3015012 147.7595,28.7379969 147.7595,29.368 C147.7595,29.9980031 147.838249,30.4389987 147.99575,30.691 C148.153251,30.9430013 148.344499,31.069 148.5695,31.069 C148.794501,31.069 148.985749,30.9430013 149.14325,30.691 C149.300751,30.4389987 149.3795,29.9980031 149.3795,29.368 C149.3795,28.7379969 149.300751,28.3015012 149.14325,28.0585 C148.985749,27.8154988 148.794501,27.694 148.5695,27.694 Z M142.076,23.05 C142.391002,23.05 142.683499,23.1129994 142.9535,23.239 C143.223501,23.3650006 143.455249,23.5472488 143.64875,23.78575 C143.842251,24.0242512 143.995249,24.3144983 144.10775,24.6565 C144.220251,24.9985017 144.2765,25.3899978 144.2765,25.831 C144.2765,26.2720022 144.220251,26.6657483 144.10775,27.01225 C143.995249,27.3587517 143.842251,27.6534988 143.64875,27.8965 C143.455249,28.1395012 143.223501,28.3239994 142.9535,28.45 C142.683499,28.5760006 142.391002,28.639 142.076,28.639 C141.760998,28.639 141.468501,28.5760006 141.1985,28.45 C140.928499,28.3239994 140.696751,28.1395012 140.50325,27.8965 C140.309749,27.6534988 140.159001,27.3587517 140.051,27.01225 C139.942999,26.6657483 139.889,26.2720022 139.889,25.831 C139.889,25.3899978 139.942999,24.9985017 140.051,24.6565 C140.159001,24.3144983 140.309749,24.0242512 140.50325,23.78575 C140.696751,23.5472488 140.928499,23.3650006 141.1985,23.239 C141.468501,23.1129994 141.760998,23.05 142.076,23.05 Z M142.076,24.157 C141.850999,24.157 141.659751,24.2784988 141.50225,24.5215 C141.344749,24.7645012 141.266,25.2009968 141.266,25.831 C141.266,26.4610031 141.344749,26.9019987 141.50225,27.154 C141.659751,27.4060013 141.850999,27.532 142.076,27.532 C142.301001,27.532 142.492249,27.4060013 142.64975,27.154 C142.807251,26.9019987 142.886,26.4610031 142.886,25.831 C142.886,25.2009968 142.807251,24.7645012 142.64975,24.5215 C142.492249,24.2784988 142.301001,24.157 142.076,24.157 Z" id="Combined-Shape" fill="#FFFFFF" fill-rule="nonzero"></path>
            </g>
        </g>
    </g>
</svg>