<?xml version="1.0" encoding="UTF-8"?>
<svg width="367px" height="200px" viewBox="0 0 367 200" version="1.1" xmlns="http://www.w3.org/2000/svg" xmlns:xlink="http://www.w3.org/1999/xlink">
    <!-- Generator: Sketch 53.2 (72643) - https://sketchapp.com -->
    <title>balanceBudget-outline</title>
    <desc>Created with Sketch.</desc>
    <defs>
        <linearGradient x1="50%" y1="0%" x2="50%" y2="100%" id="linearGradient-1">
            <stop stop-color="#CACACA" offset="0%"></stop>
            <stop stop-color="#D8D8D8" offset="100%"></stop>
        </linearGradient>
        <linearGradient x1="50%" y1="0%" x2="50%" y2="100%" id="linearGradient-2">
            <stop stop-color="#EEEEEE" offset="0%"></stop>
            <stop stop-color="#D8D8D8" offset="100%"></stop>
        </linearGradient>
        <radialGradient cx="50%" cy="100%" fx="50%" fy="100%" r="100%" id="radialGradient-3">
            <stop stop-color="#CFCFCF" offset="0%"></stop>
            <stop stop-color="#969696" offset="100%"></stop>
        </radialGradient>
        <linearGradient x1="50%" y1="133.945843%" x2="50%" y2="0%" id="linearGradient-4">
            <stop stop-color="#CFCFCF" offset="0%"></stop>
            <stop stop-color="#969696" offset="100%"></stop>
        </linearGradient>
    </defs>
    <g id="balanceBudget-outline" stroke="none" stroke-width="1" fill="none" fill-rule="evenodd">
        <g id="Group" transform="translate(46.000000, 22.000000)" fill-rule="nonzero">
            <path d="M36.2903226,29.369572 L36.2903226,26.2056813" id="Line-22" stroke="#979797" stroke-width="0.806451613" stroke-linecap="square"></path>
            <path d="M238.709677,29.369572 L238.709677,26.2056813" id="Line-22" stroke="#979797" stroke-width="0.806451613" stroke-linecap="square"></path>
            <path d="M0.806451613,99.1935484 L36.2903226,29.369572" id="Line-20" stroke="#CCCCCC" stroke-width="0.806451613" stroke-linecap="round"></path>
            <path d="M37.0967742,99.1935484 L72.5806452,29.369572" id="Line-20" stroke="#CCCCCC" stroke-width="0.806451613" stroke-linecap="round" transform="translate(54.435484, 64.112903) scale(-1, 1) translate(-54.435484, -64.112903) "></path>
            <polygon id="Rectangle" fill="#0A2F5A" points="0 99.1935484 72.5806452 99.1935484 67.6319648 112.903226 4.94868035 112.903226"></polygon>
            <rect id="Rectangle" stroke="#CCCCCC" stroke-width="0.806451613" fill="url(#linearGradient-1)" transform="translate(137.096774, 23.790323) scale(1, -1) translate(-137.096774, -23.790323) " x="31.0483871" y="22.1774194" width="212.096774" height="3.22580645"></rect>
            <path d="M135.059438,0.403225806 L127.038514,148.790323 L147.155035,148.790323 L139.134111,0.403225806 L135.059438,0.403225806 Z" id="Rectangle" stroke="#CCCCCC" stroke-width="0.806451613" fill="url(#linearGradient-2)"></path>
            <polygon id="Rectangle" fill="#CECECE" points="134.649363 0.806451613 136.290323 0.806451613 129.839337 149.193548 126.612903 149.193548"></polygon>
            <polygon id="Rectangle" fill="#CECECE" transform="translate(142.741935, 75.000000) scale(-1, 1) translate(-142.741935, -75.000000) " points="146.011535 0.806451613 147.580645 0.806451613 141.135892 149.193548 137.903226 149.193548"></polygon>
            <circle id="Oval" stroke="#979797" stroke-width="0.806451613" fill="url(#radialGradient-3)" cx="137.096774" cy="24.1935484" r="9.67741935"></circle>
            <path d="M103.225806,147.580645 L170.967742,147.580645 C174.530869,147.580645 177.419355,150.469131 177.419355,154.032258 L177.419355,154.032258 L96.7741935,154.032258 L96.7741935,154.032258 C96.7741935,150.469131 99.662679,147.580645 103.225806,147.580645 Z" id="Rectangle" stroke="#979797" stroke-width="0.806451613" fill="url(#linearGradient-4)"></path>
            <path d="M10.1790323,126.903226 L10.1790323,117.409677 L13.3870968,117.409677 C15.3612903,117.409677 16.8709677,118.106452 16.8709677,120.225806 C16.8709677,121.677419 16.116129,122.548387 14.983871,122.940323 L17.2483871,126.903226 L15.3612903,126.903226 L13.3145161,123.187097 L11.8629032,123.187097 L11.8629032,126.903226 L10.1790323,126.903226 Z M11.8629032,121.851613 L13.2129032,121.851613 C14.5048387,121.851613 15.216129,121.3 15.216129,120.225806 C15.216129,119.137097 14.5048387,118.759677 13.2129032,118.759677 L11.8629032,118.759677 L11.8629032,121.851613 Z M21.5306452,127.077419 C19.5564516,127.077419 18.0177419,125.698387 18.0177419,123.346774 C18.0177419,121.024194 19.6290323,119.601613 21.2983871,119.601613 C23.2290323,119.601613 24.2451613,120.995161 24.2451613,122.983871 C24.2451613,123.303226 24.216129,123.622581 24.1725806,123.796774 L19.6435484,123.796774 C19.7887097,125.059677 20.6016129,125.785484 21.7483871,125.785484 C22.3580645,125.785484 22.8806452,125.596774 23.4032258,125.262903 L23.9693548,126.308065 C23.2870968,126.758065 22.4306452,127.077419 21.5306452,127.077419 Z M19.6290323,122.664516 L22.7935484,122.664516 C22.7935484,121.56129 22.3145161,120.893548 21.3419355,120.893548 C20.5,120.893548 19.7741935,121.517742 19.6290323,122.664516 Z M27.4387097,126.903226 L24.9564516,119.775806 L26.6548387,119.775806 L27.7870968,123.477419 C27.9758065,124.174194 28.1935484,124.9 28.3822581,125.625806 L28.4403226,125.625806 C28.6435484,124.9 28.8467742,124.174194 29.05,123.477419 L30.1822581,119.775806 L31.7935484,119.775806 L29.3693548,126.903226 L27.4387097,126.903226 Z M35.9887097,127.077419 C34.0145161,127.077419 32.4758065,125.698387 32.4758065,123.346774 C32.4758065,121.024194 34.0870968,119.601613 35.7564516,119.601613 C37.6870968,119.601613 38.7032258,120.995161 38.7032258,122.983871 C38.7032258,123.303226 38.6741935,123.622581 38.6306452,123.796774 L34.1016129,123.796774 C34.2467742,125.059677 35.0596774,125.785484 36.2064516,125.785484 C36.816129,125.785484 37.3387097,125.596774 37.8612903,125.262903 L38.4274194,126.308065 C37.7451613,126.758065 36.8887097,127.077419 35.9887097,127.077419 Z M34.0870968,122.664516 L37.2516129,122.664516 C37.2516129,121.56129 36.7725806,120.893548 35.8,120.893548 C34.9580645,120.893548 34.2322581,121.517742 34.0870968,122.664516 Z M40.3,126.903226 L40.3,119.775806 L41.6790323,119.775806 L41.7951613,120.733871 L41.8532258,120.733871 C42.4919355,120.109677 43.2177419,119.601613 44.1903226,119.601613 C45.7145161,119.601613 46.3822581,120.632258 46.3822581,122.432258 L46.3822581,126.903226 L44.7129032,126.903226 L44.7129032,122.65 C44.7129032,121.474194 44.3790323,121.03871 43.5951613,121.03871 C42.9709677,121.03871 42.5645161,121.343548 41.9693548,121.924194 L41.9693548,126.903226 L40.3,126.903226 Z M50.5483871,127.077419 C49.0241935,127.077419 48.3564516,126.046774 48.3564516,124.246774 L48.3564516,119.775806 L50.0258065,119.775806 L50.0258065,124.029032 C50.0258065,125.204839 50.3596774,125.640323 51.1290323,125.640323 C51.7532258,125.640323 52.1741935,125.35 52.7112903,124.653226 L52.7112903,119.775806 L54.3806452,119.775806 L54.3806452,126.903226 L53.016129,126.903226 L52.8854839,125.858065 L52.8419355,125.858065 C52.2177419,126.598387 51.5209677,127.077419 50.5483871,127.077419 Z M59.5483871,127.077419 C57.5741935,127.077419 56.0354839,125.698387 56.0354839,123.346774 C56.0354839,121.024194 57.6467742,119.601613 59.316129,119.601613 C61.2467742,119.601613 62.2629032,120.995161 62.2629032,122.983871 C62.2629032,123.303226 62.233871,123.622581 62.1903226,123.796774 L57.6612903,123.796774 C57.8064516,125.059677 58.6193548,125.785484 59.766129,125.785484 C60.3758065,125.785484 60.8983871,125.596774 61.4209677,125.262903 L61.9870968,126.308065 C61.3048387,126.758065 60.4483871,127.077419 59.5483871,127.077419 Z M57.6467742,122.664516 L60.8112903,122.664516 C60.8112903,121.56129 60.3322581,120.893548 59.3596774,120.893548 C58.5177419,120.893548 57.7919355,121.517742 57.6467742,122.664516 Z" id="Revenue" fill="#0A2F5A"></path>
            <path d="M213.059677,127.883871 C211.782258,127.883871 210.533871,127.375806 209.633871,126.490323 L210.620968,125.343548 C211.303226,125.982258 212.217742,126.417742 213.08871,126.417742 C214.162903,126.417742 214.743548,125.93871 214.743548,125.198387 C214.743548,124.414516 214.133871,124.167742 213.277419,123.804839 L211.970968,123.23871 C211.041935,122.846774 210.054839,122.106452 210.054839,120.712903 C210.054839,119.203226 211.390323,118.041935 213.248387,118.041935 C214.351613,118.041935 215.425806,118.506452 216.166129,119.246774 L215.309677,120.320968 C214.7,119.812903 214.06129,119.508065 213.248387,119.508065 C212.348387,119.508065 211.753226,119.929032 211.753226,120.625806 C211.753226,121.366129 212.479032,121.641935 213.262903,121.96129 L214.554839,122.498387 C215.672581,122.977419 216.470968,123.68871 216.470968,125.067742 C216.470968,126.606452 215.193548,127.883871 213.059677,127.883871 Z M218.053226,130.525806 L218.053226,120.582258 L219.432258,120.582258 L219.548387,121.337097 L219.606452,121.337097 C220.201613,120.829032 220.970968,120.408065 221.754839,120.408065 C223.525806,120.408065 224.556452,121.830645 224.556452,124.037097 C224.556452,126.475806 223.090323,127.883871 221.508065,127.883871 C220.883871,127.883871 220.259677,127.593548 219.679032,127.1 L219.722581,128.290323 L219.722581,130.525806 L218.053226,130.525806 Z M221.159677,126.504839 C222.103226,126.504839 222.829032,125.662903 222.829032,124.051613 C222.829032,122.629032 222.364516,121.787097 221.290323,121.787097 C220.767742,121.787097 220.274194,122.048387 219.722581,122.585484 L219.722581,125.909677 C220.245161,126.345161 220.73871,126.504839 221.159677,126.504839 Z M229.28871,127.883871 C227.314516,127.883871 225.775806,126.504839 225.775806,124.153226 C225.775806,121.830645 227.387097,120.408065 229.056452,120.408065 C230.987097,120.408065 232.003226,121.801613 232.003226,123.790323 C232.003226,124.109677 231.974194,124.429032 231.930645,124.603226 L227.401613,124.603226 C227.546774,125.866129 228.359677,126.591935 229.506452,126.591935 C230.116129,126.591935 230.63871,126.403226 231.16129,126.069355 L231.727419,127.114516 C231.045161,127.564516 230.18871,127.883871 229.28871,127.883871 Z M227.387097,123.470968 L230.551613,123.470968 C230.551613,122.367742 230.072581,121.7 229.1,121.7 C228.258065,121.7 227.532258,122.324194 227.387097,123.470968 Z M233.6,127.709677 L233.6,120.582258 L234.979032,120.582258 L235.095161,121.540323 L235.153226,121.540323 C235.791935,120.916129 236.517742,120.408065 237.490323,120.408065 C239.014516,120.408065 239.682258,121.43871 239.682258,123.23871 L239.682258,127.709677 L238.012903,127.709677 L238.012903,123.456452 C238.012903,122.280645 237.679032,121.845161 236.895161,121.845161 C236.270968,121.845161 235.864516,122.15 235.269355,122.730645 L235.269355,127.709677 L233.6,127.709677 Z M244.225806,127.883871 C242.440323,127.883871 241.293548,126.504839 241.293548,124.153226 C241.293548,121.830645 242.759677,120.408065 244.312903,120.408065 C245.125806,120.408065 245.633871,120.712903 246.185484,121.191935 L246.127419,120.045161 L246.127419,117.46129 L247.796774,117.46129 L247.796774,127.709677 L246.417742,127.709677 L246.301613,126.940323 L246.243548,126.940323 C245.720968,127.462903 244.995161,127.883871 244.225806,127.883871 Z M244.632258,126.504839 C245.183871,126.504839 245.648387,126.258065 246.127419,125.706452 L246.127419,122.382258 C245.633871,121.946774 245.154839,121.787097 244.675806,121.787097 C243.76129,121.787097 243.020968,122.643548 243.020968,124.13871 C243.020968,125.677419 243.601613,126.504839 244.632258,126.504839 Z M249.916129,127.709677 L249.916129,120.582258 L251.585484,120.582258 L251.585484,127.709677 L249.916129,127.709677 Z M250.758065,119.333871 C250.162903,119.333871 249.727419,118.941935 249.727419,118.390323 C249.727419,117.824194 250.162903,117.432258 250.758065,117.432258 C251.353226,117.432258 251.78871,117.824194 251.78871,118.390323 C251.78871,118.941935 251.353226,119.333871 250.758065,119.333871 Z M253.719355,127.709677 L253.719355,120.582258 L255.098387,120.582258 L255.214516,121.540323 L255.272581,121.540323 C255.91129,120.916129 256.637097,120.408065 257.609677,120.408065 C259.133871,120.408065 259.801613,121.43871 259.801613,123.23871 L259.801613,127.709677 L258.132258,127.709677 L258.132258,123.456452 C258.132258,122.280645 257.798387,121.845161 257.014516,121.845161 C256.390323,121.845161 255.983871,122.15 255.38871,122.730645 L255.38871,127.709677 L253.719355,127.709677 Z M264.330645,130.859677 C262.632258,130.859677 261.369355,130.25 261.369355,129.001613 C261.369355,128.406452 261.732258,127.883871 262.385484,127.477419 L262.385484,127.419355 C262.022581,127.187097 261.746774,126.809677 261.746774,126.229032 C261.746774,125.677419 262.124194,125.198387 262.530645,124.908065 L262.530645,124.85 C262.051613,124.487097 261.601613,123.804839 261.601613,122.962903 C261.601613,121.322581 262.922581,120.408065 264.417742,120.408065 C264.809677,120.408065 265.172581,120.480645 265.462903,120.582258 L268.017742,120.582258 L268.017742,121.816129 L266.71129,121.816129 C266.943548,122.091935 267.117742,122.527419 267.117742,123.020968 C267.117742,124.603226 265.927419,125.445161 264.417742,125.445161 C264.112903,125.445161 263.764516,125.387097 263.445161,125.256452 C263.227419,125.445161 263.096774,125.619355 263.096774,125.93871 C263.096774,126.345161 263.387097,126.591935 264.258065,126.591935 L265.520968,126.591935 C267.233871,126.591935 268.133871,127.114516 268.133871,128.348387 C268.133871,129.756452 266.653226,130.859677 264.330645,130.859677 Z M264.417742,124.4 C265.1,124.4 265.651613,123.877419 265.651613,122.962903 C265.651613,122.077419 265.114516,121.554839 264.417742,121.554839 C263.720968,121.554839 263.169355,122.062903 263.169355,122.962903 C263.169355,123.877419 263.720968,124.4 264.417742,124.4 Z M264.591935,129.770968 C265.73871,129.770968 266.522581,129.233871 266.522581,128.624194 C266.522581,128.072581 266.072581,127.912903 265.259677,127.912903 L264.287097,127.912903 C263.895161,127.912903 263.590323,127.883871 263.314516,127.81129 C262.937097,128.101613 262.762903,128.420968 262.762903,128.754839 C262.762903,129.393548 263.459677,129.770968 264.591935,129.770968 Z" id="Spending" fill="#00766C"></path>
            <path d="M238.709677,29.8387097 L274.193548,100 L238.709677,29.8387097 Z" id="Line-20" stroke="#CCCCCC" stroke-width="0.806451613" stroke-linecap="round" stroke-linejoin="round"></path>
            <path d="M203.225806,29.8387097 L238.709677,100 L203.225806,29.8387097 Z" id="Line-20" stroke="#CCCCCC" stroke-width="0.806451613" stroke-linecap="round" stroke-linejoin="round" transform="translate(220.967742, 64.919355) scale(-1, 1) translate(-220.967742, -64.919355) "></path>
            <path d="M34.3145161,96.8548387 L34.3145161,92.8225806 C33.1317145,92.6881714 31.8884474,92.3588736 30.5846774,91.8346774 C29.2809075,91.3104812 28.1586069,90.6182839 27.2177419,89.7580645 L29.7983871,85.766129 C30.8198976,86.5457028 31.7943502,87.1303744 32.7217742,87.5201613 C33.6491982,87.9099482 34.5967694,88.1048387 35.5645161,88.1048387 C36.693554,88.1048387 37.5201587,87.8763464 38.0443548,87.4193548 C38.568551,86.9623633 38.8306452,86.2634456 38.8306452,85.3225806 C38.8306452,84.6236524 38.568551,84.0322605 38.0443548,83.5483871 C37.5201587,83.0645137 36.8615631,82.6008087 36.0685484,82.1572581 C35.2755337,81.7137075 34.4220476,81.2701635 33.5080645,80.8266129 C32.5940815,80.3830623 31.7405954,79.8521536 30.9475806,79.233871 C30.1545659,78.6155883 29.4959704,77.8897891 28.9717742,77.0564516 C28.447578,76.2231141 28.1854839,75.201619 28.1854839,73.9919355 C28.1854839,72.0026782 28.7298333,70.3561893 29.8185484,69.0524194 C30.9072635,67.7486494 32.4059044,66.908604 34.3145161,66.5322581 L34.3145161,62.3790323 L38.2258065,62.3790323 L38.2258065,66.4516129 C39.5161355,66.6397859 40.6451565,67.0295669 41.6129032,67.6209677 C42.58065,68.2123685 43.4542972,68.924727 44.233871,69.7580645 L41.25,73.1451613 C40.5241899,72.4731149 39.8252722,71.9690877 39.1532258,71.6330645 C38.4811794,71.2970413 37.7150581,71.1290323 36.8548387,71.1290323 C35.8870919,71.1290323 35.147852,71.3306431 34.6370968,71.733871 C34.1263415,72.1370988 33.8709677,72.7956944 33.8709677,73.7096774 C33.8709677,74.3548419 34.1330619,74.8991913 34.6572581,75.3427419 C35.1814542,75.7862925 35.8400498,76.2096754 36.6330645,76.6129032 C37.4260792,77.016131 38.2795653,77.4327935 39.1935484,77.8629032 C40.1075315,78.2930129 40.9610175,78.8172012 41.7540323,79.4354839 C42.547047,80.0537665 43.2056425,80.7997268 43.7298387,81.6733871 C44.2540349,82.5470474 44.516129,83.6290258 44.516129,84.9193548 C44.516129,86.8548484 43.9919407,88.514778 42.9435484,89.8991935 C41.895156,91.2836091 40.3225911,92.2042988 38.2258065,92.6612903 L38.2258065,96.8548387 L34.3145161,96.8548387 Z" id="$" fill="#0A2F5A"></path>
            <polygon id="Rectangle-Copy" fill="#00766C" points="202.419355 100 275 100 270.05132 113.709677 207.368035 113.709677"></polygon>
            <path d="M236.733871,97.6612903 L236.733871,93.6290323 C235.551069,93.494623 234.307802,93.1653252 233.004032,92.641129 C231.700262,92.1169329 230.577962,91.4247355 229.637097,90.5645161 L232.217742,86.5725806 C233.239252,87.3521544 234.213705,87.936826 235.141129,88.3266129 C236.068553,88.7163998 237.016124,88.9112903 237.983871,88.9112903 C239.112909,88.9112903 239.939514,88.682798 240.46371,88.2258065 C240.987906,87.7688149 241.25,87.0698972 241.25,86.1290323 C241.25,85.430104 240.987906,84.8387121 240.46371,84.3548387 C239.939514,83.8709653 239.280918,83.4072603 238.487903,82.9637097 C237.694889,82.5201591 236.841402,82.0766151 235.927419,81.6330645 C235.013436,81.1895139 234.15995,80.6586052 233.366935,80.0403226 C232.573921,79.4220399 231.915325,78.6962407 231.391129,77.8629032 C230.866933,77.0295657 230.604839,76.0080706 230.604839,74.7983871 C230.604839,72.8091298 231.149188,71.1626409 232.237903,69.858871 C233.326618,68.555101 234.825259,67.7150556 236.733871,67.3387097 L236.733871,63.1854839 L240.645161,63.1854839 L240.645161,67.2580645 C241.93549,67.4462375 243.064511,67.8360185 244.032258,68.4274194 C245.000005,69.0188202 245.873652,69.7311786 246.653226,70.5645161 L243.669355,73.9516129 C242.943545,73.2795665 242.244627,72.7755393 241.572581,72.4395161 C240.900534,72.1034929 240.134413,71.9354839 239.274194,71.9354839 C238.306447,71.9354839 237.567207,72.1370948 237.056452,72.5403226 C236.545696,72.9435504 236.290323,73.602146 236.290323,74.516129 C236.290323,75.1612935 236.552417,75.7056429 237.076613,76.1491935 C237.600809,76.5927442 238.259405,77.016127 239.052419,77.4193548 C239.845434,77.8225827 240.69892,78.2392452 241.612903,78.6693548 C242.526886,79.0994645 243.380372,79.6236528 244.173387,80.2419355 C244.966402,80.8602181 245.624997,81.6061784 246.149194,82.4798387 C246.67339,83.353499 246.935484,84.4354774 246.935484,85.7258065 C246.935484,87.6613 246.411296,89.3212296 245.362903,90.7056452 C244.314511,92.0900607 242.741946,93.0107504 240.645161,93.4677419 L240.645161,97.6612903 L236.733871,97.6612903 Z" id="$" fill="#00766C"></path>
        </g>
    </g>
</svg>