<?xml version="1.0" encoding="UTF-8"?>
<svg width="367px" height="200px" viewBox="0 0 367 200" version="1.1" xmlns="http://www.w3.org/2000/svg" xmlns:xlink="http://www.w3.org/1999/xlink">
    <!-- Generator: Sketch 53.2 (72643) - https://sketchapp.com -->
    <title>deficit-outline</title>
    <desc>Created with Sketch.</desc>
    <defs>
        <linearGradient x1="50%" y1="0%" x2="50%" y2="100%" id="linearGradient-1">
            <stop stop-color="#CACACA" offset="0%"></stop>
            <stop stop-color="#D8D8D8" offset="100%"></stop>
        </linearGradient>
        <linearGradient x1="50%" y1="0%" x2="50%" y2="100%" id="linearGradient-2">
            <stop stop-color="#EEEEEE" offset="0%"></stop>
            <stop stop-color="#D8D8D8" offset="100%"></stop>
        </linearGradient>
        <radialGradient cx="50%" cy="100%" fx="50%" fy="100%" r="100%" id="radialGradient-3">
            <stop stop-color="#CFCFCF" offset="0%"></stop>
            <stop stop-color="#969696" offset="100%"></stop>
        </radialGradient>
        <linearGradient x1="50%" y1="133.945843%" x2="50%" y2="0%" id="linearGradient-4">
            <stop stop-color="#CFCFCF" offset="0%"></stop>
            <stop stop-color="#969696" offset="100%"></stop>
        </linearGradient>
    </defs>
    <g id="deficit-outline" stroke="none" stroke-width="1" fill="none" fill-rule="evenodd">
        <g id="Group" transform="translate(46.000000, 22.000000)" fill-rule="nonzero">
            <path d="M36.2903226,14.8534429 L36.2903226,11.6895522" id="Line-22" stroke="#979797" stroke-width="0.806451613" stroke-linecap="square"></path>
            <path d="M238.709677,43.0792494 L238.709677,39.9153587" id="Line-22" stroke="#979797" stroke-width="0.806451613" stroke-linecap="square"></path>
            <path d="M0.806451613,84.6774194 L36.2903226,14.8534429" id="Line-20" stroke="#CCCCCC" stroke-width="0.806451613" stroke-linecap="round"></path>
            <path d="M37.0967742,84.6774194 L72.5806452,14.8534429" id="Line-20" stroke="#CCCCCC" stroke-width="0.806451613" stroke-linecap="round" transform="translate(54.435484, 49.596774) scale(-1, 1) translate(-54.435484, -49.596774) "></path>
            <polygon id="Rectangle" fill="#0A2F5A" points="0 84.6774194 72.5806452 84.6774194 67.6319648 98.3870968 4.94868035 98.3870968"></polygon>
            <rect id="Rectangle" stroke="#CCCCCC" stroke-width="0.806451613" fill="url(#linearGradient-1)" transform="translate(137.096774, 23.790323) scale(1, -1) rotate(-8.000000) translate(-137.096774, -23.790323) " x="31.0483871" y="22.1774194" width="212.096774" height="3.22580645"></rect>
            <path d="M135.059438,0.403225806 L127.038514,148.790323 L147.155035,148.790323 L139.134111,0.403225806 L135.059438,0.403225806 Z" id="Rectangle" stroke="#CCCCCC" stroke-width="0.806451613" fill="url(#linearGradient-2)"></path>
            <polygon id="Rectangle" fill="#CECECE" points="134.649363 0.806451613 136.290323 0.806451613 129.839337 149.193548 126.612903 149.193548"></polygon>
            <polygon id="Rectangle" fill="#CECECE" transform="translate(142.741935, 75.000000) scale(-1, 1) translate(-142.741935, -75.000000) " points="146.011535 0.806451613 147.580645 0.806451613 141.135892 149.193548 137.903226 149.193548"></polygon>
            <circle id="Oval" stroke="#979797" stroke-width="0.806451613" fill="url(#radialGradient-3)" cx="137.096774" cy="24.1935484" r="9.67741935"></circle>
            <path d="M103.225806,147.580645 L170.967742,147.580645 C174.530869,147.580645 177.419355,150.469131 177.419355,154.032258 L177.419355,154.032258 L96.7741935,154.032258 L96.7741935,154.032258 C96.7741935,150.469131 99.662679,147.580645 103.225806,147.580645 Z" id="Rectangle" stroke="#979797" stroke-width="0.806451613" fill="url(#linearGradient-4)"></path>
            <path d="M10.1790323,112.387097 L10.1790323,102.893548 L13.3870968,102.893548 C15.3612903,102.893548 16.8709677,103.590323 16.8709677,105.709677 C16.8709677,107.16129 16.116129,108.032258 14.983871,108.424194 L17.2483871,112.387097 L15.3612903,112.387097 L13.3145161,108.670968 L11.8629032,108.670968 L11.8629032,112.387097 L10.1790323,112.387097 Z M11.8629032,107.335484 L13.2129032,107.335484 C14.5048387,107.335484 15.216129,106.783871 15.216129,105.709677 C15.216129,104.620968 14.5048387,104.243548 13.2129032,104.243548 L11.8629032,104.243548 L11.8629032,107.335484 Z M21.5306452,112.56129 C19.5564516,112.56129 18.0177419,111.182258 18.0177419,108.830645 C18.0177419,106.508065 19.6290323,105.085484 21.2983871,105.085484 C23.2290323,105.085484 24.2451613,106.479032 24.2451613,108.467742 C24.2451613,108.787097 24.216129,109.106452 24.1725806,109.280645 L19.6435484,109.280645 C19.7887097,110.543548 20.6016129,111.269355 21.7483871,111.269355 C22.3580645,111.269355 22.8806452,111.080645 23.4032258,110.746774 L23.9693548,111.791935 C23.2870968,112.241935 22.4306452,112.56129 21.5306452,112.56129 Z M19.6290323,108.148387 L22.7935484,108.148387 C22.7935484,107.045161 22.3145161,106.377419 21.3419355,106.377419 C20.5,106.377419 19.7741935,107.001613 19.6290323,108.148387 Z M27.4387097,112.387097 L24.9564516,105.259677 L26.6548387,105.259677 L27.7870968,108.96129 C27.9758065,109.658065 28.1935484,110.383871 28.3822581,111.109677 L28.4403226,111.109677 C28.6435484,110.383871 28.8467742,109.658065 29.05,108.96129 L30.1822581,105.259677 L31.7935484,105.259677 L29.3693548,112.387097 L27.4387097,112.387097 Z M35.9887097,112.56129 C34.0145161,112.56129 32.4758065,111.182258 32.4758065,108.830645 C32.4758065,106.508065 34.0870968,105.085484 35.7564516,105.085484 C37.6870968,105.085484 38.7032258,106.479032 38.7032258,108.467742 C38.7032258,108.787097 38.6741935,109.106452 38.6306452,109.280645 L34.1016129,109.280645 C34.2467742,110.543548 35.0596774,111.269355 36.2064516,111.269355 C36.816129,111.269355 37.3387097,111.080645 37.8612903,110.746774 L38.4274194,111.791935 C37.7451613,112.241935 36.8887097,112.56129 35.9887097,112.56129 Z M34.0870968,108.148387 L37.2516129,108.148387 C37.2516129,107.045161 36.7725806,106.377419 35.8,106.377419 C34.9580645,106.377419 34.2322581,107.001613 34.0870968,108.148387 Z M40.3,112.387097 L40.3,105.259677 L41.6790323,105.259677 L41.7951613,106.217742 L41.8532258,106.217742 C42.4919355,105.593548 43.2177419,105.085484 44.1903226,105.085484 C45.7145161,105.085484 46.3822581,106.116129 46.3822581,107.916129 L46.3822581,112.387097 L44.7129032,112.387097 L44.7129032,108.133871 C44.7129032,106.958065 44.3790323,106.522581 43.5951613,106.522581 C42.9709677,106.522581 42.5645161,106.827419 41.9693548,107.408065 L41.9693548,112.387097 L40.3,112.387097 Z M50.5483871,112.56129 C49.0241935,112.56129 48.3564516,111.530645 48.3564516,109.730645 L48.3564516,105.259677 L50.0258065,105.259677 L50.0258065,109.512903 C50.0258065,110.68871 50.3596774,111.124194 51.1290323,111.124194 C51.7532258,111.124194 52.1741935,110.833871 52.7112903,110.137097 L52.7112903,105.259677 L54.3806452,105.259677 L54.3806452,112.387097 L53.016129,112.387097 L52.8854839,111.341935 L52.8419355,111.341935 C52.2177419,112.082258 51.5209677,112.56129 50.5483871,112.56129 Z M59.5483871,112.56129 C57.5741935,112.56129 56.0354839,111.182258 56.0354839,108.830645 C56.0354839,106.508065 57.6467742,105.085484 59.316129,105.085484 C61.2467742,105.085484 62.2629032,106.479032 62.2629032,108.467742 C62.2629032,108.787097 62.233871,109.106452 62.1903226,109.280645 L57.6612903,109.280645 C57.8064516,110.543548 58.6193548,111.269355 59.766129,111.269355 C60.3758065,111.269355 60.8983871,111.080645 61.4209677,110.746774 L61.9870968,111.791935 C61.3048387,112.241935 60.4483871,112.56129 59.5483871,112.56129 Z M57.6467742,108.148387 L60.8112903,108.148387 C60.8112903,107.045161 60.3322581,106.377419 59.3596774,106.377419 C58.5177419,106.377419 57.7919355,107.001613 57.6467742,108.148387 Z" id="Revenue" fill="#0A2F5A"></path>
            <path d="M213.059677,141.593548 C211.782258,141.593548 210.533871,141.085484 209.633871,140.2 L210.620968,139.053226 C211.303226,139.691935 212.217742,140.127419 213.08871,140.127419 C214.162903,140.127419 214.743548,139.648387 214.743548,138.908065 C214.743548,138.124194 214.133871,137.877419 213.277419,137.514516 L211.970968,136.948387 C211.041935,136.556452 210.054839,135.816129 210.054839,134.422581 C210.054839,132.912903 211.390323,131.751613 213.248387,131.751613 C214.351613,131.751613 215.425806,132.216129 216.166129,132.956452 L215.309677,134.030645 C214.7,133.522581 214.06129,133.217742 213.248387,133.217742 C212.348387,133.217742 211.753226,133.63871 211.753226,134.335484 C211.753226,135.075806 212.479032,135.351613 213.262903,135.670968 L214.554839,136.208065 C215.672581,136.687097 216.470968,137.398387 216.470968,138.777419 C216.470968,140.316129 215.193548,141.593548 213.059677,141.593548 Z M218.053226,144.235484 L218.053226,134.291935 L219.432258,134.291935 L219.548387,135.046774 L219.606452,135.046774 C220.201613,134.53871 220.970968,134.117742 221.754839,134.117742 C223.525806,134.117742 224.556452,135.540323 224.556452,137.746774 C224.556452,140.185484 223.090323,141.593548 221.508065,141.593548 C220.883871,141.593548 220.259677,141.303226 219.679032,140.809677 L219.722581,142 L219.722581,144.235484 L218.053226,144.235484 Z M221.159677,140.214516 C222.103226,140.214516 222.829032,139.372581 222.829032,137.76129 C222.829032,136.33871 222.364516,135.496774 221.290323,135.496774 C220.767742,135.496774 220.274194,135.758065 219.722581,136.295161 L219.722581,139.619355 C220.245161,140.054839 220.73871,140.214516 221.159677,140.214516 Z M229.28871,141.593548 C227.314516,141.593548 225.775806,140.214516 225.775806,137.862903 C225.775806,135.540323 227.387097,134.117742 229.056452,134.117742 C230.987097,134.117742 232.003226,135.51129 232.003226,137.5 C232.003226,137.819355 231.974194,138.13871 231.930645,138.312903 L227.401613,138.312903 C227.546774,139.575806 228.359677,140.301613 229.506452,140.301613 C230.116129,140.301613 230.63871,140.112903 231.16129,139.779032 L231.727419,140.824194 C231.045161,141.274194 230.18871,141.593548 229.28871,141.593548 Z M227.387097,137.180645 L230.551613,137.180645 C230.551613,136.077419 230.072581,135.409677 229.1,135.409677 C228.258065,135.409677 227.532258,136.033871 227.387097,137.180645 Z M233.6,141.419355 L233.6,134.291935 L234.979032,134.291935 L235.095161,135.25 L235.153226,135.25 C235.791935,134.625806 236.517742,134.117742 237.490323,134.117742 C239.014516,134.117742 239.682258,135.148387 239.682258,136.948387 L239.682258,141.419355 L238.012903,141.419355 L238.012903,137.166129 C238.012903,135.990323 237.679032,135.554839 236.895161,135.554839 C236.270968,135.554839 235.864516,135.859677 235.269355,136.440323 L235.269355,141.419355 L233.6,141.419355 Z M244.225806,141.593548 C242.440323,141.593548 241.293548,140.214516 241.293548,137.862903 C241.293548,135.540323 242.759677,134.117742 244.312903,134.117742 C245.125806,134.117742 245.633871,134.422581 246.185484,134.901613 L246.127419,133.754839 L246.127419,131.170968 L247.796774,131.170968 L247.796774,141.419355 L246.417742,141.419355 L246.301613,140.65 L246.243548,140.65 C245.720968,141.172581 244.995161,141.593548 244.225806,141.593548 Z M244.632258,140.214516 C245.183871,140.214516 245.648387,139.967742 246.127419,139.416129 L246.127419,136.091935 C245.633871,135.656452 245.154839,135.496774 244.675806,135.496774 C243.76129,135.496774 243.020968,136.353226 243.020968,137.848387 C243.020968,139.387097 243.601613,140.214516 244.632258,140.214516 Z M249.916129,141.419355 L249.916129,134.291935 L251.585484,134.291935 L251.585484,141.419355 L249.916129,141.419355 Z M250.758065,133.043548 C250.162903,133.043548 249.727419,132.651613 249.727419,132.1 C249.727419,131.533871 250.162903,131.141935 250.758065,131.141935 C251.353226,131.141935 251.78871,131.533871 251.78871,132.1 C251.78871,132.651613 251.353226,133.043548 250.758065,133.043548 Z M253.719355,141.419355 L253.719355,134.291935 L255.098387,134.291935 L255.214516,135.25 L255.272581,135.25 C255.91129,134.625806 256.637097,134.117742 257.609677,134.117742 C259.133871,134.117742 259.801613,135.148387 259.801613,136.948387 L259.801613,141.419355 L258.132258,141.419355 L258.132258,137.166129 C258.132258,135.990323 257.798387,135.554839 257.014516,135.554839 C256.390323,135.554839 255.983871,135.859677 255.38871,136.440323 L255.38871,141.419355 L253.719355,141.419355 Z M264.330645,144.569355 C262.632258,144.569355 261.369355,143.959677 261.369355,142.71129 C261.369355,142.116129 261.732258,141.593548 262.385484,141.187097 L262.385484,141.129032 C262.022581,140.896774 261.746774,140.519355 261.746774,139.93871 C261.746774,139.387097 262.124194,138.908065 262.530645,138.617742 L262.530645,138.559677 C262.051613,138.196774 261.601613,137.514516 261.601613,136.672581 C261.601613,135.032258 262.922581,134.117742 264.417742,134.117742 C264.809677,134.117742 265.172581,134.190323 265.462903,134.291935 L268.017742,134.291935 L268.017742,135.525806 L266.71129,135.525806 C266.943548,135.801613 267.117742,136.237097 267.117742,136.730645 C267.117742,138.312903 265.927419,139.154839 264.417742,139.154839 C264.112903,139.154839 263.764516,139.096774 263.445161,138.966129 C263.227419,139.154839 263.096774,139.329032 263.096774,139.648387 C263.096774,140.054839 263.387097,140.301613 264.258065,140.301613 L265.520968,140.301613 C267.233871,140.301613 268.133871,140.824194 268.133871,142.058065 C268.133871,143.466129 266.653226,144.569355 264.330645,144.569355 Z M264.417742,138.109677 C265.1,138.109677 265.651613,137.587097 265.651613,136.672581 C265.651613,135.787097 265.114516,135.264516 264.417742,135.264516 C263.720968,135.264516 263.169355,135.772581 263.169355,136.672581 C263.169355,137.587097 263.720968,138.109677 264.417742,138.109677 Z M264.591935,143.480645 C265.73871,143.480645 266.522581,142.943548 266.522581,142.333871 C266.522581,141.782258 266.072581,141.622581 265.259677,141.622581 L264.287097,141.622581 C263.895161,141.622581 263.590323,141.593548 263.314516,141.520968 C262.937097,141.81129 262.762903,142.130645 262.762903,142.464516 C262.762903,143.103226 263.459677,143.480645 264.591935,143.480645 Z" id="Spending" fill="#00766C"></path>
            <path d="M238.709677,43.5483871 L274.193548,113.709677 L238.709677,43.5483871 Z" id="Line-20" stroke="#CCCCCC" stroke-width="0.806451613" stroke-linecap="round" stroke-linejoin="round"></path>
            <path d="M203.225806,43.5483871 L238.709677,113.709677 L203.225806,43.5483871 Z" id="Line-20" stroke="#CCCCCC" stroke-width="0.806451613" stroke-linecap="round" stroke-linejoin="round" transform="translate(220.967742, 78.629032) scale(-1, 1) translate(-220.967742, -78.629032) "></path>
            <path d="M34.3935484,83.3870968 L34.3935484,79.516129 C33.2580588,79.3870961 32.0645224,79.0709703 30.8129032,78.5677419 C29.5612841,78.0645136 28.4838755,77.4000041 27.5806452,76.5741935 L30.0580645,72.7419355 C31.0387146,73.4903263 31.9741891,74.051611 32.8645161,74.4258065 C33.7548432,74.8000019 34.6645115,74.9870968 35.5935484,74.9870968 C36.6774248,74.9870968 37.4709652,74.7677441 37.9741935,74.3290323 C38.4774219,73.8903204 38.7290323,73.2193594 38.7290323,72.316129 C38.7290323,71.6451579 38.4774219,71.0774217 37.9741935,70.6129032 C37.4709652,70.1483848 36.8387135,69.7032279 36.0774194,69.2774194 C35.3161252,68.8516108 34.4967786,68.4258086 33.6193548,68 C32.7419311,67.5741914 31.9225845,67.0645191 31.1612903,66.4709677 C30.3999962,65.8774164 29.7677445,65.1806492 29.2645161,64.3806452 C28.7612878,63.5806412 28.5096774,62.6000058 28.5096774,61.4387097 C28.5096774,59.5290227 29.0322528,57.9483934 30.0774194,56.6967742 C31.1225859,55.445155 32.5612812,54.6387115 34.3935484,54.2774194 L34.3935484,50.2903226 L38.1483871,50.2903226 L38.1483871,54.2 C39.387103,54.3806461 40.4709631,54.7548359 41.4,55.3225806 C42.3290369,55.8903254 43.1677382,56.5741895 43.916129,57.3741935 L41.0516129,60.6258065 C40.3548352,59.9806419 39.6838742,59.4967758 39.0387097,59.1741935 C38.3935452,58.8516113 37.6580686,58.6903226 36.8322581,58.6903226 C35.9032212,58.6903226 35.1935508,58.883869 34.7032258,59.2709677 C34.2129008,59.6580665 33.9677419,60.2903182 33.9677419,61.1677419 C33.9677419,61.7870999 34.2193523,62.3096753 34.7225806,62.7354839 C35.225809,63.1612925 35.8580607,63.56774 36.6193548,63.9548387 C37.380649,64.3419374 38.1999956,64.7419334 39.0774194,65.1548387 C39.9548431,65.567744 40.7741897,66.0709648 41.5354839,66.6645161 C42.296778,67.2580675 42.9290297,67.9741894 43.4322581,68.8129032 C43.9354864,69.6516171 44.1870968,70.6903164 44.1870968,71.9290323 C44.1870968,73.7871061 43.683876,75.3806385 42.6774194,76.7096774 C41.6709627,78.0387163 40.1613004,78.9225785 38.1483871,79.3612903 L38.1483871,83.3870968 L34.3935484,83.3870968 Z" id="$" fill="#0A2F5A"></path>
            <polygon id="Rectangle-Copy" fill="#00766C" points="202.419355 113.709677 275 113.709677 270.05132 127.419355 207.368035 127.419355"></polygon>
            <path d="M236.33871,112.193548 L236.33871,107.354839 C234.919348,107.193548 233.427427,106.79839 231.862903,106.169355 C230.298379,105.540319 228.951619,104.709683 227.822581,103.677419 L230.919355,98.8870968 C232.145167,99.8225853 233.314511,100.524191 234.427419,100.991935 C235.540328,101.45968 236.677414,101.693548 237.83871,101.693548 C239.193555,101.693548 240.185481,101.419358 240.814516,100.870968 C241.443552,100.322578 241.758065,99.4838766 241.758065,98.3548387 C241.758065,97.5161248 241.443552,96.8064545 240.814516,96.2258065 C240.185481,95.6451584 239.395166,95.0887123 238.443548,94.5564516 C237.491931,94.0241909 236.467747,93.4919381 235.370968,92.9596774 C234.274188,92.4274167 233.250005,91.7903263 232.298387,91.0483871 C231.346769,90.3064479 230.556455,89.4354889 229.927419,88.4354839 C229.298384,87.4354789 228.983871,86.2096847 228.983871,84.7580645 C228.983871,82.3709558 229.63709,80.3951691 230.943548,78.8306452 C232.250007,77.2661212 234.048376,76.2580668 236.33871,75.8064516 L236.33871,70.8225806 L241.032258,70.8225806 L241.032258,75.7096774 C242.580653,75.935485 243.935478,76.4032223 245.096774,77.1129032 C246.25807,77.8225842 247.306447,78.6774144 248.241935,79.6774194 L244.66129,83.7419355 C243.790318,82.9354798 242.951617,82.3306472 242.145161,81.9274194 C241.338706,81.5241915 240.41936,81.3225806 239.387097,81.3225806 C238.225801,81.3225806 237.338713,81.5645137 236.725806,82.0483871 C236.1129,82.5322605 235.806452,83.3225752 235.806452,84.4193548 C235.806452,85.1935523 236.120965,85.8467715 236.75,86.3790323 C237.379035,86.911293 238.16935,87.4193524 239.120968,87.9032258 C240.072585,88.3870992 241.096769,88.8870942 242.193548,89.4032258 C243.290328,89.9193574 244.314511,90.5483834 245.266129,91.2903226 C246.217747,92.0322618 247.008061,92.9274141 247.637097,93.9758065 C248.266132,95.0241988 248.580645,96.3225729 248.580645,97.8709677 C248.580645,100.19356 247.951619,102.185476 246.693548,103.846774 C245.435478,105.508073 243.5484,106.6129 241.032258,107.16129 L241.032258,112.193548 L236.33871,112.193548 Z" id="$" fill="#00766C"></path>
        </g>
    </g>
</svg>