<?xml version="1.0" encoding="UTF-8"?>
<svg width="178px" height="36px" viewBox="0 0 178 36" version="1.1" xmlns="http://www.w3.org/2000/svg" xmlns:xlink="http://www.w3.org/1999/xlink">
    <!-- Generator: Sketch 53.2 (72643) - https://sketchapp.com -->
    <title>hdpi/DL/Tagline2</title>
    <desc>Created with Sketch.</desc>
    <g id="DL/Tagline2" stroke="none" stroke-width="1" fill="none" fill-rule="evenodd">
        <path d="M7,7.784 L7.979,7.784 L9.134,11.678 C9.26600066,12.1106688 9.38149951,12.5103315 9.4805,12.877 C9.57950049,13.2436685 9.69866597,13.6396645 9.838,14.065 L9.882,14.065 C10.0140007,13.6396645 10.1313328,13.2436685 10.234,12.877 C10.3366672,12.5103315 10.4503327,12.1106688 10.575,11.678 L11.73,7.784 L12.665,7.784 L10.377,15 L9.31,15 L7,7.784 Z M14.271,8.554 C14.0949991,8.554 13.9465006,8.49900055 13.8255,8.389 C13.7044994,8.27899945 13.644,8.13966751 13.644,7.971 C13.644,7.79499912 13.7044994,7.65383387 13.8255,7.5475 C13.9465006,7.44116613 14.0949991,7.388 14.271,7.388 C14.4470009,7.388 14.5954994,7.44116613 14.7165,7.5475 C14.8375006,7.65383387 14.898,7.79499912 14.898,7.971 C14.898,8.13966751 14.8375006,8.27899945 14.7165,8.389 C14.5954994,8.49900055 14.4470009,8.554 14.271,8.554 Z M13.809,9.654 L14.711,9.654 L14.711,15 L13.809,15 L13.809,9.654 Z M16.647,13.79 C16.8816678,13.9806676 17.1218321,14.1346661 17.3675,14.252 C17.6131679,14.3693339 17.8973317,14.428 18.22,14.428 C18.5720018,14.428 18.8359991,14.3473341 19.012,14.186 C19.1880009,14.0246659 19.276,13.8266678 19.276,13.592 C19.276,13.452666 19.2393337,13.3316672 19.166,13.229 C19.0926663,13.1263328 18.9991672,13.0365004 18.8855,12.9595 C18.7718328,12.8824996 18.6416674,12.814667 18.495,12.756 L18.055,12.58 C17.8643324,12.5139997 17.6736676,12.4388338 17.483,12.3545 C17.2923324,12.2701662 17.1218341,12.1675006 16.9715,12.0465 C16.8211659,11.9254994 16.6983338,11.7843341 16.603,11.623 C16.5076662,11.4616659 16.46,11.2673345 16.46,11.04 C16.46,10.8273323 16.5021662,10.6275009 16.5865,10.4405 C16.6708338,10.2534991 16.7918325,10.0921673 16.9495,9.9565 C17.1071675,9.82083266 17.2996655,9.71450039 17.527,9.6375 C17.7543345,9.56049961 18.0109986,9.522 18.297,9.522 C18.634335,9.522 18.9441653,9.58066608 19.2265,9.698 C19.5088347,9.81533392 19.7526656,9.95833249 19.958,10.127 L19.529,10.699 C19.3456658,10.559666 19.155001,10.4460004 18.957,10.358 C18.758999,10.2699996 18.5426678,10.226 18.308,10.226 C17.970665,10.226 17.7231675,10.3029992 17.5655,10.457 C17.4078325,10.6110008 17.329,10.7906656 17.329,10.996 C17.329,11.1206673 17.3619997,11.2288329 17.428,11.3205 C17.4940003,11.4121671 17.5819994,11.492833 17.692,11.5625 C17.8020005,11.632167 17.9284993,11.6944997 18.0715,11.7495 C18.2145007,11.8045003 18.3629992,11.861333 18.517,11.92 C18.7076676,11.9933337 18.9001657,12.0703329 19.0945,12.151 C19.2888343,12.2316671 19.4629992,12.3324994 19.617,12.4535 C19.7710008,12.5745006 19.8974995,12.7229991 19.9965,12.899 C20.0955005,13.0750009 20.145,13.2876654 20.145,13.537 C20.145,13.7570011 20.1028338,13.9623324 20.0185,14.153 C19.9341662,14.3436676 19.8095008,14.5123326 19.6445,14.659 C19.4794992,14.8056674 19.2741679,14.9211662 19.0285,15.0055 C18.7828321,15.0898338 18.5023349,15.132 18.187,15.132 C17.8056648,15.132 17.4426684,15.062334 17.098,14.923 C16.7533316,14.783666 16.4526679,14.6076677 16.196,14.395 L16.647,13.79 Z M21.597,9.654 L22.51,9.654 L22.51,12.921 C22.51,13.4270025 22.5888325,13.7918322 22.7465,14.0155 C22.9041675,14.2391678 23.1589982,14.351 23.511,14.351 C23.7896681,14.351 24.0353323,14.2795007 24.248,14.1365 C24.4606677,13.9934993 24.695332,13.7643349 24.952,13.449 L24.952,9.654 L25.854,9.654 L25.854,15 L25.106,15 L25.029,14.164 L24.996,14.164 C24.7466654,14.4573348 24.4845014,14.6919991 24.2095,14.868 C23.9344986,15.0440009 23.6100019,15.132 23.236,15.132 C22.6639971,15.132 22.2478346,14.9560018 21.9875,14.604 C21.7271654,14.2519982 21.597,13.7313368 21.597,13.042 L21.597,9.654 Z M27.669,13.614 C27.669,13.0273304 27.931164,12.5781682 28.4555,12.2665 C28.979836,11.9548318 29.8139943,11.7366673 30.958,11.612 C30.958,11.4433325 30.9415002,11.2783341 30.9085,11.117 C30.8754998,10.9556659 30.8168338,10.8126673 30.7325,10.688 C30.6481662,10.5633327 30.536334,10.4625004 30.397,10.3855 C30.257666,10.3084996 30.0780011,10.27 29.858,10.27 C29.5426651,10.27 29.251168,10.3286661 28.9835,10.446 C28.715832,10.5633339 28.4756677,10.6953326 28.263,10.842 L27.9,10.215 C28.1493346,10.0536659 28.4536649,9.89783408 28.813,9.7475 C29.1723351,9.59716591 29.5683312,9.522 30.001,9.522 C30.6536699,9.522 31.1266652,9.72183133 31.42,10.1215 C31.7133348,10.5211687 31.86,11.0546633 31.86,11.722 L31.86,15 L31.112,15 L31.035,14.362 L31.013,14.362 C30.756332,14.5746677 30.4795015,14.7561659 30.1825,14.9065 C29.8854985,15.0568341 29.5720016,15.132 29.242,15.132 C28.7873311,15.132 28.4115015,15.0000013 28.1145,14.736 C27.8174985,14.4719987 27.669,14.0980024 27.669,13.614 Z M28.56,13.548 C28.56,13.8560015 28.6498324,14.0759993 28.8295,14.208 C29.0091676,14.3400007 29.2309987,14.406 29.495,14.406 C29.751668,14.406 29.9954988,14.3455006 30.2265,14.2245 C30.4575012,14.1034994 30.7013321,13.9256678 30.958,13.691 L30.958,12.206 C30.5106644,12.264667 30.1330015,12.3343329 29.825,12.415 C29.5169985,12.4956671 29.2695009,12.5909995 29.0825,12.701 C28.8954991,12.8110005 28.7616671,12.9374993 28.681,13.0805 C28.6003329,13.2235007 28.56,13.3793325 28.56,13.548 Z M33.84,7.168 L34.742,7.168 L34.742,13.988 C34.742,14.1346674 34.7676664,14.237333 34.819,14.296 C34.8703336,14.354667 34.9289997,14.384 34.995,14.384 L35.0775,14.384 C35.1031668,14.384 35.1416664,14.3766667 35.193,14.362 L35.314,15.044 C35.255333,15.0733335 35.1856671,15.0953333 35.105,15.11 C35.0243329,15.1246667 34.9216673,15.132 34.797,15.132 C34.4523316,15.132 34.2066674,15.0293344 34.06,14.824 C33.9133326,14.6186656 33.84,14.318002 33.84,13.922 L33.84,7.168 Z M37.382,8.554 C37.2059991,8.554 37.0575006,8.49900055 36.9365,8.389 C36.8154994,8.27899945 36.755,8.13966751 36.755,7.971 C36.755,7.79499912 36.8154994,7.65383387 36.9365,7.5475 C37.0575006,7.44116613 37.2059991,7.388 37.382,7.388 C37.5580009,7.388 37.7064994,7.44116613 37.8275,7.5475 C37.9485006,7.65383387 38.009,7.79499912 38.009,7.971 C38.009,8.13966751 37.9485006,8.27899945 37.8275,8.389 C37.7064994,8.49900055 37.5580009,8.554 37.382,8.554 Z M36.92,9.654 L37.822,9.654 L37.822,15 L36.92,15 L36.92,9.654 Z M39.34,14.516 L42.156,10.391 L39.648,10.391 L39.648,9.654 L43.3,9.654 L43.3,10.138 L40.484,14.263 L43.388,14.263 L43.388,15 L39.34,15 L39.34,14.516 Z M44.334,13.614 C44.334,13.0273304 44.596164,12.5781682 45.1205,12.2665 C45.644836,11.9548318 46.4789943,11.7366673 47.623,11.612 C47.623,11.4433325 47.6065002,11.2783341 47.5735,11.117 C47.5404998,10.9556659 47.4818338,10.8126673 47.3975,10.688 C47.3131662,10.5633327 47.201334,10.4625004 47.062,10.3855 C46.922666,10.3084996 46.7430011,10.27 46.523,10.27 C46.2076651,10.27 45.916168,10.3286661 45.6485,10.446 C45.380832,10.5633339 45.1406677,10.6953326 44.928,10.842 L44.565,10.215 C44.8143346,10.0536659 45.1186649,9.89783408 45.478,9.7475 C45.8373351,9.59716591 46.2333312,9.522 46.666,9.522 C47.3186699,9.522 47.7916652,9.72183133 48.085,10.1215 C48.3783348,10.5211687 48.525,11.0546633 48.525,11.722 L48.525,15 L47.777,15 L47.7,14.362 L47.678,14.362 C47.421332,14.5746677 47.1445015,14.7561659 46.8475,14.9065 C46.5504985,15.0568341 46.2370016,15.132 45.907,15.132 C45.4523311,15.132 45.0765015,15.0000013 44.7795,14.736 C44.4824985,14.4719987 44.334,14.0980024 44.334,13.614 Z M45.225,13.548 C45.225,13.8560015 45.3148324,14.0759993 45.4945,14.208 C45.6741676,14.3400007 45.8959987,14.406 46.16,14.406 C46.4166679,14.406 46.6604988,14.3455006 46.8915,14.2245 C47.1225012,14.1034994 47.366332,13.9256678 47.623,13.691 L47.623,12.206 C47.1756644,12.264667 46.7980015,12.3343329 46.49,12.415 C46.1819985,12.4956671 45.9345009,12.5909995 45.7475,12.701 C45.5604991,12.8110005 45.4266671,12.9374993 45.346,13.0805 C45.2653329,13.2235007 45.225,13.3793325 45.225,13.548 Z M50.659,10.391 L49.867,10.391 L49.867,9.709 L50.703,9.654 L50.813,8.158 L51.572,8.158 L51.572,9.654 L53.013,9.654 L53.013,10.391 L51.572,10.391 L51.572,13.361 C51.572,13.6910017 51.6324994,13.9458324 51.7535,14.1255 C51.8745006,14.3051676 52.0889985,14.395 52.397,14.395 C52.4923338,14.395 52.5949994,14.3803335 52.705,14.351 C52.8150005,14.3216665 52.9139996,14.2886668 53.002,14.252 L53.178,14.934 C53.0313326,14.9853336 52.8718342,15.0311665 52.6995,15.0715 C52.5271658,15.1118335 52.3566675,15.132 52.188,15.132 C51.9019986,15.132 51.6618343,15.0880004 51.4675,15 C51.2731657,14.9119996 51.1155006,14.7910008 50.9945,14.637 C50.8734994,14.4829992 50.7873336,14.2960011 50.736,14.076 C50.6846664,13.8559989 50.659,13.6140013 50.659,13.35 L50.659,10.391 Z M54.96,8.554 C54.7839991,8.554 54.6355006,8.49900055 54.5145,8.389 C54.3934994,8.27899945 54.333,8.13966751 54.333,7.971 C54.333,7.79499912 54.3934994,7.65383387 54.5145,7.5475 C54.6355006,7.44116613 54.7839991,7.388 54.96,7.388 C55.1360009,7.388 55.2844994,7.44116613 55.4055,7.5475 C55.5265006,7.65383387 55.587,7.79499912 55.587,7.971 C55.587,8.13966751 55.5265006,8.27899945 55.4055,8.389 C55.2844994,8.49900055 55.1360009,8.554 54.96,8.554 Z M54.498,9.654 L55.4,9.654 L55.4,15 L54.498,15 L54.498,9.654 Z M57.083,12.338 C57.083,11.8906644 57.1508327,11.4928351 57.2865,11.1445 C57.4221673,10.7961649 57.6036655,10.5010012 57.831,10.259 C58.0583345,10.0169988 58.3204985,9.83366729 58.6175,9.709 C58.9145015,9.58433271 59.2279984,9.522 59.558,9.522 C59.8880016,9.522 60.2014985,9.58433271 60.4985,9.709 C60.7955015,9.83366729 61.0576655,10.0169988 61.285,10.259 C61.5123345,10.5010012 61.6938327,10.7961649 61.8295,11.1445 C61.9651673,11.4928351 62.033,11.8906644 62.033,12.338 C62.033,12.7780022 61.9651673,13.1721649 61.8295,13.5205 C61.6938327,13.8688351 61.5123345,14.1621655 61.285,14.4005 C61.0576655,14.6388345 60.7955015,14.8203327 60.4985,14.945 C60.2014985,15.0696673 59.8880016,15.132 59.558,15.132 C59.2279984,15.132 58.9145015,15.0696673 58.6175,14.945 C58.3204985,14.8203327 58.0583345,14.6388345 57.831,14.4005 C57.6036655,14.1621655 57.4221673,13.8688351 57.2865,13.5205 C57.1508327,13.1721649 57.083,12.7780022 57.083,12.338 Z M58.018,12.338 C58.018,12.6460015 58.0546663,12.9246654 58.128,13.174 C58.2013337,13.4233346 58.3058327,13.6378324 58.4415,13.8175 C58.5771673,13.9971676 58.7403324,14.1364995 58.931,14.2355 C59.1216676,14.3345005 59.3306655,14.384 59.558,14.384 C59.7853345,14.384 59.9943324,14.3345005 60.185,14.2355 C60.3756676,14.1364995 60.5388327,13.9971676 60.6745,13.8175 C60.8101673,13.6378324 60.9146663,13.4233346 60.988,13.174 C61.0613337,12.9246654 61.098,12.6460015 61.098,12.338 C61.098,12.0299985 61.0613337,11.7495013 60.988,11.4965 C60.9146663,11.2434987 60.8101673,11.0253343 60.6745,10.842 C60.5388327,10.6586657 60.3756676,10.5175005 60.185,10.4185 C59.9943324,10.3194995 59.7853345,10.27 59.558,10.27 C59.3306655,10.27 59.1216676,10.3194995 58.931,10.4185 C58.7403324,10.5175005 58.5771673,10.6586657 58.4415,10.842 C58.3058327,11.0253343 58.2013337,11.2434987 58.128,11.4965 C58.0546663,11.7495013 58.018,12.0299985 58.018,12.338 Z M63.716,9.654 L64.464,9.654 L64.541,10.424 L64.574,10.424 C64.8306679,10.167332 65.1001653,9.9528342 65.3825,9.7805 C65.6648347,9.6081658 65.9929981,9.522 66.367,9.522 C66.9316695,9.522 67.3441654,9.69799824 67.6045,10.05 C67.8648346,10.4020018 67.995,10.9226632 67.995,11.612 L67.995,15 L67.093,15 L67.093,11.733 C67.093,11.2269975 67.0123341,10.8621678 66.851,10.6385 C66.6896659,10.4148322 66.4330018,10.303 66.081,10.303 C65.8023319,10.303 65.5566677,10.372666 65.344,10.512 C65.1313323,10.651334 64.8893347,10.8566653 64.618,11.128 L64.618,15 L63.716,15 L63.716,9.654 Z M69.865,13.79 C70.0996678,13.9806676 70.3398321,14.1346661 70.5855,14.252 C70.8311679,14.3693339 71.1153317,14.428 71.438,14.428 C71.7900018,14.428 72.0539991,14.3473341 72.23,14.186 C72.4060009,14.0246659 72.494,13.8266678 72.494,13.592 C72.494,13.452666 72.4573337,13.3316672 72.384,13.229 C72.3106663,13.1263328 72.2171672,13.0365004 72.1035,12.9595 C71.9898328,12.8824996 71.8596674,12.814667 71.713,12.756 L71.273,12.58 C71.0823324,12.5139997 70.8916676,12.4388338 70.701,12.3545 C70.5103324,12.2701662 70.3398341,12.1675006 70.1895,12.0465 C70.0391659,11.9254994 69.9163338,11.7843341 69.821,11.623 C69.7256662,11.4616659 69.678,11.2673345 69.678,11.04 C69.678,10.8273323 69.7201662,10.6275009 69.8045,10.4405 C69.8888338,10.2534991 70.0098325,10.0921673 70.1675,9.9565 C70.3251675,9.82083266 70.5176655,9.71450039 70.745,9.6375 C70.9723345,9.56049961 71.2289986,9.522 71.515,9.522 C71.852335,9.522 72.1621653,9.58066608 72.4445,9.698 C72.7268347,9.81533392 72.9706656,9.95833249 73.176,10.127 L72.747,10.699 C72.5636658,10.559666 72.373001,10.4460004 72.175,10.358 C71.976999,10.2699996 71.7606678,10.226 71.526,10.226 C71.188665,10.226 70.9411675,10.3029992 70.7835,10.457 C70.6258325,10.6110008 70.547,10.7906656 70.547,10.996 C70.547,11.1206673 70.5799997,11.2288329 70.646,11.3205 C70.7120003,11.4121671 70.7999995,11.492833 70.91,11.5625 C71.0200005,11.632167 71.1464993,11.6944997 71.2895,11.7495 C71.4325007,11.8045003 71.5809992,11.861333 71.735,11.92 C71.9256676,11.9933337 72.1181657,12.0703329 72.3125,12.151 C72.5068343,12.2316671 72.6809992,12.3324994 72.835,12.4535 C72.9890008,12.5745006 73.1154995,12.7229991 73.2145,12.899 C73.3135005,13.0750009 73.363,13.2876654 73.363,13.537 C73.363,13.7570011 73.3208338,13.9623324 73.2365,14.153 C73.1521662,14.3436676 73.0275008,14.5123326 72.8625,14.659 C72.6974992,14.8056674 72.4921679,14.9211662 72.2465,15.0055 C72.0008321,15.0898338 71.7203349,15.132 71.405,15.132 C71.0236648,15.132 70.6606684,15.062334 70.316,14.923 C69.9713316,14.783666 69.6706679,14.6076677 69.414,14.395 L69.865,13.79 Z M77.543,10.391 L76.751,10.391 L76.751,9.709 L77.587,9.654 L77.697,8.158 L78.456,8.158 L78.456,9.654 L79.897,9.654 L79.897,10.391 L78.456,10.391 L78.456,13.361 C78.456,13.6910017 78.5164994,13.9458324 78.6375,14.1255 C78.7585006,14.3051676 78.9729985,14.395 79.281,14.395 C79.3763338,14.395 79.4789995,14.3803335 79.589,14.351 C79.6990006,14.3216665 79.7979996,14.2886668 79.886,14.252 L80.062,14.934 C79.9153326,14.9853336 79.7558342,15.0311665 79.5835,15.0715 C79.4111658,15.1118335 79.2406675,15.132 79.072,15.132 C78.7859986,15.132 78.5458343,15.0880004 78.3515,15 C78.1571657,14.9119996 77.9995006,14.7910008 77.8785,14.637 C77.7574994,14.4829992 77.6713336,14.2960011 77.62,14.076 C77.5686664,13.8559989 77.543,13.6140013 77.543,13.35 L77.543,10.391 Z M80.876,12.338 C80.876,11.8906644 80.9438327,11.4928351 81.0795,11.1445 C81.2151673,10.7961649 81.3966655,10.5010012 81.624,10.259 C81.8513345,10.0169988 82.1134985,9.83366729 82.4105,9.709 C82.7075015,9.58433271 83.0209984,9.522 83.351,9.522 C83.6810017,9.522 83.9944985,9.58433271 84.2915,9.709 C84.5885015,9.83366729 84.8506655,10.0169988 85.078,10.259 C85.3053345,10.5010012 85.4868327,10.7961649 85.6225,11.1445 C85.7581673,11.4928351 85.826,11.8906644 85.826,12.338 C85.826,12.7780022 85.7581673,13.1721649 85.6225,13.5205 C85.4868327,13.8688351 85.3053345,14.1621655 85.078,14.4005 C84.8506655,14.6388345 84.5885015,14.8203327 84.2915,14.945 C83.9944985,15.0696673 83.6810017,15.132 83.351,15.132 C83.0209984,15.132 82.7075015,15.0696673 82.4105,14.945 C82.1134985,14.8203327 81.8513345,14.6388345 81.624,14.4005 C81.3966655,14.1621655 81.2151673,13.8688351 81.0795,13.5205 C80.9438327,13.1721649 80.876,12.7780022 80.876,12.338 Z M81.811,12.338 C81.811,12.6460015 81.8476663,12.9246654 81.921,13.174 C81.9943337,13.4233346 82.0988327,13.6378324 82.2345,13.8175 C82.3701673,13.9971676 82.5333324,14.1364995 82.724,14.2355 C82.9146676,14.3345005 83.1236655,14.384 83.351,14.384 C83.5783345,14.384 83.7873324,14.3345005 83.978,14.2355 C84.1686676,14.1364995 84.3318327,13.9971676 84.4675,13.8175 C84.6031673,13.6378324 84.7076663,13.4233346 84.781,13.174 C84.8543337,12.9246654 84.891,12.6460015 84.891,12.338 C84.891,12.0299985 84.8543337,11.7495013 84.781,11.4965 C84.7076663,11.2434987 84.6031673,11.0253343 84.4675,10.842 C84.3318327,10.6586657 84.1686676,10.5175005 83.978,10.4185 C83.7873324,10.3194995 83.5783345,10.27 83.351,10.27 C83.1236655,10.27 82.9146676,10.3194995 82.724,10.4185 C82.5333324,10.5175005 82.3701673,10.6586657 82.2345,10.842 C82.0988327,11.0253343 81.9943337,11.2434987 81.921,11.4965 C81.8476663,11.7495013 81.811,12.0299985 81.811,12.338 Z M90.006,7.168 L90.908,7.168 L90.908,9.302 L90.875,10.402 C91.131668,10.1599988 91.3993319,9.9528342 91.678,9.7805 C91.9566681,9.6081658 92.2829981,9.522 92.657,9.522 C93.2216695,9.522 93.6341654,9.69799824 93.8945,10.05 C94.1548346,10.4020018 94.285,10.9226632 94.285,11.612 L94.285,15 L93.383,15 L93.383,11.733 C93.383,11.2269975 93.3023341,10.8621678 93.141,10.6385 C92.9796659,10.4148322 92.7230018,10.303 92.371,10.303 C92.0923319,10.303 91.8466677,10.372666 91.634,10.512 C91.4213323,10.651334 91.1793347,10.8566653 90.908,11.128 L90.908,15 L90.006,15 L90.006,7.168 Z M95.869,12.338 C95.869,11.8979978 95.9368327,11.5038351 96.0725,11.1555 C96.2081673,10.8071649 96.3878322,10.5120012 96.6115,10.27 C96.8351678,10.0279988 97.0899986,9.84283397 97.376,9.7145 C97.6620014,9.58616602 97.9589985,9.522 98.267,9.522 C98.604335,9.522 98.906832,9.58066608 99.1745,9.698 C99.442168,9.81533392 99.6658324,9.9839989 99.8455,10.204 C100.025168,10.4240011 100.162666,10.6879985 100.258,10.996 C100.353334,11.3040015 100.401,11.6486648 100.401,12.03 C100.401,12.228001 100.39,12.3929993 100.368,12.525 L96.76,12.525 C96.7966669,13.1043362 96.9744984,13.562665 97.2935,13.9 C97.6125016,14.237335 98.0286641,14.406 98.542,14.406 C98.7986679,14.406 99.0351656,14.3675004 99.2515,14.2905 C99.4678344,14.2134996 99.674999,14.1126673 99.873,13.988 L100.192,14.582 C99.9573322,14.7286674 99.6970014,14.8569994 99.411,14.967 C99.1249986,15.0770006 98.7986685,15.132 98.432,15.132 C98.0726649,15.132 97.7371682,15.067834 97.4255,14.9395 C97.1138318,14.811166 96.8425012,14.6278345 96.6115,14.3895 C96.3804988,14.1511655 96.1990007,13.8596684 96.067,13.515 C95.9349993,13.1703316 95.869,12.7780022 95.869,12.338 Z M99.609,11.931 C99.609,11.3809973 99.4935012,10.9611681 99.2625,10.6715 C99.0314988,10.3818319 98.7070021,10.237 98.289,10.237 C98.0983324,10.237 97.9168342,10.2754996 97.7445,10.3525 C97.5721658,10.4295004 97.416334,10.5394993 97.277,10.6825 C97.137666,10.8255007 97.0221671,11.001499 96.9305,11.2105 C96.8388329,11.419501 96.7783335,11.6596653 96.749,11.931 L99.609,11.931 Z M101.996,7.168 L102.898,7.168 L102.898,13.988 C102.898,14.1346674 102.923666,14.237333 102.975,14.296 C103.026334,14.354667 103.085,14.384 103.151,14.384 L103.2335,14.384 C103.259167,14.384 103.297666,14.3766667 103.349,14.362 L103.47,15.044 C103.411333,15.0733335 103.341667,15.0953333 103.261,15.11 C103.180333,15.1246667 103.077667,15.132 102.953,15.132 C102.608332,15.132 102.362667,15.0293344 102.216,14.824 C102.069333,14.6186656 101.996,14.318002 101.996,13.922 L101.996,7.168 Z M105.978,15.451 L105.978,17.255 L105.076,17.255 L105.076,9.654 L105.824,9.654 L105.901,10.27 L105.934,10.27 C106.176001,10.0646656 106.441832,9.8886674 106.7315,9.742 C107.021168,9.5953326 107.323665,9.522 107.639,9.522 C107.983668,9.522 108.287999,9.58616602 108.552,9.7145 C108.816001,9.84283397 109.035999,10.0261655 109.212,10.2645 C109.388001,10.5028345 109.521833,10.7888317 109.6135,11.1225 C109.705167,11.4561683 109.751,11.8319979 109.751,12.25 C109.751,12.7046689 109.688667,13.1098316 109.564,13.4655 C109.439333,13.8211684 109.270668,14.1236654 109.058,14.373 C108.845332,14.6223346 108.599668,14.811166 108.321,14.9395 C108.042332,15.067834 107.749002,15.132 107.441,15.132 C107.191665,15.132 106.944168,15.0770006 106.6985,14.967 C106.452832,14.8569994 106.205335,14.7066676 105.956,14.516 L105.978,15.451 Z M105.978,13.812 C106.220001,14.0173344 106.454666,14.1621662 106.682,14.2465 C106.909334,14.3308338 107.110999,14.373 107.287,14.373 C107.507001,14.373 107.710499,14.3235005 107.8975,14.2245 C108.084501,14.1254995 108.245833,13.9861676 108.3815,13.8065 C108.517167,13.6268324 108.6235,13.4050013 108.7005,13.141 C108.7775,12.8769987 108.816,12.5800016 108.816,12.25 C108.816,11.9566652 108.790334,11.6890012 108.739,11.447 C108.687666,11.2049988 108.605167,10.9978342 108.4915,10.8255 C108.377833,10.6531658 108.231168,10.5193338 108.0515,10.424 C107.871832,10.3286662 107.657335,10.281 107.408,10.281 C107.180666,10.281 106.951501,10.3433327 106.7205,10.468 C106.489499,10.5926673 106.242001,10.7723322 105.978,11.007 L105.978,13.812 Z M113.59,16.474 L113.788,16.5235 C113.861334,16.5418334 113.931,16.551 113.997,16.551 C114.305002,16.551 114.556166,16.4428344 114.7505,16.2265 C114.944834,16.0101656 115.096999,15.7370016 115.207,15.407 L115.328,15.011 L113.183,9.654 L114.118,9.654 L115.207,12.613 C115.287667,12.8476678 115.373833,13.0951654 115.4655,13.3555 C115.557167,13.6158346 115.643333,13.8706654 115.724,14.12 L115.768,14.12 C115.848667,13.8779988 115.925666,13.6250013 115.999,13.361 C116.072334,13.0969987 116.145666,12.8476678 116.219,12.613 L117.176,9.654 L118.056,9.654 L116.043,15.44 C115.947666,15.7040013 115.841334,15.9496655 115.724,16.177 C115.606666,16.4043345 115.467334,16.6004992 115.306,16.7655 C115.144666,16.9305008 114.961334,17.0606662 114.756,17.156 C114.550666,17.2513338 114.312335,17.299 114.041,17.299 C113.916333,17.299 113.802667,17.2898334 113.7,17.2715 C113.597333,17.2531666 113.502,17.2256668 113.414,17.189 L113.59,16.474 Z M118.925,12.338 C118.925,11.8906644 118.992833,11.4928351 119.1285,11.1445 C119.264167,10.7961649 119.445666,10.5010012 119.673,10.259 C119.900334,10.0169988 120.162499,9.83366729 120.4595,9.709 C120.756501,9.58433271 121.069998,9.522 121.4,9.522 C121.730002,9.522 122.043499,9.58433271 122.3405,9.709 C122.637501,9.83366729 122.899666,10.0169988 123.127,10.259 C123.354334,10.5010012 123.535833,10.7961649 123.6715,11.1445 C123.807167,11.4928351 123.875,11.8906644 123.875,12.338 C123.875,12.7780022 123.807167,13.1721649 123.6715,13.5205 C123.535833,13.8688351 123.354334,14.1621655 123.127,14.4005 C122.899666,14.6388345 122.637501,14.8203327 122.3405,14.945 C122.043499,15.0696673 121.730002,15.132 121.4,15.132 C121.069998,15.132 120.756501,15.0696673 120.4595,14.945 C120.162499,14.8203327 119.900334,14.6388345 119.673,14.4005 C119.445666,14.1621655 119.264167,13.8688351 119.1285,13.5205 C118.992833,13.1721649 118.925,12.7780022 118.925,12.338 Z M119.86,12.338 C119.86,12.6460015 119.896666,12.9246654 119.97,13.174 C120.043334,13.4233346 120.147833,13.6378324 120.2835,13.8175 C120.419167,13.9971676 120.582332,14.1364995 120.773,14.2355 C120.963668,14.3345005 121.172666,14.384 121.4,14.384 C121.627334,14.384 121.836332,14.3345005 122.027,14.2355 C122.217668,14.1364995 122.380833,13.9971676 122.5165,13.8175 C122.652167,13.6378324 122.756666,13.4233346 122.83,13.174 C122.903334,12.9246654 122.94,12.6460015 122.94,12.338 C122.94,12.0299985 122.903334,11.7495013 122.83,11.4965 C122.756666,11.2434987 122.652167,11.0253343 122.5165,10.842 C122.380833,10.6586657 122.217668,10.5175005 122.027,10.4185 C121.836332,10.3194995 121.627334,10.27 121.4,10.27 C121.172666,10.27 120.963668,10.3194995 120.773,10.4185 C120.582332,10.5175005 120.419167,10.6586657 120.2835,10.842 C120.147833,11.0253343 120.043334,11.2434987 119.97,11.4965 C119.896666,11.7495013 119.86,12.0299985 119.86,12.338 Z M125.481,9.654 L126.394,9.654 L126.394,12.921 C126.394,13.4270025 126.472833,13.7918322 126.6305,14.0155 C126.788167,14.2391678 127.042998,14.351 127.395,14.351 C127.673668,14.351 127.919332,14.2795007 128.132,14.1365 C128.344668,13.9934993 128.579332,13.7643349 128.836,13.449 L128.836,9.654 L129.738,9.654 L129.738,15 L128.99,15 L128.913,14.164 L128.88,14.164 C128.630665,14.4573348 128.368501,14.6919991 128.0935,14.868 C127.818499,15.0440009 127.494002,15.132 127.12,15.132 C126.547997,15.132 126.131835,14.9560018 125.8715,14.604 C125.611165,14.2519982 125.481,13.7313368 125.481,13.042 L125.481,9.654 Z M7.825,23.654 L8.738,23.654 L8.738,26.921 C8.738,27.4270025 8.81683255,27.7918322 8.9745,28.0155 C9.13216745,28.2391678 9.38699824,28.351 9.739,28.351 C10.0176681,28.351 10.2633323,28.2795007 10.476,28.1365 C10.6886677,27.9934993 10.923332,27.7643349 11.18,27.449 L11.18,23.654 L12.082,23.654 L12.082,29 L11.334,29 L11.257,28.164 L11.224,28.164 C10.9746654,28.4573348 10.7125014,28.6919991 10.4375,28.868 C10.1624986,29.0440009 9.83800187,29.132 9.464,29.132 C8.89199714,29.132 8.47583464,28.9560018 8.2155,28.604 C7.95516537,28.2519982 7.825,27.7313368 7.825,27.042 L7.825,23.654 Z M14.161,23.654 L14.909,23.654 L14.986,24.424 L15.019,24.424 C15.2756679,24.167332 15.5451653,23.9528342 15.8275,23.7805 C16.1098347,23.6081658 16.4379981,23.522 16.812,23.522 C17.3766695,23.522 17.7891654,23.6979982 18.0495,24.05 C18.3098346,24.4020018 18.44,24.9226632 18.44,25.612 L18.44,29 L17.538,29 L17.538,25.733 C17.538,25.2269975 17.4573341,24.8621678 17.296,24.6385 C17.1346659,24.4148322 16.8780018,24.303 16.526,24.303 C16.2473319,24.303 16.0016677,24.372666 15.789,24.512 C15.5763323,24.651334 15.3343347,24.8566653 15.063,25.128 L15.063,29 L14.161,29 L14.161,23.654 Z M20.068,26.338 C20.068,25.9053312 20.132166,25.5148351 20.2605,25.1665 C20.388834,24.8181649 20.5593323,24.5230012 20.772,24.281 C20.9846677,24.0389988 21.2303319,23.8520007 21.509,23.72 C21.7876681,23.5879993 22.0809985,23.522 22.389,23.522 C22.6970015,23.522 22.9646655,23.5769994 23.192,23.687 C23.4193345,23.7970005 23.6503322,23.9473324 23.885,24.138 L23.841,23.225 L23.841,21.168 L24.754,21.168 L24.754,29 L24.006,29 L23.929,28.373 L23.896,28.373 C23.6833323,28.5783344 23.4395014,28.7561659 23.1645,28.9065 C22.8894986,29.0568341 22.5943349,29.132 22.279,29.132 C21.60433,29.132 21.0671687,28.8900024 20.6675,28.406 C20.2678313,27.9219976 20.068,27.2326711 20.068,26.338 Z M21.003,26.327 C21.003,26.9723366 21.1313321,27.4746649 21.388,27.834 C21.6446679,28.1933351 22.0076643,28.373 22.477,28.373 C22.7263346,28.373 22.9609989,28.3125006 23.181,28.1915 C23.4010011,28.0704994 23.6209989,27.8853346 23.841,27.636 L23.841,24.842 C23.6136655,24.6366656 23.395501,24.4918338 23.1865,24.4075 C22.977499,24.3231662 22.7630011,24.281 22.543,24.281 C22.3303323,24.281 22.1305009,24.3304995 21.9435,24.4295 C21.7564991,24.5285005 21.593334,24.6678324 21.454,24.8475 C21.314666,25.0271676 21.2046671,25.2416654 21.124,25.491 C21.0433329,25.7403346 21.003,26.0189985 21.003,26.327 Z M26.437,26.338 C26.437,25.8979978 26.5048327,25.5038351 26.6405,25.1555 C26.7761673,24.8071649 26.9558322,24.5120012 27.1795,24.27 C27.4031678,24.0279988 27.6579986,23.842834 27.944,23.7145 C28.2300014,23.586166 28.5269985,23.522 28.835,23.522 C29.172335,23.522 29.474832,23.5806661 29.7425,23.698 C30.010168,23.8153339 30.2338324,23.9839989 30.4135,24.204 C30.5931676,24.4240011 30.7306662,24.6879985 30.826,24.996 C30.9213338,25.3040015 30.969,25.6486648 30.969,26.03 C30.969,26.228001 30.9580001,26.3929993 30.936,26.525 L27.328,26.525 C27.3646669,27.1043362 27.5424984,27.562665 27.8615,27.9 C28.1805016,28.237335 28.5966641,28.406 29.11,28.406 C29.366668,28.406 29.6031656,28.3675004 29.8195,28.2905 C30.0358344,28.2134996 30.242999,28.1126673 30.441,27.988 L30.76,28.582 C30.5253322,28.7286674 30.2650014,28.8569994 29.979,28.967 C29.6929986,29.0770006 29.3666685,29.132 29,29.132 C28.6406649,29.132 28.3051682,29.067834 27.9935,28.9395 C27.6818318,28.811166 27.4105012,28.6278345 27.1795,28.3895 C26.9484988,28.1511655 26.7670007,27.8596684 26.635,27.515 C26.5029993,27.1703316 26.437,26.7780022 26.437,26.338 Z M30.177,25.931 C30.177,25.3809973 30.0615012,24.9611681 29.8305,24.6715 C29.5994988,24.3818319 29.2750021,24.237 28.857,24.237 C28.6663324,24.237 28.4848342,24.2754996 28.3125,24.3525 C28.1401658,24.4295004 27.984334,24.5394993 27.845,24.6825 C27.705666,24.8255007 27.5901671,25.001499 27.4985,25.2105 C27.4068329,25.419501 27.3463335,25.6596653 27.317,25.931 L30.177,25.931 Z M32.564,23.654 L33.312,23.654 L33.389,24.622 L33.422,24.622 C33.6053342,24.284665 33.8271654,24.017001 34.0875,23.819 C34.3478346,23.620999 34.6319985,23.522 34.94,23.522 C35.1526677,23.522 35.3433325,23.5586663 35.512,23.632 L35.336,24.424 C35.2479996,24.3946665 35.1673337,24.3726667 35.094,24.358 C35.0206663,24.3433333 34.9290005,24.336 34.819,24.336 C34.5916655,24.336 34.3551679,24.4276657 34.1095,24.611 C33.8638321,24.7943342 33.6493342,25.1133311 33.466,25.568 L33.466,29 L32.564,29 L32.564,23.654 Z M36.403,27.79 C36.6376678,27.9806676 36.8778321,28.1346661 37.1235,28.252 C37.3691679,28.3693339 37.6533317,28.428 37.976,28.428 C38.3280018,28.428 38.5919991,28.3473341 38.768,28.186 C38.9440009,28.0246659 39.032,27.8266678 39.032,27.592 C39.032,27.452666 38.9953337,27.3316672 38.922,27.229 C38.8486663,27.1263328 38.7551672,27.0365004 38.6415,26.9595 C38.5278328,26.8824996 38.3976674,26.814667 38.251,26.756 L37.811,26.58 C37.6203324,26.5139997 37.4296676,26.4388338 37.239,26.3545 C37.0483324,26.2701662 36.8778341,26.1675006 36.7275,26.0465 C36.5771659,25.9254994 36.4543338,25.7843341 36.359,25.623 C36.2636662,25.4616659 36.216,25.2673345 36.216,25.04 C36.216,24.8273323 36.2581662,24.6275009 36.3425,24.4405 C36.4268338,24.2534991 36.5478325,24.0921673 36.7055,23.9565 C36.8631675,23.8208327 37.0556655,23.7145004 37.283,23.6375 C37.5103345,23.5604996 37.7669986,23.522 38.053,23.522 C38.390335,23.522 38.7001653,23.5806661 38.9825,23.698 C39.2648347,23.8153339 39.5086656,23.9583325 39.714,24.127 L39.285,24.699 C39.1016657,24.559666 38.911001,24.4460004 38.713,24.358 C38.514999,24.2699996 38.2986678,24.226 38.064,24.226 C37.726665,24.226 37.4791675,24.3029992 37.3215,24.457 C37.1638325,24.6110008 37.085,24.7906656 37.085,24.996 C37.085,25.1206673 37.1179997,25.2288329 37.184,25.3205 C37.2500003,25.4121671 37.3379994,25.492833 37.448,25.5625 C37.5580006,25.632167 37.6844993,25.6944997 37.8275,25.7495 C37.9705007,25.8045003 38.1189992,25.861333 38.273,25.92 C38.4636676,25.9933337 38.6561657,26.0703329 38.8505,26.151 C39.0448343,26.2316671 39.2189992,26.3324994 39.373,26.4535 C39.5270008,26.5745006 39.6534995,26.7229991 39.7525,26.899 C39.8515005,27.0750009 39.901,27.2876654 39.901,27.537 C39.901,27.7570011 39.8588338,27.9623324 39.7745,28.153 C39.6901662,28.3436676 39.5655008,28.5123326 39.4005,28.659 C39.2354992,28.8056674 39.0301679,28.9211662 38.7845,29.0055 C38.5388321,29.0898338 38.2583349,29.132 37.943,29.132 C37.5616648,29.132 37.1986684,29.062334 36.854,28.923 C36.5093316,28.783666 36.2086679,28.6076677 35.952,28.395 L36.403,27.79 Z M41.584,24.391 L40.792,24.391 L40.792,23.709 L41.628,23.654 L41.738,22.158 L42.497,22.158 L42.497,23.654 L43.938,23.654 L43.938,24.391 L42.497,24.391 L42.497,27.361 C42.497,27.6910017 42.5574994,27.9458324 42.6785,28.1255 C42.7995006,28.3051676 43.0139985,28.395 43.322,28.395 C43.4173338,28.395 43.5199995,28.3803335 43.63,28.351 C43.7400005,28.3216665 43.8389996,28.2886669 43.927,28.252 L44.103,28.934 C43.9563326,28.9853336 43.7968342,29.0311665 43.6245,29.0715 C43.4521658,29.1118335 43.2816675,29.132 43.113,29.132 C42.8269986,29.132 42.5868343,29.0880004 42.3925,29 C42.1981657,28.9119996 42.0405006,28.7910008 41.9195,28.637 C41.7984994,28.4829992 41.7123336,28.2960011 41.661,28.076 C41.6096664,27.8559989 41.584,27.6140013 41.584,27.35 L41.584,24.391 Z M44.961,27.614 C44.961,27.0273304 45.223164,26.5781682 45.7475,26.2665 C46.271836,25.9548318 47.1059943,25.7366673 48.25,25.612 C48.25,25.4433325 48.2335002,25.2783341 48.2005,25.117 C48.1674998,24.9556659 48.1088338,24.8126673 48.0245,24.688 C47.9401662,24.5633327 47.828334,24.4625004 47.689,24.3855 C47.549666,24.3084996 47.3700011,24.27 47.15,24.27 C46.8346651,24.27 46.543168,24.3286661 46.2755,24.446 C46.007832,24.5633339 45.7676677,24.6953326 45.555,24.842 L45.192,24.215 C45.4413346,24.0536659 45.7456649,23.8978341 46.105,23.7475 C46.4643351,23.5971659 46.8603312,23.522 47.293,23.522 C47.9456699,23.522 48.4186652,23.7218313 48.712,24.1215 C49.0053348,24.5211687 49.152,25.0546633 49.152,25.722 L49.152,29 L48.404,29 L48.327,28.362 L48.305,28.362 C48.048332,28.5746677 47.7715015,28.7561659 47.4745,28.9065 C47.1774985,29.0568341 46.8640017,29.132 46.534,29.132 C46.0793311,29.132 45.7035015,29.0000013 45.4065,28.736 C45.1094985,28.4719987 44.961,28.0980024 44.961,27.614 Z M45.852,27.548 C45.852,27.8560015 45.9418324,28.0759993 46.1215,28.208 C46.3011676,28.3400007 46.5229987,28.406 46.787,28.406 C47.0436679,28.406 47.2874988,28.3455006 47.5185,28.2245 C47.7495012,28.1034994 47.993332,27.9256678 48.25,27.691 L48.25,26.206 C47.8026644,26.264667 47.4250015,26.3343329 47.117,26.415 C46.8089985,26.4956671 46.5615009,26.5909994 46.3745,26.701 C46.1874991,26.8110005 46.0536671,26.9374993 45.973,27.0805 C45.8923329,27.2235007 45.852,27.3793325 45.852,27.548 Z M51.132,23.654 L51.88,23.654 L51.957,24.424 L51.99,24.424 C52.246668,24.167332 52.5161653,23.9528342 52.7985,23.7805 C53.0808347,23.6081658 53.4089981,23.522 53.783,23.522 C54.3476695,23.522 54.7601654,23.6979982 55.0205,24.05 C55.2808346,24.4020018 55.411,24.9226632 55.411,25.612 L55.411,29 L54.509,29 L54.509,25.733 C54.509,25.2269975 54.4283341,24.8621678 54.267,24.6385 C54.1056659,24.4148322 53.8490018,24.303 53.497,24.303 C53.2183319,24.303 52.9726677,24.372666 52.76,24.512 C52.5473323,24.651334 52.3053347,24.8566653 52.034,25.128 L52.034,29 L51.132,29 L51.132,23.654 Z M57.039,26.338 C57.039,25.9053312 57.103166,25.5148351 57.2315,25.1665 C57.359834,24.8181649 57.5303323,24.5230012 57.743,24.281 C57.9556677,24.0389988 58.2013319,23.8520007 58.48,23.72 C58.7586681,23.5879993 59.0519985,23.522 59.36,23.522 C59.6680015,23.522 59.9356655,23.5769994 60.163,23.687 C60.3903345,23.7970005 60.6213322,23.9473324 60.856,24.138 L60.812,23.225 L60.812,21.168 L61.725,21.168 L61.725,29 L60.977,29 L60.9,28.373 L60.867,28.373 C60.6543323,28.5783344 60.4105014,28.7561659 60.1355,28.9065 C59.8604986,29.0568341 59.5653349,29.132 59.25,29.132 C58.57533,29.132 58.0381687,28.8900024 57.6385,28.406 C57.2388313,27.9219976 57.039,27.2326711 57.039,26.338 Z M57.974,26.327 C57.974,26.9723366 58.1023321,27.4746649 58.359,27.834 C58.615668,28.1933351 58.9786643,28.373 59.448,28.373 C59.6973346,28.373 59.9319989,28.3125006 60.152,28.1915 C60.3720011,28.0704994 60.5919989,27.8853346 60.812,27.636 L60.812,24.842 C60.5846655,24.6366656 60.366501,24.4918338 60.1575,24.4075 C59.948499,24.3231662 59.7340011,24.281 59.514,24.281 C59.3013323,24.281 59.1015009,24.3304995 58.9145,24.4295 C58.7274991,24.5285005 58.564334,24.6678324 58.425,24.8475 C58.285666,25.0271676 58.1756671,25.2416654 58.095,25.491 C58.0143329,25.7403346 57.974,26.0189985 57.974,26.327 Z M66.686,29.902 C66.686,30.1880014 66.8234986,30.4153325 67.0985,30.584 C67.3735014,30.7526675 67.7529976,30.837 68.237,30.837 C68.493668,30.837 68.726499,30.8058336 68.9355,30.7435 C69.144501,30.6811664 69.3223326,30.6005005 69.469,30.5015 C69.6156674,30.4024995 69.7293329,30.2870007 69.81,30.155 C69.8906671,30.0229993 69.931,29.887334 69.931,29.748 C69.931,29.4986654 69.8393343,29.3263338 69.656,29.231 C69.4726658,29.1356662 69.2050018,29.088 68.853,29.088 L67.929,29.088 C67.8263328,29.088 67.7145006,29.0825001 67.5935,29.0715 C67.4724994,29.0604999 67.3533339,29.0366668 67.236,29 C67.0453324,29.139334 66.9060004,29.2859992 66.818,29.44 C66.7299996,29.5940008 66.686,29.7479992 66.686,29.902 Z M65.894,30.023 C65.894,29.7956655 65.963666,29.5793344 66.103,29.374 C66.242334,29.1686656 66.4329988,28.9816675 66.675,28.813 L66.675,28.769 C66.5429993,28.6883329 66.4311671,28.5765007 66.3395,28.4335 C66.2478329,28.2904993 66.202,28.1126677 66.202,27.9 C66.202,27.6726655 66.2643327,27.4746675 66.389,27.306 C66.5136673,27.1373325 66.645666,27.0053338 66.785,26.91 L66.785,26.866 C66.6089991,26.7193326 66.4495007,26.5231679 66.3065,26.2775 C66.1634993,26.0318321 66.092,25.7476683 66.092,25.425 C66.092,25.1316652 66.1451661,24.8676678 66.2515,24.633 C66.3578339,24.3983322 66.5026658,24.1985008 66.686,24.0335 C66.8693343,23.8684992 67.0838321,23.7420004 67.3295,23.654 C67.5751679,23.5659996 67.8336653,23.522 68.105,23.522 C68.2516674,23.522 68.389166,23.5348332 68.5175,23.5605 C68.645834,23.5861668 68.7613328,23.6173332 68.864,23.654 L70.723,23.654 L70.723,24.347 L69.623,24.347 C69.7476673,24.4716673 69.8521662,24.6293324 69.9365,24.82 C70.0208338,25.0106676 70.063,25.2196655 70.063,25.447 C70.063,25.7330014 70.0116672,25.9914988 69.909,26.2225 C69.8063328,26.4535012 69.6670009,26.6478325 69.491,26.8055 C69.3149991,26.9631675 69.1078345,27.0859996 68.8695,27.174 C68.6311655,27.2620004 68.3763347,27.306 68.105,27.306 C67.9729993,27.306 67.837334,27.2895002 67.698,27.2565 C67.558666,27.2234998 67.4266673,27.177667 67.302,27.119 C67.2066662,27.1996671 67.1260003,27.2894995 67.06,27.3885 C66.9939997,27.4875005 66.961,27.6103326 66.961,27.757 C66.961,27.9256675 67.0269993,28.0649995 67.159,28.175 C67.2910007,28.2850005 67.5403315,28.34 67.907,28.34 L68.941,28.34 C69.5643365,28.34 70.0318318,28.4408323 70.3435,28.6425 C70.6551682,28.8441677 70.811,29.1686644 70.811,29.616 C70.811,29.8653346 70.7486673,30.1018322 70.624,30.3255 C70.4993327,30.5491678 70.3196678,30.7453325 70.085,30.914 C69.8503322,31.0826675 69.5661683,31.2164995 69.2325,31.3155 C68.8988317,31.4145005 68.5230021,31.464 68.105,31.464 C67.7749984,31.464 67.4743347,31.4328336 67.203,31.3705 C66.9316653,31.3081664 66.6988343,31.2146673 66.5045,31.09 C66.3101657,30.9653327 66.1598339,30.8150009 66.0535,30.639 C65.9471661,30.4629991 65.894,30.2576678 65.894,30.023 Z M68.105,26.701 C68.2590008,26.701 68.4038327,26.671667 68.5395,26.613 C68.6751673,26.554333 68.7961661,26.4700005 68.9025,26.36 C69.0088339,26.2499995 69.091333,26.1161675 69.15,25.9585 C69.208667,25.8008325 69.238,25.623001 69.238,25.425 C69.238,25.028998 69.1280011,24.7228344 68.908,24.5065 C68.6879989,24.2901656 68.4203349,24.182 68.105,24.182 C67.7896651,24.182 67.5220011,24.2901656 67.302,24.5065 C67.0819989,24.7228344 66.972,25.028998 66.972,25.425 C66.972,25.623001 67.001333,25.8008325 67.06,25.9585 C67.118667,26.1161675 67.2011661,26.2499995 67.3075,26.36 C67.4138339,26.4700005 67.5348327,26.554333 67.6705,26.613 C67.8061673,26.671667 67.9509992,26.701 68.105,26.701 Z M71.57,26.338 C71.57,25.8906644 71.6378327,25.4928351 71.7735,25.1445 C71.9091673,24.7961649 72.0906655,24.5010012 72.318,24.259 C72.5453345,24.0169988 72.8074985,23.8336673 73.1045,23.709 C73.4015015,23.5843327 73.7149984,23.522 74.045,23.522 C74.3750017,23.522 74.6884985,23.5843327 74.9855,23.709 C75.2825015,23.8336673 75.5446655,24.0169988 75.772,24.259 C75.9993345,24.5010012 76.1808327,24.7961649 76.3165,25.1445 C76.4521673,25.4928351 76.52,25.8906644 76.52,26.338 C76.52,26.7780022 76.4521673,27.1721649 76.3165,27.5205 C76.1808327,27.8688351 75.9993345,28.1621655 75.772,28.4005 C75.5446655,28.6388345 75.2825015,28.8203327 74.9855,28.945 C74.6884985,29.0696673 74.3750017,29.132 74.045,29.132 C73.7149984,29.132 73.4015015,29.0696673 73.1045,28.945 C72.8074985,28.8203327 72.5453345,28.6388345 72.318,28.4005 C72.0906655,28.1621655 71.9091673,27.8688351 71.7735,27.5205 C71.6378327,27.1721649 71.57,26.7780022 71.57,26.338 Z M72.505,26.338 C72.505,26.6460015 72.5416663,26.9246654 72.615,27.174 C72.6883337,27.4233346 72.7928327,27.6378324 72.9285,27.8175 C73.0641673,27.9971676 73.2273324,28.1364995 73.418,28.2355 C73.6086676,28.3345005 73.8176655,28.384 74.045,28.384 C74.2723345,28.384 74.4813324,28.3345005 74.672,28.2355 C74.8626676,28.1364995 75.0258327,27.9971676 75.1615,27.8175 C75.2971673,27.6378324 75.4016663,27.4233346 75.475,27.174 C75.5483337,26.9246654 75.585,26.6460015 75.585,26.338 C75.585,26.0299985 75.5483337,25.7495013 75.475,25.4965 C75.4016663,25.2434987 75.2971673,25.0253342 75.1615,24.842 C75.0258327,24.6586657 74.8626676,24.5175005 74.672,24.4185 C74.4813324,24.3194995 74.2723345,24.27 74.045,24.27 C73.8176655,24.27 73.6086676,24.3194995 73.418,24.4185 C73.2273324,24.5175005 73.0641673,24.6586657 72.9285,24.842 C72.7928327,25.0253342 72.6883337,25.2434987 72.615,25.4965 C72.5416663,25.7495013 72.505,26.0299985 72.505,26.338 Z M77.389,23.654 L78.324,23.654 L79.336,26.69 C79.4166671,26.9540013 79.4991662,27.2179987 79.5835,27.482 C79.6678338,27.7460013 79.7503329,28.006332 79.831,28.263 L79.875,28.263 C79.9556671,28.006332 80.0363329,27.7460013 80.117,27.482 L80.359,26.69 L81.371,23.654 L82.262,23.654 L80.37,29 L79.314,29 L77.389,23.654 Z M83.131,26.338 C83.131,25.8979978 83.1988327,25.5038351 83.3345,25.1555 C83.4701673,24.8071649 83.6498322,24.5120012 83.8735,24.27 C84.0971678,24.0279988 84.3519986,23.842834 84.638,23.7145 C84.9240014,23.586166 85.2209985,23.522 85.529,23.522 C85.866335,23.522 86.168832,23.5806661 86.4365,23.698 C86.704168,23.8153339 86.9278324,23.9839989 87.1075,24.204 C87.2871676,24.4240011 87.4246662,24.6879985 87.52,24.996 C87.6153338,25.3040015 87.663,25.6486648 87.663,26.03 C87.663,26.228001 87.6520001,26.3929993 87.63,26.525 L84.022,26.525 C84.0586669,27.1043362 84.2364984,27.562665 84.5555,27.9 C84.8745016,28.237335 85.2906641,28.406 85.804,28.406 C86.0606679,28.406 86.2971656,28.3675004 86.5135,28.2905 C86.7298344,28.2134996 86.936999,28.1126673 87.135,27.988 L87.454,28.582 C87.2193322,28.7286674 86.9590014,28.8569994 86.673,28.967 C86.3869986,29.0770006 86.0606685,29.132 85.694,29.132 C85.3346649,29.132 84.9991682,29.067834 84.6875,28.9395 C84.3758318,28.811166 84.1045012,28.6278345 83.8735,28.3895 C83.6424988,28.1511655 83.4610007,27.8596684 83.329,27.515 C83.1969993,27.1703316 83.131,26.7780022 83.131,26.338 Z M86.871,25.931 C86.871,25.3809973 86.7555012,24.9611681 86.5245,24.6715 C86.2934988,24.3818319 85.9690021,24.237 85.551,24.237 C85.3603324,24.237 85.1788342,24.2754996 85.0065,24.3525 C84.8341658,24.4295004 84.678334,24.5394993 84.539,24.6825 C84.399666,24.8255007 84.2841671,25.001499 84.1925,25.2105 C84.1008329,25.419501 84.0403335,25.6596653 84.011,25.931 L86.871,25.931 Z M89.258,23.654 L90.006,23.654 L90.083,24.622 L90.116,24.622 C90.2993343,24.284665 90.5211654,24.017001 90.7815,23.819 C91.0418346,23.620999 91.3259985,23.522 91.634,23.522 C91.8466677,23.522 92.0373325,23.5586663 92.206,23.632 L92.03,24.424 C91.9419996,24.3946665 91.8613337,24.3726667 91.788,24.358 C91.7146663,24.3433333 91.6230006,24.336 91.513,24.336 C91.2856655,24.336 91.0491679,24.4276657 90.8035,24.611 C90.5578321,24.7943342 90.3433343,25.1133311 90.16,25.568 L90.16,29 L89.258,29 L89.258,23.654 Z M93.35,23.654 L94.098,23.654 L94.175,24.424 L94.208,24.424 C94.4646679,24.167332 94.7341653,23.9528342 95.0165,23.7805 C95.2988347,23.6081658 95.6269981,23.522 96.001,23.522 C96.5656695,23.522 96.9781654,23.6979982 97.2385,24.05 C97.4988346,24.4020018 97.629,24.9226632 97.629,25.612 L97.629,29 L96.727,29 L96.727,25.733 C96.727,25.2269975 96.6463341,24.8621678 96.485,24.6385 C96.3236659,24.4148322 96.0670018,24.303 95.715,24.303 C95.4363319,24.303 95.1906677,24.372666 94.978,24.512 C94.7653323,24.651334 94.5233347,24.8566653 94.252,25.128 L94.252,29 L93.35,29 L93.35,23.654 Z M99.642,23.654 L100.39,23.654 L100.467,24.424 L100.5,24.424 C100.734668,24.167332 100.989499,23.9528342 101.2645,23.7805 C101.539501,23.6081658 101.838332,23.522 102.161,23.522 C102.571669,23.522 102.892499,23.6118324 103.1235,23.7915 C103.354501,23.9711676 103.524999,24.2223317 103.635,24.545 C103.913668,24.2369985 104.194165,23.9895009 104.4765,23.8025 C104.758835,23.6154991 105.064998,23.522 105.395,23.522 C105.945003,23.522 106.353832,23.6979982 106.6215,24.05 C106.889168,24.4020018 107.023,24.9226632 107.023,25.612 L107.023,29 L106.121,29 L106.121,25.733 C106.121,25.2269975 106.040334,24.8621678 105.879,24.6385 C105.717666,24.4148322 105.468335,24.303 105.131,24.303 C104.727665,24.303 104.280336,24.5779972 103.789,25.128 L103.789,29 L102.887,29 L102.887,25.733 C102.887,25.2269975 102.806334,24.8621678 102.645,24.6385 C102.483666,24.4148322 102.230668,24.303 101.886,24.303 C101.482665,24.303 101.035336,24.5779972 100.544,25.128 L100.544,29 L99.642,29 L99.642,23.654 Z M108.64,26.338 C108.64,25.8979978 108.707833,25.5038351 108.8435,25.1555 C108.979167,24.8071649 109.158832,24.5120012 109.3825,24.27 C109.606168,24.0279988 109.860999,23.842834 110.147,23.7145 C110.433001,23.586166 110.729998,23.522 111.038,23.522 C111.375335,23.522 111.677832,23.5806661 111.9455,23.698 C112.213168,23.8153339 112.436832,23.9839989 112.6165,24.204 C112.796168,24.4240011 112.933666,24.6879985 113.029,24.996 C113.124334,25.3040015 113.172,25.6486648 113.172,26.03 C113.172,26.228001 113.161,26.3929993 113.139,26.525 L109.531,26.525 C109.567667,27.1043362 109.745498,27.562665 110.0645,27.9 C110.383502,28.237335 110.799664,28.406 111.313,28.406 C111.569668,28.406 111.806166,28.3675004 112.0225,28.2905 C112.238834,28.2134996 112.445999,28.1126673 112.644,27.988 L112.963,28.582 C112.728332,28.7286674 112.468001,28.8569994 112.182,28.967 C111.895999,29.0770006 111.569669,29.132 111.203,29.132 C110.843665,29.132 110.508168,29.067834 110.1965,28.9395 C109.884832,28.811166 109.613501,28.6278345 109.3825,28.3895 C109.151499,28.1511655 108.970001,27.8596684 108.838,27.515 C108.705999,27.1703316 108.64,26.7780022 108.64,26.338 Z M112.38,25.931 C112.38,25.3809973 112.264501,24.9611681 112.0335,24.6715 C111.802499,24.3818319 111.478002,24.237 111.06,24.237 C110.869332,24.237 110.687834,24.2754996 110.5155,24.3525 C110.343166,24.4295004 110.187334,24.5394993 110.048,24.6825 C109.908666,24.8255007 109.793167,25.001499 109.7015,25.2105 C109.609833,25.419501 109.549333,25.6596653 109.52,25.931 L112.38,25.931 Z M114.767,23.654 L115.515,23.654 L115.592,24.424 L115.625,24.424 C115.881668,24.167332 116.151165,23.9528342 116.4335,23.7805 C116.715835,23.6081658 117.043998,23.522 117.418,23.522 C117.982669,23.522 118.395165,23.6979982 118.6555,24.05 C118.915835,24.4020018 119.046,24.9226632 119.046,25.612 L119.046,29 L118.144,29 L118.144,25.733 C118.144,25.2269975 118.063334,24.8621678 117.902,24.6385 C117.740666,24.4148322 117.484002,24.303 117.132,24.303 C116.853332,24.303 116.607668,24.372666 116.395,24.512 C116.182332,24.651334 115.940335,24.8566653 115.669,25.128 L115.669,29 L114.767,29 L114.767,23.654 Z M121.213,24.391 L120.421,24.391 L120.421,23.709 L121.257,23.654 L121.367,22.158 L122.126,22.158 L122.126,23.654 L123.567,23.654 L123.567,24.391 L122.126,24.391 L122.126,27.361 C122.126,27.6910017 122.186499,27.9458324 122.3075,28.1255 C122.428501,28.3051676 122.642998,28.395 122.951,28.395 C123.046334,28.395 123.148999,28.3803335 123.259,28.351 C123.369001,28.3216665 123.468,28.2886669 123.556,28.252 L123.732,28.934 C123.585333,28.9853336 123.425834,29.0311665 123.2535,29.0715 C123.081166,29.1118335 122.910668,29.132 122.742,29.132 C122.455999,29.132 122.215834,29.0880004 122.0215,29 C121.827166,28.9119996 121.669501,28.7910008 121.5485,28.637 C121.427499,28.4829992 121.341334,28.2960011 121.29,28.076 C121.238666,27.8559989 121.213,27.6140013 121.213,27.35 L121.213,24.391 Z M129.958,21.905 C129.759999,21.8169996 129.558334,21.773 129.353,21.773 C128.854331,21.773 128.605,22.1176632 128.605,22.807 L128.605,23.654 L129.738,23.654 L129.738,24.391 L128.605,24.391 L128.605,29 L127.703,29 L127.703,24.391 L126.977,24.391 L126.977,23.709 L127.703,23.654 L127.703,22.807 C127.703,22.2569972 127.829499,21.8243349 128.0825,21.509 C128.335501,21.1936651 128.729664,21.036 129.265,21.036 C129.433668,21.036 129.593166,21.0524998 129.7435,21.0855 C129.893834,21.1185002 130.031333,21.1606664 130.156,21.212 L129.958,21.905 Z M131.498,22.554 C131.321999,22.554 131.173501,22.4990006 131.0525,22.389 C130.931499,22.2789995 130.871,22.1396675 130.871,21.971 C130.871,21.7949991 130.931499,21.6538339 131.0525,21.5475 C131.173501,21.4411661 131.321999,21.388 131.498,21.388 C131.674001,21.388 131.822499,21.4411661 131.9435,21.5475 C132.064501,21.6538339 132.125,21.7949991 132.125,21.971 C132.125,22.1396675 132.064501,22.2789995 131.9435,22.389 C131.822499,22.4990006 131.674001,22.554 131.498,22.554 Z M131.036,23.654 L131.938,23.654 L131.938,29 L131.036,29 L131.036,23.654 Z M134.017,23.654 L134.765,23.654 L134.842,24.424 L134.875,24.424 C135.131668,24.167332 135.401165,23.9528342 135.6835,23.7805 C135.965835,23.6081658 136.293998,23.522 136.668,23.522 C137.232669,23.522 137.645165,23.6979982 137.9055,24.05 C138.165835,24.4020018 138.296,24.9226632 138.296,25.612 L138.296,29 L137.394,29 L137.394,25.733 C137.394,25.2269975 137.313334,24.8621678 137.152,24.6385 C136.990666,24.4148322 136.734002,24.303 136.382,24.303 C136.103332,24.303 135.857668,24.372666 135.645,24.512 C135.432332,24.651334 135.190335,24.8566653 134.919,25.128 L134.919,29 L134.017,29 L134.017,23.654 Z M140.045,27.614 C140.045,27.0273304 140.307164,26.5781682 140.8315,26.2665 C141.355836,25.9548318 142.189994,25.7366673 143.334,25.612 C143.334,25.4433325 143.3175,25.2783341 143.2845,25.117 C143.2515,24.9556659 143.192834,24.8126673 143.1085,24.688 C143.024166,24.5633327 142.912334,24.4625004 142.773,24.3855 C142.633666,24.3084996 142.454001,24.27 142.234,24.27 C141.918665,24.27 141.627168,24.3286661 141.3595,24.446 C141.091832,24.5633339 140.851668,24.6953326 140.639,24.842 L140.276,24.215 C140.525335,24.0536659 140.829665,23.8978341 141.189,23.7475 C141.548335,23.5971659 141.944331,23.522 142.377,23.522 C143.02967,23.522 143.502665,23.7218313 143.796,24.1215 C144.089335,24.5211687 144.236,25.0546633 144.236,25.722 L144.236,29 L143.488,29 L143.411,28.362 L143.389,28.362 C143.132332,28.5746677 142.855501,28.7561659 142.5585,28.9065 C142.261499,29.0568341 141.948002,29.132 141.618,29.132 C141.163331,29.132 140.787501,29.0000013 140.4905,28.736 C140.193499,28.4719987 140.045,28.0980024 140.045,27.614 Z M140.936,27.548 C140.936,27.8560015 141.025832,28.0759993 141.2055,28.208 C141.385168,28.3400007 141.606999,28.406 141.871,28.406 C142.127668,28.406 142.371499,28.3455006 142.6025,28.2245 C142.833501,28.1034994 143.077332,27.9256678 143.334,27.691 L143.334,26.206 C142.886664,26.264667 142.509002,26.3343329 142.201,26.415 C141.892998,26.4956671 141.645501,26.5909994 141.4585,26.701 C141.271499,26.8110005 141.137667,26.9374993 141.057,27.0805 C140.976333,27.2235007 140.936,27.3793325 140.936,27.548 Z M146.216,23.654 L146.964,23.654 L147.041,24.424 L147.074,24.424 C147.330668,24.167332 147.600165,23.9528342 147.8825,23.7805 C148.164835,23.6081658 148.492998,23.522 148.867,23.522 C149.431669,23.522 149.844165,23.6979982 150.1045,24.05 C150.364835,24.4020018 150.495,24.9226632 150.495,25.612 L150.495,29 L149.593,29 L149.593,25.733 C149.593,25.2269975 149.512334,24.8621678 149.351,24.6385 C149.189666,24.4148322 148.933002,24.303 148.581,24.303 C148.302332,24.303 148.056668,24.372666 147.844,24.512 C147.631332,24.651334 147.389335,24.8566653 147.118,25.128 L147.118,29 L146.216,29 L146.216,23.654 Z M152.112,26.338 C152.112,25.8906644 152.181666,25.4928351 152.321,25.1445 C152.460334,24.7961649 152.647332,24.5010012 152.882,24.259 C153.116668,24.0169988 153.389832,23.8336673 153.7015,23.709 C154.013168,23.5843327 154.341332,23.522 154.686,23.522 C155.038002,23.522 155.340499,23.586166 155.5935,23.7145 C155.846501,23.842834 156.064666,23.9913325 156.248,24.16 L155.797,24.743 C155.635666,24.603666 155.468834,24.4900004 155.2965,24.402 C155.124166,24.3139996 154.931668,24.27 154.719,24.27 C154.476999,24.27 154.253334,24.3194995 154.048,24.4185 C153.842666,24.5175005 153.666667,24.6586658 153.52,24.842 C153.373333,25.0253343 153.257834,25.2434987 153.1735,25.4965 C153.089166,25.7495013 153.047,26.0299985 153.047,26.338 C153.047,26.6460015 153.087333,26.9246654 153.168,27.174 C153.248667,27.4233346 153.360499,27.6378324 153.5035,27.8175 C153.646501,27.9971676 153.820666,28.1364995 154.026,28.2355 C154.231334,28.3345005 154.454999,28.384 154.697,28.384 C154.953668,28.384 155.186499,28.3308339 155.3955,28.2245 C155.604501,28.1181661 155.789666,27.9916674 155.951,27.845 L156.358,28.439 C156.115999,28.6516677 155.846501,28.8203327 155.5495,28.945 C155.252499,29.0696673 154.942668,29.132 154.62,29.132 C154.267998,29.132 153.938002,29.0696673 153.63,28.945 C153.321998,28.8203327 153.056168,28.6388345 152.8325,28.4005 C152.608832,28.1621655 152.432834,27.8688351 152.3045,27.5205 C152.176166,27.1721649 152.112,26.7780022 152.112,26.338 Z M157.172,26.338 C157.172,25.8979978 157.239833,25.5038351 157.3755,25.1555 C157.511167,24.8071649 157.690832,24.5120012 157.9145,24.27 C158.138168,24.0279988 158.392999,23.842834 158.679,23.7145 C158.965001,23.586166 159.261998,23.522 159.57,23.522 C159.907335,23.522 160.209832,23.5806661 160.4775,23.698 C160.745168,23.8153339 160.968832,23.9839989 161.1485,24.204 C161.328168,24.4240011 161.465666,24.6879985 161.561,24.996 C161.656334,25.3040015 161.704,25.6486648 161.704,26.03 C161.704,26.228001 161.693,26.3929993 161.671,26.525 L158.063,26.525 C158.099667,27.1043362 158.277498,27.562665 158.5965,27.9 C158.915502,28.237335 159.331664,28.406 159.845,28.406 C160.101668,28.406 160.338166,28.3675004 160.5545,28.2905 C160.770834,28.2134996 160.977999,28.1126673 161.176,27.988 L161.495,28.582 C161.260332,28.7286674 161.000001,28.8569994 160.714,28.967 C160.427999,29.0770006 160.101668,29.132 159.735,29.132 C159.375665,29.132 159.040168,29.067834 158.7285,28.9395 C158.416832,28.811166 158.145501,28.6278345 157.9145,28.3895 C157.683499,28.1511655 157.502001,27.8596684 157.37,27.515 C157.237999,27.1703316 157.172,26.7780022 157.172,26.338 Z M160.912,25.931 C160.912,25.3809973 160.796501,24.9611681 160.5655,24.6715 C160.334499,24.3818319 160.010002,24.237 159.592,24.237 C159.401332,24.237 159.219834,24.2754996 159.0475,24.3525 C158.875166,24.4295004 158.719334,24.5394993 158.58,24.6825 C158.440666,24.8255007 158.325167,25.001499 158.2335,25.2105 C158.141833,25.419501 158.081333,25.6596653 158.052,25.931 L160.912,25.931 Z M163.112,28.45 C163.112,28.2373323 163.176166,28.066834 163.3045,27.9385 C163.432834,27.810166 163.588666,27.746 163.772,27.746 C163.948001,27.746 164.100166,27.810166 164.2285,27.9385 C164.356834,28.066834 164.421,28.2373323 164.421,28.45 C164.421,28.648001 164.356834,28.811166 164.2285,28.9395 C164.100166,29.067834 163.948001,29.132 163.772,29.132 C163.588666,29.132 163.432834,29.067834 163.3045,28.9395 C163.176166,28.811166 163.112,28.648001 163.112,28.45 Z" id="Visualizationstohelpyouunderstandgovernmentfinance." fill="#4F4F4F" fill-rule="nonzero"></path>
    </g>
</svg>