<?xml version="1.0" encoding="utf-8"?>
<!-- Generator: Adobe Illustrator 22.1.0, SVG Export Plug-In . SVG Version: 6.00 Build 0)  -->
<svg version="1.1" id="Layer_1" xmlns="http://www.w3.org/2000/svg" xmlns:xlink="http://www.w3.org/1999/xlink" x="0px" y="0px"
	 viewBox="0 0 284.4 10.4" style="enable-background:new 0 0 284.4 10.4;" xml:space="preserve">
<style type="text/css">
	.st0{fill:#4F4F4F;}
</style>
<g id="DL_x2F_Tagline">
	<path id="Visualizationstohelpyouunderstandgovernmentfinance." class="st0" d="M0,0.7h1l1.2,3.9c0.1,0.4,0.2,0.8,0.3,1.2
		C2.6,6.2,2.7,6.6,2.8,7h0C3,6.6,3.1,6.2,3.2,5.8c0.1-0.4,0.2-0.8,0.3-1.2l1.2-3.9h0.9L3.4,8H2.3L0,0.7z M7.3,1.5
		c-0.2,0-0.3-0.1-0.4-0.2C6.7,1.2,6.6,1.1,6.6,0.9c0-0.2,0.1-0.3,0.2-0.4c0.1-0.1,0.3-0.2,0.4-0.2s0.3,0.1,0.4,0.2
		c0.1,0.1,0.2,0.2,0.2,0.4c0,0.2-0.1,0.3-0.2,0.4C7.6,1.5,7.4,1.5,7.3,1.5z M6.8,2.6h0.9V8H6.8V2.6z M9.6,6.8
		c0.2,0.2,0.5,0.3,0.7,0.5c0.2,0.1,0.5,0.2,0.9,0.2c0.4,0,0.6-0.1,0.8-0.2s0.3-0.4,0.3-0.6c0-0.1,0-0.3-0.1-0.4S12,6,11.9,5.9
		c-0.1-0.1-0.2-0.1-0.4-0.2l-0.4-0.2c-0.2-0.1-0.4-0.1-0.6-0.2C10.3,5.2,10.1,5.1,10,5C9.8,4.9,9.7,4.7,9.6,4.6
		C9.5,4.4,9.5,4.2,9.5,4c0-0.2,0-0.4,0.1-0.6c0.1-0.2,0.2-0.3,0.4-0.5s0.4-0.2,0.6-0.3c0.2-0.1,0.5-0.1,0.8-0.1
		c0.3,0,0.6,0.1,0.9,0.2c0.3,0.1,0.5,0.3,0.7,0.4l-0.4,0.6c-0.2-0.1-0.4-0.3-0.6-0.3c-0.2-0.1-0.4-0.1-0.6-0.1
		c-0.3,0-0.6,0.1-0.7,0.2c-0.2,0.2-0.2,0.3-0.2,0.5c0,0.1,0,0.2,0.1,0.3c0.1,0.1,0.2,0.2,0.3,0.2s0.2,0.1,0.4,0.2
		c0.1,0.1,0.3,0.1,0.4,0.2C11.7,5,11.9,5,12.1,5.1s0.4,0.2,0.5,0.3c0.2,0.1,0.3,0.3,0.4,0.4c0.1,0.2,0.1,0.4,0.1,0.6
		c0,0.2,0,0.4-0.1,0.6c-0.1,0.2-0.2,0.4-0.4,0.5C12.5,7.8,12.3,7.9,12,8c-0.2,0.1-0.5,0.1-0.8,0.1c-0.4,0-0.7-0.1-1.1-0.2
		C9.8,7.7,9.5,7.6,9.2,7.4L9.6,6.8z M14.6,2.6h0.9v3.3c0,0.5,0.1,0.9,0.2,1.1c0.2,0.2,0.4,0.3,0.8,0.3c0.3,0,0.5-0.1,0.7-0.2
		C17.5,7,17.7,6.7,18,6.4V2.6h0.9V8h-0.7L18,7.1h0c-0.2,0.3-0.5,0.5-0.8,0.7s-0.6,0.3-1,0.3c-0.6,0-1-0.2-1.2-0.5S14.6,6.7,14.6,6
		V2.6z M20.7,6.6c0-0.6,0.3-1,0.8-1.3C22,4.9,22.8,4.7,24,4.6c0-0.2,0-0.3,0-0.5c0-0.2-0.1-0.3-0.2-0.4c-0.1-0.1-0.2-0.2-0.3-0.3
		c-0.1-0.1-0.3-0.1-0.5-0.1c-0.3,0-0.6,0.1-0.9,0.2c-0.3,0.1-0.5,0.2-0.7,0.4l-0.4-0.6c0.2-0.2,0.6-0.3,0.9-0.5
		c0.4-0.2,0.8-0.2,1.2-0.2c0.7,0,1.1,0.2,1.4,0.6c0.3,0.4,0.4,0.9,0.4,1.6V8h-0.7L24,7.3h0c-0.3,0.2-0.5,0.4-0.8,0.5
		s-0.6,0.2-0.9,0.2c-0.5,0-0.8-0.1-1.1-0.4C20.8,7.4,20.7,7.1,20.7,6.6z M21.6,6.5c0,0.3,0.1,0.5,0.3,0.7c0.2,0.1,0.4,0.2,0.7,0.2
		c0.3,0,0.5-0.1,0.7-0.2c0.2-0.1,0.5-0.3,0.7-0.5V5.2c-0.4,0.1-0.8,0.1-1.1,0.2s-0.6,0.2-0.7,0.3S21.8,5.9,21.7,6S21.6,6.3,21.6,6.5
		z M26.8,0.1h0.9V7c0,0.1,0,0.2,0.1,0.3c0.1,0.1,0.1,0.1,0.2,0.1h0.1c0,0,0.1,0,0.1,0L28.3,8c-0.1,0-0.1,0.1-0.2,0.1
		c-0.1,0-0.2,0-0.3,0c-0.3,0-0.6-0.1-0.7-0.3c-0.1-0.2-0.2-0.5-0.2-0.9V0.1z M30.4,1.5c-0.2,0-0.3-0.1-0.4-0.2
		c-0.1-0.1-0.2-0.2-0.2-0.4c0-0.2,0.1-0.3,0.2-0.4c0.1-0.1,0.3-0.2,0.4-0.2c0.2,0,0.3,0.1,0.4,0.2C30.9,0.6,31,0.8,31,0.9
		c0,0.2-0.1,0.3-0.2,0.4C30.7,1.5,30.6,1.5,30.4,1.5z M29.9,2.6h0.9V8h-0.9V2.6z M32.3,7.5l2.8-4.1h-2.5V2.6h3.7v0.5l-2.8,4.1h2.9V8
		h-4V7.5z M37.3,6.6c0-0.6,0.3-1,0.8-1.3c0.5-0.3,1.4-0.5,2.5-0.7c0-0.2,0-0.3,0-0.5c0-0.2-0.1-0.3-0.2-0.4
		c-0.1-0.1-0.2-0.2-0.3-0.3c-0.1-0.1-0.3-0.1-0.5-0.1c-0.3,0-0.6,0.1-0.9,0.2c-0.3,0.1-0.5,0.2-0.7,0.4l-0.4-0.6
		c0.2-0.2,0.6-0.3,0.9-0.5c0.4-0.2,0.8-0.2,1.2-0.2c0.7,0,1.1,0.2,1.4,0.6s0.4,0.9,0.4,1.6V8h-0.7l-0.1-0.6h0
		c-0.3,0.2-0.5,0.4-0.8,0.5s-0.6,0.2-0.9,0.2c-0.5,0-0.8-0.1-1.1-0.4S37.3,7.1,37.3,6.6z M38.2,6.5c0,0.3,0.1,0.5,0.3,0.7
		s0.4,0.2,0.7,0.2c0.3,0,0.5-0.1,0.7-0.2c0.2-0.1,0.5-0.3,0.7-0.5V5.2c-0.4,0.1-0.8,0.1-1.1,0.2c-0.3,0.1-0.6,0.2-0.7,0.3
		c-0.2,0.1-0.3,0.2-0.4,0.4C38.3,6.2,38.2,6.3,38.2,6.5z M43.7,3.4h-0.8V2.7l0.8-0.1l0.1-1.5h0.8v1.5H46v0.7h-1.4v3
		c0,0.3,0.1,0.6,0.2,0.8c0.1,0.2,0.3,0.3,0.6,0.3c0.1,0,0.2,0,0.3,0c0.1,0,0.2-0.1,0.3-0.1l0.2,0.7C46,7.9,45.9,8,45.7,8
		c-0.2,0-0.3,0.1-0.5,0.1c-0.3,0-0.5,0-0.7-0.1S44.1,7.8,44,7.6c-0.1-0.2-0.2-0.3-0.3-0.6s-0.1-0.5-0.1-0.7V3.4z M48,1.5
		c-0.2,0-0.3-0.1-0.4-0.2c-0.1-0.1-0.2-0.2-0.2-0.4c0-0.2,0.1-0.3,0.2-0.4c0.1-0.1,0.3-0.2,0.4-0.2s0.3,0.1,0.4,0.2
		c0.1,0.1,0.2,0.2,0.2,0.4c0,0.2-0.1,0.3-0.2,0.4C48.3,1.5,48.1,1.5,48,1.5z M47.5,2.6h0.9V8h-0.9V2.6z M50.1,5.3
		c0-0.4,0.1-0.8,0.2-1.2c0.1-0.3,0.3-0.6,0.5-0.9c0.2-0.2,0.5-0.4,0.8-0.5s0.6-0.2,0.9-0.2s0.6,0.1,0.9,0.2c0.3,0.1,0.6,0.3,0.8,0.5
		c0.2,0.2,0.4,0.5,0.5,0.9C55,4.5,55,4.9,55,5.3c0,0.4-0.1,0.8-0.2,1.2c-0.1,0.3-0.3,0.6-0.5,0.9c-0.2,0.2-0.5,0.4-0.8,0.5
		c-0.3,0.1-0.6,0.2-0.9,0.2S51.9,8,51.6,7.9s-0.6-0.3-0.8-0.5c-0.2-0.2-0.4-0.5-0.5-0.9S50.1,5.7,50.1,5.3z M51,5.3
		c0,0.3,0,0.6,0.1,0.8s0.2,0.5,0.3,0.6c0.1,0.2,0.3,0.3,0.5,0.4c0.2,0.1,0.4,0.1,0.6,0.1s0.4,0,0.6-0.1c0.2-0.1,0.4-0.2,0.5-0.4
		s0.2-0.4,0.3-0.6s0.1-0.5,0.1-0.8s0-0.6-0.1-0.8S53.8,4,53.7,3.8s-0.3-0.3-0.5-0.4c-0.2-0.1-0.4-0.1-0.6-0.1s-0.4,0-0.6,0.1
		c-0.2,0.1-0.4,0.2-0.5,0.4c-0.1,0.2-0.2,0.4-0.3,0.7S51,5,51,5.3z M56.7,2.6h0.7l0.1,0.8h0c0.3-0.3,0.5-0.5,0.8-0.6
		c0.3-0.2,0.6-0.3,1-0.3c0.6,0,1,0.2,1.2,0.5C60.9,3.4,61,3.9,61,4.6V8h-0.9V4.7c0-0.5-0.1-0.9-0.2-1.1c-0.2-0.2-0.4-0.3-0.8-0.3
		c-0.3,0-0.5,0.1-0.7,0.2c-0.2,0.1-0.5,0.3-0.7,0.6V8h-0.9V2.6z M62.9,6.8c0.2,0.2,0.5,0.3,0.7,0.5c0.2,0.1,0.5,0.2,0.9,0.2
		c0.4,0,0.6-0.1,0.8-0.2c0.2-0.2,0.3-0.4,0.3-0.6c0-0.1,0-0.3-0.1-0.4S65.2,6,65.1,5.9c-0.1-0.1-0.2-0.1-0.4-0.2l-0.4-0.2
		c-0.2-0.1-0.4-0.1-0.6-0.2c-0.2-0.1-0.4-0.2-0.5-0.3s-0.3-0.3-0.4-0.4S62.7,4.2,62.7,4c0-0.2,0-0.4,0.1-0.6
		c0.1-0.2,0.2-0.3,0.4-0.5c0.2-0.1,0.4-0.2,0.6-0.3c0.2-0.1,0.5-0.1,0.8-0.1c0.3,0,0.6,0.1,0.9,0.2c0.3,0.1,0.5,0.3,0.7,0.4
		l-0.4,0.6c-0.2-0.1-0.4-0.3-0.6-0.3c-0.2-0.1-0.4-0.1-0.6-0.1c-0.3,0-0.6,0.1-0.7,0.2S63.5,3.8,63.5,4c0,0.1,0,0.2,0.1,0.3
		c0.1,0.1,0.2,0.2,0.3,0.2s0.2,0.1,0.4,0.2c0.1,0.1,0.3,0.1,0.4,0.2C64.9,5,65.1,5,65.3,5.1s0.4,0.2,0.5,0.3
		c0.2,0.1,0.3,0.3,0.4,0.4s0.1,0.4,0.1,0.6c0,0.2,0,0.4-0.1,0.6c-0.1,0.2-0.2,0.4-0.4,0.5c-0.2,0.1-0.4,0.3-0.6,0.3
		c-0.2,0.1-0.5,0.1-0.8,0.1c-0.4,0-0.7-0.1-1.1-0.2c-0.3-0.1-0.6-0.3-0.9-0.5L62.9,6.8z M70.5,3.4h-0.8V2.7l0.8-0.1l0.1-1.5h0.8v1.5
		h1.4v0.7h-1.4v3c0,0.3,0.1,0.6,0.2,0.8s0.3,0.3,0.6,0.3c0.1,0,0.2,0,0.3,0c0.1,0,0.2-0.1,0.3-0.1l0.2,0.7C72.9,7.9,72.8,8,72.6,8
		c-0.2,0-0.3,0.1-0.5,0.1c-0.3,0-0.5,0-0.7-0.1c-0.2-0.1-0.4-0.2-0.5-0.4c-0.1-0.2-0.2-0.3-0.3-0.6c-0.1-0.2-0.1-0.5-0.1-0.7V3.4z
		 M73.9,5.3c0-0.4,0.1-0.8,0.2-1.2c0.1-0.3,0.3-0.6,0.5-0.9c0.2-0.2,0.5-0.4,0.8-0.5s0.6-0.2,0.9-0.2s0.6,0.1,0.9,0.2
		c0.3,0.1,0.6,0.3,0.8,0.5c0.2,0.2,0.4,0.5,0.5,0.9c0.1,0.3,0.2,0.7,0.2,1.2c0,0.4-0.1,0.8-0.2,1.2s-0.3,0.6-0.5,0.9
		c-0.2,0.2-0.5,0.4-0.8,0.5C77,8,76.7,8.1,76.4,8.1S75.7,8,75.4,7.9s-0.6-0.3-0.8-0.5s-0.4-0.5-0.5-0.9S73.9,5.7,73.9,5.3z
		 M74.8,5.3c0,0.3,0,0.6,0.1,0.8s0.2,0.5,0.3,0.6s0.3,0.3,0.5,0.4c0.2,0.1,0.4,0.1,0.6,0.1s0.4,0,0.6-0.1c0.2-0.1,0.4-0.2,0.5-0.4
		s0.2-0.4,0.3-0.6s0.1-0.5,0.1-0.8s0-0.6-0.1-0.8S77.6,4,77.5,3.8S77.2,3.5,77,3.4s-0.4-0.1-0.6-0.1s-0.4,0-0.6,0.1
		s-0.4,0.2-0.5,0.4S75,4.2,74.9,4.5S74.8,5,74.8,5.3z M83,0.1h0.9v2.1l0,1.1c0.3-0.2,0.5-0.4,0.8-0.6c0.3-0.2,0.6-0.3,1-0.3
		c0.6,0,1,0.2,1.2,0.5c0.3,0.4,0.4,0.9,0.4,1.6V8h-0.9V4.7c0-0.5-0.1-0.9-0.2-1.1c-0.2-0.2-0.4-0.3-0.8-0.3c-0.3,0-0.5,0.1-0.7,0.2
		c-0.2,0.1-0.5,0.3-0.7,0.6V8H83V0.1z M88.9,5.3c0-0.4,0.1-0.8,0.2-1.2c0.1-0.3,0.3-0.6,0.5-0.9c0.2-0.2,0.5-0.4,0.8-0.6
		s0.6-0.2,0.9-0.2c0.3,0,0.6,0.1,0.9,0.2s0.5,0.3,0.7,0.5C93,3.4,93.2,3.7,93.3,4c0.1,0.3,0.1,0.7,0.1,1c0,0.2,0,0.4,0,0.5h-3.6
		c0,0.6,0.2,1,0.5,1.4c0.3,0.3,0.7,0.5,1.2,0.5c0.3,0,0.5,0,0.7-0.1c0.2-0.1,0.4-0.2,0.6-0.3l0.3,0.6c-0.2,0.1-0.5,0.3-0.8,0.4
		c-0.3,0.1-0.6,0.2-1,0.2c-0.4,0-0.7-0.1-1-0.2s-0.6-0.3-0.8-0.6c-0.2-0.2-0.4-0.5-0.5-0.9C88.9,6.1,88.9,5.7,88.9,5.3z M92.6,4.9
		c0-0.6-0.1-1-0.3-1.3s-0.6-0.4-1-0.4c-0.2,0-0.4,0-0.5,0.1c-0.2,0.1-0.3,0.2-0.5,0.3S90,4,89.9,4.2c-0.1,0.2-0.2,0.4-0.2,0.7H92.6z
		 M95,0.1h0.9V7c0,0.1,0,0.2,0.1,0.3c0.1,0.1,0.1,0.1,0.2,0.1h0.1c0,0,0.1,0,0.1,0L96.5,8c-0.1,0-0.1,0.1-0.2,0.1
		c-0.1,0-0.2,0-0.3,0c-0.3,0-0.6-0.1-0.7-0.3C95.1,7.6,95,7.3,95,6.9V0.1z M99,8.4v1.8h-0.9V2.6h0.7l0.1,0.6h0
		c0.2-0.2,0.5-0.4,0.8-0.5s0.6-0.2,0.9-0.2c0.3,0,0.6,0.1,0.9,0.2c0.3,0.1,0.5,0.3,0.7,0.6c0.2,0.2,0.3,0.5,0.4,0.9
		c0.1,0.3,0.1,0.7,0.1,1.1c0,0.5-0.1,0.9-0.2,1.2c-0.1,0.4-0.3,0.7-0.5,0.9s-0.5,0.4-0.7,0.6s-0.6,0.2-0.9,0.2
		c-0.2,0-0.5-0.1-0.7-0.2c-0.2-0.1-0.5-0.3-0.7-0.5L99,8.4z M99,6.8c0.2,0.2,0.5,0.4,0.7,0.4s0.4,0.1,0.6,0.1c0.2,0,0.4,0,0.6-0.1
		c0.2-0.1,0.3-0.2,0.5-0.4c0.1-0.2,0.2-0.4,0.3-0.7c0.1-0.3,0.1-0.6,0.1-0.9c0-0.3,0-0.6-0.1-0.8c-0.1-0.2-0.1-0.4-0.2-0.6
		c-0.1-0.2-0.3-0.3-0.4-0.4c-0.2-0.1-0.4-0.1-0.6-0.1c-0.2,0-0.5,0.1-0.7,0.2S99.2,3.7,99,4V6.8z M106.6,9.4l0.2,0
		c0.1,0,0.1,0,0.2,0c0.3,0,0.6-0.1,0.8-0.3c0.2-0.2,0.3-0.5,0.5-0.8l0.1-0.4l-2.1-5.4h0.9l1.1,3c0.1,0.2,0.2,0.5,0.3,0.7
		c0.1,0.3,0.2,0.5,0.3,0.8h0c0.1-0.2,0.2-0.5,0.2-0.8c0.1-0.3,0.1-0.5,0.2-0.7l1-3h0.9l-2,5.8c-0.1,0.3-0.2,0.5-0.3,0.7
		c-0.1,0.2-0.3,0.4-0.4,0.6s-0.3,0.3-0.6,0.4c-0.2,0.1-0.4,0.1-0.7,0.1c-0.1,0-0.2,0-0.3,0c-0.1,0-0.2,0-0.3-0.1L106.6,9.4z
		 M111.9,5.3c0-0.4,0.1-0.8,0.2-1.2c0.1-0.3,0.3-0.6,0.5-0.9c0.2-0.2,0.5-0.4,0.8-0.5c0.3-0.1,0.6-0.2,0.9-0.2s0.6,0.1,0.9,0.2
		c0.3,0.1,0.6,0.3,0.8,0.5c0.2,0.2,0.4,0.5,0.5,0.9c0.1,0.3,0.2,0.7,0.2,1.2c0,0.4-0.1,0.8-0.2,1.2s-0.3,0.6-0.5,0.9
		s-0.5,0.4-0.8,0.5c-0.3,0.1-0.6,0.2-0.9,0.2s-0.6-0.1-0.9-0.2c-0.3-0.1-0.6-0.3-0.8-0.5s-0.4-0.5-0.5-0.9
		C112,6.1,111.9,5.7,111.9,5.3z M112.9,5.3c0,0.3,0,0.6,0.1,0.8s0.2,0.5,0.3,0.6s0.3,0.3,0.5,0.4c0.2,0.1,0.4,0.1,0.6,0.1
		s0.4,0,0.6-0.1c0.2-0.1,0.4-0.2,0.5-0.4c0.1-0.2,0.2-0.4,0.3-0.6s0.1-0.5,0.1-0.8s0-0.6-0.1-0.8s-0.2-0.5-0.3-0.7
		c-0.1-0.2-0.3-0.3-0.5-0.4s-0.4-0.1-0.6-0.1s-0.4,0-0.6,0.1c-0.2,0.1-0.4,0.2-0.5,0.4S113,4.2,113,4.5S112.9,5,112.9,5.3z
		 M118.5,2.6h0.9v3.3c0,0.5,0.1,0.9,0.2,1.1c0.2,0.2,0.4,0.3,0.8,0.3c0.3,0,0.5-0.1,0.7-0.2c0.2-0.1,0.4-0.4,0.7-0.7V2.6h0.9V8H122
		l-0.1-0.8h0c-0.2,0.3-0.5,0.5-0.8,0.7s-0.6,0.3-1,0.3c-0.6,0-1-0.2-1.2-0.5s-0.4-0.9-0.4-1.6V2.6z M127.2,2.6h0.9v3.3
		c0,0.5,0.1,0.9,0.2,1.1c0.2,0.2,0.4,0.3,0.8,0.3c0.3,0,0.5-0.1,0.7-0.2c0.2-0.1,0.4-0.4,0.7-0.7V2.6h0.9V8h-0.7l-0.1-0.8h0
		c-0.2,0.3-0.5,0.5-0.8,0.7c-0.3,0.2-0.6,0.3-1,0.3c-0.6,0-1-0.2-1.2-0.5c-0.3-0.4-0.4-0.9-0.4-1.6V2.6z M133.6,2.6h0.7l0.1,0.8h0
		c0.3-0.3,0.5-0.5,0.8-0.6s0.6-0.3,1-0.3c0.6,0,1,0.2,1.2,0.5c0.3,0.4,0.4,0.9,0.4,1.6V8h-0.9V4.7c0-0.5-0.1-0.9-0.2-1.1
		c-0.2-0.2-0.4-0.3-0.8-0.3c-0.3,0-0.5,0.1-0.7,0.2c-0.2,0.1-0.5,0.3-0.7,0.6V8h-0.9V2.6z M139.5,5.3c0-0.4,0.1-0.8,0.2-1.2
		c0.1-0.3,0.3-0.6,0.5-0.9c0.2-0.2,0.5-0.4,0.7-0.6c0.3-0.1,0.6-0.2,0.9-0.2s0.6,0.1,0.8,0.2c0.2,0.1,0.5,0.3,0.7,0.5l0-0.9V0.1h0.9
		V8h-0.7l-0.1-0.6h0c-0.2,0.2-0.5,0.4-0.7,0.5c-0.3,0.2-0.6,0.2-0.9,0.2c-0.7,0-1.2-0.2-1.6-0.7S139.5,6.2,139.5,5.3z M140.4,5.3
		c0,0.6,0.1,1.1,0.4,1.5c0.3,0.4,0.6,0.5,1.1,0.5c0.2,0,0.5-0.1,0.7-0.2c0.2-0.1,0.4-0.3,0.7-0.6V3.8c-0.2-0.2-0.4-0.4-0.7-0.4
		c-0.2-0.1-0.4-0.1-0.6-0.1c-0.2,0-0.4,0-0.6,0.1s-0.4,0.2-0.5,0.4c-0.1,0.2-0.2,0.4-0.3,0.6C140.5,4.7,140.4,5,140.4,5.3z
		 M145.8,5.3c0-0.4,0.1-0.8,0.2-1.2s0.3-0.6,0.5-0.9c0.2-0.2,0.5-0.4,0.8-0.6c0.3-0.1,0.6-0.2,0.9-0.2c0.3,0,0.6,0.1,0.9,0.2
		s0.5,0.3,0.7,0.5s0.3,0.5,0.4,0.8c0.1,0.3,0.1,0.7,0.1,1c0,0.2,0,0.4,0,0.5h-3.6c0,0.6,0.2,1,0.5,1.4c0.3,0.3,0.7,0.5,1.2,0.5
		c0.3,0,0.5,0,0.7-0.1c0.2-0.1,0.4-0.2,0.6-0.3l0.3,0.6c-0.2,0.1-0.5,0.3-0.8,0.4c-0.3,0.1-0.6,0.2-1,0.2c-0.4,0-0.7-0.1-1-0.2
		c-0.3-0.1-0.6-0.3-0.8-0.6c-0.2-0.2-0.4-0.5-0.5-0.9S145.8,5.7,145.8,5.3z M149.6,4.9c0-0.6-0.1-1-0.3-1.3c-0.2-0.3-0.6-0.4-1-0.4
		c-0.2,0-0.4,0-0.5,0.1c-0.2,0.1-0.3,0.2-0.5,0.3c-0.1,0.1-0.3,0.3-0.3,0.5c-0.1,0.2-0.2,0.4-0.2,0.7H149.6z M152,2.6h0.7l0.1,1h0
		c0.2-0.3,0.4-0.6,0.7-0.8c0.3-0.2,0.5-0.3,0.9-0.3c0.2,0,0.4,0,0.6,0.1l-0.2,0.8c-0.1,0-0.2-0.1-0.2-0.1c-0.1,0-0.2,0-0.3,0
		c-0.2,0-0.5,0.1-0.7,0.3s-0.5,0.5-0.6,1V8H152V2.6z M155.8,6.8c0.2,0.2,0.5,0.3,0.7,0.5c0.2,0.1,0.5,0.2,0.9,0.2
		c0.4,0,0.6-0.1,0.8-0.2c0.2-0.2,0.3-0.4,0.3-0.6c0-0.1,0-0.3-0.1-0.4s-0.2-0.2-0.3-0.3c-0.1-0.1-0.2-0.1-0.4-0.2l-0.4-0.2
		c-0.2-0.1-0.4-0.1-0.6-0.2c-0.2-0.1-0.4-0.2-0.5-0.3s-0.3-0.3-0.4-0.4s-0.1-0.4-0.1-0.6c0-0.2,0-0.4,0.1-0.6
		c0.1-0.2,0.2-0.3,0.4-0.5c0.2-0.1,0.4-0.2,0.6-0.3c0.2-0.1,0.5-0.1,0.8-0.1c0.3,0,0.6,0.1,0.9,0.2s0.5,0.3,0.7,0.4l-0.4,0.6
		c-0.2-0.1-0.4-0.3-0.6-0.3c-0.2-0.1-0.4-0.1-0.6-0.1c-0.3,0-0.6,0.1-0.7,0.2c-0.2,0.2-0.2,0.3-0.2,0.5c0,0.1,0,0.2,0.1,0.3
		c0.1,0.1,0.2,0.2,0.3,0.2s0.2,0.1,0.4,0.2s0.3,0.1,0.4,0.2c0.2,0.1,0.4,0.2,0.6,0.2s0.4,0.2,0.5,0.3c0.2,0.1,0.3,0.3,0.4,0.4
		s0.1,0.4,0.1,0.6c0,0.2,0,0.4-0.1,0.6c-0.1,0.2-0.2,0.4-0.4,0.5c-0.2,0.1-0.4,0.3-0.6,0.3c-0.2,0.1-0.5,0.1-0.8,0.1
		c-0.4,0-0.7-0.1-1.1-0.2c-0.3-0.1-0.6-0.3-0.9-0.5L155.8,6.8z M161,3.4h-0.8V2.7l0.8-0.1l0.1-1.5h0.8v1.5h1.4v0.7h-1.4v3
		c0,0.3,0.1,0.6,0.2,0.8s0.3,0.3,0.6,0.3c0.1,0,0.2,0,0.3,0c0.1,0,0.2-0.1,0.3-0.1l0.2,0.7C163.4,7.9,163.2,8,163,8
		s-0.3,0.1-0.5,0.1c-0.3,0-0.5,0-0.7-0.1s-0.4-0.2-0.5-0.4c-0.1-0.2-0.2-0.3-0.3-0.6S161,6.6,161,6.3V3.4z M164.4,6.6
		c0-0.6,0.3-1,0.8-1.3c0.5-0.3,1.4-0.5,2.5-0.7c0-0.2,0-0.3,0-0.5c0-0.2-0.1-0.3-0.2-0.4c-0.1-0.1-0.2-0.2-0.3-0.3
		c-0.1-0.1-0.3-0.1-0.5-0.1c-0.3,0-0.6,0.1-0.9,0.2s-0.5,0.2-0.7,0.4l-0.4-0.6c0.2-0.2,0.6-0.3,0.9-0.5c0.4-0.2,0.8-0.2,1.2-0.2
		c0.7,0,1.1,0.2,1.4,0.6s0.4,0.9,0.4,1.6V8h-0.7l-0.1-0.6h0c-0.3,0.2-0.5,0.4-0.8,0.5c-0.3,0.2-0.6,0.2-0.9,0.2
		c-0.5,0-0.8-0.1-1.1-0.4S164.4,7.1,164.4,6.6z M165.3,6.5c0,0.3,0.1,0.5,0.3,0.7c0.2,0.1,0.4,0.2,0.7,0.2c0.3,0,0.5-0.1,0.7-0.2
		c0.2-0.1,0.5-0.3,0.7-0.5V5.2c-0.4,0.1-0.8,0.1-1.1,0.2c-0.3,0.1-0.6,0.2-0.7,0.3s-0.3,0.2-0.4,0.4C165.3,6.2,165.3,6.3,165.3,6.5z
		 M170.5,2.6h0.7l0.1,0.8h0c0.3-0.3,0.5-0.5,0.8-0.6s0.6-0.3,1-0.3c0.6,0,1,0.2,1.2,0.5c0.3,0.4,0.4,0.9,0.4,1.6V8h-0.9V4.7
		c0-0.5-0.1-0.9-0.2-1.1c-0.2-0.2-0.4-0.3-0.8-0.3c-0.3,0-0.5,0.1-0.7,0.2c-0.2,0.1-0.5,0.3-0.7,0.6V8h-0.9V2.6z M176.5,5.3
		c0-0.4,0.1-0.8,0.2-1.2c0.1-0.3,0.3-0.6,0.5-0.9c0.2-0.2,0.5-0.4,0.7-0.6c0.3-0.1,0.6-0.2,0.9-0.2s0.6,0.1,0.8,0.2
		c0.2,0.1,0.5,0.3,0.7,0.5l0-0.9V0.1h0.9V8h-0.7l-0.1-0.6h0c-0.2,0.2-0.5,0.4-0.7,0.5c-0.3,0.2-0.6,0.2-0.9,0.2
		c-0.7,0-1.2-0.2-1.6-0.7C176.7,6.9,176.5,6.2,176.5,5.3z M177.4,5.3c0,0.6,0.1,1.1,0.4,1.5c0.3,0.4,0.6,0.5,1.1,0.5
		c0.2,0,0.5-0.1,0.7-0.2c0.2-0.1,0.4-0.3,0.7-0.6V3.8c-0.2-0.2-0.4-0.4-0.7-0.4c-0.2-0.1-0.4-0.1-0.6-0.1c-0.2,0-0.4,0-0.6,0.1
		c-0.2,0.1-0.4,0.2-0.5,0.4c-0.1,0.2-0.2,0.4-0.3,0.6C177.4,4.7,177.4,5,177.4,5.3z M186.1,8.9c0,0.3,0.1,0.5,0.4,0.7
		c0.3,0.2,0.7,0.3,1.1,0.3c0.3,0,0.5,0,0.7-0.1c0.2-0.1,0.4-0.1,0.5-0.2c0.1-0.1,0.3-0.2,0.3-0.3c0.1-0.1,0.1-0.3,0.1-0.4
		c0-0.2-0.1-0.4-0.3-0.5s-0.5-0.1-0.8-0.1h-0.9c-0.1,0-0.2,0-0.3,0c-0.1,0-0.2,0-0.4-0.1c-0.2,0.1-0.3,0.3-0.4,0.4
		C186.1,8.6,186.1,8.7,186.1,8.9z M185.3,9c0-0.2,0.1-0.4,0.2-0.6c0.1-0.2,0.3-0.4,0.6-0.6v0c-0.1-0.1-0.2-0.2-0.3-0.3
		c-0.1-0.1-0.1-0.3-0.1-0.5c0-0.2,0.1-0.4,0.2-0.6c0.1-0.2,0.3-0.3,0.4-0.4v0c-0.2-0.1-0.3-0.3-0.5-0.6c-0.1-0.2-0.2-0.5-0.2-0.9
		c0-0.3,0.1-0.6,0.2-0.8s0.3-0.4,0.4-0.6c0.2-0.2,0.4-0.3,0.6-0.4c0.2-0.1,0.5-0.1,0.8-0.1c0.1,0,0.3,0,0.4,0c0.1,0,0.2,0.1,0.3,0.1
		h1.9v0.7H189c0.1,0.1,0.2,0.3,0.3,0.5s0.1,0.4,0.1,0.6c0,0.3-0.1,0.5-0.2,0.8s-0.2,0.4-0.4,0.6s-0.4,0.3-0.6,0.4
		c-0.2,0.1-0.5,0.1-0.8,0.1c-0.1,0-0.3,0-0.4,0s-0.3-0.1-0.4-0.1c-0.1,0.1-0.2,0.2-0.2,0.3c-0.1,0.1-0.1,0.2-0.1,0.4
		c0,0.2,0.1,0.3,0.2,0.4s0.4,0.2,0.7,0.2h1c0.6,0,1.1,0.1,1.4,0.3c0.3,0.2,0.5,0.5,0.5,1c0,0.2-0.1,0.5-0.2,0.7
		c-0.1,0.2-0.3,0.4-0.5,0.6c-0.2,0.2-0.5,0.3-0.9,0.4c-0.3,0.1-0.7,0.1-1.1,0.1c-0.3,0-0.6,0-0.9-0.1c-0.3-0.1-0.5-0.2-0.7-0.3
		s-0.3-0.3-0.5-0.5S185.3,9.2,185.3,9z M187.5,5.7c0.2,0,0.3,0,0.4-0.1c0.1-0.1,0.3-0.1,0.4-0.3s0.2-0.2,0.2-0.4s0.1-0.3,0.1-0.5
		c0-0.4-0.1-0.7-0.3-0.9c-0.2-0.2-0.5-0.3-0.8-0.3s-0.6,0.1-0.8,0.3c-0.2,0.2-0.3,0.5-0.3,0.9c0,0.2,0,0.4,0.1,0.5s0.1,0.3,0.2,0.4
		s0.2,0.2,0.4,0.3S187.4,5.7,187.5,5.7z M191,5.3c0-0.4,0.1-0.8,0.2-1.2c0.1-0.3,0.3-0.6,0.5-0.9c0.2-0.2,0.5-0.4,0.8-0.5
		c0.3-0.1,0.6-0.2,0.9-0.2s0.6,0.1,0.9,0.2c0.3,0.1,0.6,0.3,0.8,0.5c0.2,0.2,0.4,0.5,0.5,0.9c0.1,0.3,0.2,0.7,0.2,1.2
		c0,0.4-0.1,0.8-0.2,1.2s-0.3,0.6-0.5,0.9c-0.2,0.2-0.5,0.4-0.8,0.5c-0.3,0.1-0.6,0.2-0.9,0.2s-0.6-0.1-0.9-0.2
		c-0.3-0.1-0.6-0.3-0.8-0.5c-0.2-0.2-0.4-0.5-0.5-0.9S191,5.7,191,5.3z M191.9,5.3c0,0.3,0,0.6,0.1,0.8s0.2,0.5,0.3,0.6
		s0.3,0.3,0.5,0.4c0.2,0.1,0.4,0.1,0.6,0.1c0.2,0,0.4,0,0.6-0.1c0.2-0.1,0.4-0.2,0.5-0.4s0.2-0.4,0.3-0.6s0.1-0.5,0.1-0.8
		s0-0.6-0.1-0.8s-0.2-0.5-0.3-0.7s-0.3-0.3-0.5-0.4s-0.4-0.1-0.6-0.1c-0.2,0-0.4,0-0.6,0.1c-0.2,0.1-0.4,0.2-0.5,0.4
		s-0.2,0.4-0.3,0.7S191.9,5,191.9,5.3z M196.8,2.6h0.9l1,3c0.1,0.3,0.2,0.5,0.2,0.8c0.1,0.3,0.2,0.5,0.2,0.8h0
		c0.1-0.3,0.2-0.5,0.2-0.8l0.2-0.8l1-3h0.9L199.8,8h-1.1L196.8,2.6z M202.5,5.3c0-0.4,0.1-0.8,0.2-1.2c0.1-0.3,0.3-0.6,0.5-0.9
		c0.2-0.2,0.5-0.4,0.8-0.6c0.3-0.1,0.6-0.2,0.9-0.2c0.3,0,0.6,0.1,0.9,0.2s0.5,0.3,0.7,0.5s0.3,0.5,0.4,0.8c0.1,0.3,0.1,0.7,0.1,1
		c0,0.2,0,0.4,0,0.5h-3.6c0,0.6,0.2,1,0.5,1.4c0.3,0.3,0.7,0.5,1.2,0.5c0.3,0,0.5,0,0.7-0.1c0.2-0.1,0.4-0.2,0.6-0.3l0.3,0.6
		c-0.2,0.1-0.5,0.3-0.8,0.4c-0.3,0.1-0.6,0.2-1,0.2c-0.4,0-0.7-0.1-1-0.2c-0.3-0.1-0.6-0.3-0.8-0.6c-0.2-0.2-0.4-0.5-0.5-0.9
		S202.5,5.7,202.5,5.3z M206.3,4.9c0-0.6-0.1-1-0.3-1.3c-0.2-0.3-0.6-0.4-1-0.4c-0.2,0-0.4,0-0.5,0.1c-0.2,0.1-0.3,0.2-0.5,0.3
		c-0.1,0.1-0.3,0.3-0.3,0.5c-0.1,0.2-0.2,0.4-0.2,0.7H206.3z M208.7,2.6h0.7l0.1,1h0c0.2-0.3,0.4-0.6,0.7-0.8
		c0.3-0.2,0.5-0.3,0.9-0.3c0.2,0,0.4,0,0.6,0.1l-0.2,0.8c-0.1,0-0.2-0.1-0.2-0.1c-0.1,0-0.2,0-0.3,0c-0.2,0-0.5,0.1-0.7,0.3
		s-0.5,0.5-0.6,1V8h-0.9V2.6z M212.8,2.6h0.7l0.1,0.8h0c0.3-0.3,0.5-0.5,0.8-0.6s0.6-0.3,1-0.3c0.6,0,1,0.2,1.2,0.5
		c0.3,0.4,0.4,0.9,0.4,1.6V8h-0.9V4.7c0-0.5-0.1-0.9-0.2-1.1c-0.2-0.2-0.4-0.3-0.8-0.3c-0.3,0-0.5,0.1-0.7,0.2
		c-0.2,0.1-0.5,0.3-0.7,0.6V8h-0.9V2.6z M219.1,2.6h0.7l0.1,0.8h0c0.2-0.3,0.5-0.5,0.8-0.6c0.3-0.2,0.6-0.3,0.9-0.3
		c0.4,0,0.7,0.1,1,0.3c0.2,0.2,0.4,0.4,0.5,0.8c0.3-0.3,0.6-0.6,0.8-0.7c0.3-0.2,0.6-0.3,0.9-0.3c0.6,0,1,0.2,1.2,0.5
		c0.3,0.4,0.4,0.9,0.4,1.6V8h-0.9V4.7c0-0.5-0.1-0.9-0.2-1.1c-0.2-0.2-0.4-0.3-0.7-0.3c-0.4,0-0.9,0.3-1.3,0.8V8h-0.9V4.7
		c0-0.5-0.1-0.9-0.2-1.1c-0.2-0.2-0.4-0.3-0.8-0.3c-0.4,0-0.9,0.3-1.3,0.8V8h-0.9V2.6z M228.1,5.3c0-0.4,0.1-0.8,0.2-1.2
		s0.3-0.6,0.5-0.9c0.2-0.2,0.5-0.4,0.8-0.6c0.3-0.1,0.6-0.2,0.9-0.2c0.3,0,0.6,0.1,0.9,0.2s0.5,0.3,0.7,0.5c0.2,0.2,0.3,0.5,0.4,0.8
		c0.1,0.3,0.1,0.7,0.1,1c0,0.2,0,0.4,0,0.5h-3.6c0,0.6,0.2,1,0.5,1.4c0.3,0.3,0.7,0.5,1.2,0.5c0.3,0,0.5,0,0.7-0.1
		c0.2-0.1,0.4-0.2,0.6-0.3l0.3,0.6c-0.2,0.1-0.5,0.3-0.8,0.4c-0.3,0.1-0.6,0.2-1,0.2c-0.4,0-0.7-0.1-1-0.2c-0.3-0.1-0.6-0.3-0.8-0.6
		c-0.2-0.2-0.4-0.5-0.5-0.9S228.1,5.7,228.1,5.3z M231.8,4.9c0-0.6-0.1-1-0.3-1.3s-0.6-0.4-1-0.4c-0.2,0-0.4,0-0.5,0.1
		c-0.2,0.1-0.3,0.2-0.5,0.3c-0.1,0.1-0.3,0.3-0.3,0.5c-0.1,0.2-0.2,0.4-0.2,0.7H231.8z M234.2,2.6h0.7l0.1,0.8h0
		c0.3-0.3,0.5-0.5,0.8-0.6s0.6-0.3,1-0.3c0.6,0,1,0.2,1.2,0.5c0.3,0.4,0.4,0.9,0.4,1.6V8h-0.9V4.7c0-0.5-0.1-0.9-0.2-1.1
		c-0.2-0.2-0.4-0.3-0.8-0.3c-0.3,0-0.5,0.1-0.7,0.2c-0.2,0.1-0.5,0.3-0.7,0.6V8h-0.9V2.6z M240.6,3.4h-0.8V2.7l0.8-0.1l0.1-1.5h0.8
		v1.5h1.4v0.7h-1.4v3c0,0.3,0.1,0.6,0.2,0.8s0.3,0.3,0.6,0.3c0.1,0,0.2,0,0.3,0c0.1,0,0.2-0.1,0.3-0.1l0.2,0.7
		C243,7.9,242.8,8,242.7,8s-0.3,0.1-0.5,0.1c-0.3,0-0.5,0-0.7-0.1s-0.4-0.2-0.5-0.4c-0.1-0.2-0.2-0.3-0.3-0.6s-0.1-0.5-0.1-0.7V3.4z
		 M249.4,0.9c-0.2-0.1-0.4-0.1-0.6-0.1c-0.5,0-0.7,0.3-0.7,1v0.8h1.1v0.7H248V8h-0.9V3.4h-0.7V2.7l0.7-0.1V1.8c0-0.6,0.1-1,0.4-1.3
		c0.3-0.3,0.6-0.5,1.2-0.5c0.2,0,0.3,0,0.5,0c0.2,0,0.3,0.1,0.4,0.1L249.4,0.9z M250.9,1.5c-0.2,0-0.3-0.1-0.4-0.2s-0.2-0.2-0.2-0.4
		c0-0.2,0.1-0.3,0.2-0.4c0.1-0.1,0.3-0.2,0.4-0.2c0.2,0,0.3,0.1,0.4,0.2c0.1,0.1,0.2,0.2,0.2,0.4c0,0.2-0.1,0.3-0.2,0.4
		S251.1,1.5,250.9,1.5z M250.4,2.6h0.9V8h-0.9V2.6z M253.4,2.6h0.7l0.1,0.8h0c0.3-0.3,0.5-0.5,0.8-0.6c0.3-0.2,0.6-0.3,1-0.3
		c0.6,0,1,0.2,1.2,0.5c0.3,0.4,0.4,0.9,0.4,1.6V8h-0.9V4.7c0-0.5-0.1-0.9-0.2-1.1c-0.2-0.2-0.4-0.3-0.8-0.3c-0.3,0-0.5,0.1-0.7,0.2
		c-0.2,0.1-0.5,0.3-0.7,0.6V8h-0.9V2.6z M259.5,6.6c0-0.6,0.3-1,0.8-1.3c0.5-0.3,1.4-0.5,2.5-0.7c0-0.2,0-0.3,0-0.5
		c0-0.2-0.1-0.3-0.2-0.4c-0.1-0.1-0.2-0.2-0.3-0.3c-0.1-0.1-0.3-0.1-0.5-0.1c-0.3,0-0.6,0.1-0.9,0.2c-0.3,0.1-0.5,0.2-0.7,0.4
		l-0.4-0.6c0.2-0.2,0.6-0.3,0.9-0.5c0.4-0.2,0.8-0.2,1.2-0.2c0.7,0,1.1,0.2,1.4,0.6s0.4,0.9,0.4,1.6V8h-0.7l-0.1-0.6h0
		c-0.3,0.2-0.5,0.4-0.8,0.5s-0.6,0.2-0.9,0.2c-0.5,0-0.8-0.1-1.1-0.4S259.5,7.1,259.5,6.6z M260.3,6.5c0,0.3,0.1,0.5,0.3,0.7
		c0.2,0.1,0.4,0.2,0.7,0.2c0.3,0,0.5-0.1,0.7-0.2c0.2-0.1,0.5-0.3,0.7-0.5V5.2c-0.4,0.1-0.8,0.1-1.1,0.2c-0.3,0.1-0.6,0.2-0.7,0.3
		c-0.2,0.1-0.3,0.2-0.4,0.4S260.3,6.3,260.3,6.5z M265.6,2.6h0.7l0.1,0.8h0c0.3-0.3,0.5-0.5,0.8-0.6c0.3-0.2,0.6-0.3,1-0.3
		c0.6,0,1,0.2,1.2,0.5c0.3,0.4,0.4,0.9,0.4,1.6V8H269V4.7c0-0.5-0.1-0.9-0.2-1.1c-0.2-0.2-0.4-0.3-0.8-0.3c-0.3,0-0.5,0.1-0.7,0.2
		c-0.2,0.1-0.5,0.3-0.7,0.6V8h-0.9V2.6z M271.5,5.3c0-0.4,0.1-0.8,0.2-1.2c0.1-0.3,0.3-0.6,0.6-0.9c0.2-0.2,0.5-0.4,0.8-0.5
		s0.6-0.2,1-0.2c0.4,0,0.7,0.1,0.9,0.2c0.3,0.1,0.5,0.3,0.7,0.4l-0.5,0.6c-0.2-0.1-0.3-0.3-0.5-0.3s-0.4-0.1-0.6-0.1
		c-0.2,0-0.5,0-0.7,0.1c-0.2,0.1-0.4,0.2-0.5,0.4s-0.3,0.4-0.3,0.7c-0.1,0.3-0.1,0.5-0.1,0.8s0,0.6,0.1,0.8c0.1,0.2,0.2,0.5,0.3,0.6
		s0.3,0.3,0.5,0.4c0.2,0.1,0.4,0.1,0.7,0.1c0.3,0,0.5-0.1,0.7-0.2c0.2-0.1,0.4-0.2,0.6-0.4l0.4,0.6c-0.2,0.2-0.5,0.4-0.8,0.5
		c-0.3,0.1-0.6,0.2-0.9,0.2c-0.4,0-0.7-0.1-1-0.2c-0.3-0.1-0.6-0.3-0.8-0.5s-0.4-0.5-0.5-0.9S271.5,5.7,271.5,5.3z M276.6,5.3
		c0-0.4,0.1-0.8,0.2-1.2c0.1-0.3,0.3-0.6,0.5-0.9s0.5-0.4,0.8-0.6s0.6-0.2,0.9-0.2c0.3,0,0.6,0.1,0.9,0.2s0.5,0.3,0.7,0.5
		c0.2,0.2,0.3,0.5,0.4,0.8s0.1,0.7,0.1,1c0,0.2,0,0.4,0,0.5h-3.6c0,0.6,0.2,1,0.5,1.4c0.3,0.3,0.7,0.5,1.2,0.5c0.3,0,0.5,0,0.7-0.1
		c0.2-0.1,0.4-0.2,0.6-0.3l0.3,0.6c-0.2,0.1-0.5,0.3-0.8,0.4c-0.3,0.1-0.6,0.2-1,0.2c-0.4,0-0.7-0.1-1-0.2s-0.6-0.3-0.8-0.6
		c-0.2-0.2-0.4-0.5-0.5-0.9C276.6,6.1,276.6,5.7,276.6,5.3z M280.3,4.9c0-0.6-0.1-1-0.3-1.3c-0.2-0.3-0.6-0.4-1-0.4
		c-0.2,0-0.4,0-0.5,0.1c-0.2,0.1-0.3,0.2-0.5,0.3s-0.3,0.3-0.3,0.5c-0.1,0.2-0.2,0.4-0.2,0.7H280.3z M282.5,7.4
		c0-0.2,0.1-0.4,0.2-0.5s0.3-0.2,0.5-0.2c0.2,0,0.3,0.1,0.5,0.2s0.2,0.3,0.2,0.5c0,0.2-0.1,0.4-0.2,0.5s-0.3,0.2-0.5,0.2
		c-0.2,0-0.3-0.1-0.5-0.2S282.5,7.6,282.5,7.4z"/>
</g>
</svg>
