<?xml version="1.0" encoding="UTF-8"?>
<svg width="295px" height="19px" viewBox="0 0 295 19" version="1.1" xmlns="http://www.w3.org/2000/svg" xmlns:xlink="http://www.w3.org/1999/xlink">
    <!-- Generator: Sketch 53.2 (72643) - https://sketchapp.com -->
    <title>hdpi/DL/Tagline</title>
    <desc>Created with Sketch.</desc>
    <g id="DL/Tagline" stroke="none" stroke-width="1" fill="none" fill-rule="evenodd">
        <path d="M5.0885,3.784 L6.0675,3.784 L7.2225,7.678 C7.35450066,8.11066883 7.46999951,8.5103315 7.569,8.877 C7.6680005,9.2436685 7.78716597,9.63966454 7.9265,10.065 L7.9705,10.065 C8.10250066,9.63966454 8.21983282,9.2436685 8.3225,8.877 C8.42516718,8.5103315 8.53883271,8.11066883 8.6635,7.678 L9.8185,3.784 L10.7535,3.784 L8.4655,11 L7.3985,11 L5.0885,3.784 Z M12.3595,4.554 C12.1834991,4.554 12.0350006,4.49900055 11.914,4.389 C11.7929994,4.27899945 11.7325,4.13966751 11.7325,3.971 C11.7325,3.79499912 11.7929994,3.65383386 11.914,3.5475 C12.0350006,3.44116613 12.1834991,3.388 12.3595,3.388 C12.5355009,3.388 12.6839994,3.44116613 12.805,3.5475 C12.9260006,3.65383386 12.9865,3.79499912 12.9865,3.971 C12.9865,4.13966751 12.9260006,4.27899945 12.805,4.389 C12.6839994,4.49900055 12.5355009,4.554 12.3595,4.554 Z M11.8975,5.654 L12.7995,5.654 L12.7995,11 L11.8975,11 L11.8975,5.654 Z M14.7355,9.79 C14.9701678,9.98066762 15.2103321,10.1346661 15.456,10.252 C15.7016679,10.3693339 15.9858317,10.428 16.3085,10.428 C16.6605018,10.428 16.9244991,10.3473341 17.1005,10.186 C17.2765009,10.0246659 17.3645,9.82666784 17.3645,9.592 C17.3645,9.45266597 17.3278337,9.33166718 17.2545,9.229 C17.1811663,9.12633282 17.0876672,9.03650039 16.974,8.9595 C16.8603328,8.88249962 16.7301674,8.81466696 16.5835,8.756 L16.1435,8.58 C15.9528324,8.51399967 15.7621676,8.43883376 15.5715,8.3545 C15.3808324,8.27016624 15.2103341,8.1675006 15.06,8.0465 C14.9096659,7.9254994 14.7868338,7.78433414 14.6915,7.623 C14.5961662,7.46166586 14.5485,7.26733447 14.5485,7.04 C14.5485,6.82733227 14.5906662,6.62750094 14.675,6.4405 C14.7593338,6.25349906 14.8803325,6.09216735 15.038,5.9565 C15.1956675,5.82083266 15.3881655,5.71450039 15.6155,5.6375 C15.8428345,5.56049962 16.0994986,5.522 16.3855,5.522 C16.722835,5.522 17.0326653,5.58066608 17.315,5.698 C17.5973347,5.81533392 17.8411656,5.95833249 18.0465,6.127 L17.6175,6.699 C17.4341658,6.55966597 17.243501,6.44600044 17.0455,6.358 C16.847499,6.26999956 16.6311678,6.226 16.3965,6.226 C16.059165,6.226 15.8116675,6.30299923 15.654,6.457 C15.4963325,6.61100077 15.4175,6.79066564 15.4175,6.996 C15.4175,7.12066729 15.4504997,7.22883288 15.5165,7.3205 C15.5825003,7.41216712 15.6704995,7.49283298 15.7805,7.5625 C15.8905006,7.63216702 16.0169993,7.69449973 16.16,7.7495 C16.3030007,7.80450028 16.4514992,7.86133304 16.6055,7.92 C16.7961676,7.9933337 16.9886657,8.07033293 17.183,8.151 C17.3773343,8.23166707 17.5514992,8.33249939 17.7055,8.4535 C17.8595008,8.57450061 17.9859995,8.72299912 18.085,8.899 C18.1840005,9.07500088 18.2335,9.28766542 18.2335,9.537 C18.2335,9.7570011 18.1913338,9.96233238 18.107,10.153 C18.0226662,10.3436676 17.8980008,10.5123326 17.733,10.659 C17.5679992,10.8056674 17.3626679,10.9211662 17.117,11.0055 C16.8713321,11.0898338 16.5908349,11.132 16.2755,11.132 C15.8941648,11.132 15.5311684,11.062334 15.1865,10.923 C14.8418316,10.783666 14.541168,10.6076677 14.2845,10.395 L14.7355,9.79 Z M19.6855,5.654 L20.5985,5.654 L20.5985,8.921 C20.5985,9.42700253 20.6773325,9.79183221 20.835,10.0155 C20.9926675,10.2391678 21.2474982,10.351 21.5995,10.351 C21.8781681,10.351 22.1238323,10.2795007 22.3365,10.1365 C22.5491677,9.99349929 22.7838321,9.76433491 23.0405,9.449 L23.0405,5.654 L23.9425,5.654 L23.9425,11 L23.1945,11 L23.1175,10.164 L23.0845,10.164 C22.8351654,10.4573348 22.5730014,10.6919991 22.298,10.868 C22.0229986,11.0440009 21.6985019,11.132 21.3245,11.132 C20.7524971,11.132 20.3363346,10.9560018 20.076,10.604 C19.8156654,10.2519982 19.6855,9.73133678 19.6855,9.042 L19.6855,5.654 Z M25.7575,9.614 C25.7575,9.0273304 26.019664,8.57816822 26.544,8.2665 C27.068336,7.95483177 27.9024943,7.73666729 29.0465,7.612 C29.0465,7.44333249 29.0300002,7.27833414 28.997,7.117 C28.9639998,6.95566586 28.9053338,6.81266729 28.821,6.688 C28.7366662,6.56333271 28.624834,6.46250039 28.4855,6.3855 C28.346166,6.30849961 28.1665011,6.27 27.9465,6.27 C27.6311651,6.27 27.339668,6.32866608 27.072,6.446 C26.804332,6.56333392 26.5641677,6.6953326 26.3515,6.842 L25.9885,6.215 C26.2378346,6.05366586 26.5421649,5.89783408 26.9015,5.7475 C27.2608351,5.59716592 27.6568312,5.522 28.0895,5.522 C28.7421699,5.522 29.2151652,5.72183134 29.5085,6.1215 C29.8018348,6.52116867 29.9485,7.05466333 29.9485,7.722 L29.9485,11 L29.2005,11 L29.1235,10.362 L29.1015,10.362 C28.8448321,10.5746677 28.5680015,10.7561659 28.271,10.9065 C27.9739985,11.0568341 27.6605017,11.132 27.3305,11.132 C26.8758311,11.132 26.5000015,11.0000013 26.203,10.736 C25.9059985,10.4719987 25.7575,10.0980024 25.7575,9.614 Z M26.6485,9.548 C26.6485,9.85600154 26.7383324,10.0759993 26.918,10.208 C27.0976676,10.3400007 27.3194987,10.406 27.5835,10.406 C27.840168,10.406 28.0839988,10.3455006 28.315,10.2245 C28.5460012,10.1034994 28.7898321,9.92566784 29.0465,9.691 L29.0465,8.206 C28.5991644,8.26466696 28.2215015,8.33433293 27.9135,8.415 C27.6054985,8.49566707 27.3580009,8.59099945 27.171,8.701 C26.9839991,8.81100055 26.8501671,8.93749928 26.7695,9.0805 C26.6888329,9.22350072 26.6485,9.37933249 26.6485,9.548 Z M31.9285,3.168 L32.8305,3.168 L32.8305,9.988 C32.8305,10.1346674 32.8561664,10.237333 32.9075,10.296 C32.9588336,10.354667 33.0174997,10.384 33.0835,10.384 L33.166,10.384 C33.1916668,10.384 33.2301664,10.3766667 33.2815,10.362 L33.4025,11.044 C33.343833,11.0733335 33.2741671,11.0953333 33.1935,11.11 C33.1128329,11.1246667 33.0101673,11.132 32.8855,11.132 C32.5408316,11.132 32.2951674,11.0293344 32.1485,10.824 C32.0018326,10.6186656 31.9285,10.318002 31.9285,9.922 L31.9285,3.168 Z M35.4705,4.554 C35.2944991,4.554 35.1460006,4.49900055 35.025,4.389 C34.9039994,4.27899945 34.8435,4.13966751 34.8435,3.971 C34.8435,3.79499912 34.9039994,3.65383386 35.025,3.5475 C35.1460006,3.44116613 35.2944991,3.388 35.4705,3.388 C35.6465009,3.388 35.7949994,3.44116613 35.916,3.5475 C36.0370006,3.65383386 36.0975,3.79499912 36.0975,3.971 C36.0975,4.13966751 36.0370006,4.27899945 35.916,4.389 C35.7949994,4.49900055 35.6465009,4.554 35.4705,4.554 Z M35.0085,5.654 L35.9105,5.654 L35.9105,11 L35.0085,11 L35.0085,5.654 Z M37.4285,10.516 L40.2445,6.391 L37.7365,6.391 L37.7365,5.654 L41.3885,5.654 L41.3885,6.138 L38.5725,10.263 L41.4765,10.263 L41.4765,11 L37.4285,11 L37.4285,10.516 Z M42.4225,9.614 C42.4225,9.0273304 42.684664,8.57816822 43.209,8.2665 C43.733336,7.95483177 44.5674943,7.73666729 45.7115,7.612 C45.7115,7.44333249 45.6950002,7.27833414 45.662,7.117 C45.6289998,6.95566586 45.5703338,6.81266729 45.486,6.688 C45.4016662,6.56333271 45.289834,6.46250039 45.1505,6.3855 C45.011166,6.30849961 44.8315011,6.27 44.6115,6.27 C44.2961651,6.27 44.004668,6.32866608 43.737,6.446 C43.469332,6.56333392 43.2291677,6.6953326 43.0165,6.842 L42.6535,6.215 C42.9028346,6.05366586 43.2071649,5.89783408 43.5665,5.7475 C43.9258351,5.59716592 44.3218312,5.522 44.7545,5.522 C45.4071699,5.522 45.8801652,5.72183134 46.1735,6.1215 C46.4668348,6.52116867 46.6135,7.05466333 46.6135,7.722 L46.6135,11 L45.8655,11 L45.7885,10.362 L45.7665,10.362 C45.5098321,10.5746677 45.2330015,10.7561659 44.936,10.9065 C44.6389985,11.0568341 44.3255017,11.132 43.9955,11.132 C43.5408311,11.132 43.1650015,11.0000013 42.868,10.736 C42.5709985,10.4719987 42.4225,10.0980024 42.4225,9.614 Z M43.3135,9.548 C43.3135,9.85600154 43.4033324,10.0759993 43.583,10.208 C43.7626676,10.3400007 43.9844987,10.406 44.2485,10.406 C44.505168,10.406 44.7489988,10.3455006 44.98,10.2245 C45.2110012,10.1034994 45.4548321,9.92566784 45.7115,9.691 L45.7115,8.206 C45.2641644,8.26466696 44.8865015,8.33433293 44.5785,8.415 C44.2704985,8.49566707 44.0230009,8.59099945 43.836,8.701 C43.6489991,8.81100055 43.5151671,8.93749928 43.4345,9.0805 C43.3538329,9.22350072 43.3135,9.37933249 43.3135,9.548 Z M48.7475,6.391 L47.9555,6.391 L47.9555,5.709 L48.7915,5.654 L48.9015,4.158 L49.6605,4.158 L49.6605,5.654 L51.1015,5.654 L51.1015,6.391 L49.6605,6.391 L49.6605,9.361 C49.6605,9.69100165 49.7209994,9.94583243 49.842,10.1255 C49.9630006,10.3051676 50.1774985,10.395 50.4855,10.395 C50.5808338,10.395 50.6834995,10.3803335 50.7935,10.351 C50.9035006,10.3216665 51.0024996,10.2886669 51.0905,10.252 L51.2665,10.934 C51.1198326,10.9853336 50.9603342,11.0311665 50.788,11.0715 C50.6156658,11.1118335 50.4451675,11.132 50.2765,11.132 C49.9904986,11.132 49.7503343,11.0880004 49.556,11 C49.3616657,10.9119996 49.2040006,10.7910008 49.083,10.637 C48.9619994,10.4829992 48.8758336,10.2960011 48.8245,10.076 C48.7731664,9.8559989 48.7475,9.61400132 48.7475,9.35 L48.7475,6.391 Z M53.0485,4.554 C52.8724991,4.554 52.7240006,4.49900055 52.603,4.389 C52.4819994,4.27899945 52.4215,4.13966751 52.4215,3.971 C52.4215,3.79499912 52.4819994,3.65383386 52.603,3.5475 C52.7240006,3.44116613 52.8724991,3.388 53.0485,3.388 C53.2245009,3.388 53.3729994,3.44116613 53.494,3.5475 C53.6150006,3.65383386 53.6755,3.79499912 53.6755,3.971 C53.6755,4.13966751 53.6150006,4.27899945 53.494,4.389 C53.3729994,4.49900055 53.2245009,4.554 53.0485,4.554 Z M52.5865,5.654 L53.4885,5.654 L53.4885,11 L52.5865,11 L52.5865,5.654 Z M55.1715,8.338 C55.1715,7.89066443 55.2393327,7.49283508 55.375,7.1445 C55.5106673,6.79616492 55.6921655,6.50100121 55.9195,6.259 C56.1468345,6.01699879 56.4089985,5.83366729 56.706,5.709 C57.0030015,5.58433271 57.3164984,5.522 57.6465,5.522 C57.9765017,5.522 58.2899985,5.58433271 58.587,5.709 C58.8840015,5.83366729 59.1461655,6.01699879 59.3735,6.259 C59.6008345,6.50100121 59.7823327,6.79616492 59.918,7.1445 C60.0536673,7.49283508 60.1215,7.89066443 60.1215,8.338 C60.1215,8.7780022 60.0536673,9.17216493 59.918,9.5205 C59.7823327,9.86883507 59.6008345,10.1621655 59.3735,10.4005 C59.1461655,10.6388345 58.8840015,10.8203327 58.587,10.945 C58.2899985,11.0696673 57.9765017,11.132 57.6465,11.132 C57.3164984,11.132 57.0030015,11.0696673 56.706,10.945 C56.4089985,10.8203327 56.1468345,10.6388345 55.9195,10.4005 C55.6921655,10.1621655 55.5106673,9.86883507 55.375,9.5205 C55.2393327,9.17216493 55.1715,8.7780022 55.1715,8.338 Z M56.1065,8.338 C56.1065,8.64600154 56.1431663,8.92466542 56.2165,9.174 C56.2898337,9.42333458 56.3943327,9.63783243 56.53,9.8175 C56.6656673,9.99716756 56.8288324,10.1364995 57.0195,10.2355 C57.2101676,10.3345005 57.4191655,10.384 57.6465,10.384 C57.8738345,10.384 58.0828324,10.3345005 58.2735,10.2355 C58.4641676,10.1364995 58.6273327,9.99716756 58.763,9.8175 C58.8986673,9.63783243 59.0031663,9.42333458 59.0765,9.174 C59.1498337,8.92466542 59.1865,8.64600154 59.1865,8.338 C59.1865,8.02999846 59.1498337,7.74950127 59.0765,7.4965 C59.0031663,7.24349874 58.8986673,7.02533425 58.763,6.842 C58.6273327,6.65866575 58.4641676,6.5175005 58.2735,6.4185 C58.0828324,6.3194995 57.8738345,6.27 57.6465,6.27 C57.4191655,6.27 57.2101676,6.3194995 57.0195,6.4185 C56.8288324,6.5175005 56.6656673,6.65866575 56.53,6.842 C56.3943327,7.02533425 56.2898337,7.24349874 56.2165,7.4965 C56.1431663,7.74950127 56.1065,8.02999846 56.1065,8.338 Z M61.8045,5.654 L62.5525,5.654 L62.6295,6.424 L62.6625,6.424 C62.919168,6.16733205 63.1886653,5.9528342 63.471,5.7805 C63.7533347,5.60816581 64.0814981,5.522 64.4555,5.522 C65.0201695,5.522 65.4326654,5.69799824 65.693,6.05 C65.9533346,6.40200176 66.0835,6.92266322 66.0835,7.612 L66.0835,11 L65.1815,11 L65.1815,7.733 C65.1815,7.22699747 65.1008341,6.86216779 64.9395,6.6385 C64.7781659,6.41483222 64.5215018,6.303 64.1695,6.303 C63.8908319,6.303 63.6451677,6.37266597 63.4325,6.512 C63.2198323,6.65133403 62.9778347,6.85666531 62.7065,7.128 L62.7065,11 L61.8045,11 L61.8045,5.654 Z M67.9535,9.79 C68.1881678,9.98066762 68.4283321,10.1346661 68.674,10.252 C68.9196679,10.3693339 69.2038317,10.428 69.5265,10.428 C69.8785018,10.428 70.1424991,10.3473341 70.3185,10.186 C70.4945009,10.0246659 70.5825,9.82666784 70.5825,9.592 C70.5825,9.45266597 70.5458337,9.33166718 70.4725,9.229 C70.3991663,9.12633282 70.3056672,9.03650039 70.192,8.9595 C70.0783328,8.88249962 69.9481674,8.81466696 69.8015,8.756 L69.3615,8.58 C69.1708324,8.51399967 68.9801676,8.43883376 68.7895,8.3545 C68.5988324,8.27016624 68.4283341,8.1675006 68.278,8.0465 C68.1276659,7.9254994 68.0048338,7.78433414 67.9095,7.623 C67.8141662,7.46166586 67.7665,7.26733447 67.7665,7.04 C67.7665,6.82733227 67.8086662,6.62750094 67.893,6.4405 C67.9773338,6.25349906 68.0983325,6.09216735 68.256,5.9565 C68.4136675,5.82083266 68.6061655,5.71450039 68.8335,5.6375 C69.0608345,5.56049962 69.3174986,5.522 69.6035,5.522 C69.940835,5.522 70.2506653,5.58066608 70.533,5.698 C70.8153347,5.81533392 71.0591656,5.95833249 71.2645,6.127 L70.8355,6.699 C70.6521658,6.55966597 70.461501,6.44600044 70.2635,6.358 C70.065499,6.26999956 69.8491678,6.226 69.6145,6.226 C69.277165,6.226 69.0296675,6.30299923 68.872,6.457 C68.7143325,6.61100077 68.6355,6.79066564 68.6355,6.996 C68.6355,7.12066729 68.6684997,7.22883288 68.7345,7.3205 C68.8005003,7.41216712 68.8884995,7.49283298 68.9985,7.5625 C69.1085006,7.63216702 69.2349993,7.69449973 69.378,7.7495 C69.5210007,7.80450028 69.6694992,7.86133304 69.8235,7.92 C70.0141676,7.9933337 70.2066657,8.07033293 70.401,8.151 C70.5953343,8.23166707 70.7694992,8.33249939 70.9235,8.4535 C71.0775008,8.57450061 71.2039995,8.72299912 71.303,8.899 C71.4020005,9.07500088 71.4515,9.28766542 71.4515,9.537 C71.4515,9.7570011 71.4093338,9.96233238 71.325,10.153 C71.2406662,10.3436676 71.1160008,10.5123326 70.951,10.659 C70.7859992,10.8056674 70.5806679,10.9211662 70.335,11.0055 C70.0893321,11.0898338 69.8088349,11.132 69.4935,11.132 C69.1121648,11.132 68.7491684,11.062334 68.4045,10.923 C68.0598316,10.783666 67.759168,10.6076677 67.5025,10.395 L67.9535,9.79 Z M75.6315,6.391 L74.8395,6.391 L74.8395,5.709 L75.6755,5.654 L75.7855,4.158 L76.5445,4.158 L76.5445,5.654 L77.9855,5.654 L77.9855,6.391 L76.5445,6.391 L76.5445,9.361 C76.5445,9.69100165 76.6049994,9.94583243 76.726,10.1255 C76.8470006,10.3051676 77.0614985,10.395 77.3695,10.395 C77.4648338,10.395 77.5674995,10.3803335 77.6775,10.351 C77.7875006,10.3216665 77.8864996,10.2886669 77.9745,10.252 L78.1505,10.934 C78.0038326,10.9853336 77.8443342,11.0311665 77.672,11.0715 C77.4996658,11.1118335 77.3291675,11.132 77.1605,11.132 C76.8744986,11.132 76.6343343,11.0880004 76.44,11 C76.2456657,10.9119996 76.0880006,10.7910008 75.967,10.637 C75.8459994,10.4829992 75.7598336,10.2960011 75.7085,10.076 C75.6571664,9.8559989 75.6315,9.61400132 75.6315,9.35 L75.6315,6.391 Z M78.9645,8.338 C78.9645,7.89066443 79.0323327,7.49283508 79.168,7.1445 C79.3036673,6.79616492 79.4851655,6.50100121 79.7125,6.259 C79.9398345,6.01699879 80.2019985,5.83366729 80.499,5.709 C80.7960015,5.58433271 81.1094984,5.522 81.4395,5.522 C81.7695017,5.522 82.0829985,5.58433271 82.38,5.709 C82.6770015,5.83366729 82.9391655,6.01699879 83.1665,6.259 C83.3938345,6.50100121 83.5753327,6.79616492 83.711,7.1445 C83.8466673,7.49283508 83.9145,7.89066443 83.9145,8.338 C83.9145,8.7780022 83.8466673,9.17216493 83.711,9.5205 C83.5753327,9.86883507 83.3938345,10.1621655 83.1665,10.4005 C82.9391655,10.6388345 82.6770015,10.8203327 82.38,10.945 C82.0829985,11.0696673 81.7695017,11.132 81.4395,11.132 C81.1094984,11.132 80.7960015,11.0696673 80.499,10.945 C80.2019985,10.8203327 79.9398345,10.6388345 79.7125,10.4005 C79.4851655,10.1621655 79.3036673,9.86883507 79.168,9.5205 C79.0323327,9.17216493 78.9645,8.7780022 78.9645,8.338 Z M79.8995,8.338 C79.8995,8.64600154 79.9361663,8.92466542 80.0095,9.174 C80.0828337,9.42333458 80.1873327,9.63783243 80.323,9.8175 C80.4586673,9.99716756 80.6218324,10.1364995 80.8125,10.2355 C81.0031676,10.3345005 81.2121655,10.384 81.4395,10.384 C81.6668345,10.384 81.8758324,10.3345005 82.0665,10.2355 C82.2571676,10.1364995 82.4203327,9.99716756 82.556,9.8175 C82.6916673,9.63783243 82.7961663,9.42333458 82.8695,9.174 C82.9428337,8.92466542 82.9795,8.64600154 82.9795,8.338 C82.9795,8.02999846 82.9428337,7.74950127 82.8695,7.4965 C82.7961663,7.24349874 82.6916673,7.02533425 82.556,6.842 C82.4203327,6.65866575 82.2571676,6.5175005 82.0665,6.4185 C81.8758324,6.3194995 81.6668345,6.27 81.4395,6.27 C81.2121655,6.27 81.0031676,6.3194995 80.8125,6.4185 C80.6218324,6.5175005 80.4586673,6.65866575 80.323,6.842 C80.1873327,7.02533425 80.0828337,7.24349874 80.0095,7.4965 C79.9361663,7.74950127 79.8995,8.02999846 79.8995,8.338 Z M88.0945,3.168 L88.9965,3.168 L88.9965,5.302 L88.9635,6.402 C89.220168,6.15999879 89.4878319,5.9528342 89.7665,5.7805 C90.0451681,5.60816581 90.3714981,5.522 90.7455,5.522 C91.3101695,5.522 91.7226654,5.69799824 91.983,6.05 C92.2433346,6.40200176 92.3735,6.92266322 92.3735,7.612 L92.3735,11 L91.4715,11 L91.4715,7.733 C91.4715,7.22699747 91.3908341,6.86216779 91.2295,6.6385 C91.0681659,6.41483222 90.8115018,6.303 90.4595,6.303 C90.1808319,6.303 89.9351677,6.37266597 89.7225,6.512 C89.5098323,6.65133403 89.2678347,6.85666531 88.9965,7.128 L88.9965,11 L88.0945,11 L88.0945,3.168 Z M93.9575,8.338 C93.9575,7.8979978 94.0253327,7.50383508 94.161,7.1555 C94.2966673,6.80716492 94.4763322,6.51200121 94.7,6.27 C94.9236678,6.02799879 95.1784986,5.84283397 95.4645,5.7145 C95.7505014,5.58616603 96.0474985,5.522 96.3555,5.522 C96.692835,5.522 96.995332,5.58066608 97.263,5.698 C97.530668,5.81533392 97.7543324,5.9839989 97.934,6.204 C98.1136676,6.4240011 98.2511662,6.68799846 98.3465,6.996 C98.4418338,7.30400154 98.4895,7.64866476 98.4895,8.03 C98.4895,8.22800099 98.4785001,8.39299934 98.4565,8.525 L94.8485,8.525 C94.8851669,9.10433623 95.0629984,9.56266498 95.382,9.9 C95.7010016,10.237335 96.1171641,10.406 96.6305,10.406 C96.887168,10.406 97.1236656,10.3675004 97.34,10.2905 C97.5563344,10.2134996 97.763499,10.1126673 97.9615,9.988 L98.2805,10.582 C98.0458322,10.7286674 97.7855014,10.8569994 97.4995,10.967 C97.2134986,11.0770006 96.8871685,11.132 96.5205,11.132 C96.1611649,11.132 95.8256682,11.067834 95.514,10.9395 C95.2023318,10.811166 94.9310012,10.6278345 94.7,10.3895 C94.4689988,10.1511655 94.2875007,9.85966839 94.1555,9.515 C94.0234993,9.17033161 93.9575,8.7780022 93.9575,8.338 Z M97.6975,7.931 C97.6975,7.38099725 97.5820012,6.96116811 97.351,6.6715 C97.1199988,6.38183189 96.7955021,6.237 96.3775,6.237 C96.1868324,6.237 96.0053342,6.27549962 95.833,6.3525 C95.6606658,6.42950039 95.504834,6.53949929 95.3655,6.6825 C95.226166,6.82550072 95.1106671,7.00149896 95.019,7.2105 C94.9273329,7.41950105 94.8668335,7.65966531 94.8375,7.931 L97.6975,7.931 Z M100.0845,3.168 L100.9865,3.168 L100.9865,9.988 C100.9865,10.1346674 101.012166,10.237333 101.0635,10.296 C101.114834,10.354667 101.1735,10.384 101.2395,10.384 L101.322,10.384 C101.347667,10.384 101.386166,10.3766667 101.4375,10.362 L101.5585,11.044 C101.499833,11.0733335 101.430167,11.0953333 101.3495,11.11 C101.268833,11.1246667 101.166167,11.132 101.0415,11.132 C100.696832,11.132 100.451167,11.0293344 100.3045,10.824 C100.157833,10.6186656 100.0845,10.318002 100.0845,9.922 L100.0845,3.168 Z M104.0665,11.451 L104.0665,13.255 L103.1645,13.255 L103.1645,5.654 L103.9125,5.654 L103.9895,6.27 L104.0225,6.27 C104.264501,6.06466564 104.530332,5.8886674 104.82,5.742 C105.109668,5.5953326 105.412165,5.522 105.7275,5.522 C106.072168,5.522 106.376499,5.58616603 106.6405,5.7145 C106.904501,5.84283397 107.124499,6.02616547 107.3005,6.2645 C107.476501,6.50283452 107.610333,6.78883167 107.702,7.1225 C107.793667,7.45616834 107.8395,7.83199791 107.8395,8.25 C107.8395,8.70466894 107.777167,9.10983156 107.6525,9.4655 C107.527833,9.82116845 107.359168,10.1236654 107.1465,10.373 C106.933832,10.6223346 106.688168,10.811166 106.4095,10.9395 C106.130832,11.067834 105.837502,11.132 105.5295,11.132 C105.280165,11.132 105.032668,11.0770006 104.787,10.967 C104.541332,10.8569994 104.293835,10.7066676 104.0445,10.516 L104.0665,11.451 Z M104.0665,9.812 C104.308501,10.0173344 104.543166,10.1621662 104.7705,10.2465 C104.997834,10.3308338 105.199499,10.373 105.3755,10.373 C105.595501,10.373 105.798999,10.3235005 105.986,10.2245 C106.173001,10.1254995 106.334333,9.98616757 106.47,9.8065 C106.605667,9.62683244 106.712,9.40500132 106.789,9.141 C106.866,8.87699868 106.9045,8.58000165 106.9045,8.25 C106.9045,7.9566652 106.878834,7.68900121 106.8275,7.447 C106.776166,7.20499879 106.693667,6.99783419 106.58,6.8255 C106.466333,6.65316581 106.319668,6.51933381 106.14,6.424 C105.960332,6.32866619 105.745835,6.281 105.4965,6.281 C105.269166,6.281 105.040001,6.34333271 104.809,6.468 C104.577999,6.59266729 104.330501,6.77233216 104.0665,7.007 L104.0665,9.812 Z M111.6785,12.474 L111.8765,12.5235 C111.949834,12.5418334 112.0195,12.551 112.0855,12.551 C112.393502,12.551 112.644666,12.4428344 112.839,12.2265 C113.033334,12.0101656 113.185499,11.7370016 113.2955,11.407 L113.4165,11.011 L111.2715,5.654 L112.2065,5.654 L113.2955,8.613 C113.376167,8.84766784 113.462333,9.09516536 113.554,9.3555 C113.645667,9.61583464 113.731833,9.87066542 113.8125,10.12 L113.8565,10.12 C113.937167,9.87799879 114.014166,9.62500132 114.0875,9.361 C114.160834,9.09699868 114.234166,8.84766784 114.3075,8.613 L115.2645,5.654 L116.1445,5.654 L114.1315,11.44 C114.036166,11.7040013 113.929834,11.9496655 113.8125,12.177 C113.695166,12.4043345 113.555834,12.6004992 113.3945,12.7655 C113.233166,12.9305008 113.049834,13.0606662 112.8445,13.156 C112.639166,13.2513338 112.400835,13.299 112.1295,13.299 C112.004833,13.299 111.891167,13.2898334 111.7885,13.2715 C111.685833,13.2531666 111.5905,13.2256668 111.5025,13.189 L111.6785,12.474 Z M117.0135,8.338 C117.0135,7.89066443 117.081333,7.49283508 117.217,7.1445 C117.352667,6.79616492 117.534166,6.50100121 117.7615,6.259 C117.988834,6.01699879 118.250999,5.83366729 118.548,5.709 C118.845001,5.58433271 119.158498,5.522 119.4885,5.522 C119.818502,5.522 120.131999,5.58433271 120.429,5.709 C120.726001,5.83366729 120.988166,6.01699879 121.2155,6.259 C121.442834,6.50100121 121.624333,6.79616492 121.76,7.1445 C121.895667,7.49283508 121.9635,7.89066443 121.9635,8.338 C121.9635,8.7780022 121.895667,9.17216493 121.76,9.5205 C121.624333,9.86883507 121.442834,10.1621655 121.2155,10.4005 C120.988166,10.6388345 120.726001,10.8203327 120.429,10.945 C120.131999,11.0696673 119.818502,11.132 119.4885,11.132 C119.158498,11.132 118.845001,11.0696673 118.548,10.945 C118.250999,10.8203327 117.988834,10.6388345 117.7615,10.4005 C117.534166,10.1621655 117.352667,9.86883507 117.217,9.5205 C117.081333,9.17216493 117.0135,8.7780022 117.0135,8.338 Z M117.9485,8.338 C117.9485,8.64600154 117.985166,8.92466542 118.0585,9.174 C118.131834,9.42333458 118.236333,9.63783243 118.372,9.8175 C118.507667,9.99716756 118.670832,10.1364995 118.8615,10.2355 C119.052168,10.3345005 119.261166,10.384 119.4885,10.384 C119.715834,10.384 119.924832,10.3345005 120.1155,10.2355 C120.306168,10.1364995 120.469333,9.99716756 120.605,9.8175 C120.740667,9.63783243 120.845166,9.42333458 120.9185,9.174 C120.991834,8.92466542 121.0285,8.64600154 121.0285,8.338 C121.0285,8.02999846 120.991834,7.74950127 120.9185,7.4965 C120.845166,7.24349874 120.740667,7.02533425 120.605,6.842 C120.469333,6.65866575 120.306168,6.5175005 120.1155,6.4185 C119.924832,6.3194995 119.715834,6.27 119.4885,6.27 C119.261166,6.27 119.052168,6.3194995 118.8615,6.4185 C118.670832,6.5175005 118.507667,6.65866575 118.372,6.842 C118.236333,7.02533425 118.131834,7.24349874 118.0585,7.4965 C117.985166,7.74950127 117.9485,8.02999846 117.9485,8.338 Z M123.5695,5.654 L124.4825,5.654 L124.4825,8.921 C124.4825,9.42700253 124.561333,9.79183221 124.719,10.0155 C124.876667,10.2391678 125.131498,10.351 125.4835,10.351 C125.762168,10.351 126.007832,10.2795007 126.2205,10.1365 C126.433168,9.99349929 126.667832,9.76433491 126.9245,9.449 L126.9245,5.654 L127.8265,5.654 L127.8265,11 L127.0785,11 L127.0015,10.164 L126.9685,10.164 C126.719165,10.4573348 126.457001,10.6919991 126.182,10.868 C125.906999,11.0440009 125.582502,11.132 125.2085,11.132 C124.636497,11.132 124.220335,10.9560018 123.96,10.604 C123.699665,10.2519982 123.5695,9.73133678 123.5695,9.042 L123.5695,5.654 Z M132.3255,5.654 L133.2385,5.654 L133.2385,8.921 C133.2385,9.42700253 133.317333,9.79183221 133.475,10.0155 C133.632667,10.2391678 133.887498,10.351 134.2395,10.351 C134.518168,10.351 134.763832,10.2795007 134.9765,10.1365 C135.189168,9.99349929 135.423832,9.76433491 135.6805,9.449 L135.6805,5.654 L136.5825,5.654 L136.5825,11 L135.8345,11 L135.7575,10.164 L135.7245,10.164 C135.475165,10.4573348 135.213001,10.6919991 134.938,10.868 C134.662999,11.0440009 134.338502,11.132 133.9645,11.132 C133.392497,11.132 132.976335,10.9560018 132.716,10.604 C132.455665,10.2519982 132.3255,9.73133678 132.3255,9.042 L132.3255,5.654 Z M138.6615,5.654 L139.4095,5.654 L139.4865,6.424 L139.5195,6.424 C139.776168,6.16733205 140.045665,5.9528342 140.328,5.7805 C140.610335,5.60816581 140.938498,5.522 141.3125,5.522 C141.877169,5.522 142.289665,5.69799824 142.55,6.05 C142.810335,6.40200176 142.9405,6.92266322 142.9405,7.612 L142.9405,11 L142.0385,11 L142.0385,7.733 C142.0385,7.22699747 141.957834,6.86216779 141.7965,6.6385 C141.635166,6.41483222 141.378502,6.303 141.0265,6.303 C140.747832,6.303 140.502168,6.37266597 140.2895,6.512 C140.076832,6.65133403 139.834835,6.85666531 139.5635,7.128 L139.5635,11 L138.6615,11 L138.6615,5.654 Z M144.5685,8.338 C144.5685,7.90533117 144.632666,7.51483508 144.761,7.1665 C144.889334,6.81816492 145.059832,6.52300121 145.2725,6.281 C145.485168,6.03899879 145.730832,5.85200066 146.0095,5.72 C146.288168,5.58799934 146.581498,5.522 146.8895,5.522 C147.197502,5.522 147.465166,5.57699945 147.6925,5.687 C147.919834,5.79700055 148.150832,5.94733238 148.3855,6.138 L148.3415,5.225 L148.3415,3.168 L149.2545,3.168 L149.2545,11 L148.5065,11 L148.4295,10.373 L148.3965,10.373 C148.183832,10.5783344 147.940001,10.7561659 147.665,10.9065 C147.389999,11.0568341 147.094835,11.132 146.7795,11.132 C146.10483,11.132 145.567669,10.8900024 145.168,10.406 C144.768331,9.92199758 144.5685,9.23267114 144.5685,8.338 Z M145.5035,8.327 C145.5035,8.97233656 145.631832,9.47466487 145.8885,9.834 C146.145168,10.1933351 146.508164,10.373 146.9775,10.373 C147.226835,10.373 147.461499,10.3125006 147.6815,10.1915 C147.901501,10.0704994 148.121499,9.88533458 148.3415,9.636 L148.3415,6.842 C148.114166,6.63666564 147.896001,6.49183376 147.687,6.4075 C147.477999,6.32316625 147.263501,6.281 147.0435,6.281 C146.830832,6.281 146.631001,6.33049951 146.444,6.4295 C146.256999,6.52850049 146.093834,6.66783243 145.9545,6.8475 C145.815166,7.02716756 145.705167,7.24166542 145.6245,7.491 C145.543833,7.74033458 145.5035,8.01899846 145.5035,8.327 Z M150.9375,8.338 C150.9375,7.8979978 151.005333,7.50383508 151.141,7.1555 C151.276667,6.80716492 151.456332,6.51200121 151.68,6.27 C151.903668,6.02799879 152.158499,5.84283397 152.4445,5.7145 C152.730501,5.58616603 153.027498,5.522 153.3355,5.522 C153.672835,5.522 153.975332,5.58066608 154.243,5.698 C154.510668,5.81533392 154.734332,5.9839989 154.914,6.204 C155.093668,6.4240011 155.231166,6.68799846 155.3265,6.996 C155.421834,7.30400154 155.4695,7.64866476 155.4695,8.03 C155.4695,8.22800099 155.4585,8.39299934 155.4365,8.525 L151.8285,8.525 C151.865167,9.10433623 152.042998,9.56266498 152.362,9.9 C152.681002,10.237335 153.097164,10.406 153.6105,10.406 C153.867168,10.406 154.103666,10.3675004 154.32,10.2905 C154.536334,10.2134996 154.743499,10.1126673 154.9415,9.988 L155.2605,10.582 C155.025832,10.7286674 154.765501,10.8569994 154.4795,10.967 C154.193499,11.0770006 153.867169,11.132 153.5005,11.132 C153.141165,11.132 152.805668,11.067834 152.494,10.9395 C152.182332,10.811166 151.911001,10.6278345 151.68,10.3895 C151.448999,10.1511655 151.267501,9.85966839 151.1355,9.515 C151.003499,9.17033161 150.9375,8.7780022 150.9375,8.338 Z M154.6775,7.931 C154.6775,7.38099725 154.562001,6.96116811 154.331,6.6715 C154.099999,6.38183189 153.775502,6.237 153.3575,6.237 C153.166832,6.237 152.985334,6.27549962 152.813,6.3525 C152.640666,6.42950039 152.484834,6.53949929 152.3455,6.6825 C152.206166,6.82550072 152.090667,7.00149896 151.999,7.2105 C151.907333,7.41950105 151.846833,7.65966531 151.8175,7.931 L154.6775,7.931 Z M157.0645,5.654 L157.8125,5.654 L157.8895,6.622 L157.9225,6.622 C158.105834,6.28466498 158.327665,6.01700099 158.588,5.819 C158.848335,5.62099901 159.132498,5.522 159.4405,5.522 C159.653168,5.522 159.843832,5.5586663 160.0125,5.632 L159.8365,6.424 C159.7485,6.39466652 159.667834,6.37266674 159.5945,6.358 C159.521166,6.34333326 159.429501,6.336 159.3195,6.336 C159.092166,6.336 158.855668,6.42766575 158.61,6.611 C158.364332,6.79433425 158.149834,7.11333106 157.9665,7.568 L157.9665,11 L157.0645,11 L157.0645,5.654 Z M160.9035,9.79 C161.138168,9.98066762 161.378332,10.1346661 161.624,10.252 C161.869668,10.3693339 162.153832,10.428 162.4765,10.428 C162.828502,10.428 163.092499,10.3473341 163.2685,10.186 C163.444501,10.0246659 163.5325,9.82666784 163.5325,9.592 C163.5325,9.45266597 163.495834,9.33166718 163.4225,9.229 C163.349166,9.12633282 163.255667,9.03650039 163.142,8.9595 C163.028333,8.88249962 162.898167,8.81466696 162.7515,8.756 L162.3115,8.58 C162.120832,8.51399967 161.930168,8.43883376 161.7395,8.3545 C161.548832,8.27016624 161.378334,8.1675006 161.228,8.0465 C161.077666,7.9254994 160.954834,7.78433414 160.8595,7.623 C160.764166,7.46166586 160.7165,7.26733447 160.7165,7.04 C160.7165,6.82733227 160.758666,6.62750094 160.843,6.4405 C160.927334,6.25349906 161.048333,6.09216735 161.206,5.9565 C161.363667,5.82083266 161.556166,5.71450039 161.7835,5.6375 C162.010834,5.56049962 162.267499,5.522 162.5535,5.522 C162.890835,5.522 163.200665,5.58066608 163.483,5.698 C163.765335,5.81533392 164.009166,5.95833249 164.2145,6.127 L163.7855,6.699 C163.602166,6.55966597 163.411501,6.44600044 163.2135,6.358 C163.015499,6.26999956 162.799168,6.226 162.5645,6.226 C162.227165,6.226 161.979667,6.30299923 161.822,6.457 C161.664333,6.61100077 161.5855,6.79066564 161.5855,6.996 C161.5855,7.12066729 161.6185,7.22883288 161.6845,7.3205 C161.7505,7.41216712 161.838499,7.49283298 161.9485,7.5625 C162.058501,7.63216702 162.184999,7.69449973 162.328,7.7495 C162.471001,7.80450028 162.619499,7.86133304 162.7735,7.92 C162.964168,7.9933337 163.156666,8.07033293 163.351,8.151 C163.545334,8.23166707 163.719499,8.33249939 163.8735,8.4535 C164.027501,8.57450061 164.154,8.72299912 164.253,8.899 C164.352,9.07500088 164.4015,9.28766542 164.4015,9.537 C164.4015,9.7570011 164.359334,9.96233238 164.275,10.153 C164.190666,10.3436676 164.066001,10.5123326 163.901,10.659 C163.735999,10.8056674 163.530668,10.9211662 163.285,11.0055 C163.039332,11.0898338 162.758835,11.132 162.4435,11.132 C162.062165,11.132 161.699168,11.062334 161.3545,10.923 C161.009832,10.783666 160.709168,10.6076677 160.4525,10.395 L160.9035,9.79 Z M166.0845,6.391 L165.2925,6.391 L165.2925,5.709 L166.1285,5.654 L166.2385,4.158 L166.9975,4.158 L166.9975,5.654 L168.4385,5.654 L168.4385,6.391 L166.9975,6.391 L166.9975,9.361 C166.9975,9.69100165 167.057999,9.94583243 167.179,10.1255 C167.300001,10.3051676 167.514498,10.395 167.8225,10.395 C167.917834,10.395 168.020499,10.3803335 168.1305,10.351 C168.240501,10.3216665 168.3395,10.2886669 168.4275,10.252 L168.6035,10.934 C168.456833,10.9853336 168.297334,11.0311665 168.125,11.0715 C167.952666,11.1118335 167.782168,11.132 167.6135,11.132 C167.327499,11.132 167.087334,11.0880004 166.893,11 C166.698666,10.9119996 166.541001,10.7910008 166.42,10.637 C166.298999,10.4829992 166.212834,10.2960011 166.1615,10.076 C166.110166,9.8559989 166.0845,9.61400132 166.0845,9.35 L166.0845,6.391 Z M169.4615,9.614 C169.4615,9.0273304 169.723664,8.57816822 170.248,8.2665 C170.772336,7.95483177 171.606494,7.73666729 172.7505,7.612 C172.7505,7.44333249 172.734,7.27833414 172.701,7.117 C172.668,6.95566586 172.609334,6.81266729 172.525,6.688 C172.440666,6.56333271 172.328834,6.46250039 172.1895,6.3855 C172.050166,6.30849961 171.870501,6.27 171.6505,6.27 C171.335165,6.27 171.043668,6.32866608 170.776,6.446 C170.508332,6.56333392 170.268168,6.6953326 170.0555,6.842 L169.6925,6.215 C169.941835,6.05366586 170.246165,5.89783408 170.6055,5.7475 C170.964835,5.59716592 171.360831,5.522 171.7935,5.522 C172.44617,5.522 172.919165,5.72183134 173.2125,6.1215 C173.505835,6.52116867 173.6525,7.05466333 173.6525,7.722 L173.6525,11 L172.9045,11 L172.8275,10.362 L172.8055,10.362 C172.548832,10.5746677 172.272001,10.7561659 171.975,10.9065 C171.677999,11.0568341 171.364502,11.132 171.0345,11.132 C170.579831,11.132 170.204001,11.0000013 169.907,10.736 C169.609999,10.4719987 169.4615,10.0980024 169.4615,9.614 Z M170.3525,9.548 C170.3525,9.85600154 170.442332,10.0759993 170.622,10.208 C170.801668,10.3400007 171.023499,10.406 171.2875,10.406 C171.544168,10.406 171.787999,10.3455006 172.019,10.2245 C172.250001,10.1034994 172.493832,9.92566784 172.7505,9.691 L172.7505,8.206 C172.303164,8.26466696 171.925502,8.33433293 171.6175,8.415 C171.309498,8.49566707 171.062001,8.59099945 170.875,8.701 C170.687999,8.81100055 170.554167,8.93749928 170.4735,9.0805 C170.392833,9.22350072 170.3525,9.37933249 170.3525,9.548 Z M175.6325,5.654 L176.3805,5.654 L176.4575,6.424 L176.4905,6.424 C176.747168,6.16733205 177.016665,5.9528342 177.299,5.7805 C177.581335,5.60816581 177.909498,5.522 178.2835,5.522 C178.848169,5.522 179.260665,5.69799824 179.521,6.05 C179.781335,6.40200176 179.9115,6.92266322 179.9115,7.612 L179.9115,11 L179.0095,11 L179.0095,7.733 C179.0095,7.22699747 178.928834,6.86216779 178.7675,6.6385 C178.606166,6.41483222 178.349502,6.303 177.9975,6.303 C177.718832,6.303 177.473168,6.37266597 177.2605,6.512 C177.047832,6.65133403 176.805835,6.85666531 176.5345,7.128 L176.5345,11 L175.6325,11 L175.6325,5.654 Z M181.5395,8.338 C181.5395,7.90533117 181.603666,7.51483508 181.732,7.1665 C181.860334,6.81816492 182.030832,6.52300121 182.2435,6.281 C182.456168,6.03899879 182.701832,5.85200066 182.9805,5.72 C183.259168,5.58799934 183.552498,5.522 183.8605,5.522 C184.168502,5.522 184.436166,5.57699945 184.6635,5.687 C184.890834,5.79700055 185.121832,5.94733238 185.3565,6.138 L185.3125,5.225 L185.3125,3.168 L186.2255,3.168 L186.2255,11 L185.4775,11 L185.4005,10.373 L185.3675,10.373 C185.154832,10.5783344 184.911001,10.7561659 184.636,10.9065 C184.360999,11.0568341 184.065835,11.132 183.7505,11.132 C183.07583,11.132 182.538669,10.8900024 182.139,10.406 C181.739331,9.92199758 181.5395,9.23267114 181.5395,8.338 Z M182.4745,8.327 C182.4745,8.97233656 182.602832,9.47466487 182.8595,9.834 C183.116168,10.1933351 183.479164,10.373 183.9485,10.373 C184.197835,10.373 184.432499,10.3125006 184.6525,10.1915 C184.872501,10.0704994 185.092499,9.88533458 185.3125,9.636 L185.3125,6.842 C185.085166,6.63666564 184.867001,6.49183376 184.658,6.4075 C184.448999,6.32316625 184.234501,6.281 184.0145,6.281 C183.801832,6.281 183.602001,6.33049951 183.415,6.4295 C183.227999,6.52850049 183.064834,6.66783243 182.9255,6.8475 C182.786166,7.02716756 182.676167,7.24166542 182.5955,7.491 C182.514833,7.74033458 182.4745,8.01899846 182.4745,8.327 Z M191.1865,11.902 C191.1865,12.1880014 191.323999,12.4153325 191.599,12.584 C191.874001,12.7526675 192.253498,12.837 192.7375,12.837 C192.994168,12.837 193.226999,12.8058336 193.436,12.7435 C193.645001,12.6811664 193.822833,12.6005005 193.9695,12.5015 C194.116167,12.4024995 194.229833,12.2870007 194.3105,12.155 C194.391167,12.0229993 194.4315,11.887334 194.4315,11.748 C194.4315,11.4986654 194.339834,11.3263338 194.1565,11.231 C193.973166,11.1356662 193.705502,11.088 193.3535,11.088 L192.4295,11.088 C192.326833,11.088 192.215001,11.0825001 192.094,11.0715 C191.972999,11.0604999 191.853834,11.0366668 191.7365,11 C191.545832,11.139334 191.4065,11.2859992 191.3185,11.44 C191.2305,11.5940008 191.1865,11.7479992 191.1865,11.902 Z M190.3945,12.023 C190.3945,11.7956655 190.464166,11.5793344 190.6035,11.374 C190.742834,11.1686656 190.933499,10.9816675 191.1755,10.813 L191.1755,10.769 C191.043499,10.6883329 190.931667,10.5765007 190.84,10.4335 C190.748333,10.2904993 190.7025,10.1126677 190.7025,9.9 C190.7025,9.67266553 190.764833,9.47466751 190.8895,9.306 C191.014167,9.13733249 191.146166,9.00533381 191.2855,8.91 L191.2855,8.866 C191.109499,8.7193326 190.950001,8.5231679 190.807,8.2775 C190.663999,8.0318321 190.5925,7.74766828 190.5925,7.425 C190.5925,7.1316652 190.645666,6.86766784 190.752,6.633 C190.858334,6.39833216 191.003166,6.19850082 191.1865,6.0335 C191.369834,5.86849918 191.584332,5.74200044 191.83,5.654 C192.075668,5.56599956 192.334165,5.522 192.6055,5.522 C192.752167,5.522 192.889666,5.53483321 193.018,5.5605 C193.146334,5.5861668 193.261833,5.61733315 193.3645,5.654 L195.2235,5.654 L195.2235,6.347 L194.1235,6.347 C194.248167,6.47166729 194.352666,6.62933238 194.437,6.82 C194.521334,7.01066762 194.5635,7.21966553 194.5635,7.447 C194.5635,7.73300143 194.512167,7.99149885 194.4095,8.2225 C194.306833,8.45350115 194.167501,8.64783254 193.9915,8.8055 C193.815499,8.96316746 193.608335,9.08599956 193.37,9.174 C193.131665,9.26200044 192.876835,9.306 192.6055,9.306 C192.473499,9.306 192.337834,9.28950017 192.1985,9.2565 C192.059166,9.22349984 191.927167,9.17766696 191.8025,9.119 C191.707166,9.19966707 191.6265,9.28949951 191.5605,9.3885 C191.4945,9.4875005 191.4615,9.6103326 191.4615,9.757 C191.4615,9.92566751 191.527499,10.0649995 191.6595,10.175 C191.791501,10.2850005 192.040832,10.34 192.4075,10.34 L193.4415,10.34 C194.064836,10.34 194.532332,10.4408323 194.844,10.6425 C195.155668,10.8441677 195.3115,11.1686644 195.3115,11.616 C195.3115,11.8653346 195.249167,12.1018322 195.1245,12.3255 C194.999833,12.5491678 194.820168,12.7453325 194.5855,12.914 C194.350832,13.0826675 194.066668,13.2164995 193.733,13.3155 C193.399332,13.4145005 193.023502,13.464 192.6055,13.464 C192.275498,13.464 191.974835,13.4328336 191.7035,13.3705 C191.432165,13.3081664 191.199334,13.2146673 191.005,13.09 C190.810666,12.9653327 190.660334,12.8150009 190.554,12.639 C190.447666,12.4629991 190.3945,12.2576678 190.3945,12.023 Z M192.6055,8.701 C192.759501,8.701 192.904333,8.67166696 193.04,8.613 C193.175667,8.55433304 193.296666,8.47000055 193.403,8.36 C193.509334,8.24999945 193.591833,8.11616745 193.6505,7.9585 C193.709167,7.80083255 193.7385,7.62300099 193.7385,7.425 C193.7385,7.02899802 193.628501,6.72283441 193.4085,6.5065 C193.188499,6.29016559 192.920835,6.182 192.6055,6.182 C192.290165,6.182 192.022501,6.29016559 191.8025,6.5065 C191.582499,6.72283441 191.4725,7.02899802 191.4725,7.425 C191.4725,7.62300099 191.501833,7.80083255 191.5605,7.9585 C191.619167,8.11616745 191.701666,8.24999945 191.808,8.36 C191.914334,8.47000055 192.035333,8.55433304 192.171,8.613 C192.306667,8.67166696 192.451499,8.701 192.6055,8.701 Z M196.0705,8.338 C196.0705,7.89066443 196.138333,7.49283508 196.274,7.1445 C196.409667,6.79616492 196.591166,6.50100121 196.8185,6.259 C197.045834,6.01699879 197.307999,5.83366729 197.605,5.709 C197.902001,5.58433271 198.215498,5.522 198.5455,5.522 C198.875502,5.522 199.188999,5.58433271 199.486,5.709 C199.783001,5.83366729 200.045166,6.01699879 200.2725,6.259 C200.499834,6.50100121 200.681333,6.79616492 200.817,7.1445 C200.952667,7.49283508 201.0205,7.89066443 201.0205,8.338 C201.0205,8.7780022 200.952667,9.17216493 200.817,9.5205 C200.681333,9.86883507 200.499834,10.1621655 200.2725,10.4005 C200.045166,10.6388345 199.783001,10.8203327 199.486,10.945 C199.188999,11.0696673 198.875502,11.132 198.5455,11.132 C198.215498,11.132 197.902001,11.0696673 197.605,10.945 C197.307999,10.8203327 197.045834,10.6388345 196.8185,10.4005 C196.591166,10.1621655 196.409667,9.86883507 196.274,9.5205 C196.138333,9.17216493 196.0705,8.7780022 196.0705,8.338 Z M197.0055,8.338 C197.0055,8.64600154 197.042166,8.92466542 197.1155,9.174 C197.188834,9.42333458 197.293333,9.63783243 197.429,9.8175 C197.564667,9.99716756 197.727832,10.1364995 197.9185,10.2355 C198.109168,10.3345005 198.318166,10.384 198.5455,10.384 C198.772834,10.384 198.981832,10.3345005 199.1725,10.2355 C199.363168,10.1364995 199.526333,9.99716756 199.662,9.8175 C199.797667,9.63783243 199.902166,9.42333458 199.9755,9.174 C200.048834,8.92466542 200.0855,8.64600154 200.0855,8.338 C200.0855,8.02999846 200.048834,7.74950127 199.9755,7.4965 C199.902166,7.24349874 199.797667,7.02533425 199.662,6.842 C199.526333,6.65866575 199.363168,6.5175005 199.1725,6.4185 C198.981832,6.3194995 198.772834,6.27 198.5455,6.27 C198.318166,6.27 198.109168,6.3194995 197.9185,6.4185 C197.727832,6.5175005 197.564667,6.65866575 197.429,6.842 C197.293333,7.02533425 197.188834,7.24349874 197.1155,7.4965 C197.042166,7.74950127 197.0055,8.02999846 197.0055,8.338 Z M201.8895,5.654 L202.8245,5.654 L203.8365,8.69 C203.917167,8.95400132 203.999666,9.21799868 204.084,9.482 C204.168334,9.74600132 204.250833,10.0063321 204.3315,10.263 L204.3755,10.263 C204.456167,10.0063321 204.536833,9.74600132 204.6175,9.482 L204.8595,8.69 L205.8715,5.654 L206.7625,5.654 L204.8705,11 L203.8145,11 L201.8895,5.654 Z M207.6315,8.338 C207.6315,7.8979978 207.699333,7.50383508 207.835,7.1555 C207.970667,6.80716492 208.150332,6.51200121 208.374,6.27 C208.597668,6.02799879 208.852499,5.84283397 209.1385,5.7145 C209.424501,5.58616603 209.721498,5.522 210.0295,5.522 C210.366835,5.522 210.669332,5.58066608 210.937,5.698 C211.204668,5.81533392 211.428332,5.9839989 211.608,6.204 C211.787668,6.4240011 211.925166,6.68799846 212.0205,6.996 C212.115834,7.30400154 212.1635,7.64866476 212.1635,8.03 C212.1635,8.22800099 212.1525,8.39299934 212.1305,8.525 L208.5225,8.525 C208.559167,9.10433623 208.736998,9.56266498 209.056,9.9 C209.375002,10.237335 209.791164,10.406 210.3045,10.406 C210.561168,10.406 210.797666,10.3675004 211.014,10.2905 C211.230334,10.2134996 211.437499,10.1126673 211.6355,9.988 L211.9545,10.582 C211.719832,10.7286674 211.459501,10.8569994 211.1735,10.967 C210.887499,11.0770006 210.561169,11.132 210.1945,11.132 C209.835165,11.132 209.499668,11.067834 209.188,10.9395 C208.876332,10.811166 208.605001,10.6278345 208.374,10.3895 C208.142999,10.1511655 207.961501,9.85966839 207.8295,9.515 C207.697499,9.17033161 207.6315,8.7780022 207.6315,8.338 Z M211.3715,7.931 C211.3715,7.38099725 211.256001,6.96116811 211.025,6.6715 C210.793999,6.38183189 210.469502,6.237 210.0515,6.237 C209.860832,6.237 209.679334,6.27549962 209.507,6.3525 C209.334666,6.42950039 209.178834,6.53949929 209.0395,6.6825 C208.900166,6.82550072 208.784667,7.00149896 208.693,7.2105 C208.601333,7.41950105 208.540833,7.65966531 208.5115,7.931 L211.3715,7.931 Z M213.7585,5.654 L214.5065,5.654 L214.5835,6.622 L214.6165,6.622 C214.799834,6.28466498 215.021665,6.01700099 215.282,5.819 C215.542335,5.62099901 215.826498,5.522 216.1345,5.522 C216.347168,5.522 216.537832,5.5586663 216.7065,5.632 L216.5305,6.424 C216.4425,6.39466652 216.361834,6.37266674 216.2885,6.358 C216.215166,6.34333326 216.123501,6.336 216.0135,6.336 C215.786166,6.336 215.549668,6.42766575 215.304,6.611 C215.058332,6.79433425 214.843834,7.11333106 214.6605,7.568 L214.6605,11 L213.7585,11 L213.7585,5.654 Z M217.8505,5.654 L218.5985,5.654 L218.6755,6.424 L218.7085,6.424 C218.965168,6.16733205 219.234665,5.9528342 219.517,5.7805 C219.799335,5.60816581 220.127498,5.522 220.5015,5.522 C221.066169,5.522 221.478665,5.69799824 221.739,6.05 C221.999335,6.40200176 222.1295,6.92266322 222.1295,7.612 L222.1295,11 L221.2275,11 L221.2275,7.733 C221.2275,7.22699747 221.146834,6.86216779 220.9855,6.6385 C220.824166,6.41483222 220.567502,6.303 220.2155,6.303 C219.936832,6.303 219.691168,6.37266597 219.4785,6.512 C219.265832,6.65133403 219.023835,6.85666531 218.7525,7.128 L218.7525,11 L217.8505,11 L217.8505,5.654 Z M224.1425,5.654 L224.8905,5.654 L224.9675,6.424 L225.0005,6.424 C225.235168,6.16733205 225.489999,5.9528342 225.765,5.7805 C226.040001,5.60816581 226.338832,5.522 226.6615,5.522 C227.072169,5.522 227.392999,5.61183244 227.624,5.7915 C227.855001,5.97116757 228.025499,6.22233172 228.1355,6.545 C228.414168,6.23699846 228.694665,5.98950093 228.977,5.8025 C229.259335,5.61549907 229.565498,5.522 229.8955,5.522 C230.445503,5.522 230.854332,5.69799824 231.122,6.05 C231.389668,6.40200176 231.5235,6.92266322 231.5235,7.612 L231.5235,11 L230.6215,11 L230.6215,7.733 C230.6215,7.22699747 230.540834,6.86216779 230.3795,6.6385 C230.218166,6.41483222 229.968835,6.303 229.6315,6.303 C229.228165,6.303 228.780836,6.57799725 228.2895,7.128 L228.2895,11 L227.3875,11 L227.3875,7.733 C227.3875,7.22699747 227.306834,6.86216779 227.1455,6.6385 C226.984166,6.41483222 226.731168,6.303 226.3865,6.303 C225.983165,6.303 225.535836,6.57799725 225.0445,7.128 L225.0445,11 L224.1425,11 L224.1425,5.654 Z M233.1405,8.338 C233.1405,7.8979978 233.208333,7.50383508 233.344,7.1555 C233.479667,6.80716492 233.659332,6.51200121 233.883,6.27 C234.106668,6.02799879 234.361499,5.84283397 234.6475,5.7145 C234.933501,5.58616603 235.230498,5.522 235.5385,5.522 C235.875835,5.522 236.178332,5.58066608 236.446,5.698 C236.713668,5.81533392 236.937332,5.9839989 237.117,6.204 C237.296668,6.4240011 237.434166,6.68799846 237.5295,6.996 C237.624834,7.30400154 237.6725,7.64866476 237.6725,8.03 C237.6725,8.22800099 237.6615,8.39299934 237.6395,8.525 L234.0315,8.525 C234.068167,9.10433623 234.245998,9.56266498 234.565,9.9 C234.884002,10.237335 235.300164,10.406 235.8135,10.406 C236.070168,10.406 236.306666,10.3675004 236.523,10.2905 C236.739334,10.2134996 236.946499,10.1126673 237.1445,9.988 L237.4635,10.582 C237.228832,10.7286674 236.968501,10.8569994 236.6825,10.967 C236.396499,11.0770006 236.070169,11.132 235.7035,11.132 C235.344165,11.132 235.008668,11.067834 234.697,10.9395 C234.385332,10.811166 234.114001,10.6278345 233.883,10.3895 C233.651999,10.1511655 233.470501,9.85966839 233.3385,9.515 C233.206499,9.17033161 233.1405,8.7780022 233.1405,8.338 Z M236.8805,7.931 C236.8805,7.38099725 236.765001,6.96116811 236.534,6.6715 C236.302999,6.38183189 235.978502,6.237 235.5605,6.237 C235.369832,6.237 235.188334,6.27549962 235.016,6.3525 C234.843666,6.42950039 234.687834,6.53949929 234.5485,6.6825 C234.409166,6.82550072 234.293667,7.00149896 234.202,7.2105 C234.110333,7.41950105 234.049833,7.65966531 234.0205,7.931 L236.8805,7.931 Z M239.2675,5.654 L240.0155,5.654 L240.0925,6.424 L240.1255,6.424 C240.382168,6.16733205 240.651665,5.9528342 240.934,5.7805 C241.216335,5.60816581 241.544498,5.522 241.9185,5.522 C242.483169,5.522 242.895665,5.69799824 243.156,6.05 C243.416335,6.40200176 243.5465,6.92266322 243.5465,7.612 L243.5465,11 L242.6445,11 L242.6445,7.733 C242.6445,7.22699747 242.563834,6.86216779 242.4025,6.6385 C242.241166,6.41483222 241.984502,6.303 241.6325,6.303 C241.353832,6.303 241.108168,6.37266597 240.8955,6.512 C240.682832,6.65133403 240.440835,6.85666531 240.1695,7.128 L240.1695,11 L239.2675,11 L239.2675,5.654 Z M245.7135,6.391 L244.9215,6.391 L244.9215,5.709 L245.7575,5.654 L245.8675,4.158 L246.6265,4.158 L246.6265,5.654 L248.0675,5.654 L248.0675,6.391 L246.6265,6.391 L246.6265,9.361 C246.6265,9.69100165 246.686999,9.94583243 246.808,10.1255 C246.929001,10.3051676 247.143498,10.395 247.4515,10.395 C247.546834,10.395 247.649499,10.3803335 247.7595,10.351 C247.869501,10.3216665 247.9685,10.2886669 248.0565,10.252 L248.2325,10.934 C248.085833,10.9853336 247.926334,11.0311665 247.754,11.0715 C247.581666,11.1118335 247.411168,11.132 247.2425,11.132 C246.956499,11.132 246.716334,11.0880004 246.522,11 C246.327666,10.9119996 246.170001,10.7910008 246.049,10.637 C245.927999,10.4829992 245.841834,10.2960011 245.7905,10.076 C245.739166,9.8559989 245.7135,9.61400132 245.7135,9.35 L245.7135,6.391 Z M254.4585,3.905 C254.260499,3.81699956 254.058834,3.773 253.8535,3.773 C253.354831,3.773 253.1055,4.11766322 253.1055,4.807 L253.1055,5.654 L254.2385,5.654 L254.2385,6.391 L253.1055,6.391 L253.1055,11 L252.2035,11 L252.2035,6.391 L251.4775,6.391 L251.4775,5.709 L252.2035,5.654 L252.2035,4.807 C252.2035,4.25699725 252.329999,3.82433491 252.583,3.509 C252.836001,3.19366509 253.230164,3.036 253.7655,3.036 C253.934168,3.036 254.093666,3.05249983 254.244,3.0855 C254.394334,3.11850017 254.531833,3.16066641 254.6565,3.212 L254.4585,3.905 Z M255.9985,4.554 C255.822499,4.554 255.674001,4.49900055 255.553,4.389 C255.431999,4.27899945 255.3715,4.13966751 255.3715,3.971 C255.3715,3.79499912 255.431999,3.65383386 255.553,3.5475 C255.674001,3.44116613 255.822499,3.388 255.9985,3.388 C256.174501,3.388 256.322999,3.44116613 256.444,3.5475 C256.565001,3.65383386 256.6255,3.79499912 256.6255,3.971 C256.6255,4.13966751 256.565001,4.27899945 256.444,4.389 C256.322999,4.49900055 256.174501,4.554 255.9985,4.554 Z M255.5365,5.654 L256.4385,5.654 L256.4385,11 L255.5365,11 L255.5365,5.654 Z M258.5175,5.654 L259.2655,5.654 L259.3425,6.424 L259.3755,6.424 C259.632168,6.16733205 259.901665,5.9528342 260.184,5.7805 C260.466335,5.60816581 260.794498,5.522 261.1685,5.522 C261.733169,5.522 262.145665,5.69799824 262.406,6.05 C262.666335,6.40200176 262.7965,6.92266322 262.7965,7.612 L262.7965,11 L261.8945,11 L261.8945,7.733 C261.8945,7.22699747 261.813834,6.86216779 261.6525,6.6385 C261.491166,6.41483222 261.234502,6.303 260.8825,6.303 C260.603832,6.303 260.358168,6.37266597 260.1455,6.512 C259.932832,6.65133403 259.690835,6.85666531 259.4195,7.128 L259.4195,11 L258.5175,11 L258.5175,5.654 Z M264.5455,9.614 C264.5455,9.0273304 264.807664,8.57816822 265.332,8.2665 C265.856336,7.95483177 266.690494,7.73666729 267.8345,7.612 C267.8345,7.44333249 267.818,7.27833414 267.785,7.117 C267.752,6.95566586 267.693334,6.81266729 267.609,6.688 C267.524666,6.56333271 267.412834,6.46250039 267.2735,6.3855 C267.134166,6.30849961 266.954501,6.27 266.7345,6.27 C266.419165,6.27 266.127668,6.32866608 265.86,6.446 C265.592332,6.56333392 265.352168,6.6953326 265.1395,6.842 L264.7765,6.215 C265.025835,6.05366586 265.330165,5.89783408 265.6895,5.7475 C266.048835,5.59716592 266.444831,5.522 266.8775,5.522 C267.53017,5.522 268.003165,5.72183134 268.2965,6.1215 C268.589835,6.52116867 268.7365,7.05466333 268.7365,7.722 L268.7365,11 L267.9885,11 L267.9115,10.362 L267.8895,10.362 C267.632832,10.5746677 267.356001,10.7561659 267.059,10.9065 C266.761999,11.0568341 266.448502,11.132 266.1185,11.132 C265.663831,11.132 265.288001,11.0000013 264.991,10.736 C264.693999,10.4719987 264.5455,10.0980024 264.5455,9.614 Z M265.4365,9.548 C265.4365,9.85600154 265.526332,10.0759993 265.706,10.208 C265.885668,10.3400007 266.107499,10.406 266.3715,10.406 C266.628168,10.406 266.871999,10.3455006 267.103,10.2245 C267.334001,10.1034994 267.577832,9.92566784 267.8345,9.691 L267.8345,8.206 C267.387164,8.26466696 267.009502,8.33433293 266.7015,8.415 C266.393498,8.49566707 266.146001,8.59099945 265.959,8.701 C265.771999,8.81100055 265.638167,8.93749928 265.5575,9.0805 C265.476833,9.22350072 265.4365,9.37933249 265.4365,9.548 Z M270.7165,5.654 L271.4645,5.654 L271.5415,6.424 L271.5745,6.424 C271.831168,6.16733205 272.100665,5.9528342 272.383,5.7805 C272.665335,5.60816581 272.993498,5.522 273.3675,5.522 C273.932169,5.522 274.344665,5.69799824 274.605,6.05 C274.865335,6.40200176 274.9955,6.92266322 274.9955,7.612 L274.9955,11 L274.0935,11 L274.0935,7.733 C274.0935,7.22699747 274.012834,6.86216779 273.8515,6.6385 C273.690166,6.41483222 273.433502,6.303 273.0815,6.303 C272.802832,6.303 272.557168,6.37266597 272.3445,6.512 C272.131832,6.65133403 271.889835,6.85666531 271.6185,7.128 L271.6185,11 L270.7165,11 L270.7165,5.654 Z M276.6125,8.338 C276.6125,7.89066443 276.682166,7.49283508 276.8215,7.1445 C276.960834,6.79616492 277.147832,6.50100121 277.3825,6.259 C277.617168,6.01699879 277.890332,5.83366729 278.202,5.709 C278.513668,5.58433271 278.841832,5.522 279.1865,5.522 C279.538502,5.522 279.840999,5.58616603 280.094,5.7145 C280.347001,5.84283397 280.565166,5.99133249 280.7485,6.16 L280.2975,6.743 C280.136166,6.60366597 279.969334,6.49000044 279.797,6.402 C279.624666,6.31399956 279.432168,6.27 279.2195,6.27 C278.977499,6.27 278.753834,6.3194995 278.5485,6.4185 C278.343166,6.5175005 278.167167,6.65866575 278.0205,6.842 C277.873833,7.02533425 277.758334,7.24349874 277.674,7.4965 C277.589666,7.74950127 277.5475,8.02999846 277.5475,8.338 C277.5475,8.64600154 277.587833,8.92466542 277.6685,9.174 C277.749167,9.42333458 277.860999,9.63783243 278.004,9.8175 C278.147001,9.99716756 278.321166,10.1364995 278.5265,10.2355 C278.731834,10.3345005 278.955499,10.384 279.1975,10.384 C279.454168,10.384 279.686999,10.3308339 279.896,10.2245 C280.105001,10.1181661 280.290166,9.9916674 280.4515,9.845 L280.8585,10.439 C280.616499,10.6516677 280.347001,10.8203327 280.05,10.945 C279.752999,11.0696673 279.443168,11.132 279.1205,11.132 C278.768498,11.132 278.438502,11.0696673 278.1305,10.945 C277.822498,10.8203327 277.556668,10.6388345 277.333,10.4005 C277.109332,10.1621655 276.933334,9.86883507 276.805,9.5205 C276.676666,9.17216493 276.6125,8.7780022 276.6125,8.338 Z M281.6725,8.338 C281.6725,7.8979978 281.740333,7.50383508 281.876,7.1555 C282.011667,6.80716492 282.191332,6.51200121 282.415,6.27 C282.638668,6.02799879 282.893499,5.84283397 283.1795,5.7145 C283.465501,5.58616603 283.762498,5.522 284.0705,5.522 C284.407835,5.522 284.710332,5.58066608 284.978,5.698 C285.245668,5.81533392 285.469332,5.9839989 285.649,6.204 C285.828668,6.4240011 285.966166,6.68799846 286.0615,6.996 C286.156834,7.30400154 286.2045,7.64866476 286.2045,8.03 C286.2045,8.22800099 286.1935,8.39299934 286.1715,8.525 L282.5635,8.525 C282.600167,9.10433623 282.777998,9.56266498 283.097,9.9 C283.416002,10.237335 283.832164,10.406 284.3455,10.406 C284.602168,10.406 284.838666,10.3675004 285.055,10.2905 C285.271334,10.2134996 285.478499,10.1126673 285.6765,9.988 L285.9955,10.582 C285.760832,10.7286674 285.500501,10.8569994 285.2145,10.967 C284.928499,11.0770006 284.602169,11.132 284.2355,11.132 C283.876165,11.132 283.540668,11.067834 283.229,10.9395 C282.917332,10.811166 282.646001,10.6278345 282.415,10.3895 C282.183999,10.1511655 282.002501,9.85966839 281.8705,9.515 C281.738499,9.17033161 281.6725,8.7780022 281.6725,8.338 Z M285.4125,7.931 C285.4125,7.38099725 285.297001,6.96116811 285.066,6.6715 C284.834999,6.38183189 284.510502,6.237 284.0925,6.237 C283.901832,6.237 283.720334,6.27549962 283.548,6.3525 C283.375666,6.42950039 283.219834,6.53949929 283.0805,6.6825 C282.941166,6.82550072 282.825667,7.00149896 282.734,7.2105 C282.642333,7.41950105 282.581833,7.65966531 282.5525,7.931 L285.4125,7.931 Z M287.6125,10.45 C287.6125,10.2373323 287.676666,10.066834 287.805,9.9385 C287.933334,9.81016603 288.089166,9.746 288.2725,9.746 C288.448501,9.746 288.600666,9.81016603 288.729,9.9385 C288.857334,10.066834 288.9215,10.2373323 288.9215,10.45 C288.9215,10.648001 288.857334,10.811166 288.729,10.9395 C288.600666,11.067834 288.448501,11.132 288.2725,11.132 C288.089166,11.132 287.933334,11.067834 287.805,10.9395 C287.676666,10.811166 287.6125,10.648001 287.6125,10.45 Z" id="Visualizationstohelpyouunderstandgovernmentfinance." fill="#4F4F4F" fill-rule="nonzero"></path>
    </g>
</svg>