<?xml version="1.0" encoding="UTF-8"?>
<svg width="221px" height="129px" viewBox="0 0 221 129" version="1.1" xmlns="http://www.w3.org/2000/svg" xmlns:xlink="http://www.w3.org/1999/xlink">
    <!-- Generator: Sketch 59.1 (86144) - https://sketch.com -->
    <title>Group 1766</title>
    <desc>Created with Sketch.</desc>
    <g id="Desktop" stroke="none" stroke-width="1" fill="none" fill-rule="evenodd">
        <g id="Homelessness-Section-3-6" transform="translate(-551.000000, -2466.000000)">
            <g id="Group-176" transform="translate(551.000000, 2466.000000)">
                <text id="44,887,066" font-family="SourceSansPro-Semibold, Source Sans Pro" font-size="25.5" font-weight="500" letter-spacing="0.00749999983" fill="#FFFFFF">
                    <tspan x="38.50485" y="64.4028926">44,887,066</tspan>
                </text>
                <g id="Group-175" transform="translate(0.000000, 0.606000)">
                    <path d="M210.38295,27.957 C210.36195,28.02525 210.3387,28.113 210.3222,28.2165 C210.3387,28.12875 210.36195,28.04475 210.36195,27.98175 C210.3387,28.02075 210.3222,28.04475 210.30045,28.09875 C210.3387,28.02525 210.3387,27.957 210.38295,27.90825 L210.38295,27.957 Z M185.01495,59.80575 C185.0757,59.8935 185.1147,59.92725 185.1762,59.99625 C185.1072,59.91225 185.01495,59.82525 184.9317,59.74275 C184.9497,59.79 184.9932,59.79 185.01495,59.80575 L185.01495,59.80575 Z M220.6227,24.039 L220.6227,23.79525 C220.59195,23.829 220.56195,23.88825 220.5492,23.937 C220.5492,23.81475 220.46595,23.74125 220.4352,23.6625 C220.30545,23.95125 219.90495,23.51175 220.24395,23.3355 C220.30545,23.3205 220.34445,23.30175 220.3887,23.26725 L220.3887,23.262 L220.3887,23.193 L220.3272,23.17425 L220.26645,22.99275 L220.26645,22.93425 L220.2222,22.89975 L220.1397,22.73325 L220.1397,22.68075 L220.1097,22.6455 L220.0182,22.47375 L220.0182,22.46025 L219.90495,22.46025 L219.85245,22.42575 L219.82245,22.509 L219.6702,22.57725 L219.41295,22.57725 L219.28245,22.509 L219.23895,22.42575 L219.1482,22.3815 L219.05595,22.23975 L218.98695,22.0785 L218.98695,22.05825 L218.9127,21.98025 L218.90295,21.9075 L218.79945,21.858 L218.7522,21.68175 L218.7522,21.54525 L218.79945,21.38925 L218.87295,21.36975 L218.87295,21.291 L218.9127,21.12975 L218.79945,21.06075 L218.7522,20.88975 L218.7522,20.50875 L218.79945,20.322 L218.90295,20.22075 L218.6172,20.22075 L218.46345,20.14125 L218.41245,20.10225 L218.2602,20.10225 L218.11695,20.019 L218.0862,19.92675 L217.99395,19.8915 L217.97295,19.84425 L217.91145,19.84425 L217.7682,19.76025 L217.65495,19.62375 L217.6032,19.53075 L217.52445,19.49625 L217.47195,19.3245 L217.5117,19.188 L217.47195,19.06575 L217.47195,18.939 L217.52445,18.762 L217.6032,18.7275 L217.5717,18.66 L217.5717,18.40575 L217.6032,18.3375 L217.5717,18.27825 L217.5717,12.429 C217.5327,12.39975 217.52445,12.3795 217.5117,12.3405 L217.44195,12.3405 L217.2897,12.29625 L217.25445,12.19425 L217.1937,12.1455 L217.1322,12.0525 L217.0722,12.018 L216.98895,11.847 L216.98895,11.784 L216.94995,11.7585 L216.9057,11.652 L216.8277,11.61225 L216.7977,11.55825 L216.7452,11.55825 L216.59295,11.49975 L216.5502,11.39175 L216.48945,11.3475 L216.45795,11.304 L216.3972,11.304 L216.25395,11.2215 L216.2142,11.13225 L216.1317,11.0985 L216.1107,11.031 L216.0492,11.031 L215.8842,10.96125 L215.87445,10.90875 L215.7837,10.90875 L215.7837,11.0595 L215.7222,11.2215 L215.57895,11.304 L215.2227,11.304 L215.14845,11.28525 L215.10945,11.304 L214.96545,11.304 L214.92195,11.358 L214.8432,11.39175 L214.80045,11.49975 L214.6392,11.55825 L214.2612,11.55825 L214.2087,11.61225 L214.0557,11.691 L213.9822,11.691 L213.9822,11.7585 L213.82995,11.823 L213.5937,11.823 L213.4422,11.7585 L213.41145,11.691 L213.3462,11.691 L213.20745,11.61225 L213.16395,11.55825 L213.1242,11.55825 L212.98095,11.49975 L212.9202,11.31825 L212.9202,11.28975 L212.8587,11.2305 C212.83695,11.21625 212.83695,11.18175 212.83695,11.13225 C212.8152,11.0985 212.7987,11.0835 212.7987,11.0595 L212.7987,10.59525 L212.73795,10.566 L212.6637,10.473 L212.49795,10.37475 L212.3757,10.5405 L212.26245,10.7715 L212.2542,10.79025 L212.01045,11.18175 L211.99695,11.2215 L211.7532,11.48025 L211.7532,11.49975 L211.5267,11.7585 L211.32345,11.99925 L211.0872,12.3705 L211.0572,12.39975 L210.83145,12.65925 L210.6177,13.03125 L210.40395,13.4175 L210.15645,13.8135 L210.11745,13.85175 L209.89095,14.10675 L209.69445,14.3265 L209.48145,15.672 L209.48145,15.774 L209.42145,15.9555 L209.27745,16.01325 L209.20845,16.01325 L209.19495,16.083 L209.1117,16.1115 L209.09445,16.21425 L209.02095,16.2195 L209.02095,16.302 L208.96845,16.49325 L208.80645,16.542 L208.78545,16.542 L208.78545,16.6935 L208.7247,16.8255 L208.7682,16.8705 C208.80645,16.89375 208.86795,16.953 208.8897,16.992 C208.92045,17.08575 208.8987,17.1975 208.8462,17.28075 L208.78545,17.33475 L208.78545,17.3535 L208.7247,17.52525 L208.6632,17.54475 L208.6632,17.613 L208.6122,17.77425 L208.7247,17.84775 L208.78545,18.01875 L208.78545,18.40575 L208.7247,18.552 L208.6422,18.6105 L208.6122,18.70875 L208.54245,18.7275 L208.48095,18.84525 L208.31595,18.89925 L208.28445,18.89925 L208.24545,18.9825 L208.2147,18.98775 L208.24545,19.00275 C208.31595,19.0905 208.31595,19.188 208.30695,19.281 C208.28445,19.359 208.2147,19.38825 208.17195,19.41825 L208.1412,19.49625 L208.07145,19.53075 L208.02795,19.62375 L207.8757,19.68675 L207.82395,19.68675 L207.7842,19.76025 L207.63195,19.84425 L207.55845,19.84425 L207.55845,19.8915 L207.4662,19.92675 L207.4587,20.019 L207.29295,20.10225 L207.27195,20.10225 L207.27195,20.10675 L207.21045,20.2785 L207.10995,20.313 C207.10995,20.367 207.0882,20.3955 207.04995,20.43 L207.0882,20.46525 L207.10995,20.54775 L207.21045,20.58225 L207.2532,20.69925 L207.32295,20.72325 L207.38445,20.88975 L207.38445,21.027 L207.32295,21.20325 L207.15795,21.26175 L206.8227,21.26175 L206.65695,21.20325 L206.65695,21.23175 L206.6802,21.291 L206.6802,21.41325 L206.5962,21.59475 L206.49645,21.72225 L206.4747,21.7515 L206.4747,21.80925 L206.38395,21.98025 L206.2407,22.05825 L206.10495,22.05825 L205.9827,21.98025 L205.91295,21.80925 L205.91295,21.7515 L205.8387,21.72225 L205.8087,21.59475 L205.7172,21.61875 L205.69545,21.72225 L205.5342,21.80475 L205.5132,21.80475 L205.5132,21.80925 L205.45245,21.98025 L205.30845,22.05825 L205.06395,22.05825 L204.92145,21.98025 L204.8472,21.92175 L204.83745,21.92175 L204.6852,21.858 L204.6642,21.819 L204.6252,21.858 L204.5517,21.9075 L204.5292,21.98025 L204.4677,22.0155 L204.4677,22.2105 L204.4077,22.3815 L204.3552,22.40625 L204.3552,22.47375 L204.26445,22.6455 L204.20295,22.68075 L204.1632,22.76325 L204.12045,22.8315 L204.12045,22.99275 C204.12045,23.13975 204.01995,23.24775 203.9157,23.24775 L203.01495,23.24775 L202.8402,23.3355 L202.7322,23.37 L199.92945,23.37 L199.77345,23.30175 L199.7112,23.24775 L197.0532,23.24775 L196.7172,23.3355 L196.6647,23.37 L191.5167,23.37 L191.43795,23.3355 L191.41695,23.37 L191.3427,23.37 L191.33445,23.43375 L191.1732,23.51175 L190.9767,23.51175 L190.96845,23.556 L190.80345,23.643 L190.79445,23.643 L190.7427,23.697 L190.5987,23.76075 L190.41645,23.76075 L190.38495,23.81475 L190.3107,23.853 L190.2717,23.95125 L190.11645,24.02475 L189.9852,24.02475 L189.92445,24.084 L189.8412,24.123 L189.81045,24.21075 L189.69795,24.348 C189.6582,24.387 189.6282,24.387 189.61545,24.4065 L189.5757,24.47025 L189.4107,24.5625 L189.37095,24.5625 C189.37095,24.60225 189.30945,24.636 189.26745,24.66 L189.0927,24.7725 L188.98395,24.86625 L188.6367,25.27125 L188.59245,25.31625 L188.3787,25.4385 L188.34795,25.482 L188.34795,25.497 L188.28795,25.67325 L188.1447,25.7415 L188.10045,25.7415 L188.0832,25.77525 L187.9782,25.986 L187.9392,26.04975 L187.85745,26.172 L187.7517,26.3775 L187.6437,26.49975 L187.44795,26.6025 L187.35645,26.715 L187.18245,26.77275 L186.99945,26.77275 L186.91695,26.91 C186.8727,26.99325 186.83445,27.0525 186.72945,27.0525 L186.5907,27.0525 L186.5907,27.19875 L186.5472,27.3705 L186.36495,27.4425 L186.0987,27.4425 L186.05445,27.51225 L185.93295,27.56175 L185.8722,27.6975 L185.8197,27.7665 L185.6067,28.02075 L185.1537,28.647 L184.70595,29.532 L184.70595,29.55675 L184.2447,30.35325 L184.0317,30.45075 L176.9727,30.45075 L176.07195,30.843 L175.35795,31.2345 L175.68345,31.90875 L175.7847,32.01675 L175.84545,32.18775 L175.84545,32.83275 L175.84545,32.86275 L175.84545,32.877 C175.88895,32.9205 175.9287,32.946 175.9407,32.994 C176.06295,33.009 176.15445,33.06375 176.1942,33.1515 C176.2152,33.20025 176.1942,33.3225 176.1762,33.414 L176.2542,33.4785 L176.31945,33.63 L176.31945,33.8895 L176.31945,33.95775 L176.2452,34.1595 C176.31945,34.3155 176.32845,34.4715 176.15445,34.57875 C175.11045,35.4195 174.05595,36.24675 172.9947,37.068 C171.2022,38.50125 168.79095,38.6145 166.94595,39.90525 C166.6317,40.11075 166.39695,40.4385 166.1097,40.6635 C165.4047,41.196 164.6952,41.142 163.86045,41.2455 C163.52895,41.29425 163.21095,41.46525 162.91545,41.52375 C162.26295,41.6355 161.30145,41.46525 160.6482,41.235 C160.97445,40.9755 161.32245,41.10825 161.6487,40.971 C161.97495,40.8345 162.00645,40.84875 161.52645,40.6725 C160.7172,40.3545 159.87795,40.0905 159.0507,39.79725 C159.41595,39.132 159.7557,38.48175 160.11345,37.812 L160.11345,37.78725 L160.11345,37.293 L160.18695,37.13625 L160.2342,37.068 L160.2342,36.912 L160.30095,36.741 L160.4607,36.66675 L160.4742,36.66675 L160.54395,36.61875 L160.6872,36.5355 L160.78695,36.5355 C160.98345,36.17325 161.19645,35.81175 161.37045,35.4645 C161.67945,34.87725 162.00645,34.86825 162.0972,35.484 L162.1887,35.484 C162.3237,35.136 162.44595,34.794 162.55845,34.452 L162.55845,33.8895 L162.6327,33.7185 L162.69345,33.67425 L162.69345,33.63 L162.7542,33.4785 L162.8157,33.414 L162.8157,33.36675 L162.8367,33.26325 L162.86745,33.165 C162.8367,33.06375 162.7932,32.94075 162.72345,32.745 C162.69345,32.54925 162.6327,32.31975 162.6027,32.11875 C162.52845,31.6845 162.50595,31.263 162.4062,30.843 C162.26295,30.0555 162.26295,28.95975 161.73195,28.3485 C160.99245,27.51225 160.13445,28.38225 159.37695,28.84725 C159.02895,29.0715 157.64895,30.222 157.32345,29.84025 C157.1877,29.66325 157.2792,29.3415 157.29345,29.13075 C157.32345,28.95975 157.35345,28.695 157.4757,28.5045 C157.7412,28.06875 158.31495,28.2705 158.5812,27.87375 C158.73345,27.62925 158.6202,27.3555 158.73345,27.10125 C158.9067,26.739 159.2952,26.83725 159.4992,26.5335 C159.7257,26.172 159.7257,24.744 159.66495,24.3135 C159.5907,23.74125 158.4372,22.46025 159.7257,22.9245 C159.71595,22.44 159.4992,22.46025 159.37695,22.12275 C159.3162,21.9075 159.3372,21.687 159.25545,21.56475 C159.0732,21.23175 158.3847,21.04125 158.08845,20.88975 C157.6587,20.72325 157.21095,20.65575 156.83145,20.4705 C156.4527,20.29875 156.39195,19.72125 155.8782,19.608 C155.5602,19.55025 155.38695,19.63725 155.0907,19.515 C154.8777,19.38825 154.6902,19.1685 154.44645,19.07025 C154.21995,18.9975 153.57645,18.8655 153.4017,19.06575 C153.11895,19.359 152.9757,20.97225 153.59745,20.91 C153.15795,21.2565 152.52345,21.003 152.07495,21.46275 C151.69545,21.858 151.8267,22.46025 151.7877,23.02725 C151.74795,23.6625 151.5747,23.0415 151.3392,23.18475 C151.19595,23.262 151.0392,24.00525 150.9612,24.17175 C150.72045,23.8485 150.9612,23.51175 151.00845,23.16375 C150.9612,23.16375 150.9612,23.193 150.9297,23.193 C150.9612,22.99275 151.21245,22.05825 150.91695,22.1415 C150.8472,22.1715 150.5382,22.6995 150.45645,22.78725 C150.38595,22.93425 150.3117,23.26725 150.17295,23.3355 C150.04695,23.43375 149.95545,23.18475 149.8647,23.232 C149.76345,23.26725 149.71995,23.418 149.61945,23.4915 C149.5287,23.526 149.3547,23.46825 149.31045,23.51175 C149.1282,23.76075 149.08545,24.17175 148.9107,24.43125 C148.86345,24.519 148.66695,24.504 148.6152,24.60225 C148.08345,25.365 148.0137,26.77275 147.7362,27.684 C147.57495,28.18275 147.87045,28.61175 147.91845,29.151 C147.99195,29.82 147.70545,30.50475 147.8577,31.17525 C147.9312,31.56225 148.1667,32.37825 148.58445,32.0355 C148.59795,32.60325 148.59795,32.9205 148.6977,33.396 C148.7367,33.68475 148.7187,33.98775 148.7277,34.27125 C148.75845,36.3255 147.3357,38.01225 146.41695,39.68475 C146.6307,39.68475 146.9922,39.612 147.1827,39.68475 C147.4092,39.79725 147.57495,40.18425 147.5922,40.545 C147.57495,40.1295 147.3177,39.74925 146.89545,39.68475 C146.20395,39.612 145.79445,40.21275 145.1592,40.35 C144.68895,40.4385 143.9712,40.18425 143.7882,39.729 C143.2362,38.48175 142.76595,37.563 142.78245,36.17325 C142.8477,35.0295 142.56045,33.855 142.4697,32.70525 C142.4172,32.154 142.50045,31.84575 142.64445,31.326 C142.86645,30.44175 142.88745,29.478 143.1312,28.5975 C143.3187,27.8295 143.64495,27.2535 143.8107,26.475 C143.96145,25.815 144.15345,25.2375 144.40245,24.6165 C144.46245,24.43125 144.5022,24.10725 144.37095,23.88825 C144.6462,24.10725 145.1592,23.4525 145.2807,23.208 C145.59045,22.57725 145.59045,22.2735 145.52445,21.54525 C145.3857,21.819 145.33395,22.0155 145.13745,22.23975 C145.04595,22.3275 144.96345,22.2345 144.8112,22.3815 C144.7677,22.47375 144.78045,22.728 144.70695,22.8315 C144.6762,22.89075 144.5022,22.97325 144.46245,23.09625 C144.35895,23.26725 144.18345,23.6625 144.35895,23.8485 C144.3192,23.805 144.2577,23.74125 144.17595,23.74125 C143.94945,23.6535 143.44095,23.95125 143.2572,24.25425 C142.96995,24.6945 142.9182,24.978 142.4172,25.2285 C142.2522,25.32525 142.4172,25.55625 142.1082,25.395 C141.87345,25.27125 141.9642,25.22325 141.9642,24.9645 C142.02945,24.66525 142.20045,24.43125 142.3572,24.21075 C142.45695,24.00525 142.5837,23.526 142.70445,23.38425 C142.78245,23.30175 142.94895,23.38425 143.03145,23.3205 C143.2572,23.076 143.50095,22.79775 143.6232,22.46025 C143.7882,21.9075 144.15345,21.4965 144.43245,21.027 C144.60645,20.75775 144.70695,20.46525 144.85095,20.14125 C144.78045,20.14125 144.7287,20.10675 144.68895,20.06775 C144.7677,20.10675 144.85095,20.049 145.01595,19.92675 C145.50795,19.53075 145.6077,18.89925 145.87245,18.31275 C145.8552,18.70875 145.9032,19.0905 145.87245,19.476 C146.1207,19.38825 146.3427,19.22625 146.49945,18.9975 C146.52945,18.9585 146.5992,18.65025 146.6127,18.65025 C146.49945,18.714 147.44895,18.504 147.38745,18.435 C147.9837,18.8025 146.31195,19.53075 147.16095,19.92675 C147.4092,19.49625 147.44895,19.296 147.79695,19.06575 C147.87045,19.01625 148.08345,18.9585 148.14495,18.89925 C148.2492,18.8025 148.2282,18.62625 148.31895,18.504 C148.6977,17.92125 149.28945,17.92125 149.8647,18.234 C149.84145,17.814 150.6822,18.03825 150.9612,17.84775 C151.13445,17.68125 151.1517,17.427 151.3872,17.33475 C151.58295,17.23125 151.96095,17.33475 152.1747,17.388 C152.46195,17.427 152.84895,17.574 153.08895,17.71125 C153.3627,17.88675 153.82395,18.62625 154.1592,18.6105 C154.52895,18.59625 154.21995,17.73 154.5897,17.589 C154.8552,17.48625 155.44695,17.84775 155.7567,17.84775 C156.04395,17.90175 156.34845,17.92125 156.6357,17.9745 C156.80145,18.0045 157.40145,18.21 157.44495,17.90175 C157.44495,17.90175 157.44495,17.84775 157.4232,17.84775 L157.32345,17.84775 C157.21095,17.84775 157.1487,17.814 157.11795,17.73 L157.02345,17.5095 L156.91395,17.388 L156.91395,17.3685 C156.88395,17.364 156.8622,17.33475 156.84795,17.33475 C156.8397,17.28525 156.8397,17.28075 156.8622,17.23125 L156.73995,17.1825 L156.6747,17.12925 L156.55245,17.007 L156.5052,16.8255 L156.5052,16.76175 C156.4227,16.6935 156.36945,16.64475 156.3087,16.5765 C156.36945,16.49325 156.1962,15.8385 156.04395,15.59775 C156.04395,15.564 156.0132,15.5145 155.9832,15.49575 L155.5602,15.49575 L155.5212,15.63675 C155.46945,15.70575 155.39895,15.7545 155.3082,15.7545 L154.9602,15.7545 L154.8042,15.672 L154.1802,14.85975 C153.9372,14.79525 153.6897,14.74275 153.4452,14.68875 C153.01545,14.6595 153.25845,13.9695 153.4977,13.75875 C152.93145,13.7205 152.2662,13.92525 151.71345,14.00325 C150.7737,14.15625 149.81145,14.3265 148.86345,14.48325 C148.55445,14.52225 148.2492,14.73225 147.99195,14.87475 C147.7362,15.021 147.5307,15.29025 147.3177,15.4215 C146.93895,15.61275 146.6307,15.35325 146.20395,15.168 C145.5987,14.904 144.96345,14.982 144.34095,14.8305 C144.34095,14.75625 143.68395,13.8135 143.5407,13.65675 C142.99245,13.00125 142.20045,13.0695 141.4167,12.91725 C141.4647,12.8595 141.4947,12.80025 141.51645,12.76125 C141.08595,12.9915 140.61645,13.35825 140.3202,13.8135 C140.2497,13.43175 140.4552,13.05525 140.41095,12.72675 C140.38995,12.576 140.18445,12.165 140.16795,12.111 C140.0157,11.979 139.8192,11.784 139.68495,11.6805 C139.64595,11.63625 139.7757,11.421 139.65345,11.3475 C139.5102,11.2305 138.79695,11.7585 138.6312,11.83725 C137.4642,12.4485 136.31145,13.0695 135.1542,13.68075 C135.1542,13.68075 135.1542,13.69125 135.13245,13.69125 L135.13245,13.68075 C134.45745,14.0475 133.7742,14.39475 133.09995,14.75625 C132.7827,14.94225 131.73795,14.175 131.3682,13.9845 C131.1462,13.85175 131.69445,13.40775 131.67645,13.1625 C131.65545,12.3165 129.81345,13.392 129.4437,13.54875 C129.0567,13.7205 128.66895,13.95 128.2392,14.0475 C127.71645,14.175 127.20795,13.95 126.6717,13.8135 C127.9737,12.62925 129.30045,11.421 130.5927,10.24725 C131.1462,9.75825 131.5947,9.324 132.2082,8.9955 C133.2912,8.43375 134.45745,7.98375 135.6237,7.455 L135.5412,7.41525 L135.48045,7.36275 L135.39795,7.36275 L135.38895,7.41525 L135.2367,7.494 L135.17595,7.494 L135.1542,7.55325 L134.98845,7.62675 L134.8452,7.55325 L134.8272,7.494 L134.6622,7.494 L134.50095,7.41525 L134.4357,7.24425 L134.4357,7.18125 L134.3967,7.176 C134.0922,7.122 133.78395,7.06875 133.45695,6.966 C133.76145,7.005 134.02695,7.02525 134.32695,7.06875 L134.25345,7.02525 L134.24445,6.92175 L134.1537,6.903 L134.10945,6.834 L133.6917,6.834 L133.6392,6.903 L133.4652,6.966 L132.5337,6.966 L132.43395,6.903 L132.3117,6.966 L131.71545,6.966 L131.5632,6.903 L131.5422,6.81975 L131.45895,6.76575 L131.3892,6.6045 L131.3892,6.5265 L131.3367,6.50625 L131.2857,6.3165 L131.2857,6.30075 L131.24595,6.306 L131.0847,6.306 L131.0637,6.37425 L130.9197,6.43875 L130.8582,6.43875 L130.83645,6.50625 L130.6542,6.57 L130.6107,6.57 L130.57995,6.6285 L130.4367,6.6975 L130.4277,6.6975 L130.36695,6.76575 L130.28445,6.81975 L130.23195,6.903 L130.1622,6.92175 L130.1322,7.02525 L129.96645,7.10325 L129.6927,7.10325 L129.6702,7.161 L129.5097,7.22475 L128.6787,7.22475 L128.5257,7.161 L128.4957,6.99075 L128.4957,6.966 L128.2167,6.966 L128.0652,6.903 L128.0127,6.7215 L128.0127,6.6045 C128.0127,6.57 128.0337,6.54525 128.0337,6.54525 L127.95195,6.50625 L127.93395,6.43875 L127.6332,6.43875 L127.50345,6.37425 L127.45995,6.306 L127.28595,6.306 L127.1337,6.2325 L127.1022,6.14475 L127.0332,6.11025 L126.98145,6.012 L126.8982,5.973 L126.8457,5.802 L126.8457,5.65125 L126.5937,5.65125 C126.56295,5.65125 126.54195,5.6265 126.54195,5.6265 C126.49845,5.6265 126.48945,5.65125 126.45945,5.65125 L126.21495,5.65125 L126.21495,5.94 C126.21495,6.0315 126.1497,6.11025 126.07095,6.14475 L126.04995,6.2325 L125.8842,6.306 L125.77545,6.306 L125.6322,6.2325 L125.58795,6.13425 L125.4972,6.11025 L125.41395,5.94 L125.41395,5.8755 L125.38395,5.84175 L125.34495,5.748 C125.28345,5.71425 125.2092,5.65125 125.2092,5.529 L125.2092,5.22975 L125.14845,5.18625 L125.12745,5.1315 L124.49595,5.1315 L124.33095,5.05875 L124.2612,4.89225 L124.2612,4.61325 L124.2702,4.57875 L124.23045,4.53975 L124.1652,4.482 L124.0257,4.482 L123.8607,4.40775 L123.8082,4.34925 L123.7692,4.34925 L123.6342,4.272 L123.5727,4.20225 L123.5562,4.20225 L123.39045,4.13925 L123.39045,4.10025 L123.3387,4.13925 L123.22545,4.20225 L122.8467,4.20225 L122.69445,4.13925 L122.6727,4.08 L122.32395,4.08 L122.28495,4.13925 L122.1417,4.20225 L122.02845,4.20225 C122.01945,4.20225 121.9977,4.197 121.98045,4.17825 C121.9452,4.197 121.9377,4.20225 121.9152,4.20225 L121.8762,4.20225 L121.8762,4.35975 L121.83645,4.53975 L121.6932,4.60875 L121.2927,4.60875 L121.24095,4.6725 C121.17945,4.73625 121.09695,4.755 121.01895,4.7115 L120.9747,4.73625 L120.40545,4.73625 L120.2397,4.6725 L120.2097,4.57875 L120.13545,4.53975 L120.0657,4.35975 L120.0657,4.1535 L120.0267,4.13925 L119.99595,4.08 L118.99095,4.08 L118.8297,4.0065 L118.79445,3.9435 L118.6647,3.9435 L118.48995,3.89025 L118.4202,3.7035 L118.4202,3.69 L118.13295,3.69 L118.08945,3.738 L117.9462,3.81225 L117.7032,3.81225 L117.55845,3.738 L117.52845,3.69 L117.35445,3.69 L117.2022,3.621 L117.17145,3.528 C117.11145,3.4845 117.07995,3.44925 117.0672,3.3915 L116.9847,3.34725 L116.9457,3.25875 C116.86245,3.225 116.8017,3.156 116.8017,3.04875 L116.8017,2.28075 L116.68845,1.9395 L116.68845,1.8645 L116.68845,1.67475 L116.5752,1.464 L116.5572,1.347 L116.5572,1.26375 L116.47545,1.06725 L116.43645,0.95025 L116.43645,0.75 L116.3532,0.53925 L116.33145,0.4275 L116.33145,0.3885 L116.0877,0.23625 C116.0667,0.2175 116.02695,0.192 116.0052,0.144 L115.47495,0.144 L115.47495,1.8645 L115.40895,2.0355 L115.26945,2.10525 L11.81895,2.10525 C11.7882,2.22675 11.8047,2.36325 11.87895,2.589 C11.9277,2.7405 12.1452,2.9505 12.19695,3.03375 C12.4317,3.3915 12.09195,3.34275 12.81045,3.225 C12.6237,3.651 13.03245,3.7035 13.0542,4.0665 C13.0542,4.1535 12.8892,4.5015 12.8502,4.57875 C12.81045,4.64325 12.9627,4.7115 12.8892,4.7895 C12.79695,4.9215 12.4932,4.995 12.37995,5.073 C12.56295,4.9455 13.1367,5.445 13.27995,5.724 C13.46295,6.13425 13.21995,6.54 13.6077,6.951 C13.7727,7.122 13.95495,7.02525 13.9332,7.24425 C13.9332,7.36275 13.6377,7.46475 13.5762,7.58175 C13.5462,7.6215 13.47195,7.8615 13.46295,7.96875 C13.4112,8.05725 13.3197,8.076 13.27995,8.23275 C13.23795,8.3655 13.3812,8.51625 13.3632,8.57025 C13.3632,8.65425 13.21995,8.8245 13.21995,8.883 C13.2282,8.91675 13.27995,9.1035 13.27995,9.153 C13.27995,9.132 13.4547,9.37725 13.46295,9.45075 C13.46295,9.519 13.27995,9.6075 13.26795,9.70425 C13.26795,9.75825 13.3632,9.84225 13.3632,9.906 C13.3632,10.0335 13.47195,10.233 13.47195,10.31625 C13.46295,10.67775 13.4547,10.443 13.29795,10.737 C13.1367,11.0595 12.9102,11.13225 12.54045,11.50875 C12.09195,11.94 11.9787,11.886 11.35695,12.111 C11.38695,12.1455 11.38695,12.19425 11.38695,12.228 C10.94745,12.19425 11.0397,11.91975 11.2527,11.61225 C11.0787,11.715 10.92645,11.886 10.74345,11.94975 C10.8432,11.784 11.04795,11.6805 11.15295,11.49975 C11.2347,11.3775 11.19195,11.18175 11.2662,11.0595 C11.40495,10.79025 11.6622,10.83975 11.6622,10.41 C11.7882,10.83975 11.57895,11.18175 11.83545,11.52975 C11.9487,10.94175 12.0012,10.7715 12.3492,10.40475 L12.3672,10.37475 C12.3492,10.40475 12.3492,10.41 12.32745,10.41 L12.3492,10.41 L12.32745,10.41 C12.27495,10.59525 12.19695,10.737 12.1752,10.90875 C13.1982,10.68825 12.7062,9.2355 12.27495,8.604 C12.37995,8.6775 12.9192,8.63325 12.9627,8.535 C13.03245,8.33025 12.79695,7.96875 12.76695,7.695 C12.56295,8.05725 12.19695,8.29575 11.9277,8.7015 C11.7222,9.03525 11.5182,9.03525 11.19195,9.31425 C11.00895,9.48525 10.82595,9.8565 10.72995,10.08075 C10.6212,10.37475 10.43445,10.37475 10.7517,10.473 C10.94745,10.527 11.33595,10.30125 11.5182,10.179 C11.4402,10.2525 10.5567,10.94175 10.5177,10.5795 C10.46445,10.2135 10.74345,9.75825 10.92645,9.47475 C11.10045,9.21075 11.31345,9.069 11.40495,8.79 C11.5617,8.502 11.4792,8.13975 11.6622,8.0175 C11.7447,8.29575 11.7222,8.595 11.6442,8.8245 C11.83545,8.63325 12.02295,8.2725 12.1752,8.0175 C12.29745,7.773 12.4797,7.8615 12.2577,7.5585 C12.0102,7.2795 11.6922,6.7215 11.9097,6.4335 C11.8047,6.5265 11.6622,7.10325 11.57895,7.137 C11.33595,7.24425 10.5777,6.462 10.5387,6.24675 C9.5952,6.24675 8.7147,6.50625 7.78395,6.3165 C6.66195,6.13425 5.57745,5.529 4.52445,5.1315 C4.56345,5.84175 4.55445,6.5265 4.73745,7.22475 C4.9812,8.1735 5.57745,8.9955 5.93445,9.867 C6.05595,10.08075 5.99595,10.326 6.0702,10.5405 C6.19095,10.96125 6.46545,11.32875 6.5697,11.7585 C6.65295,12.1215 6.66195,12.468 6.5697,12.83025 C6.85245,11.715 7.21395,12.69825 7.91895,12.708 C7.6752,12.83475 6.9657,12.942 7.0917,13.329 C6.9882,13.26 6.85245,13.182 6.7527,13.0695 C6.7917,13.182 6.8142,13.64175 6.89595,13.72425 C7.10145,14.067 7.7667,13.623 7.8972,14.15625 C7.6317,14.175 7.4487,14.346 7.60995,14.60025 C7.57095,14.571 7.4877,14.53725 7.4277,14.51175 C7.57095,14.6595 7.60995,14.85975 7.64445,15.05475 L7.5312,15.61275 C7.13145,16.26825 7.2447,14.7915 7.0917,14.5665 C6.99645,15.11925 7.16145,15.80325 6.95745,16.317 C8.0712,16.542 9.1977,16.6785 10.3347,16.836 C9.6987,16.953 9.06345,17.04075 8.41095,17.163 C7.9407,17.226 7.64445,16.8705 7.2657,16.66425 C7.60995,17.457 7.2447,18.03825 7.3272,18.8655 C7.37445,19.22625 7.4877,19.398 7.4877,19.81875 C7.4712,20.10675 7.39695,20.38125 7.37445,20.6805 C7.3272,20.97225 7.41795,21.20325 7.41795,21.38925 C7.41795,22.20075 7.21395,23.0415 7.0272,23.81475 C6.87495,24.4065 6.9882,25.1595 6.91845,25.815 C6.85245,26.6025 6.8142,27.4425 6.73095,28.2705 C6.71295,28.593 6.68295,28.881 6.65295,29.19 C6.5877,29.42925 6.5697,29.64975 6.5697,29.85975 C6.50895,30.432 6.3042,30.9105 6.0702,31.464 C6.19095,31.32225 6.28245,31.17525 6.38295,31.03725 C6.4872,31.17525 6.5877,31.36125 6.63045,31.53675 C6.5697,31.4925 6.4872,31.464 6.42645,31.4145 C6.0702,32.085 5.14695,33.528 5.2167,34.27125 C5.23845,34.50525 5.4027,34.6425 5.48595,34.794 C5.6997,35.20425 5.76045,35.1615 5.66895,35.748 C5.5947,36.15975 5.6262,36.56925 5.6997,36.9315 C5.8122,37.53375 5.93445,38.01225 6.42645,38.4225 C6.63045,38.59875 6.50895,39.35175 6.50895,39.63075 C6.5172,40.545 6.5172,41.48475 6.5487,42.4335 C6.5487,42.5025 6.5487,44.33625 6.46545,44.547 C6.5877,44.376 6.71295,44.20425 6.91845,44.238 C6.71295,44.472 6.4047,45.09525 6.25245,44.92725 C5.99595,45.387 5.76045,45.96 5.93445,46.4535 C6.0702,46.8645 7.0272,48.50325 7.34445,48.50325 L7.2657,48.50325 C7.5102,49.04625 8.1627,50.0235 8.1627,50.664 C8.1627,50.83575 8.01945,51.08025 8.0022,51.2955 C7.91895,51.88725 8.2062,52.24425 8.36745,52.80225 C8.53245,53.418 8.1627,53.5605 8.53245,54.0885 C9.3507,55.272 10.19145,56.44125 11.00895,57.624 C11.15295,57.85425 11.15295,58.044 10.96545,58.284 C11.3262,57.624 11.84895,58.53825 12.2142,58.79775 C12.23595,58.749 12.2142,58.70475 12.23595,58.6755 C12.37995,58.8315 13.21995,59.517 12.9627,58.88025 C12.97995,58.90575 13.0542,58.92 13.0932,58.935 C12.99345,58.77375 12.97995,58.57725 12.9627,58.446 C12.97995,58.57725 12.9627,57.93225 12.9102,58.05975 C13.01595,57.68325 13.0932,57.8685 13.23795,57.54075 C13.46295,57.639 13.70745,57.888 13.91145,57.96675 C14.2812,58.08375 14.18145,57.951 14.48595,57.8295 C14.5902,57.795 14.5467,57.59025 14.7297,57.59025 C14.89545,57.59025 15.09945,57.93225 15.2742,57.96675 C15.4572,57.996 15.62145,57.951 15.7572,57.8295 C15.6912,57.888 15.64395,57.96675 15.59145,58.026 C16.1967,57.81525 16.28745,57.7515 16.8192,58.21125 C16.61445,58.143 16.2447,57.85425 16.06095,57.888 C15.94845,57.93225 16.0002,58.08375 15.8967,58.1085 C15.7572,58.15725 15.7137,58.21125 15.40845,58.17675 C15.20445,58.15725 15.0177,58.044 14.7822,58.044 C14.6082,58.044 14.42595,58.17675 14.25945,58.17675 C13.95495,58.17675 13.5852,57.996 13.3812,58.32825 C13.01595,58.96425 14.2812,60.348 14.45595,60.97425 C14.21145,60.74025 13.91145,60.6315 13.65945,60.411 C13.5462,60.29925 13.3812,60.31875 13.3812,60.11925 C13.3632,59.99625 13.46295,59.46825 13.3287,59.36025 C12.82845,58.96425 12.81045,60.285 12.84045,60.54375 C12.8892,60.95025 13.1982,61.3215 13.27995,61.7325 C13.3632,62.265 13.27995,62.25075 13.8507,62.676 C14.18145,62.90175 14.6082,63.1455 14.91645,63.366 C14.9562,63.366 15.09945,63.2835 15.18195,63.366 C15.38745,63.5565 15.61395,64.4715 15.4572,64.7985 C15.2742,65.136 15.09945,64.84725 15.0387,64.9845 C14.8557,65.21025 14.9562,65.44425 15.0387,65.709 C15.09945,65.90475 15.12195,66.16875 15.18195,66.34425 C15.4572,67.15125 16.28745,67.9875 16.8192,68.643 C17.41095,69.41025 17.96295,70.0995 18.6072,70.81425 C18.8427,71.097 18.8427,71.25975 18.94695,71.445 C19.0302,71.63625 18.94695,71.72025 19.15095,71.9055 C19.37745,72.14925 19.78695,72.46275 19.86495,72.77025 C19.8867,72.8445 19.7652,72.957 19.78695,73.0395 C19.80495,73.299 19.82595,73.57275 19.86495,73.851 C19.8867,74.02725 19.82595,74.3895 19.86495,74.487 C19.8867,74.62875 19.7427,74.781 19.9092,74.84475 C20.35695,75.0555 20.84895,75.26025 21.28845,75.32325 C21.8412,75.3825 22.21995,75.4455 22.7502,75.6015 C23.2212,75.759 23.59995,75.46575 24.1212,75.7395 C24.71745,76.0185 25.24845,76.482 25.77945,76.87425 C26.04495,77.08425 26.39295,77.43225 26.70195,77.47575 C26.70195,77.49525 26.91495,77.37825 26.9982,77.35725 C27.1287,77.35725 27.58995,77.25075 27.6642,77.37825 C27.77295,77.65125 27.8772,78.4875 28.11195,78.65925 C28.29495,78.7905 28.56045,78.62025 28.76445,78.62025 C29.2872,78.62025 29.4222,78.957 29.8317,79.27125 C30.1797,79.57275 30.6057,79.76925 30.93645,80.0925 C31.4682,80.58075 31.7112,80.98275 31.95945,81.7215 C32.22495,82.464 32.5122,83.20725 32.75595,83.94075 C32.79945,84.03 32.83845,84.08775 32.8602,84.15225 L33.1647,84.186 L34.0047,84.186 L34.0437,84.117 L34.20045,84.04875 L35.2842,84.04875 L35.33295,83.99475 L35.5062,83.91075 L36.6027,83.91075 L36.6252,83.853 L36.7857,83.78475 L37.9737,83.78475 L38.0352,83.7255 L38.19945,83.65725 L39.3837,83.65725 L39.4362,83.59425 L39.58845,83.53125 L40.75545,83.53125 L40.8372,83.4615 C40.8462,83.442 40.8987,83.442 40.91145,83.41725 C40.92945,83.4075 40.95045,83.39325 40.98045,83.39325 L42.0432,83.39325 C42.16845,83.39325 42.2472,83.496 42.2472,83.63775 L42.2472,83.75475 L42.18645,83.93625 L42.13845,83.955 L42.13845,84.03 L42.0732,84.186 L42.0042,84.24375 L42.01245,84.29775 L42.01245,84.41475 L42.0042,84.43575 L42.0432,84.43575 L42.18645,84.513 L42.19995,84.5625 L42.39195,84.5625 L42.54795,84.64575 L42.5562,84.7035 L42.7227,84.7035 L42.8832,84.783 L42.9447,84.83625 L43.07895,84.83625 L43.2312,84.8895 L43.29195,84.97275 L43.4352,84.97275 L43.58745,85.04625 L43.6182,85.08 L43.78395,85.08 L43.9497,85.16325 L43.98795,85.218 L44.1327,85.218 L44.28495,85.29525 L44.33595,85.36875 L44.47995,85.36875 L44.6232,85.428 L44.66295,85.49175 L44.83695,85.49175 L44.98095,85.56 L45.01095,85.623 L45.19395,85.623 L45.3372,85.69725 L45.38145,85.755 L45.52395,85.755 L45.68595,85.8285 L45.70695,85.887 L45.88995,85.887 L46.0332,85.96575 L46.0722,86.004 L46.24695,86.004 L46.38195,86.088 L46.43445,86.13675 L46.4817,86.13675 L46.61745,86.2155 L46.69095,86.28825 L46.9347,86.28825 L47.10045,86.3475 L47.10045,86.39625 L47.2827,86.39625 L47.4567,86.47425 L47.4657,86.53425 L47.51745,86.53425 L47.6832,86.6115 L47.7312,86.6745 L47.8752,86.6745 L48.00945,86.748 L48.0792,86.79675 L48.32745,86.79675 L48.51045,86.86125 L48.51045,86.919 L48.54945,86.919 L48.71445,87.003 L48.7842,87.05625 L48.9192,87.05625 L49.0842,87.1395 L49.1232,87.20775 L49.28895,87.20775 L49.41045,87.267 L49.45845,87.32025 L49.6332,87.32025 L49.77645,87.399 L49.81995,87.453 L49.85895,87.453 L50.0112,87.516 L50.0547,87.59925 L50.3202,87.59925 L50.4942,87.6675 L50.5032,87.71175 L50.6772,87.71175 L50.84295,87.7755 L50.84295,87.84375 L50.88195,87.84375 L51.05595,87.91275 L51.11745,87.9855 L51.2607,87.9855 L51.4167,88.04925 L51.4647,88.122 L51.60045,88.122 L51.7737,88.16625 L51.8262,88.23525 L51.9477,88.23525 L52.1097,88.314 L52.1697,88.3725 L52.3137,88.3725 L52.45695,88.4505 L52.50045,88.51875 L52.6617,88.51875 L52.80495,88.563 L52.8357,88.641 L52.8882,88.641 L53.0532,88.70925 L53.0922,88.76325 L53.2362,88.76325 L53.40195,88.851 L53.44095,88.91025 L53.5932,88.91025 L53.7582,88.9785 L53.7972,89.02275 L53.94945,89.02275 C53.97195,89.02275 53.9937,89.04675 54.01095,89.082 C54.05445,89.082 54.0762,89.082 54.0852,89.1105 L54.15495,89.169 L54.2892,89.169 L54.4632,89.238 L54.4857,89.30625 L54.64695,89.30625 L54.7902,89.37 L54.81195,89.4285 L54.87195,89.4285 L55.03845,89.502 L55.0992,89.5455 L55.2207,89.5455 L55.3947,89.63325 L55.4472,89.6925 L55.56945,89.6925 L55.72995,89.7705 L55.75245,89.805 L66.22695,89.805 L66.22695,87.96075 L66.3012,87.7755 L66.4407,87.71175 L72.7422,87.71175 C72.8157,87.71175 72.8772,87.7755 72.92895,87.84375 L73.21245,87.84375 L73.36845,87.91275 L73.3992,88.0095 L73.4907,88.06875 L73.5207,88.137 L73.6032,88.16625 L73.67295,88.3575 L73.67295,88.42575 L73.7037,88.4505 L73.7952,88.62225 L73.7952,88.70475 L73.83045,88.70925 L73.89045,88.89 L73.89045,88.91025 L73.9392,88.9785 C73.9602,88.9935 73.9602,89.02275 73.9827,89.04675 C73.9992,89.08575 74.0217,89.11575 74.0217,89.15025 L74.0217,89.169 L74.1867,89.238 L74.2257,89.331 L74.30895,89.37 L74.32995,89.4285 L74.39145,89.4285 L74.5437,89.502 L74.55195,89.5455 L74.7177,89.5455 L74.86995,89.63325 L74.9307,89.712 L75.00495,89.7705 L75.03495,89.83875 L75.11745,89.90325 L75.1572,89.99625 L75.23145,90.015 L75.2922,90.09375 L75.32295,90.09375 L75.4752,90.16725 L75.53595,90.32325 L75.53595,90.35775 L75.5967,90.42075 C75.5967,90.4455 75.5967,90.465 75.61845,90.47475 L75.61845,90.51375 L75.7017,90.5535 L75.74895,90.6465 L75.8232,90.666 L75.8622,90.75 L75.9057,90.75 L76.05795,90.79725 L76.0887,90.88575 L76.1712,90.95475 L76.20195,91.0035 L76.24095,91.0035 L76.41495,91.07175 L76.45845,91.2435 L76.45845,91.3845 L76.49745,91.3845 L76.64145,91.47225 L76.66395,91.5705 L76.74195,91.59 L76.76295,91.698 C76.8462,91.70775 76.8852,91.74225 76.90695,91.79475 L76.95945,91.79475 L77.1117,91.854 L77.16345,92.02575 L77.16345,92.04 L77.1942,92.04 L77.33745,92.124 L77.34645,92.1915 L77.41995,92.1915 L77.58195,92.2545 L77.58195,92.3145 L77.7642,92.3145 L77.92995,92.3865 L77.9607,92.48475 L78.05145,92.5005 L78.0732,92.59725 L78.14295,92.64675 L78.1947,92.745 L78.2772,92.77875 L78.30795,92.8275 L78.4827,92.8275 C78.60345,92.8275 78.66495,92.9445 78.66495,93.087 L78.66495,93.15525 L78.72645,93.17925 L78.7782,93.26775 L78.8607,93.29775 L78.86895,93.39975 L78.97395,93.43425 L79.03545,93.58575 L79.03545,93.639 L79.0962,93.70275 L79.1577,93.879 L79.1577,94.197 C79.1997,94.236 79.2177,94.26 79.23945,94.299 L79.30095,94.35825 L79.4052,94.53 L79.4052,94.5495 L79.4442,94.62825 L79.50495,94.79925 L79.67895,94.8855 L79.73145,95.04825 L79.73145,95.12175 L79.7922,95.14575 L79.85295,95.307 L79.85295,95.83575 L79.7922,96.00225 L79.73145,96.0405 L79.7922,96.06 L79.85295,96.231 L79.85295,96.42225 L79.91445,96.462 L79.9662,96.62325 L79.9662,96.69075 L80.02695,96.72975 L80.0967,96.882 L80.0967,96.9555 L80.1192,96.97425 L80.26245,97.1115 L80.3232,97.2975 L80.3232,97.43925 L80.3757,97.512 L80.4972,97.6305 L80.52795,97.743 L80.6022,97.7625 L80.67195,97.9335 L80.67195,97.94775 L80.69295,97.94775 L80.8542,98.03175 L80.8542,98.09025 L81.0192,98.09025 L81.19395,98.163 L81.21495,98.2215 L81.2757,98.2215 L81.4287,98.29575 L81.45045,98.3925 L81.5592,98.43225 L81.61095,98.6235 L81.65445,98.691 L81.70245,98.75475 L81.7557,98.75475 L81.89895,98.814 L81.94245,98.916 L82.0122,98.94525 L82.0422,99.01875 L82.12545,99.07275 L82.15545,99.141 L82.31595,99.141 L82.4817,99.2235 L82.50345,99.273 L82.9122,99.273 L83.06445,99.34275 L83.08695,99.435 L83.1867,99.4695 L83.2302,99.55275 L83.29995,99.60525 L83.3307,99.7035 C83.3742,99.70875 83.4042,99.738 83.4222,99.792 L83.47395,99.792 L83.55645,99.82575 L83.60895,99.792 L83.7177,99.792 L83.8827,99.8655 L83.9052,99.924 L83.96595,99.924 L84.1182,99.9975 L84.14895,100.08525 L84.23145,100.13925 L84.2922,100.30575 L84.2922,100.3245 L84.42795,100.3245 L84.5787,100.39275 L84.6102,100.44675 L84.7842,100.44675 C84.8532,100.44675 84.91845,100.51575 84.94995,100.5795 L85.23195,100.5795 L85.2762,100.599 L85.2762,100.55025 L85.3152,100.39275 L85.3977,100.34025 L85.44945,100.26675 L85.6017,100.1685 L85.6017,100.1535 L85.68495,99.9975 L85.76745,99.96375 L85.7847,99.8655 L85.91145,99.73275 C85.95045,99.675 86.0202,99.675 86.09445,99.675 L86.09445,99.6405 L86.09445,99.381 L86.09445,99.33225 C86.09445,99.273 86.07195,99.2235 86.09445,99.156 C86.13345,99.063 86.1942,99.0045 86.29845,99.0045 L86.32845,99.0045 L86.32845,98.98425 L86.32845,98.94525 C86.29845,98.847 86.32845,98.75475 86.36745,98.691 L86.4207,98.6235 L86.4207,98.46225 L86.4807,98.29575 L86.55495,98.26125 L86.55495,98.07 L86.60295,97.899 L86.6862,97.86 L86.73795,97.7625 L86.80695,97.743 L86.8512,97.6305 L86.9037,97.61025 L86.9037,97.386 C86.9037,97.2975 86.99445,97.1655 87.10395,97.1655 L87.36045,97.1655 L87.4212,97.1115 C87.48645,97.05375 87.58695,97.0185 87.6567,97.05375 L87.6687,97.038 L88.06545,97.038 L88.06545,96.882 L88.1172,96.72975 L88.2702,96.65175 L88.3437,96.65175 L88.3662,96.5835 L88.5267,96.51975 L88.63095,96.51975 L88.7832,96.5835 L88.7922,96.65175 L88.85295,96.65175 L88.89645,96.67725 C88.9662,96.65175 89.0187,96.62325 89.0577,96.67725 C89.12295,96.681 89.16195,96.76425 89.17095,96.8175 L89.2617,96.8475 L89.3052,96.90675 L89.6322,96.90675 L89.65395,96.8475 L89.8062,96.76425 L89.9592,96.8475 L89.9802,96.90675 L90.6162,96.90675 C90.6987,96.90675 90.7377,96.9555 90.79845,97.038 L91.1472,97.038 L91.1862,96.97425 L91.31145,96.90675 L91.45545,96.90675 L91.55595,96.9555 L91.67745,96.90675 L91.81245,96.97425 L91.8297,97.038 L91.89495,97.038 L92.0562,97.1115 L92.1177,97.2975 L92.1177,97.3665 L92.16945,97.38075 L92.2392,97.542 L92.2392,97.57125 L92.26095,97.57125 L92.39595,97.6305 L92.43495,97.7085 C92.47845,97.68375 92.51745,97.68375 92.5782,97.7085 C92.6172,97.743 92.66145,97.8015 92.68245,97.86 L92.7612,97.899 L92.8137,98.07 L92.8137,98.13375 L92.87445,98.163 L92.90445,98.2515 L92.9877,98.29575 L93.0177,98.3535 L93.16995,98.3535 L93.34395,98.43225 L93.37545,98.50575 C93.44895,98.55 93.5187,98.6235 93.5187,98.72175 L93.5187,98.8725 L93.53145,98.8725 L93.7062,98.94525 L93.7062,99.0045 L93.7662,99.0045 C93.84945,99.0045 93.9282,99.08325 93.9492,99.17625 L94.06245,99.2235 L94.07145,99.31275 L94.1757,99.33225 L94.2147,99.41025 L94.2447,99.41025 L94.38045,99.4695 L94.4622,99.6405 L94.4622,99.8415 L94.5237,99.8655 L94.54095,99.96375 L94.6152,99.9975 L94.6452,100.06575 L94.7067,100.06575 L94.8897,100.13925 L94.9197,100.30575 L94.9197,100.49625 L94.9722,100.51575 L95.03295,100.68675 L95.03295,101.02425 C95.1162,101.06775 95.1552,101.12775 95.1552,101.22075 L95.1552,101.24925 L95.21595,101.31675 L95.23695,101.406 L95.34195,101.43975 L95.3892,101.6055 L95.3892,101.67 L95.4552,101.69925 L95.50245,101.87025 L95.50245,102.07575 L95.56395,102.0855 L95.5857,102.18375 L95.6682,102.21825 L95.72895,102.38925 L95.72895,102.46725 L95.79045,102.486 L95.8647,102.65775 L95.8647,102.7305 L95.91195,102.75075 L95.9337,102.7995 L95.97345,102.7995 L96.13845,102.888 L96.22095,103.05975 L96.13845,103.2345 L96.0777,103.2495 L96.0777,103.3665 L96.13845,103.401 L96.22095,103.587 L96.22095,103.65 L96.2427,103.65975 L96.3207,103.842 L96.3207,104.03625 L96.3732,104.06625 L96.3822,104.13 L96.45645,104.13 L96.6087,104.20275 L96.65145,104.27625 L96.7302,104.325 L96.74295,104.3985 L96.93495,104.3985 L97.06095,104.463 L97.13895,104.62425 L97.13895,104.79 L97.15245,104.79 L97.3047,104.85825 L97.36545,105.02025 L97.36545,105.1815 L97.3962,105.1815 L97.54845,105.25425 L97.60995,105.4155 L97.60995,105.48375 L97.67445,105.504 L97.6917,105.60225 L97.76595,105.636 L97.85745,105.80775 L97.85745,106.14525 L97.88745,106.15425 L97.9182,106.22325 L97.9572,106.22325 L98.12295,106.2915 L98.1627,106.38975 L98.2452,106.43925 L98.25795,106.5165 L98.3667,106.566 L98.4312,106.73175 L98.4312,106.75125 L98.50995,106.76625 L98.55345,106.75125 L98.6757,106.75125 L98.8407,106.824 L98.8407,106.893 L98.9112,106.893 L99.0627,106.9665 L99.09345,107.055 L99.1842,107.079 L99.24945,107.27025 L99.24945,107.44125 L99.28095,107.4705 L99.3717,107.64675 L99.3717,108.3015 C99.3717,108.3555 99.3282,108.39 99.3282,108.4395 L99.3282,108.468 L99.41145,108.52725 L99.47145,108.6975 L99.47145,109.6275 L99.48495,109.6275 L99.65895,109.70475 L99.69795,109.8765 L99.69795,109.9455 L99.75945,109.97925 L99.8112,110.067 L99.88095,110.121 L99.94245,110.283 L99.94245,110.3415 L99.98595,110.361 L100.0467,110.46375 L100.0992,110.4975 L100.18995,110.6685 L100.18995,110.72775 L100.22895,110.74725 L100.3032,110.9175 L100.3032,111.01575 L100.33395,111.021 L100.40295,111.1875 L100.40295,111.3975 L100.47645,111.41175 L100.5477,111.58275 L100.5477,111.71025 L100.49445,111.7845 L100.5477,111.843 L100.5477,111.8715 L100.68195,111.945 L100.75995,112.10175 L100.75995,112.3905 L101.2347,112.3905 L101.39595,112.449 L101.41695,112.533 L101.7132,112.533 L101.86545,112.581 L101.8962,112.69875 L101.9922,112.7325 L102.0312,112.81125 L102.1137,112.8495 L102.12195,112.9425 C102.1962,112.9575 102.2442,113.00625 102.26595,113.07525 L102.30495,113.04 L102.53145,113.04 L102.58395,113.07975 L102.6447,113.04 L102.81045,113.11425 L102.8187,113.1825 L103.01445,113.1825 L103.1457,113.2605 L103.20645,113.334 L103.22745,113.334 L103.3797,113.388 L103.41045,113.47575 L103.50195,113.505 L103.5372,113.613 L103.6287,113.64225 L103.6677,113.73 L103.72845,113.78475 L103.77195,113.83275 L103.93245,113.83275 L103.9767,113.868 C104.03745,113.83275 104.0757,113.8185 104.11545,113.868 L104.15895,113.83275 L104.2812,113.83275 L104.42445,113.90175 L104.4942,113.9745 L105.44745,113.9745 L105.4872,113.9745 C105.5607,113.97 105.63045,113.9745 105.6912,114.0135 C105.6912,114.0135 105.6912,113.9745 105.7122,113.9745 C105.79545,113.97 105.89595,113.9745 105.9477,114.04275 L106.0002,114.102 L106.02195,114.102 L106.1832,114.1905 L106.2132,114.26325 L106.3047,114.30225 L106.32645,114.39075 L106.4097,114.435 L106.4697,114.50775 L106.55295,114.55725 L106.56195,114.6255 L106.6137,114.6255 L106.75695,114.70425 L106.79595,114.79125 L106.8492,114.762 L106.8702,114.762 L106.8702,114.72825 L106.9227,114.55725 L107.07495,114.49425 L107.1447,114.49425 L107.1582,114.435 L107.3097,114.3615 C107.07495,114.351 107.0922,113.8035 106.9707,113.30475 C106.73595,112.4055 106.3872,111.4755 106.25745,110.56575 C106.23495,110.32575 106.25745,110.07225 106.3047,109.90125 C106.2657,110.0235 106.55295,109.67625 106.51395,109.70475 C106.6137,109.53375 106.6662,108.95175 106.72695,108.7125 C106.1832,108.9765 106.02195,108.6585 105.4872,108.61425 C105.5607,108.42375 105.4872,108.126 105.4872,107.85675 C105.6732,108.0285 105.83445,108.3555 106.0002,108.52725 C105.9477,108.39 106.6527,108.5955 106.32645,108.62475 C106.4097,108.61425 106.6137,108.61425 106.73595,108.468 C106.9002,108.3015 107.02245,107.847 107.1222,107.5875 C107.20545,107.319 107.3922,106.9665 107.3322,106.75125 C107.3322,106.69725 107.1222,106.7175 107.08395,106.653 C106.79595,106.07625 106.8702,106.341 106.4307,105.97875 C106.6662,106.04175 107.0922,105.89625 107.3322,105.9645 C107.6367,106.04175 107.3922,106.2915 107.69745,106.101 C107.96295,105.9645 108.18945,105.1815 108.2892,104.898 C108.1062,105.06825 107.90145,104.898 107.74095,104.64375 C107.90145,104.8155 108.0852,104.66775 108.2892,104.48625 C108.2892,104.62425 108.3717,104.736 108.3717,104.82375 C108.45495,104.63325 108.5157,104.418 108.62895,104.2425 C108.62895,104.418 108.60645,104.64375 108.5592,104.82375 C108.65895,104.55075 108.84195,103.2495 109.12845,103.2495 C109.2027,103.2495 109.41645,103.65975 109.4562,103.6995 C109.6602,103.896 109.4562,103.935 109.81695,103.89975 C109.99095,103.88025 110.49195,103.47 110.60445,103.3665 C110.1732,103.11225 109.84695,102.65775 109.6902,102.12525 C110.02995,102.07575 109.86495,102.33 110.05245,102.46725 C110.4297,102.75075 110.78745,102.6435 110.4612,101.9685 C110.6652,102.04125 110.5827,102.38925 110.76495,102.46725 C110.8917,102.50175 111.1137,102.267 111.3612,102.21825 C111.03045,103.11225 111.6447,102.46725 112.1277,102.6435 C111.8322,102.78975 111.51345,102.94125 111.3177,103.191 C111.8487,102.94125 112.63695,102.55575 113.11995,102.1395 C112.86345,102.27075 112.5882,102.369 112.3227,102.267 C112.91445,102.0855 113.36295,102.04125 113.85495,101.724 C114.43845,101.31675 114.6342,100.85775 115.04295,100.23675 C115.3302,99.77175 115.28745,100.11975 115.45245,100.03575 C115.8402,99.82575 116.18745,99.44925 116.4972,99.1275 C116.3532,99.015 116.2617,99.063 116.18745,98.8725 C116.18745,98.8725 116.0742,98.95575 116.0442,98.916 C115.99245,98.814 116.17995,98.6235 116.1357,98.55 C116.0877,98.46225 115.8837,98.55 115.8177,98.45175 C115.77045,98.29575 115.9227,98.1735 115.8837,98.046 C115.8177,97.86 115.68795,97.7085 115.6347,97.53675 C115.8177,97.53675 116.0142,97.61025 116.0877,97.8015 C116.2617,97.66425 116.5362,97.146 116.8017,97.2675 C116.9667,97.34625 116.9847,97.61025 116.89245,97.8015 C116.6187,98.3925 116.43645,98.31525 116.92395,98.3535 C117.2412,98.3535 117.43695,98.202 117.77295,98.31525 C117.51945,98.43225 116.67045,98.75475 116.6187,99.08325 C116.6187,99.36675 116.9847,98.89125 116.9847,98.8725 C117.27195,98.72175 117.52845,98.58375 117.81645,98.45175 C118.1427,98.29575 118.4382,98.1735 118.74645,98.03175 C119.25645,97.8015 119.6262,97.82025 120.13545,97.67475 C119.8917,97.34625 120.2397,96.62325 120.36195,96.2655 C120.3012,96.69075 120.19545,97.15575 120.19545,97.61025 C120.7407,97.20975 121.2627,97.43925 121.8762,97.24425 C122.2332,97.15575 121.76295,96.9945 121.77195,96.9555 C121.78545,96.921 121.6497,96.882 121.6722,96.8625 C121.6722,96.76425 121.83645,96.8175 121.85445,96.76425 C121.83645,96.8175 122.02845,96.55875 122.02845,96.55875 C122.08095,96.432 122.07195,96.0315 122.11995,95.8695 C122.3157,95.99175 122.20245,96.17325 122.28495,96.31875 C122.75595,96.97425 123.7692,97.24425 124.42245,97.58625 C125.03595,97.90425 125.58795,98.3535 126.1932,98.29575 C126.39795,98.2515 126.66345,98.13825 126.8892,98.12475 C126.78495,98.09025 126.45945,97.7625 126.45945,97.67475 C126.39795,97.386 126.39795,97.67475 126.5937,97.45425 C126.78495,97.2675 127.44195,97.038 127.69545,97.05375 C127.8072,97.0725 128.3607,97.3665 128.4957,97.45425 C128.5167,97.512 128.5047,97.77675 128.60895,97.90425 C128.73045,98.07 129.58845,98.6235 129.7317,98.58375 C129.83595,98.52525 129.8967,98.13825 129.9582,98.06025 C130.03995,98.29575 129.77445,98.37825 129.82245,98.65725 C129.83595,98.9265 130.1832,99.07275 130.3452,99.23925 C130.8147,99.69375 131.49345,100.51575 132.0642,100.1535 C132.2082,100.08525 132.43395,99.70875 132.36045,99.53325 C132.79995,99.2535 133.37445,99.2235 133.6392,99.792 C133.7742,100.11975 133.45695,100.49625 133.9482,100.34025 C134.5707,100.11975 133.9482,99.4695 134.50095,99.4695 C134.3667,99.2535 134.45745,99.23925 134.3667,98.99475 C134.33595,98.916 134.50095,98.94525 134.3967,98.78475 C134.28345,98.55525 134.01795,98.6235 133.9272,98.2215 C134.1702,98.33475 135.39795,98.55 135.20595,98.814 C135.70695,99.156 136.01145,99.4155 136.58595,99.7035 C136.5027,99.8655 136.66845,99.9975 136.81245,100.188 C136.98645,100.40325 137.2602,99.792 137.2602,100.25175 C137.2602,100.44675 136.9122,100.941 136.84245,101.166 C137.10795,100.90725 137.51745,100.9755 137.82195,100.85775 C137.6487,100.55025 138.53895,100.0995 137.9472,100.1685 C138.1392,100.13925 138.2307,100.03575 138.26595,99.96375 C138.1002,99.94275 137.9352,99.8655 137.7912,99.77175 C138.1392,99.4695 137.05545,99.2535 136.9122,99.17625 C136.9557,99.156 137.03895,99.10125 137.05545,99.08325 C136.81245,99.07275 136.5462,99.063 136.2807,99.0045 C136.31145,98.98425 136.35045,98.98425 136.38195,98.94525 C136.37295,98.78475 136.2987,98.916 136.37295,98.72175 C136.0032,98.52525 135.8202,98.43225 135.5937,98.09025 C135.90195,98.03175 136.21545,98.0025 136.49445,97.92375 C136.4637,97.86 136.41195,97.8015 136.3422,97.7625 C136.35045,97.7625 136.41195,97.743 136.41195,97.743 C136.32045,97.7625 136.01145,97.71375 136.0767,97.57125 C136.13745,97.30275 136.7682,97.3665 137.01645,97.20975 C136.9647,96.9945 136.9122,96.98925 137.03895,96.82275 C136.9737,96.8175 136.9122,96.8175 136.84245,96.8175 C136.81245,96.76425 136.9122,96.72975 136.9122,96.69075 C136.81245,96.69075 136.7907,96.69075 136.7292,96.67725 C137.09895,96.49575 136.5642,96.36825 136.5027,95.904 C136.4862,96.19725 136.2987,96.075 136.17645,96.2655 C135.85095,96.79425 136.0767,96.76425 135.64545,96.67725 C135.5637,96.62325 135.1542,96.49575 135.17595,96.29025 C135.18495,96.17325 135.66345,96.075 135.7677,95.8695 C135.39795,95.76675 133.0347,96.3045 132.9732,95.61525 C132.92595,95.1015 134.53995,94.7505 134.92845,94.89075 C135.2892,95.034 136.21545,95.547 136.4862,95.23875 C136.81245,94.842 136.9737,94.54425 137.4477,94.47525 C137.9472,94.3785 138.4482,94.26975 138.92745,94.299 C139.75845,94.368 140.61645,94.62825 141.43395,94.701 C141.6387,94.74 141.82545,93.468 141.8952,93.219 C141.92595,93.11625 141.9642,93.00375 142.01745,92.886 C142.0692,93.17925 142.2522,93.11625 142.3572,93.39975 C142.4172,93.639 142.2522,93.8445 142.2957,94.02075 C142.3737,94.26975 142.5837,94.197 142.70445,94.368 C142.78245,94.51425 142.78245,94.818 143.0097,95.04825 C143.16195,95.23875 143.5752,95.04825 143.7057,94.857 C143.64495,94.842 143.60595,94.842 143.5407,94.83825 C143.9847,94.74 144.0627,94.51425 144.2367,94.02075 C144.15345,94.368 144.0327,94.62825 143.94945,94.95 C144.2577,94.79925 144.7287,94.686 144.9762,94.368 C145.1982,94.0695 145.05495,93.918 145.1982,93.58575 C145.2597,93.72225 145.40295,93.825 145.45545,93.93225 C145.79445,93.219 145.9992,93.58575 146.1822,94.236 C145.9992,94.12875 145.3647,94.51425 145.13745,94.602 C146.41695,94.299 147.7362,94.16775 149.04645,94.02075 C149.04645,94.236 149.06745,94.15275 149.1282,94.368 C148.96245,94.3395 148.7367,94.26975 148.58445,94.28475 C148.58445,94.28475 148.66695,94.368 148.66695,94.3395 C147.99195,94.09875 148.6977,94.602 148.9107,94.74 C149.08545,94.83825 150.3777,95.7375 150.5817,95.63025 C150.78645,95.508 150.25095,95.16 150.1287,95.14575 C150.38595,95.04825 151.0692,94.74 151.19595,94.911 C151.1517,94.974 150.7737,95.12175 150.7737,95.19975 C150.78645,95.268 151.7052,95.9235 151.8267,96.06525 C151.6047,95.97675 150.70395,95.40975 150.8562,95.76675 C150.91695,95.904 151.17345,96.0405 151.2867,96.1335 C151.2657,96.153 151.21245,96.1335 151.19595,96.153 C151.35645,96.387 151.68345,96.432 151.87845,96.67725 C151.96095,96.74025 151.99245,96.8475 152.0607,96.9405 C152.40045,97.512 152.4237,97.66425 152.9142,97.43925 C152.7792,97.512 152.6757,97.57125 152.5047,97.6305 C153.6672,97.15575 154.8162,96.67725 155.9832,96.19725 C156.5442,95.97225 156.7572,95.76675 157.22745,95.97225 C157.61895,96.1335 158.08845,96.42225 158.3757,96.76425 C158.64195,97.0725 158.70345,97.38075 158.9907,97.67475 C159.25545,97.9185 159.17295,97.86 159.3162,98.13375 C159.3987,98.29575 159.3162,98.3925 159.5217,98.6235 C160.0647,99.156 160.8927,99.4155 161.40045,99.9975 C161.6487,100.25175 162.28395,101.4105 162.1272,101.733 C161.8752,101.69925 162.1272,101.91 162.1587,102.1395 C162.1797,102.3195 162.11895,102.42825 162.11895,102.57975 C162.0882,102.97125 162.0492,103.2495 161.97495,103.5975 C161.8932,103.935 161.6487,104.2425 161.5752,104.535 C161.51445,104.82375 161.6487,105.123 161.54445,105.44475 C161.52645,105.567 161.3922,105.6705 161.3922,105.75825 C161.37045,106.15425 161.6487,106.614 161.8542,106.9665 C161.8317,106.893 161.80995,106.76625 161.77995,106.69275 C162.11895,106.99575 162.11895,106.75125 162.20145,106.54575 C162.38445,106.086 162.1797,106.04175 161.8752,105.73875 C162.44595,106.04175 162.6192,106.5165 162.9762,105.80775 C163.2942,106.54575 162.28395,107.01075 162.3447,107.6805 C162.26295,107.6655 162.1587,107.6655 162.0972,107.6115 C162.1587,107.9145 162.3627,108.126 162.46695,108.453 C162.72345,109.407 163.3377,110.20875 163.9812,110.9175 C163.9812,110.826 163.87695,110.4885 163.8987,110.43975 C163.9812,110.23875 164.2257,110.121 164.60445,110.0235 C164.6172,109.99875 164.4222,110.292 164.4222,110.20875 C164.4222,110.22825 164.31645,110.22825 164.28645,110.292 C164.2692,110.3955 164.36895,110.4975 164.34795,110.571 C164.2467,111.06525 164.28645,111.6225 164.4297,112.12125 C164.83845,112.10175 164.89995,111.4755 165.36945,111.2805 C165.07395,111.549 164.9127,111.82725 164.7252,112.23375 C165.36945,112.3365 165.4227,114.435 165.56595,114.89475 C165.6402,114.879 165.82245,114.762 165.8922,114.79575 C166.3227,115.0065 166.9887,115.9455 167.3982,116.43 C167.5932,116.63475 168.8607,117.87825 168.4602,118.0095 C168.36795,118.0485 168.05145,117.741 167.9727,117.6675 C167.89845,117.897 167.9292,118.18575 167.9727,118.4355 C168.1767,118.425 168.33795,118.34175 168.55545,118.2975 C168.65595,118.2975 168.70845,118.16625 168.79095,118.16625 C168.89895,118.16625 169.03395,118.27875 169.1697,118.2885 C169.4217,118.2885 169.45245,118.20075 169.6092,118.10775 C169.9137,117.897 169.9137,117.897 170.3232,118.14675 C170.2617,118.0785 170.23095,118.0095 170.17995,117.9615 C170.25345,117.99525 170.42745,118.044 170.52645,118.131 C170.40495,117.9615 170.46645,117.897 170.52645,117.741 C170.7747,117.25275 171.0402,116.7525 171.24495,116.22 C171.79845,114.7485 171.7332,113.11425 171.81495,111.549 C171.87645,110.4975 171.79845,109.3335 170.8752,108.85425 C171.0402,108.8985 171.17145,108.9765 171.3237,109.08375 C170.8752,108.36975 170.8137,107.5095 170.52645,106.75125 C170.2617,106.07625 169.9137,105.44475 169.6572,104.736 C169.33845,103.8075 169.1172,102.78975 168.86895,101.82075 C169.0737,101.91 169.1697,103.1565 169.56495,102.6135 C169.6572,103.2345 169.6572,103.842 169.70895,104.463 C170.20095,103.05975 169.77045,102.717 169.2162,101.64525 C168.8907,101.0295 168.5427,100.437 168.2772,99.807 C168.07245,99.31275 167.88945,98.814 167.7027,98.29575 C167.43645,97.51725 167.2542,96.681 167.0502,95.8695 C166.8537,95.1015 166.43595,94.197 166.41495,93.39975 C166.3842,92.724 166.20195,91.59 166.45845,90.9885 C166.55745,90.75 166.64145,90.51375 166.76295,90.78375 C167.7462,90.30375 166.93695,90.2355 166.4892,89.922 C166.52745,89.952 166.7847,90.0645 166.8237,90.0345 C166.94595,89.9085 166.96695,89.712 167.0712,89.5995 C167.22345,89.43375 167.4597,89.331 167.60295,89.15475 C167.49795,89.238 167.3457,89.238 167.21445,89.30625 C167.27595,88.91025 167.4597,88.39125 167.2542,88.083 C167.3982,88.098 167.66295,88.2795 167.7987,88.22475 C168.0327,88.16625 168.33795,87.4335 168.42945,87.243 C168.6642,86.895 169.51245,86.20125 169.48245,85.85325 C169.45245,85.731 169.26045,85.77 169.26045,85.755 C169.0737,85.36875 168.9132,84.8895 168.8607,84.4695 C168.9522,84.489 169.0737,84.597 169.1172,84.64575 C168.79095,85.4475 169.8312,84.3765 169.54845,85.25175 C169.6092,85.25175 169.61745,85.218 169.6572,85.218 C169.6572,85.2375 169.61745,85.335 169.6257,85.36875 C169.89195,85.3935 170.42745,85.467 170.42745,85.06575 C170.40495,85.11 170.3442,85.16325 170.3007,85.19775 C170.42745,84.5865 169.8522,84.74775 169.52595,84.52875 C169.6872,84.5625 169.9347,84.4695 170.05695,84.4695 C170.1612,84.4545 170.19195,84.64575 170.3232,84.63 C170.5572,84.597 170.8362,84.24375 171.0402,84.08775 C171.16245,83.99475 171.70245,84.009 171.8367,83.99475 C171.9597,83.9655 171.9897,83.89725 172.04145,83.78475 L172.04145,83.955 C172.12395,83.63775 172.2237,83.3055 172.2462,82.97775 C172.6167,83.3445 172.44195,83.41725 172.8597,83.3055 C173.32095,83.1885 173.70795,82.5285 174.1092,82.27875 C174.3522,82.09275 175.2747,81.7395 174.92745,81.276 C174.7617,81.03075 174.5487,80.8995 174.7617,80.5755 C174.96645,80.742 175.0407,81.006 175.0707,81.276 C175.2747,80.454 175.3977,80.03325 175.9407,79.42725 C176.3592,78.98625 176.85945,78.60975 177.29895,78.19875 C177.6597,77.89125 178.65195,78.102 179.10045,78.08175 C179.8362,78.08175 179.71395,77.33925 179.6922,76.70775 C179.8362,77.08425 179.7972,77.44575 179.8362,77.87175 C179.8887,77.6715 179.9187,77.43225 179.9577,77.22225 C180.2232,76.443 181.04595,75.90075 181.6167,75.348 C181.3722,75.50475 181.1682,75.67575 180.9192,75.79275 C181.12395,75.50475 182.19945,75.0555 181.70745,74.84925 C181.98645,74.58525 181.7682,74.33625 181.6587,74.02725 C181.7382,74.05725 181.9032,74.26275 181.8642,74.26275 C182.01645,74.26275 182.5557,73.974 182.73045,74.02725 C183.0912,74.09175 182.73045,74.2965 183.2052,74.26275 C183.5397,74.24775 183.9402,73.9935 184.29645,73.87125 C184.7367,73.734 185.6292,73.57275 185.9112,73.113 C186.1812,72.7365 185.4627,73.09725 185.3502,73.14225 C185.64645,72.49725 185.0457,73.05525 184.87995,73.1025 C184.8057,73.113 184.7367,72.9225 184.6062,72.957 C184.4622,72.957 184.31895,73.21125 184.1532,73.245 C183.65295,73.28475 183.2052,72.56025 183.0177,72.09975 C183.3267,72.49725 183.5397,72.7125 184.0092,72.56025 C184.5012,72.40875 185.63745,71.871 185.0457,71.37225 C184.3977,70.809 183.5607,71.03475 183.1002,70.32525 C183.6447,70.71225 184.2447,70.7805 184.8492,70.90275 C184.8057,70.707 184.76745,70.32525 184.87995,70.1925 C185.01495,70.06575 184.9017,70.506 184.8492,70.4325 C184.9497,70.61925 185.01495,70.7415 185.09295,70.824 C185.31945,70.668 185.6067,70.506 185.54595,70.90275 C186.36495,70.90275 188.3787,70.1925 188.0832,68.922 C187.9482,68.4915 187.7352,68.3745 187.32645,68.47125 C186.93345,68.5455 186.99945,69.357 186.8727,69.723 C186.7902,69.40125 186.69045,68.736 186.93345,68.388 C186.93345,68.35425 186.86445,68.388 186.86445,68.388 C186.99945,68.04675 186.5472,67.9875 186.3417,68.061 C186.15945,68.12475 186.11595,68.3745 185.95545,68.40825 C185.8512,68.42325 185.71995,68.34075 185.5632,68.35425 C185.6067,68.0265 184.6452,68.388 184.31895,68.31525 C184.57095,67.998 184.2747,67.86525 184.21395,67.5075 C184.1967,67.32225 184.3977,66.24225 184.4622,66.58425 C184.52295,66.7845 184.3362,66.8085 184.31895,67.00875 C184.31895,68.12475 184.9932,68.061 185.84145,67.5465 C185.6292,67.47825 185.4417,67.308 185.3292,67.068 C185.6067,67.30275 185.8722,67.47375 186.25995,67.5075 C186.1287,67.377 186.0372,67.224 185.97195,67.044 C186.1812,67.3275 186.46395,67.3275 186.7902,67.239 C186.6207,67.044 186.3207,66.72075 186.28095,66.4965 C186.46395,66.72075 186.99945,67.16625 187.34295,67.224 C187.15095,67.0635 187.15995,66.7845 187.07745,66.52575 C187.34295,66.7845 187.44795,67.43475 187.83495,67.665 C187.54845,66.7845 187.12095,66.20775 186.91695,65.37975 C187.2822,65.44425 187.18245,64.91625 187.26495,64.584 C187.44795,65.00325 187.5087,65.523 187.6737,65.9535 C187.5912,65.40975 187.36545,63.89925 186.99945,63.591 C186.91695,63.5415 186.50745,63.63975 186.36495,63.5715 C185.95545,63.3795 186.0372,63.52275 185.8512,63.591 C185.94195,63.5565 185.8512,63.7425 185.8197,63.76125 C185.64645,63.8595 185.25795,63.84975 185.0547,63.86475 C185.45445,63.591 184.70595,62.62725 184.47945,62.31 C184.70595,62.4555 184.9017,62.6655 185.0457,62.83725 C185.28045,63.1695 185.45445,63.4935 185.75895,63.19425 C185.75895,62.6655 185.6892,62.265 185.3802,61.91775 C185.3802,61.90425 185.3592,61.90425 185.3502,61.87875 C185.3592,61.8885 185.3802,61.90425 185.4027,61.91775 C185.3592,61.8885 185.3292,61.86975 185.2977,61.8345 C185.25795,61.806 185.22795,61.79025 185.2152,61.7565 C185.42445,61.90425 185.5632,61.962 185.6067,61.7325 C185.9112,61.7325 185.95545,61.7175 186.0987,61.497 C186.36495,60.89625 185.64645,60.4905 185.2977,60.11925 C185.25795,60.08925 185.2152,60.0495 185.1762,60.01575 C185.2977,59.517 185.25795,60.03075 185.3802,60.03075 C185.45445,60.03075 185.4627,60.08925 185.50245,60.08925 C185.71995,60.084 185.95545,59.47725 186.0162,59.20875 C186.15945,58.70475 186.15945,58.96425 185.9112,58.65675 C185.6067,58.284 184.7367,57.85425 184.35795,57.68325 C184.09245,57.59025 183.68295,57.50625 183.4392,57.3015 C183.29595,57.1635 183.15195,56.8515 183.0177,56.646 C182.8437,56.3865 182.88645,56.646 182.71245,56.631 C182.5557,56.616 182.3817,56.787 182.19045,56.66475 C182.14695,56.631 182.0772,56.66475 182.02545,56.646 C182.40345,55.73175 183.2052,54.9435 183.0387,53.91675 C183.3267,54.636 182.8212,55.257 182.5557,55.92225 C182.4342,56.13225 182.2737,56.406 182.4777,56.5245 C182.71245,56.646 182.8212,56.32275 182.8122,56.14725 C182.91795,56.406 183.0912,56.29875 183.16095,56.06475 C183.2517,56.2305 183.37395,56.76825 183.57945,56.8365 C183.7227,56.88525 183.8667,56.50875 183.9582,56.55825 C184.1967,56.7435 184.4187,56.9445 184.6452,57.12975 C185.0457,57.45225 185.4417,57.7815 185.8512,58.05975 C185.76795,57.85425 185.69895,57.54075 185.63745,57.321 C185.6067,57.23325 185.6292,56.88525 185.6067,56.871 C185.54595,56.787 185.3802,56.94 185.28045,56.8515 C184.70595,56.32275 184.53195,56.01525 184.47945,55.0665 C184.57095,55.93725 184.7367,56.187 185.6067,56.5245 C185.45445,56.094 185.1762,55.92225 185.1072,55.4625 C185.0757,55.21275 185.09295,54.8955 185.1462,54.64125 C185.3592,53.667 185.3502,53.859 184.9107,53.07 C185.0457,53.24175 185.1762,53.442 185.3802,53.442 C185.1537,53.0175 184.9017,52.611 184.7367,52.161 C185.1537,52.19025 185.2977,51.765 185.64645,51.486 C185.84145,51.3345 185.8197,51.58425 186.0462,51.276 C186.1812,51.0615 186.22095,51.1245 186.1812,51.3345 C186.5472,51.08025 186.90345,50.76225 187.26495,50.45925 C188.02245,50.71875 187.26495,50.7375 187.5087,51.08025 C187.3962,51.08025 186.99945,51.23175 186.99945,51.3885 C186.9567,51.5985 187.44795,51.525 187.63095,51.5985 C187.12095,51.6825 186.66045,51.5055 186.36495,51.92175 C186.22095,52.14675 186.15945,52.449 186.0462,52.67475 C186.28095,52.74825 186.5472,52.72875 186.7812,52.7625 C186.5907,52.914 186.5472,53.14875 186.4332,53.3835 C186.36495,53.5845 185.89395,53.16825 185.84145,53.38875 C185.76795,53.6235 185.71995,53.91675 185.69895,54.17625 C185.71995,54.015 185.9112,53.72175 186.0462,53.7555 C186.15945,53.7555 186.6297,54.3375 186.5907,54.4845 C186.5907,54.61575 186.22095,54.71925 186.1287,54.75375 C186.38145,55.17375 186.66045,55.21275 187.13895,55.4085 C186.91695,55.6335 186.7902,55.443 186.5907,55.4085 C186.28095,55.389 186.41595,55.21275 186.0372,55.49625 C185.7897,55.68825 186.3207,55.6335 186.36495,55.60425 C186.25995,55.7655 185.76795,55.91175 185.8512,56.11275 C185.97195,56.343 186.0987,56.57175 186.22095,56.80275 C186.22095,56.72925 186.22095,56.54325 186.1812,56.44125 C186.5472,56.631 187.0167,57.74625 186.9567,56.7435 C186.99945,56.88525 187.12095,57.003 187.18245,57.14025 C187.24245,56.871 187.36545,56.616 187.61295,56.44125 C187.58295,56.66475 187.7352,56.9445 187.6737,57.174 C187.63095,57.34575 187.35645,57.54075 187.27395,57.74625 C187.44795,57.492 187.63095,57.951 187.9782,57.8685 C187.83495,58.044 187.36545,58.52925 187.54845,58.69125 C187.4697,58.61625 188.3577,58.52925 188.3577,58.52925 C187.8177,59.5905 187.24245,60.504 187.0167,61.698 C186.96495,61.9725 187.0392,62.60775 187.44795,62.3925 C187.6437,62.289 187.5177,61.59975 187.65195,61.356 C187.83495,61.01325 188.28795,60.9405 188.4792,60.58275 C188.55345,60.44625 188.50995,60.29925 188.59245,60.08925 C188.6667,59.79 188.80995,59.517 188.9622,59.22825 C189.1572,58.73475 189.37095,58.25475 189.61545,57.795 C189.8202,57.34575 190.1502,56.37225 190.5162,56.13225 C190.49295,56.32275 190.4862,56.5245 190.5162,56.72925 C190.6197,56.2695 190.6197,55.7895 190.5162,55.34025 C190.47645,55.5405 190.19745,55.5405 190.00695,55.443 C190.2897,55.3065 190.38495,54.77325 190.47645,54.44925 C189.48495,54.0345 189.20595,52.36125 188.7972,51.3885 C188.6667,51.1245 188.4312,50.84625 188.49195,50.45925 C188.7132,49.5105 189.90195,48.94275 190.5372,48.50325 L190.47645,48.50325 C190.5372,48.483 190.6197,48.4695 190.65945,48.444 C190.11645,48.879 189.28845,49.30575 188.9712,49.9605 C188.3877,51.10425 189.30945,51.53475 190.00695,52.22475 C190.35045,52.5525 191.10795,52.36125 191.19045,52.8255 C191.2347,53.0805 190.9467,53.5305 190.96845,53.844 C191.1732,53.76075 192.05295,53.15925 191.7432,52.8705 C191.99145,52.782 192.15195,52.36125 192.3357,52.14675 C192.26595,52.12725 192.20445,52.07775 192.1737,52.07775 C192.3357,51.9015 193.3182,51.6825 192.76545,51.46725 C192.9702,51.276 193.25745,51.1245 193.4232,50.87025 C193.4622,50.81625 193.58445,50.44425 193.71045,50.2635 C194.0232,49.878 193.8102,49.941 193.8717,49.608 C193.9107,49.4415 194.0232,49.3395 194.0547,49.20225 C194.1582,48.90375 194.1582,48.58125 194.33295,48.2385 C194.43195,48.6885 194.1582,49.12425 194.22795,49.61775 C194.38545,48.84075 194.3712,48.14025 194.5587,47.43675 C194.6502,47.0745 194.7417,46.7085 194.5887,46.488 C194.3712,46.26225 193.58445,46.425 193.50195,46.16025 C193.4232,45.8475 194.40195,45.006 194.52795,44.56575 C194.5677,44.47725 194.5677,44.34975 194.5887,44.238 L194.5887,44.4195 C194.8722,43.5885 194.83395,43.15275 194.7282,42.24825 C194.71095,42.174 194.7282,42.1155 194.71095,42.057 L194.71095,42.174 L194.71095,41.9985 L194.71095,42.057 C194.7282,42.44325 194.7942,42.8295 194.83395,43.2255 C194.90295,43.84275 194.5677,44.316 194.5677,44.92725 C194.5062,45.07425 194.43195,45.231 194.38545,45.30375 C194.6502,45.32925 194.90295,45.32925 195.15945,45.30375 L195.33345,45.30375 C195.79545,45.27 196.25595,45.231 196.7172,45.17775 C196.87845,45.11325 197.0442,45.07425 197.20545,45.0255 C197.3697,44.99175 197.5527,44.93775 197.7402,44.92725 C198.0237,44.84925 198.5892,44.78175 198.86295,44.69775 C199.0287,44.61525 199.1727,44.547 199.3332,44.48775 C199.37595,44.48775 199.4067,44.47725 199.4157,44.472 C199.59795,44.4195 199.77345,44.472 199.99095,44.3895 C200.0817,44.33625 200.1342,44.316 200.1507,44.2185 C200.23395,44.16 200.30745,44.16 200.3562,44.145 C200.40795,44.145 200.46045,44.16 200.49045,44.16 C200.6652,44.082 200.84745,44.013 201.0432,43.9155 C201.50445,43.671 202.00545,43.41675 202.5057,43.1865 C201.7872,43.2405 201.0957,43.33875 200.3772,43.33875 C200.54295,43.15275 200.72595,42.879 201.07395,42.708 C200.2122,42.864 199.4067,43.2945 198.5892,43.5885 C198.16695,43.6905 197.8182,43.6515 197.3922,43.779 C196.99995,43.8855 195.6942,43.51425 195.81645,44.40975 C195.7422,44.238 195.7032,44.20425 195.65145,44.20425 C195.61245,44.16 195.5592,44.20425 195.5292,44.33625 C195.50745,44.33625 195.50745,44.33625 195.4857,44.34975 C195.40695,44.376 195.38595,44.472 195.30345,44.51175 C195.15045,44.5215 194.93745,44.472 194.8107,44.56575 C194.7282,44.61525 194.6502,44.766 194.5677,44.92725 C194.60745,44.7855 194.71095,44.547 194.7942,44.48775 C194.90295,44.4195 194.9982,44.4195 195.0987,44.4195 C195.40695,44.3895 195.15045,44.316 195.2037,44.238 C195.5292,43.94925 195.73395,43.54875 196.1037,43.33875 C196.9392,42.8985 197.75745,42.4335 198.6192,42.01725 C199.09845,42.2865 200.2122,41.74425 200.80845,41.8125 C201.8187,41.90025 202.89345,42.01725 203.87595,41.6565 C204.28545,41.50425 204.25545,39.768 204.28545,39.43575 C204.49845,40.12575 204.9297,39.79725 205.3302,39.59175 C205.03395,40.18425 205.03395,40.2825 205.27695,40.94625 C205.67895,40.65375 206.38395,39.8505 206.88345,39.79725 C207.14895,39.768 207.1797,39.8505 207.06645,40.0275 C207.63195,40.11075 209.5212,40.389 209.7687,39.90525 C209.8302,39.768 209.74695,39.303 209.72595,39.1665 C209.66445,38.80425 209.44245,38.27175 209.1117,38.15475 C209.1027,38.15475 208.48095,37.99875 208.55895,38.15475 C208.70295,38.32575 208.8987,38.085 209.01195,38.2035 C209.19495,38.34975 209.1342,38.511 209.22495,38.697 C209.58645,39.40125 209.54295,39.57225 208.78545,39.76275 C208.4982,39.83175 208.0812,39.9345 207.74145,39.68025 C207.41445,39.40125 207.41445,38.71125 207.27195,38.34975 C207.10995,38.06175 206.9232,37.5135 206.71845,37.31775 C206.1792,36.75975 206.10495,37.6305 205.6047,36.6285 C205.92195,36.5355 206.14845,35.895 206.4747,35.66925 C206.7402,35.49825 207.5802,35.35125 207.15795,34.98 C207.06645,35.35125 206.88345,35.22975 206.7402,35.0295 C206.2707,34.383 206.4747,33.3225 206.9232,32.784 C207.5367,32.01675 208.54245,31.1265 208.79445,30.12375 C208.98195,29.36025 209.01195,29.36025 209.54295,28.93575 C209.53395,28.95975 209.5122,29.037 209.48145,29.0715 C210.0342,28.881 210.0042,28.881 210.3387,29.51775 C210.2607,29.199 210.18645,28.73025 210.2607,28.3335 C210.2607,28.38225 210.2607,28.42125 210.27795,28.49475 C210.27795,28.42125 210.30045,28.353 210.30045,28.28475 C210.27795,28.67625 210.3387,29.037 210.5442,29.39025 C210.65745,28.99875 210.7092,28.53825 210.87495,28.18275 C210.87495,28.18275 210.90495,28.18275 210.90495,28.1775 C210.7707,28.49475 210.80145,28.90125 211.09695,29.10675 C211.1487,28.90125 211.1487,28.73025 211.16145,28.53825 C211.16145,28.55925 211.17945,28.578 211.17945,28.5975 L211.17945,28.53825 C211.17945,28.593 211.2012,28.5975 211.2312,28.5975 C211.58745,28.52925 211.6707,28.22175 211.9362,27.90825 C211.9152,28.07925 211.9362,28.113 211.9152,28.2705 C212.30595,28.2705 212.9367,28.2705 213.06345,27.747 C212.6637,27.747 213.5337,26.3775 213.63345,26.20125 C213.69495,26.04975 214.2387,24.86625 214.2087,25.497 C214.2087,25.65375 214.0422,25.91775 213.9822,26.03475 C214.0557,25.98075 214.2087,25.98075 214.3077,25.941 C214.18695,26.118 213.9822,26.2845 213.95145,26.5335 C214.2087,26.34375 214.80045,26.8215 215.08695,26.94375 C214.96545,26.4945 215.08695,25.95675 215.4132,25.6785 C215.61795,25.497 216.31395,25.365 216.31395,25.68825 C216.70695,25.575 216.59295,26.08875 216.80595,26.41125 C216.94995,26.17725 216.98895,25.87875 217.1322,25.63425 C217.1937,25.815 217.27545,25.98075 217.39845,26.10375 C217.44195,25.7715 217.64595,25.3845 217.8372,25.101 C218.2377,25.39875 218.89095,24.53775 219.38295,24.6165 C219.6402,24.66 219.6702,25.03725 219.8967,24.82125 C220.1397,24.6165 220.42695,24.4065 220.6317,24.1425 L220.6227,24.039 Z" id="Fill-1" fill="#B7B7B7"></path>
                    <path d="M51.012,67.49385 C51.012,71.22585 47.98725,74.24985 44.256,74.24985 C40.52475,74.24985 37.5,71.22585 37.5,67.49385 C37.5,63.7626 40.52475,60.73785 44.256,60.73785 C47.98725,60.73785 51.012,63.7626 51.012,67.49385" id="Fill-3" fill="#26660C" opacity="0.544247582"></path>
                    <path d="M13.512,16.868925 C13.512,20.600925 10.48725,23.624925 6.756,23.624925 C3.02475,23.624925 0,20.600925 0,16.868925 C0,13.137675 3.02475,10.112925 6.756,10.112925 C10.48725,10.112925 13.512,13.137675 13.512,16.868925" id="Fill-5" fill="#26660C" opacity="0.544247582"></path>
                    <path d="M22.512,9.743925 C22.512,13.475925 19.48725,16.499925 15.756,16.499925 C12.02475,16.499925 9,13.475925 9,9.743925 C9,6.012675 12.02475,2.987925 15.756,2.987925 C19.48725,2.987925 22.512,6.012675 22.512,9.743925" id="Fill-7" fill="#26660C" opacity="0.544247582"></path>
                    <path d="M60.387,81.74385 C60.387,85.47585 57.36225,88.49985 53.631,88.49985 C49.89975,88.49985 46.875,85.47585 46.875,81.74385 C46.875,78.0126 49.89975,74.98785 53.631,74.98785 C57.36225,74.98785 60.387,78.0126 60.387,81.74385" id="Fill-9" fill="#26660C" opacity="0.544247582"></path>
                    <path d="M37.512,81.36885 C37.512,85.10085 34.48725,88.12485 30.756,88.12485 C27.02475,88.12485 24,85.10085 24,81.36885 C24,77.6376 27.02475,74.61285 30.756,74.61285 C34.48725,74.61285 37.512,77.6376 37.512,81.36885" id="Fill-11" fill="#26660C" opacity="0.544247582"></path>
                    <path d="M28.512,73.86885 C28.512,77.60085 25.48725,80.62485 21.756,80.62485 C18.02475,80.62485 15,77.60085 15,73.86885 C15,70.1376 18.02475,67.11285 21.756,67.11285 C25.48725,67.11285 28.512,70.1376 28.512,73.86885" id="Fill-13" fill="#26660C" opacity="0.544247582"></path>
                    <path d="M31.512,70.86885 C31.512,74.60085 28.48725,77.62485 24.756,77.62485 C21.02475,77.62485 18,74.60085 18,70.86885 C18,67.1376 21.02475,64.11285 24.756,64.11285 C28.48725,64.11285 31.512,67.1376 31.512,70.86885" id="Fill-15" fill="#26660C" opacity="0.544247582"></path>
                    <path d="M34.137,72.36885 C34.137,76.10085 31.11225,79.12485 27.381,79.12485 C23.64975,79.12485 20.625,76.10085 20.625,72.36885 C20.625,68.6376 23.64975,65.61285 27.381,65.61285 C31.11225,65.61285 34.137,68.6376 34.137,72.36885" id="Fill-17" fill="#26660C" opacity="0.544247582"></path>
                    <path d="M36.136875,69.8691 C36.136875,73.60035 33.112125,76.6251 29.380875,76.6251 C25.649625,76.6251 22.624875,73.60035 22.624875,69.8691 C22.624875,66.1371 25.649625,63.1131 29.380875,63.1131 C33.112125,63.1131 36.136875,66.1371 36.136875,69.8691" id="Fill-19" fill="#26660C" opacity="0.544247582"></path>
                    <path d="M21.762,64.86885 C21.762,68.60085 18.73725,71.62485 15.006,71.62485 C11.27475,71.62485 8.25,68.60085 8.25,64.86885 C8.25,61.1376 11.27475,58.11285 15.006,58.11285 C18.73725,58.11285 21.762,61.1376 21.762,64.86885" id="Fill-21" fill="#26660C" opacity="0.544247582"></path>
                    <path d="M25.887,65.61885 C25.887,69.35085 22.86225,72.37485 19.131,72.37485 C15.39975,72.37485 12.375,69.35085 12.375,65.61885 C12.375,61.8876 15.39975,58.86285 19.131,58.86285 C22.86225,58.86285 25.887,61.8876 25.887,65.61885" id="Fill-23" fill="#26660C" opacity="0.544247582"></path>
                    <path d="M30.387,64.11885 C30.387,67.85085 27.36225,70.87485 23.631,70.87485 C19.89975,70.87485 16.875,67.85085 16.875,64.11885 C16.875,60.3876 19.89975,57.36285 23.631,57.36285 C27.36225,57.36285 30.387,60.3876 30.387,64.11885" id="Fill-25" fill="#26660C" opacity="0.544247582"></path>
                    <path d="M30.762,46.11885 C30.762,49.85085 27.73725,52.87485 24.006,52.87485 C20.27475,52.87485 17.25,49.85085 17.25,46.11885 C17.25,42.3876 20.27475,39.36285 24.006,39.36285 C27.73725,39.36285 30.762,42.3876 30.762,46.11885" id="Fill-27" fill="#26660C" opacity="0.544247582"></path>
                    <path d="M29.262,41.99385 C29.262,45.72585 26.23725,48.74985 22.506,48.74985 C18.77475,48.74985 15.75,45.72585 15.75,41.99385 C15.75,38.2626 18.77475,35.23785 22.506,35.23785 C26.23725,35.23785 29.262,38.2626 29.262,41.99385" id="Fill-29" fill="#26660C" opacity="0.544247582"></path>
                    <path d="M34.137,49.86885 C34.137,53.60085 31.11225,56.62485 27.381,56.62485 C23.64975,56.62485 20.625,53.60085 20.625,49.86885 C20.625,46.1376 23.64975,43.11285 27.381,43.11285 C31.11225,43.11285 34.137,46.1376 34.137,49.86885" id="Fill-31" fill="#26660C" opacity="0.544247582"></path>
                    <path d="M168.0123,105.36885 C168.0123,109.10085 164.98755,112.12485 161.25555,112.12485 C157.52505,112.12485 154.49955,109.10085 154.49955,105.36885 C154.49955,101.6376 157.52505,98.61285 161.25555,98.61285 C164.98755,98.61285 168.0123,101.6376 168.0123,105.36885" id="Fill-33" fill="#26660C" opacity="0.544247582"></path>
                    <path d="M169.8873,103.11885 C169.8873,106.85085 166.86255,109.87485 163.13055,109.87485 C159.40005,109.87485 156.37455,106.85085 156.37455,103.11885 C156.37455,99.3876 159.40005,96.36285 163.13055,96.36285 C166.86255,96.36285 169.8873,99.3876 169.8873,103.11885" id="Fill-35" fill="#26660C" opacity="0.544247582"></path>
                    <path d="M157.1373,94.86885 C157.1373,98.60085 154.11255,101.62485 150.38055,101.62485 C146.65005,101.62485 143.62455,98.60085 143.62455,94.86885 C143.62455,91.1376 146.65005,88.11285 150.38055,88.11285 C154.11255,88.11285 157.1373,91.1376 157.1373,94.86885" id="Fill-37" fill="#26660C" opacity="0.544247582"></path>
                    <path d="M154.8873,93.74385 C154.8873,97.47585 151.86255,100.49985 148.13055,100.49985 C144.40005,100.49985 141.37455,97.47585 141.37455,93.74385 C141.37455,90.0126 144.40005,86.98785 148.13055,86.98785 C151.86255,86.98785 154.8873,90.0126 154.8873,93.74385" id="Fill-39" fill="#26660C" opacity="0.544247582"></path>
                    <path d="M151.8873,80.99385 C151.8873,84.72585 148.86255,87.74985 145.13055,87.74985 C141.40005,87.74985 138.37455,84.72585 138.37455,80.99385 C138.37455,77.2626 141.40005,74.23785 145.13055,74.23785 C148.86255,74.23785 151.8873,77.2626 151.8873,80.99385" id="Fill-41" fill="#26660C" opacity="0.544247582"></path>
                    <path d="M172.1373,110.99385 C172.1373,114.72585 169.11255,117.74985 165.38055,117.74985 C161.65005,117.74985 158.62455,114.72585 158.62455,110.99385 C158.62455,107.2626 161.65005,104.23785 165.38055,104.23785 C169.11255,104.23785 172.1373,107.2626 172.1373,110.99385" id="Fill-43" fill="#26660C" opacity="0.544247582"></path>
                    <path d="M175.5123,104.99385 C175.5123,108.72585 172.48755,111.74985 168.75555,111.74985 C165.02505,111.74985 161.99955,108.72585 161.99955,104.99385 C161.99955,101.2626 165.02505,98.23785 168.75555,98.23785 C172.48755,98.23785 175.5123,101.2626 175.5123,104.99385" id="Fill-45" fill="#26660C" opacity="0.544247582"></path>
                    <path d="M174.3873,121.493925 C174.3873,125.225925 171.36255,128.249925 167.63055,128.249925 C163.90005,128.249925 160.87455,125.225925 160.87455,121.493925 C160.87455,117.762675 163.90005,114.737925 167.63055,114.737925 C171.36255,114.737925 174.3873,117.762675 174.3873,121.493925" id="Fill-47" fill="#26660C" opacity="0.544247582"></path>
                    <path d="M131.637,78.74385 C131.637,82.47585 128.61225,85.49985 124.881,85.49985 C121.14975,85.49985 118.125,82.47585 118.125,78.74385 C118.125,75.0126 121.14975,71.98785 124.881,71.98785 C128.61225,71.98785 131.637,75.0126 131.637,78.74385" id="Fill-49" fill="#26660C" opacity="0.544247582"></path>
                    <path d="M115.387125,81.9936 C115.387125,85.7256 112.362375,88.75035 108.631125,88.75035 C104.899875,88.75035 101.875125,85.7256 101.875125,81.9936 C101.875125,78.26235 104.899875,75.2376 108.631125,75.2376 C112.362375,75.2376 115.387125,78.26235 115.387125,81.9936" id="Fill-51" fill="#26660C" opacity="0.544247582"></path>
                    <path d="M141.387,94.49385 C141.387,98.22585 138.36225,101.24985 134.631,101.24985 C130.89975,101.24985 127.875,98.22585 127.875,94.49385 C127.875,90.7626 130.89975,87.73785 134.631,87.73785 C138.36225,87.73785 141.387,90.7626 141.387,94.49385" id="Fill-53" fill="#26660C" opacity="0.544247582"></path>
                    <path d="M130.137,68.61885 C130.137,72.35085 127.11225,75.37485 123.381,75.37485 C119.64975,75.37485 116.625,72.35085 116.625,68.61885 C116.625,64.8876 119.64975,61.86285 123.381,61.86285 C127.11225,61.86285 130.137,64.8876 130.137,68.61885" id="Fill-55" fill="#26660C" opacity="0.544247582"></path>
                    <path d="M130.887,53.24385 C130.887,56.97585 127.86225,59.99985 124.131,59.99985 C120.39975,59.99985 117.375,56.97585 117.375,53.24385 C117.375,49.5126 120.39975,46.48785 124.131,46.48785 C127.86225,46.48785 130.887,49.5126 130.887,53.24385" id="Fill-57" fill="#26660C" opacity="0.544247582"></path>
                    <path d="M172.8873,105.36885 C172.8873,109.10085 169.86255,112.12485 166.13055,112.12485 C162.40005,112.12485 159.37455,109.10085 159.37455,105.36885 C159.37455,101.6376 162.40005,98.61285 166.13055,98.61285 C169.86255,98.61285 172.8873,101.6376 172.8873,105.36885" id="Fill-59" fill="#26660C" opacity="0.544247582"></path>
                    <path d="M177.3873,110.61885 C177.3873,114.35085 174.36255,117.37485 170.63055,117.37485 C166.90005,117.37485 163.87455,114.35085 163.87455,110.61885 C163.87455,106.8876 166.90005,103.86285 170.63055,103.86285 C174.36255,103.86285 177.3873,106.8876 177.3873,110.61885" id="Fill-61" fill="#26660C" opacity="0.544247582"></path>
                    <path d="M170.6373,107.99385 C170.6373,111.72585 167.61255,114.74985 163.88055,114.74985 C160.15005,114.74985 157.12455,111.72585 157.12455,107.99385 C157.12455,104.2626 160.15005,101.23785 163.88055,101.23785 C167.61255,101.23785 170.6373,104.2626 170.6373,107.99385" id="Fill-63" fill="#26660C" opacity="0.544247582"></path>
                    <path d="M177.3873,107.61885 C177.3873,111.35085 174.36255,114.37485 170.63055,114.37485 C166.90005,114.37485 163.87455,111.35085 163.87455,107.61885 C163.87455,103.8876 166.90005,100.86285 170.63055,100.86285 C174.36255,100.86285 177.3873,103.8876 177.3873,107.61885" id="Fill-65" fill="#26660C" opacity="0.544247582"></path>
                    <path d="M153.7623,74.61885 C153.7623,78.35085 150.73755,81.37485 147.00555,81.37485 C143.27505,81.37485 140.24955,78.35085 140.24955,74.61885 C140.24955,70.8876 143.27505,67.86285 147.00555,67.86285 C150.73755,67.86285 153.7623,70.8876 153.7623,74.61885" id="Fill-67" fill="#26660C" opacity="0.544247582"></path>
                    <path d="M166.8873,80.61885 C166.8873,84.35085 163.86255,87.37485 160.13055,87.37485 C156.40005,87.37485 153.37455,84.35085 153.37455,80.61885 C153.37455,76.8876 156.40005,73.86285 160.13055,73.86285 C163.86255,73.86285 166.8873,76.8876 166.8873,80.61885" id="Fill-69" fill="#26660C" opacity="0.544247582"></path>
                    <path d="M180.0123,81.36885 C180.0123,85.10085 176.98755,88.12485 173.25555,88.12485 C169.52505,88.12485 166.49955,85.10085 166.49955,81.36885 C166.49955,77.6376 169.52505,74.61285 173.25555,74.61285 C176.98755,74.61285 180.0123,77.6376 180.0123,81.36885" id="Fill-71" fill="#26660C" opacity="0.544247582"></path>
                    <path d="M176.2623,71.61885 C176.2623,75.35085 173.23755,78.37485 169.50555,78.37485 C165.77505,78.37485 162.74955,75.35085 162.74955,71.61885 C162.74955,67.8876 165.77505,64.86285 169.50555,64.86285 C173.23755,64.86285 176.2623,67.8876 176.2623,71.61885" id="Fill-73" fill="#26660C" opacity="0.544247582"></path>
                    <path d="M182.2623,70.49385 C182.2623,74.22585 179.23755,77.24985 175.50555,77.24985 C171.77505,77.24985 168.74955,74.22585 168.74955,70.49385 C168.74955,66.7626 171.77505,63.73785 175.50555,63.73785 C179.23755,63.73785 182.2623,66.7626 182.2623,70.49385" id="Fill-75" fill="#26660C" opacity="0.544247582"></path>
                    <path d="M199.1373,49.86885 C199.1373,53.60085 196.11255,56.62485 192.38055,56.62485 C188.65005,56.62485 185.62455,53.60085 185.62455,49.86885 C185.62455,46.1376 188.65005,43.11285 192.38055,43.11285 C196.11255,43.11285 199.1373,46.1376 199.1373,49.86885" id="Fill-77" fill="#26660C" opacity="0.544247582"></path>
                    <path d="M196.5123,53.99385 C196.5123,57.72585 193.48755,60.74985 189.75555,60.74985 C186.02505,60.74985 182.99955,57.72585 182.99955,53.99385 C182.99955,50.2626 186.02505,47.23785 189.75555,47.23785 C193.48755,47.23785 196.5123,50.2626 196.5123,53.99385" id="Fill-79" fill="#26660C" opacity="0.544247582"></path>
                    <path d="M193.1373,50.99385 C193.1373,54.72585 190.11255,57.74985 186.38055,57.74985 C182.65005,57.74985 179.62455,54.72585 179.62455,50.99385 C179.62455,47.2626 182.65005,44.23785 186.38055,44.23785 C190.11255,44.23785 193.1373,47.2626 193.1373,50.99385" id="Fill-81" fill="#26660C" opacity="0.544247582"></path>
                    <path d="M189.3873,50.61885 C189.3873,54.35085 186.36255,57.37485 182.63055,57.37485 C178.90005,57.37485 175.87455,54.35085 175.87455,50.61885 C175.87455,46.8876 178.90005,43.86285 182.63055,43.86285 C186.36255,43.86285 189.3873,46.8876 189.3873,50.61885" id="Fill-83" fill="#26660C" opacity="0.544247582"></path>
                    <path d="M199.5123,54.36885 C199.5123,58.10085 196.48755,61.12485 192.75555,61.12485 C189.02505,61.12485 185.99955,58.10085 185.99955,54.36885 C185.99955,50.6376 189.02505,47.61285 192.75555,47.61285 C196.48755,47.61285 199.5123,50.6376 199.5123,54.36885" id="Fill-85" fill="#26660C" opacity="0.544247582"></path>
                    <path d="M197.2623,45.36885 C197.2623,49.10085 194.23755,52.12485 190.50555,52.12485 C186.77505,52.12485 183.74955,49.10085 183.74955,45.36885 C183.74955,41.6376 186.77505,38.61285 190.50555,38.61285 C194.23755,38.61285 197.2623,41.6376 197.2623,45.36885" id="Fill-87" fill="#26660C" opacity="0.544247582"></path>
                    <path d="M208.8873,38.61885 C208.8873,42.35085 205.86255,45.37485 202.13055,45.37485 C198.40005,45.37485 195.37455,42.35085 195.37455,38.61885 C195.37455,34.8876 198.40005,31.86285 202.13055,31.86285 C205.86255,31.86285 208.8873,34.8876 208.8873,38.61885" id="Fill-89" fill="#26660C" opacity="0.544247582"></path>
                    <path d="M193.1373,63.74385 C193.1373,67.47585 190.11255,70.49985 186.38055,70.49985 C182.65005,70.49985 179.62455,67.47585 179.62455,63.74385 C179.62455,60.0126 182.65005,56.98785 186.38055,56.98785 C190.11255,56.98785 193.1373,60.0126 193.1373,63.74385" id="Fill-91" fill="#26660C" opacity="0.544247582"></path>
                    <path d="M198.3873,56.99385 C198.3873,60.72585 195.36255,63.74985 191.63055,63.74985 C187.90005,63.74985 184.87455,60.72585 184.87455,56.99385 C184.87455,53.2626 187.90005,50.23785 191.63055,50.23785 C195.36255,50.23785 198.3873,53.2626 198.3873,56.99385" id="Fill-93" fill="#26660C" opacity="0.544247582"></path>
                    <path d="M197.6373,40.7436 C197.6373,44.4756 194.61255,47.50035 190.88055,47.50035 C187.15005,47.50035 184.12455,44.4756 184.12455,40.7436 C184.12455,37.01235 187.15005,33.9876 190.88055,33.9876 C194.61255,33.9876 197.6373,37.01235 197.6373,40.7436" id="Fill-95" fill="#26660C" opacity="0.544247582"></path>
                    <path d="M190.8873,40.49385 C190.8873,44.22585 187.86255,47.24985 184.13055,47.24985 C180.40005,47.24985 177.37455,44.22585 177.37455,40.49385 C177.37455,36.7626 180.40005,33.73785 184.13055,33.73785 C187.86255,33.73785 190.8873,36.7626 190.8873,40.49385" id="Fill-97" fill="#26660C" opacity="0.544247582"></path>
                    <path d="M182.6373,65.99385 C182.6373,69.72585 179.61255,72.74985 175.88055,72.74985 C172.15005,72.74985 169.12455,69.72585 169.12455,65.99385 C169.12455,62.2626 172.15005,59.23785 175.88055,59.23785 C179.61255,59.23785 182.6373,62.2626 182.6373,65.99385" id="Fill-99" fill="#26660C" opacity="0.544247582"></path>
                    <path d="M173.6373,70.11885 C173.6373,73.85085 170.61255,76.87485 166.88055,76.87485 C163.15005,76.87485 160.12455,73.85085 160.12455,70.11885 C160.12455,66.3876 163.15005,63.36285 166.88055,63.36285 C170.61255,63.36285 173.6373,66.3876 173.6373,70.11885" id="Fill-101" fill="#26660C" opacity="0.544247582"></path>
                    <path d="M187.1373,56.99385 C187.1373,60.72585 184.11255,63.74985 180.38055,63.74985 C176.65005,63.74985 173.62455,60.72585 173.62455,56.99385 C173.62455,53.2626 176.65005,50.23785 180.38055,50.23785 C184.11255,50.23785 187.1373,53.2626 187.1373,56.99385" id="Fill-103" fill="#26660C" opacity="0.544247582"></path>
                    <path d="M181.636875,57.2436 C181.636875,60.9756 178.612125,64.00035 174.880875,64.00035 C171.150375,64.00035 168.124875,60.9756 168.124875,57.2436 C168.124875,53.51235 171.150375,50.4876 174.880875,50.4876 C178.612125,50.4876 181.636875,53.51235 181.636875,57.2436" id="Fill-105" fill="#26660C" opacity="0.544247582"></path>
                    <path d="M181.5123,59.99385 C181.5123,63.72585 178.48755,66.74985 174.75555,66.74985 C171.02505,66.74985 167.99955,63.72585 167.99955,59.99385 C167.99955,56.2626 171.02505,53.23785 174.75555,53.23785 C178.48755,53.23785 181.5123,56.2626 181.5123,59.99385" id="Fill-107" fill="#26660C" opacity="0.544247582"></path>
                    <path d="M173.2623,50.61885 C173.2623,54.35085 170.23755,57.37485 166.50555,57.37485 C162.77505,57.37485 159.74955,54.35085 159.74955,50.61885 C159.74955,46.8876 162.77505,43.86285 166.50555,43.86285 C170.23755,43.86285 173.2623,46.8876 173.2623,50.61885" id="Fill-109" fill="#26660C" opacity="0.544247582"></path>
                    <path d="M152.6403,85.11885 C152.6403,88.85085 149.61555,91.87485 145.88355,91.87485 C142.15305,91.87485 139.1283,88.85085 139.1283,85.11885 C139.1283,81.3876 142.15305,78.36285 145.88355,78.36285 C149.61555,78.36285 152.6403,81.3876 152.6403,85.11885" id="Fill-111" fill="#26660C" opacity="0.544247582"></path>
                    <path d="M171.7623,46.86885 C171.7623,50.60085 168.73755,53.62485 165.00555,53.62485 C161.27505,53.62485 158.24955,50.60085 158.24955,46.86885 C158.24955,43.1376 161.27505,40.11285 165.00555,40.11285 C168.73755,40.11285 171.7623,43.1376 171.7623,46.86885" id="Fill-113" fill="#26660C" opacity="0.544247582"></path>
                    <path d="M178.8873,42.74385 C178.8873,46.47585 175.86255,49.49985 172.13055,49.49985 C168.40005,49.49985 165.37455,46.47585 165.37455,42.74385 C165.37455,39.0126 168.40005,35.98785 172.13055,35.98785 C175.86255,35.98785 178.8873,39.0126 178.8873,42.74385" id="Fill-115" fill="#26660C" opacity="0.544247582"></path>
                    <path d="M187.5123,33.74385 C187.5123,37.47585 184.48755,40.49985 180.75555,40.49985 C177.02505,40.49985 173.99955,37.47585 173.99955,33.74385 C173.99955,30.0126 177.02505,26.98785 180.75555,26.98785 C184.48755,26.98785 187.5123,30.0126 187.5123,33.74385" id="Fill-117" fill="#26660C" opacity="0.544247582"></path>
                    <path d="M191.6373,33.74385 C191.6373,37.47585 188.61255,40.49985 184.88055,40.49985 C181.15005,40.49985 178.12455,37.47585 178.12455,33.74385 C178.12455,30.0126 181.15005,26.98785 184.88055,26.98785 C188.61255,26.98785 191.6373,30.0126 191.6373,33.74385" id="Fill-119" fill="#26660C" opacity="0.544247582"></path>
                    <path d="M154.5123,34.86885 C154.5123,38.60085 151.48755,41.62485 147.75555,41.62485 C144.02505,41.62485 140.99955,38.60085 140.99955,34.86885 C140.99955,31.1376 144.02505,28.11285 147.75555,28.11285 C151.48755,28.11285 154.5123,31.1376 154.5123,34.86885" id="Fill-121" fill="#26660C" opacity="0.544247582"></path>
                    <path d="M148.1373,41.61885 C148.1373,45.35085 145.11255,48.37485 141.3813,48.37485 C137.65005,48.37485 134.62455,45.35085 134.62455,41.61885 C134.62455,37.8876 137.65005,34.86285 141.3813,34.86285 C145.11255,34.86285 148.1373,37.8876 148.1373,41.61885" id="Fill-123" fill="#26660C" opacity="0.544247582"></path>
                    <path d="M146.6373,38.99385 C146.6373,42.72585 143.61255,45.74985 139.8813,45.74985 C136.15005,45.74985 133.12455,42.72585 133.12455,38.99385 C133.12455,35.2626 136.15005,32.23785 139.8813,32.23785 C143.61255,32.23785 146.6373,35.2626 146.6373,38.99385" id="Fill-125" fill="#26660C" opacity="0.544247582"></path>
                    <path d="M149.2623,42.74385 C149.2623,46.47585 146.23755,49.49985 142.50555,49.49985 C138.77505,49.49985 135.74955,46.47585 135.74955,42.74385 C135.74955,39.0126 138.77505,35.98785 142.50555,35.98785 C146.23755,35.98785 149.2623,39.0126 149.2623,42.74385" id="Fill-127" fill="#26660C" opacity="0.544247582"></path>
                    <path d="M147.7623,47.24385 C147.7623,50.97585 144.73755,53.99985 141.0063,53.99985 C137.27505,53.99985 134.24955,50.97585 134.24955,47.24385 C134.24955,43.5126 137.27505,40.48785 141.0063,40.48785 C144.73755,40.48785 147.7623,43.5126 147.7623,47.24385" id="Fill-129" fill="#26660C" opacity="0.544247582"></path>
                    <path d="M166.261875,36.4941 C166.261875,40.22535 163.237125,43.2501 159.505875,43.2501 C155.775375,43.2501 152.749875,40.22535 152.749875,36.4941 C152.749875,32.7621 155.775375,29.7381 159.505875,29.7381 C163.237125,29.7381 166.261875,32.7621 166.261875,36.4941" id="Fill-131" fill="#26660C" opacity="0.544247582"></path>
                    <path d="M147.7623,32.99385 C147.7623,36.72585 144.73755,39.74985 141.0063,39.74985 C137.27505,39.74985 134.24955,36.72585 134.24955,32.99385 C134.24955,29.2626 137.27505,26.23785 141.0063,26.23785 C144.73755,26.23785 147.7623,29.2626 147.7623,32.99385" id="Fill-133" fill="#26660C" opacity="0.544247582"></path>
                    <path d="M156.3873,23.618925 C156.3873,27.350925 153.36255,30.374925 149.63055,30.374925 C145.90005,30.374925 142.87455,27.350925 142.87455,23.618925 C142.87455,19.887675 145.90005,16.862925 149.63055,16.862925 C153.36255,16.862925 156.3873,19.887675 156.3873,23.618925" id="Fill-135" fill="#26660C" opacity="0.544247582"></path>
                    <path d="M166.8873,38.24385 C166.8873,41.97585 163.86255,44.99985 160.13055,44.99985 C156.40005,44.99985 153.37455,41.97585 153.37455,38.24385 C153.37455,34.5126 156.40005,31.48785 160.13055,31.48785 C163.86255,31.48785 166.8873,34.5126 166.8873,38.24385" id="Fill-137" fill="#26660C" opacity="0.544247582"></path>
                    <path d="M166.5123,36.36885 C166.5123,40.10085 163.48755,43.12485 159.75555,43.12485 C156.02505,43.12485 152.99955,40.10085 152.99955,36.36885 C152.99955,32.6376 156.02505,29.61285 159.75555,29.61285 C163.48755,29.61285 166.5123,32.6376 166.5123,36.36885" id="Fill-139" fill="#26660C" opacity="0.544247582"></path>
                    <path d="M165.0123,38.24385 C165.0123,41.97585 161.98755,44.99985 158.25555,44.99985 C154.52505,44.99985 151.49955,41.97585 151.49955,38.24385 C151.49955,34.5126 154.52505,31.48785 158.25555,31.48785 C161.98755,31.48785 165.0123,34.5126 165.0123,38.24385" id="Fill-141" fill="#26660C" opacity="0.544247582"></path>
                    <path d="M160.012125,34.7436 C160.012125,38.4756 156.987375,41.50035 153.256125,41.50035 C149.524875,41.50035 146.499375,38.4756 146.499375,34.7436 C146.499375,31.01235 149.524875,27.9876 153.256125,27.9876 C156.987375,27.9876 160.012125,31.01235 160.012125,34.7436" id="Fill-143" fill="#26660C" opacity="0.544247582"></path>
                    <path d="M168.3873,30.368925 C168.3873,34.100925 165.36255,37.124925 161.63055,37.124925 C157.90005,37.124925 154.87455,34.100925 154.87455,30.368925 C154.87455,26.637675 157.90005,23.612925 161.63055,23.612925 C165.36255,23.612925 168.3873,26.637675 168.3873,30.368925" id="Fill-145" fill="#26660C" opacity="0.544247582"></path>
                    <path d="M181.5123,38.61885 C181.5123,42.35085 178.48755,45.37485 174.75555,45.37485 C171.02505,45.37485 167.99955,42.35085 167.99955,38.61885 C167.99955,34.8876 171.02505,31.86285 174.75555,31.86285 C178.48755,31.86285 181.5123,34.8876 181.5123,38.61885" id="Fill-147" fill="#26660C" opacity="0.544247582"></path>
                    <path d="M186.262125,41.3691 C186.262125,45.10035 183.237375,48.1251 179.506125,48.1251 C175.774875,48.1251 172.749375,45.10035 172.749375,41.3691 C172.749375,37.6371 175.774875,34.6131 179.506125,34.6131 C183.237375,34.6131 186.262125,37.6371 186.262125,41.3691" id="Fill-149" fill="#26660C" opacity="0.544247582"></path>
                    <path d="M134.262,10.868925 C134.262,14.600925 131.23725,17.624925 127.506,17.624925 C123.77475,17.624925 120.75,14.600925 120.75,10.868925 C120.75,7.137675 123.77475,4.112925 127.506,4.112925 C131.23725,4.112925 134.262,7.137675 134.262,10.868925" id="Fill-151" fill="#26660C" opacity="0.544247582"></path>
                    <path d="M120.762,11.243925 C120.762,14.975925 117.73725,17.999925 114.006,17.999925 C110.27475,17.999925 107.25,14.975925 107.25,11.243925 C107.25,7.512675 110.27475,4.487925 114.006,4.487925 C117.73725,4.487925 120.762,7.512675 120.762,11.243925" id="Fill-153" fill="#26660C" opacity="0.544247582"></path>
                    <path d="M210.7623,37.86885 C210.7623,41.60085 207.7383,44.62485 204.0063,44.62485 C200.2758,44.62485 197.2503,41.60085 197.2503,37.86885 C197.2503,34.1376 200.2758,31.11285 204.0063,31.11285 C207.7383,31.11285 210.7623,34.1376 210.7623,37.86885" id="Fill-155" fill="#26660C" opacity="0.544247582"></path>
                    <path d="M207.7623,41.24385 C207.7623,44.97585 204.7383,47.99985 201.0063,47.99985 C197.2758,47.99985 194.2503,44.97585 194.2503,41.24385 C194.2503,37.5126 197.2758,34.48785 201.0063,34.48785 C204.7383,34.48785 207.7623,37.5126 207.7623,41.24385" id="Fill-157" fill="#26660C" opacity="0.544247582"></path>
                    <path d="M208.1373,38.24385 C208.1373,41.97585 205.1133,44.99985 201.3813,44.99985 C197.6508,44.99985 194.6253,41.97585 194.6253,38.24385 C194.6253,34.5126 197.6508,31.48785 201.3813,31.48785 C205.1133,31.48785 208.1373,34.5126 208.1373,38.24385" id="Fill-159" fill="#26660C" opacity="0.544247582"></path>
                    <path d="M202.5123,38.61885 C202.5123,42.35085 199.4883,45.37485 195.7563,45.37485 C192.0258,45.37485 189.0003,42.35085 189.0003,38.61885 C189.0003,34.8876 192.0258,31.86285 195.7563,31.86285 C199.4883,31.86285 202.5123,34.8876 202.5123,38.61885" id="Fill-161" fill="#26660C" opacity="0.544247582"></path>
                    <path d="M195.0123,39.36885 C195.0123,43.10085 191.9883,46.12485 188.2563,46.12485 C184.5258,46.12485 181.5003,43.10085 181.5003,39.36885 C181.5003,35.6376 184.5258,32.61285 188.2563,32.61285 C191.9883,32.61285 195.0123,35.6376 195.0123,39.36885" id="Fill-163" fill="#26660C" opacity="0.544247582"></path>
                    <path d="M195.2628,28.118925 C195.2628,31.850925 192.23805,34.874925 188.5068,34.874925 C184.77555,34.874925 181.75005,31.850925 181.75005,28.118925 C181.75005,24.387675 184.77555,21.362925 188.5068,21.362925 C192.23805,21.362925 195.2628,24.387675 195.2628,28.118925" id="Fill-165" fill="#26660C" opacity="0.544247582"></path>
                    <path d="M208.1373,36.74385 C208.1373,40.47585 205.1133,43.49985 201.3813,43.49985 C197.6508,43.49985 194.6253,40.47585 194.6253,36.74385 C194.6253,33.0126 197.6508,29.98785 201.3813,29.98785 C205.1133,29.98785 208.1373,33.0126 208.1373,36.74385" id="Fill-167" fill="#26660C" opacity="0.544247582"></path>
                    <path d="M205.5123,37.11885 C205.5123,40.85085 202.4883,43.87485 198.7563,43.87485 C195.0258,43.87485 192.0003,40.85085 192.0003,37.11885 C192.0003,33.3876 195.0258,30.36285 198.7563,30.36285 C202.4883,30.36285 205.5123,33.3876 205.5123,37.11885" id="Fill-169" fill="#26660C" opacity="0.544247582"></path>
                    <path d="M202.8873,37.11885 C202.8873,40.85085 199.8633,43.87485 196.1313,43.87485 C192.4008,43.87485 189.3753,40.85085 189.3753,37.11885 C189.3753,33.3876 192.4008,30.36285 196.1313,30.36285 C199.8633,30.36285 202.8873,33.3876 202.8873,37.11885" id="Fill-171" fill="#26660C" opacity="0.544247582"></path>
                    <path d="M201.6378,34.86885 C201.6378,38.60085 198.61305,41.62485 194.8818,41.62485 C191.15055,41.62485 188.12505,38.60085 188.12505,34.86885 C188.12505,31.1376 191.15055,28.11285 194.8818,28.11285 C198.61305,28.11285 201.6378,31.1376 201.6378,34.86885" id="Fill-173" fill="#26660C" opacity="0.544247582"></path>
                </g>
            </g>
        </g>
    </g>
</svg>