<?xml version="1.0" encoding="UTF-8"?>
<svg width="305px" height="69px" viewBox="0 0 305 69" version="1.1" xmlns="http://www.w3.org/2000/svg" xmlns:xlink="http://www.w3.org/1999/xlink">
    <!-- Generator: Sketch 59.1 (86144) - https://sketch.com -->
    <title>Group 156</title>
    <desc>Created with Sketch.</desc>
    <g id="Desktop" stroke="none" stroke-width="1" fill="none" fill-rule="evenodd">
        <g id="Homelessness-Section-3-6" transform="translate(-845.000000, -1758.000000)">
            <g id="Group-15" transform="translate(845.000000, 1754.000000)">
                <polygon id="Fill-1" fill="#E0E0E0" points="2.7585 37.460375 299.7585 37.460375 299.7585 27.710375 2.7585 27.710375"></polygon>
                <line x1="2.758275" y1="45.464825" x2="2.758275" y2="19.214825" id="Stroke-2" stroke="#D1D1D1" stroke-width="0.75" stroke-linecap="round"></line>
                <line x1="77.008275" y1="45.335225" x2="77.008275" y2="19.085225" id="Stroke-3" stroke="#D1D1D1" stroke-width="0.75" stroke-linecap="round"></line>
                <line x1="151.258275" y1="45.464825" x2="151.258275" y2="19.214825" id="Stroke-4" stroke="#D1D1D1" stroke-width="0.75" stroke-linecap="round"></line>
                <line x1="225.508275" y1="45.464825" x2="225.508275" y2="19.214825" id="Stroke-5" stroke="#D1D1D1" stroke-width="0.75" stroke-linecap="round"></line>
                <g id="Group-14" transform="translate(0.000000, 0.421875)">
                    <path d="M267.508275,40.78835 L89.758275,40.78835 C87.695775,40.78835 86.008275,39.10085 86.008275,37.03835 L86.008275,27.28835 C86.008275,25.22585 87.695775,23.53835 89.758275,23.53835 L267.508275,23.53835 C269.570775,23.53835 271.258275,25.22585 271.258275,27.28835 L271.258275,37.03835 C271.258275,39.10085 269.570775,40.78835 267.508275,40.78835" id="Fill-6" fill="#D5E8AA"></path>
                    <path d="M217.2444,42.28835 L95.9619,42.28835 C93.5394,42.28835 91.55715,40.3061 91.55715,37.88435 L91.55715,26.4431 C91.55715,24.0206 93.5394,22.03835 95.9619,22.03835 L217.2444,22.03835 C219.6669,22.03835 221.64915,24.0206 221.64915,26.4431 L221.64915,37.88435 C221.64915,40.3061 219.6669,42.28835 217.2444,42.28835" id="Fill-8" fill="#26660C"></path>
                    <text id="CLUSTER-MEDIAN:-$883" font-family="SourceSansPro-Semibold, Source Sans Pro" font-size="10.5" font-weight="500" letter-spacing="-0.0149999997" fill="#3F3F3F">
                        <tspan x="83.3214" y="70.0948205">C</tspan>
                        <tspan x="89.3544" y="70.0948205" letter-spacing="-0.361499995">L</tspan>
                        <tspan x="93.9174" y="70.0948205" letter-spacing="-0.119999997">U</tspan>
                        <tspan x="100.5699" y="70.0948205" letter-spacing="-0.225000009">S</tspan>
                        <tspan x="105.8574" y="70.0948205">TER MEDIAN: $883</tspan>
                    </text>
                    <text id="$1,000" font-family="SourceSansPro-Regular, Source Sans Pro" font-size="10.5" font-weight="normal" letter-spacing="-0.0299999993" fill="#848484">
                        <tspan x="137.2074" y="10.8433205">$1,000</tspan>
                    </text>
                    <text id="$0" font-family="SourceSansPro-Regular, Source Sans Pro" font-size="10.5" font-weight="normal" letter-spacing="-0.0299999993" fill="#848484">
                        <tspan x="0.0039" y="10.8433205">$0</tspan>
                    </text>
                    <text id="$2,000" font-family="SourceSansPro-Regular, Source Sans Pro" font-size="10.5" font-weight="normal" letter-spacing="-0.0299999993" fill="#848484">
                        <tspan x="276.7104" y="10.8433205">$2,000</tspan>
                    </text>
                    <line x1="133.008525" y1="61.03835" x2="133.008525" y2="47.9591" id="Stroke-11" stroke="#636363" stroke-width="1.5" stroke-linecap="round"></line>
                    <path d="M133.008525,48.260525 C132.224775,49.044275 130.675275,49.417775 129.599775,49.448525 C131.043525,48.373775 132.302775,46.978025 133.008525,45.288275 C133.684275,46.978025 135.020025,48.312275 136.417275,49.448525 C135.266025,49.356275 133.868025,49.075025 133.008525,48.260525" id="Fill-12" fill="#636363"></path>
                    <polygon id="Fill-13" fill="#FFFFFF" points="137.3262 30.6992 137.3262 27.3587 135.41745 27.3587 135.41745 28.7897 133.50795 26.88095 128.25795 32.1302 129.2127 32.1302 129.2127 37.38095 132.07695 37.38095 132.07695 33.0857 134.9397 33.0857 134.9397 37.38095 137.80395 37.38095 137.80395 32.1302 138.75795 32.1302"></polygon>
                </g>
            </g>
        </g>
    </g>
</svg>