<?xml version="1.0" encoding="UTF-8"?>
<svg width="305px" height="67px" viewBox="0 0 305 67" version="1.1" xmlns="http://www.w3.org/2000/svg" xmlns:xlink="http://www.w3.org/1999/xlink">
    <!-- Generator: Sketch 59.1 (86144) - https://sketch.com -->
    <title>Group 156</title>
    <desc>Created with Sketch.</desc>
    <g id="Desktop" stroke="none" stroke-width="1" fill="none" fill-rule="evenodd">
        <g id="Homelessness-Section-3-6" transform="translate(-845.000000, -1952.000000)">
            <g id="Group-15" transform="translate(845.000000, 1948.000000)">
                <polygon id="Fill-1" fill="#E0E0E0" points="2.22525 37.460375 299.22525 37.460375 299.22525 27.710375 2.22525 27.710375"></polygon>
                <line x1="2.2251" y1="45.464825" x2="2.2251" y2="19.214825" id="Stroke-2" stroke="#D1D1D1" stroke-width="0.75" stroke-linecap="round"></line>
                <line x1="76.4751" y1="45.335225" x2="76.4751" y2="19.085225" id="Stroke-3" stroke="#D1D1D1" stroke-width="0.75" stroke-linecap="round"></line>
                <line x1="150.7251" y1="45.464825" x2="150.7251" y2="19.214825" id="Stroke-4" stroke="#D1D1D1" stroke-width="0.75" stroke-linecap="round"></line>
                <line x1="224.9751" y1="45.464825" x2="224.9751" y2="19.214825" id="Stroke-5" stroke="#D1D1D1" stroke-width="0.75" stroke-linecap="round"></line>
                <line x1="299.2251" y1="45.464825" x2="299.2251" y2="19.214825" id="Stroke-6" stroke="#D1D1D1" stroke-width="0.75" stroke-linecap="round"></line>
                <g id="Group-14" transform="translate(0.000000, 0.421875)">
                    <path d="M293.9751,40.78835 L83.9751,40.78835 C81.9126,40.78835 80.2251,39.10085 80.2251,37.03835 L80.2251,27.28835 C80.2251,25.22585 81.9126,23.53835 83.9751,23.53835 L293.9751,23.53835 C296.0376,23.53835 297.7251,25.22585 297.7251,27.28835 L297.7251,37.03835 C297.7251,39.10085 296.0376,40.78835 293.9751,40.78835" id="Fill-7" fill="#D5E8AA"></path>
                    <path d="M135.8013,42.28835 L92.8383,42.28835 C91.18905,42.28835 89.8383,40.93835 89.8383,39.28835 L89.8383,25.03835 C89.8383,23.3891 91.18905,22.03835 92.8383,22.03835 L135.8013,22.03835 C137.4513,22.03835 138.8013,23.3891 138.8013,25.03835 L138.8013,39.28835 C138.8013,40.93835 137.4513,42.28835 135.8013,42.28835" id="Fill-9" fill="#26660C"></path>
                    <text id="CLUSTER-MEDIAN:-85%" font-family="SourceSansPro-Semibold, Source Sans Pro" font-size="10.5" font-weight="500" letter-spacing="-0.0149999997" fill="#3F3F3F">
                        <tspan x="74.140125" y="69.3448205">C</tspan>
                        <tspan x="80.173125" y="69.3448205" letter-spacing="-0.361499995">L</tspan>
                        <tspan x="84.736125" y="69.3448205" letter-spacing="-0.119999997">U</tspan>
                        <tspan x="91.388625" y="69.3448205" letter-spacing="-0.225000009">S</tspan>
                        <tspan x="96.676125" y="69.3448205">TER MEDIAN: 85%</tspan>
                    </text>
                    <text id="0%" font-family="SourceSansPro-Regular, Source Sans Pro" font-size="10.5" font-weight="normal" letter-spacing="-0.0299999993" fill="#848484">
                        <tspan x="-0.000375" y="10.8493205">0%</tspan>
                    </text>
                    <text id="50%" font-family="SourceSansPro-Regular, Source Sans Pro" font-size="10.5" font-weight="normal" letter-spacing="-0.0299999993" fill="#848484">
                        <tspan x="70.349625" y="10.8493205">50%</tspan>
                    </text>
                    <text id="150%" font-family="SourceSansPro-Regular, Source Sans Pro" font-size="10.5" font-weight="normal" letter-spacing="-0.0299999993" fill="#848484">
                        <tspan x="216.446625" y="10.8493205">150%</tspan>
                    </text>
                    <text id="100%" font-family="SourceSansPro-Regular, Source Sans Pro" font-size="10.5" font-weight="normal" letter-spacing="-0.0299999993" fill="#848484">
                        <tspan x="139.198125" y="10.8493205">100%</tspan>
                    </text>
                    <text id="200%" font-family="SourceSansPro-Regular, Source Sans Pro" font-size="10.5" font-weight="normal" letter-spacing="-0.0299999993" fill="#848484">
                        <tspan x="280.948125" y="10.8493205">200%</tspan>
                    </text>
                    <line x1="124.103025" y1="60.41795" x2="124.103025" y2="47.3387" id="Stroke-12" stroke="#636363" stroke-width="1.5" stroke-linecap="round"></line>
                    <path d="M124.103025,47.640125 C123.319275,48.423875 121.769775,48.797375 120.694275,48.828125 C122.138025,47.753375 123.397275,46.357625 124.103025,44.667875 C124.778775,46.357625 126.114525,47.691875 127.511775,48.828125 C126.360525,48.735875 124.962525,48.454625 124.103025,47.640125" id="Fill-13" fill="#636363"></path>
                </g>
                <text id="%" font-family="SourceSansPro-Bold, Source Sans Pro" font-size="13.5" font-weight="bold" fill="#FFFFFF">
                    <tspan x="120.097425" y="32.9949799">%</tspan>
                </text>
            </g>
        </g>
    </g>
</svg>