<?xml version="1.0" encoding="UTF-8"?>
<svg width="48px" height="50px" viewBox="0 0 48 50" version="1.1" xmlns="http://www.w3.org/2000/svg" xmlns:xlink="http://www.w3.org/1999/xlink">
    <!-- Generator: Sketch 53.2 (72643) - https://sketchapp.com -->
    <title>Group 4</title>
    <desc>Created with Sketch.</desc>
    <defs>
        <polygon id="path-1" points="0 0 27.458375 0 27.458375 28.2415227 0 28.2415227"></polygon>
    </defs>
    <g id="Page-1" stroke="none" stroke-width="1" fill="none" fill-rule="evenodd">
        <g id="Desktop_Center-" transform="translate(-1209.000000, -2209.000000)">
            <g id="Footer" transform="translate(-2.000000, 1916.000000)">
                <g id="Group-7" transform="translate(1138.000000, 250.000000)">
                    <g id="Group-6" transform="translate(7.494766, 43.469642)">
                        <g id="Group-4" transform="translate(65.525668, 0.000000)">
                            <g id="Group-3" transform="translate(10.296891, 10.590571)">
                                <mask id="mask-2" fill="white">
                                    <use xlink:href="#path-1"></use>
                                </mask>
                                <g id="Clip-2"></g>
                                <path d="M11.5775091,17.063451 C11.5775091,17.063451 12.6673692,17.5556141 13.943191,17.719556 L14.7404977,19.5239289 L17.477775,21.4919064 L17.1324176,20.0157546 L20.6673296,20.3439757 L21.7834277,21.8201275 L20.0297466,23.4602212 L18.2754096,24.1163261 L16.3616769,25.2919178 L16.3616769,21.4919064 L15.0858551,20.6718595 L13.969757,19.0317659 L12.3751437,18.5396028 L9.98322375,18.0477771 L9.18558913,16.0794623 L7.59097584,14.1111475 L5.83663885,12.3071119 L5.19905591,10.994902 L5.35845165,9.35480832 L5.0393322,8.20654034 L4.72054073,6.56678399 L5.83663885,5.09029488 L6.7936692,3.778085 L9.82350004,2.95837549 L12.21542,2.63015435 L12.3751437,1.31794447 L13.4912418,2.63015435 L15.2455788,2.63015435 L13.6506375,3.94236423 L12.5345394,4.59846917 L12.5345394,6.07462095 L13.6506375,6.73038856 L15.0858551,6.73038856 L16.2022812,7.55077273 L17.3183793,6.73038856 L16.8401921,5.41851601 L16.9995878,4.10630613 L18.2754096,5.25423678 L20.1888144,5.58245791 L20.5079338,6.73038856 L21.7834277,7.71471464 L19.232112,8.20654034 L19.0727163,9.84663403 L16.5210726,11.9792281 L15.724094,13.2911006 L15.724094,15.4236947 L14.6073399,14.1111475 L12.8536589,14.1111475 L11.4184413,14.6033105 L11.5775091,17.063451 Z M0,14.1205927 C0,21.9196396 6.146575,28.2415227 13.7293515,28.2415227 C21.3118,28.2415227 27.458375,21.9196396 27.458375,14.1205927 C27.458375,6.32222045 21.3118,0 13.7293515,0 C6.146575,0 0,6.32222045 0,14.1205927 Z" id="Fill-1" fill="#808080" mask="url(#mask-2)"></path>
                            </g>
                            <ellipse id="Oval-Copy" stroke="#808080" stroke-width="2.99790636" cx="23.8934289" cy="24.7113324" rx="22.3944758" ry="23.2123792"></ellipse>
                        </g>
                    </g>
                </g>
            </g>
        </g>
    </g>
</svg>