<?xml version="1.0" encoding="UTF-8"?>
<svg width="261px" height="36px" viewBox="0 0 261 36" version="1.1" xmlns="http://www.w3.org/2000/svg" xmlns:xlink="http://www.w3.org/1999/xlink">
    <!-- Generator: Sketch 53 (72520) - https://sketchapp.com -->
    <title>DatalabLogo/Gray</title>
    <desc>Created with Sketch.</desc>
    <defs>
        <polygon id="path-1" points="0.299807167 0.0786854118 21.0997359 0.0786854118 21.0997359 24.7665325 0.299807167 24.7665325"></polygon>
    </defs>
    <g id="Symbols" stroke="none" stroke-width="1" fill="none" fill-rule="evenodd">
        <g id="DL_Footer" transform="translate(-1230.000000, -200.000000)">
            <g id="DatalabLogo/Gray" transform="translate(1230.000000, 200.000000)">
                <path d="M100.936893,28.3715727 C107.933392,28.3715727 111.38751,24.7396335 111.38751,18.521796 C111.38751,12.3464374 107.933392,8.90034299 100.936893,8.90034299 L97.5736733,8.90034299 L97.5736733,28.3715727 L100.936893,28.3715727 Z M93.7572816,6.35294118 L101.209587,6.35294118 C110.386316,6.35294118 115.296117,10.7348971 115.296117,18.521796 C115.296117,26.3498463 110.386316,30.9176471 101.391382,30.9176471 L93.7572816,30.9176471 L93.7572816,6.35294118 Z" id="Fill-1" fill="#666666"></path>
                <path d="M134.071805,20.9191945 L132.659486,17.1757484 C131.614107,14.4425017 130.655842,11.746424 129.700217,8.90034299 L129.518068,8.90034299 C128.562443,11.746424 127.605498,14.4425017 126.560119,17.1757484 L125.102923,20.9191945 L134.071805,20.9191945 Z M135.02743,23.4280999 L124.145978,23.4280999 L121.277784,30.9176471 L117.407767,30.9176471 L127.515743,6.35294118 L131.794936,6.35294118 L141.902913,30.9176471 L137.895624,30.9176471 L135.02743,23.4280999 Z" id="Fill-3" fill="#666666"></path>
                <polygon id="Fill-5" fill="#666666" points="150.566318 8.97468093 141.480583 8.97468093 141.480583 6.35294118 163.441748 6.35294118 163.441748 8.97468093 154.356012 8.97468093 154.356012 30.9176471 150.566318 30.9176471"></polygon>
                <path d="M179.261125,20.9191945 L177.848807,17.1757484 C176.802107,14.4425017 175.845162,11.746424 174.889538,8.90034299 L174.707388,8.90034299 C173.751763,11.746424 172.796138,14.4425017 171.749439,17.1757484 L170.292243,20.9191945 L179.261125,20.9191945 Z M180.21675,23.4280999 L169.335298,23.4280999 L166.467104,30.9176471 L162.597087,30.9176471 L172.705064,6.35294118 L176.984257,6.35294118 L187.092233,30.9176471 L183.084944,30.9176471 L180.21675,23.4280999 Z" id="Fill-7" fill="#666666"></path>
                <polygon id="Fill-9" fill="#666666" points="191.315534 6.35294118 195.150025 6.35294118 195.150025 28.2587383 208.208738 28.2587383 208.208738 30.9176471 191.315534 30.9176471"></polygon>
                <path d="M228.673747,20.9191945 L227.261428,17.1757484 C226.216048,14.4425017 225.259104,11.746424 224.302159,8.90034299 L224.121329,8.90034299 C223.165705,11.746424 222.21008,14.4425017 221.16206,17.1757484 L219.704864,20.9191945 L228.673747,20.9191945 Z M229.629371,23.4280999 L218.74792,23.4280999 L215.879725,30.9176471 L212.009709,30.9176471 L222.117685,6.35294118 L226.396878,6.35294118 L236.504854,30.9176471 L232.497566,30.9176471 L229.629371,23.4280999 Z" id="Fill-11" fill="#666666"></path>
                <g id="Group-15" stroke-width="1" transform="translate(239.883495, 6.352941)">
                    <mask id="mask-2" fill="white">
                        <use xlink:href="#path-1"></use>
                    </mask>
                    <g id="Clip-14"></g>
                    <path d="M9.29138883,22.2824054 C14.3777089,22.2824054 17.3757806,20.7388313 17.3757806,17.3915301 C17.3757806,14.3430713 14.5146433,12.9502525 9.29138883,12.9502525 L4.11421808,12.9502525 L4.11421808,22.2824054 L9.29138883,22.2824054 Z M8.51981659,10.6168807 C13.5613697,10.6168807 15.6943851,9.111996 15.6943851,6.36504776 C15.6943851,3.69281012 13.2888177,2.56414659 8.7015179,2.56414659 L4.11421808,2.56414659 L4.11421808,10.6168807 L8.51981659,10.6168807 Z M0.299807167,0.0786854118 L9.15445451,0.0786854118 C15.1940482,0.0786854118 19.4192621,1.77301482 19.4192621,6.10222659 C19.4192621,8.54633012 17.7391832,10.7302807 14.1973243,11.4813889 L14.1973243,11.6334784 C18.5555225,12.1978101 21.1006575,14.1549607 21.1006575,17.5409513 C21.1006575,22.3958054 16.467274,24.7665325 9.83649278,24.7665325 L0.299807167,24.7665325 L0.299807167,0.0786854118 Z" id="Fill-13" fill="#666666" mask="url(#mask-2)"></path>
                </g>
                <polygon id="Fill-16" fill="#666666" points="78.131068 36 79.8203883 36 79.8203883 0 78.131068 0"></polygon>
                <polygon id="Fill-18" fill="#666666" points="24.4951456 3.81176471 49.4126214 3.81176471 49.4126214 1.27058824 24.4951456 1.27058824"></polygon>
                <polygon id="Fill-19" fill="#666666" points="24.4951456 8.89411765 63.3495146 8.89411765 63.3495146 6.35294118 24.4951456 6.35294118"></polygon>
                <polygon id="Fill-20" fill="#666666" points="24.4951456 13.9764706 58.7038835 13.9764706 58.7038835 11.4352941 24.4951456 11.4352941"></polygon>
                <polygon id="Fill-21" fill="#666666" points="24.4951456 19.0588235 54.0582524 19.0588235 54.0582524 16.5176471 24.4951456 16.5176471"></polygon>
                <polygon id="Fill-22" fill="#666666" points="0 23.7176471 59.1262136 23.7176471 59.1262136 21.1764706 0 21.1764706"></polygon>
                <polygon id="Fill-23" fill="#666666" points="0 28.8 63.7718447 28.8 63.7718447 26.2588235 0 26.2588235"></polygon>
                <polygon id="Fill-24" fill="#666666" points="0 33.8823529 54.4805825 33.8823529 54.4805825 31.3411765 0 31.3411765"></polygon>
                <polygon id="Fill-25" fill="#666666" points="2.53398058 1.27058824 2.51827409 18.6352941 0 18.6352941 0.0143976169 1.27058824"></polygon>
                <polygon id="Fill-26" fill="#666666" points="5.06796117 19.0588235 7.60194175 19.0588235 7.60194175 6.35294118 5.06796117 6.35294118"></polygon>
                <polygon id="Fill-27" fill="#666666" points="9.71359223 19.0588235 12.2475728 19.0588235 12.2475728 2.54117647 9.71359223 2.54117647"></polygon>
                <polygon id="Fill-28" fill="#666666" points="14.7815534 18.6352941 17.315534 18.6352941 17.315534 3.81176471 14.7815534 3.81176471"></polygon>
                <polygon id="Fill-29" fill="#666666" points="22.3834951 1.27058824 22.3690975 18.6352941 19.8495146 18.6352941 19.8652211 1.27058824"></polygon>
            </g>
        </g>
    </g>
</svg>