<svg width="30" height="30" xmlns="http://www.w3.org/2000/svg" xmlns:xlink="http://www.w3.org/1999/xlink">
   <defs>
      <path d="M6.75 0h2.5c.416 0 .75.334.75.75V6h2.74c.557 0 .835.672.441 1.066l-4.753 4.756a.605.605 0 0 1-.853 0l-4.76-4.756A.624.624 0 0 1 3.257 6H6V.75c0-.416.334-.75.75-.75zM16 11.75v3.5c0 .416-.334.75-.75.75H.75a.748.748 0 0 1-.75-.75v-3.5c0-.416.334-.75.75-.75h4.584l1.532 1.531c.628.628 1.64.628 2.268 0L10.666 11h4.584c.416 0 .75.334.75.75zm-3.875 2.75a.627.627 0 0 0-.625-.625.627.627 0 0 0-.625.625c0 .344.281.625.625.625a.627.627 0 0 0 .625-.625zm2 0a.627.627 0 0 0-.625-.625.627.627 0 0 0-.625.625c0 .344.281.625.625.625a.627.627 0 0 0 .625-.625z" id="a"/>
   </defs>
   <g fill="none" fill-rule="evenodd">
      <circle fill="#0CC" cx="15" cy="15" r="15"/>
      <g transform="translate(7 7)">
         <mask id="b" fill="#fff">
            <use xlink:href="#a"/>
         </mask>
         <g mask="url(#b)" fill="#FFF">
            <path d="M0 0h16v16H0z"/>
         </g>
      </g>
   </g>
</svg>