<svg width="18" height="18" viewBox="0 0 15 15" xmlns="http://www.w3.org/2000/svg" xmlns:xlink="http://www.w3.org/1999/xlink">
   <defs>
      <path d="M6.328 0h2.344c.39 0 .703.313.703.703v4.922h2.57c.52 0 .782.63.412.999l-4.456 4.459c-.22.22-.58.22-.8 0L2.64 6.624a.585.585 0 0 1 .413-.999h2.572V.703c0-.39.313-.703.703-.703zM15 11.016v3.28c0 .39-.313.704-.703.704H.703A.701.701 0 0 1 0 14.297v-3.281c0-.39.313-.704.703-.704h4.298l1.436 1.436a1.501 1.501 0 0 0 2.126 0L10 10.313h4.298c.39 0 .703.313.703.703zm-3.633 2.578a.588.588 0 0 0-.586-.586.588.588 0 0 0-.586.586c0 .322.264.586.586.586a.588.588 0 0 0 .586-.586zm1.875 0a.588.588 0 0 0-.586-.586.588.588 0 0 0-.586.586c0 .322.264.586.586.586a.588.588 0 0 0 .586-.586z" id="d"/>
   </defs>
   <g fill="none" fill-rule="evenodd">
      <mask id="c" fill="#fff">
         <use xlink:href="#b"/>
      </mask>
      <use fill="currentColor" xlink:href="#d"/>
   </g>
</svg>