<svg width="20px" height="20px" viewBox="0 0 20 20" version="1.1" xmlns="http://www.w3.org/2000/svg" xmlns:xlink="http://www.w3.org/1999/xlink">
  <defs>
      <path id="download-path" d="M8.60625,0 L11.79375,0 C12.3236719,0 12.75,0.426328125 12.75,0.95625 L12.75,7.65 L16.2442969,7.65 C16.9535156,7.65 17.308125,8.50664063 16.8060937,9.00867188 L10.7458594,15.0728906 C10.4470312,15.3717188 9.95695312,15.3717188 9.658125,15.0728906 L3.58992187,9.00867188 C3.08789062,8.50664063 3.4425,7.65 4.15171875,7.65 L7.65,7.65 L7.65,0.95625 C7.65,0.426328125 8.07632812,0 8.60625,0 Z M20.4,14.98125 L20.4,19.44375 C20.4,19.9736719 19.9736719,20.4 19.44375,20.4 L0.95625,20.4 C0.426328125,20.4 0,19.9736719 0,19.44375 L0,14.98125 C0,14.4513281 0.426328125,14.025 0.95625,14.025 L6.80132812,14.025 L8.75367187,15.9773437 C9.55453125,16.7782031 10.8454687,16.7782031 11.6463281,15.9773437 L13.5986719,14.025 L19.44375,14.025 C19.9736719,14.025 20.4,14.4513281 20.4,14.98125 Z M15.459375,18.4875 C15.459375,18.0492188 15.1007812,17.690625 14.6625,17.690625 C14.2242188,17.690625 13.865625,18.0492188 13.865625,18.4875 C13.865625,18.9257812 14.2242188,19.284375 14.6625,19.284375 C15.1007812,19.284375 15.459375,18.9257812 15.459375,18.4875 Z M18.009375,18.4875 C18.009375,18.0492188 17.6507812,17.690625 17.2125,17.690625 C16.7742187,17.690625 16.415625,18.0492188 16.415625,18.4875 C16.415625,18.9257812 16.7742187,19.284375 17.2125,19.284375 C17.6507812,19.284375 18.009375,18.9257812 18.009375,18.4875 Z"></path>
  </defs>
  <g stroke="none" stroke-width="1" fill="currentcolor" fill-rule="evenodd">
    <mask id="download-mask" fill="white">
        <use xlink:href="#download-path"></use>
    </mask>
    <g mask="url(#download-mask)" fill="#242A42" fill-rule="evenodd">
        <rect x="0" y="0" width="19.902439" height="19.902439"></rect>
    </g>
    <g mask="url(#download-mask)" fill-rule="evenodd" stroke-width="0.85">
        <rect x="0.425" y="0.425" width="19.1151163" height="19.0477273"></rect>
    </g>
  </g>
</svg>