<?xml version="1.0" encoding="UTF-8"?>
<svg width="42px" height="42px" viewBox="0 0 42 42" version="1.1" xmlns="http://www.w3.org/2000/svg" xmlns:xlink="http://www.w3.org/1999/xlink">
    <!-- Generator: Sketch 53 (72520) - https://sketchapp.com -->
    <title>Facebook</title>
    <desc>Created with Sketch.</desc>
    <g id="Page-1" stroke="none" stroke-width="1" fill="none" fill-rule="evenodd">
        <g id="Artboard" transform="translate(-181.000000, -46.000000)">
            <g id="Facebook" transform="translate(181.000000, 46.000000)">
                <g transform="translate(0.000000, -0.000000)" id="Group-5">
                    <g transform="translate(0.000000, -0.000000)">
                        <g id="Group" transform="translate(0.000000, -0.000000)">
                            <rect id="Rectangle" x="0" y="0" width="41.7681159" height="42"></rect>
                            <ellipse id="Oval" stroke="#808080" stroke-width="2" cx="20.884058" cy="21" rx="19.884058" ry="20"></ellipse>
                            <path d="M22.1320757,33.4090909 L17.5020193,33.4090909 L17.5020193,22.4304325 L15.1884058,22.4304325 L15.1884058,18.6475551 L17.5020193,18.6475551 L17.5020193,16.376443 C17.5020193,13.2905574 18.807715,11.4545455 22.519682,11.4545455 L25.6092155,11.4545455 L25.6092155,15.2388085 L23.678257,15.2388085 C22.2332211,15.2388085 22.1377342,15.7674414 22.1377342,16.7540379 L22.1313684,18.6475551 L25.6304348,18.6475551 L25.2209018,22.4304325 L22.1313684,22.4304325 L22.1313684,33.4090909 L22.1320757,33.4090909 Z" id="Shape" fill="#808080"></path>
                        </g>
                    </g>
                </g>
            </g>
        </g>
    </g>
</svg>