<?xml version="1.0" encoding="UTF-8"?>
<svg width="32px" height="33px" viewBox="0 0 32 33" version="1.1" xmlns="http://www.w3.org/2000/svg" xmlns:xlink="http://www.w3.org/1999/xlink">
    <!-- Generator: Sketch 53.2 (72643) - https://sketchapp.com -->
    <title id="Github-icon-title">Github</title>
    <g id="Github" stroke="none" stroke-width="1" fill="none" fill-rule="evenodd">
        <g id="Group-2">
            <rect id="Rectangle" x="0" y="-3.55271368e-15" width="31.8801538" height="32.9714533"></rect>
            <ellipse id="Oval" stroke="#808080" stroke-width="2" cx="15.9400769" cy="16.4857266" rx="14.9400769" ry="15.4857266"></ellipse>
            <path d="M6.86938776,16.3222425 C6.86938776,20.4114307 9.49352663,23.8812171 13.1331347,25.1052459 C13.5913891,25.1904847 13.7583849,24.9046507 13.7583849,24.659163 C13.7583849,24.439247 13.750513,23.8573503 13.7460148,23.0850869 C11.1983454,23.6442533 10.6608102,21.8440104 10.6608102,21.8440104 C10.2441642,20.7745479 9.64365414,20.4898504 9.64365414,20.4898504 C8.81204895,19.915341 9.70662897,19.9272744 9.70662897,19.9272744 C10.6259491,19.9926242 11.1095059,20.8813805 11.1095059,20.8813805 C11.9270542,22.2957759 13.2534616,21.887198 13.7752531,21.6502342 C13.8584699,21.051858 14.0951878,20.6444167 14.3566458,20.4125672 C12.322896,20.179013 10.184563,19.3851558 10.184563,15.8380862 C10.184563,14.8271543 10.5416078,14.0009065 11.1274987,13.35366 C11.0335987,13.1195375 10.7192868,12.1785015 11.2174627,10.9044659 C11.2174627,10.9044659 11.9866554,10.6550004 13.7358938,11.8528893 C14.4668518,11.647748 15.2501013,11.5448932 16.0288526,11.5414837 C16.8070416,11.5448932 17.5902911,11.647748 18.3223736,11.8528893 C20.0704875,10.6550004 20.8385556,10.9044659 20.8385556,10.9044659 C21.337856,12.1785015 21.0235442,13.1195375 20.9296442,13.35366 C21.5166596,14.0009065 21.870893,14.8271543 21.870893,15.8380862 C21.870893,19.3936797 19.7297487,20.1761717 17.6892516,20.4057481 C18.0181826,20.6915821 18.3105658,21.2564311 18.3105658,22.1196157 C18.3105658,23.3572828 18.2998825,24.355713 18.2998825,24.659163 C18.2998825,24.9069237 18.4646292,25.1944625 18.9296309,25.1041094 C22.5658653,23.8778076 25.1877551,20.4108624 25.1877551,16.3222425 C25.1877551,11.2096207 21.086519,7.06531142 16.027728,7.06531142 C10.9706239,7.06531142 6.86938776,11.2096207 6.86938776,16.3222425 Z" id="Shape" fill="#808080"></path>
        </g>
    </g>
</svg>