<svg xmlns="http://www.w3.org/2000/svg" xmlns:xlink="http://www.w3.org/1999/xlink" viewBox="0 0 50 20.9"><defs><path id="a" d="M590-2229.6h38.1v2.3H590z"/></defs><clipPath id="b"><use xlink:href="#a" overflow="visible"/></clipPath><g clip-path="url(#b)"><defs><path id="c" d="M-695-2295H745v4615H-695z"/></defs><clipPath id="d"><use xlink:href="#c" overflow="visible"/></clipPath><g clip-path="url(#d)"><defs><path id="e" d="M590-2230h39v3h-39z"/></defs><clipPath id="f"><use xlink:href="#e" overflow="visible"/></clipPath><g clip-path="url(#f)"><defs><path id="g" d="M627.2-2227.3H591c-.5 0-1-.5-1-1.2s.4-1.2 1-1.2h36.2c.5 0 1 .5 1 1.2s-.5 1.2-1 1.2"/></defs><clipPath id="h"><use xlink:href="#g" overflow="visible"/></clipPath><g clip-path="url(#h)"><defs><path id="i" d="M590-2230h39v3h-39z"/></defs><clipPath id="j"><use xlink:href="#i" overflow="visible"/></clipPath><path clip-path="url(#j)" fill="#fff" d="M585-2234.6h48.1v12.3H585z"/></g></g></g></g><defs><path id="k" d="M590-2238.9h50.9v2.3H590z"/></defs><clipPath id="l"><use xlink:href="#k" overflow="visible"/></clipPath><g clip-path="url(#l)"><defs><path id="m" d="M-695-2295H745v4615H-695z"/></defs><clipPath id="n"><use xlink:href="#m" overflow="visible"/></clipPath><g clip-path="url(#n)"><defs><path id="o" d="M590-2239h51v3h-51z"/></defs><clipPath id="p"><use xlink:href="#o" overflow="visible"/></clipPath><g clip-path="url(#p)"><defs><path id="q" d="M640.9-2236.6h-49.6c-.7 0-1.3-.5-1.3-1.2s.6-1.2 1.3-1.2h49.6"/></defs><clipPath id="r"><use xlink:href="#q" overflow="visible"/></clipPath><g clip-path="url(#r)"><defs><path id="s" d="M590-2239h51v3h-51z"/></defs><clipPath id="t"><use xlink:href="#s" overflow="visible"/></clipPath><path clip-path="url(#t)" fill="#fff" d="M585-2243.9h60.9v12.3H585z"/></g></g></g></g><defs><path id="u" d="M590-2219.4v2.4h27.2v-2.4z"/></defs><clipPath id="v"><use xlink:href="#u" overflow="visible"/></clipPath><g clip-path="url(#v)"><defs><path id="w" d="M-695-2295H745v4615H-695z"/></defs><clipPath id="x"><use xlink:href="#w" overflow="visible"/></clipPath><g clip-path="url(#x)"><defs><path id="y" d="M590-2220h28v3h-28z"/></defs><clipPath id="z"><use xlink:href="#y" overflow="visible"/></clipPath><g clip-path="url(#z)"><defs><path id="A" d="M615.9-2217h-24.5c-.7 0-1.3-.5-1.3-1.2s.6-1.2 1.3-1.2h24.5c.7 0 1.3.5 1.3 1.2s-.6 1.2-1.3 1.2"/></defs><clipPath id="B"><use xlink:href="#A" overflow="visible"/></clipPath><g clip-path="url(#B)"><defs><path id="C" d="M590-2220h28v3h-28z"/></defs><clipPath id="D"><use xlink:href="#C" overflow="visible"/></clipPath><path clip-path="url(#D)" fill="#fff" d="M585-2224.4h37.2v12.4H585z"/></g></g></g></g><defs><path id="E" d="M590-2229.6h38.1v2.3H590z"/></defs><clipPath id="F"><use xlink:href="#E" overflow="visible"/></clipPath><g clip-path="url(#F)"><defs><path id="G" d="M-695-2295H745v4615H-695z"/></defs><clipPath id="H"><use xlink:href="#G" overflow="visible"/></clipPath><g clip-path="url(#H)"><defs><path id="I" d="M590-2230h39v3h-39z"/></defs><clipPath id="J"><use xlink:href="#I" overflow="visible"/></clipPath><g clip-path="url(#J)"><defs><path id="K" d="M627.2-2227.3H591c-.5 0-1-.5-1-1.2s.4-1.2 1-1.2h36.2c.5 0 1 .5 1 1.2s-.5 1.2-1 1.2"/></defs><clipPath id="L"><use xlink:href="#K" overflow="visible"/></clipPath><g clip-path="url(#L)"><defs><path id="M" d="M590-2230h39v3h-39z"/></defs><clipPath id="N"><use xlink:href="#M" overflow="visible"/></clipPath><path clip-path="url(#N)" fill="#fff" d="M585-2234.6h48.1v12.3H585z"/></g></g></g></g><g><defs><path id="O" d="M590-2238.9h50.9v2.3H590z"/></defs><clipPath id="P"><use xlink:href="#O" overflow="visible"/></clipPath><g clip-path="url(#P)"><defs><path id="Q" d="M-695-2295H745v4615H-695z"/></defs><clipPath id="R"><use xlink:href="#Q" overflow="visible"/></clipPath><g clip-path="url(#R)"><defs><path id="S" d="M590-2239h51v3h-51z"/></defs><clipPath id="T"><use xlink:href="#S" overflow="visible"/></clipPath><g clip-path="url(#T)"><defs><path id="U" d="M640.9-2236.6h-49.6c-.7 0-1.3-.5-1.3-1.2s.6-1.2 1.3-1.2h49.6"/></defs><clipPath id="V"><use xlink:href="#U" overflow="visible"/></clipPath><g clip-path="url(#V)"><defs><path id="W" d="M590-2239h51v3h-51z"/></defs><clipPath id="X"><use xlink:href="#W" overflow="visible"/></clipPath><path clip-path="url(#X)" fill="#fff" d="M585-2243.9h60.9v12.3H585z"/></g></g></g></g></g><g><defs><path id="Y" d="M590-2219.4v2.4h27.2v-2.4z"/></defs><clipPath id="Z"><use xlink:href="#Y" overflow="visible"/></clipPath><g clip-path="url(#Z)"><defs><path id="aa" d="M-695-2295H745v4615H-695z"/></defs><clipPath id="ab"><use xlink:href="#aa" overflow="visible"/></clipPath><g clip-path="url(#ab)"><defs><path id="ac" d="M590-2220h28v3h-28z"/></defs><clipPath id="ad"><use xlink:href="#ac" overflow="visible"/></clipPath><g clip-path="url(#ad)"><defs><path id="ae" d="M615.9-2217h-24.5c-.7 0-1.3-.5-1.3-1.2s.6-1.2 1.3-1.2h24.5c.7 0 1.3.5 1.3 1.2s-.6 1.2-1.3 1.2"/></defs><clipPath id="af"><use xlink:href="#ae" overflow="visible"/></clipPath><g clip-path="url(#af)"><defs><path id="ag" d="M590-2220h28v3h-28z"/></defs><clipPath id="ah"><use xlink:href="#ag" overflow="visible"/></clipPath><path clip-path="url(#ah)" fill="#fff" d="M585-2224.4h37.2v12.4H585z"/></g></g></g></g></g><g><defs><path id="ai" d="M603-2218.6h38.1v2.3H603z"/></defs><clipPath id="aj"><use xlink:href="#ai" overflow="visible"/></clipPath><g clip-path="url(#aj)"><defs><path id="ak" d="M-682-2284H758v4615H-682z"/></defs><clipPath id="al"><use xlink:href="#ak" overflow="visible"/></clipPath><g clip-path="url(#al)"><defs><path id="am" d="M603-2219h39v3h-39z"/></defs><clipPath id="an"><use xlink:href="#am" overflow="visible"/></clipPath><g clip-path="url(#an)"><defs><path id="ao" d="M640.2-2216.3H604c-.5 0-1-.5-1-1.2s.4-1.2 1-1.2h36.2c.5 0 1 .5 1 1.2s-.5 1.2-1 1.2"/></defs><clipPath id="ap"><use xlink:href="#ao" overflow="visible"/></clipPath><g clip-path="url(#ap)"><defs><path id="aq" d="M603-2219h39v3h-39z"/></defs><clipPath id="ar"><use xlink:href="#aq" overflow="visible"/></clipPath><path clip-path="url(#ar)" fill="#fff" d="M598-2223.6h48.1v12.3H598z"/></g></g></g></g></g><g><defs><path id="as" d="M603-2227.9h50.9v2.3H603z"/></defs><clipPath id="at"><use xlink:href="#as" overflow="visible"/></clipPath><g clip-path="url(#at)"><defs><path id="au" d="M-682-2284H758v4615H-682z"/></defs><clipPath id="av"><use xlink:href="#au" overflow="visible"/></clipPath><g clip-path="url(#av)"><defs><path id="aw" d="M603-2228h51v3h-51z"/></defs><clipPath id="ax"><use xlink:href="#aw" overflow="visible"/></clipPath><g clip-path="url(#ax)"><defs><path id="ay" d="M653.9-2225.6h-49.6c-.7 0-1.3-.5-1.3-1.2s.6-1.2 1.3-1.2h49.6"/></defs><clipPath id="az"><use xlink:href="#ay" overflow="visible"/></clipPath><g clip-path="url(#az)"><defs><path id="aA" d="M603-2228h51v3h-51z"/></defs><clipPath id="aB"><use xlink:href="#aA" overflow="visible"/></clipPath><path clip-path="url(#aB)" fill="#fff" d="M598-2232.9h60.9v12.3H598z"/></g></g></g></g></g><g><defs><path id="aC" d="M603-2208.4v2.4h27.2v-2.4z"/></defs><clipPath id="aD"><use xlink:href="#aC" overflow="visible"/></clipPath><g clip-path="url(#aD)"><defs><path id="aE" d="M-682-2284H758v4615H-682z"/></defs><clipPath id="aF"><use xlink:href="#aE" overflow="visible"/></clipPath><g clip-path="url(#aF)"><defs><path id="aG" d="M603-2209h28v3h-28z"/></defs><clipPath id="aH"><use xlink:href="#aG" overflow="visible"/></clipPath><g clip-path="url(#aH)"><defs><path id="aI" d="M628.9-2206h-24.5c-.7 0-1.3-.5-1.3-1.2s.6-1.2 1.3-1.2h24.5c.7 0 1.3.5 1.3 1.2s-.6 1.2-1.3 1.2"/></defs><clipPath id="aJ"><use xlink:href="#aI" overflow="visible"/></clipPath><g clip-path="url(#aJ)"><defs><path id="aK" d="M603-2209h28v3h-28z"/></defs><clipPath id="aL"><use xlink:href="#aK" overflow="visible"/></clipPath><path clip-path="url(#aL)" fill="#fff" d="M598-2213.4h37.2v12.4H598z"/></g></g></g></g></g><g><path d="M35.3 11.8H1.2c-.5 0-.9-.5-.9-1.2s.4-1.2.9-1.2h34.1c.5 0 .9.5.9 1.2 0 .6-.4 1.2-.9 1.2zM47.8 2.9H1.5C.8 2.9.3 2.4.3 1.7S.8.5 1.5.5h46.3C48.5.4 49 1 49 1.6c0 .7-.5 1.3-1.2 1.3zM24.2 20.7H1.5c-.7 0-1.2-.5-1.2-1.2s.5-1.2 1.2-1.2h22.7c.7 0 1.2.5 1.2 1.2.1.6-.5 1.2-1.2 1.2z"/></g></svg>