<?xml version="1.0" encoding="UTF-8"?>
<svg width="42px" height="42px" viewBox="0 0 42 42" version="1.1" xmlns="http://www.w3.org/2000/svg" xmlns:xlink="http://www.w3.org/1999/xlink">
    <!-- Generator: Sketch 53 (72520) - https://sketchapp.com -->
    <title>Linkedin</title>
    <desc>Created with Sketch.</desc>
    <g id="Page-1" stroke="none" stroke-width="1" fill="none" fill-rule="evenodd">
        <g id="Artboard" transform="translate(-237.000000, -46.000000)">
            <g id="Linkedin" transform="translate(237.000000, 46.000000)">
                <g transform="translate(0.000000, -0.000000)" id="Group-14">
                    <g transform="translate(0.000000, -0.000000)">
                        <g id="Group-11" transform="translate(0.000000, -0.000000)">
                            <rect id="Rectangle" x="0" y="0" width="41.7681159" height="42"></rect>
                            <ellipse id="Oval" stroke="#808080" stroke-width="2" cx="20.884058" cy="21" rx="19.884058" ry="20"></ellipse>
                            <path d="M11.8701839,17.5761534 L15.5706164,17.5761534 L15.5706164,30.5442322 L11.8701839,30.5442322 L11.8701839,17.5761534 Z M13.6260754,15.954074 L13.5992849,15.954074 C12.2597618,15.954074 11.3913043,14.9627353 11.3913043,13.7073656 C11.3913043,12.4263263 12.285436,11.4545455 13.6517496,11.4545455 C15.0169468,11.4545455 15.8563813,12.4238815 15.8831718,13.7036985 C15.8831718,14.9590682 15.0169468,15.954074 13.6260754,15.954074 L13.6260754,15.954074 Z M26.1807555,30.5454545 L26.1807555,23.8334439 C26.1807555,22.0769043 25.5243892,20.8789858 24.0810531,20.8789858 C22.9770628,20.8789858 22.3631147,21.6869696 22.0773498,22.4680613 C21.9701879,22.7467607 21.986932,23.1366954 21.986932,23.5278525 L21.986932,30.5454545 L17.8299453,30.5454545 C17.8299453,30.5454545 17.8835263,18.6567248 17.8299453,17.5761534 L21.986932,17.5761534 L21.986932,19.6113924 C22.2325112,18.7215101 23.5608716,17.4514721 25.6806669,17.4514721 C28.3105972,17.4514721 30.3768116,19.3180247 30.3768116,23.3334963 L30.3768116,30.5454545 L26.1807555,30.5454545 Z" id="Shape" fill="#808080"></path>
                        </g>
                    </g>
                </g>
            </g>
        </g>
    </g>
</svg>