<?xml version="1.0" encoding="UTF-8"?>
<svg width="32px" height="33px" viewBox="0 0 32 33" version="1.1" xmlns="http://www.w3.org/2000/svg" xmlns:xlink="http://www.w3.org/1999/xlink">
    <!-- Generator: Sketch 53.2 (72643) - https://sketchapp.com -->
    <title id="LinkediIn-icon-title">LinkediIn</title>
    <g id="Linkedin" stroke="none" stroke-width="1" fill="none" fill-rule="evenodd">
        <g id="LinkedIn">
            <g id="LinkedIn" transform="translate(0.000000, -0.000000)">
                <rect id="Rectangle" x="0" y="0" width="31.8801538" height="32.9714533"></rect>
                <ellipse id="Oval" stroke="#808080" stroke-width="2" cx="15.9400769" cy="16.4857266" rx="14.9400769" ry="15.4857266"></ellipse>
                <path d="M9.06009951,13.7978886 L11.8845113,13.7978886 L11.8845113,23.9782792 L9.06009951,23.9782792 L9.06009951,13.7978886 Z M10.4003106,12.5245001 L10.3798624,12.5245001 C9.35745086,12.5245001 8.6945874,11.746265 8.6945874,10.7607563 C8.6945874,9.7550961 9.37704708,8.99221453 10.4199068,8.99221453 C11.4619145,8.99221453 12.1026257,9.7531769 12.123074,10.7578775 C12.123074,11.7433862 11.4619145,12.5245001 10.4003106,12.5245001 L10.4003106,12.5245001 Z M19.9828624,23.9792388 L19.9828624,18.7100782 C19.9828624,17.3311338 19.4818807,16.3907263 18.3802323,16.3907263 C17.5375949,16.3907263 17.0689896,17.0250215 16.8508751,17.6382056 C16.7690822,17.8569943 16.7818624,18.1631065 16.7818624,18.4701783 L16.7818624,23.9792388 L13.6089787,23.9792388 C13.6089787,23.9792388 13.6498751,14.6461745 13.6089787,13.7978886 L16.7818624,13.7978886 L16.7818624,15.3956217 C16.9693045,14.6970333 17.9831959,13.7000094 19.6011621,13.7000094 C21.6084967,13.7000094 23.1855664,15.1653178 23.1855664,18.317602 L23.1855664,23.9792388 L19.9828624,23.9792388 Z" id="Shape" fill="#808080"></path>
            </g>
        </g>
    </g>
</svg>