<?xml version="1.0" encoding="UTF-8"?>
<svg width="425px" height="57px" viewBox="0 0 425 57" version="1.1" xmlns="http://www.w3.org/2000/svg" xmlns:xlink="http://www.w3.org/1999/xlink">
    <!-- Generator: Sketch 53.1 (72631) - https://sketchapp.com -->
    <title>xhdpi/Data Lab/Logo</title>
    <desc>Created with Sketch.</desc>
    <defs>
        <polygon id="path-1" points="0.286003806 0.841863971 20.1282872 0.841863971 20.1282872 23.2927831 0.286003806 23.2927831"></polygon>
        <polygon id="path-3" points="0 33 242.647059 33 242.647059 0 0 0"></polygon>
    </defs>
    <g id="Data-Lab/Logo" stroke="none" stroke-width="1" fill="none" fill-rule="evenodd">
        <text id="Visualizations-to-he" font-family="SourceSansPro-Regular, Source Sans Pro" font-size="11" font-weight="normal" line-spacing="14" letter-spacing="0.275" fill="#4F4F4F">
            <tspan x="262" y="29">Visualizations to help you </tspan>
            <tspan x="262" y="43">understand government finance.</tspan>
        </text>
        <g id="Group-7" transform="translate(7.000000, 16.000000)">
            <g id="Page-1">
                <path d="M94.1470588,25.8332772 C100.767895,25.8332772 104.036552,22.5327002 104.036552,16.8821511 C104.036552,11.2702052 100.767895,8.13851741 94.1470588,8.13851741 L90.9644199,8.13851741 L90.9644199,25.8332772 L94.1470588,25.8332772 Z M87.3529412,5.82352941 L94.4051106,5.82352941 C103.089115,5.82352941 107.735294,9.8056948 107.735294,16.8821511 C107.735294,23.9960043 103.089115,28.1470588 94.5771452,28.1470588 L87.3529412,28.1470588 L87.3529412,5.82352941 Z" id="Fill-1" fill="#212F64"></path>
                <path d="M124.552861,19.0608214 L123.209791,15.6589109 C122.215667,13.1750338 121.304388,10.7249344 120.395618,8.13851741 L120.2224,8.13851741 C119.31363,10.7249344 118.403606,13.1750338 117.409483,15.6589109 L116.023735,19.0608214 L124.552861,19.0608214 Z M125.461631,21.3408252 L115.11371,21.3408252 L112.386147,28.1470588 L108.705882,28.1470588 L118.318252,5.82352941 L122.387631,5.82352941 L132,28.1470588 L128.189194,28.1470588 L125.461631,21.3408252 Z" id="Fill-3" fill="#212F64"></path>
                <polygon id="Fill-5" fill="#212F64" points="139.461964 8.20607308 131.029412 8.20607308 131.029412 5.82352941 151.411765 5.82352941 151.411765 8.20607308 142.979213 8.20607308 142.979213 28.1470588 139.461964 28.1470588"></polygon>
                <path d="M166.288155,19.0608214 L164.945085,15.6589109 C163.949706,13.1750338 163.039682,10.7249344 162.130912,8.13851741 L161.957694,8.13851741 C161.048925,10.7249344 160.140155,13.1750338 159.144777,15.6589109 L157.759029,19.0608214 L166.288155,19.0608214 Z M167.196925,21.3408252 L156.849004,21.3408252 L154.121441,28.1470588 L150.441176,28.1470588 L160.053546,5.82352941 L164.122925,5.82352941 L173.735294,28.1470588 L169.924488,28.1470588 L167.196925,21.3408252 Z" id="Fill-7" fill="#212F64"></path>
                <polygon id="Fill-9" fill="#ACACAC" points="177.617647 5.82352941 181.142579 5.82352941 181.142579 25.7307373 193.147059 25.7307373 193.147059 28.1470588 177.617647 28.1470588"></polygon>
                <path d="M212.876391,19.0608214 L211.53332,15.6589109 C210.539197,13.1750338 209.629172,10.7249344 208.719148,8.13851741 L208.547184,8.13851741 C207.638415,10.7249344 206.729646,13.1750338 205.733012,15.6589109 L204.347264,19.0608214 L212.876391,19.0608214 Z M213.78516,21.3408252 L203.43724,21.3408252 L200.709676,28.1470588 L197.029412,28.1470588 L206.641781,5.82352941 L210.71116,5.82352941 L220.323529,28.1470588 L216.512723,28.1470588 L213.78516,21.3408252 Z" id="Fill-11" fill="#ACACAC"></path>
                <g id="Group-15" transform="translate(222.264706, 4.852941)">
                    <mask id="mask-2" fill="white">
                        <use xlink:href="#path-1"></use>
                    </mask>
                    <g id="Clip-14"></g>
                    <path d="M8.86360588,21.033739 C13.7157478,21.033739 16.5757858,19.6300257 16.5757858,16.5860184 C16.5757858,13.8137757 13.8463775,12.5471581 8.86360588,12.5471581 L3.92479619,12.5471581 L3.92479619,21.033739 L8.86360588,21.033739 Z M8.12755744,10.4252096 C12.9369934,10.4252096 14.9718031,9.05668015 14.9718031,6.55862868 C14.9718031,4.12851838 12.67699,3.10212132 8.30089308,3.10212132 L3.92479619,3.10212132 L3.92479619,10.4252096 L8.12755744,10.4252096 Z M0.286003806,0.841863971 L8.73297612,0.841863971 C14.4945021,0.841863971 18.5251837,2.38267279 18.5251837,6.31962132 C18.5251837,8.54226838 16.9224571,10.5283346 13.5436682,11.211386 L13.5436682,11.3496949 C17.7012114,11.8628934 20.1291664,13.6427096 20.1291664,16.7219007 C20.1291664,21.136864 15.7091076,23.2927831 9.3836128,23.2927831 L0.286003806,23.2927831 L0.286003806,0.841863971 Z" id="Fill-13" fill="#ACACAC" mask="url(#mask-2)"></path>
                </g>
                <mask id="mask-4" fill="white">
                    <use xlink:href="#path-3"></use>
                </mask>
                <g id="Clip-17"></g>
                <polygon id="Fill-16" fill="#212F64" mask="url(#mask-4)" points="72.7941176 33 73.7647059 33 73.7647059 0 72.7941176 0"></polygon>
                <polygon id="Fill-18" fill="#CC2128" mask="url(#mask-4)" points="23.2941176 2.91176471 46.5882353 2.91176471 46.5882353 0.970588235 23.2941176 0.970588235"></polygon>
                <polygon id="Fill-19" fill="#CC2128" mask="url(#mask-4)" points="23.2941176 7.76470588 59.2058824 7.76470588 59.2058824 5.82352941 23.2941176 5.82352941"></polygon>
                <polygon id="Fill-20" fill="#CC2128" mask="url(#mask-4)" points="23.2941176 12.6176471 55.3235294 12.6176471 55.3235294 10.6764706 23.2941176 10.6764706"></polygon>
                <polygon id="Fill-21" fill="#CC2128" mask="url(#mask-4)" points="23.2941176 17.4705882 50.4705882 17.4705882 50.4705882 15.5294118 23.2941176 15.5294118"></polygon>
                <polygon id="Fill-22" fill="#CC2128" mask="url(#mask-4)" points="0 21.3529412 54.3529412 21.3529412 54.3529412 19.4117647 0 19.4117647"></polygon>
                <polygon id="Fill-23" fill="#CC2128" mask="url(#mask-4)" points="0 26.2058824 59.2058824 26.2058824 59.2058824 24.2647059 0 24.2647059"></polygon>
                <polygon id="Fill-24" fill="#CC2128" mask="url(#mask-4)" points="0 31.0588235 50.4705882 31.0588235 50.4705882 29.1176471 0 29.1176471"></polygon>
                <polygon id="Fill-25" fill="#212F64" mask="url(#mask-4)" points="1.94117647 1.94117647 1.92914439 17.4705882 0 17.4705882 0.0110294118 1.94117647"></polygon>
                <polygon id="Fill-26" fill="#212F64" mask="url(#mask-4)" points="4.85294118 17.4705882 6.79411765 17.4705882 6.79411765 5.82352941 4.85294118 5.82352941"></polygon>
                <polygon id="Fill-27" fill="#212F64" mask="url(#mask-4)" points="9.70588235 17.4705882 11.6470588 17.4705882 11.6470588 1.94117647 9.70588235 1.94117647"></polygon>
                <polygon id="Fill-28" fill="#212F64" mask="url(#mask-4)" points="13.5882353 17.4705882 15.5294118 17.4705882 15.5294118 3.88235294 13.5882353 3.88235294"></polygon>
                <polygon id="Fill-29" fill="#212F64" mask="url(#mask-4)" points="20.3823529 1.94117647 20.3713235 17.4705882 18.4411765 17.4705882 18.4532086 1.94117647"></polygon>
            </g>
        </g>
        <text id="BETA" font-family="SourceSansPro-Regular, Source Sans Pro" font-size="12" font-weight="normal" letter-spacing="0.899999976" fill="#A9A9A9">
            <tspan x="93" y="17">BETA</tspan>
        </text>
    </g>
</svg>