<svg id="Layer_1" xmlns="http://www.w3.org/2000/svg" viewBox="0 0 364 77.5">
   <style>.st0{fill:#212f64}.st1{fill:#acacac}.st5{fill:#fff}.st6{fill:#cc2128}</style>
   <path class="st0" d="M132.2 34.6h10.3c12.7 0 19.5 6 19.5 16.7 0 10.8-6.8 17.1-19.3 17.1h-10.6V34.6h.1zm10 30.3c9.7 0 14.5-5 14.5-13.6 0-8.5-4.8-13.2-14.5-13.2h-4.7v26.8h4.7zM189.1 58.1H174l-4 10.3h-5.4l14-33.8h5.9l14 33.8H193l-3.9-10.3zm-1.3-3.5l-2-5.2c-1.4-3.8-2.8-7.5-4.1-11.4h-.3c-1.3 3.9-2.6 7.6-4.1 11.4l-2 5.2h12.5zM210.3 38.2h-12.5v-3.6h30.3v3.6h-12.5v30.2h-5.2V38.2h-.1zM251.6 58.1h-15.1l-4 10.3h-5.4l14-33.8h5.9l14 33.8h-5.5l-3.9-10.3zm-1.4-3.5l-2-5.2c-1.4-3.8-2.8-7.5-4.1-11.4h-.3c-1.3 3.9-2.6 7.6-4.1 11.4l-2 5.2h12.5z"/>
   <path class="st1" d="M266.6 34.6h5.3v30.1h18v3.7h-23.3V34.6zM319.5 58.1h-15.1l-4 10.3H295l14-33.8h5.9l14 33.8h-5.5l-3.9-10.3zm-1.3-3.5l-2-5.2c-1.4-3.8-2.8-7.5-4.1-11.4h-.3c-1.3 3.9-2.6 7.6-4.1 11.4l-2 5.2h12.5zM333.8 34.6h12.3c8.4 0 14.2 2.3 14.2 8.2 0 3.3-2.3 6.3-7.2 7.4v.2c6 .8 9.6 3.5 9.6 8.1 0 6.6-6.4 9.9-15.6 9.9h-13.2l-.1-33.8zM345.2 49c7 0 10-2.1 10-5.8s-3.3-5.2-9.7-5.2h-6.4v11h6.1zm1.1 16c7.1 0 11.2-2.1 11.2-6.7 0-4.2-4-6.1-11.2-6.1h-7.2V65h7.2z"/>
   <g>
      <path class="st0" d="M110.3 25.8h2.1v49.5h-2.1z"/>
   </g>
   <g>
      <path d="M362.4 25.5c0 2.2-1.8 4-4 4H301c-2.2 0-4-1.8-4-4V5c0-2.2 1.8-4 4-4h57.4c2.2 0 4 1.8 4 4v20.5z" fill="#46a762"/>
   </g>
   <g>
      <path fill="none" d="M305.8 8.2h47.6V25h-47.6z"/>
   </g>
   <g>
      <path class="st5" d="M307.5 9.3h3.8c2.6 0 4.5.9 4.5 3.2 0 1.3-.7 2.4-2.3 2.8v.1c1.9.3 3 1.3 3 3.1 0 2.5-2 3.8-4.9 3.8h-4.1v-13zm3.6 5.5c2.2 0 3.1-.8 3.1-2.2 0-1.4-1-2-3-2h-2v4.2h1.9zm.3 6.1c2.2 0 3.5-.8 3.5-2.6 0-1.6-1.2-2.3-3.5-2.3h-2.2v4.9h2.2zM321 9.3h7.4v1.4h-5.8v4.1h4.9v1.4h-4.9v4.7h6v1.4H321v-13zM335.9 10.7H332V9.3h9.5v1.4h-3.9v11.5H336V10.7zM350.7 18.3H346l-1.2 3.9h-1.7l4.4-12.9h1.9l4.4 12.9H352l-1.3-3.9zm-.4-1.3l-.6-2c-.5-1.4-.9-2.9-1.3-4.4h-.1c-.4 1.5-.8 2.9-1.3 4.4l-.6 2h3.9z"/>
   </g>
   <g>
      <path class="st6" d="M36.8 27.7h34.3v3.6H36.8zM36.8 34.5h53.9v3.6H36.8zM36.8 41.4h47.4V45H36.8zM36.8 48.2h40.9v3.6H36.8zM2.7 55.1h81.4v3.6H2.7zM2.7 61.9h87.9v3.6H2.7zM2.7 68.8h74.9v3.6H2.7z"/>
      <g>
         <path class="st0" d="M2.7 27.7h3.5v24.1H2.7zM9.5 34.5H13v17.2H9.5zM16.4 29.1h3.5v22.7h-3.5zM23.2 31.3h3.5v20.5h-3.5zM30 27.7h3.5v24.1H30z"/>
      </g>
   </g>
</svg>