<svg class="{{include.class}}" xmlns="http://www.w3.org/2000/svg" viewBox="0 0 49.3 49.2">
  <path d="M21.4 19.7H5.1V9.9h16.3v9.8zm0 9.7h-3.3v-3.3h3.3v3.3zm0 6.5h-3.3v-3.3h3.3v3.3zm0 6.5h-3.3v-3.3h3.3v3.3zm-6.5-13h-3.3v-3.3h3.3v3.3zm-3.3 6.5v-3.3h3.2v3.3h-3.2zm3.3 6.5h-3.3v-3.3h3.3v3.3zm-6.5-13H5.1v-3.3h3.3v3.3zm0 6.5H5.1v-3.3h3.3v3.3zm0 6.5H5.1v-3.3h3.3v3.3zM.2 3.4v45.5h26V3.4H.2zM31.8 10l-2.3 2.4c1.8 1.9 2.9 4.4 2.9 7.3s-1.1 5.4-2.9 7.3l2.3 2.4c2.4-2.5 3.8-5.9 3.8-9.7s-1.4-7.2-3.8-9.7zm4.8-4.9l-2.3 2.4c3 3.1 4.8 7.4 4.8 12.1s-1.8 9-4.8 12.1l2.3 2.4c3.6-3.7 5.8-8.9 5.8-14.6S40.1 8.8 36.6 5.1zM41.2.2l-2.4 2.5C43 7 45.6 13 45.6 19.7c0 6.6-2.6 12.6-6.8 17l2.4 2.5c4.8-5 7.8-11.9 7.8-19.5S46 5.2 41.2.2z"/>
</svg>