<svg viewBox="0 0 57 75" xmlns="http://www.w3.org/2000/svg">
<g fill="none" fill-rule="evenodd">
<g transform="translate(1)">
<path d="M52.4156 16.0068H12.091v-.0085h-3.304c-2.9799 0-5.4036-2.3687-5.4036-5.281V9.1419c0-2.9115 2.4237-5.2802 5.4036-5.2802h43.4339c.623 0 1.1287-.4934 1.1287-1.1023V1.657c0-.609-.5056-1.1023-1.1287-1.1023H8.7868c-4.8451 0-8.7872 3.8526-8.7872 8.587v56.2709c0 4.7352 3.942 8.587 8.7873 8.587h3.304v-.05h40.3247c1.5546 0 2.819-1.2017 2.819-2.721v-52.466c0-1.5194-1.2644-2.7558-2.819-2.7558zM8.7072 70.6928c-2.9427-.0416-5.324-2.3942-5.324-5.2802V17.4845c1.4718 1.1254 3.319 1.8022 5.324 1.82v51.3883zm3.4633.2359h39.6812V19.3129H12.1705v51.6158z" fill="#4a90e2"/>
</g>
<path d="M10 10c0-.5503.511-1 1.1346-1h42.7308C54.4891 9 55 9.4497 55 10v1c0 .5497-.511 1-1.1346 1H11.1346C10.5109 12 10 11.5497 10 11v-1zM46 35c0 .5497-.5312 1-1.1813 1H25.1813C24.532 36 24 35.5503 24 35v-1c0-.5497.532-1 1.1813-1h19.6374C45.468 33 46 33.4497 46 34v1zM44 43c0 .5497-.492 1-1.0942 1H29.0942C28.4928 44 28 43.5497 28 43v-1c0-.5497.4928-1 1.0942-1h13.8116C43.5072 41 44 41.4497 44 42v1zM46 52c0 .5497-.514 1-1.143 1H28.143C27.5147 53 27 52.5503 27 52v-1c0-.5497.5147-1 1.143-1h16.714c.6283 0 1.143.4503 1.143 1v1z" fill="#4a90e2"/>
</g>
</svg>
