<svg width="19px" height="19px" viewBox="0 0 19 19" version="1.1" xmlns="http://www.w3.org/2000/svg" xmlns:xlink="http://www.w3.org/1999/xlink">
    <defs>
        <path id="sunburst-path" d="M9.5,2.4516129 C13.3953448,2.4516129 16.5483871,5.60404234 16.5483871,9.5 C16.5483871,13.3953448 13.3959577,16.5483871 9.5,16.5483871 C5.60465524,16.5483871 2.4516129,13.3959577 2.4516129,9.5 C2.4516129,5.60465524 5.60404234,2.4516129 9.5,2.4516129 L9.5,2.4516129 Z M9.5,0 C4.25328024,0 0,4.25328024 0,9.5 C0,14.7467198 4.25328024,19 9.5,19 C14.7467198,19 19,14.7467198 19,9.5 C19,4.25328024 14.7467198,0 9.5,0 Z M9.5,7.0483871 C10.8518347,7.0483871 11.9516129,8.14816532 11.9516129,9.5 C11.9516129,10.8518347 10.8518347,11.9516129 9.5,11.9516129 C8.14816532,11.9516129 7.0483871,10.8518347 7.0483871,9.5 C7.0483871,8.14816532 8.14816532,7.0483871 9.5,7.0483871 L9.5,7.0483871 Z M9.5,4.59677419 C6.79204032,4.59677419 4.59677419,6.79204032 4.59677419,9.5 C4.59677419,12.2079597 6.79204032,14.4032258 9.5,14.4032258 C12.2079597,14.4032258 14.4032258,12.2079597 14.4032258,9.5 C14.4032258,6.79204032 12.2079597,4.59677419 9.5,4.59677419 Z"></path>
    </defs>
    <g stroke="none" stroke-width="1" fill="none" fill-rule="evenodd">
        <g>
            <g>
                <mask id="sunburst-mask" fill="white">
                    <use xlink:href="#sunburst-path"></use>
                </mask>
                <g></g>
                <g mask="url(#sunburst-mask)" fill="#555555" stroke="#555555">
                    <rect x="0.5" y="0.5" width="18" height="18"></rect>
                </g>
            </g>
            <path d="M9.5,13.2724609 L9.5,17.15625"" stroke="#555555" stroke-width="2" stroke-linecap="square"></path>
            <path d="M13,9.5 L18,9.5" stroke="#555555" stroke-width="2" stroke-linecap="square"></path>
        </g>
    </g>
</svg>