<?xml version="1.0" encoding="UTF-8"?>
<svg width="42px" height="42px" viewBox="0 0 42 42" version="1.1" xmlns="http://www.w3.org/2000/svg" xmlns:xlink="http://www.w3.org/1999/xlink">
    <!-- Generator: Sketch 53 (72520) - https://sketchapp.com -->
    <title>Twitter</title>
    <desc>Created with Sketch.</desc>
    <g id="Page-1" stroke="none" stroke-width="1" fill="none" fill-rule="evenodd">
        <g id="Artboard" transform="translate(-126.000000, -46.000000)">
            <g id="Twitter" transform="translate(126.000000, 46.000000)">
                <g transform="translate(0.000000, -0.000000)" id="Group-13">
                    <g transform="translate(0.000000, -0.000000)">
                        <g id="Group-12" transform="translate(0.000000, -0.000000)">
                            <rect id="Rectangle" x="0" y="0" width="41.7681159" height="42"></rect>
                            <ellipse id="Oval" stroke="#808080" stroke-width="2" cx="20.884058" cy="21" rx="19.884058" ry="20"></ellipse>
                            <path d="M28.9777211,16.0800165 C29.8225244,15.5439379 30.4707529,14.6939057 30.7749757,13.6813126 C29.9839965,14.1789227 29.109941,14.5387903 28.1773812,14.7336152 C27.4332055,13.8897877 26.3695958,13.3636364 25.1924877,13.3636364 C22.9342186,13.3636364 21.1042016,15.3056807 21.1042016,17.7006618 C21.1042016,18.0406747 21.1381341,18.3720011 21.2083394,18.6884364 C17.810405,18.5072617 14.7974294,16.7823789 12.7790283,14.1565861 C12.4268319,14.7993841 12.2255768,15.5439379 12.2255768,16.3381285 C12.2255768,17.842127 12.9475209,19.1699145 14.045063,19.9492141 C13.3746028,19.9268775 12.7439256,19.7295707 12.1916443,19.4069308 L12.1916443,19.4602905 C12.1916443,21.5624138 13.6004298,23.3158379 15.47374,23.7129332 C15.1297343,23.8146889 14.7693473,23.8655667 14.3949192,23.8655667 C14.1316495,23.8655667 13.8742303,23.8395073 13.6261717,23.7886295 C14.1456906,25.5110304 15.6562737,26.7668444 17.4465077,26.8003493 C16.0459129,27.964335 14.2825908,28.6567699 12.3671574,28.6567699 C12.0371927,28.6567699 11.7107383,28.6381561 11.3913043,28.5972056 C13.2014299,29.8269602 15.3508808,30.5454545 17.6606338,30.5454545 C25.1842971,30.5454545 29.295985,23.9362993 29.295985,18.2044765 C29.295985,18.0158562 29.2936448,17.8284769 29.2854542,17.6435794 C30.084624,17.0318044 30.779656,16.2673959 31.326087,15.397509 C30.592442,15.7424855 29.803803,15.975779 28.9777211,16.0800165 Z" id="Shape" fill="#808080"></path>
                        </g>
                    </g>
                </g>
            </g>
        </g>
    </g>
</svg>