<?xml version="1.0" encoding="UTF-8"?>
<svg width="32px" height="33px" viewBox="0 0 32 33" version="1.1" xmlns="http://www.w3.org/2000/svg" xmlns:xlink="http://www.w3.org/1999/xlink">
    <!-- Generator: Sketch 53.2 (72643) - https://sketchapp.com -->
    <title id="Twitter-icon-title">Twitter</title>
    <g id="Twitter" stroke="none" stroke-width="1" fill="none" fill-rule="evenodd">
        <g id="Group-12">
            <g transform="translate(0.000000, -0.000000)">
                <rect id="Rectangle" x="0" y="0" width="31.8801538" height="32.9714533"></rect>
                <ellipse id="Oval" stroke="#808080" stroke-width="2" cx="15.9400769" cy="16.4857266" rx="14.9400769" ry="15.4857266"></ellipse>
                <path d="M22.1176892,12.6233694 C22.7624982,12.2025291 23.2572686,11.5352244 23.4894712,10.7403038 C22.8857442,11.1309449 22.218608,11.4134535 21.5068175,11.5663978 C20.938814,10.9039639 20.1269976,10.490917 19.2285518,10.490917 C17.5048934,10.490917 16.1081049,12.0154889 16.1081049,13.895632 C16.1081049,14.1625539 16.1340044,14.4226566 16.1875897,14.6710693 C13.5940642,14.5288408 11.2943645,13.1747481 9.75378891,11.1134099 C9.48496964,11.6180286 9.33135863,12.2025291 9.33135863,12.8259962 C9.33135863,14.0066871 9.88239348,15.0490462 10.7201093,15.6608233 C10.2083703,15.6432883 9.72699629,15.4883957 9.3054591,15.2351122 L9.3054591,15.2770014 C9.3054591,16.927241 10.3807362,18.3037395 11.8105689,18.6154731 C11.5480013,18.6953548 11.2729304,18.7352956 10.9871424,18.7352956 C10.7861978,18.7352956 10.5897186,18.7148381 10.4003841,18.6748973 C10.7969149,20.0270416 11.9498905,21.012899 13.3163141,21.0392015 C12.2472886,21.9529706 10.9014061,22.496556 9.43942219,22.496556 C9.18757158,22.496556 8.93840023,22.4819435 8.6945874,22.4497959 C10.0761934,23.4151958 11.7167947,23.9792388 13.479749,23.9792388 C19.2223002,23.9792388 22.3606089,18.7908232 22.3606089,14.291144 C22.3606089,14.1430705 22.3588227,13.9959713 22.3525711,13.8508203 C22.9625497,13.3705558 23.4930436,12.7704687 23.9101154,12.0875773 C23.3501496,12.3583959 22.7482088,12.5415393 22.1176892,12.6233694 Z" id="Shape" fill="#808080"></path>
            </g>
        </g>
    </g>
</svg>