<?xml version="1.0" encoding="UTF-8"?>
<svg width="42px" height="42px" viewBox="0 0 42 42" version="1.1" xmlns="http://www.w3.org/2000/svg" xmlns:xlink="http://www.w3.org/1999/xlink">
    <!-- Generator: Sketch 53 (72520) - https://sketchapp.com -->
    <title>World</title>
    <desc>Created with Sketch.</desc>
    <defs>
        <polygon id="path-1" points="0 0 24 0 24 24 0 24"></polygon>
    </defs>
    <g id="Page-1" stroke="none" stroke-width="1" fill="none" fill-rule="evenodd">
        <g id="Artboard" transform="translate(-70.000000, -45.000000)">
            <g id="World" transform="translate(70.000000, 45.000000)">
                <g id="Group-4">
                    <g>
                        <g id="Group-3" transform="translate(9.000000, 9.000000)">
                            <mask id="mask-2" fill="white">
                                <use xlink:href="#path-1"></use>
                            </mask>
                            <g id="Clip-2"></g>
                            <path d="M10.1193249,14.5007346 C10.1193249,14.5007346 11.0719174,14.9189809 12.1870498,15.0583008 L12.8839359,16.5916795 L15.2764539,18.2640914 L14.9745942,17.0096392 L18.0642849,17.2885656 L19.0398108,18.5430179 L17.5070054,19.9367901 L15.9736267,20.4943563 L14.3009281,21.4933888 L14.3009281,18.2640914 L13.1857957,17.5672054 L12.2102698,16.1734332 L10.8164977,15.7551869 L8.7258394,15.3372272 L8.02866664,13.6645286 L6.63489447,11.99183 L5.10151575,10.458738 L4.54423621,9.34360555 L4.6835561,7.94983338 L4.40462966,6.97402085 L4.1259899,5.58053535 L5.10151575,4.3257964 L5.93800838,3.21066399 L8.58623284,2.51406457 L10.6768911,2.23513814 L10.8164977,1.12000573 L11.7920235,2.23513814 L13.3254022,2.23513814 L11.9313434,3.35027054 L10.9558175,3.90783674 L10.9558175,5.16228903 L11.9313434,5.71956857 L13.1857957,5.71956857 L14.1616082,6.41674132 L15.1371341,5.71956857 L14.7191744,4.60472283 L14.8584943,3.48959043 L15.9736267,4.46511628 L17.6460386,4.74404271 L17.9249651,5.71956857 L19.0398108,6.5560612 L16.8098327,6.97402085 L16.6705128,8.36779303 L14.440248,10.1800982 L13.7436485,11.2949439 L13.7436485,13.1072491 L12.7675494,11.99183 L11.234744,11.99183 L9.98029168,12.4100763 L10.1193249,14.5007346 Z M12.0001433,0 C5.37241552,0 0,5.37270219 0,11.9998567 C0,18.6275845 5.37241552,24 12.0001433,24 C18.6275845,24 24,18.6275845 24,11.9998567 C24,5.37270219 18.6275845,0 12.0001433,0 L12.0001433,0 Z" id="Fill-1" fill="#808080" mask="url(#mask-2)"></path>
                        </g>
                        <ellipse id="Oval-Copy" stroke="#808080" stroke-width="2" cx="20.884058" cy="21" rx="19.884058" ry="20"></ellipse>
                    </g>
                </g>
            </g>
        </g>
    </g>
</svg>