<?xml version="1.0" encoding="UTF-8"?>
<svg width="639px" height="363px" viewBox="0 0 639 363" version="1.1" xmlns="http://www.w3.org/2000/svg" xmlns:xlink="http://www.w3.org/1999/xlink">
    <!-- Generator: Sketch 53.2 (72643) - https://sketchapp.com -->
    <title>Group 13</title>
    <desc>Created with Sketch.</desc>
    <defs>
        <linearGradient x1="50%" y1="100%" x2="50%" y2="3.061617e-15%" id="linearGradient-1">
            <stop stop-color="#D291D9" stop-opacity="0" offset="0%"></stop>
            <stop stop-color="#A658B2" offset="100%"></stop>
        </linearGradient>
    </defs>
    <g id="Page-1" stroke="none" stroke-width="1" fill="none" fill-rule="evenodd">
        <g id="BP---V8--2018" transform="translate(-749.000000, -2641.000000)">
            <g id="Group-13" transform="translate(749.000000, 2638.000000)">
                <polygon id="Rectangle-16" fill="#FAFAFA" fill-rule="nonzero" points="55 299 610 299 610 334 55 334"></polygon>
                <polygon id="Rectangle-16" fill="#FAFAFA" fill-rule="nonzero" points="55 229 610 229 610 264 55 264"></polygon>
                <polygon id="Rectangle-16" fill="#FAFAFA" fill-rule="nonzero" points="55 159 610 159 610 194 55 194"></polygon>
                <polygon id="Rectangle-16" fill="#FAFAFA" fill-rule="nonzero" points="55 89 610 89 610 124 55 124"></polygon>
                <polygon id="Rectangle-16" fill="#FAFAFA" fill-rule="nonzero" points="55 19 610 19 610 54 55 54"></polygon>
                <path d="M55,4 L55,334" id="Line-35" stroke="#7D7D7D" stroke-width="1.5" stroke-linecap="round" fill-rule="nonzero"></path>
                <path d="M56,334 L615,334" id="Line-36" stroke="#7D7D7D" stroke-width="1.5" stroke-linecap="round" fill-rule="nonzero"></path>
                <text id="2018" font-family="SourceSansPro-Semibold, Source Sans Pro" font-size="29.6153846" font-weight="500" fill="#666666">
                    <tspan x="579" y="365">2018</tspan>
                </text>
                <text id="2017" font-family="SourceSansPro-Light, Source Sans Pro" font-size="15.2307692" font-weight="300" fill="#666666">
                    <tspan x="475" y="363">2017</tspan>
                </text>
                <text id="2016" font-family="SourceSansPro-Light, Source Sans Pro" font-size="15.2307692" font-weight="300" fill="#666666">
                    <tspan x="355" y="363">2016</tspan>
                </text>
                <text id="2015" font-family="SourceSansPro-Light, Source Sans Pro" font-size="15.2307692" font-weight="300" fill="#666666">
                    <tspan x="235" y="363">2015</tspan>
                </text>
                <text id="2014" font-family="SourceSansPro-Light, Source Sans Pro" font-size="15.2307692" font-weight="300" fill="#666666">
                    <tspan x="115" y="363">2014</tspan>
                </text>
                <path d="M56,229 L611,229" id="Line-3" stroke="#666666" opacity="0.1" stroke-linecap="square" fill-rule="nonzero"></path>
                <path d="M56,264 L611,264" id="Line-3" stroke="#666666" opacity="0.1" stroke-linecap="square" fill-rule="nonzero"></path>
                <path d="M56,89 L611,89" id="Line-3" stroke="#666666" opacity="0.1" stroke-linecap="square" fill-rule="nonzero"></path>
                <path d="M56,124 L611,124" id="Line-3" stroke="#666666" opacity="0.1" stroke-linecap="square" fill-rule="nonzero"></path>
                <path d="M56,159 L611,159" id="Line-3" stroke="#666666" opacity="0.1" stroke-linecap="square" fill-rule="nonzero"></path>
                <path d="M56,194 L611,194" id="Line-3" stroke="#666666" opacity="0.1" stroke-linecap="square" fill-rule="nonzero"></path>
                <path d="M56,53.5 L611,53.5" id="Line-3" stroke="#666666" opacity="0.1" stroke-linecap="square" fill-rule="nonzero"></path>
                <path d="M56,19 L611,19" id="Line-3" stroke="#666666" opacity="0.1" stroke-linecap="square" fill-rule="nonzero"></path>
                <text id="$22.5-T-$-20.0-T-$-1" font-family="SourceSansPro-Light, Source Sans Pro" font-size="15" font-weight="300" line-spacing="35" fill="#666666">
                    <tspan x="3.13" y="15">$22.5 T</tspan>
                    <tspan x="0.145" y="50">$ 20.0 T</tspan>
                    <tspan x="0.145" y="85">$ 17.5 T</tspan>
                    <tspan x="0.145" y="120">$ 15.0 T</tspan>
                    <tspan x="0.145" y="155">$ 12.5 T</tspan>
                    <tspan x="0.145" y="190">$ 10.0 T</tspan>
                    <tspan x="7.33" y="225">$ 7.5 T</tspan>
                    <tspan x="7.33" y="260">$ 5.0 T</tspan>
                    <tspan x="7.33" y="295">$ 2.5 T</tspan>
                    <tspan x="28.645" y="330">$ 0</tspan>
                </text>
                <path d="M56,299 L611,299" id="Line-3-Copy" stroke="#666666" opacity="0.1" stroke-linecap="square" fill-rule="nonzero"></path>
                <path d="" id="Path-2" stroke="#979797" fill-rule="nonzero"></path>
                <polyline id="Path-6" stroke="#4A0072" stroke-width="1.5" fill-rule="nonzero" points="54.7323457 101 130.02244 86 249.850164 81.9193497 369.972079 59.9727745 489.991308 53 610.015822 33"></polyline>
                <polygon id="Path-6" fill="url(#linearGradient-1)" fill-rule="nonzero" opacity="0.2" points="54.7323457 101 130.02244 86 249.850164 81.9193497 369.972079 59.9727745 489.991308 53 610.015822 33 610.015822 334 54.7323457 334"></polygon>
                <circle id="Oval-Copy" stroke="#4A0072" fill="#FFFFFF" fill-rule="nonzero" cx="370" cy="60" r="4"></circle>
                <circle id="Oval-Copy" stroke="#4A0072" fill="#FFFFFF" fill-rule="nonzero" cx="250" cy="82" r="4"></circle>
                <circle id="Oval-Copy-2" stroke="#4A0072" fill="#FFFFFF" fill-rule="nonzero" cx="130" cy="86" r="4"></circle>
                <rect id="Rectangle" fill="#4A0072" fill-rule="nonzero" x="381" y="101" width="215" height="99"></rect>
                <text id="In-2018,-$1.3-trilli" font-family="SourceSansPro-Light, Source Sans Pro" font-size="18" font-weight="300" fill="#FFFFFF">
                    <tspan x="410.848" y="134">In 2018,  </tspan>
                    <tspan x="473.92" y="134" font-family="SourceSansPro-Bold, Source Sans Pro" font-weight="bold">$1.3 trillion</tspan>
                    <tspan x="566.152" y="134"> </tspan>
                    <tspan x="425.95" y="157">was added to the </tspan>
                    <tspan x="432.061" y="180" font-family="SourceSansPro-Bold, Source Sans Pro" font-weight="bold">national debt.</tspan>
                </text>
                <path d="M552.5,43 L552.5,101" id="Line-14" stroke="#4A0072" stroke-linecap="square" fill-rule="nonzero"></path>
                <path d="M490.125537,53 L610.160124,33" id="Path-7" stroke="#B3532D" stroke-width="5" fill-rule="nonzero"></path>
                <circle id="Oval" stroke="#4A0072" fill="#FFFFFF" fill-rule="nonzero" cx="610" cy="33" r="4"></circle>
                <circle id="Oval" stroke="#4A0072" fill="#FFFFFF" fill-rule="nonzero" cx="490" cy="53" r="4"></circle>
            </g>
        </g>
    </g>
</svg>