<?xml version="1.0" encoding="UTF-8"?>
<svg width="250px" height="100px" viewBox="0 0 250 100" version="1.1" xmlns="http://www.w3.org/2000/svg" xmlns:xlink="http://www.w3.org/1999/xlink">
    <!-- Generator: Sketch 53.2 (72643) - https://sketchapp.com -->
    <title>debt-2-outline</title>
    <desc>Created with Sketch.</desc>
    <g id="debt-2-outline" stroke="none" stroke-width="1" fill="none" fill-rule="evenodd">
        <g id="Group-38" transform="translate(0.000000, 5.000000)">
            <g id="Group-25" transform="translate(7.145222, 0.000000)">
                <polygon id="Fill-1" fill="#4A0072" points="48.4256429 3.37194935 21.1794457 23.447504 23.5584382 26.9598845 50.8030323 6.8843298 78.0508326 26.9598845 80.428222 23.447504 53.1804217 3.37194935 50.8030323 1.60533901"></polygon>
                <polygon id="Fill-2" fill="#4A0072" points="74.0371644 43.4619808 27.569862 43.4619808 27.569862 26.3425327 50.8035132 9.22308463 74.0371644 26.3425327"></polygon>
                <polygon id="Fill-3" fill="#4A0072" points="3.46909689 82.0037435 22.7062331 82.0037435 22.7062331 40.3232818 3.46909689 40.3232818"></polygon>
                <polygon id="Fill-4" fill="#4A0072" points="78.8129438 82.0037435 98.05008 82.0037435 98.05008 40.3232818 78.8129438 40.3232818"></polygon>
                <polygon id="Fill-5" fill="#4A0072" points="27.513914 82.0037435 74.0052629 82.0037435 74.0052629 31.031745 27.513914 31.031745"></polygon>
                <polygon id="Fill-6" fill="#FFFFFF" points="8.24631904 56.5081257 17.9242016 56.5081257 17.9242016 46.8302431 8.24631904 46.8302431"></polygon>
                <polygon id="Fill-7" fill="#FFFFFF" points="8.24631904 70.8413952 17.9242016 70.8413952 17.9242016 61.1635126 8.24631904 61.1635126"></polygon>
                <polygon id="Fill-8" fill="#FFFFFF" points="32.0266255 41.1344477 41.7045081 41.1344477 41.7045081 31.4565651 32.0266255 31.4565651"></polygon>
                <polygon id="Fill-9" fill="#FFFFFF" points="32.0266255 55.4677172 41.7045081 55.4677172 41.7045081 45.7898346 32.0266255 45.7898346"></polygon>
                <polygon id="Fill-10" fill="#FFFFFF" points="45.919044 41.1344477 55.5969266 41.1344477 55.5969266 31.4565651 45.919044 31.4565651"></polygon>
                <polygon id="Fill-11" fill="#FFFFFF" points="45.919044 55.4677172 55.5969266 55.4677172 55.5969266 45.7898346 45.919044 45.7898346"></polygon>
                <polygon id="Fill-12" fill="#FFFFFF" points="59.8130656 41.1344477 69.4909482 41.1344477 69.4909482 31.4565651 59.8130656 31.4565651"></polygon>
                <polygon id="Fill-13" fill="#FFFFFF" points="59.8130656 55.4677172 69.4909482 55.4677172 69.4909482 45.7898346 59.8130656 45.7898346"></polygon>
                <polygon id="Fill-14" fill="#FFFFFF" points="84.1560584 56.5081257 93.833941 56.5081257 93.833941 46.8302431 84.1560584 46.8302431"></polygon>
                <polygon id="Fill-15" fill="#FFFFFF" points="84.1560584 70.8413952 93.833941 70.8413952 93.833941 61.1635126 84.1560584 61.1635126"></polygon>
                <polygon id="Fill-16" fill="#FFFFFF" points="45.9655338 82.0037435 55.6418133 82.0037435 55.6418133 65.014146 45.9655338 65.014146"></polygon>
                <polygon id="Fill-17" fill="#0A2F5A" points="11.4989981 13.1266202 6.47489942 2.75780378 11.4509053 13.1490635 2.42708535 5.98643647 11.4204465 13.190744 0.179546604 10.651442 11.4076218 13.2404399 0.179546604 15.8310409 11.4204465 13.2917389 2.42708535 20.4944433 11.4509053 13.3318163 6.47489942 23.7246791 11.4989981 13.3542596 11.5246477 24.8773042 11.5486941 13.3542596 16.5711897 23.7246791 11.5951838 13.3318163 20.62221 20.4944433 11.6288488 13.2917389 22.8681456 15.8310409 11.6400705 13.2404399 22.8681456 10.651442 11.6288488 13.190744 20.62221 5.98643647 11.5951838 13.1490635 16.5711897 2.75780378 11.5486941 13.1266202 11.5246477 1.6051787"></polygon>
                <g id="Group-24" transform="translate(0.000000, 0.245915)">
                    <polygon id="Stroke-18" stroke="#4A0072" stroke-width="1.19087033" stroke-linecap="round" points="11.4076218 12.9945252 0.179546604 10.4055273 11.4188434 12.9448292 2.42708535 5.74052174 11.4509053 12.9031488 6.47489942 2.51028596 11.4989981 12.8807055 11.5246477 1.35926398 11.5502972 12.8807055 16.5727928 2.51028596 11.5967869 12.9031488 20.62221 5.74052174 11.6288488 12.9448292 22.8681456 10.4055273 11.6400705 12.9945252 22.8681456 15.5835231 11.6288488 13.0458242 20.62221 20.2485286 11.5967869 13.0859016 16.5727928 23.4787644 11.5502972 13.1083449 11.5246477 24.6297864 11.4989981 13.1083449 6.47489942 23.4787644 11.4509053 13.0859016 2.42708535 20.2485286 11.4188434 13.0458242 0.179546604 15.5835231"></polygon>
                    <path d="M18.9291817,12.9945252 C18.9291817,17.0840197 15.6139819,20.4008226 11.5244874,20.4008226 C7.43499282,20.4008226 4.11818993,17.0840197 4.11818993,12.9945252 C4.11818993,8.90503064 7.43499282,5.58983084 11.5244874,5.58983084 C15.6139819,5.58983084 18.9291817,8.90503064 18.9291817,12.9945252" id="Fill-20" fill="#4A0072"></path>
                    <path d="M18.9291817,12.9945252 C18.9291817,17.0840197 15.6139819,20.4008226 11.5244874,20.4008226 C7.43499282,20.4008226 4.11818993,17.0840197 4.11818993,12.9945252 C4.11818993,8.90503064 7.43499282,5.58983084 11.5244874,5.58983084 C15.6139819,5.58983084 18.9291817,8.90503064 18.9291817,12.9945252 Z" id="Stroke-22" stroke="#FFFFFF" stroke-width="1.19087033"></path>
                </g>
            </g>
            <rect id="Rectangle" fill="#4A0072" fill-rule="nonzero" x="0" y="51.2074244" width="111.941811" height="36.9169804"></rect>
            <path d="M20.9878988,81.8796091 L20.9878988,72.4622065 L21.6452592,72.4622065 L21.6452592,76.5921448 L26.6897859,76.5921448 L26.6897859,72.4622065 L27.3471464,72.4622065 L27.3471464,81.8796091 L26.6897859,81.8796091 L26.6897859,77.1637625 L21.6452592,77.1637625 L21.6452592,81.8796091 L20.9878988,81.8796091 Z M32.548868,82.0510944 C32.1392065,82.0510944 31.748605,81.970116 31.3770516,81.8081568 C31.0054982,81.6461977 30.679203,81.4127894 30.3981562,81.1079251 C30.1171094,80.8030608 29.893228,80.4291312 29.7265053,79.9861252 C29.5597826,79.5431193 29.4764225,79.0358136 29.4764225,78.4641929 C29.4764225,77.8925723 29.5597826,77.3805032 29.7265053,76.9279702 C29.893228,76.4754372 30.1171094,76.0967442 30.3981562,75.7918799 C30.679203,75.4870156 31.0054982,75.2536073 31.3770516,75.0916482 C31.748605,74.929689 32.1392065,74.8487106 32.548868,74.8487106 C32.9585294,74.8487106 33.3515127,74.929689 33.7278296,75.0916482 C34.1041465,75.2536073 34.4328234,75.4870156 34.7138703,75.7918799 C34.9949171,76.0967442 35.2187984,76.4754372 35.3855211,76.9279702 C35.5522438,77.3805032 35.6356039,77.8925723 35.6356039,78.4641929 C35.6356039,79.0358136 35.5522438,79.5431193 35.3855211,79.9861252 C35.2187984,80.4291312 34.9949171,80.8030608 34.7138703,81.1079251 C34.4328234,81.4127894 34.1041465,81.6461977 33.7278296,81.8081568 C33.3515127,81.970116 32.9585294,82.0510944 32.548868,82.0510944 Z M32.548868,81.4937671 C32.8918404,81.4937671 33.2133721,81.4199339 33.513473,81.2722652 C33.8135738,81.1245965 34.0707992,80.9173872 34.2851569,80.6506309 C34.4995147,80.3838746 34.6686166,80.0647245 34.7924677,79.6931711 C34.9163188,79.3216177 34.9782435,78.9119624 34.9782435,78.4641929 C34.9782435,78.0068965 34.9163188,77.5924777 34.7924677,77.2209243 C34.6686166,76.8493709 34.4995147,76.5278391 34.2851569,76.2563193 C34.0707992,75.9847996 33.8135738,75.7752085 33.513473,75.6275398 C33.2133721,75.4798712 32.8918404,75.4060379 32.548868,75.4060379 C32.2058956,75.4060379 31.8867456,75.4798712 31.5914082,75.6275398 C31.2960709,75.7752085 31.0412272,75.9847996 30.8268695,76.2563193 C30.6125117,76.5278391 30.4434099,76.8493709 30.3195587,77.2209243 C30.1957076,77.5924777 30.1337829,78.0068965 30.1337829,78.4641929 C30.1337829,78.9119624 30.1957076,79.3216177 30.3195587,79.6931711 C30.4434099,80.0647245 30.6125117,80.3838746 30.8268695,80.6506309 C31.0412272,80.9173872 31.2960709,81.1245965 31.5914082,81.2722652 C31.8867456,81.4199339 32.2058956,81.4937671 32.548868,81.4937671 Z M39.6655091,82.0510944 C38.9509833,82.0510944 38.4270056,81.8367399 38.0935603,81.4080244 C37.7601149,80.979309 37.5933947,80.3171917 37.5933947,79.4216527 L37.5933947,75.0201959 L38.2221743,75.0201959 L38.2221743,79.33591 C38.2221743,80.0694898 38.3436418,80.6101396 38.5865806,80.9578754 C38.8295193,81.3056113 39.2272661,81.4794766 39.7798327,81.4794766 C40.1894941,81.4794766 40.5610419,81.3675359 40.8944873,81.1436512 C41.2279326,80.9197665 41.594717,80.5648906 41.9948515,80.0790131 L41.9948515,75.0201959 L42.623631,75.0201959 L42.623631,81.8796091 L42.0948846,81.8796091 L42.0234324,80.7363735 L41.9948515,80.7363735 C41.6614061,81.136508 41.308912,81.455658 40.9373586,81.6938333 C40.5658052,81.9320086 40.1418596,82.0510944 39.6655091,82.0510944 Z M46.9107642,82.0510944 C46.3963057,82.0510944 45.9247257,81.9582074 45.4960103,81.7724307 C45.0672948,81.586654 44.7005104,81.3651544 44.3956461,81.1079251 L44.7671976,80.6363404 C45.0625349,80.8840427 45.3769216,81.0912521 45.7103669,81.2579748 C46.0438123,81.4246974 46.458231,81.5080575 46.9536355,81.5080575 C47.4966751,81.5080575 47.9039487,81.3722997 48.1754685,81.1007799 C48.4469883,80.8292601 48.5827462,80.5124917 48.5827462,80.1504653 C48.5827462,79.9408711 48.5327301,79.7550972 48.4326965,79.593138 C48.3326629,79.4311789 48.2016685,79.2930393 48.0397093,79.1787151 C47.8777501,79.064391 47.6991214,78.9643589 47.5038176,78.8786158 C47.3085139,78.7928727 47.1108314,78.7118944 46.9107642,78.6356783 C46.6535349,78.5404082 46.3939278,78.4403761 46.131935,78.335579 C45.8699422,78.2307818 45.6341523,78.1045508 45.424558,77.9568822 C45.2149638,77.8092135 45.0458619,77.6329665 44.9172473,77.4281358 C44.7886326,77.223305 44.7243263,76.9732248 44.7243263,76.6778874 C44.7243263,76.4301852 44.7719606,76.1943952 44.8672307,75.9705105 C44.9625008,75.7466257 45.1054038,75.5513249 45.295944,75.3846023 C45.4864843,75.2178796 45.7175108,75.0868852 45.9890306,74.9916151 C46.2605504,74.896345 46.5773187,74.8487106 46.9393451,74.8487106 C47.3013715,74.8487106 47.6562473,74.9153987 48.0039832,75.0487768 C48.3517191,75.182155 48.6494337,75.3536386 48.8971359,75.5632328 L48.5541653,76.0062366 C48.325517,75.8347504 48.0825819,75.6894657 47.8253526,75.570378 C47.5681234,75.4512904 47.2632636,75.3917475 46.9107642,75.3917475 C46.6440079,75.3917475 46.4153631,75.4274732 46.2248229,75.4989258 C46.0342827,75.5703784 45.8747077,75.6632654 45.746093,75.7775895 C45.6174784,75.8919136 45.5222097,76.0252897 45.4602842,76.1777219 C45.3983586,76.3301541 45.3673963,76.482584 45.3673963,76.6350161 C45.3673963,76.8350833 45.4126489,77.0041852 45.5031555,77.1423269 C45.5936621,77.2804685 45.7151296,77.4019361 45.8675618,77.5067332 C46.019994,77.6115303 46.1938593,77.7044173 46.389163,77.7853969 C46.5844667,77.8663764 46.7821492,77.9449731 46.9822164,78.0211892 L47.7824813,78.335579 C48.0492376,78.4403761 48.289791,78.5689888 48.5041487,78.7214209 C48.7185065,78.8738531 48.8923718,79.0620087 49.0257499,79.2858935 C49.1591281,79.5097782 49.2258161,79.7884391 49.2258161,80.1218845 C49.2258161,80.3791137 49.1758001,80.6244306 49.0757665,80.8578423 C48.9757329,81.0912541 48.8256847,81.2960817 48.6256175,81.4723314 C48.4255503,81.6485811 48.1826152,81.7891024 47.8968049,81.8938995 C47.6109945,81.9986966 47.2823176,82.0510944 46.9107642,82.0510944 Z M53.6415633,82.0510944 C53.2033209,82.0510944 52.7912839,81.970116 52.4054399,81.8081568 C52.019596,81.6461977 51.6837739,81.4104077 51.3979636,81.1007799 C51.1121533,80.791152 50.8858902,80.4148408 50.7191675,79.9718348 C50.5524449,79.5288288 50.4690848,79.0262866 50.4690848,78.4641929 C50.4690848,77.9020993 50.5524449,77.3971754 50.7191675,76.9494059 C50.8858902,76.5016364 51.1097716,76.1229434 51.3908184,75.8133156 C51.6718652,75.5036877 51.9910153,75.2655161 52.3482782,75.0987934 C52.7055411,74.9320707 53.0747072,74.8487106 53.4557876,74.8487106 C54.2751105,74.8487106 54.918174,75.1249898 55.3849975,75.6775564 C55.851821,76.230123 56.0852293,77.0113261 56.0852293,78.0211892 L56.0852293,78.2784172 C56.0852293,78.3641603 56.0757024,78.4499021 56.0566484,78.5356452 L51.1121548,78.5356452 C51.1216818,78.9643606 51.1883698,79.3621073 51.312221,79.7288972 C51.4360721,80.0956871 51.6099374,80.4100738 51.8338222,80.6720665 C52.0577069,80.9340593 52.3268409,81.138887 52.6412323,81.2865556 C52.9556236,81.4342243 53.3081177,81.5080575 53.6987251,81.5080575 C54.0702785,81.5080575 54.4061006,81.453278 54.7062014,81.3437174 C55.0063023,81.2341568 55.2849631,81.0841086 55.5421924,80.8935684 L55.7994204,81.3794435 C55.5231371,81.5414027 55.2206591,81.6938326 54.8919772,81.8367377 C54.5632953,81.9796429 54.1464949,82.0510944 53.6415633,82.0510944 Z M51.1121548,78.0211892 L55.4850306,78.0211892 C55.4850306,77.1351772 55.3040201,76.4754417 54.9419938,76.0419627 C54.5799674,75.6084837 54.0893337,75.3917475 53.470078,75.3917475 C53.1747407,75.3917475 52.8936981,75.4512904 52.6269418,75.570378 C52.3601855,75.6894657 52.1196321,75.863331 51.9052744,76.0919792 C51.6909167,76.3206275 51.5146696,76.5969066 51.376528,76.920825 C51.2383863,77.2447433 51.1502628,77.6115277 51.1121548,78.0211892 Z M57.942987,81.8796091 L57.942987,71.6047798 L58.5717665,71.6047798 L58.5717665,76.0919792 C58.9337929,75.7299529 59.3005773,75.4322382 59.6721307,75.1988265 C60.0436841,74.9654147 60.4676297,74.8487106 60.9439802,74.8487106 C61.658506,74.8487106 62.1824837,75.0630651 62.5159291,75.4917806 C62.8493744,75.9204961 63.0160946,76.5826133 63.0160946,77.4781523 L63.0160946,81.8796091 L62.3873151,81.8796091 L62.3873151,77.563895 C62.3873151,76.8303152 62.2658475,76.2896655 62.0229088,75.9419296 C61.77997,75.5941937 61.3774599,75.4203284 60.8153662,75.4203284 C60.4057048,75.4203284 60.034157,75.5275056 59.7007116,75.7418634 C59.3672662,75.9562211 58.990955,76.2777529 58.5717665,76.7064683 L58.5717665,81.8796091 L57.942987,81.8796091 Z M67.9891691,82.0510944 C67.5795077,82.0510944 67.1889061,81.970116 66.8173527,81.8081568 C66.4457993,81.6461977 66.1195041,81.4127894 65.8384573,81.1079251 C65.5574105,80.8030608 65.3335291,80.4291312 65.1668064,79.9861252 C65.0000838,79.5431193 64.9167237,79.0358136 64.9167237,78.4641929 C64.9167237,77.8925723 65.0000838,77.3805032 65.1668064,76.9279702 C65.3335291,76.4754372 65.5574105,76.0967442 65.8384573,75.7918799 C66.1195041,75.4870156 66.4457993,75.2536073 66.8173527,75.0916482 C67.1889061,74.929689 67.5795077,74.8487106 67.9891691,74.8487106 C68.3988306,74.8487106 68.7918139,74.929689 69.1681308,75.0916482 C69.5444477,75.2536073 69.8731246,75.4870156 70.1541714,75.7918799 C70.4352182,76.0967442 70.6590996,76.4754372 70.8258223,76.9279702 C70.992545,77.3805032 71.075905,77.8925723 71.075905,78.4641929 C71.075905,79.0358136 70.992545,79.5431193 70.8258223,79.9861252 C70.6590996,80.4291312 70.4352182,80.8030608 70.1541714,81.1079251 C69.8731246,81.4127894 69.5444477,81.6461977 69.1681308,81.8081568 C68.7918139,81.970116 68.3988306,82.0510944 67.9891691,82.0510944 Z M67.9891691,81.4937671 C68.3321415,81.4937671 68.6536733,81.4199339 68.9537741,81.2722652 C69.2538749,81.1245965 69.5111004,80.9173872 69.7254581,80.6506309 C69.9398158,80.3838746 70.1089177,80.0647245 70.2327688,79.6931711 C70.35662,79.3216177 70.4185446,78.9119624 70.4185446,78.4641929 C70.4185446,78.0068965 70.35662,77.5924777 70.2327688,77.2209243 C70.1089177,76.8493709 69.9398158,76.5278391 69.7254581,76.2563193 C69.5111004,75.9847996 69.2538749,75.7752085 68.9537741,75.6275398 C68.6536733,75.4798712 68.3321415,75.4060379 67.9891691,75.4060379 C67.6461968,75.4060379 67.3270467,75.4798712 67.0317094,75.6275398 C66.7363721,75.7752085 66.4815284,75.9847996 66.2671706,76.2563193 C66.0528129,76.5278391 65.883711,76.8493709 65.7598599,77.2209243 C65.6360087,77.5924777 65.5740841,78.0068965 65.5740841,78.4641929 C65.5740841,78.9119624 65.6360087,79.3216177 65.7598599,79.6931711 C65.883711,80.0647245 66.0528129,80.3838746 66.2671706,80.6506309 C66.4815284,80.9173872 66.7363721,81.1245965 67.0317094,81.2722652 C67.3270467,81.4199339 67.6461968,81.4937671 67.9891691,81.4937671 Z M73.9768652,82.0510944 C73.4147716,82.0510944 73.133729,81.6890734 73.133729,80.9650207 L73.133729,71.6047798 L73.7625085,71.6047798 L73.7625085,81.0507633 C73.7625085,81.2031955 73.7910891,81.3151362 73.8482512,81.3865887 C73.9054132,81.4580413 73.9768648,81.4937671 74.0626078,81.4937671 L74.1554957,81.4937671 C74.1888403,81.4937671 74.2436198,81.4842402 74.3198358,81.4651862 L74.4341594,81.9796422 C74.3674703,81.9986962 74.3007822,82.0153682 74.2340932,82.0296587 C74.1674041,82.0439492 74.0816623,82.0510944 73.9768652,82.0510944 Z M78.7927448,82.0510944 C77.9257869,82.0510944 77.235089,81.7438529 76.7206304,81.1293608 C76.2061719,80.5148686 75.9489465,79.6264882 75.9489465,78.4641929 C75.9489465,77.9116264 76.0299248,77.4114658 76.191884,76.9636963 C76.3538432,76.5159268 76.5753428,76.1348521 76.8563897,75.8204608 C77.1374365,75.5060695 77.4613499,75.2655161 77.8281398,75.0987934 C78.1949297,74.9320707 78.5831496,74.8487106 78.992811,74.8487106 C79.4119995,74.8487106 79.7764022,74.9225438 80.08603,75.0702125 C80.3956578,75.2178812 80.721953,75.4250905 81.0649254,75.6918468 L81.0363445,74.4342877 L81.0363445,71.6047798 L81.6651241,71.6047798 L81.6651241,81.8796091 L81.1220872,81.8796091 L81.0649254,80.9936015 L81.0220541,80.9936015 C80.7457708,81.2698848 80.4194756,81.5152017 80.0431587,81.7295594 C79.6668418,81.9439171 79.2500413,82.0510944 78.7927448,82.0510944 Z M78.8784875,81.4937671 C79.2595679,81.4937671 79.6239706,81.3961167 79.9717064,81.200813 C80.3194423,81.0055093 80.6743181,80.7268484 81.0363445,80.364822 L81.0363445,76.2920455 C80.6743181,75.9681271 80.3337326,75.7394823 80.0145778,75.6061041 C79.6954229,75.472726 79.3691277,75.4060379 79.0356824,75.4060379 C78.69271,75.4060379 78.3735599,75.4846346 78.0782226,75.6418303 C77.7828853,75.7990259 77.5280416,76.0133804 77.3136839,76.2849002 C77.0993261,76.55642 76.9302242,76.8803335 76.8063731,77.2566504 C76.682522,77.6329673 76.6205973,78.0354775 76.6205973,78.4641929 C76.6205973,78.9214894 76.6706134,79.3359082 76.770647,79.7074616 C76.8706806,80.079015 77.0159653,80.3957833 77.2065055,80.6577761 C77.3970457,80.9197689 77.6328357,81.1245965 77.9138825,81.2722652 C78.1949293,81.4199339 78.5164611,81.4937671 78.8784875,81.4937671 Z M85.9522573,82.0510944 C85.4377987,82.0510944 84.9662188,81.9582074 84.5375033,81.7724307 C84.1087878,81.586654 83.7420034,81.3651544 83.4371391,81.1079251 L83.8086907,80.6363404 C84.104028,80.8840427 84.4184146,81.0912521 84.75186,81.2579748 C85.0853053,81.4246974 85.4997241,81.5080575 85.9951286,81.5080575 C86.5381682,81.5080575 86.9454418,81.3722997 87.2169616,81.1007799 C87.4884814,80.8292601 87.6242392,80.5124917 87.6242392,80.1504653 C87.6242392,79.9408711 87.5742232,79.7550972 87.4741896,79.593138 C87.3741559,79.4311789 87.2431615,79.2930393 87.0812023,79.1787151 C86.9192432,79.064391 86.7406144,78.9643589 86.5453107,78.8786158 C86.350007,78.7928727 86.1523245,78.7118944 85.9522573,78.6356783 C85.695028,78.5404082 85.4354208,78.4403761 85.1734281,78.335579 C84.9114353,78.2307818 84.6756453,78.1045508 84.4660511,77.9568822 C84.2564569,77.8092135 84.087355,77.6329665 83.9587403,77.4281358 C83.8301257,77.223305 83.7658193,76.9732248 83.7658193,76.6778874 C83.7658193,76.4301852 83.8134537,76.1943952 83.9087238,75.9705105 C84.0039939,75.7466257 84.1468969,75.5513249 84.3374371,75.3846023 C84.5279773,75.2178796 84.7590038,75.0868852 85.0305236,74.9916151 C85.3020434,74.896345 85.6188118,74.8487106 85.9808382,74.8487106 C86.3428645,74.8487106 86.6977404,74.9153987 87.0454762,75.0487768 C87.3932121,75.182155 87.6909267,75.3536386 87.938629,75.5632328 L87.5956583,76.0062366 C87.3670101,75.8347504 87.124075,75.6894657 86.8668457,75.570378 C86.6096164,75.4512904 86.3047566,75.3917475 85.9522573,75.3917475 C85.685501,75.3917475 85.4568562,75.4274732 85.266316,75.4989258 C85.0757757,75.5703784 84.9162007,75.6632654 84.7875861,75.7775895 C84.6589714,75.8919136 84.5637028,76.0252897 84.5017772,76.1777219 C84.4398516,76.3301541 84.4088893,76.482584 84.4088893,76.6350161 C84.4088893,76.8350833 84.4541419,77.0041852 84.5446485,77.1423269 C84.6351551,77.2804685 84.7566227,77.4019361 84.9090549,77.5067332 C85.061487,77.6115303 85.2353523,77.7044173 85.4306561,77.7853969 C85.6259598,77.8663764 85.8236423,77.9449731 86.0237095,78.0211892 L86.8239744,78.335579 C87.0907306,78.4403761 87.331284,78.5689888 87.5456418,78.7214209 C87.7599995,78.8738531 87.9338648,79.0620087 88.067243,79.2858935 C88.2006211,79.5097782 88.2673092,79.7884391 88.2673092,80.1218845 C88.2673092,80.3791137 88.2172931,80.6244306 88.1172595,80.8578423 C88.0172259,81.0912541 87.8671778,81.2960817 87.6671105,81.4723314 C87.4670433,81.6485811 87.2241082,81.7891024 86.9382979,81.8938995 C86.6524876,81.9986966 86.3238107,82.0510944 85.9522573,82.0510944 Z" id="Households" fill="#FFFFFF" fill-rule="nonzero"></path>
            <path d="M12.3344395,69.2074244 L12.3344395,67.5282972 L14.8709933,67.5282972 L14.8709933,60.0615402 L12.7810159,60.0615402 L12.7810159,58.7754003 C13.9063883,58.5610436 14.6923628,58.2752347 15.406885,57.8465214 L16.9431077,57.8465214 L16.9431077,67.5282972 L19.1759896,67.5282972 L19.1759896,69.2074244 L12.3344395,69.2074244 Z M20.8551167,69.2074244 L20.8551167,68.0105997 C24.0168775,64.9560173 25.9996766,62.9553551 25.9996766,61.2226388 C25.9996766,60.0258141 25.3387435,59.2577027 24.1240558,59.2577027 C23.2487661,59.2577027 22.5163809,59.8471836 21.909037,60.5259796 L20.7658015,59.3827441 C21.8018586,58.2752347 22.8379158,57.6321647 24.3920016,57.6321647 C26.5712943,57.6321647 27.9824757,59.00762 27.9824757,61.1154605 C27.9824757,63.1339857 26.1068549,65.2061001 23.85611,67.5818864 C24.4455908,67.5282972 25.1958391,67.456845 25.7495938,67.456845 L28.5362304,67.456845 L28.5362304,69.2074244 L20.8551167,69.2074244 Z M33.930873,69.421781 C31.7158542,69.421781 30.0724531,68.1356411 30.0724531,66.2957464 C30.0724531,64.8845651 31.0549211,63.9556862 32.1267044,63.3840684 L32.1267044,63.3126162 C31.2514148,62.6874093 30.5547556,61.8478457 30.5547556,60.651021 C30.5547556,58.8111264 32.0195261,57.6321647 33.9844622,57.6321647 C36.0208504,57.6321647 37.3248535,58.8647155 37.3248535,60.7046102 C37.3248535,61.8299827 36.538879,62.7767246 35.8064938,63.3126162 L35.8064938,63.3840684 C36.860414,63.9735493 37.7714298,64.8131129 37.7714298,66.3314725 C37.7714298,68.0820519 36.2352071,69.421781 33.930873,69.421781 Z M34.6811213,62.7945876 C35.2884652,62.1872438 35.6278632,61.5441738 35.6278632,60.8296516 C35.6278632,59.8293205 35.0026563,59.0969352 33.9487361,59.0969352 C33.0734464,59.0969352 32.3946503,59.668553 32.3946503,60.651021 C32.3946503,61.7942566 33.4128444,62.2944221 34.6811213,62.7945876 Z M33.9665991,67.9570105 C35.0562455,67.9570105 35.8422199,67.3139406 35.8422199,66.2600203 C35.8422199,65.0274695 34.6453952,64.5808931 33.1091725,63.9556862 C32.3946503,64.4737148 31.8766217,65.2061001 31.8766217,66.0813898 C31.8766217,67.2067622 32.8055005,67.9570105 33.9665991,67.9570105 Z M39.7899551,72.4585004 L39.3433787,71.3331279 C40.5044773,70.8865516 41.1654103,70.064851 41.1475472,69.1716983 L40.9867797,69.1716983 C40.2901206,69.1716983 39.6649137,68.7072588 39.6649137,67.9034214 C39.6649137,67.13531 40.2901206,66.6351445 41.0403689,66.6351445 C42.0049739,66.6351445 42.5765916,67.4211189 42.5765916,68.742985 C42.5765916,70.4935643 41.5583975,71.8511565 39.7899551,72.4585004 Z M47.9890973,69.421781 C45.631174,69.421781 44.1306774,67.3139406 44.1306774,63.4733837 C44.1306774,59.6328269 45.631174,57.6321647 47.9890973,57.6321647 C50.3470206,57.6321647 51.8475172,59.65069 51.8475172,63.4733837 C51.8475172,67.3139406 50.3470206,69.421781 47.9890973,69.421781 Z M47.9890973,67.8141061 C49.0966067,67.8141061 49.8825811,66.6887336 49.8825811,63.4733837 C49.8825811,60.2580338 49.0966067,59.2398397 47.9890973,59.2398397 C46.8994509,59.2398397 46.0956135,60.2580338 46.0956135,63.4733837 C46.0956135,66.6887336 46.8994509,67.8141061 47.9890973,67.8141061 Z M57.1528445,69.421781 C54.7949213,69.421781 53.2944246,67.3139406 53.2944246,63.4733837 C53.2944246,59.6328269 54.7949213,57.6321647 57.1528445,57.6321647 C59.5107678,57.6321647 61.0112644,59.65069 61.0112644,63.4733837 C61.0112644,67.3139406 59.5107678,69.421781 57.1528445,69.421781 Z M57.1528445,67.8141061 C58.2603539,67.8141061 59.0463284,66.6887336 59.0463284,63.4733837 C59.0463284,60.2580338 58.2603539,59.2398397 57.1528445,59.2398397 C56.0631982,59.2398397 55.2593607,60.2580338 55.2593607,63.4733837 C55.2593607,66.6887336 56.0631982,67.8141061 57.1528445,67.8141061 Z M66.3165918,69.421781 C63.9586685,69.421781 62.4581719,67.3139406 62.4581719,63.4733837 C62.4581719,59.6328269 63.9586685,57.6321647 66.3165918,57.6321647 C68.674515,57.6321647 70.1750116,59.65069 70.1750116,63.4733837 C70.1750116,67.3139406 68.674515,69.421781 66.3165918,69.421781 Z M66.3165918,67.8141061 C67.4241012,67.8141061 68.2100756,66.6887336 68.2100756,63.4733837 C68.2100756,60.2580338 67.4241012,59.2398397 66.3165918,59.2398397 C65.2269454,59.2398397 64.4231079,60.2580338 64.4231079,63.4733837 C64.4231079,66.6887336 65.2269454,67.8141061 66.3165918,67.8141061 Z M72.1935369,72.4585004 L71.7469605,71.3331279 C72.9080591,70.8865516 73.5689921,70.064851 73.551129,69.1716983 L73.3903615,69.1716983 C72.6937024,69.1716983 72.0684955,68.7072588 72.0684955,67.9034214 C72.0684955,67.13531 72.6937024,66.6351445 73.4439507,66.6351445 C74.4085557,66.6351445 74.9801734,67.4211189 74.9801734,68.742985 C74.9801734,70.4935643 73.9619793,71.8511565 72.1935369,72.4585004 Z M80.3926791,69.421781 C78.0347558,69.421781 76.5342592,67.3139406 76.5342592,63.4733837 C76.5342592,59.6328269 78.0347558,57.6321647 80.3926791,57.6321647 C82.7506024,57.6321647 84.251099,59.65069 84.251099,63.4733837 C84.251099,67.3139406 82.7506024,69.421781 80.3926791,69.421781 Z M80.3926791,67.8141061 C81.5001885,67.8141061 82.2861629,66.6887336 82.2861629,63.4733837 C82.2861629,60.2580338 81.5001885,59.2398397 80.3926791,59.2398397 C79.3030328,59.2398397 78.4991953,60.2580338 78.4991953,63.4733837 C78.4991953,66.6887336 79.3030328,67.8141061 80.3926791,67.8141061 Z M89.5564263,69.421781 C87.1985031,69.421781 85.6980064,67.3139406 85.6980064,63.4733837 C85.6980064,59.6328269 87.1985031,57.6321647 89.5564263,57.6321647 C91.9143496,57.6321647 93.4148462,59.65069 93.4148462,63.4733837 C93.4148462,67.3139406 91.9143496,69.421781 89.5564263,69.421781 Z M89.5564263,67.8141061 C90.6639357,67.8141061 91.4499102,66.6887336 91.4499102,63.4733837 C91.4499102,60.2580338 90.6639357,59.2398397 89.5564263,59.2398397 C88.46678,59.2398397 87.6629425,60.2580338 87.6629425,63.4733837 C87.6629425,66.6887336 88.46678,67.8141061 89.5564263,67.8141061 Z M98.7201736,69.421781 C96.3622503,69.421781 94.8617537,67.3139406 94.8617537,63.4733837 C94.8617537,59.6328269 96.3622503,57.6321647 98.7201736,57.6321647 C101.078097,57.6321647 102.578593,59.65069 102.578593,63.4733837 C102.578593,67.3139406 101.078097,69.421781 98.7201736,69.421781 Z M98.7201736,67.8141061 C99.827683,67.8141061 100.613657,66.6887336 100.613657,63.4733837 C100.613657,60.2580338 99.827683,59.2398397 98.7201736,59.2398397 C97.6305272,59.2398397 96.8266897,60.2580338 96.8266897,63.4733837 C96.8266897,66.6887336 97.6305272,67.8141061 98.7201736,67.8141061 Z" id="128,000,000" fill="#FFFFFF" fill-rule="nonzero"></path>
            <path d="M129.364073,22.4745763 L129.364073,13.1286259 L131.236121,13.1286259 L132.893813,17.701568 C133.093879,18.2874762 133.293945,18.9162557 133.494011,19.5307448 L133.551173,19.5307448 C133.751239,18.9162557 133.937015,18.2874762 134.137081,17.701568 L135.751901,13.1286259 L137.63824,13.1286259 L137.63824,22.4745763 L136.109163,22.4745763 L136.109163,18.2017335 C136.109163,17.3300164 136.237777,16.0867478 136.323519,15.2293212 L136.266357,15.2293212 L135.508964,17.4014686 L133.979886,21.6028592 L132.993846,21.6028592 L131.450478,17.4014686 L130.707375,15.2293212 L130.650213,15.2293212 C130.721665,16.0867478 130.86457,17.3300164 130.86457,18.2017335 L130.86457,22.4745763 L129.364073,22.4745763 Z M142.868543,22.6460616 C140.925042,22.6460616 139.410255,21.2884694 139.410255,18.9734175 C139.410255,16.6869464 140.996494,15.2864829 142.639895,15.2864829 C144.540524,15.2864829 145.540856,16.6583656 145.540856,18.6161564 C145.540856,18.9305462 145.512275,19.2449359 145.469403,19.4164213 L141.010785,19.4164213 C141.153689,20.6596899 141.953954,21.3742121 143.082899,21.3742121 C143.683098,21.3742121 144.197554,21.1884363 144.71201,20.8597561 L145.269337,21.8886681 C144.597686,22.3316718 143.75455,22.6460616 142.868543,22.6460616 Z M140.996494,18.3017666 L144.111811,18.3017666 C144.111811,17.2156929 143.640227,16.5583324 142.682767,16.5583324 C141.853921,16.5583324 141.139399,17.1728215 140.996494,18.3017666 Z M149.570761,22.6460616 C147.813036,22.6460616 146.684091,21.2884694 146.684091,18.9734175 C146.684091,16.6869464 148.127426,15.2864829 149.656503,15.2864829 C150.456768,15.2864829 150.956934,15.5865823 151.499971,16.0581669 L151.442809,14.9292218 L151.442809,12.3855228 L153.08621,12.3855228 L153.08621,22.4745763 L151.728618,22.4745763 L151.614294,21.7171827 L151.557133,21.7171827 C151.042677,22.2316387 150.328154,22.6460616 149.570761,22.6460616 Z M149.970893,21.2884694 C150.51393,21.2884694 150.971224,21.0455319 151.442809,20.502495 L151.442809,17.2299833 C150.956934,16.80127 150.485349,16.6440751 150.013765,16.6440751 C149.113467,16.6440751 148.384654,17.4872113 148.384654,18.959127 C148.384654,20.4739141 148.956272,21.2884694 149.970893,21.2884694 Z M155.172615,22.4745763 L155.172615,15.4579683 L156.816016,15.4579683 L156.816016,22.4745763 L155.172615,22.4745763 Z M156.001461,14.2289901 C155.415552,14.2289901 154.986839,13.8431481 154.986839,13.3001112 C154.986839,12.7427839 155.415552,12.3569419 156.001461,12.3569419 C156.587369,12.3569419 157.016082,12.7427839 157.016082,13.3001112 C157.016082,13.8431481 156.587369,14.2289901 156.001461,14.2289901 Z M160.617274,22.6460616 C159.388296,22.6460616 158.54516,21.8172158 158.54516,20.5882377 C158.54516,19.087741 159.788428,18.3017666 162.675098,17.9873769 C162.646517,17.2442738 162.346418,16.6154942 161.388958,16.6154942 C160.703017,16.6154942 160.045656,16.929884 159.416877,17.3014355 L158.816678,16.2010713 C159.588362,15.7151963 160.588693,15.2864829 161.703348,15.2864829 C163.446782,15.2864829 164.318499,16.3582662 164.318499,18.3160571 L164.318499,22.4745763 L162.960907,22.4745763 L162.846583,21.7028923 L162.789422,21.7028923 C162.160642,22.2316387 161.44612,22.6460616 160.617274,22.6460616 Z M161.14602,21.3599216 C161.717638,21.3599216 162.146352,21.0741128 162.675098,20.5882377 L162.675098,19.0162888 C160.760178,19.2592264 160.131399,19.7593919 160.131399,20.4596237 C160.131399,21.0884032 160.560112,21.3599216 161.14602,21.3599216 Z M166.29058,22.4745763 L166.29058,15.4579683 L167.648172,15.4579683 L167.762496,16.4011376 L167.819658,16.4011376 C168.448437,15.7866485 169.16296,15.2864829 170.120419,15.2864829 C171.620916,15.2864829 172.278276,16.3011045 172.278276,18.0731195 L172.278276,22.4745763 L170.634875,22.4745763 L170.634875,18.2874762 C170.634875,17.1299502 170.306195,16.7012369 169.534511,16.7012369 C168.920022,16.7012369 168.51989,17.0013362 167.933981,17.572954 L167.933981,22.4745763 L166.29058,22.4745763 Z M177.294222,22.4745763 L177.294222,13.1286259 L178.951914,13.1286259 L178.951914,16.8870127 L182.738881,16.8870127 L182.738881,13.1286259 L184.396573,13.1286259 L184.396573,22.4745763 L182.738881,22.4745763 L182.738881,18.3303475 L178.951914,18.3303475 L178.951914,22.4745763 L177.294222,22.4745763 Z M189.498261,22.6460616 C187.754827,22.6460616 186.168588,21.3027599 186.168588,18.9734175 C186.168588,16.6297847 187.754827,15.2864829 189.498261,15.2864829 C191.255986,15.2864829 192.842225,16.6297847 192.842225,18.9734175 C192.842225,21.3027599 191.255986,22.6460616 189.498261,22.6460616 Z M189.498261,21.3027599 C190.527173,21.3027599 191.155953,20.373881 191.155953,18.9734175 C191.155953,17.5586635 190.527173,16.6297847 189.498261,16.6297847 C188.469349,16.6297847 187.85486,17.5586635 187.85486,18.9734175 C187.85486,20.373881 188.469349,21.3027599 189.498261,21.3027599 Z M194.471336,22.4745763 L194.471336,15.4579683 L195.828928,15.4579683 L195.943252,16.415428 L196.000413,16.415428 C196.586322,15.7866485 197.272263,15.2864829 198.14398,15.2864829 C199.172892,15.2864829 199.7588,15.7580676 200.08748,16.544042 C200.759131,15.8295198 201.459363,15.2864829 202.345371,15.2864829 C203.831577,15.2864829 204.517518,16.3011045 204.517518,18.0731195 L204.517518,22.4745763 L202.859827,22.4745763 L202.859827,18.2874762 C202.859827,17.1299502 202.516856,16.7012369 201.788043,16.7012369 C201.345039,16.7012369 200.859164,16.9870458 200.316127,17.572954 L200.316127,22.4745763 L198.672726,22.4745763 L198.672726,18.2874762 C198.672726,17.1299502 198.329756,16.7012369 197.586653,16.7012369 C197.157939,16.7012369 196.657774,16.9870458 196.114737,17.572954 L196.114737,22.4745763 L194.471336,22.4745763 Z M209.519173,22.6460616 C207.575673,22.6460616 206.060886,21.2884694 206.060886,18.9734175 C206.060886,16.6869464 207.647125,15.2864829 209.290526,15.2864829 C211.191155,15.2864829 212.191486,16.6583656 212.191486,18.6161564 C212.191486,18.9305462 212.162906,19.2449359 212.120034,19.4164213 L207.661416,19.4164213 C207.80432,20.6596899 208.604585,21.3742121 209.73353,21.3742121 C210.333729,21.3742121 210.848185,21.1884363 211.362641,20.8597561 L211.919968,21.8886681 C211.248317,22.3316718 210.405181,22.6460616 209.519173,22.6460616 Z M207.647125,18.3017666 L210.762442,18.3017666 C210.762442,17.2156929 210.290857,16.5583324 209.333398,16.5583324 C208.504552,16.5583324 207.79003,17.1728215 207.647125,18.3017666 Z M216.764429,22.4745763 L216.764429,13.1286259 L219.70826,13.1286259 C221.780374,13.1286259 223.323742,13.8431481 223.323742,16.0152956 C223.323742,18.08741 221.780374,19.0448697 219.765422,19.0448697 L218.42212,19.0448697 L218.42212,22.4745763 L216.764429,22.4745763 Z M218.42212,17.7158584 L219.636808,17.7158584 C221.022981,17.7158584 221.694632,17.1585311 221.694632,16.0152956 C221.694632,14.8434792 220.965819,14.4576372 219.579646,14.4576372 L218.42212,14.4576372 L218.42212,17.7158584 Z M224.938563,22.4745763 L224.938563,15.4579683 L226.296155,15.4579683 L226.410478,16.7012369 L226.46764,16.7012369 C226.967806,15.7866485 227.710909,15.2864829 228.454012,15.2864829 C228.811273,15.2864829 229.03992,15.3293543 229.254277,15.4293874 L228.968468,16.8584318 C228.72553,16.7869796 228.539754,16.7441082 228.239655,16.7441082 C227.682328,16.7441082 227.010677,17.1299502 226.581964,18.1874431 L226.581964,22.4745763 L224.938563,22.4745763 Z M230.268898,22.4745763 L230.268898,15.4579683 L231.912299,15.4579683 L231.912299,22.4745763 L230.268898,22.4745763 Z M231.097744,14.2289901 C230.511836,14.2289901 230.083122,13.8431481 230.083122,13.3001112 C230.083122,12.7427839 230.511836,12.3569419 231.097744,12.3569419 C231.683652,12.3569419 232.112365,12.7427839 232.112365,13.3001112 C232.112365,13.8431481 231.683652,14.2289901 231.097744,14.2289901 Z M236.942535,22.6460616 C235.027616,22.6460616 233.5557,21.3027599 233.5557,18.9734175 C233.5557,16.6297847 235.199101,15.2864829 237.071149,15.2864829 C237.971447,15.2864829 238.614517,15.6294536 239.128973,16.0724574 L238.328709,17.1442407 C237.957157,16.8155604 237.599896,16.6297847 237.156892,16.6297847 C236.027947,16.6297847 235.241973,17.5586635 235.241973,18.9734175 C235.241973,20.373881 236.013657,21.3027599 237.114021,21.3027599 C237.657058,21.3027599 238.157223,21.0312414 238.557356,20.7025612 L239.229007,21.788635 C238.571646,22.3602527 237.7428,22.6460616 236.942535,22.6460616 Z M243.273202,22.6460616 C241.329702,22.6460616 239.814915,21.2884694 239.814915,18.9734175 C239.814915,16.6869464 241.401154,15.2864829 243.044555,15.2864829 C244.945184,15.2864829 245.945515,16.6583656 245.945515,18.6161564 C245.945515,18.9305462 245.916934,19.2449359 245.874063,19.4164213 L241.415444,19.4164213 C241.558349,20.6596899 242.358614,21.3742121 243.487559,21.3742121 C244.087758,21.3742121 244.602213,21.1884363 245.116669,20.8597561 L245.673997,21.8886681 C245.002346,22.3316718 244.15921,22.6460616 243.273202,22.6460616 Z M241.401154,18.3017666 L244.516471,18.3017666 C244.516471,17.2156929 244.044886,16.5583324 243.087426,16.5583324 C242.258581,16.5583324 241.544058,17.1728215 241.401154,18.3017666 Z M129.221169,40.4745763 L129.221169,33.4579683 L130.86457,33.4579683 L130.86457,40.4745763 L129.221169,40.4745763 Z M130.050014,32.2289901 C129.464106,32.2289901 129.035393,31.8431481 129.035393,31.3001112 C129.035393,30.7427839 129.464106,30.3569419 130.050014,30.3569419 C130.635922,30.3569419 131.064636,30.7427839 131.064636,31.3001112 C131.064636,31.8431481 130.635922,32.2289901 130.050014,32.2289901 Z M132.965265,40.4745763 L132.965265,33.4579683 L134.322857,33.4579683 L134.437181,34.4011376 L134.494342,34.4011376 C135.123122,33.7866485 135.837644,33.2864829 136.795104,33.2864829 C138.2956,33.2864829 138.952961,34.3011045 138.952961,36.0731195 L138.952961,40.4745763 L137.30956,40.4745763 L137.30956,36.2874762 C137.30956,35.1299502 136.98088,34.7012369 136.209196,34.7012369 C135.594707,34.7012369 135.194574,35.0013362 134.608666,35.572954 L134.608666,40.4745763 L132.965265,40.4745763 Z M143.968907,40.4745763 L143.968907,31.1286259 L145.626598,31.1286259 L145.626598,34.8870127 L149.413566,34.8870127 L149.413566,31.1286259 L151.071257,31.1286259 L151.071257,40.4745763 L149.413566,40.4745763 L149.413566,36.3303475 L145.626598,36.3303475 L145.626598,40.4745763 L143.968907,40.4745763 Z M156.172946,40.6460616 C154.429512,40.6460616 152.843272,39.3027599 152.843272,36.9734175 C152.843272,34.6297847 154.429512,33.2864829 156.172946,33.2864829 C157.930671,33.2864829 159.51691,34.6297847 159.51691,36.9734175 C159.51691,39.3027599 157.930671,40.6460616 156.172946,40.6460616 Z M156.172946,39.3027599 C157.201858,39.3027599 157.830637,38.373881 157.830637,36.9734175 C157.830637,35.5586635 157.201858,34.6297847 156.172946,34.6297847 C155.144034,34.6297847 154.529545,35.5586635 154.529545,36.9734175 C154.529545,38.373881 155.144034,39.3027599 156.172946,39.3027599 Z M163.232425,40.6460616 C161.731929,40.6460616 161.074568,39.6314401 161.074568,37.859425 L161.074568,33.4579683 L162.717969,33.4579683 L162.717969,37.6450684 C162.717969,38.8025943 163.046649,39.2313076 163.804043,39.2313076 C164.418532,39.2313076 164.832955,38.9454988 165.361701,38.2595574 L165.361701,33.4579683 L167.005102,33.4579683 L167.005102,40.4745763 L165.661801,40.4745763 L165.533187,39.4456643 L165.490315,39.4456643 C164.875826,40.1744769 164.189885,40.6460616 163.232425,40.6460616 Z M171.049298,40.6460616 C170.091838,40.6460616 169.077217,40.2316387 168.391276,39.6743114 L169.16296,38.6168185 C169.791739,39.1026936 170.391938,39.402793 171.10646,39.402793 C171.863853,39.402793 172.221115,39.0455319 172.221115,38.5596568 C172.221115,37.9737486 171.463721,37.7165206 170.720618,37.4307117 C169.791739,37.087741 168.748537,36.5589946 168.748537,35.3871782 C168.748537,34.1582 169.734577,33.2864829 171.306526,33.2864829 C172.278276,33.2864829 173.064251,33.6866154 173.635869,34.1296191 L172.878475,35.1299502 C172.3926,34.7726891 171.892434,34.5297516 171.335107,34.5297516 C170.634875,34.5297516 170.306195,34.8584318 170.306195,35.3014355 C170.306195,35.8587629 171.006427,36.0731195 171.76382,36.344638 C172.72128,36.7018991 173.778773,37.1591933 173.778773,38.4739141 C173.778773,39.6743114 172.821313,40.6460616 171.049298,40.6460616 Z M177.437127,40.6460616 C175.808016,40.6460616 175.207817,39.6171496 175.207817,38.1023626 L175.207817,34.7583987 L174.207486,34.7583987 L174.207486,33.5294205 L175.29356,33.4579683 L175.493626,31.5430488 L176.865509,31.5430488 L176.865509,33.4579683 L178.651814,33.4579683 L178.651814,34.7583987 L176.865509,34.7583987 L176.865509,38.1023626 C176.865509,38.9312083 177.179899,39.3313408 177.851549,39.3313408 C178.094487,39.3313408 178.380296,39.2598885 178.580362,39.1741459 L178.866171,40.3888336 C178.480329,40.5174476 177.994454,40.6460616 177.437127,40.6460616 Z M182.767462,40.6460616 C181.024028,40.6460616 179.437789,39.3027599 179.437789,36.9734175 C179.437789,34.6297847 181.024028,33.2864829 182.767462,33.2864829 C184.525187,33.2864829 186.111426,34.6297847 186.111426,36.9734175 C186.111426,39.3027599 184.525187,40.6460616 182.767462,40.6460616 Z M182.767462,39.3027599 C183.796374,39.3027599 184.425154,38.373881 184.425154,36.9734175 C184.425154,35.5586635 183.796374,34.6297847 182.767462,34.6297847 C181.73855,34.6297847 181.124061,35.5586635 181.124061,36.9734175 C181.124061,38.373881 181.73855,39.3027599 182.767462,39.3027599 Z M187.740537,40.4745763 L187.740537,33.4579683 L189.098129,33.4579683 L189.212452,34.4011376 L189.269614,34.4011376 C189.898394,33.7866485 190.612916,33.2864829 191.570376,33.2864829 C193.070872,33.2864829 193.728233,34.3011045 193.728233,36.0731195 L193.728233,40.4745763 L192.084832,40.4745763 L192.084832,36.2874762 C192.084832,35.1299502 191.756152,34.7012369 190.984468,34.7012369 C190.369978,34.7012369 189.969846,35.0013362 189.383938,35.572954 L189.383938,40.4745763 L187.740537,40.4745763 Z M195.728895,43.0754371 L195.371634,42.1751391 C196.300513,41.817878 196.829259,41.1605176 196.814969,40.4459954 L196.686355,40.4459954 C196.129027,40.4459954 195.628862,40.0744438 195.628862,39.4313739 C195.628862,38.8168848 196.129027,38.4167523 196.729226,38.4167523 C197.50091,38.4167523 197.958204,39.0455319 197.958204,40.1030247 C197.958204,41.5034882 197.143649,42.589562 195.728895,43.0754371 Z M204.560389,40.4745763 L204.560389,32.5290894 L201.859495,32.5290894 L201.859495,31.1286259 L208.918975,31.1286259 L208.918975,32.5290894 L206.218081,32.5290894 L206.218081,40.4745763 L204.560389,40.4745763 Z M209.190493,40.4745763 L211.848516,35.6586966 L209.361979,31.1286259 L211.205446,31.1286259 L212.234358,33.2007403 C212.463005,33.6294536 212.663071,34.0724574 212.94888,34.6297847 L213.006042,34.6297847 C213.234689,34.0724574 213.420465,33.6294536 213.634821,33.2007403 L214.620862,31.1286259 L216.378587,31.1286259 L213.892049,35.7301489 L216.550072,40.4745763 L214.706605,40.4745763 L213.563369,38.2738479 C213.320432,37.7879728 213.091784,37.3163881 212.805976,36.7447704 L212.748814,36.7447704 C212.505876,37.3163881 212.29152,37.7879728 212.062872,38.2738479 L210.948218,40.4745763 L209.190493,40.4745763 Z" id="MedianHomePriceinHouston,TX" fill="#555555" fill-rule="nonzero"></path>
            <path d="M134.852451,74.6477748 L134.852451,71.6705989 C133.036374,71.4919684 131.041666,70.6583592 129.701937,69.4079453 L131.250069,67.0857482 C132.649341,68.1873032 134.048614,68.9315972 135.656289,68.9315972 C137.591453,68.9315972 138.544149,67.9789009 138.544149,66.371226 C138.544149,62.4413538 130.446231,63.0070173 130.446231,57.4099267 C130.446231,54.6411532 132.172993,52.6762171 134.852451,52.199869 L134.852451,49.1631496 L137.234192,49.1631496 L137.234192,52.1403255 C139.139585,52.3784995 140.449542,53.301424 141.551097,54.4625226 L139.794563,56.4572304 C138.693008,55.4449906 137.770084,54.8793272 136.341039,54.8793272 C134.733364,54.8793272 133.750896,55.7129365 133.750896,57.2610679 C133.750896,60.8336789 141.848815,60.1191567 141.848815,66.1330519 C141.848815,68.9613689 140.181596,71.045392 137.234192,71.5812837 L137.234192,74.6477748 L134.852451,74.6477748 Z M145.83823,71.3728814 L145.83823,68.5743361 L150.06582,68.5743361 L150.06582,56.1297411 L146.582524,56.1297411 L146.582524,53.9861745 C148.458145,53.6289134 149.768102,53.1525652 150.958973,52.438043 L153.519344,52.438043 L153.519344,68.5743361 L157.240814,68.5743361 L157.240814,71.3728814 L145.83823,71.3728814 Z M163.909688,71.3728814 C164.237177,64.644464 165.517362,60.4168743 169.179289,55.3259036 L160.217989,55.3259036 L160.217989,52.438043 L172.93053,52.438043 L172.93053,54.5220661 C168.494538,60.0298414 167.720473,63.9894853 167.392983,71.3728814 L163.909688,71.3728814 Z M181.326166,71.7301425 C178.259675,71.7301425 176.235195,70.5392721 174.895466,69.0506842 L176.532913,66.8475741 C177.66424,68.0086727 179.123056,68.9315972 181.028449,68.9315972 C183.0827,68.9315972 184.511744,67.8598139 184.511744,66.0735084 C184.511744,64.1085723 183.26133,62.8581585 178.944425,62.8581585 L178.944425,60.3573308 C182.665895,60.3573308 183.886537,59.0771452 183.886537,57.3206114 C183.886537,55.7427082 182.814754,54.7900119 181.087992,54.7900119 C179.599404,54.7900119 178.438306,55.5045341 177.277207,56.5763174 L175.520673,54.4625226 C177.128348,53.0334782 178.944425,52.0807819 181.207079,52.0807819 C184.839234,52.0807819 187.340061,53.8670874 187.340061,57.0824373 C187.340061,59.1962322 186.089647,60.6252766 184.035396,61.4291141 L184.035396,61.5482011 C186.268278,62.1436363 187.965268,63.7513112 187.965268,66.2521389 C187.965268,69.7056629 184.958321,71.7301425 181.326166,71.7301425 Z M191.597423,76.7913414 L190.853129,74.9157206 C192.788293,74.1714266 193.889848,72.8019258 193.860076,71.3133378 L193.592131,71.3133378 C192.431032,71.3133378 191.38902,70.5392721 191.38902,69.199543 C191.38902,67.9193574 192.431032,67.0857482 193.681446,67.0857482 C195.289121,67.0857482 196.241817,68.3957055 196.241817,70.5988156 C196.241817,73.516448 194.544827,75.7791016 191.597423,76.7913414 Z M205.828323,71.7301425 C202.106853,71.7301425 198.951047,68.8422819 198.951047,62.4711256 C198.951047,55.1175013 202.523658,52.0807819 206.393987,52.0807819 C208.686412,52.0807819 210.323859,53.0334782 211.455186,54.2243485 L209.609337,56.3083716 C208.924586,55.4747624 207.733716,54.8793272 206.602389,54.8793272 C204.220648,54.8793272 202.285484,56.635861 202.136625,61.8756904 C203.23818,60.4764178 204.875627,59.6428086 206.245128,59.6428086 C209.520021,59.6428086 211.782675,61.5482011 211.782675,65.507845 C211.782675,69.2888583 209.073445,71.7301425 205.828323,71.7301425 Z M205.76878,69.1102277 C207.346683,69.1102277 208.597097,67.8300421 208.597097,65.507845 C208.597097,63.2749631 207.495542,62.1436363 205.619921,62.1436363 C204.548138,62.1436363 203.297724,62.7390714 202.225941,64.3169746 C202.583202,67.6811833 203.922931,69.1102277 205.76878,69.1102277 Z M220.535572,71.7301425 C216.6057,71.7301425 214.104872,68.217075 214.104872,61.8161469 C214.104872,55.4152189 216.6057,52.0807819 220.535572,52.0807819 C224.465444,52.0807819 226.966272,55.4449906 226.966272,61.8161469 C226.966272,68.217075 224.465444,71.7301425 220.535572,71.7301425 Z M220.535572,69.0506842 C222.381421,69.0506842 223.691378,67.1750634 223.691378,61.8161469 C223.691378,56.4572304 222.381421,54.7602402 220.535572,54.7602402 C218.719495,54.7602402 217.379766,56.4572304 217.379766,61.8161469 C217.379766,67.1750634 218.719495,69.0506842 220.535572,69.0506842 Z M235.808484,71.7301425 C231.878612,71.7301425 229.377784,68.217075 229.377784,61.8161469 C229.377784,55.4152189 231.878612,52.0807819 235.808484,52.0807819 C239.738356,52.0807819 242.239184,55.4449906 242.239184,61.8161469 C242.239184,68.217075 239.738356,71.7301425 235.808484,71.7301425 Z M235.808484,69.0506842 C237.654333,69.0506842 238.96429,67.1750634 238.96429,61.8161469 C238.96429,56.4572304 237.654333,54.7602402 235.808484,54.7602402 C233.992407,54.7602402 232.652678,56.4572304 232.652678,61.8161469 C232.652678,67.1750634 233.992407,69.0506842 235.808484,69.0506842 Z" id="$173,600" fill="#4A0072" fill-rule="nonzero"></path>
        </g>
    </g>
</svg>