<?xml version="1.0" encoding="UTF-8"?>
<svg width="250px" height="100px" viewBox="0 0 250 100" version="1.1" xmlns="http://www.w3.org/2000/svg" xmlns:xlink="http://www.w3.org/1999/xlink">
    <!-- Generator: Sketch 53.2 (72643) - https://sketchapp.com -->
    <title>spending-2-outline</title>
    <desc>Created with Sketch.</desc>
    <g id="spending-2-outline" stroke="none" stroke-width="1" fill="none" fill-rule="evenodd">
        <g id="Group-14" transform="translate(0.000000, 13.000000)">
            <path d="M150.05985,53.68501 L150.05985,44.7864969 L152.862745,44.7864969 C154.835657,44.7864969 156.305137,45.4668113 156.305137,47.5349673 C156.305137,49.5078792 154.835657,50.4195006 152.917171,50.4195006 L151.638179,50.4195006 L151.638179,53.68501 L150.05985,53.68501 Z M151.638179,49.1541157 L152.794714,49.1541157 C154.114524,49.1541157 154.75402,48.6234704 154.75402,47.5349673 C154.75402,46.4192516 154.060099,46.0518818 152.740289,46.0518818 L151.638179,46.0518818 L151.638179,49.1541157 Z M160.40063,53.8482854 C158.550174,53.8482854 157.107908,52.555688 157.107908,50.3514691 C157.107908,48.1744629 158.618206,46.8410465 160.182929,46.8410465 C161.992565,46.8410465 162.945006,48.1472503 162.945006,50.0113119 C162.945006,50.3106503 162.917793,50.6099886 162.876974,50.7732641 L158.631812,50.7732641 C158.767875,51.9570112 159.529827,52.6373257 160.604724,52.6373257 C161.176188,52.6373257 161.666015,52.4604439 162.155841,52.1474993 L162.686486,53.1271521 C162.046991,53.5489471 161.24422,53.8482854 160.40063,53.8482854 Z M158.618206,49.7119735 L161.584377,49.7119735 C161.584377,48.6778956 161.135369,48.0520063 160.223748,48.0520063 C159.434583,48.0520063 158.754269,48.6370767 158.618206,49.7119735 Z M164.441697,53.68501 L164.441697,47.004322 L165.734295,47.004322 L165.843145,48.1880692 L165.89757,48.1880692 C166.373791,47.3172666 167.081318,46.8410465 167.788845,46.8410465 C168.129002,46.8410465 168.346702,46.8818654 168.550797,46.9771094 L168.278671,48.3377383 C168.047364,48.2697069 167.870482,48.228888 167.58475,48.228888 C167.054105,48.228888 166.414609,48.5962578 166.006421,49.6031232 L166.006421,53.68501 L164.441697,53.68501 Z M172.374164,53.68501 L172.374164,44.7864969 L173.952494,44.7864969 L173.952494,53.68501 L172.374164,53.68501 Z M176.075075,53.68501 L176.075075,47.004322 L177.367672,47.004322 L177.476522,47.9023371 L177.530948,47.9023371 C178.129624,47.3172666 178.809939,46.8410465 179.72156,46.8410465 C181.150221,46.8410465 181.77611,47.8070931 181.77611,49.4942729 L181.77611,53.68501 L180.211387,53.68501 L180.211387,49.6983672 C180.211387,48.5962578 179.898442,48.1880692 179.163702,48.1880692 C178.578632,48.1880692 178.197656,48.4738012 177.639798,49.0180528 L177.639798,53.68501 L176.075075,53.68501 Z M186.034878,53.8482854 C184.361305,53.8482854 183.286408,52.555688 183.286408,50.3514691 C183.286408,48.1744629 184.660643,46.8410465 186.116516,46.8410465 C186.878468,46.8410465 187.354688,47.1267786 187.871727,47.5757861 L187.817302,46.5008893 L187.817302,44.0789698 L189.382025,44.0789698 L189.382025,53.68501 L188.089428,53.68501 L187.980578,52.9638766 L187.926153,52.9638766 C187.436326,53.453703 186.756012,53.8482854 186.034878,53.8482854 Z M186.415854,52.555688 C186.932893,52.555688 187.368295,52.324381 187.817302,51.8073421 L187.817302,48.6915018 C187.354688,48.2833132 186.905681,48.133644 186.456673,48.133644 C185.599477,48.133644 184.905556,48.9364151 184.905556,50.3378628 C184.905556,51.7801295 185.449808,52.555688 186.415854,52.555688 Z M191.368544,53.68501 L191.368544,47.004322 L192.933267,47.004322 L192.933267,53.68501 L191.368544,53.68501 Z M192.157708,45.8341811 C191.599851,45.8341811 191.191662,45.4668113 191.191662,44.9497723 C191.191662,44.4191271 191.599851,44.0517573 192.157708,44.0517573 C192.715566,44.0517573 193.123755,44.4191271 193.123755,44.9497723 C193.123755,45.4668113 192.715566,45.8341811 192.157708,45.8341811 Z M196.430083,53.68501 L194.103408,47.004322 L195.695344,47.004322 L196.756634,50.4739257 C196.933516,51.1270276 197.13761,51.8073421 197.314492,52.4876565 L197.368917,52.4876565 C197.559405,51.8073421 197.749893,51.1270276 197.940381,50.4739257 L199.001672,47.004322 L200.51197,47.004322 L198.23972,53.68501 L196.430083,53.68501 Z M201.668505,53.68501 L201.668505,47.004322 L203.233228,47.004322 L203.233228,53.68501 L201.668505,53.68501 Z M202.457669,45.8341811 C201.899811,45.8341811 201.491623,45.4668113 201.491623,44.9497723 C201.491623,44.4191271 201.899811,44.0517573 202.457669,44.0517573 C203.015527,44.0517573 203.423716,44.4191271 203.423716,44.9497723 C203.423716,45.4668113 203.015527,45.8341811 202.457669,45.8341811 Z M207.573634,53.8482854 C205.90006,53.8482854 204.825164,52.555688 204.825164,50.3514691 C204.825164,48.1744629 206.199399,46.8410465 207.655272,46.8410465 C208.417224,46.8410465 208.893444,47.1267786 209.410483,47.5757861 L209.356058,46.5008893 L209.356058,44.0789698 L210.920781,44.0789698 L210.920781,53.68501 L209.628184,53.68501 L209.519333,52.9638766 L209.464908,52.9638766 C208.975082,53.453703 208.294767,53.8482854 207.573634,53.8482854 Z M207.95461,52.555688 C208.471649,52.555688 208.90705,52.324381 209.356058,51.8073421 L209.356058,48.6915018 C208.893444,48.2833132 208.444437,48.133644 207.995429,48.133644 C207.138233,48.133644 206.444312,48.9364151 206.444312,50.3378628 C206.444312,51.7801295 206.988564,52.555688 207.95461,52.555688 Z M214.893818,53.8482854 C213.465157,53.8482854 212.839268,52.8822389 212.839268,51.195059 L212.839268,47.004322 L214.403991,47.004322 L214.403991,50.9909647 C214.403991,52.0930741 214.716936,52.5012628 215.438069,52.5012628 C216.02314,52.5012628 216.417722,52.229137 216.921155,51.5760351 L216.921155,47.004322 L218.485878,47.004322 L218.485878,53.68501 L217.206887,53.68501 L217.08443,52.7053571 L217.043611,52.7053571 C216.458541,53.3992779 215.805439,53.8482854 214.893818,53.8482854 Z M222.091545,53.8482854 C220.921404,53.8482854 220.118633,53.0591207 220.118633,51.8889798 C220.118633,50.4603194 221.30238,49.7119735 224.05085,49.4126352 C224.023638,48.7051081 223.737906,48.1064314 222.826284,48.1064314 C222.173182,48.1064314 221.547293,48.4057698 220.948616,48.7595333 L220.377152,47.711849 C221.111892,47.2492352 222.064332,46.8410465 223.125623,46.8410465 C224.78559,46.8410465 225.615573,47.8615182 225.615573,49.7255798 L225.615573,53.68501 L224.322976,53.68501 L224.214126,52.9502703 L224.1597,52.9502703 C223.561024,53.453703 222.880709,53.8482854 222.091545,53.8482854 Z M222.594977,52.6237194 C223.139229,52.6237194 223.547417,52.3515936 224.05085,51.8889798 L224.05085,50.392288 C222.227607,50.6235949 221.628931,51.099815 221.628931,51.7665232 C221.628931,52.3651999 222.037119,52.6237194 222.594977,52.6237194 Z M229.017146,53.8482854 C227.90143,53.8482854 227.493241,53.1271521 227.493241,51.9706175 L227.493241,44.0789698 L229.057965,44.0789698 L229.057965,52.0522553 C229.057965,52.4332314 229.234846,52.5692943 229.398122,52.5692943 C229.466153,52.5692943 229.520578,52.5692943 229.643035,52.5420817 L229.847129,53.7122225 C229.656641,53.7938603 229.384516,53.8482854 229.017146,53.8482854 Z" id="PerIndividual" fill="#555555" fill-rule="nonzero"></path>
            <path d="M155.018775,39.0551099 L155.018775,36.2204663 C153.289643,36.0503877 151.390432,35.2566875 150.114842,34.0661372 L151.588857,31.8551153 C152.921139,32.9039334 154.253422,33.6125943 155.784129,33.6125943 C157.626647,33.6125943 158.533733,32.7055083 158.533733,31.1748008 C158.533733,27.4330713 150.823503,27.9716536 150.823503,22.6425237 C150.823503,20.0063051 152.467596,18.1354404 155.018775,17.6818974 L155.018775,14.790561 L157.28649,14.790561 L157.28649,17.6252045 C159.100662,17.851976 160.347905,18.7307155 161.396723,19.8362265 L159.724284,21.7354377 C158.675466,20.7716589 157.796726,20.2330766 156.436097,20.2330766 C154.90539,20.2330766 153.969957,21.0267768 153.969957,22.5007915 C153.969957,25.9023638 161.680188,25.2220493 161.680188,30.9480293 C161.680188,33.6409407 160.092787,35.6251912 157.28649,36.135427 L157.28649,39.0551099 L155.018775,39.0551099 Z M165.47861,35.937002 L165.47861,33.272437 L169.503804,33.272437 L169.503804,21.4236269 L166.187271,21.4236269 L166.187271,19.3826836 C167.973096,19.0425263 169.22034,18.5889834 170.354197,17.9086689 L172.791991,17.9086689 L172.791991,33.272437 L176.335295,33.272437 L176.335295,35.937002 L165.47861,35.937002 Z M178.99986,35.937002 L178.99986,34.0377908 C184.017179,29.1905503 187.163633,26.0157495 187.163633,23.2661452 C187.163633,21.366934 186.114815,20.1480373 184.187258,20.1480373 C182.798282,20.1480373 181.636078,21.0834697 180.6723,22.1606342 L178.858128,20.3464624 C180.502221,18.5889834 182.146314,17.5685117 184.612454,17.5685117 C188.070719,17.5685117 190.310088,19.7511872 190.310088,23.0960666 C190.310088,26.2992139 187.333712,29.5874004 183.762061,33.3574763 C184.697494,33.272437 185.888044,33.1590513 186.766783,33.1590513 L191.188827,33.1590513 L191.188827,35.937002 L178.99986,35.937002 Z M194.50536,41.0960533 L193.796699,39.3102278 C195.639218,38.6015669 196.688036,37.2976309 196.659689,35.8803091 L196.404571,35.8803091 C195.29906,35.8803091 194.306935,35.1433018 194.306935,33.8677122 C194.306935,32.6488155 195.29906,31.8551153 196.489611,31.8551153 C198.020318,31.8551153 198.927404,33.1023584 198.927404,35.1999947 C198.927404,37.9779454 197.311657,40.1322745 194.50536,41.0960533 Z M207.091178,36.2771592 C204.171495,36.2771592 202.272284,35.1149554 200.940001,33.7826729 L202.442362,31.6850366 C203.519527,32.7055083 204.851809,33.6125943 206.665981,33.6125943 C208.678578,33.6125943 210.152593,32.3370047 210.152593,30.1543291 C210.152593,28 208.82031,26.7811033 206.83606,26.7811033 C205.673856,26.7811033 205.021888,27.0929141 203.944723,27.801575 L202.385669,26.8094497 L202.924252,17.9086689 L212.56204,17.9086689 L212.56204,20.6582732 L205.758895,20.6582732 L205.390392,25.0236243 C206.155745,24.6551206 206.83606,24.4283491 207.771492,24.4283491 C210.861254,24.4283491 213.440779,26.1858281 213.440779,30.0692898 C213.440779,34.0094444 210.407711,36.2771592 207.091178,36.2771592 Z M222.058096,36.2771592 C218.316366,36.2771592 215.935266,32.9322798 215.935266,26.8377961 C215.935266,20.7433125 218.316366,17.5685117 222.058096,17.5685117 C225.799825,17.5685117 228.180926,20.7716589 228.180926,26.8377961 C228.180926,32.9322798 225.799825,36.2771592 222.058096,36.2771592 Z M222.058096,33.72598 C223.815575,33.72598 225.062818,31.9401546 225.062818,26.8377961 C225.062818,21.7354377 223.815575,20.1196909 222.058096,20.1196909 C220.328963,20.1196909 219.053374,21.7354377 219.053374,26.8377961 C219.053374,31.9401546 220.328963,33.72598 222.058096,33.72598 Z M236.599817,36.2771592 C232.858088,36.2771592 230.476987,32.9322798 230.476987,26.8377961 C230.476987,20.7433125 232.858088,17.5685117 236.599817,17.5685117 C240.341547,17.5685117 242.722647,20.7716589 242.722647,26.8377961 C242.722647,32.9322798 240.341547,36.2771592 236.599817,36.2771592 Z M236.599817,33.72598 C238.357296,33.72598 239.604539,31.9401546 239.604539,26.8377961 C239.604539,21.7354377 238.357296,20.1196909 236.599817,20.1196909 C234.870685,20.1196909 233.595095,21.7354377 233.595095,26.8377961 C233.595095,31.9401546 234.870685,33.72598 236.599817,33.72598 Z" id="$12,500" fill="#00766C" fill-rule="nonzero"></path>
            <g id="Group-29-Copy" transform="translate(11.338574, 0.000000)">
                <path d="M11.5600166,0.566815328 C15.6078876,0.566815328 18.8881372,3.84819872 18.8881372,7.89493588 C18.8881372,11.9428069 15.6078876,15.2241903 11.5600166,15.2241903 C7.51214561,15.2241903 4.23189608,11.9428069 4.23189608,7.89493588 C4.23189608,3.84819872 7.51214561,0.566815328 11.5600166,0.566815328 M17.0569574,17.0565039 L15.7552891,17.0565039 C13.155354,18.2527235 10.0769311,18.3037471 7.36474415,17.0565039 L6.06307582,17.0565039 C3.02773949,17.0565039 0.567268871,19.5169745 0.567268871,22.5534447 L0.567268871,38.1258426 C0.567268871,39.6440777 1.79750418,40.874313 3.31573928,40.874313 L5.14691902,40.874313 L5.14691902,56.4489786 C5.14691902,57.9660799 6.37828819,59.1963152 7.89538942,59.1963152 L15.2246438,59.1963152 C16.7417451,59.1963152 17.9731142,57.9660799 17.9731142,56.4489786 L17.9731142,40.874313 L19.804294,40.874313 C21.3225291,40.874313 22.5527644,39.6440777 22.5527644,38.1258426 L22.5527644,22.5534447 C22.5527644,19.5169745 20.0922938,17.0565039 17.0569574,17.0565039" id="Fill-1" fill="#00766C"></path>
                <path d="M11.5600166,0.566815328 C15.6078876,0.566815328 18.8881372,3.84819872 18.8881372,7.89493588 C18.8881372,11.9428069 15.6078876,15.2241903 11.5600166,15.2241903 C7.51214561,15.2241903 4.23189608,11.9428069 4.23189608,7.89493588 C4.23189608,3.84819872 7.51214561,0.566815328 11.5600166,0.566815328 Z M17.0569574,17.0565039 L15.7552891,17.0565039 C13.155354,18.2527235 10.0769311,18.3037471 7.36474415,17.0565039 L6.06307582,17.0565039 C3.02773949,17.0565039 0.567268871,19.5169745 0.567268871,22.5534447 L0.567268871,38.1258426 C0.567268871,39.6440777 1.79750418,40.874313 3.31573928,40.874313 L5.14691902,40.874313 L5.14691902,56.4489786 C5.14691902,57.9660799 6.37828819,59.1963152 7.89538942,59.1963152 L15.2246438,59.1963152 C16.7417451,59.1963152 17.9731142,57.9660799 17.9731142,56.4489786 L17.9731142,40.874313 L19.804294,40.874313 C21.3225291,40.874313 22.5527644,39.6440777 22.5527644,38.1258426 L22.5527644,22.5534447 C22.5527644,19.5169745 20.0922938,17.0565039 17.0569574,17.0565039 Z" id="Stroke-3" stroke="#FFFFFF" stroke-width="1.13385743"></path>
                <path d="M77.5186575,0.566815328 C81.5653947,0.566815328 84.8467781,3.84819872 84.8467781,7.89493588 C84.8467781,11.9428069 81.5653947,15.2241903 77.5186575,15.2241903 C73.4707865,15.2241903 70.1894031,11.9428069 70.1894031,7.89493588 C70.1894031,3.84819872 73.4707865,0.566815328 77.5186575,0.566815328 M83.0155983,17.0565039 L81.71393,17.0565039 C79.1139949,18.2527235 76.035572,18.3037471 73.3222512,17.0565039 L72.0217167,17.0565039 C68.9863804,17.0565039 66.5259098,19.5169745 66.5259098,22.5534447 L66.5259098,38.1258426 C66.5259098,39.6440777 67.7561451,40.874313 69.2743802,40.874313 L71.1055599,40.874313 L71.1055599,56.4489786 C71.1055599,57.9660799 72.3369291,59.1963152 73.8540303,59.1963152 L81.1821509,59.1963152 C82.700386,59.1963152 83.9306213,57.9660799 83.9306213,56.4489786 L83.9306213,40.874313 L85.7629349,40.874313 C87.28117,40.874313 88.5114053,39.6440777 88.5114053,38.1258426 L88.5114053,22.5534447 C88.5114053,19.5169745 86.0509347,17.0565039 83.0155983,17.0565039" id="Fill-5" fill="#00766C"></path>
                <path d="M77.5186575,0.566815328 C81.5653947,0.566815328 84.8467781,3.84819872 84.8467781,7.89493588 C84.8467781,11.9428069 81.5653947,15.2241903 77.5186575,15.2241903 C73.4707865,15.2241903 70.1894031,11.9428069 70.1894031,7.89493588 C70.1894031,3.84819872 73.4707865,0.566815328 77.5186575,0.566815328 Z M83.0155983,17.0565039 L81.71393,17.0565039 C79.1139949,18.2527235 76.035572,18.3037471 73.3222512,17.0565039 L72.0217167,17.0565039 C68.9863804,17.0565039 66.5259098,19.5169745 66.5259098,22.5534447 L66.5259098,38.1258426 C66.5259098,39.6440777 67.7561451,40.874313 69.2743802,40.874313 L71.1055599,40.874313 L71.1055599,56.4489786 C71.1055599,57.9660799 72.3369291,59.1963152 73.8540303,59.1963152 L81.1821509,59.1963152 C82.700386,59.1963152 83.9306213,57.9660799 83.9306213,56.4489786 L83.9306213,40.874313 L85.7629349,40.874313 C87.28117,40.874313 88.5114053,39.6440777 88.5114053,38.1258426 L88.5114053,22.5534447 C88.5114053,19.5169745 86.0509347,17.0565039 83.0155983,17.0565039 Z" id="Stroke-7" stroke="#FFFFFF" stroke-width="1.13385743"></path>
                <path d="M20.7515185,1.63037359 C25.1304759,1.63037359 28.6805835,5.1804812 28.6805835,9.55943858 C28.6805835,13.938396 25.1304759,17.4885036 20.7515185,17.4885036 C16.3725611,17.4885036 12.8224535,13.938396 12.8224535,9.55943858 C12.8224535,5.1804812 16.3725611,1.63037359 20.7515185,1.63037359 M26.6986007,19.4704864 L25.2914836,19.4704864 C22.4772495,20.7642177 19.1471102,20.8197767 16.2126872,19.4704864 L14.8044363,19.4704864 C11.5207852,19.4704864 8.85848792,22.1339175 8.85848792,25.4175686 L8.85848792,42.2666899 C8.85848792,43.9096493 10.1896365,45.2396641 11.8314621,45.2396641 L13.8134449,45.2396641 L13.8134449,62.0899193 C13.8134449,63.7328788 15.1445935,65.0628935 16.7875529,65.0628935 L24.7166179,65.0628935 C26.3584435,65.0628935 27.6895921,63.7328788 27.6895921,62.0899193 L27.6895921,45.2396641 L29.6715749,45.2396641 C31.3145343,45.2396641 32.6456829,43.9096493 32.6456829,42.2666899 L32.6456829,25.4175686 C32.6456829,22.1339175 29.9833857,19.4704864 26.6986007,19.4704864" id="Fill-9" fill="#00766C"></path>
                <path d="M20.7515185,1.63037359 C25.1304759,1.63037359 28.6805835,5.1804812 28.6805835,9.55943858 C28.6805835,13.938396 25.1304759,17.4885036 20.7515185,17.4885036 C16.3725611,17.4885036 12.8224535,13.938396 12.8224535,9.55943858 C12.8224535,5.1804812 16.3725611,1.63037359 20.7515185,1.63037359 Z M26.6986007,19.4704864 L25.2914836,19.4704864 C22.4772495,20.7642177 19.1471102,20.8197767 16.2126872,19.4704864 L14.8044363,19.4704864 C11.5207852,19.4704864 8.85848792,22.1339175 8.85848792,25.4175686 L8.85848792,42.2666899 C8.85848792,43.9096493 10.1896365,45.2396641 11.8314621,45.2396641 L13.8134449,45.2396641 L13.8134449,62.0899193 C13.8134449,63.7328788 15.1445935,65.0628935 16.7875529,65.0628935 L24.7166179,65.0628935 C26.3584435,65.0628935 27.6895921,63.7328788 27.6895921,62.0899193 L27.6895921,45.2396641 L29.6715749,45.2396641 C31.3145343,45.2396641 32.6456829,43.9096493 32.6456829,42.2666899 L32.6456829,25.4175686 C32.6456829,22.1339175 29.9833857,19.4704864 26.6986007,19.4704864 Z" id="Stroke-11" stroke="#FFFFFF" stroke-width="1.13385743"></path>
                <path d="M68.3264753,1.63037359 C72.7054327,1.63037359 76.2555403,5.1804812 76.2555403,9.55943858 C76.2555403,13.938396 72.7054327,17.4885036 68.3264753,17.4885036 C63.947518,17.4885036 60.3974104,13.938396 60.3974104,9.55943858 C60.3974104,5.1804812 63.947518,1.63037359 68.3264753,1.63037359 M74.2735576,19.4704864 L72.8664405,19.4704864 C70.0522064,20.7642177 66.7220671,20.8197767 63.7876441,19.4704864 L62.3793931,19.4704864 C59.095742,19.4704864 56.4334448,22.1339175 56.4334448,25.4175686 L56.4334448,42.2666899 C56.4334448,43.9096493 57.7645934,45.2396641 59.406419,45.2396641 L61.3884018,45.2396641 L61.3884018,62.0899193 C61.3884018,63.7328788 62.7195504,65.0628935 64.3613759,65.0628935 L72.2915748,65.0628935 C73.9334003,65.0628935 75.2645489,63.7328788 75.2645489,62.0899193 L75.2645489,45.2396641 L77.2465317,45.2396641 C78.8883573,45.2396641 80.2206398,43.9096493 80.2206398,42.2666899 L80.2206398,25.4175686 C80.2206398,22.1339175 77.5583425,19.4704864 74.2735576,19.4704864" id="Fill-13" fill="#00766C"></path>
                <path d="M68.3264753,1.63037359 C72.7054327,1.63037359 76.2555403,5.1804812 76.2555403,9.55943858 C76.2555403,13.938396 72.7054327,17.4885036 68.3264753,17.4885036 C63.947518,17.4885036 60.3974104,13.938396 60.3974104,9.55943858 C60.3974104,5.1804812 63.947518,1.63037359 68.3264753,1.63037359 Z M74.2735576,19.4704864 L72.8664405,19.4704864 C70.0522064,20.7642177 66.7220671,20.8197767 63.7876441,19.4704864 L62.3793931,19.4704864 C59.095742,19.4704864 56.4334448,22.1339175 56.4334448,25.4175686 L56.4334448,42.2666899 C56.4334448,43.9096493 57.7645934,45.2396641 59.406419,45.2396641 L61.3884018,45.2396641 L61.3884018,62.0899193 C61.3884018,63.7328788 62.7195504,65.0628935 64.3613759,65.0628935 L72.2915748,65.0628935 C73.9334003,65.0628935 75.2645489,63.7328788 75.2645489,62.0899193 L75.2645489,45.2396641 L77.2465317,45.2396641 C78.8883573,45.2396641 80.2206398,43.9096493 80.2206398,42.2666899 L80.2206398,25.4175686 C80.2206398,22.1339175 77.5583425,19.4704864 74.2735576,19.4704864 Z" id="Stroke-15" stroke="#FFFFFF" stroke-width="1.13385743"></path>
                <path d="M31.8553843,3.96838761 C36.525743,3.96838761 40.311693,7.75433756 40.311693,12.4246963 C40.311693,17.0939212 36.525743,20.881005 31.8553843,20.881005 C27.1850255,20.881005 23.3990756,17.0939212 23.3990756,12.4246963 C23.3990756,7.75433756 27.1850255,3.96838761 31.8553843,3.96838761 M38.1970489,22.9945152 L36.6969555,22.9945152 C33.6956349,24.3744197 30.1443934,24.4333803 27.0138131,22.9945152 L25.5137197,22.9945152 C22.0112341,22.9945152 19.1709212,25.8336942 19.1709212,29.3361798 L19.1709212,47.3044185 C19.1709212,49.0562282 20.5905107,50.4758177 22.3423205,50.4758177 L24.4569646,50.4758177 L24.4569646,68.4440564 C24.4569646,70.1958661 25.8765541,71.6154556 27.6272299,71.6154556 L36.0835386,71.6154556 C37.8342145,71.6154556 39.253804,70.1958661 39.253804,68.4440564 L39.253804,50.4758177 L41.3684481,50.4758177 C43.1202578,50.4758177 44.5398473,49.0562282 44.5398473,47.3044185 L44.5398473,29.3361798 C44.5398473,25.8336942 41.6995345,22.9945152 38.1970489,22.9945152" id="Fill-17" fill="#00766C"></path>
                <path d="M31.8553843,3.96838761 C36.525743,3.96838761 40.311693,7.75433756 40.311693,12.4246963 C40.311693,17.0939212 36.525743,20.881005 31.8553843,20.881005 C27.1850255,20.881005 23.3990756,17.0939212 23.3990756,12.4246963 C23.3990756,7.75433756 27.1850255,3.96838761 31.8553843,3.96838761 Z M38.1970489,22.9945152 L36.6969555,22.9945152 C33.6956349,24.3744197 30.1443934,24.4333803 27.0138131,22.9945152 L25.5137197,22.9945152 C22.0112341,22.9945152 19.1709212,25.8336942 19.1709212,29.3361798 L19.1709212,47.3044185 C19.1709212,49.0562282 20.5905107,50.4758177 22.3423205,50.4758177 L24.4569646,50.4758177 L24.4569646,68.4440564 C24.4569646,70.1958661 25.8765541,71.6154556 27.6272299,71.6154556 L36.0835386,71.6154556 C37.8342145,71.6154556 39.253804,70.1958661 39.253804,68.4440564 L39.253804,50.4758177 L41.3684481,50.4758177 C43.1202578,50.4758177 44.5398473,49.0562282 44.5398473,47.3044185 L44.5398473,29.3361798 C44.5398473,25.8336942 41.6995345,22.9945152 38.1970489,22.9945152 Z" id="Stroke-19" stroke="#FFFFFF" stroke-width="1.13385743"></path>
                <path d="M57.2231765,3.96838761 C61.8935352,3.96838761 65.6794852,7.75433756 65.6794852,12.4246963 C65.6794852,17.0939212 61.8935352,20.881005 57.2231765,20.881005 C52.5528177,20.881005 48.7668678,17.0939212 48.7668678,12.4246963 C48.7668678,7.75433756 52.5528177,3.96838761 57.2231765,3.96838761 M63.5648411,22.9945152 L62.0647477,22.9945152 C59.0634271,24.3744197 55.5121856,24.4333803 52.3816053,22.9945152 L50.8815119,22.9945152 C47.3778924,22.9945152 44.5387134,25.8336942 44.5387134,29.3361798 L44.5387134,47.3044185 C44.5387134,49.0562282 45.9583029,50.4758177 47.7101127,50.4758177 L49.8247568,50.4758177 L49.8247568,68.4440564 C49.8247568,70.1958661 51.2443463,71.6154556 52.9950221,71.6154556 L61.4513308,71.6154556 C63.2020067,71.6154556 64.6215962,70.1958661 64.6215962,68.4440564 L64.6215962,50.4758177 L66.7362403,50.4758177 C68.4869162,50.4758177 69.9076395,49.0562282 69.9076395,47.3044185 L69.9076395,29.3361798 C69.9076395,25.8336942 67.0673267,22.9945152 63.5648411,22.9945152" id="Fill-21" fill="#00766C"></path>
                <path d="M57.2231765,3.96838761 C61.8935352,3.96838761 65.6794852,7.75433756 65.6794852,12.4246963 C65.6794852,17.0939212 61.8935352,20.881005 57.2231765,20.881005 C52.5528177,20.881005 48.7668678,17.0939212 48.7668678,12.4246963 C48.7668678,7.75433756 52.5528177,3.96838761 57.2231765,3.96838761 Z M63.5648411,22.9945152 L62.0647477,22.9945152 C59.0634271,24.3744197 55.5121856,24.4333803 52.3816053,22.9945152 L50.8815119,22.9945152 C47.3778924,22.9945152 44.5387134,25.8336942 44.5387134,29.3361798 L44.5387134,47.3044185 C44.5387134,49.0562282 45.9583029,50.4758177 47.7101127,50.4758177 L49.8247568,50.4758177 L49.8247568,68.4440564 C49.8247568,70.1958661 51.2443463,71.6154556 52.9950221,71.6154556 L61.4513308,71.6154556 C63.2020067,71.6154556 64.6215962,70.1958661 64.6215962,68.4440564 L64.6215962,50.4758177 L66.7362403,50.4758177 C68.4869162,50.4758177 69.9076395,49.0562282 69.9076395,47.3044185 L69.9076395,29.3361798 C69.9076395,25.8336942 67.0673267,22.9945152 63.5648411,22.9945152 Z" id="Stroke-23" stroke="#FFFFFF" stroke-width="1.13385743"></path>
                <path d="M44.5392804,6.23610247 C49.2096391,6.23610247 52.9955891,10.0220524 52.9955891,14.6924112 C52.9955891,19.361636 49.2096391,23.1487199 44.5392804,23.1487199 C39.8689216,23.1487199 36.0829717,19.361636 36.0829717,14.6924112 C36.0829717,10.0220524 39.8689216,6.23610247 44.5392804,6.23610247 M50.880945,25.2622301 L49.3808516,25.2622301 C46.379531,26.6421346 42.8282895,26.7010952 39.6977092,25.2622301 L38.1976158,25.2622301 C34.6951302,25.2622301 31.8548173,28.1014091 31.8548173,31.6038947 L31.8548173,49.5721333 C31.8548173,51.3239431 33.2744068,52.7435326 35.0262166,52.7435326 L37.1408607,52.7435326 L37.1408607,70.7117712 C37.1408607,72.4635809 38.5604502,73.8831704 40.311126,73.8831704 L48.7674347,73.8831704 C50.5181106,73.8831704 51.9377001,72.4635809 51.9377001,70.7117712 L51.9377001,52.7435326 L54.0523442,52.7435326 C55.8030201,52.7435326 57.2237434,51.3239431 57.2237434,49.5721333 L57.2237434,31.6038947 C57.2237434,28.1014091 54.3834306,25.2622301 50.880945,25.2622301" id="Fill-25" fill="#00766C"></path>
                <path d="M44.5392804,6.23610247 C49.2096391,6.23610247 52.9955891,10.0220524 52.9955891,14.6924112 C52.9955891,19.361636 49.2096391,23.1487199 44.5392804,23.1487199 C39.8689216,23.1487199 36.0829717,19.361636 36.0829717,14.6924112 C36.0829717,10.0220524 39.8689216,6.23610247 44.5392804,6.23610247 Z M50.880945,25.2622301 L49.3808516,25.2622301 C46.379531,26.6421346 42.8282895,26.7010952 39.6977092,25.2622301 L38.1976158,25.2622301 C34.6951302,25.2622301 31.8548173,28.1014091 31.8548173,31.6038947 L31.8548173,49.5721333 C31.8548173,51.3239431 33.2744068,52.7435326 35.0262166,52.7435326 L37.1408607,52.7435326 L37.1408607,70.7117712 C37.1408607,72.4635809 38.5604502,73.8831704 40.311126,73.8831704 L48.7674347,73.8831704 C50.5181106,73.8831704 51.9377001,72.4635809 51.9377001,70.7117712 L51.9377001,52.7435326 L54.0523442,52.7435326 C55.8030201,52.7435326 57.2237434,51.3239431 57.2237434,49.5721333 L57.2237434,31.6038947 C57.2237434,28.1014091 54.3834306,25.2622301 50.880945,25.2622301 Z" id="Stroke-27" stroke="#FFFFFF" stroke-width="1.13385743"></path>
            </g>
            <rect id="Rectangle-Copy-3" fill="#00766C" fill-rule="nonzero" x="0" y="30.6141505" width="113.385743" height="36.2834377"></rect>
            <path d="M16.8349482,60.2906766 C15.0831384,60.2906766 13.9266039,59.6103621 13.1612501,58.7599691 L14.0966825,57.5013873 C14.7429812,58.1646939 15.5763664,58.6919376 16.6648695,58.6919376 C17.838412,58.6919376 18.6547893,58.0796546 18.6547893,57.0591829 C18.6547893,55.9366641 17.9404591,55.2223339 15.4743192,55.2223339 L15.4743192,53.7936735 C17.6003019,53.7936735 18.2976242,53.0623355 18.2976242,52.0588717 C18.2976242,51.157455 17.6853412,50.6132034 16.6988853,50.6132034 C15.8484922,50.6132034 15.1851856,51.0213921 14.521879,51.6336751 L13.5184152,50.426117 C14.4368397,49.6097396 15.4743192,49.065488 16.7669167,49.065488 C18.8418758,49.065488 20.2705362,50.0859597 20.2705362,51.9228088 C20.2705362,53.1303669 19.556206,53.9467443 18.3826635,54.4059565 L18.3826635,54.473988 C19.6582531,54.8141452 20.6277012,55.7325697 20.6277012,57.1612301 C20.6277012,59.134142 18.9099072,60.2906766 16.8349482,60.2906766 Z M22.1243931,60.0865822 L22.1243931,58.9470555 C25.1347845,56.0387112 27.0226571,54.1338307 27.0226571,52.4840682 C27.0226571,51.3445415 26.3933663,50.6132034 25.2368317,50.6132034 C24.4034465,50.6132034 23.7061242,51.1744629 23.1278569,51.8207616 L22.0393537,50.7322585 C23.0258097,49.6777711 24.0122657,49.065488 25.4919496,49.065488 C27.5669087,49.065488 28.9105298,50.3750934 28.9105298,52.382021 C28.9105298,54.3039094 27.1247043,56.2768213 24.9817138,58.5388669 C25.5429732,58.4878433 26.2573034,58.4198118 26.7845471,58.4198118 L29.4377735,58.4198118 L29.4377735,60.0865822 L22.1243931,60.0865822 Z M33.0604479,60.0865822 C33.2475344,56.2428056 33.9788725,53.8276892 36.0708394,50.9193449 L30.9514731,50.9193449 L30.9514731,49.2695824 L38.2138299,49.2695824 L38.2138299,50.4601327 C35.6796586,53.606587 35.2374542,55.8686326 35.0503677,60.0865822 L33.0604479,60.0865822 Z M40.1527261,63.182013 L39.7275296,62.1105178 C40.8330406,61.6853212 41.4623315,60.9029596 41.4453236,60.0525665 L41.2922529,60.0525665 C40.6289463,60.0525665 40.0336711,59.6103621 40.0336711,58.8450084 C40.0336711,58.1136703 40.6289463,57.6374502 41.3432764,57.6374502 C42.261701,57.6374502 42.8059525,58.3857961 42.8059525,59.6443778 C42.8059525,61.3111483 41.8365044,62.6037457 40.1527261,63.182013 Z M46.4626427,60.0865822 C46.6497292,56.2428056 47.3810672,53.8276892 49.4730342,50.9193449 L44.3536679,50.9193449 L44.3536679,49.2695824 L51.6160247,49.2695824 L51.6160247,50.4601327 C49.0818534,53.606587 48.639649,55.8686326 48.4525625,60.0865822 L46.4626427,60.0865822 Z M56.6843674,60.2906766 C54.4393297,60.2906766 53.0106694,58.2837489 53.0106694,54.6270587 C53.0106694,50.9703685 54.4393297,49.065488 56.6843674,49.065488 C58.9294051,49.065488 60.3580655,50.9873764 60.3580655,54.6270587 C60.3580655,58.2837489 58.9294051,60.2906766 56.6843674,60.2906766 Z M56.6843674,58.7599691 C57.7388548,58.7599691 58.4872008,57.6884738 58.4872008,54.6270587 C58.4872008,51.5656437 57.7388548,50.5961956 56.6843674,50.5961956 C55.6468879,50.5961956 54.8815341,51.5656437 54.8815341,54.6270587 C54.8815341,57.6884738 55.6468879,58.7599691 56.6843674,58.7599691 Z M65.4094003,60.2906766 C63.1643626,60.2906766 61.7357023,58.2837489 61.7357023,54.6270587 C61.7357023,50.9703685 63.1643626,49.065488 65.4094003,49.065488 C67.6544381,49.065488 69.0830984,50.9873764 69.0830984,54.6270587 C69.0830984,58.2837489 67.6544381,60.2906766 65.4094003,60.2906766 Z M65.4094003,58.7599691 C66.4638878,58.7599691 67.2122337,57.6884738 67.2122337,54.6270587 C67.2122337,51.5656437 66.4638878,50.5961956 65.4094003,50.5961956 C64.3719208,50.5961956 63.606567,51.5656437 63.606567,54.6270587 C63.606567,57.6884738 64.3719208,58.7599691 65.4094003,58.7599691 Z M71.0049867,63.182013 L70.5797902,62.1105178 C71.6853012,61.6853212 72.3145921,60.9029596 72.2975842,60.0525665 L72.1445135,60.0525665 C71.4812069,60.0525665 70.8859317,59.6103621 70.8859317,58.8450084 C70.8859317,58.1136703 71.4812069,57.6374502 72.195537,57.6374502 C73.1139616,57.6374502 73.6582131,58.3857961 73.6582131,59.6443778 C73.6582131,61.3111483 72.688765,62.6037457 71.0049867,63.182013 Z M78.8115951,60.2906766 C76.5665574,60.2906766 75.1378971,58.2837489 75.1378971,54.6270587 C75.1378971,50.9703685 76.5665574,49.065488 78.8115951,49.065488 C81.0566328,49.065488 82.4852932,50.9873764 82.4852932,54.6270587 C82.4852932,58.2837489 81.0566328,60.2906766 78.8115951,60.2906766 Z M78.8115951,58.7599691 C79.8660825,58.7599691 80.6144284,57.6884738 80.6144284,54.6270587 C80.6144284,51.5656437 79.8660825,50.5961956 78.8115951,50.5961956 C77.7741156,50.5961956 77.0087618,51.5656437 77.0087618,54.6270587 C77.0087618,57.6884738 77.7741156,58.7599691 78.8115951,58.7599691 Z M87.536628,60.2906766 C85.2915903,60.2906766 83.86293,58.2837489 83.86293,54.6270587 C83.86293,50.9703685 85.2915903,49.065488 87.536628,49.065488 C89.7816657,49.065488 91.2103261,50.9873764 91.2103261,54.6270587 C91.2103261,58.2837489 89.7816657,60.2906766 87.536628,60.2906766 Z M87.536628,58.7599691 C88.5911154,58.7599691 89.3394614,57.6884738 89.3394614,54.6270587 C89.3394614,51.5656437 88.5911154,50.5961956 87.536628,50.5961956 C86.4991485,50.5961956 85.7337947,51.5656437 85.7337947,54.6270587 C85.7337947,57.6884738 86.4991485,58.7599691 87.536628,58.7599691 Z M96.2616609,60.2906766 C94.0166232,60.2906766 92.5879629,58.2837489 92.5879629,54.6270587 C92.5879629,50.9703685 94.0166232,49.065488 96.2616609,49.065488 C98.5066987,49.065488 99.935359,50.9873764 99.935359,54.6270587 C99.935359,58.2837489 98.5066987,60.2906766 96.2616609,60.2906766 Z M96.2616609,58.7599691 C97.3161484,58.7599691 98.0644943,57.6884738 98.0644943,54.6270587 C98.0644943,51.5656437 97.3161484,50.5961956 96.2616609,50.5961956 C95.2241814,50.5961956 94.4588276,51.5656437 94.4588276,54.6270587 C94.4588276,57.6884738 95.2241814,58.7599691 96.2616609,58.7599691 Z" id="327,700,000" fill="#FFFFFF" fill-rule="nonzero"></path>
            <path d="M25.4664378,44.0179283 C25.1489562,44.0179283 24.8390382,43.9706847 24.5366747,43.8761961 C24.2343112,43.7817075 23.9659677,43.6191896 23.731636,43.3886374 C23.4973042,43.1580853 23.3102196,42.8500571 23.1703765,42.4645436 C23.0305334,42.0790302 22.9606129,41.5952558 22.9606129,41.0132061 L22.9606129,36.4097449 L23.4821873,36.4097449 L23.4821873,40.9565132 C23.4821873,41.455413 23.5369899,41.8692668 23.6465966,42.1980871 C23.7562034,42.5269074 23.9017137,42.7914715 24.0831318,42.9917873 C24.2645499,43.1921031 24.4743114,43.3338339 24.7124226,43.4169839 C24.9505339,43.5001338 25.2018698,43.5417082 25.4664378,43.5417082 C25.738565,43.5417082 25.9974598,43.5001338 26.2431302,43.4169839 C26.4888005,43.3338339 26.7042313,43.1921031 26.8894289,42.9917873 C27.0746265,42.7914715 27.2239163,42.5269074 27.3373026,42.1980871 C27.4506889,41.8692668 27.5073812,41.455413 27.5073812,40.9565132 L27.5073812,36.4097449 L27.9949399,36.4097449 L27.9949399,41.0132061 C27.9949399,41.5952558 27.9231296,42.0790302 27.779507,42.4645436 C27.6358843,42.8500571 27.44691,43.1580853 27.2125783,43.3886374 C26.9782466,43.6191896 26.709903,43.7817075 26.4075395,43.8761961 C26.105176,43.9706847 25.7914786,44.0179283 25.4664378,44.0179283 Z M30.2059619,44.0179283 C30.0774574,44.0179283 29.9640728,43.9725744 29.8658046,43.8818654 C29.7675365,43.7911563 29.7184032,43.6664333 29.7184032,43.5076924 C29.7184032,43.3413925 29.7675365,43.21289 29.8658046,43.1221809 C29.9640728,43.0314719 30.0774574,42.986118 30.2059619,42.986118 C30.3344664,42.986118 30.4459612,43.0314719 30.5404498,43.1221809 C30.6349384,43.21289 30.682182,43.3413925 30.682182,43.5076924 C30.682182,43.6664333 30.6349384,43.7911563 30.5404498,43.8818654 C30.4459612,43.9725744 30.3344664,44.0179283 30.2059619,44.0179283 Z M34.4919429,44.0179283 C33.9476887,44.0179283 33.4639143,43.9139924 33.0406054,43.7061175 C32.6172965,43.4982426 32.2582453,43.2280093 31.9634409,42.8954094 L32.3035981,42.5325751 C32.5757253,42.8424976 32.9007611,43.0881643 33.2787155,43.2695824 C33.6566699,43.4510005 34.061075,43.5417082 34.4919429,43.5417082 C35.0664336,43.5417082 35.519972,43.4037569 35.8525719,43.1278502 C36.1851717,42.8519435 36.3514691,42.4910025 36.3514691,42.0450164 C36.3514691,41.8106847 36.315564,41.6122616 36.2437527,41.4497412 C36.1719413,41.2872208 36.0755644,41.1473798 35.954619,41.030214 C35.8336736,40.9130481 35.6919429,40.8128917 35.5294225,40.7297417 C35.3669021,40.6465918 35.1949355,40.5634431 35.0135174,40.4802931 L33.8796599,39.9700573 C33.7209191,39.9020255 33.5508422,39.8188768 33.3694241,39.7206086 C33.188006,39.6223405 33.0235983,39.4995072 32.8761961,39.352105 C32.7287939,39.2047028 32.6059606,39.0308464 32.5076924,38.8305306 C32.4094243,38.6302147 32.360291,38.3902173 32.360291,38.1105311 C32.360291,37.8384039 32.4150935,37.5908476 32.5247003,37.3678545 C32.6343071,37.1448614 32.7854866,36.9521076 32.9782433,36.7895872 C33.171,36.6270668 33.4015487,36.500454 33.6698963,36.4097449 C33.9382439,36.3190359 34.2273747,36.2736821 34.5372972,36.2736821 C34.9908425,36.2736821 35.3933578,36.3625 35.7448554,36.5401386 C36.096353,36.7177771 36.3854837,36.9275386 36.6122563,37.1694294 L36.3174534,37.5095867 C36.0982399,37.282814 35.8412348,37.0995089 35.5464304,36.9596658 C35.2516259,36.8198227 34.9152516,36.7499022 34.5372972,36.7499022 C34.0383975,36.7499022 33.6377719,36.8708458 33.3354084,37.1127366 C33.0330449,37.3546273 32.8818654,37.6796632 32.8818654,38.0878539 C32.8818654,38.3070675 32.9234398,38.4922623 33.0065897,38.6434441 C33.0897397,38.7946258 33.1955653,38.9250181 33.3240698,39.0346249 C33.4525743,39.1442317 33.5924153,39.2387188 33.743597,39.3180893 C33.8947788,39.3974597 34.0383993,39.4673802 34.1744629,39.5278529 L35.3083203,40.0267501 C35.5199747,40.1174592 35.7202875,40.2195053 35.9092647,40.3328916 C36.0982419,40.446278 36.2645393,40.57856 36.408162,40.7297417 C36.5517847,40.8809235 36.667059,41.0604491 36.7539885,41.268324 C36.840918,41.4761989 36.8843821,41.7237553 36.8843821,42.0110006 C36.8843821,42.298246 36.8276898,42.5646998 36.7143035,42.8103701 C36.6009172,43.0560405 36.440289,43.2676917 36.2324141,43.4453303 C36.0245392,43.6229688 35.7732033,43.7628099 35.4783989,43.8648575 C35.1835945,43.9669052 34.8547791,44.0179283 34.4919429,44.0179283 Z M38.5965068,44.0179283 C38.4680023,44.0179283 38.3546177,43.9725744 38.2563496,43.8818654 C38.1580815,43.7911563 38.1089481,43.6664333 38.1089481,43.5076924 C38.1089481,43.3413925 38.1580815,43.21289 38.2563496,43.1221809 C38.3546177,43.0314719 38.4680023,42.986118 38.5965068,42.986118 C38.7250113,42.986118 38.8365062,43.0314719 38.9309948,43.1221809 C39.0254834,43.21289 39.0727269,43.3413925 39.0727269,43.5076924 C39.0727269,43.6664333 39.0254834,43.7911563 38.9309948,43.8818654 C38.8365062,43.9725744 38.7250113,44.0179283 38.5965068,44.0179283 Z M43.199968,43.8818654 L43.199968,36.4097449 L45.0821713,36.4097449 C45.5054802,36.4097449 45.8853186,36.4456501 46.221698,36.5174614 C46.5580774,36.5892727 46.8415389,36.7083266 47.0720911,36.8746265 C47.3026433,37.0409264 47.4802792,37.2563572 47.6050041,37.5209252 C47.729729,37.7854933 47.7920906,38.1105292 47.7920906,38.4960426 C47.7920906,39.2292741 47.5577624,39.77541 47.089099,40.1344666 C46.6204355,40.4935232 45.9665843,40.6730489 45.1275256,40.6730489 L43.7215424,40.6730489 L43.7215424,43.8818654 L43.199968,43.8818654 Z M43.7215424,40.2308445 L45.0028013,40.2308445 C45.7662691,40.2308445 46.3331922,40.0947829 46.7035874,39.8226558 C47.0739827,39.5505287 47.2591776,39.1083287 47.2591776,38.4960426 C47.2591776,37.8686384 47.0683135,37.4377769 46.6865796,37.2034451 C46.3048457,36.9691134 45.7284739,36.8519493 44.957447,36.8519493 L43.7215424,36.8519493 L43.7215424,40.2308445 Z M51.0689385,44.0179283 C50.7438978,44.0179283 50.4339798,43.953677 50.1391754,43.8251725 C49.844371,43.696668 49.5854762,43.5114732 49.3624831,43.2695824 C49.13949,43.0276916 48.9618541,42.7310019 48.8295701,42.3795043 C48.6972861,42.0280067 48.6311451,41.6254914 48.6311451,41.1719461 C48.6311451,40.7184009 48.6972861,40.3121061 48.8295701,39.9530494 C48.9618541,39.5939928 49.13949,39.2935235 49.3624831,39.0516328 C49.5854762,38.809742 49.844371,38.6245471 50.1391754,38.4960426 C50.4339798,38.3675381 50.7438978,38.3032869 51.0689385,38.3032869 C51.3939793,38.3032869 51.705787,38.3675381 52.0043709,38.4960426 C52.3029549,38.6245471 52.5637395,38.809742 52.7867325,39.0516328 C53.0097256,39.2935235 53.1873615,39.5939928 53.3196455,39.9530494 C53.4519296,40.3121061 53.5180706,40.7184009 53.5180706,41.1719461 C53.5180706,41.6254914 53.4519296,42.0280067 53.3196455,42.3795043 C53.1873615,42.7310019 53.0097256,43.0276916 52.7867325,43.2695824 C52.5637395,43.5114732 52.3029549,43.696668 52.0043709,43.8251725 C51.705787,43.953677 51.3939793,44.0179283 51.0689385,44.0179283 Z M51.0689385,43.5757239 C51.3410657,43.5757239 51.596181,43.5171418 51.8342923,43.399976 C52.0724035,43.2828101 52.2764958,43.1184025 52.4465753,42.906748 C52.6166548,42.6950936 52.7508266,42.4418679 52.8490947,42.1470635 C52.9473628,41.8522591 52.9964962,41.5272232 52.9964962,41.1719461 C52.9964962,40.80911 52.9473628,40.4802946 52.8490947,40.1854902 C52.7508266,39.8906858 52.6166548,39.6355704 52.4465753,39.4201364 C52.2764958,39.2047024 52.0724035,39.038405 51.8342923,38.9212392 C51.596181,38.8040733 51.3410657,38.7454912 51.0689385,38.7454912 C50.7968114,38.7454912 50.5435858,38.8040733 50.3092541,38.9212392 C50.0749223,39.038405 49.8727198,39.2047024 49.7026403,39.4201364 C49.5325609,39.6355704 49.3983891,39.8906858 49.3001209,40.1854902 C49.2018528,40.4802946 49.1527195,40.80911 49.1527195,41.1719461 C49.1527195,41.5272232 49.2018528,41.8522591 49.3001209,42.1470635 C49.3983891,42.4418679 49.5325609,42.6950936 49.7026403,42.906748 C49.8727198,43.1184025 50.0749223,43.2828101 50.3092541,43.399976 C50.5435858,43.5171418 50.7968114,43.5757239 51.0689385,43.5757239 Z M55.1508253,46.342336 L55.1508253,38.4393497 L55.5816911,38.4393497 L55.6270454,39.1196642 L55.6610611,39.1196642 C55.9256292,38.9080098 56.2147599,38.7190354 56.528462,38.5527355 C56.8421642,38.3864356 57.1690898,38.3032869 57.5092487,38.3032869 C58.2349211,38.3032869 58.7791672,38.5546227 59.1420034,39.057302 C59.5048396,39.5599813 59.686255,40.2346198 59.686255,41.0812375 C59.686255,41.5423419 59.6220037,41.954306 59.4934992,42.3171421 C59.3649947,42.6799783 59.1892486,42.9880065 58.9662555,43.2412359 C58.7432624,43.4944654 58.4862573,43.6872192 58.1952325,43.8195032 C57.9042076,43.9517873 57.5999589,44.0179283 57.2824772,44.0179283 C57.0254683,44.0179283 56.7609042,43.9593462 56.488777,43.8421804 C56.2166499,43.7250145 55.9369679,43.5606068 55.6497225,43.3489524 L55.6497225,46.342336 L55.1508253,46.342336 Z M57.2598001,43.5757239 C57.5319272,43.5757239 57.7851529,43.5152521 58.0194846,43.3943067 C58.2538163,43.2733613 58.4541291,43.1032844 58.620429,42.8840709 C58.7867289,42.6648573 58.9171212,42.402183 59.0116098,42.0960399 C59.1060984,41.7898969 59.153342,41.4516328 59.153342,41.0812375 C59.153342,40.7486377 59.1212164,40.4387198 59.0569641,40.1514745 C58.9927119,39.8642291 58.8925555,39.6166727 58.7564919,39.4087978 C58.6204283,39.2009229 58.4427924,39.038405 58.2235789,38.9212392 C58.0043654,38.8040733 57.7398013,38.7454912 57.4298787,38.7454912 C57.1577516,38.7454912 56.8761798,38.8229707 56.5851549,38.977932 C56.2941301,39.1328933 55.9823224,39.3539933 55.6497225,39.6412386 L55.6497225,42.8727323 C55.9672042,43.1297413 56.2620042,43.3111566 56.5341313,43.4169839 C56.8062585,43.5228111 57.0481456,43.5757239 57.2598001,43.5757239 Z M62.8837329,44.0179283 C62.3168014,44.0179283 61.9010578,43.8478514 61.6364898,43.5076924 C61.3719217,43.1675335 61.2396397,42.6421848 61.2396397,41.9316306 L61.2396397,38.4393497 L61.7385369,38.4393497 L61.7385369,41.8635992 C61.7385369,42.4456489 61.8349138,42.8746207 62.0276706,43.1505274 C62.2204273,43.426434 62.5360145,43.5643853 62.9744415,43.5643853 C63.2994823,43.5643853 63.5942823,43.4755674 63.8588503,43.2979288 C64.1234184,43.1202903 64.4144389,42.8387185 64.7319205,42.453205 L64.7319205,38.4393497 L65.2308178,38.4393497 L65.2308178,43.8818654 L64.8112906,43.8818654 L64.7545977,42.9747795 L64.7319205,42.9747795 C64.4673525,43.2922611 64.1876704,43.5454867 63.892866,43.7344639 C63.5980616,43.9234411 63.2616873,44.0179283 62.8837329,44.0179283 Z M67.9860913,44.0179283 C67.5401052,44.0179283 67.3171155,43.7306873 67.3171155,43.1561966 L67.3171155,35.7294305 L67.8160127,35.7294305 L67.8160127,43.2242281 C67.8160127,43.3451735 67.8386897,43.4339914 67.8840442,43.4906846 C67.9293987,43.5473777 67.986091,43.5757239 68.0541228,43.5757239 L68.1278235,43.5757239 C68.1542803,43.5757239 68.1977444,43.5681649 68.2582171,43.5530467 L68.3489257,43.9612354 C68.2960121,43.9763536 68.2430993,43.9895818 68.1901857,44.0009204 C68.1372721,44.0122591 68.0692413,44.0179283 67.9860913,44.0179283 Z M71.1949079,44.0179283 C70.9756943,44.0179283 70.771602,43.9876924 70.5826249,43.9272197 C70.3936477,43.866747 70.2273502,43.7760393 70.0837276,43.6550939 C69.9401049,43.5341485 69.8267203,43.3791895 69.7435704,43.1902124 C69.6604204,43.0012352 69.618846,42.7782455 69.618846,42.5212365 C69.618846,41.9165095 69.9004178,41.4573018 70.4635698,41.1435997 C71.0267218,40.8298976 71.916791,40.6050181 73.1338041,40.4689545 C73.1338041,40.2648592 73.1186861,40.0588771 73.0884498,39.8510022 C73.0582134,39.6431273 72.9939621,39.4579325 72.895694,39.2954121 C72.7974259,39.1328917 72.6651438,39.0006097 72.4988439,38.898562 C72.332544,38.7965143 72.1133337,38.7454912 71.8412066,38.7454912 C71.4783704,38.7454912 71.1457756,38.8173015 70.8434121,38.9609242 C70.5410486,39.1045468 70.2953819,39.2443878 70.1064047,39.3804514 L69.8796333,39.0062785 C69.9779014,38.9382467 70.0969552,38.8626569 70.2367983,38.779507 C70.3766415,38.696357 70.5334902,38.6207673 70.7073492,38.5527355 C70.8812082,38.4847037 71.0701825,38.4261217 71.2742779,38.3769876 C71.4783732,38.3278535 71.6900245,38.3032869 71.909238,38.3032869 C72.2267197,38.3032869 72.4950633,38.3580894 72.7142768,38.4676962 C72.9334904,38.5773029 73.1111262,38.7265927 73.2471898,38.9155699 C73.3832534,39.104547 73.48152,39.325647 73.5419927,39.5788765 C73.6024654,39.8321059 73.6327013,40.1061187 73.6327013,40.4009231 L73.6327013,43.8818654 L73.2018355,43.8818654 L73.1564812,43.1788738 L73.1224655,43.1788738 C72.8427793,43.3980873 72.5423101,43.5927309 72.2210488,43.7628104 C71.8997876,43.9328898 71.5577441,44.0179283 71.1949079,44.0179283 Z M71.2856165,43.5870625 C71.6030981,43.5870625 71.9054571,43.5114727 72.1927024,43.360291 C72.4799477,43.2091092 72.7936451,42.989899 73.1338041,42.7026537 L73.1338041,40.8544661 C72.5744316,40.9224979 72.1019957,41.0056466 71.7164823,41.1039147 C71.3309688,41.2021828 71.0210509,41.3193469 70.7867192,41.4554105 C70.5523875,41.5914741 70.3842003,41.746433 70.2821526,41.920292 C70.180105,42.0941511 70.1290819,42.2869049 70.1290819,42.4985593 C70.1290819,42.6950956 70.1593178,42.861393 70.2197905,42.9974566 C70.2802632,43.1335202 70.3634119,43.245015 70.4692391,43.3319445 C70.5750663,43.418874 70.6978997,43.4831253 70.8377428,43.5247003 C70.9775859,43.5662753 71.1268756,43.5870625 71.2856165,43.5870625 Z M76.9322265,44.0179283 C76.6676584,44.0179283 76.4484482,43.9782437 76.2745891,43.8988733 C76.1007301,43.8195028 75.9608891,43.708008 75.8550619,43.5643853 C75.7492347,43.4207627 75.6755347,43.2469063 75.6339597,43.0428109 C75.5923847,42.8387155 75.5715975,42.6157258 75.5715975,42.373835 L75.5715975,38.8702156 L74.7212045,38.8702156 L74.7212045,38.484704 L75.5829361,38.4393497 L75.6509676,36.8632879 L76.0818334,36.8632879 L76.0818334,38.4393497 L77.6578952,38.4393497 L77.6578952,38.8702156 L76.0818334,38.8702156 L76.0818334,42.4191893 C76.0818334,42.5930483 76.0950616,42.749897 76.1215184,42.8897401 C76.1479752,43.0295833 76.1952188,43.1505268 76.2632506,43.2525745 C76.3312824,43.3546222 76.4238798,43.4339914 76.5410456,43.4906846 C76.6582115,43.5473777 76.8112807,43.5757239 77.0002579,43.5757239 C77.1060851,43.5757239 77.2213595,43.5587162 77.3460844,43.5247003 C77.4708094,43.4906844 77.5823042,43.4509998 77.6805724,43.4056453 L77.8166352,43.8138339 C77.6578944,43.8743066 77.499156,43.92344 77.3404151,43.9612354 C77.1816743,43.9990309 77.0456128,44.0179283 76.9322265,44.0179283 Z M78.9845084,43.8818654 L78.9845084,38.4393497 L79.4834057,38.4393497 L79.4834057,43.8818654 L78.9845084,43.8818654 Z M79.2452956,37.1240751 C79.1167911,37.1240751 79.0090757,37.0825008 78.9221462,36.9993508 C78.8352167,36.9162009 78.7917526,36.8103752 78.7917526,36.6818707 C78.7917526,36.5382481 78.8352167,36.4267532 78.9221462,36.3473828 C79.0090757,36.2680124 79.1167911,36.2283278 79.2452956,36.2283278 C79.3738001,36.2283278 79.4815155,36.2680124 79.568445,36.3473828 C79.6553745,36.4267532 79.6988386,36.5382481 79.6988386,36.6818707 C79.6988386,36.8103752 79.6553745,36.9162009 79.568445,36.9993508 C79.4815155,37.0825008 79.3738001,37.1240751 79.2452956,37.1240751 Z M83.5652924,44.0179283 C83.2402516,44.0179283 82.9303337,43.953677 82.6355293,43.8251725 C82.3407249,43.696668 82.08183,43.5114732 81.858837,43.2695824 C81.6358439,43.0276916 81.458208,42.7310019 81.325924,42.3795043 C81.19364,42.0280067 81.1274989,41.6254914 81.1274989,41.1719461 C81.1274989,40.7184009 81.19364,40.3121061 81.325924,39.9530494 C81.458208,39.5939928 81.6358439,39.2935235 81.858837,39.0516328 C82.08183,38.809742 82.3407249,38.6245471 82.6355293,38.4960426 C82.9303337,38.3675381 83.2402516,38.3032869 83.5652924,38.3032869 C83.8903332,38.3032869 84.2021408,38.3675381 84.5007248,38.4960426 C84.7993087,38.6245471 85.0600933,38.809742 85.2830864,39.0516328 C85.5060795,39.2935235 85.6837154,39.5939928 85.8159994,39.9530494 C85.9482834,40.3121061 86.0144244,40.7184009 86.0144244,41.1719461 C86.0144244,41.6254914 85.9482834,42.0280067 85.8159994,42.3795043 C85.6837154,42.7310019 85.5060795,43.0276916 85.2830864,43.2695824 C85.0600933,43.5114732 84.7993087,43.696668 84.5007248,43.8251725 C84.2021408,43.953677 83.8903332,44.0179283 83.5652924,44.0179283 Z M83.5652924,43.5757239 C83.8374195,43.5757239 84.0925349,43.5171418 84.3306462,43.399976 C84.5687574,43.2828101 84.7728497,43.1184025 84.9429292,42.906748 C85.1130086,42.6950936 85.2471804,42.4418679 85.3454486,42.1470635 C85.4437167,41.8522591 85.49285,41.5272232 85.49285,41.1719461 C85.49285,40.80911 85.4437167,40.4802946 85.3454486,40.1854902 C85.2471804,39.8906858 85.1130086,39.6355704 84.9429292,39.4201364 C84.7728497,39.2047024 84.5687574,39.038405 84.3306462,38.9212392 C84.0925349,38.8040733 83.8374195,38.7454912 83.5652924,38.7454912 C83.2931653,38.7454912 83.0399396,38.8040733 82.8056079,38.9212392 C82.5712762,39.038405 82.3690737,39.2047024 82.1989942,39.4201364 C82.0289147,39.6355704 81.894743,39.8906858 81.7964748,40.1854902 C81.6982067,40.4802946 81.6490733,40.80911 81.6490733,41.1719461 C81.6490733,41.5272232 81.6982067,41.8522591 81.7964748,42.1470635 C81.894743,42.4418679 82.0289147,42.6950936 82.1989942,42.906748 C82.3690737,43.1184025 82.5712762,43.2828101 82.8056079,43.399976 C83.0399396,43.5171418 83.2931653,43.5757239 83.5652924,43.5757239 Z M87.6471791,43.8818654 L87.6471791,38.4393497 L88.078045,38.4393497 L88.1233993,39.2784042 L88.157415,39.2784042 C88.4371012,38.998718 88.7243422,38.7662796 89.0191466,38.5810819 C89.313951,38.3958843 89.6503254,38.3032869 90.0282797,38.3032869 C90.5952113,38.3032869 91.0109549,38.4733638 91.2755229,38.8135227 C91.540091,39.1536816 91.672373,39.6790303 91.672373,40.3895845 L91.672373,43.8818654 L91.1734757,43.8818654 L91.1734757,40.457616 C91.1734757,39.8755662 91.0770988,39.4465945 90.8843421,39.1706878 C90.6915854,38.8947811 90.3722187,38.7568298 89.9262326,38.7568298 C89.6011918,38.7568298 89.3063918,38.8418683 89.0418238,39.0119477 C88.7772557,39.1820272 88.4786763,39.4371426 88.1460764,39.7773015 L88.1460764,43.8818654 L87.6471791,43.8818654 Z" id="U.S.Population" fill="#FFFFFF" fill-rule="nonzero"></path>
            <polygon id="+" fill="#00766C" fill-rule="nonzero" transform="translate(130.847303, 38.410930) rotate(45.000000) translate(-130.847303, -38.410930) " points="129.959493 43.125509 129.959493 39.268126 126.306204 39.268126 126.306204 37.5537336 129.959493 37.5537336 129.959493 33.6963506 131.735114 33.6963506 131.735114 37.5537336 135.388402 37.5537336 135.388402 39.268126 131.735114 39.268126 131.735114 43.125509"></polygon>
        </g>
    </g>
</svg>