<?xml version="1.0" encoding="UTF-8"?>
<svg width="620px" height="429px" viewBox="0 0 620 429" version="1.1" xmlns="http://www.w3.org/2000/svg" xmlns:xlink="http://www.w3.org/1999/xlink">
    <!-- Generator: Sketch 58 (84663) - https://sketch.com -->
    <title>spending-graph-outline</title>
    <desc>Created with Sketch.</desc>
    <g id="spending-graph-outline" stroke="none" stroke-width="1" fill="none" fill-rule="evenodd">
        <g id="Group-2" transform="translate(7.185000, 17.765000)" fill-rule="nonzero">
            <g id="Group">
                <g id="Group-9" transform="translate(46.815000, 6.235000)">
                    <polygon id="Rectangle-16" fill="#FAFAFA" points="2 281 560 281 560 321 2 321"></polygon>
                    <polygon id="Rectangle-16" fill="#FAFAFA" points="2 201 560 201 560 241 2 241"></polygon>
                    <polygon id="Rectangle-16" fill="#FAFAFA" points="2 121 560 121 560 161 2 161"></polygon>
                    <polygon id="Rectangle-16" fill="#FAFAFA" points="2 41 560 41 560 81 2 81"></polygon>
                    <path d="M0.749999984,1.49895689 L0.249999984,360.998957 C0.249424629,361.41317 0.584743724,361.75 0.998956886,361.75 C1.41317005,361.75 1.74942318,361.415256 1.74999998,361.001043 L2.24999998,1.50104311 C2.25057537,1.08682995 1.91525628,0.749999984 1.50104311,0.749999984 C1.08682995,0.749999984 0.750576822,1.08474372 0.749999984,1.49895689 Z" id="Line-35" fill="#7D7D7D"></path>
                    <path d="M0.999329759,361.75 L560.49933,362.25 C560.913543,362.25037 561.25,361.914884 561.25,361.50067 C561.25,361.086457 560.914884,360.75037 560.50067,360.75 L1.00067024,360.25 C0.586456844,360.24963 0.249999993,360.585116 0.249999993,360.99933 C0.249999993,361.413543 0.585116362,361.74963 0.999329759,361.75 Z" id="Line-36" fill="#7D7D7D"></path>
                    <path d="M478.125385,394 L478.125385,392.015769 L479.079557,391.086585 C480.010591,390.175912 480.872208,389.320773 481.664423,388.521154 C482.72071,387.454995 483.619035,386.467825 484.359423,385.559615 C485.099811,384.651406 485.667434,383.80244 486.062308,383.012692 C486.457181,382.222945 486.654615,381.472696 486.654615,380.761923 C486.654615,379.754995 486.38808,378.960323 485.855,378.377885 C485.32192,377.795446 484.551928,377.504231 483.545,377.504231 C482.814484,377.504231 482.148144,377.711536 481.545962,378.126154 C480.943779,378.540771 480.386028,379.034356 479.872692,379.606923 L477.977308,377.711538 C478.84603,376.783585 479.739418,376.067887 480.6575,375.564423 C481.575582,375.060959 482.686147,374.809231 483.989231,374.809231 C484.89744,374.809231 485.716791,374.947435 486.447308,375.223846 C487.177824,375.500258 487.799741,375.89019 488.313077,376.393654 C488.826413,376.897118 489.226217,377.504227 489.5125,378.215 C489.798783,378.925773 489.941923,379.715508 489.941923,380.584231 C489.941923,381.413466 489.759297,382.257496 489.394038,383.116346 C489.02878,383.975197 488.535195,384.843906 487.913269,385.7225 C487.291343,386.601094 486.565773,387.504354 485.736538,388.432308 C484.907304,389.360261 484.028723,390.317816 483.100769,391.305 L484.7,391.171731 L484.7,391.171731 C485.272567,391.122372 485.785895,391.097692 486.24,391.097692 L490.86,391.097692 L490.86,394 L478.125385,394 Z M499.774231,394.355385 C497.799862,394.355385 496.240134,393.511355 495.095,391.823269 C493.949866,390.135184 493.377308,387.691939 493.377308,384.493462 C493.377308,381.294984 493.949866,378.881354 495.095,377.2525 C496.240134,375.623646 497.799862,374.809231 499.774231,374.809231 C501.7486,374.809231 503.308328,375.628582 504.453462,377.267308 C505.598595,378.906034 506.171154,381.314728 506.171154,384.493462 C506.171154,387.691939 505.598595,390.135184 504.453462,391.823269 C503.308328,393.511355 501.7486,394.355385 499.774231,394.355385 Z M499.774231,391.69 C500.228336,391.69 500.647883,391.566604 501.032885,391.319808 C501.417887,391.073012 501.748588,390.663336 502.025,390.090769 C502.301412,389.518202 502.518589,388.777825 502.676538,387.869615 C502.834488,386.961406 502.913462,385.836032 502.913462,384.493462 C502.913462,383.170634 502.834488,382.060069 502.676538,381.161731 C502.518589,380.263393 502.301412,379.537823 502.025,378.985 C501.748588,378.432177 501.417887,378.042245 501.032885,377.815192 C500.647883,377.58814 500.228336,377.474615 499.774231,377.474615 C499.320126,377.474615 498.900579,377.58814 498.515577,377.815192 C498.130575,378.042245 497.799873,378.432177 497.523462,378.985 C497.24705,379.537823 497.029873,380.263393 496.871923,381.161731 C496.713974,382.060069 496.635,383.170634 496.635,384.493462 C496.635,385.836032 496.713974,386.961406 496.871923,387.869615 C497.029873,388.777825 497.24705,389.518202 497.523462,390.090769 C497.799873,390.663336 498.130575,391.073012 498.515577,391.319808 C498.900579,391.566604 499.320126,391.69 499.774231,391.69 Z M509.576923,394 L509.576923,391.216154 L513.782308,391.216154 L513.782308,378.836923 L510.317308,378.836923 L510.317308,376.704615 C511.265005,376.526922 512.07942,376.314681 512.760577,376.067885 C513.441734,375.821089 514.078459,375.520002 514.670769,375.164615 L517.217692,375.164615 L517.217692,391.216154 L520.919615,391.216154 L520.919615,394 L509.576923,394 Z M529.804231,384.345385 C530.357054,384.345385 530.934548,384.17263 531.536731,383.827115 C532.138913,383.481601 532.686792,382.92385 533.180385,382.153846 C533.002691,380.495376 532.593016,379.291029 531.951346,378.540769 C531.309676,377.790509 530.534748,377.415385 529.626538,377.415385 C528.856535,377.415385 528.195131,377.721407 527.642308,378.333462 C527.089484,378.945516 526.813077,379.824097 526.813077,380.969231 C526.813077,382.094621 527.074677,382.938651 527.597885,383.501346 C528.121092,384.064041 528.856534,384.345385 529.804231,384.345385 Z M529.004615,394.355385 C527.879225,394.355385 526.901927,394.148079 526.072692,393.733462 C525.243457,393.318844 524.542567,392.815388 523.97,392.223077 L525.806154,390.15 C526.16154,390.564617 526.610702,390.905191 527.153654,391.171731 C527.696605,391.438271 528.254356,391.571538 528.826923,391.571538 C529.419234,391.571538 529.976985,391.453078 530.500192,391.216154 C531.0234,390.97923 531.482434,390.589298 531.877308,390.046346 C532.272181,389.503395 532.593012,388.787697 532.839808,387.899231 C533.086604,387.010765 533.229743,385.915007 533.269231,384.611923 C532.716407,385.302952 532.064876,385.84096 531.314615,386.225962 C530.564355,386.610963 529.843721,386.803462 529.152692,386.803462 C528.343201,386.803462 527.602824,386.685001 526.931538,386.448077 C526.260253,386.211153 525.682759,385.850836 525.199038,385.367115 C524.715318,384.883395 524.340194,384.276286 524.073654,383.545769 C523.807114,382.815253 523.673846,381.956415 523.673846,380.969231 C523.673846,380.021534 523.831793,379.167632 524.147692,378.4075 C524.463591,377.647368 524.888074,377.000772 525.421154,376.467692 C525.954233,375.934613 526.581086,375.524937 527.301731,375.238654 C528.022375,374.95237 528.787432,374.809231 529.596923,374.809231 C530.505133,374.809231 531.373842,374.991857 532.203077,375.357115 C533.032312,375.722374 533.757882,376.280124 534.379808,377.030385 C535.001734,377.780645 535.495319,378.733263 535.860577,379.888269 C536.225835,381.043275 536.408462,382.410505 536.408462,383.99 C536.408462,385.826163 536.206092,387.395763 535.801346,388.698846 C535.396601,390.00193 534.853657,391.073009 534.1725,391.912115 C533.491343,392.751222 532.701607,393.368203 531.803269,393.763077 C530.904931,394.157951 529.972056,394.355385 529.004615,394.355385 Z" id="2019" fill="#666666"></path>
                    <path d="M277.624462,389 L277.624462,388.573538 L278.287157,387.897788 C278.818679,387.351761 279.298393,386.848475 279.726308,386.387923 C280.325388,385.743151 280.82546,385.154233 281.226538,384.621154 C281.627617,384.088074 281.927153,383.595618 282.125154,383.143769 C282.323155,382.691921 282.422154,382.252771 282.422154,381.826308 C282.422154,381.217074 282.252079,380.70431 281.911923,380.288 C281.571768,379.87169 281.036158,379.663538 280.305077,379.663538 C279.858305,379.663538 279.442002,379.785383 279.056154,380.029077 C278.670306,380.27277 278.330155,380.577383 278.035692,380.942923 L277.594,380.516462 C277.95954,380.110306 278.363152,379.770155 278.804846,379.496 C279.246541,379.221845 279.76692,379.084769 280.366,379.084769 C281.239235,379.084769 281.914459,379.333536 282.391692,379.831077 C282.868925,380.328618 283.107538,380.988611 283.107538,381.811077 C283.107538,382.298464 283.000924,382.783305 282.787692,383.265615 C282.57446,383.747925 282.274925,384.255613 281.889077,384.788692 C281.503229,385.321772 281.033618,385.890382 280.480231,386.494538 L279.788144,387.245111 C279.42809,387.63319 279.047017,388.040459 278.644923,388.466923 C278.908924,388.446615 279.180537,388.428846 279.459769,388.413615 C279.739001,388.398385 280.010614,388.390769 280.274615,388.390769 L283.594923,388.390769 L283.594923,389 L277.624462,389 Z M287.935692,389.182769 C287.001534,389.182769 286.283156,388.74362 285.780538,387.865308 C285.277921,386.986996 285.026615,385.73047 285.026615,384.095692 C285.026615,382.471069 285.277921,381.229774 285.780538,380.371769 C286.283156,379.513765 287.001534,379.084769 287.935692,379.084769 C288.869851,379.084769 289.588228,379.513765 290.090846,380.371769 C290.593464,381.229774 290.844769,382.471069 290.844769,384.095692 C290.844769,385.73047 290.593464,386.986996 290.090846,387.865308 C289.588228,388.74362 288.869851,389.182769 287.935692,389.182769 Z M287.935692,388.604 C288.616003,388.604 289.15669,388.225773 289.557769,387.469308 C289.958848,386.712842 290.159385,385.588315 290.159385,384.095692 C290.159385,382.603069 289.958848,381.491234 289.557769,380.760154 C289.15669,380.029073 288.616003,379.663538 287.935692,379.663538 C287.265535,379.663538 286.727387,380.029073 286.321231,380.760154 C285.915075,381.491234 285.712,382.603069 285.712,384.095692 C285.712,385.588315 285.915075,386.712842 286.321231,387.469308 C286.727387,388.225773 287.265535,388.604 287.935692,388.604 Z M292.870462,389 L292.870462,388.406 L295.155077,388.406 L295.155077,380.333692 L293.418769,380.333692 L293.418769,379.876769 C293.814771,379.805692 294.167614,379.719385 294.477308,379.617846 C294.787002,379.516307 295.058614,379.399539 295.292154,379.267538 L295.840462,379.267538 L295.840462,388.406 L297.957538,388.406 L297.957538,389 L292.870462,389 Z M301.75,389 C301.790616,388.015072 301.874384,387.113927 302.001308,386.296538 C302.128231,385.47915 302.30846,384.707465 302.542,383.981462 C302.77554,383.255458 303.069998,382.559926 303.425385,381.894846 C303.780771,381.229766 304.202151,380.552003 304.689538,379.861538 L299.556769,379.861538 L299.556769,379.267538 L305.542462,379.267538 L305.542462,379.663538 C304.963689,380.435235 304.483925,381.176458 304.103154,381.887231 C303.722383,382.598004 303.41777,383.321458 303.189308,384.057615 C302.960845,384.793773 302.795847,385.562919 302.694308,386.365077 C302.592769,387.167235 302.521693,388.045534 302.481077,389 L301.75,389 Z" id="2017" fill="#666666"></path>
                    <path d="M384.624462,389 L384.624462,388.573538 L385.287157,387.897788 C385.818679,387.351761 386.298393,386.848475 386.726308,386.387923 C387.325388,385.743151 387.82546,385.154233 388.226538,384.621154 C388.627617,384.088074 388.927153,383.595618 389.125154,383.143769 C389.323155,382.691921 389.422154,382.252771 389.422154,381.826308 C389.422154,381.217074 389.252079,380.70431 388.911923,380.288 C388.571768,379.87169 388.036158,379.663538 387.305077,379.663538 C386.858305,379.663538 386.442002,379.785383 386.056154,380.029077 C385.670306,380.27277 385.330155,380.577383 385.035692,380.942923 L384.594,380.516462 C384.95954,380.110306 385.363152,379.770155 385.804846,379.496 C386.246541,379.221845 386.76692,379.084769 387.366,379.084769 C388.239235,379.084769 388.914459,379.333536 389.391692,379.831077 C389.868925,380.328618 390.107538,380.988611 390.107538,381.811077 C390.107538,382.298464 390.000924,382.783305 389.787692,383.265615 C389.57446,383.747925 389.274925,384.255613 388.889077,384.788692 C388.503229,385.321772 388.033618,385.890382 387.480231,386.494538 L386.788144,387.245111 C386.42809,387.63319 386.047017,388.040459 385.644923,388.466923 C385.908924,388.446615 386.180537,388.428846 386.459769,388.413615 C386.739001,388.398385 387.010614,388.390769 387.274615,388.390769 L390.594923,388.390769 L390.594923,389 L384.624462,389 Z M394.935692,389.182769 C394.001534,389.182769 393.283156,388.74362 392.780538,387.865308 C392.277921,386.986996 392.026615,385.73047 392.026615,384.095692 C392.026615,382.471069 392.277921,381.229774 392.780538,380.371769 C393.283156,379.513765 394.001534,379.084769 394.935692,379.084769 C395.869851,379.084769 396.588228,379.513765 397.090846,380.371769 C397.593464,381.229774 397.844769,382.471069 397.844769,384.095692 C397.844769,385.73047 397.593464,386.986996 397.090846,387.865308 C396.588228,388.74362 395.869851,389.182769 394.935692,389.182769 Z M394.935692,388.604 C395.616003,388.604 396.15669,388.225773 396.557769,387.469308 C396.958848,386.712842 397.159385,385.588315 397.159385,384.095692 C397.159385,382.603069 396.958848,381.491234 396.557769,380.760154 C396.15669,380.029073 395.616003,379.663538 394.935692,379.663538 C394.265535,379.663538 393.727387,380.029073 393.321231,380.760154 C392.915075,381.491234 392.712,382.603069 392.712,384.095692 C392.712,385.588315 392.915075,386.712842 393.321231,387.469308 C393.727387,388.225773 394.265535,388.604 394.935692,388.604 Z M409.587692,379.084769 C410.004002,379.084769 410.374614,379.14823 410.699538,379.275154 C411.024463,379.402078 411.301153,379.579768 411.529615,379.808231 C411.758078,380.036693 411.930692,380.305768 412.047462,380.615462 C412.164231,380.925155 412.222615,381.262767 412.222615,381.628308 C412.222615,381.892309 412.176924,382.148691 412.085538,382.397462 C411.994153,382.646232 411.879924,382.87723 411.742846,383.090462 C411.605769,383.303693 411.456001,383.496615 411.293538,383.669231 C411.131076,383.841847 410.97877,383.983999 410.836615,384.095692 L410.836615,384.156615 C411.049847,384.288616 411.257999,384.430768 411.461077,384.583077 C411.664155,384.735385 411.844384,384.907999 412.001769,385.100923 C412.159155,385.293847 412.288615,385.517229 412.390154,385.771077 C412.491693,386.024924 412.542462,386.314306 412.542462,386.639231 C412.542462,386.994617 412.471385,387.327152 412.329231,387.636846 C412.187076,387.94654 411.98654,388.215614 411.727615,388.444077 C411.468691,388.67254 411.156463,388.852769 410.790923,388.984769 C410.425383,389.11677 410.02431,389.182769 409.587692,389.182769 C409.140921,389.182769 408.729694,389.114231 408.354,388.977154 C407.978306,388.840076 407.653386,388.652232 407.379231,388.413615 C407.105076,388.174999 406.889308,387.893232 406.731923,387.568308 C406.574538,387.243383 406.495846,386.888002 406.495846,386.502154 C406.495846,386.177229 406.55423,385.872617 406.671,385.588308 C406.78777,385.303999 406.940076,385.047617 407.127923,384.819154 C407.31577,384.590691 407.523922,384.387616 407.752385,384.209923 C407.980847,384.03223 408.211845,383.882462 408.445385,383.760615 L408.445385,383.699692 C408.262614,383.577846 408.087462,383.443308 407.919923,383.296077 C407.752384,383.148845 407.605154,382.981309 407.478231,382.793462 C407.351307,382.605614 407.247231,382.40254 407.166,382.184231 C407.084769,381.965922 407.044154,381.724771 407.044154,381.460769 C407.044154,381.115537 407.110153,380.795694 407.242154,380.501231 C407.374155,380.206768 407.554383,379.955463 407.782846,379.747308 C408.011309,379.539153 408.280383,379.376693 408.590077,379.259923 C408.899771,379.143153 409.232306,379.084769 409.587692,379.084769 Z M402.840462,379.267538 L402.840462,388.406 L404.957538,388.406 L404.957538,389 L399.870462,389 L399.870462,388.406 L402.155077,388.406 L402.155077,380.333692 L400.418769,380.333692 L400.418769,379.876769 C400.814771,379.805692 401.167614,379.719385 401.477308,379.617846 C401.787002,379.516307 402.058614,379.399539 402.292154,379.267538 L402.840462,379.267538 Z M408.887077,384.019538 C408.389536,384.314001 407.978309,384.661767 407.653385,385.062846 C407.32846,385.463925 407.166,385.933536 407.166,386.471692 C407.166,386.776309 407.226922,387.058076 407.348769,387.317 C407.470616,387.575924 407.638153,387.801845 407.851385,387.994769 C408.064616,388.187693 408.31846,388.339999 408.612923,388.451692 C408.907386,388.563385 409.232306,388.619231 409.587692,388.619231 C409.932925,388.619231 410.245152,388.568462 410.524385,388.466923 C410.803617,388.365384 411.04223,388.223232 411.240231,388.040462 C411.438232,387.857691 411.590538,387.644463 411.697154,387.400769 C411.80377,387.157076 411.857077,386.898155 411.857077,386.624 C411.857077,386.248306 411.773309,385.931001 411.605769,385.672077 C411.43823,385.413153 411.214848,385.184693 410.935615,384.986692 C410.656383,384.788691 410.339079,384.616078 409.983692,384.468846 L409.983692,384.468846 Z M409.587692,379.648308 C409.313537,379.648308 409.062232,379.694 408.833769,379.785385 C408.605307,379.87677 408.407309,380.001153 408.239769,380.158538 C408.07223,380.315924 407.94277,380.506307 407.851385,380.729692 C407.76,380.953078 407.714308,381.196768 407.714308,381.460769 C407.714308,381.806002 407.787922,382.102999 407.935154,382.351769 C408.082385,382.60054 408.277845,382.818845 408.521538,383.006692 C408.765232,383.194539 409.041922,383.359538 409.351615,383.501692 C409.661309,383.643847 409.978614,383.775846 410.303538,383.897692 C410.719848,383.562614 411.037153,383.209771 411.255462,382.839154 C411.47377,382.468537 411.582923,382.070002 411.582923,381.643538 C411.582923,381.369383 411.537231,381.113001 411.445846,380.874385 C411.354461,380.635768 411.225001,380.425078 411.057462,380.242308 C410.889922,380.059538 410.68177,379.914847 410.433,379.808231 C410.18423,379.701615 409.902463,379.648308 409.587692,379.648308 Z" id="2018" fill="#666666"></path>
                    <path d="M171.624462,389 L171.624462,388.573538 L172.287157,387.897788 C172.818679,387.351761 173.298393,386.848475 173.726308,386.387923 C174.325388,385.743151 174.82546,385.154233 175.226538,384.621154 C175.627617,384.088074 175.927153,383.595618 176.125154,383.143769 C176.323155,382.691921 176.422154,382.252771 176.422154,381.826308 C176.422154,381.217074 176.252079,380.70431 175.911923,380.288 C175.571768,379.87169 175.036158,379.663538 174.305077,379.663538 C173.858305,379.663538 173.442002,379.785383 173.056154,380.029077 C172.670306,380.27277 172.330155,380.577383 172.035692,380.942923 L171.594,380.516462 C171.95954,380.110306 172.363152,379.770155 172.804846,379.496 C173.246541,379.221845 173.76692,379.084769 174.366,379.084769 C175.239235,379.084769 175.914459,379.333536 176.391692,379.831077 C176.868925,380.328618 177.107538,380.988611 177.107538,381.811077 C177.107538,382.298464 177.000924,382.783305 176.787692,383.265615 C176.57446,383.747925 176.274925,384.255613 175.889077,384.788692 C175.503229,385.321772 175.033618,385.890382 174.480231,386.494538 L173.788144,387.245111 C173.42809,387.63319 173.047017,388.040459 172.644923,388.466923 C172.908924,388.446615 173.180537,388.428846 173.459769,388.413615 C173.739001,388.398385 174.010614,388.390769 174.274615,388.390769 L177.594923,388.390769 L177.594923,389 L171.624462,389 Z M181.935692,389.182769 C181.001534,389.182769 180.283156,388.74362 179.780538,387.865308 C179.277921,386.986996 179.026615,385.73047 179.026615,384.095692 C179.026615,382.471069 179.277921,381.229774 179.780538,380.371769 C180.283156,379.513765 181.001534,379.084769 181.935692,379.084769 C182.869851,379.084769 183.588228,379.513765 184.090846,380.371769 C184.593464,381.229774 184.844769,382.471069 184.844769,384.095692 C184.844769,385.73047 184.593464,386.986996 184.090846,387.865308 C183.588228,388.74362 182.869851,389.182769 181.935692,389.182769 Z M181.935692,388.604 C182.616003,388.604 183.15669,388.225773 183.557769,387.469308 C183.958848,386.712842 184.159385,385.588315 184.159385,384.095692 C184.159385,382.603069 183.958848,381.491234 183.557769,380.760154 C183.15669,380.029073 182.616003,379.663538 181.935692,379.663538 C181.265535,379.663538 180.727387,380.029073 180.321231,380.760154 C179.915075,381.491234 179.712,382.603069 179.712,384.095692 C179.712,385.588315 179.915075,386.712842 180.321231,387.469308 C180.727387,388.225773 181.265535,388.604 181.935692,388.604 Z M197.257846,379.084769 C197.714772,379.084769 198.108229,379.171076 198.438231,379.343692 C198.768232,379.516309 199.060153,379.744768 199.314,380.029077 L198.902769,380.486 C198.689537,380.221999 198.440771,380.021462 198.156462,379.884385 C197.872152,379.747307 197.572617,379.678769 197.257846,379.678769 C196.871998,379.678769 196.503925,379.762538 196.153615,379.930077 C195.803306,380.097616 195.496155,380.369229 195.232154,380.744923 C194.968153,381.120617 194.757462,381.615612 194.600077,382.229923 C194.442692,382.844234 194.364,383.593073 194.364,384.476462 C194.699079,384.060152 195.077306,383.730155 195.498692,383.486462 C195.920079,383.242768 196.359228,383.120923 196.816154,383.120923 C197.679235,383.120923 198.346844,383.377305 198.819,383.890077 C199.291156,384.402849 199.527231,385.151687 199.527231,386.136615 C199.527231,386.583387 199.456155,386.992075 199.314,387.362692 C199.171845,387.73331 198.978924,388.053153 198.735231,388.322231 C198.491537,388.591309 198.209771,388.801999 197.889923,388.954308 C197.570075,389.106616 197.227386,389.182769 196.861846,389.182769 C195.876918,389.182769 195.100157,388.786773 194.531538,387.994769 C193.96292,387.202765 193.678615,386.065546 193.678615,384.583077 C193.678615,383.567687 193.777614,382.709696 193.975615,382.009077 C194.173616,381.308458 194.437614,380.739848 194.767615,380.303231 C195.097617,379.866613 195.478382,379.554386 195.909923,379.366538 C196.341464,379.178691 196.790767,379.084769 197.257846,379.084769 Z M189.840462,379.267538 L189.840462,388.406 L191.957538,388.406 L191.957538,389 L186.870462,389 L186.870462,388.406 L189.155077,388.406 L189.155077,380.333692 L187.418769,380.333692 L187.418769,379.876769 C187.814771,379.805692 188.167614,379.719385 188.477308,379.617846 C188.787002,379.516307 189.058614,379.399539 189.292154,379.267538 L189.840462,379.267538 Z M196.74,383.699692 C196.394768,383.699692 196.014002,383.808845 195.597692,384.027154 C195.181383,384.245463 194.775233,384.62369 194.379231,385.161846 C194.409692,385.679695 194.483307,386.149306 194.600077,386.570692 C194.716847,386.992079 194.876768,387.352537 195.079846,387.652077 C195.282924,387.951617 195.534229,388.185153 195.833769,388.352692 C196.133309,388.520232 196.481075,388.604 196.877077,388.604 C197.161386,388.604 197.422845,388.540539 197.661462,388.413615 C197.900078,388.286692 198.105691,388.11154 198.278308,387.888154 C198.450924,387.664768 198.587999,387.403309 198.689538,387.103769 C198.791077,386.804229 198.841846,386.481848 198.841846,386.136615 C198.841846,385.791383 198.801231,385.469001 198.72,385.169462 C198.638769,384.869922 198.514385,384.611001 198.346846,384.392692 C198.179307,384.174384 197.961001,384.004308 197.691923,383.882462 C197.422845,383.760615 197.10554,383.699692 196.74,383.699692 Z" id="2016" fill="#666666"></path>
                    <path d="M64.6244615,389 L64.6244615,388.573538 L65.2871566,387.897788 C65.818679,387.351761 66.2983935,386.848475 66.7263077,386.387923 C67.3253876,385.743151 67.8254595,385.154233 68.2265385,384.621154 C68.6276174,384.088074 68.9271529,383.595618 69.1251538,383.143769 C69.3231548,382.691921 69.4221538,382.252771 69.4221538,381.826308 C69.4221538,381.217074 69.2520786,380.70431 68.9119231,380.288 C68.5717675,379.87169 68.0361575,379.663538 67.3050769,379.663538 C66.8583055,379.663538 66.4420019,379.785383 66.0561538,380.029077 C65.6703058,380.27277 65.3301553,380.577383 65.0356923,380.942923 L64.594,380.516462 C64.9595403,380.110306 65.3631516,379.770155 65.8048462,379.496 C66.2465407,379.221845 66.7669201,379.084769 67.366,379.084769 C68.2392351,379.084769 68.9144592,379.333536 69.3916923,379.831077 C69.8689255,380.328618 70.1075385,380.988611 70.1075385,381.811077 C70.1075385,382.298464 70.0009241,382.783305 69.7876923,383.265615 C69.5744605,383.747925 69.274925,384.255613 68.8890769,384.788692 C68.5032288,385.321772 68.0336182,385.890382 67.4802308,386.494538 L66.7881444,387.245111 C66.4280898,387.63319 66.0470174,388.040459 65.6449231,388.466923 C65.9089244,388.446615 66.1805371,388.428846 66.4597692,388.413615 C66.7390014,388.398385 67.0106141,388.390769 67.2746154,388.390769 L70.5949231,388.390769 L70.5949231,389 L64.6244615,389 Z M74.9356923,389.182769 C74.0015338,389.182769 73.2831564,388.74362 72.7805385,387.865308 C72.2779206,386.986996 72.0266154,385.73047 72.0266154,384.095692 C72.0266154,382.471069 72.2779206,381.229774 72.7805385,380.371769 C73.2831564,379.513765 74.0015338,379.084769 74.9356923,379.084769 C75.8698508,379.084769 76.5882283,379.513765 77.0908462,380.371769 C77.5934641,381.229774 77.8447692,382.471069 77.8447692,384.095692 C77.8447692,385.73047 77.5934641,386.986996 77.0908462,387.865308 C76.5882283,388.74362 75.8698508,389.182769 74.9356923,389.182769 Z M74.9356923,388.604 C75.6160034,388.604 76.1566903,388.225773 76.5577692,387.469308 C76.9588482,386.712842 77.1593846,385.588315 77.1593846,384.095692 C77.1593846,382.603069 76.9588482,381.491234 76.5577692,380.760154 C76.1566903,380.029073 75.6160034,379.663538 74.9356923,379.663538 C74.2655351,379.663538 73.7273866,380.029073 73.3212308,380.760154 C72.9150749,381.491234 72.712,382.603069 72.712,384.095692 C72.712,385.588315 72.9150749,386.712842 73.3212308,387.469308 C73.7273866,388.225773 74.2655351,388.604 74.9356923,388.604 Z M79.8704615,389 L79.8704615,388.406 L82.1550769,388.406 L82.1550769,380.333692 L80.4187692,380.333692 L80.4187692,379.876769 C80.8147712,379.805692 81.1676138,379.719385 81.4773077,379.617846 C81.7870015,379.516307 82.0586142,379.399539 82.2921538,379.267538 L82.8404615,379.267538 L82.8404615,388.406 L84.9575385,388.406 L84.9575385,389 L79.8704615,389 Z M89.344,389.182769 C88.9581519,389.182769 88.6103862,389.144693 88.3006923,389.068538 C87.9909985,388.992384 87.7117705,388.890847 87.463,388.763923 C87.2142295,388.636999 86.9933856,388.494847 86.8004615,388.337462 C86.6075375,388.180076 86.4349238,388.025232 86.2826154,387.872923 L86.6633846,387.400769 C86.8055392,387.553078 86.9629222,387.700307 87.1355385,387.842462 C87.3081547,387.984616 87.5010759,388.111538 87.7143077,388.223231 C87.9275395,388.334924 88.1661525,388.423769 88.4301538,388.489769 C88.6941552,388.55577 88.9936906,388.588769 89.3287692,388.588769 C89.6536939,388.588769 89.9633831,388.525308 90.2578462,388.398385 C90.5523092,388.271461 90.8086912,388.09377 91.027,387.865308 C91.2453088,387.636845 91.4204609,387.362694 91.5524615,387.042846 C91.6844622,386.722998 91.7504615,386.365079 91.7504615,385.969077 C91.7504615,385.177073 91.5372329,384.560233 91.1107692,384.118538 C90.6843056,383.676844 90.1055421,383.456 89.3744615,383.456 C88.9987674,383.456 88.676386,383.514384 88.4073077,383.631154 C88.1382294,383.747924 87.856463,383.907845 87.562,384.110923 L87.0898462,383.821538 L87.4401538,379.267538 L91.9332308,379.267538 L91.9332308,379.861538 L88.0493846,379.861538 L87.7447692,383.379846 C87.9986167,383.227538 88.262614,383.103154 88.5367692,383.006692 C88.8109244,382.91023 89.1256905,382.862 89.4810769,382.862 C89.8872328,382.862 90.2730751,382.922922 90.6386154,383.044769 C91.0041557,383.166616 91.3189218,383.351922 91.5829231,383.600692 C91.8469244,383.849463 92.0576146,384.169306 92.215,384.560231 C92.3723854,384.951156 92.4510769,385.410613 92.4510769,385.938615 C92.4510769,386.456464 92.3622317,386.915921 92.1845385,387.317 C92.0068453,387.718079 91.7733091,388.058229 91.4839231,388.337462 C91.194537,388.616694 90.8645403,388.827384 90.4939231,388.969538 C90.1233058,389.111693 89.740002,389.182769 89.344,389.182769 Z" id="2015" fill="#666666"></path>
                    <polygon id="Line-3" fill="#666666" opacity="0.1" points="1.5 240.5 1.5 241.5 560.5 241.5 560.5 240.5"></polygon>
                    <polygon id="Line-3" fill="#666666" opacity="0.1" points="1.5 280.5 1.5 281.5 560.5 281.5 560.5 280.5"></polygon>
                    <polygon id="Line-3" fill="#666666" opacity="0.1" points="1.5 80.5 1.5 81.5 560.5 81.5 560.5 80.5"></polygon>
                    <polygon id="Line-3" fill="#666666" opacity="0.1" points="1.5 120.5 1.5 121.5 560.5 121.5 560.5 120.5"></polygon>
                    <polygon id="Line-3" fill="#666666" opacity="0.1" points="1.5 160.5 1.5 161.5 560.5 161.5 560.5 160.5"></polygon>
                    <polygon id="Line-3" fill="#666666" opacity="0.1" points="1.5 200.5 1.5 201.5 560.5 201.5 560.5 200.5"></polygon>
                    <polygon id="Line-3" fill="#666666" opacity="0.1" points="1.5 40.5 1.5 41.5 560.5 41.5 560.5 40.5"></polygon>
                    <polygon id="Line-3" fill="#666666" opacity="0.1" points="1.50044783 0.499552573 1.49955257 1.49955217 560.999552 2.00044743 561.000447 1.00044783"></polygon>
                    <polygon id="Line-3" fill="#666666" opacity="0.1" points="1.5 320.5 1.5 321.5 560.5 321.5 560.5 320.5"></polygon>
                    <path d="M166,54 L210,54 C211.656854,54 213,55.3431458 213,57 L213,361 L213,361 L163,361 L163,57 C163,55.3431458 164.343146,54 166,54 Z" id="Rectangle-2" fill="#00766C"></path>
                    <path d="M272,42 L316,42 C317.656854,42 319,43.3431458 319,45 L319,361 L319,361 L269,361 L269,45 C269,43.3431458 270.343146,42 272,42 Z" id="Rectangle-2" fill="#00766C"></path>
                    <path d="M379,34 L423,34 C424.656854,34 426,35.3431458 426,37 L426,361 L426,361 L376,361 L376,37 C376,35.3431458 377.343146,34 379,34 Z" id="Rectangle-2" fill="#00766C"></path>
                    <path d="M485,11 L529,11 C530.656854,11 532,12.3431458 532,14 L532,361 L532,361 L482,361 L482,14 C482,12.3431458 483.343146,11 485,11 Z" id="Rectangle-2-Copy" fill="#00766C"></path>
                    <path d="M59,64 L103,64 C104.656854,64 106,65.3431458 106,67 L106,361 L106,361 L56,361 L56,67 C56,65.3431458 57.3431458,64 59,64 Z" id="Rectangle-2" fill="#00766C"></path>
                </g>
                <path d="M2.505,12.885 L2.505,11.4 C1.9849974,11.3599998 1.51000215,11.2275011 1.08,11.0025 C0.64999785,10.7774989 0.29000145,10.5250014 -1.30739863e-12,10.245 L0.36,9.78 C0.65000145,10.0400013 0.994998,10.2799989 1.395,10.5 C1.795002,10.7200011 2.2549974,10.83 2.775,10.83 C3.40500315,10.83 3.88749832,10.6600017 4.2225,10.32 C4.55750167,9.9799983 4.725,9.53500275 4.725,8.985 C4.725,8.49499755 4.61750107,8.09750152 4.4025,7.7925 C4.18749892,7.48749847 3.9200016,7.22750107 3.6,7.0125 C3.3599988,6.85124919 3.1045317,6.70265632 2.83359432,6.56671896 L2.5575,6.435 C2.18249812,6.26499915 1.8350016,6.0700011 1.515,5.85 C1.1949984,5.6299989 0.927501075,5.36250157 0.7125,5.0475 C0.497498925,4.73249842 0.39,4.32000255 0.39,3.81 C0.39,3.5 0.442499475,3.21000135 0.5475,2.94 C0.652500525,2.66999865 0.79999905,2.43250102 0.99,2.2275 C1.18000095,2.02249897 1.4049987,1.85500065 1.665,1.725 C1.9250013,1.59499935 2.2049985,1.51500015 2.505,1.485 L2.505,-2.61479727e-12 L3.09,-2.61479727e-12 L3.09,1.485 C3.58000245,1.51500015 3.97999845,1.629999 4.29,1.83 C4.60000155,2.030001 4.8849987,2.26499865 5.145,2.535 L4.755,2.955 C4.6149993,2.8149993 4.47750067,2.69000055 4.3425,2.58 C4.20749932,2.46999945 4.06500075,2.3750004 3.915,2.295 C3.76499925,2.2149996 3.6000009,2.1550002 3.42,2.115 C3.2399991,2.0749998 3.03500115,2.055 2.805,2.055 C2.2849974,2.055 1.8650016,2.21749837 1.545,2.5425 C1.2249984,2.86750162 1.065,3.2799975 1.065,3.78 C1.065,4.2200022 1.17249892,4.57249867 1.3875,4.8375 C1.60250107,5.10250132 1.8699984,5.33249902 2.19,5.5275 C2.4300012,5.67375073 2.6854683,5.8115624 2.95640568,5.94093729 L3.2325,6.0675 C3.60750187,6.23250082 3.9549984,6.43249882 4.275,6.6675 C4.5950016,6.90250117 4.86249892,7.19749822 5.0775,7.5525 C5.29250107,7.90750177 5.4,8.36999715 5.4,8.94 C5.4,9.6600036 5.18250217,10.2349978 4.7475,10.665 C4.31249782,11.0950021 3.76000335,11.3399997 3.09,11.4 L3.09,12.885 L2.505,12.885 Z M13.95,11.235 L13.95,8.37 L9.54,8.37 L9.54,7.98 L13.995,1.65 L14.595,1.65 L14.595,7.8 L16.02,7.8 L16.02,8.37 L14.595,8.37 L14.595,11.235 L13.95,11.235 Z M10.35,7.8 L13.95,7.8 L13.95,4.29 C13.95,4.11399912 13.9532,3.9028007 13.9596,3.65640053 L13.965,3.465 C13.975,3.13499835 13.9899999,2.8600011 14.01,2.64 L13.95,2.64 L13.76625,2.93625002 L13.76625,2.93625002 L13.3083335,3.62499972 C13.262778,3.69499962 13.2166669,3.7666663 13.17,3.84 L10.35,7.8 Z M18.135,11.415 C17.9649991,11.415 17.8150006,11.3550006 17.685,11.235 C17.5549993,11.1149994 17.49,10.950001 17.49,10.74 C17.49,10.5199989 17.5549993,10.3500006 17.685,10.23 C17.8150006,10.1099994 17.9649991,10.05 18.135,10.05 C18.3050008,10.05 18.4524994,10.1099994 18.5775,10.23 C18.7025006,10.3500006 18.765,10.5199989 18.765,10.74 C18.765,10.950001 18.7025006,11.1149994 18.5775,11.235 C18.4524994,11.3550006 18.3050008,11.415 18.135,11.415 Z M23.175,11.415 C22.7949981,11.415 22.4525015,11.3775004 22.1475,11.3025 C21.8424985,11.2274996 21.5675012,11.1275006 21.3225,11.0025 C21.0774988,10.8774994 20.8600009,10.7375008 20.67,10.5825 C20.479999,10.4274992 20.3100007,10.2750007 20.16,10.125 L20.535,9.66 C20.6750007,9.81000075 20.8299991,9.9549993 21,10.095 C21.1700008,10.2350007 21.3599989,10.3599994 21.57,10.47 C21.780001,10.5800005 22.0149987,10.6674997 22.275,10.7325 C22.5350013,10.7975003 22.8299983,10.83 23.16,10.83 C23.4800016,10.83 23.7849985,10.7675006 24.075,10.6425 C24.3650014,10.5174994 24.6174989,10.3425011 24.8325,10.1175 C25.0475011,9.89249887 25.2199993,9.62250157 25.35,9.3075 C25.4800006,8.99249842 25.545,8.64000195 25.545,8.25 C25.545,7.4699961 25.3350021,6.86250217 24.915,6.4275 C24.4949979,5.99249782 23.9250036,5.775 23.205,5.775 C22.8349981,5.775 22.5175013,5.83249942 22.2525,5.9475 C21.9874987,6.06250057 21.7100014,6.219999 21.42,6.42 L20.955,6.135 L21.3,1.65 L25.725,1.65 L25.725,2.235 L21.9,2.235 L21.6,5.7 C21.8500012,5.54999925 22.1099986,5.42750047 22.38,5.3325 C22.6500013,5.23749952 22.9599982,5.19 23.31,5.19 C23.710002,5.19 24.0899982,5.2499994 24.45,5.37 C24.8100018,5.4900006 25.1199987,5.67249877 25.38,5.9175 C25.6400013,6.16250122 25.8474992,6.47749807 26.0025,6.8625 C26.1575008,7.24750192 26.235,7.6999974 26.235,8.22 C26.235,8.73000255 26.1475009,9.18249802 25.9725,9.5775 C25.7974991,9.97250197 25.5675014,10.3074986 25.2825,10.5825 C24.9974986,10.8575014 24.6725018,11.0649993 24.3075,11.205 C23.9424982,11.3450007 23.5650019,11.415 23.175,11.415 Z M33.54,11.235 L33.54,1.95 L30.39,1.95 L30.39,1.35 L37.38,1.35 L37.38,1.95 L34.23,1.95 L34.23,11.235 L33.54,11.235 Z M2.505,52.885 L2.505,51.4 C1.9849974,51.3599998 1.51000215,51.2275011 1.08,51.0025 C0.64999785,50.7774989 0.29000145,50.5250014 -1.30739863e-12,50.245 L0.36,49.78 C0.65000145,50.0400013 0.994998,50.2799989 1.395,50.5 C1.795002,50.7200011 2.2549974,50.83 2.775,50.83 C3.40500315,50.83 3.88749832,50.6600017 4.2225,50.32 C4.55750167,49.9799983 4.725,49.5350027 4.725,48.985 C4.725,48.4949975 4.61750107,48.0975015 4.4025,47.7925 C4.18749892,47.4874985 3.9200016,47.2275011 3.6,47.0125 C3.3599988,46.8512492 3.1045317,46.7026563 2.83359432,46.566719 L2.5575,46.435 C2.18249812,46.2649991 1.8350016,46.0700011 1.515,45.85 C1.1949984,45.6299989 0.927501075,45.3625016 0.7125,45.0475 C0.497498925,44.7324984 0.39,44.3200025 0.39,43.81 C0.39,43.5 0.442499475,43.2100013 0.5475,42.94 C0.652500525,42.6699986 0.79999905,42.432501 0.99,42.2275 C1.18000095,42.022499 1.4049987,41.8550006 1.665,41.725 C1.9250013,41.5949993 2.2049985,41.5150001 2.505,41.485 L2.505,40 L3.09,40 L3.09,41.485 C3.58000245,41.5150001 3.97999845,41.629999 4.29,41.83 C4.60000155,42.030001 4.8849987,42.2649986 5.145,42.535 L4.755,42.955 C4.6149993,42.8149993 4.47750067,42.6900005 4.3425,42.58 C4.20749932,42.4699994 4.06500075,42.3750004 3.915,42.295 C3.76499925,42.2149996 3.6000009,42.1550002 3.42,42.115 C3.2399991,42.0749998 3.03500115,42.055 2.805,42.055 C2.2849974,42.055 1.8650016,42.2174984 1.545,42.5425 C1.2249984,42.8675016 1.065,43.2799975 1.065,43.78 C1.065,44.2200022 1.17249892,44.5724987 1.3875,44.8375 C1.60250107,45.1025013 1.8699984,45.332499 2.19,45.5275 C2.4300012,45.6737507 2.6854683,45.8115624 2.95640568,45.9409373 L3.2325,46.0675 C3.60750187,46.2325008 3.9549984,46.4324988 4.275,46.6675 C4.5950016,46.9025012 4.86249892,47.1974982 5.0775,47.5525 C5.29250107,47.9075018 5.4,48.3699971 5.4,48.94 C5.4,49.6600036 5.18250217,50.2349978 4.7475,50.665 C4.31249782,51.0950021 3.76000335,51.3399997 3.09,51.4 L3.09,52.885 L2.505,52.885 Z M13.95,51.235 L13.95,48.37 L9.54,48.37 L9.54,47.98 L13.995,41.65 L14.595,41.65 L14.595,47.8 L16.02,47.8 L16.02,48.37 L14.595,48.37 L14.595,51.235 L13.95,51.235 Z M10.35,47.8 L13.95,47.8 L13.95,44.29 C13.95,44.1139991 13.9532,43.9028007 13.9596,43.6564005 L13.965,43.465 C13.975,43.1349983 13.9899999,42.8600011 14.01,42.64 L13.95,42.64 L13.76625,42.93625 L13.76625,42.93625 L13.3083335,43.6249997 C13.262778,43.6949996 13.2166669,43.7666663 13.17,43.84 L10.35,47.8 Z M18.135,51.415 C17.9649991,51.415 17.8150006,51.3550006 17.685,51.235 C17.5549993,51.1149994 17.49,50.950001 17.49,50.74 C17.49,50.5199989 17.5549993,50.3500006 17.685,50.23 C17.8150006,50.1099994 17.9649991,50.05 18.135,50.05 C18.3050008,50.05 18.4524994,50.1099994 18.5775,50.23 C18.7025006,50.3500006 18.765,50.5199989 18.765,50.74 C18.765,50.950001 18.7025006,51.1149994 18.5775,51.235 C18.4524994,51.3550006 18.3050008,51.415 18.135,51.415 Z M23.355,51.415 C22.4349954,51.415 21.7275025,50.9825043 21.2325,50.1175 C20.7374975,49.2524957 20.49,48.015008 20.49,46.405 C20.49,44.804992 20.7374975,43.5825042 21.2325,42.7375 C21.7275025,41.8924958 22.4349954,41.47 23.355,41.47 C24.2750046,41.47 24.9824975,41.8924958 25.4775,42.7375 C25.9725025,43.5825042 26.22,44.804992 26.22,46.405 C26.22,48.015008 25.9725025,49.2524957 25.4775,50.1175 C24.9824975,50.9825043 24.2750046,51.415 23.355,51.415 Z M23.355,50.845 C24.0250033,50.845 24.557498,50.4725037 24.9525,49.7275 C25.347502,48.9824963 25.545,47.8750073 25.545,46.405 C25.545,44.9349926 25.347502,43.8400036 24.9525,43.12 C24.557498,42.3999964 24.0250033,42.04 23.355,42.04 C22.6949967,42.04 22.165,42.3999964 21.765,43.12 C21.364998,43.8400036 21.165,44.9349926 21.165,46.405 C21.165,47.8750073 21.364998,48.9824963 21.765,49.7275 C22.165,50.4725037 22.6949967,50.845 23.355,50.845 Z M33.54,51.235 L33.54,41.95 L30.39,41.95 L30.39,41.35 L37.38,41.35 L37.38,41.95 L34.23,41.95 L34.23,51.235 L33.54,51.235 Z M2.505,92.885 L2.505,91.4 C1.9849974,91.3599998 1.51000215,91.2275011 1.08,91.0025 C0.64999785,90.7774989 0.29000145,90.5250014 -1.30739863e-12,90.245 L0.36,89.78 C0.65000145,90.0400013 0.994998,90.2799989 1.395,90.5 C1.795002,90.7200011 2.2549974,90.83 2.775,90.83 C3.40500315,90.83 3.88749832,90.6600017 4.2225,90.32 C4.55750167,89.9799983 4.725,89.5350027 4.725,88.985 C4.725,88.4949975 4.61750107,88.0975015 4.4025,87.7925 C4.18749892,87.4874985 3.9200016,87.2275011 3.6,87.0125 C3.3599988,86.8512492 3.1045317,86.7026563 2.83359432,86.566719 L2.5575,86.435 C2.18249812,86.2649991 1.8350016,86.0700011 1.515,85.85 C1.1949984,85.6299989 0.927501075,85.3625016 0.7125,85.0475 C0.497498925,84.7324984 0.39,84.3200025 0.39,83.81 C0.39,83.5 0.442499475,83.2100013 0.5475,82.94 C0.652500525,82.6699986 0.79999905,82.432501 0.99,82.2275 C1.18000095,82.022499 1.4049987,81.8550006 1.665,81.725 C1.9250013,81.5949993 2.2049985,81.5150001 2.505,81.485 L2.505,80 L3.09,80 L3.09,81.485 C3.58000245,81.5150001 3.97999845,81.629999 4.29,81.83 C4.60000155,82.030001 4.8849987,82.2649986 5.145,82.535 L4.755,82.955 C4.6149993,82.8149993 4.47750067,82.6900005 4.3425,82.58 C4.20749932,82.4699994 4.06500075,82.3750004 3.915,82.295 C3.76499925,82.2149996 3.6000009,82.1550002 3.42,82.115 C3.2399991,82.0749998 3.03500115,82.055 2.805,82.055 C2.2849974,82.055 1.8650016,82.2174984 1.545,82.5425 C1.2249984,82.8675016 1.065,83.2799975 1.065,83.78 C1.065,84.2200022 1.17249892,84.5724987 1.3875,84.8375 C1.60250107,85.1025013 1.8699984,85.332499 2.19,85.5275 C2.4300012,85.6737507 2.6854683,85.8115624 2.95640568,85.9409373 L3.2325,86.0675 C3.60750187,86.2325008 3.9549984,86.4324988 4.275,86.6675 C4.5950016,86.9025012 4.86249892,87.1974982 5.0775,87.5525 C5.29250107,87.9075018 5.4,88.3699971 5.4,88.94 C5.4,89.6600036 5.18250217,90.2349978 4.7475,90.665 C4.31249782,91.0950021 3.76000335,91.3399997 3.09,91.4 L3.09,92.885 L2.505,92.885 Z M12.78,91.415 C12.3999981,91.415 12.0550015,91.3750004 11.745,91.295 C11.4349984,91.2149996 11.1575012,91.1100006 10.9125,90.98 C10.6674988,90.8499993 10.447501,90.7050008 10.2525,90.545 C10.057499,90.3849992 9.88500075,90.2250008 9.735,90.065 L10.125,89.6 C10.2650007,89.7600008 10.4199991,89.9124993 10.59,90.0575 C10.7600008,90.2025007 10.9524989,90.3324994 11.1675,90.4475 C11.3825011,90.5625006 11.6224987,90.6549996 11.8875,90.725 C12.1525013,90.7950003 12.4499983,90.83 12.78,90.83 C13.1000016,90.83 13.3974986,90.7800005 13.6725,90.68 C13.9475014,90.5799995 14.184999,90.4375009 14.385,90.2525 C14.585001,90.0674991 14.7399994,89.8450013 14.85,89.585 C14.9600005,89.3249987 15.015,89.0350016 15.015,88.715 C15.015,88.3849983 14.9525006,88.0850013 14.8275,87.815 C14.7024994,87.5449986 14.5075013,87.312501 14.2425,87.1175 C13.9774987,86.922499 13.6325021,86.7700005 13.2075,86.66 C12.7824979,86.5499994 12.270003,86.495 11.67,86.495 L11.67,85.91 C12.2200027,85.91 12.6874981,85.8550005 13.0725,85.745 C13.4575019,85.6349994 13.7674988,85.4875009 14.0025,85.3025 C14.2375012,85.1174991 14.4074995,84.8975013 14.5125,84.6425 C14.6175005,84.3874987 14.67,84.1150014 14.67,83.825 C14.67,83.2849973 14.4950017,82.8525016 14.145,82.5275 C13.7949982,82.2024984 13.3250029,82.04 12.735,82.04 C12.2849977,82.04 11.8750018,82.142499 11.505,82.3475 C11.1349981,82.552501 10.8100014,82.7999985 10.53,83.09 L10.14,82.64 C10.4700016,82.3199984 10.8449979,82.0450011 11.265,81.815 C11.6850021,81.5849988 12.1749972,81.47 12.735,81.47 C13.1050018,81.47 13.4499984,81.5224995 13.77,81.6275 C14.0900016,81.7325005 14.3674988,81.882499 14.6025,82.0775 C14.8375012,82.272501 15.0224993,82.5124986 15.1575,82.7975 C15.2925007,83.0825014 15.36,83.4099981 15.36,83.78 C15.36,84.4100031 15.1875017,84.9174981 14.8425,85.3025 C14.4974983,85.6875019 14.0600026,85.97 13.53,86.15 L13.53,86.21 C13.8300015,86.2700003 14.1099987,86.3724993 14.37,86.5175 C14.6300013,86.6625007 14.859999,86.8399989 15.06,87.05 C15.260001,87.260001 15.4174994,87.5024986 15.5325,87.7775 C15.6475006,88.0525014 15.705,88.3599983 15.705,88.7 C15.705,89.1200021 15.6300007,89.4974983 15.48,89.8325 C15.3299992,90.1675017 15.1225013,90.4524988 14.8575,90.6875 C14.5924987,90.9225012 14.2825018,91.1024994 13.9275,91.2275 C13.5724982,91.3525006 13.190002,91.415 12.78,91.415 Z M18.135,91.415 C17.9649991,91.415 17.8150006,91.3550006 17.685,91.235 C17.5549993,91.1149994 17.49,90.950001 17.49,90.74 C17.49,90.5199989 17.5549993,90.3500006 17.685,90.23 C17.8150006,90.1099994 17.9649991,90.05 18.135,90.05 C18.3050008,90.05 18.4524994,90.1099994 18.5775,90.23 C18.7025006,90.3500006 18.765,90.5199989 18.765,90.74 C18.765,90.950001 18.7025006,91.1149994 18.5775,91.235 C18.4524994,91.3550006 18.3050008,91.415 18.135,91.415 Z M23.175,91.415 C22.7949981,91.415 22.4525015,91.3775004 22.1475,91.3025 C21.8424985,91.2274996 21.5675012,91.1275006 21.3225,91.0025 C21.0774988,90.8774994 20.8600009,90.7375008 20.67,90.5825 C20.479999,90.4274992 20.3100007,90.2750007 20.16,90.125 L20.535,89.66 C20.6750007,89.8100007 20.8299991,89.9549993 21,90.095 C21.1700008,90.2350007 21.3599989,90.3599994 21.57,90.47 C21.780001,90.5800005 22.0149987,90.6674997 22.275,90.7325 C22.5350013,90.7975003 22.8299983,90.83 23.16,90.83 C23.4800016,90.83 23.7849985,90.7675006 24.075,90.6425 C24.3650014,90.5174994 24.6174989,90.3425011 24.8325,90.1175 C25.0475011,89.8924989 25.2199993,89.6225016 25.35,89.3075 C25.4800006,88.9924984 25.545,88.6400019 25.545,88.25 C25.545,87.4699961 25.3350021,86.8625022 24.915,86.4275 C24.4949979,85.9924978 23.9250036,85.775 23.205,85.775 C22.8349981,85.775 22.5175013,85.8324994 22.2525,85.9475 C21.9874987,86.0625006 21.7100014,86.219999 21.42,86.42 L20.955,86.135 L21.3,81.65 L25.725,81.65 L25.725,82.235 L21.9,82.235 L21.6,85.7 C21.8500012,85.5499992 22.1099986,85.4275005 22.38,85.3325 C22.6500013,85.2374995 22.9599982,85.19 23.31,85.19 C23.710002,85.19 24.0899982,85.2499994 24.45,85.37 C24.8100018,85.4900006 25.1199987,85.6724988 25.38,85.9175 C25.6400013,86.1625012 25.8474992,86.4774981 26.0025,86.8625 C26.1575008,87.2475019 26.235,87.6999974 26.235,88.22 C26.235,88.7300025 26.1475009,89.182498 25.9725,89.5775 C25.7974991,89.972502 25.5675014,90.3074986 25.2825,90.5825 C24.9974986,90.8575014 24.6725018,91.0649993 24.3075,91.205 C23.9424982,91.3450007 23.5650019,91.415 23.175,91.415 Z M33.54,91.235 L33.54,81.95 L30.39,81.95 L30.39,81.35 L37.38,81.35 L37.38,81.95 L34.23,81.95 L34.23,91.235 L33.54,91.235 Z M2.505,132.885 L2.505,131.4 C1.9849974,131.36 1.51000215,131.227501 1.08,131.0025 C0.64999785,130.777499 0.29000145,130.525001 -1.30739863e-12,130.245 L0.36,129.78 C0.65000145,130.040001 0.994998,130.279999 1.395,130.5 C1.795002,130.720001 2.2549974,130.83 2.775,130.83 C3.40500315,130.83 3.88749832,130.660002 4.2225,130.32 C4.55750167,129.979998 4.725,129.535003 4.725,128.985 C4.725,128.494998 4.61750107,128.097502 4.4025,127.7925 C4.18749892,127.487498 3.9200016,127.227501 3.6,127.0125 C3.3599988,126.851249 3.1045317,126.702656 2.83359432,126.566719 L2.5575,126.435 C2.18249812,126.264999 1.8350016,126.070001 1.515,125.85 C1.1949984,125.629999 0.927501075,125.362502 0.7125,125.0475 C0.497498925,124.732498 0.39,124.320003 0.39,123.81 C0.39,123.5 0.442499475,123.210001 0.5475,122.94 C0.652500525,122.669999 0.79999905,122.432501 0.99,122.2275 C1.18000095,122.022499 1.4049987,121.855001 1.665,121.725 C1.9250013,121.594999 2.2049985,121.515 2.505,121.485 L2.505,120 L3.09,120 L3.09,121.485 C3.58000245,121.515 3.97999845,121.629999 4.29,121.83 C4.60000155,122.030001 4.8849987,122.264999 5.145,122.535 L4.755,122.955 C4.6149993,122.814999 4.47750067,122.690001 4.3425,122.58 C4.20749932,122.469999 4.06500075,122.375 3.915,122.295 C3.76499925,122.215 3.6000009,122.155 3.42,122.115 C3.2399991,122.075 3.03500115,122.055 2.805,122.055 C2.2849974,122.055 1.8650016,122.217498 1.545,122.5425 C1.2249984,122.867502 1.065,123.279997 1.065,123.78 C1.065,124.220002 1.17249892,124.572499 1.3875,124.8375 C1.60250107,125.102501 1.8699984,125.332499 2.19,125.5275 C2.4300012,125.673751 2.6854683,125.811562 2.95640568,125.940937 L3.2325,126.0675 C3.60750187,126.232501 3.9549984,126.432499 4.275,126.6675 C4.5950016,126.902501 4.86249892,127.197498 5.0775,127.5525 C5.29250107,127.907502 5.4,128.369997 5.4,128.94 C5.4,129.660004 5.18250217,130.234998 4.7475,130.665 C4.31249782,131.095002 3.76000335,131.34 3.09,131.4 L3.09,132.885 L2.505,132.885 Z M12.78,131.415 C12.3999981,131.415 12.0550015,131.375 11.745,131.295 C11.4349984,131.215 11.1575012,131.110001 10.9125,130.98 C10.6674988,130.849999 10.447501,130.705001 10.2525,130.545 C10.057499,130.384999 9.88500075,130.225001 9.735,130.065 L10.125,129.6 C10.2650007,129.760001 10.4199991,129.912499 10.59,130.0575 C10.7600008,130.202501 10.9524989,130.332499 11.1675,130.4475 C11.3825011,130.562501 11.6224987,130.655 11.8875,130.725 C12.1525013,130.795 12.4499983,130.83 12.78,130.83 C13.1000016,130.83 13.3974986,130.78 13.6725,130.68 C13.9475014,130.579999 14.184999,130.437501 14.385,130.2525 C14.585001,130.067499 14.7399994,129.845001 14.85,129.585 C14.9600005,129.324999 15.015,129.035002 15.015,128.715 C15.015,128.384998 14.9525006,128.085001 14.8275,127.815 C14.7024994,127.544999 14.5075013,127.312501 14.2425,127.1175 C13.9774987,126.922499 13.6325021,126.770001 13.2075,126.66 C12.7824979,126.549999 12.270003,126.495 11.67,126.495 L11.67,125.91 C12.2200027,125.91 12.6874981,125.855001 13.0725,125.745 C13.4575019,125.634999 13.7674988,125.487501 14.0025,125.3025 C14.2375012,125.117499 14.4074995,124.897501 14.5125,124.6425 C14.6175005,124.387499 14.67,124.115001 14.67,123.825 C14.67,123.284997 14.4950017,122.852502 14.145,122.5275 C13.7949982,122.202498 13.3250029,122.04 12.735,122.04 C12.2849977,122.04 11.8750018,122.142499 11.505,122.3475 C11.1349981,122.552501 10.8100014,122.799999 10.53,123.09 L10.14,122.64 C10.4700016,122.319998 10.8449979,122.045001 11.265,121.815 C11.6850021,121.584999 12.1749972,121.47 12.735,121.47 C13.1050018,121.47 13.4499984,121.522499 13.77,121.6275 C14.0900016,121.732501 14.3674988,121.882499 14.6025,122.0775 C14.8375012,122.272501 15.0224993,122.512499 15.1575,122.7975 C15.2925007,123.082501 15.36,123.409998 15.36,123.78 C15.36,124.410003 15.1875017,124.917498 14.8425,125.3025 C14.4974983,125.687502 14.0600026,125.97 13.53,126.15 L13.53,126.21 C13.8300015,126.27 14.1099987,126.372499 14.37,126.5175 C14.6300013,126.662501 14.859999,126.839999 15.06,127.05 C15.260001,127.260001 15.4174994,127.502499 15.5325,127.7775 C15.6475006,128.052501 15.705,128.359998 15.705,128.7 C15.705,129.120002 15.6300007,129.497498 15.48,129.8325 C15.3299992,130.167502 15.1225013,130.452499 14.8575,130.6875 C14.5924987,130.922501 14.2825018,131.102499 13.9275,131.2275 C13.5724982,131.352501 13.190002,131.415 12.78,131.415 Z M18.135,131.415 C17.9649991,131.415 17.8150006,131.355001 17.685,131.235 C17.5549993,131.114999 17.49,130.950001 17.49,130.74 C17.49,130.519999 17.5549993,130.350001 17.685,130.23 C17.8150006,130.109999 17.9649991,130.05 18.135,130.05 C18.3050008,130.05 18.4524994,130.109999 18.5775,130.23 C18.7025006,130.350001 18.765,130.519999 18.765,130.74 C18.765,130.950001 18.7025006,131.114999 18.5775,131.235 C18.4524994,131.355001 18.3050008,131.415 18.135,131.415 Z M23.355,131.415 C22.4349954,131.415 21.7275025,130.982504 21.2325,130.1175 C20.7374975,129.252496 20.49,128.015008 20.49,126.405 C20.49,124.804992 20.7374975,123.582504 21.2325,122.7375 C21.7275025,121.892496 22.4349954,121.47 23.355,121.47 C24.2750046,121.47 24.9824975,121.892496 25.4775,122.7375 C25.9725025,123.582504 26.22,124.804992 26.22,126.405 C26.22,128.015008 25.9725025,129.252496 25.4775,130.1175 C24.9824975,130.982504 24.2750046,131.415 23.355,131.415 Z M23.355,130.845 C24.0250033,130.845 24.557498,130.472504 24.9525,129.7275 C25.347502,128.982496 25.545,127.875007 25.545,126.405 C25.545,124.934993 25.347502,123.840004 24.9525,123.12 C24.557498,122.399996 24.0250033,122.04 23.355,122.04 C22.6949967,122.04 22.165,122.399996 21.765,123.12 C21.364998,123.840004 21.165,124.934993 21.165,126.405 C21.165,127.875007 21.364998,128.982496 21.765,129.7275 C22.165,130.472504 22.6949967,130.845 23.355,130.845 Z M33.54,131.235 L33.54,121.95 L30.39,121.95 L30.39,121.35 L37.38,121.35 L37.38,121.95 L34.23,121.95 L34.23,131.235 L33.54,131.235 Z M2.505,172.885 L2.505,171.4 C1.9849974,171.36 1.51000215,171.227501 1.08,171.0025 C0.64999785,170.777499 0.29000145,170.525001 -1.30739863e-12,170.245 L0.36,169.78 C0.65000145,170.040001 0.994998,170.279999 1.395,170.5 C1.795002,170.720001 2.2549974,170.83 2.775,170.83 C3.40500315,170.83 3.88749832,170.660002 4.2225,170.32 C4.55750167,169.979998 4.725,169.535003 4.725,168.985 C4.725,168.494998 4.61750107,168.097502 4.4025,167.7925 C4.18749892,167.487498 3.9200016,167.227501 3.6,167.0125 C3.3599988,166.851249 3.1045317,166.702656 2.83359432,166.566719 L2.5575,166.435 C2.18249812,166.264999 1.8350016,166.070001 1.515,165.85 C1.1949984,165.629999 0.927501075,165.362502 0.7125,165.0475 C0.497498925,164.732498 0.39,164.320003 0.39,163.81 C0.39,163.5 0.442499475,163.210001 0.5475,162.94 C0.652500525,162.669999 0.79999905,162.432501 0.99,162.2275 C1.18000095,162.022499 1.4049987,161.855001 1.665,161.725 C1.9250013,161.594999 2.2049985,161.515 2.505,161.485 L2.505,160 L3.09,160 L3.09,161.485 C3.58000245,161.515 3.97999845,161.629999 4.29,161.83 C4.60000155,162.030001 4.8849987,162.264999 5.145,162.535 L4.755,162.955 C4.6149993,162.814999 4.47750067,162.690001 4.3425,162.58 C4.20749932,162.469999 4.06500075,162.375 3.915,162.295 C3.76499925,162.215 3.6000009,162.155 3.42,162.115 C3.2399991,162.075 3.03500115,162.055 2.805,162.055 C2.2849974,162.055 1.8650016,162.217498 1.545,162.5425 C1.2249984,162.867502 1.065,163.279997 1.065,163.78 C1.065,164.220002 1.17249892,164.572499 1.3875,164.8375 C1.60250107,165.102501 1.8699984,165.332499 2.19,165.5275 C2.4300012,165.673751 2.6854683,165.811562 2.95640568,165.940937 L3.2325,166.0675 C3.60750187,166.232501 3.9549984,166.432499 4.275,166.6675 C4.5950016,166.902501 4.86249892,167.197498 5.0775,167.5525 C5.29250107,167.907502 5.4,168.369997 5.4,168.94 C5.4,169.660004 5.18250217,170.234998 4.7475,170.665 C4.31249782,171.095002 3.76000335,171.34 3.09,171.4 L3.09,172.885 L2.505,172.885 Z M9.915,171.235 L9.915,170.815 L10.5676543,170.149489 C11.0911233,169.611734 11.5635693,169.116074 11.985,168.6625 C12.5750029,168.027497 13.067498,167.447503 13.4625,166.9225 C13.857502,166.397497 14.152499,165.912502 14.3475,165.4675 C14.542501,165.022498 14.64,164.590002 14.64,164.17 C14.64,163.569997 14.4725017,163.065002 14.1375,162.655 C13.8024983,162.244998 13.2750036,162.04 12.555,162.04 C12.1149978,162.04 11.7050019,162.159999 11.325,162.4 C10.9449981,162.640001 10.6100014,162.939998 10.32,163.3 L9.885,162.88 C10.2450018,162.479998 10.6424978,162.145001 11.0775,161.875 C11.5125022,161.604999 12.024997,161.47 12.615,161.47 C13.4750043,161.47 14.1399976,161.714998 14.61,162.205 C15.0800023,162.695002 15.315,163.344996 15.315,164.155 C15.315,164.635002 15.210001,165.112498 15,165.5875 C14.7899989,166.062502 14.4950019,166.562497 14.115,167.0875 C13.7349981,167.612503 13.2725027,168.172497 12.7275,168.7675 L11.6844006,169.895199 C11.4388011,170.158399 11.1840013,170.429999 10.92,170.71 C11.1800013,170.69 11.4474986,170.6725 11.7225,170.6575 C11.9975014,170.6425 12.2649987,170.635 12.525,170.635 L15.795,170.635 L15.795,171.235 L9.915,171.235 Z M18.135,171.415 C17.9649991,171.415 17.8150006,171.355001 17.685,171.235 C17.5549993,171.114999 17.49,170.950001 17.49,170.74 C17.49,170.519999 17.5549993,170.350001 17.685,170.23 C17.8150006,170.109999 17.9649991,170.05 18.135,170.05 C18.3050008,170.05 18.4524994,170.109999 18.5775,170.23 C18.7025006,170.350001 18.765,170.519999 18.765,170.74 C18.765,170.950001 18.7025006,171.114999 18.5775,171.235 C18.4524994,171.355001 18.3050008,171.415 18.135,171.415 Z M23.175,171.415 C22.7949981,171.415 22.4525015,171.3775 22.1475,171.3025 C21.8424985,171.2275 21.5675012,171.127501 21.3225,171.0025 C21.0774988,170.877499 20.8600009,170.737501 20.67,170.5825 C20.479999,170.427499 20.3100007,170.275001 20.16,170.125 L20.535,169.66 C20.6750007,169.810001 20.8299991,169.954999 21,170.095 C21.1700008,170.235001 21.3599989,170.359999 21.57,170.47 C21.780001,170.580001 22.0149987,170.6675 22.275,170.7325 C22.5350013,170.7975 22.8299983,170.83 23.16,170.83 C23.4800016,170.83 23.7849985,170.767501 24.075,170.6425 C24.3650014,170.517499 24.6174989,170.342501 24.8325,170.1175 C25.0475011,169.892499 25.2199993,169.622502 25.35,169.3075 C25.4800006,168.992498 25.545,168.640002 25.545,168.25 C25.545,167.469996 25.3350021,166.862502 24.915,166.4275 C24.4949979,165.992498 23.9250036,165.775 23.205,165.775 C22.8349981,165.775 22.5175013,165.832499 22.2525,165.9475 C21.9874987,166.062501 21.7100014,166.219999 21.42,166.42 L20.955,166.135 L21.3,161.65 L25.725,161.65 L25.725,162.235 L21.9,162.235 L21.6,165.7 C21.8500012,165.549999 22.1099986,165.4275 22.38,165.3325 C22.6500013,165.2375 22.9599982,165.19 23.31,165.19 C23.710002,165.19 24.0899982,165.249999 24.45,165.37 C24.8100018,165.490001 25.1199987,165.672499 25.38,165.9175 C25.6400013,166.162501 25.8474992,166.477498 26.0025,166.8625 C26.1575008,167.247502 26.235,167.699997 26.235,168.22 C26.235,168.730003 26.1475009,169.182498 25.9725,169.5775 C25.7974991,169.972502 25.5675014,170.307499 25.2825,170.5825 C24.9974986,170.857501 24.6725018,171.064999 24.3075,171.205 C23.9424982,171.345001 23.5650019,171.415 23.175,171.415 Z M33.54,171.235 L33.54,161.95 L30.39,161.95 L30.39,161.35 L37.38,161.35 L37.38,161.95 L34.23,161.95 L34.23,171.235 L33.54,171.235 Z M2.505,212.885 L2.505,211.4 C1.9849974,211.36 1.51000215,211.227501 1.08,211.0025 C0.64999785,210.777499 0.29000145,210.525001 -1.30739863e-12,210.245 L0.36,209.78 C0.65000145,210.040001 0.994998,210.279999 1.395,210.5 C1.795002,210.720001 2.2549974,210.83 2.775,210.83 C3.40500315,210.83 3.88749832,210.660002 4.2225,210.32 C4.55750167,209.979998 4.725,209.535003 4.725,208.985 C4.725,208.494998 4.61750107,208.097502 4.4025,207.7925 C4.18749892,207.487498 3.9200016,207.227501 3.6,207.0125 C3.3599988,206.851249 3.1045317,206.702656 2.83359432,206.566719 L2.5575,206.435 C2.18249812,206.264999 1.8350016,206.070001 1.515,205.85 C1.1949984,205.629999 0.927501075,205.362502 0.7125,205.0475 C0.497498925,204.732498 0.39,204.320003 0.39,203.81 C0.39,203.5 0.442499475,203.210001 0.5475,202.94 C0.652500525,202.669999 0.79999905,202.432501 0.99,202.2275 C1.18000095,202.022499 1.4049987,201.855001 1.665,201.725 C1.9250013,201.594999 2.2049985,201.515 2.505,201.485 L2.505,200 L3.09,200 L3.09,201.485 C3.58000245,201.515 3.97999845,201.629999 4.29,201.83 C4.60000155,202.030001 4.8849987,202.264999 5.145,202.535 L4.755,202.955 C4.6149993,202.814999 4.47750067,202.690001 4.3425,202.58 C4.20749932,202.469999 4.06500075,202.375 3.915,202.295 C3.76499925,202.215 3.6000009,202.155 3.42,202.115 C3.2399991,202.075 3.03500115,202.055 2.805,202.055 C2.2849974,202.055 1.8650016,202.217498 1.545,202.5425 C1.2249984,202.867502 1.065,203.279997 1.065,203.78 C1.065,204.220002 1.17249892,204.572499 1.3875,204.8375 C1.60250107,205.102501 1.8699984,205.332499 2.19,205.5275 C2.4300012,205.673751 2.6854683,205.811562 2.95640568,205.940937 L3.2325,206.0675 C3.60750187,206.232501 3.9549984,206.432499 4.275,206.6675 C4.5950016,206.902501 4.86249892,207.197498 5.0775,207.5525 C5.29250107,207.907502 5.4,208.369997 5.4,208.94 C5.4,209.660004 5.18250217,210.234998 4.7475,210.665 C4.31249782,211.095002 3.76000335,211.34 3.09,211.4 L3.09,212.885 L2.505,212.885 Z M9.915,211.235 L9.915,210.815 L10.5676543,210.149489 C11.0911233,209.611734 11.5635693,209.116074 11.985,208.6625 C12.5750029,208.027497 13.067498,207.447503 13.4625,206.9225 C13.857502,206.397497 14.152499,205.912502 14.3475,205.4675 C14.542501,205.022498 14.64,204.590002 14.64,204.17 C14.64,203.569997 14.4725017,203.065002 14.1375,202.655 C13.8024983,202.244998 13.2750036,202.04 12.555,202.04 C12.1149978,202.04 11.7050019,202.159999 11.325,202.4 C10.9449981,202.640001 10.6100014,202.939998 10.32,203.3 L9.885,202.88 C10.2450018,202.479998 10.6424978,202.145001 11.0775,201.875 C11.5125022,201.604999 12.024997,201.47 12.615,201.47 C13.4750043,201.47 14.1399976,201.714998 14.61,202.205 C15.0800023,202.695002 15.315,203.344996 15.315,204.155 C15.315,204.635002 15.210001,205.112498 15,205.5875 C14.7899989,206.062502 14.4950019,206.562497 14.115,207.0875 C13.7349981,207.612503 13.2725027,208.172497 12.7275,208.7675 L11.6844006,209.895199 C11.4388011,210.158399 11.1840013,210.429999 10.92,210.71 C11.1800013,210.69 11.4474986,210.6725 11.7225,210.6575 C11.9975014,210.6425 12.2649987,210.635 12.525,210.635 L15.795,210.635 L15.795,211.235 L9.915,211.235 Z M18.135,211.415 C17.9649991,211.415 17.8150006,211.355001 17.685,211.235 C17.5549993,211.114999 17.49,210.950001 17.49,210.74 C17.49,210.519999 17.5549993,210.350001 17.685,210.23 C17.8150006,210.109999 17.9649991,210.05 18.135,210.05 C18.3050008,210.05 18.4524994,210.109999 18.5775,210.23 C18.7025006,210.350001 18.765,210.519999 18.765,210.74 C18.765,210.950001 18.7025006,211.114999 18.5775,211.235 C18.4524994,211.355001 18.3050008,211.415 18.135,211.415 Z M23.355,211.415 C22.4349954,211.415 21.7275025,210.982504 21.2325,210.1175 C20.7374975,209.252496 20.49,208.015008 20.49,206.405 C20.49,204.804992 20.7374975,203.582504 21.2325,202.7375 C21.7275025,201.892496 22.4349954,201.47 23.355,201.47 C24.2750046,201.47 24.9824975,201.892496 25.4775,202.7375 C25.9725025,203.582504 26.22,204.804992 26.22,206.405 C26.22,208.015008 25.9725025,209.252496 25.4775,210.1175 C24.9824975,210.982504 24.2750046,211.415 23.355,211.415 Z M23.355,210.845 C24.0250033,210.845 24.557498,210.472504 24.9525,209.7275 C25.347502,208.982496 25.545,207.875007 25.545,206.405 C25.545,204.934993 25.347502,203.840004 24.9525,203.12 C24.557498,202.399996 24.0250033,202.04 23.355,202.04 C22.6949967,202.04 22.165,202.399996 21.765,203.12 C21.364998,203.840004 21.165,204.934993 21.165,206.405 C21.165,207.875007 21.364998,208.982496 21.765,209.7275 C22.165,210.472504 22.6949967,210.845 23.355,210.845 Z M33.54,211.235 L33.54,201.95 L30.39,201.95 L30.39,201.35 L37.38,201.35 L37.38,201.95 L34.23,201.95 L34.23,211.235 L33.54,211.235 Z M2.505,252.885 L2.505,251.4 C1.9849974,251.36 1.51000215,251.227501 1.08,251.0025 C0.64999785,250.777499 0.29000145,250.525001 -1.30739863e-12,250.245 L0.36,249.78 C0.65000145,250.040001 0.994998,250.279999 1.395,250.5 C1.795002,250.720001 2.2549974,250.83 2.775,250.83 C3.40500315,250.83 3.88749832,250.660002 4.2225,250.32 C4.55750167,249.979998 4.725,249.535003 4.725,248.985 C4.725,248.494998 4.61750107,248.097502 4.4025,247.7925 C4.18749892,247.487498 3.9200016,247.227501 3.6,247.0125 C3.3599988,246.851249 3.1045317,246.702656 2.83359432,246.566719 L2.5575,246.435 C2.18249812,246.264999 1.8350016,246.070001 1.515,245.85 C1.1949984,245.629999 0.927501075,245.362502 0.7125,245.0475 C0.497498925,244.732498 0.39,244.320003 0.39,243.81 C0.39,243.5 0.442499475,243.210001 0.5475,242.94 C0.652500525,242.669999 0.79999905,242.432501 0.99,242.2275 C1.18000095,242.022499 1.4049987,241.855001 1.665,241.725 C1.9250013,241.594999 2.2049985,241.515 2.505,241.485 L2.505,240 L3.09,240 L3.09,241.485 C3.58000245,241.515 3.97999845,241.629999 4.29,241.83 C4.60000155,242.030001 4.8849987,242.264999 5.145,242.535 L4.755,242.955 C4.6149993,242.814999 4.47750067,242.690001 4.3425,242.58 C4.20749932,242.469999 4.06500075,242.375 3.915,242.295 C3.76499925,242.215 3.6000009,242.155 3.42,242.115 C3.2399991,242.075 3.03500115,242.055 2.805,242.055 C2.2849974,242.055 1.8650016,242.217498 1.545,242.5425 C1.2249984,242.867502 1.065,243.279997 1.065,243.78 C1.065,244.220002 1.17249892,244.572499 1.3875,244.8375 C1.60250107,245.102501 1.8699984,245.332499 2.19,245.5275 C2.4300012,245.673751 2.6854683,245.811562 2.95640568,245.940937 L3.2325,246.0675 C3.60750187,246.232501 3.9549984,246.432499 4.275,246.6675 C4.5950016,246.902501 4.86249892,247.197498 5.0775,247.5525 C5.29250107,247.907502 5.4,248.369997 5.4,248.94 C5.4,249.660004 5.18250217,250.234998 4.7475,250.665 C4.31249782,251.095002 3.76000335,251.34 3.09,251.4 L3.09,252.885 L2.505,252.885 Z M10.56,251.235 L10.56,250.65 L12.81,250.65 L12.81,242.7 L11.1,242.7 L11.1,242.25 C11.4900019,242.18 11.8374985,242.095 12.1425,241.995 C12.4475015,241.894999 12.7149988,241.780001 12.945,241.65 L13.485,241.65 L13.485,250.65 L15.57,250.65 L15.57,251.235 L10.56,251.235 Z M18.135,251.415 C17.9649991,251.415 17.8150006,251.355001 17.685,251.235 C17.5549993,251.114999 17.49,250.950001 17.49,250.74 C17.49,250.519999 17.5549993,250.350001 17.685,250.23 C17.8150006,250.109999 17.9649991,250.05 18.135,250.05 C18.3050008,250.05 18.4524994,250.109999 18.5775,250.23 C18.7025006,250.350001 18.765,250.519999 18.765,250.74 C18.765,250.950001 18.7025006,251.114999 18.5775,251.235 C18.4524994,251.355001 18.3050008,251.415 18.135,251.415 Z M23.175,251.415 C22.7949981,251.415 22.4525015,251.3775 22.1475,251.3025 C21.8424985,251.2275 21.5675012,251.127501 21.3225,251.0025 C21.0774988,250.877499 20.8600009,250.737501 20.67,250.5825 C20.479999,250.427499 20.3100007,250.275001 20.16,250.125 L20.535,249.66 C20.6750007,249.810001 20.8299991,249.954999 21,250.095 C21.1700008,250.235001 21.3599989,250.359999 21.57,250.47 C21.780001,250.580001 22.0149987,250.6675 22.275,250.7325 C22.5350013,250.7975 22.8299983,250.83 23.16,250.83 C23.4800016,250.83 23.7849985,250.767501 24.075,250.6425 C24.3650014,250.517499 24.6174989,250.342501 24.8325,250.1175 C25.0475011,249.892499 25.2199993,249.622502 25.35,249.3075 C25.4800006,248.992498 25.545,248.640002 25.545,248.25 C25.545,247.469996 25.3350021,246.862502 24.915,246.4275 C24.4949979,245.992498 23.9250036,245.775 23.205,245.775 C22.8349981,245.775 22.5175013,245.832499 22.2525,245.9475 C21.9874987,246.062501 21.7100014,246.219999 21.42,246.42 L20.955,246.135 L21.3,241.65 L25.725,241.65 L25.725,242.235 L21.9,242.235 L21.6,245.7 C21.8500012,245.549999 22.1099986,245.4275 22.38,245.3325 C22.6500013,245.2375 22.9599982,245.19 23.31,245.19 C23.710002,245.19 24.0899982,245.249999 24.45,245.37 C24.8100018,245.490001 25.1199987,245.672499 25.38,245.9175 C25.6400013,246.162501 25.8474992,246.477498 26.0025,246.8625 C26.1575008,247.247502 26.235,247.699997 26.235,248.22 C26.235,248.730003 26.1475009,249.182498 25.9725,249.5775 C25.7974991,249.972502 25.5675014,250.307499 25.2825,250.5825 C24.9974986,250.857501 24.6725018,251.064999 24.3075,251.205 C23.9424982,251.345001 23.5650019,251.415 23.175,251.415 Z M33.54,251.235 L33.54,241.95 L30.39,241.95 L30.39,241.35 L37.38,241.35 L37.38,241.95 L34.23,241.95 L34.23,251.235 L33.54,251.235 Z M2.505,292.885 L2.505,291.4 C1.9849974,291.36 1.51000215,291.227501 1.08,291.0025 C0.64999785,290.777499 0.29000145,290.525001 -1.30739863e-12,290.245 L0.36,289.78 C0.65000145,290.040001 0.994998,290.279999 1.395,290.5 C1.795002,290.720001 2.2549974,290.83 2.775,290.83 C3.40500315,290.83 3.88749832,290.660002 4.2225,290.32 C4.55750167,289.979998 4.725,289.535003 4.725,288.985 C4.725,288.494998 4.61750107,288.097502 4.4025,287.7925 C4.18749892,287.487498 3.9200016,287.227501 3.6,287.0125 C3.3599988,286.851249 3.1045317,286.702656 2.83359432,286.566719 L2.5575,286.435 C2.18249812,286.264999 1.8350016,286.070001 1.515,285.85 C1.1949984,285.629999 0.927501075,285.362502 0.7125,285.0475 C0.497498925,284.732498 0.39,284.320003 0.39,283.81 C0.39,283.5 0.442499475,283.210001 0.5475,282.94 C0.652500525,282.669999 0.79999905,282.432501 0.99,282.2275 C1.18000095,282.022499 1.4049987,281.855001 1.665,281.725 C1.9250013,281.594999 2.2049985,281.515 2.505,281.485 L2.505,280 L3.09,280 L3.09,281.485 C3.58000245,281.515 3.97999845,281.629999 4.29,281.83 C4.60000155,282.030001 4.8849987,282.264999 5.145,282.535 L4.755,282.955 C4.6149993,282.814999 4.47750067,282.690001 4.3425,282.58 C4.20749932,282.469999 4.06500075,282.375 3.915,282.295 C3.76499925,282.215 3.6000009,282.155 3.42,282.115 C3.2399991,282.075 3.03500115,282.055 2.805,282.055 C2.2849974,282.055 1.8650016,282.217498 1.545,282.5425 C1.2249984,282.867502 1.065,283.279997 1.065,283.78 C1.065,284.220002 1.17249892,284.572499 1.3875,284.8375 C1.60250107,285.102501 1.8699984,285.332499 2.19,285.5275 C2.4300012,285.673751 2.6854683,285.811562 2.95640568,285.940937 L3.2325,286.0675 C3.60750187,286.232501 3.9549984,286.432499 4.275,286.6675 C4.5950016,286.902501 4.86249892,287.197498 5.0775,287.5525 C5.29250107,287.907502 5.4,288.369997 5.4,288.94 C5.4,289.660004 5.18250217,290.234998 4.7475,290.665 C4.31249782,291.095002 3.76000335,291.34 3.09,291.4 L3.09,292.885 L2.505,292.885 Z M10.56,291.235 L10.56,290.65 L12.81,290.65 L12.81,282.7 L11.1,282.7 L11.1,282.25 C11.4900019,282.18 11.8374985,282.095 12.1425,281.995 C12.4475015,281.894999 12.7149988,281.780001 12.945,281.65 L13.485,281.65 L13.485,290.65 L15.57,290.65 L15.57,291.235 L10.56,291.235 Z M18.135,291.415 C17.9649991,291.415 17.8150006,291.355001 17.685,291.235 C17.5549993,291.114999 17.49,290.950001 17.49,290.74 C17.49,290.519999 17.5549993,290.350001 17.685,290.23 C17.8150006,290.109999 17.9649991,290.05 18.135,290.05 C18.3050008,290.05 18.4524994,290.109999 18.5775,290.23 C18.7025006,290.350001 18.765,290.519999 18.765,290.74 C18.765,290.950001 18.7025006,291.114999 18.5775,291.235 C18.4524994,291.355001 18.3050008,291.415 18.135,291.415 Z M23.355,291.415 C22.4349954,291.415 21.7275025,290.982504 21.2325,290.1175 C20.7374975,289.252496 20.49,288.015008 20.49,286.405 C20.49,284.804992 20.7374975,283.582504 21.2325,282.7375 C21.7275025,281.892496 22.4349954,281.47 23.355,281.47 C24.2750046,281.47 24.9824975,281.892496 25.4775,282.7375 C25.9725025,283.582504 26.22,284.804992 26.22,286.405 C26.22,288.015008 25.9725025,289.252496 25.4775,290.1175 C24.9824975,290.982504 24.2750046,291.415 23.355,291.415 Z M23.355,290.845 C24.0250033,290.845 24.557498,290.472504 24.9525,289.7275 C25.347502,288.982496 25.545,287.875007 25.545,286.405 C25.545,284.934993 25.347502,283.840004 24.9525,283.12 C24.557498,282.399996 24.0250033,282.04 23.355,282.04 C22.6949967,282.04 22.165,282.399996 21.765,283.12 C21.364998,283.840004 21.165,284.934993 21.165,286.405 C21.165,287.875007 21.364998,288.982496 21.765,289.7275 C22.165,290.472504 22.6949967,290.845 23.355,290.845 Z M33.54,291.235 L33.54,281.95 L30.39,281.95 L30.39,281.35 L37.38,281.35 L37.38,281.95 L34.23,281.95 L34.23,291.235 L33.54,291.235 Z M2.505,332.885 L2.505,331.4 C1.9849974,331.36 1.51000215,331.227501 1.08,331.0025 C0.64999785,330.777499 0.29000145,330.525001 -1.30739863e-12,330.245 L0.36,329.78 C0.65000145,330.040001 0.994998,330.279999 1.395,330.5 C1.795002,330.720001 2.2549974,330.83 2.775,330.83 C3.40500315,330.83 3.88749832,330.660002 4.2225,330.32 C4.55750167,329.979998 4.725,329.535003 4.725,328.985 C4.725,328.494998 4.61750107,328.097502 4.4025,327.7925 C4.18749892,327.487498 3.9200016,327.227501 3.6,327.0125 C3.3599988,326.851249 3.1045317,326.702656 2.83359432,326.566719 L2.5575,326.435 C2.18249812,326.264999 1.8350016,326.070001 1.515,325.85 C1.1949984,325.629999 0.927501075,325.362502 0.7125,325.0475 C0.497498925,324.732498 0.39,324.320003 0.39,323.81 C0.39,323.5 0.442499475,323.210001 0.5475,322.94 C0.652500525,322.669999 0.79999905,322.432501 0.99,322.2275 C1.18000095,322.022499 1.4049987,321.855001 1.665,321.725 C1.9250013,321.594999 2.2049985,321.515 2.505,321.485 L2.505,320 L3.09,320 L3.09,321.485 C3.58000245,321.515 3.97999845,321.629999 4.29,321.83 C4.60000155,322.030001 4.8849987,322.264999 5.145,322.535 L4.755,322.955 C4.6149993,322.814999 4.47750067,322.690001 4.3425,322.58 C4.20749932,322.469999 4.06500075,322.375 3.915,322.295 C3.76499925,322.215 3.6000009,322.155 3.42,322.115 C3.2399991,322.075 3.03500115,322.055 2.805,322.055 C2.2849974,322.055 1.8650016,322.217498 1.545,322.5425 C1.2249984,322.867502 1.065,323.279997 1.065,323.78 C1.065,324.220002 1.17249892,324.572499 1.3875,324.8375 C1.60250107,325.102501 1.8699984,325.332499 2.19,325.5275 C2.4300012,325.673751 2.6854683,325.811562 2.95640568,325.940937 L3.2325,326.0675 C3.60750187,326.232501 3.9549984,326.432499 4.275,326.6675 C4.5950016,326.902501 4.86249892,327.197498 5.0775,327.5525 C5.29250107,327.907502 5.4,328.369997 5.4,328.94 C5.4,329.660004 5.18250217,330.234998 4.7475,330.665 C4.31249782,331.095002 3.76000335,331.34 3.09,331.4 L3.09,332.885 L2.505,332.885 Z M12.885,331.415 C11.9649954,331.415 11.2575025,330.982504 10.7625,330.1175 C10.2674975,329.252496 10.02,328.015008 10.02,326.405 C10.02,324.804992 10.2674975,323.582504 10.7625,322.7375 C11.2575025,321.892496 11.9649954,321.47 12.885,321.47 C13.8050046,321.47 14.5124975,321.892496 15.0075,322.7375 C15.5025025,323.582504 15.75,324.804992 15.75,326.405 C15.75,328.015008 15.5025025,329.252496 15.0075,330.1175 C14.5124975,330.982504 13.8050046,331.415 12.885,331.415 Z M12.885,330.845 C13.5550033,330.845 14.087498,330.472504 14.4825,329.7275 C14.877502,328.982496 15.075,327.875007 15.075,326.405 C15.075,324.934993 14.877502,323.840004 14.4825,323.12 C14.087498,322.399996 13.5550033,322.04 12.885,322.04 C12.2249967,322.04 11.695,322.399996 11.295,323.12 C10.894998,323.840004 10.695,324.934993 10.695,326.405 C10.695,327.875007 10.894998,328.982496 11.295,329.7275 C11.695,330.472504 12.2249967,330.845 12.885,330.845 Z M18.135,331.415 C17.9649991,331.415 17.8150006,331.355001 17.685,331.235 C17.5549993,331.114999 17.49,330.950001 17.49,330.74 C17.49,330.519999 17.5549993,330.350001 17.685,330.23 C17.8150006,330.109999 17.9649991,330.05 18.135,330.05 C18.3050008,330.05 18.4524994,330.109999 18.5775,330.23 C18.7025006,330.350001 18.765,330.519999 18.765,330.74 C18.765,330.950001 18.7025006,331.114999 18.5775,331.235 C18.4524994,331.355001 18.3050008,331.415 18.135,331.415 Z M23.175,331.415 C22.7949981,331.415 22.4525015,331.3775 22.1475,331.3025 C21.8424985,331.2275 21.5675012,331.127501 21.3225,331.0025 C21.0774988,330.877499 20.8600009,330.737501 20.67,330.5825 C20.479999,330.427499 20.3100007,330.275001 20.16,330.125 L20.535,329.66 C20.6750007,329.810001 20.8299991,329.954999 21,330.095 C21.1700008,330.235001 21.3599989,330.359999 21.57,330.47 C21.780001,330.580001 22.0149987,330.6675 22.275,330.7325 C22.5350013,330.7975 22.8299983,330.83 23.16,330.83 C23.4800016,330.83 23.7849985,330.767501 24.075,330.6425 C24.3650014,330.517499 24.6174989,330.342501 24.8325,330.1175 C25.0475011,329.892499 25.2199993,329.622502 25.35,329.3075 C25.4800006,328.992498 25.545,328.640002 25.545,328.25 C25.545,327.469996 25.3350021,326.862502 24.915,326.4275 C24.4949979,325.992498 23.9250036,325.775 23.205,325.775 C22.8349981,325.775 22.5175013,325.832499 22.2525,325.9475 C21.9874987,326.062501 21.7100014,326.219999 21.42,326.42 L20.955,326.135 L21.3,321.65 L25.725,321.65 L25.725,322.235 L21.9,322.235 L21.6,325.7 C21.8500012,325.549999 22.1099986,325.4275 22.38,325.3325 C22.6500013,325.2375 22.9599982,325.19 23.31,325.19 C23.710002,325.19 24.0899982,325.249999 24.45,325.37 C24.8100018,325.490001 25.1199987,325.672499 25.38,325.9175 C25.6400013,326.162501 25.8474992,326.477498 26.0025,326.8625 C26.1575008,327.247502 26.235,327.699997 26.235,328.22 C26.235,328.730003 26.1475009,329.182498 25.9725,329.5775 C25.7974991,329.972502 25.5675014,330.307499 25.2825,330.5825 C24.9974986,330.857501 24.6725018,331.064999 24.3075,331.205 C23.9424982,331.345001 23.5650019,331.415 23.175,331.415 Z M33.54,331.235 L33.54,321.95 L30.39,321.95 L30.39,321.35 L37.38,321.35 L37.38,321.95 L34.23,321.95 L34.23,331.235 L33.54,331.235 Z M24.42,360 L24.42,361.485 C24.9100024,361.515 25.3099984,361.629999 25.62,361.83 C25.9300015,362.030001 26.2149987,362.264999 26.475,362.535 L26.085,362.955 C25.9449993,362.814999 25.8075007,362.690001 25.6725,362.58 C25.5374993,362.469999 25.3950007,362.375 25.245,362.295 C25.0949992,362.215 24.9300009,362.155 24.75,362.115 C24.5699991,362.075 24.3650011,362.055 24.135,362.055 C23.6149974,362.055 23.1950016,362.217498 22.875,362.5425 C22.5549984,362.867502 22.395,363.279997 22.395,363.78 C22.395,364.220002 22.5024989,364.572499 22.7175,364.8375 C22.9325011,365.102501 23.1999984,365.332499 23.52,365.5275 C23.7600012,365.673751 24.0154683,365.811562 24.2864057,365.940937 L24.5625,366.0675 C24.9375019,366.232501 25.2849984,366.432499 25.605,366.6675 C25.9250016,366.902501 26.1924989,367.197498 26.4075,367.5525 C26.6225011,367.907502 26.73,368.369997 26.73,368.94 C26.73,369.660004 26.5125022,370.234998 26.0775,370.665 C25.6424978,371.095002 25.0900033,371.34 24.42,371.4 L24.42,372.885 L23.835,372.885 L23.835,371.4 C23.3149974,371.36 22.8400021,371.227501 22.41,371.0025 C21.9799978,370.777499 21.6200014,370.525001 21.33,370.245 L21.69,369.78 C21.9800014,370.040001 22.324998,370.279999 22.725,370.5 C23.125002,370.720001 23.5849974,370.83 24.105,370.83 C24.7350031,370.83 25.2174983,370.660002 25.5525,370.32 C25.8875017,369.979998 26.055,369.535003 26.055,368.985 C26.055,368.494998 25.9475011,368.097502 25.7325,367.7925 C25.5174989,367.487498 25.2500016,367.227501 24.93,367.0125 C24.6899988,366.851249 24.4345317,366.702656 24.1635943,366.566719 L23.8875,366.435 C23.5124981,366.264999 23.1650016,366.070001 22.845,365.85 C22.5249984,365.629999 22.2575011,365.362502 22.0425,365.0475 C21.8274989,364.732498 21.72,364.320003 21.72,363.81 C21.72,363.5 21.7724995,363.210001 21.8775,362.94 C21.9825005,362.669999 22.129999,362.432501 22.32,362.2275 C22.5100009,362.022499 22.7349987,361.855001 22.995,361.725 C23.2550013,361.594999 23.5349985,361.515 23.835,361.485 L23.835,360 L24.42,360 Z M34.215,361.47 C35.1350046,361.47 35.8424975,361.892496 36.3375,362.7375 C36.8325025,363.582504 37.08,364.804992 37.08,366.405 C37.08,368.015008 36.8325025,369.252496 36.3375,370.1175 C35.8424975,370.982504 35.1350046,371.415 34.215,371.415 C33.2949954,371.415 32.5875025,370.982504 32.0925,370.1175 C31.5974975,369.252496 31.35,368.015008 31.35,366.405 C31.35,364.804992 31.5974975,363.582504 32.0925,362.7375 C32.5875025,361.892496 33.2949954,361.47 34.215,361.47 Z M34.215,362.04 C33.5549967,362.04 33.025,362.399996 32.625,363.12 C32.224998,363.840004 32.025,364.934993 32.025,366.405 C32.025,367.875007 32.224998,368.982496 32.625,369.7275 C33.025,370.472504 33.5549967,370.845 34.215,370.845 C34.8850033,370.845 35.417498,370.472504 35.8125,369.7275 C36.207502,368.982496 36.405,367.875007 36.405,366.405 C36.405,364.934993 36.207502,363.840004 35.8125,363.12 C35.417498,362.399996 34.8850033,362.04 34.215,362.04 Z" id="$4.5T$4.0T$3.5T$3.0T$2.5T$2.0T$1.5T$1.0T$0.5T$0" fill="#666666"></path>
            </g>
        </g>
    </g>
</svg>