<?xml version="1.0" encoding="UTF-8"?>
<svg width="250px" height="100px" viewBox="0 0 250 100" version="1.1" xmlns="http://www.w3.org/2000/svg" xmlns:xlink="http://www.w3.org/1999/xlink">
    <!-- Generator: Sketch 53.2 (72643) - https://sketchapp.com -->
    <title>spending-3-outline</title>
    <desc>Created with Sketch.</desc>
    <g id="spending-3-outline" stroke="none" stroke-width="1" fill="none" fill-rule="evenodd">
        <g id="Group-11" transform="translate(2.000000, 3.000000)">
            <g id="Group-31" transform="translate(0.000000, 1.024827)">
                <polygon id="Fill-1" fill="#00766C" points="56.1265897 0.000543167553 53.4415315 1.99577865 22.6692789 24.6694029 25.3543372 28.6381472 56.1265897 5.96271236 86.8988422 28.6381472 89.5857111 24.6694029 58.8134586 1.99577865"></polygon>
                <polygon id="Fill-2" fill="#00766C" points="82.3681006 47.274226 29.8872515 47.274226 29.8872515 27.9392716 56.1276761 8.60431723 82.3681006 27.9392716"></polygon>
                <polygon id="Fill-3" fill="#00766C" points="87.7632029 90.8024064 109.489905 90.8024064 109.489905 43.7296956 87.7632029 43.7296956"></polygon>
                <polygon id="Fill-4" fill="#00766C" points="29.8253304 90.8024064 82.3315273 90.8024064 82.3315273 33.2338879 29.8253304 33.2338879"></polygon>
                <polygon id="Fill-5" fill="#FFFFFF" points="34.9202421 44.6458382 45.8505838 44.6458382 45.8505838 33.7154964 34.9202421 33.7154964"></polygon>
                <polygon id="Fill-6" fill="#FFFFFF" points="34.9202421 60.8322313 45.8505838 60.8322313 45.8505838 49.9018896 34.9202421 49.9018896"></polygon>
                <polygon id="Fill-7" fill="#FFFFFF" points="50.6123527 44.6458382 61.5426945 44.6458382 61.5426945 33.7154964 50.6123527 33.7154964"></polygon>
                <polygon id="Fill-8" fill="#FFFFFF" points="50.6123527 60.8322313 61.5426945 60.8322313 61.5426945 49.9018896 50.6123527 49.9018896"></polygon>
                <polygon id="Fill-9" fill="#FFFFFF" points="66.3026528 44.6458382 77.2329946 44.6458382 77.2329946 33.7154964 66.3026528 33.7154964"></polygon>
                <polygon id="Fill-10" fill="#FFFFFF" points="66.3026528 60.8322313 77.2329946 60.8322313 77.2329946 49.9018896 66.3026528 49.9018896"></polygon>
                <polygon id="Fill-11" fill="#FFFFFF" points="93.7959839 62.0072838 104.726326 62.0072838 104.726326 51.0787526 93.7959839 51.0787526"></polygon>
                <polygon id="Fill-12" fill="#FFFFFF" points="93.7959839 78.1954875 104.726326 78.1954875 104.726326 67.2651457 93.7959839 67.2651457"></polygon>
                <polygon id="Fill-3" fill="#00766C" points="2.76320288 90.8024064 24.4899051 90.8024064 24.4899051 43.7296956 2.76320288 43.7296956"></polygon>
                <polygon id="Fill-11" fill="#FFFFFF" points="8.79598385 62.0072838 19.7263256 62.0072838 19.7263256 51.0787526 8.79598385 51.0787526"></polygon>
                <polygon id="Fill-12" fill="#FFFFFF" points="8.79598385 78.1954875 19.7263256 78.1954875 19.7263256 67.2651457 8.79598385 67.2651457"></polygon>
                <polygon id="Fill-13" fill="#FFFFFF" points="50.6630484 90.8024064 61.5915796 90.8024064 61.5915796 71.6141073 50.6630484 71.6141073"></polygon>
                <g id="Group-30" transform="translate(0.000000, 17.992606)">
                    <path d="M20.3830867,73.3274388 L27.9494107,73.3274388 C27.9494107,73.3274388 32.5156393,44.5250739 31.7678786,36.6799239 C31.020118,28.8347738 22.4453129,9.13227609 22.4453129,9.13227609 L19.5067764,9.3151425 C19.5067764,9.3151425 27.9476002,29.0067769 26.5697651,40.2775037 C25.1901196,51.5464199 20.3830867,73.3274388 20.3830867,73.3274388" id="Fill-14" fill="#00766C"></path>
                    <path d="M20.3830867,73.3274388 L27.9494107,73.3274388 C27.9494107,73.3274388 32.5156393,44.5250739 31.7678786,36.6799239 C31.020118,28.8347738 22.4453129,9.13227609 22.4453129,9.13227609 L19.5067764,9.3151425 C19.5067764,9.3151425 27.9476002,29.0067769 26.5697651,40.2775037 C25.1901196,51.5464199 20.3830867,73.3274388 20.3830867,73.3274388 Z" id="Stroke-16" stroke="#FFFFFF" stroke-width="1.30054203"></path>
                    <path d="M21.8787891,11.271632 C21.4768451,10.9783216 20.886603,11.0507439 20.5679447,11.4345823 C20.5679447,11.4345823 16.7675824,16.0062425 15.6884895,17.0455031 C14.6093967,18.0865743 11.741472,22.7306569 11.741472,22.7306569 C11.4807515,23.1543276 11.0806181,23.1398431 10.8524877,22.6980668 C10.8524877,22.6980668 9.65751912,20.3859836 11.1620932,17.4963322 C12.6648568,14.6066808 17.9390138,11.1141134 17.9390138,11.1141134 C18.3554422,10.8389085 18.3500105,10.8334769 17.9317715,11.1014395 C17.9317715,11.1014395 11.7070714,15.0719944 9.9200501,15.6495625 C8.13483941,16.2271307 1.45931016,19.067897 1.45931016,19.067897 C1.00123886,19.2634373 0.783971837,19.0461703 0.974080481,18.588099 C0.974080481,18.588099 3.62292759,12.2221753 6.28625916,10.1834864 C9.94358736,7.38617346 18.7066906,8.21178814 18.7066906,8.21178814 C19.2027836,8.25705211 19.2353737,8.13212357 18.7791129,7.93115157 C18.7791129,7.93115157 15.9510205,6.68910843 12.9418723,6.94439718 C9.93272401,7.19787537 8.28873688,5.64984784 8.28873688,5.64984784 C7.92662518,5.30765229 8.03525869,4.98175175 8.52954116,4.927435 C8.52954116,4.927435 14.6709556,4.23580164 15.5997722,4.39513079 C18.007815,4.80793814 19.9939977,7.40427905 19.9939977,7.40427905 C20.2963609,7.80079136 20.4575007,7.72655846 20.3524883,7.23770766 C20.3524883,7.23770766 19.4979046,3.28887954 24.2325152,1.76619983 C26.9791324,0.880836717 27.5729956,1.39322478 27.5729956,1.39322478 C27.9495918,1.71912531 27.895275,2.17538606 27.4553093,2.40532699 L25.9181451,3.20559385 C25.4781794,3.43553478 24.8517262,3.93343837 24.5294468,4.31365566 L22.1684785,7.08924186 C21.846199,7.46945915 21.8805996,7.50385976 22.248143,7.16528532 C22.248143,7.16528532 28.2736818,1.6104918 31.7409013,3.01729576 C35.2081209,4.42409973 40.071281,7.00595617 40.071281,7.00595617 C40.5112468,7.23951822 40.4641722,7.45135357 39.9662687,7.47670139 L33.2871183,7.8207075 C32.7910253,7.84605532 31.9780845,7.9039932 31.4819915,7.95106772 L23.7581488,8.66804889 C23.2620558,8.71331285 23.2511924,8.84729418 23.7364221,8.96316993 C23.7364221,8.96316993 29.9647434,10.4605018 31.6902057,11.0670389 C33.4156679,11.6717655 35.4778941,15.2566713 35.4778941,15.2566713 C35.7259406,15.6875843 35.5267792,15.9790842 35.0361178,15.9030407 C35.0361178,15.9030407 28.7335636,14.938013 27.2633901,14.5324479 C25.791406,14.1250723 21.8787891,11.271632 21.8787891,11.271632 Z" id="Stroke-18" stroke="#FFFFFF" stroke-width="1.30054203"></path>
                    <path d="M21.8487338,11.2805038 C21.4467898,10.9871933 20.8565478,11.0596156 20.5378895,11.443454 C20.5378895,11.443454 16.7375271,16.0169248 15.6584343,17.0561854 C14.5793414,18.095446 11.7132273,22.7413392 11.7132273,22.7413392 C11.4506963,23.1631993 11.0505628,23.1487148 10.8224325,22.7069386 C10.8224325,22.7069386 9.62746385,20.3948553 11.132038,17.5052039 C12.6348015,14.6173631 17.9107691,11.1247957 17.9107691,11.1247957 C18.325387,10.8495908 18.3217658,10.8423486 17.9017163,11.1103113 C17.9017163,11.1103113 11.6770161,15.0808661 9.89180539,15.6584343 C8.10478413,16.237813 1.43106545,19.0785793 1.43106545,19.0785793 C0.971183587,19.2741196 0.753916565,19.0568526 0.945835768,18.5969707 C0.945835768,18.5969707 3.59287232,12.231047 6.25620389,10.1941687 C9.91353209,7.3950452 18.6784459,8.22065988 18.6784459,8.22065988 C19.1727283,8.26592384 19.2071289,8.14099531 18.7508682,7.94183387 C18.7508682,7.94183387 15.9209652,6.69798017 12.911817,6.95326892 C9.9044793,7.20855767 8.26049217,5.65871958 8.26049217,5.65871958 C7.89656991,5.31652402 8.00520342,4.99243405 8.49948589,4.93630673 C8.49948589,4.93630673 14.6427109,4.24467338 15.5697169,4.40400253 C17.9777597,4.81862043 19.9639424,7.41496134 19.9639424,7.41496134 C20.2663057,7.8096631 20.4274454,7.7354302 20.322433,7.24838996 C20.322433,7.24838996 19.4678494,3.29956184 24.2042704,1.77507157 C26.9508877,0.891519013 27.5429403,1.40209651 27.5429403,1.40209651 C27.9195365,1.7298076 27.8670303,2.18425779 27.425254,2.41419872 L25.8880899,3.21446559 C25.4481241,3.44440652 24.8234815,3.94412067 24.4993915,4.3225274 L22.1384232,7.09992416 C21.8161438,7.47833089 21.8523549,7.5127315 22.2180878,7.17596762 C22.2180878,7.17596762 28.2454371,1.61936354 31.710846,3.0261675 C35.1780656,4.43297147 40.0412258,7.01482791 40.0412258,7.01482791 C40.4811915,7.24838996 40.434117,7.4602253 39.9362134,7.48557312 L33.2588736,7.82957924 C32.76097,7.85492706 31.9480292,7.91467549 31.4519362,7.95993945 L23.7280936,8.67692063 C23.2320005,8.72218459 23.2229477,8.85616592 23.7063669,8.97204166 C23.7063669,8.97204166 29.9364987,10.4693736 31.6601504,11.0759107 C33.3856127,11.6824478 35.4478388,15.2655431 35.4478388,15.2655431 C35.6958853,15.696456 35.4985345,15.9879559 35.0060625,15.913723 C35.0060625,15.913723 28.7035084,14.9486953 27.2333348,14.5413197 C25.7613508,14.1357545 21.8487338,11.2805038 21.8487338,11.2805038" id="Fill-20" fill="#00766C"></path>
                    <path d="M102.425649,73.3274388 L109.991973,73.3274388 C109.991973,73.3274388 114.558202,44.5250739 113.810441,36.6799239 C113.06268,28.8347738 104.489686,9.13227609 104.489686,9.13227609 L101.549339,9.3151425 C101.549339,9.3151425 109.990162,29.0067769 108.612327,40.2775037 C107.234492,51.5464199 102.425649,73.3274388 102.425649,73.3274388" id="Fill-22" fill="#00766C"></path>
                    <path d="M102.425649,73.3274388 L109.991973,73.3274388 C109.991973,73.3274388 114.558202,44.5250739 113.810441,36.6799239 C113.06268,28.8347738 104.489686,9.13227609 104.489686,9.13227609 L101.549339,9.3151425 C101.549339,9.3151425 109.990162,29.0067769 108.612327,40.2775037 C107.234492,51.5464199 102.425649,73.3274388 102.425649,73.3274388 Z" id="Stroke-24" stroke="#FFFFFF" stroke-width="1.30054203"></path>
                    <path d="M103.922438,11.271632 C103.520494,10.9783216 102.930252,11.0507439 102.611593,11.4345823 C102.611593,11.4345823 98.8112309,16.0062425 97.7321381,17.0455031 C96.6530452,18.0865743 93.7851205,22.7306569 93.7851205,22.7306569 C93.5244001,23.1543276 93.1242666,23.1398431 92.8961363,22.6980668 C92.8961363,22.6980668 91.7011676,20.3859836 93.2057418,17.4963322 C94.7085053,14.6066808 99.9826623,11.1141134 99.9826623,11.1141134 C100.399091,10.8389085 100.393659,10.8334769 99.9736095,11.1014395 C99.9736095,11.1014395 93.7507199,15.0719944 91.9636986,15.6495625 C90.1766774,16.2271307 83.5029587,19.067897 83.5029587,19.067897 C83.0448874,19.2634373 82.8276204,19.0461703 83.017729,18.588099 C83.017729,18.588099 85.6665761,12.2221753 88.3299077,10.1834864 C91.9872359,7.38617346 100.750339,8.21178814 100.750339,8.21178814 C101.246432,8.25705211 101.279022,8.13212357 100.822761,7.93115157 C100.822761,7.93115157 97.994669,6.68910843 94.9855208,6.94439718 C91.9763725,7.19787537 90.3323854,5.64984784 90.3323854,5.64984784 C89.9702737,5.30765229 90.0789072,4.98175175 90.5731897,4.927435 C90.5731897,4.927435 96.7146042,4.23580164 97.6434207,4.39513079 C100.051464,4.80793814 102.037646,7.40427905 102.037646,7.40427905 C102.340009,7.80079136 102.501149,7.72655846 102.396137,7.23770766 C102.396137,7.23770766 101.541553,3.28887954 106.276164,1.76619983 C109.022781,0.880836717 109.616644,1.39322478 109.616644,1.39322478 C109.99324,1.71912531 109.938924,2.17538606 109.498958,2.40532699 L107.961794,3.20559385 C107.520017,3.43553478 106.895375,3.93343837 106.573095,4.31365566 L104.212127,7.08924186 C103.889848,7.46945915 103.924248,7.50385976 104.291792,7.16528532 C104.291792,7.16528532 110.31733,1.6104918 113.78455,3.01729576 C117.251769,4.42409973 122.113119,7.00595617 122.113119,7.00595617 C122.554895,7.23951822 122.507821,7.45135357 122.009917,7.47670139 L115.330767,7.8207075 C114.834674,7.84605532 114.021733,7.9039932 113.52564,7.95106772 L105.801797,8.66804889 C105.305704,8.71331285 105.294841,8.84729418 105.780071,8.96316993 C105.780071,8.96316993 112.008392,10.4605018 113.733854,11.0670389 C115.457506,11.6717655 117.521543,15.2566713 117.521543,15.2566713 C117.769589,15.6875843 117.570428,15.9790842 117.077956,15.9030407 C117.077956,15.9030407 110.777212,14.938013 109.305228,14.5324479 C107.835055,14.1250723 103.922438,11.271632 103.922438,11.271632 Z" id="Stroke-26" stroke="#FFFFFF" stroke-width="1.30054203"></path>
                    <path d="M103.892382,11.2805038 C103.490438,10.9871933 102.900196,11.0596156 102.581538,11.443454 C102.581538,11.443454 98.7811757,16.0169248 97.7020828,17.0561854 C96.6229899,18.095446 93.7568758,22.7413392 93.7568758,22.7413392 C93.4943448,23.1631993 93.0942114,23.1487148 92.866081,22.7069386 C92.866081,22.7069386 91.6711124,20.3948553 93.1756865,17.5052039 C94.6784501,14.6173631 99.952607,11.1247957 99.952607,11.1247957 C100.369035,10.8495908 100.365414,10.8423486 99.9453648,11.1103113 C99.9453648,11.1103113 93.7206646,15.0808661 91.9354539,15.6584343 C90.1484327,16.237813 83.4729034,19.0785793 83.4729034,19.0785793 C83.0148321,19.2741196 82.7975651,19.0568526 82.9894843,18.5969707 C82.9894843,18.5969707 85.6365208,12.231047 88.2998524,10.1941687 C91.9571806,7.3950452 100.722094,8.22065988 100.722094,8.22065988 C101.216377,8.26592384 101.248967,8.14099531 100.794517,7.94183387 C100.794517,7.94183387 97.9646138,6.69798017 94.9554655,6.95326892 C91.9481278,7.20855767 90.3023301,5.65871958 90.3023301,5.65871958 C89.9402184,5.31652402 90.0488519,4.99243405 90.5431344,4.93630673 C90.5431344,4.93630673 96.6863595,4.24467338 97.6133654,4.40400253 C100.021408,4.81862043 102.007591,7.41496134 102.007591,7.41496134 C102.309954,7.8096631 102.471094,7.7354302 102.366082,7.24838996 C102.366082,7.24838996 101.511498,3.29956184 106.247919,1.77507157 C108.994536,0.891519013 109.586589,1.40209651 109.586589,1.40209651 C109.963185,1.7298076 109.908868,2.18425779 109.468903,2.41419872 L107.931738,3.21446559 C107.491773,3.44440652 106.86713,3.94412067 106.54304,4.3225274 L104.182072,7.09992416 C103.859792,7.47833089 103.896003,7.5127315 104.261736,7.17596762 C104.261736,7.17596762 110.289086,1.61936354 113.754495,3.0261675 C117.221714,4.43297147 122.084874,7.01482791 122.084874,7.01482791 C122.52484,7.24838996 122.477766,7.4602253 121.979862,7.48557312 L115.300712,7.82957924 C114.804619,7.85492706 113.991678,7.91467549 113.495585,7.95993945 L105.771742,8.67692063 C105.275649,8.72218459 105.266596,8.85616592 105.750015,8.97204166 C105.750015,8.97204166 111.980147,10.4693736 113.703799,11.0759107 C115.429261,11.6824478 117.491487,15.2655431 117.491487,15.2655431 C117.739534,15.696456 117.542183,15.9879559 117.049711,15.913723 C117.049711,15.913723 110.747157,14.9486953 109.276983,14.5413197 C107.804999,14.1357545 103.892382,11.2805038 103.892382,11.2805038" id="Fill-28" fill="#00766C"></path>
                </g>
            </g>
            <path d="M128.404989,13.8822193 L128.404989,5.20500286 L125.45536,5.20500286 L125.45536,3.67556543 L133.164973,3.67556543 L133.164973,5.20500286 L130.215344,5.20500286 L130.215344,13.8822193 L128.404989,13.8822193 Z M134.710017,13.8822193 L134.710017,2.8640272 L136.504765,2.8640272 L136.504765,5.704411 L136.442339,7.18702891 C137.082206,6.57837524 137.846925,6.03214759 138.89256,6.03214759 C140.531243,6.03214759 141.249143,7.1402094 141.249143,9.07541594 L141.249143,13.8822193 L139.454395,13.8822193 L139.454395,9.30951351 C139.454395,8.04538665 139.095445,7.57719152 138.252694,7.57719152 C137.581614,7.57719152 137.144632,7.90492811 136.504765,8.52918829 L136.504765,13.8822193 L134.710017,13.8822193 Z M143.418447,13.8822193 L143.418447,6.21942564 L144.901065,6.21942564 L145.025917,7.57719152 L145.088343,7.57719152 C145.63457,6.57837524 146.446109,6.03214759 147.257647,6.03214759 C147.647809,6.03214759 147.897513,6.0789671 148.131611,6.18821263 L147.819481,7.74886307 C147.55417,7.67083055 147.351286,7.62401103 147.023549,7.62401103 C146.414896,7.62401103 145.68139,8.04538665 145.213195,9.20026798 L145.213195,13.8822193 L143.418447,13.8822193 Z M152.360974,14.0694973 C150.238489,14.0694973 148.5842,12.5868794 148.5842,10.0586257 C148.5842,7.56158502 150.316522,6.03214759 152.11127,6.03214759 C154.186935,6.03214759 155.27939,7.53037201 155.27939,9.66846311 C155.27939,10.0118062 155.248177,10.3551493 155.201358,10.5424274 L150.332128,10.5424274 C150.488193,11.9001932 151.362157,12.6805185 152.595071,12.6805185 C153.250544,12.6805185 153.812379,12.4776339 154.374213,12.1186843 L154.982866,13.2423526 C154.249361,13.7261542 153.328577,14.0694973 152.360974,14.0694973 Z M150.316522,9.32512001 L153.71874,9.32512001 C153.71874,8.13902568 153.203725,7.42112648 152.158089,7.42112648 C151.252912,7.42112648 150.472587,8.09220617 150.316522,9.32512001 Z M160.273471,14.0694973 C158.150987,14.0694973 156.496697,12.5868794 156.496697,10.0586257 C156.496697,7.56158502 158.229019,6.03214759 160.023767,6.03214759 C162.099432,6.03214759 163.191888,7.53037201 163.191888,9.66846311 C163.191888,10.0118062 163.160675,10.3551493 163.113855,10.5424274 L158.244626,10.5424274 C158.400691,11.9001932 159.274655,12.6805185 160.507569,12.6805185 C161.163042,12.6805185 161.724876,12.4776339 162.286711,12.1186843 L162.895364,13.2423526 C162.161858,13.7261542 161.241075,14.0694973 160.273471,14.0694973 Z M158.229019,9.32512001 L161.631237,9.32512001 C161.631237,8.13902568 161.116223,7.42112648 160.070587,7.42112648 C159.16541,7.42112648 158.385084,8.09220617 158.229019,9.32512001 Z M164.580867,10.6048534 L164.580867,9.293907 L168.295215,9.293907 L168.295215,10.6048534 L164.580867,10.6048534 Z M170.246028,13.8822193 L170.246028,3.67556543 L173.507787,3.67556543 C175.614665,3.67556543 177.159709,4.31543211 177.159709,6.18821263 C177.159709,7.1558159 176.629088,8.09220617 175.739517,8.40433625 L175.739517,8.46676227 C176.863186,8.71646634 177.69033,9.51239806 177.69033,10.8857704 C177.69033,12.9302225 176.020434,13.8822193 173.773098,13.8822193 L170.246028,13.8822193 Z M172.056382,7.88932161 L173.351722,7.88932161 C174.771914,7.88932161 175.380568,7.32748745 175.380568,6.45352321 C175.380568,5.45470693 174.709488,5.08015082 173.382935,5.08015082 L172.056382,5.08015082 L172.056382,7.88932161 Z M172.056382,12.4776339 L173.58582,12.4776339 C175.084044,12.4776339 175.926795,11.9314062 175.926795,10.7921314 C175.926795,9.71528262 175.115257,9.24708749 173.58582,9.24708749 L172.056382,9.24708749 L172.056382,12.4776339 Z M182.684412,14.0694973 C180.561927,14.0694973 178.907638,12.5868794 178.907638,10.0586257 C178.907638,7.56158502 180.63996,6.03214759 182.434708,6.03214759 C184.510373,6.03214759 185.602828,7.53037201 185.602828,9.66846311 C185.602828,10.0118062 185.571615,10.3551493 185.524796,10.5424274 L180.655566,10.5424274 C180.811631,11.9001932 181.685595,12.6805185 182.918509,12.6805185 C183.573982,12.6805185 184.135817,12.4776339 184.697651,12.1186843 L185.306304,13.2423526 C184.572799,13.7261542 183.652015,14.0694973 182.684412,14.0694973 Z M180.63996,9.32512001 L184.042178,9.32512001 C184.042178,8.13902568 183.527163,7.42112648 182.481527,7.42112648 C181.57635,7.42112648 180.796025,8.09220617 180.63996,9.32512001 Z M190.003862,14.0694973 C188.084262,14.0694973 186.851348,12.5868794 186.851348,10.0586257 C186.851348,7.56158502 188.427605,6.03214759 190.097501,6.03214759 C190.971466,6.03214759 191.517693,6.35988418 192.11074,6.87489882 L192.048314,5.64198498 L192.048314,2.8640272 L193.843062,2.8640272 L193.843062,13.8822193 L192.360444,13.8822193 L192.235592,13.0550746 L192.173166,13.0550746 C191.611332,13.6169087 190.831007,14.0694973 190.003862,14.0694973 Z M190.440844,12.5868794 C191.033892,12.5868794 191.5333,12.3215689 192.048314,11.7285217 L192.048314,8.15463218 C191.517693,7.68643705 191.002679,7.5147655 190.487664,7.5147655 C189.504454,7.5147655 188.708522,8.43554926 188.708522,10.0430192 C188.708522,11.6973087 189.332783,12.5868794 190.440844,12.5868794 Z M196.121612,13.8822193 L196.121612,6.21942564 L197.60423,6.21942564 L197.729082,7.57719152 L197.791508,7.57719152 C198.337736,6.57837524 199.149274,6.03214759 199.960812,6.03214759 C200.350975,6.03214759 200.600679,6.0789671 200.834776,6.18821263 L200.522646,7.74886307 C200.257336,7.67083055 200.054451,7.62401103 199.726715,7.62401103 C199.118061,7.62401103 198.384555,8.04538665 197.91636,9.20026798 L197.91636,13.8822193 L196.121612,13.8822193 Z M204.92368,14.0694973 C203.019687,14.0694973 201.287365,12.6024859 201.287365,10.0586257 C201.287365,7.499159 203.019687,6.03214759 204.92368,6.03214759 C206.843281,6.03214759 208.575602,7.499159 208.575602,10.0586257 C208.575602,12.6024859 206.843281,14.0694973 204.92368,14.0694973 Z M204.92368,12.6024859 C206.047349,12.6024859 206.734035,11.5880631 206.734035,10.0586257 C206.734035,8.51358178 206.047349,7.499159 204.92368,7.499159 C203.800012,7.499159 203.128932,8.51358178 203.128932,10.0586257 C203.128932,11.5880631 203.800012,12.6024859 204.92368,12.6024859 Z M213.491651,14.0694973 C211.587658,14.0694973 209.855336,12.6024859 209.855336,10.0586257 C209.855336,7.499159 211.587658,6.03214759 213.491651,6.03214759 C215.411251,6.03214759 217.143573,7.499159 217.143573,10.0586257 C217.143573,12.6024859 215.411251,14.0694973 213.491651,14.0694973 Z M213.491651,12.6024859 C214.61532,12.6024859 215.302006,11.5880631 215.302006,10.0586257 C215.302006,8.51358178 214.61532,7.499159 213.491651,7.499159 C212.367983,7.499159 211.696903,8.51358178 211.696903,10.0586257 C211.696903,11.5880631 212.367983,12.6024859 213.491651,12.6024859 Z M218.922715,13.8822193 L218.922715,6.21942564 L220.405333,6.21942564 L220.530185,7.26506143 L220.592611,7.26506143 C221.232478,6.57837524 221.98159,6.03214759 222.933587,6.03214759 C224.057255,6.03214759 224.697122,6.54716223 225.056071,7.40551997 C225.789577,6.62519475 226.554296,6.03214759 227.521899,6.03214759 C229.144975,6.03214759 229.894087,7.1402094 229.894087,9.07541594 L229.894087,13.8822193 L228.083733,13.8822193 L228.083733,9.30951351 C228.083733,8.04538665 227.709177,7.57719152 226.913245,7.57719152 C226.429444,7.57719152 225.898822,7.88932161 225.305775,8.52918829 L225.305775,13.8822193 L223.511027,13.8822193 L223.511027,9.30951351 C223.511027,8.04538665 223.136471,7.57719152 222.324933,7.57719152 C221.856738,7.57719152 221.31051,7.88932161 220.717463,8.52918829 L220.717463,13.8822193 L218.922715,13.8822193 Z M128.436203,24.0576601 L128.077253,25.3061805 L130.683539,25.3061805 L130.32459,24.0576601 C129.996853,22.9808113 129.700329,21.8103235 129.403806,20.6866552 L129.34138,20.6866552 C129.060463,21.82593 128.763939,22.9808113 128.436203,24.0576601 Z M125.018378,29.4887237 L128.342563,19.2820698 L130.465048,19.2820698 L133.789234,29.4887237 L131.88524,29.4887237 L131.089308,26.7263724 L127.655877,26.7263724 L126.859946,29.4887237 L125.018378,29.4887237 Z M134.897295,32.5163855 L134.897295,21.82593 L136.379913,21.82593 L136.504765,22.6374682 L136.567191,22.6374682 C137.207058,22.0912406 138.034203,21.638652 138.876954,21.638652 C140.780947,21.638652 141.889009,23.1680894 141.889009,25.5402781 C141.889009,28.1621708 140.312752,29.6760017 138.611643,29.6760017 C137.940564,29.6760017 137.269484,29.3638716 136.645224,28.8332505 L136.692043,30.1129838 L136.692043,32.5163855 L134.897295,32.5163855 Z M138.237087,28.1933838 C139.25151,28.1933838 140.031835,27.2882066 140.031835,25.5558846 C140.031835,24.0264471 139.532427,23.1212699 138.377546,23.1212699 C137.815712,23.1212699 137.28509,23.402187 136.692043,23.9796276 L136.692043,27.5535171 C137.253877,28.0217123 137.784499,28.1933838 138.237087,28.1933838 Z M145.36926,29.6760017 C144.0271,29.6760017 143.106317,28.7708245 143.106317,27.4286651 C143.106317,25.7899821 144.464083,24.9316244 147.616596,24.5882813 C147.585383,23.7767431 147.257647,23.0900569 146.212011,23.0900569 C145.462899,23.0900569 144.745,23.4334 144.058313,23.8391691 L143.40284,22.6374682 C144.245591,22.1068471 145.338047,21.638652 146.555354,21.638652 C148.459348,21.638652 149.411344,22.8091398 149.411344,24.9472309 L149.411344,29.4887237 L147.928726,29.4887237 L147.803874,28.6459724 L147.741448,28.6459724 C147.054762,29.2234131 146.274437,29.6760017 145.36926,29.6760017 Z M145.9467,28.2714163 C146.570961,28.2714163 147.039156,27.9592862 147.616596,27.4286651 L147.616596,25.7119496 C145.525325,25.9772602 144.838639,26.5234878 144.838639,27.2882066 C144.838639,27.9748927 145.306834,28.2714163 145.9467,28.2714163 Z M151.565042,29.4887237 L151.565042,21.82593 L153.04766,21.82593 L153.172512,23.1836959 L153.234938,23.1836959 C153.781166,22.1848796 154.592704,21.638652 155.404242,21.638652 C155.794405,21.638652 156.044109,21.6854715 156.278206,21.794717 L155.966076,23.3553674 C155.700766,23.2773349 155.497881,23.2305154 155.170145,23.2305154 C154.561491,23.2305154 153.827985,23.651891 153.35979,24.8067724 L153.35979,29.4887237 L151.565042,29.4887237 Z M160.086193,29.6760017 C158.307052,29.6760017 157.651579,28.5523334 157.651579,26.8980439 L157.651579,23.2461219 L156.559123,23.2461219 L156.559123,21.9039625 L157.745218,21.82593 L157.963709,19.7346584 L159.461933,19.7346584 L159.461933,21.82593 L161.412746,21.82593 L161.412746,23.2461219 L159.461933,23.2461219 L159.461933,26.8980439 C159.461933,27.8032212 159.805276,28.2402033 160.538782,28.2402033 C160.804093,28.2402033 161.116223,28.1621708 161.334714,28.0685318 L161.646844,29.3950846 C161.225468,29.5355432 160.694847,29.6760017 160.086193,29.6760017 Z M163.020216,29.4887237 L163.020216,21.82593 L164.502834,21.82593 L164.627686,22.8715658 L164.690112,22.8715658 C165.329979,22.1848796 166.079091,21.638652 167.031088,21.638652 C168.154756,21.638652 168.794623,22.1536666 169.153572,23.0120244 C169.887078,22.2316991 170.651797,21.638652 171.6194,21.638652 C173.242477,21.638652 173.991589,22.7467138 173.991589,24.6819203 L173.991589,29.4887237 L172.181234,29.4887237 L172.181234,24.9160179 C172.181234,23.651891 171.806678,23.1836959 171.010746,23.1836959 C170.526945,23.1836959 169.996324,23.495826 169.403277,24.1356927 L169.403277,29.4887237 L167.608529,29.4887237 L167.608529,24.9160179 C167.608529,23.651891 167.233972,23.1836959 166.422434,23.1836959 C165.954239,23.1836959 165.408011,23.495826 164.814964,24.1356927 L164.814964,29.4887237 L163.020216,29.4887237 Z M179.453865,29.6760017 C177.331381,29.6760017 175.677091,28.1933838 175.677091,25.6651301 C175.677091,23.1680894 177.409413,21.638652 179.204161,21.638652 C181.279826,21.638652 182.372282,23.1368764 182.372282,25.2749675 C182.372282,25.6183106 182.341069,25.9616537 182.294249,26.1489317 L177.42502,26.1489317 C177.581085,27.5066976 178.455049,28.2870228 179.687963,28.2870228 C180.343436,28.2870228 180.90527,28.0841383 181.467104,27.7251887 L182.075758,28.848857 C181.342252,29.3326586 180.421469,29.6760017 179.453865,29.6760017 Z M177.409413,24.9316244 L180.811631,24.9316244 C180.811631,23.7455301 180.296617,23.0276309 179.250981,23.0276309 C178.345804,23.0276309 177.565478,23.6987105 177.409413,24.9316244 Z M184.088997,29.4887237 L184.088997,21.82593 L185.571615,21.82593 L185.696467,22.8559593 L185.758893,22.8559593 C186.445579,22.1848796 187.225905,21.638652 188.27154,21.638652 C189.910223,21.638652 190.628122,22.7467138 190.628122,24.6819203 L190.628122,29.4887237 L188.833374,29.4887237 L188.833374,24.9160179 C188.833374,23.651891 188.474425,23.1836959 187.631674,23.1836959 C186.960594,23.1836959 186.523612,23.5114325 185.883745,24.1356927 L185.883745,29.4887237 L184.088997,29.4887237 Z M195.528565,29.6760017 C193.749423,29.6760017 193.09395,28.5523334 193.09395,26.8980439 L193.09395,23.2461219 L192.001495,23.2461219 L192.001495,21.9039625 L193.187589,21.82593 L193.40608,19.7346584 L194.904305,19.7346584 L194.904305,21.82593 L196.855118,21.82593 L196.855118,23.2461219 L194.904305,23.2461219 L194.904305,26.8980439 C194.904305,27.8032212 195.247648,28.2402033 195.981153,28.2402033 C196.246464,28.2402033 196.558594,28.1621708 196.777085,28.0685318 L197.089215,29.3950846 C196.66784,29.5355432 196.137219,29.6760017 195.528565,29.6760017 Z" id="Three-BedroomApartment" fill="#666666" fill-rule="nonzero"></path>
            <path d="M129.325773,88.9495054 C127.952401,88.9495054 126.610241,88.4032777 125.642638,87.4512809 L126.703881,86.2183671 C127.437386,86.9050533 128.420596,87.3732484 129.356986,87.3732484 C130.511868,87.3732484 131.136128,86.8582338 131.136128,86.062302 C131.136128,85.2195508 130.480655,84.9542402 129.559871,84.5640776 L128.155285,83.955424 C127.156469,83.5340483 126.095227,82.7381166 126.095227,81.2398922 C126.095227,79.6168157 127.531025,78.3682954 129.528658,78.3682954 C130.714752,78.3682954 131.869633,78.8677035 132.665565,79.6636353 L131.744781,80.8185166 C131.089308,80.2722889 130.402622,79.9445523 129.528658,79.9445523 C128.561055,79.9445523 127.921188,80.397141 127.921188,81.1462532 C127.921188,81.9421849 128.701513,82.2387085 129.544264,82.5820516 L130.933243,83.1594922 C132.134944,83.6745069 132.993302,84.4392256 132.993302,85.9218435 C132.993302,87.576133 131.619929,88.9495054 129.325773,88.9495054 Z M136.551585,88.9495054 C135.209425,88.9495054 134.288642,88.0443281 134.288642,86.7021687 C134.288642,85.0634858 135.646408,84.205128 138.798921,83.8617849 C138.767708,83.0502467 138.439972,82.3635605 137.394336,82.3635605 C136.645224,82.3635605 135.927325,82.7069036 135.240638,83.1126727 L134.585165,81.9109719 C135.427916,81.3803507 136.520372,80.9121556 137.737679,80.9121556 C139.641673,80.9121556 140.593669,82.0826434 140.593669,84.2207345 L140.593669,88.7622273 L139.111052,88.7622273 L138.986199,87.9194761 L138.923773,87.9194761 C138.237087,88.4969167 137.456762,88.9495054 136.551585,88.9495054 Z M137.129025,87.54492 C137.753286,87.54492 138.221481,87.2327899 138.798921,86.7021687 L138.798921,84.9854532 C136.70765,85.2507638 136.020964,85.7969915 136.020964,86.5617102 C136.020964,87.2483964 136.489159,87.54492 137.129025,87.54492 Z M142.747367,88.7622273 L142.747367,81.0994337 L144.229985,81.0994337 L144.354837,82.1294629 L144.417263,82.1294629 C145.103949,81.4583833 145.884274,80.9121556 146.92991,80.9121556 C148.568593,80.9121556 149.286492,82.0202174 149.286492,83.955424 L149.286492,88.7622273 L147.491744,88.7622273 L147.491744,84.1895215 C147.491744,82.9253947 147.132795,82.4571995 146.290044,82.4571995 C145.618964,82.4571995 145.181982,82.7849361 144.542115,83.4091963 L144.542115,88.7622273 L142.747367,88.7622273 Z M154.186935,88.9495054 C152.407793,88.9495054 151.75232,87.825837 151.75232,86.1715476 L151.75232,82.5196256 L150.659865,82.5196256 L150.659865,81.1774662 L151.845959,81.0994337 L152.06445,79.0081621 L153.562675,79.0081621 L153.562675,81.0994337 L155.513488,81.0994337 L155.513488,82.5196256 L153.562675,82.5196256 L153.562675,86.1715476 C153.562675,87.0767248 153.906018,87.513707 154.639523,87.513707 C154.904834,87.513707 155.216964,87.4356744 155.435455,87.3420354 L155.747585,88.6685883 C155.32621,88.8090468 154.795588,88.9495054 154.186935,88.9495054 Z M158.650395,88.9495054 C157.308236,88.9495054 156.387452,88.0443281 156.387452,86.7021687 C156.387452,85.0634858 157.745218,84.205128 160.897732,83.8617849 C160.866519,83.0502467 160.538782,82.3635605 159.493146,82.3635605 C158.744034,82.3635605 158.026135,82.7069036 157.339449,83.1126727 L156.683975,81.9109719 C157.526727,81.3803507 158.619182,80.9121556 159.836489,80.9121556 C161.740483,80.9121556 162.69248,82.0826434 162.69248,84.2207345 L162.69248,88.7622273 L161.209862,88.7622273 L161.08501,87.9194761 L161.022584,87.9194761 C160.335897,88.4969167 159.555572,88.9495054 158.650395,88.9495054 Z M159.227836,87.54492 C159.852096,87.54492 160.320291,87.2327899 160.897732,86.7021687 L160.897732,84.9854532 C158.80646,85.2507638 158.119774,85.7969915 158.119774,86.5617102 C158.119774,87.2483964 158.587969,87.54492 159.227836,87.54492 Z M168.123543,88.7622273 L168.123543,78.5555734 L171.385303,78.5555734 C173.492181,78.5555734 175.037225,79.1954401 175.037225,81.0682206 C175.037225,82.0358239 174.506603,82.9722142 173.617033,83.2843443 L173.617033,83.3467703 C174.740701,83.5964744 175.567846,84.3924061 175.567846,85.7657785 C175.567846,87.8102305 173.89795,88.7622273 171.650613,88.7622273 L168.123543,88.7622273 Z M169.933898,82.7693296 L171.229238,82.7693296 C172.649429,82.7693296 173.258083,82.2074955 173.258083,81.3335312 C173.258083,80.3347149 172.587003,79.9601588 171.260451,79.9601588 L169.933898,79.9601588 L169.933898,82.7693296 Z M169.933898,87.3576419 L171.463335,87.3576419 C172.96156,87.3576419 173.804311,86.8114143 173.804311,85.6721394 C173.804311,84.5952906 172.992773,84.1270955 171.463335,84.1270955 L169.933898,84.1270955 L169.933898,87.3576419 Z M179.141735,88.9495054 C177.799576,88.9495054 176.878792,88.0443281 176.878792,86.7021687 C176.878792,85.0634858 178.236558,84.205128 181.389072,83.8617849 C181.357859,83.0502467 181.030122,82.3635605 179.984486,82.3635605 C179.235374,82.3635605 178.517475,82.7069036 177.830789,83.1126727 L177.175316,81.9109719 C178.018067,81.3803507 179.110522,80.9121556 180.32783,80.9121556 C182.231823,80.9121556 183.18382,82.0826434 183.18382,84.2207345 L183.18382,88.7622273 L181.701202,88.7622273 L181.57635,87.9194761 L181.513924,87.9194761 C180.827238,88.4969167 180.046912,88.9495054 179.141735,88.9495054 Z M179.719176,87.54492 C180.343436,87.54492 180.811631,87.2327899 181.389072,86.7021687 L181.389072,84.9854532 C179.2978,85.2507638 178.611114,85.7969915 178.611114,86.5617102 C178.611114,87.2483964 179.079309,87.54492 179.719176,87.54492 Z M185.337517,88.7622273 L185.337517,81.0994337 L186.820135,81.0994337 L186.944987,82.4571995 L187.007413,82.4571995 C187.553641,81.4583833 188.365179,80.9121556 189.176718,80.9121556 C189.56688,80.9121556 189.816584,80.9589751 190.050682,81.0682206 L189.738552,82.6288711 C189.473241,82.5508386 189.270357,82.504019 188.94262,82.504019 C188.333966,82.504019 187.600461,82.9253947 187.132265,84.080276 L187.132265,88.7622273 L185.337517,88.7622273 Z M194.873092,88.9495054 C194.170799,88.9495054 193.421687,88.5905558 192.78182,87.9506891 L192.735001,87.9506891 L192.578936,88.7622273 L191.158744,88.7622273 L191.158744,77.7440352 L192.953492,77.7440352 L192.953492,80.584419 L192.906672,81.8641524 C193.546539,81.3023182 194.342471,80.9121556 195.122796,80.9121556 C197.042396,80.9121556 198.150458,82.441593 198.150458,84.7981752 C198.150458,87.4356744 196.574201,88.9495054 194.873092,88.9495054 Z M194.498536,87.4668874 C195.512958,87.4668874 196.293284,86.5617102 196.293284,84.8293882 C196.293284,83.2999508 195.793875,82.3947735 194.638994,82.3947735 C194.07716,82.3947735 193.546539,82.6756906 192.953492,83.2531313 L192.953492,86.8270208 C193.499719,87.2952159 194.045947,87.4668874 194.498536,87.4668874 Z M201.615102,88.9495054 C200.272942,88.9495054 199.352158,88.0443281 199.352158,86.7021687 C199.352158,85.0634858 200.709924,84.205128 203.862438,83.8617849 C203.831225,83.0502467 203.503489,82.3635605 202.457853,82.3635605 C201.708741,82.3635605 200.990841,82.7069036 200.304155,83.1126727 L199.648682,81.9109719 C200.491433,81.3803507 201.583889,80.9121556 202.801196,80.9121556 C204.705189,80.9121556 205.657186,82.0826434 205.657186,84.2207345 L205.657186,88.7622273 L204.174568,88.7622273 L204.049716,87.9194761 L203.98729,87.9194761 C203.300604,88.4969167 202.520279,88.9495054 201.615102,88.9495054 Z M202.192542,87.54492 C202.816802,87.54492 203.284998,87.2327899 203.862438,86.7021687 L203.862438,84.9854532 C201.771167,85.2507638 201.08448,85.7969915 201.08448,86.5617102 C201.08448,87.2483964 201.552676,87.54492 202.192542,87.54492 Z M207.810884,88.7622273 L207.810884,81.0994337 L209.293502,81.0994337 L209.418354,82.4571995 L209.48078,82.4571995 C210.027007,81.4583833 210.838546,80.9121556 211.650084,80.9121556 C212.040246,80.9121556 212.289951,80.9589751 212.524048,81.0682206 L212.211918,82.6288711 C211.946607,82.5508386 211.743723,82.504019 211.415986,82.504019 C210.807333,82.504019 210.073827,82.9253947 209.605632,84.080276 L209.605632,88.7622273 L207.810884,88.7622273 Z M215.083515,88.9495054 C213.741355,88.9495054 212.820572,88.0443281 212.820572,86.7021687 C212.820572,85.0634858 214.178338,84.205128 217.330851,83.8617849 C217.299638,83.0502467 216.971902,82.3635605 215.926266,82.3635605 C215.177154,82.3635605 214.459255,82.7069036 213.772568,83.1126727 L213.117095,81.9109719 C213.959847,81.3803507 215.052302,80.9121556 216.269609,80.9121556 C218.173603,80.9121556 219.125599,82.0826434 219.125599,84.2207345 L219.125599,88.7622273 L217.642982,88.7622273 L217.51813,87.9194761 L217.455703,87.9194761 C216.769017,88.4969167 215.988692,88.9495054 215.083515,88.9495054 Z M215.660955,87.54492 C216.285216,87.54492 216.753411,87.2327899 217.330851,86.7021687 L217.330851,84.9854532 C215.23958,85.2507638 214.552894,85.7969915 214.552894,86.5617102 C214.552894,87.2483964 215.021089,87.54492 215.660955,87.54492 Z M221.263691,91.6026111 L220.873528,90.6194013 C221.887951,90.2292387 222.465391,89.5113395 222.449785,88.7310143 L222.309326,88.7310143 C221.700673,88.7310143 221.154445,88.3252452 221.154445,87.6229525 C221.154445,86.9518728 221.700673,86.5148907 222.356146,86.5148907 C223.198897,86.5148907 223.698305,87.2015769 223.698305,88.3564582 C223.698305,89.8858956 222.808734,91.07199 221.263691,91.6026111 Z M232.921749,88.9495054 C230.346676,88.9495054 228.317831,87.0767248 228.317831,83.6901134 C228.317831,80.3503214 230.409102,78.3682954 232.984175,78.3682954 C234.263909,78.3682954 235.293938,78.9769491 235.933805,79.6636353 L234.966201,80.8341231 C234.43558,80.3035019 233.826927,79.9445523 233.030995,79.9445523 C231.361099,79.9445523 230.175005,81.3491377 230.175005,83.6432939 C230.175005,85.968663 231.26746,87.3732484 232.984175,87.3732484 C233.889353,87.3732484 234.591645,86.9518728 235.169086,86.3276126 L236.136689,87.4668874 C235.309544,88.4188842 234.232696,88.9495054 232.921749,88.9495054 Z M239.92907,83.3311638 L239.57012,84.5796841 L242.176406,84.5796841 L241.817457,83.3311638 C241.48972,82.254315 241.193197,81.0838271 240.896673,79.9601588 L240.834247,79.9601588 C240.55333,81.0994337 240.256806,82.254315 239.92907,83.3311638 Z M236.511245,88.7622273 L239.835431,78.5555734 L241.957915,78.5555734 L245.282101,88.7622273 L243.378107,88.7622273 L242.582176,85.999876 L239.148745,85.999876 L238.352813,88.7622273 L236.511245,88.7622273 Z" id="SantaBarbara,CA" fill="#666666" fill-rule="nonzero"></path>
            <path d="M132.787816,69.1148685 L132.787816,65.8635134 C130.80449,65.6684321 128.626082,64.7580527 127.162972,63.3924836 L128.853677,60.8564266 C130.381813,62.059428 131.90995,62.8722667 133.665682,62.8722667 C135.779063,62.8722667 136.819496,61.8318331 136.819496,60.0761014 C136.819496,55.7843127 127.975811,56.4020701 127.975811,50.2895226 C127.975811,47.2657624 129.861597,45.119868 132.787816,44.5996512 L132.787816,41.283269 L135.3889,41.283269 L135.3889,44.5346241 C137.469767,44.7947325 138.900364,45.8026526 140.103365,47.0706811 L138.185066,49.249089 C136.982064,48.1436282 135.974144,47.5258708 134.413494,47.5258708 C132.657762,47.5258708 131.584815,48.4362502 131.584815,50.1269548 C131.584815,54.0285809 140.428501,53.2482557 140.428501,59.815993 C140.428501,62.9047803 138.607742,65.1807289 135.3889,65.7659728 L135.3889,69.1148685 L132.787816,69.1148685 Z M150.117539,65.5383779 L150.117539,63.35997 C155.872437,57.8001528 159.481441,54.1586351 159.481441,51.0048207 C159.481441,48.8264128 158.27844,47.4283301 156.067519,47.4283301 C154.474355,47.4283301 153.141299,48.5012773 152.035838,49.7367922 L149.954971,47.655925 C151.840757,45.6400848 153.726543,44.469597 156.555222,44.469597 C160.521875,44.469597 163.090445,46.9731404 163.090445,50.8097394 C163.090445,54.4837706 159.676523,58.2553425 155.579815,62.5796448 C156.652762,62.4821041 158.018332,62.3520499 159.026252,62.3520499 L164.098366,62.3520499 L164.098366,65.5383779 L150.117539,65.5383779 Z M167.902451,71.4558442 L167.089612,69.4074905 C169.202993,68.5946517 170.405994,67.0990283 170.373481,65.4733508 L170.080859,65.4733508 C168.81283,65.4733508 167.674856,64.6279985 167.674856,63.1648887 C167.674856,61.766806 168.81283,60.8564266 170.1784,60.8564266 C171.934131,60.8564266 172.974565,62.2870228 172.974565,64.6930256 C172.974565,67.8793536 171.121293,70.3503834 167.902451,71.4558442 Z M179.964978,65.5383779 C180.322627,58.1903154 181.72071,53.5733912 185.719877,48.013574 L175.933298,48.013574 L175.933298,44.8597596 L189.816584,44.8597596 L189.816584,47.1357082 C184.972065,53.1507151 184.126713,57.4750173 183.769064,65.5383779 L179.964978,65.5383779 Z M200.903705,65.5383779 L200.903705,60.2061556 L191.767397,60.2061556 L191.767397,57.6700986 L199.960812,44.8597596 L204.415169,44.8597596 L204.415169,57.3124496 L207.016253,57.3124496 L207.016253,60.2061556 L204.415169,60.2061556 L204.415169,65.5383779 L200.903705,65.5383779 Z M195.473942,57.3124496 L200.903705,57.3124496 L200.903705,52.6304982 C200.903705,51.4274969 201.001246,49.5417109 201.066273,48.3387095 L200.936219,48.3387095 C200.416002,49.4116567 199.830758,50.4520903 199.245514,51.5575511 L195.473942,57.3124496 Z M217.583157,65.5383779 L217.583157,60.2061556 L208.446849,60.2061556 L208.446849,57.6700986 L216.640264,44.8597596 L221.09462,44.8597596 L221.09462,57.3124496 L223.695704,57.3124496 L223.695704,60.2061556 L221.09462,60.2061556 L221.09462,65.5383779 L217.583157,65.5383779 Z M212.153394,57.3124496 L217.583157,57.3124496 L217.583157,52.6304982 C217.583157,51.4274969 217.680697,49.5417109 217.745724,48.3387095 L217.61567,48.3387095 C217.095453,49.4116567 216.510209,50.4520903 215.924966,51.5575511 L212.153394,57.3124496 Z" id="$2,744" fill="#00766C" fill-rule="nonzero"></path>
        </g>
    </g>
</svg>