<?xml version="1.0" encoding="UTF-8"?>
<svg width="250px" height="100px" viewBox="0 0 250 100" version="1.1" xmlns="http://www.w3.org/2000/svg" xmlns:xlink="http://www.w3.org/1999/xlink">
    <!-- Generator: Sketch 58 (84663) - https://sketch.com -->
    <title>spending-1-outline</title>
    <desc>Created with Sketch.</desc>
    <defs>
        <polygon id="path-1" points="0.471030742 0.316133906 16.3653728 0.316133906 16.3653728 17.4850573 0.471030742 17.4850573"></polygon>
    </defs>
    <g id="spending-1-outline" stroke="none" stroke-width="1" fill="none" fill-rule="evenodd">
        <g id="Group-26" transform="translate(3.000000, 12.000000)">
            <path d="M5.16127115,49.9202325 L5.16127115,46.8637493 C4.09098215,46.7814194 3.11332898,46.5087056 2.2282823,46.0455998 C1.34323563,45.582494 0.602277432,45.0627942 0.00538548886,44.4864847 L0.746351093,43.5294041 C1.34324304,44.0645486 2.05332797,44.5585207 2.8766272,45.0113353 C3.69992644,45.4641499 4.64670635,45.6905538 5.71699535,45.6905538 C7.01369164,45.6905538 8.00678145,45.3406569 8.69629455,44.6408525 C9.38580766,43.9410482 9.73055904,43.0251415 9.73055904,41.8931051 C9.73055904,40.8845635 9.50930069,40.0664222 9.06677736,39.4386565 C8.62425402,38.8108908 8.07368092,38.2757544 7.41504153,37.833231 C6.88813002,37.4792124 6.32500021,37.1548363 5.72564112,36.8600967 L5.26932863,36.6445987 C4.4974856,36.2946965 3.78225513,35.8933442 3.12361574,35.4405296 C2.46497635,34.987715 1.91440325,34.4371419 1.47187991,33.7887938 C1.02935658,33.1404456 0.808098227,32.291431 0.808098227,31.2417245 C0.808098227,30.6036676 0.91615463,30.0067846 1.13227068,29.4510576 C1.34838673,28.8953307 1.65197376,28.4065041 2.0430409,27.9845632 C2.43410804,27.5626224 2.89720691,27.217871 3.43235141,26.9502987 C3.96749591,26.6827265 4.54379673,26.5180691 5.16127115,26.4563217 L5.16127115,23.3998385 L6.36534026,23.3998385 L6.36534026,26.4563217 C7.37388182,26.5180691 8.1971687,26.7547641 8.8352256,27.1664137 C9.47328251,27.5780633 10.0598744,28.0617444 10.5950189,28.6174713 L9.79230618,29.4819312 C9.50415145,29.1937765 9.22114658,28.9364993 8.94328309,28.710092 C8.6654196,28.4836847 8.37212365,28.2881541 8.06338643,28.1234943 C7.75464922,27.9588344 7.41504338,27.8353414 7.04455873,27.7530115 C6.67407407,27.6706815 6.25213955,27.6295172 5.77874249,27.6295172 C4.70845349,27.6295172 3.84400226,27.9639775 3.18536287,28.6329081 C2.52672349,29.3018387 2.19740873,30.1508533 2.19740873,31.1799774 C2.19740873,32.0856065 2.41866708,32.8111281 2.86119042,33.3565638 C3.30371376,33.9019996 3.85428686,34.3753895 4.51292625,34.7767479 C5.03983776,35.0978346 5.60296756,35.3991586 6.20232666,35.6807255 L6.65863914,35.8881963 C7.43048217,36.2278073 8.14571265,36.6394507 8.80435204,37.123139 C9.46299142,37.6068273 10.0135645,38.2140014 10.4560879,38.9446794 C10.8986112,39.6753575 11.1198696,40.627283 11.1198696,41.8004844 C11.1198696,43.282423 10.6722073,44.4658979 9.77686939,45.3509446 C8.88153148,46.2359912 7.74436647,46.7402545 6.36534026,46.8637493 L6.36534026,49.9202325 L5.16127115,49.9202325 Z M15.2569275,46.5241401 L15.2569275,43.6220248 L19.640974,43.6220248 L19.640974,30.7168739 L16.0287667,30.7168739 L16.0287667,28.4939771 C17.0167258,28.3087347 17.8657404,28.0874764 18.5758359,27.8301954 C19.2859315,27.5729144 19.9497066,27.2590362 20.567181,26.8885516 L23.2223078,26.8885516 L23.2223078,43.6220248 L27.0815036,43.6220248 L27.0815036,46.5241401 L15.2569275,46.5241401 Z M38.0416198,46.5241401 L38.0416198,41.4608751 L29.3661476,41.4608751 L29.3661476,39.0527369 L37.1462864,26.8885516 L41.3759651,26.8885516 L41.3759651,38.7131277 L43.8458504,38.7131277 L43.8458504,41.4608751 L41.3759651,41.4608751 L41.3759651,46.5241401 L38.0416198,46.5241401 Z M32.8857342,38.7131277 L38.0416198,38.7131277 L38.0416198,34.2673341 C38.0416198,33.7870762 38.0523397,33.2353584 38.0737797,32.612169 L38.0879302,32.2296787 C38.1188039,31.4475444 38.1548227,30.7683327 38.1959877,30.1920232 L38.0724934,30.1920232 C37.8255036,30.7065853 37.5682265,31.2108485 37.3006542,31.704828 L36.4670679,33.2485064 L36.4670679,33.2485064 L32.8857342,38.7131277 Z M52.5521962,46.8946229 C50.4939482,46.8946229 48.8679566,46.014735 47.6741727,44.2549329 C46.4803888,42.4951308 45.8835058,39.948087 45.8835058,36.6137251 C45.8835058,33.2793633 46.4803888,30.7631927 47.6741727,29.0651381 C48.8679566,27.3670834 50.4939482,26.5180688 52.5521962,26.5180688 C54.6104443,26.5180688 56.2364359,27.3722289 57.4302198,29.0805748 C58.6240037,30.7889207 59.2208867,33.2999457 59.2208867,36.6137251 C59.2208867,39.948087 58.6240037,42.4951308 57.4302198,44.2549329 C56.2364359,46.014735 54.6104443,46.8946229 52.5521962,46.8946229 Z M52.5521962,44.1160019 C53.0255933,44.1160019 53.4629645,43.9873633 53.8643228,43.7300823 C54.2656812,43.4728013 54.6104326,43.0457212 54.8985873,42.4488293 C55.1867421,41.8519373 55.4131459,41.0801059 55.5778058,40.1333118 C55.7424656,39.1865177 55.8247943,38.0133338 55.8247943,36.6137251 C55.8247943,35.2346989 55.7424656,34.0769518 55.5778058,33.1404489 C55.4131459,32.203946 55.1867421,31.4475512 54.8985873,30.8712417 C54.6104326,30.2949323 54.2656812,29.8884344 53.8643228,29.6517358 C53.4629645,29.4150373 53.0255933,29.2966898 52.5521962,29.2966898 C52.0787992,29.2966898 51.641428,29.4150373 51.2400697,29.6517358 C50.8387113,29.8884344 50.4939599,30.2949323 50.2058052,30.8712417 C49.9176504,31.4475512 49.6912465,32.203946 49.5265867,33.1404489 C49.3619268,34.0769518 49.2795982,35.2346989 49.2795982,36.6137251 C49.2795982,38.0133338 49.3619268,39.1865177 49.5265867,40.1333118 C49.6912465,41.0801059 49.9176504,41.8519373 50.2058052,42.4488293 C50.4939599,43.0457212 50.8387113,43.4728013 51.2400697,43.7300823 C51.641428,43.9873633 52.0787992,44.1160019 52.5521962,44.1160019 Z M64.8707494,42.0783465 C65.7146311,42.0783465 66.3681151,42.3973701 66.8312209,43.035427 C67.2943267,43.673484 67.5258762,44.5688084 67.5258762,45.7214274 C67.5258762,47.2445309 67.1090872,48.56179 66.2754967,49.6732439 C65.4419062,50.7846979 64.2532858,51.6079848 62.7095997,52.1431293 L61.9377606,50.1980946 C62.9463021,49.8070274 63.7232791,49.282182 64.2687149,48.6235426 C64.8141506,47.9649033 65.0765733,47.2445272 65.0559908,46.462393 L64.7781287,46.462393 C64.1812368,46.462393 63.6512458,46.2720079 63.18814,45.891232 C62.7250342,45.5104561 62.4934848,44.9701741 62.4934848,44.2703697 C62.4934848,43.6117303 62.7250342,43.0817394 63.18814,42.680381 C63.6512458,42.2790227 64.21211,42.0783465 64.8707494,42.0783465 Z M76.8805669,26.5180688 C78.938815,26.5180688 80.5648066,27.3722289 81.7585905,29.0805748 C82.9523744,30.7889207 83.5492574,33.2999457 83.5492574,36.6137251 C83.5492574,39.948087 82.9523744,42.4951308 81.7585905,44.2549329 C80.5648066,46.014735 78.938815,46.8946229 76.8805669,46.8946229 C74.8223188,46.8946229 73.1963272,46.014735 72.0025434,44.2549329 C70.8087595,42.4951308 70.2118765,39.948087 70.2118765,36.6137251 C70.2118765,33.2793633 70.8087595,30.7631927 72.0025434,29.0651381 C73.1963272,27.3670834 74.8223188,26.5180688 76.8805669,26.5180688 Z M92.7187067,26.5180688 C94.7769548,26.5180688 96.4029464,27.3722289 97.5967303,29.0805748 C98.7905141,30.7889207 99.3873971,33.2999457 99.3873971,36.6137251 C99.3873971,39.948087 98.7905141,42.4951308 97.5967303,44.2549329 C96.4029464,46.014735 94.7769548,46.8946229 92.7187067,46.8946229 C90.6604586,46.8946229 89.034467,46.014735 87.8406831,44.2549329 C86.6468993,42.4951308 86.0500163,39.948087 86.0500163,36.6137251 C86.0500163,33.2793633 86.6468993,30.7631927 87.8406831,29.0651381 C89.034467,27.3670834 90.6604586,26.5180688 92.7187067,26.5180688 Z M108.556846,26.5180688 C110.615095,26.5180688 112.241086,27.3722289 113.43487,29.0805748 C114.628654,30.7889207 115.225537,33.2999457 115.225537,36.6137251 C115.225537,39.948087 114.628654,42.4951308 113.43487,44.2549329 C112.241086,46.014735 110.615095,46.8946229 108.556846,46.8946229 C106.498598,46.8946229 104.872607,46.014735 103.678823,44.2549329 C102.485039,42.4951308 101.888156,39.948087 101.888156,36.6137251 C101.888156,33.2793633 102.485039,30.7631927 103.678823,29.0651381 C104.872607,27.3670834 106.498598,26.5180688 108.556846,26.5180688 Z M76.8805669,29.2966898 C76.4071699,29.2966898 75.9697987,29.4150373 75.5684403,29.6517358 C75.1670819,29.8884344 74.8223306,30.2949323 74.5341758,30.8712417 C74.2460211,31.4475512 74.0196172,32.203946 73.8549574,33.1404489 C73.6902975,34.0769518 73.6079688,35.2346989 73.6079688,36.6137251 C73.6079688,38.0133338 73.6902975,39.1865177 73.8549574,40.1333118 C74.0196172,41.0801059 74.2460211,41.8519373 74.5341758,42.4488293 C74.8223306,43.0457212 75.1670819,43.4728013 75.5684403,43.7300823 C75.9697987,43.9873633 76.4071699,44.1160019 76.8805669,44.1160019 C77.353964,44.1160019 77.7913351,43.9873633 78.1926935,43.7300823 C78.5940519,43.4728013 78.9388033,43.0457212 79.226958,42.4488293 C79.5151127,41.8519373 79.7415166,41.0801059 79.9061765,40.1333118 C80.0708363,39.1865177 80.153165,38.0133338 80.153165,36.6137251 C80.153165,35.2346989 80.0708363,34.0769518 79.9061765,33.1404489 C79.7415166,32.203946 79.5151127,31.4475512 79.226958,30.8712417 C78.9388033,30.2949323 78.5940519,29.8884344 78.1926935,29.6517358 C77.7913351,29.4150373 77.353964,29.2966898 76.8805669,29.2966898 Z M92.7187067,29.2966898 C92.2453096,29.2966898 91.8079385,29.4150373 91.4065801,29.6517358 C91.0052217,29.8884344 90.6604704,30.2949323 90.3723156,30.8712417 C90.0841609,31.4475512 89.857757,32.203946 89.6930972,33.1404489 C89.5284373,34.0769518 89.4461086,35.2346989 89.4461086,36.6137251 C89.4461086,38.0133338 89.5284373,39.1865177 89.6930972,40.1333118 C89.857757,41.0801059 90.0841609,41.8519373 90.3723156,42.4488293 C90.6604704,43.0457212 91.0052217,43.4728013 91.4065801,43.7300823 C91.8079385,43.9873633 92.2453096,44.1160019 92.7187067,44.1160019 C93.1921038,44.1160019 93.6294749,43.9873633 94.0308333,43.7300823 C94.4321917,43.4728013 94.776943,43.0457212 95.0650978,42.4488293 C95.3532525,41.8519373 95.5796564,41.0801059 95.7443163,40.1333118 C95.9089761,39.1865177 95.9913048,38.0133338 95.9913048,36.6137251 C95.9913048,35.2346989 95.9089761,34.0769518 95.7443163,33.1404489 C95.5796564,32.203946 95.3532525,31.4475512 95.0650978,30.8712417 C94.776943,30.2949323 94.4321917,29.8884344 94.0308333,29.6517358 C93.6294749,29.4150373 93.1921038,29.2966898 92.7187067,29.2966898 Z M108.556846,29.2966898 C108.083449,29.2966898 107.646078,29.4150373 107.24472,29.6517358 C106.843362,29.8884344 106.49861,30.2949323 106.210455,30.8712417 C105.922301,31.4475512 105.695897,32.203946 105.531237,33.1404489 C105.366577,34.0769518 105.284248,35.2346989 105.284248,36.6137251 C105.284248,38.0133338 105.366577,39.1865177 105.531237,40.1333118 C105.695897,41.0801059 105.922301,41.8519373 106.210455,42.4488293 C106.49861,43.0457212 106.843362,43.4728013 107.24472,43.7300823 C107.646078,43.9873633 108.083449,44.1160019 108.556846,44.1160019 C109.030244,44.1160019 109.467615,43.9873633 109.868973,43.7300823 C110.270331,43.4728013 110.615083,43.0457212 110.903238,42.4488293 C111.191392,41.8519373 111.417796,41.0801059 111.582456,40.1333118 C111.747116,39.1865177 111.829445,38.0133338 111.829445,36.6137251 C111.829445,35.2346989 111.747116,34.0769518 111.582456,33.1404489 C111.417796,32.203946 111.191392,31.4475512 110.903238,30.8712417 C110.615083,30.2949323 110.270331,29.8884344 109.868973,29.6517358 C109.467615,29.4150373 109.030244,29.2966898 108.556846,29.2966898 Z" id="$140,000" fill="#00766C" fill-rule="nonzero"></path>
            <g id="Group-32-Copy" transform="translate(168.957061, 0.000000)">
                <g id="Group-4" transform="translate(0.000000, 9.539585)" stroke="#00766C" stroke-linejoin="round" stroke-width="3.70482802">
                    <path d="M27.8827026,57.5596682 C12.7056544,57.5596682 0.404379178,44.746917 0.404379178,28.9417931 C0.404379178,13.1366693 12.7056544,0.323918067 27.8827026,0.323918067" id="Stroke-3"></path>
                </g>
                <g id="Group-8" transform="translate(36.936013, 60.671762)">
                    <path d="M8.12791281,0.628696827 C5.87255465,2.30690067 3.3496491,3.62336343 0.638797033,4.49795261" id="Fill-5"></path>
                    <path d="M8.12791281,0.628696827 C5.87255465,2.30690067 3.3496491,3.62336343 0.638797033,4.49795261" id="Stroke-7" stroke="#00766C" stroke-width="3.70482802" stroke-linejoin="round"></path>
                </g>
                <g id="Group-12" transform="translate(48.242955, 49.987427)">
                    <path d="M4.42779875,0.658612966 C3.27449059,3.17477397 1.81463866,5.50663019 0.103521342,7.59808887" id="Fill-9"></path>
                    <path d="M4.42779875,0.658612966 C3.27449059,3.17477397 1.81463866,5.50663019 0.103521342,7.59808887" id="Stroke-11" stroke="#00766C" stroke-width="3.70482802" stroke-linejoin="round"></path>
                </g>
                <g id="Group-16" transform="translate(54.273325, 39.303091)">
                    <path d="M2.04014935,0.0409566194 C1.94969381,1.79115253 1.72807774,3.50573399 1.38434668,5.16434988" id="Fill-13"></path>
                    <path d="M2.04014935,0.0409566194 C1.94969381,1.79115253 1.72807774,3.50573399 1.38434668,5.16434988" id="Stroke-15" stroke="#00766C" stroke-width="3.70482802" stroke-linejoin="round"></path>
                </g>
                <g id="Group-20" transform="translate(55.027121, 37.776758)">
                    <path d="M1.33158095,0.661360367 C1.33158095,1.19481397 1.31575123,1.72368858 1.28635318,2.25027369" id="Fill-17"></path>
                    <path d="M1.33158095,0.661360367 C1.33158095,1.19481397 1.31575123,1.72368858 1.28635318,2.25027369" id="Stroke-19" stroke="#00766C" stroke-width="3.70482802" stroke-linejoin="round"></path>
                </g>
                <g id="Group-24" transform="translate(54.273325, 30.145089)">
                    <path d="M0.87756951,0.204910291 C1.25522139,1.43437204 1.5492019,2.7004658 1.75272687,3.99861256" id="Fill-21"></path>
                    <path d="M0.87756951,0.204910291 C1.25522139,1.43437204 1.5492019,2.7004658 1.75272687,3.99861256" id="Stroke-23" stroke="#00766C" stroke-width="3.70482802" stroke-linejoin="round"></path>
                </g>
                <g id="Group-28" transform="translate(50.504344, 22.513421)">
                    <path d="M0.882619944,0.525898256 C1.40500069,1.35240792 1.88215368,2.2063916 2.31634027,3.09013877" id="Fill-25"></path>
                    <path d="M0.882619944,0.525898256 C1.40500069,1.35240792 1.88215368,2.2063916 2.31634027,3.09013877" id="Stroke-27" stroke="#00766C" stroke-width="3.70482802" stroke-linejoin="round"></path>
                </g>
                <g id="Group-31" transform="translate(22.613885, 0.381583)">
                    <mask id="mask-2" fill="white">
                        <use xlink:href="#path-1"></use>
                    </mask>
                    <g id="Clip-30"></g>
                    <polygon id="Fill-29" fill="#00766C" mask="url(#mask-2)" points="16.3653728 6.78642041 9.62495092 12.1345504 2.8821813 17.4850573 1.6777799 8.89952599 0.471030742 0.313994654 8.41820176 3.55139601"></polygon>
                </g>
            </g>
            <path d="M184.032623,40.2289681 L184.032623,38.487699 L186.663051,38.487699 L186.663051,30.7446084 L184.495727,30.7446084 L184.495727,29.4108703 C185.088502,29.2997249 185.597911,29.1669699 186.023968,29.0126013 C186.450026,28.8582327 186.848291,28.6699058 187.218775,28.447615 L188.811851,28.447615 L188.811851,38.487699 L191.127369,38.487699 L191.127369,40.2289681 L184.032623,40.2289681 Z M197.709613,40.3771612 C197.281498,40.3771612 196.873971,40.298949 196.48702,40.1425221 C196.10007,39.9860953 195.762522,39.7885064 195.474367,39.5497497 L195.980694,38.8705312 C196.244149,39.084589 196.513776,39.2574792 196.789581,39.3892071 C197.065386,39.520935 197.38441,39.5867979 197.746662,39.5867979 C198.141845,39.5867979 198.438229,39.4962364 198.63582,39.3151105 C198.833412,39.1339847 198.932207,38.9116973 198.932207,38.6482415 C198.932207,38.4918146 198.891042,38.3559723 198.808712,38.2407104 C198.726382,38.1254485 198.621413,38.0245959 198.493802,37.9381495 C198.366191,37.851703 198.220057,37.775549 198.055397,37.7096851 L197.56142,37.5120942 C197.347363,37.4379973 197.133308,37.3536104 196.91925,37.258931 C196.705192,37.1642516 196.513778,37.0489914 196.345002,36.913147 C196.176225,36.7773027 196.038325,36.6188199 195.931296,36.4376941 C195.824267,36.2565683 195.770753,36.0383973 195.770753,35.7831745 C195.770753,35.5444177 195.818092,35.320072 195.912772,35.1101307 C196.007451,34.9001894 196.143294,34.7190663 196.320303,34.566756 C196.497312,34.4144456 196.713425,34.295069 196.968648,34.2086226 C197.223871,34.1221762 197.512021,34.0789536 197.833108,34.0789536 C198.211825,34.0789536 198.559664,34.1448166 198.876634,34.2765444 C199.193604,34.4082723 199.467347,34.5688133 199.697871,34.7581721 L199.216244,35.4003423 C199.010419,35.2439154 198.796364,35.1163059 198.574073,35.01751 C198.351783,34.9187141 198.108913,34.8693169 197.845457,34.8693169 C197.466739,34.8693169 197.18888,34.955762 197.011871,35.1286549 C196.834861,35.3015477 196.746358,35.503253 196.746358,35.7337768 C196.746358,35.8737377 196.783406,35.9951725 196.857503,36.0980849 C196.9316,36.2009973 197.030394,36.2915588 197.153889,36.3697723 C197.277384,36.4479857 197.419401,36.5179651 197.579944,36.5797125 L198.080096,36.7711286 L198.080096,36.7711286 C198.294154,36.8534586 198.510267,36.9399037 198.728441,37.0304666 C198.946615,37.1210295 199.142146,37.2342315 199.315039,37.3700758 C199.487932,37.5059202 199.629949,37.6726358 199.741094,37.8702276 C199.85224,38.0678194 199.907811,38.3065726 199.907811,38.5864944 C199.907811,38.8334841 199.860472,39.0640045 199.765793,39.2780623 C199.671114,39.4921201 199.531155,39.681476 199.345912,39.8461359 C199.16067,40.0107957 198.93015,40.1404634 198.654345,40.2351428 C198.378539,40.3298222 198.063632,40.3771612 197.709613,40.3771612 Z M203.748483,40.3771612 C203.345066,40.3771612 202.968413,40.3051236 202.618511,40.1610463 C202.268608,40.0169689 201.963992,39.8111472 201.704653,39.5435749 C201.445314,39.2760027 201.24155,38.9487462 201.093356,38.5617955 C200.945163,38.1748449 200.871067,37.7343864 200.871067,37.2404069 C200.871067,36.7464273 200.947221,36.3039106 201.099531,35.9128435 C201.251841,35.5217763 201.453547,35.1904034 201.704653,34.9187146 C201.955759,34.6470259 202.241851,34.4391459 202.562938,34.2950686 C202.884025,34.1509912 203.217456,34.0789536 203.563242,34.0789536 C203.941959,34.0789536 204.281565,34.1448166 204.582069,34.2765444 C204.882574,34.4082723 205.133676,34.5976283 205.335384,34.8446181 C205.537093,35.0916078 205.691459,35.3879911 205.798488,35.7337768 C205.905517,36.0795625 205.95903,36.4665073 205.95903,36.8946229 C205.95903,37.0016518 205.956972,37.1066209 205.952856,37.2095333 C205.948739,37.3124457 205.938448,37.400949 205.921982,37.475046 L201.87137,37.475046 C201.912535,38.1172194 202.112182,38.625599 202.470317,39.0002002 C202.828453,39.3748013 203.295668,39.5620991 203.871977,39.5620991 C204.160132,39.5620991 204.425642,39.5188765 204.668515,39.4324301 C204.911389,39.3459837 205.143967,39.2327817 205.366258,39.0928209 L205.724391,39.7596899 C205.460936,39.9243498 205.168669,40.068425 204.847582,40.1919198 C204.526495,40.3154147 204.160133,40.3771612 203.748483,40.3771612 Z M201.859021,36.7464298 L205.069872,36.7464298 C205.069872,36.1371884 204.940204,35.6740895 204.680865,35.3571193 C204.421526,35.0401491 204.057221,34.8816663 203.587941,34.8816663 C203.373883,34.8816663 203.170119,34.9228307 202.976644,35.0051606 C202.783169,35.0874905 202.60822,35.2089254 202.451793,35.3694687 C202.295366,35.5300121 202.165699,35.7255427 202.062786,35.9560665 C201.959874,36.1865903 201.891953,36.4500421 201.859021,36.7464298 Z M209.812052,40.3771612 C209.416868,40.3771612 209.046389,40.3071819 208.700603,40.167221 C208.354818,40.0272601 208.056376,39.8234966 207.80527,39.5559244 C207.554164,39.2883521 207.356575,38.9590374 207.212497,38.5679702 C207.06842,38.1769031 206.996382,37.7343864 206.996382,37.2404069 C206.996382,36.7381943 207.074595,36.2915612 207.231021,35.9004941 C207.387448,35.5094269 207.597386,35.1780539 207.860842,34.9063652 C208.124298,34.6346765 208.430972,34.4288547 208.780875,34.2888939 C209.130777,34.148933 209.499198,34.0789536 209.886148,34.0789536 C210.281332,34.0789536 210.618879,34.148933 210.898801,34.2888939 C211.178723,34.4288547 211.425709,34.5935121 211.639767,34.7828709 L211.121091,35.44974 C210.948198,35.2933131 210.765017,35.1657037 210.571541,35.0669077 C210.378066,34.9681118 210.161953,34.9187146 209.923196,34.9187146 C209.651508,34.9187146 209.400405,34.9742865 209.169881,35.0854319 C208.939358,35.1965773 208.741769,35.35506 208.577109,35.5608848 C208.412449,35.7667096 208.282781,36.0116375 208.188102,36.2956757 C208.093423,36.5797139 208.046084,36.8946212 208.046084,37.2404069 C208.046084,37.5861925 208.091364,37.8990415 208.181927,38.1789633 C208.27249,38.458885 208.398041,38.6996964 208.558585,38.9014047 C208.719128,39.1031131 208.914659,39.2595376 209.145183,39.370683 C209.375706,39.4818284 209.626809,39.5374002 209.898498,39.5374002 C210.178419,39.5374002 210.435697,39.4777119 210.670337,39.3583335 C210.904977,39.2389551 211.116973,39.0969382 211.306332,38.9322783 L211.750912,39.6114968 C211.479223,39.8502536 211.178723,40.0375513 210.849403,40.1733957 C210.520084,40.3092401 210.174303,40.3771612 209.812052,40.3771612 Z" id="1sec" fill="#666666" fill-rule="nonzero"></path>
            <rect id="Rectangle-Copy-2" fill="#00766C" fill-rule="nonzero" x="143.023264" y="49.3977069" width="104.970127" height="27.1687388"></rect>
            <path d="M160.532282,68.102535 L160.532282,58.4107049 L163.58506,58.4107049 C164.118558,58.4107049 164.615,58.4601021 165.074401,58.558898 C165.533802,58.6576939 165.931449,58.8256444 166.267356,59.0627546 C166.603262,59.2998648 166.865067,59.6085974 167.052779,59.9889616 C167.240491,60.3693258 167.334346,60.8410692 167.334346,61.4042059 C167.334346,61.9377038 167.240491,62.4020376 167.052779,62.7972212 C166.865067,63.1924049 166.605731,63.5208963 166.274765,63.7827055 C165.943799,64.0445146 165.553561,64.2371638 165.10404,64.3606587 C164.654518,64.4841535 164.167956,64.5459001 163.644337,64.5459001 L162.251322,64.5459001 L162.251322,68.102535 L160.532282,68.102535 Z M162.251322,63.167704 L163.510963,63.167704 C164.933625,63.167704 165.644944,62.5798772 165.644944,61.4042059 C165.644944,60.7916713 165.459705,60.3693251 165.08922,60.1371547 C164.718736,59.9049843 164.172896,59.7889009 163.451686,59.7889009 L162.251322,59.7889009 L162.251322,63.167704 Z M171.794959,68.2803667 C171.2911,68.2803667 170.821826,68.1939216 170.387124,68.0210287 C169.952422,67.8481359 169.572064,67.59868 169.246037,67.2726535 C168.920011,66.946627 168.665615,66.5489794 168.482843,66.0796989 C168.30007,65.6104183 168.208685,65.0744585 168.208685,64.4718035 C168.208685,63.8790281 168.30254,63.3455382 168.490252,62.8713178 C168.677965,62.3970974 168.92742,61.99698 169.238628,61.6709535 C169.549835,61.344927 169.907964,61.0930012 170.313028,60.9151686 C170.718091,60.737336 171.133028,60.648421 171.55785,60.648421 C172.051829,60.648421 172.486525,60.7323962 172.861949,60.9003493 C173.237374,61.0683023 173.551046,61.305409 173.802976,61.6116763 C174.054905,61.9179436 174.245085,62.283483 174.373519,62.7083054 C174.501954,63.1331278 174.56617,63.5974616 174.56617,64.1013207 C174.56617,64.2692737 174.558761,64.4273448 174.543941,64.5755387 C174.529122,64.7237325 174.511833,64.8422859 174.492074,64.9312022 L169.868448,64.9312022 C169.947485,65.5832552 170.177182,66.0846369 170.557546,66.4353624 C170.937911,66.7860878 171.424473,66.9614479 172.017249,66.9614479 C172.333395,66.9614479 172.627309,66.9145206 172.898998,66.8206645 C173.170686,66.7268084 173.439901,66.5959057 173.70665,66.4279527 L174.284603,67.4949432 C173.938818,67.7221738 173.553519,67.9098832 173.128697,68.058077 C172.703875,68.2062709 172.2593,68.2803667 171.794959,68.2803667 Z M169.853629,63.7752958 L173.084239,63.7752958 C173.084239,63.2121592 172.963216,62.7700541 172.721166,62.4489674 C172.479116,62.1278807 172.106167,61.9673398 171.602308,61.9673398 C171.167606,61.9673398 170.787247,62.1204711 170.461221,62.4267384 C170.135194,62.7330057 169.932666,63.1825204 169.853629,63.7752958 Z M176.196295,68.102535 L176.196295,60.8262527 L177.604129,60.8262527 L177.722684,62.1155329 L177.781961,62.1155329 C178.03883,61.6413125 178.350033,61.278243 178.715578,61.0263134 C179.081123,60.7743839 179.456541,60.648421 179.841845,60.648421 C180.187631,60.648421 180.464255,60.6978182 180.671727,60.7966141 L180.375341,62.2785453 C180.246906,62.2390269 180.128353,62.2093886 180.019677,62.1896294 C179.911002,62.1698703 179.777629,62.1599908 179.619556,62.1599908 C179.333048,62.1599908 179.031725,62.2711345 178.715578,62.4934253 C178.399431,62.7157161 178.127746,63.1034843 177.900515,63.6567413 L177.900515,68.102535 L176.196295,68.102535 Z M187.666442,68.2803667 C187.014389,68.2803667 186.384575,68.1568737 185.77698,67.9098839 C185.169385,67.6628941 184.633425,67.3121739 184.169084,66.8577127 L185.176798,65.6869871 C185.522583,66.0130136 185.917761,66.2772887 186.362343,66.4798203 C186.806924,66.6823519 187.251499,66.7836162 187.696081,66.7836162 C188.249338,66.7836162 188.669214,66.6700026 188.955722,66.442772 C189.24223,66.2155414 189.385482,65.9142184 189.385482,65.538794 C189.385482,65.3412022 189.348434,65.1732516 189.274338,65.0349374 C189.200241,64.8966231 189.096506,64.7755999 188.963132,64.6718642 C188.829757,64.5681285 188.671686,64.4718039 188.488914,64.3828876 C188.306142,64.2939713 188.106083,64.2050563 187.888732,64.11614 L186.554994,63.5381868 C186.317884,63.4393909 186.083247,63.3158979 185.851076,63.167704 C185.618906,63.0195102 185.408968,62.8416802 185.221256,62.6342088 C185.033543,62.4267374 184.882882,62.1846911 184.769267,61.9080625 C184.655651,61.631434 184.598845,61.3152918 184.598845,60.9596265 C184.598845,60.5743225 184.68035,60.2161927 184.843363,59.8852264 C185.006376,59.5542601 185.231134,59.2652864 185.517642,59.0182967 C185.80415,58.7713069 186.147461,58.5786578 186.547584,58.4403435 C186.947708,58.3020292 187.384873,58.2328731 187.859093,58.2328731 C188.42223,58.2328731 188.965599,58.3440168 189.489218,58.5663076 C190.012836,58.7885984 190.46235,59.0874516 190.837775,59.462876 L189.963436,60.5595051 C189.647289,60.3026357 189.321267,60.1001072 188.985361,59.9519133 C188.649455,59.8037195 188.274036,59.7296236 187.859093,59.7296236 C187.394752,59.7296236 187.024273,59.8308879 186.747645,60.0334195 C186.471016,60.2359511 186.332704,60.5150454 186.332704,60.8707107 C186.332704,61.0584229 186.374692,61.2189638 186.458668,61.3523383 C186.542645,61.4857128 186.656258,61.6042661 186.799512,61.7080018 C186.942766,61.8117375 187.108247,61.9055922 187.295959,61.9895687 L187.581231,62.1136805 L187.581231,62.1136805 L189.192831,62.7824019 C189.479339,62.900957 189.741145,63.0392692 189.978255,63.1973427 C190.215365,63.3554161 190.420363,63.5381858 190.593256,63.7456572 C190.766149,63.9531286 190.901991,64.1927051 191.000787,64.4643938 C191.099583,64.7360826 191.14898,65.0497549 191.14898,65.4054202 C191.14898,65.8006038 191.069945,66.1710829 190.911871,66.5168686 C190.753798,66.8626542 190.524101,67.1664471 190.222773,67.4282563 C189.921446,67.6900654 189.555907,67.8975337 189.126144,68.0506674 C188.696382,68.203801 188.20982,68.2803667 187.666442,68.2803667 Z M195.876341,68.2803667 C195.372482,68.2803667 194.903208,68.1939216 194.468506,68.0210287 C194.033804,67.8481359 193.653446,67.59868 193.327419,67.2726535 C193.001393,66.946627 192.746997,66.5489794 192.564225,66.0796989 C192.381452,65.6104183 192.290068,65.0744585 192.290068,64.4718035 C192.290068,63.8790281 192.383922,63.3455382 192.571634,62.8713178 C192.759347,62.3970974 193.008803,61.99698 193.32001,61.6709535 C193.631217,61.344927 193.989347,61.0930012 194.39441,60.9151686 C194.799473,60.737336 195.21441,60.648421 195.639232,60.648421 C196.133212,60.648421 196.567907,60.7323962 196.943332,60.9003493 C197.318756,61.0683023 197.632428,61.305409 197.884358,61.6116763 C198.136287,61.9179436 198.326467,62.283483 198.454901,62.7083054 C198.583336,63.1331278 198.647552,63.5974616 198.647552,64.1013207 C198.647552,64.2692737 198.640143,64.4273448 198.625323,64.5755387 C198.610504,64.7237325 198.593215,64.8422859 198.573456,64.9312022 L193.94983,64.9312022 C194.028867,65.5832552 194.258564,66.0846369 194.638928,66.4353624 C195.019293,66.7860878 195.505855,66.9614479 196.098631,66.9614479 C196.414778,66.9614479 196.708691,66.9145206 196.98038,66.8206645 C197.252069,66.7268084 197.521283,66.5959057 197.788032,66.4279527 L198.365985,67.4949432 C198.0202,67.7221738 197.634902,67.9098832 197.210079,68.058077 C196.785257,68.2062709 196.340682,68.2803667 195.876341,68.2803667 Z M193.935011,63.7752958 L197.165621,63.7752958 C197.165621,63.2121592 197.044598,62.7700541 196.802548,62.4489674 C196.560498,62.1278807 196.187549,61.9673398 195.68369,61.9673398 C195.248988,61.9673398 194.868629,62.1204711 194.542603,62.4267384 C194.216576,62.7330057 194.014048,63.1825204 193.935011,63.7752958 Z M203.315636,68.2803667 C202.821656,68.2803667 202.359792,68.1963914 201.93003,68.0284384 C201.500268,67.8604854 201.127319,67.6134993 200.811172,67.2874728 C200.495025,66.9614463 200.248039,66.5613289 200.070206,66.0871085 C199.892374,65.6128882 199.803459,65.0744585 199.803459,64.4718035 C199.803459,63.8691485 199.902253,63.3307188 200.099845,62.8564985 C200.297437,62.3822781 200.564182,61.9821607 200.900088,61.6561342 C201.235994,61.3301077 201.623762,61.0806518 202.063404,60.9077589 C202.503046,60.7348661 202.96491,60.648421 203.44901,60.648421 C203.92323,60.648421 204.330757,60.7274565 204.671603,60.88553 C205.012449,61.0436034 205.316242,61.2362526 205.58299,61.4634831 L204.753109,62.5749316 C204.555517,62.4069785 204.360398,62.2760759 204.167746,62.1822198 C203.975094,62.0883637 203.765156,62.0414363 203.537925,62.0414363 C202.94515,62.0414363 202.465997,62.2612539 202.100452,62.7008957 C201.734907,63.1405375 201.552138,63.7308342 201.552138,64.4718035 C201.552138,65.2028932 201.732437,65.7882502 202.093042,66.227892 C202.453648,66.6675338 202.920451,66.8873514 203.493467,66.8873514 C203.779976,66.8873514 204.04919,66.8256049 204.30112,66.70211 C204.55305,66.5786151 204.782747,66.4328933 204.990218,66.2649403 L205.686726,67.391208 C205.34094,67.6875957 204.963051,67.9098832 204.553048,68.058077 C204.143045,68.2062709 203.730579,68.2803667 203.315636,68.2803667 Z M209.747217,68.2803667 C209.292756,68.2803667 208.85806,68.1963914 208.443118,68.0284384 C208.028175,67.8604854 207.660166,67.6134993 207.339079,67.2874728 C207.017992,66.9614463 206.763597,66.5613289 206.575884,66.0871085 C206.388172,65.6128882 206.294317,65.0744585 206.294317,64.4718035 C206.294317,63.8691485 206.388172,63.3307188 206.575884,62.8564985 C206.763597,62.3822781 207.017992,61.9821607 207.339079,61.6561342 C207.660166,61.3301077 208.028175,61.0806518 208.443118,60.9077589 C208.85806,60.7348661 209.292756,60.648421 209.747217,60.648421 C210.201678,60.648421 210.638844,60.7348661 211.058726,60.9077589 C211.478609,61.0806518 211.846618,61.3301077 212.162765,61.6561342 C212.478912,61.9821607 212.733308,62.3822781 212.92596,62.8564985 C213.118612,63.3307188 213.214936,63.8691485 213.214936,64.4718035 C213.214936,65.0744585 213.118612,65.6128882 212.92596,66.0871085 C212.733308,66.5613289 212.478912,66.9614463 212.162765,67.2874728 C211.846618,67.6134993 211.478609,67.8604854 211.058726,68.0284384 C210.638844,68.1963914 210.201678,68.2803667 209.747217,68.2803667 Z M209.747217,66.8873514 C210.280715,66.8873514 210.700591,66.6675338 211.006859,66.227892 C211.313126,65.7882502 211.466257,65.2028932 211.466257,64.4718035 C211.466257,63.7308342 211.313126,63.1405375 211.006859,62.7008957 C210.700591,62.2612539 210.280715,62.0414363 209.747217,62.0414363 C209.213719,62.0414363 208.796313,62.2612539 208.494985,62.7008957 C208.193658,63.1405375 208.042996,63.7308342 208.042996,64.4718035 C208.042996,65.2028932 208.193658,65.7882502 208.494985,66.227892 C208.796313,66.6675338 209.213719,66.8873514 209.747217,66.8873514 Z M229.397625,57.6401006 L229.397625,68.102535 L227.98979,68.102535 L227.871236,67.3171114 L227.811959,67.3171114 C227.54521,67.5838604 227.234007,67.8110876 226.878342,67.9987998 C226.522677,68.186512 226.147258,68.2803667 225.752074,68.2803667 C224.833272,68.2803667 224.104663,67.9469355 223.566226,67.2800631 C223.027788,66.6131908 222.758573,65.6771136 222.758573,64.4718035 C222.758573,63.8790281 222.845018,63.3455382 223.017911,62.8713178 C223.190804,62.3970974 223.420501,61.99698 223.707009,61.6709535 C223.993517,61.344927 224.322009,61.0930012 224.692493,60.9151686 C225.062978,60.737336 225.445806,60.648421 225.84099,60.648421 C226.255933,60.648421 226.606653,60.7200469 226.893161,60.863301 C227.179669,61.0065551 227.466173,61.2016741 227.752681,61.4486638 L227.693404,60.2779382 L227.693404,57.6401006 L229.397625,57.6401006 Z M218.875913,60.648421 C219.656401,60.648421 220.224469,60.8978769 220.580134,61.3967962 C220.9358,61.8957156 221.11363,62.6095053 221.11363,63.5381868 L221.11363,68.102535 L219.409409,68.102535 L219.409409,63.7604765 C219.409409,63.1578215 219.320494,62.7330055 219.142661,62.4860157 C218.964828,62.2390259 218.673385,62.1155329 218.268322,62.1155329 C217.952175,62.1155329 217.67308,62.1920986 217.43103,62.3452322 C217.18898,62.4983659 216.914826,62.7231232 216.608559,63.0195109 L216.608559,68.102535 L214.904338,68.102535 L214.904338,60.8262527 L216.312172,60.8262527 L216.430727,61.8043273 L216.490004,61.8043273 C216.816031,61.4881804 217.169221,61.2164957 217.549585,60.9892652 C217.929949,60.7620346 218.372054,60.648421 218.875913,60.648421 Z M226.211473,62.0562556 C225.737253,62.0562556 225.337135,62.2637239 225.011109,62.6786667 C224.685082,63.0936096 224.522071,63.6863761 224.522071,64.4569842 C224.522071,65.2473515 224.662853,65.8475276 224.944422,66.2575306 C225.22599,66.6675336 225.633517,66.8725321 226.167015,66.8725321 C226.710392,66.8725321 227.219184,66.6008474 227.693404,66.0574699 L227.693404,66.0574699 L227.693404,62.6638474 C227.436535,62.4366168 227.187079,62.2785458 226.945029,62.1896294 C226.702979,62.1007131 226.458463,62.0562556 226.211473,62.0562556 Z" id="PerSecond" fill="#FFFFFF" fill-rule="nonzero"></path>
            <polygon id="+" fill="#00766C" fill-rule="nonzero" transform="translate(131.247880, 37.187469) rotate(45.000000) translate(-131.247880, -37.187469) " points="130.28092 42.3223607 130.28092 38.1210858 126.301935 38.1210858 126.301935 36.2538524 130.28092 36.2538524 130.28092 32.0525775 132.21484 32.0525775 132.21484 36.2538524 136.193825 36.2538524 136.193825 38.1210858 132.21484 38.1210858 132.21484 42.3223607"></polygon>
        </g>
    </g>
</svg>