<?xml version="1.0" encoding="UTF-8"?>
<svg width="620px" height="400px" viewBox="0 0 620 400" version="1.1" xmlns="http://www.w3.org/2000/svg" xmlns:xlink="http://www.w3.org/1999/xlink">
    <!-- Generator: Sketch 53.2 (72643) - https://sketchapp.com -->
    <title>spending-graph-outline</title>
    <desc>Created with Sketch.</desc>
    <g id="spending-graph-outline" stroke="none" stroke-width="1" fill="none" fill-rule="evenodd">
        <g id="Group-9" transform="translate(6.000000, 11.000000)" fill-rule="nonzero">
            <polygon id="Rectangle-16" fill="#FAFAFA" points="50 261 608 261 608 301 50 301"></polygon>
            <polygon id="Rectangle-16" fill="#FAFAFA" points="50 181 608 181 608 221 50 221"></polygon>
            <polygon id="Rectangle-16" fill="#FAFAFA" points="50 101 608 101 608 141 50 141"></polygon>
            <polygon id="Rectangle-16" fill="#FAFAFA" points="50 21 608 21 608 61 50 61"></polygon>
            <path d="M49,11 L49,341" id="Line-35" stroke="#7D7D7D" stroke-width="1.5" stroke-linecap="round"></path>
            <path d="M49,341 L608,341" id="Line-36" stroke="#7D7D7D" stroke-width="1.5" stroke-linecap="round"></path>
            <path d="M495.125385,371 L495.125385,369.015769 C500.367308,363.951538 503.654615,360.634615 503.654615,357.761923 C503.654615,355.777692 502.558846,354.504231 500.545,354.504231 C499.093846,354.504231 497.879615,355.481538 496.872692,356.606923 L494.977308,354.711538 C496.695,352.875385 498.412692,351.809231 500.989231,351.809231 C504.602308,351.809231 506.941923,354.089615 506.941923,357.584231 C506.941923,360.930769 503.832308,364.366154 500.100769,368.305 C501.078077,368.216154 502.321923,368.097692 503.24,368.097692 L507.86,368.097692 L507.86,371 L495.125385,371 Z M516.774231,371.355385 C512.865,371.355385 510.377308,367.860769 510.377308,361.493462 C510.377308,355.126154 512.865,351.809231 516.774231,351.809231 C520.683462,351.809231 523.171154,355.155769 523.171154,361.493462 C523.171154,367.860769 520.683462,371.355385 516.774231,371.355385 Z M516.774231,368.69 C518.610385,368.69 519.913462,366.824231 519.913462,361.493462 C519.913462,356.162692 518.610385,354.474615 516.774231,354.474615 C514.967692,354.474615 513.635,356.162692 513.635,361.493462 C513.635,366.824231 514.967692,368.69 516.774231,368.69 Z M526.576923,371 L526.576923,368.216154 L530.782308,368.216154 L530.782308,355.836923 L527.317308,355.836923 L527.317308,353.704615 C529.183077,353.349231 530.486154,352.875385 531.670769,352.164615 L534.217692,352.164615 L534.217692,368.216154 L537.919615,368.216154 L537.919615,371 L526.576923,371 Z M547.189231,371.355385 C543.516923,371.355385 540.792308,369.223077 540.792308,366.172692 C540.792308,363.833077 542.421154,362.293077 544.198077,361.345385 L544.198077,361.226923 C542.746923,360.190385 541.591923,358.798462 541.591923,356.814231 C541.591923,353.763846 544.020385,351.809231 547.278077,351.809231 C550.654231,351.809231 552.816154,353.852692 552.816154,356.903077 C552.816154,358.768846 551.513077,360.338462 550.298846,361.226923 L550.298846,361.345385 C552.046154,362.322692 553.556538,363.714615 553.556538,366.231923 C553.556538,369.134231 551.009615,371.355385 547.189231,371.355385 Z M548.433077,360.368077 C549.44,359.361154 550.002692,358.295 550.002692,357.110385 C550.002692,355.451923 548.966154,354.237692 547.218846,354.237692 C545.767692,354.237692 544.642308,355.185385 544.642308,356.814231 C544.642308,358.709615 546.330385,359.538846 548.433077,360.368077 Z M547.248462,368.926923 C549.055,368.926923 550.358077,367.860769 550.358077,366.113462 C550.358077,364.07 548.373846,363.329615 545.826923,362.293077 C544.642308,363.151923 543.783462,364.366154 543.783462,365.817308 C543.783462,367.683077 545.323462,368.926923 547.248462,368.926923 Z" id="2018" fill="#666666"></path>
            <path d="M408.624462,369 L408.624462,368.573538 C409.426619,367.761227 410.127228,367.032696 410.726308,366.387923 C411.325388,365.743151 411.82546,365.154233 412.226538,364.621154 C412.627617,364.088074 412.927153,363.595618 413.125154,363.143769 C413.323155,362.691921 413.422154,362.252771 413.422154,361.826308 C413.422154,361.217074 413.252079,360.70431 412.911923,360.288 C412.571768,359.87169 412.036158,359.663538 411.305077,359.663538 C410.858305,359.663538 410.442002,359.785383 410.056154,360.029077 C409.670306,360.27277 409.330155,360.577383 409.035692,360.942923 L408.594,360.516462 C408.95954,360.110306 409.363152,359.770155 409.804846,359.496 C410.246541,359.221845 410.76692,359.084769 411.366,359.084769 C412.239235,359.084769 412.914459,359.333536 413.391692,359.831077 C413.868925,360.328618 414.107538,360.988611 414.107538,361.811077 C414.107538,362.298464 414.000924,362.783305 413.787692,363.265615 C413.57446,363.747925 413.274925,364.255613 412.889077,364.788692 C412.503229,365.321772 412.033618,365.890382 411.480231,366.494538 C410.926843,367.098695 410.31508,367.75615 409.644923,368.466923 C409.908924,368.446615 410.180537,368.428846 410.459769,368.413615 C410.739001,368.398385 411.010614,368.390769 411.274615,368.390769 L414.594923,368.390769 L414.594923,369 L408.624462,369 Z M418.935692,369.182769 C418.001534,369.182769 417.283156,368.74362 416.780538,367.865308 C416.277921,366.986996 416.026615,365.73047 416.026615,364.095692 C416.026615,362.471069 416.277921,361.229774 416.780538,360.371769 C417.283156,359.513765 418.001534,359.084769 418.935692,359.084769 C419.869851,359.084769 420.588228,359.513765 421.090846,360.371769 C421.593464,361.229774 421.844769,362.471069 421.844769,364.095692 C421.844769,365.73047 421.593464,366.986996 421.090846,367.865308 C420.588228,368.74362 419.869851,369.182769 418.935692,369.182769 Z M418.935692,368.604 C419.616003,368.604 420.15669,368.225773 420.557769,367.469308 C420.958848,366.712842 421.159385,365.588315 421.159385,364.095692 C421.159385,362.603069 420.958848,361.491234 420.557769,360.760154 C420.15669,360.029073 419.616003,359.663538 418.935692,359.663538 C418.265535,359.663538 417.727387,360.029073 417.321231,360.760154 C416.915075,361.491234 416.712,362.603069 416.712,364.095692 C416.712,365.588315 416.915075,366.712842 417.321231,367.469308 C417.727387,368.225773 418.265535,368.604 418.935692,368.604 Z M423.870462,369 L423.870462,368.406 L426.155077,368.406 L426.155077,360.333692 L424.418769,360.333692 L424.418769,359.876769 C424.814771,359.805692 425.167614,359.719385 425.477308,359.617846 C425.787002,359.516307 426.058614,359.399539 426.292154,359.267538 L426.840462,359.267538 L426.840462,368.406 L428.957538,368.406 L428.957538,369 L423.870462,369 Z M432.75,369 C432.790616,368.015072 432.874384,367.113927 433.001308,366.296538 C433.128231,365.47915 433.30846,364.707465 433.542,363.981462 C433.77554,363.255458 434.069998,362.559926 434.425385,361.894846 C434.780771,361.229766 435.202151,360.552003 435.689538,359.861538 L430.556769,359.861538 L430.556769,359.267538 L436.542462,359.267538 L436.542462,359.663538 C435.963689,360.435235 435.483925,361.176458 435.103154,361.887231 C434.722383,362.598004 434.41777,363.321458 434.189308,364.057615 C433.960845,364.793773 433.795847,365.562919 433.694308,366.365077 C433.592769,367.167235 433.521693,368.045534 433.481077,369 L432.75,369 Z" id="2017" fill="#666666"></path>
            <path d="M309.624462,369 L309.624462,368.573538 C310.426619,367.761227 311.127228,367.032696 311.726308,366.387923 C312.325388,365.743151 312.82546,365.154233 313.226538,364.621154 C313.627617,364.088074 313.927153,363.595618 314.125154,363.143769 C314.323155,362.691921 314.422154,362.252771 314.422154,361.826308 C314.422154,361.217074 314.252079,360.70431 313.911923,360.288 C313.571768,359.87169 313.036158,359.663538 312.305077,359.663538 C311.858305,359.663538 311.442002,359.785383 311.056154,360.029077 C310.670306,360.27277 310.330155,360.577383 310.035692,360.942923 L309.594,360.516462 C309.95954,360.110306 310.363152,359.770155 310.804846,359.496 C311.246541,359.221845 311.76692,359.084769 312.366,359.084769 C313.239235,359.084769 313.914459,359.333536 314.391692,359.831077 C314.868925,360.328618 315.107538,360.988611 315.107538,361.811077 C315.107538,362.298464 315.000924,362.783305 314.787692,363.265615 C314.57446,363.747925 314.274925,364.255613 313.889077,364.788692 C313.503229,365.321772 313.033618,365.890382 312.480231,366.494538 C311.926843,367.098695 311.31508,367.75615 310.644923,368.466923 C310.908924,368.446615 311.180537,368.428846 311.459769,368.413615 C311.739001,368.398385 312.010614,368.390769 312.274615,368.390769 L315.594923,368.390769 L315.594923,369 L309.624462,369 Z M319.935692,369.182769 C319.001534,369.182769 318.283156,368.74362 317.780538,367.865308 C317.277921,366.986996 317.026615,365.73047 317.026615,364.095692 C317.026615,362.471069 317.277921,361.229774 317.780538,360.371769 C318.283156,359.513765 319.001534,359.084769 319.935692,359.084769 C320.869851,359.084769 321.588228,359.513765 322.090846,360.371769 C322.593464,361.229774 322.844769,362.471069 322.844769,364.095692 C322.844769,365.73047 322.593464,366.986996 322.090846,367.865308 C321.588228,368.74362 320.869851,369.182769 319.935692,369.182769 Z M319.935692,368.604 C320.616003,368.604 321.15669,368.225773 321.557769,367.469308 C321.958848,366.712842 322.159385,365.588315 322.159385,364.095692 C322.159385,362.603069 321.958848,361.491234 321.557769,360.760154 C321.15669,360.029073 320.616003,359.663538 319.935692,359.663538 C319.265535,359.663538 318.727387,360.029073 318.321231,360.760154 C317.915075,361.491234 317.712,362.603069 317.712,364.095692 C317.712,365.588315 317.915075,366.712842 318.321231,367.469308 C318.727387,368.225773 319.265535,368.604 319.935692,368.604 Z M324.870462,369 L324.870462,368.406 L327.155077,368.406 L327.155077,360.333692 L325.418769,360.333692 L325.418769,359.876769 C325.814771,359.805692 326.167614,359.719385 326.477308,359.617846 C326.787002,359.516307 327.058614,359.399539 327.292154,359.267538 L327.840462,359.267538 L327.840462,368.406 L329.957538,368.406 L329.957538,369 L324.870462,369 Z M334.861846,369.182769 C333.876918,369.182769 333.100157,368.786773 332.531538,367.994769 C331.96292,367.202765 331.678615,366.065546 331.678615,364.583077 C331.678615,363.567687 331.777614,362.709696 331.975615,362.009077 C332.173616,361.308458 332.437614,360.739848 332.767615,360.303231 C333.097617,359.866613 333.478382,359.554386 333.909923,359.366538 C334.341464,359.178691 334.790767,359.084769 335.257846,359.084769 C335.714772,359.084769 336.108229,359.171076 336.438231,359.343692 C336.768232,359.516309 337.060153,359.744768 337.314,360.029077 L336.902769,360.486 C336.689537,360.221999 336.440771,360.021462 336.156462,359.884385 C335.872152,359.747307 335.572617,359.678769 335.257846,359.678769 C334.871998,359.678769 334.503925,359.762538 334.153615,359.930077 C333.803306,360.097616 333.496155,360.369229 333.232154,360.744923 C332.968153,361.120617 332.757462,361.615612 332.600077,362.229923 C332.442692,362.844234 332.364,363.593073 332.364,364.476462 C332.699079,364.060152 333.077306,363.730155 333.498692,363.486462 C333.920079,363.242768 334.359228,363.120923 334.816154,363.120923 C335.679235,363.120923 336.346844,363.377305 336.819,363.890077 C337.291156,364.402849 337.527231,365.151687 337.527231,366.136615 C337.527231,366.583387 337.456155,366.992075 337.314,367.362692 C337.171845,367.73331 336.978924,368.053153 336.735231,368.322231 C336.491537,368.591309 336.209771,368.801999 335.889923,368.954308 C335.570075,369.106616 335.227386,369.182769 334.861846,369.182769 Z M334.877077,368.604 C335.161386,368.604 335.422845,368.540539 335.661462,368.413615 C335.900078,368.286692 336.105691,368.11154 336.278308,367.888154 C336.450924,367.664768 336.587999,367.403309 336.689538,367.103769 C336.791077,366.804229 336.841846,366.481848 336.841846,366.136615 C336.841846,365.791383 336.801231,365.469001 336.72,365.169462 C336.638769,364.869922 336.514385,364.611001 336.346846,364.392692 C336.179307,364.174384 335.961001,364.004308 335.691923,363.882462 C335.422845,363.760615 335.10554,363.699692 334.74,363.699692 C334.394768,363.699692 334.014002,363.808845 333.597692,364.027154 C333.181383,364.245463 332.775233,364.62369 332.379231,365.161846 C332.409692,365.679695 332.483307,366.149306 332.600077,366.570692 C332.716847,366.992079 332.876768,367.352537 333.079846,367.652077 C333.282924,367.951617 333.534229,368.185153 333.833769,368.352692 C334.133309,368.520232 334.481075,368.604 334.877077,368.604 Z" id="2016" fill="#666666"></path>
            <path d="M209.624462,369 L209.624462,368.573538 C210.426619,367.761227 211.127228,367.032696 211.726308,366.387923 C212.325388,365.743151 212.82546,365.154233 213.226538,364.621154 C213.627617,364.088074 213.927153,363.595618 214.125154,363.143769 C214.323155,362.691921 214.422154,362.252771 214.422154,361.826308 C214.422154,361.217074 214.252079,360.70431 213.911923,360.288 C213.571768,359.87169 213.036158,359.663538 212.305077,359.663538 C211.858305,359.663538 211.442002,359.785383 211.056154,360.029077 C210.670306,360.27277 210.330155,360.577383 210.035692,360.942923 L209.594,360.516462 C209.95954,360.110306 210.363152,359.770155 210.804846,359.496 C211.246541,359.221845 211.76692,359.084769 212.366,359.084769 C213.239235,359.084769 213.914459,359.333536 214.391692,359.831077 C214.868925,360.328618 215.107538,360.988611 215.107538,361.811077 C215.107538,362.298464 215.000924,362.783305 214.787692,363.265615 C214.57446,363.747925 214.274925,364.255613 213.889077,364.788692 C213.503229,365.321772 213.033618,365.890382 212.480231,366.494538 C211.926843,367.098695 211.31508,367.75615 210.644923,368.466923 C210.908924,368.446615 211.180537,368.428846 211.459769,368.413615 C211.739001,368.398385 212.010614,368.390769 212.274615,368.390769 L215.594923,368.390769 L215.594923,369 L209.624462,369 Z M219.935692,369.182769 C219.001534,369.182769 218.283156,368.74362 217.780538,367.865308 C217.277921,366.986996 217.026615,365.73047 217.026615,364.095692 C217.026615,362.471069 217.277921,361.229774 217.780538,360.371769 C218.283156,359.513765 219.001534,359.084769 219.935692,359.084769 C220.869851,359.084769 221.588228,359.513765 222.090846,360.371769 C222.593464,361.229774 222.844769,362.471069 222.844769,364.095692 C222.844769,365.73047 222.593464,366.986996 222.090846,367.865308 C221.588228,368.74362 220.869851,369.182769 219.935692,369.182769 Z M219.935692,368.604 C220.616003,368.604 221.15669,368.225773 221.557769,367.469308 C221.958848,366.712842 222.159385,365.588315 222.159385,364.095692 C222.159385,362.603069 221.958848,361.491234 221.557769,360.760154 C221.15669,360.029073 220.616003,359.663538 219.935692,359.663538 C219.265535,359.663538 218.727387,360.029073 218.321231,360.760154 C217.915075,361.491234 217.712,362.603069 217.712,364.095692 C217.712,365.588315 217.915075,366.712842 218.321231,367.469308 C218.727387,368.225773 219.265535,368.604 219.935692,368.604 Z M224.870462,369 L224.870462,368.406 L227.155077,368.406 L227.155077,360.333692 L225.418769,360.333692 L225.418769,359.876769 C225.814771,359.805692 226.167614,359.719385 226.477308,359.617846 C226.787002,359.516307 227.058614,359.399539 227.292154,359.267538 L227.840462,359.267538 L227.840462,368.406 L229.957538,368.406 L229.957538,369 L224.870462,369 Z M234.344,369.182769 C233.958152,369.182769 233.610386,369.144693 233.300692,369.068538 C232.990998,368.992384 232.71177,368.890847 232.463,368.763923 C232.21423,368.636999 231.993386,368.494847 231.800462,368.337462 C231.607537,368.180076 231.434924,368.025232 231.282615,367.872923 L231.663385,367.400769 C231.805539,367.553078 231.962922,367.700307 232.135538,367.842462 C232.308155,367.984616 232.501076,368.111538 232.714308,368.223231 C232.92754,368.334924 233.166153,368.423769 233.430154,368.489769 C233.694155,368.55577 233.993691,368.588769 234.328769,368.588769 C234.653694,368.588769 234.963383,368.525308 235.257846,368.398385 C235.552309,368.271461 235.808691,368.09377 236.027,367.865308 C236.245309,367.636845 236.420461,367.362694 236.552462,367.042846 C236.684462,366.722998 236.750462,366.365079 236.750462,365.969077 C236.750462,365.177073 236.537233,364.560233 236.110769,364.118538 C235.684306,363.676844 235.105542,363.456 234.374462,363.456 C233.998767,363.456 233.676386,363.514384 233.407308,363.631154 C233.138229,363.747924 232.856463,363.907845 232.562,364.110923 L232.089846,363.821538 L232.440154,359.267538 L236.933231,359.267538 L236.933231,359.861538 L233.049385,359.861538 L232.744769,363.379846 C232.998617,363.227538 233.262614,363.103154 233.536769,363.006692 C233.810924,362.91023 234.125691,362.862 234.481077,362.862 C234.887233,362.862 235.273075,362.922922 235.638615,363.044769 C236.004156,363.166616 236.318922,363.351922 236.582923,363.600692 C236.846924,363.849463 237.057615,364.169306 237.215,364.560231 C237.372385,364.951156 237.451077,365.410613 237.451077,365.938615 C237.451077,366.456464 237.362232,366.915921 237.184538,367.317 C237.006845,367.718079 236.773309,368.058229 236.483923,368.337462 C236.194537,368.616694 235.86454,368.827384 235.493923,368.969538 C235.123306,369.111693 234.740002,369.182769 234.344,369.182769 Z" id="2015" fill="#666666"></path>
            <path d="M109.624462,369 L109.624462,368.573538 C110.426619,367.761227 111.127228,367.032696 111.726308,366.387923 C112.325388,365.743151 112.82546,365.154233 113.226538,364.621154 C113.627617,364.088074 113.927153,363.595618 114.125154,363.143769 C114.323155,362.691921 114.422154,362.252771 114.422154,361.826308 C114.422154,361.217074 114.252079,360.70431 113.911923,360.288 C113.571768,359.87169 113.036158,359.663538 112.305077,359.663538 C111.858305,359.663538 111.442002,359.785383 111.056154,360.029077 C110.670306,360.27277 110.330155,360.577383 110.035692,360.942923 L109.594,360.516462 C109.95954,360.110306 110.363152,359.770155 110.804846,359.496 C111.246541,359.221845 111.76692,359.084769 112.366,359.084769 C113.239235,359.084769 113.914459,359.333536 114.391692,359.831077 C114.868925,360.328618 115.107538,360.988611 115.107538,361.811077 C115.107538,362.298464 115.000924,362.783305 114.787692,363.265615 C114.57446,363.747925 114.274925,364.255613 113.889077,364.788692 C113.503229,365.321772 113.033618,365.890382 112.480231,366.494538 C111.926843,367.098695 111.31508,367.75615 110.644923,368.466923 C110.908924,368.446615 111.180537,368.428846 111.459769,368.413615 C111.739001,368.398385 112.010614,368.390769 112.274615,368.390769 L115.594923,368.390769 L115.594923,369 L109.624462,369 Z M119.935692,369.182769 C119.001534,369.182769 118.283156,368.74362 117.780538,367.865308 C117.277921,366.986996 117.026615,365.73047 117.026615,364.095692 C117.026615,362.471069 117.277921,361.229774 117.780538,360.371769 C118.283156,359.513765 119.001534,359.084769 119.935692,359.084769 C120.869851,359.084769 121.588228,359.513765 122.090846,360.371769 C122.593464,361.229774 122.844769,362.471069 122.844769,364.095692 C122.844769,365.73047 122.593464,366.986996 122.090846,367.865308 C121.588228,368.74362 120.869851,369.182769 119.935692,369.182769 Z M119.935692,368.604 C120.616003,368.604 121.15669,368.225773 121.557769,367.469308 C121.958848,366.712842 122.159385,365.588315 122.159385,364.095692 C122.159385,362.603069 121.958848,361.491234 121.557769,360.760154 C121.15669,360.029073 120.616003,359.663538 119.935692,359.663538 C119.265535,359.663538 118.727387,360.029073 118.321231,360.760154 C117.915075,361.491234 117.712,362.603069 117.712,364.095692 C117.712,365.588315 117.915075,366.712842 118.321231,367.469308 C118.727387,368.225773 119.265535,368.604 119.935692,368.604 Z M124.870462,369 L124.870462,368.406 L127.155077,368.406 L127.155077,360.333692 L125.418769,360.333692 L125.418769,359.876769 C125.814771,359.805692 126.167614,359.719385 126.477308,359.617846 C126.787002,359.516307 127.058614,359.399539 127.292154,359.267538 L127.840462,359.267538 L127.840462,368.406 L129.957538,368.406 L129.957538,369 L124.870462,369 Z M135.608154,369 L135.608154,366.090923 L131.130308,366.090923 L131.130308,365.694923 L135.653846,359.267538 L136.263077,359.267538 L136.263077,365.512154 L137.71,365.512154 L137.71,366.090923 L136.263077,366.090923 L136.263077,369 L135.608154,369 Z M131.952769,365.512154 L135.608154,365.512154 L135.608154,361.948154 C135.608154,361.724768 135.613231,361.44554 135.623385,361.110462 C135.633539,360.775383 135.648769,360.496155 135.669077,360.272769 L135.608154,360.272769 C135.486307,360.475847 135.359385,360.673845 135.227385,360.866769 C135.095384,361.059693 134.958308,361.267845 134.816154,361.491231 L131.952769,365.512154 Z" id="2014" fill="#666666"></path>
            <path d="M50,221 L608,221" id="Line-3" stroke="#666666" opacity="0.1" stroke-linecap="square"></path>
            <path d="M50,261 L608,261" id="Line-3" stroke="#666666" opacity="0.1" stroke-linecap="square"></path>
            <path d="M50,61 L608,61" id="Line-3" stroke="#666666" opacity="0.1" stroke-linecap="square"></path>
            <path d="M50,101 L608,101" id="Line-3" stroke="#666666" opacity="0.1" stroke-linecap="square"></path>
            <path d="M50,141 L608,141" id="Line-3" stroke="#666666" opacity="0.1" stroke-linecap="square"></path>
            <path d="M50,181 L608,181" id="Line-3" stroke="#666666" opacity="0.1" stroke-linecap="square"></path>
            <path d="M50,21 L608,21" id="Line-3" stroke="#666666" opacity="0.1" stroke-linecap="square"></path>
            <path d="M50,301 L608,301" id="Line-3" stroke="#666666" opacity="0.1" stroke-linecap="square"></path>
            <path d="M3.69,26.65 L3.69,25.165 C3.1699974,25.1249998 2.69500215,24.9925011 2.265,24.7675 C1.83499785,24.5424989 1.47500145,24.2900014 1.185,24.01 L1.545,23.545 C1.83500145,23.8050013 2.179998,24.0449989 2.58,24.265 C2.980002,24.4850011 3.4399974,24.595 3.96,24.595 C4.59000315,24.595 5.07249833,24.4250017 5.4075,24.085 C5.74250168,23.7449983 5.91,23.3000027 5.91,22.75 C5.91,22.2599975 5.80250108,21.8625015 5.5875,21.5575 C5.37249893,21.2524985 5.1050016,20.9925011 4.785,20.7775 C4.4649984,20.5624989 4.11750188,20.3700008 3.7425,20.2 C3.36749813,20.0299991 3.0200016,19.8350011 2.7,19.615 C2.3799984,19.3949989 2.11250108,19.1275016 1.8975,18.8125 C1.68249893,18.4974984 1.575,18.0850025 1.575,17.575 C1.575,17.2649985 1.62749948,16.9750014 1.7325,16.705 C1.83750053,16.4349987 1.98499905,16.197501 2.175,15.9925 C2.36500095,15.787499 2.5899987,15.6200007 2.85,15.49 C3.1100013,15.3599994 3.3899985,15.2800002 3.69,15.25 L3.69,13.765 L4.275,13.765 L4.275,15.25 C4.76500245,15.2800002 5.16499845,15.394999 5.475,15.595 C5.78500155,15.795001 6.0699987,16.0299986 6.33,16.3 L5.94,16.72 C5.7999993,16.5799993 5.66250068,16.4550006 5.5275,16.345 C5.39249933,16.2349995 5.25000075,16.1400004 5.1,16.06 C4.94999925,15.9799996 4.7850009,15.9200002 4.605,15.88 C4.4249991,15.8399998 4.22000115,15.82 3.99,15.82 C3.4699974,15.82 3.0500016,15.9824984 2.73,16.3075 C2.4099984,16.6325016 2.25,17.0449975 2.25,17.545 C2.25,17.9850022 2.35749893,18.3374987 2.5725,18.6025 C2.78750108,18.8675013 3.0549984,19.097499 3.375,19.2925 C3.6950016,19.487501 4.04249813,19.6674992 4.4175,19.8325 C4.79250188,19.9975008 5.1399984,20.1974988 5.46,20.4325 C5.7800016,20.6675012 6.04749893,20.9624982 6.2625,21.3175 C6.47750108,21.6725018 6.585,22.1349972 6.585,22.705 C6.585,23.4250036 6.36750218,23.9999978 5.9325,24.43 C5.49749783,24.8600022 4.94500335,25.1049997 4.275,25.165 L4.275,26.65 L3.69,26.65 Z M15.135,25 L15.135,22.135 L10.725,22.135 L10.725,21.745 L15.18,15.415 L15.78,15.415 L15.78,21.565 L17.205,21.565 L17.205,22.135 L15.78,22.135 L15.78,25 L15.135,25 Z M11.535,21.565 L15.135,21.565 L15.135,18.055 C15.135,17.8349989 15.14,17.5600017 15.15,17.23 C15.1600001,16.8999984 15.1749999,16.6250011 15.195,16.405 L15.135,16.405 C15.0149994,16.605001 14.8900007,16.799999 14.76,16.99 C14.6299994,17.180001 14.4950007,17.3849989 14.355,17.605 L11.535,21.565 Z M19.32,25.18 C19.1499991,25.18 19.0000007,25.1200006 18.87,25 C18.7399994,24.8799994 18.675,24.7150011 18.675,24.505 C18.675,24.2849989 18.7399994,24.1150006 18.87,23.995 C19.0000007,23.8749994 19.1499991,23.815 19.32,23.815 C19.4900009,23.815 19.6374994,23.8749994 19.7625,23.995 C19.8875006,24.1150006 19.95,24.2849989 19.95,24.505 C19.95,24.7150011 19.8875006,24.8799994 19.7625,25 C19.6374994,25.1200006 19.4900009,25.18 19.32,25.18 Z M24.54,25.18 C23.6199954,25.18 22.9125025,24.7475043 22.4175,23.8825 C21.9224975,23.0174957 21.675,21.780008 21.675,20.17 C21.675,18.569992 21.9224975,17.3475042 22.4175,16.5025 C22.9125025,15.6574958 23.6199954,15.235 24.54,15.235 C25.4600046,15.235 26.1674975,15.6574958 26.6625,16.5025 C27.1575025,17.3475042 27.405,18.569992 27.405,20.17 C27.405,21.780008 27.1575025,23.0174957 26.6625,23.8825 C26.1674975,24.7475043 25.4600046,25.18 24.54,25.18 Z M24.54,24.61 C25.2100034,24.61 25.742498,24.2375037 26.1375,23.4925 C26.532502,22.7474963 26.73,21.6400074 26.73,20.17 C26.73,18.6999927 26.532502,17.6050036 26.1375,16.885 C25.742498,16.1649964 25.2100034,15.805 24.54,15.805 C23.8799967,15.805 23.350002,16.1649964 22.95,16.885 C22.549998,17.6050036 22.35,18.6999927 22.35,20.17 C22.35,21.6400074 22.549998,22.7474963 22.95,23.4925 C23.350002,24.2375037 23.8799967,24.61 24.54,24.61 Z M34.725,25 L34.725,15.715 L31.575,15.715 L31.575,15.115 L38.565,15.115 L38.565,15.715 L35.415,15.715 L35.415,25 L34.725,25 Z M3.69,66.65 L3.69,65.165 C3.1699974,65.1249998 2.69500215,64.9925011 2.265,64.7675 C1.83499785,64.5424989 1.47500145,64.2900014 1.185,64.01 L1.545,63.545 C1.83500145,63.8050013 2.179998,64.0449989 2.58,64.265 C2.980002,64.4850011 3.4399974,64.595 3.96,64.595 C4.59000315,64.595 5.07249833,64.4250017 5.4075,64.085 C5.74250168,63.7449983 5.91,63.3000027 5.91,62.75 C5.91,62.2599975 5.80250108,61.8625015 5.5875,61.5575 C5.37249893,61.2524985 5.1050016,60.9925011 4.785,60.7775 C4.4649984,60.5624989 4.11750188,60.3700008 3.7425,60.2 C3.36749813,60.0299991 3.0200016,59.8350011 2.7,59.615 C2.3799984,59.3949989 2.11250108,59.1275016 1.8975,58.8125 C1.68249893,58.4974984 1.575,58.0850025 1.575,57.575 C1.575,57.2649985 1.62749948,56.9750014 1.7325,56.705 C1.83750053,56.4349987 1.98499905,56.197501 2.175,55.9925 C2.36500095,55.787499 2.5899987,55.6200007 2.85,55.49 C3.1100013,55.3599994 3.3899985,55.2800002 3.69,55.25 L3.69,53.765 L4.275,53.765 L4.275,55.25 C4.76500245,55.2800002 5.16499845,55.394999 5.475,55.595 C5.78500155,55.795001 6.0699987,56.0299986 6.33,56.3 L5.94,56.72 C5.7999993,56.5799993 5.66250068,56.4550006 5.5275,56.345 C5.39249933,56.2349995 5.25000075,56.1400004 5.1,56.06 C4.94999925,55.9799996 4.7850009,55.9200002 4.605,55.88 C4.4249991,55.8399998 4.22000115,55.82 3.99,55.82 C3.4699974,55.82 3.0500016,55.9824984 2.73,56.3075 C2.4099984,56.6325016 2.25,57.0449975 2.25,57.545 C2.25,57.9850022 2.35749893,58.3374987 2.5725,58.6025 C2.78750108,58.8675013 3.0549984,59.097499 3.375,59.2925 C3.6950016,59.487501 4.04249813,59.6674992 4.4175,59.8325 C4.79250188,59.9975008 5.1399984,60.1974988 5.46,60.4325 C5.7800016,60.6675012 6.04749893,60.9624982 6.2625,61.3175 C6.47750108,61.6725018 6.585,62.1349972 6.585,62.705 C6.585,63.4250036 6.36750218,63.9999978 5.9325,64.43 C5.49749783,64.8600022 4.94500335,65.1049997 4.275,65.165 L4.275,66.65 L3.69,66.65 Z M13.965,65.18 C13.5849981,65.18 13.2400016,65.1400004 12.93,65.06 C12.6199985,64.9799996 12.3425012,64.8750007 12.0975,64.745 C11.8524988,64.6149994 11.632501,64.4700008 11.4375,64.31 C11.242499,64.1499992 11.0700008,63.9900008 10.92,63.83 L11.31,63.365 C11.4500007,63.5250008 11.6049992,63.6774993 11.775,63.8225 C11.9450009,63.9675007 12.1374989,64.0974994 12.3525,64.2125 C12.5675011,64.3275006 12.8074987,64.4199996 13.0725,64.49 C13.3375013,64.5600003 13.6349984,64.595 13.965,64.595 C14.2850016,64.595 14.5824986,64.5450005 14.8575,64.445 C15.1325014,64.3449995 15.369999,64.2025009 15.57,64.0175 C15.770001,63.8324991 15.9249995,63.6100013 16.035,63.35 C16.1450006,63.0899987 16.2,62.8000016 16.2,62.48 C16.2,62.1499984 16.1375006,61.8500014 16.0125,61.58 C15.8874994,61.3099987 15.6925013,61.077501 15.4275,60.8825 C15.1624987,60.687499 14.8175021,60.5350005 14.3925,60.425 C13.9674979,60.3149994 13.455003,60.26 12.855,60.26 L12.855,59.675 C13.4050028,59.675 13.8724981,59.6200005 14.2575,59.51 C14.6425019,59.3999994 14.9524988,59.2525009 15.1875,59.0675 C15.4225012,58.8824991 15.5924995,58.6625013 15.6975,58.4075 C15.8025005,58.1524987 15.855,57.8800015 15.855,57.59 C15.855,57.0499973 15.6800018,56.6175016 15.33,56.2925 C14.9799983,55.9674984 14.510003,55.805 13.92,55.805 C13.4699978,55.805 13.0600019,55.907499 12.69,56.1125 C12.3199982,56.317501 11.9950014,56.5649986 11.715,56.855 L11.325,56.405 C11.6550017,56.0849984 12.0299979,55.8100012 12.45,55.58 C12.8700021,55.3499989 13.3599972,55.235 13.92,55.235 C14.2900019,55.235 14.6349984,55.2874995 14.955,55.3925 C15.2750016,55.4975005 15.5524988,55.647499 15.7875,55.8425 C16.0225012,56.037501 16.2074993,56.2774986 16.3425,56.5625 C16.4775007,56.8475014 16.545,57.1749982 16.545,57.545 C16.545,58.1750032 16.3725017,58.6824981 16.0275,59.0675 C15.6824983,59.4525019 15.2450027,59.7349991 14.715,59.915 L14.715,59.975 C15.0150015,60.0350003 15.2949987,60.1374993 15.555,60.2825 C15.8150013,60.4275007 16.044999,60.6049989 16.245,60.815 C16.445001,61.0250011 16.6024994,61.2674986 16.7175,61.5425 C16.8325006,61.8175014 16.89,62.1249983 16.89,62.465 C16.89,62.8850021 16.8150008,63.2624983 16.665,63.5975 C16.5149993,63.9325017 16.3075013,64.2174988 16.0425,64.4525 C15.7774987,64.6875012 15.4675018,64.8674994 15.1125,64.9925 C14.7574982,65.1175006 14.3750021,65.18 13.965,65.18 Z M19.32,65.18 C19.1499991,65.18 19.0000007,65.1200006 18.87,65 C18.7399994,64.8799994 18.675,64.715001 18.675,64.505 C18.675,64.2849989 18.7399994,64.1150006 18.87,63.995 C19.0000007,63.8749994 19.1499991,63.815 19.32,63.815 C19.4900009,63.815 19.6374994,63.8749994 19.7625,63.995 C19.8875006,64.1150006 19.95,64.2849989 19.95,64.505 C19.95,64.715001 19.8875006,64.8799994 19.7625,65 C19.6374994,65.1200006 19.4900009,65.18 19.32,65.18 Z M24.36,65.18 C23.9799981,65.18 23.6375015,65.1425004 23.3325,65.0675 C23.0274985,64.9924996 22.7525012,64.8925006 22.5075,64.7675 C22.2624988,64.6424994 22.045001,64.5025008 21.855,64.3475 C21.664999,64.1924992 21.4950007,64.0400007 21.345,63.89 L21.72,63.425 C21.8600007,63.5750008 22.0149992,63.7199993 22.185,63.86 C22.3550009,64.0000007 22.544999,64.1249995 22.755,64.235 C22.9650011,64.3450006 23.1999987,64.4324997 23.46,64.4975 C23.7200013,64.5625003 24.0149983,64.595 24.345,64.595 C24.6650016,64.595 24.9699985,64.5325006 25.26,64.4075 C25.5500014,64.2824994 25.8024989,64.1075011 26.0175,63.8825 C26.2325011,63.6574989 26.4049994,63.3875016 26.535,63.0725 C26.6650007,62.7574984 26.73,62.405002 26.73,62.015 C26.73,61.2349961 26.5200021,60.6275022 26.1,60.1925 C25.6799979,59.7574978 25.1100036,59.54 24.39,59.54 C24.0199981,59.54 23.7025013,59.5974994 23.4375,59.7125 C23.1724987,59.8275006 22.8950015,59.984999 22.605,60.185 L22.14,59.9 L22.485,55.415 L26.91,55.415 L26.91,56 L23.085,56 L22.785,59.465 C23.0350013,59.3149993 23.2949987,59.1925005 23.565,59.0975 C23.8350014,59.0024995 24.1449983,58.955 24.495,58.955 C24.895002,58.955 25.2749982,59.0149994 25.635,59.135 C25.9950018,59.2550006 26.3049987,59.4374988 26.565,59.6825 C26.8250013,59.9275012 27.0324992,60.2424981 27.1875,60.6275 C27.3425008,61.0125019 27.42,61.4649974 27.42,61.985 C27.42,62.4950025 27.3325009,62.947498 27.1575,63.3425 C26.9824991,63.737502 26.7525014,64.0724986 26.4675,64.3475 C26.1824986,64.6225014 25.8575018,64.8299993 25.4925,64.97 C25.1274982,65.1100007 24.750002,65.18 24.36,65.18 Z M34.725,65 L34.725,55.715 L31.575,55.715 L31.575,55.115 L38.565,55.115 L38.565,55.715 L35.415,55.715 L35.415,65 L34.725,65 Z M3.69,106.65 L3.69,105.165 C3.1699974,105.125 2.69500215,104.992501 2.265,104.7675 C1.83499785,104.542499 1.47500145,104.290001 1.185,104.01 L1.545,103.545 C1.83500145,103.805001 2.179998,104.044999 2.58,104.265 C2.980002,104.485001 3.4399974,104.595 3.96,104.595 C4.59000315,104.595 5.07249833,104.425002 5.4075,104.085 C5.74250168,103.744998 5.91,103.300003 5.91,102.75 C5.91,102.259998 5.80250108,101.862502 5.5875,101.5575 C5.37249893,101.252498 5.1050016,100.992501 4.785,100.7775 C4.4649984,100.562499 4.11750188,100.370001 3.7425,100.2 C3.36749813,100.029999 3.0200016,99.8350011 2.7,99.615 C2.3799984,99.3949989 2.11250108,99.1275016 1.8975,98.8125 C1.68249893,98.4974984 1.575,98.0850026 1.575,97.575 C1.575,97.2649985 1.62749948,96.9750014 1.7325,96.705 C1.83750053,96.4349987 1.98499905,96.197501 2.175,95.9925 C2.36500095,95.787499 2.5899987,95.6200007 2.85,95.49 C3.1100013,95.3599994 3.3899985,95.2800002 3.69,95.25 L3.69,93.765 L4.275,93.765 L4.275,95.25 C4.76500245,95.2800002 5.16499845,95.394999 5.475,95.595 C5.78500155,95.795001 6.0699987,96.0299986 6.33,96.3 L5.94,96.72 C5.7999993,96.5799993 5.66250068,96.4550006 5.5275,96.345 C5.39249933,96.2349995 5.25000075,96.1400004 5.1,96.06 C4.94999925,95.9799996 4.7850009,95.9200002 4.605,95.88 C4.4249991,95.8399998 4.22000115,95.82 3.99,95.82 C3.4699974,95.82 3.0500016,95.9824984 2.73,96.3075 C2.4099984,96.6325016 2.25,97.0449975 2.25,97.545 C2.25,97.9850022 2.35749893,98.3374987 2.5725,98.6025 C2.78750108,98.8675013 3.0549984,99.097499 3.375,99.2925 C3.6950016,99.487501 4.04249813,99.6674992 4.4175,99.8325 C4.79250188,99.9975008 5.1399984,100.197499 5.46,100.4325 C5.7800016,100.667501 6.04749893,100.962498 6.2625,101.3175 C6.47750108,101.672502 6.585,102.134997 6.585,102.705 C6.585,103.425004 6.36750218,103.999998 5.9325,104.43 C5.49749783,104.860002 4.94500335,105.105 4.275,105.165 L4.275,106.65 L3.69,106.65 Z M13.965,105.18 C13.5849981,105.18 13.2400016,105.14 12.93,105.06 C12.6199985,104.98 12.3425012,104.875001 12.0975,104.745 C11.8524988,104.614999 11.632501,104.470001 11.4375,104.31 C11.242499,104.149999 11.0700008,103.990001 10.92,103.83 L11.31,103.365 C11.4500007,103.525001 11.6049992,103.677499 11.775,103.8225 C11.9450009,103.967501 12.1374989,104.097499 12.3525,104.2125 C12.5675011,104.327501 12.8074987,104.42 13.0725,104.49 C13.3375013,104.56 13.6349984,104.595 13.965,104.595 C14.2850016,104.595 14.5824986,104.545001 14.8575,104.445 C15.1325014,104.344999 15.369999,104.202501 15.57,104.0175 C15.770001,103.832499 15.9249995,103.610001 16.035,103.35 C16.1450006,103.089999 16.2,102.800002 16.2,102.48 C16.2,102.149998 16.1375006,101.850001 16.0125,101.58 C15.8874994,101.309999 15.6925013,101.077501 15.4275,100.8825 C15.1624987,100.687499 14.8175021,100.535001 14.3925,100.425 C13.9674979,100.314999 13.455003,100.26 12.855,100.26 L12.855,99.675 C13.4050028,99.675 13.8724981,99.6200005 14.2575,99.51 C14.6425019,99.3999994 14.9524988,99.2525009 15.1875,99.0675 C15.4225012,98.8824991 15.5924995,98.6625013 15.6975,98.4075 C15.8025005,98.1524987 15.855,97.8800014 15.855,97.59 C15.855,97.0499973 15.6800018,96.6175016 15.33,96.2925 C14.9799983,95.9674984 14.510003,95.805 13.92,95.805 C13.4699978,95.805 13.0600019,95.907499 12.69,96.1125 C12.3199982,96.317501 11.9950014,96.5649986 11.715,96.855 L11.325,96.405 C11.6550017,96.0849984 12.0299979,95.8100012 12.45,95.58 C12.8700021,95.3499989 13.3599972,95.235 13.92,95.235 C14.2900019,95.235 14.6349984,95.2874995 14.955,95.3925 C15.2750016,95.4975005 15.5524988,95.647499 15.7875,95.8425 C16.0225012,96.037501 16.2074993,96.2774986 16.3425,96.5625 C16.4775007,96.8475014 16.545,97.1749982 16.545,97.545 C16.545,98.1750032 16.3725017,98.6824981 16.0275,99.0675 C15.6824983,99.4525019 15.2450027,99.7349991 14.715,99.915 L14.715,99.975 C15.0150015,100.035 15.2949987,100.137499 15.555,100.2825 C15.8150013,100.427501 16.044999,100.604999 16.245,100.815 C16.445001,101.025001 16.6024994,101.267499 16.7175,101.5425 C16.8325006,101.817501 16.89,102.124998 16.89,102.465 C16.89,102.885002 16.8150008,103.262498 16.665,103.5975 C16.5149993,103.932502 16.3075013,104.217499 16.0425,104.4525 C15.7774987,104.687501 15.4675018,104.867499 15.1125,104.9925 C14.7574982,105.117501 14.3750021,105.18 13.965,105.18 Z M19.32,105.18 C19.1499991,105.18 19.0000007,105.120001 18.87,105 C18.7399994,104.879999 18.675,104.715001 18.675,104.505 C18.675,104.284999 18.7399994,104.115001 18.87,103.995 C19.0000007,103.874999 19.1499991,103.815 19.32,103.815 C19.4900009,103.815 19.6374994,103.874999 19.7625,103.995 C19.8875006,104.115001 19.95,104.284999 19.95,104.505 C19.95,104.715001 19.8875006,104.879999 19.7625,105 C19.6374994,105.120001 19.4900009,105.18 19.32,105.18 Z M24.54,105.18 C23.6199954,105.18 22.9125025,104.747504 22.4175,103.8825 C21.9224975,103.017496 21.675,101.780008 21.675,100.17 C21.675,98.569992 21.9224975,97.3475042 22.4175,96.5025 C22.9125025,95.6574958 23.6199954,95.235 24.54,95.235 C25.4600046,95.235 26.1674975,95.6574958 26.6625,96.5025 C27.1575025,97.3475042 27.405,98.569992 27.405,100.17 C27.405,101.780008 27.1575025,103.017496 26.6625,103.8825 C26.1674975,104.747504 25.4600046,105.18 24.54,105.18 Z M24.54,104.61 C25.2100034,104.61 25.742498,104.237504 26.1375,103.4925 C26.532502,102.747496 26.73,101.640007 26.73,100.17 C26.73,98.6999926 26.532502,97.6050036 26.1375,96.885 C25.742498,96.1649964 25.2100034,95.805 24.54,95.805 C23.8799967,95.805 23.350002,96.1649964 22.95,96.885 C22.549998,97.6050036 22.35,98.6999926 22.35,100.17 C22.35,101.640007 22.549998,102.747496 22.95,103.4925 C23.350002,104.237504 23.8799967,104.61 24.54,104.61 Z M34.725,105 L34.725,95.715 L31.575,95.715 L31.575,95.115 L38.565,95.115 L38.565,95.715 L35.415,95.715 L35.415,105 L34.725,105 Z M3.69,146.65 L3.69,145.165 C3.1699974,145.125 2.69500215,144.992501 2.265,144.7675 C1.83499785,144.542499 1.47500145,144.290001 1.185,144.01 L1.545,143.545 C1.83500145,143.805001 2.179998,144.044999 2.58,144.265 C2.980002,144.485001 3.4399974,144.595 3.96,144.595 C4.59000315,144.595 5.07249833,144.425002 5.4075,144.085 C5.74250168,143.744998 5.91,143.300003 5.91,142.75 C5.91,142.259998 5.80250108,141.862502 5.5875,141.5575 C5.37249893,141.252498 5.1050016,140.992501 4.785,140.7775 C4.4649984,140.562499 4.11750188,140.370001 3.7425,140.2 C3.36749813,140.029999 3.0200016,139.835001 2.7,139.615 C2.3799984,139.394999 2.11250108,139.127502 1.8975,138.8125 C1.68249893,138.497498 1.575,138.085003 1.575,137.575 C1.575,137.264998 1.62749948,136.975001 1.7325,136.705 C1.83750053,136.434999 1.98499905,136.197501 2.175,135.9925 C2.36500095,135.787499 2.5899987,135.620001 2.85,135.49 C3.1100013,135.359999 3.3899985,135.28 3.69,135.25 L3.69,133.765 L4.275,133.765 L4.275,135.25 C4.76500245,135.28 5.16499845,135.394999 5.475,135.595 C5.78500155,135.795001 6.0699987,136.029999 6.33,136.3 L5.94,136.72 C5.7999993,136.579999 5.66250068,136.455001 5.5275,136.345 C5.39249933,136.234999 5.25000075,136.14 5.1,136.06 C4.94999925,135.98 4.7850009,135.92 4.605,135.88 C4.4249991,135.84 4.22000115,135.82 3.99,135.82 C3.4699974,135.82 3.0500016,135.982498 2.73,136.3075 C2.4099984,136.632502 2.25,137.044997 2.25,137.545 C2.25,137.985002 2.35749893,138.337499 2.5725,138.6025 C2.78750108,138.867501 3.0549984,139.097499 3.375,139.2925 C3.6950016,139.487501 4.04249813,139.667499 4.4175,139.8325 C4.79250188,139.997501 5.1399984,140.197499 5.46,140.4325 C5.7800016,140.667501 6.04749893,140.962498 6.2625,141.3175 C6.47750108,141.672502 6.585,142.134997 6.585,142.705 C6.585,143.425004 6.36750218,143.999998 5.9325,144.43 C5.49749783,144.860002 4.94500335,145.105 4.275,145.165 L4.275,146.65 L3.69,146.65 Z M11.1,145 L11.1,144.58 C11.890004,143.779996 12.5799971,143.062503 13.17,142.4275 C13.760003,141.792497 14.252498,141.212503 14.6475,140.6875 C15.042502,140.162497 15.337499,139.677502 15.5325,139.2325 C15.727501,138.787498 15.825,138.355002 15.825,137.935 C15.825,137.334997 15.6575017,136.830002 15.3225,136.42 C14.9874983,136.009998 14.4600036,135.805 13.74,135.805 C13.2999978,135.805 12.8900019,135.924999 12.51,136.165 C12.1299981,136.405001 11.7950015,136.704998 11.505,137.065 L11.07,136.645 C11.4300018,136.244998 11.8274978,135.910001 12.2625,135.64 C12.6975022,135.369999 13.2099971,135.235 13.8,135.235 C14.6600043,135.235 15.3249977,135.479998 15.795,135.97 C16.2650024,136.460002 16.5,137.109996 16.5,137.92 C16.5,138.400002 16.3950011,138.877498 16.185,139.3525 C15.974999,139.827502 15.6800019,140.327497 15.3,140.8525 C14.9199981,141.377503 14.4575027,141.937497 13.9125,142.5325 C13.3674973,143.127503 12.7650033,143.774996 12.105,144.475 C12.3650013,144.455 12.6324986,144.4375 12.9075,144.4225 C13.1825014,144.4075 13.4499987,144.4 13.71,144.4 L16.98,144.4 L16.98,145 L11.1,145 Z M19.32,145.18 C19.1499991,145.18 19.0000007,145.120001 18.87,145 C18.7399994,144.879999 18.675,144.715001 18.675,144.505 C18.675,144.284999 18.7399994,144.115001 18.87,143.995 C19.0000007,143.874999 19.1499991,143.815 19.32,143.815 C19.4900009,143.815 19.6374994,143.874999 19.7625,143.995 C19.8875006,144.115001 19.95,144.284999 19.95,144.505 C19.95,144.715001 19.8875006,144.879999 19.7625,145 C19.6374994,145.120001 19.4900009,145.18 19.32,145.18 Z M24.36,145.18 C23.9799981,145.18 23.6375015,145.1425 23.3325,145.0675 C23.0274985,144.9925 22.7525012,144.892501 22.5075,144.7675 C22.2624988,144.642499 22.045001,144.502501 21.855,144.3475 C21.664999,144.192499 21.4950007,144.040001 21.345,143.89 L21.72,143.425 C21.8600007,143.575001 22.0149992,143.719999 22.185,143.86 C22.3550009,144.000001 22.544999,144.124999 22.755,144.235 C22.9650011,144.345001 23.1999987,144.4325 23.46,144.4975 C23.7200013,144.5625 24.0149983,144.595 24.345,144.595 C24.6650016,144.595 24.9699985,144.532501 25.26,144.4075 C25.5500014,144.282499 25.8024989,144.107501 26.0175,143.8825 C26.2325011,143.657499 26.4049994,143.387502 26.535,143.0725 C26.6650007,142.757498 26.73,142.405002 26.73,142.015 C26.73,141.234996 26.5200021,140.627502 26.1,140.1925 C25.6799979,139.757498 25.1100036,139.54 24.39,139.54 C24.0199981,139.54 23.7025013,139.597499 23.4375,139.7125 C23.1724987,139.827501 22.8950015,139.984999 22.605,140.185 L22.14,139.9 L22.485,135.415 L26.91,135.415 L26.91,136 L23.085,136 L22.785,139.465 C23.0350013,139.314999 23.2949987,139.1925 23.565,139.0975 C23.8350014,139.0025 24.1449983,138.955 24.495,138.955 C24.895002,138.955 25.2749982,139.014999 25.635,139.135 C25.9950018,139.255001 26.3049987,139.437499 26.565,139.6825 C26.8250013,139.927501 27.0324992,140.242498 27.1875,140.6275 C27.3425008,141.012502 27.42,141.464997 27.42,141.985 C27.42,142.495003 27.3325009,142.947498 27.1575,143.3425 C26.9824991,143.737502 26.7525014,144.072499 26.4675,144.3475 C26.1824986,144.622501 25.8575018,144.829999 25.4925,144.97 C25.1274982,145.110001 24.750002,145.18 24.36,145.18 Z M34.725,145 L34.725,135.715 L31.575,135.715 L31.575,135.115 L38.565,135.115 L38.565,135.715 L35.415,135.715 L35.415,145 L34.725,145 Z M3.69,186.65 L3.69,185.165 C3.1699974,185.125 2.69500215,184.992501 2.265,184.7675 C1.83499785,184.542499 1.47500145,184.290001 1.185,184.01 L1.545,183.545 C1.83500145,183.805001 2.179998,184.044999 2.58,184.265 C2.980002,184.485001 3.4399974,184.595 3.96,184.595 C4.59000315,184.595 5.07249833,184.425002 5.4075,184.085 C5.74250168,183.744998 5.91,183.300003 5.91,182.75 C5.91,182.259998 5.80250108,181.862502 5.5875,181.5575 C5.37249893,181.252498 5.1050016,180.992501 4.785,180.7775 C4.4649984,180.562499 4.11750188,180.370001 3.7425,180.2 C3.36749813,180.029999 3.0200016,179.835001 2.7,179.615 C2.3799984,179.394999 2.11250108,179.127502 1.8975,178.8125 C1.68249893,178.497498 1.575,178.085003 1.575,177.575 C1.575,177.264998 1.62749948,176.975001 1.7325,176.705 C1.83750053,176.434999 1.98499905,176.197501 2.175,175.9925 C2.36500095,175.787499 2.5899987,175.620001 2.85,175.49 C3.1100013,175.359999 3.3899985,175.28 3.69,175.25 L3.69,173.765 L4.275,173.765 L4.275,175.25 C4.76500245,175.28 5.16499845,175.394999 5.475,175.595 C5.78500155,175.795001 6.0699987,176.029999 6.33,176.3 L5.94,176.72 C5.7999993,176.579999 5.66250068,176.455001 5.5275,176.345 C5.39249933,176.234999 5.25000075,176.14 5.1,176.06 C4.94999925,175.98 4.7850009,175.92 4.605,175.88 C4.4249991,175.84 4.22000115,175.82 3.99,175.82 C3.4699974,175.82 3.0500016,175.982498 2.73,176.3075 C2.4099984,176.632502 2.25,177.044997 2.25,177.545 C2.25,177.985002 2.35749893,178.337499 2.5725,178.6025 C2.78750108,178.867501 3.0549984,179.097499 3.375,179.2925 C3.6950016,179.487501 4.04249813,179.667499 4.4175,179.8325 C4.79250188,179.997501 5.1399984,180.197499 5.46,180.4325 C5.7800016,180.667501 6.04749893,180.962498 6.2625,181.3175 C6.47750108,181.672502 6.585,182.134997 6.585,182.705 C6.585,183.425004 6.36750218,183.999998 5.9325,184.43 C5.49749783,184.860002 4.94500335,185.105 4.275,185.165 L4.275,186.65 L3.69,186.65 Z M11.1,185 L11.1,184.58 C11.890004,183.779996 12.5799971,183.062503 13.17,182.4275 C13.760003,181.792497 14.252498,181.212503 14.6475,180.6875 C15.042502,180.162497 15.337499,179.677502 15.5325,179.2325 C15.727501,178.787498 15.825,178.355002 15.825,177.935 C15.825,177.334997 15.6575017,176.830002 15.3225,176.42 C14.9874983,176.009998 14.4600036,175.805 13.74,175.805 C13.2999978,175.805 12.8900019,175.924999 12.51,176.165 C12.1299981,176.405001 11.7950015,176.704998 11.505,177.065 L11.07,176.645 C11.4300018,176.244998 11.8274978,175.910001 12.2625,175.64 C12.6975022,175.369999 13.2099971,175.235 13.8,175.235 C14.6600043,175.235 15.3249977,175.479998 15.795,175.97 C16.2650024,176.460002 16.5,177.109996 16.5,177.92 C16.5,178.400002 16.3950011,178.877498 16.185,179.3525 C15.974999,179.827502 15.6800019,180.327497 15.3,180.8525 C14.9199981,181.377503 14.4575027,181.937497 13.9125,182.5325 C13.3674973,183.127503 12.7650033,183.774996 12.105,184.475 C12.3650013,184.455 12.6324986,184.4375 12.9075,184.4225 C13.1825014,184.4075 13.4499987,184.4 13.71,184.4 L16.98,184.4 L16.98,185 L11.1,185 Z M19.32,185.18 C19.1499991,185.18 19.0000007,185.120001 18.87,185 C18.7399994,184.879999 18.675,184.715001 18.675,184.505 C18.675,184.284999 18.7399994,184.115001 18.87,183.995 C19.0000007,183.874999 19.1499991,183.815 19.32,183.815 C19.4900009,183.815 19.6374994,183.874999 19.7625,183.995 C19.8875006,184.115001 19.95,184.284999 19.95,184.505 C19.95,184.715001 19.8875006,184.879999 19.7625,185 C19.6374994,185.120001 19.4900009,185.18 19.32,185.18 Z M24.54,185.18 C23.6199954,185.18 22.9125025,184.747504 22.4175,183.8825 C21.9224975,183.017496 21.675,181.780008 21.675,180.17 C21.675,178.569992 21.9224975,177.347504 22.4175,176.5025 C22.9125025,175.657496 23.6199954,175.235 24.54,175.235 C25.4600046,175.235 26.1674975,175.657496 26.6625,176.5025 C27.1575025,177.347504 27.405,178.569992 27.405,180.17 C27.405,181.780008 27.1575025,183.017496 26.6625,183.8825 C26.1674975,184.747504 25.4600046,185.18 24.54,185.18 Z M24.54,184.61 C25.2100034,184.61 25.742498,184.237504 26.1375,183.4925 C26.532502,182.747496 26.73,181.640007 26.73,180.17 C26.73,178.699993 26.532502,177.605004 26.1375,176.885 C25.742498,176.164996 25.2100034,175.805 24.54,175.805 C23.8799967,175.805 23.350002,176.164996 22.95,176.885 C22.549998,177.605004 22.35,178.699993 22.35,180.17 C22.35,181.640007 22.549998,182.747496 22.95,183.4925 C23.350002,184.237504 23.8799967,184.61 24.54,184.61 Z M34.725,185 L34.725,175.715 L31.575,175.715 L31.575,175.115 L38.565,175.115 L38.565,175.715 L35.415,175.715 L35.415,185 L34.725,185 Z M3.69,226.65 L3.69,225.165 C3.1699974,225.125 2.69500215,224.992501 2.265,224.7675 C1.83499785,224.542499 1.47500145,224.290001 1.185,224.01 L1.545,223.545 C1.83500145,223.805001 2.179998,224.044999 2.58,224.265 C2.980002,224.485001 3.4399974,224.595 3.96,224.595 C4.59000315,224.595 5.07249833,224.425002 5.4075,224.085 C5.74250168,223.744998 5.91,223.300003 5.91,222.75 C5.91,222.259998 5.80250108,221.862502 5.5875,221.5575 C5.37249893,221.252498 5.1050016,220.992501 4.785,220.7775 C4.4649984,220.562499 4.11750188,220.370001 3.7425,220.2 C3.36749813,220.029999 3.0200016,219.835001 2.7,219.615 C2.3799984,219.394999 2.11250108,219.127502 1.8975,218.8125 C1.68249893,218.497498 1.575,218.085003 1.575,217.575 C1.575,217.264998 1.62749948,216.975001 1.7325,216.705 C1.83750053,216.434999 1.98499905,216.197501 2.175,215.9925 C2.36500095,215.787499 2.5899987,215.620001 2.85,215.49 C3.1100013,215.359999 3.3899985,215.28 3.69,215.25 L3.69,213.765 L4.275,213.765 L4.275,215.25 C4.76500245,215.28 5.16499845,215.394999 5.475,215.595 C5.78500155,215.795001 6.0699987,216.029999 6.33,216.3 L5.94,216.72 C5.7999993,216.579999 5.66250068,216.455001 5.5275,216.345 C5.39249933,216.234999 5.25000075,216.14 5.1,216.06 C4.94999925,215.98 4.7850009,215.92 4.605,215.88 C4.4249991,215.84 4.22000115,215.82 3.99,215.82 C3.4699974,215.82 3.0500016,215.982498 2.73,216.3075 C2.4099984,216.632502 2.25,217.044997 2.25,217.545 C2.25,217.985002 2.35749893,218.337499 2.5725,218.6025 C2.78750108,218.867501 3.0549984,219.097499 3.375,219.2925 C3.6950016,219.487501 4.04249813,219.667499 4.4175,219.8325 C4.79250188,219.997501 5.1399984,220.197499 5.46,220.4325 C5.7800016,220.667501 6.04749893,220.962498 6.2625,221.3175 C6.47750108,221.672502 6.585,222.134997 6.585,222.705 C6.585,223.425004 6.36750218,223.999998 5.9325,224.43 C5.49749783,224.860002 4.94500335,225.105 4.275,225.165 L4.275,226.65 L3.69,226.65 Z M11.745,225 L11.745,224.415 L13.995,224.415 L13.995,216.465 L12.285,216.465 L12.285,216.015 C12.675002,215.945 13.0224985,215.86 13.3275,215.76 C13.6325015,215.659999 13.8999989,215.545001 14.13,215.415 L14.67,215.415 L14.67,224.415 L16.755,224.415 L16.755,225 L11.745,225 Z M19.32,225.18 C19.1499991,225.18 19.0000007,225.120001 18.87,225 C18.7399994,224.879999 18.675,224.715001 18.675,224.505 C18.675,224.284999 18.7399994,224.115001 18.87,223.995 C19.0000007,223.874999 19.1499991,223.815 19.32,223.815 C19.4900009,223.815 19.6374994,223.874999 19.7625,223.995 C19.8875006,224.115001 19.95,224.284999 19.95,224.505 C19.95,224.715001 19.8875006,224.879999 19.7625,225 C19.6374994,225.120001 19.4900009,225.18 19.32,225.18 Z M24.36,225.18 C23.9799981,225.18 23.6375015,225.1425 23.3325,225.0675 C23.0274985,224.9925 22.7525012,224.892501 22.5075,224.7675 C22.2624988,224.642499 22.045001,224.502501 21.855,224.3475 C21.664999,224.192499 21.4950007,224.040001 21.345,223.89 L21.72,223.425 C21.8600007,223.575001 22.0149992,223.719999 22.185,223.86 C22.3550009,224.000001 22.544999,224.124999 22.755,224.235 C22.9650011,224.345001 23.1999987,224.4325 23.46,224.4975 C23.7200013,224.5625 24.0149983,224.595 24.345,224.595 C24.6650016,224.595 24.9699985,224.532501 25.26,224.4075 C25.5500014,224.282499 25.8024989,224.107501 26.0175,223.8825 C26.2325011,223.657499 26.4049994,223.387502 26.535,223.0725 C26.6650007,222.757498 26.73,222.405002 26.73,222.015 C26.73,221.234996 26.5200021,220.627502 26.1,220.1925 C25.6799979,219.757498 25.1100036,219.54 24.39,219.54 C24.0199981,219.54 23.7025013,219.597499 23.4375,219.7125 C23.1724987,219.827501 22.8950015,219.984999 22.605,220.185 L22.14,219.9 L22.485,215.415 L26.91,215.415 L26.91,216 L23.085,216 L22.785,219.465 C23.0350013,219.314999 23.2949987,219.1925 23.565,219.0975 C23.8350014,219.0025 24.1449983,218.955 24.495,218.955 C24.895002,218.955 25.2749982,219.014999 25.635,219.135 C25.9950018,219.255001 26.3049987,219.437499 26.565,219.6825 C26.8250013,219.927501 27.0324992,220.242498 27.1875,220.6275 C27.3425008,221.012502 27.42,221.464997 27.42,221.985 C27.42,222.495003 27.3325009,222.947498 27.1575,223.3425 C26.9824991,223.737502 26.7525014,224.072499 26.4675,224.3475 C26.1824986,224.622501 25.8575018,224.829999 25.4925,224.97 C25.1274982,225.110001 24.750002,225.18 24.36,225.18 Z M34.725,225 L34.725,215.715 L31.575,215.715 L31.575,215.115 L38.565,215.115 L38.565,215.715 L35.415,215.715 L35.415,225 L34.725,225 Z M3.69,266.65 L3.69,265.165 C3.1699974,265.125 2.69500215,264.992501 2.265,264.7675 C1.83499785,264.542499 1.47500145,264.290001 1.185,264.01 L1.545,263.545 C1.83500145,263.805001 2.179998,264.044999 2.58,264.265 C2.980002,264.485001 3.4399974,264.595 3.96,264.595 C4.59000315,264.595 5.07249833,264.425002 5.4075,264.085 C5.74250168,263.744998 5.91,263.300003 5.91,262.75 C5.91,262.259998 5.80250108,261.862502 5.5875,261.5575 C5.37249893,261.252498 5.1050016,260.992501 4.785,260.7775 C4.4649984,260.562499 4.11750188,260.370001 3.7425,260.2 C3.36749813,260.029999 3.0200016,259.835001 2.7,259.615 C2.3799984,259.394999 2.11250108,259.127502 1.8975,258.8125 C1.68249893,258.497498 1.575,258.085003 1.575,257.575 C1.575,257.264998 1.62749948,256.975001 1.7325,256.705 C1.83750053,256.434999 1.98499905,256.197501 2.175,255.9925 C2.36500095,255.787499 2.5899987,255.620001 2.85,255.49 C3.1100013,255.359999 3.3899985,255.28 3.69,255.25 L3.69,253.765 L4.275,253.765 L4.275,255.25 C4.76500245,255.28 5.16499845,255.394999 5.475,255.595 C5.78500155,255.795001 6.0699987,256.029999 6.33,256.3 L5.94,256.72 C5.7999993,256.579999 5.66250068,256.455001 5.5275,256.345 C5.39249933,256.234999 5.25000075,256.14 5.1,256.06 C4.94999925,255.98 4.7850009,255.92 4.605,255.88 C4.4249991,255.84 4.22000115,255.82 3.99,255.82 C3.4699974,255.82 3.0500016,255.982498 2.73,256.3075 C2.4099984,256.632502 2.25,257.044998 2.25,257.545 C2.25,257.985002 2.35749893,258.337499 2.5725,258.6025 C2.78750108,258.867501 3.0549984,259.097499 3.375,259.2925 C3.6950016,259.487501 4.04249813,259.667499 4.4175,259.8325 C4.79250188,259.997501 5.1399984,260.197499 5.46,260.4325 C5.7800016,260.667501 6.04749893,260.962498 6.2625,261.3175 C6.47750108,261.672502 6.585,262.134997 6.585,262.705 C6.585,263.425004 6.36750218,263.999998 5.9325,264.43 C5.49749783,264.860002 4.94500335,265.105 4.275,265.165 L4.275,266.65 L3.69,266.65 Z M11.745,265 L11.745,264.415 L13.995,264.415 L13.995,256.465 L12.285,256.465 L12.285,256.015 C12.675002,255.945 13.0224985,255.860001 13.3275,255.76 C13.6325015,255.659999 13.8999989,255.545001 14.13,255.415 L14.67,255.415 L14.67,264.415 L16.755,264.415 L16.755,265 L11.745,265 Z M19.32,265.18 C19.1499991,265.18 19.0000007,265.120001 18.87,265 C18.7399994,264.879999 18.675,264.715001 18.675,264.505 C18.675,264.284999 18.7399994,264.115001 18.87,263.995 C19.0000007,263.874999 19.1499991,263.815 19.32,263.815 C19.4900009,263.815 19.6374994,263.874999 19.7625,263.995 C19.8875006,264.115001 19.95,264.284999 19.95,264.505 C19.95,264.715001 19.8875006,264.879999 19.7625,265 C19.6374994,265.120001 19.4900009,265.18 19.32,265.18 Z M24.54,265.18 C23.6199954,265.18 22.9125025,264.747504 22.4175,263.8825 C21.9224975,263.017496 21.675,261.780008 21.675,260.17 C21.675,258.569992 21.9224975,257.347504 22.4175,256.5025 C22.9125025,255.657496 23.6199954,255.235 24.54,255.235 C25.4600046,255.235 26.1674975,255.657496 26.6625,256.5025 C27.1575025,257.347504 27.405,258.569992 27.405,260.17 C27.405,261.780008 27.1575025,263.017496 26.6625,263.8825 C26.1674975,264.747504 25.4600046,265.18 24.54,265.18 Z M24.54,264.61 C25.2100034,264.61 25.742498,264.237504 26.1375,263.4925 C26.532502,262.747496 26.73,261.640007 26.73,260.17 C26.73,258.699993 26.532502,257.605004 26.1375,256.885 C25.742498,256.164996 25.2100034,255.805 24.54,255.805 C23.8799967,255.805 23.350002,256.164996 22.95,256.885 C22.549998,257.605004 22.35,258.699993 22.35,260.17 C22.35,261.640007 22.549998,262.747496 22.95,263.4925 C23.350002,264.237504 23.8799967,264.61 24.54,264.61 Z M34.725,265 L34.725,255.715 L31.575,255.715 L31.575,255.115 L38.565,255.115 L38.565,255.715 L35.415,255.715 L35.415,265 L34.725,265 Z M3.69,306.65 L3.69,305.165 C3.1699974,305.125 2.69500215,304.992501 2.265,304.7675 C1.83499785,304.542499 1.47500145,304.290001 1.185,304.01 L1.545,303.545 C1.83500145,303.805001 2.179998,304.044999 2.58,304.265 C2.980002,304.485001 3.4399974,304.595 3.96,304.595 C4.59000315,304.595 5.07249833,304.425002 5.4075,304.085 C5.74250168,303.744998 5.91,303.300003 5.91,302.75 C5.91,302.259998 5.80250108,301.862502 5.5875,301.5575 C5.37249893,301.252498 5.1050016,300.992501 4.785,300.7775 C4.4649984,300.562499 4.11750188,300.370001 3.7425,300.2 C3.36749813,300.029999 3.0200016,299.835001 2.7,299.615 C2.3799984,299.394999 2.11250108,299.127502 1.8975,298.8125 C1.68249893,298.497498 1.575,298.085003 1.575,297.575 C1.575,297.264998 1.62749948,296.975001 1.7325,296.705 C1.83750053,296.434999 1.98499905,296.197501 2.175,295.9925 C2.36500095,295.787499 2.5899987,295.620001 2.85,295.49 C3.1100013,295.359999 3.3899985,295.28 3.69,295.25 L3.69,293.765 L4.275,293.765 L4.275,295.25 C4.76500245,295.28 5.16499845,295.394999 5.475,295.595 C5.78500155,295.795001 6.0699987,296.029999 6.33,296.3 L5.94,296.72 C5.7999993,296.579999 5.66250068,296.455001 5.5275,296.345 C5.39249933,296.234999 5.25000075,296.14 5.1,296.06 C4.94999925,295.98 4.7850009,295.92 4.605,295.88 C4.4249991,295.84 4.22000115,295.82 3.99,295.82 C3.4699974,295.82 3.0500016,295.982498 2.73,296.3075 C2.4099984,296.632502 2.25,297.044998 2.25,297.545 C2.25,297.985002 2.35749893,298.337499 2.5725,298.6025 C2.78750108,298.867501 3.0549984,299.097499 3.375,299.2925 C3.6950016,299.487501 4.04249813,299.667499 4.4175,299.8325 C4.79250188,299.997501 5.1399984,300.197499 5.46,300.4325 C5.7800016,300.667501 6.04749893,300.962498 6.2625,301.3175 C6.47750108,301.672502 6.585,302.134997 6.585,302.705 C6.585,303.425004 6.36750218,303.999998 5.9325,304.43 C5.49749783,304.860002 4.94500335,305.105 4.275,305.165 L4.275,306.65 L3.69,306.65 Z M14.07,305.18 C13.1499954,305.18 12.4425025,304.747504 11.9475,303.8825 C11.4524975,303.017496 11.205,301.780008 11.205,300.17 C11.205,298.569992 11.4524975,297.347504 11.9475,296.5025 C12.4425025,295.657496 13.1499954,295.235 14.07,295.235 C14.9900046,295.235 15.6974975,295.657496 16.1925,296.5025 C16.6875025,297.347504 16.935,298.569992 16.935,300.17 C16.935,301.780008 16.6875025,303.017496 16.1925,303.8825 C15.6974975,304.747504 14.9900046,305.18 14.07,305.18 Z M14.07,304.61 C14.7400034,304.61 15.272498,304.237504 15.6675,303.4925 C16.062502,302.747496 16.26,301.640007 16.26,300.17 C16.26,298.699993 16.062502,297.605004 15.6675,296.885 C15.272498,296.164996 14.7400034,295.805 14.07,295.805 C13.4099967,295.805 12.880002,296.164996 12.48,296.885 C12.079998,297.605004 11.88,298.699993 11.88,300.17 C11.88,301.640007 12.079998,302.747496 12.48,303.4925 C12.880002,304.237504 13.4099967,304.61 14.07,304.61 Z M19.32,305.18 C19.1499991,305.18 19.0000007,305.120001 18.87,305 C18.7399994,304.879999 18.675,304.715001 18.675,304.505 C18.675,304.284999 18.7399994,304.115001 18.87,303.995 C19.0000007,303.874999 19.1499991,303.815 19.32,303.815 C19.4900009,303.815 19.6374994,303.874999 19.7625,303.995 C19.8875006,304.115001 19.95,304.284999 19.95,304.505 C19.95,304.715001 19.8875006,304.879999 19.7625,305 C19.6374994,305.120001 19.4900009,305.18 19.32,305.18 Z M24.36,305.18 C23.9799981,305.18 23.6375015,305.1425 23.3325,305.0675 C23.0274985,304.9925 22.7525012,304.892501 22.5075,304.7675 C22.2624988,304.642499 22.045001,304.502501 21.855,304.3475 C21.664999,304.192499 21.4950007,304.040001 21.345,303.89 L21.72,303.425 C21.8600007,303.575001 22.0149992,303.719999 22.185,303.86 C22.3550009,304.000001 22.544999,304.124999 22.755,304.235 C22.9650011,304.345001 23.1999987,304.4325 23.46,304.4975 C23.7200013,304.5625 24.0149983,304.595 24.345,304.595 C24.6650016,304.595 24.9699985,304.532501 25.26,304.4075 C25.5500014,304.282499 25.8024989,304.107501 26.0175,303.8825 C26.2325011,303.657499 26.4049994,303.387502 26.535,303.0725 C26.6650007,302.757498 26.73,302.405002 26.73,302.015 C26.73,301.234996 26.5200021,300.627502 26.1,300.1925 C25.6799979,299.757498 25.1100036,299.54 24.39,299.54 C24.0199981,299.54 23.7025013,299.597499 23.4375,299.7125 C23.1724987,299.827501 22.8950015,299.984999 22.605,300.185 L22.14,299.9 L22.485,295.415 L26.91,295.415 L26.91,296 L23.085,296 L22.785,299.465 C23.0350013,299.314999 23.2949987,299.1925 23.565,299.0975 C23.8350014,299.0025 24.1449983,298.955 24.495,298.955 C24.895002,298.955 25.2749982,299.014999 25.635,299.135 C25.9950018,299.255001 26.3049987,299.437499 26.565,299.6825 C26.8250013,299.927501 27.0324992,300.242498 27.1875,300.6275 C27.3425008,301.012502 27.42,301.464997 27.42,301.985 C27.42,302.495003 27.3325009,302.947498 27.1575,303.3425 C26.9824991,303.737502 26.7525014,304.072499 26.4675,304.3475 C26.1824986,304.622501 25.8575018,304.829999 25.4925,304.97 C25.1274982,305.110001 24.750002,305.18 24.36,305.18 Z M34.725,305 L34.725,295.715 L31.575,295.715 L31.575,295.115 L38.565,295.115 L38.565,295.715 L35.415,295.715 L35.415,305 L34.725,305 Z M25.02,346.65 L25.02,345.165 C24.4999974,345.125 24.0250021,344.992501 23.595,344.7675 C23.1649979,344.542499 22.8050015,344.290001 22.515,344.01 L22.875,343.545 C23.1650015,343.805001 23.509998,344.044999 23.91,344.265 C24.310002,344.485001 24.7699974,344.595 25.29,344.595 C25.9200031,344.595 26.4024983,344.425002 26.7375,344.085 C27.0725017,343.744998 27.24,343.300003 27.24,342.75 C27.24,342.259998 27.1325011,341.862502 26.9175,341.5575 C26.7024989,341.252498 26.4350016,340.992501 26.115,340.7775 C25.7949984,340.562499 25.4475019,340.370001 25.0725,340.2 C24.6974981,340.029999 24.3500016,339.835001 24.03,339.615 C23.7099984,339.394999 23.4425011,339.127502 23.2275,338.8125 C23.0124989,338.497498 22.905,338.085003 22.905,337.575 C22.905,337.264998 22.9574995,336.975001 23.0625,336.705 C23.1675005,336.434999 23.3149991,336.197501 23.505,335.9925 C23.695001,335.787499 23.9199987,335.620001 24.18,335.49 C24.4400013,335.359999 24.7199985,335.28 25.02,335.25 L25.02,333.765 L25.605,333.765 L25.605,335.25 C26.0950025,335.28 26.4949985,335.394999 26.805,335.595 C27.1150016,335.795001 27.3999987,336.029999 27.66,336.3 L27.27,336.72 C27.1299993,336.579999 26.9925007,336.455001 26.8575,336.345 C26.7224993,336.234999 26.5800008,336.14 26.43,336.06 C26.2799993,335.98 26.1150009,335.92 25.935,335.88 C25.7549991,335.84 25.5500011,335.82 25.32,335.82 C24.7999974,335.82 24.3800016,335.982498 24.06,336.3075 C23.7399984,336.632502 23.58,337.044998 23.58,337.545 C23.58,337.985002 23.6874989,338.337499 23.9025,338.6025 C24.1175011,338.867501 24.3849984,339.097499 24.705,339.2925 C25.0250016,339.487501 25.3724981,339.667499 25.7475,339.8325 C26.1225019,339.997501 26.4699984,340.197499 26.79,340.4325 C27.1100016,340.667501 27.3774989,340.962498 27.5925,341.3175 C27.8075011,341.672502 27.915,342.134997 27.915,342.705 C27.915,343.425004 27.6975022,343.999998 27.2625,344.43 C26.8274978,344.860002 26.2750034,345.105 25.605,345.165 L25.605,346.65 L25.02,346.65 Z M35.4,345.18 C34.4799954,345.18 33.7725025,344.747504 33.2775,343.8825 C32.7824975,343.017496 32.535,341.780008 32.535,340.17 C32.535,338.569992 32.7824975,337.347504 33.2775,336.5025 C33.7725025,335.657496 34.4799954,335.235 35.4,335.235 C36.3200046,335.235 37.0274975,335.657496 37.5225,336.5025 C38.0175025,337.347504 38.265,338.569992 38.265,340.17 C38.265,341.780008 38.0175025,343.017496 37.5225,343.8825 C37.0274975,344.747504 36.3200046,345.18 35.4,345.18 Z M35.4,344.61 C36.0700034,344.61 36.602498,344.237504 36.9975,343.4925 C37.392502,342.747496 37.59,341.640007 37.59,340.17 C37.59,338.699993 37.392502,337.605004 36.9975,336.885 C36.602498,336.164996 36.0700034,335.805 35.4,335.805 C34.7399967,335.805 34.210002,336.164996 33.81,336.885 C33.409998,337.605004 33.21,338.699993 33.21,340.17 C33.21,341.640007 33.409998,342.747496 33.81,343.4925 C34.210002,344.237504 34.7399967,344.61 35.4,344.61 Z" id="$4.0T$3.5T$3.0T$2.5T$2.0T$1.5T$1.0T$0.5T$0" fill="#666666"></path>
            <path d="M302,34 L346,34 C347.656854,34 349,35.3431458 349,37 L349,341 L299,341 L299,37 C299,35.3431458 300.343146,34 302,34 Z" id="Rectangle-2" fill="#00766C"></path>
            <path d="M402,22 L446,22 C447.656854,22 449,23.3431458 449,25 L449,341 L399,341 L399,25 C399,23.3431458 400.343146,22 402,22 Z" id="Rectangle-2" fill="#00766C"></path>
            <path d="M502,14 L546,14 C547.656854,14 549,15.3431458 549,17 L549,341 L499,341 L499,17 C499,15.3431458 500.343146,14 502,14 Z" id="Rectangle-2" fill="#00766C"></path>
            <path d="M202,44 L246,44 C247.656854,44 249,45.3431458 249,47 L249,341 L199,341 L199,47 C199,45.3431458 200.343146,44 202,44 Z" id="Rectangle-2" fill="#00766C"></path>
            <path d="M102,57 L146,57 C147.656854,57 149,58.3431458 149,60 L149,341 L99,341 L99,60 C99,58.3431458 100.343146,57 102,57 Z" id="Rectangle-2" fill="#00766C"></path>
        </g>
    </g>
</svg>