<?xml version="1.0" encoding="UTF-8"?>
<svg width="250px" height="100px" viewBox="0 0 250 100" version="1.1" xmlns="http://www.w3.org/2000/svg" xmlns:xlink="http://www.w3.org/1999/xlink">
    <!-- Generator: Sketch 53.2 (72643) - https://sketchapp.com -->
    <title>spending-1-outline</title>
    <desc>Created with Sketch.</desc>
    <defs>
        <polygon id="path-1" points="0.471030742 0.316133906 16.3653728 0.316133906 16.3653728 17.4850573 0.471030742 17.4850573"></polygon>
    </defs>
    <g id="spending-1-outline" stroke="none" stroke-width="1" fill="none" fill-rule="evenodd">
        <g id="Group-26" transform="translate(2.000000, 12.000000)">
            <path d="M5.16127115,49.9202325 L5.16127115,46.8637493 C4.09098215,46.7814194 3.11332898,46.5087056 2.2282823,46.0455998 C1.34323563,45.582494 0.602277432,45.0627942 0.00538548886,44.4864847 L0.746351093,43.5294041 C1.34324304,44.0645486 2.05332797,44.5585207 2.8766272,45.0113353 C3.69992644,45.4641499 4.64670635,45.6905538 5.71699535,45.6905538 C7.01369164,45.6905538 8.00678145,45.3406569 8.69629455,44.6408525 C9.38580766,43.9410482 9.73055904,43.0251415 9.73055904,41.8931051 C9.73055904,40.8845635 9.50930069,40.0664222 9.06677736,39.4386565 C8.62425402,38.8108908 8.07368092,38.2757544 7.41504153,37.833231 C6.75640214,37.3907077 6.04117166,36.9945009 5.26932863,36.6445987 C4.4974856,36.2946965 3.78225513,35.8933442 3.12361574,35.4405296 C2.46497635,34.987715 1.91440325,34.4371419 1.47187991,33.7887938 C1.02935658,33.1404456 0.808098227,32.291431 0.808098227,31.2417245 C0.808098227,30.6036676 0.91615463,30.0067846 1.13227068,29.4510576 C1.34838673,28.8953307 1.65197376,28.4065041 2.0430409,27.9845632 C2.43410804,27.5626224 2.89720691,27.217871 3.43235141,26.9502987 C3.96749591,26.6827265 4.54379673,26.5180691 5.16127115,26.4563217 L5.16127115,23.3998385 L6.36534026,23.3998385 L6.36534026,26.4563217 C7.37388182,26.5180691 8.1971687,26.7547641 8.8352256,27.1664137 C9.47328251,27.5780633 10.0598744,28.0617444 10.5950189,28.6174713 L9.79230618,29.4819312 C9.50415145,29.1937765 9.22114658,28.9364993 8.94328309,28.710092 C8.6654196,28.4836847 8.37212365,28.2881541 8.06338643,28.1234943 C7.75464922,27.9588344 7.41504338,27.8353414 7.04455873,27.7530115 C6.67407407,27.6706815 6.25213955,27.6295172 5.77874249,27.6295172 C4.70845349,27.6295172 3.84400226,27.9639775 3.18536287,28.6329081 C2.52672349,29.3018387 2.19740873,30.1508533 2.19740873,31.1799774 C2.19740873,32.0856065 2.41866708,32.8111281 2.86119042,33.3565638 C3.30371376,33.9019996 3.85428686,34.3753895 4.51292625,34.7767479 C5.17156563,35.1781063 5.88679611,35.5485854 6.65863914,35.8881963 C7.43048217,36.2278073 8.14571265,36.6394507 8.80435204,37.123139 C9.46299142,37.6068273 10.0135645,38.2140014 10.4560879,38.9446794 C10.8986112,39.6753575 11.1198696,40.627283 11.1198696,41.8004844 C11.1198696,43.282423 10.6722073,44.4658979 9.77686939,45.3509446 C8.88153148,46.2359912 7.74436647,46.7402545 6.36534026,46.8637493 L6.36534026,49.9202325 L5.16127115,49.9202325 Z M15.2569275,46.5241401 L15.2569275,43.6220248 L19.640974,43.6220248 L19.640974,30.7168739 L16.0287667,30.7168739 L16.0287667,28.4939771 C17.9738014,28.1234943 19.3322383,27.6295172 20.567181,26.8885516 L23.2223078,26.8885516 L23.2223078,43.6220248 L27.0815036,43.6220248 L27.0815036,46.5241401 L15.2569275,46.5241401 Z M36.2200794,46.8946229 C33.040102,46.8946229 30.9406995,45.6596802 29.551389,44.1160019 L31.2494351,41.8313579 C32.4226307,43.035427 33.9354354,43.9925076 35.9113437,43.9925076 C38.0416198,43.9925076 39.523551,42.8810592 39.523551,41.0286452 C39.523551,38.9909898 38.2268612,37.6943 33.750194,37.6943 L33.750194,35.1009204 C37.6093899,35.1009204 38.8752061,33.773357 38.8752061,31.9518166 C38.8752061,30.3155175 37.7637577,29.3275634 35.9730909,29.3275634 C34.4294125,29.3275634 33.2253434,30.068529 32.0212743,31.1799774 L30.1997339,28.9879541 C31.8669065,27.5060229 33.750194,26.5180688 36.0965851,26.5180688 C39.8631603,26.5180688 42.4565399,28.3704828 42.4565399,31.704828 C42.4565399,33.8968513 41.1598501,35.3787825 39.029574,36.2123688 L39.029574,36.335863 C41.3450915,36.9533344 43.1048848,38.620507 43.1048848,41.2138866 C43.1048848,44.7952204 39.9866545,46.8946229 36.2200794,46.8946229 Z M52.5521962,46.8946229 C48.4768854,46.8946229 45.8835058,43.251542 45.8835058,36.6137251 C45.8835058,29.9759083 48.4768854,26.5180688 52.5521962,26.5180688 C56.6275071,26.5180688 59.2208867,30.0067818 59.2208867,36.6137251 C59.2208867,43.251542 56.6275071,46.8946229 52.5521962,46.8946229 Z M52.5521962,44.1160019 C54.4663574,44.1160019 55.8247943,42.1709672 55.8247943,36.6137251 C55.8247943,31.0564831 54.4663574,29.2966898 52.5521962,29.2966898 C50.6689087,29.2966898 49.2795982,31.0564831 49.2795982,36.6137251 C49.2795982,42.1709672 50.6689087,44.1160019 52.5521962,44.1160019 Z M62.7095997,52.1431293 L61.9377606,50.1980946 C63.9445424,49.4262554 65.0868644,48.0060713 65.0559908,46.462393 L64.7781287,46.462393 C63.5740596,46.462393 62.4934848,45.6596802 62.4934848,44.2703697 C62.4934848,42.9428063 63.5740596,42.0783465 64.8707494,42.0783465 C66.537922,42.0783465 67.5258762,43.4367834 67.5258762,45.7214274 C67.5258762,48.7470369 65.7660829,51.093428 62.7095997,52.1431293 Z M76.8805669,46.8946229 C72.8052561,46.8946229 70.2118765,43.251542 70.2118765,36.6137251 C70.2118765,29.9759083 72.8052561,26.5180688 76.8805669,26.5180688 C80.9558777,26.5180688 83.5492574,30.0067818 83.5492574,36.6137251 C83.5492574,43.251542 80.9558777,46.8946229 76.8805669,46.8946229 Z M76.8805669,44.1160019 C78.7947281,44.1160019 80.153165,42.1709672 80.153165,36.6137251 C80.153165,31.0564831 78.7947281,29.2966898 76.8805669,29.2966898 C74.9972793,29.2966898 73.6079688,31.0564831 73.6079688,36.6137251 C73.6079688,42.1709672 74.9972793,44.1160019 76.8805669,44.1160019 Z M92.7187067,46.8946229 C88.6433959,46.8946229 86.0500163,43.251542 86.0500163,36.6137251 C86.0500163,29.9759083 88.6433959,26.5180688 92.7187067,26.5180688 C96.7940175,26.5180688 99.3873971,30.0067818 99.3873971,36.6137251 C99.3873971,43.251542 96.7940175,46.8946229 92.7187067,46.8946229 Z M92.7187067,44.1160019 C94.6328678,44.1160019 95.9913048,42.1709672 95.9913048,36.6137251 C95.9913048,31.0564831 94.6328678,29.2966898 92.7187067,29.2966898 C90.8354191,29.2966898 89.4461086,31.0564831 89.4461086,36.6137251 C89.4461086,42.1709672 90.8354191,44.1160019 92.7187067,44.1160019 Z M108.556846,46.8946229 C104.481536,46.8946229 101.888156,43.251542 101.888156,36.6137251 C101.888156,29.9759083 104.481536,26.5180688 108.556846,26.5180688 C112.632157,26.5180688 115.225537,30.0067818 115.225537,36.6137251 C115.225537,43.251542 112.632157,46.8946229 108.556846,46.8946229 Z M108.556846,44.1160019 C110.471008,44.1160019 111.829445,42.1709672 111.829445,36.6137251 C111.829445,31.0564831 110.471008,29.2966898 108.556846,29.2966898 C106.673559,29.2966898 105.284248,31.0564831 105.284248,36.6137251 C105.284248,42.1709672 106.673559,44.1160019 108.556846,44.1160019 Z" id="$130,000" fill="#00766C" fill-rule="nonzero"></path>
            <g id="Group-32-Copy" transform="translate(168.957061, 0.000000)">
                <g id="Group-4" transform="translate(0.000000, 9.539585)" stroke="#00766C" stroke-linejoin="round" stroke-width="3.70482802">
                    <path d="M27.8827026,57.5596682 C12.7056544,57.5596682 0.404379178,44.746917 0.404379178,28.9417931 C0.404379178,13.1366693 12.7056544,0.323918067 27.8827026,0.323918067" id="Stroke-3"></path>
                </g>
                <g id="Group-8" transform="translate(36.936013, 60.671762)">
                    <path d="M8.12791281,0.628696827 C5.87255465,2.30690067 3.3496491,3.62336343 0.638797033,4.49795261" id="Fill-5"></path>
                    <path d="M8.12791281,0.628696827 C5.87255465,2.30690067 3.3496491,3.62336343 0.638797033,4.49795261" id="Stroke-7" stroke="#00766C" stroke-width="3.70482802" stroke-linejoin="round"></path>
                </g>
                <g id="Group-12" transform="translate(48.242955, 49.987427)">
                    <path d="M4.42779875,0.658612966 C3.27449059,3.17477397 1.81463866,5.50663019 0.103521342,7.59808887" id="Fill-9"></path>
                    <path d="M4.42779875,0.658612966 C3.27449059,3.17477397 1.81463866,5.50663019 0.103521342,7.59808887" id="Stroke-11" stroke="#00766C" stroke-width="3.70482802" stroke-linejoin="round"></path>
                </g>
                <g id="Group-16" transform="translate(54.273325, 39.303091)">
                    <path d="M2.04014935,0.0409566194 C1.94969381,1.79115253 1.72807774,3.50573399 1.38434668,5.16434988" id="Fill-13"></path>
                    <path d="M2.04014935,0.0409566194 C1.94969381,1.79115253 1.72807774,3.50573399 1.38434668,5.16434988" id="Stroke-15" stroke="#00766C" stroke-width="3.70482802" stroke-linejoin="round"></path>
                </g>
                <g id="Group-20" transform="translate(55.027121, 37.776758)">
                    <path d="M1.33158095,0.661360367 C1.33158095,1.19481397 1.31575123,1.72368858 1.28635318,2.25027369" id="Fill-17"></path>
                    <path d="M1.33158095,0.661360367 C1.33158095,1.19481397 1.31575123,1.72368858 1.28635318,2.25027369" id="Stroke-19" stroke="#00766C" stroke-width="3.70482802" stroke-linejoin="round"></path>
                </g>
                <g id="Group-24" transform="translate(54.273325, 30.145089)">
                    <path d="M0.87756951,0.204910291 C1.25522139,1.43437204 1.5492019,2.7004658 1.75272687,3.99861256" id="Fill-21"></path>
                    <path d="M0.87756951,0.204910291 C1.25522139,1.43437204 1.5492019,2.7004658 1.75272687,3.99861256" id="Stroke-23" stroke="#00766C" stroke-width="3.70482802" stroke-linejoin="round"></path>
                </g>
                <g id="Group-28" transform="translate(50.504344, 22.513421)">
                    <path d="M0.882619944,0.525898256 C1.40500069,1.35240792 1.88215368,2.2063916 2.31634027,3.09013877" id="Fill-25"></path>
                    <path d="M0.882619944,0.525898256 C1.40500069,1.35240792 1.88215368,2.2063916 2.31634027,3.09013877" id="Stroke-27" stroke="#00766C" stroke-width="3.70482802" stroke-linejoin="round"></path>
                </g>
                <g id="Group-31" transform="translate(22.613885, 0.381583)">
                    <mask id="mask-2" fill="white">
                        <use xlink:href="#path-1"></use>
                    </mask>
                    <g id="Clip-30"></g>
                    <polygon id="Fill-29" fill="#00766C" mask="url(#mask-2)" points="16.3653728 6.78642041 9.62495092 12.1345504 2.8821813 17.4850573 1.6777799 8.89952599 0.471030742 0.313994654 8.41820176 3.55139601"></polygon>
                </g>
            </g>
            <path d="M184.032623,40.2289681 L184.032623,38.487699 L186.663051,38.487699 L186.663051,30.7446084 L184.495727,30.7446084 L184.495727,29.4108703 C185.662748,29.1885806 186.47781,28.8921944 187.218775,28.447615 L188.811851,28.447615 L188.811851,38.487699 L191.127369,38.487699 L191.127369,40.2289681 L184.032623,40.2289681 Z M197.709613,40.3771612 C197.281498,40.3771612 196.873971,40.298949 196.48702,40.1425221 C196.10007,39.9860953 195.762522,39.7885064 195.474367,39.5497497 L195.980694,38.8705312 C196.244149,39.084589 196.513776,39.2574792 196.789581,39.3892071 C197.065386,39.520935 197.38441,39.5867979 197.746662,39.5867979 C198.141845,39.5867979 198.438229,39.4962364 198.63582,39.3151105 C198.833412,39.1339847 198.932207,38.9116973 198.932207,38.6482415 C198.932207,38.4918146 198.891042,38.3559723 198.808712,38.2407104 C198.726382,38.1254485 198.621413,38.0245959 198.493802,37.9381495 C198.366191,37.851703 198.220057,37.775549 198.055397,37.7096851 L197.56142,37.5120942 C197.347363,37.4379973 197.133308,37.3536104 196.91925,37.258931 C196.705192,37.1642516 196.513778,37.0489914 196.345002,36.913147 C196.176225,36.7773027 196.038325,36.6188199 195.931296,36.4376941 C195.824267,36.2565683 195.770753,36.0383973 195.770753,35.7831745 C195.770753,35.5444177 195.818092,35.320072 195.912772,35.1101307 C196.007451,34.9001894 196.143294,34.7190663 196.320303,34.566756 C196.497312,34.4144456 196.713425,34.295069 196.968648,34.2086226 C197.223871,34.1221762 197.512021,34.0789536 197.833108,34.0789536 C198.211825,34.0789536 198.559664,34.1448166 198.876634,34.2765444 C199.193604,34.4082723 199.467347,34.5688133 199.697871,34.7581721 L199.216244,35.4003423 C199.010419,35.2439154 198.796364,35.1163059 198.574073,35.01751 C198.351783,34.9187141 198.108913,34.8693169 197.845457,34.8693169 C197.466739,34.8693169 197.18888,34.955762 197.011871,35.1286549 C196.834861,35.3015477 196.746358,35.503253 196.746358,35.7337768 C196.746358,35.8737377 196.783406,35.9951725 196.857503,36.0980849 C196.9316,36.2009973 197.030394,36.2915588 197.153889,36.3697723 C197.277384,36.4479857 197.419401,36.5179651 197.579944,36.5797125 C197.740488,36.64146 197.907203,36.7052647 198.080096,36.7711286 C198.294154,36.8534586 198.510267,36.9399037 198.728441,37.0304666 C198.946615,37.1210295 199.142146,37.2342315 199.315039,37.3700758 C199.487932,37.5059202 199.629949,37.6726358 199.741094,37.8702276 C199.85224,38.0678194 199.907811,38.3065726 199.907811,38.5864944 C199.907811,38.8334841 199.860472,39.0640045 199.765793,39.2780623 C199.671114,39.4921201 199.531155,39.681476 199.345912,39.8461359 C199.16067,40.0107957 198.93015,40.1404634 198.654345,40.2351428 C198.378539,40.3298222 198.063632,40.3771612 197.709613,40.3771612 Z M203.748483,40.3771612 C203.345066,40.3771612 202.968413,40.3051236 202.618511,40.1610463 C202.268608,40.0169689 201.963992,39.8111472 201.704653,39.5435749 C201.445314,39.2760027 201.24155,38.9487462 201.093356,38.5617955 C200.945163,38.1748449 200.871067,37.7343864 200.871067,37.2404069 C200.871067,36.7464273 200.947221,36.3039106 201.099531,35.9128435 C201.251841,35.5217763 201.453547,35.1904034 201.704653,34.9187146 C201.955759,34.6470259 202.241851,34.4391459 202.562938,34.2950686 C202.884025,34.1509912 203.217456,34.0789536 203.563242,34.0789536 C203.941959,34.0789536 204.281565,34.1448166 204.582069,34.2765444 C204.882574,34.4082723 205.133676,34.5976283 205.335384,34.8446181 C205.537093,35.0916078 205.691459,35.3879911 205.798488,35.7337768 C205.905517,36.0795625 205.95903,36.4665073 205.95903,36.8946229 C205.95903,37.0016518 205.956972,37.1066209 205.952856,37.2095333 C205.948739,37.3124457 205.938448,37.400949 205.921982,37.475046 L201.87137,37.475046 C201.912535,38.1172194 202.112182,38.625599 202.470317,39.0002002 C202.828453,39.3748013 203.295668,39.5620991 203.871977,39.5620991 C204.160132,39.5620991 204.425642,39.5188765 204.668515,39.4324301 C204.911389,39.3459837 205.143967,39.2327817 205.366258,39.0928209 L205.724391,39.7596899 C205.460936,39.9243498 205.168669,40.068425 204.847582,40.1919198 C204.526495,40.3154147 204.160133,40.3771612 203.748483,40.3771612 Z M201.859021,36.7464298 L205.069872,36.7464298 C205.069872,36.1371884 204.940204,35.6740895 204.680865,35.3571193 C204.421526,35.0401491 204.057221,34.8816663 203.587941,34.8816663 C203.373883,34.8816663 203.170119,34.9228307 202.976644,35.0051606 C202.783169,35.0874905 202.60822,35.2089254 202.451793,35.3694687 C202.295366,35.5300121 202.165699,35.7255427 202.062786,35.9560665 C201.959874,36.1865903 201.891953,36.4500421 201.859021,36.7464298 Z M209.812052,40.3771612 C209.416868,40.3771612 209.046389,40.3071819 208.700603,40.167221 C208.354818,40.0272601 208.056376,39.8234966 207.80527,39.5559244 C207.554164,39.2883521 207.356575,38.9590374 207.212497,38.5679702 C207.06842,38.1769031 206.996382,37.7343864 206.996382,37.2404069 C206.996382,36.7381943 207.074595,36.2915612 207.231021,35.9004941 C207.387448,35.5094269 207.597386,35.1780539 207.860842,34.9063652 C208.124298,34.6346765 208.430972,34.4288547 208.780875,34.2888939 C209.130777,34.148933 209.499198,34.0789536 209.886148,34.0789536 C210.281332,34.0789536 210.618879,34.148933 210.898801,34.2888939 C211.178723,34.4288547 211.425709,34.5935121 211.639767,34.7828709 L211.121091,35.44974 C210.948198,35.2933131 210.765017,35.1657037 210.571541,35.0669077 C210.378066,34.9681118 210.161953,34.9187146 209.923196,34.9187146 C209.651508,34.9187146 209.400405,34.9742865 209.169881,35.0854319 C208.939358,35.1965773 208.741769,35.35506 208.577109,35.5608848 C208.412449,35.7667096 208.282781,36.0116375 208.188102,36.2956757 C208.093423,36.5797139 208.046084,36.8946212 208.046084,37.2404069 C208.046084,37.5861925 208.091364,37.8990415 208.181927,38.1789633 C208.27249,38.458885 208.398041,38.6996964 208.558585,38.9014047 C208.719128,39.1031131 208.914659,39.2595376 209.145183,39.370683 C209.375706,39.4818284 209.626809,39.5374002 209.898498,39.5374002 C210.178419,39.5374002 210.435697,39.4777119 210.670337,39.3583335 C210.904977,39.2389551 211.116973,39.0969382 211.306332,38.9322783 L211.750912,39.6114968 C211.479223,39.8502536 211.178723,40.0375513 210.849403,40.1733957 C210.520084,40.3092401 210.174303,40.3771612 209.812052,40.3771612 Z" id="1sec" fill="#666666" fill-rule="nonzero"></path>
            <rect id="Rectangle-Copy-2" fill="#00766C" fill-rule="nonzero" x="143.023264" y="49.3977069" width="104.970127" height="27.1687388"></rect>
            <path d="M160.532282,68.102535 L160.532282,58.4107049 L163.58506,58.4107049 C165.73386,58.4107049 167.334346,59.1516705 167.334346,61.4042059 C167.334346,63.5530062 165.73386,64.5459001 163.644337,64.5459001 L162.251322,64.5459001 L162.251322,68.102535 L160.532282,68.102535 Z M162.251322,63.167704 L163.510963,63.167704 C164.948437,63.167704 165.644944,62.5897509 165.644944,61.4042059 C165.644944,60.1890223 164.889159,59.7889009 163.451686,59.7889009 L162.251322,59.7889009 L162.251322,63.167704 Z M171.794959,68.2803667 C169.779532,68.2803667 168.208685,66.8725321 168.208685,64.4718035 C168.208685,62.1007136 169.853629,60.648421 171.55785,60.648421 C173.528818,60.648421 174.56617,62.0710749 174.56617,64.1013207 C174.56617,64.4273456 174.536532,64.7533704 174.492074,64.9312022 L169.868448,64.9312022 C170.016641,66.2204823 170.846523,66.9614479 172.017249,66.9614479 C172.63966,66.9614479 173.173155,66.7687969 173.70665,66.4279527 L174.284603,67.4949432 C173.588096,67.9543418 172.713756,68.2803667 171.794959,68.2803667 Z M169.853629,63.7752958 L173.084239,63.7752958 C173.084239,62.6490281 172.595202,61.9673398 171.602308,61.9673398 C170.742788,61.9673398 170.001822,62.6045702 169.853629,63.7752958 Z M176.196295,68.102535 L176.196295,60.8262527 L177.604129,60.8262527 L177.722684,62.1155329 L177.781961,62.1155329 C178.300637,61.1670969 179.071241,60.648421 179.841845,60.648421 C180.212328,60.648421 180.449437,60.6928789 180.671727,60.7966141 L180.375341,62.2785453 C180.123412,62.2044488 179.930761,62.1599908 179.619556,62.1599908 C179.041603,62.1599908 178.345095,62.5601122 177.900515,63.6567413 L177.900515,68.102535 L176.196295,68.102535 Z M187.666442,68.2803667 C186.362343,68.2803667 185.087882,67.7616908 184.169084,66.8577127 L185.176798,65.6869871 C185.873305,66.3390368 186.806922,66.7836162 187.696081,66.7836162 C188.79271,66.7836162 189.385482,66.2945789 189.385482,65.538794 C189.385482,64.7385511 188.763071,64.4866228 187.888732,64.11614 L186.554994,63.5381868 C185.606558,63.1380654 184.598845,62.3822805 184.598845,60.9596265 C184.598845,59.4184181 185.962221,58.2328731 187.859093,58.2328731 C188.985361,58.2328731 190.08199,58.7070911 190.837775,59.462876 L189.963436,60.5595051 C189.341024,60.0408292 188.688975,59.7296236 187.859093,59.7296236 C186.940296,59.7296236 186.332704,60.1593837 186.332704,60.8707107 C186.332704,61.6264956 187.07367,61.9080625 187.873913,62.2340874 L189.192831,62.7824019 C190.333918,63.2714392 191.14898,63.9975855 191.14898,65.4054202 C191.14898,66.9762672 189.844881,68.2803667 187.666442,68.2803667 Z M195.876341,68.2803667 C193.860915,68.2803667 192.290068,66.8725321 192.290068,64.4718035 C192.290068,62.1007136 193.935011,60.648421 195.639232,60.648421 C197.610201,60.648421 198.647552,62.0710749 198.647552,64.1013207 C198.647552,64.4273456 198.617914,64.7533704 198.573456,64.9312022 L193.94983,64.9312022 C194.098024,66.2204823 194.927905,66.9614479 196.098631,66.9614479 C196.721042,66.9614479 197.254537,66.7687969 197.788032,66.4279527 L198.365985,67.4949432 C197.669478,67.9543418 196.795138,68.2803667 195.876341,68.2803667 Z M193.935011,63.7752958 L197.165621,63.7752958 C197.165621,62.6490281 196.676584,61.9673398 195.68369,61.9673398 C194.82417,61.9673398 194.083204,62.6045702 193.935011,63.7752958 Z M203.315636,68.2803667 C201.329848,68.2803667 199.803459,66.8873514 199.803459,64.4718035 C199.803459,62.0414363 201.50768,60.648421 203.44901,60.648421 C204.382626,60.648421 205.049495,61.0040845 205.58299,61.4634831 L204.753109,62.5749316 C204.367807,62.2340874 203.997324,62.0414363 203.537925,62.0414363 C202.3672,62.0414363 201.552138,63.0046916 201.552138,64.4718035 C201.552138,65.9240961 202.35238,66.8873514 203.493467,66.8873514 C204.056601,66.8873514 204.575277,66.6057844 204.990218,66.2649403 L205.686726,67.391208 C205.005037,67.9839805 204.145517,68.2803667 203.315636,68.2803667 Z M209.747217,68.2803667 C207.939261,68.2803667 206.294317,66.8873514 206.294317,64.4718035 C206.294317,62.0414363 207.939261,60.648421 209.747217,60.648421 C211.569993,60.648421 213.214936,62.0414363 213.214936,64.4718035 C213.214936,66.8873514 211.569993,68.2803667 209.747217,68.2803667 Z M209.747217,66.8873514 C210.814208,66.8873514 211.466257,65.9240961 211.466257,64.4718035 C211.466257,63.0046916 210.814208,62.0414363 209.747217,62.0414363 C208.680227,62.0414363 208.042996,63.0046916 208.042996,64.4718035 C208.042996,65.9240961 208.680227,66.8873514 209.747217,66.8873514 Z M214.904338,68.102535 L214.904338,60.8262527 L216.312172,60.8262527 L216.430727,61.8043273 L216.490004,61.8043273 C217.142054,61.1670969 217.883019,60.648421 218.875913,60.648421 C220.431941,60.648421 221.11363,61.7005921 221.11363,63.5381868 L221.11363,68.102535 L219.409409,68.102535 L219.409409,63.7604765 C219.409409,62.5601122 219.068564,62.1155329 218.268322,62.1155329 C217.631091,62.1155329 217.21615,62.4267384 216.608559,63.0195109 L216.608559,68.102535 L214.904338,68.102535 Z M225.752074,68.2803667 C223.929299,68.2803667 222.758573,66.8725321 222.758573,64.4718035 C222.758573,62.1007136 224.255324,60.648421 225.84099,60.648421 C226.670872,60.648421 227.189547,60.9596265 227.752681,61.4486638 L227.693404,60.2779382 L227.693404,57.6401006 L229.397625,57.6401006 L229.397625,68.102535 L227.98979,68.102535 L227.871236,67.3171114 L227.811959,67.3171114 C227.278463,67.8506067 226.537498,68.2803667 225.752074,68.2803667 Z M226.167015,66.8725321 C226.730149,66.8725321 227.204367,66.6206038 227.693404,66.0574699 L227.693404,62.6638474 C227.189547,62.2192681 226.70051,62.0562556 226.211473,62.0562556 C225.277856,62.0562556 224.522071,62.930595 224.522071,64.4569842 C224.522071,66.0278313 225.114844,66.8725321 226.167015,66.8725321 Z" id="PerSecond" fill="#FFFFFF" fill-rule="nonzero"></path>
            <polygon id="+" fill="#00766C" fill-rule="nonzero" transform="translate(131.247880, 37.187469) rotate(45.000000) translate(-131.247880, -37.187469) " points="130.28092 42.3223607 130.28092 38.1210858 126.301935 38.1210858 126.301935 36.2538524 130.28092 36.2538524 130.28092 32.0525775 132.21484 32.0525775 132.21484 36.2538524 136.193825 36.2538524 136.193825 38.1210858 132.21484 38.1210858 132.21484 42.3223607"></polygon>
        </g>
    </g>
</svg>