<?xml version="1.0" encoding="UTF-8"?>
<svg width="250px" height="100px" viewBox="0 0 250 100" version="1.1" xmlns="http://www.w3.org/2000/svg" xmlns:xlink="http://www.w3.org/1999/xlink">
    <!-- Generator: Sketch 58 (84663) - https://sketch.com -->
    <title>spending-2-outline</title>
    <desc>Created with Sketch.</desc>
    <g id="spending-2-outline" stroke="none" stroke-width="1" fill="none" fill-rule="evenodd">
        <g id="Group-15" transform="translate(0.000000, 13.000000)">
            <g id="Group-14">
                <path d="M150.05985,53.68501 L150.05985,44.7864969 L152.862745,44.7864969 C153.352574,44.7864969 153.80838,44.8318507 154.230178,44.9225598 C154.651975,45.0132688 155.017073,45.1674719 155.325484,45.3851736 C155.633895,45.6028753 155.87427,45.8863368 156.046617,46.2355667 C156.218964,46.5847965 156.305137,47.0179257 156.305137,47.5349673 C156.305137,48.0247961 156.218964,48.4511223 156.046617,48.8139585 C155.87427,49.1767946 155.636162,49.4783977 155.332287,49.7187767 C155.028412,49.9591557 154.670116,50.1360356 154.25739,50.249422 C153.844664,50.3628083 153.397929,50.4195006 152.917171,50.4195006 L151.638179,50.4195006 L151.638179,53.68501 L150.05985,53.68501 Z M151.638179,49.1541157 L152.794714,49.1541157 C154.100924,49.1541157 154.75402,48.6144049 154.75402,47.5349673 C154.75402,46.9725712 154.583943,46.5847958 154.243784,46.3716296 C153.903625,46.1584633 153.402465,46.0518818 152.740289,46.0518818 L151.638179,46.0518818 L151.638179,49.1541157 Z M160.40063,53.8482854 C159.938013,53.8482854 159.507152,53.7689162 159.108032,53.6101754 C158.708912,53.4514345 158.359688,53.2223976 158.060348,52.9230578 C157.761008,52.6237179 157.527436,52.2586195 157.359624,51.8277515 C157.191812,51.3968835 157.107908,50.9047943 157.107908,50.3514691 C157.107908,49.8072148 157.19408,49.3173933 157.366427,48.8819899 C157.538774,48.4465865 157.767811,48.0792203 158.053545,47.7798805 C158.339278,47.4805406 158.668094,47.249236 159.040001,47.0859597 C159.411908,46.9226834 159.79288,46.8410465 160.182929,46.8410465 C160.636474,46.8410465 161.035588,46.9181481 161.380282,47.0723534 C161.724977,47.2265588 162.012974,47.4442573 162.244282,47.7254553 C162.47559,48.0066534 162.650202,48.3422718 162.768124,48.7323207 C162.886046,49.1223696 162.945006,49.5486958 162.945006,50.0113119 C162.945006,50.1655173 162.938203,50.3106496 162.924596,50.4467131 C162.91099,50.5827767 162.895116,50.6916259 162.876974,50.7732641 L158.631812,50.7732641 C158.704379,51.3719438 158.915275,51.8322853 159.264504,52.1543024 C159.613734,52.4763196 160.06047,52.6373257 160.604724,52.6373257 C160.894993,52.6373257 161.164848,52.5942395 161.414298,52.508066 C161.663748,52.4218924 161.910926,52.3017047 162.155841,52.1474993 L162.686486,53.1271521 C162.369005,53.3357829 162.015245,53.5081275 161.625196,53.6441911 C161.235147,53.7802547 160.826962,53.8482854 160.40063,53.8482854 Z M158.618206,49.7119735 L161.584377,49.7119735 C161.584377,49.194932 161.47326,48.7890151 161.251023,48.4942107 C161.028786,48.1994063 160.686364,48.0520063 160.223748,48.0520063 C159.824628,48.0520063 159.475403,48.1926032 159.176064,48.4738012 C158.876724,48.7549993 158.690773,49.1677192 158.618206,49.7119735 Z M164.441697,53.68501 L164.441697,47.004322 L165.734295,47.004322 L165.843145,48.1880692 L165.89757,48.1880692 C166.133414,47.7526657 166.419143,47.419315 166.754767,47.1880069 C167.09039,46.9566988 167.435079,46.8410465 167.788845,46.8410465 C168.106326,46.8410465 168.360308,46.8864004 168.550797,46.9771094 L168.278671,48.3377383 C168.160749,48.3014547 168.0519,48.2742424 167.95212,48.2561006 C167.85234,48.2379588 167.729885,48.228888 167.58475,48.228888 C167.321694,48.228888 167.045036,48.3309342 166.754767,48.5350295 C166.464498,48.7391249 166.215052,49.0951526 166.006421,49.6031232 L166.006421,53.68501 L164.441697,53.68501 Z M172.374164,53.68501 L172.374164,44.7864969 L173.952494,44.7864969 L173.952494,53.68501 L172.374164,53.68501 Z M176.075075,53.68501 L176.075075,47.004322 L177.367672,47.004322 L177.476522,47.9023371 L177.530948,47.9023371 C177.830287,47.6120681 178.154567,47.362622 178.503797,47.1539912 C178.853027,46.9453604 179.258944,46.8410465 179.72156,46.8410465 C180.438162,46.8410465 180.959731,47.0700834 181.286283,47.5281641 C181.612836,47.9862448 181.77611,48.6416079 181.77611,49.4942729 L181.77611,53.68501 L180.211387,53.68501 L180.211387,49.6983672 C180.211387,49.1450421 180.12975,48.754999 179.966473,48.5282264 C179.803197,48.3014538 179.535609,48.1880692 179.163702,48.1880692 C178.873433,48.1880692 178.617184,48.2583676 178.394947,48.3989666 C178.17271,48.5395657 177.920996,48.7459256 177.639798,49.0180528 L177.639798,53.68501 L176.075075,53.68501 Z M186.034878,53.8482854 C185.191284,53.8482854 184.522315,53.542147 184.027951,52.9298609 C183.533586,52.3175748 183.286408,51.4581195 183.286408,50.3514691 C183.286408,49.8072148 183.365777,49.3173933 183.524518,48.8819899 C183.683259,48.4465865 183.894154,48.0792203 184.15721,47.7798805 C184.420267,47.4805406 184.72187,47.249236 185.062029,47.0859597 C185.402188,46.9226834 185.75368,46.8410465 186.116516,46.8410465 C186.497494,46.8410465 186.819506,46.9068096 187.082563,47.0383377 C187.345619,47.1698658 187.608671,47.3490135 187.871727,47.5757861 L187.817302,46.5008893 L187.817302,44.0789698 L189.382025,44.0789698 L189.382025,53.68501 L188.089428,53.68501 L187.980578,52.9638766 L187.926153,52.9638766 C187.681238,53.2087911 187.395509,53.4174187 187.068956,53.5897659 C186.742404,53.7621131 186.397715,53.8482854 186.034878,53.8482854 Z M186.415854,52.555688 C186.914754,52.555688 187.381899,52.3062418 187.817302,51.8073421 L187.817302,48.6915018 C187.581459,48.482871 187.352422,48.3377387 187.130185,48.2561006 C186.907947,48.1744625 186.683446,48.133644 186.456673,48.133644 C186.02127,48.133644 185.653904,48.3241301 185.354564,48.7051081 C185.055224,49.0860861 184.905556,49.6303323 184.905556,50.3378628 C184.905556,51.0635352 185.034815,51.6145844 185.293336,51.991027 C185.551856,52.3674695 185.926026,52.555688 186.415854,52.555688 Z M191.368544,53.68501 L191.368544,47.004322 L192.933267,47.004322 L192.933267,53.68501 L191.368544,53.68501 Z M192.157708,45.8341811 C191.87651,45.8341811 191.645206,45.7525442 191.463788,45.5892679 C191.28237,45.4259916 191.191662,45.2128286 191.191662,44.9497723 C191.191662,44.6867161 191.28237,44.4712853 191.463788,44.3034736 C191.645206,44.1356619 191.87651,44.0517573 192.157708,44.0517573 C192.438906,44.0517573 192.670211,44.1356619 192.851629,44.3034736 C193.033047,44.4712853 193.123755,44.6867161 193.123755,44.9497723 C193.123755,45.2128286 193.033047,45.4259916 192.851629,45.5892679 C192.670211,45.7525442 192.438906,45.8341811 192.157708,45.8341811 Z M196.430083,53.68501 L194.103408,47.004322 L195.695344,47.004322 L196.756634,50.4739257 L197.035563,51.4671848 C197.130808,51.8028083 197.223783,52.1429621 197.314492,52.4876565 L197.368917,52.4876565 C197.468697,52.1429621 197.56394,51.8028083 197.654649,51.4671848 C197.745358,51.1315614 197.840601,50.8004783 197.940381,50.4739257 L199.001672,47.004322 L200.51197,47.004322 L198.23972,53.68501 L196.430083,53.68501 Z M201.668505,53.68501 L201.668505,47.004322 L203.233228,47.004322 L203.233228,53.68501 L201.668505,53.68501 Z M202.457669,45.8341811 C202.176471,45.8341811 201.945167,45.7525442 201.763749,45.5892679 C201.58233,45.4259916 201.491623,45.2128286 201.491623,44.9497723 C201.491623,44.6867161 201.58233,44.4712853 201.763749,44.3034736 C201.945167,44.1356619 202.176471,44.0517573 202.457669,44.0517573 C202.738867,44.0517573 202.970172,44.1356619 203.15159,44.3034736 C203.333008,44.4712853 203.423716,44.6867161 203.423716,44.9497723 C203.423716,45.2128286 203.333008,45.4259916 203.15159,45.5892679 C202.970172,45.7525442 202.738867,45.8341811 202.457669,45.8341811 Z M207.573634,53.8482854 C206.73004,53.8482854 206.061071,53.542147 205.566706,52.9298609 C205.072342,52.3175748 204.825164,51.4581195 204.825164,50.3514691 C204.825164,49.8072148 204.904533,49.3173933 205.063274,48.8819899 C205.222015,48.4465865 205.43291,48.0792203 205.695966,47.7798805 C205.959022,47.4805406 206.260625,47.249236 206.600784,47.0859597 C206.940943,46.9226834 207.292436,46.8410465 207.655272,46.8410465 C208.03625,46.8410465 208.358262,46.9068096 208.621318,47.0383377 C208.884375,47.1698658 209.147427,47.3490135 209.410483,47.5757861 L209.356058,46.5008893 L209.356058,44.0789698 L210.920781,44.0789698 L210.920781,53.68501 L209.628184,53.68501 L209.519333,52.9638766 L209.464908,52.9638766 C209.219994,53.2087911 208.934265,53.4174187 208.607712,53.5897659 C208.281159,53.7621131 207.93647,53.8482854 207.573634,53.8482854 Z M207.95461,52.555688 C208.45351,52.555688 208.920654,52.3062418 209.356058,51.8073421 L209.356058,48.6915018 C209.120214,48.482871 208.891177,48.3377387 208.66894,48.2561006 C208.446703,48.1744625 208.222202,48.133644 207.995429,48.133644 C207.560026,48.133644 207.192659,48.3241301 206.89332,48.7051081 C206.59398,49.0860861 206.444312,49.6303323 206.444312,50.3378628 C206.444312,51.0635352 206.57357,51.6145844 206.832091,51.991027 C207.090612,52.3674695 207.464781,52.555688 207.95461,52.555688 Z M214.893818,53.8482854 C214.177216,53.8482854 213.655647,53.6192485 213.329094,53.1611678 C213.002542,52.7030871 212.839268,52.0477241 212.839268,51.195059 L212.839268,47.004322 L214.403991,47.004322 L214.403991,50.9909647 C214.403991,51.5442899 214.485628,51.934333 214.648904,52.1611056 C214.812181,52.3878782 215.075233,52.5012628 215.438069,52.5012628 C215.728338,52.5012628 215.984587,52.4286967 216.206824,52.2835622 C216.429062,52.1384277 216.667169,51.9025877 216.921155,51.5760351 L216.921155,47.004322 L218.485878,47.004322 L218.485878,53.68501 L217.206887,53.68501 L217.08443,52.7053571 L217.043611,52.7053571 C216.753342,53.0500515 216.438133,53.32671 216.097974,53.5353408 C215.757815,53.7439716 215.356434,53.8482854 214.893818,53.8482854 Z M222.091545,53.8482854 C221.501936,53.8482854 221.02572,53.6691377 220.662884,53.310837 C220.300048,52.9525363 220.118633,52.4785886 220.118633,51.8889798 C220.118633,51.5352145 220.193466,51.2200053 220.343136,50.9433427 C220.492806,50.6666801 220.728646,50.4285724 221.050663,50.2290125 C221.372681,50.0294526 221.780865,49.8616434 222.275229,49.7255798 C222.769594,49.5895163 223.361461,49.4852024 224.05085,49.4126352 C224.041779,49.240288 224.016835,49.0747465 223.976016,48.9160056 C223.935197,48.7572648 223.867166,48.6166679 223.771921,48.4942107 C223.676677,48.3717534 223.551954,48.2765104 223.397748,48.2084786 C223.243543,48.1404468 223.053057,48.1064314 222.826284,48.1064314 C222.499732,48.1064314 222.179987,48.1699268 221.867041,48.2969195 C221.554095,48.4239121 221.247956,48.5781152 220.948616,48.7595333 L220.377152,47.711849 C220.749059,47.4760055 221.166315,47.2719132 221.628931,47.099566 C222.091547,46.9272188 222.590439,46.8410465 223.125623,46.8410465 C223.960146,46.8410465 224.583761,47.088225 224.996487,47.5825893 C225.409213,48.0769536 225.615573,48.7912766 225.615573,49.7255798 L225.615573,53.68501 L224.322976,53.68501 L224.214126,52.9502703 L224.1597,52.9502703 C223.860361,53.2042557 223.540616,53.4174187 223.200457,53.5897659 C222.860298,53.7621131 222.490664,53.8482854 222.091545,53.8482854 Z M222.594977,52.6237194 C222.867104,52.6237194 223.114283,52.560224 223.33652,52.4332314 C223.558757,52.3062387 223.796865,52.1248233 224.05085,51.8889798 L224.05085,50.392288 C223.597305,50.4467134 223.216333,50.5192796 222.907922,50.6099886 C222.599511,50.7006977 222.350065,50.8027438 222.159576,50.9161301 C221.969087,51.0295164 221.833025,51.1587749 221.751387,51.3039094 C221.669749,51.4490438 221.628931,51.6032469 221.628931,51.7665232 C221.628931,52.0658631 221.719638,52.2835615 221.901056,52.4196251 C222.082475,52.5556886 222.313779,52.6237194 222.594977,52.6237194 Z M229.017146,53.8482854 C228.45475,53.8482854 228.060171,53.6804762 227.833399,53.3448527 C227.606626,53.0092293 227.493241,52.5511554 227.493241,51.9706175 L227.493241,44.0789698 L229.057965,44.0789698 L229.057965,52.0522553 C229.057965,52.2427443 229.094248,52.3765381 229.166815,52.4536408 C229.239382,52.5307435 229.316484,52.5692943 229.398122,52.5692943 L229.500169,52.5692943 C229.531917,52.5692943 229.579539,52.5602235 229.643035,52.5420817 L229.847129,53.7122225 C229.638499,53.8029316 229.36184,53.8482854 229.017146,53.8482854 Z" id="PerIndividual" fill="#555555" fill-rule="nonzero"></path>
                <path d="M155.018775,39.0551099 L155.018775,36.2204663 C154.14948,36.1259778 153.275474,35.8944842 152.39673,35.5259787 C151.517986,35.1574732 150.757364,34.6708642 150.114842,34.0661372 L151.588857,31.8551153 C152.250277,32.3842514 152.921136,32.8094436 153.601454,33.1307049 C154.281771,33.4519661 155.009323,33.6125943 155.784129,33.6125943 C156.710117,33.6125943 157.399874,33.3999981 157.853419,32.9747995 C158.306964,32.5496008 158.533733,31.9496072 158.533733,31.1748008 C158.533733,30.5511761 158.344759,30.0314966 157.966805,29.6157468 C157.58885,29.199997 157.11169,28.8220483 156.53531,28.4818894 C156.103024,28.2267702 155.646827,27.9796262 155.166709,27.7404534 L154.678618,27.5039374 C154.017198,27.192125 153.398307,26.823625 152.821927,26.3984264 C152.245546,25.9732277 151.768386,25.462997 151.390432,24.8677189 C151.012477,24.2724407 150.823503,23.5307164 150.823503,22.6425237 C150.823503,21.3196834 151.201452,20.2189078 151.95736,19.3401639 C152.713269,18.46142 153.733731,17.90867 155.018775,17.6818974 L155.018775,14.790561 L157.28649,14.790561 L157.28649,17.6252045 C158.193581,17.7385908 158.9731,17.9984306 159.625071,18.4047315 C160.277042,18.8110325 160.867587,19.2881927 161.396723,19.8362265 L159.724284,21.7354377 C159.195148,21.244097 158.684917,20.8708727 158.193576,20.6157535 C157.702235,20.3606343 157.116415,20.2330766 156.436097,20.2330766 C155.661291,20.2330766 155.056573,20.4267753 154.621925,20.8141786 C154.187278,21.2015818 153.969957,21.7637805 153.969957,22.5007915 C153.969957,23.067723 154.158932,23.5354345 154.536886,23.90394 C154.91484,24.2724455 155.392001,24.6125994 155.968381,24.9244117 C156.544761,25.2362241 157.163652,25.5480318 157.825072,25.8598441 C158.486493,26.1716565 159.105384,26.5448808 159.681764,26.9795283 C160.258144,27.4141758 160.735305,27.9480284 161.113259,28.5811019 C161.491213,29.2141755 161.680188,30.0031434 161.680188,30.9480293 C161.680188,32.308665 161.302239,33.4472355 160.54633,34.3637748 C159.790422,35.2803141 158.703819,35.870859 157.28649,36.135427 L157.28649,39.0551099 L155.018775,39.0551099 Z M165.47861,35.937002 L165.47861,33.272437 L169.503804,33.272437 L169.503804,21.4236269 L166.187271,21.4236269 L166.187271,19.3826836 C167.094361,19.2126041 167.873881,19.0094567 168.525852,18.7732352 C169.177823,18.5370137 169.787266,18.2488278 170.354197,17.9086689 L172.791991,17.9086689 L172.791991,33.272437 L176.335295,33.272437 L176.335295,35.937002 L165.47861,35.937002 Z M184.72584,36.2771592 C183.251818,36.2771592 182.023485,36.0314926 181.040803,35.5401519 C180.058122,35.0488112 179.245532,34.4440933 178.60301,33.72598 L180.162064,31.6283438 C180.710098,32.1763776 181.333713,32.6440891 182.032929,33.0314923 C182.732144,33.4188956 183.535285,33.6125943 184.442376,33.6125943 C185.425057,33.6125943 186.223474,33.371652 186.837649,32.8897602 C187.451825,32.4078683 187.758909,31.7417338 187.758909,30.8913364 C187.758909,30.4188935 187.67387,29.9937012 187.503791,29.6157468 C187.333711,29.2377925 187.045525,28.9165361 186.639224,28.651968 C186.232923,28.3874 185.689622,28.1842525 185.009304,28.0425197 C184.328986,27.9007868 183.478602,27.8299214 182.458125,27.8299214 L182.458125,25.4488208 C183.346318,25.4488208 184.088042,25.3779554 184.68332,25.2362225 C185.278598,25.0944896 185.760483,24.8960666 186.128989,24.6409474 C186.497494,24.3858282 186.762058,24.0787449 186.922689,23.7196882 C187.083319,23.3606316 187.163633,22.9732342 187.163633,22.5574843 C187.163633,21.8015756 186.927415,21.2110308 186.454973,20.7858321 C185.98253,20.3606335 185.330568,20.1480373 184.499068,20.1480373 C183.780955,20.1480373 183.133718,20.3039412 182.557338,20.6157535 C181.980957,20.9275659 181.418759,21.3385851 180.870725,21.8488235 L179.198285,19.8362265 C179.973091,19.1559087 180.799854,18.6078831 181.678598,18.1921333 C182.557342,17.7763835 183.535284,17.5685117 184.612454,17.5685117 C185.481749,17.5685117 186.275442,17.6724476 186.993555,17.8803225 C187.711668,18.0881974 188.325835,18.3952807 188.836073,18.8015816 C189.346312,19.2078826 189.743158,19.7086646 190.026623,20.3039427 C190.310089,20.8992208 190.45182,21.5748041 190.45182,22.3307129 C190.45182,23.3511896 190.173083,24.2015742 189.6156,24.8818921 C189.058117,25.5622099 188.288047,26.0913381 187.305366,26.4692925 L187.305366,26.5826782 C188.382536,26.866144 189.275439,27.3858234 189.984104,28.1417322 C190.692768,28.8976409 191.047095,29.8708588 191.047095,31.0614151 C191.047095,31.8929147 190.881743,32.6299146 190.551032,33.272437 C190.220322,33.9149595 189.766784,34.4582607 189.190404,34.9023571 C188.614023,35.3464535 187.943164,35.6866073 187.177807,35.9228288 C186.412449,36.1590503 185.595135,36.2771592 184.72584,36.2771592 Z M194.50536,41.0960533 L193.796699,39.3102278 C194.722688,38.9511712 195.436066,38.4692866 195.936855,37.8645596 C196.437645,37.2598326 196.678587,36.5984224 196.659689,35.8803091 L196.404571,35.8803091 C195.856538,35.8803091 195.369929,35.7055078 194.94473,35.3559001 C194.519531,35.0062923 194.306935,34.5102346 194.306935,33.8677122 C194.306935,33.2629852 194.519531,32.7763763 194.94473,32.4078707 C195.369929,32.0393652 195.884884,31.8551153 196.489611,31.8551153 C197.264417,31.8551153 197.864411,32.1480255 198.289609,32.7338548 C198.714808,33.319684 198.927404,34.1417224 198.927404,35.1999947 C198.927404,36.5984258 198.544731,37.8078616 197.779374,38.8283384 C197.014016,39.8488152 195.922689,40.6047126 194.50536,41.0960533 Z M212.56204,17.9086689 L212.56204,20.6582732 L205.758895,20.6582732 L205.390392,25.0236243 C205.768346,24.8346471 206.14157,24.688192 206.510076,24.5842545 C206.878581,24.480317 207.299049,24.4283491 207.771492,24.4283491 C208.546299,24.4283491 209.278574,24.5417337 209.968341,24.7685063 C210.658108,24.995279 211.258101,25.3401571 211.76834,25.8031512 C212.278578,26.2661453 212.684873,26.8519658 212.987236,27.5606302 C213.2896,28.2692947 213.440779,29.1055062 213.440779,30.0692898 C213.440779,31.0519712 213.265978,31.9307019 212.91637,32.7055083 C212.566762,33.4803148 212.099051,34.1322763 211.513222,34.6614124 C210.927392,35.1905485 210.251809,35.592119 209.486452,35.8661359 C208.721094,36.1401528 207.922677,36.2771592 207.091178,36.2771592 C205.636053,36.2771592 204.412444,36.0267682 203.420314,35.5259787 C202.428184,35.0251891 201.601421,34.444093 200.940001,33.7826729 L202.442362,31.6850366 C202.990396,32.195275 203.604563,32.6440891 204.284881,33.0314923 C204.965198,33.4188956 205.758891,33.6125943 206.665981,33.6125943 C207.686458,33.6125943 208.522669,33.3102353 209.174641,32.7055083 C209.826612,32.1007813 210.152593,31.2503968 210.152593,30.1543291 C210.152593,29.0771592 209.850234,28.245672 209.245507,27.6598428 C208.64078,27.0740135 207.837639,26.7811033 206.83606,26.7811033 C206.250231,26.7811033 205.758897,26.8614174 205.362045,27.022048 C204.965193,27.1826786 204.492757,27.4425183 203.944723,27.801575 L202.385669,26.8094497 L202.924252,17.9086689 L212.56204,17.9086689 Z M222.058096,17.5685117 C223.947868,17.5685117 225.440765,18.3527552 226.536833,19.9212658 C227.6329,21.4897764 228.180926,23.7952635 228.180926,26.8377961 C228.180926,29.8992265 227.6329,32.2377841 226.536833,33.853539 C225.440765,35.4692939 223.947868,36.2771592 222.058096,36.2771592 C220.168324,36.2771592 218.675427,35.4692939 217.579359,33.853539 C216.483291,32.2377841 215.935266,29.8992265 215.935266,26.8377961 C215.935266,23.7763658 216.483291,21.4661544 217.579359,19.9070926 C218.675427,18.3480309 220.168324,17.5685117 222.058096,17.5685117 Z M236.599817,17.5685117 C238.489589,17.5685117 239.982486,18.3527552 241.078554,19.9212658 C242.174622,21.4897764 242.722647,23.7952635 242.722647,26.8377961 C242.722647,29.8992265 242.174622,32.2377841 241.078554,33.853539 C239.982486,35.4692939 238.489589,36.2771592 236.599817,36.2771592 C234.710045,36.2771592 233.217148,35.4692939 232.12108,33.853539 C231.025013,32.2377841 230.476987,29.8992265 230.476987,26.8377961 C230.476987,23.7763658 231.025013,21.4661544 232.12108,19.9070926 C233.217148,18.3480309 234.710045,17.5685117 236.599817,17.5685117 Z M222.058096,20.1196909 C221.623448,20.1196909 221.221878,20.2283511 220.853372,20.4456749 C220.484867,20.6629986 220.168335,21.036223 219.903767,21.5653591 C219.639199,22.0944952 219.431327,22.7889759 219.280145,23.6488221 C219.128963,24.5086683 219.053374,25.571649 219.053374,26.8377961 C219.053374,28.122841 219.128963,29.1999948 219.280145,30.0692898 C219.431327,30.9385848 219.639199,31.6472387 219.903767,32.1952725 C220.168335,32.7433063 220.484867,33.1354281 220.853372,33.3716496 C221.221878,33.607871 221.623448,33.72598 222.058096,33.72598 C222.492743,33.72598 222.894314,33.607871 223.262819,33.3716496 C223.631325,33.1354281 223.947857,32.7433063 224.212425,32.1952725 C224.476993,31.6472387 224.684865,30.9385848 224.836046,30.0692898 C224.987228,29.1999948 225.062818,28.122841 225.062818,26.8377961 C225.062818,25.571649 224.987228,24.5086683 224.836046,23.6488221 C224.684865,22.7889759 224.476993,22.0944952 224.212425,21.5653591 C223.947857,21.036223 223.631325,20.6629986 223.262819,20.4456749 C222.894314,20.2283511 222.492743,20.1196909 222.058096,20.1196909 Z M236.599817,20.1196909 C236.16517,20.1196909 235.763599,20.2283511 235.395094,20.4456749 C235.026588,20.6629986 234.710056,21.036223 234.445488,21.5653591 C234.18092,22.0944952 233.973048,22.7889759 233.821867,23.6488221 C233.670685,24.5086683 233.595095,25.571649 233.595095,26.8377961 C233.595095,28.122841 233.670685,29.1999948 233.821867,30.0692898 C233.973048,30.9385848 234.18092,31.6472387 234.445488,32.1952725 C234.710056,32.7433063 235.026588,33.1354281 235.395094,33.3716496 C235.763599,33.607871 236.16517,33.72598 236.599817,33.72598 C237.034465,33.72598 237.436035,33.607871 237.804541,33.3716496 C238.173046,33.1354281 238.489578,32.7433063 238.754146,32.1952725 C239.018714,31.6472387 239.226586,30.9385848 239.377768,30.0692898 C239.52895,29.1999948 239.604539,28.122841 239.604539,26.8377961 C239.604539,25.571649 239.52895,24.5086683 239.377768,23.6488221 C239.226586,22.7889759 239.018714,22.0944952 238.754146,21.5653591 C238.489578,21.036223 238.173046,20.6629986 237.804541,20.4456749 C237.436035,20.2283511 237.034465,20.1196909 236.599817,20.1196909 Z" id="$13,500" fill="#00766C" fill-rule="nonzero"></path>
                <g id="Group-29-Copy" transform="translate(11.338574, 0.000000)">
                    <path d="M11.5600166,0.566815328 C15.6078876,0.566815328 18.8881372,3.84819872 18.8881372,7.89493588 C18.8881372,11.9428069 15.6078876,15.2241903 11.5600166,15.2241903 C7.51214561,15.2241903 4.23189608,11.9428069 4.23189608,7.89493588 C4.23189608,3.84819872 7.51214561,0.566815328 11.5600166,0.566815328 M17.0569574,17.0565039 L15.7552891,17.0565039 C13.155354,18.2527235 10.0769311,18.3037471 7.36474415,17.0565039 L6.06307582,17.0565039 C3.02773949,17.0565039 0.567268871,19.5169745 0.567268871,22.5534447 L0.567268871,38.1258426 C0.567268871,39.6440777 1.79750418,40.874313 3.31573928,40.874313 L5.14691902,40.874313 L5.14691902,56.4489786 C5.14691902,57.9660799 6.37828819,59.1963152 7.89538942,59.1963152 L15.2246438,59.1963152 C16.7417451,59.1963152 17.9731142,57.9660799 17.9731142,56.4489786 L17.9731142,40.874313 L19.804294,40.874313 C21.3225291,40.874313 22.5527644,39.6440777 22.5527644,38.1258426 L22.5527644,22.5534447 C22.5527644,19.5169745 20.0922938,17.0565039 17.0569574,17.0565039" id="Fill-1" fill="#00766C"></path>
                    <path d="M11.5600166,0.566815328 C15.6078876,0.566815328 18.8881372,3.84819872 18.8881372,7.89493588 C18.8881372,11.9428069 15.6078876,15.2241903 11.5600166,15.2241903 C7.51214561,15.2241903 4.23189608,11.9428069 4.23189608,7.89493588 C4.23189608,3.84819872 7.51214561,0.566815328 11.5600166,0.566815328 Z M17.0569574,17.0565039 L15.7552891,17.0565039 C13.155354,18.2527235 10.0769311,18.3037471 7.36474415,17.0565039 L6.06307582,17.0565039 C3.02773949,17.0565039 0.567268871,19.5169745 0.567268871,22.5534447 L0.567268871,38.1258426 C0.567268871,39.6440777 1.79750418,40.874313 3.31573928,40.874313 L5.14691902,40.874313 L5.14691902,56.4489786 C5.14691902,57.9660799 6.37828819,59.1963152 7.89538942,59.1963152 L15.2246438,59.1963152 C16.7417451,59.1963152 17.9731142,57.9660799 17.9731142,56.4489786 L17.9731142,40.874313 L19.804294,40.874313 C21.3225291,40.874313 22.5527644,39.6440777 22.5527644,38.1258426 L22.5527644,22.5534447 C22.5527644,19.5169745 20.0922938,17.0565039 17.0569574,17.0565039 Z" id="Stroke-3" stroke="#FFFFFF" stroke-width="1.13385743"></path>
                    <path d="M77.5186575,0.566815328 C81.5653947,0.566815328 84.8467781,3.84819872 84.8467781,7.89493588 C84.8467781,11.9428069 81.5653947,15.2241903 77.5186575,15.2241903 C73.4707865,15.2241903 70.1894031,11.9428069 70.1894031,7.89493588 C70.1894031,3.84819872 73.4707865,0.566815328 77.5186575,0.566815328 M83.0155983,17.0565039 L81.71393,17.0565039 C79.1139949,18.2527235 76.035572,18.3037471 73.3222512,17.0565039 L72.0217167,17.0565039 C68.9863804,17.0565039 66.5259098,19.5169745 66.5259098,22.5534447 L66.5259098,38.1258426 C66.5259098,39.6440777 67.7561451,40.874313 69.2743802,40.874313 L71.1055599,40.874313 L71.1055599,56.4489786 C71.1055599,57.9660799 72.3369291,59.1963152 73.8540303,59.1963152 L81.1821509,59.1963152 C82.700386,59.1963152 83.9306213,57.9660799 83.9306213,56.4489786 L83.9306213,40.874313 L85.7629349,40.874313 C87.28117,40.874313 88.5114053,39.6440777 88.5114053,38.1258426 L88.5114053,22.5534447 C88.5114053,19.5169745 86.0509347,17.0565039 83.0155983,17.0565039" id="Fill-5" fill="#00766C"></path>
                    <path d="M77.5186575,0.566815328 C81.5653947,0.566815328 84.8467781,3.84819872 84.8467781,7.89493588 C84.8467781,11.9428069 81.5653947,15.2241903 77.5186575,15.2241903 C73.4707865,15.2241903 70.1894031,11.9428069 70.1894031,7.89493588 C70.1894031,3.84819872 73.4707865,0.566815328 77.5186575,0.566815328 Z M83.0155983,17.0565039 L81.71393,17.0565039 C79.1139949,18.2527235 76.035572,18.3037471 73.3222512,17.0565039 L72.0217167,17.0565039 C68.9863804,17.0565039 66.5259098,19.5169745 66.5259098,22.5534447 L66.5259098,38.1258426 C66.5259098,39.6440777 67.7561451,40.874313 69.2743802,40.874313 L71.1055599,40.874313 L71.1055599,56.4489786 C71.1055599,57.9660799 72.3369291,59.1963152 73.8540303,59.1963152 L81.1821509,59.1963152 C82.700386,59.1963152 83.9306213,57.9660799 83.9306213,56.4489786 L83.9306213,40.874313 L85.7629349,40.874313 C87.28117,40.874313 88.5114053,39.6440777 88.5114053,38.1258426 L88.5114053,22.5534447 C88.5114053,19.5169745 86.0509347,17.0565039 83.0155983,17.0565039 Z" id="Stroke-7" stroke="#FFFFFF" stroke-width="1.13385743"></path>
                    <path d="M20.7515185,1.63037359 C25.1304759,1.63037359 28.6805835,5.1804812 28.6805835,9.55943858 C28.6805835,13.938396 25.1304759,17.4885036 20.7515185,17.4885036 C16.3725611,17.4885036 12.8224535,13.938396 12.8224535,9.55943858 C12.8224535,5.1804812 16.3725611,1.63037359 20.7515185,1.63037359 M26.6986007,19.4704864 L25.2914836,19.4704864 C22.4772495,20.7642177 19.1471102,20.8197767 16.2126872,19.4704864 L14.8044363,19.4704864 C11.5207852,19.4704864 8.85848792,22.1339175 8.85848792,25.4175686 L8.85848792,42.2666899 C8.85848792,43.9096493 10.1896365,45.2396641 11.8314621,45.2396641 L13.8134449,45.2396641 L13.8134449,62.0899193 C13.8134449,63.7328788 15.1445935,65.0628935 16.7875529,65.0628935 L24.7166179,65.0628935 C26.3584435,65.0628935 27.6895921,63.7328788 27.6895921,62.0899193 L27.6895921,45.2396641 L29.6715749,45.2396641 C31.3145343,45.2396641 32.6456829,43.9096493 32.6456829,42.2666899 L32.6456829,25.4175686 C32.6456829,22.1339175 29.9833857,19.4704864 26.6986007,19.4704864" id="Fill-9" fill="#00766C"></path>
                    <path d="M20.7515185,1.63037359 C25.1304759,1.63037359 28.6805835,5.1804812 28.6805835,9.55943858 C28.6805835,13.938396 25.1304759,17.4885036 20.7515185,17.4885036 C16.3725611,17.4885036 12.8224535,13.938396 12.8224535,9.55943858 C12.8224535,5.1804812 16.3725611,1.63037359 20.7515185,1.63037359 Z M26.6986007,19.4704864 L25.2914836,19.4704864 C22.4772495,20.7642177 19.1471102,20.8197767 16.2126872,19.4704864 L14.8044363,19.4704864 C11.5207852,19.4704864 8.85848792,22.1339175 8.85848792,25.4175686 L8.85848792,42.2666899 C8.85848792,43.9096493 10.1896365,45.2396641 11.8314621,45.2396641 L13.8134449,45.2396641 L13.8134449,62.0899193 C13.8134449,63.7328788 15.1445935,65.0628935 16.7875529,65.0628935 L24.7166179,65.0628935 C26.3584435,65.0628935 27.6895921,63.7328788 27.6895921,62.0899193 L27.6895921,45.2396641 L29.6715749,45.2396641 C31.3145343,45.2396641 32.6456829,43.9096493 32.6456829,42.2666899 L32.6456829,25.4175686 C32.6456829,22.1339175 29.9833857,19.4704864 26.6986007,19.4704864 Z" id="Stroke-11" stroke="#FFFFFF" stroke-width="1.13385743"></path>
                    <path d="M68.3264753,1.63037359 C72.7054327,1.63037359 76.2555403,5.1804812 76.2555403,9.55943858 C76.2555403,13.938396 72.7054327,17.4885036 68.3264753,17.4885036 C63.947518,17.4885036 60.3974104,13.938396 60.3974104,9.55943858 C60.3974104,5.1804812 63.947518,1.63037359 68.3264753,1.63037359 M74.2735576,19.4704864 L72.8664405,19.4704864 C70.0522064,20.7642177 66.7220671,20.8197767 63.7876441,19.4704864 L62.3793931,19.4704864 C59.095742,19.4704864 56.4334448,22.1339175 56.4334448,25.4175686 L56.4334448,42.2666899 C56.4334448,43.9096493 57.7645934,45.2396641 59.406419,45.2396641 L61.3884018,45.2396641 L61.3884018,62.0899193 C61.3884018,63.7328788 62.7195504,65.0628935 64.3613759,65.0628935 L72.2915748,65.0628935 C73.9334003,65.0628935 75.2645489,63.7328788 75.2645489,62.0899193 L75.2645489,45.2396641 L77.2465317,45.2396641 C78.8883573,45.2396641 80.2206398,43.9096493 80.2206398,42.2666899 L80.2206398,25.4175686 C80.2206398,22.1339175 77.5583425,19.4704864 74.2735576,19.4704864" id="Fill-13" fill="#00766C"></path>
                    <path d="M68.3264753,1.63037359 C72.7054327,1.63037359 76.2555403,5.1804812 76.2555403,9.55943858 C76.2555403,13.938396 72.7054327,17.4885036 68.3264753,17.4885036 C63.947518,17.4885036 60.3974104,13.938396 60.3974104,9.55943858 C60.3974104,5.1804812 63.947518,1.63037359 68.3264753,1.63037359 Z M74.2735576,19.4704864 L72.8664405,19.4704864 C70.0522064,20.7642177 66.7220671,20.8197767 63.7876441,19.4704864 L62.3793931,19.4704864 C59.095742,19.4704864 56.4334448,22.1339175 56.4334448,25.4175686 L56.4334448,42.2666899 C56.4334448,43.9096493 57.7645934,45.2396641 59.406419,45.2396641 L61.3884018,45.2396641 L61.3884018,62.0899193 C61.3884018,63.7328788 62.7195504,65.0628935 64.3613759,65.0628935 L72.2915748,65.0628935 C73.9334003,65.0628935 75.2645489,63.7328788 75.2645489,62.0899193 L75.2645489,45.2396641 L77.2465317,45.2396641 C78.8883573,45.2396641 80.2206398,43.9096493 80.2206398,42.2666899 L80.2206398,25.4175686 C80.2206398,22.1339175 77.5583425,19.4704864 74.2735576,19.4704864 Z" id="Stroke-15" stroke="#FFFFFF" stroke-width="1.13385743"></path>
                    <path d="M31.8553843,3.96838761 C36.525743,3.96838761 40.311693,7.75433756 40.311693,12.4246963 C40.311693,17.0939212 36.525743,20.881005 31.8553843,20.881005 C27.1850255,20.881005 23.3990756,17.0939212 23.3990756,12.4246963 C23.3990756,7.75433756 27.1850255,3.96838761 31.8553843,3.96838761 M38.1970489,22.9945152 L36.6969555,22.9945152 C33.6956349,24.3744197 30.1443934,24.4333803 27.0138131,22.9945152 L25.5137197,22.9945152 C22.0112341,22.9945152 19.1709212,25.8336942 19.1709212,29.3361798 L19.1709212,47.3044185 C19.1709212,49.0562282 20.5905107,50.4758177 22.3423205,50.4758177 L24.4569646,50.4758177 L24.4569646,68.4440564 C24.4569646,70.1958661 25.8765541,71.6154556 27.6272299,71.6154556 L36.0835386,71.6154556 C37.8342145,71.6154556 39.253804,70.1958661 39.253804,68.4440564 L39.253804,50.4758177 L41.3684481,50.4758177 C43.1202578,50.4758177 44.5398473,49.0562282 44.5398473,47.3044185 L44.5398473,29.3361798 C44.5398473,25.8336942 41.6995345,22.9945152 38.1970489,22.9945152" id="Fill-17" fill="#00766C"></path>
                    <path d="M31.8553843,3.96838761 C36.525743,3.96838761 40.311693,7.75433756 40.311693,12.4246963 C40.311693,17.0939212 36.525743,20.881005 31.8553843,20.881005 C27.1850255,20.881005 23.3990756,17.0939212 23.3990756,12.4246963 C23.3990756,7.75433756 27.1850255,3.96838761 31.8553843,3.96838761 Z M38.1970489,22.9945152 L36.6969555,22.9945152 C33.6956349,24.3744197 30.1443934,24.4333803 27.0138131,22.9945152 L25.5137197,22.9945152 C22.0112341,22.9945152 19.1709212,25.8336942 19.1709212,29.3361798 L19.1709212,47.3044185 C19.1709212,49.0562282 20.5905107,50.4758177 22.3423205,50.4758177 L24.4569646,50.4758177 L24.4569646,68.4440564 C24.4569646,70.1958661 25.8765541,71.6154556 27.6272299,71.6154556 L36.0835386,71.6154556 C37.8342145,71.6154556 39.253804,70.1958661 39.253804,68.4440564 L39.253804,50.4758177 L41.3684481,50.4758177 C43.1202578,50.4758177 44.5398473,49.0562282 44.5398473,47.3044185 L44.5398473,29.3361798 C44.5398473,25.8336942 41.6995345,22.9945152 38.1970489,22.9945152 Z" id="Stroke-19" stroke="#FFFFFF" stroke-width="1.13385743"></path>
                    <path d="M57.2231765,3.96838761 C61.8935352,3.96838761 65.6794852,7.75433756 65.6794852,12.4246963 C65.6794852,17.0939212 61.8935352,20.881005 57.2231765,20.881005 C52.5528177,20.881005 48.7668678,17.0939212 48.7668678,12.4246963 C48.7668678,7.75433756 52.5528177,3.96838761 57.2231765,3.96838761 M63.5648411,22.9945152 L62.0647477,22.9945152 C59.0634271,24.3744197 55.5121856,24.4333803 52.3816053,22.9945152 L50.8815119,22.9945152 C47.3778924,22.9945152 44.5387134,25.8336942 44.5387134,29.3361798 L44.5387134,47.3044185 C44.5387134,49.0562282 45.9583029,50.4758177 47.7101127,50.4758177 L49.8247568,50.4758177 L49.8247568,68.4440564 C49.8247568,70.1958661 51.2443463,71.6154556 52.9950221,71.6154556 L61.4513308,71.6154556 C63.2020067,71.6154556 64.6215962,70.1958661 64.6215962,68.4440564 L64.6215962,50.4758177 L66.7362403,50.4758177 C68.4869162,50.4758177 69.9076395,49.0562282 69.9076395,47.3044185 L69.9076395,29.3361798 C69.9076395,25.8336942 67.0673267,22.9945152 63.5648411,22.9945152" id="Fill-21" fill="#00766C"></path>
                    <path d="M57.2231765,3.96838761 C61.8935352,3.96838761 65.6794852,7.75433756 65.6794852,12.4246963 C65.6794852,17.0939212 61.8935352,20.881005 57.2231765,20.881005 C52.5528177,20.881005 48.7668678,17.0939212 48.7668678,12.4246963 C48.7668678,7.75433756 52.5528177,3.96838761 57.2231765,3.96838761 Z M63.5648411,22.9945152 L62.0647477,22.9945152 C59.0634271,24.3744197 55.5121856,24.4333803 52.3816053,22.9945152 L50.8815119,22.9945152 C47.3778924,22.9945152 44.5387134,25.8336942 44.5387134,29.3361798 L44.5387134,47.3044185 C44.5387134,49.0562282 45.9583029,50.4758177 47.7101127,50.4758177 L49.8247568,50.4758177 L49.8247568,68.4440564 C49.8247568,70.1958661 51.2443463,71.6154556 52.9950221,71.6154556 L61.4513308,71.6154556 C63.2020067,71.6154556 64.6215962,70.1958661 64.6215962,68.4440564 L64.6215962,50.4758177 L66.7362403,50.4758177 C68.4869162,50.4758177 69.9076395,49.0562282 69.9076395,47.3044185 L69.9076395,29.3361798 C69.9076395,25.8336942 67.0673267,22.9945152 63.5648411,22.9945152 Z" id="Stroke-23" stroke="#FFFFFF" stroke-width="1.13385743"></path>
                    <path d="M44.5392804,6.23610247 C49.2096391,6.23610247 52.9955891,10.0220524 52.9955891,14.6924112 C52.9955891,19.361636 49.2096391,23.1487199 44.5392804,23.1487199 C39.8689216,23.1487199 36.0829717,19.361636 36.0829717,14.6924112 C36.0829717,10.0220524 39.8689216,6.23610247 44.5392804,6.23610247 M50.880945,25.2622301 L49.3808516,25.2622301 C46.379531,26.6421346 42.8282895,26.7010952 39.6977092,25.2622301 L38.1976158,25.2622301 C34.6951302,25.2622301 31.8548173,28.1014091 31.8548173,31.6038947 L31.8548173,49.5721333 C31.8548173,51.3239431 33.2744068,52.7435326 35.0262166,52.7435326 L37.1408607,52.7435326 L37.1408607,70.7117712 C37.1408607,72.4635809 38.5604502,73.8831704 40.311126,73.8831704 L48.7674347,73.8831704 C50.5181106,73.8831704 51.9377001,72.4635809 51.9377001,70.7117712 L51.9377001,52.7435326 L54.0523442,52.7435326 C55.8030201,52.7435326 57.2237434,51.3239431 57.2237434,49.5721333 L57.2237434,31.6038947 C57.2237434,28.1014091 54.3834306,25.2622301 50.880945,25.2622301" id="Fill-25" fill="#00766C"></path>
                    <path d="M44.5392804,6.23610247 C49.2096391,6.23610247 52.9955891,10.0220524 52.9955891,14.6924112 C52.9955891,19.361636 49.2096391,23.1487199 44.5392804,23.1487199 C39.8689216,23.1487199 36.0829717,19.361636 36.0829717,14.6924112 C36.0829717,10.0220524 39.8689216,6.23610247 44.5392804,6.23610247 Z M50.880945,25.2622301 L49.3808516,25.2622301 C46.379531,26.6421346 42.8282895,26.7010952 39.6977092,25.2622301 L38.1976158,25.2622301 C34.6951302,25.2622301 31.8548173,28.1014091 31.8548173,31.6038947 L31.8548173,49.5721333 C31.8548173,51.3239431 33.2744068,52.7435326 35.0262166,52.7435326 L37.1408607,52.7435326 L37.1408607,70.7117712 C37.1408607,72.4635809 38.5604502,73.8831704 40.311126,73.8831704 L48.7674347,73.8831704 C50.5181106,73.8831704 51.9377001,72.4635809 51.9377001,70.7117712 L51.9377001,52.7435326 L54.0523442,52.7435326 C55.8030201,52.7435326 57.2237434,51.3239431 57.2237434,49.5721333 L57.2237434,31.6038947 C57.2237434,28.1014091 54.3834306,25.2622301 50.880945,25.2622301 Z" id="Stroke-27" stroke="#FFFFFF" stroke-width="1.13385743"></path>
                </g>
                <rect id="Rectangle-Copy-3" fill="#00766C" fill-rule="nonzero" x="0" y="30.6141505" width="113.385743" height="36.2834377"></rect>
                <path d="M16.8349482,60.2906766 C15.9505349,60.2906766 15.213535,60.1432766 14.6239262,59.8484722 C14.0343174,59.5536678 13.5467635,59.190837 13.1612501,58.7599691 L14.0966825,57.5013873 C14.4255028,57.8302076 14.799672,58.1108345 15.2192013,58.3432764 C15.6387307,58.5757184 16.1206153,58.6919376 16.6648695,58.6919376 C17.2544783,58.6919376 17.7335283,58.5473722 18.1020338,58.2582371 C18.4705393,57.9691021 18.6547893,57.5694213 18.6547893,57.0591829 C18.6547893,56.7757171 18.6037663,56.5206018 18.5017186,56.2938291 C18.3996709,56.0670565 18.2267594,55.8743027 17.9829788,55.7155619 C17.7391982,55.556821 17.4132175,55.4349326 17.0050268,55.3498928 C16.5968361,55.2648531 16.0866053,55.2223339 15.4743192,55.2223339 L15.4743192,53.7936735 C16.0072349,53.7936735 16.4522695,53.7511543 16.8094364,53.6661146 C17.1666032,53.5810748 17.455734,53.462021 17.6768373,53.3089495 C17.8979406,53.155878 18.056679,52.971628 18.1530574,52.756194 C18.2494358,52.54076 18.2976242,52.3083215 18.2976242,52.0588717 C18.2976242,51.6053264 18.1558935,51.2509995 17.8724277,50.9958803 C17.5889619,50.7407611 17.197785,50.6132034 16.6988853,50.6132034 C16.2680173,50.6132034 15.879675,50.7067457 15.5338468,50.8938331 C15.1880185,51.0809206 14.8506993,51.3275321 14.521879,51.6336751 L13.5184152,50.426117 C13.983299,50.0179262 14.4793567,49.6891109 15.0066031,49.439661 C15.5338494,49.1902111 16.1206147,49.065488 16.7669167,49.065488 C17.2884937,49.065488 17.7647091,49.1278496 18.1955771,49.2525745 C18.626445,49.3772995 18.994945,49.5615495 19.3010881,49.80533 C19.6072311,50.0491106 19.8453388,50.3495798 20.0154182,50.7067467 C20.1854977,51.0639135 20.2705362,51.4692635 20.2705362,51.9228088 C20.2705362,52.5350948 20.1032939,53.0453256 19.7688042,53.4535163 C19.4343146,53.861707 18.9722724,54.1791839 18.3826635,54.4059565 L18.3826635,54.473988 C19.0289655,54.6440674 19.5647078,54.9558751 19.9899064,55.4094204 C20.4151051,55.8629656 20.6277012,56.4468963 20.6277012,57.1612301 C20.6277012,57.6601298 20.5284897,58.1023298 20.3300637,58.4878433 C20.1316376,58.8733567 19.8595146,59.1993375 19.5136863,59.4657953 C19.1678581,59.7322531 18.7653427,59.9363454 18.3061282,60.0780783 C17.8469136,60.2198112 17.3565252,60.2906766 16.8349482,60.2906766 Z M22.1243931,60.0865822 L22.1243931,58.9470555 L22.8491179,58.2402835 C23.3165185,57.7817018 23.7524213,57.3483186 24.1568325,56.9401279 C24.7634492,56.3278418 25.2793492,55.7609188 25.7045479,55.2393417 C26.1297465,54.7177647 26.4557273,54.2302109 26.6824999,53.7766657 C26.9092725,53.3231204 27.0226571,52.8922589 27.0226571,52.4840682 C27.0226571,51.905798 26.8695879,51.449425 26.5634449,51.1149353 C26.2573018,50.7804457 25.8151019,50.6132034 25.2368317,50.6132034 C24.8173023,50.6132034 24.4346293,50.7322573 24.088801,50.9703685 C23.7429728,51.2084798 23.4226613,51.4919413 23.1278569,51.8207616 L22.0393537,50.7322585 C22.5382535,50.1993428 23.0513189,49.7883236 23.5785652,49.4991885 C24.1058115,49.2100534 24.7436,49.065488 25.4919496,49.065488 C26.0135266,49.065488 26.4840728,49.1448573 26.9036021,49.3035981 C27.3231315,49.4623389 27.680293,49.6862735 27.9750974,49.9754086 C28.2699018,50.2645437 28.4995056,50.6132014 28.6639158,51.0213921 C28.8283259,51.4295828 28.9105298,51.8831213 28.9105298,52.382021 C28.9105298,52.8582435 28.805649,53.3429627 28.5958843,53.8361932 C28.3861196,54.3294236 28.1026581,54.8283159 27.7454912,55.332885 C27.3883244,55.8374541 26.9716359,56.3561886 26.4954134,56.8891043 L25.7598235,57.7012296 C25.5075409,57.9761894 25.2481716,58.2554011 24.9817138,58.5388669 L25.9001383,58.4623315 C26.2289586,58.4339849 26.5237586,58.4198118 26.7845471,58.4198118 L29.4377735,58.4198118 L29.4377735,60.0865822 L22.1243931,60.0865822 Z M34.3530454,54.5420194 C34.6705271,54.5420194 35.0021771,54.4428079 35.3480053,54.2443818 C35.6938335,54.0459558 36.0084758,53.7256443 36.2919416,53.2834377 C36.1898939,52.3309927 35.9546209,51.6393466 35.5861154,51.2084786 C35.2176099,50.7776106 34.7725753,50.5621799 34.2509982,50.5621799 C33.8087916,50.5621799 33.4289532,50.737926 33.1114715,51.0894236 C32.7939899,51.4409211 32.6352514,51.9454826 32.6352514,52.6031232 C32.6352514,53.2494252 32.785486,53.7341444 33.0859597,54.0572954 C33.3864335,54.3804464 33.8087911,54.5420194 34.3530454,54.5420194 Z M33.8938331,60.2906766 C33.2475312,60.2906766 32.6862774,60.1716227 32.2100549,59.9335115 C31.7338324,59.6954002 31.331317,59.4062695 31.0024967,59.0661106 L32.0569841,57.8755603 C32.2610795,58.1136715 32.5190295,58.30926 32.8308418,58.4623315 C33.1426542,58.615403 33.4629657,58.6919376 33.791786,58.6919376 C34.1319449,58.6919376 34.4522564,58.6239068 34.7527302,58.4878433 C35.0532039,58.3517797 35.3168231,58.1278451 35.5435957,57.8160327 C35.7703683,57.5042204 35.9546183,57.0932012 36.0963512,56.5829628 C36.2380841,56.0727244 36.3202879,55.4434398 36.3429652,54.6950902 C36.0254835,55.0919423 35.6513143,55.4009153 35.2204463,55.6220186 C34.7895784,55.8431219 34.3757245,55.9536719 33.9788725,55.9536719 C33.5139886,55.9536719 33.0887963,55.8856412 32.7032829,55.7495776 C32.3177694,55.613514 31.9861194,55.4065871 31.708323,55.1287906 C31.4305265,54.8509942 31.2150957,54.5023365 31.0620242,54.0828072 C30.9089527,53.6632778 30.8324181,53.1700548 30.8324181,52.6031232 C30.8324181,52.0588689 30.9231258,51.5684805 31.1045439,51.1319432 C31.285962,50.6954059 31.5297389,50.3240713 31.8358819,50.0179283 C32.142025,49.7117853 32.5020211,49.4765122 32.9158811,49.312102 C33.3297411,49.1476919 33.7691065,49.065488 34.2339904,49.065488 C34.7555674,49.065488 35.2544597,49.1703688 35.7306822,49.3801335 C36.2069047,49.5898982 36.6235931,49.9102097 36.98076,50.3410777 C37.3379269,50.7719456 37.6213884,51.3190264 37.8311531,51.9823363 C38.0409177,52.6456462 38.1457985,53.4308346 38.1457985,54.3379251 C38.1457985,55.3924178 38.0295793,56.2938254 37.7971373,57.042175 C37.5646954,57.7905247 37.2528877,58.4056362 36.861705,58.887528 C36.4705222,59.3694198 36.0169838,59.7237467 35.5010761,59.9505194 C34.9851683,60.177292 34.4494261,60.2906766 33.8938331,60.2906766 Z M40.1527261,63.182013 L39.7275296,62.1105178 C40.2831225,61.8950838 40.7111494,61.605953 41.0116232,61.2431168 C41.3120969,60.8802806 41.4566622,60.4834345 41.4453236,60.0525665 L41.2922529,60.0525665 C40.9634326,60.0525665 40.6714672,59.9476858 40.416348,59.7379211 C40.1612288,59.5281564 40.0336711,59.2305218 40.0336711,58.8450084 C40.0336711,58.4821722 40.1612288,58.1902068 40.416348,57.9691035 C40.6714672,57.7480002 40.9804403,57.6374502 41.3432764,57.6374502 C41.8081603,57.6374502 42.1681565,57.8131963 42.4232756,58.1646939 C42.6783948,58.5161915 42.8059525,59.0094145 42.8059525,59.6443778 C42.8059525,60.4834365 42.5763487,61.209098 42.1171341,61.8213841 C41.6579196,62.4336702 41.0031235,62.8872086 40.1527261,63.182013 Z M46.4626427,60.0865822 C46.5079973,59.1227986 46.5930357,58.2412333 46.7177607,57.4418598 C46.8424856,56.6424863 47.0210664,55.8799748 47.2535083,55.1543024 C47.4859502,54.4286301 47.7835848,53.7228109 48.146421,53.0368237 C48.5092572,52.3508365 48.9514572,51.6450173 49.4730342,50.9193449 L44.3536679,50.9193449 L44.3536679,49.2695824 L51.6160247,49.2695824 L51.6160247,50.4601327 C50.9810614,51.2424982 50.4679961,51.988002 50.0768133,52.6966665 C49.6856305,53.4053309 49.3766575,54.1309924 49.1498848,54.8736727 C48.9231122,55.616353 48.7615391,56.4072107 48.6651608,57.2462694 C48.5687824,58.0853281 48.497917,59.0320896 48.4525625,60.0865822 L46.4626427,60.0865822 Z M56.6843674,60.2906766 C55.5505043,60.2906766 54.6547659,59.8059574 53.9971253,58.8365044 C53.3394847,57.8670515 53.0106694,56.4639169 53.0106694,54.6270587 C53.0106694,52.7902005 53.3394847,51.4040737 53.9971253,50.4686366 C54.6547659,49.5331996 55.5505043,49.065488 56.6843674,49.065488 C57.8182305,49.065488 58.7139689,49.5360342 59.3716095,50.4771405 C60.0292501,51.4182469 60.3580655,52.8015391 60.3580655,54.6270587 C60.3580655,56.4639169 60.0292501,57.8670515 59.3716095,58.8365044 C58.7139689,59.8059574 57.8182305,60.2906766 56.6843674,60.2906766 Z M56.6843674,58.7599691 C56.945156,58.7599691 57.1860982,58.6891037 57.4072016,58.5473708 C57.6283049,58.4056379 57.8182241,58.1703648 57.9769649,57.8415445 C58.1357057,57.5127242 58.2604288,57.087532 58.3511379,56.5659549 C58.4418469,56.0443779 58.4872008,55.3980856 58.4872008,54.6270587 C58.4872008,53.8673705 58.4418469,53.229582 58.3511379,52.7136743 C58.2604288,52.1977666 58.1357057,51.7810782 57.9769649,51.4635965 C57.8182241,51.1461148 57.6283049,50.9221802 57.4072016,50.791786 C57.1860982,50.6613917 56.945156,50.5961956 56.6843674,50.5961956 C56.4235789,50.5961956 56.1826366,50.6613917 55.9615333,50.791786 C55.74043,50.9221802 55.5505108,51.1461148 55.39177,51.4635965 C55.2330291,51.7810782 55.1083061,52.1977666 55.017597,52.7136743 C54.926888,53.229582 54.8815341,53.8673705 54.8815341,54.6270587 C54.8815341,55.3980856 54.926888,56.0443779 55.017597,56.5659549 C55.1083061,57.087532 55.2330291,57.5127242 55.39177,57.8415445 C55.5505108,58.1703648 55.74043,58.4056379 55.9615333,58.5473708 C56.1826366,58.6891037 56.4235789,58.7599691 56.6843674,58.7599691 Z M65.4094003,60.2906766 C64.2755372,60.2906766 63.3797988,59.8059574 62.7221582,58.8365044 C62.0645176,57.8670515 61.7357023,56.4639169 61.7357023,54.6270587 C61.7357023,52.7902005 62.0645176,51.4040737 62.7221582,50.4686366 C63.3797988,49.5331996 64.2755372,49.065488 65.4094003,49.065488 C66.5432634,49.065488 67.4390019,49.5360342 68.0966424,50.4771405 C68.754283,51.4182469 69.0830984,52.8015391 69.0830984,54.6270587 C69.0830984,56.4639169 68.754283,57.8670515 68.0966424,58.8365044 C67.4390019,59.8059574 66.5432634,60.2906766 65.4094003,60.2906766 Z M65.4094003,58.7599691 C65.6701889,58.7599691 65.9111312,58.6891037 66.1322345,58.5473708 C66.3533378,58.4056379 66.543257,58.1703648 66.7019978,57.8415445 C66.8607386,57.5127242 66.9854617,57.087532 67.0761708,56.5659549 C67.1668798,56.0443779 67.2122337,55.3980856 67.2122337,54.6270587 C67.2122337,53.8673705 67.1668798,53.229582 67.0761708,52.7136743 C66.9854617,52.1977666 66.8607386,51.7810782 66.7019978,51.4635965 C66.543257,51.1461148 66.3533378,50.9221802 66.1322345,50.791786 C65.9111312,50.6613917 65.6701889,50.5961956 65.4094003,50.5961956 C65.1486118,50.5961956 64.9076695,50.6613917 64.6865662,50.791786 C64.4654629,50.9221802 64.2755437,51.1461148 64.1168029,51.4635965 C63.958062,51.7810782 63.833339,52.1977666 63.7426299,52.7136743 C63.6519209,53.229582 63.606567,53.8673705 63.606567,54.6270587 C63.606567,55.3980856 63.6519209,56.0443779 63.7426299,56.5659549 C63.833339,57.087532 63.958062,57.5127242 64.1168029,57.8415445 C64.2755437,58.1703648 64.4654629,58.4056379 64.6865662,58.5473708 C64.9076695,58.6891037 65.1486118,58.7599691 65.4094003,58.7599691 Z M72.195537,57.6374502 C72.6604209,57.6374502 73.0204171,57.8131963 73.2755362,58.1646939 C73.5306554,58.5161915 73.6582131,59.0094145 73.6582131,59.6443778 C73.6582131,60.4834365 73.4286093,61.209098 72.9693947,61.8213841 C72.5101802,62.4336702 71.8553841,62.8872086 71.0049867,63.182013 L70.5797902,62.1105178 C71.1353831,61.8950838 71.56341,61.605953 71.8638838,61.2431168 C72.1643575,60.8802806 72.3089228,60.4834345 72.2975842,60.0525665 L72.1445135,60.0525665 C71.8156932,60.0525665 71.5237278,59.9476858 71.2686086,59.7379211 C71.0134894,59.5281564 70.8859317,59.2305218 70.8859317,58.8450084 C70.8859317,58.4821722 71.0134894,58.1902068 71.2686086,57.9691035 C71.5237278,57.7480002 71.8327009,57.6374502 72.195537,57.6374502 Z M78.8115951,49.065488 C79.9454582,49.065488 80.8411966,49.5360342 81.4988372,50.4771405 C82.1564778,51.4182469 82.4852932,52.8015391 82.4852932,54.6270587 C82.4852932,56.4639169 82.1564778,57.8670515 81.4988372,58.8365044 C80.8411966,59.8059574 79.9454582,60.2906766 78.8115951,60.2906766 C77.677732,60.2906766 76.7819936,59.8059574 76.124353,58.8365044 C75.4667124,57.8670515 75.1378971,56.4639169 75.1378971,54.6270587 C75.1378971,52.7902005 75.4667124,51.4040737 76.124353,50.4686366 C76.7819936,49.5331996 77.677732,49.065488 78.8115951,49.065488 Z M87.536628,49.065488 C88.6704911,49.065488 89.5662295,49.5360342 90.2238701,50.4771405 C90.8815107,51.4182469 91.2103261,52.8015391 91.2103261,54.6270587 C91.2103261,56.4639169 90.8815107,57.8670515 90.2238701,58.8365044 C89.5662295,59.8059574 88.6704911,60.2906766 87.536628,60.2906766 C86.4027649,60.2906766 85.5070265,59.8059574 84.8493859,58.8365044 C84.1917453,57.8670515 83.86293,56.4639169 83.86293,54.6270587 C83.86293,52.7902005 84.1917453,51.4040737 84.8493859,50.4686366 C85.5070265,49.5331996 86.4027649,49.065488 87.536628,49.065488 Z M96.2616609,49.065488 C97.395524,49.065488 98.2912625,49.5360342 98.948903,50.4771405 C99.6065436,51.4182469 99.935359,52.8015391 99.935359,54.6270587 C99.935359,56.4639169 99.6065436,57.8670515 98.948903,58.8365044 C98.2912625,59.8059574 97.395524,60.2906766 96.2616609,60.2906766 C95.1277978,60.2906766 94.2320594,59.8059574 93.5744188,58.8365044 C92.9167782,57.8670515 92.5879629,56.4639169 92.5879629,54.6270587 C92.5879629,52.7902005 92.9167782,51.4040737 93.5744188,50.4686366 C94.2320594,49.5331996 95.1277978,49.065488 96.2616609,49.065488 Z M78.8115951,50.5961956 C78.5508066,50.5961956 78.3098643,50.6613917 78.088761,50.791786 C77.8676577,50.9221802 77.6777385,51.1461148 77.5189977,51.4635965 C77.3602568,51.7810782 77.2355338,52.1977666 77.1448247,52.7136743 C77.0541157,53.229582 77.0087618,53.8673705 77.0087618,54.6270587 C77.0087618,55.3980856 77.0541157,56.0443779 77.1448247,56.5659549 C77.2355338,57.087532 77.3602568,57.5127242 77.5189977,57.8415445 C77.6777385,58.1703648 77.8676577,58.4056379 78.088761,58.5473708 C78.3098643,58.6891037 78.5508066,58.7599691 78.8115951,58.7599691 C79.0723836,58.7599691 79.3133259,58.6891037 79.5344292,58.5473708 C79.7555326,58.4056379 79.9454518,58.1703648 80.1041926,57.8415445 C80.2629334,57.5127242 80.3876565,57.087532 80.4783656,56.5659549 C80.5690746,56.0443779 80.6144284,55.3980856 80.6144284,54.6270587 C80.6144284,53.8673705 80.5690746,53.229582 80.4783656,52.7136743 C80.3876565,52.1977666 80.2629334,51.7810782 80.1041926,51.4635965 C79.9454518,51.1461148 79.7555326,50.9221802 79.5344292,50.791786 C79.3133259,50.6613917 79.0723836,50.5961956 78.8115951,50.5961956 Z M87.536628,50.5961956 C87.2758395,50.5961956 87.0348972,50.6613917 86.8137939,50.791786 C86.5926906,50.9221802 86.4027714,51.1461148 86.2440306,51.4635965 C86.0852897,51.7810782 85.9605667,52.1977666 85.8698576,52.7136743 C85.7791486,53.229582 85.7337947,53.8673705 85.7337947,54.6270587 C85.7337947,55.3980856 85.7791486,56.0443779 85.8698576,56.5659549 C85.9605667,57.087532 86.0852897,57.5127242 86.2440306,57.8415445 C86.4027714,58.1703648 86.5926906,58.4056379 86.8137939,58.5473708 C87.0348972,58.6891037 87.2758395,58.7599691 87.536628,58.7599691 C87.7974166,58.7599691 88.0383588,58.6891037 88.2594622,58.5473708 C88.4805655,58.4056379 88.6704847,58.1703648 88.8292255,57.8415445 C88.9879663,57.5127242 89.1126894,57.087532 89.2033985,56.5659549 C89.2941075,56.0443779 89.3394614,55.3980856 89.3394614,54.6270587 C89.3394614,53.8673705 89.2941075,53.229582 89.2033985,52.7136743 C89.1126894,52.1977666 88.9879663,51.7810782 88.8292255,51.4635965 C88.6704847,51.1461148 88.4805655,50.9221802 88.2594622,50.791786 C88.0383588,50.6613917 87.7974166,50.5961956 87.536628,50.5961956 Z M96.2616609,50.5961956 C96.0008724,50.5961956 95.7599301,50.6613917 95.5388268,50.791786 C95.3177235,50.9221802 95.1278043,51.1461148 94.9690635,51.4635965 C94.8103226,51.7810782 94.6855996,52.1977666 94.5948905,52.7136743 C94.5041815,53.229582 94.4588276,53.8673705 94.4588276,54.6270587 C94.4588276,55.3980856 94.5041815,56.0443779 94.5948905,56.5659549 C94.6855996,57.087532 94.8103226,57.5127242 94.9690635,57.8415445 C95.1278043,58.1703648 95.3177235,58.4056379 95.5388268,58.5473708 C95.7599301,58.6891037 96.0008724,58.7599691 96.2616609,58.7599691 C96.5224495,58.7599691 96.7633918,58.6891037 96.9844951,58.5473708 C97.2055984,58.4056379 97.3955176,58.1703648 97.5542584,57.8415445 C97.7129992,57.5127242 97.8377223,57.087532 97.9284314,56.5659549 C98.0191404,56.0443779 98.0644943,55.3980856 98.0644943,54.6270587 C98.0644943,53.8673705 98.0191404,53.229582 97.9284314,52.7136743 C97.8377223,52.1977666 97.7129992,51.7810782 97.5542584,51.4635965 C97.3955176,51.1461148 97.2055984,50.9221802 96.9844951,50.791786 C96.7633918,50.6613917 96.5224495,50.5961956 96.2616609,50.5961956 Z" id="329,700,000" fill="#FFFFFF" fill-rule="nonzero"></path>
                <path d="M25.4664378,44.0179283 C25.1489562,44.0179283 24.8390382,43.9706847 24.5366747,43.8761961 C24.2343112,43.7817075 23.9659677,43.6191896 23.731636,43.3886374 C23.4973042,43.1580853 23.3102196,42.8500571 23.1703765,42.4645436 C23.0305334,42.0790302 22.9606129,41.5952558 22.9606129,41.0132061 L22.9606129,36.4097449 L23.4821873,36.4097449 L23.4821873,40.9565132 C23.4821873,41.455413 23.5369899,41.8692668 23.6465966,42.1980871 C23.7562034,42.5269074 23.9017137,42.7914715 24.0831318,42.9917873 C24.2645499,43.1921031 24.4743114,43.3338339 24.7124226,43.4169839 C24.9505339,43.5001338 25.2018698,43.5417082 25.4664378,43.5417082 C25.738565,43.5417082 25.9974598,43.5001338 26.2431302,43.4169839 C26.4888005,43.3338339 26.7042313,43.1921031 26.8894289,42.9917873 C27.0746265,42.7914715 27.2239163,42.5269074 27.3373026,42.1980871 C27.4506889,41.8692668 27.5073812,41.455413 27.5073812,40.9565132 L27.5073812,36.4097449 L27.9949399,36.4097449 L27.9949399,41.0132061 C27.9949399,41.5952558 27.9231296,42.0790302 27.779507,42.4645436 C27.6358843,42.8500571 27.44691,43.1580853 27.2125783,43.3886374 C26.9782466,43.6191896 26.709903,43.7817075 26.4075395,43.8761961 C26.105176,43.9706847 25.7914786,44.0179283 25.4664378,44.0179283 Z M30.2059619,44.0179283 C30.0774574,44.0179283 29.9640728,43.9725744 29.8658046,43.8818654 C29.7675365,43.7911563 29.7184032,43.6664333 29.7184032,43.5076924 C29.7184032,43.3413925 29.7675365,43.21289 29.8658046,43.1221809 C29.9640728,43.0314719 30.0774574,42.986118 30.2059619,42.986118 C30.3344664,42.986118 30.4459612,43.0314719 30.5404498,43.1221809 C30.6349384,43.21289 30.682182,43.3413925 30.682182,43.5076924 C30.682182,43.6664333 30.6349384,43.7911563 30.5404498,43.8818654 C30.4459612,43.9725744 30.3344664,44.0179283 30.2059619,44.0179283 Z M34.4919429,44.0179283 C33.9476887,44.0179283 33.4639143,43.9139924 33.0406054,43.7061175 C32.6172965,43.4982426 32.2582453,43.2280093 31.9634409,42.8954094 L32.3035981,42.5325751 C32.5757253,42.8424976 32.9007611,43.0881643 33.2787155,43.2695824 C33.6566699,43.4510005 34.061075,43.5417082 34.4919429,43.5417082 C35.0664336,43.5417082 35.519972,43.4037569 35.8525719,43.1278502 C36.1851717,42.8519435 36.3514691,42.4910025 36.3514691,42.0450164 C36.3514691,41.8106847 36.315564,41.6122616 36.2437527,41.4497412 C36.1719413,41.2872208 36.0755644,41.1473798 35.954619,41.030214 C35.8336736,40.9130481 35.6919429,40.8128917 35.5294225,40.7297417 C35.3669021,40.6465918 35.1949355,40.5634431 35.0135174,40.4802931 L33.8796599,39.9700573 C33.7209191,39.9020255 33.5508422,39.8188768 33.3694241,39.7206086 C33.188006,39.6223405 33.0235983,39.4995072 32.8761961,39.352105 C32.7287939,39.2047028 32.6059606,39.0308464 32.5076924,38.8305306 C32.4094243,38.6302147 32.360291,38.3902173 32.360291,38.1105311 C32.360291,37.8384039 32.4150935,37.5908476 32.5247003,37.3678545 C32.6343071,37.1448614 32.7854866,36.9521076 32.9782433,36.7895872 C33.171,36.6270668 33.4015487,36.500454 33.6698963,36.4097449 C33.9382439,36.3190359 34.2273747,36.2736821 34.5372972,36.2736821 C34.9908425,36.2736821 35.3933578,36.3625 35.7448554,36.5401386 C36.096353,36.7177771 36.3854837,36.9275386 36.6122563,37.1694294 L36.3174534,37.5095867 C36.0982399,37.282814 35.8412348,37.0995089 35.5464304,36.9596658 C35.2516259,36.8198227 34.9152516,36.7499022 34.5372972,36.7499022 C34.0383975,36.7499022 33.6377719,36.8708458 33.3354084,37.1127366 C33.0330449,37.3546273 32.8818654,37.6796632 32.8818654,38.0878539 C32.8818654,38.3070675 32.9234398,38.4922623 33.0065897,38.6434441 C33.0897397,38.7946258 33.1955653,38.9250181 33.3240698,39.0346249 C33.4525743,39.1442317 33.5924153,39.2387188 33.743597,39.3180893 L34.0358802,39.4642308 C34.0829142,39.486488 34.1291083,39.5076953 34.1744629,39.5278529 L35.3083203,40.0267501 C35.5199747,40.1174592 35.7202875,40.2195053 35.9092647,40.3328916 C36.0982419,40.446278 36.2645393,40.57856 36.408162,40.7297417 C36.5517847,40.8809235 36.667059,41.0604491 36.7539885,41.268324 C36.840918,41.4761989 36.8843821,41.7237553 36.8843821,42.0110006 C36.8843821,42.298246 36.8276898,42.5646998 36.7143035,42.8103701 C36.6009172,43.0560405 36.440289,43.2676917 36.2324141,43.4453303 C36.0245392,43.6229688 35.7732033,43.7628099 35.4783989,43.8648575 C35.1835945,43.9669052 34.8547791,44.0179283 34.4919429,44.0179283 Z M38.5965068,44.0179283 C38.4680023,44.0179283 38.3546177,43.9725744 38.2563496,43.8818654 C38.1580815,43.7911563 38.1089481,43.6664333 38.1089481,43.5076924 C38.1089481,43.3413925 38.1580815,43.21289 38.2563496,43.1221809 C38.3546177,43.0314719 38.4680023,42.986118 38.5965068,42.986118 C38.7250113,42.986118 38.8365062,43.0314719 38.9309948,43.1221809 C39.0254834,43.21289 39.0727269,43.3413925 39.0727269,43.5076924 C39.0727269,43.6664333 39.0254834,43.7911563 38.9309948,43.8818654 C38.8365062,43.9725744 38.7250113,44.0179283 38.5965068,44.0179283 Z M43.199968,43.8818654 L43.199968,36.4097449 L45.0821713,36.4097449 C45.5054802,36.4097449 45.8853186,36.4456501 46.221698,36.5174614 C46.5580774,36.5892727 46.8415389,36.7083266 47.0720911,36.8746265 C47.3026433,37.0409264 47.4802792,37.2563572 47.6050041,37.5209252 C47.729729,37.7854933 47.7920906,38.1105292 47.7920906,38.4960426 C47.7920906,39.2292741 47.5577624,39.77541 47.089099,40.1344666 C46.6204355,40.4935232 45.9665843,40.6730489 45.1275256,40.6730489 L43.7215424,40.6730489 L43.7215424,43.8818654 L43.199968,43.8818654 Z M43.7215424,40.2308445 L45.0028013,40.2308445 C45.7662691,40.2308445 46.3331922,40.0947829 46.7035874,39.8226558 C47.0739827,39.5505287 47.2591776,39.1083287 47.2591776,38.4960426 C47.2591776,37.8686384 47.0683135,37.4377769 46.6865796,37.2034451 C46.3048457,36.9691134 45.7284739,36.8519493 44.957447,36.8519493 L43.7215424,36.8519493 L43.7215424,40.2308445 Z M51.0689385,44.0179283 C50.7438978,44.0179283 50.4339798,43.953677 50.1391754,43.8251725 C49.844371,43.696668 49.5854762,43.5114732 49.3624831,43.2695824 C49.13949,43.0276916 48.9618541,42.7310019 48.8295701,42.3795043 C48.6972861,42.0280067 48.6311451,41.6254914 48.6311451,41.1719461 C48.6311451,40.7184009 48.6972861,40.3121061 48.8295701,39.9530494 C48.9618541,39.5939928 49.13949,39.2935235 49.3624831,39.0516328 C49.5854762,38.809742 49.844371,38.6245471 50.1391754,38.4960426 C50.4339798,38.3675381 50.7438978,38.3032869 51.0689385,38.3032869 C51.3939793,38.3032869 51.705787,38.3675381 52.0043709,38.4960426 C52.3029549,38.6245471 52.5637395,38.809742 52.7867325,39.0516328 C53.0097256,39.2935235 53.1873615,39.5939928 53.3196455,39.9530494 C53.4519296,40.3121061 53.5180706,40.7184009 53.5180706,41.1719461 C53.5180706,41.6254914 53.4519296,42.0280067 53.3196455,42.3795043 C53.1873615,42.7310019 53.0097256,43.0276916 52.7867325,43.2695824 C52.5637395,43.5114732 52.3029549,43.696668 52.0043709,43.8251725 C51.705787,43.953677 51.3939793,44.0179283 51.0689385,44.0179283 Z M51.0689385,43.5757239 C51.3410657,43.5757239 51.596181,43.5171418 51.8342923,43.399976 C52.0724035,43.2828101 52.2764958,43.1184025 52.4465753,42.906748 C52.6166548,42.6950936 52.7508266,42.4418679 52.8490947,42.1470635 C52.9473628,41.8522591 52.9964962,41.5272232 52.9964962,41.1719461 C52.9964962,40.80911 52.9473628,40.4802946 52.8490947,40.1854902 C52.7508266,39.8906858 52.6166548,39.6355704 52.4465753,39.4201364 C52.2764958,39.2047024 52.0724035,39.038405 51.8342923,38.9212392 C51.596181,38.8040733 51.3410657,38.7454912 51.0689385,38.7454912 C50.7968114,38.7454912 50.5435858,38.8040733 50.3092541,38.9212392 C50.0749223,39.038405 49.8727198,39.2047024 49.7026403,39.4201364 C49.5325609,39.6355704 49.3983891,39.8906858 49.3001209,40.1854902 C49.2018528,40.4802946 49.1527195,40.80911 49.1527195,41.1719461 C49.1527195,41.5272232 49.2018528,41.8522591 49.3001209,42.1470635 C49.3983891,42.4418679 49.5325609,42.6950936 49.7026403,42.906748 C49.8727198,43.1184025 50.0749223,43.2828101 50.3092541,43.399976 C50.5435858,43.5171418 50.7968114,43.5757239 51.0689385,43.5757239 Z M55.1508253,46.342336 L55.1508253,38.4393497 L55.5816911,38.4393497 L55.6270454,39.1196642 L55.6610611,39.1196642 C55.9256292,38.9080098 56.2147599,38.7190354 56.528462,38.5527355 C56.8421642,38.3864356 57.1690898,38.3032869 57.5092487,38.3032869 C58.2349211,38.3032869 58.7791672,38.5546227 59.1420034,39.057302 C59.5048396,39.5599813 59.686255,40.2346198 59.686255,41.0812375 C59.686255,41.5423419 59.6220037,41.954306 59.4934992,42.3171421 C59.3649947,42.6799783 59.1892486,42.9880065 58.9662555,43.2412359 C58.7432624,43.4944654 58.4862573,43.6872192 58.1952325,43.8195032 C57.9042076,43.9517873 57.5999589,44.0179283 57.2824772,44.0179283 C57.0254683,44.0179283 56.7609042,43.9593462 56.488777,43.8421804 C56.2166499,43.7250145 55.9369679,43.5606068 55.6497225,43.3489524 L55.6497225,46.342336 L55.1508253,46.342336 Z M57.2598001,43.5757239 C57.5319272,43.5757239 57.7851529,43.5152521 58.0194846,43.3943067 C58.2538163,43.2733613 58.4541291,43.1032844 58.620429,42.8840709 C58.7867289,42.6648573 58.9171212,42.402183 59.0116098,42.0960399 C59.1060984,41.7898969 59.153342,41.4516328 59.153342,41.0812375 C59.153342,40.7486377 59.1212164,40.4387198 59.0569641,40.1514745 C58.9927119,39.8642291 58.8925555,39.6166727 58.7564919,39.4087978 C58.6204283,39.2009229 58.4427924,39.038405 58.2235789,38.9212392 C58.0043654,38.8040733 57.7398013,38.7454912 57.4298787,38.7454912 C57.1577516,38.7454912 56.8761798,38.8229707 56.5851549,38.977932 C56.2941301,39.1328933 55.9823224,39.3539933 55.6497225,39.6412386 L55.6497225,42.8727323 C55.9672042,43.1297413 56.2620042,43.3111566 56.5341313,43.4169839 C56.8062585,43.5228111 57.0481456,43.5757239 57.2598001,43.5757239 Z M62.8837329,44.0179283 C62.3168014,44.0179283 61.9010578,43.8478514 61.6364898,43.5076924 C61.3719217,43.1675335 61.2396397,42.6421848 61.2396397,41.9316306 L61.2396397,38.4393497 L61.7385369,38.4393497 L61.7385369,41.8635992 C61.7385369,42.4456489 61.8349138,42.8746207 62.0276706,43.1505274 C62.2204273,43.426434 62.5360145,43.5643853 62.9744415,43.5643853 C63.2994823,43.5643853 63.5942823,43.4755674 63.8588503,43.2979288 C64.1234184,43.1202903 64.4144389,42.8387185 64.7319205,42.453205 L64.7319205,38.4393497 L65.2308178,38.4393497 L65.2308178,43.8818654 L64.8112906,43.8818654 L64.7545977,42.9747795 L64.7319205,42.9747795 C64.4673525,43.2922611 64.1876704,43.5454867 63.892866,43.7344639 C63.5980616,43.9234411 63.2616873,44.0179283 62.8837329,44.0179283 Z M67.9860913,44.0179283 C67.5401052,44.0179283 67.3171155,43.7306873 67.3171155,43.1561966 L67.3171155,35.7294305 L67.8160127,35.7294305 L67.8160127,43.2242281 C67.8160127,43.3451735 67.8386897,43.4339914 67.8840442,43.4906846 C67.9293987,43.5473777 67.986091,43.5757239 68.0541228,43.5757239 L68.1278235,43.5757239 C68.1542803,43.5757239 68.1977444,43.5681649 68.2582171,43.5530467 L68.3489257,43.9612354 C68.2960121,43.9763536 68.2430993,43.9895818 68.1901857,44.0009204 C68.1372721,44.0122591 68.0692413,44.0179283 67.9860913,44.0179283 Z M71.1949079,44.0179283 C70.9756943,44.0179283 70.771602,43.9876924 70.5826249,43.9272197 C70.3936477,43.866747 70.2273502,43.7760393 70.0837276,43.6550939 C69.9401049,43.5341485 69.8267203,43.3791895 69.7435704,43.1902124 C69.6604204,43.0012352 69.618846,42.7782455 69.618846,42.5212365 C69.618846,41.9165095 69.9004178,41.4573018 70.4635698,41.1435997 C71.0267218,40.8298976 71.916791,40.6050181 73.1338041,40.4689545 C73.1338041,40.2648592 73.1186861,40.0588771 73.0884498,39.8510022 C73.0582134,39.6431273 72.9939621,39.4579325 72.895694,39.2954121 C72.7974259,39.1328917 72.6651438,39.0006097 72.4988439,38.898562 C72.332544,38.7965143 72.1133337,38.7454912 71.8412066,38.7454912 C71.4783704,38.7454912 71.1457756,38.8173015 70.8434121,38.9609242 C70.5410486,39.1045468 70.2953819,39.2443878 70.1064047,39.3804514 L69.8796333,39.0062785 C69.9779014,38.9382467 70.0969552,38.8626569 70.2367983,38.779507 C70.3766415,38.696357 70.5334902,38.6207673 70.7073492,38.5527355 C70.8812082,38.4847037 71.0701825,38.4261217 71.2742779,38.3769876 C71.4783732,38.3278535 71.6900245,38.3032869 71.909238,38.3032869 C72.2267197,38.3032869 72.4950633,38.3580894 72.7142768,38.4676962 C72.9334904,38.5773029 73.1111262,38.7265927 73.2471898,38.9155699 C73.3832534,39.104547 73.48152,39.325647 73.5419927,39.5788765 C73.6024654,39.8321059 73.6327013,40.1061187 73.6327013,40.4009231 L73.6327013,43.8818654 L73.2018355,43.8818654 L73.1564812,43.1788738 L73.1224655,43.1788738 C72.8427793,43.3980873 72.5423101,43.5927309 72.2210488,43.7628104 C71.8997876,43.9328898 71.5577441,44.0179283 71.1949079,44.0179283 Z M71.2856165,43.5870625 C71.6030981,43.5870625 71.9054571,43.5114727 72.1927024,43.360291 C72.4799477,43.2091092 72.7936451,42.989899 73.1338041,42.7026537 L73.1338041,40.8544661 C72.5744316,40.9224979 72.1019957,41.0056466 71.7164823,41.1039147 C71.3309688,41.2021828 71.0210509,41.3193469 70.7867192,41.4554105 C70.5523875,41.5914741 70.3842003,41.746433 70.2821526,41.920292 C70.180105,42.0941511 70.1290819,42.2869049 70.1290819,42.4985593 C70.1290819,42.6950956 70.1593178,42.861393 70.2197905,42.9974566 C70.2802632,43.1335202 70.3634119,43.245015 70.4692391,43.3319445 C70.5750663,43.418874 70.6978997,43.4831253 70.8377428,43.5247003 C70.9775859,43.5662753 71.1268756,43.5870625 71.2856165,43.5870625 Z M76.9322265,44.0179283 C76.6676584,44.0179283 76.4484482,43.9782437 76.2745891,43.8988733 C76.1007301,43.8195028 75.9608891,43.708008 75.8550619,43.5643853 C75.7492347,43.4207627 75.6755347,43.2469063 75.6339597,43.0428109 C75.5923847,42.8387155 75.5715975,42.6157258 75.5715975,42.373835 L75.5715975,38.8702156 L74.7212045,38.8702156 L74.7212045,38.484704 L75.5829361,38.4393497 L75.6509676,36.8632879 L76.0818334,36.8632879 L76.0818334,38.4393497 L77.6578952,38.4393497 L77.6578952,38.8702156 L76.0818334,38.8702156 L76.0818334,42.4191893 C76.0818334,42.5930483 76.0950616,42.749897 76.1215184,42.8897401 C76.1479752,43.0295833 76.1952188,43.1505268 76.2632506,43.2525745 C76.3312824,43.3546222 76.4238798,43.4339914 76.5410456,43.4906846 C76.6582115,43.5473777 76.8112807,43.5757239 77.0002579,43.5757239 C77.1060851,43.5757239 77.2213595,43.5587162 77.3460844,43.5247003 C77.4708094,43.4906844 77.5823042,43.4509998 77.6805724,43.4056453 L77.8166352,43.8138339 C77.6578944,43.8743066 77.499156,43.92344 77.3404151,43.9612354 C77.1816743,43.9990309 77.0456128,44.0179283 76.9322265,44.0179283 Z M78.9845084,43.8818654 L78.9845084,38.4393497 L79.4834057,38.4393497 L79.4834057,43.8818654 L78.9845084,43.8818654 Z M79.2452956,37.1240751 C79.1167911,37.1240751 79.0090757,37.0825008 78.9221462,36.9993508 C78.8352167,36.9162009 78.7917526,36.8103752 78.7917526,36.6818707 C78.7917526,36.5382481 78.8352167,36.4267532 78.9221462,36.3473828 C79.0090757,36.2680124 79.1167911,36.2283278 79.2452956,36.2283278 C79.3738001,36.2283278 79.4815155,36.2680124 79.568445,36.3473828 C79.6553745,36.4267532 79.6988386,36.5382481 79.6988386,36.6818707 C79.6988386,36.8103752 79.6553745,36.9162009 79.568445,36.9993508 C79.4815155,37.0825008 79.3738001,37.1240751 79.2452956,37.1240751 Z M83.5652924,44.0179283 C83.2402516,44.0179283 82.9303337,43.953677 82.6355293,43.8251725 C82.3407249,43.696668 82.08183,43.5114732 81.858837,43.2695824 C81.6358439,43.0276916 81.458208,42.7310019 81.325924,42.3795043 C81.19364,42.0280067 81.1274989,41.6254914 81.1274989,41.1719461 C81.1274989,40.7184009 81.19364,40.3121061 81.325924,39.9530494 C81.458208,39.5939928 81.6358439,39.2935235 81.858837,39.0516328 C82.08183,38.809742 82.3407249,38.6245471 82.6355293,38.4960426 C82.9303337,38.3675381 83.2402516,38.3032869 83.5652924,38.3032869 C83.8903332,38.3032869 84.2021408,38.3675381 84.5007248,38.4960426 C84.7993087,38.6245471 85.0600933,38.809742 85.2830864,39.0516328 C85.5060795,39.2935235 85.6837154,39.5939928 85.8159994,39.9530494 C85.9482834,40.3121061 86.0144244,40.7184009 86.0144244,41.1719461 C86.0144244,41.6254914 85.9482834,42.0280067 85.8159994,42.3795043 C85.6837154,42.7310019 85.5060795,43.0276916 85.2830864,43.2695824 C85.0600933,43.5114732 84.7993087,43.696668 84.5007248,43.8251725 C84.2021408,43.953677 83.8903332,44.0179283 83.5652924,44.0179283 Z M83.5652924,43.5757239 C83.8374195,43.5757239 84.0925349,43.5171418 84.3306462,43.399976 C84.5687574,43.2828101 84.7728497,43.1184025 84.9429292,42.906748 C85.1130086,42.6950936 85.2471804,42.4418679 85.3454486,42.1470635 C85.4437167,41.8522591 85.49285,41.5272232 85.49285,41.1719461 C85.49285,40.80911 85.4437167,40.4802946 85.3454486,40.1854902 C85.2471804,39.8906858 85.1130086,39.6355704 84.9429292,39.4201364 C84.7728497,39.2047024 84.5687574,39.038405 84.3306462,38.9212392 C84.0925349,38.8040733 83.8374195,38.7454912 83.5652924,38.7454912 C83.2931653,38.7454912 83.0399396,38.8040733 82.8056079,38.9212392 C82.5712762,39.038405 82.3690737,39.2047024 82.1989942,39.4201364 C82.0289147,39.6355704 81.894743,39.8906858 81.7964748,40.1854902 C81.6982067,40.4802946 81.6490733,40.80911 81.6490733,41.1719461 C81.6490733,41.5272232 81.6982067,41.8522591 81.7964748,42.1470635 C81.894743,42.4418679 82.0289147,42.6950936 82.1989942,42.906748 C82.3690737,43.1184025 82.5712762,43.2828101 82.8056079,43.399976 C83.0399396,43.5171418 83.2931653,43.5757239 83.5652924,43.5757239 Z M87.6471791,43.8818654 L87.6471791,38.4393497 L88.078045,38.4393497 L88.1233993,39.2784042 L88.157415,39.2784042 C88.4371012,38.998718 88.7243422,38.7662796 89.0191466,38.5810819 C89.313951,38.3958843 89.6503254,38.3032869 90.0282797,38.3032869 C90.5952113,38.3032869 91.0109549,38.4733638 91.2755229,38.8135227 C91.540091,39.1536816 91.672373,39.6790303 91.672373,40.3895845 L91.672373,43.8818654 L91.1734757,43.8818654 L91.1734757,40.457616 C91.1734757,39.8755662 91.0770988,39.4465945 90.8843421,39.1706878 C90.6915854,38.8947811 90.3722187,38.7568298 89.9262326,38.7568298 C89.6011918,38.7568298 89.3063918,38.8418683 89.0418238,39.0119477 C88.7772557,39.1820272 88.4786763,39.4371426 88.1460764,39.7773015 L88.1460764,43.8818654 L87.6471791,43.8818654 Z" id="U.S.Population" fill="#FFFFFF" fill-rule="nonzero"></path>
                <polygon id="+" fill="#00766C" fill-rule="nonzero" transform="translate(130.847303, 38.410930) rotate(45.000000) translate(-130.847303, -38.410930) " points="129.959493 43.125509 129.959493 39.268126 126.306204 39.268126 126.306204 37.5537336 129.959493 37.5537336 129.959493 33.6963506 131.735114 33.6963506 131.735114 37.5537336 135.388402 37.5537336 135.388402 39.268126 131.735114 39.268126 131.735114 43.125509"></polygon>
            </g>
        </g>
    </g>
</svg>