<?xml version="1.0" encoding="UTF-8"?>
<svg width="305px" height="67px" viewBox="0 0 305 67" version="1.1" xmlns="http://www.w3.org/2000/svg" xmlns:xlink="http://www.w3.org/1999/xlink">
    <!-- Generator: Sketch 59.1 (86144) - https://sketch.com -->
    <title>Rent as Income</title>
    <desc>Created with Sketch.</desc>
    <g id="Export-Outlined-SVG" stroke="none" stroke-width="1" fill="none" fill-rule="evenodd">
        <g id="10" transform="translate(-842.000000, -639.000000)">
            <g id="Rent-as-Income" transform="translate(842.462000, 639.986000)">
                <polygon id="Fill-1" fill="#E0E0E0" points="1.538 34.014 298.538 34.014 298.538 24.014 1.538 24.014"></polygon>
                <path d="M2.413,41.014 L2.413,15.014 C2.413,14.8068932 2.24510678,14.639 2.038,14.639 C1.83089322,14.639 1.663,14.8068932 1.663,15.014 L1.663,41.014 C1.663,41.2211068 1.83089322,41.389 2.038,41.389 C2.24510678,41.389 2.413,41.2211068 2.413,41.014 Z" id="Stroke-2" fill="#D1D1D1" fill-rule="nonzero"></path>
                <path d="M76.413,41.014 L76.413,15.014 C76.413,14.8068932 76.2451068,14.639 76.038,14.639 C75.8308932,14.639 75.663,14.8068932 75.663,15.014 L75.663,41.014 C75.663,41.2211068 75.8308932,41.389 76.038,41.389 C76.2451068,41.389 76.413,41.2211068 76.413,41.014 Z" id="Stroke-3" fill="#D1D1D1" fill-rule="nonzero"></path>
                <path d="M150.413,41.014 L150.413,15.014 C150.413,14.8068932 150.245107,14.639 150.038,14.639 C149.830893,14.639 149.663,14.8068932 149.663,15.014 L149.663,41.014 C149.663,41.2211068 149.830893,41.389 150.038,41.389 C150.245107,41.389 150.413,41.2211068 150.413,41.014 Z" id="Stroke-4" fill="#D1D1D1" fill-rule="nonzero"></path>
                <path d="M224.413,41.014 L224.413,15.014 C224.413,14.8068932 224.245107,14.639 224.038,14.639 C223.830893,14.639 223.663,14.8068932 223.663,15.014 L223.663,41.014 C223.663,41.2211068 223.830893,41.389 224.038,41.389 C224.245107,41.389 224.413,41.2211068 224.413,41.014 Z" id="Stroke-5" fill="#D1D1D1" fill-rule="nonzero"></path>
                <path d="M299.413,41.014 L299.413,15.014 C299.413,14.8068932 299.245107,14.639 299.038,14.639 C298.830893,14.639 298.663,14.8068932 298.663,15.014 L298.663,41.014 C298.663,41.2211068 298.830893,41.389 299.038,41.389 C299.245107,41.389 299.413,41.2211068 299.413,41.014 Z" id="Stroke-6" fill="#D1D1D1" fill-rule="nonzero"></path>
                <path d="M245.193172,37.014 L79.8828276,37.014 C78.5931724,37.014 77.538,35.6835652 77.538,34.0574783 L77.538,22.9705217 C77.538,21.3451739 78.5931724,20.014 79.8828276,20.014 L245.193172,20.014 C246.482828,20.014 247.538,21.3451739 247.538,22.9705217 L247.538,34.0574783 C247.538,35.6835652 246.482828,37.014 245.193172,37.014" id="Fill-7" fill="#F9D3B9"></path>
                <path d="M230.330846,39.014 L182.745154,39.014 C181.531219,39.014 180.538,37.6806667 180.538,36.051037 L180.538,21.976963 C180.538,20.3480741 181.531219,19.014 182.745154,19.014 L230.330846,19.014 C231.544781,19.014 232.538,20.3480741 232.538,21.976963 L232.538,36.051037 C232.538,37.6806667 231.544781,39.014 230.330846,39.014" id="Fill-9" fill="#E55C00"></path>
                <path d="M261.492,60.793 C261.975002,60.793 262.368748,60.9802481 262.67325,61.35475 C262.977752,61.7292519 263.13,62.2629965 263.13,62.956 C263.13,63.6490035 262.977752,64.1862481 262.67325,64.56775 C262.368748,64.9492519 261.975002,65.14 261.492,65.14 C261.008998,65.14 260.615252,64.9492519 260.31075,64.56775 C260.006248,64.1862481 259.854,63.6490035 259.854,62.956 C259.854,62.2629965 260.006248,61.7292519 260.31075,61.35475 C260.615252,60.9802481 261.008998,60.793 261.492,60.793 Z M168.192,58.147 L168.192,62.095 C168.192,62.4660019 168.22525,62.7792487 168.29175,63.03475 C168.35825,63.2902513 168.452749,63.4949992 168.57525,63.649 C168.697751,63.8030008 168.842999,63.9132497 169.011,63.97975 C169.179001,64.0462503 169.367999,64.0795 169.578,64.0795 C169.788001,64.0795 169.980499,64.0462503 170.1555,63.97975 C170.330501,63.9132497 170.480999,63.8030008 170.607,63.649 C170.733001,63.4949992 170.831,63.2902513 170.901,63.03475 C170.971,62.7792487 171.006,62.4660019 171.006,62.095 L171.006,58.147 L172.1715,58.147 L172.1715,62.0005 C172.1715,62.5675028 172.112001,63.048748 171.993,63.44425 C171.873999,63.839752 171.700751,64.1634987 171.47325,64.4155 C171.245749,64.6675013 170.972752,64.8512494 170.65425,64.96675 C170.335748,65.0822506 169.977002,65.14 169.578,65.14 C169.178998,65.14 168.820252,65.0822506 168.50175,64.96675 C168.183248,64.8512494 167.910251,64.6675013 167.68275,64.4155 C167.455249,64.1634987 167.280251,63.839752 167.15775,63.44425 C167.035249,63.048748 166.974,62.5675028 166.974,62.0005 L166.974,58.147 L168.192,58.147 Z M234.939,63.502 C235.163001,63.502 235.348499,63.5789992 235.4955,63.733 C235.642501,63.8870008 235.716,64.0829988 235.716,64.321 C235.716,64.5590012 235.642501,64.7549992 235.4955,64.909 C235.348499,65.0630008 235.163001,65.14 234.939,65.14 C234.714999,65.14 234.527751,65.0630008 234.37725,64.909 C234.226749,64.7549992 234.1515,64.5590012 234.1515,64.321 C234.1515,64.0829988 234.226749,63.8870008 234.37725,63.733 C234.527751,63.5789992 234.714999,63.502 234.939,63.502 Z M175.8,58.021 C176.199002,58.021 176.583998,58.0997492 176.955,58.25725 C177.326002,58.4147508 177.644499,58.6264987 177.9105,58.8925 L177.291,59.6695 C177.066999,59.4874991 176.836001,59.3440005 176.598,59.239 C176.359999,59.1339995 176.094001,59.0815 175.8,59.0815 C175.470998,59.0815 175.208501,59.1532493 175.0125,59.29675 C174.816499,59.4402507 174.7185,59.6379987 174.7185,59.89 C174.7185,60.0230007 174.74825,60.1367495 174.80775,60.23125 C174.86725,60.3257505 174.94775,60.4097496 175.04925,60.48325 C175.150751,60.5567504 175.267999,60.6232497 175.401,60.68275 L175.603125,60.7706875 L176.745,61.2445 C176.948001,61.3285004 177.133499,61.4264994 177.3015,61.5385 C177.469501,61.6505006 177.614749,61.7799993 177.73725,61.927 C177.859751,62.0740007 177.956,62.243749 178.026,62.43625 C178.096,62.628751 178.131,62.8509987 178.131,63.103 C178.131,63.3830014 178.075001,63.6454988 177.963,63.8905 C177.850999,64.1355012 177.688251,64.3507491 177.47475,64.53625 C177.261249,64.7217509 177.002252,64.8687495 176.69775,64.97725 C176.393248,65.0857505 176.048502,65.14 175.6635,65.14 C175.201498,65.14 174.755252,65.0525009 174.32475,64.8775 C173.894248,64.7024991 173.514502,64.4540016 173.1855,64.132 L173.8995,63.3025 C174.144501,63.5335012 174.424498,63.7207493 174.7395,63.86425 C175.054502,64.0077507 175.369498,64.0795 175.6845,64.0795 C176.076502,64.0795 176.373999,63.9990008 176.577,63.838 C176.780001,63.6769992 176.8815,63.4635013 176.8815,63.1975 C176.8815,63.0574993 176.85525,62.9385005 176.80275,62.8405 C176.75025,62.7424995 176.67675,62.6567504 176.58225,62.58325 C176.48775,62.5097496 176.375751,62.4415003 176.24625,62.3785 L176.112667,62.3154999 L174.876,61.78 C174.707999,61.7099996 174.541751,61.6225005 174.37725,61.5175 C174.212749,61.4124995 174.064001,61.2865007 173.931,61.1395 C173.797999,60.9924993 173.69125,60.821001 173.61075,60.625 C173.53025,60.428999 173.49,60.2050013 173.49,59.953 C173.49,59.6799986 173.547749,59.4262512 173.66325,59.19175 C173.778751,58.9572488 173.937999,58.7525009 174.141,58.5775 C174.344001,58.4024991 174.587249,58.2660005 174.87075,58.168 C175.154251,58.0699995 175.463998,58.021 175.8,58.021 Z M261.261,58.021 L257.523,65.14 L256.7775,65.14 L260.526,58.021 L261.261,58.021 Z M159.2235,58.021 C159.643502,58.021 160.019748,58.1084991 160.35225,58.2835 C160.684752,58.4585009 160.959499,58.6614988 161.1765,58.8925 L160.494,59.6485 C160.318999,59.4734991 160.131751,59.3352505 159.93225,59.23375 C159.732749,59.1322495 159.500001,59.0815 159.234,59.0815 C158.946999,59.0815 158.686251,59.1392494 158.45175,59.25475 C158.217249,59.3702506 158.014251,59.5347489 157.84275,59.74825 C157.671249,59.9617511 157.53825,60.2224985 157.44375,60.5305 C157.34925,60.8385015 157.302,61.1849981 157.302,61.57 C157.302,62.3540039 157.471748,62.9682478 157.81125,63.41275 C158.150752,63.8572522 158.610997,64.0795 159.192,64.0795 C159.500002,64.0795 159.767749,64.0200006 159.99525,63.901 C160.222751,63.7819994 160.434499,63.6140011 160.6305,63.397 L161.313,64.1425 C161.032999,64.4645016 160.714502,64.7112491 160.3575,64.88275 C160.000498,65.0542509 159.605002,65.14 159.171,65.14 C158.729998,65.14 158.320502,65.0630008 157.9425,64.909 C157.564498,64.7549992 157.235501,64.5275015 156.9555,64.2265 C156.675499,63.9254985 156.455001,63.5545022 156.294,63.1135 C156.132999,62.6724978 156.0525,62.1685028 156.0525,61.6015 C156.0525,61.0414972 156.134749,60.5392522 156.29925,60.09475 C156.463751,59.6502478 156.689499,59.2740015 156.9765,58.966 C157.263501,58.6579985 157.599498,58.4235008 157.9845,58.2625 C158.369502,58.1014992 158.782498,58.021 159.2235,58.021 Z M183.534,58.147 L183.534,59.176 L181.5495,59.176 L181.5495,65.014 L180.3315,65.014 L180.3315,59.176 L178.347,59.176 L178.347,58.147 L183.534,58.147 Z M219.9165,58.147 L219.9165,65.014 L218.6985,65.014 L218.6985,58.147 L219.9165,58.147 Z M192.618,58.147 C192.975002,58.147 193.307498,58.1819996 193.6155,58.252 C193.923502,58.3220003 194.189499,58.4357492 194.4135,58.59325 C194.637501,58.7507508 194.814249,58.9589987 194.94375,59.218 C195.073251,59.4770013 195.138,59.7989981 195.138,60.184 C195.138,60.7090026 195.013751,61.1324984 194.76525,61.4545 C194.516749,61.7765016 194.186002,62.0074993 193.773,62.1475 L195.411,65.014 L194.046,65.014 L192.5655,62.326 L191.5155,62.326 L191.5155,65.014 L190.2975,65.014 L190.2975,58.147 L192.618,58.147 Z M210.654,58.147 L210.654,59.176 L207.735,59.176 L207.735,60.9295 L210.2025,60.9295 L210.2025,61.9585 L207.735,61.9585 L207.735,63.985 L210.759,63.985 L210.759,65.014 L206.517,65.014 L206.517,58.147 L210.654,58.147 Z M248.145,58.336 L248.145,62.3575 L248.985,62.3575 L248.985,63.292 L248.145,63.292 L248.145,65.014 L247.011,65.014 L247.011,63.292 L244.0605,63.292 L244.0605,62.473 L246.7065,58.336 L248.145,58.336 Z M224.4165,58.147 L226.653,65.014 L225.372,65.014 L224.8365,63.1555 L222.5265,63.1555 L221.991,65.014 L220.752,65.014 L222.9885,58.147 L224.4165,58.147 Z M213.9885,58.147 C215.038505,58.147 215.857497,58.4304972 216.4455,58.9975 C217.033503,59.5645028 217.3275,60.4149943 217.3275,61.549 C217.3275,62.1160028 217.252251,62.6164978 217.10175,63.0505 C216.951249,63.4845022 216.734251,63.8467485 216.45075,64.13725 C216.167249,64.4277515 215.824252,64.6464993 215.42175,64.7935 C215.019248,64.9405007 214.562503,65.014 214.0515,65.014 L212.151,65.014 L212.151,58.147 L213.9885,58.147 Z M228.738,58.147 L230.88,62.011 L231.5835,63.4705 L231.6255,63.4705 L231.5625,62.7215005 C231.550833,62.590834 231.538583,62.4572507 231.52575,62.32075 C231.48725,61.911248 231.468,61.5140019 231.468,61.129 L231.468,58.147 L232.6335,58.147 L232.6335,65.014 L231.384,65.014 L229.242,61.15 L228.5385,59.6905 L228.4965,59.6905 L228.5595,60.4418329 C228.571167,60.5709438 228.583417,60.7019993 228.59625,60.835 C228.63475,61.234002 228.654,61.6259981 228.654,62.011 L228.654,65.014 L227.4885,65.014 L227.4885,58.147 L228.738,58.147 Z M163.6605,58.147 L163.6605,63.985 L166.5165,63.985 L166.5165,65.014 L162.4425,65.014 L162.4425,58.147 L163.6605,58.147 Z M188.8005,58.147 L188.8005,59.176 L185.8815,59.176 L185.8815,60.9295 L188.349,60.9295 L188.349,61.9585 L185.8815,61.9585 L185.8815,63.985 L188.9055,63.985 L188.9055,65.014 L184.6635,65.014 L184.6635,58.147 L188.8005,58.147 Z M241.986,58.336 L241.986,64.027 L243.2985,64.027 L243.2985,65.014 L239.277,65.014 L239.277,64.027 L240.768,64.027 L240.768,59.638 L239.5395,59.638 L239.5395,58.882 C239.875502,58.8189997 240.164249,58.7437504 240.40575,58.65625 C240.647251,58.5687496 240.872999,58.4620006 241.083,58.336 L241.986,58.336 Z M200.0535,58.147 L201.2925,61.528 L201.744,62.83 L201.786,62.83 L202.227,61.528 L203.445,58.147 L204.789,58.147 L204.789,65.014 L203.6445,65.014 L203.6445,61.8745 L203.6515,61.5338336 L203.66025,61.3495 C203.67075,61.1604991 203.683,60.969751 203.697,60.77725 L203.720625,60.491125 L203.802,59.6905 L203.76,59.6905 L203.2035,61.255 L202.017,64.3735 L201.45,64.3735 L200.2635,61.255 L199.7175,59.6905 L199.6755,59.6905 L199.77525,60.77725 C199.79275,60.969751 199.80675,61.1604991 199.81725,61.3495 C199.82775,61.5385009 199.833,61.7134992 199.833,61.8745 L199.833,65.014 L198.7095,65.014 L198.7095,58.147 L200.0535,58.147 Z M251.721,58.21 C252.043002,58.21 252.333499,58.2589995 252.5925,58.357 C252.851501,58.4550005 253.071999,58.5932491 253.254,58.77175 C253.436001,58.9502509 253.577749,59.1654987 253.67925,59.4175 C253.780751,59.6695013 253.8315,59.9494985 253.8315,60.2575 C253.8315,60.5515015 253.766751,60.8507485 253.63725,61.15525 C253.507749,61.4597515 253.332751,61.7677484 253.11225,62.07925 C252.891749,62.3907516 252.634501,62.7109984 252.3405,63.04 C252.046499,63.3690016 251.735002,63.7084982 251.406,64.0585 L251.973,64.01125 C252.176001,63.9937499 252.357999,63.985 252.519,63.985 L254.157,63.985 L254.157,65.014 L249.642,65.014 L249.642,64.3105 L250.42635,63.5419002 C250.590149,63.3795005 250.746949,63.2227008 250.89675,63.0715 C251.271252,62.6934981 251.589749,62.3435016 251.85225,62.0215 C252.114751,61.6994984 252.315999,61.3985014 252.456,61.1185 C252.596001,60.8384986 252.666,60.5725013 252.666,60.3205 C252.666,59.9634982 252.571501,59.681751 252.3825,59.47525 C252.193499,59.268749 251.920502,59.1655 251.5635,59.1655 C251.304499,59.1655 251.068251,59.2389993 250.85475,59.386 C250.641249,59.5330007 250.443501,59.707999 250.2615,59.911 L249.5895,59.239 C249.897502,58.9099984 250.214248,58.6562509 250.53975,58.47775 C250.865252,58.2992491 251.258998,58.21 251.721,58.21 Z M261.492,61.4965 C261.267999,61.4965 261.084251,61.6102489 260.94075,61.83775 C260.797249,62.0652511 260.7255,62.4379974 260.7255,62.956 C260.7255,63.4740026 260.797249,63.8502488 260.94075,64.08475 C261.084251,64.3192512 261.267999,64.4365 261.492,64.4365 C261.716001,64.4365 261.899749,64.3192512 262.04325,64.08475 C262.186751,63.8502488 262.2585,63.4740026 262.2585,62.956 C262.2585,62.4379974 262.186751,62.0652511 262.04325,61.83775 C261.899749,61.6102489 261.716001,61.4965 261.492,61.4965 Z M213.9045,59.134 L213.369,59.134 L213.369,64.027 L213.9045,64.027 C214.604504,64.027 215.141748,63.825752 215.51625,63.42325 C215.890752,63.020748 216.078,62.3960042 216.078,61.549 C216.078,60.7089958 215.889002,60.0965019 215.511,59.7115 C215.132998,59.3264981 214.597503,59.134 213.9045,59.134 Z M256.5675,58.021 C257.050502,58.021 257.444248,58.2082481 257.74875,58.58275 C258.053252,58.9572519 258.2055,59.4909965 258.2055,60.184 C258.2055,60.8770035 258.053252,61.4142481 257.74875,61.79575 C257.444248,62.1772519 257.050502,62.368 256.5675,62.368 C256.084498,62.368 255.690752,62.1772519 255.38625,61.79575 C255.081748,61.4142481 254.9295,60.8770035 254.9295,60.184 C254.9295,59.4909965 255.081748,58.9572519 255.38625,58.58275 C255.690752,58.2082481 256.084498,58.021 256.5675,58.021 Z M247.0635,59.4595 L247.0215,59.4595 C246.9375,59.6345009 246.85,59.8059992 246.759,59.974 L246.4755,60.499 L245.2575,62.3575 L247.011,62.3575 L247.011,60.8455 C247.011,60.6984993 247.013953,60.5318129 247.019859,60.3454379 L247.043812,59.7797499 C247.049937,59.6642502 247.0565,59.5575005 247.0635,59.4595 Z M223.7025,59.092 L223.6605,59.092 L223.3665,60.24175 C223.2685,60.6232519 223.163501,60.9959982 223.0515,61.36 L222.81,62.2 L224.5635,62.2 L224.322,61.36 C224.209999,60.9959982 224.103251,60.6215019 224.00175,60.2365 L223.7025,59.092 Z M256.5675,58.7245 C256.343499,58.7245 256.159751,58.8382489 256.01625,59.06575 C255.872749,59.2932511 255.801,59.6659974 255.801,60.184 C255.801,60.7020026 255.872749,61.0782488 256.01625,61.31275 C256.159751,61.5472512 256.343499,61.6645 256.5675,61.6645 C256.791501,61.6645 256.975249,61.5472512 257.11875,61.31275 C257.262251,61.0782488 257.334,60.7020026 257.334,60.184 C257.334,59.6659974 257.262251,59.2932511 257.11875,59.06575 C256.975249,58.8382489 256.791501,58.7245 256.5675,58.7245 Z M234.939,59.911 C235.163001,59.911 235.348499,59.9879992 235.4955,60.142 C235.642501,60.2960008 235.716,60.4919988 235.716,60.73 C235.716,60.9680012 235.642501,61.1639992 235.4955,61.318 C235.348499,61.4720008 235.163001,61.549 234.939,61.549 C234.714999,61.549 234.527751,61.4720008 234.37725,61.318 C234.226749,61.1639992 234.1515,60.9680012 234.1515,60.73 C234.1515,60.4919988 234.226749,60.2960008 234.37725,60.142 C234.527751,59.9879992 234.714999,59.911 234.939,59.911 Z M192.492,59.1235 L191.5155,59.1235 L191.5155,61.36 L192.492,61.36 C192.961002,61.36 193.319749,61.262001 193.56825,61.066 C193.816751,60.869999 193.941,60.576002 193.941,60.184 C193.941,59.784998 193.816751,59.5085008 193.56825,59.3545 C193.319749,59.2004992 192.961002,59.1235 192.492,59.1235 Z" id="Combined-Shape" fill="#E55C00" fill-rule="nonzero"></path>
                <path d="M205.038,42.871761 C204.23327,43.6253214 202.64229,43.9844345 201.538,44.014 C203.020398,42.9806486 204.313358,41.6379409 205.038,40.014 C205.731839,41.6379409 207.103347,42.9215176 208.538,44.014 C207.355932,43.9253034 205.920508,43.654887 205.038,42.871761" id="Fill-13" fill="#636363"></path>
                <path d="M208.2725,23.05 L203.5205,32.176 L202.373,32.176 L207.125,23.05 L208.2725,23.05 Z M208.5695,26.587 C208.884502,26.587 209.176999,26.6499994 209.447,26.776 C209.717001,26.9020006 209.948749,27.0842488 210.14225,27.32275 C210.335751,27.5612512 210.488749,27.8514983 210.60125,28.1935 C210.713751,28.5355017 210.77,28.9269978 210.77,29.368 C210.77,29.8090022 210.713751,30.2027483 210.60125,30.54925 C210.488749,30.8957517 210.335751,31.1904988 210.14225,31.4335 C209.948749,31.6765012 209.717001,31.8609994 209.447,31.987 C209.176999,32.1130006 208.884502,32.176 208.5695,32.176 C208.254498,32.176 207.962001,32.1130006 207.692,31.987 C207.421999,31.8609994 207.190251,31.6765012 206.99675,31.4335 C206.803249,31.1904988 206.652501,30.8957517 206.5445,30.54925 C206.436499,30.2027483 206.3825,29.8090022 206.3825,29.368 C206.3825,28.9269978 206.436499,28.5355017 206.5445,28.1935 C206.652501,27.8514983 206.803249,27.5612512 206.99675,27.32275 C207.190251,27.0842488 207.421999,26.9020006 207.692,26.776 C207.962001,26.6499994 208.254498,26.587 208.5695,26.587 Z M208.5695,27.694 C208.344499,27.694 208.153251,27.8154988 207.99575,28.0585 C207.838249,28.3015012 207.7595,28.7379969 207.7595,29.368 C207.7595,29.9980031 207.838249,30.4389987 207.99575,30.691 C208.153251,30.9430013 208.344499,31.069 208.5695,31.069 C208.794501,31.069 208.985749,30.9430013 209.14325,30.691 C209.300751,30.4389987 209.3795,29.9980031 209.3795,29.368 C209.3795,28.7379969 209.300751,28.3015012 209.14325,28.0585 C208.985749,27.8154988 208.794501,27.694 208.5695,27.694 Z M202.076,23.05 C202.391002,23.05 202.683499,23.1129994 202.9535,23.239 C203.223501,23.3650006 203.455249,23.5472488 203.64875,23.78575 C203.842251,24.0242512 203.995249,24.3144983 204.10775,24.6565 C204.220251,24.9985017 204.2765,25.3899978 204.2765,25.831 C204.2765,26.2720022 204.220251,26.6657483 204.10775,27.01225 C203.995249,27.3587517 203.842251,27.6534988 203.64875,27.8965 C203.455249,28.1395012 203.223501,28.3239994 202.9535,28.45 C202.683499,28.5760006 202.391002,28.639 202.076,28.639 C201.760998,28.639 201.468501,28.5760006 201.1985,28.45 C200.928499,28.3239994 200.696751,28.1395012 200.50325,27.8965 C200.309749,27.6534988 200.159001,27.3587517 200.051,27.01225 C199.942999,26.6657483 199.889,26.2720022 199.889,25.831 C199.889,25.3899978 199.942999,24.9985017 200.051,24.6565 C200.159001,24.3144983 200.309749,24.0242512 200.50325,23.78575 C200.696751,23.5472488 200.928499,23.3650006 201.1985,23.239 C201.468501,23.1129994 201.760998,23.05 202.076,23.05 Z M202.076,24.157 C201.850999,24.157 201.659751,24.2784988 201.50225,24.5215 C201.344749,24.7645012 201.266,25.2009968 201.266,25.831 C201.266,26.4610031 201.344749,26.9019987 201.50225,27.154 C201.659751,27.4060013 201.850999,27.532 202.076,27.532 C202.301001,27.532 202.492249,27.4060013 202.64975,27.154 C202.807251,26.9019987 202.886,26.4610031 202.886,25.831 C202.886,25.2009968 202.807251,24.7645012 202.64975,24.5215 C202.492249,24.2784988 202.301001,24.157 202.076,24.157 Z" id="Combined-Shape" fill="#FFFFFF" fill-rule="nonzero"></path>
                <path d="M11.2365,1.13686838e-13 L7.4355,7.14 L6.8475,7.14 L10.6485,1.13686838e-13 L11.2365,1.13686838e-13 Z M237.6135,1.13686838e-13 L233.8125,7.14 L233.2245,7.14 L237.0255,1.13686838e-13 L237.6135,1.13686838e-13 Z M86.425,1.13686838e-13 L82.624,7.14 L82.036,7.14 L85.837,1.13686838e-13 L86.425,1.13686838e-13 Z M160.6135,1.13686838e-13 L156.8125,7.14 L156.2245,7.14 L160.0255,1.13686838e-13 L160.6135,1.13686838e-13 Z M302.6135,1.13686838e-13 L298.8125,7.14 L298.2245,7.14 L302.0255,1.13686838e-13 L302.6135,1.13686838e-13 Z M73.9165,0.315 L73.9165,1.0605 L71.323,1.0605 L71.1445,3.045 C71.3055008,2.96099958 71.4664992,2.89450025 71.6275,2.8455 C71.7885008,2.79649976 71.970499,2.772 72.1735,2.772 C72.4605014,2.772 72.7299987,2.81399958 72.982,2.898 C73.2340013,2.98200042 73.4544991,3.10974914 73.6435,3.28125 C73.8325009,3.45275086 73.9812495,3.66974869 74.08975,3.93225 C74.1982505,4.19475131 74.2525,4.50799818 74.2525,4.872 C74.2525,5.23600182 74.1895006,5.5579986 74.0635,5.838 C73.9374994,6.1180014 73.7695011,6.35424904 73.5595,6.54675 C73.349499,6.73925096 73.1097513,6.88624949 72.84025,6.98775 C72.5707487,7.08925051 72.2890015,7.14 71.995,7.14 C71.7289987,7.14 71.4857511,7.11375026 71.26525,7.06125 C71.0447489,7.00874974 70.8452509,6.94050042 70.66675,6.8565 C70.4882491,6.77249958 70.3272507,6.67625054 70.18375,6.56775 C70.0402493,6.45924946 69.9125006,6.3455006 69.8005,6.2265 L70.2205,5.6595 C70.416501,5.86250102 70.6492487,6.04099923 70.91875,6.195 C71.1882513,6.34900077 71.518998,6.426 71.911,6.426 C72.114001,6.426 72.3047491,6.38925037 72.48325,6.31575 C72.6617509,6.24224963 72.8174993,6.13900067 72.9505,6.006 C73.0835007,5.87299934 73.1884996,5.71200095 73.2655,5.523 C73.3425004,5.33399906 73.381,5.12400116 73.381,4.893 C73.381,4.43099769 73.2515013,4.0705013 72.9925,3.8115 C72.7334987,3.55249871 72.3870022,3.423 71.953,3.423 C71.7219988,3.423 71.5242508,3.45799965 71.35975,3.528 C71.1952492,3.59800035 71.011501,3.69949934 70.8085,3.8325 L70.3465,3.5385 L70.567,0.315 L73.9165,0.315 Z M225.105,0.315 L225.105,1.0605 L222.5115,1.0605 L222.333,3.045 C222.494001,2.96099958 222.654999,2.89450025 222.816,2.8455 C222.977001,2.79649976 223.158999,2.772 223.362,2.772 C223.649001,2.772 223.918499,2.81399958 224.1705,2.898 C224.422501,2.98200042 224.642999,3.10974914 224.832,3.28125 C225.021001,3.45275086 225.169749,3.66974869 225.27825,3.93225 C225.386751,4.19475131 225.441,4.50799818 225.441,4.872 C225.441,5.23600182 225.378001,5.5579986 225.252,5.838 C225.125999,6.1180014 224.958001,6.35424904 224.748,6.54675 C224.537999,6.73925096 224.298251,6.88624949 224.02875,6.98775 C223.759249,7.08925051 223.477501,7.14 223.1835,7.14 C222.917499,7.14 222.674251,7.11375026 222.45375,7.06125 C222.233249,7.00874974 222.033751,6.94050042 221.85525,6.8565 C221.676749,6.77249958 221.515751,6.67625054 221.37225,6.56775 C221.228749,6.45924946 221.101001,6.3455006 220.989,6.2265 L221.409,5.6595 C221.605001,5.86250102 221.837749,6.04099923 222.10725,6.195 C222.376751,6.34900077 222.707498,6.426 223.0995,6.426 C223.302501,6.426 223.493249,6.38925037 223.67175,6.31575 C223.850251,6.24224963 224.005999,6.13900067 224.139,6.006 C224.272001,5.87299934 224.377,5.71200095 224.454,5.523 C224.531,5.33399906 224.5695,5.12400116 224.5695,4.893 C224.5695,4.43099769 224.440001,4.0705013 224.181,3.8115 C223.921999,3.55249871 223.575502,3.423 223.1415,3.423 C222.910499,3.423 222.712751,3.45799965 222.54825,3.528 C222.383749,3.59800035 222.200001,3.69949934 221.997,3.8325 L221.535,3.5385 L221.7555,0.315 L225.105,0.315 Z M11.457,2.793 C11.9260023,2.793 12.3039986,2.98024813 12.591,3.35475 C12.8780014,3.72925187 13.0215,4.26299654 13.0215,4.956 C13.0215,5.6560035 12.8780014,6.19499811 12.591,6.573 C12.3039986,6.95100189 11.9260023,7.14 11.457,7.14 C10.9809976,7.14 10.6012514,6.95100189 10.31775,6.573 C10.0342486,6.19499811 9.8925,5.6560035 9.8925,4.956 C9.8925,4.26299654 10.0342486,3.72925187 10.31775,3.35475 C10.6012514,2.98024813 10.9809976,2.793 11.457,2.793 Z M151.5295,0.189 C152.201503,0.189 152.726498,0.48299706 153.1045,1.071 C153.482502,1.65900294 153.6715,2.51649437 153.6715,3.6435 C153.6715,4.77050564 153.482502,5.63499699 153.1045,6.237 C152.726498,6.83900301 152.201503,7.14 151.5295,7.14 C150.850497,7.14 150.322002,6.83900301 149.944,6.237 C149.565998,5.63499699 149.377,4.77050564 149.377,3.6435 C149.377,2.51649437 149.565998,1.65900294 149.944,1.071 C150.322002,0.48299706 150.850497,0.189 151.5295,0.189 Z M2.1525,0.189 C2.82450336,0.189 3.34949811,0.48299706 3.7275,1.071 C4.10550189,1.65900294 4.2945,2.51649437 4.2945,3.6435 C4.2945,4.77050564 4.10550189,5.63499699 3.7275,6.237 C3.34949811,6.83900301 2.82450336,7.14 2.1525,7.14 C1.47349661,7.14 0.94500189,6.83900301 0.567,6.237 C0.18899811,5.63499699 6.82121026e-13,4.77050564 6.82121026e-13,3.6435 C6.82121026e-13,2.51649437 0.18899811,1.65900294 0.567,1.071 C0.94500189,0.48299706 1.47349661,0.189 2.1525,0.189 Z M288.341,0.189 C289.013003,0.189 289.537998,0.48299706 289.916,1.071 C290.294002,1.65900294 290.483,2.51649437 290.483,3.6435 C290.483,4.77050564 290.294002,5.63499699 289.916,6.237 C289.537998,6.83900301 289.013003,7.14 288.341,7.14 C287.661997,7.14 287.133502,6.83900301 286.7555,6.237 C286.377498,5.63499699 286.1885,4.77050564 286.1885,3.6435 C286.1885,2.51649437 286.377498,1.65900294 286.7555,1.071 C287.133502,0.48299706 287.661997,0.189 288.341,0.189 Z M293.5295,0.189 C294.201503,0.189 294.726498,0.48299706 295.1045,1.071 C295.482502,1.65900294 295.6715,2.51649437 295.6715,3.6435 C295.6715,4.77050564 295.482502,5.63499699 295.1045,6.237 C294.726498,6.83900301 294.201503,7.14 293.5295,7.14 C292.850497,7.14 292.322002,6.83900301 291.944,6.237 C291.565998,5.63499699 291.377,4.77050564 291.377,3.6435 C291.377,2.51649437 291.565998,1.65900294 291.944,1.071 C292.322002,0.48299706 292.850497,0.189 293.5295,0.189 Z M86.6455,2.793 C87.1145023,2.793 87.4924986,2.98024813 87.7795,3.35475 C88.0665014,3.72925187 88.21,4.26299654 88.21,4.956 C88.21,5.6560035 88.0665014,6.19499811 87.7795,6.573 C87.4924986,6.95100189 87.1145023,7.14 86.6455,7.14 C86.1694976,7.14 85.7897514,6.95100189 85.50625,6.573 C85.2227486,6.19499811 85.081,5.6560035 85.081,4.956 C85.081,4.26299654 85.2227486,3.72925187 85.50625,3.35475 C85.7897514,2.98024813 86.1694976,2.793 86.6455,2.793 Z M302.834,2.793 C303.303002,2.793 303.680999,2.98024813 303.968,3.35475 C304.255001,3.72925187 304.3985,4.26299654 304.3985,4.956 C304.3985,5.6560035 304.255001,6.19499811 303.968,6.573 C303.680999,6.95100189 303.303002,7.14 302.834,7.14 C302.357998,7.14 301.978251,6.95100189 301.69475,6.573 C301.411249,6.19499811 301.2695,5.6560035 301.2695,4.956 C301.2695,4.26299654 301.411249,3.72925187 301.69475,3.35475 C301.978251,2.98024813 302.357998,2.793 302.834,2.793 Z M228.5295,0.189 C229.201503,0.189 229.726498,0.48299706 230.1045,1.071 C230.482502,1.65900294 230.6715,2.51649437 230.6715,3.6435 C230.6715,4.77050564 230.482502,5.63499699 230.1045,6.237 C229.726498,6.83900301 229.201503,7.14 228.5295,7.14 C227.850497,7.14 227.322002,6.83900301 226.944,6.237 C226.565998,5.63499699 226.377,4.77050564 226.377,3.6435 C226.377,2.51649437 226.565998,1.65900294 226.944,1.071 C227.322002,0.48299706 227.850497,0.189 228.5295,0.189 Z M237.834,2.793 C238.303002,2.793 238.680999,2.98024813 238.968,3.35475 C239.255001,3.72925187 239.3985,4.26299654 239.3985,4.956 C239.3985,5.6560035 239.255001,6.19499811 238.968,6.573 C238.680999,6.95100189 238.303002,7.14 237.834,7.14 C237.357998,7.14 236.978251,6.95100189 236.69475,6.573 C236.411249,6.19499811 236.2695,5.6560035 236.2695,4.956 C236.2695,4.26299654 236.411249,3.72925187 236.69475,3.35475 C236.978251,2.98024813 237.357998,2.793 237.834,2.793 Z M77.341,0.189 C78.0130034,0.189 78.5379981,0.48299706 78.916,1.071 C79.2940019,1.65900294 79.483,2.51649437 79.483,3.6435 C79.483,4.77050564 79.2940019,5.63499699 78.916,6.237 C78.5379981,6.83900301 78.0130034,7.14 77.341,7.14 C76.6619966,7.14 76.1335019,6.83900301 75.7555,6.237 C75.3774981,5.63499699 75.1885,4.77050564 75.1885,3.6435 C75.1885,2.51649437 75.3774981,1.65900294 75.7555,1.071 C76.1335019,0.48299706 76.6619966,0.189 77.341,0.189 Z M146.341,0.189 C147.013003,0.189 147.537998,0.48299706 147.916,1.071 C148.294002,1.65900294 148.483,2.51649437 148.483,3.6435 C148.483,4.77050564 148.294002,5.63499699 147.916,6.237 C147.537998,6.83900301 147.013003,7.14 146.341,7.14 C145.661997,7.14 145.133502,6.83900301 144.7555,6.237 C144.377498,5.63499699 144.1885,4.77050564 144.1885,3.6435 C144.1885,2.51649437 144.377498,1.65900294 144.7555,1.071 C145.133502,0.48299706 145.661997,0.189 146.341,0.189 Z M160.834,2.793 C161.303002,2.793 161.680999,2.98024813 161.968,3.35475 C162.255001,3.72925187 162.3985,4.26299654 162.3985,4.956 C162.3985,5.6560035 162.255001,6.19499811 161.968,6.573 C161.680999,6.95100189 161.303002,7.14 160.834,7.14 C160.357998,7.14 159.978251,6.95100189 159.69475,6.573 C159.411249,6.19499811 159.2695,5.6560035 159.2695,4.956 C159.2695,4.26299654 159.411249,3.72925187 159.69475,3.35475 C159.978251,2.98024813 160.357998,2.793 160.834,2.793 Z M282.9425,0.189 C283.565503,0.189 284.055498,0.369248198 284.4125,0.72975 C284.769502,1.0902518 284.948,1.56799703 284.948,2.163 C284.948,2.47800158 284.879751,2.79474841 284.74325,3.11325 C284.606749,3.43175159 284.417751,3.7607483 284.17625,4.10025 C283.934749,4.4397517 283.647752,4.79324816 283.31525,5.16075 L282.791563,5.72906241 C282.608688,5.92418693 282.417501,6.12499897 282.218,6.3315 L282.785,6.2895 C282.981001,6.27549993 283.166499,6.2685 283.3415,6.2685 L285.284,6.2685 L285.284,7.014 L280.958,7.014 L280.958,6.4995 L281.80472,5.64522015 C281.979439,5.46714057 282.145199,5.29690081 282.302,5.1345 C282.694002,4.72849797 283.022999,4.35225173 283.289,4.00575 C283.555001,3.65924827 283.757999,3.34075145 283.898,3.05025 C284.038001,2.75974855 284.108,2.47800137 284.108,2.205 C284.108,1.81999808 284.003001,1.50500123 283.793,1.26 C283.582999,1.01499878 283.264502,0.8925 282.8375,0.8925 C282.557499,0.8925 282.298501,0.971249213 282.0605,1.12875 C281.822499,1.28625079 281.605501,1.47699888 281.4095,1.701 L280.916,1.2075 C281.196001,0.89949846 281.493498,0.652750928 281.8085,0.46725 C282.123502,0.281749073 282.501498,0.189 282.9425,0.189 Z M218.7615,0.315 L218.7615,6.3 L220.1475,6.3 L220.1475,7.014 L216.3675,7.014 L216.3675,6.3 L217.9005,6.3 L217.9005,1.365 L216.6825,1.365 L216.6825,0.8085 C216.990502,0.75249972 217.258249,0.684250402 217.48575,0.60375 C217.713251,0.523249598 217.917999,0.42700056 218.1,0.315 L218.7615,0.315 Z M141.7615,0.315 L141.7615,6.3 L143.1475,6.3 L143.1475,7.014 L139.3675,7.014 L139.3675,6.3 L140.9005,6.3 L140.9005,1.365 L139.6825,1.365 L139.6825,0.8085 C139.990502,0.75249972 140.258249,0.684250402 140.48575,0.60375 C140.713251,0.523249598 140.917999,0.42700056 141.1,0.315 L141.7615,0.315 Z M302.834,3.3285 C302.560999,3.3285 302.340501,3.46324865 302.1725,3.73275 C302.004499,4.00225135 301.9205,4.40999727 301.9205,4.956 C301.9205,5.50200273 302.004499,5.91324862 302.1725,6.18975 C302.340501,6.46625138 302.560999,6.6045 302.834,6.6045 C303.100001,6.6045 303.316999,6.46625138 303.485,6.18975 C303.653001,5.91324862 303.737,5.50200273 303.737,4.956 C303.737,4.40999727 303.653001,4.00225135 303.485,3.73275 C303.316999,3.46324865 303.100001,3.3285 302.834,3.3285 Z M86.6455,3.3285 C86.3724986,3.3285 86.1520008,3.46324865 85.984,3.73275 C85.8159992,4.00225135 85.732,4.40999727 85.732,4.956 C85.732,5.50200273 85.8159992,5.91324862 85.984,6.18975 C86.1520008,6.46625138 86.3724986,6.6045 86.6455,6.6045 C86.9115013,6.6045 87.1284992,6.46625138 87.2965,6.18975 C87.4645008,5.91324862 87.5485,5.50200273 87.5485,4.956 C87.5485,4.40999727 87.4645008,4.00225135 87.2965,3.73275 C87.1284992,3.46324865 86.9115013,3.3285 86.6455,3.3285 Z M11.457,3.3285 C11.1839986,3.3285 10.9635008,3.46324865 10.7955,3.73275 C10.6274992,4.00225135 10.5435,4.40999727 10.5435,4.956 C10.5435,5.50200273 10.6274992,5.91324862 10.7955,6.18975 C10.9635008,6.46625138 11.1839986,6.6045 11.457,6.6045 C11.7230013,6.6045 11.9399992,6.46625138 12.108,6.18975 C12.2760008,5.91324862 12.36,5.50200273 12.36,4.956 C12.36,4.40999727 12.2760008,4.00225135 12.108,3.73275 C11.9399992,3.46324865 11.7230013,3.3285 11.457,3.3285 Z M160.834,3.3285 C160.560999,3.3285 160.340501,3.46324865 160.1725,3.73275 C160.004499,4.00225135 159.9205,4.40999727 159.9205,4.956 C159.9205,5.50200273 160.004499,5.91324862 160.1725,6.18975 C160.340501,6.46625138 160.560999,6.6045 160.834,6.6045 C161.100001,6.6045 161.316999,6.46625138 161.485,6.18975 C161.653001,5.91324862 161.737,5.50200273 161.737,4.956 C161.737,4.40999727 161.653001,4.00225135 161.485,3.73275 C161.316999,3.46324865 161.100001,3.3285 160.834,3.3285 Z M237.834,3.3285 C237.560999,3.3285 237.340501,3.46324865 237.1725,3.73275 C237.004499,4.00225135 236.9205,4.40999727 236.9205,4.956 C236.9205,5.50200273 237.004499,5.91324862 237.1725,6.18975 C237.340501,6.46625138 237.560999,6.6045 237.834,6.6045 C238.100001,6.6045 238.316999,6.46625138 238.485,6.18975 C238.653001,5.91324862 238.737,5.50200273 238.737,4.956 C238.737,4.40999727 238.653001,4.00225135 238.485,3.73275 C238.316999,3.46324865 238.100001,3.3285 237.834,3.3285 Z M77.341,0.882 C77.144999,0.882 76.9665008,0.934499475 76.8055,1.0395 C76.6444992,1.14450053 76.5062506,1.3072489 76.39075,1.52775 C76.2752494,1.7482511 76.1860003,2.03349825 76.123,2.3835 C76.0599997,2.73350175 76.0285,3.15349755 76.0285,3.6435 C76.0285,4.6235049 76.1492488,5.33574778 76.39075,5.78025 C76.6322512,6.22475222 76.948998,6.447 77.341,6.447 C77.537001,6.447 77.7137492,6.39275054 77.87125,6.28425 C78.0287508,6.17574946 78.1652494,6.00775114 78.28075,5.78025 C78.3962506,5.55274886 78.4854997,5.26225177 78.5485,4.90875 C78.6115003,4.55524823 78.643,4.13350245 78.643,3.6435 C78.643,3.15349755 78.6115003,2.73350175 78.5485,2.3835 C78.4854997,2.03349825 78.3962506,1.7482511 78.28075,1.52775 C78.1652494,1.3072489 78.0287508,1.14450053 77.87125,1.0395 C77.7137492,0.934499475 77.537001,0.882 77.341,0.882 Z M293.5295,0.882 C293.333499,0.882 293.155001,0.934499475 292.994,1.0395 C292.832999,1.14450053 292.694751,1.3072489 292.57925,1.52775 C292.463749,1.7482511 292.3745,2.03349825 292.3115,2.3835 C292.2485,2.73350175 292.217,3.15349755 292.217,3.6435 C292.217,4.6235049 292.337749,5.33574778 292.57925,5.78025 C292.820751,6.22475222 293.137498,6.447 293.5295,6.447 C293.725501,6.447 293.902249,6.39275054 294.05975,6.28425 C294.217251,6.17574946 294.353749,6.00775114 294.46925,5.78025 C294.584751,5.55274886 294.674,5.26225177 294.737,4.90875 C294.8,4.55524823 294.8315,4.13350245 294.8315,3.6435 C294.8315,3.15349755 294.8,2.73350175 294.737,2.3835 C294.674,2.03349825 294.584751,1.7482511 294.46925,1.52775 C294.353749,1.3072489 294.217251,1.14450053 294.05975,1.0395 C293.902249,0.934499475 293.725501,0.882 293.5295,0.882 Z M2.1525,0.882 C1.95649902,0.882 1.77800081,0.934499475 1.617,1.0395 C1.4559992,1.14450053 1.31775058,1.3072489 1.20225,1.52775 C1.08674942,1.7482511 0.997500315,2.03349825 0.9345,2.3835 C0.871499685,2.73350175 0.84,3.15349755 0.84,3.6435 C0.84,4.6235049 0.960748793,5.33574778 1.20225,5.78025 C1.44375121,6.22475222 1.76049804,6.447 2.1525,6.447 C2.34850098,6.447 2.52524921,6.39275054 2.68275,6.28425 C2.84025079,6.17574946 2.97674942,6.00775114 3.09225,5.78025 C3.20775058,5.55274886 3.29699969,5.26225177 3.36,4.90875 C3.42300032,4.55524823 3.4545,4.13350245 3.4545,3.6435 C3.4545,3.15349755 3.42300032,2.73350175 3.36,2.3835 C3.29699969,2.03349825 3.20775058,1.7482511 3.09225,1.52775 C2.97674942,1.3072489 2.84025079,1.14450053 2.68275,1.0395 C2.52524921,0.934499475 2.34850098,0.882 2.1525,0.882 Z M228.5295,0.882 C228.333499,0.882 228.155001,0.934499475 227.994,1.0395 C227.832999,1.14450053 227.694751,1.3072489 227.57925,1.52775 C227.463749,1.7482511 227.3745,2.03349825 227.3115,2.3835 C227.2485,2.73350175 227.217,3.15349755 227.217,3.6435 C227.217,4.6235049 227.337749,5.33574778 227.57925,5.78025 C227.820751,6.22475222 228.137498,6.447 228.5295,6.447 C228.725501,6.447 228.902249,6.39275054 229.05975,6.28425 C229.217251,6.17574946 229.353749,6.00775114 229.46925,5.78025 C229.584751,5.55274886 229.674,5.26225177 229.737,4.90875 C229.8,4.55524823 229.8315,4.13350245 229.8315,3.6435 C229.8315,3.15349755 229.8,2.73350175 229.737,2.3835 C229.674,2.03349825 229.584751,1.7482511 229.46925,1.52775 C229.353749,1.3072489 229.217251,1.14450053 229.05975,1.0395 C228.902249,0.934499475 228.725501,0.882 228.5295,0.882 Z M146.341,0.882 C146.144999,0.882 145.966501,0.934499475 145.8055,1.0395 C145.644499,1.14450053 145.506251,1.3072489 145.39075,1.52775 C145.275249,1.7482511 145.186,2.03349825 145.123,2.3835 C145.06,2.73350175 145.0285,3.15349755 145.0285,3.6435 C145.0285,4.6235049 145.149249,5.33574778 145.39075,5.78025 C145.632251,6.22475222 145.948998,6.447 146.341,6.447 C146.537001,6.447 146.713749,6.39275054 146.87125,6.28425 C147.028751,6.17574946 147.165249,6.00775114 147.28075,5.78025 C147.396251,5.55274886 147.4855,5.26225177 147.5485,4.90875 C147.6115,4.55524823 147.643,4.13350245 147.643,3.6435 C147.643,3.15349755 147.6115,2.73350175 147.5485,2.3835 C147.4855,2.03349825 147.396251,1.7482511 147.28075,1.52775 C147.165249,1.3072489 147.028751,1.14450053 146.87125,1.0395 C146.713749,0.934499475 146.537001,0.882 146.341,0.882 Z M288.341,0.882 C288.144999,0.882 287.966501,0.934499475 287.8055,1.0395 C287.644499,1.14450053 287.506251,1.3072489 287.39075,1.52775 C287.275249,1.7482511 287.186,2.03349825 287.123,2.3835 C287.06,2.73350175 287.0285,3.15349755 287.0285,3.6435 C287.0285,4.6235049 287.149249,5.33574778 287.39075,5.78025 C287.632251,6.22475222 287.948998,6.447 288.341,6.447 C288.537001,6.447 288.713749,6.39275054 288.87125,6.28425 C289.028751,6.17574946 289.165249,6.00775114 289.28075,5.78025 C289.396251,5.55274886 289.4855,5.26225177 289.5485,4.90875 C289.6115,4.55524823 289.643,4.13350245 289.643,3.6435 C289.643,3.15349755 289.6115,2.73350175 289.5485,2.3835 C289.4855,2.03349825 289.396251,1.7482511 289.28075,1.52775 C289.165249,1.3072489 289.028751,1.14450053 288.87125,1.0395 C288.713749,0.934499475 288.537001,0.882 288.341,0.882 Z M151.5295,0.882 C151.333499,0.882 151.155001,0.934499475 150.994,1.0395 C150.832999,1.14450053 150.694751,1.3072489 150.57925,1.52775 C150.463749,1.7482511 150.3745,2.03349825 150.3115,2.3835 C150.2485,2.73350175 150.217,3.15349755 150.217,3.6435 C150.217,4.6235049 150.337749,5.33574778 150.57925,5.78025 C150.820751,6.22475222 151.137498,6.447 151.5295,6.447 C151.725501,6.447 151.902249,6.39275054 152.05975,6.28425 C152.217251,6.17574946 152.353749,6.00775114 152.46925,5.78025 C152.584751,5.55274886 152.674,5.26225177 152.737,4.90875 C152.8,4.55524823 152.8315,4.13350245 152.8315,3.6435 C152.8315,3.15349755 152.8,2.73350175 152.737,2.3835 C152.674,2.03349825 152.584751,1.7482511 152.46925,1.52775 C152.353749,1.3072489 152.217251,1.14450053 152.05975,1.0395 C151.902249,0.934499475 151.725501,0.882 151.5295,0.882 Z M81.847,5.68434189e-14 C82.3160023,5.68434189e-14 82.6939986,0.187248128 82.981,0.56175 C83.2680014,0.936251873 83.4115,1.46999654 83.4115,2.163 C83.4115,2.8630035 83.2680014,3.40199811 82.981,3.78 C82.6939986,4.15800189 82.3160023,4.347 81.847,4.347 C81.3709976,4.347 80.9912514,4.15800189 80.70775,3.78 C80.4242486,3.40199811 80.2825,2.8630035 80.2825,2.163 C80.2825,1.46999654 80.4242486,0.936251873 80.70775,0.56175 C80.9912514,0.187248128 81.3709976,5.68434189e-14 81.847,5.68434189e-14 Z M233.0355,5.68434189e-14 C233.504502,5.68434189e-14 233.882499,0.187248128 234.1695,0.56175 C234.456501,0.936251873 234.6,1.46999654 234.6,2.163 C234.6,2.8630035 234.456501,3.40199811 234.1695,3.78 C233.882499,4.15800189 233.504502,4.347 233.0355,4.347 C232.559498,4.347 232.179751,4.15800189 231.89625,3.78 C231.612749,3.40199811 231.471,2.8630035 231.471,2.163 C231.471,1.46999654 231.612749,0.936251873 231.89625,0.56175 C232.179751,0.187248128 232.559498,5.68434189e-14 233.0355,5.68434189e-14 Z M6.6585,5.68434189e-14 C7.12750235,5.68434189e-14 7.50549857,0.187248128 7.7925,0.56175 C8.07950144,0.936251873 8.223,1.46999654 8.223,2.163 C8.223,2.8630035 8.07950144,3.40199811 7.7925,3.78 C7.50549857,4.15800189 7.12750235,4.347 6.6585,4.347 C6.18249762,4.347 5.80275142,4.15800189 5.51925,3.78 C5.23574858,3.40199811 5.094,2.8630035 5.094,2.163 C5.094,1.46999654 5.23574858,0.936251873 5.51925,0.56175 C5.80275142,0.187248128 6.18249762,5.68434189e-14 6.6585,5.68434189e-14 Z M298.0355,5.68434189e-14 C298.504502,5.68434189e-14 298.882499,0.187248128 299.1695,0.56175 C299.456501,0.936251873 299.6,1.46999654 299.6,2.163 C299.6,2.8630035 299.456501,3.40199811 299.1695,3.78 C298.882499,4.15800189 298.504502,4.347 298.0355,4.347 C297.559498,4.347 297.179751,4.15800189 296.89625,3.78 C296.612749,3.40199811 296.471,2.8630035 296.471,2.163 C296.471,1.46999654 296.612749,0.936251873 296.89625,0.56175 C297.179751,0.187248128 297.559498,5.68434189e-14 298.0355,5.68434189e-14 Z M156.0355,5.68434189e-14 C156.504502,5.68434189e-14 156.882499,0.187248128 157.1695,0.56175 C157.456501,0.936251873 157.6,1.46999654 157.6,2.163 C157.6,2.8630035 157.456501,3.40199811 157.1695,3.78 C156.882499,4.15800189 156.504502,4.347 156.0355,4.347 C155.559498,4.347 155.179751,4.15800189 154.89625,3.78 C154.612749,3.40199811 154.471,2.8630035 154.471,2.163 C154.471,1.46999654 154.612749,0.936251873 154.89625,0.56175 C155.179751,0.187248128 155.559498,5.68434189e-14 156.0355,5.68434189e-14 Z M6.6585,0.5355 C6.38549864,0.5355 6.16500084,0.670248653 5.997,0.93975 C5.82899916,1.20925135 5.745,1.61699727 5.745,2.163 C5.745,2.70900273 5.82899916,3.12024862 5.997,3.39675 C6.16500084,3.67325138 6.38549864,3.8115 6.6585,3.8115 C6.92450133,3.8115 7.14149916,3.67325138 7.3095,3.39675 C7.47750084,3.12024862 7.5615,2.70900273 7.5615,2.163 C7.5615,1.61699727 7.47750084,1.20925135 7.3095,0.93975 C7.14149916,0.670248653 6.92450133,0.5355 6.6585,0.5355 Z M81.847,0.5355 C81.5739986,0.5355 81.3535008,0.670248653 81.1855,0.93975 C81.0174992,1.20925135 80.9335,1.61699727 80.9335,2.163 C80.9335,2.70900273 81.0174992,3.12024862 81.1855,3.39675 C81.3535008,3.67325138 81.5739986,3.8115 81.847,3.8115 C82.1130013,3.8115 82.3299992,3.67325138 82.498,3.39675 C82.6660008,3.12024862 82.75,2.70900273 82.75,2.163 C82.75,1.61699727 82.6660008,1.20925135 82.498,0.93975 C82.3299992,0.670248653 82.1130013,0.5355 81.847,0.5355 Z M233.0355,0.5355 C232.762499,0.5355 232.542001,0.670248653 232.374,0.93975 C232.205999,1.20925135 232.122,1.61699727 232.122,2.163 C232.122,2.70900273 232.205999,3.12024862 232.374,3.39675 C232.542001,3.67325138 232.762499,3.8115 233.0355,3.8115 C233.301501,3.8115 233.518499,3.67325138 233.6865,3.39675 C233.854501,3.12024862 233.9385,2.70900273 233.9385,2.163 C233.9385,1.61699727 233.854501,1.20925135 233.6865,0.93975 C233.518499,0.670248653 233.301501,0.5355 233.0355,0.5355 Z M156.0355,0.5355 C155.762499,0.5355 155.542001,0.670248653 155.374,0.93975 C155.205999,1.20925135 155.122,1.61699727 155.122,2.163 C155.122,2.70900273 155.205999,3.12024862 155.374,3.39675 C155.542001,3.67325138 155.762499,3.8115 156.0355,3.8115 C156.301501,3.8115 156.518499,3.67325138 156.6865,3.39675 C156.854501,3.12024862 156.9385,2.70900273 156.9385,2.163 C156.9385,1.61699727 156.854501,1.20925135 156.6865,0.93975 C156.518499,0.670248653 156.301501,0.5355 156.0355,0.5355 Z M298.0355,0.5355 C297.762499,0.5355 297.542001,0.670248653 297.374,0.93975 C297.205999,1.20925135 297.122,1.61699727 297.122,2.163 C297.122,2.70900273 297.205999,3.12024862 297.374,3.39675 C297.542001,3.67325138 297.762499,3.8115 298.0355,3.8115 C298.301501,3.8115 298.518499,3.67325138 298.6865,3.39675 C298.854501,3.12024862 298.9385,2.70900273 298.9385,2.163 C298.9385,1.61699727 298.854501,1.20925135 298.6865,0.93975 C298.518499,0.670248653 298.301501,0.5355 298.0355,0.5355 Z" id="Combined-Shape" fill="#848484" fill-rule="nonzero"></path>
                <path d="M205.788,56.014 L205.788,43.014 C205.788,42.5997864 205.452214,42.264 205.038,42.264 C204.623786,42.264 204.288,42.5997864 204.288,43.014 L204.288,56.014 C204.288,56.4282136 204.623786,56.764 205.038,56.764 C205.452214,56.764 205.788,56.4282136 205.788,56.014 Z" id="Stroke-12" fill="#636363" fill-rule="nonzero"></path>
            </g>
        </g>
    </g>
</svg>