<svg id="Layer_1" data-name="Layer 1" xmlns="http://www.w3.org/2000/svg" xmlns:xlink="http://www.w3.org/1999/xlink" viewBox="0 0 775 520"><defs><style>.cls-1,.cls-14,.cls-2{fill:#0a2f5a;}.cls-1{clip-rule:evenodd;}.cls-13,.cls-15,.cls-18,.cls-26,.cls-3,.cls-34,.cls-36{fill:#fff;}.cls-4{opacity:0.28;}.cls-40,.cls-41,.cls-42,.cls-43,.cls-44,.cls-5{fill:#881e3d;}.cls-6{opacity:0.19;}.cls-7{fill:#8cc63f;}.cls-10,.cls-11,.cls-19,.cls-27,.cls-30,.cls-31,.cls-33,.cls-35,.cls-38,.cls-39,.cls-8,.cls-9{fill:none;}.cls-18,.cls-8{stroke:#004c40;}.cls-10,.cls-11,.cls-19,.cls-26,.cls-27,.cls-28,.cls-29,.cls-30,.cls-33,.cls-34,.cls-35,.cls-36,.cls-37,.cls-39,.cls-8,.cls-9{stroke-linecap:round;stroke-linejoin:round;}.cls-15,.cls-8{stroke-width:3px;}.cls-10,.cls-11,.cls-15,.cls-9{stroke:#daa200;}.cls-10,.cls-11,.cls-9{stroke-width:1.82px;}.cls-10{stroke-dasharray:0.92 11;}.cls-11{stroke-dasharray:0.91 10.92;}.cls-12{fill:#925003;opacity:0.24;}.cls-13,.cls-19,.cls-26,.cls-27,.cls-28,.cls-29,.cls-30,.cls-33,.cls-34,.cls-35,.cls-36,.cls-37{stroke:#0a2f5a;}.cls-13,.cls-15,.cls-18,.cls-31,.cls-38{stroke-miterlimit:10;}.cls-13,.cls-18{stroke-width:4px;}.cls-14{fill-rule:evenodd;}.cls-16{clip-path:url(#clip-path);}.cls-17{clip-path:url(#clip-path-2);}.cls-19{stroke-width:1.69px;}.cls-20,.cls-28,.cls-37{fill:#c7e6f5;}.cls-21{fill:#81cbeb;}.cls-22,.cls-29{fill:#4c98cb;}.cls-23{fill:#006b94;opacity:0.59;}.cls-24{fill:#008db2;opacity:0.14;}.cls-25{fill:#a4d7ef;}.cls-26,.cls-27,.cls-28,.cls-29{stroke-width:1.76px;}.cls-30{stroke-width:2.05px;}.cls-31{stroke:#4c98cb;}.cls-32{opacity:0.47;}.cls-33{stroke-width:1.85px;}.cls-34{stroke-width:1.76px;}.cls-35,.cls-36,.cls-39{stroke-width:1.93px;}.cls-37,.cls-38{stroke-width:2px;}.cls-38{stroke:#c7e6f5;}.cls-39{stroke:#a4d7ef;}.cls-40{opacity:0.44;}.cls-41{opacity:0.63;}.cls-42{opacity:0.69;}.cls-43{opacity:0.21;}.cls-44{opacity:0.72;}</style><clipPath id="clip-path"><path class="cls-1" d="M657.74,442.33l.14-20.17a.94.94,0,0,0-.94-1L625.26,421a1,1,0,0,0-1,.94L624,467.44a1,1,0,0,0,.94,1l31.68.23a1,1,0,0,0,.95-.94l.11-14.65,10.21-15.9a2.92,2.92,0,0,1-.19,3.06l-4,6.21a.95.95,0,0,0,1.6,1l4-6.21a4.64,4.64,0,0,0-.33-5.75l2.17-3.39a2.86,2.86,0,1,0-4.83-3.07ZM649,460.09c-2.37-2.56-4.82-2-7.56-.76a5.2,5.2,0,0,1-2.34.7s3.59-4.92,3.59-4.92a2.43,2.43,0,0,0-2.92-3.61c-3.61,1.31-4.35,4.51-3.1,8a2.9,2.9,0,0,1-1.42.65,1.46,1.46,0,0,1-1.23-.5.94.94,0,0,0-1.34,0,1,1,0,0,0,0,1.34,3.38,3.38,0,0,0,2.74,1,4.74,4.74,0,0,0,2.13-.86c1.14,1.42,3,.65,4.66-.1,2-.89,3.4-1.67,5.62.6a1.43,1.43,0,0,0,2-.18c.31-.48.4-.58.44-.83.65-.23,3.18-1.2,4.15-2.71l1.29-2-.08,10.88-29.92-.22.32-43.57,29.91.22-.16,22-6.18,9.63C648.64,456.49,648.9,459.75,649,460.09ZM638.24,458c-.48-2.26-.14-3.84,2.21-4.69.5-.18,1.09.21.55,1A42.59,42.59,0,0,1,638.24,458Zm14.68-1.07a5.65,5.65,0,0,1-2.11,1.51,5.5,5.5,0,0,1,.49-2.54l13.46-20.95,1.61,1Zm16.59-25.84-2.11,3.3-1.62-1,2.12-3.3a1,1,0,0,1,1.41-.38A1,1,0,0,1,669.51,431.06Z"/></clipPath><clipPath id="clip-path-2"><rect class="cls-2" x="624.14" y="421.15" width="47.42" height="47.42" transform="translate(198.33 1089.47) rotate(-89.59)"/></clipPath></defs><title>C+U HP</title><rect class="cls-3" x="-18.5" y="-24" width="822" height="603"/><g class="cls-4"><polygon class="cls-5" points="729.14 97 611.5 97 611.5 115.34 650.5 116 658.8 124.94 661.71 128.08 655.5 128 655.5 275 729.14 275 729.14 97"/></g><g class="cls-4"><polygon class="cls-5" points="49.5 96 167.14 96 167.14 114.34 128.14 115 119.85 123.94 116.94 127.08 123.14 127 123.14 274 49.5 274 49.5 96"/></g><g class="cls-6"><path class="cls-7" d="M117.5,554,217.75,402.17A10.35,10.35,0,0,1,225.5,398l130.45.64a4.23,4.23,0,0,1,4.28,5L333.5,585"/></g><g class="cls-6"><path class="cls-7" d="M661.5,555,558.31,403.14A10.59,10.59,0,0,0,550.5,399H419.57a4.18,4.18,0,0,0-4.25,4.94L442.5,584"/></g><g class="cls-6"><path class="cls-7" d="M-95.5,395l245.15,2.66c3.77,0,4.81,2.39,2.31,5.21L-44.83,625.09"/></g><g class="cls-6"><path class="cls-7" d="M863.5,397h-239c-3.82,0-4.89,2.35-2.38,5.23l149.7,171.28"/></g><path class="cls-8" d="M251,299.5l-49.69,56.25A12.68,12.68,0,0,1,193,359.5H-25"/><path class="cls-8" d="M-17.5,392l179,1.95c2.75,0,3.51,1.73,1.69,3.79L19.5,560"/><path class="cls-8" d="M282.5,298l-36.21,53.85c-1.53,2.28-.54,4.15,2.21,4.15h111a6.11,6.11,0,0,0,5.81-4.93L373.5,301"/><path class="cls-8" d="M403.5,298l7.32,53.05A5.91,5.91,0,0,0,416.5,356h107c2.75,0,3.73-1.86,2.18-4.13L489.5,299"/><path class="cls-8" d="M520.5,298l50.66,56.28A12.79,12.79,0,0,0,579.5,358h220"/><path class="cls-8" d="M784.5,394h-172c-2.75,0-3.52,1.69-1.71,3.76L718.5,521"/><path class="cls-8" d="M117.5,550,217.75,398.17A10.35,10.35,0,0,1,225.5,394l130.45.64a4.23,4.23,0,0,1,4.28,5L333.5,581"/><path class="cls-8" d="M661.5,551,558.31,399.14A10.59,10.59,0,0,0,550.5,395H419.57a4.18,4.18,0,0,0-4.25,4.94L442.5,580"/><line class="cls-9" x1="133.5" y1="468" x2="133.78" y2="467.64"/><line class="cls-10" x1="140.55" y1="458.97" x2="261.83" y2="303.69"/><line class="cls-9" x1="265.22" y1="299.36" x2="265.5" y2="299"/><line class="cls-9" x1="639.5" y1="469" x2="639.22" y2="468.64"/><line class="cls-10" x1="632.45" y1="459.97" x2="511.17" y2="304.69"/><line class="cls-9" x1="507.78" y1="300.36" x2="507.5" y2="300"/><line class="cls-11" x1="390.5" y1="454" x2="390.5" y2="299"/><ellipse class="cls-12" cx="124.5" cy="483" rx="41" ry="7"/><ellipse class="cls-12" cx="387.45" cy="483" rx="41" ry="7"/><ellipse class="cls-12" cx="643.79" cy="483" rx="41" ry="7"/><circle class="cls-13" cx="125" cy="443.5" r="39.5"/><polygon class="cls-14" points="111.59 460.03 111.64 461.75 113.79 461.68 114.01 468.53 116.15 468.46 115.87 459.89 111.59 460.03"/><polygon class="cls-14" points="138.73 459.16 134.44 459.3 134.72 467.87 136.86 467.8 136.64 460.94 138.79 460.87 138.73 459.16"/><path class="cls-14" d="M143,457.39c-.28-8.7-6.59-15.32-14.36-15.07l-3.28.11c5-.16,8.44-4.48,8.25-10.27a11.29,11.29,0,0,0-3.11-7.82l0-1.18,6.11-3.64a1.84,1.84,0,0,0-.24-3.26l-13.36-3.78-13,4.58-.12.05a1.85,1.85,0,0,0,0,3.28l2,1,.15,4.72c0,.56.36,1,.75,1s.7-.48.68-1.05l-.12-3.93,3.86,2,.46-.9.08,2.32h0a1.4,1.4,0,0,0,0,.35,1.15,1.15,0,0,0,.23.67,11.38,11.38,0,0,0-1.44,6.17c.18,5.79,3.92,9.88,8.89,9.72l-6.13.2c-7.78.25-13.65,7.26-13.37,15.95l.38,11.64,1.85-.06-.37-11.64a15,15,0,0,1,2.81-9.29l9.42,10.21a.72.72,0,0,0,.25.18v.14a4.29,4.29,0,0,0,8.57-.28c0-.05,0-.09,0-.13a1,1,0,0,0,.24-.21l8.74-10.79a15.12,15.12,0,0,1,3.41,9.1l.37,11.63,1.86-.06Zm-22.91-34.23c-.24.1-.46.19-.65.29l-.08-2.38a2.78,2.78,0,0,1,1.16-.6,12.73,12.73,0,0,1,3.4-.52c2.75-.09,4.35.52,4.63.82l0,1.27,0,0,0,0,0,1.06A13.06,13.06,0,0,0,120.05,423.16Zm-9.18-4.39L123,414.48l12.37,3.5-5,3v-.34c-.09-2.68-7-3-10.44-1.85-2,.66-2.44,1.6-2.42,2.27l0,1.12Zm7.46,13.88a8.43,8.43,0,0,1,2.54-6.75,1,1,0,0,0,.34-.89,11.52,11.52,0,0,1,2.82-.42c2.76-.09,4.37.66,4.64,1a1,1,0,0,0,.94.95.78.78,0,0,0,.21,0,9.91,9.91,0,0,1,1.85,5.7c.15,4.71-2.49,8.08-6.41,8.21S118.48,437.36,118.33,432.65Zm6.2,29.54a2.57,2.57,0,1,1,2.49-2.66A2.59,2.59,0,0,1,124.53,462.19Zm3.52-4.88a4.48,4.48,0,0,0-.54-.68l.07,0,5-9.35-1.82-.77-4.9,9a4.27,4.27,0,0,0-1.6-.26l-.34,0-5.44-8.42-1.61.89,5.26,8.16a4.18,4.18,0,0,0-1.48,1.56l-9-9.74a10.89,10.89,0,0,1,7.53-3.24l9.41-.31a11,11,0,0,1,7.73,2.76Z"/><circle class="cls-15" cx="643.79" cy="443.5" r="39.5"/><rect class="cls-2" x="641.08" y="420.34" width="1.53" height="18.35" transform="translate(207.7 1068.24) rotate(-89.59)"/><rect class="cls-2" x="640.98" y="434.1" width="1.53" height="18.35" transform="translate(193.84 1081.8) rotate(-89.59)"/><rect class="cls-2" x="641.03" y="426.45" width="1.53" height="18.35" transform="translate(201.54 1074.27) rotate(-89.59)"/><path class="cls-14" d="M657.74,442.33l.14-20.17a.94.94,0,0,0-.94-1L625.26,421a1,1,0,0,0-1,.94L624,467.44a1,1,0,0,0,.94,1l31.68.23a1,1,0,0,0,.95-.94l.11-14.65,10.21-15.9a2.92,2.92,0,0,1-.19,3.06l-4,6.21a.95.95,0,0,0,1.6,1l4-6.21a4.64,4.64,0,0,0-.33-5.75l2.17-3.39a2.86,2.86,0,1,0-4.83-3.07ZM649,460.09c-2.37-2.56-4.82-2-7.56-.76a5.2,5.2,0,0,1-2.34.7s3.59-4.92,3.59-4.92a2.43,2.43,0,0,0-2.92-3.61c-3.61,1.31-4.35,4.51-3.1,8a2.9,2.9,0,0,1-1.42.65,1.46,1.46,0,0,1-1.23-.5.94.94,0,0,0-1.34,0,1,1,0,0,0,0,1.34,3.38,3.38,0,0,0,2.74,1,4.74,4.74,0,0,0,2.13-.86c1.14,1.42,3,.65,4.66-.1,2-.89,3.4-1.67,5.62.6a1.43,1.43,0,0,0,2-.18c.31-.48.4-.58.44-.83.65-.23,3.18-1.2,4.15-2.71l1.29-2-.08,10.88-29.92-.22.32-43.57,29.91.22-.16,22-6.18,9.63C648.64,456.49,648.9,459.75,649,460.09ZM638.24,458c-.48-2.26-.14-3.84,2.21-4.69.5-.18,1.09.21.55,1A42.59,42.59,0,0,1,638.24,458Zm14.68-1.07a5.65,5.65,0,0,1-2.11,1.51,5.5,5.5,0,0,1,.49-2.54l13.46-20.95,1.61,1Zm16.59-25.84-2.11,3.3-1.62-1,2.12-3.3a1,1,0,0,1,1.41-.38A1,1,0,0,1,669.51,431.06Z"/><g class="cls-16"><rect class="cls-2" x="624.14" y="421.15" width="47.42" height="47.42" transform="translate(198.33 1089.47) rotate(-89.59)"/><g class="cls-17"><rect class="cls-2" x="616.46" y="413.53" width="62.71" height="62.65" transform="translate(198.3 1089.44) rotate(-89.59)"/></g></g><circle class="cls-18" cx="387.45" cy="443.5" r="39.5"/><path class="cls-19" d="M394.75,445.39l8.32-9.64a4.42,4.42,0,0,0,.46-5.17l-3.22-5.36a4.56,4.56,0,0,0-4-2.2l-18.93.27a4.54,4.54,0,0,0-3.91,2.31l-3.07,5.46a4.43,4.43,0,0,0,.59,5.14l28.58,31.46,7.48-6.06-29.19-32.36"/><line class="cls-19" x1="387.13" y1="438.85" x2="395.58" y2="429.07"/><polyline class="cls-19" points="387.34 454.44 375.45 468 367.82 462.29 380.8 447.39"/><line class="cls-19" x1="380.9" y1="432.3" x2="393.17" y2="432.12"/><path class="cls-20" d="M604.28,51.12H542.62v-.93A20.61,20.61,0,0,1,580.2,38.48a14.88,14.88,0,0,1,24.08,11.71Zm-59.76-1.87h57.85a13,13,0,0,0-21.74-8.69l-.83.76-.6-1a18.74,18.74,0,0,0-34.68,8.89Z"/><rect class="cls-20" x="506" y="57.22" width="72.4" height="1.87"/><path class="cls-20" d="M292.28,59.39H202.39V58A30,30,0,0,1,257.18,41,21.69,21.69,0,0,1,292.28,58Zm-87.13-2.73H289.5A19,19,0,0,0,257.8,44l-1.22,1.11-.86-1.4a27.32,27.32,0,0,0-50.57,13Z"/><rect class="cls-21" x="123.5" y="128" width="532" height="6"/><rect class="cls-22" x="698" y="183.33" width="22" height="20"/><rect class="cls-20" x="700" y="185.33" width="20" height="18"/><polygon class="cls-3" points="711.17 184 698.5 203 703.83 203 716.5 184 711.17 184"/><polygon class="cls-23" points="711.5 296 655.5 296 655.5 275 691.59 275 711.5 296"/><polygon class="cls-23" points="67.5 297 123.5 297 123.5 276 87.41 276 67.5 297"/><polygon class="cls-24" points="630.5 295 509.5 295 509.5 266 587.48 266 630.5 295"/><polygon class="cls-24" points="146.5 296 267.5 296 267.5 267 189.52 267 146.5 296"/><rect class="cls-22" x="360.5" y="203" width="58" height="60"/><rect class="cls-25" x="392.5" y="207" width="23" height="52"/><rect class="cls-25" x="363.5" y="207" width="23" height="52"/><rect class="cls-22" x="488.5" y="134" width="7" height="129"/><rect class="cls-22" x="448.5" y="153" width="5" height="111"/><rect class="cls-22" x="339.5" y="152" width="5" height="111"/><rect class="cls-22" x="297.5" y="152" width="5" height="111"/><polygon class="cls-26" points="527.67 296.58 251.19 296.58 251.19 285.53 268.01 285.53 527.67 285.53 527.67 296.58"/><polygon class="cls-26" points="518.67 285.53 260.19 285.53 260.19 274.49 275.91 274.49 518.67 274.49 518.67 285.53"/><polygon class="cls-26" points="509.67 274.49 269.19 274.49 269.19 263.45 283.82 263.45 509.67 263.45 509.67 274.49"/><path class="cls-26" d="M451,168.56a4.78,4.78,0,1,0,3.85-7.62h-21.4a4.78,4.78,0,1,0,3.85,7.62"/><polyline class="cls-26" points="450.86 168.56 450.86 255.22 437.41 255.22 437.41 168.56"/><rect class="cls-26" x="432.13" y="259.33" width="24.01" height="4.11"/><rect class="cls-26" x="434.62" y="255.22" width="19.03" height="4.11"/><path class="cls-26" d="M437.24,168.56a3.45,3.45,0,0,0-.6-4.84,2.77,2.77,0,0,0-3.88.49,2.21,2.21,0,0,0,.39,3.09,1.77,1.77,0,0,0,2.48-.31,1.41,1.41,0,0,0-.25-2"/><path class="cls-26" d="M451.07,168.56a3.45,3.45,0,0,1,.61-4.84,2.76,2.76,0,0,1,3.87.49,2.2,2.2,0,0,1-.39,3.09,1.77,1.77,0,0,1-2.48-.31,1.42,1.42,0,0,1,.25-2"/><line class="cls-26" x1="437.95" y1="166.11" x2="450.35" y2="166.11"/><line class="cls-26" x1="447.08" y1="179.08" x2="447.08" y2="238.77"/><path class="cls-26" d="M341.58,168.56a4.78,4.78,0,1,0,3.85-7.62H324a4.78,4.78,0,1,0,3.85,7.62"/><polyline class="cls-26" points="341.46 168.56 341.46 255.22 328 255.22 328 168.56"/><rect class="cls-26" x="322.72" y="259.33" width="24.01" height="4.11"/><rect class="cls-26" x="325.21" y="255.22" width="19.03" height="4.11"/><path class="cls-26" d="M327.84,168.56a3.44,3.44,0,0,0-.61-4.84,2.76,2.76,0,0,0-3.87.49,2.2,2.2,0,0,0,.39,3.09,1.77,1.77,0,0,0,2.48-.31,1.41,1.41,0,0,0-.25-2"/><path class="cls-26" d="M341.67,168.56a3.44,3.44,0,0,1,.61-4.84,2.76,2.76,0,0,1,3.87.49,2.2,2.2,0,0,1-.39,3.09,1.77,1.77,0,0,1-2.48-.31,1.42,1.42,0,0,1,.25-2"/><line class="cls-26" x1="328.55" y1="166.11" x2="340.95" y2="166.11"/><line class="cls-26" x1="337.83" y1="179.08" x2="337.83" y2="238.77"/><rect class="cls-27" x="360.57" y="203.13" width="57.72" height="60.32"/><rect class="cls-28" x="360.57" y="174.22" width="57.72" height="22.27"/><line class="cls-27" x1="389.43" y1="203.13" x2="389.43" y2="263.45"/><line class="cls-27" x1="382.57" y1="228.46" x2="382.57" y2="235.39"/><line class="cls-27" x1="396.29" y1="228.46" x2="396.29" y2="235.39"/><line class="cls-27" x1="368.95" y1="177.48" x2="364.16" y2="182.27"/><line class="cls-27" x1="370.63" y1="181.24" x2="367.92" y2="183.95"/><line class="cls-27" x1="409.63" y1="192.78" x2="414.42" y2="188"/><line class="cls-27" x1="407.94" y1="189.02" x2="410.65" y2="186.31"/><line class="cls-27" x1="389.43" y1="174.22" x2="389.43" y2="196.49"/><rect class="cls-28" x="457.22" y="203.13" width="16.31" height="43.67"/><rect class="cls-28" x="457.22" y="174.22" width="16.31" height="22.27"/><line class="cls-28" x1="461.41" y1="177.37" x2="459.61" y2="179.16"/><line class="cls-28" x1="463.12" y1="179.85" x2="462.1" y2="180.87"/><line class="cls-28" x1="461.41" y1="206.16" x2="459.61" y2="207.95"/><line class="cls-28" x1="463.12" y1="208.64" x2="462.1" y2="209.66"/><rect class="cls-28" x="306.59" y="203.13" width="16.31" height="43.67"/><rect class="cls-28" x="306.59" y="174.22" width="16.31" height="22.27"/><line class="cls-28" x1="311.21" y1="177.37" x2="309.41" y2="179.16"/><line class="cls-28" x1="312.91" y1="179.85" x2="311.9" y2="180.87"/><line class="cls-28" x1="311.21" y1="206.16" x2="309.41" y2="207.95"/><line class="cls-28" x1="312.91" y1="208.64" x2="311.9" y2="209.66"/><polyline class="cls-27" points="302.28 296.58 123.49 296.58 123.49 128.08 306.39 128.08"/><polyline class="cls-27" points="269.19 266.09 123.49 266.09 123.49 296.58 269.19 296.58"/><line class="cls-27" x1="123.49" y1="133.68" x2="295.88" y2="133.68"/><polygon class="cls-28" points="330.03 115.59 128.45 115.59 116.81 128.08 306.39 128.08 330.03 115.59"/><path class="cls-27" d="M105.48,267.55c0,11.78-5,15.58-11.22,15.58s-11.21-3.8-11.21-15.58,5-27.1,11.21-27.1S105.48,255.76,105.48,267.55Z"/><path class="cls-27" d="M98.87,250.85A46.81,46.81,0,0,1,101.1,259a48.13,48.13,0,0,1,.82,8.53"/><line class="cls-27" x1="94.26" y1="266.24" x2="94.26" y2="296.58"/><line class="cls-27" x1="94.26" y1="271.7" x2="90.19" y2="268.81"/><line class="cls-27" x1="94.51" y1="278.59" x2="98.59" y2="273.85"/><path class="cls-27" d="M67.18,267.55c0,11.78-5,15.58-11.22,15.58s-11.21-3.8-11.21-15.58,5-27.1,11.21-27.1S67.18,255.76,67.18,267.55Z"/><path class="cls-27" d="M60.57,250.85A46.81,46.81,0,0,1,62.8,259a48.13,48.13,0,0,1,.82,8.53"/><line class="cls-27" x1="55.96" y1="266.24" x2="55.96" y2="296.58"/><line class="cls-27" x1="55.96" y1="271.7" x2="51.88" y2="268.81"/><line class="cls-27" x1="56.21" y1="278.59" x2="60.29" y2="273.85"/><polyline class="cls-27" points="50.45 238.45 50.45 95.75 166.16 95.75 166.16 115.31"/><rect class="cls-29" x="46.46" y="88.32" width="123.68" height="7.43"/><polyline class="cls-27" points="269.19 266.24 123.49 266.24 123.49 256.07 283.25 256.07"/><polyline class="cls-27" points="476.24 296.58 655.03 296.58 655.03 128.08 472.13 128.08"/><polyline class="cls-27" points="655.03 266.09 655.03 296.58 509.33 296.58"/><line class="cls-27" x1="655.03" y1="133.68" x2="482.64" y2="133.68"/><polygon class="cls-28" points="448.5 115.59 650.07 115.59 661.71 128.08 472.13 128.08 448.5 115.59"/><path class="cls-27" d="M673,267.55c0,11.78,5,15.58,11.22,15.58s11.21-3.8,11.21-15.58-5-27.1-11.21-27.1S673,255.76,673,267.55Z"/><path class="cls-27" d="M679.65,250.85a46.81,46.81,0,0,0-2.23,8.17,48.13,48.13,0,0,0-.82,8.53"/><line class="cls-27" x1="684.26" y1="266.24" x2="684.26" y2="296.58"/><line class="cls-27" x1="684.26" y1="271.7" x2="688.34" y2="268.81"/><line class="cls-27" x1="684.01" y1="278.59" x2="679.93" y2="273.85"/><path class="cls-27" d="M711.35,267.55c0,11.78,5,15.58,11.21,15.58s11.22-3.8,11.22-15.58-5-27.1-11.22-27.1S711.35,255.76,711.35,267.55Z"/><path class="cls-27" d="M718,250.85a46.81,46.81,0,0,0-2.23,8.17,48.13,48.13,0,0,0-.82,8.53"/><line class="cls-27" x1="722.56" y1="266.24" x2="722.56" y2="296.58"/><line class="cls-27" x1="722.56" y1="271.7" x2="726.64" y2="268.81"/><line class="cls-27" x1="722.31" y1="278.59" x2="718.23" y2="273.85"/><polyline class="cls-27" points="728.07 238.45 728.07 95.75 612.36 95.75 612.36 115.31"/><rect class="cls-29" x="608.38" y="88.32" width="123.68" height="7.43" transform="translate(1340.44 184.08) rotate(180)"/><polyline class="cls-27" points="640.38 266.24 655.03 266.24 655.03 256.07 495.28 256.07"/><line class="cls-27" x1="592.27" y1="266.24" x2="509.67" y2="266.24"/><rect class="cls-22" x="698" y="114" width="22" height="20"/><rect class="cls-20" x="700" y="116" width="20" height="18"/><rect class="cls-27" x="697.98" y="113.91" width="21.66" height="19.76" transform="translate(1417.62 247.59) rotate(180)"/><line class="cls-27" x1="708.81" y1="113.91" x2="708.81" y2="133.68"/><rect class="cls-22" x="664" y="114" width="22" height="20"/><rect class="cls-20" x="666" y="116" width="20" height="18"/><rect class="cls-27" x="663.98" y="113.91" width="21.66" height="19.76" transform="translate(1349.62 247.59) rotate(180)"/><line class="cls-27" x1="674.81" y1="113.91" x2="674.81" y2="133.68"/><rect class="cls-22" x="698" y="148.67" width="22" height="20"/><rect class="cls-20" x="700" y="150.67" width="20" height="18"/><rect class="cls-27" x="697.98" y="148.58" width="21.66" height="19.76" transform="translate(1417.62 316.93) rotate(180)"/><line class="cls-27" x1="708.81" y1="148.58" x2="708.81" y2="168.35"/><rect class="cls-22" x="664" y="148.67" width="22" height="20"/><rect class="cls-20" x="666" y="150.67" width="20" height="18"/><rect class="cls-27" x="663.98" y="148.58" width="21.66" height="19.76" transform="translate(1349.62 316.93) rotate(180)"/><line class="cls-27" x1="674.81" y1="148.58" x2="674.81" y2="168.35"/><rect class="cls-27" x="697.98" y="183.25" width="21.66" height="19.76" transform="translate(1417.62 386.26) rotate(180)"/><line class="cls-27" x1="708.81" y1="183.25" x2="708.81" y2="203.01"/><rect class="cls-22" x="664" y="183.33" width="22" height="20"/><rect class="cls-20" x="666" y="185.33" width="20" height="18"/><rect class="cls-27" x="663.98" y="183.25" width="21.66" height="19.76" transform="translate(1349.62 386.26) rotate(180)"/><line class="cls-27" x1="674.81" y1="183.25" x2="674.81" y2="203.01"/><rect class="cls-22" x="698" y="218" width="22" height="20"/><rect class="cls-20" x="700" y="220" width="20" height="18"/><rect class="cls-27" x="697.98" y="217.91" width="21.66" height="19.76" transform="translate(1417.62 455.59) rotate(180)"/><line class="cls-27" x1="708.81" y1="217.91" x2="708.81" y2="237.68"/><rect class="cls-22" x="664" y="218" width="22" height="20"/><rect class="cls-20" x="666" y="220" width="20" height="18"/><rect class="cls-27" x="663.98" y="217.91" width="21.66" height="19.76" transform="translate(1349.62 455.59) rotate(180)"/><line class="cls-27" x1="674.81" y1="217.91" x2="674.81" y2="237.68"/><line class="cls-30" x1="827.5" y1="296.58" x2="-25.5" y2="296.58"/><circle class="cls-27" cx="630.29" cy="286.37" r="10.21"/><path class="cls-27" d="M609,281.16A12.26,12.26,0,0,0,592.12,275"/><circle class="cls-27" cx="597.24" cy="286.37" r="10.21"/><path class="cls-27" d="M599,286.37a1.74,1.74,0,1,1-1.74-1.74A1.74,1.74,0,0,1,599,286.37Z"/><path class="cls-27" d="M632,286.37a1.74,1.74,0,1,1-1.74-1.74A1.74,1.74,0,0,1,632,286.37Z"/><path class="cls-27" d="M630.29,286.37l-9.67-25.49h10.25A2.14,2.14,0,0,1,633,263h0a2.14,2.14,0,0,1-2.14,2.14h-1.78"/><polyline class="cls-27" points="625.01 272.46 615.17 286.37 597.24 286.37"/><polyline class="cls-27" points="625.08 272.46 606.71 272.46 597.18 286.25"/><polyline class="cls-27" points="615.17 286.37 606.71 272.46 606.71 269.7"/><path class="cls-27" d="M610.43,269.7H599v-1.88a1.86,1.86,0,0,1,1.86-1.86h2.42a1.7,1.7,0,0,1,1.68,1.43h3.18a2.3,2.3,0,0,1,2.31,2.31Z"/><line class="cls-27" x1="66.17" y1="275.37" x2="83.44" y2="275.37"/><line class="cls-27" x1="104.47" y1="275.37" x2="123.49" y2="275.37"/><line class="cls-27" x1="655.03" y1="275.37" x2="674.05" y2="275.37"/><line class="cls-27" x1="694.47" y1="275.37" x2="712.32" y2="275.37"/><path class="cls-28" d="M695.72,267.55c0-11.79-5-27.1-11.22-27.1s-11.22,15.31-11.22,27.1,5,15.58,11.22,15.58V271.7l4.08-2.89-4.08,2.89v11.43C690.69,283.13,695.72,279.33,695.72,267.55ZM677.66,259a48.13,48.13,0,0,0-.82,8.53,48.13,48.13,0,0,1,.82-8.53,46.81,46.81,0,0,1,2.23-8.17A46.81,46.81,0,0,0,677.66,259Zm2.51,14.83,4.08,4.74Z"/><path class="cls-28" d="M105.48,267.55c0-11.79-5-27.1-11.22-27.1s-11.21,15.31-11.21,27.1,5,15.58,11.21,15.58V271.7l4.08-2.89-4.08,2.89v11.43C100.46,283.13,105.48,279.33,105.48,267.55ZM87.42,259a49.08,49.08,0,0,0-.82,8.53,49.08,49.08,0,0,1,.82-8.53,46.81,46.81,0,0,1,2.23-8.17A46.81,46.81,0,0,0,87.42,259Zm2.51,14.83L94,278.59Z"/><path class="cls-28" d="M67.18,267.55c0-11.79-5-27.1-11.22-27.1s-11.21,15.31-11.21,27.1,5,15.58,11.21,15.58V271.7L60,268.81,56,271.7v11.43C62.15,283.13,67.18,279.33,67.18,267.55ZM49.12,259a48.13,48.13,0,0,0-.82,8.53,48.13,48.13,0,0,1,.82-8.53,46.81,46.81,0,0,1,2.23-8.17A46.81,46.81,0,0,0,49.12,259Zm2.51,14.83,4.08,4.74Z"/><path class="cls-28" d="M733.78,267.55c0-11.79-5-27.1-11.22-27.1s-11.21,15.31-11.21,27.1,5,15.58,11.21,15.58V271.7l4.08-2.89-4.08,2.89v11.43C728.75,283.13,733.78,279.33,733.78,267.55ZM715.72,259a48.13,48.13,0,0,0-.82,8.53,48.13,48.13,0,0,1,.82-8.53,46.81,46.81,0,0,1,2.23-8.17A46.81,46.81,0,0,0,715.72,259Zm2.51,14.83,4.08,4.74Z"/><rect class="cls-22" x="92" y="112" width="22" height="20"/><rect class="cls-20" x="94" y="114" width="20" height="18"/><rect class="cls-27" x="91.98" y="111.91" width="21.66" height="19.76" transform="translate(205.62 243.59) rotate(180)"/><line class="cls-27" x1="102.81" y1="111.91" x2="102.81" y2="131.68"/><rect class="cls-22" x="58" y="112" width="22" height="20"/><rect class="cls-20" x="60" y="114" width="20" height="18"/><rect class="cls-27" x="57.98" y="111.91" width="21.66" height="19.76" transform="translate(137.62 243.59) rotate(180)"/><line class="cls-27" x1="68.81" y1="111.91" x2="68.81" y2="131.68"/><rect class="cls-22" x="92" y="146.67" width="22" height="20"/><rect class="cls-20" x="94" y="148.67" width="20" height="18"/><rect class="cls-27" x="91.98" y="146.58" width="21.66" height="19.76" transform="translate(205.62 312.93) rotate(180)"/><line class="cls-27" x1="102.81" y1="146.58" x2="102.81" y2="166.35"/><rect class="cls-22" x="92" y="181.33" width="22" height="20"/><rect class="cls-20" x="94" y="183.33" width="20" height="18"/><polygon class="cls-3" points="105.17 182 92.5 201 97.83 201 110.5 182 105.17 182"/><rect class="cls-27" x="91.98" y="181.25" width="21.66" height="19.76" transform="translate(205.62 382.26) rotate(180)"/><line class="cls-27" x1="102.81" y1="181.25" x2="102.81" y2="201.01"/><rect class="cls-22" x="58" y="181.33" width="22" height="20"/><rect class="cls-20" x="60" y="183.33" width="20" height="18"/><rect class="cls-27" x="57.98" y="181.25" width="21.66" height="19.76" transform="translate(137.62 382.26) rotate(180)"/><line class="cls-27" x1="68.81" y1="181.25" x2="68.81" y2="201.01"/><rect class="cls-22" x="92" y="216" width="22" height="20"/><rect class="cls-20" x="94" y="218" width="20" height="18"/><rect class="cls-27" x="91.98" y="215.91" width="21.66" height="19.76" transform="translate(205.62 451.59) rotate(180)"/><line class="cls-27" x1="102.81" y1="215.91" x2="102.81" y2="235.68"/><rect class="cls-22" x="58" y="216" width="22" height="20"/><rect class="cls-20" x="60" y="218" width="20" height="18"/><rect class="cls-27" x="57.98" y="215.91" width="21.66" height="19.76" transform="translate(137.62 451.59) rotate(180)"/><line class="cls-27" x1="68.81" y1="215.91" x2="68.81" y2="235.68"/><rect class="cls-22" x="58" y="146.67" width="22" height="20"/><rect class="cls-20" x="60" y="148.67" width="20" height="18"/><polygon class="cls-3" points="71.17 147.33 58.5 166.33 63.83 166.33 76.5 147.33 71.17 147.33"/><rect class="cls-27" x="57.98" y="146.58" width="21.66" height="19.76" transform="translate(137.62 312.93) rotate(180)"/><line class="cls-27" x1="68.81" y1="146.58" x2="68.81" y2="166.35"/><rect class="cls-20" x="251.5" y="291" width="276" height="6"/><rect class="cls-20" x="261.5" y="282" width="256" height="3"/><rect class="cls-20" x="270.5" y="271" width="238" height="2.79"/><polygon class="cls-27" points="527.67 296.58 251.19 296.58 251.19 285.53 268.01 285.53 527.67 285.53 527.67 296.58"/><polygon class="cls-27" points="518.67 285.53 260.19 285.53 260.19 274.49 275.91 274.49 518.67 274.49 518.67 285.53"/><polygon class="cls-27" points="509.67 274.49 269.19 274.49 269.19 263.45 283.82 263.45 509.67 263.45 509.67 274.49"/><line class="cls-31" x1="123.5" y1="257" x2="280.5" y2="257"/><line class="cls-31" x1="496.5" y1="257.5" x2="653.5" y2="257.5"/><g class="cls-6"><path class="cls-7" d="M409.5,294l6.3,52.46a5.3,5.3,0,0,0,5.12,4.54h91c2.51,0,3.53-1.77,2.25-3.94L483.5,295"/></g><g class="cls-6"><path class="cls-7" d="M368.5,298l-10.89,50.53a5.92,5.92,0,0,1-5.53,4.47h-91c-2.51,0-3.51-1.76-2.22-3.92l31-51.69"/></g><g class="cls-6"><path class="cls-7" d="M-25,359.5H193a12.68,12.68,0,0,0,8.31-3.75l46.38-52.5c1.82-2.06,1.06-3.75-1.69-3.75H-9.5"/></g><g class="cls-6"><path class="cls-7" d="M799.5,358h-220a12.79,12.79,0,0,1-8.34-3.72l-47.32-52.56c-1.83-2.05-1.09-3.72,1.66-3.72h332"/></g><g class="cls-32"><rect class="cls-5" x="494.83" y="135" width="160" height="121"/></g><g class="cls-4"><polygon class="cls-5" points="655.48 256 530.5 256 646.5 135 655.48 135 655.48 256"/></g><g class="cls-32"><rect class="cls-5" x="124.5" y="134" width="161" height="121"/></g><g class="cls-4"><polygon class="cls-5" points="261.5 257 124.66 255.64 124.66 134.64 133.5 134.64 261.5 257"/></g><rect class="cls-25" x="139.5" y="149" width="29" height="20"/><rect class="cls-25" x="186.5" y="149" width="29" height="20"/><rect class="cls-25" x="235.5" y="149" width="29" height="20"/><rect class="cls-25" x="140.5" y="188" width="29" height="20"/><rect class="cls-25" x="187.5" y="188" width="29" height="20"/><rect class="cls-25" x="236.5" y="188" width="28" height="20"/><rect class="cls-25" x="140.5" y="227" width="28" height="20"/><rect class="cls-25" x="187.5" y="227" width="29" height="20"/><rect class="cls-25" x="235.5" y="227" width="29" height="20"/><rect class="cls-20" x="142.26" y="150.9" width="23.49" height="16.2"/><rect class="cls-20" x="189.26" y="150.9" width="23.49" height="16.2"/><rect class="cls-20" x="238.26" y="150.9" width="23.49" height="16.2"/><rect class="cls-20" x="143.26" y="189.9" width="23.49" height="16.2"/><rect class="cls-20" x="190.26" y="189.9" width="23.49" height="16.2"/><rect class="cls-20" x="239.16" y="189.9" width="22.68" height="16.2"/><rect class="cls-20" x="144.07" y="228.9" width="21.87" height="16.2"/><rect class="cls-20" x="190.26" y="228.9" width="23.49" height="16.2"/><rect class="cls-20" x="238.26" y="228.9" width="23.49" height="16.2"/><rect class="cls-27" x="139.33" y="149.05" width="29.14" height="19.69"/><line class="cls-27" x1="153.9" y1="149.05" x2="153.9" y2="168.74"/><line class="cls-27" x1="153.9" y1="156.05" x2="168.47" y2="156.05"/><rect class="cls-27" x="187.27" y="149.05" width="29.14" height="19.69"/><line class="cls-27" x1="201.84" y1="149.05" x2="201.84" y2="168.74"/><line class="cls-27" x1="201.84" y1="156.05" x2="216.41" y2="156.05"/><rect class="cls-27" x="235.22" y="149.05" width="29.14" height="19.69"/><line class="cls-27" x1="249.79" y1="149.05" x2="249.79" y2="168.74"/><line class="cls-27" x1="249.79" y1="156.05" x2="264.36" y2="156.05"/><rect class="cls-27" x="139.33" y="188.44" width="29.14" height="19.69"/><line class="cls-27" x1="153.9" y1="188.44" x2="153.9" y2="208.13"/><line class="cls-27" x1="153.9" y1="195.44" x2="168.47" y2="195.44"/><rect class="cls-27" x="187.27" y="188.44" width="29.14" height="19.69"/><line class="cls-27" x1="201.84" y1="188.44" x2="201.84" y2="208.13"/><line class="cls-27" x1="201.84" y1="195.44" x2="216.41" y2="195.44"/><rect class="cls-27" x="235.22" y="188.44" width="29.14" height="19.69"/><line class="cls-27" x1="249.79" y1="188.44" x2="249.79" y2="208.13"/><line class="cls-27" x1="249.79" y1="195.44" x2="264.36" y2="195.44"/><rect class="cls-33" x="139.5" y="227.83" width="28.97" height="19.69"/><line class="cls-33" x1="152.38" y1="227.83" x2="152.38" y2="247.52"/><line class="cls-33" x1="152.38" y1="234.83" x2="168.47" y2="234.83"/><rect class="cls-27" x="187.27" y="227.83" width="29.14" height="19.69"/><line class="cls-27" x1="201.84" y1="227.83" x2="201.84" y2="247.52"/><line class="cls-27" x1="201.84" y1="234.83" x2="216.41" y2="234.83"/><rect class="cls-27" x="235.22" y="227.83" width="29.14" height="19.69"/><line class="cls-27" x1="249.79" y1="227.83" x2="249.79" y2="247.52"/><line class="cls-27" x1="249.79" y1="234.83" x2="264.36" y2="234.83"/><polygon class="cls-3" points="188.38 159.84 188.38 162.46 200.5 153.62 200.5 151 188.38 159.84"/><polygon class="cls-3" points="188.38 165.42 188.38 168 188.43 168 200.5 159.19 200.5 156.58 188.38 165.42"/><polygon class="cls-3" points="236.38 158.84 236.38 161.46 248.5 152.62 248.5 150 236.38 158.84"/><polygon class="cls-3" points="236.38 164.42 236.38 167 236.43 167 248.5 158.19 248.5 155.58 236.38 164.42"/><polygon class="cls-3" points="140.38 159.84 140.38 162.46 152.5 153.62 152.5 151 140.38 159.84"/><polygon class="cls-3" points="140.38 165.42 140.38 168 140.43 168 152.5 159.19 152.5 156.58 140.38 165.42"/><polygon class="cls-3" points="140.38 198.84 140.38 201.46 152.5 192.62 152.5 190 140.38 198.84"/><polygon class="cls-3" points="140.38 204.42 140.38 207 140.43 207 152.5 198.19 152.5 195.58 140.38 204.42"/><polygon class="cls-3" points="188.38 238.84 188.38 241.46 200.5 232.62 200.5 230 188.38 238.84"/><polygon class="cls-3" points="188.38 244.42 188.38 247 188.43 247 200.5 238.19 200.5 235.58 188.38 244.42"/><polygon class="cls-3" points="188.38 198.84 188.38 201.46 200.5 192.62 200.5 190 188.38 198.84"/><polygon class="cls-3" points="188.38 204.42 188.38 207 188.43 207 200.5 198.19 200.5 195.58 188.38 204.42"/><polygon class="cls-3" points="236.38 198.84 236.38 201.46 248.5 192.62 248.5 190 236.38 198.84"/><polygon class="cls-3" points="236.38 204.42 236.38 207 236.43 207 248.5 198.19 248.5 195.58 236.38 204.42"/><polygon class="cls-3" points="236.38 237.84 236.38 240.46 248.5 231.62 248.5 229 236.38 237.84"/><polygon class="cls-3" points="236.38 243.42 236.38 246 236.43 246 248.5 237.19 248.5 234.58 236.38 243.42"/><polygon class="cls-3" points="141.38 237.8 141.38 240.11 151.5 232.31 151.5 230 141.38 237.8"/><polygon class="cls-3" points="141.38 242.72 141.38 245 141.42 245 151.5 237.23 151.5 234.92 141.38 242.72"/><path class="cls-34" d="M479.18,168.56a4.78,4.78,0,1,1-3.85-7.62h21.39a4.78,4.78,0,1,1-3.85,7.62"/><polyline class="cls-34" points="479.3 168.56 479.3 255.22 492.75 255.22 492.75 168.56"/><rect class="cls-34" x="474.02" y="259.33" width="24.01" height="4.11" transform="translate(972.05 522.78) rotate(180)"/><rect class="cls-34" x="476.51" y="255.22" width="19.03" height="4.11" transform="translate(972.05 514.55) rotate(180)"/><path class="cls-34" d="M492.91,168.56a3.46,3.46,0,0,1,.61-4.84,2.76,2.76,0,0,1,3.87.49,2.2,2.2,0,0,1-.39,3.09,1.77,1.77,0,0,1-2.48-.31,1.42,1.42,0,0,1,.25-2"/><path class="cls-34" d="M479.09,168.56a3.44,3.44,0,0,0-.61-4.84,2.76,2.76,0,0,0-3.87.49,2.21,2.21,0,0,0,.39,3.09,1.77,1.77,0,0,0,2.48-.31,1.41,1.41,0,0,0-.25-2"/><line class="cls-34" x1="492.21" y1="166.11" x2="479.81" y2="166.11"/><line class="cls-34" x1="489.13" y1="179.08" x2="489.13" y2="238.77"/><path class="cls-34" d="M299.6,168.56a4.78,4.78,0,1,0,3.85-7.62H282.06a4.78,4.78,0,1,0,3.85,7.62"/><polyline class="cls-34" points="299.48 168.56 299.48 255.22 286.03 255.22 286.03 168.56"/><rect class="cls-34" x="280.75" y="259.33" width="24.01" height="4.11"/><rect class="cls-34" x="283.24" y="255.22" width="19.03" height="4.11"/><path class="cls-34" d="M285.87,168.56a3.45,3.45,0,0,0-.61-4.84,2.76,2.76,0,0,0-3.87.49,2.2,2.2,0,0,0,.39,3.09,1.77,1.77,0,0,0,2.48-.31,1.42,1.42,0,0,0-.25-2"/><path class="cls-34" d="M299.69,168.56a3.45,3.45,0,0,1,.61-4.84,2.76,2.76,0,0,1,3.87.49,2.2,2.2,0,0,1-.39,3.09,1.77,1.77,0,0,1-2.48-.31,1.42,1.42,0,0,1,.25-2"/><line class="cls-34" x1="286.58" y1="166.11" x2="298.97" y2="166.11"/><line class="cls-34" x1="295.63" y1="179.08" x2="295.63" y2="238.77"/><rect class="cls-35" x="277.25" y="115.11" width="219.94" height="28.69"/><rect class="cls-26" x="273.3" y="153.49" width="232.26" height="7.45"/><rect class="cls-36" x="277.25" y="115.11" width="219.94" height="28.69"/><rect class="cls-37" x="289.68" y="103.64" width="192.68" height="11.95"/><line class="cls-38" x1="277.5" y1="142" x2="497.5" y2="142"/><line class="cls-39" x1="273.5" y1="159" x2="505.5" y2="159"/><polygon class="cls-26" points="505.48 149.05 273.38 149.05 266.12 144.16 512.75 144.16 505.48 149.05"/><rect class="cls-26" x="273.3" y="149.05" width="232.26" height="4.45"/><rect class="cls-27" x="273.3" y="153.49" width="232.26" height="7.45"/><rect class="cls-25" x="518.5" y="149" width="29" height="20"/><rect class="cls-25" x="565.5" y="149" width="29" height="20"/><rect class="cls-25" x="614.5" y="149" width="29" height="20"/><rect class="cls-25" x="519.5" y="188" width="29" height="20"/><rect class="cls-25" x="566.5" y="188" width="29" height="20"/><rect class="cls-25" x="615.5" y="188" width="28" height="20"/><rect class="cls-25" x="519.5" y="227" width="28" height="20"/><rect class="cls-25" x="566.5" y="227" width="29" height="20"/><rect class="cls-25" x="614.5" y="227" width="29" height="20"/><rect class="cls-20" x="521.26" y="150.9" width="23.49" height="16.2"/><rect class="cls-20" x="568.26" y="150.9" width="23.49" height="16.2"/><rect class="cls-20" x="617.26" y="150.9" width="23.49" height="16.2"/><rect class="cls-20" x="522.26" y="189.9" width="23.49" height="16.2"/><rect class="cls-20" x="569.26" y="189.9" width="23.49" height="16.2"/><rect class="cls-20" x="618.16" y="189.9" width="22.68" height="16.2"/><rect class="cls-20" x="523.07" y="228.9" width="21.87" height="16.2"/><rect class="cls-20" x="569.26" y="228.9" width="23.49" height="16.2"/><rect class="cls-20" x="617.26" y="228.9" width="23.49" height="16.2"/><polygon class="cls-3" points="567.38 159.84 567.38 162.46 579.5 153.62 579.5 151 567.38 159.84"/><polygon class="cls-3" points="567.38 165.42 567.38 168 567.43 168 579.5 159.19 579.5 156.58 567.38 165.42"/><polygon class="cls-3" points="615.38 158.84 615.38 161.46 627.5 152.62 627.5 150 615.38 158.84"/><polygon class="cls-3" points="615.38 164.42 615.38 167 615.43 167 627.5 158.19 627.5 155.58 615.38 164.42"/><polygon class="cls-3" points="519.38 159.84 519.38 162.46 531.5 153.62 531.5 151 519.38 159.84"/><polygon class="cls-3" points="519.38 165.42 519.38 168 519.43 168 531.5 159.19 531.5 156.58 519.38 165.42"/><polygon class="cls-3" points="519.38 198.84 519.38 201.46 531.5 192.62 531.5 190 519.38 198.84"/><polygon class="cls-3" points="519.38 204.42 519.38 207 519.43 207 531.5 198.19 531.5 195.58 519.38 204.42"/><polygon class="cls-3" points="567.38 238.84 567.38 241.46 579.5 232.62 579.5 230 567.38 238.84"/><polygon class="cls-3" points="567.38 244.42 567.38 247 567.43 247 579.5 238.19 579.5 235.58 567.38 244.42"/><polygon class="cls-3" points="567.38 198.84 567.38 201.46 579.5 192.62 579.5 190 567.38 198.84"/><polygon class="cls-3" points="567.38 204.42 567.38 207 567.43 207 579.5 198.19 579.5 195.58 567.38 204.42"/><polygon class="cls-3" points="615.38 198.84 615.38 201.46 627.5 192.62 627.5 190 615.38 198.84"/><polygon class="cls-3" points="615.38 204.42 615.38 207 615.43 207 627.5 198.19 627.5 195.58 615.38 204.42"/><polygon class="cls-3" points="615.38 237.84 615.38 240.46 627.5 231.62 627.5 229 615.38 237.84"/><polygon class="cls-3" points="615.38 243.42 615.38 246 615.43 246 627.5 237.19 627.5 234.58 615.38 243.42"/><polygon class="cls-3" points="520.38 237.8 520.38 240.11 530.5 232.31 530.5 230 520.38 237.8"/><polygon class="cls-3" points="520.38 242.72 520.38 245 520.42 245 530.5 237.23 530.5 234.92 520.38 242.72"/><rect class="cls-27" x="518.33" y="149.05" width="29.14" height="19.69"/><line class="cls-27" x1="532.9" y1="149.05" x2="532.9" y2="168.74"/><line class="cls-27" x1="532.9" y1="156.05" x2="547.47" y2="156.05"/><rect class="cls-27" x="566.27" y="149.05" width="29.14" height="19.69"/><line class="cls-27" x1="580.84" y1="149.05" x2="580.84" y2="168.74"/><line class="cls-27" x1="580.84" y1="156.05" x2="595.41" y2="156.05"/><rect class="cls-27" x="614.22" y="149.05" width="29.14" height="19.69"/><line class="cls-27" x1="628.79" y1="149.05" x2="628.79" y2="168.74"/><line class="cls-27" x1="628.79" y1="156.05" x2="643.36" y2="156.05"/><rect class="cls-27" x="518.33" y="188.44" width="29.14" height="19.69"/><line class="cls-27" x1="532.9" y1="188.44" x2="532.9" y2="208.13"/><line class="cls-27" x1="532.9" y1="195.44" x2="547.47" y2="195.44"/><rect class="cls-27" x="566.27" y="188.44" width="29.14" height="19.69"/><line class="cls-27" x1="580.84" y1="188.44" x2="580.84" y2="208.13"/><line class="cls-27" x1="580.84" y1="195.44" x2="595.41" y2="195.44"/><rect class="cls-27" x="614.22" y="188.44" width="29.14" height="19.69"/><line class="cls-27" x1="628.79" y1="188.44" x2="628.79" y2="208.13"/><line class="cls-27" x1="628.79" y1="195.44" x2="643.36" y2="195.44"/><rect class="cls-33" x="518.5" y="227.83" width="28.97" height="19.69"/><line class="cls-33" x1="531.38" y1="227.83" x2="531.38" y2="247.52"/><line class="cls-33" x1="531.38" y1="234.83" x2="547.47" y2="234.83"/><rect class="cls-27" x="566.27" y="227.83" width="29.14" height="19.69"/><line class="cls-27" x1="580.84" y1="227.83" x2="580.84" y2="247.52"/><line class="cls-27" x1="580.84" y1="234.83" x2="595.41" y2="234.83"/><rect class="cls-27" x="614.22" y="227.83" width="29.14" height="19.69"/><line class="cls-27" x1="628.79" y1="227.83" x2="628.79" y2="247.52"/><line class="cls-27" x1="628.79" y1="234.83" x2="643.36" y2="234.83"/><g class="cls-4"><rect class="cls-5" x="720.5" y="96.67" width="7.48" height="141.33"/></g><g class="cls-4"><rect class="cls-5" x="50.5" y="96.67" width="6.48" height="141.33"/></g><rect class="cls-35" x="277.25" y="115.11" width="219.94" height="28.69"/><polygon class="cls-3" points="307.38 233.4 307.38 236.48 321.5 226.08 321.5 223 307.38 233.4"/><polygon class="cls-3" points="307.38 239.96 307.38 243 307.44 243 321.5 232.64 321.5 229.56 307.38 239.96"/><polygon class="cls-3" points="458.38 233.4 458.38 236.48 472.5 226.08 472.5 223 458.38 233.4"/><polygon class="cls-3" points="458.38 239.96 458.38 243 458.44 243 472.5 232.64 472.5 229.56 458.38 239.96"/><rect class="cls-22" x="319.5" y="175" width="4" height="21"/><rect class="cls-22" x="469.5" y="175" width="4" height="21"/><rect class="cls-27" x="457.22" y="203.13" width="16.31" height="43.67"/><rect class="cls-27" x="457.22" y="174.22" width="16.31" height="22.27"/><line class="cls-27" x1="461.41" y1="177.37" x2="459.61" y2="179.16"/><line class="cls-27" x1="463.12" y1="179.85" x2="462.1" y2="180.87"/><line class="cls-27" x1="461.41" y1="206.16" x2="459.61" y2="207.95"/><line class="cls-27" x1="463.12" y1="208.64" x2="462.1" y2="209.66"/><rect class="cls-27" x="306.59" y="203.13" width="16.31" height="43.67"/><rect class="cls-27" x="306.59" y="174.22" width="16.31" height="22.27"/><line class="cls-27" x1="311.21" y1="177.37" x2="309.41" y2="179.16"/><line class="cls-27" x1="312.91" y1="179.85" x2="311.9" y2="180.87"/><line class="cls-27" x1="311.21" y1="206.16" x2="309.41" y2="207.95"/><line class="cls-27" x1="312.91" y1="208.64" x2="311.9" y2="209.66"/><rect class="cls-40" x="81.25" y="203" width="10" height="5" rx="1" ry="1"/><rect class="cls-40" x="81.25" y="209" width="10" height="5" rx="1" ry="1"/><rect class="cls-41" x="111.5" y="255" width="10" height="5" rx="1" ry="1"/><rect class="cls-41" x="103.5" y="203" width="10" height="5" rx="1" ry="1"/><rect class="cls-42" x="81.25" y="109" width="10" height="5" rx="1" ry="1"/><rect class="cls-43" x="111.5" y="243" width="10" height="5" rx="1" ry="1"/><rect class="cls-40" x="81.25" y="103" width="10" height="5" rx="1" ry="1"/><rect class="cls-40" x="69.5" y="103" width="10" height="5" rx="1" ry="1"/><rect class="cls-42" x="155.25" y="102" width="10" height="5" rx="1" ry="1"/><rect class="cls-40" x="155.25" y="96" width="10" height="5" rx="1" ry="1"/><rect class="cls-40" x="143.5" y="96" width="10" height="5" rx="1" ry="1"/><rect class="cls-40" x="111.5" y="249" width="10" height="5" rx="1" ry="1"/><rect class="cls-40" x="92.5" y="203" width="10" height="5" rx="1" ry="1"/><rect class="cls-40" x="630.83" y="215" width="10" height="5" rx="1" ry="1" transform="translate(1271.67 435) rotate(-180)"/><rect class="cls-40" x="619.83" y="221" width="10" height="5" rx="1" ry="1" transform="translate(1249.67 447) rotate(-180)"/><rect class="cls-40" x="619.83" y="215" width="10" height="5" rx="1" ry="1" transform="translate(1249.67 435) rotate(-180)"/><rect class="cls-40" x="641.83" y="215" width="10" height="5" rx="1" ry="1" transform="translate(1293.67 435) rotate(-180)"/><rect class="cls-40" x="534.83" y="172" width="10" height="5" rx="1" ry="1" transform="translate(1079.67 349) rotate(-180)"/><rect class="cls-41" x="545.83" y="178" width="10" height="5" rx="1" ry="1" transform="translate(1101.67 361) rotate(-180)"/><rect class="cls-42" x="602.83" y="177" width="10" height="5" rx="1" ry="1" transform="translate(1215.67 359) rotate(-180)"/><rect class="cls-40" x="592.83" y="172" width="10" height="5" rx="1" ry="1" transform="translate(1195.67 349) rotate(-180)"/><rect class="cls-40" x="506.5" y="197" width="10" height="5" rx="1" ry="1" transform="translate(1023 399) rotate(-180)"/><rect class="cls-40" x="506.5" y="203.5" width="10" height="5" rx="1" ry="1" transform="translate(1023 412) rotate(-180)"/><rect class="cls-43" x="506.5" y="210" width="10" height="5" rx="1" ry="1" transform="translate(1023 425) rotate(-180)"/><rect class="cls-40" x="516.83" y="215" width="10" height="5" rx="1" ry="1" transform="translate(1043.67 435) rotate(-180)"/><rect class="cls-40" x="558.83" y="248" width="10" height="5" rx="1" ry="1" transform="translate(1127.67 501) rotate(-180)"/><rect class="cls-40" x="630.83" y="141" width="10" height="5" rx="1" ry="1" transform="translate(1271.67 287) rotate(-180)"/><rect class="cls-44" x="641.83" y="136" width="10" height="5" rx="1" ry="1" transform="translate(1293.67 277) rotate(-180)"/><rect class="cls-40" x="523.83" y="172" width="10" height="5" rx="1" ry="1" transform="translate(1057.67 349) rotate(-180)"/><rect class="cls-40" x="545.83" y="172" width="10" height="5" rx="1" ry="1" transform="translate(1101.67 349) rotate(-180)"/><rect class="cls-40" x="686.98" y="204.91" width="10" height="5" rx="1" ry="1" transform="translate(1383.96 414.83) rotate(-180)"/><rect class="cls-40" x="686.98" y="210.91" width="10" height="5" rx="1" ry="1" transform="translate(1383.96 426.83) rotate(-180)"/><rect class="cls-41" x="656.73" y="256.91" width="10" height="5" rx="1" ry="1" transform="translate(1323.46 518.83) rotate(-180)"/><rect class="cls-41" x="664.73" y="204.91" width="10" height="5" rx="1" ry="1" transform="translate(1339.46 414.83) rotate(-180)"/><rect class="cls-42" x="686.98" y="110.91" width="10" height="5" rx="1" ry="1" transform="translate(1383.96 226.83) rotate(-180)"/><rect class="cls-43" x="656.73" y="244.91" width="10" height="5" rx="1" ry="1" transform="translate(1323.46 494.83) rotate(-180)"/><rect class="cls-40" x="686.98" y="104.91" width="10" height="5" rx="1" ry="1" transform="translate(1383.96 214.83) rotate(-180)"/><rect class="cls-40" x="698.73" y="104.91" width="10" height="5" rx="1" ry="1" transform="translate(1407.46 214.83) rotate(-180)"/><rect class="cls-42" x="612.98" y="103.91" width="10" height="5" rx="1" ry="1" transform="translate(1235.96 212.83) rotate(-180)"/><rect class="cls-40" x="612.98" y="97.91" width="10" height="5" rx="1" ry="1" transform="translate(1235.96 200.83) rotate(-180)"/><rect class="cls-40" x="624.73" y="97.91" width="10" height="5" rx="1" ry="1" transform="translate(1259.46 200.83) rotate(-180)"/><rect class="cls-40" x="656.73" y="250.91" width="10" height="5" rx="1" ry="1" transform="translate(1323.46 506.83) rotate(-180)"/><rect class="cls-40" x="675.73" y="204.91" width="10" height="5" rx="1" ry="1" transform="translate(1361.46 414.83) rotate(-180)"/><rect class="cls-40" x="148.5" y="215" width="10" height="5" rx="1" ry="1"/><rect class="cls-40" x="159.5" y="221" width="10" height="5" rx="1" ry="1"/><rect class="cls-40" x="159.5" y="215" width="10" height="5" rx="1" ry="1"/><rect class="cls-40" x="137.5" y="215" width="10" height="5" rx="1" ry="1"/><rect class="cls-40" x="244.5" y="172" width="10" height="5" rx="1" ry="1"/><rect class="cls-41" x="233.5" y="178" width="10" height="5" rx="1" ry="1"/><rect class="cls-42" x="176.5" y="177" width="10" height="5" rx="1" ry="1"/><rect class="cls-40" x="186.5" y="172" width="10" height="5" rx="1" ry="1"/><rect class="cls-40" x="272.83" y="197" width="10" height="5" rx="1" ry="1"/><rect class="cls-40" x="272.83" y="203.5" width="10" height="5" rx="1" ry="1"/><rect class="cls-43" x="272.83" y="210" width="10" height="5" rx="1" ry="1"/><rect class="cls-40" x="262.5" y="215" width="10" height="5" rx="1" ry="1"/><rect class="cls-40" x="220.5" y="248" width="10" height="5" rx="1" ry="1"/><rect class="cls-40" x="148.5" y="141" width="10" height="5" rx="1" ry="1"/><rect class="cls-44" x="137.5" y="136" width="10" height="5" rx="1" ry="1"/><rect class="cls-40" x="255.5" y="172" width="10" height="5" rx="1" ry="1"/><rect class="cls-40" x="233.5" y="172" width="10" height="5" rx="1" ry="1"/></svg>