<svg viewBox="0 0 65 75" xmlns="http://www.w3.org/2000/svg">
<path d="M60.0503.0685H6.9532c-1.6294 0-2.95 1.273-2.95 2.8435v2.6435C1.7872 5.613.0003 7.4236.0003 9.6523c0 2.2286 1.7869 4.0393 4.0029 4.0967v2.7593c-2.216.0575-4.0029 1.8681-4.0029 4.0968 0 2.2286 1.7869 4.0393 4.0029 4.0967v2.7593c-2.216.0575-4.0029 1.868-4.0029 4.0968 0 2.2286 1.7869 4.0392 4.0029 4.0967v2.7593c-2.216.0574-4.0029 1.868-4.0029 4.0967s1.7869 4.0393 4.0029 4.0968v2.7593c-2.216.0574-4.0029 1.868-4.0029 4.0967s1.7869 4.0393 4.0029 4.0968v2.7592c-2.216.0575-4.0029 1.8682-4.0029 4.0968 0 2.2287 1.7869 4.0393 4.0029 4.0968v2.6435C4.0032 72.727 5.3238 74 6.9532 74h53.0971c1.6286 0 2.95-1.273 2.95-2.8435V2.912c0-1.5706-1.3214-2.8435-2.95-2.8435zM2.7393 9.6523c0-.7566.6126-1.369 1.3694-1.369h4.1084v2.738H4.1087c-.7568 0-1.3695-.6133-1.3695-1.369zm0 10.9528c0-.7566.6126-1.369 1.3694-1.369h4.1084v2.738H4.1087c-.7568 0-1.3695-.6133-1.3695-1.369zm0 10.9528c0-.7558.6126-1.369 1.3694-1.369h4.1084v2.738H4.1087c-.7568 0-1.3695-.6133-1.3695-1.369zm0 10.9527c0-.7557.6126-1.369 1.3694-1.369h4.1084v2.738H4.1087c-.7568 0-1.3695-.6124-1.3695-1.369zm0 10.9528c0-.7565.6126-1.369 1.3694-1.369h4.1084v2.738H4.1087c-.7568 0-1.3695-.6124-1.3695-1.369zm0 10.9528c0-.7565.6126-1.369 1.3694-1.369h4.1084v2.738H4.1087c-.7568 0-1.3695-.6125-1.3695-1.369zm4.2139 6.8458c-.1497 0-.2103-.0905-.2103-.1055V68.524H8.217c1.5136 0 2.7397-1.2265 2.7397-2.7388v-2.738c0-1.5123-1.2261-2.738-2.7397-2.738H6.7429v-2.7388H8.217c1.5136 0 2.7397-1.2257 2.7397-2.738v-2.738c0-1.5123-1.2261-2.738-2.7397-2.738H6.7429v-2.7388H8.217c1.5136 0 2.7397-1.2257 2.7397-2.738v-2.738c0-1.5122-1.2261-2.738-2.7397-2.738H6.7429V35.665H8.217c1.5136 0 2.7397-1.2258 2.7397-2.738v-2.738c0-1.5123-1.2261-2.738-2.7397-2.738H6.7429V24.712H8.217c1.5136 0 2.7397-1.2258 2.7397-2.738v-2.738c0-1.5123-1.2261-2.738-2.7397-2.738H6.7429v-2.7388H8.217c1.5136 0 2.7397-1.2257 2.7397-2.738v-2.738c0-1.5123-1.2261-2.738-2.7397-2.738H6.7429V2.912c0-.015.0606-.1055.2103-.1055h6.7425V71.262H6.9532zm53.3082-.1055c0 .015-.0614.1055-.211.1055H16.4346V2.8065h43.6156c.1497 0 .211.0905.211.1055v68.2445z" fill="#4a90e2"/>
<path d="M53.65 26h-24.3c-.746 0-1.35.6717-1.35 1.4996C28 28.3283 28.604 29 29.35 29h24.3c.7453 0 1.35-.6717 1.35-1.5004C55 26.6717 54.3953 26 53.65 26M26 27.5c0 .828-.671 1.5-1.5 1.5s-1.5-.672-1.5-1.5.671-1.5 1.5-1.5 1.5.672 1.5 1.5M53.65 36h-24.3c-.746 0-1.35.6717-1.35 1.4996C28 38.3283 28.604 39 29.35 39h24.3c.7453 0 1.35-.6717 1.35-1.5004C55 36.6717 54.3953 36 53.65 36M26 37.5c0 .828-.671 1.5-1.5 1.5s-1.5-.672-1.5-1.5.671-1.5 1.5-1.5 1.5.672 1.5 1.5M53.65 47h-24.3c-.746 0-1.35.6709-1.35 1.4996S28.604 50 29.35 50h24.3c.7453 0 1.35-.6717 1.35-1.5004S54.3953 47 53.65 47M26 48.5c0 .828-.671 1.5-1.5 1.5s-1.5-.672-1.5-1.5.671-1.5 1.5-1.5 1.5.672 1.5 1.5" fill="#4a90e2"/>
</svg>
