<?xml version="1.0" encoding="UTF-8"?>
<svg width="221px" height="119px" viewBox="0 0 221 119" version="1.1" xmlns="http://www.w3.org/2000/svg" xmlns:xlink="http://www.w3.org/1999/xlink">
    <!-- Generator: Sketch 59.1 (86144) - https://sketch.com -->
    <title>Group 4510</title>
    <desc>Created with Sketch.</desc>
    <defs>
        <polygon id="path-1" points="0.46245 0.208875 216.5697 0.208875 216.5697 118.5 0.46245 118.5"></polygon>
    </defs>
    <g id="Desktop" stroke="none" stroke-width="1" fill="none" fill-rule="evenodd">
        <g id="Homelessness-Section-3-10" transform="translate(-550.000000, -2480.000000)">
            <g id="Group-45" transform="translate(550.000000, 2480.000000)">
                <g id="Group-44" transform="translate(0.000000, 0.541500)">
                    <g id="Group-3" transform="translate(3.750000, 0.000000)">
                        <mask id="mask-2" fill="white">
                            <use xlink:href="#path-1"></use>
                        </mask>
                        <g id="Clip-2"></g>
                        <path d="M206.32095,28.021875 C206.29995,28.090125 206.2767,28.177875 206.2602,28.281375 C206.2767,28.193625 206.29995,28.109625 206.29995,28.046625 C206.2767,28.085625 206.2602,28.109625 206.23845,28.163625 C206.2767,28.090125 206.2767,28.021875 206.32095,27.973125 L206.32095,28.021875 Z M180.95295,59.870625 C181.0137,59.958375 181.0527,59.992125 181.1142,60.061125 C181.0452,59.977125 180.95295,59.890125 180.8697,59.807625 C180.8877,59.854875 180.9312,59.854875 180.95295,59.870625 L180.95295,59.870625 Z M216.5607,24.103875 L216.5607,23.860125 C216.52995,23.893875 216.49995,23.953125 216.4872,24.001875 C216.4872,23.879625 216.40395,23.806125 216.3732,23.727375 C216.24345,24.016125 215.84295,23.576625 216.18195,23.400375 C216.24345,23.385375 216.28245,23.366625 216.3267,23.332125 L216.3267,23.326875 L216.3267,23.257875 L216.2652,23.239125 L216.20445,23.057625 L216.20445,22.999125 L216.1602,22.964625 L216.0777,22.798125 L216.0777,22.745625 L216.0477,22.710375 L215.9562,22.538625 L215.9562,22.525125 L215.84295,22.525125 L215.79045,22.490625 L215.76045,22.573875 L215.6082,22.642125 L215.35095,22.642125 L215.22045,22.573875 L215.17695,22.490625 L215.0862,22.446375 L214.99395,22.304625 L214.92495,22.143375 L214.92495,22.123125 L214.8507,22.045125 L214.84095,21.972375 L214.73745,21.922875 L214.6902,21.746625 L214.6902,21.610125 L214.73745,21.454125 L214.81095,21.434625 L214.81095,21.355875 L214.8507,21.194625 L214.73745,21.125625 L214.6902,20.954625 L214.6902,20.573625 L214.73745,20.386875 L214.84095,20.285625 L214.5552,20.285625 L214.40145,20.206125 L214.35045,20.167125 L214.1982,20.167125 L214.05495,20.083875 L214.0242,19.991625 L213.93195,19.956375 L213.91095,19.909125 L213.84945,19.909125 L213.7062,19.825125 L213.59295,19.688625 L213.5412,19.595625 L213.46245,19.561125 L213.40995,19.389375 L213.4497,19.252875 L213.40995,19.130625 L213.40995,19.003875 L213.46245,18.826875 L213.5412,18.792375 L213.5097,18.724875 L213.5097,18.470625 L213.5412,18.402375 L213.5097,18.343125 L213.5097,12.493875 C213.4707,12.464625 213.46245,12.444375 213.4497,12.405375 L213.37995,12.405375 L213.2277,12.361125 L213.19245,12.259125 L213.1317,12.210375 L213.0702,12.117375 L213.0102,12.082875 L212.92695,11.911875 L212.92695,11.848875 L212.88795,11.823375 L212.8437,11.716875 L212.7657,11.677125 L212.7357,11.623125 L212.6832,11.623125 L212.53095,11.564625 L212.4882,11.456625 L212.42745,11.412375 L212.39595,11.368875 L212.3352,11.368875 L212.19195,11.286375 L212.1522,11.197125 L212.0697,11.163375 L212.0487,11.095875 L211.9872,11.095875 L211.8222,11.026125 L211.81245,10.973625 L211.7217,10.973625 L211.7217,11.124375 L211.6602,11.286375 L211.51695,11.368875 L211.1607,11.368875 L211.08645,11.350125 L211.04745,11.368875 L210.90345,11.368875 L210.85995,11.422875 L210.7812,11.456625 L210.73845,11.564625 L210.5772,11.623125 L210.1992,11.623125 L210.1467,11.677125 L209.9937,11.755875 L209.9202,11.755875 L209.9202,11.823375 L209.76795,11.887875 L209.5317,11.887875 L209.3802,11.823375 L209.34945,11.755875 L209.2842,11.755875 L209.14545,11.677125 L209.10195,11.623125 L209.0622,11.623125 L208.91895,11.564625 L208.8582,11.383125 L208.8582,11.354625 L208.7967,11.295375 C208.77495,11.281125 208.77495,11.246625 208.77495,11.197125 C208.7532,11.163375 208.7367,11.148375 208.7367,11.124375 L208.7367,10.660125 L208.67595,10.630875 L208.6017,10.537875 L208.43595,10.439625 L208.3137,10.605375 L208.20045,10.836375 L208.1922,10.855125 L207.94845,11.246625 L207.93495,11.286375 L207.6912,11.545125 L207.6912,11.564625 L207.4647,11.823375 L207.26145,12.064125 L207.0252,12.435375 L206.9952,12.464625 L206.76945,12.724125 L206.5557,13.096125 L206.34195,13.482375 L206.09445,13.878375 L206.05545,13.916625 L205.82895,14.171625 L205.63245,14.391375 L205.41945,15.736875 L205.41945,15.838875 L205.35945,16.020375 L205.21545,16.078125 L205.14645,16.078125 L205.13295,16.147875 L205.0497,16.176375 L205.03245,16.279125 L204.95895,16.284375 L204.95895,16.366875 L204.90645,16.558125 L204.74445,16.606875 L204.72345,16.606875 L204.72345,16.758375 L204.6627,16.890375 L204.7062,16.935375 C204.74445,16.958625 204.80595,17.017875 204.8277,17.056875 C204.85845,17.150625 204.8367,17.262375 204.7842,17.345625 L204.72345,17.399625 L204.72345,17.418375 L204.6627,17.590125 L204.6012,17.609625 L204.6012,17.677875 L204.5502,17.839125 L204.6627,17.912625 L204.72345,18.083625 L204.72345,18.470625 L204.6627,18.616875 L204.5802,18.675375 L204.5502,18.773625 L204.48045,18.792375 L204.41895,18.910125 L204.25395,18.964125 L204.22245,18.964125 L204.18345,19.047375 L204.1527,19.052625 L204.18345,19.067625 C204.25395,19.155375 204.25395,19.252875 204.24495,19.345875 C204.22245,19.423875 204.1527,19.453125 204.10995,19.483125 L204.0792,19.561125 L204.00945,19.595625 L203.96595,19.688625 L203.8137,19.751625 L203.76195,19.751625 L203.7222,19.825125 L203.56995,19.909125 L203.49645,19.909125 L203.49645,19.956375 L203.4042,19.991625 L203.3967,20.083875 L203.23095,20.167125 L203.20995,20.167125 L203.20995,20.171625 L203.14845,20.343375 L203.04795,20.377875 C203.04795,20.431875 203.0262,20.460375 202.98795,20.494875 L203.0262,20.530125 L203.04795,20.612625 L203.14845,20.647125 L203.1912,20.764125 L203.26095,20.788125 L203.32245,20.954625 L203.32245,21.091875 L203.26095,21.268125 L203.09595,21.326625 L202.7607,21.326625 L202.59495,21.268125 L202.59495,21.296625 L202.6182,21.355875 L202.6182,21.478125 L202.5342,21.659625 L202.43445,21.787125 L202.4127,21.816375 L202.4127,21.874125 L202.32195,22.045125 L202.1787,22.123125 L202.04295,22.123125 L201.9207,22.045125 L201.85095,21.874125 L201.85095,21.816375 L201.7767,21.787125 L201.7467,21.659625 L201.6552,21.683625 L201.63345,21.787125 L201.4722,21.869625 L201.4512,21.869625 L201.4512,21.874125 L201.39045,22.045125 L201.24645,22.123125 L201.00195,22.123125 L200.85945,22.045125 L200.7852,21.986625 L200.77545,21.986625 L200.6232,21.922875 L200.6022,21.883875 L200.5632,21.922875 L200.4897,21.972375 L200.4672,22.045125 L200.4057,22.080375 L200.4057,22.275375 L200.3457,22.446375 L200.2932,22.471125 L200.2932,22.538625 L200.20245,22.710375 L200.14095,22.745625 L200.1012,22.828125 L200.05845,22.896375 L200.05845,23.057625 C200.05845,23.204625 199.95795,23.312625 199.8537,23.312625 L198.95295,23.312625 L198.7782,23.400375 L198.6702,23.434875 L195.86745,23.434875 L195.71145,23.366625 L195.6492,23.312625 L192.9912,23.312625 L192.6552,23.400375 L192.6027,23.434875 L187.4547,23.434875 L187.37595,23.400375 L187.35495,23.434875 L187.2807,23.434875 L187.27245,23.498625 L187.1112,23.576625 L186.9147,23.576625 L186.90645,23.620875 L186.74145,23.707875 L186.73245,23.707875 L186.67995,23.761875 L186.5367,23.825625 L186.35445,23.825625 L186.32295,23.879625 L186.2487,23.917875 L186.2097,24.016125 L186.05445,24.089625 L185.9232,24.089625 L185.86245,24.148875 L185.7792,24.187875 L185.74845,24.275625 L185.63595,24.412875 C185.5962,24.451875 185.5662,24.451875 185.55345,24.471375 L185.5137,24.535125 L185.3487,24.627375 L185.30895,24.627375 C185.30895,24.667125 185.24745,24.700875 185.20545,24.724875 L185.0307,24.837375 L184.92195,24.931125 L184.5747,25.336125 L184.53045,25.381125 L184.3167,25.503375 L184.28595,25.546875 L184.28595,25.561875 L184.22595,25.738125 L184.0827,25.806375 L184.03845,25.806375 L184.0212,25.840125 L183.9162,26.050875 L183.8772,26.114625 L183.79545,26.236875 L183.6897,26.442375 L183.5817,26.564625 L183.38595,26.667375 L183.29445,26.779875 L183.12045,26.837625 L182.93745,26.837625 L182.85495,26.974875 C182.8107,27.058125 182.77245,27.117375 182.66745,27.117375 L182.5287,27.117375 L182.5287,27.263625 L182.4852,27.435375 L182.30295,27.507375 L182.0367,27.507375 L181.99245,27.577125 L181.87095,27.626625 L181.8102,27.762375 L181.7577,27.831375 L181.5447,28.085625 L181.0917,28.711875 L180.64395,29.596875 L180.64395,29.621625 L180.1827,30.418125 L179.9697,30.515625 L172.9107,30.515625 L172.00995,30.907875 L171.29595,31.299375 L171.62145,31.973625 L171.7227,32.081625 L171.78345,32.252625 L171.78345,32.897625 L171.78345,32.927625 L171.78345,32.941875 C171.82695,32.985375 171.8667,33.010875 171.8787,33.058875 C172.00095,33.073875 172.09245,33.128625 172.1322,33.216375 C172.1532,33.265125 172.1322,33.387375 172.1142,33.478875 L172.1922,33.543375 L172.25745,33.694875 L172.25745,33.954375 L172.25745,34.022625 L172.1832,34.224375 C172.25745,34.380375 172.26645,34.536375 172.09245,34.643625 C171.04845,35.484375 169.99395,36.311625 168.9327,37.132875 C167.1402,38.566125 164.72895,38.679375 162.88395,39.970125 C162.5697,40.175625 162.33495,40.503375 162.0477,40.728375 C161.3427,41.260875 160.6332,41.206875 159.79845,41.310375 C159.46695,41.359125 159.14895,41.530125 158.85345,41.588625 C158.20095,41.700375 157.23945,41.530125 156.5862,41.299875 C156.91245,41.040375 157.26045,41.173125 157.5867,41.035875 C157.91295,40.899375 157.94445,40.913625 157.46445,40.737375 C156.6552,40.419375 155.81595,40.155375 154.9887,39.862125 C155.35395,39.196875 155.6937,38.546625 156.05145,37.876875 L156.05145,37.852125 L156.05145,37.357875 L156.12495,37.201125 L156.1722,37.132875 L156.1722,36.976875 L156.23895,36.805875 L156.3987,36.731625 L156.4122,36.731625 L156.48195,36.683625 L156.6252,36.600375 L156.72495,36.600375 C156.92145,36.238125 157.13445,35.876625 157.30845,35.529375 C157.61745,34.942125 157.94445,34.933125 158.0352,35.548875 L158.1267,35.548875 C158.2617,35.200875 158.38395,34.858875 158.49645,34.516875 L158.49645,33.954375 L158.5707,33.783375 L158.63145,33.739125 L158.63145,33.694875 L158.6922,33.543375 L158.7537,33.478875 L158.7537,33.431625 L158.7747,33.328125 L158.8047,33.229875 C158.7747,33.128625 158.7312,33.006375 158.66145,32.809875 C158.63145,32.614125 158.5707,32.384625 158.5407,32.183625 C158.46645,31.749375 158.44395,31.327875 158.3442,30.907875 C158.20095,30.120375 158.20095,29.024625 157.66995,28.413375 C156.9297,27.577125 156.07245,28.447125 155.31495,28.912125 C154.96695,29.136375 153.58695,30.286875 153.26145,29.905125 C153.1257,29.728125 153.2172,29.406375 153.23145,29.195625 C153.26145,29.024625 153.29145,28.759875 153.4137,28.569375 C153.6792,28.133625 154.25295,28.335375 154.5192,27.938625 C154.67145,27.694125 154.5582,27.420375 154.67145,27.166125 C154.8447,26.803875 155.2332,26.902125 155.4372,26.598375 C155.6637,26.236875 155.6637,24.808875 155.60295,24.378375 C155.5287,23.806125 154.3752,22.525125 155.6637,22.989375 C155.65395,22.504875 155.4372,22.525125 155.31495,22.187625 C155.2542,21.972375 155.2752,21.751875 155.19345,21.629625 C155.0112,21.296625 154.3227,21.106125 154.02645,20.954625 C153.5967,20.788125 153.14895,20.720625 152.76945,20.535375 C152.3907,20.363625 152.32995,19.786125 151.8162,19.672875 C151.4982,19.615125 151.32495,19.702125 151.0287,19.579875 C150.8157,19.453125 150.6282,19.233375 150.38445,19.135125 C150.15795,19.062375 149.51445,18.930375 149.3397,19.130625 C149.05695,19.423875 148.9137,21.037125 149.53545,20.974875 C149.09595,21.321375 148.46145,21.067875 148.01295,21.527625 C147.63345,21.922875 147.7647,22.525125 147.7257,23.092125 C147.68595,23.727375 147.5127,23.106375 147.2772,23.249625 C147.13395,23.326875 146.9772,24.070125 146.89845,24.236625 C146.65845,23.913375 146.89845,23.576625 146.94645,23.228625 C146.89845,23.228625 146.89845,23.257875 146.8677,23.257875 C146.89845,23.057625 147.15045,22.123125 146.85495,22.206375 C146.7852,22.236375 146.4762,22.764375 146.39445,22.852125 C146.32395,22.999125 146.2497,23.332125 146.11095,23.400375 C145.98495,23.498625 145.89345,23.249625 145.8027,23.296875 C145.70145,23.332125 145.65795,23.482875 145.55745,23.556375 C145.4667,23.590875 145.2927,23.533125 145.24845,23.576625 C145.0662,23.825625 145.02345,24.236625 144.8487,24.496125 C144.80145,24.583875 144.60495,24.568875 144.5532,24.667125 C144.02145,25.429875 143.9517,26.837625 143.6742,27.748875 C143.51295,28.247625 143.80845,28.676625 143.85645,29.215875 C143.92995,29.884875 143.64345,30.569625 143.7957,31.240125 C143.8692,31.627125 144.1047,32.443125 144.52245,32.100375 C144.53595,32.668125 144.53595,32.985375 144.6357,33.460875 C144.6747,33.749625 144.6567,34.052625 144.6657,34.336125 C144.69645,36.390375 143.2737,38.077125 142.35495,39.749625 C142.5687,39.749625 142.9302,39.676875 143.1207,39.749625 C143.3472,39.862125 143.51295,40.249125 143.5302,40.609875 C143.51295,40.194375 143.2557,39.814125 142.83345,39.749625 C142.14195,39.676875 141.73245,40.277625 141.0972,40.414875 C140.62695,40.503375 139.9092,40.249125 139.7262,39.793875 C139.1742,38.546625 138.70395,37.627875 138.72045,36.238125 C138.7857,35.094375 138.49845,33.919875 138.4077,32.770125 C138.3552,32.218875 138.43845,31.910625 138.58245,31.390875 C138.80445,30.506625 138.82545,29.542875 139.0692,28.662375 C139.2567,27.894375 139.58295,27.318375 139.7487,26.539875 C139.89945,25.879875 140.09145,25.302375 140.34045,24.681375 C140.40045,24.496125 140.4402,24.172125 140.30895,23.953125 C140.5842,24.172125 141.0972,23.517375 141.2187,23.272875 C141.52845,22.642125 141.52845,22.338375 141.46245,21.610125 C141.3237,21.883875 141.27195,22.080375 141.07545,22.304625 C140.98395,22.392375 140.90145,22.299375 140.7492,22.446375 C140.7057,22.538625 140.71845,22.792875 140.64495,22.896375 C140.6142,22.955625 140.4402,23.038125 140.40045,23.161125 C140.29695,23.332125 140.12145,23.727375 140.29695,23.913375 C140.2572,23.869875 140.1957,23.806125 140.11395,23.806125 C139.88745,23.718375 139.37895,24.016125 139.1952,24.319125 C138.90795,24.759375 138.8562,25.042875 138.3552,25.293375 C138.1902,25.390125 138.3552,25.621125 138.0462,25.459875 C137.81145,25.336125 137.9022,25.288125 137.9022,25.029375 C137.96745,24.730125 138.13845,24.496125 138.2952,24.275625 C138.39495,24.070125 138.5217,23.590875 138.64245,23.449125 C138.72045,23.366625 138.88695,23.449125 138.96945,23.385375 C139.1952,23.140875 139.43895,22.862625 139.5612,22.525125 C139.7262,21.972375 140.09145,21.561375 140.37045,21.091875 C140.54445,20.822625 140.64495,20.530125 140.78895,20.206125 C140.71845,20.206125 140.6667,20.171625 140.62695,20.132625 C140.7057,20.171625 140.78895,20.113875 140.95395,19.991625 C141.44595,19.595625 141.5457,18.964125 141.81045,18.377625 C141.7932,18.773625 141.8412,19.155375 141.81045,19.540875 C142.0587,19.453125 142.2807,19.291125 142.43745,19.062375 C142.46745,19.023375 142.5372,18.715125 142.5507,18.715125 C142.43745,18.778875 143.38695,18.568875 143.32545,18.499875 C143.9217,18.867375 142.24995,19.595625 143.09895,19.991625 C143.3472,19.561125 143.38695,19.360875 143.73495,19.130625 C143.80845,19.081125 144.02145,19.023375 144.08295,18.964125 C144.1872,18.867375 144.1662,18.691125 144.25695,18.568875 C144.6357,17.986125 145.22745,17.986125 145.8027,18.298875 C145.77945,17.878875 146.6202,18.103125 146.89845,17.912625 C147.07245,17.746125 147.0897,17.491875 147.3252,17.399625 C147.52095,17.296125 147.89895,17.399625 148.1127,17.452875 C148.39995,17.491875 148.78695,17.638875 149.02695,17.776125 C149.3007,17.951625 149.76195,18.691125 150.0972,18.675375 C150.46695,18.661125 150.15795,17.794875 150.5277,17.653875 C150.7932,17.551125 151.38495,17.912625 151.6947,17.912625 C151.98195,17.966625 152.28645,17.986125 152.5737,18.039375 C152.73945,18.069375 153.33945,18.274875 153.38295,17.966625 C153.38295,17.966625 153.38295,17.912625 153.3612,17.912625 L153.26145,17.912625 C153.14895,17.912625 153.0867,17.878875 153.05595,17.794875 L152.96145,17.574375 L152.85195,17.452875 L152.85195,17.433375 C152.82195,17.428875 152.8002,17.399625 152.78595,17.399625 C152.7777,17.350125 152.7777,17.345625 152.8002,17.296125 L152.67795,17.247375 L152.6127,17.194125 L152.49045,17.071875 L152.4432,16.890375 L152.4432,16.826625 C152.3607,16.758375 152.30745,16.709625 152.2467,16.641375 C152.30745,16.558125 152.1342,15.903375 151.98195,15.662625 C151.98195,15.628875 151.9512,15.579375 151.9212,15.560625 L151.4982,15.560625 L151.4592,15.701625 C151.40745,15.770625 151.33695,15.819375 151.2462,15.819375 L150.8982,15.819375 L150.7422,15.736875 L150.1182,14.924625 C149.8752,14.860125 149.6277,14.807625 149.3832,14.753625 C148.95345,14.724375 149.19645,14.034375 149.4357,13.823625 C148.86945,13.785375 148.2042,13.990125 147.65145,14.068125 C146.71095,14.221125 145.74945,14.391375 144.80145,14.548125 C144.49245,14.587125 144.1872,14.797125 143.92995,14.939625 C143.6742,15.085875 143.4687,15.355125 143.2557,15.486375 C142.87695,15.677625 142.5687,15.418125 142.14195,15.232875 C141.5367,14.968875 140.90145,15.046875 140.27895,14.895375 C140.27895,14.821125 139.62195,13.878375 139.4787,13.721625 C138.9297,13.066125 138.13845,13.134375 137.3547,12.982125 C137.4027,12.924375 137.4327,12.865125 137.45445,12.826125 C137.02395,13.056375 136.55445,13.423125 136.2582,13.878375 C136.1877,13.496625 136.3932,13.120125 136.34895,12.791625 C136.32795,12.640875 136.12245,12.229875 136.10595,12.175875 C135.9537,12.043875 135.7572,11.848875 135.62295,11.745375 C135.58395,11.701125 135.7137,11.485875 135.59145,11.412375 C135.4482,11.295375 134.73495,11.823375 134.5692,11.902125 C133.4022,12.513375 132.24945,13.134375 131.0922,13.745625 C131.0922,13.745625 131.0922,13.756125 131.07045,13.756125 L131.07045,13.745625 C130.39545,14.112375 129.7122,14.459625 129.03795,14.821125 C128.7207,15.007125 127.67595,14.239875 127.3062,14.049375 C127.0842,13.916625 127.63245,13.472625 127.61445,13.227375 C127.59345,12.381375 125.75145,13.456875 125.3817,13.613625 C124.9947,13.785375 124.60695,14.014875 124.1772,14.112375 C123.65445,14.239875 123.14595,14.014875 122.6097,13.878375 C123.9117,12.694125 125.23845,11.485875 126.5307,10.312125 C127.0842,9.823125 127.5327,9.388875 128.1462,9.060375 C129.2292,8.498625 130.39545,8.048625 131.5617,7.519875 L131.4792,7.480125 L131.41845,7.427625 L131.33595,7.427625 L131.32695,7.480125 L131.1747,7.558875 L131.11395,7.558875 L131.0922,7.618125 L130.92645,7.691625 L130.7832,7.618125 L130.7652,7.558875 L130.6002,7.558875 L130.43895,7.480125 L130.3737,7.309125 L130.3737,7.246125 L130.3347,7.240875 C130.0302,7.186875 129.72195,7.133625 129.39495,7.030875 C129.69945,7.069875 129.96495,7.090125 130.26495,7.133625 L130.19145,7.090125 L130.18245,6.986625 L130.0917,6.967875 L130.04745,6.898875 L129.6297,6.898875 L129.5772,6.967875 L129.4032,7.030875 L128.4717,7.030875 L128.37195,6.967875 L128.2497,7.030875 L127.65345,7.030875 L127.5012,6.967875 L127.4802,6.884625 L127.39695,6.830625 L127.3272,6.669375 L127.3272,6.591375 L127.2747,6.571125 L127.2237,6.381375 L127.2237,6.365625 L127.18395,6.370875 L127.0227,6.370875 L127.0017,6.439125 L126.8577,6.503625 L126.7962,6.503625 L126.77445,6.571125 L126.5922,6.634875 L126.5487,6.634875 L126.51795,6.693375 L126.3747,6.762375 L126.3657,6.762375 L126.30495,6.830625 L126.22245,6.884625 L126.16995,6.967875 L126.1002,6.986625 L126.0702,7.090125 L125.90445,7.168125 L125.6307,7.168125 L125.6082,7.225875 L125.4477,7.289625 L124.6167,7.289625 L124.4637,7.225875 L124.4337,7.055625 L124.4337,7.030875 L124.1547,7.030875 L124.0032,6.967875 L123.9507,6.786375 L123.9507,6.669375 C123.9507,6.634875 123.9717,6.610125 123.9717,6.610125 L123.88995,6.571125 L123.87195,6.503625 L123.5712,6.503625 L123.44145,6.439125 L123.39795,6.370875 L123.22395,6.370875 L123.0717,6.297375 L123.0402,6.209625 L122.9712,6.175125 L122.91945,6.076875 L122.8362,6.037875 L122.7837,5.866875 L122.7837,5.716125 L122.5317,5.716125 C122.50095,5.716125 122.47995,5.691375 122.47995,5.691375 C122.43645,5.691375 122.42745,5.716125 122.39745,5.716125 L122.15295,5.716125 L122.15295,6.004875 C122.15295,6.096375 122.0877,6.175125 122.00895,6.209625 L121.98795,6.297375 L121.8222,6.370875 L121.71345,6.370875 L121.5702,6.297375 L121.52595,6.199125 L121.4352,6.175125 L121.35195,6.004875 L121.35195,5.940375 L121.32195,5.906625 L121.28295,5.812875 C121.22145,5.779125 121.1472,5.716125 121.1472,5.593875 L121.1472,5.294625 L121.08645,5.251125 L121.06545,5.196375 L120.43395,5.196375 L120.26895,5.123625 L120.1992,4.957125 L120.1992,4.678125 L120.2082,4.643625 L120.16845,4.604625 L120.1032,4.546875 L119.9637,4.546875 L119.7987,4.472625 L119.7462,4.414125 L119.7072,4.414125 L119.5722,4.336875 L119.5107,4.267125 L119.4942,4.267125 L119.32845,4.204125 L119.32845,4.165125 L119.2767,4.204125 L119.16345,4.267125 L118.7847,4.267125 L118.63245,4.204125 L118.6107,4.144875 L118.26195,4.144875 L118.22295,4.204125 L118.0797,4.267125 L117.96645,4.267125 C117.95745,4.267125 117.9357,4.261875 117.91845,4.243125 C117.8832,4.261875 117.8757,4.267125 117.8532,4.267125 L117.8142,4.267125 L117.8142,4.424625 L117.77445,4.604625 L117.6312,4.673625 L117.2307,4.673625 L117.17895,4.737375 C117.11745,4.801125 117.03495,4.819875 116.95695,4.776375 L116.9127,4.801125 L116.34345,4.801125 L116.1777,4.737375 L116.1477,4.643625 L116.07345,4.604625 L116.0037,4.424625 L116.0037,4.218375 L115.9647,4.204125 L115.93395,4.144875 L114.92895,4.144875 L114.7677,4.071375 L114.73245,4.008375 L114.6027,4.008375 L114.42795,3.955125 L114.3582,3.768375 L114.3582,3.754875 L114.07095,3.754875 L114.02745,3.802875 L113.8842,3.877125 L113.6412,3.877125 L113.49645,3.802875 L113.46645,3.754875 L113.29245,3.754875 L113.1402,3.685875 L113.10945,3.592875 C113.04945,3.549375 113.01795,3.514125 113.0052,3.456375 L112.9227,3.412125 L112.88295,3.323625 C112.80045,3.289875 112.7397,3.220875 112.7397,3.113625 L112.7397,2.345625 L112.62645,2.004375 L112.62645,1.929375 L112.62645,1.739625 L112.5132,1.528875 L112.4952,1.411875 L112.4952,1.328625 L112.41345,1.132125 L112.37445,1.015125 L112.37445,0.814875 L112.2912,0.604125 L112.26945,0.492375 L112.26945,0.453375 L112.0257,0.301125 C112.0047,0.282375 111.96495,0.256875 111.9432,0.208875 L111.41295,0.208875 L111.41295,1.929375 L111.34695,2.100375 L111.20745,2.170125 L7.75695,2.170125 C7.7262,2.291625 7.7427,2.428125 7.81695,2.653875 C7.8657,2.805375 8.0832,3.015375 8.13495,3.098625 C8.3697,3.456375 8.02995,3.407625 8.74845,3.289875 C8.5617,3.715875 8.97045,3.768375 8.9922,4.131375 C8.9922,4.218375 8.8272,4.566375 8.7882,4.643625 C8.74845,4.708125 8.9007,4.776375 8.8272,4.854375 C8.73495,4.986375 8.4312,5.059875 8.31795,5.137875 C8.50095,5.010375 9.0747,5.509875 9.21795,5.788875 C9.40095,6.199125 9.15795,6.604875 9.5457,7.015875 C9.7107,7.186875 9.89295,7.090125 9.8712,7.309125 C9.8712,7.427625 9.5757,7.529625 9.5142,7.646625 C9.4842,7.686375 9.40995,7.926375 9.40095,8.033625 C9.3492,8.122125 9.2577,8.140875 9.21795,8.297625 C9.17595,8.430375 9.3192,8.581125 9.3012,8.635125 C9.3012,8.719125 9.15795,8.889375 9.15795,8.947875 C9.1662,8.981625 9.21795,9.168375 9.21795,9.217875 C9.21795,9.196875 9.3927,9.442125 9.40095,9.515625 C9.40095,9.583875 9.21795,9.672375 9.20595,9.769125 C9.20595,9.823125 9.3012,9.907125 9.3012,9.970875 C9.3012,10.098375 9.40995,10.297875 9.40995,10.381125 C9.40095,10.742625 9.3927,10.507875 9.23595,10.801875 C9.0747,11.124375 8.8482,11.197125 8.47845,11.573625 C8.02995,12.004875 7.9167,11.950875 7.29495,12.175875 C7.32495,12.210375 7.32495,12.259125 7.32495,12.292875 C6.88545,12.259125 6.9777,11.984625 7.1907,11.677125 C7.0167,11.779875 6.86445,11.950875 6.68145,12.014625 C6.7812,11.848875 6.98595,11.745375 7.09095,11.564625 C7.1727,11.442375 7.12995,11.246625 7.2042,11.124375 C7.34295,10.855125 7.6002,10.904625 7.6002,10.474875 C7.7262,10.904625 7.51695,11.246625 7.77345,11.594625 C7.8867,11.006625 7.9392,10.836375 8.2872,10.469625 L8.3052,10.439625 C8.2872,10.469625 8.2872,10.474875 8.26545,10.474875 L8.2872,10.474875 L8.26545,10.474875 C8.21295,10.660125 8.13495,10.801875 8.1132,10.973625 C9.1362,10.753125 8.6442,9.300375 8.21295,8.668875 C8.31795,8.742375 8.8572,8.698125 8.9007,8.599875 C8.97045,8.395125 8.73495,8.033625 8.70495,7.759875 C8.50095,8.122125 8.13495,8.360625 7.8657,8.766375 C7.6602,9.100125 7.4562,9.100125 7.12995,9.379125 C6.94695,9.550125 6.76395,9.921375 6.66795,10.145625 C6.5592,10.439625 6.37245,10.439625 6.6897,10.537875 C6.88545,10.591875 7.27395,10.366125 7.4562,10.243875 C7.3782,10.317375 6.4947,11.006625 6.4557,10.644375 C6.40245,10.278375 6.68145,9.823125 6.86445,9.539625 C7.03845,9.275625 7.25145,9.133875 7.34295,8.854875 C7.4997,8.566875 7.4172,8.204625 7.6002,8.082375 C7.6827,8.360625 7.6602,8.659875 7.5822,8.889375 C7.77345,8.698125 7.96095,8.337375 8.1132,8.082375 C8.23545,7.837875 8.4177,7.926375 8.1957,7.623375 C7.9482,7.344375 7.6302,6.786375 7.8477,6.498375 C7.7427,6.591375 7.6002,7.168125 7.51695,7.201875 C7.27395,7.309125 6.5157,6.526875 6.4767,6.311625 C5.5332,6.311625 4.6527,6.571125 3.72195,6.381375 C2.59995,6.199125 1.51545,5.593875 0.46245,5.196375 C0.50145,5.906625 0.49245,6.591375 0.67545,7.289625 C0.9192,8.238375 1.51545,9.060375 1.87245,9.931875 C1.99395,10.145625 1.93395,10.390875 2.0082,10.605375 C2.12895,11.026125 2.40345,11.393625 2.5077,11.823375 C2.59095,12.186375 2.59995,12.532875 2.5077,12.895125 C2.79045,11.779875 3.15195,12.763125 3.85695,12.772875 C3.6132,12.899625 2.9037,13.006875 3.0297,13.393875 C2.9262,13.324875 2.79045,13.246875 2.6907,13.134375 C2.7297,13.246875 2.7522,13.706625 2.83395,13.789125 C3.03945,14.131875 3.7047,13.687875 3.8352,14.221125 C3.5697,14.239875 3.3867,14.410875 3.54795,14.665125 C3.50895,14.635875 3.4257,14.602125 3.3657,14.576625 C3.50895,14.724375 3.54795,14.924625 3.58245,15.119625 L3.4692,15.677625 C3.06945,16.333125 3.1827,14.856375 3.0297,14.631375 C2.93445,15.184125 3.09945,15.868125 2.89545,16.381875 C4.0092,16.606875 5.1357,16.743375 6.2727,16.900875 C5.6367,17.017875 5.00145,17.105625 4.34895,17.227875 C3.8787,17.290875 3.58245,16.935375 3.2037,16.729125 C3.54795,17.521875 3.1827,18.103125 3.2652,18.930375 C3.31245,19.291125 3.4257,19.462875 3.4257,19.883625 C3.4092,20.171625 3.33495,20.446125 3.31245,20.745375 C3.2652,21.037125 3.35595,21.268125 3.35595,21.454125 C3.35595,22.265625 3.15195,23.106375 2.9652,23.879625 C2.81295,24.471375 2.9262,25.224375 2.85645,25.879875 C2.79045,26.667375 2.7522,27.507375 2.66895,28.335375 C2.65095,28.657875 2.62095,28.945875 2.59095,29.254875 C2.5257,29.494125 2.5077,29.714625 2.5077,29.924625 C2.44695,30.496875 2.2422,30.975375 2.0082,31.528875 C2.12895,31.387125 2.22045,31.240125 2.32095,31.102125 C2.4252,31.240125 2.5257,31.426125 2.56845,31.601625 C2.5077,31.557375 2.4252,31.528875 2.36445,31.479375 C2.0082,32.149875 1.08495,33.592875 1.1547,34.336125 C1.17645,34.570125 1.3407,34.707375 1.42395,34.858875 C1.6377,35.269125 1.69845,35.226375 1.60695,35.812875 C1.5327,36.224625 1.5642,36.634125 1.6377,36.996375 C1.7502,37.598625 1.87245,38.077125 2.36445,38.487375 C2.56845,38.663625 2.44695,39.416625 2.44695,39.695625 C2.4552,40.609875 2.4552,41.549625 2.4867,42.498375 C2.4867,42.567375 2.4867,44.401125 2.40345,44.611875 C2.5257,44.440875 2.65095,44.269125 2.85645,44.302875 C2.65095,44.537625 2.3427,45.160125 2.19045,44.992125 C1.93395,45.451875 1.69845,46.024875 1.87245,46.518375 C2.0082,46.929375 2.9652,48.568125 3.28245,48.568125 L3.2037,48.568125 C3.4482,49.111125 4.1007,50.088375 4.1007,50.728875 C4.1007,50.900625 3.95745,51.145125 3.9402,51.360375 C3.85695,51.952125 4.1442,52.309125 4.30545,52.867125 C4.47045,53.482875 4.1007,53.625375 4.47045,54.153375 C5.2887,55.336875 6.12945,56.506125 6.94695,57.688875 C7.09095,57.919125 7.09095,58.108875 6.90345,58.348875 C7.2642,57.688875 7.78695,58.603125 8.1522,58.862625 C8.17395,58.813875 8.1522,58.769625 8.17395,58.740375 C8.31795,58.896375 9.15795,59.581875 8.9007,58.945125 C8.91795,58.970625 8.9922,58.984875 9.0312,58.999875 C8.93145,58.838625 8.91795,58.642125 8.9007,58.510875 C8.91795,58.642125 8.9007,57.997125 8.8482,58.124625 C8.95395,57.748125 9.0312,57.933375 9.17595,57.605625 C9.40095,57.703875 9.64545,57.952875 9.84945,58.031625 C10.2192,58.148625 10.11945,58.015875 10.42395,57.894375 C10.5282,57.859875 10.4847,57.655125 10.6677,57.655125 C10.83345,57.655125 11.03745,57.997125 11.2122,58.031625 C11.3952,58.060875 11.55945,58.015875 11.6952,57.894375 C11.6292,57.952875 11.58195,58.031625 11.52945,58.090875 C12.1347,57.880125 12.22545,57.816375 12.7572,58.276125 C12.55245,58.207875 12.1827,57.919125 11.99895,57.952875 C11.88645,57.997125 11.9382,58.148625 11.8347,58.173375 C11.6952,58.222125 11.6517,58.276125 11.34645,58.241625 C11.14245,58.222125 10.9557,58.108875 10.7202,58.108875 C10.5462,58.108875 10.36395,58.241625 10.19745,58.241625 C9.89295,58.241625 9.5232,58.060875 9.3192,58.393125 C8.95395,59.029125 10.2192,60.412875 10.39395,61.039125 C10.14945,60.805125 9.84945,60.696375 9.59745,60.475875 C9.4842,60.364125 9.3192,60.383625 9.3192,60.184125 C9.3012,60.061125 9.40095,59.533125 9.2667,59.425125 C8.76645,59.029125 8.74845,60.349875 8.77845,60.608625 C8.8272,61.015125 9.1362,61.386375 9.21795,61.797375 C9.3012,62.329875 9.21795,62.315625 9.7887,62.740875 C10.11945,62.966625 10.5462,63.210375 10.85445,63.430875 C10.8942,63.430875 11.03745,63.348375 11.11995,63.430875 C11.32545,63.621375 11.55195,64.536375 11.3952,64.863375 C11.2122,65.200875 11.03745,64.912875 10.9767,65.049375 C10.7937,65.275125 10.8942,65.509125 10.9767,65.773875 C11.03745,65.969625 11.05995,66.233625 11.11995,66.409125 C11.3952,67.216125 12.22545,68.052375 12.7572,68.707875 C13.34895,69.475125 13.90095,70.164375 14.5452,70.879125 C14.7807,71.162625 14.7807,71.324625 14.88495,71.509875 C14.9682,71.701125 14.88495,71.785125 15.08895,71.970375 C15.31545,72.214125 15.72495,72.527625 15.80295,72.835125 C15.8247,72.909375 15.7032,73.021875 15.72495,73.104375 C15.7422,73.363875 15.76395,73.637625 15.80295,73.915875 C15.8247,74.092125 15.76395,74.454375 15.80295,74.551875 C15.8247,74.693625 15.6807,74.845875 15.8472,74.909625 C16.29495,75.120375 16.78695,75.325125 17.22645,75.388125 C17.7792,75.447375 18.15795,75.510375 18.6882,75.666375 C19.1592,75.823875 19.53795,75.530625 20.0592,75.804375 C20.65545,76.083375 21.18645,76.546875 21.71745,76.939125 C21.98295,77.149125 22.33095,77.497125 22.63995,77.540625 C22.63995,77.560125 22.85295,77.443125 22.9362,77.422125 C23.0667,77.422125 23.52795,77.315625 23.60145,77.443125 C23.71095,77.716125 23.8152,78.552375 24.04995,78.724125 C24.23295,78.855375 24.49845,78.685125 24.70245,78.685125 C25.2252,78.685125 25.3602,79.021875 25.7697,79.336125 C26.1177,79.637625 26.5437,79.834125 26.87445,80.157375 C27.4062,80.645625 27.6492,81.047625 27.89745,81.786375 C28.16295,82.528875 28.4502,83.272125 28.69395,84.006375 C28.73745,84.094875 28.77645,84.152625 28.7982,84.217125 L29.1027,84.250875 L29.9427,84.250875 L29.9817,84.181875 L30.13845,84.113625 L31.2222,84.113625 L31.27095,84.059625 L31.4442,83.975625 L32.5407,83.975625 L32.5632,83.917875 L32.7237,83.849625 L33.9117,83.849625 L33.9732,83.790375 L34.13745,83.722125 L35.3217,83.722125 L35.3742,83.659125 L35.52645,83.596125 L36.69345,83.596125 L36.7752,83.526375 C36.7842,83.506875 36.8367,83.506875 36.84945,83.482125 C36.86745,83.472375 36.88845,83.458125 36.91845,83.458125 L37.9812,83.458125 C38.10645,83.458125 38.1852,83.560875 38.1852,83.702625 L38.1852,83.819625 L38.12445,84.001125 L38.07645,84.019875 L38.07645,84.094875 L38.0112,84.250875 L37.9422,84.308625 L37.95045,84.362625 L37.95045,84.479625 L37.9422,84.500625 L37.9812,84.500625 L38.12445,84.577875 L38.13795,84.627375 L38.32995,84.627375 L38.48595,84.710625 L38.4942,84.768375 L38.6607,84.768375 L38.82045,84.847875 L38.8827,84.901125 L39.01695,84.901125 L39.1692,84.954375 L39.22995,85.037625 L39.3732,85.037625 L39.52545,85.111125 L39.5562,85.144875 L39.72195,85.144875 L39.8877,85.228125 L39.92595,85.282875 L40.0707,85.282875 L40.22295,85.360125 L40.27395,85.433625 L40.41795,85.433625 L40.5612,85.492875 L40.60095,85.556625 L40.77495,85.556625 L40.91895,85.624875 L40.94895,85.687875 L41.13195,85.687875 L41.2752,85.762125 L41.31945,85.819875 L41.46195,85.819875 L41.62395,85.893375 L41.64495,85.951875 L41.82795,85.951875 L41.9712,86.030625 L42.0102,86.068875 L42.18495,86.068875 L42.31995,86.152875 L42.37245,86.201625 L42.4197,86.201625 L42.5547,86.280375 L42.62895,86.353125 L42.8727,86.353125 L43.03845,86.412375 L43.03845,86.461125 L43.2207,86.461125 L43.3947,86.539125 L43.4037,86.599125 L43.45545,86.599125 L43.6212,86.676375 L43.6692,86.739375 L43.8132,86.739375 L43.94745,86.812875 L44.0172,86.861625 L44.26545,86.861625 L44.44845,86.926125 L44.44845,86.983875 L44.48745,86.983875 L44.65245,87.067875 L44.7222,87.121125 L44.8572,87.121125 L45.0222,87.204375 L45.0612,87.272625 L45.22695,87.272625 L45.34845,87.331875 L45.39645,87.385125 L45.5712,87.385125 L45.71445,87.463875 L45.75795,87.517875 L45.79695,87.517875 L45.9492,87.580875 L45.9927,87.664125 L46.2582,87.664125 L46.4322,87.732375 L46.4412,87.776625 L46.6152,87.776625 L46.78095,87.840375 L46.78095,87.908625 L46.81995,87.908625 L46.99395,87.977625 L47.05545,88.050375 L47.1987,88.050375 L47.3547,88.114125 L47.4027,88.186875 L47.53845,88.186875 L47.7117,88.231125 L47.7642,88.300125 L47.8857,88.300125 L48.0477,88.378875 L48.1077,88.437375 L48.2517,88.437375 L48.39495,88.515375 L48.43845,88.583625 L48.5997,88.583625 L48.74295,88.627875 L48.7737,88.705875 L48.8262,88.705875 L48.9912,88.774125 L49.0302,88.828125 L49.1742,88.828125 L49.33995,88.915875 L49.37895,88.975125 L49.5312,88.975125 L49.6962,89.043375 L49.7352,89.087625 L49.88745,89.087625 C49.90995,89.087625 49.9317,89.111625 49.94895,89.146875 C49.99245,89.146875 50.0142,89.146875 50.0232,89.175375 L50.09295,89.233875 L50.2272,89.233875 L50.4012,89.302875 L50.4237,89.371125 L50.58495,89.371125 L50.7282,89.434875 L50.74995,89.493375 L50.80995,89.493375 L50.97645,89.566875 L51.0372,89.610375 L51.1587,89.610375 L51.3327,89.698125 L51.3852,89.757375 L51.50745,89.757375 L51.66795,89.835375 L51.69045,89.869875 L62.16495,89.869875 L62.16495,88.025625 L62.2392,87.840375 L62.3787,87.776625 L68.6802,87.776625 C68.7537,87.776625 68.8152,87.840375 68.86695,87.908625 L69.15045,87.908625 L69.30645,87.977625 L69.3372,88.074375 L69.4287,88.133625 L69.4587,88.201875 L69.5412,88.231125 L69.61095,88.422375 L69.61095,88.490625 L69.6417,88.515375 L69.7332,88.687125 L69.7332,88.769625 L69.76845,88.774125 L69.82845,88.954875 L69.82845,88.975125 L69.8772,89.043375 C69.8982,89.058375 69.8982,89.087625 69.9207,89.111625 C69.9372,89.150625 69.9597,89.180625 69.9597,89.215125 L69.9597,89.233875 L70.1247,89.302875 L70.1637,89.395875 L70.24695,89.434875 L70.26795,89.493375 L70.32945,89.493375 L70.4817,89.566875 L70.48995,89.610375 L70.6557,89.610375 L70.80795,89.698125 L70.8687,89.776875 L70.94295,89.835375 L70.97295,89.903625 L71.05545,89.968125 L71.0952,90.061125 L71.16945,90.079875 L71.2302,90.158625 L71.26095,90.158625 L71.4132,90.232125 L71.47395,90.388125 L71.47395,90.422625 L71.5347,90.485625 C71.5347,90.510375 71.5347,90.529875 71.55645,90.539625 L71.55645,90.578625 L71.6397,90.618375 L71.68695,90.711375 L71.7612,90.730875 L71.8002,90.814875 L71.8437,90.814875 L71.99595,90.862125 L72.0267,90.950625 L72.1092,91.019625 L72.13995,91.068375 L72.17895,91.068375 L72.35295,91.136625 L72.39645,91.308375 L72.39645,91.449375 L72.43545,91.449375 L72.57945,91.537875 L72.60195,91.635375 L72.67995,91.654875 L72.70095,91.762875 C72.7842,91.772625 72.8232,91.807125 72.84495,91.859625 L72.89745,91.859625 L73.0497,91.918875 L73.10145,92.090625 L73.10145,92.104875 L73.1322,92.104875 L73.27545,92.188875 L73.28445,92.256375 L73.35795,92.256375 L73.51995,92.319375 L73.51995,92.379375 L73.7022,92.379375 L73.86795,92.451375 L73.8987,92.549625 L73.98945,92.565375 L74.0112,92.662875 L74.08095,92.711625 L74.1327,92.809875 L74.2152,92.843625 L74.24595,92.892375 L74.4207,92.892375 C74.54145,92.892375 74.60295,93.009375 74.60295,93.151875 L74.60295,93.220125 L74.66445,93.244125 L74.7162,93.332625 L74.7987,93.362625 L74.80695,93.464625 L74.91195,93.499125 L74.97345,93.650625 L74.97345,93.703875 L75.0342,93.767625 L75.0957,93.943875 L75.0957,94.261875 C75.1377,94.300875 75.1557,94.324875 75.17745,94.363875 L75.23895,94.423125 L75.3432,94.594875 L75.3432,94.614375 L75.3822,94.693125 L75.44295,94.864125 L75.61695,94.950375 L75.66945,95.113125 L75.66945,95.186625 L75.7302,95.210625 L75.79095,95.371875 L75.79095,95.900625 L75.7302,96.067125 L75.66945,96.105375 L75.7302,96.124875 L75.79095,96.295875 L75.79095,96.487125 L75.85245,96.526875 L75.9042,96.688125 L75.9042,96.756375 L75.96495,96.794625 L76.0347,96.946875 L76.0347,97.020375 L76.0572,97.039125 L76.20045,97.176375 L76.2612,97.362375 L76.2612,97.504125 L76.3137,97.576875 L76.4352,97.695375 L76.46595,97.807875 L76.5402,97.827375 L76.60995,97.998375 L76.60995,98.012625 L76.63095,98.012625 L76.7922,98.096625 L76.7922,98.155125 L76.9572,98.155125 L77.13195,98.227875 L77.15295,98.286375 L77.2137,98.286375 L77.3667,98.360625 L77.38845,98.457375 L77.4972,98.497125 L77.54895,98.688375 L77.59245,98.756625 L77.64045,98.819625 L77.6937,98.819625 L77.83695,98.878875 L77.88045,98.980875 L77.9502,99.010125 L77.9802,99.083625 L78.06345,99.137625 L78.09345,99.205875 L78.25395,99.205875 L78.4197,99.288375 L78.44145,99.337875 L78.8502,99.337875 L79.00245,99.407625 L79.02495,99.499875 L79.1247,99.534375 L79.1682,99.617625 L79.23795,99.670125 L79.2687,99.768375 C79.3122,99.773625 79.3422,99.802875 79.3602,99.856875 L79.41195,99.856875 L79.49445,99.890625 L79.54695,99.856875 L79.6557,99.856875 L79.8207,99.930375 L79.8432,99.988875 L79.90395,99.988875 L80.0562,100.062375 L80.08695,100.150125 L80.16945,100.204125 L80.2302,100.370625 L80.2302,100.389375 L80.36595,100.389375 L80.5167,100.457625 L80.5482,100.511625 L80.7222,100.511625 C80.7912,100.511625 80.85645,100.580625 80.88795,100.644375 L81.16995,100.644375 L81.2142,100.663875 L81.2142,100.615125 L81.2532,100.457625 L81.3357,100.405125 L81.38745,100.331625 L81.5397,100.233375 L81.5397,100.218375 L81.62295,100.062375 L81.70545,100.028625 L81.7227,99.930375 L81.84945,99.797625 C81.88845,99.739875 81.9582,99.739875 82.03245,99.739875 L82.03245,99.705375 L82.03245,99.445875 L82.03245,99.397125 C82.03245,99.337875 82.00995,99.288375 82.03245,99.220875 C82.07145,99.127875 82.1322,99.069375 82.23645,99.069375 L82.26645,99.069375 L82.26645,99.049125 L82.26645,99.010125 C82.23645,98.912625 82.26645,98.819625 82.30545,98.756625 L82.3587,98.688375 L82.3587,98.527125 L82.4187,98.360625 L82.49295,98.326125 L82.49295,98.134875 L82.54095,97.963875 L82.6242,97.924875 L82.67595,97.827375 L82.74495,97.807875 L82.7892,97.695375 L82.8417,97.675125 L82.8417,97.450875 C82.8417,97.362375 82.93245,97.230375 83.04195,97.230375 L83.29845,97.230375 L83.3592,97.176375 C83.42445,97.118625 83.52495,97.083375 83.5947,97.118625 L83.6067,97.102875 L84.00345,97.102875 L84.00345,96.946875 L84.0552,96.794625 L84.2082,96.716625 L84.2817,96.716625 L84.3042,96.648375 L84.4647,96.584625 L84.56895,96.584625 L84.7212,96.648375 L84.7302,96.716625 L84.79095,96.716625 L84.83445,96.742125 C84.9042,96.716625 84.9567,96.688125 84.9957,96.742125 C85.06095,96.745875 85.09995,96.829125 85.10895,96.882375 L85.1997,96.912375 L85.2432,96.971625 L85.5702,96.971625 L85.59195,96.912375 L85.7442,96.829125 L85.8972,96.912375 L85.9182,96.971625 L86.5542,96.971625 C86.6367,96.971625 86.6757,97.020375 86.73645,97.102875 L87.0852,97.102875 L87.1242,97.039125 L87.24945,96.971625 L87.39345,96.971625 L87.49395,97.020375 L87.61545,96.971625 L87.75045,97.039125 L87.7677,97.102875 L87.83295,97.102875 L87.9942,97.176375 L88.0557,97.362375 L88.0557,97.431375 L88.10745,97.445625 L88.1772,97.606875 L88.1772,97.636125 L88.19895,97.636125 L88.33395,97.695375 L88.37295,97.773375 C88.41645,97.748625 88.45545,97.748625 88.5162,97.773375 C88.5552,97.807875 88.59945,97.866375 88.62045,97.924875 L88.6992,97.963875 L88.7517,98.134875 L88.7517,98.198625 L88.81245,98.227875 L88.84245,98.316375 L88.9257,98.360625 L88.9557,98.418375 L89.10795,98.418375 L89.28195,98.497125 L89.31345,98.570625 C89.38695,98.614875 89.4567,98.688375 89.4567,98.786625 L89.4567,98.937375 L89.46945,98.937375 L89.6442,99.010125 L89.6442,99.069375 L89.7042,99.069375 C89.78745,99.069375 89.8662,99.148125 89.8872,99.241125 L90.00045,99.288375 L90.00945,99.377625 L90.1137,99.397125 L90.1527,99.475125 L90.1827,99.475125 L90.31845,99.534375 L90.4002,99.705375 L90.4002,99.906375 L90.4617,99.930375 L90.47895,100.028625 L90.5532,100.062375 L90.5832,100.130625 L90.6447,100.130625 L90.8277,100.204125 L90.8577,100.370625 L90.8577,100.561125 L90.9102,100.580625 L90.97095,100.751625 L90.97095,101.089125 C91.0542,101.132625 91.0932,101.192625 91.0932,101.285625 L91.0932,101.314125 L91.15395,101.381625 L91.17495,101.470875 L91.27995,101.504625 L91.3272,101.670375 L91.3272,101.734875 L91.3932,101.764125 L91.44045,101.935125 L91.44045,102.140625 L91.50195,102.150375 L91.5237,102.248625 L91.6062,102.283125 L91.66695,102.454125 L91.66695,102.532125 L91.72845,102.550875 L91.8027,102.722625 L91.8027,102.795375 L91.84995,102.815625 L91.8717,102.864375 L91.91145,102.864375 L92.07645,102.952875 L92.15895,103.124625 L92.07645,103.299375 L92.0157,103.314375 L92.0157,103.431375 L92.07645,103.465875 L92.15895,103.651875 L92.15895,103.714875 L92.1807,103.725375 L92.2587,103.906875 L92.2587,104.101125 L92.3112,104.131125 L92.3202,104.194875 L92.39445,104.194875 L92.5467,104.267625 L92.58945,104.341125 L92.6682,104.389875 L92.68095,104.463375 L92.87295,104.463375 L92.99895,104.527875 L93.07695,104.689125 L93.07695,104.854875 L93.09045,104.854875 L93.2427,104.923125 L93.30345,105.085125 L93.30345,105.246375 L93.3342,105.246375 L93.48645,105.319125 L93.54795,105.480375 L93.54795,105.548625 L93.61245,105.568875 L93.6297,105.667125 L93.70395,105.700875 L93.79545,105.872625 L93.79545,106.210125 L93.82545,106.219125 L93.8562,106.288125 L93.8952,106.288125 L94.06095,106.356375 L94.1007,106.454625 L94.1832,106.504125 L94.1952,106.581375 L94.3047,106.630875 L94.3692,106.796625 L94.3692,106.816125 L94.44795,106.831125 L94.49145,106.816125 L94.6137,106.816125 L94.7787,106.888875 L94.7787,106.957875 L94.8492,106.957875 L95.0007,107.031375 L95.03145,107.119875 L95.1222,107.143875 L95.18745,107.335125 L95.18745,107.506125 L95.21895,107.535375 L95.3097,107.711625 L95.3097,108.366375 C95.3097,108.420375 95.2662,108.454875 95.2662,108.504375 L95.2662,108.532875 L95.34945,108.592125 L95.40945,108.762375 L95.40945,109.692375 L95.42295,109.692375 L95.59695,109.769625 L95.63595,109.941375 L95.63595,110.010375 L95.69745,110.044125 L95.7492,110.131875 L95.81895,110.185875 L95.88045,110.347875 L95.88045,110.406375 L95.92395,110.425875 L95.9847,110.528625 L96.0372,110.562375 L96.12795,110.733375 L96.12795,110.792625 L96.16695,110.812125 L96.2412,110.982375 L96.2412,111.080625 L96.27195,111.085875 L96.34095,111.252375 L96.34095,111.462375 L96.41445,111.476625 L96.4857,111.647625 L96.4857,111.775125 L96.43245,111.849375 L96.4857,111.907875 L96.4857,111.936375 L96.61995,112.009875 L96.69795,112.166625 L96.69795,112.455375 L97.1727,112.455375 L97.33395,112.513875 L97.35495,112.597875 L97.6512,112.597875 L97.80345,112.645875 L97.8342,112.763625 L97.9302,112.797375 L97.9692,112.876125 L98.0517,112.914375 L98.05995,113.007375 C98.1342,113.022375 98.1822,113.071125 98.20395,113.140125 L98.24295,113.104875 L98.46945,113.104875 L98.52195,113.144625 L98.5827,113.104875 L98.74845,113.179125 L98.7567,113.247375 L98.95245,113.247375 L99.0837,113.325375 L99.14445,113.398875 L99.16545,113.398875 L99.3177,113.452875 L99.34845,113.540625 L99.43995,113.569875 L99.4752,113.677875 L99.5667,113.707125 L99.6057,113.794875 L99.66645,113.849625 L99.70995,113.897625 L99.87045,113.897625 L99.91395,113.932875 C99.97545,113.897625 100.0137,113.883375 100.05345,113.932875 L100.09695,113.897625 L100.2192,113.897625 L100.36245,113.966625 L100.4322,114.039375 L101.38545,114.039375 L101.4252,114.039375 C101.4987,114.034875 101.56845,114.039375 101.6292,114.078375 C101.6292,114.078375 101.6292,114.039375 101.6502,114.039375 C101.73345,114.034875 101.83395,114.039375 101.8857,114.107625 L101.9382,114.166875 L101.95995,114.166875 L102.1212,114.255375 L102.1512,114.328125 L102.2427,114.367125 L102.26445,114.455625 L102.3477,114.499875 L102.4077,114.572625 L102.49095,114.622125 L102.49995,114.690375 L102.5517,114.690375 L102.69495,114.769125 L102.73395,114.856125 L102.7872,114.826875 L102.8082,114.826875 L102.8082,114.793125 L102.8607,114.622125 L103.01295,114.559125 L103.0827,114.559125 L103.0962,114.499875 L103.2477,114.426375 C103.01295,114.415875 103.0302,113.868375 102.9087,113.369625 C102.67395,112.470375 102.3252,111.540375 102.19545,110.631375 C102.17295,110.390625 102.19545,110.137125 102.2427,109.966125 C102.2037,110.088375 102.49095,109.741125 102.45195,109.769625 C102.5517,109.598625 102.6042,109.016625 102.6642,108.777375 C102.1212,109.041375 101.95995,108.723375 101.4252,108.679125 C101.4987,108.488625 101.4252,108.190875 101.4252,107.921625 C101.6112,108.093375 101.77245,108.420375 101.9382,108.592125 C101.8857,108.454875 102.5907,108.660375 102.26445,108.689625 C102.3477,108.679125 102.5517,108.679125 102.67395,108.532875 C102.8382,108.366375 102.96045,107.912625 103.0602,107.652375 C103.14345,107.383875 103.3302,107.031375 103.2702,106.816125 C103.2702,106.762125 103.0602,106.782375 103.02195,106.717875 C102.73395,106.141125 102.8082,106.405875 102.3687,106.043625 C102.6042,106.106625 103.0302,105.961125 103.2702,106.029375 C103.5747,106.106625 103.3302,106.356375 103.63545,106.165875 C103.90095,106.029375 104.12745,105.246375 104.2272,104.962875 C104.0442,105.133125 103.83945,104.962875 103.67895,104.708625 C103.83945,104.880375 104.0232,104.732625 104.2272,104.551125 C104.2272,104.689125 104.3097,104.800875 104.3097,104.888625 C104.39295,104.698125 104.4537,104.482875 104.56695,104.307375 C104.56695,104.482875 104.54445,104.708625 104.4972,104.888625 C104.59695,104.615625 104.77995,103.314375 105.06645,103.314375 C105.1407,103.314375 105.35445,103.725375 105.3942,103.764375 C105.5982,103.960875 105.3942,103.999875 105.75495,103.964625 C105.92895,103.945125 106.42995,103.534875 106.54245,103.431375 C106.1112,103.177125 105.78495,102.722625 105.6282,102.190125 C105.96795,102.140625 105.80295,102.394875 105.99045,102.532125 C106.3677,102.815625 106.72545,102.708375 106.3992,102.033375 C106.6032,102.106125 106.5207,102.454125 106.70295,102.532125 C106.8297,102.566625 107.0517,102.331875 107.2992,102.283125 C106.96845,103.177125 107.5827,102.532125 108.0657,102.708375 C107.7702,102.854625 107.45145,103.006125 107.2557,103.255875 C107.7867,103.006125 108.57495,102.620625 109.05795,102.204375 C108.80145,102.335625 108.5262,102.433875 108.2607,102.331875 C108.85245,102.150375 109.30095,102.106125 109.79295,101.788875 C110.37645,101.381625 110.5722,100.922625 110.98095,100.301625 C111.2682,99.836625 111.22545,100.184625 111.39045,100.100625 C111.7782,99.890625 112.12545,99.514125 112.4352,99.192375 C112.2912,99.079875 112.1997,99.127875 112.12545,98.937375 C112.12545,98.937375 112.0122,99.020625 111.9822,98.980875 C111.93045,98.878875 112.1172,98.688375 112.0737,98.614875 C112.0257,98.527125 111.8217,98.614875 111.7557,98.516625 C111.70845,98.360625 111.8607,98.238375 111.8217,98.110875 C111.7557,97.924875 111.62595,97.773375 111.5727,97.601625 C111.7557,97.601625 111.9522,97.675125 112.0257,97.866375 C112.1997,97.729125 112.4742,97.210875 112.7397,97.332375 C112.9047,97.411125 112.9227,97.675125 112.83045,97.866375 C112.5567,98.457375 112.37445,98.380125 112.86195,98.418375 C113.1792,98.418375 113.37495,98.266875 113.71095,98.380125 C113.45745,98.497125 112.60845,98.819625 112.5567,99.148125 C112.5567,99.431625 112.9227,98.956125 112.9227,98.937375 C113.20995,98.786625 113.46645,98.648625 113.75445,98.516625 C114.0807,98.360625 114.3762,98.238375 114.68445,98.096625 C115.19445,97.866375 115.5642,97.885125 116.07345,97.739625 C115.8297,97.411125 116.1777,96.688125 116.29995,96.330375 C116.2392,96.756375 116.13345,97.220625 116.13345,97.675125 C116.6787,97.274625 117.2007,97.504125 117.8142,97.309125 C118.1712,97.220625 117.70095,97.059375 117.70995,97.020375 C117.72345,96.985875 117.5877,96.946875 117.6102,96.927375 C117.6102,96.829125 117.77445,96.882375 117.79245,96.829125 C117.77445,96.882375 117.96645,96.623625 117.96645,96.623625 C118.01895,96.496875 118.00995,96.096375 118.05795,95.934375 C118.2537,96.056625 118.14045,96.238125 118.22295,96.383625 C118.69395,97.039125 119.7072,97.309125 120.36045,97.651125 C120.97395,97.969125 121.52595,98.418375 122.1312,98.360625 C122.33595,98.316375 122.60145,98.203125 122.8272,98.189625 C122.72295,98.155125 122.39745,97.827375 122.39745,97.739625 C122.33595,97.450875 122.33595,97.739625 122.5317,97.519125 C122.72295,97.332375 123.37995,97.102875 123.6327,97.118625 C123.7452,97.137375 124.2987,97.431375 124.4337,97.519125 C124.4547,97.576875 124.4427,97.841625 124.54695,97.969125 C124.66845,98.134875 125.52645,98.688375 125.6697,98.648625 C125.77395,98.590125 125.8347,98.203125 125.8962,98.125125 C125.97795,98.360625 125.71245,98.443875 125.76045,98.722125 C125.77395,98.991375 126.1212,99.137625 126.2832,99.304125 C126.7527,99.758625 127.43145,100.580625 128.0022,100.218375 C128.1462,100.150125 128.37195,99.773625 128.29845,99.598125 C128.73795,99.319125 129.31245,99.288375 129.5772,99.856875 C129.7122,100.184625 129.39495,100.561125 129.8862,100.405125 C130.5087,100.184625 129.8862,99.534375 130.43895,99.534375 C130.3047,99.319125 130.39545,99.304125 130.3047,99.059625 C130.27395,98.980875 130.43895,99.010125 130.3347,98.849625 C130.22145,98.620125 129.95595,98.688375 129.8652,98.286375 C130.1082,98.399625 131.33595,98.614875 131.14395,98.878875 C131.64495,99.220875 131.94945,99.480375 132.52395,99.768375 C132.4407,99.930375 132.60645,100.062375 132.75045,100.252875 C132.92445,100.468125 133.1982,99.856875 133.1982,100.316625 C133.1982,100.511625 132.8502,101.005875 132.78045,101.230875 C133.04595,100.972125 133.45545,101.040375 133.75995,100.922625 C133.58595,100.615125 134.47695,100.164375 133.8852,100.233375 C134.0772,100.204125 134.1687,100.100625 134.20395,100.028625 C134.0382,100.007625 133.8732,99.930375 133.7292,99.836625 C134.0772,99.534375 132.99345,99.319125 132.8502,99.241125 C132.8937,99.220875 132.97695,99.166125 132.99345,99.148125 C132.75045,99.137625 132.4842,99.127875 132.2187,99.069375 C132.24945,99.049125 132.28845,99.049125 132.31995,99.010125 C132.31095,98.849625 132.2367,98.980875 132.31095,98.786625 C131.9412,98.590125 131.7582,98.497125 131.5317,98.155125 C131.83995,98.096625 132.15345,98.067375 132.43245,97.988625 C132.4017,97.924875 132.34995,97.866375 132.2802,97.827375 C132.28845,97.827375 132.34995,97.807875 132.34995,97.807875 C132.2577,97.827375 131.94945,97.778625 132.0147,97.636125 C132.07545,97.367625 132.7062,97.431375 132.95445,97.274625 C132.9027,97.059375 132.8502,97.054125 132.97695,96.887625 C132.9117,96.882375 132.8502,96.882375 132.78045,96.882375 C132.75045,96.829125 132.8502,96.794625 132.8502,96.756375 C132.75045,96.756375 132.7287,96.756375 132.6672,96.742125 C133.03695,96.560625 132.5022,96.433125 132.4407,95.968875 C132.4242,96.262125 132.2367,96.139875 132.11445,96.330375 C131.78895,96.859125 132.0147,96.829125 131.58345,96.742125 C131.5017,96.688125 131.0922,96.560625 131.11395,96.355125 C131.12295,96.238125 131.60145,96.139875 131.7057,95.934375 C131.33595,95.831625 128.9727,96.369375 128.9112,95.680125 C128.86395,95.166375 130.47795,94.815375 130.86645,94.955625 C131.22645,95.098875 132.15345,95.611875 132.4242,95.303625 C132.75045,94.906875 132.9117,94.609125 133.3857,94.540125 C133.8852,94.443375 134.3862,94.334625 134.86545,94.363875 C135.69645,94.432875 136.55445,94.693125 137.37195,94.765875 C137.5767,94.804875 137.76345,93.532875 137.8332,93.283875 C137.86395,93.181125 137.9022,93.068625 137.95545,92.950875 C138.0072,93.244125 138.1902,93.181125 138.2952,93.464625 C138.3552,93.703875 138.1902,93.909375 138.2337,94.085625 C138.3117,94.334625 138.5217,94.261875 138.64245,94.432875 C138.72045,94.579125 138.72045,94.882875 138.9477,95.113125 C139.09995,95.303625 139.5132,95.113125 139.6437,94.921875 C139.58295,94.906875 139.54395,94.906875 139.4787,94.903125 C139.9227,94.804875 140.0007,94.579125 140.1747,94.085625 C140.09145,94.432875 139.9707,94.693125 139.88745,95.014875 C140.1957,94.864125 140.6667,94.750875 140.9142,94.432875 C141.1362,94.134375 140.9922,93.982875 141.1362,93.650625 C141.1977,93.787125 141.34095,93.889875 141.39345,93.997125 C141.73245,93.283875 141.9372,93.650625 142.1202,94.300875 C141.9372,94.193625 141.3027,94.579125 141.07545,94.666875 C142.35495,94.363875 143.6742,94.232625 144.98445,94.085625 C144.98445,94.300875 145.00545,94.217625 145.0662,94.432875 C144.90045,94.404375 144.6747,94.334625 144.52245,94.350375 C144.52245,94.350375 144.60495,94.432875 144.60495,94.404375 C143.92995,94.163625 144.6357,94.666875 144.8487,94.804875 C145.02345,94.903125 146.3157,95.802375 146.5197,95.695125 C146.72445,95.572875 146.18895,95.224875 146.0667,95.210625 C146.32395,95.113125 147.0072,94.804875 147.13395,94.975875 C147.0897,95.038875 146.71095,95.186625 146.71095,95.264625 C146.72445,95.332875 147.6432,95.988375 147.7647,96.130125 C147.5427,96.041625 146.64195,95.475375 146.7942,95.831625 C146.85495,95.968875 147.11145,96.105375 147.2247,96.198375 C147.2037,96.217875 147.15045,96.198375 147.13395,96.217875 C147.29445,96.451875 147.62145,96.496875 147.81645,96.742125 C147.89895,96.805125 147.9297,96.912375 147.9987,97.005375 C148.33845,97.576875 148.3617,97.729125 148.8522,97.504125 C148.7172,97.576875 148.6137,97.636125 148.4427,97.695375 C149.6052,97.220625 150.7542,96.742125 151.9212,96.262125 C152.4822,96.037125 152.6952,95.831625 153.16545,96.037125 C153.55695,96.198375 154.02645,96.487125 154.3137,96.829125 C154.57995,97.137375 154.64145,97.445625 154.9287,97.739625 C155.19345,97.983375 155.11095,97.924875 155.2542,98.198625 C155.3367,98.360625 155.2542,98.457375 155.4597,98.688375 C156.0027,99.220875 156.8307,99.480375 157.33845,100.062375 C157.5867,100.316625 158.22195,101.475375 158.0652,101.797875 C157.8132,101.764125 158.0652,101.974875 158.0967,102.204375 C158.1177,102.384375 158.05695,102.493125 158.05695,102.644625 C158.0262,103.036125 157.9872,103.314375 157.91295,103.662375 C157.8312,103.999875 157.5867,104.307375 157.5132,104.599875 C157.45245,104.888625 157.5867,105.187875 157.48245,105.509625 C157.46445,105.631875 157.3302,105.735375 157.3302,105.823125 C157.30845,106.219125 157.5867,106.678875 157.7922,107.031375 C157.7697,106.957875 157.74795,106.831125 157.71795,106.757625 C158.05695,107.060625 158.05695,106.816125 158.13945,106.610625 C158.32245,106.150875 158.1177,106.106625 157.8132,105.803625 C158.38395,106.106625 158.5572,106.581375 158.9142,105.872625 C159.2322,106.610625 158.22195,107.075625 158.2827,107.745375 C158.20095,107.730375 158.0967,107.730375 158.0352,107.676375 C158.0967,107.979375 158.3007,108.190875 158.40495,108.517875 C158.66145,109.471875 159.2757,110.273625 159.9192,110.982375 C159.9192,110.890875 159.81495,110.553375 159.8367,110.504625 C159.9192,110.303625 160.1637,110.185875 160.54245,110.088375 C160.5552,110.063625 160.3602,110.356875 160.3602,110.273625 C160.3602,110.293125 160.25445,110.293125 160.22445,110.356875 C160.2072,110.460375 160.30695,110.562375 160.28595,110.635875 C160.1847,111.130125 160.22445,111.687375 160.3677,112.186125 C160.77645,112.166625 160.83795,111.540375 161.30745,111.345375 C161.01195,111.613875 160.8507,111.892125 160.6632,112.298625 C161.30745,112.401375 161.3607,114.499875 161.50395,114.959625 C161.5782,114.943875 161.76045,114.826875 161.8302,114.860625 C162.2607,115.071375 162.9267,116.010375 163.3362,116.494875 C163.5312,116.699625 164.7987,117.943125 164.3982,118.074375 C164.30595,118.113375 163.98945,117.805875 163.9107,117.732375 C163.83645,117.961875 163.8672,118.250625 163.9107,118.500375 C164.1147,118.489875 164.27595,118.406625 164.49345,118.362375 C164.59395,118.362375 164.64645,118.231125 164.72895,118.231125 C164.83695,118.231125 164.97195,118.343625 165.1077,118.353375 C165.3597,118.353375 165.39045,118.265625 165.5472,118.172625 C165.8517,117.961875 165.8517,117.961875 166.2612,118.211625 C166.1997,118.143375 166.16895,118.074375 166.1172,118.026375 C166.19145,118.060125 166.36545,118.108875 166.46445,118.195875 C166.34295,118.026375 166.40445,117.961875 166.46445,117.805875 C166.7127,117.317625 166.9782,116.817375 167.18295,116.284875 C167.73645,114.813375 167.6712,113.179125 167.75295,111.613875 C167.81445,110.562375 167.73645,109.398375 166.8132,108.919125 C166.9782,108.963375 167.10945,109.041375 167.2617,109.148625 C166.8132,108.434625 166.7517,107.574375 166.46445,106.816125 C166.1997,106.141125 165.8517,105.509625 165.5952,104.800875 C165.27645,103.872375 165.0552,102.854625 164.80695,101.885625 C165.0117,101.974875 165.1077,103.221375 165.50295,102.678375 C165.5952,103.299375 165.5952,103.906875 165.64695,104.527875 C166.13895,103.124625 165.70845,102.781875 165.1542,101.710125 C164.8287,101.094375 164.4807,100.501875 164.2152,99.871875 C164.01045,99.377625 163.82745,98.878875 163.6407,98.360625 C163.37445,97.582125 163.1922,96.745875 162.9882,95.934375 C162.7917,95.166375 162.37395,94.261875 162.35295,93.464625 C162.3222,92.788875 162.13995,91.654875 162.39645,91.053375 C162.49545,90.814875 162.57945,90.578625 162.70095,90.848625 C163.6842,90.368625 162.87495,90.300375 162.4272,89.986875 C162.46545,90.016875 162.7227,90.129375 162.7617,90.100125 C162.88395,89.973375 162.90495,89.776875 163.0092,89.664375 C163.16145,89.498625 163.3977,89.395875 163.54095,89.219625 C163.43595,89.302875 163.2837,89.302875 163.15245,89.371125 C163.21395,88.975125 163.3977,88.456125 163.1922,88.147875 C163.3362,88.162875 163.60095,88.344375 163.7367,88.289625 C163.9707,88.231125 164.27595,87.498375 164.36745,87.307875 C164.6022,86.959875 165.45045,86.266125 165.42045,85.918125 C165.39045,85.795875 165.19845,85.834875 165.19845,85.819875 C165.0117,85.433625 164.8512,84.954375 164.7987,84.534375 C164.8902,84.553875 165.0117,84.661875 165.0552,84.710625 C164.72895,85.512375 165.7692,84.441375 165.48645,85.316625 C165.5472,85.316625 165.55545,85.282875 165.5952,85.282875 C165.5952,85.302375 165.55545,85.399875 165.5637,85.433625 C165.82995,85.458375 166.36545,85.531875 166.36545,85.131375 C166.34295,85.174875 166.2822,85.228125 166.2387,85.262625 C166.36545,84.651375 165.7902,84.812625 165.46395,84.593625 C165.6252,84.627375 165.8727,84.534375 165.99495,84.534375 C166.0992,84.519375 166.12995,84.710625 166.2612,84.694875 C166.4952,84.661875 166.7742,84.308625 166.9782,84.152625 C167.10045,84.059625 167.64045,84.073875 167.7747,84.059625 C167.8977,84.030375 167.9277,83.962125 167.97945,83.849625 L167.97945,84.019875 C168.06195,83.702625 168.1617,83.370375 168.1842,83.042625 C168.5547,83.409375 168.37995,83.482125 168.7977,83.370375 C169.25895,83.253375 169.64595,82.593375 170.0472,82.343625 C170.2902,82.157625 171.2127,81.804375 170.86545,81.340875 C170.6997,81.095625 170.4867,80.964375 170.6997,80.640375 C170.90445,80.806875 170.9787,81.070875 171.0087,81.340875 C171.2127,80.518875 171.3357,80.098125 171.8787,79.492125 C172.2972,79.051125 172.79745,78.674625 173.23695,78.263625 C173.5977,77.956125 174.58995,78.166875 175.03845,78.146625 C175.77345,78.146625 175.65195,77.404125 175.6302,76.772625 C175.77345,77.149125 175.7352,77.510625 175.77345,77.936625 C175.8267,77.736375 175.8567,77.497125 175.8957,77.287125 C176.1612,76.507875 176.98395,75.965625 177.5547,75.412875 C177.3102,75.569625 177.1062,75.740625 176.8572,75.857625 C177.06195,75.569625 178.13745,75.120375 177.64545,74.914125 C177.92445,74.650125 177.7062,74.401125 177.5967,74.092125 C177.6762,74.122125 177.8412,74.327625 177.8022,74.327625 C177.95445,74.327625 178.4937,74.038875 178.66845,74.092125 C179.0292,74.156625 178.66845,74.361375 179.1432,74.327625 C179.4777,74.312625 179.8782,74.058375 180.23445,73.936125 C180.6747,73.798875 181.5672,73.637625 181.8492,73.177875 C182.1192,72.801375 181.4007,73.162875 181.2882,73.207125 C181.58445,72.562125 180.9837,73.120125 180.81795,73.167375 C180.7437,73.177875 180.6747,72.987375 180.5442,73.021875 C180.4002,73.021875 180.25695,73.276125 180.0912,73.309875 C179.59095,73.349625 179.1432,72.625125 178.9557,72.164625 C179.2647,72.562125 179.4777,72.777375 179.9472,72.625125 C180.4392,72.473625 181.57545,71.935875 180.9837,71.437125 C180.3357,70.873875 179.4987,71.099625 179.0382,70.390125 C179.5827,70.777125 180.1827,70.845375 180.7872,70.967625 C180.7437,70.771875 180.70545,70.390125 180.81795,70.257375 C180.95295,70.131375 180.8397,70.570875 180.7872,70.497375 C180.8877,70.684125 180.95295,70.806375 181.03095,70.888875 C181.25745,70.732875 181.5447,70.570875 181.48395,70.967625 C182.30295,70.967625 184.3167,70.257375 184.0212,68.986875 C183.8862,68.556375 183.6732,68.439375 183.26445,68.536125 C182.87145,68.610375 182.93745,69.421875 182.8107,69.787875 C182.7282,69.466125 182.62845,68.800875 182.87145,68.452875 C182.87145,68.419125 182.80245,68.452875 182.80245,68.452875 C182.93745,68.111625 182.4852,68.052375 182.2797,68.125875 C182.09745,68.189625 182.05395,68.439375 181.89345,68.473125 C181.7892,68.488125 181.65795,68.405625 181.5012,68.419125 C181.5447,68.091375 180.5832,68.452875 180.25695,68.380125 C180.50895,68.062875 180.2127,67.930125 180.15195,67.572375 C180.1347,67.387125 180.3357,66.307125 180.4002,66.649125 C180.46095,66.850125 180.27345,66.873375 180.25695,67.073625 C180.25695,68.189625 180.9312,68.125875 181.77945,67.611375 C181.5672,67.543125 181.3797,67.372875 181.2672,67.132875 C181.5447,67.367625 181.8102,67.538625 182.19795,67.572375 C182.0667,67.441875 181.9752,67.288875 181.90995,67.108875 C182.1192,67.392375 182.40195,67.392375 182.7282,67.303875 C182.5587,67.108875 182.2587,66.785625 182.21895,66.561375 C182.40195,66.785625 182.93745,67.231125 183.28095,67.288875 C183.08895,67.128375 183.09795,66.850125 183.01545,66.590625 C183.28095,66.850125 183.38595,67.499625 183.77295,67.729875 C183.48645,66.850125 183.05895,66.272625 182.85495,65.444625 C183.2202,65.509125 183.12045,64.981125 183.20295,64.648875 C183.38595,65.068875 183.4467,65.587875 183.6117,66.018375 C183.5292,65.475375 183.30345,63.964125 182.93745,63.655875 C182.85495,63.606375 182.44545,63.704625 182.30295,63.636375 C181.89345,63.444375 181.9752,63.587625 181.7892,63.655875 C181.87995,63.621375 181.7892,63.807375 181.7577,63.826125 C181.58445,63.924375 181.19595,63.914625 180.9927,63.929625 C181.39245,63.655875 180.64395,62.692125 180.41745,62.374875 C180.64395,62.520375 180.8397,62.730375 180.9837,62.902125 C181.21845,63.234375 181.39245,63.558375 181.69695,63.259125 C181.69695,62.730375 181.6272,62.329875 181.3182,61.982625 C181.3182,61.969125 181.2972,61.969125 181.2882,61.943625 C181.2972,61.953375 181.3182,61.969125 181.3407,61.982625 C181.2972,61.953375 181.2672,61.934625 181.2357,61.899375 C181.19595,61.870875 181.16595,61.855125 181.1532,61.821375 C181.36245,61.969125 181.5012,62.026875 181.5447,61.797375 C181.8492,61.797375 181.89345,61.782375 182.0367,61.561875 C182.30295,60.961125 181.58445,60.555375 181.2357,60.184125 C181.19595,60.154125 181.1532,60.114375 181.1142,60.080625 C181.2357,59.581875 181.19595,60.095625 181.3182,60.095625 C181.39245,60.095625 181.4007,60.154125 181.44045,60.154125 C181.65795,60.148875 181.89345,59.542125 181.9542,59.273625 C182.09745,58.769625 182.09745,59.029125 181.8492,58.721625 C181.5447,58.348875 180.6747,57.919125 180.29595,57.748125 C180.03045,57.655125 179.62095,57.571125 179.3772,57.366375 C179.23395,57.228375 179.08995,56.916375 178.9557,56.710875 C178.7817,56.451375 178.82445,56.710875 178.65045,56.695875 C178.4937,56.680875 178.3197,56.851875 178.12845,56.729625 C178.08495,56.695875 178.0152,56.729625 177.96345,56.710875 C178.34145,55.796625 179.1432,55.008375 178.9767,53.981625 C179.2647,54.700875 178.7592,55.321875 178.4937,55.987125 C178.3722,56.197125 178.21095,56.470875 178.4157,56.589375 C178.65045,56.710875 178.7592,56.387625 178.7502,56.212125 C178.85595,56.470875 179.0292,56.363625 179.09895,56.129625 C179.1897,56.295375 179.31195,56.833125 179.51745,56.901375 C179.6607,56.950125 179.8047,56.573625 179.8962,56.623125 C180.1347,56.808375 180.3567,57.009375 180.5832,57.194625 C180.9837,57.517125 181.3797,57.846375 181.7892,58.124625 C181.70595,57.919125 181.63695,57.605625 181.57545,57.385875 C181.5447,57.298125 181.5672,56.950125 181.5447,56.935875 C181.48395,56.851875 181.3182,57.004875 181.21845,56.916375 C180.64395,56.387625 180.46995,56.080125 180.41745,55.131375 C180.50895,56.002125 180.6747,56.251875 181.5447,56.589375 C181.39245,56.158875 181.1142,55.987125 181.0452,55.527375 C181.0137,55.277625 181.03095,54.960375 181.0842,54.706125 C181.2972,53.731875 181.2882,53.923875 180.8487,53.134875 C180.9837,53.306625 181.1142,53.506875 181.3182,53.506875 C181.0917,53.082375 180.8397,52.675875 180.6747,52.225875 C181.0917,52.255125 181.2357,51.829875 181.58445,51.550875 C181.77945,51.399375 181.7577,51.649125 181.9842,51.340875 C182.1192,51.126375 182.15895,51.189375 182.1192,51.399375 C182.4852,51.145125 182.84145,50.827125 183.20295,50.524125 C183.96045,50.783625 183.20295,50.802375 183.4467,51.145125 C183.3342,51.145125 182.93745,51.296625 182.93745,51.453375 C182.8947,51.663375 183.38595,51.589875 183.56895,51.663375 C183.05895,51.747375 182.59845,51.570375 182.30295,51.986625 C182.15895,52.211625 182.09745,52.513875 181.9842,52.739625 C182.21895,52.813125 182.4852,52.793625 182.7192,52.827375 C182.5287,52.978875 182.4852,53.213625 182.3712,53.448375 C182.30295,53.649375 181.83195,53.233125 181.77945,53.453625 C181.70595,53.688375 181.65795,53.981625 181.63695,54.241125 C181.65795,54.079875 181.8492,53.786625 181.9842,53.820375 C182.09745,53.820375 182.5677,54.402375 182.5287,54.549375 C182.5287,54.680625 182.15895,54.784125 182.0667,54.818625 C182.31945,55.238625 182.59845,55.277625 183.07695,55.473375 C182.85495,55.698375 182.7282,55.507875 182.5287,55.473375 C182.21895,55.453875 182.35395,55.277625 181.9752,55.561125 C181.7277,55.753125 182.2587,55.698375 182.30295,55.669125 C182.19795,55.830375 181.70595,55.976625 181.7892,56.177625 C181.90995,56.407875 182.0367,56.636625 182.15895,56.867625 C182.15895,56.794125 182.15895,56.608125 182.1192,56.506125 C182.4852,56.695875 182.9547,57.811125 182.8947,56.808375 C182.93745,56.950125 183.05895,57.067875 183.12045,57.205125 C183.18045,56.935875 183.30345,56.680875 183.55095,56.506125 C183.52095,56.729625 183.6732,57.009375 183.6117,57.238875 C183.56895,57.410625 183.29445,57.605625 183.2112,57.811125 C183.38595,57.556875 183.56895,58.015875 183.9162,57.933375 C183.77295,58.108875 183.30345,58.594125 183.48645,58.756125 C183.4077,58.681125 184.2957,58.594125 184.2957,58.594125 C183.7557,59.655375 183.18045,60.568875 182.9547,61.762875 C182.90295,62.037375 182.9772,62.672625 183.38595,62.457375 C183.5817,62.353875 183.4557,61.664625 183.58995,61.420875 C183.77295,61.078125 184.22595,61.005375 184.4172,60.647625 C184.49145,60.511125 184.44795,60.364125 184.53045,60.154125 C184.6047,59.854875 184.74795,59.581875 184.9002,59.293125 C185.0952,58.799625 185.30895,58.319625 185.55345,57.859875 C185.7582,57.410625 186.0882,56.437125 186.4542,56.197125 C186.43095,56.387625 186.4242,56.589375 186.4542,56.794125 C186.5577,56.334375 186.5577,55.854375 186.4542,55.405125 C186.41445,55.605375 186.13545,55.605375 185.94495,55.507875 C186.2277,55.371375 186.32295,54.838125 186.41445,54.514125 C185.42295,54.099375 185.14395,52.426125 184.7352,51.453375 C184.6047,51.189375 184.3692,50.911125 184.42995,50.524125 C184.6512,49.575375 185.83995,49.007625 186.4752,48.568125 L186.41445,48.568125 C186.4752,48.547875 186.5577,48.534375 186.59745,48.508875 C186.05445,48.943875 185.22645,49.370625 184.9092,50.025375 C184.3257,51.169125 185.24745,51.599625 185.94495,52.289625 C186.28845,52.617375 187.04595,52.426125 187.12845,52.890375 C187.1727,53.145375 186.8847,53.595375 186.90645,53.908875 C187.1112,53.825625 187.99095,53.224125 187.6812,52.935375 C187.92945,52.846875 188.08995,52.426125 188.2737,52.211625 C188.20395,52.192125 188.14245,52.142625 188.1117,52.142625 C188.2737,51.966375 189.2562,51.747375 188.70345,51.532125 C188.9082,51.340875 189.19545,51.189375 189.3612,50.935125 C189.4002,50.881125 189.52245,50.509125 189.64845,50.328375 C189.9612,49.942875 189.7482,50.005875 189.8097,49.672875 C189.8487,49.506375 189.9612,49.404375 189.9927,49.267125 C190.0962,48.968625 190.0962,48.646125 190.27095,48.303375 C190.36995,48.753375 190.0962,49.189125 190.16595,49.682625 C190.32345,48.905625 190.3092,48.205125 190.4967,47.501625 C190.5882,47.139375 190.6797,46.773375 190.5267,46.552875 C190.3092,46.327125 189.52245,46.489875 189.43995,46.225125 C189.3612,45.912375 190.33995,45.070875 190.46595,44.631375 C190.5057,44.542125 190.5057,44.414625 190.5267,44.302875 L190.5267,44.484375 C190.8102,43.653375 190.77195,43.217625 190.6662,42.313125 C190.64895,42.238875 190.6662,42.180375 190.64895,42.121875 L190.64895,42.238875 L190.64895,42.063375 L190.64895,42.121875 C190.6662,42.508125 190.7322,42.894375 190.77195,43.290375 C190.84095,43.907625 190.5057,44.380875 190.5057,44.992125 C190.4442,45.139125 190.36995,45.295875 190.32345,45.368625 C190.5882,45.394125 190.84095,45.394125 191.09745,45.368625 L191.27145,45.368625 C191.73345,45.334875 192.19395,45.295875 192.6552,45.242625 C192.81645,45.178125 192.9822,45.139125 193.14345,45.090375 C193.3077,45.056625 193.4907,45.002625 193.6782,44.992125 C193.9617,44.914125 194.5272,44.846625 194.80095,44.762625 C194.9667,44.680125 195.1107,44.611875 195.2712,44.552625 C195.31395,44.552625 195.3447,44.542125 195.3537,44.537625 C195.53595,44.484375 195.71145,44.537625 195.92895,44.454375 C196.0197,44.401125 196.0722,44.380875 196.0887,44.283375 C196.17195,44.224875 196.24545,44.224875 196.2942,44.209875 C196.34595,44.209875 196.39845,44.224875 196.42845,44.224875 C196.6032,44.146875 196.78545,44.077875 196.9812,43.980375 C197.44245,43.735875 197.94345,43.481625 198.4437,43.251375 C197.7252,43.305375 197.0337,43.403625 196.3152,43.403625 C196.48095,43.217625 196.66395,42.943875 197.01195,42.772875 C196.1502,42.928875 195.3447,43.359375 194.5272,43.653375 C194.10495,43.755375 193.7562,43.716375 193.3302,43.843875 C192.93795,43.950375 191.6322,43.579125 191.75445,44.474625 C191.6802,44.302875 191.6412,44.269125 191.58945,44.269125 C191.55045,44.224875 191.4972,44.269125 191.4672,44.401125 C191.44545,44.401125 191.44545,44.401125 191.4237,44.414625 C191.34495,44.440875 191.32395,44.537625 191.24145,44.576625 C191.08845,44.586375 190.87545,44.537625 190.7487,44.631375 C190.6662,44.680125 190.5882,44.830875 190.5057,44.992125 C190.54545,44.850375 190.64895,44.611875 190.7322,44.552625 C190.84095,44.484375 190.9362,44.484375 191.0367,44.484375 C191.34495,44.454375 191.08845,44.380875 191.1417,44.302875 C191.4672,44.014125 191.67195,43.613625 192.0417,43.403625 C192.8772,42.963375 193.69545,42.498375 194.5572,42.082125 C195.03645,42.351375 196.1502,41.809125 196.74645,41.877375 C197.7567,41.965125 198.83145,42.082125 199.81395,41.721375 C200.22345,41.569125 200.19345,39.832875 200.22345,39.500625 C200.43645,40.190625 200.8677,39.862125 201.2682,39.656625 C200.97195,40.249125 200.97195,40.347375 201.21495,41.011125 C201.61695,40.718625 202.32195,39.915375 202.82145,39.862125 C203.08695,39.832875 203.1177,39.915375 203.00445,40.092375 C203.56995,40.175625 205.4592,40.453875 205.7067,39.970125 C205.7682,39.832875 205.68495,39.367875 205.66395,39.231375 C205.60245,38.869125 205.38045,38.336625 205.0497,38.219625 C205.0407,38.219625 204.41895,38.063625 204.49695,38.219625 C204.64095,38.390625 204.8367,38.149875 204.94995,38.268375 C205.13295,38.414625 205.0722,38.575875 205.16295,38.761875 C205.52445,39.466125 205.48095,39.637125 204.72345,39.827625 C204.4362,39.896625 204.0192,39.999375 203.67945,39.745125 C203.35245,39.466125 203.35245,38.776125 203.20995,38.414625 C203.04795,38.126625 202.8612,37.578375 202.65645,37.382625 C202.1172,36.824625 202.04295,37.695375 201.5427,36.693375 C201.85995,36.600375 202.08645,35.959875 202.4127,35.734125 C202.6782,35.563125 203.5182,35.416125 203.09595,35.044875 C203.00445,35.416125 202.82145,35.294625 202.6782,35.094375 C202.2087,34.447875 202.4127,33.387375 202.8612,32.848875 C203.4747,32.081625 204.48045,31.191375 204.73245,30.188625 C204.91995,29.425125 204.94995,29.425125 205.48095,29.000625 C205.47195,29.024625 205.4502,29.101875 205.41945,29.136375 C205.9722,28.945875 205.9422,28.945875 206.2767,29.582625 C206.1987,29.263875 206.12445,28.795125 206.1987,28.398375 C206.1987,28.447125 206.1987,28.486125 206.21595,28.559625 C206.21595,28.486125 206.23845,28.417875 206.23845,28.349625 C206.21595,28.741125 206.2767,29.101875 206.4822,29.455125 C206.59545,29.063625 206.6472,28.603125 206.81295,28.247625 C206.81295,28.247625 206.84295,28.247625 206.84295,28.242375 C206.7087,28.559625 206.73945,28.966125 207.03495,29.171625 C207.0867,28.966125 207.0867,28.795125 207.09945,28.603125 C207.09945,28.624125 207.11745,28.642875 207.11745,28.662375 L207.11745,28.603125 C207.11745,28.657875 207.1392,28.662375 207.1692,28.662375 C207.52545,28.594125 207.6087,28.286625 207.8742,27.973125 C207.8532,28.144125 207.8742,28.177875 207.8532,28.335375 C208.24395,28.335375 208.8747,28.335375 209.00145,27.811875 C208.6017,27.811875 209.4717,26.442375 209.57145,26.266125 C209.63295,26.114625 210.1767,24.931125 210.1467,25.561875 C210.1467,25.718625 209.9802,25.982625 209.9202,26.099625 C209.9937,26.045625 210.1467,26.045625 210.2457,26.005875 C210.12495,26.182875 209.9202,26.349375 209.88945,26.598375 C210.1467,26.408625 210.73845,26.886375 211.02495,27.008625 C210.90345,26.559375 211.02495,26.021625 211.3512,25.743375 C211.55595,25.561875 212.25195,25.429875 212.25195,25.753125 C212.64495,25.639875 212.53095,26.153625 212.74395,26.476125 C212.88795,26.242125 212.92695,25.943625 213.0702,25.699125 C213.1317,25.879875 213.21345,26.045625 213.33645,26.168625 C213.37995,25.836375 213.58395,25.449375 213.7752,25.165875 C214.1757,25.463625 214.82895,24.602625 215.32095,24.681375 C215.5782,24.724875 215.6082,25.102125 215.8347,24.886125 C216.0777,24.681375 216.36495,24.471375 216.5697,24.207375 L216.5607,24.103875 Z" id="Fill-1" fill="#B7B7B7" mask="url(#mask-2)"></path>
                    </g>
                    <path d="M58.636875,79.534575 C58.636875,83.266575 55.612125,86.291325 51.880875,86.291325 C48.149625,86.291325 45.124875,83.266575 45.124875,79.534575 C45.124875,75.803325 48.149625,72.778575 51.880875,72.778575 C55.612125,72.778575 58.636875,75.803325 58.636875,79.534575" id="Fill-4" fill="#E8751A" opacity="0.542526972"></path>
                    <path d="M64.137,87.285075 C64.137,91.016325 61.11225,94.041075 57.381,94.041075 C53.64975,94.041075 50.625,91.016325 50.625,87.285075 C50.625,83.553075 53.64975,80.529075 57.381,80.529075 C61.11225,80.529075 64.137,83.553075 64.137,87.285075" id="Fill-6" fill="#E8751A" opacity="0.542526972"></path>
                    <path d="M13.512,33.472575 C13.512,37.203825 10.48725,40.228575 6.756,40.228575 C3.02475,40.228575 0,37.203825 0,33.472575 C0,29.740575 3.02475,26.716575 6.756,26.716575 C10.48725,26.716575 13.512,29.740575 13.512,33.472575" id="Fill-8" fill="#E8751A" opacity="0.542526972"></path>
                    <path d="M78.637125,80.284575 C78.637125,84.016575 75.612375,87.041325 71.881125,87.041325 C68.149875,87.041325 65.125125,84.016575 65.125125,80.284575 C65.125125,76.553325 68.149875,73.528575 71.881125,73.528575 C75.612375,73.528575 78.637125,76.553325 78.637125,80.284575" id="Fill-10" fill="#E8751A" opacity="0.542526972"></path>
                    <path d="M137.699625,81.409575 C137.699625,85.141575 134.674875,88.166325 130.943625,88.166325 C127.212375,88.166325 124.187625,85.141575 124.187625,81.409575 C124.187625,77.678325 127.212375,74.653575 130.943625,74.653575 C134.674875,74.653575 137.699625,77.678325 137.699625,81.409575" id="Fill-12" fill="#E8751A" opacity="0.542526972"></path>
                    <path d="M119.699625,81.784575 C119.699625,85.516575 116.674875,88.541325 112.943625,88.541325 C109.212375,88.541325 106.187625,85.516575 106.187625,81.784575 C106.187625,78.053325 109.212375,75.028575 112.943625,75.028575 C116.674875,75.028575 119.699625,78.053325 119.699625,81.784575" id="Fill-14" fill="#E8751A" opacity="0.542526972"></path>
                    <path d="M132.637125,83.284575 C132.637125,87.016575 129.612375,90.041325 125.881125,90.041325 C122.149875,90.041325 119.125125,87.016575 119.125125,83.284575 C119.125125,79.553325 122.149875,76.528575 125.881125,76.528575 C129.612375,76.528575 132.637125,79.553325 132.637125,83.284575" id="Fill-16" fill="#E8751A" opacity="0.542526972"></path>
                    <path d="M119.699625,75.409575 C119.699625,79.141575 116.674875,82.166325 112.943625,82.166325 C109.212375,82.166325 106.187625,79.141575 106.187625,75.409575 C106.187625,71.678325 109.212375,68.653575 112.943625,68.653575 C116.674875,68.653575 119.699625,71.678325 119.699625,75.409575" id="Fill-18" fill="#E8751A" opacity="0.542526972"></path>
                    <path d="M119.699625,68.284575 C119.699625,72.016575 116.674875,75.041325 112.943625,75.041325 C109.212375,75.041325 106.187625,72.016575 106.187625,68.284575 C106.187625,64.553325 109.212375,61.528575 112.943625,61.528575 C116.674875,61.528575 119.699625,64.553325 119.699625,68.284575" id="Fill-20" fill="#E8751A" opacity="0.542526972"></path>
                    <path d="M137.887125,96.597075 C137.887125,100.329075 134.862375,103.353825 131.131125,103.353825 C127.399875,103.353825 124.375125,100.329075 124.375125,96.597075 C124.375125,92.865825 127.399875,89.841075 131.131125,89.841075 C134.862375,89.841075 137.887125,92.865825 137.887125,96.597075" id="Fill-22" fill="#E8751A" opacity="0.542526972"></path>
                    <path d="M148.949625,83.097075 C148.949625,86.829075 145.924875,89.853825 142.193625,89.853825 C138.462375,89.853825 135.437625,86.829075 135.437625,83.097075 C135.437625,79.365825 138.462375,76.341075 142.193625,76.341075 C145.924875,76.341075 148.949625,79.365825 148.949625,83.097075" id="Fill-24" fill="#E8751A" opacity="0.542526972"></path>
                    <path d="M176.137125,57.222075 C176.137125,60.954075 173.112375,63.978825 169.381125,63.978825 C165.649875,63.978825 162.624375,60.954075 162.624375,57.222075 C162.624375,53.490825 165.649875,50.466075 169.381125,50.466075 C173.112375,50.466075 176.137125,53.490825 176.137125,57.222075" id="Fill-26" fill="#E8751A" opacity="0.542526972"></path>
                    <path d="M149.887125,39.222075 C149.887125,42.954075 146.862375,45.978825 143.131125,45.978825 C139.399875,45.978825 136.375125,42.954075 136.375125,39.222075 C136.375125,35.490825 139.399875,32.466075 143.131125,32.466075 C146.862375,32.466075 149.887125,35.490825 149.887125,39.222075" id="Fill-28" fill="#E8751A" opacity="0.542526972"></path>
                    <path d="M160.012125,85.722075 C160.012125,89.454075 156.987375,92.478825 153.256125,92.478825 C149.524875,92.478825 146.499375,89.454075 146.499375,85.722075 C146.499375,81.990825 149.524875,78.966075 153.256125,78.966075 C156.987375,78.966075 160.012125,81.990825 160.012125,85.722075" id="Fill-30" fill="#E8751A" opacity="0.542526972"></path>
                    <path d="M184.4508,70.63275 C184.4508,74.364 181.42605,77.38875 177.69405,77.38875 C173.96355,77.38875 170.93805,74.364 170.93805,70.63275 C170.93805,66.90075 173.96355,63.87675 177.69405,63.87675 C181.42605,63.87675 184.4508,66.90075 184.4508,70.63275" id="Fill-32" fill="#E8751A" opacity="0.542526972"></path>
                    <path d="M187.787775,70.96815 C187.054275,74.62665 183.494775,76.9989 179.836275,76.2654 C176.178525,75.5334 173.805525,71.97315 174.539025,68.31465 C175.271775,64.65615 178.832025,62.2839 182.490525,63.01665 C186.148275,63.7494 188.520525,67.30965 187.787775,70.96815" id="Fill-34" fill="#E8751A" opacity="0.542526972"></path>
                    <path d="M186.241575,62.535825 C185.508075,66.194325 181.948575,68.566575 178.290075,67.833075 C174.632325,67.101075 172.259325,63.540825 172.992825,59.882325 C173.725575,56.223825 177.285825,53.851575 180.944325,54.584325 C184.602075,55.317075 186.974325,58.877325 186.241575,62.535825" id="Fill-36" fill="#E8751A" opacity="0.542526972"></path>
                    <path d="M185.912775,78.65565 C185.179275,82.31415 181.619775,84.6864 177.961275,83.9529 C174.303525,83.2209 171.930525,79.66065 172.664025,76.00215 C173.396775,72.34365 176.957025,69.9714 180.615525,70.70415 C184.273275,71.4369 186.645525,74.99715 185.912775,78.65565" id="Fill-38" fill="#E8751A" opacity="0.542526972"></path>
                    <path d="M172.66905,96.641025 C172.66905,100.373025 169.6443,103.397775 165.91305,103.397775 C162.18255,103.397775 159.15705,100.373025 159.15705,96.641025 C159.15705,92.909775 162.18255,89.885025 165.91305,89.885025 C169.6443,89.885025 172.66905,92.909775 172.66905,96.641025" id="Fill-40" fill="#E8751A" opacity="0.542526972"></path>
                    <path d="M164.7897,58.2621 C164.7897,61.9941 161.76495,65.01885 158.03295,65.01885 C154.30245,65.01885 151.27695,61.9941 151.27695,58.2621 C151.27695,54.53085 154.30245,51.5061 158.03295,51.5061 C161.76495,51.5061 164.7897,54.53085 164.7897,58.2621" id="Fill-42" fill="#E8751A" opacity="0.542526972"></path>
                </g>
                <text id="26,761,485" font-family="SourceSansPro-Semibold, Source Sans Pro" font-size="25.5" font-weight="500" letter-spacing="0.00749999983" fill="#FFFFFF">
                    <tspan x="40.81785" y="62.5278176">26,761,485</tspan>
                </text>
            </g>
        </g>
    </g>
</svg>