<?xml version="1.0" encoding="UTF-8"?>
<svg width="557px" height="558px" viewBox="0 0 557 558" version="1.1" xmlns="http://www.w3.org/2000/svg" xmlns:xlink="http://www.w3.org/1999/xlink">
    <!-- Generator: Sketch 59.1 (86144) - https://sketch.com -->
    <title>Group 8210</title>
    <desc>Created with Sketch.</desc>
    <g id="Desktop" stroke="none" stroke-width="1" fill="none" fill-rule="evenodd">
        <g id="Homelessness-Section-3-10" transform="translate(-251.000000, -1502.000000)">
            <g id="Group-82" transform="translate(251.000000, 1502.000000)">
                <g id="Group-39" transform="translate(6.750000, 0.178500)">
                    <path d="M1.501125,78.279375 C4.635375,56.808375 15.340125,37.186875 31.681125,22.982625 C48.021375,8.777625 68.941875,0.907875 90.639375,0.793125 L90.639375,90.806625 L1.501125,78.279375 Z" id="Fill-1" fill="#FFC69F"></path>
                    <path d="M91.12425,0.30645 C45.66225,0.30645 7.2795,33.6717 0.9525,78.69195 L91.12425,91.3647 L91.12425,0.30645 Z M90.1545,1.28145 L90.1545,90.24945 L2.05275,77.86695 C5.259,56.70045 15.8685,37.36995 31.99875,23.3487 C48.129,9.3267 68.748,1.51095 90.1545,1.28145 L90.1545,1.28145 Z" id="Fill-3" fill="#FFFFFF"></path>
                    <path d="M91.12425,91.36485 L91.12425,0.3066 C141.41475,0.3066 182.1825,41.07435 182.1825,91.36485 C182.1825,141.65535 141.41475,182.4231 91.12425,182.4231 C40.8345,182.4231 0.066,141.65535 0.066,91.36485 C0.066,86.5371 0.2805,83.47335 0.9525,78.6921 L91.12425,91.36485 Z" id="Fill-5" fill="#E8751A"></path>
                    <path d="M91.12425,91.36485 L91.12425,0.3066 C141.41475,0.3066 182.1825,41.07435 182.1825,91.36485 C182.1825,141.65535 141.41475,182.4231 91.12425,182.4231 C40.8345,182.4231 0.066,141.65535 0.066,91.36485 C0.066,86.5371 0.2805,83.47335 0.9525,78.6921 L91.12425,91.36485 Z" id="Stroke-7" stroke="#FFFFFF" stroke-width="0.96975"></path>
                    <path d="M235.764375,364.69515 L309.748875,487.82565 C305.560875,490.32165 300.880875,492.8094 296.472375,494.88465 L235.764375,364.69515 Z" id="Fill-9" fill="#FFC69F"></path>
                    <path d="M231.415275,356.515425 L296.238525,495.530175 C300.921525,493.345425 305.984775,490.653675 310.414275,487.992675 L231.415275,356.515425 Z M240.113775,372.874425 L309.082275,487.657425 C305.156025,489.978675 300.824775,492.281175 296.706525,494.237925 L240.113775,372.874425 L240.113775,372.874425 Z" id="Fill-11" fill="#FFFFFF"></path>
                    <path d="M234.6852,361.016175 L331.3602,472.228425 C324.80295,477.893925 317.99745,482.838675 310.57995,487.326675 L234.6852,361.016175 Z" id="Fill-13" fill="#FFC69F"></path>
                    <path d="M231.415275,356.515425 L310.414275,487.992675 C318.111525,483.367425 325.268025,478.167675 332.045025,472.277175 L231.415275,356.515425 Z M237.954525,365.516175 L330.674775,472.178925 C324.374025,477.589425 317.837025,482.338425 310.744275,486.658425 L237.954525,365.516175 L237.954525,365.516175 Z" id="Fill-15" fill="#FFFFFF"></path>
                    <path d="M233.68215,358.383825 L363.58815,433.385325 C354.54615,448.965075 345.66015,459.744075 332.09265,471.592575 L233.68215,358.383825 Z" id="Fill-17" fill="#FFC69F"></path>
                    <path d="M231.415275,356.515425 L332.045025,472.277175 C345.982275,460.160925 355.016775,449.201175 364.250775,433.208175 L231.415275,356.515425 Z M235.948275,360.251925 L362.924025,433.562175 C354.077025,448.724925 345.335775,459.329175 332.138775,470.906925 L235.948275,360.251925 L235.948275,360.251925 Z" id="Fill-19" fill="#FFFFFF"></path>
                    <path d="M232.415025,356.532975 L366.645525,285.161475 C379.179525,308.893725 385.309275,333.798975 384.866775,359.193975 C384.422775,384.588225 377.427525,409.264725 364.072275,432.545475 L232.415025,356.532975 Z" id="Fill-21" fill="#FFC69F"></path>
                    <path d="M366.8463,284.50515 L231.41505,356.51565 L364.25055,433.2084 C391.48605,386.03565 392.4183,332.59965 366.8463,284.50515 M366.4428,285.8184 C378.78555,309.34815 384.8208,334.0269 384.3813,359.1849 C383.94255,384.34365 377.0493,408.7974 363.89355,431.8824 L233.4153,356.55015 L366.4428,285.8184" id="Fill-23" fill="#FFFFFF"></path>
                    <path d="M231.90015,203.615775 C260.27415,203.698275 287.4414,211.057275 310.4934,224.908275 C333.54465,238.758525 352.79565,259.291275 366.1899,284.305275 L231.90015,355.708275 L231.90015,203.615775 Z" id="Fill-25" fill="#FFC69F"></path>
                    <path d="M231.415275,203.13015 L231.415275,356.51565 L366.846525,284.50515 C339.444525,232.9704 289.781775,203.13015 231.415275,203.13015 M232.385025,204.1029 C246.399525,204.1824 260.089275,206.0094 273.092775,209.53365 C286.236525,213.09615 298.735275,218.4084 310.243275,225.3234 C321.751275,232.2384 332.309775,240.78015 341.625525,250.7124 C350.842275,260.5389 358.882275,271.77015 365.532525,284.10615 L232.385025,354.90165 L232.385025,204.1029" id="Fill-27" fill="#FFFFFF"></path>
                    <path d="M86.148525,308.80545 C107.074275,245.0382 163.817025,203.8122 230.930025,203.6157 L230.930025,355.84845 L86.148525,308.80545 Z" id="Fill-29" fill="#FFC69F"></path>
                    <path d="M231.415275,203.13015 C163.814775,203.13015 106.427025,244.8249 85.537275,309.1164 L231.415275,356.51565 L231.415275,203.13015 Z M230.445525,204.1029 L230.445525,355.18065 L86.761275,308.49465 C97.019775,277.5489 115.942275,251.3889 141.529275,232.79865 C167.117025,214.2084 197.843775,204.29565 230.445525,204.1029 L230.445525,204.1029 Z" id="Fill-31" fill="#FFFFFF"></path>
                    <path d="M231.51525,509.452425 C202.803,509.452425 174.723,501.396675 150.3105,486.155925 C125.2545,470.513175 105.38175,448.029675 92.84025,421.133925 C75.78075,384.548925 73.49175,348.103425 85.84875,309.727425 L231.0645,356.911425 L295.59375,495.294675 C275.2845,504.689925 253.7295,509.452425 231.51525,509.452425" id="Fill-33" fill="#FFC69F"></path>
                    <path d="M85.536975,309.116775 C72.945225,347.869275 75.180225,384.410025 92.400975,421.338525 C118.425975,477.149025 173.745225,509.937525 231.515475,509.937525 C253.216725,509.937525 275.273475,505.306275 296.238975,495.530025 L231.414975,356.515275 L85.536975,309.116775 Z M86.161725,310.339275 L230.714475,357.307275 L294.948225,495.058275 C274.833975,504.288525 253.496475,508.967775 231.515475,508.967775 C202.893975,508.967775 174.902475,500.937525 150.567225,485.744775 C125.590725,470.151525 105.780975,447.738525 93.279975,420.929025 C76.342725,384.607275 74.010975,348.423525 86.161725,310.339275 L86.161725,310.339275 Z" id="Fill-35" fill="#FFFFFF"></path>
                    <path d="M160.3074,91.185375 C160.3074,129.232125 129.46365,160.075875 91.41615,160.075875 C53.36865,160.075875 22.5249,129.232125 22.5249,91.185375 C22.5249,53.137875 53.36865,22.294125 91.41615,22.294125 C129.46365,22.294125 160.3074,53.137875 160.3074,91.185375" id="Fill-37" fill="#FFFFFF"></path>
                </g>
                <text id="$3,131,837-" font-family="SourceSansPro-Semibold, Source Sans Pro" font-size="12" font-weight="500" letter-spacing="-0.00374999992" fill="#3F3F3F">
                    <tspan x="221.25" y="32.1402627">$3,131,837 </tspan>
                </text>
                <text id="Transitional-Living-for-Homeless-Youth" font-family="SourceSansPro-Regular, Source Sans Pro" font-size="11.25" font-weight="normal" letter-spacing="-0.521249995" fill="#3F3F3F">
                    <tspan x="221.25" y="45.5830041">T</tspan>
                    <tspan x="226.24125" y="45.5830041" letter-spacing="-0.284999996">r</tspan>
                    <tspan x="229.57875" y="45.5830041" letter-spacing="-0.00374999992">ansitional Living </tspan>
                    <tspan x="308.98125" y="45.5830041" letter-spacing="-0.117374998">f</tspan>
                    <tspan x="312.036375" y="45.5830041" letter-spacing="-0.00374999992">or Homeless </tspan>
                    <tspan x="372.752625" y="45.5830041" letter-spacing="-0.463874996">Y</tspan>
                    <tspan x="377.1825" y="45.5830041" letter-spacing="-0.00374999992">outh</tspan>
                </text>
                <text id="$856,588-" font-family="SourceSansPro-Semibold, Source Sans Pro" font-size="12" font-weight="500" letter-spacing="-0.00374999992" fill="#3F3F3F">
                    <tspan x="420.01065" y="375.236013">$856,588 </tspan>
                </text>
                <text id="Education-and-Prevention-" font-family="SourceSansPro-Regular, Source Sans Pro" font-size="11.25" font-weight="normal" letter-spacing="0.00749999983" fill="#3F3F3F">
                    <tspan x="420.01065" y="388.678754">Edu</tspan>
                    <tspan x="438.32565" y="388.678754" letter-spacing="-0.105">c</tspan>
                    <tspan x="443.23815" y="388.678754">ation and P</tspan>
                    <tspan x="497.0844" y="388.678754" letter-spacing="-0.105">r</tspan>
                    <tspan x="500.77065" y="388.678754" letter-spacing="0.0637500007">e</tspan>
                    <tspan x="506.47065" y="388.678754" letter-spacing="-0.0375000006">v</tspan>
                    <tspan x="511.6419" y="388.678754">ention </tspan>
                </text>
                <text id="Grants-to-Reduce-Sexual-" font-family="SourceSansPro-Regular, Source Sans Pro" font-size="11.25" font-weight="normal" letter-spacing="0.00749999983" fill="#3F3F3F">
                    <tspan x="420.01065" y="402.178754">G</tspan>
                    <tspan x="426.9594" y="402.178754" letter-spacing="-0.273750007">r</tspan>
                    <tspan x="430.30815" y="402.178754">ants </tspan>
                    <tspan x="453.04815" y="402.178754" letter-spacing="-0.103875004">t</tspan>
                    <tspan x="456.634275" y="402.178754">o </tspan>
                    <tspan x="465.019275" y="402.178754" letter-spacing="-0.105">R</tspan>
                    <tspan x="471.338025" y="402.178754">edu</tspan>
                    <tspan x="489.304275" y="402.178754" letter-spacing="-0.228750005">c</tspan>
                    <tspan x="493.969275" y="402.178754">e S</tspan>
                    <tspan x="507.851775" y="402.178754" letter-spacing="-0.0712499991">e</tspan>
                    <tspan x="513.281775" y="402.178754">xual </tspan>
                </text>
                <text id="Abuse-of-Runaway,-Homeless-" font-family="SourceSansPro-Regular, Source Sans Pro" font-size="11.25" font-weight="normal" letter-spacing="0.00749999983" fill="#3F3F3F">
                    <tspan x="420.01065" y="415.678754">Abuse of Runa</tspan>
                    <tspan x="487.38315" y="415.678754" letter-spacing="-0.105">w</tspan>
                    <tspan x="495.24315" y="415.678754">a</tspan>
                    <tspan x="501.01065" y="415.678754" letter-spacing="-0.386249989">y</tspan>
                    <tspan x="505.4844" y="415.678754">, Homeless </tspan>
                </text>
                <text id="and-Street-Youth" font-family="SourceSansPro-Regular, Source Sans Pro" font-size="11.25" font-weight="normal" letter-spacing="0.00749999983" fill="#3F3F3F">
                    <tspan x="420.01065" y="429.178754">and St</tspan>
                    <tspan x="450.29565" y="429.178754" letter-spacing="-0.106124997">r</tspan>
                    <tspan x="453.980775" y="429.178754">e</tspan>
                    <tspan x="459.568275" y="429.178754" letter-spacing="-0.148875006">e</tspan>
                    <tspan x="464.8419" y="429.178754">t </tspan>
                    <tspan x="470.9319" y="429.178754" letter-spacing="-0.452625006">Y</tspan>
                    <tspan x="475.373025" y="429.178754">outh</tspan>
                </text>
                <text id="$2,522,774-" font-family="SourceSansPro-Semibold, Source Sans Pro" font-size="12" font-weight="500" letter-spacing="-0.00374999992" fill="#3F3F3F">
                    <tspan x="418.51065" y="180.238938">$2,522,774 </tspan>
                </text>
                <text id="Basic-Center-Grant" font-family="SourceSansPro-Regular, Source Sans Pro" font-size="11.25" font-weight="normal" letter-spacing="0.00749999983" fill="#3F3F3F">
                    <tspan x="418.51065" y="193.681679">Basic Cen</tspan>
                    <tspan x="463.9944" y="193.681679" letter-spacing="-0.105">t</tspan>
                    <tspan x="467.5794" y="193.681679">er G</tspan>
                    <tspan x="486.3069" y="193.681679" letter-spacing="-0.273750007">r</tspan>
                    <tspan x="489.65565" y="193.681679">ant</tspan>
                </text>
                <text id="$418,895" font-family="SourceSansPro-Semibold, Source Sans Pro" font-size="12" font-weight="500" letter-spacing="-0.00374999992" fill="#3F3F3F">
                    <tspan x="418.51065" y="458.990613">$418,895</tspan>
                </text>
                <text id="Homeless-Veterans’-" font-family="SourceSansPro-Regular, Source Sans Pro" font-size="11.25" font-weight="normal" letter-spacing="0.00749999983" fill="#3F3F3F">
                    <tspan x="418.51065" y="472.433354">Homeless </tspan>
                    <tspan x="467.06565" y="472.433354" letter-spacing="-0.161250003">V</tspan>
                    <tspan x="472.5294" y="472.433354" letter-spacing="-0.151124999">e</tspan>
                    <tspan x="477.800775" y="472.433354" letter-spacing="-0.103875004">t</tspan>
                    <tspan x="481.3869" y="472.433354">e</tspan>
                    <tspan x="486.9744" y="472.433354" letter-spacing="-0.273750007">r</tspan>
                    <tspan x="490.32315" y="472.433354">an</tspan>
                    <tspan x="502.2519" y="472.433354" letter-spacing="-0.117374998">s</tspan>
                    <tspan x="506.724525" y="472.433354">’ </tspan>
                </text>
                <text id="Reintegration-Program" font-family="SourceSansPro-Regular, Source Sans Pro" font-size="11.25" font-weight="normal" letter-spacing="-0.105" fill="#3F3F3F">
                    <tspan x="418.51065" y="485.933354">R</tspan>
                    <tspan x="424.8294" y="485.933354" letter-spacing="0.00749999983">ein</tspan>
                    <tspan x="439.35315" y="485.933354">te</tspan>
                    <tspan x="448.30065" y="485.933354" letter-spacing="0.00749999983">g</tspan>
                    <tspan x="453.97815" y="485.933354" letter-spacing="-0.273750007">r</tspan>
                    <tspan x="457.3269" y="485.933354" letter-spacing="0.00749999983">ation P</tspan>
                    <tspan x="490.71315" y="485.933354">r</tspan>
                    <tspan x="494.3994" y="485.933354" letter-spacing="0.00749999983">og</tspan>
                    <tspan x="506.1819" y="485.933354" letter-spacing="-0.274874993">r</tspan>
                    <tspan x="509.529525" y="485.933354" letter-spacing="0.00749999983">am</tspan>
                </text>
                <g id="Group-42" transform="translate(0.000000, 79.678500)">
                    <text id="$5,809,017" font-family="SourceSansPro-Semibold, Source Sans Pro" font-size="12" font-weight="500" letter-spacing="-0.00374999992" fill="#505050">
                        <tspan x="0" y="418.555263">$5,809,017</tspan>
                    </text>
                    <text id="VA-Homeless-Providers-Grant-" font-family="SourceSansPro-Regular, Source Sans Pro" font-size="11.25" font-weight="normal" letter-spacing="-0.150000002" fill="#505050">
                        <tspan x="0" y="431.998004">V</tspan>
                        <tspan x="5.48625" y="431.998004" letter-spacing="0.00749999983">A Homeless P</tspan>
                        <tspan x="68.93625" y="431.998004" letter-spacing="-0.105">r</tspan>
                        <tspan x="72.6225" y="431.998004" letter-spacing="-0.0375000006">o</tspan>
                        <tspan x="78.6375" y="431.998004" letter-spacing="0.00749999983">vide</tspan>
                        <tspan x="98.5125" y="431.998004" letter-spacing="-0.105">r</tspan>
                        <tspan x="102.19875" y="431.998004" letter-spacing="0.00749999983">s G</tspan>
                        <tspan x="116.14875" y="431.998004" letter-spacing="-0.274874993">r</tspan>
                        <tspan x="119.496375" y="431.998004" letter-spacing="0.00749999983">ant </tspan>
                    </text>
                    <text id="and-Per-Diem-Program-" font-family="SourceSansPro-Regular, Source Sans Pro" font-size="11.25" font-weight="normal" letter-spacing="0.00749999983" fill="#505050">
                        <tspan x="0" y="445.498004">and </tspan>
                        <tspan x="20.46" y="445.498004" letter-spacing="-0.262499996">P</tspan>
                        <tspan x="26.4075" y="445.498004">er Diem P</tspan>
                        <tspan x="71.57625" y="445.498004" letter-spacing="-0.105">r</tspan>
                        <tspan x="75.2625" y="445.498004">og</tspan>
                        <tspan x="87.045" y="445.498004" letter-spacing="-0.273750007">r</tspan>
                        <tspan x="90.39375" y="445.498004">am </tspan>
                    </text>
                    <line x1="84.75075" y1="288.989775" x2="29.625" y2="0.614775" id="Stroke-41" stroke="#68095F" stroke-width="0.75"></line>
                </g>
                <text id="-$53,796,273" font-family="SourceSansPro-Bold, Source Sans Pro" font-size="10.5" font-weight="bold" letter-spacing="0.00749999983" fill="#3F3F3F">
                    <tspan x="72.75" y="126.221095"> $53,796,273</tspan>
                </text>
                <text id="77.4%" font-family="SourceSansPro-Light, Source Sans Pro" font-size="42" font-weight="300" letter-spacing="-0.0224999995" fill="#3F3F3F">
                    <tspan x="52.089825" y="82.8791319">77.4%</tspan>
                </text>
                <polygon id="Fill-43" fill="#E8751A" points="48.657 114.95625 58.407 114.95625 58.407 105.20625 48.657 105.20625"></polygon>
                <text id="Continuum-of-Care" font-family="SourceSansPro-Bold, Source Sans Pro" font-size="10.5" font-weight="bold" letter-spacing="0.00749999983" fill="#3F3F3F">
                    <tspan x="63.5757" y="110.28142">Continuum </tspan>
                    <tspan x="117.6312" y="110.28142" letter-spacing="-0.044999999">o</tspan>
                    <tspan x="123.3612" y="110.28142">f Ca</tspan>
                    <tspan x="140.8737" y="110.28142" letter-spacing="-0.096450001">r</tspan>
                    <tspan x="144.85125" y="110.28142">e</tspan>
                </text>
                <text id="$2,704,467--" font-family="SourceSansPro-Semibold, Source Sans Pro" font-size="12" font-weight="500" letter-spacing="-0.00374999992" fill="#3F3F3F">
                    <tspan x="324.758775" y="71.5013877">$2,704,467  </tspan>
                </text>
                <text id="Transitional-Housing-Assistance-for-Victims-" font-family="SourceSansPro-Regular, Source Sans Pro" font-size="11.25" font-weight="normal" letter-spacing="-0.510000005" fill="#3F3F3F">
                    <tspan x="324.758775" y="84.9441291">T</tspan>
                    <tspan x="329.761275" y="84.9441291" letter-spacing="-0.273750007">r</tspan>
                    <tspan x="333.110025" y="84.9441291" letter-spacing="0.00749999983">ansitional Housing Assis</tspan>
                    <tspan x="446.566275" y="84.9441291" letter-spacing="-0.193875007">t</tspan>
                    <tspan x="449.9724" y="84.9441291" letter-spacing="0.00749999983">an</tspan>
                    <tspan x="461.90115" y="84.9441291" letter-spacing="-0.228750005">c</tspan>
                    <tspan x="466.56615" y="84.9441291" letter-spacing="0.00749999983">e </tspan>
                    <tspan x="474.43365" y="84.9441291" letter-spacing="-0.103875004">f</tspan>
                    <tspan x="477.502275" y="84.9441291" letter-spacing="0.00749999983">or </tspan>
                    <tspan x="489.798525" y="84.9441291" letter-spacing="-0.0262500001">V</tspan>
                    <tspan x="495.532275" y="84.9441291" letter-spacing="0.00749999983">ictims </tspan>
                </text>
                <text id="of-Domestic-Violence,-Dating-Violence,-Stalking,-" font-family="SourceSansPro-Regular, Source Sans Pro" font-size="11.25" font-weight="normal" letter-spacing="0.00749999983" fill="#3F3F3F">
                    <tspan x="324.758775" y="98.4441291">of Domestic </tspan>
                    <tspan x="383.112525" y="98.4441291" letter-spacing="-0.0262500001">V</tspan>
                    <tspan x="388.846275" y="98.4441291">iolen</tspan>
                    <tspan x="412.351275" y="98.4441291" letter-spacing="-0.228750005">c</tspan>
                    <tspan x="417.016275" y="98.4441291">e, Dating </tspan>
                    <tspan x="461.090025" y="98.4441291" letter-spacing="-0.0262500001">V</tspan>
                    <tspan x="466.823775" y="98.4441291">iolen</tspan>
                    <tspan x="490.328775" y="98.4441291" letter-spacing="-0.228750005">c</tspan>
                    <tspan x="494.993775" y="98.4441291">e, S</tspan>
                    <tspan x="511.685025" y="98.4441291" letter-spacing="-0.194999993">t</tspan>
                    <tspan x="515.090025" y="98.4441291">alking, </tspan>
                </text>
                <text id="or-Sexual-Assault" font-family="SourceSansPro-Regular, Source Sans Pro" font-size="11.25" font-weight="normal" letter-spacing="0.00749999983" fill="#3F3F3F">
                    <tspan x="324.758775" y="111.944129">or S</tspan>
                    <tspan x="343.070025" y="111.944129" letter-spacing="-0.0712499991">e</tspan>
                    <tspan x="348.500025" y="111.944129">xual Assault</tspan>
                </text>
                <g id="Group-49" transform="translate(96.000000, 21.928500)">
                    <line x1="0" y1="0.23985" x2="228" y2="207.23985" id="Stroke-45" stroke="#68095F" stroke-width="0.75"></line>
                    <path d="M17.4492,349.634325 C9.73245,281.985075 58.31745,220.889325 125.9667,213.172575 C193.61595,205.455825 254.71245,254.040825 262.42845,321.690075 C270.1452,389.338575 221.5602,450.435075 153.91095,458.151825 C86.2617,465.868575 25.16595,417.283575 17.4492,349.634325" id="Fill-47" fill="#FFFFFF"></path>
                </g>
                <text id="22.6%" font-family="SourceSansPro-Light, Source Sans Pro" font-size="42" font-weight="300" letter-spacing="-0.0224999995" fill="#3F3F3F">
                    <tspan x="191.583225" y="345.374707">22.6%</tspan>
                </text>
                <g id="Group-74" transform="translate(222.000000, 57.178500)">
                    <line x1="3.006225" y1="159.061125" x2="3.375225" y2="0.239625" id="Stroke-50" stroke="#808080" stroke-width="0.75"></line>
                    <path d="M5.82645835,158.92635 C5.8227,160.48335 4.55745,161.74335 2.9997,161.739608 C1.4427,161.73585 0.18345,160.4706 0.186444651,158.91285 C0.1902,157.35585 1.4562,156.0966 3.0132,156.099595 C4.5702,156.10335 5.8302,157.36935 5.82645835,158.92635" id="Fill-52" fill="#808080"></path>
                    <line x1="108.751125" y1="193.56255" x2="108.751125" y2="67.75905" id="Stroke-54" stroke="#808080" stroke-width="0.75"></line>
                    <path d="M111.5709,193.421925 C111.5709,194.978925 110.3079,196.241925 108.7509,196.241925 C107.1939,196.241925 105.9309,194.978925 105.9309,193.421925 C105.9309,191.864925 107.1939,190.601925 108.7509,190.601925 C110.3079,190.601925 111.5709,191.864925 111.5709,193.421925" id="Fill-56" fill="#808080"></path>
                    <polyline id="Stroke-58" stroke="#808080" stroke-width="0.75" points="155.928225 262.43655 178.494975 261.98955 178.494975 123.2643 191.251725 123.2643"></polyline>
                    <path d="M156.12525,265.253475 C154.56825,265.284225 153.28125,264.046725 153.2505,262.489725 C153.219,260.932725 154.4565,259.644975 156.0135,259.614225 C157.5705,259.583475 158.85825,260.821725 158.889,262.377975 C158.91975,263.934975 157.68225,265.222725 156.12525,265.253475" id="Fill-60" fill="#808080"></path>
                    <polyline id="Stroke-62" stroke="#808080" stroke-width="0.75" points="123.677475 388.740525 175.509225 388.740525 175.509225 336.249525 188.265975 336.249525"></polyline>
                    <path d="M123.81885,391.560375 C122.2611,391.560375 120.99885,390.297375 120.99885,388.740375 C120.99885,387.183375 122.2611,385.920375 123.81885,385.920375 C125.37585,385.920375 126.6381,387.183375 126.6381,388.740375 C126.6381,390.297375 125.37585,391.560375 123.81885,391.560375" id="Fill-64" fill="#808080"></path>
                    <polyline id="Stroke-66" stroke="#808080" stroke-width="0.75" points="82.426425 423.240525 174.740925 423.240525 174.740925 455.489775 188.266425 455.489775"></polyline>
                    <path d="M82.56735,426.060375 C81.01035,426.060375 79.74735,424.797375 79.74735,423.240375 C79.74735,421.683375 81.01035,420.420375 82.56735,420.420375 C84.12435,420.420375 85.38735,421.683375 85.38735,423.240375 C85.38735,424.797375 84.12435,426.060375 82.56735,426.060375" id="Fill-68" fill="#808080"></path>
                    <line x1="99.678975" y1="411.239775" x2="186.750225" y2="411.239775" id="Stroke-70" stroke="#808080" stroke-width="0.75"></line>
                    <path d="M99.819975,414.059625 C98.262975,414.059625 96.999975,412.796625 96.999975,411.239625 C96.999975,409.682625 98.262975,408.419625 99.819975,408.419625 C101.376975,408.419625 102.639975,409.682625 102.639975,411.239625 C102.639975,412.796625 101.376975,414.059625 99.819975,414.059625" id="Fill-72" fill="#808080"></path>
                </g>
                <text id="$242,898" font-family="SourceSansPro-Semibold, Source Sans Pro" font-size="12" font-weight="500" letter-spacing="-0.00374999992" fill="#3F3F3F">
                    <tspan x="418.51065" y="514.494288">$242,898</tspan>
                </text>
                <text id="Demonstration-Grants-for-" font-family="SourceSansPro-Regular, Source Sans Pro" font-size="11.25" font-weight="normal" letter-spacing="0.00749999983" fill="#3F3F3F">
                    <tspan x="418.51065" y="527.937029">Demonst</tspan>
                    <tspan x="461.15565" y="527.937029" letter-spacing="-0.273750007">r</tspan>
                    <tspan x="464.5044" y="527.937029">ation G</tspan>
                    <tspan x="498.3519" y="527.937029" letter-spacing="-0.273750007">r</tspan>
                    <tspan x="501.70065" y="527.937029">ants </tspan>
                    <tspan x="524.44065" y="527.937029" letter-spacing="-0.105">f</tspan>
                    <tspan x="527.50815" y="527.937029">or </tspan>
                </text>
                <text id="Domestic-Victims-of-Human-" font-family="SourceSansPro-Regular, Source Sans Pro" font-size="11.25" font-weight="normal" letter-spacing="0.00749999983" fill="#3F3F3F">
                    <tspan x="418.51065" y="541.437029">Domestic </tspan>
                    <tspan x="465.1869" y="541.437029" letter-spacing="-0.0262500001">V</tspan>
                    <tspan x="470.92065" y="541.437029">ictims of Human </tspan>
                </text>
                <text id="Traﬀicking" font-family="SourceSansPro-Regular, Source Sans Pro" font-size="11.25" font-weight="normal" letter-spacing="-0.510000005" fill="#3F3F3F">
                    <tspan x="418.51065" y="554.937029">T</tspan>
                    <tspan x="423.51315" y="554.937029" letter-spacing="-0.273750007">r</tspan>
                    <tspan x="426.8619" y="554.937029" letter-spacing="0.00749999983">aﬀicking</tspan>
                </text>
                <g id="Group-79" transform="translate(67.500000, 446.428500)">
                    <line x1="64.575075" y1="3.303525" x2="7.5e-05" y2="49.739775" id="Stroke-75" stroke="#808080" stroke-width="0.75"></line>
                    <path d="M62.8143,1.096725 C64.0788,0.187725 65.8413,0.475725 66.7503,1.739475 C67.65855,3.003975 67.3713,4.766475 66.1068,5.675475 C64.84305,6.584475 63.0798,6.297225 62.17155,5.032725 C61.26255,3.768225 61.5498,2.005725 62.8143,1.096725" id="Fill-77" fill="#808080"></path>
                </g>
                <text id="-$15,686,476" font-family="SourceSansPro-Bold, Source Sans Pro" font-size="10.5" font-weight="bold" letter-spacing="0.00749999983" fill="#3F3F3F">
                    <tspan x="209.82645" y="386.32537"> $15,686,476</tspan>
                </text>
                <polygon id="Fill-80" fill="#FFC69F" points="187.6365 376.845 197.3865 376.845 197.3865 367.095 187.6365 367.095"></polygon>
                <text id="Other-Programs" font-family="SourceSansPro-Bold, Source Sans Pro" font-size="10.5" font-weight="bold" letter-spacing="0.00749999983" fill="#3F3F3F">
                    <tspan x="203.0691" y="371.315845">Other P</tspan>
                    <tspan x="238.4856" y="371.315845" letter-spacing="-0.0974999964">r</tspan>
                    <tspan x="242.4621" y="371.315845">og</tspan>
                    <tspan x="253.9116" y="371.315845" letter-spacing="-0.296999998">r</tspan>
                    <tspan x="257.4891" y="371.315845">ams</tspan>
                </text>
            </g>
        </g>
    </g>
</svg>