<?xml version="1.0" encoding="UTF-8"?>
<svg width="308px" height="70px" viewBox="0 0 308 70" version="1.1" xmlns="http://www.w3.org/2000/svg" xmlns:xlink="http://www.w3.org/1999/xlink">
    <!-- Generator: Sketch 59.1 (86144) - https://sketch.com -->
    <title>Group 4310</title>
    <desc>Created with Sketch.</desc>
    <g id="Desktop" stroke="none" stroke-width="1" fill="none" fill-rule="evenodd">
        <g id="Homelessness-Section-3-10" transform="translate(-845.000000, -2323.000000)">
            <g id="Group-43" transform="translate(845.000000, 2318.000000)">
                <polygon id="Fill-1" fill="#E0E0E0" points="2.61225 37.461125 299.61225 37.461125 299.61225 27.711125 2.61225 27.711125"></polygon>
                <line x1="2.61255" y1="45.465575" x2="2.61255" y2="19.215575" id="Stroke-2" stroke="#D1D1D1" stroke-width="0.75" stroke-linecap="round"></line>
                <line x1="151.11255" y1="45.465575" x2="151.11255" y2="19.215575" id="Stroke-3" stroke="#D1D1D1" stroke-width="0.75" stroke-linecap="round"></line>
                <line x1="299.61255" y1="45.465575" x2="299.61255" y2="19.215575" id="Stroke-4" stroke="#D1D1D1" stroke-width="0.75" stroke-linecap="round"></line>
                <g id="Group-6" transform="translate(0.000000, 0.421125)" font-size="10.5">
                    <text id="CLUSTER-MEDIAN:-3,542" font-family="SourceSansPro-Semibold, Source Sans Pro" font-weight="500" letter-spacing="-0.0149999997" fill="#3F3F3F">
                        <tspan x="39.441675" y="71.5948205">C</tspan>
                        <tspan x="45.474675" y="71.5948205" letter-spacing="-0.361499995">L</tspan>
                        <tspan x="50.037675" y="71.5948205" letter-spacing="-0.119999997">U</tspan>
                        <tspan x="56.690175" y="71.5948205" letter-spacing="-0.225000009">S</tspan>
                        <tspan x="61.977675" y="71.5948205">TER MEDIAN: 3,542</tspan>
                    </text>
                    <text id="0" font-family="SourceSansPro-Regular, Source Sans Pro" font-weight="normal" fill="#848484">
                        <tspan x="0.003675" y="10.8418205">0</tspan>
                    </text>
                    <text id="10K" font-family="SourceSansPro-Regular, Source Sans Pro" font-weight="normal" letter-spacing="-0.0299999993" fill="#848484">
                        <tspan x="291.032175" y="10.8418205">10K</tspan>
                    </text>
                    <text id="5K" font-family="SourceSansPro-Regular, Source Sans Pro" font-weight="normal" letter-spacing="-0.0299999993" fill="#848484">
                        <tspan x="145.796175" y="11.2198205">5K</tspan>
                    </text>
                </g>
                <line x1="32.31225" y1="45.465575" x2="32.31225" y2="19.215575" id="Stroke-7" stroke="#D1D1D1" stroke-width="0.75" stroke-linecap="round"></line>
                <g id="Group-9" transform="translate(27.000000, 1.421125)" fill="#848484" font-family="SourceSansPro-Regular, Source Sans Pro" font-size="10.5" font-weight="normal" letter-spacing="-0.0299999993">
                    <text id="1K">
                        <tspan x="0.671625" y="10.2205705">1K</tspan>
                    </text>
                </g>
                <line x1="62.0127" y1="45.465575" x2="62.0127" y2="19.215575" id="Stroke-10" stroke="#D1D1D1" stroke-width="0.75" stroke-linecap="round"></line>
                <g id="Group-12" transform="translate(56.250000, 1.421125)" fill="#848484" font-family="SourceSansPro-Regular, Source Sans Pro" font-size="10.5" font-weight="normal" letter-spacing="-0.0299999993">
                    <text id="2K">
                        <tspan x="0.6702" y="10.2205705">2K</tspan>
                    </text>
                </g>
                <line x1="91.7124" y1="45.465575" x2="91.7124" y2="19.215575" id="Stroke-13" stroke="#D1D1D1" stroke-width="0.75" stroke-linecap="round"></line>
                <g id="Group-15" transform="translate(86.250000, 1.421125)" fill="#848484" font-family="SourceSansPro-Regular, Source Sans Pro" font-size="10.5" font-weight="normal" letter-spacing="-0.0299999993">
                    <text id="3K">
                        <tspan x="0.666525" y="10.2205705">3K</tspan>
                    </text>
                </g>
                <line x1="121.41285" y1="45.465575" x2="121.41285" y2="19.215575" id="Stroke-16" stroke="#D1D1D1" stroke-width="0.75" stroke-linecap="round"></line>
                <g id="Group-18" transform="translate(115.500000, 1.421125)" fill="#848484" font-family="SourceSansPro-Regular, Source Sans Pro" font-size="10.5" font-weight="normal" letter-spacing="-0.0299999993">
                    <text id="4K">
                        <tspan x="0.6687" y="10.2205705">4K</tspan>
                    </text>
                </g>
                <line x1="180.81225" y1="45.465575" x2="180.81225" y2="19.215575" id="Stroke-19" stroke="#D1D1D1" stroke-width="0.75" stroke-linecap="round"></line>
                <g id="Group-21" transform="translate(174.750000, 1.421125)" fill="#848484" font-family="SourceSansPro-Regular, Source Sans Pro" font-size="10.5" font-weight="normal" letter-spacing="-0.0299999993">
                    <text id="6K">
                        <tspan x="0.673425" y="10.2205705">6K</tspan>
                    </text>
                </g>
                <line x1="210.5127" y1="45.465575" x2="210.5127" y2="19.215575" id="Stroke-22" stroke="#D1D1D1" stroke-width="0.75" stroke-linecap="round"></line>
                <g id="Group-24" transform="translate(204.750000, 1.421125)" fill="#848484" font-family="SourceSansPro-Regular, Source Sans Pro" font-size="10.5" font-weight="normal" letter-spacing="-0.0299999993">
                    <text id="7K">
                        <tspan x="0.2937" y="10.2205705">7K</tspan>
                    </text>
                </g>
                <line x1="240.2124" y1="45.465575" x2="240.2124" y2="19.215575" id="Stroke-25" stroke="#D1D1D1" stroke-width="0.75" stroke-linecap="round"></line>
                <g id="Group-27" transform="translate(234.000000, 1.421125)" fill="#848484" font-family="SourceSansPro-Regular, Source Sans Pro" font-size="10.5" font-weight="normal" letter-spacing="-0.0299999993">
                    <text id="8K">
                        <tspan x="0.2922" y="10.2205705">8K</tspan>
                    </text>
                </g>
                <line x1="269.91285" y1="45.465575" x2="269.91285" y2="19.215575" id="Stroke-28" stroke="#D1D1D1" stroke-width="0.75" stroke-linecap="round"></line>
                <g id="Group-30" transform="translate(264.000000, 1.421125)" fill="#848484" font-family="SourceSansPro-Regular, Source Sans Pro" font-size="10.5" font-weight="normal" letter-spacing="-0.0299999993">
                    <text id="9K">
                        <tspan x="0.676725" y="10.2205705">9K</tspan>
                    </text>
                </g>
                <line x1="94.11255" y1="63.7109" x2="94.11255" y2="47.63165" id="Stroke-31" stroke="#636363" stroke-width="1.5" stroke-linecap="round"></line>
                <g id="Group-42" transform="translate(48.000000, 21.921125)">
                    <path d="M46.11255,26.01195 C45.3288,26.7957 43.7793,27.1692 42.7038,27.19995 C44.14755,26.1252 45.4068,24.72945 46.11255,23.0397 C46.7883,24.72945 48.12405,26.0637 49.5213,27.19995 C48.37005,27.1077 46.97205,26.82645 46.11255,26.01195" id="Fill-32" fill="#636363"></path>
                    <path d="M140.828625,19.289775 L3.527625,19.289775 C1.804125,19.289775 0.394125,17.879775 0.394125,16.155525 L0.394125,5.174025 C0.394125,3.450525 1.804125,2.039775 3.527625,2.039775 L140.828625,2.039775 C142.552875,2.039775 143.962875,3.450525 143.962875,5.174025 L143.962875,16.155525 C143.962875,17.879775 142.552875,19.289775 140.828625,19.289775" id="Fill-34" fill="#FFC69F"></path>
                    <path d="M56.264625,20.803725 L11.122875,20.803725 C9.472125,20.803725 8.122875,19.453725 8.122875,17.803725 L8.122875,3.553725 C8.122875,1.904475 9.472125,0.553725 11.122875,0.553725 L56.264625,0.553725 C57.914625,0.553725 59.264625,1.904475 59.264625,3.553725 L59.264625,17.803725 C59.264625,19.453725 57.914625,20.803725 56.264625,20.803725" id="Fill-36" fill="#E8751A"></path>
                    <path d="M49.1514,9.276825 C49.1514,8.644575 49.18365,8.036325 49.1439,7.431825 C49.06965,6.297825 48.16365,5.460825 46.99515,5.395575 C45.9684,5.339325 44.9244,6.120075 44.77665,7.173825 C44.68065,7.857075 44.75865,8.565825 44.75865,9.276825 L49.1514,9.276825 Z M43.6179,15.957075 L50.2719,15.957075 L50.2719,10.423575 L43.6179,10.423575 L43.6179,15.957075 Z M50.28765,9.247575 C50.4804,9.316575 50.66265,9.357075 50.8209,9.441825 C51.2184,9.654825 51.39165,10.013325 51.3924,10.451325 C51.3969,12.291825 51.3984,14.131575 51.39165,15.972075 C51.3894,16.589325 50.92215,17.055825 50.29965,17.075325 C49.87515,17.088825 49.4499,17.079075 49.0254,17.079075 C47.27715,17.079075 45.5289,17.079825 43.78065,17.079075 C42.91815,17.079075 42.4959,16.655325 42.4959,15.792825 C42.49515,14.094075 42.51465,12.394575 42.4869,10.697325 C42.47415,9.905325 42.7584,9.424575 43.60365,9.262575 C43.60365,8.743575 43.6014,8.220825 43.60365,7.697325 C43.60965,6.055575 44.6079,4.775325 46.19715,4.368075 C48.0354,3.897075 50.0499,5.283825 50.2374,7.172325 C50.29515,7.759575 50.2734,8.353575 50.2869,8.943825 C50.2899,9.050325 50.28765,9.158325 50.28765,9.247575 L50.28765,9.247575 Z" id="Fill-38" fill="#FFFFFF"></path>
                    <path d="M46.86765,11.521725 C47.43915,11.537475 47.83515,11.817225 47.98815,12.240975 C48.1509,12.692475 48.01365,13.162725 47.6514,13.486725 C47.57265,13.557225 47.5209,13.685475 47.50515,13.793475 C47.4804,13.965225 47.50515,14.142975 47.49465,14.317725 C47.47665,14.619975 47.23065,14.850225 46.93965,14.8487323 C46.6479,14.846475 46.41315,14.614725 46.39365,14.307975 C46.38915,14.232975 46.3884,14.158725 46.39215,14.082975 C46.4049,13.809225 46.38915,13.578975 46.13415,13.365225 C45.7929,13.079475 45.74565,12.560475 45.93315,12.167475 C46.14165,11.732475 46.4994,11.533725 46.86765,11.521725" id="Fill-40" fill="#FFFFFF"></path>
                </g>
            </g>
        </g>
    </g>
</svg>