<?xml version="1.0" encoding="UTF-8"?>
<svg width="69px" height="69px" viewBox="0 0 69 69" version="1.1" xmlns="http://www.w3.org/2000/svg" xmlns:xlink="http://www.w3.org/1999/xlink">
    <!-- Generator: Sketch 55.1 (78136) - https://sketchapp.com -->
    <title>Group 5</title>
    <desc>Created with Sketch.</desc>
    <g id="Page-1" stroke="none" stroke-width="1" fill="none" fill-rule="evenodd">
        <g id="CU_Desktop_Zoomed-Map-Copy-2" transform="translate(-423.000000, -1509.000000)">
            <g id="Group-5" transform="translate(424.000000, 1510.000000)">
                <g id="Group-27" transform="translate(20.000000, 15.000000)" fill="#030303">
                    <path d="M17.3577851,10 C17.0225489,10 16.7470387,9.69966398 16.718139,9.31598471 C16.5370344,9.05619405 15.4324247,8.49606737 13.5,8.49606737 C12.6111745,8.49606737 11.7628086,8.62070682 11.1116027,8.84746052 C10.574711,9.03517053 10.3447981,9.23339231 10.281861,9.31748639 C10.2529613,9.70041482 9.97745112,10 9.64221493,10 C9.28771229,10 9,9.6643745 9,9.24915995 C9,8.68753159 9.30312545,7.91266465 10.744898,7.40885098 C13.2142144,6.54988996 18,6.98988223 18,9.24915995 C18,9.6643745 17.7122877,10 17.3577851,10" id="Fill-1"></path>
                    <path d="M10.2844299,9 L9,9 L9,5.8714504 C9,5.40335538 9.30248323,4.7583967 10.744898,4.34029848 C13.2013701,3.62596923 18,3.9903209 18,5.8714504 L18,8.78876353 L16.7155701,8.78876353 L16.7155701,5.92394704 C16.526759,5.70646097 15.4227915,5.24524051 13.5,5.24524051 C12.6086057,5.24524051 11.760882,5.34898387 11.1122449,5.53772178 C10.5817754,5.69146193 10.3512202,5.85395152 10.2844299,5.92582192 L10.2844299,9 Z" id="Fill-3"></path>
                    <path d="M17.3444737,8 L16.6971591,6.82697947 L21.573774,4.13037285 L13.0000357,1.40628404 L4.42629741,4.13037285 L9.3022429,6.82697947 L8.65559774,8 L3.65581234,5.23569334 C3.228732,4.99170507 2.98105218,4.54327608 3.00113432,4.06066192 C3.02121647,3.57804776 3.30437476,3.15173858 3.74149617,2.94729786 L3.82249417,2.91579388 L13.0000357,0 L22.2579059,2.94729786 C22.6950273,3.15173858 22.978855,3.57804776 22.9989371,4.06066192 C23.0183499,4.54327608 22.77067,4.99170507 22.352292,5.23100126 L17.3444737,8 Z" id="Fill-5"></path>
                    <path d="M5.5,10 C5.224,10 5,9.68094218 5,9.28622413 L5,5.71377587 C5,5.31905782 5.224,5 5.5,5 C5.776,5 6,5.31905782 6,5.71377587 L6,9.28622413 C6,9.68094218 5.776,10 5.5,10" id="Fill-7"></path>
                    <polygon id="Fill-9" points="7 39 5.5 39 5.5 34.20012 4 34.20012 4 33 7 33"></polygon>
                    <polygon id="Fill-11" points="21.5 39 20 39 20 33 23 33 23 34.20012 21.5 34.20012"></polygon>
                    <path d="M14,21 C10.5233333,21 8,18.0577437 8,14.0046212 C8,11.5919151 8.89266667,9.48700557 10.45,8.229936 C10.7406667,7.99279266 11.16,8.05015476 11.3846667,8.35725189 C11.6093333,8.66364949 11.5546667,9.10295927 11.2633333,9.338004 C10.0366667,10.3285496 9.33333333,12.0298258 9.33333333,14.0046212 C9.33333333,17.2994446 11.252,19.6009242 14,19.6009242 C16.748,19.6009242 18.6666667,17.2994446 18.6666667,14.0046212 C18.6666667,11.9899521 17.9813333,10.2110273 16.8333333,9.245665 C16.546,9.00502397 16.4993333,8.56431511 16.73,8.26281428 C16.9593333,7.96061392 17.38,7.91164626 17.6666667,8.15438591 C19.128,9.38277443 20,11.5695298 20,14.0046212 C20,18.0577437 17.4766667,21 14,21" id="Fill-13"></path>
                    <path d="M13,31.2 C12.0076,31.2 11.2,32.0076 11.2,33 C11.2,33.9924 12.0076,34.8 13,34.8 C13.9924,34.8 14.8,33.9924 14.8,33 C14.8,32.0076 13.9924,31.2 13,31.2 M13,36 C11.3458,36 10,34.6542 10,33 C10,31.3458 11.3458,30 13,30 C14.6542,30 16,31.3458 16,33 C16,34.6542 14.6542,36 13,36" id="Fill-15"></path>
                    <polygon id="Fill-17" points="15.255837 31 14 30.4212797 17.7434555 24 19 24.5787203"></polygon>
                    <path d="M15.6604545,33 C15.5110903,33 15.3610652,32.9515222 15.2374763,32.8520152 C14.9572532,32.6262109 14.9195817,32.2237179 15.1535415,31.953263 L21.8313107,24.2293514 C22.0652705,23.9576208 22.4823006,23.923176 22.7625237,24.1483425 C23.0427468,24.3741468 23.0804183,24.776002 22.8464585,25.0464569 L16.1680284,32.7710063 C16.0371695,32.9221804 15.8494729,33 15.6604545,33" id="Fill-19"></path>
                    <polygon id="Fill-21" points="11.8488357 31 8 24.5881894 9.15116432 24 13 30.4118106"></polygon>
                    <path d="M10.3395455,33 C10.1505271,33 9.96283047,32.9221809 9.83197157,32.7710077 L3.15354153,25.0465055 C2.91958168,24.7760522 2.95725318,24.3741995 3.23747628,24.1483966 C3.51769937,23.9225936 3.93472949,23.9583139 4.16868933,24.229405 L10.8464585,31.9532693 C11.0804183,32.2237226 11.0427468,32.6262132 10.7625237,32.8520161 C10.6389348,32.9515225 10.4889097,33 10.3395455,33" id="Fill-23"></path>
                    <path d="M26,40 L24.7,40 L24.7,31.8571429 C24.7,27.1872143 21.55595,22.3571429 16.29355,22.3571429 L9.70645,22.3571429 C4.44405,22.3571429 1.3,27.1872143 1.3,31.8571429 L1.3,40 L0,40 L0,31.8571429 C0,25.769 4.264,21 9.70645,21 L16.29355,21 C21.736,21 26,25.769 26,31.8571429 L26,40 Z" id="Fill-25"></path>
                </g>
                <circle id="Oval" stroke="#0A2F5A" stroke-width="2" cx="33.5" cy="33.5" r="33.5"></circle>
            </g>
        </g>
    </g>
</svg>