<svg xmlns="http://www.w3.org/2000/svg" viewBox="0 0 1920 325"><defs><style>.cls-1,.cls-3,.cls-5,.cls-6,.cls-7{fill:none;}.cls-1{stroke:#4d4d4d;}.cls-1,.cls-3,.cls-6{stroke-miterlimit:10;}.cls-1,.cls-6,.cls-7{stroke-width:2px;}.cls-2{fill:#484751;}.cls-3{stroke:#484751;stroke-width:1.07px;}.cls-3,.cls-6{stroke-linecap:square;}.cls-4{fill:#4d4d4d;}.cls-6{stroke:#881e3d;}.cls-7{stroke:#daa200;stroke-linecap:round;stroke-linejoin:round;}</style></defs><title>C+U Hero_Color</title><g id="Layer_1" data-name="Layer 1"><path class="cls-1" d="M-9,179H129a18.05,18.05,0,0,1,18,18v48a18.05,18.05,0,0,0,18,18h90a18.05,18.05,0,0,0,18-18V192.89a18.05,18.05,0,0,1,18-18H428.83a18.05,18.05,0,0,0,18-18v-69a18.05,18.05,0,0,1,18-18h7a18.05,18.05,0,0,1,18,18v171a18.05,18.05,0,0,0,18,18h6a18.05,18.05,0,0,0,18-18v-66a18.05,18.05,0,0,1,18-18h41a18.05,18.05,0,0,0,18-18v-15c0-9.9,5.62-18,12.5-18s12.5,8.1,12.5,18v60c0,9.9,7.55,18,16.77,18s16.78-8.1,16.78-18V188.48a18.05,18.05,0,0,1,18-18h97.45a18.05,18.05,0,0,0,18-18V95.89c0-9.9,7.87-18,17.5-18s17.5,8.1,17.5,18v123a18.05,18.05,0,0,0,18,18h4a18.05,18.05,0,0,0,18-18v-30a18.05,18.05,0,0,1,18-18h96a18.05,18.05,0,0,0,18-18v-72c0-9.9,7.42-18,16.5-18s16.5,8.1,16.5,18v76a18.05,18.05,0,0,0,18,18h75a18.05,18.05,0,0,1,18,18v24c0,9.9,7.87,18,17.5,18s17.5-8.1,17.5-18v-118a18.05,18.05,0,0,1,18-18h11a18.05,18.05,0,0,1,18,18v58a18.05,18.05,0,0,0,18,18h41a18.05,18.05,0,0,1,18,18v28a17.7,17.7,0,1,0,35.4,0v-28a18.05,18.05,0,0,1,18-18h65.6a18.05,18.05,0,0,0,18-18V83a18.05,18.05,0,0,1,18-18H1587a18.05,18.05,0,0,1,18,18V252a18.05,18.05,0,0,0,18,18h21a18.05,18.05,0,0,0,18-18V176a18.05,18.05,0,0,1,18-18h255"/><g id="_13" data-name="13"><path class="cls-2" d="M891.47,292a.75.75,0,1,1-1.5,0,.75.75,0,0,1,1.5,0Z"/><path class="cls-2" d="M881.66,298.48a.75.75,0,0,1-1.5,0,.75.75,0,1,1,1.5,0Z"/><polyline class="cls-3" points="882.88 290.41 890.6 285.15 900.89 291.74 892.86 297.21"/><polyline class="cls-3" points="878.81 293.18 870.72 298.69 881.01 305.28 888.2 300.38"/><polyline class="cls-3" points="885.52 292.04 890.64 288.55 895.74 291.81 892.2 294.23"/><polyline class="cls-3" points="879.38 296.22 875.86 298.62 880.96 301.88 885.97 298.48"/><polyline class="cls-3" points="870.72 301.68 881.01 308.28 888.69 303.04"/><line class="cls-3" x1="900.89" y1="294.73" x2="893.57" y2="299.72"/><polyline class="cls-3" points="870.72 304.68 881.01 311.27 888.45 306.2"/><line class="cls-3" x1="900.89" y1="297.73" x2="893.57" y2="302.71"/><polyline class="cls-3" points="870.72 307.67 881.01 314.26 889.11 308.74"/><line class="cls-3" x1="900.89" y1="300.72" x2="893.57" y2="305.7"/><path class="cls-3" d="M878.94,293.29l10.17,6.5v9.07a.5.5,0,0,0,.79.4l3-2.1a.49.49,0,0,0,.21-.4v-9.4l-10.9-7a.71.71,0,0,0-.79,0l-2.47,1.72A.71.71,0,0,0,878.94,293.29Z"/></g><g id="_13-2" data-name="13"><path class="cls-2" d="M783.47,204a.75.75,0,1,1-1.5,0,.75.75,0,0,1,1.5,0Z"/><path class="cls-2" d="M773.66,210.48a.75.75,0,0,1-1.5,0,.75.75,0,0,1,1.5,0Z"/><polyline class="cls-3" points="774.88 202.41 782.6 197.15 792.89 203.74 784.86 209.21"/><polyline class="cls-3" points="770.81 205.18 762.72 210.69 773.01 217.28 780.2 212.38"/><polyline class="cls-3" points="777.52 204.04 782.64 200.55 787.74 203.81 784.2 206.23"/><polyline class="cls-3" points="771.38 208.22 767.86 210.62 772.96 213.88 777.97 210.47"/><polyline class="cls-3" points="762.72 213.68 773.01 220.28 780.69 215.04"/><line class="cls-3" x1="792.89" y1="206.73" x2="785.57" y2="211.72"/><polyline class="cls-3" points="762.72 216.68 773.01 223.27 780.45 218.2"/><line class="cls-3" x1="792.89" y1="209.73" x2="785.57" y2="214.71"/><polyline class="cls-3" points="762.72 219.67 773.01 226.26 781.11 220.74"/><line class="cls-3" x1="792.89" y1="212.72" x2="785.57" y2="217.7"/><path class="cls-3" d="M770.94,205.29l10.17,6.5v9.07a.5.5,0,0,0,.79.4l3-2.1a.49.49,0,0,0,.21-.4v-9.4l-10.9-7a.71.71,0,0,0-.79,0l-2.47,1.72A.71.71,0,0,0,770.94,205.29Z"/></g><g id="_13-3" data-name="13"><path class="cls-2" d="M1038.47,213a.75.75,0,1,1-1.5,0,.75.75,0,0,1,1.5,0Z"/><path class="cls-2" d="M1028.66,219.48a.75.75,0,0,1-1.5,0,.75.75,0,0,1,1.5,0Z"/><polyline class="cls-3" points="1029.88 211.41 1037.6 206.15 1047.89 212.74 1039.86 218.21"/><polyline class="cls-3" points="1025.81 214.18 1017.72 219.69 1028.01 226.28 1035.2 221.38"/><polyline class="cls-3" points="1032.52 213.04 1037.64 209.55 1042.74 212.81 1039.2 215.23"/><polyline class="cls-3" points="1026.38 217.22 1022.86 219.62 1027.96 222.88 1032.97 219.47"/><polyline class="cls-3" points="1017.72 222.68 1028.01 229.28 1035.69 224.04"/><line class="cls-3" x1="1047.89" y1="215.73" x2="1040.57" y2="220.72"/><polyline class="cls-3" points="1017.72 225.68 1028.01 232.27 1035.45 227.2"/><line class="cls-3" x1="1047.89" y1="218.73" x2="1040.57" y2="223.71"/><polyline class="cls-3" points="1017.72 228.67 1028.01 235.26 1036.11 229.74"/><line class="cls-3" x1="1047.89" y1="221.72" x2="1040.57" y2="226.7"/><path class="cls-3" d="M1025.94,214.29l10.17,6.5v9.07a.5.5,0,0,0,.79.4l3-2.1a.49.49,0,0,0,.21-.4v-9.4l-10.9-7a.71.71,0,0,0-.79,0l-2.47,1.72A.71.71,0,0,0,1025.94,214.29Z"/></g><g id="_13-4" data-name="13"><path class="cls-2" d="M1209.47,30a.75.75,0,1,1-1.5,0,.75.75,0,0,1,1.5,0Z"/><path class="cls-2" d="M1199.66,36.48a.75.75,0,0,1-1.5,0,.75.75,0,0,1,1.5,0Z"/><polyline class="cls-3" points="1200.88 28.41 1208.6 23.15 1218.89 29.74 1210.86 35.21"/><polyline class="cls-3" points="1196.81 31.18 1188.72 36.69 1199.01 43.28 1206.2 38.38"/><polyline class="cls-3" points="1203.52 30.04 1208.64 26.55 1213.74 29.81 1210.2 32.23"/><polyline class="cls-3" points="1197.38 34.22 1193.86 36.62 1198.96 39.88 1203.97 36.48"/><polyline class="cls-3" points="1188.72 39.68 1199.01 46.28 1206.69 41.04"/><line class="cls-3" x1="1218.89" y1="32.73" x2="1211.57" y2="37.72"/><polyline class="cls-3" points="1188.72 42.67 1199.01 49.27 1206.45 44.2"/><line class="cls-3" x1="1218.89" y1="35.73" x2="1211.57" y2="40.71"/><polyline class="cls-3" points="1188.72 45.67 1199.01 52.26 1207.11 46.74"/><line class="cls-3" x1="1218.89" y1="38.72" x2="1211.57" y2="43.7"/><path class="cls-3" d="M1196.94,31.29l10.17,6.5v9.07a.5.5,0,0,0,.79.4l3-2.1a.49.49,0,0,0,.21-.4v-9.4l-10.9-7a.71.71,0,0,0-.79,0l-2.47,1.72A.71.71,0,0,0,1196.94,31.29Z"/></g><g id="_13-5" data-name="13"><path class="cls-2" d="M1231.69,282.71a.75.75,0,1,1-.75-.75A.75.75,0,0,1,1231.69,282.71Z"/><path class="cls-2" d="M1221.88,289.22a.75.75,0,0,1-1.5,0,.75.75,0,0,1,1.5,0Z"/><polyline class="cls-3" points="1223.1 281.15 1230.81 275.9 1241.1 282.49 1233.07 287.96"/><polyline class="cls-3" points="1219.03 283.93 1210.94 289.44 1221.23 296.03 1228.42 291.13"/><polyline class="cls-3" points="1225.74 282.79 1230.86 279.29 1235.96 282.56 1232.42 284.97"/><polyline class="cls-3" points="1219.6 286.97 1216.08 289.37 1221.18 292.63 1226.19 289.22"/><polyline class="cls-3" points="1210.94 292.43 1221.23 299.02 1228.91 293.79"/><line class="cls-3" x1="1241.1" y1="285.48" x2="1233.79" y2="290.46"/><polyline class="cls-3" points="1210.94 295.42 1221.23 302.01 1228.67 296.94"/><line class="cls-3" x1="1241.1" y1="288.47" x2="1233.79" y2="293.45"/><polyline class="cls-3" points="1210.94 298.41 1221.23 305.01 1229.33 299.49"/><line class="cls-3" x1="1241.1" y1="291.46" x2="1233.79" y2="296.45"/><path class="cls-3" d="M1219.16,284l10.17,6.51v9.06a.49.49,0,0,0,.78.41l3-2.1a.51.51,0,0,0,.21-.41v-9.4l-10.91-7a.71.71,0,0,0-.78,0l-2.47,1.71A.71.71,0,0,0,1219.16,284Z"/></g><g id="_13-6" data-name="13"><path class="cls-2" d="M1765.69,290.71a.75.75,0,1,1-.75-.75A.75.75,0,0,1,1765.69,290.71Z"/><path class="cls-2" d="M1755.88,297.22a.75.75,0,1,1-1.5,0,.75.75,0,0,1,1.5,0Z"/><polyline class="cls-3" points="1757.1 289.15 1764.81 283.9 1775.1 290.49 1767.07 295.96"/><polyline class="cls-3" points="1753.03 291.93 1744.94 297.44 1755.23 304.03 1762.42 299.13"/><polyline class="cls-3" points="1759.74 290.79 1764.86 287.29 1769.96 290.56 1766.42 292.97"/><polyline class="cls-3" points="1753.6 294.97 1750.08 297.37 1755.18 300.63 1760.19 297.22"/><polyline class="cls-3" points="1744.94 300.43 1755.23 307.02 1762.91 301.79"/><line class="cls-3" x1="1775.1" y1="293.48" x2="1767.79" y2="298.46"/><polyline class="cls-3" points="1744.94 303.42 1755.23 310.01 1762.67 304.94"/><line class="cls-3" x1="1775.1" y1="296.47" x2="1767.79" y2="301.45"/><polyline class="cls-3" points="1744.94 306.41 1755.23 313.01 1763.33 307.49"/><line class="cls-3" x1="1775.1" y1="299.46" x2="1767.79" y2="304.45"/><path class="cls-3" d="M1753.16,292l10.17,6.51v9.06a.49.49,0,0,0,.78.41l3-2.1a.51.51,0,0,0,.21-.41v-9.4l-10.91-7a.71.71,0,0,0-.78,0l-2.47,1.71A.71.71,0,0,0,1753.16,292Z"/></g><g id="_13-7" data-name="13"><path class="cls-2" d="M937.47,18a.75.75,0,1,1-1.5,0,.75.75,0,0,1,1.5,0Z"/><path class="cls-2" d="M927.66,24.48a.75.75,0,0,1-1.5,0,.75.75,0,0,1,1.5,0Z"/><polyline class="cls-3" points="928.88 16.41 936.6 11.15 946.89 17.74 938.86 23.21"/><polyline class="cls-3" points="924.81 19.18 916.72 24.69 927.01 31.28 934.2 26.38"/><polyline class="cls-3" points="931.52 18.04 936.64 14.55 941.74 17.81 938.2 20.23"/><polyline class="cls-3" points="925.38 22.22 921.86 24.62 926.96 27.89 931.97 24.48"/><polyline class="cls-3" points="916.72 27.68 927.01 34.28 934.69 29.04"/><line class="cls-3" x1="946.89" y1="20.73" x2="939.57" y2="25.72"/><polyline class="cls-3" points="916.72 30.68 927.01 37.27 934.45 32.2"/><line class="cls-3" x1="946.89" y1="23.73" x2="939.57" y2="28.71"/><polyline class="cls-3" points="916.72 33.67 927.01 40.26 935.11 34.74"/><line class="cls-3" x1="946.89" y1="26.72" x2="939.57" y2="31.7"/><path class="cls-3" d="M924.94,19.29l10.17,6.5v9.07a.5.5,0,0,0,.79.4l3-2.1a.49.49,0,0,0,.21-.4v-9.4l-10.9-7a.71.71,0,0,0-.79,0l-2.47,1.72A.71.71,0,0,0,924.94,19.29Z"/></g><g id="_13-8" data-name="13"><path class="cls-2" d="M719.47,112a.75.75,0,1,1-1.5,0,.75.75,0,0,1,1.5,0Z"/><path class="cls-2" d="M709.66,118.48a.75.75,0,0,1-1.5,0,.75.75,0,0,1,1.5,0Z"/><polyline class="cls-3" points="710.88 110.41 718.6 105.15 728.89 111.74 720.86 117.21"/><polyline class="cls-3" points="706.81 113.18 698.72 118.69 709.01 125.28 716.2 120.38"/><polyline class="cls-3" points="713.52 112.04 718.64 108.55 723.74 111.81 720.2 114.23"/><polyline class="cls-3" points="707.38 116.22 703.86 118.62 708.96 121.89 713.97 118.47"/><polyline class="cls-3" points="698.72 121.68 709.01 128.28 716.69 123.04"/><line class="cls-3" x1="728.89" y1="114.73" x2="721.57" y2="119.72"/><polyline class="cls-3" points="698.72 124.67 709.01 131.27 716.45 126.2"/><line class="cls-3" x1="728.89" y1="117.73" x2="721.57" y2="122.71"/><polyline class="cls-3" points="698.72 127.67 709.01 134.26 717.11 128.74"/><line class="cls-3" x1="728.89" y1="120.72" x2="721.57" y2="125.7"/><path class="cls-3" d="M706.94,113.29l10.17,6.5v9.07a.5.5,0,0,0,.79.4l3-2.1a.49.49,0,0,0,.21-.4v-9.4l-10.9-7a.71.71,0,0,0-.79,0l-2.47,1.72A.71.71,0,0,0,706.94,113.29Z"/></g><g id="_13-9" data-name="13"><path class="cls-2" d="M925.47,118a.75.75,0,1,1-1.5,0,.75.75,0,0,1,1.5,0Z"/><path class="cls-2" d="M915.66,124.48a.75.75,0,0,1-1.5,0,.75.75,0,1,1,1.5,0Z"/><polyline class="cls-3" points="916.88 116.41 924.6 111.15 934.89 117.74 926.86 123.21"/><polyline class="cls-3" points="912.81 119.18 904.72 124.69 915.01 131.28 922.2 126.38"/><polyline class="cls-3" points="919.52 118.04 924.64 114.55 929.74 117.81 926.2 120.23"/><polyline class="cls-3" points="913.38 122.22 909.86 124.62 914.96 127.89 919.97 124.47"/><polyline class="cls-3" points="904.72 127.68 915.01 134.28 922.69 129.04"/><line class="cls-3" x1="934.89" y1="120.73" x2="927.57" y2="125.72"/><polyline class="cls-3" points="904.72 130.68 915.01 137.27 922.45 132.2"/><line class="cls-3" x1="934.89" y1="123.73" x2="927.57" y2="128.71"/><polyline class="cls-3" points="904.72 133.67 915.01 140.26 923.11 134.74"/><line class="cls-3" x1="934.89" y1="126.72" x2="927.57" y2="131.7"/><path class="cls-3" d="M912.94,119.29l10.17,6.5v9.07a.5.5,0,0,0,.79.4l3-2.1a.49.49,0,0,0,.21-.4v-9.4l-10.9-7a.71.71,0,0,0-.79,0l-2.47,1.72A.71.71,0,0,0,912.94,119.29Z"/></g><g id="_13-10" data-name="13"><path class="cls-2" d="M431.47,224a.75.75,0,1,1-1.5,0,.75.75,0,0,1,1.5,0Z"/><path class="cls-2" d="M421.66,230.48a.75.75,0,0,1-1.5,0,.75.75,0,1,1,1.5,0Z"/><polyline class="cls-3" points="422.88 222.41 430.6 217.15 440.89 223.74 432.86 229.21"/><polyline class="cls-3" points="418.81 225.18 410.72 230.69 421.01 237.28 428.2 232.38"/><polyline class="cls-3" points="425.52 224.04 430.64 220.55 435.74 223.81 432.2 226.23"/><polyline class="cls-3" points="419.38 228.22 415.86 230.62 420.96 233.88 425.97 230.47"/><polyline class="cls-3" points="410.72 233.68 421.01 240.28 428.69 235.04"/><line class="cls-3" x1="440.89" y1="226.73" x2="433.57" y2="231.72"/><polyline class="cls-3" points="410.72 236.68 421.01 243.27 428.45 238.2"/><line class="cls-3" x1="440.89" y1="229.73" x2="433.57" y2="234.71"/><polyline class="cls-3" points="410.72 239.67 421.01 246.26 429.11 240.74"/><line class="cls-3" x1="440.89" y1="232.72" x2="433.57" y2="237.7"/><path class="cls-3" d="M418.94,225.29l10.17,6.5v9.07a.5.5,0,0,0,.79.4l3-2.1a.49.49,0,0,0,.21-.4v-9.4l-10.9-7a.71.71,0,0,0-.79,0l-2.47,1.72A.71.71,0,0,0,418.94,225.29Z"/></g><g id="_13-11" data-name="13"><path class="cls-2" d="M205.47,194a.75.75,0,0,1-1.5,0,.75.75,0,0,1,1.5,0Z"/><path class="cls-2" d="M195.66,200.48a.75.75,0,0,1-1.5,0,.75.75,0,0,1,1.5,0Z"/><polyline class="cls-3" points="196.88 192.41 204.59 187.15 214.89 193.74 206.85 199.21"/><polyline class="cls-3" points="192.81 195.18 184.72 200.69 195.01 207.28 202.2 202.38"/><polyline class="cls-3" points="199.52 194.04 204.64 190.55 209.74 193.81 206.2 196.23"/><polyline class="cls-3" points="193.38 198.22 189.86 200.62 194.96 203.88 199.97 200.47"/><polyline class="cls-3" points="184.72 203.68 195.01 210.28 202.69 205.04"/><line class="cls-3" x1="214.89" y1="196.73" x2="207.57" y2="201.72"/><polyline class="cls-3" points="184.72 206.68 195.01 213.27 202.45 208.2"/><line class="cls-3" x1="214.89" y1="199.73" x2="207.57" y2="204.71"/><polyline class="cls-3" points="184.72 209.67 195.01 216.26 203.11 210.74"/><line class="cls-3" x1="214.89" y1="202.72" x2="207.57" y2="207.7"/><path class="cls-3" d="M192.94,195.29l10.17,6.5v9.07a.5.5,0,0,0,.79.4l3-2.1a.49.49,0,0,0,.21-.4v-9.4l-10.9-7a.71.71,0,0,0-.79,0l-2.47,1.72A.71.71,0,0,0,192.94,195.29Z"/></g><g id="_13-12" data-name="13"><path class="cls-2" d="M355.11,140.29a.75.75,0,1,1-.75-.75A.75.75,0,0,1,355.11,140.29Z"/><path class="cls-2" d="M345.3,146.8a.75.75,0,1,1-.75-.75A.75.75,0,0,1,345.3,146.8Z"/><polyline class="cls-3" points="346.52 138.73 354.23 133.47 364.52 140.06 356.49 145.53"/><polyline class="cls-3" points="342.45 141.5 334.36 147.02 344.65 153.61 351.84 148.71"/><polyline class="cls-3" points="349.16 140.37 354.28 136.87 359.38 140.14 355.84 142.55"/><polyline class="cls-3" points="343.02 144.54 339.5 146.94 344.6 150.21 349.61 146.8"/><polyline class="cls-3" points="334.36 150.01 344.65 156.6 352.33 151.37"/><line class="cls-3" x1="364.53" y1="143.06" x2="357.21" y2="148.04"/><polyline class="cls-3" points="334.36 153 344.65 159.59 352.09 154.52"/><line class="cls-3" x1="364.53" y1="146.05" x2="357.21" y2="151.03"/><polyline class="cls-3" points="334.36 155.99 344.65 162.59 352.75 157.06"/><line class="cls-3" x1="364.53" y1="149.04" x2="357.21" y2="154.02"/><path class="cls-3" d="M342.58,141.61l10.17,6.51v9.06a.5.5,0,0,0,.79.41l3-2.1a.52.52,0,0,0,.21-.41v-9.4l-10.9-7a.71.71,0,0,0-.79,0l-2.47,1.71A.71.71,0,0,0,342.58,141.61Z"/></g><g id="_13-13" data-name="13"><path class="cls-2" d="M281.47,283a.75.75,0,1,1-1.5,0,.75.75,0,0,1,1.5,0Z"/><path class="cls-2" d="M271.66,289.48a.75.75,0,0,1-1.5,0,.75.75,0,0,1,1.5,0Z"/><polyline class="cls-3" points="272.88 281.41 280.6 276.15 290.89 282.74 282.86 288.21"/><polyline class="cls-3" points="268.81 284.18 260.72 289.69 271.01 296.28 278.2 291.38"/><polyline class="cls-3" points="275.52 283.04 280.64 279.55 285.74 282.81 282.2 285.23"/><polyline class="cls-3" points="269.38 287.22 265.86 289.62 270.96 292.88 275.97 289.48"/><polyline class="cls-3" points="260.72 292.68 271.01 299.28 278.69 294.04"/><line class="cls-3" x1="290.89" y1="285.73" x2="283.57" y2="290.72"/><polyline class="cls-3" points="260.72 295.68 271.01 302.27 278.45 297.2"/><line class="cls-3" x1="290.89" y1="288.73" x2="283.57" y2="293.71"/><polyline class="cls-3" points="260.72 298.67 271.01 305.26 279.11 299.74"/><line class="cls-3" x1="290.89" y1="291.72" x2="283.57" y2="296.7"/><path class="cls-3" d="M268.94,284.29l10.17,6.5v9.07a.5.5,0,0,0,.79.4l3-2.1a.49.49,0,0,0,.21-.4v-9.4l-10.9-7a.71.71,0,0,0-.79,0l-2.47,1.72A.71.71,0,0,0,268.94,284.29Z"/></g><g id="_13-14" data-name="13"><path class="cls-2" d="M46.47,273a.75.75,0,0,1-1.5,0,.75.75,0,0,1,1.5,0Z"/><path class="cls-2" d="M36.66,279.48a.75.75,0,0,1-1.5,0,.75.75,0,0,1,1.5,0Z"/><polyline class="cls-3" points="37.88 271.41 45.59 266.15 55.89 272.74 47.85 278.21"/><polyline class="cls-3" points="33.81 274.18 25.72 279.69 36.01 286.28 43.2 281.38"/><polyline class="cls-3" points="40.52 273.04 45.64 269.55 50.74 272.81 47.2 275.23"/><polyline class="cls-3" points="34.38 277.22 30.86 279.62 35.96 282.88 40.97 279.48"/><polyline class="cls-3" points="25.72 282.68 36.01 289.28 43.69 284.04"/><line class="cls-3" x1="55.89" y1="275.73" x2="48.57" y2="280.72"/><polyline class="cls-3" points="25.72 285.68 36.01 292.27 43.45 287.2"/><line class="cls-3" x1="55.89" y1="278.73" x2="48.57" y2="283.71"/><polyline class="cls-3" points="25.72 288.67 36.01 295.26 44.11 289.74"/><line class="cls-3" x1="55.89" y1="281.72" x2="48.57" y2="286.7"/><path class="cls-3" d="M33.94,274.29l10.17,6.5v9.07a.5.5,0,0,0,.79.4l3-2.1a.49.49,0,0,0,.21-.4v-9.4l-10.9-7a.71.71,0,0,0-.79,0l-2.47,1.72A.71.71,0,0,0,33.94,274.29Z"/></g><g id="_13-15" data-name="13"><path class="cls-2" d="M1397.75,52.08a.75.75,0,1,1-.74-.75A.75.75,0,0,1,1397.75,52.08Z"/><path class="cls-2" d="M1388,58.59a.75.75,0,1,1-.75-.75A.76.76,0,0,1,1388,58.59Z"/><polyline class="cls-3" points="1389.16 50.52 1396.88 45.27 1407.17 51.85 1399.13 57.33"/><polyline class="cls-3" points="1385.09 53.3 1377 58.81 1387.29 65.4 1394.48 60.5"/><polyline class="cls-3" points="1391.8 52.16 1396.92 48.66 1402.02 51.93 1398.48 54.34"/><polyline class="cls-3" points="1385.66 56.34 1382.14 58.74 1387.24 62 1392.25 58.59"/><polyline class="cls-3" points="1377 61.8 1387.29 68.39 1394.97 63.16"/><line class="cls-3" x1="1407.17" y1="54.85" x2="1399.85" y2="59.83"/><polyline class="cls-3" points="1377 64.79 1387.29 71.38 1394.73 66.31"/><line class="cls-3" x1="1407.17" y1="57.84" x2="1399.85" y2="62.82"/><polyline class="cls-3" points="1377 67.78 1387.29 74.38 1395.39 68.86"/><line class="cls-3" x1="1407.17" y1="60.83" x2="1399.85" y2="65.82"/><path class="cls-3" d="M1385.22,53.4l10.17,6.51V69a.5.5,0,0,0,.79.41l3-2.1a.51.51,0,0,0,.21-.41v-9.4l-10.9-7a.73.73,0,0,0-.79,0l-2.47,1.71A.71.71,0,0,0,1385.22,53.4Z"/></g><g id="_13-16" data-name="13"><path class="cls-2" d="M1852.75,109.08a.75.75,0,1,1-.74-.75A.75.75,0,0,1,1852.75,109.08Z"/><path class="cls-2" d="M1843,115.59a.75.75,0,1,1-.75-.75A.76.76,0,0,1,1843,115.59Z"/><polyline class="cls-3" points="1844.16 107.52 1851.88 102.27 1862.17 108.86 1854.13 114.33"/><polyline class="cls-3" points="1840.09 110.3 1832 115.81 1842.29 122.4 1849.48 117.5"/><polyline class="cls-3" points="1846.8 109.16 1851.92 105.66 1857.02 108.93 1853.48 111.34"/><polyline class="cls-3" points="1840.66 113.34 1837.14 115.74 1842.24 119 1847.25 115.59"/><polyline class="cls-3" points="1832 118.8 1842.29 125.39 1849.97 120.16"/><line class="cls-3" x1="1862.17" y1="111.85" x2="1854.85" y2="116.83"/><polyline class="cls-3" points="1832 121.79 1842.29 128.38 1849.73 123.31"/><line class="cls-3" x1="1862.17" y1="114.84" x2="1854.85" y2="119.82"/><polyline class="cls-3" points="1832 124.78 1842.29 131.38 1850.39 125.86"/><line class="cls-3" x1="1862.17" y1="117.83" x2="1854.85" y2="122.82"/><path class="cls-3" d="M1840.22,110.4l10.17,6.51V126a.5.5,0,0,0,.79.41l3-2.1a.51.51,0,0,0,.21-.41v-9.4l-10.9-7a.73.73,0,0,0-.79,0l-2.47,1.71A.71.71,0,0,0,1840.22,110.4Z"/></g><g id="_13-17" data-name="13"><path class="cls-2" d="M1696.75,50.08a.75.75,0,1,1-.74-.75A.75.75,0,0,1,1696.75,50.08Z"/><path class="cls-2" d="M1687,56.59a.75.75,0,1,1-.75-.75A.76.76,0,0,1,1687,56.59Z"/><polyline class="cls-3" points="1688.16 48.52 1695.88 43.27 1706.17 49.85 1698.13 55.33"/><polyline class="cls-3" points="1684.09 51.3 1676 56.81 1686.29 63.4 1693.48 58.5"/><polyline class="cls-3" points="1690.8 50.16 1695.92 46.66 1701.02 49.93 1697.48 52.34"/><polyline class="cls-3" points="1684.66 54.34 1681.14 56.74 1686.24 60 1691.25 56.59"/><polyline class="cls-3" points="1676 59.8 1686.29 66.39 1693.97 61.16"/><line class="cls-3" x1="1706.17" y1="52.85" x2="1698.85" y2="57.83"/><polyline class="cls-3" points="1676 62.79 1686.29 69.38 1693.73 64.31"/><line class="cls-3" x1="1706.17" y1="55.84" x2="1698.85" y2="60.82"/><polyline class="cls-3" points="1676 65.78 1686.29 72.38 1694.39 66.86"/><line class="cls-3" x1="1706.17" y1="58.83" x2="1698.85" y2="63.82"/><path class="cls-3" d="M1684.22,51.4l10.17,6.51V67a.5.5,0,0,0,.79.41l3-2.1a.51.51,0,0,0,.21-.41v-9.4l-10.9-7a.73.73,0,0,0-.79,0l-2.47,1.71A.71.71,0,0,0,1684.22,51.4Z"/></g><g id="_13-18" data-name="13"><path class="cls-2" d="M1861.75,177.08a.75.75,0,1,1-.74-.75A.75.75,0,0,1,1861.75,177.08Z"/><path class="cls-2" d="M1852,183.59a.75.75,0,1,1-.75-.75A.76.76,0,0,1,1852,183.59Z"/><polyline class="cls-3" points="1853.16 175.52 1860.88 170.27 1871.17 176.85 1863.13 182.33"/><polyline class="cls-3" points="1849.09 178.3 1841 183.81 1851.29 190.4 1858.48 185.5"/><polyline class="cls-3" points="1855.8 177.16 1860.92 173.66 1866.02 176.93 1862.48 179.34"/><polyline class="cls-3" points="1849.66 181.34 1846.14 183.74 1851.24 187 1856.25 183.59"/><polyline class="cls-3" points="1841 186.8 1851.29 193.39 1858.97 188.16"/><line class="cls-3" x1="1871.17" y1="179.85" x2="1863.85" y2="184.83"/><polyline class="cls-3" points="1841 189.79 1851.29 196.38 1858.73 191.31"/><line class="cls-3" x1="1871.17" y1="182.84" x2="1863.85" y2="187.82"/><polyline class="cls-3" points="1841 192.78 1851.29 199.38 1859.39 193.86"/><line class="cls-3" x1="1871.17" y1="185.83" x2="1863.85" y2="190.82"/><path class="cls-3" d="M1849.22,178.4l10.17,6.51V194a.5.5,0,0,0,.79.41l3-2.1a.51.51,0,0,0,.21-.41v-9.4l-10.9-7a.73.73,0,0,0-.79,0l-2.47,1.71A.71.71,0,0,0,1849.22,178.4Z"/></g><g id="_13-19" data-name="13"><path class="cls-2" d="M1705.75,238.08a.75.75,0,1,1-.74-.75A.75.75,0,0,1,1705.75,238.08Z"/><path class="cls-2" d="M1696,244.59a.75.75,0,1,1-.75-.75A.76.76,0,0,1,1696,244.59Z"/><polyline class="cls-3" points="1697.16 236.52 1704.88 231.27 1715.17 237.85 1707.13 243.33"/><polyline class="cls-3" points="1693.09 239.3 1685 244.81 1695.29 251.4 1702.48 246.5"/><polyline class="cls-3" points="1699.8 238.16 1704.92 234.66 1710.02 237.93 1706.48 240.34"/><polyline class="cls-3" points="1693.66 242.34 1690.14 244.74 1695.24 248 1700.25 244.59"/><polyline class="cls-3" points="1685 247.8 1695.29 254.39 1702.97 249.16"/><line class="cls-3" x1="1715.17" y1="240.85" x2="1707.85" y2="245.83"/><polyline class="cls-3" points="1685 250.79 1695.29 257.38 1702.73 252.31"/><line class="cls-3" x1="1715.17" y1="243.84" x2="1707.85" y2="248.82"/><polyline class="cls-3" points="1685 253.78 1695.29 260.38 1703.39 254.86"/><line class="cls-3" x1="1715.17" y1="246.83" x2="1707.85" y2="251.82"/><path class="cls-3" d="M1693.22,239.4l10.17,6.51V255a.5.5,0,0,0,.79.41l3-2.1a.51.51,0,0,0,.21-.41v-9.4l-10.9-7a.73.73,0,0,0-.79,0l-2.47,1.71A.71.71,0,0,0,1693.22,239.4Z"/></g><g id="_13-20" data-name="13"><path class="cls-2" d="M1403.75,217.08a.75.75,0,1,1-.74-.75A.75.75,0,0,1,1403.75,217.08Z"/><path class="cls-2" d="M1394,223.59a.75.75,0,1,1-.75-.75A.76.76,0,0,1,1394,223.59Z"/><polyline class="cls-3" points="1395.16 215.52 1402.88 210.27 1413.17 216.85 1405.13 222.33"/><polyline class="cls-3" points="1391.09 218.3 1383 223.81 1393.29 230.4 1400.48 225.5"/><polyline class="cls-3" points="1397.8 217.16 1402.92 213.66 1408.02 216.93 1404.48 219.34"/><polyline class="cls-3" points="1391.66 221.34 1388.14 223.74 1393.24 227 1398.25 223.59"/><polyline class="cls-3" points="1383 226.8 1393.29 233.39 1400.97 228.16"/><line class="cls-3" x1="1413.17" y1="219.85" x2="1405.85" y2="224.83"/><polyline class="cls-3" points="1383 229.79 1393.29 236.38 1400.73 231.31"/><line class="cls-3" x1="1413.17" y1="222.84" x2="1405.85" y2="227.82"/><polyline class="cls-3" points="1383 232.78 1393.29 239.38 1401.39 233.86"/><line class="cls-3" x1="1413.17" y1="225.83" x2="1405.85" y2="230.82"/><path class="cls-3" d="M1391.22,218.4l10.17,6.51V234a.5.5,0,0,0,.79.41l3-2.1a.51.51,0,0,0,.21-.41v-9.4l-10.9-7a.73.73,0,0,0-.79,0l-2.47,1.71A.71.71,0,0,0,1391.22,218.4Z"/></g><g id="_13-21" data-name="13"><path class="cls-2" d="M1483.75,128.08a.75.75,0,1,1-.74-.75A.75.75,0,0,1,1483.75,128.08Z"/><path class="cls-2" d="M1474,134.59a.75.75,0,1,1-.75-.75A.76.76,0,0,1,1474,134.59Z"/><polyline class="cls-3" points="1475.16 126.52 1482.88 121.27 1493.17 127.86 1485.13 133.33"/><polyline class="cls-3" points="1471.09 129.3 1463 134.81 1473.29 141.4 1480.48 136.5"/><polyline class="cls-3" points="1477.8 128.16 1482.92 124.66 1488.02 127.93 1484.48 130.34"/><polyline class="cls-3" points="1471.66 132.34 1468.14 134.74 1473.24 138 1478.25 134.59"/><polyline class="cls-3" points="1463 137.8 1473.29 144.39 1480.97 139.16"/><line class="cls-3" x1="1493.17" y1="130.85" x2="1485.85" y2="135.83"/><polyline class="cls-3" points="1463 140.79 1473.29 147.38 1480.73 142.31"/><line class="cls-3" x1="1493.17" y1="133.84" x2="1485.85" y2="138.82"/><polyline class="cls-3" points="1463 143.78 1473.29 150.38 1481.39 144.86"/><line class="cls-3" x1="1493.17" y1="136.83" x2="1485.85" y2="141.82"/><path class="cls-3" d="M1471.22,129.4l10.17,6.51V145a.5.5,0,0,0,.79.41l3-2.1a.51.51,0,0,0,.21-.41v-9.4l-10.9-7a.73.73,0,0,0-.79,0l-2.47,1.71A.71.71,0,0,0,1471.22,129.4Z"/></g><g id="_13-22" data-name="13"><path class="cls-2" d="M1545.75,233.08a.75.75,0,1,1-.74-.75A.75.75,0,0,1,1545.75,233.08Z"/><path class="cls-2" d="M1536,239.59a.75.75,0,1,1-.75-.75A.76.76,0,0,1,1536,239.59Z"/><polyline class="cls-3" points="1537.16 231.52 1544.88 226.27 1555.17 232.85 1547.13 238.33"/><polyline class="cls-3" points="1533.09 234.3 1525 239.81 1535.29 246.4 1542.48 241.5"/><polyline class="cls-3" points="1539.8 233.16 1544.92 229.66 1550.02 232.93 1546.48 235.34"/><polyline class="cls-3" points="1533.66 237.34 1530.14 239.74 1535.24 243 1540.25 239.59"/><polyline class="cls-3" points="1525 242.8 1535.29 249.39 1542.97 244.16"/><line class="cls-3" x1="1555.17" y1="235.85" x2="1547.85" y2="240.83"/><polyline class="cls-3" points="1525 245.79 1535.29 252.38 1542.73 247.31"/><line class="cls-3" x1="1555.17" y1="238.84" x2="1547.85" y2="243.82"/><polyline class="cls-3" points="1525 248.78 1535.29 255.38 1543.39 249.86"/><line class="cls-3" x1="1555.17" y1="241.83" x2="1547.85" y2="246.82"/><path class="cls-3" d="M1533.22,234.4l10.17,6.51V250a.5.5,0,0,0,.79.41l3-2.1a.51.51,0,0,0,.21-.41v-9.4l-10.9-7a.73.73,0,0,0-.79,0l-2.47,1.71A.71.71,0,0,0,1533.22,234.4Z"/></g><g id="_13-23" data-name="13"><path class="cls-2" d="M612.75,56.08a.75.75,0,1,1-.74-.75A.75.75,0,0,1,612.75,56.08Z"/><path class="cls-2" d="M603,62.59a.75.75,0,1,1-.75-.75A.76.76,0,0,1,603,62.59Z"/><polyline class="cls-3" points="604.16 54.52 611.88 49.27 622.17 55.85 614.13 61.33"/><polyline class="cls-3" points="600.09 57.3 592 62.81 602.29 69.4 609.48 64.5"/><polyline class="cls-3" points="606.8 56.16 611.92 52.66 617.02 55.93 613.48 58.34"/><polyline class="cls-3" points="600.66 60.34 597.14 62.74 602.25 66 607.25 62.59"/><polyline class="cls-3" points="592 65.8 602.29 72.39 609.97 67.16"/><line class="cls-3" x1="622.17" y1="58.85" x2="614.85" y2="63.83"/><polyline class="cls-3" points="592 68.79 602.29 75.38 609.73 70.31"/><line class="cls-3" x1="622.17" y1="61.84" x2="614.85" y2="66.82"/><polyline class="cls-3" points="592 71.78 602.29 78.38 610.39 72.86"/><line class="cls-3" x1="622.17" y1="64.83" x2="614.85" y2="69.82"/><path class="cls-3" d="M600.22,57.4l10.17,6.51V73a.5.5,0,0,0,.79.41l3-2.1a.51.51,0,0,0,.21-.41v-9.4l-10.9-7a.73.73,0,0,0-.79,0l-2.47,1.71A.71.71,0,0,0,600.22,57.4Z"/></g><g id="_13-24" data-name="13"><path class="cls-2" d="M316.75,45.08a.75.75,0,1,1-.74-.75A.75.75,0,0,1,316.75,45.08Z"/><path class="cls-2" d="M307,51.59a.75.75,0,1,1-.75-.75A.76.76,0,0,1,307,51.59Z"/><polyline class="cls-3" points="308.17 43.52 315.88 38.27 326.17 44.85 318.13 50.33"/><polyline class="cls-3" points="304.09 46.3 296 51.81 306.29 58.4 313.48 53.5"/><polyline class="cls-3" points="310.8 45.16 315.92 41.66 321.02 44.93 317.48 47.34"/><polyline class="cls-3" points="304.66 49.34 301.14 51.74 306.25 55 311.25 51.59"/><polyline class="cls-3" points="296 54.8 306.29 61.39 313.97 56.16"/><line class="cls-3" x1="326.17" y1="47.85" x2="318.85" y2="52.83"/><polyline class="cls-3" points="296 57.79 306.29 64.38 313.73 59.31"/><line class="cls-3" x1="326.17" y1="50.84" x2="318.85" y2="55.82"/><polyline class="cls-3" points="296 60.78 306.29 67.38 314.39 61.86"/><line class="cls-3" x1="326.17" y1="53.83" x2="318.85" y2="58.82"/><path class="cls-3" d="M304.22,46.4l10.17,6.51V62a.5.5,0,0,0,.79.41l3-2.1a.51.51,0,0,0,.21-.41v-9.4l-10.9-7a.73.73,0,0,0-.79,0l-2.47,1.71A.71.71,0,0,0,304.22,46.4Z"/></g><g id="_13-25" data-name="13"><path class="cls-2" d="M96.75,47.08a.75.75,0,1,1-.74-.75A.75.75,0,0,1,96.75,47.08Z"/><path class="cls-2" d="M87,53.59a.75.75,0,1,1-.75-.75A.76.76,0,0,1,87,53.59Z"/><polyline class="cls-3" points="88.17 45.52 95.88 40.27 106.17 46.85 98.14 52.33"/><polyline class="cls-3" points="84.09 48.3 76 53.81 86.29 60.4 93.48 55.5"/><polyline class="cls-3" points="90.8 47.16 95.92 43.66 101.02 46.93 97.48 49.34"/><polyline class="cls-3" points="84.66 51.34 81.14 53.74 86.25 57 91.25 53.59"/><polyline class="cls-3" points="76 56.8 86.29 63.39 93.97 58.16"/><line class="cls-3" x1="106.17" y1="49.85" x2="98.85" y2="54.83"/><polyline class="cls-3" points="76 59.79 86.29 66.38 93.73 61.31"/><line class="cls-3" x1="106.17" y1="52.84" x2="98.85" y2="57.82"/><polyline class="cls-3" points="76 62.78 86.29 69.38 94.39 63.86"/><line class="cls-3" x1="106.17" y1="55.83" x2="98.85" y2="60.82"/><path class="cls-3" d="M84.22,48.4l10.17,6.51V64a.5.5,0,0,0,.79.41l3-2.1a.51.51,0,0,0,.21-.41v-9.4l-10.9-7a.73.73,0,0,0-.79,0L84.2,47.22A.71.71,0,0,0,84.22,48.4Z"/></g><g id="_13-26" data-name="13"><path class="cls-2" d="M1083.75,297.08a.75.75,0,1,1-.74-.75A.75.75,0,0,1,1083.75,297.08Z"/><path class="cls-2" d="M1074,303.59a.75.75,0,1,1-.75-.75A.76.76,0,0,1,1074,303.59Z"/><polyline class="cls-3" points="1075.16 295.52 1082.88 290.27 1093.17 296.86 1085.13 302.33"/><polyline class="cls-3" points="1071.09 298.3 1063 303.81 1073.29 310.4 1080.48 305.5"/><polyline class="cls-3" points="1077.8 297.16 1082.92 293.66 1088.02 296.93 1084.48 299.34"/><polyline class="cls-3" points="1071.66 301.34 1068.14 303.74 1073.24 307 1078.25 303.59"/><polyline class="cls-3" points="1063 306.8 1073.29 313.39 1080.97 308.16"/><line class="cls-3" x1="1093.17" y1="299.85" x2="1085.85" y2="304.83"/><polyline class="cls-3" points="1063 309.79 1073.29 316.38 1080.73 311.31"/><line class="cls-3" x1="1093.17" y1="302.84" x2="1085.85" y2="307.82"/><polyline class="cls-3" points="1063 312.78 1073.29 319.38 1081.39 313.86"/><line class="cls-3" x1="1093.17" y1="305.83" x2="1085.85" y2="310.82"/><path class="cls-3" d="M1071.22,298.4l10.17,6.51V314a.5.5,0,0,0,.79.41l3-2.1a.51.51,0,0,0,.21-.41v-9.4l-10.9-7a.73.73,0,0,0-.79,0l-2.47,1.71A.71.71,0,0,0,1071.22,298.4Z"/></g><g id="_13-27" data-name="13"><path class="cls-2" d="M1137.75,96.08a.75.75,0,1,1-.74-.75A.75.75,0,0,1,1137.75,96.08Z"/><path class="cls-2" d="M1128,102.59a.75.75,0,1,1-.75-.75A.76.76,0,0,1,1128,102.59Z"/><polyline class="cls-3" points="1129.16 94.52 1136.88 89.27 1147.17 95.86 1139.13 101.33"/><polyline class="cls-3" points="1125.09 97.3 1117 102.81 1127.29 109.4 1134.48 104.5"/><polyline class="cls-3" points="1131.8 96.16 1136.92 92.66 1142.02 95.93 1138.48 98.34"/><polyline class="cls-3" points="1125.66 100.34 1122.14 102.74 1127.24 106 1132.25 102.59"/><polyline class="cls-3" points="1117 105.8 1127.29 112.39 1134.97 107.16"/><line class="cls-3" x1="1147.17" y1="98.85" x2="1139.85" y2="103.83"/><polyline class="cls-3" points="1117 108.79 1127.29 115.38 1134.73 110.31"/><line class="cls-3" x1="1147.17" y1="101.84" x2="1139.85" y2="106.82"/><polyline class="cls-3" points="1117 111.78 1127.29 118.38 1135.39 112.86"/><line class="cls-3" x1="1147.17" y1="104.83" x2="1139.85" y2="109.82"/><path class="cls-3" d="M1125.22,97.4l10.17,6.51V113a.5.5,0,0,0,.79.41l3-2.1a.51.51,0,0,0,.21-.41v-9.4l-10.9-7a.73.73,0,0,0-.79,0l-2.47,1.71A.71.71,0,0,0,1125.22,97.4Z"/></g><path class="cls-4" d="M763.34,284h-.85v-2.56a.85.85,0,0,0-.85-.85H737.78a.85.85,0,0,0-.85.85V284h-.86a.85.85,0,0,0-.85.85V290a.85.85,0,0,0,.85.85h27.27a.85.85,0,0,0,.85-.85v-5.11A.85.85,0,0,0,763.34,284Zm-24.71-1.71h22.15V284H738.63Zm23.86,6.82H736.93v-3.41h25.56Z"/><path class="cls-4" d="M761.38,297.62h-.6v-4.26a.85.85,0,0,0-1.7,0v4.26H740.34v-4.26a.86.86,0,0,0-.86-.85.85.85,0,0,0-.85.85v4.26H738a2.56,2.56,0,0,0-2.53,2.92L737,310.76a2.59,2.59,0,0,0,1.66,2v6.12a.85.85,0,0,0,.85.85h20.45a.85.85,0,0,0,.85-.85V312.8a2.58,2.58,0,0,0,1.67-2l1.46-10.22a2.6,2.6,0,0,0-.6-2A2.56,2.56,0,0,0,761.38,297.62Zm-21,20.45V313h18.74v5.11Zm21.88-17.77-1.46,10.22a.85.85,0,0,1-.85.73H739.5a.85.85,0,0,1-.84-.73L737.2,300.3a.81.81,0,0,1,.2-.68.83.83,0,0,1,.64-.3h23.34a.85.85,0,0,1,.64.3A.88.88,0,0,1,762.22,300.3Z"/><path class="cls-4" d="M749.71,301a4.26,4.26,0,1,0,4.26,4.26A4.26,4.26,0,0,0,749.71,301Zm0,6.81a2.56,2.56,0,1,1,2.55-2.55A2.56,2.56,0,0,1,749.71,307.84Z"/><path class="cls-4" d="M707.71,11.4a.65.65,0,0,0-.31-.08c-.35,0-.46.19-.68.57l-1.14,2a11,11,0,0,0-14.52,4.33,11,11,0,0,0,3.51,14.74l-.71,1.22c-.66,1.16-.66,1.16-.66,1.32a.61.61,0,0,0,.31.54A14.14,14.14,0,0,0,700,37.89v2H691.9a.61.61,0,0,0-.61.62v3.81a.61.61,0,0,0,.61.62h17a.62.62,0,0,0,.62-.62V40.46a.62.62,0,0,0-.62-.62h-7.65v-2a14.2,14.2,0,0,0,6.49-26.49Zm.55,32.25H692.52V41.07h15.74Zm-7.64-29.74a9.79,9.79,0,0,1,8.76,14.15l-16.93-9.78A9.85,9.85,0,0,1,700.62,13.91Zm-8.78,5.44,16.93,9.78a9.8,9.8,0,0,1-16.93-9.78Zm20,10.84a13,13,0,0,1-17.19,5.05l1-1.69a11,11,0,0,0,14.52-4.33,11,11,0,0,0-3.51-14.74l1-1.69A13,13,0,0,1,711.85,30.19Z"/><polygon class="cls-5" points="1236.18 211.31 1257.59 217.32 1279 211.31 1257.59 205.31 1236.18 211.31"/><path class="cls-5" d="M1257.59,219.2a1.18,1.18,0,0,1-.25,0l-13.59-3.81v6.37a26.94,26.94,0,0,0,27.69,0v-6.37l-13.6,3.81A1,1,0,0,1,1257.59,219.2Z"/><path class="cls-4" d="M1282.66,210.43l-24.82-7a.85.85,0,0,0-.5,0l-24.82,7a.92.92,0,0,0,0,1.77l4.75,1.33v13.78a2.25,2.25,0,0,0,0,4.11V235a.92.92,0,1,0,1.84,0v-3.55a2.25,2.25,0,0,0,0-4.11V214.05l2.8.78v7.41a.91.91,0,0,0,.43.78l1.12.7,1.84.92a28.86,28.86,0,0,0,24.59,0l1.84-.9,1.12-.72a.91.91,0,0,0,.43-.78v-7.41l9.38-2.63a.92.92,0,0,0,0-1.77Zm-11.22,11.29a26.94,26.94,0,0,1-27.69,0v-6.37l13.59,3.81a1.18,1.18,0,0,0,.25,0,1,1,0,0,0,.25,0l13.6-3.81Zm-13.85-4.4-21.41-6,21.41-6,21.41,6Z"/><path class="cls-4" d="M1052.3,6a12.95,12.95,0,0,0-11.47,18.92c.17.33.41.71.68,1.15,1.14,1.87,2.87,4.69,2.87,8.34V35a2.4,2.4,0,0,0,2,2.36v3.29h-.16a.84.84,0,1,0,0,1.68h.16v3a.82.82,0,0,0,.32.65l3,2.4a.84.84,0,0,0,.52.18h4.12a.79.79,0,0,0,.51-.18l3.05-2.4a.82.82,0,0,0,.32-.65v-3h.16a.84.84,0,0,0,0-1.68h-.16V37.37a2.4,2.4,0,0,0,2-2.36V34.4c0-3.65,1.73-6.47,2.87-8.34.27-.44.51-.82.68-1.15A12.95,12.95,0,0,0,1052.3,6Zm4.26,38.92-2.49,2h-3.54l-2.49-2V42.34h8.52ZM1048,40.66V37.41h8.52v3.25Zm14.24-16.53c-.14.28-.36.64-.62,1.05-1.16,1.91-3.12,5.1-3.12,9.22V35a.72.72,0,0,1-.72.72h-11a.73.73,0,0,1-.73-.72V34.4c0-4.12-2-7.31-3.11-9.22-.26-.41-.48-.77-.62-1.05a11.08,11.08,0,0,1-1.28-5.2,11.26,11.26,0,1,1,22.52,0A11.08,11.08,0,0,1,1062.28,24.13Z"/><path class="cls-4" d="M1052.3,11.16a7.78,7.78,0,0,0-7.77,7.77.84.84,0,0,0,1.68,0,6.09,6.09,0,0,1,6.09-6.09.84.84,0,0,0,0-1.68Z"/><path class="cls-4" d="M1070.42,28.42l-3.72-2.15a.85.85,0,0,0-1.15.31.84.84,0,0,0,.31,1.14l3.72,2.15a.81.81,0,0,0,.42.12.84.84,0,0,0,.42-1.57Z"/><path class="cls-4" d="M1072.74,18.09h-4.3a.84.84,0,1,0,0,1.68h4.3a.84.84,0,0,0,0-1.68Z"/><path class="cls-4" d="M1066.28,11.7a.84.84,0,0,0,.42-.12l3.72-2.14a.84.84,0,1,0-.84-1.46l-3.72,2.15a.84.84,0,0,0,.42,1.57Z"/><path class="cls-4" d="M1037,18.93a.85.85,0,0,0-.84-.84h-4.3a.84.84,0,1,0,0,1.68h4.3A.85.85,0,0,0,1037,18.93Z"/><path class="cls-4" d="M1037.9,26.27l-3.72,2.15a.84.84,0,0,0,.42,1.57.81.81,0,0,0,.42-.12l3.72-2.15a.84.84,0,0,0,.31-1.14A.85.85,0,0,0,1037.9,26.27Z"/><path class="cls-4" d="M1038.74,10.13,1035,8a.84.84,0,0,0-.84,1.46l3.72,2.14a.81.81,0,0,0,.42.12.84.84,0,0,0,.42-1.57Z"/><path class="cls-4" d="M554.52,127.44h-1l3.66-16.36a4.66,4.66,0,0,0,1.36-3.3,4.71,4.71,0,0,0-4.7-4.69,4.64,4.64,0,0,0-3.35,1.42l-7.62-5,1.1-1.92A6.54,6.54,0,0,0,532.69,91l-2.39,4.14a11.78,11.78,0,0,0-9.41,5.86.87.87,0,0,0-.09.67.89.89,0,0,0,.41.54l18.84,10.87a.89.89,0,0,0,1.21-.32,11.71,11.71,0,0,0,1.18-8.93,13.32,13.32,0,0,0-.81-2.16L542,101l7.53,5a4.65,4.65,0,0,0-.36,1.79,4.8,4.8,0,0,0,.35,1.79l-4,17.87h-7.23v-1.07a.89.89,0,1,0-1.77,0v1.07h-2.16a4.06,4.06,0,0,0-4.06,4.06v3.73a.89.89,0,0,0,.89.89h26.47a.89.89,0,0,0,.89-.89V131.5A4.06,4.06,0,0,0,554.52,127.44Zm-14.39-16.33-17.23-10a10,10,0,0,1,13.17-2.9,10,10,0,0,1,4.06,12.85ZM537,96.72a11.81,11.81,0,0,0-4.63-1.51l1.9-3.29a4.78,4.78,0,0,1,4.13-2.38,4.71,4.71,0,0,1,2.37.64,4.76,4.76,0,0,1,1.75,6.5l-1.9,3.29A11.77,11.77,0,0,0,537,96.72Zm16.92,8.14a2.92,2.92,0,1,1-2.92,2.92A2.92,2.92,0,0,1,553.88,104.86Zm-2.94,6.58a4.68,4.68,0,0,0,4.19.87l-3.38,15.13h-4.38Zm5.86,22.91H532.1V131.5a2.3,2.3,0,0,1,2.29-2.29h20.13a2.29,2.29,0,0,1,2.28,2.29Z"/><path class="cls-4" d="M1372.86,100.7H1346.6a2.72,2.72,0,0,0-2.72,2.72v15.92a2.72,2.72,0,0,0,2.72,2.72h8.24l-3.55,9.05h-.43a.64.64,0,0,0-.64.64.64.64,0,0,0,.64.64h1.73a.64.64,0,0,0,.07-1.27l3.56-9.06h7l3.56,9.06a.64.64,0,0,0,.07,1.27h1.73a.64.64,0,0,0,.64-.64.64.64,0,0,0-.64-.64h-.43l-3.56-9.05h8.25a2.72,2.72,0,0,0,2.72-2.72V103.42A2.72,2.72,0,0,0,1372.86,100.7Zm1.44,18.64a1.44,1.44,0,0,1-1.44,1.44H1346.6a1.44,1.44,0,0,1-1.44-1.44V103.42a1.44,1.44,0,0,1,1.44-1.44h26.26a1.44,1.44,0,0,1,1.44,1.44Z"/><path class="cls-4" d="M1360.59,131.11h-.22v-6.48a.64.64,0,0,0-1.28,0v6.48h-.22a.64.64,0,1,0,0,1.28h1.72a.64.64,0,0,0,0-1.28Z"/><path class="cls-4" d="M1370.45,105.18h-10.18a.64.64,0,0,0-.64.64.64.64,0,0,0,.64.64h10.18a.64.64,0,1,0,0-1.28Z"/><path class="cls-4" d="M1370.45,108.89h-10.18a.64.64,0,0,0-.64.64.64.64,0,0,0,.64.64h10.18a.64.64,0,1,0,0-1.28Z"/><path class="cls-4" d="M1365.68,112.59h-5.41a.64.64,0,0,0-.64.64.64.64,0,0,0,.64.64h5.41a.64.64,0,1,0,0-1.28Z"/><path class="cls-4" d="M1356.43,105.18H1349a.64.64,0,0,0-.64.64v7.42a.64.64,0,0,0,.64.64h7.43a.64.64,0,0,0,.64-.64v-7.42A.64.64,0,0,0,1356.43,105.18Zm-.64,7.42h-6.15v-6.14h6.15Z"/><path class="cls-4" d="M569.56,217.19l5.46-2.12,5.46,2.12a.8.8,0,0,0,.3.06.82.82,0,0,0,.77-.53.83.83,0,0,0-.47-1.08l-5.76-2.24a.78.78,0,0,0-.6,0L569,215.64a.84.84,0,0,0-.48,1.08A.83.83,0,0,0,569.56,217.19Z"/><path class="cls-4" d="M581.14,244.19H568.89a.83.83,0,1,0,0,1.66h12.25a.83.83,0,1,0,0-1.66Z"/><path class="cls-4" d="M593.53,224a.82.82,0,0,0,.37-.69v-1.9h.85a.83.83,0,0,0,.83-.83V217.4a.82.82,0,0,0-.53-.77l-19.73-7.69a.88.88,0,0,0-.6,0L555,216.63a.82.82,0,0,0-.53.77v3.17a.83.83,0,0,0,.83.83h.85v1.9a.82.82,0,0,0,.37.69l1.08.72v12l-1.08.72a.82.82,0,0,0-.37.69V240h-.85a.83.83,0,0,0-.83.83v8.3a.83.83,0,0,0,.83.83h39.46a.83.83,0,0,0,.83-.83v-8.3a.83.83,0,0,0-.83-.83h-.85v-1.9a.82.82,0,0,0-.37-.69l-1.08-.72v-12Zm-37.41-6,18.9-7.36,18.9,7.36v1.77h-37.8Zm29.15,6,1.09.72v12l-1.09.72a.82.82,0,0,0-.37.69V240h-5.38v-1.9a.82.82,0,0,0-.37-.69l-1.09-.72v-12l1.09-.72a.82.82,0,0,0,.37-.69v-1.9h5.38v1.9A.82.82,0,0,0,585.27,224Zm-20.13,16v-1.9a.82.82,0,0,0-.37-.69l-1.09-.72v-12l1.09-.72a.82.82,0,0,0,.37-.69v-1.9h5.38v1.9a.82.82,0,0,0,.37.69l1.08.72v12l-1.08.72a.82.82,0,0,0-.37.69V240Zm7-1.46,1.08-.72a.8.8,0,0,0,.37-.69v-12.9a.8.8,0,0,0-.37-.69l-1.08-.73V221.4h5.68v1.45l-1.09.73a.82.82,0,0,0-.37.69v12.9a.82.82,0,0,0,.37.69l1.09.72V240h-5.68Zm-14.38,0,1.08-.72a.82.82,0,0,0,.37-.69v-12.9a.82.82,0,0,0-.37-.69l-1.08-.73V221.4h5.67v1.45l-1.08.73a.82.82,0,0,0-.37.69v12.9a.82.82,0,0,0,.37.69l1.08.72V240H557.8Zm36.12,5.61h-4.45a.83.83,0,1,0,0,1.66h4.45v2.49h-37.8v-2.49h4.45a.83.83,0,0,0,0-1.66h-4.45V241.7h37.8ZM586.56,240v-1.46l1.09-.72a.82.82,0,0,0,.37-.69v-12.9a.82.82,0,0,0-.37-.69l-1.09-.73V221.4h5.68v1.45l-1.08.73a.8.8,0,0,0-.37.69v12.9a.8.8,0,0,0,.37.69l1.08.72V240Z"/><path class="cls-4" d="M891.58,21.7a4.26,4.26,0,0,0-1.79-3.49,4.31,4.31,0,0,0-3.49-6.05,4.3,4.3,0,0,0-6-3.49,4.3,4.3,0,0,0-7,0,4.31,4.31,0,0,0-6,3.49,4.31,4.31,0,0,0-3.49,6.05,4.3,4.3,0,0,0,0,7,4.28,4.28,0,0,0,.2,3.92,4.35,4.35,0,0,0,3.29,2.13,4.5,4.5,0,0,0,.28,1.15l-4.11,10.24a.68.68,0,0,0,.09.67.69.69,0,0,0,.63.25l4.26-.59,2.68,3.38a.68.68,0,0,0,.53.26h.1a.66.66,0,0,0,.53-.42l3.9-9.71a4.25,4.25,0,0,0,1.3,0l3.9,9.71a.67.67,0,0,0,.54.42h.09a.68.68,0,0,0,.53-.26L885.15,43l4.26.59h.1a.69.69,0,0,0,.68-.68.65.65,0,0,0-.08-.31L886,32.39a4.5,4.5,0,0,0,.28-1.15,4.35,4.35,0,0,0,3.29-2.13,4.28,4.28,0,0,0,.2-3.92A4.27,4.27,0,0,0,891.58,21.7Zm-20.2,22.88-2.18-2.76a.67.67,0,0,0-.53-.26h-.1l-3.49.49,3.32-8.26a4.94,4.94,0,0,0,1,.74,4.29,4.29,0,0,0,3.92.2,4.35,4.35,0,0,0,1.54,1.32Zm17.06-2.53L885,41.56a.7.7,0,0,0-.63.26l-2.18,2.76-3.43-8.53a4.26,4.26,0,0,0,1.54-1.32,4.29,4.29,0,0,0,3.92-.2,4.94,4.94,0,0,0,1-.74Zm.14-17.71a.69.69,0,0,0-.35.43.67.67,0,0,0,.09.55,3,3,0,0,1,.1,3.11,3,3,0,0,1-2.74,1.47.67.67,0,0,0-.52.2.66.66,0,0,0-.2.52A3,3,0,0,1,882,33.75a3,3,0,0,1-1.64-.49.67.67,0,0,0-.55-.09.71.71,0,0,0-.43.35,2.94,2.94,0,0,1-5.28,0,.71.71,0,0,0-.43-.35.55.55,0,0,0-.18,0,.62.62,0,0,0-.37.11,3,3,0,0,1-1.64.49,3,3,0,0,1-2.94-3.13.69.69,0,0,0-.72-.72,3,3,0,0,1-2.73-1.47,2.93,2.93,0,0,1,.09-3.11.67.67,0,0,0,.09-.55.69.69,0,0,0-.35-.43,2.94,2.94,0,0,1,0-5.28.7.7,0,0,0,.35-.44.68.68,0,0,0-.09-.55,2.94,2.94,0,0,1-.1-3.1,3,3,0,0,1,2.74-1.47.66.66,0,0,0,.52-.2.68.68,0,0,0,.2-.52,2.94,2.94,0,0,1,2.94-3.13,3,3,0,0,1,1.64.49.71.71,0,0,0,.55.09.7.7,0,0,0,.43-.36,3,3,0,0,1,5.28,0,.7.7,0,0,0,.43.36.71.71,0,0,0,.55-.09A3,3,0,0,1,882,9.65,2.94,2.94,0,0,1,885,12.78a.68.68,0,0,0,.2.52.67.67,0,0,0,.52.2A3,3,0,0,1,888.42,15a2.94,2.94,0,0,1-.1,3.1.68.68,0,0,0-.09.55.7.7,0,0,0,.35.44,2.94,2.94,0,0,1,0,5.28Z"/><path class="cls-4" d="M876.76,13a8.67,8.67,0,1,0,8.67,8.67A8.68,8.68,0,0,0,876.76,13Zm0,16a7.32,7.32,0,1,1,7.31-7.31A7.32,7.32,0,0,1,876.76,29Z"/><path class="cls-4" d="M1007.56,305.2,1003,284.79a.63.63,0,0,0-.61-.49,12.76,12.76,0,0,1-5.13-1,10,10,0,0,0-3.87-.87,5.64,5.64,0,0,1-7.87,0,9.93,9.93,0,0,0-3.86.87,12.78,12.78,0,0,1-5.14,1,.61.61,0,0,0-.6.49l-4.57,20.41a.62.62,0,0,0,.06.42l1.83,3.57a.62.62,0,0,0,.55.34h12.59a3.84,3.84,0,0,0,6.16,0h12.58a.63.63,0,0,0,.56-.34l1.83-3.57A.61.61,0,0,0,1007.56,305.2ZM977,285.54a14,14,0,0,0,5.08-1.12,8.94,8.94,0,0,1,3.42-.78,4.38,4.38,0,0,1,3.45,1.67.64.64,0,0,0,1,0,4.36,4.36,0,0,1,3.44-1.67,8.85,8.85,0,0,1,3.42.78,14.15,14.15,0,0,0,5.08,1.12l4.29,19.16a17.78,17.78,0,0,1-6.25-1.41,13.51,13.51,0,0,0-5.15-1.16,7.38,7.38,0,0,0-5.32,2.26,7.4,7.4,0,0,0-5.33-2.26,13.42,13.42,0,0,0-5.14,1.16,17.78,17.78,0,0,1-6.25,1.41Zm27.72,22.75H992.21a.62.62,0,0,0-.53.29,2.59,2.59,0,0,1-4.44,0,.63.63,0,0,0-.53-.29H974.17l-1.2-2.36a18.72,18.72,0,0,0,6.46-1.48,12.33,12.33,0,0,1,4.7-1.07,6.13,6.13,0,0,1,4.84,2.34.62.62,0,0,0,1,0,6.13,6.13,0,0,1,4.83-2.34,12.34,12.34,0,0,1,4.71,1.07,18.72,18.72,0,0,0,6.46,1.48Z"/><path class="cls-4" d="M989.46,300.94a.62.62,0,0,0,.62-.62V288.67a.63.63,0,0,0-.62-.63.62.62,0,0,0-.62.63v11.65A.62.62,0,0,0,989.46,300.94Z"/><path class="cls-4" d="M1297.51,121.94a18.68,18.68,0,0,0-33.89,0,.68.68,0,0,0,0,.54l3.69,9.69-2.74,2a.67.67,0,0,0-.24.79l3.19,8.87a.69.69,0,0,0,.65.46h0l3.55-.26a3.07,3.07,0,0,0,2.4,1.15h0a3.13,3.13,0,0,0,1-.18,3.09,3.09,0,0,0,1.86-4l-3.73-10.37a3.12,3.12,0,0,0-2.92-2,2.9,2.9,0,0,0-1,.19,3,3,0,0,0-1.48,1.12l-2.9-7.63a17.24,17.24,0,0,1,2.59-3.89c1.91,1.39,3.83,1.5,5.47.29l0,0a13.39,13.39,0,0,1,7.46-2.27h0a13.46,13.46,0,0,1,7.46,2.26l0,0a4,4,0,0,0,2.42.83,5.2,5.2,0,0,0,3-1.12,17.46,17.46,0,0,1,2.59,3.89l-2.9,7.63a3,3,0,0,0-1.48-1.12,2.91,2.91,0,0,0-1-.19,3.11,3.11,0,0,0-2.91,2c-.28.79-3.45,9.58-3.73,10.37a3.1,3.1,0,0,0,1.86,4,3.13,3.13,0,0,0,1,.18,3.07,3.07,0,0,0,2.4-1.15l3.55.26h0a.69.69,0,0,0,.65-.46l3.19-8.87a.67.67,0,0,0-.24-.79l-2.74-2,3.69-9.69A.68.68,0,0,0,1297.51,121.94Zm-31.73,13,2-1.43,0,.06,3.27,9.09-2.46.18Zm3.08-4a1.71,1.71,0,0,1,1-.88,1.69,1.69,0,0,1,.58-.1,1.71,1.71,0,0,1,1.62,1.13l3.74,10.38a1.72,1.72,0,0,1-1,2.2,1.91,1.91,0,0,1-.58.1h0a1.74,1.74,0,0,1-1.62-1.14l-3.73-10.37A1.68,1.68,0,0,1,1268.86,130.94Zm20-13.39-.09-.06a14.82,14.82,0,0,0-8.23-2.49h0a14.82,14.82,0,0,0-8.23,2.49l-.09.06a3,3,0,0,1-3.7-.18,17.26,17.26,0,0,1,24,0A3,3,0,0,1,1288.89,117.55ZM1287,143.77a1.91,1.91,0,0,1-.58-.1,1.73,1.73,0,0,1-1-2.2c.29-.79,3.45-9.59,3.74-10.38a1.72,1.72,0,0,1,3.17-.15,1.68,1.68,0,0,1,.06,1.32l-3.73,10.37A1.74,1.74,0,0,1,1287,143.77Zm5.53-.93-2.46-.18,3.29-9.15,2,1.43Z"/><circle class="cls-6" cx="485.81" cy="33.89" r="5"/><circle class="cls-6" cx="379.03" cy="286.01" r="5"/><circle class="cls-6" cx="338" cy="95.06" r="5"/><circle class="cls-6" cx="371.99" cy="45.02" r="5"/><circle class="cls-6" cx="176" cy="141.06" r="5"/><circle class="cls-6" cx="71.96" cy="150.03" r="5"/><circle class="cls-6" cx="35" cy="210.06" r="5"/><circle class="cls-6" cx="188.97" cy="286.06" r="5"/><circle class="cls-6" cx="51.03" cy="27.01" r="5"/><circle class="cls-6" cx="833.86" cy="44" r="5"/><circle class="cls-6" cx="921.1" cy="236.01" r="5"/><circle class="cls-6" cx="818.9" cy="299.99" r="5"/><circle class="cls-6" cx="547.88" cy="295.02" r="5"/><circle class="cls-6" cx="375.04" cy="194.06" r="5"/><circle class="cls-6" cx="1098.93" cy="29.99" r="5"/><circle class="cls-6" cx="809.16" cy="174.01" r="5"/><circle class="cls-6" cx="1003.16" cy="198.01" r="5"/><circle class="cls-6" cx="1137.16" cy="244.01" r="5"/><circle class="cls-6" cx="881.16" cy="118.01" r="5"/><circle class="cls-6" cx="1326.93" cy="275.91" r="5"/><circle class="cls-6" cx="1379.97" cy="22.03" r="5"/><circle class="cls-6" cx="1478.22" cy="20" r="5"/><circle class="cls-6" cx="1630.24" cy="299" r="5"/><circle class="cls-6" cx="1259.93" cy="48.91" r="5"/><circle class="cls-6" cx="1021.2" cy="118.01" r="5"/><circle class="cls-6" cx="1795.31" cy="124.02" r="5"/><circle class="cls-6" cx="1860.2" cy="247.01" r="5"/><circle class="cls-6" cx="1782.33" cy="181.05" r="5"/><circle class="cls-6" cx="1738.2" cy="264.01" r="5"/><circle class="cls-6" cx="1890.3" cy="303.06" r="5"/><circle class="cls-6" cx="1383.99" cy="197.9" r="5"/><circle class="cls-6" cx="1406.99" cy="107.9" r="5"/><circle class="cls-6" cx="1756.23" cy="22.02" r="5"/><circle class="cls-6" cx="1842.31" cy="51" r="5"/><circle class="cls-6" cx="1515.23" cy="194.02" r="5"/><circle class="cls-6" cx="1490.25" cy="279.04" r="5"/><circle class="cls-6" cx="1616.23" cy="35.02" r="5"/><circle class="cls-6" cx="1475.27" cy="91.01" r="5"/><circle class="cls-6" cx="1220.99" cy="114.9" r="5"/><circle class="cls-6" cx="1126.95" cy="290.97" r="5"/><circle class="cls-6" cx="1370.96" cy="258.01" r="5"/><circle class="cls-6" cx="635.93" cy="24.97" r="5"/><circle class="cls-6" cx="646.86" cy="282.92" r="5"/><polygon class="cls-7" points="603.58 296.89 599.71 292.03 593.9 294.21 597.32 289.03 593.45 284.18 599.43 285.83 602.85 280.65 603.13 286.85 609.11 288.51 603.3 290.69 603.58 296.89"/><polygon class="cls-7" points="1279.58 25.89 1275.71 21.03 1269.9 23.21 1273.32 18.03 1269.45 13.18 1275.43 14.83 1278.85 9.65 1279.13 15.85 1285.11 17.51 1279.3 19.68 1279.58 25.89"/><polygon class="cls-7" points="1105.58 222.89 1101.71 218.03 1095.9 220.21 1099.32 215.03 1095.45 210.18 1101.43 211.83 1104.85 206.65 1105.13 212.85 1111.11 214.51 1105.3 216.69 1105.58 222.89"/><polygon class="cls-7" points="442.58 26.89 438.71 22.03 432.9 24.21 436.32 19.03 432.45 14.18 438.43 15.83 441.85 10.65 442.13 16.85 448.11 18.51 442.3 20.68 442.58 26.89"/><polygon class="cls-7" points="258.58 145.89 254.71 141.03 248.9 143.21 252.32 138.03 248.45 133.18 254.43 134.83 257.85 129.65 258.13 135.85 264.11 137.51 258.3 139.69 258.58 145.89"/><polygon class="cls-7" points="51.58 108.89 47.71 104.03 41.9 106.21 45.32 101.03 41.45 96.18 47.43 97.83 50.85 92.65 51.13 98.85 57.11 100.51 51.3 102.69 51.58 108.89"/><polygon class="cls-7" points="237.58 41.89 233.71 37.03 227.9 39.21 231.32 34.03 227.45 29.18 233.43 30.83 236.85 25.65 237.13 31.85 243.11 33.51 237.3 35.69 237.58 41.89"/><polygon class="cls-7" points="942.76 299.07 938.9 294.21 933.08 296.39 936.5 291.21 932.63 286.36 938.62 288.01 942.04 282.83 942.32 289.03 948.3 290.69 942.49 292.87 942.76 299.07"/><polygon class="cls-7" points="1154.58 31.89 1150.71 27.03 1144.9 29.21 1148.32 24.03 1144.45 19.18 1150.43 20.83 1153.85 15.65 1154.13 21.85 1160.11 23.51 1154.3 25.68 1154.58 31.89"/><polygon class="cls-7" points="935.58 218.89 931.71 214.03 925.9 216.21 929.32 211.03 925.45 206.18 931.43 207.83 934.85 202.65 935.13 208.85 941.11 210.51 935.3 212.69 935.58 218.89"/><polygon class="cls-7" points="717.58 212.89 713.71 208.03 707.9 210.21 711.32 205.03 707.45 200.18 713.43 201.83 716.85 196.65 717.13 202.85 723.11 204.51 717.3 206.69 717.58 212.89"/><polygon class="cls-7" points="767.58 110.89 763.71 106.03 757.9 108.21 761.32 103.03 757.45 98.18 763.43 99.83 766.85 94.65 767.13 100.85 773.11 102.51 767.3 104.69 767.58 110.89"/><polygon class="cls-7" points="975.58 106.89 971.71 102.03 965.9 104.21 969.32 99.03 965.45 94.18 971.43 95.83 974.85 90.65 975.13 96.85 981.11 98.51 975.3 100.69 975.58 106.89"/><polygon class="cls-7" points="1168.58 304.89 1164.71 300.03 1158.9 302.21 1162.32 297.03 1158.45 292.18 1164.43 293.83 1167.85 288.65 1168.13 294.85 1174.11 296.51 1168.3 298.69 1168.58 304.89"/><polygon class="cls-7" points="1321.58 54.89 1317.71 50.03 1311.9 52.21 1315.32 47.03 1311.45 42.18 1317.43 43.83 1320.85 38.65 1321.13 44.85 1327.11 46.51 1321.3 48.69 1321.58 54.89"/><polygon class="cls-7" points="1083.58 143.89 1079.71 139.03 1073.9 141.21 1077.32 136.03 1073.45 131.18 1079.43 132.83 1082.85 127.65 1083.13 133.85 1089.11 135.51 1083.3 137.69 1083.58 143.89"/><polygon class="cls-7" points="1902.58 54.89 1898.71 50.03 1892.9 52.21 1896.32 47.03 1892.45 42.18 1898.43 43.83 1901.85 38.65 1902.13 44.85 1908.11 46.51 1902.3 48.69 1902.58 54.89"/><polygon class="cls-7" points="1898.58 105.89 1894.71 101.03 1888.9 103.21 1892.32 98.03 1888.45 93.18 1894.43 94.83 1897.85 89.65 1898.13 95.85 1904.11 97.51 1898.3 99.69 1898.58 105.89"/><polygon class="cls-7" points="1732.58 130.89 1728.71 126.03 1722.9 128.21 1726.32 123.03 1722.45 118.18 1728.43 119.83 1731.85 114.65 1732.13 120.85 1738.11 122.51 1732.3 124.69 1732.58 130.89"/><polygon class="cls-7" points="1641.58 243.89 1637.71 239.03 1631.9 241.21 1635.32 236.03 1631.45 231.18 1637.43 232.83 1640.85 227.65 1641.13 233.85 1647.11 235.51 1641.3 237.69 1641.58 243.89"/><polygon class="cls-7" points="1583.58 102.89 1579.71 98.03 1573.9 100.21 1577.32 95.03 1573.45 90.18 1579.43 91.83 1582.85 86.65 1583.13 92.85 1589.11 94.51 1583.3 96.69 1583.58 102.89"/><polygon class="cls-7" points="1838.58 298.89 1834.71 294.03 1828.9 296.21 1832.32 291.03 1828.45 286.18 1834.43 287.83 1837.85 282.65 1838.13 288.85 1844.11 290.51 1838.3 292.69 1838.58 298.89"/><polygon class="cls-7" points="1888.58 218.89 1884.71 214.03 1878.9 216.21 1882.32 211.03 1878.45 206.18 1884.43 207.83 1887.85 202.65 1888.13 208.85 1894.11 210.51 1888.3 212.69 1888.58 218.89"/><polygon class="cls-7" points="1718.58 190.89 1714.71 186.03 1708.9 188.21 1712.32 183.03 1708.45 178.18 1714.43 179.83 1717.85 174.65 1718.13 180.85 1724.11 182.51 1718.3 184.69 1718.58 190.89"/><polygon class="cls-7" points="1461.58 201.89 1457.71 197.03 1451.9 199.21 1455.32 194.03 1451.45 189.18 1457.43 190.83 1460.85 185.65 1461.13 191.85 1467.11 193.51 1461.3 195.69 1461.58 201.89"/><polygon class="cls-7" points="1674.58 31.89 1670.71 27.03 1664.9 29.21 1668.32 24.03 1664.45 19.18 1670.43 20.83 1673.85 15.65 1674.13 21.85 1680.11 23.51 1674.3 25.68 1674.58 31.89"/><polygon class="cls-7" points="1548.58 39.89 1544.71 35.03 1538.9 37.21 1542.32 32.03 1538.45 27.18 1544.43 28.83 1547.85 23.65 1548.13 29.85 1554.11 31.51 1548.3 33.69 1548.58 39.89"/><polygon class="cls-7" points="1407.58 306.89 1403.71 302.03 1397.9 304.21 1401.32 299.03 1397.45 294.18 1403.43 295.83 1406.85 290.65 1407.13 296.85 1413.11 298.51 1407.3 300.69 1407.58 306.89"/><polygon class="cls-7" points="1575.58 303.89 1571.71 299.03 1565.9 301.21 1569.32 296.03 1565.45 291.18 1571.43 292.83 1574.85 287.65 1575.13 293.85 1581.11 295.51 1575.3 297.69 1575.58 303.89"/><polygon class="cls-7" points="1222.58 195.89 1218.71 191.03 1212.9 193.21 1216.32 188.03 1212.45 183.18 1218.43 184.83 1221.85 179.65 1222.13 185.85 1228.11 187.51 1222.3 189.69 1222.58 195.89"/><polygon class="cls-7" points="1298.58 287.89 1294.71 283.03 1288.9 285.21 1292.32 280.03 1288.45 275.18 1294.43 276.83 1297.85 271.65 1298.13 277.85 1304.11 279.51 1298.3 281.69 1298.58 287.89"/><polygon class="cls-7" points="793.58 28.89 789.71 24.03 783.9 26.21 787.32 21.03 783.45 16.18 789.43 17.83 792.85 12.65 793.13 18.85 799.11 20.51 793.3 22.68 793.58 28.89"/><polygon class="cls-7" points="480.58 134.89 476.71 130.03 470.9 132.21 474.32 127.03 470.45 122.18 476.43 123.83 479.85 118.65 480.13 124.85 486.11 126.51 480.3 128.69 480.58 134.89"/><polygon class="cls-7" points="307.58 213.89 303.71 209.03 297.9 211.21 301.32 206.03 297.45 201.18 303.43 202.83 306.85 197.65 307.13 203.85 313.11 205.51 307.3 207.69 307.58 213.89"/><polygon class="cls-7" points="239.58 235.89 235.71 231.03 229.9 233.21 233.32 228.03 229.45 223.18 235.43 224.83 238.85 219.65 239.13 225.85 245.11 227.51 239.3 229.69 239.58 235.89"/><polygon class="cls-7" points="123.58 314.89 119.71 310.03 113.9 312.21 117.32 307.03 113.45 302.18 119.43 303.83 122.85 298.65 123.13 304.85 129.11 306.51 123.3 308.69 123.58 314.89"/><polygon class="cls-7" points="165.58 37.89 161.71 33.03 155.9 35.21 159.32 30.03 155.45 25.18 161.43 26.83 164.85 21.65 165.13 27.85 171.11 29.51 165.3 31.68 165.58 37.89"/><polygon class="cls-7" points="465.58 292.89 461.71 288.03 455.9 290.21 459.32 285.03 455.45 280.18 461.43 281.83 464.85 276.65 465.13 282.85 471.11 284.51 465.3 286.69 465.58 292.89"/><polygon class="cls-7" points="546.58 39.89 542.71 35.03 536.9 37.21 540.32 32.03 536.45 27.18 542.43 28.83 545.85 23.65 546.13 29.85 552.11 31.51 546.3 33.69 546.58 39.89"/><polygon class="cls-7" points="610.58 197.89 606.71 193.03 600.9 195.21 604.32 190.03 600.45 185.18 606.43 186.83 609.85 181.65 610.13 187.85 616.11 189.51 610.3 191.69 610.58 197.89"/><path class="cls-4" d="M1789.47,61.86V58.8a2.17,2.17,0,1,0-1.45,0v3.06A15.14,15.14,0,0,0,1777.36,87l-1.23,1.76a2.16,2.16,0,0,0,1.77,3.41,2.34,2.34,0,0,0,.38,0,2.16,2.16,0,0,0,1.4-.89l1-1.43a15,15,0,0,0,16.13,0l1,1.43a2.17,2.17,0,0,0,1.39.89,2.56,2.56,0,0,0,.39,0,2.09,2.09,0,0,0,1.23-.39,2.14,2.14,0,0,0,.9-1.4,2.16,2.16,0,0,0-.36-1.62L1800.12,87a15.13,15.13,0,0,0-10.65-25.14Zm-.73-5.82a.73.73,0,0,1,.73.73.73.73,0,1,1-.73-.73ZM1778.5,90.42a.73.73,0,0,1-.47.29.7.7,0,0,1-.54-.12.67.67,0,0,1-.29-.46.66.66,0,0,1,.12-.54l1.07-1.54a14.13,14.13,0,0,0,1.1,1Zm21.67-.83a.7.7,0,0,1,.12.54.71.71,0,0,1-.29.46.7.7,0,0,1-.54.12.73.73,0,0,1-.47-.29L1798,89a14.13,14.13,0,0,0,1.1-1Zm-11.43,1.13A13.73,13.73,0,1,1,1802.47,77,13.73,13.73,0,0,1,1788.74,90.72Zm6.15-24.36a.73.73,0,0,0-1,.26l-5.16,8.93a1.43,1.43,0,0,0-1.24.72h-6a.73.73,0,0,0-.72.73.72.72,0,0,0,.72.72h6a1.43,1.43,0,0,0,1.24.72,1.45,1.45,0,0,0,1.45-1.44,1.47,1.47,0,0,0-.2-.72l5.16-8.93A.73.73,0,0,0,1794.89,66.36Zm-9.48-6.76a.73.73,0,0,0-.07-.54,7.46,7.46,0,1,0-12.93,7.46.71.71,0,0,0,.62.36.74.74,0,0,0,.36-.09L1785.07,60A.69.69,0,0,0,1785.41,59.6Zm-12.08,5.55a5.92,5.92,0,0,1-.27-3.92,6,6,0,0,1,10.63-2.06Zm32.5-4.29a7.46,7.46,0,0,0-13.68-1.8.73.73,0,0,0-.07.54.69.69,0,0,0,.34.44l11.67,6.75a.8.8,0,0,0,.36.09.73.73,0,0,0,.63-.36A7.43,7.43,0,0,0,1805.83,60.86Zm-1.68,4.29-10.35-6a6,6,0,0,1,10.35,6Zm-15.41,2.45a.73.73,0,0,0,.73-.72V65.44a.73.73,0,1,0-1.45,0v1.44A.72.72,0,0,0,1788.74,67.6Zm0,18.79a.72.72,0,0,0-.72.72v1.45a.73.73,0,0,0,1.45,0V87.11A.73.73,0,0,0,1788.74,86.39Zm-4.69-1.26a.72.72,0,0,0-1,.27l-.72,1.25a.72.72,0,0,0,.26,1,.7.7,0,0,0,.36.1.73.73,0,0,0,.63-.36l.72-1.25A.73.73,0,0,0,1784.05,85.13Zm-4.43-3.7-1.25.72a.73.73,0,0,0-.26,1,.71.71,0,0,0,.62.36.65.65,0,0,0,.36-.1l1.26-.72a.72.72,0,1,0-.73-1.25Zm17.88-8.77a.81.81,0,0,0,.37-.09l1.25-.73a.72.72,0,0,0-.73-1.25l-1.25.72a.73.73,0,0,0-.26,1A.72.72,0,0,0,1797.5,72.66ZM1779.35,77a.73.73,0,0,0-.72-.73h-1.45a.73.73,0,0,0-.72.73.72.72,0,0,0,.72.72h1.45A.72.72,0,0,0,1779.35,77Zm1-5.69-1.26-.72a.72.72,0,0,0-.72,1.25l1.25.73a.8.8,0,0,0,.36.09.72.72,0,0,0,.37-1.35Zm18.77,10.84-1.25-.72a.72.72,0,0,0-.73,1.25l1.25.72a.7.7,0,0,0,.36.1.72.72,0,0,0,.37-1.35ZM1783.06,68.6a.73.73,0,0,0,.63.36.7.7,0,0,0,.36-.1.72.72,0,0,0,.26-1l-.72-1.26a.72.72,0,1,0-1.25.73Zm11.37,16.8a.72.72,0,1,0-1.25.72l.72,1.25a.73.73,0,0,0,.63.36.7.7,0,0,0,.36-.1.72.72,0,0,0,.26-1Zm5.87-9.13h-1.44a.73.73,0,0,0-.72.73.72.72,0,0,0,.72.72h1.44A.73.73,0,0,0,1801,77,.73.73,0,0,0,1800.3,76.27Z"/><path class="cls-4" d="M398.54,102.18a.72.72,0,0,0,.72-.72V97.12a.72.72,0,0,0-1.44,0v4.34A.72.72,0,0,0,398.54,102.18Zm-4.34,0a.73.73,0,0,0,.73-.72V97.12a.73.73,0,0,0-1.45,0v4.34A.72.72,0,0,0,394.2,102.18Zm0-8.67a.73.73,0,0,0,.73-.72V88.45a.73.73,0,0,0-1.45,0v4.34A.72.72,0,0,0,394.2,93.51Zm4.34,0a.72.72,0,0,0,.72-.72V88.45a.72.72,0,0,0-1.44,0v4.34A.72.72,0,0,0,398.54,93.51Zm26,8.67a.72.72,0,0,0,.72-.72V97.12a.72.72,0,1,0-1.44,0v4.34A.72.72,0,0,0,424.55,102.18Zm-4.33,0a.72.72,0,0,0,.72-.72V97.12a.73.73,0,0,0-1.45,0v4.34A.73.73,0,0,0,420.22,102.18Zm0-8.67a.72.72,0,0,0,.72-.72V88.45a.73.73,0,0,0-1.45,0v4.34A.73.73,0,0,0,420.22,93.51Zm4.33,0a.72.72,0,0,0,.72-.72V88.45a.72.72,0,0,0-1.44,0v4.34A.72.72,0,0,0,424.55,93.51Zm3.61-10.11H416.6V81.66l.38.2a.72.72,0,0,0,.69-1.27l-7.57-4.13V74.72h3.61a.73.73,0,0,0,.73-.72V71.11a.73.73,0,0,0-.73-.72h-4.33a.73.73,0,0,0-.73.72v5.35l-7.57,4.13a.71.71,0,0,0-.28,1,.72.72,0,0,0,1,.29l.37-.2V83.4H390.59a1.44,1.44,0,0,0-1.44,1.44v20.23a1.44,1.44,0,0,0,1.44,1.44h14.88l-3.11,3.11a.72.72,0,0,0,0,1,.74.74,0,0,0,1,0l4.12-4.13h3.74l4.12,4.13a.72.72,0,0,0,1-1l-3.1-3.11h14.87a1.44,1.44,0,0,0,1.45-1.44V84.84A1.44,1.44,0,0,0,428.16,83.4ZM410.1,71.83H413v1.45H410.1Zm-8,33.24H390.59V84.84h11.56Zm8.67,0h-2.89V99.29h2.89Zm4.34,0h-2.89v-6.5a.72.72,0,0,0-.72-.72h-4.34a.72.72,0,0,0-.72.72v6.5H403.6V80.87l5.78-3.15,5.78,3.15Zm13,0H416.6V84.84h11.56ZM406.49,86.28a2.89,2.89,0,1,0,2.89-2.88A2.89,2.89,0,0,0,406.49,86.28Zm4.33,0a1.45,1.45,0,1,1-1.44-1.44A1.45,1.45,0,0,1,410.82,86.28Z"/><path class="cls-4" d="M1643.83,117.17a3.62,3.62,0,1,0,3.62-3.61A3.62,3.62,0,0,0,1643.83,117.17Zm5.78,0a2.17,2.17,0,1,1-2.16-2.17A2.16,2.16,0,0,1,1649.61,117.17Zm-2.16-13.73a3.61,3.61,0,1,0-3.62-3.61A3.61,3.61,0,0,0,1647.45,103.44Zm0-5.78a2.17,2.17,0,1,1-2.17,2.17A2.17,2.17,0,0,1,1647.45,97.66Zm-13.73,23.12a3.61,3.61,0,1,0-3.61-3.61A3.61,3.61,0,0,0,1633.72,120.78Zm0-5.78a2.17,2.17,0,1,1-2.17,2.17A2.17,2.17,0,0,1,1633.72,115Zm2.44,14.61a.72.72,0,0,0-.27.56v2.89a.72.72,0,0,0,1.44,0v-2.53a6.55,6.55,0,0,1,7.23,0v2.53a.72.72,0,1,0,1.44,0v-2.89a.72.72,0,0,0-.27-.56A8,8,0,0,0,1636.16,129.61Zm13,0a.72.72,0,0,0-.27.56v2.89a.73.73,0,0,0,1.45,0v-2.53a6.54,6.54,0,0,1,7.22,0v2.53a.73.73,0,0,0,1.45,0v-2.89a.72.72,0,0,0-.27-.56A8,8,0,0,0,1649.16,129.61Zm12-8.83a3.61,3.61,0,1,0-3.61-3.61A3.62,3.62,0,0,0,1661.17,120.78Zm0-5.78a2.17,2.17,0,1,1-2.16,2.17A2.17,2.17,0,0,1,1661.17,115Zm4.79,7.38a8,8,0,0,0-9.22-.25,3.58,3.58,0,0,0-5.33-.3,8.06,8.06,0,0,0-7.93,0,3.58,3.58,0,0,0-5.33.3,8,8,0,0,0-9.22.25.74.74,0,0,0-.27.57v4.33a.73.73,0,0,0,1.45,0v-4a6.51,6.51,0,0,1,7.37.12,3.44,3.44,0,0,0-.15,1,3.62,3.62,0,0,0,7.23,0,3.56,3.56,0,0,0-.27-1.34,6.66,6.66,0,0,1,6.31,0,3.55,3.55,0,0,0-.26,1.34,3.61,3.61,0,1,0,7.22,0,3.84,3.84,0,0,0-.14-1,6.51,6.51,0,0,1,7.37-.12v4a.72.72,0,1,0,1.44,0V123A.74.74,0,0,0,1666,122.38Zm-25,4.18a2.17,2.17,0,1,1,2.17-2.17A2.17,2.17,0,0,1,1640.94,126.56Zm13,0a2.17,2.17,0,1,1,2.17-2.17A2.17,2.17,0,0,1,1654,126.56Zm-15.89-13h2.16v3.61a.73.73,0,0,0,1.45,0v-4.34a.73.73,0,0,0-.73-.72h-2.16v-2.89h17.34v2.89H1654a.72.72,0,0,0-.72.72v4.34a.72.72,0,0,0,1.44,0v-3.61h2.17a.73.73,0,0,0,.72-.73V108.5a.73.73,0,0,0-.72-.73h-3.61v-1.44a2.9,2.9,0,0,0-2.89-2.89h-.73a.75.75,0,0,0-.51.21l-1.65,1.66-1.66-1.66a.74.74,0,0,0-.51-.21h-.72a2.89,2.89,0,0,0-2.89,2.89v1.44h-3.61a.73.73,0,0,0-.73.73v4.33A.73.73,0,0,0,1638.06,113.56Zm5-7.23a1.45,1.45,0,0,1,1.45-1.45h.42l2,2a.72.72,0,0,0,1,0l2-2h.43a1.45,1.45,0,0,1,1.44,1.45v1.44h-8.67Z"/><path class="cls-4" d="M1562.63,129.13a40.23,40.23,0,0,1-7.27,11.27.93.93,0,0,0-.13.15,48.39,48.39,0,0,1-3.42,3.45.93.93,0,0,0-.15.13,42,42,0,0,1-11.93,7.7.73.73,0,0,0-.45.67,12.29,12.29,0,0,0,12.29,12.28.71.71,0,0,0,.66-.44,40.93,40.93,0,0,1,6-10l4.14,7.17a.72.72,0,0,0,.63.37h.09a.72.72,0,0,0,.6-.53l.75-2.79,2.79.75a.73.73,0,0,0,.82-1.06l-3.33-5.76h8.48a.71.71,0,0,0,.67-.45.71.71,0,0,0-.16-.78l-2-2,2-2a.73.73,0,0,0-.51-1.24H1567a37.65,37.65,0,0,1,7.92-4.55,2.75,2.75,0,0,0,1.1-.66c1.87-1.87.54-6.13-3-9.7s-7.83-4.9-9.7-3A2.8,2.8,0,0,0,1562.63,129.13Zm.37,18.24a14.22,14.22,0,0,1-3.64-2.66,14.69,14.69,0,0,1-2.67-3.64,44,44,0,0,0,6.06-8.79,11.14,11.14,0,0,0,1.1,2.38l0,0a16.72,16.72,0,0,0,2.43,3.08,14.07,14.07,0,0,0,5.5,3.54A43.75,43.75,0,0,0,1563,147.37Zm3.82-11.15a16,16,0,0,1-1.48-1.89l1.49-2.06a7.9,7.9,0,0,0,1.49,2.45Zm-1.22-7.57a5.57,5.57,0,0,1,2,.44,1.72,1.72,0,0,0-.43.32s0,0-.05.05l0,0-2.5,3.46c-.83-1.74-.91-3.21-.26-3.87A1.83,1.83,0,0,1,1565.6,128.65Zm-9.94,13.56a16.55,16.55,0,0,0,6.19,6.2c-.87.82-1.72,1.66-2.53,2.54a14.79,14.79,0,0,1-6.2-6.2C1554,143.93,1554.84,143.08,1555.66,142.21Zm-4.57,21.12A10.84,10.84,0,0,1,1540.74,153a43.37,43.37,0,0,0,11.26-7.24,16.59,16.59,0,0,0,6.33,6.33A43.21,43.21,0,0,0,1551.09,163.33Zm13.07-6.35a.75.75,0,0,0-.55.08.69.69,0,0,0-.34.44l-.48,1.8-3.53-6.11.67-.78a.69.69,0,0,0,.16-.18c.58-.63,1.17-1.24,1.78-1.85l4.09,7.09Zm7.32-9.54-1.3,1.3a.7.7,0,0,0,0,1l1.3,1.3h-7.55l-1-1.71.54-.48a.76.76,0,0,0,.21-.19c.47-.42,1-.83,1.44-1.24Zm3.5-7.67c-1,1-4.14.22-7.13-2.53l2-2a.72.72,0,0,0,0-1c-1.59-1.59-2.06-3.24-1.72-3.74l.06-.07c.44-.4,2.15.06,3.78,1.69C1575.11,135.26,1576.08,138.67,1575,139.77Z"/><path class="cls-4" d="M232.83,83.19h-3.61a1.44,1.44,0,0,1-1.44-1.44V78.14a.73.73,0,1,0-1.45,0v3.61a2.9,2.9,0,0,0,2.89,2.89h3.61a.73.73,0,0,0,.73-.72A.73.73,0,0,0,232.83,83.19Zm2.56-2.07-5.53-5.54a3.62,3.62,0,0,0-2.56-1.06H211.16a3.62,3.62,0,0,0-3.61,3.62v30.34a3.62,3.62,0,0,0,3.61,3.62h21.67a3.63,3.63,0,0,0,3.62-3.62V83.67A3.58,3.58,0,0,0,235.39,81.12ZM235,108.48a2.17,2.17,0,0,1-2.17,2.17H211.16a2.17,2.17,0,0,1-2.17-2.17V78.14A2.17,2.17,0,0,1,211.16,76H227.3a2.2,2.2,0,0,1,1.54.63l5.53,5.54a2.14,2.14,0,0,1,.63,1.53Zm-13.72-9.39h7.22a.72.72,0,0,0,0-1.44h-7.22a.72.72,0,1,0,0,1.44Zm0-7.23h7.22a.72.72,0,0,0,0-1.44h-7.22a.72.72,0,1,0,0,1.44Zm-4.85-4.12-2.38,2.38-.93-.93a.72.72,0,0,0-1,1l1.45,1.44a.71.71,0,0,0,.51.21.73.73,0,0,0,.51-.21l2.89-2.89a.72.72,0,0,0-1-1Zm0,14.45-2.38,2.38-.93-.93a.72.72,0,0,0-1,1l1.45,1.44a.71.71,0,0,0,.51.21.73.73,0,0,0,.51-.21l2.89-2.89a.72.72,0,1,0-1-1Zm15-7.44H221.28a.73.73,0,0,0-.73.73.73.73,0,0,0,.73.72h10.11a.72.72,0,0,0,.72-.72A.73.73,0,0,0,231.39,94.75Zm0-7.22H221.28a.72.72,0,1,0,0,1.44h10.11a.72.72,0,0,0,0-1.44Zm-15.9-4.34h7.23a.72.72,0,0,0,0-1.44h-7.23a.72.72,0,1,0,0,1.44Zm13,21.68h-7.22a.72.72,0,1,0,0,1.44h7.22a.72.72,0,1,0,0-1.44Zm2.89-2.89H221.28a.72.72,0,1,0,0,1.44h10.11a.72.72,0,0,0,0-1.44Zm-19.3-3.1a.74.74,0,0,0,1,0l.93-.94.93.94a.74.74,0,0,0,1,0,.72.72,0,0,0,0-1l-.94-.94L216,96a.72.72,0,1,0-1-1l-.93.93-.93-.93a.72.72,0,0,0-1,1l.94.93-.94.94A.72.72,0,0,0,212.09,98.88Z"/><path class="cls-4" d="M1458.7,268.22h.83a.72.72,0,0,0,0-1.44H1458l-5.15-10.89a5.06,5.06,0,0,0-1.29-7v-6a2.17,2.17,0,0,0-2.17-2.17H1448a2.17,2.17,0,0,0-2.17,2.17v6a5,5,0,0,0-1.3,7l-5.14,10.89h-1.51a.72.72,0,1,0,0,1.44h.83l-2.93,6.2a.73.73,0,0,0,0,.63l2.09,4.18v1.28a.72.72,0,0,0,.72.72.73.73,0,0,0,.73-.72v-1.29l5.13-11h2.09V269a2.17,2.17,0,0,0,4.33,0v-.73h2.1l5.13,11v1.29a.72.72,0,0,0,.72.72.73.73,0,0,0,.73-.72v-1.28l2.09-4.18a.7.7,0,0,0,0-.63Zm-11.46-25.28a.73.73,0,0,1,.73-.72h1.44a.72.72,0,0,1,.72.72v5.27a4.92,4.92,0,0,0-1.44-.21,5,5,0,0,0-1.45.21Zm1.45,6.5a3.61,3.61,0,1,1-3.61,3.61A3.61,3.61,0,0,1,1448.69,249.44Zm-10.14,28-1.34-2.68,8.35-17.7a4.92,4.92,0,0,0,2,1Zm10.86-8.45a.72.72,0,0,1-1.44,0v-2.89a.72.72,0,1,1,1.44,0Zm1.44-2.17v-.72a2.17,2.17,0,1,0-4.33,0v.72h-1.42l3.59-7.68,3.58,7.68Zm8,10.62L1449.77,258a4.88,4.88,0,0,0,2-1l8.36,17.7Zm-4-.18a17.34,17.34,0,0,1-12.25,0,.72.72,0,0,0-.51,1.35,18.82,18.82,0,0,0,13.28,0,.72.72,0,0,0,.42-.93A.74.74,0,0,0,1454.81,277.22ZM1431.35,261a17.42,17.42,0,0,1,12.48-16.65.7.7,0,0,0,.49-.89.72.72,0,0,0-.89-.49,18.87,18.87,0,0,0-13.53,18,18.6,18.6,0,0,0,4,11.55.72.72,0,0,0,.57.28.68.68,0,0,0,.44-.16.72.72,0,0,0,.13-1A17.16,17.16,0,0,1,1431.35,261Zm22.6-18a.72.72,0,1,0-.41,1.38A17.43,17.43,0,0,1,1466,261a17.16,17.16,0,0,1-3.67,10.66.72.72,0,0,0,.12,1,.71.71,0,0,0,.45.16.75.75,0,0,0,.57-.28,18.59,18.59,0,0,0,4-11.55A18.87,18.87,0,0,0,1454,243Z"/><path class="cls-4" d="M124.26,215l-18.07-13.72a.71.71,0,0,0-.87,0L87.26,215a.73.73,0,0,0-.29.61.76.76,0,0,0,.33.58L94.91,221a10.74,10.74,0,0,0-.71,3.89,11.64,11.64,0,0,0,.59,3.66,5.11,5.11,0,0,1-3,6.5.75.75,0,0,0-.47.6.73.73,0,0,0,.32.68,29.07,29.07,0,0,0,3.06,1.75l-1.48.59a.74.74,0,0,0-.41.94.75.75,0,0,0,.68.46.62.62,0,0,0,.26-.06l6.82-2.72,4.73,4.05a.73.73,0,0,0,.47.17.78.78,0,0,0,.47-.17l4.72-4.05,6.82,2.72a.66.66,0,0,0,.27.06.73.73,0,0,0,.27-1.4l-1.49-.59a28.09,28.09,0,0,0,3.06-1.75.71.71,0,0,0,.31-.69.76.76,0,0,0-.48-.6,5.1,5.1,0,0,1-3-6.49,11.64,11.64,0,0,0,.59-3.66,10.75,10.75,0,0,0-.72-3.89l3.61-2.32v4.54a8.76,8.76,0,0,0-1.45,4.56.73.73,0,0,0,.73.72h2.89a.72.72,0,0,0,.72-.72,8.76,8.76,0,0,0-1.45-4.56v-5.47l2.56-1.64a.73.73,0,0,0,.05-1.19Zm-4,12.14a7.38,7.38,0,0,1,.67-2.18,7.38,7.38,0,0,1,.67,2.18ZM96.54,237.37a26,26,0,0,1-3-1.54,6.59,6.59,0,0,0,2.64-7.71,10.17,10.17,0,0,1-.52-3.2,9.25,9.25,0,0,1,1.46-5c0,.68,0,1.4,0,2.13,0,4.06,1.06,7.37,2.89,9.53V236ZM113,222c0,3.32-.85,6.65-2.66,8.73l0,.07a6,6,0,0,1-9,0l0-.07c-1.82-2.08-2.67-5.41-2.67-8.73,0-1.31,0-2.5,0-3.58a16.68,16.68,0,0,1,6.8,2,.76.76,0,0,0,.38.11.7.7,0,0,0,.37-.11,16.62,16.62,0,0,1,6.81-2C113,219.53,113,220.72,113,222Zm-7.22-3a18,18,0,0,0-7.09-2c.38-3.87,1.8-5.82,7.09-5.82s6.7,1.95,7.08,5.82A17.91,17.91,0,0,0,105.76,219Zm0,20.83-4.34-3.72v-3.23a7.45,7.45,0,0,0,8.67,0v3.23Zm12.24-4a26.8,26.8,0,0,1-3,1.54L111.54,236v-4.43c1.82-2.16,2.89-5.47,2.89-9.53,0-.73,0-1.45,0-2.13a9.24,9.24,0,0,1,1.45,5,10.16,10.16,0,0,1-.51,3.2A6.58,6.58,0,0,0,118,235.83Zm-2-16.12a12.52,12.52,0,0,0-1.67-2.31c-.37-4.62-1.92-7.65-8.56-7.65s-8.2,3-8.56,7.65a11.65,11.65,0,0,0-1.67,2.31L89,215.48l16.81-12.77,16.8,12.77Z"/><path class="cls-4" d="M115.87,108.51a26.26,26.26,0,0,0-7.58-1.18,16.86,16.86,0,0,0-2.11.14.73.73,0,0,0-.63.81.72.72,0,0,0,.81.62,16.18,16.18,0,0,1,1.93-.13,24.43,24.43,0,0,1,7.16,1.13.76.76,0,0,0,.21,0,.72.72,0,0,0,.69-.51A.73.73,0,0,0,115.87,108.51Zm-9.69-5.37a.72.72,0,0,0-.63.81.73.73,0,0,0,.81.62,14.33,14.33,0,0,1,1.93-.13,24.74,24.74,0,0,1,7.16,1.12.76.76,0,0,0,.21,0,.72.72,0,0,0,.21-1.41,25.92,25.92,0,0,0-7.58-1.18A15.16,15.16,0,0,0,106.18,103.14Zm9.69,9.71a25.94,25.94,0,0,0-7.58-1.19,15.19,15.19,0,0,0-2.11.15.72.72,0,0,0-.63.81.73.73,0,0,0,.81.62,14.33,14.33,0,0,1,1.93-.13,24.74,24.74,0,0,1,7.16,1.12.76.76,0,0,0,.21,0,.72.72,0,0,0,.21-1.41Zm0,4.33a26.26,26.26,0,0,0-7.58-1.18,16.86,16.86,0,0,0-2.11.14.72.72,0,1,0,.18,1.43,16.18,16.18,0,0,1,1.93-.13,24.43,24.43,0,0,1,7.16,1.13.76.76,0,0,0,.21,0,.72.72,0,0,0,.69-.51A.73.73,0,0,0,115.87,117.18Zm17.95-14a15.4,15.4,0,0,0-2.12-.14,25.92,25.92,0,0,0-7.58,1.18.72.72,0,0,0,.21,1.41.76.76,0,0,0,.21,0,24.84,24.84,0,0,1,7.16-1.12,14.12,14.12,0,0,1,1.93.13.72.72,0,0,0,.19-1.43Zm6.41-.14h-1.45v-1.45a.71.71,0,0,0-.24-.54,9.63,9.63,0,0,0-6.84-2.35,27.51,27.51,0,0,0-11.7,2.8,27.52,27.52,0,0,0-11.71-2.8,9.63,9.63,0,0,0-6.84,2.35.75.75,0,0,0-.24.54V103H99.77a1.44,1.44,0,0,0-1.45,1.44v20.23a1.44,1.44,0,0,0,1.45,1.44h15.89v.73a8.3,8.3,0,0,0,3.15,6.33.69.69,0,0,0,.46.17.72.72,0,0,0,.47-1.28,6.87,6.87,0,0,1-2.63-5.22v-5.78a2.17,2.17,0,0,1,1.44-2V124a.73.73,0,0,0,1.45,0V110.22a1.45,1.45,0,1,1,2.89,0V118a.73.73,0,0,0,.43.66.71.71,0,0,0,.77-.13,1.45,1.45,0,0,1,1-.37,1.53,1.53,0,0,1,.3,0h0a1.45,1.45,0,0,1,1.11,1.3.73.73,0,0,0,.45.63.75.75,0,0,0,.76-.14,1.42,1.42,0,0,1,1-.39,1.44,1.44,0,0,1,1.38,1.07.73.73,0,0,0,.38.46.71.71,0,0,0,.59,0,1.46,1.46,0,0,1,2,1.34v6.63a4.27,4.27,0,0,1-1.23,3,.72.72,0,0,0,1,1,5.7,5.7,0,0,0,1.66-4v-3h5.78a1.44,1.44,0,0,0,1.44-1.44V104.44A1.44,1.44,0,0,0,140.23,103Zm-24.57,21.67H99.77V104.44h1.44V122.5a.75.75,0,0,0,.34.62.76.76,0,0,0,.39.1.71.71,0,0,0,.32-.07,15.52,15.52,0,0,1,6.18-1.37,24,24,0,0,1,7.22,1.17Zm3.61-16.34a2.88,2.88,0,0,0-.72,1.89v7.3a3.62,3.62,0,0,0-2.89,3.54v.37a25.18,25.18,0,0,0-7.22-1.1,17.11,17.11,0,0,0-5.78,1.08V101.88a8.34,8.34,0,0,1,5.63-1.78,26.27,26.27,0,0,1,11,2.62Zm12.29,11.28a2.34,2.34,0,0,0-.38,0,2.9,2.9,0,0,0-2.51-1.47,2.72,2.72,0,0,0-1,.19,3.26,3.26,0,0,0-.3-.48,22.68,22.68,0,0,1,4.35-.44,15.91,15.91,0,0,1,1.93.13.72.72,0,0,0,.81-.62.73.73,0,0,0-.62-.81,17.15,17.15,0,0,0-2.12-.14,25.69,25.69,0,0,0-6.09.78,3.43,3.43,0,0,0-.55-.06,2.57,2.57,0,0,0-.73.1v-2.56a.76.76,0,0,0,.21,0,24.84,24.84,0,0,1,7.16-1.12,14.12,14.12,0,0,1,1.93.13.72.72,0,0,0,.19-1.43,15.44,15.44,0,0,0-2.12-.15,26.15,26.15,0,0,0-7.37,1.13v-2.57c0-.1,0-.2,0-.3h0a.76.76,0,0,0,.21,0,24.53,24.53,0,0,1,7.16-1.13,15.91,15.91,0,0,1,1.93.13.71.71,0,0,0,.81-.62.73.73,0,0,0-.62-.81,17.15,17.15,0,0,0-2.12-.14,26.26,26.26,0,0,0-7.58,1.18.58.58,0,0,0-.25.15,2.89,2.89,0,0,0-2.43-1.33,2.84,2.84,0,0,0-.72.1v-4.72a26.51,26.51,0,0,1,11-2.61,8.38,8.38,0,0,1,5.64,1.78v19.54a17.86,17.86,0,0,0-3.72-.94A2.88,2.88,0,0,0,131.56,119.61Zm8.67,5.06h-5.78V122.5a2,2,0,0,0,0-.42,15.13,15.13,0,0,1,3.34,1.07.71.71,0,0,0,.32.07.7.7,0,0,0,.72-.72V104.44h1.45Z"/><path class="cls-4" d="M361.06,250.13l-2.68-2.68V229.68a1.45,1.45,0,0,0-1.44-1.44h-1.45v-2.89a1.45,1.45,0,0,0-1.44-1.45H332.49a3,3,0,0,0-3,2.74.85.85,0,0,0,0,.16h0v26.73a3.62,3.62,0,0,0,3.62,3.61h12.7l4.12,4.12a.74.74,0,0,0,1,0l10.11-10.11A.72.72,0,0,0,361.06,250.13Zm-28.57-24.78h21.56v2.89H332.37a1.44,1.44,0,0,1-1.44-1.52A1.53,1.53,0,0,1,332.49,225.35Zm-1.56,28.18V229.28a2.92,2.92,0,0,0,1.44.4v25.88A2.15,2.15,0,0,1,330.93,253.53Zm2.89,2.16v-26h23.12v17.77l-2.89,2.89V236.19a.72.72,0,0,0-.72-.72h-5.78a.73.73,0,0,0-.73.72v.72h-7.94a.72.72,0,1,0,0,1.44h7.94v1.45h-7.94a.73.73,0,0,0-.73.72.73.73,0,0,0,.73.73h7.94v9.09l-3.1-3.1a.71.71,0,0,0-1,0l-2.89,2.89a.72.72,0,0,0,0,1l4.55,4.54Zm16.62,4-9.1-9.09,1.87-1.87,3.82,3.82a.73.73,0,0,0,1.24-.51V236.91h4.33v15.17a.73.73,0,0,0,1.24.51l3.82-3.82,1.87,1.87Z"/><path class="cls-4" d="M1810.44,217.48h-36.12a2.17,2.17,0,0,0-2.17,2.17v23.12a2.17,2.17,0,0,0,2.17,2.17H1788v2.89h-2.16a.72.72,0,1,0,0,1.44h13a.72.72,0,0,0,0-1.44h-2.17v-2.89h13.73a2.17,2.17,0,0,0,2.17-2.17V219.65A2.17,2.17,0,0,0,1810.44,217.48Zm-15.17,30.35h-5.78v-2.89h5.78Zm15.89-5.06a.73.73,0,0,1-.72.73h-36.12a.73.73,0,0,1-.73-.73v-3.61h37.57Zm0-5.05h-37.57V219.65a.73.73,0,0,1,.73-.72h36.12a.72.72,0,0,1,.72.72Zm-20.23,4.33h2.89a.73.73,0,0,0,.73-.72.73.73,0,0,0-.73-.73h-2.89a.73.73,0,0,0-.72.73A.72.72,0,0,0,1790.93,242.05Z"/></g></svg>