<?xml version="1.0" encoding="UTF-8"?>
<svg width="15px" height="19px" viewBox="0 0 15 19" version="1.1" xmlns="http://www.w3.org/2000/svg" xmlns:xlink="http://www.w3.org/1999/xlink">
    <!-- Generator: Sketch 55.1 (78136) - https://sketchapp.com -->
    <title>Mask</title>
    <desc>Created with Sketch.</desc>
    <defs>
        <path d="M1195.39276,5607.61666 C1190.00084,5599.79998 1189,5598.99775 1189,5596.125 C1189,5592.18996 1192.18996,5589 1196.125,5589 C1200.06004,5589 1203.25,5592.18996 1203.25,5596.125 C1203.25,5598.99775 1202.24916,5599.79998 1196.85724,5607.61666 C1196.5034,5608.1278 1195.74656,5608.12777 1195.39276,5607.61666 Z M1196.125,5599.09375 C1197.7646,5599.09375 1199.09375,5597.7646 1199.09375,5596.125 C1199.09375,5594.4854 1197.7646,5593.15625 1196.125,5593.15625 C1194.4854,5593.15625 1193.15625,5594.4854 1193.15625,5596.125 C1193.15625,5597.7646 1194.4854,5599.09375 1196.125,5599.09375 Z" id="path-1"></path>
    </defs>
    <g id="Page-1" stroke="none" stroke-width="1" fill="none" fill-rule="evenodd">
        <g id="CU_Desktop_Zoomed-Map-Copy-4" transform="translate(-1189.000000, -5589.000000)">
            <mask id="mask-2" fill="white">
                <use xlink:href="#path-1"></use>
            </mask>
            <use id="Mask" fill="#666666" xlink:href="#path-1"></use>
        </g>
    </g>
</svg>