<?xml version="1.0" encoding="UTF-8"?>
<svg width="17px" height="14px" viewBox="0 0 17 14" version="1.1" xmlns="http://www.w3.org/2000/svg" xmlns:xlink="http://www.w3.org/1999/xlink">
    <!-- Generator: Sketch 55.1 (78136) - https://sketchapp.com -->
    <title>Icon/ListOFF Copy 4</title>
    <desc>Created with Sketch.</desc>
    <defs>
        <path d="M3,3 C3,3.8284375 2.3284375,4.5 1.5,4.5 C0.6715625,4.5 0,3.8284375 0,3 C0,2.1715625 0.6715625,1.5 1.5,1.5 C2.3284375,1.5 3,2.1715625 3,3 Z M1.5,6.5 C0.6715625,6.5 0,7.1715625 0,8 C0,8.8284375 0.6715625,9.5 1.5,9.5 C2.3284375,9.5 3,8.8284375 3,8 C3,7.1715625 2.3284375,6.5 1.5,6.5 Z M1.5,11.5 C0.6715625,11.5 0,12.1715625 0,13 C0,13.8284375 0.6715625,14.5 1.5,14.5 C2.3284375,14.5 3,13.8284375 3,13 C3,12.1715625 2.3284375,11.5 1.5,11.5 Z M4.5,4.125 L15.5,4.125 C15.7761562,4.125 16,3.90115625 16,3.625 L16,2.375 C16,2.09884375 15.7761562,1.875 15.5,1.875 L4.5,1.875 C4.22384375,1.875 4,2.09884375 4,2.375 L4,3.625 C4,3.90115625 4.22384375,4.125 4.5,4.125 Z M4.5,9.125 L15.5,9.125 C15.7761562,9.125 16,8.90115625 16,8.625 L16,7.375 C16,7.09884375 15.7761562,6.875 15.5,6.875 L4.5,6.875 C4.22384375,6.875 4,7.09884375 4,7.375 L4,8.625 C4,8.90115625 4.22384375,9.125 4.5,9.125 Z M4.5,14.125 L15.5,14.125 C15.7761562,14.125 16,13.9011562 16,13.625 L16,12.375 C16,12.0988438 15.7761562,11.875 15.5,11.875 L4.5,11.875 C4.22384375,11.875 4,12.0988438 4,12.375 L4,13.625 C4,13.9011562 4.22384375,14.125 4.5,14.125 Z" id="path-1"></path>
    </defs>
    <g id="Page-1" stroke="none" stroke-width="1" fill="none" fill-rule="evenodd">
        <g id="CU_Desktop_Zoomed-Map-Copy-4" transform="translate(-224.000000, -2527.000000)">
            <g id="Group-11-Copy-4" transform="translate(202.000000, 2407.000000)">
                <g id="Icon/ListOFF" transform="translate(11.000000, 108.000000)">
                    <g transform="translate(11.266667, 11.266667)" id="Solid/list-ul">
                        <g>
                            <mask id="mask-2" fill="white">
                                <use xlink:href="#path-1"></use>
                            </mask>
                            <g id="Mask"></g>
                            <g id="Color/Black" mask="url(#mask-2)" fill="#242A42" fill-rule="evenodd">
                                <rect id="Black" x="0" y="0" width="16" height="16"></rect>
                            </g>
                            <g id="Colors/@graysmalltitle" mask="url(#mask-2)" fill="#9B9B9B" fill-rule="evenodd" stroke="#9B9B9B" stroke-width="1">
                                <rect id="Rectangle-Copy-8" x="0.5" y="0.5" width="15" height="15"></rect>
                            </g>
                        </g>
                    </g>
                </g>
            </g>
        </g>
    </g>
</svg>