<svg width="19px" height="17px" viewBox="0 0 19 17" version="1.1" xmlns="http://www.w3.org/2000/svg" xmlns:xlink="http://www.w3.org/1999/xlink">
    <defs>
        <path id="list-path" d="M3.5625,3.5625 C3.5625,4.54626953 2.76501953,5.34375 1.78125,5.34375 C0.797480469,5.34375 0,4.54626953 0,3.5625 C0,2.57873047 0.797480469,1.78125 1.78125,1.78125 C2.76501953,1.78125 3.5625,2.57873047 3.5625,3.5625 Z M1.78125,7.71875 C0.797480469,7.71875 0,8.51623047 0,9.5 C0,10.4837695 0.797480469,11.28125 1.78125,11.28125 C2.76501953,11.28125 3.5625,10.4837695 3.5625,9.5 C3.5625,8.51623047 2.76501953,7.71875 1.78125,7.71875 Z M1.78125,13.65625 C0.797480469,13.65625 0,14.4537305 0,15.4375 C0,16.4212695 0.797480469,17.21875 1.78125,17.21875 C2.76501953,17.21875 3.5625,16.4212695 3.5625,15.4375 C3.5625,14.4537305 2.76501953,13.65625 1.78125,13.65625 Z M5.34375,4.8984375 L18.40625,4.8984375 C18.7341855,4.8984375 19,4.63262305 19,4.3046875 L19,2.8203125 C19,2.49237695 18.7341855,2.2265625 18.40625,2.2265625 L5.34375,2.2265625 C5.01581445,2.2265625 4.75,2.49237695 4.75,2.8203125 L4.75,4.3046875 C4.75,4.63262305 5.01581445,4.8984375 5.34375,4.8984375 Z M5.34375,10.8359375 L18.40625,10.8359375 C18.7341855,10.8359375 19,10.570123 19,10.2421875 L19,8.7578125 C19,8.42987695 18.7341855,8.1640625 18.40625,8.1640625 L5.34375,8.1640625 C5.01581445,8.1640625 4.75,8.42987695 4.75,8.7578125 L4.75,10.2421875 C4.75,10.570123 5.01581445,10.8359375 5.34375,10.8359375 Z M5.34375,16.7734375 L18.40625,16.7734375 C18.7341855,16.7734375 19,16.507623 19,16.1796875 L19,14.6953125 C19,14.367377 18.7341855,14.1015625 18.40625,14.1015625 L5.34375,14.1015625 C5.01581445,14.1015625 4.75,14.367377 4.75,14.6953125 L4.75,16.1796875 C4.75,16.507623 5.01581445,16.7734375 5.34375,16.7734375 Z"></path>
    </defs>
    <g stroke="none" stroke-width="1" fill="none" fill-rule="evenodd">
        <g>
            <mask id="list-mask" fill="white">
                <use xlink:href="#list-path"></use>
            </mask>
            <g></g>
            <g mask="url(#list-mask)" fill="#242A42" fill-rule="evenodd">
                <rect x="0" y="0" width="19" height="19"></rect>
            </g>
            <g mask="url(#list-mask)" fill="black" fill-rule="evenodd" stroke="black" stroke-width="1">
                <rect x="0.5" y="0.5" width="18" height="18"></rect>
            </g>
        </g>
    </g>
</svg>