<?xml version="1.0" encoding="UTF-8"?>
<svg width="12px" height="12px" viewBox="0 0 12 12" version="1.1" xmlns="http://www.w3.org/2000/svg" xmlns:xlink="http://www.w3.org/1999/xlink">
    <!-- Generator: Sketch 55.1 (78136) - https://sketchapp.com -->
    <title>plus copy 4</title>
    <desc>Created with Sketch.</desc>
    <g id="Page-1" stroke="none" stroke-width="1" fill="none" fill-rule="evenodd">
        <g id="CU_Desktop_Zoomed-Map-Copy-4" transform="translate(-227.000000, -2589.000000)" fill="#9B9B9B">
            <g id="Group-11-Copy-4" transform="translate(202.000000, 2407.000000)">
                <path d="M29.3636364,186.363636 L29.3636364,183.086085 C29.3636364,182.485277 29.8515434,182 30.4534072,182 L31.5465928,182 C32.1534615,182 32.6363636,182.486257 32.6363636,183.086085 L32.6363636,186.363636 L35.9139155,186.363636 C36.5147233,186.363636 37,186.851543 37,187.453407 L37,188.546593 C37,189.153461 36.5137434,189.636364 35.9139155,189.636364 L32.6363636,189.636364 L32.6363636,192.913915 C32.6363636,193.514723 32.1484566,194 31.5465928,194 L30.4534072,194 C29.8465385,194 29.3636364,193.513743 29.3636364,192.913915 L29.3636364,189.636364 L26.0860845,189.636364 C25.4852767,189.636364 25,189.148457 25,188.546593 L25,187.453407 C25,186.846539 25.4862566,186.363636 26.0860845,186.363636 L29.3636364,186.363636 L29.3636364,186.363636 Z" id="plus-copy-4"></path>
            </g>
        </g>
    </g>
</svg>