<?xml version="1.0" encoding="UTF-8"?>
<svg width="18px" height="18px" viewBox="0 0 18 18" version="1.1" xmlns="http://www.w3.org/2000/svg" xmlns:xlink="http://www.w3.org/1999/xlink">
    <!-- Generator: Sketch 55.1 (78136) - https://sketchapp.com -->
    <title>Solid/search Copy 4</title>
    <desc>Created with Sketch.</desc>
    <defs>
        <path d="M17.7368421,15.5333333 L14.2385965,12.0350877 C14.0807018,11.877193 13.8666667,11.7894737 13.6421053,11.7894737 L13.0701754,11.7894737 C14.0385965,10.5508772 14.6140351,8.99298246 14.6140351,7.29824561 C14.6140351,3.26666667 11.3473684,0 7.31578947,0 C3.28421053,0 0.0175438596,3.26666667 0.0175438596,7.29824561 C0.0175438596,11.3298246 3.28421053,14.5964912 7.31578947,14.5964912 C9.01052632,14.5964912 10.5684211,14.0210526 11.8070175,13.0526316 L11.8070175,13.6245614 C11.8070175,13.8491228 11.8947368,14.0631579 12.0526316,14.2210526 L15.5508772,17.7192982 C15.8807018,18.0491228 16.4140351,18.0491228 16.7403509,17.7192982 L17.7333333,16.7263158 C18.0631579,16.3964912 18.0631579,15.8631579 17.7368421,15.5333333 Z M7.31578947,11.7894737 C4.83508772,11.7894737 2.8245614,9.78245614 2.8245614,7.29824561 C2.8245614,4.81754386 4.83157895,2.80701754 7.31578947,2.80701754 C9.79649123,2.80701754 11.8070175,4.81403509 11.8070175,7.29824561 C11.8070175,9.77894737 9.8,11.7894737 7.31578947,11.7894737 Z" id="path-1"></path>
    </defs>
    <g id="Page-1" stroke="none" stroke-width="1" fill="none" fill-rule="evenodd">
        <g id="CU_Desktop_Zoomed-Map-Copy-4" transform="translate(-223.000000, -2425.000000)">
            <g id="Group-11-Copy-4" transform="translate(202.000000, 2407.000000)">
                <g id="Solid/search" transform="translate(21.000000, 18.000000)">
                    <mask id="mask-2" fill="white">
                        <use xlink:href="#path-1"></use>
                    </mask>
                    <g id="Mask"></g>
                    <g id="Color/Black" mask="url(#mask-2)" fill="#242A42" fill-rule="evenodd">
                        <rect id="Black" x="0" y="0" width="18" height="18"></rect>
                    </g>
                    <g id="Colors/@graysmalltitle" mask="url(#mask-2)" fill="#9B9B9B" fill-rule="evenodd" stroke="#9B9B9B" stroke-width="1">
                        <rect id="Rectangle-Copy-8" x="0.5" y="0.5" width="17" height="17"></rect>
                    </g>
                </g>
            </g>
        </g>
    </g>
</svg>